<svg xmlns="http://www.w3.org/2000/svg" width="191" height="107" fill="none" viewBox="0 0 191 107"><g filter="url(#a)"><path fill="#3dc3ff" fill-rule="evenodd" d="M27.18 73.75C8.954 67.833 1 59.099 1 49.646 1 38.013 17.044 26.522 43.586 20.84c12.873-2.756 27.998-3.956 45.377-3.956 53.207 0 102.275 11.868 100.18 32.76 0 10.366-9.081 19.898-27.576 25.589-10.084 3.103-22.843 4.936-38.805 5.499-6.279 10.845-15.468 16.43-30.544 25.267 11.056-10.3 17.83-16.942 20.281-25.08h-.847c-37.713 1.856-66.235-1.247-84.473-7.17" clip-rule="evenodd"/></g><path fill="#3dc3ff" d="m27.18 73.75-.31.952zm16.406-52.91.209.979zm145.557 28.805-.995-.1a1 1 0 0 0-.005.1zm-27.576 25.589-.294-.956zm-38.805 5.499-.035-1a1 1 0 0 0-.83.499zM92.218 106l-.682-.732a1 1 0 0 0 1.187 1.595zm20.281-25.08.957.288a.998.998 0 0 0-.96-1.288zm-.847 0v-1l-.049.002zM0 49.646c0 10.14 8.542 19.105 26.87 25.057l.618-1.903C9.368 66.916 2 58.412 2 49.646zm43.376-29.782c-13.352 2.858-24.133 7.19-31.603 12.324C4.333 37.301 0 43.344 0 49.645h2c0-5.332 3.689-10.85 10.906-15.81 7.188-4.94 17.7-9.193 30.889-12.016zm45.587-3.978c-17.419 0-32.62 1.202-45.587 3.978l.419 1.956c12.78-2.736 27.83-3.934 45.168-3.934zm101.175 33.86c.571-5.689-2.374-10.648-7.663-14.818-5.279-4.163-13.015-7.65-22.397-10.455-18.78-5.615-44.453-8.587-71.115-8.587v2c26.545 0 52.01 2.962 70.542 8.503 9.274 2.773 16.737 6.17 21.732 10.11 4.985 3.93 7.388 8.289 6.911 13.047zM161.861 76.19c18.614-5.728 28.282-15.491 28.282-26.545h-2c0 9.678-8.495 18.98-26.87 24.633zm-39.063 5.542c16.012-.565 28.865-2.404 39.063-5.542l-.588-1.912c-9.971 3.068-22.634 4.894-38.546 5.456zm-.901-1.5c-6.126 10.58-15.069 16.045-30.185 24.905l1.011 1.726c15.037-8.815 24.472-14.519 30.905-25.629zm-28.998 26.5c10.994-10.242 18.012-17.073 20.557-25.524l-1.915-.577c-2.357 7.827-8.886 14.278-20.005 24.637zm18.753-24.811.849-.001-.005-2h-.844zM26.87 74.7c18.402 5.976 47.06 9.076 84.831 7.218l-.098-1.997c-37.654 1.852-66.04-1.253-84.115-7.123z"/><path fill="#fff" d="M42.144 41.207a.8.8 0 0 1-.108.398q-.108.183-.505.43a8 8 0 0 1-.88.472q-.485.215-.935.376-.452.15-.666.15-.15 0-.355-.075a2.5 2.5 0 0 1-.784-.419 1.1 1.1 0 0 1-.236-.268 1.1 1.1 0 0 1-.086-.301q-.032-.225-.065-.526l-.043-.634-.043-.645-.021-.548v-.343q0-.398.021-.913.033-.516.108-1.032.075-.526.215-.999.15-.483.397-.816.075-.098.3-.204.227-.108.527-.204a11 11 0 0 1 1.343-.323q.333-.065.602-.096.269-.043.408-.043.16 0 .3.075.15.065.248.183a.8.8 0 0 1 .16.268.7.7 0 0 1 .022.537 1 1 0 0 1-.107.215q-.108.14-.451.333a12 12 0 0 1-1.526.72q-.365.15-.515.215-.043.246-.097.505-.043.246-.065.505.333-.173.752-.323.42-.15.795-.15.763 0 .763.752a.7.7 0 0 1-.075.322.8.8 0 0 1-.183.247 1.2 1.2 0 0 1-.258.194l-.279.15q-.343.183-.72.322l-.751.258a4 4 0 0 0-.044.193 1 1 0 0 0-.02.194q0 .15.02.3.023.15.043.301.129-.042.409-.14.29-.096.601-.193a8 8 0 0 1 .602-.16q.29-.076.43-.076.16 0 .3.075a.66.66 0 0 1 .237.183.8.8 0 0 1 .15.258q.065.15.065.3m5.188-1.386q0 .591-.118 1.171a3.3 3.3 0 0 1-.398 1.042q-.28.452-.752.73-.462.28-1.16.28-.687 0-1.15-.268a2.2 2.2 0 0 1-.74-.73 3.3 3.3 0 0 1-.387-1.021 6.3 6.3 0 0 1-.108-1.16q0-.645.15-1.279.033-.172.119-.472.097-.312.236-.602.15-.3.333-.516.194-.215.42-.215.214 0 .343.119a.8.8 0 0 1 .204.3q.075.172.097.376.021.195.021.355 0 .247-.043.483-.031.236-.075.473l-.086.645a6.5 6.5 0 0 0-.021 1.01q.021.192.086.375a.9.9 0 0 0 .182.312.45.45 0 0 0 .333.118q.28 0 .44-.15a.84.84 0 0 0 .248-.376q.086-.225.107-.484a6 6 0 0 0 .022-.473 6.5 6.5 0 0 0-.065-.923q-.064-.462-.118-.935a1 1 0 0 1 .043-.473q.054-.16.15-.29a.7.7 0 0 1 .237-.204.6.6 0 0 1 .311-.086q.236 0 .42.172.181.161.3.43.129.258.204.59.086.323.129.645.054.312.064.591.022.28.022.44m6.392-2.835q0 .31-.215.462-.204.15-.462.29a2.4 2.4 0 0 0-.473.311q-.204.182-.204.548 0 .194.086.333.096.14.226.258.14.107.3.225.161.12.29.269.14.15.226.365.096.215.097.527 0 .45-.237.891-.225.43-.59.773a3 3 0 0 1-.806.538 2.15 2.15 0 0 1-.892.204q-.182 0-.365-.032a1 1 0 0 1-.333-.097.7.7 0 0 1-.236-.204.6.6 0 0 1-.097-.355q0-.3.118-.462a.8.8 0 0 1 .3-.268q.184-.098.388-.15.214-.054.397-.13a1 1 0 0 0 .3-.214q.12-.129.12-.366 0-.225-.184-.462a10 10 0 0 0-.386-.515 6 6 0 0 1-.398-.591 1.4 1.4 0 0 1-.172-.687q0-.462.183-.85a2.3 2.3 0 0 1 .505-.687 2.4 2.4 0 0 1 .73-.45q.409-.173.86-.173.171 0 .333.033.172.031.3.118.13.075.205.215a.6.6 0 0 1 .086.333m2.47 6.22q-.548 0-.956-.29a2.5 2.5 0 0 1-.687-.742 3.6 3.6 0 0 1-.42-.999 4.5 4.5 0 0 1-.139-1.096q0-.57.14-1.17.14-.614.43-1.107a2.5 2.5 0 0 1 .74-.816q.452-.323 1.075-.323.6 0 1.02.333.43.322.688.817.258.483.365 1.063.108.58.075 1.096a6 6 0 0 1-.182 1.15 3.7 3.7 0 0 1-.42 1.041 2.4 2.4 0 0 1-.708.752q-.43.29-1.02.29m.108-4.856q-.162 0-.29.172a1.8 1.8 0 0 0-.205.419q-.075.247-.118.526a3 3 0 0 0 0 1.031q.054.3.14.559.086.247.204.419.13.16.29.161.172 0 .29-.161.129-.162.204-.408.075-.248.108-.537.032-.301.032-.56 0-.235-.043-.515a3 3 0 0 0-.129-.537q-.075-.246-.204-.408-.118-.16-.28-.161m7.476 1.471q0 .591-.118 1.171a3.3 3.3 0 0 1-.397 1.042q-.28.452-.752.73-.462.28-1.16.28-.688 0-1.15-.268a2.2 2.2 0 0 1-.741-.73 3.3 3.3 0 0 1-.387-1.021 6.3 6.3 0 0 1-.107-1.16q0-.645.15-1.279.033-.172.118-.472.097-.312.237-.602.15-.3.333-.516.192-.215.419-.215.214 0 .343.119a.8.8 0 0 1 .204.3q.075.172.097.376.022.195.022.355 0 .247-.043.483-.033.236-.076.473l-.086.645a6.5 6.5 0 0 0-.021 1.01q.021.192.086.375a.9.9 0 0 0 .183.312.45.45 0 0 0 .333.118q.28 0 .44-.15a.84.84 0 0 0 .247-.376q.086-.225.108-.484a6 6 0 0 0 .021-.473 6.5 6.5 0 0 0-.065-.923q-.064-.462-.118-.935a1 1 0 0 1 .043-.473q.054-.16.15-.29a.7.7 0 0 1 .237-.204.6.6 0 0 1 .312-.086q.236 0 .419.172.182.161.3.43.129.258.204.59.086.323.13.645.053.312.064.591.021.28.021.44m5.285 3.384q-.548 0-.956-.29a2.5 2.5 0 0 1-.687-.74 3.6 3.6 0 0 1-.42-1 4.5 4.5 0 0 1-.139-1.096q0-.57.14-1.17a3.9 3.9 0 0 1 .43-1.107q.29-.506.74-.816.453-.323 1.075-.323.602 0 1.02.333.43.322.688.817.258.483.365 1.063.108.58.075 1.096a6 6 0 0 1-.182 1.15 3.7 3.7 0 0 1-.42 1.041 2.4 2.4 0 0 1-.708.752 1.8 1.8 0 0 1-1.02.29m.108-4.855q-.161 0-.29.172a1.8 1.8 0 0 0-.204.419q-.075.247-.119.526a3 3 0 0 0 0 1.031q.054.3.14.559.087.247.204.419.13.16.29.161.173 0 .29-.161a1.2 1.2 0 0 0 .204-.408q.075-.248.108-.537.032-.301.032-.56 0-.235-.043-.515a3 3 0 0 0-.129-.537 1.2 1.2 0 0 0-.204-.408q-.118-.16-.28-.161m10.484 3.061q0 .27-.225.505-.215.237-.57.43-.344.193-.773.344-.43.14-.849.236a8 8 0 0 1-.795.161 4 4 0 0 1-.58.054q-.204 0-.44-.043a.7.7 0 0 1-.376-.161q-.086-.065-.15-.29a8 8 0 0 1-.13-.537q-.052-.312-.096-.666-.043-.365-.075-.71l-.043-.633a13 13 0 0 1 0-1.096q.021-.387.053-.816a20 20 0 0 1 .205-1.74q.075-.409.171-.731a2.3 2.3 0 0 1 .226-.505q.204-.29.516-.29.214 0 .365.15a.94.94 0 0 1 .236.377q.097.225.14.515.053.279.075.559t.021.515v.376q0 .838-.043 1.665a42 42 0 0 0-.032 1.655v.419q.483-.15 1.053-.28.57-.14 1.085-.14.183 0 .365.022a.9.9 0 0 1 .333.097q.151.064.236.204a.58.58 0 0 1 .097.354m4.77-.43q0 .366-.237.72-.225.344-.58.624-.344.267-.74.44a2 2 0 0 1-.731.161 1.9 1.9 0 0 1-1.02-.28 2.7 2.7 0 0 1-.742-.73 3.5 3.5 0 0 1-.462-.966q-.15-.538-.15-1.043 0-.536.15-1.149.15-.612.451-1.128.312-.516.774-.86.472-.343 1.117-.343.365 0 .698.129a1.7 1.7 0 0 1 .978.88q.15.312.15.699 0 .506-.215.945a2.5 2.5 0 0 1-.57.763q-.354.322-.816.526-.462.194-.945.215.043.312.247.451.215.14.505.14a.9.9 0 0 0 .419-.107q.204-.107.397-.237.195-.14.376-.247a.8.8 0 0 1 .387-.107q.215 0 .387.14a.45.45 0 0 1 .172.365m-1.74-2.631a.65.65 0 0 0-.076-.29.25.25 0 0 0-.236-.15.62.62 0 0 0-.398.128.95.95 0 0 0-.268.312 1.8 1.8 0 0 0-.172.397 2 2 0 0 0-.064.398q.15-.032.354-.086.215-.053.398-.14.193-.096.322-.236a.46.46 0 0 0 .14-.333m5.22 4.845q-.182 0-.29-.172a1.2 1.2 0 0 1-.161-.376 3 3 0 0 1-.075-.43 6.5 6.5 0 0 1 .022-.988l.085-.645q.054-.323.086-.644.043-.323.043-.645 0-.129-.01-.28a1 1 0 0 0-.054-.278.46.46 0 0 0-.118-.226.3.3 0 0 0-.226-.086q-.096 0-.215.161-.118.15-.226.355a4 4 0 0 0-.171.397 1 1 0 0 0-.065.29v.484q.01.235.01.483v.623a8 8 0 0 1-.031.397 4 4 0 0 1-.065.398 2 2 0 0 1-.096.376q-.064.171-.172.311a.9.9 0 0 1-.237.215.6.6 0 0 1-.333.086.48.48 0 0 1-.354-.14 1 1 0 0 1-.226-.354q-.086-.225-.129-.494-.032-.279-.053-.537-.01-.269-.011-.484.01-.225.01-.354v-.505q0-.407-.02-.806-.012-.398-.012-.794v-.548q.011-.333.086-.645.075-.322.247-.548.172-.225.505-.225.15 0 .269.096a1 1 0 0 1 .204.237q.097.14.15.3.065.162.097.28.108-.15.247-.29.15-.14.333-.247a1.75 1.75 0 0 1 .924-.237q.547 0 .849.269.311.258.45.655.152.387.183.838.033.45.033.816 0 .183-.033.548-.032.355-.107.795a9 9 0 0 1-.183.892q-.117.45-.279.827-.16.376-.387.612a.65.65 0 0 1-.494.237m4.587.086q-.763 0-1.192-.205a1.4 1.4 0 0 1-.634-.558 2.2 2.2 0 0 1-.247-.881 16 16 0 0 1-.01-2.16q.03-.514.096-1.095-.151 0-.236.01h-.14q-.344 0-.591-.15a.5.5 0 0 1-.258-.461q0-.195.15-.344.14-.15.366-.258t.483-.172q.27-.065.505-.086 0-.3.043-.666a3.2 3.2 0 0 1 .15-.677 1.6 1.6 0 0 1 .312-.537.64.64 0 0 1 .494-.215q.172 0 .3.108.141.096.227.258.086.15.128.343.043.195.043.376 0 .215-.032.44-.031.226-.118.56.183-.022.247-.022a1 1 0 0 1 .118-.01q.183 0 .376.031.204.033.365.108.172.075.28.204a.42.42 0 0 1 .107.29.46.46 0 0 1-.161.344q-.15.15-.387.258a3 3 0 0 1-.505.171q-.268.054-.505.076-.064.44-.096.816-.021.364-.054.741l-.043.376a6 6 0 0 0 0 .71q.01.181.075.354a.8.8 0 0 0 .205.3.58.58 0 0 0 .386.119q.15 0 .312-.022.161-.032.322-.032.28 0 .397.193a.87.87 0 0 1 .13.494q0 .225-.14.398a.9.9 0 0 1-.333.258q-.204.107-.462.16a2.2 2.2 0 0 1-.473.055m3.663-.076q-.548 0-.956-.29a2.5 2.5 0 0 1-.687-.74 3.6 3.6 0 0 1-.42-1 4.5 4.5 0 0 1-.139-1.096q0-.57.14-1.17a3.9 3.9 0 0 1 .43-1.107q.29-.506.74-.816.452-.323 1.075-.323.6 0 1.02.333.43.322.688.817.258.483.365 1.063.108.58.075 1.096a6 6 0 0 1-.182 1.15 3.7 3.7 0 0 1-.42 1.041 2.4 2.4 0 0 1-.708.752 1.8 1.8 0 0 1-1.02.29m.108-4.855q-.162 0-.29.172a1.8 1.8 0 0 0-.204.419q-.075.247-.119.526a3 3 0 0 0 0 1.031q.054.3.14.559.086.247.204.419.13.16.29.161.172 0 .29-.161a1.2 1.2 0 0 0 .204-.408q.075-.248.108-.537.032-.301.032-.56 0-.235-.043-.515a3 3 0 0 0-.129-.537 1.2 1.2 0 0 0-.204-.408q-.118-.16-.28-.161m4.329 4.028a.53.53 0 0 1-.065.258.6.6 0 0 1-.172.183.7.7 0 0 1-.225.118.7.7 0 0 1-.247.043q-.162 0-.355-.065a1.3 1.3 0 0 1-.344-.16 1.2 1.2 0 0 1-.257-.248.56.56 0 0 1-.108-.333.46.46 0 0 1 .247-.43.96.96 0 0 1 .838-.096 1.1 1.1 0 0 1 .333.16.8.8 0 0 1 .258.248q.097.14.097.322m10.366-.655a5 5 0 0 1-.097.548q-.054.268-.139.483a.85.85 0 0 1-.226.322.4.4 0 0 1-.301.13q-.171 0-.311-.27a3.7 3.7 0 0 1-.269-.687 14 14 0 0 1-.225-.988 46 46 0 0 1-.183-1.107q-.075-.569-.129-1.106t-.086-.934q-.065.408-.15.913-.087.504-.204 1.03-.119.517-.258 1.021-.14.495-.301.892a2.7 2.7 0 0 1-.344.623q-.182.236-.386.236-.183 0-.366-.247a3.3 3.3 0 0 1-.354-.644 9 9 0 0 1-.322-.903 24 24 0 0 1-.656-2.685q0 .226-.01.505v.387q0 .052-.011.354 0 .3-.032.72-.033.419-.097.902a5.4 5.4 0 0 1-.193.88 2.6 2.6 0 0 1-.301.688q-.183.28-.451.301a.87.87 0 0 1-.366-.322 2.6 2.6 0 0 1-.236-.548 4.5 4.5 0 0 1-.15-.666 12 12 0 0 1-.129-1.321v-.473q0-.322.032-.806.043-.494.129-1.03.085-.538.225-1.075t.333-.956q.205-.43.462-.698a.85.85 0 0 1 .613-.269q.161 0 .343.183.183.182.366.483.182.29.354.655t.322.742q.162.365.28.709.118.333.193.569.086-.258.215-.602t.279-.709q.162-.376.344-.73a5 5 0 0 1 .397-.645q.204-.29.409-.462.214-.182.429-.182.376 0 .645.28.268.278.451.73.183.44.29.999.108.547.161 1.095.065.537.075 1.01.022.473.022.763v.322q0 .204-.011.462 0 .258-.021.548a19 19 0 0 1-.054.58m5.414-.344q0 .194-.021.505a3 3 0 0 1-.086.612 1.4 1.4 0 0 1-.237.505.53.53 0 0 1-.451.215q-.398 0-.612-.258a.93.93 0 0 1-.204-.644q-.345.3-.785.472-.43.172-.88.172-.312 0-.591-.15-.28-.15-.494-.387a2 2 0 0 1-.344-.526 1.5 1.5 0 0 1-.129-.591q0-.516.312-.902.321-.387.784-.656.462-.28.977-.44.527-.162.935-.215v-.097a.4.4 0 0 0 .011-.096q0-.333-.183-.537t-.516-.204q-.268 0-.462.096-.192.086-.365.204-.171.108-.344.204a.85.85 0 0 1-.386.086.6.6 0 0 1-.408-.15.5.5 0 0 1-.162-.387q0-.354.204-.644.216-.29.527-.484a2.7 2.7 0 0 1 .687-.311q.376-.118.688-.118.29 0 .58.075.29.064.548.215.258.139.462.354.214.204.343.484.194.396.312.848.118.44.183.913.064.462.086.935.021.462.021.902m-1.719-.344-.032-.73h-.043a.1.1 0 0 0-.043-.01 1.1 1.1 0 0 0-.354.074 1.6 1.6 0 0 0-.398.194q-.194.117-.333.268a.48.48 0 0 0-.129.312q0 .15.108.204a.54.54 0 0 0 .247.054q.236 0 .505-.119.268-.128.472-.247m5.414 2.16q-.182 0-.29-.172a1.2 1.2 0 0 1-.161-.376 3 3 0 0 1-.075-.43 6.6 6.6 0 0 1 .021-.988l.086-.645q.054-.323.086-.644a5 5 0 0 0 .033-.924 1.2 1.2 0 0 0-.054-.28.46.46 0 0 0-.118-.225.3.3 0 0 0-.226-.086q-.096 0-.215.161a2.3 2.3 0 0 0-.225.355 4 4 0 0 0-.172.397 1 1 0 0 0-.065.29v.484q.01.235.011.483v.623a8 8 0 0 1-.032.397 4 4 0 0 1-.065.398 2 2 0 0 1-.096.376 1.2 1.2 0 0 1-.172.311.9.9 0 0 1-.237.215.6.6 0 0 1-.333.086.48.48 0 0 1-.354-.14 1.1 1.1 0 0 1-.226-.354q-.085-.225-.129-.494a18 18 0 0 1-.053-.537 13 13 0 0 1-.011-.484q.01-.225.011-.354v-.505q0-.407-.022-.806-.01-.398-.01-.794v-.548q.01-.333.085-.645.076-.322.248-.548.171-.225.504-.225.151 0 .269.096a1 1 0 0 1 .204.237q.097.14.15.3.065.162.097.28.108-.15.247-.29a1.76 1.76 0 0 1 1.257-.483q.547 0 .849.268.311.258.451.655.15.387.183.838.032.45.032.816 0 .183-.032.548-.033.355-.108.795a9 9 0 0 1-.183.892q-.117.45-.279.827-.16.376-.387.612a.65.65 0 0 1-.494.237m4.587.086q-.763 0-1.192-.205a1.4 1.4 0 0 1-.634-.558 2.2 2.2 0 0 1-.247-.881 14 14 0 0 1-.043-1.15q0-.504.032-1.01.033-.514.097-1.095-.15 0-.236.01h-.14q-.344 0-.591-.15a.5.5 0 0 1-.258-.461.47.47 0 0 1 .151-.344q.14-.15.365-.258t.483-.172a4 4 0 0 1 .505-.086q0-.3.043-.666.043-.365.151-.677.117-.323.311-.537a.64.64 0 0 1 .494-.215q.172 0 .301.108.14.096.226.258.085.15.129.343.042.195.042.376 0 .215-.032.44-.032.226-.118.56a3 3 0 0 1 .247-.022 1 1 0 0 1 .118-.01q.183 0 .376.031.204.033.366.108.171.075.279.204a.42.42 0 0 1 .107.29.46.46 0 0 1-.161.344q-.15.15-.387.258a3 3 0 0 1-.504.171q-.27.054-.505.076-.065.44-.097.816-.021.364-.054.741l-.043.376a7 7 0 0 0 0 .71q.011.181.075.354a.8.8 0 0 0 .205.3.58.58 0 0 0 .386.119q.15 0 .312-.022.161-.032.322-.032.28 0 .398.193a.9.9 0 0 1 .128.494q0 .225-.139.398a.9.9 0 0 1-.333.258q-.204.107-.462.16a2.2 2.2 0 0 1-.473.055m6.123-2.3q0 .366-.236.72-.226.344-.58.624a3.4 3.4 0 0 1-.741.44 2 2 0 0 1-.731.161q-.57 0-1.02-.28a2.7 2.7 0 0 1-.742-.73 3.5 3.5 0 0 1-.461-.966 3.8 3.8 0 0 1-.151-1.043q0-.536.151-1.149.15-.612.451-1.128.31-.516.773-.86.473-.343 1.117-.343.366 0 .699.129a1.7 1.7 0 0 1 .977.88q.15.312.151.699 0 .506-.215.945a2.5 2.5 0 0 1-.57.763q-.354.322-.816.526-.462.194-.945.215.043.312.247.451.214.14.505.14a.9.9 0 0 0 .419-.107q.204-.107.397-.237.193-.14.376-.247a.8.8 0 0 1 .387-.107q.215 0 .386.14a.45.45 0 0 1 .172.365m-1.74-2.631a.65.65 0 0 0-.075-.29.25.25 0 0 0-.236-.15.62.62 0 0 0-.398.128 1 1 0 0 0-.269.312 1.8 1.8 0 0 0-.171.397 2 2 0 0 0-.065.398q.15-.032.355-.086a2 2 0 0 0 .397-.14q.193-.096.322-.236a.46.46 0 0 0 .14-.333m5.221 4.845q-.183 0-.29-.172a1.2 1.2 0 0 1-.161-.376 3 3 0 0 1-.076-.43 6 6 0 0 1 .022-.988l.086-.645q.053-.323.086-.644.043-.323.043-.645 0-.129-.011-.28a1 1 0 0 0-.054-.278.45.45 0 0 0-.118-.226.3.3 0 0 0-.226-.086q-.096 0-.214.161-.118.15-.226.355a4 4 0 0 0-.172.397 1 1 0 0 0-.064.29v.484q.01.235.01.483v.623a7 7 0 0 1-.032.397 4 4 0 0 1-.064.398 2.3 2.3 0 0 1-.097.376q-.064.171-.172.311a.8.8 0 0 1-.236.215.6.6 0 0 1-.333.086.48.48 0 0 1-.355-.14 1 1 0 0 1-.225-.354q-.085-.225-.129-.494a18 18 0 0 1-.054-.537 13 13 0 0 1-.011-.484 7 7 0 0 0 .011-.354v-.505q0-.407-.021-.806-.01-.398-.011-.794v-.548q.01-.333.086-.645.075-.322.247-.548.172-.225.505-.225.15 0 .268.096a1 1 0 0 1 .205.237q.096.14.15.3.064.162.097.28.107-.15.247-.29.15-.14.333-.247a1.7 1.7 0 0 1 .408-.172q.225-.065.516-.065.548 0 .848.269.312.258.451.655.15.387.183.838.032.45.032.816 0 .183-.032.548-.032.355-.107.795a9 9 0 0 1-.183.892q-.118.45-.279.827t-.387.612a.65.65 0 0 1-.494.237m6.961-3.083q0 .182-.011.547 0 .355-.032.752a12 12 0 0 1-.065.742 2.2 2.2 0 0 1-.107.505 1.2 1.2 0 0 1-.226.354.5.5 0 0 1-.376.15q-.365 0-.526-.29a2 2 0 0 1-.215-.72 6.5 6.5 0 0 1-.043-.934q.011-.505-.011-.935a2.7 2.7 0 0 0-.118-.72q-.096-.29-.354-.29-.355 0-.548.119a.66.66 0 0 0-.269.29q-.075.183-.096.419-.011.236-.033.494a12 12 0 0 0-.032.666 4.5 4.5 0 0 1-.097.827 2 2 0 0 1-.29.71q-.192.289-.58.29a.48.48 0 0 1-.386-.184 1.5 1.5 0 0 1-.226-.472 4 4 0 0 1-.129-.645 12 12 0 0 1-.043-.687v-.623q.01-.279.011-.42 0-.214.011-.708.021-.495.075-1.096.053-.612.14-1.257.085-.645.225-1.17.14-.538.333-.87.204-.334.473-.323a.4.4 0 0 1 .29.15 1 1 0 0 1 .204.366q.086.214.14.472.053.258.075.516.032.248.032.462.01.215.011.333a15 15 0 0 1-.043 1.117q.246-.333.655-.548.419-.215.838-.215.537 0 .806.301.279.29.397.73.119.43.129.925.01.483.011.87m2.803 3.093q-.548 0-.956-.29a2.5 2.5 0 0 1-.687-.74 3.6 3.6 0 0 1-.419-1 4.5 4.5 0 0 1-.14-1.096q0-.57.14-1.17a3.9 3.9 0 0 1 .43-1.107q.29-.506.741-.816.451-.323 1.074-.323.601 0 1.021.333.429.322.687.817.258.483.365 1.063.108.58.075 1.096-.032.57-.182 1.15a3.7 3.7 0 0 1-.419 1.041 2.4 2.4 0 0 1-.709.752q-.43.29-1.021.29m.108-4.855q-.161 0-.29.172a1.7 1.7 0 0 0-.204.419q-.076.247-.118.526-.043.27-.043.473 0 .258.043.558.053.3.139.559.085.247.204.419.13.16.29.161.173 0 .29-.161.129-.162.204-.408.076-.248.108-.537.032-.301.032-.56 0-.235-.043-.515a3 3 0 0 0-.129-.537q-.075-.246-.204-.408-.118-.16-.279-.161m7.401 4.855q-.548 0-.956-.29a2.5 2.5 0 0 1-.687-.74 3.5 3.5 0 0 1-.419-1 4.5 4.5 0 0 1-.14-1.096q0-.57.14-1.17.14-.614.429-1.107.29-.506.742-.816.45-.323 1.074-.323.601 0 1.02.333.43.322.688.817.257.483.365 1.063t.075 1.096q-.032.57-.182 1.15a3.7 3.7 0 0 1-.419 1.041 2.4 2.4 0 0 1-.709.752q-.43.29-1.021.29m.108-4.855q-.162 0-.29.172a1.8 1.8 0 0 0-.205.419 4 4 0 0 0-.161.999q0 .258.043.558.054.3.14.559.085.247.204.419.13.16.29.161.172 0 .29-.161.129-.162.204-.408.075-.248.108-.537.032-.301.032-.56 0-.235-.043-.515a3 3 0 0 0-.129-.537q-.075-.246-.204-.408-.118-.16-.279-.161M44.877 54.982q0 .365-.236.72-.225.343-.58.623-.344.267-.741.44a2 2 0 0 1-.73.161q-.57 0-1.021-.28a2.7 2.7 0 0 1-.741-.73 3.5 3.5 0 0 1-.462-.966 4 4 0 0 1-.15-1.043q0-.536.15-1.149.15-.612.45-1.128.313-.516.774-.86.473-.343 1.117-.343.366 0 .699.129a1.7 1.7 0 0 1 .977.88q.15.312.15.699 0 .506-.214.945a2.5 2.5 0 0 1-.57.763q-.354.322-.816.526-.462.194-.945.215.042.312.247.451.214.14.505.14a.9.9 0 0 0 .419-.107q.204-.107.397-.237.193-.14.376-.247a.8.8 0 0 1 .387-.107q.215 0 .386.14a.45.45 0 0 1 .172.365m-1.74-2.632a.65.65 0 0 0-.075-.29.25.25 0 0 0-.236-.15.62.62 0 0 0-.398.128.95.95 0 0 0-.268.312 1.8 1.8 0 0 0-.172.397 2 2 0 0 0-.065.398q.15-.032.355-.086.215-.053.397-.14.194-.096.323-.236a.46.46 0 0 0 .14-.333m7.165-.451q-.085.785-.172 1.557a23 23 0 0 0-.118 1.547q-.054.892-.043 1.687.01.795.01 1.686 0 .215-.01.527 0 .311-.075.601t-.247.494q-.161.204-.494.204a.43.43 0 0 1-.28-.096 1 1 0 0 1-.193-.258q-.075-.15-.129-.344a7 7 0 0 1-.075-.397 8 8 0 0 1-.065-.838v-2.041a1.6 1.6 0 0 1-.644.494 2 2 0 0 1-.773.161q-.484 0-.838-.226a2 2 0 0 1-.57-.59 2.8 2.8 0 0 1-.333-.795 3.5 3.5 0 0 1-.107-.838v-.065q0-.558.172-1.203.171-.655.505-1.214.344-.558.848-.923a1.97 1.97 0 0 1 1.193-.376q.365 0 .666.15a.86.86 0 0 1 .44.494.9.9 0 0 1 .258-.397.67.67 0 0 1 .462-.161q.353 0 .494.236.15.226.15.505 0 .118-.01.215-.012.096-.022.204m-2.47.258a.66.66 0 0 0-.462.204 1.9 1.9 0 0 0-.376.483 2.8 2.8 0 0 0-.258.602 2.2 2.2 0 0 0-.086.569q0 .15.021.322.032.173.086.333.065.15.161.258a.4.4 0 0 0 .269.097q.14 0 .322-.065a2.6 2.6 0 0 0 .376-.182 2 2 0 0 0 .322-.258.9.9 0 0 0 .194-.269 1 1 0 0 0 .053-.225q.023-.15.033-.312a6 6 0 0 0 .043-.58.8.8 0 0 0-.065-.29 1.3 1.3 0 0 0-.15-.322.9.9 0 0 0-.226-.258.4.4 0 0 0-.258-.108m7.69 1.665q0 .59-.117 1.17a3.3 3.3 0 0 1-.398 1.042 2.16 2.16 0 0 1-.752.73q-.462.28-1.16.28-.687 0-1.15-.268a2.2 2.2 0 0 1-.74-.73 3.3 3.3 0 0 1-.387-1.021 6.3 6.3 0 0 1-.108-1.16q0-.645.15-1.279.033-.171.119-.472.096-.312.236-.602.15-.3.333-.516.194-.215.42-.215a.5.5 0 0 1 .343.119.8.8 0 0 1 .204.3q.075.172.097.376.021.195.021.355a2.7 2.7 0 0 1-.043.483q-.031.237-.075.473l-.086.645a6.5 6.5 0 0 0-.021 1.01q.021.192.086.375a.9.9 0 0 0 .182.312.45.45 0 0 0 .333.118q.28 0 .44-.15a.84.84 0 0 0 .248-.376q.086-.225.107-.484a6 6 0 0 0 .022-.473q0-.472-.065-.923-.064-.462-.118-.935a1 1 0 0 1 .043-.473q.054-.16.15-.29a.7.7 0 0 1 .237-.204.6.6 0 0 1 .311-.086q.236 0 .42.172.18.161.3.43.129.258.204.59.086.323.129.645.054.312.064.591.022.28.022.44m2.429-4.426q0 .15-.086.268a.8.8 0 0 1-.204.215 1.3 1.3 0 0 1-.28.14q-.15.042-.279.043a.66.66 0 0 1-.376-.108q-.16-.107-.161-.333 0-.16.075-.279a.7.7 0 0 1 .204-.204.9.9 0 0 1 .269-.129q.15-.043.29-.043.204 0 .376.097.172.096.172.333m.085 3.652v.322q0 .162-.01.312-.01.183-.01.494 0 .3-.022.655t-.076.72a3 3 0 0 1-.15.666q-.108.3-.29.494a.6.6 0 0 1-.44.194.4.4 0 0 1-.344-.162 1.5 1.5 0 0 1-.237-.44q-.086-.279-.129-.612a12 12 0 0 1-.064-.656 9 9 0 0 1-.021-.59v-.881q0-.322.021-.688t.075-.741q.064-.376.172-.687a1.5 1.5 0 0 1 .3-.505.6.6 0 0 1 .463-.194q.29 0 .44.29.15.291.226.677.075.387.086.773.01.376.01.56m2.772-2.664q0 .58-.054 1.17-.042.581-.043 1.172 0 .763.043 1.525.054.763.054 1.536 0 .195-.022.44a1.5 1.5 0 0 1-.107.441.8.8 0 0 1-.236.344.63.63 0 0 1-.43.14q-.258 0-.451-.258a2.3 2.3 0 0 1-.312-.634 8 8 0 0 1-.204-.88q-.076-.485-.118-.935-.032-.462-.054-.838-.01-.387-.01-.57 0-.204.01-.59.022-.388.076-.838.053-.451.14-.913.096-.473.246-.85.15-.386.355-.622a.65.65 0 0 1 .505-.247q.236 0 .354.16a.9.9 0 0 1 .183.377q.054.214.064.462.01.235.011.408m2.675 2.664v.322q0 .162-.01.312-.012.183-.012.494 0 .3-.021.655t-.075.72a3 3 0 0 1-.15.666q-.108.3-.29.494a.6.6 0 0 1-.441.194.4.4 0 0 1-.344-.162 1.5 1.5 0 0 1-.236-.44q-.086-.279-.13-.612a12 12 0 0 1-.064-.656 9 9 0 0 1-.021-.59v-.881q0-.322.021-.688t.076-.741q.064-.376.171-.687.12-.312.301-.505a.6.6 0 0 1 .462-.194q.29 0 .44.29.15.291.226.677.075.387.086.773.01.376.01.56m.397-4.286a.5.5 0 0 1-.064.236q-.065.108-.161.204a1.6 1.6 0 0 1-.194.183q-.107.075-.193.14-.075.053-.172.129a2 2 0 0 1-.193.128 2 2 0 0 1-.204.097.5.5 0 0 1-.194.043.27.27 0 0 1-.15-.043.19.19 0 0 1-.064-.15q0-.162.118-.387.13-.236.311-.451.182-.226.387-.376.204-.162.376-.161.15 0 .268.129a.37.37 0 0 1 .13.279m5.447 4.587q0 .312-.054.709a5.5 5.5 0 0 1-.15.795 4.5 4.5 0 0 1-.27.795q-.16.387-.407.698a1.9 1.9 0 0 1-.559.483 1.4 1.4 0 0 1-.73.183q-.44 0-.806-.204a2 2 0 0 1-.612-.559.9.9 0 0 1-.237.516.68.68 0 0 1-.515.215q-.183 0-.312-.183a1.6 1.6 0 0 1-.193-.462 5 5 0 0 1-.118-.634q-.033-.343-.043-.666-.01-.322-.011-.58V53.36l.022-.742q0-.182-.011-.547 0-.365.01-.806.012-.45.043-.913.044-.473.14-.86.097-.386.269-.633a.55.55 0 0 1 .44-.258q.215 0 .365.15t.247.398q.108.246.162.558.064.3.085.613.033.3.033.58.01.268.01.44 0 .033-.01.15v.581q.096-.204.279-.398a2.5 2.5 0 0 1 .88-.59q.248-.097.474-.097.45 0 .751.236.312.226.495.58.182.354.257.773.075.409.076.774m-1.58.322q0-.129-.021-.28a.7.7 0 0 0-.075-.279.53.53 0 0 0-.161-.214.37.37 0 0 0-.258-.086.85.85 0 0 0-.344.075q-.16.075-.311.193-.15.12-.28.258a2.4 2.4 0 0 0-.225.258l-.108.956q.172.247.42.398.246.14.558.14.236 0 .387-.151.161-.15.247-.365.096-.225.129-.473.043-.247.043-.43m5.962-.795q-.15.01-.257-.021l-.215-.086a2 2 0 0 0-.194-.075.4.4 0 0 0-.215-.033.8.8 0 0 0-.386.118 1.5 1.5 0 0 0-.301.27q-.129.16-.226.364a2 2 0 0 0-.15.387q-.032.13-.054.398-.01.257-.01.558-.011.312-.011.59 0 .28-.022.441-.01.172-.053.409-.043.225-.14.43a1 1 0 0 1-.236.343q-.15.14-.387.14A.5.5 0 0 1 70.53 57a1 1 0 0 1-.226-.28 2.6 2.6 0 0 1-.15-.418 5 5 0 0 1-.086-.483q-.033-.258-.054-.516l-.021-.483v-.43q.01-.194.01-.312-.01-.375-.043-.752a14 14 0 0 1-.021-.762q0-.236.021-.527a1.8 1.8 0 0 1 .119-.537 1.1 1.1 0 0 1 .279-.43q.193-.171.526-.171.183 0 .312.118a.85.85 0 0 1 .204.29q.085.171.129.365.042.193.053.355.258-.42.58-.677.323-.27.838-.29.258-.011.505.053.258.054.462.194.215.128.344.344a.97.97 0 0 1 .15.505q.023.343-.204.526a.9.9 0 0 1-.548.193m2.686-3.48q0 .15-.086.268a.8.8 0 0 1-.204.215 1.3 1.3 0 0 1-.28.14q-.15.042-.279.043a.66.66 0 0 1-.376-.108q-.16-.107-.16-.333 0-.16.074-.279a.7.7 0 0 1 .204-.204.9.9 0 0 1 .27-.129q.15-.043.29-.043.203 0 .375.097.172.096.172.333m.086 3.652v.322q0 .162-.01.312-.012.183-.012.494 0 .3-.021.655t-.075.72a3 3 0 0 1-.15.666q-.108.3-.29.494a.6.6 0 0 1-.441.194.4.4 0 0 1-.344-.162 1.5 1.5 0 0 1-.236-.44q-.086-.279-.13-.612-.043-.345-.064-.656a9 9 0 0 1-.021-.59v-.881q0-.322.021-.688t.076-.741q.064-.376.171-.687a1.5 1.5 0 0 1 .301-.505.6.6 0 0 1 .462-.194q.29 0 .44.29.15.291.226.677.075.387.086.773.01.376.01.56m2.804 4.157q-.548 0-.956-.29a2.5 2.5 0 0 1-.688-.74 3.6 3.6 0 0 1-.419-1 4.5 4.5 0 0 1-.14-1.096q0-.57.14-1.17a3.9 3.9 0 0 1 .43-1.107q.29-.505.741-.816.45-.323 1.074-.323.602 0 1.02.333.43.322.688.817.258.483.365 1.063.108.58.076 1.096-.033.57-.183 1.15a3.7 3.7 0 0 1-.419 1.041 2.4 2.4 0 0 1-.709.752 1.8 1.8 0 0 1-1.02.29m.107-4.855q-.16 0-.29.172a1.8 1.8 0 0 0-.204.419q-.076.247-.118.526a3 3 0 0 0 0 1.031q.053.3.14.559.085.247.204.419.128.16.29.161.17 0 .29-.161a1.2 1.2 0 0 0 .204-.408q.075-.248.107-.537.032-.301.032-.56 0-.235-.043-.515a3 3 0 0 0-.129-.537q-.075-.246-.204-.408-.118-.16-.279-.161m9.926 3.03q0 .192-.022.504a3 3 0 0 1-.086.612q-.074.29-.236.505a.53.53 0 0 1-.451.215q-.398 0-.612-.258a.93.93 0 0 1-.204-.644q-.345.3-.785.472-.43.172-.88.172-.312 0-.591-.15-.28-.15-.494-.387a2 2 0 0 1-.344-.526 1.5 1.5 0 0 1-.13-.591q0-.516.312-.902.323-.387.784-.656.463-.28.978-.44.526-.162.935-.215v-.097a.4.4 0 0 0 .01-.096q0-.333-.182-.537-.183-.204-.516-.204-.268 0-.462.096-.193.086-.365.204-.173.108-.344.204a.85.85 0 0 1-.386.086.6.6 0 0 1-.409-.15.5.5 0 0 1-.16-.387q0-.354.203-.644.216-.29.527-.484.322-.204.687-.311.376-.118.688-.118.29 0 .58.075a1.9 1.9 0 0 1 .548.215q.257.139.462.354.214.204.343.484a4.6 4.6 0 0 1 .312.848q.118.44.182.913.065.462.086.935.022.462.022.902m-1.719-.345-.032-.73h-.043a.1.1 0 0 0-.043-.01q-.14 0-.355.074a1.6 1.6 0 0 0-.397.194q-.194.117-.333.268a.48.48 0 0 0-.129.312q0 .15.107.204a.55.55 0 0 0 .248.054q.236 0 .504-.119.27-.128.473-.247m4.404 2.17q-.548 0-.956-.29a2.5 2.5 0 0 1-.687-.74 3.6 3.6 0 0 1-.42-1 4.5 4.5 0 0 1-.139-1.096q0-.57.14-1.17.14-.614.43-1.107a2.5 2.5 0 0 1 .74-.816q.452-.323 1.075-.323.601 0 1.02.333.43.322.688.817.258.483.365 1.063.108.58.075 1.096-.032.57-.182 1.15a3.7 3.7 0 0 1-.42 1.041 2.4 2.4 0 0 1-.708.752 1.8 1.8 0 0 1-1.02.29m.108-4.855q-.161 0-.29.172a1.8 1.8 0 0 0-.204.419q-.076.247-.118.526a3 3 0 0 0 0 1.031q.053.3.14.559.084.247.203.419.13.16.29.161.173 0 .29-.161.129-.162.204-.408.075-.248.108-.537.032-.301.032-.56 0-.235-.043-.515a3 3 0 0 0-.129-.537q-.075-.246-.204-.408-.118-.16-.28-.161m7.369-1.966q0 .58-.054 1.17-.043.581-.043 1.172 0 .763.043 1.525.054.763.054 1.536 0 .195-.022.44a1.5 1.5 0 0 1-.107.441.8.8 0 0 1-.236.344.63.63 0 0 1-.43.14q-.258 0-.451-.258a2.3 2.3 0 0 1-.312-.634 8 8 0 0 1-.204-.88q-.076-.485-.118-.935-.032-.462-.054-.838-.01-.387-.01-.57 0-.204.01-.59.023-.388.075-.838.054-.451.14-.913.097-.473.247-.85.15-.386.355-.622a.65.65 0 0 1 .505-.247q.236 0 .354.16.129.152.183.377.053.214.064.462.01.235.01.408m2.857 6.821q-.548 0-.956-.29a2.5 2.5 0 0 1-.687-.74 3.6 3.6 0 0 1-.419-1 4.5 4.5 0 0 1-.14-1.096q0-.57.14-1.17a3.9 3.9 0 0 1 .43-1.107q.29-.505.741-.816.452-.323 1.074-.323.602 0 1.02.333.43.322.688.817.258.483.365 1.063.108.58.075 1.096-.032.57-.182 1.15a3.7 3.7 0 0 1-.419 1.041 2.4 2.4 0 0 1-.709.752q-.43.29-1.021.29m.108-4.855q-.161 0-.29.172a1.7 1.7 0 0 0-.204.419q-.076.247-.119.526-.043.27-.043.473 0 .258.043.558.054.3.14.559.086.247.204.419.13.16.29.161.172 0 .29-.161.129-.162.204-.408.076-.248.108-.537.032-.301.032-.56 0-.235-.043-.515a3 3 0 0 0-.129-.537q-.075-.246-.204-.408-.118-.16-.279-.161m5.822 4.845q-.182 0-.29-.172a1.2 1.2 0 0 1-.161-.376 3 3 0 0 1-.075-.43 6.6 6.6 0 0 1 .021-.988l.086-.645q.054-.323.086-.644.043-.323.043-.645 0-.129-.011-.28a1.2 1.2 0 0 0-.053-.278.46.46 0 0 0-.119-.226.3.3 0 0 0-.225-.086q-.097 0-.215.161-.118.15-.226.355a4 4 0 0 0-.172.397 1 1 0 0 0-.064.29v.484q.01.235.011.483v.623a8 8 0 0 1-.032.397 4 4 0 0 1-.065.398 2 2 0 0 1-.097.376q-.065.171-.171.311a.9.9 0 0 1-.237.215.6.6 0 0 1-.333.086.48.48 0 0 1-.354-.14 1 1 0 0 1-.226-.354q-.085-.225-.129-.494a21 21 0 0 1-.054-.537 12 12 0 0 1-.01-.484q.01-.225.01-.354v-.505q0-.407-.021-.806-.01-.398-.011-.794v-.548q.01-.333.086-.645.075-.322.247-.548.172-.225.505-.225.15 0 .269.096a1 1 0 0 1 .204.237q.096.14.15.3.064.162.097.28.107-.15.247-.29.15-.14.333-.247a1.76 1.76 0 0 1 .924-.237q.548 0 .848.269.311.258.452.655.15.387.182.838t.032.816q0 .183-.032.548-.032.356-.107.795a9 9 0 0 1-.183.892q-.118.45-.279.827t-.387.612a.65.65 0 0 1-.494.237m6.95-3.964q0 .547-.021 1.095-.01.548-.054 1.096-.032.473-.086 1.01a9 9 0 0 1-.172 1.063 6.5 6.5 0 0 1-.311 1.02 3 3 0 0 1-.516.871q-.312.376-.763.601-.45.225-1.074.226a2.6 2.6 0 0 1-.655-.096 3 3 0 0 1-.677-.258 2 2 0 0 1-.537-.43.86.86 0 0 1-.215-.58q0-.248.172-.462a.6.6 0 0 1 .462-.204q.172 0 .322.054.161.064.312.14.16.075.301.128.15.065.3.065.398 0 .666-.205.269-.193.43-.504.16-.3.236-.666.087-.355.118-.677-.215.247-.504.344a2 2 0 0 1-.591.085q-.57 0-.967-.193a1.8 1.8 0 0 1-.645-.548 2.5 2.5 0 0 1-.365-.816 4 4 0 0 1-.118-1q0-.332.065-.751.075-.42.214-.849.14-.43.344-.838.215-.408.494-.72.28-.31.623-.504.355-.195.774-.194.408 0 .719.237.323.236.376.666a2.2 2.2 0 0 1 .312-.44.6.6 0 0 1 .473-.226q.15 0 .247.15.107.15.161.398a3.4 3.4 0 0 1 .096.526q.033.279.043.559.011.268.011.494zm-1.633.698q0-.162-.053-.419a2.4 2.4 0 0 0-.14-.494 1.4 1.4 0 0 0-.226-.408.42.42 0 0 0-.333-.172.65.65 0 0 0-.44.172 1.6 1.6 0 0 0-.312.419 2.4 2.4 0 0 0-.204.515 2 2 0 0 0-.064.462q0 .14.021.376.022.237.086.462.075.226.194.387a.37.37 0 0 0 .311.16.9.9 0 0 0 .505-.139q.215-.14.355-.354.15-.215.225-.473t.075-.494m4.437 3.276q-.548 0-.956-.29a2.5 2.5 0 0 1-.688-.74 3.6 3.6 0 0 1-.419-1 4.5 4.5 0 0 1-.139-1.096q0-.57.139-1.17.14-.614.43-1.107.29-.505.741-.816.451-.323 1.075-.323.601 0 1.02.333.43.322.688.817a3.7 3.7 0 0 1 .365 1.063q.106.58.075 1.096-.032.57-.183 1.15a3.6 3.6 0 0 1-.419 1.041 2.4 2.4 0 0 1-.709.752q-.429.29-1.02.29m.107-4.855q-.16 0-.29.172a1.8 1.8 0 0 0-.204.419q-.075.247-.118.526-.043.27-.043.473 0 .258.043.558.053.3.14.559.085.247.204.419.128.16.29.161.171 0 .29-.161.129-.162.204-.408a3 3 0 0 0 .107-.537q.033-.301.033-.56a3.5 3.5 0 0 0-.172-1.052q-.075-.246-.204-.408-.118-.16-.28-.161m9.991-2.525q0 .784-.065 1.558a22 22 0 0 0-.054 1.558q0 .633.033 1.256.042.624.043 1.257 0 .172-.011.42a2 2 0 0 1-.075.461.9.9 0 0 1-.194.387q-.129.16-.376.161a.7.7 0 0 1-.537-.236 1.2 1.2 0 0 1-.258-.548 1.84 1.84 0 0 1-.59.655 1.44 1.44 0 0 1-.838.269q-.484 0-.838-.333a3 3 0 0 1-.58-.806 4.7 4.7 0 0 1-.344-.988 4.4 4.4 0 0 1-.107-.892 6.5 6.5 0 0 1 .139-1.31q.087-.355.215-.688.129-.344.322-.612.204-.269.473-.43.279-.16.634-.161.387 0 .741.226.354.225.537.558l.097-1.708q.01-.204.032-.472a3 3 0 0 1 .086-.527q.075-.247.226-.419.15-.171.44-.172.312 0 .483.15.172.151.247.387.087.226.097.495.022.269.022.504m-1.751 4.77q0-.248-.011-.483a6 6 0 0 1 0-.484 5 5 0 0 0-.151-.3 1.3 1.3 0 0 0-.214-.312 1.1 1.1 0 0 0-.269-.247.6.6 0 0 0-.322-.097.42.42 0 0 0-.312.118.7.7 0 0 0-.172.29q-.052.162-.075.355-.01.194-.011.333 0 .13.022.386.021.247.075.505.064.258.172.452.107.193.29.193a.8.8 0 0 0 .279-.054q.14-.065.258-.15a2 2 0 0 0 .236-.204q.118-.118.205-.215zm4.501 2.61q-.549 0-.956-.29a2.5 2.5 0 0 1-.688-.74 3.6 3.6 0 0 1-.419-1 4.5 4.5 0 0 1-.14-1.096q0-.57.14-1.17a3.9 3.9 0 0 1 .43-1.107q.29-.505.741-.816.451-.323 1.074-.323.601 0 1.021.333.429.322.687.817.258.483.365 1.063.108.58.076 1.096-.033.57-.183 1.15a3.7 3.7 0 0 1-.419 1.041 2.4 2.4 0 0 1-.709.752 1.8 1.8 0 0 1-1.02.29m.107-4.855q-.16 0-.29.172a1.7 1.7 0 0 0-.204.419q-.076.247-.118.526-.043.27-.043.473 0 .258.043.558.054.3.139.559.087.247.204.419.13.16.29.161.173 0 .291-.161.127-.162.204-.408a3 3 0 0 0 .107-.537q.033-.301.032-.56 0-.235-.043-.515a3 3 0 0 0-.129-.537q-.075-.246-.204-.408-.118-.16-.279-.161m9.99-2.525q0 .784-.064 1.558a22 22 0 0 0-.054 1.558q0 .633.032 1.256.043.624.043 1.257 0 .172-.01.42a2 2 0 0 1-.076.461q-.053.226-.193.387-.129.16-.376.161a.7.7 0 0 1-.537-.236 1.2 1.2 0 0 1-.258-.548 1.84 1.84 0 0 1-.591.655 1.44 1.44 0 0 1-.838.269q-.483 0-.838-.333a3 3 0 0 1-.58-.806 4.7 4.7 0 0 1-.343-.988 4.4 4.4 0 0 1-.108-.892q0-.269.032-.612.033-.344.108-.698a5 5 0 0 1 .215-.688q.129-.344.322-.612.204-.269.473-.43.279-.16.633-.161.387 0 .742.226.354.225.537.558l.096-1.708q.011-.204.033-.472a3 3 0 0 1 .086-.527q.075-.247.225-.419t.441-.172q.31 0 .483.15.172.151.247.387.086.226.097.495.021.269.021.504m-1.751 4.77q0-.248-.01-.483a5 5 0 0 1 0-.484 6 6 0 0 0-.151-.3 1.3 1.3 0 0 0-.215-.312 1.1 1.1 0 0 0-.268-.247.6.6 0 0 0-.323-.097.42.42 0 0 0-.311.118.7.7 0 0 0-.172.29 1.7 1.7 0 0 0-.075.355q-.01.194-.011.333a5 5 0 0 0 .097.891q.064.258.172.452.107.193.29.193a.8.8 0 0 0 .279-.054q.14-.065.258-.15a2 2 0 0 0 .236-.204 5 5 0 0 0 .204-.215zm4.233-5.2q0 .15-.086.27a.8.8 0 0 1-.204.214 1.3 1.3 0 0 1-.28.14q-.15.042-.279.043a.66.66 0 0 1-.376-.108q-.16-.107-.161-.333 0-.16.075-.279a.7.7 0 0 1 .204-.204.9.9 0 0 1 .269-.129q.15-.043.29-.043.204 0 .376.097.172.096.172.333m.086 3.653v.322q0 .162-.011.312a9 9 0 0 0-.011.494q0 .3-.021.655t-.076.72a3 3 0 0 1-.15.666 1.4 1.4 0 0 1-.29.494.6.6 0 0 1-.44.194.4.4 0 0 1-.344-.162 1.5 1.5 0 0 1-.236-.44 3.6 3.6 0 0 1-.129-.612q-.044-.345-.065-.656a9 9 0 0 1-.021-.59v-.881q0-.322.021-.688t.075-.741q.065-.376.172-.687a1.5 1.5 0 0 1 .301-.505.6.6 0 0 1 .462-.194q.29 0 .44.29.151.291.226.677t.086.773q.01.376.011.56m5.328 2.331q0 .194-.022.505a3 3 0 0 1-.086.612q-.075.29-.236.505a.53.53 0 0 1-.451.215q-.397 0-.612-.258a.93.93 0 0 1-.205-.644q-.343.3-.784.472a2.4 2.4 0 0 1-.881.172q-.31 0-.59-.15a1.9 1.9 0 0 1-.495-.387 2 2 0 0 1-.343-.526 1.5 1.5 0 0 1-.129-.591 1.4 1.4 0 0 1 .311-.902q.323-.387.784-.656.462-.28.978-.44.526-.162.935-.215v-.097a.4.4 0 0 0 .01-.096q0-.333-.182-.537-.183-.204-.516-.204-.268 0-.462.096-.193.086-.365.204-.172.108-.344.204a.85.85 0 0 1-.387.086.6.6 0 0 1-.408-.15.5.5 0 0 1-.161-.387q0-.354.204-.644a1.9 1.9 0 0 1 .527-.484q.322-.204.687-.311.376-.118.688-.118.29 0 .58.075.29.064.548.215.257.139.461.354.216.204.344.484.193.396.312.848.117.44.182.913.065.462.086.935.022.462.022.902m-1.719-.344-.032-.73h-.043a.1.1 0 0 0-.043-.01q-.14 0-.355.074a1.6 1.6 0 0 0-.397.194q-.194.117-.333.268a.48.48 0 0 0-.129.312q0 .15.107.204a.55.55 0 0 0 .247.054q.237 0 .505-.119.269-.128.473-.247m3.921 1.343a.53.53 0 0 1-.065.258.76.76 0 0 1-.397.3.7.7 0 0 1-.247.044q-.162 0-.355-.065a1.3 1.3 0 0 1-.343-.16 1.2 1.2 0 0 1-.258-.248.56.56 0 0 1-.108-.333q0-.29.247-.43a.96.96 0 0 1 .838-.096q.183.054.333.16a.8.8 0 0 1 .258.248q.097.14.097.322"/><defs><filter id="a" width="190.208" height="95.115" x="0" y="15.885" color-interpolation-filters="sRGB" filterUnits="userSpaceOnUse"><feFlood flood-opacity="0" result="BackgroundImageFix"/><feBlend in="SourceGraphic" in2="BackgroundImageFix" result="shape"/><feColorMatrix in="SourceAlpha" result="hardAlpha" values="0 0 0 0 0 0 0 0 0 0 0 0 0 0 0 0 0 0 127 0"/><feOffset dy="4"/><feGaussianBlur stdDeviation="2"/><feComposite in2="hardAlpha" k2="-1" k3="1" operator="arithmetic"/><feColorMatrix values="0 0 0 0 0 0 0 0 0 0 0 0 0 0 0 0 0 0 0.25 0"/><feBlend in2="shape" result="effect1_innerShadow_876_313"/></filter></defs></svg>