<svg xmlns="http://www.w3.org/2000/svg" width="273" height="151" fill="none" viewBox="0 0 273 151"><g filter="url(#a)"><path fill="#f4719c" fill-rule="evenodd" d="M29.137 90.689C12.457 81.244 5 69.094 5 56.141 5 36.563 27.699 17.221 65.249 7.66 83.462 3.02 104.861 1 129.447 1c75.277 0 144.696 19.976 141.733 55.141 0 17.45-12.848 33.494-39.014 43.073-17.435 6.382-40.518 9.572-70.618 9.572-53.355 3.122-93.708-2.1-119.51-12.069a115 115 0 0 1-2.034-.808C31.317 109.513 19.186 118.216 1 130.9c14.872-16.485 24.268-27.401 28.137-40.21" clip-rule="evenodd"/></g><path fill="#f4719c" d="m29.137 90.689.957.29a1 1 0 0 0-.464-1.16zm36.112-83.03-.247-.97zM271.18 56.14l-.996-.084-.004.084zm-39.014 43.073.344.939zm-70.618 9.572v-1q-.03 0-.059.002zM42.038 96.717l-.36.933zm-2.034-.808.378-.925a1 1 0 0 0-1.22.387zM1 130.9l-.742-.67a1 1 0 0 0 1.314 1.49zm4-74.758H4c0 13.41 7.746 25.85 24.644 35.418l.493-.87.493-.87C13.168 80.498 6 68.636 6 56.14zM65.249 7.66l-.247-.97c-18.874 4.807-34.08 12.087-44.592 20.68C9.908 35.958 4 45.945 4 56.141h2c0-9.381 5.442-18.854 15.676-27.223 10.226-8.361 25.144-15.534 43.82-20.29zM129.447 1V0c-24.635 0-46.123 2.024-64.445 6.69l.247.969.247.969C83.6 4.017 104.909 2 129.447 2zM271.18 56.141l.997.084c.773-9.174-3.197-17.298-10.623-24.264-7.407-6.95-18.302-12.801-31.565-17.52C203.452 5.001 167.156 0 129.447 0v2c37.568 0 73.619 4.987 99.871 14.326 13.131 4.67 23.74 10.407 30.868 17.093 7.109 6.67 10.706 14.23 9.998 22.639zm-39.014 43.073.344.939c26.379-9.657 39.67-25.978 39.67-44.012h-2c0 16.865-12.405 32.633-38.358 42.134zm-70.618 9.572v1c30.157 0 53.372-3.194 70.962-9.633l-.344-.939-.344-.939c-17.279 6.325-40.231 9.511-70.274 9.511zM42.038 96.717l-.36.933c25.989 10.041 66.502 15.261 119.928 12.134l-.058-.998-.059-.998c-53.283 3.118-93.475-2.107-119.091-12.004zm-2.034-.808-.378.926q1.01.413 2.051.815l.36-.933.36-.933q-1.022-.395-2.015-.8zm0 0-.843-.538C30.6 108.78 18.643 117.375.428 130.08l.572.82.572.82c18.157-12.663 30.463-21.472 39.275-35.271zM1 130.9l.742.67c14.833-16.441 24.406-27.527 28.352-40.59l-.957-.29-.957-.29c-3.793 12.554-13.01 23.302-27.922 39.83z"/><path fill="#fff" d="M40.378 38.652q0 .312-.063.75a3.3 3.3 0 0 1-.203.844q-.156.39-.422.671-.265.267-.703.266-.578 0-.875-.422a2.9 2.9 0 0 1-.406-1 8 8 0 0 1-.157-1.203q-.015-.61-.03-.969-1.125.188-2.22.328-.03.36-.14.891a4.5 4.5 0 0 1-.313 1.031 2.7 2.7 0 0 1-.546.844q-.33.36-.813.36a.73.73 0 0 1-.594-.266 2.1 2.1 0 0 1-.312-.656 4 4 0 0 1-.14-.766q-.017-.406-.017-.672 0-.89.141-1.75a32 32 0 0 1 .578-2.797q.157-.61.375-1.25.235-.655.532-1.281.312-.64.703-1.14.39-.501.89-.813a2.05 2.05 0 0 1 1.11-.313q.594 0 1.03.266.438.265.767.703.327.438.546 1 .219.547.36 1.125.156.563.25 1.11.11.546.187.968.203 1.016.344 2.063.14 1.03.14 2.078m-3.016-3.797q0-.187-.031-.61a6 6 0 0 0-.094-.859 2.7 2.7 0 0 0-.25-.765q-.156-.344-.437-.344-.157 0-.297.219a2.1 2.1 0 0 0-.25.53 7 7 0 0 0-.203.704q-.08.39-.141.75-.063.36-.094.656-.03.282-.047.406.938-.078 1.844-.234zm11.125 2.063q0 .265-.016.796 0 .516-.046 1.094-.032.562-.094 1.078-.063.5-.157.735-.124.297-.328.515a.71.71 0 0 1-.546.219q-.532 0-.766-.422t-.313-1.047a9.4 9.4 0 0 1-.062-1.36q.015-.734-.016-1.359a4 4 0 0 0-.172-1.046q-.14-.422-.515-.422-.516 0-.797.172a.95.95 0 0 0-.39.421q-.11.266-.141.61-.015.344-.047.719-.032.36-.047.968a6.7 6.7 0 0 1-.14 1.203q-.126.594-.423 1.032-.28.422-.843.422a.7.7 0 0 1-.563-.266 2.1 2.1 0 0 1-.328-.687 6 6 0 0 1-.187-.938 17 17 0 0 1-.063-1v-.906q.015-.406.016-.61 0-.312.015-1.03.031-.72.11-1.595.078-.89.203-1.828a14 14 0 0 1 .328-1.703q.203-.781.484-1.265.297-.485.688-.47.25.016.422.22.188.203.297.53.124.314.203.688.078.375.109.75.047.36.047.672.015.313.016.484a21 21 0 0 1-.063 1.625q.36-.483.953-.796a2.65 2.65 0 0 1 1.219-.313q.78 0 1.172.438.405.42.578 1.062.171.626.187 1.344.015.703.016 1.265m3.36 3.218q0 .25-.141.64-.126.391-.328.766-.187.375-.438.641-.25.266-.484.266-.313 0-.313-.313 0-.187.078-.36.08-.17.172-.343a3 3 0 0 0 .172-.328.7.7 0 0 0 .078-.312.9.9 0 0 1-.5.156.79.79 0 0 1-.61-.282.92.92 0 0 1-.25-.625q0-.5.329-.796.328-.313.828-.313.562 0 .985.297.42.297.421.906m10.937-1.953q0 .531-.344 1.047-.328.5-.844.906-.5.39-1.078.64-.578.235-1.062.235a2.76 2.76 0 0 1-1.485-.406 3.9 3.9 0 0 1-1.078-1.062 5.2 5.2 0 0 1-.672-1.407 5.6 5.6 0 0 1-.218-1.515q0-.782.218-1.672.219-.89.657-1.64.453-.751 1.125-1.25.687-.5 1.625-.5.53 0 1.015.187a2.45 2.45 0 0 1 1.422 1.28q.219.454.219 1.016 0 .735-.313 1.375a3.6 3.6 0 0 1-.828 1.11q-.516.469-1.187.765a4 4 0 0 1-1.375.313q.061.453.36.656.311.204.733.203.313 0 .61-.156t.578-.344q.282-.203.547-.359a1.15 1.15 0 0 1 .562-.156q.313 0 .563.203t.25.531m-2.531-3.828a.94.94 0 0 0-.11-.422.36.36 0 0 0-.343-.219.9.9 0 0 0-.579.188 1.4 1.4 0 0 0-.39.453q-.157.266-.25.578a3 3 0 0 0-.094.578q.219-.047.516-.125.311-.078.578-.203.28-.14.468-.344a.66.66 0 0 0 .204-.484m10.562 7.172q-1.11 0-1.734-.297a2 2 0 0 1-.922-.812q-.297-.532-.36-1.282a23 23 0 0 1-.016-3.14q.048-.75.141-1.594-.218 0-.343.015h-.203q-.5 0-.86-.218-.375-.219-.375-.672 0-.282.219-.5.203-.219.531-.375.328-.157.703-.25.39-.094.735-.125 0-.438.062-.969.063-.531.219-.984.173-.469.453-.782a.92.92 0 0 1 .719-.312q.25 0 .437.156.204.141.328.375.126.22.188.5.063.282.063.547 0 .313-.047.64-.048.33-.172.813.266-.03.36-.031.093-.015.171-.016.266 0 .547.047.297.047.531.156.25.11.406.297a.6.6 0 0 1 .157.422.67.67 0 0 1-.235.5 1.9 1.9 0 0 1-.562.375q-.344.157-.735.25-.39.078-.734.11-.094.64-.14 1.187-.031.532-.079 1.078l-.062.547q-.016.266-.016.547 0 .203.016.484.015.266.11.516.093.25.296.438.203.171.563.171.218 0 .453-.03a2.4 2.4 0 0 1 .468-.048q.407 0 .578.281.188.282.188.72a.9.9 0 0 1-.203.577 1.35 1.35 0 0 1-.485.375 2.6 2.6 0 0 1-.671.235q-.36.078-.688.078m8.906-3.344q0 .531-.343 1.047-.329.5-.844.906-.5.39-1.078.64-.579.235-1.063.235a2.76 2.76 0 0 1-1.484-.406 3.9 3.9 0 0 1-1.078-1.062 5.2 5.2 0 0 1-.672-1.407 5.6 5.6 0 0 1-.219-1.515q0-.782.219-1.672t.656-1.64q.453-.751 1.125-1.25.688-.5 1.625-.5.531 0 1.016.187a2.45 2.45 0 0 1 1.422 1.28q.218.454.218 1.016 0 .735-.312 1.375a3.6 3.6 0 0 1-.828 1.11q-.516.469-1.188.765a4 4 0 0 1-1.375.313q.063.453.36.656.312.204.734.203.313 0 .61-.156.296-.156.578-.344.281-.203.546-.359a1.15 1.15 0 0 1 .563-.156q.313 0 .562.203t.25.531m-2.53-3.828a.94.94 0 0 0-.11-.422.36.36 0 0 0-.344-.219.9.9 0 0 0-.578.188 1.4 1.4 0 0 0-.39.453q-.157.266-.25.578a3 3 0 0 0-.095.578q.219-.047.516-.125.313-.078.578-.203.282-.14.469-.344a.66.66 0 0 0 .203-.484m12.64 1.453v.813q0 .5-.032 1.093-.015.594-.093 1.203a5.3 5.3 0 0 1-.25 1.079q-.156.484-.407.796a.79.79 0 0 1-.64.313.6.6 0 0 1-.531-.281 2.2 2.2 0 0 1-.25-.688 5 5 0 0 1-.094-.797v-.64q0-.703.047-1.375t.047-1.375v-.282q0-.202-.032-.406a1.2 1.2 0 0 0-.109-.36q-.063-.155-.203-.155-.282 0-.453.296a2.7 2.7 0 0 0-.282.672q-.109.39-.156.782-.047.375-.062.562-.032.204-.063.61-.015.405-.062.89a9 9 0 0 1-.125 1q-.078.5-.219.922-.125.406-.328.672-.204.265-.5.265a.64.64 0 0 1-.578-.328 2.4 2.4 0 0 1-.297-.765 6 6 0 0 1-.125-.89q-.016-.454-.016-.704v-.516q.016-.25.016-.515v-.36q0-.25-.016-.547 0-.312-.031-.64a5 5 0 0 0-.062-.594 1.5 1.5 0 0 0-.141-.453q-.094-.172-.219-.172-.203 0-.375.266-.171.25-.297.61a6 6 0 0 0-.203.687q-.062.343-.062.5v.093q0 .75.093 1.47.094.718.094 1.468 0 .437-.281.812-.282.36-.781.36a.76.76 0 0 1-.594-.266 2.4 2.4 0 0 1-.39-.719 6 6 0 0 1-.25-.953 12 12 0 0 1-.11-1.031 42 42 0 0 1-.047-.922v-.625q0-.234-.016-.687 0-.453.016-.985.03-.53.094-1.078a5.5 5.5 0 0 1 .203-1.016 2.3 2.3 0 0 1 .36-.734.73.73 0 0 1 .593-.297q.406 0 .656.219.266.22.266.656 0 .094-.016.188a1 1 0 0 1-.015.172q.172-.25.421-.5.25-.266.532-.47.297-.218.625-.343.327-.14.656-.14a.97.97 0 0 1 .563.171q.25.172.437.438.188.25.313.547.124.297.171.562.157-.281.375-.562.235-.297.5-.516.266-.219.578-.36a1.7 1.7 0 0 1 .672-.14q.33 0 .563.234.234.235.406.61.172.36.266.828.093.453.156.906.063.438.078.828.016.375.016.594m14.281 0v.813q0 .5-.031 1.093-.016.594-.094 1.203a5.3 5.3 0 0 1-.25 1.079q-.156.484-.406.796a.79.79 0 0 1-.641.313.6.6 0 0 1-.531-.281 2.2 2.2 0 0 1-.25-.688 5 5 0 0 1-.094-.797v-.64q0-.703.047-1.375t.047-1.375v-.282q0-.202-.031-.406a1.2 1.2 0 0 0-.11-.36q-.062-.155-.203-.155-.28 0-.453.296a2.7 2.7 0 0 0-.281.672q-.11.39-.157.782-.047.375-.062.562a9 9 0 0 0-.063.61q-.015.405-.062.89a9 9 0 0 1-.125 1q-.078.5-.219.922-.124.406-.328.672-.203.265-.5.265a.64.64 0 0 1-.578-.328 2.4 2.4 0 0 1-.297-.765 6 6 0 0 1-.125-.89q-.016-.454-.016-.704v-.516q.016-.25.016-.515v-.36q0-.25-.016-.547 0-.312-.03-.64a5 5 0 0 0-.063-.594 1.5 1.5 0 0 0-.14-.453q-.094-.172-.22-.172-.203 0-.375.266-.171.25-.297.61a6 6 0 0 0-.203.687q-.062.343-.062.5v.093q0 .75.094 1.47.093.718.093 1.468 0 .437-.28.812-.282.36-.782.36a.76.76 0 0 1-.594-.266 2.4 2.4 0 0 1-.39-.719 6 6 0 0 1-.25-.953 12 12 0 0 1-.11-1.031q-.03-.516-.047-.922v-.625q0-.234-.015-.687 0-.453.015-.985.031-.53.094-1.078.063-.562.203-1.016.141-.452.36-.734a.73.73 0 0 1 .593-.297q.407 0 .656.219.267.22.266.656 0 .094-.016.188a1 1 0 0 1-.015.172 3.6 3.6 0 0 1 .422-.5q.249-.266.531-.47.297-.218.625-.343.329-.14.656-.14a.97.97 0 0 1 .563.171q.25.172.437.438.187.25.313.547.124.297.172.562.156-.281.375-.562.234-.297.5-.516a2.5 2.5 0 0 1 .578-.36q.327-.14.672-.14.328 0 .562.234t.406.61q.172.36.266.828.094.453.156.906.063.438.078.828.016.375.016.594m7.672 2.953q0 .281-.031.735a4.3 4.3 0 0 1-.125.89 2.1 2.1 0 0 1-.344.735q-.234.312-.656.312-.579 0-.891-.375t-.297-.937q-.5.437-1.141.687-.624.25-1.281.25-.453 0-.859-.219a2.7 2.7 0 0 1-.719-.562 2.9 2.9 0 0 1-.5-.766 2.2 2.2 0 0 1-.187-.86q0-.75.453-1.312a4.2 4.2 0 0 1 1.14-.953q.672-.406 1.422-.64.766-.234 1.36-.313v-.14a.6.6 0 0 0 .015-.141q0-.485-.265-.781-.266-.297-.75-.297-.392 0-.672.14a3.3 3.3 0 0 0-.532.297q-.25.156-.5.297a1.24 1.24 0 0 1-.562.125.87.87 0 0 1-.594-.219.74.74 0 0 1-.234-.562q0-.516.297-.938.312-.42.765-.703a4 4 0 0 1 1-.453 3.4 3.4 0 0 1 1-.172q.423 0 .844.11.422.093.797.312.375.203.672.516.312.297.5.703.28.578.453 1.234.172.64.266 1.328.093.672.125 1.36.03.672.031 1.312m-2.5-.5-.047-1.062h-.063a.13.13 0 0 0-.062-.016q-.203 0-.516.11-.297.093-.578.28a2.3 2.3 0 0 0-.484.391.7.7 0 0 0-.188.453q0 .219.157.297a.8.8 0 0 0 .359.078q.344 0 .734-.171.391-.187.688-.36m6.015-8.203a.64.64 0 0 1-.125.39 1.2 1.2 0 0 1-.296.313 2 2 0 0 1-.407.203 1.5 1.5 0 0 1-.406.063.96.96 0 0 1-.547-.156q-.234-.157-.234-.485a.74.74 0 0 1 .109-.406q.126-.188.297-.297a1.2 1.2 0 0 1 .391-.187q.219-.063.422-.063.297 0 .546.14.25.142.25.485m.125 5.313v.468q0 .235-.015.453-.016.266-.016.72 0 .436-.031.952t-.109 1.047a4.4 4.4 0 0 1-.219.969 2 2 0 0 1-.422.719.9.9 0 0 1-.641.281.58.58 0 0 1-.5-.234 2.2 2.2 0 0 1-.343-.641 5.3 5.3 0 0 1-.188-.89 17 17 0 0 1-.094-.954q-.03-.468-.031-.86v-1.28q0-.47.031-1 .032-.532.11-1.079.093-.546.25-1 .171-.452.437-.734a.88.88 0 0 1 .672-.281q.422 0 .641.422t.328.984.125 1.125q.015.548.015.813m5.688-3q0 .453-.313.671a6 6 0 0 1-.671.422q-.376.188-.688.453-.297.267-.297.797 0 .282.125.485.14.203.328.375.204.156.438.328t.422.39q.203.219.328.532.14.312.14.765 0 .657-.343 1.297a4.2 4.2 0 0 1-.86 1.125 4.3 4.3 0 0 1-1.172.781 3.1 3.1 0 0 1-1.296.297q-.266 0-.532-.047a1.5 1.5 0 0 1-.484-.14 1.05 1.05 0 0 1-.344-.297.9.9 0 0 1-.14-.516q0-.436.171-.672.172-.249.438-.39t.562-.219q.314-.078.579-.187.266-.126.437-.313.172-.187.172-.531 0-.328-.266-.672a14 14 0 0 0-.562-.75 8 8 0 0 1-.578-.86 2.03 2.03 0 0 1-.25-1q0-.671.265-1.234.282-.578.735-1a3.5 3.5 0 0 1 1.062-.656 3.2 3.2 0 0 1 1.25-.25q.25 0 .485.047.25.046.437.172a.8.8 0 0 1 .297.312.86.86 0 0 1 .125.485M124 36.385q0 .203-.094.375a.9.9 0 0 1-.25.266q-.14.11-.328.172a1 1 0 0 1-.36.062q-.234 0-.515-.078a2.7 2.7 0 0 1-.5-.234 1.8 1.8 0 0 1-.375-.36.8.8 0 0 1-.157-.484q0-.438.36-.64.359-.22.734-.22.234 0 .485.079.265.078.484.234.234.141.375.36a.8.8 0 0 1 .141.468m0 3.828q0 .203-.094.375a.9.9 0 0 1-.25.266q-.14.11-.328.172a1 1 0 0 1-.36.062q-.234 0-.515-.093a1.8 1.8 0 0 1-.5-.235 1.8 1.8 0 0 1-.375-.36.8.8 0 0 1-.157-.484q0-.421.36-.625.359-.218.734-.218.234 0 .485.078.265.078.484.234.234.141.375.36a.8.8 0 0 1 .141.468m11.203-1.453q0 .281-.032.735-.015.453-.125.89a2.1 2.1 0 0 1-.343.735q-.235.312-.657.312-.578 0-.89-.375t-.297-.937a3.8 3.8 0 0 1-1.141.687q-.624.25-1.281.25-.453 0-.859-.219a2.7 2.7 0 0 1-.719-.562 2.9 2.9 0 0 1-.5-.766 2.2 2.2 0 0 1-.188-.86q0-.75.454-1.312a4.2 4.2 0 0 1 1.14-.953q.672-.406 1.422-.64.767-.234 1.359-.313v-.14a.6.6 0 0 0 .016-.141q0-.485-.266-.781t-.75-.297q-.39 0-.671.14a3.3 3.3 0 0 0-.532.297q-.25.156-.5.297a1.24 1.24 0 0 1-.562.125.87.87 0 0 1-.594-.219.74.74 0 0 1-.234-.562q0-.516.297-.938.312-.42.765-.703a4 4 0 0 1 1-.453 3.4 3.4 0 0 1 1-.172q.422 0 .844.11.422.093.797.312.375.203.672.516.312.297.5.703.28.578.453 1.234.172.64.265 1.328.095.672.125 1.36.032.672.032 1.312m-2.5-.5-.047-1.062h-.063a.13.13 0 0 0-.062-.016q-.203 0-.516.11-.297.093-.578.28a2.3 2.3 0 0 0-.484.391.7.7 0 0 0-.188.453q0 .219.156.297a.8.8 0 0 0 .36.078q.344 0 .734-.171.391-.187.688-.36m14.281-2.625q0 .797-.031 1.594a28 28 0 0 1-.078 1.594q-.048.688-.125 1.468-.078.782-.25 1.547a9.5 9.5 0 0 1-.454 1.485q-.28.718-.75 1.265a3.4 3.4 0 0 1-1.109.875q-.656.329-1.562.328-.422 0-.954-.14a4.2 4.2 0 0 1-.984-.375 2.9 2.9 0 0 1-.781-.625 1.25 1.25 0 0 1-.313-.844q0-.36.25-.672a.86.86 0 0 1 .672-.297q.25 0 .469.078.234.094.453.204.234.108.438.187.218.094.437.094.578 0 .969-.297.39-.28.625-.734.234-.438.344-.97.124-.514.171-.984-.312.36-.734.5a2.9 2.9 0 0 1-.859.125q-.828 0-1.407-.28a2.6 2.6 0 0 1-.937-.798 3.6 3.6 0 0 1-.531-1.187 5.8 5.8 0 0 1-.172-1.453q0-.485.094-1.094.11-.61.312-1.234a9 9 0 0 1 .5-1.22q.312-.593.719-1.046t.906-.734a2.3 2.3 0 0 1 1.125-.282q.594 0 1.047.344.469.344.547.969.171-.328.453-.64a.87.87 0 0 1 .687-.329q.219 0 .36.219.156.218.234.578.094.344.141.766.047.405.062.812.016.39.016.719zm-2.375 1.016q0-.234-.078-.61-.063-.375-.203-.718a2 2 0 0 0-.328-.594q-.203-.25-.485-.25a.94.94 0 0 0-.64.25 2.3 2.3 0 0 0-.454.61q-.187.342-.296.75a3 3 0 0 0-.094.671q0 .204.031.547.032.344.125.672.11.328.281.563a.54.54 0 0 0 .453.234q.423 0 .735-.203t.515-.516q.22-.312.329-.687t.109-.72m10.031 1.531q0 .531-.344 1.047-.328.5-.843.906-.5.39-1.078.64-.579.235-1.063.235a2.76 2.76 0 0 1-1.484-.406 3.9 3.9 0 0 1-1.078-1.062 5.1 5.1 0 0 1-.672-1.407 5.6 5.6 0 0 1-.219-1.515q0-.782.219-1.672a6.1 6.1 0 0 1 .656-1.64q.453-.751 1.125-1.25.687-.5 1.625-.5.531 0 1.016.187.485.17.843.5.36.328.578.78.219.454.219 1.016 0 .735-.312 1.375a3.7 3.7 0 0 1-.828 1.11 4.4 4.4 0 0 1-1.188.765 4 4 0 0 1-1.375.313q.063.453.359.656.314.204.735.203.312 0 .609-.156t.578-.344q.282-.203.547-.359a1.15 1.15 0 0 1 .563-.156q.312 0 .562.203a.65.65 0 0 1 .25.531m-2.531-3.828a.94.94 0 0 0-.109-.422.36.36 0 0 0-.344-.219.9.9 0 0 0-.578.188 1.4 1.4 0 0 0-.391.453q-.156.266-.25.578a3 3 0 0 0-.094.578q.219-.047.516-.125.312-.078.578-.203.282-.14.469-.344a.66.66 0 0 0 .203-.484m7.594 7.047q-.266 0-.422-.25a1.8 1.8 0 0 1-.235-.547 4.4 4.4 0 0 1-.109-.625q-.015-.328-.016-.5 0-.468.047-.937l.125-.938q.078-.468.125-.937a7 7 0 0 0 .063-.938q0-.187-.016-.406a1.6 1.6 0 0 0-.078-.407.66.66 0 0 0-.172-.328.44.44 0 0 0-.328-.125q-.141 0-.312.235a3.4 3.4 0 0 0-.329.515q-.14.282-.25.578a1.5 1.5 0 0 0-.093.422v.703q.015.344.015.704v.906q-.015.28-.047.578a5 5 0 0 1-.093.578q-.047.282-.141.547a1.7 1.7 0 0 1-.25.453 1.2 1.2 0 0 1-.344.313.9.9 0 0 1-.484.125.7.7 0 0 1-.516-.204 1.5 1.5 0 0 1-.328-.515 3.6 3.6 0 0 1-.187-.719 21 21 0 0 1-.078-.781q-.016-.39-.016-.703.016-.328.016-.516v-.734q0-.594-.032-1.172-.015-.579-.015-1.156v-.797q.015-.485.125-.938a2.1 2.1 0 0 1 .359-.797q.25-.327.734-.328a.6.6 0 0 1 .391.14q.173.142.297.345.141.202.219.437.093.235.14.406.157-.218.36-.422a2.8 2.8 0 0 1 .484-.359 2.54 2.54 0 0 1 1.344-.344q.797 0 1.234.391.453.375.656.953.22.562.266 1.219.047.656.047 1.187 0 .266-.047.797-.046.517-.156 1.156-.094.626-.266 1.297a8.5 8.5 0 0 1-.406 1.203 3 3 0 0 1-.563.891q-.312.344-.718.344m6.672.125q-1.11 0-1.735-.297a2.02 2.02 0 0 1-.922-.812q-.297-.532-.359-1.282-.063-.75-.063-1.672 0-.735.047-1.468.047-.75.141-1.594-.218 0-.344.015h-.203q-.5 0-.859-.218-.375-.219-.375-.672a.7.7 0 0 1 .218-.5q.204-.219.532-.375.327-.157.703-.25.39-.094.734-.125 0-.438.063-.969.062-.531.218-.984.172-.469.454-.782a.92.92 0 0 1 .718-.312q.25 0 .438.156.203.141.328.375.125.22.187.5.063.282.063.547 0 .313-.047.64-.046.33-.172.813.266-.03.36-.031a1 1 0 0 1 .171-.016q.267 0 .547.047.297.047.532.156.25.11.406.297a.6.6 0 0 1 .156.422.67.67 0 0 1-.234.5q-.22.219-.563.375a4 4 0 0 1-.734.25 7 7 0 0 1-.735.11q-.093.64-.14 1.187-.031.532-.078 1.078l-.063.547q-.015.266-.015.547 0 .203.015.484.016.266.11.516.093.25.296.438.203.171.563.171.219 0 .453-.03.234-.048.469-.048.406 0 .578.281.187.282.187.72a.9.9 0 0 1-.203.577 1.35 1.35 0 0 1-.484.375 2.6 2.6 0 0 1-.672.235 3.2 3.2 0 0 1-.687.078m8.906-3.344q0 .531-.344 1.047-.328.5-.844.906a5 5 0 0 1-1.078.64q-.578.235-1.062.235a2.77 2.77 0 0 1-1.485-.406 3.9 3.9 0 0 1-1.078-1.062 5.2 5.2 0 0 1-.672-1.407 5.6 5.6 0 0 1-.218-1.515q0-.782.218-1.672.219-.89.657-1.64.453-.751 1.125-1.25.687-.5 1.625-.5.53 0 1.015.187a2.46 2.46 0 0 1 1.422 1.28q.219.454.219 1.016 0 .735-.313 1.375a3.6 3.6 0 0 1-.828 1.11 4.4 4.4 0 0 1-1.187.765 4 4 0 0 1-1.375.313q.062.453.359.656.312.204.734.203.313 0 .61-.156t.578-.344a7 7 0 0 1 .547-.359q.281-.156.562-.156a.87.87 0 0 1 .563.203.65.65 0 0 1 .25.531m-2.531-3.828a.94.94 0 0 0-.11-.422.36.36 0 0 0-.344-.219.9.9 0 0 0-.578.188 1.4 1.4 0 0 0-.39.453q-.157.266-.25.578a3 3 0 0 0-.094.578q.219-.047.516-.125.312-.078.578-.203a1.6 1.6 0 0 0 .468-.344.66.66 0 0 0 .204-.484m14.078 1.953q0 .688-.157 1.516a5.3 5.3 0 0 1-.5 1.515q-.344.704-.921 1.172-.562.47-1.422.469-.219 0-.453-.031a2.2 2.2 0 0 1-.454-.11 1.6 1.6 0 0 1-.375-.203.9.9 0 0 1-.265-.36l-.141 2.25q-.016.36-.031.86 0 .5-.125.953a1.7 1.7 0 0 1-.391.766q-.265.328-.781.328-.297 0-.5-.312a2.5 2.5 0 0 1-.328-.766 9 9 0 0 1-.172-1.047 14 14 0 0 1-.078-1.11q-.015-.53-.016-.968v-.64q0-1.048-.015-2.079a133 133 0 0 1-.016-2.094v-.578q0-.405.031-.875.031-.468.094-.968.078-.5.219-.907.14-.42.359-.672a.67.67 0 0 1 .531-.265q.204 0 .36.125a.86.86 0 0 1 .281.297q.125.172.203.375t.125.375q.484-.547 1.11-.828.64-.282 1.359-.282.75 0 1.219.422.484.422.75 1.047.28.626.39 1.344.11.704.11 1.281m-2.235-.125q0-.234-.047-.469a1.3 1.3 0 0 0-.14-.453.77.77 0 0 0-.281-.344.76.76 0 0 0-.469-.14q-.375 0-.797.25a1.74 1.74 0 0 0-.609.547q-.079.124-.094.406a8 8 0 0 0-.016.422v.297q.016.171.031.36l.032.358q.031.173.078.266a.6.6 0 0 0 .203.266q.156.109.344.203t.375.14q.203.047.343.047a.65.65 0 0 0 .532-.25 1.8 1.8 0 0 0 .312-.593q.126-.344.156-.704.048-.375.047-.609m6.157 5.234q-.798 0-1.391-.421a3.7 3.7 0 0 1-1-1.079 5.2 5.2 0 0 1-.609-1.453 6.5 6.5 0 0 1-.204-1.593q0-.829.204-1.704.202-.89.625-1.609.421-.735 1.078-1.187.656-.47 1.562-.47.875 0 1.485.485.625.47 1 1.188.375.702.531 1.547a6.5 6.5 0 0 1 .109 1.593 8.6 8.6 0 0 1-.265 1.672 5.3 5.3 0 0 1-.61 1.516 3.5 3.5 0 0 1-1.031 1.094q-.625.42-1.484.421m.156-7.062q-.234 0-.422.25-.172.25-.297.61-.11.358-.172.765-.062.39-.062.688 0 .375.062.812.078.438.203.813.126.36.297.609.188.234.422.234.25 0 .422-.234.188-.234.297-.594.11-.36.156-.781a8 8 0 0 0 .047-.813q0-.343-.063-.75a4.3 4.3 0 0 0-.187-.78 1.8 1.8 0 0 0-.297-.595q-.172-.234-.406-.234m10.765-3.672q0 1.14-.093 2.266-.078 1.125-.078 2.265 0 .922.046 1.828.063.907.063 1.829 0 .25-.016.609-.015.344-.109.672a1.3 1.3 0 0 1-.281.562q-.188.235-.547.235a1.01 1.01 0 0 1-.781-.344 1.7 1.7 0 0 1-.375-.797 2.7 2.7 0 0 1-.86.953q-.562.39-1.219.39a1.72 1.72 0 0 1-1.218-.484 4.3 4.3 0 0 1-.844-1.171 7 7 0 0 1-.5-1.438 6.5 6.5 0 0 1-.156-1.297q0-.39.047-.89.046-.5.156-1.016.125-.516.312-1 .188-.5.469-.89a2.4 2.4 0 0 1 .688-.626q.406-.234.921-.234.563 0 1.079.328.515.328.781.813l.14-2.485q.017-.297.047-.687.032-.406.125-.766.11-.36.328-.61.22-.25.641-.25.454 0 .703.22.25.218.36.562.125.328.14.719.031.39.031.734m-2.546 6.938q0-.36-.016-.704-.015-.343 0-.703a8 8 0 0 0-.219-.437 2 2 0 0 0-.312-.453 1.6 1.6 0 0 0-.391-.36.85.85 0 0 0-.469-.14.6.6 0 0 0-.453.172 1 1 0 0 0-.25.421 2.5 2.5 0 0 0-.109.516 8 8 0 0 0-.016.484q0 .188.031.563.032.36.11.734.094.376.25.657.156.28.422.28.203 0 .406-.077.203-.095.375-.219a3 3 0 0 0 .344-.297q.171-.172.297-.312zm10.125.562q0 .531-.344 1.047-.328.5-.844.906-.5.39-1.078.64-.578.235-1.063.235a2.76 2.76 0 0 1-1.484-.406 3.9 3.9 0 0 1-1.078-1.062 5.1 5.1 0 0 1-.672-1.407 5.6 5.6 0 0 1-.219-1.515q0-.782.219-1.672.22-.89.656-1.64.453-.751 1.125-1.25.688-.5 1.625-.5.532 0 1.016.187a2.46 2.46 0 0 1 1.422 1.28q.219.454.219 1.016a3.1 3.1 0 0 1-.313 1.375 3.6 3.6 0 0 1-.828 1.11 4.4 4.4 0 0 1-1.188.765 4 4 0 0 1-1.375.313q.063.453.36.656.312.204.734.203.313 0 .61-.156.296-.156.578-.344a7 7 0 0 1 .547-.359q.281-.156.562-.156.312 0 .563.203t.25.531m-2.532-3.828a.94.94 0 0 0-.109-.422.36.36 0 0 0-.344-.219.9.9 0 0 0-.578.188 1.4 1.4 0 0 0-.391.453q-.156.266-.25.578a3 3 0 0 0-.093.578q.218-.047.515-.125a3 3 0 0 0 .578-.203q.282-.14.469-.344a.66.66 0 0 0 .203-.484m13.469-2.734q0 .296-.062.578a1.2 1.2 0 0 1-.188.468 1.05 1.05 0 0 1-.375.329q-.234.109-.578.109-.39 0-.578-.156a.86.86 0 0 1-.266-.375 2 2 0 0 1-.062-.5q0-.266-.032-.485a.85.85 0 0 0-.109-.39q-.093-.156-.344-.157-.234 0-.39.36a5 5 0 0 0-.235.828 7 7 0 0 0-.125.922 11 11 0 0 0-.031.594q.204-.032.391-.047a2.5 2.5 0 0 1 .859.015q.234.048.438.157a.8.8 0 0 1 .328.28q.125.172.125.438 0 .282-.25.5-.235.219-.578.375a5 5 0 0 1-.672.235 5 5 0 0 1-.547.125q.047 1.077.047 2.172 0 1.03-.047 2.03a1.2 1.2 0 0 1-.344.798q-.297.312-.781.312a.9.9 0 0 1-.453-.11.86.86 0 0 1-.313-.265 1.6 1.6 0 0 1-.203-.39 2 2 0 0 1-.078-.454 56 56 0 0 1-.125-1.875 29 29 0 0 1-.031-1.906q-.11.016-.219.016h-.203q-.188 0-.453-.047a2.3 2.3 0 0 1-.516-.156 1.7 1.7 0 0 1-.406-.297.6.6 0 0 1-.172-.438q0-.344.234-.578.219-.234.532-.375.327-.156.671-.219.36-.061.625-.093v-.25q0-.766.141-1.64a6 6 0 0 1 .5-1.626q.36-.75.984-1.234.625-.5 1.594-.5.609 0 1.047.265.438.25.719.672.281.407.406.938.125.515.125 1.047m2-1.563a.65.65 0 0 1-.125.39 1.2 1.2 0 0 1-.297.313q-.187.125-.406.203a1.5 1.5 0 0 1-.406.063.96.96 0 0 1-.547-.156q-.234-.157-.235-.485a.74.74 0 0 1 .11-.406 1 1 0 0 1 .297-.297q.172-.125.39-.187.22-.063.422-.063.297 0 .547.14.25.142.25.485m.125 5.313v.468q0 .235-.016.453-.015.266-.015.72 0 .436-.031.952a12 12 0 0 1-.11 1.047 4.3 4.3 0 0 1-.219.969 2 2 0 0 1-.421.719.9.9 0 0 1-.641.281.58.58 0 0 1-.5-.234 2.2 2.2 0 0 1-.344-.641 5.3 5.3 0 0 1-.187-.89 17 17 0 0 1-.094-.954 13 13 0 0 1-.031-.86v-1.28q0-.47.031-1 .031-.532.109-1.079.094-.546.25-1a2.2 2.2 0 0 1 .438-.734.88.88 0 0 1 .672-.281q.422 0 .64.422.22.422.328.984.11.563.125 1.125.016.548.016.813m6.906-.407q0 .078-.015.172a1 1 0 0 1-.047.156q-.141.36-.438.61a1.1 1.1 0 0 1-.703.234q-.609 0-.828-.61a.5.5 0 0 1-.031-.171q0-.11-.016-.219v-.453a.9.9 0 0 0-.109-.344q-.078-.125-.266-.125-.266 0-.515.344a3.8 3.8 0 0 0-.422.797 7 7 0 0 0-.282.938 3.8 3.8 0 0 0-.109.78q0 .236.031.579.032.328.125.64.094.313.25.547a.54.54 0 0 0 .438.22.8.8 0 0 0 .484-.157q.235-.172.453-.39.204-.189.438-.391a.87.87 0 0 1 .562-.204q.391 0 .61.282a.97.97 0 0 1 .234.64q0 .532-.281 1a3.2 3.2 0 0 1-.703.797q-.423.328-.938.516a2.7 2.7 0 0 1-.984.203q-.844 0-1.438-.422a3.3 3.3 0 0 1-.937-1.062 5 5 0 0 1-.516-1.422 7.3 7.3 0 0 1-.156-1.453q0-.798.219-1.72.219-.936.672-1.734a4.3 4.3 0 0 1 1.156-1.328q.719-.53 1.703-.53.609 0 1.047.265.453.265.734.703.297.422.438.953.156.531.156 1.047v.156a1 1 0 0 1-.016.156m7.516 3.797q0 .281-.031.735a4.3 4.3 0 0 1-.125.89 2.1 2.1 0 0 1-.344.735q-.234.312-.656.312-.579 0-.891-.375t-.297-.937q-.5.437-1.14.687-.625.25-1.282.25-.453 0-.859-.219a2.7 2.7 0 0 1-.719-.562 2.9 2.9 0 0 1-.5-.766 2.2 2.2 0 0 1-.187-.86q0-.75.453-1.312a4.3 4.3 0 0 1 1.14-.953q.672-.406 1.422-.64.766-.234 1.36-.313v-.14a.6.6 0 0 0 .015-.141q0-.485-.265-.781-.266-.297-.75-.297-.392 0-.672.14a3.3 3.3 0 0 0-.531.297q-.25.156-.5.297a1.25 1.25 0 0 1-.563.125.87.87 0 0 1-.594-.219.74.74 0 0 1-.234-.562q0-.516.297-.938.312-.42.765-.703a4 4 0 0 1 1-.453 3.4 3.4 0 0 1 1-.172q.423 0 .844.11.422.093.797.312.375.203.672.516.312.297.5.703.281.578.453 1.234.172.64.266 1.328.093.672.125 1.36.031.672.031 1.312m-2.5-.5-.047-1.062h-.062a.14.14 0 0 0-.063-.016q-.202 0-.516.11a2.3 2.3 0 0 0-.578.28 2.3 2.3 0 0 0-.484.391.7.7 0 0 0-.188.453q0 .219.157.297a.8.8 0 0 0 .359.078q.344 0 .734-.171.391-.187.688-.36m8.859-3.14q-.218.015-.375-.032l-.312-.125a3 3 0 0 0-.281-.109.6.6 0 0 0-.313-.047q-.312.015-.562.172a2.2 2.2 0 0 0-.438.39 2.7 2.7 0 0 0-.328.532 3 3 0 0 0-.219.562 4 4 0 0 0-.078.578q-.015.375-.016.813-.015.453-.015.86t-.031.64a5 5 0 0 1-.079.594 2.5 2.5 0 0 1-.203.625 1.4 1.4 0 0 1-.343.5.8.8 0 0 1-.563.203.75.75 0 0 1-.469-.156 1.4 1.4 0 0 1-.328-.407 4 4 0 0 1-.219-.609 8 8 0 0 1-.125-.703q-.046-.375-.078-.75-.015-.376-.031-.703v-.625a8 8 0 0 0 .016-.453q-.017-.548-.063-1.094a20 20 0 0 1-.031-1.11q0-.343.031-.765t.172-.781a1.6 1.6 0 0 1 .406-.625q.282-.25.766-.25.266 0 .453.171.188.173.297.422.125.25.187.532.063.28.079.515.375-.609.843-.984.47-.39 1.219-.422.375-.015.734.078.375.078.672.281.313.188.5.5.204.313.219.735.031.5-.297.765-.328.266-.797.282M41.362 56.808v.813q0 .5-.031 1.093-.015.594-.094 1.203a5.3 5.3 0 0 1-.25 1.079q-.157.484-.406.796a.78.78 0 0 1-.64.313.6.6 0 0 1-.532-.281 2.2 2.2 0 0 1-.25-.688 5 5 0 0 1-.094-.797v-.64q0-.703.047-1.375t.047-1.375v-.282q0-.202-.031-.406a1.2 1.2 0 0 0-.11-.36q-.062-.155-.203-.155-.28 0-.453.296a2.7 2.7 0 0 0-.281.672q-.11.39-.157.782-.046.375-.062.562-.031.204-.062.61-.016.405-.063.89a9 9 0 0 1-.125 1q-.078.5-.219.922-.125.406-.328.672-.203.265-.5.265a.64.64 0 0 1-.578-.328 2.4 2.4 0 0 1-.297-.765 6 6 0 0 1-.125-.89q-.015-.454-.015-.704v-.516q.015-.25.015-.515v-.36q0-.25-.015-.547 0-.312-.032-.64a5 5 0 0 0-.062-.594 1.5 1.5 0 0 0-.14-.453q-.094-.172-.22-.172-.202 0-.375.266-.171.25-.296.61a6 6 0 0 0-.204.687q-.062.343-.062.5v.093q0 .75.094 1.47.093.718.093 1.468 0 .437-.28.812-.282.36-.782.36a.76.76 0 0 1-.594-.266 2.4 2.4 0 0 1-.39-.719 6 6 0 0 1-.25-.953 12 12 0 0 1-.11-1.031q-.03-.516-.047-.922v-.625q0-.234-.015-.687 0-.453.015-.985.031-.53.094-1.078.063-.562.203-1.016.141-.452.36-.734a.73.73 0 0 1 .593-.297q.407 0 .657.219.265.22.265.656 0 .094-.015.188a1 1 0 0 1-.016.172 3.6 3.6 0 0 1 .422-.5q.249-.266.531-.47.297-.218.625-.343.329-.14.656-.14a.97.97 0 0 1 .563.171q.25.172.437.438.188.25.313.547.124.297.172.562.156-.281.375-.562.233-.297.5-.516.266-.219.578-.36.327-.14.672-.14.328 0 .562.234t.406.61q.173.36.266.828.095.453.156.906.063.438.078.828.015.375.016.594m7.672 2.953q0 .281-.031.735-.016.453-.125.89a2.1 2.1 0 0 1-.344.735q-.234.312-.656.312-.579 0-.891-.375t-.297-.937q-.5.437-1.14.687a3.4 3.4 0 0 1-1.282.25q-.453 0-.86-.219a2.7 2.7 0 0 1-.718-.562 2.9 2.9 0 0 1-.5-.766 2.2 2.2 0 0 1-.187-.86q0-.75.453-1.312a4.3 4.3 0 0 1 1.14-.953q.672-.406 1.422-.64a8.5 8.5 0 0 1 1.36-.313v-.14a.6.6 0 0 0 .015-.141q0-.485-.265-.781-.267-.297-.75-.297-.39 0-.672.14a3.3 3.3 0 0 0-.532.297q-.25.156-.5.297a1.24 1.24 0 0 1-.562.125.87.87 0 0 1-.594-.219.74.74 0 0 1-.234-.562q0-.516.297-.938.312-.42.765-.703a4 4 0 0 1 1-.453 3.4 3.4 0 0 1 1-.172q.423 0 .844.11.422.093.797.312.375.203.672.516.312.297.5.703.28.578.453 1.234.172.64.266 1.328.093.672.125 1.36.03.672.03 1.312m-2.5-.5-.047-1.062h-.062a.14.14 0 0 0-.063-.016q-.203 0-.516.11-.296.093-.578.28a2.3 2.3 0 0 0-.484.391.7.7 0 0 0-.188.453q0 .219.157.297a.8.8 0 0 0 .359.078q.344 0 .734-.171.39-.187.688-.36m6.016-8.203a.65.65 0 0 1-.125.39 1.2 1.2 0 0 1-.297.313 2 2 0 0 1-.407.203 1.5 1.5 0 0 1-.406.063.96.96 0 0 1-.547-.156q-.234-.157-.234-.485a.74.74 0 0 1 .11-.406q.124-.187.296-.297.172-.125.39-.187.22-.063.423-.063.296 0 .547.14.25.141.25.485m.125 5.313v.468q0 .235-.016.453-.015.266-.016.72 0 .436-.031.952-.03.516-.11 1.047a4.4 4.4 0 0 1-.218.969 2 2 0 0 1-.422.719.9.9 0 0 1-.64.281.58.58 0 0 1-.5-.234 2.2 2.2 0 0 1-.344-.641 5.4 5.4 0 0 1-.188-.89 17 17 0 0 1-.094-.954q-.03-.468-.03-.86v-1.28q0-.47.03-1 .032-.532.11-1.079.093-.546.25-1 .171-.452.437-.734a.9.9 0 0 1 .672-.281q.422 0 .64.422.22.422.329.984t.125 1.125q.015.548.016.813m5.687-3q0 .453-.312.671a6 6 0 0 1-.672.422q-.376.188-.688.453-.297.267-.297.797 0 .282.125.485.14.203.328.375.204.156.438.328t.422.39q.202.219.328.532.14.312.14.765 0 .657-.343 1.297a4.3 4.3 0 0 1-.86 1.125 4.3 4.3 0 0 1-1.171.781q-.657.297-1.297.297-.267 0-.532-.047a1.5 1.5 0 0 1-.484-.14 1.05 1.05 0 0 1-.344-.297.9.9 0 0 1-.14-.516q0-.437.172-.672.171-.249.437-.39t.563-.219q.312-.078.578-.187.265-.126.437-.313t.172-.531q0-.328-.266-.672-.25-.36-.562-.75a8 8 0 0 1-.578-.86 2.04 2.04 0 0 1-.25-1q0-.671.265-1.234.282-.578.735-1a3.5 3.5 0 0 1 1.062-.656q.594-.25 1.25-.25.25 0 .485.047.25.046.437.172a.8.8 0 0 1 .297.312.86.86 0 0 1 .125.485m6.969-2.313a.65.65 0 0 1-.125.39 1.2 1.2 0 0 1-.297.313q-.187.126-.406.203a1.5 1.5 0 0 1-.407.063.96.96 0 0 1-.547-.156q-.234-.157-.234-.485a.74.74 0 0 1 .11-.406q.125-.187.296-.297.172-.125.391-.187.22-.063.422-.063.297 0 .547.14t.25.485m.125 5.313v.468q0 .235-.016.453-.016.266-.016.72 0 .436-.03.952-.033.516-.11 1.047a4.4 4.4 0 0 1-.219.969 2 2 0 0 1-.422.719.9.9 0 0 1-.64.281.58.58 0 0 1-.5-.234 2.2 2.2 0 0 1-.344-.641 5.4 5.4 0 0 1-.188-.89 17 17 0 0 1-.093-.954q-.032-.468-.032-.86v-1.28q0-.47.032-1 .03-.532.109-1.079a6.4 6.4 0 0 1 .25-1q.172-.452.438-.734a.88.88 0 0 1 .671-.281q.422 0 .641.422t.328.984.125 1.125q.016.548.016.813m6.531-.25q-.218.015-.375-.032l-.312-.125a3 3 0 0 0-.282-.109.6.6 0 0 0-.312-.047 1.15 1.15 0 0 0-.563.172 2.2 2.2 0 0 0-.437.39 2.7 2.7 0 0 0-.328.532 3 3 0 0 0-.22.562 4 4 0 0 0-.077.578q-.016.375-.016.813-.016.453-.016.86t-.03.64q-.016.25-.079.594a2.6 2.6 0 0 1-.203.625 1.4 1.4 0 0 1-.344.5.8.8 0 0 1-.562.203.75.75 0 0 1-.469-.156 1.4 1.4 0 0 1-.328-.407 4 4 0 0 1-.219-.609 8 8 0 0 1-.125-.703q-.047-.375-.078-.75-.015-.376-.031-.703v-.625q.015-.282.015-.453-.014-.548-.062-1.094-.031-.562-.031-1.11 0-.343.03-.765.032-.422.173-.781.14-.375.406-.625.282-.25.766-.25.266 0 .453.171.188.173.297.422.124.25.187.532.063.28.078.515.375-.609.844-.984.47-.39 1.219-.422.375-.015.734.078.375.078.672.281.312.188.5.5.203.313.219.735.03.5-.297.765-.329.266-.797.282m6.75 0q-.218.015-.375-.032l-.312-.125a3 3 0 0 0-.282-.109.6.6 0 0 0-.312-.047 1.15 1.15 0 0 0-.563.172 2.2 2.2 0 0 0-.437.39 2.7 2.7 0 0 0-.328.532 3 3 0 0 0-.22.562 4 4 0 0 0-.077.578q-.016.375-.016.813-.016.453-.016.86t-.03.64q-.016.25-.079.594a2.6 2.6 0 0 1-.203.625 1.4 1.4 0 0 1-.344.5.8.8 0 0 1-.562.203.75.75 0 0 1-.469-.156 1.4 1.4 0 0 1-.328-.407 4 4 0 0 1-.219-.609 8 8 0 0 1-.125-.703q-.047-.375-.078-.75-.015-.376-.031-.703v-.625q.015-.282.015-.453-.014-.548-.062-1.094-.031-.562-.031-1.11 0-.343.03-.765.032-.422.173-.781.14-.375.406-.625.282-.25.766-.25.266 0 .453.171.188.173.297.422.124.25.187.532.063.28.078.515.375-.609.844-.984.47-.39 1.219-.422.375-.015.734.078.375.078.672.281.312.188.5.5.203.313.219.735.03.5-.297.765-.329.266-.797.282m3.906-5.063a.65.65 0 0 1-.125.39 1.2 1.2 0 0 1-.297.313q-.187.126-.406.203a1.5 1.5 0 0 1-.406.063.96.96 0 0 1-.547-.156q-.234-.157-.234-.485a.74.74 0 0 1 .109-.406q.125-.187.297-.297.172-.125.39-.187.22-.063.422-.063.297 0 .547.14t.25.485m.125 5.313v.468q0 .235-.015.453-.016.266-.016.72 0 .436-.031.952-.032.516-.11 1.047a4.4 4.4 0 0 1-.218.969 2 2 0 0 1-.422.719.9.9 0 0 1-.64.281.58.58 0 0 1-.5-.234 2.2 2.2 0 0 1-.345-.641 5.4 5.4 0 0 1-.187-.89 17 17 0 0 1-.094-.954q-.03-.468-.031-.86v-1.28q0-.47.031-1 .031-.532.11-1.079a6.4 6.4 0 0 1 .25-1q.171-.452.437-.734a.88.88 0 0 1 .672-.281q.422 0 .64.422.22.422.329.984t.125 1.125q.015.548.015.813m4.75 6.156q-1.11 0-1.734-.297a2 2 0 0 1-.922-.812q-.297-.532-.36-1.282-.062-.75-.062-1.672 0-.735.047-1.468.047-.75.14-1.594-.218 0-.343.015h-.203a1.6 1.6 0 0 1-.86-.218q-.375-.219-.375-.672 0-.282.22-.5.203-.219.53-.375.329-.157.703-.25.39-.094.735-.125 0-.438.062-.969.063-.531.22-.984.171-.469.452-.782a.92.92 0 0 1 .719-.312q.25 0 .438.156.202.141.328.375.124.22.187.5.063.282.063.547 0 .313-.047.64-.048.33-.172.813a4 4 0 0 1 .36-.031q.093-.015.171-.016.266 0 .547.047.297.047.531.156.25.11.406.297a.6.6 0 0 1 .157.422.67.67 0 0 1-.235.5q-.218.219-.562.375t-.735.25q-.39.078-.734.11-.094.64-.14 1.187-.031.532-.079 1.078l-.062.547a9 9 0 0 0 0 1.031q.015.266.11.516.092.25.296.438.203.171.563.171.218 0 .453-.03a2.4 2.4 0 0 1 .468-.048q.406 0 .579.281.187.282.187.72a.9.9 0 0 1-.203.577 1.35 1.35 0 0 1-.484.375 2.6 2.6 0 0 1-.672.235q-.36.078-.688.078m9-2.766q0 .281-.031.735-.015.453-.125.89a2.1 2.1 0 0 1-.344.735q-.234.312-.656.312-.578 0-.89-.375-.314-.375-.297-.937-.5.437-1.141.687a3.4 3.4 0 0 1-1.281.25q-.453 0-.86-.219a2.7 2.7 0 0 1-.719-.562 2.9 2.9 0 0 1-.5-.766 2.2 2.2 0 0 1-.187-.86q0-.75.453-1.312a4.3 4.3 0 0 1 1.14-.953 6.5 6.5 0 0 1 1.423-.64q.765-.234 1.359-.313v-.14a.6.6 0 0 0 .016-.141q0-.485-.266-.781t-.75-.297q-.39 0-.672.14a3.3 3.3 0 0 0-.531.297q-.25.156-.5.297a1.24 1.24 0 0 1-.563.125.87.87 0 0 1-.593-.219.74.74 0 0 1-.235-.562q0-.516.297-.938.313-.42.766-.703a4 4 0 0 1 1-.453 3.4 3.4 0 0 1 1-.172q.422 0 .843.11.422.093.797.312.375.203.672.516.313.297.5.703.282.578.453 1.234.172.64.266 1.328.094.672.125 1.36.03.672.031 1.312m-2.5-.5-.047-1.062h-.062a.14.14 0 0 0-.063-.016q-.203 0-.515.11-.296.093-.578.28a2.3 2.3 0 0 0-.485.391.7.7 0 0 0-.187.453q0 .219.156.297a.8.8 0 0 0 .36.078q.343 0 .734-.171.39-.187.687-.36m10.172-7.578q0 1.14-.094 2.266-.078 1.125-.078 2.265 0 .922.047 1.828.063.907.063 1.829 0 .25-.016.609-.016.344-.109.672a1.3 1.3 0 0 1-.282.562q-.187.235-.547.235-.468 0-.781-.344a1.7 1.7 0 0 1-.375-.797 2.7 2.7 0 0 1-.859.953q-.562.39-1.219.39a1.72 1.72 0 0 1-1.219-.484 4.3 4.3 0 0 1-.843-1.171 7 7 0 0 1-.5-1.438 6.5 6.5 0 0 1-.157-1.297 9.7 9.7 0 0 1 .203-1.906q.126-.516.313-1 .187-.5.469-.89.297-.392.687-.626.406-.234.922-.234.562 0 1.078.328t.781.813l.141-2.485q.016-.297.047-.687.031-.406.125-.766.11-.36.328-.61t.641-.25q.453 0 .703.22.25.218.359.562.125.328.141.719.031.39.031.734m-2.547 6.938q0-.36-.015-.704a8 8 0 0 1 0-.703 9 9 0 0 0-.219-.437 2 2 0 0 0-.313-.453 1.6 1.6 0 0 0-.39-.36.85.85 0 0 0-.469-.14.6.6 0 0 0-.453.172 1 1 0 0 0-.25.421 2.5 2.5 0 0 0-.11.516q-.015.283-.015.484 0 .188.031.563.031.36.11.734.093.376.25.657.156.28.421.28.204 0 .407-.077.203-.095.375-.219.187-.141.343-.297a7 7 0 0 0 .297-.312zm6.547 3.796q-.797 0-1.391-.421a3.7 3.7 0 0 1-1-1.079 5.2 5.2 0 0 1-.609-1.453 6.6 6.6 0 0 1-.203-1.593q0-.829.203-1.704.204-.89.625-1.609.422-.735 1.078-1.187.657-.47 1.563-.47.875 0 1.484.485.625.47 1 1.188.375.702.531 1.547.157.843.11 1.593a8.6 8.6 0 0 1-.266 1.672 5.3 5.3 0 0 1-.609 1.516 3.5 3.5 0 0 1-1.032 1.094q-.624.42-1.484.421m.156-7.062q-.234 0-.422.25-.171.25-.296.61a5.4 5.4 0 0 0-.172.765q-.063.39-.063.688 0 .375.063.812.078.438.203.813.124.36.297.609.187.234.422.234.25 0 .421-.234.188-.234.297-.594.11-.36.157-.781.046-.438.046-.813 0-.343-.062-.75a4.3 4.3 0 0 0-.188-.78 1.7 1.7 0 0 0-.296-.595q-.172-.234-.407-.234m10.766 7.063q-.797 0-1.391-.422a3.7 3.7 0 0 1-1-1.079 5.2 5.2 0 0 1-.609-1.453 6.6 6.6 0 0 1-.203-1.593q0-.829.203-1.704.203-.89.625-1.609.422-.735 1.078-1.187.656-.47 1.563-.47.875 0 1.484.485.625.47 1 1.188.375.702.531 1.547.156.843.11 1.593a8.6 8.6 0 0 1-.266 1.672 5.3 5.3 0 0 1-.609 1.516 3.5 3.5 0 0 1-1.032 1.094q-.624.42-1.484.421m.156-7.063q-.234 0-.422.25-.171.25-.297.61-.109.359-.171.765-.063.39-.063.688 0 .375.063.812.078.438.203.813.124.36.297.609.187.234.421.234.25 0 .422-.234.188-.234.297-.594.11-.36.156-.781.047-.438.047-.813 0-.343-.062-.75a4.3 4.3 0 0 0-.188-.78 1.8 1.8 0 0 0-.297-.595q-.171-.234-.406-.234m10.875 2.14a8.5 8.5 0 0 1-.172 1.704 4.7 4.7 0 0 1-.578 1.515 3.14 3.14 0 0 1-1.094 1.063q-.671.406-1.687.406-1 0-1.672-.39a3.2 3.2 0 0 1-1.078-1.063 4.8 4.8 0 0 1-.563-1.484 9 9 0 0 1-.156-1.688q0-.937.219-1.86.047-.249.172-.687.14-.453.344-.875.218-.436.484-.75.281-.312.609-.312.313 0 .5.172.188.171.297.437.11.251.141.547.031.282.031.516 0 .36-.062.703-.047.343-.11.687l-.125.938a9.5 9.5 0 0 0-.031 1.468q.031.282.125.547.093.266.266.453.171.172.484.172.406 0 .641-.218.25-.22.359-.547a2.6 2.6 0 0 0 .156-.703q.031-.375.031-.688 0-.687-.093-1.344-.094-.671-.172-1.359a1.5 1.5 0 0 1 .062-.687q.078-.235.219-.422.14-.187.344-.297a.85.85 0 0 1 .453-.125q.344 0 .609.25.266.234.438.625.188.374.297.86.125.468.187.937.079.453.094.859.031.406.031.64m10.516-1.53q0 .077-.016.171a1 1 0 0 1-.047.156 1.5 1.5 0 0 1-.437.61 1.1 1.1 0 0 1-.703.234q-.61 0-.828-.61a.5.5 0 0 1-.032-.171q0-.11-.015-.219v-.453a.9.9 0 0 0-.11-.344q-.078-.125-.265-.125-.266 0-.516.344a3.8 3.8 0 0 0-.422.797 7 7 0 0 0-.281.938 3.7 3.7 0 0 0-.109.78q0 .235.031.579.031.328.125.64.094.313.25.547.171.22.437.22a.8.8 0 0 0 .485-.157 4 4 0 0 0 .453-.39q.203-.189.437-.391a.87.87 0 0 1 .563-.204q.39 0 .609.282a.98.98 0 0 1 .235.64q0 .532-.282 1a3.2 3.2 0 0 1-.703.797q-.422.328-.937.516a2.7 2.7 0 0 1-.985.203q-.843 0-1.437-.422a3.3 3.3 0 0 1-.938-1.062 5 5 0 0 1-.515-1.422 7.3 7.3 0 0 1-.157-1.453q0-.798.219-1.72.219-.936.672-1.734a4.3 4.3 0 0 1 1.156-1.328q.72-.53 1.703-.53.61 0 1.047.265.453.265.735.703.296.422.437.953.156.531.156 1.047v.156a1 1 0 0 1-.015.156m3.844 6.452q-.798 0-1.391-.421a3.7 3.7 0 0 1-1-1.079 5.2 5.2 0 0 1-.609-1.453 6.5 6.5 0 0 1-.204-1.593q0-.829.204-1.704.202-.89.625-1.609.421-.735 1.078-1.187.656-.47 1.562-.47.875 0 1.485.485.625.47 1 1.188.375.702.531 1.547a6.5 6.5 0 0 1 .109 1.593 8.6 8.6 0 0 1-.265 1.672 5.3 5.3 0 0 1-.61 1.516 3.5 3.5 0 0 1-1.031 1.094q-.625.42-1.484.421m.156-7.062q-.234 0-.422.25-.172.25-.297.61-.11.359-.172.765-.062.39-.062.688 0 .375.062.812.078.438.203.813.126.36.297.609.188.234.422.234.25 0 .422-.234.188-.234.297-.594.11-.36.156-.781a8 8 0 0 0 .047-.813q0-.343-.063-.75a4.3 4.3 0 0 0-.187-.78 1.8 1.8 0 0 0-.297-.595q-.172-.234-.406-.234m13.515 1.453v.813q0 .5-.031 1.093-.015.594-.094 1.203a5.3 5.3 0 0 1-.25 1.079 2.5 2.5 0 0 1-.406.796.78.78 0 0 1-.64.313.6.6 0 0 1-.532-.281 2.3 2.3 0 0 1-.25-.688 5 5 0 0 1-.093-.797v-.64q0-.703.046-1.375.048-.672.047-1.375v-.282q0-.202-.031-.406a1.2 1.2 0 0 0-.109-.36q-.063-.155-.203-.155-.282 0-.454.296a2.7 2.7 0 0 0-.281.672q-.11.39-.156.782-.047.375-.063.562-.03.204-.062.61-.015.405-.063.89a9 9 0 0 1-.125 1q-.078.5-.218.922-.126.406-.328.672-.203.265-.5.265a.65.65 0 0 1-.579-.328 2.4 2.4 0 0 1-.296-.765 6 6 0 0 1-.125-.89 20 20 0 0 1-.016-.704v-.516a9 9 0 0 0 .016-.515v-.36q0-.25-.016-.547 0-.312-.031-.64a5 5 0 0 0-.063-.594 1.5 1.5 0 0 0-.14-.453q-.094-.172-.219-.172-.204 0-.375.266-.173.25-.297.61-.125.342-.203.687-.063.343-.063.5v.093q0 .75.094 1.47.094.718.094 1.468 0 .437-.281.812-.281.36-.782.36a.76.76 0 0 1-.593-.266 2.3 2.3 0 0 1-.391-.719 6 6 0 0 1-.25-.953 12 12 0 0 1-.109-1.031 39 39 0 0 1-.047-.922v-.625q0-.234-.016-.687 0-.453.016-.985.031-.53.093-1.078.063-.562.204-1.016a2.3 2.3 0 0 1 .359-.734.73.73 0 0 1 .594-.297q.406 0 .656.219.266.22.266.656 0 .094-.016.188 0 .093-.016.172.173-.25.422-.5.25-.266.531-.47.298-.218.625-.343.328-.14.657-.14.312 0 .562.171t.438.438q.188.25.312.547.126.297.172.562.156-.281.375-.562.234-.297.5-.516t.578-.36q.328-.14.672-.14.328 0 .563.234t.406.61q.172.36.265.828.094.453.157.906.061.438.078.828.015.375.015.594m9.375-3.437q0 .453-.312.671a6 6 0 0 1-.672.422q-.375.188-.687.453-.297.267-.297.797a.9.9 0 0 0 .125.485q.14.203.328.375.203.156.437.328.235.172.422.39.204.219.328.532.141.312.141.765 0 .657-.344 1.297a4.28 4.28 0 0 1-2.031 1.906q-.657.297-1.297.297-.266 0-.531-.047a1.5 1.5 0 0 1-.485-.14 1.04 1.04 0 0 1-.343-.297.9.9 0 0 1-.141-.516q0-.437.172-.672.172-.249.437-.39.267-.141.563-.219.312-.078.578-.187a1.4 1.4 0 0 0 .438-.313q.171-.187.171-.531 0-.328-.265-.672a14 14 0 0 0-.563-.75 8 8 0 0 1-.578-.86 2.04 2.04 0 0 1-.25-1q0-.671.266-1.234.28-.578.734-1 .47-.422 1.063-.656.593-.25 1.25-.25.25 0 .484.047.25.046.438.172a.77.77 0 0 1 .296.312.85.85 0 0 1 .125.485m3.594 9.046q-.797 0-1.39-.421a3.7 3.7 0 0 1-1-1.079 5.2 5.2 0 0 1-.61-1.453 6.6 6.6 0 0 1-.203-1.593q0-.829.203-1.704.204-.89.625-1.609.422-.735 1.078-1.187.657-.47 1.563-.47.875 0 1.484.485.625.47 1 1.188.375.702.531 1.547.157.843.11 1.593a8.6 8.6 0 0 1-.266 1.672 5.3 5.3 0 0 1-.609 1.516 3.5 3.5 0 0 1-1.031 1.094q-.626.42-1.485.421m.156-7.062q-.234 0-.421.25-.173.25-.297.61-.11.359-.172.765-.063.39-.063.688 0 .375.063.812.078.438.203.813.125.36.297.609.187.234.422.234.25 0 .422-.234.188-.234.296-.594.11-.36.157-.781a8 8 0 0 0 .047-.813q0-.343-.063-.75a4.4 4.4 0 0 0-.187-.78 1.8 1.8 0 0 0-.297-.595q-.172-.234-.407-.234m8.469 7.047q-.265 0-.422-.25a1.7 1.7 0 0 1-.234-.547 4 4 0 0 1-.109-.625 11 11 0 0 1-.016-.5q0-.468.047-.937l.125-.938q.078-.468.125-.937a7 7 0 0 0 .062-.938q0-.187-.015-.406a1.7 1.7 0 0 0-.078-.407.67.67 0 0 0-.172-.328.45.45 0 0 0-.328-.125q-.14 0-.313.235a3.4 3.4 0 0 0-.328.515q-.14.282-.25.578a1.5 1.5 0 0 0-.094.422v.703q.016.345.016.704v.906q-.016.28-.047.578a5 5 0 0 1-.094.578q-.047.282-.14.547a1.8 1.8 0 0 1-.25.453q-.141.188-.344.313a.9.9 0 0 1-.485.125.7.7 0 0 1-.515-.204 1.5 1.5 0 0 1-.328-.515 3.6 3.6 0 0 1-.188-.719 26 26 0 0 1-.078-.781q-.015-.39-.016-.703.016-.328.016-.516v-.734q0-.594-.031-1.172-.016-.579-.016-1.156v-.797q.016-.485.125-.938a2.1 2.1 0 0 1 .36-.797q.25-.328.734-.328.219 0 .391.14.171.143.296.345.141.202.219.437.094.235.141.406.156-.218.359-.422.22-.203.485-.359a2.55 2.55 0 0 1 1.343-.344q.798 0 1.235.391.453.375.656.953.218.562.266 1.219.046.656.046 1.187 0 .266-.046.797-.048.517-.157 1.156-.094.626-.265 1.297-.172.657-.407 1.203a3 3 0 0 1-.562.891q-.312.345-.719.344m6 .015q-.797 0-1.39-.421a3.7 3.7 0 0 1-1-1.079 5.2 5.2 0 0 1-.61-1.453 6.6 6.6 0 0 1-.203-1.593q0-.829.203-1.704.204-.89.625-1.609.422-.735 1.078-1.187.657-.47 1.563-.47.875 0 1.484.485.625.47 1 1.188.375.702.531 1.547.157.843.11 1.593a8.6 8.6 0 0 1-.266 1.672 5.3 5.3 0 0 1-.609 1.516 3.5 3.5 0 0 1-1.031 1.094q-.626.42-1.485.421m.156-7.062q-.234 0-.421.25-.173.25-.297.61-.11.359-.172.765-.063.39-.063.688 0 .375.063.812.078.438.203.813.125.36.297.609.187.234.422.234.25 0 .422-.234.188-.234.296-.594.11-.36.157-.781a8 8 0 0 0 .047-.813q0-.343-.063-.75a4.4 4.4 0 0 0-.187-.78 1.8 1.8 0 0 0-.297-.595q-.172-.234-.407-.234m6.282 5.781q0 .25-.141.64-.125.391-.328.766-.187.375-.438.641-.25.266-.484.266-.312 0-.312-.313a.9.9 0 0 1 .078-.36q.078-.17.172-.343a3 3 0 0 0 .171-.328.7.7 0 0 0 .079-.312.9.9 0 0 1-.5.156.79.79 0 0 1-.61-.282.92.92 0 0 1-.25-.625q0-.5.328-.796.328-.313.828-.313.563 0 .985.297t.422.906m13.875-4.328v.813q0 .5-.032 1.093-.015.594-.093 1.203a5.3 5.3 0 0 1-.25 1.079q-.156.484-.407.796a.78.78 0 0 1-.64.313.6.6 0 0 1-.531-.281 2.2 2.2 0 0 1-.25-.688 5 5 0 0 1-.094-.797v-.64q0-.703.047-1.375t.047-1.375v-.282q0-.202-.032-.406a1.2 1.2 0 0 0-.109-.36q-.062-.155-.203-.155-.282 0-.453.296a2.7 2.7 0 0 0-.282.672q-.109.39-.156.782-.047.375-.062.562a9 9 0 0 0-.063.61q-.015.405-.062.89a9 9 0 0 1-.125 1q-.078.5-.219.922a2.1 2.1 0 0 1-.328.672q-.203.265-.5.265a.64.64 0 0 1-.578-.328 2.4 2.4 0 0 1-.297-.765 6 6 0 0 1-.125-.89 20 20 0 0 1-.016-.704v-.516q.016-.25.016-.515v-.36a10 10 0 0 0-.016-.547q0-.312-.031-.64a5 5 0 0 0-.063-.594 1.5 1.5 0 0 0-.14-.453q-.094-.172-.219-.172-.203 0-.375.266-.171.25-.297.61-.125.342-.203.687-.062.343-.062.5v.093q0 .75.093 1.47.094.718.094 1.468 0 .437-.281.812-.282.36-.781.36a.76.76 0 0 1-.594-.266 2.4 2.4 0 0 1-.391-.719 6 6 0 0 1-.25-.953 13 13 0 0 1-.109-1.031 39 39 0 0 1-.047-.922v-.625q0-.234-.016-.687 0-.453.016-.985.031-.53.094-1.078.062-.562.203-1.016.14-.452.359-.734a.73.73 0 0 1 .594-.297q.407 0 .656.219.266.22.266.656 0 .094-.016.188 0 .093-.015.172.171-.25.421-.5.25-.266.532-.47.297-.218.625-.343a1.65 1.65 0 0 1 .656-.14q.313 0 .562.171t.438.438q.188.25.312.547.126.297.172.562a5 5 0 0 1 .375-.562q.235-.297.5-.516.266-.219.578-.36.329-.14.672-.14.329 0 .563.234t.406.61q.172.36.266.828.093.453.156.906.063.438.078.828.016.375.016.594m7.672 2.953q0 .281-.032.735-.015.453-.125.89a2.1 2.1 0 0 1-.343.735q-.235.312-.657.312-.578 0-.89-.375-.314-.375-.297-.937a3.8 3.8 0 0 1-1.141.687q-.625.25-1.281.25-.453 0-.859-.219a2.7 2.7 0 0 1-.719-.562 2.9 2.9 0 0 1-.5-.766 2.2 2.2 0 0 1-.188-.86q0-.75.453-1.312a4.3 4.3 0 0 1 1.141-.953q.672-.406 1.422-.64.766-.234 1.359-.313v-.14a.6.6 0 0 0 .016-.141q0-.485-.266-.781-.265-.297-.75-.297-.39 0-.672.14a3.3 3.3 0 0 0-.531.297q-.25.156-.5.297a1.24 1.24 0 0 1-.562.125.87.87 0 0 1-.594-.219.74.74 0 0 1-.234-.562q0-.516.296-.938.313-.42.766-.703a4 4 0 0 1 1-.453 3.4 3.4 0 0 1 1-.172q.422 0 .844.11.422.093.797.312.375.203.672.516.312.297.5.703.28.578.453 1.234.172.64.265 1.328.095.672.125 1.36.032.672.032 1.312m-2.5-.5-.047-1.062h-.063a.14.14 0 0 0-.062-.016q-.204 0-.516.11a2.3 2.3 0 0 0-.578.28 2.3 2.3 0 0 0-.484.391.7.7 0 0 0-.188.453q0 .219.156.297a.8.8 0 0 0 .36.078q.344 0 .734-.171.391-.187.688-.36m8.015-5.89q0 .453-.312.671a6 6 0 0 1-.672.422q-.375.188-.688.453-.297.267-.297.797 0 .282.125.485.141.203.329.375.203.156.437.328t.422.39q.203.219.328.532.141.312.141.765 0 .657-.344 1.297a4.28 4.28 0 0 1-2.031 1.906q-.657.297-1.297.297-.265 0-.531-.047a1.5 1.5 0 0 1-.485-.14 1.05 1.05 0 0 1-.344-.297.9.9 0 0 1-.14-.516q0-.437.172-.672.171-.249.437-.39t.563-.219q.312-.078.578-.187.266-.126.437-.313.172-.187.172-.531 0-.328-.265-.672-.25-.36-.563-.75a8 8 0 0 1-.578-.86 2.03 2.03 0 0 1-.25-1q0-.671.266-1.234.28-.578.734-1 .469-.422 1.062-.656a3.2 3.2 0 0 1 1.25-.25q.25 0 .485.047.25.046.437.172a.8.8 0 0 1 .297.312.85.85 0 0 1 .125.485m6.969-2.313a.65.65 0 0 1-.125.39 1.2 1.2 0 0 1-.297.313q-.187.126-.406.203a1.5 1.5 0 0 1-.406.063.96.96 0 0 1-.547-.156q-.235-.157-.235-.485a.74.74 0 0 1 .11-.406 1 1 0 0 1 .297-.297q.171-.125.39-.187.22-.063.422-.063.297 0 .547.14t.25.485m.125 5.313v.468q0 .235-.016.453-.015.266-.015.72 0 .436-.032.952-.03.516-.109 1.047a4.4 4.4 0 0 1-.219.969 2 2 0 0 1-.422.719.9.9 0 0 1-.64.281.58.58 0 0 1-.5-.234 2.2 2.2 0 0 1-.344-.641 5.3 5.3 0 0 1-.187-.89 17 17 0 0 1-.094-.954 13 13 0 0 1-.031-.86v-1.28q0-.47.031-1 .031-.532.109-1.079.094-.546.25-1a2.2 2.2 0 0 1 .438-.734.88.88 0 0 1 .672-.281q.421 0 .64.422t.328.984q.11.563.125 1.125.016.548.016.813m5.687-3q0 .453-.312.671a6 6 0 0 1-.672.422q-.375.188-.687.453-.297.267-.297.797a.9.9 0 0 0 .125.485q.14.203.328.375.203.156.437.328.235.172.422.39.204.219.328.532.141.312.141.765 0 .657-.344 1.297a4.28 4.28 0 0 1-2.031 1.906q-.657.297-1.297.297-.266 0-.531-.047a1.5 1.5 0 0 1-.485-.14 1.04 1.04 0 0 1-.343-.297.9.9 0 0 1-.141-.516q0-.437.172-.672.172-.249.437-.39.267-.141.563-.219.312-.078.578-.187a1.4 1.4 0 0 0 .438-.313q.171-.187.171-.531 0-.328-.265-.672a14 14 0 0 0-.563-.75 8 8 0 0 1-.578-.86 2.04 2.04 0 0 1-.25-1q0-.671.266-1.234.28-.578.734-1 .47-.422 1.063-.656.593-.25 1.25-.25.25 0 .484.047.25.046.438.172a.77.77 0 0 1 .296.312.85.85 0 0 1 .125.485m5.204 0q0 .453-.313.671a6 6 0 0 1-.672.422q-.375.188-.687.453-.297.267-.297.797 0 .282.125.485.14.203.328.375.203.156.437.328.235.172.422.39.204.219.328.532.141.312.141.765 0 .657-.344 1.297a4.2 4.2 0 0 1-.859 1.125 4.3 4.3 0 0 1-1.172.781q-.656.297-1.297.297-.266 0-.531-.047a1.5 1.5 0 0 1-.484-.14 1.04 1.04 0 0 1-.344-.297.9.9 0 0 1-.141-.516q0-.437.172-.672.172-.249.438-.39.265-.141.562-.219.312-.078.578-.187a1.4 1.4 0 0 0 .438-.313q.172-.187.172-.531 0-.328-.266-.672a14 14 0 0 0-.563-.75 8 8 0 0 1-.578-.86 2.04 2.04 0 0 1-.25-1q0-.671.266-1.234.28-.578.734-1 .47-.422 1.063-.656.594-.25 1.25-.25.25 0 .484.047.25.046.438.172a.8.8 0 0 1 .297.312.86.86 0 0 1 .125.485m3.593 9.046q-.796 0-1.39-.421a3.7 3.7 0 0 1-1-1.079 5.2 5.2 0 0 1-.61-1.453 6.6 6.6 0 0 1-.203-1.593q0-.829.203-1.704.204-.89.625-1.609.423-.735 1.078-1.187.657-.47 1.563-.47.875 0 1.484.485.625.47 1 1.188.375.702.532 1.547a6.5 6.5 0 0 1 .109 1.593 8.6 8.6 0 0 1-.266 1.672 5.3 5.3 0 0 1-.609 1.516 3.5 3.5 0 0 1-1.031 1.094q-.626.42-1.485.421m.157-7.062q-.235 0-.422.25-.173.25-.297.61-.11.359-.172.765-.063.39-.063.688 0 .375.063.812.078.438.203.813.125.36.297.609.188.234.422.234.25 0 .422-.234.187-.234.297-.594t.156-.781a8 8 0 0 0 .047-.813q0-.343-.063-.75a4.3 4.3 0 0 0-.187-.78 1.8 1.8 0 0 0-.297-.595q-.172-.234-.406-.234M59.862 77.371q-.406 1.077-.89 2.25a21 21 0 0 1-1.047 2.187q-.345.626-.766 1.047-.421.405-.969.406-.437 0-.86-.437a6.6 6.6 0 0 1-.765-1.063q-.343-.624-.61-1.25a23 23 0 0 1-.374-1.015 39 39 0 0 0-.282-.907 15 15 0 0 1-.28-.984 12 12 0 0 1-.204-.984 6 6 0 0 1-.078-.938q0-.61.219-1t.86-.39q.25 0 .452.156.203.14.375.406.172.265.328.625.157.344.297.766.14.406.266.843.124.438.25.844.124.406.25.797.14.375.36.75l.25-.64.296-.766q.172-.406.36-.828.187-.438.406-.844a8.3 8.3 0 0 1 .89-1.438q.484-.593.954-.593.437 0 .625.265.187.266.187.688t-.14.953-.36 1.094m7.687 3.39q0 .282-.03.735a4.3 4.3 0 0 1-.126.89 2.1 2.1 0 0 1-.344.735q-.234.312-.656.312-.578 0-.89-.375-.314-.375-.297-.937-.501.436-1.14.687a3.4 3.4 0 0 1-1.282.25q-.453 0-.86-.219a2.7 2.7 0 0 1-.718-.562 2.9 2.9 0 0 1-.5-.766 2.2 2.2 0 0 1-.188-.86q0-.75.453-1.312a4.3 4.3 0 0 1 1.141-.953q.672-.405 1.422-.64.765-.234 1.36-.313v-.14a.6.6 0 0 0 .015-.141q0-.485-.266-.781t-.75-.297q-.39 0-.672.14a3.3 3.3 0 0 0-.53.297q-.252.156-.5.297a1.24 1.24 0 0 1-.563.125.87.87 0 0 1-.594-.219.74.74 0 0 1-.234-.562q0-.516.296-.938.313-.42.766-.703a4 4 0 0 1 1-.453 3.4 3.4 0 0 1 1-.172q.421 0 .844.11.422.093.797.312.375.203.671.516.313.297.5.703.282.578.454 1.234.172.64.265 1.328.094.672.125 1.36.031.672.031 1.312m-2.5-.5-.046-1.062h-.063a.14.14 0 0 0-.062-.016q-.204 0-.516.11-.296.094-.578.28a2.3 2.3 0 0 0-.484.391.7.7 0 0 0-.188.454q0 .218.156.296a.8.8 0 0 0 .36.079q.344 0 .734-.172.39-.187.688-.36m8.86-3.14q-.219.016-.375-.032l-.313-.125a3 3 0 0 0-.28-.109.6.6 0 0 0-.313-.047 1.15 1.15 0 0 0-.563.172 2.2 2.2 0 0 0-.437.39 2.7 2.7 0 0 0-.329.532 3 3 0 0 0-.218.562 4 4 0 0 0-.078.579q-.016.374-.016.812-.016.453-.016.86 0 .405-.03.64-.016.25-.079.594-.063.328-.203.625a1.4 1.4 0 0 1-.344.5.8.8 0 0 1-.562.203.75.75 0 0 1-.47-.156 1.4 1.4 0 0 1-.327-.407 4 4 0 0 1-.219-.609 8 8 0 0 1-.125-.703q-.047-.375-.078-.75l-.031-.703v-.625q.015-.282.015-.453a19 19 0 0 0-.062-1.094q-.032-.563-.032-1.11 0-.343.032-.765.03-.422.172-.781.14-.376.406-.625.281-.25.765-.25.267 0 .454.172.188.171.296.421.126.25.188.532.063.28.078.515.375-.609.844-.984.468-.39 1.219-.422.374-.015.734.078.375.078.672.281.312.188.5.5.203.313.219.735.03.5-.297.765-.329.266-.797.282m3.906-5.063a.65.65 0 0 1-.125.39 1.2 1.2 0 0 1-.297.313 2 2 0 0 1-.406.203 1.5 1.5 0 0 1-.406.063.96.96 0 0 1-.547-.156q-.235-.157-.235-.485a.74.74 0 0 1 .11-.406q.124-.188.297-.297.172-.125.39-.187.22-.063.422-.063.297 0 .547.14.25.142.25.485m.125 5.313v.468q0 .235-.016.454-.015.265-.015.718 0 .438-.031.953-.032.516-.11 1.047a4.4 4.4 0 0 1-.219.969 2 2 0 0 1-.421.719.9.9 0 0 1-.641.281.58.58 0 0 1-.5-.234 2.2 2.2 0 0 1-.344-.641 5.4 5.4 0 0 1-.187-.89 17 17 0 0 1-.094-.954q-.03-.468-.031-.86v-1.28q0-.47.031-1 .03-.532.11-1.078a6.4 6.4 0 0 1 .25-1q.171-.454.437-.735a.88.88 0 0 1 .672-.281q.422 0 .64.422.22.422.328.984.11.563.125 1.125.016.547.016.813m7.75 3.39q0 .282-.031.735-.015.453-.125.89a2.1 2.1 0 0 1-.344.735q-.234.312-.656.312-.579 0-.89-.375-.314-.375-.298-.937-.5.436-1.14.687a3.4 3.4 0 0 1-1.282.25q-.453 0-.859-.219a2.7 2.7 0 0 1-.719-.562 2.9 2.9 0 0 1-.5-.766 2.2 2.2 0 0 1-.187-.86q0-.75.453-1.312a4.3 4.3 0 0 1 1.14-.953q.673-.405 1.422-.64.766-.234 1.36-.313v-.14a.6.6 0 0 0 .015-.141q0-.485-.265-.781-.266-.297-.75-.297-.39 0-.672.14a3.3 3.3 0 0 0-.531.297q-.25.156-.5.297a1.24 1.24 0 0 1-.563.125.87.87 0 0 1-.594-.219.74.74 0 0 1-.234-.562q0-.516.297-.938.313-.42.766-.703a4 4 0 0 1 1-.453 3.4 3.4 0 0 1 1-.172q.42 0 .843.11.422.093.797.312.375.203.672.516.313.297.5.703.282.578.453 1.234.172.64.266 1.328.093.672.125 1.36.03.672.031 1.312m-2.5-.5-.047-1.062h-.062a.14.14 0 0 0-.063-.016q-.203 0-.515.11-.297.094-.579.28a2.3 2.3 0 0 0-.484.391.7.7 0 0 0-.187.454q0 .218.156.296a.8.8 0 0 0 .36.079q.342 0 .734-.172.39-.187.687-.36m13.938-7.578q0 1.14-.094 2.266-.078 1.125-.078 2.265 0 .922.047 1.829.062.906.062 1.828 0 .25-.016.609a3 3 0 0 1-.109.672 1.3 1.3 0 0 1-.281.562q-.187.235-.547.235-.468 0-.781-.344a1.7 1.7 0 0 1-.375-.797 2.7 2.7 0 0 1-.86.953q-.562.39-1.218.39a1.72 1.72 0 0 1-1.22-.483 4.3 4.3 0 0 1-.843-1.172 7 7 0 0 1-.5-1.438 6.5 6.5 0 0 1-.156-1.297 9.7 9.7 0 0 1 .203-1.906q.125-.516.313-1 .186-.5.468-.89.297-.392.688-.626.406-.234.922-.234.562 0 1.078.328.515.328.781.813l.14-2.485q.017-.297.047-.687.032-.406.125-.766.11-.36.329-.61.218-.25.64-.25.454 0 .703.22.25.218.36.562.125.328.14.719.032.39.032.734m-2.547 6.938q0-.36-.016-.703-.015-.345 0-.704a9 9 0 0 0-.219-.437 2 2 0 0 0-.312-.453 1.6 1.6 0 0 0-.39-.36.85.85 0 0 0-.47-.14.6.6 0 0 0-.453.172 1 1 0 0 0-.25.422 2.5 2.5 0 0 0-.109.515q-.016.282-.016.484 0 .189.032.563.03.36.109.734.094.376.25.657.156.28.422.28.202 0 .406-.077.203-.094.375-.219.188-.141.344-.297.171-.172.297-.312zm10.125.562q0 .531-.344 1.047-.328.5-.844.906a5 5 0 0 1-1.078.64q-.578.235-1.062.235a2.77 2.77 0 0 1-1.485-.406 3.9 3.9 0 0 1-1.078-1.062 5.2 5.2 0 0 1-.672-1.407 5.6 5.6 0 0 1-.219-1.515q0-.781.22-1.672.218-.89.655-1.64.455-.751 1.125-1.25.688-.5 1.625-.5.532 0 1.016.187a2.46 2.46 0 0 1 1.422 1.28q.219.454.219 1.017 0 .734-.313 1.374a3.6 3.6 0 0 1-.828 1.11 4.4 4.4 0 0 1-1.187.766 4 4 0 0 1-1.375.312q.062.453.359.656.312.203.734.203.313 0 .61-.156.296-.156.578-.344a7 7 0 0 1 .547-.359q.281-.156.562-.156a.87.87 0 0 1 .563.203q.25.203.25.531m-2.532-3.828a.94.94 0 0 0-.109-.422.36.36 0 0 0-.344-.219.9.9 0 0 0-.578.188 1.4 1.4 0 0 0-.39.453 2.6 2.6 0 0 0-.25.578 3 3 0 0 0-.094.578q.22-.047.515-.125a3 3 0 0 0 .579-.203 1.6 1.6 0 0 0 .468-.344.66.66 0 0 0 .203-.484m14.079 1.953q0 .688-.157 1.516a5.3 5.3 0 0 1-.5 1.515 3.4 3.4 0 0 1-.922 1.172q-.562.47-1.421.469-.219 0-.454-.031a2.2 2.2 0 0 1-.453-.11 1.6 1.6 0 0 1-.375-.203.9.9 0 0 1-.265-.36l-.141 2.25q-.016.36-.031.86 0 .5-.125.953a1.7 1.7 0 0 1-.391.766q-.265.328-.781.328-.297 0-.5-.312a2.5 2.5 0 0 1-.328-.766 9 9 0 0 1-.172-1.047 14 14 0 0 1-.078-1.11 31 31 0 0 1-.016-.968v-.64q0-1.048-.015-2.079a133 133 0 0 1-.016-2.093v-.579q0-.405.031-.875.031-.468.094-.968.078-.5.219-.907.14-.421.359-.671a.67.67 0 0 1 .531-.266q.204 0 .36.125a.86.86 0 0 1 .281.297q.125.172.203.375t.125.375q.485-.547 1.109-.828a3.35 3.35 0 0 1 1.36-.282q.75 0 1.219.422.484.422.75 1.047.28.626.39 1.344.11.703.11 1.281m-2.235-.125q0-.234-.047-.469a1.3 1.3 0 0 0-.14-.453.77.77 0 0 0-.282-.343.76.76 0 0 0-.468-.141q-.375 0-.797.25a1.75 1.75 0 0 0-.61.547q-.078.125-.093.406a8 8 0 0 0-.016.422v.297q.016.171.031.36l.032.359q.03.172.078.265a.6.6 0 0 0 .203.266q.156.109.344.203t.375.14q.203.047.343.047a.65.65 0 0 0 .532-.25 1.8 1.8 0 0 0 .312-.593q.125-.345.156-.703.047-.376.047-.61m9.735 2q0 .531-.344 1.047-.328.5-.844.906-.5.39-1.078.64-.578.235-1.063.235a2.76 2.76 0 0 1-1.484-.406 3.9 3.9 0 0 1-1.078-1.062 5.1 5.1 0 0 1-.672-1.407 5.6 5.6 0 0 1-.219-1.515q0-.781.219-1.672.22-.89.656-1.64.453-.751 1.125-1.25.688-.5 1.625-.5.532 0 1.016.187a2.46 2.46 0 0 1 1.422 1.28q.219.454.219 1.017a3.1 3.1 0 0 1-.313 1.374 3.6 3.6 0 0 1-.828 1.11 4.4 4.4 0 0 1-1.188.766 4 4 0 0 1-1.375.312q.063.453.36.656.312.203.734.203.313 0 .61-.156.296-.156.578-.344a7 7 0 0 1 .547-.359q.281-.156.562-.156.312 0 .563.203t.25.531m-2.532-3.828a.94.94 0 0 0-.109-.422.36.36 0 0 0-.344-.219.9.9 0 0 0-.578.188 1.4 1.4 0 0 0-.391.453q-.156.266-.25.578a3 3 0 0 0-.093.578q.218-.047.515-.125a3 3 0 0 0 .578-.203q.282-.14.469-.344a.66.66 0 0 0 .203-.484m7.735-1.984q0 .453-.313.672a6 6 0 0 1-.672.421q-.375.187-.687.454-.297.265-.297.796 0 .282.125.485.14.203.328.375.203.156.438.328t.421.39a1.7 1.7 0 0 1 .329.532q.14.312.14.765 0 .657-.344 1.297a4.2 4.2 0 0 1-.859 1.125 4.3 4.3 0 0 1-1.172.782q-.656.296-1.297.296-.266 0-.531-.046a1.5 1.5 0 0 1-.484-.141 1.04 1.04 0 0 1-.344-.297.9.9 0 0 1-.141-.516q0-.437.172-.671.172-.25.438-.391.265-.141.562-.219.313-.079.578-.187a1.4 1.4 0 0 0 .438-.313q.171-.187.172-.531 0-.329-.266-.672-.25-.36-.562-.75a8 8 0 0 1-.579-.86 2.04 2.04 0 0 1-.25-1q0-.671.266-1.234a3.4 3.4 0 0 1 .734-1q.47-.422 1.063-.656.594-.25 1.25-.25.25 0 .484.047.25.046.438.172a.8.8 0 0 1 .297.312.86.86 0 0 1 .125.485m5.203 0q0 .453-.313.672a6 6 0 0 1-.672.421q-.375.187-.687.454-.297.265-.297.796 0 .282.125.485.14.203.328.375.203.156.438.328t.422.39q.202.219.328.532.14.312.14.765 0 .657-.343 1.297a4.3 4.3 0 0 1-.86 1.125 4.3 4.3 0 0 1-1.172.782 3.1 3.1 0 0 1-1.297.296q-.266 0-.531-.046a1.5 1.5 0 0 1-.484-.141 1.04 1.04 0 0 1-.344-.297.9.9 0 0 1-.141-.516q0-.437.172-.671.173-.25.438-.391t.562-.219q.313-.079.578-.187a1.4 1.4 0 0 0 .438-.313q.172-.187.172-.531 0-.329-.266-.672a14 14 0 0 0-.562-.75 8 8 0 0 1-.578-.86 2.03 2.03 0 0 1-.25-1q0-.671.265-1.234.282-.577.735-1a3.5 3.5 0 0 1 1.062-.656 3.2 3.2 0 0 1 1.25-.25q.25 0 .484.047.25.046.438.172a.8.8 0 0 1 .297.312.86.86 0 0 1 .125.485m3.594 9.047q-.798 0-1.391-.422a3.7 3.7 0 0 1-1-1.078 5.2 5.2 0 0 1-.609-1.454 6.5 6.5 0 0 1-.204-1.593q0-.828.204-1.703.202-.89.625-1.61.421-.734 1.078-1.187.656-.47 1.562-.47.875 0 1.485.485.625.47 1 1.188.375.703.531 1.547a6.5 6.5 0 0 1 .109 1.593 8.6 8.6 0 0 1-.265 1.672 5.3 5.3 0 0 1-.61 1.516 3.5 3.5 0 0 1-1.031 1.094q-.625.421-1.484.422m.156-7.063q-.234 0-.422.25-.172.25-.297.61-.11.359-.172.765-.062.39-.062.688 0 .374.062.812.078.438.203.813.126.36.297.609.188.234.422.234.25 0 .422-.234.188-.234.297-.594.11-.36.156-.781a8 8 0 0 0 .047-.813q0-.343-.063-.75a4.3 4.3 0 0 0-.187-.78 1.8 1.8 0 0 0-.297-.595q-.172-.234-.406-.234m10.672 4.406q0 .282-.032.735-.015.453-.125.89a2.1 2.1 0 0 1-.343.735q-.235.312-.657.312-.578 0-.89-.375t-.297-.937a3.8 3.8 0 0 1-1.141.687q-.624.25-1.281.25-.453 0-.859-.219a2.7 2.7 0 0 1-.719-.562 2.9 2.9 0 0 1-.5-.766 2.2 2.2 0 0 1-.188-.86q0-.75.454-1.312a4.2 4.2 0 0 1 1.14-.953q.672-.405 1.422-.64.767-.234 1.359-.313v-.14a.6.6 0 0 0 .016-.141q0-.485-.266-.781t-.75-.297q-.39 0-.671.14a3.3 3.3 0 0 0-.532.297q-.25.156-.5.297a1.24 1.24 0 0 1-.562.125.87.87 0 0 1-.594-.219.74.74 0 0 1-.234-.562q0-.516.297-.938.312-.42.765-.703a4 4 0 0 1 1-.453 3.4 3.4 0 0 1 1-.172q.422 0 .844.11.422.093.797.312.375.203.672.516.312.297.5.703.28.578.453 1.234.172.64.265 1.328.095.672.125 1.36.032.672.032 1.312m-2.5-.5-.047-1.062h-.063a.13.13 0 0 0-.062-.016q-.203 0-.516.11-.297.094-.578.28a2.3 2.3 0 0 0-.484.391.7.7 0 0 0-.188.454q0 .218.156.296a.8.8 0 0 0 .36.079q.344 0 .734-.172.391-.187.688-.36m14.359-1.953q0 .688-.156 1.516a5.3 5.3 0 0 1-.5 1.515q-.344.704-.922 1.172-.562.47-1.422.469-.219 0-.453-.031a2.2 2.2 0 0 1-.453-.11 1.6 1.6 0 0 1-.375-.203.9.9 0 0 1-.266-.36l-.14 2.25q-.016.36-.032.86 0 .5-.125.953a1.7 1.7 0 0 1-.39.766q-.266.328-.782.328-.296 0-.5-.312a2.5 2.5 0 0 1-.328-.766 9 9 0 0 1-.172-1.047 15 15 0 0 1-.078-1.11q-.015-.53-.015-.968v-.64q0-1.048-.016-2.079-.015-1.047-.016-2.093v-.579q0-.405.032-.875.031-.468.093-.968.079-.5.219-.907.141-.421.36-.671a.66.66 0 0 1 .531-.266q.203 0 .359.125a.84.84 0 0 1 .281.297q.126.172.204.375t.125.375q.484-.547 1.109-.828.64-.282 1.359-.282.75 0 1.219.422.484.422.75 1.047.282.626.391 1.344.11.703.109 1.281m-2.234-.125q0-.234-.047-.469a1.3 1.3 0 0 0-.141-.453.76.76 0 0 0-.281-.343.76.76 0 0 0-.469-.141q-.375 0-.797.25a1.75 1.75 0 0 0-.609.547q-.078.125-.094.406-.015.282-.015.422v.297l.031.36.031.359q.031.172.078.265a.6.6 0 0 0 .203.266q.157.109.344.203.188.094.375.14.203.047.344.047a.65.65 0 0 0 .531-.25q.204-.25.313-.593.124-.345.156-.703.047-.376.047-.61m8.609-1.062q-.219.016-.375-.032l-.312-.125a3 3 0 0 0-.282-.109.6.6 0 0 0-.312-.047q-.312.016-.563.172a2.2 2.2 0 0 0-.437.39 2.7 2.7 0 0 0-.328.532 3 3 0 0 0-.219.562 4 4 0 0 0-.078.579 19 19 0 0 0-.016.812q-.015.453-.015.86 0 .405-.032.64-.015.25-.078.594a2.5 2.5 0 0 1-.203.625 1.4 1.4 0 0 1-.344.5.8.8 0 0 1-.562.203.75.75 0 0 1-.469-.156 1.4 1.4 0 0 1-.328-.407 4 4 0 0 1-.219-.609 8 8 0 0 1-.125-.703q-.047-.375-.078-.75-.015-.375-.031-.703v-.625q.015-.282.015-.453-.015-.548-.062-1.094a20 20 0 0 1-.031-1.11q0-.343.031-.765t.172-.781a1.6 1.6 0 0 1 .406-.625q.282-.25.766-.25.266 0 .453.172.188.171.297.421.125.25.187.532.063.28.078.515.375-.609.844-.984.47-.39 1.219-.422.375-.015.734.078.375.078.672.281.312.188.5.5.203.313.219.735.031.5-.297.765-.328.266-.797.282m7.969 3.64q0 .282-.031.735a4.3 4.3 0 0 1-.125.89 2.1 2.1 0 0 1-.344.735q-.234.312-.656.312-.579 0-.891-.375t-.297-.937q-.5.436-1.141.687-.624.25-1.281.25-.453 0-.859-.219a2.7 2.7 0 0 1-.719-.562 2.9 2.9 0 0 1-.5-.766 2.2 2.2 0 0 1-.187-.86q0-.75.453-1.312a4.2 4.2 0 0 1 1.14-.953q.672-.405 1.422-.64.766-.234 1.36-.313v-.14a.6.6 0 0 0 .015-.141q0-.485-.265-.781-.266-.297-.75-.297-.392 0-.672.14a3.3 3.3 0 0 0-.532.297q-.25.156-.5.297a1.24 1.24 0 0 1-.562.125.87.87 0 0 1-.594-.219.74.74 0 0 1-.234-.562q0-.516.297-.938.312-.42.765-.703a4 4 0 0 1 1-.453 3.4 3.4 0 0 1 1-.172q.423 0 .844.11.422.093.797.312.375.203.672.516.312.297.5.703.28.578.453 1.234.172.64.266 1.328.093.672.125 1.36.03.672.031 1.312m-2.5-.5-.047-1.062h-.063a.13.13 0 0 0-.062-.016q-.202 0-.516.11-.297.094-.578.28a2.3 2.3 0 0 0-.484.391.7.7 0 0 0-.188.454q0 .218.157.296a.8.8 0 0 0 .359.079q.344 0 .734-.172.391-.187.688-.36m14.359-1.953q0 .688-.156 1.516a5.3 5.3 0 0 1-.5 1.515 3.4 3.4 0 0 1-.922 1.172q-.562.47-1.422.469-.219 0-.453-.031a2.2 2.2 0 0 1-.453-.11 1.6 1.6 0 0 1-.375-.203.9.9 0 0 1-.266-.36l-.14 2.25q-.016.36-.032.86 0 .5-.125.953a1.7 1.7 0 0 1-.39.766q-.266.328-.781.328-.297 0-.5-.312a2.5 2.5 0 0 1-.329-.766 9 9 0 0 1-.171-1.047 14 14 0 0 1-.079-1.11q-.015-.53-.015-.968v-.64q0-1.048-.016-2.079-.015-1.047-.015-2.093v-.579q0-.405.031-.875.031-.468.094-.968.078-.5.218-.907.141-.421.36-.671a.67.67 0 0 1 .531-.266q.203 0 .359.125a.85.85 0 0 1 .282.297q.125.172.203.375.077.203.125.375.484-.547 1.109-.828.64-.282 1.359-.282.75 0 1.219.422.484.422.75 1.047.282.626.391 1.344.11.703.109 1.281m-2.234-.125q0-.234-.047-.469a1.3 1.3 0 0 0-.141-.453.76.76 0 0 0-.281-.343.76.76 0 0 0-.469-.141q-.374 0-.797.25-.405.234-.609.547-.078.125-.094.406-.015.282-.015.422v.297l.031.36.031.359q.031.172.078.265a.6.6 0 0 0 .203.266q.157.109.344.203t.375.14q.203.047.344.047a.65.65 0 0 0 .531-.25q.204-.25.313-.593.124-.345.156-.703.047-.376.047-.61m9.734 2q0 .531-.344 1.047-.328.5-.843.906-.5.39-1.078.64-.579.235-1.063.235a2.76 2.76 0 0 1-1.484-.406 3.9 3.9 0 0 1-1.078-1.062 5.1 5.1 0 0 1-.672-1.407 5.6 5.6 0 0 1-.219-1.515q0-.781.219-1.672a6.1 6.1 0 0 1 .656-1.64q.453-.751 1.125-1.25.687-.5 1.625-.5.531 0 1.016.187.485.17.843.5.36.328.578.78.219.454.219 1.017 0 .734-.312 1.374a3.7 3.7 0 0 1-.828 1.11 4.4 4.4 0 0 1-1.188.766 4 4 0 0 1-1.375.312q.063.453.359.656.314.203.735.203.312 0 .609-.156t.578-.344q.282-.203.547-.359a1.15 1.15 0 0 1 .563-.156q.312 0 .562.203a.65.65 0 0 1 .25.531m-2.531-3.828a.94.94 0 0 0-.109-.422.36.36 0 0 0-.344-.219.9.9 0 0 0-.578.188 1.4 1.4 0 0 0-.391.453q-.156.266-.25.578a3 3 0 0 0-.094.578q.219-.047.516-.125.312-.078.578-.203.282-.14.469-.344a.66.66 0 0 0 .203-.484m7.734-1.984q0 .453-.312.672a6 6 0 0 1-.672.421q-.375.187-.688.454-.296.265-.296.796a.9.9 0 0 0 .125.485q.14.203.328.375.203.156.437.328t.422.39q.204.219.328.532.141.312.141.765 0 .657-.344 1.297a4.28 4.28 0 0 1-2.031 1.906q-.657.297-1.297.297-.266 0-.531-.046a1.5 1.5 0 0 1-.485-.141 1.04 1.04 0 0 1-.343-.297.9.9 0 0 1-.141-.516q0-.437.172-.671.171-.25.437-.391t.563-.219q.312-.079.578-.187.266-.126.437-.313.172-.187.172-.531 0-.329-.265-.672a14 14 0 0 0-.563-.75 8 8 0 0 1-.578-.86 2.03 2.03 0 0 1-.25-1q0-.671.266-1.234.28-.577.734-1 .47-.422 1.063-.656.593-.25 1.25-.25.25 0 .484.047.25.046.437.172a.8.8 0 0 1 .297.312.85.85 0 0 1 .125.485m5.203 0q0 .453-.312.672a6 6 0 0 1-.672.421q-.375.187-.687.454-.297.265-.297.796a.9.9 0 0 0 .125.485q.14.203.328.375.203.156.437.328.235.172.422.39.204.219.328.532.141.312.141.765 0 .657-.344 1.297a4.28 4.28 0 0 1-2.031 1.906q-.657.297-1.297.297-.266 0-.531-.046a1.5 1.5 0 0 1-.485-.141 1.04 1.04 0 0 1-.343-.297.9.9 0 0 1-.141-.516q0-.437.172-.671.172-.25.437-.391.267-.141.563-.219.312-.079.578-.187a1.4 1.4 0 0 0 .438-.313q.171-.187.171-.531 0-.329-.265-.672a14 14 0 0 0-.563-.75 8 8 0 0 1-.578-.86 2.04 2.04 0 0 1-.25-1q0-.671.266-1.234.28-.577.734-1 .47-.422 1.063-.656.593-.25 1.25-.25.25 0 .484.047.25.046.438.172a.77.77 0 0 1 .296.312.85.85 0 0 1 .125.485m3.594 9.047q-.797 0-1.39-.422a3.7 3.7 0 0 1-1-1.078 5.2 5.2 0 0 1-.61-1.454 6.6 6.6 0 0 1-.203-1.593q0-.828.203-1.703.204-.89.625-1.61.422-.734 1.078-1.187.657-.47 1.563-.47.875 0 1.484.485.625.47 1 1.188.375.703.531 1.547.157.843.11 1.593a8.6 8.6 0 0 1-.266 1.672 5.3 5.3 0 0 1-.609 1.516 3.5 3.5 0 0 1-1.031 1.094q-.626.421-1.485.422m.156-7.063q-.234 0-.421.25-.173.25-.297.61-.11.359-.172.765-.063.39-.063.688 0 .374.063.812.078.438.203.813.125.36.297.609.187.234.422.234.25 0 .422-.234.188-.234.296-.594.11-.36.157-.781a8 8 0 0 0 .047-.813q0-.343-.063-.75a4.4 4.4 0 0 0-.187-.78 1.8 1.8 0 0 0-.297-.595q-.172-.234-.407-.234m10.672 4.406q0 .282-.031.735-.015.453-.125.89a2.1 2.1 0 0 1-.344.735q-.234.312-.656.312-.577 0-.891-.375-.312-.375-.296-.937-.5.436-1.141.687-.625.25-1.281.25a1.8 1.8 0 0 1-.86-.219 2.7 2.7 0 0 1-.718-.562 2.8 2.8 0 0 1-.5-.766 2.2 2.2 0 0 1-.188-.86q0-.75.453-1.312a4.3 4.3 0 0 1 1.141-.953q.672-.405 1.422-.64a8.5 8.5 0 0 1 1.359-.313v-.14a.6.6 0 0 0 .016-.141q0-.485-.266-.781t-.75-.297q-.39 0-.672.14a3.3 3.3 0 0 0-.531.297q-.25.156-.5.297a1.24 1.24 0 0 1-.563.125.87.87 0 0 1-.593-.219.73.73 0 0 1-.235-.562q0-.516.297-.938.313-.42.766-.703a4 4 0 0 1 1-.453 3.4 3.4 0 0 1 1-.172q.421 0 .844.11.421.093.796.312.375.203.672.516.313.297.5.703.282.578.453 1.234.173.64.266 1.328.094.672.125 1.36.031.672.031 1.312m-2.5-.5-.047-1.062h-.062a.14.14 0 0 0-.063-.016q-.203 0-.515.11a2.3 2.3 0 0 0-.578.28 2.3 2.3 0 0 0-.485.391.7.7 0 0 0-.187.454q0 .218.156.296a.8.8 0 0 0 .359.079q.344 0 .735-.172.39-.187.687-.36m6.36-3.843q0 .249-.032.687-.03.421-.093.922a9 9 0 0 1-.188 1 7 7 0 0 1-.265.922q-.157.406-.375.672-.22.25-.5.25-.344 0-.594-.328a3.5 3.5 0 0 1-.406-.86 8 8 0 0 1-.25-1.172q-.095-.64-.141-1.25a27 27 0 0 1-.063-1.14v-1.516q0-.438.032-.922.047-.484.125-.953.094-.485.265-.875.173-.39.453-.625.281-.25.704-.25.375 0 .609.328.25.312.391.828.156.501.218 1.125.078.625.094 1.235.031.593.016 1.109zm-.297 5.937a.9.9 0 0 1-.125.469q-.125.188-.328.312a1.4 1.4 0 0 1-.438.203 1.8 1.8 0 0 1-.469.063q-.343 0-.656-.188-.312-.172-.312-.562 0-.234.125-.422.14-.203.343-.344a1.7 1.7 0 0 1 .438-.218q.25-.08.469-.079.359 0 .656.188.297.171.297.578"/><defs><filter id="a" width="272.272" height="135.899" x="0" y="0" color-interpolation-filters="sRGB" filterUnits="userSpaceOnUse"><feFlood flood-opacity="0" result="BackgroundImageFix"/><feBlend in="SourceGraphic" in2="BackgroundImageFix" result="shape"/><feColorMatrix in="SourceAlpha" result="hardAlpha" values="0 0 0 0 0 0 0 0 0 0 0 0 0 0 0 0 0 0 127 0"/><feOffset dy="4"/><feGaussianBlur stdDeviation="2"/><feComposite in2="hardAlpha" k2="-1" k3="1" operator="arithmetic"/><feColorMatrix values="0 0 0 0 0 0 0 0 0 0 0 0 0 0 0 0 0 0 0.25 0"/><feBlend in2="shape" result="effect1_innerShadow_1137_1556"/></filter></defs></svg>