<svg xmlns="http://www.w3.org/2000/svg" width="251" height="124" fill="none" viewBox="0 0 251 124"><g filter="url(#a)"><path fill="#00c57f" fill-rule="evenodd" d="M35.509 78.85C11.486 70.748.999 58.79.999 45.848 1 29.925 22.15 14.194 57.137 6.416 74.106 2.643 94.042 1 116.95 1c70.137 0 134.817 16.247 132.056 44.848 0 14.192-11.971 27.242-36.351 35.033-13.293 4.248-30.11 6.757-51.151 7.528-8.277 14.847-20.39 22.492-40.264 34.591 14.574-14.102 23.504-23.193 26.735-34.335h-1.116c-49.713 2.54-87.31-1.707-111.351-9.815" clip-rule="evenodd"/></g><path fill="#00c57f" d="m35.509 78.85-.32.948zM57.136 6.416l.216.976zm191.871 39.432-.995-.096a1 1 0 0 0-.005.096zm-36.351 35.033.305.952zm-51.151 7.528-.037-1a1 1 0 0 0-.837.513zM121.241 123l-.695-.719a1 1 0 0 0 1.215 1.573zm26.735-34.335.96.278a.998.998 0 0 0-.963-1.278zm-1.116 0v-1l-.051.002zM1 45.849H0c0 13.608 11.04 25.805 35.19 33.95l.319-.948.32-.948c-23.898-8.06-33.83-19.777-33.83-32.054zM57.136 6.416l-.218-.976C39.34 9.348 25.17 15.267 15.368 22.263 5.588 29.243 0 37.42 0 45.848h2c0-7.494 4.986-15.146 14.529-21.957 9.519-6.794 23.416-12.63 40.824-16.5zM116.95 1V0C94 0 73.983 1.646 56.918 5.44l.217.976.216.976C74.227 3.64 94.086 2 116.952 2zm132.056 44.848.996.096c.733-7.596-3.042-14.271-9.968-19.943-6.914-5.662-17.07-10.421-29.423-14.257C185.892 4.067 152.08 0 116.951 0v2c35.007 0 68.604 4.056 93.068 11.654 12.239 3.8 22.119 8.465 28.748 13.894 6.617 5.419 9.892 11.5 9.245 18.204zm-36.351 35.033.305.952c24.521-7.836 37.046-21.127 37.046-35.985h-2c0 13.526-11.417 26.335-35.655 34.08zm-51.151 7.528.036 1c21.093-.774 38.009-3.29 51.42-7.576l-.305-.952-.304-.953c-13.176 4.21-29.895 6.712-50.884 7.482zm0 0-.874-.487c-8.128 14.581-20.001 22.103-39.91 34.224l.52.854.52.854c19.838-12.077 32.192-19.845 40.617-34.958zM121.241 123l.695.719c14.517-14.046 23.68-23.327 27-34.776l-.96-.278-.961-.279c-3.142 10.835-11.837 19.738-26.469 33.895zm25.619-34.334v1l1.118-.001-.002-1-.003-1h-1.113zM35.509 78.85l-.32.948c24.21 8.165 61.949 12.41 111.722 9.867l-.051-1-.051-.998c-49.652 2.537-87.108-1.713-110.98-9.765z"/><path fill="#fff" d="M47.728 34.788q-.047.406-.14.797a4 4 0 0 1-.204.703 1.2 1.2 0 0 1-.328.469.6.6 0 0 1-.437.187q-.25 0-.454-.39a5.4 5.4 0 0 1-.39-1 22 22 0 0 1-.328-1.438 74 74 0 0 1-.266-1.61 51 51 0 0 1-.187-1.608q-.079-.781-.126-1.36-.093.594-.218 1.328a29 29 0 0 1-.672 2.985q-.203.718-.438 1.297a4 4 0 0 1-.5.906q-.265.343-.562.343-.266 0-.531-.359a4.8 4.8 0 0 1-.516-.937 14 14 0 0 1-.469-1.313q-.219-.72-.406-1.437-.187-.735-.328-1.375a34 34 0 0 1-.219-1.094q0 .328-.016.734v.563q0 .078-.015.515 0 .438-.047 1.047-.047.61-.14 1.313a8 8 0 0 1-.282 1.281q-.171.594-.437 1t-.657.438a1.26 1.26 0 0 1-.53-.47 3.8 3.8 0 0 1-.345-.796 6.6 6.6 0 0 1-.218-.969 16 16 0 0 1-.187-1.922v-.687q0-.469.046-1.172.063-.72.188-1.5.124-.782.328-1.563a8.3 8.3 0 0 1 .484-1.39 3.8 3.8 0 0 1 .672-1.016q.39-.39.89-.39.235 0 .5.265.266.266.532.703.266.423.515.953.25.532.47 1.079.233.53.405 1.03.172.486.282.829.124-.375.312-.875.187-.5.406-1.031.235-.548.5-1.063.282-.532.578-.937.297-.423.594-.672.313-.266.625-.266.547 0 .938.406t.656 1.063q.266.64.422 1.453.156.797.234 1.594.095.78.11 1.469.03.687.03 1.109v.469q0 .296-.015.672 0 .375-.031.796-.03.423-.078.844m7.875-.5q0 .281-.031.735a4.3 4.3 0 0 1-.125.89 2.1 2.1 0 0 1-.344.735q-.234.312-.656.312-.579 0-.891-.375t-.297-.937q-.5.436-1.14.687-.625.25-1.282.25-.453 0-.86-.219a2.7 2.7 0 0 1-.718-.562 2.9 2.9 0 0 1-.5-.766 2.2 2.2 0 0 1-.187-.86q0-.75.453-1.312a4.3 4.3 0 0 1 1.14-.953q.672-.406 1.422-.64.766-.235 1.36-.313v-.14a.6.6 0 0 0 .015-.141q0-.485-.265-.781-.267-.297-.75-.297-.39 0-.672.14a3.3 3.3 0 0 0-.532.297q-.25.156-.5.297a1.24 1.24 0 0 1-.562.125.87.87 0 0 1-.594-.219.74.74 0 0 1-.234-.562q0-.516.297-.938.312-.421.765-.703a4 4 0 0 1 1-.453 3.4 3.4 0 0 1 1-.172q.423 0 .844.11.422.093.797.312.375.203.672.516.312.297.5.703.28.578.453 1.234.171.64.266 1.328.093.672.125 1.36.03.671.03 1.312m-2.5-.5-.047-1.062h-.062a.14.14 0 0 0-.063-.016q-.203 0-.516.11-.297.093-.578.28a2.3 2.3 0 0 0-.484.391.7.7 0 0 0-.188.453q0 .219.157.297a.8.8 0 0 0 .359.078q.344 0 .734-.172.39-.186.688-.359m8.015-5.89q0 .453-.312.671a6 6 0 0 1-.672.422q-.376.188-.687.453-.297.266-.297.797 0 .282.125.485.14.203.328.375.203.156.437.328.235.172.422.39.204.219.328.532.141.312.141.765 0 .657-.344 1.297a4.3 4.3 0 0 1-.86 1.125 4.3 4.3 0 0 1-1.171.781q-.656.297-1.297.297-.265 0-.531-.047a1.5 1.5 0 0 1-.485-.14 1.04 1.04 0 0 1-.343-.297.9.9 0 0 1-.14-.516q0-.436.171-.672.171-.25.438-.39.264-.141.562-.219.312-.078.578-.187.265-.126.438-.313.171-.188.171-.531 0-.328-.265-.672-.25-.36-.563-.75a8 8 0 0 1-.578-.86 2.04 2.04 0 0 1-.25-1q0-.671.266-1.234a3.4 3.4 0 0 1 .734-1q.47-.422 1.063-.656a3.2 3.2 0 0 1 1.25-.25q.25 0 .484.047.25.046.438.172a.8.8 0 0 1 .296.312.86.86 0 0 1 .125.485m11.547 3.937q0 .687-.156 1.516a5.3 5.3 0 0 1-.5 1.515q-.344.704-.922 1.172-.562.47-1.422.469-.219 0-.453-.031a2.2 2.2 0 0 1-.453-.11 1.6 1.6 0 0 1-.375-.203.9.9 0 0 1-.266-.36l-.14 2.25q-.016.36-.031.86 0 .5-.125.953a1.7 1.7 0 0 1-.391.766q-.265.328-.781.328-.297 0-.5-.312a2.5 2.5 0 0 1-.328-.766 9 9 0 0 1-.172-1.047 14 14 0 0 1-.078-1.11q-.016-.531-.016-.968v-.64q0-1.048-.016-2.079-.015-1.047-.015-2.094v-.578q0-.405.031-.875.03-.468.094-.968.078-.5.218-.907.141-.421.36-.672a.67.67 0 0 1 .531-.265.56.56 0 0 1 .36.125.86.86 0 0 1 .28.297q.126.172.204.375t.125.375q.484-.547 1.11-.828.64-.282 1.359-.282.75 0 1.218.422.484.422.75 1.047.282.625.391 1.344.11.703.11 1.281m-2.234-.125a2.4 2.4 0 0 0-.047-.469 1.3 1.3 0 0 0-.14-.453.77.77 0 0 0-.282-.344.76.76 0 0 0-.469-.14q-.375 0-.796.25-.406.234-.61.547-.078.124-.094.406-.015.28-.015.422v.297l.031.359q.015.187.031.36.031.171.078.265a.6.6 0 0 0 .204.266q.156.108.343.203.188.094.375.14.203.047.344.047a.65.65 0 0 0 .531-.25q.204-.25.313-.593.125-.344.156-.704.047-.375.047-.609m6.156 5.234q-.797 0-1.39-.422a3.7 3.7 0 0 1-1-1.078 5.2 5.2 0 0 1-.61-1.453 6.6 6.6 0 0 1-.203-1.593q0-.829.203-1.704a5.6 5.6 0 0 1 .625-1.609q.421-.735 1.078-1.187.657-.47 1.563-.47.875 0 1.484.485.625.469 1 1.188.375.702.531 1.547a6.5 6.5 0 0 1 .11 1.593 8.6 8.6 0 0 1-.266 1.672 5.3 5.3 0 0 1-.61 1.516 3.5 3.5 0 0 1-1.03 1.093q-.626.422-1.485.422m.156-7.062q-.234 0-.421.25-.172.25-.297.61a5.5 5.5 0 0 0-.172.765q-.063.39-.063.687 0 .375.063.813.078.437.203.812.124.36.297.61.188.234.422.234.25 0 .422-.234.188-.235.296-.594.11-.36.157-.781.047-.438.047-.813 0-.344-.063-.75a4.3 4.3 0 0 0-.187-.781 1.8 1.8 0 0 0-.297-.594q-.172-.234-.407-.234m9.454.765q-.219.015-.375-.03l-.313-.126a3 3 0 0 0-.281-.11.6.6 0 0 0-.313-.046q-.312.016-.562.172a2.2 2.2 0 0 0-.438.39 2.7 2.7 0 0 0-.328.532 3 3 0 0 0-.219.562 4 4 0 0 0-.078.578q-.015.375-.015.813-.016.453-.016.86t-.031.64q-.016.249-.078.594-.063.328-.203.625a1.4 1.4 0 0 1-.344.5.8.8 0 0 1-.563.203.75.75 0 0 1-.468-.157 1.4 1.4 0 0 1-.329-.406 4 4 0 0 1-.218-.61 8 8 0 0 1-.125-.702q-.048-.375-.078-.75-.015-.375-.032-.703v-.625q.016-.282.016-.453-.015-.548-.062-1.094-.032-.562-.032-1.11 0-.343.031-.765.032-.422.172-.781.141-.376.407-.625.28-.25.765-.25.266 0 .453.171.188.173.297.422.126.25.188.532.061.28.078.515.375-.609.844-.984.468-.39 1.218-.422.375-.016.735.078.375.078.672.281.312.188.5.5.203.313.218.735.031.5-.297.765t-.796.282m12.359-1.421-.25 2.265q-.124 1.125-.172 2.25a33 33 0 0 0-.062 2.453q.015 1.157.015 2.453 0 .313-.015.766 0 .453-.11.875-.11.421-.36.719-.233.297-.718.297a.62.62 0 0 1-.406-.14 1.4 1.4 0 0 1-.281-.376 3 3 0 0 1-.188-.5 10 10 0 0 1-.11-.578 12 12 0 0 1-.093-1.219v-2.969q-.36.47-.937.72-.563.234-1.126.234-.702 0-1.218-.328a3 3 0 0 1-.828-.86 4 4 0 0 1-.485-1.156 5 5 0 0 1-.156-1.219v-.094q0-.812.25-1.75a6.8 6.8 0 0 1 .734-1.765q.5-.813 1.235-1.344a2.87 2.87 0 0 1 1.734-.547q.531 0 .969.219.454.218.64.719.126-.36.376-.578a.98.98 0 0 1 .671-.235q.516 0 .72.344.218.328.218.734 0 .172-.016.313zm-3.594.375q-.36 0-.672.297-.312.28-.547.703-.234.405-.374.875a3.3 3.3 0 0 0-.126.828q0 .218.032.468.047.25.125.485.093.218.234.375.156.14.39.14.203 0 .47-.093.281-.11.546-.266.266-.172.47-.375.201-.203.28-.39.048-.11.078-.329.032-.219.047-.453a8 8 0 0 0 .063-.843q0-.188-.094-.422a2 2 0 0 0-.219-.47 1.3 1.3 0 0 0-.328-.374.6.6 0 0 0-.375-.156m11.188 2.422q0 .858-.172 1.703a4.7 4.7 0 0 1-.578 1.515 3.15 3.15 0 0 1-1.094 1.063q-.671.406-1.688.406-1 0-1.671-.39a3.2 3.2 0 0 1-1.079-1.063 4.8 4.8 0 0 1-.562-1.484 9 9 0 0 1-.156-1.688q0-.938.218-1.86.048-.249.172-.687.141-.453.344-.875.219-.438.484-.75.282-.312.61-.312.312 0 .5.172t.297.437q.109.25.14.547.032.282.032.515 0 .36-.063.704-.047.343-.109.687l-.125.938a9 9 0 0 0-.032 1.468q.032.282.125.547.094.266.266.453.172.172.484.172.407 0 .641-.218.25-.22.359-.547.126-.329.157-.703.031-.376.031-.688 0-.687-.094-1.344-.093-.671-.172-1.36a1.5 1.5 0 0 1 .063-.687q.078-.234.219-.421.14-.187.343-.297a.85.85 0 0 1 .453-.125q.345 0 .61.25.266.234.437.625.188.375.297.859.126.469.188.938.078.453.093.859.032.406.032.64m7.5 1.687q0 .531-.344 1.047-.328.5-.844.906-.5.39-1.078.64-.578.235-1.062.235a2.76 2.76 0 0 1-1.485-.406 3.9 3.9 0 0 1-1.078-1.063 5.1 5.1 0 0 1-.672-1.406 5.6 5.6 0 0 1-.219-1.515q0-.782.219-1.672.22-.891.656-1.641.454-.75 1.125-1.25.688-.5 1.625-.5.532 0 1.016.188a2.45 2.45 0 0 1 1.422 1.28q.219.454.219 1.016 0 .735-.313 1.375a3.6 3.6 0 0 1-.828 1.11 4.4 4.4 0 0 1-1.187.765 4 4 0 0 1-1.375.313q.062.453.359.656.312.204.734.203.313 0 .61-.156.296-.156.578-.344.281-.203.547-.36.281-.155.562-.155a.87.87 0 0 1 .563.203q.25.202.25.531m-2.532-3.828a.94.94 0 0 0-.109-.422.36.36 0 0 0-.344-.219.9.9 0 0 0-.578.188 1.4 1.4 0 0 0-.39.453q-.157.266-.25.578a3 3 0 0 0-.094.578q.22-.047.515-.125.313-.078.579-.203.28-.14.468-.344a.66.66 0 0 0 .203-.484m9.891 7.062q-.797 0-1.391-.422a3.7 3.7 0 0 1-1-1.078 5.2 5.2 0 0 1-.609-1.453 6.6 6.6 0 0 1-.203-1.593q0-.829.203-1.704.203-.89.625-1.609.422-.735 1.078-1.187.657-.47 1.563-.47.875 0 1.484.485.625.469 1 1.188.375.702.531 1.547.156.843.11 1.593a8.6 8.6 0 0 1-.266 1.672 5.3 5.3 0 0 1-.609 1.516 3.5 3.5 0 0 1-1.032 1.093q-.624.422-1.484.422m.156-7.062q-.234 0-.422.25-.171.25-.296.61-.11.359-.172.765-.063.39-.063.687 0 .375.063.813.078.437.203.812.125.36.297.61.187.234.422.234.25 0 .421-.234.188-.235.297-.594.11-.36.157-.781.046-.438.046-.813 0-.344-.062-.75a4.3 4.3 0 0 0-.188-.781 1.8 1.8 0 0 0-.296-.594q-.172-.234-.407-.234m14.703-2.625q0 1.078-.531 1.969a4.7 4.7 0 0 1-1.422 1.468q.47.094.813.329.343.218.562.546.235.33.344.75.125.407.125.86 0 .89-.422 1.562a3.55 3.55 0 0 1-1.062 1.094 5.2 5.2 0 0 1-1.469.64 6.4 6.4 0 0 1-1.594.204q-.437 0-.875-.063a3.6 3.6 0 0 1-.828-.218q-.141-.048-.234-.376a6 6 0 0 1-.157-.828 27 27 0 0 1-.078-1.047 45 45 0 0 1-.047-1.078q-.015-.515-.015-.906v-1.64q0-.563.031-1.11v-.437q.015-.297.016-.657l.031-.78q.032-.408.062-.75.048-.36.11-.61.078-.25.172-.313.359-.234.797-.437a7 7 0 0 1 .906-.375q.469-.157.937-.25.47-.094.891-.094.578 0 1.109.172.547.156.938.484.406.328.64.813.25.468.25 1.078m-2.593.828q0-.265-.172-.39a.66.66 0 0 0-.422-.126 1.34 1.34 0 0 0-.875.344q-.047.047-.094.266-.031.218-.062.5l-.032.515v.563q.016.078.032.14.015.063.047.063a1 1 0 0 0 .546-.187q.282-.203.5-.485.236-.297.375-.625.157-.328.157-.578m-.063 4.516q0-.267-.187-.375a.8.8 0 0 0-.422-.11q-.219 0-.469.11-.234.093-.391.234-.046.03-.078.156-.015.125-.031.282 0 .14-.016.28v.501l.032.187q.031.078.062.078.218 0 .485-.125.265-.124.484-.312.234-.188.375-.422a.9.9 0 0 0 .156-.484m6.328 4.343q-.796 0-1.39-.422a3.7 3.7 0 0 1-1-1.078 5.2 5.2 0 0 1-.61-1.453 6.6 6.6 0 0 1-.203-1.593q0-.829.203-1.704.204-.89.625-1.609.423-.735 1.078-1.187.657-.47 1.563-.47.875 0 1.484.485.625.469 1 1.188.375.702.532 1.547.156.843.109 1.593a8.6 8.6 0 0 1-.266 1.672 5.3 5.3 0 0 1-.609 1.516 3.5 3.5 0 0 1-1.031 1.093q-.626.422-1.485.422m.157-7.062q-.235 0-.422.25-.172.25-.297.61-.11.359-.172.765-.063.39-.063.687 0 .375.063.813.078.437.203.812.124.36.297.61.188.234.422.234.25 0 .422-.234.188-.235.297-.594.109-.36.156-.781a8 8 0 0 0 .047-.813q0-.344-.063-.75a4.3 4.3 0 0 0-.187-.781 1.8 1.8 0 0 0-.297-.594q-.172-.234-.406-.234m11.421 1.453q0 .453-.078 1.031a8 8 0 0 1-.218 1.157 6.6 6.6 0 0 1-.391 1.156 4.2 4.2 0 0 1-.594 1.015q-.344.438-.812.703a2.07 2.07 0 0 1-1.063.266q-.64 0-1.172-.297a2.9 2.9 0 0 1-.89-.812 1.3 1.3 0 0 1-.344.75 1 1 0 0 1-.75.312q-.266 0-.453-.265a2.3 2.3 0 0 1-.281-.672 7 7 0 0 1-.172-.922 16 16 0 0 1-.063-.969q-.015-.468-.015-.844v-1.593l.031-1.078q0-.267-.016-.797 0-.532.016-1.172.015-.657.062-1.328.063-.688.203-1.25t.391-.922.641-.375q.312 0 .531.219.22.218.359.578.157.36.235.812.093.438.125.89.047.438.047.845.015.39.015.64 0 .047-.015.219v.844q.14-.297.406-.578a3.6 3.6 0 0 1 1.281-.86q.36-.14.688-.14.656 0 1.093.343.453.328.719.844t.375 1.125q.11.593.109 1.125m-2.296.469q0-.187-.032-.406a1.1 1.1 0 0 0-.109-.407.8.8 0 0 0-.234-.312.55.55 0 0 0-.375-.125q-.25 0-.5.11a2.3 2.3 0 0 0-.454.28q-.218.172-.406.375-.187.188-.328.375l-.156 1.391q.25.36.609.578.36.204.813.203a.76.76 0 0 0 .562-.218q.234-.22.36-.532.14-.328.187-.687.063-.36.063-.625m6.218 5.14q-.796 0-1.39-.422a3.7 3.7 0 0 1-1-1.078 5.2 5.2 0 0 1-.61-1.453 6.6 6.6 0 0 1-.203-1.593q0-.829.203-1.704.204-.89.625-1.609.423-.735 1.078-1.187.657-.47 1.563-.47.875 0 1.484.485.625.469 1 1.188.375.702.532 1.547.156.843.109 1.593a8.6 8.6 0 0 1-.266 1.672 5.3 5.3 0 0 1-.609 1.516 3.5 3.5 0 0 1-1.031 1.093q-.626.422-1.485.422m.157-7.062q-.235 0-.422.25-.172.25-.297.61-.11.359-.172.765-.063.39-.063.687 0 .375.063.813.078.437.203.812.124.36.297.61.188.234.422.234.25 0 .422-.234.188-.235.297-.594.109-.36.156-.781a8 8 0 0 0 .047-.813q0-.344-.063-.75a4.3 4.3 0 0 0-.187-.781 1.8 1.8 0 0 0-.297-.594q-.172-.234-.406-.234m14.531-3.672q0 1.14-.094 2.266-.078 1.125-.078 2.265 0 .922.047 1.828.062.906.062 1.828 0 .25-.015.61-.016.344-.11.672a1.3 1.3 0 0 1-.281.562q-.187.235-.547.235-.469 0-.781-.344a1.7 1.7 0 0 1-.375-.797 2.7 2.7 0 0 1-.859.953q-.563.39-1.219.39-.703.001-1.219-.484a4.3 4.3 0 0 1-.844-1.172 7 7 0 0 1-.5-1.437 6.5 6.5 0 0 1-.156-1.297 9.7 9.7 0 0 1 .203-1.906q.126-.516.313-1 .188-.5.468-.89.298-.392.688-.626.406-.234.922-.234.562 0 1.078.328t.781.813l.141-2.485q.015-.297.047-.687a4.3 4.3 0 0 1 .125-.766q.11-.36.328-.61t.64-.25q.454 0 .704.22.25.218.359.562.124.328.141.719.03.39.031.734m-2.547 6.938q0-.36-.016-.704-.015-.343 0-.703a8 8 0 0 0-.218-.437 2 2 0 0 0-.313-.453 1.6 1.6 0 0 0-.391-.36.85.85 0 0 0-.468-.14.6.6 0 0 0-.453.172 1 1 0 0 0-.25.421 2.5 2.5 0 0 0-.11.516q-.015.282-.015.484a7.3 7.3 0 0 0 .14 1.297q.094.375.25.657.156.28.422.28.203 0 .406-.077.204-.094.375-.22a3 3 0 0 0 .344-.296q.172-.173.297-.312zm10.219 1.14q0 .281-.032.735-.015.452-.125.89a2.1 2.1 0 0 1-.343.735q-.235.312-.657.312-.578 0-.89-.375t-.297-.937q-.5.436-1.141.687-.624.25-1.281.25-.453 0-.859-.219a2.7 2.7 0 0 1-.719-.562 2.9 2.9 0 0 1-.5-.766 2.2 2.2 0 0 1-.188-.86q0-.75.454-1.312a4.2 4.2 0 0 1 1.14-.953q.672-.406 1.422-.64.766-.235 1.359-.313v-.14a.6.6 0 0 0 .016-.141q0-.485-.266-.781t-.75-.297q-.39 0-.671.14a3.3 3.3 0 0 0-.532.297q-.25.156-.5.297a1.24 1.24 0 0 1-.562.125.87.87 0 0 1-.594-.219.74.74 0 0 1-.234-.562q0-.516.297-.938.312-.421.765-.703a4 4 0 0 1 1-.453 3.4 3.4 0 0 1 1-.172q.422 0 .844.11.422.093.797.312.375.203.672.516.312.297.5.703.28.578.453 1.234.172.64.265 1.328.095.672.125 1.36.032.671.032 1.312m-2.5-.5-.047-1.062h-.063a.14.14 0 0 0-.062-.016q-.203 0-.516.11-.297.093-.578.28a2.3 2.3 0 0 0-.484.391.7.7 0 0 0-.188.453q0 .219.156.297a.8.8 0 0 0 .36.078q.344 0 .734-.172.391-.186.688-.359m14.703-6.234q0 1.296-.063 2.61-.061 1.296-.156 2.593-.016.234-.031.64a14 14 0 0 1-.188 1.782 3.6 3.6 0 0 1-.25.86q-.155.374-.422.608a.85.85 0 0 1-.625.25q-.327 0-.593-.14a1.4 1.4 0 0 1-.422-.36 1.87 1.87 0 0 1-.36-1.124q0-.516.032-1.032.031-.531.093-1.047l-1.546.157q-.048.406-.11.984-.047.563-.219 1.094-.156.515-.484.89t-.906.375a.98.98 0 0 1-.594-.172 1.2 1.2 0 0 1-.375-.406 2.1 2.1 0 0 1-.203-.578 3 3 0 0 1-.063-.594q0-.938.079-1.859a38 38 0 0 0 .125-3.844q0-1 .031-2 .015-.328.015-.765a4 4 0 0 1 .11-.813q.109-.391.344-.656.25-.266.734-.266.672 0 1.016.36.343.343.484.875.141.515.141 1.109v1.047q0 .624-.032 1.234l-.062 1.203 1.672-.25.031-1.515q.015-.75.062-1.5l.032-.766q.015-.405.125-.75.109-.345.359-.562.266-.235.781-.235.438 0 .703.25.282.25.438.61.172.36.234.765.063.406.063.735zm3.609-1.969a.64.64 0 0 1-.125.39 1.2 1.2 0 0 1-.297.313q-.187.125-.406.203a1.5 1.5 0 0 1-.406.063.96.96 0 0 1-.547-.156q-.234-.157-.234-.485a.74.74 0 0 1 .109-.406 1 1 0 0 1 .297-.297 1.2 1.2 0 0 1 .39-.187q.22-.063.422-.063.297 0 .547.14t.25.485m.125 5.313v.468q0 .236-.015.453-.016.266-.016.72 0 .435-.031.952-.032.516-.11 1.047a4.4 4.4 0 0 1-.218.969 2 2 0 0 1-.422.719.9.9 0 0 1-.641.28.58.58 0 0 1-.5-.233 2.2 2.2 0 0 1-.344-.641 5.3 5.3 0 0 1-.187-.89 17 17 0 0 1-.094-.954 13 13 0 0 1-.031-.86v-1.28q0-.47.031-1 .031-.532.109-1.079.094-.546.25-1 .173-.453.438-.734a.88.88 0 0 1 .672-.281q.422 0 .64.422.22.42.329.984.108.562.125 1.125.015.546.015.813m8.266.937q0 .687-.156 1.516a5.3 5.3 0 0 1-.5 1.515q-.345.704-.922 1.172-.562.47-1.422.469-.219 0-.453-.031a2.2 2.2 0 0 1-.453-.11 1.6 1.6 0 0 1-.375-.203.9.9 0 0 1-.266-.36l-.141 2.25q-.015.36-.031.86 0 .5-.125.953a1.7 1.7 0 0 1-.391.766q-.265.328-.781.328-.297 0-.5-.312a2.5 2.5 0 0 1-.328-.766 9 9 0 0 1-.172-1.047 14 14 0 0 1-.078-1.11 35 35 0 0 1-.016-.968v-.64q0-1.048-.015-2.079-.016-1.047-.016-2.094v-.578q0-.405.031-.875.032-.468.094-.968a5 5 0 0 1 .219-.907q.14-.421.359-.672a.67.67 0 0 1 .532-.265q.203 0 .359.125a.85.85 0 0 1 .281.297 1.6 1.6 0 0 1 .203.375q.078.203.125.375.485-.547 1.11-.828.64-.282 1.359-.282.75 0 1.219.422.484.422.75 1.047.281.625.39 1.344.11.703.11 1.281m-2.235-.125q0-.234-.046-.469a1.3 1.3 0 0 0-.141-.453.77.77 0 0 0-.281-.344.76.76 0 0 0-.469-.14q-.375 0-.797.25a1.74 1.74 0 0 0-.609.547q-.078.124-.094.406-.016.28-.016.422v.297l.032.359q.015.187.031.36.031.171.078.265a.6.6 0 0 0 .203.266q.156.108.344.203.187.094.375.14.203.047.344.047a.65.65 0 0 0 .531-.25q.202-.25.312-.593.126-.344.157-.704a5 5 0 0 0 .046-.609m6.157 5.234q-.797 0-1.391-.422a3.7 3.7 0 0 1-1-1.078 5.2 5.2 0 0 1-.609-1.453 6.5 6.5 0 0 1-.203-1.593q0-.829.203-1.704.202-.89.625-1.609.421-.735 1.078-1.187.656-.47 1.562-.47.875 0 1.485.485.625.469 1 1.188.375.702.531 1.547a6.5 6.5 0 0 1 .109 1.593 8.6 8.6 0 0 1-.265 1.672 5.3 5.3 0 0 1-.61 1.516 3.5 3.5 0 0 1-1.031 1.093q-.625.422-1.484.422m.156-7.062q-.234 0-.422.25-.172.25-.297.61-.11.359-.172.765-.062.39-.062.687 0 .375.062.813.078.437.203.812.126.36.297.61.188.234.422.234.25 0 .422-.234.187-.235.297-.594.11-.36.156-.781a8 8 0 0 0 .047-.813q0-.344-.062-.75a4.3 4.3 0 0 0-.188-.781 1.8 1.8 0 0 0-.297-.594q-.171-.234-.406-.234M100.595 55.288q0 .281-.031.735a4.3 4.3 0 0 1-.125.89 2.1 2.1 0 0 1-.344.735q-.234.312-.656.312-.579 0-.89-.375-.314-.375-.298-.937-.5.436-1.14.687-.625.25-1.282.25-.453 0-.859-.219a2.7 2.7 0 0 1-.719-.562 2.9 2.9 0 0 1-.5-.766 2.2 2.2 0 0 1-.187-.86q0-.75.453-1.312a4.3 4.3 0 0 1 1.14-.953q.672-.406 1.422-.64.765-.235 1.36-.313v-.14a.6.6 0 0 0 .015-.141q0-.485-.265-.782-.266-.296-.75-.296-.39 0-.672.14a3.3 3.3 0 0 0-.531.297q-.25.156-.5.297a1.24 1.24 0 0 1-.563.125.87.87 0 0 1-.594-.219.74.74 0 0 1-.234-.562q0-.516.297-.938.312-.421.766-.703a4 4 0 0 1 1-.453 3.4 3.4 0 0 1 1-.172q.42 0 .843.11.422.093.797.312.375.203.672.516.312.296.5.703.282.578.453 1.234.172.64.266 1.328.093.672.125 1.36.031.671.031 1.312m-2.5-.5-.047-1.062h-.062a.14.14 0 0 0-.063-.016q-.203 0-.516.11-.296.093-.578.28a2.3 2.3 0 0 0-.484.391.7.7 0 0 0-.187.453q0 .219.156.297a.8.8 0 0 0 .36.078q.343 0 .733-.172.39-.186.688-.359m10.594-1.953q0 .687-.156 1.516a5.3 5.3 0 0 1-.5 1.515q-.345.704-.922 1.172-.562.47-1.422.469-.219 0-.453-.031a2.2 2.2 0 0 1-.453-.11 1.6 1.6 0 0 1-.375-.203.9.9 0 0 1-.266-.36l-.141 2.25q-.016.36-.031.86 0 .5-.125.953a1.7 1.7 0 0 1-.391.766q-.265.328-.781.328-.296 0-.5-.312a2.5 2.5 0 0 1-.328-.766 9 9 0 0 1-.172-1.047 14 14 0 0 1-.078-1.11 35 35 0 0 1-.016-.968v-.64q0-1.048-.015-2.079-.016-1.047-.016-2.094v-.578q0-.405.031-.875.031-.468.094-.968a5 5 0 0 1 .219-.907q.14-.421.359-.672a.67.67 0 0 1 .532-.265q.203 0 .359.125a.86.86 0 0 1 .281.297q.125.172.203.375.078.202.125.375.484-.547 1.11-.828.64-.282 1.359-.282.75 0 1.219.422.484.422.75 1.047.28.625.39 1.344.11.702.11 1.281m-2.235-.125q0-.234-.046-.469a1.3 1.3 0 0 0-.141-.453.77.77 0 0 0-.281-.344.76.76 0 0 0-.469-.14q-.375 0-.797.25a1.74 1.74 0 0 0-.609.547q-.078.124-.094.406a8 8 0 0 0-.016.422v.297l.032.359q.015.188.031.36.031.171.078.265a.6.6 0 0 0 .203.266q.156.108.344.203.188.094.375.14.203.047.344.047a.65.65 0 0 0 .531-.25q.203-.25.312-.593.126-.345.157-.704a5 5 0 0 0 .046-.609m9.829 2.578q0 .281-.032.735-.015.452-.125.89a2.1 2.1 0 0 1-.343.735q-.235.312-.657.312-.578 0-.89-.375-.314-.375-.297-.937-.5.436-1.141.687-.625.25-1.281.25-.454 0-.859-.219a2.7 2.7 0 0 1-.719-.562 2.8 2.8 0 0 1-.5-.766 2.2 2.2 0 0 1-.188-.86q0-.75.453-1.312a4.3 4.3 0 0 1 1.141-.953q.672-.406 1.422-.64.765-.235 1.359-.313v-.14a.6.6 0 0 0 .016-.141q0-.485-.266-.782-.266-.296-.75-.296-.39 0-.672.14a3.3 3.3 0 0 0-.531.297q-.25.156-.5.297a1.24 1.24 0 0 1-.562.125.87.87 0 0 1-.594-.219.74.74 0 0 1-.234-.562q0-.516.296-.938.313-.421.766-.703a4 4 0 0 1 1-.453 3.4 3.4 0 0 1 1-.172q.422 0 .844.11.422.093.797.312.375.203.672.516.312.296.5.703.28.578.453 1.234.171.64.265 1.328.094.672.125 1.36.032.671.032 1.312m-2.5-.5-.047-1.062h-.063a.14.14 0 0 0-.062-.016 1.6 1.6 0 0 0-.516.11 2.3 2.3 0 0 0-.578.28 2.3 2.3 0 0 0-.484.391.7.7 0 0 0-.188.453q0 .219.156.297a.8.8 0 0 0 .36.078q.344 0 .734-.172.39-.186.688-.359m8.859-3.14q-.219.015-.375-.032l-.313-.125a3 3 0 0 0-.281-.11.6.6 0 0 0-.312-.046q-.313.015-.563.172a2.2 2.2 0 0 0-.437.39 2.7 2.7 0 0 0-.328.532 3 3 0 0 0-.219.562 4 4 0 0 0-.078.578q-.016.375-.016.813-.016.453-.016.86t-.031.64q-.015.249-.078.594a2.6 2.6 0 0 1-.203.625 1.4 1.4 0 0 1-.344.5.8.8 0 0 1-.562.203.75.75 0 0 1-.469-.157 1.4 1.4 0 0 1-.328-.406 4 4 0 0 1-.219-.61 8 8 0 0 1-.125-.702q-.047-.375-.078-.75l-.031-.703v-.625q.015-.282.015-.453-.015-.548-.062-1.094a20 20 0 0 1-.031-1.11q0-.344.031-.765t.172-.782q.14-.375.406-.624.281-.25.766-.25.266 0 .453.171.188.172.297.422.124.25.187.532.063.28.078.515.375-.609.844-.984.468-.39 1.219-.422.374-.015.734.078.375.078.672.281.312.188.5.5.203.313.219.735.03.5-.297.765a1.3 1.3 0 0 1-.797.282m7.875 3.062q0 .531-.344 1.047-.328.5-.844.906a5 5 0 0 1-1.078.64q-.578.235-1.062.235a2.77 2.77 0 0 1-1.485-.406 3.9 3.9 0 0 1-1.078-1.063 5.2 5.2 0 0 1-.672-1.406 5.6 5.6 0 0 1-.218-1.515q0-.782.218-1.672a6.1 6.1 0 0 1 .657-1.641q.453-.75 1.125-1.25.687-.5 1.625-.5.53 0 1.015.188a2.45 2.45 0 0 1 1.422 1.28q.219.454.219 1.016 0 .735-.313 1.375a3.6 3.6 0 0 1-.828 1.11 4.4 4.4 0 0 1-1.187.765 4 4 0 0 1-1.375.313q.062.453.359.656.312.203.735.203.312 0 .609-.156a6 6 0 0 0 .578-.344q.282-.203.547-.36.281-.155.562-.155a.87.87 0 0 1 .563.203.65.65 0 0 1 .25.531m-2.531-3.828a.94.94 0 0 0-.11-.422.36.36 0 0 0-.343-.219.9.9 0 0 0-.579.188 1.4 1.4 0 0 0-.39.453q-.156.266-.25.578a3 3 0 0 0-.094.578q.219-.047.516-.125.312-.078.578-.203.281-.14.469-.344a.66.66 0 0 0 .203-.484m8.953.61q0 .077-.016.171a1 1 0 0 1-.047.156 1.5 1.5 0 0 1-.437.61 1.1 1.1 0 0 1-.703.234q-.61 0-.828-.61a.5.5 0 0 1-.032-.171q0-.11-.015-.219v-.453a.9.9 0 0 0-.11-.344q-.078-.125-.265-.125-.265 0-.516.344a3.8 3.8 0 0 0-.422.797 7 7 0 0 0-.281.937 3.7 3.7 0 0 0-.109.782q0 .234.031.578.031.328.125.64.094.313.25.547.171.219.437.219a.8.8 0 0 0 .485-.156q.234-.172.453-.39.203-.189.437-.392a.87.87 0 0 1 .563-.203q.39 0 .609.282a.98.98 0 0 1 .235.64q0 .532-.282 1a3.2 3.2 0 0 1-.703.797q-.422.328-.937.516a2.7 2.7 0 0 1-.985.203q-.843 0-1.437-.422a3.3 3.3 0 0 1-.938-1.062 5 5 0 0 1-.515-1.422 7.2 7.2 0 0 1-.157-1.453q0-.798.219-1.72.219-.936.672-1.734a4.3 4.3 0 0 1 1.156-1.328q.719-.531 1.703-.531.61 0 1.047.266.453.265.735.703.297.422.437.953.156.531.156 1.047v.156a1 1 0 0 1-.015.156m7.422 3.218q0 .531-.344 1.047-.328.5-.844.906-.5.39-1.078.64-.578.235-1.062.235a2.76 2.76 0 0 1-1.485-.406 3.9 3.9 0 0 1-1.078-1.063 5.1 5.1 0 0 1-.672-1.406 5.6 5.6 0 0 1-.219-1.515q0-.782.219-1.672.22-.891.656-1.641.453-.75 1.125-1.25.688-.5 1.625-.5.532 0 1.016.188a2.45 2.45 0 0 1 1.422 1.28q.219.454.219 1.016a3.1 3.1 0 0 1-.313 1.375 3.6 3.6 0 0 1-.828 1.11 4.4 4.4 0 0 1-1.187.765 4 4 0 0 1-1.375.313q.062.453.359.656.312.203.734.203.313 0 .61-.156t.578-.344q.281-.203.547-.36.281-.155.562-.155.312 0 .563.203t.25.531m-2.532-3.828a.94.94 0 0 0-.109-.422.36.36 0 0 0-.344-.219.9.9 0 0 0-.578.188 1.4 1.4 0 0 0-.39.453q-.157.266-.25.578a3 3 0 0 0-.094.578q.219-.047.515-.125.313-.078.579-.203.28-.14.468-.344a.66.66 0 0 0 .203-.484m10.172-1.797q0 .5-.265.938a3.8 3.8 0 0 1-.641.796q-.375.36-.844.641a6.4 6.4 0 0 1-.843.422 12.6 12.6 0 0 1 .078 2.14q0 .33-.094.626a1.1 1.1 0 0 1-.281.484q-.188.203-.547.203-.625 0-.844-.625a3.3 3.3 0 0 1-.125-.625q-.047-.406-.078-.828a22 22 0 0 1-.016-.844v-.672q0-.22.016-.515a1.1 1.1 0 0 1 .156-.485q.14-.203.469-.39.329-.204.672-.422.359-.22.625-.485a.86.86 0 0 0 .265-.625.95.95 0 0 0-.125-.484 1.1 1.1 0 0 0-.328-.36 1.3 1.3 0 0 0-.437-.234 1.3 1.3 0 0 0-.485-.093q-.593 0-.937.203a3 3 0 0 0-.594.422l-.453.421a.75.75 0 0 1-.531.188 1.04 1.04 0 0 1-.688-.266.83.83 0 0 1-.297-.64q0-.61.36-1.032.359-.436.89-.687.532-.266 1.125-.375a5.2 5.2 0 0 1 1.063-.125q.625 0 1.281.281a4.2 4.2 0 0 1 1.203.719q.548.453.891 1.062.359.61.359 1.266m-2.312 7.594a.73.73 0 0 1-.141.453q-.125.188-.328.312a1.4 1.4 0 0 1-.437.188 1.8 1.8 0 0 1-.454.062 1.4 1.4 0 0 1-.671-.172q-.297-.172-.297-.562 0-.25.125-.437a1.3 1.3 0 0 1 .343-.344q.204-.141.438-.203.25-.079.469-.078.359 0 .656.187t.297.594"/><defs><filter id="a" width="250.093" height="128" x="0" y="0" color-interpolation-filters="sRGB" filterUnits="userSpaceOnUse"><feFlood flood-opacity="0" result="BackgroundImageFix"/><feBlend in="SourceGraphic" in2="BackgroundImageFix" result="shape"/><feColorMatrix in="SourceAlpha" result="hardAlpha" values="0 0 0 0 0 0 0 0 0 0 0 0 0 0 0 0 0 0 127 0"/><feOffset dy="4"/><feGaussianBlur stdDeviation="2"/><feComposite in2="hardAlpha" k2="-1" k3="1" operator="arithmetic"/><feColorMatrix values="0 0 0 0 0 0 0 0 0 0 0 0 0 0 0 0 0 0 0.25 0"/><feBlend in2="shape" result="effect1_innerShadow_1129_945"/></filter></defs></svg>