<svg xmlns="http://www.w3.org/2000/svg" width="212" height="120" fill="none" viewBox="0 0 212 120"><g filter="url(#a)"><path fill="#3dc3ff" fill-rule="evenodd" d="M28.124 76.811C9.242 69.754 1 59.338 1 48.065c0-13.87 16.623-27.573 44.122-34.348C58.46 10.431 74.132 9 92.137 9c55.127 0 105.966 14.152 103.796 39.065 0 12.362-9.409 23.73-28.572 30.515-5.627 1.993-12.059 3.547-19.38 4.661-7.546 15.832-18.728 23.421-37.624 35.759 13.584-14.096 21.776-23.06 24.524-34.304-5.928.444-12.33.665-19.236.665-39.073 2.212-68.625-1.487-87.521-8.55" clip-rule="evenodd"/></g><path fill="#3dc3ff" d="m28.124 76.811-.35.937zm16.998-63.094.24.971zm150.811 34.348-.996-.087-.004.087zM167.361 78.58l-.333-.942zm-19.38 4.661-.15-.989c-.328.05-.61.26-.753.559zM110.357 119l-.72-.694a1.001 1.001 0 0 0 1.267 1.531zm24.524-34.304.971.237a1 1 0 0 0-1.046-1.234zm-19.236.665v-1l-.056.002zM0 48.065c0 11.878 8.713 22.559 27.774 29.683l.7-1.874C9.77 68.885 2 58.734 2 48.066zm44.883-35.319c-13.845 3.411-25.019 8.581-32.754 14.7C4.404 33.556 0 40.708 0 48.066h2c0-6.514 3.907-13.149 11.37-19.051 7.45-5.894 18.338-10.963 31.992-14.327zM92.137 8c-18.052 0-33.81 1.434-47.254 4.746l.479 1.942C58.594 11.428 74.178 10 92.137 10zm104.792 40.152c.577-6.626-2.394-12.468-7.874-17.441-5.463-4.958-13.479-9.118-23.208-12.466C146.379 11.545 119.769 8 92.137 8v2c27.496 0 53.868 3.531 73.059 10.136 9.601 3.304 17.333 7.353 22.515 12.055 5.163 4.687 7.734 9.957 7.226 15.787zm-29.234 31.37c19.36-6.855 29.238-18.49 29.238-31.457h-2c0 11.758-8.94 22.856-27.905 29.573zm-19.563 4.708c7.37-1.122 13.865-2.689 19.563-4.707l-.667-1.885c-5.557 1.968-11.926 3.508-19.197 4.614zm-1.054-1.42c-7.408 15.545-18.347 22.999-37.267 35.353l1.093 1.674c18.871-12.321 30.297-20.046 37.98-36.166zm-36.001 36.884c13.532-14.043 21.951-23.204 24.775-34.76l-1.942-.475c-2.672 10.93-10.637 19.697-24.273 33.847zm4.568-33.333c6.927 0 13.354-.222 19.311-.668l-.15-1.994c-5.899.441-12.276.662-19.161.662zm-87.871-8.613c19.078 7.13 48.786 10.828 87.928 8.612l-.113-1.997c-39.005 2.208-68.401-1.494-87.115-8.489z"/><path fill="#fff" d="M19.396 43.854q0 .26-.136.505-.137.233-.643.547-.505.315-1.121.602-.615.273-1.19.478-.573.192-.847.192-.192 0-.451-.096a3.2 3.2 0 0 1-.998-.533 1.4 1.4 0 0 1-.301-.342q-.055-.095-.11-.383a20 20 0 0 1-.082-.67l-.054-.806-.055-.82q-.013-.397-.027-.698v-.437q0-.507.027-1.163.04-.655.137-1.312.096-.67.273-1.271.192-.615.506-1.04.095-.123.383-.26.287-.135.67-.26a14 14 0 0 1 1.709-.41q.423-.081.766-.122a4 4 0 0 1 .519-.055q.205 0 .383.096a.8.8 0 0 1 .314.232q.137.15.205.342a.9.9 0 0 1 .082.383.7.7 0 0 1-.054.3 1.3 1.3 0 0 1-.137.274q-.137.178-.574.424a15.5 15.5 0 0 1-1.942.916q-.465.19-.656.273-.054.315-.123.643-.054.315-.082.642.425-.218.957-.41a3 3 0 0 1 1.012-.191q.97 0 .97.957a.85.85 0 0 1-.095.41 1 1 0 0 1-.233.315q-.136.136-.328.246l-.355.191a8 8 0 0 1-.916.41l-.957.328a5 5 0 0 0-.055.246 1 1 0 0 0-.027.246q0 .192.027.383l.055.383q.164-.054.52-.178.368-.123.765-.246t.765-.205q.37-.096.547-.095.206 0 .383.095a.8.8 0 0 1 .301.233q.123.136.191.328a1 1 0 0 1 .082.383M26 42.09q0 .752-.15 1.49-.151.738-.506 1.326a2.75 2.75 0 0 1-.957.93q-.588.355-1.477.355-.874 0-1.463-.341a2.8 2.8 0 0 1-.943-.93 4.2 4.2 0 0 1-.492-1.299 8 8 0 0 1-.137-1.477q0-.82.191-1.626.042-.22.15-.602.124-.397.301-.766.193-.383.424-.656.246-.273.534-.273.273 0 .437.15.165.15.26.383.096.219.123.478.027.247.027.452 0 .314-.055.615-.04.3-.095.601l-.11.82a8 8 0 0 0-.027 1.286q.027.246.11.478.082.233.232.397.15.15.424.15.356 0 .56-.191.218-.191.315-.479.11-.287.136-.615.028-.329.028-.602 0-.6-.082-1.175a47 47 0 0 1-.15-1.19 1.3 1.3 0 0 1 .055-.602q.067-.204.19-.368a.9.9 0 0 1 .301-.26.74.74 0 0 1 .397-.11q.3 0 .533.22.232.204.383.546.165.329.26.752.108.41.163.82.069.397.083.752.027.356.027.56m8.135-3.61q0 .397-.274.588-.26.192-.588.37-.328.163-.601.396-.26.232-.26.697 0 .246.11.424.122.178.287.328.178.137.382.287t.37.342q.177.192.287.465.123.273.123.67 0 .574-.301 1.135a3.73 3.73 0 0 1-1.777 1.668q-.575.26-1.135.26-.232 0-.465-.042a1.3 1.3 0 0 1-.424-.123.9.9 0 0 1-.3-.26.77.77 0 0 1-.124-.45q0-.384.15-.588.151-.219.383-.342.233-.123.493-.192.272-.068.506-.164a1.2 1.2 0 0 0 .382-.273q.15-.165.15-.465 0-.287-.232-.588-.219-.315-.492-.656a7 7 0 0 1-.506-.752 1.8 1.8 0 0 1-.218-.875q0-.588.232-1.08.246-.507.643-.875.41-.37.93-.575a2.8 2.8 0 0 1 1.093-.218q.219 0 .424.04.219.042.383.151.164.096.26.274.109.163.109.423m3.144 7.917q-.697 0-1.217-.37a3.2 3.2 0 0 1-.875-.943 4.5 4.5 0 0 1-.533-1.272 5.7 5.7 0 0 1-.178-1.394q0-.725.178-1.49.178-.78.547-1.408.369-.643.943-1.04.575-.41 1.368-.41.765 0 1.298.424.548.41.875 1.04.33.614.465 1.353.136.738.096 1.394-.041.725-.232 1.463a4.7 4.7 0 0 1-.534 1.326q-.355.588-.902.957-.546.37-1.299.37m.137-6.18q-.205 0-.37.218-.15.219-.259.534-.096.315-.15.67a4 4 0 0 0-.055.601q0 .329.055.711.067.383.177.711.11.315.26.533.165.205.37.205.218 0 .368-.205.165-.205.26-.52.096-.314.137-.683.04-.383.04-.71 0-.302-.054-.657a4 4 0 0 0-.164-.684 1.5 1.5 0 0 0-.26-.52q-.15-.204-.355-.204m9.516 1.873q0 .752-.15 1.49-.152.738-.507 1.326a2.75 2.75 0 0 1-.957.93q-.588.355-1.476.355-.876 0-1.463-.341a2.8 2.8 0 0 1-.944-.93 4.2 4.2 0 0 1-.492-1.299 8 8 0 0 1-.136-1.477q0-.82.191-1.626a5.6 5.6 0 0 1 .451-1.367q.192-.384.424-.657.246-.273.533-.273.274 0 .438.15t.26.383q.095.219.123.478.027.247.027.452 0 .314-.055.615-.041.3-.096.601l-.109.82a8 8 0 0 0-.027 1.286q.026.246.11.478.08.233.232.397.15.15.423.15.356 0 .56-.191.22-.191.315-.479.11-.287.137-.615.027-.329.027-.602 0-.6-.082-1.175a47 47 0 0 1-.15-1.19 1.3 1.3 0 0 1 .055-.602q.068-.204.191-.368a.9.9 0 0 1 .3-.26.74.74 0 0 1 .397-.11q.3 0 .534.22.231.204.382.546.164.329.26.752.11.41.164.82.069.397.082.752.027.356.027.56m6.726 4.307q-.697 0-1.217-.37a3.2 3.2 0 0 1-.875-.943 4.5 4.5 0 0 1-.533-1.272 5.7 5.7 0 0 1-.178-1.394q0-.725.178-1.49.178-.78.547-1.408.369-.643.943-1.04.575-.41 1.367-.41.766 0 1.3.424.546.41.874 1.04.33.614.465 1.353a5.7 5.7 0 0 1 .096 1.394q-.04.725-.233 1.463a4.7 4.7 0 0 1-.533 1.326q-.356.588-.902.957-.548.37-1.299.37m.137-6.18q-.205 0-.37.218-.15.219-.26.534-.095.315-.15.67a4 4 0 0 0-.054.601q0 .329.055.711.068.383.177.711.11.315.26.533.164.205.37.205.218 0 .368-.205.165-.205.26-.52.096-.314.137-.683.04-.383.04-.71 0-.302-.054-.657a4 4 0 0 0-.164-.684 1.5 1.5 0 0 0-.26-.52q-.15-.204-.355-.204m13.494-1.408a3.3 3.3 0 0 1-.437 1.695 4.7 4.7 0 0 1-1.163 1.326q.22.328.452.766.231.437.41.93.191.478.3.97.123.479.124.889 0 .437-.22.78-.204.354-.71.355-.424 0-.739-.41a5 5 0 0 1-.546-.971q-.233-.574-.438-1.162a7 7 0 0 0-.369-.944 4 4 0 0 0-.479.192q-.232.095-.478.191-.014.3-.055.834a6 6 0 0 1-.15 1.04 2.9 2.9 0 0 1-.342.901q-.233.383-.642.383a.79.79 0 0 1-.698-.369 2.5 2.5 0 0 1-.355-.875q-.096-.506-.11-1.025-.013-.534-.013-.834 0-.643.027-1.258.027-.63.027-1.272 0-.588-.027-1.175a51 51 0 0 1-.014-1.19v-.342q0-.218.014-.437.028-.232.055-.438a.9.9 0 0 1 .096-.328q.136-.286.615-.547a7 7 0 0 1 1.066-.45q.588-.205 1.135-.315.561-.123.834-.123.697 0 1.23.26.534.26.889.71.356.438.533 1.026.178.574.178 1.217m-2.53.191q0-.356-.163-.533-.165-.192-.534-.192-.273 0-.56.096a4 4 0 0 0-.506.219q.054 1.08.041 2.146.286-.094.588-.246.3-.15.547-.369.26-.219.424-.492T64.76 39m8.819 5.072q0 .246-.027.643-.015.396-.11.78-.096.368-.3.642a.68.68 0 0 1-.575.273q-.506 0-.779-.328t-.26-.82a3.4 3.4 0 0 1-.998.601 3 3 0 0 1-1.12.219q-.397 0-.753-.191a2.4 2.4 0 0 1-.629-.493 2.5 2.5 0 0 1-.437-.67 1.9 1.9 0 0 1-.164-.751q0-.656.396-1.149.41-.492.998-.834a5.7 5.7 0 0 1 1.244-.56 7.5 7.5 0 0 1 1.19-.274v-.123a.5.5 0 0 0 .013-.123q0-.423-.232-.684-.233-.26-.656-.26a1.3 1.3 0 0 0-.588.124q-.247.11-.465.26-.22.135-.437.26-.219.108-.493.109a.76.76 0 0 1-.52-.192.64.64 0 0 1-.204-.492q0-.45.26-.82.273-.369.67-.616.41-.26.874-.396.48-.15.876-.15.369 0 .738.095.369.082.697.274.329.178.588.451.273.26.437.615.247.506.397 1.08.15.56.232 1.162.082.588.11 1.19.027.588.027 1.148m-2.187-.437-.041-.93h-.055a.1.1 0 0 0-.055-.014 1.4 1.4 0 0 0-.451.096 2 2 0 0 0-.506.246 2 2 0 0 0-.424.342.6.6 0 0 0-.164.397q0 .19.137.26a.7.7 0 0 0 .314.068q.3 0 .643-.15.341-.165.602-.315m.656-7.985q0 .15-.082.301a1.4 1.4 0 0 1-.205.26q-.11.123-.246.232a9 9 0 0 0-.246.178q-.096.069-.22.164-.108.083-.245.164a2 2 0 0 1-.26.123.6.6 0 0 1-.246.055.34.34 0 0 1-.192-.055.24.24 0 0 1-.082-.191q0-.205.15-.492.165-.3.397-.575.233-.286.492-.478.26-.205.479-.205.191 0 .342.164.165.15.164.355m8.613 6.276q0 .6-.137 1.326a4.6 4.6 0 0 1-.437 1.326q-.3.615-.807 1.025-.492.41-1.244.41-.191 0-.396-.027a2 2 0 0 1-.397-.095 1.4 1.4 0 0 1-.328-.178.8.8 0 0 1-.233-.315l-.123 1.97a63 63 0 0 0-.027.751q0 .438-.11.834a1.5 1.5 0 0 1-.341.67q-.233.288-.684.287-.26 0-.437-.273a2.2 2.2 0 0 1-.287-.67 8 8 0 0 1-.15-.916q-.055-.506-.069-.97-.014-.465-.014-.849v-.56q0-.916-.013-1.819-.014-.915-.014-1.831v-.506q0-.356.027-.766.028-.41.082-.848.069-.437.192-.793.123-.37.314-.587a.58.58 0 0 1 .465-.233q.178 0 .314.11.15.095.247.26.11.15.177.327.069.178.11.329.423-.48.97-.725.56-.246 1.19-.246.656 0 1.066.369.425.369.657.916.246.546.341 1.176.096.615.096 1.12m-1.955-.11q0-.204-.041-.41a1.1 1.1 0 0 0-.123-.396.67.67 0 0 0-.246-.301.66.66 0 0 0-.41-.123q-.33 0-.698.219a1.5 1.5 0 0 0-.533.478q-.068.11-.082.356t-.014.369v.26a42 42 0 0 1 .055.629q.027.15.069.232.04.123.177.232.137.096.301.178.165.083.328.123.178.041.301.041a.57.57 0 0 0 .465-.219q.178-.218.273-.52.11-.3.137-.614.04-.33.041-.534m5.045-5.359a.57.57 0 0 1-.11.342q-.095.15-.26.273-.163.11-.355.178a1.3 1.3 0 0 1-.355.055.84.84 0 0 1-.479-.137q-.204-.137-.205-.424 0-.205.096-.355a.9.9 0 0 1 .26-.26q.15-.11.341-.164t.37-.055a.96.96 0 0 1 .478.123q.219.123.219.424m.11 4.648v.41q0 .206-.014.397a11 11 0 0 0-.014.629q0 .383-.027.834-.028.45-.096.916-.055.465-.192.848a1.8 1.8 0 0 1-.369.629.78.78 0 0 1-.56.246.5.5 0 0 1-.438-.205 1.9 1.9 0 0 1-.3-.561 4.7 4.7 0 0 1-.164-.78q-.055-.436-.083-.833a11 11 0 0 1-.027-.752v-1.121q0-.41.027-.875.028-.465.096-.944.083-.478.219-.875.15-.396.383-.642a.77.77 0 0 1 .588-.246q.37 0 .56.369t.287.861q.095.492.11.985.013.478.013.71m6.863-4.101q0 .998-.082 1.982a29 29 0 0 0-.069 1.983q0 .806.041 1.6.055.792.055 1.599 0 .22-.014.533-.013.3-.096.588a1.14 1.14 0 0 1-.246.492q-.164.205-.478.205a.89.89 0 0 1-.684-.3 1.5 1.5 0 0 1-.328-.698 2.34 2.34 0 0 1-.752.834 1.83 1.83 0 0 1-1.066.342q-.615 0-1.067-.424a3.7 3.7 0 0 1-.738-1.025 6 6 0 0 1-.437-1.258 5.7 5.7 0 0 1-.137-1.135 8.5 8.5 0 0 1 .178-1.668q.11-.45.273-.875.165-.437.41-.779.26-.342.602-.547.356-.205.806-.205.493 0 .944.287.45.288.683.711l.123-2.174q.014-.26.041-.601.028-.355.11-.67.096-.315.287-.533.191-.22.56-.22.397 0 .616.192t.314.492q.11.287.123.63.028.34.028.642m-2.229 6.07q0-.314-.014-.615-.014-.3 0-.615a8 8 0 0 0-.191-.383 1.7 1.7 0 0 0-.273-.396 1.4 1.4 0 0 0-.342-.315.75.75 0 0 0-.41-.123.54.54 0 0 0-.397.15q-.15.15-.219.37a2.2 2.2 0 0 0-.095.45q-.014.247-.014.425 0 .164.027.492.028.314.096.642.083.328.219.575.136.245.369.246a1 1 0 0 0 .355-.069q.178-.082.328-.191.165-.123.301-.26.15-.15.26-.273zm5.729 3.323q-.697 0-1.217-.37a3.2 3.2 0 0 1-.875-.943 4.5 4.5 0 0 1-.533-1.272 5.7 5.7 0 0 1-.178-1.394q0-.725.178-1.49.177-.78.546-1.408.37-.643.944-1.04.574-.41 1.367-.41.765 0 1.299.424.546.41.875 1.04.328.614.465 1.353.136.738.095 1.394-.04.725-.232 1.463a4.6 4.6 0 0 1-.533 1.326q-.355.588-.903.957-.546.37-1.298.37m.136-6.18q-.205 0-.369.218-.15.219-.26.534-.095.315-.15.67a4 4 0 0 0-.055.601q0 .329.055.711.069.383.178.711.11.315.26.533.163.205.369.205.218 0 .369-.205.165-.205.26-.52.095-.314.136-.683.041-.383.041-.71 0-.302-.054-.657a4 4 0 0 0-.164-.684 1.5 1.5 0 0 0-.26-.52q-.15-.204-.356-.204m6.084.055q0 .218-.027.601-.028.369-.082.807a8 8 0 0 1-.164.875 6 6 0 0 1-.233.806q-.136.356-.328.588a.57.57 0 0 1-.437.219q-.3 0-.52-.287a3 3 0 0 1-.355-.752 7.5 7.5 0 0 1-.219-1.026 16 16 0 0 1-.123-1.093 23 23 0 0 1-.055-.998v-1.327q0-.383.028-.806.04-.424.109-.834.082-.424.232-.766t.397-.547a.9.9 0 0 1 .615-.218q.329 0 .533.287.219.274.342.724.136.438.192.985.067.546.082 1.08.027.52.013.97zm-.259 5.195a.77.77 0 0 1-.11.41.9.9 0 0 1-.287.273 1.2 1.2 0 0 1-.383.178 1.6 1.6 0 0 1-.41.055 1.1 1.1 0 0 1-.574-.164q-.274-.15-.274-.492a.65.65 0 0 1 .11-.37q.123-.177.3-.3.179-.123.383-.192a1.4 1.4 0 0 1 .41-.068q.315 0 .575.164.26.15.26.506m11.292-1.49q0 .273-.054.656a3 3 0 0 1-.178.738 1.8 1.8 0 0 1-.369.588q-.233.232-.615.232-.507 0-.766-.369a2.5 2.5 0 0 1-.355-.875 7 7 0 0 1-.137-1.053 51 51 0 0 0-.027-.847q-.985.164-1.942.287-.027.315-.123.78-.083.465-.273.902a2.4 2.4 0 0 1-.479.738.92.92 0 0 1-.711.314.64.64 0 0 1-.519-.232 1.9 1.9 0 0 1-.274-.574 3.3 3.3 0 0 1-.123-.67 16 16 0 0 1-.014-.588q0-.78.124-1.531.123-.766.287-1.518.081-.396.218-.93.138-.533.329-1.093.204-.575.464-1.122.274-.56.616-.998.34-.437.779-.71.438-.274.971-.274.52 0 .902.232t.67.616.478.875q.192.479.315.984.136.493.219.97.095.48.164.848.177.889.3 1.805.123.903.123 1.819m-2.638-3.323q0-.164-.028-.533a5 5 0 0 0-.082-.752 2.3 2.3 0 0 0-.218-.67q-.137-.3-.383-.3-.137 0-.26.19a2 2 0 0 0-.219.466 6 6 0 0 0-.177.615q-.069.342-.123.656a8 8 0 0 0-.082.574l-.041.356a19 19 0 0 0 1.613-.205zm6.713 5.838q-.97 0-1.518-.26a1.77 1.77 0 0 1-.807-.71q-.26-.465-.314-1.122a18 18 0 0 1-.055-1.462q0-.643.041-1.286.042-.656.123-1.394-.19 0-.3.014h-.178a1.4 1.4 0 0 1-.752-.192.63.63 0 0 1-.328-.588q0-.246.191-.437.178-.192.465-.328.287-.137.615-.22.342-.08.643-.109 0-.382.055-.847.054-.465.191-.861.15-.411.396-.684a.81.81 0 0 1 .629-.274.58.58 0 0 1 .383.137.9.9 0 0 1 .287.328q.11.192.164.438t.055.478q0 .275-.041.56a7 7 0 0 1-.15.712q.232-.027.314-.028a1 1 0 0 1 .15-.013q.233 0 .479.04.26.042.465.138.219.095.355.26a.53.53 0 0 1 .137.368q0 .247-.205.438a1.7 1.7 0 0 1-.492.328 3.6 3.6 0 0 1-.643.219 6 6 0 0 1-.642.096q-.083.56-.123 1.038-.028.465-.069.944l-.055.478a8 8 0 0 0 0 .903q.015.233.096.45a1 1 0 0 0 .26.384q.178.15.492.15.192 0 .397-.027.204-.042.41-.041.355 0 .506.246.164.246.164.629 0 .287-.178.506a1.2 1.2 0 0 1-.424.328 2.2 2.2 0 0 1-.588.205q-.314.068-.601.068m8.052-4.402q0 .752-.15 1.49a4.1 4.1 0 0 1-.506 1.326 2.75 2.75 0 0 1-.957.93q-.588.355-1.476.355-.876 0-1.463-.341a2.8 2.8 0 0 1-.944-.93 4.2 4.2 0 0 1-.492-1.299 8 8 0 0 1-.137-1.477q0-.82.192-1.626.04-.22.15-.602.124-.397.301-.766.192-.383.424-.656.246-.273.533-.273.273 0 .438.15.163.15.259.383.096.219.123.478.028.247.028.452 0 .314-.055.615-.04.3-.096.601l-.109.82a8 8 0 0 0-.027 1.286q.027.246.109.478.082.233.232.397.151.15.424.15.356 0 .561-.191.219-.191.314-.479.11-.287.137-.615.027-.329.027-.602 0-.6-.082-1.175a48 48 0 0 1-.15-1.19 1.3 1.3 0 0 1 .055-.602q.068-.204.191-.368a.9.9 0 0 1 .301-.26.74.74 0 0 1 .396-.11q.301 0 .533.22.233.204.383.546.165.329.26.752.11.41.164.82.069.397.082.752.027.356.027.56m3.432 4.307q-.697 0-1.217-.37a3.2 3.2 0 0 1-.875-.943 4.5 4.5 0 0 1-.533-1.272 5.8 5.8 0 0 1-.178-1.394q0-.725.178-1.49.178-.78.547-1.408.369-.643.943-1.04.575-.41 1.367-.41.766 0 1.299.424.548.41.875 1.04.328.614.465 1.353.137.738.096 1.394-.04.725-.233 1.463a4.6 4.6 0 0 1-.533 1.326q-.356.588-.902.957-.547.37-1.299.37m.137-6.18q-.206 0-.369.218a2.2 2.2 0 0 0-.26.534 5 5 0 0 0-.151.67 4 4 0 0 0-.054.601q0 .329.054.711.069.383.178.711.11.315.26.533.163.205.369.205.219 0 .369-.205.164-.205.26-.52.095-.314.137-.683.04-.383.041-.71 0-.302-.055-.657a3.7 3.7 0 0 0-.164-.684 1.5 1.5 0 0 0-.26-.52q-.15-.204-.355-.204m9.379-2.502q0 .738-.069 1.49-.054.738-.054 1.49 0 .971.054 1.942.069.97.069 1.955 0 .245-.028.56-.027.301-.136.56a1.05 1.05 0 0 1-.301.438q-.205.178-.547.178-.328 0-.574-.328a2.9 2.9 0 0 1-.397-.807q-.15-.505-.259-1.12-.096-.615-.151-1.19-.04-.588-.068-1.067-.014-.492-.014-.724 0-.26.014-.752a17 17 0 0 1 .273-2.229 6.3 6.3 0 0 1 .315-1.08q.191-.492.451-.793.273-.315.642-.314.301 0 .452.205.163.192.232.478.069.274.082.588.014.3.014.52m3.636 8.682q-.697 0-1.216-.37a3.2 3.2 0 0 1-.875-.943 4.5 4.5 0 0 1-.534-1.272 5.8 5.8 0 0 1-.177-1.394q0-.725.177-1.49.178-.78.547-1.408.37-.643.944-1.04.573-.41 1.367-.41.765 0 1.299.424.546.41.875 1.04.327.614.465 1.353.137.738.095 1.394-.041.725-.232 1.463a4.7 4.7 0 0 1-.533 1.326q-.356.588-.903.957-.546.37-1.299.37m.137-6.18q-.205 0-.369.218-.15.219-.26.534a5 5 0 0 0-.15.67 4 4 0 0 0-.055.601q0 .329.055.711.068.383.178.711.108.315.259.533.165.205.369.205.219 0 .37-.205.164-.205.259-.52.096-.314.137-.683.04-.383.041-.71 0-.302-.055-.657a3.7 3.7 0 0 0-.164-.684 1.5 1.5 0 0 0-.259-.52q-.151-.204-.356-.204m9.721 1.12q0 .698-.028 1.395-.013.698-.068 1.395-.041.602-.109 1.285-.069.684-.219 1.354-.15.682-.396 1.299a3.8 3.8 0 0 1-.657 1.107 3 3 0 0 1-.97.766q-.575.286-1.368.287-.369 0-.834-.123a3.7 3.7 0 0 1-.861-.329 2.5 2.5 0 0 1-.684-.546 1.1 1.1 0 0 1-.273-.739q0-.314.219-.588a.76.76 0 0 1 .588-.26q.219 0 .41.069.206.082.396.178.206.095.383.164a1 1 0 0 0 .383.082q.506 0 .848-.26a1.8 1.8 0 0 0 .546-.642q.205-.383.301-.848.11-.452.151-.861-.274.314-.643.437-.356.11-.752.11-.725 0-1.23-.247a2.3 2.3 0 0 1-.821-.697 3.2 3.2 0 0 1-.465-1.04q-.15-.587-.15-1.27 0-.424.082-.958a8.1 8.1 0 0 1 .711-2.146 4.5 4.5 0 0 1 .629-.916q.355-.397.793-.643.451-.246.984-.246.52 0 .916.301.41.3.479.848.15-.288.396-.56a.76.76 0 0 1 .602-.288q.19 0 .314.191.137.192.205.506.083.3.123.67.042.355.055.711.014.342.014.63zm-2.078.89a2.7 2.7 0 0 0-.069-.534 3 3 0 0 0-.177-.628 1.8 1.8 0 0 0-.287-.52.53.53 0 0 0-.424-.219.82.82 0 0 0-.561.219 2 2 0 0 0-.396.533q-.165.301-.26.656a2.6 2.6 0 0 0-.082.588q0 .178.027.479.027.3.11.588.094.287.246.492.15.205.396.205.369 0 .643-.178a1.5 1.5 0 0 0 .451-.451q.19-.273.287-.602t.096-.628m5.646 4.17q-.697 0-1.217-.37a3.2 3.2 0 0 1-.875-.943 4.5 4.5 0 0 1-.533-1.272 5.8 5.8 0 0 1-.178-1.394q0-.725.178-1.49.178-.78.547-1.408a3.15 3.15 0 0 1 .943-1.04q.575-.41 1.368-.41.765 0 1.298.424.548.41.875 1.04.328.614.465 1.353.136.738.096 1.394-.041.725-.232 1.463a4.7 4.7 0 0 1-.534 1.326 3 3 0 0 1-.902.957q-.548.37-1.299.37m.137-6.18q-.205 0-.369.218-.15.219-.26.534a5 5 0 0 0-.15.67 4 4 0 0 0-.055.601q0 .329.055.711.067.383.177.711.11.315.26.533.164.205.369.205.219 0 .369-.205.165-.205.26-.52.096-.314.137-.683.04-.383.041-.71 0-.302-.055-.657a3.7 3.7 0 0 0-.164-.684 1.5 1.5 0 0 0-.26-.52q-.15-.204-.355-.204m12.633 3.855q0 .246-.028.643a3.7 3.7 0 0 1-.109.78q-.096.368-.301.642a.68.68 0 0 1-.574.273q-.506 0-.779-.328-.274-.328-.26-.82a3.4 3.4 0 0 1-.998.601 3 3 0 0 1-1.121.219q-.397 0-.752-.191a2.3 2.3 0 0 1-.629-.493 2.5 2.5 0 0 1-.438-.67 1.9 1.9 0 0 1-.164-.751q0-.656.397-1.149.41-.492.998-.834a5.7 5.7 0 0 1 1.244-.56 7.5 7.5 0 0 1 1.19-.274v-.123a.5.5 0 0 0 .013-.123q0-.423-.232-.684-.233-.26-.656-.26a1.3 1.3 0 0 0-.588.124q-.246.11-.465.26-.219.135-.438.26-.219.108-.492.109a.76.76 0 0 1-.519-.192.64.64 0 0 1-.206-.492q0-.45.26-.82.274-.369.67-.616.41-.26.875-.396.479-.15.875-.15.369 0 .738.095.37.082.698.274.327.178.588.451.273.26.437.615.246.506.397 1.08.15.56.232 1.162.082.588.109 1.19.028.588.028 1.148m-2.188-.437-.041-.93h-.054a.1.1 0 0 0-.055-.014q-.178 0-.451.096a2 2 0 0 0-.506.246 2 2 0 0 0-.424.342.6.6 0 0 0-.164.397q0 .19.137.26a.7.7 0 0 0 .314.068 1.6 1.6 0 0 0 .643-.15q.342-.165.601-.315m9.27-1.71q0 .603-.137 1.327a4.7 4.7 0 0 1-.437 1.326 3 3 0 0 1-.807 1.025q-.492.41-1.244.41-.192 0-.397-.027a2 2 0 0 1-.396-.095 1.4 1.4 0 0 1-.328-.178.8.8 0 0 1-.233-.315l-.123 1.97q-.014.314-.027.751 0 .438-.11.834a1.5 1.5 0 0 1-.341.67q-.233.288-.684.287-.26 0-.437-.273a2.2 2.2 0 0 1-.288-.67 8 8 0 0 1-.15-.916q-.054-.506-.068-.97-.014-.465-.014-.849v-.56q0-.916-.014-1.819-.013-.915-.013-1.831v-.506q0-.356.027-.766.028-.41.082-.848.069-.437.191-.793a1.7 1.7 0 0 1 .315-.587.58.58 0 0 1 .465-.233q.177 0 .314.11.15.095.246.26.11.15.178.327.069.178.109.329.425-.48.971-.725.56-.246 1.19-.246.656 0 1.066.369.424.369.656.916.246.546.342 1.176.096.615.096 1.12m-1.955-.109q0-.204-.041-.41a1.2 1.2 0 0 0-.123-.396.67.67 0 0 0-.246-.301.67.67 0 0 0-.411-.123q-.327 0-.697.219a1.5 1.5 0 0 0-.533.478q-.069.11-.082.356a8 8 0 0 0-.014.369v.26l.028.314.027.315q.027.15.068.232.042.123.178.232.136.096.301.178.164.083.328.123.178.041.301.041a.57.57 0 0 0 .465-.219 1.6 1.6 0 0 0 .273-.52q.109-.3.137-.614a5 5 0 0 0 .041-.534m5.386 4.58q-.696 0-1.216-.369a3.2 3.2 0 0 1-.875-.943 4.5 4.5 0 0 1-.534-1.272 5.8 5.8 0 0 1-.177-1.394q0-.725.177-1.49.178-.78.547-1.408.37-.643.944-1.04.573-.41 1.367-.41.765 0 1.299.424.546.41.875 1.04.327.614.464 1.353.138.738.096 1.394-.041.725-.232 1.463a4.7 4.7 0 0 1-.533 1.326q-.356.588-.903.957-.546.37-1.299.37m.137-6.18q-.206 0-.369.22-.15.218-.26.533a5 5 0 0 0-.15.67 4 4 0 0 0-.055.601q0 .329.055.711.068.383.178.711.108.315.259.533.165.205.369.205.219 0 .37-.205.164-.205.259-.52.096-.314.137-.683.04-.383.041-.71 0-.302-.055-.657a3.7 3.7 0 0 0-.164-.684 1.5 1.5 0 0 0-.259-.52q-.151-.204-.356-.204m1.545-4.429q0 .15-.082.3a1.4 1.4 0 0 1-.205.26q-.11.124-.246.233a10 10 0 0 0-.246.178q-.096.068-.219.164-.11.083-.246.164a2 2 0 0 1-.26.123.6.6 0 0 1-.246.055.33.33 0 0 1-.191-.055.24.24 0 0 1-.082-.191q0-.205.15-.493.164-.3.396-.574.232-.286.493-.478.26-.205.478-.205.192 0 .342.164.164.15.164.355m5.988 2.694q0 .396-.273.587-.26.192-.588.37-.328.163-.602.396-.26.232-.259.697 0 .246.109.424.123.178.287.328.178.137.383.287t.369.342q.178.192.287.465.123.273.123.67 0 .574-.301 1.135a3.73 3.73 0 0 1-1.777 1.668q-.574.26-1.135.26-.233 0-.464-.042a1.3 1.3 0 0 1-.424-.123.9.9 0 0 1-.301-.26.8.8 0 0 1-.123-.45q0-.384.15-.588.151-.219.383-.342t.492-.192q.274-.068.506-.164.233-.11.383-.273.15-.165.15-.465 0-.287-.232-.588-.219-.315-.492-.656a7 7 0 0 1-.506-.752 1.8 1.8 0 0 1-.219-.875q0-.588.233-1.08.246-.507.642-.875.41-.37.93-.575a2.8 2.8 0 0 1 1.094-.218q.218 0 .423.04.22.042.383.151.165.096.26.274a.75.75 0 0 1 .109.423M71.732 62.072q0 .246-.027.643-.015.396-.11.78-.094.368-.3.642a.68.68 0 0 1-.574.273q-.506 0-.78-.328-.273-.328-.26-.82a3.4 3.4 0 0 1-.998.601 3 3 0 0 1-1.12.219q-.398 0-.752-.191a2.4 2.4 0 0 1-.63-.493 2.5 2.5 0 0 1-.437-.67 1.9 1.9 0 0 1-.164-.751q0-.656.397-1.149.41-.492.998-.834a5.7 5.7 0 0 1 1.244-.56 7.5 7.5 0 0 1 1.19-.274v-.123a.5.5 0 0 0 .013-.123q0-.423-.233-.684-.232-.26-.656-.26a1.3 1.3 0 0 0-.588.124q-.246.11-.465.26-.218.135-.437.26-.219.108-.492.109a.76.76 0 0 1-.52-.192.64.64 0 0 1-.205-.492q0-.45.26-.82.273-.369.67-.616.41-.26.875-.396.478-.15.875-.15.369 0 .738.095.37.082.697.274.33.178.588.451.274.26.438.615.246.506.396 1.08.15.56.233 1.162.08.588.109 1.19.027.588.027 1.148m-2.187-.437-.041-.93h-.055a.1.1 0 0 0-.055-.014 1.4 1.4 0 0 0-.45.096 2 2 0 0 0-.507.246 2 2 0 0 0-.423.342.6.6 0 0 0-.164.397q0 .19.136.26a.7.7 0 0 0 .315.068q.3 0 .642-.15.342-.165.602-.315m7.013-5.154q0 .396-.273.587-.26.192-.588.37-.329.163-.601.396-.26.232-.26.697 0 .246.11.424.122.178.286.328.178.137.383.287t.37.342q.177.192.286.465.123.273.123.67 0 .574-.3 1.135a3.73 3.73 0 0 1-1.777 1.668q-.575.26-1.135.26-.233 0-.465-.042a1.3 1.3 0 0 1-.424-.123.9.9 0 0 1-.3-.26.8.8 0 0 1-.124-.45q0-.384.15-.588.15-.219.383-.342a2.3 2.3 0 0 1 .492-.192q.274-.068.506-.164a1.2 1.2 0 0 0 .383-.273q.15-.165.15-.465 0-.287-.232-.588-.219-.315-.492-.656a7 7 0 0 1-.506-.752 1.8 1.8 0 0 1-.219-.875q0-.588.233-1.08a2.9 2.9 0 0 1 .642-.875q.411-.37.93-.575a2.8 2.8 0 0 1 1.094-.218q.219 0 .424.04.218.042.382.151.165.096.26.274.11.163.11.423m8.586 2.406a.9.9 0 0 1-.328-.028l-.273-.109a3 3 0 0 0-.246-.096.54.54 0 0 0-.274-.04q-.273.013-.492.15a2 2 0 0 0-.383.341q-.164.205-.287.465a3 3 0 0 0-.191.492q-.041.165-.069.506-.013.33-.013.711-.014.397-.014.752 0 .356-.027.56-.014.22-.069.52a2.3 2.3 0 0 1-.177.547 1.25 1.25 0 0 1-.301.438.7.7 0 0 1-.492.177.65.65 0 0 1-.41-.136 1.3 1.3 0 0 1-.287-.356 3.3 3.3 0 0 1-.192-.533 7 7 0 0 1-.11-.615q-.04-.329-.068-.656l-.027-.616v-.546q.014-.247.014-.397-.015-.479-.055-.957a17 17 0 0 1-.027-.97q0-.302.027-.67a2.3 2.3 0 0 1 .15-.684q.123-.328.356-.547.246-.219.67-.219.233 0 .396.15.164.15.26.37.11.218.164.465.056.245.068.45.329-.533.739-.86.41-.343 1.066-.37.328-.014.643.069.327.068.588.246.273.164.437.437.178.273.192.643.027.437-.26.67a1.14 1.14 0 0 1-.698.246m6.891 2.68q0 .465-.3.915a3.4 3.4 0 0 1-.739.793 4.3 4.3 0 0 1-.943.56 2.5 2.5 0 0 1-.93.206q-.724 0-1.299-.355a3.4 3.4 0 0 1-.943-.93 4.5 4.5 0 0 1-.588-1.23 5 5 0 0 1-.192-1.327q0-.684.192-1.463.191-.78.574-1.435.397-.657.984-1.094.602-.437 1.422-.437.465 0 .889.164a2.15 2.15 0 0 1 1.244 1.12q.192.397.192.89 0 .642-.274 1.203a3.2 3.2 0 0 1-.724.97q-.452.41-1.04.67a3.5 3.5 0 0 1-1.203.273q.055.397.315.575.273.178.642.178.274 0 .534-.137t.505-.301q.247-.177.479-.315.246-.136.492-.136a.76.76 0 0 1 .492.178.57.57 0 0 1 .22.464m-2.215-3.35a.8.8 0 0 0-.095-.37.32.32 0 0 0-.301-.19q-.301 0-.506.163-.205.15-.342.397a2.3 2.3 0 0 0-.219.506q-.068.273-.082.505.192-.04.451-.109.274-.068.506-.178.246-.123.41-.3a.58.58 0 0 0 .178-.424m8.49-2.393q0 .26-.054.506a1 1 0 0 1-.164.41.9.9 0 0 1-.328.287 1.2 1.2 0 0 1-.506.096q-.342 0-.506-.137a.75.75 0 0 1-.233-.328 1.7 1.7 0 0 1-.054-.437q0-.232-.028-.424a.75.75 0 0 0-.095-.342q-.082-.137-.301-.137-.205 0-.342.315-.123.315-.205.724a6 6 0 0 0-.11.807 9 9 0 0 0-.027.52q.178-.028.342-.041a2.2 2.2 0 0 1 .752.013q.205.041.383.137a.7.7 0 0 1 .287.246q.11.15.11.383a.57.57 0 0 1-.22.437 1.9 1.9 0 0 1-.505.328q-.288.123-.588.206-.3.08-.479.109.041.943.041 1.9 0 .903-.04 1.778a1.05 1.05 0 0 1-.301.697q-.26.273-.684.273a.8.8 0 0 1-.397-.095.75.75 0 0 1-.273-.233 1.4 1.4 0 0 1-.178-.342 2 2 0 0 1-.068-.396 49 49 0 0 1-.11-1.64q-.04-.835-.027-1.669-.095.015-.191.014h-.178a2.3 2.3 0 0 1-.847-.178 1.5 1.5 0 0 1-.356-.26.52.52 0 0 1-.15-.382q0-.301.205-.506a1.4 1.4 0 0 1 .465-.328 2.3 2.3 0 0 1 .587-.192q.315-.054.547-.082v-.218q0-.67.123-1.436t.438-1.422.861-1.08q.547-.437 1.395-.437.532 0 .916.232.383.219.629.588.246.355.355.82.11.451.11.916m5.223 5.742q0 .466-.301.916a3.3 3.3 0 0 1-.738.793 4.3 4.3 0 0 1-.943.56 2.5 2.5 0 0 1-.93.206q-.724 0-1.299-.355a3.4 3.4 0 0 1-.943-.93 4.5 4.5 0 0 1-.588-1.23 5 5 0 0 1-.191-1.327q0-.684.19-1.463.192-.78.575-1.435.397-.657.985-1.094.601-.437 1.421-.437.466 0 .889.164.425.15.738.437.315.287.506.684.192.396.192.888 0 .643-.274 1.204a3.2 3.2 0 0 1-.724.97 3.9 3.9 0 0 1-1.039.67 3.5 3.5 0 0 1-1.204.273q.056.397.315.575.273.178.642.178.274 0 .534-.137t.505-.301q.247-.177.479-.315.246-.136.492-.136.274 0 .492.178a.57.57 0 0 1 .219.464m-2.215-3.35a.8.8 0 0 0-.095-.368.32.32 0 0 0-.301-.192.8.8 0 0 0-.506.164q-.206.15-.342.397a2.3 2.3 0 0 0-.219.506q-.068.273-.082.505.192-.04.452-.109a3 3 0 0 0 .505-.178 1.4 1.4 0 0 0 .411-.3.58.58 0 0 0 .177-.424m5.018-3.759a.57.57 0 0 1-.11.342q-.095.15-.259.273-.164.11-.356.178a1.3 1.3 0 0 1-.355.055.84.84 0 0 1-.479-.137q-.204-.137-.205-.424 0-.205.096-.355a.9.9 0 0 1 .26-.26q.15-.11.341-.164a1.4 1.4 0 0 1 .37-.055q.26 0 .478.123.219.123.219.424m.109 4.648v.41q0 .206-.013.397-.015.233-.014.629 0 .383-.027.834-.029.45-.096.916-.055.465-.192.848a1.8 1.8 0 0 1-.369.629.78.78 0 0 1-.56.246.51.51 0 0 1-.438-.205 1.9 1.9 0 0 1-.301-.561 5 5 0 0 1-.164-.78q-.054-.436-.082-.833a12 12 0 0 1-.027-.752v-1.121q0-.41.027-.875.028-.465.096-.944.082-.478.219-.875.15-.396.383-.642a.77.77 0 0 1 .588-.246q.368 0 .56.369.191.369.287.861t.11.985q.013.478.013.71m5.223 6.905q0 .396-.192.738a2.2 2.2 0 0 1-.492.602q-.3.26-.683.41t-.752.15q-.274 0-.561-.054a1.7 1.7 0 0 1-.519-.165 1.8 1.8 0 0 1-.424-.314 1.2 1.2 0 0 1-.287-.479.4.4 0 0 1-.041-.177.48.48 0 0 1 .164-.37q.177-.15.369-.15a.42.42 0 0 1 .287.096l.26.232q.136.123.328.219.192.11.519.11.274 0 .52-.178a.56.56 0 0 0 .246-.479q0-.204-.15-.342a1.6 1.6 0 0 0-.328-.246l-.383-.219a.74.74 0 0 1-.287-.232q-.11-.15-.11-.437v-.657a1.9 1.9 0 0 1-.943-.492 3 3 0 0 1-.615-.889 4.7 4.7 0 0 1-.342-1.08 6 6 0 0 1-.11-1.093q0-.451.083-.957.081-.507.246-.998.163-.492.423-.944.26-.45.602-.793a3 3 0 0 1 .793-.547q.451-.205.998-.205.492 0 .861.22.37.218.602.573.246.356.369.793t.123.875q0 .11-.014.26 0 .15-.041.26a1.2 1.2 0 0 1-.355.478.9.9 0 0 1-.561.192q-.465 0-.642-.465a1 1 0 0 1-.041-.315 1.8 1.8 0 0 0-.014-.382.7.7 0 0 0-.096-.328q-.081-.138-.287-.137-.246 0-.465.3a3 3 0 0 0-.382.698q-.165.41-.26.834a3 3 0 0 0-.096.656q0 .178.028.478.04.288.123.575.094.286.246.492a.5.5 0 0 0 .41.205q.246 0 .451-.15t.396-.329q.192-.19.383-.341.192-.15.424-.15a.57.57 0 0 1 .465.218.74.74 0 0 1 .191.506q0 .355-.164.684a2.3 2.3 0 0 1-.424.574 2.7 2.7 0 0 1-.601.45 2.5 2.5 0 0 1-.67.274v.082q0 .082-.014.178a.34.34 0 0 1-.041.178q.22.082.479.219.26.15.478.341.219.206.369.438a.95.95 0 0 1 .151.506m3.937-1.614q-.697 0-1.216-.369a3.2 3.2 0 0 1-.875-.943 4.5 4.5 0 0 1-.534-1.272 5.8 5.8 0 0 1-.177-1.394q0-.725.177-1.49.178-.78.547-1.408.37-.643.944-1.04.573-.41 1.367-.41.765 0 1.299.424.546.41.875 1.04.327.614.464 1.353.138.738.096 1.394-.041.725-.232 1.463a4.7 4.7 0 0 1-.533 1.326q-.355.588-.903.957-.546.37-1.299.37m.137-6.18q-.206 0-.369.22-.15.218-.26.533a5 5 0 0 0-.15.67 4 4 0 0 0-.055.601q0 .329.055.711.068.383.178.711.109.315.259.533.165.205.369.205.219 0 .37-.205.164-.205.259-.52.096-.314.137-.683.04-.383.041-.71 0-.302-.055-.657a3.7 3.7 0 0 0-.164-.684 1.5 1.5 0 0 0-.259-.52q-.151-.204-.356-.204m2.68-4.401a.9.9 0 0 1-.137.437 2 2 0 0 1-.342.41 2.3 2.3 0 0 1-.437.3q-.232.11-.438.11-.204 0-.41-.068-.191-.082-.396-.178a4 4 0 0 0-.383-.164 1 1 0 0 0-.383-.082q-.15 0-.301.096a4 4 0 0 0-.314.191q-.165.096-.342.178a.7.7 0 0 1-.328.082.43.43 0 0 1-.356-.178.66.66 0 0 1-.136-.383.74.74 0 0 1 .164-.45q.164-.22.41-.384.246-.178.506-.273.274-.11.478-.11.232 0 .397.096.177.096.328.22.15.122.301.218a.74.74 0 0 0 .382.095.6.6 0 0 0 .329-.095q.164-.109.314-.233.164-.135.301-.232.15-.11.314-.11.192 0 .328.165a.5.5 0 0 1 .151.342m6.576 7.751q0 .466-.301.916a3.3 3.3 0 0 1-.738.793 4.3 4.3 0 0 1-.943.56 2.5 2.5 0 0 1-.93.206q-.725 0-1.299-.355a3.4 3.4 0 0 1-.943-.93 4.5 4.5 0 0 1-.588-1.23 5 5 0 0 1-.192-1.327q0-.684.192-1.463.191-.78.574-1.435a3.8 3.8 0 0 1 .984-1.094q.602-.437 1.422-.437.465 0 .889.164a2.14 2.14 0 0 1 1.244 1.12q.191.397.191.89 0 .642-.273 1.203a3.2 3.2 0 0 1-.725.97q-.45.41-1.039.67a3.5 3.5 0 0 1-1.203.273q.055.397.315.575.273.178.642.178.274 0 .533-.137a6 6 0 0 0 .506-.301 6 6 0 0 1 .479-.315q.246-.136.492-.136a.76.76 0 0 1 .492.178.57.57 0 0 1 .219.464m-2.215-3.35a.8.8 0 0 0-.096-.368.315.315 0 0 0-.3-.192.78.78 0 0 0-.506.164q-.206.15-.342.397a2.3 2.3 0 0 0-.219.506q-.068.273-.082.505.192-.04.451-.109.274-.068.506-.178.246-.123.41-.3a.58.58 0 0 0 .178-.424m6.768-1.736q0 .397-.274.588-.26.192-.588.37-.327.163-.601.396-.26.232-.26.697 0 .246.109.424.123.178.288.328.178.137.382.287.206.15.369.342.178.192.288.465.123.273.123.67 0 .574-.301 1.135a3.75 3.75 0 0 1-1.777 1.668q-.575.26-1.135.26-.233 0-.465-.042a1.3 1.3 0 0 1-.424-.123.9.9 0 0 1-.301-.26.8.8 0 0 1-.123-.45q0-.384.151-.588.15-.219.382-.342t.493-.192q.273-.068.505-.164.233-.11.383-.273.151-.165.151-.465 0-.287-.233-.588-.219-.315-.492-.656a7 7 0 0 1-.506-.752 1.8 1.8 0 0 1-.219-.875q0-.588.233-1.08.246-.507.642-.875.411-.37.93-.575a2.8 2.8 0 0 1 1.094-.218q.219 0 .424.04.218.042.383.151a.7.7 0 0 1 .259.274q.11.163.11.423m2.529 6.864a.7.7 0 0 1-.082.328.8.8 0 0 1-.219.232 1 1 0 0 1-.287.15.9.9 0 0 1-.314.055q-.205 0-.452-.082a1.6 1.6 0 0 1-.437-.205 1.5 1.5 0 0 1-.328-.314.7.7 0 0 1-.137-.424q0-.369.315-.547.314-.19.642-.191.205 0 .424.068.232.069.424.205a1 1 0 0 1 .328.315.7.7 0 0 1 .123.41"/><defs><filter id="a" width="197" height="116" x="0" y="8" color-interpolation-filters="sRGB" filterUnits="userSpaceOnUse"><feFlood flood-opacity="0" result="BackgroundImageFix"/><feBlend in="SourceGraphic" in2="BackgroundImageFix" result="shape"/><feColorMatrix in="SourceAlpha" result="hardAlpha" values="0 0 0 0 0 0 0 0 0 0 0 0 0 0 0 0 0 0 127 0"/><feOffset dy="4"/><feGaussianBlur stdDeviation="2"/><feComposite in2="hardAlpha" k2="-1" k3="1" operator="arithmetic"/><feColorMatrix values="0 0 0 0 0 0 0 0 0 0 0 0 0 0 0 0 0 0 0.25 0"/><feBlend in2="shape" result="effect1_innerShadow_871_291"/></filter></defs></svg>