<svg xmlns="http://www.w3.org/2000/svg" width="227" height="107" fill="none" viewBox="0 0 227 107"><g filter="url(#a)"><path fill="#f4719c" fill-rule="evenodd" d="M32.236 68.002C10.491 61.029 1 50.738 1 39.599 1 25.894 20.144 12.355 51.812 5.661 67.172 2.414 85.22 1 105.955 1c63.486 0 122.033 13.983 119.534 38.599 0 12.214-10.836 23.446-32.903 30.15-12.033 3.657-27.256 5.816-46.302 6.48-7.491 12.778-18.456 19.358-36.445 29.771 13.192-12.137 21.275-19.962 24.199-29.551l-1.01.001c-44.998 2.186-79.03-1.47-100.792-8.448" clip-rule="evenodd"/></g><path fill="#f4719c" d="m32.236 68.002.306-.952zm19.576-62.34-.206-.98zM225.49 39.598l-.995-.101a1 1 0 0 0-.005.101zm-32.903 30.15.29.958zm-46.302 6.48-.034-1a1 1 0 0 0-.828.494zM109.839 106l-.677-.736a1.001 1.001 0 0 0 1.178 1.602zm24.199-29.551.957.292a1.002 1.002 0 0 0-.959-1.292zm-1.01.001v-1l-.048.001zM1 39.6H0c0 11.832 10.09 22.35 31.931 29.354l.305-.952.306-.952C10.893 60.107 2 50.043 2 39.599zM51.812 5.661l-.206-.978c-15.916 3.364-28.752 8.46-37.637 14.49C5.115 25.184 0 32.257 0 39.6h2c0-6.362 4.457-12.91 13.092-18.77 8.604-5.84 21.174-10.86 36.927-14.19zM105.955 1V0C85.18 0 67.058 1.416 51.605 4.683l.207.978.207.978C67.288 3.412 85.26 2 105.955 2zm119.534 38.599.995.101c.673-6.626-2.796-12.416-9.076-17.306-6.271-4.883-15.475-8.982-26.658-12.284C168.367 3.5 137.756 0 105.955 0v2c31.686 0 62.091 3.491 84.229 10.028 11.076 3.27 20.008 7.282 25.996 11.944 5.979 4.656 8.891 9.843 8.314 15.526zm-32.903 30.15.29.958c22.18-6.74 33.613-18.199 33.613-31.108h-2c0 11.519-10.238 22.523-32.194 29.194zm-46.302 6.48.035 1c19.095-.666 34.412-2.832 46.557-6.522l-.29-.957-.291-.957c-11.92 3.622-27.049 5.774-46.045 6.437zm0 0-.862-.506c-7.337 12.514-18.054 18.975-36.084 29.412l.501.865.501.866c17.948-10.39 29.16-17.088 36.807-30.131zM109.839 106l.677.736c6.589-6.062 11.951-11.09 16.03-15.813 4.087-4.732 6.932-9.207 8.449-14.182l-.957-.292-.956-.292c-1.407 4.614-4.066 8.847-8.05 13.459-3.991 4.62-9.267 9.573-15.87 15.648zm23.189-29.55v1l1.013-.001-.003-1-.002-1-1.008.001zM32.236 68.002l-.305.952c21.923 7.03 56.09 10.683 101.146 8.495l-.049-.999-.048-.999c-44.941 2.183-78.838-1.475-100.438-8.401z"/><path fill="#fff" d="M43.767 32.072q-.047.407-.14.797a4 4 0 0 1-.204.703 1.2 1.2 0 0 1-.328.469.6.6 0 0 1-.437.188q-.25 0-.453-.391a5.4 5.4 0 0 1-.391-1 22 22 0 0 1-.328-1.438 74 74 0 0 1-.266-1.609 51 51 0 0 1-.187-1.61 73 73 0 0 1-.125-1.359q-.094.594-.22 1.328a29 29 0 0 1-.671 2.985q-.203.718-.437 1.297a4 4 0 0 1-.5.906q-.266.344-.563.344-.265 0-.531-.36a4.8 4.8 0 0 1-.516-.937 14 14 0 0 1-.469-1.313q-.217-.718-.406-1.437a34 34 0 0 1-.547-2.469q0 .329-.015.734v.563q0 .078-.016.515 0 .438-.047 1.047-.047.61-.14 1.313a7.7 7.7 0 0 1-.282 1.281q-.171.594-.437 1t-.656.438a1.26 1.26 0 0 1-.532-.47 3.8 3.8 0 0 1-.343-.796 6.6 6.6 0 0 1-.22-.969 16 16 0 0 1-.187-1.922v-.687q0-.469.047-1.172.063-.72.188-1.5.124-.781.328-1.562.203-.782.484-1.391a3.8 3.8 0 0 1 .672-1.016q.39-.39.89-.39.236 0 .5.265.267.266.532.703.265.423.516.954.25.53.468 1.078.235.531.407 1.03.172.486.28.829.126-.375.313-.875t.407-1.031q.234-.547.5-1.063.28-.53.578-.937.297-.422.593-.672.313-.266.625-.266.548 0 .938.407.391.406.656 1.062.266.641.422 1.453.156.797.234 1.594.095.78.11 1.469.03.687.031 1.109v.469q0 .297-.016.672 0 .374-.03.797-.033.42-.079.843m7.875-.5q0 .282-.031.735a4.3 4.3 0 0 1-.125.89 2.1 2.1 0 0 1-.344.735q-.234.312-.656.312-.579 0-.89-.375-.314-.375-.298-.937a3.8 3.8 0 0 1-1.14.687 3.4 3.4 0 0 1-1.282.25q-.453 0-.859-.219a2.7 2.7 0 0 1-.719-.562 2.9 2.9 0 0 1-.5-.766 2.2 2.2 0 0 1-.187-.86q0-.75.453-1.312a4.3 4.3 0 0 1 1.14-.953q.673-.406 1.422-.64.766-.235 1.36-.313v-.14a.6.6 0 0 0 .015-.141q0-.484-.265-.781t-.75-.297q-.39 0-.672.14a3.3 3.3 0 0 0-.531.297q-.25.156-.5.297a1.24 1.24 0 0 1-.563.125.87.87 0 0 1-.594-.219.74.74 0 0 1-.234-.562q0-.515.297-.938.313-.42.766-.703a4 4 0 0 1 1-.453 3.4 3.4 0 0 1 1-.172q.42 0 .843.11.422.093.797.312.375.203.672.516.312.297.5.703.282.578.453 1.234.172.64.266 1.328.093.672.125 1.36.03.672.031 1.312m-2.5-.5-.047-1.062h-.062a.14.14 0 0 0-.063-.016q-.203 0-.515.11-.297.093-.579.28a2.3 2.3 0 0 0-.484.391.7.7 0 0 0-.187.454q0 .218.156.296a.8.8 0 0 0 .36.079q.342 0 .734-.172.39-.188.687-.36m8.016-5.89q0 .453-.313.672a6 6 0 0 1-.672.421q-.375.187-.687.454-.297.265-.297.796 0 .282.125.485.14.203.328.375.203.156.438.328t.421.39q.203.219.329.532.14.312.14.765 0 .657-.344 1.297a4.3 4.3 0 0 1-.859 1.125 4.3 4.3 0 0 1-1.172.781q-.656.297-1.297.297-.266 0-.531-.047a1.5 1.5 0 0 1-.484-.14 1.04 1.04 0 0 1-.344-.297.9.9 0 0 1-.14-.516q0-.436.171-.672a1.2 1.2 0 0 1 .438-.39q.265-.141.562-.219.313-.078.578-.187.266-.126.438-.313t.172-.531q0-.329-.266-.672-.25-.36-.562-.75a8 8 0 0 1-.579-.86 2.04 2.04 0 0 1-.25-1q0-.671.266-1.234.282-.577.734-1 .47-.422 1.063-.656.593-.25 1.25-.25.25 0 .484.047.25.046.438.172a.8.8 0 0 1 .297.312.86.86 0 0 1 .125.485m10.187 2.593q0 .08-.016.172a1 1 0 0 1-.046.157 1.5 1.5 0 0 1-.438.609 1.1 1.1 0 0 1-.703.234q-.609 0-.828-.61a.5.5 0 0 1-.031-.171q0-.11-.016-.219v-.453a.9.9 0 0 0-.11-.344q-.077-.125-.265-.125-.266 0-.516.344a3.8 3.8 0 0 0-.422.797 7 7 0 0 0-.28.938 3.7 3.7 0 0 0-.11.78q0 .236.031.579.032.328.125.64.094.313.25.547.172.22.438.22a.8.8 0 0 0 .484-.157q.234-.173.453-.39.203-.189.438-.391a.87.87 0 0 1 .562-.203q.39 0 .61.28a.97.97 0 0 1 .234.641q0 .532-.281 1a3.2 3.2 0 0 1-.704.797 3.4 3.4 0 0 1-.937.516 2.7 2.7 0 0 1-.984.203q-.844 0-1.438-.422a3.3 3.3 0 0 1-.937-1.062 5 5 0 0 1-.516-1.422 7.3 7.3 0 0 1-.156-1.453q0-.797.219-1.72.218-.936.671-1.733a4.3 4.3 0 0 1 1.157-1.329q.718-.53 1.703-.53.609 0 1.047.265.453.265.734.703.297.422.438.953.156.531.156 1.047v.156a1 1 0 0 1-.016.156m7.516 3.797q0 .282-.032.735-.015.453-.124.89a2.1 2.1 0 0 1-.344.735q-.235.312-.657.312-.578 0-.89-.375t-.297-.937a3.8 3.8 0 0 1-1.14.687 3.4 3.4 0 0 1-1.282.25q-.453 0-.86-.219a2.7 2.7 0 0 1-.718-.562 2.9 2.9 0 0 1-.5-.766 2.2 2.2 0 0 1-.187-.86q0-.75.453-1.312a4.3 4.3 0 0 1 1.14-.953q.672-.406 1.422-.64.766-.235 1.36-.313v-.14a.6.6 0 0 0 .015-.141q0-.484-.266-.781-.264-.297-.75-.297-.39 0-.671.14a3.3 3.3 0 0 0-.532.297q-.25.156-.5.297a1.24 1.24 0 0 1-.562.125.87.87 0 0 1-.594-.219.74.74 0 0 1-.234-.562q0-.515.297-.938.312-.42.765-.703a4 4 0 0 1 1-.453 3.4 3.4 0 0 1 1-.172q.422 0 .844.11.422.093.797.312.375.203.672.516.312.297.5.703.28.578.453 1.234.172.64.266 1.328.094.672.124 1.36.032.672.032 1.312m-2.5-.5-.047-1.062h-.063a.14.14 0 0 0-.062-.016q-.203 0-.516.11-.296.093-.578.28a2.3 2.3 0 0 0-.484.391.7.7 0 0 0-.188.454q0 .218.156.296a.8.8 0 0 0 .36.079q.345 0 .734-.172.39-.188.688-.36m6.36-6.765q0 .843-.079 1.703-.062.843-.062 1.703 0 1.11.062 2.219.078 1.11.078 2.234 0 .282-.031.64a2.1 2.1 0 0 1-.156.641 1.2 1.2 0 0 1-.344.5q-.234.204-.625.203-.375 0-.656-.375a3.3 3.3 0 0 1-.454-.922 12 12 0 0 1-.296-1.28q-.11-.705-.172-1.36a96 96 0 0 1-.078-1.219q-.016-.562-.016-.828 0-.296.016-.86.03-.561.109-1.218.078-.656.203-1.328.141-.688.36-1.235.218-.562.515-.906.313-.36.734-.36.345 0 .516.235.188.219.266.547.078.312.093.672.016.344.016.594m10.671 4.312v.813q0 .5-.031 1.093-.016.594-.094 1.204a5.3 5.3 0 0 1-.25 1.078q-.156.484-.406.796a.79.79 0 0 1-.64.313.6.6 0 0 1-.532-.281 2.2 2.2 0 0 1-.25-.688 5 5 0 0 1-.094-.797v-.64q0-.703.047-1.375.047-.673.047-1.375v-.282q0-.202-.031-.406a1.2 1.2 0 0 0-.11-.36q-.062-.155-.203-.155-.28 0-.453.297a2.7 2.7 0 0 0-.281.671q-.11.39-.157.782-.045.375-.062.562-.031.204-.062.61-.016.405-.063.89-.03.484-.125 1a6 6 0 0 1-.219.922q-.124.406-.328.672-.203.265-.5.265a.64.64 0 0 1-.578-.328 2.4 2.4 0 0 1-.297-.765 6 6 0 0 1-.125-.89 22 22 0 0 1-.016-.704v-.516q.016-.25.016-.515v-.36q0-.25-.016-.546 0-.313-.03-.641a5 5 0 0 0-.063-.594 1.5 1.5 0 0 0-.14-.453q-.094-.172-.22-.172-.203 0-.375.266-.171.25-.297.61-.124.342-.203.687-.062.344-.062.5v.093q0 .75.094 1.47.093.718.093 1.468 0 .438-.28.812-.282.36-.782.36a.76.76 0 0 1-.594-.266 2.3 2.3 0 0 1-.39-.719 6 6 0 0 1-.25-.953 12 12 0 0 1-.11-1.031q-.03-.516-.047-.922v-.625q0-.234-.015-.687 0-.453.015-.985a20 20 0 0 1 .094-1.078 5.5 5.5 0 0 1 .203-1.015 2.3 2.3 0 0 1 .36-.735.73.73 0 0 1 .593-.297q.407 0 .656.219.266.22.266.656 0 .094-.016.188 0 .094-.015.172a3.6 3.6 0 0 1 .422-.5q.249-.266.531-.47.297-.218.625-.343.329-.14.656-.14a.97.97 0 0 1 .563.171q.25.172.437.438.188.25.313.547.124.297.172.562.156-.281.375-.562.234-.297.5-.516.266-.218.578-.36a1.7 1.7 0 0 1 .672-.14q.328 0 .562.235t.406.609q.172.36.266.828.094.453.156.906.063.438.078.828.016.375.016.594m7.672 2.953q0 .282-.031.735-.015.453-.125.89a2.1 2.1 0 0 1-.344.735q-.234.312-.656.312-.579 0-.891-.375t-.297-.937q-.5.436-1.14.687a3.4 3.4 0 0 1-1.282.25q-.453 0-.86-.219a2.7 2.7 0 0 1-.718-.562 2.9 2.9 0 0 1-.5-.766 2.2 2.2 0 0 1-.187-.86q0-.75.453-1.312a4.3 4.3 0 0 1 1.14-.953q.672-.406 1.422-.64.766-.235 1.36-.313v-.14a.6.6 0 0 0 .015-.141q0-.484-.265-.781-.266-.297-.75-.297-.39 0-.672.14a3.3 3.3 0 0 0-.532.297q-.25.156-.5.297a1.24 1.24 0 0 1-.562.125.87.87 0 0 1-.594-.219.74.74 0 0 1-.234-.562q0-.515.297-.938.312-.42.765-.703a4 4 0 0 1 1-.453 3.4 3.4 0 0 1 1-.172q.423 0 .844.11.422.093.797.312.375.203.672.516.312.297.5.703.281.578.453 1.234.172.64.266 1.328.093.672.125 1.36.03.672.03 1.312m-2.5-.5-.047-1.062h-.062a.14.14 0 0 0-.063-.016q-.203 0-.516.11-.296.093-.578.28a2.3 2.3 0 0 0-.484.391.7.7 0 0 0-.188.454q0 .218.157.296a.8.8 0 0 0 .359.079q.345 0 .734-.172.39-.188.688-.36m5.687 1.875q0 .25-.14.64-.126.391-.328.766-.187.375-.438.641-.25.266-.484.266-.313 0-.313-.313 0-.187.078-.36.079-.17.172-.343a3 3 0 0 0 .172-.328.7.7 0 0 0 .078-.312.9.9 0 0 1-.5.156.79.79 0 0 1-.61-.282.92.92 0 0 1-.25-.625q0-.5.329-.796.328-.313.828-.313.563 0 .984.297.423.297.422.906m10.938-1.953q0 .531-.344 1.047-.328.5-.844.906a5 5 0 0 1-1.078.64q-.578.235-1.062.235a2.77 2.77 0 0 1-1.485-.406 3.9 3.9 0 0 1-1.078-1.062 5.2 5.2 0 0 1-.672-1.407 5.6 5.6 0 0 1-.218-1.515q0-.781.218-1.672a6.1 6.1 0 0 1 .657-1.64q.453-.751 1.125-1.25.687-.5 1.625-.5.53 0 1.015.187a2.46 2.46 0 0 1 1.422 1.28q.219.454.219 1.017 0 .734-.313 1.375a3.6 3.6 0 0 1-.828 1.109 4.4 4.4 0 0 1-1.187.765 4 4 0 0 1-1.375.313q.062.452.359.656.312.203.735.203.312 0 .609-.156t.578-.344q.282-.203.547-.359.281-.156.562-.156a.87.87 0 0 1 .563.203.65.65 0 0 1 .25.531m-2.531-3.828a.94.94 0 0 0-.11-.422.36.36 0 0 0-.343-.219.9.9 0 0 0-.579.188 1.4 1.4 0 0 0-.39.453q-.156.266-.25.578a3 3 0 0 0-.094.578q.219-.047.516-.125.312-.078.578-.203.281-.14.469-.344a.66.66 0 0 0 .203-.484m10 2.14q0 .86-.172 1.704a4.8 4.8 0 0 1-.578 1.515 3.15 3.15 0 0 1-1.094 1.063q-.672.406-1.688.406-1 0-1.671-.39a3.2 3.2 0 0 1-1.079-1.063 4.8 4.8 0 0 1-.562-1.484 9 9 0 0 1-.156-1.688q0-.938.218-1.86.048-.249.172-.687.141-.452.344-.875.219-.437.484-.75.282-.312.61-.312.312 0 .5.172t.297.437q.109.251.14.547.032.282.032.516 0 .36-.063.703-.047.343-.109.687l-.125.938a9 9 0 0 0-.032 1.468q.032.282.125.547.094.267.266.454.172.171.484.171.407 0 .641-.218.25-.219.359-.547.126-.328.157-.703.03-.376.031-.688 0-.687-.094-1.344-.094-.67-.172-1.359a1.5 1.5 0 0 1 .063-.687q.078-.235.219-.422.14-.188.343-.297a.85.85 0 0 1 .453-.125q.345 0 .61.25.266.234.437.625.188.375.297.86.125.468.188.937.078.453.093.859.032.405.032.64m8.359 5.032q-1.11 0-1.734-.297a2 2 0 0 1-.922-.812q-.297-.532-.36-1.282a23 23 0 0 1-.015-3.14q.047-.75.14-1.594-.218 0-.343.015h-.203q-.5 0-.86-.218-.375-.219-.375-.672 0-.282.219-.5a1.7 1.7 0 0 1 .531-.375q.328-.157.703-.25.39-.094.735-.125 0-.438.062-.969.063-.531.219-.984.172-.469.453-.782a.93.93 0 0 1 .719-.312q.25 0 .437.156.204.141.328.375.125.22.188.5.063.282.062.547 0 .313-.046.64-.048.33-.172.813.266-.03.359-.031.094-.016.172-.016.265 0 .547.047.297.048.531.157.25.108.406.296a.6.6 0 0 1 .157.422.67.67 0 0 1-.235.5q-.219.219-.562.375t-.735.25q-.39.078-.734.11-.094.64-.141 1.187-.031.531-.078 1.078-.032.266-.062.547a9 9 0 0 0 0 1.031q.016.267.109.516.094.25.297.438.203.171.562.171.219 0 .454-.03.234-.048.468-.048.407 0 .578.281.188.282.188.72a.9.9 0 0 1-.203.577 1.35 1.35 0 0 1-.485.375 2.6 2.6 0 0 1-.671.235q-.36.078-.688.078m8.906-3.344q0 .531-.343 1.047-.328.5-.844.906-.5.39-1.078.64-.579.235-1.063.235a2.76 2.76 0 0 1-1.484-.406 3.9 3.9 0 0 1-1.078-1.062 5.1 5.1 0 0 1-.672-1.407 5.6 5.6 0 0 1-.219-1.515q0-.781.219-1.672t.656-1.64q.453-.751 1.125-1.25.687-.5 1.625-.5.531 0 1.016.187.484.17.843.5.36.328.579.78.218.454.218 1.017 0 .734-.312 1.375a3.7 3.7 0 0 1-.828 1.109 4.4 4.4 0 0 1-1.188.765 4 4 0 0 1-1.375.313q.063.452.36.656.312.203.734.203.312 0 .609-.156t.578-.344q.282-.203.547-.359a1.15 1.15 0 0 1 .563-.156q.313 0 .562.203a.65.65 0 0 1 .25.531m-2.531-3.828a.94.94 0 0 0-.109-.422.36.36 0 0 0-.344-.219.9.9 0 0 0-.578.188 1.4 1.4 0 0 0-.391.453q-.156.266-.25.578a3 3 0 0 0-.094.578q.219-.047.516-.125.312-.078.578-.203.282-.14.469-.344a.66.66 0 0 0 .203-.484m7.594 7.047q-.266 0-.422-.25a1.7 1.7 0 0 1-.234-.547 4 4 0 0 1-.11-.625q-.015-.328-.015-.5 0-.469.046-.937l.125-.938q.078-.468.125-.937a7 7 0 0 0 .063-.938q0-.187-.016-.406a1.6 1.6 0 0 0-.078-.407.66.66 0 0 0-.172-.328.44.44 0 0 0-.328-.125q-.141 0-.312.235a3.3 3.3 0 0 0-.328.515q-.142.281-.25.579a1.5 1.5 0 0 0-.094.421v.704q.015.343.015.703v.906q-.016.28-.046.578-.032.296-.094.578-.047.282-.141.547a1.7 1.7 0 0 1-.25.453 1.2 1.2 0 0 1-.344.313.9.9 0 0 1-.484.125.7.7 0 0 1-.516-.204 1.5 1.5 0 0 1-.328-.515 3.6 3.6 0 0 1-.187-.719 23 23 0 0 1-.078-.781q-.016-.39-.016-.703.015-.328.016-.516v-.734q0-.594-.032-1.172-.015-.578-.015-1.156v-.797q.015-.485.125-.938a2.1 2.1 0 0 1 .359-.797q.25-.328.735-.328.218 0 .39.14.172.142.297.345.141.202.219.437.093.235.14.406.157-.218.36-.421a2.8 2.8 0 0 1 .484-.36 2.54 2.54 0 0 1 1.344-.344q.797 0 1.234.391.453.375.657.953.218.562.265 1.219.047.656.047 1.187 0 .267-.047.797-.047.516-.156 1.157a13 13 0 0 1-.266 1.296 8.5 8.5 0 0 1-.406 1.203 3 3 0 0 1-.562.891q-.313.345-.719.344m10.125-4.485q0 .267-.016.797 0 .516-.047 1.094-.031.562-.093 1.078-.063.5-.157.735-.124.297-.328.515-.203.219-.547.219-.531 0-.765-.422-.235-.422-.313-1.047a9 9 0 0 1-.062-1.36q.015-.734-.016-1.358a4 4 0 0 0-.172-1.047q-.14-.423-.515-.422-.516 0-.797.172a.95.95 0 0 0-.391.422q-.11.265-.141.609-.016.345-.046.719-.032.36-.047.968a6.7 6.7 0 0 1-.141 1.203q-.125.594-.422 1.032-.281.422-.844.422a.7.7 0 0 1-.562-.266 2.1 2.1 0 0 1-.328-.687 5.7 5.7 0 0 1-.188-.938 17 17 0 0 1-.062-1v-.906q.015-.406.015-.61 0-.312.016-1.03.031-.72.109-1.595.078-.89.204-1.828.124-.937.328-1.703.203-.781.484-1.265.297-.485.688-.47.25.016.421.22.188.203.297.53.125.314.203.688.078.375.11.75.047.36.047.672.015.313.015.485a22 22 0 0 1-.062 1.625q.359-.485.953-.797a2.65 2.65 0 0 1 1.219-.313q.78 0 1.172.438.405.42.578 1.062.172.625.187 1.344.016.703.016 1.265m4.078 4.5q-.797 0-1.391-.421a3.7 3.7 0 0 1-1-1.079 5.2 5.2 0 0 1-.609-1.453 6.6 6.6 0 0 1-.203-1.593q0-.828.203-1.703.203-.89.625-1.61.422-.735 1.078-1.187.656-.47 1.563-.47.875 0 1.484.485.625.47 1 1.188.375.702.531 1.547.156.843.11 1.593a8.6 8.6 0 0 1-.266 1.672 5.3 5.3 0 0 1-.609 1.516 3.5 3.5 0 0 1-1.032 1.094q-.624.42-1.484.421m.156-7.062q-.234 0-.422.25-.171.25-.297.61a5.5 5.5 0 0 0-.171.765q-.063.39-.063.688 0 .375.063.812.078.438.203.813.124.36.297.609.187.234.421.234.25 0 .422-.234.188-.234.297-.594.11-.36.156-.781.048-.438.047-.813 0-.344-.062-.75a4.3 4.3 0 0 0-.188-.78 1.8 1.8 0 0 0-.297-.595q-.172-.234-.406-.234m14.531-3.672q0 1.14-.093 2.266-.078 1.125-.078 2.265 0 .922.046 1.829.063.906.063 1.828 0 .25-.016.609-.015.344-.109.672a1.3 1.3 0 0 1-.281.562q-.188.235-.547.235a1.01 1.01 0 0 1-.781-.344 1.7 1.7 0 0 1-.375-.797 2.7 2.7 0 0 1-.86.953q-.562.39-1.219.39a1.72 1.72 0 0 1-1.218-.484 4.3 4.3 0 0 1-.844-1.171 7 7 0 0 1-.5-1.438 6.5 6.5 0 0 1-.156-1.297q0-.39.047-.89t.156-1.016a8 8 0 0 1 .312-1q.188-.5.469-.89.297-.392.688-.626.406-.234.921-.234.563 0 1.079.328.515.329.781.813l.14-2.485q.016-.297.047-.687.032-.406.125-.766.11-.36.328-.61.22-.25.641-.25.454 0 .703.22.25.218.36.562.125.328.14.719.031.39.031.734m-2.546 6.938q0-.36-.016-.703-.015-.344 0-.704a8 8 0 0 0-.219-.437 2 2 0 0 0-.312-.453 1.6 1.6 0 0 0-.391-.36.85.85 0 0 0-.469-.14.6.6 0 0 0-.453.172 1 1 0 0 0-.25.422 2.5 2.5 0 0 0-.109.515 8 8 0 0 0-.016.485q0 .187.031.562.032.36.11.734.094.376.25.657.156.28.422.28.203 0 .406-.077.203-.094.375-.219a3 3 0 0 0 .344-.297q.171-.172.297-.312zm6.156-7.563a.65.65 0 0 1-.125.39 1.2 1.2 0 0 1-.297.313q-.187.125-.406.203a1.5 1.5 0 0 1-.407.063.96.96 0 0 1-.546-.156q-.235-.156-.235-.485a.74.74 0 0 1 .11-.406q.125-.187.296-.297a1.2 1.2 0 0 1 .391-.187 1.5 1.5 0 0 1 .422-.063q.297 0 .547.14.25.142.25.485m.125 5.313v.468q0 .235-.016.454-.015.265-.015.718 0 .438-.032.953a12 12 0 0 1-.109 1.047 4.4 4.4 0 0 1-.219.969 2 2 0 0 1-.422.719.9.9 0 0 1-.64.281.58.58 0 0 1-.5-.234 2.2 2.2 0 0 1-.344-.641 5.4 5.4 0 0 1-.188-.89 18 18 0 0 1-.093-.954 13 13 0 0 1-.032-.86v-1.28q0-.47.032-1 .031-.532.109-1.078.094-.547.25-1 .172-.454.438-.735a.88.88 0 0 1 .671-.281q.423 0 .641.422t.328.984.125 1.125q.016.547.016.813m6.906-.407q0 .08-.016.172a1 1 0 0 1-.046.157q-.141.36-.438.609a1.1 1.1 0 0 1-.703.234q-.609 0-.828-.61a.5.5 0 0 1-.031-.171q0-.11-.016-.219v-.453a.9.9 0 0 0-.109-.344q-.079-.125-.266-.125-.265 0-.516.344a3.8 3.8 0 0 0-.422.797 7 7 0 0 0-.281.938 3.7 3.7 0 0 0-.109.78q0 .236.031.579.032.328.125.64.094.313.25.547.172.22.438.22a.8.8 0 0 0 .484-.157q.234-.173.453-.39.202-.189.438-.391a.87.87 0 0 1 .562-.203q.39 0 .609.28a.97.97 0 0 1 .235.641q0 .532-.281 1a3.2 3.2 0 0 1-.704.797q-.421.328-.937.516a2.7 2.7 0 0 1-.984.203q-.844 0-1.438-.422a3.3 3.3 0 0 1-.937-1.062 5 5 0 0 1-.516-1.422 7.3 7.3 0 0 1-.156-1.453q0-.797.218-1.72.219-.936.672-1.733a4.3 4.3 0 0 1 1.157-1.329q.718-.53 1.703-.53.609 0 1.047.265.452.265.734.703.297.422.437.953.157.531.157 1.047v.156a1 1 0 0 1-.016.156m7.516 3.797q0 .282-.032.735-.015.453-.125.89a2.1 2.1 0 0 1-.343.735q-.235.312-.657.312-.578 0-.89-.375t-.297-.937q-.5.436-1.141.687-.624.25-1.281.25-.453 0-.859-.219a2.7 2.7 0 0 1-.719-.562 2.9 2.9 0 0 1-.5-.766 2.2 2.2 0 0 1-.188-.86q0-.75.454-1.312a4.2 4.2 0 0 1 1.14-.953q.672-.406 1.422-.64.766-.235 1.359-.313v-.14a.6.6 0 0 0 .016-.141q0-.484-.266-.781t-.75-.297q-.39 0-.671.14a3.3 3.3 0 0 0-.532.297q-.25.156-.5.297a1.24 1.24 0 0 1-.562.125.87.87 0 0 1-.594-.219.74.74 0 0 1-.234-.562q0-.515.297-.938.312-.42.765-.703a4 4 0 0 1 1-.453 3.4 3.4 0 0 1 1-.172q.422 0 .844.11.422.093.797.312.375.203.672.516.312.297.5.703.28.578.453 1.234.172.64.265 1.328.095.672.125 1.36.032.672.032 1.312m-2.5-.5-.047-1.062h-.063a.14.14 0 0 0-.062-.016q-.203 0-.516.11-.297.093-.578.28a2.3 2.3 0 0 0-.484.391.7.7 0 0 0-.188.454q0 .218.156.296a.8.8 0 0 0 .36.079q.344 0 .734-.172.391-.188.688-.36m8.015-5.89q0 .453-.312.672a6 6 0 0 1-.672.421q-.375.187-.688.454-.296.265-.296.796a.9.9 0 0 0 .125.485q.14.203.328.375.203.156.437.328t.422.39q.203.219.328.532.141.312.141.765 0 .657-.344 1.297a4.28 4.28 0 0 1-2.031 1.906q-.657.297-1.297.297-.266 0-.531-.047a1.5 1.5 0 0 1-.485-.14 1 1 0 0 1-.343-.297.9.9 0 0 1-.141-.516q0-.436.172-.672.171-.249.437-.39t.563-.219q.312-.078.578-.187.266-.126.437-.313.172-.187.172-.531 0-.329-.265-.672a14 14 0 0 0-.563-.75 8 8 0 0 1-.578-.86 2.03 2.03 0 0 1-.25-1q0-.671.266-1.234a3.4 3.4 0 0 1 .734-1q.47-.422 1.063-.656.593-.25 1.25-.25.25 0 .484.047.25.046.437.172a.8.8 0 0 1 .297.312.85.85 0 0 1 .125.485M45.166 50.119q0 .688-.157 1.516a5.3 5.3 0 0 1-.5 1.515q-.343.705-.922 1.172-.562.47-1.422.469-.218 0-.453-.031a2.2 2.2 0 0 1-.453-.11 1.6 1.6 0 0 1-.375-.203.9.9 0 0 1-.265-.36l-.141 2.25q-.015.36-.031.86 0 .5-.125.953a1.7 1.7 0 0 1-.39.766q-.267.328-.782.328-.297 0-.5-.312a2.5 2.5 0 0 1-.328-.766 9 9 0 0 1-.172-1.047 14 14 0 0 1-.078-1.11q-.015-.53-.016-.968v-.64q0-1.048-.015-2.079-.015-1.047-.016-2.094v-.578q0-.405.031-.875.03-.468.094-.968a5.3 5.3 0 0 1 .219-.907q.14-.42.359-.672a.67.67 0 0 1 .531-.265.56.56 0 0 1 .36.125.86.86 0 0 1 .28.297q.126.172.204.375.078.202.125.375.485-.547 1.11-.828.64-.282 1.359-.282.75 0 1.218.422.485.422.75 1.047.282.626.391 1.344.11.704.11 1.281m-2.235-.125a2.4 2.4 0 0 0-.047-.469 1.3 1.3 0 0 0-.14-.453.76.76 0 0 0-.282-.344.76.76 0 0 0-.468-.14q-.375 0-.797.25-.406.234-.61.547-.078.124-.093.406t-.016.422v.297l.031.36q.015.187.032.358.03.173.078.266a.6.6 0 0 0 .203.266q.156.109.343.203t.376.14q.203.047.343.047a.65.65 0 0 0 .532-.25q.203-.25.312-.593.124-.344.156-.704.047-.375.047-.609m8.61-1.062q-.219.016-.375-.032l-.313-.125a3 3 0 0 0-.281-.109.6.6 0 0 0-.313-.047q-.312.016-.562.172a2.2 2.2 0 0 0-.438.39 2.7 2.7 0 0 0-.328.532 3 3 0 0 0-.219.562 4 4 0 0 0-.078.578q-.015.375-.015.813-.015.453-.016.86 0 .406-.031.64-.016.25-.078.594-.063.328-.203.625a1.4 1.4 0 0 1-.344.5.8.8 0 0 1-.563.203.75.75 0 0 1-.468-.156 1.4 1.4 0 0 1-.329-.407 4 4 0 0 1-.218-.609 8 8 0 0 1-.125-.703q-.048-.375-.078-.75-.015-.375-.032-.703v-.625q.015-.282.016-.453a19 19 0 0 0-.063-1.094q-.03-.562-.03-1.11 0-.344.03-.765.031-.422.172-.781.141-.376.407-.625.28-.25.765-.25.266 0 .453.171.188.173.297.422a2.3 2.3 0 0 1 .188.532q.061.28.078.515.375-.609.843-.984.47-.39 1.22-.422.375-.015.734.078.375.078.672.281.312.188.5.5.203.313.218.735.032.5-.297.765-.327.266-.797.282m7.968 3.64q0 .282-.031.735a4.3 4.3 0 0 1-.125.89 2.1 2.1 0 0 1-.344.735q-.234.312-.656.312-.578 0-.89-.375-.314-.375-.297-.937-.5.436-1.141.687a3.4 3.4 0 0 1-1.281.25q-.454 0-.86-.219a2.7 2.7 0 0 1-.718-.562 2.9 2.9 0 0 1-.5-.766 2.2 2.2 0 0 1-.188-.86q0-.75.453-1.312a4.3 4.3 0 0 1 1.14-.953q.673-.406 1.423-.64.765-.234 1.359-.313v-.14a.6.6 0 0 0 .016-.141q0-.484-.266-.781-.265-.297-.75-.297-.39 0-.672.14a3.3 3.3 0 0 0-.531.297q-.25.156-.5.297a1.24 1.24 0 0 1-.563.125.87.87 0 0 1-.593-.219.74.74 0 0 1-.235-.562q0-.515.297-.938.313-.42.766-.703a4 4 0 0 1 1-.453 3.4 3.4 0 0 1 1-.172q.422 0 .843.11.422.093.797.312.375.203.672.516.313.297.5.703.282.578.453 1.234.172.64.266 1.328.094.672.125 1.36.03.672.031 1.312m-2.5-.5-.047-1.062H56.9a.14.14 0 0 0-.063-.016q-.203 0-.515.11-.296.093-.578.28a2.3 2.3 0 0 0-.485.391.7.7 0 0 0-.187.453q0 .219.156.297a.8.8 0 0 0 .36.078q.342 0 .734-.171.39-.187.687-.36m16.688-2.453v.813q0 .5-.032 1.093-.015.594-.093 1.203a5.3 5.3 0 0 1-.25 1.079q-.156.484-.407.796a.79.79 0 0 1-.64.313.6.6 0 0 1-.531-.281 2.2 2.2 0 0 1-.25-.688 5 5 0 0 1-.094-.797v-.64q0-.703.047-1.375t.047-1.375v-.282q0-.202-.032-.406a1.2 1.2 0 0 0-.109-.36q-.063-.155-.203-.155-.282 0-.453.296a2.7 2.7 0 0 0-.282.672q-.109.39-.156.782-.047.375-.062.562-.032.204-.063.61-.015.405-.062.89-.032.484-.125 1a6 6 0 0 1-.219.922q-.125.406-.328.672-.204.265-.5.265a.64.64 0 0 1-.578-.328 2.4 2.4 0 0 1-.297-.765 6 6 0 0 1-.125-.89q-.016-.454-.016-.704v-.516q.016-.25.016-.515v-.36q0-.25-.016-.547 0-.312-.031-.64a5 5 0 0 0-.062-.594 1.5 1.5 0 0 0-.141-.453q-.094-.172-.219-.172-.203 0-.375.266-.171.25-.297.61-.124.343-.203.687-.062.343-.062.5v.093q0 .75.093 1.47.094.718.094 1.468 0 .438-.281.812-.282.36-.781.36a.76.76 0 0 1-.594-.266 2.4 2.4 0 0 1-.39-.719 6 6 0 0 1-.25-.953 12 12 0 0 1-.11-1.031 42 42 0 0 1-.047-.922v-.625q0-.234-.016-.687 0-.453.016-.985a20 20 0 0 1 .094-1.078q.062-.562.203-1.016.14-.453.36-.734a.73.73 0 0 1 .593-.297q.406 0 .656.219.266.22.266.656 0 .094-.016.188 0 .093-.015.172a3.6 3.6 0 0 1 .421-.5q.25-.266.532-.47.297-.218.625-.343.327-.14.656-.14a.97.97 0 0 1 .563.171q.25.172.437.438.188.25.313.547.124.297.171.562.158-.281.375-.562.235-.297.5-.516.266-.219.578-.36a1.7 1.7 0 0 1 .672-.14q.33 0 .563.234.234.235.406.61.172.36.266.828.093.453.156.906.063.438.078.828.016.375.016.594m7.672 2.953q0 .282-.032.735-.015.453-.125.89a2.1 2.1 0 0 1-.343.735q-.235.312-.657.312-.578 0-.89-.375-.314-.375-.297-.937a3.8 3.8 0 0 1-1.14.687 3.4 3.4 0 0 1-1.282.25q-.453 0-.86-.219a2.7 2.7 0 0 1-.718-.562 2.9 2.9 0 0 1-.5-.766 2.2 2.2 0 0 1-.188-.86q0-.75.453-1.312a4.3 4.3 0 0 1 1.141-.953q.672-.406 1.422-.64.765-.234 1.36-.313v-.14a.6.6 0 0 0 .015-.141q0-.484-.266-.781t-.75-.297q-.39 0-.672.14a3.3 3.3 0 0 0-.53.297q-.25.156-.5.297a1.24 1.24 0 0 1-.563.125.87.87 0 0 1-.594-.219.74.74 0 0 1-.234-.562q0-.515.296-.938.313-.42.766-.703a4 4 0 0 1 1-.453 3.4 3.4 0 0 1 1-.172q.422 0 .844.11.422.093.797.312.375.203.672.516.312.297.5.703.28.578.453 1.234.172.64.265 1.328.095.672.125 1.36.032.672.032 1.312m-2.5-.5-.047-1.062h-.063a.14.14 0 0 0-.062-.016q-.204 0-.516.11-.296.093-.578.28a2.3 2.3 0 0 0-.484.391.7.7 0 0 0-.188.453q0 .219.156.297a.8.8 0 0 0 .36.078q.344 0 .734-.171.39-.187.688-.36m7.875 3.14q-.266.001-.422-.25a1.7 1.7 0 0 1-.235-.546 4.4 4.4 0 0 1-.109-.625q-.016-.328-.016-.5 0-.468.047-.937l.125-.938q.078-.468.125-.937a7 7 0 0 0 .063-.938q0-.187-.016-.406a1.7 1.7 0 0 0-.078-.407.66.66 0 0 0-.172-.328.44.44 0 0 0-.328-.125q-.141 0-.312.235a3.4 3.4 0 0 0-.329.515q-.14.282-.25.578a1.5 1.5 0 0 0-.093.422v.703q.015.344.015.704v.906q-.015.28-.047.578-.03.297-.093.578-.048.282-.141.547a1.7 1.7 0 0 1-.25.453q-.14.188-.344.313a.9.9 0 0 1-.484.125.7.7 0 0 1-.516-.204 1.5 1.5 0 0 1-.328-.515 3.6 3.6 0 0 1-.187-.719q-.048-.405-.079-.781a18 18 0 0 1-.015-.703q.015-.328.015-.516v-.734q0-.594-.03-1.172-.016-.578-.016-1.156v-.797q.015-.485.125-.938.109-.468.359-.797.25-.328.734-.328a.6.6 0 0 1 .391.14q.172.143.297.345.14.202.219.437.093.234.14.406.156-.218.36-.422.218-.203.484-.359a2.55 2.55 0 0 1 1.344-.344q.796 0 1.234.391.452.375.656.953.22.562.266 1.219.047.656.047 1.187 0 .267-.047.797-.047.516-.156 1.156-.094.626-.266 1.297-.172.657-.406 1.203a3 3 0 0 1-.563.891q-.312.345-.718.344m9.765-10.718q0 1.14-.094 2.266-.078 1.125-.078 2.265 0 .922.047 1.828.063.907.063 1.829 0 .25-.016.609a3 3 0 0 1-.11.672 1.3 1.3 0 0 1-.28.562q-.189.235-.547.235-.469 0-.782-.344a1.7 1.7 0 0 1-.375-.797 2.7 2.7 0 0 1-.859.953q-.562.39-1.219.39a1.72 1.72 0 0 1-1.219-.484 4.3 4.3 0 0 1-.843-1.171 7 7 0 0 1-.5-1.438 6.5 6.5 0 0 1-.157-1.297 9.7 9.7 0 0 1 .204-1.906q.124-.516.312-1 .187-.5.469-.89.297-.392.687-.626.406-.234.922-.234.563 0 1.078.328.516.329.782.813l.14-2.485q.015-.297.047-.687.031-.406.125-.766.11-.36.328-.61.22-.25.64-.25.454 0 .704.22.25.218.36.562.125.328.14.719.03.39.031.734m-2.547 6.938q0-.36-.015-.704t0-.703a9 9 0 0 0-.219-.437 2 2 0 0 0-.312-.453 1.6 1.6 0 0 0-.391-.36.85.85 0 0 0-.469-.14.6.6 0 0 0-.453.172 1 1 0 0 0-.25.421 2.5 2.5 0 0 0-.11.516q-.015.283-.015.484 0 .188.031.563.032.36.11.734.093.376.25.657.156.28.421.28.203 0 .407-.077.203-.094.375-.219.188-.141.343-.297.172-.172.297-.312zm10.219 1.14q0 .282-.031.735a4.3 4.3 0 0 1-.125.89 2.1 2.1 0 0 1-.344.735q-.234.312-.656.312-.578 0-.891-.375-.312-.375-.297-.937-.5.436-1.14.687-.625.25-1.282.25-.453 0-.859-.219a2.7 2.7 0 0 1-.719-.562 2.9 2.9 0 0 1-.5-.766 2.2 2.2 0 0 1-.187-.86q0-.75.453-1.312a4.3 4.3 0 0 1 1.14-.953 6.5 6.5 0 0 1 1.422-.64q.766-.234 1.36-.313v-.14a.6.6 0 0 0 .015-.141q0-.484-.265-.781-.266-.297-.75-.297-.392 0-.672.14a3.3 3.3 0 0 0-.531.297q-.25.156-.5.297a1.24 1.24 0 0 1-.563.125.87.87 0 0 1-.594-.219.74.74 0 0 1-.234-.562q0-.515.297-.938.312-.42.766-.703a4 4 0 0 1 1-.453 3.4 3.4 0 0 1 1-.172q.422 0 .843.11.422.093.797.312.375.203.672.516.312.297.5.703.282.578.453 1.234.172.64.266 1.328.093.672.125 1.36.031.672.031 1.312m-2.5-.5-.047-1.062h-.062a.14.14 0 0 0-.063-.016q-.203 0-.515.11a2.3 2.3 0 0 0-.579.28 2.3 2.3 0 0 0-.484.391.7.7 0 0 0-.187.453q0 .219.156.297a.8.8 0 0 0 .359.078q.343 0 .735-.171.39-.187.687-.36m8.859-3.14q-.217.016-.375-.032l-.312-.125a3 3 0 0 0-.281-.109.6.6 0 0 0-.313-.047q-.312.016-.562.172a2.2 2.2 0 0 0-.438.39 2.7 2.7 0 0 0-.328.532 3 3 0 0 0-.219.562 4 4 0 0 0-.078.578q-.015.375-.015.813a24 24 0 0 0-.016.86q0 .406-.031.64a6 6 0 0 1-.078.594 2.6 2.6 0 0 1-.204.625 1.4 1.4 0 0 1-.343.5.8.8 0 0 1-.563.203.75.75 0 0 1-.469-.156 1.4 1.4 0 0 1-.328-.407 4 4 0 0 1-.218-.609 8 8 0 0 1-.125-.703q-.048-.375-.079-.75-.015-.375-.031-.703v-.625q.016-.282.016-.453a19 19 0 0 0-.063-1.094q-.03-.562-.031-1.11 0-.344.031-.765t.172-.781a1.6 1.6 0 0 1 .406-.625q.282-.25.766-.25.266 0 .453.171.188.173.297.422.125.25.188.532.061.28.078.515.375-.609.843-.984.47-.39 1.219-.422.375-.015.735.078.375.078.671.281.313.188.5.5.204.313.219.735.032.5-.297.765-.327.266-.797.282m11.641 3.062q0 .531-.344 1.047-.328.5-.843.906a5 5 0 0 1-1.079.64q-.578.235-1.062.235a2.76 2.76 0 0 1-1.484-.406 3.9 3.9 0 0 1-1.079-1.062 5.2 5.2 0 0 1-.671-1.407 5.6 5.6 0 0 1-.219-1.515q0-.782.219-1.672.218-.89.656-1.64.453-.75 1.125-1.25.687-.5 1.625-.5.531 0 1.015.187a2.45 2.45 0 0 1 1.422 1.28q.219.454.219 1.016 0 .735-.312 1.375a3.7 3.7 0 0 1-.829 1.11 4.4 4.4 0 0 1-1.187.765 4 4 0 0 1-1.375.313q.063.453.359.656.313.203.735.203.312 0 .609-.156t.578-.344q.282-.203.547-.359a1.15 1.15 0 0 1 .563-.156q.312 0 .562.203a.65.65 0 0 1 .25.531m-2.531-3.828a.94.94 0 0 0-.11-.422.36.36 0 0 0-.343-.219.9.9 0 0 0-.578.188 1.4 1.4 0 0 0-.391.453q-.157.266-.25.578a3 3 0 0 0-.094.578q.219-.047.516-.125.312-.078.578-.203.281-.14.469-.344a.66.66 0 0 0 .203-.484m6.078-2.86q0 .844-.078 1.704-.063.843-.063 1.703 0 1.11.063 2.219.078 1.11.078 2.234 0 .282-.031.64-.031.345-.157.641a1.2 1.2 0 0 1-.343.5q-.235.203-.625.203-.375 0-.657-.375a3.3 3.3 0 0 1-.453-.922 12 12 0 0 1-.297-1.28 23 23 0 0 1-.171-1.36 89 89 0 0 1-.079-1.219q-.015-.562-.015-.828 0-.296.015-.86.032-.561.11-1.218t.203-1.328q.141-.688.359-1.235.219-.562.516-.906.312-.36.734-.36.344 0 .516.235.188.219.266.547.078.312.093.672.016.344.016.594m7.734 6.688q0 .531-.343 1.047-.328.5-.844.906-.5.39-1.078.64-.579.235-1.063.235a2.76 2.76 0 0 1-1.484-.406 3.9 3.9 0 0 1-1.078-1.062 5.1 5.1 0 0 1-.672-1.407 5.6 5.6 0 0 1-.219-1.515q0-.782.219-1.672t.656-1.64q.453-.75 1.125-1.25.687-.5 1.625-.5.531 0 1.016.187.485.17.843.5.36.328.579.78.218.454.218 1.016 0 .735-.312 1.375a3.7 3.7 0 0 1-.828 1.11 4.4 4.4 0 0 1-1.188.765 4 4 0 0 1-1.375.313q.063.453.36.656.312.203.734.203.312 0 .609-.156t.578-.344q.282-.203.547-.359a1.15 1.15 0 0 1 .563-.156q.312 0 .562.203a.65.65 0 0 1 .25.531m-2.531-3.828a.94.94 0 0 0-.109-.422.36.36 0 0 0-.344-.219.9.9 0 0 0-.578.188 1.4 1.4 0 0 0-.391.453q-.156.266-.25.578a3 3 0 0 0-.094.578q.219-.047.516-.125.312-.078.578-.203.282-.14.469-.344a.66.66 0 0 0 .203-.484m13.469 3.828q0 .531-.344 1.047-.328.5-.844.906a5 5 0 0 1-1.078.64q-.578.235-1.062.235a2.77 2.77 0 0 1-1.485-.406 3.9 3.9 0 0 1-1.078-1.062 5.2 5.2 0 0 1-.672-1.407 5.6 5.6 0 0 1-.218-1.515q0-.782.218-1.672a6.1 6.1 0 0 1 .657-1.64q.453-.75 1.125-1.25.687-.5 1.625-.5.53 0 1.015.187a2.46 2.46 0 0 1 1.422 1.28q.219.454.219 1.016 0 .735-.313 1.375a3.6 3.6 0 0 1-.828 1.11 4.4 4.4 0 0 1-1.187.765 4 4 0 0 1-1.375.313q.062.453.359.656.312.203.734.203.313 0 .61-.156t.578-.344q.281-.203.547-.359.281-.156.562-.156a.87.87 0 0 1 .563.203.65.65 0 0 1 .25.531m-2.531-3.828a.94.94 0 0 0-.11-.422.36.36 0 0 0-.344-.219.9.9 0 0 0-.578.188 1.4 1.4 0 0 0-.39.453q-.156.266-.25.578a3 3 0 0 0-.094.578q.219-.047.516-.125.312-.078.578-.203a1.6 1.6 0 0 0 .468-.344.66.66 0 0 0 .204-.484m12.64 1.453v.813q0 .5-.031 1.093-.016.594-.094 1.203a5.3 5.3 0 0 1-.25 1.079 2.5 2.5 0 0 1-.406.796.79.79 0 0 1-.641.313.6.6 0 0 1-.531-.281 2.3 2.3 0 0 1-.25-.688 5 5 0 0 1-.094-.797v-.64q0-.703.047-1.375t.047-1.375v-.282q0-.202-.031-.406a1.2 1.2 0 0 0-.11-.36q-.062-.155-.203-.155-.28 0-.453.296a2.7 2.7 0 0 0-.281.672q-.11.39-.156.782-.047.375-.063.562a9 9 0 0 0-.062.61q-.017.405-.063.89a9 9 0 0 1-.125 1q-.078.5-.219.922-.124.406-.328.672-.203.265-.5.265a.64.64 0 0 1-.578-.328 2.4 2.4 0 0 1-.297-.765 6.4 6.4 0 0 1-.125-.89q-.015-.454-.015-.704v-.516q.015-.25.015-.515v-.36q0-.25-.015-.547 0-.312-.032-.64a5 5 0 0 0-.062-.594 1.4 1.4 0 0 0-.141-.453q-.093-.172-.218-.172-.204 0-.375.266-.173.25-.297.61-.125.343-.203.687-.063.343-.063.5v.093q0 .75.094 1.47.094.718.094 1.468 0 .438-.282.812-.281.36-.781.36a.76.76 0 0 1-.594-.266 2.4 2.4 0 0 1-.39-.719 6 6 0 0 1-.25-.953 13 13 0 0 1-.11-1.031q-.03-.516-.047-.922v-.625q0-.234-.015-.687 0-.453.015-.985.032-.53.094-1.078.063-.562.203-1.016t.36-.734a.73.73 0 0 1 .593-.297q.406 0 .657.219.265.22.265.656 0 .094-.015.188 0 .093-.016.172.172-.25.422-.5.25-.266.531-.47a2.6 2.6 0 0 1 .625-.343q.329-.14.656-.14a.97.97 0 0 1 .563.171q.25.172.437.438.188.25.313.547t.172.562q.156-.281.375-.562.234-.297.5-.516t.578-.36q.329-.14.672-.14.328 0 .562.234t.407.61q.172.36.265.828.094.453.156.906.063.438.079.828.015.375.015.594m8.422 0q0 .453-.078 1.031-.063.562-.219 1.157a6.6 6.6 0 0 1-.39 1.156 4.3 4.3 0 0 1-.594 1.015q-.344.438-.813.704a2.06 2.06 0 0 1-1.062.265q-.64 0-1.172-.297a2.9 2.9 0 0 1-.891-.812 1.3 1.3 0 0 1-.343.75 1 1 0 0 1-.75.312q-.266 0-.454-.265a2.4 2.4 0 0 1-.281-.672 7 7 0 0 1-.172-.922 16 16 0 0 1-.062-.969 24 24 0 0 1-.016-.844v-1.593l.031-1.078q0-.266-.015-.797 0-.531.015-1.172.017-.657.063-1.328.063-.688.203-1.25t.391-.922.64-.375q.313 0 .532.219.218.218.359.578.156.36.234.812.095.438.125.89.047.439.047.845.016.39.016.64 0 .046-.016.219v.844a2.3 2.3 0 0 1 .406-.578q.266-.282.594-.5t.688-.36q.358-.14.687-.14.656 0 1.094.343.453.329.719.844.265.516.375 1.125.11.594.109 1.125m-2.297.469q0-.187-.031-.406a1.1 1.1 0 0 0-.109-.407.8.8 0 0 0-.235-.312.55.55 0 0 0-.375-.125 1.2 1.2 0 0 0-.5.11 2.3 2.3 0 0 0-.453.28q-.219.172-.406.375-.188.188-.328.375l-.157 1.391q.25.36.61.578.359.203.812.203.344 0 .563-.218.234-.219.359-.532.14-.327.188-.687a4 4 0 0 0 .062-.625m6.219 5.14q-.797 0-1.391-.421a3.7 3.7 0 0 1-1-1.079 5.2 5.2 0 0 1-.609-1.453 6.6 6.6 0 0 1-.203-1.593q0-.828.203-1.704.203-.89.625-1.609.422-.734 1.078-1.187.656-.47 1.563-.47.875 0 1.484.485.625.47 1 1.188.375.702.531 1.547.156.843.11 1.593a8.6 8.6 0 0 1-.266 1.672 5.3 5.3 0 0 1-.609 1.516 3.5 3.5 0 0 1-1.032 1.094q-.624.42-1.484.421m.156-7.062q-.234 0-.422.25-.171.25-.297.61a5.5 5.5 0 0 0-.171.765q-.063.39-.063.688 0 .374.063.812.078.438.203.813.124.36.297.609.187.234.421.234.25 0 .422-.234.188-.234.297-.594.11-.36.156-.781.048-.438.047-.813 0-.343-.062-.75a4.3 4.3 0 0 0-.188-.78 1.8 1.8 0 0 0-.297-.595q-.172-.234-.406-.234m9.453.766q-.218.016-.375-.032l-.312-.125a3 3 0 0 0-.281-.109.6.6 0 0 0-.313-.047q-.312.016-.562.172a2.2 2.2 0 0 0-.438.39 2.7 2.7 0 0 0-.328.532 3 3 0 0 0-.219.562 4 4 0 0 0-.078.578q-.016.375-.016.813-.015.453-.015.86t-.031.64a5 5 0 0 1-.079.594 2.6 2.6 0 0 1-.203.625 1.4 1.4 0 0 1-.343.5.8.8 0 0 1-.563.203.75.75 0 0 1-.469-.156 1.4 1.4 0 0 1-.328-.407 4 4 0 0 1-.219-.609 8 8 0 0 1-.125-.703q-.046-.375-.078-.75-.015-.375-.031-.703v-.625q.016-.282.016-.453-.017-.548-.063-1.094a20 20 0 0 1-.031-1.11q0-.344.031-.765t.172-.781a1.6 1.6 0 0 1 .406-.625q.282-.25.766-.25.265 0 .453.171.187.173.297.422.125.25.187.532.063.28.079.515.375-.609.843-.984.47-.39 1.219-.422.375-.015.734.078.375.078.672.281.313.188.5.5.204.313.219.735.031.5-.297.765-.328.266-.797.282m7.969 3.64q0 .282-.031.735a4.3 4.3 0 0 1-.125.89 2.1 2.1 0 0 1-.344.735q-.234.312-.656.312-.578 0-.891-.375-.312-.375-.297-.937-.5.436-1.14.687-.625.25-1.282.25-.453 0-.859-.219a2.7 2.7 0 0 1-.719-.562 2.9 2.9 0 0 1-.5-.766 2.2 2.2 0 0 1-.187-.86q0-.75.453-1.312a4.2 4.2 0 0 1 1.141-.953 6.5 6.5 0 0 1 1.421-.64q.766-.234 1.36-.313v-.14a.6.6 0 0 0 .015-.141q0-.484-.265-.781t-.75-.297q-.391 0-.672.14a3.3 3.3 0 0 0-.531.297q-.25.156-.5.297a1.24 1.24 0 0 1-.563.125.87.87 0 0 1-.594-.219.74.74 0 0 1-.234-.562q0-.515.297-.938.313-.42.766-.703a4 4 0 0 1 1-.453 3.4 3.4 0 0 1 1-.172q.422 0 .843.11.422.093.797.312.375.203.672.516.312.297.5.703.282.578.453 1.234.172.64.266 1.328.093.672.125 1.36.031.672.031 1.312m-2.5-.5-.047-1.062h-.062a.14.14 0 0 0-.063-.016q-.203 0-.515.11a2.3 2.3 0 0 0-.579.28 2.3 2.3 0 0 0-.484.391.7.7 0 0 0-.187.453q0 .219.156.297a.8.8 0 0 0 .359.078q.343 0 .735-.171.39-.187.687-.36m6.359-3.844q0 .25-.031.688-.031.422-.094.922a9 9 0 0 1-.187 1q-.109.5-.266.922-.156.406-.375.672-.218.25-.5.25-.344 0-.593-.329a3.5 3.5 0 0 1-.407-.859 9 9 0 0 1-.25-1.172 19 19 0 0 1-.14-1.25 26 26 0 0 1-.063-1.14v-1.516q0-.438.031-.922.048-.484.125-.953a4.2 4.2 0 0 1 .266-.875q.172-.39.453-.625a1.02 1.02 0 0 1 .703-.25q.375 0 .61.328.25.313.39.828.157.501.219 1.125.078.625.094 1.235.031.593.015 1.109zm-.296 5.938a.9.9 0 0 1-.125.469q-.125.188-.329.312a1.4 1.4 0 0 1-.437.203 1.8 1.8 0 0 1-.469.063q-.344 0-.656-.188-.312-.172-.313-.562 0-.234.125-.422.141-.203.344-.344a1.7 1.7 0 0 1 .438-.219q.25-.078.468-.078.36 0 .657.188.297.171.297.578"/><defs><filter id="a" width="226.567" height="111" x="0" y="0" color-interpolation-filters="sRGB" filterUnits="userSpaceOnUse"><feFlood flood-opacity="0" result="BackgroundImageFix"/><feBlend in="SourceGraphic" in2="BackgroundImageFix" result="shape"/><feColorMatrix in="SourceAlpha" result="hardAlpha" values="0 0 0 0 0 0 0 0 0 0 0 0 0 0 0 0 0 0 127 0"/><feOffset dy="4"/><feGaussianBlur stdDeviation="2"/><feComposite in2="hardAlpha" k2="-1" k3="1" operator="arithmetic"/><feColorMatrix values="0 0 0 0 0 0 0 0 0 0 0 0 0 0 0 0 0 0 0.25 0"/><feBlend in2="shape" result="effect1_innerShadow_1137_1372"/></filter></defs></svg>