<svg xmlns="http://www.w3.org/2000/svg" width="270" height="170" fill="none" viewBox="0 0 270 170"><g filter="url(#a)"><path fill="#3dc3ff" fill-rule="evenodd" d="M27.4 91.104C20.29 82.657 17 73.103 17 63.126c0-22.058 21.423-43.85 56.862-54.624C91.05 3.276 111.246 1 134.45 1c71.044 0 136.561 22.506 133.764 62.126 0 19.659-12.125 37.736-36.82 48.529-16.455 7.19-38.24 10.784-66.648 10.784-50.355 3.518-88.439-2.366-112.79-13.598-5.674-2.616-10.602-5.523-14.824-8.67-12.36 6.796-26.705 7.845-48.132 9.123 18.795-5.889 30.952-10.048 38.4-18.19" clip-rule="evenodd"/></g><path fill="#3dc3ff" d="m27.4 91.104.739.675a1 1 0 0 0 .027-1.32zM73.863 8.502l.29.957zm194.352 54.624-.997-.07-.003.07zm-36.82 48.529.4.916zm-66.648 10.784v-1l-.07.002zm-112.79-13.598.418-.908zm-14.824-8.67.598-.802a1 1 0 0 0-1.08-.075zM-11 109.294l-.299-.955a1 1 0 0 0 .358 1.953zm28-46.168h-1c0 10.212 3.373 19.995 10.636 28.622l.765-.644.765-.644C21.206 82.194 18 72.867 18 63.126zM73.862 8.502l-.291-.957C37.99 18.363 16 40.392 16 63.126h2C18 41.743 38.854 20.19 74.152 9.459zM134.45 1V0c-23.262 0-43.564 2.281-60.88 7.545l.292.957.29.957C91.216 4.27 111.306 2 134.45 2zm133.764 62.126.998.07c1.446-20.49-14.799-36.294-39.799-46.91C204.342 5.637 170.058 0 134.45 0v2c35.436 0 69.433 5.615 94.182 16.126 24.82 10.54 39.935 25.8 38.585 44.93zm-36.82 48.529.4.916c24.977-10.915 37.42-29.306 37.42-49.445h-2c0 19.179-11.808 36.943-36.221 47.612zm-66.648 10.784v1c28.478 0 50.418-3.6 67.048-10.868l-.4-.916-.401-.917c-16.278 7.114-37.909 10.701-66.247 10.701zm-112.79-13.598-.42.908c24.564 11.33 62.837 17.211 113.28 13.687l-.07-.997-.07-.998c-50.267 3.512-88.162-2.374-112.302-13.508zm-14.824-8.67-.597.802c4.284 3.193 9.273 6.134 15.001 8.776l.42-.908.418-.908c-5.618-2.591-10.484-5.463-14.644-8.564zm0 0-.481-.877c-12.127 6.668-26.225 7.721-47.71 9.001l.059.999.06.998c21.368-1.274 35.958-2.319 48.554-9.245zM-11 109.294l.299.954c9.39-2.942 17.18-5.47 23.56-8.29 6.388-2.823 11.427-5.967 15.28-10.18l-.738-.674-.738-.675c-3.596 3.93-8.36 6.937-14.612 9.7-6.26 2.767-13.944 5.263-23.35 8.21z"/><path fill="#fff" d="M52.822 41.688q0 .312-.062.75a3.3 3.3 0 0 1-.203.843q-.157.39-.422.672-.266.266-.703.266-.58 0-.875-.422a2.9 2.9 0 0 1-.407-1 8 8 0 0 1-.156-1.203q-.015-.61-.031-.969-1.125.187-2.219.328-.031.36-.14.89a4.5 4.5 0 0 1-.313 1.032 2.7 2.7 0 0 1-.547.844q-.329.36-.812.36a.73.73 0 0 1-.594-.267 2.1 2.1 0 0 1-.313-.656 4 4 0 0 1-.14-.765q-.015-.407-.016-.672 0-.89.14-1.75a32 32 0 0 1 .579-2.797q.156-.61.375-1.25.234-.657.531-1.281.313-.641.703-1.141t.89-.812a2.05 2.05 0 0 1 1.11-.313q.594 0 1.031.266.438.265.766.703t.547 1q.219.547.36 1.125.155.563.25 1.11.109.546.187.968.203 1.015.344 2.062.14 1.032.14 2.078m-3.015-3.797q0-.187-.032-.61a6 6 0 0 0-.093-.86 2.7 2.7 0 0 0-.25-.765q-.157-.343-.438-.343-.156 0-.297.218a2.1 2.1 0 0 0-.25.532 7 7 0 0 0-.203.703q-.078.39-.14.75a10 10 0 0 0-.094.656l-.047.406a21 21 0 0 0 1.844-.234zM63.4 38q0 .079-.015.172a1 1 0 0 1-.047.156 1.5 1.5 0 0 1-.438.61 1.1 1.1 0 0 1-.703.234q-.609 0-.828-.61a.5.5 0 0 1-.031-.171q0-.11-.016-.22v-.452a.9.9 0 0 0-.11-.344q-.077-.125-.265-.125-.266 0-.515.344a3.8 3.8 0 0 0-.422.797 7 7 0 0 0-.282.937q-.108.484-.109.781 0 .236.031.578.032.33.125.641.094.312.25.547.172.219.438.219a.8.8 0 0 0 .484-.157q.234-.171.453-.39.204-.187.438-.39a.87.87 0 0 1 .562-.204q.39 0 .61.281a.97.97 0 0 1 .234.641q0 .532-.281 1a3.2 3.2 0 0 1-.703.797 3.4 3.4 0 0 1-.938.516 2.7 2.7 0 0 1-.984.203q-.844 0-1.438-.422a3.3 3.3 0 0 1-.937-1.063 5 5 0 0 1-.516-1.422 7.3 7.3 0 0 1-.156-1.453q0-.797.219-1.718.219-.939.672-1.735a4.3 4.3 0 0 1 1.156-1.328q.719-.531 1.703-.531.609 0 1.047.265.453.266.734.703.297.423.438.954.156.531.156 1.047v.156A1 1 0 0 1 63.4 38m7.97 1.953q0 .266-.017.797 0 .516-.046 1.094-.032.562-.094 1.078-.063.5-.156.734-.126.297-.329.516a.71.71 0 0 1-.546.219q-.532 0-.766-.422t-.312-1.047a9.4 9.4 0 0 1-.063-1.36q.015-.734-.016-1.359a4 4 0 0 0-.172-1.047q-.14-.422-.515-.422-.516 0-.797.172a.95.95 0 0 0-.39.422q-.11.265-.141.61-.015.343-.047.718-.032.36-.047.969t-.14 1.203a2.9 2.9 0 0 1-.422 1.031q-.282.422-.844.422a.7.7 0 0 1-.563-.265 2.1 2.1 0 0 1-.328-.688 6 6 0 0 1-.187-.937 17 17 0 0 1-.063-1v-.907q.016-.406.016-.609 0-.312.015-1.031.032-.719.11-1.594.078-.89.203-1.828t.328-1.703q.203-.781.484-1.266.297-.484.688-.469.25.016.422.22.188.203.297.53.124.313.203.688.078.375.11.75.046.36.046.672.016.313.016.484a21 21 0 0 1-.063 1.625 2.8 2.8 0 0 1 .953-.797 2.65 2.65 0 0 1 1.219-.312q.78 0 1.172.437.405.423.578 1.063.172.624.188 1.343.015.704.015 1.266m7.75 1.844q0 .28-.032.734-.015.454-.125.89a2.1 2.1 0 0 1-.344.735q-.234.313-.656.313-.579 0-.89-.375-.314-.375-.298-.938-.5.438-1.14.688-.625.25-1.282.25-.453 0-.859-.219a2.7 2.7 0 0 1-.719-.562 2.9 2.9 0 0 1-.5-.766 2.2 2.2 0 0 1-.187-.86q0-.75.453-1.312a4.3 4.3 0 0 1 1.14-.953q.672-.406 1.422-.64.766-.235 1.36-.313v-.14a.6.6 0 0 0 .016-.142q-.001-.484-.266-.78-.266-.298-.75-.298-.39 0-.672.141a3.3 3.3 0 0 0-.531.297q-.25.156-.5.297a1.24 1.24 0 0 1-.563.125.87.87 0 0 1-.594-.219.74.74 0 0 1-.234-.562q0-.516.297-.938.312-.422.766-.703a4 4 0 0 1 1-.453 3.4 3.4 0 0 1 1-.172q.42 0 .843.11.422.093.797.312.375.203.672.515.312.297.5.703.282.579.453 1.235.172.64.266 1.328.093.672.125 1.36.03.671.031 1.312m-2.5-.5-.048-1.063h-.062a.14.14 0 0 0-.063-.015q-.203 0-.515.11-.297.093-.579.28a2.3 2.3 0 0 0-.484.391.7.7 0 0 0-.187.453q0 .219.156.297a.8.8 0 0 0 .36.078q.342 0 .734-.172.39-.187.687-.36m10.171-2.89q-.406 1.077-.89 2.25-.485 1.17-1.047 2.187-.345.624-.766 1.047-.421.405-.969.406-.437 0-.86-.438a6.6 6.6 0 0 1-.765-1.062q-.344-.625-.61-1.25a23 23 0 0 1-.374-1.016 40 40 0 0 0-.282-.906 15 15 0 0 1-.28-.984 12 12 0 0 1-.204-.985 6 6 0 0 1-.078-.937q0-.61.219-1t.86-.39q.25 0 .452.155.203.141.375.407.172.265.328.625.156.343.297.765.14.406.266.844.124.438.25.844.124.405.25.797.14.375.36.75.108-.282.25-.641l.296-.766q.172-.406.36-.828.186-.437.406-.843a8.3 8.3 0 0 1 .89-1.438q.485-.594.953-.594.438 0 .626.266.186.265.187.687 0 .423-.14.953-.141.533-.36 1.094m7.594 2.812q0 .531-.344 1.047-.328.5-.844.906-.5.39-1.078.64-.578.235-1.062.235a2.76 2.76 0 0 1-1.485-.406 3.9 3.9 0 0 1-1.078-1.063 5.2 5.2 0 0 1-.672-1.406 5.6 5.6 0 0 1-.219-1.516q0-.78.22-1.672.218-.89.656-1.64.453-.75 1.124-1.25.688-.5 1.626-.5.53 0 1.015.187a2.45 2.45 0 0 1 1.422 1.282q.219.453.219 1.015 0 .735-.313 1.375a3.6 3.6 0 0 1-.828 1.11q-.516.468-1.187.765a4 4 0 0 1-1.375.313q.062.453.359.656.312.203.734.203.313 0 .61-.156.296-.156.578-.344.281-.203.547-.36a1.15 1.15 0 0 1 .562-.156q.313 0 .563.203t.25.532m-2.532-3.828a.94.94 0 0 0-.109-.422.36.36 0 0 0-.344-.219.9.9 0 0 0-.578.188 1.4 1.4 0 0 0-.39.453q-.157.266-.25.578a3 3 0 0 0-.094.578q.219-.047.516-.125.311-.078.578-.203a1.6 1.6 0 0 0 .468-.344.66.66 0 0 0 .203-.484m10.391-5.047q0 .219-.172.531-.172.297-.265.516-.5 1.171-.86 2.468a9.5 9.5 0 0 0-.359 2.578q0 1.297.359 2.641.376 1.344.922 2.516.11.219.234.422a.83.83 0 0 1 .141.453q0 .219-.156.343a.52.52 0 0 1-.36.126 1 1 0 0 1-.531-.157 2.2 2.2 0 0 1-.437-.39 4 4 0 0 1-.375-.5 10.4 10.4 0 0 1-1.14-2.89 11.3 11.3 0 0 1-.298-2.548q0-.626.11-1.281.108-.657.296-1.297.189-.656.422-1.266a17 17 0 0 1 .766-1.625q.14-.265.328-.5.188-.25.406-.422a.75.75 0 0 1 .469-.171.5.5 0 0 1 .344.125.4.4 0 0 1 .156.328m3.359.75a.64.64 0 0 1-.125.39 1.2 1.2 0 0 1-.296.313 2 2 0 0 1-.407.203 1.5 1.5 0 0 1-.406.063.96.96 0 0 1-.547-.157q-.234-.156-.234-.484a.74.74 0 0 1 .109-.406q.126-.187.297-.297.172-.126.391-.188t.422-.062q.297 0 .546.14t.25.485m.125 5.312v.469q0 .234-.015.453-.016.266-.016.719 0 .438-.031.953-.031.516-.109 1.047a4.4 4.4 0 0 1-.219.969 2 2 0 0 1-.422.718.9.9 0 0 1-.641.282.58.58 0 0 1-.5-.235 2.2 2.2 0 0 1-.343-.64 5.3 5.3 0 0 1-.188-.891 17 17 0 0 1-.094-.953q-.03-.47-.031-.86v-1.281q0-.468.031-1 .032-.53.11-1.078.094-.547.25-1 .171-.453.437-.734a.88.88 0 0 1 .672-.282q.422 0 .641.422.219.423.328.985t.125 1.125q.015.546.015.812m5.547 6.032q-.265 0-.422-.25a1.7 1.7 0 0 1-.234-.547 4.4 4.4 0 0 1-.109-.625 11 11 0 0 1-.016-.5q0-.469.047-.938l.125-.937q.078-.469.125-.938a7 7 0 0 0 .062-.937q0-.187-.015-.407a1.7 1.7 0 0 0-.078-.406.67.67 0 0 0-.172-.328.44.44 0 0 0-.328-.125q-.14 0-.313.234a3.4 3.4 0 0 0-.328.516q-.14.282-.25.578a1.5 1.5 0 0 0-.094.422v.703q.016.345.016.703v.907q-.015.28-.047.578-.031.297-.094.578-.047.281-.14.547a1.8 1.8 0 0 1-.25.453q-.141.188-.344.312a.9.9 0 0 1-.484.125.7.7 0 0 1-.516-.203 1.5 1.5 0 0 1-.328-.516 3.7 3.7 0 0 1-.188-.718q-.047-.407-.078-.782-.015-.39-.015-.703.015-.327.015-.515v-.735q0-.593-.031-1.172-.016-.577-.016-1.156v-.797q.016-.484.125-.937.11-.469.36-.797t.734-.328q.219 0 .391.14.171.141.297.344.14.204.218.438.095.234.141.406.156-.219.359-.422.22-.203.485-.36a2.54 2.54 0 0 1 1.343-.343q.797 0 1.235.39.453.375.656.954.219.563.266 1.218.047.657.047 1.188 0 .266-.047.797-.048.516-.157 1.156-.093.626-.265 1.297-.172.657-.406 1.203a3 3 0 0 1-.563.89q-.312.344-.719.344m7.61-9.032q0 .453-.313.672a6 6 0 0 1-.672.422q-.375.188-.687.453-.297.266-.297.797a.9.9 0 0 0 .125.484q.14.203.328.375.203.157.438.328t.421.391a1.7 1.7 0 0 1 .329.531q.14.313.14.766 0 .657-.344 1.297a4.2 4.2 0 0 1-.859 1.125 4.3 4.3 0 0 1-1.172.781q-.656.297-1.297.297-.266 0-.531-.047a1.5 1.5 0 0 1-.484-.14 1.04 1.04 0 0 1-.344-.297.9.9 0 0 1-.141-.516q0-.438.172-.672.172-.25.438-.39.265-.14.562-.22.313-.077.578-.187a1.4 1.4 0 0 0 .438-.312q.172-.187.172-.532 0-.327-.266-.671-.25-.36-.562-.75a8 8 0 0 1-.579-.86 2.04 2.04 0 0 1-.25-1q0-.672.266-1.234.281-.579.734-1 .47-.422 1.063-.656.593-.25 1.25-.25.25 0 .484.047.25.046.438.171a.8.8 0 0 1 .297.313.86.86 0 0 1 .125.484m7.468 4.125q0 .859-.171 1.703a4.7 4.7 0 0 1-.579 1.516q-.405.657-1.093 1.063-.672.405-1.688.406-1 0-1.672-.39a3.2 3.2 0 0 1-1.078-1.063 4.8 4.8 0 0 1-.562-1.485 9 9 0 0 1-.157-1.687q0-.937.219-1.86.047-.249.172-.687.14-.453.344-.875.219-.438.484-.75.282-.312.61-.313.312 0 .5.172t.296.438q.11.25.141.547.031.28.031.515 0 .36-.062.703a15 15 0 0 1-.11.688l-.125.937a9.5 9.5 0 0 0-.031 1.47q.032.28.125.546.094.266.266.453.172.172.484.172.407 0 .641-.219.25-.219.359-.547a2.5 2.5 0 0 0 .156-.703q.032-.375.032-.687 0-.688-.094-1.344a51 51 0 0 1-.172-1.36 1.5 1.5 0 0 1 .063-.687 1.5 1.5 0 0 1 .218-.422q.141-.187.344-.297a.85.85 0 0 1 .453-.125q.344 0 .61.25.266.235.437.625.188.375.297.86.125.468.187.937.08.453.094.86.031.406.031.64m3.875-5q0 .844-.078 1.703a23 23 0 0 0-.062 1.703q0 1.11.062 2.22.078 1.109.078 2.234 0 .28-.031.64-.031.345-.156.64a1.2 1.2 0 0 1-.344.5q-.234.204-.625.204-.375 0-.656-.375a3.3 3.3 0 0 1-.453-.922 12 12 0 0 1-.297-1.281q-.11-.703-.172-1.36a107 107 0 0 1-.078-1.218q-.016-.562-.016-.828 0-.297.016-.86.031-.562.109-1.218t.203-1.329q.141-.687.36-1.234.22-.562.515-.906.314-.36.735-.36.344 0 .515.235.188.219.266.547.078.312.094.672.015.344.015.593m3.766-1.437a.65.65 0 0 1-.125.39 1.2 1.2 0 0 1-.297.313q-.187.124-.406.203a1.5 1.5 0 0 1-.406.063.96.96 0 0 1-.547-.157q-.234-.156-.235-.484a.74.74 0 0 1 .11-.406 1 1 0 0 1 .297-.297q.172-.126.39-.188a1.5 1.5 0 0 1 .422-.062q.297 0 .547.14t.25.485m.125 5.312v.469q0 .234-.016.453-.015.266-.015.719 0 .438-.031.953-.032.516-.11 1.047a4.3 4.3 0 0 1-.219.969 2 2 0 0 1-.421.718.9.9 0 0 1-.641.282.58.58 0 0 1-.5-.235 2.2 2.2 0 0 1-.344-.64 5.3 5.3 0 0 1-.187-.891 17 17 0 0 1-.094-.953 13 13 0 0 1-.031-.86v-1.281q0-.468.031-1 .031-.53.109-1.078.094-.547.25-1a2.2 2.2 0 0 1 .438-.734.88.88 0 0 1 .672-.282q.422 0 .64.422.22.423.328.985.11.563.125 1.125.016.546.016.812m5.547 6.032q-.266 0-.422-.25a1.7 1.7 0 0 1-.234-.547 4.4 4.4 0 0 1-.11-.625q-.015-.33-.015-.5 0-.469.047-.938l.125-.937q.077-.469.125-.938a7 7 0 0 0 .062-.937q0-.187-.016-.407a1.6 1.6 0 0 0-.078-.406.66.66 0 0 0-.172-.328.44.44 0 0 0-.328-.125q-.14 0-.312.234a3.3 3.3 0 0 0-.328.516q-.14.282-.25.578a1.5 1.5 0 0 0-.094.422v.703q.015.345.016.703v.907q-.016.28-.047.578t-.094.578q-.046.281-.141.547a1.7 1.7 0 0 1-.25.453q-.14.188-.343.312a.9.9 0 0 1-.485.125.7.7 0 0 1-.515-.203 1.5 1.5 0 0 1-.329-.516 3.7 3.7 0 0 1-.187-.718q-.046-.407-.078-.782-.016-.39-.016-.703.016-.327.016-.515v-.735q0-.593-.031-1.172-.016-.577-.016-1.156v-.797q.015-.484.125-.937.11-.469.359-.797.25-.328.735-.328.219 0 .39.14.173.141.297.344.141.204.219.438.093.234.141.406.156-.219.359-.422.219-.203.484-.36a2.53 2.53 0 0 1 1.344-.343q.797 0 1.234.39.454.375.657.954.219.563.265 1.218.048.657.047 1.188 0 .266-.047.797-.047.516-.156 1.156a13 13 0 0 1-.266 1.297 8.5 8.5 0 0 1-.406 1.203 3 3 0 0 1-.562.89q-.313.344-.719.344m9.672-2.641q0 .28-.031.734a4.3 4.3 0 0 1-.125.89 2.1 2.1 0 0 1-.344.735q-.234.313-.656.313-.579 0-.891-.375t-.297-.938q-.5.438-1.141.688-.624.25-1.281.25-.453 0-.859-.219a2.7 2.7 0 0 1-.719-.562 2.9 2.9 0 0 1-.5-.766 2.2 2.2 0 0 1-.187-.86q0-.75.453-1.312a4.2 4.2 0 0 1 1.14-.953q.672-.406 1.422-.64a8.5 8.5 0 0 1 1.36-.313v-.14a.6.6 0 0 0 .015-.142q0-.484-.265-.78-.266-.298-.75-.298-.392 0-.672.141a3.3 3.3 0 0 0-.532.297q-.25.156-.5.297a1.24 1.24 0 0 1-.562.125.87.87 0 0 1-.594-.219.74.74 0 0 1-.234-.562q0-.516.297-.938.312-.422.765-.703a4 4 0 0 1 1-.453 3.4 3.4 0 0 1 1-.172q.423 0 .844.11.422.093.797.312.375.203.672.515.312.297.5.703.28.579.453 1.235.172.64.266 1.328.093.672.125 1.36.03.671.031 1.312m-2.5-.5-.047-1.063h-.063a.13.13 0 0 0-.062-.015q-.202 0-.516.11-.296.093-.578.28a2.3 2.3 0 0 0-.484.391.7.7 0 0 0-.188.453q0 .219.157.297a.8.8 0 0 0 .359.078q.344 0 .734-.172.391-.187.688-.36m6.625-3v.094q0 .61-.11 1.265-.109.657-.312 1.297-.187.641-.438 1.266a12 12 0 0 1-.781 1.61 3 3 0 0 1-.328.5q-.187.232-.406.405a.75.75 0 0 1-.469.172.6.6 0 0 1-.344-.125.39.39 0 0 1-.156-.312q0-.235.172-.532.172-.296.266-.53.5-1.173.875-2.47.39-1.312.39-2.624 0-1.297-.344-2.61a15 15 0 0 0-.89-2.5 2.4 2.4 0 0 0-.235-.422.9.9 0 0 1-.125-.437q0-.218.141-.344a.52.52 0 0 1 .359-.14q.282 0 .532.156.249.156.453.39.203.235.359.5.156.266.266.485.546 1.125.828 2.39.297 1.266.297 2.516m11.422 2.922q0 .531-.344 1.047-.328.5-.844.906a5 5 0 0 1-1.078.64q-.578.235-1.062.235a2.77 2.77 0 0 1-1.485-.406 3.9 3.9 0 0 1-1.078-1.063 5.1 5.1 0 0 1-.672-1.406 5.6 5.6 0 0 1-.219-1.516q0-.78.219-1.672.22-.89.656-1.64.454-.75 1.125-1.25.688-.5 1.625-.5.532 0 1.016.187a2.46 2.46 0 0 1 1.422 1.282q.219.453.219 1.015 0 .735-.313 1.375a3.6 3.6 0 0 1-.828 1.11 4.4 4.4 0 0 1-1.187.765 4 4 0 0 1-1.375.313q.062.453.359.656.312.203.734.203.313 0 .61-.156t.578-.344q.281-.203.547-.36.281-.156.562-.156a.87.87 0 0 1 .563.203q.25.204.25.532m-2.532-3.828a.94.94 0 0 0-.109-.422.36.36 0 0 0-.344-.219.9.9 0 0 0-.578.188 1.4 1.4 0 0 0-.39.453q-.157.266-.25.578a3 3 0 0 0-.094.578q.22-.047.515-.125a3 3 0 0 0 .579-.203q.28-.141.468-.344a.66.66 0 0 0 .203-.484m7.735-1.985q0 .453-.313.672a6 6 0 0 1-.672.422q-.375.188-.687.453-.297.266-.297.797a.9.9 0 0 0 .125.484q.14.203.328.375.203.157.438.328t.422.391q.202.219.328.531.14.313.14.766 0 .657-.343 1.297a4.3 4.3 0 0 1-.86 1.125 4.3 4.3 0 0 1-1.172.781 3.1 3.1 0 0 1-1.297.297q-.266 0-.531-.047a1.5 1.5 0 0 1-.484-.14 1.04 1.04 0 0 1-.344-.297.9.9 0 0 1-.141-.516q0-.438.172-.672.173-.25.438-.39t.562-.22q.313-.077.578-.187a1.4 1.4 0 0 0 .438-.312q.172-.187.172-.532 0-.327-.266-.671a14 14 0 0 0-.562-.75 8 8 0 0 1-.578-.86 2.03 2.03 0 0 1-.25-1q0-.672.265-1.234.282-.579.735-1a3.5 3.5 0 0 1 1.062-.656q.594-.25 1.25-.25.25 0 .484.047.25.046.438.171a.8.8 0 0 1 .297.313.86.86 0 0 1 .125.484m4.265 9.157q-1.109 0-1.734-.297a2 2 0 0 1-.922-.813q-.297-.531-.359-1.281-.063-.75-.063-1.672 0-.735.047-1.469.047-.75.141-1.593-.22 0-.344.015h-.203a1.6 1.6 0 0 1-.859-.219q-.375-.218-.375-.672a.7.7 0 0 1 .218-.5q.204-.218.532-.374.327-.157.703-.25.39-.094.734-.126 0-.437.063-.968.062-.531.218-.985.173-.469.453-.78a.93.93 0 0 1 .719-.313q.25 0 .438.156.203.141.328.375.125.218.187.5.063.281.063.547 0 .313-.047.64-.047.33-.172.813.266-.031.359-.031.094-.015.172-.016.266 0 .547.047.297.047.531.156.25.11.407.297a.6.6 0 0 1 .156.422.67.67 0 0 1-.234.5q-.22.218-.563.375a4 4 0 0 1-.734.25 7 7 0 0 1-.735.11 20 20 0 0 0-.14 1.187q-.031.53-.078 1.078l-.063.547q-.016.266-.016.547 0 .203.016.484.016.266.109.516.095.25.297.437.204.172.563.172.219 0 .453-.031.234-.047.469-.047.406 0 .578.281.187.282.187.719a.9.9 0 0 1-.203.578 1.35 1.35 0 0 1-.484.375 2.6 2.6 0 0 1-.672.234q-.36.078-.688.078m9-2.766q0 .28-.031.734-.015.454-.125.89a2.1 2.1 0 0 1-.344.735q-.234.313-.656.313-.578 0-.89-.375-.314-.375-.297-.938-.5.438-1.141.688-.625.25-1.281.25a1.8 1.8 0 0 1-.86-.219 2.7 2.7 0 0 1-.718-.562 2.8 2.8 0 0 1-.5-.766 2.2 2.2 0 0 1-.188-.86q0-.75.453-1.312a4.3 4.3 0 0 1 1.141-.953q.672-.406 1.422-.64.765-.235 1.359-.313v-.14a.6.6 0 0 0 .016-.142q0-.484-.266-.78-.265-.298-.75-.298-.39 0-.672.141a3.3 3.3 0 0 0-.531.297q-.25.156-.5.297a1.24 1.24 0 0 1-.562.125.87.87 0 0 1-.594-.219.74.74 0 0 1-.235-.562q0-.516.297-.938.313-.422.766-.703a4 4 0 0 1 1-.453 3.4 3.4 0 0 1 1-.172q.421 0 .844.11.422.093.797.312.375.203.671.515.313.297.5.703.282.579.454 1.235.171.64.265 1.328.094.672.125 1.36.031.671.031 1.312m-2.5-.5-.046-1.063h-.063a.14.14 0 0 0-.062-.015 1.6 1.6 0 0 0-.516.11 2.3 2.3 0 0 0-.578.28 2.3 2.3 0 0 0-.485.391.7.7 0 0 0-.187.453q0 .219.156.297a.8.8 0 0 0 .36.078q.344 0 .734-.172.39-.187.687-.36m.75-9.125q0 .171-.093.344a1.6 1.6 0 0 1-.235.297 2.3 2.3 0 0 1-.281.265q-.156.109-.281.203a8 8 0 0 0-.25.188 3 3 0 0 1-.281.187 3 3 0 0 1-.297.14.7.7 0 0 1-.282.063.4.4 0 0 1-.218-.062.27.27 0 0 1-.094-.219q0-.235.172-.562a4 4 0 0 1 .453-.657q.266-.327.562-.547.298-.234.547-.234a.52.52 0 0 1 .391.188q.187.172.187.406m9.375 2.36q0 .843-.078 1.702a23 23 0 0 0-.062 1.703q0 1.11.062 2.22.078 1.109.078 2.234 0 .28-.031.64-.031.345-.156.64a1.2 1.2 0 0 1-.344.5q-.234.204-.625.204-.375 0-.656-.375a3.3 3.3 0 0 1-.453-.922 12 12 0 0 1-.297-1.281q-.11-.703-.172-1.36a107 107 0 0 1-.078-1.218q-.015-.562-.016-.828 0-.297.016-.86.031-.562.109-1.218t.203-1.329q.141-.687.36-1.234.22-.562.515-.906.314-.36.735-.36.344 0 .515.235.188.219.266.547.078.312.094.672.015.344.015.593m7.829 7.265q0 .28-.032.734-.015.454-.125.89a2.1 2.1 0 0 1-.343.735q-.235.313-.657.313-.578 0-.89-.375t-.297-.938q-.5.438-1.141.688a3.4 3.4 0 0 1-1.281.25q-.454 0-.859-.219a2.7 2.7 0 0 1-.719-.562 2.9 2.9 0 0 1-.5-.766 2.2 2.2 0 0 1-.188-.86q0-.75.453-1.312a4.3 4.3 0 0 1 1.141-.953q.672-.406 1.422-.64.766-.235 1.359-.313v-.14a.6.6 0 0 0 .016-.142q0-.484-.266-.78-.265-.298-.75-.298-.39 0-.672.141a3.3 3.3 0 0 0-.531.297q-.25.156-.5.297a1.24 1.24 0 0 1-.562.125.87.87 0 0 1-.594-.219.74.74 0 0 1-.234-.562q0-.516.296-.938.313-.422.766-.703a4 4 0 0 1 1-.453 3.4 3.4 0 0 1 1-.172q.422 0 .844.11.422.093.797.312.375.203.672.515.312.297.5.703.28.579.453 1.235.172.64.265 1.328.095.672.125 1.36.032.671.032 1.312m-2.5-.5-.047-1.063h-.063a.14.14 0 0 0-.062-.015 1.6 1.6 0 0 0-.516.11 2.3 2.3 0 0 0-.578.28 2.3 2.3 0 0 0-.484.391.7.7 0 0 0-.188.453q0 .219.156.297a.8.8 0 0 0 .36.078q.344 0 .734-.172.391-.187.688-.36m.75-9.125q0 .171-.094.344a1.6 1.6 0 0 1-.235.297 2.3 2.3 0 0 1-.281.265q-.156.109-.281.203a8 8 0 0 0-.25.188 3 3 0 0 1-.281.187 3 3 0 0 1-.297.14.7.7 0 0 1-.281.063.4.4 0 0 1-.219-.062.27.27 0 0 1-.094-.219q0-.235.172-.562a4 4 0 0 1 .453-.657q.266-.327.563-.547.297-.234.546-.234.22 0 .391.188.188.172.188.406m4.937 11q0 .25-.141.64-.124.39-.328.766-.187.375-.437.64-.25.266-.485.266-.312 0-.312-.312a.9.9 0 0 1 .078-.36q.078-.171.172-.343.094-.156.172-.328a.7.7 0 0 0 .078-.313.9.9 0 0 1-.5.156.78.78 0 0 1-.609-.28.92.92 0 0 1-.25-.626q0-.5.328-.797.328-.312.828-.312.563 0 .984.297t.422.906m13.875-4.328v.812q0 .5-.031 1.094-.016.594-.094 1.203a5.3 5.3 0 0 1-.25 1.078 2.5 2.5 0 0 1-.406.797.79.79 0 0 1-.641.313.6.6 0 0 1-.531-.282 2.2 2.2 0 0 1-.25-.687 5 5 0 0 1-.094-.797v-.64q0-.704.047-1.376t.047-1.375v-.28q0-.204-.031-.407a1.2 1.2 0 0 0-.11-.36q-.062-.156-.203-.156-.28 0-.453.297a2.7 2.7 0 0 0-.281.672q-.11.39-.156.781-.047.375-.063.563a8 8 0 0 0-.062.61q-.017.405-.063.89a9 9 0 0 1-.125 1 6 6 0 0 1-.219.922q-.124.405-.328.672-.203.265-.5.265a.64.64 0 0 1-.578-.328 2.4 2.4 0 0 1-.297-.766 6.4 6.4 0 0 1-.125-.89 23 23 0 0 1-.015-.703v-.516q.015-.25.015-.516v-.359q0-.25-.015-.547 0-.312-.032-.64a5 5 0 0 0-.062-.594 1.4 1.4 0 0 0-.141-.453q-.093-.172-.219-.172-.203 0-.375.265-.171.25-.296.61-.125.343-.204.687-.062.344-.062.5v.094q0 .75.094 1.469.093.718.093 1.468 0 .438-.281.813-.281.36-.781.36a.76.76 0 0 1-.594-.266 2.4 2.4 0 0 1-.39-.719 6 6 0 0 1-.25-.953 13 13 0 0 1-.11-1.031 45 45 0 0 1-.047-.922v-.625q0-.235-.015-.688 0-.453.015-.984.031-.531.094-1.078a5.5 5.5 0 0 1 .203-1.016 2.3 2.3 0 0 1 .36-.734.72.72 0 0 1 .593-.297q.406 0 .657.219.265.218.265.656 0 .093-.015.187 0 .094-.016.172.172-.25.422-.5.25-.265.531-.468.297-.219.625-.344.329-.14.656-.14a.97.97 0 0 1 .563.171q.25.172.437.438.188.249.313.546.124.297.172.563.156-.282.375-.563.234-.297.5-.515t.578-.36q.329-.14.672-.14.328 0 .562.234t.406.61q.173.36.266.828.094.453.156.906.063.438.078.828.016.375.016.594m7.672 2.953q0 .28-.031.734a4.3 4.3 0 0 1-.125.89 2.1 2.1 0 0 1-.344.735q-.234.313-.656.313-.579 0-.891-.375t-.297-.938q-.5.438-1.14.688-.625.25-1.282.25-.453 0-.859-.219a2.7 2.7 0 0 1-.719-.562 2.9 2.9 0 0 1-.5-.766 2.2 2.2 0 0 1-.187-.86q0-.75.453-1.312a4.3 4.3 0 0 1 1.14-.953q.672-.406 1.422-.64a8.5 8.5 0 0 1 1.36-.313v-.14a.6.6 0 0 0 .015-.142q0-.484-.265-.78-.265-.298-.75-.298-.392 0-.672.141a3.3 3.3 0 0 0-.531.297q-.25.156-.5.297a1.25 1.25 0 0 1-.563.125.87.87 0 0 1-.594-.219.74.74 0 0 1-.234-.562q0-.516.297-.938.312-.422.765-.703a4 4 0 0 1 1-.453 3.4 3.4 0 0 1 1-.172q.423 0 .844.11.422.093.797.312.375.203.672.515.312.297.5.703.281.579.453 1.235.172.64.266 1.328.093.672.125 1.36.031.671.031 1.312m-2.5-.5-.047-1.063h-.062a.14.14 0 0 0-.063-.015q-.203 0-.516.11a2.3 2.3 0 0 0-.578.28 2.3 2.3 0 0 0-.484.391.7.7 0 0 0-.188.453q0 .219.157.297a.8.8 0 0 0 .359.078q.344 0 .734-.172.391-.187.688-.36m8.016-5.89q0 .452-.313.671a6 6 0 0 1-.672.422q-.375.188-.687.453-.297.266-.297.797a.9.9 0 0 0 .125.484q.14.203.328.375.203.157.437.328.235.172.422.391.204.219.328.531.141.313.141.766 0 .657-.344 1.297a4.2 4.2 0 0 1-.859 1.125 4.3 4.3 0 0 1-1.172.781q-.656.297-1.297.297-.265 0-.531-.047a1.5 1.5 0 0 1-.484-.14 1.04 1.04 0 0 1-.344-.297.9.9 0 0 1-.141-.516q0-.438.172-.672.172-.25.438-.39.265-.14.562-.22.312-.077.578-.187a1.4 1.4 0 0 0 .438-.312q.171-.187.172-.532 0-.327-.266-.671a14 14 0 0 0-.563-.75 8 8 0 0 1-.578-.86 2.04 2.04 0 0 1-.25-1q0-.672.266-1.234.28-.579.734-1 .47-.422 1.063-.656.594-.25 1.25-.25.25 0 .484.047.25.046.438.171a.8.8 0 0 1 .297.313.86.86 0 0 1 .125.484m11.031 6.39q0 .28-.031.734a4.3 4.3 0 0 1-.125.89 2.1 2.1 0 0 1-.344.735q-.234.313-.656.313-.579 0-.891-.375t-.297-.938q-.5.438-1.141.688-.624.25-1.281.25-.453 0-.859-.219a2.7 2.7 0 0 1-.719-.562 2.9 2.9 0 0 1-.5-.766 2.2 2.2 0 0 1-.187-.86q0-.75.453-1.312a4.2 4.2 0 0 1 1.14-.953q.672-.406 1.422-.64a8.5 8.5 0 0 1 1.36-.313v-.14a.6.6 0 0 0 .015-.142q0-.484-.265-.78-.266-.298-.75-.298-.392 0-.672.141a3.3 3.3 0 0 0-.532.297q-.25.156-.5.297a1.24 1.24 0 0 1-.562.125.87.87 0 0 1-.594-.219.74.74 0 0 1-.234-.562q0-.516.297-.938.312-.422.765-.703a4 4 0 0 1 1-.453 3.4 3.4 0 0 1 1-.172q.423 0 .844.11.422.093.797.312.375.203.672.515.312.297.5.703.28.579.453 1.235.172.64.266 1.328.093.672.125 1.36.03.671.031 1.312m-2.5-.5-.047-1.063h-.063a.13.13 0 0 0-.062-.015q-.202 0-.516.11-.296.093-.578.28a2.3 2.3 0 0 0-.484.391.7.7 0 0 0-.188.453q0 .219.157.297a.8.8 0 0 0 .359.078q.344 0 .734-.172.391-.187.688-.36M49.307 55.657q0 .296-.063.577a1.2 1.2 0 0 1-.187.47 1.04 1.04 0 0 1-.375.327q-.236.11-.579.11-.39 0-.578-.157a.86.86 0 0 1-.265-.375 2 2 0 0 1-.063-.5q0-.265-.031-.484a.86.86 0 0 0-.11-.39q-.093-.157-.343-.157-.235 0-.39.36-.142.36-.235.828-.094.468-.125.922-.031.438-.031.593.203-.03.39-.047a2.5 2.5 0 0 1 .86.016q.234.046.437.156a.8.8 0 0 1 .328.282q.125.171.125.437 0 .282-.25.5-.234.218-.578.375a5 5 0 0 1-.672.234q-.343.095-.547.125.047 1.08.047 2.172 0 1.032-.047 2.032-.03.483-.343.796-.297.313-.782.313a.9.9 0 0 1-.453-.11.85.85 0 0 1-.312-.265 1.5 1.5 0 0 1-.203-.39 2.2 2.2 0 0 1-.079-.454 57 57 0 0 1-.125-1.875 29 29 0 0 1-.03-1.906q-.11.015-.22.016h-.203a2.7 2.7 0 0 1-.968-.204 1.7 1.7 0 0 1-.407-.297.6.6 0 0 1-.172-.437q0-.344.235-.578.219-.234.531-.375.329-.156.672-.219.36-.063.625-.094v-.25q0-.765.14-1.64t.5-1.625.985-1.235q.625-.5 1.594-.5.609 0 1.047.266.436.25.718.672.282.406.407.937.125.516.125 1.047m5.968 6.562q0 .531-.343 1.047-.329.5-.844.906-.5.39-1.078.64-.579.235-1.063.235a2.76 2.76 0 0 1-1.484-.406 3.9 3.9 0 0 1-1.078-1.063 5.2 5.2 0 0 1-.672-1.406 5.6 5.6 0 0 1-.219-1.516q0-.78.219-1.672.218-.89.656-1.64.453-.75 1.125-1.25.687-.5 1.625-.5.531 0 1.016.187a2.45 2.45 0 0 1 1.422 1.282q.218.453.218 1.015 0 .735-.312 1.375a3.6 3.6 0 0 1-.828 1.11q-.516.468-1.188.765a4 4 0 0 1-1.375.313q.063.453.36.656.312.203.734.203.312 0 .61-.156.296-.156.577-.344.282-.203.547-.36a1.15 1.15 0 0 1 .563-.156.87.87 0 0 1 .562.203q.25.204.25.532m-2.53-3.828a.94.94 0 0 0-.11-.422.36.36 0 0 0-.344-.219.9.9 0 0 0-.578.188 1.4 1.4 0 0 0-.39.453q-.157.266-.25.578a3 3 0 0 0-.095.578q.219-.047.516-.125.312-.078.578-.203a1.6 1.6 0 0 0 .469-.344.66.66 0 0 0 .203-.484m8.952.609q0 .078-.015.172a1 1 0 0 1-.047.156 1.5 1.5 0 0 1-.438.61 1.1 1.1 0 0 1-.703.234q-.609 0-.828-.61a.5.5 0 0 1-.031-.171q0-.11-.016-.22v-.452a.9.9 0 0 0-.11-.344q-.077-.125-.265-.125-.266 0-.516.344a3.8 3.8 0 0 0-.421.797 7 7 0 0 0-.282.937q-.11.484-.109.781 0 .236.031.578.032.33.125.641.094.312.25.547.172.219.438.219a.8.8 0 0 0 .484-.157q.234-.171.453-.39.203-.187.438-.39a.87.87 0 0 1 .562-.204q.39 0 .61.281a.97.97 0 0 1 .234.641q0 .532-.281 1a3.2 3.2 0 0 1-.703.797 3.4 3.4 0 0 1-.938.516 2.7 2.7 0 0 1-.984.203q-.844 0-1.438-.422a3.3 3.3 0 0 1-.937-1.063 5 5 0 0 1-.516-1.422 7.3 7.3 0 0 1-.156-1.453q0-.797.219-1.718.218-.939.671-1.735a4.3 4.3 0 0 1 1.157-1.328q.719-.531 1.703-.531.609 0 1.047.265.453.266.734.703.297.423.438.954.156.531.156 1.047v.156a1 1 0 0 1-.016.156m7.969 1.953q0 .266-.016.797 0 .516-.047 1.094-.03.562-.093 1.078-.063.5-.157.734-.124.297-.328.516a.71.71 0 0 1-.547.219q-.531 0-.765-.422-.234-.421-.313-1.047a9.4 9.4 0 0 1-.062-1.36q.015-.734-.016-1.359a4 4 0 0 0-.172-1.047q-.14-.422-.515-.422-.516 0-.797.172a.95.95 0 0 0-.39.422q-.11.265-.141.61-.015.343-.047.718-.032.36-.047.969t-.14 1.203-.423 1.031q-.28.422-.843.422a.7.7 0 0 1-.563-.265 2.1 2.1 0 0 1-.328-.688 6 6 0 0 1-.187-.937 17 17 0 0 1-.063-1v-.907q.016-.406.016-.609 0-.312.015-1.031.031-.719.11-1.594.078-.89.203-1.828.124-.938.328-1.703.203-.781.484-1.266.297-.484.688-.469.25.016.422.22.188.203.296.53.125.313.204.688t.109.75q.047.36.047.672.016.313.016.484a21 21 0 0 1-.063 1.625 2.8 2.8 0 0 1 .953-.797 2.65 2.65 0 0 1 1.219-.312q.78 0 1.172.437.405.423.578 1.063.172.624.187 1.343.016.704.016 1.266m7.75 1.844q0 .28-.031.734a4.3 4.3 0 0 1-.125.89 2.1 2.1 0 0 1-.344.735q-.234.313-.656.313-.58 0-.89-.375-.314-.375-.298-.938-.5.438-1.14.688-.625.25-1.282.25-.453 0-.859-.219a2.7 2.7 0 0 1-.719-.562 2.9 2.9 0 0 1-.5-.766 2.2 2.2 0 0 1-.187-.86q0-.75.453-1.312a4.3 4.3 0 0 1 1.14-.953q.672-.406 1.422-.64.766-.235 1.36-.313v-.14a.6.6 0 0 0 .015-.142q0-.484-.265-.78-.266-.298-.75-.298-.39 0-.672.141a3.3 3.3 0 0 0-.531.297q-.25.156-.5.297a1.24 1.24 0 0 1-.563.125.87.87 0 0 1-.594-.219.74.74 0 0 1-.234-.562q0-.516.297-.938.312-.422.766-.703a4 4 0 0 1 1-.453 3.4 3.4 0 0 1 1-.172q.42 0 .843.11.422.093.797.312.375.203.672.515.312.298.5.703.281.579.453 1.235.172.64.266 1.328.093.672.125 1.36.03.671.031 1.312m-2.5-.5-.047-1.063h-.062a.14.14 0 0 0-.063-.015q-.203 0-.516.11-.296.093-.578.28a2.3 2.3 0 0 0-.484.391.7.7 0 0 0-.187.453q0 .219.156.297a.8.8 0 0 0 .36.078q.342 0 .733-.172.39-.187.688-.36m10.172-7.578q0 1.14-.094 2.265-.078 1.126-.078 2.266 0 .922.047 1.828.062.906.062 1.828 0 .25-.015.61-.015.343-.11.672a1.3 1.3 0 0 1-.28.562q-.189.234-.548.234-.468 0-.781-.343a1.7 1.7 0 0 1-.375-.797 2.7 2.7 0 0 1-.86.953q-.561.39-1.218.39a1.72 1.72 0 0 1-1.219-.484 4.3 4.3 0 0 1-.844-1.172 7 7 0 0 1-.5-1.437 6.5 6.5 0 0 1-.156-1.297 9.6 9.6 0 0 1 .203-1.906q.126-.516.313-1 .187-.5.468-.891.297-.39.688-.625.406-.234.922-.234.562 0 1.078.328t.781.812l.14-2.484q.016-.297.048-.688.03-.406.125-.765.11-.36.328-.61.22-.25.64-.25.454 0 .704.22.25.217.359.562.125.328.14.718.032.39.032.735m-2.547 6.937q0-.36-.016-.703a8 8 0 0 1 0-.703 9 9 0 0 0-.218-.437 2 2 0 0 0-.313-.454 1.6 1.6 0 0 0-.39-.359.85.85 0 0 0-.47-.14.6.6 0 0 0-.452.171 1 1 0 0 0-.25.422 2.5 2.5 0 0 0-.11.516q-.015.281-.015.484 0 .188.03.563.033.36.11.734.094.375.25.656t.422.282q.202 0 .406-.079.203-.093.375-.218.188-.141.344-.297.172-.172.297-.313zm10.422-1.125a8.5 8.5 0 0 1-.172 1.703 4.7 4.7 0 0 1-.578 1.516q-.407.657-1.094 1.063-.672.406-1.687.406-1 0-1.672-.39a3.2 3.2 0 0 1-1.078-1.063 4.8 4.8 0 0 1-.563-1.485 9 9 0 0 1-.156-1.687q0-.937.219-1.86.046-.249.171-.687a6.4 6.4 0 0 1 .344-.875q.218-.438.485-.75.28-.312.609-.313.312 0 .5.172t.297.438q.11.25.14.547.032.28.032.515 0 .36-.063.703-.047.345-.11.688l-.124.937a9.4 9.4 0 0 0-.031 1.47q.03.28.125.546.093.266.265.453.172.172.485.172.406 0 .64-.219.25-.219.36-.547.125-.328.156-.703.03-.375.031-.687 0-.688-.094-1.344a54 54 0 0 1-.172-1.36 1.5 1.5 0 0 1 .063-.687q.078-.234.219-.422.14-.187.343-.297a.85.85 0 0 1 .454-.125q.344 0 .609.25.266.235.438.625.186.375.296.86.126.469.188.937.078.453.094.86.03.406.03.64m6.375-1.375q-.219.015-.375-.031L98.65 59a3 3 0 0 0-.28-.11.6.6 0 0 0-.313-.046q-.313.015-.563.172a2.2 2.2 0 0 0-.437.39 2.7 2.7 0 0 0-.329.532 3 3 0 0 0-.218.562 4 4 0 0 0-.078.578q-.016.375-.016.813-.016.453-.016.859t-.03.64q-.016.25-.079.594-.063.33-.203.625a1.4 1.4 0 0 1-.344.5.8.8 0 0 1-.562.204.75.75 0 0 1-.47-.157 1.4 1.4 0 0 1-.327-.406 4 4 0 0 1-.219-.61 8 8 0 0 1-.125-.703q-.047-.375-.078-.75l-.031-.703v-.625q.015-.28.015-.453a19 19 0 0 0-.062-1.093q-.032-.563-.032-1.11 0-.343.032-.766.03-.42.172-.78.14-.376.406-.626.281-.25.766-.25.266 0 .453.172.188.172.296.422.126.25.188.531.063.282.078.516.375-.609.844-.984.469-.391 1.219-.422.374-.016.734.078.375.078.672.281.312.188.5.5.203.312.219.734.03.5-.297.766-.329.265-.797.281m7.969 3.64q0 .282-.032.735-.015.454-.125.89a2.1 2.1 0 0 1-.343.735q-.235.313-.657.313-.578 0-.89-.375-.314-.375-.297-.938-.5.438-1.141.688a3.4 3.4 0 0 1-1.281.25q-.454 0-.859-.219a2.7 2.7 0 0 1-.719-.562 2.9 2.9 0 0 1-.5-.766 2.2 2.2 0 0 1-.188-.86q0-.75.453-1.312a4.3 4.3 0 0 1 1.141-.953q.672-.406 1.422-.64.766-.235 1.359-.313v-.14a.6.6 0 0 0 .016-.142q0-.484-.266-.78-.266-.298-.75-.298-.39 0-.672.141a3.3 3.3 0 0 0-.531.297q-.25.156-.5.297a1.24 1.24 0 0 1-.562.125.87.87 0 0 1-.594-.219.74.74 0 0 1-.234-.562q0-.516.296-.938.313-.422.766-.703a4 4 0 0 1 1-.453 3.4 3.4 0 0 1 1-.172q.422 0 .844.11.422.093.797.312.375.203.672.515.312.298.5.703.28.579.453 1.235.171.64.265 1.328.095.672.125 1.36.032.671.032 1.312m-2.5-.5-.047-1.062h-.063a.14.14 0 0 0-.062-.015 1.6 1.6 0 0 0-.516.11 2.3 2.3 0 0 0-.578.28 2.3 2.3 0 0 0-.484.391.7.7 0 0 0-.188.453q0 .219.156.297a.8.8 0 0 0 .36.078q.344 0 .734-.172.391-.187.688-.36m10.671-8.952q0 .219-.171.531-.173.297-.266.516-.5 1.171-.859 2.468a9.5 9.5 0 0 0-.36 2.578q0 1.297.36 2.641.375 1.344.921 2.516.11.219.235.422.14.218.14.453 0 .219-.156.344a.52.52 0 0 1-.359.124 1 1 0 0 1-.531-.156 2.2 2.2 0 0 1-.438-.39 5 5 0 0 1-.375-.5 10.4 10.4 0 0 1-1.141-2.89 11.3 11.3 0 0 1-.296-2.548q0-.626.109-1.281.11-.657.297-1.297.187-.656.422-1.266a17 17 0 0 1 .765-1.625q.14-.265.328-.5.188-.25.407-.422a.75.75 0 0 1 .468-.171.5.5 0 0 1 .344.125.4.4 0 0 1 .156.328m7.422 9.453q0 .28-.031.734-.015.454-.125.89a2.1 2.1 0 0 1-.344.735q-.234.313-.656.313-.578 0-.891-.375-.312-.375-.296-.938-.5.438-1.141.688-.626.25-1.281.25a1.8 1.8 0 0 1-.86-.219 2.7 2.7 0 0 1-.718-.562 2.8 2.8 0 0 1-.5-.766 2.2 2.2 0 0 1-.188-.86q0-.75.453-1.312a4.3 4.3 0 0 1 1.141-.953q.672-.406 1.422-.64.765-.235 1.359-.313v-.14a.6.6 0 0 0 .016-.142q0-.484-.266-.78-.266-.298-.75-.298-.39 0-.672.141a3.3 3.3 0 0 0-.531.297q-.25.156-.5.297a1.24 1.24 0 0 1-.563.125.87.87 0 0 1-.593-.219.73.73 0 0 1-.235-.562q0-.516.297-.938.313-.422.766-.703a4 4 0 0 1 1-.453 3.4 3.4 0 0 1 1-.172q.421 0 .844.11.421.093.796.312.375.203.672.515.313.298.5.703.282.579.453 1.235.173.64.266 1.328.094.672.125 1.36.031.671.031 1.312m-2.5-.5-.047-1.063h-.062a.14.14 0 0 0-.063-.015q-.203 0-.515.11a2.3 2.3 0 0 0-.578.28 2.3 2.3 0 0 0-.485.391.7.7 0 0 0-.187.453q0 .219.156.297a.8.8 0 0 0 .359.078q.344 0 .735-.172.39-.187.687-.36m8.016-5.89q0 .452-.313.671a6 6 0 0 1-.671.422q-.376.188-.688.453-.297.266-.297.797a.9.9 0 0 0 .125.484q.14.203.328.375.204.157.438.328t.422.391q.203.219.328.531.14.313.14.766 0 .657-.343 1.297a4.3 4.3 0 0 1-.86 1.125 4.3 4.3 0 0 1-1.172.781 3.1 3.1 0 0 1-1.296.297q-.266 0-.532-.047a1.5 1.5 0 0 1-.484-.14 1.05 1.05 0 0 1-.344-.297.9.9 0 0 1-.14-.516q0-.438.171-.672.172-.25.438-.39t.562-.22q.313-.077.579-.187.266-.124.437-.312.172-.187.172-.532 0-.327-.266-.671a14 14 0 0 0-.562-.75 8 8 0 0 1-.578-.86 2.03 2.03 0 0 1-.25-1q0-.672.265-1.234.282-.579.735-1a3.5 3.5 0 0 1 1.062-.656q.594-.25 1.25-.25.25 0 .485.047.25.046.437.171a.8.8 0 0 1 .297.313.86.86 0 0 1 .125.484M138.603 59q0 .078-.015.172a1 1 0 0 1-.047.156q-.141.36-.438.61a1.1 1.1 0 0 1-.703.234q-.609 0-.828-.61a.5.5 0 0 1-.031-.171q0-.11-.016-.22v-.452a.9.9 0 0 0-.109-.344q-.078-.125-.266-.125-.266 0-.515.344a3.8 3.8 0 0 0-.422.797 7 7 0 0 0-.281.937q-.11.484-.11.781 0 .236.031.578.032.33.125.641.094.312.25.547a.54.54 0 0 0 .438.219.8.8 0 0 0 .484-.157q.236-.171.453-.39.204-.187.438-.39a.87.87 0 0 1 .562-.204q.391 0 .61.281a.97.97 0 0 1 .234.641q0 .532-.281 1a3.2 3.2 0 0 1-.703.797q-.422.328-.938.516a2.7 2.7 0 0 1-.984.203q-.844 0-1.438-.422a3.3 3.3 0 0 1-.937-1.063 5 5 0 0 1-.516-1.422 7.3 7.3 0 0 1-.156-1.453q0-.797.219-1.718.219-.939.672-1.735a4.3 4.3 0 0 1 1.156-1.328q.719-.531 1.703-.531.609 0 1.047.265.453.266.734.703.297.423.438.954.156.531.156 1.047v.156a1 1 0 0 1-.016.156m7.422 3.219q0 .531-.343 1.047-.328.5-.844.906-.5.39-1.078.64-.579.235-1.063.235a2.76 2.76 0 0 1-1.484-.406 3.9 3.9 0 0 1-1.078-1.063 5.1 5.1 0 0 1-.672-1.406 5.6 5.6 0 0 1-.219-1.516q0-.78.219-1.672.218-.89.656-1.64.453-.75 1.125-1.25.687-.5 1.625-.5.531 0 1.016.187.485.173.843.5.36.329.579.782t.218 1.015q0 .735-.312 1.375a3.7 3.7 0 0 1-.828 1.11 4.4 4.4 0 0 1-1.188.765 4 4 0 0 1-1.375.313q.063.453.36.656.312.203.734.203.312 0 .609-.156a6 6 0 0 0 .578-.344q.282-.203.547-.36.282-.156.563-.156.312 0 .562.203a.65.65 0 0 1 .25.532m-2.531-3.828a.94.94 0 0 0-.109-.422.36.36 0 0 0-.344-.219.9.9 0 0 0-.578.188 1.4 1.4 0 0 0-.391.453q-.156.266-.25.578a3 3 0 0 0-.094.578q.219-.047.516-.125.312-.078.578-.203.282-.141.469-.344a.66.66 0 0 0 .203-.484m.875-5.547q0 .171-.094.343-.093.157-.234.297a2.3 2.3 0 0 1-.281.266 12 12 0 0 0-.532.39 3 3 0 0 1-.281.188 3 3 0 0 1-.297.14.7.7 0 0 1-.281.063.4.4 0 0 1-.219-.062.27.27 0 0 1-.093-.219q0-.234.171-.562.188-.344.454-.657.265-.327.562-.547.297-.234.547-.234a.52.52 0 0 1 .391.188q.187.171.187.406m5.203 2.687q0 .844-.078 1.703-.063.844-.062 1.703 0 1.11.062 2.22.078 1.109.078 2.234 0 .28-.031.64-.031.345-.156.64a1.2 1.2 0 0 1-.344.5q-.235.204-.625.204-.375 0-.656-.375a3.3 3.3 0 0 1-.453-.922 12 12 0 0 1-.297-1.281q-.11-.703-.172-1.36a107 107 0 0 1-.078-1.218 31 31 0 0 1-.016-.828q0-.297.016-.86.031-.562.109-1.218t.203-1.329q.141-.687.36-1.234.218-.562.515-.906.313-.36.735-.36.344 0 .515.235.188.219.266.547.078.312.094.672.015.344.015.593m8.031 5q0 .859-.171 1.703a4.7 4.7 0 0 1-.579 1.516q-.406.657-1.093 1.063-.672.406-1.688.406-1 0-1.672-.39a3.2 3.2 0 0 1-1.078-1.063 4.8 4.8 0 0 1-.562-1.485 9 9 0 0 1-.157-1.687q0-.937.219-1.86.047-.249.172-.687.14-.453.344-.875.219-.438.484-.75.282-.312.61-.313.312 0 .5.172t.296.438q.11.25.141.547.031.28.031.515 0 .36-.062.703a15 15 0 0 1-.11.688l-.125.937a9.5 9.5 0 0 0-.031 1.47q.032.28.125.546.094.266.266.453.172.172.484.172.407 0 .641-.219.25-.219.359-.547a2.5 2.5 0 0 0 .156-.703q.032-.375.032-.687 0-.688-.094-1.344a51 51 0 0 1-.172-1.36 1.5 1.5 0 0 1 .063-.687 1.5 1.5 0 0 1 .218-.422q.141-.187.344-.297a.85.85 0 0 1 .453-.125q.344 0 .61.25.266.235.437.625.187.375.297.86.125.469.187.937.08.453.094.86.031.406.031.64m3.875-5q0 .844-.078 1.703a23 23 0 0 0-.062 1.703q0 1.11.062 2.22.078 1.109.078 2.234 0 .28-.031.64-.031.345-.156.64a1.2 1.2 0 0 1-.344.5q-.234.204-.625.204-.375 0-.656-.375a3.3 3.3 0 0 1-.453-.922 12 12 0 0 1-.297-1.281q-.11-.703-.172-1.36a107 107 0 0 1-.078-1.218q-.015-.562-.016-.828 0-.297.016-.86.031-.562.109-1.218t.203-1.329q.141-.687.36-1.234.22-.562.515-.906.314-.36.735-.36.344 0 .515.235.188.219.266.547.078.312.094.672.015.344.015.593m7.829 7.266q0 .28-.032.734-.015.454-.125.89a2.1 2.1 0 0 1-.343.735q-.235.313-.657.313-.578 0-.89-.375t-.297-.938q-.5.438-1.141.688a3.4 3.4 0 0 1-1.281.25q-.454 0-.859-.219a2.7 2.7 0 0 1-.719-.562 2.9 2.9 0 0 1-.5-.766 2.2 2.2 0 0 1-.188-.86q0-.75.453-1.312a4.3 4.3 0 0 1 1.141-.953q.672-.406 1.422-.64.766-.235 1.359-.313v-.14a.6.6 0 0 0 .016-.142q0-.484-.266-.78-.266-.298-.75-.298-.39 0-.672.141a3.3 3.3 0 0 0-.531.297q-.25.156-.5.297a1.24 1.24 0 0 1-.562.125.87.87 0 0 1-.594-.219.74.74 0 0 1-.234-.562q0-.516.296-.938.313-.422.766-.703a4 4 0 0 1 1-.453 3.4 3.4 0 0 1 1-.172q.422 0 .844.11.422.093.797.312.375.203.672.515.312.298.5.703.28.579.453 1.235.172.64.265 1.328.095.672.125 1.36.032.671.032 1.312m-2.5-.5-.047-1.063h-.063a.14.14 0 0 0-.062-.015 1.6 1.6 0 0 0-.516.11 2.3 2.3 0 0 0-.578.28 2.3 2.3 0 0 0-.484.391.7.7 0 0 0-.188.453q0 .219.156.297a.8.8 0 0 0 .36.078q.344 0 .734-.172.391-.187.688-.36m8.015-5.89q0 .452-.312.671a6 6 0 0 1-.672.422q-.375.188-.688.453-.297.266-.297.797a.9.9 0 0 0 .125.484q.141.203.329.375.203.157.437.328t.422.391q.203.219.328.531.141.313.141.766 0 .657-.344 1.297a4.28 4.28 0 0 1-2.031 1.906q-.657.297-1.297.297-.266 0-.531-.047a1.5 1.5 0 0 1-.485-.14 1.05 1.05 0 0 1-.344-.297.9.9 0 0 1-.14-.516q0-.438.172-.672.171-.25.437-.39t.563-.22q.312-.077.578-.187.266-.124.437-.312.172-.187.172-.532 0-.327-.265-.671-.25-.36-.563-.75a8 8 0 0 1-.578-.86 2.03 2.03 0 0 1-.25-1q0-.672.266-1.234.28-.579.734-1 .469-.422 1.062-.656.594-.25 1.25-.25.25 0 .485.047.25.046.437.171a.8.8 0 0 1 .297.313.85.85 0 0 1 .125.484m3.813 2.89v.094q0 .61-.11 1.265-.11.657-.312 1.297-.187.641-.438 1.266a12 12 0 0 1-.781 1.61 3 3 0 0 1-.328.5q-.187.233-.406.405a.75.75 0 0 1-.469.172.6.6 0 0 1-.344-.125.39.39 0 0 1-.156-.312q0-.235.172-.531t.265-.532a21 21 0 0 0 .875-2.469q.391-1.312.391-2.624 0-1.297-.344-2.61a15 15 0 0 0-.89-2.5 2.4 2.4 0 0 0-.235-.422.9.9 0 0 1-.125-.437q0-.218.141-.344a.52.52 0 0 1 .359-.14q.282 0 .532.156.249.156.453.39.203.235.359.5.156.266.266.485.546 1.125.828 2.39.297 1.266.297 2.516m9.312 6.14q-.265 0-.422-.25a1.7 1.7 0 0 1-.234-.546 4 4 0 0 1-.109-.625 11 11 0 0 1-.016-.5q0-.469.047-.938l.125-.937q.078-.469.125-.938a7 7 0 0 0 .062-.937q0-.187-.015-.407a1.7 1.7 0 0 0-.078-.406.67.67 0 0 0-.172-.328.45.45 0 0 0-.328-.125q-.14 0-.313.234a3.4 3.4 0 0 0-.328.516q-.14.282-.25.578a1.5 1.5 0 0 0-.094.422v.703q.016.345.016.703v.907q-.016.28-.047.578t-.094.578q-.047.281-.14.547a1.8 1.8 0 0 1-.25.453q-.141.188-.344.312a.9.9 0 0 1-.485.125.7.7 0 0 1-.515-.203 1.5 1.5 0 0 1-.328-.516 3.6 3.6 0 0 1-.188-.718q-.046-.407-.078-.782-.016-.39-.016-.703.016-.327.016-.515v-.735q0-.593-.031-1.172-.016-.577-.016-1.156v-.797q.016-.484.125-.937.11-.469.36-.797t.734-.328q.219 0 .391.14.171.141.296.344.141.204.219.438.095.234.141.406.156-.218.359-.422.22-.203.485-.36A2.54 2.54 0 0 1 187.9 56q.798 0 1.235.39.453.375.656.954.219.563.266 1.218.046.657.046 1.188 0 .266-.046.797-.048.516-.157 1.156-.094.626-.265 1.297-.172.657-.407 1.203a3 3 0 0 1-.562.89q-.312.345-.719.344m9.672-2.64q0 .28-.031.734a4.3 4.3 0 0 1-.125.89 2.1 2.1 0 0 1-.344.735q-.234.313-.656.313-.578 0-.891-.375-.312-.375-.297-.938-.5.438-1.14.688-.625.25-1.282.25-.453 0-.859-.219a2.7 2.7 0 0 1-.719-.562 2.9 2.9 0 0 1-.5-.766 2.2 2.2 0 0 1-.187-.86q0-.75.453-1.312a4.2 4.2 0 0 1 1.141-.953 6.5 6.5 0 0 1 1.421-.64 8.5 8.5 0 0 1 1.36-.313v-.14a.6.6 0 0 0 .015-.142q0-.484-.265-.78-.266-.298-.75-.298-.391 0-.672.141a3.3 3.3 0 0 0-.531.297q-.25.156-.5.297a1.24 1.24 0 0 1-.563.125.87.87 0 0 1-.594-.219.74.74 0 0 1-.234-.562q0-.516.297-.938.313-.422.766-.703a4 4 0 0 1 1-.453 3.4 3.4 0 0 1 1-.172q.422 0 .843.11.423.093.797.312.375.203.672.515.312.298.5.703.282.579.453 1.235.172.64.266 1.328.093.672.125 1.36.031.671.031 1.312m-2.5-.5-.047-1.063h-.062a.14.14 0 0 0-.063-.015q-.203 0-.515.11a2.3 2.3 0 0 0-.579.28 2.3 2.3 0 0 0-.484.391.7.7 0 0 0-.187.453q0 .219.156.297a.8.8 0 0 0 .359.078q.343 0 .735-.172.39-.187.687-.36m1.891-8.938a1 1 0 0 1-.157.5 2.3 2.3 0 0 1-.39.47q-.234.203-.5.343a1.2 1.2 0 0 1-.5.125q-.234 0-.469-.078-.219-.094-.453-.203a4 4 0 0 0-.438-.188 1.1 1.1 0 0 0-.437-.094.64.64 0 0 0-.344.11 5 5 0 0 0-.359.218q-.187.11-.391.204a.8.8 0 0 1-.375.093.49.49 0 0 1-.406-.203.75.75 0 0 1-.156-.437.85.85 0 0 1 .187-.516q.187-.25.469-.437a2.4 2.4 0 0 1 .578-.313q.312-.125.547-.125.265 0 .453.11a2.3 2.3 0 0 1 .375.25q.172.14.344.25.188.108.437.109a.7.7 0 0 0 .375-.11q.188-.124.36-.265.187-.156.343-.266a.6.6 0 0 1 .36-.125q.219 0 .375.188a.58.58 0 0 1 .172.39m4.515 12.094q-.796 0-1.39-.422a3.7 3.7 0 0 1-1-1.078 5.2 5.2 0 0 1-.61-1.453 6.6 6.6 0 0 1-.203-1.594q0-.828.203-1.703.204-.89.625-1.61.423-.734 1.078-1.187.657-.468 1.563-.468.875 0 1.484.484.625.468 1 1.187.375.705.532 1.547a6.5 6.5 0 0 1 .109 1.594 8.6 8.6 0 0 1-.266 1.672 5.3 5.3 0 0 1-.609 1.516 3.5 3.5 0 0 1-1.031 1.093q-.625.422-1.485.422m.157-7.062q-.235 0-.422.25-.173.25-.297.609-.11.36-.172.766-.063.39-.063.687 0 .375.063.813.078.437.203.812.124.36.297.61.188.234.422.234.25 0 .422-.234.188-.236.297-.594.11-.36.156-.782a8 8 0 0 0 .047-.812q0-.345-.063-.75a4.3 4.3 0 0 0-.187-.781 1.8 1.8 0 0 0-.297-.594q-.172-.234-.406-.234m14.437 4.406q0 .28-.031.734a4.3 4.3 0 0 1-.125.89 2.1 2.1 0 0 1-.344.735q-.234.313-.656.313-.578 0-.891-.375-.312-.375-.297-.938-.5.438-1.14.688-.625.25-1.282.25-.453 0-.859-.219a2.7 2.7 0 0 1-.719-.562 2.9 2.9 0 0 1-.5-.766 2.2 2.2 0 0 1-.187-.86q0-.75.453-1.312a4.2 4.2 0 0 1 1.141-.953 6.5 6.5 0 0 1 1.421-.64 8.5 8.5 0 0 1 1.36-.313v-.14a.6.6 0 0 0 .015-.142q0-.484-.265-.78-.266-.298-.75-.298-.391 0-.672.141a3.3 3.3 0 0 0-.531.297q-.25.156-.5.297a1.24 1.24 0 0 1-.563.125.87.87 0 0 1-.594-.219.74.74 0 0 1-.234-.562q0-.516.297-.938.313-.422.766-.703a4 4 0 0 1 1-.453 3.4 3.4 0 0 1 1-.172q.422 0 .843.11.423.093.797.312.375.203.672.515.312.298.5.703.282.579.453 1.235.172.64.266 1.328.093.672.125 1.36.031.671.031 1.312m-2.5-.5-.047-1.063h-.062a.14.14 0 0 0-.063-.015q-.203 0-.515.11a2.3 2.3 0 0 0-.579.28 2.3 2.3 0 0 0-.484.391.7.7 0 0 0-.187.453q0 .219.156.297a.8.8 0 0 0 .359.078q.343 0 .735-.172.39-.187.687-.36m10.828-2.453q0 .453-.078 1.031-.062.562-.219 1.156a6.6 6.6 0 0 1-.39 1.157 4.3 4.3 0 0 1-.594 1.015q-.344.438-.813.703a2.06 2.06 0 0 1-1.062.266q-.64 0-1.172-.297a2.9 2.9 0 0 1-.891-.812 1.3 1.3 0 0 1-.343.75 1 1 0 0 1-.75.312q-.266 0-.453-.266a2.4 2.4 0 0 1-.282-.671 7 7 0 0 1-.172-.922 16 16 0 0 1-.062-.97q-.015-.468-.016-.843V59.86l.032-1.078q0-.265-.016-.797 0-.53.016-1.172.015-.656.062-1.328.062-.687.203-1.25.14-.562.391-.922.25-.36.64-.374.313 0 .532.218.218.22.359.578.156.36.234.813.095.438.125.89.048.438.047.844.016.39.016.64 0 .048-.016.22v.843q.141-.297.407-.578a3.5 3.5 0 0 1 .593-.5q.328-.218.688-.36.36-.14.687-.14.656 0 1.094.344.453.328.719.844.266.515.375 1.125.11.593.109 1.125m-2.297.468q0-.187-.031-.406a1.1 1.1 0 0 0-.109-.406.8.8 0 0 0-.235-.312.54.54 0 0 0-.375-.126q-.25 0-.5.11a2.3 2.3 0 0 0-.453.281q-.219.172-.406.375-.187.187-.328.375l-.156 1.39a2 2 0 0 0 .609.579q.36.203.812.203.345 0 .563-.219.234-.219.359-.531.141-.329.188-.687.063-.36.062-.626m8.672-1.156q-.219.015-.375-.031l-.312-.125a3 3 0 0 0-.282-.11.6.6 0 0 0-.312-.046q-.312.015-.563.172a2.2 2.2 0 0 0-.437.39 2.7 2.7 0 0 0-.328.532 3 3 0 0 0-.219.562 4 4 0 0 0-.078.578q-.015.375-.016.813-.015.453-.015.859t-.032.64q-.015.25-.078.594a2.5 2.5 0 0 1-.203.625 1.4 1.4 0 0 1-.344.5.8.8 0 0 1-.562.204.75.75 0 0 1-.469-.157 1.4 1.4 0 0 1-.328-.406 4 4 0 0 1-.219-.61 8 8 0 0 1-.125-.703q-.047-.375-.078-.75-.015-.375-.031-.703v-.625q.015-.28.016-.453-.017-.546-.063-1.093a20 20 0 0 1-.031-1.11q0-.343.031-.766.031-.42.172-.78a1.6 1.6 0 0 1 .406-.626q.282-.25.766-.25.266 0 .453.172.188.172.297.422.125.25.187.531.063.282.078.516.375-.609.844-.984.47-.391 1.219-.422.375-.016.734.078.375.078.672.281.313.188.5.5.204.312.219.734.031.5-.297.766-.328.265-.797.281m7.875 3.063q0 .531-.344 1.047-.328.5-.843.906-.5.39-1.078.64-.579.235-1.063.235a2.76 2.76 0 0 1-1.484-.406 3.9 3.9 0 0 1-1.078-1.063 5.1 5.1 0 0 1-.672-1.406 5.6 5.6 0 0 1-.219-1.516q0-.78.219-1.672.219-.89.656-1.64.453-.75 1.125-1.25.687-.5 1.625-.5.531 0 1.016.187.484.173.843.5.36.329.578.782.219.453.219 1.015 0 .735-.312 1.375a3.7 3.7 0 0 1-.828 1.11 4.4 4.4 0 0 1-1.188.765 4 4 0 0 1-1.375.313q.063.453.359.656.314.203.735.203.312 0 .609-.156a6 6 0 0 0 .578-.344q.282-.203.547-.36.281-.156.563-.156.313 0 .562.203a.65.65 0 0 1 .25.532m-2.531-3.828a.94.94 0 0 0-.109-.422.36.36 0 0 0-.344-.219.9.9 0 0 0-.578.188 1.4 1.4 0 0 0-.391.453q-.156.266-.25.578a3 3 0 0 0-.094.578q.219-.047.516-.125.312-.078.578-.203.282-.141.469-.344a.66.66 0 0 0 .203-.484m6.078.062q0 .25-.031.688-.031.42-.094.922a10 10 0 0 1-.187 1q-.11.5-.266.921-.156.407-.375.672-.22.25-.5.25-.344 0-.594-.328a3.5 3.5 0 0 1-.406-.86 8.5 8.5 0 0 1-.25-1.171 19 19 0 0 1-.141-1.25 26 26 0 0 1-.062-1.14V56.64q0-.439.031-.922.047-.484.125-.953.094-.485.266-.875.171-.391.453-.625.281-.25.703-.25.375 0 .609.328.25.312.391.828.156.5.219 1.125.078.625.093 1.234.032.594.016 1.11zm-.297 5.938a.87.87 0 0 1-.125.468q-.124.188-.328.313a1.4 1.4 0 0 1-.437.203 1.8 1.8 0 0 1-.469.063q-.344 0-.656-.188-.313-.172-.313-.562 0-.235.125-.422.14-.203.344-.344t.437-.219q.25-.078.469-.078.36 0 .656.188.297.171.297.578M56.416 83.547q0 .297-.156.578-.157.265-.735.625t-1.28.688q-.705.312-1.36.546-.656.22-.969.22-.219 0-.516-.11a3.6 3.6 0 0 1-1.14-.61 1.6 1.6 0 0 1-.344-.39q-.062-.11-.125-.438a22 22 0 0 1-.094-.765l-.062-.922q-.032-.5-.063-.938a74 74 0 0 0-.031-.797v-.5q0-.578.031-1.328.047-.75.156-1.5.11-.766.313-1.453.22-.704.578-1.187.11-.141.438-.297a6 6 0 0 1 .765-.297 16 16 0 0 1 1.953-.469q.485-.094.875-.14.39-.063.594-.063.234 0 .438.11a.9.9 0 0 1 .359.265q.156.172.234.39.094.204.094.438 0 .203-.062.344a1.5 1.5 0 0 1-.157.312q-.156.203-.656.485a18 18 0 0 1-2.219 1.047q-.531.218-.75.312-.062.36-.14.734-.063.36-.094.735a9 9 0 0 1 1.094-.469 3.4 3.4 0 0 1 1.156-.219q1.11 0 1.11 1.094a1 1 0 0 1-.11.469 1.1 1.1 0 0 1-.266.36q-.156.155-.375.28l-.406.22a9 9 0 0 1-1.047.468l-1.094.375q-.03.125-.062.281a1.3 1.3 0 0 0-.031.281q0 .219.031.438l.063.438.593-.204q.422-.14.875-.28.453-.142.875-.235.422-.11.625-.11.234 0 .438.11.203.093.343.265.14.157.22.375.093.219.093.438m11.11.25q0 .28-.032.734a4.3 4.3 0 0 1-.125.89 2.1 2.1 0 0 1-.344.735q-.234.313-.656.313-.578 0-.89-.375-.314-.375-.297-.938-.5.438-1.141.688-.626.25-1.281.25-.453 0-.86-.219a2.7 2.7 0 0 1-.718-.562 2.9 2.9 0 0 1-.5-.766 2.2 2.2 0 0 1-.188-.86q0-.75.453-1.312a4.3 4.3 0 0 1 1.14-.953q.673-.406 1.423-.64.765-.235 1.36-.313v-.14a.6.6 0 0 0 .015-.141q0-.485-.266-.782t-.75-.297q-.39 0-.672.141a3.3 3.3 0 0 0-.531.297q-.25.156-.5.297a1.24 1.24 0 0 1-.562.125.87.87 0 0 1-.594-.219.74.74 0 0 1-.235-.562q0-.516.297-.938.313-.422.766-.703a4 4 0 0 1 1-.453 3.4 3.4 0 0 1 1-.172q.421 0 .844.11.42.093.796.312.375.203.672.515.313.297.5.704.282.577.453 1.234.173.64.266 1.328.094.672.125 1.36.03.671.031 1.312m-2.5-.5-.047-1.063h-.063a.14.14 0 0 0-.062-.015q-.204 0-.516.11-.296.093-.578.28a2.3 2.3 0 0 0-.485.391.7.7 0 0 0-.187.453q0 .219.156.297a.8.8 0 0 0 .36.078q.343 0 .734-.172.39-.188.687-.36m6.14-2.89v.468q0 .234-.016.453-.015.266-.015.719 0 .438-.032.953-.03.516-.109 1.047a4.4 4.4 0 0 1-.219.969 2 2 0 0 1-.422.718.9.9 0 0 1-.64.282.58.58 0 0 1-.5-.235 2.2 2.2 0 0 1-.344-.64 5.4 5.4 0 0 1-.187-.891 17 17 0 0 1-.094-.953q-.031-.47-.031-.86v-1.281q0-.469.03-1 .033-.53.11-1.078.094-.547.25-1a2.2 2.2 0 0 1 .438-.734.88.88 0 0 1 .672-.281q.42 0 .64.421.219.423.328.985t.125 1.125q.016.546.016.812m.578-6.235q0 .172-.094.344-.093.156-.234.296a2.3 2.3 0 0 1-.281.266q-.156.109-.282.203a8 8 0 0 0-.25.188 3 3 0 0 1-.28.187 3 3 0 0 1-.298.14.7.7 0 0 1-.28.063.4.4 0 0 1-.22-.062.27.27 0 0 1-.093-.219q0-.234.171-.562.188-.344.454-.657.265-.327.562-.546.297-.235.547-.235.219 0 .39.188.189.172.188.406m11.563 4.562L83.057 81q-.126 1.125-.172 2.25a33 33 0 0 0-.063 2.453q.016 1.157.016 2.453 0 .313-.016.766 0 .453-.11.875a1.8 1.8 0 0 1-.359.719q-.234.296-.718.296a.62.62 0 0 1-.407-.14 1.4 1.4 0 0 1-.28-.375 3 3 0 0 1-.188-.5 10 10 0 0 1-.11-.578A12 12 0 0 1 80.557 88v-2.969q-.36.469-.938.719-.562.234-1.125.234-.703 0-1.219-.328a3 3 0 0 1-.828-.86 4 4 0 0 1-.484-1.155 5 5 0 0 1-.156-1.22v-.093q0-.812.25-1.75a6.8 6.8 0 0 1 .734-1.766 4.6 4.6 0 0 1 1.234-1.343 2.87 2.87 0 0 1 1.735-.547q.531 0 .968.219.454.218.641.718a1.33 1.33 0 0 1 .375-.578.98.98 0 0 1 .672-.234q.516 0 .719.344.219.327.218.734 0 .172-.015.313zm-3.594.375q-.36 0-.672.297-.312.282-.547.703-.234.407-.375.875a3.3 3.3 0 0 0-.125.829q0 .218.031.468.047.25.125.485.094.218.235.375.156.14.39.14.203 0 .47-.094.28-.109.546-.265.265-.172.469-.375t.281-.39q.047-.11.078-.329a6 6 0 0 0 .047-.453 9 9 0 0 0 .063-.844q0-.187-.094-.422a2 2 0 0 0-.219-.468 1.3 1.3 0 0 0-.328-.375.6.6 0 0 0-.375-.157M90.9 81.531a8.5 8.5 0 0 1-.172 1.703 4.7 4.7 0 0 1-.578 1.516q-.406.657-1.093 1.063-.672.406-1.688.406-1 0-1.672-.39a3.2 3.2 0 0 1-1.078-1.063 4.8 4.8 0 0 1-.562-1.485 9 9 0 0 1-.157-1.687q0-.937.22-1.86.046-.249.171-.687a6.4 6.4 0 0 1 .344-.875q.219-.438.484-.75.281-.313.61-.313.311 0 .5.172.186.172.296.438.11.25.141.547.03.28.031.515 0 .36-.062.703-.047.345-.11.688l-.125.937a9.4 9.4 0 0 0-.03 1.47q.03.28.124.546t.266.453q.171.172.484.172.406 0 .64-.219.25-.219.36-.547.125-.328.156-.703.032-.375.032-.687 0-.688-.094-1.344a54 54 0 0 1-.172-1.36 1.5 1.5 0 0 1 .063-.687q.078-.234.218-.422t.344-.297a.85.85 0 0 1 .453-.125q.344 0 .61.25.265.235.437.625.188.375.297.86.125.469.187.937.079.453.094.86.03.406.031.64m7.5 1.688q0 .531-.343 1.047-.329.5-.844.906-.5.39-1.078.64-.579.235-1.063.235a2.76 2.76 0 0 1-1.484-.406 3.9 3.9 0 0 1-1.078-1.063 5.2 5.2 0 0 1-.672-1.406 5.6 5.6 0 0 1-.219-1.516q0-.78.219-1.672.219-.89.656-1.64.453-.75 1.125-1.25.687-.5 1.625-.5.531 0 1.016.187a2.45 2.45 0 0 1 1.422 1.281q.218.454.218 1.016 0 .735-.312 1.375a3.6 3.6 0 0 1-.828 1.11q-.516.468-1.188.765a4 4 0 0 1-1.375.313q.063.453.36.656.312.203.734.203.312 0 .61-.156.296-.156.578-.344.281-.203.546-.36a1.15 1.15 0 0 1 .563-.156.87.87 0 0 1 .562.204q.25.203.25.53m-2.53-3.828a.94.94 0 0 0-.11-.422.36.36 0 0 0-.344-.219.9.9 0 0 0-.578.188 1.4 1.4 0 0 0-.39.453q-.157.266-.25.578a3 3 0 0 0-.094.578q.218-.047.515-.125.312-.078.578-.203a1.6 1.6 0 0 0 .469-.344.66.66 0 0 0 .203-.484m12.64 1.453v.812q0 .5-.032 1.094-.015.594-.093 1.203a5.3 5.3 0 0 1-.25 1.078q-.156.485-.407.797a.78.78 0 0 1-.64.313.6.6 0 0 1-.531-.282 2.2 2.2 0 0 1-.25-.687 5 5 0 0 1-.094-.797v-.64q0-.704.047-1.376t.047-1.375v-.28q0-.204-.032-.407a1.2 1.2 0 0 0-.109-.36q-.062-.156-.203-.156-.282 0-.453.297a2.7 2.7 0 0 0-.282.672q-.109.39-.156.781-.047.375-.062.563a9 9 0 0 0-.063.61q-.015.405-.062.89a9 9 0 0 1-.125 1 6 6 0 0 1-.219.922q-.125.405-.328.671t-.5.266a.64.64 0 0 1-.578-.328 2.4 2.4 0 0 1-.297-.766 6 6 0 0 1-.125-.89 20 20 0 0 1-.016-.703v-.516q.016-.25.016-.516v-.359a10 10 0 0 0-.016-.547 7 7 0 0 0-.031-.64 5 5 0 0 0-.063-.594 1.5 1.5 0 0 0-.14-.453q-.094-.172-.219-.172-.203 0-.375.265-.171.25-.297.61-.125.343-.203.687-.062.345-.062.5v.094q0 .75.093 1.469.094.719.094 1.469 0 .437-.281.812-.282.36-.781.36a.76.76 0 0 1-.594-.266 2.4 2.4 0 0 1-.39-.719 6 6 0 0 1-.25-.953 12 12 0 0 1-.11-1.031q-.032-.516-.047-.922v-.625q0-.234-.016-.688 0-.453.016-.984.03-.531.094-1.078.063-.563.203-1.016t.36-.734a.73.73 0 0 1 .593-.297q.407 0 .656.219.266.218.266.656 0 .093-.016.187 0 .094-.015.172.171-.25.421-.5.25-.265.532-.469.297-.218.625-.343.327-.14.656-.14.312 0 .562.171t.438.438q.188.25.312.546.126.297.172.563a5 5 0 0 1 .375-.563q.235-.297.5-.515.266-.219.578-.36.328-.14.672-.14.329 0 .563.234t.406.61q.172.36.266.828.093.453.156.906.063.437.078.828.016.375.016.594m11.437 2.953q0 .28-.031.734-.015.454-.125.89a2.1 2.1 0 0 1-.344.735q-.234.313-.656.313-.578 0-.891-.375-.312-.375-.297-.938-.5.438-1.14.688-.626.25-1.281.25a1.8 1.8 0 0 1-.86-.219 2.7 2.7 0 0 1-.719-.562 2.9 2.9 0 0 1-.5-.766 2.2 2.2 0 0 1-.187-.86q0-.75.453-1.312a4.3 4.3 0 0 1 1.141-.953q.672-.406 1.422-.64.765-.235 1.359-.313v-.14a.6.6 0 0 0 .016-.141q0-.485-.266-.782t-.75-.297q-.39 0-.672.141a3.3 3.3 0 0 0-.531.297q-.25.156-.5.297a1.24 1.24 0 0 1-.563.125.87.87 0 0 1-.593-.219.73.73 0 0 1-.235-.562q0-.516.297-.938.313-.422.766-.703a4 4 0 0 1 1-.453 3.4 3.4 0 0 1 1-.172q.422 0 .843.11.422.093.797.312.375.203.672.515.313.297.5.704.282.577.453 1.234.172.64.266 1.328.093.672.125 1.36.031.671.031 1.312m-2.5-.5-.047-1.063h-.062a.14.14 0 0 0-.063-.015q-.203 0-.515.11a2.3 2.3 0 0 0-.578.28 2.3 2.3 0 0 0-.485.391.7.7 0 0 0-.187.453q0 .219.156.297a.8.8 0 0 0 .359.078q.344 0 .735-.172.39-.188.687-.36m10.594-1.953q0 .687-.156 1.515a5.3 5.3 0 0 1-.5 1.516 3.4 3.4 0 0 1-.922 1.172q-.562.468-1.422.469-.219 0-.453-.032a2.2 2.2 0 0 1-.453-.109 1.6 1.6 0 0 1-.375-.203.9.9 0 0 1-.266-.36l-.141 2.25q-.015.36-.031.86 0 .499-.125.953a1.7 1.7 0 0 1-.39.766q-.266.327-.782.328-.296 0-.5-.313a2.5 2.5 0 0 1-.328-.765 9 9 0 0 1-.172-1.047 15 15 0 0 1-.078-1.11 35 35 0 0 1-.015-.968v-.641q0-1.047-.016-2.078-.016-1.047-.016-2.094v-.578q0-.405.032-.875.03-.468.093-.969.078-.5.219-.906.141-.422.359-.672a.67.67 0 0 1 .532-.266q.203 0 .359.126a.85.85 0 0 1 .281.296 1.6 1.6 0 0 1 .203.375q.079.203.125.375.484-.546 1.11-.828.64-.28 1.359-.281.75 0 1.219.422.484.422.75 1.047.281.624.391 1.344.11.702.109 1.28m-2.234-.125q0-.234-.047-.469a1.3 1.3 0 0 0-.141-.453.76.76 0 0 0-.281-.344.76.76 0 0 0-.469-.14q-.375 0-.797.25a1.74 1.74 0 0 0-.609.546q-.078.126-.094.407t-.016.421v.297l.032.36.031.36q.031.17.078.265a.6.6 0 0 0 .203.265q.156.11.344.204t.375.14q.203.047.344.047a.65.65 0 0 0 .531-.25q.203-.25.312-.594.126-.343.157-.703.047-.375.047-.61m9.828 2.578q0 .28-.032.734-.015.454-.125.89a2.1 2.1 0 0 1-.343.735q-.235.313-.657.313-.578 0-.89-.375t-.297-.938q-.5.438-1.141.688-.624.25-1.281.25-.453 0-.859-.219a2.7 2.7 0 0 1-.719-.562 2.9 2.9 0 0 1-.5-.766 2.2 2.2 0 0 1-.188-.86q0-.75.454-1.312a4.2 4.2 0 0 1 1.14-.953q.672-.406 1.422-.64.766-.235 1.359-.313v-.14a.6.6 0 0 0 .016-.141q0-.485-.266-.782t-.75-.297q-.39 0-.671.141a3.3 3.3 0 0 0-.532.297q-.25.156-.5.297a1.24 1.24 0 0 1-.562.125.87.87 0 0 1-.594-.219.74.74 0 0 1-.234-.562q0-.516.297-.938.312-.422.765-.703a4 4 0 0 1 1-.453 3.4 3.4 0 0 1 1-.172q.422 0 .844.11.422.093.797.312.375.203.672.515.312.297.5.704.28.577.453 1.234.172.64.265 1.328.095.672.125 1.36.032.671.032 1.312m-2.5-.5-.047-1.063h-.063a.13.13 0 0 0-.062-.015q-.203 0-.516.11-.297.093-.578.28a2.3 2.3 0 0 0-.484.391.7.7 0 0 0-.188.453q0 .219.156.297a.8.8 0 0 0 .36.078q.344 0 .734-.172.391-.188.688-.36m8.859-3.14q-.219.015-.375-.032l-.312-.125a3 3 0 0 0-.282-.11.6.6 0 0 0-.312-.046q-.312.016-.563.172a2.2 2.2 0 0 0-.437.39 2.7 2.7 0 0 0-.328.531 3 3 0 0 0-.219.563 4 4 0 0 0-.078.578q-.016.375-.016.813-.015.453-.015.859t-.032.64q-.015.25-.078.594a2.5 2.5 0 0 1-.203.625 1.4 1.4 0 0 1-.344.5.8.8 0 0 1-.562.204.75.75 0 0 1-.469-.157 1.4 1.4 0 0 1-.328-.406 4 4 0 0 1-.219-.61 8 8 0 0 1-.125-.703q-.046-.375-.078-.75l-.031-.703v-.625q.015-.28.015-.453-.015-.546-.062-1.094a20 20 0 0 1-.031-1.109q0-.343.031-.766.031-.42.172-.78a1.6 1.6 0 0 1 .406-.626q.282-.25.766-.25.266 0 .453.172.188.172.297.422.125.25.187.531.063.282.078.516.376-.609.844-.984.47-.39 1.219-.422.375-.016.734.078.375.078.672.281.312.188.5.5.203.312.219.734.031.5-.297.766-.328.265-.797.281m7.875 3.062q0 .531-.344 1.047-.328.5-.843.906a5 5 0 0 1-1.079.64q-.577.235-1.062.235a2.76 2.76 0 0 1-1.484-.406 3.9 3.9 0 0 1-1.079-1.063 5.2 5.2 0 0 1-.671-1.406 5.6 5.6 0 0 1-.219-1.516q0-.78.219-1.672.218-.89.656-1.64.453-.75 1.125-1.25.687-.5 1.625-.5.532 0 1.015.187a2.45 2.45 0 0 1 1.422 1.281q.219.454.219 1.016 0 .735-.312 1.375a3.7 3.7 0 0 1-.829 1.11 4.4 4.4 0 0 1-1.187.765 4 4 0 0 1-1.375.313q.063.453.359.656.313.203.735.203.312 0 .609-.156a6 6 0 0 0 .578-.344q.282-.203.547-.36.281-.155.563-.156.312 0 .562.204a.65.65 0 0 1 .25.53m-2.531-3.828a.94.94 0 0 0-.11-.422.36.36 0 0 0-.343-.219.9.9 0 0 0-.578.188 1.4 1.4 0 0 0-.391.453q-.156.266-.25.578a3 3 0 0 0-.094.578q.219-.047.516-.125.312-.078.578-.203.281-.141.469-.344a.66.66 0 0 0 .203-.484m8.953.609q0 .078-.016.172a1 1 0 0 1-.047.156 1.5 1.5 0 0 1-.437.61 1.1 1.1 0 0 1-.703.234q-.609 0-.828-.61a.5.5 0 0 1-.032-.171q0-.11-.015-.22v-.452a.9.9 0 0 0-.11-.344q-.078-.125-.265-.125-.266 0-.516.344a3.8 3.8 0 0 0-.422.797 7 7 0 0 0-.281.937 3.7 3.7 0 0 0-.109.781q0 .236.031.579.031.328.125.64.094.313.25.547.172.219.437.219a.8.8 0 0 0 .485-.156q.234-.172.453-.391.203-.187.437-.39a.87.87 0 0 1 .563-.204q.39 0 .609.281a.97.97 0 0 1 .235.641q0 .532-.282 1a3.2 3.2 0 0 1-.703.797q-.421.328-.937.516a2.7 2.7 0 0 1-.985.203q-.843 0-1.437-.422a3.3 3.3 0 0 1-.938-1.063 5 5 0 0 1-.515-1.422 7.3 7.3 0 0 1-.156-1.453q0-.797.218-1.719.219-.937.672-1.734a4.3 4.3 0 0 1 1.156-1.328q.72-.531 1.704-.531.61 0 1.046.265.454.267.735.704.297.421.437.953.157.531.157 1.046v.157a1 1 0 0 1-.016.156m7.422 3.219q0 .531-.344 1.047-.328.5-.844.906a5 5 0 0 1-1.078.64q-.577.235-1.062.235a2.77 2.77 0 0 1-1.485-.406 3.9 3.9 0 0 1-1.078-1.063 5.2 5.2 0 0 1-.672-1.406 5.6 5.6 0 0 1-.218-1.516q0-.78.218-1.672a6.1 6.1 0 0 1 .657-1.64q.453-.75 1.125-1.25.687-.5 1.625-.5.53 0 1.015.187a2.46 2.46 0 0 1 1.422 1.281q.219.454.219 1.016 0 .735-.313 1.375a3.6 3.6 0 0 1-.828 1.11 4.4 4.4 0 0 1-1.187.765 4 4 0 0 1-1.375.313q.062.453.359.656.312.203.734.203.313 0 .61-.156t.578-.344q.281-.203.547-.36.281-.155.562-.156a.87.87 0 0 1 .563.204.65.65 0 0 1 .25.53m-2.531-3.828a.94.94 0 0 0-.11-.422.36.36 0 0 0-.344-.219.9.9 0 0 0-.578.188 1.4 1.4 0 0 0-.39.453q-.156.266-.25.578a3 3 0 0 0-.094.578q.219-.047.516-.125.312-.078.578-.203.28-.141.468-.344a.66.66 0 0 0 .204-.484m13.656-3.672q0 1.14-.094 2.265-.078 1.126-.078 2.266 0 .922.047 1.828.063.906.062 1.828 0 .25-.015.61-.016.344-.11.671a1.3 1.3 0 0 1-.281.563q-.187.234-.547.234-.469 0-.781-.343a1.7 1.7 0 0 1-.375-.797 2.7 2.7 0 0 1-.859.953q-.563.39-1.219.39-.703 0-1.219-.484a4.3 4.3 0 0 1-.844-1.172 7 7 0 0 1-.5-1.437 6.5 6.5 0 0 1-.156-1.297 10 10 0 0 1 .203-1.906 8 8 0 0 1 .313-1q.188-.5.468-.891.298-.39.688-.625.406-.234.922-.234.562 0 1.078.328.516.329.781.812l.141-2.484q.015-.297.047-.688a4.3 4.3 0 0 1 .125-.765q.11-.36.328-.61t.64-.25q.454 0 .704.22.25.218.359.562.124.328.141.718.03.39.031.735m-2.547 6.937q0-.36-.016-.703-.015-.343 0-.703a8 8 0 0 0-.218-.437 2 2 0 0 0-.313-.454 1.6 1.6 0 0 0-.391-.359.85.85 0 0 0-.468-.14.6.6 0 0 0-.453.171 1 1 0 0 0-.25.422 2.5 2.5 0 0 0-.11.516q-.015.281-.015.484a7.3 7.3 0 0 0 .14 1.297q.094.375.25.656t.422.281q.204 0 .406-.078.204-.093.375-.218a3 3 0 0 0 .344-.297q.172-.172.297-.313zm10.125.563q0 .531-.344 1.047-.328.5-.844.906a5 5 0 0 1-1.078.64q-.577.235-1.062.235a2.77 2.77 0 0 1-1.485-.406 3.9 3.9 0 0 1-1.078-1.063 5.2 5.2 0 0 1-.672-1.406 5.6 5.6 0 0 1-.218-1.516q0-.78.218-1.672a6.1 6.1 0 0 1 .657-1.64q.453-.75 1.125-1.25.687-.5 1.625-.5.53 0 1.015.187a2.45 2.45 0 0 1 1.422 1.281q.219.454.219 1.016 0 .735-.313 1.375a3.6 3.6 0 0 1-.828 1.11 4.4 4.4 0 0 1-1.187.765 4 4 0 0 1-1.375.313q.063.453.359.656.313.203.735.203.312 0 .609-.156a6 6 0 0 0 .578-.344q.282-.203.547-.36.281-.155.562-.156a.87.87 0 0 1 .563.204.65.65 0 0 1 .25.53m-2.531-3.828a.94.94 0 0 0-.11-.422.36.36 0 0 0-.343-.219.9.9 0 0 0-.579.188 1.4 1.4 0 0 0-.39.453q-.156.266-.25.578a3 3 0 0 0-.094.578q.219-.047.516-.125.312-.078.578-.203.281-.141.469-.344a.66.66 0 0 0 .203-.484m11.359 7.046q-.266 0-.422-.25a1.7 1.7 0 0 1-.234-.546 4.4 4.4 0 0 1-.11-.625q-.015-.33-.015-.5 0-.469.047-.938l.125-.937q.077-.469.125-.938a7 7 0 0 0 .062-.937q0-.187-.015-.407a1.7 1.7 0 0 0-.079-.406.66.66 0 0 0-.171-.328.45.45 0 0 0-.329-.125q-.14 0-.312.234a3.3 3.3 0 0 0-.328.516q-.14.281-.25.578a1.5 1.5 0 0 0-.094.422v.703q.016.345.016.703v.906q-.016.281-.047.579-.031.296-.094.578-.047.281-.141.547a1.7 1.7 0 0 1-.25.453q-.14.188-.343.312a.9.9 0 0 1-.485.125.7.7 0 0 1-.515-.203 1.5 1.5 0 0 1-.328-.516 3.6 3.6 0 0 1-.188-.718q-.047-.406-.078-.781-.015-.39-.016-.704.016-.327.016-.515v-.735q0-.593-.031-1.171-.016-.578-.016-1.157v-.797q.016-.484.125-.937.11-.469.359-.797.25-.328.735-.328.219 0 .39.14.173.141.297.344.141.203.219.438.094.234.141.406.156-.22.359-.422.219-.203.484-.36a2.55 2.55 0 0 1 1.344-.343q.797 0 1.235.39.453.375.656.954.219.562.265 1.219.048.656.047 1.187 0 .266-.047.797-.046.516-.156 1.156-.094.626-.265 1.297-.172.656-.407 1.203a3 3 0 0 1-.562.89q-.312.345-.719.344m6 .016q-.797 0-1.391-.422a3.7 3.7 0 0 1-1-1.078 5.2 5.2 0 0 1-.609-1.453 6.6 6.6 0 0 1-.203-1.594q0-.828.203-1.703.204-.89.625-1.61.422-.734 1.078-1.187.657-.469 1.563-.469.875 0 1.484.485.625.468 1 1.187.375.704.531 1.547.157.844.11 1.594a8.6 8.6 0 0 1-.266 1.672 5.3 5.3 0 0 1-.609 1.516 3.5 3.5 0 0 1-1.032 1.093q-.624.422-1.484.422m.156-7.062q-.234 0-.422.25-.171.25-.296.609-.11.36-.172.766-.063.39-.063.687 0 .375.063.813.078.437.203.812.124.36.297.61.187.234.422.234.25 0 .421-.234.188-.236.297-.594.11-.36.157-.781.046-.438.046-.813 0-.345-.062-.75a4.3 4.3 0 0 0-.188-.781 1.7 1.7 0 0 0-.296-.594q-.172-.234-.407-.234m10.766 1.015a77 77 0 0 1-.891 2.25q-.484 1.171-1.047 2.188a4.6 4.6 0 0 1-.765 1.047q-.422.406-.969.406-.438 0-.859-.438a6.7 6.7 0 0 1-.766-1.062 14 14 0 0 1-.609-1.25 22 22 0 0 1-.375-1.016 39 39 0 0 0-.282-.906 16 16 0 0 1-.281-.984 12 12 0 0 1-.203-.985 6 6 0 0 1-.078-.937q0-.61.219-1t.859-.39q.25 0 .453.155.204.141.375.407.172.265.328.625.157.344.297.765.141.406.266.844t.25.844q.125.405.25.797.14.375.359.75l.25-.641q.141-.36.297-.766.172-.405.359-.828.188-.437.407-.844A8.4 8.4 0 0 1 206.9 78q.485-.594.953-.594.438 0 .625.266.188.266.188.687 0 .423-.141.954a10 10 0 0 1-.359 1.093m4.016 6.047q-.798 0-1.391-.422a3.7 3.7 0 0 1-1-1.078 5.2 5.2 0 0 1-.609-1.453 6.5 6.5 0 0 1-.204-1.594q0-.828.204-1.703.202-.89.625-1.61.421-.734 1.078-1.187.656-.469 1.562-.469.875 0 1.485.485.624.468 1 1.187.375.704.531 1.547a6.5 6.5 0 0 1 .109 1.594 8.6 8.6 0 0 1-.265 1.672 5.3 5.3 0 0 1-.61 1.516 3.5 3.5 0 0 1-1.031 1.093q-.625.422-1.484.422m.156-7.062q-.234 0-.422.25-.173.25-.297.609-.11.36-.172.766-.062.39-.062.687 0 .375.062.813.078.437.203.812.126.36.297.61.188.234.422.234.25 0 .422-.234.188-.236.297-.594.11-.36.156-.781a8 8 0 0 0 .047-.813q0-.345-.063-.75a4.3 4.3 0 0 0-.187-.781 1.8 1.8 0 0 0-.297-.594q-.172-.234-.406-.234m11.047-1.797q0 .5-.266.937a3.8 3.8 0 0 1-.641.797 4.8 4.8 0 0 1-.843.64 6.4 6.4 0 0 1-.844.423 12.6 12.6 0 0 1 .078 2.14q0 .328-.094.625a1.1 1.1 0 0 1-.281.485q-.187.203-.547.203-.625 0-.844-.625a3.4 3.4 0 0 1-.125-.625q-.046-.407-.078-.828-.015-.438-.015-.844v-.672q0-.219.015-.516.031-.296.157-.484.14-.203.468-.39.328-.204.672-.422a3.3 3.3 0 0 0 .625-.485.86.86 0 0 0 .266-.625.96.96 0 0 0-.125-.484 1.1 1.1 0 0 0-.328-.36 1.3 1.3 0 0 0-.438-.234 1.3 1.3 0 0 0-.484-.094q-.593 0-.938.203a3 3 0 0 0-.593.422l-.454.422a.75.75 0 0 1-.531.188q-.375 0-.687-.266a.83.83 0 0 1-.297-.64q0-.61.359-1.032.36-.436.891-.687a4.2 4.2 0 0 1 1.125-.375 5.2 5.2 0 0 1 1.062-.125q.625 0 1.282.28.672.266 1.203.72.546.453.89 1.062.36.609.36 1.266m-2.313 7.594a.74.74 0 0 1-.14.453q-.126.188-.329.312a1.4 1.4 0 0 1-.437.188 1.8 1.8 0 0 1-.453.062 1.4 1.4 0 0 1-.672-.172q-.297-.172-.297-.562 0-.25.125-.438.14-.203.344-.344a1.4 1.4 0 0 1 .437-.203q.25-.078.469-.078.36 0 .656.188t.297.594m10.453 1.328q-.952 0-1.656-.485a3.8 3.8 0 0 1-1.172-1.265 6.9 6.9 0 0 1-.687-1.875 11.05 11.05 0 0 1 .015-4.454q.25-1.125.75-2.03a4.65 4.65 0 0 1 1.266-1.485q.765-.578 1.828-.578 1.032 0 1.719.562.703.547 1.109 1.438a7 7 0 0 1 .594 1.969q.187 1.094.187 2.187 0 1.219-.25 2.313a6.2 6.2 0 0 1-.734 1.906q-.484.829-1.234 1.312-.735.485-1.735.485m.188-8.72a.68.68 0 0 0-.516.235q-.203.234-.344.625-.14.375-.203.86a7 7 0 0 0-.062.953q0 .546.062 1.094.078.546.219.984.14.437.344.703.22.266.515.266.345 0 .547-.344.204-.344.313-.828a5.3 5.3 0 0 0 .156-1q.047-.515.047-.86 0-.421-.063-.89a4.2 4.2 0 0 0-.171-.86 2.1 2.1 0 0 0-.329-.671.62.62 0 0 0-.515-.266m-121.25 20.985q0 1.078-.5 1.938a5.4 5.4 0 0 1-1.328 1.515q.25.375.515.875.266.5.469 1.063.22.546.344 1.109.14.547.14 1.016 0 .5-.25.891-.234.406-.812.406-.484 0-.844-.469a6 6 0 0 1-.625-1.109 29 29 0 0 1-.5-1.328 8 8 0 0 0-.422-1.079 5 5 0 0 0-.547.219q-.266.11-.546.219-.016.344-.063.953a6.7 6.7 0 0 1-.172 1.188 3.3 3.3 0 0 1-.39 1.031q-.266.437-.735.437a.9.9 0 0 1-.797-.422 2.9 2.9 0 0 1-.406-1 7.4 7.4 0 0 1-.125-1.172q-.016-.609-.016-.953 0-.734.032-1.437a33 33 0 0 0 .031-1.453q0-.672-.031-1.344a55 55 0 0 1-.016-1.36v-.39q0-.25.016-.5.031-.266.062-.5.032-.234.11-.375.156-.328.703-.625.563-.297 1.218-.516a10 10 0 0 1 1.297-.359q.64-.14.953-.14.797 0 1.407.296.61.297 1.015.813a3.4 3.4 0 0 1 .61 1.172q.203.655.203 1.39m-2.891.219q0-.406-.187-.61-.187-.218-.61-.218-.312 0-.64.11a4 4 0 0 0-.578.25q.062 1.233.046 2.452.328-.109.672-.281.345-.171.625-.422.297-.25.485-.562a1.37 1.37 0 0 0 .187-.719m9.985 5.219q0 .531-.344 1.047-.328.5-.844.906a5 5 0 0 1-1.078.64q-.578.235-1.063.235a2.77 2.77 0 0 1-1.484-.406 3.9 3.9 0 0 1-1.078-1.063 5.1 5.1 0 0 1-.672-1.406 5.6 5.6 0 0 1-.219-1.516q0-.781.219-1.672a6.2 6.2 0 0 1 .656-1.64q.453-.75 1.125-1.25.688-.5 1.625-.5.532 0 1.016.187a2.46 2.46 0 0 1 1.422 1.281q.219.454.219 1.016 0 .735-.313 1.375a3.6 3.6 0 0 1-.828 1.109 4.4 4.4 0 0 1-1.188.766 4 4 0 0 1-1.375.313q.063.453.36.656.312.203.734.203.313 0 .61-.156.296-.156.578-.344.281-.203.547-.359a1.14 1.14 0 0 1 .562-.157.87.87 0 0 1 .563.204q.25.203.25.531m-2.532-3.828a.94.94 0 0 0-.109-.422.36.36 0 0 0-.344-.219.9.9 0 0 0-.578.188 1.4 1.4 0 0 0-.391.453 2.6 2.6 0 0 0-.25.578 3 3 0 0 0-.093.578q.218-.047.515-.125.313-.078.578-.203.282-.141.469-.344a.66.66 0 0 0 .203-.484m5.735-4.297a.65.65 0 0 1-.125.39 1.2 1.2 0 0 1-.297.313 2 2 0 0 1-.406.203 1.5 1.5 0 0 1-.407.063.97.97 0 0 1-.547-.157q-.234-.156-.234-.484 0-.235.109-.406.126-.187.297-.297.172-.126.391-.188t.422-.062q.297 0 .547.14t.25.485m.125 5.312v.469q0 .234-.016.453-.016.266-.016.719 0 .438-.031.953a12 12 0 0 1-.109 1.047 4.5 4.5 0 0 1-.219.969 2 2 0 0 1-.422.718.9.9 0 0 1-.64.282.58.58 0 0 1-.5-.235 2.2 2.2 0 0 1-.344-.64 5.4 5.4 0 0 1-.188-.891 17 17 0 0 1-.093-.953 13 13 0 0 1-.032-.859v-1.282q0-.468.032-1 .03-.53.109-1.078.093-.547.25-1 .172-.453.437-.734a.9.9 0 0 1 .672-.281q.423 0 .641.421.219.423.328.985t.125 1.125q.016.546.016.812m11.609-4.687q0 1.14-.094 2.265-.078 1.125-.078 2.266 0 .922.047 1.828.063.906.063 1.828 0 .25-.016.61-.016.344-.109.672a1.3 1.3 0 0 1-.282.562q-.187.234-.547.234-.468 0-.781-.343a1.7 1.7 0 0 1-.375-.797 2.7 2.7 0 0 1-.859.953q-.562.39-1.219.391-.703 0-1.219-.485a4.3 4.3 0 0 1-.843-1.172 7 7 0 0 1-.5-1.437 6.4 6.4 0 0 1-.157-1.297 10 10 0 0 1 .203-1.906q.126-.516.313-1 .187-.5.469-.891.297-.39.687-.625.406-.234.922-.234.562 0 1.078.328.516.329.781.812l.141-2.484q.016-.297.047-.688a4.3 4.3 0 0 1 .125-.765q.11-.36.328-.61t.641-.25q.453 0 .703.22.25.218.359.562.125.327.141.718.031.39.031.735m-2.547 6.937q0-.359-.015-.703a8 8 0 0 1 0-.703 10 10 0 0 0-.219-.438 2 2 0 0 0-.313-.453 1.6 1.6 0 0 0-.39-.359.85.85 0 0 0-.469-.141.6.6 0 0 0-.453.172 1 1 0 0 0-.25.422 2.5 2.5 0 0 0-.11.516q-.015.281-.015.484a7.3 7.3 0 0 0 .14 1.297q.094.375.25.656.157.282.422.282.203 0 .407-.079.202-.093.375-.218.187-.141.343-.297.173-.172.297-.313zm10.219 1.141q0 .28-.031.734a4.3 4.3 0 0 1-.125.891 2.1 2.1 0 0 1-.344.734q-.234.313-.656.313-.579 0-.891-.375t-.297-.938a3.8 3.8 0 0 1-1.14.688q-.625.25-1.282.25-.453 0-.859-.219a2.7 2.7 0 0 1-.719-.563 2.9 2.9 0 0 1-.5-.765 2.2 2.2 0 0 1-.187-.859q0-.75.453-1.313a4.2 4.2 0 0 1 1.14-.953 6.5 6.5 0 0 1 1.422-.641q.766-.234 1.36-.312v-.141a.6.6 0 0 0 .015-.14q0-.485-.265-.782t-.75-.297q-.392 0-.672.141a3 3 0 0 0-.531.297q-.25.156-.5.297a1.25 1.25 0 0 1-.563.125.87.87 0 0 1-.594-.219.74.74 0 0 1-.234-.562q0-.516.297-.938.312-.422.765-.703a4 4 0 0 1 1-.453 3.4 3.4 0 0 1 1-.172q.423 0 .844.11.422.093.797.312.375.203.672.515.312.297.5.704.281.577.453 1.234.172.64.266 1.328.093.672.125 1.359.031.672.031 1.313m-2.5-.5-.047-1.063h-.062a.14.14 0 0 0-.063-.015q-.203 0-.516.109-.296.094-.578.281a2.3 2.3 0 0 0-.484.391.7.7 0 0 0-.188.453q0 .219.157.297a.8.8 0 0 0 .359.078q.344 0 .734-.172.391-.188.688-.359m14.703-6.234q0 1.296-.062 2.609-.063 1.296-.157 2.594-.015.234-.031.64a14 14 0 0 1-.187 1.782 3.6 3.6 0 0 1-.25.859q-.157.375-.422.609a.85.85 0 0 1-.625.25q-.328 0-.594-.14a1.4 1.4 0 0 1-.422-.36 1.9 1.9 0 0 1-.266-.515 2 2 0 0 1-.093-.61 17 17 0 0 1 .125-2.078l-1.547.156q-.047.406-.11.985a5 5 0 0 1-.218 1.094 2.4 2.4 0 0 1-.485.89q-.327.375-.906.375a.98.98 0 0 1-.594-.172 1.2 1.2 0 0 1-.375-.406 2.2 2.2 0 0 1-.203-.578 3 3 0 0 1-.062-.594q0-.938.078-1.859a38 38 0 0 0 .125-3.844q0-1 .031-2 .016-.328.016-.766.015-.437.109-.812.11-.391.344-.656.25-.266.734-.266.672 0 1.016.36.343.343.484.874.141.516.141 1.11v1.047q0 .624-.031 1.234l-.063 1.203 1.672-.25.031-1.516q.016-.75.063-1.5l.031-.765q.015-.406.125-.75.11-.345.359-.563.266-.234.782-.234.437 0 .703.25.28.25.437.61.172.359.235.765.062.406.062.734zm3.609-1.97a.64.64 0 0 1-.125.391 1.2 1.2 0 0 1-.296.313 2 2 0 0 1-.407.203 1.5 1.5 0 0 1-.406.063.96.96 0 0 1-.547-.157q-.234-.156-.234-.484a.74.74 0 0 1 .109-.406q.126-.187.297-.297.172-.126.391-.188t.422-.062q.297 0 .546.14t.25.485m.125 5.313v.469q0 .234-.015.453-.016.266-.016.719 0 .438-.031.953a12 12 0 0 1-.109 1.047 4.5 4.5 0 0 1-.219.969 2 2 0 0 1-.422.718.9.9 0 0 1-.641.282.58.58 0 0 1-.5-.235 2.2 2.2 0 0 1-.343-.64 5.3 5.3 0 0 1-.188-.891 17 17 0 0 1-.094-.953q-.03-.47-.031-.859v-1.282q0-.468.031-1 .032-.53.11-1.078.094-.547.25-1 .171-.453.437-.734a.88.88 0 0 1 .672-.281q.422 0 .641.421.219.423.328.985t.125 1.125q.015.546.015.812m8.266.938q0 .687-.156 1.515a5.3 5.3 0 0 1-.5 1.516 3.4 3.4 0 0 1-.922 1.172q-.562.469-1.422.469-.219 0-.453-.032a2.2 2.2 0 0 1-.453-.109 1.6 1.6 0 0 1-.375-.203.9.9 0 0 1-.266-.36l-.14 2.25q-.016.36-.032.86 0 .5-.125.953a1.74 1.74 0 0 1-.39.766q-.266.328-.782.328-.296 0-.5-.313a2.5 2.5 0 0 1-.328-.765 9 9 0 0 1-.172-1.047 15 15 0 0 1-.078-1.11q-.015-.531-.015-.968v-.641q0-1.047-.016-2.078-.016-1.047-.016-2.094v-.578q0-.407.032-.875.031-.468.093-.969.079-.5.219-.906.141-.422.36-.672a.66.66 0 0 1 .531-.266q.203 0 .359.126a.84.84 0 0 1 .281.296q.126.172.204.375t.125.375a3.3 3.3 0 0 1 1.109-.828q.64-.28 1.359-.281.75 0 1.219.422.484.422.75 1.047.282.624.391 1.343.11.703.109 1.282m-2.234-.125q0-.235-.047-.469a1.3 1.3 0 0 0-.141-.453.76.76 0 0 0-.281-.344.76.76 0 0 0-.469-.141q-.374 0-.797.25a1.76 1.76 0 0 0-.609.547q-.078.126-.094.407-.015.28-.015.422v.296l.031.36.031.359q.031.172.078.266a.6.6 0 0 0 .203.265q.157.11.344.204t.375.14q.203.047.344.047a.65.65 0 0 0 .531-.25 1.8 1.8 0 0 0 .313-.594 2.8 2.8 0 0 0 .156-.703q.047-.375.047-.609m9.734 2q0 .531-.344 1.047a3.8 3.8 0 0 1-.843.906q-.5.39-1.079.64-.577.235-1.062.235a2.77 2.77 0 0 1-1.484-.406 3.9 3.9 0 0 1-1.079-1.063 5.2 5.2 0 0 1-.671-1.406 5.6 5.6 0 0 1-.219-1.516q0-.781.219-1.672.218-.89.656-1.64.453-.75 1.125-1.25.687-.5 1.625-.5.532 0 1.015.187a2.45 2.45 0 0 1 1.422 1.281q.219.454.219 1.016 0 .735-.312 1.375a3.6 3.6 0 0 1-.829 1.109 4.4 4.4 0 0 1-1.187.766 4 4 0 0 1-1.375.313q.063.453.359.656.313.203.735.203.312 0 .609-.156t.578-.344q.282-.203.547-.359.281-.157.563-.157.312 0 .562.204a.65.65 0 0 1 .25.531m-2.531-3.828a.94.94 0 0 0-.11-.422.36.36 0 0 0-.343-.219.9.9 0 0 0-.578.188 1.4 1.4 0 0 0-.391.453 2.6 2.6 0 0 0-.25.578 3 3 0 0 0-.094.578q.219-.047.516-.125.312-.078.578-.203.281-.141.469-.344a.66.66 0 0 0 .203-.484m8.578.765q-.219.016-.375-.031l-.313-.125a3 3 0 0 0-.281-.109.6.6 0 0 0-.312-.047 1.14 1.14 0 0 0-.563.172 2.2 2.2 0 0 0-.437.39 2.7 2.7 0 0 0-.328.532 3 3 0 0 0-.219.562 4 4 0 0 0-.078.578q-.016.375-.016.813a26 26 0 0 0-.016.859q0 .406-.031.641-.015.25-.078.593a2.6 2.6 0 0 1-.203.625 1.4 1.4 0 0 1-.344.5.8.8 0 0 1-.562.203.75.75 0 0 1-.469-.156 1.4 1.4 0 0 1-.328-.406 4 4 0 0 1-.219-.609 8 8 0 0 1-.125-.703q-.047-.375-.078-.75-.015-.375-.031-.704v-.625a9 9 0 0 0 .015-.453q-.015-.546-.062-1.094a20 20 0 0 1-.031-1.109q0-.343.031-.766.031-.42.172-.78a1.6 1.6 0 0 1 .406-.626q.281-.25.766-.25.266 0 .453.172.188.172.297.422.124.25.187.531t.078.516q.375-.609.844-.984.469-.39 1.219-.422.375-.016.734.078.375.078.672.281.312.188.5.5.202.312.219.734.031.5-.297.766a1.3 1.3 0 0 1-.797.281m4.25-.703q0 .25-.031.688-.031.421-.094.921a9 9 0 0 1-.188 1 7 7 0 0 1-.265.922 2.4 2.4 0 0 1-.375.672q-.22.25-.5.25-.344 0-.594-.328a3.5 3.5 0 0 1-.406-.859 8.5 8.5 0 0 1-.25-1.172q-.094-.64-.141-1.25a26 26 0 0 1-.062-1.141v-1.515q0-.439.031-.922.047-.484.125-.953.093-.485.266-.875.171-.391.453-.625.281-.25.703-.25.375 0 .609.328.25.312.391.828.156.5.219 1.125.078.624.093 1.234.031.594.016 1.11zm-.297 5.938a.9.9 0 0 1-.125.468q-.125.188-.328.313a1.4 1.4 0 0 1-.438.203 1.8 1.8 0 0 1-.468.063q-.344 0-.657-.188-.312-.172-.312-.562 0-.235.125-.422a1.3 1.3 0 0 1 .344-.344q.203-.141.437-.219a1.6 1.6 0 0 1 .469-.078q.36 0 .656.187.297.172.297.579"/><defs><filter id="a" width="281.301" height="128.454" x="-12" y="0" color-interpolation-filters="sRGB" filterUnits="userSpaceOnUse"><feFlood flood-opacity="0" result="BackgroundImageFix"/><feBlend in="SourceGraphic" in2="BackgroundImageFix" result="shape"/><feColorMatrix in="SourceAlpha" result="hardAlpha" values="0 0 0 0 0 0 0 0 0 0 0 0 0 0 0 0 0 0 127 0"/><feOffset dy="4"/><feGaussianBlur stdDeviation="2"/><feComposite in2="hardAlpha" k2="-1" k3="1" operator="arithmetic"/><feColorMatrix values="0 0 0 0 0 0 0 0 0 0 0 0 0 0 0 0 0 0 0.25 0"/><feBlend in2="shape" result="effect1_innerShadow_1138_2167"/></filter></defs></svg>