<svg xmlns="http://www.w3.org/2000/svg" width="287" height="164" fill="none" viewBox="0 0 287 164"><g filter="url(#a)"><path fill="#f4719c" fill-rule="evenodd" d="M40.596 104.374C13.032 93.616 1 77.738 1 60.553 1 39.408 25.267 18.52 65.412 8.19 84.882 3.181 107.76 1 134.045 1c80.477 0 154.693 21.574 151.525 59.553 0 18.844-13.736 36.173-41.71 46.518-15.253 5.641-34.55 8.972-58.693 9.997-9.496 19.715-23.396 29.866-46.199 45.932 16.723-18.725 26.969-30.798 30.676-45.593l-1.281.002c-57.041 3.372-100.181-2.268-127.767-13.035" clip-rule="evenodd"/></g><path fill="#f4719c" d="m40.596 104.374-.363.932zM65.412 8.191l-.25-.968zM285.57 60.553l-.996-.083-.004.083zm-41.71 46.518.347.938zm-58.693 9.997-.042-.999a1 1 0 0 0-.858.565zM138.968 163l-.746-.666a1 1 0 0 0 1.322 1.484zm30.676-45.593.97.243a.998.998 0 0 0-.973-1.243zm-1.281.002v-1l-.059.001zM1 60.553H0c0 17.765 12.47 33.917 40.233 44.753l.363-.932.364-.931C13.594 92.762 2 77.158 2 60.553zM65.412 8.19l-.25-.968c-20.172 5.19-36.42 13.048-47.647 22.322C6.295 38.812 0 49.577 0 60.553h2c0-10.17 5.838-20.421 16.788-29.466 10.943-9.039 26.9-16.789 46.873-21.927zM134.045 1V0c-26.334 0-49.302 2.185-68.883 7.223l.25.968.249.969C85.022 4.178 107.809 2 134.045 2zM285.57 60.553l.997.083c.823-9.874-3.403-18.623-11.331-26.137-7.91-7.495-19.547-13.811-33.723-18.906C213.152 5.401 174.355 0 134.045 0v2c40.167 0 78.717 5.386 106.791 15.475 14.042 5.047 25.394 11.245 33.024 18.476 7.612 7.214 11.474 15.403 10.714 24.519zm-41.71 46.518.347.938c28.192-10.425 42.363-28.033 42.363-47.456h-2c0 18.266-13.3 35.316-41.057 45.58zm-58.693 9.997.043.999c24.204-1.027 43.613-4.369 58.997-10.058l-.347-.938-.347-.938c-15.121 5.592-34.306 8.914-58.388 9.936zm0 0-.9-.434c-9.369 19.449-23.05 29.468-45.875 45.549l.576.817.576.818c22.782-16.051 36.9-26.336 46.524-46.316zM138.968 163l.746.666c16.681-18.678 27.122-30.937 30.9-46.016l-.97-.243-.97-.243c-3.636 14.511-13.687 26.398-30.452 45.17zm29.395-45.591v1l1.284-.002-.003-1-.003-1-1.278.002zM40.596 104.374l-.363.932c27.774 10.84 71.076 16.477 128.189 13.101l-.059-.998-.059-.999c-56.969 3.368-99.947-2.274-127.344-12.967z"/><path fill="#fff" d="M41.576 40.57q0 .312-.062.75a3.3 3.3 0 0 1-.203.843q-.157.39-.422.672-.266.266-.703.266-.58 0-.875-.422a2.9 2.9 0 0 1-.407-1 8 8 0 0 1-.156-1.203q-.015-.61-.031-.97-1.125.188-2.219.329-.031.36-.14.89a4.5 4.5 0 0 1-.313 1.032 2.7 2.7 0 0 1-.547.844q-.329.36-.812.359a.73.73 0 0 1-.594-.266 2.1 2.1 0 0 1-.313-.656 4 4 0 0 1-.14-.765q-.016-.407-.016-.672 0-.891.14-1.75a32 32 0 0 1 .579-2.797q.156-.61.375-1.25.234-.657.531-1.282.313-.64.703-1.14a3.5 3.5 0 0 1 .89-.813 2.05 2.05 0 0 1 1.11-.312q.594 0 1.032.265.436.267.765.704.328.437.547 1 .219.547.36 1.125.155.562.25 1.109.108.547.187.969.203 1.015.344 2.062.14 1.032.14 2.078m-3.015-3.797q0-.189-.032-.61a6 6 0 0 0-.093-.86 2.6 2.6 0 0 0-.25-.765q-.157-.344-.438-.344-.156 0-.297.22a2.1 2.1 0 0 0-.25.53q-.109.313-.203.703-.078.39-.14.75t-.094.657l-.047.406a21 21 0 0 0 1.844-.234zm11.125 2.062q0 .266-.016.797 0 .516-.047 1.094-.03.562-.094 1.078-.062.5-.156.734-.125.297-.328.516a.71.71 0 0 1-.547.218q-.532 0-.765-.421-.234-.422-.313-1.047a9.4 9.4 0 0 1-.062-1.36q.015-.734-.016-1.359a4 4 0 0 0-.172-1.047q-.141-.422-.516-.422-.515 0-.797.172a.95.95 0 0 0-.39.422q-.11.265-.14.61-.017.343-.048.718-.03.36-.047.969-.015.609-.14 1.203a2.9 2.9 0 0 1-.422 1.031q-.281.422-.844.422a.7.7 0 0 1-.562-.265 2.1 2.1 0 0 1-.328-.688 6 6 0 0 1-.188-.937 17 17 0 0 1-.062-1v-.907q.015-.406.015-.61 0-.312.016-1.03.03-.719.11-1.594.077-.89.202-1.828.126-.938.328-1.703.204-.782.485-1.266.297-.485.687-.469.25.016.422.219.188.203.297.531.125.313.203.688t.11.75q.046.36.047.672.015.313.015.484a21 21 0 0 1-.062 1.625q.36-.485.953-.797a2.65 2.65 0 0 1 1.218-.312q.782 0 1.172.437.407.422.578 1.063.173.624.188 1.343.015.704.016 1.266m4.03-2.5q0 .25-.03.688-.032.42-.094.921a9 9 0 0 1-.188 1q-.11.5-.265.922-.157.407-.375.672-.22.25-.5.25-.344 0-.594-.328a3.5 3.5 0 0 1-.406-.86 9 9 0 0 1-.25-1.171q-.095-.64-.14-1.25a26 26 0 0 1-.063-1.14v-1.516q0-.439.03-.922.048-.485.126-.953.093-.485.266-.876.171-.39.453-.624a1.02 1.02 0 0 1 .703-.25q.375 0 .61.328.249.312.39.828.156.5.218 1.125.08.625.094 1.234.031.594.016 1.11zm-.296 5.938a.9.9 0 0 1-.125.468q-.125.188-.328.313a1.4 1.4 0 0 1-.438.203 1.8 1.8 0 0 1-.468.062q-.344 0-.657-.187-.312-.172-.312-.563 0-.234.125-.422.14-.203.344-.343a1.7 1.7 0 0 1 .437-.219q.25-.078.469-.078.36 0 .656.187.297.173.297.578m11.828-1.844q0 .297-.156.578-.157.265-.734.625-.579.36-1.282.687-.703.313-1.36.547-.656.219-.968.219-.22 0-.515-.11a3.6 3.6 0 0 1-1.141-.609 1.6 1.6 0 0 1-.344-.39q-.062-.11-.125-.438a22 22 0 0 1-.094-.765l-.062-.922a110 110 0 0 0-.063-.938q-.015-.453-.03-.797v-.5q0-.578.03-1.328.048-.75.157-1.5.109-.765.312-1.453.22-.704.578-1.187.11-.141.438-.297.328-.157.765-.297a16 16 0 0 1 1.953-.469q.485-.094.876-.14.39-.063.593-.063.235 0 .438.11a.9.9 0 0 1 .36.265q.154.172.234.39.093.204.093.438 0 .203-.062.344a1.5 1.5 0 0 1-.156.312q-.157.203-.657.485a18 18 0 0 1-2.218 1.047q-.532.218-.75.312-.064.36-.141.734a8 8 0 0 0-.094.735 9 9 0 0 1 1.094-.469 3.4 3.4 0 0 1 1.156-.219q1.11 0 1.11 1.094a1 1 0 0 1-.11.469 1.1 1.1 0 0 1-.266.36q-.156.155-.374.28l-.407.22a9 9 0 0 1-1.047.468l-1.093.375q-.032.125-.063.281-.03.141-.031.281 0 .219.031.438.03.218.063.437.187-.062.593-.203.422-.14.875-.281t.875-.234q.423-.11.625-.11a.9.9 0 0 1 .438.11q.203.093.344.265.14.157.218.375.094.219.094.438m7.39-7.016q0 .844-.077 1.703a23 23 0 0 0-.063 1.703q0 1.11.063 2.22.078 1.108.078 2.233 0 .282-.031.641a2.1 2.1 0 0 1-.157.64 1.2 1.2 0 0 1-.343.5q-.235.204-.626.204-.375 0-.656-.375a3.3 3.3 0 0 1-.453-.922 12 12 0 0 1-.297-1.281q-.11-.703-.172-1.36a98 98 0 0 1-.078-1.218q-.015-.562-.015-.828 0-.298.015-.86.032-.562.11-1.219.078-.656.203-1.328.14-.687.36-1.234.218-.562.515-.906.312-.36.734-.36.344 0 .516.235.187.218.265.547.079.312.094.671.016.344.016.594m7.735 6.688q0 .531-.344 1.047-.328.5-.843.906-.5.39-1.079.64-.578.235-1.062.235a2.76 2.76 0 0 1-1.484-.407 3.9 3.9 0 0 1-1.079-1.062 5.2 5.2 0 0 1-.671-1.406 5.6 5.6 0 0 1-.22-1.516q0-.78.22-1.672.218-.89.656-1.64.453-.75 1.125-1.25.687-.5 1.625-.5.531 0 1.016.187a2.45 2.45 0 0 1 1.421 1.281q.22.453.22 1.016 0 .735-.313 1.375a3.6 3.6 0 0 1-.829 1.11q-.516.468-1.187.765a4 4 0 0 1-1.375.313q.062.452.36.656.312.203.734.203.312 0 .61-.156.296-.158.577-.344.282-.203.547-.36a1.15 1.15 0 0 1 .563-.156.87.87 0 0 1 .562.203q.25.204.25.532m-2.531-3.828a.94.94 0 0 0-.11-.422.36.36 0 0 0-.343-.22.9.9 0 0 0-.578.188 1.4 1.4 0 0 0-.391.453q-.156.266-.25.579a3 3 0 0 0-.094.578q.219-.047.516-.125.312-.078.578-.203.282-.141.469-.344a.66.66 0 0 0 .203-.484m12.64 1.453v.812q0 .5-.03 1.094-.016.594-.094 1.203a5.3 5.3 0 0 1-.25 1.078q-.157.485-.407.797a.78.78 0 0 1-.64.313.6.6 0 0 1-.532-.282 2.2 2.2 0 0 1-.25-.687 5 5 0 0 1-.093-.797v-.64q0-.704.046-1.376.047-.672.047-1.375v-.281q0-.203-.03-.406a1.2 1.2 0 0 0-.11-.36q-.063-.156-.203-.156-.282 0-.454.297a2.7 2.7 0 0 0-.28.672q-.11.39-.157.781-.047.375-.062.563-.032.203-.063.609-.015.406-.062.89-.031.485-.126 1-.078.5-.218.922-.126.407-.328.672-.204.266-.5.266a.64.64 0 0 1-.579-.328 2.4 2.4 0 0 1-.296-.766 6 6 0 0 1-.125-.89q-.016-.454-.016-.703v-.516a8 8 0 0 0 .016-.516v-.36q0-.249-.016-.546 0-.312-.031-.64a5 5 0 0 0-.063-.594 1.5 1.5 0 0 0-.14-.453q-.094-.172-.22-.172-.203 0-.374.265-.172.25-.297.61-.125.343-.203.687-.063.344-.063.5v.094q0 .75.094 1.469.094.718.094 1.468 0 .438-.281.813-.281.36-.782.36a.76.76 0 0 1-.593-.266 2.4 2.4 0 0 1-.391-.72 6 6 0 0 1-.25-.952 12 12 0 0 1-.11-1.032q-.03-.515-.046-.921V38.6q0-.235-.016-.688 0-.453.016-.984.03-.532.094-1.078.062-.563.203-1.016a2.3 2.3 0 0 1 .359-.734.73.73 0 0 1 .594-.297q.406 0 .656.218.266.219.266.657 0 .093-.016.187a1 1 0 0 1-.016.172q.173-.25.422-.5a3.7 3.7 0 0 1 .532-.469q.296-.219.624-.343.33-.141.657-.141a.97.97 0 0 1 .562.172q.25.171.438.437.188.251.312.547.125.297.172.563.157-.282.375-.563.234-.297.5-.515t.578-.36q.328-.14.672-.14.328 0 .563.234t.406.61q.171.358.266.828.093.452.156.906a8 8 0 0 1 .078.828q.016.375.016.594m8.422 0q0 .453-.078 1.03a8 8 0 0 1-.218 1.157 6.6 6.6 0 0 1-.391 1.156 4.3 4.3 0 0 1-.594 1.016q-.345.438-.812.703a2.06 2.06 0 0 1-1.063.266 2.36 2.36 0 0 1-1.172-.297 2.9 2.9 0 0 1-.89-.813 1.3 1.3 0 0 1-.344.75 1 1 0 0 1-.75.313q-.266 0-.453-.266a2.4 2.4 0 0 1-.281-.672 7 7 0 0 1-.172-.922 16 16 0 0 1-.063-.968q-.016-.47-.016-.844V37.74l.032-1.078q0-.266-.016-.797 0-.531.016-1.172.015-.656.062-1.328.063-.687.203-1.25t.391-.922q.25-.36.64-.375.313 0 .532.22.219.218.36.577.154.36.234.813.093.437.125.89.046.438.046.844.015.39.016.64 0 .048-.016.22v.843q.141-.297.407-.578a3.6 3.6 0 0 1 1.281-.86q.36-.14.688-.14.656 0 1.093.344.453.328.719.844.266.515.375 1.125.11.593.11 1.125m-2.296.468q0-.187-.032-.406a1.1 1.1 0 0 0-.11-.406.8.8 0 0 0-.233-.313.54.54 0 0 0-.376-.125q-.25 0-.5.11a2.3 2.3 0 0 0-.453.281q-.217.172-.406.375-.187.187-.328.375l-.156 1.39q.25.36.61.579.359.203.812.203.343 0 .562-.219.234-.219.36-.531.14-.328.187-.688.063-.36.063-.625m8.671-1.156q-.218.015-.375-.031l-.312-.125a3 3 0 0 0-.281-.11.6.6 0 0 0-.313-.046q-.312.015-.562.172a2.2 2.2 0 0 0-.438.39 2.7 2.7 0 0 0-.328.531 3 3 0 0 0-.219.563 4 4 0 0 0-.078.578q-.015.374-.016.813-.015.452-.015.859t-.031.64a5 5 0 0 1-.079.594 2.5 2.5 0 0 1-.203.625 1.4 1.4 0 0 1-.343.5.8.8 0 0 1-.563.203.75.75 0 0 1-.469-.156 1.4 1.4 0 0 1-.328-.406 4 4 0 0 1-.219-.61 8 8 0 0 1-.124-.703q-.048-.375-.079-.75l-.03-.703v-.625q.015-.28.015-.453-.015-.547-.063-1.094a20 20 0 0 1-.031-1.109q0-.344.031-.766.031-.42.172-.78a1.6 1.6 0 0 1 .406-.626q.282-.25.766-.25.266 0 .453.172.188.171.297.422.125.25.187.531.063.282.079.516.375-.61.843-.985.47-.39 1.219-.422.375-.015.734.079.375.078.672.28.313.188.5.5.204.314.219.735.031.5-.297.766-.328.265-.797.281m7.875 3.063q0 .531-.343 1.047-.328.5-.844.906a5 5 0 0 1-1.078.64q-.579.235-1.063.235a2.76 2.76 0 0 1-1.484-.407 3.9 3.9 0 0 1-1.078-1.062 5.1 5.1 0 0 1-.672-1.406 5.6 5.6 0 0 1-.219-1.516q0-.78.219-1.672a6.1 6.1 0 0 1 .656-1.64q.453-.75 1.125-1.25.687-.5 1.625-.5.531 0 1.016.187.484.172.843.5.36.329.579.781.218.453.218 1.016a3.1 3.1 0 0 1-.312 1.375 3.7 3.7 0 0 1-.828 1.11q-.516.468-1.188.765a4 4 0 0 1-1.375.313q.063.452.36.656.312.203.734.203.312 0 .609-.156a6 6 0 0 0 .578-.344q.282-.203.547-.36a1.15 1.15 0 0 1 .563-.156q.313 0 .562.203t.25.532m-2.531-3.828a.94.94 0 0 0-.109-.422.36.36 0 0 0-.344-.22.9.9 0 0 0-.578.188 1.4 1.4 0 0 0-.391.453 2.7 2.7 0 0 0-.25.579 3 3 0 0 0-.094.578q.219-.047.516-.125.312-.078.578-.203.282-.141.469-.344a.66.66 0 0 0 .203-.484m9.547 2.624q0 .14-.234.235a3.6 3.6 0 0 1-.579.14 12 12 0 0 1-.796.11q-.422.03-.813.047-.39.015-.703.031h-1.078q-.485-.015-1.016-.062a5.5 5.5 0 0 1-.922-.157q-.406-.125-.406-.343 0-.267.438-.422a4.7 4.7 0 0 1 1.031-.22 11 11 0 0 1 1.156-.093q.579-.015.844-.015a8 8 0 0 1 1.062.078q.345.03.703.093.36.063.641.141.297.077.484.188.188.108.188.25m5.375-4.609q0 .453-.313.672a6 6 0 0 1-.671.422q-.376.188-.688.453-.297.266-.297.797a.9.9 0 0 0 .125.484q.14.203.328.375.204.157.438.328t.422.391q.203.219.328.531.14.313.14.766 0 .656-.343 1.297a4.2 4.2 0 0 1-.86 1.125 4.3 4.3 0 0 1-1.172.781 3.1 3.1 0 0 1-1.296.297q-.266 0-.532-.047a1.5 1.5 0 0 1-.484-.14 1.05 1.05 0 0 1-.344-.297.9.9 0 0 1-.14-.516q0-.438.171-.672.172-.25.438-.39t.562-.22q.314-.078.579-.187.266-.124.437-.312.172-.188.172-.532 0-.327-.266-.672a14 14 0 0 0-.562-.75 8 8 0 0 1-.578-.859 2.03 2.03 0 0 1-.25-1q0-.672.265-1.234.282-.579.735-1a3.5 3.5 0 0 1 1.062-.657 3.2 3.2 0 0 1 1.25-.25q.25 0 .485.047.25.048.437.172a.8.8 0 0 1 .297.313.86.86 0 0 1 .125.484m7.172 5.813q0 .531-.344 1.047-.328.5-.844.906-.5.39-1.078.64-.578.235-1.062.235a2.77 2.77 0 0 1-1.485-.407 3.9 3.9 0 0 1-1.078-1.062 5.2 5.2 0 0 1-.672-1.406 5.6 5.6 0 0 1-.218-1.516q0-.78.218-1.672.219-.89.657-1.64.453-.75 1.125-1.25.687-.5 1.625-.5.53 0 1.015.187a2.46 2.46 0 0 1 1.422 1.281q.219.453.219 1.016 0 .735-.313 1.375a3.6 3.6 0 0 1-.828 1.11 4.4 4.4 0 0 1-1.187.765 4 4 0 0 1-1.375.313q.062.452.359.656.312.203.734.203.313 0 .61-.156.297-.158.578-.344.281-.203.547-.36.281-.156.562-.156a.87.87 0 0 1 .563.203q.25.204.25.532m-2.531-3.828a.94.94 0 0 0-.11-.422.36.36 0 0 0-.344-.22.9.9 0 0 0-.578.188 1.4 1.4 0 0 0-.39.453q-.156.266-.25.579a3 3 0 0 0-.094.578q.219-.047.516-.125.312-.078.578-.203a1.6 1.6 0 0 0 .468-.344.66.66 0 0 0 .204-.484m5.421 2.03q0 .204-.093.376a.9.9 0 0 1-.25.265q-.14.11-.328.172a1 1 0 0 1-.36.063q-.234 0-.515-.078a2.7 2.7 0 0 1-.5-.235 1.8 1.8 0 0 1-.375-.36.8.8 0 0 1-.157-.483q0-.438.36-.641.359-.219.734-.219.235 0 .484.078.267.078.485.235.234.14.375.359a.8.8 0 0 1 .14.469m0 3.829q0 .203-.093.375a.9.9 0 0 1-.25.266q-.14.109-.328.171a1 1 0 0 1-.36.063q-.234 0-.515-.094a1.8 1.8 0 0 1-.5-.234 1.8 1.8 0 0 1-.375-.36.8.8 0 0 1-.157-.484q0-.422.36-.625.359-.219.734-.219.235 0 .484.078.267.078.485.235.234.14.375.36.14.201.14.468m11.11-2.031q0 .531-.344 1.047-.328.5-.844.906-.5.39-1.078.64-.578.235-1.062.235a2.77 2.77 0 0 1-1.485-.407 3.9 3.9 0 0 1-1.078-1.062 5.2 5.2 0 0 1-.672-1.406 5.6 5.6 0 0 1-.218-1.516q0-.78.218-1.672.219-.89.657-1.64.453-.75 1.125-1.25.687-.5 1.625-.5.53 0 1.015.187a2.46 2.46 0 0 1 1.422 1.281q.219.453.219 1.016 0 .735-.313 1.375a3.6 3.6 0 0 1-.828 1.11 4.4 4.4 0 0 1-1.187.765 4 4 0 0 1-1.375.313q.062.452.359.656.312.203.734.203.313 0 .61-.156.297-.158.578-.344.281-.203.547-.36.281-.156.562-.156a.87.87 0 0 1 .563.203q.25.204.25.532m-2.531-3.828a.94.94 0 0 0-.11-.422.36.36 0 0 0-.344-.22.9.9 0 0 0-.578.188 1.4 1.4 0 0 0-.39.453q-.156.266-.25.579a3 3 0 0 0-.094.578q.219-.047.516-.125.312-.078.578-.203a1.6 1.6 0 0 0 .468-.344.66.66 0 0 0 .204-.484m9.89 1.015a77 77 0 0 1-.89 2.25q-.484 1.171-1.047 2.188a4.6 4.6 0 0 1-.766 1.047q-.422.405-.969.406-.437 0-.859-.438a6.7 6.7 0 0 1-.766-1.062 14 14 0 0 1-.609-1.25 22 22 0 0 1-.375-1.016 39 39 0 0 0-.281-.906 16 16 0 0 1-.282-.984 12 12 0 0 1-.203-.985 6 6 0 0 1-.078-.937q0-.61.219-1t.859-.391q.25 0 .453.156.204.141.375.407.172.265.329.624.156.345.296.766.141.406.266.844t.25.844.25.797q.141.375.359.75l.25-.641q.141-.36.297-.766.173-.406.36-.828.187-.438.406-.844a8.3 8.3 0 0 1 .891-1.437q.484-.594.953-.594.437 0 .625.266.187.265.187.687t-.14.953q-.141.532-.36 1.094m3.625-5.312a.64.64 0 0 1-.125.39 1.2 1.2 0 0 1-.297.313q-.187.124-.406.203a1.5 1.5 0 0 1-.406.062.96.96 0 0 1-.547-.156q-.234-.156-.234-.484a.74.74 0 0 1 .109-.407 1 1 0 0 1 .297-.296q.172-.125.39-.188.22-.063.422-.062.298 0 .547.14t.25.485m.125 5.312v.469q0 .234-.015.453a12 12 0 0 0-.016.719q0 .438-.031.953-.032.516-.11 1.047a4.4 4.4 0 0 1-.218.968 2 2 0 0 1-.422.72.9.9 0 0 1-.641.28.58.58 0 0 1-.5-.234 2.2 2.2 0 0 1-.344-.64 5.4 5.4 0 0 1-.187-.891 17 17 0 0 1-.094-.953 13 13 0 0 1-.031-.86v-1.281q0-.468.031-1 .031-.53.109-1.078.094-.547.25-1a2.2 2.2 0 0 1 .438-.734.88.88 0 0 1 .672-.282q.422 0 .64.422.22.423.329.985t.125 1.125q.015.546.015.812m4.75 6.156q-1.109 0-1.734-.297a2 2 0 0 1-.922-.812q-.297-.531-.359-1.281-.063-.75-.063-1.672 0-.735.047-1.469.047-.75.141-1.594-.22 0-.344.016h-.203q-.5 0-.86-.219-.375-.219-.375-.672 0-.28.219-.5.204-.218.531-.375.328-.156.703-.25.391-.093.735-.125 0-.437.062-.968.063-.532.219-.985a2.4 2.4 0 0 1 .453-.781.92.92 0 0 1 .719-.312.66.66 0 0 1 .437.156q.203.141.329.375a1.8 1.8 0 0 1 .187.5q.063.281.063.547 0 .313-.047.64-.048.328-.172.813.266-.032.359-.032.094-.015.172-.015.265 0 .547.047.297.047.531.156.25.11.406.297a.6.6 0 0 1 .157.422.67.67 0 0 1-.235.5q-.218.218-.562.375a4 4 0 0 1-.735.25q-.39.078-.734.11-.093.64-.141 1.187-.03.53-.078 1.078l-.062.547a9 9 0 0 0 0 1.03q.016.267.109.517.094.25.297.437.203.171.563.172.218 0 .453-.031.234-.047.468-.047.406 0 .579.281.187.282.187.719a.9.9 0 0 1-.203.578 1.34 1.34 0 0 1-.484.375 2.6 2.6 0 0 1-.672.234q-.36.078-.688.078m8.906-3.343q0 .531-.343 1.047-.328.5-.844.906a5 5 0 0 1-1.078.64q-.579.235-1.063.235a2.76 2.76 0 0 1-1.484-.407 3.9 3.9 0 0 1-1.078-1.062 5.1 5.1 0 0 1-.672-1.406 5.6 5.6 0 0 1-.219-1.516q0-.78.219-1.672.22-.89.656-1.64.453-.75 1.125-1.25.688-.5 1.625-.5.531 0 1.016.187a2.46 2.46 0 0 1 1.422 1.281q.219.453.218 1.016a3.1 3.1 0 0 1-.312 1.375 3.6 3.6 0 0 1-.828 1.11q-.516.468-1.188.765a4 4 0 0 1-1.375.313q.063.452.36.656.312.203.734.203.313 0 .609-.156.297-.158.579-.344.28-.203.546-.36a1.15 1.15 0 0 1 .563-.156q.313 0 .562.203t.25.532m-2.531-3.828a.94.94 0 0 0-.109-.422.36.36 0 0 0-.344-.22.9.9 0 0 0-.578.188 1.4 1.4 0 0 0-.391.453 2.7 2.7 0 0 0-.25.579 3 3 0 0 0-.093.578q.218-.047.515-.125a3 3 0 0 0 .578-.203q.282-.141.469-.344a.66.66 0 0 0 .203-.484m13.563 4.406q0 .28-.032.734-.015.453-.125.89a2.1 2.1 0 0 1-.343.735q-.235.313-.657.313-.578 0-.89-.375t-.297-.938a3.8 3.8 0 0 1-1.141.688q-.624.25-1.281.25-.453 0-.859-.22a2.7 2.7 0 0 1-.719-.562 2.9 2.9 0 0 1-.5-.765 2.2 2.2 0 0 1-.188-.86q0-.75.454-1.312a4.2 4.2 0 0 1 1.14-.953q.672-.407 1.422-.64.767-.235 1.359-.313v-.141a.6.6 0 0 0 .016-.14q0-.486-.266-.782t-.75-.297q-.39 0-.671.14a3.3 3.3 0 0 0-.532.298q-.25.156-.5.297a1.24 1.24 0 0 1-.562.125.87.87 0 0 1-.594-.22.74.74 0 0 1-.234-.562q0-.515.297-.937.312-.422.765-.703a4 4 0 0 1 1-.453 3.4 3.4 0 0 1 1-.172q.422 0 .844.11.422.093.797.312.375.203.672.515.312.297.5.703.28.579.453 1.235.172.64.265 1.328.095.671.125 1.36.032.671.032 1.312m-2.5-.5-.047-1.063h-.063a.13.13 0 0 0-.062-.015q-.203 0-.516.109-.297.094-.578.281a2.3 2.3 0 0 0-.484.39.7.7 0 0 0-.188.454q0 .219.156.297a.8.8 0 0 0 .36.078q.344 0 .734-.172.391-.187.688-.36m6.359-6.766q0 .844-.078 1.703-.063.844-.063 1.703 0 1.11.063 2.22.078 1.108.078 2.233 0 .282-.031.641-.031.345-.156.64a1.2 1.2 0 0 1-.344.5q-.234.204-.625.204-.375 0-.656-.375a3.3 3.3 0 0 1-.454-.922 12 12 0 0 1-.296-1.281 23 23 0 0 1-.172-1.36 75 75 0 0 1-.078-1.218 31 31 0 0 1-.016-.828q0-.298.016-.86.03-.562.109-1.219.078-.656.203-1.328.141-.687.359-1.234.219-.562.516-.906.312-.36.734-.36.345 0 .516.235.188.218.266.547.078.312.093.671.016.344.016.594m3.766-1.437a.65.65 0 0 1-.125.39 1.2 1.2 0 0 1-.297.313 2 2 0 0 1-.406.203 1.5 1.5 0 0 1-.407.062.97.97 0 0 1-.547-.156q-.234-.156-.234-.484 0-.235.109-.407.126-.186.297-.296a1.2 1.2 0 0 1 .391-.188q.218-.063.422-.062.297 0 .547.14t.25.485m.125 5.312v.469q0 .234-.016.453-.015.266-.016.719 0 .438-.031.953-.031.516-.109 1.047a4.4 4.4 0 0 1-.219.968 2 2 0 0 1-.422.72.9.9 0 0 1-.64.28.58.58 0 0 1-.5-.234 2.2 2.2 0 0 1-.344-.64 5.4 5.4 0 0 1-.188-.891 17 17 0 0 1-.093-.953 13 13 0 0 1-.032-.86v-1.281q0-.468.032-1 .03-.53.109-1.078.094-.547.25-1a2.2 2.2 0 0 1 .437-.734.9.9 0 0 1 .672-.282q.423 0 .641.422.219.423.328.985t.125 1.125q.016.546.016.812m10.593.438v.812q0 .5-.031 1.094-.015.594-.094 1.203a5.3 5.3 0 0 1-.25 1.078 2.5 2.5 0 0 1-.406.797.78.78 0 0 1-.64.313.6.6 0 0 1-.532-.282 2.3 2.3 0 0 1-.25-.687 5 5 0 0 1-.093-.797v-.64q0-.704.046-1.376.048-.672.047-1.375v-.281q0-.203-.031-.406a1.2 1.2 0 0 0-.109-.36q-.063-.156-.203-.156-.282 0-.454.297a2.7 2.7 0 0 0-.281.672q-.11.39-.156.781-.046.375-.063.563-.03.203-.062.609-.015.406-.063.89-.03.485-.125 1-.078.5-.218.922a2.2 2.2 0 0 1-.328.672q-.203.266-.5.266a.65.65 0 0 1-.579-.328 2.4 2.4 0 0 1-.296-.766 6 6 0 0 1-.125-.89 20 20 0 0 1-.016-.703v-.516q.016-.25.016-.516v-.36q0-.249-.016-.546 0-.312-.031-.64a5 5 0 0 0-.063-.594 1.5 1.5 0 0 0-.14-.453q-.094-.172-.219-.172-.204 0-.375.265-.172.25-.297.61-.125.343-.203.687-.063.344-.063.5v.094q0 .75.094 1.469.094.718.094 1.468 0 .438-.281.813-.282.36-.782.36a.76.76 0 0 1-.593-.266 2.3 2.3 0 0 1-.391-.72 6 6 0 0 1-.25-.952 12 12 0 0 1-.109-1.032 39 39 0 0 1-.047-.921V38.6q0-.235-.016-.688 0-.453.016-.984.031-.532.093-1.078.063-.563.204-1.016a2.3 2.3 0 0 1 .359-.734.73.73 0 0 1 .594-.297q.406 0 .656.218.266.219.266.657 0 .093-.016.187 0 .094-.016.172.173-.25.422-.5.25-.265.531-.469.298-.219.625-.343.328-.141.657-.141.313 0 .562.172t.438.437q.188.251.312.547.126.297.172.563.156-.282.375-.563.234-.297.5-.515t.578-.36q.328-.14.672-.14.328 0 .563.234t.406.61q.172.358.265.828.094.452.157.906.061.437.078.828.015.375.015.594m7.579 2.375q0 .531-.344 1.047-.328.5-.844.906a5 5 0 0 1-1.078.64q-.578.235-1.063.235a2.76 2.76 0 0 1-1.484-.407 3.9 3.9 0 0 1-1.078-1.062 5.1 5.1 0 0 1-.672-1.406 5.6 5.6 0 0 1-.219-1.516q0-.78.219-1.672.22-.89.656-1.64.453-.75 1.125-1.25.688-.5 1.625-.5.532 0 1.016.187a2.46 2.46 0 0 1 1.422 1.281q.219.453.219 1.016a3.1 3.1 0 0 1-.313 1.375 3.6 3.6 0 0 1-.828 1.11q-.516.468-1.188.765a4 4 0 0 1-1.375.313q.063.452.36.656.312.203.734.203.313 0 .61-.156.296-.158.578-.344.281-.203.547-.36.281-.156.562-.156.312 0 .563.203t.25.532m-2.532-3.828a.94.94 0 0 0-.109-.422.36.36 0 0 0-.344-.22.9.9 0 0 0-.578.188 1.4 1.4 0 0 0-.391.453 2.7 2.7 0 0 0-.25.579 3 3 0 0 0-.093.578q.219-.047.515-.125a3 3 0 0 0 .578-.203q.282-.141.469-.344a.66.66 0 0 0 .203-.484m7.594 7.046q-.266 0-.422-.25a1.7 1.7 0 0 1-.234-.547 4.4 4.4 0 0 1-.11-.624q-.015-.33-.015-.5 0-.47.047-.938l.125-.937q.077-.47.125-.938a7 7 0 0 0 .062-.937q0-.189-.015-.407a1.7 1.7 0 0 0-.079-.406.66.66 0 0 0-.171-.328.45.45 0 0 0-.329-.125q-.14 0-.312.234a3.3 3.3 0 0 0-.328.516q-.14.28-.25.578a1.5 1.5 0 0 0-.094.422v.703q.016.344.016.703v.906q-.016.282-.047.578a5 5 0 0 1-.094.579q-.046.281-.141.547a1.7 1.7 0 0 1-.25.453q-.14.188-.343.312a.9.9 0 0 1-.485.125.7.7 0 0 1-.515-.203 1.5 1.5 0 0 1-.328-.516 3.6 3.6 0 0 1-.188-.718q-.046-.407-.078-.782-.015-.39-.016-.703.016-.327.016-.515v-.735q0-.593-.031-1.172-.016-.577-.016-1.156v-.797q.016-.484.125-.937.11-.469.359-.797.25-.328.735-.328.219 0 .39.14.173.141.297.344.141.203.219.438.094.234.141.406.156-.22.359-.422.219-.203.484-.36a2.56 2.56 0 0 1 1.344-.343q.797 0 1.235.39.452.375.656.954.219.562.265 1.218.048.657.047 1.188 0 .266-.047.797-.047.515-.156 1.156-.094.625-.265 1.297a8.5 8.5 0 0 1-.407 1.203 3 3 0 0 1-.562.89q-.312.344-.719.344m6.672.125q-1.11 0-1.734-.297a2 2 0 0 1-.922-.812q-.297-.531-.36-1.281a21 21 0 0 1-.062-1.672q0-.735.047-1.469.047-.75.14-1.594-.218 0-.343.016h-.204q-.5 0-.859-.219-.375-.219-.375-.672 0-.28.219-.5a1.7 1.7 0 0 1 .531-.375q.328-.156.703-.25.39-.093.735-.125 0-.437.062-.968.063-.532.219-.985.171-.468.453-.781a.92.92 0 0 1 .719-.312q.25 0 .437.156.204.141.328.375.125.218.188.5.063.281.062.547 0 .313-.047.64a8 8 0 0 1-.171.813q.265-.032.359-.032.094-.015.172-.015.265 0 .547.047.297.047.531.156.25.11.406.297a.6.6 0 0 1 .156.422.67.67 0 0 1-.234.5q-.219.218-.562.375a4 4 0 0 1-.735.25q-.39.078-.734.11-.094.64-.141 1.187-.032.53-.078 1.078-.032.266-.062.547a9 9 0 0 0 0 1.03q.015.267.109.517.093.25.297.437.203.171.562.172.219 0 .453-.031.235-.047.469-.047.407 0 .578.281.188.282.188.719a.9.9 0 0 1-.203.578 1.35 1.35 0 0 1-.485.375 2.6 2.6 0 0 1-.672.234 3.2 3.2 0 0 1-.687.078m5.328-.109q-.797 0-1.391-.422a3.7 3.7 0 0 1-1-1.078 5.2 5.2 0 0 1-.609-1.453 6.6 6.6 0 0 1-.203-1.594q0-.828.203-1.703.204-.89.625-1.61.422-.734 1.078-1.187.657-.468 1.563-.469.875 0 1.484.485.625.468 1 1.187.375.704.531 1.547.157.844.11 1.594a8.6 8.6 0 0 1-.266 1.672 5.3 5.3 0 0 1-.609 1.515 3.5 3.5 0 0 1-1.032 1.094q-.624.422-1.484.422m.156-7.062q-.234 0-.422.25-.171.25-.296.609-.11.36-.172.766-.063.39-.063.687 0 .374.063.813.078.437.203.812.125.36.297.61.187.234.422.234.25 0 .421-.235.188-.234.297-.593.11-.36.157-.782.046-.437.046-.812 0-.345-.062-.75a4.3 4.3 0 0 0-.188-.781 1.8 1.8 0 0 0-.296-.594q-.172-.234-.407-.234m8.61-1.985q0 .453-.313.672a6 6 0 0 1-.672.422q-.375.188-.687.453-.297.266-.297.797a.9.9 0 0 0 .125.484q.14.203.328.375.203.157.438.328t.421.391a1.7 1.7 0 0 1 .329.531q.14.313.14.766 0 .656-.344 1.297a4.2 4.2 0 0 1-.859 1.125 4.3 4.3 0 0 1-1.172.781q-.656.297-1.297.297-.265 0-.531-.047a1.5 1.5 0 0 1-.484-.14 1.04 1.04 0 0 1-.344-.297.9.9 0 0 1-.141-.516q0-.438.172-.672.172-.25.438-.39.265-.14.562-.22.313-.078.578-.187a1.4 1.4 0 0 0 .438-.312q.172-.188.172-.532 0-.327-.266-.672-.25-.36-.562-.75a8 8 0 0 1-.579-.859 2.04 2.04 0 0 1-.25-1q0-.672.266-1.234a3.4 3.4 0 0 1 .734-1q.47-.422 1.063-.657.594-.25 1.25-.25.25 0 .484.047.25.048.438.172a.8.8 0 0 1 .297.313.86.86 0 0 1 .125.484m10.187 2.594q0 .079-.015.172a1 1 0 0 1-.047.156q-.141.36-.438.61a1.1 1.1 0 0 1-.703.234q-.609 0-.828-.61a.5.5 0 0 1-.031-.172q0-.108-.016-.218V36.6a.9.9 0 0 0-.109-.344q-.078-.126-.266-.125-.265 0-.516.344a3.8 3.8 0 0 0-.421.797 7 7 0 0 0-.282.937 3.7 3.7 0 0 0-.109.781q0 .236.031.578.032.33.125.641.094.312.25.547a.54.54 0 0 0 .438.219.8.8 0 0 0 .484-.157 4 4 0 0 0 .453-.39q.203-.188.438-.39a.87.87 0 0 1 .562-.204q.391 0 .61.281a.97.97 0 0 1 .234.64q0 .532-.281 1a3.2 3.2 0 0 1-.703.798q-.423.327-.938.515a2.7 2.7 0 0 1-.984.203q-.844 0-1.438-.421a3.3 3.3 0 0 1-.937-1.063 5 5 0 0 1-.516-1.422 7.3 7.3 0 0 1-.156-1.453q0-.796.219-1.719a6.4 6.4 0 0 1 .671-1.734 4.3 4.3 0 0 1 1.157-1.328q.719-.531 1.703-.531.609 0 1.047.265.453.266.734.703.297.423.438.953.156.532.156 1.047v.157a1 1 0 0 1-.016.156m3.844 6.453q-.797 0-1.391-.422a3.7 3.7 0 0 1-1-1.078 5.2 5.2 0 0 1-.609-1.453 6.6 6.6 0 0 1-.203-1.594q0-.828.203-1.703.203-.89.625-1.61.422-.734 1.078-1.187.656-.468 1.563-.469.875 0 1.484.485.625.468 1 1.187.375.704.531 1.547.156.844.11 1.594a8.6 8.6 0 0 1-.266 1.672 5.3 5.3 0 0 1-.609 1.515 3.5 3.5 0 0 1-1.032 1.094q-.624.422-1.484.422m.156-7.062q-.234 0-.422.25-.171.25-.297.609-.109.36-.171.766-.063.39-.063.687 0 .374.063.813.077.437.203.812.124.36.297.61.187.234.421.234.25 0 .422-.235.188-.234.297-.593.11-.36.156-.782.048-.437.047-.812 0-.345-.062-.75a4.3 4.3 0 0 0-.188-.781 1.8 1.8 0 0 0-.297-.594q-.171-.234-.406-.234m13.516 1.453v.812q0 .5-.031 1.094-.016.594-.094 1.203a5.3 5.3 0 0 1-.25 1.078q-.157.485-.406.797a.79.79 0 0 1-.641.313.6.6 0 0 1-.531-.282 2.2 2.2 0 0 1-.25-.687 5 5 0 0 1-.094-.797v-.64q0-.704.047-1.376t.047-1.375v-.281q0-.203-.032-.406a1.2 1.2 0 0 0-.109-.36q-.062-.156-.203-.156-.282 0-.453.297a2.7 2.7 0 0 0-.281.672q-.11.39-.157.781-.047.375-.062.563a9 9 0 0 0-.063.609q-.015.406-.062.89a9 9 0 0 1-.125 1q-.078.5-.219.922-.125.407-.328.672t-.5.266a.64.64 0 0 1-.578-.328 2.4 2.4 0 0 1-.297-.766 6 6 0 0 1-.125-.89q-.016-.454-.016-.703v-.516q.016-.25.016-.516v-.36a10 10 0 0 0-.016-.546q0-.312-.031-.64a5 5 0 0 0-.062-.594 1.5 1.5 0 0 0-.141-.453q-.094-.172-.219-.172-.203 0-.375.265-.171.25-.297.61-.125.343-.203.687-.062.344-.062.5v.094q0 .75.093 1.469.094.718.094 1.468 0 .438-.281.813-.282.36-.781.36a.76.76 0 0 1-.594-.266 2.4 2.4 0 0 1-.391-.72 6 6 0 0 1-.25-.952 13 13 0 0 1-.109-1.032 45 45 0 0 1-.047-.921V38.6q0-.235-.016-.688 0-.453.016-.984.031-.532.094-1.078.063-.563.203-1.016t.359-.734a.73.73 0 0 1 .594-.297q.407 0 .656.218.266.219.266.657 0 .093-.016.187 0 .094-.015.172.171-.25.422-.5.249-.265.531-.469.297-.219.625-.343.328-.141.656-.141.312 0 .563.172t.437.437a2.6 2.6 0 0 1 .313.547q.125.297.171.563a5 5 0 0 1 .375-.563q.235-.297.5-.515.266-.219.579-.36.327-.14.671-.14.329 0 .563.234t.406.61q.172.358.266.828.093.452.156.906.063.437.078.828.016.375.016.594m-216.25 21v.812q0 .5-.031 1.094-.015.594-.094 1.203a5.3 5.3 0 0 1-.25 1.078q-.157.485-.406.797a.79.79 0 0 1-.641.312.6.6 0 0 1-.531-.28 2.2 2.2 0 0 1-.25-.688 5 5 0 0 1-.094-.797v-.64q0-.704.047-1.376t.047-1.375v-.281q0-.203-.032-.406a1.2 1.2 0 0 0-.109-.36q-.063-.156-.203-.156-.281 0-.453.297a2.7 2.7 0 0 0-.281.672q-.11.39-.157.781-.046.375-.062.563-.032.203-.063.609-.014.406-.062.89-.032.485-.125 1-.078.5-.219.922-.125.407-.328.672t-.5.266a.64.64 0 0 1-.578-.328 2.4 2.4 0 0 1-.297-.766 6 6 0 0 1-.125-.89q-.015-.454-.016-.703v-.516a8 8 0 0 0 .016-.516v-.36q0-.249-.016-.546 0-.312-.03-.64a5 5 0 0 0-.063-.594 1.5 1.5 0 0 0-.141-.453q-.093-.172-.219-.172-.203 0-.375.265-.171.25-.297.61-.124.343-.203.687-.062.344-.062.5v.094q0 .75.093 1.469.094.718.094 1.468 0 .438-.281.813-.281.36-.781.36a.76.76 0 0 1-.594-.266 2.3 2.3 0 0 1-.39-.72 6 6 0 0 1-.25-.952 12 12 0 0 1-.11-1.032 42 42 0 0 1-.047-.921V59.6q0-.235-.015-.688 0-.453.015-.984a20 20 0 0 1 .094-1.078 5.5 5.5 0 0 1 .203-1.016q.14-.453.36-.734a.73.73 0 0 1 .593-.297q.406 0 .656.218.266.219.266.657 0 .093-.016.187a1 1 0 0 1-.015.172q.171-.25.422-.5a3.7 3.7 0 0 1 .53-.469q.298-.219.626-.343.328-.141.656-.141a.97.97 0 0 1 .563.172q.25.171.437.437.188.251.313.547.124.297.172.563.156-.282.375-.563.233-.297.5-.515.266-.219.578-.36.327-.14.672-.14.328 0 .562.234t.406.61q.172.358.266.828.093.452.156.906.063.437.078.828.016.375.016.594m7.875.687a8.5 8.5 0 0 1-.172 1.703 4.7 4.7 0 0 1-.578 1.516q-.407.655-1.094 1.062-.672.407-1.687.407-1 0-1.672-.391a3.2 3.2 0 0 1-1.078-1.062 4.8 4.8 0 0 1-.563-1.485 9 9 0 0 1-.156-1.687q0-.937.219-1.86.046-.25.172-.687.14-.453.343-.875.219-.438.485-.75.28-.313.609-.313.312 0 .5.172.187.172.297.438.11.25.14.547.032.28.032.515 0 .36-.063.703-.047.345-.11.688l-.124.937a9.4 9.4 0 0 0-.031 1.469q.03.282.125.547.093.266.265.453.172.171.485.172.406 0 .64-.219.25-.219.36-.547.124-.328.156-.703.03-.376.031-.687 0-.688-.094-1.344a54 54 0 0 1-.172-1.36 1.5 1.5 0 0 1 .063-.687q.078-.234.219-.422.14-.187.343-.297a.85.85 0 0 1 .454-.125q.343 0 .609.25.266.235.438.625.187.375.296.86.126.469.188.937.078.453.094.86.03.405.03.64m3.531-6.437a.65.65 0 0 1-.125.39 1.2 1.2 0 0 1-.297.313 2 2 0 0 1-.406.203 1.5 1.5 0 0 1-.406.062.96.96 0 0 1-.547-.156q-.234-.156-.234-.484a.74.74 0 0 1 .109-.407q.124-.187.297-.296.171-.126.39-.188.22-.062.422-.062.297 0 .547.14t.25.485m.125 5.312v.469q0 .234-.015.453-.015.266-.016.719 0 .438-.031.953-.032.516-.11 1.047a4.4 4.4 0 0 1-.218.968 2 2 0 0 1-.422.72.9.9 0 0 1-.641.28.58.58 0 0 1-.5-.234 2.2 2.2 0 0 1-.344-.64 5.4 5.4 0 0 1-.187-.891 17 17 0 0 1-.094-.953q-.03-.47-.031-.86v-1.281q0-.468.031-1 .03-.53.11-1.078.093-.547.25-1a2.2 2.2 0 0 1 .437-.734.88.88 0 0 1 .672-.282q.421 0 .64.422.22.423.328.985.11.563.126 1.125.015.546.015.812M62 64.443q-1.11 0-1.734-.297a2 2 0 0 1-.922-.812q-.297-.531-.36-1.281-.062-.75-.062-1.672 0-.735.047-1.469.047-.75.14-1.594-.218 0-.343.016h-.203q-.5 0-.86-.219-.375-.219-.375-.672 0-.28.219-.5a1.7 1.7 0 0 1 .531-.375q.328-.156.703-.25.39-.093.735-.125 0-.437.062-.968.063-.532.219-.985.172-.468.453-.781a.92.92 0 0 1 .719-.312q.25 0 .437.156.204.14.328.375.126.218.188.5.063.281.063.547 0 .312-.047.64-.048.329-.172.813.266-.032.36-.032.093-.015.171-.015.266 0 .547.047.297.047.531.156.25.11.406.297a.6.6 0 0 1 .157.422.67.67 0 0 1-.235.5q-.219.218-.562.375-.344.156-.735.25-.39.077-.734.11-.094.64-.14 1.187-.032.53-.079 1.078l-.062.547q-.016.265-.016.547 0 .202.016.484.015.266.11.516.092.25.296.437.203.171.563.172.218 0 .453-.031.234-.047.468-.047.407 0 .578.281.189.282.188.719a.9.9 0 0 1-.203.578 1.35 1.35 0 0 1-.484.375 2.6 2.6 0 0 1-.672.234q-.36.078-.688.078m5.328-.109q-.797 0-1.39-.422a3.7 3.7 0 0 1-1-1.078 5.2 5.2 0 0 1-.61-1.453 6.6 6.6 0 0 1-.203-1.594q0-.828.203-1.703.204-.89.625-1.61.422-.734 1.078-1.187.657-.468 1.563-.469.875 0 1.484.485.625.468 1 1.187.375.704.532 1.547.156.844.109 1.594a8.6 8.6 0 0 1-.266 1.672 5.3 5.3 0 0 1-.61 1.515q-.405.672-1.03 1.094-.626.422-1.485.422m.157-7.062q-.235 0-.422.25-.172.25-.297.609-.11.36-.172.766-.063.39-.063.687 0 .374.063.813.078.437.203.812.124.36.297.61.188.234.422.234.25 0 .422-.235a1.8 1.8 0 0 0 .296-.593q.11-.36.157-.782.047-.437.047-.812 0-.345-.063-.75a4.3 4.3 0 0 0-.187-.781 1.8 1.8 0 0 0-.297-.594q-.172-.234-.406-.234m14.437 4.406q0 .28-.031.734-.015.453-.125.89a2.1 2.1 0 0 1-.344.735q-.234.313-.656.313-.58 0-.89-.375-.314-.375-.298-.938-.5.437-1.14.688a3.4 3.4 0 0 1-1.282.25q-.453 0-.859-.22a2.7 2.7 0 0 1-.719-.562 2.9 2.9 0 0 1-.5-.765 2.2 2.2 0 0 1-.187-.86q0-.75.453-1.312a4.3 4.3 0 0 1 1.14-.953q.672-.407 1.422-.64.765-.235 1.36-.313v-.141a.6.6 0 0 0 .015-.14q0-.486-.265-.782-.266-.297-.75-.297-.39 0-.672.14a3.3 3.3 0 0 0-.531.298q-.25.156-.5.297a1.24 1.24 0 0 1-.563.125.87.87 0 0 1-.594-.22.74.74 0 0 1-.234-.562q0-.515.297-.937.312-.422.766-.703a4 4 0 0 1 1-.453 3.4 3.4 0 0 1 1-.172q.42 0 .843.11.422.093.797.312.375.203.672.515.312.297.5.703.281.579.453 1.235.172.64.266 1.328.093.671.125 1.36.03.671.031 1.312m-2.5-.5-.047-1.063h-.062a.14.14 0 0 0-.063-.015q-.203 0-.516.109-.296.094-.578.281a2.3 2.3 0 0 0-.484.39.7.7 0 0 0-.187.454q0 .219.156.297a.8.8 0 0 0 .36.078q.342 0 .734-.172.39-.187.687-.36m8.297 5a1.7 1.7 0 0 1-.219.843q-.219.39-.562.688-.345.297-.782.469a2.3 2.3 0 0 1-.859.172q-.312 0-.64-.063a2 2 0 0 1-.594-.187 2 2 0 0 1-.485-.36 1.4 1.4 0 0 1-.328-.547.45.45 0 0 1-.047-.203.55.55 0 0 1 .188-.422.65.65 0 0 1 .422-.172.48.48 0 0 1 .328.11l.297.265q.156.14.375.25.218.126.593.125a1 1 0 0 0 .594-.203.64.64 0 0 0 .281-.547.5.5 0 0 0-.171-.39 1.8 1.8 0 0 0-.376-.281l-.437-.25a.86.86 0 0 1-.328-.266q-.126-.172-.125-.5v-.75a2.2 2.2 0 0 1-1.078-.562 3.5 3.5 0 0 1-.703-1.016 5.3 5.3 0 0 1-.391-1.234 6.7 6.7 0 0 1-.125-1.25q0-.516.094-1.094.093-.579.281-1.14.187-.564.484-1.079.297-.516.688-.906.406-.39.906-.625a2.7 2.7 0 0 1 1.14-.235q.564 0 .985.25t.688.657q.281.405.421.906.141.5.141 1 0 .124-.016.297a.8.8 0 0 1-.046.297 1.4 1.4 0 0 1-.407.547 1 1 0 0 1-.64.218q-.532 0-.735-.531a1.2 1.2 0 0 1-.046-.36q.015-.234-.016-.437a.84.84 0 0 0-.11-.375q-.093-.156-.328-.156-.28 0-.53.344a3.4 3.4 0 0 0-.438.797q-.187.468-.297.953-.11.468-.11.75 0 .202.032.547.046.327.14.656.11.328.282.562a.58.58 0 0 0 .468.235q.282 0 .516-.172t.453-.375q.219-.219.438-.39a.77.77 0 0 1 .484-.173q.328 0 .531.25.219.25.219.578 0 .407-.188.782-.187.36-.484.656t-.687.516q-.376.218-.766.312v.094q0 .093-.016.203a.4.4 0 0 1-.047.203q.251.094.547.25.297.172.547.39.25.236.422.5.172.281.172.579m8.375-6.766a8.5 8.5 0 0 1-.172 1.703 4.7 4.7 0 0 1-.578 1.516q-.407.655-1.094 1.062-.672.407-1.687.407-1 0-1.672-.391a3.2 3.2 0 0 1-1.078-1.062 4.8 4.8 0 0 1-.563-1.485 9 9 0 0 1-.156-1.687q0-.937.219-1.86.046-.25.171-.687.141-.453.344-.875.22-.438.485-.75.28-.313.609-.313.312 0 .5.172t.297.438q.11.25.14.547.032.28.032.515 0 .36-.063.703-.046.345-.11.688-.06.468-.124.937a9.4 9.4 0 0 0-.031 1.469q.03.282.125.547.093.266.265.453.172.171.485.172.405 0 .64-.219.25-.219.36-.547.124-.328.156-.703.03-.376.031-.687 0-.688-.094-1.344a54 54 0 0 1-.171-1.36 1.5 1.5 0 0 1 .063-.687q.077-.234.218-.422.14-.187.344-.297a.85.85 0 0 1 .453-.125q.344 0 .609.25.266.235.438.625.186.375.296.86.126.469.188.937.078.453.094.86.03.405.03.64m-1.469-7.047q0 .173-.094.344-.093.156-.234.297a2.3 2.3 0 0 1-.281.266q-.156.108-.281.203a8 8 0 0 0-.25.187 3 3 0 0 1-.282.188 3 3 0 0 1-.297.14.7.7 0 0 1-.28.063.4.4 0 0 1-.22-.063.27.27 0 0 1-.093-.218q0-.235.171-.563.188-.345.454-.656.265-.328.562-.547.297-.234.547-.234.219 0 .39.187.189.171.188.406m8.219 5.516q0 .078-.016.172a1 1 0 0 1-.047.156 1.5 1.5 0 0 1-.437.61 1.1 1.1 0 0 1-.703.234q-.61 0-.828-.61a.5.5 0 0 1-.032-.172q0-.108-.015-.218V57.6a.9.9 0 0 0-.11-.344q-.078-.126-.265-.125-.266 0-.516.344a3.8 3.8 0 0 0-.422.797 7 7 0 0 0-.281.937 3.7 3.7 0 0 0-.11.781q0 .236.032.578.03.33.125.641.093.312.25.547.171.219.437.219a.8.8 0 0 0 .485-.157 4 4 0 0 0 .453-.39q.203-.188.437-.39a.87.87 0 0 1 .563-.204q.39 0 .609.281a.98.98 0 0 1 .235.64q0 .532-.282 1a3.2 3.2 0 0 1-.703.798q-.422.327-.937.515a2.7 2.7 0 0 1-.985.203q-.843 0-1.437-.421a3.3 3.3 0 0 1-.938-1.063 5 5 0 0 1-.515-1.422 7.3 7.3 0 0 1-.156-1.453q0-.796.218-1.719.219-.937.672-1.734a4.3 4.3 0 0 1 1.156-1.328q.72-.531 1.703-.531.61 0 1.047.265.453.266.735.703.296.423.437.953.156.532.156 1.047v.157a1 1 0 0 1-.015.156m7.515 3.797q0 .28-.031.734-.015.453-.125.89a2.1 2.1 0 0 1-.344.735q-.234.313-.656.313-.578 0-.89-.375-.314-.375-.297-.938-.5.437-1.141.688-.625.25-1.281.25a1.8 1.8 0 0 1-.86-.22 2.7 2.7 0 0 1-.718-.562 2.8 2.8 0 0 1-.5-.765 2.2 2.2 0 0 1-.188-.86q0-.75.453-1.312a4.3 4.3 0 0 1 1.141-.953q.672-.407 1.422-.64.765-.235 1.359-.313v-.141a.6.6 0 0 0 .016-.14q0-.486-.266-.782t-.75-.297q-.39 0-.672.14a3.3 3.3 0 0 0-.531.298q-.25.156-.5.297a1.24 1.24 0 0 1-.562.125.87.87 0 0 1-.594-.22.74.74 0 0 1-.235-.562q0-.515.297-.937.313-.422.766-.703a4 4 0 0 1 1-.453 3.4 3.4 0 0 1 1-.172q.421 0 .844.11.422.093.797.312.375.203.671.515.313.297.5.703.282.579.454 1.235.172.64.265 1.328.094.671.125 1.36.031.671.031 1.312m-2.5-.5-.046-1.063h-.063a.14.14 0 0 0-.062-.015q-.204 0-.516.109a2.3 2.3 0 0 0-.578.281 2.3 2.3 0 0 0-.485.39.7.7 0 0 0-.187.454q0 .219.156.297a.8.8 0 0 0 .36.078q.344 0 .734-.172.39-.187.687-.36m8.86-3.14q-.219.016-.375-.032l-.313-.125a3 3 0 0 0-.281-.11.6.6 0 0 0-.312-.046q-.313.015-.563.172a2.2 2.2 0 0 0-.437.39 2.7 2.7 0 0 0-.329.531 3 3 0 0 0-.218.563 4 4 0 0 0-.078.578 19 19 0 0 0-.016.813q-.016.452-.016.859t-.031.64a5 5 0 0 1-.078.594 2.6 2.6 0 0 1-.203.625 1.4 1.4 0 0 1-.344.5.8.8 0 0 1-.562.203.75.75 0 0 1-.469-.156 1.4 1.4 0 0 1-.328-.406 3.7 3.7 0 0 1-.219-.61 8 8 0 0 1-.125-.703q-.047-.375-.078-.75l-.031-.703v-.625q.015-.28.015-.453-.015-.547-.062-1.094a20 20 0 0 1-.032-1.109q0-.344.032-.766.031-.42.172-.78a1.6 1.6 0 0 1 .406-.626q.281-.25.765-.25.267 0 .454.172.188.171.296.422.125.25.188.531t.078.516a3.8 3.8 0 0 1 .844-.985q.469-.39 1.219-.422.374-.015.734.079.375.078.672.28.312.188.5.5.203.314.219.735.03.5-.297.766a1.3 1.3 0 0 1-.797.281m3.578 5.015q0 .25-.141.64-.124.39-.328.766-.188.376-.437.64-.25.267-.485.266-.312 0-.312-.312a.9.9 0 0 1 .078-.36 5 5 0 0 1 .172-.343q.094-.157.172-.329a.7.7 0 0 0 .078-.312.9.9 0 0 1-.5.156.79.79 0 0 1-.61-.281.92.92 0 0 1-.25-.625q0-.5.329-.797.327-.312.828-.312.563 0 .984.297.422.296.422.906m11.781-4.328a8 8 0 0 1-.078 1.03q-.062.564-.219 1.157a6.6 6.6 0 0 1-.39 1.156 4.3 4.3 0 0 1-.594 1.016q-.344.438-.813.703a2.06 2.06 0 0 1-1.062.266 2.36 2.36 0 0 1-1.172-.297 2.9 2.9 0 0 1-.891-.813 1.3 1.3 0 0 1-.343.75 1 1 0 0 1-.75.313q-.266 0-.453-.266a2.4 2.4 0 0 1-.282-.672 7 7 0 0 1-.172-.922 16 16 0 0 1-.062-.968 27 27 0 0 1-.016-.844v-1.594l.032-1.078q0-.266-.016-.797 0-.531.016-1.172.015-.656.062-1.328.063-.687.203-1.25t.391-.922q.25-.36.64-.375.313 0 .532.22.219.218.359.577.156.36.234.813.095.437.125.89.047.438.047.844.016.39.016.64 0 .048-.016.22v.843q.141-.297.407-.578a3.5 3.5 0 0 1 .593-.5q.328-.218.688-.36.36-.14.687-.14.656 0 1.094.344.453.328.719.844.266.515.375 1.125.11.593.109 1.125m-2.297.468q0-.187-.031-.406a1.1 1.1 0 0 0-.109-.406.8.8 0 0 0-.235-.313.54.54 0 0 0-.375-.125q-.25 0-.5.11a2.3 2.3 0 0 0-.453.281q-.219.172-.406.375-.187.187-.328.375l-.156 1.39q.249.36.609.579.36.203.812.203.345 0 .563-.219.234-.219.359-.531.141-.328.188-.688.063-.36.062-.625m9.797 1.907q0 .531-.344 1.047-.328.5-.843.906-.5.39-1.078.64-.579.235-1.063.235a2.76 2.76 0 0 1-1.484-.407 3.9 3.9 0 0 1-1.078-1.062 5.1 5.1 0 0 1-.672-1.406 5.6 5.6 0 0 1-.219-1.516q0-.78.219-1.672a6.1 6.1 0 0 1 .656-1.64q.453-.75 1.125-1.25.687-.5 1.625-.5.531 0 1.016.187.484.172.843.5.36.329.578.781.219.453.219 1.016a3.1 3.1 0 0 1-.312 1.375 3.7 3.7 0 0 1-.828 1.11q-.516.468-1.188.765a4 4 0 0 1-1.375.313q.063.452.359.656.314.203.735.203.312 0 .609-.156a6 6 0 0 0 .578-.344q.282-.203.547-.36a1.15 1.15 0 0 1 .563-.156q.313 0 .562.203t.25.532m-2.531-3.828a.94.94 0 0 0-.109-.422.36.36 0 0 0-.344-.22.9.9 0 0 0-.578.188 1.4 1.4 0 0 0-.391.453 2.7 2.7 0 0 0-.25.579 3 3 0 0 0-.094.578q.219-.047.516-.125.312-.078.578-.203.282-.141.469-.344a.66.66 0 0 0 .203-.484m10.547 1.453a8 8 0 0 1-.078 1.03 8 8 0 0 1-.219 1.157 6.6 6.6 0 0 1-.391 1.156 4.3 4.3 0 0 1-.593 1.016q-.344.438-.813.703a2.06 2.06 0 0 1-1.062.266 2.36 2.36 0 0 1-1.172-.297 2.9 2.9 0 0 1-.891-.813 1.3 1.3 0 0 1-.344.75 1 1 0 0 1-.75.313q-.266 0-.453-.266a2.4 2.4 0 0 1-.281-.672 7 7 0 0 1-.172-.922 16 16 0 0 1-.062-.968 24 24 0 0 1-.016-.844v-1.594l.031-1.078q0-.266-.015-.797 0-.531.015-1.172.016-.656.063-1.328.062-.687.203-1.25t.39-.922q.25-.36.641-.375.313 0 .531.22.219.218.36.577.156.36.234.813.094.437.125.89.047.438.047.844.016.39.016.64 0 .048-.016.22v.843q.14-.297.406-.578a3.4 3.4 0 0 1 .594-.5 3.6 3.6 0 0 1 .687-.36q.36-.14.688-.14.656 0 1.094.344.453.328.718.844.267.515.375 1.125.11.593.11 1.125m-2.297.468q0-.187-.031-.406a1.1 1.1 0 0 0-.11-.406.8.8 0 0 0-.234-.313.55.55 0 0 0-.375-.125q-.25 0-.5.11a2.3 2.3 0 0 0-.453.281q-.219.172-.406.375a4 4 0 0 0-.329.375l-.156 1.39q.25.36.61.579.359.203.812.203a.76.76 0 0 0 .563-.219q.234-.219.359-.531.14-.328.187-.688.063-.36.063-.625m9.891 2.485q0 .28-.032.734-.015.453-.125.89a2.1 2.1 0 0 1-.343.735q-.235.313-.657.313-.578 0-.89-.375t-.297-.938a3.8 3.8 0 0 1-1.141.688q-.625.25-1.281.25-.453 0-.859-.22a2.7 2.7 0 0 1-.719-.562 2.9 2.9 0 0 1-.5-.765 2.2 2.2 0 0 1-.188-.86q0-.75.453-1.312a4.3 4.3 0 0 1 1.141-.953q.672-.407 1.422-.64.766-.235 1.359-.313v-.141a.6.6 0 0 0 .016-.14q0-.486-.266-.782-.265-.297-.75-.297-.39 0-.672.14a3.3 3.3 0 0 0-.531.298q-.25.156-.5.297a1.24 1.24 0 0 1-.562.125.87.87 0 0 1-.594-.22.74.74 0 0 1-.234-.562q0-.515.296-.937.313-.422.766-.703a4 4 0 0 1 1-.453 3.4 3.4 0 0 1 1-.172q.422 0 .844.11.422.093.797.312.375.203.672.515.312.297.5.703.28.579.453 1.235.172.64.265 1.328.095.671.125 1.36.032.671.032 1.312m-2.5-.5-.047-1.063h-.063a.14.14 0 0 0-.062-.015q-.204 0-.516.109a2.3 2.3 0 0 0-.578.281 2.3 2.3 0 0 0-.484.39.7.7 0 0 0-.188.454q0 .219.156.297a.8.8 0 0 0 .36.078q.344 0 .734-.172.391-.187.688-.36m16.687-2.453v.812q0 .5-.031 1.094-.016.594-.094 1.203a5.3 5.3 0 0 1-.25 1.078 2.5 2.5 0 0 1-.406.797.79.79 0 0 1-.641.312.6.6 0 0 1-.531-.28 2.2 2.2 0 0 1-.25-.688 5 5 0 0 1-.094-.797v-.64q0-.704.047-1.376t.047-1.375v-.281q0-.203-.031-.406a1.2 1.2 0 0 0-.11-.36q-.062-.156-.203-.156-.28 0-.453.297a2.7 2.7 0 0 0-.281.672q-.11.39-.156.781-.047.375-.063.563a8 8 0 0 0-.062.609q-.017.406-.063.89a9 9 0 0 1-.125 1q-.078.5-.219.922-.124.407-.328.672-.203.266-.5.266a.64.64 0 0 1-.578-.328 2.4 2.4 0 0 1-.297-.766 6.4 6.4 0 0 1-.125-.89 23 23 0 0 1-.015-.703v-.516a9 9 0 0 0 .015-.516v-.36q0-.249-.015-.546 0-.312-.032-.64a5 5 0 0 0-.062-.594 1.4 1.4 0 0 0-.141-.453q-.093-.172-.219-.172-.202 0-.375.265-.171.25-.296.61-.125.343-.204.687-.062.344-.062.5v.094q0 .75.094 1.469.093.718.093 1.468 0 .438-.281.813-.281.36-.781.36a.76.76 0 0 1-.594-.266 2.4 2.4 0 0 1-.39-.72 6 6 0 0 1-.25-.952 13 13 0 0 1-.11-1.032 45 45 0 0 1-.047-.921V59.6q0-.235-.015-.688 0-.453.015-.984.031-.532.094-1.078.063-.563.203-1.016t.36-.734a.73.73 0 0 1 .593-.297q.406 0 .657.218.265.219.265.657 0 .093-.015.187a1 1 0 0 1-.016.172q.172-.25.422-.5.25-.265.531-.469.297-.219.625-.343.329-.141.656-.141.313 0 .563.172t.437.437q.188.251.313.547.124.297.172.563.156-.282.375-.563.234-.297.5-.515t.578-.36q.328-.14.672-.14.327 0 .562.234.234.235.406.61.173.358.266.828.094.452.156.906.063.437.078.828.016.375.016.594m7.875.687a8.5 8.5 0 0 1-.172 1.703 4.7 4.7 0 0 1-.578 1.516 3.14 3.14 0 0 1-1.094 1.062q-.672.407-1.687.407-1 0-1.672-.391a3.2 3.2 0 0 1-1.078-1.062 4.8 4.8 0 0 1-.563-1.485 9 9 0 0 1-.156-1.687q0-.937.219-1.86.046-.25.172-.687.14-.453.343-.875.22-.438.485-.75.28-.313.609-.313.313 0 .5.172t.297.438q.11.25.141.547.031.28.031.515 0 .36-.063.703-.046.345-.109.688l-.125.937a9.5 9.5 0 0 0-.031 1.469q.031.282.125.547t.265.453q.173.171.485.172.406 0 .64-.219.25-.219.36-.547a2.6 2.6 0 0 0 .156-.703q.031-.376.031-.687 0-.688-.093-1.344-.094-.672-.172-1.36a1.5 1.5 0 0 1 .062-.687q.078-.234.219-.422.14-.187.344-.297a.85.85 0 0 1 .453-.125q.344 0 .609.25.266.235.438.625.187.375.297.86.124.469.187.937.078.453.094.86.031.405.031.64m3.531-6.437a.64.64 0 0 1-.125.39 1.2 1.2 0 0 1-.297.313q-.187.124-.406.203a1.5 1.5 0 0 1-.406.062.96.96 0 0 1-.547-.156q-.234-.156-.234-.484a.74.74 0 0 1 .109-.407 1 1 0 0 1 .297-.296 1.2 1.2 0 0 1 .391-.188q.218-.062.421-.062.297 0 .547.14t.25.485m.125 5.312v.469q0 .234-.015.453a12 12 0 0 0-.016.719q0 .438-.031.953-.031.516-.11 1.047a4.4 4.4 0 0 1-.218.968 2 2 0 0 1-.422.72.9.9 0 0 1-.641.28.58.58 0 0 1-.5-.234 2.2 2.2 0 0 1-.344-.64 5.4 5.4 0 0 1-.187-.891 17 17 0 0 1-.094-.953 13 13 0 0 1-.031-.86v-1.281q0-.468.031-1 .032-.53.11-1.078.093-.547.25-1 .171-.453.437-.734a.88.88 0 0 1 .672-.282q.422 0 .641.422.218.423.328.985.109.563.125 1.125.015.546.015.812m4.75 6.156q-1.108 0-1.734-.297a2 2 0 0 1-.922-.812q-.297-.531-.359-1.281-.063-.75-.063-1.672 0-.735.047-1.469.046-.75.141-1.594-.22 0-.344.016h-.203q-.5 0-.86-.219-.375-.219-.375-.672 0-.28.219-.5.204-.218.531-.375.329-.156.704-.25a5 5 0 0 1 .734-.125q0-.437.062-.968.063-.532.219-.985a2.4 2.4 0 0 1 .453-.781.92.92 0 0 1 .719-.312q.25 0 .438.156.202.14.328.375.125.218.187.5.063.281.063.547 0 .312-.047.64-.047.329-.172.813.266-.032.359-.032.094-.015.172-.015.266 0 .547.047.297.047.531.156.25.11.407.297a.6.6 0 0 1 .156.422.67.67 0 0 1-.235.5q-.218.218-.562.375a4 4 0 0 1-.734.25 7 7 0 0 1-.735.11q-.093.64-.14 1.187-.031.53-.079 1.078l-.062.547q-.015.265-.016.547 0 .202.016.484.016.266.109.516.094.25.297.437.203.171.563.172.219 0 .453-.031.234-.047.469-.047.405 0 .578.281.187.282.187.719a.9.9 0 0 1-.203.578 1.34 1.34 0 0 1-.484.375 2.6 2.6 0 0 1-.672.234q-.36.078-.688.078m9-2.765q0 .28-.031.734-.015.453-.125.89a2.1 2.1 0 0 1-.344.735q-.234.313-.656.313-.577 0-.891-.375-.312-.375-.296-.938-.5.437-1.141.688-.625.25-1.281.25a1.8 1.8 0 0 1-.86-.22 2.7 2.7 0 0 1-.718-.562 2.8 2.8 0 0 1-.5-.765 2.2 2.2 0 0 1-.188-.86q0-.75.453-1.312a4.3 4.3 0 0 1 1.141-.953q.672-.407 1.422-.64.765-.235 1.359-.313v-.141a.6.6 0 0 0 .016-.14q0-.486-.266-.782t-.75-.297q-.39 0-.672.14a3.3 3.3 0 0 0-.531.298q-.25.156-.5.297a1.24 1.24 0 0 1-.563.125.87.87 0 0 1-.593-.22.73.73 0 0 1-.235-.562q0-.515.297-.937.313-.422.766-.703a4 4 0 0 1 1-.453 3.4 3.4 0 0 1 1-.172q.421 0 .844.11.421.093.796.312.375.203.672.515.313.297.5.703.282.579.453 1.235.173.64.266 1.328.094.671.125 1.36.031.671.031 1.312m-2.5-.5-.047-1.063h-.062a.14.14 0 0 0-.063-.015q-.203 0-.515.109a2.3 2.3 0 0 0-.578.281 2.3 2.3 0 0 0-.485.39.7.7 0 0 0-.187.454q0 .219.156.297a.8.8 0 0 0 .359.078q.344 0 .735-.172.39-.187.687-.36m13.844.5q0 .28-.031.734a4.3 4.3 0 0 1-.125.89 2.1 2.1 0 0 1-.344.735q-.234.313-.656.313-.578 0-.891-.375-.312-.375-.297-.938-.5.437-1.14.688-.625.25-1.282.25-.453 0-.859-.22a2.7 2.7 0 0 1-.719-.562 2.9 2.9 0 0 1-.5-.765 2.2 2.2 0 0 1-.187-.86q0-.75.453-1.312a4.2 4.2 0 0 1 1.141-.953q.672-.407 1.421-.64.766-.235 1.36-.313v-.141a.6.6 0 0 0 .015-.14q0-.486-.265-.782t-.75-.297q-.391 0-.672.14a3.3 3.3 0 0 0-.531.298q-.25.156-.5.297a1.24 1.24 0 0 1-.563.125.87.87 0 0 1-.594-.22.74.74 0 0 1-.234-.562q0-.515.297-.937.313-.422.766-.703a4 4 0 0 1 1-.453 3.4 3.4 0 0 1 1-.172q.422 0 .843.11.422.093.797.312.375.203.672.515.312.297.5.703.282.579.453 1.235.172.64.266 1.328.093.671.125 1.36.031.671.031 1.312m-2.5-.5-.047-1.063h-.062a.14.14 0 0 0-.063-.015q-.203 0-.515.109a2.3 2.3 0 0 0-.579.281 2.3 2.3 0 0 0-.484.39.7.7 0 0 0-.187.454q0 .219.156.297a.8.8 0 0 0 .359.078q.343 0 .735-.172.39-.187.687-.36m.75-9.125q0 .171-.094.343-.093.157-.234.297a2.3 2.3 0 0 1-.281.266 12 12 0 0 0-.532.39 3 3 0 0 1-.281.188 3 3 0 0 1-.297.14.7.7 0 0 1-.281.063.4.4 0 0 1-.219-.062.27.27 0 0 1-.093-.219q0-.234.171-.562.188-.345.454-.657.265-.327.562-.547.297-.234.547-.234a.52.52 0 0 1 .391.188q.187.171.187.406m9.766 6.5q0 .797-.032 1.593-.015.798-.078 1.594-.047.688-.125 1.469-.078.78-.25 1.547a9.4 9.4 0 0 1-.453 1.484q-.28.72-.75 1.266a3.4 3.4 0 0 1-1.109.875q-.656.328-1.563.328-.422 0-.953-.14a4.2 4.2 0 0 1-.984-.376 2.9 2.9 0 0 1-.781-.625 1.24 1.24 0 0 1-.313-.843q0-.36.25-.672a.86.86 0 0 1 .672-.297q.25 0 .469.078.234.094.453.203.234.11.437.188.219.093.438.093.578 0 .969-.297.39-.28.625-.734a3.6 3.6 0 0 0 .343-.969q.126-.515.172-.984-.312.36-.734.5a2.9 2.9 0 0 1-.86.125q-.828 0-1.406-.281a2.6 2.6 0 0 1-.937-.797 3.6 3.6 0 0 1-.532-1.188 6 6 0 0 1-.171-1.453q0-.484.093-1.093a9.3 9.3 0 0 1 .813-2.454q.312-.594.719-1.047t.906-.734a2.3 2.3 0 0 1 1.125-.281q.594 0 1.047.344.469.344.547.968.171-.328.453-.64a.87.87 0 0 1 .687-.328q.219 0 .36.218.156.22.234.578.093.345.141.766.047.406.062.813.016.39.016.718zm-2.375 1.015q0-.234-.078-.609-.063-.375-.204-.719a2 2 0 0 0-.328-.593q-.203-.25-.484-.25a.94.94 0 0 0-.641.25q-.266.25-.453.609-.187.344-.297.75a3 3 0 0 0-.093.672q0 .202.031.547.031.343.125.672.11.328.281.562a.54.54 0 0 0 .453.234q.422 0 .735-.203.312-.203.515-.515.219-.313.328-.688t.11-.719m10.328-.156a8.5 8.5 0 0 1-.172 1.703 4.7 4.7 0 0 1-.578 1.516 3.15 3.15 0 0 1-1.094 1.062q-.672.407-1.687.407-1 0-1.672-.391a3.2 3.2 0 0 1-1.078-1.062 4.8 4.8 0 0 1-.563-1.485 9 9 0 0 1-.156-1.687q0-.937.219-1.86.047-.25.171-.687.141-.453.344-.875.22-.438.485-.75.28-.313.609-.313.312 0 .5.172t.297.438q.11.25.14.547.032.28.032.515 0 .36-.063.703-.046.345-.109.688l-.125.937a9.5 9.5 0 0 0-.031 1.469q.03.282.125.547.094.266.265.453.172.171.485.172.405 0 .64-.219.25-.219.36-.547a2.6 2.6 0 0 0 .156-.703q.031-.376.031-.687 0-.688-.094-1.344a61 61 0 0 1-.172-1.36 1.5 1.5 0 0 1 .063-.687q.078-.234.219-.422.14-.187.343-.297a.85.85 0 0 1 .454-.125q.344 0 .609.25.266.235.437.625.188.375.297.86.125.469.188.937.078.453.094.86.03.405.031.64m7.594 2.266q0 .28-.032.734-.015.453-.125.89a2.1 2.1 0 0 1-.343.735q-.235.313-.657.313-.578 0-.89-.375-.314-.375-.297-.938a3.8 3.8 0 0 1-1.141.688q-.625.25-1.281.25-.453 0-.859-.22a2.7 2.7 0 0 1-.719-.562 2.9 2.9 0 0 1-.5-.765 2.2 2.2 0 0 1-.188-.86q0-.75.453-1.312a4.3 4.3 0 0 1 1.141-.953q.672-.407 1.422-.64.766-.235 1.359-.313v-.141a.6.6 0 0 0 .016-.14q0-.486-.266-.782-.265-.297-.75-.297-.39 0-.672.14a3.3 3.3 0 0 0-.531.298q-.25.156-.5.297a1.24 1.24 0 0 1-.562.125.87.87 0 0 1-.594-.22.74.74 0 0 1-.234-.562q0-.515.296-.937.313-.422.766-.703a4 4 0 0 1 1-.453 3.4 3.4 0 0 1 1-.172q.422 0 .844.11.422.093.797.312.375.203.672.515.312.297.5.703.28.579.453 1.235.172.64.265 1.328.095.671.125 1.36.032.671.032 1.312m-2.5-.5-.047-1.063h-.063a.14.14 0 0 0-.062-.015q-.204 0-.516.109a2.3 2.3 0 0 0-.578.281 2.3 2.3 0 0 0-.484.39.7.7 0 0 0-.188.454q0 .219.156.297a.8.8 0 0 0 .36.078q.344 0 .734-.172.391-.187.688-.36m13.75-.078q0 .531-.344 1.047-.328.5-.844.906a5 5 0 0 1-1.078.64q-.578.235-1.063.235a2.76 2.76 0 0 1-1.484-.407 3.9 3.9 0 0 1-1.078-1.062 5.1 5.1 0 0 1-.672-1.406 5.6 5.6 0 0 1-.219-1.516q0-.78.219-1.672.22-.89.656-1.64.453-.75 1.125-1.25.688-.5 1.625-.5.532 0 1.016.187a2.46 2.46 0 0 1 1.422 1.281q.219.453.219 1.016a3.1 3.1 0 0 1-.313 1.375 3.6 3.6 0 0 1-.828 1.11q-.516.468-1.188.765a4 4 0 0 1-1.375.313q.063.452.36.656.312.203.734.203.313 0 .61-.156.296-.158.578-.344.281-.203.547-.36.281-.156.562-.156.312 0 .563.203t.25.532m-2.532-3.828a.94.94 0 0 0-.109-.422.36.36 0 0 0-.344-.22.9.9 0 0 0-.578.188 1.4 1.4 0 0 0-.391.453 2.7 2.7 0 0 0-.25.579 3 3 0 0 0-.093.578q.219-.047.515-.125a3 3 0 0 0 .578-.203q.282-.141.469-.344a.66.66 0 0 0 .203-.484m5.407 5.78q0 .25-.141.641-.125.39-.328.766-.187.376-.438.64-.25.267-.484.266-.312 0-.313-.312 0-.187.079-.36.078-.172.171-.343.094-.157.172-.329a.7.7 0 0 0 .078-.312.9.9 0 0 1-.5.156.79.79 0 0 1-.609-.281.92.92 0 0 1-.25-.625q0-.5.328-.797.328-.312.828-.312.562 0 .985.297.422.296.422.906m8.968-7.765q0 .453-.312.672a6 6 0 0 1-.672.422q-.375.188-.688.453-.296.266-.296.797a.9.9 0 0 0 .125.484q.14.203.328.375.203.157.437.328t.422.391q.204.219.328.531.141.313.141.766 0 .656-.344 1.297a4.28 4.28 0 0 1-2.031 1.906q-.657.297-1.297.297-.266 0-.531-.047a1.5 1.5 0 0 1-.485-.14 1 1 0 0 1-.343-.297.9.9 0 0 1-.141-.516q0-.438.172-.672.171-.25.437-.39a2.6 2.6 0 0 1 .563-.22q.312-.078.578-.187.266-.124.437-.312.172-.188.172-.532 0-.327-.265-.672a14 14 0 0 0-.563-.75 8 8 0 0 1-.578-.859 2.03 2.03 0 0 1-.25-1q0-.672.266-1.234.28-.579.734-1 .47-.422 1.063-.657.593-.25 1.25-.25.25 0 .484.047.25.048.437.172a.8.8 0 0 1 .297.313.85.85 0 0 1 .125.484m7.172 5.813q0 .531-.344 1.047-.328.5-.843.906-.5.39-1.078.64-.579.235-1.063.235a2.76 2.76 0 0 1-1.484-.407 3.9 3.9 0 0 1-1.078-1.062 5.1 5.1 0 0 1-.672-1.406 5.6 5.6 0 0 1-.219-1.516q0-.78.219-1.672a6.1 6.1 0 0 1 .656-1.64q.453-.75 1.125-1.25.687-.5 1.625-.5.531 0 1.016.187.484.172.843.5.36.329.578.781.219.453.219 1.016a3.1 3.1 0 0 1-.312 1.375 3.7 3.7 0 0 1-.828 1.11q-.516.468-1.188.765a4 4 0 0 1-1.375.313q.063.452.359.656.313.203.735.203.312 0 .609-.156a6 6 0 0 0 .578-.344q.282-.203.547-.36a1.15 1.15 0 0 1 .563-.156q.313 0 .562.203t.25.532m-2.531-3.828a.94.94 0 0 0-.109-.422.36.36 0 0 0-.344-.22.9.9 0 0 0-.578.188 1.4 1.4 0 0 0-.391.453 2.7 2.7 0 0 0-.25.579 3 3 0 0 0-.094.578q.219-.047.516-.125.312-.078.578-.203.282-.141.469-.344a.66.66 0 0 0 .203-.484M44.826 80.226q0 .687-.156 1.515a5.3 5.3 0 0 1-.5 1.516q-.345.704-.922 1.172-.562.468-1.422.468-.219 0-.453-.03a2.2 2.2 0 0 1-.453-.11 1.6 1.6 0 0 1-.375-.203.9.9 0 0 1-.266-.36l-.14 2.25q-.015.36-.032.86 0 .499-.124.953a1.7 1.7 0 0 1-.391.765q-.266.33-.781.329-.297 0-.5-.313a2.5 2.5 0 0 1-.328-.766 9 9 0 0 1-.172-1.046 14 14 0 0 1-.078-1.11 33 33 0 0 1-.016-.969v-.64q0-1.047-.016-2.078-.015-1.047-.015-2.094v-.578q0-.407.03-.875.032-.47.095-.969.078-.5.218-.906.141-.422.36-.672a.67.67 0 0 1 .531-.266.56.56 0 0 1 .36.125.86.86 0 0 1 .28.297q.126.172.204.375t.125.375q.484-.546 1.11-.828.64-.28 1.358-.281.75 0 1.22.422.483.422.75 1.047.28.624.39 1.343a8.4 8.4 0 0 1 .11 1.282m-2.234-.125a2.4 2.4 0 0 0-.047-.47 1.3 1.3 0 0 0-.14-.452.76.76 0 0 0-.282-.344.76.76 0 0 0-.469-.14q-.375 0-.797.25-.406.234-.609.546-.078.126-.094.406-.015.282-.015.422v.297l.031.36q.015.187.031.359.031.172.078.266a.6.6 0 0 0 .203.265q.158.109.344.203.188.094.375.141.204.047.344.047a.65.65 0 0 0 .531-.25 1.8 1.8 0 0 0 .313-.594q.124-.344.156-.703a5 5 0 0 0 .047-.61m10.031.312a8.5 8.5 0 0 1-.172 1.703 4.7 4.7 0 0 1-.578 1.516q-.405.655-1.094 1.062-.672.407-1.687.407-1 0-1.672-.391a3.2 3.2 0 0 1-1.078-1.062 4.8 4.8 0 0 1-.563-1.485 9 9 0 0 1-.156-1.687q0-.937.219-1.86.046-.25.172-.687.14-.453.343-.875a3.7 3.7 0 0 1 .485-.75q.28-.313.61-.313.312 0 .5.172.186.172.296.438.11.25.14.546.032.282.032.516 0 .36-.062.703-.047.345-.11.688l-.125.937a9.4 9.4 0 0 0-.031 1.469q.03.282.125.547.093.266.266.453.172.172.484.172.406 0 .64-.219.25-.219.36-.547.124-.328.156-.703.03-.376.031-.687 0-.688-.093-1.344a54 54 0 0 1-.172-1.36 1.5 1.5 0 0 1 .063-.687q.077-.234.218-.422.14-.187.344-.297a.85.85 0 0 1 .453-.125q.343 0 .61.25.264.235.437.625.188.375.297.86.124.469.187.937.078.453.094.86.03.405.031.64m7.688-5.812q0 1.14-.094 2.265-.078 1.125-.078 2.266 0 .922.047 1.828.062.906.062 1.828 0 .25-.015.61-.015.344-.11.671a1.3 1.3 0 0 1-.281.563q-.187.234-.547.234-.469 0-.781-.344a1.7 1.7 0 0 1-.375-.796 2.7 2.7 0 0 1-.86.953q-.562.39-1.218.39a1.72 1.72 0 0 1-1.22-.484 4.3 4.3 0 0 1-.843-1.172 7 7 0 0 1-.5-1.437 6.5 6.5 0 0 1-.156-1.297 9.7 9.7 0 0 1 .203-1.907q.125-.515.313-1 .187-.5.468-.89.297-.39.688-.625.406-.234.922-.235.562 0 1.078.329.515.328.781.812l.14-2.484q.017-.297.047-.688.032-.406.126-.765.108-.36.328-.61.218-.25.64-.25.453 0 .703.219.25.218.36.563.125.328.14.718.032.39.032.735m-2.547 6.937q0-.36-.016-.703-.015-.345 0-.703a9 9 0 0 0-.219-.438 2 2 0 0 0-.312-.453 1.6 1.6 0 0 0-.39-.36.85.85 0 0 0-.47-.14.6.6 0 0 0-.453.172 1 1 0 0 0-.25.422 2.5 2.5 0 0 0-.109.516 9 9 0 0 0-.016.484q0 .188.032.563.03.359.109.734.094.375.25.656t.422.281q.202 0 .406-.078.203-.093.375-.219.188-.14.344-.296.171-.173.297-.313zm10.125.563q0 .531-.344 1.046-.328.5-.844.907-.5.39-1.078.64-.578.235-1.062.235a2.76 2.76 0 0 1-1.485-.407 3.9 3.9 0 0 1-1.078-1.062 5.2 5.2 0 0 1-.672-1.406 5.6 5.6 0 0 1-.218-1.516q0-.78.218-1.672.219-.89.657-1.64.453-.75 1.125-1.25.687-.5 1.625-.5.53 0 1.015.187a2.45 2.45 0 0 1 1.422 1.281q.219.453.219 1.016 0 .735-.313 1.375a3.6 3.6 0 0 1-.828 1.11q-.516.468-1.187.765a4 4 0 0 1-1.375.313q.062.453.359.656.312.203.734.203.313 0 .61-.156.296-.158.578-.344.281-.203.547-.36a1.15 1.15 0 0 1 .562-.156q.313 0 .563.203t.25.532m-2.531-3.829a.94.94 0 0 0-.11-.421.36.36 0 0 0-.344-.22.9.9 0 0 0-.578.188 1.4 1.4 0 0 0-.39.453q-.157.266-.25.579a3 3 0 0 0-.094.578q.219-.047.516-.125.312-.078.578-.203.28-.141.468-.344a.66.66 0 0 0 .204-.485m8.578.766q-.219.015-.375-.031l-.313-.125a3 3 0 0 0-.281-.11.6.6 0 0 0-.313-.046 1.15 1.15 0 0 0-.562.171 2.2 2.2 0 0 0-.438.391 2.7 2.7 0 0 0-.328.531 3 3 0 0 0-.218.563 4 4 0 0 0-.079.578q-.015.374-.015.813-.016.453-.016.859t-.031.64a5 5 0 0 1-.078.594q-.063.328-.203.625a1.4 1.4 0 0 1-.344.5.8.8 0 0 1-.563.203.75.75 0 0 1-.468-.156 1.4 1.4 0 0 1-.329-.406 4 4 0 0 1-.218-.61 8 8 0 0 1-.125-.703q-.047-.375-.078-.75-.015-.375-.032-.703v-.625q.016-.28.016-.453a19 19 0 0 0-.062-1.094q-.032-.563-.032-1.109 0-.344.032-.766.03-.42.171-.78.141-.376.407-.626.28-.25.765-.25.266 0 .453.172.188.172.297.422.126.25.188.531.061.282.078.516.375-.61.844-.985.468-.39 1.218-.422.375-.015.735.079.375.078.672.28.312.19.5.5.203.314.218.735.031.5-.296.766-.33.265-.797.281m3.578 5.016q0 .25-.14.64-.126.39-.329.766-.187.376-.437.64-.25.267-.485.266-.312 0-.312-.312 0-.187.078-.36.079-.171.172-.343a3 3 0 0 0 .171-.329.7.7 0 0 0 .079-.312.9.9 0 0 1-.5.156.79.79 0 0 1-.61-.281.92.92 0 0 1-.25-.625q0-.5.328-.797.329-.312.829-.312.562 0 .984.296.422.297.422.907m13.875-4.328v.812q0 .5-.031 1.094-.016.594-.094 1.203a5.3 5.3 0 0 1-.25 1.078q-.156.485-.406.797a.79.79 0 0 1-.641.313.6.6 0 0 1-.531-.282 2.2 2.2 0 0 1-.25-.687 5 5 0 0 1-.094-.797v-.64q0-.704.047-1.376t.047-1.375v-.281q0-.202-.032-.406a1.2 1.2 0 0 0-.109-.36q-.063-.156-.203-.156-.282 0-.453.297a2.7 2.7 0 0 0-.281.672q-.11.39-.157.781-.047.375-.062.563-.031.203-.063.609-.015.406-.062.89-.032.486-.125 1-.078.5-.219.922-.125.407-.328.672t-.5.266a.64.64 0 0 1-.578-.328 2.4 2.4 0 0 1-.297-.766 6 6 0 0 1-.125-.89q-.016-.453-.016-.704v-.515q.016-.25.016-.516v-.36q0-.249-.016-.546 0-.312-.031-.64a5 5 0 0 0-.062-.594 1.5 1.5 0 0 0-.141-.454q-.094-.171-.219-.171-.203 0-.375.265-.172.25-.297.61a6 6 0 0 0-.203.687q-.062.345-.062.5v.094q0 .75.093 1.469.094.718.094 1.468 0 .438-.281.813-.282.36-.781.36a.76.76 0 0 1-.594-.266 2.4 2.4 0 0 1-.39-.72 6 6 0 0 1-.25-.952 12 12 0 0 1-.11-1.032 42 42 0 0 1-.047-.921V80.6q0-.235-.016-.688 0-.453.016-.984.03-.532.094-1.078.063-.563.203-1.016a2.3 2.3 0 0 1 .36-.734.73.73 0 0 1 .593-.297q.406 0 .656.218.266.219.266.657 0 .094-.016.187a1 1 0 0 1-.015.172q.172-.25.421-.5.25-.265.532-.469a2.6 2.6 0 0 1 .625-.343q.328-.141.656-.141a.97.97 0 0 1 .563.172q.25.171.437.437.188.251.313.547.124.297.171.563.157-.281.375-.563.235-.297.5-.515t.579-.36a1.7 1.7 0 0 1 .671-.14q.33 0 .563.234.234.235.406.61.172.359.266.828.093.453.156.906.063.436.078.828.016.375.016.594m7.578 2.375q0 .531-.344 1.046-.328.5-.844.907a5 5 0 0 1-1.078.64q-.578.235-1.062.235a2.76 2.76 0 0 1-1.485-.407 3.9 3.9 0 0 1-1.078-1.062 5.2 5.2 0 0 1-.672-1.406 5.6 5.6 0 0 1-.218-1.516q0-.78.218-1.672.219-.89.657-1.64.453-.75 1.125-1.25.687-.5 1.625-.5.53 0 1.015.187a2.45 2.45 0 0 1 1.422 1.281q.219.453.219 1.016 0 .735-.313 1.375a3.6 3.6 0 0 1-.828 1.11q-.516.468-1.187.765a4 4 0 0 1-1.375.313q.061.453.36.656.31.203.734.203.311 0 .609-.156.296-.158.578-.344.282-.203.547-.36a1.15 1.15 0 0 1 .562-.156.87.87 0 0 1 .563.203q.25.204.25.532m-2.531-3.829a.94.94 0 0 0-.11-.421.36.36 0 0 0-.343-.22.9.9 0 0 0-.579.188 1.4 1.4 0 0 0-.39.453q-.156.266-.25.579a3 3 0 0 0-.094.578q.219-.047.516-.125.311-.078.578-.203.281-.141.469-.344a.66.66 0 0 0 .203-.485m9.75-1.453q0 .25-.094.532-.094.266-.235.546-.14.282-.296.547-.157.25-.282.47-.312.499-.625 1.015-.297.515-.609 1.015l.391.61q.25.39.484.828.25.421.422.844.171.42.172.718 0 .282-.219.547a.67.67 0 0 1-.531.266q-.329 0-.672-.235a6 6 0 0 1-.656-.546 9 9 0 0 1-.579-.672q-.266-.36-.453-.594-.203.219-.531.594-.312.375-.687.734-.36.36-.719.625-.36.25-.64.25a.62.62 0 0 1-.516-.234.85.85 0 0 1-.188-.547q0-.313.203-.797.22-.484.5-1 .297-.516.578-.984.297-.47.453-.735a29 29 0 0 1-.39-.734 21 21 0 0 1-.453-.969 17 17 0 0 1-.36-1 3.2 3.2 0 0 1-.14-.828q0-.36.219-.578.218-.219.578-.219.39 0 .734.313.344.296.641.734.296.422.515.89.234.455.375.75l.516-.765q.343-.484.765-.953.422-.47.875-.813.454-.343.86-.343.266 0 .422.234a.77.77 0 0 1 .172.484m7.109 5.86q0 .28-.031.734a4.3 4.3 0 0 1-.125.89 2.1 2.1 0 0 1-.344.735q-.234.313-.656.313-.579 0-.891-.375t-.297-.938q-.5.437-1.14.688-.625.25-1.282.25-.453 0-.859-.22a2.7 2.7 0 0 1-.719-.562 2.9 2.9 0 0 1-.5-.765 2.2 2.2 0 0 1-.187-.86q0-.75.453-1.312a4.3 4.3 0 0 1 1.14-.953q.672-.407 1.422-.64.766-.235 1.36-.313v-.141a.6.6 0 0 0 .015-.14q0-.486-.265-.782-.266-.297-.75-.297-.391 0-.672.14a3.3 3.3 0 0 0-.531.298q-.25.156-.5.297a1.25 1.25 0 0 1-.563.125.87.87 0 0 1-.594-.22.74.74 0 0 1-.234-.562q0-.515.297-.937.312-.422.765-.703a4 4 0 0 1 1-.453 3.4 3.4 0 0 1 1-.172q.423 0 .844.11.422.093.797.312.375.203.672.515.312.297.5.703.281.578.453 1.235.172.64.266 1.328.093.671.125 1.36.031.671.031 1.312m-2.5-.5-.047-1.063h-.062a.14.14 0 0 0-.063-.015 1.6 1.6 0 0 0-.516.109 2.3 2.3 0 0 0-.578.281 2.3 2.3 0 0 0-.484.39.7.7 0 0 0-.188.454q0 .219.157.297a.8.8 0 0 0 .359.078q.344 0 .734-.172.391-.187.688-.36m10.172 3.156q-.797 0-1.391-.422a3.7 3.7 0 0 1-1-1.078 5.2 5.2 0 0 1-.609-1.453 6.5 6.5 0 0 1-.203-1.594q0-.828.203-1.703.203-.89.625-1.61.421-.734 1.078-1.187.656-.468 1.562-.469.876 0 1.485.485.625.468 1 1.187.375.704.531 1.547a6.5 6.5 0 0 1 .109 1.594 8.6 8.6 0 0 1-.265 1.672 5.3 5.3 0 0 1-.61 1.515q-.405.672-1.031 1.094-.624.422-1.484.422m.156-7.062q-.234 0-.422.25-.171.25-.297.609-.11.36-.172.765-.062.39-.062.688 0 .374.062.813.079.437.204.812.125.36.296.61.188.234.422.234.25 0 .422-.235.188-.234.297-.593.11-.36.156-.782.047-.437.047-.812 0-.345-.062-.75a4.3 4.3 0 0 0-.188-.781 1.8 1.8 0 0 0-.297-.594q-.171-.234-.406-.235m13.594.609q0 .078-.016.172a1 1 0 0 1-.047.156 1.5 1.5 0 0 1-.437.61 1.1 1.1 0 0 1-.703.234q-.61 0-.828-.61a.5.5 0 0 1-.032-.172q0-.109-.015-.218V78.6a.9.9 0 0 0-.11-.344q-.078-.126-.265-.125-.265 0-.516.344a3.8 3.8 0 0 0-.422.796 7 7 0 0 0-.281.938 3.7 3.7 0 0 0-.109.781q0 .235.031.578.031.33.125.641.094.312.25.547.171.219.437.219a.8.8 0 0 0 .485-.157 4 4 0 0 0 .453-.39q.203-.187.437-.39a.87.87 0 0 1 .563-.204q.39 0 .609.281a.98.98 0 0 1 .235.64q0 .532-.282 1a3.2 3.2 0 0 1-.703.798q-.422.327-.937.515a2.7 2.7 0 0 1-.985.203q-.843 0-1.437-.421a3.3 3.3 0 0 1-.938-1.063 5 5 0 0 1-.515-1.422 7.3 7.3 0 0 1-.157-1.453q0-.796.219-1.719.219-.937.672-1.734a4.3 4.3 0 0 1 1.156-1.328q.72-.531 1.703-.531.61 0 1.047.265.453.266.735.703.297.423.437.953.156.532.156 1.047v.157a1 1 0 0 1-.015.156m3.844 6.453q-.798 0-1.391-.422a3.7 3.7 0 0 1-1-1.078 5.2 5.2 0 0 1-.609-1.453 6.5 6.5 0 0 1-.204-1.594q0-.828.204-1.703.202-.89.625-1.61.421-.734 1.078-1.187.656-.468 1.562-.469.875 0 1.485.485.624.468 1 1.187.375.704.531 1.547.156.844.109 1.594a8.6 8.6 0 0 1-.265 1.672 5.3 5.3 0 0 1-.61 1.515 3.5 3.5 0 0 1-1.031 1.094q-.625.422-1.484.422m.156-7.062q-.234 0-.422.25-.172.25-.297.609-.11.36-.172.765-.062.39-.062.688 0 .374.062.813.078.437.203.812.126.36.297.61.188.234.422.234.25 0 .422-.235.188-.234.297-.593.11-.36.156-.782.047-.437.047-.812 0-.345-.063-.75a4.3 4.3 0 0 0-.187-.781 1.8 1.8 0 0 0-.297-.594q-.172-.234-.406-.235m9.453.765q-.219.015-.375-.031l-.313-.125a3 3 0 0 0-.281-.11.6.6 0 0 0-.312-.046q-.313.015-.563.171a2.2 2.2 0 0 0-.437.391 2.7 2.7 0 0 0-.328.531 3 3 0 0 0-.219.563 4 4 0 0 0-.078.578 19 19 0 0 0-.016.813q-.015.453-.016.859 0 .406-.031.64a5 5 0 0 1-.078.594 2.6 2.6 0 0 1-.203.625 1.4 1.4 0 0 1-.344.5.8.8 0 0 1-.562.203.75.75 0 0 1-.469-.156 1.4 1.4 0 0 1-.328-.406 4 4 0 0 1-.219-.61 8 8 0 0 1-.125-.703q-.046-.375-.078-.75-.015-.375-.031-.703v-.625q.015-.28.015-.453-.015-.547-.062-1.094a20 20 0 0 1-.031-1.109q0-.344.031-.766.031-.42.172-.78a1.6 1.6 0 0 1 .406-.626q.281-.25.766-.25.266 0 .453.172.188.172.297.422.124.25.187.531t.078.516a3.8 3.8 0 0 1 .844-.985q.469-.39 1.219-.422.375-.015.734.079.375.078.672.28.312.19.5.5.203.314.219.735.031.5-.297.766a1.3 1.3 0 0 1-.797.281m8.484 1.188q0 .687-.156 1.515a5.3 5.3 0 0 1-.5 1.516q-.343.704-.922 1.172-.562.468-1.422.468a3.4 3.4 0 0 1-.453-.03 2.2 2.2 0 0 1-.453-.11 1.6 1.6 0 0 1-.375-.203.94.94 0 0 1-.266-.36l-.14 2.25q-.016.36-.031.86 0 .499-.125.953a1.74 1.74 0 0 1-.391.765q-.266.33-.781.329-.297 0-.5-.313a2.5 2.5 0 0 1-.328-.766 9 9 0 0 1-.172-1.046 14 14 0 0 1-.078-1.11 31 31 0 0 1-.016-.969v-.64q0-1.047-.016-2.078-.015-1.047-.015-2.094v-.578q0-.407.031-.875.031-.47.094-.969a5.3 5.3 0 0 1 .218-.906q.141-.422.36-.672a.67.67 0 0 1 .531-.266q.203 0 .359.125a.86.86 0 0 1 .282.297q.125.172.203.375t.125.375q.485-.546 1.109-.828.64-.28 1.36-.281.75 0 1.218.422.485.422.75 1.047.282.624.391 1.343.11.704.109 1.282m-2.234-.125q0-.235-.047-.47a1.3 1.3 0 0 0-.141-.452.76.76 0 0 0-.281-.344.76.76 0 0 0-.469-.14q-.375 0-.796.25a1.76 1.76 0 0 0-.61.546q-.078.126-.094.406-.015.282-.015.422v.297l.031.36.031.359q.031.172.078.266a.6.6 0 0 0 .204.265q.156.109.343.203t.375.141q.204.047.344.047a.65.65 0 0 0 .531-.25q.204-.25.313-.594.124-.344.156-.703.047-.375.047-.61m6.156 5.234q-.797 0-1.39-.422a3.7 3.7 0 0 1-1-1.078 5.2 5.2 0 0 1-.61-1.453 6.6 6.6 0 0 1-.203-1.594q0-.828.203-1.703.204-.89.625-1.61.422-.734 1.078-1.187.657-.468 1.563-.469.875 0 1.484.485.625.468 1 1.187.375.704.531 1.547.157.844.11 1.594a8.6 8.6 0 0 1-.266 1.672 5.3 5.3 0 0 1-.609 1.515 3.5 3.5 0 0 1-1.031 1.094q-.626.422-1.485.422m.156-7.062q-.234 0-.421.25-.173.25-.297.609-.11.36-.172.765-.063.39-.063.688 0 .374.063.813.078.437.203.812.124.36.297.61.187.234.422.234.25 0 .422-.235.188-.234.296-.593.11-.36.157-.782.047-.437.047-.812 0-.345-.063-.75a4.4 4.4 0 0 0-.187-.781 1.8 1.8 0 0 0-.297-.594q-.172-.234-.407-.235m14.641 2.14a8.5 8.5 0 0 1-.172 1.703 4.7 4.7 0 0 1-.578 1.516 3.14 3.14 0 0 1-1.094 1.062q-.672.407-1.687.407-1 0-1.672-.391a3.2 3.2 0 0 1-1.078-1.062 4.8 4.8 0 0 1-.563-1.485 9 9 0 0 1-.156-1.687q0-.937.219-1.86.046-.25.172-.687.14-.453.343-.875.22-.438.485-.75.28-.313.609-.313.313 0 .5.172t.297.438q.11.25.141.546.031.282.031.516 0 .36-.063.703-.046.345-.109.688l-.125.937a9.5 9.5 0 0 0-.031 1.469q.031.282.125.547t.265.453q.173.172.485.172.406 0 .64-.219.25-.219.36-.547a2.6 2.6 0 0 0 .156-.703q.031-.376.031-.687 0-.688-.093-1.344-.094-.672-.172-1.36a1.5 1.5 0 0 1 .062-.687q.078-.234.219-.422.14-.187.344-.297a.85.85 0 0 1 .453-.125q.344 0 .609.25.266.235.438.625.187.375.297.86.124.469.187.937.078.453.094.86.031.405.031.64m10.438-.687v.812q0 .5-.032 1.094-.015.594-.093 1.203a5.3 5.3 0 0 1-.25 1.078q-.157.485-.407.797a.78.78 0 0 1-.64.313.6.6 0 0 1-.532-.282 2.3 2.3 0 0 1-.25-.687 5 5 0 0 1-.093-.797v-.64q0-.704.047-1.376.046-.672.046-1.375v-.281q0-.202-.031-.406a1.2 1.2 0 0 0-.109-.36q-.063-.156-.203-.156-.282 0-.453.297a2.7 2.7 0 0 0-.282.672q-.11.39-.156.781-.047.375-.062.563a9 9 0 0 0-.063.609q-.015.406-.062.89a9 9 0 0 1-.125 1q-.078.5-.219.922-.125.407-.328.672t-.5.266a.64.64 0 0 1-.578-.328 2.4 2.4 0 0 1-.297-.766 6 6 0 0 1-.125-.89 20 20 0 0 1-.016-.704v-.515q.016-.25.016-.516v-.36a10 10 0 0 0-.016-.546q0-.312-.031-.64a5 5 0 0 0-.063-.594 1.5 1.5 0 0 0-.14-.454q-.094-.171-.219-.171-.202 0-.375.265-.172.25-.297.61-.125.343-.203.687-.063.345-.063.5v.094q0 .75.094 1.469.094.718.094 1.468 0 .438-.281.813-.281.36-.782.36a.76.76 0 0 1-.593-.266 2.3 2.3 0 0 1-.391-.72 6 6 0 0 1-.25-.952 13 13 0 0 1-.109-1.032 39 39 0 0 1-.047-.921V80.6q0-.235-.016-.688 0-.453.016-.984.031-.532.094-1.078.062-.563.203-1.016a2.3 2.3 0 0 1 .359-.734.73.73 0 0 1 .594-.297q.406 0 .656.218.266.219.266.657 0 .094-.016.187 0 .094-.016.172.173-.25.422-.5.25-.265.532-.469.297-.218.625-.343.327-.141.656-.141.313 0 .562.172t.438.437q.188.251.312.547.126.297.172.563.156-.281.375-.563.234-.297.5-.515t.578-.36q.328-.14.672-.14.328 0 .563.234t.406.61q.172.359.266.828.093.453.156.906.063.436.078.828.016.375.016.594m11.953.5q0 .687-.157 1.515a5.3 5.3 0 0 1-.5 1.516q-.344.704-.921 1.172-.562.468-1.422.468-.219 0-.453-.03a2.2 2.2 0 0 1-.454-.11 1.6 1.6 0 0 1-.375-.203.9.9 0 0 1-.265-.36l-.141 2.25q-.016.36-.031.86 0 .499-.125.953a1.7 1.7 0 0 1-.391.765q-.265.33-.781.329-.297 0-.5-.313a2.5 2.5 0 0 1-.328-.766 9 9 0 0 1-.172-1.046 14 14 0 0 1-.078-1.11 35 35 0 0 1-.016-.969v-.64q0-1.047-.015-2.078a133 133 0 0 1-.016-2.094v-.578q0-.407.031-.875.031-.47.094-.969.078-.5.219-.906.14-.422.359-.672a.67.67 0 0 1 .531-.266.56.56 0 0 1 .36.125.86.86 0 0 1 .281.297q.125.172.203.375t.125.375q.484-.546 1.11-.828.64-.28 1.359-.281.75 0 1.219.422.485.422.75 1.047.28.624.39 1.343.11.704.11 1.282m-2.235-.125a2.3 2.3 0 0 0-.047-.47 1.3 1.3 0 0 0-.14-.452.77.77 0 0 0-.281-.344.76.76 0 0 0-.469-.14q-.375 0-.797.25a1.74 1.74 0 0 0-.609.546q-.078.126-.094.406a8 8 0 0 0-.016.422v.297q.016.172.031.36l.032.359q.031.172.078.266a.6.6 0 0 0 .203.265q.156.109.344.203t.375.141q.203.047.343.047a.65.65 0 0 0 .532-.25 1.8 1.8 0 0 0 .312-.594q.126-.344.156-.703.048-.375.047-.61m6.157 5.234q-.798 0-1.391-.422a3.7 3.7 0 0 1-1-1.078 5.2 5.2 0 0 1-.609-1.453 6.5 6.5 0 0 1-.204-1.594q0-.828.204-1.703.202-.89.625-1.61.421-.734 1.078-1.187.656-.468 1.562-.469.875 0 1.485.485.624.468 1 1.187.375.704.531 1.547.156.844.109 1.594a8.6 8.6 0 0 1-.265 1.672 5.3 5.3 0 0 1-.61 1.515 3.5 3.5 0 0 1-1.031 1.094q-.625.422-1.484.422m.156-7.062q-.234 0-.422.25-.172.25-.297.609-.11.36-.172.765-.062.39-.062.688 0 .374.062.813.078.437.203.812.126.36.297.61.188.234.422.234.25 0 .422-.235.188-.234.297-.593.11-.36.156-.782.047-.437.047-.812 0-.345-.063-.75a4.3 4.3 0 0 0-.187-.781 1.8 1.8 0 0 0-.297-.594q-.172-.234-.406-.235m10.875 2.14a8.5 8.5 0 0 1-.172 1.703 4.7 4.7 0 0 1-.578 1.516 3.15 3.15 0 0 1-1.094 1.062q-.672.407-1.687.407-1 0-1.672-.391a3.2 3.2 0 0 1-1.078-1.062 4.8 4.8 0 0 1-.563-1.485 9 9 0 0 1-.156-1.687q0-.937.219-1.86.047-.25.171-.687.141-.453.344-.875.22-.438.485-.75.28-.313.609-.313.312 0 .5.172t.297.438q.11.25.14.546.032.282.032.516 0 .36-.063.703-.046.345-.109.688l-.125.937a9.5 9.5 0 0 0-.031 1.469q.03.282.125.547.094.266.265.453.172.172.485.172.405 0 .64-.219.25-.219.36-.547a2.6 2.6 0 0 0 .156-.703q.031-.376.031-.687 0-.688-.094-1.344a61 61 0 0 1-.172-1.36 1.5 1.5 0 0 1 .063-.687q.078-.234.219-.422.14-.187.343-.297a.85.85 0 0 1 .454-.125q.344 0 .609.25.266.235.437.625.188.375.297.86.125.469.188.937.078.453.094.86.03.405.031.64m8.219-2.797-.25 2.266q-.126 1.125-.172 2.25a34 34 0 0 0-.063 2.453q.016 1.156.016 2.453 0 .313-.016.766 0 .453-.109.875-.11.421-.36.718-.234.297-.718.297a.62.62 0 0 1-.407-.14 1.4 1.4 0 0 1-.281-.375 3 3 0 0 1-.187-.5 10 10 0 0 1-.11-.578 12 12 0 0 1-.093-1.22V83.91q-.36.469-.938.719-.563.234-1.125.234-.703 0-1.219-.328a3 3 0 0 1-.828-.86 4 4 0 0 1-.484-1.156 5 5 0 0 1-.156-1.218v-.094a6.8 6.8 0 0 1 .25-1.75 6.8 6.8 0 0 1 .734-1.766q.5-.812 1.234-1.343.75-.547 1.735-.547.531 0 .968.218.454.219.641.72.124-.36.375-.579a.98.98 0 0 1 .672-.234q.516 0 .719.343.219.33.218.735 0 .172-.015.312-.016.141-.031.297m-3.594.375q-.36 0-.672.297a2.7 2.7 0 0 0-.547.703q-.234.407-.375.875a3.3 3.3 0 0 0-.125.828q0 .219.031.47.048.249.125.483.094.219.235.375a.56.56 0 0 0 .39.141q.204 0 .469-.094.282-.11.547-.265.265-.172.469-.375a1.3 1.3 0 0 0 .281-.39q.047-.11.078-.329a6 6 0 0 0 .047-.453q.031-.25.047-.485.015-.234.015-.359a1.2 1.2 0 0 0-.093-.422 2 2 0 0 0-.219-.469 1.3 1.3 0 0 0-.328-.375.6.6 0 0 0-.375-.156m11.187 2.422a8.5 8.5 0 0 1-.172 1.703 4.7 4.7 0 0 1-.578 1.516q-.406.655-1.093 1.062-.672.407-1.688.407-1 0-1.672-.391a3.2 3.2 0 0 1-1.078-1.062 4.8 4.8 0 0 1-.562-1.485 9 9 0 0 1-.157-1.687q0-.937.219-1.86.047-.25.172-.687.14-.453.344-.875.219-.438.484-.75.282-.313.609-.313.313 0 .5.172.188.172.297.438.11.25.141.546.031.282.031.516 0 .36-.062.703-.048.345-.11.688l-.125.937a9.5 9.5 0 0 0-.031 1.469q.032.282.125.547.094.266.266.453.172.172.484.172.406 0 .641-.219.25-.219.359-.547.125-.328.156-.703.032-.376.032-.687 0-.688-.094-1.344-.094-.672-.172-1.36a1.5 1.5 0 0 1 .062-.687q.079-.234.219-.422t.344-.297a.85.85 0 0 1 .453-.125q.344 0 .609.25.266.235.438.625.188.375.297.86.125.469.187.937.078.453.094.86.031.405.031.64m3.532-6.437a.65.65 0 0 1-.125.39 1.2 1.2 0 0 1-.297.313 2 2 0 0 1-.407.203 1.5 1.5 0 0 1-.406.062.97.97 0 0 1-.547-.156q-.234-.157-.234-.484a.74.74 0 0 1 .109-.407q.126-.188.297-.296a1.2 1.2 0 0 1 .391-.188q.218-.062.422-.062.297 0 .547.14t.25.485m.125 5.312v.469q0 .234-.016.453-.015.266-.016.719 0 .438-.031.953t-.109 1.047a4.4 4.4 0 0 1-.219.968 2 2 0 0 1-.422.72.9.9 0 0 1-.641.28.58.58 0 0 1-.5-.234 2.2 2.2 0 0 1-.343-.64 5.3 5.3 0 0 1-.188-.891 18 18 0 0 1-.094-.953q-.03-.47-.031-.86v-1.281q0-.469.031-1 .032-.53.11-1.078.094-.547.25-1 .171-.453.437-.734a.88.88 0 0 1 .672-.282q.422 0 .641.422t.328.985q.11.563.125 1.125.016.546.016.812m5.546 6.031q-.265 0-.421-.25a1.7 1.7 0 0 1-.235-.547 4.4 4.4 0 0 1-.109-.625 11 11 0 0 1-.016-.5q0-.468.047-.937l.125-.937q.078-.47.125-.938a7 7 0 0 0 .063-.937 6 6 0 0 0-.016-.407 1.6 1.6 0 0 0-.078-.406.66.66 0 0 0-.172-.328.44.44 0 0 0-.328-.125q-.14 0-.313.234a3.4 3.4 0 0 0-.328.516q-.14.28-.25.578a1.5 1.5 0 0 0-.094.422v.703q.016.345.016.703v.906q-.015.281-.047.578a5 5 0 0 1-.094.579q-.047.281-.14.546a1.8 1.8 0 0 1-.25.454 1.2 1.2 0 0 1-.344.312.9.9 0 0 1-.484.125.7.7 0 0 1-.516-.203 1.5 1.5 0 0 1-.328-.516 3.7 3.7 0 0 1-.188-.718q-.046-.407-.078-.782-.015-.39-.015-.703.015-.328.015-.515v-.735q0-.594-.031-1.172-.015-.577-.016-1.156v-.797q.017-.484.125-.937.11-.469.36-.797t.734-.328q.219 0 .391.14.171.141.297.344.14.203.218.438.095.234.141.406.156-.22.359-.422.22-.203.485-.36a2.54 2.54 0 0 1 1.344-.343q.796 0 1.234.39.453.375.656.954.22.562.266 1.218.047.657.047 1.188 0 .265-.047.797-.047.515-.156 1.156-.094.625-.266 1.297a9 9 0 0 1-.406 1.203 3 3 0 0 1-.563.89q-.312.345-.719.344m10.125-4.484q0 .266-.015.797 0 .516-.047 1.094-.031.562-.094 1.078-.062.5-.156.734-.125.297-.328.516a.71.71 0 0 1-.547.218q-.53 0-.766-.421-.234-.422-.312-1.047a9.5 9.5 0 0 1-.063-1.36q.017-.734-.015-1.359a4 4 0 0 0-.172-1.047q-.141-.422-.516-.422-.516 0-.797.172a.95.95 0 0 0-.39.422q-.11.265-.141.61-.015.343-.047.718-.031.36-.047.969-.015.609-.14 1.203t-.422 1.031q-.282.422-.844.422a.7.7 0 0 1-.562-.266 2.1 2.1 0 0 1-.329-.687 6 6 0 0 1-.187-.937 18 18 0 0 1-.063-1v-.907q.016-.406.016-.61 0-.311.016-1.03.031-.719.109-1.594.078-.89.203-1.828a14 14 0 0 1 .328-1.703q.203-.782.485-1.266.297-.485.687-.469.25.016.422.219.188.203.297.531.125.313.203.688t.109.75q.048.36.047.672.016.313.016.484a20 20 0 0 1-.063 1.625q.36-.485.954-.797a2.65 2.65 0 0 1 1.218-.312q.782 0 1.172.437.407.422.578 1.063.172.624.188 1.343.015.704.015 1.266m4.079 4.5q-.798 0-1.391-.422a3.7 3.7 0 0 1-1-1.078 5.2 5.2 0 0 1-.609-1.453 6.5 6.5 0 0 1-.204-1.594q0-.828.204-1.703.202-.89.625-1.61.421-.734 1.078-1.187.656-.468 1.562-.469.875 0 1.485.485.624.468 1 1.187.375.704.531 1.547.156.844.109 1.594a8.6 8.6 0 0 1-.265 1.672 5.3 5.3 0 0 1-.61 1.515 3.5 3.5 0 0 1-1.031 1.094q-.625.422-1.484.422m.156-7.062q-.234 0-.422.25-.172.25-.297.609-.11.36-.172.765-.062.39-.062.688 0 .374.062.813.078.437.203.812.126.36.297.61.188.234.422.234.25 0 .422-.235.188-.234.297-.593.11-.36.156-.782.047-.437.047-.812 0-.345-.063-.75a4.3 4.3 0 0 0-.187-.781 1.8 1.8 0 0 0-.297-.594q-.172-.234-.406-.235m6.297 5.859q0 .203-.094.375a.9.9 0 0 1-.25.265q-.14.11-.328.172a1 1 0 0 1-.36.063q-.234 0-.515-.094a1.8 1.8 0 0 1-.5-.234 1.8 1.8 0 0 1-.375-.36.8.8 0 0 1-.156-.484.67.67 0 0 1 .359-.625q.36-.219.734-.219.235 0 .485.078.265.078.484.235.234.14.375.36a.8.8 0 0 1 .141.468"/><defs><filter id="a" width="286.668" height="168" x="0" y="0" color-interpolation-filters="sRGB" filterUnits="userSpaceOnUse"><feFlood flood-opacity="0" result="BackgroundImageFix"/><feBlend in="SourceGraphic" in2="BackgroundImageFix" result="shape"/><feColorMatrix in="SourceAlpha" result="hardAlpha" values="0 0 0 0 0 0 0 0 0 0 0 0 0 0 0 0 0 0 127 0"/><feOffset dy="4"/><feGaussianBlur stdDeviation="2"/><feComposite in2="hardAlpha" k2="-1" k3="1" operator="arithmetic"/><feColorMatrix values="0 0 0 0 0 0 0 0 0 0 0 0 0 0 0 0 0 0 0.25 0"/><feBlend in2="shape" result="effect1_innerShadow_1137_1678"/></filter></defs></svg>