<svg width="229" height="148" viewBox="0 0 229 148" fill="none" xmlns="http://www.w3.org/2000/svg">
<g filter="url(#filter0_i_871_289)">
<path fill-rule="evenodd" clip-rule="evenodd" d="M57.5411 112.259C38.3685 105.883 30 96.4743 30 86.2905C30 73.7603 46.8789 61.3819 74.8012 55.2615C88.3445 52.2929 104.257 51 122.539 51C178.515 51 230.135 63.7845 227.932 86.2905C227.932 97.4577 218.378 107.727 198.921 113.857C188.312 117.2 174.89 119.174 158.097 119.781C151.491 131.464 141.824 137.479 125.963 147C137.595 135.904 144.721 128.749 147.3 119.982C147.004 119.983 146.707 119.983 146.409 119.983C106.734 121.981 76.7282 118.639 57.5411 112.259Z" fill="#3DC3FF"/>
</g>
<path d="M57.5411 112.259L57.2255 113.208L57.2255 113.208L57.5411 112.259ZM74.8012 55.2615L74.5871 54.2847L74.5871 54.2847L74.8012 55.2615ZM227.932 86.2905L226.937 86.1931C226.934 86.2255 226.932 86.258 226.932 86.2905H227.932ZM198.921 113.857L199.221 114.811L199.221 114.811L198.921 113.857ZM158.097 119.781L158.061 118.781C157.714 118.794 157.398 118.986 157.226 119.289L158.097 119.781ZM125.963 147L125.273 146.276C124.904 146.628 124.859 147.201 125.168 147.606C125.477 148.011 126.041 148.12 126.478 147.857L125.963 147ZM147.3 119.982L148.259 120.264C148.348 119.961 148.289 119.634 148.1 119.382C147.91 119.129 147.613 118.981 147.297 118.982L147.3 119.982ZM146.409 119.983V118.983C146.392 118.983 146.376 118.983 146.359 118.984L146.409 119.983ZM29 86.2905C29 97.1478 37.9356 106.793 57.2255 113.208L57.8566 111.31C38.8015 104.974 31 95.8008 31 86.2905H29ZM74.5871 54.2847C60.5418 57.3634 49.2056 62.0291 41.3542 67.5545C33.5283 73.062 29 79.5517 29 86.2905H31C31 80.4991 34.9111 74.5345 42.5052 69.1901C50.0739 63.8637 61.1382 59.2801 75.0153 56.2383L74.5871 54.2847ZM122.539 50C104.215 50 88.2253 51.2953 74.5871 54.2847L75.0153 56.2383C88.4636 53.2906 104.298 52 122.539 52V50ZM228.927 86.388C229.522 80.3084 226.452 74.9912 220.894 70.5036C215.347 66.0255 207.214 62.2711 197.345 59.2493C177.592 53.2012 150.587 50 122.539 50V52C150.467 52 177.26 55.191 196.76 61.1617C206.517 64.1493 214.375 67.8109 219.637 72.0597C224.888 76.299 227.443 81.0196 226.937 86.1931L228.927 86.388ZM199.221 114.811C218.812 108.638 228.932 98.1316 228.932 86.2905H226.932C226.932 96.7838 217.944 106.815 198.62 112.903L199.221 114.811ZM158.133 120.78C174.977 120.171 188.496 118.19 199.221 114.811L198.62 112.903C188.127 116.209 174.802 118.176 158.061 118.781L158.133 120.78ZM157.226 119.289C150.771 130.706 141.346 136.6 125.449 146.143L126.478 147.857C142.302 138.359 152.212 132.222 158.967 120.273L157.226 119.289ZM126.653 147.723C138.225 136.684 145.59 129.34 148.259 120.264L146.34 119.7C143.853 128.158 136.964 135.123 125.273 146.276L126.653 147.723ZM146.409 120.983C146.708 120.983 147.005 120.983 147.302 120.982L147.297 118.982C147.002 118.983 146.706 118.983 146.409 118.983V120.983ZM57.2255 113.208C76.579 119.643 106.725 122.983 146.459 120.982L146.359 118.984C106.744 120.98 76.8774 117.635 57.8566 111.31L57.2255 113.208Z" fill="#3DC3FF"/>
<path d="M48.9375 86.8535C48.9375 87.0267 48.8919 87.1953 48.8008 87.3594C48.7096 87.5143 48.4954 87.6966 48.1582 87.9062C47.821 88.1159 47.4473 88.3164 47.0371 88.5078C46.627 88.6901 46.2305 88.8496 45.8477 88.9863C45.4648 89.1139 45.1823 89.1777 45 89.1777C44.8724 89.1777 44.722 89.1458 44.5488 89.082C44.3757 89.0273 44.2025 88.9544 44.0293 88.8633C43.8561 88.7721 43.6966 88.6673 43.5508 88.5488C43.4141 88.4303 43.3138 88.3164 43.25 88.207C43.2135 88.1432 43.1771 88.0156 43.1406 87.8242C43.1133 87.6328 43.0859 87.4095 43.0586 87.1543C43.0404 86.8991 43.0221 86.6302 43.0039 86.3477C42.9857 86.056 42.9674 85.7826 42.9492 85.5273C42.9401 85.263 42.931 85.0306 42.9219 84.8301C42.9219 84.6296 42.9219 84.4837 42.9219 84.3926C42.9219 84.0553 42.931 83.668 42.9492 83.2305C42.9766 82.793 43.0221 82.3555 43.0859 81.918C43.1497 81.4714 43.2409 81.0475 43.3594 80.6465C43.487 80.2363 43.6556 79.89 43.8652 79.6074C43.929 79.5254 44.0566 79.4388 44.248 79.3477C44.4395 79.2565 44.6628 79.1699 44.918 79.0879C45.1823 79.0059 45.4648 78.9284 45.7656 78.8555C46.0664 78.7826 46.3535 78.7233 46.627 78.6777C46.9095 78.623 47.1647 78.582 47.3926 78.5547C47.6204 78.5182 47.7936 78.5 47.9121 78.5C48.0488 78.5 48.1764 78.5319 48.2949 78.5957C48.4225 78.6504 48.5273 78.7279 48.6094 78.8281C48.7005 78.9284 48.7689 79.0423 48.8145 79.1699C48.8691 79.2884 48.8965 79.416 48.8965 79.5527C48.8965 79.6712 48.8783 79.7715 48.8418 79.8535C48.8145 79.9355 48.7689 80.0267 48.7051 80.127C48.6139 80.2454 48.4225 80.3867 48.1309 80.5508C47.8392 80.7148 47.5202 80.8789 47.1738 81.043C46.8366 81.1979 46.5085 81.3392 46.1895 81.4668C45.8796 81.5944 45.6608 81.6855 45.5332 81.7402C45.4967 81.9499 45.4557 82.1641 45.4102 82.3828C45.3737 82.5924 45.3464 82.8066 45.3281 83.0254C45.6107 82.8796 45.9297 82.7428 46.2852 82.6152C46.6406 82.4876 46.9779 82.4238 47.2969 82.4238C47.944 82.4238 48.2676 82.7428 48.2676 83.3809C48.2676 83.5358 48.2357 83.6725 48.1719 83.791C48.1172 83.9095 48.0397 84.0143 47.9395 84.1055C47.8483 84.1966 47.7389 84.2786 47.6113 84.3516C47.4928 84.4154 47.3743 84.4792 47.2559 84.543C46.9642 84.6979 46.6589 84.8346 46.3398 84.9531C46.0208 85.0625 45.7018 85.1719 45.3828 85.2812C45.3646 85.3542 45.3464 85.4362 45.3281 85.5273C45.3099 85.6094 45.3008 85.6914 45.3008 85.7734C45.3008 85.901 45.3099 86.0286 45.3281 86.1562C45.3464 86.2839 45.3646 86.4115 45.3828 86.5391C45.4922 86.5026 45.6654 86.4434 45.9023 86.3613C46.1484 86.2793 46.4036 86.1973 46.668 86.1152C46.9323 86.0332 47.1875 85.9648 47.4336 85.9102C47.6797 85.8464 47.862 85.8145 47.9805 85.8145C48.1172 85.8145 48.2448 85.8464 48.3633 85.9102C48.4818 85.9648 48.582 86.0423 48.6641 86.1426C48.7461 86.2337 48.8099 86.3431 48.8555 86.4707C48.9102 86.5983 48.9375 86.7259 48.9375 86.8535ZM59.1094 84.9258C59.1094 85.3268 59.0638 85.7689 58.9727 86.252C58.8906 86.7259 58.7448 87.168 58.5352 87.5781C58.3346 87.9883 58.0658 88.3301 57.7285 88.6035C57.4004 88.877 56.9857 89.0137 56.4844 89.0137C56.3568 89.0137 56.2246 89.0046 56.0879 88.9863C55.9512 88.9681 55.819 88.9362 55.6914 88.8906C55.5729 88.8451 55.4635 88.7858 55.3633 88.7129C55.263 88.6309 55.1855 88.526 55.1309 88.3984L55.0078 90.3672C54.9987 90.5768 54.9896 90.8275 54.9805 91.1191C54.9805 91.4108 54.944 91.6888 54.8711 91.9531C54.8073 92.2174 54.6934 92.4408 54.5293 92.623C54.3743 92.8145 54.1465 92.9102 53.8457 92.9102C53.6725 92.9102 53.5267 92.819 53.4082 92.6367C53.2897 92.4635 53.194 92.2402 53.1211 91.9668C53.0573 91.6934 53.0072 91.388 52.9707 91.0508C52.9342 90.7135 52.9115 90.39 52.9023 90.0801C52.8932 89.7702 52.8887 89.4876 52.8887 89.2324C52.8887 88.9772 52.8887 88.7904 52.8887 88.6719C52.8887 88.0612 52.8841 87.4551 52.875 86.8535C52.8659 86.2428 52.8613 85.6322 52.8613 85.0215C52.8613 84.9121 52.8613 84.7435 52.8613 84.5156C52.8613 84.2786 52.8704 84.0234 52.8887 83.75C52.9069 83.4766 52.9342 83.194 52.9707 82.9023C53.0163 82.6107 53.0801 82.3464 53.1621 82.1094C53.2441 81.8633 53.349 81.6673 53.4766 81.5215C53.6042 81.3665 53.7591 81.2891 53.9414 81.2891C54.0599 81.2891 54.1647 81.3255 54.2559 81.3984C54.3561 81.4622 54.4382 81.5488 54.502 81.6582C54.5749 81.7585 54.6341 81.8678 54.6797 81.9863C54.7253 82.1048 54.7617 82.2142 54.7891 82.3145C55.0716 81.9954 55.3952 81.7539 55.7598 81.5898C56.1335 81.4258 56.5299 81.3438 56.9492 81.3438C57.3867 81.3438 57.7422 81.4668 58.0156 81.7129C58.2982 81.959 58.5169 82.2643 58.6719 82.6289C58.8359 82.9935 58.9499 83.3854 59.0137 83.8047C59.0775 84.2148 59.1094 84.5885 59.1094 84.9258ZM57.1543 84.8164C57.1543 84.6797 57.1406 84.543 57.1133 84.4062C57.0951 84.2604 57.054 84.1283 56.9902 84.0098C56.9355 83.8822 56.8535 83.7819 56.7441 83.709C56.6348 83.627 56.498 83.5859 56.334 83.5859C56.1152 83.5859 55.8828 83.6589 55.6367 83.8047C55.3997 83.9414 55.222 84.1009 55.1035 84.2832C55.0579 84.3561 55.0306 84.4746 55.0215 84.6387C55.0124 84.8027 55.0078 84.9258 55.0078 85.0078C55.0078 85.0716 55.0078 85.1582 55.0078 85.2676C55.0169 85.3678 55.026 85.4727 55.0352 85.582C55.0443 85.6914 55.0534 85.7962 55.0625 85.8965C55.0807 85.9967 55.1035 86.0742 55.1309 86.1289C55.1582 86.2109 55.2174 86.2884 55.3086 86.3613C55.3997 86.4251 55.5 86.4844 55.6094 86.5391C55.7188 86.5938 55.8281 86.6348 55.9375 86.6621C56.056 86.6895 56.1562 86.7031 56.2383 86.7031C56.4297 86.7031 56.5846 86.6302 56.7031 86.4844C56.8216 86.3385 56.9128 86.1654 56.9766 85.9648C57.0495 85.7643 57.0951 85.5592 57.1133 85.3496C57.1406 85.1309 57.1543 84.9531 57.1543 84.8164ZM62.541 89.3965C62.0762 89.3965 61.6706 89.2734 61.3242 89.0273C60.9779 88.7812 60.6862 88.4668 60.4492 88.084C60.2122 87.7012 60.0345 87.2773 59.916 86.8125C59.7975 86.3385 59.7383 85.8737 59.7383 85.418C59.7383 84.9349 59.7975 84.4382 59.916 83.9277C60.0345 83.4082 60.2168 82.9388 60.4629 82.5195C60.709 82.0911 61.0234 81.7448 61.4062 81.4805C61.7891 81.207 62.2448 81.0703 62.7734 81.0703C63.2839 81.0703 63.7168 81.2116 64.0723 81.4941C64.4368 81.7676 64.7285 82.1139 64.9473 82.5332C65.166 82.9434 65.321 83.3945 65.4121 83.8867C65.5033 84.3789 65.5352 84.8438 65.5078 85.2812C65.4805 85.7643 65.403 86.252 65.2754 86.7441C65.1569 87.2363 64.9792 87.6784 64.7422 88.0703C64.5052 88.4622 64.2044 88.7812 63.8398 89.0273C63.4753 89.2734 63.0423 89.3965 62.541 89.3965ZM62.6777 83.2168C62.541 83.2168 62.418 83.2897 62.3086 83.4355C62.2083 83.5814 62.1217 83.7591 62.0488 83.9688C61.985 84.1784 61.9349 84.4017 61.8984 84.6387C61.862 84.8665 61.8438 85.0671 61.8438 85.2402C61.8438 85.459 61.862 85.696 61.8984 85.9512C61.944 86.2064 62.0033 86.4434 62.0762 86.6621C62.1491 86.8717 62.2357 87.0495 62.3359 87.1953C62.4453 87.332 62.5684 87.4004 62.7051 87.4004C62.8509 87.4004 62.974 87.332 63.0742 87.1953C63.1836 87.0586 63.2702 86.8854 63.334 86.6758C63.3978 86.4661 63.4434 86.2383 63.4707 85.9922C63.498 85.737 63.5117 85.5 63.5117 85.2812C63.5117 85.0807 63.4935 84.862 63.457 84.625C63.4206 84.3789 63.3659 84.151 63.293 83.9414C63.2292 83.7318 63.1426 83.5586 63.0332 83.4219C62.9329 83.2852 62.8145 83.2168 62.6777 83.2168ZM70.9492 83.8867C70.8216 83.8958 70.7122 83.8867 70.6211 83.8594C70.5299 83.8229 70.4388 83.7865 70.3477 83.75C70.2656 83.7135 70.1836 83.6816 70.1016 83.6543C70.0195 83.6178 69.9284 83.6042 69.8281 83.6133C69.6458 83.6224 69.4818 83.6725 69.3359 83.7637C69.1992 83.8548 69.0716 83.9688 68.9531 84.1055C68.8438 84.2422 68.748 84.3971 68.666 84.5703C68.584 84.7344 68.5202 84.8984 68.4746 85.0625C68.4473 85.1719 68.4245 85.3405 68.4062 85.5684C68.3971 85.7871 68.3926 86.0241 68.3926 86.2793C68.3835 86.5436 68.3789 86.7943 68.3789 87.0312C68.3789 87.2682 68.3698 87.4551 68.3516 87.5918C68.3424 87.7376 68.3197 87.9108 68.2832 88.1113C68.2467 88.3027 68.1875 88.485 68.1055 88.6582C68.0326 88.8314 67.9323 88.9772 67.8047 89.0957C67.6771 89.2142 67.513 89.2734 67.3125 89.2734C67.1576 89.2734 67.0208 89.2279 66.9023 89.1367C66.793 89.0456 66.6973 88.9271 66.6152 88.7812C66.5423 88.6263 66.4785 88.4486 66.4238 88.248C66.3783 88.0475 66.3418 87.8424 66.3145 87.6328C66.2871 87.4141 66.2643 87.1953 66.2461 86.9766C66.237 86.7578 66.2279 86.5527 66.2188 86.3613C66.2188 86.1608 66.2188 85.9785 66.2188 85.8145C66.2279 85.6504 66.2324 85.5182 66.2324 85.418C66.2233 85.099 66.2051 84.7799 66.1777 84.4609C66.1595 84.1328 66.1504 83.8092 66.1504 83.4902C66.1504 83.2897 66.1595 83.0664 66.1777 82.8203C66.196 82.5742 66.2461 82.3464 66.3281 82.1367C66.4102 81.918 66.5286 81.7357 66.6836 81.5898C66.8477 81.444 67.071 81.3711 67.3535 81.3711C67.5085 81.3711 67.6406 81.4212 67.75 81.5215C67.8594 81.6217 67.946 81.7448 68.0098 81.8906C68.0827 82.0365 68.1374 82.1914 68.1738 82.3555C68.2103 82.5195 68.2331 82.6699 68.2422 82.8066C68.4609 82.4512 68.707 82.1641 68.9805 81.9453C69.2539 81.7174 69.6094 81.5944 70.0469 81.5762C70.2656 81.5671 70.4798 81.5898 70.6895 81.6445C70.9082 81.6901 71.1042 81.7721 71.2773 81.8906C71.4596 82 71.6055 82.1458 71.7148 82.3281C71.8333 82.5104 71.8971 82.7246 71.9062 82.9707C71.9245 83.2624 71.8379 83.4857 71.6465 83.6406C71.4551 83.7956 71.2227 83.8776 70.9492 83.8867ZM81.7637 82.6426C81.6908 83.3079 81.6178 83.9688 81.5449 84.625C81.472 85.2812 81.4219 85.9375 81.3945 86.5938C81.349 87.3503 81.3307 88.0658 81.3398 88.7402C81.349 89.4147 81.3535 90.1302 81.3535 90.8867C81.3535 91.069 81.349 91.2923 81.3398 91.5566C81.3398 91.821 81.3079 92.0762 81.2441 92.3223C81.1803 92.5684 81.0755 92.778 80.9297 92.9512C80.793 93.1243 80.5833 93.2109 80.3008 93.2109C80.1641 93.2109 80.0456 93.1699 79.9453 93.0879C79.8542 93.0059 79.7721 92.8965 79.6992 92.7598C79.6354 92.6322 79.5807 92.4863 79.5352 92.3223C79.4987 92.1582 79.4668 91.9896 79.4395 91.8164C79.3939 91.4609 79.3665 91.1055 79.3574 90.75C79.3574 90.4036 79.3574 90.1484 79.3574 89.9844V88.918V88.1523C79.1478 88.4258 78.8743 88.6354 78.5371 88.7812C78.209 88.918 77.8809 88.9863 77.5527 88.9863C77.1426 88.9863 76.7871 88.8906 76.4863 88.6992C76.1947 88.4987 75.9531 88.248 75.7617 87.9473C75.5703 87.6374 75.429 87.3001 75.3379 86.9355C75.2467 86.571 75.2012 86.2155 75.2012 85.8691V85.7871C75.2012 85.3132 75.2741 84.8027 75.4199 84.2559C75.5658 83.6999 75.7799 83.1849 76.0625 82.7109C76.3542 82.237 76.7142 81.8451 77.1426 81.5352C77.5801 81.2161 78.0859 81.0566 78.6602 81.0566C78.9701 81.0566 79.2526 81.1204 79.5078 81.248C79.7721 81.3757 79.959 81.5853 80.0684 81.877C80.1413 81.6673 80.2507 81.4987 80.3965 81.3711C80.5514 81.2344 80.7474 81.166 80.9844 81.166C81.2852 81.166 81.4948 81.2663 81.6133 81.4668C81.7409 81.6582 81.8047 81.8724 81.8047 82.1094C81.8047 82.2096 81.8001 82.3008 81.791 82.3828C81.7819 82.4648 81.7728 82.5514 81.7637 82.6426ZM78.6191 82.9707C78.4095 82.9707 78.2135 83.0573 78.0312 83.2305C77.849 83.3945 77.6895 83.5996 77.5527 83.8457C77.416 84.0827 77.3066 84.3379 77.2246 84.6113C77.1517 84.8848 77.1152 85.1263 77.1152 85.3359C77.1152 85.4635 77.1243 85.6003 77.1426 85.7461C77.1699 85.8919 77.2064 86.0332 77.252 86.1699C77.3066 86.2975 77.375 86.4069 77.457 86.498C77.5482 86.5801 77.6621 86.6211 77.7988 86.6211C77.9173 86.6211 78.054 86.5938 78.209 86.5391C78.373 86.4753 78.5326 86.3978 78.6875 86.3066C78.8424 86.2064 78.9792 86.097 79.0977 85.9785C79.2161 85.86 79.2982 85.7461 79.3438 85.6367C79.3711 85.5729 79.3939 85.4772 79.4121 85.3496C79.4303 85.222 79.444 85.0898 79.4531 84.9531C79.4714 84.8073 79.485 84.666 79.4941 84.5293C79.5033 84.3926 79.5078 84.2878 79.5078 84.2148C79.5078 84.1055 79.4805 83.9824 79.4258 83.8457C79.3802 83.6999 79.3164 83.5632 79.2344 83.4355C79.1523 83.2988 79.0566 83.1895 78.9473 83.1074C78.8379 83.0163 78.7285 82.9707 78.6191 82.9707ZM88.4082 85.0898C88.4082 85.5911 88.3581 86.0879 88.2578 86.5801C88.1576 87.0723 87.9889 87.5143 87.752 87.9062C87.515 88.2891 87.196 88.599 86.7949 88.8359C86.403 89.0729 85.9108 89.1914 85.3184 89.1914C84.735 89.1914 84.2474 89.0775 83.8555 88.8496C83.4635 88.6126 83.1491 88.3027 82.9121 87.9199C82.6842 87.5371 82.5202 87.1042 82.4199 86.6211C82.3288 86.138 82.2832 85.6458 82.2832 85.1445C82.2832 84.5977 82.347 84.0553 82.4746 83.5176C82.502 83.3717 82.5521 83.1712 82.625 82.916C82.707 82.6517 82.8073 82.3965 82.9258 82.1504C83.0534 81.8952 83.1947 81.6764 83.3496 81.4941C83.5137 81.3118 83.6914 81.2207 83.8828 81.2207C84.0651 81.2207 84.2109 81.2708 84.3203 81.3711C84.4297 81.4714 84.5163 81.599 84.5801 81.7539C84.6439 81.8997 84.6849 82.0592 84.7031 82.2324C84.7214 82.3965 84.7305 82.5469 84.7305 82.6836C84.7305 82.8932 84.7122 83.0983 84.6758 83.2988C84.6484 83.4993 84.6165 83.6999 84.5801 83.9004C84.5436 84.1738 84.5072 84.4473 84.4707 84.7207C84.4434 84.9941 84.4297 85.2676 84.4297 85.541C84.4297 85.6777 84.4342 85.8327 84.4434 86.0059C84.4616 86.1699 84.498 86.3294 84.5527 86.4844C84.6074 86.6393 84.6849 86.7715 84.7852 86.8809C84.8854 86.9811 85.0267 87.0312 85.209 87.0312C85.446 87.0312 85.6328 86.9674 85.7695 86.8398C85.9154 86.7122 86.0202 86.5527 86.084 86.3613C86.1569 86.1699 86.2025 85.9648 86.2207 85.7461C86.2389 85.5273 86.248 85.3268 86.248 85.1445C86.248 84.7435 86.2207 84.3516 86.166 83.9688C86.1113 83.5768 86.0612 83.1803 86.0156 82.7793C86.0065 82.7337 86.002 82.6699 86.002 82.5879C86.002 82.4512 86.0247 82.3145 86.0703 82.1777C86.1159 82.041 86.1797 81.918 86.2617 81.8086C86.3438 81.6992 86.444 81.6126 86.5625 81.5488C86.681 81.4759 86.8132 81.4395 86.959 81.4395C87.1595 81.4395 87.3372 81.5124 87.4922 81.6582C87.6471 81.7949 87.7747 81.9772 87.875 82.2051C87.9844 82.4238 88.071 82.6745 88.1348 82.957C88.2077 83.2305 88.2624 83.5039 88.2988 83.7773C88.3444 84.0417 88.3717 84.2923 88.3809 84.5293C88.3991 84.7663 88.4082 84.9531 88.4082 85.0898ZM94.9707 86.5664C94.9707 86.8763 94.8704 87.1816 94.6699 87.4824C94.4785 87.7741 94.2324 88.0384 93.9316 88.2754C93.64 88.5033 93.3255 88.6901 92.9883 88.8359C92.651 88.9727 92.3411 89.041 92.0586 89.041C91.5755 89.041 91.1426 88.9225 90.7598 88.6855C90.3861 88.4395 90.0716 88.1296 89.8164 87.7559C89.5612 87.3822 89.3652 86.972 89.2285 86.5254C89.1009 86.0697 89.0371 85.6276 89.0371 85.1992C89.0371 84.7435 89.1009 84.2559 89.2285 83.7363C89.3561 83.2168 89.5475 82.7383 89.8027 82.3008C90.0671 81.8633 90.3952 81.4987 90.7871 81.207C91.1882 80.9154 91.6621 80.7695 92.209 80.7695C92.5189 80.7695 92.8151 80.8242 93.0977 80.9336C93.3802 81.0339 93.6263 81.1797 93.8359 81.3711C94.0456 81.5625 94.2142 81.7904 94.3418 82.0547C94.4694 82.319 94.5332 82.6152 94.5332 82.9434C94.5332 83.3717 94.4421 83.7728 94.2598 84.1465C94.0775 84.5202 93.8359 84.8438 93.5352 85.1172C93.2344 85.3906 92.888 85.6139 92.4961 85.7871C92.1042 85.9512 91.7031 86.0423 91.293 86.0605C91.3294 86.3249 91.4342 86.5163 91.6074 86.6348C91.7897 86.7533 92.0039 86.8125 92.25 86.8125C92.4323 86.8125 92.61 86.7669 92.7832 86.6758C92.9564 86.5846 93.125 86.4844 93.2891 86.375C93.4531 86.2565 93.6126 86.1517 93.7676 86.0605C93.9316 85.9694 94.0957 85.9238 94.2598 85.9238C94.4421 85.9238 94.6061 85.9831 94.752 86.1016C94.8978 86.2201 94.9707 86.375 94.9707 86.5664ZM92.7559 83.2168C92.7559 83.0983 92.724 82.9753 92.6602 82.8477C92.5964 82.7201 92.4961 82.6562 92.3594 82.6562C92.1589 82.6562 91.9902 82.7109 91.8535 82.8203C91.7168 82.9206 91.6029 83.0527 91.5117 83.2168C91.4206 83.3717 91.3477 83.5404 91.293 83.7227C91.2474 83.9049 91.2201 84.0736 91.2109 84.2285C91.3385 84.2012 91.4889 84.1647 91.6621 84.1191C91.8444 84.0736 92.013 84.0143 92.168 83.9414C92.332 83.8594 92.4688 83.7591 92.5781 83.6406C92.6966 83.5221 92.7559 83.3809 92.7559 83.2168ZM104.705 84.1055C104.468 84.7344 104.208 85.3906 103.926 86.0742C103.643 86.7578 103.338 87.3958 103.01 87.9883C102.809 88.3529 102.586 88.6582 102.34 88.9043C102.094 89.1413 101.811 89.2598 101.492 89.2598C101.237 89.2598 100.986 89.1322 100.74 88.877C100.503 88.6126 100.28 88.3027 100.07 87.9473C99.8698 87.5827 99.6921 87.2181 99.5371 86.8535C99.3913 86.4798 99.2819 86.1836 99.209 85.9648C99.1361 85.7188 99.054 85.4544 98.9629 85.1719C98.8717 84.8893 98.7897 84.6022 98.7168 84.3105C98.6439 84.0189 98.5846 83.7318 98.5391 83.4492C98.4935 83.1576 98.4707 82.8841 98.4707 82.6289C98.4707 82.2734 98.5345 81.9818 98.6621 81.7539C98.7897 81.526 99.0404 81.4121 99.4141 81.4121C99.5599 81.4121 99.6921 81.4577 99.8105 81.5488C99.929 81.6309 100.038 81.7493 100.139 81.9043C100.239 82.0592 100.335 82.2415 100.426 82.4512C100.517 82.6517 100.604 82.875 100.686 83.1211C100.768 83.3581 100.845 83.6042 100.918 83.8594C100.991 84.1146 101.064 84.3607 101.137 84.5977C101.21 84.8346 101.283 85.0671 101.355 85.2949C101.438 85.5137 101.542 85.7324 101.67 85.9512C101.734 85.7871 101.807 85.6003 101.889 85.3906C101.971 85.181 102.057 84.9577 102.148 84.7207C102.249 84.4837 102.354 84.2422 102.463 83.9961C102.572 83.7409 102.691 83.4948 102.818 83.2578C103.064 82.7656 103.324 82.3464 103.598 82C103.88 81.6536 104.158 81.4805 104.432 81.4805C104.687 81.4805 104.869 81.5579 104.979 81.7129C105.088 81.8678 105.143 82.0684 105.143 82.3145C105.143 82.5605 105.102 82.8385 105.02 83.1484C104.938 83.4583 104.833 83.7773 104.705 84.1055ZM108.219 89.3965C107.754 89.3965 107.348 89.2734 107.002 89.0273C106.656 88.7812 106.364 88.4668 106.127 88.084C105.89 87.7012 105.712 87.2773 105.594 86.8125C105.475 86.3385 105.416 85.8737 105.416 85.418C105.416 84.9349 105.475 84.4382 105.594 83.9277C105.712 83.4082 105.895 82.9388 106.141 82.5195C106.387 82.0911 106.701 81.7448 107.084 81.4805C107.467 81.207 107.923 81.0703 108.451 81.0703C108.962 81.0703 109.395 81.2116 109.75 81.4941C110.115 81.7676 110.406 82.1139 110.625 82.5332C110.844 82.9434 110.999 83.3945 111.09 83.8867C111.181 84.3789 111.213 84.8438 111.186 85.2812C111.158 85.7643 111.081 86.252 110.953 86.7441C110.835 87.2363 110.657 87.6784 110.42 88.0703C110.183 88.4622 109.882 88.7812 109.518 89.0273C109.153 89.2734 108.72 89.3965 108.219 89.3965ZM108.355 83.2168C108.219 83.2168 108.096 83.2897 107.986 83.4355C107.886 83.5814 107.799 83.7591 107.727 83.9688C107.663 84.1784 107.613 84.4017 107.576 84.6387C107.54 84.8665 107.521 85.0671 107.521 85.2402C107.521 85.459 107.54 85.696 107.576 85.9512C107.622 86.2064 107.681 86.4434 107.754 86.6621C107.827 86.8717 107.913 87.0495 108.014 87.1953C108.123 87.332 108.246 87.4004 108.383 87.4004C108.529 87.4004 108.652 87.332 108.752 87.1953C108.861 87.0586 108.948 86.8854 109.012 86.6758C109.076 86.4661 109.121 86.2383 109.148 85.9922C109.176 85.737 109.189 85.5 109.189 85.2812C109.189 85.0807 109.171 84.862 109.135 84.625C109.098 84.3789 109.044 84.151 108.971 83.9414C108.907 83.7318 108.82 83.5586 108.711 83.4219C108.611 83.2852 108.492 83.2168 108.355 83.2168ZM116.955 83.75C116.955 83.7956 116.951 83.8457 116.941 83.9004C116.932 83.946 116.919 83.9915 116.9 84.0371C116.818 84.2467 116.691 84.4245 116.518 84.5703C116.344 84.707 116.139 84.7754 115.902 84.7754C115.547 84.7754 115.305 84.5977 115.178 84.2422C115.16 84.1966 115.15 84.1465 115.15 84.0918C115.15 84.028 115.146 83.9642 115.137 83.9004V83.5039C115.118 83.3763 115.087 83.276 115.041 83.2031C114.995 83.1302 114.918 83.0938 114.809 83.0938C114.654 83.0938 114.503 83.194 114.357 83.3945C114.221 83.5859 114.098 83.8184 113.988 84.0918C113.888 84.3561 113.806 84.6296 113.742 84.9121C113.678 85.1947 113.646 85.4225 113.646 85.5957C113.646 85.7324 113.656 85.901 113.674 86.1016C113.692 86.293 113.729 86.4798 113.783 86.6621C113.838 86.8444 113.911 87.0039 114.002 87.1406C114.102 87.2682 114.23 87.332 114.385 87.332C114.54 87.332 114.681 87.2865 114.809 87.1953C114.945 87.0951 115.077 86.9811 115.205 86.8535C115.324 86.7441 115.451 86.6302 115.588 86.5117C115.734 86.3932 115.898 86.334 116.08 86.334C116.308 86.334 116.486 86.416 116.613 86.5801C116.75 86.7441 116.818 86.931 116.818 87.1406C116.818 87.4505 116.736 87.7422 116.572 88.0156C116.408 88.2799 116.203 88.5124 115.957 88.7129C115.711 88.9043 115.438 89.0547 115.137 89.1641C114.836 89.2826 114.549 89.3418 114.275 89.3418C113.783 89.3418 113.364 89.2188 113.018 88.9727C112.68 88.7266 112.407 88.4167 112.197 88.043C111.988 87.6602 111.837 87.2454 111.746 86.7988C111.655 86.3522 111.609 85.9284 111.609 85.5273C111.609 85.0625 111.673 84.5612 111.801 84.0234C111.928 83.4766 112.124 82.9707 112.389 82.5059C112.653 82.041 112.99 81.6536 113.4 81.3438C113.82 81.0339 114.316 80.8789 114.891 80.8789C115.246 80.8789 115.551 80.9564 115.807 81.1113C116.071 81.2663 116.285 81.4714 116.449 81.7266C116.622 81.9727 116.75 82.2507 116.832 82.5605C116.923 82.8704 116.969 83.1758 116.969 83.4766C116.969 83.5221 116.969 83.5677 116.969 83.6133C116.969 83.6589 116.964 83.7044 116.955 83.75ZM123.449 86.5664C123.449 86.8763 123.349 87.1816 123.148 87.4824C122.957 87.7741 122.711 88.0384 122.41 88.2754C122.118 88.5033 121.804 88.6901 121.467 88.8359C121.13 88.9727 120.82 89.041 120.537 89.041C120.054 89.041 119.621 88.9225 119.238 88.6855C118.865 88.4395 118.55 88.1296 118.295 87.7559C118.04 87.3822 117.844 86.972 117.707 86.5254C117.579 86.0697 117.516 85.6276 117.516 85.1992C117.516 84.7435 117.579 84.2559 117.707 83.7363C117.835 83.2168 118.026 82.7383 118.281 82.3008C118.546 81.8633 118.874 81.4987 119.266 81.207C119.667 80.9154 120.141 80.7695 120.688 80.7695C120.997 80.7695 121.294 80.8242 121.576 80.9336C121.859 81.0339 122.105 81.1797 122.314 81.3711C122.524 81.5625 122.693 81.7904 122.82 82.0547C122.948 82.319 123.012 82.6152 123.012 82.9434C123.012 83.3717 122.921 83.7728 122.738 84.1465C122.556 84.5202 122.314 84.8438 122.014 85.1172C121.713 85.3906 121.367 85.6139 120.975 85.7871C120.583 85.9512 120.182 86.0423 119.771 86.0605C119.808 86.3249 119.913 86.5163 120.086 86.6348C120.268 86.7533 120.482 86.8125 120.729 86.8125C120.911 86.8125 121.089 86.7669 121.262 86.6758C121.435 86.5846 121.604 86.4844 121.768 86.375C121.932 86.2565 122.091 86.1517 122.246 86.0605C122.41 85.9694 122.574 85.9238 122.738 85.9238C122.921 85.9238 123.085 85.9831 123.23 86.1016C123.376 86.2201 123.449 86.375 123.449 86.5664ZM121.234 83.2168C121.234 83.0983 121.202 82.9753 121.139 82.8477C121.075 82.7201 120.975 82.6562 120.838 82.6562C120.637 82.6562 120.469 82.7109 120.332 82.8203C120.195 82.9206 120.081 83.0527 119.99 83.2168C119.899 83.3717 119.826 83.5404 119.771 83.7227C119.726 83.9049 119.699 84.0736 119.689 84.2285C119.817 84.2012 119.967 84.1647 120.141 84.1191C120.323 84.0736 120.492 84.0143 120.646 83.9414C120.811 83.8594 120.947 83.7591 121.057 83.6406C121.175 83.5221 121.234 83.3809 121.234 83.2168ZM122.451 79.8535C122.451 79.9264 122.438 79.972 122.41 79.9902C122.383 80.0085 122.337 80.0176 122.273 80.0176C122.164 80.0176 122.041 79.9902 121.904 79.9355C121.777 79.8809 121.645 79.8125 121.508 79.7305C121.38 79.6484 121.253 79.5618 121.125 79.4707C121.007 79.3796 120.906 79.2975 120.824 79.2246C120.733 79.2975 120.624 79.3841 120.496 79.4844C120.378 79.5846 120.25 79.6803 120.113 79.7715C119.977 79.8535 119.84 79.9264 119.703 79.9902C119.566 80.0449 119.439 80.0723 119.32 80.0723C119.275 80.0723 119.229 80.0632 119.184 80.0449C119.147 80.0267 119.129 79.9811 119.129 79.9082C119.129 79.7715 119.188 79.5983 119.307 79.3887C119.425 79.179 119.571 78.9785 119.744 78.7871C119.917 78.5957 120.1 78.4316 120.291 78.2949C120.482 78.1582 120.651 78.0898 120.797 78.0898C120.943 78.0898 121.111 78.1582 121.303 78.2949C121.494 78.4225 121.672 78.5775 121.836 78.7598C122.009 78.9421 122.155 79.1335 122.273 79.334C122.392 79.5345 122.451 79.7077 122.451 79.8535ZM128.002 81.4805C128.002 81.7448 127.911 81.9408 127.729 82.0684C127.555 82.196 127.359 82.319 127.141 82.4375C126.922 82.5469 126.721 82.679 126.539 82.834C126.366 82.9889 126.279 83.2214 126.279 83.5312C126.279 83.6953 126.316 83.8366 126.389 83.9551C126.471 84.0736 126.566 84.1829 126.676 84.2832C126.794 84.3743 126.922 84.4701 127.059 84.5703C127.195 84.6706 127.318 84.7845 127.428 84.9121C127.546 85.0397 127.642 85.1947 127.715 85.377C127.797 85.5592 127.838 85.7826 127.838 86.0469C127.838 86.4297 127.738 86.8079 127.537 87.1816C127.346 87.5462 127.095 87.8743 126.785 88.166C126.484 88.4486 126.143 88.6764 125.76 88.8496C125.377 89.0228 124.999 89.1094 124.625 89.1094C124.47 89.1094 124.315 89.0957 124.16 89.0684C124.005 89.0501 123.864 89.0091 123.736 88.9453C123.618 88.8815 123.518 88.7949 123.436 88.6855C123.354 88.5671 123.312 88.4167 123.312 88.2344C123.312 87.9792 123.363 87.7832 123.463 87.6465C123.563 87.5007 123.691 87.3867 123.846 87.3047C124.001 87.2227 124.165 87.1589 124.338 87.1133C124.52 87.0677 124.689 87.013 124.844 86.9492C124.999 86.8763 125.126 86.7852 125.227 86.6758C125.327 86.5664 125.377 86.4115 125.377 86.2109C125.377 86.0195 125.299 85.8236 125.145 85.623C124.999 85.4134 124.835 85.1947 124.652 84.9668C124.47 84.7298 124.301 84.4792 124.146 84.2148C124.001 83.9505 123.928 83.6589 123.928 83.3398C123.928 82.9479 124.005 82.5879 124.16 82.2598C124.324 81.9225 124.538 81.6309 124.803 81.3848C125.076 81.1387 125.386 80.9473 125.732 80.8105C126.079 80.6647 126.443 80.5918 126.826 80.5918C126.972 80.5918 127.113 80.6055 127.25 80.6328C127.396 80.6602 127.523 80.7103 127.633 80.7832C127.742 80.847 127.829 80.9382 127.893 81.0566C127.965 81.166 128.002 81.3073 128.002 81.4805ZM135.85 81.4805C135.85 81.7448 135.758 81.9408 135.576 82.0684C135.403 82.196 135.207 82.319 134.988 82.4375C134.77 82.5469 134.569 82.679 134.387 82.834C134.214 82.9889 134.127 83.2214 134.127 83.5312C134.127 83.6953 134.163 83.8366 134.236 83.9551C134.318 84.0736 134.414 84.1829 134.523 84.2832C134.642 84.3743 134.77 84.4701 134.906 84.5703C135.043 84.6706 135.166 84.7845 135.275 84.9121C135.394 85.0397 135.49 85.1947 135.562 85.377C135.645 85.5592 135.686 85.7826 135.686 86.0469C135.686 86.4297 135.585 86.8079 135.385 87.1816C135.193 87.5462 134.943 87.8743 134.633 88.166C134.332 88.4486 133.99 88.6764 133.607 88.8496C133.225 89.0228 132.846 89.1094 132.473 89.1094C132.318 89.1094 132.163 89.0957 132.008 89.0684C131.853 89.0501 131.712 89.0091 131.584 88.9453C131.465 88.8815 131.365 88.7949 131.283 88.6855C131.201 88.5671 131.16 88.4167 131.16 88.2344C131.16 87.9792 131.21 87.7832 131.311 87.6465C131.411 87.5007 131.538 87.3867 131.693 87.3047C131.848 87.2227 132.012 87.1589 132.186 87.1133C132.368 87.0677 132.536 87.013 132.691 86.9492C132.846 86.8763 132.974 86.7852 133.074 86.6758C133.174 86.5664 133.225 86.4115 133.225 86.2109C133.225 86.0195 133.147 85.8236 132.992 85.623C132.846 85.4134 132.682 85.1947 132.5 84.9668C132.318 84.7298 132.149 84.4792 131.994 84.2148C131.848 83.9505 131.775 83.6589 131.775 83.3398C131.775 82.9479 131.853 82.5879 132.008 82.2598C132.172 81.9225 132.386 81.6309 132.65 81.3848C132.924 81.1387 133.234 80.9473 133.58 80.8105C133.926 80.6647 134.291 80.5918 134.674 80.5918C134.82 80.5918 134.961 80.6055 135.098 80.6328C135.243 80.6602 135.371 80.7103 135.48 80.7832C135.59 80.847 135.676 80.9382 135.74 81.0566C135.813 81.166 135.85 81.3073 135.85 81.4805ZM142.207 87.0723C142.207 87.2363 142.198 87.4505 142.18 87.7148C142.171 87.9792 142.134 88.2389 142.07 88.4941C142.007 88.7402 141.906 88.9544 141.77 89.1367C141.633 89.319 141.441 89.4102 141.195 89.4102C140.858 89.4102 140.598 89.3008 140.416 89.082C140.234 88.8633 140.147 88.5898 140.156 88.2617C139.865 88.5169 139.532 88.7174 139.158 88.8633C138.794 89.0091 138.42 89.082 138.037 89.082C137.773 89.082 137.522 89.0182 137.285 88.8906C137.048 88.763 136.839 88.599 136.656 88.3984C136.474 88.1979 136.328 87.9746 136.219 87.7285C136.109 87.4733 136.055 87.2227 136.055 86.9766C136.055 86.5391 136.187 86.1562 136.451 85.8281C136.725 85.5 137.057 85.222 137.449 84.9941C137.841 84.7572 138.256 84.5703 138.693 84.4336C139.14 84.2969 139.536 84.2057 139.883 84.1602C139.883 84.1146 139.883 84.0736 139.883 84.0371C139.892 84.0007 139.896 83.9596 139.896 83.9141C139.896 83.6315 139.819 83.4036 139.664 83.2305C139.509 83.0573 139.29 82.9707 139.008 82.9707C138.78 82.9707 138.584 83.0117 138.42 83.0938C138.256 83.1667 138.101 83.2533 137.955 83.3535C137.809 83.4447 137.663 83.5312 137.518 83.6133C137.372 83.6862 137.208 83.7227 137.025 83.7227C136.825 83.7227 136.652 83.6589 136.506 83.5312C136.369 83.4036 136.301 83.2396 136.301 83.0391C136.301 82.7383 136.387 82.4648 136.561 82.2188C136.743 81.9727 136.966 81.7676 137.23 81.6035C137.504 81.4303 137.796 81.2982 138.105 81.207C138.424 81.1068 138.716 81.0566 138.98 81.0566C139.227 81.0566 139.473 81.0885 139.719 81.1523C139.965 81.207 140.197 81.2982 140.416 81.4258C140.635 81.5443 140.831 81.6947 141.004 81.877C141.186 82.0501 141.332 82.2552 141.441 82.4922C141.605 82.8294 141.738 83.1895 141.838 83.5723C141.938 83.946 142.016 84.3333 142.07 84.7344C142.125 85.1263 142.161 85.5228 142.18 85.9238C142.198 86.3158 142.207 86.6986 142.207 87.0723ZM140.02 86.6348L139.979 85.7051C139.96 85.7051 139.942 85.7051 139.924 85.7051C139.906 85.696 139.887 85.6914 139.869 85.6914C139.751 85.6914 139.6 85.7233 139.418 85.7871C139.245 85.8418 139.076 85.9238 138.912 86.0332C138.748 86.1335 138.607 86.2474 138.488 86.375C138.379 86.5026 138.324 86.6348 138.324 86.7715C138.324 86.8991 138.37 86.9857 138.461 87.0312C138.552 87.0768 138.657 87.0996 138.775 87.0996C138.976 87.0996 139.19 87.0495 139.418 86.9492C139.646 86.8398 139.846 86.735 140.02 86.6348ZM141.674 78.8145C141.674 78.9512 141.628 79.097 141.537 79.252C141.446 79.3978 141.332 79.5345 141.195 79.6621C141.059 79.7806 140.913 79.8809 140.758 79.9629C140.603 80.0358 140.457 80.0723 140.32 80.0723C140.184 80.0723 140.047 80.0495 139.91 80.0039C139.783 79.9492 139.65 79.89 139.514 79.8262C139.386 79.7624 139.258 79.7077 139.131 79.6621C139.003 79.6074 138.876 79.5801 138.748 79.5801C138.648 79.5801 138.548 79.612 138.447 79.6758C138.347 79.7305 138.242 79.7943 138.133 79.8672C138.023 79.931 137.91 79.9902 137.791 80.0449C137.682 80.0996 137.572 80.127 137.463 80.127C137.317 80.127 137.199 80.0677 137.107 79.9492C137.016 79.8216 136.971 79.694 136.971 79.5664C136.971 79.4115 137.025 79.2611 137.135 79.1152C137.244 78.9694 137.381 78.8418 137.545 78.7324C137.709 78.6139 137.878 78.5228 138.051 78.459C138.233 78.3861 138.393 78.3496 138.529 78.3496C138.684 78.3496 138.816 78.3815 138.926 78.4453C139.044 78.5091 139.154 78.582 139.254 78.6641C139.354 78.7461 139.454 78.819 139.555 78.8828C139.664 78.9466 139.792 78.9785 139.938 78.9785C140.056 78.9785 140.165 78.9466 140.266 78.8828C140.375 78.8099 140.48 78.7324 140.58 78.6504C140.689 78.5592 140.79 78.4818 140.881 78.418C140.981 78.3451 141.086 78.3086 141.195 78.3086C141.323 78.3086 141.432 78.3633 141.523 78.4727C141.624 78.582 141.674 78.696 141.674 78.8145ZM145.625 89.3965C145.16 89.3965 144.755 89.2734 144.408 89.0273C144.062 88.7812 143.77 88.4668 143.533 88.084C143.296 87.7012 143.118 87.2773 143 86.8125C142.882 86.3385 142.822 85.8737 142.822 85.418C142.822 84.9349 142.882 84.4382 143 83.9277C143.118 83.4082 143.301 82.9388 143.547 82.5195C143.793 82.0911 144.107 81.7448 144.49 81.4805C144.873 81.207 145.329 81.0703 145.857 81.0703C146.368 81.0703 146.801 81.2116 147.156 81.4941C147.521 81.7676 147.812 82.1139 148.031 82.5332C148.25 82.9434 148.405 83.3945 148.496 83.8867C148.587 84.3789 148.619 84.8438 148.592 85.2812C148.564 85.7643 148.487 86.252 148.359 86.7441C148.241 87.2363 148.063 87.6784 147.826 88.0703C147.589 88.4622 147.288 88.7812 146.924 89.0273C146.559 89.2734 146.126 89.3965 145.625 89.3965ZM145.762 83.2168C145.625 83.2168 145.502 83.2897 145.393 83.4355C145.292 83.5814 145.206 83.7591 145.133 83.9688C145.069 84.1784 145.019 84.4017 144.982 84.6387C144.946 84.8665 144.928 85.0671 144.928 85.2402C144.928 85.459 144.946 85.696 144.982 85.9512C145.028 86.2064 145.087 86.4434 145.16 86.6621C145.233 86.8717 145.32 87.0495 145.42 87.1953C145.529 87.332 145.652 87.4004 145.789 87.4004C145.935 87.4004 146.058 87.332 146.158 87.1953C146.268 87.0586 146.354 86.8854 146.418 86.6758C146.482 86.4661 146.527 86.2383 146.555 85.9922C146.582 85.737 146.596 85.5 146.596 85.2812C146.596 85.0807 146.577 84.862 146.541 84.625C146.505 84.3789 146.45 84.151 146.377 83.9414C146.313 83.7318 146.227 83.5586 146.117 83.4219C146.017 83.2852 145.898 83.2168 145.762 83.2168ZM158.477 80.0039C158.477 80.6693 158.449 81.3301 158.395 81.9863C158.349 82.6426 158.326 83.3034 158.326 83.9688C158.326 84.5065 158.34 85.0397 158.367 85.5684C158.404 86.097 158.422 86.6302 158.422 87.168C158.422 87.3138 158.417 87.4915 158.408 87.7012C158.399 87.9017 158.367 88.0977 158.312 88.2891C158.267 88.4805 158.185 88.6445 158.066 88.7812C157.957 88.918 157.798 88.9863 157.588 88.9863C157.314 88.9863 157.087 88.8861 156.904 88.6855C156.731 88.4759 156.622 88.2435 156.576 87.9883C156.403 88.3164 156.152 88.5944 155.824 88.8223C155.496 89.0501 155.141 89.1641 154.758 89.1641C154.348 89.1641 153.992 89.0228 153.691 88.7402C153.4 88.4577 153.154 88.1159 152.953 87.7148C152.762 87.3138 152.616 86.8945 152.516 86.457C152.424 86.0195 152.379 85.6413 152.379 85.3223C152.379 85.0944 152.393 84.8346 152.42 84.543C152.447 84.2513 152.493 83.9551 152.557 83.6543C152.63 83.3535 152.721 83.0618 152.83 82.7793C152.939 82.4876 153.076 82.2279 153.24 82C153.413 81.7721 153.614 81.5898 153.842 81.4531C154.079 81.3164 154.348 81.248 154.648 81.248C154.977 81.248 155.291 81.3438 155.592 81.5352C155.893 81.7266 156.12 81.9635 156.275 82.2461L156.398 80.0723C156.408 79.8991 156.421 79.6986 156.439 79.4707C156.458 79.2337 156.494 79.0104 156.549 78.8008C156.613 78.5911 156.708 78.4134 156.836 78.2676C156.964 78.1217 157.15 78.0488 157.396 78.0488C157.661 78.0488 157.866 78.1126 158.012 78.2402C158.158 78.3678 158.262 78.5319 158.326 78.7324C158.399 78.9238 158.44 79.1335 158.449 79.3613C158.467 79.5892 158.477 79.8034 158.477 80.0039ZM156.248 86.0742C156.248 85.8646 156.243 85.6595 156.234 85.459C156.225 85.2585 156.225 85.0534 156.234 84.8438C156.18 84.7253 156.116 84.5977 156.043 84.4609C155.97 84.3151 155.879 84.1829 155.77 84.0645C155.669 83.9368 155.555 83.832 155.428 83.75C155.3 83.668 155.163 83.627 155.018 83.627C154.854 83.627 154.721 83.6771 154.621 83.7773C154.521 83.8776 154.448 84.0007 154.402 84.1465C154.357 84.2832 154.325 84.4336 154.307 84.5977C154.298 84.7617 154.293 84.903 154.293 85.0215C154.293 85.1309 154.302 85.2949 154.32 85.5137C154.339 85.7233 154.37 85.9375 154.416 86.1562C154.471 86.375 154.544 86.5664 154.635 86.7305C154.726 86.8945 154.849 86.9766 155.004 86.9766C155.122 86.9766 155.241 86.9538 155.359 86.9082C155.478 86.8535 155.587 86.7897 155.688 86.7168C155.797 86.6348 155.897 86.5482 155.988 86.457C156.089 86.3568 156.175 86.2656 156.248 86.1836V86.0742ZM161.635 79.457C161.635 79.5846 161.598 79.6986 161.525 79.7988C161.462 79.8991 161.375 79.9902 161.266 80.0723C161.156 80.1452 161.038 80.2044 160.91 80.25C160.783 80.2865 160.664 80.3047 160.555 80.3047C160.372 80.3047 160.213 80.2591 160.076 80.168C159.939 80.0768 159.871 79.9355 159.871 79.7441C159.871 79.6074 159.903 79.4889 159.967 79.3887C160.04 79.2793 160.126 79.1927 160.227 79.1289C160.327 79.056 160.441 79.0013 160.568 78.9648C160.696 78.9284 160.819 78.9102 160.938 78.9102C161.111 78.9102 161.27 78.9512 161.416 79.0332C161.562 79.1152 161.635 79.2565 161.635 79.457ZM161.744 84.1055C161.744 84.2331 161.744 84.3698 161.744 84.5156C161.744 84.6523 161.74 84.7845 161.73 84.9121C161.721 85.0671 161.717 85.2767 161.717 85.541C161.717 85.7962 161.708 86.0742 161.689 86.375C161.671 86.6758 161.639 86.9811 161.594 87.291C161.557 87.6009 161.493 87.8835 161.402 88.1387C161.311 88.3939 161.188 88.6035 161.033 88.7676C160.887 88.9225 160.701 89.0046 160.473 89.0137C160.299 89.0228 160.154 88.9544 160.035 88.8086C159.917 88.6628 159.816 88.4759 159.734 88.248C159.661 88.0111 159.607 87.7513 159.57 87.4688C159.534 87.1771 159.507 86.8991 159.488 86.6348C159.47 86.3613 159.461 86.1107 159.461 85.8828C159.461 85.6549 159.461 85.4863 159.461 85.377C159.461 85.2311 159.461 85.026 159.461 84.7617C159.461 84.4883 159.47 84.1966 159.488 83.8867C159.507 83.5768 159.538 83.2624 159.584 82.9434C159.639 82.6243 159.712 82.3327 159.803 82.0684C159.903 81.804 160.031 81.5898 160.186 81.4258C160.34 81.2617 160.536 81.1797 160.773 81.1797C161.02 81.1797 161.206 81.3027 161.334 81.5488C161.462 81.7949 161.557 82.082 161.621 82.4102C161.685 82.7383 161.721 83.0664 161.73 83.3945C161.74 83.7135 161.744 83.9505 161.744 84.1055ZM168.443 80.8242C168.443 80.9974 168.425 81.166 168.389 81.3301C168.361 81.485 168.307 81.6217 168.225 81.7402C168.143 81.8587 168.033 81.9544 167.896 82.0273C167.76 82.0911 167.591 82.123 167.391 82.123C167.163 82.123 166.994 82.0775 166.885 81.9863C166.775 81.8952 166.698 81.7858 166.652 81.6582C166.616 81.5215 166.598 81.3757 166.598 81.2207C166.598 81.0658 166.589 80.9245 166.57 80.7969C166.561 80.6602 166.529 80.5462 166.475 80.4551C166.42 80.3639 166.32 80.3184 166.174 80.3184C166.037 80.3184 165.923 80.4232 165.832 80.6328C165.75 80.8424 165.682 81.084 165.627 81.3574C165.572 81.6309 165.536 81.8997 165.518 82.1641C165.499 82.4193 165.49 82.5924 165.49 82.6836C165.609 82.6654 165.723 82.6517 165.832 82.6426C165.941 82.6243 166.06 82.6152 166.188 82.6152C166.315 82.6152 166.447 82.6289 166.584 82.6562C166.721 82.6836 166.848 82.7292 166.967 82.793C167.085 82.8477 167.181 82.9297 167.254 83.0391C167.327 83.1393 167.363 83.2669 167.363 83.4219C167.363 83.5859 167.29 83.7318 167.145 83.8594C167.008 83.987 166.839 84.0964 166.639 84.1875C166.447 84.2695 166.251 84.3379 166.051 84.3926C165.85 84.4473 165.691 84.4837 165.572 84.502C165.6 85.1309 165.613 85.7643 165.613 86.4023C165.613 87.0039 165.6 87.5964 165.572 88.1797C165.554 88.4622 165.454 88.6947 165.271 88.877C165.098 89.0592 164.87 89.1504 164.588 89.1504C164.433 89.1504 164.301 89.1185 164.191 89.0547C164.082 89 163.991 88.9225 163.918 88.8223C163.845 88.722 163.786 88.6081 163.74 88.4805C163.704 88.3529 163.681 88.2207 163.672 88.084C163.626 87.5371 163.59 86.9902 163.562 86.4434C163.535 85.8874 163.526 85.3314 163.535 84.7754C163.471 84.7845 163.408 84.7891 163.344 84.7891C163.289 84.7891 163.23 84.7891 163.166 84.7891C163.057 84.7891 162.924 84.7754 162.77 84.748C162.615 84.7207 162.464 84.6751 162.318 84.6113C162.182 84.5384 162.063 84.4518 161.963 84.3516C161.863 84.2513 161.812 84.1237 161.812 83.9688C161.812 83.7682 161.881 83.5996 162.018 83.4629C162.145 83.3262 162.3 83.2168 162.482 83.1348C162.674 83.0436 162.87 82.9798 163.07 82.9434C163.28 82.9069 163.462 82.8796 163.617 82.8613V82.6426C163.617 82.196 163.658 81.7174 163.74 81.207C163.822 80.6966 163.968 80.2227 164.178 79.7852C164.387 79.3477 164.674 78.9876 165.039 78.7051C165.404 78.4134 165.868 78.2676 166.434 78.2676C166.789 78.2676 167.094 78.3451 167.35 78.5C167.605 78.6458 167.814 78.8418 167.979 79.0879C168.143 79.3249 168.261 79.5983 168.334 79.9082C168.407 80.209 168.443 80.5143 168.443 80.8242ZM173.666 86.5664C173.666 86.8763 173.566 87.1816 173.365 87.4824C173.174 87.7741 172.928 88.0384 172.627 88.2754C172.335 88.5033 172.021 88.6901 171.684 88.8359C171.346 88.9727 171.036 89.041 170.754 89.041C170.271 89.041 169.838 88.9225 169.455 88.6855C169.081 88.4395 168.767 88.1296 168.512 87.7559C168.257 87.3822 168.061 86.972 167.924 86.5254C167.796 86.0697 167.732 85.6276 167.732 85.1992C167.732 84.7435 167.796 84.2559 167.924 83.7363C168.051 83.2168 168.243 82.7383 168.498 82.3008C168.762 81.8633 169.09 81.4987 169.482 81.207C169.883 80.9154 170.357 80.7695 170.904 80.7695C171.214 80.7695 171.51 80.8242 171.793 80.9336C172.076 81.0339 172.322 81.1797 172.531 81.3711C172.741 81.5625 172.91 81.7904 173.037 82.0547C173.165 82.319 173.229 82.6152 173.229 82.9434C173.229 83.3717 173.137 83.7728 172.955 84.1465C172.773 84.5202 172.531 84.8438 172.23 85.1172C171.93 85.3906 171.583 85.6139 171.191 85.7871C170.799 85.9512 170.398 86.0423 169.988 86.0605C170.025 86.3249 170.13 86.5163 170.303 86.6348C170.485 86.7533 170.699 86.8125 170.945 86.8125C171.128 86.8125 171.305 86.7669 171.479 86.6758C171.652 86.5846 171.82 86.4844 171.984 86.375C172.148 86.2565 172.308 86.1517 172.463 86.0605C172.627 85.9694 172.791 85.9238 172.955 85.9238C173.137 85.9238 173.301 85.9831 173.447 86.1016C173.593 86.2201 173.666 86.375 173.666 86.5664ZM171.451 83.2168C171.451 83.0983 171.419 82.9753 171.355 82.8477C171.292 82.7201 171.191 82.6562 171.055 82.6562C170.854 82.6562 170.686 82.7109 170.549 82.8203C170.412 82.9206 170.298 83.0527 170.207 83.2168C170.116 83.3717 170.043 83.5404 169.988 83.7227C169.943 83.9049 169.915 84.0736 169.906 84.2285C170.034 84.2012 170.184 84.1647 170.357 84.1191C170.54 84.0736 170.708 84.0143 170.863 83.9414C171.027 83.8594 171.164 83.7591 171.273 83.6406C171.392 83.5221 171.451 83.3809 171.451 83.2168ZM178.957 83.8867C178.829 83.8958 178.72 83.8867 178.629 83.8594C178.538 83.8229 178.447 83.7865 178.355 83.75C178.273 83.7135 178.191 83.6816 178.109 83.6543C178.027 83.6178 177.936 83.6042 177.836 83.6133C177.654 83.6224 177.49 83.6725 177.344 83.7637C177.207 83.8548 177.079 83.9688 176.961 84.1055C176.852 84.2422 176.756 84.3971 176.674 84.5703C176.592 84.7344 176.528 84.8984 176.482 85.0625C176.455 85.1719 176.432 85.3405 176.414 85.5684C176.405 85.7871 176.4 86.0241 176.4 86.2793C176.391 86.5436 176.387 86.7943 176.387 87.0312C176.387 87.2682 176.378 87.4551 176.359 87.5918C176.35 87.7376 176.327 87.9108 176.291 88.1113C176.255 88.3027 176.195 88.485 176.113 88.6582C176.04 88.8314 175.94 88.9772 175.812 89.0957C175.685 89.2142 175.521 89.2734 175.32 89.2734C175.165 89.2734 175.029 89.2279 174.91 89.1367C174.801 89.0456 174.705 88.9271 174.623 88.7812C174.55 88.6263 174.486 88.4486 174.432 88.248C174.386 88.0475 174.35 87.8424 174.322 87.6328C174.295 87.4141 174.272 87.1953 174.254 86.9766C174.245 86.7578 174.236 86.5527 174.227 86.3613C174.227 86.1608 174.227 85.9785 174.227 85.8145C174.236 85.6504 174.24 85.5182 174.24 85.418C174.231 85.099 174.213 84.7799 174.186 84.4609C174.167 84.1328 174.158 83.8092 174.158 83.4902C174.158 83.2897 174.167 83.0664 174.186 82.8203C174.204 82.5742 174.254 82.3464 174.336 82.1367C174.418 81.918 174.536 81.7357 174.691 81.5898C174.855 81.444 175.079 81.3711 175.361 81.3711C175.516 81.3711 175.648 81.4212 175.758 81.5215C175.867 81.6217 175.954 81.7448 176.018 81.8906C176.09 82.0365 176.145 82.1914 176.182 82.3555C176.218 82.5195 176.241 82.6699 176.25 82.8066C176.469 82.4512 176.715 82.1641 176.988 81.9453C177.262 81.7174 177.617 81.5944 178.055 81.5762C178.273 81.5671 178.488 81.5898 178.697 81.6445C178.916 81.6901 179.112 81.7721 179.285 81.8906C179.467 82 179.613 82.1458 179.723 82.3281C179.841 82.5104 179.905 82.7246 179.914 82.9707C179.932 83.2624 179.846 83.4857 179.654 83.6406C179.463 83.7956 179.23 83.8776 178.957 83.8867ZM185.848 86.5664C185.848 86.8763 185.747 87.1816 185.547 87.4824C185.355 87.7741 185.109 88.0384 184.809 88.2754C184.517 88.5033 184.202 88.6901 183.865 88.8359C183.528 88.9727 183.218 89.041 182.936 89.041C182.452 89.041 182.02 88.9225 181.637 88.6855C181.263 88.4395 180.949 88.1296 180.693 87.7559C180.438 87.3822 180.242 86.972 180.105 86.5254C179.978 86.0697 179.914 85.6276 179.914 85.1992C179.914 84.7435 179.978 84.2559 180.105 83.7363C180.233 83.2168 180.424 82.7383 180.68 82.3008C180.944 81.8633 181.272 81.4987 181.664 81.207C182.065 80.9154 182.539 80.7695 183.086 80.7695C183.396 80.7695 183.692 80.8242 183.975 80.9336C184.257 81.0339 184.503 81.1797 184.713 81.3711C184.923 81.5625 185.091 81.7904 185.219 82.0547C185.346 82.319 185.41 82.6152 185.41 82.9434C185.41 83.3717 185.319 83.7728 185.137 84.1465C184.954 84.5202 184.713 84.8438 184.412 85.1172C184.111 85.3906 183.765 85.6139 183.373 85.7871C182.981 85.9512 182.58 86.0423 182.17 86.0605C182.206 86.3249 182.311 86.5163 182.484 86.6348C182.667 86.7533 182.881 86.8125 183.127 86.8125C183.309 86.8125 183.487 86.7669 183.66 86.6758C183.833 86.5846 184.002 86.4844 184.166 86.375C184.33 86.2565 184.49 86.1517 184.645 86.0605C184.809 85.9694 184.973 85.9238 185.137 85.9238C185.319 85.9238 185.483 85.9831 185.629 86.1016C185.775 86.2201 185.848 86.375 185.848 86.5664ZM183.633 83.2168C183.633 83.0983 183.601 82.9753 183.537 82.8477C183.473 82.7201 183.373 82.6562 183.236 82.6562C183.036 82.6562 182.867 82.7109 182.73 82.8203C182.594 82.9206 182.48 83.0527 182.389 83.2168C182.298 83.3717 182.225 83.5404 182.17 83.7227C182.124 83.9049 182.097 84.0736 182.088 84.2285C182.215 84.2012 182.366 84.1647 182.539 84.1191C182.721 84.0736 182.89 84.0143 183.045 83.9414C183.209 83.8594 183.346 83.7591 183.455 83.6406C183.574 83.5221 183.633 83.3809 183.633 83.2168ZM190.277 89.3828C190.122 89.3828 189.999 89.3099 189.908 89.1641C189.817 89.0273 189.749 88.8678 189.703 88.6855C189.658 88.5033 189.626 88.321 189.607 88.1387C189.598 87.9473 189.594 87.8014 189.594 87.7012C189.594 87.4277 189.607 87.1543 189.635 86.8809C189.671 86.6074 189.708 86.334 189.744 86.0605C189.79 85.7871 189.826 85.5137 189.854 85.2402C189.89 84.9668 189.908 84.6934 189.908 84.4199C189.908 84.3105 189.904 84.1921 189.895 84.0645C189.885 83.9368 189.863 83.8184 189.826 83.709C189.799 83.5905 189.749 83.4948 189.676 83.4219C189.603 83.349 189.507 83.3125 189.389 83.3125C189.307 83.3125 189.215 83.3809 189.115 83.5176C189.015 83.6452 188.919 83.7956 188.828 83.9688C188.746 84.1328 188.673 84.3014 188.609 84.4746C188.555 84.6387 188.527 84.7617 188.527 84.8438C188.527 85.0443 188.527 85.2493 188.527 85.459C188.536 85.6595 188.541 85.8646 188.541 86.0742V86.8672C188.532 87.0312 188.518 87.1999 188.5 87.373C188.482 87.5462 188.454 87.7148 188.418 87.8789C188.391 88.043 188.35 88.2025 188.295 88.3574C188.24 88.5033 188.167 88.6354 188.076 88.7539C187.994 88.8633 187.894 88.9544 187.775 89.0273C187.657 89.1003 187.516 89.1367 187.352 89.1367C187.169 89.1367 187.019 89.0775 186.9 88.959C186.782 88.8405 186.686 88.6901 186.613 88.5078C186.54 88.3164 186.486 88.1068 186.449 87.8789C186.422 87.6419 186.399 87.4141 186.381 87.1953C186.372 86.9674 186.367 86.7624 186.367 86.5801C186.376 86.3887 186.381 86.2383 186.381 86.1289V85.4863C186.381 85.14 186.372 84.7982 186.354 84.4609C186.344 84.1237 186.34 83.7865 186.34 83.4492C186.34 83.2669 186.34 83.0345 186.34 82.752C186.349 82.4694 186.385 82.196 186.449 81.9316C186.513 81.6582 186.618 81.4258 186.764 81.2344C186.91 81.043 187.124 80.9473 187.406 80.9473C187.534 80.9473 187.648 80.9883 187.748 81.0703C187.848 81.1523 187.935 81.2526 188.008 81.3711C188.09 81.4896 188.154 81.6172 188.199 81.7539C188.254 81.8906 188.295 82.0091 188.322 82.1094C188.413 81.9818 188.518 81.8587 188.637 81.7402C188.764 81.6217 188.906 81.5169 189.061 81.4258C189.215 81.3346 189.389 81.2617 189.58 81.207C189.771 81.1523 189.99 81.125 190.236 81.125C190.701 81.125 191.061 81.2389 191.316 81.4668C191.581 81.6855 191.772 81.9635 191.891 82.3008C192.018 82.6289 192.096 82.9844 192.123 83.3672C192.15 83.75 192.164 84.0964 192.164 84.4062C192.164 84.5612 192.15 84.7936 192.123 85.1035C192.096 85.4043 192.05 85.7415 191.986 86.1152C191.932 86.4798 191.854 86.8581 191.754 87.25C191.654 87.6328 191.535 87.9837 191.398 88.3027C191.262 88.6217 191.098 88.8815 190.906 89.082C190.724 89.2826 190.514 89.3828 190.277 89.3828ZM196.115 89.4922C195.468 89.4922 194.962 89.4056 194.598 89.2324C194.242 89.0684 193.973 88.8314 193.791 88.5215C193.618 88.2116 193.513 87.8379 193.477 87.4004C193.44 86.9629 193.422 86.4753 193.422 85.9375C193.422 85.5091 193.436 85.0807 193.463 84.6523C193.49 84.2148 193.531 83.75 193.586 83.2578C193.458 83.2578 193.358 83.2624 193.285 83.2715C193.212 83.2715 193.153 83.2715 193.107 83.2715C192.816 83.2715 192.565 83.2077 192.355 83.0801C192.137 82.9525 192.027 82.7565 192.027 82.4922C192.027 82.3281 192.091 82.1823 192.219 82.0547C192.337 81.9271 192.492 81.8177 192.684 81.7266C192.875 81.6354 193.08 81.5625 193.299 81.5078C193.527 81.4531 193.741 81.4167 193.941 81.3984C193.941 81.1432 193.96 80.8607 193.996 80.5508C194.033 80.2409 194.096 79.9538 194.188 79.6895C194.288 79.416 194.42 79.1882 194.584 79.0059C194.748 78.8236 194.958 78.7324 195.213 78.7324C195.359 78.7324 195.486 78.778 195.596 78.8691C195.714 78.9512 195.81 79.0605 195.883 79.1973C195.956 79.3249 196.01 79.4707 196.047 79.6348C196.083 79.7988 196.102 79.9583 196.102 80.1133C196.102 80.2956 196.088 80.4824 196.061 80.6738C196.033 80.8652 195.983 81.1022 195.91 81.3848C196.065 81.3665 196.17 81.3574 196.225 81.3574C196.279 81.3483 196.329 81.3438 196.375 81.3438C196.53 81.3438 196.689 81.3574 196.854 81.3848C197.027 81.4121 197.182 81.4577 197.318 81.5215C197.464 81.5853 197.583 81.6719 197.674 81.7812C197.765 81.8815 197.811 82.0046 197.811 82.1504C197.811 82.3145 197.742 82.4603 197.605 82.5879C197.478 82.7155 197.314 82.8249 197.113 82.916C196.913 83.0072 196.699 83.0801 196.471 83.1348C196.243 83.1803 196.029 83.2122 195.828 83.2305C195.773 83.6042 195.732 83.9505 195.705 84.2695C195.687 84.5794 195.664 84.8939 195.637 85.2129C195.618 85.3678 195.6 85.5273 195.582 85.6914C195.573 85.8464 195.568 86.0059 195.568 86.1699C195.568 86.2884 195.573 86.4297 195.582 86.5938C195.591 86.7487 195.623 86.8991 195.678 87.0449C195.732 87.1908 195.819 87.3184 195.938 87.4277C196.056 87.528 196.22 87.5781 196.43 87.5781C196.557 87.5781 196.689 87.569 196.826 87.5508C196.963 87.5234 197.1 87.5098 197.236 87.5098C197.473 87.5098 197.642 87.5918 197.742 87.7559C197.852 87.9199 197.906 88.1296 197.906 88.3848C197.906 88.5762 197.847 88.7448 197.729 88.8906C197.619 89.0273 197.478 89.1367 197.305 89.2188C197.132 89.3099 196.936 89.3783 196.717 89.4238C196.507 89.4694 196.307 89.4922 196.115 89.4922ZM203.908 86.5664C203.908 86.8763 203.808 87.1816 203.607 87.4824C203.416 87.7741 203.17 88.0384 202.869 88.2754C202.577 88.5033 202.263 88.6901 201.926 88.8359C201.589 88.9727 201.279 89.041 200.996 89.041C200.513 89.041 200.08 88.9225 199.697 88.6855C199.324 88.4395 199.009 88.1296 198.754 87.7559C198.499 87.3822 198.303 86.972 198.166 86.5254C198.038 86.0697 197.975 85.6276 197.975 85.1992C197.975 84.7435 198.038 84.2559 198.166 83.7363C198.294 83.2168 198.485 82.7383 198.74 82.3008C199.005 81.8633 199.333 81.4987 199.725 81.207C200.126 80.9154 200.6 80.7695 201.146 80.7695C201.456 80.7695 201.753 80.8242 202.035 80.9336C202.318 81.0339 202.564 81.1797 202.773 81.3711C202.983 81.5625 203.152 81.7904 203.279 82.0547C203.407 82.319 203.471 82.6152 203.471 82.9434C203.471 83.3717 203.38 83.7728 203.197 84.1465C203.015 84.5202 202.773 84.8438 202.473 85.1172C202.172 85.3906 201.826 85.6139 201.434 85.7871C201.042 85.9512 200.641 86.0423 200.23 86.0605C200.267 86.3249 200.372 86.5163 200.545 86.6348C200.727 86.7533 200.941 86.8125 201.188 86.8125C201.37 86.8125 201.548 86.7669 201.721 86.6758C201.894 86.5846 202.062 86.4844 202.227 86.375C202.391 86.2565 202.55 86.1517 202.705 86.0605C202.869 85.9694 203.033 85.9238 203.197 85.9238C203.38 85.9238 203.544 85.9831 203.689 86.1016C203.835 86.2201 203.908 86.375 203.908 86.5664ZM201.693 83.2168C201.693 83.0983 201.661 82.9753 201.598 82.8477C201.534 82.7201 201.434 82.6562 201.297 82.6562C201.096 82.6562 200.928 82.7109 200.791 82.8203C200.654 82.9206 200.54 83.0527 200.449 83.2168C200.358 83.3717 200.285 83.5404 200.23 83.7227C200.185 83.9049 200.158 84.0736 200.148 84.2285C200.276 84.2012 200.426 84.1647 200.6 84.1191C200.782 84.0736 200.951 84.0143 201.105 83.9414C201.27 83.8594 201.406 83.7591 201.516 83.6406C201.634 83.5221 201.693 83.3809 201.693 83.2168ZM208.461 81.4805C208.461 81.7448 208.37 81.9408 208.188 82.0684C208.014 82.196 207.818 82.319 207.6 82.4375C207.381 82.5469 207.18 82.679 206.998 82.834C206.825 82.9889 206.738 83.2214 206.738 83.5312C206.738 83.6953 206.775 83.8366 206.848 83.9551C206.93 84.0736 207.025 84.1829 207.135 84.2832C207.253 84.3743 207.381 84.4701 207.518 84.5703C207.654 84.6706 207.777 84.7845 207.887 84.9121C208.005 85.0397 208.101 85.1947 208.174 85.377C208.256 85.5592 208.297 85.7826 208.297 86.0469C208.297 86.4297 208.197 86.8079 207.996 87.1816C207.805 87.5462 207.554 87.8743 207.244 88.166C206.943 88.4486 206.602 88.6764 206.219 88.8496C205.836 89.0228 205.458 89.1094 205.084 89.1094C204.929 89.1094 204.774 89.0957 204.619 89.0684C204.464 89.0501 204.323 89.0091 204.195 88.9453C204.077 88.8815 203.977 88.7949 203.895 88.6855C203.812 88.5671 203.771 88.4167 203.771 88.2344C203.771 87.9792 203.822 87.7832 203.922 87.6465C204.022 87.5007 204.15 87.3867 204.305 87.3047C204.46 87.2227 204.624 87.1589 204.797 87.1133C204.979 87.0677 205.148 87.013 205.303 86.9492C205.458 86.8763 205.585 86.7852 205.686 86.6758C205.786 86.5664 205.836 86.4115 205.836 86.2109C205.836 86.0195 205.758 85.8236 205.604 85.623C205.458 85.4134 205.294 85.1947 205.111 84.9668C204.929 84.7298 204.76 84.4792 204.605 84.2148C204.46 83.9505 204.387 83.6589 204.387 83.3398C204.387 82.9479 204.464 82.5879 204.619 82.2598C204.783 81.9225 204.997 81.6309 205.262 81.3848C205.535 81.1387 205.845 80.9473 206.191 80.8105C206.538 80.6647 206.902 80.5918 207.285 80.5918C207.431 80.5918 207.572 80.6055 207.709 80.6328C207.855 80.6602 207.982 80.7103 208.092 80.7832C208.201 80.847 208.288 80.9382 208.352 81.0566C208.424 81.166 208.461 81.3073 208.461 81.4805ZM215.146 81.6445C215.146 81.9362 215.069 82.2096 214.914 82.4648C214.768 82.7109 214.581 82.9434 214.354 83.1621C214.135 83.3717 213.889 83.5586 213.615 83.7227C213.351 83.8776 213.105 84.0007 212.877 84.0918C212.932 84.5293 212.959 84.9805 212.959 85.4453C212.959 85.6003 212.954 85.7734 212.945 85.9648C212.945 86.1562 212.918 86.3385 212.863 86.5117C212.818 86.6758 212.736 86.8171 212.617 86.9355C212.508 87.054 212.348 87.1133 212.139 87.1133C211.774 87.1133 211.528 86.931 211.4 86.5664C211.355 86.4297 211.318 86.2474 211.291 86.0195C211.264 85.7826 211.241 85.541 211.223 85.2949C211.214 85.0397 211.209 84.7936 211.209 84.5566C211.209 84.3197 211.209 84.1237 211.209 83.9688C211.209 83.8411 211.214 83.6908 211.223 83.5176C211.241 83.3444 211.286 83.2031 211.359 83.0938C211.441 82.9753 211.578 82.8613 211.77 82.752C211.961 82.6335 212.157 82.5104 212.357 82.3828C212.567 82.2552 212.749 82.1139 212.904 81.959C213.059 81.804 213.137 81.6217 213.137 81.4121C213.137 81.2572 213.1 81.1159 213.027 80.9883C212.954 80.8607 212.859 80.7559 212.74 80.6738C212.631 80.5827 212.503 80.5143 212.357 80.4688C212.221 80.4141 212.079 80.3867 211.934 80.3867C211.587 80.3867 211.314 80.446 211.113 80.5645C210.913 80.6738 210.74 80.7969 210.594 80.9336C210.457 81.0612 210.325 81.1842 210.197 81.3027C210.079 81.4121 209.924 81.4668 209.732 81.4668C209.514 81.4668 209.313 81.3893 209.131 81.2344C208.958 81.0794 208.871 80.8926 208.871 80.6738C208.871 80.3184 208.976 80.0176 209.186 79.7715C209.395 79.5163 209.655 79.3158 209.965 79.1699C210.275 79.015 210.603 78.9056 210.949 78.8418C211.296 78.7689 211.605 78.7324 211.879 78.7324C212.243 78.7324 212.617 78.8145 213 78.9785C213.392 79.1335 213.743 79.3431 214.053 79.6074C214.372 79.8717 214.632 80.1816 214.832 80.5371C215.042 80.8926 215.146 81.2617 215.146 81.6445ZM213.123 88.2891C213.123 88.444 213.082 88.5762 213 88.6855C212.927 88.7949 212.831 88.8861 212.713 88.959C212.604 89.0319 212.476 89.0866 212.33 89.123C212.193 89.1595 212.061 89.1777 211.934 89.1777C211.724 89.1777 211.528 89.1276 211.346 89.0273C211.173 88.9271 211.086 88.763 211.086 88.5352C211.086 88.3893 211.122 88.2617 211.195 88.1523C211.277 88.0339 211.378 87.9336 211.496 87.8516C211.615 87.7695 211.742 87.7103 211.879 87.6738C212.025 87.6283 212.161 87.6055 212.289 87.6055C212.499 87.6055 212.69 87.6602 212.863 87.7695C213.036 87.8789 213.123 88.0521 213.123 88.2891Z" fill="white"/>
<defs>
<filter id="filter0_i_871_289" x="29" y="50" width="200" height="102" filterUnits="userSpaceOnUse" color-interpolation-filters="sRGB">
<feFlood flood-opacity="0" result="BackgroundImageFix"/>
<feBlend mode="normal" in="SourceGraphic" in2="BackgroundImageFix" result="shape"/>
<feColorMatrix in="SourceAlpha" type="matrix" values="0 0 0 0 0 0 0 0 0 0 0 0 0 0 0 0 0 0 127 0" result="hardAlpha"/>
<feOffset dy="4"/>
<feGaussianBlur stdDeviation="2"/>
<feComposite in2="hardAlpha" operator="arithmetic" k2="-1" k3="1"/>
<feColorMatrix type="matrix" values="0 0 0 0 0 0 0 0 0 0 0 0 0 0 0 0 0 0 0.25 0"/>
<feBlend mode="normal" in2="shape" result="effect1_innerShadow_871_289"/>
</filter>
</defs>
</svg>
