<svg xmlns="http://www.w3.org/2000/svg" width="277" height="141" fill="none" viewBox="0 0 277 141"><g filter="url(#a)"><path fill="#00d287" fill-rule="evenodd" d="M38.324 68.273C35.392 63.267 34 57.943 34 52.465c0-18.273 20.63-36.325 54.757-45.25C105.31 2.885 124.758 1 147.103 1c68.415 0 131.507 18.644 128.814 51.465 0 16.286-11.677 31.261-35.458 40.201-15.846 5.957-36.824 8.934-64.181 8.934-48.492 2.914-85.166-1.96-108.617-11.264-8.59-3.409-15.407-7.412-20.595-11.847-17.023 2.628-27.832 11.06-45.37 25.713 11.638-17.329 19.2-28.076 36.628-35.93" clip-rule="evenodd"/></g><path fill="#00d287" d="m38.324 68.273.41.911a1 1 0 0 0 .453-1.417zM88.757 7.215l-.253-.968zm187.16 45.25-.997-.081-.003.081zm-35.458 40.201.352.937zm-64.181 8.934v-1l-.06.002zM67.661 90.336l-.368.93zM47.066 78.489l.65-.76a1 1 0 0 0-.802-.229zm-45.37 25.713-.83-.557a1 1 0 0 0 1.471 1.324zM33 52.465c0 5.655 1.438 11.154 4.461 16.313l1.726-1.01C36.345 62.915 35 57.766 35 52.464zM88.504 6.247c-17.166 4.49-31 11.29-40.566 19.322C38.379 33.595 33 42.932 33 52.465h2c0-8.74 4.936-17.565 14.224-25.365 9.28-7.793 22.824-14.482 39.786-18.918zM147.103 0c-22.395 0-41.935 1.889-58.599 6.247l.506 1.935C105.452 3.882 124.808 2 147.103 2zm129.81 52.547c.704-8.577-2.91-16.174-9.673-22.69-6.744-6.497-16.659-11.965-28.721-16.372C214.385 4.67 181.383 0 147.103 0v2c34.135 0 66.886 4.653 90.729 13.364 11.926 4.357 21.555 9.704 28.021 15.934 6.447 6.211 9.71 13.252 9.067 21.086zm-36.102 41.056c24.006-9.025 36.106-24.284 36.106-41.138h-2c0 15.717-11.254 30.41-34.81 39.265zm-64.533 8.997c27.415 0 48.529-2.981 64.533-8.997l-.704-1.873c-15.687 5.898-36.531 8.87-63.829 8.87zM67.293 91.266c23.641 9.38 60.48 14.251 109.045 11.332l-.12-1.996C127.8 103.512 91.29 98.635 68.03 89.406zM46.417 79.249c5.289 4.522 12.206 8.577 20.876 12.017l.737-1.86c-8.513-3.377-15.227-7.329-20.314-11.677zm-44.08 25.72c17.556-14.668 28.168-22.911 44.882-25.492l-.305-1.977c-17.333 2.677-28.338 11.295-45.86 25.935zm35.576-37.608C20.201 75.34 12.505 86.314.866 103.645l1.66 1.115c11.637-17.328 19.063-27.85 36.209-35.576z"/><path fill="#fff" d="M77.248 34.672q0 .738-.328 1.45-.314.71-.848 1.284a4.9 4.9 0 0 1-1.216.93q-.684.356-1.409.396-.014.247-.027.63 0 .368-.041.779a9 9 0 0 1-.123.82q-.069.41-.219.738a1.4 1.4 0 0 1-.369.533.77.77 0 0 1-.547.206.79.79 0 0 1-.615-.26 1.8 1.8 0 0 1-.342-.602 4 4 0 0 1-.15-.738 13 13 0 0 1-.055-.67 24 24 0 0 1-.041-.78v-2.542l.027-1.3a46 46 0 0 1 .096-2.255q.041-.41.096-.478a1 1 0 0 1 .082-.055 1 1 0 0 1 .15-.096 4 4 0 0 1 .246-.15q.63-.355 1.381-.616.752-.26 1.49-.26.63 0 1.135.26.52.247.875.67.37.41.56.971.192.547.192 1.135m-2.365.314a.84.84 0 0 0-.137-.478q-.123-.205-.424-.205a1.3 1.3 0 0 0-.52.11 5 5 0 0 0-.478.204q.041.48.069.93.04.45.013.93.22-.11.479-.246.26-.15.478-.329.22-.177.37-.396.15-.232.15-.52m5.29 7.41q-.697 0-1.216-.369a3.2 3.2 0 0 1-.875-.943 4.5 4.5 0 0 1-.533-1.272 5.7 5.7 0 0 1-.178-1.394q0-.725.178-1.49.177-.78.547-1.408.369-.643.943-1.04.575-.41 1.367-.41.766 0 1.3.424.546.41.874 1.04.328.614.465 1.353a5.7 5.7 0 0 1 .096 1.394q-.041.725-.233 1.463a4.7 4.7 0 0 1-.533 1.326q-.356.588-.902.957-.547.37-1.3.37m.138-6.18q-.205 0-.37.22-.15.218-.26.533-.095.315-.15.67a4 4 0 0 0-.054.601q0 .329.054.711.069.383.178.711.11.315.26.533.164.205.369.205.219 0 .369-.205.164-.205.26-.52.096-.314.136-.683.041-.383.041-.71 0-.302-.054-.657a4 4 0 0 0-.164-.684 1.5 1.5 0 0 0-.26-.52q-.15-.204-.355-.204m8.271.67a.9.9 0 0 1-.328-.027l-.273-.109a3 3 0 0 0-.247-.096.54.54 0 0 0-.273-.04q-.273.013-.492.15a2 2 0 0 0-.383.341q-.165.205-.287.465a3 3 0 0 0-.192.492q-.04.165-.068.506-.014.33-.014.711-.013.397-.013.752 0 .356-.028.56-.013.22-.068.52a2.3 2.3 0 0 1-.178.547 1.25 1.25 0 0 1-.3.438.7.7 0 0 1-.493.177.65.65 0 0 1-.41-.136 1.3 1.3 0 0 1-.287-.356 3.3 3.3 0 0 1-.191-.533 7 7 0 0 1-.11-.615q-.04-.329-.068-.656l-.027-.616v-.546q.013-.247.013-.397a17 17 0 0 0-.054-.957 18 18 0 0 1-.028-.97q0-.302.028-.67.027-.37.15-.684.123-.328.355-.547.247-.219.67-.219.232 0 .397.15t.26.37q.109.218.164.465.054.245.068.45.328-.533.738-.86.411-.343 1.067-.37.328-.014.642.069.329.068.588.246.273.164.438.437.177.273.191.643.028.437-.26.67a1.14 1.14 0 0 1-.697.246m10.186 2.68q0 .466-.301.916a3.4 3.4 0 0 1-.739.793 4.3 4.3 0 0 1-.943.56 2.5 2.5 0 0 1-.93.206q-.725 0-1.298-.355a3.4 3.4 0 0 1-.944-.93 4.5 4.5 0 0 1-.588-1.23 5 5 0 0 1-.191-1.327q0-.684.191-1.463.192-.78.575-1.435.396-.657.984-1.094.601-.437 1.422-.437.465 0 .888.164a2.15 2.15 0 0 1 1.245 1.12q.19.397.191.89 0 .642-.273 1.203a3.2 3.2 0 0 1-.725.97q-.45.41-1.039.67a3.5 3.5 0 0 1-1.203.273q.054.397.314.575.274.177.643.178.273 0 .533-.137t.506-.301q.246-.177.478-.315.247-.136.493-.136a.76.76 0 0 1 .492.178.57.57 0 0 1 .219.464m-2.215-3.35a.8.8 0 0 0-.096-.368.32.32 0 0 0-.3-.192q-.302 0-.507.164-.204.15-.341.397a2.3 2.3 0 0 0-.22.506q-.067.273-.081.505.191-.04.451-.109.273-.068.506-.178.245-.123.41-.3a.58.58 0 0 0 .178-.424m6.767-1.736q0 .397-.273.588-.26.192-.588.37-.328.163-.602.396-.26.232-.259.697 0 .246.109.424.123.178.287.328.178.137.383.287t.369.342q.178.192.287.465.123.273.123.67 0 .574-.301 1.135a3.73 3.73 0 0 1-1.777 1.668q-.574.26-1.135.26-.233 0-.465-.042a1.3 1.3 0 0 1-.423-.123.9.9 0 0 1-.301-.26.8.8 0 0 1-.123-.45q0-.384.15-.588.15-.219.383-.342a2.3 2.3 0 0 1 .492-.192q.273-.068.506-.164.233-.11.383-.273.15-.165.15-.465 0-.287-.232-.588-.219-.315-.492-.656a7 7 0 0 1-.506-.752 1.8 1.8 0 0 1-.219-.875q0-.588.233-1.08.246-.507.642-.875.41-.37.93-.575a2.8 2.8 0 0 1 1.094-.218q.218 0 .423.04.22.042.383.151.165.096.26.274a.75.75 0 0 1 .109.423m4.553 0q0 .397-.273.588-.261.192-.588.37-.329.163-.602.396-.26.232-.26.697 0 .246.11.424.123.178.287.328.177.137.383.287.204.15.369.342.177.192.287.465.123.273.123.67 0 .574-.301 1.135a3.7 3.7 0 0 1-.752.984q-.451.424-1.025.684t-1.135.26q-.233 0-.465-.042a1.3 1.3 0 0 1-.424-.123.9.9 0 0 1-.3-.26.8.8 0 0 1-.123-.45q0-.384.15-.588.15-.219.383-.342t.492-.192q.273-.068.506-.164.232-.11.383-.273.15-.165.15-.465 0-.287-.232-.588a12 12 0 0 0-.493-.656 7 7 0 0 1-.505-.752 1.8 1.8 0 0 1-.219-.875q0-.588.232-1.08.246-.507.643-.875.41-.37.93-.575.519-.218 1.093-.218.219 0 .424.04.22.042.383.151a.7.7 0 0 1 .26.274.75.75 0 0 1 .109.423m6.275 5.086q0 .466-.3.916a3.4 3.4 0 0 1-.739.793 4.3 4.3 0 0 1-.943.56 2.5 2.5 0 0 1-.93.206q-.725 0-1.298-.355a3.4 3.4 0 0 1-.944-.93 4.5 4.5 0 0 1-.588-1.23 5 5 0 0 1-.191-1.327q0-.684.191-1.463.192-.78.574-1.435.397-.657.985-1.094.601-.437 1.422-.437.465 0 .888.164a2.15 2.15 0 0 1 1.245 1.12q.19.397.191.89 0 .642-.273 1.203a3.2 3.2 0 0 1-.725.97 3.8 3.8 0 0 1-1.039.67 3.5 3.5 0 0 1-1.203.273q.054.397.314.575.274.177.643.178.273 0 .533-.137a6 6 0 0 0 .506-.301q.246-.177.478-.315.246-.136.493-.136a.76.76 0 0 1 .492.178.57.57 0 0 1 .218.464m-2.214-3.35a.8.8 0 0 0-.096-.368.32.32 0 0 0-.301-.192q-.3 0-.506.164-.204.15-.342.397a2.3 2.3 0 0 0-.218.506q-.069.273-.082.505.191-.04.451-.109a3 3 0 0 0 .506-.178q.245-.123.41-.3a.58.58 0 0 0 .178-.424m14.355 1.272v.711q0 .437-.027.957a11 11 0 0 1-.082 1.053 4.7 4.7 0 0 1-.219.943 2.2 2.2 0 0 1-.356.698.68.68 0 0 1-.56.273.53.53 0 0 1-.465-.246 2 2 0 0 1-.219-.602 4.5 4.5 0 0 1-.082-.697v-.56q0-.616.041-1.203t.041-1.204v-.246q0-.177-.027-.355a1 1 0 0 0-.096-.315q-.054-.136-.177-.136-.247 0-.397.26-.15.245-.246.587a4.6 4.6 0 0 0-.137.684q-.04.329-.054.492a7 7 0 0 0-.055.533q-.013.355-.055.78a8 8 0 0 1-.109.874q-.069.438-.192.807a1.9 1.9 0 0 1-.287.588.53.53 0 0 1-.437.233.56.56 0 0 1-.506-.288 2.1 2.1 0 0 1-.26-.67 5.5 5.5 0 0 1-.109-.779q-.014-.397-.014-.615v-.451q.014-.22.014-.451v-.315q0-.219-.014-.478 0-.275-.027-.56a4 4 0 0 0-.055-.52 1.3 1.3 0 0 0-.123-.397q-.082-.15-.191-.15-.178 0-.328.232a2.2 2.2 0 0 0-.26.533 5 5 0 0 0-.178.602q-.055.3-.055.437v.082q0 .657.082 1.285.082.63.082 1.286 0 .383-.246.71-.246.315-.683.315a.66.66 0 0 1-.52-.232 2.1 2.1 0 0 1-.342-.63 5 5 0 0 1-.218-.833q-.069-.464-.096-.903-.027-.451-.041-.806v-.547q0-.205-.014-.602 0-.396.014-.861.027-.465.082-.943.054-.492.178-.889.123-.397.314-.643a.64.64 0 0 1 .52-.26q.355 0 .574.192.232.193.232.574 0 .083-.013.164a1 1 0 0 1-.014.15q.15-.217.369-.437.219-.232.465-.41.26-.192.547-.3.287-.124.574-.124a.85.85 0 0 1 .492.15q.22.15.383.383.164.22.273.479.11.26.151.492.136-.246.328-.492a3 3 0 0 1 .437-.451q.233-.192.506-.315.288-.123.588-.123.288 0 .492.205.206.206.356.534.15.314.232.724.083.397.137.793.054.383.068.725.014.328.014.52m3.5 4.909q-.697 0-1.217-.37a3.2 3.2 0 0 1-.875-.943 4.5 4.5 0 0 1-.533-1.272 5.8 5.8 0 0 1-.178-1.394q0-.725.178-1.49.178-.78.547-1.408.369-.643.943-1.04.575-.41 1.367-.41.766 0 1.299.424.548.41.875 1.04.329.614.465 1.353.137.738.096 1.394-.04.725-.233 1.463a4.6 4.6 0 0 1-.533 1.326q-.356.588-.902.957-.547.37-1.299.37m.137-6.18q-.205 0-.369.218a2.2 2.2 0 0 0-.26.534 5 5 0 0 0-.151.67 4 4 0 0 0-.054.601q0 .329.054.711.069.383.178.711.11.315.26.533.163.205.369.205.219 0 .369-.205.165-.205.26-.52.096-.314.137-.683.04-.383.041-.71 0-.302-.055-.657a3.7 3.7 0 0 0-.164-.684 1.5 1.5 0 0 0-.26-.52q-.15-.204-.355-.204m6.713 6.275q-.97 0-1.518-.26a1.77 1.77 0 0 1-.807-.71q-.26-.465-.314-1.122a18 18 0 0 1-.055-1.462q0-.643.041-1.286.042-.656.123-1.394-.19 0-.3.014h-.178a1.4 1.4 0 0 1-.752-.192.63.63 0 0 1-.328-.588q0-.246.191-.437.179-.192.465-.328.287-.137.615-.22.342-.08.643-.109 0-.382.055-.847.054-.465.191-.861.15-.411.396-.684a.8.8 0 0 1 .629-.274.58.58 0 0 1 .383.137.9.9 0 0 1 .287.328q.11.192.164.438t.055.478q0 .275-.041.56a7 7 0 0 1-.15.712q.232-.027.314-.028a1 1 0 0 1 .15-.013q.233 0 .479.04.26.042.465.138.219.095.355.26a.53.53 0 0 1 .137.368q0 .247-.205.438a1.7 1.7 0 0 1-.492.328 3.6 3.6 0 0 1-.643.219 6 6 0 0 1-.642.096q-.083.56-.123 1.038-.028.465-.069.944l-.055.478a8 8 0 0 0 0 .903q.014.233.096.45a1 1 0 0 0 .26.384q.177.15.492.15.192 0 .397-.027.204-.041.41-.041.355 0 .506.246.164.246.164.629 0 .287-.178.506a1.2 1.2 0 0 1-.424.328 2.2 2.2 0 0 1-.588.205q-.314.068-.601.068m4.32-10.035a.56.56 0 0 1-.109.342q-.096.15-.26.273-.165.11-.356.178a1.3 1.3 0 0 1-.355.055.85.85 0 0 1-.479-.137q-.204-.137-.205-.424 0-.205.096-.355a.9.9 0 0 1 .26-.26q.15-.11.342-.164.19-.055.369-.055.26 0 .478.123.219.123.219.424m.109 4.648v.41q0 .206-.013.397-.014.233-.014.629 0 .383-.027.834-.028.45-.096.916-.054.465-.191.848a1.8 1.8 0 0 1-.37.629.78.78 0 0 1-.56.246.51.51 0 0 1-.438-.205 1.9 1.9 0 0 1-.3-.561 4.6 4.6 0 0 1-.164-.78q-.055-.436-.083-.833a12 12 0 0 1-.027-.752v-1.121q0-.41.027-.875.029-.465.096-.944.083-.478.219-.875.15-.396.383-.642a.77.77 0 0 1 .588-.246q.37 0 .56.369.192.369.287.861.096.492.11.985.013.478.013.71m6.864 0a66 66 0 0 1-.78 1.97 19 19 0 0 1-.916 1.913q-.3.547-.67.916a1.2 1.2 0 0 1-.847.356q-.383 0-.752-.383a6 6 0 0 1-.67-.93 12 12 0 0 1-.533-1.094q-.22-.56-.328-.888a32 32 0 0 0-.247-.793 14 14 0 0 1-.246-.861 10 10 0 0 1-.177-.862 5 5 0 0 1-.069-.82q0-.533.192-.875.19-.342.752-.342.218 0 .396.137.178.123.328.355t.287.547q.137.3.26.67.123.355.233.738.108.384.218.739.11.356.219.697.123.328.314.656l.479-1.23q.15-.356.314-.725.165-.383.356-.738.37-.738.779-1.258.425-.52.834-.52.383 0 .547.233.164.232.164.602 0 .368-.123.833a9 9 0 0 1-.314.957m3.513 5.292q-.697 0-1.216-.37a3.2 3.2 0 0 1-.875-.943 4.5 4.5 0 0 1-.534-1.272 5.8 5.8 0 0 1-.177-1.394q0-.725.177-1.49.178-.78.547-1.408.37-.643.944-1.04.573-.41 1.367-.41.765 0 1.299.424.546.41.875 1.04.327.614.464 1.353.137.738.096 1.394-.041.725-.232 1.463a4.7 4.7 0 0 1-.534 1.326 3 3 0 0 1-.902.957q-.546.37-1.299.37m.137-6.18q-.205 0-.369.218-.15.219-.26.534a5 5 0 0 0-.15.67 4 4 0 0 0-.055.601q0 .329.055.711.068.383.177.711.11.315.26.533.165.205.369.205.219 0 .37-.205.163-.205.259-.52.096-.314.137-.683.04-.383.041-.71 0-.302-.055-.657a3.7 3.7 0 0 0-.164-.684 1.6 1.6 0 0 0-.259-.52q-.151-.204-.356-.204m5.496 5.058q0 .22-.123.56a4 4 0 0 1-.287.67 2.3 2.3 0 0 1-.383.561q-.219.233-.424.233-.273 0-.273-.274a.8.8 0 0 1 .068-.314q.069-.15.151-.3.081-.138.15-.288a.6.6 0 0 0 .068-.273.77.77 0 0 1-.437.136.69.69 0 0 1-.533-.246.8.8 0 0 1-.219-.547q0-.437.287-.697.287-.273.725-.273.492 0 .861.26t.369.792m9.652-1.203q0 .246-.027.643a3.7 3.7 0 0 1-.109.78q-.096.368-.301.642a.68.68 0 0 1-.574.273q-.505 0-.78-.328-.273-.328-.259-.82a3.4 3.4 0 0 1-.998.601 3 3 0 0 1-1.121.219q-.397 0-.752-.191a2.3 2.3 0 0 1-.629-.493 2.5 2.5 0 0 1-.438-.67 1.9 1.9 0 0 1-.164-.751q0-.656.397-1.149.41-.492.998-.834a5.7 5.7 0 0 1 1.244-.56 7.4 7.4 0 0 1 1.189-.274v-.123a.5.5 0 0 0 .014-.123q0-.423-.232-.684-.232-.26-.657-.26a1.3 1.3 0 0 0-.588.124q-.246.11-.464.26-.219.135-.438.26-.219.108-.492.109a.76.76 0 0 1-.52-.192.65.65 0 0 1-.205-.492q0-.45.26-.82.274-.369.67-.616.41-.26.875-.396.479-.15.875-.15.369 0 .738.095.37.082.697.274.328.178.588.451.274.26.438.615.246.506.396 1.08.151.56.233 1.162.082.588.109 1.19.027.588.027 1.148m-2.187-.437-.041-.93h-.055a.1.1 0 0 0-.054-.014q-.178 0-.452.096a2 2 0 0 0-.505.246q-.247.15-.424.342a.6.6 0 0 0-.164.397q0 .19.136.26a.7.7 0 0 0 .315.068q.3 0 .642-.15.342-.165.602-.315m7.014-5.154q0 .396-.274.587-.26.192-.588.37-.327.163-.601.396-.26.232-.26.697 0 .246.109.424.123.178.287.328.179.137.383.287t.369.342q.179.192.288.465.123.273.123.67 0 .574-.301 1.135a3.73 3.73 0 0 1-1.778 1.668q-.574.26-1.134.26-.233 0-.465-.042a1.3 1.3 0 0 1-.424-.123.9.9 0 0 1-.301-.26.8.8 0 0 1-.123-.45q0-.384.151-.588.15-.219.382-.342t.493-.192q.273-.068.505-.164.233-.11.383-.273.151-.165.151-.465 0-.287-.233-.588-.219-.315-.492-.656a7 7 0 0 1-.506-.752 1.8 1.8 0 0 1-.219-.875q0-.588.233-1.08.246-.507.642-.875.411-.37.93-.575a2.8 2.8 0 0 1 1.094-.218q.219 0 .424.04.219.042.383.151a.7.7 0 0 1 .259.274q.11.163.11.423m10.103 3.445q0 .6-.137 1.326a4.6 4.6 0 0 1-.437 1.326q-.3.615-.807 1.025-.492.41-1.244.41-.191 0-.396-.027a2 2 0 0 1-.397-.095 1.4 1.4 0 0 1-.328-.178.8.8 0 0 1-.232-.315l-.123 1.97q-.015.314-.028.751 0 .438-.109.834a1.5 1.5 0 0 1-.342.67q-.232.288-.684.287-.26 0-.437-.273a2.2 2.2 0 0 1-.287-.67 8 8 0 0 1-.151-.916q-.054-.506-.068-.97-.014-.465-.014-.849v-.56q0-.916-.013-1.819-.014-.915-.014-1.831v-.506q0-.356.027-.766.028-.41.082-.848.069-.437.192-.793a1.7 1.7 0 0 1 .314-.587.58.58 0 0 1 .465-.233q.178 0 .315.11.15.095.246.26.11.15.177.327.068.178.11.329.423-.48.971-.725.56-.246 1.189-.246.657 0 1.066.369.424.369.657.916.246.546.341 1.176.096.615.096 1.12m-1.955-.11q0-.204-.041-.41a1.1 1.1 0 0 0-.123-.396.67.67 0 0 0-.246-.301.66.66 0 0 0-.41-.123q-.328 0-.697.219a1.54 1.54 0 0 0-.534.478q-.068.11-.082.356a7 7 0 0 0-.013.369v.26a43 43 0 0 1 .054.629q.028.15.069.232.04.123.177.232.138.096.301.178.165.083.328.123.178.041.301.041a.57.57 0 0 0 .465-.219q.178-.218.273-.52.11-.3.137-.614a5 5 0 0 0 .041-.534m8.518 1.75q0 .466-.301.916a3.4 3.4 0 0 1-.738.793 4.3 4.3 0 0 1-.944.56 2.5 2.5 0 0 1-.929.206q-.725 0-1.299-.355a3.4 3.4 0 0 1-.944-.93 4.5 4.5 0 0 1-.588-1.23 5 5 0 0 1-.191-1.327q0-.684.191-1.463.191-.78.575-1.435a3.8 3.8 0 0 1 .984-1.094q.601-.437 1.422-.437.465 0 .889.164a2.15 2.15 0 0 1 1.244 1.12q.19.397.191.89 0 .642-.273 1.203a3.2 3.2 0 0 1-.725.97 3.8 3.8 0 0 1-1.039.67 3.5 3.5 0 0 1-1.203.273q.054.397.314.575.274.177.643.178.273 0 .533-.137a6 6 0 0 0 .506-.301 6 6 0 0 1 .479-.315q.246-.136.492-.136a.76.76 0 0 1 .492.178.57.57 0 0 1 .219.464m-2.215-3.35a.8.8 0 0 0-.096-.368.32.32 0 0 0-.301-.192q-.3 0-.506.164-.204.15-.341.397a2.3 2.3 0 0 0-.219.506q-.069.273-.082.505.191-.04.451-.109a3 3 0 0 0 .506-.178q.246-.123.41-.3a.58.58 0 0 0 .178-.424m6.767-1.736q0 .397-.273.588-.26.192-.588.37-.328.163-.602.396-.26.232-.259.697 0 .246.109.424.123.178.287.328.178.137.383.287t.369.342q.178.192.287.465.123.273.123.67 0 .574-.3 1.135a3.75 3.75 0 0 1-1.778 1.668q-.574.26-1.135.26-.232 0-.464-.042a1.3 1.3 0 0 1-.424-.123.9.9 0 0 1-.301-.26.8.8 0 0 1-.123-.45q0-.384.15-.588.151-.219.383-.342t.492-.192q.274-.068.506-.164.233-.11.383-.273.15-.165.15-.465 0-.287-.232-.588-.219-.315-.492-.656a7 7 0 0 1-.506-.752 1.8 1.8 0 0 1-.219-.875q0-.588.233-1.08.246-.507.642-.875.411-.37.93-.575a2.8 2.8 0 0 1 1.094-.218q.218 0 .423.04.22.042.383.151.165.096.26.274a.75.75 0 0 1 .109.423m4.553 0q0 .397-.273.588-.26.192-.588.37-.328.163-.602.396-.26.232-.26.697 0 .246.11.424.123.178.287.328.177.137.383.287.205.15.369.342.177.192.287.465.123.273.123.67 0 .574-.301 1.135a3.7 3.7 0 0 1-.752.984q-.45.424-1.025.684-.574.26-1.135.26-.233 0-.465-.042a1.3 1.3 0 0 1-.424-.123.9.9 0 0 1-.3-.26.8.8 0 0 1-.123-.45q0-.384.15-.588.15-.219.383-.342.232-.123.492-.192.273-.068.506-.164.232-.11.383-.273.15-.165.15-.465 0-.287-.232-.588-.219-.315-.492-.656a7 7 0 0 1-.506-.752 1.8 1.8 0 0 1-.219-.875q0-.588.232-1.08.246-.507.643-.875.41-.37.93-.575a2.8 2.8 0 0 1 1.093-.218q.219 0 .424.04.22.042.383.151a.7.7 0 0 1 .26.274.75.75 0 0 1 .109.423m3.145 7.917q-.698 0-1.217-.37a3.2 3.2 0 0 1-.875-.943 4.5 4.5 0 0 1-.533-1.272 5.7 5.7 0 0 1-.178-1.394q0-.725.178-1.49.177-.78.547-1.408.369-.643.943-1.04.574-.41 1.367-.41.765 0 1.299.424.546.41.875 1.04.328.614.465 1.353.137.738.095 1.394-.04.725-.232 1.463a4.6 4.6 0 0 1-.533 1.326q-.355.588-.903.957-.546.37-1.298.37m.136-6.18q-.204 0-.369.218-.15.219-.26.534a5 5 0 0 0-.205 1.271q0 .329.055.711.069.383.178.711.109.315.26.533.164.205.369.205.219 0 .369-.205.164-.205.26-.52.095-.314.136-.683.041-.383.041-.71 0-.302-.054-.657a4 4 0 0 0-.164-.684 1.6 1.6 0 0 0-.26-.52q-.15-.204-.356-.204m9.338 3.855q0 .246-.027.643a3.8 3.8 0 0 1-.109.78q-.096.368-.301.642a.68.68 0 0 1-.574.273q-.506 0-.78-.328-.273-.328-.26-.82a3.3 3.3 0 0 1-.998.601 3 3 0 0 1-1.121.219q-.396 0-.752-.191a2.4 2.4 0 0 1-.629-.493 2.5 2.5 0 0 1-.437-.67 1.9 1.9 0 0 1-.164-.751q0-.656.396-1.149a3.7 3.7 0 0 1 .998-.834 5.7 5.7 0 0 1 1.245-.56 7.4 7.4 0 0 1 1.189-.274v-.123a.5.5 0 0 0 .014-.123q0-.423-.233-.684-.232-.26-.656-.26a1.3 1.3 0 0 0-.588.124q-.246.11-.465.26-.218.135-.437.26-.219.108-.492.109a.76.76 0 0 1-.52-.192.64.64 0 0 1-.205-.492q0-.45.26-.82.273-.369.67-.616.41-.26.875-.396.478-.15.875-.15.369 0 .738.095.37.082.697.274.328.178.588.451.273.26.438.615.246.506.396 1.08.15.56.233 1.162.081.588.109 1.19.027.588.027 1.148m-2.187-.437-.041-.93h-.055a.1.1 0 0 0-.055-.014 1.4 1.4 0 0 0-.451.096 2 2 0 0 0-.506.246q-.246.15-.423.342a.6.6 0 0 0-.165.397q0 .19.137.26a.7.7 0 0 0 .315.068q.3 0 .642-.15.342-.165.602-.315m7.013-5.154q0 .396-.273.587-.26.192-.588.37-.328.163-.601.396-.26.232-.26.697 0 .246.109.424.123.178.287.328.178.137.383.287t.369.342q.178.192.287.465.123.273.123.67 0 .574-.3 1.135a3.73 3.73 0 0 1-1.778 1.668q-.574.26-1.135.26-.231 0-.464-.042a1.3 1.3 0 0 1-.424-.123.9.9 0 0 1-.301-.26.8.8 0 0 1-.123-.45q0-.384.15-.588.151-.219.383-.342.233-.123.492-.192.274-.068.506-.164.233-.11.383-.273.15-.165.15-.465 0-.287-.232-.588-.219-.315-.492-.656a7 7 0 0 1-.506-.752 1.8 1.8 0 0 1-.219-.875q0-.588.233-1.08.246-.507.642-.875.411-.37.93-.575a2.8 2.8 0 0 1 1.094-.218q.218 0 .423.04.22.042.383.151.165.096.26.274a.75.75 0 0 1 .109.423m8.915 2.269a.8.8 0 0 1-.055.287q-.123.315-.383.533a.96.96 0 0 1-.615.205q-.534 0-.725-.533a.4.4 0 0 1-.027-.15 1.4 1.4 0 0 0-.014-.192v-.396a.8.8 0 0 0-.096-.3q-.068-.11-.232-.11-.232 0-.451.3a3.3 3.3 0 0 0-.369.698 6 6 0 0 0-.246.82q-.096.424-.096.684 0 .204.027.506.027.287.11.56.081.273.218.479a.47.47 0 0 0 .383.191.7.7 0 0 0 .424-.137q.205-.15.397-.342.178-.164.382-.341a.76.76 0 0 1 .492-.178.64.64 0 0 1 .534.246q.204.246.205.56 0 .465-.246.876a2.8 2.8 0 0 1-.616.697 3 3 0 0 1-.82.451 2.4 2.4 0 0 1-.861.178q-.739 0-1.258-.37a2.9 2.9 0 0 1-.82-.929 4.4 4.4 0 0 1-.451-1.244 6.3 6.3 0 0 1-.137-1.272q0-.697.191-1.504a5.7 5.7 0 0 1 .588-1.517 3.8 3.8 0 0 1 1.012-1.162q.629-.465 1.49-.465.534 0 .916.232.397.232.643.616.26.369.382.834.138.465.137.916v.136a.7.7 0 0 1-.013.137m3.363 5.647q-.698 0-1.217-.37a3.2 3.2 0 0 1-.875-.943 4.5 4.5 0 0 1-.533-1.272 5.7 5.7 0 0 1-.178-1.394q0-.725.178-1.49.178-.78.547-1.408.369-.643.943-1.04.575-.41 1.367-.41.766 0 1.299.424.547.41.875 1.04.328.614.465 1.353.136.738.096 1.394-.041.725-.233 1.463a4.6 4.6 0 0 1-.533 1.326q-.356.588-.902.957-.548.37-1.299.37m.137-6.18q-.205 0-.37.218-.15.219-.259.534a5 5 0 0 0-.151.67 4 4 0 0 0-.054.601q0 .329.054.711.069.383.178.711.109.315.26.533.163.205.369.205.219 0 .369-.205.164-.205.26-.52.096-.314.136-.683.041-.383.041-.71 0-.302-.054-.657a4 4 0 0 0-.164-.684 1.6 1.6 0 0 0-.26-.52q-.15-.204-.355-.204m11.826 1.271v.711q0 .437-.028.957a10 10 0 0 1-.082 1.053q-.068.519-.218.943a2.2 2.2 0 0 1-.356.698.69.69 0 0 1-.56.273.53.53 0 0 1-.465-.246 2 2 0 0 1-.219-.602 4.4 4.4 0 0 1-.082-.697v-.56q0-.616.041-1.203.04-.588.041-1.204v-.246q0-.177-.027-.355a1.1 1.1 0 0 0-.096-.315q-.055-.136-.178-.136-.246 0-.396.26-.151.245-.246.587-.096.342-.137.684-.041.329-.055.492a8 8 0 0 0-.055.533q-.013.355-.054.78a8 8 0 0 1-.11.874q-.068.438-.191.807a1.9 1.9 0 0 1-.287.588.53.53 0 0 1-.438.233.56.56 0 0 1-.505-.288 2.1 2.1 0 0 1-.26-.67 6 6 0 0 1-.11-.779q-.013-.397-.013-.615v-.451q.013-.22.013-.451v-.315a9 9 0 0 0-.013-.478q0-.275-.028-.56a4 4 0 0 0-.054-.52 1.3 1.3 0 0 0-.123-.397q-.083-.15-.192-.15-.178 0-.328.232-.15.22-.26.533-.11.3-.177.602-.055.3-.055.437v.082q0 .657.082 1.285.082.63.082 1.286 0 .383-.246.71-.246.315-.684.315a.66.66 0 0 1-.519-.232 2 2 0 0 1-.342-.63 5.4 5.4 0 0 1-.219-.833q-.068-.464-.095-.903-.028-.451-.041-.806v-.547q0-.205-.014-.602 0-.396.014-.861.027-.465.082-.943.054-.492.177-.889t.315-.643a.63.63 0 0 1 .519-.26q.356 0 .574.192.233.193.233.574 0 .083-.014.164a1 1 0 0 1-.013.15q.15-.217.369-.437.218-.232.465-.41.26-.192.546-.3a1.45 1.45 0 0 1 .575-.124.85.85 0 0 1 .492.15q.219.15.383.383.164.22.273.479.11.26.15.492.137-.246.329-.492.204-.26.437-.451.233-.192.506-.315.286-.123.588-.123.287 0 .492.205.205.206.355.534.151.314.233.724.082.397.137.793.054.383.068.725.014.328.014.52M50.26 51.004q0 .998-.082 1.982a29 29 0 0 0-.069 1.983q0 .806.041 1.6.055.792.055 1.599 0 .22-.014.533-.013.3-.095.588a1.14 1.14 0 0 1-.246.492q-.165.205-.479.205a.89.89 0 0 1-.684-.3 1.5 1.5 0 0 1-.328-.698 2.34 2.34 0 0 1-.752.834 1.83 1.83 0 0 1-1.066.342q-.615 0-1.066-.424a3.7 3.7 0 0 1-.739-1.025 6 6 0 0 1-.437-1.258 5.7 5.7 0 0 1-.137-1.135 8.5 8.5 0 0 1 .178-1.668q.11-.45.273-.875.164-.437.41-.779.26-.342.602-.547.356-.205.807-.205.492 0 .943.287.45.288.684.711l.123-2.174q.013-.26.04-.601.028-.355.11-.67.096-.315.287-.533.192-.22.56-.22.397 0 .616.192t.314.492q.11.287.123.63.028.34.028.642m-2.229 6.07q0-.314-.013-.615-.015-.3 0-.615a8 8 0 0 0-.192-.383 1.7 1.7 0 0 0-.273-.396 1.4 1.4 0 0 0-.342-.315.75.75 0 0 0-.41-.123.54.54 0 0 0-.397.15q-.15.15-.219.37a2.2 2.2 0 0 0-.095.45q-.014.247-.014.425 0 .164.027.492.028.314.096.642.083.328.219.575.136.245.37.246a1 1 0 0 0 .355-.069q.177-.082.328-.191.165-.123.3-.26.15-.15.26-.273zm5.387-6.617a.57.57 0 0 1-.11.342q-.095.15-.26.273a1.6 1.6 0 0 1-.355.178 1.3 1.3 0 0 1-.355.055.84.84 0 0 1-.479-.137q-.205-.137-.205-.424 0-.205.096-.355a.9.9 0 0 1 .26-.26q.15-.11.342-.164.19-.055.369-.055a.96.96 0 0 1 .478.123q.219.123.219.424m.11 4.648v.41q0 .206-.014.397a11 11 0 0 0-.014.629q0 .383-.027.834-.028.45-.096.916-.055.465-.192.848a1.8 1.8 0 0 1-.369.629.78.78 0 0 1-.56.246.5.5 0 0 1-.438-.205 1.9 1.9 0 0 1-.3-.561 4.7 4.7 0 0 1-.165-.78q-.054-.436-.081-.833a11 11 0 0 1-.028-.752v-1.121q0-.41.028-.875.027-.465.095-.944.082-.478.219-.875.15-.396.383-.642a.77.77 0 0 1 .588-.246q.37 0 .56.369.192.369.287.861.096.492.11.985.013.478.013.71m6.78 2.967q0 .246-.027.643-.013.396-.11.78-.095.368-.3.642a.68.68 0 0 1-.574.273q-.506 0-.78-.328-.272-.328-.26-.82a3.4 3.4 0 0 1-.997.601 3 3 0 0 1-1.121.219q-.397 0-.752-.191a2.4 2.4 0 0 1-.63-.493 2.5 2.5 0 0 1-.437-.67 1.9 1.9 0 0 1-.164-.751q0-.656.397-1.149.41-.492.998-.834a5.7 5.7 0 0 1 1.244-.56 7.5 7.5 0 0 1 1.19-.274v-.123a.5.5 0 0 0 .013-.123q0-.423-.232-.684-.233-.26-.657-.26a1.3 1.3 0 0 0-.587.124q-.248.11-.465.26a11 11 0 0 1-.438.26q-.219.108-.492.109a.76.76 0 0 1-.52-.192.64.64 0 0 1-.205-.492q0-.45.26-.82.273-.369.67-.616.41-.26.875-.396.478-.15.875-.15.369 0 .738.095.37.082.698.274.327.178.587.451.274.26.438.615.246.506.397 1.08.15.56.232 1.162.082.588.11 1.19.027.588.027 1.148m-2.187-.437-.04-.93h-.056a.1.1 0 0 0-.054-.014 1.4 1.4 0 0 0-.451.096 2 2 0 0 0-.506.246 2 2 0 0 0-.424.342.6.6 0 0 0-.164.397q0 .19.136.26a.7.7 0 0 0 .315.068q.3 0 .642-.15.342-.165.602-.315m9.201-2.297q0 .698-.027 1.394-.014.698-.068 1.395-.041.602-.11 1.285a11 11 0 0 1-.219 1.354q-.15.682-.396 1.299-.246.628-.656 1.107a3 3 0 0 1-.971.766q-.574.286-1.367.287-.369 0-.834-.123a3.7 3.7 0 0 1-.861-.329 2.5 2.5 0 0 1-.684-.546 1.1 1.1 0 0 1-.273-.739q0-.314.218-.588a.76.76 0 0 1 .588-.26q.22 0 .41.069.206.082.397.178.204.095.383.164a1 1 0 0 0 .382.082q.506 0 .848-.26a1.8 1.8 0 0 0 .547-.642q.206-.383.3-.848.11-.452.151-.861a1.45 1.45 0 0 1-.642.437q-.356.11-.753.11-.724 0-1.23-.247a2.3 2.3 0 0 1-.82-.697q-.315-.45-.465-1.04-.15-.587-.15-1.27 0-.424.082-.958.095-.532.273-1.08.177-.546.438-1.066.273-.52.628-.916.356-.397.793-.643.452-.246.985-.246.519 0 .916.301.41.3.478.848.15-.288.397-.56a.76.76 0 0 1 .601-.288q.192 0 .315.191.136.192.205.506.083.3.123.67.04.355.055.711.013.342.013.63zm-2.078.889q0-.205-.068-.534a3 3 0 0 0-.178-.628 1.8 1.8 0 0 0-.287-.52.53.53 0 0 0-.424-.219.82.82 0 0 0-.56.219 2 2 0 0 0-.397.533q-.164.301-.26.656a2.6 2.6 0 0 0-.082.588q0 .178.028.479.027.3.109.588.096.287.246.492t.397.205q.369 0 .642-.178.274-.178.451-.451.192-.273.287-.602.096-.328.096-.628m6.932 4.156q-.232 0-.37-.219a1.5 1.5 0 0 1-.204-.479 4 4 0 0 1-.096-.546 8 8 0 0 1 .027-1.258l.11-.82q.068-.41.109-.82.054-.411.055-.821 0-.165-.014-.355a1.4 1.4 0 0 0-.068-.356.6.6 0 0 0-.15-.287.4.4 0 0 0-.288-.11q-.123 0-.273.206-.15.191-.287.45a5 5 0 0 0-.22.507 1.3 1.3 0 0 0-.081.369v.615q.013.3.013.615v.793a10 10 0 0 1-.04.506 5 5 0 0 1-.083.506 3 3 0 0 1-.123.478 1.5 1.5 0 0 1-.218.397q-.124.164-.301.273a.8.8 0 0 1-.424.11.6.6 0 0 1-.451-.178 1.3 1.3 0 0 1-.287-.451 3 3 0 0 1-.164-.63 21 21 0 0 1-.069-.683 16 16 0 0 1-.013-.615q.013-.287.013-.451v-.643q0-.52-.027-1.025-.014-.506-.014-1.012v-.697q.015-.424.11-.82.096-.41.314-.698.219-.287.643-.287.19 0 .341.123.15.124.26.301.123.178.192.383.081.205.123.355.136-.19.314-.369.192-.177.424-.314a2.2 2.2 0 0 1 1.176-.301q.698 0 1.08.342.397.328.574.834.191.492.233 1.066.04.575.04 1.04 0 .231-.04.697-.041.45-.137 1.011-.082.547-.233 1.135-.15.575-.355 1.053-.205.479-.492.779-.274.3-.63.3m5.25.014q-.697 0-1.217-.37a3.2 3.2 0 0 1-.875-.943 4.5 4.5 0 0 1-.533-1.272 5.7 5.7 0 0 1-.178-1.394q0-.725.178-1.49.177-.78.547-1.408.369-.643.943-1.04.575-.41 1.367-.41.766 0 1.299.424.547.41.875 1.04.328.614.465 1.353.136.738.096 1.394-.042.725-.233 1.463a4.7 4.7 0 0 1-.533 1.326q-.356.588-.902.957-.547.37-1.3.37m.136-6.18q-.205 0-.369.218-.15.219-.26.534-.094.315-.15.67a4 4 0 0 0-.055.601q0 .329.055.711.069.383.178.711.11.315.26.533.164.205.369.205.219 0 .369-.205.164-.205.26-.52.096-.314.137-.683.04-.383.04-.71 0-.302-.054-.657a4 4 0 0 0-.164-.684 1.5 1.5 0 0 0-.26-.52q-.15-.204-.356-.204m1.545-4.43q0 .15-.082.3a1.4 1.4 0 0 1-.205.26q-.11.124-.246.233a9 9 0 0 0-.246.178q-.096.068-.219.164-.109.083-.246.164a2 2 0 0 1-.26.123.6.6 0 0 1-.246.055.34.34 0 0 1-.191-.055.24.24 0 0 1-.082-.191q0-.205.15-.493a3.4 3.4 0 0 1 .397-.574q.232-.286.492-.478.26-.205.479-.205.19 0 .341.164.165.15.164.355m5.989 2.694q0 .396-.274.587-.26.192-.588.37-.328.163-.601.396-.26.232-.26.697 0 .246.11.424.122.178.286.328.179.137.383.287t.37.342q.177.192.287.465.123.273.123.67 0 .574-.301 1.135a3.73 3.73 0 0 1-1.777 1.668q-.575.26-1.135.26-.233 0-.465-.042a1.3 1.3 0 0 1-.424-.123.9.9 0 0 1-.3-.26.8.8 0 0 1-.124-.45q0-.384.15-.588.15-.219.383-.342a2.3 2.3 0 0 1 .493-.192q.273-.068.505-.164a1.2 1.2 0 0 0 .383-.273q.15-.165.15-.465 0-.287-.232-.588-.219-.315-.492-.656a7 7 0 0 1-.506-.752 1.8 1.8 0 0 1-.218-.875q0-.588.232-1.08a2.9 2.9 0 0 1 .642-.875q.411-.37.93-.575a2.8 2.8 0 0 1 1.094-.218q.219 0 .424.04.218.042.383.151.163.096.26.274.108.163.109.423m3.732 8.011q-.97 0-1.517-.26a1.76 1.76 0 0 1-.807-.71q-.26-.465-.315-1.122a20 20 0 0 1-.014-2.748q.043-.656.124-1.394-.192 0-.301.014h-.178q-.437 0-.752-.192a.64.64 0 0 1-.328-.588q0-.246.192-.437.177-.192.465-.328.286-.137.615-.22.342-.08.642-.109 0-.382.055-.847.054-.465.191-.861.15-.411.397-.684a.8.8 0 0 1 .629-.274.58.58 0 0 1 .383.137.9.9 0 0 1 .287.328q.109.192.164.438.054.246.054.478 0 .275-.04.56a7 7 0 0 1-.151.712q.233-.028.314-.028a1 1 0 0 1 .15-.013q.233 0 .48.04.26.042.464.138.22.095.356.26.136.15.136.368 0 .247-.205.438a1.7 1.7 0 0 1-.492.328q-.3.137-.642.219a6 6 0 0 1-.643.096q-.083.56-.123 1.038-.027.465-.068.944-.028.232-.055.478a8 8 0 0 0 0 .903q.013.233.096.45a1 1 0 0 0 .26.384q.177.15.492.15.191 0 .396-.027.205-.042.41-.041.356 0 .506.246.164.246.164.629 0 .287-.178.506a1.2 1.2 0 0 1-.423.328q-.261.136-.588.205-.314.068-.602.068m4.32-10.035a.57.57 0 0 1-.109.342q-.096.15-.26.273-.165.11-.355.178a1.3 1.3 0 0 1-.356.055.84.84 0 0 1-.478-.137q-.205-.137-.205-.424 0-.205.096-.355a.9.9 0 0 1 .26-.26q.15-.11.341-.164t.37-.055a.96.96 0 0 1 .478.123q.218.123.218.424m.11 4.648v.41q0 .206-.014.397-.013.233-.013.629 0 .383-.028.834-.027.45-.096.916-.054.465-.191.848a1.8 1.8 0 0 1-.37.629.78.78 0 0 1-.56.246.5.5 0 0 1-.437-.205 1.9 1.9 0 0 1-.301-.561 4.7 4.7 0 0 1-.164-.78q-.055-.436-.082-.833a11 11 0 0 1-.027-.752V55.76q0-.41.027-.875t.096-.944q.081-.478.218-.875.15-.396.383-.642a.77.77 0 0 1 .588-.246q.37 0 .56.369.192.369.288.861t.11.985q.012.478.013.71m6.043-.355a.8.8 0 0 1-.055.287q-.123.315-.383.533a.96.96 0 0 1-.615.205q-.533 0-.725-.533a.4.4 0 0 1-.027-.15q0-.096-.014-.192v-.396a.8.8 0 0 0-.095-.3q-.069-.11-.233-.11-.232 0-.45.3-.206.288-.37.698a6 6 0 0 0-.246.82q-.096.424-.096.684 0 .204.027.506.028.287.11.56t.219.479q.15.19.383.191a.7.7 0 0 0 .423-.137q.206-.15.397-.342.177-.164.383-.341a.76.76 0 0 1 .492-.178q.341 0 .533.246.205.246.205.56 0 .465-.246.876a2.8 2.8 0 0 1-.615.697q-.37.287-.82.451a2.4 2.4 0 0 1-.862.178q-.738 0-1.258-.37a2.9 2.9 0 0 1-.82-.929 4.4 4.4 0 0 1-.451-1.244 6.4 6.4 0 0 1-.137-1.272q0-.697.192-1.504a5.7 5.7 0 0 1 .587-1.517 3.8 3.8 0 0 1 1.012-1.162q.63-.465 1.49-.465.534 0 .916.232.397.232.643.616.259.369.383.834.136.465.136.916v.136a.7.7 0 0 1-.013.137m3.363 5.647q-.697 0-1.217-.37a3.2 3.2 0 0 1-.875-.943 4.5 4.5 0 0 1-.533-1.272 5.7 5.7 0 0 1-.178-1.394q0-.725.178-1.49.178-.78.547-1.408.369-.643.943-1.04.575-.41 1.367-.41.766 0 1.299.424.548.41.875 1.04.328.614.465 1.353.136.738.096 1.394-.04.725-.233 1.463a4.6 4.6 0 0 1-.533 1.326q-.356.588-.902.957-.547.37-1.299.37m.137-6.18q-.206 0-.369.218a2.2 2.2 0 0 0-.26.534 5 5 0 0 0-.151.67 4 4 0 0 0-.054.601q0 .329.054.711.069.383.178.711.11.315.26.533.163.205.369.205.219 0 .369-.205.164-.205.26-.52.096-.314.137-.683.04-.383.041-.71 0-.302-.055-.657a3.7 3.7 0 0 0-.164-.684 1.5 1.5 0 0 0-.26-.52q-.15-.204-.355-.204m12.715-3.213q0 .998-.082 1.982a28 28 0 0 0-.069 1.983q0 .806.041 1.6.055.792.055 1.599 0 .22-.014.533-.014.3-.095.588a1.14 1.14 0 0 1-.247.492q-.163.205-.478.205a.89.89 0 0 1-.684-.3 1.5 1.5 0 0 1-.328-.698 2.34 2.34 0 0 1-.752.834 1.83 1.83 0 0 1-1.066.342q-.615 0-1.067-.424a3.8 3.8 0 0 1-.738-1.025 6 6 0 0 1-.437-1.258 5.7 5.7 0 0 1-.137-1.135 8.6 8.6 0 0 1 .178-1.668q.11-.45.273-.875.165-.437.41-.779a2.1 2.1 0 0 1 .602-.547q.356-.205.807-.205.492 0 .943.287.452.288.683.711l.124-2.174q.013-.26.041-.601.027-.355.109-.67.095-.315.287-.533.191-.22.561-.22.396 0 .615.192t.314.492q.11.287.123.63.028.34.028.642m-2.229 6.07q0-.314-.014-.615a7 7 0 0 1 0-.615 7 7 0 0 0-.191-.383 1.7 1.7 0 0 0-.273-.396 1.4 1.4 0 0 0-.342-.315.75.75 0 0 0-.41-.123.54.54 0 0 0-.397.15q-.15.15-.219.37a2.2 2.2 0 0 0-.095.45 8 8 0 0 0-.014.425q0 .164.027.492.029.314.096.642.083.328.219.575.136.245.369.246a1 1 0 0 0 .355-.069q.178-.082.329-.191.163-.123.3-.26a6 6 0 0 0 .26-.273zm8.859.492q0 .466-.3.916a3.4 3.4 0 0 1-.739.793 4.3 4.3 0 0 1-.943.56 2.5 2.5 0 0 1-.93.206q-.725 0-1.298-.355a3.4 3.4 0 0 1-.944-.93 4.5 4.5 0 0 1-.588-1.23 5 5 0 0 1-.191-1.327q0-.684.191-1.463.192-.78.575-1.435a3.8 3.8 0 0 1 .984-1.094q.602-.437 1.422-.437.465 0 .888.164a2.15 2.15 0 0 1 1.245 1.12q.19.397.191.89 0 .642-.273 1.203a3.2 3.2 0 0 1-.725.97 3.8 3.8 0 0 1-1.039.67 3.5 3.5 0 0 1-1.203.273q.054.397.314.575.273.178.643.178.273 0 .533-.137a6 6 0 0 0 .506-.301q.246-.177.478-.315.246-.136.493-.136a.76.76 0 0 1 .492.178.57.57 0 0 1 .218.464m-2.214-3.35a.8.8 0 0 0-.096-.368.32.32 0 0 0-.301-.192q-.3 0-.506.164-.204.15-.341.397a2.2 2.2 0 0 0-.219.506q-.069.273-.082.505.191-.04.451-.109a3 3 0 0 0 .506-.178q.246-.123.41-.3a.58.58 0 0 0 .178-.424m11.949-3.212q0 .998-.082 1.982a28 28 0 0 0-.069 1.983q0 .806.041 1.6.055.792.055 1.599 0 .22-.014.533-.014.3-.095.588a1.15 1.15 0 0 1-.246.492q-.165.205-.479.205a.88.88 0 0 1-.683-.3 1.5 1.5 0 0 1-.329-.698 2.34 2.34 0 0 1-.751.834 1.84 1.84 0 0 1-1.067.342q-.615 0-1.066-.424a3.7 3.7 0 0 1-.739-1.025 6 6 0 0 1-.437-1.258 5.7 5.7 0 0 1-.137-1.135 8.6 8.6 0 0 1 .178-1.668q.11-.45.273-.875.164-.437.411-.779.26-.342.601-.547.355-.205.807-.205.492 0 .943.287.451.288.684.711l.123-2.174q.014-.26.041-.601.027-.355.109-.67.096-.315.287-.533.192-.22.561-.22.396 0 .615.192.22.192.314.492a2 2 0 0 1 .124.63q.027.34.027.642m-2.229 6.07q0-.314-.013-.615a7 7 0 0 1 0-.615 8 8 0 0 0-.192-.383 1.7 1.7 0 0 0-.273-.396 1.4 1.4 0 0 0-.342-.315.75.75 0 0 0-.41-.123.54.54 0 0 0-.397.15q-.15.15-.218.37a2 2 0 0 0-.096.45 8 8 0 0 0-.014.425 6 6 0 0 0 .123 1.134q.083.328.219.575.137.245.369.246a1 1 0 0 0 .356-.069q.178-.082.328-.191.163-.123.301-.26.15-.15.259-.273zm5.387-6.617a.56.56 0 0 1-.109.342q-.096.15-.26.273a1.6 1.6 0 0 1-.356.178 1.3 1.3 0 0 1-.355.055.85.85 0 0 1-.479-.137q-.204-.137-.205-.424 0-.205.096-.355a.9.9 0 0 1 .26-.26q.15-.11.342-.164.19-.055.369-.055.26 0 .478.123.219.123.219.424m.109 4.648v.41q0 .206-.013.397-.014.233-.014.629 0 .383-.027.834t-.096.916q-.054.465-.191.848a1.8 1.8 0 0 1-.369.629.78.78 0 0 1-.561.246.51.51 0 0 1-.438-.205 1.9 1.9 0 0 1-.3-.561 4.6 4.6 0 0 1-.164-.78q-.055-.436-.082-.833a11 11 0 0 1-.028-.752v-1.121q0-.41.028-.875.027-.465.095-.944.082-.478.219-.875.15-.396.383-.642a.77.77 0 0 1 .588-.246q.37 0 .56.369.192.369.287.861.096.492.11.985.013.478.013.71m6.782 2.967q0 .246-.028.643a3.7 3.7 0 0 1-.109.78q-.096.368-.301.642a.68.68 0 0 1-.574.273q-.506 0-.779-.328-.274-.328-.26-.82a3.4 3.4 0 0 1-.998.601 3 3 0 0 1-1.121.219q-.397 0-.752-.191a2.3 2.3 0 0 1-.629-.493 2.5 2.5 0 0 1-.438-.67 1.9 1.9 0 0 1-.164-.751q0-.656.397-1.149.41-.492.998-.834a5.7 5.7 0 0 1 1.244-.56 7.5 7.5 0 0 1 1.189-.274v-.123a.5.5 0 0 0 .014-.123q0-.423-.232-.684-.233-.26-.657-.26-.34 0-.587.124-.246.11-.465.26-.219.135-.438.26-.219.108-.492.109a.76.76 0 0 1-.519-.192.64.64 0 0 1-.206-.492q0-.45.26-.82.274-.369.67-.616.41-.26.875-.396.479-.15.875-.15.369 0 .738.095.37.082.698.274.327.178.588.451.273.26.437.615.246.506.397 1.08.15.56.232 1.162.082.588.109 1.19.028.588.028 1.148m-2.188-.437-.041-.93h-.055a.1.1 0 0 0-.054-.014q-.178 0-.451.096a2 2 0 0 0-.506.246 2 2 0 0 0-.424.342.6.6 0 0 0-.164.397q0 .19.137.26a.7.7 0 0 0 .314.068 1.6 1.6 0 0 0 .643-.15q.341-.165.601-.315m9.475-2.147q0 .397-.069.903-.054.492-.191 1.011a5.7 5.7 0 0 1-.342 1.012q-.205.492-.519.889-.301.383-.711.615a1.8 1.8 0 0 1-.93.232q-.56 0-1.025-.26a2.5 2.5 0 0 1-.78-.71 1.15 1.15 0 0 1-.3.656.87.87 0 0 1-.657.273q-.232 0-.396-.232a2.1 2.1 0 0 1-.246-.588 6 6 0 0 1-.151-.807 14 14 0 0 1-.054-.847q-.014-.411-.014-.738v-1.395l.027-.943q0-.233-.013-.698 0-.465.013-1.025.014-.574.055-1.162.055-.602.178-1.094t.342-.807.56-.328q.273 0 .465.192.191.19.314.506.138.315.206.71.081.383.109.78.04.383.041.738.014.342.014.56 0 .042-.014.192v.738q.123-.26.355-.505.232-.247.52-.438.287-.192.601-.315.315-.122.602-.123.575 0 .957.301.396.288.629.739.232.45.328.984.096.519.096.984m-2.01.41q0-.163-.027-.355a.9.9 0 0 0-.096-.355.7.7 0 0 0-.205-.274.47.47 0 0 0-.328-.11q-.219 0-.438.096a2 2 0 0 0-.396.247q-.191.15-.356.328-.164.163-.287.328l-.136 1.217q.218.315.533.505.313.178.711.178.3 0 .492-.191a1.3 1.3 0 0 0 .314-.465q.123-.287.164-.602.055-.315.055-.547m8.572 1.668q0 .466-.3.916a3.4 3.4 0 0 1-.739.793 4.3 4.3 0 0 1-.943.56 2.5 2.5 0 0 1-.93.206q-.725 0-1.299-.355a3.4 3.4 0 0 1-.943-.93 4.5 4.5 0 0 1-.588-1.23 5 5 0 0 1-.191-1.327q0-.684.191-1.463.192-.78.574-1.435.397-.657.985-1.094.601-.437 1.422-.437.464 0 .888.164a2.15 2.15 0 0 1 1.244 1.12q.192.397.192.89 0 .642-.274 1.203a3.2 3.2 0 0 1-.724.97 3.8 3.8 0 0 1-1.039.67 3.5 3.5 0 0 1-1.203.273q.054.397.314.575.273.178.643.178.273 0 .533-.137a6 6 0 0 0 .506-.301q.246-.177.478-.315.246-.136.492-.136.274 0 .493.178a.57.57 0 0 1 .218.464m-2.215-3.35a.8.8 0 0 0-.095-.368.32.32 0 0 0-.301-.192.8.8 0 0 0-.506.164q-.206.15-.342.397a2.3 2.3 0 0 0-.218.506q-.069.273-.082.505.191-.04.451-.109a3 3 0 0 0 .506-.178q.246-.123.41-.3a.58.58 0 0 0 .177-.424m5.948 6.276q-.97 0-1.518-.26a1.76 1.76 0 0 1-.806-.71q-.26-.465-.315-1.122a18 18 0 0 1-.055-1.462q0-.643.041-1.286.042-.656.123-1.394-.19 0-.3.014h-.178a1.4 1.4 0 0 1-.752-.192.63.63 0 0 1-.328-.588q0-.246.191-.437.178-.192.465-.328.287-.137.615-.22.342-.08.643-.109 0-.382.055-.847.054-.465.191-.861.15-.411.396-.684a.81.81 0 0 1 .629-.274.58.58 0 0 1 .383.137.9.9 0 0 1 .287.328q.11.192.164.438t.055.478q0 .275-.041.56a7 7 0 0 1-.15.712q.232-.028.314-.028a1 1 0 0 1 .15-.013q.233 0 .479.04.26.042.465.138.219.095.355.26a.53.53 0 0 1 .137.368q0 .247-.205.438a1.7 1.7 0 0 1-.492.328 3.6 3.6 0 0 1-.643.219 6 6 0 0 1-.642.096q-.083.56-.123 1.038-.028.465-.069.944l-.054.478a8 8 0 0 0 0 .903q.014.233.095.45a1 1 0 0 0 .26.384q.178.15.492.15.192 0 .397-.027.204-.042.41-.041.355 0 .506.246.164.246.164.629 0 .287-.178.506a1.2 1.2 0 0 1-.424.328 2.2 2.2 0 0 1-.588.205q-.314.068-.601.068m7.793-2.926q0 .466-.301.916a3.4 3.4 0 0 1-.738.793 4.3 4.3 0 0 1-.944.56 2.5 2.5 0 0 1-.929.206q-.725 0-1.299-.355a3.4 3.4 0 0 1-.944-.93 4.5 4.5 0 0 1-.588-1.23 5 5 0 0 1-.191-1.327q0-.684.191-1.463.192-.78.575-1.435a3.8 3.8 0 0 1 .984-1.094q.602-.437 1.422-.437.465 0 .889.164a2.15 2.15 0 0 1 1.244 1.12q.19.397.191.89 0 .642-.273 1.203a3.2 3.2 0 0 1-.725.97 3.8 3.8 0 0 1-1.039.67 3.5 3.5 0 0 1-1.203.273q.054.397.314.575.274.178.643.178.273 0 .533-.137a6 6 0 0 0 .506-.301 6 6 0 0 1 .479-.315q.246-.136.492-.136a.76.76 0 0 1 .492.178.57.57 0 0 1 .219.464m-2.215-3.35a.8.8 0 0 0-.096-.368.32.32 0 0 0-.301-.192q-.3 0-.505.164-.206.15-.342.397a2.3 2.3 0 0 0-.219.506q-.069.273-.082.505.192-.04.451-.109a3 3 0 0 0 .506-.178q.246-.123.41-.3a.58.58 0 0 0 .178-.424m6.767-1.736q0 .397-.273.588-.26.192-.588.37-.328.163-.601.396-.26.232-.26.697 0 .246.109.424.123.178.287.328.178.137.383.287t.369.342q.178.192.287.465.123.273.123.67 0 .574-.3 1.135a3.73 3.73 0 0 1-1.778 1.668q-.574.26-1.135.26-.231 0-.464-.042a1.3 1.3 0 0 1-.424-.123.9.9 0 0 1-.301-.26.8.8 0 0 1-.123-.45q0-.384.15-.588.151-.219.383-.342t.492-.192q.274-.068.506-.164.233-.11.383-.273.15-.165.15-.465 0-.287-.232-.588-.219-.315-.492-.656a7 7 0 0 1-.506-.752 1.8 1.8 0 0 1-.219-.875q0-.588.233-1.08.246-.507.642-.875.411-.37.93-.575a2.8 2.8 0 0 1 1.094-.218q.218 0 .423.04.22.042.383.151.165.096.26.274a.75.75 0 0 1 .109.423m7.028 8.012q-.97 0-1.518-.26a1.76 1.76 0 0 1-.806-.71q-.26-.465-.315-1.122a18 18 0 0 1-.055-1.462q0-.643.041-1.286.042-.656.123-1.394-.19 0-.3.014h-.178a1.4 1.4 0 0 1-.752-.192.63.63 0 0 1-.328-.588q0-.246.191-.437.179-.192.465-.328.288-.137.615-.22.342-.08.643-.109 0-.382.055-.847.054-.465.191-.861.15-.411.397-.684a.8.8 0 0 1 .628-.274.58.58 0 0 1 .383.137.9.9 0 0 1 .287.328q.11.192.164.438t.055.478q0 .275-.041.56a7 7 0 0 1-.15.712q.232-.028.314-.028a1 1 0 0 1 .151-.013q.231 0 .478.04.26.042.465.138.219.095.355.26.137.15.137.368 0 .247-.205.438a1.7 1.7 0 0 1-.492.328 3.6 3.6 0 0 1-.643.219 6 6 0 0 1-.642.096q-.082.56-.123 1.038-.028.465-.069.944l-.054.478a8 8 0 0 0 0 .903q.014.233.095.45a1 1 0 0 0 .26.384q.178.15.492.15.192 0 .397-.027.204-.042.41-.041.355 0 .506.246.164.246.164.629 0 .287-.178.506a1.2 1.2 0 0 1-.424.328 2.2 2.2 0 0 1-.588.205q-.314.068-.601.068m4.32-10.035a.56.56 0 0 1-.109.342q-.096.15-.26.273a1.6 1.6 0 0 1-.356.178 1.3 1.3 0 0 1-.355.055.85.85 0 0 1-.479-.137q-.205-.137-.205-.424 0-.205.096-.355a.9.9 0 0 1 .26-.26q.15-.11.342-.164.19-.055.369-.055.26 0 .478.123.219.123.219.424m.109 4.648v.41q0 .206-.013.397-.014.233-.014.629 0 .383-.027.834t-.096.916q-.054.465-.191.848a1.8 1.8 0 0 1-.369.629.78.78 0 0 1-.561.246.51.51 0 0 1-.438-.205 1.9 1.9 0 0 1-.3-.561 4.6 4.6 0 0 1-.164-.78q-.055-.436-.082-.833a11 11 0 0 1-.028-.752v-1.121q0-.41.028-.875.027-.465.095-.944.082-.478.219-.875.15-.396.383-.642a.77.77 0 0 1 .588-.246q.37 0 .56.369.192.369.287.861.096.492.11.985.013.478.013.71m7.233.82q0 .603-.137 1.327a4.7 4.7 0 0 1-.437 1.326 3 3 0 0 1-.807 1.025q-.492.41-1.244.41-.192 0-.397-.027a2 2 0 0 1-.396-.095 1.4 1.4 0 0 1-.328-.178.8.8 0 0 1-.233-.315l-.123 1.97q-.014.314-.027.751 0 .438-.109.834a1.5 1.5 0 0 1-.342.67q-.233.288-.684.287-.26 0-.437-.273a2.2 2.2 0 0 1-.287-.67 8 8 0 0 1-.151-.916q-.054-.506-.068-.97-.014-.465-.014-.849v-.56q0-.916-.014-1.819-.013-.915-.013-1.831v-.506q0-.356.027-.766t.082-.848q.069-.437.192-.793.122-.37.314-.587a.58.58 0 0 1 .465-.233q.177 0 .314.11.152.095.246.26.11.15.178.327.069.178.11.329.424-.48.97-.725.56-.246 1.19-.246.656 0 1.066.369.424.369.656.916.246.546.342 1.176.096.615.096 1.12m-1.955-.109q0-.204-.041-.41a1.1 1.1 0 0 0-.123-.396.67.67 0 0 0-.246-.301.67.67 0 0 0-.411-.123q-.327 0-.697.219a1.5 1.5 0 0 0-.533.478q-.069.11-.082.356a8 8 0 0 0-.014.369v.26l.028.314.027.315q.027.15.068.232.042.123.178.232a2.4 2.4 0 0 0 .301.178q.164.083.328.123.178.041.301.041a.57.57 0 0 0 .465-.219 1.6 1.6 0 0 0 .273-.52q.11-.3.137-.614a5 5 0 0 0 .041-.534m5.387 4.58q-.698 0-1.217-.369a3.2 3.2 0 0 1-.875-.943 4.5 4.5 0 0 1-.533-1.272 5.7 5.7 0 0 1-.178-1.394q0-.725.178-1.49.177-.78.546-1.408.37-.643.944-1.04.574-.41 1.367-.41.765 0 1.299.424.546.41.875 1.04.328.614.465 1.353.137.738.095 1.394-.041.725-.232 1.463a4.7 4.7 0 0 1-.533 1.326q-.356.588-.903.957-.546.37-1.298.37m.136-6.18q-.205 0-.369.22-.15.218-.26.533-.095.315-.15.67a4 4 0 0 0-.055.601q0 .329.055.711.069.383.178.711.11.315.259.533.165.205.37.205.218 0 .369-.205.164-.205.259-.52.096-.314.137-.683.042-.383.041-.71a4.4 4.4 0 0 0-.219-1.34 1.5 1.5 0 0 0-.259-.52q-.151-.205-.356-.205m9.42-.956q0 .424-.014.847l-.027.848q-.027.698-.027 1.395 0 .683-.041 1.38-.013.232-.028.63a3.7 3.7 0 0 1-.109.765 1.9 1.9 0 0 1-.273.656.62.62 0 0 1-.534.274.7.7 0 0 1-.533-.22 1.8 1.8 0 0 1-.328-.573 4 4 0 0 1-.15-.78 14 14 0 0 1-.055-.847q0-.425.014-.78.013-.355.013-.546v-1.86l.028-1.86a1.8 1.8 0 0 1-.438-.56 1.7 1.7 0 0 1-.15-.697q0-.561.328-.957.342-.397.93-.397.505 0 .793.383.287.383.41.916.137.534.164 1.094.027.547.027.889m8.354 7.123q-.232 0-.369-.219a1.5 1.5 0 0 1-.206-.479 4 4 0 0 1-.095-.546 10 10 0 0 1-.014-.438q0-.41.041-.82l.109-.82q.07-.41.11-.82.055-.411.055-.821 0-.165-.014-.355a1.5 1.5 0 0 0-.068-.356.6.6 0 0 0-.151-.287.4.4 0 0 0-.287-.11q-.123 0-.273.206a3 3 0 0 0-.288.45 5 5 0 0 0-.218.507 1.3 1.3 0 0 0-.082.369v.615q.013.3.013.615v.793a9 9 0 0 1-.041.506 4 4 0 0 1-.082.506 3 3 0 0 1-.123.478 1.5 1.5 0 0 1-.218.397 1.1 1.1 0 0 1-.301.273.8.8 0 0 1-.424.11.6.6 0 0 1-.451-.178 1.3 1.3 0 0 1-.287-.451 3 3 0 0 1-.164-.63 19 19 0 0 1-.069-.683 16 16 0 0 1-.013-.615q.013-.287.013-.451v-.643q0-.52-.027-1.025a38 38 0 0 1-.014-1.012v-.697q.014-.424.11-.82a1.8 1.8 0 0 1 .314-.698q.219-.287.643-.287.19 0 .341.123.151.124.26.301.123.178.192.383.081.205.123.355.137-.19.314-.369.192-.177.424-.314a2.23 2.23 0 0 1 1.176-.301q.697 0 1.08.342.396.328.574.834.192.492.232 1.066.042.575.041 1.04 0 .231-.041.697-.041.45-.136 1.011-.083.547-.233 1.135a7.6 7.6 0 0 1-.355 1.053 2.6 2.6 0 0 1-.492.779q-.274.3-.629.3m8.381-2.817q0 .466-.301.916a3.4 3.4 0 0 1-.739.793 4.3 4.3 0 0 1-.943.56 2.5 2.5 0 0 1-.93.206q-.725 0-1.298-.355a3.4 3.4 0 0 1-.944-.93 4.5 4.5 0 0 1-.588-1.23 5 5 0 0 1-.191-1.327q0-.684.191-1.463.191-.78.575-1.435a3.8 3.8 0 0 1 .984-1.094q.601-.437 1.422-.437.465 0 .888.164a2.15 2.15 0 0 1 1.245 1.12q.19.397.191.89 0 .642-.273 1.203a3.2 3.2 0 0 1-.725.97 3.8 3.8 0 0 1-1.039.67 3.5 3.5 0 0 1-1.203.273q.054.397.314.575.274.178.643.178.273 0 .533-.137a6 6 0 0 0 .506-.301q.246-.177.478-.315a1 1 0 0 1 .493-.136.76.76 0 0 1 .492.178.57.57 0 0 1 .219.464m-2.215-3.35a.8.8 0 0 0-.096-.368.32.32 0 0 0-.301-.192q-.3 0-.506.164-.204.15-.341.397a2.2 2.2 0 0 0-.219.506q-.069.273-.082.505.191-.04.451-.109a3 3 0 0 0 .506-.178q.246-.123.41-.3a.58.58 0 0 0 .178-.424m7.834.534a.8.8 0 0 1-.055.287q-.123.315-.383.533a.96.96 0 0 1-.615.205q-.534 0-.725-.533a.4.4 0 0 1-.027-.15 1.4 1.4 0 0 0-.014-.192v-.396a.8.8 0 0 0-.095-.3q-.068-.11-.233-.11-.232 0-.451.3a3.3 3.3 0 0 0-.369.698q-.15.397-.246.82-.096.424-.096.684 0 .204.027.506.028.287.11.56.081.273.219.479.15.19.382.191a.7.7 0 0 0 .424-.137q.205-.15.397-.342.178-.164.382-.341a.76.76 0 0 1 .493-.178q.342 0 .533.246a.85.85 0 0 1 .205.56q0 .465-.246.876a2.8 2.8 0 0 1-.615.697q-.37.287-.821.451-.45.178-.861.178-.738 0-1.258-.37a2.9 2.9 0 0 1-.82-.929 4.4 4.4 0 0 1-.451-1.244 6.4 6.4 0 0 1-.137-1.272q0-.697.191-1.504a5.7 5.7 0 0 1 .588-1.517 3.8 3.8 0 0 1 1.012-1.162q.629-.465 1.49-.465.534 0 .916.232.397.232.643.616.26.369.383.834.136.465.136.916v.136a.7.7 0 0 1-.013.137m6.494 2.816q0 .466-.301.916a3.3 3.3 0 0 1-.738.793 4.3 4.3 0 0 1-.944.56 2.5 2.5 0 0 1-.929.206q-.725 0-1.299-.355a3.4 3.4 0 0 1-.943-.93 4.5 4.5 0 0 1-.588-1.23 5 5 0 0 1-.192-1.327q0-.684.192-1.463.191-.78.574-1.435a3.8 3.8 0 0 1 .984-1.094q.601-.437 1.422-.437.465 0 .889.164a2.15 2.15 0 0 1 1.244 1.12q.191.397.191.89 0 .642-.273 1.203a3.2 3.2 0 0 1-.725.97 3.8 3.8 0 0 1-1.039.67 3.5 3.5 0 0 1-1.203.273q.055.397.315.575.273.178.642.178.273 0 .533-.137a6 6 0 0 0 .506-.301 6 6 0 0 1 .479-.315q.246-.136.492-.136a.76.76 0 0 1 .492.178.57.57 0 0 1 .219.464m-2.215-3.35a.8.8 0 0 0-.096-.368.32.32 0 0 0-.301-.192q-.3 0-.505.164-.206.15-.342.397a2.3 2.3 0 0 0-.219.506q-.068.273-.082.505.192-.04.451-.109.274-.068.506-.178.246-.123.41-.3a.58.58 0 0 0 .178-.424m6.768-1.736q0 .397-.274.588-.26.192-.588.37-.328.163-.601.396-.26.232-.26.697 0 .246.109.424.123.178.287.328.178.137.383.287t.369.342q.179.192.287.465.123.273.123.67 0 .574-.3 1.135a3.73 3.73 0 0 1-1.778 1.668q-.574.26-1.134.26-.232 0-.465-.042a1.3 1.3 0 0 1-.424-.123.9.9 0 0 1-.301-.26.8.8 0 0 1-.123-.45q0-.384.15-.588.151-.219.383-.342.233-.123.492-.192.274-.068.506-.164.233-.11.383-.273.15-.165.151-.465 0-.287-.233-.588-.219-.315-.492-.656a7 7 0 0 1-.506-.752 1.8 1.8 0 0 1-.219-.875q0-.588.233-1.08.246-.507.642-.875.411-.37.93-.575a2.8 2.8 0 0 1 1.094-.218q.219 0 .424.04.218.042.382.151.165.096.26.274.11.163.11.423m4.552 0q0 .397-.273.588-.26.192-.588.37-.328.163-.602.396-.26.232-.259.697 0 .246.109.424.123.178.287.328.178.137.383.287t.369.342q.178.192.287.465.123.273.123.67 0 .574-.301 1.135a3.7 3.7 0 0 1-.752.984q-.45.424-1.025.684-.574.26-1.135.26-.232 0-.465-.042a1.3 1.3 0 0 1-.423-.123.9.9 0 0 1-.301-.26.8.8 0 0 1-.123-.45q0-.384.15-.588.15-.219.383-.342t.492-.192q.274-.068.506-.164.233-.11.383-.273.15-.165.15-.465 0-.287-.232-.588-.219-.315-.492-.656a7 7 0 0 1-.506-.752 1.8 1.8 0 0 1-.219-.875q0-.588.232-1.08.247-.507.643-.875.41-.37.93-.575a2.8 2.8 0 0 1 1.093-.218q.22 0 .424.04.22.042.383.151.164.096.26.274a.75.75 0 0 1 .109.423m2.803-2.023a.56.56 0 0 1-.109.342q-.096.15-.26.273-.165.11-.356.178a1.3 1.3 0 0 1-.355.055.85.85 0 0 1-.479-.137q-.205-.137-.205-.424 0-.205.096-.355a.9.9 0 0 1 .26-.26q.15-.11.342-.164.19-.055.369-.055.26 0 .478.123.219.123.219.424m.109 4.648v.41q0 .206-.013.397-.014.233-.014.629 0 .383-.027.834-.028.45-.096.916-.054.465-.191.848a1.8 1.8 0 0 1-.37.629.78.78 0 0 1-.56.246.51.51 0 0 1-.438-.205 1.9 1.9 0 0 1-.3-.561 4.6 4.6 0 0 1-.164-.78q-.055-.436-.082-.833a11 11 0 0 1-.028-.752v-1.121q0-.41.028-.875.027-.465.095-.944.082-.478.219-.875.15-.396.383-.642a.77.77 0 0 1 .588-.246q.37 0 .56.369.192.369.287.861.096.492.11.985.013.478.013.71m4.157 5.387q-.97 0-1.518-.26a1.77 1.77 0 0 1-.807-.71q-.26-.465-.314-1.122a18 18 0 0 1-.055-1.462q0-.643.041-1.286.042-.656.123-1.394-.191 0-.3.014h-.178a1.4 1.4 0 0 1-.752-.192.63.63 0 0 1-.328-.588q0-.246.191-.437.179-.192.465-.328.286-.137.615-.22.342-.08.643-.109 0-.382.055-.847.054-.465.191-.861.15-.411.396-.684a.8.8 0 0 1 .629-.274.58.58 0 0 1 .383.137.9.9 0 0 1 .287.328q.11.192.164.438t.055.478q0 .275-.041.56a7 7 0 0 1-.15.712q.232-.028.314-.028a1 1 0 0 1 .15-.013q.233 0 .479.04.26.042.465.138.219.095.355.26a.53.53 0 0 1 .137.368q0 .247-.205.438a1.7 1.7 0 0 1-.492.328 3.6 3.6 0 0 1-.643.219 6 6 0 0 1-.642.096q-.082.56-.124 1.038-.027.465-.068.944l-.055.478a8 8 0 0 0 0 .903q.014.233.096.45a1 1 0 0 0 .26.384q.177.15.492.15.192 0 .397-.027.204-.042.41-.041.355 0 .506.246.164.246.164.629 0 .287-.178.506a1.2 1.2 0 0 1-.424.328 2.2 2.2 0 0 1-.588.205q-.314.068-.601.068m7.875-2.42q0 .246-.028.643a3.7 3.7 0 0 1-.109.78q-.096.368-.301.642a.68.68 0 0 1-.574.273q-.506 0-.779-.328-.274-.328-.26-.82a3.4 3.4 0 0 1-.998.601 3 3 0 0 1-1.121.219q-.397 0-.752-.191a2.3 2.3 0 0 1-.629-.493 2.5 2.5 0 0 1-.438-.67 1.9 1.9 0 0 1-.164-.751q0-.656.397-1.149.41-.492.998-.834a5.7 5.7 0 0 1 1.244-.56 7.5 7.5 0 0 1 1.189-.274v-.123a.5.5 0 0 0 .014-.123q0-.423-.232-.684-.232-.26-.657-.26-.34 0-.587.124-.247.11-.465.26-.219.135-.438.26-.219.108-.492.109a.76.76 0 0 1-.52-.192.65.65 0 0 1-.205-.492q0-.45.26-.82.273-.369.67-.616.41-.26.875-.396.479-.15.875-.15.369 0 .738.095.37.082.698.274.327.178.588.451.273.26.437.615.246.506.396 1.08.151.56.233 1.162.082.588.109 1.19.028.588.028 1.148m-2.188-.437-.041-.93h-.055a.1.1 0 0 0-.054-.014q-.178 0-.451.096a2 2 0 0 0-.506.246 2 2 0 0 0-.424.342.6.6 0 0 0-.164.397q0 .19.137.26a.7.7 0 0 0 .314.068 1.6 1.6 0 0 0 .643-.15q.341-.165.601-.315m11.307-2.147v.711q0 .437-.028.957a10 10 0 0 1-.082 1.053q-.068.519-.218.943a2.2 2.2 0 0 1-.356.698.69.69 0 0 1-.56.273.53.53 0 0 1-.465-.246 2 2 0 0 1-.219-.602 4.4 4.4 0 0 1-.082-.697v-.56q0-.616.041-1.203.04-.588.041-1.204v-.246q0-.177-.027-.355a1 1 0 0 0-.096-.315q-.054-.136-.178-.136-.246 0-.396.26-.15.245-.246.587t-.137.684q-.041.329-.055.492a8 8 0 0 0-.054.533q-.015.355-.055.78a8 8 0 0 1-.109.874q-.069.438-.192.807a1.9 1.9 0 0 1-.287.588.53.53 0 0 1-.437.233.56.56 0 0 1-.506-.288 2.1 2.1 0 0 1-.26-.67 5.5 5.5 0 0 1-.109-.779q-.014-.397-.014-.615v-.451q.014-.22.014-.451v-.315q0-.219-.014-.478 0-.275-.027-.56a4 4 0 0 0-.055-.52 1.3 1.3 0 0 0-.123-.397q-.082-.15-.192-.15-.178 0-.328.232-.15.22-.26.533-.109.3-.177.602-.055.3-.055.437v.082q0 .657.082 1.285.082.63.082 1.286 0 .383-.246.71-.246.315-.684.315a.66.66 0 0 1-.519-.232 2 2 0 0 1-.342-.63 5.4 5.4 0 0 1-.219-.833q-.068-.464-.095-.903-.028-.451-.041-.806v-.547q0-.205-.014-.602 0-.396.014-.861.027-.465.082-.943.054-.492.177-.889t.315-.643a.64.64 0 0 1 .519-.26q.356 0 .575.192.232.193.232.574 0 .083-.014.164a1 1 0 0 1-.013.15q.15-.217.369-.437.219-.232.465-.41.26-.192.547-.3.286-.124.574-.124a.85.85 0 0 1 .492.15q.219.15.383.383.163.22.273.479.11.26.151.492.136-.246.328-.492.204-.26.437-.451.233-.192.506-.315.286-.123.588-.123.286 0 .492.205.205.206.356.534.15.314.232.724.082.397.137.793.054.383.068.725.014.328.014.52M73.625 72.887a.9.9 0 0 1-.328-.028l-.274-.109a3 3 0 0 0-.246-.096.54.54 0 0 0-.273-.04q-.273.012-.492.15a2 2 0 0 0-.383.342q-.165.204-.287.464a3 3 0 0 0-.192.493q-.04.164-.068.505-.014.33-.014.711-.013.397-.013.752 0 .356-.028.56-.014.22-.068.52a2.3 2.3 0 0 1-.178.547 1.25 1.25 0 0 1-.3.438.7.7 0 0 1-.493.177.65.65 0 0 1-.41-.136 1.3 1.3 0 0 1-.287-.356 3.3 3.3 0 0 1-.191-.533 7 7 0 0 1-.11-.615q-.04-.329-.068-.656l-.028-.616v-.547q.014-.246.014-.396a17 17 0 0 0-.055-.957 18 18 0 0 1-.027-.97q0-.302.028-.67a2.3 2.3 0 0 1 .15-.684q.123-.328.355-.547.247-.219.67-.219.232 0 .397.15.164.15.26.37.108.218.164.465.054.245.068.45.328-.533.738-.86.411-.343 1.067-.37.328-.013.642.069.328.067.588.246.273.164.438.437.177.274.191.643.028.437-.26.67a1.14 1.14 0 0 1-.697.246m6.89 2.68q0 .465-.3.915a3.4 3.4 0 0 1-.738.793 4.3 4.3 0 0 1-.944.56 2.5 2.5 0 0 1-.93.206q-.724 0-1.298-.355a3.4 3.4 0 0 1-.944-.93 4.5 4.5 0 0 1-.588-1.23 5 5 0 0 1-.191-1.327q0-.684.191-1.463.192-.78.575-1.435.396-.657.984-1.094.601-.437 1.422-.437.465 0 .889.164a2.15 2.15 0 0 1 1.244 1.12q.19.397.191.89 0 .642-.273 1.203a3.2 3.2 0 0 1-.725.97q-.45.41-1.039.67a3.5 3.5 0 0 1-1.203.273q.054.397.314.575.274.177.643.177.273 0 .533-.136.26-.137.506-.301.246-.177.478-.314.247-.137.493-.137a.76.76 0 0 1 .492.178.57.57 0 0 1 .219.464m-2.214-3.35a.8.8 0 0 0-.096-.37.32.32 0 0 0-.3-.19q-.302 0-.507.163-.204.15-.341.397a2.3 2.3 0 0 0-.22.506q-.068.273-.081.505.191-.04.451-.109.272-.068.506-.178.245-.123.41-.3a.58.58 0 0 0 .178-.424m8.572 3.855q0 .246-.027.643-.014.396-.11.78-.096.368-.3.642a.68.68 0 0 1-.575.273q-.506 0-.779-.328t-.26-.82a3.4 3.4 0 0 1-.998.601 3 3 0 0 1-1.12.219q-.398 0-.753-.191a2.4 2.4 0 0 1-.629-.493 2.5 2.5 0 0 1-.437-.67 1.9 1.9 0 0 1-.164-.751q0-.656.396-1.149.41-.492.998-.834a5.7 5.7 0 0 1 1.244-.56 7.5 7.5 0 0 1 1.19-.274v-.123a.5.5 0 0 0 .013-.123q0-.423-.232-.683-.233-.26-.656-.26a1.3 1.3 0 0 0-.588.123q-.247.11-.465.26a11 11 0 0 1-.437.26q-.219.109-.493.109a.76.76 0 0 1-.52-.192.64.64 0 0 1-.204-.492q0-.45.26-.82.273-.369.67-.615.41-.26.874-.397.48-.15.876-.15.369 0 .738.095.369.082.697.274.328.178.588.451.273.26.437.615.247.506.397 1.08.15.56.232 1.162.082.588.11 1.19.027.588.027 1.148m-2.187-.437-.042-.93h-.054a.1.1 0 0 0-.055-.014 1.4 1.4 0 0 0-.451.096 2 2 0 0 0-.506.246q-.246.15-.424.342a.6.6 0 0 0-.164.397q0 .19.137.26a.7.7 0 0 0 .314.068q.3 0 .643-.15.341-.165.602-.315m5.564-5.92q0 .738-.068 1.49-.055.738-.055 1.49 0 .971.055 1.942.068.97.068 1.955 0 .245-.027.56-.028.301-.137.56a1.05 1.05 0 0 1-.3.438q-.206.178-.548.178-.328 0-.574-.328a2.9 2.9 0 0 1-.396-.807q-.15-.505-.26-1.12a20 20 0 0 1-.15-1.19 86 86 0 0 1-.069-1.067q-.014-.492-.014-.724 0-.26.014-.752.027-.492.096-1.067.068-.573.177-1.162.123-.6.315-1.08.192-.492.451-.793.274-.314.643-.314.3 0 .45.205.165.191.233.478.069.275.082.588.014.3.014.52m3.295-1.258a.57.57 0 0 1-.11.342q-.095.15-.26.273-.163.11-.355.178a1.3 1.3 0 0 1-.355.055.84.84 0 0 1-.479-.137q-.204-.137-.205-.424 0-.205.096-.355a.9.9 0 0 1 .26-.26q.15-.11.341-.164t.37-.055a.96.96 0 0 1 .478.123q.219.123.219.424m.11 4.649v.41q0 .204-.014.396-.014.233-.014.629 0 .382-.027.834-.028.45-.096.916-.055.465-.192.848a1.8 1.8 0 0 1-.369.629.78.78 0 0 1-.56.246.5.5 0 0 1-.438-.205 1.9 1.9 0 0 1-.3-.561 4.7 4.7 0 0 1-.164-.78q-.055-.436-.083-.833a11 11 0 0 1-.027-.752v-1.121q0-.41.027-.875.028-.465.096-.944.083-.478.219-.875.15-.396.383-.642a.77.77 0 0 1 .588-.246q.37 0 .56.369t.287.861.11.984q.013.479.013.712m7.109 3.609a.62.62 0 0 1-.233.478q-.219.205-.574.37-.342.163-.793.273a10 10 0 0 1-.875.178 9 9 0 0 1-.807.095 6 6 0 0 1-.615.041q-.233 0-.656-.013a4.2 4.2 0 0 1-.82-.11 2.1 2.1 0 0 1-.711-.273.64.64 0 0 1-.301-.56q0-.274.191-.67.192-.397.493-.862.3-.465.67-.943.368-.492.724-.944.355-.45.67-.82.315-.383.492-.629a10 10 0 0 0-.492.123 31 31 0 0 1-.602.137q-.314.069-.615.123a4 4 0 0 1-.492.041q-.165 0-.37-.055a2.2 2.2 0 0 1-.396-.177 1.5 1.5 0 0 1-.314-.26.53.53 0 0 1-.123-.342q0-.246.219-.451a2 2 0 0 1 .574-.383q.355-.178.793-.3.437-.138.861-.22a7 7 0 0 1 1.422-.177q.26 0 .629.054.37.055.71.192.357.136.602.369.246.232.246.588a.8.8 0 0 1-.027.205 3 3 0 0 1-.041.191q-.027.096-.246.438-.205.328-.52.793-.3.45-.67.984-.354.52-.683.985a108 108 0 0 0-.902 1.298q.56-.15 1.134-.246.588-.11 1.162-.109.138 0 .356.014.219.013.424.082a.9.9 0 0 1 .355.177.36.36 0 0 1 .151.315m6.084-.643q0 .246-.028.643a3.7 3.7 0 0 1-.109.78q-.096.368-.301.642a.68.68 0 0 1-.574.273q-.506 0-.779-.328-.274-.328-.26-.82a3.4 3.4 0 0 1-.998.601 3 3 0 0 1-1.121.219q-.397 0-.752-.191a2.3 2.3 0 0 1-.629-.493 2.5 2.5 0 0 1-.438-.67 1.9 1.9 0 0 1-.164-.751q0-.656.397-1.149.41-.492.998-.834a5.7 5.7 0 0 1 1.244-.56 7.5 7.5 0 0 1 1.189-.274v-.123a.5.5 0 0 0 .014-.123q0-.423-.232-.683-.233-.26-.657-.26-.34 0-.587.123-.247.11-.465.26-.219.135-.438.26-.219.109-.492.109a.76.76 0 0 1-.52-.192.65.65 0 0 1-.205-.492q0-.45.26-.82.274-.369.67-.615.41-.26.875-.397.479-.15.875-.15.369 0 .738.095.37.082.698.274.327.178.588.451.273.26.437.615.246.506.397 1.08.15.56.232 1.162.082.588.109 1.19.028.588.028 1.148m-2.188-.437-.041-.93h-.055a.1.1 0 0 0-.054-.014q-.178 0-.451.096a2 2 0 0 0-.506.246 2 2 0 0 0-.424.342.6.6 0 0 0-.164.397q0 .19.137.26a.7.7 0 0 0 .314.068 1.6 1.6 0 0 0 .643-.15q.341-.165.601-.315m7.752-2.748a.9.9 0 0 1-.328-.028l-.273-.109a3 3 0 0 0-.247-.096.54.54 0 0 0-.273-.04q-.273.012-.492.15a2 2 0 0 0-.383.342 2.4 2.4 0 0 0-.287.464 2.7 2.7 0 0 0-.191.493 3 3 0 0 0-.069.505 17 17 0 0 0-.014.711q-.013.397-.013.752 0 .356-.028.56a4 4 0 0 1-.068.52 2.2 2.2 0 0 1-.178.547 1.3 1.3 0 0 1-.3.438.7.7 0 0 1-.493.177.65.65 0 0 1-.41-.136 1.3 1.3 0 0 1-.287-.356 3 3 0 0 1-.191-.533 7 7 0 0 1-.11-.615q-.04-.329-.068-.656l-.027-.616v-.547q.013-.246.013-.396a17 17 0 0 0-.054-.957 17 17 0 0 1-.028-.97q0-.302.028-.67.027-.37.15-.684.123-.328.355-.547.247-.219.67-.219.233 0 .397.15t.26.37q.109.218.164.465.054.245.068.45a3.3 3.3 0 0 1 .738-.86q.41-.343 1.067-.37.329-.013.642.069.329.067.588.246.274.164.438.437.177.274.191.643.028.437-.26.67a1.13 1.13 0 0 1-.697.246m10.268 3.185q0 .246-.028.643a3.7 3.7 0 0 1-.109.78q-.096.368-.301.642a.68.68 0 0 1-.574.273q-.506 0-.779-.328-.274-.328-.26-.82a3.4 3.4 0 0 1-.998.601 3 3 0 0 1-1.121.219q-.397 0-.752-.191a2.3 2.3 0 0 1-.629-.493 2.5 2.5 0 0 1-.438-.67 1.9 1.9 0 0 1-.164-.751q0-.656.397-1.149.41-.492.998-.834a5.7 5.7 0 0 1 1.244-.56 7.5 7.5 0 0 1 1.189-.274v-.123a.5.5 0 0 0 .014-.123q0-.423-.232-.683-.233-.26-.657-.26-.34 0-.587.123-.246.11-.465.26-.219.135-.438.26-.219.109-.492.109a.76.76 0 0 1-.519-.192.64.64 0 0 1-.206-.492q0-.45.26-.82.273-.369.67-.615.41-.26.875-.397.479-.15.875-.15.369 0 .738.095.37.082.698.274.327.178.588.451.273.26.437.615.246.506.397 1.08.15.56.232 1.162.082.588.109 1.19.028.588.028 1.148m-2.188-.437-.041-.93h-.055a.1.1 0 0 0-.054-.014q-.178 0-.451.096a2 2 0 0 0-.506.246 2 2 0 0 0-.424.342.6.6 0 0 0-.164.397q0 .19.137.26a.7.7 0 0 0 .314.068 1.6 1.6 0 0 0 .643-.15q.341-.165.601-.315m12.113.437q0 .246-.027.643a3.7 3.7 0 0 1-.109.78q-.096.368-.301.642a.68.68 0 0 1-.574.273q-.505 0-.78-.328-.273-.328-.259-.82a3.4 3.4 0 0 1-.998.601 3 3 0 0 1-1.121.219q-.397 0-.752-.191a2.3 2.3 0 0 1-.629-.493 2.5 2.5 0 0 1-.438-.67 1.9 1.9 0 0 1-.164-.751q0-.656.397-1.149.41-.492.998-.834a5.7 5.7 0 0 1 1.244-.56 7.4 7.4 0 0 1 1.189-.274v-.123a.5.5 0 0 0 .014-.123q0-.423-.233-.683-.231-.26-.656-.26a1.3 1.3 0 0 0-.588.123q-.246.11-.464.26-.219.135-.438.26-.219.109-.492.109a.76.76 0 0 1-.52-.192.65.65 0 0 1-.205-.492q0-.45.26-.82.273-.369.67-.615.41-.26.875-.397.479-.15.875-.15.369 0 .738.095.37.082.697.274.328.178.588.451.274.26.438.615.246.506.396 1.08.151.56.233 1.162.082.588.109 1.19.027.588.027 1.148m-2.187-.437-.041-.93h-.055a.1.1 0 0 0-.054-.014q-.178 0-.452.096a2 2 0 0 0-.505.246q-.247.15-.424.342a.6.6 0 0 0-.164.397q0 .19.136.26a.7.7 0 0 0 .315.068q.3 0 .642-.15.342-.165.602-.315m9.27-1.71q0 .603-.137 1.327a4.6 4.6 0 0 1-.438 1.326q-.3.615-.806 1.025-.492.41-1.245.41-.19 0-.396-.027a2 2 0 0 1-.396-.095 1.4 1.4 0 0 1-.329-.178.8.8 0 0 1-.232-.315l-.123 1.97q-.013.314-.027.751 0 .438-.11.834a1.5 1.5 0 0 1-.342.67q-.232.287-.683.287-.26 0-.438-.273a2.2 2.2 0 0 1-.287-.67 8 8 0 0 1-.15-.916 13 13 0 0 1-.069-.97q-.013-.465-.013-.849v-.56q0-.915-.014-1.819-.014-.915-.014-1.831v-.506q0-.356.028-.766.027-.41.082-.848.068-.437.191-.793.123-.37.315-.587a.58.58 0 0 1 .465-.233q.177 0 .314.11.15.095.246.26.11.15.178.327t.109.328q.424-.478.971-.724.56-.246 1.189-.246.656 0 1.067.369.423.369.656.916.246.546.342 1.176.096.615.096 1.12m-1.956-.109a2 2 0 0 0-.041-.41 1.1 1.1 0 0 0-.123-.396.66.66 0 0 0-.246-.301.66.66 0 0 0-.41-.123q-.328 0-.697.219a1.5 1.5 0 0 0-.533.478q-.069.11-.082.356-.015.246-.014.369v.26l.027.314.028.315q.027.15.068.232.041.123.178.232.136.096.301.178.163.082.328.123.177.04.3.041a.57.57 0 0 0 .465-.219q.178-.218.274-.52.11-.3.136-.614a4 4 0 0 0 .041-.534m5.346-4.101q0 .738-.068 1.49-.055.738-.055 1.49 0 .971.055 1.942.068.97.068 1.955 0 .245-.027.56-.027.301-.137.56a1.05 1.05 0 0 1-.301.438q-.204.178-.547.178-.327 0-.574-.328a2.9 2.9 0 0 1-.396-.807 10 10 0 0 1-.26-1.12q-.096-.615-.15-1.19a72 72 0 0 1-.069-1.067 29 29 0 0 1-.013-.724q0-.26.013-.752.027-.492.096-1.067.068-.573.178-1.162.123-.6.314-1.08.192-.492.451-.793.274-.314.643-.314.3 0 .451.205.164.191.232.478.069.275.082.588.015.3.014.52m3.295-1.258a.56.56 0 0 1-.109.342q-.096.15-.26.273a1.6 1.6 0 0 1-.356.178 1.3 1.3 0 0 1-.355.055.85.85 0 0 1-.479-.137q-.204-.137-.205-.424 0-.205.096-.355a.9.9 0 0 1 .26-.26q.15-.11.342-.164.19-.055.369-.055.26 0 .478.123.219.123.219.424m.109 4.649v.41q0 .204-.013.396-.014.233-.014.629 0 .382-.027.834-.027.45-.096.916-.054.465-.191.848a1.8 1.8 0 0 1-.37.629.78.78 0 0 1-.56.246.51.51 0 0 1-.438-.205 1.9 1.9 0 0 1-.3-.561 4.6 4.6 0 0 1-.164-.78q-.055-.436-.082-.833a11 11 0 0 1-.028-.752v-1.121q0-.41.028-.875.027-.465.095-.944.082-.478.219-.875.15-.396.383-.642a.77.77 0 0 1 .588-.246q.37 0 .56.369.192.369.287.861.096.492.11.984.013.479.013.712m6.043-.356a1 1 0 0 1-.013.15 1 1 0 0 1-.041.137q-.123.314-.383.533a.96.96 0 0 1-.615.205q-.534 0-.725-.533a.4.4 0 0 1-.027-.15 1.4 1.4 0 0 0-.014-.192v-.396a.8.8 0 0 0-.096-.3q-.068-.11-.232-.11-.232 0-.451.3a3.3 3.3 0 0 0-.369.698 6 6 0 0 0-.247.82q-.095.424-.095.684 0 .204.027.506.027.287.11.56.081.273.218.479a.47.47 0 0 0 .383.191.7.7 0 0 0 .424-.137q.206-.15.396-.341.178-.165.383-.342a.76.76 0 0 1 .492-.178.64.64 0 0 1 .534.246q.204.246.205.56 0 .465-.246.876-.246.396-.616.697a3 3 0 0 1-.82.451 2.4 2.4 0 0 1-.861.178q-.738 0-1.258-.37a2.9 2.9 0 0 1-.82-.929 4.4 4.4 0 0 1-.452-1.244 6.4 6.4 0 0 1-.136-1.272q0-.697.191-1.504a5.7 5.7 0 0 1 .588-1.517 3.8 3.8 0 0 1 1.012-1.162q.629-.465 1.49-.465.533 0 .916.232.396.232.643.616.26.369.382.834.137.465.137.916v.136a.6.6 0 0 1-.014.137m6.577 3.322q0 .246-.028.643a3.7 3.7 0 0 1-.109.78q-.096.368-.301.642a.68.68 0 0 1-.574.273q-.506 0-.779-.328-.274-.328-.26-.82a3.4 3.4 0 0 1-.998.601 3 3 0 0 1-1.121.219q-.397 0-.752-.191a2.3 2.3 0 0 1-.629-.493 2.5 2.5 0 0 1-.438-.67 1.9 1.9 0 0 1-.164-.751q0-.656.397-1.149.41-.492.998-.834a5.7 5.7 0 0 1 1.244-.56 7.5 7.5 0 0 1 1.189-.274v-.123a.5.5 0 0 0 .014-.123q0-.423-.232-.683t-.657-.26q-.341 0-.588.123-.246.11-.464.26-.219.135-.438.26-.219.109-.492.109a.76.76 0 0 1-.52-.192.65.65 0 0 1-.205-.492q0-.45.26-.82.274-.369.67-.615.41-.26.875-.397.479-.15.875-.15.369 0 .738.095.37.082.698.274.327.178.587.451.274.26.438.615.246.506.396 1.08.151.56.233 1.162.082.588.109 1.19.028.588.028 1.148m-2.188-.437-.041-.93h-.055a.1.1 0 0 0-.054-.014q-.178 0-.452.096a2 2 0 0 0-.505.246 2 2 0 0 0-.424.342.6.6 0 0 0-.164.397q0 .19.136.26a.7.7 0 0 0 .315.068q.3 0 .642-.15.342-.165.602-.315m7.26 4.375q0 .396-.192.738a2.2 2.2 0 0 1-.492.602q-.3.26-.683.41t-.752.15q-.274 0-.561-.054a1.7 1.7 0 0 1-.519-.165 1.8 1.8 0 0 1-.424-.314 1.2 1.2 0 0 1-.287-.479.4.4 0 0 1-.041-.177.48.48 0 0 1 .164-.37q.177-.15.369-.15a.42.42 0 0 1 .287.096l.26.232q.136.123.328.219.191.11.519.11.274 0 .52-.178a.56.56 0 0 0 .246-.479q0-.204-.15-.342a1.6 1.6 0 0 0-.328-.246l-.383-.219a.74.74 0 0 1-.287-.232q-.11-.15-.11-.437v-.657a1.9 1.9 0 0 1-.943-.492 3 3 0 0 1-.615-.888 4.7 4.7 0 0 1-.342-1.08 6 6 0 0 1-.11-1.094q0-.452.082-.957a6.4 6.4 0 0 1 .247-.998q.164-.492.423-.944.26-.45.602-.793a3 3 0 0 1 .793-.547q.451-.204.998-.205.492 0 .861.22.37.217.602.573.246.356.369.793t.123.875q0 .11-.014.26 0 .15-.041.26a1.2 1.2 0 0 1-.355.478.9.9 0 0 1-.561.192q-.465 0-.642-.465a1 1 0 0 1-.041-.315 1.8 1.8 0 0 0-.014-.382.7.7 0 0 0-.096-.328q-.081-.138-.287-.137-.246 0-.465.3a3 3 0 0 0-.382.698q-.165.41-.26.834a3 3 0 0 0-.096.656q0 .178.027.479.042.286.124.574.095.287.246.492a.5.5 0 0 0 .41.205q.246 0 .451-.15t.396-.329q.192-.19.383-.341.192-.15.424-.15.287 0 .465.218a.74.74 0 0 1 .191.506q0 .356-.164.683a2.3 2.3 0 0 1-.424.575 2.7 2.7 0 0 1-.601.45 2.5 2.5 0 0 1-.67.274v.082q0 .082-.014.178a.34.34 0 0 1-.041.178q.22.082.479.219.26.15.478.341.219.206.369.438a.95.95 0 0 1 .151.506m7.15-3.938q0 .246-.027.643a3.8 3.8 0 0 1-.109.78q-.096.368-.301.642a.68.68 0 0 1-.575.273q-.506 0-.779-.328t-.26-.82a3.3 3.3 0 0 1-.998.601 3 3 0 0 1-1.121.219q-.396 0-.752-.191a2.4 2.4 0 0 1-.629-.493 2.5 2.5 0 0 1-.437-.67 1.9 1.9 0 0 1-.164-.751q0-.656.396-1.149.41-.492.998-.834a5.7 5.7 0 0 1 1.245-.56A7.4 7.4 0 0 1 169 73.16v-.123a.5.5 0 0 0 .014-.123q0-.423-.233-.683-.232-.26-.656-.26a1.3 1.3 0 0 0-.588.123q-.246.11-.465.26-.219.135-.437.26-.219.109-.492.109a.76.76 0 0 1-.52-.192.64.64 0 0 1-.205-.492q0-.45.26-.82.273-.369.67-.615.41-.26.875-.397.478-.15.875-.15.369 0 .738.095.369.082.697.274.328.178.588.451.273.26.438.615.246.506.396 1.08.15.56.233 1.162.082.588.109 1.19.027.588.027 1.148m-2.187-.437-.041-.93h-.055a.1.1 0 0 0-.055-.014 1.4 1.4 0 0 0-.451.096 2 2 0 0 0-.506.246q-.246.15-.424.342a.6.6 0 0 0-.164.397q0 .19.137.26a.7.7 0 0 0 .315.068q.3 0 .642-.15.342-.165.602-.315m1.654-7.82a.9.9 0 0 1-.137.437 2 2 0 0 1-.342.41 2.3 2.3 0 0 1-.437.3q-.233.11-.437.11-.206 0-.411-.068a15 15 0 0 1-.396-.178 4 4 0 0 0-.383-.164 1 1 0 0 0-.383-.082q-.15 0-.301.096a4 4 0 0 0-.314.191 4 4 0 0 1-.342.178.7.7 0 0 1-.328.082.43.43 0 0 1-.355-.178.65.65 0 0 1-.137-.383q0-.232.164-.45.164-.22.41-.384.246-.178.506-.273.274-.11.478-.11.233 0 .397.096.178.096.328.22.15.122.301.218a.75.75 0 0 0 .383.096.6.6 0 0 0 .328-.096q.164-.109.314-.233.165-.136.301-.232.15-.11.314-.11.191 0 .329.165.15.164.15.341m3.951 10.582q-.697 0-1.217-.37a3.2 3.2 0 0 1-.875-.943 4.5 4.5 0 0 1-.533-1.272 5.8 5.8 0 0 1-.178-1.394q0-.725.178-1.49.178-.78.547-1.409a3.15 3.15 0 0 1 .943-1.038q.575-.41 1.368-.41.765 0 1.298.423.548.41.875 1.04.328.614.465 1.353.137.738.096 1.394-.041.725-.232 1.463a4.7 4.7 0 0 1-.534 1.326 3 3 0 0 1-.902.957q-.547.37-1.299.37m.137-6.18q-.206 0-.369.219-.15.218-.26.533a5 5 0 0 0-.15.67 4 4 0 0 0-.055.601q0 .328.055.711.068.383.177.711.11.314.26.533.164.205.369.205.219 0 .369-.205.165-.204.26-.52.096-.314.137-.683.04-.383.041-.71 0-.301-.055-.657a3.7 3.7 0 0 0-.164-.684 1.5 1.5 0 0 0-.26-.52q-.15-.204-.355-.204m12.715-3.213q0 .998-.082 1.982a28 28 0 0 0-.069 1.983q0 .806.041 1.6.055.792.055 1.599 0 .218-.014.533-.014.3-.095.588a1.15 1.15 0 0 1-.246.492q-.165.205-.479.205a.89.89 0 0 1-.684-.3 1.5 1.5 0 0 1-.328-.698 2.3 2.3 0 0 1-.752.834 1.83 1.83 0 0 1-1.066.342q-.615 0-1.066-.424a3.7 3.7 0 0 1-.739-1.025 6 6 0 0 1-.437-1.258 5.7 5.7 0 0 1-.137-1.135 8.6 8.6 0 0 1 .178-1.668q.11-.45.273-.875.165-.437.41-.779.26-.342.602-.547.356-.205.807-.205.492 0 .943.287t.684.711l.123-2.174q.013-.26.041-.601.027-.355.109-.67.096-.315.287-.533.192-.22.561-.22.396 0 .615.192.22.192.314.492.11.287.123.63.028.34.028.642m-2.229 6.07q0-.315-.013-.615a6 6 0 0 1 0-.615 8 8 0 0 0-.192-.383 1.7 1.7 0 0 0-.273-.397 1.4 1.4 0 0 0-.342-.314.75.75 0 0 0-.41-.123.54.54 0 0 0-.397.15q-.15.15-.218.37a2 2 0 0 0-.096.45 8 8 0 0 0-.014.425 6 6 0 0 0 .123 1.134q.083.328.219.575.137.245.369.246a1 1 0 0 0 .356-.069q.177-.082.328-.191.163-.123.3-.26a6 6 0 0 0 .26-.273zm8.86.492q0 .466-.301.916a3.4 3.4 0 0 1-.738.793 4.3 4.3 0 0 1-.944.56 2.5 2.5 0 0 1-.93.206q-.725 0-1.298-.355a3.4 3.4 0 0 1-.944-.93 4.5 4.5 0 0 1-.588-1.23 5 5 0 0 1-.191-1.327q0-.684.191-1.463.191-.78.575-1.435a3.8 3.8 0 0 1 .984-1.094q.602-.437 1.422-.437.465 0 .889.164a2.15 2.15 0 0 1 1.244 1.12q.19.397.191.89 0 .642-.273 1.203a3.2 3.2 0 0 1-.725.97 3.8 3.8 0 0 1-1.039.67 3.5 3.5 0 0 1-1.203.273q.054.397.314.575.274.177.643.177.273 0 .533-.136a6 6 0 0 0 .506-.301q.247-.177.478-.314.247-.137.493-.137a.76.76 0 0 1 .492.178.57.57 0 0 1 .219.464m-2.215-3.35a.8.8 0 0 0-.096-.368.32.32 0 0 0-.301-.192q-.3 0-.506.164-.204.15-.341.397a2.3 2.3 0 0 0-.219.506q-.069.273-.082.505.191-.04.451-.109a3 3 0 0 0 .506-.178q.246-.123.41-.3a.58.58 0 0 0 .178-.424m8.312-3.759a.56.56 0 0 1-.109.342q-.096.15-.26.273a1.6 1.6 0 0 1-.355.178 1.3 1.3 0 0 1-.356.055.84.84 0 0 1-.478-.137q-.205-.137-.205-.424 0-.205.095-.355a.9.9 0 0 1 .26-.26q.15-.11.342-.164.191-.055.369-.055.26 0 .479.123t.218.424m.11 4.649v.41q0 .204-.014.396-.014.233-.014.629 0 .382-.027.834-.027.45-.096.916-.054.465-.191.848a1.8 1.8 0 0 1-.369.629.78.78 0 0 1-.561.246.5.5 0 0 1-.437-.205 1.9 1.9 0 0 1-.301-.561 4.6 4.6 0 0 1-.164-.78q-.055-.436-.082-.833a12 12 0 0 1-.028-.752v-1.121q0-.41.028-.875.027-.465.095-.944.082-.478.219-.875.15-.396.383-.642a.77.77 0 0 1 .588-.246q.37 0 .56.369.192.369.288.861t.109.984q.014.479.014.712m4.853 5.277q-.232 0-.369-.219a1.5 1.5 0 0 1-.205-.478 4 4 0 0 1-.096-.547 8 8 0 0 1 .028-1.258l.109-.82q.069-.41.109-.82.055-.411.055-.821 0-.165-.014-.356a1.5 1.5 0 0 0-.068-.355.6.6 0 0 0-.15-.287.4.4 0 0 0-.288-.11q-.123 0-.273.206-.15.191-.287.45a5 5 0 0 0-.219.507 1.3 1.3 0 0 0-.082.369v.615q.014.3.014.615v.793q-.014.246-.041.506a5 5 0 0 1-.082.506 3 3 0 0 1-.123.478 1.5 1.5 0 0 1-.219.397q-.123.164-.301.273a.8.8 0 0 1-.424.11.6.6 0 0 1-.451-.178 1.3 1.3 0 0 1-.287-.451 3 3 0 0 1-.164-.63 22 22 0 0 1-.068-.683 16 16 0 0 1-.014-.615q.014-.287.014-.451v-.643q0-.52-.028-1.025a38 38 0 0 1-.013-1.012v-.697q.013-.424.109-.82a1.8 1.8 0 0 1 .314-.698q.22-.287.643-.287.192 0 .342.123t.26.301q.123.178.191.383.083.205.123.355a3 3 0 0 1 .315-.369 2.4 2.4 0 0 1 .423-.314 2.2 2.2 0 0 1 1.176-.301q.697 0 1.08.342.397.328.574.834.192.492.233 1.066.04.575.041 1.04 0 .231-.041.697-.04.45-.137 1.011a12 12 0 0 1-.232 1.135 7.6 7.6 0 0 1-.356 1.053 2.6 2.6 0 0 1-.492.779q-.273.3-.629.3m6.658-7.902q0 .396-.273.587-.26.192-.588.37-.328.163-.602.396-.26.232-.259.697 0 .246.109.424.123.178.287.328.178.137.383.287t.369.342q.178.192.287.465.123.273.123.67 0 .574-.3 1.135a3.75 3.75 0 0 1-1.778 1.668q-.574.26-1.135.26-.232 0-.464-.042a1.3 1.3 0 0 1-.424-.123.9.9 0 0 1-.301-.26.8.8 0 0 1-.123-.45q0-.384.15-.588.151-.219.383-.342t.492-.192q.274-.068.506-.164.233-.11.383-.273t.15-.465q0-.287-.232-.588-.219-.314-.492-.656a7 7 0 0 1-.506-.752 1.8 1.8 0 0 1-.219-.875q0-.588.233-1.08.246-.507.642-.875.41-.37.93-.575a2.8 2.8 0 0 1 1.094-.218q.218 0 .423.04.22.042.383.151.165.096.26.274a.75.75 0 0 1 .109.424m6.536 3.609q0 .752-.151 1.49a4.1 4.1 0 0 1-.506 1.326 2.75 2.75 0 0 1-.957.93q-.588.355-1.476.355-.876 0-1.463-.341a2.8 2.8 0 0 1-.944-.93 4.2 4.2 0 0 1-.492-1.299 8 8 0 0 1-.136-1.477q0-.82.191-1.626.04-.22.15-.602.123-.396.301-.766.192-.383.424-.656.246-.273.533-.273.273 0 .438.15t.259.383q.096.219.123.478.028.247.028.452 0 .314-.055.615-.04.3-.096.601l-.109.82a8 8 0 0 0-.027 1.286q.027.246.109.478.082.233.232.397.151.15.424.15.356 0 .561-.191.218-.191.314-.479.11-.287.137-.615.027-.329.027-.602 0-.6-.082-1.175a53 53 0 0 1-.15-1.19 1.3 1.3 0 0 1 .055-.602q.068-.204.191-.368a.9.9 0 0 1 .301-.26.74.74 0 0 1 .396-.11q.302 0 .533.22.233.204.383.546.165.329.26.752.11.41.164.82.069.397.082.752.027.356.028.56m3.39-4.375q0 .738-.068 1.49-.055.738-.055 1.49 0 .971.055 1.942.068.97.068 1.955 0 .245-.027.56-.027.301-.137.56a1.05 1.05 0 0 1-.301.438q-.204.178-.547.178-.327 0-.574-.328a2.9 2.9 0 0 1-.396-.807 10 10 0 0 1-.26-1.12q-.096-.615-.15-1.19a72 72 0 0 1-.069-1.067 29 29 0 0 1-.013-.724q0-.26.013-.752.027-.492.096-1.067.068-.573.178-1.162.123-.6.314-1.08.192-.492.451-.793.274-.314.643-.314.3 0 .451.205.164.191.232.478.069.275.082.588.014.3.014.52m3.295-1.258a.56.56 0 0 1-.109.342q-.096.15-.26.273a1.6 1.6 0 0 1-.356.178 1.3 1.3 0 0 1-.355.055.85.85 0 0 1-.479-.137q-.205-.137-.205-.424 0-.205.096-.355a.9.9 0 0 1 .26-.26q.15-.11.342-.164.19-.055.369-.055.26 0 .478.123.219.123.219.424m.109 4.649v.41q0 .204-.013.396-.014.233-.014.629 0 .382-.027.834-.027.45-.096.916-.054.465-.191.848a1.8 1.8 0 0 1-.37.629.78.78 0 0 1-.56.246.51.51 0 0 1-.438-.205 1.9 1.9 0 0 1-.3-.561 4.6 4.6 0 0 1-.164-.78q-.055-.436-.082-.833a11 11 0 0 1-.028-.752V73.76q0-.41.028-.875.027-.465.095-.944.082-.478.219-.875.15-.396.383-.642a.77.77 0 0 1 .588-.246q.37 0 .56.369.192.369.287.861.096.492.11.984.013.479.013.712m4.854 5.277q-.233 0-.369-.219a1.5 1.5 0 0 1-.205-.478 4 4 0 0 1-.096-.547 10 10 0 0 1-.014-.438q0-.41.041-.82l.11-.82q.068-.41.109-.82.055-.411.055-.821 0-.165-.014-.356a1.5 1.5 0 0 0-.068-.355.6.6 0 0 0-.151-.287.4.4 0 0 0-.287-.11q-.123 0-.273.206-.15.191-.287.45a5 5 0 0 0-.219.507 1.3 1.3 0 0 0-.082.369v.615q.014.3.014.615v.793q-.014.246-.041.506a5 5 0 0 1-.082.506 3 3 0 0 1-.123.478 1.5 1.5 0 0 1-.219.397q-.123.164-.301.273a.8.8 0 0 1-.424.11.6.6 0 0 1-.451-.178 1.3 1.3 0 0 1-.287-.451 3 3 0 0 1-.164-.63q-.041-.354-.069-.683a16 16 0 0 1-.013-.615q.013-.287.013-.451v-.643q0-.52-.027-1.025a38 38 0 0 1-.014-1.012v-.697q.014-.424.11-.82.095-.41.314-.698.219-.287.643-.287.19 0 .342.123.15.123.259.301.123.178.192.383.083.205.123.355.137-.19.314-.369.192-.177.424-.314a2.2 2.2 0 0 1 1.176-.301q.697 0 1.08.342.397.328.574.834.192.492.233 1.066.04.575.041 1.04 0 .231-.041.697-.041.45-.137 1.011a12 12 0 0 1-.232 1.135 7.6 7.6 0 0 1-.356 1.053 2.6 2.6 0 0 1-.492.779q-.273.3-.629.3m8.463-2.31q0 .245-.028.642a3.7 3.7 0 0 1-.109.78q-.096.368-.301.642a.68.68 0 0 1-.574.273q-.506 0-.779-.328t-.26-.82a3.4 3.4 0 0 1-.998.601 3 3 0 0 1-1.121.219q-.396 0-.752-.191a2.3 2.3 0 0 1-.629-.493 2.5 2.5 0 0 1-.437-.67 1.9 1.9 0 0 1-.164-.751q0-.656.396-1.149.41-.492.998-.834a5.7 5.7 0 0 1 1.244-.56 7.5 7.5 0 0 1 1.19-.274v-.123a.5.5 0 0 0 .013-.123q0-.423-.232-.683-.233-.26-.656-.26a1.3 1.3 0 0 0-.588.123q-.246.11-.465.26-.219.135-.438.26-.218.109-.492.109a.76.76 0 0 1-.519-.192.64.64 0 0 1-.205-.492q0-.45.259-.82.274-.369.67-.615.41-.26.875-.397.479-.15.875-.15.369 0 .739.095.369.082.697.274.328.178.588.451.273.26.437.615.246.506.397 1.08.15.56.232 1.162.082.588.109 1.19.028.588.028 1.148m-2.188-.438-.041-.93h-.054a.1.1 0 0 0-.055-.014q-.178 0-.451.096a2 2 0 0 0-.506.246q-.246.15-.424.342a.6.6 0 0 0-.164.397q0 .19.137.26a.7.7 0 0 0 .314.068 1.6 1.6 0 0 0 .643-.15q.342-.165.601-.315m4.991 1.709a.7.7 0 0 1-.082.328.8.8 0 0 1-.219.232 1 1 0 0 1-.287.15.9.9 0 0 1-.315.055 1.4 1.4 0 0 1-.451-.082 1.6 1.6 0 0 1-.437-.205 1.6 1.6 0 0 1-.329-.314.7.7 0 0 1-.136-.424q0-.369.314-.547a1.22 1.22 0 0 1 1.067-.123q.232.069.423.205a1 1 0 0 1 .329.315.7.7 0 0 1 .123.41"/><defs><filter id="a" width="276.304" height="109.202" x=".696" y="0" color-interpolation-filters="sRGB" filterUnits="userSpaceOnUse"><feFlood flood-opacity="0" result="BackgroundImageFix"/><feBlend in="SourceGraphic" in2="BackgroundImageFix" result="shape"/><feColorMatrix in="SourceAlpha" result="hardAlpha" values="0 0 0 0 0 0 0 0 0 0 0 0 0 0 0 0 0 0 127 0"/><feOffset dy="4"/><feGaussianBlur stdDeviation="2"/><feComposite in2="hardAlpha" k2="-1" k3="1" operator="arithmetic"/><feColorMatrix values="0 0 0 0 0 0 0 0 0 0 0 0 0 0 0 0 0 0 0.25 0"/><feBlend in2="shape" result="effect1_innerShadow_871_284"/></filter></defs></svg>