<svg xmlns="http://www.w3.org/2000/svg" width="187" height="115" fill="none" viewBox="0 0 187 115"><g filter="url(#a)"><path fill="#3dc3ff" fill-rule="evenodd" d="M26.733 73.107C8.819 65.602 1 54.527 1 42.54 1 27.79 16.77 13.22 42.86 6.016 55.514 2.522 70.38 1 87.463 1c52.301 0 100.532 15.048 98.473 41.54 0 13.145-8.926 25.232-27.106 32.448-9.913 3.935-22.453 6.258-38.143 6.973-6.172 13.752-15.205 20.833-30.024 32.039 10.867-13.061 17.526-21.482 19.935-31.803l-.832.002c-37.07 2.352-65.106-1.582-83.033-9.092" clip-rule="evenodd"/></g><path fill="#3dc3ff" d="m26.733 73.107-.387.922zM42.86 6.017l-.267-.965zM185.936 42.54l-.997-.078-.003.078zM158.83 74.988l.369.93zm-38.143 6.973-.046-1a1 1 0 0 0-.867.59zM90.663 114l-.77-.64a1.001 1.001 0 0 0 1.373 1.438zm19.935-31.803.974.228a1 1 0 0 0-.977-1.228zm-.832.002v-1q-.032 0-.063.002zM0 42.539c0 12.527 8.205 23.89 26.346 31.49l.773-1.844C9.433 64.775 2 53.988 2 42.54zM42.594 5.053C29.44 8.684 18.828 14.188 11.482 20.7 4.142 27.21 0 34.79 0 42.54h2c0-7 3.743-14.078 10.81-20.343 7.062-6.261 17.379-11.644 30.316-15.217zM87.464 0c-17.136 0-32.1 1.526-44.87 5.052l.532 1.928C55.664 3.518 70.434 2 87.463 2zm99.469 42.617c.542-6.972-2.242-13.15-7.447-18.445-5.186-5.275-12.8-9.705-22.042-13.27C138.955 3.772 113.691 0 87.464 0v2c26.072 0 51.074 3.753 69.261 10.769 9.096 3.508 16.423 7.808 21.335 12.805 4.894 4.978 7.367 10.615 6.879 16.888zm-27.734 33.3c18.427-7.314 27.737-19.696 27.737-33.377h-2c0 12.608-8.543 24.4-26.475 31.518zm-38.467 7.043c15.757-.718 28.417-3.053 38.467-7.043l-.738-1.859c-9.775 3.88-22.196 6.192-37.82 6.904zm-.958-1.409c-6.054 13.49-14.88 20.433-29.715 31.651l1.207 1.596c14.804-11.195 24.043-18.413 30.333-32.428zM91.431 114.64c10.833-13.019 17.668-21.623 20.141-32.215l-1.948-.455c-2.345 10.048-8.827 18.287-19.73 31.39zm18.335-31.441q.419 0 .835-.002l-.006-2-.829.002zm-83.42-9.17c18.126 7.594 46.335 11.525 83.483 9.168l-.126-1.996c-36.992 2.347-64.855-1.59-82.584-9.016z"/><path fill="#fff" d="M42.734 48.516q-.952 0-1.656-.485a3.8 3.8 0 0 1-1.172-1.265 6.9 6.9 0 0 1-.687-1.875 11.1 11.1 0 0 1 .015-4.453q.25-1.126.75-2.032a4.6 4.6 0 0 1 1.266-1.484q.765-.578 1.828-.578 1.031 0 1.719.562.703.547 1.11 1.438.42.875.593 1.968.188 1.095.188 2.188 0 1.219-.25 2.313a6.2 6.2 0 0 1-.735 1.906q-.484.829-1.234 1.312-.735.485-1.735.485m.188-8.72a.68.68 0 0 0-.516.235q-.203.235-.343.625-.141.375-.204.86-.062.468-.062.953 0 .546.062 1.093.078.547.22.985.14.438.343.703.219.266.516.266.344 0 .546-.344.204-.344.313-.828a5.3 5.3 0 0 0 .156-1 10 10 0 0 0 .047-.86q0-.421-.062-.89a4.2 4.2 0 0 0-.172-.86 2.1 2.1 0 0 0-.328-.672.62.62 0 0 0-.516-.265m7.219-2.702a.65.65 0 0 1-.125.39 1.2 1.2 0 0 1-.297.313q-.187.124-.407.203a1.5 1.5 0 0 1-.406.063.96.96 0 0 1-.547-.157q-.234-.156-.234-.484a.74.74 0 0 1 .11-.406q.125-.187.296-.297.172-.126.39-.188.22-.062.423-.062.297 0 .547.14t.25.485m.125 5.312v.469q0 .234-.016.453-.016.266-.016.719 0 .438-.03.953-.033.516-.11 1.047a4.4 4.4 0 0 1-.219.969 2 2 0 0 1-.422.718.9.9 0 0 1-.64.282.58.58 0 0 1-.5-.235 2.2 2.2 0 0 1-.344-.64 5.4 5.4 0 0 1-.188-.891 17 17 0 0 1-.093-.953q-.032-.47-.032-.86v-1.281q0-.468.032-1 .03-.53.109-1.078a6.4 6.4 0 0 1 .25-1 2.2 2.2 0 0 1 .437-.734.88.88 0 0 1 .672-.282q.423 0 .64.422.22.423.329.985t.125 1.125q.016.546.016.812m3.359 4.766q0 .25-.14.64-.125.39-.329.766a2.7 2.7 0 0 1-.437.64q-.25.266-.485.266-.312 0-.312-.312 0-.187.078-.36.078-.171.172-.343.093-.156.172-.328a.7.7 0 0 0 .078-.313.9.9 0 0 1-.5.156.79.79 0 0 1-.61-.28.92.92 0 0 1-.25-.626q0-.5.329-.797.327-.312.828-.312.563 0 .984.297t.422.906m11.656-6.438q-.124 1.14-.25 2.266-.124 1.125-.172 2.25a33 33 0 0 0-.062 2.453q.016 1.157.016 2.453 0 .313-.016.766 0 .453-.11.875-.108.421-.359.719-.234.297-.719.297a.62.62 0 0 1-.406-.141 1.4 1.4 0 0 1-.281-.375 3 3 0 0 1-.188-.5 9 9 0 0 1-.109-.578 12 12 0 0 1-.094-1.22v-2.969q-.36.469-.937.719-.562.234-1.125.234-.703 0-1.219-.328a3 3 0 0 1-.828-.86 4 4 0 0 1-.484-1.155 5 5 0 0 1-.157-1.22v-.093q0-.813.25-1.75a6.8 6.8 0 0 1 .735-1.766Q59.266 40 60 39.47a2.87 2.87 0 0 1 1.734-.547q.531 0 .97.219.452.218.64.718a1.33 1.33 0 0 1 .375-.578.98.98 0 0 1 .672-.234q.515 0 .718.344.22.327.22.734 0 .172-.016.313zm-3.594.375q-.36 0-.671.297-.313.282-.547.703-.235.407-.375.875a3.3 3.3 0 0 0-.125.828q0 .22.031.47.047.249.125.484.094.218.234.375.157.14.391.14.203 0 .469-.093.281-.11.547-.266.265-.172.468-.375t.282-.39q.046-.11.078-.329a6 6 0 0 0 .047-.453 8 8 0 0 0 .062-.844 1.2 1.2 0 0 0-.094-.422 2 2 0 0 0-.218-.468 1.3 1.3 0 0 0-.328-.375.6.6 0 0 0-.376-.157m11.188 2.422a8.5 8.5 0 0 1-.172 1.703 4.7 4.7 0 0 1-.578 1.516q-.405.657-1.094 1.063-.672.405-1.687.406-1 0-1.672-.39a3.2 3.2 0 0 1-1.078-1.063 4.8 4.8 0 0 1-.563-1.485 9 9 0 0 1-.156-1.687q0-.937.219-1.86.046-.249.172-.687.14-.453.343-.875a3.7 3.7 0 0 1 .485-.75q.28-.312.61-.313.311 0 .5.172.186.172.296.438.11.25.14.547.033.28.032.515 0 .36-.063.703-.046.345-.109.688l-.125.937a9.4 9.4 0 0 0-.031 1.47q.03.28.125.546a1.3 1.3 0 0 0 .265.453q.172.172.485.172.405 0 .64-.219.25-.219.36-.547.124-.328.156-.703.03-.375.031-.687 0-.688-.094-1.344a54 54 0 0 1-.171-1.36 1.5 1.5 0 0 1 .063-.687q.077-.234.218-.422.14-.187.344-.297a.85.85 0 0 1 .453-.125q.343 0 .61.25.264.235.437.625.188.375.296.86.126.468.188.937.078.453.094.86.03.406.031.64m7.5 1.688q0 .531-.344 1.047-.328.5-.844.906-.5.39-1.078.64-.578.235-1.062.235a2.76 2.76 0 0 1-1.484-.406 3.9 3.9 0 0 1-1.079-1.063 5.2 5.2 0 0 1-.671-1.406 5.6 5.6 0 0 1-.22-1.516q0-.78.22-1.672.218-.89.656-1.64.453-.75 1.125-1.25.687-.5 1.625-.5.531 0 1.015.187a2.45 2.45 0 0 1 1.422 1.282q.219.453.219 1.015 0 .735-.312 1.375a3.6 3.6 0 0 1-.829 1.11q-.515.468-1.187.765a4 4 0 0 1-1.375.313q.061.453.36.656.311.203.734.203.312 0 .609-.156t.578-.344q.282-.203.547-.36a1.15 1.15 0 0 1 .563-.156.87.87 0 0 1 .562.203q.25.204.25.532m-2.531-3.828a.94.94 0 0 0-.11-.422.36.36 0 0 0-.343-.219.9.9 0 0 0-.579.188 1.4 1.4 0 0 0-.39.453q-.157.266-.25.578a3 3 0 0 0-.094.578q.219-.047.516-.125.311-.078.578-.203.281-.141.469-.344a.66.66 0 0 0 .203-.484m12.64 1.453v.812q0 .5-.03 1.094-.016.594-.095 1.203a5.3 5.3 0 0 1-.25 1.078q-.156.485-.406.797a.78.78 0 0 1-.64.313.6.6 0 0 1-.532-.282 2.2 2.2 0 0 1-.25-.687 5 5 0 0 1-.094-.797v-.64q0-.704.047-1.376.048-.672.047-1.375v-.28q0-.204-.031-.407a1.2 1.2 0 0 0-.11-.36q-.062-.156-.203-.156-.28 0-.453.297a2.7 2.7 0 0 0-.28.672q-.11.39-.157.781-.047.375-.063.563-.03.202-.062.61-.015.405-.063.89-.03.484-.125 1-.078.5-.218.922-.126.405-.329.672-.203.265-.5.265a.64.64 0 0 1-.578-.328 2.4 2.4 0 0 1-.296-.766 6 6 0 0 1-.126-.89q-.015-.453-.015-.703v-.516q.016-.25.016-.516v-.359q0-.25-.016-.547 0-.312-.031-.64a5 5 0 0 0-.063-.594 1.5 1.5 0 0 0-.14-.453q-.094-.172-.22-.172-.203 0-.374.265-.172.25-.297.61-.125.343-.203.687a3 3 0 0 0-.063.5v.094q0 .75.094 1.469.094.718.094 1.468 0 .438-.281.813-.282.36-.782.36a.76.76 0 0 1-.594-.266 2.3 2.3 0 0 1-.39-.719 6 6 0 0 1-.25-.953 12 12 0 0 1-.11-1.031q-.03-.516-.046-.922v-.625q0-.235-.016-.688 0-.453.016-.984.03-.531.093-1.078.063-.563.204-1.016t.359-.734a.73.73 0 0 1 .594-.297q.406 0 .656.219.266.218.266.656 0 .093-.016.187a1 1 0 0 1-.016.172q.172-.25.422-.5a3.7 3.7 0 0 1 .531-.468q.297-.219.625-.344.33-.14.657-.14a.97.97 0 0 1 .562.171q.25.172.438.438.188.249.312.546.125.297.172.563.157-.282.375-.563.234-.297.5-.515t.578-.36a1.7 1.7 0 0 1 .672-.14q.328 0 .563.234t.406.61q.171.36.265.828.094.453.157.906.061.438.078.828.015.375.015.594m9.375-3.438q0 .453-.312.672a6 6 0 0 1-.672.422q-.376.188-.687.453-.297.266-.297.797 0 .282.125.484.14.203.328.375.203.157.437.328t.422.391q.203.219.328.531.14.313.14.766 0 .657-.343 1.297a4.3 4.3 0 0 1-.86 1.125 4.3 4.3 0 0 1-1.171.781q-.657.297-1.297.297-.266 0-.531-.047a1.5 1.5 0 0 1-.485-.14 1.05 1.05 0 0 1-.343-.297.9.9 0 0 1-.141-.516q0-.438.172-.672.172-.25.437-.39.266-.14.563-.22.311-.077.578-.187.266-.124.438-.312.171-.187.171-.532 0-.327-.265-.671-.25-.36-.563-.75a8 8 0 0 1-.578-.86 2.04 2.04 0 0 1-.25-1q0-.672.266-1.234.28-.579.734-1 .47-.422 1.063-.656a3.2 3.2 0 0 1 1.25-.25q.25 0 .484.047.25.046.438.171a.8.8 0 0 1 .296.313.86.86 0 0 1 .125.484m7.266 6.39q0 .282-.031.735a4.3 4.3 0 0 1-.125.89 2.1 2.1 0 0 1-.344.735q-.234.313-.656.313-.579 0-.891-.375t-.297-.938q-.5.438-1.14.688-.625.25-1.282.25-.453 0-.859-.219a2.7 2.7 0 0 1-.719-.562 2.9 2.9 0 0 1-.5-.766 2.2 2.2 0 0 1-.187-.86q0-.75.453-1.312a4.2 4.2 0 0 1 1.141-.953q.67-.406 1.421-.64a8.5 8.5 0 0 1 1.36-.313v-.14a.6.6 0 0 0 .015-.142q0-.484-.265-.78-.266-.298-.75-.298-.391 0-.672.141a3.3 3.3 0 0 0-.531.297q-.25.156-.5.297a1.25 1.25 0 0 1-.563.125.87.87 0 0 1-.594-.219.74.74 0 0 1-.234-.562q0-.516.297-.938.312-.422.766-.703a4 4 0 0 1 1-.453 3.4 3.4 0 0 1 1-.172q.422 0 .843.11.422.093.797.312.375.203.672.515.312.297.5.703.282.579.453 1.235.172.64.266 1.328.093.672.125 1.36.031.671.031 1.312m-2.5-.5-.047-1.062h-.062a.14.14 0 0 0-.063-.015q-.203 0-.515.11a2.3 2.3 0 0 0-.579.28 2.3 2.3 0 0 0-.484.391.7.7 0 0 0-.187.453q0 .219.156.297a.8.8 0 0 0 .359.078q.344 0 .735-.172.39-.187.687-.36m1.891-8.937a1 1 0 0 1-.157.5 2.3 2.3 0 0 1-.39.47 2.7 2.7 0 0 1-.5.343 1.2 1.2 0 0 1-.5.125q-.235 0-.469-.078-.219-.094-.453-.203a4 4 0 0 0-.438-.188 1.1 1.1 0 0 0-.437-.094.64.64 0 0 0-.344.11 5 5 0 0 0-.359.218q-.187.11-.391.204a.8.8 0 0 1-.375.093.49.49 0 0 1-.406-.203.75.75 0 0 1-.156-.437.85.85 0 0 1 .187-.516q.187-.25.469-.437a2.4 2.4 0 0 1 .578-.313q.313-.125.547-.125.266 0 .453.11.203.108.375.25.172.14.344.25.188.108.437.109a.7.7 0 0 0 .375-.11q.188-.124.36-.265.187-.156.343-.266a.6.6 0 0 1 .36-.125q.219 0 .375.188a.58.58 0 0 1 .172.39m4.515 12.094q-.797 0-1.39-.422a3.7 3.7 0 0 1-1-1.078 5.2 5.2 0 0 1-.61-1.453 6.6 6.6 0 0 1-.203-1.594q0-.828.203-1.703.204-.89.625-1.61.423-.734 1.078-1.187.657-.468 1.563-.468.875 0 1.484.484.625.468 1 1.187.375.705.531 1.547.157.844.11 1.594a8.6 8.6 0 0 1-.266 1.672 5.3 5.3 0 0 1-.609 1.516 3.5 3.5 0 0 1-1.031 1.093q-.626.422-1.485.422m.157-7.062q-.235 0-.422.25-.172.25-.297.609-.11.36-.172.766-.063.39-.063.687 0 .375.063.813.078.437.203.812.125.36.297.61.187.234.422.234.25 0 .422-.234.188-.236.297-.594.108-.36.156-.782a8 8 0 0 0 .047-.812q0-.345-.063-.75a4.3 4.3 0 0 0-.187-.781 1.8 1.8 0 0 0-.297-.594q-.172-.234-.406-.234m14.531 1.015a77 77 0 0 1-.891 2.25q-.484 1.172-1.047 2.188a4.6 4.6 0 0 1-.765 1.047 1.36 1.36 0 0 1-.969.406q-.438 0-.859-.438a6.6 6.6 0 0 1-.766-1.062 14 14 0 0 1-.61-1.25 23 23 0 0 1-.374-1.016 45 45 0 0 0-.282-.906 15 15 0 0 1-.281-.984 12 12 0 0 1-.203-.985 6 6 0 0 1-.078-.937q0-.61.218-1 .22-.39.86-.39.25 0 .453.155.203.141.375.407.172.265.328.625.156.343.297.765.14.406.266.844.124.438.25.844.124.405.25.797.14.375.359.75l.25-.641q.141-.36.297-.766.171-.406.359-.828.188-.437.406-.843a8.4 8.4 0 0 1 .891-1.438q.485-.594.953-.594.438 0 .625.266.188.265.188.687t-.141.953q-.14.533-.359 1.094m4.015 6.047q-.796 0-1.39-.422a3.7 3.7 0 0 1-1-1.078 5.2 5.2 0 0 1-.61-1.453 6.6 6.6 0 0 1-.203-1.594q0-.828.203-1.703.204-.89.625-1.61.423-.734 1.079-1.187.656-.468 1.562-.468.875 0 1.484.484.625.468 1 1.187.375.705.532 1.547a6.5 6.5 0 0 1 .109 1.594 8.6 8.6 0 0 1-.266 1.672 5.3 5.3 0 0 1-.609 1.516 3.5 3.5 0 0 1-1.031 1.093q-.626.422-1.485.422m.157-7.062q-.235 0-.422.25-.173.25-.297.609-.11.36-.172.766a4.4 4.4 0 0 0-.062.687q0 .375.062.813.078.437.203.812.124.36.297.61.188.234.422.234.25 0 .422-.234.188-.236.297-.594.11-.36.156-.782a8 8 0 0 0 .047-.812q0-.345-.063-.75a4.3 4.3 0 0 0-.187-.781 1.8 1.8 0 0 0-.297-.594q-.172-.234-.406-.234m9.828.609q0 .079-.016.172a1 1 0 0 1-.047.156 1.5 1.5 0 0 1-.437.61 1.1 1.1 0 0 1-.703.234q-.61 0-.828-.61a.5.5 0 0 1-.032-.171q0-.11-.015-.22v-.452a.9.9 0 0 0-.11-.344q-.078-.125-.265-.125-.266 0-.516.344a3.8 3.8 0 0 0-.422.797 7 7 0 0 0-.281.937 3.7 3.7 0 0 0-.109.781q0 .236.031.578.031.33.125.641.094.312.25.547.171.219.437.219a.8.8 0 0 0 .485-.157q.234-.171.453-.39.203-.187.437-.39a.87.87 0 0 1 .563-.204q.39 0 .609.281a.97.97 0 0 1 .234.641q0 .532-.281 1a3.2 3.2 0 0 1-.703.797q-.422.328-.937.516a2.7 2.7 0 0 1-.985.203q-.843 0-1.437-.422a3.3 3.3 0 0 1-.938-1.063 5 5 0 0 1-.515-1.422 7.2 7.2 0 0 1-.157-1.453q0-.797.219-1.718.219-.939.672-1.735a4.3 4.3 0 0 1 1.156-1.328q.719-.531 1.703-.531.61 0 1.047.265.453.266.735.703.296.423.437.954.156.531.156 1.047v.156a1 1 0 0 1-.015.156m7.422 3.219q0 .531-.344 1.047-.328.5-.844.906-.5.39-1.078.64-.578.235-1.063.235a2.76 2.76 0 0 1-1.484-.406 3.9 3.9 0 0 1-1.078-1.063 5.1 5.1 0 0 1-.672-1.406 5.6 5.6 0 0 1-.219-1.516q0-.78.219-1.672.22-.89.656-1.64.453-.75 1.125-1.25.688-.5 1.625-.5.532 0 1.016.187a2.46 2.46 0 0 1 1.422 1.282q.219.453.219 1.015a3.1 3.1 0 0 1-.313 1.375 3.6 3.6 0 0 1-.828 1.11 4.4 4.4 0 0 1-1.188.765 4 4 0 0 1-1.374.313q.062.453.359.656.312.203.734.203.313 0 .61-.156t.578-.344q.281-.203.547-.36.281-.156.562-.156.312 0 .563.203t.25.532m-2.532-3.828a.94.94 0 0 0-.109-.422.36.36 0 0 0-.344-.219.9.9 0 0 0-.578.188 1.4 1.4 0 0 0-.39.453q-.157.266-.25.578a3 3 0 0 0-.094.578q.219-.047.515-.125.313-.078.579-.203.28-.141.468-.344a.66.66 0 0 0 .203-.484M146 37.547q0 .125-.047.156t-.156.031q-.188 0-.422-.093a4 4 0 0 1-.453-.235 11 11 0 0 1-.438-.297 6 6 0 0 1-.343-.28l-.375.296a5 5 0 0 1-.438.328 5 5 0 0 1-.469.25 1.2 1.2 0 0 1-.437.094.4.4 0 0 1-.156-.031q-.063-.031-.063-.157 0-.234.203-.593.203-.36.5-.688a4 4 0 0 1 .625-.562q.329-.235.578-.235.25 0 .579.235.327.219.609.53.297.314.5.657t.203.594m6.344 1.86q0 .452-.313.671a6 6 0 0 1-.672.422q-.375.188-.687.453-.297.266-.297.797a.9.9 0 0 0 .125.484q.14.203.328.375.203.157.438.328.233.172.422.391.202.219.328.531.14.313.14.766 0 .657-.344 1.297a4.2 4.2 0 0 1-.859 1.125 4.3 4.3 0 0 1-1.172.781q-.656.297-1.297.297-.266 0-.531-.047a1.5 1.5 0 0 1-.484-.14 1.04 1.04 0 0 1-.344-.297.9.9 0 0 1-.141-.516q0-.438.172-.672.173-.25.438-.39t.562-.22q.313-.077.578-.187a1.4 1.4 0 0 0 .438-.312q.172-.187.172-.532 0-.327-.266-.671-.25-.36-.562-.75a8 8 0 0 1-.578-.86 2.03 2.03 0 0 1-.25-1q0-.672.265-1.234.281-.579.735-1a3.5 3.5 0 0 1 1.062-.656q.594-.25 1.25-.25.25 0 .484.047.25.046.438.171a.8.8 0 0 1 .297.313.86.86 0 0 1 .125.484m7.64.187q0 .5-.265.937a3.8 3.8 0 0 1-.641.797q-.375.36-.844.64a6.4 6.4 0 0 1-.843.423 12.6 12.6 0 0 1 .078 2.14q0 .328-.094.625a1.1 1.1 0 0 1-.281.485q-.188.203-.547.203-.625 0-.844-.625a3.3 3.3 0 0 1-.125-.625q-.047-.407-.078-.828-.016-.438-.016-.844v-.672q0-.219.016-.516a1.1 1.1 0 0 1 .156-.484q.14-.203.469-.39.329-.204.672-.422.359-.22.625-.485a.86.86 0 0 0 .266-.625.95.95 0 0 0-.126-.484 1.1 1.1 0 0 0-.328-.36 1.3 1.3 0 0 0-.437-.234 1.3 1.3 0 0 0-.485-.094q-.593 0-.937.203a3 3 0 0 0-.594.422l-.453.422a.75.75 0 0 1-.531.188 1.04 1.04 0 0 1-.688-.266.83.83 0 0 1-.297-.64q0-.61.36-1.032.359-.437.89-.687a4.2 4.2 0 0 1 1.126-.375q.593-.126 1.062-.125.625 0 1.281.28.672.267 1.203.72.547.453.891 1.062.36.609.359 1.266m-2.312 7.593a.73.73 0 0 1-.141.454q-.124.188-.328.312a1.4 1.4 0 0 1-.437.188 1.8 1.8 0 0 1-.454.062 1.4 1.4 0 0 1-.671-.172q-.297-.171-.297-.562 0-.25.125-.438.14-.203.343-.343t.438-.204q.25-.078.469-.078.359 0 .656.188t.297.593"/><defs><filter id="a" width="187" height="119" x="0" y="0" color-interpolation-filters="sRGB" filterUnits="userSpaceOnUse"><feFlood flood-opacity="0" result="BackgroundImageFix"/><feBlend in="SourceGraphic" in2="BackgroundImageFix" result="shape"/><feColorMatrix in="SourceAlpha" result="hardAlpha" values="0 0 0 0 0 0 0 0 0 0 0 0 0 0 0 0 0 0 127 0"/><feOffset dy="4"/><feGaussianBlur stdDeviation="2"/><feComposite in2="hardAlpha" k2="-1" k3="1" operator="arithmetic"/><feColorMatrix values="0 0 0 0 0 0 0 0 0 0 0 0 0 0 0 0 0 0 0.25 0"/><feBlend in2="shape" result="effect1_innerShadow_871_286"/></filter></defs></svg>