<svg width="251" height="124" viewBox="0 0 251 124" fill="none" xmlns="http://www.w3.org/2000/svg">
<g filter="url(#filter0_i_1129_945)">
<path fill-rule="evenodd" clip-rule="evenodd" d="M35.5087 78.8499C11.4857 70.7477 0.999939 58.7902 0.999939 45.8484C0.999939 29.9245 22.149 14.1937 57.1355 6.4157C74.1051 2.64312 94.0429 1 116.951 1C187.088 1 251.768 17.247 249.007 45.8484C249.007 60.04 237.036 73.09 212.656 80.8808C199.363 85.1287 182.546 87.6376 161.505 88.409C153.228 103.256 141.115 110.901 121.241 123C135.815 108.898 144.745 99.8065 147.976 88.6645C147.605 88.6654 147.233 88.6658 146.86 88.6658C97.1474 91.2054 59.55 86.9582 35.5087 78.8499Z" fill="#00C57F"/>
</g>
<path d="M35.5087 78.8499L35.1891 79.7975L35.5087 78.8499ZM57.1355 6.4157L57.3525 7.39187L57.1355 6.4157ZM249.007 45.8484L248.012 45.7523C248.009 45.7842 248.007 45.8163 248.007 45.8484H249.007ZM212.656 80.8808L212.961 81.8333L212.656 80.8808ZM161.505 88.409L161.468 87.4097C161.119 87.4225 160.801 87.6168 160.631 87.9221L161.505 88.409ZM121.241 123L120.546 122.281C120.18 122.636 120.138 123.208 120.45 123.612C120.761 124.015 121.326 124.119 121.761 123.854L121.241 123ZM147.976 88.6645L148.936 88.943C149.024 88.6405 148.964 88.3144 148.774 88.0628C148.585 87.8113 148.288 87.6637 147.973 87.6645L147.976 88.6645ZM146.86 88.6658V87.6658C146.843 87.6658 146.826 87.6663 146.809 87.6671L146.86 88.6658ZM0.999939 45.8484H-6.10352e-05C-6.10352e-05 59.4555 11.0406 71.653 35.1891 79.7975L35.5087 78.8499L35.8283 77.9024C11.9307 69.8425 1.99994 58.125 1.99994 45.8484H0.999939ZM57.1355 6.4157L56.9185 5.43954C39.3398 9.34752 25.1691 15.2669 15.3668 22.2634C5.58802 29.2432 -6.10352e-05 37.4192 -6.10352e-05 45.8484H0.999939H1.99994C1.99994 38.3537 6.98641 30.7023 16.5288 23.8913C26.0477 17.097 39.9447 11.2619 57.3525 7.39187L57.1355 6.4157ZM116.951 1V0C94.0009 0 73.9843 1.64556 56.9185 5.43954L57.1355 6.4157L57.3525 7.39187C74.2259 3.64068 94.0849 2 116.951 2V1ZM249.007 45.8484L250.003 45.9444C250.736 38.3481 246.961 31.673 240.035 26.0009C233.121 20.3394 222.965 15.5797 210.612 11.7437C185.892 4.06703 152.08 0 116.951 0V1V2C151.958 2 185.555 6.05647 210.019 13.6537C222.258 17.4545 232.138 22.1194 238.767 27.5483C245.384 32.9667 248.659 39.0479 248.012 45.7523L249.007 45.8484ZM212.656 80.8808L212.961 81.8333C237.482 73.9973 250.007 60.7055 250.007 45.8484H249.007H248.007C248.007 59.3744 236.59 72.1828 212.352 79.9282L212.656 80.8808ZM161.505 88.409L161.541 89.4083C182.634 88.635 199.55 86.1187 212.961 81.8333L212.656 80.8808L212.352 79.9282C199.176 84.1387 182.457 86.6402 161.468 87.4097L161.505 88.409ZM161.505 88.409L160.631 87.9221C152.503 102.503 140.63 110.025 120.721 122.146L121.241 123L121.761 123.854C141.599 111.777 153.953 104.009 162.378 88.8959L161.505 88.409ZM121.241 123L121.936 123.719C136.453 109.673 145.616 100.392 148.936 88.943L147.976 88.6645L147.015 88.386C143.873 99.2212 135.178 108.124 120.546 122.281L121.241 123ZM146.86 88.6658V89.6658C147.234 89.6658 147.606 89.6654 147.978 89.6645L147.976 88.6645L147.973 87.6645C147.603 87.6654 147.232 87.6658 146.86 87.6658V88.6658ZM35.5087 78.8499L35.1891 79.7975C59.3987 87.9625 97.1376 92.2072 146.911 89.6645L146.86 88.6658L146.809 87.6671C97.1572 90.2036 59.7013 85.9539 35.8283 77.9024L35.5087 78.8499Z" fill="#00C57F"/>
<path d="M47.7278 34.7881C47.6966 35.0589 47.6497 35.3245 47.5872 35.585C47.5351 35.8454 47.4674 36.0798 47.3841 36.2881C47.3007 36.486 47.1914 36.6423 47.056 36.7568C46.931 36.8818 46.7851 36.9443 46.6185 36.9443C46.4518 36.9443 46.3007 36.8141 46.1653 36.5537C46.0299 36.3037 45.8997 35.9704 45.7747 35.5537C45.6601 35.1266 45.5507 34.6475 45.4466 34.1162C45.3528 33.585 45.2643 33.0485 45.181 32.5068C45.108 31.9548 45.0455 31.4183 44.9935 30.8975C44.9414 30.3766 44.8997 29.9235 44.8685 29.5381C44.806 29.9339 44.733 30.3766 44.6497 30.8662C44.5664 31.3558 44.4674 31.8558 44.3528 32.3662C44.2382 32.8662 44.1132 33.361 43.9778 33.8506C43.8424 34.3298 43.6966 34.762 43.5403 35.1475C43.3841 35.5225 43.2174 35.8245 43.0403 36.0537C42.8632 36.2829 42.6757 36.3975 42.4778 36.3975C42.3007 36.3975 42.1237 36.2777 41.9466 36.0381C41.7695 35.7985 41.5976 35.486 41.431 35.1006C41.2643 34.7048 41.108 34.2673 40.9622 33.7881C40.8164 33.3089 40.681 32.8298 40.556 32.3506C40.431 31.861 40.3216 31.4027 40.2278 30.9756C40.1341 30.5381 40.0612 30.1735 40.0091 29.8818C40.0091 30.1006 40.0039 30.3454 39.9935 30.6162C39.9935 30.8766 39.9935 31.0641 39.9935 31.1787C39.9935 31.2308 39.9882 31.4027 39.9778 31.6943C39.9778 31.986 39.9622 32.335 39.931 32.7412C39.8997 33.1475 39.8528 33.585 39.7903 34.0537C39.7278 34.512 39.6341 34.9391 39.5091 35.335C39.3945 35.7308 39.2487 36.0641 39.0716 36.335C38.8945 36.6058 38.6757 36.7516 38.4153 36.7725C38.207 36.6787 38.0299 36.5225 37.8841 36.3037C37.7487 36.0745 37.6341 35.8089 37.5403 35.5068C37.4466 35.2048 37.3737 34.8818 37.3216 34.5381C37.2695 34.1943 37.2278 33.861 37.1966 33.5381C37.1653 33.2048 37.1445 32.8975 37.1341 32.6162C37.1341 32.335 37.1341 32.1058 37.1341 31.9287C37.1341 31.6162 37.1497 31.2256 37.181 30.7568C37.2226 30.2777 37.2851 29.7777 37.3685 29.2568C37.4518 28.736 37.5612 28.2152 37.6966 27.6943C37.832 27.1735 37.9935 26.71 38.181 26.3037C38.3789 25.887 38.6028 25.5485 38.8528 25.2881C39.1132 25.0277 39.4101 24.8975 39.7435 24.8975C39.8997 24.8975 40.0664 24.986 40.2435 25.1631C40.4205 25.3402 40.5976 25.5745 40.7747 25.8662C40.9518 26.1475 41.1237 26.4652 41.2903 26.8193C41.457 27.1735 41.6132 27.5329 41.7591 27.8975C41.9153 28.2516 42.0507 28.5954 42.1653 28.9287C42.2799 29.2516 42.3737 29.5277 42.4466 29.7568C42.5299 29.5068 42.6341 29.2152 42.7591 28.8818C42.8841 28.5485 43.0195 28.2048 43.1653 27.8506C43.3216 27.486 43.4882 27.1318 43.6653 26.7881C43.8528 26.4339 44.0455 26.1214 44.2435 25.8506C44.4414 25.5693 44.6393 25.3454 44.8372 25.1787C45.0455 25.0016 45.2539 24.9131 45.4622 24.9131C45.8268 24.9131 46.1393 25.0485 46.3997 25.3193C46.6601 25.5902 46.8789 25.9443 47.056 26.3818C47.233 26.8089 47.3737 27.2933 47.4778 27.835C47.582 28.3662 47.6601 28.8975 47.7122 29.4287C47.7747 29.9495 47.8112 30.4391 47.8216 30.8975C47.8424 31.3558 47.8528 31.7256 47.8528 32.0068C47.8528 32.1214 47.8528 32.2777 47.8528 32.4756C47.8528 32.6735 47.8476 32.8975 47.8372 33.1475C47.8372 33.3975 47.8268 33.6631 47.806 33.9443C47.7851 34.2256 47.7591 34.5068 47.7278 34.7881ZM55.6028 34.2881C55.6028 34.4756 55.5924 34.7204 55.5716 35.0225C55.5612 35.3245 55.5195 35.6214 55.4466 35.9131C55.3737 36.1943 55.2591 36.4391 55.1028 36.6475C54.9466 36.8558 54.7278 36.96 54.4466 36.96C54.0612 36.96 53.7643 36.835 53.556 36.585C53.3476 36.335 53.2487 36.0225 53.2591 35.6475C52.9257 35.9391 52.5455 36.1683 52.1185 36.335C51.7018 36.5016 51.2747 36.585 50.8372 36.585C50.5351 36.585 50.2487 36.512 49.9778 36.3662C49.707 36.2204 49.4674 36.0329 49.2591 35.8037C49.0507 35.5745 48.8841 35.3193 48.7591 35.0381C48.6341 34.7464 48.5716 34.46 48.5716 34.1787C48.5716 33.6787 48.7226 33.2412 49.0247 32.8662C49.3372 32.4912 49.7174 32.1735 50.1653 31.9131C50.6132 31.6423 51.0872 31.4287 51.5872 31.2725C52.0976 31.1162 52.5507 31.012 52.9466 30.96C52.9466 30.9079 52.9466 30.861 52.9466 30.8193C52.957 30.7777 52.9622 30.7308 52.9622 30.6787C52.9622 30.3558 52.8737 30.0954 52.6966 29.8975C52.5195 29.6995 52.2695 29.6006 51.9466 29.6006C51.6862 29.6006 51.4622 29.6475 51.2747 29.7412C51.0872 29.8245 50.9101 29.9235 50.7435 30.0381C50.5768 30.1423 50.4101 30.2412 50.2435 30.335C50.0768 30.4183 49.8893 30.46 49.681 30.46C49.4518 30.46 49.2539 30.387 49.0872 30.2412C48.931 30.0954 48.8528 29.9079 48.8528 29.6787C48.8528 29.335 48.9518 29.0225 49.1497 28.7412C49.358 28.46 49.6132 28.2256 49.9153 28.0381C50.2278 27.8402 50.5612 27.6891 50.9153 27.585C51.2799 27.4704 51.6132 27.4131 51.9153 27.4131C52.1966 27.4131 52.4778 27.4495 52.7591 27.5225C53.0403 27.585 53.306 27.6891 53.556 27.835C53.806 27.9704 54.0299 28.1423 54.2278 28.3506C54.4362 28.5485 54.6028 28.7829 54.7278 29.0537C54.9153 29.4391 55.0664 29.8506 55.181 30.2881C55.2955 30.7152 55.3841 31.1579 55.4466 31.6162C55.5091 32.0641 55.5507 32.5173 55.5716 32.9756C55.5924 33.4235 55.6028 33.861 55.6028 34.2881ZM53.1028 33.7881L53.056 32.7256C53.0351 32.7256 53.0143 32.7256 52.9935 32.7256C52.9726 32.7152 52.9518 32.71 52.931 32.71C52.7955 32.71 52.6237 32.7464 52.4153 32.8193C52.2174 32.8818 52.0247 32.9756 51.8372 33.1006C51.6497 33.2152 51.4882 33.3454 51.3528 33.4912C51.2278 33.637 51.1653 33.7881 51.1653 33.9443C51.1653 34.0902 51.2174 34.1891 51.3216 34.2412C51.4257 34.2933 51.5455 34.3193 51.681 34.3193C51.9101 34.3193 52.1549 34.262 52.4153 34.1475C52.6757 34.0225 52.9049 33.9027 53.1028 33.7881ZM61.1185 27.8975C61.1185 28.1995 61.0143 28.4235 60.806 28.5693C60.608 28.7152 60.3841 28.8558 60.1341 28.9912C59.8841 29.1162 59.6549 29.2673 59.4466 29.4443C59.2487 29.6214 59.1497 29.887 59.1497 30.2412C59.1497 30.4287 59.1914 30.5902 59.2747 30.7256C59.3685 30.861 59.4778 30.986 59.6028 31.1006C59.7382 31.2048 59.8841 31.3141 60.0403 31.4287C60.1966 31.5433 60.3372 31.6735 60.4622 31.8193C60.5976 31.9652 60.707 32.1423 60.7903 32.3506C60.8841 32.5589 60.931 32.8141 60.931 33.1162C60.931 33.5537 60.8164 33.986 60.5872 34.4131C60.3685 34.8298 60.082 35.2048 59.7278 35.5381C59.3841 35.861 58.9935 36.1214 58.556 36.3193C58.1185 36.5173 57.6862 36.6162 57.2591 36.6162C57.082 36.6162 56.9049 36.6006 56.7278 36.5693C56.5507 36.5485 56.3893 36.5016 56.2435 36.4287C56.108 36.3558 55.9935 36.2568 55.8997 36.1318C55.806 35.9964 55.7591 35.8245 55.7591 35.6162C55.7591 35.3245 55.8164 35.1006 55.931 34.9443C56.0455 34.7777 56.1914 34.6475 56.3685 34.5537C56.5455 34.46 56.733 34.387 56.931 34.335C57.1393 34.2829 57.332 34.2204 57.5091 34.1475C57.6862 34.0641 57.832 33.96 57.9466 33.835C58.0612 33.71 58.1185 33.5329 58.1185 33.3037C58.1185 33.085 58.0299 32.861 57.8528 32.6318C57.6862 32.3923 57.4987 32.1423 57.2903 31.8818C57.082 31.611 56.8893 31.3245 56.7122 31.0225C56.5455 30.7204 56.4622 30.387 56.4622 30.0225C56.4622 29.5745 56.5507 29.1631 56.7278 28.7881C56.9153 28.4027 57.1601 28.0693 57.4622 27.7881C57.7747 27.5068 58.1289 27.2881 58.5247 27.1318C58.9205 26.9652 59.3372 26.8818 59.7747 26.8818C59.9414 26.8818 60.1028 26.8975 60.2591 26.9287C60.4257 26.96 60.5716 27.0173 60.6966 27.1006C60.8216 27.1735 60.9205 27.2777 60.9935 27.4131C61.0768 27.5381 61.1185 27.6995 61.1185 27.8975ZM72.6653 31.835C72.6653 32.2933 72.6132 32.7985 72.5091 33.3506C72.4153 33.8923 72.2487 34.3975 72.0091 34.8662C71.7799 35.335 71.4726 35.7256 71.0872 36.0381C70.7122 36.3506 70.2382 36.5068 69.6653 36.5068C69.5195 36.5068 69.3685 36.4964 69.2122 36.4756C69.056 36.4548 68.9049 36.4183 68.7591 36.3662C68.6237 36.3141 68.4987 36.2464 68.3841 36.1631C68.2695 36.0693 68.181 35.9495 68.1185 35.8037L67.9778 38.0537C67.9674 38.2933 67.957 38.5798 67.9466 38.9131C67.9466 39.2464 67.9049 39.5641 67.8216 39.8662C67.7487 40.1683 67.6185 40.4235 67.431 40.6318C67.2539 40.8506 66.9935 40.96 66.6497 40.96C66.4518 40.96 66.2851 40.8558 66.1497 40.6475C66.0143 40.4495 65.9049 40.1943 65.8216 39.8818C65.7487 39.5693 65.6914 39.2204 65.6497 38.835C65.608 38.4495 65.582 38.0798 65.5716 37.7256C65.5612 37.3714 65.556 37.0485 65.556 36.7568C65.556 36.4652 65.556 36.2516 65.556 36.1162C65.556 35.4183 65.5507 34.7256 65.5403 34.0381C65.5299 33.3402 65.5247 32.6423 65.5247 31.9443C65.5247 31.8193 65.5247 31.6266 65.5247 31.3662C65.5247 31.0954 65.5351 30.8037 65.556 30.4912C65.5768 30.1787 65.608 29.8558 65.6497 29.5225C65.7018 29.1891 65.7747 28.887 65.8685 28.6162C65.9622 28.335 66.082 28.111 66.2278 27.9443C66.3737 27.7673 66.5507 27.6787 66.7591 27.6787C66.8945 27.6787 67.0143 27.7204 67.1185 27.8037C67.233 27.8766 67.3268 27.9756 67.3997 28.1006C67.483 28.2152 67.5507 28.3402 67.6028 28.4756C67.6549 28.611 67.6966 28.736 67.7278 28.8506C68.0507 28.486 68.4205 28.21 68.8372 28.0225C69.2643 27.835 69.7174 27.7412 70.1966 27.7412C70.6966 27.7412 71.1028 27.8818 71.4153 28.1631C71.7382 28.4443 71.9882 28.7933 72.1653 29.21C72.3528 29.6266 72.483 30.0745 72.556 30.5537C72.6289 31.0225 72.6653 31.4495 72.6653 31.835ZM70.431 31.71C70.431 31.5537 70.4153 31.3975 70.3841 31.2412C70.3632 31.0745 70.3164 30.9235 70.2435 30.7881C70.181 30.6423 70.0872 30.5277 69.9622 30.4443C69.8372 30.3506 69.681 30.3037 69.4935 30.3037C69.2435 30.3037 68.9778 30.387 68.6966 30.5537C68.4257 30.71 68.2226 30.8923 68.0872 31.1006C68.0351 31.1839 68.0039 31.3193 67.9935 31.5068C67.983 31.6943 67.9778 31.835 67.9778 31.9287C67.9778 32.0016 67.9778 32.1006 67.9778 32.2256C67.9882 32.3402 67.9987 32.46 68.0091 32.585C68.0195 32.71 68.0299 32.8298 68.0403 32.9443C68.0612 33.0589 68.0872 33.1475 68.1185 33.21C68.1497 33.3037 68.2174 33.3923 68.3216 33.4756C68.4257 33.5485 68.5403 33.6162 68.6653 33.6787C68.7903 33.7412 68.9153 33.7881 69.0403 33.8193C69.1757 33.8506 69.2903 33.8662 69.3841 33.8662C69.6028 33.8662 69.7799 33.7829 69.9153 33.6162C70.0507 33.4495 70.1549 33.2516 70.2278 33.0225C70.3112 32.7933 70.3632 32.5589 70.3841 32.3193C70.4153 32.0693 70.431 31.8662 70.431 31.71ZM76.5872 36.9443C76.056 36.9443 75.5924 36.8037 75.1966 36.5225C74.8007 36.2412 74.4674 35.8818 74.1966 35.4443C73.9257 35.0068 73.7226 34.5225 73.5872 33.9912C73.4518 33.4495 73.3841 32.9183 73.3841 32.3975C73.3841 31.8454 73.4518 31.2777 73.5872 30.6943C73.7226 30.1006 73.931 29.5641 74.2122 29.085C74.4935 28.5954 74.8528 28.1995 75.2903 27.8975C75.7278 27.585 76.2487 27.4287 76.8528 27.4287C77.4362 27.4287 77.931 27.5902 78.3372 27.9131C78.7539 28.2256 79.0872 28.6214 79.3372 29.1006C79.5872 29.5693 79.7643 30.085 79.8685 30.6475C79.9726 31.21 80.0091 31.7412 79.9778 32.2412C79.9466 32.7933 79.858 33.3506 79.7122 33.9131C79.5768 34.4756 79.3737 34.9808 79.1028 35.4287C78.832 35.8766 78.4882 36.2412 78.0716 36.5225C77.6549 36.8037 77.1601 36.9443 76.5872 36.9443ZM76.7435 29.8818C76.5872 29.8818 76.4466 29.9652 76.3216 30.1318C76.207 30.2985 76.108 30.5016 76.0247 30.7412C75.9518 30.9808 75.8945 31.236 75.8528 31.5068C75.8112 31.7673 75.7903 31.9964 75.7903 32.1943C75.7903 32.4443 75.8112 32.7152 75.8528 33.0068C75.9049 33.2985 75.9726 33.5693 76.056 33.8193C76.1393 34.0589 76.2382 34.262 76.3528 34.4287C76.4778 34.585 76.6185 34.6631 76.7747 34.6631C76.9414 34.6631 77.082 34.585 77.1966 34.4287C77.3216 34.2725 77.4205 34.0745 77.4935 33.835C77.5664 33.5954 77.6185 33.335 77.6497 33.0537C77.681 32.762 77.6966 32.4912 77.6966 32.2412C77.6966 32.012 77.6757 31.762 77.6341 31.4912C77.5924 31.21 77.5299 30.9495 77.4466 30.71C77.3737 30.4704 77.2747 30.2725 77.1497 30.1162C77.0351 29.96 76.8997 29.8818 76.7435 29.8818ZM86.1966 30.6475C86.0507 30.6579 85.9257 30.6475 85.8216 30.6162C85.7174 30.5745 85.6132 30.5329 85.5091 30.4912C85.4153 30.4495 85.3216 30.4131 85.2278 30.3818C85.1341 30.3402 85.0299 30.3245 84.9153 30.335C84.707 30.3454 84.5195 30.4027 84.3528 30.5068C84.1966 30.611 84.0507 30.7412 83.9153 30.8975C83.7903 31.0537 83.681 31.2308 83.5872 31.4287C83.4935 31.6162 83.4205 31.8037 83.3685 31.9912C83.3372 32.1162 83.3112 32.3089 83.2903 32.5693C83.2799 32.8193 83.2747 33.0902 83.2747 33.3818C83.2643 33.6839 83.2591 33.9704 83.2591 34.2412C83.2591 34.512 83.2487 34.7256 83.2278 34.8818C83.2174 35.0485 83.1914 35.2464 83.1497 35.4756C83.108 35.6943 83.0403 35.9027 82.9466 36.1006C82.8632 36.2985 82.7487 36.4652 82.6028 36.6006C82.457 36.736 82.2695 36.8037 82.0403 36.8037C81.8632 36.8037 81.707 36.7516 81.5716 36.6475C81.4466 36.5433 81.3372 36.4079 81.2435 36.2412C81.1601 36.0641 81.0872 35.861 81.0247 35.6318C80.9726 35.4027 80.931 35.1683 80.8997 34.9287C80.8685 34.6787 80.8424 34.4287 80.8216 34.1787C80.8112 33.9287 80.8007 33.6943 80.7903 33.4756C80.7903 33.2464 80.7903 33.0381 80.7903 32.8506C80.8007 32.6631 80.806 32.512 80.806 32.3975C80.7955 32.0329 80.7747 31.6683 80.7435 31.3037C80.7226 30.9287 80.7122 30.5589 80.7122 30.1943C80.7122 29.9652 80.7226 29.71 80.7435 29.4287C80.7643 29.1475 80.8216 28.887 80.9153 28.6475C81.0091 28.3975 81.1445 28.1891 81.3216 28.0225C81.5091 27.8558 81.7643 27.7725 82.0872 27.7725C82.2643 27.7725 82.4153 27.8298 82.5403 27.9443C82.6653 28.0589 82.7643 28.1995 82.8372 28.3662C82.9205 28.5329 82.983 28.71 83.0247 28.8975C83.0664 29.085 83.0924 29.2568 83.1028 29.4131C83.3528 29.0068 83.6341 28.6787 83.9466 28.4287C84.2591 28.1683 84.6653 28.0277 85.1653 28.0068C85.4153 27.9964 85.6601 28.0225 85.8997 28.085C86.1497 28.137 86.3737 28.2308 86.5716 28.3662C86.7799 28.4912 86.9466 28.6579 87.0716 28.8662C87.207 29.0745 87.2799 29.3193 87.2903 29.6006C87.3112 29.9339 87.2122 30.1891 86.9935 30.3662C86.7747 30.5433 86.5091 30.637 86.1966 30.6475ZM98.556 29.2256C98.4726 29.986 98.3893 30.7412 98.306 31.4912C98.2226 32.2412 98.1653 32.9912 98.1341 33.7412C98.082 34.6058 98.0612 35.4235 98.0716 36.1943C98.082 36.9652 98.0872 37.7829 98.0872 38.6475C98.0872 38.8558 98.082 39.111 98.0716 39.4131C98.0716 39.7152 98.0351 40.0068 97.9622 40.2881C97.8893 40.5693 97.7695 40.8089 97.6028 41.0068C97.4466 41.2048 97.207 41.3037 96.8841 41.3037C96.7278 41.3037 96.5924 41.2568 96.4778 41.1631C96.3737 41.0693 96.2799 40.9443 96.1966 40.7881C96.1237 40.6423 96.0612 40.4756 96.0091 40.2881C95.9674 40.1006 95.931 39.9079 95.8997 39.71C95.8476 39.3037 95.8164 38.8975 95.806 38.4912C95.806 38.0954 95.806 37.8037 95.806 37.6162V36.3975V35.5225C95.5664 35.835 95.2539 36.0745 94.8685 36.2412C94.4935 36.3975 94.1185 36.4756 93.7435 36.4756C93.2747 36.4756 92.8685 36.3662 92.5247 36.1475C92.1914 35.9183 91.9153 35.6318 91.6966 35.2881C91.4778 34.9339 91.3164 34.5485 91.2122 34.1318C91.108 33.7152 91.056 33.3089 91.056 32.9131V32.8193C91.056 32.2777 91.1393 31.6943 91.306 31.0693C91.4726 30.4339 91.7174 29.8454 92.0403 29.3037C92.3737 28.762 92.7851 28.3141 93.2747 27.96C93.7747 27.5954 94.3528 27.4131 95.0091 27.4131C95.3632 27.4131 95.6862 27.486 95.9778 27.6318C96.2799 27.7777 96.4935 28.0173 96.6185 28.3506C96.7018 28.111 96.8268 27.9183 96.9935 27.7725C97.1705 27.6162 97.3945 27.5381 97.6653 27.5381C98.0091 27.5381 98.2487 27.6527 98.3841 27.8818C98.5299 28.1006 98.6028 28.3454 98.6028 28.6162C98.6028 28.7308 98.5976 28.835 98.5872 28.9287C98.5768 29.0225 98.5664 29.1214 98.556 29.2256ZM94.9622 29.6006C94.7226 29.6006 94.4987 29.6995 94.2903 29.8975C94.082 30.085 93.8997 30.3193 93.7435 30.6006C93.5872 30.8714 93.4622 31.1631 93.3685 31.4756C93.2851 31.7881 93.2435 32.0641 93.2435 32.3037C93.2435 32.4495 93.2539 32.6058 93.2747 32.7725C93.306 32.9391 93.3476 33.1006 93.3997 33.2568C93.4622 33.4027 93.5403 33.5277 93.6341 33.6318C93.7382 33.7256 93.8685 33.7725 94.0247 33.7725C94.1601 33.7725 94.3164 33.7412 94.4935 33.6787C94.681 33.6058 94.8632 33.5173 95.0403 33.4131C95.2174 33.2985 95.3737 33.1735 95.5091 33.0381C95.6445 32.9027 95.7382 32.7725 95.7903 32.6475C95.8216 32.5745 95.8476 32.4652 95.8685 32.3193C95.8893 32.1735 95.9049 32.0225 95.9153 31.8662C95.9362 31.6995 95.9518 31.5381 95.9622 31.3818C95.9726 31.2256 95.9778 31.1058 95.9778 31.0225C95.9778 30.8975 95.9466 30.7568 95.8841 30.6006C95.832 30.4339 95.7591 30.2777 95.6653 30.1318C95.5716 29.9756 95.4622 29.8506 95.3372 29.7568C95.2122 29.6527 95.0872 29.6006 94.9622 29.6006ZM106.15 32.0225C106.15 32.5954 106.092 33.1631 105.978 33.7256C105.863 34.2881 105.671 34.7933 105.4 35.2412C105.129 35.6787 104.764 36.0329 104.306 36.3037C103.858 36.5745 103.296 36.71 102.618 36.71C101.952 36.71 101.394 36.5798 100.947 36.3193C100.499 36.0485 100.139 35.6943 99.8685 35.2568C99.608 34.8193 99.4205 34.3245 99.306 33.7725C99.2018 33.2204 99.1497 32.6579 99.1497 32.085C99.1497 31.46 99.2226 30.8402 99.3685 30.2256C99.3997 30.0589 99.457 29.8298 99.5403 29.5381C99.6341 29.236 99.7487 28.9443 99.8841 28.6631C100.03 28.3714 100.191 28.1214 100.368 27.9131C100.556 27.7048 100.759 27.6006 100.978 27.6006C101.186 27.6006 101.353 27.6579 101.478 27.7725C101.603 27.887 101.702 28.0329 101.775 28.21C101.848 28.3766 101.894 28.5589 101.915 28.7568C101.936 28.9443 101.947 29.1162 101.947 29.2725C101.947 29.512 101.926 29.7464 101.884 29.9756C101.853 30.2048 101.816 30.4339 101.775 30.6631C101.733 30.9756 101.691 31.2881 101.65 31.6006C101.618 31.9131 101.603 32.2256 101.603 32.5381C101.603 32.6943 101.608 32.8714 101.618 33.0693C101.639 33.2568 101.681 33.4391 101.743 33.6162C101.806 33.7933 101.894 33.9443 102.009 34.0693C102.124 34.1839 102.285 34.2412 102.493 34.2412C102.764 34.2412 102.978 34.1683 103.134 34.0225C103.301 33.8766 103.421 33.6943 103.493 33.4756C103.577 33.2568 103.629 33.0225 103.65 32.7725C103.671 32.5225 103.681 32.2933 103.681 32.085C103.681 31.6266 103.65 31.1787 103.587 30.7412C103.525 30.2933 103.467 29.8402 103.415 29.3818C103.405 29.3298 103.4 29.2568 103.4 29.1631C103.4 29.0068 103.426 28.8506 103.478 28.6943C103.53 28.5381 103.603 28.3975 103.697 28.2725C103.79 28.1475 103.905 28.0485 104.04 27.9756C104.176 27.8923 104.327 27.8506 104.493 27.8506C104.723 27.8506 104.926 27.9339 105.103 28.1006C105.28 28.2568 105.426 28.4652 105.54 28.7256C105.665 28.9756 105.764 29.262 105.837 29.585C105.921 29.8975 105.983 30.21 106.025 30.5225C106.077 30.8245 106.108 31.111 106.118 31.3818C106.139 31.6527 106.15 31.8662 106.15 32.0225ZM113.65 33.71C113.65 34.0641 113.535 34.4131 113.306 34.7568C113.087 35.0902 112.806 35.3923 112.462 35.6631C112.129 35.9235 111.769 36.137 111.384 36.3037C110.999 36.46 110.644 36.5381 110.322 36.5381C109.769 36.5381 109.275 36.4027 108.837 36.1318C108.41 35.8506 108.051 35.4964 107.759 35.0693C107.467 34.6423 107.243 34.1735 107.087 33.6631C106.941 33.1423 106.868 32.637 106.868 32.1475C106.868 31.6266 106.941 31.0693 107.087 30.4756C107.233 29.8818 107.452 29.335 107.743 28.835C108.046 28.335 108.421 27.9183 108.868 27.585C109.327 27.2516 109.868 27.085 110.493 27.085C110.848 27.085 111.186 27.1475 111.509 27.2725C111.832 27.387 112.113 27.5537 112.353 27.7725C112.592 27.9912 112.785 28.2516 112.931 28.5537C113.077 28.8558 113.15 29.1943 113.15 29.5693C113.15 30.0589 113.046 30.5173 112.837 30.9443C112.629 31.3714 112.353 31.7412 112.009 32.0537C111.665 32.3662 111.269 32.6214 110.822 32.8193C110.374 33.0068 109.915 33.111 109.447 33.1318C109.488 33.4339 109.608 33.6527 109.806 33.7881C110.014 33.9235 110.259 33.9912 110.54 33.9912C110.749 33.9912 110.952 33.9391 111.15 33.835C111.348 33.7308 111.54 33.6162 111.728 33.4912C111.915 33.3558 112.098 33.236 112.275 33.1318C112.462 33.0277 112.65 32.9756 112.837 32.9756C113.046 32.9756 113.233 33.0433 113.4 33.1787C113.566 33.3141 113.65 33.4912 113.65 33.71ZM111.118 29.8818C111.118 29.7464 111.082 29.6058 111.009 29.46C110.936 29.3141 110.822 29.2412 110.665 29.2412C110.436 29.2412 110.243 29.3037 110.087 29.4287C109.931 29.5433 109.801 29.6943 109.697 29.8818C109.592 30.0589 109.509 30.2516 109.447 30.46C109.394 30.6683 109.363 30.861 109.353 31.0381C109.499 31.0068 109.671 30.9652 109.868 30.9131C110.077 30.861 110.269 30.7933 110.447 30.71C110.634 30.6162 110.79 30.5016 110.915 30.3662C111.051 30.2308 111.118 30.0693 111.118 29.8818ZM121.009 36.9443C120.478 36.9443 120.014 36.8037 119.618 36.5225C119.223 36.2412 118.889 35.8818 118.618 35.4443C118.348 35.0068 118.144 34.5225 118.009 33.9912C117.874 33.4495 117.806 32.9183 117.806 32.3975C117.806 31.8454 117.874 31.2777 118.009 30.6943C118.144 30.1006 118.353 29.5641 118.634 29.085C118.915 28.5954 119.275 28.1995 119.712 27.8975C120.15 27.585 120.671 27.4287 121.275 27.4287C121.858 27.4287 122.353 27.5902 122.759 27.9131C123.176 28.2256 123.509 28.6214 123.759 29.1006C124.009 29.5693 124.186 30.085 124.29 30.6475C124.394 31.21 124.431 31.7412 124.4 32.2412C124.368 32.7933 124.28 33.3506 124.134 33.9131C123.999 34.4756 123.796 34.9808 123.525 35.4287C123.254 35.8766 122.91 36.2412 122.493 36.5225C122.077 36.8037 121.582 36.9443 121.009 36.9443ZM121.165 29.8818C121.009 29.8818 120.868 29.9652 120.743 30.1318C120.629 30.2985 120.53 30.5016 120.447 30.7412C120.374 30.9808 120.316 31.236 120.275 31.5068C120.233 31.7673 120.212 31.9964 120.212 32.1943C120.212 32.4443 120.233 32.7152 120.275 33.0068C120.327 33.2985 120.394 33.5693 120.478 33.8193C120.561 34.0589 120.66 34.262 120.775 34.4287C120.9 34.585 121.04 34.6631 121.197 34.6631C121.363 34.6631 121.504 34.585 121.618 34.4287C121.743 34.2725 121.842 34.0745 121.915 33.835C121.988 33.5954 122.04 33.335 122.072 33.0537C122.103 32.762 122.118 32.4912 122.118 32.2412C122.118 32.012 122.098 31.762 122.056 31.4912C122.014 31.21 121.952 30.9495 121.868 30.71C121.796 30.4704 121.697 30.2725 121.572 30.1162C121.457 29.96 121.322 29.8818 121.165 29.8818ZM135.868 27.2568C135.868 27.9756 135.691 28.6318 135.337 29.2256C134.983 29.8089 134.509 30.2985 133.915 30.6943C134.228 30.7568 134.499 30.8662 134.728 31.0225C134.957 31.1683 135.144 31.3506 135.29 31.5693C135.447 31.7881 135.561 32.0381 135.634 32.3193C135.717 32.5902 135.759 32.8766 135.759 33.1787C135.759 33.7725 135.618 34.2933 135.337 34.7412C135.066 35.1787 134.712 35.5433 134.275 35.835C133.837 36.1162 133.348 36.3298 132.806 36.4756C132.275 36.611 131.743 36.6787 131.212 36.6787C130.921 36.6787 130.629 36.6579 130.337 36.6162C130.046 36.5745 129.769 36.5016 129.509 36.3975C129.415 36.3662 129.337 36.2412 129.275 36.0225C129.212 35.7933 129.16 35.5173 129.118 35.1943C129.087 34.8714 129.061 34.5225 129.04 34.1475C129.019 33.7725 129.004 33.4131 128.993 33.0693C128.983 32.7256 128.978 32.4235 128.978 32.1631C128.978 31.9027 128.978 31.7204 128.978 31.6162C128.978 31.2516 128.978 30.887 128.978 30.5225C128.978 30.1475 128.988 29.7777 129.009 29.4131C129.009 29.3193 129.009 29.1735 129.009 28.9756C129.019 28.7777 129.025 28.5589 129.025 28.3193C129.035 28.0693 129.046 27.8089 129.056 27.5381C129.077 27.2673 129.098 27.0173 129.118 26.7881C129.15 26.5485 129.186 26.3454 129.228 26.1787C129.28 26.012 129.337 25.9079 129.4 25.8662C129.639 25.71 129.905 25.5641 130.197 25.4287C130.488 25.2829 130.79 25.1579 131.103 25.0537C131.415 24.9495 131.728 24.8662 132.04 24.8037C132.353 24.7412 132.65 24.71 132.931 24.71C133.316 24.71 133.686 24.7673 134.04 24.8818C134.405 24.986 134.717 25.1475 134.978 25.3662C135.249 25.585 135.462 25.8558 135.618 26.1787C135.785 26.4912 135.868 26.8506 135.868 27.2568ZM133.275 28.085C133.275 27.9079 133.217 27.7777 133.103 27.6943C132.999 27.611 132.858 27.5693 132.681 27.5693C132.535 27.5693 132.379 27.6006 132.212 27.6631C132.056 27.7256 131.921 27.8089 131.806 27.9131C131.775 27.9443 131.743 28.0329 131.712 28.1787C131.691 28.3245 131.671 28.4912 131.65 28.6787C131.639 28.8558 131.629 29.0277 131.618 29.1943C131.618 29.3506 131.618 29.4548 131.618 29.5068C131.618 29.5277 131.618 29.5641 131.618 29.6162C131.618 29.6579 131.618 29.7048 131.618 29.7568C131.629 29.8089 131.639 29.8558 131.65 29.8975C131.66 29.9391 131.676 29.96 131.697 29.96C131.874 29.96 132.056 29.8975 132.243 29.7725C132.431 29.637 132.598 29.4756 132.743 29.2881C132.9 29.0902 133.025 28.8818 133.118 28.6631C133.223 28.4443 133.275 28.2516 133.275 28.085ZM133.212 32.6006C133.212 32.4235 133.15 32.2985 133.025 32.2256C132.9 32.1527 132.759 32.1162 132.603 32.1162C132.457 32.1162 132.301 32.1527 132.134 32.2256C131.978 32.2881 131.848 32.3662 131.743 32.46C131.712 32.4808 131.686 32.5329 131.665 32.6162C131.655 32.6995 131.644 32.7933 131.634 32.8975C131.634 32.9912 131.629 33.085 131.618 33.1787C131.618 33.262 131.618 33.3193 131.618 33.3506C131.618 33.3714 131.618 33.4131 131.618 33.4756C131.618 33.5381 131.618 33.6058 131.618 33.6787C131.629 33.7412 131.639 33.8037 131.65 33.8662C131.671 33.9183 131.691 33.9443 131.712 33.9443C131.858 33.9443 132.019 33.9027 132.197 33.8193C132.374 33.736 132.535 33.6318 132.681 33.5068C132.837 33.3818 132.962 33.2412 133.056 33.085C133.16 32.9183 133.212 32.7568 133.212 32.6006ZM139.54 36.9443C139.009 36.9443 138.546 36.8037 138.15 36.5225C137.754 36.2412 137.421 35.8818 137.15 35.4443C136.879 35.0068 136.676 34.5225 136.54 33.9912C136.405 33.4495 136.337 32.9183 136.337 32.3975C136.337 31.8454 136.405 31.2777 136.54 30.6943C136.676 30.1006 136.884 29.5641 137.165 29.085C137.447 28.5954 137.806 28.1995 138.243 27.8975C138.681 27.585 139.202 27.4287 139.806 27.4287C140.389 27.4287 140.884 27.5902 141.29 27.9131C141.707 28.2256 142.04 28.6214 142.29 29.1006C142.54 29.5693 142.717 30.085 142.822 30.6475C142.926 31.21 142.962 31.7412 142.931 32.2412C142.9 32.7933 142.811 33.3506 142.665 33.9131C142.53 34.4756 142.327 34.9808 142.056 35.4287C141.785 35.8766 141.441 36.2412 141.025 36.5225C140.608 36.8037 140.113 36.9443 139.54 36.9443ZM139.697 29.8818C139.54 29.8818 139.4 29.9652 139.275 30.1318C139.16 30.2985 139.061 30.5016 138.978 30.7412C138.905 30.9808 138.848 31.236 138.806 31.5068C138.764 31.7673 138.743 31.9964 138.743 32.1943C138.743 32.4443 138.764 32.7152 138.806 33.0068C138.858 33.2985 138.926 33.5693 139.009 33.8193C139.092 34.0589 139.191 34.262 139.306 34.4287C139.431 34.585 139.572 34.6631 139.728 34.6631C139.894 34.6631 140.035 34.585 140.15 34.4287C140.275 34.2725 140.374 34.0745 140.447 33.835C140.519 33.5954 140.572 33.335 140.603 33.0537C140.634 32.762 140.65 32.4912 140.65 32.2412C140.65 32.012 140.629 31.762 140.587 31.4912C140.546 31.21 140.483 30.9495 140.4 30.71C140.327 30.4704 140.228 30.2725 140.103 30.1162C139.988 29.96 139.853 29.8818 139.697 29.8818ZM151.118 31.335C151.118 31.637 151.092 31.9808 151.04 32.3662C150.999 32.7412 150.926 33.1266 150.822 33.5225C150.728 33.9183 150.598 34.3037 150.431 34.6787C150.275 35.0537 150.077 35.3923 149.837 35.6943C149.608 35.986 149.337 36.2204 149.025 36.3975C148.723 36.5745 148.368 36.6631 147.962 36.6631C147.535 36.6631 147.144 36.5641 146.79 36.3662C146.447 36.1683 146.15 35.8975 145.9 35.5537C145.868 35.835 145.754 36.085 145.556 36.3037C145.358 36.512 145.108 36.6162 144.806 36.6162C144.629 36.6162 144.478 36.5277 144.353 36.3506C144.238 36.1735 144.144 35.9495 144.072 35.6787C143.999 35.3975 143.941 35.0902 143.9 34.7568C143.868 34.4235 143.848 34.1006 143.837 33.7881C143.827 33.4756 143.822 33.1943 143.822 32.9443C143.822 32.6943 143.822 32.5173 143.822 32.4131C143.822 32.0589 143.822 31.7048 143.822 31.3506C143.832 30.9964 143.842 30.637 143.853 30.2725C143.853 30.0954 143.848 29.8298 143.837 29.4756C143.837 29.1214 143.842 28.7308 143.853 28.3037C143.863 27.8662 143.884 27.4235 143.915 26.9756C143.957 26.5173 144.025 26.1006 144.118 25.7256C144.212 25.3506 144.342 25.0433 144.509 24.8037C144.676 24.5641 144.889 24.4391 145.15 24.4287C145.358 24.4287 145.535 24.5016 145.681 24.6475C145.827 24.7933 145.947 24.986 146.04 25.2256C146.144 25.4652 146.223 25.736 146.275 26.0381C146.337 26.3298 146.379 26.6266 146.4 26.9287C146.431 27.2204 146.447 27.5016 146.447 27.7725C146.457 28.0329 146.462 28.2464 146.462 28.4131C146.462 28.4443 146.457 28.5173 146.447 28.6318C146.447 28.736 146.447 28.8506 146.447 28.9756C146.447 29.1006 146.447 29.2152 146.447 29.3193C146.447 29.4131 146.447 29.4652 146.447 29.4756C146.54 29.2777 146.676 29.085 146.853 28.8975C147.03 28.71 147.228 28.5433 147.447 28.3975C147.665 28.2516 147.894 28.1318 148.134 28.0381C148.374 27.9443 148.603 27.8975 148.822 27.8975C149.259 27.8975 149.624 28.012 149.915 28.2412C150.217 28.46 150.457 28.7412 150.634 29.085C150.811 29.4287 150.936 29.8037 151.009 30.21C151.082 30.6058 151.118 30.9808 151.118 31.335ZM148.822 31.8037C148.822 31.6787 148.811 31.5433 148.79 31.3975C148.78 31.2516 148.743 31.1162 148.681 30.9912C148.629 30.8662 148.551 30.762 148.447 30.6787C148.353 30.5954 148.228 30.5537 148.072 30.5537C147.905 30.5537 147.738 30.5902 147.572 30.6631C147.415 30.736 147.264 30.8298 147.118 30.9443C146.973 31.0589 146.837 31.1839 146.712 31.3193C146.587 31.4443 146.478 31.5693 146.384 31.6943L146.228 33.085C146.394 33.3245 146.598 33.5173 146.837 33.6631C147.077 33.7985 147.348 33.8662 147.65 33.8662C147.879 33.8662 148.066 33.7933 148.212 33.6475C148.368 33.5016 148.488 33.3245 148.572 33.1162C148.665 32.8975 148.728 32.6683 148.759 32.4287C148.801 32.1891 148.822 31.9808 148.822 31.8037ZM155.04 36.9443C154.509 36.9443 154.046 36.8037 153.65 36.5225C153.254 36.2412 152.921 35.8818 152.65 35.4443C152.379 35.0068 152.176 34.5225 152.04 33.9912C151.905 33.4495 151.837 32.9183 151.837 32.3975C151.837 31.8454 151.905 31.2777 152.04 30.6943C152.176 30.1006 152.384 29.5641 152.665 29.085C152.947 28.5954 153.306 28.1995 153.743 27.8975C154.181 27.585 154.702 27.4287 155.306 27.4287C155.889 27.4287 156.384 27.5902 156.79 27.9131C157.207 28.2256 157.54 28.6214 157.79 29.1006C158.04 29.5693 158.217 30.085 158.322 30.6475C158.426 31.21 158.462 31.7412 158.431 32.2412C158.4 32.7933 158.311 33.3506 158.165 33.9131C158.03 34.4756 157.827 34.9808 157.556 35.4287C157.285 35.8766 156.941 36.2412 156.525 36.5225C156.108 36.8037 155.613 36.9443 155.04 36.9443ZM155.197 29.8818C155.04 29.8818 154.9 29.9652 154.775 30.1318C154.66 30.2985 154.561 30.5016 154.478 30.7412C154.405 30.9808 154.348 31.236 154.306 31.5068C154.264 31.7673 154.243 31.9964 154.243 32.1943C154.243 32.4443 154.264 32.7152 154.306 33.0068C154.358 33.2985 154.426 33.5693 154.509 33.8193C154.592 34.0589 154.691 34.262 154.806 34.4287C154.931 34.585 155.072 34.6631 155.228 34.6631C155.394 34.6631 155.535 34.585 155.65 34.4287C155.775 34.2725 155.874 34.0745 155.947 33.835C156.019 33.5954 156.072 33.335 156.103 33.0537C156.134 32.762 156.15 32.4912 156.15 32.2412C156.15 32.012 156.129 31.762 156.087 31.4912C156.046 31.21 155.983 30.9495 155.9 30.71C155.827 30.4704 155.728 30.2725 155.603 30.1162C155.488 29.96 155.353 29.8818 155.197 29.8818ZM169.728 26.21C169.728 26.9704 169.697 27.7256 169.634 28.4756C169.582 29.2256 169.556 29.9808 169.556 30.7412C169.556 31.3558 169.572 31.9652 169.603 32.5693C169.644 33.1735 169.665 33.7829 169.665 34.3975C169.665 34.5641 169.66 34.7673 169.65 35.0068C169.639 35.236 169.603 35.46 169.54 35.6787C169.488 35.8975 169.394 36.085 169.259 36.2412C169.134 36.3975 168.952 36.4756 168.712 36.4756C168.4 36.4756 168.139 36.361 167.931 36.1318C167.733 35.8923 167.608 35.6266 167.556 35.335C167.358 35.71 167.072 36.0277 166.697 36.2881C166.322 36.5485 165.915 36.6787 165.478 36.6787C165.009 36.6787 164.603 36.5173 164.259 36.1943C163.926 35.8714 163.644 35.4808 163.415 35.0225C163.197 34.5641 163.03 34.085 162.915 33.585C162.811 33.085 162.759 32.6527 162.759 32.2881C162.759 32.0277 162.775 31.7308 162.806 31.3975C162.837 31.0641 162.889 30.7256 162.962 30.3818C163.046 30.0381 163.15 29.7048 163.275 29.3818C163.4 29.0485 163.556 28.7516 163.743 28.4912C163.941 28.2308 164.171 28.0225 164.431 27.8662C164.702 27.71 165.009 27.6318 165.353 27.6318C165.728 27.6318 166.087 27.7412 166.431 27.96C166.775 28.1787 167.035 28.4495 167.212 28.7725L167.353 26.2881C167.363 26.0902 167.379 25.861 167.4 25.6006C167.421 25.3298 167.462 25.0745 167.525 24.835C167.598 24.5954 167.707 24.3923 167.853 24.2256C167.999 24.0589 168.212 23.9756 168.493 23.9756C168.796 23.9756 169.03 24.0485 169.197 24.1943C169.363 24.3402 169.483 24.5277 169.556 24.7568C169.639 24.9756 169.686 25.2152 169.697 25.4756C169.717 25.736 169.728 25.9808 169.728 26.21ZM167.181 33.1475C167.181 32.9079 167.176 32.6735 167.165 32.4443C167.155 32.2152 167.155 31.9808 167.165 31.7412C167.103 31.6058 167.03 31.46 166.947 31.3037C166.863 31.137 166.759 30.986 166.634 30.8506C166.519 30.7048 166.389 30.585 166.243 30.4912C166.098 30.3975 165.941 30.3506 165.775 30.3506C165.587 30.3506 165.436 30.4079 165.322 30.5225C165.207 30.637 165.124 30.7777 165.072 30.9443C165.019 31.1006 164.983 31.2725 164.962 31.46C164.952 31.6475 164.947 31.8089 164.947 31.9443C164.947 32.0693 164.957 32.2568 164.978 32.5068C164.999 32.7464 165.035 32.9912 165.087 33.2412C165.15 33.4912 165.233 33.71 165.337 33.8975C165.441 34.085 165.582 34.1787 165.759 34.1787C165.894 34.1787 166.03 34.1527 166.165 34.1006C166.301 34.0381 166.426 33.9652 166.54 33.8818C166.665 33.7881 166.78 33.6891 166.884 33.585C166.999 33.4704 167.098 33.3662 167.181 33.2725V33.1475ZM177.4 34.2881C177.4 34.4756 177.389 34.7204 177.368 35.0225C177.358 35.3245 177.316 35.6214 177.243 35.9131C177.171 36.1943 177.056 36.4391 176.9 36.6475C176.743 36.8558 176.525 36.96 176.243 36.96C175.858 36.96 175.561 36.835 175.353 36.585C175.144 36.335 175.046 36.0225 175.056 35.6475C174.723 35.9391 174.342 36.1683 173.915 36.335C173.499 36.5016 173.072 36.585 172.634 36.585C172.332 36.585 172.046 36.512 171.775 36.3662C171.504 36.2204 171.264 36.0329 171.056 35.8037C170.848 35.5745 170.681 35.3193 170.556 35.0381C170.431 34.7464 170.368 34.46 170.368 34.1787C170.368 33.6787 170.519 33.2412 170.822 32.8662C171.134 32.4912 171.514 32.1735 171.962 31.9131C172.41 31.6423 172.884 31.4287 173.384 31.2725C173.894 31.1162 174.348 31.012 174.743 30.96C174.743 30.9079 174.743 30.861 174.743 30.8193C174.754 30.7777 174.759 30.7308 174.759 30.6787C174.759 30.3558 174.671 30.0954 174.493 29.8975C174.316 29.6995 174.066 29.6006 173.743 29.6006C173.483 29.6006 173.259 29.6475 173.072 29.7412C172.884 29.8245 172.707 29.9235 172.54 30.0381C172.374 30.1423 172.207 30.2412 172.04 30.335C171.874 30.4183 171.686 30.46 171.478 30.46C171.249 30.46 171.051 30.387 170.884 30.2412C170.728 30.0954 170.65 29.9079 170.65 29.6787C170.65 29.335 170.749 29.0225 170.947 28.7412C171.155 28.46 171.41 28.2256 171.712 28.0381C172.025 27.8402 172.358 27.6891 172.712 27.585C173.077 27.4704 173.41 27.4131 173.712 27.4131C173.993 27.4131 174.275 27.4495 174.556 27.5225C174.837 27.585 175.103 27.6891 175.353 27.835C175.603 27.9704 175.827 28.1423 176.025 28.3506C176.233 28.5485 176.4 28.7829 176.525 29.0537C176.712 29.4391 176.863 29.8506 176.978 30.2881C177.092 30.7152 177.181 31.1579 177.243 31.6162C177.306 32.0641 177.348 32.5173 177.368 32.9756C177.389 33.4235 177.4 33.861 177.4 34.2881ZM174.9 33.7881L174.853 32.7256C174.832 32.7256 174.811 32.7256 174.79 32.7256C174.769 32.7152 174.749 32.71 174.728 32.71C174.592 32.71 174.421 32.7464 174.212 32.8193C174.014 32.8818 173.822 32.9756 173.634 33.1006C173.447 33.2152 173.285 33.3454 173.15 33.4912C173.025 33.637 172.962 33.7881 172.962 33.9443C172.962 34.0902 173.014 34.1891 173.118 34.2412C173.223 34.2933 173.342 34.3193 173.478 34.3193C173.707 34.3193 173.952 34.262 174.212 34.1475C174.473 34.0225 174.702 33.9027 174.9 33.7881ZM189.603 27.5537C189.603 28.4183 189.582 29.2881 189.54 30.1631C189.499 31.0277 189.447 31.8923 189.384 32.7568C189.374 32.9131 189.363 33.1266 189.353 33.3975C189.342 33.6579 189.322 33.9443 189.29 34.2568C189.259 34.5589 189.217 34.8662 189.165 35.1787C189.113 35.4912 189.03 35.7777 188.915 36.0381C188.811 36.2881 188.671 36.4912 188.493 36.6475C188.327 36.8141 188.118 36.8975 187.868 36.8975C187.65 36.8975 187.452 36.8506 187.275 36.7568C187.108 36.6631 186.967 36.5433 186.853 36.3975C186.738 36.2412 186.65 36.0693 186.587 35.8818C186.525 35.6839 186.493 35.4808 186.493 35.2725C186.493 34.9287 186.504 34.585 186.525 34.2412C186.546 33.887 186.577 33.5381 186.618 33.1943L185.072 33.3506C185.04 33.6214 185.004 33.9495 184.962 34.335C184.931 34.71 184.858 35.0745 184.743 35.4287C184.639 35.7725 184.478 36.0693 184.259 36.3193C184.04 36.5693 183.738 36.6943 183.353 36.6943C183.113 36.6943 182.915 36.637 182.759 36.5225C182.603 36.4183 182.478 36.2829 182.384 36.1162C182.29 35.9391 182.223 35.7464 182.181 35.5381C182.139 35.3298 182.118 35.1318 182.118 34.9443C182.118 34.3193 182.144 33.6995 182.197 33.085C182.249 32.46 182.285 31.835 182.306 31.21C182.327 30.5537 182.332 29.8975 182.322 29.2412C182.322 28.5745 182.332 27.9079 182.353 27.2412C182.363 27.0225 182.368 26.7673 182.368 26.4756C182.379 26.1839 182.415 25.9131 182.478 25.6631C182.551 25.4027 182.665 25.1839 182.822 25.0068C182.988 24.8298 183.233 24.7412 183.556 24.7412C184.004 24.7412 184.342 24.861 184.572 25.1006C184.801 25.3298 184.962 25.6214 185.056 25.9756C185.15 26.3193 185.197 26.6891 185.197 27.085C185.197 27.4704 185.197 27.8193 185.197 28.1318C185.197 28.5485 185.186 28.96 185.165 29.3662C185.144 29.762 185.124 30.1631 185.103 30.5693L186.775 30.3193C186.785 29.8089 186.796 29.3037 186.806 28.8037C186.816 28.3037 186.837 27.8037 186.868 27.3037C186.879 27.0641 186.889 26.8089 186.9 26.5381C186.91 26.2673 186.952 26.0173 187.025 25.7881C187.098 25.5589 187.217 25.3714 187.384 25.2256C187.561 25.0693 187.822 24.9912 188.165 24.9912C188.457 24.9912 188.691 25.0745 188.868 25.2412C189.056 25.4079 189.202 25.611 189.306 25.8506C189.421 26.0902 189.499 26.3454 189.54 26.6162C189.582 26.887 189.603 27.1318 189.603 27.3506V27.5537ZM193.212 25.585C193.212 25.7308 193.171 25.861 193.087 25.9756C193.014 26.0902 192.915 26.1943 192.79 26.2881C192.665 26.3714 192.53 26.4391 192.384 26.4912C192.238 26.5329 192.103 26.5537 191.978 26.5537C191.769 26.5537 191.587 26.5016 191.431 26.3975C191.275 26.2933 191.197 26.1318 191.197 25.9131C191.197 25.7568 191.233 25.6214 191.306 25.5068C191.389 25.3818 191.488 25.2829 191.603 25.21C191.717 25.1266 191.848 25.0641 191.993 25.0225C192.139 24.9808 192.28 24.96 192.415 24.96C192.613 24.96 192.796 25.0068 192.962 25.1006C193.129 25.1943 193.212 25.3558 193.212 25.585ZM193.337 30.8975C193.337 31.0433 193.337 31.1995 193.337 31.3662C193.337 31.5225 193.332 31.6735 193.322 31.8193C193.311 31.9964 193.306 32.236 193.306 32.5381C193.306 32.8298 193.296 33.1475 193.275 33.4912C193.254 33.835 193.217 34.1839 193.165 34.5381C193.124 34.8923 193.051 35.2152 192.947 35.5068C192.842 35.7985 192.702 36.0381 192.525 36.2256C192.358 36.4027 192.144 36.4964 191.884 36.5068C191.686 36.5173 191.519 36.4391 191.384 36.2725C191.249 36.1058 191.134 35.8923 191.04 35.6318C190.957 35.361 190.894 35.0641 190.853 34.7412C190.811 34.4079 190.78 34.0902 190.759 33.7881C190.738 33.4756 190.728 33.1891 190.728 32.9287C190.728 32.6683 190.728 32.4756 190.728 32.3506C190.728 32.1839 190.728 31.9495 190.728 31.6475C190.728 31.335 190.738 31.0016 190.759 30.6475C190.78 30.2933 190.816 29.9339 190.868 29.5693C190.931 29.2048 191.014 28.8714 191.118 28.5693C191.233 28.2673 191.379 28.0225 191.556 27.835C191.733 27.6475 191.957 27.5537 192.228 27.5537C192.509 27.5537 192.723 27.6943 192.868 27.9756C193.014 28.2568 193.124 28.585 193.197 28.96C193.269 29.335 193.311 29.71 193.322 30.085C193.332 30.4495 193.337 30.7204 193.337 30.8975ZM201.603 31.835C201.603 32.2933 201.551 32.7985 201.447 33.3506C201.353 33.8923 201.186 34.3975 200.947 34.8662C200.717 35.335 200.41 35.7256 200.025 36.0381C199.65 36.3506 199.176 36.5068 198.603 36.5068C198.457 36.5068 198.306 36.4964 198.15 36.4756C197.993 36.4548 197.842 36.4183 197.697 36.3662C197.561 36.3141 197.436 36.2464 197.322 36.1631C197.207 36.0693 197.118 35.9495 197.056 35.8037L196.915 38.0537C196.905 38.2933 196.894 38.5798 196.884 38.9131C196.884 39.2464 196.842 39.5641 196.759 39.8662C196.686 40.1683 196.556 40.4235 196.368 40.6318C196.191 40.8506 195.931 40.96 195.587 40.96C195.389 40.96 195.223 40.8558 195.087 40.6475C194.952 40.4495 194.842 40.1943 194.759 39.8818C194.686 39.5693 194.629 39.2204 194.587 38.835C194.546 38.4495 194.519 38.0798 194.509 37.7256C194.499 37.3714 194.493 37.0485 194.493 36.7568C194.493 36.4652 194.493 36.2516 194.493 36.1162C194.493 35.4183 194.488 34.7256 194.478 34.0381C194.467 33.3402 194.462 32.6423 194.462 31.9443C194.462 31.8193 194.462 31.6266 194.462 31.3662C194.462 31.0954 194.473 30.8037 194.493 30.4912C194.514 30.1787 194.546 29.8558 194.587 29.5225C194.639 29.1891 194.712 28.887 194.806 28.6162C194.9 28.335 195.019 28.111 195.165 27.9443C195.311 27.7673 195.488 27.6787 195.697 27.6787C195.832 27.6787 195.952 27.7204 196.056 27.8037C196.171 27.8766 196.264 27.9756 196.337 28.1006C196.421 28.2152 196.488 28.3402 196.54 28.4756C196.592 28.611 196.634 28.736 196.665 28.8506C196.988 28.486 197.358 28.21 197.775 28.0225C198.202 27.835 198.655 27.7412 199.134 27.7412C199.634 27.7412 200.04 27.8818 200.353 28.1631C200.676 28.4443 200.926 28.7933 201.103 29.21C201.29 29.6266 201.421 30.0745 201.493 30.5537C201.566 31.0225 201.603 31.4495 201.603 31.835ZM199.368 31.71C199.368 31.5537 199.353 31.3975 199.322 31.2412C199.301 31.0745 199.254 30.9235 199.181 30.7881C199.118 30.6423 199.025 30.5277 198.9 30.4443C198.775 30.3506 198.618 30.3037 198.431 30.3037C198.181 30.3037 197.915 30.387 197.634 30.5537C197.363 30.71 197.16 30.8923 197.025 31.1006C196.973 31.1839 196.941 31.3193 196.931 31.5068C196.921 31.6943 196.915 31.835 196.915 31.9287C196.915 32.0016 196.915 32.1006 196.915 32.2256C196.926 32.3402 196.936 32.46 196.947 32.585C196.957 32.71 196.967 32.8298 196.978 32.9443C196.999 33.0589 197.025 33.1475 197.056 33.21C197.087 33.3037 197.155 33.3923 197.259 33.4756C197.363 33.5485 197.478 33.6162 197.603 33.6787C197.728 33.7412 197.853 33.7881 197.978 33.8193C198.113 33.8506 198.228 33.8662 198.322 33.8662C198.54 33.8662 198.717 33.7829 198.853 33.6162C198.988 33.4495 199.092 33.2516 199.165 33.0225C199.249 32.7933 199.301 32.5589 199.322 32.3193C199.353 32.0693 199.368 31.8662 199.368 31.71ZM205.525 36.9443C204.993 36.9443 204.53 36.8037 204.134 36.5225C203.738 36.2412 203.405 35.8818 203.134 35.4443C202.863 35.0068 202.66 34.5225 202.525 33.9912C202.389 33.4495 202.322 32.9183 202.322 32.3975C202.322 31.8454 202.389 31.2777 202.525 30.6943C202.66 30.1006 202.868 29.5641 203.15 29.085C203.431 28.5954 203.79 28.1995 204.228 27.8975C204.665 27.585 205.186 27.4287 205.79 27.4287C206.374 27.4287 206.868 27.5902 207.275 27.9131C207.691 28.2256 208.025 28.6214 208.275 29.1006C208.525 29.5693 208.702 30.085 208.806 30.6475C208.91 31.21 208.947 31.7412 208.915 32.2412C208.884 32.7933 208.796 33.3506 208.65 33.9131C208.514 34.4756 208.311 34.9808 208.04 35.4287C207.769 35.8766 207.426 36.2412 207.009 36.5225C206.592 36.8037 206.098 36.9443 205.525 36.9443ZM205.681 29.8818C205.525 29.8818 205.384 29.9652 205.259 30.1318C205.144 30.2985 205.046 30.5016 204.962 30.7412C204.889 30.9808 204.832 31.236 204.79 31.5068C204.749 31.7673 204.728 31.9964 204.728 32.1943C204.728 32.4443 204.749 32.7152 204.79 33.0068C204.842 33.2985 204.91 33.5693 204.993 33.8193C205.077 34.0589 205.176 34.262 205.29 34.4287C205.415 34.585 205.556 34.6631 205.712 34.6631C205.879 34.6631 206.019 34.585 206.134 34.4287C206.259 34.2725 206.358 34.0745 206.431 33.835C206.504 33.5954 206.556 33.335 206.587 33.0537C206.618 32.762 206.634 32.4912 206.634 32.2412C206.634 32.012 206.613 31.762 206.572 31.4912C206.53 31.21 206.467 30.9495 206.384 30.71C206.311 30.4704 206.212 30.2725 206.087 30.1162C205.973 29.96 205.837 29.8818 205.681 29.8818ZM100.595 55.2881C100.595 55.4756 100.585 55.7204 100.564 56.0225C100.553 56.3245 100.512 56.6214 100.439 56.9131C100.366 57.1943 100.251 57.4391 100.095 57.6475C99.9388 57.8558 99.72 57.96 99.4388 57.96C99.0533 57.96 98.7565 57.835 98.5481 57.585C98.3398 57.335 98.2408 57.0225 98.2513 56.6475C97.9179 56.9391 97.5377 57.1683 97.1106 57.335C96.694 57.5016 96.2669 57.585 95.8294 57.585C95.5273 57.585 95.2408 57.512 94.97 57.3662C94.6992 57.2204 94.4596 57.0329 94.2513 56.8037C94.0429 56.5745 93.8763 56.3193 93.7513 56.0381C93.6263 55.7464 93.5638 55.46 93.5638 55.1787C93.5638 54.6787 93.7148 54.2412 94.0169 53.8662C94.3294 53.4912 94.7096 53.1735 95.1575 52.9131C95.6054 52.6423 96.0794 52.4287 96.5794 52.2725C97.0898 52.1162 97.5429 52.012 97.9388 51.96C97.9388 51.9079 97.9388 51.861 97.9388 51.8193C97.9492 51.7777 97.9544 51.7308 97.9544 51.6787C97.9544 51.3558 97.8658 51.0954 97.6888 50.8975C97.5117 50.6995 97.2617 50.6006 96.9388 50.6006C96.6783 50.6006 96.4544 50.6475 96.2669 50.7412C96.0794 50.8245 95.9023 50.9235 95.7356 51.0381C95.569 51.1423 95.4023 51.2412 95.2356 51.335C95.069 51.4183 94.8815 51.46 94.6731 51.46C94.444 51.46 94.2461 51.387 94.0794 51.2412C93.9231 51.0954 93.845 50.9079 93.845 50.6787C93.845 50.335 93.944 50.0225 94.1419 49.7412C94.3502 49.46 94.6054 49.2256 94.9075 49.0381C95.22 48.8402 95.5533 48.6891 95.9075 48.585C96.2721 48.4704 96.6054 48.4131 96.9075 48.4131C97.1888 48.4131 97.47 48.4495 97.7513 48.5225C98.0325 48.585 98.2981 48.6891 98.5481 48.835C98.7981 48.9704 99.0221 49.1423 99.22 49.3506C99.4283 49.5485 99.595 49.7829 99.72 50.0537C99.9075 50.4391 100.059 50.8506 100.173 51.2881C100.288 51.7152 100.376 52.1579 100.439 52.6162C100.501 53.0641 100.543 53.5173 100.564 53.9756C100.585 54.4235 100.595 54.861 100.595 55.2881ZM98.095 54.7881L98.0481 53.7256C98.0273 53.7256 98.0065 53.7256 97.9856 53.7256C97.9648 53.7152 97.944 53.71 97.9231 53.71C97.7877 53.71 97.6158 53.7464 97.4075 53.8193C97.2096 53.8818 97.0169 53.9756 96.8294 54.1006C96.6419 54.2152 96.4804 54.3454 96.345 54.4912C96.22 54.637 96.1575 54.7881 96.1575 54.9443C96.1575 55.0902 96.2096 55.1891 96.3138 55.2412C96.4179 55.2933 96.5377 55.3193 96.6731 55.3193C96.9023 55.3193 97.1471 55.262 97.4075 55.1475C97.6679 55.0225 97.8971 54.9027 98.095 54.7881ZM108.689 52.835C108.689 53.2933 108.637 53.7985 108.533 54.3506C108.439 54.8923 108.272 55.3975 108.033 55.8662C107.803 56.335 107.496 56.7256 107.111 57.0381C106.736 57.3506 106.262 57.5068 105.689 57.5068C105.543 57.5068 105.392 57.4964 105.236 57.4756C105.079 57.4548 104.928 57.4183 104.783 57.3662C104.647 57.3141 104.522 57.2464 104.408 57.1631C104.293 57.0693 104.204 56.9495 104.142 56.8037L104.001 59.0537C103.991 59.2933 103.98 59.5798 103.97 59.9131C103.97 60.2464 103.928 60.5641 103.845 60.8662C103.772 61.1683 103.642 61.4235 103.454 61.6318C103.277 61.8506 103.017 61.96 102.673 61.96C102.475 61.96 102.309 61.8558 102.173 61.6475C102.038 61.4495 101.928 61.1943 101.845 60.8818C101.772 60.5693 101.715 60.2204 101.673 59.835C101.631 59.4495 101.605 59.0798 101.595 58.7256C101.585 58.3714 101.579 58.0485 101.579 57.7568C101.579 57.4652 101.579 57.2516 101.579 57.1162C101.579 56.4183 101.574 55.7256 101.564 55.0381C101.553 54.3402 101.548 53.6423 101.548 52.9443C101.548 52.8193 101.548 52.6266 101.548 52.3662C101.548 52.0954 101.559 51.8037 101.579 51.4912C101.6 51.1787 101.631 50.8558 101.673 50.5225C101.725 50.1891 101.798 49.887 101.892 49.6162C101.986 49.335 102.105 49.111 102.251 48.9443C102.397 48.7673 102.574 48.6787 102.783 48.6787C102.918 48.6787 103.038 48.7204 103.142 48.8037C103.256 48.8766 103.35 48.9756 103.423 49.1006C103.506 49.2152 103.574 49.3402 103.626 49.4756C103.678 49.611 103.72 49.736 103.751 49.8506C104.074 49.486 104.444 49.21 104.861 49.0225C105.288 48.835 105.741 48.7412 106.22 48.7412C106.72 48.7412 107.126 48.8818 107.439 49.1631C107.762 49.4443 108.012 49.7933 108.189 50.21C108.376 50.6266 108.506 51.0745 108.579 51.5537C108.652 52.0225 108.689 52.4495 108.689 52.835ZM106.454 52.71C106.454 52.5537 106.439 52.3975 106.408 52.2412C106.387 52.0745 106.34 51.9235 106.267 51.7881C106.204 51.6423 106.111 51.5277 105.986 51.4443C105.861 51.3506 105.704 51.3037 105.517 51.3037C105.267 51.3037 105.001 51.387 104.72 51.5537C104.449 51.71 104.246 51.8923 104.111 52.1006C104.059 52.1839 104.027 52.3193 104.017 52.5068C104.006 52.6943 104.001 52.835 104.001 52.9287C104.001 53.0016 104.001 53.1006 104.001 53.2256C104.012 53.3402 104.022 53.46 104.033 53.585C104.043 53.71 104.053 53.8298 104.064 53.9443C104.085 54.0589 104.111 54.1475 104.142 54.21C104.173 54.3037 104.241 54.3923 104.345 54.4756C104.449 54.5485 104.564 54.6162 104.689 54.6787C104.814 54.7412 104.939 54.7881 105.064 54.8193C105.199 54.8506 105.314 54.8662 105.408 54.8662C105.626 54.8662 105.803 54.7829 105.939 54.6162C106.074 54.4495 106.178 54.2516 106.251 54.0225C106.335 53.7933 106.387 53.5589 106.408 53.3193C106.439 53.0693 106.454 52.8662 106.454 52.71ZM116.283 55.2881C116.283 55.4756 116.272 55.7204 116.251 56.0225C116.241 56.3245 116.199 56.6214 116.126 56.9131C116.053 57.1943 115.939 57.4391 115.783 57.6475C115.626 57.8558 115.408 57.96 115.126 57.96C114.741 57.96 114.444 57.835 114.236 57.585C114.027 57.335 113.928 57.0225 113.939 56.6475C113.605 56.9391 113.225 57.1683 112.798 57.335C112.381 57.5016 111.954 57.585 111.517 57.585C111.215 57.585 110.928 57.512 110.658 57.3662C110.387 57.2204 110.147 57.0329 109.939 56.8037C109.73 56.5745 109.564 56.3193 109.439 56.0381C109.314 55.7464 109.251 55.46 109.251 55.1787C109.251 54.6787 109.402 54.2412 109.704 53.8662C110.017 53.4912 110.397 53.1735 110.845 52.9131C111.293 52.6423 111.767 52.4287 112.267 52.2725C112.777 52.1162 113.23 52.012 113.626 51.96C113.626 51.9079 113.626 51.861 113.626 51.8193C113.637 51.7777 113.642 51.7308 113.642 51.6787C113.642 51.3558 113.553 51.0954 113.376 50.8975C113.199 50.6995 112.949 50.6006 112.626 50.6006C112.366 50.6006 112.142 50.6475 111.954 50.7412C111.767 50.8245 111.59 50.9235 111.423 51.0381C111.256 51.1423 111.09 51.2412 110.923 51.335C110.756 51.4183 110.569 51.46 110.361 51.46C110.131 51.46 109.934 51.387 109.767 51.2412C109.611 51.0954 109.533 50.9079 109.533 50.6787C109.533 50.335 109.631 50.0225 109.829 49.7412C110.038 49.46 110.293 49.2256 110.595 49.0381C110.908 48.8402 111.241 48.6891 111.595 48.585C111.96 48.4704 112.293 48.4131 112.595 48.4131C112.876 48.4131 113.158 48.4495 113.439 48.5225C113.72 48.585 113.986 48.6891 114.236 48.835C114.486 48.9704 114.71 49.1423 114.908 49.3506C115.116 49.5485 115.283 49.7829 115.408 50.0537C115.595 50.4391 115.746 50.8506 115.861 51.2881C115.975 51.7152 116.064 52.1579 116.126 52.6162C116.189 53.0641 116.23 53.5173 116.251 53.9756C116.272 54.4235 116.283 54.861 116.283 55.2881ZM113.783 54.7881L113.736 53.7256C113.715 53.7256 113.694 53.7256 113.673 53.7256C113.652 53.7152 113.631 53.71 113.611 53.71C113.475 53.71 113.303 53.7464 113.095 53.8193C112.897 53.8818 112.704 53.9756 112.517 54.1006C112.329 54.2152 112.168 54.3454 112.033 54.4912C111.908 54.637 111.845 54.7881 111.845 54.9443C111.845 55.0902 111.897 55.1891 112.001 55.2412C112.105 55.2933 112.225 55.3193 112.361 55.3193C112.59 55.3193 112.835 55.262 113.095 55.1475C113.355 55.0225 113.585 54.9027 113.783 54.7881ZM122.642 51.6475C122.496 51.6579 122.371 51.6475 122.267 51.6162C122.163 51.5745 122.059 51.5329 121.954 51.4912C121.861 51.4495 121.767 51.4131 121.673 51.3818C121.579 51.3402 121.475 51.3245 121.361 51.335C121.152 51.3454 120.965 51.4027 120.798 51.5068C120.642 51.611 120.496 51.7412 120.361 51.8975C120.236 52.0537 120.126 52.2308 120.033 52.4287C119.939 52.6162 119.866 52.8037 119.814 52.9912C119.783 53.1162 119.756 53.3089 119.736 53.5693C119.725 53.8193 119.72 54.0902 119.72 54.3818C119.71 54.6839 119.704 54.9704 119.704 55.2412C119.704 55.512 119.694 55.7256 119.673 55.8818C119.663 56.0485 119.637 56.2464 119.595 56.4756C119.553 56.6943 119.486 56.9027 119.392 57.1006C119.309 57.2985 119.194 57.4652 119.048 57.6006C118.902 57.736 118.715 57.8037 118.486 57.8037C118.309 57.8037 118.152 57.7516 118.017 57.6475C117.892 57.5433 117.783 57.4079 117.689 57.2412C117.605 57.0641 117.533 56.861 117.47 56.6318C117.418 56.4027 117.376 56.1683 117.345 55.9287C117.314 55.6787 117.288 55.4287 117.267 55.1787C117.256 54.9287 117.246 54.6943 117.236 54.4756C117.236 54.2464 117.236 54.0381 117.236 53.8506C117.246 53.6631 117.251 53.512 117.251 53.3975C117.241 53.0329 117.22 52.6683 117.189 52.3037C117.168 51.9287 117.158 51.5589 117.158 51.1943C117.158 50.9652 117.168 50.71 117.189 50.4287C117.21 50.1475 117.267 49.887 117.361 49.6475C117.454 49.3975 117.59 49.1891 117.767 49.0225C117.954 48.8558 118.21 48.7725 118.533 48.7725C118.71 48.7725 118.861 48.8298 118.986 48.9443C119.111 49.0589 119.21 49.1995 119.283 49.3662C119.366 49.5329 119.428 49.71 119.47 49.8975C119.512 50.085 119.538 50.2568 119.548 50.4131C119.798 50.0068 120.079 49.6787 120.392 49.4287C120.704 49.1683 121.111 49.0277 121.611 49.0068C121.861 48.9964 122.105 49.0225 122.345 49.085C122.595 49.137 122.819 49.2308 123.017 49.3662C123.225 49.4912 123.392 49.6579 123.517 49.8662C123.652 50.0745 123.725 50.3193 123.736 50.6006C123.756 50.9339 123.658 51.1891 123.439 51.3662C123.22 51.5433 122.954 51.637 122.642 51.6475ZM130.517 54.71C130.517 55.0641 130.402 55.4131 130.173 55.7568C129.954 56.0902 129.673 56.3923 129.329 56.6631C128.996 56.9235 128.637 57.137 128.251 57.3037C127.866 57.46 127.512 57.5381 127.189 57.5381C126.637 57.5381 126.142 57.4027 125.704 57.1318C125.277 56.8506 124.918 56.4964 124.626 56.0693C124.335 55.6423 124.111 55.1735 123.954 54.6631C123.809 54.1423 123.736 53.637 123.736 53.1475C123.736 52.6266 123.809 52.0693 123.954 51.4756C124.1 50.8818 124.319 50.335 124.611 49.835C124.913 49.335 125.288 48.9183 125.736 48.585C126.194 48.2516 126.736 48.085 127.361 48.085C127.715 48.085 128.053 48.1475 128.376 48.2725C128.699 48.387 128.98 48.5537 129.22 48.7725C129.46 48.9912 129.652 49.2516 129.798 49.5537C129.944 49.8558 130.017 50.1943 130.017 50.5693C130.017 51.0589 129.913 51.5173 129.704 51.9443C129.496 52.3714 129.22 52.7412 128.876 53.0537C128.533 53.3662 128.137 53.6214 127.689 53.8193C127.241 54.0068 126.783 54.111 126.314 54.1318C126.355 54.4339 126.475 54.6527 126.673 54.7881C126.881 54.9235 127.126 54.9912 127.408 54.9912C127.616 54.9912 127.819 54.9391 128.017 54.835C128.215 54.7308 128.408 54.6162 128.595 54.4912C128.783 54.3558 128.965 54.236 129.142 54.1318C129.329 54.0277 129.517 53.9756 129.704 53.9756C129.913 53.9756 130.1 54.0433 130.267 54.1787C130.434 54.3141 130.517 54.4912 130.517 54.71ZM127.986 50.8818C127.986 50.7464 127.949 50.6058 127.876 50.46C127.803 50.3141 127.689 50.2412 127.533 50.2412C127.303 50.2412 127.111 50.3037 126.954 50.4287C126.798 50.5433 126.668 50.6943 126.564 50.8818C126.46 51.0589 126.376 51.2516 126.314 51.46C126.262 51.6683 126.23 51.861 126.22 52.0381C126.366 52.0068 126.538 51.9652 126.736 51.9131C126.944 51.861 127.137 51.7933 127.314 51.71C127.501 51.6162 127.658 51.5016 127.783 51.3662C127.918 51.2308 127.986 51.0693 127.986 50.8818ZM136.939 51.4912C136.939 51.5433 136.934 51.6006 136.923 51.6631C136.913 51.7152 136.897 51.7673 136.876 51.8193C136.783 52.0589 136.637 52.262 136.439 52.4287C136.241 52.585 136.006 52.6631 135.736 52.6631C135.329 52.6631 135.053 52.46 134.908 52.0537C134.887 52.0016 134.876 51.9443 134.876 51.8818C134.876 51.8089 134.871 51.736 134.861 51.6631V51.21C134.84 51.0641 134.803 50.9495 134.751 50.8662C134.699 50.7829 134.611 50.7412 134.486 50.7412C134.309 50.7412 134.137 50.8558 133.97 51.085C133.814 51.3037 133.673 51.5693 133.548 51.8818C133.434 52.1839 133.34 52.4964 133.267 52.8193C133.194 53.1423 133.158 53.4027 133.158 53.6006C133.158 53.7568 133.168 53.9495 133.189 54.1787C133.21 54.3975 133.251 54.611 133.314 54.8193C133.376 55.0277 133.46 55.21 133.564 55.3662C133.678 55.512 133.824 55.585 134.001 55.585C134.178 55.585 134.34 55.5329 134.486 55.4287C134.642 55.3141 134.793 55.1839 134.939 55.0381C135.074 54.9131 135.22 54.7829 135.376 54.6475C135.543 54.512 135.73 54.4443 135.939 54.4443C136.199 54.4443 136.402 54.5381 136.548 54.7256C136.704 54.9131 136.783 55.1266 136.783 55.3662C136.783 55.7204 136.689 56.0537 136.501 56.3662C136.314 56.6683 136.079 56.9339 135.798 57.1631C135.517 57.3818 135.204 57.5537 134.861 57.6787C134.517 57.8141 134.189 57.8818 133.876 57.8818C133.314 57.8818 132.835 57.7412 132.439 57.46C132.053 57.1787 131.741 56.8245 131.501 56.3975C131.262 55.96 131.09 55.486 130.986 54.9756C130.881 54.4652 130.829 53.9808 130.829 53.5225C130.829 52.9912 130.902 52.4183 131.048 51.8037C131.194 51.1787 131.418 50.6006 131.72 50.0693C132.022 49.5381 132.408 49.0954 132.876 48.7412C133.355 48.387 133.923 48.21 134.579 48.21C134.986 48.21 135.335 48.2985 135.626 48.4756C135.928 48.6527 136.173 48.887 136.361 49.1787C136.559 49.46 136.704 49.7777 136.798 50.1318C136.902 50.486 136.954 50.835 136.954 51.1787C136.954 51.2308 136.954 51.2829 136.954 51.335C136.954 51.387 136.949 51.4391 136.939 51.4912ZM144.361 54.71C144.361 55.0641 144.246 55.4131 144.017 55.7568C143.798 56.0902 143.517 56.3923 143.173 56.6631C142.84 56.9235 142.48 57.137 142.095 57.3037C141.71 57.46 141.355 57.5381 141.033 57.5381C140.48 57.5381 139.986 57.4027 139.548 57.1318C139.121 56.8506 138.762 56.4964 138.47 56.0693C138.178 55.6423 137.954 55.1735 137.798 54.6631C137.652 54.1423 137.579 53.637 137.579 53.1475C137.579 52.6266 137.652 52.0693 137.798 51.4756C137.944 50.8818 138.163 50.335 138.454 49.835C138.756 49.335 139.131 48.9183 139.579 48.585C140.038 48.2516 140.579 48.085 141.204 48.085C141.559 48.085 141.897 48.1475 142.22 48.2725C142.543 48.387 142.824 48.5537 143.064 48.7725C143.303 48.9912 143.496 49.2516 143.642 49.5537C143.788 49.8558 143.861 50.1943 143.861 50.5693C143.861 51.0589 143.756 51.5173 143.548 51.9443C143.34 52.3714 143.064 52.7412 142.72 53.0537C142.376 53.3662 141.98 53.6214 141.533 53.8193C141.085 54.0068 140.626 54.111 140.158 54.1318C140.199 54.4339 140.319 54.6527 140.517 54.7881C140.725 54.9235 140.97 54.9912 141.251 54.9912C141.46 54.9912 141.663 54.9391 141.861 54.835C142.059 54.7308 142.251 54.6162 142.439 54.4912C142.626 54.3558 142.809 54.236 142.986 54.1318C143.173 54.0277 143.361 53.9756 143.548 53.9756C143.756 53.9756 143.944 54.0433 144.111 54.1787C144.277 54.3141 144.361 54.4912 144.361 54.71ZM141.829 50.8818C141.829 50.7464 141.793 50.6058 141.72 50.46C141.647 50.3141 141.533 50.2412 141.376 50.2412C141.147 50.2412 140.954 50.3037 140.798 50.4287C140.642 50.5433 140.512 50.6943 140.408 50.8818C140.303 51.0589 140.22 51.2516 140.158 51.46C140.105 51.6683 140.074 51.861 140.064 52.0381C140.21 52.0068 140.381 51.9652 140.579 51.9131C140.788 51.861 140.98 51.7933 141.158 51.71C141.345 51.6162 141.501 51.5016 141.626 51.3662C141.762 51.2308 141.829 51.0693 141.829 50.8818ZM152.001 49.085C152.001 49.4183 151.913 49.7308 151.736 50.0225C151.569 50.3037 151.355 50.5693 151.095 50.8193C150.845 51.0589 150.564 51.2725 150.251 51.46C149.949 51.637 149.668 51.7777 149.408 51.8818C149.47 52.3818 149.501 52.8975 149.501 53.4287C149.501 53.6058 149.496 53.8037 149.486 54.0225C149.486 54.2412 149.454 54.4495 149.392 54.6475C149.34 54.835 149.246 54.9964 149.111 55.1318C148.986 55.2673 148.803 55.335 148.564 55.335C148.147 55.335 147.866 55.1266 147.72 54.71C147.668 54.5537 147.626 54.3454 147.595 54.085C147.564 53.8141 147.538 53.5381 147.517 53.2568C147.506 52.9652 147.501 52.6839 147.501 52.4131C147.501 52.1423 147.501 51.9183 147.501 51.7412C147.501 51.5954 147.506 51.4235 147.517 51.2256C147.538 51.0277 147.59 50.8662 147.673 50.7412C147.767 50.6058 147.923 50.4756 148.142 50.3506C148.361 50.2152 148.585 50.0745 148.814 49.9287C149.053 49.7829 149.262 49.6214 149.439 49.4443C149.616 49.2673 149.704 49.0589 149.704 48.8193C149.704 48.6423 149.663 48.4808 149.579 48.335C149.496 48.1891 149.387 48.0693 149.251 47.9756C149.126 47.8714 148.98 47.7933 148.814 47.7412C148.658 47.6787 148.496 47.6475 148.329 47.6475C147.934 47.6475 147.621 47.7152 147.392 47.8506C147.163 47.9756 146.965 48.1162 146.798 48.2725C146.642 48.4183 146.491 48.5589 146.345 48.6943C146.21 48.8193 146.033 48.8818 145.814 48.8818C145.564 48.8818 145.335 48.7933 145.126 48.6162C144.928 48.4391 144.829 48.2256 144.829 47.9756C144.829 47.5693 144.949 47.2256 145.189 46.9443C145.428 46.6527 145.725 46.4235 146.079 46.2568C146.434 46.0798 146.809 45.9548 147.204 45.8818C147.6 45.7985 147.954 45.7568 148.267 45.7568C148.684 45.7568 149.111 45.8506 149.548 46.0381C149.996 46.2152 150.397 46.4548 150.751 46.7568C151.116 47.0589 151.413 47.4131 151.642 47.8193C151.881 48.2256 152.001 48.6475 152.001 49.085ZM149.689 56.6787C149.689 56.8558 149.642 57.0068 149.548 57.1318C149.465 57.2568 149.355 57.361 149.22 57.4443C149.095 57.5277 148.949 57.5902 148.783 57.6318C148.626 57.6735 148.475 57.6943 148.329 57.6943C148.09 57.6943 147.866 57.637 147.658 57.5225C147.46 57.4079 147.361 57.2204 147.361 56.96C147.361 56.7933 147.402 56.6475 147.486 56.5225C147.579 56.387 147.694 56.2725 147.829 56.1787C147.965 56.085 148.111 56.0173 148.267 55.9756C148.434 55.9235 148.59 55.8975 148.736 55.8975C148.975 55.8975 149.194 55.96 149.392 56.085C149.59 56.21 149.689 56.4079 149.689 56.6787Z" fill="white"/>
<defs>
<filter id="filter0_i_1129_945" x="-6.10352e-05" y="0" width="250.093" height="128" filterUnits="userSpaceOnUse" color-interpolation-filters="sRGB">
<feFlood flood-opacity="0" result="BackgroundImageFix"/>
<feBlend mode="normal" in="SourceGraphic" in2="BackgroundImageFix" result="shape"/>
<feColorMatrix in="SourceAlpha" type="matrix" values="0 0 0 0 0 0 0 0 0 0 0 0 0 0 0 0 0 0 127 0" result="hardAlpha"/>
<feOffset dy="4"/>
<feGaussianBlur stdDeviation="2"/>
<feComposite in2="hardAlpha" operator="arithmetic" k2="-1" k3="1"/>
<feColorMatrix type="matrix" values="0 0 0 0 0 0 0 0 0 0 0 0 0 0 0 0 0 0 0.25 0"/>
<feBlend mode="normal" in2="shape" result="effect1_innerShadow_1129_945"/>
</filter>
</defs>
</svg>
