<svg width="276" height="105" viewBox="0 0 276 105" fill="none" xmlns="http://www.w3.org/2000/svg">
<g filter="url(#filter0_i_1137_1739)">
<path fill-rule="evenodd" clip-rule="evenodd" d="M39.0125 66.7257C12.5503 59.8854 1 49.7901 1 38.8638C1 25.4199 24.2964 12.1389 62.835 5.57227C81.5275 2.38723 103.49 1 128.723 1C205.981 1 277.228 14.7167 274.187 38.8638C274.187 50.8452 261.001 61.8629 234.146 68.4403C219.503 72.0267 200.978 74.1449 177.801 74.7961C168.684 87.331 155.341 93.7854 133.449 104C149.503 92.0945 159.339 84.4186 162.898 75.0118C162.49 75.0126 162.08 75.013 161.669 75.013C106.909 77.157 65.4946 73.5713 39.0125 66.7257Z" fill="#F4719C"/>
</g>
<path d="M39.0125 66.7257L39.2627 65.7576L39.0125 66.7257ZM62.835 5.57227L63.003 6.55807L62.835 5.57227ZM274.187 38.8638L273.195 38.7388C273.19 38.7803 273.187 38.822 273.187 38.8638H274.187ZM234.146 68.4403L234.384 69.4116L234.146 68.4403ZM177.801 74.7961L177.773 73.7965C177.463 73.8052 177.174 73.9572 176.992 74.2079L177.801 74.7961ZM133.449 104L132.854 103.197C132.441 103.503 132.327 104.071 132.59 104.512C132.853 104.953 133.407 105.123 133.872 104.906L133.449 104ZM162.898 75.0118L163.833 75.3656C163.95 75.0581 163.908 74.713 163.72 74.4426C163.533 74.1722 163.225 74.0112 162.896 74.0118L162.898 75.0118ZM161.669 75.013V74.013C161.656 74.013 161.643 74.0132 161.63 74.0137L161.669 75.013ZM1 38.8638H0C0 44.7288 3.1146 50.2499 9.47491 55.1209C15.8197 59.98 25.4669 64.2571 38.7622 67.6939L39.0125 66.7257L39.2627 65.7576C26.0958 62.354 16.7369 58.1633 10.6909 53.5331C4.66056 48.9148 2 43.9251 2 38.8638H1ZM62.835 5.57227L62.667 4.58648C43.3344 7.88062 27.7581 12.8685 16.9856 18.7618C6.29599 24.6097 0 31.546 0 38.8638H1H2C2 32.7377 7.3522 26.3116 17.9455 20.5164C28.4558 14.7665 43.797 9.83061 63.003 6.55807L62.835 5.57227ZM128.723 1V0C103.458 0 81.4348 1.38861 62.667 4.58648L62.835 5.57227L63.003 6.55807C81.6202 3.38585 103.521 2 128.723 2V1ZM274.187 38.8638L275.18 38.9887C276.014 32.3592 271.702 26.6616 264.138 21.9135C256.542 17.1464 245.384 13.1373 231.799 9.90392C204.608 3.43209 167.398 0 128.723 0V1V2C167.307 2 204.349 5.42627 231.336 11.8496C244.84 15.0638 255.752 19.0114 263.074 23.6075C270.427 28.2227 273.881 33.2948 273.195 38.7388L274.187 38.8638ZM234.146 68.4403L234.384 69.4116C247.885 66.105 258.04 61.6623 264.844 56.4737C271.655 51.2791 275.187 45.2647 275.187 38.8638H274.187H273.187C273.187 44.4443 270.127 49.9295 263.631 54.8834C257.127 59.8434 247.262 64.1983 233.908 67.469L234.146 68.4403ZM177.801 74.7961L177.829 75.7957C201.045 75.1434 219.647 73.021 234.384 69.4116L234.146 68.4403L233.908 67.469C219.359 71.0324 200.911 73.1464 177.773 73.7965L177.801 74.7961ZM177.801 74.7961L176.992 74.2079C168.055 86.4948 154.978 92.8514 133.026 103.094L133.449 104L133.872 104.906C155.704 94.7195 169.312 88.1672 178.609 75.3843L177.801 74.7961ZM133.449 104L134.045 104.803C142.063 98.8568 148.583 93.9282 153.542 89.3C158.505 84.6677 161.977 80.273 163.833 75.3656L162.898 75.0118L161.963 74.6579C160.261 79.1574 157.035 83.304 152.177 87.8378C147.315 92.3757 140.889 97.2378 132.854 103.197L133.449 104ZM161.669 75.013V76.013C162.081 76.013 162.491 76.0126 162.9 76.0118L162.898 75.0118L162.896 74.0118C162.488 74.0126 162.079 74.013 161.669 74.013V75.013ZM39.0125 66.7257L38.7622 67.6939C65.3787 74.5742 106.903 78.158 161.708 76.0122L161.669 75.013L161.63 74.0137C106.916 76.156 65.6106 72.5684 39.2627 65.7576L39.0125 66.7257Z" fill="#F4719C"/>
<path d="M49.3654 27.6431V28.0337C49.3549 28.4191 49.3341 28.8306 49.3029 29.2681C49.2716 29.7056 49.2195 30.1379 49.1466 30.5649C49.0737 30.992 48.9643 31.4035 48.8185 31.7993C48.6726 32.1847 48.4747 32.5285 48.2247 32.8306C47.9747 33.1326 47.6674 33.3722 47.3029 33.5493C46.9383 33.7264 46.4956 33.8149 45.9747 33.8149C45.4122 33.8149 44.9174 33.6951 44.4904 33.4556C44.0737 33.216 43.7247 32.9035 43.4435 32.5181C43.1622 32.1222 42.9539 31.6847 42.8185 31.2056C42.6831 30.716 42.6154 30.2212 42.6154 29.7212C42.6154 29.5024 42.6414 29.2576 42.6935 28.9868C42.7351 28.716 42.8133 28.466 42.9279 28.2368C43.0424 27.9972 43.1883 27.7993 43.3654 27.6431C43.5529 27.4764 43.7872 27.3931 44.0685 27.3931C44.3706 27.3931 44.5945 27.4764 44.7404 27.6431C44.8966 27.8097 45.006 28.0181 45.0685 28.2681C45.1414 28.5076 45.1883 28.7733 45.2091 29.0649C45.2299 29.3462 45.256 29.6118 45.2872 29.8618C45.3185 30.1014 45.3706 30.3045 45.4435 30.4712C45.5268 30.6379 45.6622 30.7212 45.8497 30.7212C46.0685 30.7212 46.2404 30.6274 46.3654 30.4399C46.4904 30.2524 46.5789 30.0337 46.631 29.7837C46.6935 29.5233 46.7299 29.2629 46.7404 29.0024C46.7612 28.742 46.7716 28.5389 46.7716 28.3931C46.7716 27.8097 46.7195 27.242 46.6154 26.6899C46.5216 26.1274 46.4018 25.5597 46.256 24.9868C46.1831 24.6951 46.1049 24.3983 46.0216 24.0962C45.9383 23.7941 45.8966 23.492 45.8966 23.1899C45.8966 22.8358 45.9904 22.5493 46.1779 22.3306C46.3654 22.1014 46.6414 21.9868 47.006 21.9868C47.2768 21.9868 47.4904 22.0441 47.6466 22.1587C47.8029 22.2629 47.9591 22.4191 48.1154 22.6274C48.3549 22.9504 48.5529 23.3201 48.7091 23.7368C48.8758 24.1535 49.006 24.5858 49.0997 25.0337C49.1935 25.4816 49.2612 25.9347 49.3029 26.3931C49.3445 26.841 49.3654 27.2576 49.3654 27.6431ZM57.1466 28.9868C57.1466 29.5597 57.0893 30.1274 56.9747 30.6899C56.8601 31.2524 56.6674 31.7576 56.3966 32.2056C56.1258 32.6431 55.7612 32.9972 55.3029 33.2681C54.8549 33.5389 54.2924 33.6743 53.6154 33.6743C52.9487 33.6743 52.3914 33.5441 51.9435 33.2837C51.4956 33.0129 51.1362 32.6587 50.8654 32.2212C50.6049 31.7837 50.4174 31.2889 50.3029 30.7368C50.1987 30.1847 50.1466 29.6222 50.1466 29.0493C50.1466 28.4243 50.2195 27.8045 50.3654 27.1899C50.3966 27.0233 50.4539 26.7941 50.5372 26.5024C50.631 26.2004 50.7456 25.9087 50.881 25.6274C51.0268 25.3358 51.1883 25.0858 51.3654 24.8774C51.5529 24.6691 51.756 24.5649 51.9747 24.5649C52.1831 24.5649 52.3497 24.6222 52.4747 24.7368C52.5997 24.8514 52.6987 24.9972 52.7716 25.1743C52.8445 25.341 52.8914 25.5233 52.9122 25.7212C52.9331 25.9087 52.9435 26.0806 52.9435 26.2368C52.9435 26.4764 52.9226 26.7108 52.881 26.9399C52.8497 27.1691 52.8133 27.3983 52.7716 27.6274C52.7299 27.9399 52.6883 28.2524 52.6466 28.5649C52.6154 28.8774 52.5997 29.1899 52.5997 29.5024C52.5997 29.6587 52.6049 29.8358 52.6154 30.0337C52.6362 30.2212 52.6779 30.4035 52.7404 30.5806C52.8029 30.7576 52.8914 30.9087 53.006 31.0337C53.1206 31.1483 53.282 31.2056 53.4904 31.2056C53.7612 31.2056 53.9747 31.1326 54.131 30.9868C54.2976 30.841 54.4174 30.6587 54.4904 30.4399C54.5737 30.2212 54.6258 29.9868 54.6466 29.7368C54.6674 29.4868 54.6779 29.2576 54.6779 29.0493C54.6779 28.591 54.6466 28.1431 54.5841 27.7056C54.5216 27.2576 54.4643 26.8045 54.4122 26.3462C54.4018 26.2941 54.3966 26.2212 54.3966 26.1274C54.3966 25.9712 54.4226 25.8149 54.4747 25.6587C54.5268 25.5024 54.5997 25.3618 54.6935 25.2368C54.7872 25.1118 54.9018 25.0129 55.0372 24.9399C55.1726 24.8566 55.3237 24.8149 55.4904 24.8149C55.7195 24.8149 55.9226 24.8983 56.0997 25.0649C56.2768 25.2212 56.4226 25.4295 56.5372 25.6899C56.6622 25.9399 56.7612 26.2264 56.8341 26.5493C56.9174 26.8618 56.9799 27.1743 57.0216 27.4868C57.0737 27.7889 57.1049 28.0754 57.1154 28.3462C57.1362 28.617 57.1466 28.8306 57.1466 28.9868ZM62.5372 33.8931C62.3601 33.8931 62.2195 33.8097 62.1154 33.6431C62.0112 33.4868 61.9331 33.3045 61.881 33.0962C61.8289 32.8879 61.7924 32.6795 61.7716 32.4712C61.7612 32.2524 61.756 32.0858 61.756 31.9712C61.756 31.6587 61.7716 31.3462 61.8029 31.0337C61.8445 30.7212 61.8862 30.4087 61.9279 30.0962C61.9799 29.7837 62.0216 29.4712 62.0529 29.1587C62.0945 28.8462 62.1154 28.5337 62.1154 28.2212C62.1154 28.0962 62.1101 27.9608 62.0997 27.8149C62.0893 27.6691 62.0633 27.5337 62.0216 27.4087C61.9904 27.2733 61.9331 27.1639 61.8497 27.0806C61.7664 26.9972 61.657 26.9556 61.5216 26.9556C61.4279 26.9556 61.3237 27.0337 61.2091 27.1899C61.0945 27.3358 60.9851 27.5076 60.881 27.7056C60.7872 27.8931 60.7039 28.0858 60.631 28.2837C60.5685 28.4712 60.5372 28.6118 60.5372 28.7056C60.5372 28.9347 60.5372 29.1691 60.5372 29.4087C60.5476 29.6379 60.5529 29.8722 60.5529 30.1118V31.0181C60.5424 31.2056 60.5268 31.3983 60.506 31.5962C60.4851 31.7941 60.4539 31.9868 60.4122 32.1743C60.381 32.3618 60.3341 32.5441 60.2716 32.7212C60.2091 32.8879 60.1258 33.0389 60.0216 33.1743C59.9279 33.2993 59.8133 33.4035 59.6779 33.4868C59.5424 33.5701 59.381 33.6118 59.1935 33.6118C58.9851 33.6118 58.8133 33.5441 58.6779 33.4087C58.5424 33.2733 58.4331 33.1014 58.3497 32.8931C58.2664 32.6743 58.2039 32.4347 58.1622 32.1743C58.131 31.9035 58.1049 31.6431 58.0841 31.3931C58.0737 31.1326 58.0685 30.8983 58.0685 30.6899C58.0789 30.4712 58.0841 30.2993 58.0841 30.1743V29.4399C58.0841 29.0441 58.0737 28.6535 58.0529 28.2681C58.0424 27.8826 58.0372 27.4972 58.0372 27.1118C58.0372 26.9035 58.0372 26.6379 58.0372 26.3149C58.0476 25.992 58.0893 25.6795 58.1622 25.3774C58.2351 25.0649 58.3549 24.7993 58.5216 24.5806C58.6883 24.3618 58.9331 24.2524 59.256 24.2524C59.4018 24.2524 59.532 24.2993 59.6466 24.3931C59.7612 24.4868 59.8601 24.6014 59.9435 24.7368C60.0372 24.8722 60.1101 25.0181 60.1622 25.1743C60.2247 25.3306 60.2716 25.466 60.3029 25.5806C60.407 25.4347 60.5268 25.2941 60.6622 25.1587C60.8081 25.0233 60.9695 24.9035 61.1466 24.7993C61.3237 24.6951 61.5216 24.6118 61.7404 24.5493C61.9591 24.4868 62.2091 24.4556 62.4904 24.4556C63.0216 24.4556 63.4331 24.5858 63.7247 24.8462C64.0268 25.0962 64.2456 25.4139 64.381 25.7993C64.5268 26.1743 64.6154 26.5806 64.6466 27.0181C64.6779 27.4556 64.6935 27.8514 64.6935 28.2056C64.6935 28.3826 64.6779 28.6483 64.6466 29.0024C64.6154 29.3462 64.5633 29.7316 64.4904 30.1587C64.4279 30.5754 64.3393 31.0076 64.2247 31.4556C64.1101 31.8931 63.9747 32.2941 63.8185 32.6587C63.6622 33.0233 63.4747 33.3201 63.256 33.5493C63.0476 33.7785 62.8081 33.8931 62.5372 33.8931ZM69.2091 34.0181C68.4695 34.0181 67.8914 33.9191 67.4747 33.7212C67.0685 33.5337 66.7612 33.2629 66.5529 32.9087C66.3549 32.5545 66.2351 32.1274 66.1935 31.6274C66.1518 31.1274 66.131 30.5701 66.131 29.9556C66.131 29.466 66.1466 28.9764 66.1779 28.4868C66.2091 27.9868 66.256 27.4556 66.3185 26.8931C66.1726 26.8931 66.0581 26.8983 65.9747 26.9087C65.8914 26.9087 65.8237 26.9087 65.7716 26.9087C65.4383 26.9087 65.1518 26.8358 64.9122 26.6899C64.6622 26.5441 64.5372 26.3201 64.5372 26.0181C64.5372 25.8306 64.6101 25.6639 64.756 25.5181C64.8914 25.3722 65.0685 25.2472 65.2872 25.1431C65.506 25.0389 65.7404 24.9556 65.9904 24.8931C66.2508 24.8306 66.4956 24.7889 66.7247 24.7681C66.7247 24.4764 66.7456 24.1535 66.7872 23.7993C66.8289 23.4451 66.9018 23.117 67.006 22.8149C67.1206 22.5024 67.2716 22.242 67.4591 22.0337C67.6466 21.8254 67.8862 21.7212 68.1779 21.7212C68.3445 21.7212 68.4904 21.7733 68.6154 21.8774C68.7508 21.9712 68.8601 22.0962 68.9435 22.2524C69.0268 22.3983 69.0893 22.5649 69.131 22.7524C69.1726 22.9399 69.1935 23.1222 69.1935 23.2993C69.1935 23.5076 69.1779 23.7212 69.1466 23.9399C69.1154 24.1587 69.0581 24.4295 68.9747 24.7524C69.1518 24.7316 69.2716 24.7212 69.3341 24.7212C69.3966 24.7108 69.4539 24.7056 69.506 24.7056C69.6831 24.7056 69.8654 24.7212 70.0529 24.7524C70.2508 24.7837 70.4279 24.8358 70.5841 24.9087C70.7508 24.9816 70.8862 25.0806 70.9904 25.2056C71.0945 25.3201 71.1466 25.4608 71.1466 25.6274C71.1466 25.8149 71.0685 25.9816 70.9122 26.1274C70.7664 26.2733 70.5789 26.3983 70.3497 26.5024C70.1206 26.6066 69.8758 26.6899 69.6154 26.7524C69.3549 26.8045 69.1101 26.841 68.881 26.8618C68.8185 27.2889 68.7716 27.6847 68.7404 28.0493C68.7195 28.4035 68.6935 28.7629 68.6622 29.1274C68.6414 29.3045 68.6206 29.4868 68.5997 29.6743C68.5893 29.8514 68.5841 30.0337 68.5841 30.2212C68.5841 30.3566 68.5893 30.5181 68.5997 30.7056C68.6101 30.8826 68.6466 31.0545 68.7091 31.2212C68.7716 31.3879 68.8706 31.5337 69.006 31.6587C69.1414 31.7733 69.3289 31.8306 69.5685 31.8306C69.7143 31.8306 69.8654 31.8201 70.0216 31.7993C70.1779 31.7681 70.3341 31.7524 70.4904 31.7524C70.7612 31.7524 70.9539 31.8462 71.0685 32.0337C71.1935 32.2212 71.256 32.4608 71.256 32.7524C71.256 32.9712 71.1883 33.1639 71.0529 33.3306C70.9279 33.4868 70.7664 33.6118 70.5685 33.7056C70.3706 33.8097 70.1466 33.8879 69.8966 33.9399C69.657 33.992 69.4279 34.0181 69.2091 34.0181ZM74.5372 33.9087C74.006 33.9087 73.5424 33.7681 73.1466 33.4868C72.7508 33.2056 72.4174 32.8462 72.1466 32.4087C71.8758 31.9712 71.6726 31.4868 71.5372 30.9556C71.4018 30.4139 71.3341 29.8826 71.3341 29.3618C71.3341 28.8097 71.4018 28.242 71.5372 27.6587C71.6726 27.0649 71.881 26.5285 72.1622 26.0493C72.4435 25.5597 72.8029 25.1639 73.2404 24.8618C73.6779 24.5493 74.1987 24.3931 74.8029 24.3931C75.3862 24.3931 75.881 24.5545 76.2872 24.8774C76.7039 25.1899 77.0372 25.5858 77.2872 26.0649C77.5372 26.5337 77.7143 27.0493 77.8185 27.6118C77.9226 28.1743 77.9591 28.7056 77.9279 29.2056C77.8966 29.7576 77.8081 30.3149 77.6622 30.8774C77.5268 31.4399 77.3237 31.9451 77.0529 32.3931C76.782 32.841 76.4383 33.2056 76.0216 33.4868C75.6049 33.7681 75.1101 33.9087 74.5372 33.9087ZM74.6935 26.8462C74.5372 26.8462 74.3966 26.9295 74.2716 27.0962C74.157 27.2629 74.0581 27.466 73.9747 27.7056C73.9018 27.9451 73.8445 28.2004 73.8029 28.4712C73.7612 28.7316 73.7404 28.9608 73.7404 29.1587C73.7404 29.4087 73.7612 29.6795 73.8029 29.9712C73.8549 30.2629 73.9226 30.5337 74.006 30.7837C74.0893 31.0233 74.1883 31.2264 74.3029 31.3931C74.4279 31.5493 74.5685 31.6274 74.7247 31.6274C74.8914 31.6274 75.032 31.5493 75.1466 31.3931C75.2716 31.2368 75.3706 31.0389 75.4435 30.7993C75.5164 30.5597 75.5685 30.2993 75.5997 30.0181C75.631 29.7264 75.6466 29.4556 75.6466 29.2056C75.6466 28.9764 75.6258 28.7264 75.5841 28.4556C75.5424 28.1743 75.4799 27.9139 75.3966 27.6743C75.3237 27.4347 75.2247 27.2368 75.0997 27.0806C74.9851 26.9243 74.8497 26.8462 74.6935 26.8462ZM83.3029 24.8618C83.3029 25.1639 83.1987 25.3879 82.9904 25.5337C82.7924 25.6795 82.5685 25.8201 82.3185 25.9556C82.0685 26.0806 81.8393 26.2316 81.631 26.4087C81.4331 26.5858 81.3341 26.8514 81.3341 27.2056C81.3341 27.3931 81.3758 27.5545 81.4591 27.6899C81.5529 27.8254 81.6622 27.9504 81.7872 28.0649C81.9226 28.1691 82.0685 28.2785 82.2247 28.3931C82.381 28.5076 82.5216 28.6379 82.6466 28.7837C82.782 28.9295 82.8914 29.1066 82.9747 29.3149C83.0685 29.5233 83.1154 29.7785 83.1154 30.0806C83.1154 30.5181 83.0008 30.9504 82.7716 31.3774C82.5529 31.7941 82.2664 32.1691 81.9122 32.5024C81.5685 32.8254 81.1779 33.0858 80.7404 33.2837C80.3029 33.4816 79.8706 33.5806 79.4435 33.5806C79.2664 33.5806 79.0893 33.5649 78.9122 33.5337C78.7351 33.5129 78.5737 33.466 78.4279 33.3931C78.2924 33.3201 78.1779 33.2212 78.0841 33.0962C77.9904 32.9608 77.9435 32.7889 77.9435 32.5806C77.9435 32.2889 78.0008 32.0649 78.1154 31.9087C78.2299 31.742 78.3758 31.6118 78.5529 31.5181C78.7299 31.4243 78.9174 31.3514 79.1154 31.2993C79.3237 31.2472 79.5164 31.1847 79.6935 31.1118C79.8706 31.0285 80.0164 30.9243 80.131 30.7993C80.2456 30.6743 80.3029 30.4972 80.3029 30.2681C80.3029 30.0493 80.2143 29.8254 80.0372 29.5962C79.8706 29.3566 79.6831 29.1066 79.4747 28.8462C79.2664 28.5754 79.0737 28.2889 78.8966 27.9868C78.7299 27.6847 78.6466 27.3514 78.6466 26.9868C78.6466 26.5389 78.7351 26.1274 78.9122 25.7524C79.0997 25.367 79.3445 25.0337 79.6466 24.7524C79.9591 24.4712 80.3133 24.2524 80.7091 24.0962C81.1049 23.9295 81.5216 23.8462 81.9591 23.8462C82.1258 23.8462 82.2872 23.8618 82.4435 23.8931C82.6101 23.9243 82.756 23.9816 82.881 24.0649C83.006 24.1379 83.1049 24.242 83.1779 24.3774C83.2612 24.5024 83.3029 24.6639 83.3029 24.8618ZM86.1779 32.6274C86.1779 32.7941 86.131 33.0076 86.0372 33.2681C85.9539 33.5285 85.8445 33.7837 85.7091 34.0337C85.5841 34.2837 85.4383 34.4972 85.2716 34.6743C85.1049 34.8514 84.9435 34.9399 84.7872 34.9399C84.5789 34.9399 84.4747 34.8358 84.4747 34.6274C84.4747 34.5024 84.5008 34.3826 84.5529 34.2681C84.6049 34.1535 84.6622 34.0389 84.7247 33.9243C84.7872 33.8201 84.8445 33.7108 84.8966 33.5962C84.9487 33.492 84.9747 33.3879 84.9747 33.2837C84.8185 33.3879 84.6518 33.4399 84.4747 33.4399C84.2351 33.4399 84.032 33.3462 83.8654 33.1587C83.6987 32.9712 83.6154 32.7629 83.6154 32.5337C83.6154 32.2004 83.7247 31.9347 83.9435 31.7368C84.1622 31.5285 84.4383 31.4243 84.7716 31.4243C85.1466 31.4243 85.4747 31.5233 85.756 31.7212C86.0372 31.9191 86.1779 32.2212 86.1779 32.6274ZM97.3029 27.8618C97.032 28.5806 96.7351 29.3306 96.4122 30.1118C96.0893 30.8931 95.7404 31.6222 95.3654 32.2993C95.1362 32.716 94.881 33.0649 94.5997 33.3462C94.3185 33.617 93.9956 33.7524 93.631 33.7524C93.3393 33.7524 93.0529 33.6066 92.7716 33.3149C92.5008 33.0129 92.2456 32.6587 92.006 32.2524C91.7768 31.8358 91.5737 31.4191 91.3966 31.0024C91.2299 30.5754 91.1049 30.2368 91.0216 29.9868C90.9383 29.7056 90.8445 29.4035 90.7404 29.0806C90.6362 28.7576 90.5424 28.4295 90.4591 28.0962C90.3758 27.7629 90.3081 27.4347 90.256 27.1118C90.2039 26.7785 90.1779 26.466 90.1779 26.1743C90.1779 25.7681 90.2508 25.4347 90.3966 25.1743C90.5424 24.9139 90.8289 24.7837 91.256 24.7837C91.4226 24.7837 91.5737 24.8358 91.7091 24.9399C91.8445 25.0337 91.9695 25.1691 92.0841 25.3462C92.1987 25.5233 92.3081 25.7316 92.4122 25.9712C92.5164 26.2004 92.6154 26.4556 92.7091 26.7368C92.8029 27.0076 92.8914 27.2889 92.9747 27.5806C93.0581 27.8722 93.1414 28.1535 93.2247 28.4243C93.3081 28.6951 93.3914 28.9608 93.4747 29.2212C93.5685 29.4712 93.6883 29.7212 93.8341 29.9712C93.907 29.7837 93.9904 29.5701 94.0841 29.3306C94.1779 29.091 94.2768 28.8358 94.381 28.5649C94.4956 28.2941 94.6154 28.0181 94.7404 27.7368C94.8654 27.4451 95.0008 27.1639 95.1466 26.8931C95.4279 26.3306 95.7247 25.8514 96.0372 25.4556C96.3601 25.0597 96.6779 24.8618 96.9904 24.8618C97.282 24.8618 97.4904 24.9504 97.6154 25.1274C97.7404 25.3045 97.8029 25.5337 97.8029 25.8149C97.8029 26.0962 97.756 26.4139 97.6622 26.7681C97.5685 27.1222 97.4487 27.4868 97.3029 27.8618ZM104.99 31.2524C104.99 31.4399 104.98 31.6847 104.959 31.9868C104.949 32.2889 104.907 32.5858 104.834 32.8774C104.761 33.1587 104.647 33.4035 104.49 33.6118C104.334 33.8201 104.115 33.9243 103.834 33.9243C103.449 33.9243 103.152 33.7993 102.943 33.5493C102.735 33.2993 102.636 32.9868 102.647 32.6118C102.313 32.9035 101.933 33.1326 101.506 33.2993C101.089 33.466 100.662 33.5493 100.225 33.5493C99.9226 33.5493 99.6362 33.4764 99.3654 33.3306C99.0945 33.1847 98.8549 32.9972 98.6466 32.7681C98.4383 32.5389 98.2716 32.2837 98.1466 32.0024C98.0216 31.7108 97.9591 31.4243 97.9591 31.1431C97.9591 30.6431 98.1101 30.2056 98.4122 29.8306C98.7247 29.4556 99.1049 29.1379 99.5529 28.8774C100.001 28.6066 100.475 28.3931 100.975 28.2368C101.485 28.0806 101.938 27.9764 102.334 27.9243C102.334 27.8722 102.334 27.8254 102.334 27.7837C102.345 27.742 102.35 27.6951 102.35 27.6431C102.35 27.3201 102.261 27.0597 102.084 26.8618C101.907 26.6639 101.657 26.5649 101.334 26.5649C101.074 26.5649 100.85 26.6118 100.662 26.7056C100.475 26.7889 100.298 26.8879 100.131 27.0024C99.9643 27.1066 99.7976 27.2056 99.631 27.2993C99.4643 27.3826 99.2768 27.4243 99.0685 27.4243C98.8393 27.4243 98.6414 27.3514 98.4747 27.2056C98.3185 27.0597 98.2404 26.8722 98.2404 26.6431C98.2404 26.2993 98.3393 25.9868 98.5372 25.7056C98.7456 25.4243 99.0008 25.1899 99.3029 25.0024C99.6154 24.8045 99.9487 24.6535 100.303 24.5493C100.667 24.4347 101.001 24.3774 101.303 24.3774C101.584 24.3774 101.865 24.4139 102.147 24.4868C102.428 24.5493 102.693 24.6535 102.943 24.7993C103.193 24.9347 103.417 25.1066 103.615 25.3149C103.824 25.5129 103.99 25.7472 104.115 26.0181C104.303 26.4035 104.454 26.8149 104.568 27.2524C104.683 27.6795 104.772 28.1222 104.834 28.5806C104.897 29.0285 104.938 29.4816 104.959 29.9399C104.98 30.3879 104.99 30.8254 104.99 31.2524ZM102.49 30.7524L102.443 29.6899C102.423 29.6899 102.402 29.6899 102.381 29.6899C102.36 29.6795 102.339 29.6743 102.318 29.6743C102.183 29.6743 102.011 29.7108 101.803 29.7837C101.605 29.8462 101.412 29.9399 101.225 30.0649C101.037 30.1795 100.876 30.3097 100.74 30.4556C100.615 30.6014 100.553 30.7524 100.553 30.9087C100.553 31.0545 100.605 31.1535 100.709 31.2056C100.813 31.2576 100.933 31.2837 101.068 31.2837C101.298 31.2837 101.542 31.2264 101.803 31.1118C102.063 30.9868 102.292 30.867 102.49 30.7524ZM115.412 28.2993C115.412 28.4972 115.412 28.7681 115.412 29.1118C115.412 29.4451 115.402 29.8097 115.381 30.2056C115.371 30.6014 115.339 31.0024 115.287 31.4087C115.235 31.8045 115.152 32.1639 115.037 32.4868C114.933 32.8097 114.798 33.0754 114.631 33.2837C114.464 33.492 114.251 33.5962 113.99 33.5962C113.761 33.5962 113.584 33.5024 113.459 33.3149C113.345 33.117 113.261 32.8879 113.209 32.6274C113.157 32.367 113.126 32.1014 113.115 31.8306C113.115 31.5597 113.115 31.3462 113.115 31.1899C113.115 30.7212 113.131 30.2629 113.162 29.8149C113.193 29.367 113.209 28.9087 113.209 28.4399C113.209 28.3879 113.209 28.2941 113.209 28.1587C113.209 28.0233 113.199 27.8879 113.178 27.7524C113.157 27.617 113.121 27.4972 113.068 27.3931C113.027 27.2889 112.959 27.2368 112.865 27.2368C112.678 27.2368 112.527 27.3358 112.412 27.5337C112.298 27.7212 112.204 27.9451 112.131 28.2056C112.058 28.466 112.006 28.7264 111.975 28.9868C111.943 29.2368 111.923 29.4243 111.912 29.5493C111.891 29.6847 111.871 29.8879 111.85 30.1587C111.839 30.4295 111.818 30.7264 111.787 31.0493C111.766 31.3722 111.725 31.7056 111.662 32.0493C111.61 32.3826 111.537 32.6899 111.443 32.9712C111.36 33.242 111.251 33.466 111.115 33.6431C110.98 33.8201 110.813 33.9087 110.615 33.9087C110.365 33.9087 110.173 33.7993 110.037 33.5806C109.902 33.3618 109.803 33.1066 109.74 32.8149C109.678 32.5233 109.636 32.2264 109.615 31.9243C109.605 31.6222 109.6 31.3879 109.6 31.2212C109.6 31.0441 109.6 30.8722 109.6 30.7056C109.61 30.5389 109.615 30.367 109.615 30.1899C109.615 30.117 109.615 29.9972 109.615 29.8306C109.615 29.6639 109.61 29.4816 109.6 29.2837C109.6 29.0754 109.589 28.8618 109.568 28.6431C109.558 28.4243 109.537 28.2264 109.506 28.0493C109.475 27.8618 109.428 27.7108 109.365 27.5962C109.303 27.4816 109.23 27.4243 109.147 27.4243C109.011 27.4243 108.886 27.5129 108.772 27.6899C108.657 27.8566 108.558 28.0597 108.475 28.2993C108.391 28.5285 108.324 28.7576 108.272 28.9868C108.23 29.216 108.209 29.3826 108.209 29.4868V29.5806C108.209 30.0806 108.24 30.5701 108.303 31.0493C108.365 31.5285 108.397 32.0181 108.397 32.5181C108.397 32.8097 108.303 33.0806 108.115 33.3306C107.928 33.5701 107.667 33.6899 107.334 33.6899C107.095 33.6899 106.897 33.6014 106.74 33.4243C106.584 33.2368 106.454 32.9972 106.35 32.7056C106.246 32.4139 106.162 32.0962 106.1 31.7524C106.048 31.3983 106.011 31.0545 105.99 30.7212C105.97 30.3774 105.954 30.0701 105.943 29.7993C105.943 29.5181 105.943 29.3097 105.943 29.1743C105.943 29.0181 105.938 28.7889 105.928 28.4868C105.928 28.1847 105.933 27.8566 105.943 27.5024C105.964 27.1483 105.996 26.7889 106.037 26.4243C106.079 26.0493 106.147 25.7108 106.24 25.4087C106.334 25.1066 106.454 24.8618 106.6 24.6743C106.756 24.4764 106.954 24.3774 107.193 24.3774C107.464 24.3774 107.683 24.4504 107.85 24.5962C108.027 24.742 108.115 24.9608 108.115 25.2524C108.115 25.3149 108.11 25.3774 108.1 25.4399C108.1 25.5024 108.095 25.5597 108.084 25.6118C108.199 25.4451 108.339 25.2785 108.506 25.1118C108.673 24.9347 108.85 24.7785 109.037 24.6431C109.235 24.4972 109.443 24.3826 109.662 24.2993C109.881 24.2056 110.1 24.1587 110.318 24.1587C110.527 24.1587 110.714 24.216 110.881 24.3306C111.048 24.4451 111.193 24.591 111.318 24.7681C111.443 24.9347 111.548 25.117 111.631 25.3149C111.714 25.5129 111.772 25.7004 111.803 25.8774C111.907 25.6899 112.032 25.5024 112.178 25.3149C112.334 25.117 112.501 24.9451 112.678 24.7993C112.855 24.6535 113.048 24.5337 113.256 24.4399C113.475 24.3462 113.699 24.2993 113.928 24.2993C114.147 24.2993 114.334 24.3774 114.49 24.5337C114.647 24.6899 114.782 24.8931 114.897 25.1431C115.011 25.3826 115.1 25.6587 115.162 25.9712C115.225 26.2733 115.277 26.5754 115.318 26.8774C115.36 27.1691 115.386 27.4451 115.397 27.7056C115.407 27.9556 115.412 28.1535 115.412 28.2993ZM119.412 33.9087C118.881 33.9087 118.417 33.7681 118.022 33.4868C117.626 33.2056 117.292 32.8462 117.022 32.4087C116.751 31.9712 116.548 31.4868 116.412 30.9556C116.277 30.4139 116.209 29.8826 116.209 29.3618C116.209 28.8097 116.277 28.242 116.412 27.6587C116.548 27.0649 116.756 26.5285 117.037 26.0493C117.318 25.5597 117.678 25.1639 118.115 24.8618C118.553 24.5493 119.074 24.3931 119.678 24.3931C120.261 24.3931 120.756 24.5545 121.162 24.8774C121.579 25.1899 121.912 25.5858 122.162 26.0649C122.412 26.5337 122.589 27.0493 122.693 27.6118C122.798 28.1743 122.834 28.7056 122.803 29.2056C122.772 29.7576 122.683 30.3149 122.537 30.8774C122.402 31.4399 122.199 31.9451 121.928 32.3931C121.657 32.841 121.313 33.2056 120.897 33.4868C120.48 33.7681 119.985 33.9087 119.412 33.9087ZM119.568 26.8462C119.412 26.8462 119.272 26.9295 119.147 27.0962C119.032 27.2629 118.933 27.466 118.85 27.7056C118.777 27.9451 118.72 28.2004 118.678 28.4712C118.636 28.7316 118.615 28.9608 118.615 29.1587C118.615 29.4087 118.636 29.6795 118.678 29.9712C118.73 30.2629 118.798 30.5337 118.881 30.7837C118.964 31.0233 119.063 31.2264 119.178 31.3931C119.303 31.5493 119.443 31.6274 119.6 31.6274C119.766 31.6274 119.907 31.5493 120.022 31.3931C120.147 31.2368 120.246 31.0389 120.318 30.7993C120.391 30.5597 120.443 30.2993 120.475 30.0181C120.506 29.7264 120.522 29.4556 120.522 29.2056C120.522 28.9764 120.501 28.7264 120.459 28.4556C120.417 28.1743 120.355 27.9139 120.272 27.6743C120.199 27.4347 120.1 27.2368 119.975 27.0806C119.86 26.9243 119.725 26.8462 119.568 26.8462ZM128.178 24.8618C128.178 25.1639 128.074 25.3879 127.865 25.5337C127.667 25.6795 127.443 25.8201 127.193 25.9556C126.943 26.0806 126.714 26.2316 126.506 26.4087C126.308 26.5858 126.209 26.8514 126.209 27.2056C126.209 27.3931 126.251 27.5545 126.334 27.6899C126.428 27.8254 126.537 27.9504 126.662 28.0649C126.798 28.1691 126.943 28.2785 127.1 28.3931C127.256 28.5076 127.397 28.6379 127.522 28.7837C127.657 28.9295 127.766 29.1066 127.85 29.3149C127.943 29.5233 127.99 29.7785 127.99 30.0806C127.99 30.5181 127.876 30.9504 127.647 31.3774C127.428 31.7941 127.141 32.1691 126.787 32.5024C126.443 32.8254 126.053 33.0858 125.615 33.2837C125.178 33.4816 124.746 33.5806 124.318 33.5806C124.141 33.5806 123.964 33.5649 123.787 33.5337C123.61 33.5129 123.449 33.466 123.303 33.3931C123.167 33.3201 123.053 33.2212 122.959 33.0962C122.865 32.9608 122.818 32.7889 122.818 32.5806C122.818 32.2889 122.876 32.0649 122.99 31.9087C123.105 31.742 123.251 31.6118 123.428 31.5181C123.605 31.4243 123.792 31.3514 123.99 31.2993C124.199 31.2472 124.391 31.1847 124.568 31.1118C124.746 31.0285 124.891 30.9243 125.006 30.7993C125.121 30.6743 125.178 30.4972 125.178 30.2681C125.178 30.0493 125.089 29.8254 124.912 29.5962C124.746 29.3566 124.558 29.1066 124.35 28.8462C124.141 28.5754 123.949 28.2889 123.772 27.9868C123.605 27.6847 123.522 27.3514 123.522 26.9868C123.522 26.5389 123.61 26.1274 123.787 25.7524C123.975 25.367 124.22 25.0337 124.522 24.7524C124.834 24.4712 125.188 24.2524 125.584 24.0962C125.98 23.9295 126.397 23.8462 126.834 23.8462C127.001 23.8462 127.162 23.8618 127.318 23.8931C127.485 23.9243 127.631 23.9816 127.756 24.0649C127.881 24.1379 127.98 24.242 128.053 24.3774C128.136 24.5024 128.178 24.6639 128.178 24.8618ZM139.303 23.1743C139.303 23.9347 139.272 24.6899 139.209 25.4399C139.157 26.1899 139.131 26.9451 139.131 27.7056C139.131 28.3201 139.147 28.9295 139.178 29.5337C139.22 30.1379 139.24 30.7472 139.24 31.3618C139.24 31.5285 139.235 31.7316 139.225 31.9712C139.214 32.2004 139.178 32.4243 139.115 32.6431C139.063 32.8618 138.97 33.0493 138.834 33.2056C138.709 33.3618 138.527 33.4399 138.287 33.4399C137.975 33.4399 137.714 33.3254 137.506 33.0962C137.308 32.8566 137.183 32.591 137.131 32.2993C136.933 32.6743 136.647 32.992 136.272 33.2524C135.897 33.5129 135.49 33.6431 135.053 33.6431C134.584 33.6431 134.178 33.4816 133.834 33.1587C133.501 32.8358 133.22 32.4451 132.99 31.9868C132.772 31.5285 132.605 31.0493 132.49 30.5493C132.386 30.0493 132.334 29.617 132.334 29.2524C132.334 28.992 132.35 28.6951 132.381 28.3618C132.412 28.0285 132.464 27.6899 132.537 27.3462C132.621 27.0024 132.725 26.6691 132.85 26.3462C132.975 26.0129 133.131 25.716 133.318 25.4556C133.516 25.1951 133.746 24.9868 134.006 24.8306C134.277 24.6743 134.584 24.5962 134.928 24.5962C135.303 24.5962 135.662 24.7056 136.006 24.9243C136.35 25.1431 136.61 25.4139 136.787 25.7368L136.928 23.2524C136.938 23.0545 136.954 22.8254 136.975 22.5649C136.996 22.2941 137.037 22.0389 137.1 21.7993C137.173 21.5597 137.282 21.3566 137.428 21.1899C137.574 21.0233 137.787 20.9399 138.068 20.9399C138.371 20.9399 138.605 21.0129 138.772 21.1587C138.938 21.3045 139.058 21.492 139.131 21.7212C139.214 21.9399 139.261 22.1795 139.272 22.4399C139.292 22.7004 139.303 22.9451 139.303 23.1743ZM136.756 30.1118C136.756 29.8722 136.751 29.6379 136.74 29.4087C136.73 29.1795 136.73 28.9451 136.74 28.7056C136.678 28.5701 136.605 28.4243 136.522 28.2681C136.438 28.1014 136.334 27.9504 136.209 27.8149C136.095 27.6691 135.964 27.5493 135.818 27.4556C135.673 27.3618 135.516 27.3149 135.35 27.3149C135.162 27.3149 135.011 27.3722 134.897 27.4868C134.782 27.6014 134.699 27.742 134.647 27.9087C134.595 28.0649 134.558 28.2368 134.537 28.4243C134.527 28.6118 134.522 28.7733 134.522 28.9087C134.522 29.0337 134.532 29.2212 134.553 29.4712C134.574 29.7108 134.61 29.9556 134.662 30.2056C134.725 30.4556 134.808 30.6743 134.912 30.8618C135.016 31.0493 135.157 31.1431 135.334 31.1431C135.47 31.1431 135.605 31.117 135.74 31.0649C135.876 31.0024 136.001 30.9295 136.115 30.8462C136.24 30.7524 136.355 30.6535 136.459 30.5493C136.574 30.4347 136.673 30.3306 136.756 30.2368V30.1118ZM146.881 30.6743C146.881 31.0285 146.766 31.3774 146.537 31.7212C146.318 32.0545 146.037 32.3566 145.693 32.6274C145.36 32.8879 145.001 33.1014 144.615 33.2681C144.23 33.4243 143.876 33.5024 143.553 33.5024C143.001 33.5024 142.506 33.367 142.068 33.0962C141.641 32.8149 141.282 32.4608 140.99 32.0337C140.699 31.6066 140.475 31.1379 140.318 30.6274C140.173 30.1066 140.1 29.6014 140.1 29.1118C140.1 28.591 140.173 28.0337 140.318 27.4399C140.464 26.8462 140.683 26.2993 140.975 25.7993C141.277 25.2993 141.652 24.8826 142.1 24.5493C142.558 24.216 143.1 24.0493 143.725 24.0493C144.079 24.0493 144.417 24.1118 144.74 24.2368C145.063 24.3514 145.345 24.5181 145.584 24.7368C145.824 24.9556 146.016 25.216 146.162 25.5181C146.308 25.8201 146.381 26.1587 146.381 26.5337C146.381 27.0233 146.277 27.4816 146.068 27.9087C145.86 28.3358 145.584 28.7056 145.24 29.0181C144.897 29.3306 144.501 29.5858 144.053 29.7837C143.605 29.9712 143.147 30.0754 142.678 30.0962C142.72 30.3983 142.839 30.617 143.037 30.7524C143.246 30.8879 143.49 30.9556 143.772 30.9556C143.98 30.9556 144.183 30.9035 144.381 30.7993C144.579 30.6951 144.772 30.5806 144.959 30.4556C145.147 30.3201 145.329 30.2004 145.506 30.0962C145.693 29.992 145.881 29.9399 146.068 29.9399C146.277 29.9399 146.464 30.0076 146.631 30.1431C146.798 30.2785 146.881 30.4556 146.881 30.6743ZM144.35 26.8462C144.35 26.7108 144.313 26.5701 144.24 26.4243C144.167 26.2785 144.053 26.2056 143.897 26.2056C143.667 26.2056 143.475 26.2681 143.318 26.3931C143.162 26.5076 143.032 26.6587 142.928 26.8462C142.824 27.0233 142.74 27.216 142.678 27.4243C142.626 27.6326 142.595 27.8254 142.584 28.0024C142.73 27.9712 142.902 27.9295 143.1 27.8774C143.308 27.8254 143.501 27.7576 143.678 27.6743C143.865 27.5806 144.022 27.466 144.147 27.3306C144.282 27.1951 144.35 27.0337 144.35 26.8462ZM152.928 27.6118C152.782 27.6222 152.657 27.6118 152.553 27.5806C152.449 27.5389 152.345 27.4972 152.24 27.4556C152.147 27.4139 152.053 27.3774 151.959 27.3462C151.865 27.3045 151.761 27.2889 151.647 27.2993C151.438 27.3097 151.251 27.367 151.084 27.4712C150.928 27.5754 150.782 27.7056 150.647 27.8618C150.522 28.0181 150.412 28.1951 150.318 28.3931C150.225 28.5806 150.152 28.7681 150.1 28.9556C150.068 29.0806 150.042 29.2733 150.022 29.5337C150.011 29.7837 150.006 30.0545 150.006 30.3462C149.996 30.6483 149.99 30.9347 149.99 31.2056C149.99 31.4764 149.98 31.6899 149.959 31.8462C149.949 32.0129 149.923 32.2108 149.881 32.4399C149.839 32.6587 149.772 32.867 149.678 33.0649C149.595 33.2629 149.48 33.4295 149.334 33.5649C149.188 33.7004 149.001 33.7681 148.772 33.7681C148.595 33.7681 148.438 33.716 148.303 33.6118C148.178 33.5076 148.068 33.3722 147.975 33.2056C147.891 33.0285 147.818 32.8254 147.756 32.5962C147.704 32.367 147.662 32.1326 147.631 31.8931C147.6 31.6431 147.574 31.3931 147.553 31.1431C147.542 30.8931 147.532 30.6587 147.522 30.4399C147.522 30.2108 147.522 30.0024 147.522 29.8149C147.532 29.6274 147.537 29.4764 147.537 29.3618C147.527 28.9972 147.506 28.6326 147.475 28.2681C147.454 27.8931 147.443 27.5233 147.443 27.1587C147.443 26.9295 147.454 26.6743 147.475 26.3931C147.496 26.1118 147.553 25.8514 147.647 25.6118C147.74 25.3618 147.876 25.1535 148.053 24.9868C148.24 24.8201 148.496 24.7368 148.818 24.7368C148.996 24.7368 149.147 24.7941 149.272 24.9087C149.397 25.0233 149.496 25.1639 149.568 25.3306C149.652 25.4972 149.714 25.6743 149.756 25.8618C149.798 26.0493 149.824 26.2212 149.834 26.3774C150.084 25.9712 150.365 25.6431 150.678 25.3931C150.99 25.1326 151.397 24.992 151.897 24.9712C152.147 24.9608 152.391 24.9868 152.631 25.0493C152.881 25.1014 153.105 25.1951 153.303 25.3306C153.511 25.4556 153.678 25.6222 153.803 25.8306C153.938 26.0389 154.011 26.2837 154.022 26.5649C154.042 26.8983 153.943 27.1535 153.725 27.3306C153.506 27.5076 153.24 27.6014 152.928 27.6118ZM159.678 27.6118C159.532 27.6222 159.407 27.6118 159.303 27.5806C159.199 27.5389 159.095 27.4972 158.99 27.4556C158.897 27.4139 158.803 27.3774 158.709 27.3462C158.615 27.3045 158.511 27.2889 158.397 27.2993C158.188 27.3097 158.001 27.367 157.834 27.4712C157.678 27.5754 157.532 27.7056 157.397 27.8618C157.272 28.0181 157.162 28.1951 157.068 28.3931C156.975 28.5806 156.902 28.7681 156.85 28.9556C156.818 29.0806 156.792 29.2733 156.772 29.5337C156.761 29.7837 156.756 30.0545 156.756 30.3462C156.746 30.6483 156.74 30.9347 156.74 31.2056C156.74 31.4764 156.73 31.6899 156.709 31.8462C156.699 32.0129 156.673 32.2108 156.631 32.4399C156.589 32.6587 156.522 32.867 156.428 33.0649C156.345 33.2629 156.23 33.4295 156.084 33.5649C155.938 33.7004 155.751 33.7681 155.522 33.7681C155.345 33.7681 155.188 33.716 155.053 33.6118C154.928 33.5076 154.818 33.3722 154.725 33.2056C154.641 33.0285 154.568 32.8254 154.506 32.5962C154.454 32.367 154.412 32.1326 154.381 31.8931C154.35 31.6431 154.324 31.3931 154.303 31.1431C154.292 30.8931 154.282 30.6587 154.272 30.4399C154.272 30.2108 154.272 30.0024 154.272 29.8149C154.282 29.6274 154.287 29.4764 154.287 29.3618C154.277 28.9972 154.256 28.6326 154.225 28.2681C154.204 27.8931 154.193 27.5233 154.193 27.1587C154.193 26.9295 154.204 26.6743 154.225 26.3931C154.246 26.1118 154.303 25.8514 154.397 25.6118C154.49 25.3618 154.626 25.1535 154.803 24.9868C154.99 24.8201 155.246 24.7368 155.568 24.7368C155.746 24.7368 155.897 24.7941 156.022 24.9087C156.147 25.0233 156.246 25.1639 156.318 25.3306C156.402 25.4972 156.464 25.6743 156.506 25.8618C156.548 26.0493 156.574 26.2212 156.584 26.3774C156.834 25.9712 157.115 25.6431 157.428 25.3931C157.74 25.1326 158.147 24.992 158.647 24.9712C158.897 24.9608 159.141 24.9868 159.381 25.0493C159.631 25.1014 159.855 25.1951 160.053 25.3306C160.261 25.4556 160.428 25.6222 160.553 25.8306C160.688 26.0389 160.761 26.2837 160.772 26.5649C160.792 26.8983 160.693 27.1535 160.475 27.3306C160.256 27.5076 159.99 27.6014 159.678 27.6118ZM163.975 33.9087C163.443 33.9087 162.98 33.7681 162.584 33.4868C162.188 33.2056 161.855 32.8462 161.584 32.4087C161.313 31.9712 161.11 31.4868 160.975 30.9556C160.839 30.4139 160.772 29.8826 160.772 29.3618C160.772 28.8097 160.839 28.242 160.975 27.6587C161.11 27.0649 161.318 26.5285 161.6 26.0493C161.881 25.5597 162.24 25.1639 162.678 24.8618C163.115 24.5493 163.636 24.3931 164.24 24.3931C164.824 24.3931 165.318 24.5545 165.725 24.8774C166.141 25.1899 166.475 25.5858 166.725 26.0649C166.975 26.5337 167.152 27.0493 167.256 27.6118C167.36 28.1743 167.397 28.7056 167.365 29.2056C167.334 29.7576 167.246 30.3149 167.1 30.8774C166.964 31.4399 166.761 31.9451 166.49 32.3931C166.22 32.841 165.876 33.2056 165.459 33.4868C165.042 33.7681 164.548 33.9087 163.975 33.9087ZM164.131 26.8462C163.975 26.8462 163.834 26.9295 163.709 27.0962C163.595 27.2629 163.496 27.466 163.412 27.7056C163.339 27.9451 163.282 28.2004 163.24 28.4712C163.199 28.7316 163.178 28.9608 163.178 29.1587C163.178 29.4087 163.199 29.6795 163.24 29.9712C163.292 30.2629 163.36 30.5337 163.443 30.7837C163.527 31.0233 163.626 31.2264 163.74 31.3931C163.865 31.5493 164.006 31.6274 164.162 31.6274C164.329 31.6274 164.47 31.5493 164.584 31.3931C164.709 31.2368 164.808 31.0389 164.881 30.7993C164.954 30.5597 165.006 30.2993 165.037 30.0181C165.068 29.7264 165.084 29.4556 165.084 29.2056C165.084 28.9764 165.063 28.7264 165.022 28.4556C164.98 28.1743 164.917 27.9139 164.834 27.6743C164.761 27.4347 164.662 27.2368 164.537 27.0806C164.423 26.9243 164.287 26.8462 164.131 26.8462ZM171.803 34.0181C171.063 34.0181 170.485 33.9191 170.068 33.7212C169.662 33.5337 169.355 33.2629 169.147 32.9087C168.949 32.5545 168.829 32.1274 168.787 31.6274C168.746 31.1274 168.725 30.5701 168.725 29.9556C168.725 29.466 168.74 28.9764 168.772 28.4868C168.803 27.9868 168.85 27.4556 168.912 26.8931C168.766 26.8931 168.652 26.8983 168.568 26.9087C168.485 26.9087 168.417 26.9087 168.365 26.9087C168.032 26.9087 167.746 26.8358 167.506 26.6899C167.256 26.5441 167.131 26.3201 167.131 26.0181C167.131 25.8306 167.204 25.6639 167.35 25.5181C167.485 25.3722 167.662 25.2472 167.881 25.1431C168.1 25.0389 168.334 24.9556 168.584 24.8931C168.845 24.8306 169.089 24.7889 169.318 24.7681C169.318 24.4764 169.339 24.1535 169.381 23.7993C169.423 23.4451 169.496 23.117 169.6 22.8149C169.714 22.5024 169.865 22.242 170.053 22.0337C170.24 21.8254 170.48 21.7212 170.772 21.7212C170.938 21.7212 171.084 21.7733 171.209 21.8774C171.345 21.9712 171.454 22.0962 171.537 22.2524C171.621 22.3983 171.683 22.5649 171.725 22.7524C171.766 22.9399 171.787 23.1222 171.787 23.2993C171.787 23.5076 171.772 23.7212 171.74 23.9399C171.709 24.1587 171.652 24.4295 171.568 24.7524C171.746 24.7316 171.865 24.7212 171.928 24.7212C171.99 24.7108 172.048 24.7056 172.1 24.7056C172.277 24.7056 172.459 24.7212 172.647 24.7524C172.845 24.7837 173.022 24.8358 173.178 24.9087C173.345 24.9816 173.48 25.0806 173.584 25.2056C173.688 25.3201 173.74 25.4608 173.74 25.6274C173.74 25.8149 173.662 25.9816 173.506 26.1274C173.36 26.2733 173.173 26.3983 172.943 26.5024C172.714 26.6066 172.47 26.6899 172.209 26.7524C171.949 26.8045 171.704 26.841 171.475 26.8618C171.412 27.2889 171.365 27.6847 171.334 28.0493C171.313 28.4035 171.287 28.7629 171.256 29.1274C171.235 29.3045 171.214 29.4868 171.193 29.6743C171.183 29.8514 171.178 30.0337 171.178 30.2212C171.178 30.3566 171.183 30.5181 171.193 30.7056C171.204 30.8826 171.24 31.0545 171.303 31.2212C171.365 31.3879 171.464 31.5337 171.6 31.6587C171.735 31.7733 171.923 31.8306 172.162 31.8306C172.308 31.8306 172.459 31.8201 172.615 31.7993C172.772 31.7681 172.928 31.7524 173.084 31.7524C173.355 31.7524 173.548 31.8462 173.662 32.0337C173.787 32.2212 173.85 32.4608 173.85 32.7524C173.85 32.9712 173.782 33.1639 173.647 33.3306C173.522 33.4868 173.36 33.6118 173.162 33.7056C172.964 33.8097 172.74 33.8879 172.49 33.9399C172.251 33.992 172.022 34.0181 171.803 34.0181ZM180.803 31.2524C180.803 31.4399 180.792 31.6847 180.772 31.9868C180.761 32.2889 180.72 32.5858 180.647 32.8774C180.574 33.1587 180.459 33.4035 180.303 33.6118C180.147 33.8201 179.928 33.9243 179.647 33.9243C179.261 33.9243 178.964 33.7993 178.756 33.5493C178.548 33.2993 178.449 32.9868 178.459 32.6118C178.126 32.9035 177.746 33.1326 177.318 33.2993C176.902 33.466 176.475 33.5493 176.037 33.5493C175.735 33.5493 175.449 33.4764 175.178 33.3306C174.907 33.1847 174.667 32.9972 174.459 32.7681C174.251 32.5389 174.084 32.2837 173.959 32.0024C173.834 31.7108 173.772 31.4243 173.772 31.1431C173.772 30.6431 173.923 30.2056 174.225 29.8306C174.537 29.4556 174.917 29.1379 175.365 28.8774C175.813 28.6066 176.287 28.3931 176.787 28.2368C177.298 28.0806 177.751 27.9764 178.147 27.9243C178.147 27.8722 178.147 27.8254 178.147 27.7837C178.157 27.742 178.162 27.6951 178.162 27.6431C178.162 27.3201 178.074 27.0597 177.897 26.8618C177.72 26.6639 177.47 26.5649 177.147 26.5649C176.886 26.5649 176.662 26.6118 176.475 26.7056C176.287 26.7889 176.11 26.8879 175.943 27.0024C175.777 27.1066 175.61 27.2056 175.443 27.2993C175.277 27.3826 175.089 27.4243 174.881 27.4243C174.652 27.4243 174.454 27.3514 174.287 27.2056C174.131 27.0597 174.053 26.8722 174.053 26.6431C174.053 26.2993 174.152 25.9868 174.35 25.7056C174.558 25.4243 174.813 25.1899 175.115 25.0024C175.428 24.8045 175.761 24.6535 176.115 24.5493C176.48 24.4347 176.813 24.3774 177.115 24.3774C177.397 24.3774 177.678 24.4139 177.959 24.4868C178.24 24.5493 178.506 24.6535 178.756 24.7993C179.006 24.9347 179.23 25.1066 179.428 25.3149C179.636 25.5129 179.803 25.7472 179.928 26.0181C180.115 26.4035 180.266 26.8149 180.381 27.2524C180.496 27.6795 180.584 28.1222 180.647 28.5806C180.709 29.0285 180.751 29.4816 180.772 29.9399C180.792 30.3879 180.803 30.8254 180.803 31.2524ZM178.303 30.7524L178.256 29.6899C178.235 29.6899 178.214 29.6899 178.193 29.6899C178.173 29.6795 178.152 29.6743 178.131 29.6743C177.996 29.6743 177.824 29.7108 177.615 29.7837C177.417 29.8462 177.225 29.9399 177.037 30.0649C176.85 30.1795 176.688 30.3097 176.553 30.4556C176.428 30.6014 176.365 30.7524 176.365 30.9087C176.365 31.0545 176.417 31.1535 176.522 31.2056C176.626 31.2576 176.746 31.2837 176.881 31.2837C177.11 31.2837 177.355 31.2264 177.615 31.1118C177.876 30.9868 178.105 30.867 178.303 30.7524ZM187.162 27.6118C187.016 27.6222 186.891 27.6118 186.787 27.5806C186.683 27.5389 186.579 27.4972 186.475 27.4556C186.381 27.4139 186.287 27.3774 186.193 27.3462C186.1 27.3045 185.996 27.2889 185.881 27.2993C185.673 27.3097 185.485 27.367 185.318 27.4712C185.162 27.5754 185.016 27.7056 184.881 27.8618C184.756 28.0181 184.647 28.1951 184.553 28.3931C184.459 28.5806 184.386 28.7681 184.334 28.9556C184.303 29.0806 184.277 29.2733 184.256 29.5337C184.246 29.7837 184.24 30.0545 184.24 30.3462C184.23 30.6483 184.225 30.9347 184.225 31.2056C184.225 31.4764 184.214 31.6899 184.193 31.8462C184.183 32.0129 184.157 32.2108 184.115 32.4399C184.074 32.6587 184.006 32.867 183.912 33.0649C183.829 33.2629 183.714 33.4295 183.568 33.5649C183.423 33.7004 183.235 33.7681 183.006 33.7681C182.829 33.7681 182.673 33.716 182.537 33.6118C182.412 33.5076 182.303 33.3722 182.209 33.2056C182.126 33.0285 182.053 32.8254 181.99 32.5962C181.938 32.367 181.897 32.1326 181.865 31.8931C181.834 31.6431 181.808 31.3931 181.787 31.1431C181.777 30.8931 181.766 30.6587 181.756 30.4399C181.756 30.2108 181.756 30.0024 181.756 29.8149C181.766 29.6274 181.772 29.4764 181.772 29.3618C181.761 28.9972 181.74 28.6326 181.709 28.2681C181.688 27.8931 181.678 27.5233 181.678 27.1587C181.678 26.9295 181.688 26.6743 181.709 26.3931C181.73 26.1118 181.787 25.8514 181.881 25.6118C181.975 25.3618 182.11 25.1535 182.287 24.9868C182.475 24.8201 182.73 24.7368 183.053 24.7368C183.23 24.7368 183.381 24.7941 183.506 24.9087C183.631 25.0233 183.73 25.1639 183.803 25.3306C183.886 25.4972 183.949 25.6743 183.99 25.8618C184.032 26.0493 184.058 26.2212 184.068 26.3774C184.318 25.9712 184.6 25.6431 184.912 25.3931C185.225 25.1326 185.631 24.992 186.131 24.9712C186.381 24.9608 186.626 24.9868 186.865 25.0493C187.115 25.1014 187.339 25.1951 187.537 25.3306C187.746 25.4556 187.912 25.6222 188.037 25.8306C188.173 26.0389 188.246 26.2837 188.256 26.5649C188.277 26.8983 188.178 27.1535 187.959 27.3306C187.74 27.5076 187.475 27.6014 187.162 27.6118ZM195.225 33.9087C194.693 33.9087 194.23 33.7681 193.834 33.4868C193.438 33.2056 193.105 32.8462 192.834 32.4087C192.563 31.9712 192.36 31.4868 192.225 30.9556C192.089 30.4139 192.022 29.8826 192.022 29.3618C192.022 28.8097 192.089 28.242 192.225 27.6587C192.36 27.0649 192.568 26.5285 192.85 26.0493C193.131 25.5597 193.49 25.1639 193.928 24.8618C194.365 24.5493 194.886 24.3931 195.49 24.3931C196.074 24.3931 196.568 24.5545 196.975 24.8774C197.391 25.1899 197.725 25.5858 197.975 26.0649C198.225 26.5337 198.402 27.0493 198.506 27.6118C198.61 28.1743 198.647 28.7056 198.615 29.2056C198.584 29.7576 198.496 30.3149 198.35 30.8774C198.214 31.4399 198.011 31.9451 197.74 32.3931C197.47 32.841 197.126 33.2056 196.709 33.4868C196.292 33.7681 195.798 33.9087 195.225 33.9087ZM195.381 26.8462C195.225 26.8462 195.084 26.9295 194.959 27.0962C194.845 27.2629 194.746 27.466 194.662 27.7056C194.589 27.9451 194.532 28.2004 194.49 28.4712C194.449 28.7316 194.428 28.9608 194.428 29.1587C194.428 29.4087 194.449 29.6795 194.49 29.9712C194.542 30.2629 194.61 30.5337 194.693 30.7837C194.777 31.0233 194.876 31.2264 194.99 31.3931C195.115 31.5493 195.256 31.6274 195.412 31.6274C195.579 31.6274 195.72 31.5493 195.834 31.3931C195.959 31.2368 196.058 31.0389 196.131 30.7993C196.204 30.5597 196.256 30.2993 196.287 30.0181C196.318 29.7264 196.334 29.4556 196.334 29.2056C196.334 28.9764 196.313 28.7264 196.272 28.4556C196.23 28.1743 196.167 27.9139 196.084 27.6743C196.011 27.4347 195.912 27.2368 195.787 27.0806C195.673 26.9243 195.537 26.8462 195.381 26.8462ZM210.803 25.2368C210.803 25.9556 210.636 26.6014 210.303 27.1743C209.97 27.7472 209.527 28.2524 208.975 28.6899C209.141 28.9399 209.313 29.2316 209.49 29.5649C209.667 29.8983 209.824 30.2524 209.959 30.6274C210.105 30.992 210.22 31.3618 210.303 31.7368C210.397 32.1014 210.443 32.4399 210.443 32.7524C210.443 33.0858 210.36 33.3826 210.193 33.6431C210.037 33.9139 209.766 34.0493 209.381 34.0493C209.058 34.0493 208.777 33.8931 208.537 33.5806C208.308 33.2681 208.1 32.8983 207.912 32.4712C207.735 32.0337 207.568 31.591 207.412 31.1431C207.266 30.6951 207.126 30.3358 206.99 30.0649C206.803 30.1274 206.621 30.2004 206.443 30.2837C206.266 30.3566 206.084 30.4295 205.897 30.5024C205.886 30.7316 205.865 31.0493 205.834 31.4556C205.813 31.8514 205.756 32.2472 205.662 32.6431C205.579 33.0389 205.449 33.3826 205.272 33.6743C205.095 33.966 204.85 34.1118 204.537 34.1118C204.193 34.1118 203.928 33.9712 203.74 33.6899C203.553 33.4087 203.417 33.0754 203.334 32.6899C203.261 32.3045 203.22 31.9139 203.209 31.5181C203.199 31.1118 203.193 30.7941 203.193 30.5649C203.193 30.0754 203.204 29.5962 203.225 29.1274C203.246 28.6483 203.256 28.1639 203.256 27.6743C203.256 27.2264 203.246 26.7785 203.225 26.3306C203.214 25.8826 203.209 25.4295 203.209 24.9712C203.209 24.867 203.209 24.7368 203.209 24.5806C203.209 24.4139 203.214 24.2472 203.225 24.0806C203.246 23.9035 203.266 23.7368 203.287 23.5806C203.308 23.4243 203.345 23.2993 203.397 23.2056C203.501 22.9868 203.735 22.7785 204.1 22.5806C204.475 22.3826 204.881 22.2108 205.318 22.0649C205.766 21.9087 206.199 21.7889 206.615 21.7056C207.042 21.6118 207.36 21.5649 207.568 21.5649C208.1 21.5649 208.568 21.6639 208.975 21.8618C209.381 22.0597 209.72 22.3306 209.99 22.6743C210.261 23.0076 210.464 23.3983 210.6 23.8462C210.735 24.2837 210.803 24.7472 210.803 25.2368ZM207.912 25.4556C207.912 25.1847 207.85 24.9816 207.725 24.8462C207.6 24.7004 207.397 24.6274 207.115 24.6274C206.907 24.6274 206.693 24.6639 206.475 24.7368C206.266 24.8097 206.074 24.8931 205.897 24.9868C205.938 25.8097 205.954 26.6274 205.943 27.4399C206.162 27.367 206.386 27.2733 206.615 27.1587C206.845 27.0441 207.053 26.9035 207.24 26.7368C207.438 26.5701 207.6 26.3826 207.725 26.1743C207.85 25.966 207.912 25.7264 207.912 25.4556ZM217.897 30.6743C217.897 31.0285 217.782 31.3774 217.553 31.7212C217.334 32.0545 217.053 32.3566 216.709 32.6274C216.376 32.8879 216.016 33.1014 215.631 33.2681C215.246 33.4243 214.891 33.5024 214.568 33.5024C214.016 33.5024 213.522 33.367 213.084 33.0962C212.657 32.8149 212.298 32.4608 212.006 32.0337C211.714 31.6066 211.49 31.1379 211.334 30.6274C211.188 30.1066 211.115 29.6014 211.115 29.1118C211.115 28.591 211.188 28.0337 211.334 27.4399C211.48 26.8462 211.699 26.2993 211.99 25.7993C212.292 25.2993 212.667 24.8826 213.115 24.5493C213.574 24.216 214.115 24.0493 214.74 24.0493C215.095 24.0493 215.433 24.1118 215.756 24.2368C216.079 24.3514 216.36 24.5181 216.6 24.7368C216.839 24.9556 217.032 25.216 217.178 25.5181C217.324 25.8201 217.397 26.1587 217.397 26.5337C217.397 27.0233 217.292 27.4816 217.084 27.9087C216.876 28.3358 216.6 28.7056 216.256 29.0181C215.912 29.3306 215.516 29.5858 215.068 29.7837C214.621 29.9712 214.162 30.0754 213.693 30.0962C213.735 30.3983 213.855 30.617 214.053 30.7524C214.261 30.8879 214.506 30.9556 214.787 30.9556C214.996 30.9556 215.199 30.9035 215.397 30.7993C215.595 30.6951 215.787 30.5806 215.975 30.4556C216.162 30.3201 216.345 30.2004 216.522 30.0962C216.709 29.992 216.897 29.9399 217.084 29.9399C217.292 29.9399 217.48 30.0076 217.647 30.1431C217.813 30.2785 217.897 30.4556 217.897 30.6743ZM215.365 26.8462C215.365 26.7108 215.329 26.5701 215.256 26.4243C215.183 26.2785 215.068 26.2056 214.912 26.2056C214.683 26.2056 214.49 26.2681 214.334 26.3931C214.178 26.5076 214.048 26.6587 213.943 26.8462C213.839 27.0233 213.756 27.216 213.693 27.4243C213.641 27.6326 213.61 27.8254 213.6 28.0024C213.746 27.9712 213.917 27.9295 214.115 27.8774C214.324 27.8254 214.516 27.7576 214.693 27.6743C214.881 27.5806 215.037 27.466 215.162 27.3306C215.298 27.1951 215.365 27.0337 215.365 26.8462ZM221.1 22.5493C221.1 22.6951 221.058 22.8254 220.975 22.9399C220.902 23.0545 220.803 23.1587 220.678 23.2524C220.553 23.3358 220.417 23.4035 220.272 23.4556C220.126 23.4972 219.99 23.5181 219.865 23.5181C219.657 23.5181 219.475 23.466 219.318 23.3618C219.162 23.2576 219.084 23.0962 219.084 22.8774C219.084 22.7212 219.121 22.5858 219.193 22.4712C219.277 22.3462 219.376 22.2472 219.49 22.1743C219.605 22.091 219.735 22.0285 219.881 21.9868C220.027 21.9451 220.167 21.9243 220.303 21.9243C220.501 21.9243 220.683 21.9712 220.85 22.0649C221.016 22.1587 221.1 22.3201 221.1 22.5493ZM221.225 27.8618C221.225 28.0076 221.225 28.1639 221.225 28.3306C221.225 28.4868 221.22 28.6379 221.209 28.7837C221.199 28.9608 221.193 29.2004 221.193 29.5024C221.193 29.7941 221.183 30.1118 221.162 30.4556C221.141 30.7993 221.105 31.1483 221.053 31.5024C221.011 31.8566 220.938 32.1795 220.834 32.4712C220.73 32.7629 220.589 33.0024 220.412 33.1899C220.246 33.367 220.032 33.4608 219.772 33.4712C219.574 33.4816 219.407 33.4035 219.272 33.2368C219.136 33.0701 219.022 32.8566 218.928 32.5962C218.845 32.3254 218.782 32.0285 218.74 31.7056C218.699 31.3722 218.667 31.0545 218.647 30.7524C218.626 30.4399 218.615 30.1535 218.615 29.8931C218.615 29.6326 218.615 29.4399 218.615 29.3149C218.615 29.1483 218.615 28.9139 218.615 28.6118C218.615 28.2993 218.626 27.966 218.647 27.6118C218.667 27.2576 218.704 26.8983 218.756 26.5337C218.818 26.1691 218.902 25.8358 219.006 25.5337C219.121 25.2316 219.266 24.9868 219.443 24.7993C219.621 24.6118 219.845 24.5181 220.115 24.5181C220.397 24.5181 220.61 24.6587 220.756 24.9399C220.902 25.2212 221.011 25.5493 221.084 25.9243C221.157 26.2993 221.199 26.6743 221.209 27.0493C221.22 27.4139 221.225 27.6847 221.225 27.8618ZM232.834 23.1743C232.834 23.9347 232.803 24.6899 232.74 25.4399C232.688 26.1899 232.662 26.9451 232.662 27.7056C232.662 28.3201 232.678 28.9295 232.709 29.5337C232.751 30.1379 232.772 30.7472 232.772 31.3618C232.772 31.5285 232.766 31.7316 232.756 31.9712C232.746 32.2004 232.709 32.4243 232.647 32.6431C232.595 32.8618 232.501 33.0493 232.365 33.2056C232.24 33.3618 232.058 33.4399 231.818 33.4399C231.506 33.4399 231.246 33.3254 231.037 33.0962C230.839 32.8566 230.714 32.591 230.662 32.2993C230.464 32.6743 230.178 32.992 229.803 33.2524C229.428 33.5129 229.022 33.6431 228.584 33.6431C228.115 33.6431 227.709 33.4816 227.365 33.1587C227.032 32.8358 226.751 32.4451 226.522 31.9868C226.303 31.5285 226.136 31.0493 226.022 30.5493C225.917 30.0493 225.865 29.617 225.865 29.2524C225.865 28.992 225.881 28.6951 225.912 28.3618C225.943 28.0285 225.996 27.6899 226.068 27.3462C226.152 27.0024 226.256 26.6691 226.381 26.3462C226.506 26.0129 226.662 25.716 226.85 25.4556C227.048 25.1951 227.277 24.9868 227.537 24.8306C227.808 24.6743 228.115 24.5962 228.459 24.5962C228.834 24.5962 229.193 24.7056 229.537 24.9243C229.881 25.1431 230.141 25.4139 230.318 25.7368L230.459 23.2524C230.47 23.0545 230.485 22.8254 230.506 22.5649C230.527 22.2941 230.568 22.0389 230.631 21.7993C230.704 21.5597 230.813 21.3566 230.959 21.1899C231.105 21.0233 231.318 20.9399 231.6 20.9399C231.902 20.9399 232.136 21.0129 232.303 21.1587C232.47 21.3045 232.589 21.492 232.662 21.7212C232.746 21.9399 232.792 22.1795 232.803 22.4399C232.824 22.7004 232.834 22.9451 232.834 23.1743ZM230.287 30.1118C230.287 29.8722 230.282 29.6379 230.272 29.4087C230.261 29.1795 230.261 28.9451 230.272 28.7056C230.209 28.5701 230.136 28.4243 230.053 28.2681C229.97 28.1014 229.865 27.9504 229.74 27.8149C229.626 27.6691 229.496 27.5493 229.35 27.4556C229.204 27.3618 229.048 27.3149 228.881 27.3149C228.693 27.3149 228.542 27.3722 228.428 27.4868C228.313 27.6014 228.23 27.742 228.178 27.9087C228.126 28.0649 228.089 28.2368 228.068 28.4243C228.058 28.6118 228.053 28.7733 228.053 28.9087C228.053 29.0337 228.063 29.2212 228.084 29.4712C228.105 29.7108 228.141 29.9556 228.193 30.2056C228.256 30.4556 228.339 30.6743 228.443 30.8618C228.548 31.0493 228.688 31.1431 228.865 31.1431C229.001 31.1431 229.136 31.117 229.272 31.0649C229.407 31.0024 229.532 30.9295 229.647 30.8462C229.772 30.7524 229.886 30.6535 229.99 30.5493C230.105 30.4347 230.204 30.3306 230.287 30.2368V30.1118ZM240.506 31.2524C240.506 31.4399 240.496 31.6847 240.475 31.9868C240.464 32.2889 240.423 32.5858 240.35 32.8774C240.277 33.1587 240.162 33.4035 240.006 33.6118C239.85 33.8201 239.631 33.9243 239.35 33.9243C238.964 33.9243 238.667 33.7993 238.459 33.5493C238.251 33.2993 238.152 32.9868 238.162 32.6118C237.829 32.9035 237.449 33.1326 237.022 33.2993C236.605 33.466 236.178 33.5493 235.74 33.5493C235.438 33.5493 235.152 33.4764 234.881 33.3306C234.61 33.1847 234.371 32.9972 234.162 32.7681C233.954 32.5389 233.787 32.2837 233.662 32.0024C233.537 31.7108 233.475 31.4243 233.475 31.1431C233.475 30.6431 233.626 30.2056 233.928 29.8306C234.24 29.4556 234.621 29.1379 235.068 28.8774C235.516 28.6066 235.99 28.3931 236.49 28.2368C237.001 28.0806 237.454 27.9764 237.85 27.9243C237.85 27.8722 237.85 27.8254 237.85 27.7837C237.86 27.742 237.865 27.6951 237.865 27.6431C237.865 27.3201 237.777 27.0597 237.6 26.8618C237.423 26.6639 237.173 26.5649 236.85 26.5649C236.589 26.5649 236.365 26.6118 236.178 26.7056C235.99 26.7889 235.813 26.8879 235.647 27.0024C235.48 27.1066 235.313 27.2056 235.147 27.2993C234.98 27.3826 234.792 27.4243 234.584 27.4243C234.355 27.4243 234.157 27.3514 233.99 27.2056C233.834 27.0597 233.756 26.8722 233.756 26.6431C233.756 26.2993 233.855 25.9868 234.053 25.7056C234.261 25.4243 234.516 25.1899 234.818 25.0024C235.131 24.8045 235.464 24.6535 235.818 24.5493C236.183 24.4347 236.516 24.3774 236.818 24.3774C237.1 24.3774 237.381 24.4139 237.662 24.4868C237.943 24.5493 238.209 24.6535 238.459 24.7993C238.709 24.9347 238.933 25.1066 239.131 25.3149C239.339 25.5129 239.506 25.7472 239.631 26.0181C239.818 26.4035 239.97 26.8149 240.084 27.2524C240.199 27.6795 240.287 28.1222 240.35 28.5806C240.412 29.0285 240.454 29.4816 240.475 29.9399C240.496 30.3879 240.506 30.8254 240.506 31.2524ZM238.006 30.7524L237.959 29.6899C237.938 29.6899 237.917 29.6899 237.897 29.6899C237.876 29.6795 237.855 29.6743 237.834 29.6743C237.699 29.6743 237.527 29.7108 237.318 29.7837C237.121 29.8462 236.928 29.9399 236.74 30.0649C236.553 30.1795 236.391 30.3097 236.256 30.4556C236.131 30.6014 236.068 30.7524 236.068 30.9087C236.068 31.0545 236.121 31.1535 236.225 31.2056C236.329 31.2576 236.449 31.2837 236.584 31.2837C236.813 31.2837 237.058 31.2264 237.318 31.1118C237.579 30.9868 237.808 30.867 238.006 30.7524ZM130.842 45.5181C130.842 46.3826 130.821 47.2524 130.779 48.1274C130.738 48.992 130.686 49.8566 130.623 50.7212C130.613 50.8774 130.602 51.091 130.592 51.3618C130.582 51.6222 130.561 51.9087 130.529 52.2212C130.498 52.5233 130.457 52.8306 130.404 53.1431C130.352 53.4556 130.269 53.742 130.154 54.0024C130.05 54.2524 129.91 54.4556 129.733 54.6118C129.566 54.7785 129.358 54.8618 129.108 54.8618C128.889 54.8618 128.691 54.8149 128.514 54.7212C128.347 54.6274 128.207 54.5076 128.092 54.3618C127.977 54.2056 127.889 54.0337 127.826 53.8462C127.764 53.6483 127.733 53.4451 127.733 53.2368C127.733 52.8931 127.743 52.5493 127.764 52.2056C127.785 51.8514 127.816 51.5024 127.858 51.1587L126.311 51.3149C126.279 51.5858 126.243 51.9139 126.201 52.2993C126.17 52.6743 126.097 53.0389 125.983 53.3931C125.878 53.7368 125.717 54.0337 125.498 54.2837C125.279 54.5337 124.977 54.6587 124.592 54.6587C124.352 54.6587 124.154 54.6014 123.998 54.4868C123.842 54.3826 123.717 54.2472 123.623 54.0806C123.529 53.9035 123.462 53.7108 123.42 53.5024C123.378 53.2941 123.358 53.0962 123.358 52.9087C123.358 52.2837 123.384 51.6639 123.436 51.0493C123.488 50.4243 123.524 49.7993 123.545 49.1743C123.566 48.5181 123.571 47.8618 123.561 47.2056C123.561 46.5389 123.571 45.8722 123.592 45.2056C123.602 44.9868 123.608 44.7316 123.608 44.4399C123.618 44.1483 123.654 43.8774 123.717 43.6274C123.79 43.367 123.904 43.1483 124.061 42.9712C124.227 42.7941 124.472 42.7056 124.795 42.7056C125.243 42.7056 125.582 42.8254 125.811 43.0649C126.04 43.2941 126.201 43.5858 126.295 43.9399C126.389 44.2837 126.436 44.6535 126.436 45.0493C126.436 45.4347 126.436 45.7837 126.436 46.0962C126.436 46.5129 126.425 46.9243 126.404 47.3306C126.384 47.7264 126.363 48.1274 126.342 48.5337L128.014 48.2837C128.024 47.7733 128.035 47.2681 128.045 46.7681C128.055 46.2681 128.076 45.7681 128.108 45.2681C128.118 45.0285 128.128 44.7733 128.139 44.5024C128.149 44.2316 128.191 43.9816 128.264 43.7524C128.337 43.5233 128.457 43.3358 128.623 43.1899C128.8 43.0337 129.061 42.9556 129.404 42.9556C129.696 42.9556 129.93 43.0389 130.108 43.2056C130.295 43.3722 130.441 43.5754 130.545 43.8149C130.66 44.0545 130.738 44.3097 130.779 44.5806C130.821 44.8514 130.842 45.0962 130.842 45.3149V45.5181ZM134.451 43.5493C134.451 43.6951 134.41 43.8254 134.326 43.9399C134.253 44.0545 134.154 44.1587 134.029 44.2524C133.904 44.3358 133.769 44.4035 133.623 44.4556C133.477 44.4972 133.342 44.5181 133.217 44.5181C133.009 44.5181 132.826 44.466 132.67 44.3618C132.514 44.2576 132.436 44.0962 132.436 43.8774C132.436 43.7212 132.472 43.5858 132.545 43.4712C132.628 43.3462 132.727 43.2472 132.842 43.1743C132.957 43.091 133.087 43.0285 133.233 42.9868C133.378 42.9451 133.519 42.9243 133.654 42.9243C133.852 42.9243 134.035 42.9712 134.201 43.0649C134.368 43.1587 134.451 43.3201 134.451 43.5493ZM134.576 48.8618C134.576 49.0076 134.576 49.1639 134.576 49.3306C134.576 49.4868 134.571 49.6379 134.561 49.7837C134.55 49.9608 134.545 50.2004 134.545 50.5024C134.545 50.7941 134.535 51.1118 134.514 51.4556C134.493 51.7993 134.457 52.1483 134.404 52.5024C134.363 52.8566 134.29 53.1795 134.186 53.4712C134.082 53.7629 133.941 54.0024 133.764 54.1899C133.597 54.367 133.384 54.4608 133.123 54.4712C132.925 54.4816 132.759 54.4035 132.623 54.2368C132.488 54.0701 132.373 53.8566 132.279 53.5962C132.196 53.3254 132.134 53.0285 132.092 52.7056C132.05 52.3722 132.019 52.0545 131.998 51.7524C131.977 51.4399 131.967 51.1535 131.967 50.8931C131.967 50.6326 131.967 50.4399 131.967 50.3149C131.967 50.1483 131.967 49.9139 131.967 49.6118C131.967 49.2993 131.977 48.966 131.998 48.6118C132.019 48.2576 132.055 47.8983 132.108 47.5337C132.17 47.1691 132.253 46.8358 132.358 46.5337C132.472 46.2316 132.618 45.9868 132.795 45.7993C132.972 45.6118 133.196 45.5181 133.467 45.5181C133.748 45.5181 133.962 45.6587 134.108 45.9399C134.253 46.2212 134.363 46.5493 134.436 46.9243C134.509 47.2993 134.55 47.6743 134.561 48.0493C134.571 48.4139 134.576 48.6847 134.576 48.8618ZM142.842 49.7993C142.842 50.2576 142.79 50.7629 142.686 51.3149C142.592 51.8566 142.425 52.3618 142.186 52.8306C141.957 53.2993 141.649 53.6899 141.264 54.0024C140.889 54.3149 140.415 54.4712 139.842 54.4712C139.696 54.4712 139.545 54.4608 139.389 54.4399C139.233 54.4191 139.082 54.3826 138.936 54.3306C138.8 54.2785 138.675 54.2108 138.561 54.1274C138.446 54.0337 138.358 53.9139 138.295 53.7681L138.154 56.0181C138.144 56.2576 138.134 56.5441 138.123 56.8774C138.123 57.2108 138.082 57.5285 137.998 57.8306C137.925 58.1326 137.795 58.3879 137.608 58.5962C137.43 58.8149 137.17 58.9243 136.826 58.9243C136.628 58.9243 136.462 58.8201 136.326 58.6118C136.191 58.4139 136.082 58.1587 135.998 57.8462C135.925 57.5337 135.868 57.1847 135.826 56.7993C135.785 56.4139 135.759 56.0441 135.748 55.6899C135.738 55.3358 135.733 55.0129 135.733 54.7212C135.733 54.4295 135.733 54.216 135.733 54.0806C135.733 53.3826 135.727 52.6899 135.717 52.0024C135.707 51.3045 135.701 50.6066 135.701 49.9087C135.701 49.7837 135.701 49.591 135.701 49.3306C135.701 49.0597 135.712 48.7681 135.733 48.4556C135.753 48.1431 135.785 47.8201 135.826 47.4868C135.878 47.1535 135.951 46.8514 136.045 46.5806C136.139 46.2993 136.259 46.0754 136.404 45.9087C136.55 45.7316 136.727 45.6431 136.936 45.6431C137.071 45.6431 137.191 45.6847 137.295 45.7681C137.41 45.841 137.503 45.9399 137.576 46.0649C137.66 46.1795 137.727 46.3045 137.779 46.4399C137.832 46.5754 137.873 46.7004 137.904 46.8149C138.227 46.4504 138.597 46.1743 139.014 45.9868C139.441 45.7993 139.894 45.7056 140.373 45.7056C140.873 45.7056 141.279 45.8462 141.592 46.1274C141.915 46.4087 142.165 46.7576 142.342 47.1743C142.529 47.591 142.66 48.0389 142.733 48.5181C142.805 48.9868 142.842 49.4139 142.842 49.7993ZM140.608 49.6743C140.608 49.5181 140.592 49.3618 140.561 49.2056C140.54 49.0389 140.493 48.8879 140.42 48.7524C140.358 48.6066 140.264 48.492 140.139 48.4087C140.014 48.3149 139.858 48.2681 139.67 48.2681C139.42 48.2681 139.154 48.3514 138.873 48.5181C138.602 48.6743 138.399 48.8566 138.264 49.0649C138.212 49.1483 138.18 49.2837 138.17 49.4712C138.16 49.6587 138.154 49.7993 138.154 49.8931C138.154 49.966 138.154 50.0649 138.154 50.1899C138.165 50.3045 138.175 50.4243 138.186 50.5493C138.196 50.6743 138.207 50.7941 138.217 50.9087C138.238 51.0233 138.264 51.1118 138.295 51.1743C138.326 51.2681 138.394 51.3566 138.498 51.4399C138.602 51.5129 138.717 51.5806 138.842 51.6431C138.967 51.7056 139.092 51.7524 139.217 51.7837C139.352 51.8149 139.467 51.8306 139.561 51.8306C139.779 51.8306 139.957 51.7472 140.092 51.5806C140.227 51.4139 140.332 51.216 140.404 50.9868C140.488 50.7576 140.54 50.5233 140.561 50.2837C140.592 50.0337 140.608 49.8306 140.608 49.6743ZM150.342 51.6743C150.342 52.0285 150.227 52.3774 149.998 52.7212C149.779 53.0545 149.498 53.3566 149.154 53.6274C148.821 53.8879 148.462 54.1014 148.076 54.2681C147.691 54.4243 147.337 54.5024 147.014 54.5024C146.462 54.5024 145.967 54.367 145.529 54.0962C145.102 53.8149 144.743 53.4608 144.451 53.0337C144.16 52.6066 143.936 52.1379 143.779 51.6274C143.634 51.1066 143.561 50.6014 143.561 50.1118C143.561 49.591 143.634 49.0337 143.779 48.4399C143.925 47.8462 144.144 47.2993 144.436 46.7993C144.738 46.2993 145.113 45.8826 145.561 45.5493C146.019 45.216 146.561 45.0493 147.186 45.0493C147.54 45.0493 147.878 45.1118 148.201 45.2368C148.524 45.3514 148.805 45.5181 149.045 45.7368C149.285 45.9556 149.477 46.216 149.623 46.5181C149.769 46.8201 149.842 47.1587 149.842 47.5337C149.842 48.0233 149.738 48.4816 149.529 48.9087C149.321 49.3358 149.045 49.7056 148.701 50.0181C148.358 50.3306 147.962 50.5858 147.514 50.7837C147.066 50.9712 146.608 51.0754 146.139 51.0962C146.18 51.3983 146.3 51.617 146.498 51.7524C146.707 51.8879 146.951 51.9556 147.233 51.9556C147.441 51.9556 147.644 51.9035 147.842 51.7993C148.04 51.6951 148.233 51.5806 148.42 51.4556C148.608 51.3201 148.79 51.2004 148.967 51.0962C149.154 50.992 149.342 50.9399 149.529 50.9399C149.738 50.9399 149.925 51.0076 150.092 51.1431C150.259 51.2785 150.342 51.4556 150.342 51.6743ZM147.811 47.8462C147.811 47.7108 147.774 47.5701 147.701 47.4243C147.628 47.2785 147.514 47.2056 147.358 47.2056C147.128 47.2056 146.936 47.2681 146.779 47.3931C146.623 47.5076 146.493 47.6587 146.389 47.8462C146.285 48.0233 146.201 48.216 146.139 48.4243C146.087 48.6326 146.055 48.8254 146.045 49.0024C146.191 48.9712 146.363 48.9295 146.561 48.8774C146.769 48.8254 146.962 48.7576 147.139 48.6743C147.326 48.5806 147.483 48.466 147.608 48.3306C147.743 48.1951 147.811 48.0337 147.811 47.8462ZM156.389 48.6118C156.243 48.6222 156.118 48.6118 156.014 48.5806C155.91 48.5389 155.805 48.4972 155.701 48.4556C155.608 48.4139 155.514 48.3774 155.42 48.3462C155.326 48.3045 155.222 48.2889 155.108 48.2993C154.899 48.3097 154.712 48.367 154.545 48.4712C154.389 48.5754 154.243 48.7056 154.108 48.8618C153.983 49.0181 153.873 49.1951 153.779 49.3931C153.686 49.5806 153.613 49.7681 153.561 49.9556C153.529 50.0806 153.503 50.2733 153.483 50.5337C153.472 50.7837 153.467 51.0545 153.467 51.3462C153.457 51.6483 153.451 51.9347 153.451 52.2056C153.451 52.4764 153.441 52.6899 153.42 52.8462C153.41 53.0129 153.384 53.2108 153.342 53.4399C153.3 53.6587 153.233 53.867 153.139 54.0649C153.055 54.2629 152.941 54.4295 152.795 54.5649C152.649 54.7004 152.462 54.7681 152.233 54.7681C152.055 54.7681 151.899 54.716 151.764 54.6118C151.639 54.5076 151.529 54.3722 151.436 54.2056C151.352 54.0285 151.279 53.8254 151.217 53.5962C151.165 53.367 151.123 53.1326 151.092 52.8931C151.061 52.6431 151.035 52.3931 151.014 52.1431C151.003 51.8931 150.993 51.6587 150.983 51.4399C150.983 51.2108 150.983 51.0024 150.983 50.8149C150.993 50.6274 150.998 50.4764 150.998 50.3618C150.988 49.9972 150.967 49.6326 150.936 49.2681C150.915 48.8931 150.904 48.5233 150.904 48.1587C150.904 47.9295 150.915 47.6743 150.936 47.3931C150.957 47.1118 151.014 46.8514 151.108 46.6118C151.201 46.3618 151.337 46.1535 151.514 45.9868C151.701 45.8201 151.957 45.7368 152.279 45.7368C152.457 45.7368 152.608 45.7941 152.733 45.9087C152.858 46.0233 152.957 46.1639 153.029 46.3306C153.113 46.4972 153.175 46.6743 153.217 46.8618C153.259 47.0493 153.285 47.2212 153.295 47.3774C153.545 46.9712 153.826 46.6431 154.139 46.3931C154.451 46.1326 154.858 45.992 155.358 45.9712C155.608 45.9608 155.852 45.9868 156.092 46.0493C156.342 46.1014 156.566 46.1951 156.764 46.3306C156.972 46.4556 157.139 46.6222 157.264 46.8306C157.399 47.0389 157.472 47.2837 157.483 47.5649C157.503 47.8983 157.404 48.1535 157.186 48.3306C156.967 48.5076 156.701 48.6014 156.389 48.6118ZM160.639 47.9087C160.639 48.0754 160.628 48.3045 160.608 48.5962C160.587 48.8774 160.555 49.1847 160.514 49.5181C160.472 49.841 160.41 50.1743 160.326 50.5181C160.253 50.8514 160.165 51.1587 160.061 51.4399C159.957 51.7108 159.832 51.9347 159.686 52.1118C159.54 52.2785 159.373 52.3618 159.186 52.3618C158.957 52.3618 158.759 52.2524 158.592 52.0337C158.436 51.8045 158.3 51.5181 158.186 51.1743C158.082 50.8201 157.998 50.4295 157.936 50.0024C157.873 49.5754 157.826 49.1587 157.795 48.7524C157.764 48.3358 157.743 47.9556 157.733 47.6118C157.733 47.2576 157.733 46.9868 157.733 46.7993C157.733 46.6118 157.733 46.3774 157.733 46.0962C157.733 45.8045 157.743 45.4972 157.764 45.1743C157.795 44.8514 157.837 44.5337 157.889 44.2212C157.951 43.8983 158.04 43.6066 158.154 43.3462C158.269 43.0858 158.42 42.8774 158.608 42.7212C158.795 42.5545 159.029 42.4712 159.311 42.4712C159.561 42.4712 159.764 42.5806 159.92 42.7993C160.087 43.0076 160.217 43.2837 160.311 43.6274C160.415 43.9608 160.488 44.3358 160.529 44.7524C160.582 45.1691 160.613 45.5806 160.623 45.9868C160.644 46.3826 160.649 46.7524 160.639 47.0962C160.639 47.4399 160.639 47.7108 160.639 47.9087ZM160.342 53.8462C160.342 54.0233 160.3 54.1795 160.217 54.3149C160.134 54.4399 160.024 54.5441 159.889 54.6274C159.753 54.7212 159.608 54.7889 159.451 54.8306C159.295 54.8722 159.139 54.8931 158.983 54.8931C158.753 54.8931 158.535 54.8306 158.326 54.7056C158.118 54.591 158.014 54.4035 158.014 54.1431C158.014 53.9868 158.055 53.8462 158.139 53.7212C158.233 53.5858 158.347 53.4712 158.483 53.3774C158.618 53.2837 158.764 53.2108 158.92 53.1587C159.087 53.1066 159.243 53.0806 159.389 53.0806C159.628 53.0806 159.847 53.1431 160.045 53.2681C160.243 53.3826 160.342 53.5754 160.342 53.8462Z" fill="white"/>
<defs>
<filter id="filter0_i_1137_1739" x="0" y="0" width="275.282" height="109" filterUnits="userSpaceOnUse" color-interpolation-filters="sRGB">
<feFlood flood-opacity="0" result="BackgroundImageFix"/>
<feBlend mode="normal" in="SourceGraphic" in2="BackgroundImageFix" result="shape"/>
<feColorMatrix in="SourceAlpha" type="matrix" values="0 0 0 0 0 0 0 0 0 0 0 0 0 0 0 0 0 0 127 0" result="hardAlpha"/>
<feOffset dy="4"/>
<feGaussianBlur stdDeviation="2"/>
<feComposite in2="hardAlpha" operator="arithmetic" k2="-1" k3="1"/>
<feColorMatrix type="matrix" values="0 0 0 0 0 0 0 0 0 0 0 0 0 0 0 0 0 0 0.25 0"/>
<feBlend mode="normal" in2="shape" result="effect1_innerShadow_1137_1739"/>
</filter>
</defs>
</svg>
