<svg xmlns="http://www.w3.org/2000/svg" width="266" height="149" fill="none" viewBox="0 0 266 149"><g filter="url(#a)"><path fill="#00c57f" fill-rule="evenodd" d="M37.722 94.803C12.157 85.04 1 70.633 1 55.039 1 35.852 23.505 16.897 60.735 7.525 78.793 2.98 100.009 1 124.385 1c74.635 0 143.462 19.576 140.524 54.039 0 17.1-12.738 32.824-38.681 42.21-14.146 5.119-32.042 8.142-54.432 9.072-8.807 17.889-21.697 27.101-42.845 41.679 15.509-16.991 25.011-27.946 28.449-41.372q-.593.002-1.188.002c-52.9 3.06-92.908-2.057-118.49-11.827" clip-rule="evenodd"/></g><path fill="#00c57f" d="m37.722 94.803-.357.934zM60.735 7.525l.244.97zM264.909 55.04l-.996-.085-.004.085zm-38.681 42.21-.341-.94zm-54.432 9.072-.041-.999a1 1 0 0 0-.856.557zM128.951 148l-.739-.674a1.002 1.002 0 0 0 1.307 1.498zm28.449-41.372.969.249a1.004 1.004 0 0 0-.972-1.249zm-1.188.002v-1l-.058.002zM1 55.039H0c0 16.186 11.612 30.863 37.365 40.698l.356-.934.357-.934C12.704 84.179 2 70.039 2 55.039zM60.735 7.525l-.244-.97C41.778 11.267 26.7 18.4 16.278 26.825 5.865 35.239 0 45.033 0 55.039h2c0-9.181 5.388-18.459 15.535-26.66 10.137-8.193 24.927-15.223 43.444-19.884zM124.385 1V0c-24.424 0-45.73 1.983-63.894 6.556l.244.97.244.97C78.93 3.975 100.057 2 124.385 2zm140.524 54.039.997.084c.767-9.003-3.175-16.971-10.539-23.8-7.346-6.812-18.148-12.546-31.298-17.17C197.759 4.9 161.772 0 124.385 0v2c37.248 0 72.992 4.887 99.02 14.04 13.019 4.577 23.537 10.198 30.602 16.75 7.047 6.534 10.607 13.936 9.906 22.164zm-38.681 42.21.34.941c26.15-9.462 39.341-25.46 39.341-43.151h-2c0 16.508-12.286 31.958-38.022 41.27zm-54.432 9.072.042.999c22.45-.932 40.456-3.965 54.73-9.13l-.34-.94-.341-.94c-14.016 5.071-31.802 8.085-54.132 9.012zm0 0-.897-.442c-8.676 17.624-21.344 26.703-42.515 41.298l.567.823.568.824c21.124-14.562 34.236-23.906 43.175-42.062zM128.951 148l.739.674c15.464-16.943 25.167-28.084 28.679-41.797l-.969-.249-.969-.248c-3.364 13.138-12.666 23.906-28.219 40.946zm27.261-41.37v1q.597 0 1.191-.002l-.003-1-.003-1q-.591.002-1.185.002zM37.722 94.803l-.357.934c25.768 9.841 65.935 14.955 118.905 11.891l-.058-.998-.058-.998c-52.829 3.056-92.678-2.064-118.076-11.763z"/><path fill="#fff" d="M45.672 28.116q0 .844-.375 1.657a5.3 5.3 0 0 1-.968 1.468q-.61.641-1.391 1.063a3.9 3.9 0 0 1-1.61.453q-.015.28-.03.719 0 .421-.047.89a10 10 0 0 1-.141.938 3.3 3.3 0 0 1-.25.843q-.156.375-.422.61a.88.88 0 0 1-.625.234.9.9 0 0 1-.703-.297 2 2 0 0 1-.39-.687 4.5 4.5 0 0 1-.173-.844 15 15 0 0 1-.062-.765q-.032-.455-.047-.891V30.6l.031-1.485q.015-.78.047-1.437.03-.672.063-1.14.046-.47.109-.548a1 1 0 0 1 .094-.062 1 1 0 0 1 .172-.11 4 4 0 0 1 .28-.171 9.5 9.5 0 0 1 1.579-.704 5.2 5.2 0 0 1 1.703-.296q.72 0 1.297.296.594.282 1 .766.422.469.64 1.11.22.624.22 1.296m-2.703.36a.96.96 0 0 0-.156-.547q-.14-.235-.484-.235a1.5 1.5 0 0 0-.594.125q-.297.11-.547.235.047.547.078 1.062.047.516.016 1.063.25-.126.547-.281.296-.172.547-.375.25-.204.421-.454a1.07 1.07 0 0 0 .172-.593m6.047 8.468q-.797 0-1.39-.422a3.7 3.7 0 0 1-1-1.078 5.2 5.2 0 0 1-.61-1.453 6.6 6.6 0 0 1-.203-1.593q0-.829.203-1.704a5.6 5.6 0 0 1 .625-1.609q.421-.735 1.078-1.187.657-.47 1.563-.47.875 0 1.484.485.625.469 1 1.188.375.702.531 1.547a6.5 6.5 0 0 1 .11 1.593 8.6 8.6 0 0 1-.266 1.672 5.3 5.3 0 0 1-.61 1.516q-.405.672-1.03 1.093-.626.422-1.485.422m.156-7.062q-.234 0-.421.25-.172.25-.297.61a5.5 5.5 0 0 0-.172.765q-.063.39-.063.687 0 .375.063.813.078.437.203.812.124.36.297.61.187.234.422.234.25 0 .422-.234.187-.235.296-.594.11-.36.157-.781.046-.438.047-.813 0-.344-.063-.75a4.3 4.3 0 0 0-.187-.781 1.8 1.8 0 0 0-.297-.594q-.172-.234-.407-.234m10.766-3.672q0 1.14-.094 2.266-.078 1.125-.078 2.265 0 .922.047 1.828.063.906.063 1.828 0 .25-.016.61-.015.344-.11.672a1.3 1.3 0 0 1-.28.562q-.188.235-.548.235-.469 0-.78-.344a1.7 1.7 0 0 1-.376-.797 2.7 2.7 0 0 1-.86.953q-.561.39-1.218.39a1.72 1.72 0 0 1-1.219-.484 4.3 4.3 0 0 1-.843-1.172 7 7 0 0 1-.5-1.437 6.5 6.5 0 0 1-.157-1.297 9.7 9.7 0 0 1 .203-1.906q.126-.516.313-1 .187-.5.469-.89.296-.392.687-.626.406-.234.922-.234.562 0 1.078.328t.781.813l.141-2.485q.015-.297.047-.687.03-.406.125-.766.11-.36.328-.61.22-.25.64-.25.454 0 .704.22.249.218.36.562.124.328.14.719.03.39.031.734m-2.547 6.938q0-.36-.015-.704t0-.703a9 9 0 0 0-.22-.437 2 2 0 0 0-.312-.453 1.6 1.6 0 0 0-.39-.36.85.85 0 0 0-.47-.14.6.6 0 0 0-.452.172 1 1 0 0 0-.25.421 2.5 2.5 0 0 0-.11.516 9 9 0 0 0-.015.484q0 .188.031.563.03.36.11.734.093.375.25.657.155.28.421.28.204 0 .407-.077.202-.094.375-.22.188-.14.343-.296.172-.173.297-.312zm10.125.562q0 .531-.344 1.047-.328.5-.843.906-.5.39-1.078.64-.579.235-1.063.235a2.76 2.76 0 0 1-1.484-.406 3.9 3.9 0 0 1-1.078-1.063 5.2 5.2 0 0 1-.672-1.406 5.6 5.6 0 0 1-.22-1.515q0-.782.22-1.672.218-.891.656-1.641.453-.75 1.125-1.25.687-.5 1.625-.5.531 0 1.016.188.484.17.843.5.36.328.578.78.22.454.22 1.016 0 .735-.313 1.375a3.6 3.6 0 0 1-.828 1.11q-.516.468-1.188.765a4 4 0 0 1-1.375.313q.062.453.36.656.312.204.734.203.312 0 .61-.156.296-.156.577-.344.282-.203.547-.36a1.15 1.15 0 0 1 .563-.155.87.87 0 0 1 .562.203q.25.202.25.531m-2.531-3.828a.94.94 0 0 0-.11-.422.36.36 0 0 0-.343-.219.9.9 0 0 0-.578.188 1.4 1.4 0 0 0-.391.453q-.156.266-.25.578a3 3 0 0 0-.094.578q.219-.047.516-.125.311-.078.578-.203.282-.14.469-.344a.66.66 0 0 0 .203-.484m11.5-1.985q0 .455-.313.672a6 6 0 0 1-.671.422q-.376.188-.688.453-.297.266-.297.797 0 .282.125.485.14.203.328.375.204.156.438.328t.422.39q.202.219.328.532.14.312.14.765 0 .657-.343 1.297a4.3 4.3 0 0 1-.86 1.125 4.3 4.3 0 0 1-1.172.781q-.656.297-1.296.297-.267 0-.532-.047a1.5 1.5 0 0 1-.484-.14 1.04 1.04 0 0 1-.344-.297.9.9 0 0 1-.14-.516q0-.436.171-.672.172-.25.438-.39.265-.141.562-.219.313-.078.579-.187.265-.126.437-.313.172-.188.172-.531 0-.328-.266-.672-.25-.36-.562-.75a8 8 0 0 1-.578-.86 2.04 2.04 0 0 1-.25-1q0-.671.265-1.234a3.4 3.4 0 0 1 .735-1q.468-.422 1.062-.656a3.2 3.2 0 0 1 1.25-.25q.25 0 .484.047.25.046.438.172a.8.8 0 0 1 .297.312.86.86 0 0 1 .125.485m7.172 5.813q0 .531-.344 1.047-.328.5-.844.906-.5.39-1.078.64-.578.235-1.062.235a2.76 2.76 0 0 1-1.485-.406 3.9 3.9 0 0 1-1.078-1.063 5.2 5.2 0 0 1-.672-1.406 5.6 5.6 0 0 1-.218-1.515q0-.782.218-1.672.219-.891.657-1.641.453-.75 1.124-1.25.688-.5 1.626-.5.53 0 1.015.188a2.45 2.45 0 0 1 1.422 1.28q.219.454.219 1.016 0 .735-.313 1.375a3.6 3.6 0 0 1-.828 1.11q-.516.468-1.187.765a4 4 0 0 1-1.375.313q.062.453.359.656.312.204.734.203.313 0 .61-.156t.578-.344q.281-.203.547-.36a1.15 1.15 0 0 1 .562-.155q.313 0 .563.203.25.202.25.531m-2.531-3.828a.94.94 0 0 0-.11-.422.36.36 0 0 0-.344-.219.9.9 0 0 0-.578.188 1.4 1.4 0 0 0-.39.453q-.157.266-.25.578a3 3 0 0 0-.094.578q.219-.047.516-.125.311-.078.578-.203a1.6 1.6 0 0 0 .468-.344.66.66 0 0 0 .204-.484m8.578.765q-.219.015-.375-.03l-.313-.126a3 3 0 0 0-.281-.11.6.6 0 0 0-.313-.046q-.312.016-.562.172a2.2 2.2 0 0 0-.438.39 2.7 2.7 0 0 0-.328.532 3 3 0 0 0-.218.562 4 4 0 0 0-.079.578q-.015.375-.015.813-.016.453-.016.86t-.031.64a5 5 0 0 1-.078.594q-.063.328-.203.625a1.4 1.4 0 0 1-.344.5.8.8 0 0 1-.563.203.75.75 0 0 1-.468-.157 1.4 1.4 0 0 1-.328-.406 4 4 0 0 1-.22-.61 8 8 0 0 1-.124-.702q-.047-.375-.078-.75-.015-.375-.032-.703v-.625q.016-.282.016-.453a19 19 0 0 0-.062-1.094q-.032-.562-.032-1.11 0-.343.032-.765.03-.422.171-.781.141-.376.407-.625.28-.25.765-.25.266 0 .453.171.188.173.297.422.126.25.188.532.061.28.078.515.375-.609.844-.984.468-.39 1.218-.422.375-.016.735.078.375.078.672.281.312.188.5.5.203.313.218.735.031.5-.296.765-.33.265-.797.282m11.937 1.376a8.5 8.5 0 0 1-.172 1.703 4.7 4.7 0 0 1-.578 1.515 3.14 3.14 0 0 1-1.094 1.063q-.672.406-1.687.406-1 0-1.672-.39a3.2 3.2 0 0 1-1.078-1.063 4.8 4.8 0 0 1-.563-1.484 9 9 0 0 1-.156-1.688q0-.938.219-1.86.046-.249.172-.687.14-.453.344-.875a3.7 3.7 0 0 1 .484-.75q.28-.312.61-.312.311 0 .5.172.186.171.296.437.11.25.14.547.033.282.032.515 0 .36-.062.704-.047.343-.11.687l-.125.938a9.4 9.4 0 0 0-.031 1.468q.03.282.125.547.093.266.266.453.17.172.484.172.406 0 .64-.218.25-.22.36-.547.124-.329.156-.703.03-.376.031-.688 0-.687-.093-1.344a54 54 0 0 1-.172-1.36 1.5 1.5 0 0 1 .063-.687q.077-.234.218-.421.14-.187.344-.297a.85.85 0 0 1 .453-.125q.344 0 .609.25.266.234.438.625.188.375.297.859.124.469.187.938.078.453.094.859.031.406.031.64m10.438-.688v.813q0 .5-.032 1.093-.015.594-.093 1.203a5.3 5.3 0 0 1-.25 1.078q-.157.485-.407.797a.78.78 0 0 1-.64.313.6.6 0 0 1-.532-.281 2.3 2.3 0 0 1-.25-.688 5 5 0 0 1-.093-.797v-.64q0-.705.047-1.375.046-.672.046-1.375v-.282q0-.202-.031-.406a1.2 1.2 0 0 0-.109-.36q-.063-.155-.203-.155-.282 0-.453.296a2.7 2.7 0 0 0-.282.672q-.11.39-.156.782-.047.375-.062.562a9 9 0 0 0-.063.61q-.015.405-.062.89a9 9 0 0 1-.125 1 6 6 0 0 1-.219.922q-.125.406-.328.672-.204.265-.5.265a.64.64 0 0 1-.578-.328 2.4 2.4 0 0 1-.297-.765 6 6 0 0 1-.125-.891 20 20 0 0 1-.016-.703v-.516q.016-.25.016-.515v-.36q0-.25-.016-.547 0-.312-.031-.64a5 5 0 0 0-.063-.594 1.5 1.5 0 0 0-.14-.453q-.094-.172-.219-.172-.203 0-.375.266-.172.25-.297.609a6 6 0 0 0-.203.688q-.063.343-.063.5v.093q0 .75.094 1.469t.094 1.469q0 .437-.281.812-.281.36-.782.36a.76.76 0 0 1-.593-.266 2.3 2.3 0 0 1-.391-.719 6 6 0 0 1-.25-.953 13 13 0 0 1-.109-1.031 39 39 0 0 1-.047-.922v-.625a20 20 0 0 0-.016-.687q0-.453.016-.985.031-.53.094-1.078a5.4 5.4 0 0 1 .203-1.016q.14-.453.359-.734a.73.73 0 0 1 .594-.297q.406 0 .656.219.266.218.266.656 0 .094-.016.188 0 .094-.016.172.173-.25.422-.5.25-.267.532-.47.297-.218.625-.343.327-.14.656-.14.313 0 .562.171t.438.438q.187.25.312.547.126.297.172.562.156-.281.375-.562.234-.297.5-.516t.578-.36q.328-.14.672-.14a.77.77 0 0 1 .563.234q.234.235.406.61.172.36.266.828.093.453.156.906.063.438.078.828.016.375.016.594m7.671 2.953q0 .281-.031.735-.015.452-.125.89a2.1 2.1 0 0 1-.344.735q-.234.312-.656.312-.578 0-.89-.375-.314-.375-.297-.937-.5.436-1.141.687-.626.25-1.281.25a1.8 1.8 0 0 1-.86-.219 2.7 2.7 0 0 1-.718-.562 2.8 2.8 0 0 1-.5-.766 2.2 2.2 0 0 1-.188-.86q0-.75.453-1.312a4.3 4.3 0 0 1 1.141-.953q.672-.406 1.422-.64.765-.235 1.359-.313v-.14a.6.6 0 0 0 .016-.141q0-.485-.266-.781t-.75-.297q-.39 0-.672.14a3.3 3.3 0 0 0-.531.297q-.25.156-.5.297a1.24 1.24 0 0 1-.562.125.87.87 0 0 1-.594-.219.74.74 0 0 1-.235-.562q0-.516.297-.938.313-.421.766-.703a4 4 0 0 1 1-.453 3.4 3.4 0 0 1 1-.172q.421 0 .844.11.422.093.797.312.375.203.671.516.313.297.5.703.282.578.454 1.234.172.64.265 1.328.094.672.125 1.36.031.671.031 1.312m-2.5-.5-.046-1.062h-.063a.14.14 0 0 0-.062-.016 1.6 1.6 0 0 0-.516.11 2.3 2.3 0 0 0-.578.28 2.3 2.3 0 0 0-.485.391.7.7 0 0 0-.187.453q0 .219.156.297a.8.8 0 0 0 .36.078q.344 0 .734-.172.39-.186.687-.359m13-3.297q0 .078-.015.172a1 1 0 0 1-.047.156q-.141.36-.438.61a1.1 1.1 0 0 1-.703.234q-.609 0-.828-.61a.5.5 0 0 1-.031-.171q0-.11-.016-.219v-.453a.9.9 0 0 0-.109-.344q-.078-.125-.266-.125-.266 0-.515.344a3.8 3.8 0 0 0-.422.797 7 7 0 0 0-.281.937q-.11.485-.11.782 0 .234.031.578.032.328.125.64.094.313.25.547a.54.54 0 0 0 .438.219.8.8 0 0 0 .484-.156q.235-.172.453-.39.204-.189.438-.392a.87.87 0 0 1 .562-.203q.391 0 .61.282a.97.97 0 0 1 .234.64q0 .532-.281 1a3.2 3.2 0 0 1-.703.797q-.422.328-.938.516a2.7 2.7 0 0 1-.984.203q-.844 0-1.438-.422a3.3 3.3 0 0 1-.937-1.062 5 5 0 0 1-.516-1.422 7.3 7.3 0 0 1-.156-1.453q0-.798.219-1.72.219-.936.672-1.734a4.3 4.3 0 0 1 1.156-1.328q.719-.531 1.703-.531.609 0 1.047.266.453.265.734.703.297.422.438.953.156.531.156 1.047v.156a1 1 0 0 1-.016.156m3.844 6.453q-.797 0-1.39-.422a3.7 3.7 0 0 1-1-1.078 5.2 5.2 0 0 1-.61-1.453 6.6 6.6 0 0 1-.203-1.593q0-.829.203-1.704.204-.89.625-1.609.422-.735 1.078-1.187.657-.47 1.563-.47.875 0 1.484.485.625.469 1 1.188.375.702.531 1.547.157.843.11 1.593a8.6 8.6 0 0 1-.266 1.672 5.3 5.3 0 0 1-.609 1.516 3.5 3.5 0 0 1-1.031 1.093q-.626.422-1.485.422m.156-7.062q-.234 0-.421.25-.173.25-.297.61-.11.359-.172.765-.063.39-.063.687 0 .375.063.813.078.437.203.812.124.36.297.61.187.234.422.234.25 0 .422-.234.188-.235.296-.594.11-.36.157-.781a8 8 0 0 0 .047-.813q0-.344-.063-.75a4.3 4.3 0 0 0-.187-.781 1.8 1.8 0 0 0-.297-.594q-.172-.234-.407-.234m6.954-2.86q0 .844-.079 1.704a23 23 0 0 0-.062 1.703q0 1.11.062 2.219.08 1.109.079 2.234 0 .28-.032.64-.03.344-.156.641a1.2 1.2 0 0 1-.344.5q-.234.204-.625.203-.375 0-.656-.375a3.3 3.3 0 0 1-.453-.922 12 12 0 0 1-.297-1.28q-.11-.705-.172-1.36a107 107 0 0 1-.078-1.219q-.015-.562-.016-.828 0-.297.016-.86.031-.561.109-1.218.079-.657.204-1.328a7 7 0 0 1 .359-1.235q.219-.562.516-.906.312-.36.734-.36.344 0 .516.235.187.219.265.547.079.312.094.672.016.343.016.594m8.281 5.422q0 .266-.016.797 0 .516-.047 1.094-.03.562-.093 1.078-.063.5-.157.735-.124.296-.328.515-.202.219-.547.219-.531 0-.765-.422-.235-.422-.313-1.047a9 9 0 0 1-.062-1.36q.015-.733-.016-1.359a4 4 0 0 0-.172-1.047q-.14-.42-.515-.421-.516 0-.797.172a.95.95 0 0 0-.391.421q-.11.265-.141.61-.016.343-.046.718-.032.36-.047.97a6.7 6.7 0 0 1-.141 1.202 2.9 2.9 0 0 1-.422 1.032q-.281.421-.844.422a.7.7 0 0 1-.562-.266 2.1 2.1 0 0 1-.328-.688 6 6 0 0 1-.188-.937 17 17 0 0 1-.062-1v-.906q.015-.406.015-.61 0-.312.016-1.031.031-.719.109-1.594.079-.89.204-1.828a14 14 0 0 1 .328-1.703q.203-.78.484-1.266.297-.484.688-.468.25.015.421.218.188.204.297.532.126.312.203.687.079.375.11.75.047.36.047.672.015.313.015.484a22 22 0 0 1-.062 1.625 2.76 2.76 0 0 1 .953-.796 2.65 2.65 0 0 1 1.219-.313q.781 0 1.172.438.405.42.578 1.062.172.625.187 1.344.016.703.016 1.265m7.656 1.266q0 .531-.344 1.047a3.8 3.8 0 0 1-.843.906 5 5 0 0 1-1.079.64q-.577.235-1.062.235a2.76 2.76 0 0 1-1.484-.406 3.9 3.9 0 0 1-1.079-1.063 5.2 5.2 0 0 1-.671-1.406 5.6 5.6 0 0 1-.219-1.515q0-.782.219-1.672.218-.891.656-1.641.453-.75 1.125-1.25.687-.5 1.625-.5.532 0 1.015.188.485.17.844.5.36.328.578.78.219.454.219 1.016 0 .735-.312 1.375a3.7 3.7 0 0 1-.829 1.11 4.4 4.4 0 0 1-1.187.765 4 4 0 0 1-1.375.313q.063.453.359.656.313.204.735.203.312 0 .609-.156a6 6 0 0 0 .578-.344q.282-.203.547-.36.282-.155.563-.155.312 0 .562.203a.65.65 0 0 1 .25.531m-2.531-3.828a.94.94 0 0 0-.11-.422.36.36 0 0 0-.343-.219.9.9 0 0 0-.578.188 1.4 1.4 0 0 0-.391.453q-.156.266-.25.578a3 3 0 0 0-.094.578q.219-.047.516-.125.312-.078.578-.203.281-.14.469-.344a.66.66 0 0 0 .203-.484m8.578.765q-.219.015-.375-.03-.156-.064-.313-.126a3 3 0 0 0-.281-.11.6.6 0 0 0-.312-.046q-.313.016-.563.172a2.2 2.2 0 0 0-.437.39 2.7 2.7 0 0 0-.328.532 3 3 0 0 0-.219.562 4 4 0 0 0-.078.578q-.016.375-.016.813-.015.453-.016.86 0 .406-.031.64-.015.249-.078.594a2.6 2.6 0 0 1-.203.625 1.4 1.4 0 0 1-.344.5.8.8 0 0 1-.562.203.75.75 0 0 1-.469-.157 1.4 1.4 0 0 1-.328-.406 4 4 0 0 1-.219-.61 8 8 0 0 1-.125-.702q-.047-.375-.078-.75-.015-.375-.031-.703v-.625q.015-.282.015-.453-.015-.548-.062-1.094a20 20 0 0 1-.031-1.11q0-.343.031-.765t.172-.781q.14-.376.406-.625.281-.25.766-.25.265 0 .453.171.187.173.297.422.124.25.187.532.063.28.078.515.375-.609.844-.984.469-.39 1.219-.422.375-.016.734.078.375.078.672.281.312.188.5.5.202.313.219.735.031.5-.297.765a1.3 1.3 0 0 1-.797.282m11.828-4.437q0 1.14-.094 2.266-.078 1.125-.078 2.265 0 .922.047 1.828.063.906.063 1.828 0 .25-.016.61-.015.344-.109.672a1.3 1.3 0 0 1-.282.562q-.187.235-.547.235-.468 0-.781-.344a1.7 1.7 0 0 1-.375-.797 2.7 2.7 0 0 1-.859.953q-.562.39-1.219.39-.703.001-1.219-.484a4.3 4.3 0 0 1-.843-1.172 7 7 0 0 1-.5-1.437 6.4 6.4 0 0 1-.157-1.297 9.7 9.7 0 0 1 .203-1.906q.126-.516.313-1 .187-.5.469-.89.297-.392.687-.626.406-.234.922-.234.562 0 1.078.328t.781.813l.141-2.485q.016-.297.047-.687a4.3 4.3 0 0 1 .125-.766q.11-.36.328-.61t.641-.25q.453 0 .703.22.25.218.359.562.125.328.141.719.031.39.031.734m-2.547 6.938q0-.36-.015-.704a8 8 0 0 1 0-.703 9 9 0 0 0-.219-.437 2 2 0 0 0-.313-.453 1.6 1.6 0 0 0-.39-.36.85.85 0 0 0-.469-.14.6.6 0 0 0-.453.172 1 1 0 0 0-.25.421 2.5 2.5 0 0 0-.11.516q-.015.282-.015.484a7.3 7.3 0 0 0 .14 1.297q.094.375.25.657.157.28.422.28.203 0 .407-.077.203-.094.375-.22.187-.14.343-.296.172-.173.297-.312zm10.125.562q0 .531-.344 1.047a3.8 3.8 0 0 1-.843.906q-.5.39-1.078.64-.579.235-1.063.235a2.76 2.76 0 0 1-1.484-.406 3.9 3.9 0 0 1-1.078-1.063 5.1 5.1 0 0 1-.672-1.406 5.6 5.6 0 0 1-.219-1.515q0-.782.219-1.672.219-.891.656-1.641.453-.75 1.125-1.25.687-.5 1.625-.5.531 0 1.016.188.485.17.843.5.36.328.578.78.219.454.219 1.016 0 .735-.312 1.375a3.7 3.7 0 0 1-.828 1.11 4.4 4.4 0 0 1-1.188.765 4 4 0 0 1-1.375.313q.063.453.359.656.314.204.735.203.312 0 .609-.156a6 6 0 0 0 .578-.344q.282-.203.547-.36.281-.155.563-.155.312 0 .562.203a.65.65 0 0 1 .25.531m-2.531-3.828a.94.94 0 0 0-.109-.422.36.36 0 0 0-.344-.219.9.9 0 0 0-.578.188 1.4 1.4 0 0 0-.391.453q-.156.266-.25.578a3 3 0 0 0-.094.578q.219-.047.516-.125.312-.078.578-.203.282-.14.469-.344a.66.66 0 0 0 .203-.484m13.562 4.406q0 .281-.031.735-.015.452-.125.89a2.1 2.1 0 0 1-.344.735q-.234.312-.656.312-.578 0-.89-.375t-.297-.937q-.5.436-1.141.687-.625.25-1.281.25a1.8 1.8 0 0 1-.86-.219 2.7 2.7 0 0 1-.718-.562 2.8 2.8 0 0 1-.5-.766 2.2 2.2 0 0 1-.188-.86q0-.75.453-1.312a4.3 4.3 0 0 1 1.141-.953q.672-.406 1.422-.64.765-.235 1.359-.313v-.14a.6.6 0 0 0 .016-.141q0-.485-.266-.781t-.75-.297q-.39 0-.672.14a3.3 3.3 0 0 0-.531.297q-.25.156-.5.297a1.24 1.24 0 0 1-.562.125.87.87 0 0 1-.594-.219.74.74 0 0 1-.235-.562q0-.516.297-.938.313-.421.766-.703a4 4 0 0 1 1-.453 3.4 3.4 0 0 1 1-.172q.421 0 .844.11.422.093.797.312.375.203.671.516.313.297.5.703.282.578.454 1.234.172.64.265 1.328.094.672.125 1.36.031.671.031 1.312m-2.5-.5-.046-1.062h-.063a.14.14 0 0 0-.062-.016 1.6 1.6 0 0 0-.516.11 2.3 2.3 0 0 0-.578.28 2.3 2.3 0 0 0-.485.391.7.7 0 0 0-.187.453q0 .219.156.297a.8.8 0 0 0 .36.078q.344 0 .734-.172.39-.186.687-.359m8.297 5q0 .453-.218.844-.22.39-.563.687a2.7 2.7 0 0 1-.781.47 2.3 2.3 0 0 1-.86.171q-.312 0-.64-.062a2 2 0 0 1-.594-.188 2 2 0 0 1-.484-.36 1.4 1.4 0 0 1-.328-.546.44.44 0 0 1-.047-.203.55.55 0 0 1 .187-.422.65.65 0 0 1 .422-.172q.204 0 .328.11l.297.265q.156.14.375.25.219.125.594.125a1 1 0 0 0 .594-.203.64.64 0 0 0 .281-.547.5.5 0 0 0-.172-.39 1.8 1.8 0 0 0-.375-.282l-.438-.25a.86.86 0 0 1-.328-.266q-.125-.17-.125-.5v-.75a2.2 2.2 0 0 1-1.078-.562 3.5 3.5 0 0 1-.703-1.016 5.4 5.4 0 0 1-.391-1.234 6.7 6.7 0 0 1-.125-1.25q0-.516.094-1.094a7.4 7.4 0 0 1 .281-1.14q.188-.563.485-1.079a4.3 4.3 0 0 1 .687-.906 3.4 3.4 0 0 1 .907-.625 2.7 2.7 0 0 1 1.14-.234q.562 0 .985.25t.687.656q.281.406.422.906t.141 1q0 .126-.016.297a.9.9 0 0 1-.047.297 1.4 1.4 0 0 1-.406.547 1 1 0 0 1-.641.219q-.531 0-.734-.532a1.2 1.2 0 0 1-.047-.359q.015-.234-.016-.437a.84.84 0 0 0-.109-.375q-.094-.157-.328-.157-.282 0-.531.344a3.4 3.4 0 0 0-.438.797q-.187.468-.297.953a3.5 3.5 0 0 0-.109.75q0 .203.031.547.047.328.141.656.109.328.281.563a.58.58 0 0 0 .469.234.85.85 0 0 0 .515-.172q.236-.172.453-.375.219-.219.438-.39a.77.77 0 0 1 .484-.172q.328 0 .532.25.218.25.218.578 0 .406-.187.781-.188.36-.485.656-.296.297-.687.516-.375.219-.766.312v.094a2 2 0 0 1-.015.203.4.4 0 0 1-.047.203q.25.094.547.25.297.172.547.391.25.234.421.5.172.282.172.578m8.375-6.765a8.5 8.5 0 0 1-.172 1.703 4.7 4.7 0 0 1-.578 1.515q-.406.657-1.093 1.063-.672.406-1.688.406-1 0-1.672-.39a3.2 3.2 0 0 1-1.078-1.063 4.8 4.8 0 0 1-.562-1.484 9 9 0 0 1-.157-1.688q0-.938.219-1.86.047-.249.172-.687.14-.453.344-.875.219-.438.484-.75.282-.312.609-.312.313 0 .5.172.188.171.297.437.11.25.141.547.031.282.031.515 0 .36-.062.704-.048.343-.11.687l-.125.938a9.5 9.5 0 0 0-.031 1.468q.032.282.125.547.094.266.266.453.172.172.484.172.406 0 .641-.218.25-.22.359-.547.125-.329.156-.703.032-.376.032-.688 0-.687-.094-1.344a51 51 0 0 1-.172-1.36 1.5 1.5 0 0 1 .062-.687q.079-.234.219-.421t.344-.297a.85.85 0 0 1 .453-.125q.344 0 .609.25.266.234.438.625.187.375.297.859.125.469.187.938.079.453.094.859.031.406.031.64m-1.468-7.047q0 .171-.094.343a1.6 1.6 0 0 1-.235.297 2.3 2.3 0 0 1-.281.266q-.156.109-.281.203a8 8 0 0 0-.25.188 3 3 0 0 1-.281.187 3 3 0 0 1-.297.14.7.7 0 0 1-.281.063.4.4 0 0 1-.219-.062.27.27 0 0 1-.094-.22q0-.233.172-.562a4 4 0 0 1 .453-.656q.266-.328.563-.547.297-.234.546-.234.22 0 .391.187.188.172.188.407m8.218 5.515q0 .078-.015.172a1 1 0 0 1-.047.156q-.141.36-.438.61a1.1 1.1 0 0 1-.703.234q-.609 0-.828-.61a.5.5 0 0 1-.031-.171q0-.11-.016-.219v-.453a.9.9 0 0 0-.109-.344q-.078-.125-.266-.125-.266 0-.515.344a3.8 3.8 0 0 0-.422.797 7 7 0 0 0-.282.937 3.8 3.8 0 0 0-.109.782q0 .234.031.578.032.328.125.64.094.313.25.547a.54.54 0 0 0 .438.219.8.8 0 0 0 .484-.156q.235-.172.453-.39.204-.189.438-.392a.87.87 0 0 1 .562-.203q.391 0 .61.282a.97.97 0 0 1 .234.64q0 .532-.281 1a3.2 3.2 0 0 1-.703.797q-.423.328-.938.516a2.7 2.7 0 0 1-.984.203q-.844 0-1.438-.422a3.3 3.3 0 0 1-.937-1.062 5 5 0 0 1-.516-1.422 7.3 7.3 0 0 1-.156-1.453q0-.798.219-1.72.219-.936.672-1.734a4.3 4.3 0 0 1 1.156-1.328q.719-.531 1.703-.531.609 0 1.047.266.453.265.734.703.297.422.438.953.156.531.156 1.047v.156a1 1 0 0 1-.016.156m7.516 3.797q0 .281-.031.735a4.3 4.3 0 0 1-.125.89 2.1 2.1 0 0 1-.344.735q-.234.312-.656.312-.579 0-.891-.375t-.297-.937q-.5.436-1.14.687-.625.25-1.282.25-.453 0-.859-.219a2.7 2.7 0 0 1-.719-.562 2.9 2.9 0 0 1-.5-.766 2.2 2.2 0 0 1-.187-.86q0-.75.453-1.312a4.3 4.3 0 0 1 1.14-.953q.672-.406 1.422-.64.766-.235 1.36-.313v-.14a.6.6 0 0 0 .015-.141q0-.485-.265-.781-.266-.297-.75-.297-.392 0-.672.14a3.3 3.3 0 0 0-.531.297q-.25.156-.5.297a1.25 1.25 0 0 1-.563.125.87.87 0 0 1-.594-.219.74.74 0 0 1-.234-.562q0-.516.297-.938.312-.421.765-.703a4 4 0 0 1 1-.453 3.4 3.4 0 0 1 1-.172q.423 0 .844.11.422.093.797.312.375.203.672.516.312.297.5.703.281.578.453 1.234.172.64.266 1.328.093.672.125 1.36.031.671.031 1.312m-2.5-.5-.047-1.062h-.062a.14.14 0 0 0-.063-.016q-.202 0-.516.11a2.3 2.3 0 0 0-.578.28 2.3 2.3 0 0 0-.484.391.7.7 0 0 0-.188.453q0 .219.157.297a.8.8 0 0 0 .359.078q.344 0 .734-.172.391-.186.688-.359m8.859-3.14q-.218.016-.375-.032l-.312-.125a3 3 0 0 0-.281-.11.6.6 0 0 0-.313-.046q-.312.016-.562.172a2.2 2.2 0 0 0-.438.39 2.7 2.7 0 0 0-.328.532 3 3 0 0 0-.219.562 4 4 0 0 0-.078.578q-.015.375-.016.813-.015.453-.015.86t-.031.64a5 5 0 0 1-.079.594 2.5 2.5 0 0 1-.203.625 1.4 1.4 0 0 1-.343.5.8.8 0 0 1-.563.203.75.75 0 0 1-.469-.157 1.4 1.4 0 0 1-.328-.406 4 4 0 0 1-.219-.61 8 8 0 0 1-.125-.702q-.047-.375-.078-.75-.015-.375-.031-.703v-.625q.016-.282.016-.453-.017-.548-.063-1.094a20 20 0 0 1-.031-1.11q0-.343.031-.765t.172-.781a1.6 1.6 0 0 1 .406-.625q.282-.25.766-.25.266 0 .453.171.188.173.297.422.125.25.187.532.063.28.079.515.375-.609.843-.984.47-.39 1.219-.422.375-.016.734.078.375.078.672.281.313.188.5.5.204.313.219.735.031.5-.297.765t-.797.282M232 35.663q0 .25-.14.64-.125.391-.328.766a2.7 2.7 0 0 1-.438.641q-.25.266-.484.266-.312 0-.313-.313a.9.9 0 0 1 .078-.36q.08-.17.172-.343.094-.157.172-.328a.7.7 0 0 0 .078-.313.9.9 0 0 1-.5.157.79.79 0 0 1-.609-.282.92.92 0 0 1-.25-.625q0-.5.328-.797.328-.312.828-.312.562 0 .985.297.421.297.421.906M50.915 52.335q0 .453-.079 1.031-.062.562-.218 1.157a6.6 6.6 0 0 1-.39 1.156 4.3 4.3 0 0 1-.595 1.015q-.344.438-.812.703a2.06 2.06 0 0 1-1.063.266q-.64 0-1.172-.297a2.9 2.9 0 0 1-.89-.812 1.3 1.3 0 0 1-.344.75 1 1 0 0 1-.75.312q-.266 0-.453-.265a2.4 2.4 0 0 1-.281-.672 7 7 0 0 1-.172-.922 16 16 0 0 1-.063-.969q-.015-.468-.015-.844v-1.593l.03-1.078q0-.267-.015-.797 0-.532.016-1.172.015-.657.062-1.328.063-.688.204-1.25t.39-.922.64-.375q.314 0 .532.218.219.219.36.579.156.36.234.812.093.438.125.89.047.438.047.845.015.39.015.64 0 .046-.015.219v.844q.14-.297.406-.578a3.6 3.6 0 0 1 1.281-.86q.36-.14.688-.14.656 0 1.093.343.454.328.72.844.264.516.374 1.125.11.593.11 1.125m-2.297.469q0-.187-.032-.407a1.1 1.1 0 0 0-.109-.406.8.8 0 0 0-.234-.312.54.54 0 0 0-.375-.125q-.25 0-.5.11a2.3 2.3 0 0 0-.453.28q-.22.172-.407.375-.187.188-.328.375l-.156 1.391q.25.36.61.578.359.203.812.203.343 0 .562-.218.235-.22.36-.532.14-.328.187-.687.063-.36.063-.625m9.89 2.484q0 .281-.03.735-.017.452-.126.89a2.1 2.1 0 0 1-.344.735q-.234.312-.656.312-.578 0-.89-.375-.314-.375-.297-.937-.5.436-1.141.687-.626.25-1.281.25-.453 0-.86-.219a2.7 2.7 0 0 1-.718-.562 2.9 2.9 0 0 1-.5-.766 2.2 2.2 0 0 1-.188-.86q0-.75.453-1.312a4.3 4.3 0 0 1 1.14-.953q.673-.406 1.423-.64.765-.235 1.36-.313v-.14a.6.6 0 0 0 .015-.141q0-.485-.266-.782-.265-.296-.75-.296-.39 0-.672.14a3.3 3.3 0 0 0-.531.297q-.25.156-.5.297a1.24 1.24 0 0 1-.563.125.87.87 0 0 1-.593-.219.74.74 0 0 1-.235-.562q0-.516.297-.938.313-.421.766-.703a4 4 0 0 1 1-.453 3.4 3.4 0 0 1 1-.172q.421 0 .844.11.42.093.796.312.375.203.672.516.313.296.5.703.282.578.453 1.234.173.64.266 1.328.094.672.125 1.36.03.671.031 1.312m-2.5-.5-.047-1.062H55.9a.14.14 0 0 0-.063-.016q-.203 0-.515.11-.296.093-.578.28a2.3 2.3 0 0 0-.485.391.7.7 0 0 0-.187.453q0 .219.156.297a.8.8 0 0 0 .36.078q.343 0 .734-.172.39-.186.687-.359m6.36-6.765q0 .843-.078 1.703a23 23 0 0 0-.063 1.703q0 1.11.063 2.218.078 1.11.078 2.235 0 .28-.032.64a2.1 2.1 0 0 1-.156.641 1.2 1.2 0 0 1-.344.5q-.234.203-.625.203-.375 0-.656-.375a3.3 3.3 0 0 1-.453-.922 12 12 0 0 1-.297-1.28q-.11-.705-.172-1.36a98 98 0 0 1-.078-1.219q-.015-.563-.015-.828 0-.296.015-.86.031-.561.11-1.218.078-.657.203-1.328a7 7 0 0 1 .36-1.235q.218-.562.515-.906.312-.36.734-.36.344 0 .516.235.187.219.265.547.079.312.094.672.015.344.016.593m3.765-1.438a.65.65 0 0 1-.125.39 1.2 1.2 0 0 1-.297.313q-.187.125-.406.203a1.5 1.5 0 0 1-.406.063.96.96 0 0 1-.547-.157q-.234-.156-.234-.484a.74.74 0 0 1 .11-.406q.123-.187.296-.297.172-.125.39-.187.22-.063.422-.063.297 0 .547.14t.25.485m.125 5.313v.468q0 .235-.015.453-.016.266-.016.72 0 .435-.031.952-.032.516-.11 1.047a4.4 4.4 0 0 1-.218.969 2 2 0 0 1-.422.719.9.9 0 0 1-.64.28.58.58 0 0 1-.5-.233 2.2 2.2 0 0 1-.345-.641 5.4 5.4 0 0 1-.187-.89 17 17 0 0 1-.094-.954q-.03-.468-.031-.86v-1.28q0-.47.031-1 .031-.532.11-1.079.093-.546.25-1a2.2 2.2 0 0 1 .437-.734.88.88 0 0 1 .672-.281q.422 0 .64.422.22.42.329.984.109.562.125 1.125.015.546.015.813m5.547 6.03q-.266 0-.422-.25a1.7 1.7 0 0 1-.234-.546 4.4 4.4 0 0 1-.11-.625 11 11 0 0 1-.015-.5q0-.469.047-.938l.125-.937q.078-.469.125-.938a7 7 0 0 0 .062-.937q0-.187-.015-.406a1.7 1.7 0 0 0-.078-.407.66.66 0 0 0-.172-.328.44.44 0 0 0-.328-.125q-.14 0-.313.235a3.4 3.4 0 0 0-.328.515 6 6 0 0 0-.25.578 1.5 1.5 0 0 0-.094.422v.703q.016.345.016.703v.907q-.015.28-.047.578-.03.297-.094.578-.047.282-.14.547a1.7 1.7 0 0 1-.25.453q-.141.188-.344.313a.9.9 0 0 1-.485.124.7.7 0 0 1-.515-.203 1.5 1.5 0 0 1-.328-.515 3.6 3.6 0 0 1-.188-.719q-.047-.406-.078-.781a18 18 0 0 1-.016-.703q.016-.33.016-.516v-.734q0-.594-.031-1.172a43 43 0 0 1-.016-1.157v-.796a4.6 4.6 0 0 1 .125-.938q.11-.468.36-.797.25-.328.734-.328a.6.6 0 0 1 .39.14q.172.142.297.345.14.202.22.437.093.235.14.406a3.4 3.4 0 0 1 .36-.422q.217-.203.484-.359a2.54 2.54 0 0 1 1.343-.344q.797 0 1.235.39.453.376.656.954.219.562.266 1.219.046.656.046 1.187 0 .266-.046.797-.048.516-.157 1.156-.093.626-.265 1.297-.172.657-.407 1.203a3 3 0 0 1-.562.891q-.312.344-.719.344m10.125-4.484q0 .266-.015.797 0 .516-.047 1.094-.031.562-.094 1.078-.063.5-.156.735-.126.297-.328.515a.71.71 0 0 1-.547.219q-.532 0-.766-.422t-.312-1.047a9.4 9.4 0 0 1-.063-1.36q.015-.733-.016-1.359a4 4 0 0 0-.171-1.047q-.141-.42-.516-.421-.516 0-.797.172a.95.95 0 0 0-.39.421q-.11.265-.141.61-.015.343-.047.718-.031.36-.047.97-.015.608-.14 1.202-.126.594-.422 1.032-.282.421-.844.422a.7.7 0 0 1-.563-.266 2.1 2.1 0 0 1-.328-.688 6 6 0 0 1-.187-.937 17 17 0 0 1-.063-1v-.906q.016-.406.016-.61 0-.312.015-1.031.032-.719.11-1.594.078-.89.203-1.828t.328-1.703q.203-.78.484-1.266.297-.484.688-.468.25.015.422.218.188.204.297.532.124.312.203.687.078.375.11.75.046.36.046.672.016.312.016.484a21 21 0 0 1-.063 1.625q.36-.484.953-.797a2.65 2.65 0 0 1 1.22-.312q.78 0 1.17.438.408.42.58 1.062.17.625.187 1.344.015.702.015 1.265m7.75 1.844q0 .281-.031.735a4.3 4.3 0 0 1-.125.89 2.1 2.1 0 0 1-.344.735q-.234.312-.656.312-.578 0-.89-.375t-.298-.937q-.5.436-1.14.687-.626.25-1.281.25-.454 0-.86-.219a2.7 2.7 0 0 1-.719-.562 2.9 2.9 0 0 1-.5-.766 2.2 2.2 0 0 1-.187-.86q0-.75.453-1.312a4.3 4.3 0 0 1 1.14-.953q.673-.406 1.423-.64.765-.235 1.359-.313v-.14a.6.6 0 0 0 .016-.141q0-.485-.266-.782-.266-.296-.75-.296-.39 0-.672.14a3.3 3.3 0 0 0-.531.297q-.25.156-.5.297a1.24 1.24 0 0 1-.563.125.87.87 0 0 1-.593-.219.74.74 0 0 1-.235-.562q0-.516.297-.938.312-.421.766-.703a4 4 0 0 1 1-.453 3.4 3.4 0 0 1 1-.172q.42 0 .843.11.422.093.797.312.375.203.672.516.312.296.5.703.282.578.453 1.234.172.64.266 1.328.093.672.125 1.36.03.671.031 1.312m-2.5-.5-.047-1.062h-.062a.14.14 0 0 0-.063-.016q-.203 0-.515.11-.297.093-.578.28a2.3 2.3 0 0 0-.485.391.7.7 0 0 0-.187.453q0 .219.156.297a.8.8 0 0 0 .36.078q.342 0 .734-.172.39-.186.687-.359m8.016-5.89q0 .452-.313.671a6 6 0 0 1-.672.422 3.4 3.4 0 0 0-.687.453q-.297.266-.297.797 0 .282.125.485.14.202.328.375.203.156.438.328.234.171.422.39a1.7 1.7 0 0 1 .328.532q.14.312.14.765 0 .657-.343 1.297a4.3 4.3 0 0 1-.86 1.125 4.3 4.3 0 0 1-1.172.781q-.656.297-1.297.297-.266 0-.53-.047a1.5 1.5 0 0 1-.485-.14 1.04 1.04 0 0 1-.344-.297.9.9 0 0 1-.14-.516q0-.436.171-.672.172-.25.438-.39.265-.141.562-.219.313-.079.578-.187.266-.126.438-.313.172-.188.172-.531 0-.328-.266-.672-.25-.36-.562-.75a8 8 0 0 1-.578-.86 2.04 2.04 0 0 1-.25-1q0-.671.265-1.234a3.4 3.4 0 0 1 .735-1 3.5 3.5 0 0 1 1.062-.656 3.2 3.2 0 0 1 1.25-.25q.25 0 .484.047.25.046.438.172a.8.8 0 0 1 .297.312.86.86 0 0 1 .125.485m2.875 7.765q0 .25-.14.64-.126.391-.329.766a2.7 2.7 0 0 1-.437.641q-.25.266-.485.266-.312 0-.312-.313 0-.187.078-.36.079-.17.172-.343.093-.157.172-.328a.7.7 0 0 0 .078-.313.9.9 0 0 1-.5.157.79.79 0 0 1-.61-.282.92.92 0 0 1-.25-.625q0-.5.328-.797.329-.312.829-.312.563 0 .984.297t.422.906m13.875-4.328v.813q0 .5-.031 1.093-.016.594-.094 1.203a5.3 5.3 0 0 1-.25 1.078q-.156.485-.406.797a.79.79 0 0 1-.641.313.6.6 0 0 1-.531-.281 2.2 2.2 0 0 1-.25-.688 5 5 0 0 1-.094-.797v-.64q0-.705.047-1.375.047-.672.047-1.375v-.282q0-.202-.032-.406a1.2 1.2 0 0 0-.109-.36q-.062-.155-.203-.155-.282 0-.453.296a2.6 2.6 0 0 0-.281.672q-.11.39-.157.782-.047.375-.062.562a9 9 0 0 0-.063.61q-.015.405-.062.89a9 9 0 0 1-.125 1 6 6 0 0 1-.219.922q-.125.406-.328.672-.203.265-.5.265a.64.64 0 0 1-.578-.328 2.4 2.4 0 0 1-.297-.765 6 6 0 0 1-.125-.891q-.016-.454-.016-.703v-.516q.016-.25.016-.515v-.36q0-.25-.016-.547 0-.312-.031-.64a5 5 0 0 0-.062-.594 1.5 1.5 0 0 0-.141-.453q-.094-.172-.219-.172-.203 0-.375.266-.171.25-.297.609a6 6 0 0 0-.203.688q-.062.343-.062.5v.093q0 .75.093 1.469.094.72.094 1.469 0 .437-.281.812-.282.36-.781.36a.76.76 0 0 1-.594-.266 2.4 2.4 0 0 1-.391-.719 6 6 0 0 1-.25-.953 13 13 0 0 1-.109-1.031 39 39 0 0 1-.047-.922v-.625a20 20 0 0 0-.016-.687q0-.453.016-.985.031-.53.094-1.078a5.4 5.4 0 0 1 .203-1.016q.14-.453.359-.734a.73.73 0 0 1 .594-.297q.407 0 .656.219.266.218.266.656 0 .094-.016.188 0 .093-.015.172a3.5 3.5 0 0 1 .422-.5q.249-.267.531-.47.297-.218.625-.343.328-.14.656-.14.312 0 .563.171t.437.438a2.6 2.6 0 0 1 .313.547q.124.296.171.562a5 5 0 0 1 .375-.562q.235-.297.5-.516.266-.219.579-.36.327-.14.671-.14.329 0 .563.234t.406.61q.172.36.266.828.093.453.156.906.063.438.078.828.016.375.016.594m7.578 2.375q0 .531-.344 1.047-.328.5-.844.906a5 5 0 0 1-1.078.64q-.578.235-1.062.235a2.77 2.77 0 0 1-1.485-.406 3.9 3.9 0 0 1-1.078-1.063 5.2 5.2 0 0 1-.672-1.406 5.6 5.6 0 0 1-.218-1.515q0-.782.218-1.672a6.1 6.1 0 0 1 .657-1.641q.453-.75 1.125-1.25.687-.5 1.625-.5.53 0 1.015.188a2.45 2.45 0 0 1 1.422 1.28q.219.454.219 1.016 0 .735-.313 1.375a3.6 3.6 0 0 1-.828 1.11 4.4 4.4 0 0 1-1.187.765 4 4 0 0 1-1.375.313q.062.453.359.656.313.203.735.203.312 0 .609-.156a6 6 0 0 0 .578-.344q.282-.203.547-.36.281-.155.562-.155a.87.87 0 0 1 .563.203.65.65 0 0 1 .25.531m-2.531-3.828a.94.94 0 0 0-.11-.422.36.36 0 0 0-.343-.219.9.9 0 0 0-.579.188 1.4 1.4 0 0 0-.39.453q-.156.266-.25.578a3 3 0 0 0-.094.578q.219-.047.516-.125.312-.078.578-.203.281-.14.469-.344a.66.66 0 0 0 .203-.484m6.078-2.86q0 .844-.078 1.704-.063.843-.063 1.703 0 1.11.063 2.218.078 1.11.078 2.235 0 .28-.031.64-.031.344-.157.641a1.2 1.2 0 0 1-.343.5q-.235.203-.625.203-.375 0-.657-.375a3.3 3.3 0 0 1-.453-.922 12 12 0 0 1-.297-1.28q-.11-.705-.172-1.36a107 107 0 0 1-.078-1.219 35 35 0 0 1-.015-.828q0-.296.015-.86.032-.561.11-1.218t.203-1.328a7 7 0 0 1 .359-1.235q.219-.562.516-.906.312-.36.734-.36.343 0 .516.235.187.219.265.547.08.312.094.672.016.344.016.593m7.922 9.922q-.798 0-1.391-.422a3.7 3.7 0 0 1-1-1.078 5.2 5.2 0 0 1-.609-1.453 6.5 6.5 0 0 1-.203-1.593q0-.829.203-1.704.202-.89.625-1.609.421-.735 1.078-1.187.656-.47 1.562-.47.875 0 1.485.485.625.469 1 1.188.375.702.531 1.547a6.5 6.5 0 0 1 .109 1.593 8.6 8.6 0 0 1-.265 1.672 5.3 5.3 0 0 1-.61 1.516 3.5 3.5 0 0 1-1.031 1.093q-.625.422-1.484.422m.156-7.062q-.234 0-.422.25-.172.25-.297.61-.11.358-.172.765-.062.39-.062.687 0 .375.062.813.078.437.203.812.126.36.297.61.188.234.422.234.25 0 .422-.234.188-.235.297-.594.11-.36.156-.781a8 8 0 0 0 .047-.813q0-.343-.062-.75a4.3 4.3 0 0 0-.188-.781 1.8 1.8 0 0 0-.297-.594q-.172-.234-.406-.234m10.875 2.14a8.5 8.5 0 0 1-.172 1.704 4.7 4.7 0 0 1-.578 1.515 3.14 3.14 0 0 1-1.094 1.063q-.672.406-1.687.406-1 0-1.672-.39a3.2 3.2 0 0 1-1.078-1.063 4.8 4.8 0 0 1-.563-1.484 9 9 0 0 1-.156-1.688q0-.937.219-1.86.046-.249.172-.687a6 6 0 0 1 .343-.875q.22-.438.485-.75.28-.312.609-.312.312 0 .5.172t.297.437q.11.25.141.547.03.281.031.516 0 .358-.063.703-.046.343-.109.687l-.125.938a9.5 9.5 0 0 0-.031 1.468q.031.282.125.547t.265.453q.172.172.485.172.406 0 .64-.218.25-.22.36-.547.124-.329.156-.703.031-.376.031-.688 0-.687-.094-1.344a56 56 0 0 1-.171-1.36 1.5 1.5 0 0 1 .062-.687q.078-.234.219-.421.14-.189.344-.297a.85.85 0 0 1 .453-.125q.344 0 .609.25.266.234.438.625.188.375.296.859.125.469.188.938.078.452.094.859.031.406.031.64m10.141-1.374q-.219.015-.375-.032l-.313-.125a3 3 0 0 0-.281-.11.6.6 0 0 0-.313-.046q-.312.015-.562.172a2.2 2.2 0 0 0-.438.39 2.7 2.7 0 0 0-.328.532 3 3 0 0 0-.219.562 4 4 0 0 0-.078.578q-.015.375-.015.813a24 24 0 0 0-.016.86q0 .406-.031.64a6 6 0 0 1-.078.594 2.6 2.6 0 0 1-.203.625 1.4 1.4 0 0 1-.344.5.8.8 0 0 1-.563.203.75.75 0 0 1-.468-.157 1.5 1.5 0 0 1-.329-.406 4 4 0 0 1-.218-.61 8 8 0 0 1-.125-.702q-.048-.375-.078-.75-.016-.375-.032-.703v-.625q.016-.282.016-.453-.015-.548-.063-1.094-.03-.562-.031-1.11 0-.344.031-.765.032-.422.172-.782a1.6 1.6 0 0 1 .407-.624q.28-.25.765-.25.265 0 .453.171.187.172.297.422.125.25.188.532.062.28.078.515.375-.609.844-.984.468-.39 1.218-.422.375-.015.735.078.375.078.672.281.312.188.5.5.203.313.218.735.031.5-.297.765t-.796.282m7.875 3.062q0 .531-.344 1.047-.328.5-.844.906-.5.39-1.078.64-.578.235-1.063.235a2.76 2.76 0 0 1-1.484-.406 3.9 3.9 0 0 1-1.078-1.063 5.1 5.1 0 0 1-.672-1.406 5.6 5.6 0 0 1-.219-1.515q0-.782.219-1.672.22-.891.656-1.641.453-.75 1.125-1.25.688-.5 1.625-.5.531 0 1.016.188a2.45 2.45 0 0 1 1.422 1.28q.219.454.219 1.016a3.1 3.1 0 0 1-.313 1.375 3.6 3.6 0 0 1-.828 1.11 4.4 4.4 0 0 1-1.188.765 4 4 0 0 1-1.375.313q.063.453.36.656.312.203.734.203.313 0 .61-.156.296-.156.578-.344.28-.203.547-.36.281-.155.562-.155.312 0 .563.203t.25.531m-2.532-3.828a.94.94 0 0 0-.109-.422.36.36 0 0 0-.344-.219.9.9 0 0 0-.578.188 1.4 1.4 0 0 0-.391.453q-.156.266-.25.578a3 3 0 0 0-.093.578q.219-.047.515-.125a3 3 0 0 0 .578-.203q.282-.14.469-.344a.66.66 0 0 0 .203-.484m9.703-2.734q0 .296-.062.578a1.2 1.2 0 0 1-.188.468 1 1 0 0 1-.375.328q-.234.11-.578.11-.39 0-.578-.156a.86.86 0 0 1-.265-.375 2 2 0 0 1-.063-.5q0-.266-.031-.485a.9.9 0 0 0-.11-.39q-.094-.157-.343-.157-.235 0-.391.36-.141.36-.234.828a7 7 0 0 0-.125.922q-.032.438-.032.593a6 6 0 0 1 .391-.046q.187-.032.406-.032t.453.047q.236.048.438.157a.8.8 0 0 1 .328.28q.125.172.125.438 0 .282-.25.5a2.1 2.1 0 0 1-.578.375 5 5 0 0 1-.672.235 5 5 0 0 1-.547.125q.047 1.077.047 2.172 0 1.03-.047 2.03a1.2 1.2 0 0 1-.344.798q-.296.312-.781.312a.9.9 0 0 1-.453-.11.85.85 0 0 1-.312-.265 1.6 1.6 0 0 1-.204-.39 2.3 2.3 0 0 1-.078-.454 59 59 0 0 1-.125-1.875q-.046-.952-.031-1.906a2 2 0 0 1-.219.016h-.203a2.7 2.7 0 0 1-.969-.203 1.7 1.7 0 0 1-.406-.297.6.6 0 0 1-.172-.438q0-.344.235-.578.219-.234.531-.375.329-.156.672-.219.359-.062.625-.093v-.25q0-.766.14-1.641a6 6 0 0 1 .5-1.625q.36-.75.985-1.234.625-.5 1.594-.5.61 0 1.046.265.438.25.719.672.282.405.406.938.125.515.125 1.047m4.844 3.5q-.219.015-.375-.032l-.312-.125a3 3 0 0 0-.282-.11.6.6 0 0 0-.312-.046q-.312.015-.563.172a2.2 2.2 0 0 0-.437.39 2.7 2.7 0 0 0-.328.532 3 3 0 0 0-.219.562 4 4 0 0 0-.078.578q-.016.375-.016.813-.015.453-.015.86t-.032.64q-.015.249-.078.594a2.5 2.5 0 0 1-.203.625 1.4 1.4 0 0 1-.344.5.8.8 0 0 1-.562.203.75.75 0 0 1-.469-.157 1.4 1.4 0 0 1-.328-.406 4 4 0 0 1-.219-.61 8 8 0 0 1-.125-.702q-.047-.375-.078-.75-.015-.375-.031-.703v-.625q.016-.282.016-.453-.017-.548-.063-1.094a20 20 0 0 1-.031-1.11q0-.344.031-.765t.172-.782a1.6 1.6 0 0 1 .406-.624q.282-.25.766-.25.266 0 .453.171.188.172.297.422.125.25.187.532.063.28.078.515.375-.609.844-.984.47-.39 1.219-.422.375-.015.734.078.375.078.672.281.313.188.5.5.204.313.219.735.031.5-.297.765t-.797.282m3.906-5.063a.64.64 0 0 1-.125.39 1.2 1.2 0 0 1-.296.313 2 2 0 0 1-.407.203 1.5 1.5 0 0 1-.406.063.96.96 0 0 1-.547-.157q-.234-.156-.234-.484a.74.74 0 0 1 .109-.406 1 1 0 0 1 .297-.297q.172-.125.391-.187.219-.063.422-.063.296 0 .546.14t.25.485m.125 5.313v.468q0 .235-.015.453-.016.266-.016.72 0 .435-.031.952t-.109 1.047a4.4 4.4 0 0 1-.219.969 2 2 0 0 1-.422.719.9.9 0 0 1-.641.28.58.58 0 0 1-.5-.233 2.2 2.2 0 0 1-.343-.641 5.3 5.3 0 0 1-.188-.89 17 17 0 0 1-.094-.954 13 13 0 0 1-.031-.86v-1.28q0-.47.031-1 .032-.532.11-1.079a6.3 6.3 0 0 1 .25-1q.171-.453.437-.734a.88.88 0 0 1 .672-.281q.422 0 .641.422.219.42.328.984.109.562.125 1.125.015.546.015.813m8.188.265q0 .797-.031 1.594a28 28 0 0 1-.078 1.594q-.048.687-.125 1.468-.08.782-.25 1.547a9.5 9.5 0 0 1-.454 1.485q-.28.718-.75 1.265a3.4 3.4 0 0 1-1.109.875q-.656.328-1.562.328-.422 0-.954-.14a4.2 4.2 0 0 1-.984-.375 2.9 2.9 0 0 1-.781-.625 1.24 1.24 0 0 1-.313-.844q0-.36.25-.672a.86.86 0 0 1 .672-.297q.25 0 .469.078.234.094.453.203.234.11.438.188.218.094.437.094.578 0 .969-.297.39-.282.625-.734a3.6 3.6 0 0 0 .344-.97q.124-.515.171-.984-.312.36-.734.5a2.9 2.9 0 0 1-.859.125q-.828 0-1.407-.28a2.6 2.6 0 0 1-.937-.798 3.6 3.6 0 0 1-.531-1.187 5.8 5.8 0 0 1-.172-1.453q0-.485.094-1.094a9.2 9.2 0 0 1 .812-2.453q.312-.594.719-1.047t.906-.734a2.3 2.3 0 0 1 1.125-.282q.594 0 1.047.344.469.344.547.969.171-.329.453-.64a.87.87 0 0 1 .687-.329q.219 0 .36.219.156.218.234.578.095.343.141.766.047.405.062.812.016.39.016.719zm-2.375 1.016q0-.235-.078-.61-.063-.376-.203-.718a2 2 0 0 0-.328-.594q-.203-.25-.485-.25a.94.94 0 0 0-.64.25q-.267.25-.454.61-.188.342-.296.75a3 3 0 0 0-.094.671q0 .204.031.547.032.344.125.672.11.328.281.562a.54.54 0 0 0 .453.235q.422 0 .735-.203.312-.204.515-.516.22-.312.329-.687t.109-.72m10.031 1.531q0 .531-.344 1.047a3.8 3.8 0 0 1-.843.906q-.5.39-1.078.64-.579.235-1.063.235a2.76 2.76 0 0 1-1.484-.406 3.9 3.9 0 0 1-1.078-1.063 5.1 5.1 0 0 1-.672-1.406 5.6 5.6 0 0 1-.219-1.515q0-.782.219-1.672.219-.891.656-1.641.453-.75 1.125-1.25.687-.5 1.625-.5.531 0 1.016.188.484.17.843.5.36.328.578.78.219.454.219 1.016 0 .735-.312 1.375a3.7 3.7 0 0 1-.828 1.11 4.4 4.4 0 0 1-1.188.765 4 4 0 0 1-1.375.313q.063.453.359.656.314.203.735.203.312 0 .609-.156a6 6 0 0 0 .578-.344q.282-.203.547-.36.281-.155.563-.155.312 0 .562.203a.65.65 0 0 1 .25.531m-2.531-3.828a.95.95 0 0 0-.109-.422.36.36 0 0 0-.344-.219.9.9 0 0 0-.578.188 1.4 1.4 0 0 0-.391.453q-.156.266-.25.578a3 3 0 0 0-.094.578q.219-.047.516-.125.312-.078.578-.203.282-.14.469-.344a.66.66 0 0 0 .203-.484m8.578.766q-.219.015-.375-.032l-.312-.125a3 3 0 0 0-.282-.11.6.6 0 0 0-.312-.046q-.313.015-.563.172a2.2 2.2 0 0 0-.437.39 2.7 2.7 0 0 0-.328.532 3 3 0 0 0-.219.562 4 4 0 0 0-.078.578q-.016.375-.016.813-.015.453-.015.86t-.032.64q-.015.249-.078.594a2.5 2.5 0 0 1-.203.625 1.4 1.4 0 0 1-.344.5.8.8 0 0 1-.562.203.75.75 0 0 1-.469-.157 1.4 1.4 0 0 1-.328-.406 4 4 0 0 1-.219-.61 8 8 0 0 1-.125-.702q-.046-.375-.078-.75-.015-.375-.031-.703v-.625q.015-.282.015-.453-.015-.548-.062-1.094a20 20 0 0 1-.031-1.11q0-.344.031-.765t.172-.782a1.6 1.6 0 0 1 .406-.624q.282-.25.766-.25.265 0 .453.171.187.172.297.422.125.25.187.532.063.28.078.515.376-.609.844-.984.47-.39 1.219-.422.375-.015.734.078.375.078.672.281.312.188.5.5.203.313.219.735.031.5-.297.765t-.797.282m7.969 3.64q0 .281-.031.735a4.4 4.4 0 0 1-.125.89 2.1 2.1 0 0 1-.344.735q-.234.312-.656.312-.579 0-.891-.375t-.297-.937a3.8 3.8 0 0 1-1.141.687q-.624.25-1.281.25-.453 0-.859-.219a2.7 2.7 0 0 1-.719-.562 2.9 2.9 0 0 1-.5-.766 2.2 2.2 0 0 1-.187-.86q0-.75.453-1.312a4.2 4.2 0 0 1 1.14-.953q.672-.406 1.422-.64.766-.235 1.36-.313v-.14a.6.6 0 0 0 .015-.141q0-.485-.265-.782-.267-.296-.75-.296-.391 0-.672.14a3.3 3.3 0 0 0-.532.297q-.25.156-.5.297a1.24 1.24 0 0 1-.562.125.87.87 0 0 1-.594-.219.74.74 0 0 1-.234-.562q0-.516.297-.938.312-.421.765-.703a4 4 0 0 1 1-.453 3.4 3.4 0 0 1 1-.172q.423 0 .844.11.422.093.797.312.375.203.672.516.312.296.5.703.28.578.453 1.234.172.64.266 1.328.093.672.125 1.36.03.671.031 1.312m-2.5-.5-.047-1.062h-.063a.13.13 0 0 0-.062-.016q-.202 0-.516.11-.297.093-.578.28a2.3 2.3 0 0 0-.484.391.7.7 0 0 0-.188.453q0 .219.157.297a.8.8 0 0 0 .359.078q.344 0 .734-.172.391-.186.688-.359m7.875 3.14q-.266 0-.422-.25a1.7 1.7 0 0 1-.234-.546 4 4 0 0 1-.11-.625q-.015-.329-.015-.5 0-.469.046-.938l.125-.937q.079-.469.125-.938a7 7 0 0 0 .063-.937q0-.187-.016-.406a1.6 1.6 0 0 0-.078-.407.66.66 0 0 0-.172-.328.44.44 0 0 0-.328-.125q-.141 0-.312.235a3.3 3.3 0 0 0-.328.515q-.141.282-.25.578a1.5 1.5 0 0 0-.094.422v.703q.015.345.015.703v.907q-.015.28-.046.578-.032.297-.094.578-.047.282-.141.547a1.7 1.7 0 0 1-.25.453 1.2 1.2 0 0 1-.344.313.9.9 0 0 1-.484.124.7.7 0 0 1-.516-.203 1.5 1.5 0 0 1-.328-.515 3.6 3.6 0 0 1-.187-.719q-.047-.406-.078-.781-.016-.39-.016-.703.016-.33.016-.516v-.734q0-.594-.032-1.172-.015-.578-.015-1.157v-.796q.015-.485.125-.938.11-.468.359-.797.25-.328.735-.328a.6.6 0 0 1 .39.14q.173.142.297.345.141.202.219.437.093.235.14.406.157-.218.36-.422.219-.203.484-.359a2.54 2.54 0 0 1 1.344-.344q.797 0 1.234.39.453.376.657.954.218.562.265 1.219.047.656.047 1.187 0 .266-.047.797-.046.516-.156 1.156a13 13 0 0 1-.266 1.297q-.172.657-.406 1.203a3 3 0 0 1-.562.891q-.313.344-.719.344m6.672.126q-1.11 0-1.735-.297a2 2 0 0 1-.922-.813q-.296-.53-.359-1.28-.062-.75-.062-1.673 0-.735.046-1.468.048-.75.141-1.594-.218 0-.344.015h-.203a1.6 1.6 0 0 1-.859-.218q-.375-.219-.375-.672 0-.282.219-.5a1.7 1.7 0 0 1 .531-.375q.328-.157.703-.25.39-.095.734-.125 0-.438.063-.969.062-.531.219-.984.171-.469.453-.782a.92.92 0 0 1 .718-.312q.25 0 .438.156.203.141.328.375a1.8 1.8 0 0 1 .188.5q.062.282.062.547 0 .312-.047.64-.046.33-.172.813.265-.03.36-.031.093-.016.172-.016.266 0 .546.047.297.046.532.156.25.11.406.297a.6.6 0 0 1 .156.422.67.67 0 0 1-.234.5q-.22.218-.563.375a4 4 0 0 1-.734.25q-.39.078-.734.11-.094.64-.141 1.187-.031.53-.078 1.078l-.063.547q-.015.266-.015.547 0 .203.015.484.016.266.11.516.093.25.297.437.202.172.562.172.219 0 .453-.031.235-.047.469-.047.406 0 .578.281.188.281.188.72a.9.9 0 0 1-.204.577 1.34 1.34 0 0 1-.484.375 2.6 2.6 0 0 1-.672.235 3.2 3.2 0 0 1-.687.078m8.906-3.344q0 .531-.344 1.047-.328.5-.844.906a5 5 0 0 1-1.078.64q-.578.235-1.062.235a2.77 2.77 0 0 1-1.485-.406 3.9 3.9 0 0 1-1.078-1.063 5.2 5.2 0 0 1-.672-1.406 5.6 5.6 0 0 1-.218-1.515q0-.782.218-1.672a6.1 6.1 0 0 1 .657-1.641q.453-.75 1.125-1.25.687-.5 1.625-.5.53 0 1.015.188a2.45 2.45 0 0 1 1.422 1.28q.219.454.219 1.016 0 .735-.313 1.375a3.6 3.6 0 0 1-.828 1.11 4.4 4.4 0 0 1-1.187.765 4 4 0 0 1-1.375.313q.062.453.359.656.313.203.735.203.312 0 .609-.156a6 6 0 0 0 .578-.344q.282-.203.547-.36.281-.155.562-.155a.87.87 0 0 1 .563.203.65.65 0 0 1 .25.531m-2.531-3.828a.94.94 0 0 0-.11-.422.36.36 0 0 0-.343-.219.9.9 0 0 0-.579.188 1.4 1.4 0 0 0-.39.453q-.157.266-.25.578a3 3 0 0 0-.094.578q.219-.047.516-.125.312-.078.578-.203.281-.14.469-.344a.66.66 0 0 0 .203-.484M54.782 72.492q0 .077-.016.171a1 1 0 0 1-.047.156q-.14.36-.437.61a1.1 1.1 0 0 1-.703.234q-.61 0-.828-.61a.5.5 0 0 1-.032-.171q0-.11-.015-.219v-.453a.9.9 0 0 0-.11-.344q-.078-.125-.265-.125-.267 0-.516.344a3.8 3.8 0 0 0-.422.797 7 7 0 0 0-.281.937q-.11.485-.11.782 0 .234.032.578.03.328.125.64.093.313.25.547.171.219.437.219a.8.8 0 0 0 .485-.156q.234-.172.453-.39.203-.189.437-.392a.87.87 0 0 1 .563-.203q.39 0 .61.282a.97.97 0 0 1 .233.64q0 .531-.28 1a3.2 3.2 0 0 1-.704.797 3.4 3.4 0 0 1-.937.516 2.7 2.7 0 0 1-.985.203q-.843 0-1.437-.422a3.3 3.3 0 0 1-.938-1.062 5 5 0 0 1-.515-1.422 7.3 7.3 0 0 1-.157-1.454q0-.796.22-1.718.218-.937.671-1.735a4.3 4.3 0 0 1 1.156-1.328q.72-.531 1.703-.531.61 0 1.047.266.453.265.735.703.296.422.437.953.156.531.156 1.047v.156a1 1 0 0 1-.015.156m3.844 6.452q-.797 0-1.391-.422a3.7 3.7 0 0 1-1-1.078 5.2 5.2 0 0 1-.61-1.453 6.6 6.6 0 0 1-.203-1.594q0-.828.204-1.703.202-.89.625-1.609a3.6 3.6 0 0 1 1.078-1.187q.656-.47 1.562-.47.875 0 1.485.485.625.469 1 1.188.375.703.53 1.546.157.844.11 1.594a8.6 8.6 0 0 1-.265 1.672 5.3 5.3 0 0 1-.61 1.516 3.5 3.5 0 0 1-1.031 1.093q-.626.422-1.484.422m.156-7.062q-.234 0-.422.25-.173.25-.297.61a5.5 5.5 0 0 0-.172.765q-.062.39-.062.687 0 .375.062.813.078.437.203.812.125.36.297.61.188.234.422.234.25 0 .422-.234.187-.236.297-.594.11-.36.156-.781.047-.438.047-.813 0-.343-.063-.75a4.3 4.3 0 0 0-.187-.781 1.8 1.8 0 0 0-.297-.594q-.172-.234-.406-.234m13.515 1.453v.813q0 .5-.03 1.093-.017.594-.095 1.203a5.3 5.3 0 0 1-.25 1.078q-.156.485-.406.797a.78.78 0 0 1-.64.313.6.6 0 0 1-.532-.281 2.2 2.2 0 0 1-.25-.688 5 5 0 0 1-.093-.797v-.64q0-.704.046-1.375.047-.672.047-1.375v-.282q0-.202-.031-.406a1.2 1.2 0 0 0-.11-.36q-.062-.155-.203-.156-.28 0-.453.297a2.7 2.7 0 0 0-.28.672 5 5 0 0 0-.157.781q-.046.375-.063.563-.03.203-.062.61-.015.405-.063.89-.03.484-.125 1-.078.5-.218.922-.126.406-.328.672-.204.265-.5.265a.64.64 0 0 1-.579-.328 2.4 2.4 0 0 1-.296-.765 6 6 0 0 1-.126-.891q-.015-.453-.015-.703v-.516q.016-.25.016-.515v-.36q0-.25-.016-.547 0-.312-.031-.64a5 5 0 0 0-.063-.594 1.5 1.5 0 0 0-.14-.453q-.094-.172-.22-.172-.203 0-.374.266-.172.25-.297.609-.125.344-.203.688-.063.343-.063.5v.093q0 .75.094 1.469t.094 1.469q0 .437-.281.812-.281.36-.782.36a.76.76 0 0 1-.593-.266 2.3 2.3 0 0 1-.391-.719 6 6 0 0 1-.25-.953 12 12 0 0 1-.11-1.031q-.03-.516-.046-.922v-.625q0-.234-.016-.687 0-.453.016-.985.03-.53.093-1.078.063-.563.204-1.016t.359-.734a.73.73 0 0 1 .594-.297q.406 0 .656.219.266.219.266.656 0 .094-.016.188 0 .094-.016.171a3.6 3.6 0 0 1 .422-.5q.25-.266.531-.468.297-.219.625-.344.33-.14.657-.14a.97.97 0 0 1 .562.171q.25.172.438.438.188.25.312.547t.172.562q.157-.281.375-.562.234-.297.5-.516t.578-.36a1.7 1.7 0 0 1 .672-.14q.328 0 .563.234t.406.61q.172.36.265.828.094.453.157.906.061.438.078.828.015.375.015.594m7.875.688a8.5 8.5 0 0 1-.171 1.703 4.7 4.7 0 0 1-.579 1.515q-.406.657-1.093 1.063-.672.406-1.688.406-1 0-1.672-.39a3.2 3.2 0 0 1-1.078-1.063 4.8 4.8 0 0 1-.562-1.485 9 9 0 0 1-.157-1.687q0-.937.22-1.86.046-.249.171-.687a6.4 6.4 0 0 1 .344-.875q.219-.438.484-.75.281-.312.61-.312.311 0 .5.171.186.172.296.438.11.25.141.547.03.281.031.515 0 .36-.062.704-.047.343-.11.687l-.125.938a9.4 9.4 0 0 0-.03 1.468q.03.282.124.547t.266.453q.172.172.484.172.406 0 .64-.219.25-.218.36-.546.125-.33.156-.704.032-.375.032-.687 0-.687-.094-1.344a54 54 0 0 1-.172-1.36 1.5 1.5 0 0 1 .063-.687q.078-.234.218-.422t.344-.296a.85.85 0 0 1 .453-.125q.344 0 .61.25.265.234.437.625.188.375.297.859.125.469.187.938.079.453.094.859.03.406.031.64m10.438-.688v.813q0 .5-.031 1.093-.016.594-.094 1.203a5.3 5.3 0 0 1-.25 1.078q-.156.485-.406.797a.78.78 0 0 1-.641.313.6.6 0 0 1-.531-.281 2.2 2.2 0 0 1-.25-.688 5 5 0 0 1-.094-.797v-.64q0-.704.047-1.375.047-.672.047-1.375v-.282q0-.202-.031-.406a1.2 1.2 0 0 0-.11-.36q-.063-.155-.203-.156-.281 0-.453.297a2.7 2.7 0 0 0-.281.672 5 5 0 0 0-.157.781q-.046.375-.062.563-.031.203-.063.61-.015.405-.062.89-.032.484-.125 1-.078.5-.219.922-.125.406-.328.672-.203.265-.5.265a.64.64 0 0 1-.578-.328 2.4 2.4 0 0 1-.297-.765 6 6 0 0 1-.125-.891q-.016-.453-.016-.703v-.516q.016-.25.016-.515v-.36q0-.25-.016-.547 0-.312-.03-.64a5 5 0 0 0-.063-.594 1.5 1.5 0 0 0-.141-.453q-.093-.172-.219-.172-.203 0-.375.266-.171.25-.297.609-.124.344-.203.688-.062.343-.062.5v.093q0 .75.094 1.469.093.72.093 1.469 0 .437-.281.812-.281.36-.781.36a.76.76 0 0 1-.594-.266 2.3 2.3 0 0 1-.39-.719 6 6 0 0 1-.25-.953 12 12 0 0 1-.11-1.031q-.031-.516-.047-.922v-.625q0-.234-.016-.687 0-.453.016-.985.03-.53.094-1.078.063-.563.203-1.016t.36-.734a.73.73 0 0 1 .593-.297q.406 0 .656.219.266.219.266.656 0 .094-.016.188 0 .094-.015.171a3.6 3.6 0 0 1 .422-.5q.25-.266.53-.468.298-.219.626-.344.328-.14.656-.14a.97.97 0 0 1 .563.171q.25.172.437.438.188.25.313.547.124.297.172.562.156-.281.374-.562.235-.297.5-.516.266-.219.579-.36a1.7 1.7 0 0 1 .672-.14q.328 0 .562.234t.406.61q.172.36.266.828.093.453.156.906.063.438.078.828.016.375.016.594m3.297 4.406a.8.8 0 0 1-.094.375.9.9 0 0 1-.25.266 1.1 1.1 0 0 1-.328.172 1 1 0 0 1-.36.062q-.234 0-.515-.094a1.8 1.8 0 0 1-.5-.234 1.8 1.8 0 0 1-.375-.36.8.8 0 0 1-.156-.484q0-.421.359-.625a1.4 1.4 0 0 1 1.219-.14q.265.078.484.234.234.141.375.36.14.203.14.468m7.968 1.266q-.953 0-1.656-.485a3.8 3.8 0 0 1-1.172-1.265 6.9 6.9 0 0 1-.687-1.875 11.1 11.1 0 0 1 .016-4.453 7.6 7.6 0 0 1 .75-2.032 4.6 4.6 0 0 1 1.265-1.484q.766-.578 1.828-.578 1.032 0 1.719.563.704.546 1.109 1.437.423.875.594 1.969.188 1.093.188 2.187 0 1.22-.25 2.313a6.2 6.2 0 0 1-.735 1.906q-.484.828-1.234 1.313-.735.484-1.735.484m.188-8.719a.68.68 0 0 0-.516.234q-.203.235-.343.625-.141.375-.204.86a7 7 0 0 0-.062.953q0 .548.062 1.094.079.546.219.984t.344.703q.219.266.516.266.343 0 .546-.344t.313-.828a5.3 5.3 0 0 0 .156-1q.047-.515.047-.86a7 7 0 0 0-.062-.89 4.3 4.3 0 0 0-.172-.86 2.2 2.2 0 0 0-.328-.671.63.63 0 0 0-.516-.266m10.984-2.703a.64.64 0 0 1-.125.39 1.2 1.2 0 0 1-.297.313q-.187.125-.406.203a1.5 1.5 0 0 1-.406.063.96.96 0 0 1-.547-.157q-.234-.156-.234-.484a.74.74 0 0 1 .109-.406 1 1 0 0 1 .297-.297q.172-.125.391-.187.218-.063.421-.063.298 0 .547.14t.25.485m.125 5.313v.468q0 .235-.015.453-.016.266-.016.72 0 .436-.031.952t-.11 1.047a4.4 4.4 0 0 1-.218.969 2 2 0 0 1-.422.719.9.9 0 0 1-.641.28.58.58 0 0 1-.5-.234 2.2 2.2 0 0 1-.344-.64 5.4 5.4 0 0 1-.187-.89 17 17 0 0 1-.094-.954 13 13 0 0 1-.031-.86v-1.281q0-.468.031-1 .032-.53.11-1.078.093-.547.25-1 .171-.453.437-.734a.88.88 0 0 1 .672-.281q.422 0 .641.422.218.42.328.984.109.563.125 1.125.015.547.015.813m10.594.437v.813q0 .5-.031 1.093-.016.594-.094 1.203a5.3 5.3 0 0 1-.25 1.078 2.5 2.5 0 0 1-.406.797.79.79 0 0 1-.641.313.6.6 0 0 1-.531-.281 2.2 2.2 0 0 1-.25-.688 5 5 0 0 1-.094-.797v-.64q0-.704.047-1.375.047-.672.047-1.375v-.282q0-.202-.031-.406a1.2 1.2 0 0 0-.11-.36q-.062-.155-.203-.156-.28 0-.453.297a2.7 2.7 0 0 0-.281.672q-.11.39-.156.781-.047.375-.063.563a8 8 0 0 0-.062.61q-.016.405-.063.89a9 9 0 0 1-.125 1 6 6 0 0 1-.219.922q-.124.406-.328.672-.203.265-.5.265a.64.64 0 0 1-.578-.328 2.4 2.4 0 0 1-.297-.765 6.4 6.4 0 0 1-.125-.891 23 23 0 0 1-.015-.703v-.516q.015-.25.015-.515v-.36a11 11 0 0 0-.015-.547q0-.312-.032-.64a5 5 0 0 0-.062-.594 1.4 1.4 0 0 0-.141-.453q-.093-.172-.219-.172-.203 0-.375.266-.171.25-.296.609-.125.344-.204.688-.062.343-.062.5v.093q0 .75.094 1.469.093.72.093 1.469 0 .437-.281.812-.281.36-.781.36a.76.76 0 0 1-.594-.266 2.4 2.4 0 0 1-.39-.719 6 6 0 0 1-.25-.953 13 13 0 0 1-.11-1.031 45 45 0 0 1-.047-.922v-.625q0-.234-.015-.687 0-.453.015-.985.031-.53.094-1.078a5.5 5.5 0 0 1 .203-1.016q.141-.453.36-.734a.72.72 0 0 1 .593-.297q.406 0 .657.219.265.219.265.656 0 .094-.015.188a1 1 0 0 1-.016.171q.172-.25.422-.5.25-.266.531-.468.297-.219.625-.344.329-.14.656-.14a.97.97 0 0 1 .563.171q.25.172.437.438.188.25.313.547.124.297.172.562.156-.281.375-.562.234-.297.5-.516t.578-.36q.328-.14.672-.14.328 0 .562.234t.406.61q.173.36.266.828.094.453.156.906.063.438.078.828.016.375.016.594m8.188.5q0 .688-.157 1.516a5.3 5.3 0 0 1-.5 1.515q-.343.704-.922 1.172-.562.47-1.421.469-.219 0-.454-.031a2.2 2.2 0 0 1-.453-.11 1.7 1.7 0 0 1-.375-.203.9.9 0 0 1-.265-.36l-.141 2.25q-.016.36-.031.86 0 .5-.125.953a1.7 1.7 0 0 1-.391.766q-.265.328-.781.328-.297 0-.5-.312a2.5 2.5 0 0 1-.328-.766 9 9 0 0 1-.172-1.047 14 14 0 0 1-.078-1.11 31 31 0 0 1-.016-.968v-.64q0-1.048-.015-2.079-.016-1.047-.016-2.094v-.578q0-.405.031-.875.031-.468.094-.969a5 5 0 0 1 .219-.906 1.9 1.9 0 0 1 .359-.672.67.67 0 0 1 .531-.265.56.56 0 0 1 .36.125.86.86 0 0 1 .281.297q.125.172.203.375t.125.375q.485-.547 1.109-.829a3.35 3.35 0 0 1 1.36-.28q.75 0 1.219.421.484.422.75 1.047.28.626.39 1.344.11.702.11 1.281m-2.235-.125a2.3 2.3 0 0 0-.047-.469 1.3 1.3 0 0 0-.14-.453.77.77 0 0 0-.282-.344.76.76 0 0 0-.468-.14q-.375 0-.797.25a1.76 1.76 0 0 0-.61.547q-.078.124-.093.406a8 8 0 0 0-.016.422v.297q.016.171.031.359l.032.36q.03.172.078.265a.6.6 0 0 0 .203.266q.156.109.344.203t.375.14q.203.047.343.047a.65.65 0 0 0 .532-.25q.202-.249.312-.594.125-.343.156-.703.048-.375.047-.609m6.156 5.234q-.796 0-1.39-.422a3.7 3.7 0 0 1-1-1.078 5.2 5.2 0 0 1-.61-1.453 6.6 6.6 0 0 1-.203-1.594q0-.828.203-1.703.204-.89.625-1.609.423-.735 1.079-1.187.656-.47 1.562-.47.875 0 1.484.485.625.469 1 1.188.375.703.532 1.546.156.844.109 1.594a8.6 8.6 0 0 1-.266 1.672 5.3 5.3 0 0 1-.609 1.516 3.5 3.5 0 0 1-1.031 1.093q-.625.422-1.485.422m.157-7.062q-.235 0-.422.25-.173.25-.297.61-.11.359-.172.765-.062.39-.062.687 0 .375.062.813.078.437.203.812.126.36.297.61.188.234.422.234.25 0 .422-.234.188-.236.297-.594.11-.36.156-.781a8 8 0 0 0 .047-.813q0-.343-.063-.75a4.3 4.3 0 0 0-.187-.781 1.8 1.8 0 0 0-.297-.594q-.172-.234-.406-.234m9.453.765q-.219.015-.375-.03-.156-.064-.313-.126a3 3 0 0 0-.281-.11.6.6 0 0 0-.312-.046q-.313.016-.563.172a2.2 2.2 0 0 0-.437.39 2.7 2.7 0 0 0-.329.532 3 3 0 0 0-.218.562 4 4 0 0 0-.078.578q-.016.375-.016.813-.016.453-.016.86 0 .405-.031.64-.015.249-.078.594a2.6 2.6 0 0 1-.203.625 1.4 1.4 0 0 1-.344.5.8.8 0 0 1-.562.203.75.75 0 0 1-.469-.157 1.4 1.4 0 0 1-.328-.406 3.7 3.7 0 0 1-.219-.61 8 8 0 0 1-.125-.702q-.046-.375-.078-.75l-.031-.703v-.625q.015-.282.015-.454-.015-.546-.062-1.093a20 20 0 0 1-.032-1.11q0-.344.032-.765.031-.422.172-.782.14-.375.406-.625.281-.25.765-.25.267 0 .454.172.188.172.296.422.125.25.188.531t.078.516q.375-.609.844-.984.469-.39 1.219-.422.375-.016.734.078.375.078.672.281.312.188.5.5.202.313.219.735.03.5-.297.765a1.3 1.3 0 0 1-.797.281m4.969 6.407q-1.11 0-1.735-.297a2 2 0 0 1-.922-.813q-.297-.53-.359-1.28-.063-.75-.063-1.673 0-.734.047-1.469.047-.75.141-1.593-.219 0-.344.015h-.203a1.6 1.6 0 0 1-.859-.218q-.375-.219-.375-.672a.7.7 0 0 1 .218-.5q.204-.219.532-.375.327-.157.703-.25.39-.095.734-.125 0-.438.063-.969.062-.531.218-.984.172-.469.454-.782a.92.92 0 0 1 .718-.312q.25 0 .438.156.203.141.328.375.125.22.187.5.063.282.063.547 0 .312-.047.64-.046.33-.172.813.266-.03.36-.031a1 1 0 0 1 .171-.016q.267 0 .547.047.297.047.532.156.25.11.406.297a.6.6 0 0 1 .156.422.67.67 0 0 1-.234.5q-.22.218-.563.375a4 4 0 0 1-.734.25 7 7 0 0 1-.735.11q-.093.64-.14 1.187-.031.531-.078 1.078l-.063.547q-.015.266-.015.547 0 .203.015.484.016.266.11.516.093.25.296.437.204.172.563.172.219 0 .453-.031.234-.047.469-.047.406 0 .578.281.187.281.187.72a.9.9 0 0 1-.203.577 1.34 1.34 0 0 1-.484.375 2.6 2.6 0 0 1-.672.235 3.2 3.2 0 0 1-.687.078m9-2.766q0 .282-.032.734-.015.454-.125.891a2.1 2.1 0 0 1-.343.734q-.235.313-.657.313-.578 0-.89-.375-.314-.375-.297-.937-.5.437-1.141.687a3.4 3.4 0 0 1-1.281.25q-.453 0-.859-.219a2.7 2.7 0 0 1-.719-.562 2.9 2.9 0 0 1-.5-.766 2.2 2.2 0 0 1-.188-.86q0-.75.453-1.312a4.3 4.3 0 0 1 1.141-.953q.672-.405 1.422-.64.766-.235 1.359-.313v-.14a.6.6 0 0 0 .016-.141q0-.485-.266-.782-.266-.296-.75-.296-.39 0-.672.14a3.3 3.3 0 0 0-.531.297q-.25.156-.5.297a1.24 1.24 0 0 1-.562.125.87.87 0 0 1-.594-.219.74.74 0 0 1-.234-.562q0-.516.296-.938.313-.421.766-.703a4 4 0 0 1 1-.453 3.4 3.4 0 0 1 1-.172q.422 0 .844.11.422.093.797.312.375.203.672.516.312.297.5.703.28.578.453 1.234.172.64.265 1.328.095.672.125 1.36.032.672.032 1.312m-2.5-.5-.047-1.062h-.063a.14.14 0 0 0-.062-.016 1.6 1.6 0 0 0-.516.11 2.3 2.3 0 0 0-.578.28 2.3 2.3 0 0 0-.484.391.7.7 0 0 0-.188.453q0 .219.156.297a.8.8 0 0 0 .36.078q.344 0 .734-.172.391-.187.688-.359m7.875 3.14q-.266 0-.422-.25a1.7 1.7 0 0 1-.235-.546 4.4 4.4 0 0 1-.109-.625 12 12 0 0 1-.016-.5q0-.469.047-.938l.125-.937q.078-.469.125-.938a7 7 0 0 0 .063-.937q0-.187-.016-.406a1.6 1.6 0 0 0-.078-.407.66.66 0 0 0-.172-.328.44.44 0 0 0-.328-.125q-.14 0-.313.235a3.5 3.5 0 0 0-.328.515q-.14.281-.25.578a1.5 1.5 0 0 0-.093.422v.703q.015.345.015.703v.907q-.015.28-.047.578-.03.297-.093.578-.048.282-.141.547a1.8 1.8 0 0 1-.25.453 1.2 1.2 0 0 1-.344.313.9.9 0 0 1-.484.124.7.7 0 0 1-.516-.203 1.5 1.5 0 0 1-.328-.515 3.6 3.6 0 0 1-.187-.719 23 23 0 0 1-.079-.781q-.015-.39-.015-.703.015-.33.015-.516v-.734q0-.594-.031-1.172-.015-.579-.015-1.157v-.796q.015-.485.125-.938a2.1 2.1 0 0 1 .359-.797q.25-.328.734-.328.219 0 .391.14t.297.344q.141.204.219.438.093.235.14.406a3.3 3.3 0 0 1 .36-.422q.218-.203.484-.359a2.54 2.54 0 0 1 1.344-.344q.796 0 1.234.39.453.376.656.954.22.562.266 1.219.047.656.047 1.187 0 .266-.047.797-.047.517-.156 1.156a13 13 0 0 1-.266 1.297q-.172.657-.406 1.203a3 3 0 0 1-.563.891q-.312.345-.718.344m6.671.126q-1.108 0-1.734-.297a2 2 0 0 1-.922-.813q-.296-.53-.359-1.28t-.063-1.673q0-.734.047-1.469.046-.75.141-1.593-.22 0-.344.015h-.203a1.6 1.6 0 0 1-.859-.218q-.375-.219-.375-.672a.7.7 0 0 1 .218-.5q.204-.219.532-.375.327-.157.703-.25.39-.095.734-.125 0-.438.063-.969.062-.531.218-.984.172-.469.453-.782a.93.93 0 0 1 .719-.312q.25 0 .438.156.203.141.328.375.125.22.187.5.063.282.063.547 0 .312-.047.64-.047.33-.172.813.266-.03.359-.031.094-.016.172-.016.266 0 .547.047.297.047.531.156.25.11.407.297a.6.6 0 0 1 .156.422.67.67 0 0 1-.234.5q-.22.218-.563.375a4 4 0 0 1-.734.25 7 7 0 0 1-.735.11q-.093.64-.14 1.187-.031.531-.078 1.078l-.063.547q-.015.266-.016.547 0 .203.016.484.016.266.109.516.094.25.297.437.203.172.563.172.219 0 .453-.031.234-.047.469-.047.406 0 .578.281.187.281.187.72a.9.9 0 0 1-.203.577 1.34 1.34 0 0 1-.484.375 2.6 2.6 0 0 1-.672.235q-.36.078-.688.078m8.907-3.344q0 .531-.344 1.047-.328.5-.844.906a5 5 0 0 1-1.078.64q-.577.235-1.062.235a2.77 2.77 0 0 1-1.485-.406 3.9 3.9 0 0 1-1.078-1.063 5.1 5.1 0 0 1-.672-1.406 5.6 5.6 0 0 1-.219-1.516q0-.78.219-1.671.22-.891.656-1.641.454-.75 1.125-1.25.688-.5 1.625-.5.532 0 1.016.188a2.45 2.45 0 0 1 1.422 1.28q.219.454.219 1.016 0 .735-.313 1.375a3.6 3.6 0 0 1-.828 1.11 4.4 4.4 0 0 1-1.187.765 4 4 0 0 1-1.375.313q.062.453.359.656.312.203.734.203.313 0 .61-.156.296-.156.578-.344.281-.203.547-.36.281-.155.562-.155a.87.87 0 0 1 .563.203q.25.203.25.531m-2.532-3.828a.94.94 0 0 0-.109-.422.36.36 0 0 0-.344-.219.9.9 0 0 0-.578.188 1.4 1.4 0 0 0-.39.453q-.157.266-.25.578a3 3 0 0 0-.094.578q.22-.047.515-.125a3 3 0 0 0 .579-.203q.28-.14.468-.344a.66.66 0 0 0 .203-.484m13.469 3.828q0 .531-.344 1.047a3.8 3.8 0 0 1-.843.906q-.5.39-1.078.64-.579.235-1.063.235a2.76 2.76 0 0 1-1.484-.406 3.9 3.9 0 0 1-1.078-1.063 5.1 5.1 0 0 1-.672-1.406 5.6 5.6 0 0 1-.219-1.516q0-.78.219-1.671t.656-1.641q.453-.75 1.125-1.25.687-.5 1.625-.5.531 0 1.016.188.485.17.843.5.36.328.578.78.219.454.219 1.016 0 .735-.312 1.375a3.7 3.7 0 0 1-.828 1.11 4.4 4.4 0 0 1-1.188.765 4 4 0 0 1-1.375.313q.063.453.359.656.314.203.735.203.312 0 .609-.156a6 6 0 0 0 .578-.344q.282-.203.547-.36.281-.155.563-.155.312 0 .562.203a.65.65 0 0 1 .25.531m-2.531-3.828a.94.94 0 0 0-.109-.422.36.36 0 0 0-.344-.219.9.9 0 0 0-.578.188 1.4 1.4 0 0 0-.391.453q-.156.266-.25.578a3 3 0 0 0-.094.578q.219-.047.516-.125.312-.078.578-.203.282-.14.469-.344a.66.66 0 0 0 .203-.484m.875-5.547q0 .173-.094.344-.093.156-.234.297a2.3 2.3 0 0 1-.281.265q-.157.109-.282.203a8 8 0 0 0-.25.188 3 3 0 0 1-.281.187 3 3 0 0 1-.297.141.7.7 0 0 1-.281.063.4.4 0 0 1-.219-.063.27.27 0 0 1-.094-.219q0-.234.172-.562.188-.344.453-.657.267-.327.563-.546.297-.235.547-.235.219 0 .39.188.188.172.188.406m12.687 9.953q0 .282-.031.734-.015.454-.125.891a2.1 2.1 0 0 1-.344.734q-.234.313-.656.313-.578 0-.89-.375t-.297-.937q-.5.437-1.141.687-.625.25-1.281.25a1.8 1.8 0 0 1-.86-.219 2.7 2.7 0 0 1-.718-.562 2.8 2.8 0 0 1-.5-.766 2.2 2.2 0 0 1-.188-.86q0-.75.453-1.312a4.3 4.3 0 0 1 1.141-.953q.672-.405 1.422-.64.765-.235 1.359-.313v-.14a.6.6 0 0 0 .016-.141q0-.485-.266-.782-.266-.296-.75-.296-.39 0-.672.14a3.3 3.3 0 0 0-.531.297q-.25.156-.5.297a1.24 1.24 0 0 1-.562.125.87.87 0 0 1-.594-.219.74.74 0 0 1-.235-.562q0-.516.297-.938.313-.421.766-.703a4 4 0 0 1 1-.453 3.4 3.4 0 0 1 1-.172q.421 0 .844.11.422.093.797.312.375.203.671.516.313.297.5.703.282.578.454 1.234.172.64.265 1.328.094.672.125 1.36.031.672.031 1.312m-2.5-.5-.046-1.062h-.063a.14.14 0 0 0-.062-.016 1.6 1.6 0 0 0-.516.11 2.3 2.3 0 0 0-.578.28 2.3 2.3 0 0 0-.485.391.7.7 0 0 0-.187.453q0 .219.156.297a.8.8 0 0 0 .36.078q.344 0 .734-.172.39-.187.687-.359m10.516-2.625q0 .797-.031 1.594a28 28 0 0 1-.078 1.594q-.048.687-.125 1.468-.078.782-.25 1.547a9.6 9.6 0 0 1-.453 1.485 4.4 4.4 0 0 1-.75 1.265 3.4 3.4 0 0 1-1.11.875q-.656.328-1.562.328-.422 0-.953-.14a4.2 4.2 0 0 1-.985-.375 2.9 2.9 0 0 1-.781-.625 1.25 1.25 0 0 1-.313-.844q0-.36.25-.672a.87.87 0 0 1 .672-.297q.25 0 .469.078.234.094.453.203.234.11.438.188a1.1 1.1 0 0 0 .437.094q.579 0 .969-.297.39-.282.625-.735a3.6 3.6 0 0 0 .344-.968 7 7 0 0 0 .172-.985q-.314.36-.735.5a2.9 2.9 0 0 1-.859.125q-.828 0-1.406-.28a2.6 2.6 0 0 1-.938-.798 3.6 3.6 0 0 1-.531-1.187 5.8 5.8 0 0 1-.172-1.453q0-.485.094-1.094.11-.61.312-1.235.203-.625.5-1.218.313-.594.719-1.047t.906-.735a2.3 2.3 0 0 1 1.125-.28q.594 0 1.047.343.47.344.547.969.173-.329.453-.64a.87.87 0 0 1 .688-.329q.218 0 .359.219.156.218.234.578.094.344.141.765.047.407.062.813.016.39.016.719zm-2.375 1.016q0-.235-.078-.61a3.4 3.4 0 0 0-.203-.718 2 2 0 0 0-.328-.594q-.203-.25-.485-.25a.94.94 0 0 0-.64.25 2.3 2.3 0 0 0-.453.61q-.187.342-.297.75a3 3 0 0 0-.094.671q0 .204.031.547.032.344.125.672.11.328.281.562a.54.54 0 0 0 .454.235q.422 0 .734-.203a1.75 1.75 0 0 0 .516-.516q.218-.312.328-.687t.109-.72m6.063-6.594a.65.65 0 0 1-.125.39 1.2 1.2 0 0 1-.297.313 2 2 0 0 1-.407.203 1.5 1.5 0 0 1-.406.063.97.97 0 0 1-.547-.157q-.234-.156-.234-.484a.74.74 0 0 1 .109-.406q.126-.187.297-.297.172-.125.391-.187.219-.063.422-.063.297 0 .547.14t.25.485m.125 5.313v.468q0 .235-.016.453-.016.266-.016.72 0 .436-.031.952t-.109 1.047a4.4 4.4 0 0 1-.219.969 2 2 0 0 1-.422.719.9.9 0 0 1-.641.28.58.58 0 0 1-.5-.234 2.2 2.2 0 0 1-.343-.64 5.3 5.3 0 0 1-.188-.89 18 18 0 0 1-.094-.954q-.03-.468-.031-.86v-1.281q0-.468.031-1 .032-.53.11-1.078a6.3 6.3 0 0 1 .25-1q.171-.453.437-.734a.88.88 0 0 1 .672-.281q.422 0 .641.422.219.42.328.984.11.563.125 1.125.016.547.016.813m6.531-.25q-.219.016-.375-.032l-.313-.125a3 3 0 0 0-.281-.11.6.6 0 0 0-.312-.046q-.313.016-.563.172a2.2 2.2 0 0 0-.437.39 2.7 2.7 0 0 0-.329.532 3 3 0 0 0-.218.562 4 4 0 0 0-.078.578q-.016.375-.016.813-.016.453-.016.86 0 .405-.031.64-.015.249-.078.594a2.6 2.6 0 0 1-.203.625 1.4 1.4 0 0 1-.344.5.8.8 0 0 1-.562.203.75.75 0 0 1-.469-.157 1.4 1.4 0 0 1-.328-.406 3.7 3.7 0 0 1-.219-.61 8 8 0 0 1-.125-.702q-.046-.375-.078-.75l-.031-.703v-.625q.015-.282.015-.454-.015-.546-.062-1.093a20 20 0 0 1-.032-1.11q0-.344.032-.765.031-.422.172-.782.14-.375.406-.625.281-.25.765-.25.267 0 .454.172.188.172.296.422.125.25.188.531t.078.516q.375-.609.844-.984.469-.39 1.219-.422.375-.016.734.078.375.078.672.281.312.188.5.5.202.313.219.735.03.5-.297.765a1.3 1.3 0 0 1-.797.281m-102.313 21q-.217.016-.375-.032l-.312-.125a3 3 0 0 0-.281-.11.6.6 0 0 0-.313-.046q-.312.015-.562.172a2.2 2.2 0 0 0-.438.39 2.7 2.7 0 0 0-.328.532 3 3 0 0 0-.219.562 4 4 0 0 0-.078.578q-.016.375-.016.813-.015.453-.015.86t-.031.64a5 5 0 0 1-.079.594 2.5 2.5 0 0 1-.203.625 1.4 1.4 0 0 1-.343.5.8.8 0 0 1-.563.203.75.75 0 0 1-.469-.157 1.4 1.4 0 0 1-.328-.406 4 4 0 0 1-.219-.61 8 8 0 0 1-.125-.702q-.047-.375-.078-.75-.015-.376-.031-.703v-.625q.016-.282.016-.454-.016-.546-.063-1.093a20 20 0 0 1-.031-1.11q0-.344.031-.765t.172-.782a1.6 1.6 0 0 1 .406-.625q.282-.25.766-.25.266 0 .453.172.188.172.297.422.125.25.187.531.063.282.079.516.375-.609.843-.984.47-.39 1.219-.422.375-.016.734.078.375.078.672.281.313.188.5.5.204.313.219.735.031.5-.297.765-.328.266-.797.281m7.969 3.64q0 .282-.031.734a4.3 4.3 0 0 1-.125.891 2.1 2.1 0 0 1-.344.734q-.234.313-.656.313-.578 0-.891-.375-.312-.375-.297-.937-.5.436-1.14.687-.625.25-1.282.25-.453 0-.859-.219a2.7 2.7 0 0 1-.719-.562 2.9 2.9 0 0 1-.5-.766 2.2 2.2 0 0 1-.187-.86q0-.75.453-1.312a4.2 4.2 0 0 1 1.141-.953q.671-.405 1.421-.64.766-.235 1.36-.313v-.14a.6.6 0 0 0 .015-.141q0-.485-.265-.782-.266-.296-.75-.296-.391 0-.672.14a3.3 3.3 0 0 0-.531.297q-.25.156-.5.297a1.24 1.24 0 0 1-.563.125.87.87 0 0 1-.594-.219.74.74 0 0 1-.234-.562q0-.516.297-.938.313-.421.766-.703a4 4 0 0 1 1-.453 3.4 3.4 0 0 1 1-.172q.421 0 .843.11.422.093.797.312.375.203.672.516.312.297.5.703.282.578.453 1.234.172.64.266 1.328.093.672.125 1.36.031.672.031 1.312m-2.5-.5-.047-1.062h-.062a.14.14 0 0 0-.063-.016q-.203 0-.515.11a2.3 2.3 0 0 0-.579.28 2.3 2.3 0 0 0-.484.391.7.7 0 0 0-.187.453q0 .219.156.297a.8.8 0 0 0 .359.078q.344 0 .735-.172.39-.187.687-.359m.75-9.125q0 .173-.094.344-.093.156-.234.297a2.3 2.3 0 0 1-.281.265 13 13 0 0 0-.532.391 3 3 0 0 1-.281.188 3 3 0 0 1-.297.14.7.7 0 0 1-.281.063.4.4 0 0 1-.219-.063.27.27 0 0 1-.093-.219q0-.234.171-.562.188-.344.454-.656a3 3 0 0 1 .562-.547q.297-.235.547-.235a.52.52 0 0 1 .391.188q.187.171.187.406m9.844 7.172q0 .688-.156 1.516a5.3 5.3 0 0 1-.5 1.515q-.345.704-.922 1.172-.562.47-1.422.469-.219 0-.453-.031a2.2 2.2 0 0 1-.453-.11 1.6 1.6 0 0 1-.375-.203.9.9 0 0 1-.266-.36l-.141 2.251q-.015.359-.031.859 0 .5-.125.953a1.7 1.7 0 0 1-.391.766q-.265.328-.781.328-.297 0-.5-.313a2.5 2.5 0 0 1-.328-.765 9 9 0 0 1-.172-1.047 15 15 0 0 1-.078-1.109q-.016-.531-.016-.97v-.64q0-1.046-.015-2.078-.016-1.047-.016-2.094v-.578q0-.405.031-.875.032-.468.094-.969a5 5 0 0 1 .219-.906q.141-.421.359-.672a.67.67 0 0 1 .532-.265q.203 0 .359.125a.85.85 0 0 1 .281.297 1.6 1.6 0 0 1 .203.375q.078.203.125.375.484-.547 1.11-.829.64-.28 1.359-.28.75 0 1.219.421.485.422.75 1.047.281.626.39 1.344.11.702.11 1.281m-2.235-.125q0-.234-.046-.469a1.3 1.3 0 0 0-.141-.453.77.77 0 0 0-.281-.344.76.76 0 0 0-.469-.14q-.375 0-.797.25a1.74 1.74 0 0 0-.609.547q-.078.124-.094.406-.016.28-.016.422v.297l.032.359q.015.188.031.36.031.172.078.265a.6.6 0 0 0 .203.266q.156.109.344.203t.375.14q.203.047.344.047a.65.65 0 0 0 .531-.25q.202-.249.312-.594.126-.343.157-.703a5 5 0 0 0 .046-.609m5.766-6.125a.65.65 0 0 1-.125.39 1.2 1.2 0 0 1-.297.313q-.187.125-.406.203a1.5 1.5 0 0 1-.406.063.96.96 0 0 1-.547-.157q-.235-.156-.235-.484a.74.74 0 0 1 .11-.406 1 1 0 0 1 .297-.297 1.2 1.2 0 0 1 .39-.187q.22-.063.422-.063.297 0 .547.14t.25.485m.125 5.313v.468q0 .235-.016.453-.015.266-.015.72 0 .436-.031.952-.032.516-.11 1.047a4.3 4.3 0 0 1-.219.969 2 2 0 0 1-.421.719.9.9 0 0 1-.641.28.58.58 0 0 1-.5-.234 2.2 2.2 0 0 1-.344-.64 5.3 5.3 0 0 1-.187-.89 17 17 0 0 1-.094-.954 13 13 0 0 1-.031-.86v-1.281q0-.468.031-1 .031-.53.109-1.078.094-.546.25-1 .172-.453.438-.734a.88.88 0 0 1 .672-.281q.422 0 .64.422.22.42.328.984.11.563.125 1.125.016.547.016.813m7.844-4.688q0 1.14-.094 2.266-.078 1.125-.078 2.265 0 .922.047 1.828.063.907.062 1.828 0 .25-.015.61-.016.344-.11.672a1.3 1.3 0 0 1-.281.562q-.187.235-.547.235-.469 0-.781-.344a1.7 1.7 0 0 1-.375-.797 2.7 2.7 0 0 1-.859.953q-.563.39-1.219.39-.703.001-1.219-.484a4.3 4.3 0 0 1-.844-1.172 7 7 0 0 1-.5-1.437 6.5 6.5 0 0 1-.156-1.297 9.7 9.7 0 0 1 .203-1.906q.126-.516.313-1 .188-.5.468-.89.298-.392.688-.626.406-.234.922-.234.562 0 1.078.328.516.329.781.813l.141-2.485q.015-.297.047-.687a4.3 4.3 0 0 1 .125-.766q.11-.36.328-.61t.64-.25q.454 0 .704.22.25.218.359.562.125.328.141.719.03.39.031.734m-2.547 6.938q0-.36-.016-.704-.015-.343 0-.703a8 8 0 0 0-.218-.437 2 2 0 0 0-.313-.453 1.6 1.6 0 0 0-.391-.36.85.85 0 0 0-.468-.14.6.6 0 0 0-.453.171 1 1 0 0 0-.25.422 2.5 2.5 0 0 0-.11.516q-.015.282-.015.484a7.3 7.3 0 0 0 .14 1.297q.094.375.25.656t.422.282q.204 0 .406-.078.204-.094.375-.22a3 3 0 0 0 .344-.296q.173-.172.297-.312zm6.547 3.796q-.797 0-1.391-.422a3.7 3.7 0 0 1-1-1.078 5.2 5.2 0 0 1-.609-1.453 6.5 6.5 0 0 1-.203-1.594q0-.828.203-1.703.203-.89.625-1.609.421-.735 1.078-1.187.656-.47 1.562-.47.876 0 1.485.485.625.469 1 1.188.375.703.531 1.546a6.5 6.5 0 0 1 .109 1.594 8.6 8.6 0 0 1-.265 1.672 5.3 5.3 0 0 1-.61 1.516q-.405.672-1.031 1.093-.624.422-1.484.422m.156-7.062q-.234 0-.422.25-.171.25-.297.61-.11.359-.172.765-.062.39-.062.687 0 .375.062.813.079.437.204.812.125.36.296.61.188.234.422.234.25 0 .422-.234.188-.236.297-.594.11-.36.156-.781.048-.438.047-.813 0-.343-.062-.75a4.3 4.3 0 0 0-.188-.781 1.8 1.8 0 0 0-.297-.594q-.172-.234-.406-.234m6.953.062q0 .25-.031.688-.031.421-.094.922a9 9 0 0 1-.187 1q-.11.5-.266.922-.156.405-.375.671-.218.25-.5.25-.344 0-.594-.328a3.5 3.5 0 0 1-.406-.859 9 9 0 0 1-.25-1.172 19 19 0 0 1-.141-1.25 26 26 0 0 1-.062-1.14v-1.516q0-.438.031-.922.047-.484.125-.953.094-.485.266-.875.171-.39.453-.625.281-.25.703-.25.375 0 .609.328.25.312.391.828.156.5.219 1.125.078.625.094 1.234.03.594.015 1.11zm-.297 5.938a.87.87 0 0 1-.125.469q-.124.188-.328.312a1.4 1.4 0 0 1-.437.203 1.8 1.8 0 0 1-.469.063q-.344 0-.656-.188-.313-.172-.313-.562 0-.235.125-.422.141-.204.344-.344.203-.141.437-.219a1.6 1.6 0 0 1 .469-.078q.36 0 .656.188.297.171.297.578"/><defs><filter id="a" width="266" height="153" x="0" y="0" color-interpolation-filters="sRGB" filterUnits="userSpaceOnUse"><feFlood flood-opacity="0" result="BackgroundImageFix"/><feBlend in="SourceGraphic" in2="BackgroundImageFix" result="shape"/><feColorMatrix in="SourceAlpha" result="hardAlpha" values="0 0 0 0 0 0 0 0 0 0 0 0 0 0 0 0 0 0 127 0"/><feOffset dy="4"/><feGaussianBlur stdDeviation="2"/><feComposite in2="hardAlpha" k2="-1" k3="1" operator="arithmetic"/><feColorMatrix values="0 0 0 0 0 0 0 0 0 0 0 0 0 0 0 0 0 0 0.25 0"/><feBlend in2="shape" result="effect1_innerShadow_1137_1250"/></filter></defs></svg>