<svg width="227" height="107" viewBox="0 0 227 107" fill="none" xmlns="http://www.w3.org/2000/svg">
<g filter="url(#filter0_i_1137_1311)">
<path fill-rule="evenodd" clip-rule="evenodd" d="M32.2364 68.002C10.4914 61.0288 0.999969 50.7375 0.999969 39.599C0.999969 25.894 20.1436 12.3552 51.8123 5.66106C67.1727 2.41416 85.2199 1 105.955 1C169.441 1 227.988 14.9831 225.489 39.599C225.489 51.8131 214.653 63.0447 192.586 69.7498C180.553 73.4059 165.33 75.5652 146.284 76.229C138.793 89.0073 127.828 95.5871 109.839 106C123.031 93.8633 131.114 86.0384 134.038 76.4489C133.703 76.4497 133.366 76.4501 133.028 76.4501C88.0301 78.6358 53.9979 74.9804 32.2364 68.002Z" fill="#F4719C"/>
</g>
<path d="M32.2364 68.002L32.5417 67.0497L32.2364 68.002ZM51.8123 5.66106L51.6055 4.68268L51.8123 5.66106ZM225.489 39.599L224.494 39.498C224.491 39.5316 224.489 39.5653 224.489 39.599H225.489ZM192.586 69.7498L192.876 70.7067L192.586 69.7498ZM146.284 76.229L146.25 75.2297C145.907 75.2416 145.595 75.4278 145.422 75.7233L146.284 76.229ZM109.839 106L109.162 105.264C108.787 105.609 108.731 106.182 109.033 106.593C109.336 107.003 109.899 107.121 110.34 106.866L109.839 106ZM134.038 76.4489L134.995 76.7406C135.087 76.4371 135.03 76.1077 134.841 75.8529C134.652 75.5981 134.353 75.4482 134.036 75.4489L134.038 76.4489ZM133.028 76.4501V75.4501C133.012 75.4501 132.996 75.4505 132.98 75.4513L133.028 76.4501ZM0.999969 39.599H-3.05176e-05C-3.05176e-05 51.432 10.0897 61.9501 31.931 68.9542L32.2364 68.002L32.5417 67.0497C10.893 60.1074 1.99997 50.043 1.99997 39.599H0.999969ZM51.8123 5.66106L51.6055 4.68268C35.6904 8.04684 22.8538 13.1436 13.9688 19.1735C5.11516 25.1822 -3.05176e-05 32.2559 -3.05176e-05 39.599H0.999969H1.99997C1.99997 33.2371 6.45657 26.6889 15.0919 20.8284C23.6959 14.9892 36.2655 9.96946 52.0192 6.63944L51.8123 5.66106ZM105.955 1V0C85.1801 0 67.0578 1.41635 51.6055 4.68268L51.8123 5.66106L52.0192 6.63944C67.2876 3.41198 85.2597 2 105.955 2V1ZM225.489 39.599L226.484 39.7C227.157 33.0745 223.688 27.2836 217.408 22.394C211.137 17.511 201.933 13.4116 190.75 10.1095C168.367 3.50047 137.756 0 105.955 0V1V2C137.641 2 168.046 5.49106 190.184 12.0276C201.26 15.2982 210.192 19.31 216.18 23.9721C222.159 28.6276 225.071 33.8155 224.494 39.498L225.489 39.599ZM192.586 69.7498L192.876 70.7067C215.056 63.9676 226.489 52.5084 226.489 39.599H225.489H224.489C224.489 51.1178 214.251 62.1218 192.295 68.793L192.586 69.7498ZM146.284 76.229L146.319 77.2284C165.414 76.5628 180.731 74.3969 192.876 70.7067L192.586 69.7498L192.295 68.793C180.375 72.4148 165.246 74.5675 146.25 75.2297L146.284 76.229ZM146.284 76.229L145.422 75.7233C138.085 88.2371 127.368 94.6981 109.338 105.135L109.839 106L110.34 106.866C128.288 96.476 139.5 89.7775 147.147 76.7348L146.284 76.229ZM109.839 106L110.516 106.736C117.105 100.674 122.467 95.6456 126.546 90.9229C130.633 86.1908 133.478 81.7159 134.995 76.7406L134.038 76.4489L133.082 76.1572C131.675 80.7714 129.016 85.0037 125.032 89.6156C121.041 94.2369 115.765 99.1892 109.162 105.264L109.839 106ZM133.028 76.4501V77.4501C133.367 77.4501 133.704 77.4497 134.041 77.4489L134.038 76.4489L134.036 75.4489C133.701 75.4497 133.365 75.4501 133.028 75.4501V76.4501ZM32.2364 68.002L31.931 68.9542C53.854 75.9845 88.0211 79.6374 133.077 77.4489L133.028 76.4501L132.98 75.4513C88.039 77.6342 54.1418 73.9764 32.5417 67.0497L32.2364 68.002Z" fill="#F4719C"/>
<path d="M41.0795 31.3223C41.0795 31.5202 41.0275 31.7129 40.9233 31.9004C40.8191 32.0775 40.5743 32.2858 40.1889 32.5254C39.8035 32.765 39.3764 32.9941 38.9077 33.2129C38.4389 33.4212 37.9858 33.6035 37.5483 33.7598C37.1108 33.9056 36.7879 33.9785 36.5795 33.9785C36.4337 33.9785 36.2618 33.9421 36.0639 33.8691C35.866 33.8066 35.6681 33.7233 35.4702 33.6191C35.2722 33.515 35.09 33.3952 34.9233 33.2598C34.767 33.1243 34.6525 32.9941 34.5795 32.8691C34.5379 32.7962 34.4962 32.6504 34.4545 32.4316C34.4233 32.2129 34.392 31.9577 34.3608 31.666C34.34 31.3743 34.3191 31.0671 34.2983 30.7441C34.2775 30.4108 34.2566 30.0983 34.2358 29.8066C34.2254 29.5046 34.215 29.2389 34.2045 29.0098C34.2045 28.7806 34.2045 28.6139 34.2045 28.5098C34.2045 28.1243 34.215 27.6816 34.2358 27.1816C34.267 26.6816 34.3191 26.1816 34.392 25.6816C34.465 25.1712 34.5691 24.6868 34.7045 24.2285C34.8504 23.7598 35.0431 23.3639 35.2827 23.041C35.3556 22.9473 35.5014 22.8483 35.7202 22.7441C35.9389 22.64 36.1941 22.541 36.4858 22.4473C36.7879 22.3535 37.1108 22.265 37.4545 22.1816C37.7983 22.0983 38.1264 22.0306 38.4389 21.9785C38.7618 21.916 39.0535 21.8691 39.3139 21.8379C39.5743 21.7962 39.7722 21.7754 39.9077 21.7754C40.0639 21.7754 40.2097 21.8118 40.3452 21.8848C40.491 21.9473 40.6108 22.0358 40.7045 22.1504C40.8087 22.265 40.8868 22.3952 40.9389 22.541C41.0014 22.6764 41.0327 22.8223 41.0327 22.9785C41.0327 23.1139 41.0118 23.2285 40.9702 23.3223C40.9389 23.416 40.8868 23.5202 40.8139 23.6348C40.7097 23.7702 40.491 23.9316 40.1577 24.1191C39.8243 24.3066 39.4597 24.4941 39.0639 24.6816C38.6785 24.8587 38.3035 25.0202 37.9389 25.166C37.5847 25.3118 37.3347 25.416 37.1889 25.4785C37.1472 25.7181 37.1004 25.9629 37.0483 26.2129C37.0066 26.4525 36.9754 26.6973 36.9545 26.9473C37.2775 26.7806 37.642 26.6243 38.0483 26.4785C38.4545 26.3327 38.84 26.2598 39.2045 26.2598C39.9441 26.2598 40.3139 26.6243 40.3139 27.3535C40.3139 27.5306 40.2775 27.6868 40.2045 27.8223C40.142 27.9577 40.0535 28.0775 39.9389 28.1816C39.8347 28.2858 39.7097 28.3796 39.5639 28.4629C39.4285 28.5358 39.2931 28.6087 39.1577 28.6816C38.8243 28.8587 38.4754 29.015 38.1108 29.1504C37.7462 29.2754 37.3816 29.4004 37.017 29.5254C36.9962 29.6087 36.9754 29.7025 36.9545 29.8066C36.9337 29.9004 36.9233 29.9941 36.9233 30.0879C36.9233 30.2337 36.9337 30.3796 36.9545 30.5254C36.9754 30.6712 36.9962 30.8171 37.017 30.9629C37.142 30.9212 37.34 30.8535 37.6108 30.7598C37.892 30.666 38.1837 30.5723 38.4858 30.4785C38.7879 30.3848 39.0795 30.3066 39.3608 30.2441C39.642 30.1712 39.8504 30.1348 39.9858 30.1348C40.142 30.1348 40.2879 30.1712 40.4233 30.2441C40.5587 30.3066 40.6733 30.3952 40.767 30.5098C40.8608 30.6139 40.9337 30.7389 40.9858 30.8848C41.0483 31.0306 41.0795 31.1764 41.0795 31.3223ZM44.3608 22.8691C44.3608 23.015 44.3191 23.1452 44.2358 23.2598C44.1629 23.3743 44.0639 23.4785 43.9389 23.5723C43.8139 23.6556 43.6785 23.7233 43.5327 23.7754C43.3868 23.8171 43.2514 23.8379 43.1264 23.8379C42.9181 23.8379 42.7358 23.7858 42.5795 23.6816C42.4233 23.5775 42.3452 23.416 42.3452 23.1973C42.3452 23.041 42.3816 22.9056 42.4545 22.791C42.5379 22.666 42.6368 22.5671 42.7514 22.4941C42.866 22.4108 42.9962 22.3483 43.142 22.3066C43.2879 22.265 43.4285 22.2441 43.5639 22.2441C43.7618 22.2441 43.9441 22.291 44.1108 22.3848C44.2775 22.4785 44.3608 22.64 44.3608 22.8691ZM44.4858 28.1816C44.4858 28.3275 44.4858 28.4837 44.4858 28.6504C44.4858 28.8066 44.4806 28.9577 44.4702 29.1035C44.4597 29.2806 44.4545 29.5202 44.4545 29.8223C44.4545 30.1139 44.4441 30.4316 44.4233 30.7754C44.4025 31.1191 44.366 31.4681 44.3139 31.8223C44.2722 32.1764 44.1993 32.4993 44.0952 32.791C43.991 33.0827 43.8504 33.3223 43.6733 33.5098C43.5066 33.6868 43.2931 33.7806 43.0327 33.791C42.8347 33.8014 42.6681 33.7233 42.5327 33.5566C42.3972 33.39 42.2827 33.1764 42.1889 32.916C42.1056 32.6452 42.0431 32.3483 42.0014 32.0254C41.9597 31.6921 41.9285 31.3743 41.9077 31.0723C41.8868 30.7598 41.8764 30.4733 41.8764 30.2129C41.8764 29.9525 41.8764 29.7598 41.8764 29.6348C41.8764 29.4681 41.8764 29.2337 41.8764 28.9316C41.8764 28.6191 41.8868 28.2858 41.9077 27.9316C41.9285 27.5775 41.965 27.2181 42.017 26.8535C42.0795 26.4889 42.1629 26.1556 42.267 25.8535C42.3816 25.5514 42.5275 25.3066 42.7045 25.1191C42.8816 24.9316 43.1056 24.8379 43.3764 24.8379C43.6577 24.8379 43.8712 24.9785 44.017 25.2598C44.1629 25.541 44.2722 25.8691 44.3452 26.2441C44.4181 26.6191 44.4597 26.9941 44.4702 27.3691C44.4806 27.7337 44.4858 28.0046 44.4858 28.1816ZM47.8452 32.9473C47.8452 33.1139 47.7983 33.3275 47.7045 33.5879C47.6212 33.8483 47.5118 34.1035 47.3764 34.3535C47.2514 34.6035 47.1056 34.8171 46.9389 34.9941C46.7722 35.1712 46.6108 35.2598 46.4545 35.2598C46.2462 35.2598 46.142 35.1556 46.142 34.9473C46.142 34.8223 46.1681 34.7025 46.2202 34.5879C46.2722 34.4733 46.3295 34.3587 46.392 34.2441C46.4545 34.14 46.5118 34.0306 46.5639 33.916C46.616 33.8118 46.642 33.7077 46.642 33.6035C46.4858 33.7077 46.3191 33.7598 46.142 33.7598C45.9025 33.7598 45.6993 33.666 45.5327 33.4785C45.366 33.291 45.2827 33.0827 45.2827 32.8535C45.2827 32.5202 45.392 32.2546 45.6108 32.0566C45.8295 31.8483 46.1056 31.7441 46.4389 31.7441C46.8139 31.7441 47.142 31.8431 47.4233 32.041C47.7045 32.2389 47.8452 32.541 47.8452 32.9473ZM59.392 29.1191C59.392 29.5775 59.34 30.0827 59.2358 30.6348C59.142 31.1764 58.9754 31.6816 58.7358 32.1504C58.5066 32.6191 58.1993 33.0098 57.8139 33.3223C57.4389 33.6348 56.965 33.791 56.392 33.791C56.2462 33.791 56.0952 33.7806 55.9389 33.7598C55.7827 33.7389 55.6316 33.7025 55.4858 33.6504C55.3504 33.5983 55.2254 33.5306 55.1108 33.4473C54.9962 33.3535 54.9077 33.2337 54.8452 33.0879L54.7045 35.3379C54.6941 35.5775 54.6837 35.8639 54.6733 36.1973C54.6733 36.5306 54.6316 36.8483 54.5483 37.1504C54.4754 37.4525 54.3452 37.7077 54.1577 37.916C53.9806 38.1348 53.7202 38.2441 53.3764 38.2441C53.1785 38.2441 53.0118 38.14 52.8764 37.9316C52.741 37.7337 52.6316 37.4785 52.5483 37.166C52.4754 36.8535 52.4181 36.5046 52.3764 36.1191C52.3347 35.7337 52.3087 35.3639 52.2983 35.0098C52.2879 34.6556 52.2827 34.3327 52.2827 34.041C52.2827 33.7493 52.2827 33.5358 52.2827 33.4004C52.2827 32.7025 52.2775 32.0098 52.267 31.3223C52.2566 30.6243 52.2514 29.9264 52.2514 29.2285C52.2514 29.1035 52.2514 28.9108 52.2514 28.6504C52.2514 28.3796 52.2618 28.0879 52.2827 27.7754C52.3035 27.4629 52.3347 27.14 52.3764 26.8066C52.4285 26.4733 52.5014 26.1712 52.5952 25.9004C52.6889 25.6191 52.8087 25.3952 52.9545 25.2285C53.1004 25.0514 53.2775 24.9629 53.4858 24.9629C53.6212 24.9629 53.741 25.0046 53.8452 25.0879C53.9597 25.1608 54.0535 25.2598 54.1264 25.3848C54.2097 25.4993 54.2775 25.6243 54.3295 25.7598C54.3816 25.8952 54.4233 26.0202 54.4545 26.1348C54.7775 25.7702 55.1472 25.4941 55.5639 25.3066C55.991 25.1191 56.4441 25.0254 56.9233 25.0254C57.4233 25.0254 57.8295 25.166 58.142 25.4473C58.465 25.7285 58.715 26.0775 58.892 26.4941C59.0795 26.9108 59.2097 27.3587 59.2827 27.8379C59.3556 28.3066 59.392 28.7337 59.392 29.1191ZM57.1577 28.9941C57.1577 28.8379 57.142 28.6816 57.1108 28.5254C57.09 28.3587 57.0431 28.2077 56.9702 28.0723C56.9077 27.9264 56.8139 27.8118 56.6889 27.7285C56.5639 27.6348 56.4077 27.5879 56.2202 27.5879C55.9702 27.5879 55.7045 27.6712 55.4233 27.8379C55.1525 27.9941 54.9493 28.1764 54.8139 28.3848C54.7618 28.4681 54.7306 28.6035 54.7202 28.791C54.7097 28.9785 54.7045 29.1191 54.7045 29.2129C54.7045 29.2858 54.7045 29.3848 54.7045 29.5098C54.715 29.6243 54.7254 29.7441 54.7358 29.8691C54.7462 29.9941 54.7566 30.1139 54.767 30.2285C54.7879 30.3431 54.8139 30.4316 54.8452 30.4941C54.8764 30.5879 54.9441 30.6764 55.0483 30.7598C55.1525 30.8327 55.267 30.9004 55.392 30.9629C55.517 31.0254 55.642 31.0723 55.767 31.1035C55.9025 31.1348 56.017 31.1504 56.1108 31.1504C56.3295 31.1504 56.5066 31.0671 56.642 30.9004C56.7775 30.7337 56.8816 30.5358 56.9545 30.3066C57.0379 30.0775 57.09 29.8431 57.1108 29.6035C57.142 29.3535 57.1577 29.1504 57.1577 28.9941ZM66.892 30.9941C66.892 31.3483 66.7775 31.6973 66.5483 32.041C66.3295 32.3743 66.0483 32.6764 65.7045 32.9473C65.3712 33.2077 65.0118 33.4212 64.6264 33.5879C64.241 33.7441 63.8868 33.8223 63.5639 33.8223C63.0118 33.8223 62.517 33.6868 62.0795 33.416C61.6525 33.1348 61.2931 32.7806 61.0014 32.3535C60.7097 31.9264 60.4858 31.4577 60.3295 30.9473C60.1837 30.4264 60.1108 29.9212 60.1108 29.4316C60.1108 28.9108 60.1837 28.3535 60.3295 27.7598C60.4754 27.166 60.6941 26.6191 60.9858 26.1191C61.2879 25.6191 61.6629 25.2025 62.1108 24.8691C62.5691 24.5358 63.1108 24.3691 63.7358 24.3691C64.09 24.3691 64.4285 24.4316 64.7514 24.5566C65.0743 24.6712 65.3556 24.8379 65.5952 25.0566C65.8347 25.2754 66.0275 25.5358 66.1733 25.8379C66.3191 26.14 66.392 26.4785 66.392 26.8535C66.392 27.3431 66.2879 27.8014 66.0795 28.2285C65.8712 28.6556 65.5952 29.0254 65.2514 29.3379C64.9077 29.6504 64.5118 29.9056 64.0639 30.1035C63.616 30.291 63.1577 30.3952 62.6889 30.416C62.7306 30.7181 62.8504 30.9368 63.0483 31.0723C63.2566 31.2077 63.5014 31.2754 63.7827 31.2754C63.991 31.2754 64.1941 31.2233 64.392 31.1191C64.59 31.015 64.7827 30.9004 64.9702 30.7754C65.1577 30.64 65.34 30.5202 65.517 30.416C65.7045 30.3118 65.892 30.2598 66.0795 30.2598C66.2879 30.2598 66.4754 30.3275 66.642 30.4629C66.8087 30.5983 66.892 30.7754 66.892 30.9941ZM64.3608 27.166C64.3608 27.0306 64.3243 26.89 64.2514 26.7441C64.1785 26.5983 64.0639 26.5254 63.9077 26.5254C63.6785 26.5254 63.4858 26.5879 63.3295 26.7129C63.1733 26.8275 63.0431 26.9785 62.9389 27.166C62.8347 27.3431 62.7514 27.5358 62.6889 27.7441C62.6368 27.9525 62.6056 28.1452 62.5952 28.3223C62.741 28.291 62.9129 28.2493 63.1108 28.1973C63.3191 28.1452 63.5118 28.0775 63.6889 27.9941C63.8764 27.9004 64.0327 27.7858 64.1577 27.6504C64.2931 27.515 64.3608 27.3535 64.3608 27.166ZM72.0952 25.1816C72.0952 25.4837 71.991 25.7077 71.7827 25.8535C71.5847 25.9993 71.3608 26.14 71.1108 26.2754C70.8608 26.4004 70.6316 26.5514 70.4233 26.7285C70.2254 26.9056 70.1264 27.1712 70.1264 27.5254C70.1264 27.7129 70.1681 27.8743 70.2514 28.0098C70.3452 28.1452 70.4545 28.2702 70.5795 28.3848C70.715 28.4889 70.8608 28.5983 71.017 28.7129C71.1733 28.8275 71.3139 28.9577 71.4389 29.1035C71.5743 29.2493 71.6837 29.4264 71.767 29.6348C71.8608 29.8431 71.9077 30.0983 71.9077 30.4004C71.9077 30.8379 71.7931 31.2702 71.5639 31.6973C71.3452 32.1139 71.0587 32.4889 70.7045 32.8223C70.3608 33.1452 69.9702 33.4056 69.5327 33.6035C69.0952 33.8014 68.6629 33.9004 68.2358 33.9004C68.0587 33.9004 67.8816 33.8848 67.7045 33.8535C67.5275 33.8327 67.366 33.7858 67.2202 33.7129C67.0847 33.64 66.9702 33.541 66.8764 33.416C66.7827 33.2806 66.7358 33.1087 66.7358 32.9004C66.7358 32.6087 66.7931 32.3848 66.9077 32.2285C67.0222 32.0618 67.1681 31.9316 67.3452 31.8379C67.5222 31.7441 67.7097 31.6712 67.9077 31.6191C68.116 31.5671 68.3087 31.5046 68.4858 31.4316C68.6629 31.3483 68.8087 31.2441 68.9233 31.1191C69.0379 30.9941 69.0952 30.8171 69.0952 30.5879C69.0952 30.3691 69.0066 30.1452 68.8295 29.916C68.6629 29.6764 68.4754 29.4264 68.267 29.166C68.0587 28.8952 67.866 28.6087 67.6889 28.3066C67.5222 28.0046 67.4389 27.6712 67.4389 27.3066C67.4389 26.8587 67.5275 26.4473 67.7045 26.0723C67.892 25.6868 68.1368 25.3535 68.4389 25.0723C68.7514 24.791 69.1056 24.5723 69.5014 24.416C69.8972 24.2493 70.3139 24.166 70.7514 24.166C70.9181 24.166 71.0795 24.1816 71.2358 24.2129C71.4025 24.2441 71.5483 24.3014 71.6733 24.3848C71.7983 24.4577 71.8972 24.5618 71.9702 24.6973C72.0535 24.8223 72.0952 24.9837 72.0952 25.1816ZM77.2983 25.1816C77.2983 25.4837 77.1941 25.7077 76.9858 25.8535C76.7879 25.9993 76.5639 26.14 76.3139 26.2754C76.0639 26.4004 75.8347 26.5514 75.6264 26.7285C75.4285 26.9056 75.3295 27.1712 75.3295 27.5254C75.3295 27.7129 75.3712 27.8743 75.4545 28.0098C75.5483 28.1452 75.6577 28.2702 75.7827 28.3848C75.9181 28.4889 76.0639 28.5983 76.2202 28.7129C76.3764 28.8275 76.517 28.9577 76.642 29.1035C76.7775 29.2493 76.8868 29.4264 76.9702 29.6348C77.0639 29.8431 77.1108 30.0983 77.1108 30.4004C77.1108 30.8379 76.9962 31.2702 76.767 31.6973C76.5483 32.1139 76.2618 32.4889 75.9077 32.8223C75.5639 33.1452 75.1733 33.4056 74.7358 33.6035C74.2983 33.8014 73.866 33.9004 73.4389 33.9004C73.2618 33.9004 73.0847 33.8848 72.9077 33.8535C72.7306 33.8327 72.5691 33.7858 72.4233 33.7129C72.2879 33.64 72.1733 33.541 72.0795 33.416C71.9858 33.2806 71.9389 33.1087 71.9389 32.9004C71.9389 32.6087 71.9962 32.3848 72.1108 32.2285C72.2254 32.0618 72.3712 31.9316 72.5483 31.8379C72.7254 31.7441 72.9129 31.6712 73.1108 31.6191C73.3191 31.5671 73.5118 31.5046 73.6889 31.4316C73.866 31.3483 74.0118 31.2441 74.1264 31.1191C74.241 30.9941 74.2983 30.8171 74.2983 30.5879C74.2983 30.3691 74.2097 30.1452 74.0327 29.916C73.866 29.6764 73.6785 29.4264 73.4702 29.166C73.2618 28.8952 73.0691 28.6087 72.892 28.3066C72.7254 28.0046 72.642 27.6712 72.642 27.3066C72.642 26.8587 72.7306 26.4473 72.9077 26.0723C73.0952 25.6868 73.34 25.3535 73.642 25.0723C73.9545 24.791 74.3087 24.5723 74.7045 24.416C75.1004 24.2493 75.517 24.166 75.9545 24.166C76.1212 24.166 76.2827 24.1816 76.4389 24.2129C76.6056 24.2441 76.7514 24.3014 76.8764 24.3848C77.0014 24.4577 77.1004 24.5618 77.1733 24.6973C77.2566 24.8223 77.2983 24.9837 77.2983 25.1816ZM80.892 34.2285C80.3608 34.2285 79.8972 34.0879 79.5014 33.8066C79.1056 33.5254 78.7722 33.166 78.5014 32.7285C78.2306 32.291 78.0275 31.8066 77.892 31.2754C77.7566 30.7337 77.6889 30.2025 77.6889 29.6816C77.6889 29.1296 77.7566 28.5618 77.892 27.9785C78.0275 27.3848 78.2358 26.8483 78.517 26.3691C78.7983 25.8796 79.1577 25.4837 79.5952 25.1816C80.0327 24.8691 80.5535 24.7129 81.1577 24.7129C81.741 24.7129 82.2358 24.8743 82.642 25.1973C83.0587 25.5098 83.392 25.9056 83.642 26.3848C83.892 26.8535 84.0691 27.3691 84.1733 27.9316C84.2775 28.4941 84.3139 29.0254 84.2827 29.5254C84.2514 30.0775 84.1629 30.6348 84.017 31.1973C83.8816 31.7598 83.6785 32.265 83.4077 32.7129C83.1368 33.1608 82.7931 33.5254 82.3764 33.8066C81.9597 34.0879 81.465 34.2285 80.892 34.2285ZM81.0483 27.166C80.892 27.166 80.7514 27.2493 80.6264 27.416C80.5118 27.5827 80.4129 27.7858 80.3295 28.0254C80.2566 28.265 80.1993 28.5202 80.1577 28.791C80.116 29.0514 80.0952 29.2806 80.0952 29.4785C80.0952 29.7285 80.116 29.9993 80.1577 30.291C80.2097 30.5827 80.2775 30.8535 80.3608 31.1035C80.4441 31.3431 80.5431 31.5462 80.6577 31.7129C80.7827 31.8691 80.9233 31.9473 81.0795 31.9473C81.2462 31.9473 81.3868 31.8691 81.5014 31.7129C81.6264 31.5566 81.7254 31.3587 81.7983 31.1191C81.8712 30.8796 81.9233 30.6191 81.9545 30.3379C81.9858 30.0462 82.0014 29.7754 82.0014 29.5254C82.0014 29.2962 81.9806 29.0462 81.9389 28.7754C81.8972 28.4941 81.8347 28.2337 81.7514 27.9941C81.6785 27.7546 81.5795 27.5566 81.4545 27.4004C81.34 27.2441 81.2045 27.166 81.0483 27.166ZM91.7202 31.5723C91.7202 31.7598 91.7097 32.0046 91.6889 32.3066C91.6785 32.6087 91.6368 32.9056 91.5639 33.1973C91.491 33.4785 91.3764 33.7233 91.2202 33.9316C91.0639 34.14 90.8452 34.2441 90.5639 34.2441C90.1785 34.2441 89.8816 34.1191 89.6733 33.8691C89.465 33.6191 89.366 33.3066 89.3764 32.9316C89.0431 33.2233 88.6629 33.4525 88.2358 33.6191C87.8191 33.7858 87.392 33.8691 86.9545 33.8691C86.6525 33.8691 86.366 33.7962 86.0952 33.6504C85.8243 33.5046 85.5847 33.3171 85.3764 33.0879C85.1681 32.8587 85.0014 32.6035 84.8764 32.3223C84.7514 32.0306 84.6889 31.7441 84.6889 31.4629C84.6889 30.9629 84.84 30.5254 85.142 30.1504C85.4545 29.7754 85.8347 29.4577 86.2827 29.1973C86.7306 28.9264 87.2045 28.7129 87.7045 28.5566C88.215 28.4004 88.6681 28.2962 89.0639 28.2441C89.0639 28.1921 89.0639 28.1452 89.0639 28.1035C89.0743 28.0618 89.0795 28.015 89.0795 27.9629C89.0795 27.64 88.991 27.3796 88.8139 27.1816C88.6368 26.9837 88.3868 26.8848 88.0639 26.8848C87.8035 26.8848 87.5795 26.9316 87.392 27.0254C87.2045 27.1087 87.0275 27.2077 86.8608 27.3223C86.6941 27.4264 86.5275 27.5254 86.3608 27.6191C86.1941 27.7025 86.0066 27.7441 85.7983 27.7441C85.5691 27.7441 85.3712 27.6712 85.2045 27.5254C85.0483 27.3796 84.9702 27.1921 84.9702 26.9629C84.9702 26.6191 85.0691 26.3066 85.267 26.0254C85.4754 25.7441 85.7306 25.5098 86.0327 25.3223C86.3452 25.1243 86.6785 24.9733 87.0327 24.8691C87.3972 24.7546 87.7306 24.6973 88.0327 24.6973C88.3139 24.6973 88.5952 24.7337 88.8764 24.8066C89.1577 24.8691 89.4233 24.9733 89.6733 25.1191C89.9233 25.2546 90.1472 25.4264 90.3452 25.6348C90.5535 25.8327 90.7202 26.0671 90.8452 26.3379C91.0327 26.7233 91.1837 27.1348 91.2983 27.5723C91.4129 27.9993 91.5014 28.4421 91.5639 28.9004C91.6264 29.3483 91.6681 29.8014 91.6889 30.2598C91.7097 30.7077 91.7202 31.1452 91.7202 31.5723ZM89.2202 31.0723L89.1733 30.0098C89.1525 30.0098 89.1316 30.0098 89.1108 30.0098C89.09 29.9993 89.0691 29.9941 89.0483 29.9941C88.9129 29.9941 88.741 30.0306 88.5327 30.1035C88.3347 30.166 88.142 30.2598 87.9545 30.3848C87.767 30.4993 87.6056 30.6296 87.4702 30.7754C87.3452 30.9212 87.2827 31.0723 87.2827 31.2285C87.2827 31.3743 87.3347 31.4733 87.4389 31.5254C87.5431 31.5775 87.6629 31.6035 87.7983 31.6035C88.0275 31.6035 88.2722 31.5462 88.5327 31.4316C88.7931 31.3066 89.0222 31.1868 89.2202 31.0723ZM95.5795 24.3066C95.5795 24.8691 95.5535 25.4368 95.5014 26.0098C95.4597 26.5723 95.4389 27.14 95.4389 27.7129C95.4389 28.4525 95.4597 29.1921 95.5014 29.9316C95.5535 30.6712 95.5795 31.416 95.5795 32.166C95.5795 32.3535 95.5691 32.5671 95.5483 32.8066C95.5275 33.0358 95.4754 33.2493 95.392 33.4473C95.3191 33.6452 95.2045 33.8118 95.0483 33.9473C94.892 34.0827 94.6837 34.1504 94.4233 34.1504C94.1733 34.1504 93.9545 34.0254 93.767 33.7754C93.59 33.5358 93.4389 33.2285 93.3139 32.8535C93.1993 32.4681 93.1004 32.041 93.017 31.5723C92.9441 31.1035 92.8868 30.6504 92.8452 30.2129C92.8139 29.765 92.7879 29.3587 92.767 28.9941C92.7566 28.6191 92.7514 28.3431 92.7514 28.166C92.7514 27.9681 92.7566 27.6816 92.767 27.3066C92.7879 26.9316 92.8243 26.5254 92.8764 26.0879C92.9285 25.6504 92.9962 25.2077 93.0795 24.7598C93.1733 24.3014 93.2931 23.89 93.4389 23.5254C93.5847 23.1504 93.7566 22.8483 93.9545 22.6191C94.1629 22.3796 94.4077 22.2598 94.6889 22.2598C94.9181 22.2598 95.09 22.3379 95.2045 22.4941C95.3295 22.64 95.4181 22.8223 95.4702 23.041C95.5222 23.2493 95.5535 23.4733 95.5639 23.7129C95.5743 23.9421 95.5795 24.14 95.5795 24.3066ZM99.6889 27.2285C99.6889 27.3952 99.6785 27.6243 99.6577 27.916C99.6368 28.1973 99.6056 28.5046 99.5639 28.8379C99.5222 29.1608 99.4597 29.4941 99.3764 29.8379C99.3035 30.1712 99.215 30.4785 99.1108 30.7598C99.0066 31.0306 98.8816 31.2546 98.7358 31.4316C98.59 31.5983 98.4233 31.6816 98.2358 31.6816C98.0066 31.6816 97.8087 31.5723 97.642 31.3535C97.4858 31.1243 97.3504 30.8379 97.2358 30.4941C97.1316 30.14 97.0483 29.7493 96.9858 29.3223C96.9233 28.8952 96.8764 28.4785 96.8452 28.0723C96.8139 27.6556 96.7931 27.2754 96.7827 26.9316C96.7827 26.5775 96.7827 26.3066 96.7827 26.1191C96.7827 25.9316 96.7827 25.6973 96.7827 25.416C96.7827 25.1243 96.7931 24.8171 96.8139 24.4941C96.8452 24.1712 96.8868 23.8535 96.9389 23.541C97.0014 23.2181 97.09 22.9264 97.2045 22.666C97.3191 22.4056 97.4702 22.1973 97.6577 22.041C97.8452 21.8743 98.0795 21.791 98.3608 21.791C98.6108 21.791 98.8139 21.9004 98.9702 22.1191C99.1368 22.3275 99.267 22.6035 99.3608 22.9473C99.465 23.2806 99.5379 23.6556 99.5795 24.0723C99.6316 24.4889 99.6629 24.9004 99.6733 25.3066C99.6941 25.7025 99.6993 26.0723 99.6889 26.416C99.6889 26.7598 99.6889 27.0306 99.6889 27.2285ZM99.392 33.166C99.392 33.3431 99.3504 33.4993 99.267 33.6348C99.1837 33.7598 99.0743 33.8639 98.9389 33.9473C98.8035 34.041 98.6577 34.1087 98.5014 34.1504C98.3452 34.1921 98.1889 34.2129 98.0327 34.2129C97.8035 34.2129 97.5847 34.1504 97.3764 34.0254C97.1681 33.9108 97.0639 33.7233 97.0639 33.4629C97.0639 33.3066 97.1056 33.166 97.1889 33.041C97.2827 32.9056 97.3972 32.791 97.5327 32.6973C97.6681 32.6035 97.8139 32.5306 97.9702 32.4785C98.1368 32.4264 98.2931 32.4004 98.4389 32.4004C98.6785 32.4004 98.8972 32.4629 99.0952 32.5879C99.2931 32.7025 99.392 32.8952 99.392 33.166ZM107.986 34.291C107.35 34.291 106.798 34.1296 106.33 33.8066C105.861 33.4941 105.47 33.0723 105.158 32.541C104.856 31.9993 104.626 31.3743 104.47 30.666C104.324 29.9577 104.251 29.2129 104.251 28.4316C104.251 27.7025 104.33 26.9629 104.486 26.2129C104.652 25.4629 104.902 24.7858 105.236 24.1816C105.569 23.5775 105.991 23.0827 106.501 22.6973C107.012 22.3118 107.621 22.1191 108.33 22.1191C109.017 22.1191 109.59 22.3066 110.048 22.6816C110.517 23.0462 110.887 23.5254 111.158 24.1191C111.439 24.7025 111.637 25.3587 111.751 26.0879C111.876 26.8171 111.939 27.5462 111.939 28.2754C111.939 29.0879 111.856 29.8587 111.689 30.5879C111.533 31.3066 111.288 31.9421 110.955 32.4941C110.632 33.0462 110.22 33.4837 109.72 33.8066C109.231 34.1296 108.652 34.291 107.986 34.291ZM108.173 25.5723C107.975 25.5723 107.803 25.6504 107.658 25.8066C107.522 25.9629 107.408 26.1712 107.314 26.4316C107.22 26.6816 107.152 26.9681 107.111 27.291C107.069 27.6035 107.048 27.9212 107.048 28.2441C107.048 28.6087 107.069 28.9733 107.111 29.3379C107.163 29.7025 107.236 30.0306 107.33 30.3223C107.423 30.6139 107.538 30.8483 107.673 31.0254C107.819 31.2025 107.991 31.291 108.189 31.291C108.418 31.291 108.6 31.1764 108.736 30.9473C108.871 30.7181 108.975 30.4421 109.048 30.1191C109.132 29.7962 109.184 29.4629 109.205 29.1191C109.236 28.7754 109.251 28.4889 109.251 28.2598C109.251 27.9785 109.231 27.6816 109.189 27.3691C109.158 27.0566 109.1 26.7702 109.017 26.5098C108.934 26.2389 108.824 26.015 108.689 25.8379C108.553 25.6608 108.382 25.5723 108.173 25.5723ZM124.205 25.5566C124.205 26.2754 124.038 26.9212 123.705 27.4941C123.371 28.0671 122.928 28.5723 122.376 29.0098C122.543 29.2598 122.715 29.5514 122.892 29.8848C123.069 30.2181 123.225 30.5723 123.361 30.9473C123.507 31.3118 123.621 31.6816 123.705 32.0566C123.798 32.4212 123.845 32.7598 123.845 33.0723C123.845 33.4056 123.762 33.7025 123.595 33.9629C123.439 34.2337 123.168 34.3691 122.783 34.3691C122.46 34.3691 122.178 34.2129 121.939 33.9004C121.71 33.5879 121.501 33.2181 121.314 32.791C121.137 32.3535 120.97 31.9108 120.814 31.4629C120.668 31.015 120.527 30.6556 120.392 30.3848C120.205 30.4473 120.022 30.5202 119.845 30.6035C119.668 30.6764 119.486 30.7493 119.298 30.8223C119.288 31.0514 119.267 31.3691 119.236 31.7754C119.215 32.1712 119.158 32.5671 119.064 32.9629C118.981 33.3587 118.85 33.7025 118.673 33.9941C118.496 34.2858 118.251 34.4316 117.939 34.4316C117.595 34.4316 117.33 34.291 117.142 34.0098C116.955 33.7285 116.819 33.3952 116.736 33.0098C116.663 32.6243 116.621 32.2337 116.611 31.8379C116.6 31.4316 116.595 31.1139 116.595 30.8848C116.595 30.3952 116.606 29.916 116.626 29.4473C116.647 28.9681 116.658 28.4837 116.658 27.9941C116.658 27.5462 116.647 27.0983 116.626 26.6504C116.616 26.2025 116.611 25.7493 116.611 25.291C116.611 25.1868 116.611 25.0566 116.611 24.9004C116.611 24.7337 116.616 24.5671 116.626 24.4004C116.647 24.2233 116.668 24.0566 116.689 23.9004C116.71 23.7441 116.746 23.6191 116.798 23.5254C116.902 23.3066 117.137 23.0983 117.501 22.9004C117.876 22.7025 118.283 22.5306 118.72 22.3848C119.168 22.2285 119.6 22.1087 120.017 22.0254C120.444 21.9316 120.762 21.8848 120.97 21.8848C121.501 21.8848 121.97 21.9837 122.376 22.1816C122.783 22.3796 123.121 22.6504 123.392 22.9941C123.663 23.3275 123.866 23.7181 124.001 24.166C124.137 24.6035 124.205 25.0671 124.205 25.5566ZM121.314 25.7754C121.314 25.5046 121.251 25.3014 121.126 25.166C121.001 25.0202 120.798 24.9473 120.517 24.9473C120.309 24.9473 120.095 24.9837 119.876 25.0566C119.668 25.1296 119.475 25.2129 119.298 25.3066C119.34 26.1296 119.356 26.9473 119.345 27.7598C119.564 27.6868 119.788 27.5931 120.017 27.4785C120.246 27.3639 120.455 27.2233 120.642 27.0566C120.84 26.89 121.001 26.7025 121.126 26.4941C121.251 26.2858 121.314 26.0462 121.314 25.7754ZM131.298 30.9941C131.298 31.3483 131.184 31.6973 130.955 32.041C130.736 32.3743 130.455 32.6764 130.111 32.9473C129.777 33.2077 129.418 33.4212 129.033 33.5879C128.647 33.7441 128.293 33.8223 127.97 33.8223C127.418 33.8223 126.923 33.6868 126.486 33.416C126.059 33.1348 125.699 32.7806 125.408 32.3535C125.116 31.9264 124.892 31.4577 124.736 30.9473C124.59 30.4264 124.517 29.9212 124.517 29.4316C124.517 28.9108 124.59 28.3535 124.736 27.7598C124.882 27.166 125.1 26.6191 125.392 26.1191C125.694 25.6191 126.069 25.2025 126.517 24.8691C126.975 24.5358 127.517 24.3691 128.142 24.3691C128.496 24.3691 128.835 24.4316 129.158 24.5566C129.481 24.6712 129.762 24.8379 130.001 25.0566C130.241 25.2754 130.434 25.5358 130.58 25.8379C130.725 26.14 130.798 26.4785 130.798 26.8535C130.798 27.3431 130.694 27.8014 130.486 28.2285C130.277 28.6556 130.001 29.0254 129.658 29.3379C129.314 29.6504 128.918 29.9056 128.47 30.1035C128.022 30.291 127.564 30.3952 127.095 30.416C127.137 30.7181 127.257 30.9368 127.455 31.0723C127.663 31.2077 127.908 31.2754 128.189 31.2754C128.397 31.2754 128.6 31.2233 128.798 31.1191C128.996 31.015 129.189 30.9004 129.376 30.7754C129.564 30.64 129.746 30.5202 129.923 30.416C130.111 30.3118 130.298 30.2598 130.486 30.2598C130.694 30.2598 130.882 30.3275 131.048 30.4629C131.215 30.5983 131.298 30.7754 131.298 30.9941ZM128.767 27.166C128.767 27.0306 128.731 26.89 128.658 26.7441C128.585 26.5983 128.47 26.5254 128.314 26.5254C128.085 26.5254 127.892 26.5879 127.736 26.7129C127.58 26.8275 127.449 26.9785 127.345 27.166C127.241 27.3431 127.158 27.5358 127.095 27.7441C127.043 27.9525 127.012 28.1452 127.001 28.3223C127.147 28.291 127.319 28.2493 127.517 28.1973C127.725 28.1452 127.918 28.0775 128.095 27.9941C128.283 27.9004 128.439 27.7858 128.564 27.6504C128.699 27.515 128.767 27.3535 128.767 27.166ZM134.501 22.8691C134.501 23.015 134.46 23.1452 134.376 23.2598C134.303 23.3743 134.205 23.4785 134.08 23.5723C133.955 23.6556 133.819 23.7233 133.673 23.7754C133.527 23.8171 133.392 23.8379 133.267 23.8379C133.059 23.8379 132.876 23.7858 132.72 23.6816C132.564 23.5775 132.486 23.416 132.486 23.1973C132.486 23.041 132.522 22.9056 132.595 22.791C132.678 22.666 132.777 22.5671 132.892 22.4941C133.007 22.4108 133.137 22.3483 133.283 22.3066C133.428 22.265 133.569 22.2441 133.705 22.2441C133.902 22.2441 134.085 22.291 134.251 22.3848C134.418 22.4785 134.501 22.64 134.501 22.8691ZM134.626 28.1816C134.626 28.3275 134.626 28.4837 134.626 28.6504C134.626 28.8066 134.621 28.9577 134.611 29.1035C134.6 29.2806 134.595 29.5202 134.595 29.8223C134.595 30.1139 134.585 30.4316 134.564 30.7754C134.543 31.1191 134.507 31.4681 134.455 31.8223C134.413 32.1764 134.34 32.4993 134.236 32.791C134.132 33.0827 133.991 33.3223 133.814 33.5098C133.647 33.6868 133.434 33.7806 133.173 33.791C132.975 33.8014 132.809 33.7233 132.673 33.5566C132.538 33.39 132.423 33.1764 132.33 32.916C132.246 32.6452 132.184 32.3483 132.142 32.0254C132.1 31.6921 132.069 31.3743 132.048 31.0723C132.027 30.7598 132.017 30.4733 132.017 30.2129C132.017 29.9525 132.017 29.7598 132.017 29.6348C132.017 29.4681 132.017 29.2337 132.017 28.9316C132.017 28.6191 132.027 28.2858 132.048 27.9316C132.069 27.5775 132.106 27.2181 132.158 26.8535C132.22 26.4889 132.303 26.1556 132.408 25.8535C132.522 25.5514 132.668 25.3066 132.845 25.1191C133.022 24.9316 133.246 24.8379 133.517 24.8379C133.798 24.8379 134.012 24.9785 134.158 25.2598C134.303 25.541 134.413 25.8691 134.486 26.2441C134.559 26.6191 134.6 26.9941 134.611 27.3691C134.621 27.7337 134.626 28.0046 134.626 28.1816ZM146.236 23.4941C146.236 24.2546 146.205 25.0098 146.142 25.7598C146.09 26.5098 146.064 27.265 146.064 28.0254C146.064 28.64 146.08 29.2493 146.111 29.8535C146.152 30.4577 146.173 31.0671 146.173 31.6816C146.173 31.8483 146.168 32.0514 146.158 32.291C146.147 32.5202 146.111 32.7441 146.048 32.9629C145.996 33.1816 145.902 33.3691 145.767 33.5254C145.642 33.6816 145.46 33.7598 145.22 33.7598C144.908 33.7598 144.647 33.6452 144.439 33.416C144.241 33.1764 144.116 32.9108 144.064 32.6191C143.866 32.9941 143.58 33.3118 143.205 33.5723C142.83 33.8327 142.423 33.9629 141.986 33.9629C141.517 33.9629 141.111 33.8014 140.767 33.4785C140.434 33.1556 140.152 32.765 139.923 32.3066C139.705 31.8483 139.538 31.3691 139.423 30.8691C139.319 30.3691 139.267 29.9368 139.267 29.5723C139.267 29.3118 139.283 29.015 139.314 28.6816C139.345 28.3483 139.397 28.0098 139.47 27.666C139.553 27.3223 139.658 26.9889 139.783 26.666C139.908 26.3327 140.064 26.0358 140.251 25.7754C140.449 25.515 140.678 25.3066 140.939 25.1504C141.21 24.9941 141.517 24.916 141.861 24.916C142.236 24.916 142.595 25.0254 142.939 25.2441C143.283 25.4629 143.543 25.7337 143.72 26.0566L143.861 23.5723C143.871 23.3743 143.887 23.1452 143.908 22.8848C143.928 22.6139 143.97 22.3587 144.033 22.1191C144.106 21.8796 144.215 21.6764 144.361 21.5098C144.507 21.3431 144.72 21.2598 145.001 21.2598C145.303 21.2598 145.538 21.3327 145.705 21.4785C145.871 21.6243 145.991 21.8118 146.064 22.041C146.147 22.2598 146.194 22.4993 146.205 22.7598C146.225 23.0202 146.236 23.265 146.236 23.4941ZM143.689 30.4316C143.689 30.1921 143.684 29.9577 143.673 29.7285C143.663 29.4993 143.663 29.265 143.673 29.0254C143.611 28.89 143.538 28.7441 143.455 28.5879C143.371 28.4212 143.267 28.2702 143.142 28.1348C143.027 27.9889 142.897 27.8691 142.751 27.7754C142.606 27.6816 142.449 27.6348 142.283 27.6348C142.095 27.6348 141.944 27.6921 141.83 27.8066C141.715 27.9212 141.632 28.0618 141.58 28.2285C141.527 28.3848 141.491 28.5566 141.47 28.7441C141.46 28.9316 141.455 29.0931 141.455 29.2285C141.455 29.3535 141.465 29.541 141.486 29.791C141.507 30.0306 141.543 30.2754 141.595 30.5254C141.658 30.7754 141.741 30.9941 141.845 31.1816C141.949 31.3691 142.09 31.4629 142.267 31.4629C142.402 31.4629 142.538 31.4368 142.673 31.3848C142.809 31.3223 142.934 31.2493 143.048 31.166C143.173 31.0723 143.288 30.9733 143.392 30.8691C143.507 30.7546 143.606 30.6504 143.689 30.5566V30.4316ZM153.908 31.5723C153.908 31.7598 153.897 32.0046 153.876 32.3066C153.866 32.6087 153.824 32.9056 153.751 33.1973C153.678 33.4785 153.564 33.7233 153.408 33.9316C153.251 34.14 153.033 34.2441 152.751 34.2441C152.366 34.2441 152.069 34.1191 151.861 33.8691C151.652 33.6191 151.553 33.3066 151.564 32.9316C151.231 33.2233 150.85 33.4525 150.423 33.6191C150.007 33.7858 149.58 33.8691 149.142 33.8691C148.84 33.8691 148.553 33.7962 148.283 33.6504C148.012 33.5046 147.772 33.3171 147.564 33.0879C147.356 32.8587 147.189 32.6035 147.064 32.3223C146.939 32.0306 146.876 31.7441 146.876 31.4629C146.876 30.9629 147.027 30.5254 147.33 30.1504C147.642 29.7754 148.022 29.4577 148.47 29.1973C148.918 28.9264 149.392 28.7129 149.892 28.5566C150.402 28.4004 150.856 28.2962 151.251 28.2441C151.251 28.1921 151.251 28.1452 151.251 28.1035C151.262 28.0618 151.267 28.015 151.267 27.9629C151.267 27.64 151.178 27.3796 151.001 27.1816C150.824 26.9837 150.574 26.8848 150.251 26.8848C149.991 26.8848 149.767 26.9316 149.58 27.0254C149.392 27.1087 149.215 27.2077 149.048 27.3223C148.882 27.4264 148.715 27.5254 148.548 27.6191C148.382 27.7025 148.194 27.7441 147.986 27.7441C147.757 27.7441 147.559 27.6712 147.392 27.5254C147.236 27.3796 147.158 27.1921 147.158 26.9629C147.158 26.6191 147.257 26.3066 147.455 26.0254C147.663 25.7441 147.918 25.5098 148.22 25.3223C148.533 25.1243 148.866 24.9733 149.22 24.8691C149.585 24.7546 149.918 24.6973 150.22 24.6973C150.501 24.6973 150.783 24.7337 151.064 24.8066C151.345 24.8691 151.611 24.9733 151.861 25.1191C152.111 25.2546 152.335 25.4264 152.533 25.6348C152.741 25.8327 152.908 26.0671 153.033 26.3379C153.22 26.7233 153.371 27.1348 153.486 27.5723C153.6 27.9993 153.689 28.4421 153.751 28.9004C153.814 29.3483 153.856 29.8014 153.876 30.2598C153.897 30.7077 153.908 31.1452 153.908 31.5723ZM151.408 31.0723L151.361 30.0098C151.34 30.0098 151.319 30.0098 151.298 30.0098C151.277 29.9993 151.257 29.9941 151.236 29.9941C151.1 29.9941 150.928 30.0306 150.72 30.1035C150.522 30.166 150.33 30.2598 150.142 30.3848C149.955 30.4993 149.793 30.6296 149.658 30.7754C149.533 30.9212 149.47 31.0723 149.47 31.2285C149.47 31.3743 149.522 31.4733 149.626 31.5254C149.731 31.5775 149.85 31.6035 149.986 31.6035C150.215 31.6035 150.46 31.5462 150.72 31.4316C150.981 31.3066 151.21 31.1868 151.408 31.0723ZM166.111 24.8379C166.111 25.7025 166.09 26.5723 166.048 27.4473C166.007 28.3118 165.955 29.1764 165.892 30.041C165.882 30.1973 165.871 30.4108 165.861 30.6816C165.85 30.9421 165.83 31.2285 165.798 31.541C165.767 31.8431 165.725 32.1504 165.673 32.4629C165.621 32.7754 165.538 33.0618 165.423 33.3223C165.319 33.5723 165.179 33.7754 165.001 33.9316C164.835 34.0983 164.626 34.1816 164.376 34.1816C164.158 34.1816 163.96 34.1348 163.783 34.041C163.616 33.9473 163.475 33.8275 163.361 33.6816C163.246 33.5254 163.158 33.3535 163.095 33.166C163.033 32.9681 163.001 32.765 163.001 32.5566C163.001 32.2129 163.012 31.8691 163.033 31.5254C163.054 31.1712 163.085 30.8223 163.126 30.4785L161.58 30.6348C161.548 30.9056 161.512 31.2337 161.47 31.6191C161.439 31.9941 161.366 32.3587 161.251 32.7129C161.147 33.0566 160.986 33.3535 160.767 33.6035C160.548 33.8535 160.246 33.9785 159.861 33.9785C159.621 33.9785 159.423 33.9212 159.267 33.8066C159.111 33.7025 158.986 33.5671 158.892 33.4004C158.798 33.2233 158.731 33.0306 158.689 32.8223C158.647 32.6139 158.626 32.416 158.626 32.2285C158.626 31.6035 158.652 30.9837 158.705 30.3691C158.757 29.7441 158.793 29.1191 158.814 28.4941C158.835 27.8379 158.84 27.1816 158.83 26.5254C158.83 25.8587 158.84 25.1921 158.861 24.5254C158.871 24.3066 158.876 24.0514 158.876 23.7598C158.887 23.4681 158.923 23.1973 158.986 22.9473C159.059 22.6868 159.173 22.4681 159.33 22.291C159.496 22.1139 159.741 22.0254 160.064 22.0254C160.512 22.0254 160.85 22.1452 161.08 22.3848C161.309 22.6139 161.47 22.9056 161.564 23.2598C161.658 23.6035 161.705 23.9733 161.705 24.3691C161.705 24.7546 161.705 25.1035 161.705 25.416C161.705 25.8327 161.694 26.2441 161.673 26.6504C161.652 27.0462 161.632 27.4473 161.611 27.8535L163.283 27.6035C163.293 27.0931 163.304 26.5879 163.314 26.0879C163.324 25.5879 163.345 25.0879 163.376 24.5879C163.387 24.3483 163.397 24.0931 163.408 23.8223C163.418 23.5514 163.46 23.3014 163.533 23.0723C163.606 22.8431 163.725 22.6556 163.892 22.5098C164.069 22.3535 164.33 22.2754 164.673 22.2754C164.965 22.2754 165.199 22.3587 165.376 22.5254C165.564 22.6921 165.71 22.8952 165.814 23.1348C165.929 23.3743 166.007 23.6296 166.048 23.9004C166.09 24.1712 166.111 24.416 166.111 24.6348V24.8379ZM169.72 22.8691C169.72 23.015 169.679 23.1452 169.595 23.2598C169.522 23.3743 169.423 23.4785 169.298 23.5723C169.173 23.6556 169.038 23.7233 168.892 23.7754C168.746 23.8171 168.611 23.8379 168.486 23.8379C168.277 23.8379 168.095 23.7858 167.939 23.6816C167.783 23.5775 167.705 23.416 167.705 23.1973C167.705 23.041 167.741 22.9056 167.814 22.791C167.897 22.666 167.996 22.5671 168.111 22.4941C168.225 22.4108 168.356 22.3483 168.501 22.3066C168.647 22.265 168.788 22.2441 168.923 22.2441C169.121 22.2441 169.304 22.291 169.47 22.3848C169.637 22.4785 169.72 22.64 169.72 22.8691ZM169.845 28.1816C169.845 28.3275 169.845 28.4837 169.845 28.6504C169.845 28.8066 169.84 28.9577 169.83 29.1035C169.819 29.2806 169.814 29.5202 169.814 29.8223C169.814 30.1139 169.804 30.4316 169.783 30.7754C169.762 31.1191 169.725 31.4681 169.673 31.8223C169.632 32.1764 169.559 32.4993 169.455 32.791C169.35 33.0827 169.21 33.3223 169.033 33.5098C168.866 33.6868 168.652 33.7806 168.392 33.791C168.194 33.8014 168.027 33.7233 167.892 33.5566C167.757 33.39 167.642 33.1764 167.548 32.916C167.465 32.6452 167.402 32.3483 167.361 32.0254C167.319 31.6921 167.288 31.3743 167.267 31.0723C167.246 30.7598 167.236 30.4733 167.236 30.2129C167.236 29.9525 167.236 29.7598 167.236 29.6348C167.236 29.4681 167.236 29.2337 167.236 28.9316C167.236 28.6191 167.246 28.2858 167.267 27.9316C167.288 27.5775 167.324 27.2181 167.376 26.8535C167.439 26.4889 167.522 26.1556 167.626 25.8535C167.741 25.5514 167.887 25.3066 168.064 25.1191C168.241 24.9316 168.465 24.8379 168.736 24.8379C169.017 24.8379 169.231 24.9785 169.376 25.2598C169.522 25.541 169.632 25.8691 169.705 26.2441C169.777 26.6191 169.819 26.9941 169.83 27.3691C169.84 27.7337 169.845 28.0046 169.845 28.1816ZM178.111 29.1191C178.111 29.5775 178.059 30.0827 177.955 30.6348C177.861 31.1764 177.694 31.6816 177.455 32.1504C177.225 32.6191 176.918 33.0098 176.533 33.3223C176.158 33.6348 175.684 33.791 175.111 33.791C174.965 33.791 174.814 33.7806 174.658 33.7598C174.501 33.7389 174.35 33.7025 174.205 33.6504C174.069 33.5983 173.944 33.5306 173.83 33.4473C173.715 33.3535 173.626 33.2337 173.564 33.0879L173.423 35.3379C173.413 35.5775 173.402 35.8639 173.392 36.1973C173.392 36.5306 173.35 36.8483 173.267 37.1504C173.194 37.4525 173.064 37.7077 172.876 37.916C172.699 38.1348 172.439 38.2441 172.095 38.2441C171.897 38.2441 171.731 38.14 171.595 37.9316C171.46 37.7337 171.35 37.4785 171.267 37.166C171.194 36.8535 171.137 36.5046 171.095 36.1191C171.054 35.7337 171.027 35.3639 171.017 35.0098C171.007 34.6556 171.001 34.3327 171.001 34.041C171.001 33.7493 171.001 33.5358 171.001 33.4004C171.001 32.7025 170.996 32.0098 170.986 31.3223C170.975 30.6243 170.97 29.9264 170.97 29.2285C170.97 29.1035 170.97 28.9108 170.97 28.6504C170.97 28.3796 170.981 28.0879 171.001 27.7754C171.022 27.4629 171.054 27.14 171.095 26.8066C171.147 26.4733 171.22 26.1712 171.314 25.9004C171.408 25.6191 171.527 25.3952 171.673 25.2285C171.819 25.0514 171.996 24.9629 172.205 24.9629C172.34 24.9629 172.46 25.0046 172.564 25.0879C172.679 25.1608 172.772 25.2598 172.845 25.3848C172.929 25.4993 172.996 25.6243 173.048 25.7598C173.1 25.8952 173.142 26.0202 173.173 26.1348C173.496 25.7702 173.866 25.4941 174.283 25.3066C174.71 25.1191 175.163 25.0254 175.642 25.0254C176.142 25.0254 176.548 25.166 176.861 25.4473C177.184 25.7285 177.434 26.0775 177.611 26.4941C177.798 26.9108 177.929 27.3587 178.001 27.8379C178.074 28.3066 178.111 28.7337 178.111 29.1191ZM175.876 28.9941C175.876 28.8379 175.861 28.6816 175.83 28.5254C175.809 28.3587 175.762 28.2077 175.689 28.0723C175.626 27.9264 175.533 27.8118 175.408 27.7285C175.283 27.6348 175.126 27.5879 174.939 27.5879C174.689 27.5879 174.423 27.6712 174.142 27.8379C173.871 27.9941 173.668 28.1764 173.533 28.3848C173.481 28.4681 173.449 28.6035 173.439 28.791C173.429 28.9785 173.423 29.1191 173.423 29.2129C173.423 29.2858 173.423 29.3848 173.423 29.5098C173.434 29.6243 173.444 29.7441 173.455 29.8691C173.465 29.9941 173.475 30.1139 173.486 30.2285C173.507 30.3431 173.533 30.4316 173.564 30.4941C173.595 30.5879 173.663 30.6764 173.767 30.7598C173.871 30.8327 173.986 30.9004 174.111 30.9629C174.236 31.0254 174.361 31.0723 174.486 31.1035C174.621 31.1348 174.736 31.1504 174.83 31.1504C175.048 31.1504 175.225 31.0671 175.361 30.9004C175.496 30.7337 175.6 30.5358 175.673 30.3066C175.757 30.0775 175.809 29.8431 175.83 29.6035C175.861 29.3535 175.876 29.1504 175.876 28.9941ZM185.611 30.9941C185.611 31.3483 185.496 31.6973 185.267 32.041C185.048 32.3743 184.767 32.6764 184.423 32.9473C184.09 33.2077 183.731 33.4212 183.345 33.5879C182.96 33.7441 182.606 33.8223 182.283 33.8223C181.731 33.8223 181.236 33.6868 180.798 33.416C180.371 33.1348 180.012 32.7806 179.72 32.3535C179.429 31.9264 179.205 31.4577 179.048 30.9473C178.902 30.4264 178.83 29.9212 178.83 29.4316C178.83 28.9108 178.902 28.3535 179.048 27.7598C179.194 27.166 179.413 26.6191 179.705 26.1191C180.007 25.6191 180.382 25.2025 180.83 24.8691C181.288 24.5358 181.83 24.3691 182.455 24.3691C182.809 24.3691 183.147 24.4316 183.47 24.5566C183.793 24.6712 184.074 24.8379 184.314 25.0566C184.554 25.2754 184.746 25.5358 184.892 25.8379C185.038 26.14 185.111 26.4785 185.111 26.8535C185.111 27.3431 185.007 27.8014 184.798 28.2285C184.59 28.6556 184.314 29.0254 183.97 29.3379C183.626 29.6504 183.231 29.9056 182.783 30.1035C182.335 30.291 181.876 30.3952 181.408 30.416C181.449 30.7181 181.569 30.9368 181.767 31.0723C181.975 31.2077 182.22 31.2754 182.501 31.2754C182.71 31.2754 182.913 31.2233 183.111 31.1191C183.309 31.015 183.501 30.9004 183.689 30.7754C183.876 30.64 184.059 30.5202 184.236 30.416C184.423 30.3118 184.611 30.2598 184.798 30.2598C185.007 30.2598 185.194 30.3275 185.361 30.4629C185.527 30.5983 185.611 30.7754 185.611 30.9941ZM183.08 27.166C183.08 27.0306 183.043 26.89 182.97 26.7441C182.897 26.5983 182.783 26.5254 182.626 26.5254C182.397 26.5254 182.205 26.5879 182.048 26.7129C181.892 26.8275 181.762 26.9785 181.658 27.166C181.554 27.3431 181.47 27.5358 181.408 27.7441C181.356 27.9525 181.324 28.1452 181.314 28.3223C181.46 28.291 181.632 28.2493 181.83 28.1973C182.038 28.1452 182.231 28.0775 182.408 27.9941C182.595 27.9004 182.751 27.7858 182.876 27.6504C183.012 27.515 183.08 27.3535 183.08 27.166ZM191.658 27.9316C191.512 27.9421 191.387 27.9316 191.283 27.9004C191.179 27.8587 191.074 27.8171 190.97 27.7754C190.876 27.7337 190.783 27.6973 190.689 27.666C190.595 27.6243 190.491 27.6087 190.376 27.6191C190.168 27.6296 189.981 27.6868 189.814 27.791C189.658 27.8952 189.512 28.0254 189.376 28.1816C189.251 28.3379 189.142 28.515 189.048 28.7129C188.955 28.9004 188.882 29.0879 188.83 29.2754C188.798 29.4004 188.772 29.5931 188.751 29.8535C188.741 30.1035 188.736 30.3743 188.736 30.666C188.725 30.9681 188.72 31.2546 188.72 31.5254C188.72 31.7962 188.71 32.0098 188.689 32.166C188.679 32.3327 188.652 32.5306 188.611 32.7598C188.569 32.9785 188.501 33.1868 188.408 33.3848C188.324 33.5827 188.21 33.7493 188.064 33.8848C187.918 34.0202 187.731 34.0879 187.501 34.0879C187.324 34.0879 187.168 34.0358 187.033 33.9316C186.908 33.8275 186.798 33.6921 186.705 33.5254C186.621 33.3483 186.548 33.1452 186.486 32.916C186.434 32.6868 186.392 32.4525 186.361 32.2129C186.33 31.9629 186.304 31.7129 186.283 31.4629C186.272 31.2129 186.262 30.9785 186.251 30.7598C186.251 30.5306 186.251 30.3223 186.251 30.1348C186.262 29.9473 186.267 29.7962 186.267 29.6816C186.257 29.3171 186.236 28.9525 186.205 28.5879C186.184 28.2129 186.173 27.8431 186.173 27.4785C186.173 27.2493 186.184 26.9941 186.205 26.7129C186.225 26.4316 186.283 26.1712 186.376 25.9316C186.47 25.6816 186.606 25.4733 186.783 25.3066C186.97 25.14 187.225 25.0566 187.548 25.0566C187.725 25.0566 187.876 25.1139 188.001 25.2285C188.126 25.3431 188.225 25.4837 188.298 25.6504C188.382 25.8171 188.444 25.9941 188.486 26.1816C188.527 26.3691 188.554 26.541 188.564 26.6973C188.814 26.291 189.095 25.9629 189.408 25.7129C189.72 25.4525 190.126 25.3118 190.626 25.291C190.876 25.2806 191.121 25.3066 191.361 25.3691C191.611 25.4212 191.835 25.515 192.033 25.6504C192.241 25.7754 192.408 25.9421 192.533 26.1504C192.668 26.3587 192.741 26.6035 192.751 26.8848C192.772 27.2181 192.673 27.4733 192.455 27.6504C192.236 27.8275 191.97 27.9212 191.658 27.9316ZM78.3998 51.9941C78.3998 52.3483 78.2853 52.6973 78.0561 53.041C77.8373 53.3743 77.5561 53.6764 77.2123 53.9473C76.879 54.2077 76.5196 54.4212 76.1342 54.5879C75.7488 54.7441 75.3946 54.8223 75.0717 54.8223C74.5196 54.8223 74.0248 54.6868 73.5873 54.416C73.1603 54.1348 72.8009 53.7806 72.5092 53.3535C72.2176 52.9264 71.9936 52.4577 71.8373 51.9473C71.6915 51.4264 71.6186 50.9212 71.6186 50.4316C71.6186 49.9108 71.6915 49.3535 71.8373 48.7598C71.9832 48.166 72.2019 47.6191 72.4936 47.1191C72.7957 46.6191 73.1707 46.2025 73.6186 45.8691C74.0769 45.5358 74.6186 45.3691 75.2436 45.3691C75.5978 45.3691 75.9363 45.4316 76.2592 45.5566C76.5821 45.6712 76.8634 45.8379 77.103 46.0566C77.3426 46.2754 77.5353 46.5358 77.6811 46.8379C77.8269 47.14 77.8998 47.4785 77.8998 47.8535C77.8998 48.3431 77.7957 48.8014 77.5873 49.2285C77.379 49.6556 77.103 50.0254 76.7592 50.3379C76.4155 50.6504 76.0196 50.9056 75.5717 51.1035C75.1238 51.291 74.6655 51.3952 74.1967 51.416C74.2384 51.7181 74.3582 51.9368 74.5561 52.0723C74.7644 52.2077 75.0092 52.2754 75.2905 52.2754C75.4988 52.2754 75.7019 52.2233 75.8998 52.1191C76.0978 52.015 76.2905 51.9004 76.478 51.7754C76.6655 51.64 76.8478 51.5202 77.0248 51.416C77.2123 51.3118 77.3998 51.2598 77.5873 51.2598C77.7957 51.2598 77.9832 51.3275 78.1498 51.4629C78.3165 51.5983 78.3998 51.7754 78.3998 51.9941ZM75.8686 48.166C75.8686 48.0306 75.8321 47.89 75.7592 47.7441C75.6863 47.5983 75.5717 47.5254 75.4155 47.5254C75.1863 47.5254 74.9936 47.5879 74.8373 47.7129C74.6811 47.8275 74.5509 47.9785 74.4467 48.166C74.3426 48.3431 74.2592 48.5358 74.1967 48.7441C74.1446 48.9525 74.1134 49.1452 74.103 49.3223C74.2488 49.291 74.4207 49.2493 74.6186 49.1973C74.8269 49.1452 75.0196 49.0775 75.1967 48.9941C75.3842 48.9004 75.5405 48.7858 75.6655 48.6504C75.8009 48.515 75.8686 48.3535 75.8686 48.166ZM83.603 46.1816C83.603 46.4837 83.4988 46.7077 83.2905 46.8535C83.0926 46.9993 82.8686 47.14 82.6186 47.2754C82.3686 47.4004 82.1394 47.5514 81.9311 47.7285C81.7332 47.9056 81.6342 48.1712 81.6342 48.5254C81.6342 48.7129 81.6759 48.8743 81.7592 49.0098C81.853 49.1452 81.9623 49.2702 82.0873 49.3848C82.2228 49.4889 82.3686 49.5983 82.5248 49.7129C82.6811 49.8275 82.8217 49.9577 82.9467 50.1035C83.0821 50.2493 83.1915 50.4264 83.2748 50.6348C83.3686 50.8431 83.4155 51.0983 83.4155 51.4004C83.4155 51.8379 83.3009 52.2702 83.0717 52.6973C82.853 53.1139 82.5665 53.4889 82.2123 53.8223C81.8686 54.1452 81.478 54.4056 81.0405 54.6035C80.603 54.8014 80.1707 54.9004 79.7436 54.9004C79.5665 54.9004 79.3894 54.8848 79.2123 54.8535C79.0353 54.8327 78.8738 54.7858 78.728 54.7129C78.5926 54.64 78.478 54.541 78.3842 54.416C78.2905 54.2806 78.2436 54.1087 78.2436 53.9004C78.2436 53.6087 78.3009 53.3848 78.4155 53.2285C78.5301 53.0618 78.6759 52.9316 78.853 52.8379C79.0301 52.7441 79.2176 52.6712 79.4155 52.6191C79.6238 52.5671 79.8165 52.5046 79.9936 52.4316C80.1707 52.3483 80.3165 52.2441 80.4311 52.1191C80.5457 51.9941 80.603 51.8171 80.603 51.5879C80.603 51.3691 80.5144 51.1452 80.3373 50.916C80.1707 50.6764 79.9832 50.4264 79.7748 50.166C79.5665 49.8952 79.3738 49.6087 79.1967 49.3066C79.0301 49.0046 78.9467 48.6712 78.9467 48.3066C78.9467 47.8587 79.0353 47.4473 79.2123 47.0723C79.3998 46.6868 79.6446 46.3535 79.9467 46.0723C80.2592 45.791 80.6134 45.5723 81.0092 45.416C81.4051 45.2493 81.8217 45.166 82.2592 45.166C82.4259 45.166 82.5873 45.1816 82.7436 45.2129C82.9103 45.2441 83.0561 45.3014 83.1811 45.3848C83.3061 45.4577 83.4051 45.5618 83.478 45.6973C83.5613 45.8223 83.603 45.9837 83.603 46.1816ZM87.8686 55.3379C87.129 55.3379 86.5509 55.2389 86.1342 55.041C85.728 54.8535 85.4207 54.5827 85.2123 54.2285C85.0144 53.8743 84.8946 53.4473 84.853 52.9473C84.8113 52.4473 84.7905 51.89 84.7905 51.2754C84.7905 50.7858 84.8061 50.2962 84.8373 49.8066C84.8686 49.3066 84.9155 48.7754 84.978 48.2129C84.8321 48.2129 84.7176 48.2181 84.6342 48.2285C84.5509 48.2285 84.4832 48.2285 84.4311 48.2285C84.0978 48.2285 83.8113 48.1556 83.5717 48.0098C83.3217 47.8639 83.1967 47.64 83.1967 47.3379C83.1967 47.1504 83.2696 46.9837 83.4155 46.8379C83.5509 46.6921 83.728 46.5671 83.9467 46.4629C84.1655 46.3587 84.3998 46.2754 84.6498 46.2129C84.9103 46.1504 85.1551 46.1087 85.3842 46.0879C85.3842 45.7962 85.4051 45.4733 85.4467 45.1191C85.4884 44.765 85.5613 44.4368 85.6655 44.1348C85.7801 43.8223 85.9311 43.5618 86.1186 43.3535C86.3061 43.1452 86.5457 43.041 86.8373 43.041C87.004 43.041 87.1498 43.0931 87.2748 43.1973C87.4103 43.291 87.5196 43.416 87.603 43.5723C87.6863 43.7181 87.7488 43.8848 87.7905 44.0723C87.8321 44.2598 87.853 44.4421 87.853 44.6191C87.853 44.8275 87.8373 45.041 87.8061 45.2598C87.7748 45.4785 87.7176 45.7493 87.6342 46.0723C87.8113 46.0514 87.9311 46.041 87.9936 46.041C88.0561 46.0306 88.1134 46.0254 88.1655 46.0254C88.3426 46.0254 88.5248 46.041 88.7123 46.0723C88.9103 46.1035 89.0873 46.1556 89.2436 46.2285C89.4103 46.3014 89.5457 46.4004 89.6498 46.5254C89.754 46.64 89.8061 46.7806 89.8061 46.9473C89.8061 47.1348 89.728 47.3014 89.5717 47.4473C89.4259 47.5931 89.2384 47.7181 89.0092 47.8223C88.7801 47.9264 88.5353 48.0098 88.2748 48.0723C88.0144 48.1243 87.7696 48.1608 87.5405 48.1816C87.478 48.6087 87.4311 49.0046 87.3998 49.3691C87.379 49.7233 87.353 50.0827 87.3217 50.4473C87.3009 50.6243 87.2801 50.8066 87.2592 50.9941C87.2488 51.1712 87.2436 51.3535 87.2436 51.541C87.2436 51.6764 87.2488 51.8379 87.2592 52.0254C87.2696 52.2025 87.3061 52.3743 87.3686 52.541C87.4311 52.7077 87.5301 52.8535 87.6655 52.9785C87.8009 53.0931 87.9884 53.1504 88.228 53.1504C88.3738 53.1504 88.5248 53.14 88.6811 53.1191C88.8373 53.0879 88.9936 53.0723 89.1498 53.0723C89.4207 53.0723 89.6134 53.166 89.728 53.3535C89.853 53.541 89.9155 53.7806 89.9155 54.0723C89.9155 54.291 89.8478 54.4837 89.7123 54.6504C89.5873 54.8066 89.4259 54.9316 89.228 55.0254C89.0301 55.1296 88.8061 55.2077 88.5561 55.2598C88.3165 55.3118 88.0873 55.3379 87.8686 55.3379ZM96.8686 52.5723C96.8686 52.7598 96.8582 53.0046 96.8373 53.3066C96.8269 53.6087 96.7853 53.9056 96.7123 54.1973C96.6394 54.4785 96.5248 54.7233 96.3686 54.9316C96.2123 55.14 95.9936 55.2441 95.7123 55.2441C95.3269 55.2441 95.0301 55.1191 94.8217 54.8691C94.6134 54.6191 94.5144 54.3066 94.5248 53.9316C94.1915 54.2233 93.8113 54.4525 93.3842 54.6191C92.9676 54.7858 92.5405 54.8691 92.103 54.8691C91.8009 54.8691 91.5144 54.7962 91.2436 54.6504C90.9728 54.5046 90.7332 54.3171 90.5248 54.0879C90.3165 53.8587 90.1498 53.6035 90.0248 53.3223C89.8998 53.0306 89.8373 52.7441 89.8373 52.4629C89.8373 51.9629 89.9884 51.5254 90.2905 51.1504C90.603 50.7754 90.9832 50.4577 91.4311 50.1973C91.879 49.9264 92.353 49.7129 92.853 49.5566C93.3634 49.4004 93.8165 49.2962 94.2123 49.2441C94.2123 49.1921 94.2123 49.1452 94.2123 49.1035C94.2228 49.0618 94.228 49.015 94.228 48.9629C94.228 48.64 94.1394 48.3796 93.9623 48.1816C93.7853 47.9837 93.5353 47.8848 93.2123 47.8848C92.9519 47.8848 92.728 47.9316 92.5405 48.0254C92.353 48.1087 92.1759 48.2077 92.0092 48.3223C91.8426 48.4264 91.6759 48.5254 91.5092 48.6191C91.3426 48.7025 91.1551 48.7441 90.9467 48.7441C90.7176 48.7441 90.5196 48.6712 90.353 48.5254C90.1967 48.3796 90.1186 48.1921 90.1186 47.9629C90.1186 47.6191 90.2176 47.3066 90.4155 47.0254C90.6238 46.7441 90.879 46.5098 91.1811 46.3223C91.4936 46.1243 91.8269 45.9733 92.1811 45.8691C92.5457 45.7546 92.879 45.6973 93.1811 45.6973C93.4623 45.6973 93.7436 45.7337 94.0248 45.8066C94.3061 45.8691 94.5717 45.9733 94.8217 46.1191C95.0717 46.2546 95.2957 46.4264 95.4936 46.6348C95.7019 46.8327 95.8686 47.0671 95.9936 47.3379C96.1811 47.7233 96.3321 48.1348 96.4467 48.5723C96.5613 48.9993 96.6498 49.4421 96.7123 49.9004C96.7748 50.3483 96.8165 50.8014 96.8373 51.2598C96.8582 51.7077 96.8686 52.1452 96.8686 52.5723ZM94.3686 52.0723L94.3217 51.0098C94.3009 51.0098 94.2801 51.0098 94.2592 51.0098C94.2384 50.9993 94.2176 50.9941 94.1967 50.9941C94.0613 50.9941 93.8894 51.0306 93.6811 51.1035C93.4832 51.166 93.2905 51.2598 93.103 51.3848C92.9155 51.4993 92.754 51.6296 92.6186 51.7754C92.4936 51.9212 92.4311 52.0723 92.4311 52.2285C92.4311 52.3743 92.4832 52.4733 92.5873 52.5254C92.6915 52.5775 92.8113 52.6035 92.9467 52.6035C93.1759 52.6035 93.4207 52.5462 93.6811 52.4316C93.9415 52.3066 94.1707 52.1868 94.3686 52.0723ZM95.1186 42.9473C95.1186 43.0618 95.0873 43.1764 95.0248 43.291C94.9623 43.3952 94.8842 43.4941 94.7905 43.5879C94.7071 43.6816 94.6134 43.7702 94.5092 43.8535C94.4051 43.9264 94.3113 43.9941 94.228 44.0566C94.1551 44.1087 94.0717 44.1712 93.978 44.2441C93.8946 44.3066 93.8009 44.3691 93.6967 44.4316C93.603 44.4837 93.504 44.5306 93.3998 44.5723C93.3061 44.6139 93.2123 44.6348 93.1186 44.6348C93.0353 44.6348 92.9623 44.6139 92.8998 44.5723C92.8373 44.5202 92.8061 44.4473 92.8061 44.3535C92.8061 44.1973 92.8634 44.0098 92.978 43.791C93.103 43.5618 93.254 43.3431 93.4311 43.1348C93.6082 42.916 93.7957 42.7337 93.9936 42.5879C94.1915 42.4316 94.3738 42.3535 94.5405 42.3535C94.6863 42.3535 94.8165 42.416 94.9311 42.541C95.0561 42.6556 95.1186 42.791 95.1186 42.9473ZM108.212 52.5723C108.212 52.7598 108.202 53.0046 108.181 53.3066C108.171 53.6087 108.129 53.9056 108.056 54.1973C107.983 54.4785 107.869 54.7233 107.712 54.9316C107.556 55.14 107.337 55.2441 107.056 55.2441C106.671 55.2441 106.374 55.1191 106.165 54.8691C105.957 54.6191 105.858 54.3066 105.869 53.9316C105.535 54.2233 105.155 54.4525 104.728 54.6191C104.311 54.7858 103.884 54.8691 103.447 54.8691C103.145 54.8691 102.858 54.7962 102.587 54.6504C102.317 54.5046 102.077 54.3171 101.869 54.0879C101.66 53.8587 101.494 53.6035 101.369 53.3223C101.244 53.0306 101.181 52.7441 101.181 52.4629C101.181 51.9629 101.332 51.5254 101.634 51.1504C101.947 50.7754 102.327 50.4577 102.775 50.1973C103.223 49.9264 103.697 49.7129 104.197 49.5566C104.707 49.4004 105.16 49.2962 105.556 49.2441C105.556 49.1921 105.556 49.1452 105.556 49.1035C105.567 49.0618 105.572 49.015 105.572 48.9629C105.572 48.64 105.483 48.3796 105.306 48.1816C105.129 47.9837 104.879 47.8848 104.556 47.8848C104.296 47.8848 104.072 47.9316 103.884 48.0254C103.697 48.1087 103.52 48.2077 103.353 48.3223C103.186 48.4264 103.02 48.5254 102.853 48.6191C102.686 48.7025 102.499 48.7441 102.29 48.7441C102.061 48.7441 101.863 48.6712 101.697 48.5254C101.54 48.3796 101.462 48.1921 101.462 47.9629C101.462 47.6191 101.561 47.3066 101.759 47.0254C101.968 46.7441 102.223 46.5098 102.525 46.3223C102.837 46.1243 103.171 45.9733 103.525 45.8691C103.889 45.7546 104.223 45.6973 104.525 45.6973C104.806 45.6973 105.087 45.7337 105.369 45.8066C105.65 45.8691 105.915 45.9733 106.165 46.1191C106.415 46.2546 106.639 46.4264 106.837 46.6348C107.046 46.8327 107.212 47.0671 107.337 47.3379C107.525 47.7233 107.676 48.1348 107.79 48.5723C107.905 48.9993 107.994 49.4421 108.056 49.9004C108.119 50.3483 108.16 50.8014 108.181 51.2598C108.202 51.7077 108.212 52.1452 108.212 52.5723ZM105.712 52.0723L105.665 51.0098C105.645 51.0098 105.624 51.0098 105.603 51.0098C105.582 50.9993 105.561 50.9941 105.54 50.9941C105.405 50.9941 105.233 51.0306 105.025 51.1035C104.827 51.166 104.634 51.2598 104.447 51.3848C104.259 51.4993 104.098 51.6296 103.962 51.7754C103.837 51.9212 103.775 52.0723 103.775 52.2285C103.775 52.3743 103.827 52.4733 103.931 52.5254C104.035 52.5775 104.155 52.6035 104.29 52.6035C104.52 52.6035 104.764 52.5462 105.025 52.4316C105.285 52.3066 105.514 52.1868 105.712 52.0723ZM106.072 44.3691C106.072 44.4525 106.035 44.5202 105.962 44.5723C105.9 44.6139 105.827 44.6348 105.744 44.6348C105.556 44.6348 105.358 44.5775 105.15 44.4629C104.952 44.3379 104.78 44.2337 104.634 44.1504C104.54 44.0879 104.436 44.0202 104.322 43.9473C104.218 43.8743 104.113 43.791 104.009 43.6973C103.915 43.6035 103.832 43.5046 103.759 43.4004C103.697 43.2858 103.665 43.1712 103.665 43.0566C103.665 42.9004 103.723 42.765 103.837 42.6504C103.952 42.5254 104.087 42.4629 104.244 42.4629C104.4 42.4629 104.582 42.5358 104.79 42.6816C104.999 42.8171 105.197 42.9837 105.384 43.1816C105.582 43.3796 105.744 43.5879 105.869 43.8066C106.004 44.0254 106.072 44.2129 106.072 44.3691ZM117.494 46.1816C117.494 46.4837 117.389 46.7077 117.181 46.8535C116.983 46.9993 116.759 47.14 116.509 47.2754C116.259 47.4004 116.03 47.5514 115.822 47.7285C115.624 47.9056 115.525 48.1712 115.525 48.5254C115.525 48.7129 115.567 48.8743 115.65 49.0098C115.744 49.1452 115.853 49.2702 115.978 49.3848C116.113 49.4889 116.259 49.5983 116.415 49.7129C116.572 49.8275 116.712 49.9577 116.837 50.1035C116.973 50.2493 117.082 50.4264 117.165 50.6348C117.259 50.8431 117.306 51.0983 117.306 51.4004C117.306 51.8379 117.192 52.2702 116.962 52.6973C116.744 53.1139 116.457 53.4889 116.103 53.8223C115.759 54.1452 115.369 54.4056 114.931 54.6035C114.494 54.8014 114.061 54.9004 113.634 54.9004C113.457 54.9004 113.28 54.8848 113.103 54.8535C112.926 54.8327 112.764 54.7858 112.619 54.7129C112.483 54.64 112.369 54.541 112.275 54.416C112.181 54.2806 112.134 54.1087 112.134 53.9004C112.134 53.6087 112.192 53.3848 112.306 53.2285C112.421 53.0618 112.567 52.9316 112.744 52.8379C112.921 52.7441 113.108 52.6712 113.306 52.6191C113.514 52.5671 113.707 52.5046 113.884 52.4316C114.061 52.3483 114.207 52.2441 114.322 52.1191C114.436 51.9941 114.494 51.8171 114.494 51.5879C114.494 51.3691 114.405 51.1452 114.228 50.916C114.061 50.6764 113.874 50.4264 113.665 50.166C113.457 49.8952 113.264 49.6087 113.087 49.3066C112.921 49.0046 112.837 48.6712 112.837 48.3066C112.837 47.8587 112.926 47.4473 113.103 47.0723C113.29 46.6868 113.535 46.3535 113.837 46.0723C114.15 45.791 114.504 45.5723 114.9 45.416C115.296 45.2493 115.712 45.166 116.15 45.166C116.317 45.166 116.478 45.1816 116.634 45.2129C116.801 45.2441 116.947 45.3014 117.072 45.3848C117.197 45.4577 117.296 45.5618 117.369 45.6973C117.452 45.8223 117.494 45.9837 117.494 46.1816ZM121.087 55.2285C120.556 55.2285 120.093 55.0879 119.697 54.8066C119.301 54.5254 118.968 54.166 118.697 53.7285C118.426 53.291 118.223 52.8066 118.087 52.2754C117.952 51.7337 117.884 51.2025 117.884 50.6816C117.884 50.1296 117.952 49.5618 118.087 48.9785C118.223 48.3848 118.431 47.8483 118.712 47.3691C118.994 46.8796 119.353 46.4837 119.79 46.1816C120.228 45.8691 120.749 45.7129 121.353 45.7129C121.936 45.7129 122.431 45.8743 122.837 46.1973C123.254 46.5098 123.587 46.9056 123.837 47.3848C124.087 47.8535 124.264 48.3691 124.369 48.9316C124.473 49.4941 124.509 50.0254 124.478 50.5254C124.447 51.0775 124.358 51.6348 124.212 52.1973C124.077 52.7598 123.874 53.265 123.603 53.7129C123.332 54.1608 122.988 54.5254 122.572 54.8066C122.155 55.0879 121.66 55.2285 121.087 55.2285ZM121.244 48.166C121.087 48.166 120.947 48.2493 120.822 48.416C120.707 48.5827 120.608 48.7858 120.525 49.0254C120.452 49.265 120.395 49.5202 120.353 49.791C120.311 50.0514 120.29 50.2806 120.29 50.4785C120.29 50.7285 120.311 50.9993 120.353 51.291C120.405 51.5827 120.473 51.8535 120.556 52.1035C120.639 52.3431 120.738 52.5462 120.853 52.7129C120.978 52.8691 121.119 52.9473 121.275 52.9473C121.442 52.9473 121.582 52.8691 121.697 52.7129C121.822 52.5566 121.921 52.3587 121.994 52.1191C122.067 51.8796 122.119 51.6191 122.15 51.3379C122.181 51.0462 122.197 50.7754 122.197 50.5254C122.197 50.2962 122.176 50.0462 122.134 49.7754C122.093 49.4941 122.03 49.2337 121.947 48.9941C121.874 48.7546 121.775 48.5566 121.65 48.4004C121.535 48.2441 121.4 48.166 121.244 48.166ZM128.197 45.3066C128.197 45.8691 128.171 46.4368 128.119 47.0098C128.077 47.5723 128.056 48.14 128.056 48.7129C128.056 49.4525 128.077 50.1921 128.119 50.9316C128.171 51.6712 128.197 52.416 128.197 53.166C128.197 53.3535 128.186 53.5671 128.165 53.8066C128.145 54.0358 128.093 54.2493 128.009 54.4473C127.936 54.6452 127.822 54.8118 127.665 54.9473C127.509 55.0827 127.301 55.1504 127.04 55.1504C126.79 55.1504 126.572 55.0254 126.384 54.7754C126.207 54.5358 126.056 54.2285 125.931 53.8535C125.817 53.4681 125.718 53.041 125.634 52.5723C125.561 52.1035 125.504 51.6504 125.462 51.2129C125.431 50.765 125.405 50.3587 125.384 49.9941C125.374 49.6191 125.369 49.3431 125.369 49.166C125.369 48.9681 125.374 48.6816 125.384 48.3066C125.405 47.9316 125.442 47.5254 125.494 47.0879C125.546 46.6504 125.613 46.2077 125.697 45.7598C125.79 45.3014 125.91 44.89 126.056 44.5254C126.202 44.1504 126.374 43.8483 126.572 43.6191C126.78 43.3796 127.025 43.2598 127.306 43.2598C127.535 43.2598 127.707 43.3379 127.822 43.4941C127.947 43.64 128.035 43.8223 128.087 44.041C128.139 44.2493 128.171 44.4733 128.181 44.7129C128.192 44.9421 128.197 45.14 128.197 45.3066ZM133.025 55.3379C132.285 55.3379 131.707 55.2389 131.29 55.041C130.884 54.8535 130.577 54.5827 130.369 54.2285C130.171 53.8743 130.051 53.4473 130.009 52.9473C129.968 52.4473 129.947 51.89 129.947 51.2754C129.947 50.7858 129.962 50.2962 129.994 49.8066C130.025 49.3066 130.072 48.7754 130.134 48.2129C129.988 48.2129 129.874 48.2181 129.79 48.2285C129.707 48.2285 129.639 48.2285 129.587 48.2285C129.254 48.2285 128.968 48.1556 128.728 48.0098C128.478 47.8639 128.353 47.64 128.353 47.3379C128.353 47.1504 128.426 46.9837 128.572 46.8379C128.707 46.6921 128.884 46.5671 129.103 46.4629C129.322 46.3587 129.556 46.2754 129.806 46.2129C130.067 46.1504 130.311 46.1087 130.54 46.0879C130.54 45.7962 130.561 45.4733 130.603 45.1191C130.645 44.765 130.718 44.4368 130.822 44.1348C130.936 43.8223 131.087 43.5618 131.275 43.3535C131.462 43.1452 131.702 43.041 131.994 43.041C132.16 43.041 132.306 43.0931 132.431 43.1973C132.567 43.291 132.676 43.416 132.759 43.5723C132.843 43.7181 132.905 43.8848 132.947 44.0723C132.988 44.2598 133.009 44.4421 133.009 44.6191C133.009 44.8275 132.994 45.041 132.962 45.2598C132.931 45.4785 132.874 45.7493 132.79 46.0723C132.968 46.0514 133.087 46.041 133.15 46.041C133.212 46.0306 133.27 46.0254 133.322 46.0254C133.499 46.0254 133.681 46.041 133.869 46.0723C134.067 46.1035 134.244 46.1556 134.4 46.2285C134.567 46.3014 134.702 46.4004 134.806 46.5254C134.91 46.64 134.962 46.7806 134.962 46.9473C134.962 47.1348 134.884 47.3014 134.728 47.4473C134.582 47.5931 134.395 47.7181 134.165 47.8223C133.936 47.9264 133.692 48.0098 133.431 48.0723C133.171 48.1243 132.926 48.1608 132.697 48.1816C132.634 48.6087 132.587 49.0046 132.556 49.3691C132.535 49.7233 132.509 50.0827 132.478 50.4473C132.457 50.6243 132.436 50.8066 132.415 50.9941C132.405 51.1712 132.4 51.3535 132.4 51.541C132.4 51.6764 132.405 51.8379 132.415 52.0254C132.426 52.2025 132.462 52.3743 132.525 52.541C132.587 52.7077 132.686 52.8535 132.822 52.9785C132.957 53.0931 133.145 53.1504 133.384 53.1504C133.53 53.1504 133.681 53.14 133.837 53.1191C133.994 53.0879 134.15 53.0723 134.306 53.0723C134.577 53.0723 134.77 53.166 134.884 53.3535C135.009 53.541 135.072 53.7806 135.072 54.0723C135.072 54.291 135.004 54.4837 134.869 54.6504C134.744 54.8066 134.582 54.9316 134.384 55.0254C134.186 55.1296 133.962 55.2077 133.712 55.2598C133.473 55.3118 133.244 55.3379 133.025 55.3379ZM142.025 52.5723C142.025 52.7598 142.014 53.0046 141.994 53.3066C141.983 53.6087 141.942 53.9056 141.869 54.1973C141.796 54.4785 141.681 54.7233 141.525 54.9316C141.369 55.14 141.15 55.2441 140.869 55.2441C140.483 55.2441 140.186 55.1191 139.978 54.8691C139.77 54.6191 139.671 54.3066 139.681 53.9316C139.348 54.2233 138.968 54.4525 138.54 54.6191C138.124 54.7858 137.697 54.8691 137.259 54.8691C136.957 54.8691 136.671 54.7962 136.4 54.6504C136.129 54.5046 135.889 54.3171 135.681 54.0879C135.473 53.8587 135.306 53.6035 135.181 53.3223C135.056 53.0306 134.994 52.7441 134.994 52.4629C134.994 51.9629 135.145 51.5254 135.447 51.1504C135.759 50.7754 136.139 50.4577 136.587 50.1973C137.035 49.9264 137.509 49.7129 138.009 49.5566C138.52 49.4004 138.973 49.2962 139.369 49.2441C139.369 49.1921 139.369 49.1452 139.369 49.1035C139.379 49.0618 139.384 49.015 139.384 48.9629C139.384 48.64 139.296 48.3796 139.119 48.1816C138.942 47.9837 138.692 47.8848 138.369 47.8848C138.108 47.8848 137.884 47.9316 137.697 48.0254C137.509 48.1087 137.332 48.2077 137.165 48.3223C136.999 48.4264 136.832 48.5254 136.665 48.6191C136.499 48.7025 136.311 48.7441 136.103 48.7441C135.874 48.7441 135.676 48.6712 135.509 48.5254C135.353 48.3796 135.275 48.1921 135.275 47.9629C135.275 47.6191 135.374 47.3066 135.572 47.0254C135.78 46.7441 136.035 46.5098 136.337 46.3223C136.65 46.1243 136.983 45.9733 137.337 45.8691C137.702 45.7546 138.035 45.6973 138.337 45.6973C138.619 45.6973 138.9 45.7337 139.181 45.8066C139.462 45.8691 139.728 45.9733 139.978 46.1191C140.228 46.2546 140.452 46.4264 140.65 46.6348C140.858 46.8327 141.025 47.0671 141.15 47.3379C141.337 47.7233 141.488 48.1348 141.603 48.5723C141.718 48.9993 141.806 49.4421 141.869 49.9004C141.931 50.3483 141.973 50.8014 141.994 51.2598C142.014 51.7077 142.025 52.1452 142.025 52.5723ZM139.525 52.0723L139.478 51.0098C139.457 51.0098 139.436 51.0098 139.415 51.0098C139.395 50.9993 139.374 50.9941 139.353 50.9941C139.218 50.9941 139.046 51.0306 138.837 51.1035C138.639 51.166 138.447 51.2598 138.259 51.3848C138.072 51.4993 137.91 51.6296 137.775 51.7754C137.65 51.9212 137.587 52.0723 137.587 52.2285C137.587 52.3743 137.639 52.4733 137.744 52.5254C137.848 52.5775 137.968 52.6035 138.103 52.6035C138.332 52.6035 138.577 52.5462 138.837 52.4316C139.098 52.3066 139.327 52.1868 139.525 52.0723ZM145.228 54.0254C145.228 54.1608 145.197 54.2858 145.134 54.4004C145.072 54.5046 144.988 54.5931 144.884 54.666C144.79 54.7389 144.681 54.7962 144.556 54.8379C144.442 54.8796 144.322 54.9004 144.197 54.9004C144.04 54.9004 143.869 54.8691 143.681 54.8066C143.504 54.7546 143.337 54.6764 143.181 54.5723C143.035 54.4681 142.91 54.3483 142.806 54.2129C142.702 54.0671 142.65 53.9056 142.65 53.7285C142.65 53.4473 142.77 53.2389 143.009 53.1035C143.249 52.9577 143.494 52.8848 143.744 52.8848C143.9 52.8848 144.061 52.9108 144.228 52.9629C144.405 53.015 144.567 53.0931 144.712 53.1973C144.869 53.291 144.994 53.4108 145.087 53.5566C145.181 53.6921 145.228 53.8483 145.228 54.0254ZM148.119 54.0254C148.119 54.1608 148.087 54.2858 148.025 54.4004C147.962 54.5046 147.879 54.5931 147.775 54.666C147.681 54.7389 147.572 54.7962 147.447 54.8379C147.332 54.8796 147.212 54.9004 147.087 54.9004C146.931 54.9004 146.759 54.8691 146.572 54.8066C146.395 54.7546 146.228 54.6764 146.072 54.5723C145.926 54.4681 145.801 54.3483 145.697 54.2129C145.593 54.0671 145.54 53.9056 145.54 53.7285C145.54 53.4473 145.66 53.2389 145.9 53.1035C146.139 52.9577 146.384 52.8848 146.634 52.8848C146.79 52.8848 146.952 52.9108 147.119 52.9629C147.296 53.015 147.457 53.0931 147.603 53.1973C147.759 53.291 147.884 53.4108 147.978 53.5566C148.072 53.6921 148.119 53.8483 148.119 54.0254ZM151.009 54.0254C151.009 54.1608 150.978 54.2858 150.915 54.4004C150.853 54.5046 150.77 54.5931 150.665 54.666C150.572 54.7389 150.462 54.7962 150.337 54.8379C150.223 54.8796 150.103 54.9004 149.978 54.9004C149.822 54.9004 149.65 54.8691 149.462 54.8066C149.285 54.7546 149.119 54.6764 148.962 54.5723C148.817 54.4681 148.692 54.3483 148.587 54.2129C148.483 54.0671 148.431 53.9056 148.431 53.7285C148.431 53.4473 148.551 53.2389 148.79 53.1035C149.03 52.9577 149.275 52.8848 149.525 52.8848C149.681 52.8848 149.843 52.9108 150.009 52.9629C150.186 53.015 150.348 53.0931 150.494 53.1973C150.65 53.291 150.775 53.4108 150.869 53.5566C150.962 53.6921 151.009 53.8483 151.009 54.0254Z" fill="white"/>
<defs>
<filter id="filter0_i_1137_1311" x="-3.05176e-05" y="0" width="226.567" height="111" filterUnits="userSpaceOnUse" color-interpolation-filters="sRGB">
<feFlood flood-opacity="0" result="BackgroundImageFix"/>
<feBlend mode="normal" in="SourceGraphic" in2="BackgroundImageFix" result="shape"/>
<feColorMatrix in="SourceAlpha" type="matrix" values="0 0 0 0 0 0 0 0 0 0 0 0 0 0 0 0 0 0 127 0" result="hardAlpha"/>
<feOffset dy="4"/>
<feGaussianBlur stdDeviation="2"/>
<feComposite in2="hardAlpha" operator="arithmetic" k2="-1" k3="1"/>
<feColorMatrix type="matrix" values="0 0 0 0 0 0 0 0 0 0 0 0 0 0 0 0 0 0 0.25 0"/>
<feBlend mode="normal" in2="shape" result="effect1_innerShadow_1137_1311"/>
</filter>
</defs>
</svg>
