<svg xmlns="http://www.w3.org/2000/svg" width="210" height="115" fill="none" viewBox="0 0 210 115"><g filter="url(#a)"><path fill="#00d287" fill-rule="evenodd" d="M29.837 73.039C9.762 65.54 1 54.476 1 42.5 1 27.765 18.673 13.209 47.909 6.01 62.089 2.521 78.749 1 97.892 1c58.609 0 112.657 15.034 110.35 41.5 0 13.133-10.003 25.209-30.375 32.418-11.109 3.93-25.162 6.252-42.744 6.966-6.917 13.739-17.039 20.813-33.646 32.009 12.179-13.049 19.64-21.462 22.34-31.772h-.932c-41.541 2.35-72.959-1.58-93.048-9.082" clip-rule="evenodd"/></g><path fill="#00d287" d="m29.837 73.039.35-.937zM47.909 6.01l-.24-.97zM208.242 42.5l-.996-.087-.004.087zm-30.375 32.417-.334-.943zm-42.744 6.966-.041-.999a1 1 0 0 0-.853.55zm-33.646 32.009-.731-.682a1 1 0 0 0-.029 1.331 1 1 0 0 0 1.319.18zm22.34-31.772.968.253a1.002 1.002 0 0 0-.97-1.253zm-.932 0v-1l-.057.003zM0 42.502c0 12.581 9.234 23.91 29.487 31.475l.7-1.874C10.29 64.672 2 53.87 2 42.5zM47.67 5.04c-14.714 3.622-26.584 9.11-34.8 15.604C4.668 27.129 0 34.71 0 42.5h2c0-6.946 4.17-14.01 12.111-20.287 7.93-6.268 19.514-11.656 34.037-15.232zM97.892 0C78.702 0 61.955 1.524 47.67 5.04l.478 1.942C62.222 3.517 78.796 2 97.892 2zm111.346 42.587c.612-7.014-2.534-13.202-8.351-18.477-5.799-5.26-14.312-9.675-24.651-13.23C155.547 3.765 127.264 0 97.892 0v2c29.236 0 57.282 3.752 77.693 10.771 10.211 3.511 18.441 7.817 23.958 12.82 5.5 4.988 8.245 10.604 7.703 16.823zM178.2 75.861c20.569-7.28 31.042-19.623 31.042-33.36h-2c0 12.527-9.533 24.335-29.709 31.474zm-43.037 7.022c17.641-.716 31.802-3.047 43.037-7.022l-.667-1.886c-10.981 3.886-24.927 6.199-42.451 6.91zm-.934-1.448c-6.782 13.472-16.678 20.416-33.311 31.629l1.118 1.658c16.581-11.178 26.929-18.383 33.98-32.388zm-32.021 33.14c12.132-12.999 19.801-21.6 22.577-32.201l-1.935-.507c-2.624 10.02-9.879 18.245-22.104 31.344zm20.677-31.453.935-.001-.005-2h-.93zm-93.398-9.147c20.272 7.572 51.845 11.5 93.454 9.145l-.113-1.996c-41.472 2.346-72.734-1.587-92.642-9.022z"/><path fill="#fff" d="M59.26 14.088a.74.74 0 0 1-.19.508 1.5 1.5 0 0 1-.432.355 11 11 0 0 0-.47.305q-.24.152-.444.355a1.6 1.6 0 0 0-.33.432q-.127.24-.127.546 0 .267.127.482.127.216.305.432l.406.432q.228.215.406.495.19.265.318.61a2.3 2.3 0 0 1 .127.799q0 .318-.14.724a4.4 4.4 0 0 1-.356.8q-.228.405-.545.786a5 5 0 0 1-.66.686q-.344.292-.724.47-.381.19-.737.19-.393 0-.698-.216t-.304-.647q0-.293.14-.533.138-.254.342-.483.203-.228.444-.444.255-.216.457-.432a2.7 2.7 0 0 0 .343-.444q.14-.24.14-.508 0-.368-.267-.749-.255-.393-.571-.8-.318-.419-.584-.85a1.7 1.7 0 0 1-.254-.876q0-.546.292-1.143.292-.609.749-1.104a4.2 4.2 0 0 1 1.028-.838q.572-.33 1.13-.33.444 0 .762.266.318.268.317.724m2.54.05a.53.53 0 0 1-.102.318 1 1 0 0 1-.242.254 1.5 1.5 0 0 1-.33.165q-.177.05-.33.05a.8.8 0 0 1-.444-.126q-.19-.127-.19-.394 0-.19.089-.33a.8.8 0 0 1 .24-.241q.141-.102.318-.152t.343-.051a.9.9 0 0 1 .444.114q.203.115.203.394m.1 4.317v.38q0 .191-.012.37-.012.215-.012.583 0 .355-.026.774t-.089.851q-.05.432-.178.787a1.6 1.6 0 0 1-.342.584.73.73 0 0 1-.52.229.47.47 0 0 1-.407-.19 1.8 1.8 0 0 1-.28-.521 4.4 4.4 0 0 1-.152-.724q-.05-.406-.076-.774a11 11 0 0 1-.025-.698v-1.042q0-.38.025-.812t.089-.876q.075-.444.203-.812.14-.369.356-.597a.72.72 0 0 1 .545-.229q.343 0 .521.343.177.343.267.8.089.458.101.914.013.444.013.66m8.608.356v.66q0 .406-.025.888a10 10 0 0 1-.076.978q-.064.483-.203.876a2 2 0 0 1-.33.647.64.64 0 0 1-.521.254.49.49 0 0 1-.432-.228 1.8 1.8 0 0 1-.203-.559 4 4 0 0 1-.076-.647v-.52q0-.573.038-1.118t.038-1.117v-.229q0-.165-.025-.33a1 1 0 0 0-.089-.292q-.051-.127-.165-.127-.228 0-.368.242a2.2 2.2 0 0 0-.229.545 4 4 0 0 0-.127.635 12 12 0 0 0-.05.457q-.026.165-.051.495-.013.33-.051.724a7 7 0 0 1-.102.812q-.063.406-.177.75-.102.33-.267.545a.5.5 0 0 1-.406.216.52.52 0 0 1-.47-.266 2 2 0 0 1-.241-.622 5 5 0 0 1-.102-.724 18 18 0 0 1-.012-.571v-.42q.012-.202.012-.418v-.292a9 9 0 0 0-.012-.445q0-.253-.026-.52a4 4 0 0 0-.05-.483 1.2 1.2 0 0 0-.115-.368q-.076-.14-.177-.14-.165 0-.305.216-.14.203-.241.495a5 5 0 0 0-.165.56q-.051.277-.051.405v.077q0 .61.076 1.193.075.585.076 1.193 0 .355-.228.66-.229.292-.635.292a.62.62 0 0 1-.483-.215 1.9 1.9 0 0 1-.317-.584 5 5 0 0 1-.203-.775 10 10 0 0 1-.089-.838q-.026-.419-.038-.749v-.508q0-.19-.013-.558 0-.369.013-.8a16 16 0 0 1 .076-.876q.051-.457.165-.825a1.9 1.9 0 0 1 .292-.597.59.59 0 0 1 .483-.241q.33 0 .533.178.216.177.216.533 0 .075-.013.152 0 .077-.013.14a3 3 0 0 1 .343-.406q.203-.216.432-.381.24-.178.507-.28.267-.114.534-.114.253 0 .457.14.203.14.355.355.153.204.254.445.101.24.14.457a3.6 3.6 0 0 1 .304-.457q.19-.24.407-.42.215-.177.47-.291.266-.114.545-.115.267 0 .457.191.19.19.33.495.14.292.216.673.076.367.127.736.05.355.064.673.012.305.012.483m2.666 3.516q0 .204-.114.52a3.6 3.6 0 0 1-.267.623q-.152.304-.355.52t-.394.216q-.254 0-.254-.254 0-.152.064-.292.063-.14.14-.28.075-.126.14-.266a.6.6 0 0 0 .063-.254.7.7 0 0 1-.407.127.64.64 0 0 1-.495-.228.75.75 0 0 1-.203-.508q0-.406.267-.648a.94.94 0 0 1 .673-.253q.456 0 .8.24.342.242.342.737m9.382-3.11q0 .559-.127 1.231a4.3 4.3 0 0 1-.406 1.232q-.279.57-.75.952-.456.38-1.154.38a3 3 0 0 1-.368-.025 1.8 1.8 0 0 1-.369-.089 1.3 1.3 0 0 1-.304-.165.75.75 0 0 1-.216-.292l-.114 1.829q-.013.291-.026.698a3 3 0 0 1-.101.774q-.09.369-.318.622-.216.267-.635.267-.24 0-.406-.254a2 2 0 0 1-.266-.622 7 7 0 0 1-.14-.85 12 12 0 0 1-.063-.902q-.013-.432-.013-.787v-.52q0-.851-.013-1.69-.012-.85-.013-1.7v-.47q0-.33.026-.711t.076-.787q.064-.405.178-.736.114-.343.292-.546a.54.54 0 0 1 .431-.216q.165 0 .292.101.14.09.229.242.101.14.165.304.063.165.101.305.394-.444.902-.673a2.7 2.7 0 0 1 1.104-.228q.61 0 .99.342.394.343.61.851.228.508.317 1.092.09.571.09 1.04m-1.815-.102q0-.19-.038-.38a1 1 0 0 0-.115-.369.6.6 0 0 0-.228-.28.6.6 0 0 0-.381-.113q-.305 0-.647.203a1.4 1.4 0 0 0-.496.444q-.063.102-.076.33a7 7 0 0 0-.012.343v.241a39 39 0 0 1 .05.584.8.8 0 0 0 .064.216q.038.114.165.216.127.088.28.165.15.076.304.114.165.038.28.038a.53.53 0 0 0 .43-.203q.165-.203.255-.482a2.2 2.2 0 0 0 .127-.572q.038-.304.038-.495m5.002 4.253a1.9 1.9 0 0 1-1.13-.343 3 3 0 0 1-.813-.876 4.2 4.2 0 0 1-.495-1.18 5.3 5.3 0 0 1-.165-1.295q0-.673.165-1.384.166-.723.508-1.308.342-.596.876-.964.533-.381 1.27-.381.711 0 1.206.393.507.381.812.965.305.572.432 1.257.126.686.089 1.295a7 7 0 0 1-.216 1.358q-.165.686-.495 1.232t-.838.888-1.206.343m.127-5.738q-.191 0-.343.203a2 2 0 0 0-.241.495q-.09.292-.14.622-.05.318-.05.559 0 .304.05.66a5 5 0 0 0 .165.66q.102.293.241.495.153.19.343.19.203 0 .343-.19.152-.19.241-.482.09-.292.127-.635.038-.355.038-.66 0-.28-.05-.61a3.5 3.5 0 0 0-.153-.634 1.4 1.4 0 0 0-.241-.483q-.14-.19-.33-.19m6.995-1.612q0 .367-.254.546-.241.177-.546.342-.305.153-.559.368-.24.216-.24.648 0 .228.1.393.116.165.267.305.165.127.356.267t.343.317q.164.178.266.432.114.253.114.622 0 .533-.279 1.053-.266.51-.698.915-.42.393-.952.634-.534.242-1.054.242-.216 0-.432-.038a1.2 1.2 0 0 1-.393-.115.85.85 0 0 1-.28-.241.72.72 0 0 1-.114-.419q0-.355.14-.546a1 1 0 0 1 .355-.317q.216-.114.457-.178a3.4 3.4 0 0 0 .47-.152q.216-.102.356-.254t.14-.432q0-.267-.217-.546a11 11 0 0 0-.457-.61 7 7 0 0 1-.47-.697 1.65 1.65 0 0 1-.203-.813q0-.546.216-1.003a2.7 2.7 0 0 1 .597-.812q.381-.343.863-.534.483-.203 1.016-.203a2 2 0 0 1 .394.038 1 1 0 0 1 .355.14q.153.09.241.254a.7.7 0 0 1 .102.394m4.227 0q0 .367-.254.546-.24.177-.545.342-.306.153-.56.368-.24.216-.24.648 0 .228.101.393.114.165.267.305.165.127.355.267.191.14.343.317.165.178.267.432.114.253.114.622 0 .533-.28 1.053-.266.51-.698.915a3.5 3.5 0 0 1-.952.634q-.533.242-1.053.242-.216 0-.432-.038a1.2 1.2 0 0 1-.394-.115.85.85 0 0 1-.279-.241.72.72 0 0 1-.114-.419q0-.355.14-.546a1 1 0 0 1 .355-.317q.216-.114.457-.178.255-.063.47-.152.216-.102.355-.254.14-.153.14-.432 0-.267-.216-.546a11 11 0 0 0-.457-.61 7 7 0 0 1-.47-.697 1.65 1.65 0 0 1-.203-.813q0-.546.216-1.003.228-.47.597-.812.38-.343.863-.534A2.6 2.6 0 0 1 96 15.193a2 2 0 0 1 .393.038 1 1 0 0 1 .355.14q.153.09.242.254a.7.7 0 0 1 .101.394m2.92 7.35a1.9 1.9 0 0 1-1.13-.343 3 3 0 0 1-.812-.876 4.2 4.2 0 0 1-.495-1.18 5.3 5.3 0 0 1-.165-1.295q0-.673.165-1.384.165-.723.507-1.308.343-.596.877-.964.533-.381 1.269-.381.711 0 1.206.393.508.381.813.965.305.572.431 1.257.127.686.089 1.295a7 7 0 0 1-.216 1.358q-.165.686-.495 1.232t-.838.888-1.206.343m.127-5.738q-.19 0-.343.203-.14.203-.24.495-.09.292-.14.622-.051.318-.051.559 0 .304.05.66a5 5 0 0 0 .166.66q.101.293.24.495.153.19.344.19.203 0 .342-.19.152-.19.242-.482a3.5 3.5 0 0 0 .126-.635q.039-.355.039-.66 0-.28-.051-.61a3.5 3.5 0 0 0-.153-.634 1.4 1.4 0 0 0-.241-.483q-.14-.19-.33-.19m11.654 3.11q0 .432-.279.85-.267.408-.685.737a4 4 0 0 1-.876.52q-.47.191-.864.191-.672 0-1.206-.33a3.2 3.2 0 0 1-.876-.863 4.2 4.2 0 0 1-.546-1.143 4.6 4.6 0 0 1-.177-1.231q0-.635.177-1.359a5 5 0 0 1 .534-1.333q.368-.609.914-1.015.558-.407 1.32-.407.432 0 .825.153a2 2 0 0 1 1.155 1.04q.178.369.178.826 0 .597-.254 1.117a2.9 2.9 0 0 1-.673.902q-.418.38-.964.622a3.3 3.3 0 0 1-1.118.253q.052.369.292.534.255.165.597.165.254 0 .495-.127a5 5 0 0 0 .47-.28q.228-.165.444-.292a.94.94 0 0 1 .457-.126q.255 0 .457.165.203.165.203.431m-2.056-3.11a.8.8 0 0 0-.089-.343.29.29 0 0 0-.279-.178.73.73 0 0 0-.47.153 1.1 1.1 0 0 0-.317.368q-.127.215-.204.47-.063.253-.076.47.178-.039.419-.102a2.6 2.6 0 0 0 .47-.165q.228-.114.381-.28a.54.54 0 0 0 .165-.393m7.922-1.18q0 .203-.076.43a4 4 0 0 1-.191.445 7 7 0 0 1-.241.445q-.127.203-.229.38-.253.406-.507.826-.241.418-.496.825.115.177.318.495t.393.673q.204.343.343.685.14.344.14.584 0 .229-.178.445a.54.54 0 0 1-.432.215.97.97 0 0 1-.545-.19 5 5 0 0 1-.534-.444 7 7 0 0 1-.469-.546 16 16 0 0 0-.369-.483q-.164.178-.431.483a7 7 0 0 1-.559.596 5 5 0 0 1-.584.508q-.291.203-.52.203a.5.5 0 0 1-.419-.19.7.7 0 0 1-.153-.444q0-.254.165-.648.178-.393.407-.812.241-.42.469-.8.242-.381.369-.597a23 23 0 0 1-.318-.596 18 18 0 0 1-.368-.788q-.165-.419-.292-.812a2.6 2.6 0 0 1-.114-.673q0-.292.178-.47a.63.63 0 0 1 .469-.177q.318 0 .597.253.28.241.52.597.242.343.419.724.19.367.305.61l.419-.623q.28-.393.622-.774.343-.381.711-.66.368-.28.698-.28.216 0 .343.19.14.179.14.394m6.195 2.767q0 .559-.127 1.231-.114.66-.406 1.232-.28.57-.749.952-.458.38-1.155.38-.179 0-.369-.025a1.8 1.8 0 0 1-.368-.089 1.3 1.3 0 0 1-.305-.165.75.75 0 0 1-.215-.292l-.115 1.829q-.013.291-.025.698 0 .406-.102.774a1.4 1.4 0 0 1-.317.622q-.216.267-.635.267-.24 0-.406-.254a2 2 0 0 1-.267-.622 7 7 0 0 1-.139-.85 12 12 0 0 1-.064-.902q-.012-.432-.012-.787v-.52q0-.851-.013-1.69-.013-.85-.013-1.7v-.47q0-.33.026-.711t.076-.787q.063-.405.178-.736.114-.343.292-.546a.54.54 0 0 1 .431-.216q.165 0 .292.101.14.09.229.242.1.14.165.304.063.165.101.305.394-.444.902-.673a2.7 2.7 0 0 1 1.104-.228q.609 0 .99.342a2.3 2.3 0 0 1 .61.851q.228.508.317 1.092.089.571.089 1.04m-1.815-.102q0-.19-.039-.38a1 1 0 0 0-.114-.369.63.63 0 0 0-.228-.28.62.62 0 0 0-.381-.113q-.305 0-.648.203-.33.19-.495.444-.063.102-.076.33a8 8 0 0 0-.013.343v.241l.026.292.025.292a.8.8 0 0 0 .064.216q.037.114.165.216.126.088.279.165.153.076.305.114.165.038.279.038a.53.53 0 0 0 .432-.203q.164-.203.254-.482a2.2 2.2 0 0 0 .126-.572q.039-.304.039-.495m4.963-3.808q0 .686-.063 1.383-.051.686-.051 1.384 0 .901.051 1.803.063.9.063 1.815 0 .23-.025.52-.025.28-.127.521a1 1 0 0 1-.279.407q-.19.165-.508.165-.305 0-.533-.305a2.7 2.7 0 0 1-.368-.749 10 10 0 0 1-.242-1.041q-.088-.571-.139-1.105a71 71 0 0 1-.064-.99 29 29 0 0 1-.012-.673q0-.24.012-.698.026-.457.089-.99t.165-1.08q.114-.558.292-1.002a2.5 2.5 0 0 1 .419-.737q.253-.291.597-.291.28 0 .419.19.152.178.216.444.063.255.076.546.012.279.012.483m3.06-1.168a.53.53 0 0 1-.102.317 1 1 0 0 1-.241.254 1.5 1.5 0 0 1-.33.165 1.2 1.2 0 0 1-.33.05.8.8 0 0 1-.444-.126q-.19-.127-.191-.394 0-.19.089-.33a.8.8 0 0 1 .241-.241q.14-.102.318-.152t.343-.051q.24 0 .444.114.203.115.203.394m.102 4.316v.38q0 .191-.013.37a10 10 0 0 0-.013.583q0 .355-.025.774t-.089.851a3.6 3.6 0 0 1-.178.787 1.6 1.6 0 0 1-.343.584.73.73 0 0 1-.52.229.47.47 0 0 1-.406-.19 1.8 1.8 0 0 1-.28-.521 4.5 4.5 0 0 1-.152-.724q-.05-.406-.076-.774a11 11 0 0 1-.026-.698v-1.042q0-.38.026-.812t.089-.876q.075-.444.203-.812.14-.369.355-.597a.72.72 0 0 1 .546-.229q.343 0 .521.343.177.343.266.8.09.458.102.914.013.444.013.66m5.611-.33a.7.7 0 0 1-.051.267q-.115.292-.355.495a.9.9 0 0 1-.572.19q-.495 0-.672-.495a.4.4 0 0 1-.026-.14q0-.088-.013-.177v-.369a.7.7 0 0 0-.088-.279q-.065-.101-.216-.101-.216 0-.419.279a3 3 0 0 0-.343.647q-.14.369-.228.762-.09.393-.089.635 0 .19.025.47.025.265.102.52.075.254.203.444a.43.43 0 0 0 .355.178.66.66 0 0 0 .394-.127q.19-.14.368-.317.165-.153.355-.318a.7.7 0 0 1 .457-.165q.318 0 .496.229.19.229.19.52 0 .432-.229.813a2.6 2.6 0 0 1-.571.647 2.8 2.8 0 0 1-.762.42q-.418.165-.799.164-.686 0-1.168-.342a2.7 2.7 0 0 1-.762-.864 4.1 4.1 0 0 1-.419-1.155 6 6 0 0 1-.127-1.18q0-.648.178-1.397.177-.762.546-1.41.368-.645.939-1.078.584-.432 1.384-.432.496 0 .85.216.369.216.597.571.241.343.356.774.127.432.127.851v.127a1 1 0 0 1-.013.127m6.106 3.085q0 .228-.025.597a3.5 3.5 0 0 1-.102.723 1.7 1.7 0 0 1-.279.597.63.63 0 0 1-.533.254q-.47 0-.724-.305-.253-.305-.241-.762-.406.356-.927.559a2.8 2.8 0 0 1-1.041.203q-.368 0-.698-.178a2.2 2.2 0 0 1-.584-.457 2.3 2.3 0 0 1-.406-.622 1.8 1.8 0 0 1-.153-.698q0-.61.369-1.066.38-.457.926-.775a5.2 5.2 0 0 1 1.156-.52 7 7 0 0 1 1.104-.254v-.114a.5.5 0 0 0 .013-.115q0-.393-.216-.634-.216-.242-.609-.242-.318 0-.546.115a2.7 2.7 0 0 0-.432.24q-.203.128-.406.242a1 1 0 0 1-.457.102.7.7 0 0 1-.483-.178.6.6 0 0 1-.19-.457q0-.42.241-.762.254-.343.622-.571.381-.242.813-.368.444-.14.812-.14.343 0 .686.089.342.075.647.254.304.165.546.419.254.24.406.571.229.47.369 1.003.14.52.215 1.08.076.544.102 1.104.025.546.025 1.066m-2.031-.406-.038-.864h-.051a.1.1 0 0 0-.051-.012q-.165 0-.418.089-.242.076-.47.228a1.8 1.8 0 0 0-.394.317.56.56 0 0 0-.152.369q0 .178.127.24a.64.64 0 0 0 .292.064q.279 0 .597-.14.316-.15.558-.291m7.198-2.552a.9.9 0 0 1-.304-.025l-.254-.102a3 3 0 0 0-.229-.089.5.5 0 0 0-.254-.038.94.94 0 0 0-.457.14q-.19.126-.355.317-.153.19-.267.432a2.6 2.6 0 0 0-.178.457 3 3 0 0 0-.063.47q-.012.305-.013.66-.012.368-.012.698t-.026.52a4 4 0 0 1-.063.483 2 2 0 0 1-.165.508 1.2 1.2 0 0 1-.28.406.64.64 0 0 1-.457.165.6.6 0 0 1-.38-.127 1.2 1.2 0 0 1-.267-.33 3 3 0 0 1-.178-.495 6 6 0 0 1-.101-.572 14 14 0 0 1-.064-.609l-.025-.571v-.508q.012-.228.012-.368a16 16 0 0 0-.05-.889 16 16 0 0 1-.026-.901q0-.28.026-.622a2.2 2.2 0 0 1 .139-.635 1.3 1.3 0 0 1 .33-.508q.23-.203.622-.203.216 0 .369.14.152.14.241.342.101.204.152.432t.064.419q.304-.495.685-.8.381-.317.99-.343a2 2 0 0 1 .597.064q.304.063.546.228.254.152.406.407.165.254.178.596.026.407-.241.622t-.648.229m3.453-.571q0 .203-.025.558-.025.343-.076.75a8 8 0 0 1-.152.812q-.09.405-.216.749-.127.33-.305.546a.53.53 0 0 1-.406.203q-.279 0-.483-.267a2.8 2.8 0 0 1-.33-.698 7 7 0 0 1-.203-.952 15 15 0 0 1-.114-1.016 23 23 0 0 1-.051-.927v-1.231q0-.356.026-.749.038-.393.101-.774.076-.395.216-.711.14-.318.368-.508a.83.83 0 0 1 .571-.203q.305 0 .495.266.204.255.318.673.127.407.178.914.063.508.076 1.003.025.483.012.901zm-.241 4.824q0 .215-.101.38a.9.9 0 0 1-.267.255 1.1 1.1 0 0 1-.355.165q-.19.05-.381.05a1 1 0 0 1-.533-.152q-.255-.14-.254-.457a.6.6 0 0 1 .101-.343 1.1 1.1 0 0 1 .28-.279q.165-.114.355-.178.202-.063.381-.063.292 0 .533.152.241.14.241.47M34.276 37.74q0 .433-.28.85-.266.408-.685.737-.406.318-.876.52-.469.192-.863.191-.673 0-1.206-.33a3.2 3.2 0 0 1-.876-.863 4.2 4.2 0 0 1-.546-1.143 4.6 4.6 0 0 1-.178-1.231q0-.634.178-1.359.177-.724.533-1.333.368-.61.914-1.015.56-.407 1.32-.407.432 0 .826.153a2 2 0 0 1 1.155 1.04q.177.369.178.826 0 .597-.254 1.117-.255.521-.673.901-.42.381-.965.623a3.3 3.3 0 0 1-1.117.253q.05.369.292.534.254.165.597.165.253 0 .495-.127a5 5 0 0 0 .47-.28q.228-.165.444-.291a.93.93 0 0 1 .457-.127q.253 0 .457.165a.53.53 0 0 1 .203.431m-2.057-3.11q0-.165-.089-.343a.29.29 0 0 0-.279-.178.73.73 0 0 0-.47.153 1.1 1.1 0 0 0-.317.368q-.127.215-.203.47-.064.253-.076.47.177-.039.419-.102.253-.064.47-.165.228-.114.38-.28a.54.54 0 0 0 .165-.393m6.284-1.612q0 .368-.254.545-.24.178-.545.343-.305.152-.559.368-.24.216-.241.648 0 .228.101.393.114.165.267.305.166.128.355.267.191.14.343.317.166.178.267.432.114.253.114.622 0 .532-.28 1.053-.266.51-.697.915-.42.393-.953.634-.532.242-1.053.242a2.5 2.5 0 0 1-.432-.038 1.2 1.2 0 0 1-.394-.115.85.85 0 0 1-.279-.241.72.72 0 0 1-.114-.419q0-.355.14-.546a1 1 0 0 1 .355-.317q.216-.114.457-.178.255-.063.47-.152.216-.102.355-.254.14-.153.14-.432 0-.267-.216-.546a11 11 0 0 0-.457-.61 7 7 0 0 1-.47-.697 1.65 1.65 0 0 1-.203-.813q0-.546.216-1.003.228-.47.597-.812.38-.343.863-.534.483-.203 1.016-.203.202 0 .393.038a1 1 0 0 1 .356.14q.152.09.24.254a.7.7 0 0 1 .102.394m4.228 0q0 .368-.254.545-.24.178-.546.343-.305.152-.558.368-.242.216-.242.648 0 .228.102.393.114.165.267.305.165.128.355.267.19.14.343.317.165.178.266.432.115.253.115.622 0 .532-.28 1.053-.266.51-.698.915-.42.393-.952.634-.533.242-1.054.242-.216 0-.431-.038a1.2 1.2 0 0 1-.394-.115.85.85 0 0 1-.28-.241.72.72 0 0 1-.114-.419q0-.355.14-.546a1 1 0 0 1 .356-.317q.216-.114.457-.178.253-.063.47-.152.215-.102.355-.254t.14-.432q0-.267-.216-.546a11 11 0 0 0-.457-.61 7 7 0 0 1-.47-.697 1.65 1.65 0 0 1-.203-.813q0-.546.216-1.003.228-.47.596-.812.381-.343.864-.534.482-.203 1.015-.203a2 2 0 0 1 .394.038 1 1 0 0 1 .355.14q.153.09.241.254a.7.7 0 0 1 .102.394m5.827 4.722q0 .433-.28.85-.265.408-.685.737-.406.318-.876.52-.469.192-.863.191-.673 0-1.206-.33a3.2 3.2 0 0 1-.876-.863 4.2 4.2 0 0 1-.546-1.143 4.6 4.6 0 0 1-.178-1.231q0-.634.178-1.359.178-.724.533-1.333.368-.61.914-1.015.56-.407 1.32-.407.432 0 .826.153a2 2 0 0 1 1.155 1.04q.178.369.178.826 0 .597-.254 1.117-.255.521-.673.901-.419.381-.965.623a3.3 3.3 0 0 1-1.117.253q.05.369.292.534.254.165.597.165.254 0 .495-.127.24-.127.47-.28.228-.165.444-.291a.93.93 0 0 1 .457-.127q.255 0 .457.165a.53.53 0 0 1 .203.431m-2.056-3.11q0-.165-.09-.343a.29.29 0 0 0-.279-.178.73.73 0 0 0-.47.153 1.1 1.1 0 0 0-.317.368q-.126.215-.203.47-.063.253-.076.47.177-.039.419-.102.255-.064.47-.165.228-.114.38-.28a.54.54 0 0 0 .166-.393m12.162-.343q0 1.117-.458 2.158a6.3 6.3 0 0 1-1.23 1.828 5.9 5.9 0 0 1-1.79 1.283 5.05 5.05 0 0 1-2.146.47h-.026a.46.46 0 0 1-.38-.204 2.2 2.2 0 0 1-.242-.533 4 4 0 0 1-.152-.71q-.052-.394-.076-.763a10 10 0 0 1-.026-.672v-.457a28 28 0 0 1 .051-1.714q0-.14.013-.407.026-.279.05-.622t.064-.71q.037-.382.076-.699l.089-.571q.051-.255.114-.343a1.5 1.5 0 0 1 .508-.495q.342-.215.736-.356.407-.139.813-.203.419-.075.724-.076.837 0 1.447.318.621.304 1.028.837.42.522.61 1.206.203.687.203 1.435m-2.133.368q0-.279-.102-.571a1.8 1.8 0 0 0-.292-.533 1.3 1.3 0 0 0-.444-.381 1.1 1.1 0 0 0-.571-.152q-.267 0-.546.127-.064.038-.115.24a4 4 0 0 0-.088.47q-.025.28-.051.61t-.038.635q0 .292-.013.52v.685q0 .242.013.483.026.24.05.419.026.178.09.178.38 0 .748-.292.381-.305.686-.737a4 4 0 0 0 .482-.9q.19-.47.19-.8m4.799-3.516a.53.53 0 0 1-.102.317 1 1 0 0 1-.241.254 1.5 1.5 0 0 1-.33.165q-.178.05-.33.05a.8.8 0 0 1-.445-.126q-.19-.127-.19-.394 0-.19.089-.33a.8.8 0 0 1 .241-.241q.14-.102.317-.152.178-.051.343-.051.24 0 .444.114t.204.394m.101 4.316v.38q0 .191-.012.37-.013.215-.013.583 0 .355-.026.775-.025.418-.089.85-.05.432-.177.787a1.6 1.6 0 0 1-.343.584.73.73 0 0 1-.52.229.47.47 0 0 1-.407-.19 1.8 1.8 0 0 1-.28-.521 4.4 4.4 0 0 1-.151-.724q-.051-.406-.077-.774a11 11 0 0 1-.025-.699v-1.04q0-.382.025-.813.026-.432.09-.876.076-.444.202-.812.14-.369.356-.597a.72.72 0 0 1 .546-.229q.343 0 .52.343.179.343.267.8.09.457.102.914.012.444.012.66m6.297 2.755q0 .228-.025.597a3.5 3.5 0 0 1-.102.723q-.089.343-.28.597a.63.63 0 0 1-.532.254q-.47 0-.724-.305-.255-.305-.241-.761-.406.355-.927.558a2.8 2.8 0 0 1-1.041.203q-.368 0-.698-.178a2.2 2.2 0 0 1-.584-.457 2.3 2.3 0 0 1-.407-.622 1.8 1.8 0 0 1-.152-.698q0-.61.368-1.066.381-.457.927-.775.547-.33 1.155-.52a7 7 0 0 1 1.105-.254v-.114a.5.5 0 0 0 .013-.115q0-.394-.216-.634-.216-.242-.61-.242a1.2 1.2 0 0 0-.546.115 2.7 2.7 0 0 0-.431.24q-.204.129-.407.242a1 1 0 0 1-.456.102.7.7 0 0 1-.483-.178.6.6 0 0 1-.19-.457q0-.42.24-.762a2.2 2.2 0 0 1 .623-.571q.381-.242.812-.368.446-.14.813-.14.342 0 .686.089.342.075.647.254.304.165.546.419.254.24.406.571.228.47.368 1.003.14.52.216 1.08.076.545.102 1.104.025.546.025 1.066m-2.031-.406-.038-.864h-.051a.1.1 0 0 0-.05-.012q-.165 0-.42.089-.24.076-.47.228a2 2 0 0 0-.393.318.56.56 0 0 0-.152.368q0 .178.126.24a.65.65 0 0 0 .293.064q.28 0 .596-.14.318-.15.559-.291m8.798-1.994q0 .369-.064.838a6.5 6.5 0 0 1-.178.94 5.3 5.3 0 0 1-.317.94q-.19.457-.482.825a2.2 2.2 0 0 1-.66.57 1.7 1.7 0 0 1-.864.217q-.52 0-.952-.242-.419-.24-.724-.66a1.07 1.07 0 0 1-.279.61.8.8 0 0 1-.61.254q-.215 0-.367-.216a2 2 0 0 1-.229-.546 6 6 0 0 1-.14-.75q-.038-.405-.05-.786a21 21 0 0 1-.013-.686v-1.295l.025-.876q0-.216-.012-.647 0-.432.012-.952.014-.533.051-1.08.051-.558.165-1.015a2.3 2.3 0 0 1 .317-.75q.204-.29.521-.304.254 0 .432.178.177.177.292.47.127.291.19.66.076.355.102.723.038.356.038.686.012.318.012.52 0 .039-.012.178v.686a1.8 1.8 0 0 1 .33-.47q.216-.228.482-.406.267-.178.559-.292t.558-.114q.534 0 .89.279.368.267.583.685.216.42.305.915.089.482.089.913m-1.867.381q0-.151-.025-.33a.9.9 0 0 0-.089-.33.63.63 0 0 0-.19-.254.44.44 0 0 0-.305-.101q-.202 0-.406.089-.19.088-.368.228a3 3 0 0 0-.33.305 3 3 0 0 0-.267.304l-.127 1.13q.203.293.495.47.292.165.66.165.28 0 .457-.177.191-.178.292-.432a2.1 2.1 0 0 0 .153-.559q.05-.291.05-.508m7.96 1.55q0 .43-.279.85-.267.406-.685.736-.406.318-.876.52-.47.192-.864.191-.672 0-1.206-.33a3.2 3.2 0 0 1-.876-.863 4.2 4.2 0 0 1-.546-1.143 4.6 4.6 0 0 1-.177-1.231q0-.634.177-1.359.178-.724.534-1.333.368-.61.914-1.015.558-.407 1.32-.407.432 0 .825.153a2 2 0 0 1 1.155 1.04q.178.369.178.826 0 .597-.254 1.117-.253.521-.673.901-.418.381-.965.623a3.3 3.3 0 0 1-1.117.253q.052.369.292.534.254.165.597.165.254 0 .495-.127a5 5 0 0 0 .47-.28q.228-.165.444-.291a.93.93 0 0 1 .457-.127q.255 0 .457.165a.53.53 0 0 1 .203.431m-2.056-3.111q0-.165-.09-.343a.29.29 0 0 0-.278-.178.73.73 0 0 0-.47.153 1.1 1.1 0 0 0-.318.368q-.126.215-.203.47-.063.253-.076.47.178-.039.42-.102.253-.064.469-.165.229-.114.38-.28a.54.54 0 0 0 .166-.393m5.522 5.827q-.9 0-1.409-.241a1.64 1.64 0 0 1-.749-.66q-.24-.432-.292-1.041-.05-.61-.05-1.359 0-.597.037-1.193.039-.61.115-1.295-.178 0-.28.013h-.165q-.405 0-.698-.178a.59.59 0 0 1-.305-.546.56.56 0 0 1 .178-.406q.165-.178.432-.305a3 3 0 0 1 .571-.203q.317-.076.597-.102 0-.355.05-.787.052-.431.178-.8a1.9 1.9 0 0 1 .368-.634.75.75 0 0 1 .584-.254q.204 0 .356.127.165.113.266.305.102.177.153.406.05.228.05.444 0 .255-.038.52a6 6 0 0 1-.14.66q.217-.024.293-.025a1 1 0 0 1 .14-.012 3 3 0 0 1 .444.038q.24.037.431.127a.9.9 0 0 1 .33.24.5.5 0 0 1 .127.344.54.54 0 0 1-.19.406q-.177.177-.457.305a3.3 3.3 0 0 1-.597.203q-.317.063-.596.089-.077.52-.115.964-.025.432-.063.876l-.05.445a8 8 0 0 0 0 .838q.011.216.088.419.075.202.241.355.166.14.457.14.178 0 .368-.026.19-.038.381-.038.33 0 .47.229.153.228.152.584a.72.72 0 0 1-.165.47 1.1 1.1 0 0 1-.393.304q-.242.127-.546.19-.292.064-.559.064m7.236-2.717q0 .433-.279.85-.266.408-.685.737-.407.318-.876.52-.47.192-.864.191-.672 0-1.206-.33a3.2 3.2 0 0 1-.876-.863 4.2 4.2 0 0 1-.546-1.143 4.6 4.6 0 0 1-.177-1.231q0-.634.177-1.359.178-.724.534-1.333.368-.61.914-1.015.558-.407 1.32-.407.432 0 .825.153a2 2 0 0 1 1.156 1.04q.177.369.177.826 0 .597-.254 1.117-.254.521-.672.901-.42.381-.965.623a3.3 3.3 0 0 1-1.117.253q.05.369.291.534.255.165.597.165.255 0 .495-.127.242-.127.47-.28.228-.165.444-.291a.93.93 0 0 1 .457-.127q.255 0 .457.165a.53.53 0 0 1 .203.431m-2.056-3.11q0-.165-.089-.343a.29.29 0 0 0-.28-.178.73.73 0 0 0-.469.153 1.1 1.1 0 0 0-.317.368 2 2 0 0 0-.203.47q-.064.253-.077.47.178-.039.42-.102.253-.064.469-.165.229-.114.38-.28a.54.54 0 0 0 .166-.393m6.284-1.612q0 .368-.254.545-.24.178-.546.343-.305.152-.558.368-.242.216-.242.648 0 .228.102.393.114.165.267.305.165.128.355.267.19.14.343.317.165.178.266.432.115.253.115.622 0 .532-.28 1.053-.266.51-.698.915-.42.393-.952.634-.533.242-1.054.242-.216 0-.431-.038a1.2 1.2 0 0 1-.394-.115.85.85 0 0 1-.28-.241.72.72 0 0 1-.113-.419q0-.355.14-.546a1 1 0 0 1 .355-.317q.216-.114.457-.178.254-.063.47-.152.215-.102.355-.254t.14-.432q0-.267-.216-.546a11 11 0 0 0-.457-.61 7 7 0 0 1-.47-.697 1.65 1.65 0 0 1-.203-.813q0-.546.216-1.003.227-.47.596-.812.381-.343.864-.534.482-.203 1.015-.203a2 2 0 0 1 .394.038 1 1 0 0 1 .355.14q.153.09.242.254a.7.7 0 0 1 .101.394m8.963 5.192q0 .228-.025.597a3.5 3.5 0 0 1-.102.723 1.7 1.7 0 0 1-.279.597.63.63 0 0 1-.533.254q-.47 0-.724-.305t-.241-.761q-.406.355-.927.558a2.8 2.8 0 0 1-1.041.203q-.368 0-.698-.178a2.2 2.2 0 0 1-.584-.457 2.3 2.3 0 0 1-.407-.622 1.8 1.8 0 0 1-.152-.698q0-.61.368-1.066a3.5 3.5 0 0 1 .927-.775q.546-.33 1.155-.52a7 7 0 0 1 1.105-.254v-.114a.5.5 0 0 0 .012-.115q0-.394-.215-.634-.216-.242-.61-.242-.316 0-.546.115a2.7 2.7 0 0 0-.431.24q-.204.129-.407.242a1 1 0 0 1-.457.102.7.7 0 0 1-.482-.178.6.6 0 0 1-.19-.457q0-.42.24-.762a2.2 2.2 0 0 1 .623-.571q.381-.242.812-.368.445-.14.813-.14.342 0 .685.089.343.075.648.254.305.165.546.419.253.24.406.571.228.47.368 1.003.14.52.216 1.08.077.545.102 1.104.025.546.025 1.066m-2.031-.406-.038-.864h-.051a.1.1 0 0 0-.051-.012q-.165 0-.419.089-.241.076-.47.228a2 2 0 0 0-.393.318.56.56 0 0 0-.153.368q0 .178.127.24a.65.65 0 0 0 .292.064q.28 0 .597-.14a8 8 0 0 0 .559-.291m8.607-1.587q0 .559-.127 1.231-.114.66-.406 1.232-.28.57-.749.952-.458.38-1.155.38-.178 0-.369-.025a2 2 0 0 1-.368-.089 1.3 1.3 0 0 1-.304-.165.76.76 0 0 1-.216-.292l-.114 1.828q-.013.292-.026.699 0 .406-.101.774-.09.369-.318.622-.215.267-.635.267-.24 0-.406-.254a2 2 0 0 1-.266-.622 7 7 0 0 1-.14-.85 12 12 0 0 1-.064-.902q-.012-.432-.012-.787v-.52q0-.851-.013-1.69-.012-.85-.013-1.7v-.47q0-.33.026-.711t.076-.787q.063-.406.178-.736.114-.343.292-.546a.54.54 0 0 1 .431-.216q.165 0 .292.101.14.09.229.242a1.3 1.3 0 0 1 .165.304q.063.165.101.305.394-.444.902-.673a2.7 2.7 0 0 1 1.104-.228q.61 0 .991.342.393.343.609.851.228.507.317 1.092.09.571.089 1.04m-1.815-.102q0-.19-.038-.38a1 1 0 0 0-.115-.369.6.6 0 0 0-.228-.28.62.62 0 0 0-.381-.113q-.305 0-.647.203a1.4 1.4 0 0 0-.496.444q-.063.102-.076.33a7 7 0 0 0-.012.343v.241l.025.292.025.292a.8.8 0 0 0 .064.216q.037.114.165.216.127.088.279.165.153.076.305.114.165.038.279.038a.53.53 0 0 0 .432-.203q.165-.203.254-.482.101-.28.127-.572a4 4 0 0 0 .038-.495m7.985 2.095q0 .228-.025.597a3.5 3.5 0 0 1-.102.723 1.7 1.7 0 0 1-.279.597.63.63 0 0 1-.533.254q-.47 0-.724-.305t-.241-.761q-.407.355-.927.558a2.8 2.8 0 0 1-1.041.203q-.368 0-.698-.178a2.3 2.3 0 0 1-.99-1.08 1.8 1.8 0 0 1-.153-.697q0-.61.368-1.066.381-.457.927-.775.546-.33 1.155-.52a7 7 0 0 1 1.105-.254v-.114a.5.5 0 0 0 .013-.115q0-.394-.216-.634-.216-.242-.61-.242-.316 0-.546.115a2.7 2.7 0 0 0-.431.24 11 11 0 0 1-.406.242 1 1 0 0 1-.457.102.7.7 0 0 1-.483-.178.6.6 0 0 1-.19-.457q0-.42.241-.762.254-.343.622-.571.381-.242.812-.368a2.7 2.7 0 0 1 .813-.14q.342 0 .686.089.342.075.647.254.304.165.546.419.254.24.406.571.228.47.368 1.003.14.52.216 1.08.076.545.102 1.104.025.546.025 1.066m-2.031-.406-.038-.864h-.051a.1.1 0 0 0-.051-.012q-.165 0-.419.089-.241.076-.47.228a2 2 0 0 0-.393.318.56.56 0 0 0-.152.368q0 .178.127.24a.64.64 0 0 0 .292.064q.28 0 .596-.14a8 8 0 0 0 .559-.291m7.198-2.552a.9.9 0 0 1-.305-.025l-.254-.102a3 3 0 0 0-.228-.089.5.5 0 0 0-.254-.038.94.94 0 0 0-.457.14q-.19.126-.355.317-.153.19-.267.432a2.6 2.6 0 0 0-.178.457 3 3 0 0 0-.063.47q-.013.304-.013.66a22 22 0 0 0-.013.698q0 .33-.025.52-.013.204-.064.483a2 2 0 0 1-.165.508q-.1.24-.279.406a.65.65 0 0 1-.457.165.6.6 0 0 1-.381-.127 1.2 1.2 0 0 1-.266-.33 3 3 0 0 1-.178-.495 7 7 0 0 1-.102-.572 16 16 0 0 1-.063-.609l-.026-.571v-.508a7 7 0 0 0 .013-.368 15 15 0 0 0-.051-.889 16 16 0 0 1-.025-.901q0-.28.025-.622a2.2 2.2 0 0 1 .14-.635 1.3 1.3 0 0 1 .33-.508q.228-.203.622-.203.216 0 .368.14.153.14.242.342.1.204.152.432t.063.419q.305-.495.686-.8.381-.317.99-.343.305-.012.597.064.305.063.546.228.253.153.406.407.165.254.178.596.025.407-.241.622-.267.216-.648.229m6.398 2.488q0 .433-.279.85-.267.408-.685.737a4 4 0 0 1-.876.52q-.47.192-.864.191-.672 0-1.206-.33a3.2 3.2 0 0 1-.876-.863 4.2 4.2 0 0 1-.546-1.143 4.6 4.6 0 0 1-.177-1.231q0-.634.177-1.359a5 5 0 0 1 .534-1.333q.368-.61.914-1.015.558-.407 1.32-.407.432 0 .825.153a2 2 0 0 1 1.155 1.04q.178.369.178.826 0 .597-.254 1.117a2.9 2.9 0 0 1-.673.901q-.418.381-.964.623a3.3 3.3 0 0 1-1.118.253q.052.369.292.534.255.165.597.165.253 0 .495-.127a5 5 0 0 0 .47-.28q.228-.165.444-.291a.94.94 0 0 1 .457-.127q.255 0 .457.165.203.165.203.431m-2.056-3.11a.8.8 0 0 0-.089-.343.29.29 0 0 0-.279-.178.73.73 0 0 0-.47.153 1.1 1.1 0 0 0-.317.368q-.127.215-.204.47-.063.253-.076.47.178-.039.419-.102a2.6 2.6 0 0 0 .47-.165q.228-.114.381-.28a.54.54 0 0 0 .165-.393m7.274.495a1 1 0 0 1-.012.14 1.2 1.2 0 0 1-.394.622.9.9 0 0 1-.571.19q-.496 0-.673-.495a.4.4 0 0 1-.026-.14q0-.088-.012-.177v-.368a.7.7 0 0 0-.089-.28q-.063-.1-.216-.101-.215 0-.419.279a3 3 0 0 0-.343.647q-.14.369-.228.762a3 3 0 0 0-.089.635q0 .19.025.47.025.265.102.52t.203.444a.43.43 0 0 0 .356.178.66.66 0 0 0 .393-.127q.19-.14.368-.317.165-.152.356-.317a.7.7 0 0 1 .457-.166q.317 0 .495.229a.8.8 0 0 1 .19.52q0 .432-.228.813a2.6 2.6 0 0 1-.572.647 2.8 2.8 0 0 1-.761.42q-.42.165-.8.164-.685 0-1.168-.342a2.7 2.7 0 0 1-.762-.864 4.1 4.1 0 0 1-.419-1.155 6 6 0 0 1-.127-1.18q0-.648.178-1.397.178-.762.546-1.41.368-.645.939-1.078.585-.432 1.384-.432.495 0 .851.216.368.216.597.571.24.343.355.774.127.432.127.851v.127a.6.6 0 0 1-.013.127m6.031 2.615q0 .433-.28.85-.267.408-.685.737a4 4 0 0 1-.876.52q-.47.192-.864.191-.672 0-1.206-.33a3.2 3.2 0 0 1-.876-.863 4.2 4.2 0 0 1-.546-1.143 4.6 4.6 0 0 1-.177-1.231q0-.634.177-1.359a5 5 0 0 1 .534-1.333q.368-.61.914-1.015.558-.407 1.32-.407.432 0 .825.153a2 2 0 0 1 1.156 1.04q.177.369.177.826 0 .597-.254 1.117a3 3 0 0 1-.672.901q-.42.381-.965.623a3.3 3.3 0 0 1-1.118.253q.052.369.292.534.255.165.597.165.254 0 .495-.127a5 5 0 0 0 .47-.28q.228-.165.444-.291a.94.94 0 0 1 .457-.127q.255 0 .457.165.204.165.204.431m-2.057-3.11a.8.8 0 0 0-.089-.343.29.29 0 0 0-.279-.178.73.73 0 0 0-.47.153 1.1 1.1 0 0 0-.317.368q-.127.215-.204.47-.063.253-.076.47.178-.039.419-.102.254-.064.47-.165.228-.114.381-.28a.54.54 0 0 0 .165-.393m11.527-.533q-.1.926-.203 1.84-.102.915-.14 1.829a27 27 0 0 0-.05 1.993q.012.939.012 1.993 0 .255-.012.622 0 .367-.089.711a1.5 1.5 0 0 1-.292.584q-.19.24-.584.241a.5.5 0 0 1-.33-.114 1.1 1.1 0 0 1-.229-.305 2.3 2.3 0 0 1-.152-.406 7 7 0 0 1-.089-.47 10 10 0 0 1-.076-.99v-2.412a1.9 1.9 0 0 1-.762.584q-.457.19-.914.19-.572 0-.99-.266a2.4 2.4 0 0 1-.673-.698 3.3 3.3 0 0 1-.394-.94 4 4 0 0 1-.127-.99v-.076q0-.66.204-1.422.203-.775.596-1.435.406-.66 1.003-1.092a2.33 2.33 0 0 1 1.409-.444q.432 0 .788.178.367.177.52.584.102-.293.305-.47a.8.8 0 0 1 .546-.19q.419 0 .584.279.177.267.177.597 0 .139-.012.254zm-2.92.304q-.291 0-.546.242a2.2 2.2 0 0 0-.444.57q-.19.33-.305.712a2.7 2.7 0 0 0-.101.673q0 .177.025.38.038.204.102.394.076.178.19.305a.46.46 0 0 0 .318.114q.165 0 .38-.076a3 3 0 0 0 .445-.216q.216-.14.381-.305t.228-.317a1 1 0 0 0 .064-.267q.025-.177.038-.368a7 7 0 0 0 .051-.685.9.9 0 0 0-.077-.343 1.6 1.6 0 0 0-.177-.381 1.1 1.1 0 0 0-.267-.305.48.48 0 0 0-.305-.127m9.09 1.968q0 .699-.139 1.384-.14.685-.47 1.231-.33.534-.889.864-.546.33-1.371.33-.812 0-1.358-.318a2.6 2.6 0 0 1-.876-.863 3.9 3.9 0 0 1-.457-1.206 7.4 7.4 0 0 1-.127-1.371q0-.763.177-1.51.038-.204.14-.56.114-.368.279-.71.178-.355.394-.61.228-.254.495-.254.254 0 .406.14a1 1 0 0 1 .241.356q.09.203.115.444.025.228.025.419 0 .291-.051.571-.038.279-.089.559l-.101.761A8 8 0 0 0 152 37.22q.024.228.101.444.076.216.216.368.14.14.393.14.331 0 .521-.178a1 1 0 0 0 .292-.444q.102-.267.127-.572t.025-.558a8 8 0 0 0-.076-1.092 46 46 0 0 1-.14-1.104 1.2 1.2 0 0 1 .229-.901.85.85 0 0 1 .279-.242.7.7 0 0 1 .368-.102q.28 0 .496.204.215.19.355.507.153.305.241.699.102.381.153.761.063.369.076.699.025.33.025.52m6.17 1.841q0 .228-.025.597a3.5 3.5 0 0 1-.102.723 1.7 1.7 0 0 1-.279.597.63.63 0 0 1-.533.254q-.47 0-.724-.305t-.241-.761q-.406.355-.927.558a2.8 2.8 0 0 1-1.041.203q-.368 0-.698-.178a2.2 2.2 0 0 1-.584-.457 2.3 2.3 0 0 1-.406-.622 1.8 1.8 0 0 1-.153-.698q0-.61.368-1.066.381-.457.927-.775.546-.33 1.155-.52a7 7 0 0 1 1.105-.254v-.114a.5.5 0 0 0 .013-.115q0-.394-.216-.634-.216-.242-.61-.242-.317 0-.546.115a2.7 2.7 0 0 0-.431.24 11 11 0 0 1-.406.242 1 1 0 0 1-.457.102.7.7 0 0 1-.483-.178.6.6 0 0 1-.19-.457q0-.42.241-.762.254-.343.622-.571.381-.242.812-.368a2.7 2.7 0 0 1 .813-.14q.342 0 .686.089.342.075.647.254.305.165.546.419.254.24.406.571.228.47.368 1.003.14.52.216 1.08.077.545.102 1.104.025.546.025 1.066m-2.031-.406-.038-.864h-.051a.1.1 0 0 0-.051-.012q-.165 0-.419.089a1.8 1.8 0 0 0-.469.228 1.8 1.8 0 0 0-.394.318.56.56 0 0 0-.152.368q0 .178.127.24a.64.64 0 0 0 .292.064q.28 0 .596-.14a8 8 0 0 0 .559-.291m6.398 2.551q-.216 0-.343-.203a1.4 1.4 0 0 1-.19-.444 4 4 0 0 1-.089-.508 7.5 7.5 0 0 1 .026-1.168l.101-.761q.063-.381.102-.762a5.7 5.7 0 0 0 .038-1.092 1.4 1.4 0 0 0-.064-.33.54.54 0 0 0-.139-.267.36.36 0 0 0-.267-.101q-.114 0-.254.19a2.7 2.7 0 0 0-.266.42 5 5 0 0 0-.204.469q-.076.229-.076.343v.57q.013.28.013.572v.736q-.013.23-.038.47-.025.242-.076.47-.039.228-.115.444-.075.203-.203.369a1 1 0 0 1-.279.253.74.74 0 0 1-.394.102.57.57 0 0 1-.418-.165 1.2 1.2 0 0 1-.267-.419 3 3 0 0 1-.152-.584 19 19 0 0 1-.064-.635 15 15 0 0 1-.013-.571q.013-.267.013-.419v-.597q0-.482-.025-.952a33 33 0 0 1-.013-.94v-.647q.012-.393.102-.761.088-.381.292-.648t.596-.267q.179 0 .318.115.14.114.241.279.114.165.178.356.075.189.114.33.126-.178.292-.343.177-.166.393-.292a2.07 2.07 0 0 1 1.092-.28q.648 0 1.003.318.369.305.533.774.178.458.216.99.038.534.038.965 0 .216-.038.648-.038.419-.127.94a11 11 0 0 1-.216 1.053 7 7 0 0 1-.33.977 2.4 2.4 0 0 1-.457.724q-.254.28-.584.28m7.935-8.708q0 .925-.076 1.84-.064.914-.064 1.841 0 .75.038 1.485.051.736.051 1.486 0 .203-.013.495a2.3 2.3 0 0 1-.089.546q-.063.267-.228.457-.153.19-.444.19a.82.82 0 0 1-.635-.279 1.4 1.4 0 0 1-.305-.648 2.2 2.2 0 0 1-.698.775 1.7 1.7 0 0 1-.99.317 1.4 1.4 0 0 1-.991-.393 3.5 3.5 0 0 1-.685-.952 5.6 5.6 0 0 1-.406-1.168 5.3 5.3 0 0 1-.127-1.054 7.6 7.6 0 0 1 .165-1.549q.1-.42.254-.812a3 3 0 0 1 .381-.724q.24-.317.558-.508.33-.19.749-.19.457 0 .876.266.419.267.635.66l.114-2.018q.013-.24.038-.559.025-.33.102-.622a1.3 1.3 0 0 1 .266-.495q.178-.203.521-.203.368 0 .571.178.204.177.292.457.102.267.114.584.026.317.026.596m-2.07 5.636q0-.291-.012-.571a6 6 0 0 1 0-.571 7 7 0 0 0-.178-.356 1.6 1.6 0 0 0-.254-.368 1.3 1.3 0 0 0-.317-.292.7.7 0 0 0-.381-.114.5.5 0 0 0-.368.14.8.8 0 0 0-.203.342 2 2 0 0 0-.089.42 7 7 0 0 0-.013.393q0 .152.025.457.026.291.089.596.077.305.203.534.127.228.343.228.165 0 .33-.063.165-.076.305-.178.153-.114.279-.241.14-.14.241-.254zm5.32 3.085a1.9 1.9 0 0 1-1.13-.343 3 3 0 0 1-.813-.876 4.2 4.2 0 0 1-.495-1.18 5.3 5.3 0 0 1-.165-1.295q0-.673.165-1.384.165-.723.508-1.308.344-.596.876-.964.534-.381 1.27-.381.711 0 1.206.393.507.381.812.965.305.571.432 1.257.126.686.089 1.295a7 7 0 0 1-.216 1.358q-.165.686-.495 1.232t-.838.888-1.206.343m.127-5.738q-.19 0-.343.203a2 2 0 0 0-.241.495 4.5 4.5 0 0 0-.14.622 3.6 3.6 0 0 0-.051.559q0 .304.051.66.063.355.165.66.102.293.241.495.153.19.343.19.204 0 .343-.19.153-.19.241-.482a3.5 3.5 0 0 0 .127-.635q.039-.355.038-.66 0-.28-.051-.61a3.4 3.4 0 0 0-.152-.634 1.4 1.4 0 0 0-.241-.483q-.14-.19-.33-.19M21.619 53.217q0 .559-.127 1.231a4.3 4.3 0 0 1-.407 1.232q-.279.57-.749.952-.457.38-1.155.38a3 3 0 0 1-.368-.025 1.8 1.8 0 0 1-.368-.089 1.3 1.3 0 0 1-.305-.165.75.75 0 0 1-.216-.292l-.114 1.828q-.012.293-.025.699a3 3 0 0 1-.102.774q-.09.369-.317.622-.216.267-.635.267-.24 0-.406-.254a2 2 0 0 1-.267-.622 7 7 0 0 1-.14-.85 12 12 0 0 1-.063-.902q-.012-.432-.013-.787v-.52q0-.851-.012-1.69-.013-.85-.013-1.7v-.47q0-.33.025-.711t.076-.787q.064-.406.178-.736.114-.343.292-.546a.54.54 0 0 1 .432-.216q.165 0 .292.101.14.09.228.242.102.14.165.304.064.165.102.305.393-.444.901-.673a2.7 2.7 0 0 1 1.105-.228q.609 0 .99.342.393.343.61.851.228.507.317 1.092.089.571.089 1.04m-1.816-.102q0-.19-.038-.38a1 1 0 0 0-.114-.369.6.6 0 0 0-.229-.28.6.6 0 0 0-.38-.113q-.306 0-.648.203a1.4 1.4 0 0 0-.495.444q-.064.102-.076.33a7 7 0 0 0-.013.343v.241a39 39 0 0 1 .05.584.8.8 0 0 0 .064.216q.038.114.165.216.127.088.28.165.152.076.304.114.166.038.28.038a.53.53 0 0 0 .431-.203q.165-.203.254-.482a2.2 2.2 0 0 0 .127-.572q.038-.305.038-.495m7.986 2.095q0 .228-.026.597a3.5 3.5 0 0 1-.101.723q-.09.343-.28.597a.63.63 0 0 1-.533.254q-.47 0-.724-.305t-.24-.761q-.407.355-.928.558a2.8 2.8 0 0 1-1.04.203q-.369 0-.699-.178a2.2 2.2 0 0 1-.584-.457 2.3 2.3 0 0 1-.406-.622 1.8 1.8 0 0 1-.152-.698q0-.61.368-1.066.381-.457.927-.775.546-.33 1.155-.52a7 7 0 0 1 1.104-.254v-.114a.5.5 0 0 0 .013-.115q0-.394-.216-.634-.216-.242-.61-.242a1.2 1.2 0 0 0-.545.115 2.7 2.7 0 0 0-.432.24q-.202.128-.406.242a1 1 0 0 1-.457.102.7.7 0 0 1-.482-.178.6.6 0 0 1-.19-.457q0-.42.24-.762a2.2 2.2 0 0 1 .622-.571q.381-.242.813-.368a2.7 2.7 0 0 1 .813-.14q.343 0 .685.089.342.075.647.254.306.165.546.419.255.24.407.571.228.47.368 1.003.14.52.216 1.08.075.544.101 1.104.026.546.026 1.066m-2.032-.406-.038-.864h-.05a.1.1 0 0 0-.051-.012q-.165 0-.42.089-.24.076-.469.228a2 2 0 0 0-.394.318.56.56 0 0 0-.152.368q0 .178.127.24a.64.64 0 0 0 .292.064q.279 0 .597-.14.316-.15.558-.291m.775-6.17q0 .102-.038.127-.039.025-.127.025a.9.9 0 0 1-.343-.076 3 3 0 0 1-.368-.19 9 9 0 0 1-.356-.242 5 5 0 0 1-.279-.228l-.305.241q-.165.14-.355.267a4 4 0 0 1-.381.203 1 1 0 0 1-.355.076.3.3 0 0 1-.127-.026q-.051-.025-.051-.126 0-.19.165-.483.165-.291.406-.558.24-.267.508-.457.267-.19.47-.19t.47.19q.266.177.494.431.242.254.407.533.165.28.165.483m5.624 8.721q-.216 0-.343-.203a1.4 1.4 0 0 1-.19-.444 3.5 3.5 0 0 1-.09-.508 8 8 0 0 1 .025-1.168l.103-.761q.063-.381.101-.762a6 6 0 0 0 .051-.762q0-.153-.013-.33a1.3 1.3 0 0 0-.063-.33.54.54 0 0 0-.14-.267.36.36 0 0 0-.266-.101q-.115 0-.254.19a3 3 0 0 0-.267.42 5 5 0 0 0-.203.469 1.2 1.2 0 0 0-.076.343v.57q.012.28.013.572v.736a10 10 0 0 1-.039.47 4 4 0 0 1-.076.47q-.038.228-.114.444a1.4 1.4 0 0 1-.203.369q-.115.152-.28.253a.74.74 0 0 1-.393.102.57.57 0 0 1-.419-.165q-.165-.165-.267-.419a3 3 0 0 1-.152-.584q-.037-.33-.063-.635a14 14 0 0 1-.013-.571q.012-.267.013-.419v-.597q0-.482-.026-.952a35 35 0 0 1-.012-.94v-.647q.012-.393.101-.761.09-.381.292-.648.203-.267.597-.267.177 0 .317.115.14.114.241.279.115.165.178.356.076.189.114.33.127-.178.292-.343.178-.166.394-.292a2.07 2.07 0 0 1 1.092-.28q.647 0 1.003.318.368.305.533.774.177.458.216.99.038.534.038.965 0 .216-.038.648-.039.419-.127.94-.076.508-.216 1.053a7 7 0 0 1-.33.977q-.191.445-.457.724-.254.28-.584.28m7.173-5.23a.7.7 0 0 1-.05.267q-.115.292-.357.495a.9.9 0 0 1-.57.19q-.496 0-.674-.495a.4.4 0 0 1-.025-.14q0-.088-.013-.177v-.368a.7.7 0 0 0-.089-.28q-.063-.1-.216-.101-.215 0-.419.279a3 3 0 0 0-.342.647q-.14.369-.229.762-.089.394-.089.635 0 .19.026.47.025.265.101.52t.203.444a.43.43 0 0 0 .356.178.66.66 0 0 0 .393-.127q.19-.14.369-.317.165-.152.355-.317a.7.7 0 0 1 .457-.166q.318 0 .495.229a.8.8 0 0 1 .19.52q0 .432-.228.813a2.6 2.6 0 0 1-.571.647 2.8 2.8 0 0 1-.762.42 2.2 2.2 0 0 1-.8.164q-.685 0-1.168-.342a2.7 2.7 0 0 1-.761-.864 4.1 4.1 0 0 1-.42-1.155 6 6 0 0 1-.126-1.18q0-.648.177-1.397.178-.762.546-1.41.369-.645.94-1.078.584-.432 1.384-.432.495 0 .85.216.368.216.597.571.241.343.355.774.127.432.127.851v.127a.6.6 0 0 1-.012.127m5.116.127a.9.9 0 0 1-.305-.025l-.254-.102a3 3 0 0 0-.228-.089.5.5 0 0 0-.254-.038.94.94 0 0 0-.457.14 1.8 1.8 0 0 0-.356.317q-.152.19-.266.432a2.5 2.5 0 0 0-.178.457 3 3 0 0 0-.063.47 16 16 0 0 0-.013.66q-.013.368-.013.698t-.025.52q-.013.204-.064.483a2 2 0 0 1-.165.508 1.2 1.2 0 0 1-.28.406.65.65 0 0 1-.456.165.6.6 0 0 1-.381-.127 1.2 1.2 0 0 1-.267-.33 3 3 0 0 1-.177-.495 6 6 0 0 1-.102-.572 15 15 0 0 1-.063-.609l-.026-.571v-.508q.013-.228.013-.368a16 16 0 0 0-.05-.889 16 16 0 0 1-.026-.901q0-.28.025-.622a2.2 2.2 0 0 1 .14-.635q.114-.304.33-.508.229-.203.622-.203.216 0 .368.14.153.14.241.342.102.204.153.432.05.228.063.419.305-.495.686-.8.381-.317.99-.343a2 2 0 0 1 .597.064q.305.063.545.228.255.152.407.407.165.254.178.596.025.407-.242.622-.266.216-.647.229m6.398 2.488q0 .432-.279.85-.267.408-.686.737-.405.318-.876.52-.469.191-.863.191-.672 0-1.206-.33a3.2 3.2 0 0 1-.876-.863 4.2 4.2 0 0 1-.546-1.143 4.6 4.6 0 0 1-.178-1.231q0-.634.178-1.359.178-.724.533-1.333.368-.61.915-1.015.558-.407 1.32-.407.432 0 .825.153a2 2 0 0 1 1.155 1.04q.178.369.178.826 0 .597-.254 1.117-.254.521-.673.901-.418.381-.965.623a3.3 3.3 0 0 1-1.117.253q.05.369.292.534.254.165.597.165.254 0 .495-.127.24-.127.47-.28.228-.165.444-.291a.93.93 0 0 1 .457-.127q.255 0 .457.165a.53.53 0 0 1 .203.431m-2.056-3.11q0-.165-.09-.343a.29.29 0 0 0-.279-.178.73.73 0 0 0-.47.153 1.1 1.1 0 0 0-.317.368 2 2 0 0 0-.203.47q-.063.253-.076.47.178-.039.419-.102.255-.064.47-.165.228-.114.38-.28a.54.54 0 0 0 .166-.393m7.96 3.58q0 .228-.026.597a3.5 3.5 0 0 1-.101.723q-.09.343-.28.597a.63.63 0 0 1-.533.254q-.47 0-.724-.305t-.24-.761q-.407.355-.928.558a2.8 2.8 0 0 1-1.04.203q-.369 0-.699-.178a2.2 2.2 0 0 1-.584-.457 2.3 2.3 0 0 1-.406-.622 1.8 1.8 0 0 1-.152-.698q0-.61.368-1.066a3.5 3.5 0 0 1 .927-.775q.546-.33 1.155-.52a7 7 0 0 1 1.104-.254v-.114a.5.5 0 0 0 .013-.115q0-.394-.216-.634-.216-.242-.61-.242a1.2 1.2 0 0 0-.545.115 2.7 2.7 0 0 0-.432.24q-.202.128-.406.242a1 1 0 0 1-.457.102.7.7 0 0 1-.482-.178.6.6 0 0 1-.19-.457q0-.42.24-.762a2.2 2.2 0 0 1 .623-.571q.38-.242.812-.368a2.7 2.7 0 0 1 .813-.14q.343 0 .685.089.343.075.648.254.305.165.545.419.255.24.407.571.228.47.368 1.003.14.52.216 1.08.075.544.101 1.104.026.546.026 1.066m-2.032-.406-.038-.864h-.05a.1.1 0 0 0-.051-.012q-.165 0-.42.089-.24.076-.469.228a2 2 0 0 0-.393.318.56.56 0 0 0-.153.368q0 .178.127.24a.64.64 0 0 0 .292.064q.279 0 .597-.14.317-.15.558-.291m6.513-4.786q0 .368-.254.545-.24.178-.546.343-.305.152-.558.368-.242.216-.242.648 0 .228.102.393.114.165.267.305.165.127.355.267t.343.317q.165.178.266.432.115.253.115.622 0 .533-.28 1.053-.266.51-.698.915-.419.394-.952.634-.533.242-1.054.242a2.5 2.5 0 0 1-.431-.038 1.2 1.2 0 0 1-.394-.115.85.85 0 0 1-.28-.241.72.72 0 0 1-.114-.419q0-.355.14-.546a1 1 0 0 1 .356-.317q.216-.115.457-.178a3.4 3.4 0 0 0 .47-.152q.215-.102.355-.254t.14-.432q0-.267-.216-.546a11 11 0 0 0-.457-.61 7 7 0 0 1-.47-.697 1.65 1.65 0 0 1-.203-.813q0-.546.216-1.003.228-.47.596-.812.381-.343.864-.534.482-.203 1.015-.203.204 0 .394.038a1 1 0 0 1 .355.14q.153.09.242.254a.7.7 0 0 1 .101.394m9.382 3.199q0 .559-.127 1.231-.114.66-.406 1.232-.279.57-.75.952-.457.38-1.155.38-.176 0-.368-.025a1.8 1.8 0 0 1-.368-.089 1.3 1.3 0 0 1-.305-.165.75.75 0 0 1-.216-.292l-.114 1.828q-.012.293-.025.699a3 3 0 0 1-.102.774q-.089.369-.317.622-.216.267-.635.267-.24 0-.406-.254a2 2 0 0 1-.267-.622 7 7 0 0 1-.14-.85 12 12 0 0 1-.063-.902q-.012-.432-.013-.787v-.52q0-.851-.012-1.69-.013-.85-.013-1.7v-.47q0-.33.025-.711t.077-.787q.063-.406.177-.736.115-.343.292-.546a.54.54 0 0 1 .432-.216q.165 0 .292.101.14.09.229.242.1.14.165.304.063.165.101.305.394-.444.901-.673a2.7 2.7 0 0 1 1.105-.228q.609 0 .99.342.394.343.61.851.228.507.317 1.092.09.571.089 1.04m-1.816-.102q0-.19-.038-.38a1 1 0 0 0-.114-.369.6.6 0 0 0-.228-.28.6.6 0 0 0-.381-.113q-.305 0-.648.203a1.4 1.4 0 0 0-.495.444q-.064.102-.076.33a7 7 0 0 0-.013.343v.241l.051.584a.8.8 0 0 0 .063.216q.038.114.166.216.126.088.279.165.152.076.305.114.165.038.279.038a.53.53 0 0 0 .431-.203q.165-.203.254-.482a2.2 2.2 0 0 0 .127-.572q.038-.305.038-.495m7.986 2.095q0 .228-.026.597a3.5 3.5 0 0 1-.101.723q-.09.343-.28.597a.63.63 0 0 1-.533.254q-.47 0-.723-.305-.254-.305-.242-.761-.406.355-.926.558a2.8 2.8 0 0 1-1.041.203q-.368 0-.698-.178a2.2 2.2 0 0 1-.584-.457 2.3 2.3 0 0 1-.407-.622 1.8 1.8 0 0 1-.152-.698q0-.61.368-1.066a3.5 3.5 0 0 1 .927-.775q.546-.33 1.155-.52a7 7 0 0 1 1.105-.254v-.114a.5.5 0 0 0 .012-.115q0-.394-.216-.634-.215-.242-.609-.242a1.2 1.2 0 0 0-.546.115 2.7 2.7 0 0 0-.431.24q-.203.128-.407.242a1 1 0 0 1-.457.102.7.7 0 0 1-.482-.178.6.6 0 0 1-.19-.457q0-.42.24-.762a2.2 2.2 0 0 1 .623-.571q.38-.242.812-.368a2.7 2.7 0 0 1 .813-.14q.342 0 .685.089.344.075.648.254.305.165.546.419.253.24.406.571.228.47.368 1.003.14.52.216 1.08.075.544.101 1.104.026.546.026 1.066m-2.031-.406-.039-.864h-.05a.1.1 0 0 0-.051-.012q-.165 0-.42.089-.24.076-.469.228a2 2 0 0 0-.393.318.56.56 0 0 0-.153.368q0 .178.127.24a.64.64 0 0 0 .292.064q.279 0 .597-.14.318-.15.559-.291m7.198-2.552a.9.9 0 0 1-.305-.025l-.254-.102a3 3 0 0 0-.228-.089.5.5 0 0 0-.254-.038.94.94 0 0 0-.457.14q-.19.126-.356.317-.152.19-.266.432a2.5 2.5 0 0 0-.178.457 3 3 0 0 0-.064.47q-.012.304-.012.66-.013.368-.013.698t-.025.52a4 4 0 0 1-.064.483 2 2 0 0 1-.165.508q-.101.24-.28.406a.65.65 0 0 1-.456.165.6.6 0 0 1-.381-.127 1.2 1.2 0 0 1-.267-.33 3 3 0 0 1-.177-.495 6 6 0 0 1-.102-.572 15 15 0 0 1-.063-.609l-.026-.571v-.508q.013-.228.013-.368a16 16 0 0 0-.05-.889 16 16 0 0 1-.026-.901q0-.28.025-.622a2.2 2.2 0 0 1 .14-.635q.114-.304.33-.508.228-.203.622-.203.216 0 .368.14.153.14.241.342.102.204.153.432.05.228.063.419.305-.495.686-.8.381-.317.99-.343a2 2 0 0 1 .597.064q.305.063.545.228.255.152.407.407.165.254.177.596.026.407-.24.622-.267.216-.648.229m6.474 2.958q0 .228-.025.597a3.5 3.5 0 0 1-.102.723q-.089.343-.279.597a.63.63 0 0 1-.533.254q-.47 0-.724-.305t-.24-.761q-.407.355-.928.558a2.8 2.8 0 0 1-1.04.203q-.369 0-.699-.178a2.2 2.2 0 0 1-.584-.457 2.3 2.3 0 0 1-.406-.622 1.8 1.8 0 0 1-.153-.698q0-.61.369-1.066a3.5 3.5 0 0 1 .926-.775q.547-.33 1.156-.52a7 7 0 0 1 1.104-.254v-.114a.5.5 0 0 0 .013-.115q0-.394-.216-.634-.216-.242-.61-.242a1.2 1.2 0 0 0-.545.115 2.7 2.7 0 0 0-.432.24q-.202.128-.406.242a1 1 0 0 1-.457.102.7.7 0 0 1-.483-.178.6.6 0 0 1-.19-.457q0-.42.241-.762.255-.343.622-.571.381-.242.813-.368a2.7 2.7 0 0 1 .812-.14q.343 0 .686.089.342.075.647.254.305.165.546.419.255.24.406.571.23.47.369 1.003.14.52.215 1.08.077.544.102 1.104.025.546.025 1.066m-2.03-.406-.039-.864h-.05a.1.1 0 0 0-.052-.012q-.165 0-.418.089-.242.076-.47.228a2 2 0 0 0-.394.318.56.56 0 0 0-.152.368q0 .178.127.24a.64.64 0 0 0 .292.064q.279 0 .597-.14.317-.15.558-.291m11.323-6.157q0 .925-.076 1.84-.063.914-.063 1.841 0 .75.038 1.485.05.736.05 1.486 0 .203-.012.495a2.4 2.4 0 0 1-.089.546 1.06 1.06 0 0 1-.228.457q-.153.19-.445.19a.82.82 0 0 1-.635-.279 1.4 1.4 0 0 1-.304-.648q-.242.457-.699.775a1.7 1.7 0 0 1-.99.317q-.57 0-.99-.393-.406-.394-.686-.952a5.6 5.6 0 0 1-.406-1.168 5.3 5.3 0 0 1-.127-1.054 8 8 0 0 1 .165-1.549q.102-.42.254-.812.153-.406.381-.724.24-.317.559-.508.33-.19.749-.19.456 0 .876.266.418.267.634.66l.115-2.018q.011-.24.038-.559.025-.33.101-.622.09-.292.267-.495t.52-.203q.368 0 .572.178.203.177.292.457.1.266.114.584.025.316.025.597m-2.069 5.636q0-.291-.013-.571a7 7 0 0 1 0-.571q-.076-.165-.177-.356a1.6 1.6 0 0 0-.254-.368 1.3 1.3 0 0 0-.318-.292.7.7 0 0 0-.38-.114.5.5 0 0 0-.369.14.8.8 0 0 0-.203.342 2 2 0 0 0-.089.42 7 7 0 0 0-.012.393q0 .152.025.457.025.291.089.596.075.305.203.534.127.228.343.228.165 0 .33-.063.165-.076.305-.178.151-.114.279-.241.14-.14.241-.254zm8.227.457q0 .432-.28.85-.266.408-.685.737a4 4 0 0 1-.876.52q-.47.191-.864.191-.672 0-1.206-.33a3.2 3.2 0 0 1-.876-.863 4.2 4.2 0 0 1-.545-1.143 4.6 4.6 0 0 1-.178-1.231q0-.634.178-1.359.177-.724.533-1.333.368-.61.914-1.015.558-.407 1.32-.407.432 0 .825.153a2 2 0 0 1 1.156 1.04q.177.369.177.826 0 .597-.254 1.117a3 3 0 0 1-.672.901q-.42.381-.965.623a3.3 3.3 0 0 1-1.117.253q.05.369.292.534.254.165.596.165.254 0 .495-.127a5 5 0 0 0 .47-.28q.229-.165.444-.291a.94.94 0 0 1 .457-.127q.255 0 .457.165.204.165.204.431m-2.057-3.11a.8.8 0 0 0-.089-.343.29.29 0 0 0-.279-.178.73.73 0 0 0-.47.153 1.1 1.1 0 0 0-.317.368q-.128.215-.203.47-.064.253-.077.47.179-.039.419-.102.255-.064.47-.165.228-.114.381-.28a.54.54 0 0 0 .165-.393m11.438 1.587q0 .559-.127 1.231-.114.66-.406 1.232-.28.57-.749.952-.457.38-1.155.38-.178 0-.368-.025a1.8 1.8 0 0 1-.368-.089 1.3 1.3 0 0 1-.305-.165.76.76 0 0 1-.216-.292l-.114 1.828q-.013.293-.026.699 0 .406-.101.774a1.4 1.4 0 0 1-.318.622q-.215.267-.634.267-.242 0-.407-.254a2 2 0 0 1-.266-.622 7 7 0 0 1-.14-.85 11 11 0 0 1-.063-.902q-.013-.432-.013-.787v-.52q0-.851-.013-1.69-.012-.85-.012-1.7v-.47q0-.33.025-.711t.076-.787q.064-.406.178-.736.114-.343.292-.546a.54.54 0 0 1 .432-.216q.165 0 .292.101.14.09.228.242a1.3 1.3 0 0 1 .165.304q.063.165.102.305.394-.444.901-.673a2.7 2.7 0 0 1 1.105-.228q.609 0 .99.342.393.343.609.851.229.507.318 1.092.088.571.088 1.04m-1.815-.102q0-.19-.038-.38a1 1 0 0 0-.114-.369.6.6 0 0 0-.229-.28.6.6 0 0 0-.381-.113q-.305 0-.647.203-.33.19-.495.444-.064.102-.076.33a6 6 0 0 0-.013.343v.241l.025.292.026.292a1 1 0 0 0 .063.216q.037.114.165.216.128.088.279.165.153.076.305.114.165.038.279.038a.53.53 0 0 0 .432-.203q.165-.203.254-.482.102-.28.127-.572a4 4 0 0 0 .038-.495m6.995-.863a.9.9 0 0 1-.305-.025l-.253-.102a3 3 0 0 0-.229-.089.5.5 0 0 0-.254-.038.94.94 0 0 0-.457.14q-.19.126-.355.317-.153.19-.267.432a2.6 2.6 0 0 0-.178.457 3 3 0 0 0-.063.47q-.013.304-.013.66a22 22 0 0 0-.013.698q0 .33-.025.52-.013.204-.063.483a2 2 0 0 1-.166.508q-.1.24-.279.406a.65.65 0 0 1-.457.165.6.6 0 0 1-.381-.127 1.2 1.2 0 0 1-.266-.33 3 3 0 0 1-.178-.495 7 7 0 0 1-.102-.572 16 16 0 0 1-.063-.609l-.025-.571v-.508q.012-.228.012-.368a15 15 0 0 0-.051-.889 17 17 0 0 1-.025-.901q0-.28.025-.622a2.2 2.2 0 0 1 .14-.635 1.3 1.3 0 0 1 .33-.508q.23-.203.622-.203.216 0 .368.14.153.14.242.342.1.204.152.432t.063.419q.305-.495.686-.8.381-.317.99-.343.304-.012.597.064.305.063.546.228.253.152.406.407.165.254.178.596.025.407-.241.622-.267.216-.648.229m3.491 5.116q-.647 0-1.13-.343a3 3 0 0 1-.812-.876 4.2 4.2 0 0 1-.495-1.18 5.3 5.3 0 0 1-.165-1.295q0-.673.165-1.384a4.6 4.6 0 0 1 .508-1.308q.342-.596.876-.964.533-.381 1.269-.381.711 0 1.206.393.508.381.813.965.305.571.431 1.257.128.686.089 1.295a7 7 0 0 1-.216 1.358q-.165.686-.495 1.232t-.838.888q-.507.343-1.206.343m.127-5.738q-.19 0-.343.203a2 2 0 0 0-.241.495 4.4 4.4 0 0 0-.139.622 3.6 3.6 0 0 0-.051.559q0 .304.051.66.063.355.165.66.101.293.241.495.152.19.343.19.203 0 .342-.19.153-.19.242-.482.088-.293.127-.635.038-.355.038-.66 0-.28-.051-.61a3.6 3.6 0 0 0-.152-.634 1.4 1.4 0 0 0-.242-.483q-.14-.19-.33-.19m8.747-2.983q0 .925-.076 1.84-.063.914-.063 1.841 0 .75.038 1.485.051.736.051 1.486 0 .203-.013.495a2.4 2.4 0 0 1-.089.546q-.063.267-.229.457-.152.19-.444.19a.82.82 0 0 1-.635-.279 1.4 1.4 0 0 1-.304-.648 2.2 2.2 0 0 1-.699.775 1.7 1.7 0 0 1-.99.317q-.572 0-.99-.393a3.5 3.5 0 0 1-.686-.952 5.3 5.3 0 0 1-.533-2.222 8 8 0 0 1 .165-1.549q.102-.42.254-.812.153-.406.381-.724.241-.317.559-.508.33-.19.749-.19.456 0 .876.266.419.267.634.66l.115-2.018q.012-.24.038-.559.026-.33.101-.622.09-.292.267-.495t.52-.203q.369 0 .572.178.202.177.292.457.1.266.114.584.025.316.025.597m-2.069 5.636q0-.291-.013-.571a7 7 0 0 1 0-.571q-.076-.165-.177-.356a1.6 1.6 0 0 0-.254-.368 1.3 1.3 0 0 0-.318-.292.7.7 0 0 0-.381-.114.5.5 0 0 0-.368.14.8.8 0 0 0-.203.342 2 2 0 0 0-.089.42 8 8 0 0 0-.012.393 6 6 0 0 0 .114 1.053q.076.305.203.534.127.228.343.228.165 0 .33-.063.165-.076.304-.178a3 3 0 0 0 .28-.241 6 6 0 0 0 .241-.254zm8.468-.914q0 .699-.14 1.384a3.8 3.8 0 0 1-.47 1.231q-.33.534-.888.864-.546.33-1.371.33-.813 0-1.359-.318a2.6 2.6 0 0 1-.876-.863 3.9 3.9 0 0 1-.457-1.206 7.4 7.4 0 0 1-.127-1.371q0-.763.178-1.51.038-.204.14-.56.114-.368.279-.71a3 3 0 0 1 .394-.61q.228-.254.495-.254.253 0 .406.14a1 1 0 0 1 .241.356 1.5 1.5 0 0 1 .114.444q.026.228.026.419 0 .291-.051.571-.038.279-.089.559l-.101.761a7.5 7.5 0 0 0-.026 1.194q.025.228.102.444.075.216.216.368.14.14.393.14.33 0 .521-.178.202-.178.292-.444.101-.267.127-.572a7.2 7.2 0 0 0-.051-1.65 41 41 0 0 1-.14-1.104 1.2 1.2 0 0 1 .051-.559 1.2 1.2 0 0 1 .178-.343.85.85 0 0 1 .279-.24.7.7 0 0 1 .368-.102q.279 0 .495.203.216.19.356.507.152.305.241.699.101.381.152.761.064.369.076.699.026.33.026.52m6.474 2.438q0 .254-.215.444a2 2 0 0 1-.534.343 3.7 3.7 0 0 1-.736.254 9.3 9.3 0 0 1-1.561.254 6 6 0 0 1-.572.038q-.216 0-.609-.013a4 4 0 0 1-.762-.102 1.9 1.9 0 0 1-.66-.253.6.6 0 0 1-.279-.521q0-.255.177-.622.178-.368.457-.8.28-.432.623-.876.342-.458.672-.876.33-.42.622-.762.292-.354.457-.584a9 9 0 0 0-.457.115q-.266.063-.558.127-.292.063-.571.114a3 3 0 0 1-.457.038q-.153 0-.343-.05a2 2 0 0 1-.368-.166 1.3 1.3 0 0 1-.292-.241.48.48 0 0 1-.115-.317q0-.229.203-.42.204-.202.534-.355.33-.165.736-.28.406-.126.8-.202a6.6 6.6 0 0 1 1.32-.165q.242 0 .584.05.344.052.66.178.33.128.559.343a.72.72 0 0 1 .228.546.7.7 0 0 1-.025.19 2 2 0 0 1-.038.178q-.025.09-.229.406-.19.305-.482.737-.28.419-.622.914-.33.482-.635.914a95 95 0 0 0-.838 1.206q.52-.14 1.054-.229a6 6 0 0 1 1.079-.101q.127 0 .33.012t.394.077a.9.9 0 0 1 .33.165.34.34 0 0 1 .139.292m2.349-7.668a.53.53 0 0 1-.102.317 1 1 0 0 1-.241.254 1.5 1.5 0 0 1-.33.165 1.2 1.2 0 0 1-.33.05.8.8 0 0 1-.444-.126q-.19-.127-.191-.394 0-.19.089-.33a.8.8 0 0 1 .241-.241q.14-.102.318-.152.177-.051.343-.051.24 0 .444.114.203.114.203.394m.102 4.316v.38q0 .191-.013.37a10 10 0 0 0-.013.583q0 .355-.025.775-.026.418-.089.85a3.6 3.6 0 0 1-.178.787 1.6 1.6 0 0 1-.343.584.72.72 0 0 1-.52.229.47.47 0 0 1-.406-.19 1.8 1.8 0 0 1-.28-.521 4.5 4.5 0 0 1-.152-.724q-.05-.406-.076-.774a11 11 0 0 1-.026-.699v-1.04q0-.382.026-.813.025-.432.089-.876.076-.444.203-.812.14-.369.355-.597a.72.72 0 0 1 .546-.229q.343 0 .521.343.177.343.266.8t.102.914q.013.444.013.66m5.306-.203a.9.9 0 0 1-.304-.025l-.254-.102a3 3 0 0 0-.229-.089.5.5 0 0 0-.254-.038.94.94 0 0 0-.457.14q-.19.126-.355.317-.153.19-.267.432a2.6 2.6 0 0 0-.178.457 3 3 0 0 0-.063.47q-.013.304-.013.66-.012.368-.012.698t-.026.52q-.013.204-.063.483a2 2 0 0 1-.165.508 1.2 1.2 0 0 1-.28.406.65.65 0 0 1-.457.165.6.6 0 0 1-.381-.127 1.2 1.2 0 0 1-.266-.33 3 3 0 0 1-.178-.495 6 6 0 0 1-.101-.572 14 14 0 0 1-.064-.609l-.025-.571v-.508q.012-.228.012-.368a16 16 0 0 0-.05-.889 16 16 0 0 1-.026-.901q0-.28.026-.622.024-.343.139-.635a1.3 1.3 0 0 1 .33-.508q.23-.203.622-.203.216 0 .369.14.151.14.241.342.1.204.152.432.05.228.064.419.304-.495.685-.8.381-.317.99-.343.304-.012.597.064.305.063.546.228.254.152.406.407.165.254.178.596.025.407-.241.622-.267.216-.648.229m6.234-4.113a.53.53 0 0 1-.102.317 1 1 0 0 1-.241.254 1.5 1.5 0 0 1-.33.165 1.2 1.2 0 0 1-.33.05.8.8 0 0 1-.445-.126q-.19-.127-.19-.394 0-.19.089-.33a.8.8 0 0 1 .241-.241q.14-.102.317-.152.178-.051.343-.051.242 0 .444.114.204.114.204.394m.101 4.316v.38q0 .191-.013.37-.012.215-.012.583 0 .355-.026.775-.025.418-.088.85-.052.432-.178.787a1.65 1.65 0 0 1-.343.584.73.73 0 0 1-.52.229.47.47 0 0 1-.407-.19 1.8 1.8 0 0 1-.279-.521 4.3 4.3 0 0 1-.152-.724 11 11 0 0 1-.102-1.473v-1.04q0-.382.025-.813.026-.432.089-.876.077-.444.203-.812.14-.369.356-.597a.72.72 0 0 1 .546-.229q.343 0 .52.343.178.343.267.8t.101.914q.013.444.013.66m4.507 4.9q-.216 0-.343-.203a1.4 1.4 0 0 1-.19-.444 3.5 3.5 0 0 1-.089-.508 9 9 0 0 1-.013-.406q0-.381.038-.762l.102-.761q.063-.381.101-.762.051-.381.051-.762 0-.153-.012-.33a1.4 1.4 0 0 0-.064-.33.53.53 0 0 0-.14-.267.36.36 0 0 0-.266-.101q-.114 0-.254.19a3 3 0 0 0-.267.42 5 5 0 0 0-.203.469 1.2 1.2 0 0 0-.076.343v.57q.013.28.013.572v.736q-.013.23-.038.47-.026.242-.077.47-.037.228-.114.444a1.4 1.4 0 0 1-.203.369 1 1 0 0 1-.279.253.74.74 0 0 1-.394.102.57.57 0 0 1-.419-.165q-.165-.165-.266-.419a3 3 0 0 1-.153-.584q-.037-.33-.063-.635a14 14 0 0 1-.013-.571q.013-.267.013-.419v-.597q0-.482-.026-.952a37 37 0 0 1-.012-.94v-.647a3.7 3.7 0 0 1 .101-.761q.09-.381.292-.648.204-.267.597-.267.177 0 .317.115.14.114.242.279.114.165.177.356.076.189.115.33.126-.178.292-.343.177-.166.393-.292a2.07 2.07 0 0 1 1.092-.28q.648 0 1.003.318.368.305.533.774.178.458.216.99.038.534.038.965 0 .216-.038.648-.039.419-.127.94a11 11 0 0 1-.216 1.053 7 7 0 0 1-.33.977 2.4 2.4 0 0 1-.457.724q-.254.28-.584.28m6.183-7.337q0 .368-.254.545a5 5 0 0 1-.546.343 2.8 2.8 0 0 0-.559.368q-.241.216-.241.648 0 .228.102.393.114.165.266.305.165.127.356.267t.342.317q.165.178.267.432.114.253.114.622 0 .533-.279 1.053-.266.51-.698.915-.42.394-.952.634-.534.242-1.054.242-.216 0-.432-.038a1.2 1.2 0 0 1-.393-.115.9.9 0 0 1-.28-.241.72.72 0 0 1-.114-.419q0-.355.14-.546a1 1 0 0 1 .355-.317q.216-.115.457-.178.255-.063.47-.152.216-.102.355-.254.14-.153.14-.432 0-.267-.216-.546a11 11 0 0 0-.457-.61 7 7 0 0 1-.469-.697 1.65 1.65 0 0 1-.204-.813q0-.546.216-1.003.229-.47.597-.812.381-.343.863-.534.482-.203 1.016-.203a2 2 0 0 1 .393.038 1 1 0 0 1 .356.14q.152.09.241.254a.7.7 0 0 1 .102.394m6.068 3.351q0 .699-.14 1.384a3.8 3.8 0 0 1-.469 1.231 2.56 2.56 0 0 1-.889.864q-.546.33-1.371.33-.813 0-1.359-.318a2.6 2.6 0 0 1-.876-.863 3.9 3.9 0 0 1-.457-1.206 7.4 7.4 0 0 1-.127-1.371q0-.763.178-1.51.039-.204.14-.56.114-.368.279-.71.178-.355.394-.61.228-.254.495-.254.254 0 .406.14a1 1 0 0 1 .241.356q.09.203.115.444.024.228.025.419 0 .291-.051.571-.038.279-.089.559l-.101.761a7.5 7.5 0 0 0-.026 1.194q.025.228.102.444t.216.368q.14.14.393.14.33 0 .521-.178a1 1 0 0 0 .292-.444q.102-.267.127-.572t.025-.558a8 8 0 0 0-.076-1.092 46 46 0 0 1-.14-1.104 1.2 1.2 0 0 1 .229-.901.85.85 0 0 1 .279-.242.7.7 0 0 1 .368-.102.7.7 0 0 1 .495.204q.216.19.356.507.152.305.241.699.102.381.152.761.064.369.077.699.025.33.025.52m3.148-4.062q0 .685-.063 1.383-.051.687-.051 1.384 0 .902.051 1.803.063.9.063 1.815 0 .23-.025.52-.025.28-.127.521a1 1 0 0 1-.279.407q-.19.165-.508.165-.305 0-.533-.305a2.7 2.7 0 0 1-.368-.749 10 10 0 0 1-.242-1.041q-.088-.571-.139-1.105a71 71 0 0 1-.064-.99 29 29 0 0 1-.012-.673q0-.24.012-.698.026-.457.089-.99t.165-1.08q.114-.558.292-1.002a2.5 2.5 0 0 1 .419-.736q.253-.292.597-.292.28 0 .419.19.151.178.216.444.063.255.076.546.012.279.012.483m3.06-1.168a.53.53 0 0 1-.102.317 1 1 0 0 1-.241.254 1.5 1.5 0 0 1-.33.165 1.2 1.2 0 0 1-.33.05.8.8 0 0 1-.444-.126q-.19-.127-.191-.394 0-.19.089-.33a.8.8 0 0 1 .241-.241q.14-.102.318-.152t.343-.051q.24 0 .444.114.203.114.203.394m.102 4.316v.38q0 .191-.013.37a10 10 0 0 0-.013.583q0 .355-.025.775-.026.418-.089.85a3.6 3.6 0 0 1-.178.787 1.6 1.6 0 0 1-.343.584.73.73 0 0 1-.52.229.47.47 0 0 1-.406-.19 1.8 1.8 0 0 1-.28-.521 4.5 4.5 0 0 1-.152-.724q-.05-.406-.076-.774a11 11 0 0 1-.026-.699v-1.04q0-.382.026-.813.025-.432.089-.876.075-.444.203-.812.14-.369.355-.597a.72.72 0 0 1 .546-.229q.343 0 .521.343.177.343.266.8t.102.914q.013.444.013.66m4.506 4.9q-.215 0-.342-.203a1.4 1.4 0 0 1-.191-.444 4 4 0 0 1-.089-.508 7.5 7.5 0 0 1 .026-1.168l.101-.761q.064-.381.102-.762.051-.381.051-.762 0-.153-.013-.33a1.4 1.4 0 0 0-.064-.33.53.53 0 0 0-.139-.267.36.36 0 0 0-.267-.101q-.114 0-.254.19a2.7 2.7 0 0 0-.266.42 5 5 0 0 0-.203.469 1.2 1.2 0 0 0-.077.343v.57q.013.28.013.572v.736a9 9 0 0 1-.038.47q-.025.242-.076.47-.039.228-.114.444a1.4 1.4 0 0 1-.204.369 1 1 0 0 1-.279.253.74.74 0 0 1-.393.102.57.57 0 0 1-.419-.165q-.165-.165-.267-.419a3 3 0 0 1-.152-.584 19 19 0 0 1-.064-.635 15 15 0 0 1-.012-.571 10 10 0 0 0 .012-.419v-.597q0-.482-.025-.952a33 33 0 0 1-.013-.94v-.647a3.7 3.7 0 0 1 .102-.761q.088-.381.292-.648t.596-.267q.178 0 .318.115.14.114.241.279.114.165.178.356.076.189.114.33.127-.178.292-.343.178-.166.394-.292.215-.127.482-.203t.609-.077q.648 0 1.003.318.369.305.533.774.178.458.216.99.039.534.038.965 0 .216-.038.648-.037.419-.127.94-.075.508-.216 1.053a7 7 0 0 1-.33.977 2.4 2.4 0 0 1-.457.724q-.254.28-.584.28m7.859-2.145q0 .228-.026.597a3.5 3.5 0 0 1-.101.723 1.7 1.7 0 0 1-.279.597.63.63 0 0 1-.534.254q-.47 0-.723-.305-.255-.305-.241-.761-.406.355-.927.558a2.8 2.8 0 0 1-1.041.203q-.368 0-.699-.178a2.2 2.2 0 0 1-.583-.457 2.3 2.3 0 0 1-.407-.622 1.8 1.8 0 0 1-.152-.698q0-.61.368-1.066.381-.457.927-.775.546-.33 1.155-.52a7 7 0 0 1 1.105-.254v-.114a.5.5 0 0 0 .012-.115q0-.394-.216-.634-.215-.242-.609-.242-.317 0-.546.115a2.7 2.7 0 0 0-.431.24q-.203.128-.407.242a1 1 0 0 1-.457.102.7.7 0 0 1-.482-.178.6.6 0 0 1-.191-.457q0-.42.242-.762.253-.343.622-.571.38-.242.812-.368a2.7 2.7 0 0 1 .813-.14q.343 0 .685.089.344.075.648.254.304.165.546.419.253.24.406.571.228.47.368 1.003.14.52.216 1.08.076.544.101 1.104.026.546.026 1.066m-2.031-.406-.039-.864h-.05a.1.1 0 0 0-.051-.012q-.165 0-.419.089-.241.076-.47.228a2 2 0 0 0-.393.318.56.56 0 0 0-.153.368q0 .178.127.24a.65.65 0 0 0 .292.064q.279 0 .597-.14a8 8 0 0 0 .559-.291M74.177 69.125a.7.7 0 0 1-.05.267q-.115.292-.356.495a.9.9 0 0 1-.571.19q-.496 0-.673-.495a.4.4 0 0 1-.026-.14q0-.088-.012-.177v-.368a.7.7 0 0 0-.09-.28q-.062-.101-.215-.101-.216 0-.419.279a3 3 0 0 0-.343.647q-.14.369-.228.762-.09.394-.089.635 0 .19.025.47.025.265.102.52.075.255.203.444a.43.43 0 0 0 .355.178.66.66 0 0 0 .394-.127 3 3 0 0 0 .368-.317q.165-.153.356-.318a.7.7 0 0 1 .457-.165q.317 0 .495.229.19.228.19.52 0 .432-.228.813a2.6 2.6 0 0 1-.572.647 2.8 2.8 0 0 1-.761.42 2.2 2.2 0 0 1-.8.164q-.685 0-1.168-.342a2.7 2.7 0 0 1-.762-.864 4.1 4.1 0 0 1-.419-1.155 6 6 0 0 1-.127-1.18q0-.648.178-1.397.178-.762.546-1.41.369-.645.94-1.078.583-.432 1.383-.432.495 0 .85.216.369.216.597.571.242.343.356.775.127.43.127.85v.127a.6.6 0 0 1-.013.127m3.123 5.243a1.9 1.9 0 0 1-1.13-.343 3 3 0 0 1-.812-.876 4.2 4.2 0 0 1-.495-1.18 5.3 5.3 0 0 1-.165-1.295q0-.673.165-1.384.165-.723.508-1.308.342-.596.876-.964.532-.381 1.27-.381.71 0 1.205.393.509.381.813.965.305.572.431 1.257.127.686.09 1.295a7 7 0 0 1-.217 1.358q-.165.686-.495 1.232t-.838.888-1.206.343m.127-5.738q-.19 0-.343.203-.14.203-.24.495-.09.292-.14.622-.051.318-.051.559 0 .305.05.66.064.355.166.66.101.293.24.495.153.19.344.19.203 0 .342-.19.153-.19.242-.482.088-.292.127-.635a6 6 0 0 0 .038-.66q0-.28-.051-.61a3.5 3.5 0 0 0-.152-.634 1.4 1.4 0 0 0-.242-.483q-.14-.19-.33-.19m10.982 1.18v.66q0 .407-.026.89a10 10 0 0 1-.076.977q-.063.483-.203.876a2 2 0 0 1-.33.647.64.64 0 0 1-.52.254.49.49 0 0 1-.432-.228 1.8 1.8 0 0 1-.203-.559 4 4 0 0 1-.076-.647v-.52q0-.573.038-1.118t.038-1.117v-.229q0-.165-.026-.33a1 1 0 0 0-.089-.292q-.051-.127-.165-.127-.228 0-.368.242a2.2 2.2 0 0 0-.228.545 4 4 0 0 0-.127.635q-.039.305-.051.457-.026.165-.05.495-.014.33-.052.724a7 7 0 0 1-.101.812q-.064.406-.178.75-.102.33-.266.545a.5.5 0 0 1-.407.216.52.52 0 0 1-.47-.266 2 2 0 0 1-.24-.623 5 5 0 0 1-.102-.723 18 18 0 0 1-.013-.571v-.42q.012-.202.013-.418v-.292a9 9 0 0 0-.013-.445q0-.253-.025-.52a4 4 0 0 0-.051-.483 1.2 1.2 0 0 0-.114-.368q-.076-.14-.178-.14-.165 0-.305.216-.14.203-.241.496a5 5 0 0 0-.165.558q-.05.28-.05.406v.077q0 .61.075 1.193.076.585.076 1.193 0 .355-.228.66-.228.292-.635.292a.62.62 0 0 1-.482-.215 1.9 1.9 0 0 1-.318-.584 5 5 0 0 1-.203-.775 10 10 0 0 1-.089-.838q-.025-.419-.038-.749v-.507q0-.191-.012-.56 0-.367.012-.799.026-.432.076-.876.052-.458.166-.825a1.9 1.9 0 0 1 .292-.597.59.59 0 0 1 .482-.241q.33 0 .533.178.216.177.216.533 0 .076-.013.152 0 .077-.012.14.14-.202.342-.406.204-.216.432-.381.24-.178.508-.28.266-.114.533-.114.255 0 .457.14.203.14.355.355.153.204.254.445.102.24.14.457a3.6 3.6 0 0 1 .305-.457q.19-.24.406-.42.216-.177.47-.291.267-.114.546-.114.266 0 .457.19.19.19.33.495.14.292.216.673.076.367.126.736.052.356.064.673.013.305.013.483m3.25 4.558a1.9 1.9 0 0 1-1.13-.343 3 3 0 0 1-.813-.876 4.2 4.2 0 0 1-.495-1.18 5.3 5.3 0 0 1-.165-1.295q0-.673.165-1.384.166-.723.508-1.308.342-.596.876-.964.533-.381 1.27-.381.711 0 1.206.393.507.381.812.965.305.572.432 1.257.126.686.089 1.295a7 7 0 0 1-.216 1.358q-.165.686-.495 1.232t-.838.888-1.206.343m.127-5.738q-.191 0-.343.203-.14.203-.241.495-.09.292-.14.622-.05.318-.05.559 0 .305.05.66.063.355.165.66.102.293.241.495.153.19.343.19.203 0 .343-.19.152-.19.241-.482.09-.292.127-.635a6 6 0 0 0 .038-.66q0-.28-.05-.61a3.5 3.5 0 0 0-.153-.634 1.4 1.4 0 0 0-.241-.483q-.14-.19-.33-.19m11.806-2.983q0 .925-.076 1.84-.063.914-.063 1.841 0 .75.038 1.486.051.736.051 1.485 0 .203-.013.495a2.4 2.4 0 0 1-.089.546q-.064.267-.229.457-.151.19-.444.19a.82.82 0 0 1-.635-.279 1.4 1.4 0 0 1-.304-.647 2.2 2.2 0 0 1-.699.774 1.7 1.7 0 0 1-.99.317q-.57 0-.99-.393-.406-.394-.686-.952a5.6 5.6 0 0 1-.406-1.168 5.3 5.3 0 0 1-.127-1.054 8 8 0 0 1 .165-1.549q.102-.42.254-.812.153-.406.381-.724.24-.317.559-.508.33-.19.749-.19.456 0 .876.266.418.267.634.66l.115-2.018q.012-.24.038-.559.025-.33.101-.622.088-.292.267-.495.177-.203.52-.203.369 0 .572.178.202.177.292.457.1.266.114.584.025.316.025.597m-2.069 5.636q0-.292-.013-.571a7 7 0 0 1 0-.571 8 8 0 0 0-.177-.356 1.6 1.6 0 0 0-.254-.368 1.3 1.3 0 0 0-.318-.292.7.7 0 0 0-.381-.114.5.5 0 0 0-.368.14.8.8 0 0 0-.203.342 2 2 0 0 0-.089.42 7 7 0 0 0-.013.393q0 .152.026.457.025.291.089.596.075.305.203.534.127.228.343.228.165 0 .33-.063.165-.076.304-.178a3 3 0 0 0 .28-.241 6 6 0 0 0 .241-.254zm8.227.457q0 .433-.28.85-.267.407-.685.737a4 4 0 0 1-.876.52q-.47.191-.864.191-.672 0-1.206-.33a3.2 3.2 0 0 1-.876-.863 4.2 4.2 0 0 1-.546-1.143 4.6 4.6 0 0 1-.177-1.231q0-.635.177-1.359a5 5 0 0 1 .534-1.333q.368-.61.914-1.015.558-.407 1.32-.407.432 0 .825.153a2 2 0 0 1 1.156 1.04q.177.369.177.826 0 .597-.254 1.117a3 3 0 0 1-.672.901q-.42.381-.965.623a3.3 3.3 0 0 1-1.118.254q.052.368.292.533.255.165.597.165.253 0 .495-.127a5 5 0 0 0 .47-.28q.228-.165.444-.291a.94.94 0 0 1 .457-.127q.255 0 .457.165.204.165.204.431m-2.057-3.11a.8.8 0 0 0-.089-.343.29.29 0 0 0-.279-.178.73.73 0 0 0-.47.153 1.1 1.1 0 0 0-.317.368q-.127.215-.204.47-.063.254-.076.47.178-.039.419-.102.255-.065.47-.165.228-.114.381-.28a.54.54 0 0 0 .165-.393m8.036.825q-.33.876-.724 1.828a17 17 0 0 1-.85 1.778 3.8 3.8 0 0 1-.622.85q-.343.33-.787.33-.355 0-.699-.355a5.4 5.4 0 0 1-.622-.864 11 11 0 0 1-.495-1.015 20 20 0 0 1-.305-.825 28 28 0 0 0-.228-.737 12 12 0 0 1-.229-.8q-.1-.405-.165-.8a5 5 0 0 1-.063-.761q0-.495.178-.812.177-.318.698-.318a.6.6 0 0 1 .368.127q.165.114.305.33t.266.508q.127.28.242.622.114.33.215.686.102.355.204.685.1.33.203.648.114.305.292.609l.203-.52.241-.623q.14-.33.292-.672.153-.356.33-.686.343-.685.724-1.168.393-.483.774-.482.355 0 .508.215.152.216.152.559t-.114.774a8 8 0 0 1-.292.89m6.17 2.285q0 .433-.279.85-.267.407-.686.737a4 4 0 0 1-.876.52q-.47.191-.863.191-.673 0-1.206-.33a3.2 3.2 0 0 1-.876-.863 4.2 4.2 0 0 1-.546-1.143 4.5 4.5 0 0 1-.178-1.231q0-.635.178-1.359.177-.723.533-1.333.368-.61.914-1.015.56-.407 1.32-.407.432 0 .826.153.393.14.685.406.292.267.47.635.177.368.178.825 0 .597-.254 1.117-.255.521-.673.901a3.6 3.6 0 0 1-.965.623 3.3 3.3 0 0 1-1.117.254q.05.368.292.533.253.165.597.165.254 0 .495-.127.24-.127.469-.28.23-.165.445-.291a.93.93 0 0 1 .457-.127q.253 0 .457.165a.53.53 0 0 1 .203.431m-2.057-3.11a.76.76 0 0 0-.089-.343.29.29 0 0 0-.279-.178.73.73 0 0 0-.47.153 1.1 1.1 0 0 0-.317.368q-.127.215-.203.47-.064.254-.076.47a10 10 0 0 0 .419-.102q.254-.065.469-.165.23-.114.381-.28a.54.54 0 0 0 .165-.393m6.97.622a.9.9 0 0 1-.305-.025l-.254-.102a3 3 0 0 0-.228-.089.5.5 0 0 0-.254-.038.94.94 0 0 0-.457.14 1.8 1.8 0 0 0-.356.317 2.2 2.2 0 0 0-.266.432 2.5 2.5 0 0 0-.178.457 3 3 0 0 0-.063.47q-.013.305-.013.66a22 22 0 0 0-.013.698q0 .33-.025.52-.013.204-.064.483a2 2 0 0 1-.165.508q-.1.24-.279.406a.65.65 0 0 1-.457.165.6.6 0 0 1-.381-.127 1.2 1.2 0 0 1-.266-.33 3 3 0 0 1-.178-.495 7 7 0 0 1-.102-.572 16 16 0 0 1-.063-.609l-.026-.571v-.508a7 7 0 0 0 .013-.368 15 15 0 0 0-.051-.889 16 16 0 0 1-.025-.901q0-.28.025-.622a2.2 2.2 0 0 1 .14-.635 1.3 1.3 0 0 1 .33-.508q.228-.203.622-.203.216 0 .368.14t.242.342q.1.204.152.432t.063.419q.305-.495.686-.8.381-.317.99-.343.305-.012.597.064.304.063.546.228.253.152.406.407.165.254.178.596.025.407-.242.622-.266.216-.647.229m3.174-4.113a.53.53 0 0 1-.102.317 1 1 0 0 1-.241.254 1.5 1.5 0 0 1-.33.165 1.2 1.2 0 0 1-.33.05.8.8 0 0 1-.444-.126q-.19-.127-.191-.394 0-.19.089-.33a.8.8 0 0 1 .241-.241q.14-.102.318-.152a1.2 1.2 0 0 1 .342-.051q.241 0 .445.114.203.114.203.394m.101 4.316v.38q0 .191-.012.37a10 10 0 0 0-.013.583q0 .355-.025.775-.026.418-.089.85a3.6 3.6 0 0 1-.178.787 1.65 1.65 0 0 1-.343.584.73.73 0 0 1-.52.229.47.47 0 0 1-.407-.19 1.8 1.8 0 0 1-.279-.521 4.4 4.4 0 0 1-.152-.724q-.05-.406-.076-.774a11 11 0 0 1-.026-.698v-1.042q0-.38.026-.812t.089-.876q.075-.444.203-.812.14-.369.355-.597a.72.72 0 0 1 .546-.229q.343 0 .521.343.177.343.266.8.088.458.102.914.012.444.012.66m6.297 2.755q0 .228-.025.597a3.5 3.5 0 0 1-.102.723 1.7 1.7 0 0 1-.279.597.63.63 0 0 1-.533.254q-.47 0-.724-.305-.253-.305-.241-.761-.406.355-.927.558a2.8 2.8 0 0 1-1.041.203q-.368 0-.698-.178a2.2 2.2 0 0 1-.584-.457 2.3 2.3 0 0 1-.406-.622 1.8 1.8 0 0 1-.153-.698q0-.61.369-1.066.38-.457.926-.775a5.2 5.2 0 0 1 1.156-.52 7 7 0 0 1 1.104-.254v-.114a.5.5 0 0 0 .013-.115q0-.394-.216-.634-.216-.242-.609-.242-.318 0-.546.115a2.6 2.6 0 0 0-.432.24q-.203.128-.406.242a1 1 0 0 1-.457.102.7.7 0 0 1-.483-.178.6.6 0 0 1-.19-.457q0-.42.241-.762.254-.343.622-.571.381-.242.813-.368.444-.14.812-.14.343 0 .686.089.342.075.647.254.305.165.546.419.254.24.406.571.229.47.369 1.003.14.52.215 1.08.077.544.102 1.104.025.545.025 1.066m-2.031-.406-.038-.864h-.051a.1.1 0 0 0-.051-.012q-.165 0-.419.089-.24.076-.469.228a1.8 1.8 0 0 0-.394.317.56.56 0 0 0-.152.369q0 .178.127.24a.64.64 0 0 0 .292.064q.28 0 .596-.14a8 8 0 0 0 .559-.291m5.167-3.123q0 .203-.025.558-.026.343-.077.75a7 7 0 0 1-.152.812 5.5 5.5 0 0 1-.216.749q-.127.33-.304.546a.53.53 0 0 1-.407.203q-.28 0-.482-.267a2.8 2.8 0 0 1-.33-.698 7 7 0 0 1-.203-.952 15 15 0 0 1-.115-1.016 21 21 0 0 1-.05-.927V67.21q0-.356.025-.749.037-.393.102-.774.075-.395.215-.711.14-.318.369-.508a.83.83 0 0 1 .571-.203q.304 0 .495.266.203.255.317.673.127.407.178.914.064.508.076 1.003.025.483.013.901zm-.241 4.824a.7.7 0 0 1-.102.38.84.84 0 0 1-.266.255q-.165.113-.356.165-.19.05-.381.05a1 1 0 0 1-.533-.152q-.254-.14-.254-.457 0-.19.102-.343.114-.165.279-.279t.356-.178q.203-.063.38-.063a1 1 0 0 1 .534.152q.24.14.241.47"/><defs><filter id="a" width="209.314" height="118.893" x="0" y="0" color-interpolation-filters="sRGB" filterUnits="userSpaceOnUse"><feFlood flood-opacity="0" result="BackgroundImageFix"/><feBlend in="SourceGraphic" in2="BackgroundImageFix" result="shape"/><feColorMatrix in="SourceAlpha" result="hardAlpha" values="0 0 0 0 0 0 0 0 0 0 0 0 0 0 0 0 0 0 127 0"/><feOffset dy="4"/><feGaussianBlur stdDeviation="2"/><feComposite in2="hardAlpha" k2="-1" k3="1" operator="arithmetic"/><feColorMatrix values="0 0 0 0 0 0 0 0 0 0 0 0 0 0 0 0 0 0 0.25 0"/><feBlend in2="shape" result="effect1_innerShadow_838_381"/></filter></defs></svg>