<svg xmlns="http://www.w3.org/2000/svg" width="301" height="123" fill="none" viewBox="0 0 301 123"><g filter="url(#a)"><path fill="#00c57f" fill-rule="evenodd" d="M39.622 63.884C33.743 58.338 31 52.212 31 45.848c0-15.923 22.88-31.654 60.733-39.432C110.093 2.643 131.663 1 156.447 1c75.881 0 145.859 16.247 142.872 44.848 0 14.192-12.952 27.242-39.328 35.033-17.574 5.19-40.843 7.785-71.185 7.785-53.784 2.54-94.46-1.708-120.47-9.816q-1.44-.45-2.82-.914C47.325 90.493 19.35 98.353-22 109.598 16.468 91.22 38.272 80.005 39.622 63.884" clip-rule="evenodd"/></g><path fill="#00c57f" d="m39.622 63.884.996.083a1 1 0 0 0-.31-.81zM91.734 6.416l.2.98zm207.585 39.432-.995-.103a1 1 0 0 0-.005.103zm-39.328 35.033.283.959zm-71.185 7.785v-1l-.047.001zM68.336 78.85l-.298.955zm-2.82-.914.318-.947a1 1 0 0 0-.887.124zM-22 109.598l-.431-.903a1 1 0 0 0 .693 1.868zm53-63.75h-1c0 6.685 2.892 13.062 8.935 18.763l.687-.727.686-.727C34.594 57.766 32 51.89 32 45.848zM91.735 6.416l-.202-.98c-19.004 3.905-34.319 9.82-44.91 16.807C36.067 29.206 30 37.383 30 45.848h2c0-7.458 5.374-15.109 15.722-21.936C58.035 17.11 73.087 11.268 91.935 7.395zM156.447 1V0c-24.822 0-46.466 1.645-64.915 5.436l.202.98.2.98C110.205 3.64 131.703 2 156.448 2zm142.872 44.848.994.104c.798-7.636-3.311-14.318-10.784-19.975-7.467-5.652-18.44-10.406-31.795-14.24C231.008 4.068 194.443 0 156.447 0v2c37.885 0 74.249 4.057 100.736 11.66 13.251 3.804 23.955 8.474 31.139 13.912 7.179 5.434 10.698 11.508 10.002 18.173zm-39.328 35.033.283.959c26.471-7.819 40.045-21.088 40.045-35.992h-2c0 13.48-12.329 26.31-38.611 34.074zm-71.185 7.785v1c30.387 0 53.763-2.597 71.468-7.826l-.283-.96-.283-.958c-17.444 5.152-40.604 7.744-70.902 7.744zM68.336 78.85l-.298.955c26.168 8.157 66.976 12.402 120.815 9.86l-.047-1-.047-.998c-53.728 2.537-94.273-1.713-120.126-9.772zm-2.82-.914-.32.948q1.392.469 2.842.92l.297-.954.298-.955q-1.43-.446-2.799-.906zm0 0-.569-.823c-18.015 12.437-45.79 20.256-87.21 31.52l.263.965.262.965c41.28-11.226 69.458-19.127 87.821-31.804zM-22 109.598l.43.902c19.215-9.179 34.36-16.611 44.864-23.78 10.484-7.153 16.61-14.218 17.324-22.753l-.996-.083-.997-.084c-.635 7.588-6.086 14.19-16.458 21.269-10.352 7.064-25.344 14.428-44.598 23.626z"/><path fill="#fff" d="M74.922 34.179q0 .312-.062.75a3.3 3.3 0 0 1-.203.843q-.156.39-.422.672-.266.266-.703.266-.578 0-.875-.422a2.9 2.9 0 0 1-.406-1 8 8 0 0 1-.157-1.203q-.015-.61-.031-.969-1.125.188-2.219.328-.03.36-.14.891a4.5 4.5 0 0 1-.313 1.031 2.7 2.7 0 0 1-.547.844q-.328.36-.812.36a.73.73 0 0 1-.594-.266 2.1 2.1 0 0 1-.312-.657 4 4 0 0 1-.141-.765q-.016-.406-.016-.672 0-.89.14-1.75a32 32 0 0 1 .579-2.797q.157-.61.375-1.25.234-.656.531-1.281.313-.641.703-1.14a3.5 3.5 0 0 1 .891-.813 2.05 2.05 0 0 1 1.11-.313q.593 0 1.03.266.438.265.766.703t.547 1q.219.547.36 1.125.156.563.25 1.11.109.546.187.968.203 1.016.344 2.063.14 1.03.14 2.078m-3.015-3.797q0-.187-.031-.61a6 6 0 0 0-.094-.859 2.6 2.6 0 0 0-.25-.765q-.156-.345-.438-.344-.156 0-.297.219a2.1 2.1 0 0 0-.25.53 7 7 0 0 0-.203.704q-.078.39-.14.75a10 10 0 0 0-.094.656l-.047.406q.938-.078 1.844-.234zm10.765.515q-.405 1.08-.89 2.25a21 21 0 0 1-1.047 2.188 4.6 4.6 0 0 1-.766 1.047q-.422.405-.968.406-.438 0-.86-.437a6.6 6.6 0 0 1-.766-1.063q-.343-.625-.609-1.25a23 23 0 0 1-.375-1.015 40 40 0 0 0-.281-.907 15 15 0 0 1-.281-.984 12 12 0 0 1-.203-.985 6 6 0 0 1-.079-.937q0-.61.22-1 .217-.39.859-.39.249 0 .453.156.203.14.375.406.172.265.328.625.156.343.297.765.14.407.265.844.126.438.25.844l.25.797q.141.375.36.75l.25-.64.297-.766a50 50 0 0 1 .359-.828q.187-.438.406-.844a8.3 8.3 0 0 1 .89-1.438q.485-.594.954-.593.437 0 .625.265.187.265.187.688 0 .421-.14.953-.141.531-.36 1.094m3.625-5.312a.65.65 0 0 1-.125.39 1.2 1.2 0 0 1-.296.313q-.188.125-.407.203a1.5 1.5 0 0 1-.406.063.96.96 0 0 1-.547-.156q-.234-.157-.234-.485a.74.74 0 0 1 .11-.406q.123-.187.296-.297.172-.125.39-.187.22-.063.422-.063.297 0 .547.14t.25.485m.125 5.313v.468q0 .236-.015.453-.016.266-.016.72 0 .435-.031.952t-.11 1.047a4.4 4.4 0 0 1-.218.969 2 2 0 0 1-.422.719.9.9 0 0 1-.64.28.58.58 0 0 1-.5-.233 2.2 2.2 0 0 1-.344-.641 5.4 5.4 0 0 1-.188-.89 17 17 0 0 1-.094-.954q-.03-.468-.031-.86v-1.28q0-.47.031-1 .032-.532.11-1.079.093-.546.25-1 .171-.453.437-.734a.9.9 0 0 1 .672-.281q.422 0 .64.422.22.42.329.984.109.562.125 1.125.015.546.015.813m5.688-3q0 .453-.313.671a6 6 0 0 1-.671.422q-.375.188-.688.453-.297.266-.297.797 0 .282.125.485.14.203.328.375.204.156.438.328t.422.39q.202.219.328.532.14.312.14.765 0 .657-.343 1.297a4.3 4.3 0 0 1-.86 1.125 4.3 4.3 0 0 1-1.172.781q-.656.297-1.296.297-.267 0-.532-.047a1.5 1.5 0 0 1-.484-.14 1.04 1.04 0 0 1-.344-.297.9.9 0 0 1-.14-.516q0-.436.171-.672.172-.25.438-.39.265-.141.562-.219.313-.078.579-.187.265-.126.437-.313.172-.188.172-.531 0-.328-.266-.672-.25-.36-.562-.75a8 8 0 0 1-.578-.86 2.04 2.04 0 0 1-.25-1q0-.671.265-1.234a3.4 3.4 0 0 1 .735-1q.468-.422 1.062-.656a3.2 3.2 0 0 1 1.25-.25q.25 0 .484.047.25.046.438.172a.8.8 0 0 1 .297.312.86.86 0 0 1 .125.485m7.172 5.812q0 .531-.344 1.047-.328.5-.844.906-.5.39-1.078.64-.578.235-1.062.235a2.76 2.76 0 0 1-1.485-.406 3.9 3.9 0 0 1-1.078-1.063 5.2 5.2 0 0 1-.672-1.406 5.6 5.6 0 0 1-.218-1.515q0-.782.218-1.672.219-.891.657-1.641.453-.75 1.124-1.25.688-.5 1.626-.5.53 0 1.015.188a2.45 2.45 0 0 1 1.422 1.28q.219.454.219 1.016 0 .735-.313 1.375a3.6 3.6 0 0 1-.828 1.11q-.516.468-1.187.765a4 4 0 0 1-1.375.313q.062.453.359.656.312.204.734.203.313 0 .61-.156t.578-.344q.281-.203.547-.36a1.15 1.15 0 0 1 .562-.155q.313 0 .563.203.25.202.25.531m-2.531-3.828a.94.94 0 0 0-.11-.422.36.36 0 0 0-.344-.219.9.9 0 0 0-.578.188 1.4 1.4 0 0 0-.39.453q-.157.266-.25.578a3 3 0 0 0-.094.578q.219-.047.516-.125.311-.078.578-.203a1.6 1.6 0 0 0 .468-.344.66.66 0 0 0 .204-.484m13.562 4.406q0 .281-.031.735a4.3 4.3 0 0 1-.125.89 2.1 2.1 0 0 1-.344.735q-.234.312-.656.312-.579 0-.891-.375t-.297-.937q-.5.436-1.14.687-.625.25-1.282.25-.453 0-.859-.219a2.7 2.7 0 0 1-.719-.562 2.9 2.9 0 0 1-.5-.766 2.2 2.2 0 0 1-.187-.86q0-.75.453-1.312a4.3 4.3 0 0 1 1.14-.953q.672-.406 1.422-.64.766-.235 1.36-.313v-.14a.6.6 0 0 0 .015-.141q0-.485-.265-.781-.266-.297-.75-.297-.392 0-.672.14a3.3 3.3 0 0 0-.531.297q-.25.156-.5.297a1.25 1.25 0 0 1-.563.125.87.87 0 0 1-.594-.219.74.74 0 0 1-.234-.562q0-.516.297-.938.312-.421.765-.703a4 4 0 0 1 1-.453 3.4 3.4 0 0 1 1-.172q.423 0 .844.11.422.093.797.312.375.203.672.516.312.297.5.703.281.578.453 1.234.172.64.266 1.328.093.672.125 1.36.031.671.031 1.312m-2.5-.5-.047-1.062h-.062a.14.14 0 0 0-.063-.016q-.203 0-.516.11a2.3 2.3 0 0 0-.578.28 2.3 2.3 0 0 0-.484.391.7.7 0 0 0-.188.453q0 .219.157.297a.8.8 0 0 0 .359.078q.344 0 .734-.172.391-.186.688-.359m6.359-6.765q0 .843-.078 1.703a23 23 0 0 0-.062 1.703q0 1.11.062 2.219.078 1.109.078 2.234 0 .28-.031.64-.031.344-.156.641a1.2 1.2 0 0 1-.344.5q-.234.204-.625.203-.375 0-.656-.375a3.3 3.3 0 0 1-.453-.922 12 12 0 0 1-.297-1.28q-.11-.705-.172-1.36a107 107 0 0 1-.078-1.219 31 31 0 0 1-.016-.828q0-.297.016-.86.031-.561.109-1.218t.203-1.328q.141-.688.36-1.235.218-.562.515-.906.313-.36.735-.36.344 0 .515.235.188.219.266.547.078.312.094.672.015.343.015.594m8.266 4.14q0 .797-.031 1.594a28 28 0 0 1-.078 1.594q-.047.687-.125 1.468-.079.782-.25 1.547a9.5 9.5 0 0 1-.454 1.485q-.28.718-.75 1.265a3.4 3.4 0 0 1-1.109.875q-.656.328-1.562.328-.422 0-.954-.14a4.2 4.2 0 0 1-.984-.375 2.9 2.9 0 0 1-.781-.625 1.25 1.25 0 0 1-.313-.844q0-.36.25-.672a.86.86 0 0 1 .672-.297q.25 0 .469.078.234.094.453.203.234.11.438.188.218.094.437.094.578 0 .969-.297.39-.282.625-.734a3.6 3.6 0 0 0 .344-.97q.124-.515.171-.984-.312.36-.734.5a2.9 2.9 0 0 1-.859.125q-.828 0-1.407-.28a2.6 2.6 0 0 1-.937-.798 3.6 3.6 0 0 1-.531-1.187 5.8 5.8 0 0 1-.172-1.453q0-.485.094-1.094.11-.61.312-1.235.204-.624.5-1.218.312-.594.719-1.047t.906-.735a2.3 2.3 0 0 1 1.125-.28q.594 0 1.047.343.469.344.547.969.171-.329.453-.64a.87.87 0 0 1 .687-.329q.219 0 .36.219.156.218.234.578.094.343.141.765.047.407.062.813.016.39.016.719zm-2.375 1.016q0-.235-.078-.61-.063-.375-.203-.718a2 2 0 0 0-.328-.594q-.203-.25-.485-.25a.94.94 0 0 0-.64.25q-.266.25-.454.61-.187.342-.296.75a3 3 0 0 0-.094.671q0 .204.031.547.032.344.125.672.11.328.281.562a.54.54 0 0 0 .453.235q.423 0 .735-.203t.515-.516q.22-.312.329-.687t.109-.72m10.328-.157a8.5 8.5 0 0 1-.172 1.704 4.7 4.7 0 0 1-.578 1.515 3.14 3.14 0 0 1-1.094 1.063q-.672.406-1.687.406-1 0-1.672-.39a3.2 3.2 0 0 1-1.078-1.063 4.8 4.8 0 0 1-.563-1.484 9 9 0 0 1-.156-1.688q0-.938.219-1.86.046-.249.172-.687a6 6 0 0 1 .343-.875q.22-.438.485-.75.28-.312.609-.312.313 0 .5.172.188.171.297.437.11.25.141.547.031.282.031.515 0 .36-.063.704-.046.343-.109.687l-.125.938a9.5 9.5 0 0 0-.031 1.468q.031.282.125.547.093.266.265.453.173.172.485.172.406 0 .64-.218.25-.22.36-.547.124-.329.156-.703.031-.376.031-.688 0-.687-.093-1.344a51 51 0 0 1-.172-1.36 1.5 1.5 0 0 1 .062-.687q.078-.234.219-.421.14-.187.344-.297a.85.85 0 0 1 .453-.125q.343 0 .609.25.266.234.438.625.187.375.297.859.124.469.187.938.078.453.094.859.031.406.031.64m7.5 1.688q0 .531-.344 1.047a3.8 3.8 0 0 1-.843.906 5 5 0 0 1-1.079.64q-.577.235-1.062.235a2.76 2.76 0 0 1-1.484-.406A3.9 3.9 0 0 1 132 35.069a5.2 5.2 0 0 1-.671-1.406 5.6 5.6 0 0 1-.219-1.515q0-.782.219-1.672.218-.891.656-1.641.453-.75 1.125-1.25.687-.5 1.625-.5.532 0 1.015.188.485.17.844.5.36.328.578.78.219.454.219 1.016 0 .735-.312 1.375a3.7 3.7 0 0 1-.829 1.11 4.4 4.4 0 0 1-1.187.765 4 4 0 0 1-1.375.313q.063.453.359.656.313.204.735.203.312 0 .609-.156a6 6 0 0 0 .578-.344q.282-.203.547-.36.282-.155.563-.155.312 0 .562.203a.65.65 0 0 1 .25.531m-2.531-3.828a.94.94 0 0 0-.11-.422.36.36 0 0 0-.343-.219.9.9 0 0 0-.578.188 1.4 1.4 0 0 0-.391.453q-.156.266-.25.578a3 3 0 0 0-.094.578q.219-.047.516-.125.312-.078.578-.203.281-.14.469-.344a.66.66 0 0 0 .203-.484m.875-5.547q0 .172-.094.344a1.6 1.6 0 0 1-.234.297 2.3 2.3 0 0 1-.282.265q-.156.109-.281.203a8 8 0 0 0-.25.188 3 3 0 0 1-.281.187 3 3 0 0 1-.297.141.7.7 0 0 1-.281.063.4.4 0 0 1-.219-.063.27.27 0 0 1-.094-.219q0-.234.172-.562.188-.345.453-.656.266-.33.563-.547.297-.235.547-.235.219 0 .39.188.188.172.188.406m11.765 7v.813q0 .5-.031 1.093-.015.594-.094 1.203a5.3 5.3 0 0 1-.25 1.078 2.5 2.5 0 0 1-.406.797.78.78 0 0 1-.64.313.6.6 0 0 1-.532-.281 2.3 2.3 0 0 1-.25-.688 5 5 0 0 1-.093-.797v-.64q0-.705.046-1.375.047-.672.047-1.375v-.282q0-.202-.031-.406a1.2 1.2 0 0 0-.109-.36q-.063-.155-.203-.155-.282 0-.454.296a2.7 2.7 0 0 0-.281.672q-.11.39-.156.782-.046.375-.063.562a10 10 0 0 0-.062.61q-.015.405-.063.89-.03.484-.125 1-.078.5-.218.922a2.2 2.2 0 0 1-.328.672q-.203.265-.5.265a.65.65 0 0 1-.579-.328 2.4 2.4 0 0 1-.296-.765 6 6 0 0 1-.125-.891 20 20 0 0 1-.016-.703v-.516q.016-.25.016-.515v-.36q0-.25-.016-.547 0-.312-.031-.64a5 5 0 0 0-.063-.594 1.5 1.5 0 0 0-.14-.453q-.094-.172-.219-.172-.204 0-.375.266-.173.25-.297.609a6 6 0 0 0-.203.688q-.063.343-.063.5v.093q0 .75.094 1.469t.094 1.469q0 .437-.281.812-.281.36-.782.36a.76.76 0 0 1-.593-.266 2.3 2.3 0 0 1-.391-.719 6 6 0 0 1-.25-.953 12 12 0 0 1-.109-1.031 39 39 0 0 1-.047-.922v-.625a20 20 0 0 0-.016-.687q0-.453.016-.985.031-.53.093-1.078.063-.563.204-1.016t.359-.734a.73.73 0 0 1 .594-.297q.406 0 .656.219.266.218.266.656 0 .094-.016.188 0 .094-.016.172.173-.25.422-.5.25-.267.531-.47.298-.218.625-.343.328-.14.657-.14.312 0 .562.171t.438.438q.188.25.312.547.126.297.172.562.156-.281.375-.562.234-.297.5-.516t.578-.36q.329-.14.672-.14a.77.77 0 0 1 .563.234q.234.235.406.61.172.36.265.828.094.453.157.906.061.438.078.828.015.375.015.594m12.063-2.11-.25 2.266q-.125 1.125-.172 2.25a33 33 0 0 0-.062 2.453q.015 1.157.015 2.453 0 .313-.015.766 0 .453-.11.875-.109.421-.359.719-.234.297-.719.297a.62.62 0 0 1-.406-.14 1.4 1.4 0 0 1-.281-.376 3 3 0 0 1-.188-.5 9 9 0 0 1-.109-.578 12 12 0 0 1-.094-1.219v-2.969q-.36.47-.938.72-.562.234-1.125.234-.703 0-1.218-.328a2.9 2.9 0 0 1-.828-.86 4 4 0 0 1-.485-1.156 5 5 0 0 1-.156-1.219v-.094a6.8 6.8 0 0 1 .25-1.75 6.8 6.8 0 0 1 .734-1.765q.5-.813 1.235-1.344a2.87 2.87 0 0 1 1.734-.547q.531 0 .969.219.453.218.64.719.126-.36.375-.578a.98.98 0 0 1 .672-.235q.516 0 .719.344.219.328.219.734 0 .172-.016.313zm-3.594.376q-.358 0-.672.297-.312.28-.547.703-.234.405-.375.875a3.3 3.3 0 0 0-.125.828q0 .218.032.468.047.25.125.485.093.218.234.375.156.14.391.14.202 0 .468-.093.282-.11.547-.266.266-.172.469-.375t.281-.39q.048-.11.078-.329.032-.219.047-.453a8 8 0 0 0 .063-.843q0-.188-.094-.422a2 2 0 0 0-.219-.47 1.3 1.3 0 0 0-.328-.374.6.6 0 0 0-.375-.156m11.188 2.422q0 .858-.172 1.703a4.7 4.7 0 0 1-.578 1.515 3.15 3.15 0 0 1-1.094 1.063q-.672.406-1.688.406-.999 0-1.671-.39a3.2 3.2 0 0 1-1.079-1.063 4.8 4.8 0 0 1-.562-1.484 9 9 0 0 1-.156-1.688q0-.938.218-1.86.048-.249.172-.687.141-.453.344-.875.219-.438.484-.75.282-.312.61-.312.312 0 .5.172t.297.437q.11.25.14.547.032.282.032.515 0 .36-.063.704-.047.343-.109.687l-.125.938a9 9 0 0 0-.032 1.468q.032.282.125.547.095.266.266.453.172.172.484.172.407 0 .641-.218.25-.22.359-.547.126-.329.157-.703.031-.376.031-.688 0-.687-.094-1.344-.094-.671-.172-1.36a1.5 1.5 0 0 1 .063-.687q.078-.234.219-.421.14-.187.343-.297a.85.85 0 0 1 .453-.125q.345 0 .61.25.266.234.437.625.187.375.297.859.125.469.188.938.078.453.093.859.032.406.032.64m7.5 1.687q0 .531-.344 1.047-.328.5-.844.906a5 5 0 0 1-1.078.64q-.577.235-1.062.235a2.77 2.77 0 0 1-1.485-.406 3.9 3.9 0 0 1-1.078-1.063 5.1 5.1 0 0 1-.672-1.406 5.6 5.6 0 0 1-.219-1.515q0-.782.219-1.672.22-.891.656-1.641.454-.75 1.125-1.25.688-.5 1.625-.5.532 0 1.016.188a2.45 2.45 0 0 1 1.422 1.28q.219.454.219 1.016 0 .735-.313 1.375a3.6 3.6 0 0 1-.828 1.11 4.4 4.4 0 0 1-1.187.765 4 4 0 0 1-1.375.313q.062.453.359.656.312.204.734.203.313 0 .61-.156.296-.156.578-.344.281-.203.547-.36.281-.155.562-.155a.87.87 0 0 1 .563.203q.25.202.25.531m-2.532-3.828a.94.94 0 0 0-.109-.422.36.36 0 0 0-.344-.219.9.9 0 0 0-.578.188 1.4 1.4 0 0 0-.39.453q-.157.266-.25.578a3 3 0 0 0-.094.578q.22-.047.515-.125a3 3 0 0 0 .579-.203q.28-.14.468-.344a.66.66 0 0 0 .203-.484m13.657 1.015a77 77 0 0 1-.891 2.25q-.484 1.172-1.047 2.188a4.6 4.6 0 0 1-.765 1.047 1.36 1.36 0 0 1-.969.406q-.437 0-.86-.437a6.7 6.7 0 0 1-.765-1.063 14 14 0 0 1-.61-1.25 25 25 0 0 1-.375-1.015 39 39 0 0 0-.281-.907 15 15 0 0 1-.281-.984 12 12 0 0 1-.203-.985 6 6 0 0 1-.078-.937q0-.61.218-1 .22-.39.86-.39.25 0 .453.156.202.14.375.406.172.265.328.625.156.343.297.765.14.407.266.844.124.438.25.844.124.405.25.797.14.375.359.75l.25-.64.297-.766q.171-.407.359-.828.188-.438.406-.844a8.4 8.4 0 0 1 .891-1.438q.485-.594.953-.593.438 0 .625.265.188.265.188.688 0 .421-.141.953-.14.531-.359 1.094m4.015 6.047q-.796 0-1.39-.422a3.7 3.7 0 0 1-1-1.078 5.2 5.2 0 0 1-.61-1.453 6.6 6.6 0 0 1-.203-1.593q0-.829.203-1.704.204-.89.625-1.609.423-.735 1.078-1.187.657-.47 1.563-.47.875 0 1.484.485.625.469 1 1.188.375.702.532 1.547.156.843.109 1.593a8.6 8.6 0 0 1-.266 1.672 5.3 5.3 0 0 1-.609 1.516 3.5 3.5 0 0 1-1.031 1.093q-.626.422-1.485.422m.157-7.062q-.235 0-.422.25-.173.25-.297.61-.11.359-.172.765-.063.39-.063.687 0 .375.063.813.078.437.203.812.125.36.297.61.188.234.422.234.25 0 .422-.234.187-.235.297-.594.11-.36.156-.781a8 8 0 0 0 .047-.813q0-.344-.063-.75a4.3 4.3 0 0 0-.187-.781 1.8 1.8 0 0 0-.297-.594q-.172-.234-.406-.234m9.828.61q0 .077-.016.171a1 1 0 0 1-.047.156 1.5 1.5 0 0 1-.437.61 1.1 1.1 0 0 1-.703.234q-.61 0-.829-.61a.5.5 0 0 1-.031-.171q0-.11-.015-.219v-.453a.9.9 0 0 0-.11-.344q-.078-.125-.265-.125-.265 0-.516.344a3.8 3.8 0 0 0-.422.797 7 7 0 0 0-.281.937q-.11.485-.11.782 0 .234.032.578.031.328.125.64.093.313.25.547.171.219.437.219a.8.8 0 0 0 .485-.156q.234-.172.453-.39.203-.189.437-.392a.87.87 0 0 1 .563-.203q.39 0 .609.282a.97.97 0 0 1 .234.64q0 .532-.281 1a3.2 3.2 0 0 1-.703.797q-.422.328-.937.516a2.7 2.7 0 0 1-.985.203q-.843 0-1.437-.422a3.3 3.3 0 0 1-.938-1.062 5 5 0 0 1-.515-1.422 7.2 7.2 0 0 1-.157-1.453q0-.798.219-1.72.219-.936.672-1.734a4.3 4.3 0 0 1 1.156-1.328q.719-.531 1.703-.531.61 0 1.047.266.453.265.735.703.296.422.437.953.156.531.156 1.047v.156a1 1 0 0 1-.015.156m7.422 3.218q0 .531-.344 1.047-.328.5-.844.906-.5.39-1.078.64-.578.235-1.063.235a2.76 2.76 0 0 1-1.484-.406 3.9 3.9 0 0 1-1.078-1.063 5.1 5.1 0 0 1-.672-1.406 5.6 5.6 0 0 1-.219-1.515q0-.782.219-1.672.22-.891.656-1.641.453-.75 1.125-1.25.688-.5 1.625-.5.532 0 1.016.188a2.45 2.45 0 0 1 1.422 1.28q.219.454.219 1.016a3.1 3.1 0 0 1-.313 1.375 3.6 3.6 0 0 1-.828 1.11 4.4 4.4 0 0 1-1.188.765 4 4 0 0 1-1.375.313q.063.453.36.656.312.204.734.203.313 0 .61-.156.296-.156.578-.344.281-.203.547-.36.281-.155.562-.155.312 0 .563.203.25.202.25.531m-2.532-3.828a.94.94 0 0 0-.109-.422.36.36 0 0 0-.344-.219.9.9 0 0 0-.578.188 1.4 1.4 0 0 0-.391.453q-.156.266-.25.578a3 3 0 0 0-.093.578q.218-.047.515-.125a3 3 0 0 0 .578-.203q.282-.14.469-.344a.66.66 0 0 0 .203-.484m1.391-3.844q0 .125-.047.156-.047.032-.156.032-.188 0-.422-.094a4 4 0 0 1-.453-.235 11 11 0 0 1-.438-.296 6 6 0 0 1-.343-.282l-.375.297a5 5 0 0 1-.438.328 5 5 0 0 1-.469.25 1.2 1.2 0 0 1-.437.094.4.4 0 0 1-.156-.031q-.063-.032-.063-.156 0-.236.203-.594.203-.36.5-.688a4 4 0 0 1 .625-.562q.329-.234.578-.235.25 0 .578.235.328.219.61.531.297.312.5.656t.203.594m9.969 10.89q-.266 0-.422-.25a1.8 1.8 0 0 1-.235-.546 4.4 4.4 0 0 1-.109-.625 12 12 0 0 1-.016-.5q0-.469.047-.938l.125-.937q.078-.469.125-.938a7 7 0 0 0 .063-.937q0-.187-.016-.406a1.6 1.6 0 0 0-.078-.407.66.66 0 0 0-.172-.328.44.44 0 0 0-.328-.125q-.141 0-.312.235a3.4 3.4 0 0 0-.329.515q-.14.282-.25.578a1.5 1.5 0 0 0-.093.422v.703q.015.345.015.703v.907q-.015.28-.047.578-.03.296-.093.578-.047.282-.141.547a1.7 1.7 0 0 1-.25.453 1.2 1.2 0 0 1-.344.313.9.9 0 0 1-.484.124.7.7 0 0 1-.516-.203 1.5 1.5 0 0 1-.328-.515 3.6 3.6 0 0 1-.187-.719q-.048-.406-.078-.781-.016-.39-.016-.703.016-.33.016-.516v-.734q0-.594-.032-1.172-.015-.579-.015-1.156v-.797q.015-.485.125-.938a2.1 2.1 0 0 1 .359-.797q.25-.328.734-.328a.6.6 0 0 1 .391.14q.173.142.297.345.141.202.219.437.093.234.14.406.157-.218.36-.422.219-.203.484-.359a2.54 2.54 0 0 1 1.344-.344q.797 0 1.234.39.453.376.656.954.22.562.266 1.219.047.656.047 1.187 0 .266-.047.797-.047.516-.156 1.156a13 13 0 0 1-.266 1.297q-.172.657-.406 1.203a3 3 0 0 1-.563.891q-.312.344-.718.344m9.672-2.64q0 .281-.032.735-.015.452-.125.89a2.1 2.1 0 0 1-.343.735q-.235.312-.657.312-.578 0-.89-.375-.314-.375-.297-.937-.5.436-1.141.687a3.4 3.4 0 0 1-1.281.25q-.453 0-.859-.219a2.7 2.7 0 0 1-.719-.562 2.9 2.9 0 0 1-.5-.766 2.2 2.2 0 0 1-.188-.86q0-.75.453-1.312a4.3 4.3 0 0 1 1.141-.953q.672-.406 1.422-.64.766-.235 1.359-.313v-.14a.6.6 0 0 0 .016-.141q0-.485-.266-.781t-.75-.297q-.39 0-.672.14a3.3 3.3 0 0 0-.531.297q-.25.156-.5.297a1.24 1.24 0 0 1-.562.125.87.87 0 0 1-.594-.219.74.74 0 0 1-.234-.562q0-.516.296-.938.313-.421.766-.703a4 4 0 0 1 1-.453 3.4 3.4 0 0 1 1-.172q.422 0 .844.11.422.093.797.312.375.203.672.516.312.297.5.703.28.578.453 1.234.172.64.265 1.328.095.672.125 1.36.032.671.032 1.312m-2.5-.5-.047-1.062h-.063a.14.14 0 0 0-.062-.016 1.6 1.6 0 0 0-.516.11 2.3 2.3 0 0 0-.578.28 2.3 2.3 0 0 0-.484.391.7.7 0 0 0-.188.453q0 .219.156.297a.8.8 0 0 0 .36.078q.344 0 .734-.172.391-.186.688-.359m1.89-8.937a1 1 0 0 1-.156.5 2.3 2.3 0 0 1-.391.468q-.234.203-.5.344a1.2 1.2 0 0 1-.5.125q-.234 0-.468-.078-.219-.093-.454-.203a4 4 0 0 0-.437-.188 1.1 1.1 0 0 0-.438-.093.63.63 0 0 0-.343.109 5 5 0 0 0-.36.219q-.188.109-.39.203a.8.8 0 0 1-.375.094.49.49 0 0 1-.407-.203.75.75 0 0 1-.156-.438q0-.266.188-.516t.468-.437q.282-.204.579-.313.312-.125.546-.125.267 0 .454.11.203.11.375.25t.343.25q.187.11.438.11.202 0 .375-.11.188-.126.359-.266.188-.157.344-.265a.6.6 0 0 1 .359-.125q.219 0 .375.187a.57.57 0 0 1 .172.39m4.516 12.093q-.797 0-1.391-.422a3.7 3.7 0 0 1-1-1.078 5.2 5.2 0 0 1-.609-1.453 6.5 6.5 0 0 1-.203-1.593q0-.829.203-1.704.203-.89.625-1.609.421-.735 1.078-1.187.656-.47 1.562-.47.876 0 1.485.485.625.469 1 1.188.375.702.531 1.547a6.5 6.5 0 0 1 .109 1.593 8.6 8.6 0 0 1-.265 1.672 5.3 5.3 0 0 1-.61 1.516q-.405.672-1.031 1.093-.624.422-1.484.422m.156-7.062q-.234 0-.422.25-.171.25-.297.61-.11.359-.172.765-.062.39-.062.687 0 .375.062.813.079.437.204.812.125.36.296.61.188.234.422.234.25 0 .422-.234.188-.235.297-.594.11-.36.156-.781.047-.438.047-.813 0-.344-.062-.75a4.3 4.3 0 0 0-.188-.781 1.8 1.8 0 0 0-.297-.594q-.172-.234-.406-.234m14.344 3.828q0 .531-.344 1.047-.328.5-.844.906a5 5 0 0 1-1.078.64q-.578.235-1.062.235a2.77 2.77 0 0 1-1.485-.406 3.9 3.9 0 0 1-1.078-1.063 5.2 5.2 0 0 1-.672-1.406 5.6 5.6 0 0 1-.218-1.515q0-.782.218-1.672a6.1 6.1 0 0 1 .657-1.641q.453-.75 1.125-1.25.687-.5 1.625-.5.53 0 1.015.188a2.45 2.45 0 0 1 1.422 1.28q.219.454.219 1.016 0 .735-.313 1.375a3.6 3.6 0 0 1-.828 1.11 4.4 4.4 0 0 1-1.187.765 4 4 0 0 1-1.375.313q.062.453.359.656.312.204.734.203.313 0 .61-.156t.578-.344q.281-.203.547-.36.281-.155.562-.155a.87.87 0 0 1 .563.203.65.65 0 0 1 .25.531m-2.531-3.828a.94.94 0 0 0-.11-.422.36.36 0 0 0-.344-.219.9.9 0 0 0-.578.188 1.4 1.4 0 0 0-.39.453q-.157.266-.25.578a3 3 0 0 0-.094.578q.219-.047.516-.125.312-.078.578-.203.28-.14.468-.344a.66.66 0 0 0 .204-.484m7.734-1.985q0 .455-.313.672a6 6 0 0 1-.671.422q-.375.188-.688.453-.297.266-.297.797a.9.9 0 0 0 .125.485q.14.203.328.375.204.156.438.328t.422.39a1.7 1.7 0 0 1 .328.532q.14.312.14.765 0 .657-.343 1.297a4.2 4.2 0 0 1-.86 1.125 4.3 4.3 0 0 1-1.172.781 3.1 3.1 0 0 1-1.296.297q-.266 0-.532-.047a1.5 1.5 0 0 1-.484-.14 1.05 1.05 0 0 1-.344-.297.9.9 0 0 1-.14-.516q0-.436.171-.672.173-.25.438-.39.266-.141.562-.219.313-.078.579-.187.266-.126.437-.313.172-.188.172-.531 0-.328-.266-.672-.25-.36-.562-.75a8 8 0 0 1-.578-.86 2.03 2.03 0 0 1-.25-1q0-.671.265-1.234.282-.578.735-1a3.5 3.5 0 0 1 1.062-.656q.594-.25 1.25-.25.25 0 .485.047.25.046.437.172a.8.8 0 0 1 .297.312.86.86 0 0 1 .125.485m4.266 9.157q-1.11 0-1.735-.297a2 2 0 0 1-.922-.813q-.297-.53-.359-1.28-.063-.75-.063-1.673 0-.735.047-1.468.047-.75.141-1.594-.219 0-.344.015h-.203a1.6 1.6 0 0 1-.859-.218q-.375-.219-.375-.672a.7.7 0 0 1 .218-.5q.204-.219.532-.375.327-.157.703-.25.39-.094.734-.125 0-.438.063-.969.062-.531.218-.984.172-.469.454-.782a.92.92 0 0 1 .718-.312q.25 0 .438.156.203.141.328.375.125.22.187.5.063.282.063.547 0 .312-.047.64-.046.33-.172.813.266-.03.36-.031a1 1 0 0 1 .171-.016q.267 0 .547.047.297.047.532.156.25.11.406.297a.6.6 0 0 1 .156.422.67.67 0 0 1-.234.5q-.22.218-.563.375a4 4 0 0 1-.734.25 7 7 0 0 1-.735.11q-.093.64-.14 1.187-.031.53-.078 1.078l-.063.547q-.015.266-.015.547 0 .203.015.484.016.266.11.516.093.25.296.437.204.172.563.172.219 0 .453-.031.234-.047.469-.047.406 0 .578.281.187.281.187.72a.9.9 0 0 1-.203.577 1.34 1.34 0 0 1-.484.375 2.6 2.6 0 0 1-.672.235 3.2 3.2 0 0 1-.687.078m9-2.766q0 .281-.032.735-.015.452-.125.89a2.1 2.1 0 0 1-.343.735q-.235.312-.657.312-.578 0-.89-.375t-.297-.937q-.5.436-1.141.687a3.4 3.4 0 0 1-1.281.25q-.453 0-.859-.219a2.7 2.7 0 0 1-.719-.562 2.9 2.9 0 0 1-.5-.766 2.2 2.2 0 0 1-.188-.86q0-.75.453-1.312a4.3 4.3 0 0 1 1.141-.953q.672-.406 1.422-.64.766-.235 1.359-.313v-.14a.6.6 0 0 0 .016-.141q0-.485-.266-.781t-.75-.297q-.39 0-.672.14a3.3 3.3 0 0 0-.531.297q-.25.156-.5.297a1.24 1.24 0 0 1-.562.125.87.87 0 0 1-.594-.219.74.74 0 0 1-.234-.562q0-.516.296-.938.313-.421.766-.703a4 4 0 0 1 1-.453 3.4 3.4 0 0 1 1-.172q.422 0 .844.11.422.093.797.312.375.203.672.516.312.297.5.703.28.578.453 1.234.171.64.265 1.328.095.672.125 1.36.032.671.032 1.312m-2.5-.5-.047-1.062h-.063a.14.14 0 0 0-.062-.016 1.6 1.6 0 0 0-.516.11 2.3 2.3 0 0 0-.578.28 2.3 2.3 0 0 0-.484.391.7.7 0 0 0-.188.453q0 .219.156.297a.8.8 0 0 0 .36.078q.344 0 .734-.172.391-.186.688-.359m.75-9.125q0 .173-.094.344a1.6 1.6 0 0 1-.235.297 2.3 2.3 0 0 1-.281.265q-.156.11-.281.204a8 8 0 0 0-.25.187 3 3 0 0 1-.281.188 3 3 0 0 1-.297.14.7.7 0 0 1-.281.063.4.4 0 0 1-.219-.063.27.27 0 0 1-.094-.219q0-.234.172-.562a4 4 0 0 1 .453-.656q.266-.329.563-.547.297-.235.546-.235.22 0 .391.188.188.172.188.406M71.696 52.335q0 .453-.078 1.031-.063.562-.22 1.157a6.6 6.6 0 0 1-.39 1.156 4.3 4.3 0 0 1-.593 1.015q-.344.438-.813.703a2.06 2.06 0 0 1-1.062.266q-.642 0-1.172-.297a2.9 2.9 0 0 1-.89-.812 1.3 1.3 0 0 1-.345.75 1 1 0 0 1-.75.312q-.266 0-.453-.265a2.4 2.4 0 0 1-.281-.672 7 7 0 0 1-.172-.922 16 16 0 0 1-.062-.969q-.016-.468-.016-.844v-1.593l.031-1.078q0-.267-.015-.797 0-.532.015-1.172.015-.657.063-1.328.062-.688.203-1.25t.39-.922.641-.375q.312 0 .531.218.219.219.36.579.156.36.234.812.094.438.125.89.047.438.047.845.016.39.016.64 0 .046-.016.219v.844q.142-.297.406-.578.266-.282.594-.5a3.6 3.6 0 0 1 .687-.36q.36-.14.688-.14.656 0 1.094.343.453.328.718.844.266.516.375 1.125.11.593.11 1.125m-2.297.469q0-.187-.031-.407a1.1 1.1 0 0 0-.11-.406.8.8 0 0 0-.234-.312.54.54 0 0 0-.375-.125 1.2 1.2 0 0 0-.5.11 2.3 2.3 0 0 0-.453.28q-.219.172-.406.375-.188.188-.329.375l-.156 1.391q.25.36.61.578.36.203.812.203.345 0 .563-.218.234-.22.359-.532.14-.328.187-.687.063-.36.063-.625m9.797 1.906q0 .531-.344 1.047-.328.5-.844.906-.5.39-1.078.64-.578.235-1.062.235a2.76 2.76 0 0 1-1.485-.406 3.9 3.9 0 0 1-1.078-1.063 5.2 5.2 0 0 1-.672-1.406 5.6 5.6 0 0 1-.218-1.515q0-.782.218-1.672.219-.891.657-1.641.453-.75 1.125-1.25.687-.5 1.625-.5.53 0 1.015.188a2.45 2.45 0 0 1 1.422 1.28q.219.454.219 1.016 0 .735-.313 1.375a3.6 3.6 0 0 1-.828 1.11q-.516.468-1.187.765a4 4 0 0 1-1.375.313q.061.453.36.656.311.203.733.203.313 0 .61-.156.296-.156.578-.344.281-.203.547-.36a1.15 1.15 0 0 1 .562-.155.87.87 0 0 1 .563.203q.25.203.25.531m-2.531-3.828a.94.94 0 0 0-.11-.422.36.36 0 0 0-.344-.219.9.9 0 0 0-.578.188 1.4 1.4 0 0 0-.39.453q-.157.266-.25.578a3 3 0 0 0-.094.578q.219-.047.516-.125.312-.078.578-.203.28-.14.468-.344a.66.66 0 0 0 .204-.484m12.64 1.453v.813q0 .5-.031 1.093-.016.594-.094 1.203a5.3 5.3 0 0 1-.25 1.078q-.156.485-.406.797a.78.78 0 0 1-.64.313.6.6 0 0 1-.532-.281 2.2 2.2 0 0 1-.25-.688 5 5 0 0 1-.094-.797v-.64q0-.705.047-1.375.047-.672.047-1.375v-.282q0-.202-.031-.406a1.2 1.2 0 0 0-.11-.36q-.062-.155-.203-.155-.28 0-.453.296a2.7 2.7 0 0 0-.281.672 5 5 0 0 0-.156.782q-.047.375-.063.562-.031.202-.062.61-.016.405-.063.89-.03.484-.125 1-.078.5-.219.922-.124.406-.328.672-.203.265-.5.265a.64.64 0 0 1-.578-.328 2.4 2.4 0 0 1-.297-.765 6 6 0 0 1-.125-.891q-.015-.454-.015-.703v-.516q.015-.25.015-.515v-.36q0-.25-.015-.547 0-.312-.032-.64a5 5 0 0 0-.062-.594 1.5 1.5 0 0 0-.14-.453q-.094-.172-.22-.172-.203 0-.374.266-.172.25-.297.609-.126.344-.203.688-.063.343-.063.5v.093q0 .75.094 1.469.093.72.094 1.469 0 .437-.282.812-.281.36-.78.36a.76.76 0 0 1-.595-.266 2.4 2.4 0 0 1-.39-.719 6 6 0 0 1-.25-.953 12 12 0 0 1-.11-1.031q-.03-.516-.047-.922v-.625q0-.235-.015-.687 0-.453.015-.985.031-.53.094-1.078.063-.563.203-1.016a2.3 2.3 0 0 1 .36-.734.73.73 0 0 1 .593-.297q.406 0 .657.219.265.218.265.656 0 .094-.015.188a1 1 0 0 1-.016.172q.172-.25.422-.5.25-.267.531-.47.297-.218.625-.343.329-.14.656-.14a.97.97 0 0 1 .563.171q.25.172.437.438.188.25.313.547.124.296.172.562.156-.281.375-.562.234-.297.5-.516t.578-.36a1.7 1.7 0 0 1 .672-.14q.328 0 .562.234t.407.61q.172.36.265.828.094.453.156.906a8 8 0 0 1 .079.828q.015.375.015.594m11.344 2.375q0 .531-.344 1.047-.328.5-.844.906-.5.39-1.078.64-.578.235-1.062.235a2.76 2.76 0 0 1-1.485-.406 3.9 3.9 0 0 1-1.078-1.063 5.2 5.2 0 0 1-.672-1.406 5.6 5.6 0 0 1-.218-1.515q0-.782.218-1.672.219-.891.657-1.641.453-.75 1.125-1.25.687-.5 1.625-.5.53 0 1.015.188a2.45 2.45 0 0 1 1.422 1.28q.219.454.219 1.016 0 .735-.313 1.375a3.6 3.6 0 0 1-.828 1.11q-.516.468-1.187.765a4 4 0 0 1-1.375.313q.061.453.36.656.31.203.734.203.312 0 .609-.156.296-.156.578-.344.282-.203.547-.36a1.15 1.15 0 0 1 .562-.155.87.87 0 0 1 .563.203.65.65 0 0 1 .25.531m-2.531-3.828a.94.94 0 0 0-.11-.422.36.36 0 0 0-.343-.219.9.9 0 0 0-.579.188 1.4 1.4 0 0 0-.39.453q-.157.266-.25.578a3 3 0 0 0-.094.578q.219-.047.516-.125.312-.078.578-.203a1.6 1.6 0 0 0 .469-.344.66.66 0 0 0 .203-.484m12.718.61q0 .077-.015.171a1 1 0 0 1-.047.156q-.141.36-.438.61a1.1 1.1 0 0 1-.703.234q-.609 0-.828-.61a.5.5 0 0 1-.031-.171q0-.11-.016-.219v-.453a.9.9 0 0 0-.109-.344q-.078-.125-.266-.125-.266 0-.515.344a3.8 3.8 0 0 0-.422.797 7 7 0 0 0-.281.937q-.11.485-.11.782 0 .234.031.578.032.328.125.64.094.313.25.547a.54.54 0 0 0 .438.219.8.8 0 0 0 .484-.156q.236-.172.453-.39.204-.189.438-.392a.87.87 0 0 1 .562-.203q.391 0 .61.282a.97.97 0 0 1 .234.64q0 .532-.281 1a3.2 3.2 0 0 1-.703.797q-.422.328-.938.516a2.7 2.7 0 0 1-.984.203q-.844 0-1.438-.422a3.3 3.3 0 0 1-.937-1.062 5 5 0 0 1-.516-1.422 7.3 7.3 0 0 1-.156-1.453q0-.798.219-1.72.219-.936.672-1.734a4.3 4.3 0 0 1 1.156-1.328q.719-.531 1.703-.531.609 0 1.047.266.453.265.734.703.297.422.438.953.156.531.156 1.047v.156a1 1 0 0 1-.016.156m3.844 6.452q-.797 0-1.39-.422a3.7 3.7 0 0 1-1-1.078 5.2 5.2 0 0 1-.61-1.453 6.6 6.6 0 0 1-.203-1.593q0-.829.203-1.704.204-.89.625-1.609.422-.735 1.078-1.187.657-.47 1.563-.47.875 0 1.484.485.625.469 1 1.188.375.702.531 1.547.157.843.11 1.593a8.6 8.6 0 0 1-.266 1.672 5.3 5.3 0 0 1-.609 1.516 3.5 3.5 0 0 1-1.031 1.093q-.626.422-1.485.422m.156-7.062q-.234 0-.421.25-.172.25-.297.61-.11.358-.172.765-.063.39-.063.687 0 .375.063.813.078.437.203.812.125.36.297.61.187.234.422.234.25 0 .422-.234.188-.235.296-.594.11-.36.157-.781a8 8 0 0 0 .047-.813q0-.343-.063-.75a4.3 4.3 0 0 0-.187-.781 1.8 1.8 0 0 0-.297-.594q-.172-.234-.407-.234m8.469 7.047q-.266 0-.422-.25a1.7 1.7 0 0 1-.234-.547 4 4 0 0 1-.109-.625 11 11 0 0 1-.016-.5q0-.469.047-.938l.125-.937q.078-.469.125-.938a7 7 0 0 0 .062-.937q0-.187-.015-.406a1.7 1.7 0 0 0-.078-.407.67.67 0 0 0-.172-.328.45.45 0 0 0-.328-.125q-.14 0-.313.235a3.3 3.3 0 0 0-.328.515q-.14.282-.25.578a1.5 1.5 0 0 0-.094.422v.703q.016.345.016.703v.907q-.016.28-.047.578t-.094.578a3.3 3.3 0 0 1-.14.547 1.8 1.8 0 0 1-.25.453q-.141.188-.344.313a.9.9 0 0 1-.485.124.7.7 0 0 1-.515-.203 1.5 1.5 0 0 1-.328-.515 3.6 3.6 0 0 1-.188-.719q-.047-.406-.078-.781-.016-.39-.016-.703.016-.33.016-.516v-.734q0-.594-.031-1.172-.016-.578-.016-1.157v-.796q.016-.485.125-.938.11-.468.36-.797.25-.328.734-.328.219 0 .391.14.171.142.296.345.141.202.219.437.094.235.141.406.156-.218.359-.422.218-.203.485-.359a2.55 2.55 0 0 1 1.343-.344q.797 0 1.235.39.453.376.656.954.218.562.266 1.219.046.656.046 1.187 0 .266-.046.797-.048.516-.157 1.156-.093.626-.265 1.297-.172.657-.407 1.203a3 3 0 0 1-.562.891q-.312.344-.719.344m7.61-9.032q0 .454-.313.672a6 6 0 0 1-.672.422q-.375.188-.687.453-.297.266-.297.797a.9.9 0 0 0 .125.485q.14.202.328.375.203.156.437.328.235.171.422.39.204.219.328.532.141.312.141.765 0 .657-.344 1.297a4.2 4.2 0 0 1-.859 1.125 4.3 4.3 0 0 1-1.172.781q-.656.297-1.297.297-.266 0-.531-.047a1.5 1.5 0 0 1-.484-.14 1.04 1.04 0 0 1-.344-.297.9.9 0 0 1-.141-.516q0-.436.172-.672a1.2 1.2 0 0 1 .438-.39q.265-.141.562-.219.312-.079.578-.187.266-.126.438-.313.172-.188.172-.531 0-.328-.266-.672a14 14 0 0 0-.563-.75 8 8 0 0 1-.578-.86 2.04 2.04 0 0 1-.25-1q0-.671.266-1.234.28-.578.734-1 .47-.422 1.063-.656.593-.25 1.25-.25.25 0 .484.047.25.046.438.172a.8.8 0 0 1 .297.312.86.86 0 0 1 .125.485m7.468 4.126a8.5 8.5 0 0 1-.172 1.703 4.7 4.7 0 0 1-.578 1.515 3.15 3.15 0 0 1-1.093 1.063q-.672.406-1.688.406-1 0-1.672-.39a3.2 3.2 0 0 1-1.078-1.063 4.8 4.8 0 0 1-.562-1.484 9 9 0 0 1-.157-1.688q0-.937.219-1.86.047-.249.172-.687.14-.453.344-.875.219-.438.484-.75.282-.312.609-.312.313 0 .5.172.188.171.297.437.11.25.141.547.031.281.031.516 0 .358-.062.703-.048.343-.11.687l-.125.938a9.5 9.5 0 0 0-.031 1.468q.032.282.125.547.094.266.266.453.172.172.484.172.406 0 .641-.218.25-.22.359-.547.124-.329.156-.703.032-.376.032-.688 0-.687-.094-1.344a51 51 0 0 1-.172-1.36 1.5 1.5 0 0 1 .062-.687q.079-.234.219-.421.141-.189.344-.297a.85.85 0 0 1 .453-.125q.344 0 .609.25.266.234.438.625.188.375.297.859.125.469.187.938.079.452.094.859.031.406.031.64m10.438-.688v.813q0 .5-.031 1.093-.016.594-.094 1.203a5.3 5.3 0 0 1-.25 1.078q-.157.485-.406.797a.79.79 0 0 1-.641.313.6.6 0 0 1-.531-.281 2.2 2.2 0 0 1-.25-.688 5 5 0 0 1-.094-.797v-.64q0-.705.047-1.375.047-.672.047-1.375v-.282q0-.202-.032-.406a1.2 1.2 0 0 0-.109-.36q-.063-.155-.203-.155-.282 0-.453.296a2.6 2.6 0 0 0-.281.672q-.11.39-.157.782-.047.375-.062.562a9 9 0 0 0-.063.61q-.015.405-.062.89a9 9 0 0 1-.125 1 6 6 0 0 1-.219.922q-.125.406-.328.672-.203.265-.5.265a.64.64 0 0 1-.578-.328 2.4 2.4 0 0 1-.297-.765 6 6 0 0 1-.125-.891q-.016-.454-.016-.703v-.516q.016-.25.016-.515v-.36q0-.25-.016-.547 0-.312-.031-.64a5 5 0 0 0-.062-.594 1.5 1.5 0 0 0-.141-.453q-.094-.172-.219-.172-.202 0-.375.266-.171.25-.297.609a6 6 0 0 0-.203.688q-.062.343-.062.5v.093q0 .75.093 1.469.094.72.094 1.469 0 .437-.281.812-.282.36-.781.36a.76.76 0 0 1-.594-.266 2.4 2.4 0 0 1-.391-.719 6 6 0 0 1-.25-.953 13 13 0 0 1-.109-1.031 39 39 0 0 1-.047-.922v-.625a20 20 0 0 0-.016-.687q0-.453.016-.985.031-.53.094-1.078a5.4 5.4 0 0 1 .203-1.016q.14-.453.359-.734a.73.73 0 0 1 .594-.297q.407 0 .656.219.266.218.266.656 0 .094-.016.188 0 .093-.015.172a3.5 3.5 0 0 1 .422-.5q.249-.267.531-.47.297-.218.625-.343.328-.14.656-.14.312 0 .563.171t.437.438a2.6 2.6 0 0 1 .313.547q.124.296.171.562a5 5 0 0 1 .375-.562q.235-.297.5-.516.266-.219.579-.36.327-.14.671-.14.329 0 .563.234t.406.61q.172.36.266.828.093.453.156.906.063.438.078.828.016.375.016.594m7.672 2.953q0 .281-.032.735-.015.452-.125.89a2.1 2.1 0 0 1-.343.735q-.235.312-.657.312-.578 0-.89-.375t-.297-.937q-.5.436-1.141.687-.624.25-1.281.25-.453 0-.859-.219a2.7 2.7 0 0 1-.719-.562 2.9 2.9 0 0 1-.5-.766 2.2 2.2 0 0 1-.188-.86q0-.75.454-1.312a4.2 4.2 0 0 1 1.14-.953q.672-.406 1.422-.64.766-.235 1.359-.313v-.14a.6.6 0 0 0 .016-.141q0-.485-.266-.782-.265-.296-.75-.296-.39 0-.671.14a3.3 3.3 0 0 0-.532.297q-.25.156-.5.297a1.24 1.24 0 0 1-.562.125.87.87 0 0 1-.594-.219.74.74 0 0 1-.234-.562q0-.516.297-.938.312-.421.765-.703a4 4 0 0 1 1-.453 3.4 3.4 0 0 1 1-.172q.422 0 .844.11.422.093.797.312.375.203.672.516.312.296.5.703.28.578.453 1.234.172.64.265 1.328.095.672.125 1.36.032.671.032 1.312m-2.5-.5-.047-1.062h-.063a.14.14 0 0 0-.062-.016q-.203 0-.516.11-.296.093-.578.28a2.3 2.3 0 0 0-.484.391.7.7 0 0 0-.188.453q0 .219.156.297a.8.8 0 0 0 .36.078q.344 0 .734-.172.391-.186.688-.359m13.843.5q0 .281-.031.735-.015.452-.125.89a2.1 2.1 0 0 1-.344.735q-.234.312-.656.312-.578 0-.89-.375-.314-.375-.297-.937-.5.436-1.141.687-.626.25-1.281.25a1.8 1.8 0 0 1-.86-.219 2.7 2.7 0 0 1-.718-.562 2.8 2.8 0 0 1-.5-.766 2.2 2.2 0 0 1-.188-.86q0-.75.453-1.312a4.3 4.3 0 0 1 1.141-.953q.672-.406 1.422-.64.765-.235 1.359-.313v-.14a.6.6 0 0 0 .016-.141q0-.485-.266-.782-.266-.296-.75-.296-.39 0-.672.14a3.3 3.3 0 0 0-.531.297q-.25.156-.5.297a1.24 1.24 0 0 1-.562.125.87.87 0 0 1-.594-.219.74.74 0 0 1-.235-.562q0-.516.297-.938.313-.421.766-.703a4 4 0 0 1 1-.453 3.4 3.4 0 0 1 1-.172q.421 0 .844.11.422.093.797.312.375.203.671.516.313.296.5.703.282.578.454 1.234.172.64.265 1.328.094.672.125 1.36.031.671.031 1.312m-2.5-.5-.046-1.062h-.063a.14.14 0 0 0-.062-.016 1.6 1.6 0 0 0-.516.11 2.3 2.3 0 0 0-.578.28 2.3 2.3 0 0 0-.485.391.7.7 0 0 0-.187.453q0 .219.156.297a.8.8 0 0 0 .36.078q.344 0 .734-.172.39-.186.687-.359m6.36-6.765q0 .843-.078 1.703-.063.843-.063 1.703 0 1.11.063 2.218.078 1.11.078 2.235 0 .28-.031.64-.031.344-.157.641a1.2 1.2 0 0 1-.343.5q-.235.203-.625.203-.375 0-.657-.375a3.3 3.3 0 0 1-.453-.922 12 12 0 0 1-.297-1.28q-.11-.705-.172-1.36a107 107 0 0 1-.078-1.219 35 35 0 0 1-.015-.828q0-.296.015-.86.032-.561.11-1.218.077-.657.203-1.328a7 7 0 0 1 .359-1.235q.219-.562.516-.906.312-.36.734-.36.344 0 .516.235.187.219.265.547.08.312.094.672.016.344.016.593m8.265 4.14q0 .797-.031 1.594-.015.796-.078 1.594-.047.687-.125 1.468-.078.782-.25 1.547a9.6 9.6 0 0 1-.453 1.485 4.4 4.4 0 0 1-.75 1.265 3.4 3.4 0 0 1-1.109.875q-.657.328-1.563.328-.422 0-.953-.14a4.2 4.2 0 0 1-.984-.375 2.9 2.9 0 0 1-.782-.625 1.25 1.25 0 0 1-.312-.844q0-.36.25-.672a.86.86 0 0 1 .672-.297q.25 0 .468.078.235.094.454.203.234.11.437.188.219.094.438.094.578 0 .968-.297.391-.282.625-.734.235-.438.344-.97.125-.515.172-.984-.312.36-.734.5a3 3 0 0 1-.86.125q-.828 0-1.406-.28a2.6 2.6 0 0 1-.938-.798 3.7 3.7 0 0 1-.531-1.187 6 6 0 0 1-.172-1.453q0-.485.094-1.094a9.3 9.3 0 0 1 .813-2.453q.312-.594.718-1.047t.907-.734a2.3 2.3 0 0 1 1.125-.282q.593 0 1.046.344.47.344.547.969.172-.329.453-.64a.87.87 0 0 1 .688-.329q.22 0 .359.219.156.218.235.578.093.343.14.766.047.405.063.812.015.39.015.719zm-2.375 1.016q0-.235-.078-.61a3.3 3.3 0 0 0-.203-.718 2 2 0 0 0-.328-.594q-.203-.25-.484-.25a.94.94 0 0 0-.641.25 2.3 2.3 0 0 0-.453.61q-.187.342-.297.75-.094.39-.094.671 0 .204.032.547.03.344.125.672.108.328.281.562a.53.53 0 0 0 .453.235q.422 0 .734-.203.314-.204.516-.516.219-.312.328-.687t.109-.72m6.454 4.765q-.798 0-1.391-.422a3.7 3.7 0 0 1-1-1.078 5.2 5.2 0 0 1-.609-1.453 6.5 6.5 0 0 1-.204-1.593q0-.829.204-1.704.202-.89.625-1.609.421-.735 1.078-1.187.656-.47 1.562-.47.875 0 1.485.485.625.469 1 1.188.375.702.531 1.547.156.843.109 1.593a8.6 8.6 0 0 1-.265 1.672 5.3 5.3 0 0 1-.61 1.516 3.5 3.5 0 0 1-1.031 1.093q-.626.422-1.484.422m.156-7.062q-.234 0-.422.25-.172.25-.297.61-.11.358-.172.765-.062.39-.062.687 0 .375.062.813.078.437.203.812.126.36.297.61.188.234.422.234.25 0 .422-.234.187-.235.297-.594.11-.36.156-.781a8 8 0 0 0 .047-.813q0-.343-.063-.75a4.3 4.3 0 0 0-.187-.781 1.8 1.8 0 0 0-.297-.594q-.172-.234-.406-.234m13.594.61q0 .077-.016.171a1 1 0 0 1-.047.156 1.5 1.5 0 0 1-.437.61 1.1 1.1 0 0 1-.704.234q-.609 0-.828-.61a.5.5 0 0 1-.031-.171q0-.11-.016-.219v-.453a.9.9 0 0 0-.109-.344q-.078-.125-.266-.125-.266 0-.515.344a3.8 3.8 0 0 0-.422.797 7 7 0 0 0-.281.937q-.11.485-.11.782 0 .234.032.578.03.328.125.64.093.313.25.547.171.219.437.219a.8.8 0 0 0 .484-.156q.235-.172.454-.39.203-.189.437-.392a.87.87 0 0 1 .563-.203q.39 0 .609.282a.97.97 0 0 1 .234.64q0 .532-.281 1a3.2 3.2 0 0 1-.703.797q-.422.328-.938.516a2.7 2.7 0 0 1-.984.203q-.844 0-1.437-.422a3.3 3.3 0 0 1-.938-1.062 5 5 0 0 1-.516-1.422 7.3 7.3 0 0 1-.156-1.453q0-.798.219-1.72.219-.936.672-1.734a4.3 4.3 0 0 1 1.156-1.328q.719-.531 1.703-.531.609 0 1.047.266.453.265.734.703.297.422.438.953.156.531.156 1.047v.156a1 1 0 0 1-.015.156m3.843 6.452q-.796 0-1.39-.422a3.7 3.7 0 0 1-1-1.078 5.2 5.2 0 0 1-.61-1.453 6.6 6.6 0 0 1-.203-1.593q0-.829.203-1.704.204-.89.625-1.609.423-.735 1.078-1.187.657-.47 1.563-.47.875 0 1.484.485.625.469 1 1.188.375.702.532 1.547.156.843.109 1.593a8.6 8.6 0 0 1-.266 1.672 5.3 5.3 0 0 1-.609 1.516 3.5 3.5 0 0 1-1.031 1.093q-.626.422-1.485.422m.157-7.062q-.235 0-.422.25-.173.25-.297.61-.11.358-.172.765-.063.39-.063.687 0 .375.063.813.078.437.203.812.125.36.297.61.188.234.422.234.25 0 .422-.234.188-.235.297-.594.109-.36.156-.781a8 8 0 0 0 .047-.813q0-.343-.063-.75a4.3 4.3 0 0 0-.187-.781 1.8 1.8 0 0 0-.297-.594q-.172-.234-.406-.234m13.515 1.453v.813q0 .5-.031 1.093-.015.594-.094 1.203a5.3 5.3 0 0 1-.25 1.078 2.5 2.5 0 0 1-.406.797.79.79 0 0 1-.641.313.6.6 0 0 1-.531-.281 2.2 2.2 0 0 1-.25-.688 5 5 0 0 1-.094-.797v-.64q0-.705.047-1.375.047-.672.047-1.375v-.282q0-.202-.031-.406a1.2 1.2 0 0 0-.11-.36q-.062-.155-.203-.155-.28 0-.453.296a2.7 2.7 0 0 0-.281.672q-.11.39-.156.782-.047.375-.063.562a9 9 0 0 0-.062.61q-.017.405-.063.89a9 9 0 0 1-.125 1 6 6 0 0 1-.219.922q-.124.406-.328.672-.203.265-.5.265a.64.64 0 0 1-.578-.328 2.4 2.4 0 0 1-.297-.765 6.4 6.4 0 0 1-.125-.891 23 23 0 0 1-.015-.703v-.516q.015-.25.015-.515v-.36a11 11 0 0 0-.015-.547q0-.312-.032-.64a5 5 0 0 0-.062-.594 1.4 1.4 0 0 0-.141-.453q-.093-.172-.218-.172-.204 0-.375.266-.172.25-.297.609-.125.344-.203.688-.063.343-.063.5v.093q0 .75.094 1.469t.094 1.469q0 .437-.282.812-.281.36-.781.36a.76.76 0 0 1-.594-.266 2.4 2.4 0 0 1-.39-.719 6 6 0 0 1-.25-.953 13 13 0 0 1-.11-1.031 45 45 0 0 1-.047-.922v-.625q0-.235-.015-.687 0-.453.015-.985.032-.53.094-1.078.063-.563.203-1.016t.36-.734a.72.72 0 0 1 .593-.297q.406 0 .657.219.265.218.265.656 0 .094-.015.188a1 1 0 0 1-.016.172q.172-.25.422-.5.25-.267.531-.47.297-.218.625-.343.329-.14.656-.14a.97.97 0 0 1 .563.171q.25.172.437.438.188.25.313.547.125.296.172.562.156-.281.375-.562.234-.297.5-.516t.578-.36q.329-.14.672-.14.328 0 .562.234t.407.61q.172.36.265.828.094.453.156.906.063.438.079.828.015.375.015.594m11.438 2.953q0 .281-.032.735-.015.452-.125.89a2.1 2.1 0 0 1-.343.735q-.235.312-.657.312-.578 0-.89-.375t-.297-.937q-.5.436-1.141.687-.624.25-1.281.25-.453 0-.859-.219a2.7 2.7 0 0 1-.719-.562 2.9 2.9 0 0 1-.5-.766 2.2 2.2 0 0 1-.188-.86q0-.75.454-1.312a4.2 4.2 0 0 1 1.14-.953q.672-.406 1.422-.64.766-.235 1.359-.313v-.14a.6.6 0 0 0 .016-.141q0-.485-.266-.782-.265-.296-.75-.296-.39 0-.671.14a3.3 3.3 0 0 0-.532.297q-.25.156-.5.297a1.24 1.24 0 0 1-.562.125.87.87 0 0 1-.594-.219.74.74 0 0 1-.234-.562q0-.516.297-.938.312-.421.765-.703a4 4 0 0 1 1-.453 3.4 3.4 0 0 1 1-.172q.422 0 .844.11.422.093.797.312.375.203.672.516.312.296.5.703.28.578.453 1.234.172.64.265 1.328.095.672.125 1.36.032.671.032 1.312m-2.5-.5-.047-1.062h-.063a.14.14 0 0 0-.062-.016q-.203 0-.516.11-.296.093-.578.28a2.3 2.3 0 0 0-.484.391.7.7 0 0 0-.188.453q0 .219.156.297a.8.8 0 0 0 .36.078q.344 0 .734-.172.391-.186.688-.359m8.297 5q0 .453-.219.844-.22.39-.563.687a2.7 2.7 0 0 1-.781.47 2.3 2.3 0 0 1-.859.171q-.313 0-.641-.062a2 2 0 0 1-.594-.188 2 2 0 0 1-.484-.36 1.4 1.4 0 0 1-.328-.546.45.45 0 0 1-.047-.203.55.55 0 0 1 .187-.422.65.65 0 0 1 .422-.172q.204 0 .328.11l.297.265q.156.14.375.25.219.125.594.125a1 1 0 0 0 .594-.203.64.64 0 0 0 .281-.547.5.5 0 0 0-.172-.39 1.8 1.8 0 0 0-.375-.282l-.437-.25a.85.85 0 0 1-.328-.266q-.125-.17-.125-.5v-.75a2.2 2.2 0 0 1-1.079-.562 3.5 3.5 0 0 1-.703-1.016 5.3 5.3 0 0 1-.39-1.234 6.6 6.6 0 0 1-.125-1.25 7 7 0 0 1 .093-1.094q.094-.578.282-1.14a6 6 0 0 1 .484-1.079q.297-.515.688-.906.405-.39.906-.625a2.7 2.7 0 0 1 1.14-.234q.563 0 .985.25.421.25.687.656.281.406.422.906t.141 1q0 .125-.016.297a.8.8 0 0 1-.047.297q-.124.312-.406.547a1 1 0 0 1-.641.219q-.531 0-.734-.532a1.2 1.2 0 0 1-.047-.359 2 2 0 0 0-.015-.437.84.84 0 0 0-.11-.376q-.094-.156-.328-.156-.281 0-.531.344a3.4 3.4 0 0 0-.438.797q-.187.468-.297.953a3.5 3.5 0 0 0-.109.75q0 .203.031.547.047.328.141.656.11.328.281.563a.58.58 0 0 0 .469.234.86.86 0 0 0 .516-.172 5 5 0 0 0 .453-.375q.218-.219.437-.39a.77.77 0 0 1 .485-.172q.327 0 .531.25.219.25.219.578 0 .406-.188.781-.187.36-.484.656t-.688.516q-.375.219-.765.312v.094q0 .094-.016.203a.4.4 0 0 1-.047.203q.25.094.547.25.297.172.547.391.25.234.422.5a1.1 1.1 0 0 1 .172.578m8.375-6.765q0 .858-.172 1.703a4.8 4.8 0 0 1-.578 1.515 3.15 3.15 0 0 1-1.094 1.063q-.672.406-1.688.406-1 0-1.672-.39a3.2 3.2 0 0 1-1.078-1.063 4.8 4.8 0 0 1-.562-1.484 9 9 0 0 1-.156-1.688q0-.937.218-1.86.048-.249.172-.687.141-.453.344-.875.219-.438.484-.75.282-.312.61-.312.312 0 .5.172t.297.437q.108.25.14.547.031.281.031.516 0 .358-.062.703-.047.343-.109.687l-.125.938a9 9 0 0 0-.032 1.468q.032.282.125.547.094.266.266.453.172.172.484.172.407 0 .641-.218.25-.22.359-.547.126-.329.157-.703.03-.376.031-.688 0-.687-.094-1.344-.093-.671-.172-1.36a1.5 1.5 0 0 1 .063-.687 1.5 1.5 0 0 1 .218-.421q.141-.189.344-.297a.85.85 0 0 1 .453-.125q.344 0 .61.25.266.234.437.625.188.375.297.859.125.469.188.938.078.452.093.859.032.406.032.64m-1.469-7.047q0 .171-.094.343a1.6 1.6 0 0 1-.234.297 2.3 2.3 0 0 1-.282.266q-.156.109-.281.203a8 8 0 0 0-.25.188 3 3 0 0 1-.281.187 3 3 0 0 1-.297.14.7.7 0 0 1-.281.063.4.4 0 0 1-.219-.062.27.27 0 0 1-.094-.22q0-.233.172-.562a4 4 0 0 1 .453-.656q.266-.328.563-.547.297-.234.547-.234.219 0 .39.187.188.172.188.407m8.219 5.515q0 .078-.016.172a1 1 0 0 1-.047.156 1.5 1.5 0 0 1-.437.61 1.1 1.1 0 0 1-.704.234q-.609 0-.828-.61a.5.5 0 0 1-.031-.171q0-.11-.016-.219v-.453a.9.9 0 0 0-.109-.344q-.078-.125-.266-.125-.266 0-.515.344a3.8 3.8 0 0 0-.422.797 7 7 0 0 0-.281.937q-.11.485-.11.782 0 .234.032.578.03.328.125.64.093.313.25.547.171.219.437.219a.8.8 0 0 0 .484-.156q.235-.172.454-.39.203-.189.437-.392a.87.87 0 0 1 .563-.203q.39 0 .609.282a.97.97 0 0 1 .234.64q0 .532-.281 1a3.2 3.2 0 0 1-.703.797q-.422.328-.938.516a2.7 2.7 0 0 1-.984.203q-.844 0-1.437-.422a3.3 3.3 0 0 1-.938-1.062 5 5 0 0 1-.516-1.422 7.3 7.3 0 0 1-.156-1.453q0-.798.219-1.72.219-.936.672-1.734a4.3 4.3 0 0 1 1.156-1.328q.719-.531 1.703-.531.609 0 1.047.266.453.265.734.703.297.422.438.953.156.531.156 1.047v.156a1 1 0 0 1-.015.156m7.515 3.797q0 .281-.031.735-.015.452-.125.89a2.1 2.1 0 0 1-.344.735q-.234.312-.656.312-.577 0-.891-.375-.312-.375-.297-.937-.5.436-1.14.687-.625.25-1.281.25-.454 0-.86-.219a2.7 2.7 0 0 1-.719-.562 2.9 2.9 0 0 1-.5-.766 2.2 2.2 0 0 1-.187-.86q0-.75.453-1.312a4.3 4.3 0 0 1 1.141-.953q.672-.406 1.422-.64.765-.235 1.359-.313v-.14a.6.6 0 0 0 .016-.141q0-.485-.266-.782-.265-.296-.75-.296-.39 0-.672.14a3.3 3.3 0 0 0-.531.297q-.25.156-.5.297a1.24 1.24 0 0 1-.563.125.87.87 0 0 1-.593-.219.73.73 0 0 1-.235-.562q0-.516.297-.938.313-.421.766-.703a4 4 0 0 1 1-.453 3.4 3.4 0 0 1 1-.172q.421 0 .843.11.422.093.797.312.375.203.672.516.313.296.5.703.282.578.453 1.234.172.64.266 1.328.093.672.125 1.36.031.671.031 1.312m-2.5-.5-.047-1.062h-.062a.14.14 0 0 0-.063-.016q-.203 0-.515.11a2.3 2.3 0 0 0-.578.28 2.3 2.3 0 0 0-.485.391.7.7 0 0 0-.187.453q0 .219.156.297a.8.8 0 0 0 .359.078q.343 0 .735-.172.39-.186.687-.359m8.86-3.14q-.219.015-.375-.032l-.313-.125a3 3 0 0 0-.281-.11.6.6 0 0 0-.313-.046q-.313.015-.562.172a2.2 2.2 0 0 0-.438.39 2.7 2.7 0 0 0-.328.532 3 3 0 0 0-.219.562 4 4 0 0 0-.078.578q-.015.375-.015.813a24 24 0 0 0-.016.86q0 .406-.031.64a6 6 0 0 1-.078.594 2.6 2.6 0 0 1-.203.625 1.4 1.4 0 0 1-.344.5.8.8 0 0 1-.563.203.75.75 0 0 1-.468-.157 1.5 1.5 0 0 1-.329-.406 4 4 0 0 1-.218-.61 8 8 0 0 1-.125-.702q-.048-.375-.078-.75-.016-.375-.032-.703v-.625q.016-.282.016-.453-.015-.548-.063-1.094-.03-.562-.031-1.11 0-.344.031-.765.032-.422.172-.782a1.6 1.6 0 0 1 .407-.624q.28-.25.765-.25.265 0 .453.171.187.172.297.422.126.25.188.532.062.28.078.515.375-.609.844-.984.468-.39 1.218-.422.375-.015.735.078.375.078.672.281.312.188.5.5.203.313.218.735.031.5-.297.765t-.796.282m4.25-.704q0 .25-.032.688a20 20 0 0 1-.093.922 10 10 0 0 1-.188 1q-.109.5-.266.922-.156.405-.375.672-.218.25-.5.25-.344 0-.593-.329a3.5 3.5 0 0 1-.407-.859 9 9 0 0 1-.25-1.172 19 19 0 0 1-.14-1.25 27 27 0 0 1-.063-1.14v-1.516q0-.439.032-.922.046-.484.125-.953.094-.485.265-.875.173-.39.453-.625a1.02 1.02 0 0 1 .703-.25q.375 0 .61.328.25.312.39.828.158.5.219 1.125.079.625.094 1.235.031.593.016 1.109zm-.297 5.938a.9.9 0 0 1-.125.469q-.126.188-.328.312a1.4 1.4 0 0 1-.438.203 1.8 1.8 0 0 1-.469.063q-.344 0-.656-.188-.312-.172-.312-.562 0-.235.125-.422.14-.204.343-.344.204-.141.438-.219.25-.078.469-.078.359 0 .656.188.297.171.297.578"/><defs><filter id="a" width="323.412" height="114.598" x="-23" y="0" color-interpolation-filters="sRGB" filterUnits="userSpaceOnUse"><feFlood flood-opacity="0" result="BackgroundImageFix"/><feBlend in="SourceGraphic" in2="BackgroundImageFix" result="shape"/><feColorMatrix in="SourceAlpha" result="hardAlpha" values="0 0 0 0 0 0 0 0 0 0 0 0 0 0 0 0 0 0 127 0"/><feOffset dy="4"/><feGaussianBlur stdDeviation="2"/><feComposite in2="hardAlpha" k2="-1" k3="1" operator="arithmetic"/><feColorMatrix values="0 0 0 0 0 0 0 0 0 0 0 0 0 0 0 0 0 0 0.25 0"/><feBlend in2="shape" result="effect1_innerShadow_1137_1189"/></filter></defs></svg>