<svg xmlns="http://www.w3.org/2000/svg" width="276" height="105" fill="none" viewBox="0 0 276 105"><g filter="url(#a)"><path fill="#f4719c" fill-rule="evenodd" d="M39.013 66.726C12.55 59.886 1 49.79 1 38.864 1 25.42 24.296 12.139 62.835 5.572 81.528 2.387 103.49 1 128.723 1c77.258 0 148.505 13.717 145.464 37.864 0 11.981-13.186 22.999-40.041 29.576-14.643 3.587-33.168 5.705-56.345 6.356-9.117 12.535-22.46 18.99-44.352 29.204 16.054-11.906 25.89-19.581 29.449-28.988l-1.229.001c-54.76 2.144-96.174-1.442-122.657-8.287" clip-rule="evenodd"/></g><path fill="#f4719c" d="m39.013 66.726.25-.968zM62.835 5.572l.168.986zm211.352 33.292-.992-.125a1 1 0 0 0-.008.125zM234.146 68.44l.238.972zm-56.345 6.356-.028-1a1 1 0 0 0-.781.412zM133.449 104l-.595-.803a1 1 0 0 0 1.018 1.709zm29.449-28.988.935.354a1 1 0 0 0-.937-1.354zm-1.229.001v-1h-.039zM1 38.863H0C0 44.73 3.115 50.25 9.475 55.122c6.345 4.859 15.992 9.136 29.287 12.573l.25-.968.25-.968c-13.166-3.404-22.525-7.595-28.571-12.225C4.66 48.915 2 43.925 2 38.863zm61.835-33.29-.168-.987c-19.333 3.295-34.909 8.282-45.681 14.176C6.296 24.61 0 31.546 0 38.864h2c0-6.126 5.352-12.552 15.946-18.348 10.51-5.75 25.851-10.685 45.057-13.958zM128.723 1V0c-25.265 0-47.288 1.389-66.056 4.586l.168.986.168.986C81.62 3.386 103.521 2 128.723 2zm145.464 37.864.993.125c.834-6.63-3.478-12.327-11.042-17.075-7.596-4.768-18.754-8.777-32.339-12.01C204.608 3.432 167.398 0 128.723 0v2c38.584 0 75.626 3.426 102.613 9.85 13.504 3.214 24.416 7.161 31.738 11.758 7.353 4.615 10.807 9.687 10.121 15.13zM234.146 68.44l.238.972c13.501-3.307 23.656-7.75 30.46-12.938 6.811-5.195 10.343-11.21 10.343-17.61h-2c0 5.58-3.06 11.066-9.556 16.02-6.504 4.96-16.369 9.314-29.723 12.585zm-56.345 6.356.028 1c23.216-.653 41.818-2.775 56.555-6.384l-.238-.972-.238-.971c-14.549 3.563-32.997 5.677-56.135 6.328zm0 0-.809-.588c-8.937 12.287-22.014 18.643-43.966 28.886l.423.906.423.906c21.832-10.187 35.44-16.739 44.737-29.522zM133.449 104l.596.803c8.018-5.946 14.538-10.875 19.497-15.503 4.963-4.632 8.435-9.027 10.291-13.934l-.935-.354-.935-.354c-1.702 4.5-4.928 8.646-9.786 13.18-4.862 4.538-11.288 9.4-19.323 15.359zm28.22-28.987v1l1.231-.001-.002-1-.002-1-1.227.001zM39.012 66.726l-.25.968c26.617 6.88 68.141 10.464 122.946 8.318l-.039-.999-.039-1c-54.714 2.143-96.02-1.445-122.367-8.255z"/><path fill="#fff" d="M49.365 27.643v.39q-.014.58-.062 1.235-.047.657-.156 1.297a7 7 0 0 1-.328 1.234q-.219.579-.594 1.032t-.922.718-1.328.266q-.844 0-1.485-.36a3.35 3.35 0 0 1-1.047-.937 4.2 4.2 0 0 1-.624-1.312 5.6 5.6 0 0 1-.204-1.485q0-.328.078-.734.063-.407.235-.75.171-.36.437-.594a1.02 1.02 0 0 1 .703-.25q.454 0 .672.25.235.25.328.625.11.36.141.797.03.422.078.797.048.36.157.61.124.25.406.25.327 0 .515-.282a1.9 1.9 0 0 0 .266-.656q.094-.39.11-.782.03-.39.03-.609 0-.875-.156-1.703a21 21 0 0 0-.359-1.703 38 38 0 0 0-.234-.89 3.4 3.4 0 0 1-.125-.907q0-.53.28-.86.282-.343.829-.343.406 0 .64.172.235.156.47.468.359.485.593 1.11.25.625.39 1.297.142.671.204 1.36.062.67.062 1.25m7.782 1.344a8.5 8.5 0 0 1-.172 1.703 4.7 4.7 0 0 1-.578 1.516q-.407.655-1.094 1.062-.671.406-1.688.406-1 0-1.672-.39a3.2 3.2 0 0 1-1.078-1.063 4.8 4.8 0 0 1-.562-1.484 9 9 0 0 1-.156-1.688q0-.937.218-1.86.048-.249.172-.687.141-.453.344-.875.219-.436.484-.75.282-.312.61-.312.312 0 .5.172t.297.437q.109.251.14.547.032.282.032.516 0 .36-.063.703-.047.344-.11.687l-.124.938a9.4 9.4 0 0 0-.032 1.469q.032.281.125.547.094.265.266.453.172.171.484.172.407 0 .641-.22.25-.218.36-.546.124-.328.156-.703.03-.376.03-.688a9.5 9.5 0 0 0-.093-1.343q-.093-.672-.172-1.36a1.5 1.5 0 0 1 .063-.687q.078-.235.218-.422.141-.188.344-.297a.85.85 0 0 1 .453-.125q.345 0 .61.25.266.234.437.625.188.375.297.86.125.468.188.937.078.453.093.86.032.406.032.64m5.39 4.906q-.266 0-.422-.25a1.7 1.7 0 0 1-.234-.547 4.4 4.4 0 0 1-.11-.625q-.015-.328-.015-.5 0-.468.047-.937l.125-.938q.078-.468.125-.937.062-.469.062-.938 0-.187-.015-.406a1.7 1.7 0 0 0-.078-.406.66.66 0 0 0-.172-.328.44.44 0 0 0-.328-.125q-.14 0-.313.234a3.4 3.4 0 0 0-.328.516q-.14.28-.25.578a1.5 1.5 0 0 0-.094.422v.703q.015.343.016.703v.906q-.015.281-.047.578-.03.297-.094.578-.047.282-.14.547a1.7 1.7 0 0 1-.25.453q-.141.188-.344.313a.9.9 0 0 1-.484.125.7.7 0 0 1-.516-.203 1.5 1.5 0 0 1-.328-.516 3.6 3.6 0 0 1-.188-.719q-.047-.405-.078-.78a18 18 0 0 1-.016-.704q.016-.328.016-.516v-.734q0-.594-.031-1.172-.015-.577-.016-1.156v-.797a4.6 4.6 0 0 1 .125-.938q.11-.468.36-.796.25-.33.734-.329a.6.6 0 0 1 .39.141q.172.14.297.344.14.203.22.437.093.235.14.407.156-.22.36-.422.217-.203.484-.36a2.54 2.54 0 0 1 1.343-.343q.797 0 1.235.39.453.375.656.953.219.563.266 1.22.046.655.046 1.187 0 .265-.046.796-.048.516-.157 1.157-.093.625-.265 1.297a8.6 8.6 0 0 1-.406 1.203 3 3 0 0 1-.563.89q-.312.344-.719.344m6.672.125q-1.11 0-1.734-.297a2 2 0 0 1-.922-.812q-.297-.532-.36-1.282a23 23 0 0 1-.016-3.14q.048-.75.141-1.594-.218 0-.343.016h-.203q-.5 0-.86-.22-.375-.218-.375-.67 0-.282.219-.5.203-.22.531-.376t.703-.25q.39-.093.735-.125 0-.437.062-.969.063-.531.219-.984.173-.47.453-.781a.92.92 0 0 1 .719-.313q.25 0 .437.156.203.142.329.375.124.22.187.5.063.282.063.547 0 .313-.047.64-.048.33-.172.813.266-.03.36-.03.093-.016.171-.016.266 0 .547.046.297.048.531.157.25.11.406.297a.6.6 0 0 1 .157.421.67.67 0 0 1-.235.5 1.9 1.9 0 0 1-.562.375q-.344.157-.735.25-.39.079-.734.11-.094.64-.14 1.187-.032.532-.079 1.078l-.062.547q-.016.266-.016.547 0 .203.016.485.015.266.11.515.093.25.296.438.203.171.563.172.218 0 .453-.032a2.4 2.4 0 0 1 .468-.047q.406 0 .579.282.186.281.187.718a.9.9 0 0 1-.203.579 1.35 1.35 0 0 1-.484.375 2.6 2.6 0 0 1-.672.234q-.36.078-.688.078m5.328-.11q-.797 0-1.39-.421a3.7 3.7 0 0 1-1-1.078 5.2 5.2 0 0 1-.61-1.453 6.6 6.6 0 0 1-.203-1.594q0-.828.203-1.703.204-.89.625-1.61.421-.735 1.078-1.187.657-.47 1.563-.469.875 0 1.484.484.625.47 1 1.188.375.703.531 1.547t.11 1.594a8.6 8.6 0 0 1-.266 1.671 5.3 5.3 0 0 1-.61 1.516q-.405.672-1.03 1.094-.626.422-1.485.422m.156-7.062q-.234 0-.421.25-.172.25-.297.61-.11.36-.172.765-.063.39-.063.688 0 .375.063.812.078.438.203.813.125.359.297.61.188.233.422.233.25 0 .422-.234.188-.234.296-.594.11-.36.157-.78.047-.439.047-.813 0-.345-.063-.75a4.3 4.3 0 0 0-.187-.782 1.8 1.8 0 0 0-.297-.593q-.172-.235-.406-.235m8.61-1.984q0 .453-.313.672a6 6 0 0 1-.671.422q-.376.187-.688.453-.297.265-.297.797 0 .281.125.484.14.203.328.375.203.156.438.328a2.5 2.5 0 0 1 .422.39q.202.22.328.532.14.312.14.766 0 .656-.343 1.296a4.3 4.3 0 0 1-.86 1.125 4.3 4.3 0 0 1-1.172.782q-.656.297-1.296.297-.267 0-.532-.047a1.5 1.5 0 0 1-.484-.14 1.05 1.05 0 0 1-.344-.298.9.9 0 0 1-.14-.515q0-.438.171-.672a1.2 1.2 0 0 1 .438-.39q.265-.142.562-.22.313-.078.579-.187.265-.125.437-.313t.172-.53q0-.33-.266-.673-.25-.36-.562-.75a8 8 0 0 1-.578-.86 2.04 2.04 0 0 1-.25-1q0-.671.265-1.234a3.4 3.4 0 0 1 .735-1 3.5 3.5 0 0 1 1.062-.656q.594-.25 1.25-.25.25 0 .484.047.25.047.438.172a.8.8 0 0 1 .297.312.86.86 0 0 1 .125.485m2.875 7.765q0 .25-.14.641-.126.39-.329.766-.187.375-.437.64-.25.266-.485.266-.312 0-.312-.313 0-.187.078-.359.079-.172.172-.344a3 3 0 0 0 .172-.328.7.7 0 0 0 .078-.312.9.9 0 0 1-.5.156.79.79 0 0 1-.61-.281.92.92 0 0 1-.25-.625q0-.501.329-.797.327-.312.828-.313.563 0 .984.297t.422.906m11.125-4.765q-.407 1.079-.89 2.25a21 21 0 0 1-1.048 2.187 4.6 4.6 0 0 1-.765 1.047q-.421.406-.969.406-.437 0-.86-.437a6.6 6.6 0 0 1-.765-1.063q-.344-.624-.61-1.25a23 23 0 0 1-.374-1.015 40 40 0 0 0-.282-.906 15 15 0 0 1-.28-.985 12 12 0 0 1-.204-.984 6 6 0 0 1-.078-.938q0-.61.219-1 .218-.39.859-.39.25 0 .453.156.203.142.375.406.172.266.328.625.156.345.297.766.14.406.266.844.124.437.25.843.124.407.25.797.14.375.36.75.108-.28.25-.64l.296-.766q.172-.406.36-.828.186-.438.406-.844a8.3 8.3 0 0 1 .89-1.437q.484-.594.953-.594.438 0 .625.265.188.267.188.688 0 .422-.14.953t-.36 1.094m7.687 3.39q0 .282-.031.735-.015.453-.125.89a2.1 2.1 0 0 1-.344.735q-.234.312-.656.312-.578 0-.891-.375-.312-.375-.296-.937-.5.437-1.141.687-.626.25-1.281.25-.453 0-.86-.218a2.7 2.7 0 0 1-.718-.563 2.9 2.9 0 0 1-.5-.766 2.2 2.2 0 0 1-.188-.859q0-.75.453-1.312a4.3 4.3 0 0 1 1.14-.954q.673-.405 1.423-.64a8.5 8.5 0 0 1 1.359-.313v-.14a.6.6 0 0 0 .016-.14q0-.485-.266-.782t-.75-.297q-.39 0-.672.14a3.3 3.3 0 0 0-.531.297q-.25.157-.5.297a1.24 1.24 0 0 1-.562.125.87.87 0 0 1-.594-.218.74.74 0 0 1-.235-.563q0-.516.297-.937.313-.422.766-.704a4 4 0 0 1 1-.453 3.4 3.4 0 0 1 1-.172q.421 0 .844.11.421.094.796.312.375.204.672.516.313.297.5.703.282.579.453 1.234.173.641.266 1.329.094.671.125 1.359.031.672.031 1.312m-2.5-.5-.047-1.062h-.062a.14.14 0 0 0-.063-.016q-.203 0-.515.11a2.3 2.3 0 0 0-.578.28 2.3 2.3 0 0 0-.485.392.7.7 0 0 0-.187.453q0 .219.156.297a.8.8 0 0 0 .359.078q.344 0 .735-.172.39-.188.687-.36m12.922-2.453v.813q0 .5-.031 1.094-.016.592-.094 1.203a5.3 5.3 0 0 1-.25 1.078 2.5 2.5 0 0 1-.406.797.79.79 0 0 1-.641.312.6.6 0 0 1-.531-.281 2.3 2.3 0 0 1-.25-.688 5 5 0 0 1-.094-.796v-.641q0-.703.047-1.375t.047-1.375v-.281q0-.203-.031-.407a1.2 1.2 0 0 0-.11-.359q-.062-.156-.203-.156-.28 0-.453.297a2.7 2.7 0 0 0-.281.672q-.11.39-.156.78-.047.375-.063.563a9 9 0 0 0-.062.61q-.016.405-.063.89a9 9 0 0 1-.125 1q-.078.5-.219.922-.124.407-.328.672-.203.266-.5.266a.64.64 0 0 1-.578-.328 2.4 2.4 0 0 1-.297-.766 6.4 6.4 0 0 1-.125-.89q-.015-.454-.015-.704v-.515q.015-.25.015-.516v-.36q0-.249-.015-.546 0-.313-.032-.64a5 5 0 0 0-.062-.595 1.4 1.4 0 0 0-.141-.453q-.093-.172-.218-.172-.204 0-.375.266-.172.25-.297.61-.125.343-.203.687-.063.344-.063.5v.094q0 .75.094 1.468.093.72.094 1.47 0 .436-.282.812-.281.36-.781.359a.76.76 0 0 1-.594-.266 2.4 2.4 0 0 1-.39-.718 6 6 0 0 1-.25-.954 13 13 0 0 1-.11-1.03q-.03-.517-.047-.923v-.625q0-.234-.015-.687 0-.453.015-.985.032-.53.094-1.078.063-.562.203-1.015t.36-.735a.73.73 0 0 1 .593-.297q.407 0 .657.22.265.218.265.655 0 .094-.015.188 0 .093-.016.172.172-.25.422-.5.25-.265.531-.469.297-.219.625-.344.329-.14.656-.14a.97.97 0 0 1 .563.172q.25.171.437.437.188.25.313.547t.172.562q.156-.281.375-.562.234-.297.5-.516.266-.218.578-.36.328-.14.672-.14.328 0 .562.235t.407.61q.171.359.265.827.094.453.156.906.063.438.079.829.015.375.015.593m4 5.61q-.797 0-1.39-.422a3.7 3.7 0 0 1-1-1.078 5.2 5.2 0 0 1-.61-1.453 6.6 6.6 0 0 1-.203-1.594q0-.828.203-1.703.204-.89.625-1.61.422-.735 1.078-1.187.657-.47 1.563-.469.875 0 1.484.484.625.47 1 1.188.375.703.531 1.547t.11 1.594a8.6 8.6 0 0 1-.266 1.671 5.3 5.3 0 0 1-.609 1.516 3.5 3.5 0 0 1-1.031 1.094q-.626.422-1.485.422m.156-7.063q-.234 0-.421.25-.172.25-.297.61-.11.36-.172.765-.063.39-.063.688 0 .375.063.812.078.438.203.813.125.359.297.61.187.233.422.233.25 0 .422-.234.188-.234.296-.594.11-.36.157-.78a8 8 0 0 0 .047-.813q0-.345-.063-.75a4.4 4.4 0 0 0-.187-.782 1.8 1.8 0 0 0-.297-.593q-.172-.235-.407-.235m8.61-1.984q0 .453-.313.672a6 6 0 0 1-.672.422q-.375.187-.687.453-.297.265-.297.797 0 .281.125.484.14.203.328.375.203.156.438.328t.422.39q.202.22.328.532.14.312.14.766 0 .656-.343 1.296a4.3 4.3 0 0 1-.86 1.125 4.3 4.3 0 0 1-1.172.782 3.1 3.1 0 0 1-1.297.297q-.265 0-.531-.047a1.5 1.5 0 0 1-.484-.14 1.04 1.04 0 0 1-.344-.298.9.9 0 0 1-.141-.515q0-.438.172-.672.172-.25.438-.39.265-.142.562-.22.313-.078.578-.187a1.4 1.4 0 0 0 .438-.313q.172-.188.172-.53 0-.33-.266-.673a14 14 0 0 0-.562-.75 8 8 0 0 1-.578-.86 2.03 2.03 0 0 1-.25-1q0-.671.265-1.234.282-.577.735-1a3.5 3.5 0 0 1 1.062-.656 3.2 3.2 0 0 1 1.25-.25q.25 0 .484.047.25.047.438.172a.8.8 0 0 1 .297.312.86.86 0 0 1 .125.485m11.125-1.688q0 1.14-.094 2.266-.078 1.125-.078 2.266 0 .921.047 1.828.063.906.062 1.828 0 .25-.015.61-.016.342-.11.671a1.3 1.3 0 0 1-.281.563q-.187.234-.547.234-.469 0-.781-.344a1.7 1.7 0 0 1-.375-.797 2.7 2.7 0 0 1-.859.953q-.563.39-1.219.391-.703 0-1.219-.484a4.3 4.3 0 0 1-.844-1.172 7 7 0 0 1-.5-1.438 6.5 6.5 0 0 1-.156-1.297 9.7 9.7 0 0 1 .203-1.906q.126-.516.313-1 .188-.5.468-.89.298-.391.688-.625a1.8 1.8 0 0 1 .922-.235q.562 0 1.078.328.516.33.781.813l.141-2.485q.015-.296.047-.687.031-.405.125-.766.11-.359.328-.61.219-.25.64-.25.454 0 .704.22.25.219.359.562.124.329.141.719.03.39.031.734m-2.547 6.938q0-.36-.016-.703-.015-.345 0-.703a8 8 0 0 0-.218-.438 2 2 0 0 0-.313-.453 1.6 1.6 0 0 0-.391-.36.85.85 0 0 0-.468-.14.6.6 0 0 0-.453.172 1 1 0 0 0-.25.422 2.5 2.5 0 0 0-.11.515 9 9 0 0 0-.015.485 7.3 7.3 0 0 0 .14 1.297q.094.375.25.656.156.28.422.281.204 0 .406-.078.204-.094.375-.219a3 3 0 0 0 .344-.297 7 7 0 0 0 .297-.312zm10.125.562q0 .532-.344 1.047-.328.5-.844.906-.5.39-1.078.641-.577.234-1.062.234a2.77 2.77 0 0 1-1.485-.406 3.9 3.9 0 0 1-1.078-1.062 5.2 5.2 0 0 1-.672-1.407 5.6 5.6 0 0 1-.218-1.515q0-.781.218-1.672.219-.89.657-1.64.453-.75 1.125-1.25.687-.5 1.625-.5.53 0 1.015.187a2.45 2.45 0 0 1 1.422 1.281q.219.452.219 1.016 0 .735-.313 1.375a3.6 3.6 0 0 1-.828 1.11 4.4 4.4 0 0 1-1.187.765 4 4 0 0 1-1.375.312q.063.453.359.656.313.204.735.204.312 0 .609-.157.297-.156.578-.343.282-.204.547-.36.281-.156.562-.156a.87.87 0 0 1 .563.203.65.65 0 0 1 .25.531m-2.531-3.828a.94.94 0 0 0-.11-.422.36.36 0 0 0-.343-.218.9.9 0 0 0-.579.187 1.4 1.4 0 0 0-.39.453q-.156.266-.25.578a3 3 0 0 0-.094.578q.219-.045.516-.125.312-.078.578-.203.281-.14.469-.343a.66.66 0 0 0 .203-.485m8.578.766q-.219.015-.375-.031l-.313-.125a3 3 0 0 0-.281-.11.6.6 0 0 0-.312-.047q-.313.015-.563.172a2.2 2.2 0 0 0-.437.39 2.7 2.7 0 0 0-.329.532 3 3 0 0 0-.218.563 4 4 0 0 0-.078.578 19 19 0 0 0-.016.812q-.015.453-.016.86 0 .405-.031.64-.015.25-.078.594a2.6 2.6 0 0 1-.203.625 1.4 1.4 0 0 1-.344.5.8.8 0 0 1-.562.203.75.75 0 0 1-.469-.156 1.4 1.4 0 0 1-.328-.406 3.7 3.7 0 0 1-.219-.61 8 8 0 0 1-.125-.703q-.047-.375-.078-.75l-.031-.703v-.625q.015-.282.015-.453-.015-.548-.062-1.094a20 20 0 0 1-.032-1.11q0-.343.032-.765.031-.422.172-.781a1.6 1.6 0 0 1 .406-.625q.281-.25.765-.25.267 0 .454.172.188.171.296.422.125.25.188.53.063.282.078.516.375-.609.844-.984.469-.39 1.219-.422.375-.015.734.078.375.078.672.282.312.187.5.5.202.312.219.734.03.5-.297.766a1.3 1.3 0 0 1-.797.28m6.75 0q-.219.015-.375-.031l-.313-.125a3 3 0 0 0-.281-.11.6.6 0 0 0-.312-.047q-.313.015-.563.172a2.2 2.2 0 0 0-.437.39 2.7 2.7 0 0 0-.329.532 3 3 0 0 0-.218.563 4 4 0 0 0-.078.578 19 19 0 0 0-.016.812q-.015.453-.016.86 0 .405-.031.64-.015.25-.078.594a2.6 2.6 0 0 1-.203.625 1.4 1.4 0 0 1-.344.5.8.8 0 0 1-.562.203.75.75 0 0 1-.469-.156 1.4 1.4 0 0 1-.328-.406 3.7 3.7 0 0 1-.219-.61 8 8 0 0 1-.125-.703q-.047-.375-.078-.75l-.031-.703v-.625q.015-.282.015-.453-.015-.548-.062-1.094a20 20 0 0 1-.032-1.11q0-.343.032-.765.031-.422.172-.781a1.6 1.6 0 0 1 .406-.625q.281-.25.765-.25.267 0 .454.172.188.171.296.422.125.25.188.53.063.282.078.516.375-.609.844-.984.469-.39 1.219-.422.375-.015.734.078.375.078.672.282.312.187.5.5.202.312.219.734.03.5-.297.766a1.3 1.3 0 0 1-.797.28m4.297 6.297q-.798 0-1.391-.422a3.7 3.7 0 0 1-1-1.078 5.2 5.2 0 0 1-.609-1.453 6.5 6.5 0 0 1-.203-1.594q0-.828.203-1.703.202-.89.625-1.61.421-.735 1.078-1.187.656-.47 1.562-.469.875 0 1.485.484.624.47 1 1.188.375.703.531 1.547a6.5 6.5 0 0 1 .109 1.594 8.6 8.6 0 0 1-.265 1.671 5.3 5.3 0 0 1-.61 1.516q-.405.672-1.031 1.094t-1.484.422m.156-7.063q-.234 0-.422.25-.171.25-.297.61-.11.36-.172.765-.062.39-.062.688 0 .375.062.812.078.438.203.813.126.359.297.61.188.233.422.233.25 0 .422-.234.188-.234.297-.594.11-.36.156-.78a8 8 0 0 0 .047-.813q0-.345-.062-.75a4.3 4.3 0 0 0-.188-.782 1.8 1.8 0 0 0-.297-.593q-.172-.235-.406-.235m7.672 7.172q-1.11 0-1.735-.297a2 2 0 0 1-.921-.812q-.297-.532-.36-1.282-.062-.75-.062-1.671 0-.735.047-1.47.047-.75.14-1.593-.218 0-.344.016h-.203q-.5 0-.859-.22-.375-.218-.375-.67 0-.282.219-.5.202-.22.531-.376.328-.156.703-.25a5 5 0 0 1 .734-.125q0-.437.063-.969.063-.531.219-.984.171-.47.453-.781a.92.92 0 0 1 .719-.313q.25 0 .437.156.204.142.328.375.125.22.188.5.062.282.062.547 0 .313-.047.64-.046.33-.172.813a4 4 0 0 1 .36-.03q.094-.016.172-.016.265 0 .547.046.297.048.531.157.25.11.406.297a.6.6 0 0 1 .156.421.67.67 0 0 1-.234.5q-.218.219-.563.375a4 4 0 0 1-.734.25q-.39.079-.734.11-.095.64-.141 1.187-.031.532-.078 1.078l-.063.547q-.015.266-.015.547 0 .203.015.485.016.266.11.515.093.25.297.438.203.171.562.172.219 0 .453-.032.235-.046.469-.047.407 0 .578.282.188.281.188.718a.9.9 0 0 1-.203.579 1.35 1.35 0 0 1-.485.375 2.6 2.6 0 0 1-.672.234 3.2 3.2 0 0 1-.687.078m9-2.766q0 .282-.031.735a4.3 4.3 0 0 1-.125.89 2.1 2.1 0 0 1-.344.735q-.234.312-.656.312-.579 0-.891-.375t-.297-.937q-.5.437-1.141.687-.624.25-1.281.25-.453 0-.859-.218a2.7 2.7 0 0 1-.719-.563 2.9 2.9 0 0 1-.5-.766 2.2 2.2 0 0 1-.187-.859q0-.75.453-1.312a4.2 4.2 0 0 1 1.14-.954q.672-.405 1.422-.64.766-.234 1.36-.313v-.14a.6.6 0 0 0 .015-.14q0-.485-.265-.782-.266-.297-.75-.297-.392 0-.672.14a3.3 3.3 0 0 0-.532.297q-.25.157-.5.297a1.24 1.24 0 0 1-.562.125.87.87 0 0 1-.594-.218.74.74 0 0 1-.234-.563q0-.516.297-.937.312-.422.765-.704a4 4 0 0 1 1-.453 3.4 3.4 0 0 1 1-.172q.423 0 .844.11.422.094.797.312.375.204.672.516.312.297.5.703.28.579.453 1.234.172.641.266 1.329.093.671.125 1.359.03.672.031 1.312m-2.5-.5-.047-1.062h-.063a.13.13 0 0 0-.062-.016q-.202 0-.516.11-.297.094-.578.28a2.3 2.3 0 0 0-.484.392.7.7 0 0 0-.188.453q0 .219.157.297a.8.8 0 0 0 .359.078q.344 0 .734-.172.391-.188.688-.36m8.859-3.14q-.219.015-.375-.031l-.312-.125a3 3 0 0 0-.282-.11.6.6 0 0 0-.312-.047q-.312.015-.563.172a2.2 2.2 0 0 0-.437.39 2.7 2.7 0 0 0-.328.532 3 3 0 0 0-.219.563 4 4 0 0 0-.078.578q-.015.375-.016.812-.015.453-.015.86 0 .405-.032.64-.015.25-.078.594a2.5 2.5 0 0 1-.203.625 1.4 1.4 0 0 1-.344.5.8.8 0 0 1-.562.203.75.75 0 0 1-.469-.156 1.4 1.4 0 0 1-.328-.406 4 4 0 0 1-.219-.61 8 8 0 0 1-.125-.703q-.047-.375-.078-.75l-.031-.703v-.625q.016-.282.016-.453-.017-.548-.063-1.094a20 20 0 0 1-.031-1.11q0-.343.031-.765t.172-.781a1.6 1.6 0 0 1 .406-.625q.282-.25.766-.25.266 0 .453.172.188.171.297.422.125.25.187.53.063.282.078.516.376-.609.844-.984.47-.39 1.219-.422.375-.015.734.078.375.078.672.282.313.187.5.5.204.312.219.734.031.5-.297.766-.328.265-.797.28m8.063 6.297q-.798 0-1.391-.422a3.7 3.7 0 0 1-1-1.078 5.2 5.2 0 0 1-.609-1.453 6.5 6.5 0 0 1-.203-1.594q0-.828.203-1.703.202-.89.625-1.61.421-.735 1.078-1.187.656-.47 1.562-.469.875 0 1.485.484.624.47 1 1.188.375.703.531 1.547a6.5 6.5 0 0 1 .109 1.594 8.6 8.6 0 0 1-.265 1.671 5.3 5.3 0 0 1-.61 1.516q-.405.672-1.031 1.094t-1.484.422m.156-7.063q-.234 0-.422.25-.171.25-.297.61-.11.36-.172.765-.062.39-.062.688 0 .375.062.812.078.438.203.813.126.359.297.61.188.233.422.233.25 0 .422-.234.188-.234.297-.594.11-.36.156-.78a8 8 0 0 0 .047-.813q0-.345-.062-.75a4.3 4.3 0 0 0-.188-.782 1.8 1.8 0 0 0-.297-.593q-.172-.235-.406-.235m15.422-1.61q0 1.08-.5 1.938a5.4 5.4 0 0 1-1.328 1.516q.25.375.515.875.266.5.469 1.062.22.547.344 1.11.14.546.14 1.015 0 .5-.25.891-.234.406-.812.406-.484 0-.844-.468a6 6 0 0 1-.625-1.11q-.266-.656-.5-1.328a8 8 0 0 0-.422-1.078 5 5 0 0 0-.547.219 31 31 0 0 1-.546.218q-.017.344-.063.954a6.7 6.7 0 0 1-.172 1.187q-.125.594-.39 1.031-.266.438-.735.438a.9.9 0 0 1-.797-.422 2.9 2.9 0 0 1-.406-1 7.4 7.4 0 0 1-.125-1.172 32 32 0 0 1 .016-2.39q.031-.72.031-1.454 0-.672-.031-1.343a55 55 0 0 1-.016-1.36v-.39q0-.25.016-.5.031-.266.062-.5.032-.235.11-.375.156-.329.703-.625.563-.297 1.218-.516a10 10 0 0 1 1.297-.36q.64-.14.953-.14.797 0 1.407.297t1.015.812a3.4 3.4 0 0 1 .61 1.172q.203.657.203 1.39m-2.891.22q0-.406-.187-.61-.187-.219-.61-.219-.312 0-.64.11a4 4 0 0 0-.578.25q.062 1.234.046 2.453.329-.11.672-.281.345-.172.625-.422.297-.25.485-.563a1.37 1.37 0 0 0 .187-.718m9.985 5.218q0 .532-.344 1.047-.328.5-.844.906a5 5 0 0 1-1.078.641q-.578.234-1.063.234a2.76 2.76 0 0 1-1.484-.406 3.9 3.9 0 0 1-1.078-1.062 5.1 5.1 0 0 1-.672-1.407 5.6 5.6 0 0 1-.219-1.515q0-.781.219-1.672.22-.89.656-1.64.453-.75 1.125-1.25.688-.5 1.625-.5.532 0 1.016.187a2.46 2.46 0 0 1 1.422 1.281q.219.452.219 1.016a3.1 3.1 0 0 1-.313 1.375 3.6 3.6 0 0 1-.828 1.11 4.4 4.4 0 0 1-1.188.765 4 4 0 0 1-1.375.312q.063.453.36.656.312.204.734.204.313 0 .61-.157.296-.156.578-.343.281-.204.547-.36.281-.156.562-.156.312 0 .563.203t.25.531m-2.532-3.828a.94.94 0 0 0-.109-.422.36.36 0 0 0-.344-.218.9.9 0 0 0-.578.187 1.4 1.4 0 0 0-.391.453q-.156.266-.25.578a3 3 0 0 0-.093.578q.218-.045.515-.125.313-.078.578-.203.282-.14.469-.343a.66.66 0 0 0 .203-.485m5.735-4.297a.65.65 0 0 1-.125.39 1.2 1.2 0 0 1-.297.313 2 2 0 0 1-.406.204 1.5 1.5 0 0 1-.407.062.97.97 0 0 1-.547-.156q-.234-.156-.234-.485 0-.234.109-.406.126-.187.297-.297a1.2 1.2 0 0 1 .391-.187q.218-.063.422-.063.297 0 .547.14.25.142.25.485m.125 5.313v.469q0 .234-.016.453-.015.265-.016.718 0 .438-.031.954-.031.515-.109 1.046a4.4 4.4 0 0 1-.219.97 2 2 0 0 1-.422.718.9.9 0 0 1-.64.281.58.58 0 0 1-.5-.234 2.2 2.2 0 0 1-.344-.64 5.4 5.4 0 0 1-.188-.891 17 17 0 0 1-.093-.954 13 13 0 0 1-.032-.859v-1.281q0-.47.032-1 .03-.532.109-1.078.094-.547.25-1a2.2 2.2 0 0 1 .437-.735.9.9 0 0 1 .672-.28q.423 0 .641.42.219.423.328.985t.125 1.125q.016.547.016.813m11.609-4.688q0 1.14-.094 2.266-.078 1.125-.078 2.266 0 .921.047 1.828.063.906.063 1.828 0 .25-.016.61-.016.342-.109.671a1.3 1.3 0 0 1-.282.563q-.187.234-.547.234-.468 0-.781-.344a1.7 1.7 0 0 1-.375-.797 2.7 2.7 0 0 1-.859.953q-.562.39-1.219.391-.703 0-1.219-.484a4.3 4.3 0 0 1-.843-1.172 7 7 0 0 1-.5-1.438 6.4 6.4 0 0 1-.157-1.297 9.7 9.7 0 0 1 .203-1.906q.126-.516.313-1 .187-.5.469-.89a2.4 2.4 0 0 1 .687-.625 1.8 1.8 0 0 1 .922-.235q.562 0 1.078.328.516.33.781.813l.141-2.485q.016-.296.047-.687.031-.405.125-.766.11-.359.328-.61.219-.25.641-.25.453 0 .703.22.25.219.359.562.125.329.141.719.031.39.031.734m-2.547 6.938q0-.36-.015-.703a8 8 0 0 1 0-.703 9 9 0 0 0-.219-.438 2 2 0 0 0-.313-.453 1.6 1.6 0 0 0-.39-.36.85.85 0 0 0-.469-.14.6.6 0 0 0-.453.172 1 1 0 0 0-.25.422 2.5 2.5 0 0 0-.11.515 9 9 0 0 0-.015.485 7.3 7.3 0 0 0 .14 1.297q.094.375.25.656.157.28.422.281.203 0 .407-.078.203-.094.375-.219.187-.14.343-.297a7 7 0 0 0 .297-.312zm10.219 1.14q0 .282-.031.735a4.3 4.3 0 0 1-.125.89 2.1 2.1 0 0 1-.344.735q-.234.312-.656.312-.579 0-.891-.375t-.297-.937q-.5.437-1.14.687-.625.25-1.282.25-.453 0-.859-.218a2.7 2.7 0 0 1-.719-.563 2.9 2.9 0 0 1-.5-.766 2.2 2.2 0 0 1-.187-.859q0-.75.453-1.312a4.3 4.3 0 0 1 1.14-.954q.672-.405 1.422-.64.766-.234 1.36-.313v-.14a.6.6 0 0 0 .015-.14q0-.485-.265-.782-.266-.297-.75-.297-.392 0-.672.14a3.3 3.3 0 0 0-.531.297q-.25.157-.5.297a1.25 1.25 0 0 1-.563.125.87.87 0 0 1-.594-.218.74.74 0 0 1-.234-.563q0-.516.297-.937.312-.422.765-.704a4 4 0 0 1 1-.453 3.4 3.4 0 0 1 1-.172q.423 0 .844.11.422.094.797.312.375.204.672.516.312.297.5.703.281.579.453 1.234.172.641.266 1.329.093.671.125 1.359.031.672.031 1.312m-2.5-.5-.047-1.062h-.062a.14.14 0 0 0-.063-.016q-.202 0-.516.11a2.3 2.3 0 0 0-.578.28 2.3 2.3 0 0 0-.484.392.7.7 0 0 0-.188.453q0 .219.157.297a.8.8 0 0 0 .359.078q.344 0 .734-.172.391-.188.688-.36M130.842 45.518q0 1.297-.063 2.61-.061 1.297-.156 2.593-.015.234-.031.64-.015.392-.063.86-.046.453-.125.922a3.6 3.6 0 0 1-.25.86q-.156.375-.421.609a.85.85 0 0 1-.625.25 1.25 1.25 0 0 1-.594-.14 1.4 1.4 0 0 1-.422-.36 1.9 1.9 0 0 1-.266-.516 2 2 0 0 1-.093-.61 17 17 0 0 1 .125-2.077l-1.547.156q-.047.406-.11.984-.047.563-.218 1.094-.157.516-.485.89-.328.375-.906.376a.98.98 0 0 1-.594-.172 1.2 1.2 0 0 1-.375-.406 2.1 2.1 0 0 1-.203-.579 3 3 0 0 1-.062-.593q0-.937.078-1.86a38 38 0 0 0 .125-3.843q0-1 .031-2 .016-.329.016-.766.015-.438.109-.813.109-.39.344-.656.25-.265.734-.265.672 0 1.016.359.343.344.484.875.141.516.141 1.11v1.046q0 .625-.032 1.235l-.062 1.203 1.672-.25.031-1.516q.015-.75.063-1.5l.031-.766q.015-.405.125-.75.11-.343.359-.562.266-.234.781-.234.438 0 .704.25.28.25.437.609.173.36.234.766.063.405.063.734zm3.609-1.969a.64.64 0 0 1-.125.39 1.2 1.2 0 0 1-.297.313q-.187.125-.406.204a1.5 1.5 0 0 1-.406.062.96.96 0 0 1-.547-.156q-.234-.156-.234-.485a.74.74 0 0 1 .109-.406 1 1 0 0 1 .297-.297 1.2 1.2 0 0 1 .391-.187q.218-.063.421-.063.298 0 .547.14.25.142.25.485m.125 5.313v.469q0 .234-.015.453-.016.265-.016.718 0 .438-.031.954-.031.515-.11 1.046a4.4 4.4 0 0 1-.218.97 2 2 0 0 1-.422.718.9.9 0 0 1-.641.281.58.58 0 0 1-.5-.234 2.2 2.2 0 0 1-.344-.64 5.4 5.4 0 0 1-.187-.891 17 17 0 0 1-.094-.954 13 13 0 0 1-.031-.859v-1.281q0-.47.031-1 .031-.532.11-1.078a6 6 0 0 1 .25-1q.171-.453.437-.735a.88.88 0 0 1 .672-.28q.422 0 .641.42.218.423.328.985.109.562.125 1.125.015.547.015.813m8.266.937q0 .688-.156 1.516a5.3 5.3 0 0 1-.5 1.516q-.344.703-.922 1.171-.562.47-1.422.47-.219 0-.453-.032a2.2 2.2 0 0 1-.453-.11 1.6 1.6 0 0 1-.375-.203.9.9 0 0 1-.266-.359l-.141 2.25q-.015.36-.031.86 0 .499-.125.953a1.7 1.7 0 0 1-.39.765q-.266.328-.782.328-.297 0-.5-.312a2.5 2.5 0 0 1-.328-.766 9 9 0 0 1-.172-1.047 15 15 0 0 1-.078-1.11q-.015-.53-.015-.968v-.64q0-1.047-.016-2.079-.015-1.046-.016-2.093v-.578q0-.407.032-.875.03-.47.093-.97.078-.499.219-.905.141-.423.359-.672a.67.67 0 0 1 .532-.266q.203 0 .359.125a.85.85 0 0 1 .281.297 1.6 1.6 0 0 1 .203.375q.079.202.125.375.485-.547 1.11-.828.64-.282 1.359-.281.75 0 1.219.421.484.422.75 1.047.281.626.391 1.344.109.703.109 1.281m-2.234-.125q0-.234-.047-.468a1.3 1.3 0 0 0-.141-.454.76.76 0 0 0-.281-.343.76.76 0 0 0-.469-.14q-.375-.001-.797.25a1.74 1.74 0 0 0-.609.546q-.078.125-.094.406-.015.282-.016.422v.297l.032.36.031.359q.031.172.078.265a.6.6 0 0 0 .203.266 3 3 0 0 0 .344.203q.188.095.375.14.203.048.344.048a.65.65 0 0 0 .531-.25q.203-.25.312-.594.126-.345.157-.703.047-.375.047-.61m9.734 2q0 .532-.344 1.047-.328.501-.844.906-.5.39-1.078.641-.578.234-1.062.234a2.77 2.77 0 0 1-1.485-.406 3.9 3.9 0 0 1-1.078-1.062 5.2 5.2 0 0 1-.672-1.407 5.6 5.6 0 0 1-.218-1.515q0-.781.218-1.672.219-.89.657-1.64.453-.75 1.125-1.25.687-.5 1.625-.5.53 0 1.015.187a2.46 2.46 0 0 1 1.422 1.281q.219.453.219 1.016 0 .735-.313 1.375a3.6 3.6 0 0 1-.828 1.11 4.4 4.4 0 0 1-1.187.765 4 4 0 0 1-1.375.312q.062.453.359.656.313.204.735.204.312 0 .609-.157.297-.156.578-.343.282-.204.547-.36.281-.156.562-.156a.87.87 0 0 1 .563.203.65.65 0 0 1 .25.531m-2.531-3.828a.94.94 0 0 0-.11-.422.36.36 0 0 0-.343-.218.9.9 0 0 0-.579.187 1.4 1.4 0 0 0-.39.453q-.156.266-.25.578a3 3 0 0 0-.094.578q.219-.046.516-.125.312-.078.578-.203.281-.14.469-.343a.66.66 0 0 0 .203-.485m8.578.766q-.219.015-.375-.031l-.313-.125a3 3 0 0 0-.281-.11.6.6 0 0 0-.312-.047q-.313.015-.563.172a2.2 2.2 0 0 0-.437.39 2.7 2.7 0 0 0-.329.532 3 3 0 0 0-.218.563 4 4 0 0 0-.078.578 19 19 0 0 0-.016.812q-.015.453-.016.86 0 .406-.031.64-.015.25-.078.594a2.6 2.6 0 0 1-.203.625 1.4 1.4 0 0 1-.344.5.8.8 0 0 1-.562.203.75.75 0 0 1-.469-.156 1.4 1.4 0 0 1-.328-.406 3.7 3.7 0 0 1-.219-.61 8 8 0 0 1-.125-.703q-.047-.375-.078-.75l-.031-.703v-.625q.015-.282.015-.453-.015-.548-.062-1.094a20 20 0 0 1-.032-1.11q0-.343.032-.765.031-.422.172-.781a1.6 1.6 0 0 1 .406-.625q.281-.25.765-.25.267 0 .454.172.188.171.296.422.125.25.188.53.063.282.078.516.375-.609.844-.984.469-.39 1.219-.422.375-.015.734.078.375.078.672.282.312.187.5.5.202.312.219.734.03.5-.297.766a1.3 1.3 0 0 1-.797.28m4.25-.703q0 .249-.031.687-.032.422-.094.922a9 9 0 0 1-.188 1 7 7 0 0 1-.265.922q-.156.406-.375.672-.22.25-.5.25-.344 0-.594-.328a3.5 3.5 0 0 1-.406-.86 8.5 8.5 0 0 1-.25-1.172q-.095-.64-.141-1.25a26 26 0 0 1-.062-1.14v-1.516q0-.437.031-.922.047-.484.125-.953.094-.484.265-.875.172-.39.454-.625.28-.25.703-.25.375 0 .609.328.25.313.391.828.156.501.218 1.125.08.626.094 1.235.031.593.016 1.11zm-.297 5.937a.9.9 0 0 1-.125.469q-.125.188-.328.312a1.4 1.4 0 0 1-.438.204 1.8 1.8 0 0 1-.468.062q-.344 0-.657-.187-.312-.173-.312-.563 0-.234.125-.422.14-.203.344-.344t.437-.218q.25-.078.469-.078.359 0 .656.187.297.172.297.578"/><defs><filter id="a" width="275.282" height="109" x="0" y="0" color-interpolation-filters="sRGB" filterUnits="userSpaceOnUse"><feFlood flood-opacity="0" result="BackgroundImageFix"/><feBlend in="SourceGraphic" in2="BackgroundImageFix" result="shape"/><feColorMatrix in="SourceAlpha" result="hardAlpha" values="0 0 0 0 0 0 0 0 0 0 0 0 0 0 0 0 0 0 127 0"/><feOffset dy="4"/><feGaussianBlur stdDeviation="2"/><feComposite in2="hardAlpha" k2="-1" k3="1" operator="arithmetic"/><feColorMatrix values="0 0 0 0 0 0 0 0 0 0 0 0 0 0 0 0 0 0 0.25 0"/><feBlend in2="shape" result="effect1_innerShadow_1137_1739"/></filter></defs></svg>