<svg xmlns="http://www.w3.org/2000/svg" width="215" height="149" fill="none" viewBox="0 0 215 149"><g filter="url(#a)"><path fill="#00d287" fill-rule="evenodd" d="M30.628 94.803C10.003 85.04 1 70.633 1 55.039 1 35.852 19.158 16.897 49.195 7.525 63.765 2.98 80.882 1 100.55 1c60.216 0 115.747 19.576 113.377 54.039 0 17.1-10.278 32.824-31.209 42.21-11.413 5.119-25.852 8.142-43.917 9.072-7.106 17.889-17.505 27.101-34.568 41.679 12.513-16.991 20.179-27.946 22.953-41.372q-.477.002-.958.002c-42.68 3.06-74.96-2.057-95.6-11.827" clip-rule="evenodd"/></g><path fill="#00d287" d="m30.628 94.803-.428.904zM49.195 7.525l.298.955zM213.927 55.04l-.998-.069-.002.069zm-31.209 42.21-.409-.912zm-43.917 9.072-.051-.999a1 1 0 0 0-.878.63zM104.233 148l-.805-.593a1 1 0 0 0 1.455 1.353zm22.953-41.372.979.203a.998.998 0 0 0-.982-1.203zm-.958.002v-1l-.072.003zM0 55.039c0 16.063 9.307 30.779 30.2 40.668l.855-1.808C10.698 84.263 2 70.163 2 55.039zM48.897 6.57C18.703 15.99 0 35.19 0 55.039h2C2 36.512 19.612 17.803 49.493 8.48zM100.55 0C80.822 0 63.595 1.985 48.897 6.57l.596 1.91C63.933 3.975 80.943 2 100.55 2zm114.374 55.107c1.231-17.895-12.6-31.681-33.816-40.928C159.83 4.906 130.746 0 100.55 0v2c30.019 0 58.809 4.882 79.759 14.013 21.01 9.157 33.76 22.39 32.62 38.957zm-31.797 43.055c21.22-9.517 31.8-25.558 31.8-43.123h-2c0 16.634-9.976 32.04-30.618 41.298zm-44.274 9.157c18.141-.933 32.712-3.971 44.274-9.157l-.818-1.825c-11.264 5.052-25.571 8.059-43.559 8.985zm-.981-1.367c-7.005 17.634-17.22 26.705-34.288 41.288l1.299 1.52c17.056-14.573 27.641-23.926 34.848-42.07zm-32.834 42.641c12.487-16.956 20.302-28.086 23.127-41.762l-1.958-.405c-2.722 13.174-10.241 23.954-22.779 40.981zm21.19-40.963q.482 0 .962-.002l-.007-2q-.477.002-.955.002zM30.2 95.707c20.856 9.871 53.328 14.987 96.099 11.921l-.143-1.995c-42.59 3.053-74.675-2.066-95.1-11.734z"/><path fill="#fff" d="M32.945 46.451q-.834 0-1.45-.424a3.3 3.3 0 0 1-1.025-1.107 6 6 0 0 1-.601-1.64 9.7 9.7 0 0 1 .014-3.897 6.6 6.6 0 0 1 .656-1.778q.436-.792 1.107-1.298.67-.507 1.6-.506.902 0 1.504.492.615.478.97 1.258.37.765.52 1.722.165.957.164 1.914 0 1.067-.219 2.024a5.4 5.4 0 0 1-.642 1.668 3.36 3.36 0 0 1-1.08 1.148q-.644.424-1.518.424m.164-7.629a.6.6 0 0 0-.451.205 1.7 1.7 0 0 0-.3.547q-.124.329-.179.752a6 6 0 0 0-.054.834q0 .48.054.957.069.48.192.861.123.383.3.616.192.232.452.232.3 0 .478-.3.178-.302.274-.725.11-.424.136-.875.041-.452.041-.752 0-.369-.054-.78a3.7 3.7 0 0 0-.15-.751 1.9 1.9 0 0 0-.288-.588.55.55 0 0 0-.45-.233m13.248-1.818q0 .998-.082 1.982a29 29 0 0 0-.068 1.983q0 .806.04 1.6.055.792.055 1.599 0 .22-.013.533-.014.3-.096.588a1.14 1.14 0 0 1-.246.492q-.164.205-.479.205a.89.89 0 0 1-.683-.3 1.5 1.5 0 0 1-.328-.698 2.34 2.34 0 0 1-.752.834 1.83 1.83 0 0 1-1.067.342q-.615 0-1.066-.424a3.7 3.7 0 0 1-.738-1.025 6 6 0 0 1-.438-1.258 5.7 5.7 0 0 1-.136-1.135 8.4 8.4 0 0 1 .177-1.668q.11-.45.274-.875.164-.437.41-.779.26-.342.601-.547.355-.205.807-.205.493 0 .943.287.452.288.684.711l.123-2.174q.015-.26.041-.601.027-.355.11-.67.095-.315.287-.533.19-.22.56-.22.397 0 .615.192t.315.492q.11.287.123.63.027.34.027.642m-2.228 6.07q0-.314-.014-.615-.015-.3 0-.615a7 7 0 0 0-.192-.383 1.7 1.7 0 0 0-.273-.396 1.4 1.4 0 0 0-.342-.315.75.75 0 0 0-.41-.123.54.54 0 0 0-.396.15q-.15.15-.22.37a2.2 2.2 0 0 0-.095.45 8 8 0 0 0-.014.425q0 .164.028.492.027.314.096.642.081.328.218.575.137.245.37.246a1 1 0 0 0 .355-.069q.178-.082.328-.191.165-.123.3-.26.152-.15.26-.273zm5.386-6.617a.57.57 0 0 1-.109.342q-.095.15-.26.273-.165.11-.355.178a1.3 1.3 0 0 1-.356.055.84.84 0 0 1-.478-.137q-.205-.137-.205-.424 0-.205.095-.355a.9.9 0 0 1 .26-.26q.15-.11.342-.164.191-.055.37-.055a.96.96 0 0 1 .478.123q.218.123.218.424m.11 4.648v.41q0 .206-.014.397-.014.233-.014.629 0 .383-.027.834t-.096.916q-.054.465-.191.848a1.8 1.8 0 0 1-.37.629.78.78 0 0 1-.56.246.5.5 0 0 1-.437-.205 1.9 1.9 0 0 1-.301-.561 4.7 4.7 0 0 1-.164-.78q-.055-.436-.082-.833a11 11 0 0 1-.027-.752v-1.121q0-.41.027-.875t.096-.944q.081-.478.218-.875.15-.396.383-.642a.77.77 0 0 1 .588-.246q.37 0 .56.369.192.369.288.861t.109.985q.015.478.014.71m6.781 2.967q0 .246-.027.643-.015.396-.11.78-.096.368-.3.642a.68.68 0 0 1-.575.273q-.506 0-.78-.328-.272-.328-.259-.82a3.4 3.4 0 0 1-.998.601 3 3 0 0 1-1.121.219q-.396 0-.752-.191a2.4 2.4 0 0 1-.629-.493 2.5 2.5 0 0 1-.437-.67 1.9 1.9 0 0 1-.164-.751q0-.656.396-1.149.41-.492.998-.834a5.7 5.7 0 0 1 1.244-.56 7.5 7.5 0 0 1 1.19-.274v-.123a.5.5 0 0 0 .013-.123q0-.423-.232-.684-.233-.26-.656-.26a1.3 1.3 0 0 0-.588.124q-.247.11-.465.26a11 11 0 0 1-.437.26q-.219.108-.493.109a.76.76 0 0 1-.52-.192.64.64 0 0 1-.204-.492q0-.45.26-.82.273-.369.67-.616.41-.26.874-.396.48-.15.875-.15.37 0 .739.095.369.082.697.274.328.178.588.451.273.26.437.615.247.506.397 1.08.15.56.232 1.162.082.588.11 1.19.027.588.027 1.148m-2.187-.437-.042-.93h-.054a.1.1 0 0 0-.055-.014 1.4 1.4 0 0 0-.451.096 2 2 0 0 0-.506.246q-.246.15-.424.342a.6.6 0 0 0-.164.397q0 .19.137.26a.7.7 0 0 0 .314.068q.3 0 .643-.15.342-.165.602-.315m9.474-2.147q0 .397-.068.903a7 7 0 0 1-.192 1.011 6 6 0 0 1-.341 1.012 3.7 3.7 0 0 1-.52.889q-.3.383-.711.615a1.8 1.8 0 0 1-.93.232q-.56 0-1.025-.26-.45-.26-.78-.71a1.15 1.15 0 0 1-.3.656.87.87 0 0 1-.656.273q-.233 0-.397-.232a2 2 0 0 1-.246-.588 6 6 0 0 1-.15-.807 14 14 0 0 1-.055-.847q-.014-.411-.014-.738v-1.395l.028-.943q0-.233-.014-.698 0-.465.014-1.025.014-.574.054-1.162.055-.602.178-1.094t.342-.807.56-.328q.274 0 .465.192.192.19.315.506.136.314.205.71.081.383.11.78.04.383.04.738.014.342.014.56 0 .042-.014.192v.738q.122-.26.356-.505.232-.247.52-.438.286-.192.6-.315.315-.122.602-.123.575 0 .957.301.397.288.63.739.232.45.327.984.096.519.096.984m-2.01.41q0-.163-.027-.355a.9.9 0 0 0-.096-.355.7.7 0 0 0-.205-.274.48.48 0 0 0-.328-.11q-.22 0-.437.096a2 2 0 0 0-.397.247q-.191.15-.355.328-.165.163-.288.328l-.136 1.217q.218.315.533.505.315.178.71.178.302 0 .493-.191.205-.192.315-.465.123-.287.164-.602.054-.315.054-.547m8.573 1.668q0 .466-.301.916a3.4 3.4 0 0 1-.739.793 4.3 4.3 0 0 1-.943.56 2.5 2.5 0 0 1-.93.206q-.725 0-1.298-.355a3.4 3.4 0 0 1-.944-.93 4.5 4.5 0 0 1-.588-1.23 5 5 0 0 1-.191-1.327q0-.684.191-1.463.192-.78.575-1.435.396-.657.984-1.094.601-.437 1.422-.437.465 0 .888.164a2.15 2.15 0 0 1 1.245 1.12q.19.397.191.89 0 .642-.273 1.203a3.2 3.2 0 0 1-.725.97q-.45.41-1.039.67a3.5 3.5 0 0 1-1.203.273q.054.397.314.575.274.178.643.178.273 0 .533-.137t.506-.301q.246-.177.478-.315.246-.136.493-.136a.76.76 0 0 1 .492.178.57.57 0 0 1 .219.464m-2.215-3.35a.8.8 0 0 0-.096-.368.32.32 0 0 0-.3-.192q-.302 0-.507.164-.204.15-.341.397a2.3 2.3 0 0 0-.22.506q-.067.273-.081.505.191-.04.451-.109.272-.068.506-.178.245-.123.41-.3a.58.58 0 0 0 .178-.424m5.947 6.276q-.97 0-1.518-.26a1.76 1.76 0 0 1-.806-.71q-.26-.465-.315-1.122a20 20 0 0 1-.014-2.748q.042-.656.124-1.394-.192 0-.301.014h-.178a1.4 1.4 0 0 1-.752-.192.64.64 0 0 1-.328-.588q0-.246.191-.437a1.5 1.5 0 0 1 .465-.328q.288-.137.616-.22.341-.08.642-.109 0-.382.055-.847.054-.465.191-.861.15-.411.397-.684a.8.8 0 0 1 .629-.274.58.58 0 0 1 .383.137.9.9 0 0 1 .287.328q.109.192.164.438a2.2 2.2 0 0 1 .054.478q0 .275-.04.56a7 7 0 0 1-.151.712q.233-.027.314-.028a1 1 0 0 1 .15-.013q.233 0 .48.04.258.042.464.138a.95.95 0 0 1 .356.26.53.53 0 0 1 .136.368q0 .247-.205.438a1.7 1.7 0 0 1-.492.328 3.6 3.6 0 0 1-.642.219 6 6 0 0 1-.643.096q-.082.56-.123 1.038-.027.465-.069.944l-.054.478a8 8 0 0 0 0 .903q.013.233.096.45a1 1 0 0 0 .26.384q.177.15.491.15.192 0 .397-.027.205-.042.41-.041.356 0 .506.246.165.246.164.629 0 .287-.178.506a1.2 1.2 0 0 1-.424.328q-.26.136-.587.205-.314.068-.602.068m7.793-2.926q0 .466-.3.916a3.4 3.4 0 0 1-.74.793 4.3 4.3 0 0 1-.942.56 2.5 2.5 0 0 1-.93.206q-.725 0-1.299-.355a3.4 3.4 0 0 1-.943-.93 4.5 4.5 0 0 1-.588-1.23 5 5 0 0 1-.192-1.327q0-.684.192-1.463.191-.78.574-1.435.396-.657.984-1.094.601-.437 1.422-.437.465 0 .889.164a2.15 2.15 0 0 1 1.244 1.12q.192.397.192.89 0 .642-.274 1.203a3.2 3.2 0 0 1-.725.97q-.45.41-1.039.67a3.5 3.5 0 0 1-1.203.273q.055.397.315.575.273.178.642.178.274 0 .534-.137t.505-.301q.246-.177.479-.315.246-.136.492-.136a.76.76 0 0 1 .492.178.57.57 0 0 1 .219.464m-2.215-3.35a.8.8 0 0 0-.096-.368.32.32 0 0 0-.3-.192q-.301 0-.506.164-.205.15-.342.397a2.3 2.3 0 0 0-.219.506q-.068.273-.082.505.192-.04.451-.109.274-.068.506-.178.246-.123.41-.3a.58.58 0 0 0 .178-.424m6.768-1.736q0 .397-.274.588-.26.192-.588.37-.328.163-.601.396-.26.232-.26.697 0 .246.11.424.122.178.286.328.179.137.383.287t.37.342q.177.192.287.465.123.273.123.67 0 .574-.301 1.135a3.73 3.73 0 0 1-1.777 1.668q-.575.26-1.135.26-.233 0-.465-.042a1.3 1.3 0 0 1-.424-.123.9.9 0 0 1-.3-.26.8.8 0 0 1-.124-.45q0-.384.15-.588.15-.219.383-.342t.493-.192q.273-.068.505-.164a1.2 1.2 0 0 0 .383-.273q.15-.165.15-.465 0-.287-.232-.588-.219-.315-.492-.656a7 7 0 0 1-.506-.752 1.8 1.8 0 0 1-.218-.875q0-.588.232-1.08a2.9 2.9 0 0 1 .642-.875q.411-.37.93-.575a2.8 2.8 0 0 1 1.094-.218q.219 0 .424.04.218.042.383.151.163.096.26.274.108.163.109.423m12.14 3.008v.711q0 .437-.027.957-.015.52-.082 1.053-.068.519-.219.943-.137.424-.355.698a.69.69 0 0 1-.56.273.53.53 0 0 1-.466-.246 2 2 0 0 1-.218-.602 4.4 4.4 0 0 1-.082-.697v-.56q0-.616.04-1.203.042-.588.042-1.204v-.246q0-.177-.028-.355a1 1 0 0 0-.096-.315q-.054-.136-.177-.136-.246 0-.397.26-.15.245-.246.587t-.136.684q-.042.329-.055.492a8 8 0 0 0-.055.533q-.013.355-.055.78a8 8 0 0 1-.109.874 5 5 0 0 1-.191.807 1.9 1.9 0 0 1-.287.588.53.53 0 0 1-.438.233.56.56 0 0 1-.506-.288 2.1 2.1 0 0 1-.26-.67 5.5 5.5 0 0 1-.109-.779q-.015-.397-.014-.615v-.451a7 7 0 0 0 .014-.451v-.315q0-.219-.014-.478 0-.275-.027-.56a4 4 0 0 0-.055-.52 1.3 1.3 0 0 0-.123-.397q-.081-.15-.191-.15-.178 0-.328.232-.15.22-.26.533-.11.3-.178.602-.054.3-.054.437v.082q0 .657.082 1.285.082.63.082 1.286 0 .383-.246.71-.247.315-.684.315a.66.66 0 0 1-.52-.232 2 2 0 0 1-.341-.63 5.3 5.3 0 0 1-.22-.833 11 11 0 0 1-.095-.903q-.028-.451-.04-.806v-.547q0-.205-.014-.602 0-.396.013-.861.028-.465.082-.943.055-.492.178-.889t.314-.643a.64.64 0 0 1 .52-.26q.355 0 .574.192.233.193.233.574 0 .083-.014.164a1 1 0 0 1-.014.15q.15-.217.37-.437.218-.232.464-.41a2.3 2.3 0 0 1 .547-.3q.288-.124.574-.124a.85.85 0 0 1 .493.15q.218.15.382.383.164.22.274.479.11.26.15.492.136-.246.328-.492a3 3 0 0 1 .438-.451 2.2 2.2 0 0 1 .506-.315 1.5 1.5 0 0 1 .588-.123q.286 0 .492.205.204.206.355.534.15.314.233.724.082.397.136.793.055.383.069.725.013.328.013.52m6.631 2.078q0 .466-.301.916a3.3 3.3 0 0 1-.738.793 4.3 4.3 0 0 1-.943.56 2.5 2.5 0 0 1-.93.206q-.724 0-1.299-.355a3.4 3.4 0 0 1-.943-.93 4.5 4.5 0 0 1-.588-1.23 5 5 0 0 1-.191-1.327q0-.684.191-1.463.192-.78.574-1.435.397-.657.985-1.094.602-.437 1.421-.437.466 0 .889.164.425.15.738.437.315.287.506.684.192.396.192.888 0 .643-.274 1.204a3.2 3.2 0 0 1-.724.97 3.9 3.9 0 0 1-1.039.67 3.5 3.5 0 0 1-1.204.273q.055.397.315.575.273.178.642.178.275 0 .534-.137t.506-.301q.246-.177.478-.315.246-.136.492-.136.275 0 .492.178a.57.57 0 0 1 .219.464m-2.215-3.35a.8.8 0 0 0-.095-.368.32.32 0 0 0-.301-.192.8.8 0 0 0-.506.164q-.206.15-.342.397a2.3 2.3 0 0 0-.219.506q-.067.273-.082.505.192-.04.452-.109a3 3 0 0 0 .505-.178q.247-.123.411-.3a.58.58 0 0 0 .177-.424m5.319-2.501q0 .738-.069 1.49-.054.738-.054 1.49 0 .971.054 1.942.069.97.069 1.955 0 .245-.028.56-.027.301-.136.56a1.05 1.05 0 0 1-.301.438q-.205.178-.547.178-.328 0-.574-.328a2.9 2.9 0 0 1-.397-.807q-.15-.505-.259-1.12-.096-.615-.151-1.19-.04-.588-.068-1.067-.014-.492-.014-.724 0-.26.014-.752a17 17 0 0 1 .273-2.229 6.3 6.3 0 0 1 .315-1.08q.191-.492.451-.793.273-.315.642-.314.301 0 .452.205.163.192.232.478.069.274.082.588.014.3.014.52m3.595 0q0 .738-.068 1.49a20 20 0 0 0-.055 1.49q0 .971.055 1.942.069.97.068 1.955 0 .245-.027.56-.027.301-.137.56a1.05 1.05 0 0 1-.3.438q-.205.178-.547.178-.328 0-.575-.328a2.9 2.9 0 0 1-.396-.807q-.15-.505-.26-1.12-.096-.615-.15-1.19-.041-.588-.069-1.067a29 29 0 0 1-.013-.724q0-.26.013-.752a18 18 0 0 1 .274-2.229q.123-.6.314-1.08.192-.492.452-.793.273-.315.642-.314.301 0 .451.205.164.192.233.478.068.274.082.588.013.3.013.52m3.295-1.258a.56.56 0 0 1-.109.342q-.096.15-.26.273a1.6 1.6 0 0 1-.355.178 1.3 1.3 0 0 1-.356.055.84.84 0 0 1-.478-.137q-.205-.137-.205-.424 0-.205.095-.355a.9.9 0 0 1 .26-.26q.15-.11.342-.164t.369-.055q.26 0 .479.123t.218.424m.11 4.648v.41q0 .206-.014.397-.014.233-.014.629 0 .383-.027.834t-.096.916q-.054.465-.191.848a1.8 1.8 0 0 1-.369.629.78.78 0 0 1-.561.246.5.5 0 0 1-.437-.205 1.9 1.9 0 0 1-.301-.561 4.6 4.6 0 0 1-.164-.78q-.055-.436-.082-.833a12 12 0 0 1-.028-.752v-1.121q0-.41.028-.875.027-.465.096-.944.081-.478.218-.875a1.9 1.9 0 0 1 .383-.642.77.77 0 0 1 .588-.246q.369 0 .561.369.19.369.287.861.095.492.109.985.014.478.014.71m4.156 5.387q-.97 0-1.518-.26a1.76 1.76 0 0 1-.806-.71q-.26-.465-.315-1.122a18 18 0 0 1-.054-1.462q0-.643.041-1.286.04-.656.123-1.394-.192 0-.301.014h-.178a1.4 1.4 0 0 1-.752-.192.63.63 0 0 1-.328-.588q0-.246.191-.437.178-.192.465-.328.288-.137.616-.22a4.5 4.5 0 0 1 .642-.109q0-.382.055-.847.054-.465.191-.861.15-.411.397-.684a.8.8 0 0 1 .629-.274q.218 0 .382.137a.9.9 0 0 1 .288.328q.108.192.164.438.054.246.054.478 0 .275-.041.56a7 7 0 0 1-.15.712q.233-.027.314-.028a1 1 0 0 1 .151-.013q.232 0 .478.04.26.042.465.138.219.095.356.26a.53.53 0 0 1 .136.368q0 .247-.205.438a1.6 1.6 0 0 1-.492.328 3.6 3.6 0 0 1-.643.219 6 6 0 0 1-.642.096q-.083.56-.123 1.038-.027.465-.069.944l-.054.478a8 8 0 0 0-.014.479q0 .177.014.424.014.233.095.45a1 1 0 0 0 .26.384q.178.15.492.15.192 0 .397-.027a2 2 0 0 1 .41-.041q.356 0 .506.246.164.246.164.629 0 .287-.178.506a1.2 1.2 0 0 1-.424.328q-.26.136-.587.205a3 3 0 0 1-.602.068m8.053-4.402q0 .752-.151 1.49a4.1 4.1 0 0 1-.506 1.326 2.75 2.75 0 0 1-.957.93q-.588.355-1.476.355-.875 0-1.463-.341a2.8 2.8 0 0 1-.943-.93 4.2 4.2 0 0 1-.493-1.299 8 8 0 0 1-.136-1.477q0-.82.191-1.626.041-.22.15-.602.124-.397.301-.766.192-.383.424-.656.246-.273.533-.273.274 0 .438.15t.26.383q.094.219.123.478.027.247.027.452 0 .314-.055.615-.04.3-.095.601l-.11.82a8 8 0 0 0-.027 1.286q.028.246.109.478.082.233.233.397.15.15.423.15.356 0 .561-.191.22-.191.314-.479.11-.287.137-.615.027-.329.028-.602 0-.6-.083-1.175a53 53 0 0 1-.15-1.19 1.3 1.3 0 0 1 .055-.602q.068-.204.191-.368a.9.9 0 0 1 .301-.26.74.74 0 0 1 .396-.11q.302 0 .534.22.232.204.382.546.164.329.26.752.11.41.164.82.069.397.082.752.028.356.028.56m4.84-3.61q0 .397-.274.588-.26.192-.588.37-.328.163-.601.396-.26.232-.26.697 0 .246.109.424.123.178.287.328.178.137.383.287t.369.342q.178.192.287.465.123.273.123.67 0 .574-.3 1.135a3.73 3.73 0 0 1-1.778 1.668q-.574.26-1.134.26-.232 0-.465-.042a1.3 1.3 0 0 1-.424-.123.9.9 0 0 1-.301-.26.8.8 0 0 1-.123-.45q0-.384.15-.588.151-.219.383-.342.233-.123.492-.192.274-.068.506-.164.233-.11.383-.273.15-.165.151-.465 0-.287-.233-.588-.219-.315-.492-.656a7 7 0 0 1-.506-.752 1.8 1.8 0 0 1-.219-.875q0-.588.233-1.08.246-.507.642-.875.411-.37.93-.575a2.8 2.8 0 0 1 1.094-.218q.219 0 .424.04.218.042.382.151.165.096.26.274.11.163.11.423m7.027 8.012q-.97 0-1.518-.26a1.76 1.76 0 0 1-.806-.71q-.26-.465-.315-1.122a18 18 0 0 1-.054-1.462q0-.643.041-1.286.04-.656.123-1.394-.192 0-.301.014h-.178a1.4 1.4 0 0 1-.752-.192.63.63 0 0 1-.328-.588q0-.246.191-.437.179-.192.465-.328.288-.137.615-.22.343-.08.643-.109 0-.382.055-.847.054-.465.191-.861.15-.411.397-.684a.8.8 0 0 1 .629-.274q.218 0 .382.137a.9.9 0 0 1 .287.328q.11.192.165.438.054.246.054.478 0 .275-.041.56a7 7 0 0 1-.15.712q.233-.027.314-.028a1 1 0 0 1 .151-.013q.232 0 .478.04.26.042.465.138.219.095.355.26.137.15.137.368 0 .247-.205.438a1.7 1.7 0 0 1-.492.328 3.6 3.6 0 0 1-.643.219 6 6 0 0 1-.642.096q-.083.56-.123 1.038-.028.465-.069.944l-.054.478a8 8 0 0 0-.014.479q0 .177.014.424.014.233.095.45a1 1 0 0 0 .26.384q.179.15.492.15.192 0 .397-.027a2 2 0 0 1 .41-.041q.356 0 .506.246.164.246.164.629 0 .287-.178.506a1.2 1.2 0 0 1-.424.328 2.2 2.2 0 0 1-.588.205q-.314.068-.601.068m4.32-10.035a.56.56 0 0 1-.109.342q-.096.15-.26.273a1.6 1.6 0 0 1-.355.178 1.3 1.3 0 0 1-.356.055.84.84 0 0 1-.478-.137q-.205-.137-.205-.424 0-.205.095-.355a.9.9 0 0 1 .26-.26q.15-.11.342-.164.19-.055.369-.055.26 0 .478.123.219.123.219.424m.11 4.648v.41q0 .206-.014.397-.014.233-.014.629 0 .383-.027.834t-.096.916q-.054.465-.191.848a1.8 1.8 0 0 1-.369.629.78.78 0 0 1-.561.246.5.5 0 0 1-.437-.205 1.9 1.9 0 0 1-.301-.561 4.6 4.6 0 0 1-.164-.78q-.055-.436-.082-.833a11 11 0 0 1-.028-.752v-1.121q0-.41.028-.875.027-.465.095-.944.082-.478.219-.875.15-.396.383-.642a.77.77 0 0 1 .588-.246q.37 0 .56.369.192.369.288.861t.109.985q.014.478.014.71m7.232.82q0 .603-.137 1.327a4.7 4.7 0 0 1-.437 1.326 3 3 0 0 1-.807 1.025q-.492.41-1.244.41-.192 0-.397-.027a2 2 0 0 1-.396-.095 1.4 1.4 0 0 1-.328-.178.8.8 0 0 1-.233-.315l-.123 1.97q-.013.314-.027.751 0 .438-.109.834a1.5 1.5 0 0 1-.342.67q-.232.288-.684.287-.26 0-.437-.273a2.2 2.2 0 0 1-.287-.67 8 8 0 0 1-.151-.916q-.054-.506-.068-.97-.014-.465-.014-.849v-.56q0-.916-.013-1.819-.014-.915-.014-1.831v-.506q0-.356.027-.766.028-.41.082-.848.069-.437.192-.793a1.7 1.7 0 0 1 .314-.587.58.58 0 0 1 .465-.233q.177 0 .314.11.151.095.247.26.109.15.177.327t.11.329q.423-.48.97-.725a2.9 2.9 0 0 1 1.19-.246q.656 0 1.066.369.425.369.656.916.247.546.342 1.176.096.615.096 1.12m-1.955-.109q0-.204-.041-.41a1.1 1.1 0 0 0-.123-.396.67.67 0 0 0-.246-.301.67.67 0 0 0-.41-.123q-.329 0-.698.219a1.5 1.5 0 0 0-.533.478q-.068.11-.082.356a8 8 0 0 0-.014.369v.26q.015.15.028.314l.027.315q.027.15.068.232.042.123.178.232a2.4 2.4 0 0 0 .301.178q.164.083.328.123.178.041.301.041a.57.57 0 0 0 .465-.219 1.6 1.6 0 0 0 .273-.52q.11-.3.137-.614a5 5 0 0 0 .041-.534m5.387 4.58q-.698 0-1.217-.369a3.2 3.2 0 0 1-.875-.943 4.5 4.5 0 0 1-.533-1.272 5.7 5.7 0 0 1-.178-1.394q0-.725.178-1.49.177-.78.546-1.408.37-.643.944-1.04.574-.41 1.367-.41.765 0 1.299.424.546.41.875 1.04.328.614.465 1.353.137.738.095 1.394-.04.725-.232 1.463a4.6 4.6 0 0 1-.533 1.326q-.356.588-.903.957-.546.37-1.298.37m.136-6.18q-.204 0-.369.22-.15.218-.26.533-.095.315-.15.67a4 4 0 0 0-.055.601q0 .329.055.711.069.383.178.711.109.315.26.533.164.205.369.205.219 0 .369-.205.164-.205.26-.52.095-.314.136-.683.041-.383.041-.71 0-.302-.054-.657a4 4 0 0 0-.164-.684 1.6 1.6 0 0 0-.26-.52q-.15-.204-.356-.204m9.42-.956q0 .423-.013.847l-.028.848q-.027.698-.027 1.395 0 .683-.041 1.38-.013.232-.027.63a3.7 3.7 0 0 1-.11.765 1.9 1.9 0 0 1-.273.656.62.62 0 0 1-.533.274.7.7 0 0 1-.534-.22 1.8 1.8 0 0 1-.328-.573 4 4 0 0 1-.15-.78 14 14 0 0 1-.055-.847q0-.425.014-.78.013-.355.013-.546v-1.86l.028-1.86a1.8 1.8 0 0 1-.438-.56 1.7 1.7 0 0 1-.15-.697q0-.561.328-.957.342-.397.93-.397.505 0 .793.383.287.383.41.916.137.534.164 1.094.027.546.027.889m8.354 7.123q-.232 0-.369-.219a1.5 1.5 0 0 1-.205-.479 4 4 0 0 1-.096-.546 10 10 0 0 1-.014-.438q0-.41.041-.82l.11-.82q.068-.41.109-.82.054-.411.055-.821 0-.165-.014-.355a1.5 1.5 0 0 0-.068-.356.6.6 0 0 0-.151-.287.4.4 0 0 0-.287-.11q-.123 0-.273.206a3 3 0 0 0-.287.45 5 5 0 0 0-.219.507 1.3 1.3 0 0 0-.082.369v.615q.013.3.013.615v.793a9 9 0 0 1-.041.506 4 4 0 0 1-.082.506 3 3 0 0 1-.123.478 1.5 1.5 0 0 1-.218.397q-.123.164-.301.273a.8.8 0 0 1-.424.11.6.6 0 0 1-.451-.178 1.3 1.3 0 0 1-.287-.451 3 3 0 0 1-.164-.63q-.041-.354-.069-.683a16 16 0 0 1-.013-.615q.013-.287.013-.451v-.643q0-.52-.027-1.025a38 38 0 0 1-.014-1.012v-.697q.014-.424.11-.82a1.8 1.8 0 0 1 .314-.698q.219-.287.643-.287.19 0 .341.123.151.124.26.301.123.178.192.383.081.205.123.355.137-.19.314-.369.192-.177.424-.314a2.2 2.2 0 0 1 1.176-.301q.697 0 1.08.342.397.328.574.834.192.492.232 1.066t.041 1.04q0 .231-.041.697-.04.45-.136 1.011-.082.547-.233 1.135-.15.575-.355 1.053a2.6 2.6 0 0 1-.492.779q-.274.3-.629.3m8.463-2.31q0 .245-.028.642a3.7 3.7 0 0 1-.109.78q-.096.368-.301.642a.68.68 0 0 1-.574.273q-.506 0-.779-.328-.274-.328-.26-.82a3.4 3.4 0 0 1-.998.601 3 3 0 0 1-1.121.219q-.397 0-.752-.191a2.3 2.3 0 0 1-.629-.493 2.5 2.5 0 0 1-.438-.67 1.9 1.9 0 0 1-.164-.751q0-.656.397-1.149.41-.492.998-.834a5.7 5.7 0 0 1 1.244-.56 7.5 7.5 0 0 1 1.189-.274v-.123a.5.5 0 0 0 .014-.123q0-.423-.232-.684-.233-.26-.657-.26-.34 0-.587.124-.247.11-.465.26-.219.135-.438.26-.219.108-.492.109a.77.77 0 0 1-.52-.192.65.65 0 0 1-.205-.492q0-.45.26-.82.273-.369.67-.616.41-.26.875-.396.479-.15.875-.15.369 0 .738.095.37.082.698.274.327.178.588.451.273.26.437.615.246.506.397 1.08.15.56.232 1.162.082.588.109 1.19.028.588.028 1.148m-2.188-.438-.041-.93h-.055a.1.1 0 0 0-.054-.014q-.178 0-.451.096a2 2 0 0 0-.506.246 2 2 0 0 0-.424.342.6.6 0 0 0-.164.397q0 .19.137.26a.7.7 0 0 0 .314.068 1.6 1.6 0 0 0 .643-.15q.341-.165.601-.315m1.654-7.82a.87.87 0 0 1-.136.437 2 2 0 0 1-.342.41 2.3 2.3 0 0 1-.438.3q-.232.11-.437.11t-.41-.068q-.192-.082-.397-.178a3 3 0 0 0-.383-.164 1 1 0 0 0-.382-.082.56.56 0 0 0-.301.096q-.15.081-.315.191a4 4 0 0 1-.341.178.7.7 0 0 1-.328.082.43.43 0 0 1-.356-.178.66.66 0 0 1-.137-.383q0-.233.164-.45.164-.22.411-.384.246-.178.505-.273.274-.11.479-.11.233 0 .396.096.178.096.329.22.15.122.3.218.164.096.383.095a.6.6 0 0 0 .328-.095q.164-.109.315-.233.163-.136.3-.232a.53.53 0 0 1 .315-.11q.192 0 .328.165.15.163.15.342m3.952 10.582q-.698 0-1.217-.37a3.2 3.2 0 0 1-.875-.943 4.5 4.5 0 0 1-.533-1.272 5.7 5.7 0 0 1-.178-1.394q0-.725.178-1.49.177-.78.547-1.408.369-.643.943-1.04.574-.41 1.367-.41.765 0 1.299.424.546.41.875 1.04.328.614.465 1.353.137.738.095 1.394-.04.725-.232 1.463a4.6 4.6 0 0 1-.533 1.326q-.355.588-.903.957-.546.37-1.298.37m.136-6.18q-.204 0-.369.218-.15.219-.26.534a5 5 0 0 0-.205 1.271q0 .329.055.711.069.383.178.711.109.315.26.533.163.205.369.205.219 0 .369-.205.164-.205.26-.52.095-.314.136-.683.041-.383.041-.71 0-.302-.054-.657a4 4 0 0 0-.164-.684 1.6 1.6 0 0 0-.26-.52q-.15-.204-.356-.204M27.804 59.926q0 .6-.136 1.326a4.6 4.6 0 0 1-.438 1.326q-.301.615-.806 1.025-.493.41-1.245.41-.191 0-.396-.027a2 2 0 0 1-.397-.095 1.4 1.4 0 0 1-.328-.178.8.8 0 0 1-.232-.315l-.123 1.97a63 63 0 0 0-.027.751q0 .438-.11.834a1.5 1.5 0 0 1-.342.67q-.233.287-.683.287-.261 0-.438-.273a2.2 2.2 0 0 1-.287-.67 8 8 0 0 1-.15-.916 13 13 0 0 1-.069-.97q-.013-.465-.013-.849v-.56q0-.916-.014-1.819-.014-.915-.014-1.831v-.506q0-.356.028-.766.027-.41.082-.848.069-.437.191-.793.123-.37.315-.587a.58.58 0 0 1 .464-.233.5.5 0 0 1 .315.11q.15.095.246.26.11.15.178.327t.11.329q.423-.48.97-.725.56-.246 1.19-.246.655 0 1.066.369.422.369.656.916.246.546.342 1.176.096.615.095 1.12m-1.955-.11q0-.204-.04-.41a1.1 1.1 0 0 0-.124-.396.67.67 0 0 0-.246-.301.67.67 0 0 0-.41-.123q-.328 0-.697.219a1.5 1.5 0 0 0-.534.478q-.068.11-.081.356-.015.246-.014.369v.26a42 42 0 0 1 .055.629q.026.15.068.232.041.123.178.232.136.096.3.178a1.6 1.6 0 0 0 .329.123q.177.041.3.041a.57.57 0 0 0 .465-.219q.178-.218.274-.52.108-.3.136-.614.041-.33.041-.534m5.387 4.58q-.697 0-1.217-.369a3.2 3.2 0 0 1-.875-.943 4.5 4.5 0 0 1-.533-1.272 5.7 5.7 0 0 1-.178-1.394q0-.725.178-1.49.177-.78.547-1.408.369-.643.943-1.04.575-.41 1.367-.41.766 0 1.3.424.546.41.874 1.04.328.614.465 1.353a5.7 5.7 0 0 1 .096 1.394q-.041.725-.233 1.463a4.7 4.7 0 0 1-.533 1.326q-.356.588-.902.957-.547.37-1.299.37m.137-6.18q-.205 0-.37.22-.15.218-.26.533a5 5 0 0 0-.15.67 4 4 0 0 0-.054.601q0 .329.054.711.069.383.178.711.11.315.26.533.164.205.37.205.218 0 .368-.205.165-.205.26-.52.096-.314.137-.683.04-.383.04-.71 0-.302-.054-.657a4 4 0 0 0-.164-.684 1.5 1.5 0 0 0-.26-.52q-.15-.204-.355-.204m9.42-3.212q0 .998-.082 1.982a29 29 0 0 0-.069 1.983q0 .806.041 1.6.055.792.055 1.599 0 .22-.014.533-.013.3-.095.588a1.14 1.14 0 0 1-.246.492q-.165.205-.479.205a.89.89 0 0 1-.684-.3 1.5 1.5 0 0 1-.328-.698 2.34 2.34 0 0 1-.752.834 1.83 1.83 0 0 1-1.066.342q-.615 0-1.066-.424a3.7 3.7 0 0 1-.739-1.025 6 6 0 0 1-.437-1.258 5.7 5.7 0 0 1-.137-1.135 8.5 8.5 0 0 1 .178-1.668q.11-.45.273-.875.165-.437.41-.779a2.1 2.1 0 0 1 .602-.547q.355-.205.807-.205.492 0 .943.287.45.288.684.711l.123-2.174q.013-.26.04-.601.028-.355.11-.67.096-.315.287-.533.192-.22.56-.22.397 0 .616.192t.314.492q.11.287.123.63.028.34.028.642m-2.229 6.07q0-.314-.014-.615-.014-.3 0-.615a8 8 0 0 0-.19-.383 1.7 1.7 0 0 0-.274-.396 1.4 1.4 0 0 0-.342-.315.75.75 0 0 0-.41-.123.54.54 0 0 0-.397.15q-.15.15-.218.37a2.2 2.2 0 0 0-.096.45q-.014.247-.014.425 0 .164.027.492.028.314.096.642.082.328.219.575.137.245.369.246a1 1 0 0 0 .355-.069q.178-.082.329-.191.164-.123.3-.26.15-.15.26-.273zm8.86.492q0 .466-.301.916a3.4 3.4 0 0 1-.738.793 4.3 4.3 0 0 1-.944.56 2.5 2.5 0 0 1-.93.206q-.725 0-1.298-.355a3.4 3.4 0 0 1-.944-.93 4.5 4.5 0 0 1-.588-1.23 5 5 0 0 1-.191-1.327q0-.684.191-1.463.192-.78.575-1.435.396-.657.984-1.094.602-.437 1.422-.437.465 0 .889.164a2.15 2.15 0 0 1 1.244 1.12q.19.397.191.89 0 .642-.273 1.203a3.2 3.2 0 0 1-.725.97q-.45.41-1.04.67a3.5 3.5 0 0 1-1.202.273q.054.397.314.575.273.178.643.178.273 0 .533-.137t.506-.301q.246-.177.478-.315.246-.136.493-.136a.76.76 0 0 1 .492.178.57.57 0 0 1 .218.464m-2.215-3.35a.8.8 0 0 0-.096-.368.32.32 0 0 0-.3-.192q-.301 0-.507.164-.204.15-.341.397a2.3 2.3 0 0 0-.22.506q-.068.273-.081.505.191-.04.45-.109.274-.068.507-.178.245-.123.41-.3a.58.58 0 0 0 .178-.424M55.27 56.48q0 .397-.273.588-.26.192-.588.37-.329.163-.602.396-.26.232-.26.697 0 .246.11.424.123.178.287.328.177.137.383.287t.369.342q.177.192.287.465.123.273.123.67 0 .574-.3 1.135a3.73 3.73 0 0 1-1.777 1.668q-.575.26-1.136.26-.233 0-.465-.042a1.3 1.3 0 0 1-.423-.123.9.9 0 0 1-.301-.26.8.8 0 0 1-.123-.45q0-.384.15-.588.15-.219.383-.342t.492-.192q.273-.068.506-.164a1.2 1.2 0 0 0 .383-.273q.15-.165.15-.465 0-.287-.232-.588-.219-.315-.492-.656a7 7 0 0 1-.506-.752 1.8 1.8 0 0 1-.219-.875q0-.588.232-1.08a2.9 2.9 0 0 1 .643-.875q.41-.37.93-.575a2.8 2.8 0 0 1 1.093-.218q.22 0 .424.04.22.042.383.151.164.096.26.274.11.163.11.423m6.276 5.086q0 .466-.301.916a3.4 3.4 0 0 1-.739.793 4.3 4.3 0 0 1-.943.56 2.5 2.5 0 0 1-.93.206q-.725 0-1.298-.355a3.4 3.4 0 0 1-.944-.93 4.5 4.5 0 0 1-.588-1.23 5 5 0 0 1-.191-1.327q0-.684.191-1.463.192-.78.575-1.435.396-.657.984-1.094.602-.437 1.422-.437.465 0 .889.164a2.15 2.15 0 0 1 1.244 1.12q.19.397.191.89 0 .642-.273 1.203a3.2 3.2 0 0 1-.725.97q-.45.41-1.039.67a3.5 3.5 0 0 1-1.203.273q.054.397.314.575.274.178.643.178.273 0 .533-.137t.506-.301q.246-.177.478-.315.246-.136.493-.136a.76.76 0 0 1 .492.178.57.57 0 0 1 .219.464m-2.215-3.35a.8.8 0 0 0-.096-.368.32.32 0 0 0-.3-.192q-.302 0-.507.164-.204.15-.341.397a2.3 2.3 0 0 0-.22.506q-.067.273-.081.505.191-.04.451-.109.273-.068.506-.178.245-.123.41-.3a.58.58 0 0 0 .178-.424m7.506.67a.9.9 0 0 1-.328-.027l-.274-.109a3 3 0 0 0-.246-.096.54.54 0 0 0-.273-.04q-.274.013-.493.15a2 2 0 0 0-.383.341q-.164.205-.287.465a3 3 0 0 0-.191.492q-.04.165-.068.506-.014.33-.014.711-.014.397-.014.752 0 .356-.027.56-.014.22-.068.52a2.3 2.3 0 0 1-.178.547 1.25 1.25 0 0 1-.3.438.7.7 0 0 1-.493.177.65.65 0 0 1-.41-.136 1.3 1.3 0 0 1-.287-.356 3.3 3.3 0 0 1-.192-.533 7 7 0 0 1-.11-.615q-.04-.329-.067-.656l-.028-.616v-.546q.014-.247.014-.397a17 17 0 0 0-.055-.957 18 18 0 0 1-.027-.97q0-.302.027-.67a2.3 2.3 0 0 1 .15-.684q.123-.328.356-.547.246-.219.67-.219.233 0 .396.15.164.15.26.37.11.218.164.465.056.245.069.45.327-.533.738-.86.41-.343 1.066-.37.328-.014.643.069.329.068.588.246.273.164.437.437.178.273.192.643.027.437-.26.67a1.14 1.14 0 0 1-.697.246m10.185 2.68q0 .466-.3.916a3.4 3.4 0 0 1-.739.793 4.3 4.3 0 0 1-.943.56 2.5 2.5 0 0 1-.93.206q-.724 0-1.299-.355a3.4 3.4 0 0 1-.943-.93 4.5 4.5 0 0 1-.588-1.23 5 5 0 0 1-.191-1.327q0-.684.191-1.463.192-.78.574-1.435.397-.657.985-1.094.601-.437 1.421-.437.465 0 .89.164a2.15 2.15 0 0 1 1.243 1.12q.192.397.192.89 0 .642-.274 1.203a3.2 3.2 0 0 1-.724.97q-.451.41-1.04.67a3.5 3.5 0 0 1-1.203.273q.056.397.315.575.273.178.642.178.274 0 .534-.137t.505-.301q.247-.177.479-.315.246-.136.492-.136a.76.76 0 0 1 .492.178.57.57 0 0 1 .22.464m-2.215-3.35a.8.8 0 0 0-.095-.368.32.32 0 0 0-.301-.192q-.301 0-.506.164-.205.15-.342.397a2.3 2.3 0 0 0-.219.506q-.068.273-.082.505.192-.04.452-.109a3 3 0 0 0 .505-.178q.247-.123.41-.3a.58.58 0 0 0 .178-.424m8.655.89a67 67 0 0 1-.78 1.968 19 19 0 0 1-.916 1.914q-.3.547-.67.916a1.2 1.2 0 0 1-.847.356q-.383 0-.752-.383a6 6 0 0 1-.67-.93q-.3-.546-.533-1.094-.22-.56-.329-.888-.108-.369-.246-.793a13 13 0 0 1-.246-.861 10 10 0 0 1-.177-.862 5 5 0 0 1-.069-.82q0-.533.192-.875.19-.342.752-.342.218 0 .396.137.178.123.328.355t.287.547q.137.3.26.67.123.355.233.738.108.384.218.739.11.356.219.697.123.328.314.656l.22-.56.259-.67q.15-.356.314-.725.165-.383.356-.738.369-.738.78-1.258.423-.52.833-.52.383 0 .547.233.165.232.164.602 0 .368-.123.833a9 9 0 0 1-.314.957m3.172-4.649a.57.57 0 0 1-.11.342q-.096.15-.26.273a1.6 1.6 0 0 1-.355.178 1.3 1.3 0 0 1-.356.055.84.84 0 0 1-.478-.137q-.205-.137-.205-.424 0-.205.096-.355a.9.9 0 0 1 .26-.26q.15-.11.341-.164t.37-.055a.96.96 0 0 1 .478.123q.219.123.219.424m.109 4.648v.41q0 .206-.014.397a11 11 0 0 0-.014.629q0 .383-.027.834t-.095.916q-.055.465-.192.848a1.8 1.8 0 0 1-.37.629.78.78 0 0 1-.56.246.5.5 0 0 1-.437-.205 1.9 1.9 0 0 1-.3-.561 4.7 4.7 0 0 1-.165-.78q-.054-.436-.082-.833a11 11 0 0 1-.027-.752v-1.121q0-.41.027-.875t.096-.944q.081-.478.218-.875.15-.396.383-.642a.77.77 0 0 1 .588-.246q.37 0 .56.369.192.369.288.861t.11.985q.012.478.013.71m4.156 5.387q-.97 0-1.518-.26a1.76 1.76 0 0 1-.806-.71q-.26-.465-.315-1.122a20 20 0 0 1-.014-2.748q.043-.656.124-1.394-.192 0-.301.014h-.178a1.4 1.4 0 0 1-.752-.192.64.64 0 0 1-.328-.588q0-.246.192-.437.177-.192.465-.328.286-.137.615-.22.342-.08.642-.109 0-.382.055-.847.054-.465.191-.861.15-.411.397-.684a.8.8 0 0 1 .629-.274.58.58 0 0 1 .383.137.9.9 0 0 1 .287.328q.109.192.164.438a2.2 2.2 0 0 1 .054.478q0 .275-.04.56a7 7 0 0 1-.151.712q.233-.028.315-.028a1 1 0 0 1 .15-.013q.232 0 .478.04.26.042.465.138.22.095.356.26a.53.53 0 0 1 .136.368q0 .247-.205.438a1.7 1.7 0 0 1-.492.328 3.6 3.6 0 0 1-.642.219 6 6 0 0 1-.643.096q-.083.56-.123 1.038-.027.465-.068.944-.028.232-.055.478a8 8 0 0 0 0 .903q.013.233.096.45a1 1 0 0 0 .26.384q.177.15.492.15.191 0 .396-.027.205-.042.41-.041.356 0 .506.246.164.246.164.629 0 .287-.178.506a1.2 1.2 0 0 1-.423.328q-.261.136-.588.205-.314.068-.602.068m7.875-2.42q0 .246-.027.643a3.7 3.7 0 0 1-.11.78q-.095.368-.3.642a.68.68 0 0 1-.575.273q-.506 0-.779-.328t-.26-.82a3.4 3.4 0 0 1-.998.601 3 3 0 0 1-1.12.219q-.398 0-.753-.191a2.4 2.4 0 0 1-.629-.493 2.5 2.5 0 0 1-.437-.67 1.9 1.9 0 0 1-.164-.751q0-.656.396-1.149.41-.492.998-.834a5.7 5.7 0 0 1 1.244-.56 7.5 7.5 0 0 1 1.19-.274v-.123a.5.5 0 0 0 .014-.123q0-.423-.233-.684-.233-.26-.656-.26a1.3 1.3 0 0 0-.588.124q-.246.11-.465.26a11 11 0 0 1-.437.26q-.219.108-.492.109a.76.76 0 0 1-.52-.192.64.64 0 0 1-.205-.492q0-.45.26-.82.273-.369.67-.616.41-.26.874-.396.48-.15.876-.15.369 0 .738.095.369.082.697.274.329.178.588.451.273.26.438.615.245.506.396 1.08.15.56.232 1.162.082.588.11 1.19.027.588.027 1.148m-2.187-.437-.041-.93h-.055a.1.1 0 0 0-.055-.014 1.4 1.4 0 0 0-.451.096 2 2 0 0 0-.506.246q-.246.15-.424.342a.6.6 0 0 0-.164.397q0 .19.137.26a.7.7 0 0 0 .315.068q.3 0 .642-.15.341-.165.602-.315m8.9-6.631q0 .998-.082 1.982a30 30 0 0 0-.027 3.582q.054.793.054 1.6 0 .22-.013.533-.014.3-.096.588a1.15 1.15 0 0 1-.246.492q-.165.205-.479.205a.88.88 0 0 1-.683-.3 1.5 1.5 0 0 1-.328-.698 2.35 2.35 0 0 1-.752.834 1.83 1.83 0 0 1-1.067.342q-.615 0-1.066-.424a3.7 3.7 0 0 1-.738-1.025 6 6 0 0 1-.438-1.258 5.7 5.7 0 0 1-.137-1.135 8.4 8.4 0 0 1 .178-1.668q.11-.45.273-.875.165-.437.411-.779.26-.342.601-.547.355-.205.807-.205.492 0 .943.287.451.288.684.711l.123-2.174q.014-.26.041-.601a4 4 0 0 1 .109-.67q.096-.315.287-.533.192-.22.561-.22.396 0 .615.192t.315.492q.11.287.123.63.027.34.027.642m-2.229 6.07q0-.314-.013-.615a7 7 0 0 1 0-.615 8 8 0 0 0-.192-.383 1.7 1.7 0 0 0-.273-.396 1.4 1.4 0 0 0-.342-.315.74.74 0 0 0-.41-.123.54.54 0 0 0-.396.15.9.9 0 0 0-.219.37 2 2 0 0 0-.096.45 8 8 0 0 0-.014.425q0 .164.028.492.027.314.095.642.082.328.219.575.136.245.369.246a1 1 0 0 0 .356-.069q.177-.082.328-.191.164-.123.301-.26.15-.15.259-.273zm5.729 3.323q-.697 0-1.217-.37a3.2 3.2 0 0 1-.875-.943 4.5 4.5 0 0 1-.533-1.272 5.8 5.8 0 0 1-.178-1.394q0-.725.178-1.49.178-.78.547-1.408.369-.643.943-1.04.575-.41 1.367-.41.767 0 1.299.424.547.41.875 1.04.328.614.465 1.353.137.738.096 1.394-.042.725-.233 1.463a4.6 4.6 0 0 1-.533 1.326q-.356.588-.902.957-.548.37-1.299.37m.137-6.18q-.206 0-.369.218a2.2 2.2 0 0 0-.26.534 5 5 0 0 0-.151.67 4 4 0 0 0-.054.601q0 .329.054.711.069.383.178.711.11.315.26.533.163.205.369.205.219 0 .369-.205.165-.205.26-.52.095-.314.137-.683.04-.383.041-.71 0-.302-.055-.657a3.7 3.7 0 0 0-.164-.684 1.5 1.5 0 0 0-.26-.52q-.15-.204-.355-.204m5.496 5.058q0 .22-.123.56a4 4 0 0 1-.287.67q-.164.33-.383.561-.219.233-.424.233-.273 0-.273-.274 0-.164.068-.314.069-.15.15-.3.082-.138.151-.288a.6.6 0 0 0 .068-.273.77.77 0 0 1-.437.136.69.69 0 0 1-.534-.246.8.8 0 0 1-.218-.547q0-.437.287-.697.287-.273.724-.273.493 0 .862.26t.369.792m10.103-3.35q0 .603-.136 1.327a4.6 4.6 0 0 1-.438 1.326q-.3.615-.807 1.025-.492.41-1.244.41-.19 0-.396-.027a2 2 0 0 1-.397-.095 1.4 1.4 0 0 1-.328-.178.8.8 0 0 1-.232-.315l-.123 1.97q-.013.314-.028.751 0 .438-.109.834a1.5 1.5 0 0 1-.342.67q-.233.287-.683.287-.26 0-.438-.273a2.2 2.2 0 0 1-.287-.67 8 8 0 0 1-.15-.916q-.056-.507-.069-.97-.013-.465-.013-.849v-.56q0-.916-.014-1.819-.014-.915-.014-1.831v-.506q0-.356.028-.766.027-.41.082-.848.068-.437.191-.793.123-.37.315-.587a.58.58 0 0 1 .464-.233.5.5 0 0 1 .315.11q.15.095.246.26.11.15.178.327t.109.329q.424-.48.971-.725.56-.246 1.189-.246.657 0 1.067.369.423.369.656.916.246.546.342 1.176.095.615.095 1.12m-1.955-.109a2 2 0 0 0-.041-.41 1.1 1.1 0 0 0-.123-.396.67.67 0 0 0-.246-.301.66.66 0 0 0-.41-.123q-.328 0-.697.219a1.54 1.54 0 0 0-.534.478q-.067.11-.082.356a7 7 0 0 0-.013.369v.26a43 43 0 0 1 .054.629q.028.15.069.232.04.123.178.232.137.096.3.178.165.083.328.123.178.041.301.041a.57.57 0 0 0 .465-.219q.178-.218.274-.52.109-.3.136-.614a4 4 0 0 0 .041-.534m5.387 4.58q-.697 0-1.217-.369a3.2 3.2 0 0 1-.875-.943 4.5 4.5 0 0 1-.533-1.272 5.7 5.7 0 0 1-.178-1.394q0-.725.178-1.49.178-.78.547-1.408.369-.643.943-1.04.575-.41 1.367-.41.766 0 1.299.424.547.41.875 1.04.328.614.465 1.353.137.738.096 1.394-.041.725-.233 1.463a4.6 4.6 0 0 1-.533 1.326q-.356.588-.902.957-.548.37-1.299.37m.137-6.18q-.205 0-.369.22a2.2 2.2 0 0 0-.26.533 5 5 0 0 0-.151.67 4 4 0 0 0-.054.601q0 .329.054.711.069.383.178.711.11.315.26.533.164.205.369.205.219 0 .369-.205.165-.205.26-.52.096-.314.137-.683.04-.383.041-.71 0-.302-.055-.657a3.7 3.7 0 0 0-.164-.684 1.5 1.5 0 0 0-.26-.52q-.15-.204-.355-.204m5.783-3.759a.57.57 0 0 1-.109.342q-.096.15-.26.273-.165.11-.356.178a1.3 1.3 0 0 1-.355.055.85.85 0 0 1-.479-.137q-.204-.137-.205-.424 0-.205.096-.355a.9.9 0 0 1 .26-.26q.15-.11.341-.164a1.4 1.4 0 0 1 .37-.055q.26 0 .478.123.219.123.219.424m.109 4.648v.41q0 .206-.013.397-.015.233-.014.629 0 .383-.027.834-.028.45-.096.916-.055.465-.192.848a1.8 1.8 0 0 1-.369.629.78.78 0 0 1-.56.246.51.51 0 0 1-.438-.205 2 2 0 0 1-.301-.561 5 5 0 0 1-.164-.78q-.054-.436-.082-.833a12 12 0 0 1-.027-.752v-1.121q0-.41.027-.875.029-.465.096-.944.082-.478.219-.875.15-.396.383-.642a.77.77 0 0 1 .588-.246q.368 0 .56.369.191.369.287.861t.11.985q.013.478.013.71m4.977-2.624q0 .396-.274.587-.26.192-.588.37-.327.163-.601.396-.26.232-.26.697 0 .246.11.424.123.178.287.328.178.137.382.287t.37.342q.177.192.287.465.123.273.123.67 0 .574-.301 1.135a3.75 3.75 0 0 1-1.777 1.668q-.574.26-1.135.26-.232 0-.465-.042a1.3 1.3 0 0 1-.424-.123.9.9 0 0 1-.301-.26.8.8 0 0 1-.123-.45q0-.384.151-.588.15-.219.383-.342.232-.123.492-.192.273-.068.506-.164.232-.11.382-.273.151-.165.151-.465 0-.287-.233-.588-.218-.315-.492-.656a7 7 0 0 1-.506-.752 1.8 1.8 0 0 1-.218-.875q0-.588.232-1.08.246-.507.643-.875.41-.37.929-.575a2.8 2.8 0 0 1 1.094-.218q.219 0 .424.04.218.042.383.151a.7.7 0 0 1 .259.274q.11.163.11.423m9.57 5.085q0 .466-.301.916a3.3 3.3 0 0 1-.738.793 4.3 4.3 0 0 1-.943.56 2.5 2.5 0 0 1-.93.206q-.724 0-1.299-.355a3.4 3.4 0 0 1-.943-.93 4.5 4.5 0 0 1-.588-1.23 5 5 0 0 1-.191-1.327q0-.684.191-1.463.192-.78.574-1.435.397-.657.985-1.094.602-.437 1.421-.437.465 0 .889.164.424.15.738.437.315.287.506.684.192.396.192.888 0 .643-.274 1.204a3.2 3.2 0 0 1-.724.97 3.9 3.9 0 0 1-1.039.67 3.5 3.5 0 0 1-1.204.273q.055.397.315.575.273.178.642.178.274 0 .534-.137t.505-.301q.247-.177.479-.315.246-.136.492-.136.274 0 .492.178a.57.57 0 0 1 .219.464m-2.215-3.35a.8.8 0 0 0-.095-.368.32.32 0 0 0-.301-.192.8.8 0 0 0-.506.164q-.206.15-.342.397a2.3 2.3 0 0 0-.219.506q-.068.273-.082.505.191-.04.452-.109a3 3 0 0 0 .505-.178 1.4 1.4 0 0 0 .411-.3.58.58 0 0 0 .177-.424m.766-4.853q0 .15-.082.301a1.4 1.4 0 0 1-.205.26q-.11.123-.246.232a10 10 0 0 0-.246.178q-.096.069-.219.164-.11.083-.246.164a2 2 0 0 1-.26.123.6.6 0 0 1-.246.055.33.33 0 0 1-.191-.055.24.24 0 0 1-.083-.191q0-.206.151-.492.164-.301.396-.575.232-.286.493-.478.26-.205.478-.205.192 0 .342.164.164.15.164.355m10.363 5.387a1 1 0 0 1-.013.15 1 1 0 0 1-.041.137q-.124.315-.383.533a.97.97 0 0 1-.616.205q-.533 0-.724-.533a.4.4 0 0 1-.027-.15 1.4 1.4 0 0 0-.014-.192v-.396a.8.8 0 0 0-.096-.3q-.068-.11-.232-.11-.233 0-.451.3-.205.288-.37.698-.15.397-.246.82-.095.424-.095.684 0 .204.027.506.028.287.109.56.082.273.219.479.15.19.383.191a.7.7 0 0 0 .424-.137q.205-.15.396-.342.178-.164.383-.341a.76.76 0 0 1 .492-.178q.342 0 .533.246a.85.85 0 0 1 .205.56q0 .465-.246.876a2.8 2.8 0 0 1-.615.697 3 3 0 0 1-.82.451 2.4 2.4 0 0 1-.861.178q-.74 0-1.258-.37a2.9 2.9 0 0 1-.821-.929 4.4 4.4 0 0 1-.451-1.244 6.4 6.4 0 0 1-.137-1.272q0-.697.192-1.504a5.6 5.6 0 0 1 .588-1.517 3.8 3.8 0 0 1 1.012-1.162q.629-.465 1.49-.465.533 0 .916.232.396.232.642.616.26.369.383.834.137.465.137.916v.136a1 1 0 0 1-.014.137m6.576 3.322q0 .246-.027.643a3.8 3.8 0 0 1-.109.78q-.096.368-.301.642a.68.68 0 0 1-.574.273q-.506 0-.78-.328t-.259-.82a3.4 3.4 0 0 1-.998.601 3 3 0 0 1-1.122.219q-.396 0-.752-.191a2.47 2.47 0 0 1-1.066-1.162 1.9 1.9 0 0 1-.164-.752q0-.656.397-1.149.41-.492.998-.834a5.6 5.6 0 0 1 1.244-.56 7.4 7.4 0 0 1 1.189-.274v-.123a.5.5 0 0 0 .014-.123q0-.423-.233-.684-.232-.26-.656-.26a1.3 1.3 0 0 0-.588.124q-.246.11-.465.26a10 10 0 0 1-.437.26q-.219.108-.492.109a.76.76 0 0 1-.52-.192.64.64 0 0 1-.205-.492q0-.45.26-.82.273-.369.67-.616.41-.26.875-.396.478-.15.875-.15.369 0 .738.095.37.082.697.274.328.178.588.451.274.26.438.615.246.506.396 1.08.15.56.233 1.162.082.588.109 1.19.027.588.027 1.148m-2.187-.437-.041-.93h-.055a.1.1 0 0 0-.055-.014q-.177 0-.451.096a2 2 0 0 0-.506.246q-.246.15-.423.342a.6.6 0 0 0-.164.397q0 .19.136.26a.7.7 0 0 0 .315.068q.3 0 .642-.15.342-.165.602-.315m8.996-1.545q0 .752-.15 1.49a4.2 4.2 0 0 1-.506 1.326 2.75 2.75 0 0 1-.957.93q-.588.355-1.477.355-.875 0-1.463-.341a2.8 2.8 0 0 1-.943-.93 4.2 4.2 0 0 1-.492-1.299 8 8 0 0 1-.137-1.477q0-.82.191-1.626a5.5 5.5 0 0 1 .452-1.367 3.2 3.2 0 0 1 .423-.657q.246-.273.534-.273a.62.62 0 0 1 .437.15q.164.15.26.383.096.219.123.478.027.247.027.452 0 .314-.054.615-.042.3-.096.601l-.11.82a8 8 0 0 0-.027 1.286q.028.246.109.478.083.233.233.397.15.15.424.15.356 0 .56-.191.219-.191.315-.479a2.2 2.2 0 0 0 .136-.615q.028-.329.028-.602 0-.6-.082-1.175a48 48 0 0 1-.151-1.19 1.3 1.3 0 0 1 .055-.602q.069-.204.191-.368a.9.9 0 0 1 .301-.26.74.74 0 0 1 .397-.11q.3 0 .533.22.232.204.383.546.164.329.26.752.108.41.164.82.068.397.082.752.027.356.027.56m4.84-3.61q0 .397-.274.588-.26.192-.588.37-.327.163-.601.396-.26.232-.26.697 0 .246.11.424.122.178.287.328.178.137.382.287t.37.342q.177.192.287.465.123.273.123.67 0 .574-.301 1.135a3.75 3.75 0 0 1-1.777 1.668q-.574.26-1.135.26-.232 0-.465-.042a1.3 1.3 0 0 1-.424-.123.9.9 0 0 1-.301-.26.8.8 0 0 1-.123-.45q0-.384.151-.588.15-.219.383-.342.232-.123.492-.192.273-.068.506-.164.232-.11.382-.273.151-.165.151-.465 0-.287-.233-.588-.218-.315-.492-.656a7 7 0 0 1-.506-.752 1.8 1.8 0 0 1-.218-.875q0-.588.232-1.08.246-.507.643-.875.41-.37.929-.575a2.8 2.8 0 0 1 1.094-.218q.219 0 .424.04.218.042.383.151a.7.7 0 0 1 .259.274q.11.163.11.423m6.357 5.592q0 .246-.027.643a3.8 3.8 0 0 1-.109.78q-.096.368-.301.642a.68.68 0 0 1-.574.273q-.506 0-.78-.328-.273-.328-.26-.82a3.3 3.3 0 0 1-.998.601 3 3 0 0 1-1.121.219q-.396 0-.752-.191a2.4 2.4 0 0 1-.629-.493 2.5 2.5 0 0 1-.437-.67 1.9 1.9 0 0 1-.164-.751q0-.656.396-1.149.41-.492.998-.834a5.7 5.7 0 0 1 1.245-.56 7.4 7.4 0 0 1 1.189-.274v-.123a.5.5 0 0 0 .014-.123q0-.423-.233-.684-.232-.26-.656-.26a1.3 1.3 0 0 0-.588.124q-.246.11-.465.26-.218.135-.437.26-.219.108-.492.109a.76.76 0 0 1-.52-.192.64.64 0 0 1-.205-.492q0-.45.26-.82.273-.369.67-.616.41-.26.875-.396.478-.15.875-.15.369 0 .738.095.369.082.697.274.329.178.588.451.273.26.438.615.246.506.396 1.08.15.56.233 1.162.082.588.109 1.19.027.588.027 1.148m-2.187-.437-.041-.93h-.055a.1.1 0 0 0-.055-.014 1.4 1.4 0 0 0-.451.096 2 2 0 0 0-.506.246q-.246.15-.424.342a.6.6 0 0 0-.164.397q0 .19.137.26a.7.7 0 0 0 .315.068q.3 0 .642-.15.342-.165.602-.315m8.9-6.631q0 .998-.082 1.982a30 30 0 0 0-.027 3.582q.054.793.054 1.6 0 .22-.013.533-.013.3-.096.588a1.15 1.15 0 0 1-.246.492q-.164.205-.479.205a.88.88 0 0 1-.683-.3 1.5 1.5 0 0 1-.328-.698 2.34 2.34 0 0 1-.752.834 1.83 1.83 0 0 1-1.067.342q-.615 0-1.066-.424a3.7 3.7 0 0 1-.738-1.025 6 6 0 0 1-.438-1.258 5.7 5.7 0 0 1-.137-1.135 8.6 8.6 0 0 1 .178-1.668q.11-.45.274-.875a3.3 3.3 0 0 1 .41-.779q.26-.342.601-.547.355-.205.807-.205.493 0 .943.287.451.288.684.711l.123-2.174q.014-.26.041-.601a4 4 0 0 1 .109-.67q.096-.315.287-.533.192-.22.561-.22.396 0 .615.192t.315.492q.11.287.123.63.027.34.027.642m-2.228 6.07q0-.314-.014-.615a7 7 0 0 1 0-.615 9 9 0 0 0-.191-.383 1.7 1.7 0 0 0-.274-.396 1.4 1.4 0 0 0-.342-.315.74.74 0 0 0-.41-.123.54.54 0 0 0-.396.15.9.9 0 0 0-.219.37 2 2 0 0 0-.096.45 8 8 0 0 0-.013.425q0 .164.027.492.027.314.096.642.081.328.218.575.137.245.369.246a1 1 0 0 0 .356-.069q.178-.082.328-.191.164-.123.301-.26.15-.15.26-.273zm5.728 3.323q-.697 0-1.217-.37a3.2 3.2 0 0 1-.875-.943 4.5 4.5 0 0 1-.533-1.272 5.8 5.8 0 0 1-.178-1.394q0-.725.178-1.49.178-.78.547-1.408a3.15 3.15 0 0 1 .943-1.04q.575-.41 1.368-.41.765 0 1.298.424.548.41.875 1.04.328.614.465 1.353.137.738.096 1.394-.04.725-.233 1.463a4.6 4.6 0 0 1-.533 1.326 3 3 0 0 1-.902.957q-.548.37-1.299.37m.137-6.18q-.206 0-.369.218a2.2 2.2 0 0 0-.26.534 5 5 0 0 0-.15.67 4 4 0 0 0-.055.601q0 .329.055.711.067.383.177.711.11.315.26.533.163.205.369.205.219 0 .369-.205.165-.205.26-.52.095-.314.137-.683.04-.383.041-.71 0-.302-.055-.657a3.7 3.7 0 0 0-.164-.684 1.5 1.5 0 0 0-.26-.52q-.15-.204-.355-.204M40.56 77.926q0 .6-.137 1.326a4.6 4.6 0 0 1-.437 1.326q-.3.615-.807 1.025-.492.41-1.244.41-.191 0-.396-.027a2 2 0 0 1-.397-.095 1.4 1.4 0 0 1-.328-.178.8.8 0 0 1-.232-.315l-.123 1.97a63 63 0 0 0-.028.751q0 .438-.109.834a1.5 1.5 0 0 1-.342.67q-.233.287-.683.287-.261 0-.438-.273a2.2 2.2 0 0 1-.287-.67 8 8 0 0 1-.15-.916q-.056-.507-.069-.97-.013-.465-.013-.849v-.56q0-.915-.014-1.819-.014-.915-.014-1.831v-.506q0-.356.028-.766.027-.41.082-.848.068-.437.191-.793a1.7 1.7 0 0 1 .314-.587.58.58 0 0 1 .465-.233q.178 0 .315.11.15.095.246.26.11.15.178.327t.109.328q.423-.478.97-.724.56-.246 1.19-.246.657 0 1.067.369.422.369.656.916.246.546.342 1.176.095.615.095 1.12m-1.955-.11q0-.204-.04-.41a1.1 1.1 0 0 0-.124-.396.67.67 0 0 0-.246-.301.67.67 0 0 0-.41-.123q-.328 0-.697.219a1.5 1.5 0 0 0-.534.478q-.068.11-.082.356t-.013.369v.26a42 42 0 0 1 .054.629q.028.15.069.232.04.123.178.232.135.096.3.178t.328.123q.179.04.301.041a.57.57 0 0 0 .465-.219q.178-.218.273-.52.11-.3.137-.614.041-.33.041-.534m5.387 4.58q-.697 0-1.217-.369a3.2 3.2 0 0 1-.875-.943 4.5 4.5 0 0 1-.533-1.272 5.7 5.7 0 0 1-.178-1.394q0-.725.178-1.49.177-.78.547-1.409.369-.642.943-1.038.575-.41 1.367-.41.766 0 1.3.423.546.41.874 1.04.329.614.465 1.353.136.738.096 1.394-.041.725-.233 1.463a4.7 4.7 0 0 1-.533 1.326q-.356.588-.902.957-.547.37-1.3.37m.137-6.18q-.205 0-.37.22-.15.218-.26.533-.095.315-.15.67a4 4 0 0 0-.054.601q0 .328.054.711.069.383.178.711.11.314.26.533.164.205.369.205.219 0 .37-.205.162-.204.259-.52.096-.314.137-.683.04-.383.04-.71 0-.301-.054-.657a4 4 0 0 0-.164-.684 1.5 1.5 0 0 0-.26-.52q-.15-.204-.355-.204m8.271.67a.9.9 0 0 1-.328-.027l-.274-.109a3 3 0 0 0-.246-.096.54.54 0 0 0-.273-.04q-.273.012-.492.15a2 2 0 0 0-.383.342q-.164.204-.287.464a3 3 0 0 0-.191.493q-.041.164-.069.505-.014.33-.014.711-.013.397-.013.752 0 .356-.028.56-.014.22-.068.52a2.3 2.3 0 0 1-.178.547 1.25 1.25 0 0 1-.3.438.7.7 0 0 1-.493.177.65.65 0 0 1-.41-.136 1.3 1.3 0 0 1-.287-.356 3.3 3.3 0 0 1-.191-.533 7 7 0 0 1-.11-.615q-.04-.329-.068-.656l-.027-.616v-.547q.013-.246.013-.396a17 17 0 0 0-.054-.957 18 18 0 0 1-.028-.97q0-.302.028-.67a2.3 2.3 0 0 1 .15-.684q.123-.328.355-.547.246-.219.67-.219.233 0 .397.15t.26.37q.109.218.164.465.054.245.068.45.329-.533.738-.86.411-.343 1.067-.37.328-.013.642.069.33.067.588.246.273.164.438.437.177.274.191.643.027.437-.26.67a1.14 1.14 0 0 1-.697.246m10.445 1.204q0 .752-.15 1.49t-.506 1.326a2.75 2.75 0 0 1-.957.93q-.588.355-1.476.355-.876 0-1.463-.341a2.8 2.8 0 0 1-.944-.93 4.2 4.2 0 0 1-.492-1.299 8 8 0 0 1-.137-1.477q0-.82.192-1.626.04-.22.15-.602.123-.396.301-.766.192-.383.424-.656.246-.273.533-.273.273 0 .438.15.163.15.26.383.095.219.122.478.028.247.028.452 0 .314-.055.615-.041.3-.096.601l-.11.82a8 8 0 0 0-.026 1.286q.027.246.109.478.082.233.232.397.15.15.424.15.356 0 .56-.191.22-.191.315-.479.11-.287.137-.615.027-.329.027-.602 0-.6-.082-1.175a47 47 0 0 1-.15-1.19 1.3 1.3 0 0 1 .055-.602q.068-.204.19-.368a.9.9 0 0 1 .302-.26.74.74 0 0 1 .396-.11q.3 0 .533.22.233.204.383.546.164.329.26.752.11.41.164.82.069.397.082.752.027.356.027.56m9.133-.602v.711q0 .437-.027.957-.015.52-.082 1.053-.069.519-.219.943-.137.424-.355.698a.69.69 0 0 1-.56.273.53.53 0 0 1-.466-.246 2 2 0 0 1-.219-.602 4.4 4.4 0 0 1-.081-.697v-.56q0-.615.04-1.204.041-.587.041-1.203v-.246q0-.177-.027-.355a1 1 0 0 0-.096-.315q-.054-.136-.177-.136-.246 0-.397.26-.15.245-.246.587t-.137.684q-.04.328-.054.492a8 8 0 0 0-.055.533q-.014.355-.055.78a8 8 0 0 1-.109.874 5 5 0 0 1-.191.807 1.9 1.9 0 0 1-.287.588.53.53 0 0 1-.438.233.56.56 0 0 1-.506-.288 2.1 2.1 0 0 1-.26-.67 5.5 5.5 0 0 1-.109-.779q-.014-.397-.014-.615v-.451a7 7 0 0 0 .014-.451v-.315q0-.219-.014-.478 0-.275-.027-.56a4 4 0 0 0-.055-.52 1.3 1.3 0 0 0-.123-.397q-.082-.15-.191-.15-.178 0-.328.232-.15.22-.26.533-.11.3-.178.602-.055.3-.055.437v.082q0 .657.082 1.285.083.63.083 1.286 0 .383-.246.71-.247.315-.684.315a.66.66 0 0 1-.52-.232 2 2 0 0 1-.341-.63 5.3 5.3 0 0 1-.22-.833 11 11 0 0 1-.095-.903q-.027-.451-.04-.806v-.547q0-.205-.015-.602 0-.396.014-.861.028-.465.082-.943.055-.493.178-.889t.314-.643a.64.64 0 0 1 .52-.26q.355 0 .574.192.233.192.233.574 0 .083-.014.164a1 1 0 0 1-.014.15q.15-.217.37-.437.218-.232.464-.41a2.3 2.3 0 0 1 .547-.3q.287-.124.574-.124a.85.85 0 0 1 .492.15q.22.15.383.383.164.22.274.479.11.26.15.492.136-.246.328-.492a3 3 0 0 1 .438-.451 2.2 2.2 0 0 1 .505-.315 1.5 1.5 0 0 1 .588-.123q.288 0 .493.205.204.206.355.534.15.314.233.724.082.397.136.793.055.383.069.725.013.328.013.52m10.46.438q0 .6-.138 1.326a4.6 4.6 0 0 1-.437 1.326q-.3.615-.807 1.025-.492.41-1.244.41-.191 0-.396-.027a2 2 0 0 1-.397-.095 1.4 1.4 0 0 1-.328-.178.8.8 0 0 1-.232-.315l-.123 1.97a63 63 0 0 0-.028.751q0 .438-.11.834a1.5 1.5 0 0 1-.34.67q-.234.287-.684.287-.261 0-.438-.273a2.2 2.2 0 0 1-.287-.67 8 8 0 0 1-.15-.916 13 13 0 0 1-.069-.97q-.014-.465-.014-.849v-.56q0-.915-.013-1.819-.014-.915-.014-1.831v-.506q0-.356.028-.766.027-.41.082-.848.068-.437.19-.793.124-.37.315-.587a.58.58 0 0 1 .465-.233.5.5 0 0 1 .315.11q.15.095.246.26.11.15.177.327.07.178.11.328.423-.478.97-.724.56-.246 1.19-.246.657 0 1.067.369.422.369.656.916.246.546.341 1.176.096.615.096 1.12m-1.956-.11q0-.204-.04-.41a1.1 1.1 0 0 0-.124-.396.67.67 0 0 0-.246-.301.67.67 0 0 0-.41-.123q-.328 0-.697.219a1.5 1.5 0 0 0-.534.478q-.068.11-.082.356t-.013.369v.26l.027.314.027.315a1 1 0 0 0 .069.232q.04.123.177.232.138.096.301.178.165.082.328.123.179.04.301.041a.57.57 0 0 0 .465-.219 1.6 1.6 0 0 0 .273-.52q.11-.3.137-.614.041-.33.041-.534m7.533-.93a.9.9 0 0 1-.328-.027l-.273-.109a3 3 0 0 0-.246-.096.54.54 0 0 0-.274-.04q-.273.012-.492.15a2 2 0 0 0-.383.342q-.165.204-.287.464a3 3 0 0 0-.191.493q-.041.164-.069.505-.013.33-.013.711-.014.397-.014.752 0 .356-.027.56-.014.22-.069.52a2.3 2.3 0 0 1-.177.547 1.25 1.25 0 0 1-.301.438.7.7 0 0 1-.492.177.65.65 0 0 1-.41-.136 1.3 1.3 0 0 1-.288-.356 3.3 3.3 0 0 1-.191-.533 7 7 0 0 1-.11-.615q-.04-.329-.068-.656l-.027-.616v-.547q.014-.246.014-.396-.015-.478-.055-.957a17 17 0 0 1-.028-.97q0-.302.028-.67a2.3 2.3 0 0 1 .15-.684q.122-.328.356-.547.246-.219.67-.219.233 0 .396.15.164.15.26.37.11.218.164.465.055.245.068.45.329-.533.739-.86.41-.343 1.066-.37.328-.013.643.069.327.067.588.246.273.164.437.437.177.274.191.643.028.437-.26.67a1.14 1.14 0 0 1-.697.246m3.76 5.51q-.697 0-1.217-.369a3.2 3.2 0 0 1-.875-.943 4.5 4.5 0 0 1-.533-1.272 5.7 5.7 0 0 1-.178-1.394q0-.725.178-1.49.177-.78.547-1.409.369-.642.943-1.038.575-.41 1.367-.41.766 0 1.3.423.547.41.874 1.04.33.614.465 1.353.136.738.096 1.394-.04.725-.233 1.463a4.7 4.7 0 0 1-.533 1.326q-.355.588-.902.957-.547.37-1.299.37m.137-6.18q-.205 0-.37.22-.15.218-.26.533-.094.315-.15.67a4 4 0 0 0-.054.601q0 .328.054.711.069.383.178.711.11.314.26.533.164.205.37.205.218 0 .368-.205.165-.204.26-.52.096-.314.137-.683.04-.383.04-.71 0-.301-.054-.657a4 4 0 0 0-.164-.684 1.5 1.5 0 0 0-.26-.52q-.15-.204-.355-.204m8.599.534a1 1 0 0 1-.013.15 1 1 0 0 1-.041.137q-.123.314-.383.533a.96.96 0 0 1-.615.205q-.534 0-.725-.533a.4.4 0 0 1-.027-.15q0-.096-.014-.192v-.396a.8.8 0 0 0-.096-.3q-.068-.11-.232-.11-.232 0-.451.3-.205.287-.37.698-.15.397-.245.82-.096.424-.096.684 0 .204.027.506a3 3 0 0 0 .11.56q.081.273.218.479.15.19.383.191a.7.7 0 0 0 .424-.137q.206-.15.396-.341.178-.165.383-.342a.76.76 0 0 1 .492-.178q.342 0 .534.246.204.246.205.56 0 .465-.246.876-.247.396-.616.697-.37.287-.82.451a2.4 2.4 0 0 1-.861.178q-.739 0-1.258-.37a2.9 2.9 0 0 1-.82-.929 4.4 4.4 0 0 1-.452-1.244 6.4 6.4 0 0 1-.136-1.272q0-.697.191-1.504a5.7 5.7 0 0 1 .588-1.517 3.8 3.8 0 0 1 1.012-1.162q.629-.465 1.49-.465.532 0 .916.232.396.232.643.616.26.369.382.834.138.465.137.916v.136a.6.6 0 0 1-.014.137m6.495 2.816q0 .466-.301.916a3.4 3.4 0 0 1-.738.793 4.3 4.3 0 0 1-.944.56 2.5 2.5 0 0 1-.93.206q-.725 0-1.298-.355a3.4 3.4 0 0 1-.944-.93 4.5 4.5 0 0 1-.588-1.23 5 5 0 0 1-.191-1.327q0-.684.191-1.463.191-.78.575-1.435a3.8 3.8 0 0 1 .984-1.094q.601-.437 1.422-.437.465 0 .889.164a2.15 2.15 0 0 1 1.244 1.12q.19.397.191.89 0 .642-.273 1.203a3.2 3.2 0 0 1-.725.97 3.8 3.8 0 0 1-1.039.67 3.5 3.5 0 0 1-1.203.273q.054.397.314.575.274.177.643.177.273 0 .533-.136a6 6 0 0 0 .506-.301q.246-.177.478-.314.247-.137.493-.137a.76.76 0 0 1 .492.178.57.57 0 0 1 .219.464m-2.215-3.35a.8.8 0 0 0-.096-.368.32.32 0 0 0-.301-.192q-.3 0-.506.164-.204.15-.341.397a2.3 2.3 0 0 0-.219.506q-.069.273-.082.505.191-.04.451-.109a3 3 0 0 0 .506-.178q.246-.123.41-.3a.58.58 0 0 0 .178-.424m6.767-1.735q0 .396-.273.587-.26.192-.588.37-.328.163-.602.396-.26.232-.259.697 0 .246.109.424.123.178.287.328.178.137.383.287t.369.342q.178.192.287.465.123.273.123.67 0 .574-.301 1.135a3.73 3.73 0 0 1-1.777 1.668q-.574.26-1.135.26-.233 0-.464-.042a1.3 1.3 0 0 1-.424-.123.9.9 0 0 1-.301-.26.8.8 0 0 1-.123-.45q0-.384.15-.588.151-.219.383-.342.233-.123.492-.192.274-.068.506-.164.233-.11.383-.273t.15-.465q0-.287-.232-.588-.219-.314-.492-.656a7 7 0 0 1-.506-.752 1.8 1.8 0 0 1-.219-.875q0-.588.233-1.08.246-.507.642-.875.41-.37.93-.575a2.8 2.8 0 0 1 1.094-.218q.218 0 .423.04.22.042.383.151.165.096.26.274a.75.75 0 0 1 .109.424m4.553 0q0 .396-.273.587-.261.192-.588.37-.329.163-.602.396-.26.232-.26.697 0 .246.11.424.123.178.287.328.177.137.383.287.204.15.369.342.177.192.287.465.123.273.123.67 0 .574-.301 1.135a3.7 3.7 0 0 1-.752.984q-.451.424-1.025.684t-1.135.26q-.233 0-.465-.042a1.3 1.3 0 0 1-.424-.123.9.9 0 0 1-.3-.26.8.8 0 0 1-.123-.45q0-.384.15-.588.15-.219.383-.342t.492-.192q.273-.068.506-.164.232-.11.383-.273.15-.164.15-.465 0-.287-.232-.588a12 12 0 0 0-.493-.656 7 7 0 0 1-.505-.752 1.8 1.8 0 0 1-.219-.875q0-.588.232-1.08.246-.507.643-.875.41-.37.93-.575.519-.218 1.093-.218.219 0 .424.04.22.042.383.151a.7.7 0 0 1 .26.274.75.75 0 0 1 .109.424m3.145 7.916q-.698 0-1.217-.37a3.2 3.2 0 0 1-.875-.943 4.5 4.5 0 0 1-.533-1.272 5.7 5.7 0 0 1-.178-1.394q0-.725.178-1.49.177-.78.546-1.409.37-.642.944-1.038.574-.41 1.367-.41.765 0 1.299.423.546.41.875 1.04.328.614.465 1.353.137.738.095 1.394-.04.725-.232 1.463a4.7 4.7 0 0 1-.533 1.326q-.355.588-.903.957-.546.37-1.298.37m.136-6.18q-.204 0-.369.219-.15.218-.26.533-.095.315-.15.67a4 4 0 0 0-.055.601q0 .328.055.711.069.383.178.711.11.314.259.533.165.205.37.205.218 0 .369-.205.164-.204.26-.52.095-.314.136-.683.041-.383.041-.71 0-.301-.054-.657a4 4 0 0 0-.164-.684 1.6 1.6 0 0 0-.26-.52q-.151-.204-.356-.204m12.633 3.855q0 .246-.027.643a3.7 3.7 0 0 1-.11.78q-.095.368-.3.642a.68.68 0 0 1-.575.273q-.506 0-.779-.328t-.26-.82a3.3 3.3 0 0 1-.998.601 3 3 0 0 1-1.121.219q-.396 0-.752-.191a2.4 2.4 0 0 1-.629-.493 2.5 2.5 0 0 1-.437-.67 1.9 1.9 0 0 1-.164-.751q0-.656.396-1.149.41-.492.998-.834a5.7 5.7 0 0 1 1.244-.56 7.5 7.5 0 0 1 1.19-.274v-.123a.5.5 0 0 0 .014-.123q0-.423-.233-.683t-.656-.26a1.3 1.3 0 0 0-.588.123q-.246.11-.465.26-.22.135-.437.26-.219.109-.493.109a.76.76 0 0 1-.519-.192.64.64 0 0 1-.205-.492q0-.45.26-.82.273-.369.67-.615.41-.26.875-.397.478-.15.875-.15.369 0 .738.095.369.082.697.274.328.178.588.451.273.26.437.615.247.506.397 1.08.15.56.232 1.162.083.588.11 1.19.027.588.027 1.148m-2.187-.437-.041-.93h-.055a.1.1 0 0 0-.055-.014 1.4 1.4 0 0 0-.451.096 2 2 0 0 0-.506.246q-.246.15-.424.342a.6.6 0 0 0-.164.397q0 .19.137.26a.7.7 0 0 0 .314.068 1.6 1.6 0 0 0 .643-.15q.341-.165.602-.315m8.996-1.545q0 .752-.151 1.49a4.1 4.1 0 0 1-.506 1.326 2.75 2.75 0 0 1-.957.93q-.588.355-1.476.355-.875 0-1.463-.341a2.8 2.8 0 0 1-.943-.93 4.2 4.2 0 0 1-.493-1.299 8 8 0 0 1-.136-1.477q0-.82.191-1.626.041-.22.15-.602.124-.396.301-.766.192-.383.424-.656.246-.273.533-.273.274 0 .438.15t.26.383q.095.219.123.478.027.247.027.452 0 .314-.055.615-.04.3-.095.601l-.11.82a8 8 0 0 0-.027 1.286q.028.246.109.478.082.233.233.397.15.15.423.15.355 0 .561-.191.22-.191.314-.479.11-.287.137-.615.028-.329.028-.602 0-.6-.082-1.175a48 48 0 0 1-.151-1.19 1.3 1.3 0 0 1 .055-.602q.068-.204.191-.368a.9.9 0 0 1 .301-.26.74.74 0 0 1 .396-.11q.302 0 .534.22.232.204.382.546.165.329.26.752.11.41.164.82.069.397.082.752.028.356.028.56m4.019 4.402q-.97 0-1.517-.26a1.76 1.76 0 0 1-.807-.71q-.26-.465-.314-1.122a18 18 0 0 1-.055-1.463q0-.642.041-1.285.04-.656.123-1.394-.192 0-.301.014h-.178q-.437 0-.752-.192a.64.64 0 0 1-.328-.588q0-.246.192-.437.177-.192.465-.328.286-.138.615-.22.342-.08.642-.109 0-.382.055-.847t.191-.862q.151-.409.397-.683a.8.8 0 0 1 .629-.274q.218 0 .383.137a.9.9 0 0 1 .287.328q.109.192.164.438.054.246.055.478 0 .275-.041.56a7 7 0 0 1-.151.712q.232-.028.315-.028a1 1 0 0 1 .15-.013q.232 0 .479.04.26.042.464.138.22.095.356.26a.53.53 0 0 1 .137.368q0 .246-.206.438a1.6 1.6 0 0 1-.492.328q-.3.136-.642.219a6 6 0 0 1-.643.096q-.083.56-.123 1.038-.027.465-.068.944-.028.232-.055.478a8 8 0 0 0-.014.479q0 .178.014.424.013.233.096.45a1 1 0 0 0 .259.384q.178.15.493.15.19 0 .396-.027.206-.041.41-.041.356 0 .506.246.164.246.164.629a.78.78 0 0 1-.177.506q-.165.204-.424.328a2.2 2.2 0 0 1-.588.205q-.315.068-.602.068m4.662-.096q-.697 0-1.216-.369a3.2 3.2 0 0 1-.875-.943 4.5 4.5 0 0 1-.534-1.272 5.8 5.8 0 0 1-.177-1.394q0-.725.177-1.49.178-.78.547-1.409.37-.642.944-1.038.573-.41 1.367-.41.765 0 1.299.423.546.41.875 1.04.327.614.464 1.353.137.738.096 1.394-.041.725-.232 1.463a4.7 4.7 0 0 1-.533 1.326q-.355.588-.903.957-.546.37-1.299.37m.137-6.18q-.205 0-.369.22-.15.218-.26.533a5 5 0 0 0-.15.67 4 4 0 0 0-.055.601q0 .328.055.711.068.383.177.711.11.314.26.533.165.205.369.205.219 0 .37-.205.164-.204.259-.52.096-.314.137-.683.04-.383.041-.71 0-.301-.055-.657a3.7 3.7 0 0 0-.164-.684 1.6 1.6 0 0 0-.259-.52q-.151-.204-.356-.204m5.783-3.759a.56.56 0 0 1-.109.342q-.096.15-.26.273a1.6 1.6 0 0 1-.355.178 1.3 1.3 0 0 1-.356.055.84.84 0 0 1-.478-.137q-.205-.137-.205-.424 0-.205.095-.355a.9.9 0 0 1 .26-.26q.15-.11.342-.164.191-.055.369-.055.26 0 .479.123t.218.424m.11 4.649v.41q0 .204-.014.396-.014.233-.014.629 0 .382-.027.834-.027.45-.096.916-.054.465-.191.848a1.8 1.8 0 0 1-.369.629.78.78 0 0 1-.561.246.5.5 0 0 1-.437-.205 1.9 1.9 0 0 1-.301-.561 4.6 4.6 0 0 1-.164-.78q-.055-.436-.082-.833a12 12 0 0 1-.028-.752v-1.121q0-.41.028-.875.027-.465.095-.944.083-.478.219-.875.15-.396.383-.642a.77.77 0 0 1 .588-.246q.37 0 .56.369.192.369.288.861t.109.984q.014.479.014.712m9.269.382v.711q0 .437-.027.957a11 11 0 0 1-.082 1.053 4.7 4.7 0 0 1-.219.943q-.137.424-.355.698a.69.69 0 0 1-.561.273.53.53 0 0 1-.465-.246 2 2 0 0 1-.219-.602 4.6 4.6 0 0 1-.082-.697v-.56q0-.615.041-1.204.042-.587.041-1.203v-.246q0-.177-.027-.355a1 1 0 0 0-.096-.315q-.054-.136-.177-.136-.246 0-.397.26-.15.245-.246.587a4.6 4.6 0 0 0-.137.684q-.04.328-.054.492a7 7 0 0 0-.055.533q-.013.355-.055.78a8 8 0 0 1-.109.874q-.069.438-.191.807a1.9 1.9 0 0 1-.288.588.53.53 0 0 1-.437.233.56.56 0 0 1-.506-.288 2.1 2.1 0 0 1-.26-.67 6 6 0 0 1-.109-.779q-.014-.397-.014-.615V79.6q.014-.219.014-.451v-.315q0-.219-.014-.478 0-.275-.027-.56a4 4 0 0 0-.055-.52 1.3 1.3 0 0 0-.123-.397q-.082-.15-.191-.15-.178 0-.328.232a2.2 2.2 0 0 0-.26.533 5 5 0 0 0-.178.602q-.054.3-.055.437v.082q0 .657.082 1.285.082.63.082 1.286 0 .383-.246.71-.246.315-.683.315a.66.66 0 0 1-.52-.232 2.1 2.1 0 0 1-.342-.63 5 5 0 0 1-.218-.833q-.069-.464-.096-.903-.027-.451-.041-.806v-.547q0-.205-.014-.602 0-.396.014-.861.027-.465.082-.943.055-.493.178-.889t.314-.643a.64.64 0 0 1 .52-.26q.355 0 .574.192.232.192.232.574 0 .083-.013.164a1 1 0 0 1-.014.15q.15-.217.369-.437.219-.232.465-.41.26-.191.547-.3.287-.124.574-.124a.85.85 0 0 1 .492.15q.22.15.383.383.165.22.274.479.109.26.15.492.136-.246.328-.492.206-.26.438-.451a2.2 2.2 0 0 1 .505-.315q.288-.123.588-.123.288 0 .493.205.204.206.355.534.15.314.232.724.083.397.137.793.055.383.068.725.014.328.014.52m6.891.602q0 .752-.151 1.49-.15.738-.505 1.326a2.75 2.75 0 0 1-.957.93q-.588.355-1.477.355-.875 0-1.463-.341a2.8 2.8 0 0 1-.943-.93 4.2 4.2 0 0 1-.492-1.299 8 8 0 0 1-.137-1.477q0-.82.191-1.626a5.6 5.6 0 0 1 .451-1.367q.192-.384.424-.657.246-.273.533-.273.275 0 .438.15.164.15.26.383.095.219.123.478.027.247.027.452 0 .314-.055.615-.04.3-.095.601l-.11.82a8 8 0 0 0-.027 1.286q.028.246.109.478.082.233.233.397.15.15.424.15.355 0 .56-.191.219-.191.315-.479.109-.287.136-.615.028-.329.028-.602 0-.6-.082-1.175a48 48 0 0 1-.151-1.19 1.3 1.3 0 0 1 .055-.602q.068-.204.191-.368a.9.9 0 0 1 .301-.26.74.74 0 0 1 .397-.11q.3 0 .533.22.232.204.383.546.164.329.259.752.11.41.164.82.069.397.082.752.028.356.028.56m4.717 4.293q-.232 0-.37-.219a1.5 1.5 0 0 1-.205-.478 4 4 0 0 1-.095-.547 10 10 0 0 1-.014-.438q0-.41.041-.82l.109-.82q.068-.41.11-.82.054-.411.054-.821 0-.165-.013-.356a1.4 1.4 0 0 0-.069-.355.6.6 0 0 0-.15-.287.4.4 0 0 0-.287-.11q-.123 0-.274.206-.15.191-.287.45a5 5 0 0 0-.218.507 1.3 1.3 0 0 0-.082.369v.615q.013.3.013.615v.793q-.014.246-.041.506a4 4 0 0 1-.082.506 3 3 0 0 1-.123.478 1.5 1.5 0 0 1-.219.397q-.123.164-.3.273a.8.8 0 0 1-.424.11.6.6 0 0 1-.451-.178 1.3 1.3 0 0 1-.287-.451 3.2 3.2 0 0 1-.165-.63 22 22 0 0 1-.068-.683 16 16 0 0 1-.014-.615q.015-.287.014-.451v-.643q0-.52-.027-1.025a38 38 0 0 1-.014-1.012v-.697q.014-.424.109-.82.096-.41.315-.698.219-.287.642-.287.192 0 .342.123t.26.301q.123.178.191.383.082.205.124.355a3 3 0 0 1 .314-.369q.192-.177.424-.314a2.23 2.23 0 0 1 1.176-.301q.696 0 1.08.342.396.328.574.834.191.492.232 1.066t.041 1.04q0 .231-.041.697-.041.45-.136 1.011-.083.547-.233 1.135a7.6 7.6 0 0 1-.355 1.053 2.6 2.6 0 0 1-.493.779q-.273.3-.628.3m8.38-2.817q0 .466-.3.916a3.4 3.4 0 0 1-.739.793 4.3 4.3 0 0 1-.943.56 2.5 2.5 0 0 1-.93.206q-.725 0-1.298-.355a3.4 3.4 0 0 1-.944-.93 4.5 4.5 0 0 1-.588-1.23 5 5 0 0 1-.191-1.327q0-.684.191-1.463.192-.78.574-1.435.397-.657.985-1.094.602-.437 1.422-.437.465 0 .888.164a2.15 2.15 0 0 1 1.245 1.12q.19.397.191.89 0 .642-.273 1.203a3.2 3.2 0 0 1-.725.97 3.8 3.8 0 0 1-1.039.67 3.5 3.5 0 0 1-1.203.273q.054.397.314.575.273.177.643.177.273 0 .533-.136a6 6 0 0 0 .506-.301q.246-.177.478-.314.246-.137.493-.137a.76.76 0 0 1 .492.178.57.57 0 0 1 .218.464m-2.214-3.35a.8.8 0 0 0-.096-.368.32.32 0 0 0-.301-.192q-.3 0-.506.164-.204.15-.342.397a2.3 2.3 0 0 0-.218.506q-.069.273-.082.505.191-.04.451-.109a3 3 0 0 0 .506-.178q.246-.123.41-.3a.58.58 0 0 0 .178-.424"/><defs><filter id="a" width="215" height="153" x="0" y="0" color-interpolation-filters="sRGB" filterUnits="userSpaceOnUse"><feFlood flood-opacity="0" result="BackgroundImageFix"/><feBlend in="SourceGraphic" in2="BackgroundImageFix" result="shape"/><feColorMatrix in="SourceAlpha" result="hardAlpha" values="0 0 0 0 0 0 0 0 0 0 0 0 0 0 0 0 0 0 127 0"/><feOffset dy="4"/><feGaussianBlur stdDeviation="2"/><feComposite in2="hardAlpha" k2="-1" k3="1" operator="arithmetic"/><feColorMatrix values="0 0 0 0 0 0 0 0 0 0 0 0 0 0 0 0 0 0 0.25 0"/><feBlend in2="shape" result="effect1_innerShadow_871_282"/></filter></defs></svg>