<svg xmlns="http://www.w3.org/2000/svg" width="288" height="185" fill="none" viewBox="0 0 288 185"><g filter="url(#a)"><path fill="#3dc3ff" fill-rule="evenodd" d="M29.54 112.672C9.786 100.869 1 85.295 1 68.64 1 44.624 25.34 20.9 65.604 9.168 85.134 3.478 108.08 1 134.443 1c80.718 0 155.156 24.504 151.979 67.64 0 21.404-13.777 41.086-41.835 52.836-18.694 7.829-43.446 11.741-75.723 11.741-57.212 3.83-100.481-2.575-128.15-14.804a115 115 0 0 1-3.436-1.587c-1.109 6.769 1.475 12.932 5.842 22.459-8.724-9.717-13.678-15.52-13.58-26.613" clip-rule="evenodd"/></g><path fill="#3dc3ff" d="m29.54 112.672 1 .009a1 1 0 0 0-.487-.867zM65.604 9.168l-.28-.96zM286.422 68.64l-.997-.073-.003.073zm-41.835 52.836-.386-.922zm-75.723 11.741v-1l-.066.003zm-128.15-14.804-.404.915zm-3.436-1.587.434-.901a1.002 1.002 0 0 0-1.42.739zm5.842 22.459-.744.668a1.001 1.001 0 0 0 1.653-1.085zM1 68.64H0c0 17.07 9.03 32.942 29.027 44.891l.513-.859.513-.858C10.542 100.156 2 84.879 2 68.64zM65.604 9.168l-.28-.96C45.08 14.106 28.779 23.036 17.52 33.567 6.264 44.095 0 56.278 0 68.64h2c0-11.654 5.906-23.342 16.886-33.613 10.978-10.269 26.98-19.067 46.998-24.899zM134.443 1V0c-26.419 0-49.467 2.483-69.119 8.208l.28.96.28.96C85.292 4.474 108.136 2 134.443 2zm151.979 67.64.997.074c1.641-22.277-16.78-39.451-45.149-50.996C213.811 6.136 174.884 0 134.443 0v2c40.277 0 78.928 6.116 107.073 17.57 28.236 11.491 45.445 28.136 43.909 48.997zm-41.835 52.836.387.922c28.325-11.862 42.448-31.85 42.448-53.758h-2c0 20.899-13.431 40.276-41.221 51.914zm-75.723 11.741v1c32.344 0 57.244-3.918 76.11-11.819l-.387-.922-.386-.922c-18.523 7.757-43.127 11.663-75.337 11.663zm-128.15-14.804-.404.915c27.875 12.32 71.326 18.723 128.621 14.887l-.067-.998-.066-.997c-57.129 3.824-100.217-2.584-127.679-14.722zm-3.436-1.587-.435.9q1.692.817 3.467 1.602l.405-.915.404-.915a113 113 0 0 1-3.407-1.573zm5.842 22.459.91-.417c-4.395-9.587-6.816-15.464-5.765-21.881l-.987-.161-.987-.162c-1.166 7.122 1.58 13.571 5.92 23.037zm-13.58-26.613-1-.009c-.102 11.522 5.126 17.589 13.836 27.29l.744-.668.744-.669c-8.739-9.732-13.418-15.271-13.324-25.935z"/><path fill="#fff" d="M31.963 45.188v.39q-.015.579-.062 1.234-.048.657-.157 1.297a7 7 0 0 1-.328 1.235q-.218.578-.593 1.031t-.922.719q-.548.265-1.328.265-.844 0-1.485-.359a3.35 3.35 0 0 1-1.047-.937 4.2 4.2 0 0 1-.625-1.313 5.5 5.5 0 0 1-.203-1.484q0-.33.078-.735.063-.405.235-.75.171-.36.437-.593a1.02 1.02 0 0 1 .703-.25q.453 0 .672.25.234.249.328.624.11.36.141.797.03.422.078.797.047.36.156.61.126.25.407.25.327 0 .515-.282.188-.28.266-.656.093-.39.11-.781.03-.39.03-.61 0-.874-.156-1.703a21 21 0 0 0-.36-1.703 39 39 0 0 0-.234-.89 3.4 3.4 0 0 1-.125-.907q0-.53.282-.859.28-.345.828-.344.406 0 .64.172.235.156.47.469.359.484.593 1.11.25.624.39 1.296t.204 1.36q.062.67.062 1.25m7.578 3.609q0 .28-.03.734a4.3 4.3 0 0 1-.126.89 2.1 2.1 0 0 1-.344.735q-.234.313-.656.313-.578 0-.89-.375-.314-.375-.297-.938-.5.438-1.141.688-.626.25-1.281.25-.453 0-.86-.219a2.7 2.7 0 0 1-.718-.562 2.9 2.9 0 0 1-.5-.766 2.2 2.2 0 0 1-.188-.86q0-.75.453-1.312a4.3 4.3 0 0 1 1.14-.953q.673-.406 1.423-.64.765-.235 1.36-.313v-.14a.6.6 0 0 0 .015-.142q0-.484-.266-.78-.265-.298-.75-.298-.39 0-.672.141a3.3 3.3 0 0 0-.531.297q-.25.156-.5.297a1.24 1.24 0 0 1-.562.125.87.87 0 0 1-.594-.219.74.74 0 0 1-.235-.562q0-.516.297-.938.313-.422.766-.703a4 4 0 0 1 1-.453 3.4 3.4 0 0 1 1-.172q.421 0 .844.11.421.093.797.312.374.203.671.515.313.298.5.703.282.579.454 1.235.172.64.265 1.328.094.672.125 1.36.03.671.031 1.312m-2.5-.5-.046-1.063h-.063a.14.14 0 0 0-.062-.015q-.204 0-.516.11-.297.093-.578.28a2.3 2.3 0 0 0-.485.391.7.7 0 0 0-.187.453q0 .219.156.297a.8.8 0 0 0 .36.078q.343 0 .734-.172.39-.187.687-.36m.75-9.125q0 .171-.093.344a1.5 1.5 0 0 1-.235.297 2.3 2.3 0 0 1-.281.265q-.156.109-.281.203a8 8 0 0 0-.25.188 3 3 0 0 1-.282.187 3 3 0 0 1-.296.14.7.7 0 0 1-.282.063.4.4 0 0 1-.218-.062.27.27 0 0 1-.094-.219q0-.235.172-.562.188-.344.453-.657.265-.327.562-.547.297-.234.547-.234.219 0 .39.188.189.172.188.406m10.891 12.266q-.266 0-.422-.25a1.7 1.7 0 0 1-.234-.547 4.4 4.4 0 0 1-.11-.625 11 11 0 0 1-.015-.5q0-.469.047-.938l.125-.937q.078-.469.125-.938a7 7 0 0 0 .062-.937q0-.187-.015-.407a1.7 1.7 0 0 0-.079-.406.66.66 0 0 0-.171-.328.44.44 0 0 0-.329-.125q-.14 0-.312.234a3.4 3.4 0 0 0-.328.516 6 6 0 0 0-.25.578 1.5 1.5 0 0 0-.094.422v.703q.015.345.016.703v.907q-.015.28-.047.578a5 5 0 0 1-.094.578q-.047.281-.14.547a1.7 1.7 0 0 1-.25.453q-.141.188-.344.312a.9.9 0 0 1-.485.125.7.7 0 0 1-.515-.203 1.5 1.5 0 0 1-.328-.516 3.6 3.6 0 0 1-.188-.718q-.047-.407-.078-.782a18 18 0 0 1-.016-.703q.016-.327.016-.515v-.735q0-.593-.031-1.172-.015-.577-.016-1.156v-.797a4.6 4.6 0 0 1 .125-.937q.11-.469.36-.797.248-.328.734-.328a.6.6 0 0 1 .39.14q.172.141.297.344.141.204.219.438.095.234.14.406.158-.218.36-.422.219-.203.484-.36A2.54 2.54 0 0 1 48.635 42q.797 0 1.235.39.453.375.656.954.219.563.265 1.218.047.657.047 1.188 0 .266-.047.797-.046.516-.156 1.156-.093.626-.265 1.297-.172.657-.407 1.203a3 3 0 0 1-.562.89q-.313.344-.719.344m6 .015q-.797 0-1.39-.422a3.7 3.7 0 0 1-1-1.078 5.2 5.2 0 0 1-.61-1.453 6.6 6.6 0 0 1-.203-1.594q0-.828.203-1.703.203-.89.625-1.61.421-.734 1.078-1.187.656-.468 1.563-.468.875 0 1.484.484.625.468 1 1.187.375.705.531 1.547.155.844.11 1.594a8.6 8.6 0 0 1-.266 1.672 5.3 5.3 0 0 1-.61 1.516q-.405.671-1.03 1.093-.626.422-1.485.422m.156-7.062q-.234 0-.422.25-.171.25-.296.609a5.5 5.5 0 0 0-.172.766q-.063.39-.063.687 0 .375.063.813.078.437.203.812.125.36.297.61.187.234.422.234.25 0 .421-.234.187-.236.297-.594.11-.36.157-.782.046-.437.046-.812 0-.345-.062-.75a4.3 4.3 0 0 0-.188-.781 1.8 1.8 0 0 0-.296-.594q-.172-.234-.407-.234m14.532-3.672q0 1.14-.094 2.265-.078 1.126-.078 2.266 0 .922.047 1.828.062.906.062 1.828 0 .25-.016.61-.015.343-.109.672a1.3 1.3 0 0 1-.281.562q-.188.234-.547.234-.47 0-.781-.343a1.7 1.7 0 0 1-.375-.797 2.7 2.7 0 0 1-.86.953q-.562.39-1.218.39a1.72 1.72 0 0 1-1.22-.484 4.3 4.3 0 0 1-.843-1.172 7 7 0 0 1-.5-1.437 6.5 6.5 0 0 1-.156-1.297 9.7 9.7 0 0 1 .203-1.906q.124-.516.312-1 .188-.5.47-.891.296-.39.687-.625.405-.234.922-.234.561 0 1.078.328.515.328.78.812l.142-2.484q.015-.297.046-.688.032-.406.125-.765.11-.36.329-.61.218-.25.64-.25.454 0 .703.22.25.217.36.562.125.328.14.718.032.39.032.735m-2.547 6.937q0-.36-.016-.703-.015-.343 0-.703a9 9 0 0 0-.219-.437 2 2 0 0 0-.312-.454 1.6 1.6 0 0 0-.39-.359.85.85 0 0 0-.47-.14.6.6 0 0 0-.453.171 1 1 0 0 0-.25.422 2.5 2.5 0 0 0-.11.516q-.015.281-.015.484 0 .188.032.563.03.36.109.734.094.375.25.656t.422.282q.202 0 .406-.079.203-.093.375-.218.188-.141.344-.297.171-.172.297-.313zm6.156-7.562a.65.65 0 0 1-.125.39 1.2 1.2 0 0 1-.297.313q-.187.124-.406.203a1.5 1.5 0 0 1-.406.063.96.96 0 0 1-.547-.157q-.235-.156-.235-.484a.74.74 0 0 1 .11-.406q.125-.187.297-.297.171-.126.39-.188.22-.062.422-.062.297 0 .547.14t.25.485m.125 5.312v.469q0 .234-.016.453-.015.266-.015.719 0 .438-.032.953-.03.516-.109 1.047a4.4 4.4 0 0 1-.219.969 2 2 0 0 1-.422.718.9.9 0 0 1-.64.282.58.58 0 0 1-.5-.235 2.2 2.2 0 0 1-.344-.64 5.4 5.4 0 0 1-.187-.891 17 17 0 0 1-.094-.953q-.031-.47-.031-.86v-1.281q0-.468.03-1 .032-.53.11-1.078a6.4 6.4 0 0 1 .25-1 2.2 2.2 0 0 1 .438-.734.88.88 0 0 1 .672-.282q.42 0 .64.422.219.423.328.985t.125 1.125q.016.546.016.812m7.75 3.39q0 .282-.031.735a4.3 4.3 0 0 1-.125.89 2.1 2.1 0 0 1-.344.735q-.234.313-.656.313-.579 0-.891-.375t-.297-.938q-.5.438-1.14.688-.625.25-1.282.25-.453 0-.86-.219a2.7 2.7 0 0 1-.718-.562 2.9 2.9 0 0 1-.5-.766 2.2 2.2 0 0 1-.187-.86q0-.75.453-1.312a4.3 4.3 0 0 1 1.14-.953q.672-.406 1.422-.64.766-.235 1.36-.313v-.14a.6.6 0 0 0 .015-.142q0-.484-.265-.78-.266-.298-.75-.298-.39 0-.672.141a3.3 3.3 0 0 0-.531.297q-.25.156-.5.297a1.24 1.24 0 0 1-.563.125.87.87 0 0 1-.594-.219.74.74 0 0 1-.234-.562q0-.516.297-.938.312-.422.765-.703a4 4 0 0 1 1-.453 3.4 3.4 0 0 1 1-.172q.423 0 .844.11.422.093.797.312.375.203.672.515.312.298.5.703.28.579.453 1.235.172.64.266 1.328.093.672.125 1.36.03.671.03 1.312m-2.5-.5-.047-1.062h-.062a.14.14 0 0 0-.063-.015q-.203 0-.516.11-.296.093-.578.28a2.3 2.3 0 0 0-.484.391.7.7 0 0 0-.188.453q0 .219.157.297a.8.8 0 0 0 .359.078q.345 0 .734-.172.39-.187.688-.36m10.828-2.452q0 .453-.078 1.031-.063.562-.219 1.156a6.6 6.6 0 0 1-.39 1.157 4.3 4.3 0 0 1-.594 1.015q-.344.438-.813.703a2.06 2.06 0 0 1-1.062.266 2.36 2.36 0 0 1-1.172-.297 2.9 2.9 0 0 1-.89-.812 1.3 1.3 0 0 1-.344.75 1 1 0 0 1-.75.312q-.267 0-.454-.266a2.4 2.4 0 0 1-.28-.672 7 7 0 0 1-.173-.921 16 16 0 0 1-.062-.97q-.016-.468-.016-.843V45.86l.031-1.078q0-.265-.015-.797 0-.53.015-1.172.016-.656.063-1.328.062-.687.203-1.25t.39-.922q.25-.36.641-.374.313 0 .532.218.218.22.359.578.156.36.234.813.094.438.125.89.047.438.047.844.016.39.016.64 0 .048-.016.22v.843q.142-.297.406-.578.266-.28.594-.5.328-.218.688-.36.36-.14.687-.14.657 0 1.094.344.453.328.719.844.266.515.375 1.125.11.593.109 1.125m-2.297.468q0-.187-.031-.406a1.1 1.1 0 0 0-.11-.406.8.8 0 0 0-.234-.312.54.54 0 0 0-.375-.126q-.25 0-.5.11a2.3 2.3 0 0 0-.453.281q-.219.172-.406.375-.188.187-.328.375l-.157 1.39q.25.36.61.579.36.203.812.203.345 0 .563-.219.234-.219.36-.531.14-.329.187-.687.062-.36.062-.626m9.797 1.907q0 .531-.344 1.047-.328.5-.843.906-.5.39-1.079.64-.578.235-1.062.235a2.76 2.76 0 0 1-1.484-.406 3.9 3.9 0 0 1-1.079-1.063 5.2 5.2 0 0 1-.671-1.406 5.6 5.6 0 0 1-.22-1.516q0-.78.22-1.672.218-.89.656-1.64.453-.75 1.125-1.25.687-.5 1.625-.5.53 0 1.015.187a2.45 2.45 0 0 1 1.422 1.282q.219.453.219 1.015 0 .735-.312 1.375a3.6 3.6 0 0 1-.829 1.11q-.516.468-1.187.765a4 4 0 0 1-1.375.313q.061.453.36.656.311.203.734.203.312 0 .609-.156.296-.156.578-.344.282-.203.547-.36a1.15 1.15 0 0 1 .563-.156.87.87 0 0 1 .562.203q.25.204.25.532m-2.531-3.828a.94.94 0 0 0-.11-.422.36.36 0 0 0-.343-.219.9.9 0 0 0-.578.188 1.4 1.4 0 0 0-.391.453q-.157.266-.25.578a3 3 0 0 0-.094.578q.219-.047.516-.125a3 3 0 0 0 .578-.203q.281-.141.469-.344a.66.66 0 0 0 .203-.484m6.797 7.172q-1.11 0-1.735-.297a2 2 0 0 1-.922-.813q-.296-.531-.359-1.281-.062-.75-.062-1.672 0-.735.046-1.469.048-.75.141-1.593-.219 0-.344.015h-.203q-.5 0-.86-.219-.375-.218-.374-.672 0-.28.219-.5a1.7 1.7 0 0 1 .53-.374q.33-.157.704-.25.39-.094.734-.126 0-.437.063-.968.062-.531.219-.985.171-.469.453-.78a.92.92 0 0 1 .718-.313q.25 0 .438.156.203.141.328.375.125.218.187.5.063.281.063.547 0 .313-.047.64-.046.33-.172.813a4 4 0 0 1 .36-.031 1 1 0 0 1 .171-.016q.267 0 .547.047.297.047.532.156.25.11.406.297a.6.6 0 0 1 .156.422.67.67 0 0 1-.234.5q-.22.218-.563.375a4 4 0 0 1-.734.25 7 7 0 0 1-.735.11 20 20 0 0 0-.14 1.187q-.031.53-.078 1.078l-.063.547q-.015.266-.015.547 0 .203.015.484.016.266.11.516.093.25.296.437.203.172.563.172.219 0 .453-.031.235-.047.469-.047.406 0 .578.281.187.282.187.719a.9.9 0 0 1-.203.578 1.35 1.35 0 0 1-.484.375 2.6 2.6 0 0 1-.672.234 3.2 3.2 0 0 1-.687.078m8.906-3.344q0 .531-.344 1.047-.328.5-.844.906a5 5 0 0 1-1.078.64q-.578.235-1.062.235a2.77 2.77 0 0 1-1.485-.406 3.9 3.9 0 0 1-1.078-1.063 5.2 5.2 0 0 1-.672-1.406 5.6 5.6 0 0 1-.218-1.516q0-.78.218-1.672a6.1 6.1 0 0 1 .657-1.64q.453-.75 1.125-1.25.687-.5 1.625-.5.53 0 1.015.187a2.46 2.46 0 0 1 1.422 1.282q.219.453.219 1.015 0 .735-.313 1.375a3.6 3.6 0 0 1-.828 1.11 4.4 4.4 0 0 1-1.187.765 4 4 0 0 1-1.375.313q.062.453.359.656.312.203.734.203.313 0 .61-.156.296-.156.578-.344.281-.203.547-.36.281-.156.562-.156a.87.87 0 0 1 .563.203.65.65 0 0 1 .25.532m-2.531-3.828a.94.94 0 0 0-.11-.422.36.36 0 0 0-.344-.219.9.9 0 0 0-.578.188 1.4 1.4 0 0 0-.39.453q-.157.266-.25.578a3 3 0 0 0-.094.578q.219-.047.516-.125.312-.078.578-.203.28-.141.468-.344a.66.66 0 0 0 .204-.484m7.734-1.985q0 .453-.313.672a6 6 0 0 1-.671.422q-.375.188-.688.453-.297.266-.297.797a.9.9 0 0 0 .125.484q.14.203.328.375.204.157.438.328t.422.391q.203.219.328.531.14.313.14.766 0 .657-.343 1.297a4.3 4.3 0 0 1-.86 1.125 4.3 4.3 0 0 1-1.172.781 3.1 3.1 0 0 1-1.296.297q-.266 0-.532-.047a1.5 1.5 0 0 1-.484-.14 1.05 1.05 0 0 1-.344-.297.9.9 0 0 1-.14-.516q0-.438.171-.672.172-.25.438-.39t.562-.22q.314-.077.579-.187.266-.124.437-.312.172-.187.172-.532 0-.327-.266-.671a14 14 0 0 0-.562-.75 8 8 0 0 1-.578-.86 2.03 2.03 0 0 1-.25-1q0-.672.265-1.234.282-.579.735-1a3.5 3.5 0 0 1 1.062-.656q.594-.25 1.25-.25.25 0 .485.047.25.046.437.171a.8.8 0 0 1 .297.313.86.86 0 0 1 .125.484m11.125-1.687q0 1.14-.094 2.265-.078 1.126-.078 2.266 0 .922.047 1.828.062.906.062 1.828 0 .25-.015.61-.016.343-.11.672a1.3 1.3 0 0 1-.281.562q-.187.234-.547.234-.468 0-.781-.343a1.7 1.7 0 0 1-.375-.797 2.7 2.7 0 0 1-.859.953q-.563.39-1.219.39-.703 0-1.219-.484a4.3 4.3 0 0 1-.844-1.172 7 7 0 0 1-.5-1.437 6.5 6.5 0 0 1-.156-1.297 10 10 0 0 1 .203-1.906 8 8 0 0 1 .313-1q.187-.5.469-.891.297-.39.687-.625.406-.234.922-.234.562 0 1.078.328t.781.812l.141-2.484q.015-.297.047-.688a4.3 4.3 0 0 1 .125-.765q.11-.36.328-.61t.641-.25q.453 0 .703.22.25.217.359.562.124.328.141.718.031.39.031.735m-2.547 6.937q0-.36-.016-.703-.015-.343 0-.703a8 8 0 0 0-.218-.437 2 2 0 0 0-.313-.454 1.6 1.6 0 0 0-.39-.359.85.85 0 0 0-.469-.14.6.6 0 0 0-.453.171 1 1 0 0 0-.25.422 2.5 2.5 0 0 0-.11.516q-.015.281-.015.484a7.3 7.3 0 0 0 .14 1.297q.094.375.25.656.157.282.422.282.204 0 .406-.079.204-.093.375-.218a3 3 0 0 0 .344-.297q.172-.172.297-.313zm6.547 3.797q-.797 0-1.391-.422a3.7 3.7 0 0 1-1-1.078 5.2 5.2 0 0 1-.609-1.453 6.6 6.6 0 0 1-.203-1.594q0-.828.203-1.703.203-.89.625-1.61.422-.734 1.078-1.187.656-.468 1.563-.468.875 0 1.484.484.625.468 1 1.187.375.705.531 1.547.156.844.11 1.594a8.6 8.6 0 0 1-.266 1.672 5.3 5.3 0 0 1-.609 1.516 3.5 3.5 0 0 1-1.032 1.093q-.624.422-1.484.422m.156-7.062q-.234 0-.422.25-.171.25-.297.609a5.5 5.5 0 0 0-.171.766q-.063.39-.063.687 0 .375.063.813.078.437.203.812.125.36.297.61.187.234.421.234.25 0 .422-.234.188-.236.297-.594.11-.36.156-.782.048-.437.047-.812 0-.345-.062-.75a4.3 4.3 0 0 0-.188-.781 1.8 1.8 0 0 0-.297-.594q-.172-.234-.406-.234m14.531 1.015q-.405 1.078-.89 2.25-.484 1.172-1.047 2.188a4.6 4.6 0 0 1-.766 1.047q-.422.405-.968.406-.438 0-.86-.438a6.6 6.6 0 0 1-.765-1.062q-.345-.625-.61-1.25a25 25 0 0 1-.375-1.016 39 39 0 0 0-.281-.906 15 15 0 0 1-.281-.984 12 12 0 0 1-.203-.985 6 6 0 0 1-.079-.937q0-.61.219-1 .22-.39.86-.39.249 0 .453.155.202.141.375.407.171.265.328.625.156.344.297.765.14.406.265.844a52 52 0 0 0 .5 1.64q.141.375.36.75l.25-.64.297-.766q.171-.406.359-.828.187-.437.406-.843a8.3 8.3 0 0 1 .891-1.438q.484-.594.953-.594.438 0 .625.266.187.265.187.687t-.14.953q-.141.533-.36 1.094m4.016 6.047q-.797 0-1.391-.422a3.7 3.7 0 0 1-1-1.078 5.2 5.2 0 0 1-.609-1.453 6.6 6.6 0 0 1-.203-1.594q0-.828.203-1.703.204-.89.625-1.61.422-.734 1.078-1.187.657-.468 1.563-.468.875 0 1.484.484.625.468 1 1.187.375.705.531 1.547.157.844.11 1.594a8.6 8.6 0 0 1-.266 1.672 5.3 5.3 0 0 1-.609 1.516 3.5 3.5 0 0 1-1.032 1.093q-.624.422-1.484.422m.156-7.062q-.234 0-.422.25-.171.25-.296.609-.11.36-.172.766-.063.39-.063.687 0 .375.063.813.078.437.203.812.124.36.297.61.187.234.422.234.25 0 .421-.234.187-.236.297-.594.11-.36.157-.782.046-.437.046-.812 0-.345-.062-.75a4.3 4.3 0 0 0-.188-.781 1.7 1.7 0 0 0-.296-.594q-.172-.234-.407-.234m10.766 1.015a77 77 0 0 1-.891 2.25q-.485 1.172-1.047 2.188a4.6 4.6 0 0 1-.765 1.047q-.422.405-.969.406-.438 0-.859-.438a6.7 6.7 0 0 1-.766-1.062 14 14 0 0 1-.609-1.25 22 22 0 0 1-.375-1.016 39 39 0 0 0-.282-.906 16 16 0 0 1-.281-.984 12 12 0 0 1-.203-.985 6 6 0 0 1-.078-.937q0-.61.219-1t.859-.39q.25 0 .453.155.204.141.375.407.172.265.328.625.157.344.297.765.141.406.266.844t.25.844.25.797q.14.375.359.75l.25-.641q.141-.36.297-.766.172-.406.359-.828.188-.437.407-.843a8.4 8.4 0 0 1 .89-1.438q.485-.594.953-.594.438 0 .625.266.188.265.188.687t-.141.953a10 10 0 0 1-.359 1.094m4.016 6.047q-.798 0-1.391-.422a3.7 3.7 0 0 1-1-1.078 5.2 5.2 0 0 1-.609-1.453 6.5 6.5 0 0 1-.204-1.594q0-.828.204-1.703.202-.89.625-1.61.421-.734 1.078-1.187.656-.468 1.562-.468.875 0 1.485.484.625.468 1 1.187.375.705.531 1.547a6.5 6.5 0 0 1 .109 1.594 8.6 8.6 0 0 1-.265 1.672 5.3 5.3 0 0 1-.61 1.516 3.5 3.5 0 0 1-1.031 1.093q-.625.422-1.484.422m.156-7.062q-.234 0-.422.25-.173.25-.297.609-.11.36-.172.766-.062.39-.062.687 0 .375.062.813.078.437.203.812.126.36.297.61.188.234.422.234.25 0 .422-.234.187-.236.297-.594.11-.36.156-.782a8 8 0 0 0 .047-.812q0-.345-.063-.75a4.3 4.3 0 0 0-.187-.781 1.8 1.8 0 0 0-.297-.594q-.171-.234-.406-.234m1.969-3.688q0 .125-.047.156a.3.3 0 0 1-.157.032q-.187 0-.421-.094a4 4 0 0 1-.454-.234 12 12 0 0 1-.437-.297 7 7 0 0 1-.344-.282q-.156.126-.375.297a5 5 0 0 1-.437.328 5 5 0 0 1-.469.25 1.2 1.2 0 0 1-.438.094.4.4 0 0 1-.156-.031q-.062-.032-.062-.156 0-.235.203-.594a3.8 3.8 0 0 1 .5-.688 4 4 0 0 1 .625-.562q.328-.234.578-.234t.578.234q.328.219.609.531.297.312.5.656t.204.594m4.312 9.469q0 .25-.141.64-.124.39-.328.766-.187.375-.437.64-.25.266-.485.266-.312 0-.312-.312a.9.9 0 0 1 .078-.36q.078-.171.172-.343.093-.156.172-.328a.7.7 0 0 0 .078-.313.9.9 0 0 1-.5.156.78.78 0 0 1-.609-.28.92.92 0 0 1-.25-.626q0-.5.328-.797.328-.312.828-.312.562 0 .984.297t.422.906m7.359 1.281q-.796 0-1.39-.422a3.7 3.7 0 0 1-1-1.078 5.2 5.2 0 0 1-.61-1.453 6.6 6.6 0 0 1-.203-1.594q0-.828.203-1.703.204-.89.625-1.61.422-.734 1.079-1.187.656-.468 1.562-.468.875 0 1.484.484.625.468 1 1.187.375.705.532 1.547a6.5 6.5 0 0 1 .109 1.594 8.6 8.6 0 0 1-.266 1.672 5.3 5.3 0 0 1-.609 1.516 3.5 3.5 0 0 1-1.031 1.093q-.626.422-1.485.422m.157-7.062q-.235 0-.422.25-.173.25-.297.609-.11.36-.172.766a4.4 4.4 0 0 0-.062.687q0 .375.062.813.078.437.203.812.126.36.297.61.188.234.422.234.25 0 .422-.234.187-.236.297-.594.11-.36.156-.782a8 8 0 0 0 .047-.812q0-.345-.063-.75a4.3 4.3 0 0 0-.187-.781 1.8 1.8 0 0 0-.297-.594q-.172-.234-.406-.234m14.953 1.953q0 .687-.156 1.515a5.3 5.3 0 0 1-.5 1.516q-.345.704-.922 1.172-.562.468-1.422.469-.219 0-.453-.032a2.2 2.2 0 0 1-.453-.109 1.6 1.6 0 0 1-.375-.203.9.9 0 0 1-.266-.36l-.141 2.25q-.015.36-.031.86 0 .499-.125.953a1.7 1.7 0 0 1-.391.766q-.265.328-.781.328-.296 0-.5-.313a2.5 2.5 0 0 1-.328-.765 9 9 0 0 1-.172-1.047 15 15 0 0 1-.078-1.11 35 35 0 0 1-.016-.968v-.641q0-1.047-.015-2.078-.016-1.047-.016-2.094v-.578q0-.405.031-.875.032-.468.094-.969.078-.5.219-.906.141-.422.359-.672a.67.67 0 0 1 .532-.266q.203 0 .359.126a.85.85 0 0 1 .281.296 1.6 1.6 0 0 1 .203.375q.078.203.125.375.484-.546 1.11-.828.64-.28 1.359-.281.75 0 1.219.422.484.422.75 1.047.281.624.39 1.343.11.704.11 1.282m-2.235-.125q0-.235-.046-.469a1.3 1.3 0 0 0-.141-.453.77.77 0 0 0-.281-.344.76.76 0 0 0-.469-.14q-.375 0-.797.25a1.74 1.74 0 0 0-.609.546q-.079.126-.094.407-.016.28-.016.422v.296l.032.36q.015.188.031.36.031.17.078.265a.6.6 0 0 0 .203.265q.156.11.344.203.187.095.375.141.203.047.344.047a.65.65 0 0 0 .531-.25 1.8 1.8 0 0 0 .312-.594q.126-.343.157-.703a5 5 0 0 0 .046-.61m9.829 2.578q0 .28-.032.734-.015.454-.125.89a2.1 2.1 0 0 1-.343.735q-.235.313-.657.313-.578 0-.89-.375-.314-.375-.297-.938-.5.438-1.141.688a3.4 3.4 0 0 1-1.281.25q-.453 0-.859-.219a2.7 2.7 0 0 1-.719-.562 2.9 2.9 0 0 1-.5-.766 2.2 2.2 0 0 1-.188-.86q0-.75.453-1.312a4.3 4.3 0 0 1 1.141-.953q.672-.406 1.422-.64.766-.235 1.359-.313v-.14a.6.6 0 0 0 .016-.142q0-.484-.266-.78-.266-.298-.75-.298-.39 0-.672.141a3.3 3.3 0 0 0-.531.297q-.25.156-.5.297a1.24 1.24 0 0 1-.562.125.87.87 0 0 1-.594-.219.74.74 0 0 1-.234-.562q0-.516.296-.938.313-.422.766-.703a4 4 0 0 1 1-.453 3.4 3.4 0 0 1 1-.172q.422 0 .844.11.422.093.797.312.375.203.672.515.312.298.5.703.28.579.453 1.235.172.64.265 1.328.095.672.125 1.36.032.671.032 1.312m-2.5-.5-.047-1.063h-.063a.14.14 0 0 0-.062-.015 1.6 1.6 0 0 0-.516.11 2.3 2.3 0 0 0-.578.28 2.3 2.3 0 0 0-.484.391.7.7 0 0 0-.188.453q0 .219.156.297a.8.8 0 0 0 .36.078q.344 0 .734-.172.391-.187.688-.36m.953-7.594q0 .125-.047.156-.046.032-.156.032a1.2 1.2 0 0 1-.422-.094 4 4 0 0 1-.453-.234 11 11 0 0 1-.438-.297 7 7 0 0 1-.344-.282q-.156.126-.375.297a5 5 0 0 1-.437.328 5 5 0 0 1-.469.25 1.2 1.2 0 0 1-.437.094.4.4 0 0 1-.157-.031q-.062-.032-.062-.156 0-.235.203-.594a3.8 3.8 0 0 1 .5-.688 4 4 0 0 1 .625-.562q.328-.234.578-.234t.578.234q.328.219.61.531.297.312.5.656t.203.594m6.922 10.734q-.266 0-.422-.25a1.7 1.7 0 0 1-.235-.546 4.4 4.4 0 0 1-.109-.625 12 12 0 0 1-.016-.5q0-.469.047-.938l.125-.937q.078-.469.125-.938a7 7 0 0 0 .063-.937q0-.187-.016-.407a1.6 1.6 0 0 0-.078-.406.66.66 0 0 0-.172-.328.44.44 0 0 0-.328-.125q-.14 0-.313.234a3.5 3.5 0 0 0-.328.516q-.14.282-.25.578a1.5 1.5 0 0 0-.093.422v.703q.015.345.015.703v.907q-.015.28-.047.578-.03.297-.093.578-.048.281-.141.547a1.8 1.8 0 0 1-.25.453q-.14.188-.344.312a.9.9 0 0 1-.484.125.7.7 0 0 1-.516-.203 1.5 1.5 0 0 1-.328-.516 3.6 3.6 0 0 1-.187-.718 23 23 0 0 1-.079-.782q-.015-.39-.015-.703.015-.327.015-.515v-.735q0-.593-.031-1.172-.015-.577-.015-1.156v-.797q.015-.484.125-.937a2.1 2.1 0 0 1 .359-.797q.25-.328.734-.328.219 0 .391.14t.297.344q.141.204.219.438.093.234.14.406.156-.218.36-.422.218-.203.484-.36a2.53 2.53 0 0 1 1.344-.343q.796 0 1.234.39.453.375.656.954.22.563.266 1.218.047.657.047 1.188 0 .266-.047.797-.046.516-.156 1.156a13 13 0 0 1-.266 1.297 8.5 8.5 0 0 1-.406 1.203 3 3 0 0 1-.563.89q-.312.344-.718.344M214.526 45q0 .078-.016.172a1 1 0 0 1-.047.156 1.5 1.5 0 0 1-.437.61 1.1 1.1 0 0 1-.703.234q-.61 0-.829-.61a.5.5 0 0 1-.031-.171q0-.11-.015-.22v-.452a.9.9 0 0 0-.11-.344q-.078-.125-.265-.125-.265 0-.516.344a3.8 3.8 0 0 0-.422.797 7 7 0 0 0-.281.937q-.11.484-.11.781 0 .236.032.578.031.33.125.641.094.312.25.547.171.219.437.219a.8.8 0 0 0 .485-.157q.234-.171.453-.39.203-.187.437-.39a.87.87 0 0 1 .563-.204q.39 0 .609.281a.97.97 0 0 1 .234.641q0 .532-.281 1a3.2 3.2 0 0 1-.703.797q-.422.328-.937.516a2.7 2.7 0 0 1-.985.203q-.843 0-1.437-.422a3.3 3.3 0 0 1-.938-1.063 5 5 0 0 1-.515-1.422 7.2 7.2 0 0 1-.157-1.453q0-.797.219-1.718.219-.939.672-1.735a4.3 4.3 0 0 1 1.156-1.328q.719-.531 1.703-.531.61 0 1.047.265.453.266.735.703.297.423.437.954.156.531.156 1.047v.156a1 1 0 0 1-.015.156m6.297.156q-.219.015-.375-.031l-.313-.125a3 3 0 0 0-.281-.11.6.6 0 0 0-.313-.046q-.312.015-.562.172a2.2 2.2 0 0 0-.438.39 2.7 2.7 0 0 0-.328.532 3 3 0 0 0-.219.562 4 4 0 0 0-.078.578q-.015.375-.015.813a24 24 0 0 0-.016.859q0 .406-.031.64a6 6 0 0 1-.078.594 2.6 2.6 0 0 1-.203.625 1.4 1.4 0 0 1-.344.5.8.8 0 0 1-.563.203.75.75 0 0 1-.468-.156 1.4 1.4 0 0 1-.329-.406 4 4 0 0 1-.218-.61 8 8 0 0 1-.125-.703q-.048-.375-.078-.75-.016-.375-.032-.703v-.625q.016-.28.016-.453-.015-.546-.063-1.093-.03-.563-.031-1.11 0-.343.031-.766.032-.42.172-.78.141-.376.407-.626.28-.25.765-.25.266 0 .453.172.188.172.297.422.126.25.188.531.061.282.078.516.375-.609.844-.984.468-.391 1.218-.422.375-.016.735.078.375.078.672.281.312.188.5.5.203.312.218.734.031.5-.297.766-.328.265-.796.281m7.875 3.063q0 .531-.344 1.047-.328.5-.844.906-.5.39-1.078.64-.578.235-1.063.235a2.76 2.76 0 0 1-1.484-.406 3.9 3.9 0 0 1-1.078-1.063 5.1 5.1 0 0 1-.672-1.406 5.6 5.6 0 0 1-.219-1.516q0-.78.219-1.672.22-.89.656-1.64.453-.75 1.125-1.25.688-.5 1.625-.5.532 0 1.016.187a2.46 2.46 0 0 1 1.422 1.282q.219.453.219 1.015a3.1 3.1 0 0 1-.313 1.375 3.6 3.6 0 0 1-.828 1.11 4.4 4.4 0 0 1-1.188.765 4 4 0 0 1-1.375.313q.063.453.36.656.312.203.734.203.313 0 .61-.156t.578-.344q.281-.203.547-.36.281-.156.562-.156.312 0 .563.203t.25.532m-2.532-3.828a.94.94 0 0 0-.109-.422.36.36 0 0 0-.344-.219.9.9 0 0 0-.578.188 1.4 1.4 0 0 0-.391.453q-.156.266-.25.578a3 3 0 0 0-.093.578q.218-.047.515-.125a3 3 0 0 0 .578-.203q.282-.141.469-.344a.66.66 0 0 0 .203-.484m9.797 4.406q0 .28-.031.734-.015.454-.125.89a2.1 2.1 0 0 1-.344.735q-.234.313-.656.313-.578 0-.891-.375-.312-.375-.297-.938-.5.438-1.14.688-.625.25-1.281.25a1.8 1.8 0 0 1-.86-.219 2.7 2.7 0 0 1-.719-.562 2.9 2.9 0 0 1-.5-.766 2.2 2.2 0 0 1-.187-.86q0-.75.453-1.312a4.3 4.3 0 0 1 1.141-.953q.672-.406 1.422-.64.765-.235 1.359-.313v-.14a.6.6 0 0 0 .016-.142q0-.484-.266-.78-.266-.298-.75-.298-.39 0-.672.141a3.3 3.3 0 0 0-.531.297q-.25.156-.5.297a1.24 1.24 0 0 1-.563.125.87.87 0 0 1-.593-.219.73.73 0 0 1-.235-.562q0-.516.297-.938.313-.422.766-.703a4 4 0 0 1 1-.453 3.4 3.4 0 0 1 1-.172q.422 0 .843.11.422.093.797.312.375.203.672.515.313.298.5.703.282.579.453 1.235.172.64.266 1.328.093.672.125 1.36.031.671.031 1.312m-2.5-.5-.047-1.063h-.062a.14.14 0 0 0-.063-.015q-.203 0-.515.11a2.3 2.3 0 0 0-.578.28 2.3 2.3 0 0 0-.485.391.7.7 0 0 0-.187.453q0 .219.156.297a.8.8 0 0 0 .359.078q.344 0 .735-.172.39-.187.687-.36m8.016-5.89q0 .452-.313.671a6 6 0 0 1-.672.422q-.375.188-.687.453-.297.266-.297.797a.9.9 0 0 0 .125.484q.14.203.328.375.203.157.438.328t.422.391q.202.219.328.531.14.313.14.766 0 .657-.343 1.297a4.3 4.3 0 0 1-.86 1.125 4.3 4.3 0 0 1-1.172.781 3.1 3.1 0 0 1-1.297.297q-.266 0-.531-.047a1.5 1.5 0 0 1-.484-.14 1.04 1.04 0 0 1-.344-.297.9.9 0 0 1-.141-.516q0-.438.172-.672.173-.25.438-.39t.562-.22q.313-.077.578-.187a1.4 1.4 0 0 0 .438-.312q.172-.187.172-.532 0-.327-.266-.671a14 14 0 0 0-.562-.75 8 8 0 0 1-.578-.86 2.03 2.03 0 0 1-.25-1q0-.672.265-1.234.282-.579.735-1a3.5 3.5 0 0 1 1.062-.656q.594-.25 1.25-.25.25 0 .484.047.25.046.438.171a.8.8 0 0 1 .297.313.86.86 0 0 1 .125.484m11.031 6.39q0 .28-.031.734a4.3 4.3 0 0 1-.125.89 2.1 2.1 0 0 1-.344.735q-.234.313-.656.313-.578 0-.891-.375-.312-.375-.297-.938-.5.438-1.14.688-.625.25-1.282.25-.453 0-.859-.219a2.7 2.7 0 0 1-.719-.562 2.9 2.9 0 0 1-.5-.766 2.2 2.2 0 0 1-.187-.86q0-.75.453-1.312a4.2 4.2 0 0 1 1.141-.953 6.5 6.5 0 0 1 1.421-.64 8.5 8.5 0 0 1 1.36-.313v-.14a.6.6 0 0 0 .015-.142q0-.484-.265-.78-.266-.298-.75-.298-.392 0-.672.141a3.3 3.3 0 0 0-.531.297q-.25.156-.5.297a1.24 1.24 0 0 1-.563.125.87.87 0 0 1-.594-.219.74.74 0 0 1-.234-.562q0-.516.297-.938.313-.422.766-.703a4 4 0 0 1 1-.453 3.4 3.4 0 0 1 1-.172q.422 0 .843.11.423.093.797.312.375.203.672.515.312.298.5.703.282.579.453 1.235.172.64.266 1.328.093.672.125 1.36.031.671.031 1.312m-2.5-.5-.047-1.063h-.062a.14.14 0 0 0-.063-.015q-.203 0-.515.11a2.3 2.3 0 0 0-.579.28 2.3 2.3 0 0 0-.484.391.7.7 0 0 0-.187.453q0 .219.156.297a.8.8 0 0 0 .359.078q.344 0 .735-.172.39-.187.687-.36m7.078 3.266q-1.108 0-1.734-.297a2 2 0 0 1-.922-.813q-.297-.531-.359-1.281-.063-.75-.063-1.672 0-.735.047-1.469.047-.75.141-1.593-.22 0-.344.015h-.203q-.5 0-.86-.219-.375-.218-.375-.672 0-.28.219-.5.204-.218.531-.374.328-.157.703-.25.391-.094.735-.126 0-.437.062-.968.063-.531.219-.985.173-.469.453-.78a.93.93 0 0 1 .719-.313.66.66 0 0 1 .437.156q.203.141.329.375a1.8 1.8 0 0 1 .187.5q.063.281.063.547 0 .313-.047.64-.048.33-.172.813.266-.031.359-.031.094-.015.172-.016.265 0 .547.047.297.047.531.156.25.11.406.297a.6.6 0 0 1 .157.422.67.67 0 0 1-.235.5q-.218.218-.562.375a4 4 0 0 1-.735.25q-.39.077-.734.11-.093.64-.141 1.187-.03.53-.078 1.078l-.062.547a9 9 0 0 0 0 1.031q.015.266.109.516t.297.437q.204.172.563.172.217 0 .453-.031.234-.047.468-.047.406 0 .579.281.187.282.187.719a.9.9 0 0 1-.203.578 1.35 1.35 0 0 1-.484.375 2.6 2.6 0 0 1-.672.234q-.36.078-.688.078m8.906-3.344q0 .531-.343 1.047-.328.5-.844.906-.5.39-1.078.64-.579.235-1.063.235a2.76 2.76 0 0 1-1.484-.406 3.9 3.9 0 0 1-1.078-1.063 5.1 5.1 0 0 1-.672-1.406 5.6 5.6 0 0 1-.219-1.516q0-.78.219-1.672.22-.89.656-1.64.453-.75 1.125-1.25.688-.5 1.625-.5.531 0 1.016.187a2.46 2.46 0 0 1 1.422 1.282q.219.453.218 1.015 0 .735-.312 1.375a3.6 3.6 0 0 1-.828 1.11 4.4 4.4 0 0 1-1.188.765 4 4 0 0 1-1.375.313q.063.453.36.656.312.203.734.203.313 0 .609-.156.297-.156.579-.344.28-.203.546-.36.281-.156.563-.156.313 0 .562.203a.65.65 0 0 1 .25.532m-2.531-3.828a.94.94 0 0 0-.109-.422.36.36 0 0 0-.344-.219.9.9 0 0 0-.578.188 1.4 1.4 0 0 0-.391.453q-.156.266-.25.578a3 3 0 0 0-.093.578q.218-.047.515-.125a3 3 0 0 0 .578-.203q.282-.141.469-.344a.66.66 0 0 0 .203-.484m.875-5.547q0 .171-.094.343-.093.157-.234.297a2.3 2.3 0 0 1-.281.266q-.156.109-.281.203a7 7 0 0 0-.25.188 3 3 0 0 1-.282.187 3 3 0 0 1-.297.14.7.7 0 0 1-.281.063.4.4 0 0 1-.219-.062.27.27 0 0 1-.093-.219q0-.234.172-.562.188-.344.453-.657.265-.327.562-.547.297-.234.547-.234a.52.52 0 0 1 .391.188q.187.171.187.406m-246.11 28.5q0 .687-.155 1.515a5.3 5.3 0 0 1-.5 1.516q-.345.704-.922 1.172-.563.468-1.422.469-.219 0-.453-.032a2.2 2.2 0 0 1-.453-.109 1.6 1.6 0 0 1-.375-.203.9.9 0 0 1-.266-.36l-.14 2.25q-.016.36-.032.86 0 .499-.125.953a1.7 1.7 0 0 1-.39.766q-.267.328-.782.328-.296 0-.5-.313a2.5 2.5 0 0 1-.328-.765 9 9 0 0 1-.172-1.047 14 14 0 0 1-.078-1.11q-.015-.531-.015-.968v-.641q0-1.047-.016-2.078-.015-1.047-.016-2.094v-.578q0-.405.032-.875.03-.468.093-.969a5.3 5.3 0 0 1 .219-.906q.14-.422.36-.672a.67.67 0 0 1 .53-.266.56.56 0 0 1 .36.126.86.86 0 0 1 .281.296q.125.173.203.375.078.203.125.375.484-.546 1.11-.828.64-.28 1.36-.281.75 0 1.218.422.485.422.75 1.047.281.624.39 1.344.11.702.11 1.28m-2.234-.125a2.4 2.4 0 0 0-.046-.469 1.3 1.3 0 0 0-.141-.453.76.76 0 0 0-.281-.344.76.76 0 0 0-.469-.14q-.375 0-.797.25-.405.234-.61.546-.077.126-.093.407-.015.281-.016.421v.297l.032.36.03.36q.033.17.079.265a.6.6 0 0 0 .203.265q.156.11.344.204t.375.14q.203.047.344.047a.65.65 0 0 0 .53-.25q.204-.25.313-.594.126-.343.157-.703.045-.375.046-.61m8.61-1.063q-.219.015-.375-.031L23.916 66a3 3 0 0 0-.28-.11.6.6 0 0 0-.313-.046q-.313.016-.563.172a2.2 2.2 0 0 0-.437.39 2.7 2.7 0 0 0-.329.531 3 3 0 0 0-.218.563 4 4 0 0 0-.078.578q-.016.375-.016.813-.015.453-.016.859 0 .406-.03.64-.016.25-.079.594-.063.33-.203.625a1.4 1.4 0 0 1-.344.5.8.8 0 0 1-.562.204.75.75 0 0 1-.47-.157 1.4 1.4 0 0 1-.327-.406 4 4 0 0 1-.219-.61 8 8 0 0 1-.125-.703q-.046-.375-.078-.75l-.031-.703v-.625q.015-.28.015-.453a19 19 0 0 0-.062-1.094q-.032-.561-.032-1.109 0-.343.032-.766.03-.42.172-.78.14-.376.406-.626.281-.25.765-.25.267 0 .454.172.188.172.296.422.125.25.188.531t.078.516q.375-.609.844-.984.469-.391 1.219-.422.375-.016.734.078.375.078.672.281.312.188.5.5.203.312.219.734.03.5-.297.766-.329.265-.797.281m4.297 6.297q-.798 0-1.39-.422a3.7 3.7 0 0 1-1-1.078 5.2 5.2 0 0 1-.61-1.453 6.6 6.6 0 0 1-.203-1.594q0-.828.203-1.703a5.6 5.6 0 0 1 .625-1.61q.421-.734 1.078-1.187.656-.468 1.562-.468.875 0 1.485.484.625.468 1 1.187.375.704.531 1.547.156.844.11 1.594a8.6 8.6 0 0 1-.266 1.672 5.3 5.3 0 0 1-.61 1.516q-.405.671-1.03 1.093-.626.422-1.485.422m.156-7.062q-.234 0-.422.25-.172.25-.297.609-.11.36-.172.766-.062.39-.062.687 0 .375.062.813.078.437.203.812.126.36.297.61.188.234.422.234.25 0 .422-.234.188-.236.297-.594.11-.36.156-.781.047-.438.047-.813 0-.345-.062-.75a4.3 4.3 0 0 0-.188-.781 1.8 1.8 0 0 0-.297-.594q-.172-.234-.406-.234m10.766-3.672q0 1.14-.094 2.265-.078 1.125-.078 2.266 0 .922.047 1.828.062.906.062 1.828 0 .25-.015.61-.015.344-.11.671a1.3 1.3 0 0 1-.281.563q-.187.234-.547.234-.469 0-.781-.343a1.7 1.7 0 0 1-.375-.797 2.7 2.7 0 0 1-.86.953q-.562.39-1.218.39a1.72 1.72 0 0 1-1.22-.484 4.3 4.3 0 0 1-.843-1.172 7 7 0 0 1-.5-1.437 6.5 6.5 0 0 1-.156-1.297 9.7 9.7 0 0 1 .203-1.906q.125-.516.313-1 .187-.5.468-.891.297-.39.688-.625.406-.234.922-.234.562 0 1.078.328.515.328.781.812l.14-2.484q.017-.297.047-.688.032-.406.126-.765.109-.36.328-.61.218-.25.64-.25.453 0 .703.22.25.217.36.562.125.328.14.718.032.39.032.735m-2.547 6.937q0-.36-.016-.703-.015-.343 0-.703a9 9 0 0 0-.219-.437 2 2 0 0 0-.312-.454 1.6 1.6 0 0 0-.39-.359.85.85 0 0 0-.47-.14.6.6 0 0 0-.453.171 1 1 0 0 0-.25.422 2.5 2.5 0 0 0-.109.516q-.015.281-.016.484 0 .188.032.563.03.36.109.734.094.375.25.656t.422.281q.202 0 .406-.078.203-.093.375-.218.188-.141.344-.297a7 7 0 0 0 .297-.313zm10.422-1.125a8.5 8.5 0 0 1-.172 1.703 4.7 4.7 0 0 1-.578 1.516q-.407.657-1.094 1.063-.672.406-1.688.406-1 0-1.671-.39a3.2 3.2 0 0 1-1.079-1.063 4.8 4.8 0 0 1-.562-1.485 9 9 0 0 1-.156-1.687q0-.937.218-1.86.048-.249.172-.687.141-.453.344-.875a3.7 3.7 0 0 1 .484-.75q.282-.312.61-.313.312 0 .5.172t.297.438q.109.25.14.547.032.28.032.515 0 .36-.063.703-.047.345-.11.688l-.124.937a9.4 9.4 0 0 0-.032 1.47q.032.28.125.546.094.266.266.453.172.172.484.172.407 0 .641-.219.25-.219.36-.547.124-.328.156-.703.03-.375.03-.687 0-.688-.093-1.344a54 54 0 0 1-.172-1.36 1.5 1.5 0 0 1 .063-.687q.078-.234.218-.422t.344-.297a.85.85 0 0 1 .453-.125q.345 0 .61.25.266.235.437.625.188.375.297.86.125.469.188.937.078.453.093.86.032.406.032.64m7.968 3a.71.71 0 0 1-.265.547 2.5 2.5 0 0 1-.657.422 4.6 4.6 0 0 1-.906.313 11 11 0 0 1-1 .203q-.484.078-.922.109a7 7 0 0 1-.703.047q-.266 0-.75-.016a5 5 0 0 1-.937-.125 2.4 2.4 0 0 1-.813-.312.74.74 0 0 1-.343-.64q0-.314.218-.766.22-.453.563-.985.343-.53.765-1.078.423-.562.829-1.078t.765-.938q.36-.436.563-.718a11 11 0 0 0-.563.14q-.328.078-.687.156-.36.08-.703.141a4 4 0 0 1-.563.047q-.188 0-.422-.062a2.5 2.5 0 0 1-.453-.204 1.7 1.7 0 0 1-.36-.296.6.6 0 0 1-.14-.391q0-.282.25-.516.25-.25.656-.437.406-.203.907-.344.499-.156.984-.25a8 8 0 0 1 1.625-.203q.297 0 .719.062a3.6 3.6 0 0 1 .812.22q.406.155.688.421a.9.9 0 0 1 .28.672 1 1 0 0 1-.03.234 3 3 0 0 1-.047.219q-.032.11-.282.5-.234.375-.593.906-.345.516-.766 1.125-.405.594-.781 1.125a127 127 0 0 0-1.031 1.485q.64-.172 1.297-.282.67-.125 1.328-.125.157 0 .406.016t.484.094q.235.063.407.203a.42.42 0 0 1 .171.36m6.657-9.437a.65.65 0 0 1-.125.39 1.2 1.2 0 0 1-.297.313q-.187.124-.407.203a1.5 1.5 0 0 1-.406.063.96.96 0 0 1-.547-.157q-.234-.156-.234-.484a.74.74 0 0 1 .11-.406q.125-.188.296-.297.172-.126.39-.188.22-.062.423-.062.297 0 .547.14t.25.485m.125 5.312v.469q0 .234-.016.453-.015.266-.016.719 0 .438-.03.953-.032.516-.11 1.047a4.4 4.4 0 0 1-.219.969 2 2 0 0 1-.422.718.9.9 0 0 1-.64.282.58.58 0 0 1-.5-.235 2.2 2.2 0 0 1-.344-.64 5.4 5.4 0 0 1-.188-.891 17 17 0 0 1-.093-.953q-.032-.47-.032-.86v-1.281q0-.469.032-1 .03-.53.109-1.078a6.4 6.4 0 0 1 .25-1q.171-.453.437-.734a.88.88 0 0 1 .672-.282q.423 0 .64.422.22.423.329.985t.125 1.125q.015.546.016.812m5.547 6.031q-.267 0-.422-.25a1.7 1.7 0 0 1-.235-.546 4.4 4.4 0 0 1-.11-.625 11 11 0 0 1-.015-.5q0-.469.047-.938l.125-.937q.078-.469.125-.938a7 7 0 0 0 .063-.937q0-.187-.016-.407a1.7 1.7 0 0 0-.078-.406.66.66 0 0 0-.172-.328.44.44 0 0 0-.328-.125q-.14 0-.313.234a3.4 3.4 0 0 0-.328.516 6 6 0 0 0-.25.578 1.5 1.5 0 0 0-.093.422v.703q.015.345.015.703v.906q-.015.281-.047.579a5 5 0 0 1-.093.578q-.048.281-.141.547a1.7 1.7 0 0 1-.25.453q-.141.188-.344.312a.9.9 0 0 1-.484.125.7.7 0 0 1-.516-.203 1.5 1.5 0 0 1-.328-.516 3.6 3.6 0 0 1-.187-.718q-.048-.406-.079-.781a18 18 0 0 1-.015-.704q.015-.327.015-.515v-.735q0-.593-.03-1.171-.017-.578-.017-1.157v-.797a4.6 4.6 0 0 1 .126-.937q.108-.469.359-.797.25-.328.734-.328a.6.6 0 0 1 .39.14q.172.141.298.344.14.204.219.438.093.234.14.406.156-.218.36-.422.218-.203.484-.36A2.54 2.54 0 0 1 67.948 63q.796 0 1.234.39.453.375.656.954.22.562.266 1.219.047.656.047 1.187 0 .266-.047.797-.047.516-.156 1.156-.094.626-.266 1.297-.172.656-.406 1.203a3 3 0 0 1-.563.89q-.312.345-.718.344m7.609-9.03q0 .452-.313.671a6 6 0 0 1-.671.422q-.376.188-.688.453-.297.266-.297.797 0 .282.125.484.14.203.328.375.204.157.438.329.234.171.422.39.202.219.328.531.14.313.14.766 0 .657-.343 1.297a4.3 4.3 0 0 1-.86 1.125 4.3 4.3 0 0 1-1.172.781q-.656.297-1.296.297-.267 0-.532-.047a1.5 1.5 0 0 1-.484-.14 1.04 1.04 0 0 1-.344-.297.9.9 0 0 1-.14-.516q0-.438.171-.672.172-.25.438-.39.265-.14.562-.22.313-.077.579-.187.265-.124.437-.312.172-.187.172-.531 0-.33-.266-.672-.25-.36-.562-.75a8 8 0 0 1-.578-.86 2.04 2.04 0 0 1-.25-1q0-.672.265-1.234a3.4 3.4 0 0 1 .735-1q.468-.422 1.062-.656a3.2 3.2 0 0 1 1.25-.25q.25 0 .484.047.25.046.438.171a.8.8 0 0 1 .297.313.86.86 0 0 1 .125.484m7.469 4.124a8.5 8.5 0 0 1-.172 1.703 4.7 4.7 0 0 1-.578 1.516q-.407.657-1.094 1.063-.671.406-1.688.406-1 0-1.671-.39a3.2 3.2 0 0 1-1.079-1.063 4.8 4.8 0 0 1-.562-1.485 9 9 0 0 1-.156-1.687q0-.937.218-1.86.048-.249.172-.687.141-.453.344-.875a3.7 3.7 0 0 1 .484-.75q.282-.312.61-.313.312 0 .5.172t.297.438q.11.25.14.547.032.28.032.515 0 .36-.063.703-.047.345-.11.688l-.124.937a9.4 9.4 0 0 0-.032 1.47q.032.28.125.546.094.266.266.453.172.172.484.172.407 0 .641-.219.25-.219.36-.547.124-.328.156-.703.03-.375.03-.687 0-.688-.093-1.344a54 54 0 0 1-.172-1.36 1.5 1.5 0 0 1 .063-.687q.078-.234.219-.422.14-.187.343-.297a.85.85 0 0 1 .453-.125q.345 0 .61.25.266.235.437.625.188.375.297.86.125.469.188.937.078.453.093.86.032.406.032.64m3.875-5q0 .844-.078 1.703a23 23 0 0 0-.063 1.704q0 1.11.063 2.218.078 1.11.078 2.235 0 .28-.032.64-.03.345-.156.64a1.2 1.2 0 0 1-.344.5q-.234.204-.625.204-.375 0-.656-.375a3.3 3.3 0 0 1-.453-.922 12 12 0 0 1-.297-1.281q-.11-.703-.172-1.36a98 98 0 0 1-.078-1.218q-.016-.562-.016-.828 0-.297.016-.86.03-.562.11-1.219.078-.656.203-1.328.14-.687.359-1.234.219-.562.516-.906.312-.36.734-.36.344 0 .516.235.187.219.265.547.079.312.094.672.016.344.016.593m3.765-1.437a.65.65 0 0 1-.125.39 1.2 1.2 0 0 1-.297.313q-.187.124-.406.203a1.5 1.5 0 0 1-.406.063.96.96 0 0 1-.547-.157q-.234-.156-.234-.484a.74.74 0 0 1 .109-.406q.124-.188.297-.297.172-.126.39-.188.22-.062.422-.062.297 0 .547.14t.25.485m.125 5.312v.469q0 .234-.015.453-.016.266-.016.719 0 .438-.031.953-.032.516-.11 1.047a4.4 4.4 0 0 1-.218.969 2 2 0 0 1-.422.718.9.9 0 0 1-.64.282.58.58 0 0 1-.5-.235 2.2 2.2 0 0 1-.345-.64 5.4 5.4 0 0 1-.187-.891 17 17 0 0 1-.094-.953q-.03-.47-.031-.86v-1.281q0-.469.031-1 .03-.53.11-1.078a6.4 6.4 0 0 1 .25-1 2.2 2.2 0 0 1 .437-.734.88.88 0 0 1 .672-.282q.422 0 .64.422.22.423.329.985t.125 1.125q.015.546.015.812m5.547 6.031q-.266 0-.422-.25a1.7 1.7 0 0 1-.234-.546 4.4 4.4 0 0 1-.11-.625q-.015-.33-.015-.5 0-.469.047-.938l.125-.937q.078-.469.125-.938a7 7 0 0 0 .062-.937q0-.187-.015-.407a1.7 1.7 0 0 0-.078-.406.66.66 0 0 0-.172-.328.44.44 0 0 0-.328-.125q-.14 0-.313.234a3.4 3.4 0 0 0-.328.516q-.14.281-.25.578a1.5 1.5 0 0 0-.094.422v.703q.016.345.016.703v.906q-.015.281-.047.579a5 5 0 0 1-.094.578q-.047.281-.14.547a1.7 1.7 0 0 1-.25.453q-.141.188-.344.312a.9.9 0 0 1-.485.125.7.7 0 0 1-.515-.203 1.5 1.5 0 0 1-.328-.516 3.6 3.6 0 0 1-.188-.718q-.047-.406-.078-.781-.016-.39-.016-.704.015-.327.016-.515v-.735q0-.593-.031-1.171-.016-.578-.016-1.157v-.797a4.6 4.6 0 0 1 .125-.937q.11-.469.36-.797.248-.328.734-.328a.6.6 0 0 1 .39.14q.172.141.297.344.14.204.22.438.093.234.14.406.156-.218.36-.422.217-.203.484-.36A2.54 2.54 0 0 1 96.338 63q.797 0 1.235.39.453.375.656.954.218.562.266 1.219.046.656.046 1.187 0 .266-.046.797-.048.516-.157 1.156-.093.626-.265 1.297a8.6 8.6 0 0 1-.407 1.203 3 3 0 0 1-.562.89q-.313.345-.719.344m9.672-2.64q0 .28-.031.734a4.3 4.3 0 0 1-.125.89 2.1 2.1 0 0 1-.344.735q-.234.313-.656.313-.579 0-.891-.375t-.297-.938q-.5.438-1.14.688-.625.25-1.282.25-.453 0-.859-.219a2.7 2.7 0 0 1-.719-.562 2.9 2.9 0 0 1-.5-.766 2.2 2.2 0 0 1-.187-.86q0-.75.453-1.312a4.3 4.3 0 0 1 1.14-.953q.672-.406 1.422-.64a8.5 8.5 0 0 1 1.36-.313v-.14a.6.6 0 0 0 .015-.141q0-.485-.265-.782-.266-.297-.75-.297-.391 0-.672.141a3.3 3.3 0 0 0-.531.297q-.25.156-.5.297a1.25 1.25 0 0 1-.563.125.87.87 0 0 1-.594-.219.74.74 0 0 1-.234-.562q0-.516.297-.938.312-.422.765-.703a4 4 0 0 1 1-.453 3.4 3.4 0 0 1 1-.172q.423 0 .844.11.422.093.797.312.375.203.672.515.312.298.5.703.281.578.453 1.235.172.64.266 1.328.093.672.125 1.36.031.671.031 1.312m-2.5-.5-.047-1.063h-.062a.14.14 0 0 0-.063-.015q-.203 0-.516.11a2.3 2.3 0 0 0-.578.28 2.3 2.3 0 0 0-.484.391.7.7 0 0 0-.188.453q0 .219.157.297a.8.8 0 0 0 .359.078q.344 0 .734-.172.391-.188.688-.36m5.687 1.875q0 .25-.14.64-.125.39-.328.766a2.7 2.7 0 0 1-.438.64q-.25.267-.484.266-.312 0-.313-.312a.9.9 0 0 1 .078-.36q.08-.172.172-.343.094-.156.172-.328a.7.7 0 0 0 .078-.313.9.9 0 0 1-.5.156.79.79 0 0 1-.609-.28.92.92 0 0 1-.25-.626q0-.5.328-.797.329-.312.828-.312.562 0 .985.297.421.296.421.906m13.875-4.328v.812q0 .5-.031 1.094-.015.594-.094 1.203a5.3 5.3 0 0 1-.25 1.078 2.5 2.5 0 0 1-.406.797.78.78 0 0 1-.64.313.6.6 0 0 1-.532-.282 2.3 2.3 0 0 1-.25-.687 5 5 0 0 1-.093-.797v-.64q0-.704.046-1.376.047-.671.047-1.375v-.28q0-.204-.031-.407a1.2 1.2 0 0 0-.109-.36q-.063-.156-.203-.156-.282 0-.454.297a2.7 2.7 0 0 0-.281.672q-.11.39-.156.781-.047.375-.063.563a10 10 0 0 0-.062.61q-.015.405-.063.89-.03.484-.125 1-.078.5-.218.922a2.2 2.2 0 0 1-.328.671q-.203.266-.5.266a.65.65 0 0 1-.579-.328 2.4 2.4 0 0 1-.296-.766 6 6 0 0 1-.125-.89 20 20 0 0 1-.016-.703v-.516q.016-.25.016-.516v-.359q0-.25-.016-.547a7 7 0 0 0-.031-.64 5 5 0 0 0-.063-.594 1.5 1.5 0 0 0-.14-.453q-.094-.172-.219-.172-.204 0-.375.265-.172.25-.297.61-.125.343-.203.687-.063.345-.063.5v.094q0 .75.094 1.469t.094 1.469q0 .437-.281.812-.281.36-.782.36a.76.76 0 0 1-.593-.266 2.3 2.3 0 0 1-.391-.719 6 6 0 0 1-.25-.953 12 12 0 0 1-.109-1.031 39 39 0 0 1-.047-.922v-.625q0-.234-.016-.688 0-.453.016-.984.032-.531.093-1.078.063-.563.204-1.016t.359-.734a.73.73 0 0 1 .594-.297q.406 0 .656.219.266.218.266.656 0 .093-.016.187 0 .094-.016.172a3.7 3.7 0 0 1 .422-.5q.25-.265.531-.468.297-.218.625-.344.328-.14.657-.14.312 0 .562.171t.438.438q.187.249.312.546.126.297.172.563.156-.282.375-.563.234-.297.5-.515t.578-.36q.328-.14.672-.14a.77.77 0 0 1 .563.234q.234.234.406.61.171.36.265.828.094.453.157.906.061.437.078.828.015.375.015.594m7.672 2.953q0 .28-.031.734-.015.454-.125.89a2.1 2.1 0 0 1-.344.735q-.234.313-.656.313-.577 0-.891-.375-.312-.375-.296-.938-.5.438-1.141.688-.626.25-1.281.25a1.8 1.8 0 0 1-.86-.219 2.7 2.7 0 0 1-.718-.562 2.8 2.8 0 0 1-.5-.766 2.2 2.2 0 0 1-.188-.86q0-.75.453-1.312a4.3 4.3 0 0 1 1.141-.953q.672-.406 1.422-.64.765-.235 1.359-.313v-.14a.6.6 0 0 0 .016-.141q0-.485-.266-.782-.265-.297-.75-.297-.39 0-.672.141a3.3 3.3 0 0 0-.531.297q-.25.156-.5.297a1.24 1.24 0 0 1-.563.125.87.87 0 0 1-.593-.219.73.73 0 0 1-.235-.562q0-.516.297-.938.313-.422.766-.703a4 4 0 0 1 1-.453 3.4 3.4 0 0 1 1-.172q.421 0 .844.11.421.093.796.312.375.203.672.515.313.298.5.703.282.578.453 1.235.173.64.266 1.328.094.672.125 1.36.031.671.031 1.312m-2.5-.5-.047-1.063h-.062a.14.14 0 0 0-.063-.015q-.203 0-.515.11a2.3 2.3 0 0 0-.578.28 2.3 2.3 0 0 0-.485.391.7.7 0 0 0-.187.453q0 .219.156.297a.8.8 0 0 0 .359.078q.344 0 .735-.172.39-.188.687-.36m8.016-5.89q0 .452-.313.671a6 6 0 0 1-.671.422q-.375.188-.688.453-.297.266-.297.797a.9.9 0 0 0 .125.484q.14.203.328.375.204.157.438.329.234.171.422.39.203.219.328.531.14.313.14.766 0 .657-.343 1.297a4.3 4.3 0 0 1-.86 1.125 4.3 4.3 0 0 1-1.172.781 3.1 3.1 0 0 1-1.296.297q-.266 0-.532-.047a1.5 1.5 0 0 1-.484-.14 1.05 1.05 0 0 1-.344-.297.9.9 0 0 1-.14-.516q0-.438.171-.672.172-.25.438-.39t.562-.22q.314-.077.579-.187.266-.124.437-.312.172-.187.172-.531 0-.33-.266-.672a14 14 0 0 0-.562-.75 8 8 0 0 1-.578-.86 2.03 2.03 0 0 1-.25-1q0-.672.265-1.234.282-.579.735-1a3.5 3.5 0 0 1 1.062-.656q.594-.25 1.25-.25.25 0 .485.047.25.046.437.171a.8.8 0 0 1 .297.313.86.86 0 0 1 .125.484m7.359 9.046q-.796 0-1.39-.422a3.7 3.7 0 0 1-1-1.078 5.2 5.2 0 0 1-.61-1.453 6.6 6.6 0 0 1-.203-1.594q0-.828.203-1.703.204-.89.625-1.61.423-.734 1.078-1.187.657-.468 1.563-.468.875 0 1.484.484.625.468 1 1.187.375.704.532 1.547a6.5 6.5 0 0 1 .109 1.594 8.6 8.6 0 0 1-.266 1.672 5.3 5.3 0 0 1-.609 1.516 3.5 3.5 0 0 1-1.031 1.093q-.626.422-1.485.422m.157-7.062q-.235 0-.422.25-.173.25-.297.609-.11.36-.172.766-.063.39-.063.687 0 .375.063.813.078.437.203.812.124.36.297.61.188.234.422.234.25 0 .422-.234.188-.236.297-.594.11-.36.156-.781a8 8 0 0 0 .047-.813q0-.345-.063-.75a4.3 4.3 0 0 0-.187-.781 1.8 1.8 0 0 0-.297-.594q-.172-.234-.406-.234m13.593.609q0 .078-.015.172a1 1 0 0 1-.047.156q-.141.36-.438.61a1.1 1.1 0 0 1-.703.234q-.609 0-.828-.61a.5.5 0 0 1-.031-.171q0-.11-.016-.22v-.452a.9.9 0 0 0-.109-.344q-.078-.125-.266-.125-.266 0-.515.344a3.8 3.8 0 0 0-.422.797 7 7 0 0 0-.282.937 3.8 3.8 0 0 0-.109.781q0 .236.031.579.032.328.125.64.094.313.25.547a.54.54 0 0 0 .438.219.8.8 0 0 0 .484-.156q.235-.172.453-.391.204-.187.438-.39a.87.87 0 0 1 .562-.204q.391 0 .61.281a.97.97 0 0 1 .234.641q0 .532-.281 1a3.2 3.2 0 0 1-.703.797q-.423.328-.938.516a2.7 2.7 0 0 1-.984.203q-.844 0-1.438-.422a3.3 3.3 0 0 1-.937-1.063 5 5 0 0 1-.516-1.422 7.3 7.3 0 0 1-.156-1.453q0-.797.219-1.719.219-.937.672-1.734a4.3 4.3 0 0 1 1.156-1.328q.719-.531 1.703-.531.609 0 1.047.265.453.266.734.703.297.423.438.954.156.531.156 1.046v.157a1 1 0 0 1-.016.156m3.844 6.453q-.797 0-1.391-.422a3.7 3.7 0 0 1-1-1.078 5.2 5.2 0 0 1-.609-1.453 6.6 6.6 0 0 1-.203-1.594q0-.828.203-1.703.204-.89.625-1.61.422-.734 1.078-1.187.657-.468 1.563-.468.875 0 1.484.484.625.468 1 1.187.375.704.531 1.547.157.844.11 1.594a8.6 8.6 0 0 1-.266 1.672 5.3 5.3 0 0 1-.609 1.516 3.5 3.5 0 0 1-1.032 1.093q-.624.422-1.484.422m.156-7.062q-.234 0-.422.25-.171.25-.296.609-.11.36-.172.766-.063.39-.063.687 0 .375.063.813.078.437.203.812.124.36.297.61.187.234.422.234.25 0 .421-.234.187-.236.297-.594.11-.36.157-.781.046-.438.046-.813 0-.345-.062-.75a4.3 4.3 0 0 0-.188-.781 1.7 1.7 0 0 0-.296-.594q-.172-.234-.407-.234m9.453.765q-.218.015-.375-.031l-.312-.125a3 3 0 0 0-.281-.11.6.6 0 0 0-.313-.046q-.312.016-.562.172a2.2 2.2 0 0 0-.438.39 2.7 2.7 0 0 0-.328.531 3 3 0 0 0-.219.563 4 4 0 0 0-.078.578q-.015.375-.015.813a24 24 0 0 0-.016.859q0 .406-.031.64a6 6 0 0 1-.078.594q-.063.33-.204.625a1.4 1.4 0 0 1-.343.5.8.8 0 0 1-.563.204.75.75 0 0 1-.469-.157 1.4 1.4 0 0 1-.328-.406 4 4 0 0 1-.218-.61 8 8 0 0 1-.125-.703q-.048-.375-.079-.75-.015-.375-.031-.703v-.625q.016-.28.016-.453a19 19 0 0 0-.063-1.094q-.03-.561-.031-1.109 0-.343.031-.766.031-.42.172-.78a1.6 1.6 0 0 1 .406-.626q.282-.25.766-.25.266 0 .453.172.188.172.297.422.125.25.188.531.061.282.078.516.375-.609.843-.984.47-.391 1.219-.422.375-.016.735.078.375.078.671.281.313.188.5.5.204.312.219.734.032.5-.297.766-.327.265-.797.281m8.485 1.188q0 .687-.156 1.515a5.3 5.3 0 0 1-.5 1.516q-.345.704-.922 1.172-.562.468-1.422.469-.219 0-.453-.032a2.2 2.2 0 0 1-.453-.109 1.6 1.6 0 0 1-.375-.203.9.9 0 0 1-.266-.36l-.141 2.25q-.015.36-.031.86 0 .499-.125.953a1.7 1.7 0 0 1-.391.766q-.265.328-.781.328-.296 0-.5-.313a2.5 2.5 0 0 1-.328-.765 9 9 0 0 1-.172-1.047 15 15 0 0 1-.078-1.11 35 35 0 0 1-.016-.968v-.641q0-1.047-.015-2.078-.016-1.047-.016-2.094v-.578q0-.405.031-.875.032-.468.094-.969.078-.5.219-.906.141-.422.359-.672a.67.67 0 0 1 .532-.266q.203 0 .359.126a.85.85 0 0 1 .281.296 1.6 1.6 0 0 1 .203.375q.078.203.125.375.484-.546 1.11-.828.64-.28 1.359-.281.75 0 1.219.422.484.422.75 1.047.281.624.39 1.344.11.702.11 1.28m-2.235-.125q0-.234-.046-.469a1.3 1.3 0 0 0-.141-.453.77.77 0 0 0-.281-.344.76.76 0 0 0-.469-.14q-.375 0-.797.25a1.74 1.74 0 0 0-.609.546q-.079.126-.094.407-.016.281-.016.421v.297l.032.36q.015.188.031.36.031.17.078.265a.6.6 0 0 0 .203.265q.156.11.344.204t.375.14q.203.047.344.047a.65.65 0 0 0 .531-.25 1.8 1.8 0 0 0 .312-.594q.126-.343.157-.703a5 5 0 0 0 .046-.61m6.157 5.234q-.798 0-1.391-.422a3.7 3.7 0 0 1-1-1.078 5.2 5.2 0 0 1-.609-1.453 6.5 6.5 0 0 1-.203-1.594q0-.828.203-1.703.202-.89.625-1.61.421-.734 1.078-1.187.656-.468 1.562-.468.875 0 1.485.484.624.468 1 1.187.375.704.531 1.547a6.5 6.5 0 0 1 .109 1.594 8.6 8.6 0 0 1-.265 1.672 5.3 5.3 0 0 1-.61 1.516q-.405.671-1.031 1.093t-1.484.422m.156-7.062q-.234 0-.422.25-.171.25-.297.609-.11.36-.172.766-.062.39-.062.687 0 .375.062.813.078.437.203.812.126.36.297.61.188.234.422.234.25 0 .422-.234.188-.236.297-.594.11-.36.156-.781a8 8 0 0 0 .047-.813q0-.345-.062-.75a4.3 4.3 0 0 0-.188-.781 1.8 1.8 0 0 0-.297-.594q-.171-.234-.406-.234m12.234 7.046q-.265 0-.422-.25a1.7 1.7 0 0 1-.234-.546 4.4 4.4 0 0 1-.109-.625 11 11 0 0 1-.016-.5q0-.469.047-.938l.125-.937q.078-.469.125-.938a7 7 0 0 0 .062-.937q0-.187-.015-.407a1.7 1.7 0 0 0-.078-.406.67.67 0 0 0-.172-.328.44.44 0 0 0-.328-.125q-.14 0-.313.234a3.4 3.4 0 0 0-.328.516q-.14.281-.25.578a1.5 1.5 0 0 0-.094.422v.703q.016.345.016.703v.906q-.015.281-.047.579-.031.296-.094.578-.047.281-.14.547a1.8 1.8 0 0 1-.25.453q-.141.188-.344.312a.9.9 0 0 1-.484.125.7.7 0 0 1-.516-.203 1.5 1.5 0 0 1-.328-.516 3.7 3.7 0 0 1-.188-.718q-.046-.406-.078-.781-.015-.39-.015-.704.015-.327.015-.515v-.735q0-.593-.031-1.171-.016-.578-.016-1.157v-.797q.016-.484.125-.937.11-.469.36-.797t.734-.328q.219 0 .391.14.171.141.297.344.14.204.218.438.094.234.141.406.156-.218.359-.422.22-.203.485-.36a2.54 2.54 0 0 1 1.343-.343q.797 0 1.235.39.453.375.656.954.219.562.266 1.219.047.656.047 1.187 0 .266-.047.797-.048.516-.157 1.156-.094.626-.265 1.297-.172.656-.406 1.203a3 3 0 0 1-.563.89q-.312.345-.719.344m9.672-2.64q0 .28-.031.734-.015.454-.125.89a2.1 2.1 0 0 1-.344.735q-.234.313-.656.313-.578 0-.891-.375-.312-.375-.297-.938-.5.438-1.14.688-.625.25-1.281.25a1.8 1.8 0 0 1-.86-.219 2.7 2.7 0 0 1-.719-.562 2.9 2.9 0 0 1-.5-.766 2.2 2.2 0 0 1-.187-.86q0-.75.453-1.312a4.3 4.3 0 0 1 1.141-.953q.672-.406 1.422-.64.765-.235 1.359-.313v-.14a.6.6 0 0 0 .016-.141q0-.485-.266-.782t-.75-.297q-.39 0-.672.141a3.3 3.3 0 0 0-.531.297q-.25.156-.5.297a1.24 1.24 0 0 1-.563.125.87.87 0 0 1-.593-.219.73.73 0 0 1-.235-.562q0-.516.297-.938.313-.422.766-.703a4 4 0 0 1 1-.453 3.4 3.4 0 0 1 1-.172q.422 0 .843.11.422.093.797.312.375.203.672.515.313.298.5.703.282.578.453 1.235.172.64.266 1.328.093.672.125 1.36.031.671.031 1.312m-2.5-.5-.047-1.063h-.062a.14.14 0 0 0-.063-.015q-.203 0-.515.11a2.3 2.3 0 0 0-.578.28 2.3 2.3 0 0 0-.485.391.7.7 0 0 0-.187.453q0 .219.156.297a.8.8 0 0 0 .359.078q.344 0 .735-.172.39-.188.687-.36m1.891-8.938a1 1 0 0 1-.156.5 2.4 2.4 0 0 1-.391.47q-.234.203-.5.343a1.2 1.2 0 0 1-.5.125q-.234 0-.469-.078-.219-.094-.453-.203a4 4 0 0 0-.437-.188 1.1 1.1 0 0 0-.438-.094.64.64 0 0 0-.344.11 5 5 0 0 0-.359.218q-.187.11-.391.204a.8.8 0 0 1-.375.093.49.49 0 0 1-.406-.203.75.75 0 0 1-.156-.437.85.85 0 0 1 .187-.516q.188-.25.469-.437.281-.204.578-.313.313-.125.547-.125.266 0 .453.11a2.3 2.3 0 0 1 .375.25q.172.14.344.25.188.108.437.109a.7.7 0 0 0 .375-.11q.187-.124.36-.265.187-.156.344-.266a.6.6 0 0 1 .359-.125q.219 0 .375.188a.57.57 0 0 1 .172.39m4.515 12.094q-.796 0-1.39-.422a3.7 3.7 0 0 1-1-1.078 5.2 5.2 0 0 1-.61-1.453 6.6 6.6 0 0 1-.203-1.594q0-.828.203-1.703.204-.89.625-1.61.422-.734 1.079-1.187.656-.468 1.562-.468.875 0 1.484.484.625.468 1 1.187.375.704.532 1.547a6.5 6.5 0 0 1 .109 1.594 8.6 8.6 0 0 1-.266 1.672 5.3 5.3 0 0 1-.609 1.516 3.5 3.5 0 0 1-1.031 1.093q-.626.422-1.485.422m.157-7.062q-.235 0-.422.25-.173.25-.297.609-.11.36-.172.766a4.4 4.4 0 0 0-.062.687q0 .375.062.813.078.437.203.812.126.36.297.61.188.234.422.234.25 0 .422-.234.187-.236.297-.594.11-.36.156-.781a8 8 0 0 0 .047-.813q0-.345-.063-.75a4.3 4.3 0 0 0-.187-.781 1.8 1.8 0 0 0-.297-.594q-.172-.234-.406-.234m13.218.765q-.218.015-.375-.031l-.312-.125a3 3 0 0 0-.281-.11.6.6 0 0 0-.313-.046q-.312.016-.562.172a2.2 2.2 0 0 0-.438.39 2.7 2.7 0 0 0-.328.531 3 3 0 0 0-.219.563 4 4 0 0 0-.078.578q-.015.375-.015.813a24 24 0 0 0-.016.859q0 .406-.031.64a6 6 0 0 1-.078.594q-.063.33-.204.625a1.4 1.4 0 0 1-.343.5.8.8 0 0 1-.563.204.75.75 0 0 1-.469-.157 1.4 1.4 0 0 1-.328-.406 4 4 0 0 1-.218-.61 8 8 0 0 1-.125-.703q-.048-.375-.079-.75-.015-.375-.031-.703v-.625q.016-.28.016-.453a19 19 0 0 0-.063-1.094q-.03-.561-.031-1.109 0-.343.031-.766.031-.42.172-.78a1.6 1.6 0 0 1 .406-.626q.282-.25.766-.25.266 0 .453.172.188.172.297.422.125.25.188.531.061.282.078.516.375-.609.843-.984.47-.391 1.219-.422.375-.016.735.078.375.078.671.281.313.188.5.5.204.312.219.734.032.5-.297.766-.327.265-.797.281m7.875 3.063q0 .531-.343 1.047-.328.5-.844.906-.5.39-1.078.64-.579.235-1.063.235a2.76 2.76 0 0 1-1.484-.406 3.9 3.9 0 0 1-1.078-1.063 5.1 5.1 0 0 1-.672-1.406 5.6 5.6 0 0 1-.219-1.516q0-.78.219-1.672.22-.89.656-1.64.453-.75 1.125-1.25.688-.5 1.625-.5.531 0 1.016.187a2.46 2.46 0 0 1 1.422 1.282q.218.453.218 1.015 0 .735-.312 1.375a3.6 3.6 0 0 1-.828 1.11 4.4 4.4 0 0 1-1.188.765 4 4 0 0 1-1.375.313q.063.453.36.656.312.203.734.203.313 0 .609-.156.297-.156.579-.344.28-.203.546-.36.281-.155.563-.156.312 0 .562.204a.65.65 0 0 1 .25.53m-2.531-3.828a.94.94 0 0 0-.109-.422.36.36 0 0 0-.344-.219.9.9 0 0 0-.578.188 1.4 1.4 0 0 0-.391.453q-.156.266-.25.578a3 3 0 0 0-.093.578q.218-.047.515-.125a3 3 0 0 0 .578-.203q.282-.141.469-.344a.66.66 0 0 0 .203-.484m8.953.609q0 .078-.015.172a1 1 0 0 1-.047.156q-.141.36-.438.61a1.1 1.1 0 0 1-.703.234q-.609 0-.828-.61a.5.5 0 0 1-.031-.171q0-.11-.016-.22v-.452a.9.9 0 0 0-.109-.344q-.078-.125-.266-.125-.266 0-.515.344a3.8 3.8 0 0 0-.422.797 7 7 0 0 0-.282.937 3.8 3.8 0 0 0-.109.781q0 .236.031.579.032.328.125.64.094.313.25.547a.54.54 0 0 0 .438.219.8.8 0 0 0 .484-.156q.235-.172.453-.391.204-.187.438-.39a.87.87 0 0 1 .562-.204q.391 0 .61.281a.97.97 0 0 1 .234.641q0 .532-.281 1a3.2 3.2 0 0 1-.703.797q-.423.328-.938.516a2.7 2.7 0 0 1-.984.203q-.844 0-1.438-.422a3.3 3.3 0 0 1-.937-1.063 5 5 0 0 1-.516-1.422 7.3 7.3 0 0 1-.156-1.453q0-.797.219-1.719.219-.937.672-1.734a4.3 4.3 0 0 1 1.156-1.328q.719-.531 1.703-.531.609 0 1.047.265.453.266.734.703.297.423.438.954.156.531.156 1.046v.157a1 1 0 0 1-.016.156m3.844 6.453q-.797 0-1.391-.422a3.7 3.7 0 0 1-1-1.078 5.2 5.2 0 0 1-.609-1.453 6.6 6.6 0 0 1-.203-1.594q0-.828.203-1.703.204-.89.625-1.61.422-.734 1.078-1.187.657-.468 1.563-.468.875 0 1.484.484.625.468 1 1.187.375.704.531 1.547.157.844.11 1.594a8.6 8.6 0 0 1-.266 1.672 5.3 5.3 0 0 1-.609 1.516 3.5 3.5 0 0 1-1.032 1.093q-.624.422-1.484.422m.156-7.062q-.234 0-.422.25-.171.25-.296.609-.11.36-.172.766-.063.39-.063.687 0 .375.063.813.078.437.203.812.124.36.297.61.187.234.422.234.25 0 .421-.234.187-.236.297-.594.11-.36.157-.781.046-.438.046-.813 0-.345-.062-.75a4.3 4.3 0 0 0-.188-.781 1.7 1.7 0 0 0-.296-.594q-.172-.234-.407-.234m8.469 7.046q-.266 0-.422-.25a1.7 1.7 0 0 1-.234-.546 4.4 4.4 0 0 1-.11-.625q-.015-.33-.015-.5 0-.469.047-.938l.125-.937q.077-.469.125-.938a7 7 0 0 0 .062-.937q0-.187-.015-.407a1.7 1.7 0 0 0-.079-.406.66.66 0 0 0-.171-.328.45.45 0 0 0-.329-.125q-.14 0-.312.234a3.3 3.3 0 0 0-.328.516q-.14.281-.25.578a1.5 1.5 0 0 0-.094.422v.703q.016.345.016.703v.906q-.016.281-.047.579-.031.296-.094.578-.047.281-.141.547a1.7 1.7 0 0 1-.25.453q-.14.188-.343.312a.9.9 0 0 1-.485.125.7.7 0 0 1-.515-.203 1.5 1.5 0 0 1-.328-.516 3.6 3.6 0 0 1-.188-.718q-.047-.406-.078-.781-.016-.39-.016-.704.016-.327.016-.515v-.735q0-.593-.031-1.171-.016-.578-.016-1.157v-.797q.016-.484.125-.937.11-.469.359-.797.25-.328.735-.328.219 0 .39.14t.297.344q.141.204.219.438.094.234.141.406.156-.218.359-.422.219-.203.484-.36a2.55 2.55 0 0 1 1.344-.343q.797 0 1.235.39.452.375.656.954.219.562.265 1.219.047.656.047 1.187 0 .266-.047.797-.047.516-.156 1.156-.094.626-.265 1.297-.172.656-.407 1.203a3 3 0 0 1-.562.89q-.312.345-.719.344m10.125-4.484q0 .266-.016.797 0 .516-.046 1.094-.031.562-.094 1.078-.063.5-.156.734-.125.297-.329.516a.7.7 0 0 1-.546.219q-.532 0-.766-.422-.234-.421-.313-1.047a9.5 9.5 0 0 1-.062-1.36q.015-.734-.016-1.359a4 4 0 0 0-.172-1.047q-.14-.422-.515-.422-.516 0-.797.172a.96.96 0 0 0-.391.422q-.109.265-.14.61-.016.343-.047.718-.032.36-.047.969t-.141 1.203a2.9 2.9 0 0 1-.422 1.031q-.28.422-.843.422a.7.7 0 0 1-.563-.265 2.1 2.1 0 0 1-.328-.688 5.7 5.7 0 0 1-.187-.937 17 17 0 0 1-.063-1v-.907q.016-.406.016-.609 0-.312.015-1.031.032-.719.11-1.594.078-.89.203-1.828t.328-1.703q.203-.781.484-1.266.297-.484.688-.469.25.016.422.22.188.203.297.53.125.313.203.688t.109.75q.047.36.047.672.015.313.016.484a22 22 0 0 1-.063 1.625 2.8 2.8 0 0 1 .953-.797 2.65 2.65 0 0 1 1.219-.312q.781 0 1.172.437.406.422.578 1.063.172.624.187 1.344.016.702.016 1.265m7.656 1.266q0 .531-.343 1.047-.328.5-.844.906-.5.39-1.078.64-.579.235-1.063.235a2.76 2.76 0 0 1-1.484-.406 3.9 3.9 0 0 1-1.078-1.063 5.1 5.1 0 0 1-.672-1.406 5.6 5.6 0 0 1-.219-1.516q0-.78.219-1.672.219-.89.656-1.64.453-.75 1.125-1.25.687-.5 1.625-.5.531 0 1.016.187.484.173.843.5.36.329.579.782t.218 1.015q0 .735-.312 1.375a3.7 3.7 0 0 1-.828 1.11 4.4 4.4 0 0 1-1.188.765 4 4 0 0 1-1.375.313q.063.453.36.656.312.203.734.203.312 0 .609-.156a6 6 0 0 0 .578-.344q.282-.203.547-.36.281-.155.563-.156.313 0 .562.204a.65.65 0 0 1 .25.53m-2.531-3.828a.94.94 0 0 0-.109-.422.36.36 0 0 0-.344-.219.9.9 0 0 0-.578.188 1.4 1.4 0 0 0-.391.453q-.156.266-.25.578a3 3 0 0 0-.094.578q.219-.047.516-.125.312-.078.578-.203.282-.141.469-.344a.66.66 0 0 0 .203-.484m8.953.609q0 .078-.015.172a1 1 0 0 1-.047.156q-.141.36-.438.61a1.1 1.1 0 0 1-.703.234q-.609 0-.828-.61a.5.5 0 0 1-.031-.171q0-.11-.016-.22v-.452a.9.9 0 0 0-.109-.344q-.078-.125-.266-.125-.265 0-.516.344a3.8 3.8 0 0 0-.421.797 7 7 0 0 0-.282.937 3.7 3.7 0 0 0-.109.781q0 .236.031.579.032.328.125.64.094.313.25.547a.54.54 0 0 0 .438.219.8.8 0 0 0 .484-.156q.234-.172.453-.391.203-.187.438-.39a.87.87 0 0 1 .562-.204q.391 0 .61.281a.97.97 0 0 1 .234.641q0 .532-.281 1a3.2 3.2 0 0 1-.703.797q-.423.328-.938.516a2.7 2.7 0 0 1-.984.203q-.844 0-1.438-.422a3.3 3.3 0 0 1-.937-1.063 5 5 0 0 1-.516-1.422 7.3 7.3 0 0 1-.156-1.453q0-.797.219-1.719a6.4 6.4 0 0 1 .671-1.734 4.3 4.3 0 0 1 1.157-1.328q.719-.531 1.703-.531.609 0 1.047.265.453.266.734.703.297.423.438.954.156.531.156 1.046v.157a1 1 0 0 1-.016.156m7.422 3.219q0 .531-.344 1.047-.328.5-.843.906a5 5 0 0 1-1.079.64q-.577.235-1.062.235a2.76 2.76 0 0 1-1.484-.406 3.9 3.9 0 0 1-1.079-1.063 5.2 5.2 0 0 1-.671-1.406 5.6 5.6 0 0 1-.219-1.516q0-.78.219-1.672.218-.89.656-1.64.453-.75 1.125-1.25.687-.5 1.625-.5.531 0 1.015.187a2.45 2.45 0 0 1 1.422 1.282q.219.453.219 1.015 0 .735-.312 1.375a3.7 3.7 0 0 1-.829 1.11 4.4 4.4 0 0 1-1.187.765 4 4 0 0 1-1.375.313q.063.453.359.656.313.203.735.203.312 0 .609-.156a6 6 0 0 0 .578-.344q.282-.203.547-.36.281-.155.563-.156.312 0 .562.204a.65.65 0 0 1 .25.53m-2.531-3.828a.94.94 0 0 0-.11-.422.36.36 0 0 0-.343-.219.9.9 0 0 0-.578.188 1.4 1.4 0 0 0-.391.453q-.156.266-.25.578a3 3 0 0 0-.094.578q.219-.047.516-.125.312-.078.578-.203.281-.141.469-.344a.66.66 0 0 0 .203-.484M68.893 82.719q0 1.14-.094 2.265-.078 1.125-.078 2.266 0 .922.047 1.828.063.906.062 1.828 0 .25-.015.61-.015.344-.11.671a1.3 1.3 0 0 1-.28.563q-.189.234-.548.234-.468 0-.781-.343a1.7 1.7 0 0 1-.375-.797 2.7 2.7 0 0 1-.86.953q-.561.39-1.218.39a1.72 1.72 0 0 1-1.219-.484 4.3 4.3 0 0 1-.844-1.172 7 7 0 0 1-.5-1.437 6.5 6.5 0 0 1-.156-1.297 9.7 9.7 0 0 1 .203-1.906q.126-.516.313-1 .188-.5.468-.891.297-.39.688-.625.405-.234.922-.234.562 0 1.078.328.516.329.781.812l.14-2.484q.017-.297.048-.688.03-.406.125-.765.11-.36.328-.61.22-.25.64-.25.454 0 .704.22.25.218.359.562.125.328.14.718.032.39.032.735m-2.547 6.937q0-.36-.016-.703-.015-.343 0-.703a9 9 0 0 0-.218-.437 2 2 0 0 0-.313-.454 1.6 1.6 0 0 0-.39-.359.85.85 0 0 0-.47-.14.6.6 0 0 0-.452.171 1 1 0 0 0-.25.422 2.5 2.5 0 0 0-.11.516q-.015.281-.015.484 0 .188.03.563.033.36.11.734.094.375.25.656.157.281.422.281.204 0 .406-.078.203-.093.375-.218.188-.141.344-.297a7 7 0 0 0 .297-.313zm6.156-7.562a.65.65 0 0 1-.125.39 1.2 1.2 0 0 1-.297.313q-.187.124-.406.203a1.5 1.5 0 0 1-.406.063.96.96 0 0 1-.547-.157q-.234-.156-.234-.484a.74.74 0 0 1 .109-.406q.124-.187.297-.297.172-.126.39-.188.22-.062.422-.062.297 0 .547.14t.25.485m.125 5.312v.469q0 .234-.015.453-.016.266-.016.719 0 .438-.031.953-.032.516-.11 1.047a4.4 4.4 0 0 1-.218.969 2 2 0 0 1-.422.718.9.9 0 0 1-.64.282.58.58 0 0 1-.5-.235 2.2 2.2 0 0 1-.345-.64 5.4 5.4 0 0 1-.187-.891 17 17 0 0 1-.094-.953q-.03-.47-.031-.86v-1.281q0-.469.031-1 .031-.53.11-1.078.093-.547.25-1 .171-.453.437-.734a.88.88 0 0 1 .672-.281q.422 0 .64.421.22.423.329.985t.125 1.125q.015.546.015.812m6.532-.25q-.219.015-.376-.031L78.472 87a3 3 0 0 0-.281-.11.6.6 0 0 0-.313-.046q-.312.016-.562.172a2.2 2.2 0 0 0-.438.39 2.7 2.7 0 0 0-.328.531 3 3 0 0 0-.219.563 4 4 0 0 0-.078.578q-.015.375-.015.813-.016.453-.016.859t-.031.64q-.016.25-.078.594-.063.33-.203.625a1.4 1.4 0 0 1-.344.5.8.8 0 0 1-.563.204.75.75 0 0 1-.468-.157 1.4 1.4 0 0 1-.329-.406 4 4 0 0 1-.218-.61 8 8 0 0 1-.125-.703q-.048-.375-.078-.75-.015-.375-.032-.703v-.625q.016-.28.016-.453a19 19 0 0 0-.063-1.094q-.03-.561-.03-1.109 0-.343.03-.766.032-.42.172-.78.141-.376.407-.626.28-.25.765-.25.266 0 .453.172.188.172.297.422.125.25.188.531.061.282.078.516.375-.609.844-.984.468-.39 1.218-.422.375-.016.735.078.375.078.672.281.311.188.5.5.203.312.218.734.031.5-.297.766-.328.265-.796.281m7.874 3.063q0 .531-.343 1.047-.328.5-.844.906-.5.39-1.078.64-.579.235-1.063.235a2.76 2.76 0 0 1-1.484-.406 3.9 3.9 0 0 1-1.078-1.063 5.2 5.2 0 0 1-.672-1.406 5.6 5.6 0 0 1-.219-1.516q0-.78.219-1.672.22-.89.656-1.64.453-.75 1.125-1.25.688-.5 1.625-.5.532 0 1.016.187a2.45 2.45 0 0 1 1.422 1.281q.219.454.219 1.016 0 .735-.313 1.375a3.6 3.6 0 0 1-.828 1.11q-.516.468-1.188.765a4 4 0 0 1-1.375.313q.063.453.36.656.312.203.734.203.313 0 .61-.156.296-.156.578-.344.281-.203.547-.36a1.15 1.15 0 0 1 .562-.156q.312 0 .563.204t.25.53m-2.53-3.828a.94.94 0 0 0-.11-.422.36.36 0 0 0-.344-.219.9.9 0 0 0-.578.188 1.4 1.4 0 0 0-.39.453q-.157.266-.25.578a3 3 0 0 0-.094.578q.218-.047.515-.125.313-.078.578-.203a1.6 1.6 0 0 0 .47-.344.66.66 0 0 0 .202-.484m5.734-4.297a.65.65 0 0 1-.125.39 1.2 1.2 0 0 1-.297.313q-.187.124-.406.203a1.5 1.5 0 0 1-.407.063.96.96 0 0 1-.547-.157q-.234-.156-.234-.484a.74.74 0 0 1 .11-.406q.125-.187.296-.297.172-.126.39-.188.22-.062.423-.062.297 0 .547.14t.25.485m.125 5.312v.469q0 .234-.016.453-.016.266-.016.719 0 .438-.03.953-.033.516-.11 1.047a4.4 4.4 0 0 1-.219.969 2 2 0 0 1-.422.718.9.9 0 0 1-.64.282.58.58 0 0 1-.5-.235 2.2 2.2 0 0 1-.344-.64 5.4 5.4 0 0 1-.188-.891 17 17 0 0 1-.093-.953q-.032-.47-.032-.86v-1.281q0-.469.032-1 .03-.53.109-1.078a6.4 6.4 0 0 1 .25-1 2.2 2.2 0 0 1 .437-.734.88.88 0 0 1 .672-.281q.423 0 .64.421.22.423.329.985t.125 1.125q.016.546.016.812m4.75 6.156q-1.11 0-1.735-.296a2 2 0 0 1-.922-.813q-.296-.531-.359-1.281-.062-.75-.062-1.672 0-.735.046-1.469.048-.75.141-1.594-.219 0-.344.016h-.203q-.5 0-.86-.219-.374-.219-.374-.671 0-.282.219-.5a1.7 1.7 0 0 1 .53-.376q.33-.156.704-.25.39-.094.734-.124 0-.438.063-.97.062-.53.219-.984.171-.468.453-.78a.92.92 0 0 1 .718-.313q.25 0 .438.156.203.141.328.375.125.218.188.5.062.281.062.547 0 .312-.047.64a8 8 0 0 1-.172.813q.266-.031.36-.031.094-.016.172-.016.266 0 .546.047.297.047.532.156.25.11.406.297a.6.6 0 0 1 .156.422.67.67 0 0 1-.234.5q-.22.218-.563.375-.344.156-.734.25-.39.077-.734.11-.094.64-.141 1.187-.03.53-.078 1.078l-.063.547q-.015.266-.015.547 0 .202.015.484.015.266.11.516.093.25.297.437.202.172.562.172.219 0 .453-.031a2.4 2.4 0 0 1 .469-.047q.405 0 .578.281.188.282.188.719a.9.9 0 0 1-.204.578 1.35 1.35 0 0 1-.484.375 2.6 2.6 0 0 1-.672.234q-.36.08-.687.079m5.328-.109q-.797 0-1.39-.422a3.7 3.7 0 0 1-1-1.078 5.2 5.2 0 0 1-.61-1.453 6.6 6.6 0 0 1-.203-1.594q0-.828.203-1.703.203-.89.625-1.61.421-.734 1.078-1.187.656-.469 1.562-.469.876 0 1.485.485.624.468 1 1.187.375.704.531 1.547a6.5 6.5 0 0 1 .109 1.594 8.6 8.6 0 0 1-.265 1.672 5.3 5.3 0 0 1-.61 1.516q-.405.671-1.031 1.093t-1.484.422m.156-7.062q-.234 0-.422.25-.171.25-.297.609a5.5 5.5 0 0 0-.172.766q-.062.39-.062.687 0 .375.062.813.078.437.204.812.125.36.296.61.188.234.422.234.25 0 .422-.234.188-.236.297-.594.11-.36.156-.781.047-.438.047-.813 0-.345-.062-.75a4.3 4.3 0 0 0-.188-.781 1.8 1.8 0 0 0-.297-.594q-.172-.234-.406-.234m14.344 3.828q0 .531-.344 1.047-.328.5-.844.906a5 5 0 0 1-1.078.64q-.578.235-1.062.235a2.77 2.77 0 0 1-1.485-.406 3.9 3.9 0 0 1-1.078-1.063 5.2 5.2 0 0 1-.672-1.406 5.6 5.6 0 0 1-.218-1.516q0-.78.218-1.672a6.1 6.1 0 0 1 .657-1.64q.453-.75 1.125-1.25.687-.5 1.625-.5.53 0 1.015.187a2.46 2.46 0 0 1 1.422 1.281q.219.454.219 1.016 0 .735-.313 1.375a3.6 3.6 0 0 1-.828 1.11 4.4 4.4 0 0 1-1.187.765 4 4 0 0 1-1.375.313q.062.453.359.656.312.203.734.203.313 0 .61-.156t.578-.344q.281-.203.547-.36.281-.155.562-.156a.87.87 0 0 1 .563.204q.25.203.25.53m-2.531-3.828a.94.94 0 0 0-.11-.422.36.36 0 0 0-.344-.219.9.9 0 0 0-.578.188 1.4 1.4 0 0 0-.39.453q-.157.266-.25.578a3 3 0 0 0-.094.578q.219-.047.516-.125.312-.078.578-.203.28-.141.468-.344a.66.66 0 0 0 .204-.484m7.734-1.985q0 .453-.313.672a6 6 0 0 1-.671.422q-.375.188-.688.453-.297.266-.297.797a.9.9 0 0 0 .125.484q.14.203.328.375.204.157.438.329.234.171.422.39.202.219.328.531.14.313.14.766 0 .657-.343 1.297a4.3 4.3 0 0 1-.86 1.125 4.3 4.3 0 0 1-1.172.781 3.1 3.1 0 0 1-1.296.297q-.267 0-.532-.047a1.5 1.5 0 0 1-.484-.14 1.04 1.04 0 0 1-.344-.297.9.9 0 0 1-.14-.516q0-.438.171-.672.172-.25.438-.39.265-.14.562-.22.313-.077.579-.187.265-.124.437-.312.172-.187.172-.531 0-.33-.266-.672a14 14 0 0 0-.562-.75 8 8 0 0 1-.578-.86 2.03 2.03 0 0 1-.25-1q0-.672.265-1.234.282-.578.735-1a3.5 3.5 0 0 1 1.062-.656q.594-.25 1.25-.25.25 0 .485.046.25.048.437.172a.8.8 0 0 1 .297.313.86.86 0 0 1 .125.484m5.203 0q0 .453-.312.672a6 6 0 0 1-.672.422q-.375.188-.688.453-.297.266-.297.797a.9.9 0 0 0 .125.484q.14.203.328.375.204.157.438.329.234.171.422.39.203.219.328.531.141.313.141.766 0 .657-.344 1.297a4.3 4.3 0 0 1-.86 1.125 4.3 4.3 0 0 1-1.171.781q-.657.297-1.297.297-.266 0-.532-.047a1.5 1.5 0 0 1-.484-.14 1.05 1.05 0 0 1-.344-.297.9.9 0 0 1-.14-.516q0-.438.172-.672.171-.25.437-.39t.563-.22q.312-.077.578-.187.266-.124.437-.312.172-.187.172-.531 0-.33-.266-.672a14 14 0 0 0-.562-.75 8 8 0 0 1-.578-.86 2.03 2.03 0 0 1-.25-1q0-.672.265-1.234.282-.578.735-1a3.5 3.5 0 0 1 1.062-.656q.594-.25 1.25-.25.25 0 .485.046.25.048.437.172a.8.8 0 0 1 .297.313.86.86 0 0 1 .125.484m7.266 6.39q0 .282-.032.735-.015.454-.125.89a2.1 2.1 0 0 1-.343.735q-.235.313-.657.313-.578 0-.89-.375t-.297-.938q-.5.438-1.141.688-.624.25-1.281.25-.454 0-.859-.219a2.7 2.7 0 0 1-.719-.562 2.9 2.9 0 0 1-.5-.766 2.2 2.2 0 0 1-.188-.86q0-.75.454-1.312a4.2 4.2 0 0 1 1.14-.953q.672-.406 1.422-.64.766-.235 1.359-.313v-.14a.6.6 0 0 0 .016-.141q0-.485-.266-.782t-.75-.297q-.39 0-.671.141a3.3 3.3 0 0 0-.532.297q-.25.156-.5.297a1.24 1.24 0 0 1-.562.125.87.87 0 0 1-.594-.219.74.74 0 0 1-.234-.562q0-.516.297-.938.312-.422.765-.703a4 4 0 0 1 1-.453 3.4 3.4 0 0 1 1-.172q.422 0 .844.11.422.093.797.312.375.203.672.515.312.297.5.704.28.577.453 1.234.172.64.265 1.328.095.672.125 1.36.032.671.032 1.312m-2.5-.5-.047-1.062h-.063a.14.14 0 0 0-.062-.015 1.6 1.6 0 0 0-.516.11q-.296.093-.578.28a2.3 2.3 0 0 0-.484.391.7.7 0 0 0-.188.453q0 .219.156.297a.8.8 0 0 0 .36.078q.344 0 .734-.172.391-.188.688-.36m9.781-8.202a.65.65 0 0 1-.125.39 1.2 1.2 0 0 1-.297.313q-.187.124-.406.203a1.5 1.5 0 0 1-.406.063.96.96 0 0 1-.547-.157q-.235-.156-.235-.484a.74.74 0 0 1 .11-.406 1 1 0 0 1 .297-.297q.171-.126.39-.188a1.5 1.5 0 0 1 .422-.062q.297 0 .547.14t.25.485m.125 5.312v.469q0 .234-.016.453-.015.266-.015.719 0 .438-.032.953-.03.516-.109 1.047a4.4 4.4 0 0 1-.219.969 2 2 0 0 1-.422.718.9.9 0 0 1-.64.282.58.58 0 0 1-.5-.235 2.2 2.2 0 0 1-.344-.64 5.3 5.3 0 0 1-.187-.891 17 17 0 0 1-.094-.953 13 13 0 0 1-.031-.86v-1.281q0-.469.031-1 .031-.53.109-1.078.094-.547.25-1a2.2 2.2 0 0 1 .438-.734.88.88 0 0 1 .672-.281q.421 0 .64.421.219.423.328.985t.125 1.125q.016.546.016.812m5.547 6.031q-.266 0-.422-.25a1.7 1.7 0 0 1-.234-.546 4 4 0 0 1-.11-.625q-.015-.33-.015-.5 0-.469.046-.938l.125-.937q.078-.469.125-.938a7 7 0 0 0 .063-.937q0-.187-.016-.407a1.6 1.6 0 0 0-.078-.406.66.66 0 0 0-.172-.328.44.44 0 0 0-.328-.125q-.141 0-.312.234a3.3 3.3 0 0 0-.328.516q-.142.281-.25.578a1.5 1.5 0 0 0-.094.422v.703q.015.345.015.703v.906q-.016.281-.046.579a5 5 0 0 1-.094.578q-.046.281-.141.547a1.7 1.7 0 0 1-.25.453q-.14.188-.344.312a.9.9 0 0 1-.484.125.7.7 0 0 1-.516-.203 1.5 1.5 0 0 1-.328-.516 3.6 3.6 0 0 1-.187-.718q-.047-.406-.078-.781-.016-.39-.016-.704.016-.327.016-.515v-.735q0-.593-.032-1.171-.015-.579-.015-1.157v-.797q.015-.484.125-.937a2.1 2.1 0 0 1 .359-.797q.25-.328.735-.328a.6.6 0 0 1 .39.14q.173.141.297.344.141.203.219.438.093.234.14.406.157-.22.36-.422.219-.203.484-.36a2.53 2.53 0 0 1 1.344-.343q.797 0 1.234.39.453.375.657.954.218.562.265 1.219.047.656.047 1.187 0 .266-.047.797-.047.516-.156 1.156a13 13 0 0 1-.266 1.297 8.5 8.5 0 0 1-.406 1.203 3 3 0 0 1-.562.89q-.313.345-.719.344m7.609-9.03q0 .452-.312.671a6 6 0 0 1-.672.422q-.375.188-.688.453-.297.266-.297.797a.9.9 0 0 0 .125.484q.141.203.329.375.203.157.437.329.234.171.422.39.203.219.328.531.141.313.141.766 0 .657-.344 1.297a4.28 4.28 0 0 1-2.031 1.906q-.657.297-1.297.297-.266 0-.531-.047a1.5 1.5 0 0 1-.485-.14 1.05 1.05 0 0 1-.344-.297.9.9 0 0 1-.14-.516q0-.438.172-.672.171-.25.437-.39t.563-.22q.312-.077.578-.187.266-.124.437-.312.172-.187.172-.531 0-.33-.265-.672-.25-.36-.563-.75a8 8 0 0 1-.578-.86 2.03 2.03 0 0 1-.25-1q0-.672.266-1.234.28-.578.734-1 .469-.422 1.062-.656.594-.25 1.25-.25.25 0 .485.046.25.048.437.172a.8.8 0 0 1 .297.313.86.86 0 0 1 .125.484m7.469 4.124q0 .859-.172 1.703a4.7 4.7 0 0 1-.578 1.516 3.15 3.15 0 0 1-1.094 1.063q-.672.406-1.687.406-1 0-1.672-.39a3.2 3.2 0 0 1-1.078-1.063 4.8 4.8 0 0 1-.563-1.485 9 9 0 0 1-.156-1.687q0-.937.219-1.86.046-.249.172-.687a6 6 0 0 1 .343-.875q.22-.438.485-.75.28-.313.609-.313.312 0 .5.172t.297.438q.11.25.141.547.03.28.031.515 0 .36-.063.703-.046.345-.109.688l-.125.937a9.5 9.5 0 0 0-.031 1.47q.03.28.125.546.094.266.265.453.172.172.485.172.406 0 .64-.219.25-.219.36-.547.124-.327.156-.703.031-.375.031-.687 0-.688-.094-1.344a56 56 0 0 1-.171-1.36 1.5 1.5 0 0 1 .062-.687q.078-.234.219-.422.14-.188.344-.297a.84.84 0 0 1 .453-.125q.344 0 .609.25.266.235.438.625.187.375.296.86.125.469.188.937.078.453.094.86.03.406.031.64m3.875-5q0 .844-.078 1.703-.063.844-.063 1.704 0 1.11.063 2.218.078 1.11.078 2.235 0 .28-.031.64-.031.345-.157.64a1.2 1.2 0 0 1-.343.5q-.235.204-.625.204-.375 0-.657-.375a3.3 3.3 0 0 1-.453-.922 12 12 0 0 1-.297-1.281 23 23 0 0 1-.171-1.36 89 89 0 0 1-.079-1.218 35 35 0 0 1-.015-.828q0-.297.015-.86.032-.562.11-1.219.078-.656.203-1.328.14-.687.359-1.234.219-.562.516-.906.312-.36.734-.36.344 0 .516.235.187.219.266.547.078.312.093.671.016.345.016.594m3.766-1.437a.65.65 0 0 1-.125.39 1.2 1.2 0 0 1-.297.313 2 2 0 0 1-.407.203 1.5 1.5 0 0 1-.406.063.97.97 0 0 1-.547-.157q-.234-.156-.234-.484a.74.74 0 0 1 .109-.406q.126-.187.297-.297.172-.126.391-.188t.422-.062q.297 0 .547.14t.25.485m.125 5.312v.469q0 .234-.016.453-.016.266-.016.719 0 .438-.031.953-.031.516-.109 1.047a4.4 4.4 0 0 1-.219.969 2 2 0 0 1-.422.718.9.9 0 0 1-.641.282.58.58 0 0 1-.5-.235 2.2 2.2 0 0 1-.343-.64 5.3 5.3 0 0 1-.188-.891 17 17 0 0 1-.094-.953q-.03-.47-.031-.86v-1.281q0-.469.031-1 .032-.53.11-1.078.094-.547.25-1 .171-.453.437-.734a.88.88 0 0 1 .672-.281q.422 0 .641.421.219.423.328.985t.125 1.125q.015.546.016.812m5.546 6.031q-.265 0-.421-.25a1.7 1.7 0 0 1-.235-.546 4.4 4.4 0 0 1-.109-.625 11 11 0 0 1-.016-.5q0-.469.047-.938l.125-.937q.078-.469.125-.938a7 7 0 0 0 .063-.937q0-.187-.016-.407a1.7 1.7 0 0 0-.078-.406.66.66 0 0 0-.172-.328.44.44 0 0 0-.328-.125q-.14 0-.313.234a3.4 3.4 0 0 0-.328.516q-.14.281-.25.578a1.5 1.5 0 0 0-.094.422v.703q.016.345.016.703v.906q-.015.281-.047.579-.031.296-.094.578-.047.281-.14.547a1.8 1.8 0 0 1-.25.453q-.141.188-.344.312a.9.9 0 0 1-.484.125.7.7 0 0 1-.516-.203 1.5 1.5 0 0 1-.328-.516 3.7 3.7 0 0 1-.188-.718q-.047-.406-.078-.781-.015-.39-.015-.704.015-.327.015-.515v-.735q0-.593-.031-1.171-.016-.579-.016-1.157v-.797q.016-.484.125-.937.11-.469.36-.797t.734-.328q.219 0 .391.14.171.141.297.344.14.203.218.438.094.234.141.406.156-.22.359-.422.22-.203.485-.36a2.53 2.53 0 0 1 1.344-.343q.796 0 1.234.39.453.375.656.954.22.562.266 1.219.047.656.047 1.187 0 .266-.047.797-.047.516-.156 1.156-.095.626-.266 1.297-.172.656-.406 1.203a3 3 0 0 1-.563.89q-.312.345-.719.344m9.672-2.64q0 .28-.031.734-.015.454-.125.89a2.1 2.1 0 0 1-.344.735q-.234.313-.656.313-.577 0-.891-.375-.312-.375-.296-.938-.5.438-1.141.688-.625.25-1.281.25a1.8 1.8 0 0 1-.86-.219 2.7 2.7 0 0 1-.718-.562 2.8 2.8 0 0 1-.5-.766 2.2 2.2 0 0 1-.188-.86q0-.75.453-1.312a4.3 4.3 0 0 1 1.141-.953q.672-.406 1.422-.64.765-.235 1.359-.313v-.14a.6.6 0 0 0 .016-.141q0-.485-.266-.782-.265-.297-.75-.297-.39 0-.672.141a3.3 3.3 0 0 0-.531.297q-.25.156-.5.297a1.24 1.24 0 0 1-.563.125.87.87 0 0 1-.593-.219.73.73 0 0 1-.235-.562q0-.516.297-.938.312-.422.766-.703a4 4 0 0 1 1-.453 3.4 3.4 0 0 1 1-.172q.421 0 .844.11.421.093.796.312.375.203.672.515.313.297.5.704.282.577.453 1.234.173.64.266 1.328.094.672.125 1.36.031.671.031 1.312m-2.5-.5-.047-1.063h-.062a.14.14 0 0 0-.063-.015q-.203 0-.515.11a2.3 2.3 0 0 0-.578.28 2.3 2.3 0 0 0-.485.391.7.7 0 0 0-.187.453q0 .219.156.297a.8.8 0 0 0 .359.078q.344 0 .735-.172.39-.188.687-.36m5.703 1.953q0 .203-.093.375a.9.9 0 0 1-.25.266q-.14.109-.328.171a1 1 0 0 1-.36.063q-.234 0-.515-.094a1.8 1.8 0 0 1-.5-.234 1.8 1.8 0 0 1-.375-.36.8.8 0 0 1-.157-.484q0-.422.36-.625.359-.219.734-.219.235 0 .484.079.266.078.485.234.234.14.375.36.14.202.14.468m9.797-9.86q0 .297-.14.532a1.3 1.3 0 0 1-.344.406 2.6 2.6 0 0 1-1 .422 70 70 0 0 1-.141 3.406 50 50 0 0 1-.312 3.39h.094q.25 0 .484.063.25.047.437.188.204.125.313.328a.83.83 0 0 1 .125.469q0 .36-.234.625a1.8 1.8 0 0 1-.594.453q-.36.188-.813.312a7 7 0 0 1-.906.188 9 9 0 0 1-1.516.14 9 9 0 0 1-.468-.015 2.2 2.2 0 0 1-.516-.094 1.1 1.1 0 0 1-.406-.234.54.54 0 0 1-.172-.422q0-.329.141-.578.124-.266.343-.469a1.9 1.9 0 0 1 .485-.328q.281-.126.562-.188.11-.858.203-1.703.094-.859.125-1.734l.063-1.75.062-1.75q-.109.015-.203.031h-.172q-.219 0-.468-.047a1.8 1.8 0 0 1-.469-.156 1.5 1.5 0 0 1-.375-.297.67.67 0 0 1-.141-.437q0-.532.438-.875a3.4 3.4 0 0 1 1.062-.532 6.6 6.6 0 0 1 1.266-.25 9 9 0 0 1 1.031-.078q.22 0 .578.031.36.031.703.141.36.11.61.297a.6.6 0 0 1 .265.516m4.797 2.016q0 .453-.312.672a6 6 0 0 1-.672.422q-.375.188-.688.453-.297.266-.297.797a.9.9 0 0 0 .125.484q.141.203.329.375.203.157.437.329.234.171.422.39.203.219.328.531.141.313.141.766 0 .657-.344 1.297a4.28 4.28 0 0 1-2.031 1.906q-.657.297-1.297.297-.266 0-.531-.047a1.5 1.5 0 0 1-.485-.14 1.05 1.05 0 0 1-.344-.297.9.9 0 0 1-.14-.516q0-.438.172-.672.171-.25.437-.39t.563-.22q.312-.077.578-.187.266-.124.437-.312.172-.187.172-.531 0-.33-.265-.672-.25-.36-.563-.75a8 8 0 0 1-.578-.86 2.03 2.03 0 0 1-.25-1q0-.672.266-1.234.28-.578.734-1 .469-.422 1.062-.656.594-.25 1.25-.25.25 0 .485.046.25.048.437.172a.8.8 0 0 1 .297.313.86.86 0 0 1 .125.484m5.203 0q0 .453-.312.672a6 6 0 0 1-.672.422q-.375.188-.688.453-.297.266-.296.797a.9.9 0 0 0 .125.484q.14.203.328.375.203.157.437.329.234.171.422.39.203.219.328.531.141.313.141.766 0 .657-.344 1.297a4.28 4.28 0 0 1-2.031 1.906q-.657.297-1.297.297-.266 0-.531-.047a1.5 1.5 0 0 1-.485-.14 1 1 0 0 1-.343-.297.9.9 0 0 1-.141-.516q0-.438.172-.672.171-.25.437-.39t.563-.22q.312-.077.578-.187.266-.124.437-.312.172-.187.172-.531 0-.33-.265-.672-.25-.36-.563-.75a8 8 0 0 1-.578-.86 2.03 2.03 0 0 1-.25-1q0-.672.266-1.234.28-.578.734-1 .47-.422 1.063-.656.593-.25 1.25-.25.25 0 .484.046.25.048.437.172a.8.8 0 0 1 .297.313.85.85 0 0 1 .125.484m3.594 9.047q-.797 0-1.391-.422a3.7 3.7 0 0 1-1-1.078 5.2 5.2 0 0 1-.609-1.453 6.6 6.6 0 0 1-.203-1.594q0-.828.203-1.703.203-.89.625-1.61.422-.734 1.078-1.187.656-.469 1.563-.469.875 0 1.484.485.625.468 1 1.187.375.704.531 1.547.156.844.11 1.594a8.6 8.6 0 0 1-.266 1.672 5.3 5.3 0 0 1-.609 1.516 3.5 3.5 0 0 1-1.032 1.093q-.624.422-1.484.422m.156-7.062q-.234 0-.422.25-.171.25-.296.609-.11.36-.172.766-.063.39-.063.687 0 .375.063.813.078.437.203.812.125.36.297.61.187.234.422.234.25 0 .421-.234.187-.236.297-.594.11-.36.157-.781.046-.438.046-.813 0-.345-.062-.75a4.3 4.3 0 0 0-.188-.781 1.8 1.8 0 0 0-.296-.594q-.172-.234-.407-.234m12.375-1.985q0 .453-.312.672a6 6 0 0 1-.672.422q-.375.188-.688.453-.297.266-.296.797a.9.9 0 0 0 .125.484q.14.203.328.375.203.157.437.329.234.171.422.39.203.219.328.531.141.313.141.766 0 .657-.344 1.297a4.28 4.28 0 0 1-2.031 1.906q-.657.297-1.297.297-.266 0-.531-.047a1.5 1.5 0 0 1-.485-.14 1 1 0 0 1-.343-.297.9.9 0 0 1-.141-.516q0-.438.172-.672.171-.25.437-.39t.563-.22q.312-.077.578-.187.266-.124.437-.312.172-.187.172-.531 0-.33-.265-.672-.25-.36-.563-.75a8 8 0 0 1-.578-.86 2.03 2.03 0 0 1-.25-1q0-.672.266-1.234.28-.578.734-1 .47-.422 1.063-.656.593-.25 1.25-.25.25 0 .484.046.25.048.437.172a.8.8 0 0 1 .297.313.85.85 0 0 1 .125.484m7.172 5.813q0 .531-.344 1.047-.328.5-.843.906-.5.39-1.078.64-.579.235-1.063.235a2.76 2.76 0 0 1-1.484-.406 3.9 3.9 0 0 1-1.078-1.063 5.1 5.1 0 0 1-.672-1.406 5.6 5.6 0 0 1-.219-1.516q0-.78.219-1.672.218-.89.656-1.64.453-.75 1.125-1.25.687-.5 1.625-.5.531 0 1.016.187a2.45 2.45 0 0 1 1.421 1.281q.219.454.219 1.016 0 .735-.312 1.375a3.7 3.7 0 0 1-.828 1.11 4.4 4.4 0 0 1-1.188.765 4 4 0 0 1-1.375.313q.062.453.359.656.314.203.735.203.312 0 .609-.156a6 6 0 0 0 .578-.344q.282-.203.547-.36.282-.155.563-.156.312 0 .562.204a.65.65 0 0 1 .25.53m-2.531-3.828a.95.95 0 0 0-.109-.422.36.36 0 0 0-.344-.219.9.9 0 0 0-.578.188 1.4 1.4 0 0 0-.391.453q-.156.266-.25.578a3 3 0 0 0-.094.578q.219-.047.516-.125.312-.078.578-.203.282-.141.469-.344a.66.66 0 0 0 .203-.484M63.455 108q0 .078-.015.172a1 1 0 0 1-.047.156 1.5 1.5 0 0 1-.438.61 1.1 1.1 0 0 1-.703.234q-.609 0-.828-.61a.5.5 0 0 1-.031-.171 2 2 0 0 0-.016-.219v-.453a.9.9 0 0 0-.11-.344q-.077-.125-.265-.125-.266 0-.515.344a3.8 3.8 0 0 0-.422.797 7 7 0 0 0-.282.937q-.109.484-.109.781 0 .235.031.579.032.328.125.64.094.313.25.547.172.219.438.219a.8.8 0 0 0 .484-.156 4 4 0 0 0 .453-.391q.204-.187.438-.391a.87.87 0 0 1 .562-.203.73.73 0 0 1 .61.281.97.97 0 0 1 .234.641q0 .53-.281 1a3.2 3.2 0 0 1-.703.797q-.422.328-.938.516a2.7 2.7 0 0 1-.984.203q-.844 0-1.438-.422a3.3 3.3 0 0 1-.937-1.063 5 5 0 0 1-.516-1.422 7.3 7.3 0 0 1-.156-1.453q0-.797.219-1.719a6.5 6.5 0 0 1 .672-1.734 4.3 4.3 0 0 1 1.156-1.328q.72-.531 1.703-.531.609 0 1.047.265.453.266.734.704.297.421.438.953.156.531.156 1.047v.156a1 1 0 0 1-.016.156m7.97 1.953q0 .266-.016.797 0 .516-.047 1.094-.031.562-.094 1.078-.063.5-.156.734-.126.297-.328.516a.71.71 0 0 1-.547.219q-.532 0-.766-.422t-.312-1.047a9.4 9.4 0 0 1-.063-1.36q.015-.734-.016-1.359a4 4 0 0 0-.171-1.047q-.141-.422-.516-.422-.516 0-.797.172a.95.95 0 0 0-.39.422q-.11.265-.141.61-.015.343-.047.718-.031.36-.047.969a6.7 6.7 0 0 1-.14 1.203q-.126.594-.422 1.031-.282.422-.844.422a.7.7 0 0 1-.563-.265 2.1 2.1 0 0 1-.328-.688 6 6 0 0 1-.187-.937 17 17 0 0 1-.063-1v-.907q.016-.406.016-.609 0-.312.015-1.031.032-.719.11-1.594.078-.89.203-1.828t.328-1.703q.203-.781.484-1.266.297-.484.688-.469a.6.6 0 0 1 .422.219q.188.204.297.531.124.313.203.688.078.375.11.75.046.358.046.672.016.313.016.484a21 21 0 0 1-.063 1.625q.36-.484.953-.797a2.65 2.65 0 0 1 1.219-.312q.78 0 1.172.437.405.422.578 1.063.172.624.188 1.344.015.702.015 1.265m7.75 1.844q0 .28-.032.734-.015.453-.125.891a2.1 2.1 0 0 1-.344.734q-.234.313-.656.313-.578 0-.89-.375t-.298-.938a3.8 3.8 0 0 1-1.14.688q-.625.25-1.281.25-.454 0-.86-.219a2.7 2.7 0 0 1-.719-.563 2.9 2.9 0 0 1-.5-.765 2.2 2.2 0 0 1-.187-.859q0-.75.453-1.313a4.2 4.2 0 0 1 1.14-.953 6.5 6.5 0 0 1 1.422-.641q.766-.234 1.36-.312v-.141a.6.6 0 0 0 .016-.14q0-.485-.266-.782t-.75-.297q-.39 0-.672.141a3.3 3.3 0 0 0-.531.297q-.25.156-.5.297a1.25 1.25 0 0 1-.563.125.87.87 0 0 1-.593-.219.73.73 0 0 1-.235-.562q0-.516.297-.938a2.7 2.7 0 0 1 .766-.703 4 4 0 0 1 1-.453 3.4 3.4 0 0 1 1-.172q.42 0 .843.109.422.094.797.313.375.203.672.515.312.297.5.703.282.579.453 1.235.172.64.266 1.328.093.672.125 1.359.03.672.031 1.313m-2.5-.5-.048-1.063h-.062a.14.14 0 0 0-.063-.015 1.6 1.6 0 0 0-.515.109q-.297.094-.578.281a2.3 2.3 0 0 0-.485.391.7.7 0 0 0-.187.453q0 .219.156.297a.8.8 0 0 0 .36.078q.342 0 .734-.172.39-.188.687-.359m12.921-2.453v.812q0 .5-.031 1.094-.016.594-.094 1.203a5.3 5.3 0 0 1-.25 1.078 2.5 2.5 0 0 1-.406.797.79.79 0 0 1-.64.313.6.6 0 0 1-.532-.282 2.2 2.2 0 0 1-.25-.687 5 5 0 0 1-.094-.797v-.641q0-.703.047-1.375t.047-1.375v-.281q0-.203-.031-.406a1.2 1.2 0 0 0-.11-.359q-.062-.157-.203-.157-.28 0-.453.297a2.7 2.7 0 0 0-.281.672q-.11.39-.156.781-.048.375-.063.563-.031.203-.062.609-.016.406-.063.891-.03.484-.125 1-.078.5-.219.922-.124.405-.328.672-.203.265-.5.265a.64.64 0 0 1-.578-.328 2.4 2.4 0 0 1-.297-.766 6 6 0 0 1-.125-.89q-.016-.454-.016-.703v-.516q.016-.25.016-.516v-.359q0-.25-.016-.547 0-.312-.03-.64a5 5 0 0 0-.063-.594 1.5 1.5 0 0 0-.14-.453q-.094-.172-.22-.172-.203 0-.375.265a2.6 2.6 0 0 0-.296.61 6 6 0 0 0-.204.687 3 3 0 0 0-.062.5v.094q0 .75.094 1.469.093.718.093 1.468 0 .438-.28.813-.282.36-.782.359a.76.76 0 0 1-.594-.265 2.4 2.4 0 0 1-.39-.719 6 6 0 0 1-.25-.953 12 12 0 0 1-.11-1.031q-.03-.516-.047-.922v-.625q0-.235-.015-.688 0-.453.015-.984.031-.531.094-1.078.063-.563.203-1.016t.36-.734a.73.73 0 0 1 .593-.297q.407 0 .657.219.265.218.265.656 0 .094-.016.187 0 .094-.015.172.171-.25.422-.5.25-.265.531-.468.297-.22.625-.344a1.65 1.65 0 0 1 .656-.141q.313 0 .563.172t.437.437q.188.25.313.547.124.297.172.563.156-.281.375-.563a3.4 3.4 0 0 1 .5-.515q.266-.219.578-.36.328-.14.672-.14.328 0 .562.234t.406.61q.173.359.266.828.094.453.156.906.063.438.078.828.016.375.016.594m7.672 2.953q0 .28-.031.734-.015.453-.125.891a2.1 2.1 0 0 1-.344.734q-.234.313-.656.313-.579 0-.891-.375t-.297-.938a3.8 3.8 0 0 1-1.14.688q-.625.25-1.282.25-.453 0-.86-.219a2.7 2.7 0 0 1-.718-.563 2.9 2.9 0 0 1-.5-.765 2.2 2.2 0 0 1-.187-.859q0-.75.453-1.313a4.2 4.2 0 0 1 1.14-.953 6.5 6.5 0 0 1 1.422-.641 8.5 8.5 0 0 1 1.36-.312v-.141a.6.6 0 0 0 .015-.14q0-.485-.265-.782-.266-.297-.75-.297-.39 0-.672.141a3.3 3.3 0 0 0-.531.297q-.25.156-.5.297a1.24 1.24 0 0 1-.563.125.87.87 0 0 1-.594-.219.73.73 0 0 1-.234-.562q0-.516.297-.938.312-.422.765-.703a4 4 0 0 1 1-.453 3.4 3.4 0 0 1 1-.172q.423 0 .844.109.422.094.797.313.375.203.672.515.312.297.5.703.28.579.453 1.235.172.64.266 1.328.093.672.125 1.359.03.672.03 1.313m-2.5-.5-.047-1.063h-.062a.14.14 0 0 0-.063-.015 1.6 1.6 0 0 0-.516.109q-.297.094-.578.281a2.3 2.3 0 0 0-.484.391.7.7 0 0 0-.188.453q0 .219.157.297a.8.8 0 0 0 .359.078q.345 0 .734-.172.39-.188.688-.359m12.625-3.141q-.219.016-.375-.031l-.313-.125a3 3 0 0 0-.281-.109.6.6 0 0 0-.312-.047 1.14 1.14 0 0 0-.563.172 2.2 2.2 0 0 0-.437.39 2.7 2.7 0 0 0-.328.532 3 3 0 0 0-.219.562 4 4 0 0 0-.078.578q-.016.375-.016.813a26 26 0 0 0-.016.859q0 .406-.031.641-.015.25-.078.593a2.6 2.6 0 0 1-.203.625 1.4 1.4 0 0 1-.344.5.8.8 0 0 1-.562.203.75.75 0 0 1-.469-.156 1.4 1.4 0 0 1-.328-.406 4 4 0 0 1-.219-.609 8 8 0 0 1-.125-.703q-.047-.375-.078-.75l-.031-.704v-.625a9 9 0 0 0 .015-.453q-.015-.546-.062-1.094a20 20 0 0 1-.031-1.109q0-.343.031-.765t.172-.782q.14-.375.406-.625.281-.25.766-.25a.65.65 0 0 1 .453.172q.188.172.297.422.124.25.187.531t.078.516a3.8 3.8 0 0 1 .844-.984q.469-.392 1.219-.422.375-.016.734.078.375.078.672.281.312.188.5.5.203.312.219.734.03.5-.297.766a1.3 1.3 0 0 1-.797.281m7.875 3.063q0 .531-.344 1.047-.328.5-.844.906-.5.39-1.078.64-.578.235-1.062.235a2.77 2.77 0 0 1-1.485-.406 3.9 3.9 0 0 1-1.078-1.063 5.2 5.2 0 0 1-.672-1.406 5.6 5.6 0 0 1-.218-1.516q0-.781.218-1.672.219-.89.657-1.64.453-.75 1.125-1.25.687-.5 1.625-.5.53 0 1.015.187a2.46 2.46 0 0 1 1.422 1.281q.219.454.219 1.016 0 .735-.313 1.375a3.6 3.6 0 0 1-.828 1.109 4.4 4.4 0 0 1-1.187.766 4 4 0 0 1-1.375.313q.062.453.359.656.312.203.735.203.312 0 .609-.156t.578-.344q.282-.203.547-.359a1.14 1.14 0 0 1 .562-.157q.313 0 .563.204a.65.65 0 0 1 .25.531m-2.531-3.828a.94.94 0 0 0-.11-.422.36.36 0 0 0-.343-.219.9.9 0 0 0-.579.188 1.4 1.4 0 0 0-.39.453 2.6 2.6 0 0 0-.25.578 3 3 0 0 0-.094.578q.219-.047.516-.125.312-.078.578-.203.281-.141.469-.344a.66.66 0 0 0 .203-.484m7.734-1.985q0 .453-.312.672a6 6 0 0 1-.672.422q-.375.188-.688.453-.297.266-.297.797 0 .282.125.484.14.204.328.375.204.157.438.329.234.171.422.39.203.219.328.531.141.313.141.766 0 .656-.344 1.297a4.2 4.2 0 0 1-.86 1.125 4.3 4.3 0 0 1-1.171.781 3.1 3.1 0 0 1-1.297.297q-.266 0-.532-.047a1.5 1.5 0 0 1-.484-.14 1.05 1.05 0 0 1-.344-.297.9.9 0 0 1-.14-.516q0-.438.172-.672.171-.25.437-.391a2.7 2.7 0 0 1 .563-.218q.312-.078.578-.188.266-.124.437-.312.172-.187.172-.532 0-.327-.266-.671-.25-.36-.562-.75a8 8 0 0 1-.578-.86 2.03 2.03 0 0 1-.25-1q0-.672.265-1.234.282-.579.735-1a3.5 3.5 0 0 1 1.062-.656q.594-.25 1.25-.25.25 0 .485.047.25.046.437.171a.8.8 0 0 1 .297.313.86.86 0 0 1 .125.484m3.203-2.312a.65.65 0 0 1-.125.39 1.2 1.2 0 0 1-.297.313q-.187.125-.406.203a1.5 1.5 0 0 1-.406.062.96.96 0 0 1-.547-.156q-.234-.156-.234-.484 0-.234.109-.406a1 1 0 0 1 .297-.297q.172-.126.39-.188.22-.062.422-.062.297 0 .547.14t.25.485m.125 5.312v.469q0 .234-.015.453-.016.266-.016.719 0 .438-.031.953-.032.516-.11 1.047a4.4 4.4 0 0 1-.218.969 2 2 0 0 1-.422.718.9.9 0 0 1-.641.282.58.58 0 0 1-.5-.235 2.2 2.2 0 0 1-.344-.64 5.3 5.3 0 0 1-.187-.891 17 17 0 0 1-.094-.953 13 13 0 0 1-.031-.859v-1.282q0-.468.031-1 .031-.53.109-1.078.094-.546.25-1 .172-.453.438-.734a.88.88 0 0 1 .672-.282q.422 0 .64.422.22.423.329.985.108.563.125 1.125.015.546.015.812m5.688-3q0 .453-.313.672a6 6 0 0 1-.672.422q-.375.188-.687.453-.297.266-.297.797 0 .282.125.484.14.204.328.375.202.157.438.329.234.171.421.39.203.219.329.531.14.313.14.766 0 .656-.344 1.297a4.2 4.2 0 0 1-.859 1.125 4.3 4.3 0 0 1-1.172.781q-.656.297-1.297.297-.266 0-.531-.047a1.5 1.5 0 0 1-.484-.14 1.04 1.04 0 0 1-.344-.297.9.9 0 0 1-.141-.516q0-.438.172-.672.172-.25.438-.391.265-.14.562-.218.312-.078.578-.188.266-.124.438-.312.172-.187.172-.532 0-.327-.266-.671-.25-.36-.562-.75a8 8 0 0 1-.579-.86 2.04 2.04 0 0 1-.25-1q0-.672.266-1.234.282-.579.734-1 .47-.422 1.063-.656.594-.25 1.25-.25a2.4 2.4 0 0 1 .484.047q.25.046.438.171a.8.8 0 0 1 .297.313.86.86 0 0 1 .125.484m4.265 9.156q-1.108 0-1.734-.296a2 2 0 0 1-.922-.813q-.297-.531-.359-1.281-.063-.75-.063-1.672 0-.734.047-1.469.047-.75.141-1.593-.22 0-.344.015h-.203q-.5 0-.86-.219-.375-.218-.375-.672 0-.28.219-.5.204-.218.531-.374.329-.157.704-.25.39-.094.734-.126 0-.437.062-.968.063-.532.219-.985a2.4 2.4 0 0 1 .453-.781.93.93 0 0 1 .719-.312q.25 0 .438.156.202.141.328.375.124.219.187.5t.063.547q0 .313-.047.64-.047.329-.172.813.266-.031.359-.031a1 1 0 0 1 .172-.016q.266 0 .547.047.297.047.531.156.25.11.407.297a.6.6 0 0 1 .156.422.67.67 0 0 1-.235.5 1.9 1.9 0 0 1-.562.375 4 4 0 0 1-.734.25 7 7 0 0 1-.735.109q-.093.64-.14 1.188-.031.53-.079 1.078l-.062.547a9 9 0 0 0 0 1.031q.015.266.109.516.095.25.297.437.203.172.563.172.218 0 .453-.031.234-.048.469-.047.405 0 .578.281.187.282.187.719a.9.9 0 0 1-.203.578 1.35 1.35 0 0 1-.484.375 2.6 2.6 0 0 1-.672.234q-.36.078-.688.078m8.907-3.343q0 .531-.344 1.047-.328.5-.844.906a5 5 0 0 1-1.078.64q-.579.235-1.063.235a2.77 2.77 0 0 1-1.484-.406 3.9 3.9 0 0 1-1.078-1.063 5.1 5.1 0 0 1-.672-1.406 5.6 5.6 0 0 1-.219-1.516q0-.781.219-1.672.22-.89.656-1.64.453-.75 1.125-1.25.688-.5 1.625-.5.531 0 1.016.187a2.46 2.46 0 0 1 1.422 1.281q.219.454.219 1.016 0 .735-.313 1.375a3.6 3.6 0 0 1-.828 1.109 4.4 4.4 0 0 1-1.188.766 4 4 0 0 1-1.375.313q.063.453.36.656.312.203.734.203.313 0 .61-.156.296-.156.578-.344a7 7 0 0 1 .547-.359 1.14 1.14 0 0 1 .562-.157.87.87 0 0 1 .563.204q.25.203.25.531m-2.532-3.828a.94.94 0 0 0-.109-.422.36.36 0 0 0-.344-.219.9.9 0 0 0-.578.188 1.4 1.4 0 0 0-.391.453 2.6 2.6 0 0 0-.25.578 3 3 0 0 0-.093.578q.218-.047.515-.125.313-.078.578-.203.282-.141.469-.344a.66.66 0 0 0 .203-.484m1.391-3.844q0 .124-.047.156-.047.031-.156.031-.188 0-.422-.093a4 4 0 0 1-.453-.235 10 10 0 0 1-.438-.297 6 6 0 0 1-.343-.281l-.375.297a5 5 0 0 1-.438.328 5 5 0 0 1-.469.25 1.2 1.2 0 0 1-.437.094.4.4 0 0 1-.156-.031q-.063-.031-.063-.157 0-.234.203-.593.203-.36.5-.688t.625-.562q.329-.235.578-.235.25 0 .578.235.328.218.61.531.297.312.5.656t.203.594m6.203 10.891q-.266 0-.422-.25a1.8 1.8 0 0 1-.234-.547 4.4 4.4 0 0 1-.11-.625 9 9 0 0 1 .032-1.438l.125-.937q.077-.469.125-.938.062-.469.062-.937a6 6 0 0 0-.015-.407 1.7 1.7 0 0 0-.079-.406.66.66 0 0 0-.171-.328.45.45 0 0 0-.329-.125q-.14 0-.312.234a3.4 3.4 0 0 0-.328.516q-.14.281-.25.578a1.5 1.5 0 0 0-.094.422v.703q.016.344.016.703v.906q-.016.282-.047.579-.031.296-.094.578-.047.281-.141.547a1.7 1.7 0 0 1-.25.453 1.2 1.2 0 0 1-.343.312.9.9 0 0 1-.485.125.7.7 0 0 1-.515-.203 1.5 1.5 0 0 1-.328-.515 3.6 3.6 0 0 1-.188-.719 26 26 0 0 1-.078-.781 17 17 0 0 1-.016-.704q.016-.327.016-.515v-.735q0-.593-.031-1.172-.016-.577-.016-1.156v-.797q.015-.484.125-.937.11-.469.359-.797.25-.328.735-.328.219 0 .39.141t.297.343q.141.203.219.438.094.234.141.406.156-.219.359-.422a2.8 2.8 0 0 1 .484-.359q.266-.157.594-.25.328-.094.75-.094.797 0 1.235.391.452.374.656.953.219.563.265 1.218.048.657.047 1.188 0 .266-.047.797-.047.516-.156 1.156-.094.625-.265 1.297-.172.657-.407 1.203a3 3 0 0 1-.562.891q-.313.344-.719.344m8.828-6.438q0 .078-.015.172a1 1 0 0 1-.047.156q-.141.36-.438.61a1.1 1.1 0 0 1-.703.234q-.609 0-.828-.61a.5.5 0 0 1-.031-.171q0-.11-.016-.219v-.453a.9.9 0 0 0-.109-.344q-.078-.125-.266-.125-.265 0-.516.344a3.8 3.8 0 0 0-.421.797 7 7 0 0 0-.282.937 3.7 3.7 0 0 0-.109.781q0 .235.031.579.032.328.125.64.094.313.25.547a.53.53 0 0 0 .438.219.8.8 0 0 0 .484-.156q.234-.172.453-.391.203-.187.438-.391a.87.87 0 0 1 .562-.203q.391 0 .61.281a.98.98 0 0 1 .234.641q0 .53-.281 1a3.2 3.2 0 0 1-.703.797q-.423.328-.938.516a2.7 2.7 0 0 1-.984.203q-.844 0-1.438-.422a3.3 3.3 0 0 1-.937-1.063 5 5 0 0 1-.516-1.422 7.3 7.3 0 0 1-.156-1.453q0-.797.219-1.719a6.4 6.4 0 0 1 .671-1.734 4.3 4.3 0 0 1 1.157-1.328q.719-.531 1.703-.531.609 0 1.047.265.453.266.734.704.297.421.438.953.156.531.156 1.047v.156a1 1 0 0 1-.016.156m3.453-4.906a.64.64 0 0 1-.125.39 1.2 1.2 0 0 1-.297.313q-.187.125-.406.203a1.5 1.5 0 0 1-.406.062.96.96 0 0 1-.547-.156q-.234-.156-.234-.484 0-.234.109-.406a1 1 0 0 1 .297-.297q.172-.126.391-.188a1.6 1.6 0 0 1 .421-.062q.297 0 .547.14t.25.485m.125 5.312v.469q0 .234-.015.453-.016.266-.016.719 0 .438-.031.953-.032.516-.11 1.047a4.4 4.4 0 0 1-.218.969 2 2 0 0 1-.422.718.9.9 0 0 1-.641.282.58.58 0 0 1-.5-.235 2.2 2.2 0 0 1-.344-.64 5.4 5.4 0 0 1-.187-.891 17 17 0 0 1-.094-.953 13 13 0 0 1-.031-.859v-1.282q0-.468.031-1 .031-.53.11-1.078.093-.546.25-1 .171-.453.437-.734a.88.88 0 0 1 .672-.282q.422 0 .641.422.218.423.328.985.109.563.125 1.125.015.546.015.812m7.75 3.391q0 .28-.031.734-.015.453-.125.891a2.1 2.1 0 0 1-.344.734q-.234.313-.656.313-.577 0-.891-.375-.312-.375-.296-.938a3.9 3.9 0 0 1-1.141.688q-.625.25-1.281.25-.453 0-.86-.219a2.7 2.7 0 0 1-.718-.563 2.8 2.8 0 0 1-.5-.765 2.2 2.2 0 0 1-.188-.859q0-.75.453-1.313a4.3 4.3 0 0 1 1.141-.953 6.5 6.5 0 0 1 1.422-.641q.765-.234 1.359-.312v-.141a.6.6 0 0 0 .016-.14q0-.485-.266-.782-.265-.297-.75-.297-.39 0-.672.141a3.3 3.3 0 0 0-.531.297q-.25.156-.5.297a1.25 1.25 0 0 1-.563.125.87.87 0 0 1-.593-.219.73.73 0 0 1-.235-.562q0-.516.297-.938.312-.422.766-.703a4 4 0 0 1 1-.453 3.4 3.4 0 0 1 1-.172q.421 0 .844.109.421.094.796.313.375.203.672.515.313.297.5.703.282.579.453 1.235.173.64.266 1.328.094.672.125 1.359.031.672.031 1.313m-2.5-.5-.047-1.063h-.062a.14.14 0 0 0-.063-.015q-.203 0-.515.109a2.3 2.3 0 0 0-.578.281 2.3 2.3 0 0 0-.485.391.7.7 0 0 0-.187.453q0 .219.156.297a.8.8 0 0 0 .359.078q.344 0 .735-.172.39-.188.687-.359m13.844.5q0 .28-.031.734a4.3 4.3 0 0 1-.125.891 2.1 2.1 0 0 1-.344.734q-.234.313-.656.313-.579 0-.891-.375t-.297-.938a3.8 3.8 0 0 1-1.14.688q-.625.25-1.282.25-.453 0-.859-.219a2.7 2.7 0 0 1-.719-.563 2.9 2.9 0 0 1-.5-.765 2.2 2.2 0 0 1-.187-.859q0-.75.453-1.313a4.2 4.2 0 0 1 1.141-.953 6.5 6.5 0 0 1 1.421-.641q.766-.234 1.36-.312v-.141a.6.6 0 0 0 .015-.14q0-.485-.265-.782-.266-.297-.75-.297-.392 0-.672.141a3 3 0 0 0-.531.297q-.25.156-.5.297a1.25 1.25 0 0 1-.563.125.87.87 0 0 1-.594-.219.74.74 0 0 1-.234-.562q0-.516.297-.938.312-.422.766-.703a4 4 0 0 1 1-.453 3.3 3.3 0 0 1 1-.172q.422 0 .843.109.423.094.797.313.375.203.672.515.312.297.5.703.282.579.453 1.235.172.64.266 1.328.093.672.125 1.359.031.672.031 1.313m-2.5-.5-.047-1.063h-.062a.14.14 0 0 0-.063-.015q-.203 0-.515.109a2.3 2.3 0 0 0-.579.281 2.3 2.3 0 0 0-.484.391.7.7 0 0 0-.187.453q0 .219.156.297a.8.8 0 0 0 .359.078q.344 0 .735-.172.39-.188.687-.359m.359-7.703a.24.24 0 0 1-.109.203.4.4 0 0 1-.219.062q-.28 0-.593-.171a12 12 0 0 0-.516-.313q-.14-.094-.313-.203a3 3 0 0 1-.312-.25 2 2 0 0 1-.25-.297.7.7 0 0 1-.094-.344q0-.234.172-.406a.53.53 0 0 1 .406-.187q.235 0 .547.218.312.203.594.5.297.297.484.625.203.329.203.563m9.422-.5a.64.64 0 0 1-.125.39 1.2 1.2 0 0 1-.297.313q-.187.125-.406.203a1.5 1.5 0 0 1-.406.062.96.96 0 0 1-.547-.156q-.234-.156-.234-.484 0-.234.109-.406a1 1 0 0 1 .297-.297q.171-.126.391-.188a1.6 1.6 0 0 1 .421-.062q.297 0 .547.14t.25.485m.125 5.312v.469q0 .234-.015.453-.016.266-.016.719 0 .438-.031.953-.032.516-.11 1.047a4.4 4.4 0 0 1-.218.969 2 2 0 0 1-.422.718.9.9 0 0 1-.641.282.58.58 0 0 1-.5-.235 2.2 2.2 0 0 1-.344-.64 5.4 5.4 0 0 1-.187-.891 17 17 0 0 1-.094-.953 13 13 0 0 1-.031-.859v-1.282q0-.468.031-1 .031-.53.11-1.078.093-.546.25-1 .171-.453.437-.734a.88.88 0 0 1 .672-.282q.422 0 .641.422.218.423.328.985.109.563.125 1.125.015.546.015.812m5.547 6.032q-.266 0-.422-.25a1.8 1.8 0 0 1-.234-.547 4 4 0 0 1-.109-.625 11 11 0 0 1-.016-.5q0-.469.047-.938l.125-.937q.078-.469.125-.938.062-.469.062-.937a6 6 0 0 0-.015-.407 1.7 1.7 0 0 0-.078-.406.67.67 0 0 0-.172-.328.45.45 0 0 0-.328-.125q-.14 0-.313.234a3.4 3.4 0 0 0-.328.516q-.14.281-.25.578a1.5 1.5 0 0 0-.094.422v.703q.016.344.016.703v.906q-.016.282-.047.579-.031.296-.094.578-.047.281-.14.547a1.8 1.8 0 0 1-.25.453 1.2 1.2 0 0 1-.344.312.9.9 0 0 1-.485.125.7.7 0 0 1-.515-.203 1.5 1.5 0 0 1-.328-.515 3.6 3.6 0 0 1-.188-.719 26 26 0 0 1-.078-.781q-.016-.391-.016-.704.016-.327.016-.515v-.735q0-.593-.031-1.172-.016-.577-.016-1.156v-.797q.016-.484.125-.937a2.1 2.1 0 0 1 .36-.797q.25-.328.734-.328a.6.6 0 0 1 .391.141q.171.14.296.343.141.203.219.438.095.234.141.406.156-.219.359-.422a2.8 2.8 0 0 1 .485-.359 2.54 2.54 0 0 1 1.343-.344q.798 0 1.235.391.452.374.656.953.219.563.266 1.218.046.657.046 1.188 0 .266-.046.797-.048.516-.157 1.156-.094.625-.265 1.297-.172.657-.407 1.203a3 3 0 0 1-.562.891q-.312.344-.719.344m7.61-9.032q0 .453-.313.672a6 6 0 0 1-.672.422q-.375.188-.687.453-.297.266-.297.797 0 .282.125.484.14.204.328.375.203.157.437.329.235.171.422.39.204.219.328.531.141.313.141.766 0 .656-.344 1.297a4.2 4.2 0 0 1-.859 1.125 4.3 4.3 0 0 1-1.172.781q-.656.297-1.297.297-.266 0-.531-.047a1.5 1.5 0 0 1-.484-.14 1.04 1.04 0 0 1-.344-.297.9.9 0 0 1-.141-.516q0-.438.172-.672a1.2 1.2 0 0 1 .438-.391q.265-.14.562-.218.312-.078.578-.188.266-.124.438-.312.172-.187.172-.532 0-.327-.266-.671-.25-.36-.563-.75a8 8 0 0 1-.578-.86 2.04 2.04 0 0 1-.25-1q0-.672.266-1.234.28-.579.734-1 .47-.422 1.063-.656.594-.25 1.25-.25.25 0 .484.047.25.046.438.171a.8.8 0 0 1 .297.313.86.86 0 0 1 .125.484m7.468 4.125q0 .86-.172 1.703a4.7 4.7 0 0 1-.578 1.516 3.1 3.1 0 0 1-1.093 1.062q-.672.407-1.688.407-1 0-1.672-.391a3.2 3.2 0 0 1-1.078-1.062 4.8 4.8 0 0 1-.562-1.485 9 9 0 0 1-.157-1.687q0-.937.219-1.86.047-.249.172-.687.14-.453.344-.875.218-.438.484-.75.282-.312.609-.313.313 0 .5.172t.297.438q.11.25.141.547.031.28.031.515 0 .36-.062.703-.047.345-.11.688l-.125.937a9.5 9.5 0 0 0-.031 1.469q.032.282.125.547.094.266.266.453.172.172.484.172.406 0 .641-.219.25-.219.359-.547.125-.328.156-.703.032-.375.032-.687 0-.688-.094-1.344-.094-.672-.172-1.359a1.5 1.5 0 0 1 .062-.688 1.5 1.5 0 0 1 .219-.422q.14-.187.344-.297a.85.85 0 0 1 .453-.125q.343 0 .609.25.265.235.438.625.187.375.297.86.125.468.187.937a6.5 6.5 0 0 1 .094.86q.031.405.031.64m3.875-5q0 .844-.078 1.703a23 23 0 0 0-.062 1.704q0 1.109.062 2.218.078 1.11.078 2.235 0 .281-.031.64a2.2 2.2 0 0 1-.156.641 1.2 1.2 0 0 1-.344.5q-.235.203-.625.203-.375 0-.656-.375a3.3 3.3 0 0 1-.453-.922 12 12 0 0 1-.297-1.281 23 23 0 0 1-.172-1.359q-.047-.672-.078-1.219a31 31 0 0 1-.016-.828q0-.297.016-.86.031-.562.109-1.219.078-.656.203-1.328.141-.687.36-1.234.218-.562.515-.906.313-.36.735-.36.344 0 .515.235.188.219.266.547.078.312.094.672.015.344.015.593m3.766-1.437a.65.65 0 0 1-.125.39 1.2 1.2 0 0 1-.297.313q-.187.125-.406.203a1.5 1.5 0 0 1-.406.062.96.96 0 0 1-.547-.156q-.235-.156-.235-.484 0-.234.11-.406a1 1 0 0 1 .297-.297q.171-.126.39-.188.22-.062.422-.062.297 0 .547.14t.25.485m.125 5.312v.469q0 .234-.016.453-.015.266-.015.719 0 .438-.032.953a12 12 0 0 1-.109 1.047 4.5 4.5 0 0 1-.219.969 2 2 0 0 1-.422.718.9.9 0 0 1-.64.282.58.58 0 0 1-.5-.235 2.2 2.2 0 0 1-.344-.64 5.3 5.3 0 0 1-.187-.891 17 17 0 0 1-.094-.953 13 13 0 0 1-.031-.859v-1.282q0-.468.031-1 .031-.53.109-1.078.094-.546.25-1 .173-.453.438-.734a.88.88 0 0 1 .672-.282q.421 0 .64.422.219.423.328.985t.125 1.125q.016.546.016.812m5.547 6.032q-.266 0-.422-.25a1.8 1.8 0 0 1-.234-.547 4 4 0 0 1-.11-.625 9.5 9.5 0 0 1 .031-1.438l.125-.937q.078-.469.125-.938.063-.469.063-.937 0-.188-.016-.407a1.6 1.6 0 0 0-.078-.406.66.66 0 0 0-.172-.328.44.44 0 0 0-.328-.125q-.141 0-.312.234a3.4 3.4 0 0 0-.328.516q-.142.281-.25.578a1.5 1.5 0 0 0-.094.422v.703q.015.344.015.703v.906q-.016.282-.046.579-.032.296-.094.578-.046.281-.141.547a1.8 1.8 0 0 1-.25.453 1.2 1.2 0 0 1-.344.312.9.9 0 0 1-.484.125.7.7 0 0 1-.516-.203 1.5 1.5 0 0 1-.328-.515 3.6 3.6 0 0 1-.187-.719 23 23 0 0 1-.078-.781 17 17 0 0 1-.016-.704q.016-.327.016-.515v-.735q0-.593-.032-1.172a45 45 0 0 1-.015-1.156v-.797q.015-.484.125-.937.109-.469.359-.797t.735-.328q.218 0 .39.141t.297.343q.141.203.219.438.093.234.14.406.157-.219.36-.422a2.8 2.8 0 0 1 .484-.359q.266-.157.594-.25.328-.094.75-.094.797 0 1.234.391.453.374.657.953.218.563.265 1.218.047.657.047 1.188 0 .266-.047.797-.047.516-.156 1.156a13 13 0 0 1-.266 1.297 8.5 8.5 0 0 1-.406 1.203 3 3 0 0 1-.562.891q-.313.344-.719.344m9.672-2.641q0 .28-.032.734-.015.453-.125.891a2.1 2.1 0 0 1-.343.734q-.235.313-.657.313-.578 0-.89-.375-.314-.375-.297-.938a3.8 3.8 0 0 1-1.141.688q-.624.25-1.281.25-.453 0-.859-.219a2.7 2.7 0 0 1-.719-.563 2.9 2.9 0 0 1-.5-.765 2.2 2.2 0 0 1-.188-.859q0-.75.454-1.313a4.2 4.2 0 0 1 1.14-.953 6.5 6.5 0 0 1 1.422-.641q.766-.234 1.359-.312v-.141a.6.6 0 0 0 .016-.14q0-.485-.266-.782t-.75-.297q-.39 0-.671.141a3.3 3.3 0 0 0-.532.297q-.25.156-.5.297a1.24 1.24 0 0 1-.562.125.87.87 0 0 1-.594-.219.74.74 0 0 1-.234-.562q0-.516.297-.938.312-.422.765-.703a4 4 0 0 1 1-.453 3.4 3.4 0 0 1 1-.172q.422 0 .844.109.422.094.797.313.375.203.672.515.312.297.5.703.28.579.453 1.235.172.64.265 1.328.095.672.125 1.359.032.672.032 1.313m-2.5-.5-.047-1.063h-.063a.14.14 0 0 0-.062-.015q-.204 0-.516.109a2.3 2.3 0 0 0-.578.281 2.3 2.3 0 0 0-.484.391.7.7 0 0 0-.188.453q0 .219.156.297a.8.8 0 0 0 .36.078q.344 0 .734-.172.391-.188.688-.359m6.359-3.844q0 .25-.031.688-.031.421-.094.921a9 9 0 0 1-.187 1 7 7 0 0 1-.266.922 2.4 2.4 0 0 1-.375.672q-.22.25-.5.25-.344 0-.594-.328a3.5 3.5 0 0 1-.406-.859 8.5 8.5 0 0 1-.25-1.172 19 19 0 0 1-.141-1.25 26 26 0 0 1-.062-1.141v-1.515q0-.438.031-.922.047-.485.125-.953.094-.485.266-.875.171-.391.453-.625.281-.25.703-.25.375 0 .609.328.25.312.391.828.156.5.219 1.125.078.625.093 1.234.031.594.016 1.11zm-.297 5.938a.9.9 0 0 1-.125.468q-.125.188-.328.313a1.4 1.4 0 0 1-.437.203 1.8 1.8 0 0 1-.469.063q-.344 0-.656-.188-.313-.172-.313-.562 0-.235.125-.422a1.3 1.3 0 0 1 .344-.344q.203-.141.437-.219a1.6 1.6 0 0 1 .469-.078q.36 0 .656.187.297.172.297.579"/><defs><filter id="a" width="287.521" height="144.285" x="0" y="0" color-interpolation-filters="sRGB" filterUnits="userSpaceOnUse"><feFlood flood-opacity="0" result="BackgroundImageFix"/><feBlend in="SourceGraphic" in2="BackgroundImageFix" result="shape"/><feColorMatrix in="SourceAlpha" result="hardAlpha" values="0 0 0 0 0 0 0 0 0 0 0 0 0 0 0 0 0 0 127 0"/><feOffset dy="4"/><feGaussianBlur stdDeviation="2"/><feComposite in2="hardAlpha" k2="-1" k3="1" operator="arithmetic"/><feColorMatrix values="0 0 0 0 0 0 0 0 0 0 0 0 0 0 0 0 0 0 0.25 0"/><feBlend in2="shape" result="effect1_innerShadow_1138_2106"/></filter></defs></svg>