<svg xmlns="http://www.w3.org/2000/svg" width="187" height="115" fill="none" viewBox="0 0 187 115"><g filter="url(#a)"><path fill="#3dc3ff" fill-rule="evenodd" d="M26.733 73.107C8.819 65.602 1 54.527 1 42.54 1 27.79 16.77 13.22 42.86 6.016 55.514 2.522 70.38 1 87.463 1c52.301 0 100.532 15.048 98.473 41.54 0 13.145-8.926 25.232-27.106 32.448-9.913 3.935-22.453 6.258-38.143 6.973-6.172 13.752-15.205 20.833-30.024 32.039 10.867-13.061 17.526-21.482 19.935-31.803l-.832.002c-37.07 2.352-65.106-1.582-83.033-9.092" clip-rule="evenodd"/></g><path fill="#3dc3ff" d="m26.733 73.107-.387.922zM42.86 6.017l-.267-.965zM185.936 42.54l-.997-.078-.003.078zM158.83 74.988l.369.93zm-38.143 6.973-.046-1a1 1 0 0 0-.867.59zM90.663 114l-.77-.64a1.001 1.001 0 0 0 1.373 1.438zm19.935-31.803.974.228a1 1 0 0 0-.977-1.228zm-.832.002v-1q-.032 0-.063.002zM0 42.539c0 12.527 8.205 23.89 26.346 31.49l.773-1.844C9.433 64.775 2 53.988 2 42.54zM42.594 5.053C29.44 8.684 18.828 14.188 11.484 20.7 4.141 27.21 0 34.79 0 42.54h2c0-7 3.744-14.078 10.81-20.343 7.062-6.261 17.38-11.644 30.316-15.217zM87.464 0c-17.136 0-32.1 1.526-44.87 5.052l.532 1.928C55.664 3.518 70.434 2 87.463 2zm99.469 42.617c.542-6.972-2.242-13.15-7.447-18.445-5.186-5.275-12.8-9.705-22.042-13.27C138.955 3.772 113.691 0 87.464 0v2c26.072 0 51.074 3.753 69.261 10.769 9.096 3.508 16.423 7.808 21.335 12.805 4.894 4.978 7.367 10.615 6.879 16.888zm-27.734 33.3c18.427-7.314 27.737-19.696 27.737-33.377h-2c0 12.608-8.543 24.4-26.475 31.518zm-38.467 7.043c15.757-.718 28.417-3.053 38.467-7.043l-.738-1.859c-9.775 3.88-22.196 6.192-37.82 6.904zm-.958-1.409c-6.053 13.49-14.88 20.433-29.714 31.651l1.206 1.596c14.804-11.195 24.043-18.413 30.333-32.428zM91.431 114.64c10.833-13.019 17.668-21.623 20.141-32.215l-1.948-.455c-2.345 10.048-8.827 18.287-19.73 31.39zm18.335-31.441q.419 0 .835-.002l-.006-2-.829.002zm-83.42-9.17c18.126 7.594 46.335 11.525 83.483 9.168l-.126-1.996c-36.992 2.347-64.855-1.59-82.584-9.016z"/><path fill="#fff" d="M40.645 37.854q0 .26-.137.505-.137.233-.643.547-.505.314-1.12.602-.616.273-1.19.478-.575.192-.848.192-.192 0-.451-.096a3.2 3.2 0 0 1-.998-.533 1.4 1.4 0 0 1-.301-.342q-.054-.095-.11-.383a20 20 0 0 1-.081-.67q-.028-.383-.055-.806l-.055-.82q-.014-.397-.027-.698v-.437q0-.507.027-1.163.041-.655.137-1.312a9 9 0 0 1 .273-1.271q.192-.615.506-1.04.096-.122.383-.26.288-.135.67-.26a14 14 0 0 1 1.709-.41q.423-.081.766-.122.34-.055.52-.055.205 0 .382.096a.8.8 0 0 1 .314.232q.137.15.206.342a.9.9 0 0 1 .081.383.7.7 0 0 1-.054.3 1.3 1.3 0 0 1-.137.274q-.136.177-.574.424a15.5 15.5 0 0 1-1.941.916q-.466.19-.657.273-.054.315-.123.643-.055.315-.082.642.424-.218.957-.41a3 3 0 0 1 1.012-.191q.97 0 .97.957a.85.85 0 0 1-.095.41 1 1 0 0 1-.232.315q-.138.136-.329.246l-.355.191a8 8 0 0 1-.916.41l-.957.328a5 5 0 0 0-.055.246 1 1 0 0 0-.027.246q0 .192.027.383l.055.383q.164-.054.52-.178.367-.123.765-.246.397-.123.766-.205.369-.096.547-.095.205 0 .382.095a.8.8 0 0 1 .301.233q.123.136.191.328a1 1 0 0 1 .083.383m4.498 2.529q-.232 0-.37-.219a1.5 1.5 0 0 1-.205-.479 4 4 0 0 1-.095-.546 8 8 0 0 1 .027-1.258l.11-.82q.067-.41.109-.82.054-.411.054-.821 0-.165-.013-.355a1.4 1.4 0 0 0-.069-.356.6.6 0 0 0-.15-.287.4.4 0 0 0-.287-.11q-.123 0-.273.206-.15.191-.288.45a5 5 0 0 0-.218.507 1.3 1.3 0 0 0-.082.369v.615q.013.3.013.615v.793q-.014.246-.04.506a5 5 0 0 1-.083.506 3 3 0 0 1-.123.478 1.5 1.5 0 0 1-.219.397q-.123.164-.3.273a.8.8 0 0 1-.424.11.6.6 0 0 1-.451-.178 1.3 1.3 0 0 1-.288-.451 3 3 0 0 1-.163-.63 21 21 0 0 1-.069-.683 16 16 0 0 1-.014-.615q.014-.287.014-.451v-.643q0-.52-.027-1.025-.014-.506-.014-1.012v-.697q.014-.424.11-.82.095-.41.314-.698.219-.287.643-.287.19 0 .341.123.15.124.26.301.123.178.192.383.081.205.123.355.135-.19.314-.369.192-.177.424-.314a2.2 2.2 0 0 1 1.176-.301q.696 0 1.08.342.396.328.574.834.191.492.232 1.066t.041 1.04q0 .231-.04.697-.042.45-.137 1.011-.083.547-.233 1.135-.15.575-.355 1.053-.206.479-.492.779-.274.3-.63.3m5.837.11q-.97 0-1.517-.26a1.76 1.76 0 0 1-.807-.711q-.26-.465-.314-1.122a20 20 0 0 1-.014-2.748q.042-.656.123-1.394-.191 0-.3.014h-.178q-.438 0-.752-.192a.64.64 0 0 1-.328-.588q0-.246.191-.437.177-.192.465-.328a3.3 3.3 0 0 1 .615-.22q.342-.08.643-.109 0-.382.054-.847.055-.465.192-.861.15-.411.396-.684a.8.8 0 0 1 .63-.274.58.58 0 0 1 .382.137.9.9 0 0 1 .287.328q.11.192.164.438a2.2 2.2 0 0 1 .055.478q0 .275-.041.56a7 7 0 0 1-.15.712q.232-.027.314-.028a1 1 0 0 1 .15-.013q.233 0 .479.04.26.042.465.138a.95.95 0 0 1 .355.26.53.53 0 0 1 .137.368q0 .247-.205.438a1.7 1.7 0 0 1-.492.328q-.301.136-.643.219a6 6 0 0 1-.643.096q-.081.56-.123 1.038-.026.465-.068.944l-.055.478a8 8 0 0 0 0 .903q.014.233.096.45a1 1 0 0 0 .26.384q.177.15.492.15.191 0 .396-.027.206-.041.41-.041.357 0 .506.246.165.246.165.629a.78.78 0 0 1-.178.506 1.2 1.2 0 0 1-.424.328q-.26.136-.588.205a3 3 0 0 1-.602.068m7.793-2.927q0 .466-.3.916a3.4 3.4 0 0 1-.739.793 4.3 4.3 0 0 1-.943.56 2.5 2.5 0 0 1-.93.206q-.725 0-1.298-.355a3.4 3.4 0 0 1-.944-.93 4.5 4.5 0 0 1-.588-1.23 5 5 0 0 1-.191-1.327q0-.684.191-1.463.192-.78.575-1.435.396-.657.984-1.094.6-.437 1.422-.437.465 0 .888.164a2.15 2.15 0 0 1 1.245 1.12q.19.397.19.89 0 .642-.273 1.203a3.2 3.2 0 0 1-.724.97q-.45.41-1.04.67a3.5 3.5 0 0 1-1.202.273q.054.397.314.575.274.177.643.178.273 0 .533-.137t.506-.301q.246-.177.478-.315.246-.136.492-.136a.76.76 0 0 1 .493.178.57.57 0 0 1 .218.464m-2.214-3.35a.8.8 0 0 0-.096-.368.32.32 0 0 0-.3-.192q-.301 0-.507.164-.204.15-.341.397a2.3 2.3 0 0 0-.22.506q-.068.273-.081.505.191-.04.45-.109.274-.068.507-.178.245-.123.41-.3a.58.58 0 0 0 .178-.424m6.644 6.167q-.233 0-.369-.219a1.5 1.5 0 0 1-.205-.479 4 4 0 0 1-.096-.546 8 8 0 0 1 .027-1.258l.11-.82q.068-.41.11-.82.054-.411.054-.821 0-.165-.014-.355a1.5 1.5 0 0 0-.068-.356.6.6 0 0 0-.15-.287.4.4 0 0 0-.287-.11q-.124 0-.274.206-.15.191-.287.45a5 5 0 0 0-.219.507 1.3 1.3 0 0 0-.082.369v.615q.014.3.014.615v.793q-.015.246-.041.506a5 5 0 0 1-.082.506 3 3 0 0 1-.123.478 1.5 1.5 0 0 1-.219.397q-.123.164-.3.273a.8.8 0 0 1-.425.11.6.6 0 0 1-.45-.178 1.3 1.3 0 0 1-.288-.451 3 3 0 0 1-.164-.63q-.04-.354-.068-.683-.014-.342-.014-.615.014-.287.014-.451v-.643q0-.52-.028-1.025-.013-.506-.013-1.012v-.697q.013-.424.109-.82.096-.41.315-.698.218-.287.642-.287.192 0 .342.123.15.124.26.301.123.178.191.383.082.205.123.355.137-.19.315-.369.19-.177.423-.314a2.23 2.23 0 0 1 1.176-.301q.697 0 1.08.342.397.328.574.834.192.492.233 1.066.04.575.04 1.04 0 .231-.04.697-.041.45-.137 1.011a11 11 0 0 1-.232 1.135q-.151.575-.356 1.053-.204.479-.492.779-.273.3-.629.3m8.545-9.38q0 .999-.082 1.983a29 29 0 0 0-.068 1.983q0 .806.04 1.6.055.792.055 1.599 0 .22-.013.533-.014.3-.096.588a1.14 1.14 0 0 1-.246.492q-.165.205-.479.205a.89.89 0 0 1-.683-.3 1.5 1.5 0 0 1-.328-.698 2.34 2.34 0 0 1-.752.834 1.83 1.83 0 0 1-1.067.342q-.615 0-1.066-.424a3.7 3.7 0 0 1-.738-1.025 6 6 0 0 1-.438-1.258 5.7 5.7 0 0 1-.137-1.135 8.5 8.5 0 0 1 .178-1.668q.11-.45.274-.875.164-.437.41-.779.26-.342.601-.547.355-.205.807-.205.492 0 .943.287.451.288.684.711l.123-2.174q.014-.26.04-.601.03-.355.11-.67.096-.315.287-.533.192-.22.561-.22.397 0 .615.192t.315.492q.11.288.123.63.027.34.027.642m-2.229 6.071q0-.314-.013-.615-.015-.3 0-.615a8 8 0 0 0-.192-.383 1.7 1.7 0 0 0-.273-.396 1.4 1.4 0 0 0-.342-.315.75.75 0 0 0-.41-.123.54.54 0 0 0-.396.15q-.15.15-.22.37a2.2 2.2 0 0 0-.095.45q-.014.247-.014.425 0 .164.028.492.027.314.096.642.081.328.218.575.136.245.37.246a1 1 0 0 0 .355-.069 2 2 0 0 0 .328-.191q.165-.123.3-.26.152-.15.26-.273zm5.387-6.617a.57.57 0 0 1-.11.342q-.095.15-.259.273-.165.11-.355.178a1.3 1.3 0 0 1-.356.055.84.84 0 0 1-.478-.137q-.205-.136-.205-.424 0-.205.095-.355a.9.9 0 0 1 .26-.26q.15-.11.342-.164.19-.055.369-.055a.96.96 0 0 1 .478.123q.22.123.22.424m.11 4.648v.41q0 .206-.014.397-.014.233-.014.629 0 .383-.027.834t-.096.916q-.054.465-.191.848a1.8 1.8 0 0 1-.37.629.78.78 0 0 1-.56.246.5.5 0 0 1-.437-.205 1.9 1.9 0 0 1-.301-.561 4.7 4.7 0 0 1-.164-.78q-.055-.436-.082-.833a11 11 0 0 1-.028-.752v-1.121q0-.41.028-.875.027-.465.096-.944.081-.478.218-.875.15-.396.383-.642a.77.77 0 0 1 .588-.246q.37 0 .56.369.192.369.288.861t.109.985q.014.478.014.71m3.527-.833q0 .218-.027.601-.028.369-.082.807a8 8 0 0 1-.165.875 6 6 0 0 1-.232.806q-.136.356-.328.588a.57.57 0 0 1-.437.219q-.301 0-.52-.287a3 3 0 0 1-.355-.752 7.5 7.5 0 0 1-.22-1.026 16 16 0 0 1-.122-1.093 23 23 0 0 1-.055-.998v-1.327q0-.383.027-.806.042-.424.11-.834.082-.424.232-.766t.397-.547a.9.9 0 0 1 .615-.218q.328 0 .533.287.219.273.342.724.137.438.191.985.069.546.082 1.08.028.52.014.97zm-.26 5.195a.77.77 0 0 1-.11.41.9.9 0 0 1-.286.273 1.2 1.2 0 0 1-.383.178 1.6 1.6 0 0 1-.41.055 1.1 1.1 0 0 1-.575-.164q-.273-.15-.273-.492a.65.65 0 0 1 .11-.37q.123-.177.3-.3.178-.123.383-.192a1.4 1.4 0 0 1 .41-.068q.315 0 .574.164.26.15.26.506m10.35-1.614q0 .26-.137.506-.137.233-.642.547-.506.314-1.122.602-.615.273-1.189.478-.574.192-.848.192-.191 0-.45-.096a3.2 3.2 0 0 1-.999-.533 1.4 1.4 0 0 1-.3-.342q-.056-.095-.11-.383a20 20 0 0 1-.082-.67q-.028-.383-.055-.806l-.055-.82q-.013-.397-.027-.698v-.437q0-.507.027-1.163.041-.655.137-1.312.096-.67.274-1.271.191-.615.505-1.04.096-.122.383-.26.288-.135.67-.26a14 14 0 0 1 1.71-.41q.423-.081.765-.122a4 4 0 0 1 .52-.055q.204 0 .382.096a.8.8 0 0 1 .315.232q.136.15.205.342a.9.9 0 0 1 .082.383.7.7 0 0 1-.055.3 1.3 1.3 0 0 1-.137.274q-.135.177-.574.424a15.5 15.5 0 0 1-1.941.916q-.465.19-.657.273-.054.315-.122.643-.055.315-.083.642.424-.218.958-.41a3 3 0 0 1 1.011-.191q.97 0 .97.957a.85.85 0 0 1-.095.41 1 1 0 0 1-.232.315 1.6 1.6 0 0 1-.328.246l-.356.191a8 8 0 0 1-.916.41l-.957.328a6 6 0 0 0-.055.246 1 1 0 0 0-.027.246q0 .192.027.383l.055.383q.165-.054.52-.178.369-.123.765-.246.397-.123.766-.205.369-.096.547-.095.204 0 .383.095a.8.8 0 0 1 .3.233q.123.136.192.328a1 1 0 0 1 .082.383m8.982-3.103a.8.8 0 0 1-.055.287q-.123.315-.382.533a.96.96 0 0 1-.615.205q-.534 0-.725-.533a.4.4 0 0 1-.027-.15q0-.096-.014-.192v-.396a.8.8 0 0 0-.096-.3q-.068-.11-.232-.11-.233 0-.451.3-.205.288-.37.698-.15.397-.246.82-.095.424-.095.684 0 .204.027.506a3 3 0 0 0 .11.56q.081.273.218.479.15.19.383.191a.7.7 0 0 0 .424-.137q.206-.15.396-.342.178-.164.383-.341a.76.76 0 0 1 .492-.178q.342 0 .533.246a.85.85 0 0 1 .206.56q0 .465-.247.876-.246.396-.615.697-.37.287-.82.451a2.4 2.4 0 0 1-.861.178q-.74 0-1.258-.37a2.9 2.9 0 0 1-.82-.929 4.4 4.4 0 0 1-.452-1.244 6.4 6.4 0 0 1-.137-1.272q0-.697.192-1.504a5.7 5.7 0 0 1 .588-1.517 3.8 3.8 0 0 1 1.011-1.162q.63-.465 1.49-.465.534 0 .917.232.396.232.642.616.26.369.383.834.137.465.137.916v.136a.7.7 0 0 1-.014.137m3.364 5.647q-.698 0-1.217-.37a3.2 3.2 0 0 1-.875-.943 4.5 4.5 0 0 1-.534-1.272 5.7 5.7 0 0 1-.177-1.394q0-.725.177-1.49.178-.78.547-1.408.369-.643.944-1.04.574-.41 1.367-.41.765 0 1.299.424.546.41.875 1.04.328.614.465 1.353.137.738.095 1.394-.041.725-.232 1.463a4.7 4.7 0 0 1-.533 1.326q-.355.588-.903.957-.546.37-1.298.37m.136-6.18q-.205 0-.369.218-.15.219-.26.534-.095.315-.15.67a4 4 0 0 0-.055.601q0 .329.055.711.069.383.178.711.11.315.259.533.165.205.37.205.218 0 .369-.205.164-.205.259-.52.096-.314.137-.683.041-.383.041-.71a4.4 4.4 0 0 0-.219-1.34 1.5 1.5 0 0 0-.259-.52q-.151-.205-.356-.205m11.826 1.271v.711q0 .437-.027.957a10 10 0 0 1-.082 1.053q-.068.519-.219.943a2.2 2.2 0 0 1-.355.698.69.69 0 0 1-.561.273.53.53 0 0 1-.465-.246 2 2 0 0 1-.218-.602 4.4 4.4 0 0 1-.082-.697v-.56q0-.616.041-1.203.04-.588.041-1.204v-.246a2 2 0 0 0-.028-.355 1 1 0 0 0-.095-.315q-.055-.136-.178-.136-.246 0-.397.26-.15.245-.246.587a4.6 4.6 0 0 0-.136.684 12 12 0 0 0-.055.492 8 8 0 0 0-.055.533q-.014.355-.054.78a8 8 0 0 1-.11.874q-.068.438-.191.807a1.9 1.9 0 0 1-.287.588.54.54 0 0 1-.438.233.56.56 0 0 1-.506-.288 2.1 2.1 0 0 1-.259-.67 5.5 5.5 0 0 1-.11-.779q-.014-.397-.014-.615v-.451q.014-.22.014-.451v-.315q0-.219-.014-.478 0-.275-.027-.56a4 4 0 0 0-.055-.52 1.3 1.3 0 0 0-.123-.397q-.081-.15-.191-.15-.178 0-.328.232-.15.22-.26.533a5 5 0 0 0-.178.602 3 3 0 0 0-.054.437v.082q0 .657.082 1.285.082.63.082 1.286 0 .383-.246.71-.246.315-.684.315a.66.66 0 0 1-.519-.232 2 2 0 0 1-.342-.63 5.4 5.4 0 0 1-.219-.833q-.069-.464-.096-.903-.027-.451-.041-.806v-.547q0-.205-.013-.602 0-.396.013-.861.028-.465.082-.943.055-.492.178-.889t.314-.643a.64.64 0 0 1 .52-.26q.355 0 .574.192.233.193.233.574 0 .083-.014.164a1 1 0 0 1-.014.15q.151-.217.369-.437.219-.232.465-.41.26-.192.547-.3.288-.124.574-.124a.85.85 0 0 1 .493.15q.218.15.382.383.165.22.274.479.11.26.15.492.137-.246.328-.492.206-.26.438-.451.232-.192.506-.315.287-.123.588-.123.287 0 .492.205.204.206.355.534.15.314.233.724.082.397.136.793.056.383.069.725.013.328.013.52m3.5 4.909q-.697 0-1.216-.37a3.2 3.2 0 0 1-.875-.943 4.5 4.5 0 0 1-.534-1.272 5.8 5.8 0 0 1-.177-1.394q0-.725.177-1.49.178-.78.547-1.408.37-.643.944-1.04.573-.41 1.367-.41.765 0 1.299.424.546.41.875 1.04.327.614.464 1.353.138.738.096 1.394-.041.725-.232 1.463a4.7 4.7 0 0 1-.533 1.326q-.356.588-.903.957-.546.37-1.299.37m.137-6.18q-.206 0-.369.218-.15.219-.26.534a5 5 0 0 0-.15.67 4 4 0 0 0-.055.601q0 .329.055.711.068.383.178.711.109.315.259.533.165.205.369.205.219 0 .37-.205.164-.205.259-.52.096-.314.137-.683.04-.383.041-.71 0-.302-.055-.657a3.7 3.7 0 0 0-.164-.684 1.5 1.5 0 0 0-.259-.52q-.151-.204-.356-.204m12.715.889a69 69 0 0 1-.779 1.968 19 19 0 0 1-.916 1.914q-.301.547-.67.916a1.2 1.2 0 0 1-.848.356q-.383 0-.752-.383a6 6 0 0 1-.67-.93q-.3-.546-.533-1.094-.219-.56-.328-.888-.11-.369-.246-.793a14 14 0 0 1-.246-.861 11 11 0 0 1-.178-.862 5 5 0 0 1-.068-.82q0-.533.191-.875.192-.342.752-.342.219 0 .396.137.178.123.329.355.15.232.287.547.136.3.259.67.123.355.233.738.11.384.219.739.109.356.218.697.123.328.315.656l.219-.56.259-.67q.15-.356.315-.725.164-.383.355-.738.369-.738.78-1.258.423-.52.834-.52.383 0 .546.233.164.232.164.602 0 .368-.123.833-.122.466-.314.957m3.514 5.29q-.698 0-1.217-.369a3.2 3.2 0 0 1-.875-.943 4.5 4.5 0 0 1-.533-1.272 5.7 5.7 0 0 1-.178-1.394q0-.725.178-1.49.177-.78.547-1.408.369-.643.943-1.04.574-.41 1.367-.41.765 0 1.299.424.546.41.875 1.04.328.614.465 1.353.137.738.095 1.394-.04.725-.232 1.463a4.6 4.6 0 0 1-.533 1.326q-.356.588-.903.957-.546.37-1.298.37m.136-6.18q-.204 0-.369.22-.15.218-.26.533a5 5 0 0 0-.205 1.271q0 .329.055.711.069.383.178.711.109.315.26.533.164.205.369.205.219 0 .369-.205.164-.205.26-.52.095-.314.136-.683.041-.383.041-.71 0-.302-.054-.657a4 4 0 0 0-.164-.684 1.6 1.6 0 0 0-.26-.52q-.15-.204-.356-.204m8.6.534a.7.7 0 0 1-.055.287q-.123.315-.383.533a.96.96 0 0 1-.615.205q-.533 0-.724-.533a.4.4 0 0 1-.028-.15q0-.096-.013-.192v-.396a.8.8 0 0 0-.096-.3q-.068-.11-.233-.11-.232 0-.451.3a3.4 3.4 0 0 0-.369.698q-.15.397-.246.82-.096.424-.096.684 0 .204.028.506.027.287.109.56t.219.479q.15.19.383.191a.7.7 0 0 0 .423-.137q.205-.15.397-.342.177-.164.383-.341a.76.76 0 0 1 .492-.178q.342 0 .533.246a.85.85 0 0 1 .205.56q0 .465-.246.876a2.8 2.8 0 0 1-.615.697q-.37.287-.82.451a2.4 2.4 0 0 1-.862.178q-.738 0-1.258-.37a2.9 2.9 0 0 1-.82-.929 4.4 4.4 0 0 1-.451-1.244 6.4 6.4 0 0 1-.137-1.272q0-.697.192-1.504a5.6 5.6 0 0 1 .588-1.517 3.8 3.8 0 0 1 1.011-1.162q.63-.465 1.491-.465.532 0 .916.232.396.232.642.616.26.369.383.834.137.465.137.916v.136a1 1 0 0 1-.014.137m6.494 2.816q0 .466-.301.916a3.3 3.3 0 0 1-.738.793 4.3 4.3 0 0 1-.943.56 2.5 2.5 0 0 1-.93.206q-.724 0-1.299-.355a3.4 3.4 0 0 1-.943-.93 4.5 4.5 0 0 1-.588-1.23 5 5 0 0 1-.191-1.327q0-.684.191-1.463.192-.78.574-1.435.396-.657.985-1.094.602-.437 1.421-.437.465 0 .889.164.424.15.738.437.315.287.506.684.192.396.192.888 0 .643-.274 1.204a3.2 3.2 0 0 1-.724.97 3.9 3.9 0 0 1-1.04.67 3.5 3.5 0 0 1-1.203.273q.056.397.315.575.273.177.642.178.274 0 .534-.137t.505-.301q.247-.177.479-.315.246-.136.492-.136.274 0 .492.178a.57.57 0 0 1 .219.464m-2.215-3.35a.8.8 0 0 0-.095-.368.32.32 0 0 0-.301-.192.8.8 0 0 0-.506.164q-.206.15-.342.397a2.3 2.3 0 0 0-.219.506q-.068.273-.082.505.191-.04.452-.109a3 3 0 0 0 .505-.178 1.4 1.4 0 0 0 .411-.3.58.58 0 0 0 .177-.424m1.217-3.363q0 .11-.041.137-.04.028-.137.028a1 1 0 0 1-.369-.082 3 3 0 0 1-.396-.206 9 9 0 0 1-.383-.26 5 5 0 0 1-.301-.245l-.328.26q-.178.15-.383.287a5 5 0 0 1-.41.218 1 1 0 0 1-.383.082.4.4 0 0 1-.137-.027q-.054-.027-.054-.137 0-.205.178-.52.177-.314.437-.6.26-.288.547-.493t.506-.205.506.205q.287.19.533.465.26.273.437.574.178.3.178.52m5.551 1.627q0 .397-.274.588-.26.192-.587.37-.329.163-.602.396-.26.232-.26.697 0 .246.11.424.123.178.287.328.178.137.382.287t.37.342q.177.192.287.465.123.273.123.67 0 .574-.301 1.135a3.75 3.75 0 0 1-1.777 1.668q-.574.26-1.135.26-.232 0-.465-.042a1.3 1.3 0 0 1-.424-.123.9.9 0 0 1-.301-.26.8.8 0 0 1-.123-.45q0-.384.151-.588.15-.219.383-.342.232-.123.492-.192.273-.068.506-.164.232-.11.382-.273.151-.165.151-.465 0-.287-.233-.588-.218-.315-.492-.656a7 7 0 0 1-.506-.752 1.8 1.8 0 0 1-.218-.875q0-.588.232-1.08.246-.507.643-.875.41-.37.929-.574a2.8 2.8 0 0 1 1.094-.22q.219 0 .424.042.218.04.383.15a.7.7 0 0 1 .259.274q.11.163.11.423M47.713 52.75a.8.8 0 0 1-.055.287q-.123.315-.383.533a.96.96 0 0 1-.615.205q-.533 0-.724-.533a.4.4 0 0 1-.028-.15q0-.096-.014-.192v-.396a.8.8 0 0 0-.095-.3q-.069-.11-.233-.11-.233 0-.45.3-.206.288-.37.698a6 6 0 0 0-.246.82q-.096.424-.096.684 0 .204.028.506.027.287.109.56.083.273.219.479.15.19.383.191a.7.7 0 0 0 .423-.137q.206-.15.397-.342.177-.164.383-.341a.76.76 0 0 1 .492-.178q.342 0 .533.246.205.246.205.56 0 .465-.246.876a2.8 2.8 0 0 1-.615.697q-.37.287-.82.451-.451.178-.862.178-.738 0-1.258-.37a2.9 2.9 0 0 1-.82-.929 4.4 4.4 0 0 1-.451-1.244 6.4 6.4 0 0 1-.137-1.272q0-.697.192-1.504a5.7 5.7 0 0 1 .588-1.517 3.8 3.8 0 0 1 1.011-1.162q.63-.465 1.49-.465.534 0 .916.232.397.232.643.616.259.369.383.834.137.465.137.916v.136a.7.7 0 0 1-.014.137m6.972 1.709q0 .232-.013.697 0 .451-.041.957a15 15 0 0 1-.082.944q-.055.437-.137.642a1.5 1.5 0 0 1-.287.451.62.62 0 0 1-.478.192q-.466 0-.67-.37a2.5 2.5 0 0 1-.274-.915 8 8 0 0 1-.055-1.19q.014-.642-.013-1.19a3.5 3.5 0 0 0-.15-.915q-.124-.37-.452-.37-.45 0-.697.151a.84.84 0 0 0-.342.37 1.8 1.8 0 0 0-.123.532q-.014.3-.04.63-.03.313-.042.847-.014.532-.123 1.053a2.5 2.5 0 0 1-.37.902q-.245.37-.737.37a.61.61 0 0 1-.493-.233 1.9 1.9 0 0 1-.287-.602 5 5 0 0 1-.164-.82q-.04-.452-.055-.875v-.793q.015-.356.014-.533 0-.274.014-.903.027-.629.096-1.394a36 36 0 0 1 .177-1.6q.11-.82.287-1.49.178-.684.424-1.107.26-.425.602-.41a.5.5 0 0 1 .369.19q.164.179.26.466.11.273.178.601.068.329.095.656.04.315.041.588.014.274.014.424a19 19 0 0 1-.055 1.422 2.4 2.4 0 0 1 .834-.697q.534-.274 1.067-.274.683 0 1.025.383.356.369.506.93.15.546.164 1.176.014.615.014 1.107m6.7 1.107q0 .466-.301.916a3.4 3.4 0 0 1-.738.793 4.3 4.3 0 0 1-.944.56 2.5 2.5 0 0 1-.93.206q-.723 0-1.298-.355a3.4 3.4 0 0 1-.944-.93 4.5 4.5 0 0 1-.587-1.23 5 5 0 0 1-.192-1.327q0-.684.192-1.463.191-.78.574-1.435.396-.657.984-1.094.602-.437 1.422-.437.465 0 .889.164a2.15 2.15 0 0 1 1.244 1.12q.19.397.191.89 0 .642-.273 1.203a3.2 3.2 0 0 1-.725.97q-.45.41-1.039.67a3.5 3.5 0 0 1-1.203.273q.054.397.315.575.273.178.642.178.273 0 .533-.137t.506-.301q.246-.177.479-.315.246-.136.492-.136a.76.76 0 0 1 .492.178.57.57 0 0 1 .219.464m-2.215-3.35a.8.8 0 0 0-.096-.368.32.32 0 0 0-.3-.192q-.302 0-.506.164-.206.15-.342.397a2.3 2.3 0 0 0-.219.506q-.069.273-.082.505.192-.04.451-.109.273-.068.506-.178.245-.123.41-.3a.58.58 0 0 0 .178-.424m8.955 1.122q0 .698-.027 1.394-.014.698-.069 1.395-.04.602-.11 1.285a11 11 0 0 1-.218 1.354q-.15.682-.396 1.299a3.8 3.8 0 0 1-.657 1.107 3 3 0 0 1-.97.766q-.575.286-1.367.287-.37 0-.834-.123a3.7 3.7 0 0 1-.862-.329 2.5 2.5 0 0 1-.683-.546 1.1 1.1 0 0 1-.274-.739q0-.314.219-.588a.76.76 0 0 1 .588-.26q.218 0 .41.069.205.082.397.178.205.095.382.164a1 1 0 0 0 .383.082q.506 0 .848-.26a1.8 1.8 0 0 0 .547-.642q.205-.383.3-.848.11-.452.15-.861a1.45 1.45 0 0 1-.642.437q-.355.11-.752.11-.725 0-1.23-.247a2.3 2.3 0 0 1-.82-.697q-.315-.45-.465-1.04-.15-.587-.15-1.27 0-.424.081-.958.096-.532.274-1.08.177-.546.437-1.066.273-.52.63-.916.354-.397.792-.643.45-.246.984-.246.52 0 .916.301.41.3.479.848.15-.288.397-.56a.76.76 0 0 1 .601-.288q.192 0 .314.191.138.192.206.506.081.3.123.67.04.355.054.711.014.342.014.63zm-2.078.889q0-.205-.069-.534a3 3 0 0 0-.177-.628 1.8 1.8 0 0 0-.287-.52.53.53 0 0 0-.424-.219.82.82 0 0 0-.56.219 2 2 0 0 0-.397.533q-.165.301-.26.656a2.6 2.6 0 0 0-.082.588q0 .178.027.479.028.3.11.588.096.287.246.492t.396.205q.369 0 .643-.178.273-.178.451-.451.191-.273.287-.602t.096-.628m8.86 1.845q0 .246-.028.643-.015.396-.11.78-.094.368-.3.642a.68.68 0 0 1-.575.273q-.506 0-.779-.328t-.26-.82a3.4 3.4 0 0 1-.998.601 3 3 0 0 1-1.12.219q-.398 0-.753-.191a2.4 2.4 0 0 1-.628-.493 2.5 2.5 0 0 1-.438-.67 1.9 1.9 0 0 1-.164-.751q0-.656.396-1.149.41-.492.998-.834a5.7 5.7 0 0 1 1.245-.56 7.5 7.5 0 0 1 1.189-.274v-.123a.5.5 0 0 0 .014-.123q0-.423-.233-.684-.232-.26-.656-.26a1.3 1.3 0 0 0-.588.124q-.246.11-.465.26a11 11 0 0 1-.437.26q-.219.108-.492.109a.76.76 0 0 1-.52-.192.64.64 0 0 1-.205-.492q0-.45.26-.82.273-.369.67-.616.41-.26.875-.396.478-.15.875-.15.369 0 .738.095.369.082.697.274.328.178.588.451.273.26.438.615.246.506.396 1.08.15.56.232 1.162.083.588.11 1.19.027.588.027 1.148m-2.188-.437-.041-.93h-.055a.1.1 0 0 0-.055-.014 1.4 1.4 0 0 0-.45.096 2 2 0 0 0-.507.246q-.246.15-.424.342a.6.6 0 0 0-.164.397q0 .19.137.26a.7.7 0 0 0 .315.068q.3 0 .642-.15.342-.165.602-.315m11.306-2.147v.711q0 .437-.027.957-.014.52-.082 1.053a4.6 4.6 0 0 1-.219.943q-.136.424-.355.698a.69.69 0 0 1-.56.273.53.53 0 0 1-.466-.246 2 2 0 0 1-.218-.602 4.4 4.4 0 0 1-.082-.697v-.56q0-.616.04-1.203.042-.588.042-1.204v-.246q0-.177-.028-.355a1 1 0 0 0-.095-.315q-.055-.136-.178-.136-.246 0-.397.26-.15.245-.246.587t-.136.684a13 13 0 0 0-.055.492 8 8 0 0 0-.055.533q-.013.355-.055.78a8 8 0 0 1-.109.874 5 5 0 0 1-.191.807 1.9 1.9 0 0 1-.287.588.53.53 0 0 1-.438.233.56.56 0 0 1-.506-.288 2.1 2.1 0 0 1-.26-.67 5.5 5.5 0 0 1-.109-.779 19 19 0 0 1-.014-.615v-.451q.014-.22.014-.451v-.315q0-.219-.014-.478 0-.275-.027-.56a4 4 0 0 0-.055-.52 1.3 1.3 0 0 0-.123-.397q-.081-.15-.191-.15-.178 0-.328.232-.15.22-.26.533-.11.3-.178.602a3 3 0 0 0-.054.437v.082q0 .657.082 1.285.082.63.082 1.286 0 .383-.246.71-.246.315-.684.315a.66.66 0 0 1-.52-.232 2 2 0 0 1-.341-.63 5.3 5.3 0 0 1-.219-.833q-.069-.464-.096-.903-.027-.451-.04-.806v-.547q0-.205-.014-.602 0-.396.013-.861.028-.465.082-.943.055-.492.178-.889a2 2 0 0 1 .314-.643.64.64 0 0 1 .52-.26q.355 0 .574.192.233.193.233.574 0 .083-.014.164a1 1 0 0 1-.014.15q.15-.217.37-.437.218-.232.464-.41.26-.192.547-.3.288-.124.574-.124.274 0 .493.15t.382.383q.164.22.274.479.11.26.15.492.136-.246.328-.492.206-.26.438-.451a2.2 2.2 0 0 1 .506-.315 1.5 1.5 0 0 1 .588-.123q.287 0 .492.205.205.206.355.534.15.314.233.724.082.397.136.793.055.383.069.725.013.328.013.52m10.008 2.584q0 .246-.027.643a3.7 3.7 0 0 1-.11.78q-.095.368-.3.642a.68.68 0 0 1-.575.273q-.506 0-.779-.328t-.26-.82a3.4 3.4 0 0 1-.998.601 3 3 0 0 1-1.12.219q-.398 0-.753-.191a2.4 2.4 0 0 1-.629-.493 2.5 2.5 0 0 1-.437-.67 1.9 1.9 0 0 1-.164-.751q0-.656.396-1.149.41-.492.998-.834a5.7 5.7 0 0 1 1.244-.56 7.5 7.5 0 0 1 1.19-.274v-.123a.5.5 0 0 0 .014-.123q0-.423-.233-.684-.232-.26-.656-.26a1.3 1.3 0 0 0-.588.124q-.246.11-.465.26-.219.135-.437.26-.219.108-.492.109a.76.76 0 0 1-.52-.192.64.64 0 0 1-.205-.492q0-.45.26-.82.273-.369.67-.616.41-.26.875-.396.478-.15.875-.15.369 0 .738.095.369.082.697.274.329.178.588.451.273.26.438.615.246.506.396 1.08.15.56.233 1.162.08.588.109 1.19.027.588.027 1.148m-2.187-.437-.041-.93h-.055a.1.1 0 0 0-.055-.014 1.4 1.4 0 0 0-.45.096 2 2 0 0 0-.507.246q-.246.15-.424.342a.6.6 0 0 0-.164.397q0 .19.137.26a.7.7 0 0 0 .315.068q.3 0 .642-.15.341-.165.602-.315m6.193 2.857q-.97 0-1.517-.26a1.76 1.76 0 0 1-.807-.71q-.26-.465-.315-1.122a20 20 0 0 1-.014-2.748q.042-.656.124-1.394-.192 0-.301.014h-.178q-.437 0-.752-.192a.64.64 0 0 1-.328-.588q0-.246.192-.437.177-.192.464-.328a3.3 3.3 0 0 1 .616-.22q.342-.08.642-.109 0-.382.055-.847.054-.465.191-.861.15-.411.397-.684a.8.8 0 0 1 .629-.274.58.58 0 0 1 .382.137.9.9 0 0 1 .288.328q.109.192.164.438a2.2 2.2 0 0 1 .054.478q0 .275-.04.56a7 7 0 0 1-.151.712q.233-.028.314-.028a1 1 0 0 1 .15-.013q.233 0 .48.04.259.042.464.138a.95.95 0 0 1 .356.26.53.53 0 0 1 .136.368q0 .247-.205.438a1.7 1.7 0 0 1-.492.328q-.3.137-.643.219a6 6 0 0 1-.642.096q-.083.56-.123 1.038-.027.465-.069.944l-.054.478a8 8 0 0 0 0 .903q.013.233.096.45a1 1 0 0 0 .26.384q.177.15.492.15.191 0 .396-.027.205-.042.41-.041.356 0 .506.246.165.246.164.629 0 .287-.178.506-.163.205-.424.328-.26.136-.587.205a3 3 0 0 1-.602.068m7.793-2.926q0 .466-.301.916a3.3 3.3 0 0 1-.738.793 4.3 4.3 0 0 1-.943.56 2.5 2.5 0 0 1-.93.206q-.725 0-1.299-.355a3.4 3.4 0 0 1-.943-.93 4.5 4.5 0 0 1-.588-1.23 5 5 0 0 1-.192-1.327q0-.684.192-1.463.191-.78.574-1.435.397-.657.984-1.094.601-.437 1.422-.437.465 0 .889.164.424.15.738.437.315.287.506.684.192.396.192.888 0 .643-.274 1.204a3.2 3.2 0 0 1-.725.97q-.45.41-1.039.67a3.5 3.5 0 0 1-1.203.273q.055.397.315.575.273.178.642.178.274 0 .534-.137t.505-.301a6 6 0 0 1 .479-.315q.246-.136.492-.136a.76.76 0 0 1 .492.178.57.57 0 0 1 .219.464m-2.215-3.35a.8.8 0 0 0-.096-.368.315.315 0 0 0-.3-.192.8.8 0 0 0-.506.164q-.206.15-.342.397a2.3 2.3 0 0 0-.219.506q-.068.273-.082.505.192-.04.451-.109.274-.068.506-.178.246-.123.41-.3a.58.58 0 0 0 .178-.424m.766-4.853q0 .15-.082.301a1.4 1.4 0 0 1-.205.26q-.11.123-.246.232a7 7 0 0 0-.246.178q-.096.069-.219.164-.11.083-.246.164a2 2 0 0 1-.26.123.6.6 0 0 1-.246.055.34.34 0 0 1-.192-.055.24.24 0 0 1-.082-.191q0-.206.151-.492.163-.301.396-.575.232-.286.492-.478.26-.205.479-.205.191 0 .342.164.164.15.164.355m13.59 6.125v.711q0 .437-.028.957a10 10 0 0 1-.082 1.053q-.068.519-.218.943a2.2 2.2 0 0 1-.356.698.69.69 0 0 1-.56.273.53.53 0 0 1-.465-.246 1.9 1.9 0 0 1-.219-.602 4.4 4.4 0 0 1-.082-.697v-.56q0-.616.041-1.203.04-.588.041-1.204v-.246q0-.177-.027-.355a1.1 1.1 0 0 0-.096-.315q-.055-.136-.178-.136-.246 0-.396.26-.152.245-.246.587-.096.342-.137.684-.041.329-.055.492a8 8 0 0 0-.055.533q-.013.355-.054.78a8 8 0 0 1-.11.874q-.068.438-.191.807a1.9 1.9 0 0 1-.287.588.53.53 0 0 1-.438.233.56.56 0 0 1-.505-.288 2.1 2.1 0 0 1-.26-.67 6 6 0 0 1-.11-.779q-.013-.397-.013-.615v-.451q.013-.22.013-.451v-.315a9 9 0 0 0-.013-.478q0-.275-.028-.56a4 4 0 0 0-.054-.52 1.3 1.3 0 0 0-.123-.397q-.083-.15-.192-.15-.177 0-.328.232-.15.22-.26.533-.11.3-.177.602-.055.3-.055.437v.082q0 .657.082 1.285.082.63.082 1.286 0 .383-.246.71-.246.315-.684.315a.66.66 0 0 1-.519-.232 2 2 0 0 1-.342-.63 5.4 5.4 0 0 1-.219-.833q-.068-.464-.095-.903-.028-.451-.041-.806v-.547q0-.205-.014-.602 0-.396.014-.861.027-.465.082-.943.054-.492.177-.889t.315-.643a.63.63 0 0 1 .519-.26q.356 0 .574.192.233.193.233.574 0 .083-.014.164a1 1 0 0 1-.013.15q.15-.217.369-.437.218-.232.465-.41.26-.192.546-.3a1.45 1.45 0 0 1 .575-.124.85.85 0 0 1 .492.15q.218.15.383.383.163.22.273.479.11.26.15.492.137-.246.329-.492.204-.26.437-.451.233-.192.506-.315.287-.123.588-.123.287 0 .492.205.205.206.355.534.151.314.233.724.082.397.137.793.054.383.068.725.014.328.014.52m3.158-5.031a.57.57 0 0 1-.11.342q-.095.15-.259.273-.164.11-.356.178a1.3 1.3 0 0 1-.355.055.84.84 0 0 1-.479-.137q-.205-.137-.205-.424 0-.205.096-.355a.9.9 0 0 1 .26-.26q.15-.11.341-.164a1.4 1.4 0 0 1 .37-.055q.26 0 .478.123.219.123.219.424m.109 4.648v.41q0 .206-.013.397-.014.233-.014.629 0 .383-.027.834-.029.45-.096.916-.055.465-.192.848a1.8 1.8 0 0 1-.369.629.78.78 0 0 1-.56.246.51.51 0 0 1-.438-.205 1.9 1.9 0 0 1-.301-.561 5 5 0 0 1-.164-.78q-.054-.436-.082-.833a12 12 0 0 1-.027-.752v-1.121q0-.41.027-.875.029-.465.096-.944.083-.478.219-.875.15-.396.383-.642a.77.77 0 0 1 .588-.246q.369 0 .56.369t.287.861.11.985q.013.478.013.71m9.27.383v.711q0 .437-.028.957a10 10 0 0 1-.082 1.053q-.068.519-.218.943a2.2 2.2 0 0 1-.356.698.69.69 0 0 1-.56.273.53.53 0 0 1-.465-.246 2 2 0 0 1-.219-.602 4.4 4.4 0 0 1-.082-.697v-.56q0-.616.041-1.203.04-.588.041-1.204v-.246q0-.177-.027-.355a1 1 0 0 0-.096-.315q-.055-.136-.178-.136-.246 0-.396.26-.15.245-.246.587t-.137.684q-.041.329-.055.492a8 8 0 0 0-.054.533q-.015.355-.055.78a8 8 0 0 1-.109.874q-.069.438-.192.807a1.9 1.9 0 0 1-.287.588.53.53 0 0 1-.438.233.56.56 0 0 1-.505-.288 2.1 2.1 0 0 1-.26-.67 5.5 5.5 0 0 1-.109-.779q-.014-.397-.014-.615v-.451q.014-.22.014-.451v-.315q0-.219-.014-.478 0-.275-.028-.56a4 4 0 0 0-.054-.52 1.3 1.3 0 0 0-.123-.397q-.083-.15-.192-.15-.177 0-.328.232-.15.22-.26.533-.109.3-.177.602-.055.3-.055.437v.082q0 .657.082 1.285.082.63.082 1.286 0 .383-.246.71-.246.315-.684.315a.66.66 0 0 1-.519-.232 2 2 0 0 1-.342-.63 5.4 5.4 0 0 1-.219-.833q-.068-.464-.095-.903-.028-.451-.041-.806v-.547q0-.205-.014-.602 0-.396.014-.861.027-.465.082-.943.054-.492.177-.889t.315-.643a.64.64 0 0 1 .519-.26q.356 0 .575.192.232.193.232.574 0 .083-.014.164a1 1 0 0 1-.013.15q.15-.217.369-.437.219-.232.465-.41.26-.192.547-.3.286-.124.574-.124a.85.85 0 0 1 .492.15q.218.15.383.383.163.22.273.479.11.26.151.492.136-.246.328-.492.204-.26.437-.451.233-.192.506-.315.286-.123.588-.123.286 0 .492.205.205.206.356.534.15.314.232.724.082.397.137.793.054.383.068.725.014.328.014.52m7.041-2.843q0 .437-.233.82a3.3 3.3 0 0 1-.56.697q-.328.315-.738.56a5.6 5.6 0 0 1-.739.37 11 11 0 0 1 .069 1.873q0 .286-.082.547a.95.95 0 0 1-.247.423q-.163.178-.478.178-.548 0-.738-.547a3 3 0 0 1-.11-.547 18 18 0 0 1-.068-.724 21 21 0 0 1-.014-.738v-.588q0-.192.014-.451a.9.9 0 0 1 .137-.424q.123-.178.41-.342.287-.178.588-.37.314-.19.547-.423a.75.75 0 0 0 .232-.547.84.84 0 0 0-.109-.424 1 1 0 0 0-.287-.314 1.1 1.1 0 0 0-.383-.205 1.1 1.1 0 0 0-.424-.082q-.52 0-.82.178a2.5 2.5 0 0 0-.52.369l-.396.369a.66.66 0 0 1-.465.164.9.9 0 0 1-.602-.233.73.73 0 0 1-.26-.56q0-.534.315-.902.314-.383.779-.602a3.7 3.7 0 0 1 .985-.328 4.6 4.6 0 0 1 .929-.11q.547 0 1.121.246.588.233 1.053.63.479.396.779.93.315.532.315 1.107m-2.024 6.644a.64.64 0 0 1-.123.396.9.9 0 0 1-.287.274 1.2 1.2 0 0 1-.383.164 1.5 1.5 0 0 1-.396.055q-.315 0-.588-.15-.26-.15-.26-.493 0-.219.11-.383.123-.177.3-.3.178-.123.383-.178.22-.069.41-.069.315 0 .575.165.26.163.259.52"/><defs><filter id="a" width="187" height="119" x="0" y="0" color-interpolation-filters="sRGB" filterUnits="userSpaceOnUse"><feFlood flood-opacity="0" result="BackgroundImageFix"/><feBlend in="SourceGraphic" in2="BackgroundImageFix" result="shape"/><feColorMatrix in="SourceAlpha" result="hardAlpha" values="0 0 0 0 0 0 0 0 0 0 0 0 0 0 0 0 0 0 127 0"/><feOffset dy="4"/><feGaussianBlur stdDeviation="2"/><feComposite in2="hardAlpha" k2="-1" k3="1" operator="arithmetic"/><feColorMatrix values="0 0 0 0 0 0 0 0 0 0 0 0 0 0 0 0 0 0 0.25 0"/><feBlend in2="shape" result="effect1_innerShadow_880_332"/></filter></defs></svg>