<svg width="187" height="115" viewBox="0 0 187 115" fill="none" xmlns="http://www.w3.org/2000/svg">
<g filter="url(#filter0_i_871_286)">
<path fill-rule="evenodd" clip-rule="evenodd" d="M26.7328 73.1069C8.81906 65.6024 0.999969 54.527 0.999969 42.5399C0.999969 27.7907 16.7706 13.2204 42.8597 6.01618C55.5137 2.52191 70.3811 1 87.4632 1C139.764 1 187.995 16.0484 185.936 42.5399C185.936 55.6846 177.01 67.7719 158.83 74.9879C148.917 78.9225 136.377 81.2463 120.687 81.9608C114.515 95.7126 105.482 102.794 90.6626 114C101.53 100.939 108.189 92.5175 110.598 82.1974C110.322 82.1983 110.044 82.1987 109.766 82.1987C72.6962 84.5509 44.6601 80.6171 26.7328 73.1069Z" fill="#3DC3FF"/>
</g>
<path d="M26.7328 73.1069L26.3464 74.0292H26.3464L26.7328 73.1069ZM42.8597 6.01618L42.5935 5.05226L42.8597 6.01618ZM185.936 42.5399L184.939 42.4624C184.937 42.4882 184.936 42.514 184.936 42.5399H185.936ZM158.83 74.9879L159.199 75.9174L158.83 74.9879ZM120.687 81.9608L120.641 80.9618C120.264 80.979 119.929 81.207 119.774 81.5513L120.687 81.9608ZM90.6626 114L89.8939 113.36C89.569 113.751 89.5885 114.323 89.9392 114.691C90.29 115.058 90.8606 115.104 91.2658 114.798L90.6626 114ZM110.598 82.1974L111.572 82.4248C111.642 82.127 111.571 81.8139 111.381 81.5747C111.19 81.3354 110.901 81.1965 110.595 81.1974L110.598 82.1974ZM109.766 82.1987V81.1987C109.745 81.1987 109.724 81.1994 109.703 81.2007L109.766 82.1987ZM-3.05176e-05 42.5399C-3.05176e-05 55.0658 8.20468 66.4292 26.3464 74.0292L27.1192 72.1846C9.43345 64.7756 1.99997 53.9882 1.99997 42.5399H-3.05176e-05ZM42.5935 5.05226C29.4413 8.68411 18.8281 14.1884 11.483 20.7004C4.1418 27.209 -3.05176e-05 34.7907 -3.05176e-05 42.5399H1.99997C1.99997 35.5399 5.74347 28.4619 12.8098 22.197C19.8723 15.9355 30.189 10.5525 43.1259 6.98011L42.5935 5.05226ZM87.4632 0C70.3283 0 55.3639 1.52585 42.5935 5.05226L43.1259 6.98011C55.6635 3.51796 70.434 2 87.4632 2V0ZM186.933 42.6174C187.475 35.645 184.691 29.4664 179.486 24.1721C174.3 18.8968 166.686 14.4675 157.444 10.9027C138.955 3.77087 113.691 0 87.4632 0V2C113.536 2 138.538 5.75335 156.725 12.7686C165.821 16.2773 173.148 20.5773 178.06 25.5743C182.954 30.5523 185.427 36.189 184.939 42.4624L186.933 42.6174ZM159.199 75.9174C177.626 68.603 186.936 56.221 186.936 42.5399H184.936C184.936 55.1481 176.393 66.9408 158.461 74.0585L159.199 75.9174ZM120.732 82.9597C136.489 82.2423 149.149 79.9067 159.199 75.9174L158.461 74.0585C148.686 77.9383 136.265 80.2504 120.641 80.9618L120.732 82.9597ZM119.774 81.5513C113.72 95.0402 104.894 101.984 90.0594 113.202L91.2658 114.798C106.07 103.603 115.309 96.385 121.599 82.3702L119.774 81.5513ZM91.4313 114.64C102.264 101.621 109.099 93.0171 111.572 82.4248L109.624 81.9701C107.279 92.0179 100.797 100.257 89.8939 113.36L91.4313 114.64ZM109.766 83.1987C110.045 83.1987 110.324 83.1983 110.601 83.1974L110.595 81.1974C110.32 81.1983 110.043 81.1987 109.766 81.1987V83.1987ZM26.3464 74.0292C44.4721 81.6225 72.6813 85.5539 109.829 83.1967L109.703 81.2007C72.7111 83.5479 44.8481 79.6116 27.1192 72.1846L26.3464 74.0292Z" fill="#3DC3FF"/>
<path d="M42.7344 48.5156C42.099 48.5156 41.5469 48.3542 41.0781 48.0312C40.6094 47.7188 40.2188 47.2969 39.9062 46.7656C39.6042 46.224 39.375 45.599 39.2188 44.8906C39.0729 44.1823 39 43.4375 39 42.6562C39 41.9271 39.0781 41.1875 39.2344 40.4375C39.401 39.6875 39.651 39.0104 39.9844 38.4062C40.3177 37.8021 40.7396 37.3073 41.25 36.9219C41.7604 36.5365 42.3698 36.3438 43.0781 36.3438C43.7656 36.3438 44.3385 36.5312 44.7969 36.9062C45.2656 37.2708 45.6354 37.75 45.9062 38.3438C46.1875 38.9271 46.3854 39.5833 46.5 40.3125C46.625 41.0417 46.6875 41.7708 46.6875 42.5C46.6875 43.3125 46.6042 44.0833 46.4375 44.8125C46.2812 45.5312 46.0365 46.1667 45.7031 46.7188C45.3802 47.2708 44.9688 47.7083 44.4688 48.0312C43.9792 48.3542 43.401 48.5156 42.7344 48.5156ZM42.9219 39.7969C42.724 39.7969 42.5521 39.875 42.4062 40.0312C42.2708 40.1875 42.1562 40.3958 42.0625 40.6562C41.9688 40.9062 41.901 41.1927 41.8594 41.5156C41.8177 41.8281 41.7969 42.1458 41.7969 42.4688C41.7969 42.8333 41.8177 43.1979 41.8594 43.5625C41.9115 43.9271 41.9844 44.2552 42.0781 44.5469C42.1719 44.8385 42.2865 45.0729 42.4219 45.25C42.5677 45.4271 42.7396 45.5156 42.9375 45.5156C43.1667 45.5156 43.349 45.401 43.4844 45.1719C43.6198 44.9427 43.724 44.6667 43.7969 44.3438C43.8802 44.0208 43.9323 43.6875 43.9531 43.3438C43.9844 43 44 42.7135 44 42.4844C44 42.2031 43.9792 41.9062 43.9375 41.5938C43.9062 41.2812 43.849 40.9948 43.7656 40.7344C43.6823 40.4635 43.5729 40.2396 43.4375 40.0625C43.3021 39.8854 43.1302 39.7969 42.9219 39.7969ZM50.1406 37.0938C50.1406 37.2396 50.099 37.3698 50.0156 37.4844C49.9427 37.599 49.8438 37.7031 49.7188 37.7969C49.5938 37.8802 49.4583 37.9479 49.3125 38C49.1667 38.0417 49.0312 38.0625 48.9062 38.0625C48.6979 38.0625 48.5156 38.0104 48.3594 37.9062C48.2031 37.8021 48.125 37.6406 48.125 37.4219C48.125 37.2656 48.1615 37.1302 48.2344 37.0156C48.3177 36.8906 48.4167 36.7917 48.5312 36.7188C48.6458 36.6354 48.776 36.5729 48.9219 36.5312C49.0677 36.4896 49.2083 36.4688 49.3438 36.4688C49.5417 36.4688 49.724 36.5156 49.8906 36.6094C50.0573 36.7031 50.1406 36.8646 50.1406 37.0938ZM50.2656 42.4062C50.2656 42.5521 50.2656 42.7083 50.2656 42.875C50.2656 43.0312 50.2604 43.1823 50.25 43.3281C50.2396 43.5052 50.2344 43.7448 50.2344 44.0469C50.2344 44.3385 50.224 44.6562 50.2031 45C50.1823 45.3438 50.1458 45.6927 50.0938 46.0469C50.0521 46.401 49.9792 46.724 49.875 47.0156C49.7708 47.3073 49.6302 47.5469 49.4531 47.7344C49.2865 47.9115 49.0729 48.0052 48.8125 48.0156C48.6146 48.026 48.4479 47.9479 48.3125 47.7812C48.1771 47.6146 48.0625 47.401 47.9688 47.1406C47.8854 46.8698 47.8229 46.5729 47.7812 46.25C47.7396 45.9167 47.7083 45.599 47.6875 45.2969C47.6667 44.9844 47.6562 44.6979 47.6562 44.4375C47.6562 44.1771 47.6562 43.9844 47.6562 43.8594C47.6562 43.6927 47.6562 43.4583 47.6562 43.1562C47.6562 42.8438 47.6667 42.5104 47.6875 42.1562C47.7083 41.8021 47.7448 41.4427 47.7969 41.0781C47.8594 40.7135 47.9427 40.3802 48.0469 40.0781C48.1615 39.776 48.3073 39.5312 48.4844 39.3438C48.6615 39.1562 48.8854 39.0625 49.1562 39.0625C49.4375 39.0625 49.651 39.2031 49.7969 39.4844C49.9427 39.7656 50.0521 40.0938 50.125 40.4688C50.1979 40.8438 50.2396 41.2188 50.25 41.5938C50.2604 41.9583 50.2656 42.2292 50.2656 42.4062ZM53.625 47.1719C53.625 47.3385 53.5781 47.5521 53.4844 47.8125C53.401 48.0729 53.2917 48.3281 53.1562 48.5781C53.0312 48.8281 52.8854 49.0417 52.7188 49.2188C52.5521 49.3958 52.3906 49.4844 52.2344 49.4844C52.026 49.4844 51.9219 49.3802 51.9219 49.1719C51.9219 49.0469 51.9479 48.9271 52 48.8125C52.0521 48.6979 52.1094 48.5833 52.1719 48.4688C52.2344 48.3646 52.2917 48.2552 52.3438 48.1406C52.3958 48.0365 52.4219 47.9323 52.4219 47.8281C52.2656 47.9323 52.099 47.9844 51.9219 47.9844C51.6823 47.9844 51.4792 47.8906 51.3125 47.7031C51.1458 47.5156 51.0625 47.3073 51.0625 47.0781C51.0625 46.7448 51.1719 46.4792 51.3906 46.2812C51.6094 46.0729 51.8854 45.9688 52.2188 45.9688C52.5938 45.9688 52.9219 46.0677 53.2031 46.2656C53.4844 46.4635 53.625 46.7656 53.625 47.1719ZM65.2812 40.7344C65.1979 41.4948 65.1146 42.25 65.0312 43C64.9479 43.75 64.8906 44.5 64.8594 45.25C64.8073 46.1146 64.7865 46.9323 64.7969 47.7031C64.8073 48.474 64.8125 49.2917 64.8125 50.1562C64.8125 50.3646 64.8073 50.6198 64.7969 50.9219C64.7969 51.224 64.7604 51.5156 64.6875 51.7969C64.6146 52.0781 64.4948 52.3177 64.3281 52.5156C64.1719 52.7135 63.9323 52.8125 63.6094 52.8125C63.4531 52.8125 63.3177 52.7656 63.2031 52.6719C63.099 52.5781 63.0052 52.4531 62.9219 52.2969C62.849 52.151 62.7865 51.9844 62.7344 51.7969C62.6927 51.6094 62.6562 51.4167 62.625 51.2188C62.5729 50.8125 62.5417 50.4062 62.5312 50C62.5312 49.6042 62.5312 49.3125 62.5312 49.125V47.9062V47.0312C62.2917 47.3438 61.9792 47.5833 61.5938 47.75C61.2188 47.9062 60.8438 47.9844 60.4688 47.9844C60 47.9844 59.5938 47.875 59.25 47.6562C58.9167 47.4271 58.6406 47.1406 58.4219 46.7969C58.2031 46.4427 58.0417 46.0573 57.9375 45.6406C57.8333 45.224 57.7812 44.8177 57.7812 44.4219V44.3281C57.7812 43.7865 57.8646 43.2031 58.0312 42.5781C58.1979 41.9427 58.4427 41.3542 58.7656 40.8125C59.099 40.2708 59.5104 39.8229 60 39.4688C60.5 39.1042 61.0781 38.9219 61.7344 38.9219C62.0885 38.9219 62.4115 38.9948 62.7031 39.1406C63.0052 39.2865 63.2188 39.526 63.3438 39.8594C63.4271 39.6198 63.5521 39.4271 63.7188 39.2812C63.8958 39.125 64.1198 39.0469 64.3906 39.0469C64.7344 39.0469 64.974 39.1615 65.1094 39.3906C65.2552 39.6094 65.3281 39.8542 65.3281 40.125C65.3281 40.2396 65.3229 40.3438 65.3125 40.4375C65.3021 40.5312 65.2917 40.6302 65.2812 40.7344ZM61.6875 41.1094C61.4479 41.1094 61.224 41.2083 61.0156 41.4062C60.8073 41.5938 60.625 41.8281 60.4688 42.1094C60.3125 42.3802 60.1875 42.6719 60.0938 42.9844C60.0104 43.2969 59.9688 43.5729 59.9688 43.8125C59.9688 43.9583 59.9792 44.1146 60 44.2812C60.0312 44.4479 60.0729 44.6094 60.125 44.7656C60.1875 44.9115 60.2656 45.0365 60.3594 45.1406C60.4635 45.2344 60.5938 45.2812 60.75 45.2812C60.8854 45.2812 61.0417 45.25 61.2188 45.1875C61.4062 45.1146 61.5885 45.026 61.7656 44.9219C61.9427 44.8073 62.099 44.6823 62.2344 44.5469C62.3698 44.4115 62.4635 44.2812 62.5156 44.1562C62.5469 44.0833 62.5729 43.974 62.5938 43.8281C62.6146 43.6823 62.6302 43.5312 62.6406 43.375C62.6615 43.2083 62.6771 43.0469 62.6875 42.8906C62.6979 42.7344 62.7031 42.6146 62.7031 42.5312C62.7031 42.4062 62.6719 42.2656 62.6094 42.1094C62.5573 41.9427 62.4844 41.7865 62.3906 41.6406C62.2969 41.4844 62.1875 41.3594 62.0625 41.2656C61.9375 41.1615 61.8125 41.1094 61.6875 41.1094ZM72.875 43.5312C72.875 44.1042 72.8177 44.6719 72.7031 45.2344C72.5885 45.7969 72.3958 46.3021 72.125 46.75C71.8542 47.1875 71.4896 47.5417 71.0312 47.8125C70.5833 48.0833 70.0208 48.2188 69.3438 48.2188C68.6771 48.2188 68.1198 48.0885 67.6719 47.8281C67.224 47.5573 66.8646 47.2031 66.5938 46.7656C66.3333 46.3281 66.1458 45.8333 66.0312 45.2812C65.9271 44.7292 65.875 44.1667 65.875 43.5938C65.875 42.9688 65.9479 42.349 66.0938 41.7344C66.125 41.5677 66.1823 41.3385 66.2656 41.0469C66.3594 40.7448 66.474 40.4531 66.6094 40.1719C66.7552 39.8802 66.9167 39.6302 67.0938 39.4219C67.2812 39.2135 67.4844 39.1094 67.7031 39.1094C67.9115 39.1094 68.0781 39.1667 68.2031 39.2812C68.3281 39.3958 68.4271 39.5417 68.5 39.7188C68.5729 39.8854 68.6198 40.0677 68.6406 40.2656C68.6615 40.4531 68.6719 40.625 68.6719 40.7812C68.6719 41.0208 68.651 41.2552 68.6094 41.4844C68.5781 41.7135 68.5417 41.9427 68.5 42.1719C68.4583 42.4844 68.4167 42.7969 68.375 43.1094C68.3438 43.4219 68.3281 43.7344 68.3281 44.0469C68.3281 44.2031 68.3333 44.3802 68.3438 44.5781C68.3646 44.7656 68.4062 44.9479 68.4688 45.125C68.5312 45.3021 68.6198 45.4531 68.7344 45.5781C68.849 45.6927 69.0104 45.75 69.2188 45.75C69.4896 45.75 69.7031 45.6771 69.8594 45.5312C70.026 45.3854 70.1458 45.2031 70.2188 44.9844C70.3021 44.7656 70.3542 44.5312 70.375 44.2812C70.3958 44.0312 70.4062 43.8021 70.4062 43.5938C70.4062 43.1354 70.375 42.6875 70.3125 42.25C70.25 41.8021 70.1927 41.349 70.1406 40.8906C70.1302 40.8385 70.125 40.7656 70.125 40.6719C70.125 40.5156 70.151 40.3594 70.2031 40.2031C70.2552 40.0469 70.3281 39.9062 70.4219 39.7812C70.5156 39.6562 70.6302 39.5573 70.7656 39.4844C70.901 39.401 71.0521 39.3594 71.2188 39.3594C71.4479 39.3594 71.651 39.4427 71.8281 39.6094C72.0052 39.7656 72.151 39.974 72.2656 40.2344C72.3906 40.4844 72.4896 40.7708 72.5625 41.0938C72.6458 41.4062 72.7083 41.7188 72.75 42.0312C72.8021 42.3333 72.8333 42.6198 72.8438 42.8906C72.8646 43.1615 72.875 43.375 72.875 43.5312ZM80.375 45.2188C80.375 45.5729 80.2604 45.9219 80.0312 46.2656C79.8125 46.599 79.5312 46.901 79.1875 47.1719C78.8542 47.4323 78.4948 47.6458 78.1094 47.8125C77.724 47.9688 77.3698 48.0469 77.0469 48.0469C76.4948 48.0469 76 47.9115 75.5625 47.6406C75.1354 47.3594 74.776 47.0052 74.4844 46.5781C74.1927 46.151 73.9688 45.6823 73.8125 45.1719C73.6667 44.651 73.5938 44.1458 73.5938 43.6562C73.5938 43.1354 73.6667 42.5781 73.8125 41.9844C73.9583 41.3906 74.1771 40.8438 74.4688 40.3438C74.7708 39.8438 75.1458 39.4271 75.5938 39.0938C76.0521 38.7604 76.5938 38.5938 77.2188 38.5938C77.5729 38.5938 77.9115 38.6562 78.2344 38.7812C78.5573 38.8958 78.8385 39.0625 79.0781 39.2812C79.3177 39.5 79.5104 39.7604 79.6562 40.0625C79.8021 40.3646 79.875 40.7031 79.875 41.0781C79.875 41.5677 79.7708 42.026 79.5625 42.4531C79.3542 42.8802 79.0781 43.25 78.7344 43.5625C78.3906 43.875 77.9948 44.1302 77.5469 44.3281C77.099 44.5156 76.6406 44.6198 76.1719 44.6406C76.2135 44.9427 76.3333 45.1615 76.5312 45.2969C76.7396 45.4323 76.9844 45.5 77.2656 45.5C77.474 45.5 77.6771 45.4479 77.875 45.3438C78.0729 45.2396 78.2656 45.125 78.4531 45C78.6406 44.8646 78.8229 44.7448 79 44.6406C79.1875 44.5365 79.375 44.4844 79.5625 44.4844C79.7708 44.4844 79.9583 44.5521 80.125 44.6875C80.2917 44.8229 80.375 45 80.375 45.2188ZM77.8438 41.3906C77.8438 41.2552 77.8073 41.1146 77.7344 40.9688C77.6615 40.8229 77.5469 40.75 77.3906 40.75C77.1615 40.75 76.9688 40.8125 76.8125 40.9375C76.6562 41.0521 76.526 41.2031 76.4219 41.3906C76.3177 41.5677 76.2344 41.7604 76.1719 41.9688C76.1198 42.1771 76.0885 42.3698 76.0781 42.5469C76.224 42.5156 76.3958 42.474 76.5938 42.4219C76.8021 42.3698 76.9948 42.3021 77.1719 42.2188C77.3594 42.125 77.5156 42.0104 77.6406 41.875C77.776 41.7396 77.8438 41.5781 77.8438 41.3906ZM90.4844 42.8438C90.4844 43.0417 90.4844 43.3125 90.4844 43.6562C90.4844 43.9896 90.474 44.3542 90.4531 44.75C90.4427 45.1458 90.4115 45.5469 90.3594 45.9531C90.3073 46.349 90.224 46.7083 90.1094 47.0312C90.0052 47.3542 89.8698 47.6198 89.7031 47.8281C89.5365 48.0365 89.3229 48.1406 89.0625 48.1406C88.8333 48.1406 88.6562 48.0469 88.5312 47.8594C88.4167 47.6615 88.3333 47.4323 88.2812 47.1719C88.2292 46.9115 88.1979 46.6458 88.1875 46.375C88.1875 46.1042 88.1875 45.8906 88.1875 45.7344C88.1875 45.2656 88.2031 44.8073 88.2344 44.3594C88.2656 43.9115 88.2812 43.4531 88.2812 42.9844C88.2812 42.9323 88.2812 42.8385 88.2812 42.7031C88.2812 42.5677 88.2708 42.4323 88.25 42.2969C88.2292 42.1615 88.1927 42.0417 88.1406 41.9375C88.099 41.8333 88.0312 41.7812 87.9375 41.7812C87.75 41.7812 87.599 41.8802 87.4844 42.0781C87.3698 42.2656 87.276 42.4896 87.2031 42.75C87.1302 43.0104 87.0781 43.2708 87.0469 43.5312C87.0156 43.7812 86.9948 43.9688 86.9844 44.0938C86.9635 44.2292 86.9427 44.4323 86.9219 44.7031C86.9115 44.974 86.8906 45.2708 86.8594 45.5938C86.8385 45.9167 86.7969 46.25 86.7344 46.5938C86.6823 46.9271 86.6094 47.2344 86.5156 47.5156C86.4323 47.7865 86.3229 48.0104 86.1875 48.1875C86.0521 48.3646 85.8854 48.4531 85.6875 48.4531C85.4375 48.4531 85.2448 48.3438 85.1094 48.125C84.974 47.9062 84.875 47.651 84.8125 47.3594C84.75 47.0677 84.7083 46.7708 84.6875 46.4688C84.6771 46.1667 84.6719 45.9323 84.6719 45.7656C84.6719 45.5885 84.6719 45.4167 84.6719 45.25C84.6823 45.0833 84.6875 44.9115 84.6875 44.7344C84.6875 44.6615 84.6875 44.5417 84.6875 44.375C84.6875 44.2083 84.6823 44.026 84.6719 43.8281C84.6719 43.6198 84.6615 43.4062 84.6406 43.1875C84.6302 42.9688 84.6094 42.7708 84.5781 42.5938C84.5469 42.4062 84.5 42.2552 84.4375 42.1406C84.375 42.026 84.3021 41.9688 84.2188 41.9688C84.0833 41.9688 83.9583 42.0573 83.8438 42.2344C83.7292 42.401 83.6302 42.6042 83.5469 42.8438C83.4635 43.0729 83.3958 43.3021 83.3438 43.5312C83.3021 43.7604 83.2812 43.9271 83.2812 44.0312V44.125C83.2812 44.625 83.3125 45.1146 83.375 45.5938C83.4375 46.0729 83.4688 46.5625 83.4688 47.0625C83.4688 47.3542 83.375 47.625 83.1875 47.875C83 48.1146 82.7396 48.2344 82.4062 48.2344C82.1667 48.2344 81.9688 48.1458 81.8125 47.9688C81.6562 47.7812 81.526 47.5417 81.4219 47.25C81.3177 46.9583 81.2344 46.6406 81.1719 46.2969C81.1198 45.9427 81.0833 45.599 81.0625 45.2656C81.0417 44.9219 81.026 44.6146 81.0156 44.3438C81.0156 44.0625 81.0156 43.8542 81.0156 43.7188C81.0156 43.5625 81.0104 43.3333 81 43.0312C81 42.7292 81.0052 42.401 81.0156 42.0469C81.0365 41.6927 81.0677 41.3333 81.1094 40.9688C81.151 40.5938 81.2188 40.2552 81.3125 39.9531C81.4062 39.651 81.526 39.4062 81.6719 39.2188C81.8281 39.0208 82.026 38.9219 82.2656 38.9219C82.5365 38.9219 82.7552 38.9948 82.9219 39.1406C83.099 39.2865 83.1875 39.5052 83.1875 39.7969C83.1875 39.8594 83.1823 39.9219 83.1719 39.9844C83.1719 40.0469 83.1667 40.1042 83.1562 40.1562C83.2708 39.9896 83.4115 39.8229 83.5781 39.6562C83.7448 39.4792 83.9219 39.3229 84.1094 39.1875C84.3073 39.0417 84.5156 38.9271 84.7344 38.8438C84.9531 38.75 85.1719 38.7031 85.3906 38.7031C85.599 38.7031 85.7865 38.7604 85.9531 38.875C86.1198 38.9896 86.2656 39.1354 86.3906 39.3125C86.5156 39.4792 86.6198 39.6615 86.7031 39.8594C86.7865 40.0573 86.8438 40.2448 86.875 40.4219C86.9792 40.2344 87.1042 40.0469 87.25 39.8594C87.4062 39.6615 87.5729 39.4896 87.75 39.3438C87.9271 39.1979 88.1198 39.0781 88.3281 38.9844C88.5469 38.8906 88.7708 38.8438 89 38.8438C89.2188 38.8438 89.4062 38.9219 89.5625 39.0781C89.7188 39.2344 89.8542 39.4375 89.9688 39.6875C90.0833 39.9271 90.1719 40.2031 90.2344 40.5156C90.2969 40.8177 90.349 41.1198 90.3906 41.4219C90.4323 41.7135 90.4583 41.9896 90.4688 42.25C90.4792 42.5 90.4844 42.6979 90.4844 42.8438ZM99.8594 39.4062C99.8594 39.7083 99.7552 39.9323 99.5469 40.0781C99.349 40.224 99.125 40.3646 98.875 40.5C98.625 40.625 98.3958 40.776 98.1875 40.9531C97.9896 41.1302 97.8906 41.3958 97.8906 41.75C97.8906 41.9375 97.9323 42.099 98.0156 42.2344C98.1094 42.3698 98.2188 42.4948 98.3438 42.6094C98.4792 42.7135 98.625 42.8229 98.7812 42.9375C98.9375 43.0521 99.0781 43.1823 99.2031 43.3281C99.3385 43.474 99.4479 43.651 99.5312 43.8594C99.625 44.0677 99.6719 44.3229 99.6719 44.625C99.6719 45.0625 99.5573 45.4948 99.3281 45.9219C99.1094 46.3385 98.8229 46.7135 98.4688 47.0469C98.125 47.3698 97.7344 47.6302 97.2969 47.8281C96.8594 48.026 96.4271 48.125 96 48.125C95.8229 48.125 95.6458 48.1094 95.4688 48.0781C95.2917 48.0573 95.1302 48.0104 94.9844 47.9375C94.849 47.8646 94.7344 47.7656 94.6406 47.6406C94.5469 47.5052 94.5 47.3333 94.5 47.125C94.5 46.8333 94.5573 46.6094 94.6719 46.4531C94.7865 46.2865 94.9323 46.1562 95.1094 46.0625C95.2865 45.9688 95.474 45.8958 95.6719 45.8438C95.8802 45.7917 96.0729 45.7292 96.25 45.6562C96.4271 45.5729 96.5729 45.4688 96.6875 45.3438C96.8021 45.2188 96.8594 45.0417 96.8594 44.8125C96.8594 44.5938 96.7708 44.3698 96.5938 44.1406C96.4271 43.901 96.2396 43.651 96.0312 43.3906C95.8229 43.1198 95.6302 42.8333 95.4531 42.5312C95.2865 42.2292 95.2031 41.8958 95.2031 41.5312C95.2031 41.0833 95.2917 40.6719 95.4688 40.2969C95.6562 39.9115 95.901 39.5781 96.2031 39.2969C96.5156 39.0156 96.8698 38.7969 97.2656 38.6406C97.6615 38.474 98.0781 38.3906 98.5156 38.3906C98.6823 38.3906 98.8438 38.4062 99 38.4375C99.1667 38.4688 99.3125 38.526 99.4375 38.6094C99.5625 38.6823 99.6615 38.7865 99.7344 38.9219C99.8177 39.0469 99.8594 39.2083 99.8594 39.4062ZM107.125 45.7969C107.125 45.9844 107.115 46.2292 107.094 46.5312C107.083 46.8333 107.042 47.1302 106.969 47.4219C106.896 47.7031 106.781 47.9479 106.625 48.1562C106.469 48.3646 106.25 48.4688 105.969 48.4688C105.583 48.4688 105.286 48.3438 105.078 48.0938C104.87 47.8438 104.771 47.5312 104.781 47.1562C104.448 47.4479 104.068 47.6771 103.641 47.8438C103.224 48.0104 102.797 48.0938 102.359 48.0938C102.057 48.0938 101.771 48.0208 101.5 47.875C101.229 47.7292 100.99 47.5417 100.781 47.3125C100.573 47.0833 100.406 46.8281 100.281 46.5469C100.156 46.2552 100.094 45.9688 100.094 45.6875C100.094 45.1875 100.245 44.75 100.547 44.375C100.859 44 101.24 43.6823 101.688 43.4219C102.135 43.151 102.609 42.9375 103.109 42.7812C103.62 42.625 104.073 42.5208 104.469 42.4688C104.469 42.4167 104.469 42.3698 104.469 42.3281C104.479 42.2865 104.484 42.2396 104.484 42.1875C104.484 41.8646 104.396 41.6042 104.219 41.4062C104.042 41.2083 103.792 41.1094 103.469 41.1094C103.208 41.1094 102.984 41.1562 102.797 41.25C102.609 41.3333 102.432 41.4323 102.266 41.5469C102.099 41.651 101.932 41.75 101.766 41.8438C101.599 41.9271 101.411 41.9688 101.203 41.9688C100.974 41.9688 100.776 41.8958 100.609 41.75C100.453 41.6042 100.375 41.4167 100.375 41.1875C100.375 40.8438 100.474 40.5312 100.672 40.25C100.88 39.9688 101.135 39.7344 101.438 39.5469C101.75 39.349 102.083 39.1979 102.438 39.0938C102.802 38.9792 103.135 38.9219 103.438 38.9219C103.719 38.9219 104 38.9583 104.281 39.0312C104.562 39.0938 104.828 39.1979 105.078 39.3438C105.328 39.4792 105.552 39.651 105.75 39.8594C105.958 40.0573 106.125 40.2917 106.25 40.5625C106.438 40.9479 106.589 41.3594 106.703 41.7969C106.818 42.224 106.906 42.6667 106.969 43.125C107.031 43.5729 107.073 44.026 107.094 44.4844C107.115 44.9323 107.125 45.3698 107.125 45.7969ZM104.625 45.2969L104.578 44.2344C104.557 44.2344 104.536 44.2344 104.516 44.2344C104.495 44.224 104.474 44.2188 104.453 44.2188C104.318 44.2188 104.146 44.2552 103.938 44.3281C103.74 44.3906 103.547 44.4844 103.359 44.6094C103.172 44.724 103.01 44.8542 102.875 45C102.75 45.1458 102.688 45.2969 102.688 45.4531C102.688 45.599 102.74 45.6979 102.844 45.75C102.948 45.8021 103.068 45.8281 103.203 45.8281C103.432 45.8281 103.677 45.7708 103.938 45.6562C104.198 45.5312 104.427 45.4115 104.625 45.2969ZM106.516 36.3594C106.516 36.5156 106.464 36.6823 106.359 36.8594C106.255 37.026 106.125 37.1823 105.969 37.3281C105.812 37.4635 105.646 37.5781 105.469 37.6719C105.292 37.7552 105.125 37.7969 104.969 37.7969C104.812 37.7969 104.656 37.7708 104.5 37.7188C104.354 37.6562 104.203 37.5885 104.047 37.5156C103.901 37.4427 103.755 37.3802 103.609 37.3281C103.464 37.2656 103.318 37.2344 103.172 37.2344C103.057 37.2344 102.943 37.2708 102.828 37.3438C102.714 37.4062 102.594 37.4792 102.469 37.5625C102.344 37.6354 102.214 37.7031 102.078 37.7656C101.953 37.8281 101.828 37.8594 101.703 37.8594C101.536 37.8594 101.401 37.7917 101.297 37.6562C101.193 37.5104 101.141 37.3646 101.141 37.2188C101.141 37.0417 101.203 36.8698 101.328 36.7031C101.453 36.5365 101.609 36.3906 101.797 36.2656C101.984 36.1302 102.177 36.026 102.375 35.9531C102.583 35.8698 102.766 35.8281 102.922 35.8281C103.099 35.8281 103.25 35.8646 103.375 35.9375C103.51 36.0104 103.635 36.0938 103.75 36.1875C103.865 36.2812 103.979 36.3646 104.094 36.4375C104.219 36.5104 104.365 36.5469 104.531 36.5469C104.667 36.5469 104.792 36.5104 104.906 36.4375C105.031 36.3542 105.151 36.2656 105.266 36.1719C105.391 36.0677 105.505 35.9792 105.609 35.9062C105.724 35.8229 105.844 35.7812 105.969 35.7812C106.115 35.7812 106.24 35.8438 106.344 35.9688C106.458 36.0938 106.516 36.224 106.516 36.3594ZM111.031 48.4531C110.5 48.4531 110.036 48.3125 109.641 48.0312C109.245 47.75 108.911 47.3906 108.641 46.9531C108.37 46.5156 108.167 46.0312 108.031 45.5C107.896 44.9583 107.828 44.4271 107.828 43.9062C107.828 43.3542 107.896 42.7865 108.031 42.2031C108.167 41.6094 108.375 41.0729 108.656 40.5938C108.938 40.1042 109.297 39.7083 109.734 39.4062C110.172 39.0938 110.693 38.9375 111.297 38.9375C111.88 38.9375 112.375 39.099 112.781 39.4219C113.198 39.7344 113.531 40.1302 113.781 40.6094C114.031 41.0781 114.208 41.5938 114.312 42.1562C114.417 42.7188 114.453 43.25 114.422 43.75C114.391 44.3021 114.302 44.8594 114.156 45.4219C114.021 45.9844 113.818 46.4896 113.547 46.9375C113.276 47.3854 112.932 47.75 112.516 48.0312C112.099 48.3125 111.604 48.4531 111.031 48.4531ZM111.188 41.3906C111.031 41.3906 110.891 41.474 110.766 41.6406C110.651 41.8073 110.552 42.0104 110.469 42.25C110.396 42.4896 110.339 42.7448 110.297 43.0156C110.255 43.276 110.234 43.5052 110.234 43.7031C110.234 43.9531 110.255 44.224 110.297 44.5156C110.349 44.8073 110.417 45.0781 110.5 45.3281C110.583 45.5677 110.682 45.7708 110.797 45.9375C110.922 46.0938 111.062 46.1719 111.219 46.1719C111.385 46.1719 111.526 46.0938 111.641 45.9375C111.766 45.7812 111.865 45.5833 111.938 45.3438C112.01 45.1042 112.062 44.8438 112.094 44.5625C112.125 44.2708 112.141 44 112.141 43.75C112.141 43.5208 112.12 43.2708 112.078 43C112.036 42.7188 111.974 42.4583 111.891 42.2188C111.818 41.9792 111.719 41.7812 111.594 41.625C111.479 41.4688 111.344 41.3906 111.188 41.3906ZM125.719 42.4062C125.448 43.125 125.151 43.875 124.828 44.6562C124.505 45.4375 124.156 46.1667 123.781 46.8438C123.552 47.2604 123.297 47.6094 123.016 47.8906C122.734 48.1615 122.411 48.2969 122.047 48.2969C121.755 48.2969 121.469 48.151 121.188 47.8594C120.917 47.5573 120.661 47.2031 120.422 46.7969C120.193 46.3802 119.99 45.9635 119.812 45.5469C119.646 45.1198 119.521 44.7812 119.438 44.5312C119.354 44.25 119.26 43.9479 119.156 43.625C119.052 43.3021 118.958 42.974 118.875 42.6406C118.792 42.3073 118.724 41.9792 118.672 41.6562C118.62 41.3229 118.594 41.0104 118.594 40.7188C118.594 40.3125 118.667 39.9792 118.812 39.7188C118.958 39.4583 119.245 39.3281 119.672 39.3281C119.839 39.3281 119.99 39.3802 120.125 39.4844C120.26 39.5781 120.385 39.7135 120.5 39.8906C120.615 40.0677 120.724 40.276 120.828 40.5156C120.932 40.7448 121.031 41 121.125 41.2812C121.219 41.5521 121.307 41.8333 121.391 42.125C121.474 42.4167 121.557 42.6979 121.641 42.9688C121.724 43.2396 121.807 43.5052 121.891 43.7656C121.984 44.0156 122.104 44.2656 122.25 44.5156C122.323 44.3281 122.406 44.1146 122.5 43.875C122.594 43.6354 122.693 43.3802 122.797 43.1094C122.911 42.8385 123.031 42.5625 123.156 42.2812C123.281 41.9896 123.417 41.7083 123.562 41.4375C123.844 40.875 124.141 40.3958 124.453 40C124.776 39.6042 125.094 39.4062 125.406 39.4062C125.698 39.4062 125.906 39.4948 126.031 39.6719C126.156 39.849 126.219 40.0781 126.219 40.3594C126.219 40.6406 126.172 40.9583 126.078 41.3125C125.984 41.6667 125.865 42.0312 125.719 42.4062ZM129.734 48.4531C129.203 48.4531 128.74 48.3125 128.344 48.0312C127.948 47.75 127.615 47.3906 127.344 46.9531C127.073 46.5156 126.87 46.0312 126.734 45.5C126.599 44.9583 126.531 44.4271 126.531 43.9062C126.531 43.3542 126.599 42.7865 126.734 42.2031C126.87 41.6094 127.078 41.0729 127.359 40.5938C127.641 40.1042 128 39.7083 128.438 39.4062C128.875 39.0938 129.396 38.9375 130 38.9375C130.583 38.9375 131.078 39.099 131.484 39.4219C131.901 39.7344 132.234 40.1302 132.484 40.6094C132.734 41.0781 132.911 41.5938 133.016 42.1562C133.12 42.7188 133.156 43.25 133.125 43.75C133.094 44.3021 133.005 44.8594 132.859 45.4219C132.724 45.9844 132.521 46.4896 132.25 46.9375C131.979 47.3854 131.635 47.75 131.219 48.0312C130.802 48.3125 130.307 48.4531 129.734 48.4531ZM129.891 41.3906C129.734 41.3906 129.594 41.474 129.469 41.6406C129.354 41.8073 129.255 42.0104 129.172 42.25C129.099 42.4896 129.042 42.7448 129 43.0156C128.958 43.276 128.938 43.5052 128.938 43.7031C128.938 43.9531 128.958 44.224 129 44.5156C129.052 44.8073 129.12 45.0781 129.203 45.3281C129.286 45.5677 129.385 45.7708 129.5 45.9375C129.625 46.0938 129.766 46.1719 129.922 46.1719C130.089 46.1719 130.229 46.0938 130.344 45.9375C130.469 45.7812 130.568 45.5833 130.641 45.3438C130.714 45.1042 130.766 44.8438 130.797 44.5625C130.828 44.2708 130.844 44 130.844 43.75C130.844 43.5208 130.823 43.2708 130.781 43C130.74 42.7188 130.677 42.4583 130.594 42.2188C130.521 41.9792 130.422 41.7812 130.297 41.625C130.182 41.4688 130.047 41.3906 129.891 41.3906ZM139.719 42C139.719 42.0521 139.714 42.1094 139.703 42.1719C139.693 42.224 139.677 42.276 139.656 42.3281C139.562 42.5677 139.417 42.7708 139.219 42.9375C139.021 43.0938 138.786 43.1719 138.516 43.1719C138.109 43.1719 137.833 42.9688 137.688 42.5625C137.667 42.5104 137.656 42.4531 137.656 42.3906C137.656 42.3177 137.651 42.2448 137.641 42.1719V41.7188C137.62 41.5729 137.583 41.4583 137.531 41.375C137.479 41.2917 137.391 41.25 137.266 41.25C137.089 41.25 136.917 41.3646 136.75 41.5938C136.594 41.8125 136.453 42.0781 136.328 42.3906C136.214 42.6927 136.12 43.0052 136.047 43.3281C135.974 43.651 135.938 43.9115 135.938 44.1094C135.938 44.2656 135.948 44.4583 135.969 44.6875C135.99 44.9062 136.031 45.1198 136.094 45.3281C136.156 45.5365 136.24 45.7188 136.344 45.875C136.458 46.0208 136.604 46.0938 136.781 46.0938C136.958 46.0938 137.12 46.0417 137.266 45.9375C137.422 45.8229 137.573 45.6927 137.719 45.5469C137.854 45.4219 138 45.2917 138.156 45.1562C138.323 45.0208 138.51 44.9531 138.719 44.9531C138.979 44.9531 139.182 45.0469 139.328 45.2344C139.484 45.4219 139.562 45.6354 139.562 45.875C139.562 46.2292 139.469 46.5625 139.281 46.875C139.094 47.1771 138.859 47.4427 138.578 47.6719C138.297 47.8906 137.984 48.0625 137.641 48.1875C137.297 48.3229 136.969 48.3906 136.656 48.3906C136.094 48.3906 135.615 48.25 135.219 47.9688C134.833 47.6875 134.521 47.3333 134.281 46.9062C134.042 46.4688 133.87 45.9948 133.766 45.4844C133.661 44.974 133.609 44.4896 133.609 44.0312C133.609 43.5 133.682 42.9271 133.828 42.3125C133.974 41.6875 134.198 41.1094 134.5 40.5781C134.802 40.0469 135.188 39.6042 135.656 39.25C136.135 38.8958 136.703 38.7188 137.359 38.7188C137.766 38.7188 138.115 38.8073 138.406 38.9844C138.708 39.1615 138.953 39.3958 139.141 39.6875C139.339 39.9688 139.484 40.2865 139.578 40.6406C139.682 40.9948 139.734 41.3438 139.734 41.6875C139.734 41.7396 139.734 41.7917 139.734 41.8438C139.734 41.8958 139.729 41.9479 139.719 42ZM147.141 45.2188C147.141 45.5729 147.026 45.9219 146.797 46.2656C146.578 46.599 146.297 46.901 145.953 47.1719C145.62 47.4323 145.26 47.6458 144.875 47.8125C144.49 47.9688 144.135 48.0469 143.812 48.0469C143.26 48.0469 142.766 47.9115 142.328 47.6406C141.901 47.3594 141.542 47.0052 141.25 46.5781C140.958 46.151 140.734 45.6823 140.578 45.1719C140.432 44.651 140.359 44.1458 140.359 43.6562C140.359 43.1354 140.432 42.5781 140.578 41.9844C140.724 41.3906 140.943 40.8438 141.234 40.3438C141.536 39.8438 141.911 39.4271 142.359 39.0938C142.818 38.7604 143.359 38.5938 143.984 38.5938C144.339 38.5938 144.677 38.6562 145 38.7812C145.323 38.8958 145.604 39.0625 145.844 39.2812C146.083 39.5 146.276 39.7604 146.422 40.0625C146.568 40.3646 146.641 40.7031 146.641 41.0781C146.641 41.5677 146.536 42.026 146.328 42.4531C146.12 42.8802 145.844 43.25 145.5 43.5625C145.156 43.875 144.76 44.1302 144.312 44.3281C143.865 44.5156 143.406 44.6198 142.938 44.6406C142.979 44.9427 143.099 45.1615 143.297 45.2969C143.505 45.4323 143.75 45.5 144.031 45.5C144.24 45.5 144.443 45.4479 144.641 45.3438C144.839 45.2396 145.031 45.125 145.219 45C145.406 44.8646 145.589 44.7448 145.766 44.6406C145.953 44.5365 146.141 44.4844 146.328 44.4844C146.536 44.4844 146.724 44.5521 146.891 44.6875C147.057 44.8229 147.141 45 147.141 45.2188ZM144.609 41.3906C144.609 41.2552 144.573 41.1146 144.5 40.9688C144.427 40.8229 144.312 40.75 144.156 40.75C143.927 40.75 143.734 40.8125 143.578 40.9375C143.422 41.0521 143.292 41.2031 143.188 41.3906C143.083 41.5677 143 41.7604 142.938 41.9688C142.885 42.1771 142.854 42.3698 142.844 42.5469C142.99 42.5156 143.161 42.474 143.359 42.4219C143.568 42.3698 143.76 42.3021 143.938 42.2188C144.125 42.125 144.281 42.0104 144.406 41.875C144.542 41.7396 144.609 41.5781 144.609 41.3906ZM146 37.5469C146 37.6302 145.984 37.6823 145.953 37.7031C145.922 37.724 145.87 37.7344 145.797 37.7344C145.672 37.7344 145.531 37.7031 145.375 37.6406C145.229 37.5781 145.078 37.5 144.922 37.4062C144.776 37.3125 144.63 37.2135 144.484 37.1094C144.349 37.0052 144.234 36.9115 144.141 36.8281C144.036 36.9115 143.911 37.0104 143.766 37.125C143.63 37.2396 143.484 37.349 143.328 37.4531C143.172 37.5469 143.016 37.6302 142.859 37.7031C142.703 37.7656 142.557 37.7969 142.422 37.7969C142.37 37.7969 142.318 37.7865 142.266 37.7656C142.224 37.7448 142.203 37.6927 142.203 37.6094C142.203 37.4531 142.271 37.2552 142.406 37.0156C142.542 36.776 142.708 36.5469 142.906 36.3281C143.104 36.1094 143.312 35.9219 143.531 35.7656C143.75 35.6094 143.943 35.5312 144.109 35.5312C144.276 35.5312 144.469 35.6094 144.688 35.7656C144.906 35.9115 145.109 36.0885 145.297 36.2969C145.495 36.5052 145.661 36.724 145.797 36.9531C145.932 37.1823 146 37.3802 146 37.5469ZM152.344 39.4062C152.344 39.7083 152.24 39.9323 152.031 40.0781C151.833 40.224 151.609 40.3646 151.359 40.5C151.109 40.625 150.88 40.776 150.672 40.9531C150.474 41.1302 150.375 41.3958 150.375 41.75C150.375 41.9375 150.417 42.099 150.5 42.2344C150.594 42.3698 150.703 42.4948 150.828 42.6094C150.964 42.7135 151.109 42.8229 151.266 42.9375C151.422 43.0521 151.562 43.1823 151.688 43.3281C151.823 43.474 151.932 43.651 152.016 43.8594C152.109 44.0677 152.156 44.3229 152.156 44.625C152.156 45.0625 152.042 45.4948 151.812 45.9219C151.594 46.3385 151.307 46.7135 150.953 47.0469C150.609 47.3698 150.219 47.6302 149.781 47.8281C149.344 48.026 148.911 48.125 148.484 48.125C148.307 48.125 148.13 48.1094 147.953 48.0781C147.776 48.0573 147.615 48.0104 147.469 47.9375C147.333 47.8646 147.219 47.7656 147.125 47.6406C147.031 47.5052 146.984 47.3333 146.984 47.125C146.984 46.8333 147.042 46.6094 147.156 46.4531C147.271 46.2865 147.417 46.1562 147.594 46.0625C147.771 45.9688 147.958 45.8958 148.156 45.8438C148.365 45.7917 148.557 45.7292 148.734 45.6562C148.911 45.5729 149.057 45.4688 149.172 45.3438C149.286 45.2188 149.344 45.0417 149.344 44.8125C149.344 44.5938 149.255 44.3698 149.078 44.1406C148.911 43.901 148.724 43.651 148.516 43.3906C148.307 43.1198 148.115 42.8333 147.938 42.5312C147.771 42.2292 147.688 41.8958 147.688 41.5312C147.688 41.0833 147.776 40.6719 147.953 40.2969C148.141 39.9115 148.385 39.5781 148.688 39.2969C149 39.0156 149.354 38.7969 149.75 38.6406C150.146 38.474 150.562 38.3906 151 38.3906C151.167 38.3906 151.328 38.4062 151.484 38.4375C151.651 38.4688 151.797 38.526 151.922 38.6094C152.047 38.6823 152.146 38.7865 152.219 38.9219C152.302 39.0469 152.344 39.2083 152.344 39.4062ZM159.984 39.5938C159.984 39.9271 159.896 40.2396 159.719 40.5312C159.552 40.8125 159.339 41.0781 159.078 41.3281C158.828 41.5677 158.547 41.7812 158.234 41.9688C157.932 42.1458 157.651 42.2865 157.391 42.3906C157.453 42.8906 157.484 43.4062 157.484 43.9375C157.484 44.1146 157.479 44.3125 157.469 44.5312C157.469 44.75 157.438 44.9583 157.375 45.1562C157.323 45.3438 157.229 45.5052 157.094 45.6406C156.969 45.776 156.786 45.8438 156.547 45.8438C156.13 45.8438 155.849 45.6354 155.703 45.2188C155.651 45.0625 155.609 44.8542 155.578 44.5938C155.547 44.3229 155.521 44.0469 155.5 43.7656C155.49 43.474 155.484 43.1927 155.484 42.9219C155.484 42.651 155.484 42.4271 155.484 42.25C155.484 42.1042 155.49 41.9323 155.5 41.7344C155.521 41.5365 155.573 41.375 155.656 41.25C155.75 41.1146 155.906 40.9844 156.125 40.8594C156.344 40.724 156.568 40.5833 156.797 40.4375C157.036 40.2917 157.245 40.1302 157.422 39.9531C157.599 39.776 157.688 39.5677 157.688 39.3281C157.688 39.151 157.646 38.9896 157.562 38.8438C157.479 38.6979 157.37 38.5781 157.234 38.4844C157.109 38.3802 156.964 38.3021 156.797 38.25C156.641 38.1875 156.479 38.1562 156.312 38.1562C155.917 38.1562 155.604 38.224 155.375 38.3594C155.146 38.4844 154.948 38.625 154.781 38.7812C154.625 38.9271 154.474 39.0677 154.328 39.2031C154.193 39.3281 154.016 39.3906 153.797 39.3906C153.547 39.3906 153.318 39.3021 153.109 39.125C152.911 38.9479 152.812 38.7344 152.812 38.4844C152.812 38.0781 152.932 37.7344 153.172 37.4531C153.411 37.1615 153.708 36.9323 154.062 36.7656C154.417 36.5885 154.792 36.4635 155.188 36.3906C155.583 36.3073 155.938 36.2656 156.25 36.2656C156.667 36.2656 157.094 36.3594 157.531 36.5469C157.979 36.724 158.38 36.9635 158.734 37.2656C159.099 37.5677 159.396 37.9219 159.625 38.3281C159.865 38.7344 159.984 39.1562 159.984 39.5938ZM157.672 47.1875C157.672 47.3646 157.625 47.5156 157.531 47.6406C157.448 47.7656 157.339 47.8698 157.203 47.9531C157.078 48.0365 156.932 48.099 156.766 48.1406C156.609 48.1823 156.458 48.2031 156.312 48.2031C156.073 48.2031 155.849 48.1458 155.641 48.0312C155.443 47.9167 155.344 47.7292 155.344 47.4688C155.344 47.3021 155.385 47.1562 155.469 47.0312C155.562 46.8958 155.677 46.7812 155.812 46.6875C155.948 46.5938 156.094 46.526 156.25 46.4844C156.417 46.4323 156.573 46.4062 156.719 46.4062C156.958 46.4062 157.177 46.4688 157.375 46.5938C157.573 46.7188 157.672 46.9167 157.672 47.1875Z" fill="white"/>
<defs>
<filter id="filter0_i_871_286" x="-3.05176e-05" y="0" width="187" height="119" filterUnits="userSpaceOnUse" color-interpolation-filters="sRGB">
<feFlood flood-opacity="0" result="BackgroundImageFix"/>
<feBlend mode="normal" in="SourceGraphic" in2="BackgroundImageFix" result="shape"/>
<feColorMatrix in="SourceAlpha" type="matrix" values="0 0 0 0 0 0 0 0 0 0 0 0 0 0 0 0 0 0 127 0" result="hardAlpha"/>
<feOffset dy="4"/>
<feGaussianBlur stdDeviation="2"/>
<feComposite in2="hardAlpha" operator="arithmetic" k2="-1" k3="1"/>
<feColorMatrix type="matrix" values="0 0 0 0 0 0 0 0 0 0 0 0 0 0 0 0 0 0 0.25 0"/>
<feBlend mode="normal" in2="shape" result="effect1_innerShadow_871_286"/>
</filter>
</defs>
</svg>
