<svg xmlns="http://www.w3.org/2000/svg" width="254" height="171" fill="none" viewBox="0 0 254 171"><g filter="url(#a)"><path fill="#3dc3ff" fill-rule="evenodd" d="M35.955 108.841C11.621 97.618 1 81.054 1 63.126c0-22.058 21.423-43.85 56.862-54.624C75.05 3.276 95.246 1 118.45 1c71.044 0 136.561 22.506 133.764 62.126 0 19.659-12.126 37.736-36.821 48.529-13.465 5.884-30.5 9.359-51.813 10.428-8.384 20.567-20.653 31.157-40.784 47.917 14.763-19.534 23.808-32.129 27.08-47.563l-1.13.002c-50.355 3.518-88.439-2.366-112.791-13.598" clip-rule="evenodd"/></g><path fill="#3dc3ff" d="m35.955 108.841-.419.908zM57.862 8.502l.29.957zm194.352 54.624-.997-.07-.003.07zm-36.821 48.529.401.916zm-51.813 10.428-.05-.999c-.388.02-.729.262-.876.621zM122.796 170l-.798-.603a1 1 0 0 0 1.438 1.372zm27.08-47.563.978.207a.997.997 0 0 0-.981-1.207zm-1.13.002v-1l-.07.002zM1 63.126H0c0 18.412 10.942 35.28 35.536 46.623l.419-.908.419-.908C12.3 96.83 2 80.57 2 63.126zM57.862 8.502l-.291-.957C21.99 18.363 0 40.392 0 63.126h2C2 41.743 22.855 20.19 58.152 9.459zM118.45 1V0C95.187 0 74.886 2.281 57.57 7.545l.291.957.291.957C75.215 4.27 95.305 2 118.45 2zm133.764 62.126.998.07c1.446-20.49-14.799-36.294-39.799-46.91C188.342 5.637 154.058 0 118.45 0v2c35.436 0 69.433 5.615 94.181 16.126 24.821 10.54 39.936 25.8 38.586 44.93zm-36.821 48.529.401.916c24.976-10.915 37.42-29.306 37.42-49.445h-2c0 19.179-11.808 36.943-36.221 47.612zm-51.813 10.428.05.999c21.387-1.073 38.552-4.563 52.164-10.511l-.401-.916-.4-.917c-13.318 5.82-30.224 9.281-51.463 10.346zm0 0-.926-.378c-8.279 20.31-20.36 30.76-40.498 47.527l.64.768.64.769c20.123-16.754 32.582-27.485 41.07-48.309zM122.796 170l.798.603c14.735-19.498 23.934-32.269 27.26-47.959l-.978-.207-.978-.208c-3.218 15.179-12.109 27.597-26.9 47.168zm25.95-47.561v1l1.134-.002-.004-1-.003-1-1.127.002zM35.955 108.841l-.419.908c24.564 11.33 62.837 17.211 113.28 13.687l-.07-.997-.07-.998c-50.267 3.512-88.162-2.374-112.302-13.508z"/><path fill="#fff" d="M33.283 41.547q0 .297-.156.578-.156.265-.734.625-.579.36-1.282.688-.703.312-1.359.546-.655.22-.969.22-.22 0-.515-.11a3.6 3.6 0 0 1-1.141-.61 1.6 1.6 0 0 1-.344-.39q-.062-.11-.125-.438a22 22 0 0 1-.094-.765l-.062-.922q-.031-.5-.062-.938-.016-.453-.032-.797v-.5q0-.578.031-1.328.048-.75.157-1.5.11-.765.312-1.453.22-.703.578-1.187.11-.141.438-.297.329-.156.765-.297a16 16 0 0 1 1.954-.469q.483-.094.875-.14.39-.063.593-.063.235 0 .438.11a.9.9 0 0 1 .36.265q.154.172.234.39.093.204.093.438 0 .203-.062.344a1.5 1.5 0 0 1-.156.312q-.157.203-.657.485a18 18 0 0 1-2.218 1.047q-.532.218-.75.312-.063.36-.141.734a8 8 0 0 0-.094.735 9 9 0 0 1 1.094-.469 3.4 3.4 0 0 1 1.156-.219q1.11 0 1.11 1.094a1 1 0 0 1-.11.469 1.1 1.1 0 0 1-.265.36q-.157.155-.375.28l-.407.22a9 9 0 0 1-1.047.468l-1.093.375q-.032.125-.063.281-.03.141-.031.282 0 .218.031.437l.063.438q.188-.063.593-.204.423-.14.875-.28.453-.142.875-.235.423-.11.626-.11.234 0 .437.11.203.093.344.265.14.157.219.375.093.219.093.438m5.282-6.14q0 .452-.313.671a6 6 0 0 1-.672.422q-.376.188-.687.453-.297.266-.297.797 0 .282.125.484.14.203.328.375.203.157.437.328.235.172.422.391.204.219.328.531.141.313.141.766 0 .657-.344 1.297a4.3 4.3 0 0 1-.86 1.125 4.3 4.3 0 0 1-1.171.781q-.656.297-1.297.297-.266 0-.531-.047a1.5 1.5 0 0 1-.484-.14 1.04 1.04 0 0 1-.344-.297.9.9 0 0 1-.14-.516q0-.438.171-.672.171-.25.438-.39.265-.14.562-.22.312-.077.578-.187.266-.124.438-.312.171-.187.172-.532-.001-.327-.266-.671-.25-.36-.563-.75a8 8 0 0 1-.578-.86 2.04 2.04 0 0 1-.25-1q0-.672.266-1.234a3.4 3.4 0 0 1 .734-1q.47-.422 1.063-.656a3.2 3.2 0 0 1 1.25-.25q.25 0 .484.047.25.046.438.171a.8.8 0 0 1 .297.313.86.86 0 0 1 .125.484m5.203 0q0 .452-.313.671a6 6 0 0 1-.672.422q-.375.188-.687.453-.297.266-.297.797 0 .282.125.484.14.203.328.375.202.157.438.328.234.172.421.391.203.219.329.531.14.313.14.766 0 .657-.344 1.297a4.3 4.3 0 0 1-.859 1.125 4.3 4.3 0 0 1-1.172.781q-.656.297-1.297.297-.265 0-.531-.047a1.5 1.5 0 0 1-.484-.14 1.05 1.05 0 0 1-.344-.297.9.9 0 0 1-.14-.516q0-.438.171-.672.172-.25.438-.39.265-.14.562-.22.312-.077.578-.187.265-.124.438-.312.172-.187.172-.532 0-.327-.266-.671-.25-.36-.562-.75a8 8 0 0 1-.579-.86 2.04 2.04 0 0 1-.25-1q0-.672.266-1.234a3.4 3.4 0 0 1 .734-1q.47-.422 1.063-.656a3.2 3.2 0 0 1 1.25-.25q.25 0 .484.047.25.046.438.171a.8.8 0 0 1 .297.313.86.86 0 0 1 .125.484m7.172 5.812q0 .531-.344 1.047-.328.5-.844.906-.5.39-1.078.64-.579.235-1.063.235a2.76 2.76 0 0 1-1.484-.406 3.9 3.9 0 0 1-1.078-1.063 5.2 5.2 0 0 1-.672-1.406 5.6 5.6 0 0 1-.219-1.516q0-.78.219-1.672.218-.89.656-1.64.453-.75 1.125-1.25.688-.5 1.625-.5.531 0 1.016.187a2.45 2.45 0 0 1 1.422 1.282q.219.453.219 1.015 0 .735-.313 1.375a3.6 3.6 0 0 1-.828 1.11q-.516.468-1.188.765a4 4 0 0 1-1.375.313q.063.453.36.656.312.203.734.203.313 0 .61-.156.296-.156.578-.344.281-.203.547-.36a1.15 1.15 0 0 1 .562-.156.87.87 0 0 1 .563.203q.25.204.25.532m-2.532-3.828a.94.94 0 0 0-.11-.422.36.36 0 0 0-.343-.219.9.9 0 0 0-.578.188 1.4 1.4 0 0 0-.39.453q-.157.266-.25.578a3 3 0 0 0-.094.578q.218-.047.515-.125a3 3 0 0 0 .578-.203 1.6 1.6 0 0 0 .47-.344.66.66 0 0 0 .202-.484m13.657-3.672q0 1.14-.094 2.265-.078 1.126-.078 2.266 0 .922.047 1.828.062.906.062 1.828 0 .25-.016.61-.015.343-.109.672a1.3 1.3 0 0 1-.281.562q-.188.234-.547.234-.47 0-.781-.343a1.7 1.7 0 0 1-.375-.797 2.7 2.7 0 0 1-.86.953q-.562.39-1.218.39a1.72 1.72 0 0 1-1.22-.484 4.3 4.3 0 0 1-.843-1.172 7 7 0 0 1-.5-1.437 6.5 6.5 0 0 1-.156-1.297 9.6 9.6 0 0 1 .203-1.906q.124-.516.312-1 .188-.5.47-.891.296-.39.687-.625.406-.234.922-.234.562 0 1.078.328.515.328.78.812l.142-2.484q.015-.297.046-.688.032-.406.125-.765.11-.36.329-.61.218-.25.64-.25.453 0 .703.22.25.217.36.562.125.328.14.718.032.39.032.735m-2.547 6.937q0-.36-.016-.703a8 8 0 0 1 0-.703 9 9 0 0 0-.219-.437 2 2 0 0 0-.312-.454 1.6 1.6 0 0 0-.39-.359.85.85 0 0 0-.47-.14.6.6 0 0 0-.453.171 1 1 0 0 0-.25.422 2.5 2.5 0 0 0-.11.516q-.015.281-.015.484 0 .188.032.563.03.36.109.734.094.375.25.656t.422.282q.202 0 .406-.079.202-.093.375-.218.188-.141.344-.297.171-.172.297-.313zm6.156-7.562a.65.65 0 0 1-.125.39 1.2 1.2 0 0 1-.297.313q-.187.124-.406.203a1.5 1.5 0 0 1-.407.063.96.96 0 0 1-.546-.157q-.235-.156-.235-.484a.74.74 0 0 1 .11-.406q.125-.187.296-.297.172-.126.391-.188t.422-.062q.297 0 .547.14t.25.485m.125 5.312v.469q0 .234-.016.453-.015.266-.015.719 0 .438-.032.953-.03.516-.109 1.047a4.4 4.4 0 0 1-.219.969 2 2 0 0 1-.422.718.9.9 0 0 1-.64.282.58.58 0 0 1-.5-.235 2.2 2.2 0 0 1-.344-.64 5.4 5.4 0 0 1-.187-.891 17 17 0 0 1-.094-.953q-.031-.47-.031-.86v-1.281q0-.468.03-1 .032-.53.11-1.078a6.4 6.4 0 0 1 .25-1 2.2 2.2 0 0 1 .438-.734.88.88 0 0 1 .671-.282q.422 0 .641.422.219.423.328.985t.125 1.125q.016.546.016.812m7.75 3.39q0 .282-.031.735a4.3 4.3 0 0 1-.125.89 2.1 2.1 0 0 1-.344.735q-.234.313-.656.313-.579 0-.891-.375t-.297-.938q-.5.438-1.14.688-.625.25-1.282.25-.453 0-.86-.219a2.7 2.7 0 0 1-.718-.562 2.9 2.9 0 0 1-.5-.766 2.2 2.2 0 0 1-.187-.86q0-.75.453-1.312a4.3 4.3 0 0 1 1.14-.953q.672-.406 1.422-.64.766-.235 1.36-.313v-.14a.6.6 0 0 0 .015-.142q0-.484-.265-.78-.266-.298-.75-.298-.39 0-.672.141a3.3 3.3 0 0 0-.532.297q-.25.156-.5.297a1.24 1.24 0 0 1-.562.125.87.87 0 0 1-.594-.219.74.74 0 0 1-.234-.562q0-.516.297-.938.312-.422.765-.703a4 4 0 0 1 1-.453 3.4 3.4 0 0 1 1-.172q.423 0 .844.11.422.093.797.312.375.203.672.515.312.297.5.703.28.579.453 1.235.172.64.266 1.328.093.672.125 1.36.03.671.03 1.312m-2.5-.5-.047-1.062h-.062a.14.14 0 0 0-.063-.015q-.203 0-.516.11-.296.093-.578.28A2.3 2.3 0 0 0 69.3 41a.7.7 0 0 0-.188.453q0 .219.157.297a.8.8 0 0 0 .359.078q.345 0 .734-.172.39-.187.688-.36m10.828-2.452q0 .453-.078 1.031-.063.562-.219 1.156a6.6 6.6 0 0 1-.39 1.157 4.3 4.3 0 0 1-.594 1.015q-.344.438-.813.703a2.06 2.06 0 0 1-1.062.266q-.64 0-1.172-.297a2.9 2.9 0 0 1-.89-.812 1.3 1.3 0 0 1-.345.75 1 1 0 0 1-.75.312q-.266 0-.453-.266a2.4 2.4 0 0 1-.28-.672 7 7 0 0 1-.173-.921 16 16 0 0 1-.062-.97q-.016-.468-.016-.843V38.86l.031-1.078q0-.265-.015-.797 0-.53.015-1.172.016-.656.063-1.328.063-.687.203-1.25t.39-.922q.25-.36.641-.374.314 0 .531.218.219.22.36.578.156.36.234.813.094.438.125.89.047.438.047.844.016.39.016.64 0 .048-.016.22v.843q.141-.297.406-.578.266-.28.594-.5.328-.218.688-.36.36-.14.687-.14.657 0 1.094.344.453.328.719.844.266.515.375 1.125.11.593.109 1.125m-2.297.468q0-.187-.031-.406a1.1 1.1 0 0 0-.11-.406.8.8 0 0 0-.234-.312.54.54 0 0 0-.375-.126q-.25 0-.5.11a2.3 2.3 0 0 0-.453.281q-.219.173-.406.375-.188.187-.328.375l-.157 1.39q.25.36.61.579.36.203.812.203.345 0 .563-.219.234-.219.36-.531a2.6 2.6 0 0 0 .187-.687q.062-.36.062-.626m9.797 1.907q0 .531-.344 1.047-.328.5-.844.906-.5.39-1.078.64-.578.235-1.062.235a2.76 2.76 0 0 1-1.485-.406 3.9 3.9 0 0 1-1.078-1.063 5.2 5.2 0 0 1-.672-1.406 5.6 5.6 0 0 1-.218-1.516q0-.78.218-1.672.219-.89.657-1.64.453-.75 1.125-1.25.687-.5 1.625-.5.53 0 1.015.187a2.45 2.45 0 0 1 1.422 1.282q.219.453.219 1.015 0 .735-.312 1.375a3.6 3.6 0 0 1-.829 1.11q-.516.468-1.187.765a4 4 0 0 1-1.375.313q.062.453.36.656.31.203.734.203.312 0 .609-.156.296-.156.578-.344.282-.203.547-.36a1.15 1.15 0 0 1 .563-.156.87.87 0 0 1 .562.203q.25.204.25.532m-2.531-3.828a.94.94 0 0 0-.11-.422.36.36 0 0 0-.343-.219.9.9 0 0 0-.579.188 1.4 1.4 0 0 0-.39.453q-.156.266-.25.578a3 3 0 0 0-.094.578q.219-.047.516-.125a3 3 0 0 0 .578-.203 1.6 1.6 0 0 0 .469-.344.66.66 0 0 0 .203-.484m6.797 7.172q-1.11 0-1.735-.297a2 2 0 0 1-.922-.813q-.296-.531-.359-1.281-.062-.75-.062-1.672 0-.735.046-1.469.047-.75.141-1.593-.219 0-.344.015h-.203q-.5 0-.86-.219-.374-.218-.374-.672 0-.28.218-.5a1.7 1.7 0 0 1 .532-.374 3.7 3.7 0 0 1 .703-.25q.39-.094.734-.126 0-.437.063-.968.062-.531.218-.985.172-.469.454-.78a.92.92 0 0 1 .718-.313q.25 0 .438.156.203.141.328.375.125.218.188.5.062.281.062.547 0 .313-.047.64a8 8 0 0 1-.172.813q.266-.031.36-.031.094-.015.171-.016.267 0 .547.047.297.047.532.156.25.11.406.297a.6.6 0 0 1 .156.422.67.67 0 0 1-.234.5q-.22.218-.563.375-.344.156-.734.25-.39.078-.735.11-.093.64-.14 1.187-.031.53-.078 1.078l-.063.547q-.015.266-.015.547 0 .203.015.484.015.266.11.516.093.25.296.437.203.172.563.172.219 0 .453-.031a2.4 2.4 0 0 1 .469-.047q.405 0 .578.281.188.282.188.719a.9.9 0 0 1-.204.578 1.35 1.35 0 0 1-.484.375 2.6 2.6 0 0 1-.672.234q-.36.078-.687.078m8.906-3.344q0 .531-.344 1.047-.328.5-.844.906a5 5 0 0 1-1.078.64q-.578.235-1.062.235a2.76 2.76 0 0 1-1.485-.406 3.9 3.9 0 0 1-1.078-1.063 5.2 5.2 0 0 1-.672-1.406 5.6 5.6 0 0 1-.218-1.516q0-.78.218-1.672.219-.89.657-1.64.453-.75 1.125-1.25.687-.5 1.625-.5.53 0 1.015.187a2.46 2.46 0 0 1 1.422 1.282q.219.453.219 1.015 0 .735-.313 1.375a3.6 3.6 0 0 1-.828 1.11 4.4 4.4 0 0 1-1.187.765 4 4 0 0 1-1.375.313q.061.453.36.656.311.203.733.203.313 0 .61-.156.296-.156.578-.344.281-.203.547-.36.281-.156.562-.156a.87.87 0 0 1 .563.203.65.65 0 0 1 .25.532m-2.531-3.828a.94.94 0 0 0-.11-.422.36.36 0 0 0-.344-.219.9.9 0 0 0-.578.188 1.4 1.4 0 0 0-.39.453q-.157.266-.25.578a3 3 0 0 0-.094.578q.219-.047.516-.125.312-.078.578-.203a1.6 1.6 0 0 0 .468-.344.66.66 0 0 0 .204-.484m7.734-1.985q0 .453-.313.672a6 6 0 0 1-.671.422q-.376.188-.688.453-.297.266-.297.797a.9.9 0 0 0 .125.484q.14.203.328.375.204.157.438.328t.422.391q.203.219.328.531.14.313.14.766 0 .657-.343 1.297a4.3 4.3 0 0 1-.86 1.125 4.3 4.3 0 0 1-1.172.781 3.1 3.1 0 0 1-1.296.297q-.266 0-.532-.047a1.5 1.5 0 0 1-.484-.14 1.05 1.05 0 0 1-.344-.297.9.9 0 0 1-.14-.516q0-.438.171-.672.172-.25.438-.39t.562-.22q.314-.077.579-.187.266-.124.437-.312.172-.187.172-.532 0-.327-.266-.671a14 14 0 0 0-.562-.75 8 8 0 0 1-.578-.86 2.03 2.03 0 0 1-.25-1q0-.672.265-1.234.282-.579.735-1a3.5 3.5 0 0 1 1.062-.656q.594-.25 1.25-.25.25 0 .485.047.25.046.437.171a.8.8 0 0 1 .297.313.86.86 0 0 1 .125.484m2.875 7.766q0 .25-.141.64-.124.39-.328.766-.188.375-.437.64-.25.266-.485.266-.312 0-.312-.312a.9.9 0 0 1 .078-.36q.078-.171.172-.343.094-.156.172-.328a.7.7 0 0 0 .078-.313.9.9 0 0 1-.5.156.79.79 0 0 1-.61-.28.92.92 0 0 1-.25-.626q0-.5.329-.797.327-.312.828-.312.563 0 .984.297t.422.906M120.814 38q0 .079-.015.172a1 1 0 0 1-.047.156q-.141.36-.438.61a1.1 1.1 0 0 1-.703.234q-.609 0-.828-.61a.5.5 0 0 1-.031-.171q0-.11-.016-.22v-.452a.9.9 0 0 0-.109-.344q-.078-.125-.266-.125-.266 0-.515.344a3.8 3.8 0 0 0-.422.797 7 7 0 0 0-.281.937q-.11.484-.11.781 0 .236.031.578.032.33.125.641.094.312.25.547a.54.54 0 0 0 .438.219.8.8 0 0 0 .484-.157q.236-.171.453-.39.204-.187.438-.39a.87.87 0 0 1 .562-.204q.391 0 .61.281a.97.97 0 0 1 .234.641q0 .532-.281 1a3.2 3.2 0 0 1-.703.797q-.422.328-.938.516a2.7 2.7 0 0 1-.984.203q-.844 0-1.438-.422a3.3 3.3 0 0 1-.937-1.063 5 5 0 0 1-.516-1.422 7.3 7.3 0 0 1-.156-1.453q0-.797.219-1.718.219-.939.672-1.735a4.3 4.3 0 0 1 1.156-1.328q.719-.531 1.703-.531.609 0 1.047.265.453.266.734.703.297.423.438.954.156.531.156 1.047v.156a1 1 0 0 1-.016.156m3.844 6.453q-.797 0-1.39-.422a3.7 3.7 0 0 1-1-1.078 5.2 5.2 0 0 1-.61-1.453 6.6 6.6 0 0 1-.203-1.594q0-.828.203-1.703.204-.89.625-1.61.422-.734 1.078-1.187.657-.468 1.563-.468.875 0 1.484.484.625.468 1 1.187.375.705.531 1.547.157.844.11 1.594a8.6 8.6 0 0 1-.266 1.672 5.3 5.3 0 0 1-.609 1.516 3.5 3.5 0 0 1-1.031 1.093q-.626.422-1.485.422m.156-7.062q-.234 0-.421.25-.172.25-.297.609-.11.36-.172.766-.063.39-.063.687 0 .375.063.813.078.437.203.812.125.36.297.61.187.234.422.234.25 0 .422-.234.188-.236.296-.594.11-.36.157-.782a8 8 0 0 0 .047-.812q0-.345-.063-.75a4.3 4.3 0 0 0-.187-.781 1.8 1.8 0 0 0-.297-.594q-.172-.234-.407-.234m8.61-1.985q0 .453-.313.672a6 6 0 0 1-.672.422q-.375.188-.687.453-.297.266-.297.797a.9.9 0 0 0 .125.484q.14.203.328.375.203.157.438.328t.422.391q.202.219.328.531.14.313.14.766 0 .657-.343 1.297a4.3 4.3 0 0 1-.86 1.125 4.3 4.3 0 0 1-1.172.781 3.1 3.1 0 0 1-1.297.297q-.266 0-.531-.047a1.5 1.5 0 0 1-.484-.14 1.04 1.04 0 0 1-.344-.297.9.9 0 0 1-.141-.516q0-.438.172-.672.173-.25.438-.39t.562-.22q.313-.077.578-.187a1.4 1.4 0 0 0 .438-.312q.172-.187.172-.532 0-.327-.266-.671a14 14 0 0 0-.562-.75 8 8 0 0 1-.578-.86 2.03 2.03 0 0 1-.25-1q0-.672.265-1.234.282-.579.735-1a3.5 3.5 0 0 1 1.062-.656q.594-.25 1.25-.25.25 0 .484.047.25.046.438.171a.8.8 0 0 1 .297.313.86.86 0 0 1 .125.484m4.265 9.157q-1.109 0-1.734-.297a2 2 0 0 1-.922-.813q-.297-.531-.359-1.281-.063-.75-.063-1.672 0-.735.047-1.469.047-.75.141-1.593-.22 0-.344.015h-.203a1.6 1.6 0 0 1-.859-.219q-.375-.218-.375-.672a.7.7 0 0 1 .218-.5q.204-.218.532-.374.327-.157.703-.25.39-.094.734-.126 0-.437.063-.968.062-.531.218-.985.173-.469.453-.78a.93.93 0 0 1 .719-.313q.25 0 .438.156.203.141.328.375.125.218.187.5.063.281.063.547 0 .313-.047.64-.047.33-.172.813.266-.031.359-.031.094-.015.172-.016.266 0 .547.047.297.047.531.156.25.11.407.297a.6.6 0 0 1 .156.422.67.67 0 0 1-.234.5q-.22.218-.563.375a4 4 0 0 1-.734.25 7 7 0 0 1-.735.11 20 20 0 0 0-.14 1.187q-.031.53-.078 1.078l-.063.547q-.016.266-.016.547 0 .203.016.484.016.266.109.516.095.25.297.437.204.172.563.172.219 0 .453-.031.234-.047.469-.047.406 0 .578.281.187.282.187.719a.9.9 0 0 1-.203.578 1.35 1.35 0 0 1-.484.375 2.6 2.6 0 0 1-.672.234q-.36.078-.688.078m9.204-5.032q0 .859-.172 1.703a4.8 4.8 0 0 1-.578 1.516 3.15 3.15 0 0 1-1.094 1.063q-.672.405-1.688.406-1 0-1.672-.39a3.2 3.2 0 0 1-1.078-1.063 4.8 4.8 0 0 1-.562-1.485 9 9 0 0 1-.156-1.687q0-.937.218-1.86.048-.249.172-.687.141-.453.344-.875.219-.438.484-.75.282-.312.61-.313.312 0 .5.172t.297.438q.109.25.14.547.031.28.031.515 0 .36-.062.703-.047.345-.109.688l-.125.937a9 9 0 0 0-.032 1.47q.032.28.125.546.094.266.266.453.172.172.484.172.407 0 .641-.219.25-.219.359-.547.126-.328.157-.703.03-.375.031-.687 0-.688-.094-1.344-.094-.672-.172-1.36a1.5 1.5 0 0 1 .063-.687 1.5 1.5 0 0 1 .218-.422q.141-.187.344-.297a.85.85 0 0 1 .453-.125q.345 0 .61.25.266.235.437.625.187.375.297.86.125.468.188.937.078.453.093.86.032.406.032.64m10.437-.687v.812q0 .5-.031 1.094-.016.594-.094 1.203a5.3 5.3 0 0 1-.25 1.078 2.5 2.5 0 0 1-.406.797.79.79 0 0 1-.641.313.6.6 0 0 1-.531-.282 2.2 2.2 0 0 1-.25-.687 5 5 0 0 1-.094-.797v-.64q0-.704.047-1.376t.047-1.375v-.28q0-.204-.031-.407a1.2 1.2 0 0 0-.11-.36q-.062-.156-.203-.156-.28 0-.453.297a2.7 2.7 0 0 0-.281.672q-.11.39-.156.781-.047.375-.063.563a8 8 0 0 0-.062.61q-.017.405-.063.89a9 9 0 0 1-.125 1 6 6 0 0 1-.219.922q-.124.405-.328.672-.203.265-.5.265a.64.64 0 0 1-.578-.328 2.4 2.4 0 0 1-.297-.766 6.4 6.4 0 0 1-.125-.89 23 23 0 0 1-.015-.703v-.516q.015-.25.015-.516v-.359q0-.25-.015-.547 0-.312-.032-.64a5 5 0 0 0-.062-.594 1.4 1.4 0 0 0-.141-.453q-.093-.172-.219-.172-.202 0-.375.265-.171.25-.296.61-.125.343-.204.687-.062.344-.062.5v.094q0 .75.094 1.469.093.718.093 1.468 0 .438-.281.813-.281.36-.781.36a.76.76 0 0 1-.594-.266 2.4 2.4 0 0 1-.39-.719 6 6 0 0 1-.25-.953 13 13 0 0 1-.11-1.031 45 45 0 0 1-.047-.922v-.625q0-.235-.015-.688 0-.453.015-.984.031-.531.094-1.078a5.5 5.5 0 0 1 .203-1.016 2.3 2.3 0 0 1 .36-.734.72.72 0 0 1 .593-.297q.406 0 .657.219.265.218.265.656 0 .093-.015.187 0 .094-.016.172.172-.25.422-.5.25-.265.531-.468.297-.219.625-.344.329-.14.656-.14a.97.97 0 0 1 .563.171q.25.172.437.438.188.249.313.546.124.297.172.563.156-.282.375-.563.234-.297.5-.515t.578-.36q.328-.14.672-.14.327 0 .562.234.234.235.406.61.173.36.266.828.094.453.156.906.063.438.078.828.016.375.016.594m7.672 2.953q0 .28-.031.734a4.3 4.3 0 0 1-.125.89 2.1 2.1 0 0 1-.344.735q-.234.313-.656.313-.579 0-.891-.375t-.297-.938q-.5.438-1.14.688-.625.25-1.282.25-.453 0-.859-.219a2.7 2.7 0 0 1-.719-.562 2.9 2.9 0 0 1-.5-.766 2.2 2.2 0 0 1-.187-.86q0-.75.453-1.312a4.3 4.3 0 0 1 1.14-.953q.672-.406 1.422-.64a8.5 8.5 0 0 1 1.36-.313v-.14a.6.6 0 0 0 .015-.142q0-.484-.265-.78-.265-.298-.75-.298-.392 0-.672.141a3.3 3.3 0 0 0-.531.297q-.25.156-.5.297a1.25 1.25 0 0 1-.563.125.87.87 0 0 1-.594-.219.74.74 0 0 1-.234-.562q0-.516.297-.938.312-.422.765-.703a4 4 0 0 1 1-.453 3.4 3.4 0 0 1 1-.172q.423 0 .844.11.422.093.797.312.375.203.672.515.312.297.5.703.281.579.453 1.235.172.64.266 1.328.093.672.125 1.36.031.671.031 1.312m-2.5-.5-.047-1.063h-.062a.14.14 0 0 0-.063-.015q-.203 0-.516.11a2.3 2.3 0 0 0-.578.28 2.3 2.3 0 0 0-.484.391.7.7 0 0 0-.188.453q0 .219.157.297a.8.8 0 0 0 .359.078q.344 0 .734-.172.391-.187.688-.36m13.844.5q0 .28-.032.734-.015.454-.125.89a2.1 2.1 0 0 1-.343.735q-.235.313-.657.313-.578 0-.89-.375t-.297-.938q-.5.438-1.141.688-.624.25-1.281.25-.453 0-.859-.219a2.7 2.7 0 0 1-.719-.562 2.9 2.9 0 0 1-.5-.766 2.2 2.2 0 0 1-.188-.86q0-.75.454-1.312a4.2 4.2 0 0 1 1.14-.953q.672-.406 1.422-.64.766-.235 1.359-.313v-.14a.6.6 0 0 0 .016-.142q0-.484-.266-.78-.265-.298-.75-.298-.39 0-.671.141a3.3 3.3 0 0 0-.532.297q-.25.156-.5.297a1.24 1.24 0 0 1-.562.125.87.87 0 0 1-.594-.219.74.74 0 0 1-.234-.562q0-.516.297-.938.312-.422.765-.703a4 4 0 0 1 1-.453 3.4 3.4 0 0 1 1-.172q.422 0 .844.11.422.093.797.312.375.203.672.515.312.297.5.703.28.579.453 1.235.172.64.265 1.328.095.672.125 1.36.032.671.032 1.312m-2.5-.5-.047-1.063h-.063a.13.13 0 0 0-.062-.015q-.203 0-.516.11-.297.093-.578.28a2.3 2.3 0 0 0-.484.391.7.7 0 0 0-.188.453q0 .219.156.297a.8.8 0 0 0 .36.078q.344 0 .734-.172.391-.187.688-.36m10.593-1.953q0 .687-.156 1.515a5.3 5.3 0 0 1-.5 1.516q-.343.704-.922 1.172-.562.468-1.422.469-.218 0-.453-.032a2.2 2.2 0 0 1-.453-.109 1.7 1.7 0 0 1-.375-.203.9.9 0 0 1-.265-.36l-.141 2.25q-.015.36-.031.86 0 .499-.125.953a1.7 1.7 0 0 1-.391.766q-.265.328-.781.328-.297 0-.5-.313a2.5 2.5 0 0 1-.328-.765 9 9 0 0 1-.172-1.047 14 14 0 0 1-.078-1.11 31 31 0 0 1-.016-.968v-.641q0-1.046-.016-2.078-.015-1.047-.015-2.094v-.578q0-.405.031-.875.031-.468.094-.969.078-.5.219-.906a1.9 1.9 0 0 1 .359-.672.67.67 0 0 1 .531-.266q.203 0 .36.126a.86.86 0 0 1 .281.296q.125.173.203.375.078.203.125.375a3.3 3.3 0 0 1 1.109-.828 3.35 3.35 0 0 1 1.36-.281q.75 0 1.218.422.485.422.75 1.047.282.624.391 1.343.11.704.109 1.282m-2.234-.125q0-.235-.047-.469a1.3 1.3 0 0 0-.14-.453.77.77 0 0 0-.282-.344.76.76 0 0 0-.468-.14q-.375 0-.797.25a1.75 1.75 0 0 0-.61.546q-.078.126-.093.407a8 8 0 0 0-.016.422v.296l.031.36.031.36a1 1 0 0 0 .079.265.6.6 0 0 0 .203.265q.156.11.343.203t.375.141q.203.047.344.047a.65.65 0 0 0 .531-.25q.204-.25.313-.594.125-.343.156-.703.047-.375.047-.61m9.828 2.578q0 .28-.031.734-.015.454-.125.89a2.1 2.1 0 0 1-.344.735q-.234.313-.656.313-.577 0-.891-.375-.312-.375-.297-.938-.5.438-1.14.688-.626.25-1.281.25a1.8 1.8 0 0 1-.86-.219 2.7 2.7 0 0 1-.719-.562 2.9 2.9 0 0 1-.5-.766 2.2 2.2 0 0 1-.187-.86q0-.75.453-1.312a4.3 4.3 0 0 1 1.141-.953q.672-.406 1.422-.64.765-.235 1.359-.313v-.14a.6.6 0 0 0 .016-.142q0-.484-.266-.78-.266-.298-.75-.298-.39 0-.672.141a3.3 3.3 0 0 0-.531.297q-.25.156-.5.297a1.24 1.24 0 0 1-.563.125.87.87 0 0 1-.593-.219.73.73 0 0 1-.235-.562q0-.516.297-.938.313-.422.766-.703a4 4 0 0 1 1-.453 3.4 3.4 0 0 1 1-.172q.422 0 .843.11.423.093.797.312.375.203.672.515.313.297.5.703.282.579.453 1.235.172.64.266 1.328.093.672.125 1.36.031.671.031 1.312m-2.5-.5-.047-1.063h-.062a.14.14 0 0 0-.063-.015q-.203 0-.515.11a2.3 2.3 0 0 0-.578.28 2.3 2.3 0 0 0-.485.391.7.7 0 0 0-.187.453q0 .219.156.297a.8.8 0 0 0 .359.078q.344 0 .735-.172.39-.187.687-.36m8.86-3.14q-.219.015-.375-.032l-.313-.125a3 3 0 0 0-.281-.11.6.6 0 0 0-.313-.046q-.312.015-.562.172a2.2 2.2 0 0 0-.438.39 2.7 2.7 0 0 0-.328.532 3 3 0 0 0-.219.562 4 4 0 0 0-.078.578q-.015.375-.015.813a24 24 0 0 0-.016.859q0 .406-.031.64a6 6 0 0 1-.078.594 2.6 2.6 0 0 1-.203.625 1.4 1.4 0 0 1-.344.5.8.8 0 0 1-.563.203.75.75 0 0 1-.468-.156 1.4 1.4 0 0 1-.329-.406 4 4 0 0 1-.218-.61 8 8 0 0 1-.125-.703q-.048-.375-.078-.75-.016-.375-.032-.703v-.625q.016-.28.016-.453-.015-.546-.063-1.093-.03-.563-.031-1.11 0-.343.031-.766.032-.42.172-.78.141-.376.407-.626.28-.25.765-.25.265 0 .453.172.187.172.297.422.125.25.188.531.062.282.078.516.375-.609.844-.984.468-.391 1.218-.422.375-.016.735.078.375.078.672.281.312.188.5.5.203.312.218.734.031.5-.297.766-.327.265-.796.281m7.875 3.062q0 .531-.344 1.047-.328.5-.844.906-.5.39-1.078.64-.578.235-1.063.235a2.76 2.76 0 0 1-1.484-.406 3.9 3.9 0 0 1-1.078-1.063 5.1 5.1 0 0 1-.672-1.406 5.6 5.6 0 0 1-.219-1.516q0-.78.219-1.672.22-.89.656-1.64.453-.75 1.125-1.25.688-.5 1.625-.5.532 0 1.016.187a2.46 2.46 0 0 1 1.422 1.282q.219.453.219 1.015a3.1 3.1 0 0 1-.313 1.375 3.6 3.6 0 0 1-.828 1.11 4.4 4.4 0 0 1-1.188.765 4 4 0 0 1-1.375.313q.063.453.36.656.312.203.734.203.313 0 .61-.156.296-.156.578-.344.281-.203.547-.36.281-.156.562-.156.312 0 .563.203t.25.532m-2.532-3.828a.94.94 0 0 0-.109-.422.36.36 0 0 0-.344-.219.9.9 0 0 0-.578.188 1.4 1.4 0 0 0-.391.453q-.156.266-.25.578a3 3 0 0 0-.093.578q.219-.047.515-.125a3 3 0 0 0 .578-.203q.282-.141.469-.344a.66.66 0 0 0 .203-.484m8.953.609q0 .079-.015.172a1 1 0 0 1-.047.156q-.141.36-.438.61a1.1 1.1 0 0 1-.703.234q-.609 0-.828-.61a.5.5 0 0 1-.031-.171q0-.11-.016-.22v-.452a.9.9 0 0 0-.109-.344q-.078-.125-.266-.125-.266 0-.515.344a3.8 3.8 0 0 0-.422.797 7 7 0 0 0-.281.937q-.11.484-.11.781 0 .236.031.578.032.33.125.641.094.312.25.547a.54.54 0 0 0 .438.219.8.8 0 0 0 .484-.157q.236-.171.453-.39.204-.187.438-.39a.87.87 0 0 1 .562-.204q.391 0 .61.281a.97.97 0 0 1 .234.641q0 .532-.281 1a3.2 3.2 0 0 1-.703.797q-.422.328-.938.516a2.7 2.7 0 0 1-.984.203q-.844 0-1.438-.422a3.3 3.3 0 0 1-.937-1.063 5 5 0 0 1-.516-1.422 7.3 7.3 0 0 1-.156-1.453q0-.797.219-1.718.219-.939.672-1.735a4.3 4.3 0 0 1 1.156-1.328q.719-.531 1.703-.531.609 0 1.047.265.453.266.734.703.297.423.438.954.156.531.156 1.047v.156a1 1 0 0 1-.016.156m7.422 3.219q0 .531-.343 1.047-.328.5-.844.906-.5.39-1.078.64-.579.235-1.063.235a2.76 2.76 0 0 1-1.484-.406 3.9 3.9 0 0 1-1.078-1.063 5.1 5.1 0 0 1-.672-1.406 5.6 5.6 0 0 1-.219-1.516q0-.78.219-1.672.219-.89.656-1.64.453-.75 1.125-1.25.687-.5 1.625-.5.531 0 1.016.187.485.173.843.5.36.329.579.782t.218 1.015q0 .735-.312 1.375a3.7 3.7 0 0 1-.828 1.11 4.4 4.4 0 0 1-1.188.765 4 4 0 0 1-1.375.313q.063.453.36.656.312.203.734.203.312 0 .609-.156a6 6 0 0 0 .578-.344q.282-.203.547-.36.281-.156.563-.156.313 0 .562.203a.65.65 0 0 1 .25.532m-2.531-3.828a.94.94 0 0 0-.109-.422.36.36 0 0 0-.344-.219.9.9 0 0 0-.578.188 1.4 1.4 0 0 0-.391.453q-.156.266-.25.578a3 3 0 0 0-.094.578q.219-.047.516-.125.312-.078.578-.203.282-.141.469-.344a.66.66 0 0 0 .203-.484m8.578.765q-.219.015-.375-.031l-.312-.125a3 3 0 0 0-.282-.11.6.6 0 0 0-.312-.046q-.312.015-.563.172a2.2 2.2 0 0 0-.437.39 2.7 2.7 0 0 0-.328.532 3 3 0 0 0-.219.562 4 4 0 0 0-.078.578q-.015.375-.016.813-.015.453-.015.859t-.032.64q-.015.25-.078.594a2.5 2.5 0 0 1-.203.625 1.4 1.4 0 0 1-.344.5.8.8 0 0 1-.562.203.75.75 0 0 1-.469-.156 1.4 1.4 0 0 1-.328-.406 4 4 0 0 1-.219-.61 8 8 0 0 1-.125-.703q-.046-.375-.078-.75-.015-.375-.031-.703v-.625q.015-.28.016-.453-.017-.546-.063-1.093a20 20 0 0 1-.031-1.11q0-.343.031-.766.031-.42.172-.78a1.6 1.6 0 0 1 .406-.626q.282-.25.766-.25.266 0 .453.172.188.172.297.422.125.25.187.531.063.282.078.516.376-.609.844-.984.47-.391 1.219-.422.375-.016.734.078.375.078.672.281.313.188.5.5.204.312.219.734.031.5-.297.766-.328.265-.797.281M39.213 62.22q0 .531-.344 1.047-.328.5-.844.906-.5.39-1.078.64-.578.235-1.062.235a2.76 2.76 0 0 1-1.485-.406 3.9 3.9 0 0 1-1.078-1.063 5.2 5.2 0 0 1-.672-1.406 5.6 5.6 0 0 1-.218-1.516q0-.78.218-1.672.219-.89.657-1.64.453-.75 1.125-1.25.687-.5 1.625-.5.53 0 1.015.187a2.45 2.45 0 0 1 1.422 1.282q.219.453.219 1.015 0 .735-.313 1.375a3.6 3.6 0 0 1-.828 1.11q-.516.468-1.187.765a4 4 0 0 1-1.375.313q.061.453.36.656.312.203.733.203.313 0 .61-.156T37.29 62q.282-.203.547-.36a1.15 1.15 0 0 1 .562-.156.87.87 0 0 1 .563.203q.25.204.25.532m-2.531-3.828a.94.94 0 0 0-.11-.422.36.36 0 0 0-.344-.219.9.9 0 0 0-.578.188 1.4 1.4 0 0 0-.39.453q-.157.266-.25.578a3 3 0 0 0-.094.578q.219-.047.516-.125a3 3 0 0 0 .578-.203q.28-.141.468-.344a.66.66 0 0 0 .204-.484m12.64 1.453v.812q0 .5-.031 1.094-.016.594-.094 1.203a5.3 5.3 0 0 1-.25 1.078q-.157.485-.406.797a.78.78 0 0 1-.64.313.6.6 0 0 1-.532-.282 2.2 2.2 0 0 1-.25-.687 5 5 0 0 1-.094-.797v-.64q0-.704.047-1.376t.047-1.375v-.28q0-.204-.031-.407a1.2 1.2 0 0 0-.11-.36q-.062-.156-.203-.156-.28 0-.453.297a2.7 2.7 0 0 0-.281.672q-.11.39-.156.781-.047.375-.063.563-.03.202-.062.61-.016.405-.063.89-.03.484-.125 1-.078.5-.219.922-.124.405-.328.671-.203.266-.5.266a.64.64 0 0 1-.578-.328 2.4 2.4 0 0 1-.297-.766 6 6 0 0 1-.125-.89q-.015-.453-.015-.703v-.516q.015-.25.015-.516v-.359q0-.25-.015-.547 0-.312-.032-.64a5 5 0 0 0-.062-.594 1.5 1.5 0 0 0-.14-.453q-.094-.172-.22-.172-.203 0-.374.265-.172.25-.297.61-.126.343-.203.687-.063.344-.063.5v.094q0 .75.094 1.469.093.718.094 1.468 0 .438-.282.813-.28.36-.78.36a.76.76 0 0 1-.595-.266 2.3 2.3 0 0 1-.39-.719 6 6 0 0 1-.25-.953 12 12 0 0 1-.11-1.031q-.03-.516-.047-.922v-.625q0-.235-.015-.688 0-.453.015-.984.032-.531.094-1.078.063-.563.203-1.016t.36-.734a.73.73 0 0 1 .593-.297q.407 0 .657.219.265.218.265.656 0 .093-.015.187a1 1 0 0 1-.016.172q.172-.25.422-.5a3.7 3.7 0 0 1 .531-.468q.297-.218.625-.344.329-.14.656-.14a.97.97 0 0 1 .563.171q.25.172.438.438.187.249.312.546.124.297.172.563.157-.282.375-.563.234-.297.5-.515t.578-.36a1.7 1.7 0 0 1 .672-.14q.328 0 .562.234t.407.61q.171.36.265.828.095.453.156.906.063.438.079.828.015.375.015.594m11.438 2.953q0 .28-.032.734a4.3 4.3 0 0 1-.125.89 2.1 2.1 0 0 1-.343.735q-.235.313-.657.313-.578 0-.89-.375t-.297-.938q-.5.438-1.14.688-.625.25-1.282.25-.453 0-.86-.219a2.7 2.7 0 0 1-.718-.562 2.9 2.9 0 0 1-.5-.766 2.2 2.2 0 0 1-.187-.86q0-.75.453-1.312a4.3 4.3 0 0 1 1.14-.953q.672-.406 1.422-.64.766-.235 1.36-.313v-.14a.6.6 0 0 0 .015-.142q0-.484-.266-.78-.266-.298-.75-.298-.39 0-.671.141a3.3 3.3 0 0 0-.532.297q-.25.156-.5.297a1.24 1.24 0 0 1-.562.125.87.87 0 0 1-.594-.219.74.74 0 0 1-.234-.562q0-.516.297-.938.312-.422.765-.703a4 4 0 0 1 1-.453 3.4 3.4 0 0 1 1-.172q.422 0 .844.11.422.093.797.312.375.203.672.515.312.298.5.703.28.579.453 1.235.172.64.265 1.328.095.672.125 1.36.032.671.032 1.312m-2.5-.5-.047-1.063h-.063a.14.14 0 0 0-.062-.015q-.203 0-.516.11-.297.093-.578.28a2.3 2.3 0 0 0-.484.391.7.7 0 0 0-.188.453q0 .219.156.297a.8.8 0 0 0 .36.078q.344 0 .734-.172.39-.187.688-.36m10.172-7.578q0 1.14-.094 2.265-.078 1.126-.078 2.266 0 .922.047 1.828.062.906.062 1.828 0 .25-.016.61-.015.343-.109.672a1.3 1.3 0 0 1-.281.562q-.187.234-.547.234-.468 0-.781-.343a1.7 1.7 0 0 1-.375-.797 2.7 2.7 0 0 1-.86.953q-.562.39-1.218.39a1.72 1.72 0 0 1-1.22-.484 4.3 4.3 0 0 1-.843-1.172 7 7 0 0 1-.5-1.437 6.5 6.5 0 0 1-.156-1.297 9.6 9.6 0 0 1 .203-1.906q.125-.516.313-1 .186-.5.468-.891.297-.39.688-.625.406-.234.922-.234.562 0 1.078.328.515.328.781.812l.14-2.484q.017-.297.047-.688.031-.406.126-.765.108-.36.328-.61.218-.25.64-.25.454 0 .703.22.25.217.36.562.125.328.14.718.032.39.032.735m-2.547 6.937q0-.36-.016-.703-.015-.343 0-.703a9 9 0 0 0-.219-.437 2 2 0 0 0-.312-.454 1.6 1.6 0 0 0-.39-.359.85.85 0 0 0-.47-.14.6.6 0 0 0-.453.171 1 1 0 0 0-.25.422 2.5 2.5 0 0 0-.109.516q-.016.281-.016.484 0 .188.032.563.03.36.109.734.094.375.25.656t.422.282q.202 0 .406-.079a2.2 2.2 0 0 0 .375-.218q.188-.141.344-.297.172-.172.297-.313zm10.422-1.125a8.5 8.5 0 0 1-.172 1.703 4.7 4.7 0 0 1-.578 1.516q-.407.657-1.094 1.063-.671.406-1.688.406-1 0-1.672-.39a3.2 3.2 0 0 1-1.078-1.063 4.8 4.8 0 0 1-.562-1.485 9 9 0 0 1-.156-1.687q0-.937.218-1.86.048-.249.172-.687a6.4 6.4 0 0 1 .344-.875q.219-.438.484-.75.282-.312.61-.313.312 0 .5.172t.297.438q.11.25.14.547.031.28.031.515 0 .36-.062.703-.047.345-.11.688l-.124.937a9.4 9.4 0 0 0-.032 1.47q.032.28.125.546.094.266.266.453.172.172.484.172.407 0 .641-.219.25-.219.36-.547.124-.328.156-.703a8 8 0 0 0 .03-.687q0-.688-.093-1.344-.094-.672-.172-1.36a1.5 1.5 0 0 1 .063-.687q.078-.234.218-.422t.344-.297a.85.85 0 0 1 .453-.125q.345 0 .61.25.266.235.437.625.188.375.297.86.126.469.188.937.078.453.093.86.032.406.032.64m3.875-5q0 .844-.079 1.703-.062.844-.062 1.703 0 1.11.063 2.22.078 1.109.078 2.234 0 .28-.032.64-.03.345-.156.64a1.2 1.2 0 0 1-.344.5q-.234.204-.625.204-.374 0-.656-.375a3.3 3.3 0 0 1-.453-.922 12 12 0 0 1-.297-1.281q-.11-.703-.172-1.36a98 98 0 0 1-.078-1.218q-.016-.562-.016-.828 0-.297.016-.86.031-.562.11-1.218.078-.656.203-1.329.14-.687.359-1.234.219-.562.516-.906.312-.36.734-.36.344 0 .516.235.187.219.265.547.079.312.094.672.016.344.016.593m4.828 10.032q-1.11 0-1.735-.297a2 2 0 0 1-.922-.813q-.296-.531-.359-1.281-.062-.75-.062-1.672 0-.735.046-1.469.048-.75.141-1.593-.219 0-.344.015h-.203q-.5 0-.86-.219-.374-.218-.374-.672 0-.28.219-.5a1.7 1.7 0 0 1 .53-.374q.33-.157.704-.25.39-.095.734-.126 0-.437.063-.968t.219-.985q.171-.469.453-.78a.92.92 0 0 1 .718-.313q.25 0 .438.156.203.141.328.375.126.218.188.5.062.281.062.547 0 .312-.047.64a8 8 0 0 1-.172.813q.266-.031.36-.031.094-.015.172-.016.266 0 .546.047.297.047.532.156.25.11.406.297a.6.6 0 0 1 .156.422.67.67 0 0 1-.234.5q-.219.218-.563.375-.344.156-.734.25-.39.077-.734.11-.094.64-.141 1.187-.03.53-.078 1.078l-.063.547q-.015.266-.015.547 0 .203.015.484.015.266.11.516.093.25.297.437.203.172.562.172.219 0 .453-.031a2.4 2.4 0 0 1 .469-.047q.406 0 .578.281.188.282.188.719a.9.9 0 0 1-.204.578 1.35 1.35 0 0 1-.484.375 2.6 2.6 0 0 1-.672.234q-.36.08-.687.079m5.328-.11q-.797 0-1.39-.422a3.7 3.7 0 0 1-1-1.078 5.2 5.2 0 0 1-.61-1.453 6.6 6.6 0 0 1-.203-1.594q0-.828.203-1.703.203-.89.625-1.61.421-.734 1.078-1.187.656-.468 1.563-.468.875 0 1.484.484.625.468 1 1.187.375.705.531 1.547.156.844.11 1.594a8.6 8.6 0 0 1-.266 1.672 5.3 5.3 0 0 1-.61 1.516q-.406.671-1.03 1.093-.626.422-1.485.422m.156-7.062q-.234 0-.422.25-.171.25-.297.609a5.5 5.5 0 0 0-.172.766q-.062.39-.062.687 0 .375.063.813.078.437.203.812.125.36.296.61.189.234.422.234.25 0 .422-.234.188-.236.297-.594.11-.36.156-.782.047-.437.047-.812 0-.345-.062-.75a4.3 4.3 0 0 0-.188-.781 1.8 1.8 0 0 0-.297-.594q-.171-.234-.406-.234m8.61-1.985q0 .453-.313.672a6 6 0 0 1-.672.422q-.375.188-.687.453-.297.266-.297.797 0 .282.125.484.14.203.328.375.203.157.437.328.235.172.422.391.204.219.328.531.141.313.141.766 0 .657-.344 1.297a4.3 4.3 0 0 1-.86 1.125 4.3 4.3 0 0 1-1.171.781q-.656.297-1.297.297-.266 0-.531-.047a1.5 1.5 0 0 1-.484-.14 1.04 1.04 0 0 1-.344-.297.9.9 0 0 1-.14-.516q0-.438.171-.672.172-.25.438-.39.265-.14.562-.22.312-.077.578-.187.266-.124.438-.312.171-.187.171-.532 0-.327-.265-.671-.25-.36-.563-.75a8 8 0 0 1-.578-.86 2.04 2.04 0 0 1-.25-1q0-.672.266-1.234a3.4 3.4 0 0 1 .734-1 3.5 3.5 0 0 1 1.063-.656 3.2 3.2 0 0 1 1.25-.25q.25 0 .484.047.25.046.438.171a.8.8 0 0 1 .296.313.86.86 0 0 1 .126.484m6.64 7.766q0 .25-.14.64a4.5 4.5 0 0 1-.329.766q-.187.376-.437.64-.25.267-.484.266-.313 0-.313-.312a.9.9 0 0 1 .078-.36q.079-.172.172-.343.094-.156.172-.328a.7.7 0 0 0 .078-.313.9.9 0 0 1-.5.156.78.78 0 0 1-.609-.28.92.92 0 0 1-.25-.626q0-.5.328-.797.329-.312.828-.312.563 0 .984.297t.422.906m13.875-4.328v.812q0 .5-.031 1.094-.016.594-.094 1.203a5.3 5.3 0 0 1-.25 1.078 2.5 2.5 0 0 1-.406.797.79.79 0 0 1-.641.313.6.6 0 0 1-.531-.282 2.2 2.2 0 0 1-.25-.687 5 5 0 0 1-.094-.797v-.64q0-.704.047-1.376t.047-1.375v-.28q0-.204-.031-.407a1.2 1.2 0 0 0-.11-.36q-.062-.156-.203-.156-.28 0-.453.297a2.7 2.7 0 0 0-.281.672q-.11.39-.156.781-.047.375-.063.563a8 8 0 0 0-.062.61q-.016.405-.063.89a9 9 0 0 1-.125 1 6 6 0 0 1-.219.922q-.124.405-.328.671-.203.266-.5.266a.64.64 0 0 1-.578-.328 2.4 2.4 0 0 1-.297-.766 6.4 6.4 0 0 1-.125-.89 23 23 0 0 1-.015-.703v-.516q.015-.25.015-.516v-.359q0-.25-.015-.547 0-.312-.032-.64a5 5 0 0 0-.062-.594 1.4 1.4 0 0 0-.141-.453q-.093-.172-.218-.172-.204 0-.375.265-.172.25-.297.61-.126.343-.203.687-.063.344-.063.5v.094q0 .75.094 1.469.094.718.094 1.468 0 .438-.282.813-.281.36-.781.36a.76.76 0 0 1-.594-.266 2.4 2.4 0 0 1-.39-.719 6 6 0 0 1-.25-.953 13 13 0 0 1-.11-1.031 45 45 0 0 1-.047-.922v-.625q0-.235-.015-.688 0-.453.015-.984.031-.531.094-1.078.063-.563.203-1.016a2.3 2.3 0 0 1 .36-.734.72.72 0 0 1 .593-.297q.406 0 .657.219.265.218.265.656 0 .093-.015.187 0 .094-.016.172.172-.25.422-.5.25-.265.531-.468.297-.218.625-.344.329-.14.656-.14a.97.97 0 0 1 .563.171q.25.172.437.438.188.249.313.546t.172.563q.156-.282.375-.563.234-.297.5-.515t.578-.36q.328-.14.672-.14.328 0 .562.234t.407.61q.171.36.265.828.094.453.156.906.063.438.079.828.015.375.015.594m7.672 2.953q0 .28-.031.734a4.3 4.3 0 0 1-.125.89 2.1 2.1 0 0 1-.344.735q-.234.313-.656.313-.579 0-.891-.375t-.297-.938q-.5.438-1.14.688-.625.25-1.282.25-.453 0-.859-.219a2.7 2.7 0 0 1-.719-.562 2.9 2.9 0 0 1-.5-.766 2.2 2.2 0 0 1-.187-.86q0-.75.453-1.312a4.2 4.2 0 0 1 1.141-.953q.67-.406 1.421-.64a8.5 8.5 0 0 1 1.36-.313v-.14a.6.6 0 0 0 .015-.142q0-.484-.265-.78-.265-.298-.75-.298-.391 0-.672.141a3.3 3.3 0 0 0-.531.297q-.25.156-.5.297a1.25 1.25 0 0 1-.563.125.87.87 0 0 1-.594-.219.74.74 0 0 1-.234-.562q0-.516.297-.938.312-.422.766-.703a4 4 0 0 1 1-.453 3.4 3.4 0 0 1 1-.172q.422 0 .843.11.422.093.797.312.375.203.672.515.312.298.5.703.282.579.453 1.235.172.64.266 1.328.093.672.125 1.36.031.671.031 1.312m-2.5-.5-.047-1.063h-.062a.14.14 0 0 0-.063-.015q-.203 0-.515.11a2.3 2.3 0 0 0-.579.28 2.3 2.3 0 0 0-.484.391.7.7 0 0 0-.187.453q0 .219.156.297a.8.8 0 0 0 .359.078q.344 0 .735-.172.39-.187.687-.36m8.016-5.89q0 .452-.313.671a6 6 0 0 1-.672.422q-.375.188-.687.453-.297.266-.297.797a.9.9 0 0 0 .125.484q.14.203.328.375.202.157.438.328.234.172.421.391a1.7 1.7 0 0 1 .329.531q.14.313.14.766 0 .657-.344 1.297a4.2 4.2 0 0 1-.859 1.125 4.3 4.3 0 0 1-1.172.781q-.656.297-1.297.297-.265 0-.531-.047a1.5 1.5 0 0 1-.484-.14 1.04 1.04 0 0 1-.344-.297.9.9 0 0 1-.141-.516q0-.438.172-.672.172-.25.438-.39.265-.14.562-.22.312-.077.578-.187a1.4 1.4 0 0 0 .438-.312q.171-.187.172-.532 0-.327-.266-.671-.25-.36-.562-.75a8 8 0 0 1-.579-.86 2.04 2.04 0 0 1-.25-1q0-.672.266-1.234.281-.579.734-1 .47-.422 1.063-.656.594-.25 1.25-.25.25 0 .484.047.25.046.438.171a.8.8 0 0 1 .297.313.86.86 0 0 1 .125.484m8.031 9.156q-1.11 0-1.734-.297a2 2 0 0 1-.922-.813q-.297-.531-.36-1.281a21 21 0 0 1-.062-1.672q0-.735.047-1.469.047-.75.14-1.593-.219 0-.343.015h-.204q-.5 0-.859-.219-.375-.218-.375-.672 0-.28.219-.5a1.7 1.7 0 0 1 .531-.374q.328-.157.703-.25.39-.095.735-.126 0-.437.062-.968.063-.531.219-.985.171-.469.453-.78a.92.92 0 0 1 .719-.313q.25 0 .437.156.204.141.328.375.125.218.188.5.062.281.062.547 0 .312-.047.64-.047.33-.171.813.265-.031.359-.031.094-.015.172-.016.265 0 .547.047.297.047.531.156.25.11.406.297a.6.6 0 0 1 .156.422.67.67 0 0 1-.234.5q-.219.218-.562.375-.344.156-.735.25-.39.077-.734.11-.095.64-.141 1.187-.031.53-.078 1.078-.032.266-.062.547a9 9 0 0 0 0 1.031q.015.266.109.516.093.25.297.437.203.172.562.172.219 0 .453-.031.235-.047.469-.047.407 0 .578.281.188.282.188.719a.9.9 0 0 1-.203.578 1.35 1.35 0 0 1-.485.375 2.6 2.6 0 0 1-.672.234 3.2 3.2 0 0 1-.687.079m9-2.766q0 .28-.031.734a4.3 4.3 0 0 1-.125.89 2.1 2.1 0 0 1-.344.735q-.234.313-.656.313-.579 0-.891-.375t-.297-.938q-.5.438-1.14.688-.625.25-1.282.25-.453 0-.859-.219a2.7 2.7 0 0 1-.719-.562 2.9 2.9 0 0 1-.5-.766 2.2 2.2 0 0 1-.187-.86q0-.75.453-1.312a4.2 4.2 0 0 1 1.14-.953q.672-.406 1.422-.64a8.5 8.5 0 0 1 1.36-.313v-.14a.6.6 0 0 0 .015-.142q0-.484-.265-.78-.266-.298-.75-.298-.392 0-.672.141a3.3 3.3 0 0 0-.531.297q-.25.156-.5.297a1.25 1.25 0 0 1-.563.125.87.87 0 0 1-.594-.219.74.74 0 0 1-.234-.562q0-.516.297-.938.312-.422.765-.703a4 4 0 0 1 1-.453 3.4 3.4 0 0 1 1-.172q.423 0 .844.11.422.093.797.312.375.203.672.515.312.298.5.703.28.579.453 1.235.172.64.266 1.328.093.672.125 1.36.03.671.031 1.312m-2.5-.5-.047-1.063h-.062a.14.14 0 0 0-.063-.015q-.202 0-.516.11-.296.093-.578.28a2.3 2.3 0 0 0-.484.391.7.7 0 0 0-.188.453q0 .219.157.297a.8.8 0 0 0 .359.078q.344 0 .734-.172.391-.187.688-.36m12.922-2.453v.812q0 .5-.031 1.094-.016.594-.094 1.203a5.3 5.3 0 0 1-.25 1.078q-.156.485-.406.797a.79.79 0 0 1-.641.313.6.6 0 0 1-.531-.282 2.2 2.2 0 0 1-.25-.687 5 5 0 0 1-.094-.797v-.64q0-.704.047-1.376t.047-1.375v-.28q0-.204-.032-.407a1.2 1.2 0 0 0-.109-.36q-.062-.156-.203-.156-.282 0-.453.297a2.6 2.6 0 0 0-.281.672q-.11.39-.157.781-.047.375-.062.563a9 9 0 0 0-.063.61q-.015.405-.062.89a9 9 0 0 1-.125 1 6 6 0 0 1-.219.922q-.125.405-.328.671t-.5.266a.64.64 0 0 1-.578-.328 2.4 2.4 0 0 1-.297-.766 6 6 0 0 1-.125-.89 20 20 0 0 1-.016-.703v-.516q.016-.25.016-.516v-.359a10 10 0 0 0-.016-.547 7 7 0 0 0-.031-.64 5 5 0 0 0-.062-.594 1.5 1.5 0 0 0-.141-.453q-.094-.172-.219-.172-.203 0-.375.265-.171.25-.297.61-.125.343-.203.687-.063.344-.062.5v.094q0 .75.093 1.469.094.718.094 1.468 0 .438-.281.813-.282.36-.781.36a.76.76 0 0 1-.594-.266 2.4 2.4 0 0 1-.391-.719 6 6 0 0 1-.25-.953 13 13 0 0 1-.109-1.031 39 39 0 0 1-.047-.922v-.625q0-.235-.016-.688 0-.453.016-.984.031-.531.094-1.078a5.4 5.4 0 0 1 .203-1.016 2.3 2.3 0 0 1 .359-.734.73.73 0 0 1 .594-.297q.407 0 .656.219.266.218.266.656 0 .093-.016.187 0 .094-.015.172a3.5 3.5 0 0 1 .422-.5q.249-.265.531-.468.297-.218.625-.344.328-.14.656-.14.312 0 .563.171t.437.438a2.6 2.6 0 0 1 .313.546q.124.297.171.563a5 5 0 0 1 .375-.563q.235-.297.5-.515a2.5 2.5 0 0 1 .579-.36q.327-.14.671-.14.329 0 .563.234t.406.61q.172.36.266.828.093.453.156.906.063.438.078.828.016.375.016.594m8.422 0q0 .453-.078 1.031-.063.562-.219 1.156a6.6 6.6 0 0 1-.391 1.157 4.2 4.2 0 0 1-.594 1.015q-.344.438-.812.703a2.06 2.06 0 0 1-1.063.266q-.64 0-1.171-.297a2.9 2.9 0 0 1-.891-.812 1.3 1.3 0 0 1-.344.75 1 1 0 0 1-.75.312q-.266 0-.453-.266a2.4 2.4 0 0 1-.281-.671 7 7 0 0 1-.172-.922 17 17 0 0 1-.063-.97q-.015-.468-.015-.843V59.86l.031-1.078q0-.265-.016-.797 0-.53.016-1.172.015-.656.063-1.328.062-.687.203-1.25.14-.562.39-.922t.641-.374q.312 0 .531.218.219.22.36.578.156.36.234.813.093.438.125.89.047.438.047.844.015.39.015.64 0 .048-.015.22v.843q.14-.297.406-.578t.594-.5q.329-.218.687-.36.36-.14.688-.14.656 0 1.094.344.453.328.718.844.265.515.375 1.125.11.593.11 1.125m-2.297.468q0-.187-.031-.406a1.1 1.1 0 0 0-.11-.406.8.8 0 0 0-.234-.312.55.55 0 0 0-.375-.126q-.25 0-.5.11a2.3 2.3 0 0 0-.453.281q-.22.172-.407.375-.187.187-.328.375l-.156 1.39q.25.36.609.579.36.203.813.203a.76.76 0 0 0 .562-.219q.235-.219.36-.531.14-.329.187-.687.063-.36.063-.626m9.797 1.907q0 .531-.344 1.047-.328.5-.844.906-.5.39-1.078.64-.578.235-1.062.235a2.76 2.76 0 0 1-1.485-.406 3.9 3.9 0 0 1-1.078-1.063 5.1 5.1 0 0 1-.672-1.406 5.6 5.6 0 0 1-.219-1.516q0-.78.219-1.672.22-.89.656-1.64.453-.75 1.125-1.25.688-.5 1.625-.5.532 0 1.016.187a2.46 2.46 0 0 1 1.422 1.282q.219.453.219 1.015a3.1 3.1 0 0 1-.313 1.375 3.6 3.6 0 0 1-.828 1.11 4.4 4.4 0 0 1-1.187.765 4 4 0 0 1-1.375.313q.062.453.359.656.312.203.734.203.313 0 .61-.156.296-.156.578-.344.281-.203.547-.36.281-.156.562-.156.312 0 .563.203t.25.532m-2.532-3.828a.94.94 0 0 0-.109-.422.36.36 0 0 0-.344-.219.9.9 0 0 0-.578.188 1.4 1.4 0 0 0-.39.453q-.157.266-.25.578a3 3 0 0 0-.094.578q.219-.047.515-.125.313-.078.579-.203.28-.141.468-.344a.66.66 0 0 0 .203-.484m.875-5.547q0 .171-.093.343a1.6 1.6 0 0 1-.235.297 2.3 2.3 0 0 1-.281.266q-.156.109-.281.203a8 8 0 0 0-.25.188 3 3 0 0 1-.281.187 3 3 0 0 1-.297.14.7.7 0 0 1-.282.063.4.4 0 0 1-.218-.062.27.27 0 0 1-.094-.219q0-.234.172-.562.188-.344.453-.657.265-.327.562-.547.298-.234.547-.234a.52.52 0 0 1 .391.188q.187.171.187.406m11.766 7v.812q0 .5-.031 1.094-.016.594-.094 1.203a5.3 5.3 0 0 1-.25 1.078q-.156.485-.406.797a.79.79 0 0 1-.641.313.6.6 0 0 1-.531-.282 2.2 2.2 0 0 1-.25-.687 5 5 0 0 1-.094-.797v-.64q0-.704.047-1.376t.047-1.375v-.28q0-.204-.031-.407a1.2 1.2 0 0 0-.11-.36q-.062-.156-.203-.156-.28 0-.453.297a2.7 2.7 0 0 0-.281.672q-.11.39-.156.781-.048.375-.063.563a8 8 0 0 0-.062.61q-.017.405-.063.89a9 9 0 0 1-.125 1 6 6 0 0 1-.219.922q-.124.405-.328.671-.203.266-.5.266a.64.64 0 0 1-.578-.328 2.4 2.4 0 0 1-.297-.766 6.4 6.4 0 0 1-.125-.89 23 23 0 0 1-.015-.703v-.516q.015-.25.015-.516v-.359q0-.25-.015-.547 0-.312-.032-.64a5 5 0 0 0-.062-.594 1.4 1.4 0 0 0-.141-.453q-.093-.172-.219-.172-.202 0-.375.265-.171.25-.296.61-.126.343-.204.687-.062.344-.062.5v.094q0 .75.094 1.469.093.718.093 1.468 0 .438-.281.813-.281.36-.781.36a.76.76 0 0 1-.594-.266 2.4 2.4 0 0 1-.39-.719 6 6 0 0 1-.25-.953 12 12 0 0 1-.11-1.031 45 45 0 0 1-.047-.922v-.625q0-.235-.015-.688 0-.453.015-.984.031-.531.094-1.078a5.5 5.5 0 0 1 .203-1.016 2.3 2.3 0 0 1 .36-.734.72.72 0 0 1 .593-.297q.406 0 .657.219.265.218.265.656 0 .093-.015.187 0 .094-.016.172a3.5 3.5 0 0 1 .422-.5q.25-.265.531-.468.297-.218.625-.344.329-.14.656-.14a.97.97 0 0 1 .563.171q.25.172.437.438a2.7 2.7 0 0 1 .485 1.11q.156-.283.375-.564.234-.297.5-.515.265-.219.578-.36.328-.14.672-.14.327 0 .562.234.234.234.406.61.173.36.266.828.094.453.156.906.063.438.078.828.016.375.016.594m11.953.5q0 .687-.156 1.515a5.3 5.3 0 0 1-.5 1.516 3.4 3.4 0 0 1-.922 1.172q-.562.468-1.422.469-.219 0-.453-.032a2.2 2.2 0 0 1-.453-.109 1.6 1.6 0 0 1-.375-.203.9.9 0 0 1-.266-.36l-.14 2.25q-.016.36-.032.86 0 .499-.125.953a1.7 1.7 0 0 1-.39.766q-.266.328-.781.328-.297 0-.5-.313a2.5 2.5 0 0 1-.329-.765 9 9 0 0 1-.171-1.047 14 14 0 0 1-.079-1.11 35 35 0 0 1-.015-.968v-.641q0-1.047-.016-2.078-.015-1.047-.015-2.094v-.578q0-.405.031-.875.031-.468.094-.969.078-.5.218-.906.141-.422.36-.672a.66.66 0 0 1 .531-.266q.203 0 .359.126a.86.86 0 0 1 .282.296q.125.173.203.375.077.203.125.375a3.3 3.3 0 0 1 1.109-.828q.64-.28 1.359-.281.75 0 1.219.422.484.422.75 1.047.282.624.391 1.343.11.704.109 1.282m-2.234-.125q0-.235-.047-.469a1.3 1.3 0 0 0-.141-.453.76.76 0 0 0-.281-.344.76.76 0 0 0-.469-.14q-.374 0-.797.25a1.75 1.75 0 0 0-.609.546q-.078.126-.094.407-.015.28-.015.422v.296l.031.36.031.36q.031.17.078.265a.6.6 0 0 0 .203.265q.157.11.344.203.187.095.375.141.203.047.344.047a.65.65 0 0 0 .531-.25q.204-.25.313-.594.124-.343.156-.703.047-.375.047-.61m6.156 5.234q-.797 0-1.391-.422a3.7 3.7 0 0 1-1-1.078 5.2 5.2 0 0 1-.609-1.453 6.6 6.6 0 0 1-.203-1.594q0-.828.203-1.703.203-.89.625-1.61.422-.734 1.078-1.187.656-.468 1.563-.468.875 0 1.484.484.625.468 1 1.187.375.705.531 1.547.156.844.11 1.594a8.6 8.6 0 0 1-.266 1.672 5.3 5.3 0 0 1-.609 1.516 3.5 3.5 0 0 1-1.032 1.093q-.624.422-1.484.422m.156-7.062q-.234 0-.422.25-.171.25-.296.609-.11.36-.172.766-.063.39-.063.687 0 .375.063.813.078.437.203.812.124.36.297.61.187.234.422.234.25 0 .421-.234.188-.236.297-.594.11-.36.157-.782.046-.437.046-.812 0-.345-.062-.75a4.3 4.3 0 0 0-.188-.781 1.8 1.8 0 0 0-.296-.594q-.172-.234-.407-.234m10.766-3.672q0 1.14-.094 2.265-.078 1.126-.078 2.266 0 .922.047 1.828.063.906.062 1.828 0 .25-.015.61-.016.343-.11.672a1.3 1.3 0 0 1-.281.562q-.187.234-.547.234-.469 0-.781-.343a1.7 1.7 0 0 1-.375-.797 2.7 2.7 0 0 1-.859.953q-.563.39-1.219.39-.703 0-1.219-.484a4.3 4.3 0 0 1-.844-1.172 7 7 0 0 1-.5-1.437 6.5 6.5 0 0 1-.156-1.297 10 10 0 0 1 .203-1.906 8 8 0 0 1 .313-1q.187-.5.469-.891.296-.39.687-.625.406-.234.922-.234.562 0 1.078.328t.781.812l.141-2.484q.015-.297.047-.688a4.3 4.3 0 0 1 .125-.765q.11-.36.328-.61t.641-.25q.453 0 .703.22.25.217.359.562.124.328.141.718.03.39.031.735m-2.547 6.937q0-.36-.016-.703-.015-.343 0-.703a8 8 0 0 0-.218-.437 2 2 0 0 0-.313-.454 1.6 1.6 0 0 0-.39-.359.85.85 0 0 0-.469-.14.6.6 0 0 0-.453.171 1 1 0 0 0-.25.422 2.5 2.5 0 0 0-.11.516q-.015.281-.015.484a7.3 7.3 0 0 0 .14 1.297q.094.375.25.656t.422.282q.204 0 .406-.079.204-.093.375-.218a3 3 0 0 0 .344-.297q.172-.172.297-.313zm10.125.563q0 .531-.344 1.047-.328.5-.843.906a5 5 0 0 1-1.079.64q-.577.235-1.062.235a2.76 2.76 0 0 1-1.484-.406 3.9 3.9 0 0 1-1.079-1.063 5.2 5.2 0 0 1-.671-1.406 5.6 5.6 0 0 1-.219-1.516q0-.78.219-1.672.218-.89.656-1.64.453-.75 1.125-1.25.687-.5 1.625-.5.53 0 1.015.187a2.45 2.45 0 0 1 1.422 1.282q.219.453.219 1.015 0 .735-.312 1.375a3.7 3.7 0 0 1-.829 1.11 4.4 4.4 0 0 1-1.187.765 4 4 0 0 1-1.375.313q.063.453.359.656.313.203.735.203.312 0 .609-.156a6 6 0 0 0 .578-.344q.282-.203.547-.36.281-.156.563-.156.312 0 .562.203a.65.65 0 0 1 .25.532m-2.531-3.828a.94.94 0 0 0-.11-.422.36.36 0 0 0-.343-.219.9.9 0 0 0-.578.188 1.4 1.4 0 0 0-.391.453q-.156.266-.25.578a3 3 0 0 0-.094.578q.219-.047.516-.125.312-.078.578-.203.281-.141.469-.344a.66.66 0 0 0 .203-.484M38.799 83.797q0 .28-.031.734a4.3 4.3 0 0 1-.125.89 2.1 2.1 0 0 1-.344.735q-.234.313-.656.313-.579 0-.891-.375t-.297-.938q-.5.438-1.14.688-.625.25-1.282.25-.453 0-.86-.219a2.7 2.7 0 0 1-.718-.562 2.9 2.9 0 0 1-.5-.766 2.2 2.2 0 0 1-.187-.86q0-.75.453-1.312a4.3 4.3 0 0 1 1.14-.953q.672-.406 1.422-.64.765-.235 1.36-.313v-.14a.6.6 0 0 0 .015-.141q0-.485-.265-.782-.267-.297-.75-.297-.39 0-.672.141a3.3 3.3 0 0 0-.531.297q-.25.156-.5.297a1.24 1.24 0 0 1-.563.125.87.87 0 0 1-.594-.219.74.74 0 0 1-.234-.562q0-.516.297-.938.312-.422.765-.703a4 4 0 0 1 1-.453 3.4 3.4 0 0 1 1-.172q.423 0 .844.11.422.093.797.312.375.203.672.515.312.297.5.704.28.577.453 1.234.171.64.266 1.328.093.672.125 1.36.03.671.03 1.312m-2.5-.5-.047-1.063h-.062a.14.14 0 0 0-.063-.015q-.203 0-.516.11-.296.093-.578.28a2.3 2.3 0 0 0-.484.391.7.7 0 0 0-.188.453q0 .219.157.297a.8.8 0 0 0 .359.078q.344 0 .734-.172.39-.188.688-.36m9.984-6.64q0 .296-.062.577a1.2 1.2 0 0 1-.188.47 1.04 1.04 0 0 1-.375.327q-.234.11-.578.11-.39 0-.578-.157a.86.86 0 0 1-.266-.375 2 2 0 0 1-.062-.5q0-.265-.031-.484a.86.86 0 0 0-.11-.39q-.093-.157-.343-.157-.235 0-.391.36-.141.36-.234.828-.095.469-.125.921-.032.438-.032.594.204-.03.39-.047a2.5 2.5 0 0 1 .86.016q.235.047.438.156a.8.8 0 0 1 .328.281q.125.172.125.438 0 .282-.25.5-.235.218-.578.375a5 5 0 0 1-.672.234q-.345.095-.547.125.047 1.08.047 2.172 0 1.032-.047 2.031-.031.485-.344.797-.297.313-.781.313a.9.9 0 0 1-.453-.11.85.85 0 0 1-.313-.265 1.5 1.5 0 0 1-.203-.39 2.2 2.2 0 0 1-.078-.454 57 57 0 0 1-.125-1.875 29 29 0 0 1-.031-1.906q-.11.016-.219.016h-.203a2.7 2.7 0 0 1-.969-.204 1.7 1.7 0 0 1-.406-.296.6.6 0 0 1-.172-.438q0-.344.235-.578.218-.234.53-.375.329-.156.673-.219.359-.062.625-.094v-.25q0-.765.14-1.64t.5-1.625.985-1.235q.624-.5 1.593-.5.61 0 1.047.266.438.25.719.672.282.406.406.937.126.516.125 1.047m5.969 6.562q0 .531-.344 1.047-.328.5-.843.906-.5.39-1.079.64-.578.235-1.062.235a2.76 2.76 0 0 1-1.484-.406 3.9 3.9 0 0 1-1.079-1.063 5.2 5.2 0 0 1-.671-1.406 5.6 5.6 0 0 1-.22-1.516q0-.78.22-1.672.218-.89.656-1.64.453-.75 1.125-1.25.687-.5 1.625-.5.53 0 1.015.187a2.45 2.45 0 0 1 1.422 1.281q.219.454.219 1.016 0 .735-.312 1.375a3.6 3.6 0 0 1-.829 1.11q-.516.468-1.187.765a4 4 0 0 1-1.375.313q.061.453.36.656.312.203.734.203.312 0 .609-.156T50.33 83q.282-.203.547-.36a1.15 1.15 0 0 1 .563-.156.87.87 0 0 1 .562.204q.25.203.25.53m-2.531-3.828a.94.94 0 0 0-.11-.422.36.36 0 0 0-.343-.219.9.9 0 0 0-.578.188 1.4 1.4 0 0 0-.391.453q-.156.266-.25.578a3 3 0 0 0-.094.578q.219-.047.516-.125a3 3 0 0 0 .578-.203 1.6 1.6 0 0 0 .469-.344.66.66 0 0 0 .203-.484m6.797 7.171q-1.11 0-1.735-.296a2 2 0 0 1-.922-.813q-.296-.531-.359-1.281-.062-.75-.062-1.672 0-.735.046-1.469.048-.75.141-1.594-.218 0-.344.016h-.203q-.5 0-.86-.219-.374-.219-.374-.671 0-.282.219-.5a1.7 1.7 0 0 1 .53-.376 3.7 3.7 0 0 1 .704-.25q.39-.094.734-.124 0-.438.063-.97.062-.53.219-.984.171-.468.453-.78a.92.92 0 0 1 .718-.313q.25 0 .438.156.203.141.328.375.125.218.188.5.062.281.062.547 0 .312-.047.64a8 8 0 0 1-.172.813q.266-.031.36-.031.093-.016.172-.016.266 0 .546.047.297.047.532.156.25.11.406.297a.6.6 0 0 1 .156.422.67.67 0 0 1-.234.5q-.22.218-.563.375-.344.156-.734.25-.39.078-.734.11-.095.64-.141 1.187-.032.53-.078 1.078l-.063.547q-.015.266-.015.547 0 .202.015.484.015.266.11.516.093.25.297.437.202.172.562.172.219 0 .453-.031a2.4 2.4 0 0 1 .469-.047q.405 0 .578.281.188.282.188.719a.9.9 0 0 1-.204.578 1.35 1.35 0 0 1-.484.375 2.6 2.6 0 0 1-.672.234q-.36.08-.687.079m9-2.765q0 .28-.032.734-.015.454-.125.89a2.1 2.1 0 0 1-.343.735q-.235.313-.657.313-.578 0-.89-.375t-.297-.938q-.501.438-1.14.688-.625.25-1.282.25-.453 0-.86-.219a2.7 2.7 0 0 1-.718-.562 2.9 2.9 0 0 1-.5-.766 2.2 2.2 0 0 1-.188-.86q0-.75.454-1.312a4.3 4.3 0 0 1 1.14-.953q.672-.406 1.422-.64.765-.235 1.36-.313v-.14a.6.6 0 0 0 .015-.141q0-.485-.266-.782t-.75-.297q-.39 0-.671.141a3.3 3.3 0 0 0-.532.297q-.25.156-.5.297a1.24 1.24 0 0 1-.562.125.87.87 0 0 1-.594-.219.74.74 0 0 1-.234-.562q0-.516.297-.938.312-.422.765-.703a4 4 0 0 1 1-.453 3.4 3.4 0 0 1 1-.172q.422 0 .844.11.422.093.797.312.375.203.672.515.312.297.5.704.28.577.453 1.234.172.64.265 1.328.095.672.125 1.36.032.671.032 1.312m-2.5-.5-.047-1.063h-.063a.14.14 0 0 0-.062-.015q-.204 0-.516.11-.297.093-.578.28a2.3 2.3 0 0 0-.484.391.7.7 0 0 0-.188.453q0 .219.156.297a.8.8 0 0 0 .36.078q.344 0 .734-.172.39-.188.688-.36m8.859-3.14q-.218.015-.375-.032L71.19 80a3 3 0 0 0-.282-.11.6.6 0 0 0-.312-.046q-.313.016-.563.172a2.2 2.2 0 0 0-.437.39 2.7 2.7 0 0 0-.328.531 3 3 0 0 0-.22.563 4 4 0 0 0-.077.578q-.016.375-.016.813-.016.453-.016.859t-.03.64q-.016.25-.079.594-.063.33-.203.625a1.4 1.4 0 0 1-.344.5.8.8 0 0 1-.562.204.75.75 0 0 1-.469-.157 1.4 1.4 0 0 1-.328-.406 4 4 0 0 1-.219-.61 8 8 0 0 1-.125-.703q-.047-.375-.078-.75-.015-.375-.031-.703v-.625q.015-.28.015-.453a19 19 0 0 0-.062-1.094q-.031-.561-.031-1.109 0-.343.03-.766.032-.42.173-.78.14-.376.406-.626.282-.25.766-.25.266 0 .453.172.188.172.297.422.124.25.187.531t.078.516q.375-.609.844-.984.47-.39 1.219-.422.375-.016.734.078.375.078.672.281.312.188.5.5.203.312.219.734.03.5-.297.766-.329.265-.797.281M82.767 80q0 .078-.015.172a1 1 0 0 1-.047.156 1.5 1.5 0 0 1-.437.61 1.1 1.1 0 0 1-.704.234q-.609 0-.828-.61a.5.5 0 0 1-.03-.171q0-.11-.017-.22v-.452a.9.9 0 0 0-.109-.344q-.078-.125-.266-.125-.265 0-.515.344a3.8 3.8 0 0 0-.422.797 7 7 0 0 0-.281.937q-.11.485-.11.781 0 .236.032.579.03.328.125.64.093.313.25.547.171.219.437.219a.8.8 0 0 0 .484-.156q.235-.172.454-.391.202-.187.437-.39a.87.87 0 0 1 .563-.204q.39 0 .609.281a.97.97 0 0 1 .234.641q0 .532-.28 1a3.2 3.2 0 0 1-.704.797q-.422.328-.937.516a2.7 2.7 0 0 1-.985.203q-.844 0-1.437-.422a3.3 3.3 0 0 1-.938-1.063 5 5 0 0 1-.516-1.422 7.3 7.3 0 0 1-.156-1.453q0-.797.219-1.719.219-.937.672-1.734a4.3 4.3 0 0 1 1.156-1.328q.72-.531 1.703-.531.609 0 1.047.265.453.267.734.704.297.421.438.953a3.7 3.7 0 0 1 .156 1.046v.157a1 1 0 0 1-.015.156m6.297.156q-.218.015-.374-.031L88.377 80a3 3 0 0 0-.281-.11.6.6 0 0 0-.313-.046q-.312.016-.562.172a2.2 2.2 0 0 0-.438.39 2.7 2.7 0 0 0-.328.531 3 3 0 0 0-.219.563 4 4 0 0 0-.078.578q-.015.375-.015.813-.016.453-.016.859t-.031.64q-.016.25-.078.594-.063.33-.204.625a1.4 1.4 0 0 1-.343.5.8.8 0 0 1-.563.204.75.75 0 0 1-.469-.157 1.4 1.4 0 0 1-.328-.406 4 4 0 0 1-.218-.61 8 8 0 0 1-.125-.703q-.048-.375-.079-.75l-.03-.703v-.625q.015-.28.015-.453a19 19 0 0 0-.063-1.094q-.03-.561-.03-1.109 0-.343.03-.766.031-.42.172-.78.142-.376.406-.626.282-.25.766-.25.266 0 .453.172.188.172.297.422.125.25.188.531.061.282.078.516.375-.609.843-.984.47-.39 1.22-.422.375-.016.734.078.375.078.671.281.314.188.5.5.204.312.22.734.03.5-.298.766-.327.265-.797.281m3.907-5.062a.65.65 0 0 1-.125.39 1.2 1.2 0 0 1-.297.313q-.187.124-.406.203a1.5 1.5 0 0 1-.407.063.96.96 0 0 1-.547-.157q-.234-.156-.234-.484a.74.74 0 0 1 .11-.406q.125-.187.296-.297.172-.126.391-.188.218-.062.422-.062.297 0 .547.14t.25.485m.125 5.312v.469q0 .234-.016.453-.016.266-.016.719 0 .438-.03.953-.032.516-.11 1.047a4.4 4.4 0 0 1-.219.969 2 2 0 0 1-.422.718.9.9 0 0 1-.64.282.58.58 0 0 1-.5-.235 2.2 2.2 0 0 1-.344-.64 5.4 5.4 0 0 1-.188-.891 17 17 0 0 1-.093-.953q-.032-.47-.032-.86v-1.281q0-.469.032-1 .03-.53.109-1.078a6.4 6.4 0 0 1 .25-1q.172-.453.438-.734a.88.88 0 0 1 .671-.281q.422 0 .641.421.219.423.328.985t.125 1.125q.016.546.016.812m7.75 3.39q0 .282-.032.735-.015.454-.125.89a2.1 2.1 0 0 1-.343.735.78.78 0 0 1-.657.313q-.578 0-.89-.375-.314-.375-.297-.938-.5.438-1.14.688-.625.25-1.282.25-.453 0-.86-.219a2.7 2.7 0 0 1-.718-.562 2.9 2.9 0 0 1-.5-.766 2.2 2.2 0 0 1-.187-.86q0-.75.453-1.312a4.3 4.3 0 0 1 1.14-.953q.672-.406 1.422-.64.765-.235 1.36-.313v-.14a.6.6 0 0 0 .015-.141q0-.485-.266-.782t-.75-.297q-.39 0-.671.141a3.3 3.3 0 0 0-.532.297q-.25.156-.5.297a1.24 1.24 0 0 1-.562.125.87.87 0 0 1-.594-.219.74.74 0 0 1-.234-.562q0-.516.297-.938.312-.422.765-.703a4 4 0 0 1 1-.453 3.4 3.4 0 0 1 1-.172q.422 0 .844.11.422.093.797.312.375.203.672.515.312.297.5.704.28.577.453 1.234.172.64.265 1.328.095.672.125 1.36.032.671.032 1.312m-2.5-.5-.047-1.062h-.063a.14.14 0 0 0-.062-.015q-.204 0-.516.11-.296.093-.578.28a2.3 2.3 0 0 0-.484.391.7.7 0 0 0-.188.453q0 .219.156.297a.8.8 0 0 0 .36.078q.344 0 .734-.172.39-.188.688-.36m7.875 3.141q-.266 0-.422-.25a1.8 1.8 0 0 1-.235-.546 4.4 4.4 0 0 1-.109-.625 12 12 0 0 1-.016-.5q0-.469.047-.938l.125-.937q.078-.469.125-.938a7 7 0 0 0 .063-.937q0-.187-.016-.407a1.6 1.6 0 0 0-.078-.406.66.66 0 0 0-.172-.328.44.44 0 0 0-.328-.125q-.141 0-.312.234a3.4 3.4 0 0 0-.329.516q-.14.281-.25.578a1.5 1.5 0 0 0-.093.422v.703q.015.345.015.703v.906q-.015.281-.047.579-.03.296-.093.578-.047.281-.141.547a1.7 1.7 0 0 1-.25.453q-.14.188-.344.312a.9.9 0 0 1-.484.125.7.7 0 0 1-.516-.203 1.5 1.5 0 0 1-.328-.516 3.6 3.6 0 0 1-.187-.718q-.048-.406-.078-.781-.016-.39-.016-.704.015-.327.016-.515v-.735q0-.593-.032-1.171-.015-.578-.015-1.157v-.797q.015-.484.125-.937a2.1 2.1 0 0 1 .359-.797q.25-.328.734-.328a.6.6 0 0 1 .391.14q.172.141.297.344.141.203.219.438.093.234.14.406.157-.22.36-.422.219-.203.484-.36a2.53 2.53 0 0 1 1.344-.343q.797 0 1.234.39.453.375.656.954.22.562.266 1.219.047.656.047 1.187 0 .266-.047.797-.046.516-.156 1.156a13 13 0 0 1-.266 1.297 8.5 8.5 0 0 1-.406 1.203 3 3 0 0 1-.563.89q-.312.345-.718.344m7.89 1.86q0 .453-.218.844-.22.39-.563.687a2.7 2.7 0 0 1-.781.469 2.3 2.3 0 0 1-.86.172q-.312 0-.64-.063a2 2 0 0 1-.594-.187 2 2 0 0 1-.484-.36 1.4 1.4 0 0 1-.328-.546.44.44 0 0 1-.047-.204.55.55 0 0 1 .187-.421.65.65 0 0 1 .422-.172q.204 0 .328.109l.297.266q.156.14.375.25.219.125.594.125a1 1 0 0 0 .594-.204.64.64 0 0 0 .281-.546.5.5 0 0 0-.172-.391 1.8 1.8 0 0 0-.375-.281l-.438-.25a.86.86 0 0 1-.328-.266q-.125-.172-.125-.5v-.75a2.2 2.2 0 0 1-1.078-.562 3.5 3.5 0 0 1-.703-1.016 5.4 5.4 0 0 1-.391-1.234 6.7 6.7 0 0 1-.125-1.25q0-.516.094-1.094a7.4 7.4 0 0 1 .281-1.14q.188-.564.485-1.079a4.3 4.3 0 0 1 .687-.906 3.4 3.4 0 0 1 .907-.625 2.7 2.7 0 0 1 1.14-.234q.562 0 .985.25t.687.656q.281.406.422.906t.141 1q0 .124-.016.297a.9.9 0 0 1-.047.297 1.4 1.4 0 0 1-.406.547 1 1 0 0 1-.641.218q-.531 0-.734-.53a1.2 1.2 0 0 1-.047-.36q.015-.234-.016-.438a.84.84 0 0 0-.109-.375q-.094-.156-.328-.156-.282 0-.531.344a3.4 3.4 0 0 0-.438.797q-.187.468-.297.953a3.5 3.5 0 0 0-.109.75q0 .203.031.547.047.327.141.656.109.328.281.562a.58.58 0 0 0 .469.235.85.85 0 0 0 .515-.172q.236-.172.453-.375.219-.219.438-.39a.77.77 0 0 1 .484-.173q.328 0 .532.25.218.25.218.579 0 .405-.187.78-.188.36-.485.657-.296.297-.687.516-.375.218-.766.312v.094a2 2 0 0 1-.015.203.4.4 0 0 1-.047.203q.25.094.547.25.297.172.547.39.25.236.421.5.172.282.172.579m8.172-4.5q0 .28-.031.734-.015.454-.125.89a2.1 2.1 0 0 1-.344.735q-.234.313-.656.313-.578 0-.891-.375-.312-.375-.297-.938-.5.438-1.14.688-.626.25-1.281.25a1.8 1.8 0 0 1-.86-.219 2.7 2.7 0 0 1-.719-.562 2.9 2.9 0 0 1-.5-.766 2.2 2.2 0 0 1-.187-.86q0-.75.453-1.312a4.3 4.3 0 0 1 1.141-.953q.672-.406 1.422-.64.765-.235 1.359-.313v-.14a.6.6 0 0 0 .016-.141q0-.485-.266-.782t-.75-.297q-.39 0-.672.141a3.3 3.3 0 0 0-.531.297q-.25.156-.5.297a1.24 1.24 0 0 1-.563.125.87.87 0 0 1-.593-.219.73.73 0 0 1-.235-.562q0-.516.297-.938.313-.422.766-.703a4 4 0 0 1 1-.453 3.4 3.4 0 0 1 1-.172q.421 0 .843.11.422.093.797.312.375.203.672.515.313.297.5.704.282.577.453 1.234.172.64.266 1.328.093.672.125 1.36.031.671.031 1.312m-2.5-.5-.047-1.063h-.062a.14.14 0 0 0-.063-.015q-.203 0-.515.11a2.3 2.3 0 0 0-.578.28 2.3 2.3 0 0 0-.485.391.7.7 0 0 0-.187.453q0 .219.156.297a.8.8 0 0 0 .359.078q.344 0 .735-.172.39-.188.687-.36m8.016-5.89q0 .452-.313.671a6 6 0 0 1-.672.422q-.375.188-.687.453-.297.266-.297.797a.9.9 0 0 0 .125.484q.14.203.328.375.203.157.438.329.234.171.422.39.202.219.328.531.14.313.14.766 0 .657-.343 1.297a4.3 4.3 0 0 1-.86 1.125 4.3 4.3 0 0 1-1.172.781 3.1 3.1 0 0 1-1.297.297q-.266 0-.531-.047a1.5 1.5 0 0 1-.484-.14 1.04 1.04 0 0 1-.344-.297.9.9 0 0 1-.141-.516q0-.438.172-.672.172-.25.438-.39.265-.14.562-.22.313-.077.578-.187a1.4 1.4 0 0 0 .438-.312q.172-.187.172-.531 0-.33-.266-.672a14 14 0 0 0-.562-.75 8 8 0 0 1-.578-.86 2.03 2.03 0 0 1-.25-1q0-.672.265-1.234.282-.578.735-1a3.5 3.5 0 0 1 1.062-.656q.594-.25 1.25-.25.25 0 .484.046.25.048.438.172a.8.8 0 0 1 .297.313.86.86 0 0 1 .125.484m10.937 5.812q0 .531-.343 1.047-.328.5-.844.906-.5.39-1.078.64-.579.235-1.063.235a2.76 2.76 0 0 1-1.484-.406 3.9 3.9 0 0 1-1.078-1.063 5.1 5.1 0 0 1-.672-1.406 5.6 5.6 0 0 1-.219-1.516q0-.78.219-1.672.218-.89.656-1.64.453-.75 1.125-1.25.687-.5 1.625-.5.531 0 1.016.187.485.172.843.5.36.329.579.781.218.454.218 1.016 0 .735-.312 1.375a3.7 3.7 0 0 1-.828 1.11 4.4 4.4 0 0 1-1.188.765 4 4 0 0 1-1.375.313q.063.453.36.656.312.203.734.203.312 0 .609-.156a6 6 0 0 0 .578-.344q.282-.203.547-.36.281-.155.563-.156.312 0 .562.204a.65.65 0 0 1 .25.53m-2.531-3.828a.94.94 0 0 0-.109-.422.36.36 0 0 0-.344-.219.9.9 0 0 0-.578.188 1.4 1.4 0 0 0-.391.453q-.156.266-.25.578a3 3 0 0 0-.094.578q.219-.047.516-.125.312-.078.578-.203.282-.141.469-.344a.66.66 0 0 0 .203-.484m13.563 4.406q0 .28-.032.734-.015.454-.125.89a2.1 2.1 0 0 1-.343.735q-.235.313-.657.313-.578 0-.89-.375t-.297-.938q-.5.438-1.141.688a3.4 3.4 0 0 1-1.281.25q-.454 0-.859-.219a2.7 2.7 0 0 1-.719-.562 2.9 2.9 0 0 1-.5-.766 2.2 2.2 0 0 1-.188-.86q0-.75.453-1.312a4.3 4.3 0 0 1 1.141-.953q.672-.406 1.422-.64.766-.235 1.359-.313v-.14a.6.6 0 0 0 .016-.141q0-.485-.266-.782-.265-.297-.75-.297-.39 0-.672.141a3.3 3.3 0 0 0-.531.297q-.25.156-.5.297a1.24 1.24 0 0 1-.562.125.87.87 0 0 1-.594-.219.74.74 0 0 1-.234-.562q0-.516.296-.938.313-.422.766-.703a4 4 0 0 1 1-.453 3.4 3.4 0 0 1 1-.172q.422 0 .844.11.422.093.797.312.375.203.672.515.312.297.5.704.28.577.453 1.234.172.64.265 1.328.095.672.125 1.36.032.671.032 1.312m-2.5-.5-.047-1.063h-.063a.14.14 0 0 0-.062-.015 1.6 1.6 0 0 0-.516.11 2.3 2.3 0 0 0-.578.28 2.3 2.3 0 0 0-.484.391.7.7 0 0 0-.188.453q0 .219.156.297a.8.8 0 0 0 .36.078q.344 0 .734-.172.391-.188.688-.36m10.171-7.578q0 1.14-.093 2.265-.078 1.126-.078 2.266 0 .922.046 1.828.063.906.063 1.828 0 .25-.016.61-.015.344-.109.671a1.3 1.3 0 0 1-.281.563q-.188.234-.547.234a1.01 1.01 0 0 1-.781-.343 1.7 1.7 0 0 1-.375-.797 2.7 2.7 0 0 1-.86.953q-.562.39-1.219.39a1.72 1.72 0 0 1-1.218-.484 4.3 4.3 0 0 1-.844-1.172 7 7 0 0 1-.5-1.437 6.5 6.5 0 0 1-.156-1.297 9.4 9.4 0 0 1 .203-1.906 8 8 0 0 1 .312-1q.188-.5.469-.891.297-.39.688-.625.406-.234.921-.234.563 0 1.079.328.515.329.781.812l.14-2.484q.017-.297.047-.688.032-.406.125-.765.11-.36.328-.61.22-.25.641-.25.453 0 .703.22.25.218.36.562.125.328.14.718.031.39.031.735m-2.546 6.937q0-.36-.016-.703-.015-.343 0-.703a9 9 0 0 0-.219-.437 2 2 0 0 0-.312-.454 1.6 1.6 0 0 0-.391-.359.85.85 0 0 0-.469-.14.6.6 0 0 0-.453.171 1 1 0 0 0-.25.422 2.5 2.5 0 0 0-.109.516 8 8 0 0 0-.016.484q0 .188.031.563.032.36.11.734.094.375.25.656t.422.281q.203 0 .406-.078.202-.093.375-.218a3 3 0 0 0 .344-.297 8 8 0 0 0 .297-.313zm6.546 3.797q-.796 0-1.39-.422a3.7 3.7 0 0 1-1-1.078 5.2 5.2 0 0 1-.61-1.453 6.6 6.6 0 0 1-.203-1.594q0-.828.203-1.703.204-.89.625-1.61.423-.734 1.079-1.187.656-.469 1.562-.469.875 0 1.484.485.625.468 1 1.187.376.704.532 1.547a6.5 6.5 0 0 1 .109 1.594 8.6 8.6 0 0 1-.266 1.672 5.3 5.3 0 0 1-.609 1.516 3.5 3.5 0 0 1-1.031 1.093q-.626.422-1.485.422m.157-7.062q-.235 0-.422.25-.172.25-.297.609-.11.36-.172.766a4.4 4.4 0 0 0-.062.687q0 .375.062.813.078.437.203.812.126.36.297.61.188.234.422.234.25 0 .422-.234.188-.236.297-.594.11-.36.156-.781a8 8 0 0 0 .047-.813q0-.345-.063-.75a4.3 4.3 0 0 0-.187-.781 1.8 1.8 0 0 0-.297-.594q-.172-.234-.406-.234m6.953-2.86q0 .844-.078 1.703-.063.844-.063 1.704 0 1.11.063 2.218.078 1.11.078 2.235 0 .28-.031.64-.031.345-.157.64a1.2 1.2 0 0 1-.343.5q-.235.204-.625.204-.375 0-.657-.375a3.3 3.3 0 0 1-.453-.922 12 12 0 0 1-.297-1.281q-.11-.703-.172-1.36a107 107 0 0 1-.078-1.218 35 35 0 0 1-.015-.828q0-.297.015-.86.032-.562.11-1.219.078-.656.203-1.328.14-.687.359-1.234.219-.562.516-.906.312-.36.734-.36.344 0 .516.235.187.219.265.547.08.312.094.671.016.345.016.594m7.734 6.688q0 .531-.344 1.047-.328.5-.843.906-.5.39-1.078.64-.579.235-1.063.235a2.76 2.76 0 0 1-1.484-.406 3.9 3.9 0 0 1-1.078-1.063 5.1 5.1 0 0 1-.672-1.406 5.6 5.6 0 0 1-.219-1.516q0-.78.219-1.672.219-.89.656-1.64.453-.75 1.125-1.25.687-.5 1.625-.5.531 0 1.016.187.484.172.843.5.36.329.578.781.219.454.219 1.016 0 .735-.312 1.375a3.7 3.7 0 0 1-.828 1.11 4.4 4.4 0 0 1-1.188.765 4 4 0 0 1-1.375.313q.063.453.359.656.314.203.735.203.312 0 .609-.156a6 6 0 0 0 .578-.344q.282-.203.547-.36.281-.155.563-.156.313 0 .562.204a.65.65 0 0 1 .25.53m-2.531-3.828a.94.94 0 0 0-.109-.422.36.36 0 0 0-.344-.219.9.9 0 0 0-.578.188 1.4 1.4 0 0 0-.391.453q-.156.266-.25.578a3 3 0 0 0-.094.578q.219-.047.516-.125.312-.078.578-.203.282-.141.469-.344a.66.66 0 0 0 .203-.484m7.734-1.985q0 .453-.312.672a6 6 0 0 1-.672.422q-.375.188-.688.453-.296.266-.296.797a.9.9 0 0 0 .125.484q.14.203.328.375.203.157.437.329.234.171.422.39.204.219.328.531.141.313.141.766 0 .657-.344 1.297a4.28 4.28 0 0 1-2.031 1.906q-.657.297-1.297.297-.266 0-.531-.047a1.5 1.5 0 0 1-.485-.14 1 1 0 0 1-.343-.297.9.9 0 0 1-.141-.516q0-.438.172-.672.171-.25.437-.39t.563-.22q.312-.077.578-.187.266-.124.437-.312.172-.187.172-.531 0-.33-.265-.672a14 14 0 0 0-.563-.75 8 8 0 0 1-.578-.86 2.03 2.03 0 0 1-.25-1q0-.672.266-1.234.28-.578.734-1 .47-.422 1.063-.656.593-.25 1.25-.25.25 0 .484.046.25.048.437.172a.8.8 0 0 1 .297.313.85.85 0 0 1 .125.484M187.908 80q0 .078-.015.172a1 1 0 0 1-.047.156q-.141.36-.438.61a1.1 1.1 0 0 1-.703.234q-.609 0-.828-.61a.5.5 0 0 1-.031-.171q0-.11-.016-.22v-.452a.9.9 0 0 0-.109-.344q-.078-.125-.266-.125-.266 0-.516.344a3.8 3.8 0 0 0-.421.797 7 7 0 0 0-.282.937 3.7 3.7 0 0 0-.109.781q0 .236.031.579.032.328.125.64.094.313.25.547a.54.54 0 0 0 .438.219.8.8 0 0 0 .484-.156q.234-.172.453-.391.203-.187.438-.39a.87.87 0 0 1 .562-.204q.391 0 .61.281a.97.97 0 0 1 .234.641q0 .532-.281 1a3.2 3.2 0 0 1-.703.797q-.423.328-.938.516a2.7 2.7 0 0 1-.984.203q-.844 0-1.438-.422a3.3 3.3 0 0 1-.937-1.063 5 5 0 0 1-.516-1.422 7.3 7.3 0 0 1-.156-1.453q0-.797.219-1.719a6.4 6.4 0 0 1 .671-1.734 4.3 4.3 0 0 1 1.157-1.328q.719-.531 1.703-.531.609 0 1.047.265.453.267.734.704.297.421.438.953.156.531.156 1.046v.157a1 1 0 0 1-.016.156m7.422 3.219q0 .531-.344 1.047-.328.5-.843.906a5 5 0 0 1-1.079.64q-.577.235-1.062.235a2.76 2.76 0 0 1-1.484-.406 3.9 3.9 0 0 1-1.079-1.063 5.2 5.2 0 0 1-.671-1.406 5.6 5.6 0 0 1-.219-1.516q0-.78.219-1.672.218-.89.656-1.64.453-.75 1.125-1.25.687-.5 1.625-.5.532 0 1.015.187a2.45 2.45 0 0 1 1.422 1.281q.219.454.219 1.016 0 .735-.312 1.375a3.7 3.7 0 0 1-.829 1.11 4.4 4.4 0 0 1-1.187.765 4 4 0 0 1-1.375.313q.063.453.359.656.313.203.735.203.312 0 .609-.156a6 6 0 0 0 .578-.344q.282-.203.547-.36.281-.155.563-.156.312 0 .562.204a.65.65 0 0 1 .25.53m-2.531-3.828a.94.94 0 0 0-.11-.422.36.36 0 0 0-.343-.219.9.9 0 0 0-.578.188 1.4 1.4 0 0 0-.391.453q-.157.266-.25.578a3 3 0 0 0-.094.578q.219-.047.516-.125.312-.078.578-.203.281-.141.469-.344a.66.66 0 0 0 .203-.484m7.594 7.046q-.266 0-.422-.25a1.7 1.7 0 0 1-.235-.546 4.4 4.4 0 0 1-.109-.625 12 12 0 0 1-.016-.5q0-.469.047-.938l.125-.937q.078-.469.125-.938a7 7 0 0 0 .063-.937q0-.187-.016-.407a1.6 1.6 0 0 0-.078-.406.66.66 0 0 0-.172-.328.44.44 0 0 0-.328-.125q-.14 0-.313.234a3.5 3.5 0 0 0-.328.516q-.14.281-.25.578a1.5 1.5 0 0 0-.093.422v.703q.015.345.015.703v.906q-.015.281-.047.579-.03.296-.093.578-.048.281-.141.547a1.8 1.8 0 0 1-.25.453q-.14.188-.344.312a.9.9 0 0 1-.484.125.7.7 0 0 1-.516-.203 1.5 1.5 0 0 1-.328-.516 3.6 3.6 0 0 1-.187-.718 23 23 0 0 1-.079-.781q-.015-.39-.015-.704.015-.327.015-.515v-.735q0-.593-.031-1.171-.015-.578-.015-1.157v-.797q.015-.484.125-.937a2.1 2.1 0 0 1 .359-.797q.25-.328.734-.328.219 0 .391.14t.297.344q.141.203.219.438.093.234.14.406.156-.22.36-.422.218-.203.484-.36a2.53 2.53 0 0 1 1.344-.343q.796 0 1.234.39.453.375.656.954.22.562.266 1.219.047.656.047 1.187 0 .266-.047.797-.046.516-.156 1.156A13 13 0 0 1 202.08 84a8.5 8.5 0 0 1-.406 1.203 3 3 0 0 1-.563.89q-.313.345-.718.344m6.671.126q-1.109 0-1.734-.297a2 2 0 0 1-.922-.813q-.297-.531-.359-1.281-.063-.75-.063-1.672 0-.735.047-1.469.047-.75.141-1.594-.22 0-.344.016h-.203a1.6 1.6 0 0 1-.859-.219q-.375-.219-.375-.671a.7.7 0 0 1 .218-.5q.204-.219.532-.376.327-.156.703-.25.39-.094.734-.124 0-.438.063-.97.062-.53.218-.984.173-.468.453-.78a.93.93 0 0 1 .719-.313q.25 0 .438.156.203.141.328.375.125.218.187.5.063.281.063.547 0 .312-.047.64-.047.33-.172.813.266-.031.359-.031.094-.016.172-.016.266 0 .547.047.297.047.531.156.25.11.407.297a.6.6 0 0 1 .156.422.67.67 0 0 1-.234.5q-.22.218-.563.375a4 4 0 0 1-.734.25 7 7 0 0 1-.735.11 20 20 0 0 0-.14 1.187q-.031.53-.078 1.078l-.063.547q-.016.266-.016.547 0 .202.016.484.016.266.109.516.095.25.297.437.204.172.563.172.219 0 .453-.031.234-.047.469-.047.406 0 .578.281.187.282.187.719a.9.9 0 0 1-.203.578 1.35 1.35 0 0 1-.484.375 2.6 2.6 0 0 1-.672.234q-.36.08-.688.079m8.907-3.344q0 .531-.344 1.047-.328.5-.844.906a5 5 0 0 1-1.078.64q-.578.235-1.062.235a2.77 2.77 0 0 1-1.485-.406 3.9 3.9 0 0 1-1.078-1.063 5.1 5.1 0 0 1-.672-1.406 5.6 5.6 0 0 1-.219-1.516q0-.78.219-1.672.22-.89.656-1.64.455-.75 1.125-1.25.688-.5 1.625-.5.532 0 1.016.187a2.46 2.46 0 0 1 1.422 1.281q.219.454.219 1.016 0 .735-.313 1.375a3.6 3.6 0 0 1-.828 1.11 4.4 4.4 0 0 1-1.187.765 4 4 0 0 1-1.375.313q.062.453.359.656.312.203.734.203.313 0 .61-.156t.578-.344q.281-.203.547-.36.281-.155.562-.156a.87.87 0 0 1 .563.204q.25.203.25.53m-2.532-3.828a.94.94 0 0 0-.109-.422.36.36 0 0 0-.344-.219.9.9 0 0 0-.578.188 1.4 1.4 0 0 0-.39.453q-.157.266-.25.578a3 3 0 0 0-.094.578q.22-.047.515-.125a3 3 0 0 0 .579-.203q.28-.141.468-.344a.66.66 0 0 0 .203-.484m7.735-1.985q0 .453-.313.672a6 6 0 0 1-.672.422q-.375.188-.687.453-.297.266-.297.797a.9.9 0 0 0 .125.484q.14.203.328.375.203.157.438.329.234.171.422.39.202.219.328.531.14.313.14.766 0 .657-.343 1.297a4.3 4.3 0 0 1-.86 1.125 4.3 4.3 0 0 1-1.172.781 3.1 3.1 0 0 1-1.297.297q-.266 0-.531-.047a1.5 1.5 0 0 1-.484-.14 1.04 1.04 0 0 1-.344-.297.9.9 0 0 1-.141-.516q0-.438.172-.672.173-.25.438-.39t.562-.22q.313-.077.578-.187a1.4 1.4 0 0 0 .438-.312q.172-.187.172-.531 0-.33-.266-.672a14 14 0 0 0-.562-.75 8 8 0 0 1-.578-.86 2.03 2.03 0 0 1-.25-1q0-.672.265-1.234.282-.578.735-1a3.5 3.5 0 0 1 1.062-.656q.594-.25 1.25-.25.25 0 .484.046.25.048.438.172a.8.8 0 0 1 .297.313.86.86 0 0 1 .125.484M70.846 101q0 .078-.016.172a1 1 0 0 1-.047.156 1.5 1.5 0 0 1-.437.61 1.1 1.1 0 0 1-.703.234q-.61 0-.829-.61a.5.5 0 0 1-.03-.171 2 2 0 0 0-.016-.219v-.453a.9.9 0 0 0-.11-.344q-.078-.125-.265-.125-.266 0-.516.344a3.8 3.8 0 0 0-.422.797 7 7 0 0 0-.281.937q-.11.484-.11.781 0 .235.032.579.03.328.125.64.093.313.25.547.171.219.437.219a.8.8 0 0 0 .485-.156 4 4 0 0 0 .453-.391q.203-.187.437-.391a.87.87 0 0 1 .563-.203.73.73 0 0 1 .61.281.97.97 0 0 1 .233.641q0 .53-.28 1a3.2 3.2 0 0 1-.704.797q-.422.328-.937.516a2.7 2.7 0 0 1-.985.203q-.843 0-1.437-.422a3.3 3.3 0 0 1-.938-1.063 5 5 0 0 1-.515-1.422 7.3 7.3 0 0 1-.157-1.453q0-.797.22-1.719.218-.937.671-1.734a4.3 4.3 0 0 1 1.156-1.328q.72-.531 1.703-.531.61 0 1.047.265.453.267.735.704.296.421.437.953.156.531.156 1.047v.156a1 1 0 0 1-.015.156m3.843 6.453q-.795 0-1.39-.422a3.7 3.7 0 0 1-1-1.078 5.2 5.2 0 0 1-.61-1.453 6.6 6.6 0 0 1-.203-1.594q0-.828.203-1.703.203-.89.626-1.61.42-.734 1.078-1.187.656-.469 1.562-.469.875 0 1.484.485.625.468 1 1.187.375.704.532 1.547.155.844.11 1.594a8.6 8.6 0 0 1-.267 1.672 5.3 5.3 0 0 1-.609 1.516q-.405.671-1.031 1.093t-1.485.422m.157-7.062q-.235 0-.422.25a2.5 2.5 0 0 0-.297.609q-.11.36-.172.766-.062.39-.062.687 0 .375.062.813.078.437.203.812.126.36.297.61.188.234.422.234.25 0 .422-.234.188-.235.297-.594.11-.36.156-.782.047-.437.047-.812 0-.344-.063-.75a4.3 4.3 0 0 0-.187-.781 1.8 1.8 0 0 0-.297-.594q-.172-.234-.406-.234m13.515 1.453v.812q0 .5-.03 1.094-.017.594-.095 1.203a5.3 5.3 0 0 1-.25 1.078 2.5 2.5 0 0 1-.406.797.79.79 0 0 1-.64.313.6.6 0 0 1-.532-.282 2.2 2.2 0 0 1-.25-.687 5 5 0 0 1-.094-.797v-.641q0-.703.047-1.375t.047-1.375v-.281q0-.203-.031-.406a1.2 1.2 0 0 0-.11-.359q-.062-.157-.203-.157-.28 0-.453.297a2.7 2.7 0 0 0-.28.672q-.11.39-.157.781-.047.375-.063.563-.03.203-.062.609-.015.406-.063.891-.03.484-.125 1-.078.5-.218.922-.126.405-.329.672-.203.265-.5.265a.64.64 0 0 1-.578-.328 2.4 2.4 0 0 1-.297-.766 6 6 0 0 1-.124-.89q-.016-.454-.016-.703v-.516q.015-.25.015-.516v-.359q0-.25-.015-.547 0-.312-.031-.64a5 5 0 0 0-.063-.594 1.5 1.5 0 0 0-.14-.453q-.094-.172-.22-.172-.203 0-.374.265a2.6 2.6 0 0 0-.297.61 6 6 0 0 0-.203.687 3 3 0 0 0-.063.5v.094q0 .75.094 1.469.094.718.094 1.468 0 .438-.282.813-.28.36-.78.359a.76.76 0 0 1-.595-.265 2.4 2.4 0 0 1-.39-.719 6 6 0 0 1-.25-.953 12 12 0 0 1-.11-1.031q-.03-.516-.046-.922v-.625q0-.235-.016-.688 0-.453.016-.984.03-.531.093-1.078.063-.563.203-1.016t.36-.734a.73.73 0 0 1 .594-.297q.406 0 .656.219.265.218.265.656 0 .093-.015.187 0 .094-.016.172a3.6 3.6 0 0 1 .422-.5q.25-.265.531-.469.297-.218.625-.343.33-.14.657-.14a.97.97 0 0 1 .562.171q.25.172.438.438.187.25.312.546.124.297.172.563.157-.282.375-.563.234-.297.5-.515a2.6 2.6 0 0 1 .578-.36 1.7 1.7 0 0 1 .672-.14q.328 0 .563.234t.406.61q.172.36.265.828.094.453.157.906.061.438.078.828.015.375.015.594m11.344 2.375q0 .531-.344 1.047-.328.5-.843.906-.5.39-1.079.64-.578.235-1.062.235a2.77 2.77 0 0 1-1.484-.406 3.9 3.9 0 0 1-1.079-1.063 5.2 5.2 0 0 1-.671-1.406 5.6 5.6 0 0 1-.22-1.516q0-.781.22-1.672.218-.89.656-1.64.453-.75 1.125-1.25.687-.5 1.625-.5.53 0 1.015.187a2.45 2.45 0 0 1 1.422 1.281q.22.454.22 1.016 0 .735-.313 1.375a3.6 3.6 0 0 1-.829 1.109q-.516.47-1.187.766a4 4 0 0 1-1.375.313q.062.453.36.656.312.203.734.203.312 0 .61-.156a7 7 0 0 0 .577-.344q.282-.203.547-.359.281-.157.563-.157.312 0 .562.204a.65.65 0 0 1 .25.531m-2.531-3.828a.94.94 0 0 0-.11-.422.36.36 0 0 0-.343-.219.9.9 0 0 0-.578.188 1.4 1.4 0 0 0-.391.453 2.6 2.6 0 0 0-.25.578 3 3 0 0 0-.094.578q.219-.047.516-.125.311-.078.578-.203a1.6 1.6 0 0 0 .469-.344.66.66 0 0 0 .203-.484m9.75-1.454q0 .25-.094.532-.094.266-.234.547a10 10 0 0 1-.297.546q-.156.25-.281.469-.313.5-.625 1.016a31 31 0 0 1-.61 1.015l.391.61q.25.39.484.828.25.421.422.844.172.422.172.718 0 .282-.219.547a.67.67 0 0 1-.531.266q-.328 0-.672-.234a6 6 0 0 1-.656-.547 9 9 0 0 1-.578-.672 19 19 0 0 0-.453-.594 28 28 0 0 0-.532.594 9 9 0 0 1-.687.734q-.36.36-.719.625-.359.25-.641.25a.62.62 0 0 1-.515-.234.85.85 0 0 1-.188-.547q0-.312.203-.797.22-.484.5-1 .297-.516.579-.984.297-.47.453-.735a28 28 0 0 1-.391-.734 21 21 0 0 1-.453-.969 17 17 0 0 1-.359-1 3.2 3.2 0 0 1-.141-.828q0-.36.219-.578.219-.219.578-.219.39 0 .734.313.344.297.641.734.297.421.515.891.235.453.375.75.188-.282.516-.766.343-.484.766-.953.422-.468.875-.812t.859-.344q.266 0 .422.234a.76.76 0 0 1 .172.484m6.265 2.063q0 .078-.015.172a1 1 0 0 1-.047.156q-.141.36-.438.61a1.1 1.1 0 0 1-.703.234q-.609 0-.828-.61a.5.5 0 0 1-.031-.171q0-.11-.016-.219v-.453a.9.9 0 0 0-.109-.344q-.078-.125-.266-.125-.266 0-.515.344a3.7 3.7 0 0 0-.422.797 7 7 0 0 0-.281.937 3.7 3.7 0 0 0-.11.781q0 .235.031.579.032.328.125.64.094.313.25.547a.53.53 0 0 0 .438.219.8.8 0 0 0 .484-.156q.236-.172.453-.391.204-.187.438-.391a.87.87 0 0 1 .562-.203q.391 0 .61.281a.98.98 0 0 1 .234.641q0 .53-.281 1a3.2 3.2 0 0 1-.703.797q-.422.328-.938.516a2.7 2.7 0 0 1-.984.203q-.844 0-1.438-.422a3.3 3.3 0 0 1-.937-1.063 5 5 0 0 1-.516-1.422 7.3 7.3 0 0 1-.156-1.453q0-.797.219-1.719.219-.937.672-1.734a4.3 4.3 0 0 1 1.156-1.328q.719-.531 1.703-.531.609 0 1.047.265.453.267.734.704.297.421.438.953.156.531.156 1.047v.156a1 1 0 0 1-.016.156m7.422 3.219q0 .531-.343 1.047-.328.5-.844.906a5 5 0 0 1-1.078.64q-.579.235-1.063.235a2.77 2.77 0 0 1-1.484-.406 3.9 3.9 0 0 1-1.078-1.063 5.1 5.1 0 0 1-.672-1.406 5.6 5.6 0 0 1-.219-1.516q0-.781.219-1.672t.656-1.64q.453-.75 1.125-1.25.687-.5 1.625-.5.531 0 1.016.187.484.172.843.5.36.329.579.781.218.454.218 1.016 0 .735-.312 1.375a3.6 3.6 0 0 1-.828 1.109 4.4 4.4 0 0 1-1.188.766 4 4 0 0 1-1.375.313q.063.453.36.656.312.203.734.203.312 0 .609-.156t.578-.344q.282-.203.547-.359.282-.157.563-.157.313 0 .562.204a.65.65 0 0 1 .25.531m-2.531-3.828a.94.94 0 0 0-.109-.422.36.36 0 0 0-.344-.219.9.9 0 0 0-.578.188 1.4 1.4 0 0 0-.391.453 2.6 2.6 0 0 0-.25.578 3 3 0 0 0-.094.578q.219-.047.516-.125.312-.078.578-.203.282-.141.469-.344a.66.66 0 0 0 .203-.484m7.734-1.985q0 .453-.312.672a6 6 0 0 1-.672.422q-.375.188-.687.453-.297.266-.297.797 0 .282.125.484.14.204.328.375.203.157.437.329.235.171.422.39.204.219.328.531.141.313.141.766 0 .656-.344 1.297a4.28 4.28 0 0 1-2.031 1.906 3.1 3.1 0 0 1-1.297.297q-.266 0-.531-.047a1.5 1.5 0 0 1-.485-.14 1.04 1.04 0 0 1-.343-.297.9.9 0 0 1-.141-.516q0-.438.172-.672.172-.25.437-.391.267-.14.563-.218.312-.078.578-.188.265-.124.438-.312.171-.187.171-.532 0-.327-.265-.671-.25-.36-.563-.75a8 8 0 0 1-.578-.86 2.04 2.04 0 0 1-.25-1q0-.672.266-1.234.28-.578.734-1 .47-.422 1.063-.656.593-.25 1.25-.25.25 0 .484.046.25.048.438.172a.77.77 0 0 1 .296.313.85.85 0 0 1 .125.484m5.204 0q0 .453-.313.672a6 6 0 0 1-.672.422q-.375.188-.687.453-.297.266-.297.797 0 .282.125.484.14.204.328.375.203.157.437.329.235.171.422.39.204.219.328.531.141.313.141.766 0 .656-.344 1.297a4.2 4.2 0 0 1-.859 1.125 4.3 4.3 0 0 1-1.172.781q-.656.297-1.297.297-.266 0-.531-.047a1.5 1.5 0 0 1-.484-.14 1.04 1.04 0 0 1-.344-.297.9.9 0 0 1-.141-.516q0-.438.172-.672.172-.25.438-.391.265-.14.562-.218.312-.078.578-.188.265-.124.438-.312.171-.187.172-.532 0-.327-.266-.671-.25-.36-.563-.75a8 8 0 0 1-.578-.86 2.04 2.04 0 0 1-.25-1q0-.672.266-1.234.28-.578.734-1 .47-.422 1.063-.656.594-.25 1.25-.25.25 0 .484.046.25.048.438.172a.8.8 0 0 1 .297.313.86.86 0 0 1 .125.484m3.593 9.047q-.796 0-1.39-.422a3.7 3.7 0 0 1-1-1.078 5.2 5.2 0 0 1-.61-1.453 6.6 6.6 0 0 1-.203-1.594q0-.828.203-1.703.204-.89.625-1.61.423-.734 1.078-1.187.657-.469 1.563-.469.875 0 1.484.485.625.468 1 1.187.375.704.532 1.547.156.844.109 1.594a8.6 8.6 0 0 1-.266 1.672 5.3 5.3 0 0 1-.609 1.516 3.5 3.5 0 0 1-1.031 1.093q-.625.422-1.485.422m.157-7.062q-.235 0-.422.25a2.5 2.5 0 0 0-.297.609q-.11.36-.172.766-.063.39-.063.687 0 .375.063.813.078.437.203.812.124.36.297.61.188.234.422.234.25 0 .422-.234.188-.235.297-.594.11-.36.156-.782a8 8 0 0 0 .047-.812q0-.344-.063-.75a4.3 4.3 0 0 0-.187-.781 1.8 1.8 0 0 0-.297-.594q-.172-.234-.406-.234m14.531-3.672q0 1.14-.094 2.265-.078 1.125-.078 2.266 0 .922.047 1.828.063.906.062 1.828 0 .25-.015.61a3 3 0 0 1-.11.672 1.3 1.3 0 0 1-.281.562q-.187.234-.547.234-.469 0-.781-.343a1.7 1.7 0 0 1-.375-.797 2.7 2.7 0 0 1-.859.953 2.1 2.1 0 0 1-1.219.391q-.703 0-1.219-.485a4.3 4.3 0 0 1-.844-1.172 7 7 0 0 1-.5-1.437 6.5 6.5 0 0 1-.156-1.297 10 10 0 0 1 .203-1.906q.126-.516.313-1 .188-.5.468-.891.298-.39.688-.625.406-.234.922-.234.562 0 1.078.328.516.329.781.812l.141-2.484q.015-.297.047-.688a4.3 4.3 0 0 1 .125-.765q.11-.36.328-.61t.64-.25q.454 0 .704.22.25.218.359.562.125.327.141.718.03.39.031.735m-2.547 6.937q0-.359-.016-.703a8 8 0 0 1 0-.703 9 9 0 0 0-.218-.438 2 2 0 0 0-.313-.453 1.6 1.6 0 0 0-.391-.359.85.85 0 0 0-.468-.141.6.6 0 0 0-.453.172 1 1 0 0 0-.25.422 2.5 2.5 0 0 0-.11.516q-.015.281-.015.484a7.3 7.3 0 0 0 .14 1.297q.094.375.25.656t.422.282q.204 0 .406-.079.204-.093.375-.218.188-.141.344-.297.172-.172.297-.313zm10.125.563q0 .531-.344 1.047-.328.5-.844.906-.5.39-1.078.64-.577.235-1.062.235a2.77 2.77 0 0 1-1.485-.406 3.9 3.9 0 0 1-1.078-1.063 5.2 5.2 0 0 1-.672-1.406 5.6 5.6 0 0 1-.218-1.516q0-.781.218-1.672.219-.89.657-1.64.453-.75 1.125-1.25.687-.5 1.625-.5.53 0 1.015.187a2.45 2.45 0 0 1 1.422 1.281q.219.454.219 1.016 0 .735-.313 1.375a3.6 3.6 0 0 1-.828 1.109 4.4 4.4 0 0 1-1.187.766 4 4 0 0 1-1.375.313q.063.453.359.656.313.203.735.203.312 0 .609-.156t.578-.344q.282-.203.547-.359a1.14 1.14 0 0 1 .562-.157q.313 0 .563.204a.65.65 0 0 1 .25.531m-2.531-3.828a.94.94 0 0 0-.11-.422.36.36 0 0 0-.343-.219.9.9 0 0 0-.579.188 1.4 1.4 0 0 0-.39.453 2.6 2.6 0 0 0-.25.578 3 3 0 0 0-.094.578q.219-.047.516-.125.312-.078.578-.203.281-.141.469-.344a.66.66 0 0 0 .203-.484m14.078 1.953q0 .687-.156 1.515a5.3 5.3 0 0 1-.5 1.516q-.345.703-.922 1.172-.562.469-1.422.469-.219 0-.453-.032a2 2 0 0 1-.453-.109 1.6 1.6 0 0 1-.375-.203.9.9 0 0 1-.266-.36l-.141 2.25q-.015.36-.031.86 0 .5-.125.953a1.7 1.7 0 0 1-.391.766q-.265.328-.781.328-.297 0-.5-.313a2.5 2.5 0 0 1-.328-.765 9 9 0 0 1-.172-1.047 15 15 0 0 1-.078-1.11q-.016-.531-.016-.968v-.641q0-1.047-.015-2.078-.016-1.047-.016-2.094v-.578q0-.407.031-.875.032-.468.094-.969.078-.5.219-.906.141-.422.359-.672a.67.67 0 0 1 .532-.266q.203 0 .359.126a.85.85 0 0 1 .281.296 1.6 1.6 0 0 1 .203.375q.078.203.125.375.485-.546 1.11-.828.64-.28 1.359-.281.75 0 1.219.422.484.422.75 1.047.281.624.39 1.343.11.703.11 1.282m-2.235-.125q0-.235-.046-.469a1.3 1.3 0 0 0-.141-.453.77.77 0 0 0-.281-.344.76.76 0 0 0-.469-.141q-.375 0-.797.25a1.75 1.75 0 0 0-.609.547q-.078.126-.094.407-.015.28-.016.422v.296l.032.36q.015.188.031.359.031.172.078.266a.6.6 0 0 0 .203.265q.156.11.344.204t.375.14q.203.047.344.047a.65.65 0 0 0 .531-.25q.203-.25.312-.594a2.7 2.7 0 0 0 .157-.703q.046-.375.046-.609m9.735 2q0 .531-.344 1.047-.328.5-.844.906-.5.39-1.078.64-.578.235-1.062.235a2.77 2.77 0 0 1-1.485-.406 3.9 3.9 0 0 1-1.078-1.063 5.2 5.2 0 0 1-.672-1.406 5.6 5.6 0 0 1-.218-1.516q0-.781.218-1.672.219-.89.657-1.64.453-.75 1.125-1.25.687-.5 1.625-.5.53 0 1.015.187a2.46 2.46 0 0 1 1.422 1.281q.219.454.219 1.016 0 .735-.313 1.375a3.6 3.6 0 0 1-.828 1.109 4.4 4.4 0 0 1-1.187.766 4 4 0 0 1-1.375.313q.062.453.359.656.312.203.734.203.313 0 .61-.156t.578-.344q.281-.203.547-.359a1.14 1.14 0 0 1 .562-.157q.313 0 .563.204a.65.65 0 0 1 .25.531m-2.531-3.828a.94.94 0 0 0-.11-.422.36.36 0 0 0-.344-.219.9.9 0 0 0-.578.188 1.4 1.4 0 0 0-.39.453 2.6 2.6 0 0 0-.25.578 3 3 0 0 0-.094.578q.219-.047.516-.125.312-.078.578-.203.28-.141.468-.344a.66.66 0 0 0 .204-.484m7.734-1.985q0 .453-.313.672a6 6 0 0 1-.671.422q-.376.188-.688.453-.297.266-.297.797 0 .282.125.484.14.204.328.375.204.157.438.329.234.171.422.39.203.219.328.531.14.313.14.766 0 .656-.343 1.297a4.2 4.2 0 0 1-.86 1.125 4.3 4.3 0 0 1-1.172.781 3.1 3.1 0 0 1-1.296.297q-.266 0-.532-.047a1.5 1.5 0 0 1-.484-.14 1.05 1.05 0 0 1-.344-.297.9.9 0 0 1-.14-.516q0-.438.171-.672.173-.25.438-.391.266-.14.562-.218a4 4 0 0 0 .579-.188q.266-.124.437-.312.172-.187.172-.532 0-.327-.266-.671-.25-.36-.562-.75a8 8 0 0 1-.578-.86 2.03 2.03 0 0 1-.25-1q0-.672.265-1.234.282-.578.735-1a3.5 3.5 0 0 1 1.062-.656q.594-.25 1.25-.25.25 0 .485.046.25.048.437.172a.8.8 0 0 1 .297.313.86.86 0 0 1 .125.484m3.594 9.047q-.798 0-1.391-.422a3.7 3.7 0 0 1-1-1.078 5.1 5.1 0 0 1-.609-1.453 6.5 6.5 0 0 1-.203-1.594q0-.828.203-1.703.202-.89.625-1.61.421-.734 1.078-1.187.656-.469 1.562-.469.875 0 1.485.485.625.468 1 1.187.375.704.531 1.547.156.844.109 1.594a8.6 8.6 0 0 1-.265 1.672 5.3 5.3 0 0 1-.61 1.516q-.405.671-1.031 1.093t-1.484.422m.156-7.062q-.234 0-.422.25a2.6 2.6 0 0 0-.297.609q-.11.36-.172.766-.062.39-.062.687 0 .375.062.813.078.437.203.812.126.36.297.61.188.234.422.234.25 0 .422-.234.187-.235.297-.594.11-.36.156-.782a8 8 0 0 0 .047-.812q0-.344-.062-.75a4.3 4.3 0 0 0-.188-.781 1.8 1.8 0 0 0-.297-.594q-.172-.234-.406-.234"/><defs><filter id="a" width="253.301" height="175" x="0" y="0" color-interpolation-filters="sRGB" filterUnits="userSpaceOnUse"><feFlood flood-opacity="0" result="BackgroundImageFix"/><feBlend in="SourceGraphic" in2="BackgroundImageFix" result="shape"/><feColorMatrix in="SourceAlpha" result="hardAlpha" values="0 0 0 0 0 0 0 0 0 0 0 0 0 0 0 0 0 0 127 0"/><feOffset dy="4"/><feGaussianBlur stdDeviation="2"/><feComposite in2="hardAlpha" k2="-1" k3="1" operator="arithmetic"/><feColorMatrix values="0 0 0 0 0 0 0 0 0 0 0 0 0 0 0 0 0 0 0.25 0"/><feBlend in2="shape" result="effect1_innerShadow_1138_2350"/></filter></defs></svg>