<svg width="187" height="115" viewBox="0 0 187 115" fill="none" xmlns="http://www.w3.org/2000/svg">
<g filter="url(#filter0_i_880_332)">
<path fill-rule="evenodd" clip-rule="evenodd" d="M26.7328 73.1069C8.81909 65.6024 1 54.527 1 42.5399C1 27.7907 16.7707 13.2204 42.8597 6.01618C55.5137 2.52191 70.3812 1 87.4632 1C139.764 1 187.995 16.0484 185.936 42.5399C185.936 55.6846 177.01 67.7719 158.83 74.9879C148.917 78.9225 136.377 81.2463 120.687 81.9608C114.515 95.7126 105.482 102.794 90.6626 114C101.53 100.939 108.189 92.5175 110.598 82.1974C110.322 82.1983 110.044 82.1987 109.766 82.1987C72.6962 84.5509 44.6602 80.6171 26.7328 73.1069Z" fill="#3DC3FF"/>
</g>
<path d="M26.7328 73.1069L26.3464 74.0292H26.3464L26.7328 73.1069ZM42.8597 6.01618L42.5935 5.05226L42.8597 6.01618ZM185.936 42.5399L184.939 42.4624C184.937 42.4882 184.936 42.514 184.936 42.5399H185.936ZM158.83 74.9879L159.199 75.9174L158.83 74.9879ZM120.687 81.9608L120.641 80.9618C120.264 80.979 119.929 81.207 119.774 81.5513L120.687 81.9608ZM90.6626 114L89.8939 113.36C89.569 113.751 89.5885 114.323 89.9393 114.691C90.29 115.058 90.8606 115.104 91.2658 114.798L90.6626 114ZM110.598 82.1974L111.572 82.4248C111.642 82.127 111.571 81.8139 111.381 81.5747C111.19 81.3354 110.901 81.1965 110.595 81.1974L110.598 82.1974ZM109.766 82.1987V81.1987C109.745 81.1987 109.724 81.1994 109.703 81.2007L109.766 82.1987ZM0 42.5399C0 55.0658 8.20471 66.4292 26.3464 74.0292L27.1192 72.1846C9.43348 64.7756 2 53.9882 2 42.5399H0ZM42.5935 5.05226C29.4413 8.68411 18.8282 14.1884 11.4831 20.7004C4.14183 27.209 0 34.7907 0 42.5399H2C2 35.5399 5.7435 28.4619 12.8099 22.197C19.8723 15.9355 30.1891 10.5525 43.1259 6.98011L42.5935 5.05226ZM87.4632 0C70.3283 0 55.3639 1.52585 42.5935 5.05226L43.1259 6.98011C55.6636 3.51796 70.434 2 87.4632 2V0ZM186.933 42.6174C187.475 35.645 184.691 29.4664 179.486 24.1721C174.3 18.8968 166.686 14.4675 157.444 10.9027C138.955 3.77087 113.691 0 87.4632 0V2C113.536 2 138.538 5.75335 156.725 12.7686C165.821 16.2773 173.148 20.5773 178.06 25.5743C182.954 30.5523 185.427 36.189 184.939 42.4624L186.933 42.6174ZM159.199 75.9174C177.626 68.603 186.936 56.221 186.936 42.5399H184.936C184.936 55.1481 176.393 66.9408 158.461 74.0585L159.199 75.9174ZM120.732 82.9597C136.489 82.2423 149.149 79.9067 159.199 75.9174L158.461 74.0585C148.686 77.9383 136.265 80.2504 120.641 80.9618L120.732 82.9597ZM119.774 81.5513C113.721 95.0402 104.894 101.984 90.0595 113.202L91.2658 114.798C106.07 103.603 115.309 96.385 121.599 82.3702L119.774 81.5513ZM91.4313 114.64C102.264 101.621 109.099 93.0171 111.572 82.4248L109.624 81.9701C107.279 92.0179 100.797 100.257 89.8939 113.36L91.4313 114.64ZM109.766 83.1987C110.045 83.1987 110.324 83.1983 110.601 83.1974L110.595 81.1974C110.32 81.1983 110.043 81.1987 109.766 81.1987V83.1987ZM26.3464 74.0292C44.4722 81.6225 72.6813 85.5539 109.829 83.1967L109.703 81.2007C72.7111 83.5479 44.8482 79.6116 27.1192 72.1846L26.3464 74.0292Z" fill="#3DC3FF"/>
<path d="M40.6445 37.8535C40.6445 38.0267 40.599 38.1953 40.5078 38.3594C40.4167 38.5143 40.2025 38.6966 39.8652 38.9062C39.528 39.1159 39.1543 39.3164 38.7441 39.5078C38.334 39.6901 37.9375 39.8496 37.5547 39.9863C37.1719 40.1139 36.8893 40.1777 36.707 40.1777C36.5794 40.1777 36.429 40.1458 36.2559 40.082C36.0827 40.0273 35.9095 39.9544 35.7363 39.8633C35.5632 39.7721 35.4036 39.6673 35.2578 39.5488C35.1211 39.4303 35.0208 39.3164 34.957 39.207C34.9206 39.1432 34.8841 39.0156 34.8477 38.8242C34.8203 38.6328 34.793 38.4095 34.7656 38.1543C34.7474 37.8991 34.7292 37.6302 34.7109 37.3477C34.6927 37.056 34.6745 36.7826 34.6562 36.5273C34.6471 36.263 34.638 36.0306 34.6289 35.8301C34.6289 35.6296 34.6289 35.4837 34.6289 35.3926C34.6289 35.0553 34.638 34.668 34.6562 34.2305C34.6836 33.793 34.7292 33.3555 34.793 32.918C34.8568 32.4714 34.9479 32.0475 35.0664 31.6465C35.194 31.2363 35.3626 30.89 35.5723 30.6074C35.6361 30.5254 35.7637 30.4388 35.9551 30.3477C36.1465 30.2565 36.3698 30.1699 36.625 30.0879C36.8893 30.0059 37.1719 29.9284 37.4727 29.8555C37.7734 29.7826 38.0605 29.7233 38.334 29.6777C38.6165 29.623 38.8717 29.582 39.0996 29.5547C39.3275 29.5182 39.5007 29.5 39.6191 29.5C39.7559 29.5 39.8835 29.5319 40.002 29.5957C40.1296 29.6504 40.2344 29.7279 40.3164 29.8281C40.4076 29.9284 40.4759 30.0423 40.5215 30.1699C40.5762 30.2884 40.6035 30.416 40.6035 30.5527C40.6035 30.6712 40.5853 30.7715 40.5488 30.8535C40.5215 30.9355 40.4759 31.0267 40.4121 31.127C40.321 31.2454 40.1296 31.3867 39.8379 31.5508C39.5462 31.7148 39.2272 31.8789 38.8809 32.043C38.5436 32.1979 38.2155 32.3392 37.8965 32.4668C37.5866 32.5944 37.3678 32.6855 37.2402 32.7402C37.2038 32.9499 37.1628 33.1641 37.1172 33.3828C37.0807 33.5924 37.0534 33.8066 37.0352 34.0254C37.3177 33.8796 37.6367 33.7428 37.9922 33.6152C38.3477 33.4876 38.6849 33.4238 39.0039 33.4238C39.651 33.4238 39.9746 33.7428 39.9746 34.3809C39.9746 34.5358 39.9427 34.6725 39.8789 34.791C39.8242 34.9095 39.7467 35.0143 39.6465 35.1055C39.5553 35.1966 39.446 35.2786 39.3184 35.3516C39.1999 35.4154 39.0814 35.4792 38.9629 35.543C38.6712 35.6979 38.3659 35.8346 38.0469 35.9531C37.7279 36.0625 37.4089 36.1719 37.0898 36.2812C37.0716 36.3542 37.0534 36.4362 37.0352 36.5273C37.0169 36.6094 37.0078 36.6914 37.0078 36.7734C37.0078 36.901 37.0169 37.0286 37.0352 37.1562C37.0534 37.2839 37.0716 37.4115 37.0898 37.5391C37.1992 37.5026 37.3724 37.4434 37.6094 37.3613C37.8555 37.2793 38.1107 37.1973 38.375 37.1152C38.6393 37.0332 38.8945 36.9648 39.1406 36.9102C39.3867 36.8464 39.569 36.8145 39.6875 36.8145C39.8242 36.8145 39.9518 36.8464 40.0703 36.9102C40.1888 36.9648 40.2891 37.0423 40.3711 37.1426C40.4531 37.2337 40.5169 37.3431 40.5625 37.4707C40.6172 37.5983 40.6445 37.7259 40.6445 37.8535ZM45.1426 40.3828C44.9876 40.3828 44.8646 40.3099 44.7734 40.1641C44.6823 40.0273 44.6139 39.8678 44.5684 39.6855C44.5228 39.5033 44.4909 39.321 44.4727 39.1387C44.4635 38.9473 44.459 38.8014 44.459 38.7012C44.459 38.4277 44.4727 38.1543 44.5 37.8809C44.5365 37.6074 44.5729 37.334 44.6094 37.0605C44.6549 36.7871 44.6914 36.5137 44.7188 36.2402C44.7552 35.9668 44.7734 35.6934 44.7734 35.4199C44.7734 35.3105 44.7689 35.1921 44.7598 35.0645C44.7507 34.9368 44.7279 34.8184 44.6914 34.709C44.6641 34.5905 44.6139 34.4948 44.541 34.4219C44.4681 34.349 44.3724 34.3125 44.2539 34.3125C44.1719 34.3125 44.0807 34.3809 43.9805 34.5176C43.8802 34.6452 43.7845 34.7956 43.6934 34.9688C43.6113 35.1328 43.5384 35.3014 43.4746 35.4746C43.4199 35.6387 43.3926 35.7617 43.3926 35.8438C43.3926 36.0443 43.3926 36.2493 43.3926 36.459C43.4017 36.6595 43.4062 36.8646 43.4062 37.0742V37.8672C43.3971 38.0312 43.3835 38.1999 43.3652 38.373C43.347 38.5462 43.3197 38.7148 43.2832 38.8789C43.2559 39.043 43.2148 39.2025 43.1602 39.3574C43.1055 39.5033 43.0326 39.6354 42.9414 39.7539C42.8594 39.8633 42.7591 39.9544 42.6406 40.0273C42.5221 40.1003 42.3809 40.1367 42.2168 40.1367C42.0345 40.1367 41.8841 40.0775 41.7656 39.959C41.6471 39.8405 41.5514 39.6901 41.4785 39.5078C41.4056 39.3164 41.3509 39.1068 41.3145 38.8789C41.2871 38.6419 41.2643 38.4141 41.2461 38.1953C41.237 37.9674 41.2324 37.7624 41.2324 37.5801C41.2415 37.3887 41.2461 37.2383 41.2461 37.1289V36.4863C41.2461 36.14 41.237 35.7982 41.2188 35.4609C41.2096 35.1237 41.2051 34.7865 41.2051 34.4492C41.2051 34.2669 41.2051 34.0345 41.2051 33.752C41.2142 33.4694 41.2507 33.196 41.3145 32.9316C41.3783 32.6582 41.4831 32.4258 41.6289 32.2344C41.7747 32.043 41.9889 31.9473 42.2715 31.9473C42.3991 31.9473 42.513 31.9883 42.6133 32.0703C42.7135 32.1523 42.8001 32.2526 42.873 32.3711C42.9551 32.4896 43.0189 32.6172 43.0645 32.7539C43.1191 32.8906 43.1602 33.0091 43.1875 33.1094C43.2786 32.9818 43.3835 32.8587 43.502 32.7402C43.6296 32.6217 43.7708 32.5169 43.9258 32.4258C44.0807 32.3346 44.2539 32.2617 44.4453 32.207C44.6367 32.1523 44.8555 32.125 45.1016 32.125C45.5664 32.125 45.9264 32.2389 46.1816 32.4668C46.446 32.6855 46.6374 32.9635 46.7559 33.3008C46.8835 33.6289 46.9609 33.9844 46.9883 34.3672C47.0156 34.75 47.0293 35.0964 47.0293 35.4062C47.0293 35.5612 47.0156 35.7936 46.9883 36.1035C46.9609 36.4043 46.9154 36.7415 46.8516 37.1152C46.7969 37.4798 46.7194 37.8581 46.6191 38.25C46.5189 38.6328 46.4004 38.9837 46.2637 39.3027C46.127 39.6217 45.9629 39.8815 45.7715 40.082C45.5892 40.2826 45.3796 40.3828 45.1426 40.3828ZM50.9805 40.4922C50.3333 40.4922 49.8275 40.4056 49.4629 40.2324C49.1074 40.0684 48.8385 39.8314 48.6562 39.5215C48.4831 39.2116 48.3783 38.8379 48.3418 38.4004C48.3053 37.9629 48.2871 37.4753 48.2871 36.9375C48.2871 36.5091 48.3008 36.0807 48.3281 35.6523C48.3555 35.2148 48.3965 34.75 48.4512 34.2578C48.3236 34.2578 48.2233 34.2624 48.1504 34.2715C48.0775 34.2715 48.0182 34.2715 47.9727 34.2715C47.681 34.2715 47.4303 34.2077 47.2207 34.0801C47.002 33.9525 46.8926 33.7565 46.8926 33.4922C46.8926 33.3281 46.9564 33.1823 47.084 33.0547C47.2025 32.9271 47.3574 32.8177 47.5488 32.7266C47.7402 32.6354 47.9453 32.5625 48.1641 32.5078C48.3919 32.4531 48.6061 32.4167 48.8066 32.3984C48.8066 32.1432 48.8249 31.8607 48.8613 31.5508C48.8978 31.2409 48.9616 30.9538 49.0527 30.6895C49.153 30.416 49.2852 30.1882 49.4492 30.0059C49.6133 29.8236 49.8229 29.7324 50.0781 29.7324C50.224 29.7324 50.3516 29.778 50.4609 29.8691C50.5794 29.9512 50.6751 30.0605 50.748 30.1973C50.821 30.3249 50.8757 30.4707 50.9121 30.6348C50.9486 30.7988 50.9668 30.9583 50.9668 31.1133C50.9668 31.2956 50.9531 31.4824 50.9258 31.6738C50.8984 31.8652 50.8483 32.1022 50.7754 32.3848C50.9303 32.3665 51.0352 32.3574 51.0898 32.3574C51.1445 32.3483 51.1947 32.3438 51.2402 32.3438C51.3952 32.3438 51.5547 32.3574 51.7188 32.3848C51.8919 32.4121 52.0469 32.4577 52.1836 32.5215C52.3294 32.5853 52.4479 32.6719 52.5391 32.7812C52.6302 32.8815 52.6758 33.0046 52.6758 33.1504C52.6758 33.3145 52.6074 33.4603 52.4707 33.5879C52.3431 33.7155 52.179 33.8249 51.9785 33.916C51.778 34.0072 51.5638 34.0801 51.3359 34.1348C51.1081 34.1803 50.8939 34.2122 50.6934 34.2305C50.6387 34.6042 50.5977 34.9505 50.5703 35.2695C50.5521 35.5794 50.5293 35.8939 50.502 36.2129C50.4837 36.3678 50.4655 36.5273 50.4473 36.6914C50.4382 36.8464 50.4336 37.0059 50.4336 37.1699C50.4336 37.2884 50.4382 37.4297 50.4473 37.5938C50.4564 37.7487 50.4883 37.8991 50.543 38.0449C50.5977 38.1908 50.6842 38.3184 50.8027 38.4277C50.9212 38.528 51.0853 38.5781 51.2949 38.5781C51.4225 38.5781 51.5547 38.569 51.6914 38.5508C51.8281 38.5234 51.9648 38.5098 52.1016 38.5098C52.3385 38.5098 52.5072 38.5918 52.6074 38.7559C52.7168 38.9199 52.7715 39.1296 52.7715 39.3848C52.7715 39.5762 52.7122 39.7448 52.5938 39.8906C52.4844 40.0273 52.3431 40.1367 52.1699 40.2188C51.9967 40.3099 51.8008 40.3783 51.582 40.4238C51.3724 40.4694 51.1719 40.4922 50.9805 40.4922ZM58.7734 37.5664C58.7734 37.8763 58.6732 38.1816 58.4727 38.4824C58.2812 38.7741 58.0352 39.0384 57.7344 39.2754C57.4427 39.5033 57.1283 39.6901 56.791 39.8359C56.4538 39.9727 56.1439 40.041 55.8613 40.041C55.3783 40.041 54.9453 39.9225 54.5625 39.6855C54.1888 39.4395 53.8743 39.1296 53.6191 38.7559C53.3639 38.3822 53.168 37.972 53.0312 37.5254C52.9036 37.0697 52.8398 36.6276 52.8398 36.1992C52.8398 35.7435 52.9036 35.2559 53.0312 34.7363C53.1589 34.2168 53.3503 33.7383 53.6055 33.3008C53.8698 32.8633 54.1979 32.4987 54.5898 32.207C54.9909 31.9154 55.4648 31.7695 56.0117 31.7695C56.3216 31.7695 56.6178 31.8242 56.9004 31.9336C57.1829 32.0339 57.429 32.1797 57.6387 32.3711C57.8483 32.5625 58.0169 32.7904 58.1445 33.0547C58.2721 33.319 58.3359 33.6152 58.3359 33.9434C58.3359 34.3717 58.2448 34.7728 58.0625 35.1465C57.8802 35.5202 57.6387 35.8438 57.3379 36.1172C57.0371 36.3906 56.6908 36.6139 56.2988 36.7871C55.9069 36.9512 55.5059 37.0423 55.0957 37.0605C55.1322 37.3249 55.237 37.5163 55.4102 37.6348C55.5924 37.7533 55.8066 37.8125 56.0527 37.8125C56.235 37.8125 56.4128 37.7669 56.5859 37.6758C56.7591 37.5846 56.9277 37.4844 57.0918 37.375C57.2559 37.2565 57.4154 37.1517 57.5703 37.0605C57.7344 36.9694 57.8984 36.9238 58.0625 36.9238C58.2448 36.9238 58.4089 36.9831 58.5547 37.1016C58.7005 37.2201 58.7734 37.375 58.7734 37.5664ZM56.5586 34.2168C56.5586 34.0983 56.5267 33.9753 56.4629 33.8477C56.3991 33.7201 56.2988 33.6562 56.1621 33.6562C55.9616 33.6562 55.793 33.7109 55.6562 33.8203C55.5195 33.9206 55.4056 34.0527 55.3145 34.2168C55.2233 34.3717 55.1504 34.5404 55.0957 34.7227C55.0501 34.9049 55.0228 35.0736 55.0137 35.2285C55.1413 35.2012 55.2917 35.1647 55.4648 35.1191C55.6471 35.0736 55.8158 35.0143 55.9707 34.9414C56.1348 34.8594 56.2715 34.7591 56.3809 34.6406C56.4993 34.5221 56.5586 34.3809 56.5586 34.2168ZM63.2031 40.3828C63.0482 40.3828 62.9251 40.3099 62.834 40.1641C62.7428 40.0273 62.6745 39.8678 62.6289 39.6855C62.5833 39.5033 62.5514 39.321 62.5332 39.1387C62.5241 38.9473 62.5195 38.8014 62.5195 38.7012C62.5195 38.4277 62.5332 38.1543 62.5605 37.8809C62.597 37.6074 62.6335 37.334 62.6699 37.0605C62.7155 36.7871 62.752 36.5137 62.7793 36.2402C62.8158 35.9668 62.834 35.6934 62.834 35.4199C62.834 35.3105 62.8294 35.1921 62.8203 35.0645C62.8112 34.9368 62.7884 34.8184 62.752 34.709C62.7246 34.5905 62.6745 34.4948 62.6016 34.4219C62.5286 34.349 62.4329 34.3125 62.3145 34.3125C62.2324 34.3125 62.1413 34.3809 62.041 34.5176C61.9408 34.6452 61.8451 34.7956 61.7539 34.9688C61.6719 35.1328 61.599 35.3014 61.5352 35.4746C61.4805 35.6387 61.4531 35.7617 61.4531 35.8438C61.4531 36.0443 61.4531 36.2493 61.4531 36.459C61.4622 36.6595 61.4668 36.8646 61.4668 37.0742V37.8672C61.4577 38.0312 61.444 38.1999 61.4258 38.373C61.4076 38.5462 61.3802 38.7148 61.3438 38.8789C61.3164 39.043 61.2754 39.2025 61.2207 39.3574C61.166 39.5033 61.0931 39.6354 61.002 39.7539C60.9199 39.8633 60.8197 39.9544 60.7012 40.0273C60.5827 40.1003 60.4414 40.1367 60.2773 40.1367C60.0951 40.1367 59.9447 40.0775 59.8262 39.959C59.7077 39.8405 59.612 39.6901 59.5391 39.5078C59.4661 39.3164 59.4115 39.1068 59.375 38.8789C59.3477 38.6419 59.3249 38.4141 59.3066 38.1953C59.2975 37.9674 59.293 37.7624 59.293 37.5801C59.3021 37.3887 59.3066 37.2383 59.3066 37.1289V36.4863C59.3066 36.14 59.2975 35.7982 59.2793 35.4609C59.2702 35.1237 59.2656 34.7865 59.2656 34.4492C59.2656 34.2669 59.2656 34.0345 59.2656 33.752C59.2747 33.4694 59.3112 33.196 59.375 32.9316C59.4388 32.6582 59.5436 32.4258 59.6895 32.2344C59.8353 32.043 60.0495 31.9473 60.332 31.9473C60.4596 31.9473 60.5736 31.9883 60.6738 32.0703C60.7741 32.1523 60.8607 32.2526 60.9336 32.3711C61.0156 32.4896 61.0794 32.6172 61.125 32.7539C61.1797 32.8906 61.2207 33.0091 61.248 33.1094C61.3392 32.9818 61.444 32.8587 61.5625 32.7402C61.6901 32.6217 61.8314 32.5169 61.9863 32.4258C62.1413 32.3346 62.3145 32.2617 62.5059 32.207C62.6973 32.1523 62.916 32.125 63.1621 32.125C63.627 32.125 63.987 32.2389 64.2422 32.4668C64.5065 32.6855 64.6979 32.9635 64.8164 33.3008C64.944 33.6289 65.0215 33.9844 65.0488 34.3672C65.0762 34.75 65.0898 35.0964 65.0898 35.4062C65.0898 35.5612 65.0762 35.7936 65.0488 36.1035C65.0215 36.4043 64.9759 36.7415 64.9121 37.1152C64.8574 37.4798 64.7799 37.8581 64.6797 38.25C64.5794 38.6328 64.4609 38.9837 64.3242 39.3027C64.1875 39.6217 64.0234 39.8815 63.832 40.082C63.6497 40.2826 63.4401 40.3828 63.2031 40.3828ZM71.748 31.0039C71.748 31.6693 71.7207 32.3301 71.666 32.9863C71.6204 33.6426 71.5977 34.3034 71.5977 34.9688C71.5977 35.5065 71.6113 36.0397 71.6387 36.5684C71.6751 37.097 71.6934 37.6302 71.6934 38.168C71.6934 38.3138 71.6888 38.4915 71.6797 38.7012C71.6706 38.9017 71.6387 39.0977 71.584 39.2891C71.5384 39.4805 71.4564 39.6445 71.3379 39.7812C71.2285 39.918 71.069 39.9863 70.8594 39.9863C70.5859 39.9863 70.3581 39.8861 70.1758 39.6855C70.0026 39.4759 69.8932 39.2435 69.8477 38.9883C69.6745 39.3164 69.4238 39.5944 69.0957 39.8223C68.7676 40.0501 68.4121 40.1641 68.0293 40.1641C67.6191 40.1641 67.2637 40.0228 66.9629 39.7402C66.6712 39.4577 66.4251 39.1159 66.2246 38.7148C66.0332 38.3138 65.8874 37.8945 65.7871 37.457C65.696 37.0195 65.6504 36.6413 65.6504 36.3223C65.6504 36.0944 65.6641 35.8346 65.6914 35.543C65.7188 35.2513 65.7643 34.9551 65.8281 34.6543C65.901 34.3535 65.9922 34.0618 66.1016 33.7793C66.2109 33.4876 66.3477 33.2279 66.5117 33C66.6849 32.7721 66.8854 32.5898 67.1133 32.4531C67.3503 32.3164 67.6191 32.248 67.9199 32.248C68.248 32.248 68.5625 32.3438 68.8633 32.5352C69.1641 32.7266 69.3919 32.9635 69.5469 33.2461L69.6699 31.0723C69.679 30.8991 69.6927 30.6986 69.7109 30.4707C69.7292 30.2337 69.7656 30.0104 69.8203 29.8008C69.8841 29.5911 69.9798 29.4134 70.1074 29.2676C70.235 29.1217 70.4219 29.0488 70.668 29.0488C70.9323 29.0488 71.1374 29.1126 71.2832 29.2402C71.429 29.3678 71.5339 29.5319 71.5977 29.7324C71.6706 29.9238 71.7116 30.1335 71.7207 30.3613C71.7389 30.5892 71.748 30.8034 71.748 31.0039ZM69.5195 37.0742C69.5195 36.8646 69.515 36.6595 69.5059 36.459C69.4967 36.2585 69.4967 36.0534 69.5059 35.8438C69.4512 35.7253 69.3874 35.5977 69.3145 35.4609C69.2415 35.3151 69.1504 35.1829 69.041 35.0645C68.9408 34.9368 68.8268 34.832 68.6992 34.75C68.5716 34.668 68.4349 34.627 68.2891 34.627C68.125 34.627 67.9928 34.6771 67.8926 34.7773C67.7923 34.8776 67.7194 35.0007 67.6738 35.1465C67.6283 35.2832 67.5964 35.4336 67.5781 35.5977C67.569 35.7617 67.5645 35.903 67.5645 36.0215C67.5645 36.1309 67.5736 36.2949 67.5918 36.5137C67.61 36.7233 67.6419 36.9375 67.6875 37.1562C67.7422 37.375 67.8151 37.5664 67.9062 37.7305C67.9974 37.8945 68.1204 37.9766 68.2754 37.9766C68.3939 37.9766 68.5124 37.9538 68.6309 37.9082C68.7493 37.8535 68.8587 37.7897 68.959 37.7168C69.0684 37.6348 69.1686 37.5482 69.2598 37.457C69.36 37.3568 69.4466 37.2656 69.5195 37.1836V37.0742ZM74.9062 30.457C74.9062 30.5846 74.8698 30.6986 74.7969 30.7988C74.7331 30.8991 74.6465 30.9902 74.5371 31.0723C74.4277 31.1452 74.3092 31.2044 74.1816 31.25C74.054 31.2865 73.9355 31.3047 73.8262 31.3047C73.6439 31.3047 73.4844 31.2591 73.3477 31.168C73.2109 31.0768 73.1426 30.9355 73.1426 30.7441C73.1426 30.6074 73.1745 30.4889 73.2383 30.3887C73.3112 30.2793 73.3978 30.1927 73.498 30.1289C73.5983 30.056 73.7122 30.0013 73.8398 29.9648C73.9674 29.9284 74.0905 29.9102 74.209 29.9102C74.3822 29.9102 74.5417 29.9512 74.6875 30.0332C74.8333 30.1152 74.9062 30.2565 74.9062 30.457ZM75.0156 35.1055C75.0156 35.2331 75.0156 35.3698 75.0156 35.5156C75.0156 35.6523 75.0111 35.7845 75.002 35.9121C74.9928 36.0671 74.9883 36.2767 74.9883 36.541C74.9883 36.7962 74.9792 37.0742 74.9609 37.375C74.9427 37.6758 74.9108 37.9811 74.8652 38.291C74.8288 38.6009 74.765 38.8835 74.6738 39.1387C74.5827 39.3939 74.4596 39.6035 74.3047 39.7676C74.1589 39.9225 73.972 40.0046 73.7441 40.0137C73.571 40.0228 73.4251 39.9544 73.3066 39.8086C73.1882 39.6628 73.0879 39.4759 73.0059 39.248C72.9329 39.0111 72.8783 38.7513 72.8418 38.4688C72.8053 38.1771 72.778 37.8991 72.7598 37.6348C72.7415 37.3613 72.7324 37.1107 72.7324 36.8828C72.7324 36.6549 72.7324 36.4863 72.7324 36.377C72.7324 36.2311 72.7324 36.026 72.7324 35.7617C72.7324 35.4883 72.7415 35.1966 72.7598 34.8867C72.778 34.5768 72.8099 34.2624 72.8555 33.9434C72.9102 33.6243 72.9831 33.3327 73.0742 33.0684C73.1745 32.804 73.3021 32.5898 73.457 32.4258C73.612 32.2617 73.8079 32.1797 74.0449 32.1797C74.291 32.1797 74.4779 32.3027 74.6055 32.5488C74.7331 32.7949 74.8288 33.082 74.8926 33.4102C74.9564 33.7383 74.9928 34.0664 75.002 34.3945C75.0111 34.7135 75.0156 34.9505 75.0156 35.1055ZM78.543 34.2715C78.543 34.4173 78.5339 34.6178 78.5156 34.873C78.4974 35.1191 78.4701 35.388 78.4336 35.6797C78.3971 35.9622 78.3424 36.2539 78.2695 36.5547C78.2057 36.8464 78.1283 37.1152 78.0371 37.3613C77.946 37.5983 77.8366 37.7943 77.709 37.9492C77.5814 38.0951 77.4355 38.168 77.2715 38.168C77.071 38.168 76.8978 38.0723 76.752 37.8809C76.6152 37.6803 76.4967 37.4297 76.3965 37.1289C76.3053 36.819 76.2324 36.4772 76.1777 36.1035C76.123 35.7298 76.082 35.3652 76.0547 35.0098C76.0273 34.6452 76.0091 34.3125 76 34.0117C76 33.7018 76 33.4648 76 33.3008C76 33.1367 76 32.9316 76 32.6855C76 32.4303 76.0091 32.1615 76.0273 31.8789C76.0547 31.5964 76.0911 31.3184 76.1367 31.0449C76.1914 30.7624 76.2689 30.5072 76.3691 30.2793C76.4694 30.0514 76.6016 29.8691 76.7656 29.7324C76.9297 29.5866 77.1348 29.5137 77.3809 29.5137C77.5996 29.5137 77.7773 29.6094 77.9141 29.8008C78.0599 29.9831 78.1738 30.2246 78.2559 30.5254C78.347 30.8171 78.4108 31.1452 78.4473 31.5098C78.4928 31.8743 78.5202 32.2344 78.5293 32.5898C78.5475 32.9362 78.5521 33.2598 78.543 33.5605C78.543 33.8613 78.543 34.0983 78.543 34.2715ZM78.2832 39.4668C78.2832 39.6217 78.2467 39.7585 78.1738 39.877C78.1009 39.9863 78.0052 40.0775 77.8867 40.1504C77.7682 40.2324 77.6406 40.2917 77.5039 40.3281C77.3672 40.3646 77.2305 40.3828 77.0938 40.3828C76.8932 40.3828 76.7018 40.3281 76.5195 40.2188C76.3372 40.1185 76.2461 39.9544 76.2461 39.7266C76.2461 39.5898 76.2826 39.4668 76.3555 39.3574C76.4375 39.2389 76.5378 39.1387 76.6562 39.0566C76.7747 38.9746 76.9023 38.9108 77.0391 38.8652C77.1849 38.8197 77.3216 38.7969 77.4492 38.7969C77.6589 38.7969 77.8503 38.8516 78.0234 38.9609C78.1966 39.0612 78.2832 39.2298 78.2832 39.4668ZM88.6328 37.8535C88.6328 38.0267 88.5872 38.1953 88.4961 38.3594C88.4049 38.5143 88.1908 38.6966 87.8535 38.9062C87.5163 39.1159 87.1426 39.3164 86.7324 39.5078C86.3223 39.6901 85.9258 39.8496 85.543 39.9863C85.1602 40.1139 84.8776 40.1777 84.6953 40.1777C84.5677 40.1777 84.4173 40.1458 84.2441 40.082C84.071 40.0273 83.8978 39.9544 83.7246 39.8633C83.5514 39.7721 83.3919 39.6673 83.2461 39.5488C83.1094 39.4303 83.0091 39.3164 82.9453 39.207C82.9089 39.1432 82.8724 39.0156 82.8359 38.8242C82.8086 38.6328 82.7812 38.4095 82.7539 38.1543C82.7357 37.8991 82.7174 37.6302 82.6992 37.3477C82.681 37.056 82.6628 36.7826 82.6445 36.5273C82.6354 36.263 82.6263 36.0306 82.6172 35.8301C82.6172 35.6296 82.6172 35.4837 82.6172 35.3926C82.6172 35.0553 82.6263 34.668 82.6445 34.2305C82.6719 33.793 82.7174 33.3555 82.7812 32.918C82.8451 32.4714 82.9362 32.0475 83.0547 31.6465C83.1823 31.2363 83.3509 30.89 83.5605 30.6074C83.6243 30.5254 83.752 30.4388 83.9434 30.3477C84.1348 30.2565 84.3581 30.1699 84.6133 30.0879C84.8776 30.0059 85.1602 29.9284 85.4609 29.8555C85.7617 29.7826 86.0488 29.7233 86.3223 29.6777C86.6048 29.623 86.86 29.582 87.0879 29.5547C87.3158 29.5182 87.4889 29.5 87.6074 29.5C87.7441 29.5 87.8717 29.5319 87.9902 29.5957C88.1178 29.6504 88.2227 29.7279 88.3047 29.8281C88.3958 29.9284 88.4642 30.0423 88.5098 30.1699C88.5645 30.2884 88.5918 30.416 88.5918 30.5527C88.5918 30.6712 88.5736 30.7715 88.5371 30.8535C88.5098 30.9355 88.4642 31.0267 88.4004 31.127C88.3092 31.2454 88.1178 31.3867 87.8262 31.5508C87.5345 31.7148 87.2155 31.8789 86.8691 32.043C86.5319 32.1979 86.2038 32.3392 85.8848 32.4668C85.5749 32.5944 85.3561 32.6855 85.2285 32.7402C85.1921 32.9499 85.151 33.1641 85.1055 33.3828C85.069 33.5924 85.0417 33.8066 85.0234 34.0254C85.306 33.8796 85.625 33.7428 85.9805 33.6152C86.3359 33.4876 86.6732 33.4238 86.9922 33.4238C87.6393 33.4238 87.9629 33.7428 87.9629 34.3809C87.9629 34.5358 87.931 34.6725 87.8672 34.791C87.8125 34.9095 87.735 35.0143 87.6348 35.1055C87.5436 35.1966 87.4342 35.2786 87.3066 35.3516C87.1882 35.4154 87.0697 35.4792 86.9512 35.543C86.6595 35.6979 86.3542 35.8346 86.0352 35.9531C85.7161 36.0625 85.3971 36.1719 85.0781 36.2812C85.0599 36.3542 85.0417 36.4362 85.0234 36.5273C85.0052 36.6094 84.9961 36.6914 84.9961 36.7734C84.9961 36.901 85.0052 37.0286 85.0234 37.1562C85.0417 37.2839 85.0599 37.4115 85.0781 37.5391C85.1875 37.5026 85.3607 37.4434 85.5977 37.3613C85.8438 37.2793 86.099 37.1973 86.3633 37.1152C86.6276 37.0332 86.8828 36.9648 87.1289 36.9102C87.375 36.8464 87.5573 36.8145 87.6758 36.8145C87.8125 36.8145 87.9401 36.8464 88.0586 36.9102C88.1771 36.9648 88.2773 37.0423 88.3594 37.1426C88.4414 37.2337 88.5052 37.3431 88.5508 37.4707C88.6055 37.5983 88.6328 37.7259 88.6328 37.8535ZM97.6152 34.75C97.6152 34.7956 97.6107 34.8457 97.6016 34.9004C97.5924 34.946 97.5788 34.9915 97.5605 35.0371C97.4785 35.2467 97.3509 35.4245 97.1777 35.5703C97.0046 35.707 96.7995 35.7754 96.5625 35.7754C96.207 35.7754 95.9655 35.5977 95.8379 35.2422C95.8197 35.1966 95.8105 35.1465 95.8105 35.0918C95.8105 35.028 95.806 34.9642 95.7969 34.9004V34.5039C95.7786 34.3763 95.7467 34.276 95.7012 34.2031C95.6556 34.1302 95.5781 34.0938 95.4688 34.0938C95.3138 34.0938 95.1634 34.194 95.0176 34.3945C94.8809 34.5859 94.7578 34.8184 94.6484 35.0918C94.5482 35.3561 94.4661 35.6296 94.4023 35.9121C94.3385 36.1947 94.3066 36.4225 94.3066 36.5957C94.3066 36.7324 94.3158 36.901 94.334 37.1016C94.3522 37.293 94.3887 37.4798 94.4434 37.6621C94.498 37.8444 94.571 38.0039 94.6621 38.1406C94.7624 38.2682 94.89 38.332 95.0449 38.332C95.1999 38.332 95.3411 38.2865 95.4688 38.1953C95.6055 38.0951 95.7376 37.9811 95.8652 37.8535C95.9837 37.7441 96.1113 37.6302 96.248 37.5117C96.3939 37.3932 96.5579 37.334 96.7402 37.334C96.9681 37.334 97.1458 37.416 97.2734 37.5801C97.4102 37.7441 97.4785 37.931 97.4785 38.1406C97.4785 38.4505 97.3965 38.7422 97.2324 39.0156C97.0684 39.2799 96.8633 39.5124 96.6172 39.7129C96.3711 39.9043 96.0977 40.0547 95.7969 40.1641C95.4961 40.2826 95.209 40.3418 94.9355 40.3418C94.4434 40.3418 94.0241 40.2188 93.6777 39.9727C93.3405 39.7266 93.0671 39.4167 92.8574 39.043C92.6478 38.6602 92.4974 38.2454 92.4062 37.7988C92.3151 37.3522 92.2695 36.9284 92.2695 36.5273C92.2695 36.0625 92.3333 35.5612 92.4609 35.0234C92.5885 34.4766 92.7845 33.9707 93.0488 33.5059C93.3132 33.041 93.6504 32.6536 94.0605 32.3438C94.4798 32.0339 94.9766 31.8789 95.5508 31.8789C95.9062 31.8789 96.2116 31.9564 96.4668 32.1113C96.7311 32.2663 96.9453 32.4714 97.1094 32.7266C97.2826 32.9727 97.4102 33.2507 97.4922 33.5605C97.5833 33.8704 97.6289 34.1758 97.6289 34.4766C97.6289 34.5221 97.6289 34.5677 97.6289 34.6133C97.6289 34.6589 97.6243 34.7044 97.6152 34.75ZM100.979 40.3965C100.514 40.3965 100.108 40.2734 99.7617 40.0273C99.4154 39.7812 99.1237 39.4668 98.8867 39.084C98.6497 38.7012 98.472 38.2773 98.3535 37.8125C98.235 37.3385 98.1758 36.8737 98.1758 36.418C98.1758 35.9349 98.235 35.4382 98.3535 34.9277C98.472 34.4082 98.6543 33.9388 98.9004 33.5195C99.1465 33.0911 99.4609 32.7448 99.8438 32.4805C100.227 32.207 100.682 32.0703 101.211 32.0703C101.721 32.0703 102.154 32.2116 102.51 32.4941C102.874 32.7676 103.166 33.1139 103.385 33.5332C103.604 33.9434 103.758 34.3945 103.85 34.8867C103.941 35.3789 103.973 35.8438 103.945 36.2812C103.918 36.7643 103.84 37.252 103.713 37.7441C103.594 38.2363 103.417 38.6784 103.18 39.0703C102.943 39.4622 102.642 39.7812 102.277 40.0273C101.913 40.2734 101.48 40.3965 100.979 40.3965ZM101.115 34.2168C100.979 34.2168 100.855 34.2897 100.746 34.4355C100.646 34.5814 100.559 34.7591 100.486 34.9688C100.423 35.1784 100.372 35.4017 100.336 35.6387C100.299 35.8665 100.281 36.0671 100.281 36.2402C100.281 36.459 100.299 36.696 100.336 36.9512C100.382 37.2064 100.441 37.4434 100.514 37.6621C100.587 37.8717 100.673 38.0495 100.773 38.1953C100.883 38.332 101.006 38.4004 101.143 38.4004C101.288 38.4004 101.411 38.332 101.512 38.1953C101.621 38.0586 101.708 37.8854 101.771 37.6758C101.835 37.4661 101.881 37.2383 101.908 36.9922C101.936 36.737 101.949 36.5 101.949 36.2812C101.949 36.0807 101.931 35.862 101.895 35.625C101.858 35.3789 101.803 35.151 101.73 34.9414C101.667 34.7318 101.58 34.5586 101.471 34.4219C101.37 34.2852 101.252 34.2168 101.115 34.2168ZM112.941 35.4883C112.941 35.6615 112.941 35.8984 112.941 36.1992C112.941 36.4909 112.932 36.8099 112.914 37.1562C112.905 37.5026 112.878 37.8535 112.832 38.209C112.786 38.5553 112.714 38.8698 112.613 39.1523C112.522 39.4349 112.404 39.6673 112.258 39.8496C112.112 40.0319 111.925 40.123 111.697 40.123C111.497 40.123 111.342 40.041 111.232 39.877C111.132 39.7038 111.059 39.5033 111.014 39.2754C110.968 39.0475 110.941 38.8151 110.932 38.5781C110.932 38.3411 110.932 38.1543 110.932 38.0176C110.932 37.6074 110.945 37.2064 110.973 36.8145C111 36.4225 111.014 36.0215 111.014 35.6113C111.014 35.5658 111.014 35.4837 111.014 35.3652C111.014 35.2467 111.005 35.1283 110.986 35.0098C110.968 34.8913 110.936 34.7865 110.891 34.6953C110.854 34.6042 110.795 34.5586 110.713 34.5586C110.549 34.5586 110.417 34.6452 110.316 34.8184C110.216 34.9824 110.134 35.1784 110.07 35.4062C110.007 35.6341 109.961 35.862 109.934 36.0898C109.906 36.3086 109.888 36.4727 109.879 36.582C109.861 36.7005 109.842 36.8783 109.824 37.1152C109.815 37.3522 109.797 37.612 109.77 37.8945C109.751 38.1771 109.715 38.4688 109.66 38.7695C109.615 39.0612 109.551 39.3301 109.469 39.5762C109.396 39.8132 109.3 40.0091 109.182 40.1641C109.063 40.319 108.917 40.3965 108.744 40.3965C108.525 40.3965 108.357 40.3008 108.238 40.1094C108.12 39.918 108.033 39.6947 107.979 39.4395C107.924 39.1842 107.887 38.9245 107.869 38.6602C107.86 38.3958 107.855 38.1908 107.855 38.0449C107.855 37.89 107.855 37.7396 107.855 37.5938C107.865 37.4479 107.869 37.2975 107.869 37.1426C107.869 37.0788 107.869 36.974 107.869 36.8281C107.869 36.6823 107.865 36.5228 107.855 36.3496C107.855 36.1673 107.846 35.9805 107.828 35.7891C107.819 35.5977 107.801 35.4245 107.773 35.2695C107.746 35.1055 107.705 34.9733 107.65 34.873C107.596 34.7728 107.532 34.7227 107.459 34.7227C107.34 34.7227 107.231 34.8001 107.131 34.9551C107.031 35.1009 106.944 35.2786 106.871 35.4883C106.798 35.6888 106.739 35.8893 106.693 36.0898C106.657 36.2904 106.639 36.4362 106.639 36.5273V36.6094C106.639 37.0469 106.666 37.4753 106.721 37.8945C106.775 38.3138 106.803 38.7422 106.803 39.1797C106.803 39.4349 106.721 39.6719 106.557 39.8906C106.393 40.1003 106.165 40.2051 105.873 40.2051C105.663 40.2051 105.49 40.1276 105.354 39.9727C105.217 39.8086 105.103 39.599 105.012 39.3438C104.921 39.0885 104.848 38.8105 104.793 38.5098C104.747 38.1999 104.715 37.8991 104.697 37.6074C104.679 37.3066 104.665 37.0378 104.656 36.8008C104.656 36.5547 104.656 36.3724 104.656 36.2539C104.656 36.1172 104.652 35.9167 104.643 35.6523C104.643 35.388 104.647 35.1009 104.656 34.791C104.674 34.4811 104.702 34.1667 104.738 33.8477C104.775 33.5195 104.834 33.2233 104.916 32.959C104.998 32.6947 105.103 32.4805 105.23 32.3164C105.367 32.1432 105.54 32.0566 105.75 32.0566C105.987 32.0566 106.178 32.1204 106.324 32.248C106.479 32.3757 106.557 32.5671 106.557 32.8223C106.557 32.877 106.552 32.9316 106.543 32.9863C106.543 33.041 106.538 33.0911 106.529 33.1367C106.63 32.9909 106.753 32.8451 106.898 32.6992C107.044 32.5443 107.199 32.4076 107.363 32.2891C107.536 32.1615 107.719 32.0612 107.91 31.9883C108.102 31.9062 108.293 31.8652 108.484 31.8652C108.667 31.8652 108.831 31.9154 108.977 32.0156C109.122 32.1159 109.25 32.2435 109.359 32.3984C109.469 32.5443 109.56 32.7038 109.633 32.877C109.706 33.0501 109.756 33.2142 109.783 33.3691C109.874 33.2051 109.984 33.041 110.111 32.877C110.248 32.7038 110.394 32.5534 110.549 32.4258C110.704 32.2982 110.872 32.1934 111.055 32.1113C111.246 32.0293 111.442 31.9883 111.643 31.9883C111.834 31.9883 111.998 32.0566 112.135 32.1934C112.271 32.3301 112.39 32.5078 112.49 32.7266C112.59 32.9362 112.668 33.1777 112.723 33.4512C112.777 33.7155 112.823 33.9798 112.859 34.2441C112.896 34.4993 112.919 34.7409 112.928 34.9688C112.937 35.1875 112.941 35.3607 112.941 35.4883ZM116.441 40.3965C115.977 40.3965 115.571 40.2734 115.225 40.0273C114.878 39.7812 114.587 39.4668 114.35 39.084C114.113 38.7012 113.935 38.2773 113.816 37.8125C113.698 37.3385 113.639 36.8737 113.639 36.418C113.639 35.9349 113.698 35.4382 113.816 34.9277C113.935 34.4082 114.117 33.9388 114.363 33.5195C114.609 33.0911 114.924 32.7448 115.307 32.4805C115.689 32.207 116.145 32.0703 116.674 32.0703C117.184 32.0703 117.617 32.2116 117.973 32.4941C118.337 32.7676 118.629 33.1139 118.848 33.5332C119.066 33.9434 119.221 34.3945 119.312 34.8867C119.404 35.3789 119.436 35.8438 119.408 36.2812C119.381 36.7643 119.303 37.252 119.176 37.7441C119.057 38.2363 118.88 38.6784 118.643 39.0703C118.406 39.4622 118.105 39.7812 117.74 40.0273C117.376 40.2734 116.943 40.3965 116.441 40.3965ZM116.578 34.2168C116.441 34.2168 116.318 34.2897 116.209 34.4355C116.109 34.5814 116.022 34.7591 115.949 34.9688C115.885 35.1784 115.835 35.4017 115.799 35.6387C115.762 35.8665 115.744 36.0671 115.744 36.2402C115.744 36.459 115.762 36.696 115.799 36.9512C115.844 37.2064 115.904 37.4434 115.977 37.6621C116.049 37.8717 116.136 38.0495 116.236 38.1953C116.346 38.332 116.469 38.4004 116.605 38.4004C116.751 38.4004 116.874 38.332 116.975 38.1953C117.084 38.0586 117.171 37.8854 117.234 37.6758C117.298 37.4661 117.344 37.2383 117.371 36.9922C117.398 36.737 117.412 36.5 117.412 36.2812C117.412 36.0807 117.394 35.862 117.357 35.625C117.321 35.3789 117.266 35.151 117.193 34.9414C117.13 34.7318 117.043 34.5586 116.934 34.4219C116.833 34.2852 116.715 34.2168 116.578 34.2168ZM129.293 35.1055C129.056 35.7344 128.796 36.3906 128.514 37.0742C128.231 37.7578 127.926 38.3958 127.598 38.9883C127.397 39.3529 127.174 39.6582 126.928 39.9043C126.682 40.1413 126.399 40.2598 126.08 40.2598C125.825 40.2598 125.574 40.1322 125.328 39.877C125.091 39.6126 124.868 39.3027 124.658 38.9473C124.458 38.5827 124.28 38.2181 124.125 37.8535C123.979 37.4798 123.87 37.1836 123.797 36.9648C123.724 36.7188 123.642 36.4544 123.551 36.1719C123.46 35.8893 123.378 35.6022 123.305 35.3105C123.232 35.0189 123.173 34.7318 123.127 34.4492C123.081 34.1576 123.059 33.8841 123.059 33.6289C123.059 33.2734 123.122 32.9818 123.25 32.7539C123.378 32.526 123.628 32.4121 124.002 32.4121C124.148 32.4121 124.28 32.4577 124.398 32.5488C124.517 32.6309 124.626 32.7493 124.727 32.9043C124.827 33.0592 124.923 33.2415 125.014 33.4512C125.105 33.6517 125.191 33.875 125.273 34.1211C125.355 34.3581 125.433 34.6042 125.506 34.8594C125.579 35.1146 125.652 35.3607 125.725 35.5977C125.798 35.8346 125.87 36.0671 125.943 36.2949C126.025 36.5137 126.13 36.7324 126.258 36.9512C126.322 36.7871 126.395 36.6003 126.477 36.3906C126.559 36.181 126.645 35.9577 126.736 35.7207C126.837 35.4837 126.941 35.2422 127.051 34.9961C127.16 34.7409 127.279 34.4948 127.406 34.2578C127.652 33.7656 127.912 33.3464 128.186 33C128.468 32.6536 128.746 32.4805 129.02 32.4805C129.275 32.4805 129.457 32.5579 129.566 32.7129C129.676 32.8678 129.73 33.0684 129.73 33.3145C129.73 33.5605 129.689 33.8385 129.607 34.1484C129.525 34.4583 129.421 34.7773 129.293 35.1055ZM132.807 40.3965C132.342 40.3965 131.936 40.2734 131.59 40.0273C131.243 39.7812 130.952 39.4668 130.715 39.084C130.478 38.7012 130.3 38.2773 130.182 37.8125C130.063 37.3385 130.004 36.8737 130.004 36.418C130.004 35.9349 130.063 35.4382 130.182 34.9277C130.3 34.4082 130.482 33.9388 130.729 33.5195C130.975 33.0911 131.289 32.7448 131.672 32.4805C132.055 32.207 132.51 32.0703 133.039 32.0703C133.549 32.0703 133.982 32.2116 134.338 32.4941C134.702 32.7676 134.994 33.1139 135.213 33.5332C135.432 33.9434 135.587 34.3945 135.678 34.8867C135.769 35.3789 135.801 35.8438 135.773 36.2812C135.746 36.7643 135.669 37.252 135.541 37.7441C135.423 38.2363 135.245 38.6784 135.008 39.0703C134.771 39.4622 134.47 39.7812 134.105 40.0273C133.741 40.2734 133.308 40.3965 132.807 40.3965ZM132.943 34.2168C132.807 34.2168 132.684 34.2897 132.574 34.4355C132.474 34.5814 132.387 34.7591 132.314 34.9688C132.251 35.1784 132.201 35.4017 132.164 35.6387C132.128 35.8665 132.109 36.0671 132.109 36.2402C132.109 36.459 132.128 36.696 132.164 36.9512C132.21 37.2064 132.269 37.4434 132.342 37.6621C132.415 37.8717 132.501 38.0495 132.602 38.1953C132.711 38.332 132.834 38.4004 132.971 38.4004C133.117 38.4004 133.24 38.332 133.34 38.1953C133.449 38.0586 133.536 37.8854 133.6 37.6758C133.663 37.4661 133.709 37.2383 133.736 36.9922C133.764 36.737 133.777 36.5 133.777 36.2812C133.777 36.0807 133.759 35.862 133.723 35.625C133.686 35.3789 133.632 35.151 133.559 34.9414C133.495 34.7318 133.408 34.5586 133.299 34.4219C133.199 34.2852 133.08 34.2168 132.943 34.2168ZM141.543 34.75C141.543 34.7956 141.538 34.8457 141.529 34.9004C141.52 34.946 141.507 34.9915 141.488 35.0371C141.406 35.2467 141.279 35.4245 141.105 35.5703C140.932 35.707 140.727 35.7754 140.49 35.7754C140.135 35.7754 139.893 35.5977 139.766 35.2422C139.747 35.1966 139.738 35.1465 139.738 35.0918C139.738 35.028 139.734 34.9642 139.725 34.9004V34.5039C139.706 34.3763 139.674 34.276 139.629 34.2031C139.583 34.1302 139.506 34.0938 139.396 34.0938C139.242 34.0938 139.091 34.194 138.945 34.3945C138.809 34.5859 138.686 34.8184 138.576 35.0918C138.476 35.3561 138.394 35.6296 138.33 35.9121C138.266 36.1947 138.234 36.4225 138.234 36.5957C138.234 36.7324 138.243 36.901 138.262 37.1016C138.28 37.293 138.316 37.4798 138.371 37.6621C138.426 37.8444 138.499 38.0039 138.59 38.1406C138.69 38.2682 138.818 38.332 138.973 38.332C139.128 38.332 139.269 38.2865 139.396 38.1953C139.533 38.0951 139.665 37.9811 139.793 37.8535C139.911 37.7441 140.039 37.6302 140.176 37.5117C140.322 37.3932 140.486 37.334 140.668 37.334C140.896 37.334 141.074 37.416 141.201 37.5801C141.338 37.7441 141.406 37.931 141.406 38.1406C141.406 38.4505 141.324 38.7422 141.16 39.0156C140.996 39.2799 140.791 39.5124 140.545 39.7129C140.299 39.9043 140.025 40.0547 139.725 40.1641C139.424 40.2826 139.137 40.3418 138.863 40.3418C138.371 40.3418 137.952 40.2188 137.605 39.9727C137.268 39.7266 136.995 39.4167 136.785 39.043C136.576 38.6602 136.425 38.2454 136.334 37.7988C136.243 37.3522 136.197 36.9284 136.197 36.5273C136.197 36.0625 136.261 35.5612 136.389 35.0234C136.516 34.4766 136.712 33.9707 136.977 33.5059C137.241 33.041 137.578 32.6536 137.988 32.3438C138.408 32.0339 138.904 31.8789 139.479 31.8789C139.834 31.8789 140.139 31.9564 140.395 32.1113C140.659 32.2663 140.873 32.4714 141.037 32.7266C141.21 32.9727 141.338 33.2507 141.42 33.5605C141.511 33.8704 141.557 34.1758 141.557 34.4766C141.557 34.5221 141.557 34.5677 141.557 34.6133C141.557 34.6589 141.552 34.7044 141.543 34.75ZM148.037 37.5664C148.037 37.8763 147.937 38.1816 147.736 38.4824C147.545 38.7741 147.299 39.0384 146.998 39.2754C146.706 39.5033 146.392 39.6901 146.055 39.8359C145.717 39.9727 145.408 40.041 145.125 40.041C144.642 40.041 144.209 39.9225 143.826 39.6855C143.452 39.4395 143.138 39.1296 142.883 38.7559C142.628 38.3822 142.432 37.972 142.295 37.5254C142.167 37.0697 142.104 36.6276 142.104 36.1992C142.104 35.7435 142.167 35.2559 142.295 34.7363C142.423 34.2168 142.614 33.7383 142.869 33.3008C143.133 32.8633 143.462 32.4987 143.854 32.207C144.255 31.9154 144.729 31.7695 145.275 31.7695C145.585 31.7695 145.882 31.8242 146.164 31.9336C146.447 32.0339 146.693 32.1797 146.902 32.3711C147.112 32.5625 147.281 32.7904 147.408 33.0547C147.536 33.319 147.6 33.6152 147.6 33.9434C147.6 34.3717 147.508 34.7728 147.326 35.1465C147.144 35.5202 146.902 35.8438 146.602 36.1172C146.301 36.3906 145.954 36.6139 145.562 36.7871C145.171 36.9512 144.77 37.0423 144.359 37.0605C144.396 37.3249 144.501 37.5163 144.674 37.6348C144.856 37.7533 145.07 37.8125 145.316 37.8125C145.499 37.8125 145.676 37.7669 145.85 37.6758C146.023 37.5846 146.191 37.4844 146.355 37.375C146.52 37.2565 146.679 37.1517 146.834 37.0605C146.998 36.9694 147.162 36.9238 147.326 36.9238C147.508 36.9238 147.673 36.9831 147.818 37.1016C147.964 37.2201 148.037 37.375 148.037 37.5664ZM145.822 34.2168C145.822 34.0983 145.79 33.9753 145.727 33.8477C145.663 33.7201 145.562 33.6562 145.426 33.6562C145.225 33.6562 145.057 33.7109 144.92 33.8203C144.783 33.9206 144.669 34.0527 144.578 34.2168C144.487 34.3717 144.414 34.5404 144.359 34.7227C144.314 34.9049 144.286 35.0736 144.277 35.2285C144.405 35.2012 144.555 35.1647 144.729 35.1191C144.911 35.0736 145.079 35.0143 145.234 34.9414C145.398 34.8594 145.535 34.7591 145.645 34.6406C145.763 34.5221 145.822 34.3809 145.822 34.2168ZM147.039 30.8535C147.039 30.9264 147.025 30.972 146.998 30.9902C146.971 31.0085 146.925 31.0176 146.861 31.0176C146.752 31.0176 146.629 30.9902 146.492 30.9355C146.365 30.8809 146.232 30.8125 146.096 30.7305C145.968 30.6484 145.84 30.5618 145.713 30.4707C145.594 30.3796 145.494 30.2975 145.412 30.2246C145.321 30.2975 145.212 30.3841 145.084 30.4844C144.965 30.5846 144.838 30.6803 144.701 30.7715C144.564 30.8535 144.428 30.9264 144.291 30.9902C144.154 31.0449 144.027 31.0723 143.908 31.0723C143.863 31.0723 143.817 31.0632 143.771 31.0449C143.735 31.0267 143.717 30.9811 143.717 30.9082C143.717 30.7715 143.776 30.5983 143.895 30.3887C144.013 30.179 144.159 29.9785 144.332 29.7871C144.505 29.5957 144.688 29.4316 144.879 29.2949C145.07 29.1582 145.239 29.0898 145.385 29.0898C145.531 29.0898 145.699 29.1582 145.891 29.2949C146.082 29.4225 146.26 29.5775 146.424 29.7598C146.597 29.9421 146.743 30.1335 146.861 30.334C146.98 30.5345 147.039 30.7077 147.039 30.8535ZM152.59 32.4805C152.59 32.7448 152.499 32.9408 152.316 33.0684C152.143 33.196 151.947 33.319 151.729 33.4375C151.51 33.5469 151.309 33.679 151.127 33.834C150.954 33.9889 150.867 34.2214 150.867 34.5312C150.867 34.6953 150.904 34.8366 150.977 34.9551C151.059 35.0736 151.154 35.1829 151.264 35.2832C151.382 35.3743 151.51 35.4701 151.646 35.5703C151.783 35.6706 151.906 35.7845 152.016 35.9121C152.134 36.0397 152.23 36.1947 152.303 36.377C152.385 36.5592 152.426 36.7826 152.426 37.0469C152.426 37.4297 152.326 37.8079 152.125 38.1816C151.934 38.5462 151.683 38.8743 151.373 39.166C151.072 39.4486 150.73 39.6764 150.348 39.8496C149.965 40.0228 149.587 40.1094 149.213 40.1094C149.058 40.1094 148.903 40.0957 148.748 40.0684C148.593 40.0501 148.452 40.0091 148.324 39.9453C148.206 39.8815 148.105 39.7949 148.023 39.6855C147.941 39.5671 147.9 39.4167 147.9 39.2344C147.9 38.9792 147.951 38.7832 148.051 38.6465C148.151 38.5007 148.279 38.3867 148.434 38.3047C148.589 38.2227 148.753 38.1589 148.926 38.1133C149.108 38.0677 149.277 38.013 149.432 37.9492C149.587 37.8763 149.714 37.7852 149.814 37.6758C149.915 37.5664 149.965 37.4115 149.965 37.2109C149.965 37.0195 149.887 36.8236 149.732 36.623C149.587 36.4134 149.423 36.1947 149.24 35.9668C149.058 35.7298 148.889 35.4792 148.734 35.2148C148.589 34.9505 148.516 34.6589 148.516 34.3398C148.516 33.9479 148.593 33.5879 148.748 33.2598C148.912 32.9225 149.126 32.6309 149.391 32.3848C149.664 32.1387 149.974 31.9473 150.32 31.8105C150.667 31.6647 151.031 31.5918 151.414 31.5918C151.56 31.5918 151.701 31.6055 151.838 31.6328C151.984 31.6602 152.111 31.7103 152.221 31.7832C152.33 31.847 152.417 31.9382 152.48 32.0566C152.553 32.166 152.59 32.3073 152.59 32.4805ZM47.7129 52.75C47.7129 52.7956 47.7083 52.8457 47.6992 52.9004C47.6901 52.946 47.6764 52.9915 47.6582 53.0371C47.5762 53.2467 47.4486 53.4245 47.2754 53.5703C47.1022 53.707 46.8971 53.7754 46.6602 53.7754C46.3047 53.7754 46.0632 53.5977 45.9355 53.2422C45.9173 53.1966 45.9082 53.1465 45.9082 53.0918C45.9082 53.028 45.9036 52.9642 45.8945 52.9004V52.5039C45.8763 52.3763 45.8444 52.276 45.7988 52.2031C45.7533 52.1302 45.6758 52.0938 45.5664 52.0938C45.4115 52.0938 45.2611 52.194 45.1152 52.3945C44.9785 52.5859 44.8555 52.8184 44.7461 53.0918C44.6458 53.3561 44.5638 53.6296 44.5 53.9121C44.4362 54.1947 44.4043 54.4225 44.4043 54.5957C44.4043 54.7324 44.4134 54.901 44.4316 55.1016C44.4499 55.293 44.4863 55.4798 44.541 55.6621C44.5957 55.8444 44.6686 56.0039 44.7598 56.1406C44.86 56.2682 44.9876 56.332 45.1426 56.332C45.2975 56.332 45.4388 56.2865 45.5664 56.1953C45.7031 56.0951 45.8353 55.9811 45.9629 55.8535C46.0814 55.7441 46.209 55.6302 46.3457 55.5117C46.4915 55.3932 46.6556 55.334 46.8379 55.334C47.0658 55.334 47.2435 55.416 47.3711 55.5801C47.5078 55.7441 47.5762 55.931 47.5762 56.1406C47.5762 56.4505 47.4941 56.7422 47.3301 57.0156C47.166 57.2799 46.9609 57.5124 46.7148 57.7129C46.4688 57.9043 46.1953 58.0547 45.8945 58.1641C45.5938 58.2826 45.3066 58.3418 45.0332 58.3418C44.541 58.3418 44.1217 58.2188 43.7754 57.9727C43.4382 57.7266 43.1647 57.4167 42.9551 57.043C42.7454 56.6602 42.5951 56.2454 42.5039 55.7988C42.4128 55.3522 42.3672 54.9284 42.3672 54.5273C42.3672 54.0625 42.431 53.5612 42.5586 53.0234C42.6862 52.4766 42.8822 51.9707 43.1465 51.5059C43.4108 51.041 43.748 50.6536 44.1582 50.3438C44.5775 50.0339 45.0742 49.8789 45.6484 49.8789C46.0039 49.8789 46.3092 49.9564 46.5645 50.1113C46.8288 50.2663 47.043 50.4714 47.207 50.7266C47.3802 50.9727 47.5078 51.2507 47.5898 51.5605C47.681 51.8704 47.7266 52.1758 47.7266 52.4766C47.7266 52.5221 47.7266 52.5677 47.7266 52.6133C47.7266 52.6589 47.722 52.7044 47.7129 52.75ZM54.6855 54.459C54.6855 54.6139 54.681 54.8464 54.6719 55.1562C54.6719 55.457 54.6582 55.776 54.6309 56.1133C54.6126 56.4414 54.5853 56.7559 54.5488 57.0566C54.5124 57.3483 54.4668 57.5625 54.4121 57.6992C54.3392 57.8724 54.2435 58.0228 54.125 58.1504C54.0065 58.278 53.847 58.3418 53.6465 58.3418C53.3366 58.3418 53.1133 58.2188 52.9766 57.9727C52.8398 57.7266 52.7487 57.4212 52.7031 57.0566C52.6576 56.6921 52.6393 56.2956 52.6484 55.8672C52.6576 55.4388 52.653 55.0423 52.6348 54.6777C52.6165 54.3132 52.5664 54.0078 52.4844 53.7617C52.4023 53.5156 52.252 53.3926 52.0332 53.3926C51.7324 53.3926 51.5 53.4427 51.3359 53.543C51.181 53.6341 51.0671 53.7572 50.9941 53.9121C50.9303 54.0671 50.8893 54.2448 50.8711 54.4453C50.862 54.6458 50.8483 54.8555 50.8301 55.0742C50.8118 55.2839 50.7982 55.5664 50.7891 55.9219C50.7799 56.2773 50.7389 56.6283 50.666 56.9746C50.5931 57.321 50.4701 57.6217 50.2969 57.877C50.1328 58.123 49.8867 58.2461 49.5586 58.2461C49.3581 58.2461 49.194 58.1686 49.0664 58.0137C48.9479 57.8587 48.8522 57.6582 48.7793 57.4121C48.7064 57.166 48.6517 56.8926 48.6152 56.5918C48.5879 56.291 48.5697 55.9993 48.5605 55.7168C48.5605 55.4251 48.5605 55.1608 48.5605 54.9238C48.5697 54.6868 48.5742 54.5091 48.5742 54.3906C48.5742 54.2083 48.5788 53.9076 48.5879 53.4883C48.6061 53.069 48.638 52.6042 48.6836 52.0938C48.7292 51.5742 48.7884 51.041 48.8613 50.4941C48.9342 49.9473 49.0299 49.4505 49.1484 49.0039C49.2669 48.5482 49.4082 48.179 49.5723 47.8965C49.7454 47.6139 49.946 47.4772 50.1738 47.4863C50.3197 47.4954 50.4427 47.5592 50.543 47.6777C50.6523 47.7962 50.7389 47.9512 50.8027 48.1426C50.8757 48.3249 50.9349 48.5254 50.9805 48.7441C51.026 48.9629 51.0579 49.1816 51.0762 49.4004C51.1035 49.61 51.1172 49.806 51.1172 49.9883C51.1263 50.1706 51.1309 50.3118 51.1309 50.4121C51.1309 50.6491 51.1263 50.8861 51.1172 51.123C51.1081 51.36 51.0944 51.597 51.0762 51.834C51.2858 51.5514 51.5638 51.319 51.9102 51.1367C52.2656 50.9544 52.6211 50.8633 52.9766 50.8633C53.4323 50.8633 53.7741 50.9909 54.002 51.2461C54.2389 51.4922 54.4076 51.8021 54.5078 52.1758C54.6081 52.5404 54.6628 52.9323 54.6719 53.3516C54.681 53.7617 54.6855 54.1309 54.6855 54.459ZM61.3848 55.5664C61.3848 55.8763 61.2845 56.1816 61.084 56.4824C60.8926 56.7741 60.6465 57.0384 60.3457 57.2754C60.054 57.5033 59.7396 57.6901 59.4023 57.8359C59.0651 57.9727 58.7552 58.041 58.4727 58.041C57.9896 58.041 57.5566 57.9225 57.1738 57.6855C56.8001 57.4395 56.4857 57.1296 56.2305 56.7559C55.9753 56.3822 55.7793 55.972 55.6426 55.5254C55.515 55.0697 55.4512 54.6276 55.4512 54.1992C55.4512 53.7435 55.515 53.2559 55.6426 52.7363C55.7702 52.2168 55.9616 51.7383 56.2168 51.3008C56.4811 50.8633 56.8092 50.4987 57.2012 50.207C57.6022 49.9154 58.0762 49.7695 58.623 49.7695C58.9329 49.7695 59.2292 49.8242 59.5117 49.9336C59.7943 50.0339 60.0404 50.1797 60.25 50.3711C60.4596 50.5625 60.6283 50.7904 60.7559 51.0547C60.8835 51.319 60.9473 51.6152 60.9473 51.9434C60.9473 52.3717 60.8561 52.7728 60.6738 53.1465C60.4915 53.5202 60.25 53.8438 59.9492 54.1172C59.6484 54.3906 59.3021 54.6139 58.9102 54.7871C58.5182 54.9512 58.1172 55.0423 57.707 55.0605C57.7435 55.3249 57.8483 55.5163 58.0215 55.6348C58.2038 55.7533 58.418 55.8125 58.6641 55.8125C58.8464 55.8125 59.0241 55.7669 59.1973 55.6758C59.3704 55.5846 59.5391 55.4844 59.7031 55.375C59.8672 55.2565 60.0267 55.1517 60.1816 55.0605C60.3457 54.9694 60.5098 54.9238 60.6738 54.9238C60.8561 54.9238 61.0202 54.9831 61.166 55.1016C61.3118 55.2201 61.3848 55.375 61.3848 55.5664ZM59.1699 52.2168C59.1699 52.0983 59.138 51.9753 59.0742 51.8477C59.0104 51.7201 58.9102 51.6562 58.7734 51.6562C58.5729 51.6562 58.4043 51.7109 58.2676 51.8203C58.1309 51.9206 58.0169 52.0527 57.9258 52.2168C57.8346 52.3717 57.7617 52.5404 57.707 52.7227C57.6615 52.9049 57.6341 53.0736 57.625 53.2285C57.7526 53.2012 57.903 53.1647 58.0762 53.1191C58.2585 53.0736 58.4271 53.0143 58.582 52.9414C58.7461 52.8594 58.8828 52.7591 58.9922 52.6406C59.1107 52.5221 59.1699 52.3809 59.1699 52.2168ZM68.125 53.3379C68.125 53.8027 68.1159 54.2676 68.0977 54.7324C68.0885 55.1973 68.0658 55.6621 68.0293 56.127C68.002 56.528 67.9655 56.9564 67.9199 57.4121C67.8743 57.8678 67.8014 58.319 67.7012 58.7656C67.6009 59.2214 67.4688 59.6543 67.3047 60.0645C67.1406 60.4837 66.9219 60.8529 66.6484 61.1719C66.3841 61.4909 66.0605 61.7461 65.6777 61.9375C65.2949 62.1289 64.8392 62.2246 64.3105 62.2246C64.0645 62.2246 63.7865 62.1836 63.4766 62.1016C63.1758 62.0286 62.8887 61.9193 62.6152 61.7734C62.3509 61.6276 62.123 61.4453 61.9316 61.2266C61.7493 61.0169 61.6582 60.7708 61.6582 60.4883C61.6582 60.2786 61.7311 60.0827 61.877 59.9004C62.0319 59.7272 62.2279 59.6406 62.4648 59.6406C62.6107 59.6406 62.7474 59.6634 62.875 59.709C63.0117 59.7637 63.1439 59.8229 63.2715 59.8867C63.4082 59.9505 63.5358 60.0052 63.6543 60.0508C63.7819 60.1055 63.9095 60.1328 64.0371 60.1328C64.3743 60.1328 64.6569 60.0462 64.8848 59.873C65.1126 59.709 65.2949 59.4948 65.4316 59.2305C65.5684 58.9753 65.6686 58.6927 65.7324 58.3828C65.8053 58.082 65.8555 57.7949 65.8828 57.5215C65.7005 57.7311 65.4863 57.877 65.2402 57.959C65.0033 58.0319 64.7526 58.0684 64.4883 58.0684C64.0052 58.0684 63.5951 57.9863 63.2578 57.8223C62.9206 57.6491 62.6471 57.4167 62.4375 57.125C62.2279 56.8242 62.0729 56.4779 61.9727 56.0859C61.8724 55.694 61.8223 55.2702 61.8223 54.8145C61.8223 54.5319 61.8496 54.2129 61.9043 53.8574C61.9681 53.502 62.0592 53.1419 62.1777 52.7773C62.2962 52.4128 62.4421 52.0573 62.6152 51.7109C62.7975 51.3646 63.0072 51.0592 63.2441 50.7949C63.4811 50.5306 63.7454 50.3164 64.0371 50.1523C64.3379 49.9883 64.666 49.9062 65.0215 49.9062C65.3678 49.9062 65.6732 50.0065 65.9375 50.207C66.2109 50.4076 66.3704 50.6901 66.416 51.0547C66.5163 50.8633 66.6484 50.6764 66.8125 50.4941C66.9766 50.3027 67.1771 50.207 67.4141 50.207C67.5417 50.207 67.6465 50.2708 67.7285 50.3984C67.8197 50.526 67.888 50.6947 67.9336 50.9043C67.9883 51.1048 68.0293 51.3281 68.0566 51.5742C68.084 51.8112 68.1022 52.0482 68.1113 52.2852C68.1204 52.513 68.125 52.7227 68.125 52.9141C68.125 53.1055 68.125 53.2467 68.125 53.3379ZM66.0469 54.2266C66.0469 54.0898 66.0241 53.9121 65.9785 53.6934C65.9421 53.4746 65.8828 53.265 65.8008 53.0645C65.7279 52.8639 65.6322 52.6908 65.5137 52.5449C65.3952 52.3991 65.2539 52.3262 65.0898 52.3262C64.8802 52.3262 64.6934 52.3991 64.5293 52.5449C64.3743 52.6908 64.2422 52.8685 64.1328 53.0781C64.0234 53.2786 63.9368 53.4974 63.873 53.7344C63.8184 53.9622 63.791 54.1582 63.791 54.3223C63.791 54.4408 63.8001 54.6003 63.8184 54.8008C63.8366 55.0013 63.873 55.1973 63.9277 55.3887C63.9915 55.5801 64.0736 55.7441 64.1738 55.8809C64.2741 56.0176 64.4062 56.0859 64.5703 56.0859C64.8164 56.0859 65.0306 56.0267 65.2129 55.9082C65.3952 55.7897 65.5456 55.6393 65.6641 55.457C65.7917 55.2747 65.8874 55.0742 65.9512 54.8555C66.015 54.6367 66.0469 54.4271 66.0469 54.2266ZM74.9062 56.0723C74.9062 56.2363 74.8971 56.4505 74.8789 56.7148C74.8698 56.9792 74.8333 57.2389 74.7695 57.4941C74.7057 57.7402 74.6055 57.9544 74.4688 58.1367C74.332 58.319 74.1406 58.4102 73.8945 58.4102C73.5573 58.4102 73.2975 58.3008 73.1152 58.082C72.9329 57.8633 72.8464 57.5898 72.8555 57.2617C72.5638 57.5169 72.2311 57.7174 71.8574 57.8633C71.4928 58.0091 71.1191 58.082 70.7363 58.082C70.472 58.082 70.2214 58.0182 69.9844 57.8906C69.7474 57.763 69.5378 57.599 69.3555 57.3984C69.1732 57.1979 69.0273 56.9746 68.918 56.7285C68.8086 56.4733 68.7539 56.2227 68.7539 55.9766C68.7539 55.5391 68.8861 55.1562 69.1504 54.8281C69.4238 54.5 69.7565 54.222 70.1484 53.9941C70.5404 53.7572 70.9551 53.5703 71.3926 53.4336C71.8392 53.2969 72.2357 53.2057 72.582 53.1602C72.582 53.1146 72.582 53.0736 72.582 53.0371C72.5911 53.0007 72.5957 52.9596 72.5957 52.9141C72.5957 52.6315 72.5182 52.4036 72.3633 52.2305C72.2083 52.0573 71.9896 51.9707 71.707 51.9707C71.4792 51.9707 71.2832 52.0117 71.1191 52.0938C70.9551 52.1667 70.8001 52.2533 70.6543 52.3535C70.5085 52.4447 70.3626 52.5312 70.2168 52.6133C70.071 52.6862 69.9069 52.7227 69.7246 52.7227C69.5241 52.7227 69.3509 52.6589 69.2051 52.5312C69.0684 52.4036 69 52.2396 69 52.0391C69 51.7383 69.0866 51.4648 69.2598 51.2188C69.4421 50.9727 69.6654 50.7676 69.9297 50.6035C70.2031 50.4303 70.4948 50.2982 70.8047 50.207C71.1237 50.1068 71.4154 50.0566 71.6797 50.0566C71.9258 50.0566 72.1719 50.0885 72.418 50.1523C72.6641 50.207 72.8965 50.2982 73.1152 50.4258C73.334 50.5443 73.5299 50.6947 73.7031 50.877C73.8854 51.0501 74.0312 51.2552 74.1406 51.4922C74.3047 51.8294 74.4368 52.1895 74.5371 52.5723C74.6374 52.946 74.7148 53.3333 74.7695 53.7344C74.8242 54.1263 74.8607 54.5228 74.8789 54.9238C74.8971 55.3158 74.9062 55.6986 74.9062 56.0723ZM72.7188 55.6348L72.6777 54.7051C72.6595 54.7051 72.6413 54.7051 72.623 54.7051C72.6048 54.696 72.5866 54.6914 72.5684 54.6914C72.4499 54.6914 72.2995 54.7233 72.1172 54.7871C71.944 54.8418 71.7754 54.9238 71.6113 55.0332C71.4473 55.1335 71.306 55.2474 71.1875 55.375C71.0781 55.5026 71.0234 55.6348 71.0234 55.7715C71.0234 55.8991 71.069 55.9857 71.1602 56.0312C71.2513 56.0768 71.3561 56.0996 71.4746 56.0996C71.6751 56.0996 71.8893 56.0495 72.1172 55.9492C72.3451 55.8398 72.5456 55.735 72.7188 55.6348ZM84.0254 53.4883C84.0254 53.6615 84.0254 53.8984 84.0254 54.1992C84.0254 54.4909 84.0163 54.8099 83.998 55.1562C83.9889 55.5026 83.9616 55.8535 83.916 56.209C83.8704 56.5553 83.7975 56.8698 83.6973 57.1523C83.6061 57.4349 83.4876 57.6673 83.3418 57.8496C83.196 58.0319 83.0091 58.123 82.7812 58.123C82.5807 58.123 82.4258 58.041 82.3164 57.877C82.2161 57.7038 82.1432 57.5033 82.0977 57.2754C82.0521 57.0475 82.0247 56.8151 82.0156 56.5781C82.0156 56.3411 82.0156 56.1543 82.0156 56.0176C82.0156 55.6074 82.0293 55.2064 82.0566 54.8145C82.084 54.4225 82.0977 54.0215 82.0977 53.6113C82.0977 53.5658 82.0977 53.4837 82.0977 53.3652C82.0977 53.2467 82.0885 53.1283 82.0703 53.0098C82.0521 52.8913 82.0202 52.7865 81.9746 52.6953C81.9382 52.6042 81.8789 52.5586 81.7969 52.5586C81.6328 52.5586 81.5007 52.6452 81.4004 52.8184C81.3001 52.9824 81.2181 53.1784 81.1543 53.4062C81.0905 53.6341 81.0449 53.862 81.0176 54.0898C80.9902 54.3086 80.972 54.4727 80.9629 54.582C80.9447 54.7005 80.9264 54.8783 80.9082 55.1152C80.8991 55.3522 80.8809 55.612 80.8535 55.8945C80.8353 56.1771 80.7988 56.4688 80.7441 56.7695C80.6986 57.0612 80.6348 57.3301 80.5527 57.5762C80.4798 57.8132 80.3841 58.0091 80.2656 58.1641C80.1471 58.319 80.0013 58.3965 79.8281 58.3965C79.6094 58.3965 79.4408 58.3008 79.3223 58.1094C79.2038 57.918 79.1172 57.6947 79.0625 57.4395C79.0078 57.1842 78.9714 56.9245 78.9531 56.6602C78.944 56.3958 78.9395 56.1908 78.9395 56.0449C78.9395 55.89 78.9395 55.7396 78.9395 55.5938C78.9486 55.4479 78.9531 55.2975 78.9531 55.1426C78.9531 55.0788 78.9531 54.974 78.9531 54.8281C78.9531 54.6823 78.9486 54.5228 78.9395 54.3496C78.9395 54.1673 78.9303 53.9805 78.9121 53.7891C78.903 53.5977 78.8848 53.4245 78.8574 53.2695C78.8301 53.1055 78.7891 52.9733 78.7344 52.873C78.6797 52.7728 78.6159 52.7227 78.543 52.7227C78.4245 52.7227 78.3151 52.8001 78.2148 52.9551C78.1146 53.1009 78.028 53.2786 77.9551 53.4883C77.8822 53.6888 77.8229 53.8893 77.7773 54.0898C77.7409 54.2904 77.7227 54.4362 77.7227 54.5273V54.6094C77.7227 55.0469 77.75 55.4753 77.8047 55.8945C77.8594 56.3138 77.8867 56.7422 77.8867 57.1797C77.8867 57.4349 77.8047 57.6719 77.6406 57.8906C77.4766 58.1003 77.2487 58.2051 76.957 58.2051C76.7474 58.2051 76.5742 58.1276 76.4375 57.9727C76.3008 57.8086 76.1868 57.599 76.0957 57.3438C76.0046 57.0885 75.9316 56.8105 75.877 56.5098C75.8314 56.1999 75.7995 55.8991 75.7812 55.6074C75.763 55.3066 75.7493 55.0378 75.7402 54.8008C75.7402 54.5547 75.7402 54.3724 75.7402 54.2539C75.7402 54.1172 75.7357 53.9167 75.7266 53.6523C75.7266 53.388 75.7311 53.1009 75.7402 52.791C75.7585 52.4811 75.7858 52.1667 75.8223 51.8477C75.8587 51.5195 75.918 51.2233 76 50.959C76.082 50.6947 76.1868 50.4805 76.3145 50.3164C76.4512 50.1432 76.6243 50.0566 76.834 50.0566C77.071 50.0566 77.2624 50.1204 77.4082 50.248C77.5632 50.3757 77.6406 50.5671 77.6406 50.8223C77.6406 50.877 77.6361 50.9316 77.627 50.9863C77.627 51.041 77.6224 51.0911 77.6133 51.1367C77.7135 50.9909 77.8366 50.8451 77.9824 50.6992C78.1283 50.5443 78.2832 50.4076 78.4473 50.2891C78.6204 50.1615 78.8027 50.0612 78.9941 49.9883C79.1855 49.9062 79.377 49.8652 79.5684 49.8652C79.7507 49.8652 79.9147 49.9154 80.0605 50.0156C80.2064 50.1159 80.334 50.2435 80.4434 50.3984C80.5527 50.5443 80.6439 50.7038 80.7168 50.877C80.7897 51.0501 80.8398 51.2142 80.8672 51.3691C80.9583 51.2051 81.0677 51.041 81.1953 50.877C81.332 50.7038 81.4779 50.5534 81.6328 50.4258C81.7878 50.2982 81.9564 50.1934 82.1387 50.1113C82.3301 50.0293 82.526 49.9883 82.7266 49.9883C82.918 49.9883 83.082 50.0566 83.2188 50.1934C83.3555 50.3301 83.474 50.5078 83.5742 50.7266C83.6745 50.9362 83.752 51.1777 83.8066 51.4512C83.8613 51.7155 83.9069 51.9798 83.9434 52.2441C83.9798 52.4993 84.0026 52.7409 84.0117 52.9688C84.0208 53.1875 84.0254 53.3607 84.0254 53.4883ZM94.0332 56.0723C94.0332 56.2363 94.0241 56.4505 94.0059 56.7148C93.9967 56.9792 93.9603 57.2389 93.8965 57.4941C93.8327 57.7402 93.7324 57.9544 93.5957 58.1367C93.459 58.319 93.2676 58.4102 93.0215 58.4102C92.6842 58.4102 92.4245 58.3008 92.2422 58.082C92.0599 57.8633 91.9733 57.5898 91.9824 57.2617C91.6908 57.5169 91.3581 57.7174 90.9844 57.8633C90.6198 58.0091 90.2461 58.082 89.8633 58.082C89.599 58.082 89.3483 58.0182 89.1113 57.8906C88.8743 57.763 88.6647 57.599 88.4824 57.3984C88.3001 57.1979 88.1543 56.9746 88.0449 56.7285C87.9355 56.4733 87.8809 56.2227 87.8809 55.9766C87.8809 55.5391 88.013 55.1562 88.2773 54.8281C88.5508 54.5 88.8835 54.222 89.2754 53.9941C89.6673 53.7572 90.082 53.5703 90.5195 53.4336C90.9661 53.2969 91.3626 53.2057 91.709 53.1602C91.709 53.1146 91.709 53.0736 91.709 53.0371C91.7181 53.0007 91.7227 52.9596 91.7227 52.9141C91.7227 52.6315 91.6452 52.4036 91.4902 52.2305C91.3353 52.0573 91.1165 51.9707 90.834 51.9707C90.6061 51.9707 90.4102 52.0117 90.2461 52.0938C90.082 52.1667 89.9271 52.2533 89.7812 52.3535C89.6354 52.4447 89.4896 52.5312 89.3438 52.6133C89.1979 52.6862 89.0339 52.7227 88.8516 52.7227C88.651 52.7227 88.4779 52.6589 88.332 52.5312C88.1953 52.4036 88.127 52.2396 88.127 52.0391C88.127 51.7383 88.2135 51.4648 88.3867 51.2188C88.569 50.9727 88.7923 50.7676 89.0566 50.6035C89.3301 50.4303 89.6217 50.2982 89.9316 50.207C90.2507 50.1068 90.5423 50.0566 90.8066 50.0566C91.0527 50.0566 91.2988 50.0885 91.5449 50.1523C91.791 50.207 92.0234 50.2982 92.2422 50.4258C92.4609 50.5443 92.6569 50.6947 92.8301 50.877C93.0124 51.0501 93.1582 51.2552 93.2676 51.4922C93.4316 51.8294 93.5638 52.1895 93.6641 52.5723C93.7643 52.946 93.8418 53.3333 93.8965 53.7344C93.9512 54.1263 93.9876 54.5228 94.0059 54.9238C94.0241 55.3158 94.0332 55.6986 94.0332 56.0723ZM91.8457 55.6348L91.8047 54.7051C91.7865 54.7051 91.7682 54.7051 91.75 54.7051C91.7318 54.696 91.7135 54.6914 91.6953 54.6914C91.5768 54.6914 91.4264 54.7233 91.2441 54.7871C91.071 54.8418 90.9023 54.9238 90.7383 55.0332C90.5742 55.1335 90.4329 55.2474 90.3145 55.375C90.2051 55.5026 90.1504 55.6348 90.1504 55.7715C90.1504 55.8991 90.196 55.9857 90.2871 56.0312C90.3783 56.0768 90.4831 56.0996 90.6016 56.0996C90.8021 56.0996 91.0163 56.0495 91.2441 55.9492C91.472 55.8398 91.6725 55.735 91.8457 55.6348ZM98.0391 58.4922C97.3919 58.4922 96.8861 58.4056 96.5215 58.2324C96.166 58.0684 95.8971 57.8314 95.7148 57.5215C95.5417 57.2116 95.4368 56.8379 95.4004 56.4004C95.3639 55.9629 95.3457 55.4753 95.3457 54.9375C95.3457 54.5091 95.3594 54.0807 95.3867 53.6523C95.4141 53.2148 95.4551 52.75 95.5098 52.2578C95.3822 52.2578 95.2819 52.2624 95.209 52.2715C95.1361 52.2715 95.0768 52.2715 95.0312 52.2715C94.7396 52.2715 94.4889 52.2077 94.2793 52.0801C94.0605 51.9525 93.9512 51.7565 93.9512 51.4922C93.9512 51.3281 94.015 51.1823 94.1426 51.0547C94.2611 50.9271 94.416 50.8177 94.6074 50.7266C94.7988 50.6354 95.0039 50.5625 95.2227 50.5078C95.4505 50.4531 95.6647 50.4167 95.8652 50.3984C95.8652 50.1432 95.8835 49.8607 95.9199 49.5508C95.9564 49.2409 96.0202 48.9538 96.1113 48.6895C96.2116 48.416 96.3438 48.1882 96.5078 48.0059C96.6719 47.8236 96.8815 47.7324 97.1367 47.7324C97.2826 47.7324 97.4102 47.778 97.5195 47.8691C97.638 47.9512 97.7337 48.0605 97.8066 48.1973C97.8796 48.3249 97.9342 48.4707 97.9707 48.6348C98.0072 48.7988 98.0254 48.9583 98.0254 49.1133C98.0254 49.2956 98.0117 49.4824 97.9844 49.6738C97.957 49.8652 97.9069 50.1022 97.834 50.3848C97.9889 50.3665 98.0938 50.3574 98.1484 50.3574C98.2031 50.3483 98.2533 50.3438 98.2988 50.3438C98.4538 50.3438 98.6133 50.3574 98.7773 50.3848C98.9505 50.4121 99.1055 50.4577 99.2422 50.5215C99.388 50.5853 99.5065 50.6719 99.5977 50.7812C99.6888 50.8815 99.7344 51.0046 99.7344 51.1504C99.7344 51.3145 99.666 51.4603 99.5293 51.5879C99.4017 51.7155 99.2376 51.8249 99.0371 51.916C98.8366 52.0072 98.6224 52.0801 98.3945 52.1348C98.1667 52.1803 97.9525 52.2122 97.752 52.2305C97.6973 52.6042 97.6562 52.9505 97.6289 53.2695C97.6107 53.5794 97.5879 53.8939 97.5605 54.2129C97.5423 54.3678 97.5241 54.5273 97.5059 54.6914C97.4967 54.8464 97.4922 55.0059 97.4922 55.1699C97.4922 55.2884 97.4967 55.4297 97.5059 55.5938C97.515 55.7487 97.5469 55.8991 97.6016 56.0449C97.6562 56.1908 97.7428 56.3184 97.8613 56.4277C97.9798 56.528 98.1439 56.5781 98.3535 56.5781C98.4811 56.5781 98.6133 56.569 98.75 56.5508C98.8867 56.5234 99.0234 56.5098 99.1602 56.5098C99.3971 56.5098 99.5658 56.5918 99.666 56.7559C99.7754 56.9199 99.8301 57.1296 99.8301 57.3848C99.8301 57.5762 99.7708 57.7448 99.6523 57.8906C99.543 58.0273 99.4017 58.1367 99.2285 58.2188C99.0553 58.3099 98.8594 58.3783 98.6406 58.4238C98.431 58.4694 98.2305 58.4922 98.0391 58.4922ZM105.832 55.5664C105.832 55.8763 105.732 56.1816 105.531 56.4824C105.34 56.7741 105.094 57.0384 104.793 57.2754C104.501 57.5033 104.187 57.6901 103.85 57.8359C103.512 57.9727 103.202 58.041 102.92 58.041C102.437 58.041 102.004 57.9225 101.621 57.6855C101.247 57.4395 100.933 57.1296 100.678 56.7559C100.423 56.3822 100.227 55.972 100.09 55.5254C99.9622 55.0697 99.8984 54.6276 99.8984 54.1992C99.8984 53.7435 99.9622 53.2559 100.09 52.7363C100.217 52.2168 100.409 51.7383 100.664 51.3008C100.928 50.8633 101.257 50.4987 101.648 50.207C102.049 49.9154 102.523 49.7695 103.07 49.7695C103.38 49.7695 103.676 49.8242 103.959 49.9336C104.242 50.0339 104.488 50.1797 104.697 50.3711C104.907 50.5625 105.076 50.7904 105.203 51.0547C105.331 51.319 105.395 51.6152 105.395 51.9434C105.395 52.3717 105.303 52.7728 105.121 53.1465C104.939 53.5202 104.697 53.8438 104.396 54.1172C104.096 54.3906 103.749 54.6139 103.357 54.7871C102.965 54.9512 102.564 55.0423 102.154 55.0605C102.191 55.3249 102.296 55.5163 102.469 55.6348C102.651 55.7533 102.865 55.8125 103.111 55.8125C103.294 55.8125 103.471 55.7669 103.645 55.6758C103.818 55.5846 103.986 55.4844 104.15 55.375C104.314 55.2565 104.474 55.1517 104.629 55.0605C104.793 54.9694 104.957 54.9238 105.121 54.9238C105.303 54.9238 105.467 54.9831 105.613 55.1016C105.759 55.2201 105.832 55.375 105.832 55.5664ZM103.617 52.2168C103.617 52.0983 103.585 51.9753 103.521 51.8477C103.458 51.7201 103.357 51.6562 103.221 51.6562C103.02 51.6562 102.852 51.7109 102.715 51.8203C102.578 51.9206 102.464 52.0527 102.373 52.2168C102.282 52.3717 102.209 52.5404 102.154 52.7227C102.109 52.9049 102.081 53.0736 102.072 53.2285C102.2 53.2012 102.35 53.1647 102.523 53.1191C102.706 53.0736 102.874 53.0143 103.029 52.9414C103.193 52.8594 103.33 52.7591 103.439 52.6406C103.558 52.5221 103.617 52.3809 103.617 52.2168ZM104.383 47.3633C104.383 47.4635 104.355 47.5638 104.301 47.6641C104.246 47.7552 104.178 47.8418 104.096 47.9238C104.023 48.0059 103.941 48.0833 103.85 48.1562C103.758 48.2201 103.676 48.2793 103.604 48.334C103.54 48.3796 103.467 48.4342 103.385 48.498C103.312 48.5527 103.23 48.6074 103.139 48.6621C103.057 48.7077 102.97 48.7487 102.879 48.7852C102.797 48.8216 102.715 48.8398 102.633 48.8398C102.56 48.8398 102.496 48.8216 102.441 48.7852C102.387 48.7396 102.359 48.6758 102.359 48.5938C102.359 48.457 102.41 48.293 102.51 48.1016C102.619 47.901 102.751 47.7096 102.906 47.5273C103.061 47.3359 103.225 47.1764 103.398 47.0488C103.572 46.9121 103.731 46.8438 103.877 46.8438C104.005 46.8438 104.118 46.8984 104.219 47.0078C104.328 47.1081 104.383 47.2266 104.383 47.3633ZM117.973 53.4883C117.973 53.6615 117.973 53.8984 117.973 54.1992C117.973 54.4909 117.964 54.8099 117.945 55.1562C117.936 55.5026 117.909 55.8535 117.863 56.209C117.818 56.5553 117.745 56.8698 117.645 57.1523C117.553 57.4349 117.435 57.6673 117.289 57.8496C117.143 58.0319 116.956 58.123 116.729 58.123C116.528 58.123 116.373 58.041 116.264 57.877C116.163 57.7038 116.09 57.5033 116.045 57.2754C115.999 57.0475 115.972 56.8151 115.963 56.5781C115.963 56.3411 115.963 56.1543 115.963 56.0176C115.963 55.6074 115.977 55.2064 116.004 54.8145C116.031 54.4225 116.045 54.0215 116.045 53.6113C116.045 53.5658 116.045 53.4837 116.045 53.3652C116.045 53.2467 116.036 53.1283 116.018 53.0098C115.999 52.8913 115.967 52.7865 115.922 52.6953C115.885 52.6042 115.826 52.5586 115.744 52.5586C115.58 52.5586 115.448 52.6452 115.348 52.8184C115.247 52.9824 115.165 53.1784 115.102 53.4062C115.038 53.6341 114.992 53.862 114.965 54.0898C114.938 54.3086 114.919 54.4727 114.91 54.582C114.892 54.7005 114.874 54.8783 114.855 55.1152C114.846 55.3522 114.828 55.612 114.801 55.8945C114.783 56.1771 114.746 56.4688 114.691 56.7695C114.646 57.0612 114.582 57.3301 114.5 57.5762C114.427 57.8132 114.331 58.0091 114.213 58.1641C114.094 58.319 113.949 58.3965 113.775 58.3965C113.557 58.3965 113.388 58.3008 113.27 58.1094C113.151 57.918 113.064 57.6947 113.01 57.4395C112.955 57.1842 112.919 56.9245 112.9 56.6602C112.891 56.3958 112.887 56.1908 112.887 56.0449C112.887 55.89 112.887 55.7396 112.887 55.5938C112.896 55.4479 112.9 55.2975 112.9 55.1426C112.9 55.0788 112.9 54.974 112.9 54.8281C112.9 54.6823 112.896 54.5228 112.887 54.3496C112.887 54.1673 112.878 53.9805 112.859 53.7891C112.85 53.5977 112.832 53.4245 112.805 53.2695C112.777 53.1055 112.736 52.9733 112.682 52.873C112.627 52.7728 112.563 52.7227 112.49 52.7227C112.372 52.7227 112.262 52.8001 112.162 52.9551C112.062 53.1009 111.975 53.2786 111.902 53.4883C111.829 53.6888 111.77 53.8893 111.725 54.0898C111.688 54.2904 111.67 54.4362 111.67 54.5273V54.6094C111.67 55.0469 111.697 55.4753 111.752 55.8945C111.807 56.3138 111.834 56.7422 111.834 57.1797C111.834 57.4349 111.752 57.6719 111.588 57.8906C111.424 58.1003 111.196 58.2051 110.904 58.2051C110.695 58.2051 110.521 58.1276 110.385 57.9727C110.248 57.8086 110.134 57.599 110.043 57.3438C109.952 57.0885 109.879 56.8105 109.824 56.5098C109.779 56.1999 109.747 55.8991 109.729 55.6074C109.71 55.3066 109.697 55.0378 109.688 54.8008C109.688 54.5547 109.688 54.3724 109.688 54.2539C109.688 54.1172 109.683 53.9167 109.674 53.6523C109.674 53.388 109.678 53.1009 109.688 52.791C109.706 52.4811 109.733 52.1667 109.77 51.8477C109.806 51.5195 109.865 51.2233 109.947 50.959C110.029 50.6947 110.134 50.4805 110.262 50.3164C110.398 50.1432 110.572 50.0566 110.781 50.0566C111.018 50.0566 111.21 50.1204 111.355 50.248C111.51 50.3757 111.588 50.5671 111.588 50.8223C111.588 50.877 111.583 50.9316 111.574 50.9863C111.574 51.041 111.57 51.0911 111.561 51.1367C111.661 50.9909 111.784 50.8451 111.93 50.6992C112.076 50.5443 112.23 50.4076 112.395 50.2891C112.568 50.1615 112.75 50.0612 112.941 49.9883C113.133 49.9062 113.324 49.8652 113.516 49.8652C113.698 49.8652 113.862 49.9154 114.008 50.0156C114.154 50.1159 114.281 50.2435 114.391 50.3984C114.5 50.5443 114.591 50.7038 114.664 50.877C114.737 51.0501 114.787 51.2142 114.814 51.3691C114.906 51.2051 115.015 51.041 115.143 50.877C115.279 50.7038 115.425 50.5534 115.58 50.4258C115.735 50.2982 115.904 50.1934 116.086 50.1113C116.277 50.0293 116.473 49.9883 116.674 49.9883C116.865 49.9883 117.029 50.0566 117.166 50.1934C117.303 50.3301 117.421 50.5078 117.521 50.7266C117.622 50.9362 117.699 51.1777 117.754 51.4512C117.809 51.7155 117.854 51.9798 117.891 52.2441C117.927 52.4993 117.95 52.7409 117.959 52.9688C117.968 53.1875 117.973 53.3607 117.973 53.4883ZM121.131 48.457C121.131 48.5846 121.094 48.6986 121.021 48.7988C120.958 48.8991 120.871 48.9902 120.762 49.0723C120.652 49.1452 120.534 49.2044 120.406 49.25C120.279 49.2865 120.16 49.3047 120.051 49.3047C119.868 49.3047 119.709 49.2591 119.572 49.168C119.436 49.0768 119.367 48.9355 119.367 48.7441C119.367 48.6074 119.399 48.4889 119.463 48.3887C119.536 48.2793 119.622 48.1927 119.723 48.1289C119.823 48.056 119.937 48.0013 120.064 47.9648C120.192 47.9284 120.315 47.9102 120.434 47.9102C120.607 47.9102 120.766 47.9512 120.912 48.0332C121.058 48.1152 121.131 48.2565 121.131 48.457ZM121.24 53.1055C121.24 53.2331 121.24 53.3698 121.24 53.5156C121.24 53.6523 121.236 53.7845 121.227 53.9121C121.217 54.0671 121.213 54.2767 121.213 54.541C121.213 54.7962 121.204 55.0742 121.186 55.375C121.167 55.6758 121.135 55.9811 121.09 56.291C121.053 56.6009 120.99 56.8835 120.898 57.1387C120.807 57.3939 120.684 57.6035 120.529 57.7676C120.383 57.9225 120.197 58.0046 119.969 58.0137C119.796 58.0228 119.65 57.9544 119.531 57.8086C119.413 57.6628 119.312 57.4759 119.23 57.248C119.158 57.0111 119.103 56.7513 119.066 56.4688C119.03 56.1771 119.003 55.8991 118.984 55.6348C118.966 55.3613 118.957 55.1107 118.957 54.8828C118.957 54.6549 118.957 54.4863 118.957 54.377C118.957 54.2311 118.957 54.026 118.957 53.7617C118.957 53.4883 118.966 53.1966 118.984 52.8867C119.003 52.5768 119.035 52.2624 119.08 51.9434C119.135 51.6243 119.208 51.3327 119.299 51.0684C119.399 50.804 119.527 50.5898 119.682 50.4258C119.837 50.2617 120.033 50.1797 120.27 50.1797C120.516 50.1797 120.702 50.3027 120.83 50.5488C120.958 50.7949 121.053 51.082 121.117 51.4102C121.181 51.7383 121.217 52.0664 121.227 52.3945C121.236 52.7135 121.24 52.9505 121.24 53.1055ZM130.51 53.4883C130.51 53.6615 130.51 53.8984 130.51 54.1992C130.51 54.4909 130.501 54.8099 130.482 55.1562C130.473 55.5026 130.446 55.8535 130.4 56.209C130.355 56.5553 130.282 56.8698 130.182 57.1523C130.09 57.4349 129.972 57.6673 129.826 57.8496C129.68 58.0319 129.493 58.123 129.266 58.123C129.065 58.123 128.91 58.041 128.801 57.877C128.701 57.7038 128.628 57.5033 128.582 57.2754C128.536 57.0475 128.509 56.8151 128.5 56.5781C128.5 56.3411 128.5 56.1543 128.5 56.0176C128.5 55.6074 128.514 55.2064 128.541 54.8145C128.568 54.4225 128.582 54.0215 128.582 53.6113C128.582 53.5658 128.582 53.4837 128.582 53.3652C128.582 53.2467 128.573 53.1283 128.555 53.0098C128.536 52.8913 128.505 52.7865 128.459 52.6953C128.423 52.6042 128.363 52.5586 128.281 52.5586C128.117 52.5586 127.985 52.6452 127.885 52.8184C127.785 52.9824 127.702 53.1784 127.639 53.4062C127.575 53.6341 127.529 53.862 127.502 54.0898C127.475 54.3086 127.456 54.4727 127.447 54.582C127.429 54.7005 127.411 54.8783 127.393 55.1152C127.383 55.3522 127.365 55.612 127.338 55.8945C127.32 56.1771 127.283 56.4688 127.229 56.7695C127.183 57.0612 127.119 57.3301 127.037 57.5762C126.964 57.8132 126.868 58.0091 126.75 58.1641C126.632 58.319 126.486 58.3965 126.312 58.3965C126.094 58.3965 125.925 58.3008 125.807 58.1094C125.688 57.918 125.602 57.6947 125.547 57.4395C125.492 57.1842 125.456 56.9245 125.438 56.6602C125.428 56.3958 125.424 56.1908 125.424 56.0449C125.424 55.89 125.424 55.7396 125.424 55.5938C125.433 55.4479 125.438 55.2975 125.438 55.1426C125.438 55.0788 125.438 54.974 125.438 54.8281C125.438 54.6823 125.433 54.5228 125.424 54.3496C125.424 54.1673 125.415 53.9805 125.396 53.7891C125.387 53.5977 125.369 53.4245 125.342 53.2695C125.314 53.1055 125.273 52.9733 125.219 52.873C125.164 52.7728 125.1 52.7227 125.027 52.7227C124.909 52.7227 124.799 52.8001 124.699 52.9551C124.599 53.1009 124.512 53.2786 124.439 53.4883C124.367 53.6888 124.307 53.8893 124.262 54.0898C124.225 54.2904 124.207 54.4362 124.207 54.5273V54.6094C124.207 55.0469 124.234 55.4753 124.289 55.8945C124.344 56.3138 124.371 56.7422 124.371 57.1797C124.371 57.4349 124.289 57.6719 124.125 57.8906C123.961 58.1003 123.733 58.2051 123.441 58.2051C123.232 58.2051 123.059 58.1276 122.922 57.9727C122.785 57.8086 122.671 57.599 122.58 57.3438C122.489 57.0885 122.416 56.8105 122.361 56.5098C122.316 56.1999 122.284 55.8991 122.266 55.6074C122.247 55.3066 122.234 55.0378 122.225 54.8008C122.225 54.5547 122.225 54.3724 122.225 54.2539C122.225 54.1172 122.22 53.9167 122.211 53.6523C122.211 53.388 122.215 53.1009 122.225 52.791C122.243 52.4811 122.27 52.1667 122.307 51.8477C122.343 51.5195 122.402 51.2233 122.484 50.959C122.566 50.6947 122.671 50.4805 122.799 50.3164C122.936 50.1432 123.109 50.0566 123.318 50.0566C123.555 50.0566 123.747 50.1204 123.893 50.248C124.048 50.3757 124.125 50.5671 124.125 50.8223C124.125 50.877 124.12 50.9316 124.111 50.9863C124.111 51.041 124.107 51.0911 124.098 51.1367C124.198 50.9909 124.321 50.8451 124.467 50.6992C124.613 50.5443 124.768 50.4076 124.932 50.2891C125.105 50.1615 125.287 50.0612 125.479 49.9883C125.67 49.9062 125.861 49.8652 126.053 49.8652C126.235 49.8652 126.399 49.9154 126.545 50.0156C126.691 50.1159 126.818 50.2435 126.928 50.3984C127.037 50.5443 127.128 50.7038 127.201 50.877C127.274 51.0501 127.324 51.2142 127.352 51.3691C127.443 51.2051 127.552 51.041 127.68 50.877C127.816 50.7038 127.962 50.5534 128.117 50.4258C128.272 50.2982 128.441 50.1934 128.623 50.1113C128.814 50.0293 129.01 49.9883 129.211 49.9883C129.402 49.9883 129.566 50.0566 129.703 50.1934C129.84 50.3301 129.958 50.5078 130.059 50.7266C130.159 50.9362 130.236 51.1777 130.291 51.4512C130.346 51.7155 130.391 51.9798 130.428 52.2441C130.464 52.4993 130.487 52.7409 130.496 52.9688C130.505 53.1875 130.51 53.3607 130.51 53.4883ZM137.551 50.6445C137.551 50.9362 137.473 51.2096 137.318 51.4648C137.173 51.7109 136.986 51.9434 136.758 52.1621C136.539 52.3717 136.293 52.5586 136.02 52.7227C135.755 52.8776 135.509 53.0007 135.281 53.0918C135.336 53.5293 135.363 53.9805 135.363 54.4453C135.363 54.6003 135.359 54.7734 135.35 54.9648C135.35 55.1562 135.322 55.3385 135.268 55.5117C135.222 55.6758 135.14 55.8171 135.021 55.9355C134.912 56.054 134.753 56.1133 134.543 56.1133C134.178 56.1133 133.932 55.931 133.805 55.5664C133.759 55.4297 133.723 55.2474 133.695 55.0195C133.668 54.7826 133.645 54.541 133.627 54.2949C133.618 54.0397 133.613 53.7936 133.613 53.5566C133.613 53.3197 133.613 53.1237 133.613 52.9688C133.613 52.8411 133.618 52.6908 133.627 52.5176C133.645 52.3444 133.691 52.2031 133.764 52.0938C133.846 51.9753 133.982 51.8613 134.174 51.752C134.365 51.6335 134.561 51.5104 134.762 51.3828C134.971 51.2552 135.154 51.1139 135.309 50.959C135.464 50.804 135.541 50.6217 135.541 50.4121C135.541 50.2572 135.505 50.1159 135.432 49.9883C135.359 49.8607 135.263 49.7559 135.145 49.6738C135.035 49.5827 134.908 49.5143 134.762 49.4688C134.625 49.4141 134.484 49.3867 134.338 49.3867C133.992 49.3867 133.718 49.446 133.518 49.5645C133.317 49.6738 133.144 49.7969 132.998 49.9336C132.861 50.0612 132.729 50.1842 132.602 50.3027C132.483 50.4121 132.328 50.4668 132.137 50.4668C131.918 50.4668 131.717 50.3893 131.535 50.2344C131.362 50.0794 131.275 49.8926 131.275 49.6738C131.275 49.3184 131.38 49.0176 131.59 48.7715C131.799 48.5163 132.059 48.3158 132.369 48.1699C132.679 48.015 133.007 47.9056 133.354 47.8418C133.7 47.7689 134.01 47.7324 134.283 47.7324C134.648 47.7324 135.021 47.8145 135.404 47.9785C135.796 48.1335 136.147 48.3431 136.457 48.6074C136.776 48.8717 137.036 49.1816 137.236 49.5371C137.446 49.8926 137.551 50.2617 137.551 50.6445ZM135.527 57.2891C135.527 57.444 135.486 57.5762 135.404 57.6855C135.331 57.7949 135.236 57.8861 135.117 57.959C135.008 58.0319 134.88 58.0866 134.734 58.123C134.598 58.1595 134.465 58.1777 134.338 58.1777C134.128 58.1777 133.932 58.1276 133.75 58.0273C133.577 57.9271 133.49 57.763 133.49 57.5352C133.49 57.3893 133.527 57.2617 133.6 57.1523C133.682 57.0339 133.782 56.9336 133.9 56.8516C134.019 56.7695 134.146 56.7103 134.283 56.6738C134.429 56.6283 134.566 56.6055 134.693 56.6055C134.903 56.6055 135.094 56.6602 135.268 56.7695C135.441 56.8789 135.527 57.0521 135.527 57.2891Z" fill="white"/>
<defs>
<filter id="filter0_i_880_332" x="0" y="0" width="187" height="119" filterUnits="userSpaceOnUse" color-interpolation-filters="sRGB">
<feFlood flood-opacity="0" result="BackgroundImageFix"/>
<feBlend mode="normal" in="SourceGraphic" in2="BackgroundImageFix" result="shape"/>
<feColorMatrix in="SourceAlpha" type="matrix" values="0 0 0 0 0 0 0 0 0 0 0 0 0 0 0 0 0 0 127 0" result="hardAlpha"/>
<feOffset dy="4"/>
<feGaussianBlur stdDeviation="2"/>
<feComposite in2="hardAlpha" operator="arithmetic" k2="-1" k3="1"/>
<feColorMatrix type="matrix" values="0 0 0 0 0 0 0 0 0 0 0 0 0 0 0 0 0 0 0.25 0"/>
<feBlend mode="normal" in2="shape" result="effect1_innerShadow_880_332"/>
</filter>
</defs>
</svg>
