<svg width="187" height="115" viewBox="0 0 187 115" fill="none" xmlns="http://www.w3.org/2000/svg">
<g filter="url(#filter0_i_880_334)">
<path fill-rule="evenodd" clip-rule="evenodd" d="M26.7328 73.1069C8.81909 65.6024 1 54.527 1 42.5399C1 27.7907 16.7707 13.2204 42.8597 6.01618C55.5137 2.52191 70.3812 1 87.4632 1C139.764 1 187.995 16.0484 185.936 42.5399C185.936 55.6846 177.01 67.7719 158.83 74.9879C148.917 78.9225 136.377 81.2463 120.687 81.9608C114.515 95.7126 105.482 102.794 90.6626 114C101.53 100.939 108.189 92.5175 110.598 82.1974C110.322 82.1983 110.044 82.1987 109.766 82.1987C72.6962 84.5509 44.6602 80.6171 26.7328 73.1069Z" fill="#3DC3FF"/>
</g>
<path d="M26.7328 73.1069L26.3464 74.0292H26.3464L26.7328 73.1069ZM42.8597 6.01618L42.5935 5.05226L42.8597 6.01618ZM185.936 42.5399L184.939 42.4624C184.937 42.4882 184.936 42.514 184.936 42.5399H185.936ZM158.83 74.9879L159.199 75.9174L158.83 74.9879ZM120.687 81.9608L120.641 80.9618C120.264 80.979 119.929 81.207 119.774 81.5513L120.687 81.9608ZM90.6626 114L89.8939 113.36C89.569 113.751 89.5885 114.323 89.9393 114.691C90.29 115.058 90.8606 115.104 91.2658 114.798L90.6626 114ZM110.598 82.1974L111.572 82.4248C111.642 82.127 111.571 81.8139 111.381 81.5747C111.19 81.3354 110.901 81.1965 110.595 81.1974L110.598 82.1974ZM109.766 82.1987V81.1987C109.745 81.1987 109.724 81.1994 109.703 81.2007L109.766 82.1987ZM0 42.5399C0 55.0658 8.20471 66.4292 26.3464 74.0292L27.1192 72.1846C9.43348 64.7756 2 53.9882 2 42.5399H0ZM42.5935 5.05226C29.4413 8.68411 18.8282 14.1884 11.4831 20.7004C4.14183 27.209 0 34.7907 0 42.5399H2C2 35.5399 5.7435 28.4619 12.8099 22.197C19.8723 15.9355 30.1891 10.5525 43.1259 6.98011L42.5935 5.05226ZM87.4632 0C70.3283 0 55.3639 1.52585 42.5935 5.05226L43.1259 6.98011C55.6636 3.51796 70.434 2 87.4632 2V0ZM186.933 42.6174C187.475 35.645 184.691 29.4664 179.486 24.1721C174.3 18.8968 166.686 14.4675 157.444 10.9027C138.955 3.77087 113.691 0 87.4632 0V2C113.536 2 138.538 5.75335 156.725 12.7686C165.821 16.2773 173.148 20.5773 178.06 25.5743C182.954 30.5523 185.427 36.189 184.939 42.4624L186.933 42.6174ZM159.199 75.9174C177.626 68.603 186.936 56.221 186.936 42.5399H184.936C184.936 55.1481 176.393 66.9408 158.461 74.0585L159.199 75.9174ZM120.732 82.9597C136.489 82.2423 149.149 79.9067 159.199 75.9174L158.461 74.0585C148.686 77.9383 136.265 80.2504 120.641 80.9618L120.732 82.9597ZM119.774 81.5513C113.721 95.0402 104.894 101.984 90.0595 113.202L91.2658 114.798C106.07 103.603 115.309 96.385 121.599 82.3702L119.774 81.5513ZM91.4313 114.64C102.264 101.621 109.099 93.0171 111.572 82.4248L109.624 81.9701C107.279 92.0179 100.797 100.257 89.8939 113.36L91.4313 114.64ZM109.766 83.1987C110.045 83.1987 110.324 83.1983 110.601 83.1974L110.595 81.1974C110.32 81.1983 110.043 81.1987 109.766 81.1987V83.1987ZM26.3464 74.0292C44.4722 81.6225 72.6813 85.5539 109.829 83.1967L109.703 81.2007C72.7111 83.5479 44.8482 79.6116 27.1192 72.1846L26.3464 74.0292Z" fill="#3DC3FF"/>
<path d="M29.4199 41.1133C29.4199 41.3411 29.3242 41.5553 29.1328 41.7559C28.9505 41.9564 28.709 42.1387 28.4082 42.3027C28.1165 42.4668 27.7884 42.6126 27.4238 42.7402C27.0592 42.8587 26.6992 42.959 26.3438 43.041C25.9883 43.1322 25.651 43.2005 25.332 43.2461C25.0221 43.2917 24.776 43.3145 24.5938 43.3145C24.4206 43.3145 24.2337 43.2962 24.0332 43.2598C23.8418 43.2324 23.6823 43.1641 23.5547 43.0547C23.4818 43 23.418 42.877 23.3633 42.6855C23.3086 42.4941 23.2539 42.2663 23.1992 42.002C23.1536 41.7376 23.1126 41.4551 23.0762 41.1543C23.0397 40.8444 23.0078 40.5436 22.9805 40.252C22.9622 39.9603 22.944 39.6914 22.9258 39.4453C22.9167 39.1992 22.9121 39.0078 22.9121 38.8711C22.9121 38.6432 22.9167 38.3698 22.9258 38.0508C22.944 37.7227 22.9668 37.3763 22.9941 37.0117C23.0215 36.638 23.0579 36.2598 23.1035 35.877C23.1491 35.4941 23.1992 35.1341 23.2539 34.7969C23.3177 34.4505 23.3906 34.1406 23.4727 33.8672C23.5638 33.5938 23.6595 33.3796 23.7598 33.2246C23.9329 32.9785 24.1517 32.8555 24.416 32.8555C24.5983 32.8555 24.7533 32.9193 24.8809 33.0469C25.0085 33.1654 25.1087 33.3249 25.1816 33.5254C25.2637 33.7168 25.3229 33.9355 25.3594 34.1816C25.4049 34.4186 25.4368 34.6556 25.4551 34.8926C25.4733 35.1296 25.4824 35.3483 25.4824 35.5488C25.4824 35.7493 25.4824 35.9089 25.4824 36.0273C25.4824 36.7383 25.4642 37.4447 25.4277 38.1465C25.4004 38.8392 25.3867 39.541 25.3867 40.252V40.7852C25.7969 40.6576 26.2435 40.5391 26.7266 40.4297C27.2096 40.3112 27.6699 40.252 28.1074 40.252C28.2624 40.252 28.4173 40.2611 28.5723 40.2793C28.7363 40.2975 28.8776 40.3385 28.9961 40.4023C29.1237 40.457 29.224 40.5436 29.2969 40.6621C29.3789 40.7715 29.4199 40.9219 29.4199 41.1133ZM35.4902 40.5664C35.4902 40.8763 35.39 41.1816 35.1895 41.4824C34.998 41.7741 34.752 42.0384 34.4512 42.2754C34.1595 42.5033 33.8451 42.6901 33.5078 42.8359C33.1706 42.9727 32.8607 43.041 32.5781 43.041C32.0951 43.041 31.6621 42.9225 31.2793 42.6855C30.9056 42.4395 30.5911 42.1296 30.3359 41.7559C30.0807 41.3822 29.8848 40.972 29.748 40.5254C29.6204 40.0697 29.5566 39.6276 29.5566 39.1992C29.5566 38.7435 29.6204 38.2559 29.748 37.7363C29.8757 37.2168 30.0671 36.7383 30.3223 36.3008C30.5866 35.8633 30.9147 35.4987 31.3066 35.207C31.7077 34.9154 32.1816 34.7695 32.7285 34.7695C33.0384 34.7695 33.3346 34.8242 33.6172 34.9336C33.8997 35.0339 34.1458 35.1797 34.3555 35.3711C34.5651 35.5625 34.7337 35.7904 34.8613 36.0547C34.9889 36.319 35.0527 36.6152 35.0527 36.9434C35.0527 37.3717 34.9616 37.7728 34.7793 38.1465C34.597 38.5202 34.3555 38.8438 34.0547 39.1172C33.7539 39.3906 33.4076 39.6139 33.0156 39.7871C32.6237 39.9512 32.2227 40.0423 31.8125 40.0605C31.849 40.3249 31.9538 40.5163 32.127 40.6348C32.3092 40.7533 32.5234 40.8125 32.7695 40.8125C32.9518 40.8125 33.1296 40.7669 33.3027 40.6758C33.4759 40.5846 33.6445 40.4844 33.8086 40.375C33.9727 40.2565 34.1322 40.1517 34.2871 40.0605C34.4512 39.9694 34.6152 39.9238 34.7793 39.9238C34.9616 39.9238 35.1257 39.9831 35.2715 40.1016C35.4173 40.2201 35.4902 40.375 35.4902 40.5664ZM33.2754 37.2168C33.2754 37.0983 33.2435 36.9753 33.1797 36.8477C33.1159 36.7201 33.0156 36.6562 32.8789 36.6562C32.6784 36.6562 32.5098 36.7109 32.373 36.8203C32.2363 36.9206 32.1224 37.0527 32.0312 37.2168C31.9401 37.3717 31.8672 37.5404 31.8125 37.7227C31.7669 37.9049 31.7396 38.0736 31.7305 38.2285C31.8581 38.2012 32.0085 38.1647 32.1816 38.1191C32.3639 38.0736 32.5326 38.0143 32.6875 37.9414C32.8516 37.8594 32.9883 37.7591 33.0977 37.6406C33.2161 37.5221 33.2754 37.3809 33.2754 37.2168ZM42.2305 38.3379C42.2305 38.8027 42.2214 39.2676 42.2031 39.7324C42.194 40.1973 42.1712 40.6621 42.1348 41.127C42.1074 41.528 42.071 41.9564 42.0254 42.4121C41.9798 42.8678 41.9069 43.319 41.8066 43.7656C41.7064 44.2214 41.5742 44.6543 41.4102 45.0645C41.2461 45.4837 41.0273 45.8529 40.7539 46.1719C40.4896 46.4909 40.166 46.7461 39.7832 46.9375C39.4004 47.1289 38.9447 47.2246 38.416 47.2246C38.1699 47.2246 37.8919 47.1836 37.582 47.1016C37.2812 47.0286 36.9941 46.9193 36.7207 46.7734C36.4564 46.6276 36.2285 46.4453 36.0371 46.2266C35.8548 46.0169 35.7637 45.7708 35.7637 45.4883C35.7637 45.2786 35.8366 45.0827 35.9824 44.9004C36.1374 44.7272 36.3333 44.6406 36.5703 44.6406C36.7161 44.6406 36.8529 44.6634 36.9805 44.709C37.1172 44.7637 37.2493 44.8229 37.377 44.8867C37.5137 44.9505 37.6413 45.0052 37.7598 45.0508C37.8874 45.1055 38.015 45.1328 38.1426 45.1328C38.4798 45.1328 38.7624 45.0462 38.9902 44.873C39.2181 44.709 39.4004 44.4948 39.5371 44.2305C39.6738 43.9753 39.7741 43.6927 39.8379 43.3828C39.9108 43.082 39.9609 42.7949 39.9883 42.5215C39.806 42.7311 39.5918 42.877 39.3457 42.959C39.1087 43.0319 38.8581 43.0684 38.5938 43.0684C38.1107 43.0684 37.7005 42.9863 37.3633 42.8223C37.026 42.6491 36.7526 42.4167 36.543 42.125C36.3333 41.8242 36.1784 41.4779 36.0781 41.0859C35.9779 40.694 35.9277 40.2702 35.9277 39.8145C35.9277 39.5319 35.9551 39.2129 36.0098 38.8574C36.0736 38.502 36.1647 38.1419 36.2832 37.7773C36.4017 37.4128 36.5475 37.0573 36.7207 36.7109C36.903 36.3646 37.1126 36.0592 37.3496 35.7949C37.5866 35.5306 37.8509 35.3164 38.1426 35.1523C38.4434 34.9883 38.7715 34.9062 39.127 34.9062C39.4733 34.9062 39.7786 35.0065 40.043 35.207C40.3164 35.4076 40.4759 35.6901 40.5215 36.0547C40.6217 35.8633 40.7539 35.6764 40.918 35.4941C41.082 35.3027 41.2826 35.207 41.5195 35.207C41.6471 35.207 41.752 35.2708 41.834 35.3984C41.9251 35.526 41.9935 35.6947 42.0391 35.9043C42.0938 36.1048 42.1348 36.3281 42.1621 36.5742C42.1895 36.8112 42.2077 37.0482 42.2168 37.2852C42.2259 37.513 42.2305 37.7227 42.2305 37.9141C42.2305 38.1055 42.2305 38.2467 42.2305 38.3379ZM40.1523 39.2266C40.1523 39.0898 40.1296 38.9121 40.084 38.6934C40.0475 38.4746 39.9883 38.265 39.9062 38.0645C39.8333 37.8639 39.7376 37.6908 39.6191 37.5449C39.5007 37.3991 39.3594 37.3262 39.1953 37.3262C38.9857 37.3262 38.7988 37.3991 38.6348 37.5449C38.4798 37.6908 38.3477 37.8685 38.2383 38.0781C38.1289 38.2786 38.0423 38.4974 37.9785 38.7344C37.9238 38.9622 37.8965 39.1582 37.8965 39.3223C37.8965 39.4408 37.9056 39.6003 37.9238 39.8008C37.9421 40.0013 37.9785 40.1973 38.0332 40.3887C38.097 40.5801 38.179 40.7441 38.2793 40.8809C38.3796 41.0176 38.5117 41.0859 38.6758 41.0859C38.9219 41.0859 39.1361 41.0267 39.3184 40.9082C39.5007 40.7897 39.651 40.6393 39.7695 40.457C39.8971 40.2747 39.9928 40.0742 40.0566 39.8555C40.1204 39.6367 40.1523 39.4271 40.1523 39.2266ZM49.0117 41.0723C49.0117 41.2363 49.0026 41.4505 48.9844 41.7148C48.9753 41.9792 48.9388 42.2389 48.875 42.4941C48.8112 42.7402 48.7109 42.9544 48.5742 43.1367C48.4375 43.319 48.2461 43.4102 48 43.4102C47.6628 43.4102 47.403 43.3008 47.2207 43.082C47.0384 42.8633 46.9518 42.5898 46.9609 42.2617C46.6693 42.5169 46.3366 42.7174 45.9629 42.8633C45.5983 43.0091 45.2246 43.082 44.8418 43.082C44.5775 43.082 44.3268 43.0182 44.0898 42.8906C43.8529 42.763 43.6432 42.599 43.4609 42.3984C43.2786 42.1979 43.1328 41.9746 43.0234 41.7285C42.9141 41.4733 42.8594 41.2227 42.8594 40.9766C42.8594 40.5391 42.9915 40.1562 43.2559 39.8281C43.5293 39.5 43.862 39.222 44.2539 38.9941C44.6458 38.7572 45.0605 38.5703 45.498 38.4336C45.9447 38.2969 46.3411 38.2057 46.6875 38.1602C46.6875 38.1146 46.6875 38.0736 46.6875 38.0371C46.6966 38.0007 46.7012 37.9596 46.7012 37.9141C46.7012 37.6315 46.6237 37.4036 46.4688 37.2305C46.3138 37.0573 46.0951 36.9707 45.8125 36.9707C45.5846 36.9707 45.3887 37.0117 45.2246 37.0938C45.0605 37.1667 44.9056 37.2533 44.7598 37.3535C44.6139 37.4447 44.4681 37.5312 44.3223 37.6133C44.1764 37.6862 44.0124 37.7227 43.8301 37.7227C43.6296 37.7227 43.4564 37.6589 43.3105 37.5312C43.1738 37.4036 43.1055 37.2396 43.1055 37.0391C43.1055 36.7383 43.1921 36.4648 43.3652 36.2188C43.5475 35.9727 43.7708 35.7676 44.0352 35.6035C44.3086 35.4303 44.6003 35.2982 44.9102 35.207C45.2292 35.1068 45.5208 35.0566 45.7852 35.0566C46.0312 35.0566 46.2773 35.0885 46.5234 35.1523C46.7695 35.207 47.002 35.2982 47.2207 35.4258C47.4395 35.5443 47.6354 35.6947 47.8086 35.877C47.9909 36.0501 48.1367 36.2552 48.2461 36.4922C48.4102 36.8294 48.5423 37.1895 48.6426 37.5723C48.7428 37.946 48.8203 38.3333 48.875 38.7344C48.9297 39.1263 48.9661 39.5228 48.9844 39.9238C49.0026 40.3158 49.0117 40.6986 49.0117 41.0723ZM46.8242 40.6348L46.7832 39.7051C46.765 39.7051 46.7467 39.7051 46.7285 39.7051C46.7103 39.696 46.6921 39.6914 46.6738 39.6914C46.5553 39.6914 46.4049 39.7233 46.2227 39.7871C46.0495 39.8418 45.8809 39.9238 45.7168 40.0332C45.5527 40.1335 45.4115 40.2474 45.293 40.375C45.1836 40.5026 45.1289 40.6348 45.1289 40.7715C45.1289 40.8991 45.1745 40.9857 45.2656 41.0312C45.3568 41.0768 45.4616 41.0996 45.5801 41.0996C45.7806 41.0996 45.9948 41.0495 46.2227 40.9492C46.4505 40.8398 46.651 40.735 46.8242 40.6348ZM52.3887 34.7148C52.3887 35.207 52.3659 35.7038 52.3203 36.2051C52.2839 36.6973 52.2656 37.194 52.2656 37.6953C52.2656 38.3424 52.2839 38.9896 52.3203 39.6367C52.3659 40.2839 52.3887 40.9355 52.3887 41.5918C52.3887 41.7559 52.3796 41.9427 52.3613 42.1523C52.3431 42.3529 52.2975 42.5397 52.2246 42.7129C52.1608 42.8861 52.0605 43.0319 51.9238 43.1504C51.7871 43.2689 51.6048 43.3281 51.377 43.3281C51.1582 43.3281 50.9668 43.2188 50.8027 43C50.6478 42.7904 50.5156 42.5215 50.4062 42.1934C50.306 41.8561 50.2194 41.4824 50.1465 41.0723C50.0827 40.6621 50.0326 40.2656 49.9961 39.8828C49.9688 39.4909 49.946 39.1354 49.9277 38.8164C49.9186 38.4883 49.9141 38.2467 49.9141 38.0918C49.9141 37.9186 49.9186 37.668 49.9277 37.3398C49.946 37.0117 49.9779 36.6562 50.0234 36.2734C50.069 35.8906 50.1283 35.5033 50.2012 35.1113C50.2832 34.7103 50.388 34.3503 50.5156 34.0312C50.6432 33.7031 50.7936 33.4388 50.9668 33.2383C51.1491 33.0286 51.3633 32.9238 51.6094 32.9238C51.8099 32.9238 51.9603 32.9922 52.0605 33.1289C52.1699 33.2565 52.2474 33.416 52.293 33.6074C52.3385 33.7897 52.3659 33.9857 52.375 34.1953C52.3841 34.3958 52.3887 34.569 52.3887 34.7148ZM55.9844 37.2715C55.9844 37.4173 55.9753 37.6178 55.957 37.873C55.9388 38.1191 55.9115 38.388 55.875 38.6797C55.8385 38.9622 55.7839 39.2539 55.7109 39.5547C55.6471 39.8464 55.5697 40.1152 55.4785 40.3613C55.3874 40.5983 55.278 40.7943 55.1504 40.9492C55.0228 41.0951 54.877 41.168 54.7129 41.168C54.5124 41.168 54.3392 41.0723 54.1934 40.8809C54.0566 40.6803 53.9382 40.4297 53.8379 40.1289C53.7467 39.819 53.6738 39.4772 53.6191 39.1035C53.5645 38.7298 53.5234 38.3652 53.4961 38.0098C53.4688 37.6452 53.4505 37.3125 53.4414 37.0117C53.4414 36.7018 53.4414 36.4648 53.4414 36.3008C53.4414 36.1367 53.4414 35.9316 53.4414 35.6855C53.4414 35.4303 53.4505 35.1615 53.4688 34.8789C53.4961 34.5964 53.5326 34.3184 53.5781 34.0449C53.6328 33.7624 53.7103 33.5072 53.8105 33.2793C53.9108 33.0514 54.043 32.8691 54.207 32.7324C54.3711 32.5866 54.5762 32.5137 54.8223 32.5137C55.041 32.5137 55.2188 32.6094 55.3555 32.8008C55.5013 32.9831 55.6152 33.2246 55.6973 33.5254C55.7884 33.8171 55.8522 34.1452 55.8887 34.5098C55.9342 34.8743 55.9616 35.2344 55.9707 35.5898C55.9889 35.9362 55.9935 36.2598 55.9844 36.5605C55.9844 36.8613 55.9844 37.0983 55.9844 37.2715ZM55.7246 42.4668C55.7246 42.6217 55.6882 42.7585 55.6152 42.877C55.5423 42.9863 55.4466 43.0775 55.3281 43.1504C55.2096 43.2324 55.082 43.2917 54.9453 43.3281C54.8086 43.3646 54.6719 43.3828 54.5352 43.3828C54.3346 43.3828 54.1432 43.3281 53.9609 43.2188C53.7786 43.1185 53.6875 42.9544 53.6875 42.7266C53.6875 42.5898 53.724 42.4668 53.7969 42.3574C53.8789 42.2389 53.9792 42.1387 54.0977 42.0566C54.2161 41.9746 54.3438 41.9108 54.4805 41.8652C54.6263 41.8197 54.763 41.7969 54.8906 41.7969C55.1003 41.7969 55.2917 41.8516 55.4648 41.9609C55.638 42.0612 55.7246 42.2298 55.7246 42.4668ZM63.2441 43.4512C62.6882 43.4512 62.2051 43.3099 61.7949 43.0273C61.3848 42.7539 61.043 42.3848 60.7695 41.9199C60.5052 41.446 60.3047 40.8991 60.168 40.2793C60.0404 39.6595 59.9766 39.0078 59.9766 38.3242C59.9766 37.6862 60.0449 37.0391 60.1816 36.3828C60.3275 35.7266 60.5462 35.1341 60.8379 34.6055C61.1296 34.0768 61.4987 33.6439 61.9453 33.3066C62.3919 32.9694 62.9251 32.8008 63.5449 32.8008C64.1465 32.8008 64.6478 32.9648 65.0488 33.293C65.459 33.612 65.7826 34.0312 66.0195 34.5508C66.2656 35.0612 66.4388 35.6354 66.5391 36.2734C66.6484 36.9115 66.7031 37.5495 66.7031 38.1875C66.7031 38.8984 66.6302 39.5729 66.4844 40.2109C66.3477 40.8398 66.1335 41.3958 65.8418 41.8789C65.5592 42.362 65.1992 42.7448 64.7617 43.0273C64.3333 43.3099 63.8275 43.4512 63.2441 43.4512ZM63.4082 35.8223C63.235 35.8223 63.0846 35.8906 62.957 36.0273C62.8385 36.1641 62.7383 36.3464 62.6562 36.5742C62.5742 36.793 62.515 37.0436 62.4785 37.3262C62.4421 37.5996 62.4238 37.8776 62.4238 38.1602C62.4238 38.4792 62.4421 38.7982 62.4785 39.1172C62.5241 39.4362 62.5879 39.7233 62.6699 39.9785C62.752 40.2337 62.8522 40.4388 62.9707 40.5938C63.0983 40.7487 63.2487 40.8262 63.4219 40.8262C63.6224 40.8262 63.7819 40.7259 63.9004 40.5254C64.0189 40.3249 64.11 40.0833 64.1738 39.8008C64.2467 39.5182 64.2923 39.2266 64.3105 38.9258C64.3379 38.625 64.3516 38.3743 64.3516 38.1738C64.3516 37.9277 64.3333 37.668 64.2969 37.3945C64.2695 37.1211 64.2194 36.8704 64.1465 36.6426C64.0736 36.4056 63.9779 36.2096 63.8594 36.0547C63.7409 35.8997 63.5905 35.8223 63.4082 35.8223ZM73.9355 38.4883C73.9355 38.7526 73.9128 39.0534 73.8672 39.3906C73.8307 39.7188 73.7669 40.056 73.6758 40.4023C73.5938 40.7487 73.4798 41.0859 73.334 41.4141C73.1973 41.7422 73.0241 42.0384 72.8145 42.3027C72.6139 42.5579 72.377 42.763 72.1035 42.918C71.8392 43.0729 71.5293 43.1504 71.1738 43.1504C70.8001 43.1504 70.4583 43.0638 70.1484 42.8906C69.8477 42.7174 69.5879 42.4805 69.3691 42.1797C69.3418 42.4258 69.2415 42.6445 69.0684 42.8359C68.8952 43.0182 68.6764 43.1094 68.4121 43.1094C68.2572 43.1094 68.125 43.0319 68.0156 42.877C67.9154 42.722 67.8333 42.526 67.7695 42.2891C67.7057 42.043 67.6556 41.7741 67.6191 41.4824C67.5918 41.1908 67.5736 40.9082 67.5645 40.6348C67.5553 40.3613 67.5508 40.1152 67.5508 39.8965C67.5508 39.6777 67.5508 39.5228 67.5508 39.4316C67.5508 39.1217 67.5508 38.8118 67.5508 38.502C67.5599 38.1921 67.569 37.8776 67.5781 37.5586C67.5781 37.4036 67.5736 37.1712 67.5645 36.8613C67.5645 36.5514 67.569 36.2096 67.5781 35.8359C67.5872 35.4531 67.6055 35.0658 67.6328 34.6738C67.6693 34.2728 67.7285 33.9082 67.8105 33.5801C67.8926 33.252 68.0065 32.9831 68.1523 32.7734C68.2982 32.5638 68.485 32.4544 68.7129 32.4453C68.8952 32.4453 69.0501 32.5091 69.1777 32.6367C69.3053 32.7643 69.4102 32.9329 69.4922 33.1426C69.5833 33.3522 69.6517 33.5892 69.6973 33.8535C69.752 34.1087 69.7884 34.3685 69.8066 34.6328C69.834 34.888 69.8477 35.1341 69.8477 35.3711C69.8568 35.599 69.8613 35.7858 69.8613 35.9316C69.8613 35.959 69.8568 36.0228 69.8477 36.123C69.8477 36.2142 69.8477 36.3145 69.8477 36.4238C69.8477 36.5332 69.8477 36.6335 69.8477 36.7246C69.8477 36.8066 69.8477 36.8522 69.8477 36.8613C69.9297 36.6882 70.0482 36.5195 70.2031 36.3555C70.3581 36.1914 70.5312 36.0456 70.7227 35.918C70.9141 35.7904 71.1146 35.6855 71.3242 35.6035C71.5339 35.5215 71.7344 35.4805 71.9258 35.4805C72.3086 35.4805 72.6276 35.5807 72.8828 35.7812C73.1471 35.9727 73.3568 36.2188 73.5117 36.5195C73.6667 36.8203 73.776 37.1484 73.8398 37.5039C73.9036 37.8503 73.9355 38.1784 73.9355 38.4883ZM71.9258 38.8984C71.9258 38.7891 71.9167 38.6706 71.8984 38.543C71.8893 38.4154 71.8574 38.2969 71.8027 38.1875C71.7572 38.0781 71.6888 37.987 71.5977 37.9141C71.5156 37.8411 71.4062 37.8047 71.2695 37.8047C71.1237 37.8047 70.9779 37.8366 70.832 37.9004C70.6953 37.9642 70.5632 38.0462 70.4355 38.1465C70.3079 38.2467 70.1895 38.3561 70.0801 38.4746C69.9707 38.584 69.875 38.6934 69.793 38.8027L69.6562 40.0195C69.8021 40.2292 69.9798 40.3978 70.1895 40.5254C70.3991 40.6439 70.6361 40.7031 70.9004 40.7031C71.1009 40.7031 71.265 40.6393 71.3926 40.5117C71.5293 40.3841 71.6341 40.2292 71.707 40.0469C71.7891 39.8555 71.8438 39.6549 71.8711 39.4453C71.9076 39.2357 71.9258 39.0534 71.9258 38.8984ZM79.5137 37.8867C79.3861 37.8958 79.2767 37.8867 79.1855 37.8594C79.0944 37.8229 79.0033 37.7865 78.9121 37.75C78.8301 37.7135 78.748 37.6816 78.666 37.6543C78.584 37.6178 78.4928 37.6042 78.3926 37.6133C78.2103 37.6224 78.0462 37.6725 77.9004 37.7637C77.7637 37.8548 77.6361 37.9688 77.5176 38.1055C77.4082 38.2422 77.3125 38.3971 77.2305 38.5703C77.1484 38.7344 77.0846 38.8984 77.0391 39.0625C77.0117 39.1719 76.9889 39.3405 76.9707 39.5684C76.9616 39.7871 76.957 40.0241 76.957 40.2793C76.9479 40.5436 76.9434 40.7943 76.9434 41.0312C76.9434 41.2682 76.9342 41.4551 76.916 41.5918C76.9069 41.7376 76.8841 41.9108 76.8477 42.1113C76.8112 42.3027 76.752 42.485 76.6699 42.6582C76.597 42.8314 76.4967 42.9772 76.3691 43.0957C76.2415 43.2142 76.0775 43.2734 75.877 43.2734C75.722 43.2734 75.5853 43.2279 75.4668 43.1367C75.3574 43.0456 75.2617 42.9271 75.1797 42.7812C75.1068 42.6263 75.043 42.4486 74.9883 42.248C74.9427 42.0475 74.9062 41.8424 74.8789 41.6328C74.8516 41.4141 74.8288 41.1953 74.8105 40.9766C74.8014 40.7578 74.7923 40.5527 74.7832 40.3613C74.7832 40.1608 74.7832 39.9785 74.7832 39.8145C74.7923 39.6504 74.7969 39.5182 74.7969 39.418C74.7878 39.099 74.7695 38.7799 74.7422 38.4609C74.724 38.1328 74.7148 37.8092 74.7148 37.4902C74.7148 37.2897 74.724 37.0664 74.7422 36.8203C74.7604 36.5742 74.8105 36.3464 74.8926 36.1367C74.9746 35.918 75.0931 35.7357 75.248 35.5898C75.4121 35.444 75.6354 35.3711 75.918 35.3711C76.0729 35.3711 76.2051 35.4212 76.3145 35.5215C76.4238 35.6217 76.5104 35.7448 76.5742 35.8906C76.6471 36.0365 76.7018 36.1914 76.7383 36.3555C76.7747 36.5195 76.7975 36.6699 76.8066 36.8066C77.0254 36.4512 77.2715 36.1641 77.5449 35.9453C77.8184 35.7174 78.1738 35.5944 78.6113 35.5762C78.8301 35.5671 79.0443 35.5898 79.2539 35.6445C79.4727 35.6901 79.6686 35.7721 79.8418 35.8906C80.0241 36 80.1699 36.1458 80.2793 36.3281C80.3978 36.5104 80.4616 36.7246 80.4707 36.9707C80.4889 37.2624 80.4023 37.4857 80.2109 37.6406C80.0195 37.7956 79.7871 37.8776 79.5137 37.8867ZM82.9316 33.457C82.9316 33.5846 82.8952 33.6986 82.8223 33.7988C82.7585 33.8991 82.6719 33.9902 82.5625 34.0723C82.4531 34.1452 82.3346 34.2044 82.207 34.25C82.0794 34.2865 81.9609 34.3047 81.8516 34.3047C81.6693 34.3047 81.5098 34.2591 81.373 34.168C81.2363 34.0768 81.168 33.9355 81.168 33.7441C81.168 33.6074 81.1999 33.4889 81.2637 33.3887C81.3366 33.2793 81.4232 33.1927 81.5234 33.1289C81.6237 33.056 81.7376 33.0013 81.8652 32.9648C81.9928 32.9284 82.1159 32.9102 82.2344 32.9102C82.4076 32.9102 82.5671 32.9512 82.7129 33.0332C82.8587 33.1152 82.9316 33.2565 82.9316 33.457ZM83.041 38.1055C83.041 38.2331 83.041 38.3698 83.041 38.5156C83.041 38.6523 83.0365 38.7845 83.0273 38.9121C83.0182 39.0671 83.0137 39.2767 83.0137 39.541C83.0137 39.7962 83.0046 40.0742 82.9863 40.375C82.9681 40.6758 82.9362 40.9811 82.8906 41.291C82.8542 41.6009 82.7904 41.8835 82.6992 42.1387C82.6081 42.3939 82.485 42.6035 82.3301 42.7676C82.1842 42.9225 81.9974 43.0046 81.7695 43.0137C81.5964 43.0228 81.4505 42.9544 81.332 42.8086C81.2135 42.6628 81.1133 42.4759 81.0312 42.248C80.9583 42.0111 80.9036 41.7513 80.8672 41.4688C80.8307 41.1771 80.8034 40.8991 80.7852 40.6348C80.7669 40.3613 80.7578 40.1107 80.7578 39.8828C80.7578 39.6549 80.7578 39.4863 80.7578 39.377C80.7578 39.2311 80.7578 39.026 80.7578 38.7617C80.7578 38.4883 80.7669 38.1966 80.7852 37.8867C80.8034 37.5768 80.8353 37.2624 80.8809 36.9434C80.9355 36.6243 81.0085 36.3327 81.0996 36.0684C81.1999 35.804 81.3275 35.5898 81.4824 35.4258C81.6374 35.2617 81.8333 35.1797 82.0703 35.1797C82.3164 35.1797 82.5033 35.3027 82.6309 35.5488C82.7585 35.7949 82.8542 36.082 82.918 36.4102C82.9818 36.7383 83.0182 37.0664 83.0273 37.3945C83.0365 37.7135 83.041 37.9505 83.041 38.1055ZM90.2051 38.3379C90.2051 38.8027 90.196 39.2676 90.1777 39.7324C90.1686 40.1973 90.1458 40.6621 90.1094 41.127C90.082 41.528 90.0456 41.9564 90 42.4121C89.9544 42.8678 89.8815 43.319 89.7812 43.7656C89.681 44.2214 89.5488 44.6543 89.3848 45.0645C89.2207 45.4837 89.002 45.8529 88.7285 46.1719C88.4642 46.4909 88.1406 46.7461 87.7578 46.9375C87.375 47.1289 86.9193 47.2246 86.3906 47.2246C86.1445 47.2246 85.8665 47.1836 85.5566 47.1016C85.2559 47.0286 84.9688 46.9193 84.6953 46.7734C84.431 46.6276 84.2031 46.4453 84.0117 46.2266C83.8294 46.0169 83.7383 45.7708 83.7383 45.4883C83.7383 45.2786 83.8112 45.0827 83.957 44.9004C84.112 44.7272 84.3079 44.6406 84.5449 44.6406C84.6908 44.6406 84.8275 44.6634 84.9551 44.709C85.0918 44.7637 85.224 44.8229 85.3516 44.8867C85.4883 44.9505 85.6159 45.0052 85.7344 45.0508C85.862 45.1055 85.9896 45.1328 86.1172 45.1328C86.4544 45.1328 86.737 45.0462 86.9648 44.873C87.1927 44.709 87.375 44.4948 87.5117 44.2305C87.6484 43.9753 87.7487 43.6927 87.8125 43.3828C87.8854 43.082 87.9355 42.7949 87.9629 42.5215C87.7806 42.7311 87.5664 42.877 87.3203 42.959C87.0833 43.0319 86.8327 43.0684 86.5684 43.0684C86.0853 43.0684 85.6751 42.9863 85.3379 42.8223C85.0007 42.6491 84.7272 42.4167 84.5176 42.125C84.3079 41.8242 84.153 41.4779 84.0527 41.0859C83.9525 40.694 83.9023 40.2702 83.9023 39.8145C83.9023 39.5319 83.9297 39.2129 83.9844 38.8574C84.0482 38.502 84.1393 38.1419 84.2578 37.7773C84.3763 37.4128 84.5221 37.0573 84.6953 36.7109C84.8776 36.3646 85.0872 36.0592 85.3242 35.7949C85.5612 35.5306 85.8255 35.3164 86.1172 35.1523C86.418 34.9883 86.7461 34.9062 87.1016 34.9062C87.4479 34.9062 87.7533 35.0065 88.0176 35.207C88.291 35.4076 88.4505 35.6901 88.4961 36.0547C88.5964 35.8633 88.7285 35.6764 88.8926 35.4941C89.0566 35.3027 89.2572 35.207 89.4941 35.207C89.6217 35.207 89.7266 35.2708 89.8086 35.3984C89.8997 35.526 89.9681 35.6947 90.0137 35.9043C90.0684 36.1048 90.1094 36.3281 90.1367 36.5742C90.1641 36.8112 90.1823 37.0482 90.1914 37.2852C90.2005 37.513 90.2051 37.7227 90.2051 37.9141C90.2051 38.1055 90.2051 38.2467 90.2051 38.3379ZM88.127 39.2266C88.127 39.0898 88.1042 38.9121 88.0586 38.6934C88.0221 38.4746 87.9629 38.265 87.8809 38.0645C87.8079 37.8639 87.7122 37.6908 87.5938 37.5449C87.4753 37.3991 87.334 37.3262 87.1699 37.3262C86.9603 37.3262 86.7734 37.3991 86.6094 37.5449C86.4544 37.6908 86.3223 37.8685 86.2129 38.0781C86.1035 38.2786 86.0169 38.4974 85.9531 38.7344C85.8984 38.9622 85.8711 39.1582 85.8711 39.3223C85.8711 39.4408 85.8802 39.6003 85.8984 39.8008C85.9167 40.0013 85.9531 40.1973 86.0078 40.3887C86.0716 40.5801 86.1536 40.7441 86.2539 40.8809C86.3542 41.0176 86.4863 41.0859 86.6504 41.0859C86.8965 41.0859 87.1107 41.0267 87.293 40.9082C87.4753 40.7897 87.6257 40.6393 87.7441 40.457C87.8717 40.2747 87.9674 40.0742 88.0312 39.8555C88.0951 39.6367 88.127 39.4271 88.127 39.2266ZM96.9863 41.0723C96.9863 41.2363 96.9772 41.4505 96.959 41.7148C96.9499 41.9792 96.9134 42.2389 96.8496 42.4941C96.7858 42.7402 96.6855 42.9544 96.5488 43.1367C96.4121 43.319 96.2207 43.4102 95.9746 43.4102C95.6374 43.4102 95.3776 43.3008 95.1953 43.082C95.013 42.8633 94.9264 42.5898 94.9355 42.2617C94.6439 42.5169 94.3112 42.7174 93.9375 42.8633C93.5729 43.0091 93.1992 43.082 92.8164 43.082C92.5521 43.082 92.3014 43.0182 92.0645 42.8906C91.8275 42.763 91.6178 42.599 91.4355 42.3984C91.2533 42.1979 91.1074 41.9746 90.998 41.7285C90.8887 41.4733 90.834 41.2227 90.834 40.9766C90.834 40.5391 90.9661 40.1562 91.2305 39.8281C91.5039 39.5 91.8366 39.222 92.2285 38.9941C92.6204 38.7572 93.0352 38.5703 93.4727 38.4336C93.9193 38.2969 94.3158 38.2057 94.6621 38.1602C94.6621 38.1146 94.6621 38.0736 94.6621 38.0371C94.6712 38.0007 94.6758 37.9596 94.6758 37.9141C94.6758 37.6315 94.5983 37.4036 94.4434 37.2305C94.2884 37.0573 94.0697 36.9707 93.7871 36.9707C93.5592 36.9707 93.3633 37.0117 93.1992 37.0938C93.0352 37.1667 92.8802 37.2533 92.7344 37.3535C92.5885 37.4447 92.4427 37.5312 92.2969 37.6133C92.151 37.6862 91.987 37.7227 91.8047 37.7227C91.6042 37.7227 91.431 37.6589 91.2852 37.5312C91.1484 37.4036 91.0801 37.2396 91.0801 37.0391C91.0801 36.7383 91.1667 36.4648 91.3398 36.2188C91.5221 35.9727 91.7454 35.7676 92.0098 35.6035C92.2832 35.4303 92.5749 35.2982 92.8848 35.207C93.2038 35.1068 93.4954 35.0566 93.7598 35.0566C94.0059 35.0566 94.252 35.0885 94.498 35.1523C94.7441 35.207 94.9766 35.2982 95.1953 35.4258C95.4141 35.5443 95.61 35.6947 95.7832 35.877C95.9655 36.0501 96.1113 36.2552 96.2207 36.4922C96.3848 36.8294 96.5169 37.1895 96.6172 37.5723C96.7174 37.946 96.7949 38.3333 96.8496 38.7344C96.9043 39.1263 96.9408 39.5228 96.959 39.9238C96.9772 40.3158 96.9863 40.6986 96.9863 41.0723ZM94.7988 40.6348L94.7578 39.7051C94.7396 39.7051 94.7214 39.7051 94.7031 39.7051C94.6849 39.696 94.6667 39.6914 94.6484 39.6914C94.5299 39.6914 94.3796 39.7233 94.1973 39.7871C94.0241 39.8418 93.8555 39.9238 93.6914 40.0332C93.5273 40.1335 93.3861 40.2474 93.2676 40.375C93.1582 40.5026 93.1035 40.6348 93.1035 40.7715C93.1035 40.8991 93.1491 40.9857 93.2402 41.0312C93.3314 41.0768 93.4362 41.0996 93.5547 41.0996C93.7552 41.0996 93.9694 41.0495 94.1973 40.9492C94.4251 40.8398 94.6257 40.735 94.7988 40.6348ZM103.699 34.0039C103.699 34.6693 103.672 35.3301 103.617 35.9863C103.572 36.6426 103.549 37.3034 103.549 37.9688C103.549 38.5065 103.562 39.0397 103.59 39.5684C103.626 40.097 103.645 40.6302 103.645 41.168C103.645 41.3138 103.64 41.4915 103.631 41.7012C103.622 41.9017 103.59 42.0977 103.535 42.2891C103.49 42.4805 103.408 42.6445 103.289 42.7812C103.18 42.918 103.02 42.9863 102.811 42.9863C102.537 42.9863 102.309 42.8861 102.127 42.6855C101.954 42.4759 101.844 42.2435 101.799 41.9883C101.626 42.3164 101.375 42.5944 101.047 42.8223C100.719 43.0501 100.363 43.1641 99.9805 43.1641C99.5703 43.1641 99.2148 43.0228 98.9141 42.7402C98.6224 42.4577 98.3763 42.1159 98.1758 41.7148C97.9844 41.3138 97.8385 40.8945 97.7383 40.457C97.6471 40.0195 97.6016 39.6413 97.6016 39.3223C97.6016 39.0944 97.6152 38.8346 97.6426 38.543C97.6699 38.2513 97.7155 37.9551 97.7793 37.6543C97.8522 37.3535 97.9434 37.0618 98.0527 36.7793C98.1621 36.4876 98.2988 36.2279 98.4629 36C98.6361 35.7721 98.8366 35.5898 99.0645 35.4531C99.3014 35.3164 99.5703 35.248 99.8711 35.248C100.199 35.248 100.514 35.3438 100.814 35.5352C101.115 35.7266 101.343 35.9635 101.498 36.2461L101.621 34.0723C101.63 33.8991 101.644 33.6986 101.662 33.4707C101.68 33.2337 101.717 33.0104 101.771 32.8008C101.835 32.5911 101.931 32.4134 102.059 32.2676C102.186 32.1217 102.373 32.0488 102.619 32.0488C102.883 32.0488 103.089 32.1126 103.234 32.2402C103.38 32.3678 103.485 32.5319 103.549 32.7324C103.622 32.9238 103.663 33.1335 103.672 33.3613C103.69 33.5892 103.699 33.8034 103.699 34.0039ZM101.471 40.0742C101.471 39.8646 101.466 39.6595 101.457 39.459C101.448 39.2585 101.448 39.0534 101.457 38.8438C101.402 38.7253 101.339 38.5977 101.266 38.4609C101.193 38.3151 101.102 38.1829 100.992 38.0645C100.892 37.9368 100.778 37.832 100.65 37.75C100.523 37.668 100.386 37.627 100.24 37.627C100.076 37.627 99.944 37.6771 99.8438 37.7773C99.7435 37.8776 99.6706 38.0007 99.625 38.1465C99.5794 38.2832 99.5475 38.4336 99.5293 38.5977C99.5202 38.7617 99.5156 38.903 99.5156 39.0215C99.5156 39.1309 99.5247 39.2949 99.543 39.5137C99.5612 39.7233 99.5931 39.9375 99.6387 40.1562C99.6934 40.375 99.7663 40.5664 99.8574 40.7305C99.9486 40.8945 100.072 40.9766 100.227 40.9766C100.345 40.9766 100.464 40.9538 100.582 40.9082C100.701 40.8535 100.81 40.7897 100.91 40.7168C101.02 40.6348 101.12 40.5482 101.211 40.457C101.311 40.3568 101.398 40.2656 101.471 40.1836V40.0742ZM110.412 41.0723C110.412 41.2363 110.403 41.4505 110.385 41.7148C110.376 41.9792 110.339 42.2389 110.275 42.4941C110.212 42.7402 110.111 42.9544 109.975 43.1367C109.838 43.319 109.646 43.4102 109.4 43.4102C109.063 43.4102 108.803 43.3008 108.621 43.082C108.439 42.8633 108.352 42.5898 108.361 42.2617C108.07 42.5169 107.737 42.7174 107.363 42.8633C106.999 43.0091 106.625 43.082 106.242 43.082C105.978 43.082 105.727 43.0182 105.49 42.8906C105.253 42.763 105.044 42.599 104.861 42.3984C104.679 42.1979 104.533 41.9746 104.424 41.7285C104.314 41.4733 104.26 41.2227 104.26 40.9766C104.26 40.5391 104.392 40.1562 104.656 39.8281C104.93 39.5 105.262 39.222 105.654 38.9941C106.046 38.7572 106.461 38.5703 106.898 38.4336C107.345 38.2969 107.742 38.2057 108.088 38.1602C108.088 38.1146 108.088 38.0736 108.088 38.0371C108.097 38.0007 108.102 37.9596 108.102 37.9141C108.102 37.6315 108.024 37.4036 107.869 37.2305C107.714 37.0573 107.495 36.9707 107.213 36.9707C106.985 36.9707 106.789 37.0117 106.625 37.0938C106.461 37.1667 106.306 37.2533 106.16 37.3535C106.014 37.4447 105.868 37.5312 105.723 37.6133C105.577 37.6862 105.413 37.7227 105.23 37.7227C105.03 37.7227 104.857 37.6589 104.711 37.5312C104.574 37.4036 104.506 37.2396 104.506 37.0391C104.506 36.7383 104.592 36.4648 104.766 36.2188C104.948 35.9727 105.171 35.7676 105.436 35.6035C105.709 35.4303 106.001 35.2982 106.311 35.207C106.63 35.1068 106.921 35.0566 107.186 35.0566C107.432 35.0566 107.678 35.0885 107.924 35.1523C108.17 35.207 108.402 35.2982 108.621 35.4258C108.84 35.5443 109.036 35.6947 109.209 35.877C109.391 36.0501 109.537 36.2552 109.646 36.4922C109.811 36.8294 109.943 37.1895 110.043 37.5723C110.143 37.946 110.221 38.3333 110.275 38.7344C110.33 39.1263 110.367 39.5228 110.385 39.9238C110.403 40.3158 110.412 40.6986 110.412 41.0723ZM108.225 40.6348L108.184 39.7051C108.165 39.7051 108.147 39.7051 108.129 39.7051C108.111 39.696 108.092 39.6914 108.074 39.6914C107.956 39.6914 107.805 39.7233 107.623 39.7871C107.45 39.8418 107.281 39.9238 107.117 40.0332C106.953 40.1335 106.812 40.2474 106.693 40.375C106.584 40.5026 106.529 40.6348 106.529 40.7715C106.529 40.8991 106.575 40.9857 106.666 41.0312C106.757 41.0768 106.862 41.0996 106.98 41.0996C107.181 41.0996 107.395 41.0495 107.623 40.9492C107.851 40.8398 108.051 40.735 108.225 40.6348ZM113.201 42.2754C113.201 42.4212 113.16 42.6081 113.078 42.8359C113.005 43.0638 112.91 43.2871 112.791 43.5059C112.682 43.7246 112.554 43.9115 112.408 44.0664C112.262 44.2214 112.121 44.2988 111.984 44.2988C111.802 44.2988 111.711 44.2077 111.711 44.0254C111.711 43.916 111.734 43.8112 111.779 43.7109C111.825 43.6107 111.875 43.5104 111.93 43.4102C111.984 43.319 112.035 43.2233 112.08 43.123C112.126 43.0319 112.148 42.9408 112.148 42.8496C112.012 42.9408 111.866 42.9863 111.711 42.9863C111.501 42.9863 111.324 42.9043 111.178 42.7402C111.032 42.5762 110.959 42.3939 110.959 42.1934C110.959 41.9017 111.055 41.6693 111.246 41.4961C111.438 41.3138 111.679 41.2227 111.971 41.2227C112.299 41.2227 112.586 41.3092 112.832 41.4824C113.078 41.6556 113.201 41.9199 113.201 42.2754ZM121.773 33.7168C121.773 33.89 121.732 34.0449 121.65 34.1816C121.577 34.3184 121.477 34.4368 121.35 34.5371C121.222 34.6283 121.081 34.7057 120.926 34.7695C120.771 34.8333 120.62 34.8789 120.475 34.9062C120.456 35.9362 120.415 36.9297 120.352 37.8867C120.297 38.8438 120.206 39.8327 120.078 40.8535H120.16C120.306 40.8535 120.447 40.8717 120.584 40.9082C120.73 40.9355 120.857 40.9902 120.967 41.0723C121.085 41.1452 121.176 41.2409 121.24 41.3594C121.313 41.4688 121.35 41.6055 121.35 41.7695C121.35 41.9792 121.281 42.1615 121.145 42.3164C121.017 42.4714 120.844 42.6035 120.625 42.7129C120.415 42.8223 120.178 42.9134 119.914 42.9863C119.65 43.0592 119.385 43.1139 119.121 43.1504C118.857 43.196 118.606 43.2279 118.369 43.2461C118.132 43.2643 117.941 43.2734 117.795 43.2734C117.686 43.2734 117.549 43.2689 117.385 43.2598C117.23 43.2507 117.079 43.2233 116.934 43.1777C116.797 43.1322 116.678 43.0638 116.578 42.9727C116.478 42.8815 116.428 42.7585 116.428 42.6035C116.428 42.4121 116.469 42.2435 116.551 42.0977C116.624 41.9427 116.724 41.806 116.852 41.6875C116.979 41.569 117.12 41.4733 117.275 41.4004C117.439 41.3275 117.604 41.2728 117.768 41.2363C117.831 40.735 117.891 40.2383 117.945 39.7461C118 39.2448 118.036 38.7389 118.055 38.2285C118.073 37.709 118.091 37.1986 118.109 36.6973C118.128 36.1868 118.146 35.6764 118.164 35.166C118.1 35.1751 118.041 35.1842 117.986 35.1934C117.932 35.1934 117.882 35.1934 117.836 35.1934C117.708 35.1934 117.572 35.1797 117.426 35.1523C117.28 35.125 117.143 35.0794 117.016 35.0156C116.888 34.9427 116.779 34.8561 116.688 34.7559C116.605 34.6556 116.564 34.528 116.564 34.373C116.564 34.0632 116.692 33.8079 116.947 33.6074C117.212 33.4069 117.521 33.252 117.877 33.1426C118.242 33.0332 118.611 32.9603 118.984 32.9238C119.358 32.8783 119.659 32.8555 119.887 32.8555C120.014 32.8555 120.183 32.8646 120.393 32.8828C120.602 32.901 120.807 32.9421 121.008 33.0059C121.217 33.0697 121.395 33.1562 121.541 33.2656C121.696 33.375 121.773 33.5254 121.773 33.7168ZM125.848 43.3828C125.693 43.3828 125.57 43.3099 125.479 43.1641C125.387 43.0273 125.319 42.8678 125.273 42.6855C125.228 42.5033 125.196 42.321 125.178 42.1387C125.169 41.9473 125.164 41.8014 125.164 41.7012C125.164 41.4277 125.178 41.1543 125.205 40.8809C125.242 40.6074 125.278 40.334 125.314 40.0605C125.36 39.7871 125.396 39.5137 125.424 39.2402C125.46 38.9668 125.479 38.6934 125.479 38.4199C125.479 38.3105 125.474 38.1921 125.465 38.0645C125.456 37.9368 125.433 37.8184 125.396 37.709C125.369 37.5905 125.319 37.4948 125.246 37.4219C125.173 37.349 125.077 37.3125 124.959 37.3125C124.877 37.3125 124.786 37.3809 124.686 37.5176C124.585 37.6452 124.49 37.7956 124.398 37.9688C124.316 38.1328 124.243 38.3014 124.18 38.4746C124.125 38.6387 124.098 38.7617 124.098 38.8438C124.098 39.0443 124.098 39.2493 124.098 39.459C124.107 39.6595 124.111 39.8646 124.111 40.0742V40.8672C124.102 41.0312 124.089 41.1999 124.07 41.373C124.052 41.5462 124.025 41.7148 123.988 41.8789C123.961 42.043 123.92 42.2025 123.865 42.3574C123.811 42.5033 123.738 42.6354 123.646 42.7539C123.564 42.8633 123.464 42.9544 123.346 43.0273C123.227 43.1003 123.086 43.1367 122.922 43.1367C122.74 43.1367 122.589 43.0775 122.471 42.959C122.352 42.8405 122.257 42.6901 122.184 42.5078C122.111 42.3164 122.056 42.1068 122.02 41.8789C121.992 41.6419 121.969 41.4141 121.951 41.1953C121.942 40.9674 121.938 40.7624 121.938 40.5801C121.947 40.3887 121.951 40.2383 121.951 40.1289V39.4863C121.951 39.14 121.942 38.7982 121.924 38.4609C121.915 38.1237 121.91 37.7865 121.91 37.4492C121.91 37.2669 121.91 37.0345 121.91 36.752C121.919 36.4694 121.956 36.196 122.02 35.9316C122.083 35.6582 122.188 35.4258 122.334 35.2344C122.48 35.043 122.694 34.9473 122.977 34.9473C123.104 34.9473 123.218 34.9883 123.318 35.0703C123.419 35.1523 123.505 35.2526 123.578 35.3711C123.66 35.4896 123.724 35.6172 123.77 35.7539C123.824 35.8906 123.865 36.0091 123.893 36.1094C123.984 35.9818 124.089 35.8587 124.207 35.7402C124.335 35.6217 124.476 35.5169 124.631 35.4258C124.786 35.3346 124.959 35.2617 125.15 35.207C125.342 35.1523 125.561 35.125 125.807 35.125C126.271 35.125 126.632 35.2389 126.887 35.4668C127.151 35.6855 127.342 35.9635 127.461 36.3008C127.589 36.6289 127.666 36.9844 127.693 37.3672C127.721 37.75 127.734 38.0964 127.734 38.4062C127.734 38.5612 127.721 38.7936 127.693 39.1035C127.666 39.4043 127.62 39.7415 127.557 40.1152C127.502 40.4798 127.424 40.8581 127.324 41.25C127.224 41.6328 127.105 41.9837 126.969 42.3027C126.832 42.6217 126.668 42.8815 126.477 43.082C126.294 43.2826 126.085 43.3828 125.848 43.3828ZM132.506 35.4805C132.506 35.7448 132.415 35.9408 132.232 36.0684C132.059 36.196 131.863 36.319 131.645 36.4375C131.426 36.5469 131.225 36.679 131.043 36.834C130.87 36.9889 130.783 37.2214 130.783 37.5312C130.783 37.6953 130.82 37.8366 130.893 37.9551C130.975 38.0736 131.07 38.1829 131.18 38.2832C131.298 38.3743 131.426 38.4701 131.562 38.5703C131.699 38.6706 131.822 38.7845 131.932 38.9121C132.05 39.0397 132.146 39.1947 132.219 39.377C132.301 39.5592 132.342 39.7826 132.342 40.0469C132.342 40.4297 132.242 40.8079 132.041 41.1816C131.85 41.5462 131.599 41.8743 131.289 42.166C130.988 42.4486 130.646 42.6764 130.264 42.8496C129.881 43.0228 129.503 43.1094 129.129 43.1094C128.974 43.1094 128.819 43.0957 128.664 43.0684C128.509 43.0501 128.368 43.0091 128.24 42.9453C128.122 42.8815 128.021 42.7949 127.939 42.6855C127.857 42.5671 127.816 42.4167 127.816 42.2344C127.816 41.9792 127.867 41.7832 127.967 41.6465C128.067 41.5007 128.195 41.3867 128.35 41.3047C128.505 41.2227 128.669 41.1589 128.842 41.1133C129.024 41.0677 129.193 41.013 129.348 40.9492C129.503 40.8763 129.63 40.7852 129.73 40.6758C129.831 40.5664 129.881 40.4115 129.881 40.2109C129.881 40.0195 129.803 39.8236 129.648 39.623C129.503 39.4134 129.339 39.1947 129.156 38.9668C128.974 38.7298 128.805 38.4792 128.65 38.2148C128.505 37.9505 128.432 37.6589 128.432 37.3398C128.432 36.9479 128.509 36.5879 128.664 36.2598C128.828 35.9225 129.042 35.6309 129.307 35.3848C129.58 35.1387 129.89 34.9473 130.236 34.8105C130.583 34.6647 130.947 34.5918 131.33 34.5918C131.476 34.5918 131.617 34.6055 131.754 34.6328C131.9 34.6602 132.027 34.7103 132.137 34.7832C132.246 34.847 132.333 34.9382 132.396 35.0566C132.469 35.166 132.506 35.3073 132.506 35.4805ZM139.041 39.0898C139.041 39.5911 138.991 40.0879 138.891 40.5801C138.79 41.0723 138.622 41.5143 138.385 41.9062C138.148 42.2891 137.829 42.599 137.428 42.8359C137.036 43.0729 136.544 43.1914 135.951 43.1914C135.368 43.1914 134.88 43.0775 134.488 42.8496C134.096 42.6126 133.782 42.3027 133.545 41.9199C133.317 41.5371 133.153 41.1042 133.053 40.6211C132.962 40.138 132.916 39.6458 132.916 39.1445C132.916 38.5977 132.98 38.0553 133.107 37.5176C133.135 37.3717 133.185 37.1712 133.258 36.916C133.34 36.6517 133.44 36.3965 133.559 36.1504C133.686 35.8952 133.827 35.6764 133.982 35.4941C134.146 35.3118 134.324 35.2207 134.516 35.2207C134.698 35.2207 134.844 35.2708 134.953 35.3711C135.062 35.4714 135.149 35.599 135.213 35.7539C135.277 35.8997 135.318 36.0592 135.336 36.2324C135.354 36.3965 135.363 36.5469 135.363 36.6836C135.363 36.8932 135.345 37.0983 135.309 37.2988C135.281 37.4993 135.249 37.6999 135.213 37.9004C135.176 38.1738 135.14 38.4473 135.104 38.7207C135.076 38.9941 135.062 39.2676 135.062 39.541C135.062 39.6777 135.067 39.8327 135.076 40.0059C135.094 40.1699 135.131 40.3294 135.186 40.4844C135.24 40.6393 135.318 40.7715 135.418 40.8809C135.518 40.9811 135.66 41.0312 135.842 41.0312C136.079 41.0312 136.266 40.9674 136.402 40.8398C136.548 40.7122 136.653 40.5527 136.717 40.3613C136.79 40.1699 136.835 39.9648 136.854 39.7461C136.872 39.5273 136.881 39.3268 136.881 39.1445C136.881 38.7435 136.854 38.3516 136.799 37.9688C136.744 37.5768 136.694 37.1803 136.648 36.7793C136.639 36.7337 136.635 36.6699 136.635 36.5879C136.635 36.4512 136.658 36.3145 136.703 36.1777C136.749 36.041 136.812 35.918 136.895 35.8086C136.977 35.6992 137.077 35.6126 137.195 35.5488C137.314 35.4759 137.446 35.4395 137.592 35.4395C137.792 35.4395 137.97 35.5124 138.125 35.6582C138.28 35.7949 138.408 35.9772 138.508 36.2051C138.617 36.4238 138.704 36.6745 138.768 36.957C138.84 37.2305 138.895 37.5039 138.932 37.7773C138.977 38.0417 139.005 38.2923 139.014 38.5293C139.032 38.7663 139.041 38.9531 139.041 39.0898ZM142.432 34.7148C142.432 35.207 142.409 35.7038 142.363 36.2051C142.327 36.6973 142.309 37.194 142.309 37.6953C142.309 38.3424 142.327 38.9896 142.363 39.6367C142.409 40.2839 142.432 40.9355 142.432 41.5918C142.432 41.7559 142.423 41.9427 142.404 42.1523C142.386 42.3529 142.34 42.5397 142.268 42.7129C142.204 42.8861 142.104 43.0319 141.967 43.1504C141.83 43.2689 141.648 43.3281 141.42 43.3281C141.201 43.3281 141.01 43.2188 140.846 43C140.691 42.7904 140.559 42.5215 140.449 42.1934C140.349 41.8561 140.262 41.4824 140.189 41.0723C140.126 40.6621 140.076 40.2656 140.039 39.8828C140.012 39.4909 139.989 39.1354 139.971 38.8164C139.962 38.4883 139.957 38.2467 139.957 38.0918C139.957 37.9186 139.962 37.668 139.971 37.3398C139.989 37.0117 140.021 36.6562 140.066 36.2734C140.112 35.8906 140.171 35.5033 140.244 35.1113C140.326 34.7103 140.431 34.3503 140.559 34.0312C140.686 33.7031 140.837 33.4388 141.01 33.2383C141.192 33.0286 141.406 32.9238 141.652 32.9238C141.853 32.9238 142.003 32.9922 142.104 33.1289C142.213 33.2565 142.29 33.416 142.336 33.6074C142.382 33.7897 142.409 33.9857 142.418 34.1953C142.427 34.3958 142.432 34.569 142.432 34.7148ZM145.727 33.457C145.727 33.5846 145.69 33.6986 145.617 33.7988C145.553 33.8991 145.467 33.9902 145.357 34.0723C145.248 34.1452 145.13 34.2044 145.002 34.25C144.874 34.2865 144.756 34.3047 144.646 34.3047C144.464 34.3047 144.305 34.2591 144.168 34.168C144.031 34.0768 143.963 33.9355 143.963 33.7441C143.963 33.6074 143.995 33.4889 144.059 33.3887C144.132 33.2793 144.218 33.1927 144.318 33.1289C144.419 33.056 144.533 33.0013 144.66 32.9648C144.788 32.9284 144.911 32.9102 145.029 32.9102C145.202 32.9102 145.362 32.9512 145.508 33.0332C145.654 33.1152 145.727 33.2565 145.727 33.457ZM145.836 38.1055C145.836 38.2331 145.836 38.3698 145.836 38.5156C145.836 38.6523 145.831 38.7845 145.822 38.9121C145.813 39.0671 145.809 39.2767 145.809 39.541C145.809 39.7962 145.799 40.0742 145.781 40.375C145.763 40.6758 145.731 40.9811 145.686 41.291C145.649 41.6009 145.585 41.8835 145.494 42.1387C145.403 42.3939 145.28 42.6035 145.125 42.7676C144.979 42.9225 144.792 43.0046 144.564 43.0137C144.391 43.0228 144.245 42.9544 144.127 42.8086C144.008 42.6628 143.908 42.4759 143.826 42.248C143.753 42.0111 143.699 41.7513 143.662 41.4688C143.626 41.1771 143.598 40.8991 143.58 40.6348C143.562 40.3613 143.553 40.1107 143.553 39.8828C143.553 39.6549 143.553 39.4863 143.553 39.377C143.553 39.2311 143.553 39.026 143.553 38.7617C143.553 38.4883 143.562 38.1966 143.58 37.8867C143.598 37.5768 143.63 37.2624 143.676 36.9434C143.73 36.6243 143.803 36.3327 143.895 36.0684C143.995 35.804 144.122 35.5898 144.277 35.4258C144.432 35.2617 144.628 35.1797 144.865 35.1797C145.111 35.1797 145.298 35.3027 145.426 35.5488C145.553 35.7949 145.649 36.082 145.713 36.4102C145.777 36.7383 145.813 37.0664 145.822 37.3945C145.831 37.7135 145.836 37.9505 145.836 38.1055ZM150.689 43.3828C150.535 43.3828 150.411 43.3099 150.32 43.1641C150.229 43.0273 150.161 42.8678 150.115 42.6855C150.07 42.5033 150.038 42.321 150.02 42.1387C150.01 41.9473 150.006 41.8014 150.006 41.7012C150.006 41.4277 150.02 41.1543 150.047 40.8809C150.083 40.6074 150.12 40.334 150.156 40.0605C150.202 39.7871 150.238 39.5137 150.266 39.2402C150.302 38.9668 150.32 38.6934 150.32 38.4199C150.32 38.3105 150.316 38.1921 150.307 38.0645C150.298 37.9368 150.275 37.8184 150.238 37.709C150.211 37.5905 150.161 37.4948 150.088 37.4219C150.015 37.349 149.919 37.3125 149.801 37.3125C149.719 37.3125 149.628 37.3809 149.527 37.5176C149.427 37.6452 149.331 37.7956 149.24 37.9688C149.158 38.1328 149.085 38.3014 149.021 38.4746C148.967 38.6387 148.939 38.7617 148.939 38.8438C148.939 39.0443 148.939 39.2493 148.939 39.459C148.949 39.6595 148.953 39.8646 148.953 40.0742V40.8672C148.944 41.0312 148.93 41.1999 148.912 41.373C148.894 41.5462 148.867 41.7148 148.83 41.8789C148.803 42.043 148.762 42.2025 148.707 42.3574C148.652 42.5033 148.579 42.6354 148.488 42.7539C148.406 42.8633 148.306 42.9544 148.188 43.0273C148.069 43.1003 147.928 43.1367 147.764 43.1367C147.581 43.1367 147.431 43.0775 147.312 42.959C147.194 42.8405 147.098 42.6901 147.025 42.5078C146.952 42.3164 146.898 42.1068 146.861 41.8789C146.834 41.6419 146.811 41.4141 146.793 41.1953C146.784 40.9674 146.779 40.7624 146.779 40.5801C146.788 40.3887 146.793 40.2383 146.793 40.1289V39.4863C146.793 39.14 146.784 38.7982 146.766 38.4609C146.757 38.1237 146.752 37.7865 146.752 37.4492C146.752 37.2669 146.752 37.0345 146.752 36.752C146.761 36.4694 146.798 36.196 146.861 35.9316C146.925 35.6582 147.03 35.4258 147.176 35.2344C147.322 35.043 147.536 34.9473 147.818 34.9473C147.946 34.9473 148.06 34.9883 148.16 35.0703C148.26 35.1523 148.347 35.2526 148.42 35.3711C148.502 35.4896 148.566 35.6172 148.611 35.7539C148.666 35.8906 148.707 36.0091 148.734 36.1094C148.826 35.9818 148.93 35.8587 149.049 35.7402C149.176 35.6217 149.318 35.5169 149.473 35.4258C149.628 35.3346 149.801 35.2617 149.992 35.207C150.184 35.1523 150.402 35.125 150.648 35.125C151.113 35.125 151.473 35.2389 151.729 35.4668C151.993 35.6855 152.184 35.9635 152.303 36.3008C152.43 36.6289 152.508 36.9844 152.535 37.3672C152.562 37.75 152.576 38.0964 152.576 38.4062C152.576 38.5612 152.562 38.7936 152.535 39.1035C152.508 39.4043 152.462 39.7415 152.398 40.1152C152.344 40.4798 152.266 40.8581 152.166 41.25C152.066 41.6328 151.947 41.9837 151.811 42.3027C151.674 42.6217 151.51 42.8815 151.318 43.082C151.136 43.2826 150.926 43.3828 150.689 43.3828ZM157.348 35.4805C157.348 35.7448 157.257 35.9408 157.074 36.0684C156.901 36.196 156.705 36.319 156.486 36.4375C156.268 36.5469 156.067 36.679 155.885 36.834C155.712 36.9889 155.625 37.2214 155.625 37.5312C155.625 37.6953 155.661 37.8366 155.734 37.9551C155.816 38.0736 155.912 38.1829 156.021 38.2832C156.14 38.3743 156.268 38.4701 156.404 38.5703C156.541 38.6706 156.664 38.7845 156.773 38.9121C156.892 39.0397 156.988 39.1947 157.061 39.377C157.143 39.5592 157.184 39.7826 157.184 40.0469C157.184 40.4297 157.083 40.8079 156.883 41.1816C156.691 41.5462 156.441 41.8743 156.131 42.166C155.83 42.4486 155.488 42.6764 155.105 42.8496C154.723 43.0228 154.344 43.1094 153.971 43.1094C153.816 43.1094 153.661 43.0957 153.506 43.0684C153.351 43.0501 153.21 43.0091 153.082 42.9453C152.964 42.8815 152.863 42.7949 152.781 42.6855C152.699 42.5671 152.658 42.4167 152.658 42.2344C152.658 41.9792 152.708 41.7832 152.809 41.6465C152.909 41.5007 153.036 41.3867 153.191 41.3047C153.346 41.2227 153.51 41.1589 153.684 41.1133C153.866 41.0677 154.035 41.013 154.189 40.9492C154.344 40.8763 154.472 40.7852 154.572 40.6758C154.673 40.5664 154.723 40.4115 154.723 40.2109C154.723 40.0195 154.645 39.8236 154.49 39.623C154.344 39.4134 154.18 39.1947 153.998 38.9668C153.816 38.7298 153.647 38.4792 153.492 38.2148C153.346 37.9505 153.273 37.6589 153.273 37.3398C153.273 36.9479 153.351 36.5879 153.506 36.2598C153.67 35.9225 153.884 35.6309 154.148 35.3848C154.422 35.1387 154.732 34.9473 155.078 34.8105C155.424 34.6647 155.789 34.5918 156.172 34.5918C156.318 34.5918 156.459 34.6055 156.596 34.6328C156.742 34.6602 156.869 34.7103 156.979 34.7832C157.088 34.847 157.174 34.9382 157.238 35.0566C157.311 35.166 157.348 35.3073 157.348 35.4805ZM160.451 37.2715C160.451 37.4173 160.442 37.6178 160.424 37.873C160.406 38.1191 160.378 38.388 160.342 38.6797C160.305 38.9622 160.251 39.2539 160.178 39.5547C160.114 39.8464 160.036 40.1152 159.945 40.3613C159.854 40.5983 159.745 40.7943 159.617 40.9492C159.49 41.0951 159.344 41.168 159.18 41.168C158.979 41.168 158.806 41.0723 158.66 40.8809C158.523 40.6803 158.405 40.4297 158.305 40.1289C158.214 39.819 158.141 39.4772 158.086 39.1035C158.031 38.7298 157.99 38.3652 157.963 38.0098C157.936 37.6452 157.917 37.3125 157.908 37.0117C157.908 36.7018 157.908 36.4648 157.908 36.3008C157.908 36.1367 157.908 35.9316 157.908 35.6855C157.908 35.4303 157.917 35.1615 157.936 34.8789C157.963 34.5964 157.999 34.3184 158.045 34.0449C158.1 33.7624 158.177 33.5072 158.277 33.2793C158.378 33.0514 158.51 32.8691 158.674 32.7324C158.838 32.5866 159.043 32.5137 159.289 32.5137C159.508 32.5137 159.686 32.6094 159.822 32.8008C159.968 32.9831 160.082 33.2246 160.164 33.5254C160.255 33.8171 160.319 34.1452 160.355 34.5098C160.401 34.8743 160.428 35.2344 160.438 35.5898C160.456 35.9362 160.46 36.2598 160.451 36.5605C160.451 36.8613 160.451 37.0983 160.451 37.2715ZM160.191 42.4668C160.191 42.6217 160.155 42.7585 160.082 42.877C160.009 42.9863 159.913 43.0775 159.795 43.1504C159.676 43.2324 159.549 43.2917 159.412 43.3281C159.275 43.3646 159.139 43.3828 159.002 43.3828C158.801 43.3828 158.61 43.3281 158.428 43.2188C158.245 43.1185 158.154 42.9544 158.154 42.7266C158.154 42.5898 158.191 42.4668 158.264 42.3574C158.346 42.2389 158.446 42.1387 158.564 42.0566C158.683 41.9746 158.811 41.9108 158.947 41.8652C159.093 41.8197 159.23 41.7969 159.357 41.7969C159.567 41.7969 159.758 41.8516 159.932 41.9609C160.105 42.0612 160.191 42.2298 160.191 42.4668Z" fill="white"/>
<defs>
<filter id="filter0_i_880_334" x="0" y="0" width="187" height="119" filterUnits="userSpaceOnUse" color-interpolation-filters="sRGB">
<feFlood flood-opacity="0" result="BackgroundImageFix"/>
<feBlend mode="normal" in="SourceGraphic" in2="BackgroundImageFix" result="shape"/>
<feColorMatrix in="SourceAlpha" type="matrix" values="0 0 0 0 0 0 0 0 0 0 0 0 0 0 0 0 0 0 127 0" result="hardAlpha"/>
<feOffset dy="4"/>
<feGaussianBlur stdDeviation="2"/>
<feComposite in2="hardAlpha" operator="arithmetic" k2="-1" k3="1"/>
<feColorMatrix type="matrix" values="0 0 0 0 0 0 0 0 0 0 0 0 0 0 0 0 0 0 0.25 0"/>
<feBlend mode="normal" in2="shape" result="effect1_innerShadow_880_334"/>
</filter>
</defs>
</svg>
