<svg xmlns="http://www.w3.org/2000/svg" width="276" height="186" fill="none" viewBox="0 0 276 186"><g filter="url(#a)"><path fill="#f4719c" fill-rule="evenodd" d="M39.079 118.413C12.57 106.193.999 88.159.999 68.64 1 44.624 24.338 20.9 62.944 9.168 81.668 3.478 103.668 1 128.946 1c77.392 0 148.763 24.504 145.717 67.64 0 21.404-13.209 41.086-40.111 52.836-14.668 6.407-33.226 10.191-56.443 11.354-9.133 22.392-22.5 33.923-44.429 52.17 16.082-21.268 25.935-34.98 29.5-51.785q-.614.003-1.231.002c-54.855 3.83-96.342-2.575-122.87-14.804" clip-rule="evenodd"/></g><path fill="#f4719c" d="m39.079 118.413-.419.908zM62.943 9.168l-.291-.957zm211.72 59.472-.997-.07-.003.07zm-40.111 52.836.4.916zm-56.443 11.354-.05-.999a1 1 0 0 0-.876.621zM133.68 185l-.798-.603a1.002 1.002 0 0 0 1.438 1.372zm29.5-51.785.978.208a1 1 0 0 0-.981-1.208zm-1.231.002v-1l-.07.003zM.999 68.64H0c0 20.003 11.893 38.342 38.661 50.681l.419-.908.418-.908C13.25 105.405 2 87.675 2 68.64zM62.944 9.168l-.291-.957C23.905 19.985 0 43.948 0 68.641h2C2 45.3 24.769 21.812 63.233 10.124zM128.946 1V0c-25.337 0-47.443 2.483-66.294 8.211l.29.957.291.957C81.833 4.473 103.727 2 128.946 2zm145.717 67.64.998.07c1.571-22.249-16.076-39.43-43.301-50.987C205.062 6.137 167.728 0 128.946 0v2c38.61 0 75.657 6.115 102.632 17.564 27.047 11.48 43.563 28.119 42.088 49.006zm-40.111 52.836.4.916c27.183-11.873 40.711-31.867 40.711-53.752h-2c0 20.923-12.891 40.292-39.511 51.92zm-56.443 11.354.05.999c23.291-1.167 41.978-4.966 56.793-11.437l-.4-.916-.4-.916c-14.522 6.342-32.95 10.112-56.093 11.271zm0 0-.926-.378c-9.028 22.136-22.206 33.526-44.143 51.779l.64.769.64.769c21.921-18.241 35.477-29.912 44.715-52.561zM133.68 185l.798.603c16.054-21.231 26.061-35.12 29.68-52.18l-.978-.208-.978-.207c-3.511 16.548-13.21 30.084-29.32 51.389zm28.269-51.783v1q.619 0 1.234-.002l-.003-1-.003-1q-.613.003-1.228.002zm-122.87-14.804-.419.908c26.74 12.327 68.416 18.73 123.358 14.894l-.069-.998-.07-.997c-54.767 3.824-96.065-2.584-122.382-14.715z"/><path fill="#fff" d="M55.874 38.022q0 .843-.375 1.656a5.3 5.3 0 0 1-.969 1.469 5.5 5.5 0 0 1-1.39 1.062 3.9 3.9 0 0 1-1.61.453q-.015.282-.031.719 0 .422-.047.89a10 10 0 0 1-.14.938 3.3 3.3 0 0 1-.25.844q-.157.375-.422.61a.88.88 0 0 1-.625.234.9.9 0 0 1-.703-.297 2 2 0 0 1-.391-.688 4.5 4.5 0 0 1-.172-.844 15 15 0 0 1-.062-.765q-.032-.454-.047-.89v-2.907l.03-1.484q.017-.781.048-1.438.03-.672.062-1.14.047-.47.11-.547a1 1 0 0 1 .093-.063 1 1 0 0 1 .172-.11 4 4 0 0 1 .282-.171 9.5 9.5 0 0 1 1.578-.703 5.2 5.2 0 0 1 1.703-.297q.718 0 1.297.297.593.28 1 .765.42.469.64 1.11.219.624.219 1.297m-2.703.359a.96.96 0 0 0-.156-.547q-.141-.234-.485-.234a1.5 1.5 0 0 0-.593.125 5 5 0 0 0-.547.234q.046.547.078 1.063.046.515.015 1.062.251-.125.547-.281.297-.173.547-.375a2.2 2.2 0 0 0 .422-.453 1.07 1.07 0 0 0 .172-.594m6.047 8.469q-.798 0-1.39-.422a3.7 3.7 0 0 1-1-1.078 5.2 5.2 0 0 1-.61-1.453 6.6 6.6 0 0 1-.203-1.594q0-.828.203-1.703a5.6 5.6 0 0 1 .625-1.61q.421-.734 1.078-1.187.656-.47 1.562-.469.876 0 1.485.484.624.47 1 1.188.375.703.531 1.547.155.843.11 1.594a8.6 8.6 0 0 1-.266 1.671 5.3 5.3 0 0 1-.61 1.516q-.406.672-1.03 1.094-.626.422-1.485.422m.156-7.063q-.234 0-.422.25-.171.25-.297.61-.11.36-.172.765-.062.39-.062.688 0 .374.062.812.079.438.204.813.125.36.296.609.188.234.422.234.25 0 .422-.234.188-.234.297-.594.11-.36.156-.781.047-.437.047-.812 0-.345-.062-.75a4.3 4.3 0 0 0-.188-.782 1.8 1.8 0 0 0-.297-.593q-.172-.235-.406-.235m10.766-3.672q0 1.14-.094 2.266-.078 1.125-.078 2.266 0 .92.047 1.828.062.906.062 1.828 0 .25-.016.61a3 3 0 0 1-.109.671 1.3 1.3 0 0 1-.281.563q-.187.234-.547.234-.468 0-.781-.344a1.7 1.7 0 0 1-.375-.797 2.7 2.7 0 0 1-.86.953q-.562.39-1.218.391a1.72 1.72 0 0 1-1.22-.484 4.3 4.3 0 0 1-.843-1.172 7 7 0 0 1-.5-1.438 6.5 6.5 0 0 1-.156-1.297 9.6 9.6 0 0 1 .203-1.906q.125-.516.313-1 .187-.5.468-.89.297-.391.688-.625a1.8 1.8 0 0 1 .922-.235q.562 0 1.078.328.515.329.781.813l.14-2.485q.017-.297.047-.687.032-.406.125-.766.11-.36.329-.61.218-.25.64-.25.454 0 .703.22.25.218.36.562.125.328.14.719.032.39.032.734m-2.547 6.938q0-.36-.016-.703-.015-.345 0-.703a9 9 0 0 0-.219-.438 2 2 0 0 0-.312-.453 1.6 1.6 0 0 0-.39-.36.85.85 0 0 0-.47-.14.6.6 0 0 0-.453.172 1 1 0 0 0-.25.422 2.5 2.5 0 0 0-.109.515q-.016.282-.016.485 0 .187.032.562.03.36.109.735.094.374.25.656.156.28.422.281.202 0 .406-.078.203-.095.375-.219.188-.141.344-.297a7 7 0 0 0 .297-.312zm10.125.562q0 .531-.344 1.047-.328.5-.844.906-.5.39-1.078.641-.578.234-1.062.234a2.76 2.76 0 0 1-1.485-.406 3.9 3.9 0 0 1-1.078-1.062 5.2 5.2 0 0 1-.672-1.407 5.6 5.6 0 0 1-.219-1.515q0-.781.22-1.672.218-.89.655-1.64a4.3 4.3 0 0 1 1.125-1.25q.688-.5 1.625-.5.532 0 1.016.187A2.45 2.45 0 0 1 77 38.459q.219.453.219 1.016 0 .734-.313 1.375a3.6 3.6 0 0 1-.828 1.109q-.516.47-1.187.766a4 4 0 0 1-1.375.312q.062.453.359.656.312.204.734.204.313 0 .61-.157.296-.156.578-.343.281-.204.547-.36.281-.156.562-.156a.87.87 0 0 1 .563.203q.25.203.25.531m-2.532-3.828a.94.94 0 0 0-.109-.422.36.36 0 0 0-.344-.218.9.9 0 0 0-.578.187 1.4 1.4 0 0 0-.39.453q-.157.266-.25.578a3 3 0 0 0-.094.578q.22-.046.515-.125.313-.078.579-.203.28-.14.468-.343a.66.66 0 0 0 .203-.485m11.5-1.984q0 .453-.312.672a6 6 0 0 1-.672.422q-.375.188-.687.453-.297.265-.297.797 0 .28.125.484.14.203.328.375.203.156.437.328.235.172.422.39.204.22.328.532.141.312.141.766 0 .656-.344 1.296a4.3 4.3 0 0 1-.86 1.125 4.3 4.3 0 0 1-1.171.782q-.656.296-1.297.297-.266 0-.531-.047a1.5 1.5 0 0 1-.485-.141 1.04 1.04 0 0 1-.343-.297.9.9 0 0 1-.14-.515q0-.438.171-.672.172-.25.438-.391.265-.141.562-.219.312-.078.578-.187.266-.126.438-.313t.171-.531q0-.329-.265-.672-.25-.36-.563-.75a8 8 0 0 1-.578-.86 2.04 2.04 0 0 1-.25-1q0-.671.266-1.234.28-.577.734-1a3.5 3.5 0 0 1 1.063-.656q.594-.25 1.25-.25.25 0 .484.047.25.046.438.172a.8.8 0 0 1 .296.312.86.86 0 0 1 .125.485m7.172 5.812q0 .531-.343 1.047-.329.5-.844.906-.5.39-1.078.641-.579.234-1.063.234a2.76 2.76 0 0 1-1.484-.406 3.9 3.9 0 0 1-1.078-1.062 5.2 5.2 0 0 1-.672-1.407 5.6 5.6 0 0 1-.219-1.515q0-.781.219-1.672.218-.89.656-1.64a4.3 4.3 0 0 1 1.125-1.25q.688-.5 1.625-.5.531 0 1.016.187a2.45 2.45 0 0 1 1.422 1.281q.218.453.218 1.016 0 .734-.312 1.375a3.6 3.6 0 0 1-.828 1.109q-.516.47-1.188.766a4 4 0 0 1-1.375.312q.063.453.36.656.312.204.734.204.313 0 .61-.157.296-.156.578-.343.281-.204.546-.36.281-.156.563-.156a.87.87 0 0 1 .562.203q.25.203.25.531m-2.53-3.828a.94.94 0 0 0-.11-.422.36.36 0 0 0-.344-.218.9.9 0 0 0-.578.187 1.4 1.4 0 0 0-.39.453 2.6 2.6 0 0 0-.25.578 3 3 0 0 0-.095.578q.219-.046.516-.125.313-.078.578-.203.282-.14.469-.343a.66.66 0 0 0 .203-.485m8.577.766q-.218.015-.375-.031l-.312-.125a3 3 0 0 0-.282-.11.6.6 0 0 0-.312-.047q-.312.015-.562.172a2.2 2.2 0 0 0-.438.39 2.7 2.7 0 0 0-.328.532 3 3 0 0 0-.219.563 4 4 0 0 0-.078.578q-.016.375-.016.812-.015.453-.015.86t-.032.64q-.015.25-.078.594-.062.328-.203.625a1.4 1.4 0 0 1-.344.5.8.8 0 0 1-.562.203.75.75 0 0 1-.469-.156 1.4 1.4 0 0 1-.328-.406 4 4 0 0 1-.219-.61 8 8 0 0 1-.125-.703q-.046-.375-.078-.75-.015-.375-.031-.703v-.625q.016-.282.016-.453a19 19 0 0 0-.063-1.094q-.03-.562-.031-1.11 0-.343.031-.765t.172-.781q.142-.376.406-.625.282-.25.766-.25.266 0 .453.172.188.171.297.422a2.3 2.3 0 0 1 .187.53q.063.282.078.516.375-.609.844-.984.47-.39 1.219-.422.375-.015.734.078.375.078.672.282.313.187.5.5.204.312.219.734.031.5-.297.766-.328.265-.797.28m12.36-1.422-.25 2.266q-.126 1.125-.172 2.25a34 34 0 0 0-.063 2.453q.016 1.155.016 2.453 0 .312-.016.765 0 .453-.109.875-.11.422-.359.72-.235.296-.719.296a.62.62 0 0 1-.406-.14 1.4 1.4 0 0 1-.282-.376 3 3 0 0 1-.187-.5 10 10 0 0 1-.11-.578 12 12 0 0 1-.093-1.218v-2.969q-.36.468-.938.719-.562.234-1.125.234-.703 0-1.219-.328a3 3 0 0 1-.828-.86 4 4 0 0 1-.484-1.156 5 5 0 0 1-.156-1.219v-.093a6.8 6.8 0 0 1 .25-1.75 6.8 6.8 0 0 1 .734-1.766q.5-.813 1.234-1.344a2.87 2.87 0 0 1 1.735-.547q.531 0 .969.22.453.218.64.718.125-.36.375-.578a.98.98 0 0 1 .672-.235q.516 0 .719.344.219.328.219.735 0 .171-.016.312t-.031.297m-3.594.375q-.36 0-.672.297a2.7 2.7 0 0 0-.547.703q-.234.405-.375.875a3.3 3.3 0 0 0-.125.828q0 .219.031.469.047.25.125.484.094.218.235.375a.56.56 0 0 0 .39.14q.204 0 .469-.093.282-.11.547-.266.265-.172.469-.375t.281-.39q.047-.11.078-.328.032-.219.047-.453a9 9 0 0 0 .063-.844q0-.188-.094-.422a2 2 0 0 0-.219-.469 1.3 1.3 0 0 0-.328-.375.6.6 0 0 0-.375-.156m11.187 2.422q0 .859-.171 1.703a4.7 4.7 0 0 1-.579 1.516q-.406.655-1.093 1.062-.672.405-1.688.406-1 0-1.672-.39a3.2 3.2 0 0 1-1.078-1.063 4.8 4.8 0 0 1-.562-1.484 9 9 0 0 1-.157-1.688q0-.937.219-1.86.047-.249.172-.687.14-.453.344-.875.219-.436.484-.75.282-.312.61-.312.312 0 .5.172.187.171.296.437.11.251.141.547.031.282.031.516 0 .36-.062.703a15 15 0 0 1-.11.687l-.125.938a9.5 9.5 0 0 0-.031 1.469q.032.281.125.547.094.266.266.453.171.171.484.172.407 0 .641-.22.25-.218.359-.546.125-.328.156-.703.032-.375.032-.688 0-.687-.094-1.343-.094-.672-.172-1.36a1.45 1.45 0 0 1 .063-.687 1.5 1.5 0 0 1 .218-.422q.141-.187.344-.297a.84.84 0 0 1 .453-.125q.343 0 .61.25.265.234.437.625.188.374.297.86.125.468.187.937.079.453.094.86.031.406.031.64m7.5 1.687q0 .531-.343 1.047-.328.5-.844.906-.5.39-1.078.641-.579.234-1.063.234a2.76 2.76 0 0 1-1.484-.406 3.9 3.9 0 0 1-1.078-1.062 5.1 5.1 0 0 1-.672-1.407 5.6 5.6 0 0 1-.219-1.515q0-.781.219-1.672t.656-1.64q.453-.75 1.125-1.25.687-.5 1.625-.5.531 0 1.016.187a2.46 2.46 0 0 1 1.422 1.281q.218.453.218 1.016 0 .734-.312 1.375a3.6 3.6 0 0 1-.828 1.109 4.4 4.4 0 0 1-1.188.766 4 4 0 0 1-1.375.312q.063.453.36.656.312.204.734.204.312 0 .609-.157.297-.156.579-.343.28-.204.546-.36a1.15 1.15 0 0 1 .563-.156q.313 0 .562.203a.65.65 0 0 1 .25.531m-2.531-3.828a.94.94 0 0 0-.109-.422.36.36 0 0 0-.344-.218.9.9 0 0 0-.578.187 1.4 1.4 0 0 0-.391.453q-.156.266-.25.578a3 3 0 0 0-.093.578q.218-.046.515-.125.312-.078.578-.203.282-.14.469-.343a.66.66 0 0 0 .203-.485m9.891 7.063q-.797 0-1.391-.422a3.7 3.7 0 0 1-1-1.078 5.2 5.2 0 0 1-.609-1.453 6.5 6.5 0 0 1-.203-1.594q0-.828.203-1.703.203-.89.625-1.61.421-.734 1.078-1.187.656-.47 1.562-.469.876 0 1.485.484.625.47 1 1.188.375.703.531 1.547a6.5 6.5 0 0 1 .109 1.594 8.6 8.6 0 0 1-.265 1.671 5.3 5.3 0 0 1-.61 1.516q-.405.672-1.031 1.094t-1.484.422m.156-7.063q-.234 0-.422.25-.171.25-.297.61-.11.36-.172.765-.062.39-.062.688 0 .374.062.812.078.438.204.813.125.36.296.609.188.234.422.234.25 0 .422-.234.188-.234.297-.594.11-.36.156-.781.048-.437.047-.812 0-.345-.062-.75a4.3 4.3 0 0 0-.188-.782 1.8 1.8 0 0 0-.297-.593q-.172-.235-.406-.235m14.438 4.406q0 .282-.032.735-.015.453-.125.89a2.1 2.1 0 0 1-.343.735q-.235.312-.657.312-.578 0-.89-.375t-.297-.937q-.5.436-1.141.687-.625.25-1.281.25-.454 0-.859-.218a2.7 2.7 0 0 1-.719-.563 2.8 2.8 0 0 1-.5-.766 2.2 2.2 0 0 1-.188-.859q0-.75.453-1.312a4.3 4.3 0 0 1 1.141-.954q.672-.406 1.422-.64a8.5 8.5 0 0 1 1.359-.313v-.14a.6.6 0 0 0 .016-.141q0-.484-.266-.781t-.75-.297q-.39 0-.672.14a3.3 3.3 0 0 0-.531.297q-.25.157-.5.297a1.24 1.24 0 0 1-.562.125.87.87 0 0 1-.594-.218.74.74 0 0 1-.234-.563q0-.516.296-.937.313-.422.766-.704a4 4 0 0 1 1-.453 3.4 3.4 0 0 1 1-.172q.422 0 .844.11.422.093.797.312.375.203.672.516.312.297.5.703.28.578.453 1.234.172.64.265 1.329.094.67.125 1.359.032.672.032 1.312m-2.5-.5-.047-1.062h-.063a.14.14 0 0 0-.062-.016q-.204 0-.516.11a2.3 2.3 0 0 0-.578.28 2.3 2.3 0 0 0-.484.392.7.7 0 0 0-.188.453q0 .218.156.297a.8.8 0 0 0 .36.078q.344 0 .734-.172.39-.187.688-.36m8.296 5q0 .454-.218.844-.22.39-.563.688a2.7 2.7 0 0 1-.781.468 2.3 2.3 0 0 1-.859.172q-.313 0-.641-.062a2 2 0 0 1-.594-.188 2 2 0 0 1-.484-.36 1.4 1.4 0 0 1-.328-.546.44.44 0 0 1-.047-.203.55.55 0 0 1 .187-.422.65.65 0 0 1 .422-.172q.204 0 .328.11l.297.265q.156.14.375.25.219.125.594.125a1 1 0 0 0 .594-.203.64.64 0 0 0 .281-.547.5.5 0 0 0-.172-.39 1.8 1.8 0 0 0-.375-.282l-.437-.25a.86.86 0 0 1-.329-.265q-.125-.173-.125-.5v-.75a2.2 2.2 0 0 1-1.078-.563 3.5 3.5 0 0 1-.703-1.015 5.3 5.3 0 0 1-.39-1.235 6.6 6.6 0 0 1-.125-1.25 7 7 0 0 1 .093-1.094q.095-.578.282-1.14a6 6 0 0 1 .484-1.078 4.3 4.3 0 0 1 .687-.907q.406-.39.907-.625a2.7 2.7 0 0 1 1.14-.234q.562 0 .985.25.421.25.687.656.281.406.422.907.141.5.141 1 0 .125-.016.296a.9.9 0 0 1-.047.297 1.4 1.4 0 0 1-.406.547 1.02 1.02 0 0 1-.641.219q-.531 0-.734-.531a1.2 1.2 0 0 1-.047-.36q.015-.234-.016-.437a.8.8 0 0 0-.109-.375q-.094-.156-.328-.156-.282 0-.531.343a3.4 3.4 0 0 0-.438.797q-.187.469-.297.953a3.5 3.5 0 0 0-.109.75q0 .204.031.547.047.329.141.656.109.33.281.563a.58.58 0 0 0 .469.234.85.85 0 0 0 .515-.172 5 5 0 0 0 .454-.375q.218-.218.437-.39a.77.77 0 0 1 .484-.172q.328 0 .532.25.218.25.218.578 0 .405-.187.781-.188.36-.484.657-.298.296-.688.515a2.8 2.8 0 0 1-.766.313v.093a2 2 0 0 1-.015.204.4.4 0 0 1-.047.203q.25.093.547.25.297.171.547.39.25.235.422.5a1.1 1.1 0 0 1 .171.578m8.375-6.765q0 .859-.172 1.703a4.7 4.7 0 0 1-.578 1.516q-.406.655-1.093 1.062-.672.405-1.688.406-1 0-1.672-.39a3.2 3.2 0 0 1-1.078-1.063 4.8 4.8 0 0 1-.562-1.484 9 9 0 0 1-.157-1.688q0-.937.219-1.86.047-.249.172-.687.14-.453.344-.875.219-.436.484-.75.282-.312.609-.312.313 0 .5.172t.297.437q.11.251.141.547.031.282.031.516 0 .36-.062.703-.048.343-.11.687l-.125.938a9.5 9.5 0 0 0-.031 1.469q.032.281.125.547.094.266.266.453.172.171.484.172.406 0 .641-.22.25-.218.359-.546.125-.328.156-.703.032-.375.032-.688 0-.687-.094-1.343-.094-.672-.172-1.36a1.5 1.5 0 0 1 .062-.687q.079-.235.219-.422t.344-.297a.84.84 0 0 1 .453-.125q.343 0 .609.25.266.234.438.625.187.374.297.86.125.468.187.937.079.453.094.86.031.406.031.64m-1.468-7.047q0 .171-.094.344a1.6 1.6 0 0 1-.235.297 2.3 2.3 0 0 1-.281.265q-.156.109-.281.203a8 8 0 0 0-.25.188 3 3 0 0 1-.281.187 3 3 0 0 1-.297.14.7.7 0 0 1-.281.063.4.4 0 0 1-.219-.062.27.27 0 0 1-.094-.219q0-.235.172-.562.188-.344.453-.657.266-.327.563-.546.297-.235.546-.235.22 0 .391.188.188.172.188.406m8.218 5.516q0 .078-.015.171a1 1 0 0 1-.047.157q-.141.36-.438.609a1.1 1.1 0 0 1-.703.234q-.609 0-.828-.609a.5.5 0 0 1-.031-.172q0-.11-.016-.219v-.453a.9.9 0 0 0-.109-.343q-.078-.126-.266-.125-.266 0-.515.343a3.8 3.8 0 0 0-.422.797 7 7 0 0 0-.282.938 3.8 3.8 0 0 0-.109.78q0 .236.031.579.032.328.125.64.094.313.25.548a.54.54 0 0 0 .438.218.8.8 0 0 0 .484-.156q.235-.172.453-.39.204-.189.438-.391a.87.87 0 0 1 .562-.203q.391 0 .61.28a.97.97 0 0 1 .234.642q0 .53-.281 1a3.2 3.2 0 0 1-.703.796q-.423.33-.938.516a2.7 2.7 0 0 1-.984.203q-.844 0-1.438-.422a3.3 3.3 0 0 1-.937-1.062 5 5 0 0 1-.516-1.422 7.3 7.3 0 0 1-.156-1.453q0-.796.219-1.719.219-.937.672-1.734a4.3 4.3 0 0 1 1.156-1.328q.719-.532 1.703-.532.609 0 1.047.266.453.265.734.703.297.422.438.953.156.531.156 1.047v.156a1 1 0 0 1-.016.157m7.516 3.796q0 .282-.031.735a4.3 4.3 0 0 1-.125.89 2.1 2.1 0 0 1-.344.735q-.234.312-.656.312-.579 0-.891-.375t-.297-.937q-.5.436-1.14.687-.625.25-1.282.25-.453 0-.859-.218a2.7 2.7 0 0 1-.719-.563 2.9 2.9 0 0 1-.5-.766 2.2 2.2 0 0 1-.187-.859q0-.75.453-1.312a4.3 4.3 0 0 1 1.14-.954q.672-.406 1.422-.64.766-.234 1.36-.313v-.14a.6.6 0 0 0 .015-.141q0-.484-.265-.781t-.75-.297q-.391 0-.672.14a3.3 3.3 0 0 0-.531.297q-.25.157-.5.297a1.24 1.24 0 0 1-.563.125.87.87 0 0 1-.594-.218.74.74 0 0 1-.234-.563q0-.516.297-.937.312-.422.765-.704a4 4 0 0 1 1-.453 3.4 3.4 0 0 1 1-.172q.423 0 .844.11.422.093.797.312.375.203.672.516.312.297.5.703.281.578.453 1.234.172.64.266 1.329.093.67.125 1.359.031.672.031 1.312m-2.5-.5-.047-1.062h-.062a.14.14 0 0 0-.063-.016q-.202 0-.516.11a2.3 2.3 0 0 0-.578.28 2.3 2.3 0 0 0-.484.392.7.7 0 0 0-.188.453q0 .218.157.297a.8.8 0 0 0 .359.078q.344 0 .734-.172.391-.187.688-.36m8.859-3.14q-.218.015-.375-.031l-.312-.125a3 3 0 0 0-.281-.11.6.6 0 0 0-.313-.047q-.312.015-.562.172a2.2 2.2 0 0 0-.438.39 2.7 2.7 0 0 0-.328.532 3 3 0 0 0-.219.563 4 4 0 0 0-.078.578q-.016.375-.016.812-.015.453-.015.86t-.031.64a5 5 0 0 1-.079.594 2.6 2.6 0 0 1-.203.625 1.4 1.4 0 0 1-.343.5.8.8 0 0 1-.563.203.75.75 0 0 1-.469-.156 1.4 1.4 0 0 1-.328-.406 4 4 0 0 1-.219-.61 8 8 0 0 1-.125-.703q-.047-.375-.078-.75-.015-.375-.031-.703v-.625q.016-.282.016-.453-.016-.548-.063-1.094a20 20 0 0 1-.031-1.11q0-.343.031-.765t.172-.781a1.6 1.6 0 0 1 .406-.625q.282-.25.766-.25.266 0 .453.172.188.171.297.422.125.25.187.53.063.282.079.516.375-.609.843-.984.47-.39 1.219-.422.375-.015.734.078.375.078.672.282.313.187.5.5.204.312.219.734.031.5-.297.766-.328.265-.797.28m9.532 6.281q-.266 0-.422-.25a1.7 1.7 0 0 1-.235-.547 4.4 4.4 0 0 1-.109-.625 12 12 0 0 1-.016-.5q0-.468.047-.937l.125-.938q.078-.468.125-.937a7 7 0 0 0 .063-.938q0-.187-.016-.406a1.6 1.6 0 0 0-.078-.406.66.66 0 0 0-.172-.328.44.44 0 0 0-.328-.125q-.14 0-.313.234a3.5 3.5 0 0 0-.328.516q-.14.28-.25.578a1.5 1.5 0 0 0-.093.422v.703q.015.343.015.703v.906q-.015.282-.047.578a5 5 0 0 1-.093.578q-.048.282-.141.547a1.8 1.8 0 0 1-.25.453 1.2 1.2 0 0 1-.344.313.9.9 0 0 1-.484.125.7.7 0 0 1-.516-.203 1.5 1.5 0 0 1-.328-.516 3.6 3.6 0 0 1-.187-.719q-.048-.406-.079-.781-.015-.39-.015-.703.015-.328.015-.516v-.734q0-.594-.031-1.172-.015-.577-.015-1.156v-.797q.015-.485.125-.938a2.1 2.1 0 0 1 .359-.796q.25-.33.734-.329.219 0 .391.141t.297.344q.141.203.219.437.093.235.14.407.156-.22.36-.422.218-.204.484-.36a2.54 2.54 0 0 1 1.344-.343q.796 0 1.234.39.453.375.656.953.22.563.266 1.219t.047 1.188q0 .265-.047.796-.046.516-.156 1.157a13 13 0 0 1-.266 1.297 8.5 8.5 0 0 1-.406 1.203 3 3 0 0 1-.563.89q-.312.344-.718.344m6 .016q-.798 0-1.391-.422a3.7 3.7 0 0 1-1-1.078 5.2 5.2 0 0 1-.609-1.453 6.5 6.5 0 0 1-.204-1.594q0-.828.204-1.703.202-.89.625-1.61.421-.734 1.078-1.187.656-.47 1.562-.469.875 0 1.485.484.624.47 1 1.188.375.703.531 1.547a6.5 6.5 0 0 1 .109 1.594 8.6 8.6 0 0 1-.265 1.671 5.3 5.3 0 0 1-.61 1.516 3.5 3.5 0 0 1-1.031 1.094q-.625.422-1.484.422m.156-7.063q-.234 0-.422.25-.173.25-.297.61-.11.36-.172.765-.062.39-.062.688 0 .374.062.812.078.438.203.813.126.36.297.609.188.234.422.234.25 0 .422-.234.187-.234.297-.594t.156-.781a8 8 0 0 0 .047-.812q0-.345-.063-.75a4.3 4.3 0 0 0-.187-.782 1.8 1.8 0 0 0-.297-.593q-.171-.235-.406-.235m12.375-1.984q0 .453-.313.672a6 6 0 0 1-.672.422q-.375.188-.687.453-.297.265-.297.797a.9.9 0 0 0 .125.484q.14.203.328.375.203.156.438.328t.422.39q.202.22.328.532.14.312.14.766 0 .656-.343 1.296a4.3 4.3 0 0 1-.86 1.125 4.3 4.3 0 0 1-1.172.782 3.1 3.1 0 0 1-1.297.297q-.266 0-.531-.047a1.5 1.5 0 0 1-.484-.141 1.04 1.04 0 0 1-.344-.297.9.9 0 0 1-.141-.515q0-.438.172-.672.173-.25.438-.391t.562-.219q.313-.078.578-.187a1.4 1.4 0 0 0 .438-.313q.172-.187.172-.531 0-.329-.266-.672a14 14 0 0 0-.562-.75 8 8 0 0 1-.578-.86 2.03 2.03 0 0 1-.25-1q0-.671.265-1.234a3.4 3.4 0 0 1 .735-1 3.5 3.5 0 0 1 1.062-.656 3.2 3.2 0 0 1 1.25-.25q.25 0 .484.047.25.046.438.172a.8.8 0 0 1 .297.312.86.86 0 0 1 .125.485m7.172 5.812q0 .531-.344 1.047-.328.5-.844.906a5 5 0 0 1-1.078.641q-.577.234-1.062.234a2.77 2.77 0 0 1-1.485-.406 3.9 3.9 0 0 1-1.078-1.062 5.1 5.1 0 0 1-.672-1.407 5.6 5.6 0 0 1-.219-1.515q0-.781.219-1.672.22-.89.656-1.64.454-.75 1.125-1.25.688-.5 1.625-.5.532 0 1.016.187a2.46 2.46 0 0 1 1.422 1.281q.219.453.219 1.016 0 .734-.313 1.375a3.6 3.6 0 0 1-.828 1.109 4.4 4.4 0 0 1-1.187.766 4 4 0 0 1-1.375.312q.062.453.359.656.312.204.734.204.313 0 .61-.157.297-.156.578-.343.281-.204.547-.36.281-.156.562-.156a.87.87 0 0 1 .563.203q.25.203.25.531m-2.532-3.828a.94.94 0 0 0-.109-.422.36.36 0 0 0-.344-.218.9.9 0 0 0-.578.187 1.4 1.4 0 0 0-.39.453 2.6 2.6 0 0 0-.25.578 3 3 0 0 0-.094.578q.22-.046.515-.125.314-.078.579-.203a1.6 1.6 0 0 0 .468-.343.66.66 0 0 0 .203-.485m10 2.14q0 .86-.171 1.704a4.7 4.7 0 0 1-.579 1.516q-.405.655-1.093 1.062-.672.405-1.688.406-1 0-1.672-.39a3.2 3.2 0 0 1-1.078-1.063 4.8 4.8 0 0 1-.562-1.484 9 9 0 0 1-.157-1.688q0-.937.219-1.86.047-.249.172-.687.14-.453.344-.875.219-.436.484-.75.282-.312.61-.312.312 0 .5.172t.296.437q.11.251.141.547.031.282.031.516 0 .36-.062.703a15 15 0 0 1-.11.687l-.125.938a9.5 9.5 0 0 0-.031 1.469q.032.281.125.547.094.266.266.453.172.171.484.172.407 0 .641-.22.25-.218.359-.546a2.5 2.5 0 0 0 .156-.703q.032-.375.032-.688 0-.687-.094-1.343-.094-.672-.172-1.36a1.5 1.5 0 0 1 .063-.687 1.5 1.5 0 0 1 .218-.422q.141-.187.344-.297a.85.85 0 0 1 .453-.125q.344 0 .61.25.266.234.437.625.188.374.297.86.125.468.187.937.08.453.094.86.031.406.031.64M36.413 58.804q0 .453-.312.672a6 6 0 0 1-.672.422q-.375.188-.688.453-.297.265-.297.797 0 .28.125.484.14.203.328.375.204.156.438.328t.422.39q.203.22.328.532.14.312.14.766 0 .656-.343 1.296a4.3 4.3 0 0 1-.86 1.125 4.3 4.3 0 0 1-1.171.782q-.657.297-1.297.297-.266 0-.532-.047a1.5 1.5 0 0 1-.484-.141 1.04 1.04 0 0 1-.344-.297.9.9 0 0 1-.14-.516q0-.437.172-.671a1.2 1.2 0 0 1 .437-.391q.266-.141.563-.219.311-.078.578-.187.266-.126.437-.313.172-.188.172-.531 0-.329-.266-.672-.25-.36-.562-.75a8 8 0 0 1-.578-.86 2.04 2.04 0 0 1-.25-1q0-.671.265-1.234.282-.577.735-1 .468-.421 1.062-.656.594-.25 1.25-.25.25 0 .485.047.25.046.437.172a.8.8 0 0 1 .297.312.86.86 0 0 1 .125.485m7.266 6.39q0 .282-.032.735-.015.453-.125.89a2.1 2.1 0 0 1-.343.735q-.235.312-.657.312-.578 0-.89-.375t-.297-.937a3.8 3.8 0 0 1-1.14.687 3.4 3.4 0 0 1-1.282.25q-.453 0-.86-.218a2.7 2.7 0 0 1-.718-.563 2.9 2.9 0 0 1-.5-.766 2.2 2.2 0 0 1-.188-.859q0-.75.454-1.312a4.3 4.3 0 0 1 1.14-.954q.672-.406 1.422-.64.765-.234 1.36-.313v-.14a.6.6 0 0 0 .015-.141q0-.484-.266-.781-.265-.297-.75-.297-.39 0-.671.14a3.3 3.3 0 0 0-.532.297q-.25.157-.5.297a1.24 1.24 0 0 1-.562.125.87.87 0 0 1-.594-.218.74.74 0 0 1-.234-.563q0-.516.297-.937.312-.422.765-.704a4 4 0 0 1 1-.453 3.4 3.4 0 0 1 1-.172q.422 0 .844.11.422.093.797.312.375.203.672.516.312.297.5.703.28.578.453 1.234.171.64.265 1.329.095.67.125 1.359.032.672.032 1.312m-2.5-.5-.047-1.062h-.063a.14.14 0 0 0-.062-.016q-.203 0-.516.11-.297.093-.578.28a2.3 2.3 0 0 0-.484.392.7.7 0 0 0-.188.453q0 .218.156.297a.8.8 0 0 0 .36.078q.344 0 .734-.172.39-.188.688-.36m7.875 3.141q-.266 0-.422-.25a1.7 1.7 0 0 1-.235-.547 4.4 4.4 0 0 1-.109-.625 11 11 0 0 1-.016-.5q0-.469.047-.937l.125-.938q.078-.469.125-.937a7 7 0 0 0 .063-.938q0-.187-.016-.406a1.7 1.7 0 0 0-.078-.406.66.66 0 0 0-.172-.328.44.44 0 0 0-.328-.125q-.141 0-.312.234a3.4 3.4 0 0 0-.329.516q-.14.28-.25.578a1.5 1.5 0 0 0-.093.422v.703q.015.343.015.703v.906q-.015.281-.047.578-.03.296-.093.578-.047.282-.14.547a1.7 1.7 0 0 1-.25.453q-.143.188-.345.313a.9.9 0 0 1-.484.125.7.7 0 0 1-.516-.203 1.5 1.5 0 0 1-.328-.516 3.6 3.6 0 0 1-.187-.719q-.048-.406-.078-.781a18 18 0 0 1-.016-.703q.015-.328.016-.516v-.734q0-.594-.032-1.172-.015-.577-.015-1.156v-.797q.015-.485.125-.938.109-.468.36-.796.249-.33.733-.329a.6.6 0 0 1 .391.141q.173.14.297.344.141.203.219.437.094.235.14.407.156-.22.36-.422.218-.204.484-.36a2.55 2.55 0 0 1 1.344-.343q.797 0 1.234.39.453.375.656.953.22.563.266 1.219t.047 1.188q0 .265-.047.796-.047.516-.156 1.157-.094.624-.266 1.297-.172.655-.406 1.203a3 3 0 0 1-.563.89q-.312.344-.718.344m10.11-5.766q0 .798-.032 1.594-.016.797-.078 1.594-.047.687-.125 1.469a13 13 0 0 1-.25 1.547 9.5 9.5 0 0 1-.453 1.484q-.282.718-.75 1.266a3.4 3.4 0 0 1-1.11.874q-.656.33-1.562.329-.423 0-.953-.141a4.2 4.2 0 0 1-.985-.375 2.9 2.9 0 0 1-.781-.625 1.25 1.25 0 0 1-.313-.844q0-.36.25-.672a.86.86 0 0 1 .672-.296q.25 0 .47.078.233.093.452.203.234.11.438.187.218.094.437.094.579 0 .969-.297.39-.28.625-.734.233-.438.344-.969.124-.516.172-.984-.314.36-.735.5-.405.125-.86.125-.827 0-1.405-.282a2.6 2.6 0 0 1-.938-.796 3.6 3.6 0 0 1-.531-1.188 6 6 0 0 1-.172-1.453q0-.485.094-1.094.11-.61.312-1.234.203-.625.5-1.219.313-.594.719-1.047t.906-.734a2.3 2.3 0 0 1 1.125-.281q.594 0 1.047.343.47.344.547.969a3 3 0 0 1 .453-.64.87.87 0 0 1 .688-.329q.218 0 .359.219.156.218.234.578.095.345.14.766.048.405.063.812.015.39.016.719zm-2.376 1.016q0-.234-.078-.61-.063-.375-.203-.718a2 2 0 0 0-.328-.594q-.203-.25-.485-.25a.94.94 0 0 0-.64.25q-.265.25-.453.61-.187.344-.297.75-.094.39-.094.671 0 .204.031.547.032.344.125.672.11.328.281.563a.54.54 0 0 0 .454.234q.421 0 .734-.203a1.7 1.7 0 0 0 .516-.516q.218-.312.328-.687t.11-.719m10.328-.156a8.5 8.5 0 0 1-.172 1.703 4.7 4.7 0 0 1-.578 1.516q-.405.655-1.094 1.062-.672.406-1.687.406-1 0-1.672-.39a3.2 3.2 0 0 1-1.078-1.063 4.8 4.8 0 0 1-.563-1.484 9 9 0 0 1-.156-1.688q0-.937.219-1.86.046-.249.172-.687a6.4 6.4 0 0 1 .344-.875q.218-.436.484-.75.28-.312.61-.312.312 0 .5.172.186.171.296.437.11.251.14.547.032.282.032.516 0 .36-.062.703-.047.344-.11.687l-.125.938a9.4 9.4 0 0 0-.031 1.469q.03.281.125.547.093.266.266.453.172.172.484.172.406 0 .64-.22.25-.217.36-.546a2.6 2.6 0 0 0 .156-.703q.031-.376.031-.688 0-.687-.093-1.343-.094-.672-.172-1.36a1.5 1.5 0 0 1 .063-.687q.077-.235.218-.422.14-.187.344-.297a.85.85 0 0 1 .453-.125q.344 0 .61.25.264.234.437.625.188.374.297.86.124.468.187.937.079.453.094.86.03.406.031.64m7.5 1.687q0 .531-.344 1.047-.328.5-.843.906-.5.39-1.078.641-.579.234-1.063.234a2.76 2.76 0 0 1-1.484-.406 3.9 3.9 0 0 1-1.078-1.062 5.2 5.2 0 0 1-.672-1.407 5.6 5.6 0 0 1-.22-1.515q0-.781.22-1.672.218-.89.656-1.64a4.3 4.3 0 0 1 1.125-1.25q.687-.5 1.625-.5.531 0 1.016.187a2.45 2.45 0 0 1 1.421 1.281q.22.453.22 1.016 0 .734-.313 1.375a3.6 3.6 0 0 1-.828 1.109q-.516.47-1.188.766a4 4 0 0 1-1.375.312q.063.453.36.656.312.204.734.204.312 0 .61-.157.296-.156.577-.343.282-.204.547-.36.282-.156.563-.156a.87.87 0 0 1 .562.203q.25.203.25.531m-2.531-3.828a.94.94 0 0 0-.11-.422.36.36 0 0 0-.343-.218.9.9 0 0 0-.578.187 1.4 1.4 0 0 0-.39.453 2.6 2.6 0 0 0-.25.578 3 3 0 0 0-.095.578q.219-.046.516-.125.312-.078.578-.203.282-.14.469-.343a.66.66 0 0 0 .203-.485m13.469 3.828q0 .531-.344 1.047-.328.5-.844.906-.5.39-1.078.641-.578.234-1.062.234a2.76 2.76 0 0 1-1.485-.406 3.9 3.9 0 0 1-1.078-1.062 5.2 5.2 0 0 1-.672-1.407 5.6 5.6 0 0 1-.219-1.515q0-.781.22-1.672.218-.89.655-1.64a4.3 4.3 0 0 1 1.125-1.25q.688-.5 1.625-.5.532 0 1.016.187a2.45 2.45 0 0 1 1.422 1.281q.219.453.219 1.016 0 .734-.313 1.375a3.6 3.6 0 0 1-.828 1.109q-.516.47-1.187.766a4 4 0 0 1-1.375.312q.062.453.359.656.312.204.734.204.313 0 .61-.157.296-.156.578-.343.281-.204.547-.36.281-.156.562-.156a.87.87 0 0 1 .563.203q.25.203.25.531m-2.532-3.828a.94.94 0 0 0-.109-.422.36.36 0 0 0-.344-.218.9.9 0 0 0-.578.187 1.4 1.4 0 0 0-.39.453 2.6 2.6 0 0 0-.25.578 3 3 0 0 0-.094.578q.218-.046.515-.125.313-.078.579-.203.28-.14.468-.343a.66.66 0 0 0 .203-.485m7.735-1.984q0 .453-.313.672a6 6 0 0 1-.672.422q-.375.188-.687.453-.297.265-.297.797 0 .28.125.484.14.203.328.375.203.156.438.328t.422.39q.202.22.328.532.14.312.14.766 0 .656-.343 1.296a4.3 4.3 0 0 1-.86 1.125 4.3 4.3 0 0 1-1.172.782q-.656.297-1.297.297-.266 0-.53-.047a1.5 1.5 0 0 1-.485-.141 1.04 1.04 0 0 1-.344-.297.9.9 0 0 1-.14-.516q0-.437.171-.671.172-.25.438-.391.265-.141.562-.219.313-.078.578-.187.266-.126.438-.313.172-.188.172-.531 0-.329-.266-.672-.25-.36-.562-.75a8 8 0 0 1-.578-.86 2.04 2.04 0 0 1-.25-1q0-.671.265-1.234.282-.577.735-1a3.5 3.5 0 0 1 1.062-.656q.594-.25 1.25-.25.25 0 .484.047.25.046.438.172a.8.8 0 0 1 .297.312.86.86 0 0 1 .125.485m4.265 9.156q-1.11 0-1.734-.297a2 2 0 0 1-.922-.812q-.296-.532-.36-1.282-.061-.75-.062-1.671 0-.735.047-1.47.047-.75.14-1.593-.218 0-.343.016h-.203q-.5 0-.86-.22-.374-.218-.374-.671 0-.28.218-.5.204-.218.532-.375.328-.156.703-.25.39-.093.734-.125 0-.438.063-.969a4.7 4.7 0 0 1 .218-.984q.172-.47.453-.781a.92.92 0 0 1 .72-.313q.25 0 .437.156.203.142.328.375.125.22.187.5.063.282.063.547 0 .313-.047.64-.047.33-.172.813.266-.03.36-.03.094-.016.171-.016.266 0 .547.046.297.048.531.157.25.109.407.297a.6.6 0 0 1 .156.421.67.67 0 0 1-.234.5q-.22.219-.563.375-.344.157-.734.25-.39.078-.735.11-.094.64-.14 1.187-.031.531-.078 1.078l-.063.547q-.016.266-.016.547 0 .203.016.484.015.267.11.516.092.25.296.438.204.172.563.172.219 0 .453-.032.234-.047.469-.047.405 0 .578.282.187.281.187.718a.9.9 0 0 1-.203.579 1.35 1.35 0 0 1-.484.374 2.6 2.6 0 0 1-.672.235q-.36.078-.688.078m8.907-3.344q0 .531-.344 1.047-.328.5-.844.906-.5.39-1.078.641-.578.234-1.062.234a2.76 2.76 0 0 1-1.485-.406 3.9 3.9 0 0 1-1.078-1.062 5.2 5.2 0 0 1-.672-1.407 5.6 5.6 0 0 1-.219-1.515q0-.781.22-1.672.218-.89.655-1.64a4.3 4.3 0 0 1 1.125-1.25q.688-.5 1.625-.5.532 0 1.016.187a2.46 2.46 0 0 1 1.422 1.281q.219.453.219 1.016 0 .734-.313 1.375a3.6 3.6 0 0 1-.828 1.109 4.4 4.4 0 0 1-1.187.766 4 4 0 0 1-1.375.312q.062.453.359.656.312.204.734.204.313 0 .61-.157.296-.156.578-.343.281-.204.547-.36.281-.156.562-.156a.87.87 0 0 1 .563.203q.25.203.25.531m-2.532-3.828a.94.94 0 0 0-.109-.422.36.36 0 0 0-.344-.218.9.9 0 0 0-.578.187 1.4 1.4 0 0 0-.39.453 2.6 2.6 0 0 0-.25.578 3 3 0 0 0-.094.578q.218-.046.515-.125a3 3 0 0 0 .579-.203 1.6 1.6 0 0 0 .468-.343.66.66 0 0 0 .203-.485m5.813-4.14a.7.7 0 0 1-.125.406 1.2 1.2 0 0 1-.313.297q-.187.124-.406.203a1.5 1.5 0 0 1-.406.062.96.96 0 0 1-.547-.156q-.234-.157-.234-.484a.74.74 0 0 1 .109-.407 1 1 0 0 1 .297-.296 1.5 1.5 0 0 1 .391-.188q.218-.062.421-.062.297 0 .547.156.266.14.266.469m.297 6.78q0 .735-.047 1.641a13 13 0 0 1-.188 1.797 8.2 8.2 0 0 1-.453 1.719q-.312.813-.875 1.36a10 10 0 0 1-.734.624 8 8 0 0 1-.906.61 5.3 5.3 0 0 1-.953.453 2.6 2.6 0 0 1-.922.187q-.5 0-.735-.28-.25-.267-.25-.75 0-.501.266-.75.266-.251.656-.438.391-.188.86-.422.453-.219.843-.672t.657-1.219q.265-.78.265-2.047a38 38 0 0 0-.125-3.125l-.062-.906q-.032-.468-.032-.922 0-.28.079-.594.078-.312.234-.562.156-.266.391-.422.25-.172.593-.172a.8.8 0 0 1 .641.297q.266.297.422.766.172.453.234 1.03.078.564.11 1.11.03.53.031.985zm7.906 1.766q0 .282-.031.735a4.3 4.3 0 0 1-.125.89 2.1 2.1 0 0 1-.344.735q-.234.312-.656.312-.578 0-.891-.375-.312-.375-.297-.937-.5.436-1.14.687-.625.25-1.282.25-.453 0-.859-.218a2.7 2.7 0 0 1-.719-.563 2.9 2.9 0 0 1-.5-.766 2.2 2.2 0 0 1-.187-.859q0-.75.453-1.312a4.2 4.2 0 0 1 1.141-.954q.67-.406 1.421-.64.766-.234 1.36-.313v-.14a.6.6 0 0 0 .015-.141q0-.484-.265-.781-.266-.297-.75-.297-.391 0-.672.14a3.3 3.3 0 0 0-.531.297q-.25.157-.5.297a1.24 1.24 0 0 1-.563.125.87.87 0 0 1-.594-.218.74.74 0 0 1-.234-.563q0-.516.297-.937.312-.422.766-.704a4 4 0 0 1 1-.453 3.4 3.4 0 0 1 1-.172q.421 0 .843.11.422.093.797.312.375.203.672.516.312.297.5.703.282.578.453 1.234.172.64.266 1.329.093.67.125 1.359.031.672.031 1.312m-2.5-.5-.047-1.062h-.062a.14.14 0 0 0-.063-.016q-.203 0-.515.11a2.3 2.3 0 0 0-.579.28 2.3 2.3 0 0 0-.484.392.7.7 0 0 0-.187.453q0 .218.156.297a.8.8 0 0 0 .359.078q.343 0 .735-.172.39-.188.687-.36m13.844.5q0 .282-.031.735a4.4 4.4 0 0 1-.125.89 2.1 2.1 0 0 1-.344.735q-.234.312-.656.312-.579 0-.891-.375t-.297-.937q-.5.436-1.141.687-.624.25-1.281.25-.453 0-.859-.218a2.7 2.7 0 0 1-.719-.563 2.9 2.9 0 0 1-.5-.766 2.2 2.2 0 0 1-.187-.859q0-.75.453-1.312a4.2 4.2 0 0 1 1.14-.954q.672-.406 1.422-.64.766-.234 1.36-.313v-.14a.6.6 0 0 0 .015-.141q0-.484-.265-.781-.267-.297-.75-.297-.392 0-.672.14a3.3 3.3 0 0 0-.532.297q-.25.157-.5.297a1.24 1.24 0 0 1-.562.125.87.87 0 0 1-.594-.218.74.74 0 0 1-.234-.563q0-.516.297-.937.312-.422.765-.704a4 4 0 0 1 1-.453 3.4 3.4 0 0 1 1-.172q.423 0 .844.11.422.093.797.312.375.203.672.516.312.297.5.703.28.578.453 1.234.172.64.266 1.329.093.67.125 1.359.03.672.031 1.312m-2.5-.5-.047-1.062h-.063a.13.13 0 0 0-.062-.016q-.203 0-.516.11-.296.093-.578.28a2.3 2.3 0 0 0-.484.392.7.7 0 0 0-.188.453q0 .218.157.297a.8.8 0 0 0 .359.078q.344 0 .734-.172.391-.188.688-.36m6.359-6.765q0 .843-.078 1.703-.062.843-.062 1.703 0 1.11.062 2.219.078 1.11.078 2.234 0 .282-.031.64-.031.344-.156.641a1.2 1.2 0 0 1-.344.5q-.235.204-.625.204-.375 0-.656-.376a3.3 3.3 0 0 1-.453-.921 12 12 0 0 1-.297-1.282 23 23 0 0 1-.172-1.359q-.047-.672-.078-1.219a31 31 0 0 1-.016-.828q0-.297.016-.86.031-.561.109-1.218t.203-1.328q.141-.688.36-1.234.218-.563.515-.907.313-.36.735-.36.344 0 .515.235.188.219.266.547.078.312.094.672.015.344.015.594m4.828 10.031q-1.109 0-1.734-.297a2 2 0 0 1-.922-.812q-.297-.532-.359-1.282-.063-.75-.063-1.671 0-.735.047-1.47.047-.75.141-1.593-.22 0-.344.016h-.203q-.5 0-.86-.22-.375-.218-.375-.671 0-.28.219-.5.204-.218.531-.375.329-.156.704-.25.39-.093.734-.125 0-.438.062-.969.063-.531.219-.984a2.4 2.4 0 0 1 .453-.781.93.93 0 0 1 .719-.313q.25 0 .438.156.202.142.328.375.125.22.187.5.063.282.063.547 0 .313-.047.64-.047.33-.172.813.266-.03.359-.03.094-.016.172-.016.266 0 .547.046.297.048.531.157.25.109.407.297a.6.6 0 0 1 .156.421.67.67 0 0 1-.235.5q-.218.219-.562.375a4 4 0 0 1-.734.25 7 7 0 0 1-.735.11q-.093.64-.14 1.187-.031.531-.079 1.078l-.062.547q-.016.266-.016.547 0 .203.016.484.015.267.109.516.095.25.297.438.203.172.563.172.219 0 .453-.032.234-.047.469-.047.405 0 .578.282.187.281.187.718a.9.9 0 0 1-.203.579 1.35 1.35 0 0 1-.484.374 2.6 2.6 0 0 1-.672.235q-.36.078-.688.078m5.328-.11q-.796 0-1.39-.421a3.7 3.7 0 0 1-1-1.078 5.2 5.2 0 0 1-.61-1.453 6.6 6.6 0 0 1-.203-1.594q0-.828.203-1.703.204-.89.625-1.61.423-.734 1.079-1.187.656-.47 1.562-.469.875 0 1.484.484.625.47 1 1.188.375.703.532 1.547a6.5 6.5 0 0 1 .109 1.594 8.6 8.6 0 0 1-.266 1.671 5.3 5.3 0 0 1-.609 1.516 3.5 3.5 0 0 1-1.031 1.094q-.626.422-1.485.422m.157-7.062q-.235 0-.422.25-.173.25-.297.61-.11.36-.172.765a4.4 4.4 0 0 0-.062.688q0 .375.062.812.078.438.203.813.125.36.297.609.188.234.422.234.25 0 .422-.234.188-.234.297-.594.11-.36.156-.781a8 8 0 0 0 .047-.812q0-.345-.063-.75a4.3 4.3 0 0 0-.187-.782 1.8 1.8 0 0 0-.297-.593q-.172-.235-.406-.235m6.297 5.86q0 .203-.094.374a.9.9 0 0 1-.25.266q-.14.11-.328.172a1 1 0 0 1-.36.063q-.234 0-.515-.094a1.8 1.8 0 0 1-.5-.235 1.8 1.8 0 0 1-.375-.359.8.8 0 0 1-.157-.484q0-.423.36-.625.359-.22.734-.22.234 0 .485.079.265.078.484.234.234.141.375.36a.8.8 0 0 1 .141.469m13.484-5.954q0 .345-.031.985-.032.624-.125 1.39-.078.75-.235 1.547-.156.782-.406 1.422t-.609 1.063q-.36.405-.86.406-.468 0-.859-.266a3.6 3.6 0 0 1-.703-.672 5.6 5.6 0 0 1-.547-.859 11 11 0 0 1-.391-.828q-.327-.797-.656-1.563a41 41 0 0 1-.625-1.578v.438q0 .672-.016 1.344 0 .656-.093 1.312l-.078.625q-.032.344-.11.688t-.234.64a.95.95 0 0 1-.391.438.8.8 0 0 1-.265.093q-.11.015-.25.047h-.047a.86.86 0 0 1-.61-.234 2.2 2.2 0 0 1-.422-.625 5 5 0 0 1-.281-.86 19 19 0 0 1-.156-.937 15 15 0 0 1-.078-1.484q0-.36.031-1.047.032-.704.125-1.547.11-.844.266-1.734.171-.89.437-1.61.266-.735.641-1.187.375-.47.875-.47.484 0 .859.376.391.375.688.89.297.516.5 1.079t.343.937q.266.735.516 1.469.25.719.484 1.469.017.03.063.172.047.14.109.312.063.188.157.422 0-.204-.016-.281v-.688l-.031-1.031V59.13q.015-.39.047-.827.046-.453.125-.906a4.2 4.2 0 0 1 .218-.813 2 2 0 0 1 .375-.61.77.77 0 0 1 .563-.234q.39 0 .672.297.28.297.468.766.188.453.297 1.031a14 14 0 0 1 .25 2.125q.016.469.016.734m7.578 3.922q0 .531-.344 1.047-.328.5-.843.906a5 5 0 0 1-1.079.641q-.577.234-1.062.234a2.76 2.76 0 0 1-1.484-.406 3.9 3.9 0 0 1-1.079-1.062 5.2 5.2 0 0 1-.671-1.407 5.6 5.6 0 0 1-.219-1.515q0-.781.219-1.672.218-.89.656-1.64.453-.75 1.125-1.25.687-.5 1.625-.5.532 0 1.015.187a2.45 2.45 0 0 1 1.422 1.281q.219.453.219 1.016 0 .734-.312 1.375a3.7 3.7 0 0 1-.829 1.109 4.4 4.4 0 0 1-1.187.766 4 4 0 0 1-1.375.312q.063.453.359.656.313.204.735.204.312 0 .609-.157.297-.156.578-.343.282-.204.547-.36a1.15 1.15 0 0 1 .563-.156q.312 0 .562.203a.65.65 0 0 1 .25.531m-2.531-3.828a.94.94 0 0 0-.11-.422.36.36 0 0 0-.343-.218.9.9 0 0 0-.578.187 1.4 1.4 0 0 0-.391.453q-.157.266-.25.578a3 3 0 0 0-.094.578q.219-.046.516-.125.312-.078.578-.203.281-.14.469-.343a.66.66 0 0 0 .203-.485m7.734-1.984q0 .453-.312.672a6 6 0 0 1-.672.422q-.375.188-.688.453-.297.265-.297.797a.9.9 0 0 0 .125.484q.141.203.329.375.203.156.437.328t.422.39q.203.22.328.532.141.312.141.766 0 .656-.344 1.296a4.28 4.28 0 0 1-2.031 1.906q-.657.297-1.297.297-.266 0-.531-.046a1.5 1.5 0 0 1-.485-.141 1.05 1.05 0 0 1-.344-.297.9.9 0 0 1-.14-.516q0-.437.172-.671.171-.25.437-.391t.563-.219q.312-.078.578-.187.266-.126.437-.313.172-.188.172-.531 0-.329-.265-.672-.25-.36-.563-.75a8 8 0 0 1-.578-.86 2.03 2.03 0 0 1-.25-1q0-.671.266-1.234a3.4 3.4 0 0 1 .734-1q.469-.421 1.062-.656a3.2 3.2 0 0 1 1.25-.25q.25 0 .485.047.25.046.437.172a.8.8 0 0 1 .297.312.85.85 0 0 1 .125.485m5.203 0q0 .453-.312.672a6 6 0 0 1-.672.422q-.375.188-.688.453-.296.265-.296.797a.9.9 0 0 0 .125.484q.14.203.328.375.203.156.437.328t.422.39q.203.22.328.532.141.312.141.766 0 .656-.344 1.296a4.28 4.28 0 0 1-2.031 1.906q-.657.297-1.297.297-.266 0-.531-.046a1.5 1.5 0 0 1-.485-.141 1 1 0 0 1-.343-.297.9.9 0 0 1-.141-.516q0-.437.172-.671.171-.25.437-.391t.563-.219q.312-.078.578-.187.266-.126.437-.313.172-.188.172-.531 0-.329-.265-.672a14 14 0 0 0-.563-.75 8 8 0 0 1-.578-.86 2.03 2.03 0 0 1-.25-1q0-.671.266-1.234a3.4 3.4 0 0 1 .734-1q.47-.421 1.063-.656.593-.25 1.25-.25.25 0 .484.047.25.046.437.172a.8.8 0 0 1 .297.312.85.85 0 0 1 .125.485m7.266 6.39q0 .282-.031.735a4.3 4.3 0 0 1-.125.89 2.1 2.1 0 0 1-.344.735q-.234.312-.656.312-.579 0-.891-.375t-.297-.937q-.5.436-1.14.687-.625.25-1.282.25-.453 0-.859-.218a2.7 2.7 0 0 1-.719-.563 2.9 2.9 0 0 1-.5-.766 2.2 2.2 0 0 1-.187-.859q0-.75.453-1.312a4.3 4.3 0 0 1 1.14-.954q.672-.406 1.422-.64.766-.234 1.36-.313v-.14a.6.6 0 0 0 .015-.141q0-.484-.265-.781t-.75-.297q-.391 0-.672.14a3.3 3.3 0 0 0-.531.297q-.25.157-.5.297a1.24 1.24 0 0 1-.563.125.87.87 0 0 1-.594-.218.74.74 0 0 1-.234-.563q0-.516.297-.937.312-.422.765-.704a4 4 0 0 1 1-.453 3.4 3.4 0 0 1 1-.172q.423 0 .844.11.422.093.797.312.375.203.672.516.312.297.5.703.28.578.453 1.234.172.64.266 1.329.093.67.125 1.359.031.672.031 1.312m-2.5-.5-.047-1.062h-.062a.14.14 0 0 0-.063-.016q-.202 0-.516.11a2.3 2.3 0 0 0-.578.28 2.3 2.3 0 0 0-.484.392.7.7 0 0 0-.188.453q0 .218.157.297a.8.8 0 0 0 .359.078q.344 0 .734-.172.391-.188.688-.36m8.016-5.89q0 .453-.313.672a6 6 0 0 1-.672.422q-.375.188-.687.453-.297.265-.297.797a.9.9 0 0 0 .125.484q.14.203.328.375.203.156.437.328.235.172.422.39.204.22.328.532.141.312.141.766 0 .656-.344 1.296a4.2 4.2 0 0 1-.859 1.125 4.3 4.3 0 0 1-1.172.782q-.656.297-1.297.297-.266 0-.531-.047a1.5 1.5 0 0 1-.484-.141 1.04 1.04 0 0 1-.344-.297.9.9 0 0 1-.141-.516q0-.437.172-.671.172-.25.438-.391.265-.141.562-.219.312-.078.578-.187a1.4 1.4 0 0 0 .438-.313q.172-.188.172-.531 0-.329-.266-.672a14 14 0 0 0-.563-.75 8 8 0 0 1-.578-.86 2.04 2.04 0 0 1-.25-1q0-.671.266-1.234a3.4 3.4 0 0 1 .734-1q.47-.421 1.063-.656.594-.25 1.25-.25.25 0 .484.047.25.046.438.172a.8.8 0 0 1 .297.312.86.86 0 0 1 .125.485m11.484 4.547q0 .265-.016.797 0 .515-.047 1.093-.03.563-.093 1.078-.063.501-.157.735-.124.297-.328.515-.202.22-.547.22-.531 0-.765-.423-.234-.422-.313-1.047a9 9 0 0 1-.062-1.359q.015-.735-.016-1.36a4 4 0 0 0-.172-1.046q-.14-.422-.515-.422-.516 0-.797.172a.96.96 0 0 0-.391.422q-.11.265-.14.609-.016.345-.047.719-.032.36-.047.969a6.7 6.7 0 0 1-.141 1.203q-.125.594-.422 1.03-.28.423-.843.423a.7.7 0 0 1-.563-.266 2.1 2.1 0 0 1-.328-.687 6 6 0 0 1-.188-.938 17 17 0 0 1-.062-1v-.906q.015-.406.016-.61 0-.312.015-1.03.031-.72.11-1.594a40 40 0 0 1 .203-1.829q.124-.937.328-1.703.203-.781.484-1.265.297-.485.688-.47.25.016.422.22.188.203.296.53.125.314.204.688.078.375.109.75.047.36.047.672.015.313.015.485a22 22 0 0 1-.062 1.625 2.8 2.8 0 0 1 .953-.797 2.65 2.65 0 0 1 1.219-.313q.781 0 1.172.438.406.421.578 1.062.172.626.187 1.344.016.703.016 1.266m4.078 4.5q-.797 0-1.391-.422a3.7 3.7 0 0 1-1-1.078 5.2 5.2 0 0 1-.609-1.453 6.6 6.6 0 0 1-.203-1.594q0-.828.203-1.703.203-.89.625-1.61.422-.734 1.078-1.187.657-.47 1.563-.469.875 0 1.484.484.625.47 1 1.188.375.703.531 1.547.156.843.11 1.594a8.6 8.6 0 0 1-.266 1.671 5.3 5.3 0 0 1-.609 1.516 3.5 3.5 0 0 1-1.032 1.094q-.624.422-1.484.422m.156-7.063q-.234 0-.422.25-.171.25-.296.61-.11.36-.172.765-.063.39-.063.688 0 .375.063.812.078.438.203.813.125.36.297.609.187.234.422.234.25 0 .421-.234.188-.234.297-.594.11-.36.157-.781.046-.437.046-.812 0-.345-.062-.75a4.3 4.3 0 0 0-.188-.782 1.7 1.7 0 0 0-.296-.593q-.172-.235-.407-.235m9.453.766q-.218.015-.375-.031l-.312-.125a3 3 0 0 0-.281-.11.6.6 0 0 0-.313-.047q-.312.015-.562.172a2.2 2.2 0 0 0-.438.39 2.7 2.7 0 0 0-.328.532 3 3 0 0 0-.219.563 4 4 0 0 0-.078.578q-.015.375-.015.812a24 24 0 0 0-.016.86q0 .406-.031.64a6 6 0 0 1-.078.594 2.6 2.6 0 0 1-.204.625 1.4 1.4 0 0 1-.343.5.8.8 0 0 1-.563.203.75.75 0 0 1-.469-.156 1.4 1.4 0 0 1-.328-.406 4 4 0 0 1-.218-.61 7 7 0 0 1-.125-.703q-.048-.375-.079-.75-.015-.375-.031-.703v-.625q.016-.282.016-.453a19 19 0 0 0-.063-1.094 20 20 0 0 1-.031-1.11q0-.343.031-.765t.172-.781a1.6 1.6 0 0 1 .406-.625q.282-.25.766-.25.266 0 .453.172.188.171.297.422.125.25.188.53.061.282.078.516.375-.609.843-.984.47-.39 1.219-.422.375-.015.735.078.375.078.671.282.313.187.5.5.204.312.219.734.032.5-.297.766-.327.265-.797.28m7.969 3.64q0 .282-.031.735-.015.453-.125.89a2.1 2.1 0 0 1-.344.735q-.234.312-.656.312-.578 0-.891-.375-.312-.375-.297-.937-.5.436-1.14.687-.625.25-1.281.25-.454 0-.86-.218a2.7 2.7 0 0 1-.719-.563 2.9 2.9 0 0 1-.5-.766 2.2 2.2 0 0 1-.187-.859q0-.75.453-1.312a4.3 4.3 0 0 1 1.141-.954q.672-.406 1.422-.64a8.5 8.5 0 0 1 1.359-.313v-.14a.6.6 0 0 0 .016-.141q0-.484-.266-.781t-.75-.297q-.39 0-.672.14a3.3 3.3 0 0 0-.531.297q-.25.157-.5.297a1.24 1.24 0 0 1-.563.125.87.87 0 0 1-.593-.218.73.73 0 0 1-.235-.563q0-.516.297-.937.313-.422.766-.704a4 4 0 0 1 1-.453 3.4 3.4 0 0 1 1-.172q.422 0 .843.11.423.093.797.312.375.203.672.516.313.297.5.703.282.578.453 1.234.172.64.266 1.329.093.67.125 1.359.031.672.031 1.312m-2.5-.5-.047-1.062h-.062a.14.14 0 0 0-.063-.016q-.203 0-.515.11a2.3 2.3 0 0 0-.578.28 2.3 2.3 0 0 0-.485.392.7.7 0 0 0-.187.453q0 .218.156.297a.8.8 0 0 0 .359.078q.344 0 .735-.172.39-.188.687-.36m8.016-5.89q0 .453-.313.672a6 6 0 0 1-.672.422q-.375.188-.687.453-.297.265-.297.797a.9.9 0 0 0 .125.484q.14.203.328.375.203.156.438.328t.422.39q.202.22.328.532.14.312.14.766 0 .656-.343 1.296a4.3 4.3 0 0 1-.86 1.125 4.3 4.3 0 0 1-1.172.782 3.1 3.1 0 0 1-1.297.297q-.266 0-.531-.047a1.5 1.5 0 0 1-.484-.141 1.04 1.04 0 0 1-.344-.297.9.9 0 0 1-.141-.516q0-.437.172-.671.173-.25.438-.391t.562-.219q.313-.078.578-.187a1.4 1.4 0 0 0 .438-.313q.172-.188.172-.531 0-.329-.266-.672a14 14 0 0 0-.562-.75 8 8 0 0 1-.578-.86 2.03 2.03 0 0 1-.25-1q0-.671.265-1.234.281-.577.735-1a3.5 3.5 0 0 1 1.062-.656 3.2 3.2 0 0 1 1.25-.25q.25 0 .484.047.25.046.438.172a.8.8 0 0 1 .297.312.86.86 0 0 1 .125.485m2.875 7.765q0 .25-.141.641-.125.39-.328.766-.188.375-.437.64-.25.266-.485.266-.312 0-.312-.313a.9.9 0 0 1 .078-.359q.078-.173.172-.344.093-.156.172-.328a.7.7 0 0 0 .078-.312.9.9 0 0 1-.5.156.79.79 0 0 1-.61-.281.92.92 0 0 1-.25-.625q0-.501.328-.797.328-.313.829-.313.563 0 .984.297t.422.906m7.359 1.282q-.797 0-1.39-.422a3.7 3.7 0 0 1-1-1.078 5.2 5.2 0 0 1-.61-1.453 6.6 6.6 0 0 1-.203-1.594q0-.828.203-1.703.204-.89.625-1.61.422-.734 1.078-1.187.657-.47 1.563-.469.875 0 1.484.484.625.47 1 1.188.375.703.531 1.547.157.843.11 1.594a8.6 8.6 0 0 1-.266 1.671 5.3 5.3 0 0 1-.609 1.516 3.5 3.5 0 0 1-1.031 1.094q-.625.422-1.485.422m.156-7.063q-.234 0-.421.25-.172.25-.297.61-.11.36-.172.765-.063.39-.063.688 0 .375.063.812.078.438.203.813.124.36.297.609.187.234.422.234.25 0 .422-.234.188-.234.296-.594.11-.36.157-.781a8 8 0 0 0 .047-.812q0-.345-.063-.75a4.4 4.4 0 0 0-.187-.782 1.8 1.8 0 0 0-.297-.593q-.172-.235-.407-.235M40.538 83.24v.813q0 .5-.031 1.094-.016.593-.094 1.203a5.3 5.3 0 0 1-.25 1.078q-.157.484-.406.797a.79.79 0 0 1-.64.312.6.6 0 0 1-.532-.281 2.2 2.2 0 0 1-.25-.688 5 5 0 0 1-.094-.796v-.641q0-.703.047-1.375t.047-1.375V83.1q0-.204-.031-.407a1.2 1.2 0 0 0-.11-.359q-.062-.156-.203-.156-.28 0-.453.297a2.7 2.7 0 0 0-.281.672q-.11.39-.156.78-.048.375-.063.563-.031.204-.062.61-.016.405-.063.89a9 9 0 0 1-.125 1 6 6 0 0 1-.219.922q-.124.406-.328.672-.203.266-.5.266a.64.64 0 0 1-.578-.328 2.4 2.4 0 0 1-.297-.766 6 6 0 0 1-.125-.89q-.015-.454-.015-.704v-.516q.015-.25.015-.515v-.36q0-.25-.015-.546 0-.313-.032-.641a5 5 0 0 0-.062-.594 1.5 1.5 0 0 0-.14-.453q-.094-.172-.22-.172-.202 0-.375.266-.171.25-.296.61-.125.343-.204.687-.062.344-.062.5v.094q0 .75.094 1.468.093.72.093 1.469 0 .438-.28.813-.282.36-.782.359a.76.76 0 0 1-.594-.266 2.3 2.3 0 0 1-.39-.718 6 6 0 0 1-.25-.954 12 12 0 0 1-.11-1.03q-.03-.517-.047-.923v-.625q0-.234-.015-.687 0-.453.015-.985.031-.53.094-1.078.063-.562.203-1.015t.36-.735a.73.73 0 0 1 .593-.297q.407 0 .657.22.265.218.265.655 0 .094-.015.188a1 1 0 0 1-.016.172 3.6 3.6 0 0 1 .422-.5 3.7 3.7 0 0 1 .531-.469q.297-.219.625-.344.329-.14.656-.14a.97.97 0 0 1 .563.172q.25.171.437.437.188.25.313.547.124.297.172.562.156-.281.375-.562.234-.297.5-.516.266-.218.578-.36a1.7 1.7 0 0 1 .672-.14q.328 0 .562.235t.406.609q.173.36.266.828.095.453.156.906.063.438.078.829.015.374.016.593m7.578 2.375q0 .531-.344 1.047-.328.5-.843.906-.5.39-1.078.641-.579.234-1.063.234a2.76 2.76 0 0 1-1.484-.406 3.9 3.9 0 0 1-1.078-1.062 5.2 5.2 0 0 1-.672-1.407 5.6 5.6 0 0 1-.22-1.515q0-.781.22-1.672.218-.89.656-1.64a4.3 4.3 0 0 1 1.125-1.25q.687-.5 1.625-.5.531 0 1.016.187a2.45 2.45 0 0 1 1.421 1.281q.22.453.22 1.016 0 .735-.313 1.375a3.6 3.6 0 0 1-.828 1.109q-.516.47-1.188.766a4 4 0 0 1-1.375.312q.063.452.36.656.312.204.734.204.312 0 .61-.157.296-.156.577-.343.282-.204.547-.36.282-.156.563-.156a.87.87 0 0 1 .562.203q.25.203.25.531m-2.531-3.828a.94.94 0 0 0-.11-.422.36.36 0 0 0-.343-.218.9.9 0 0 0-.578.187 1.4 1.4 0 0 0-.39.453 2.6 2.6 0 0 0-.25.578 3 3 0 0 0-.095.578q.219-.046.516-.125.312-.078.578-.203.282-.14.469-.343a.66.66 0 0 0 .203-.485m6.078-2.86q0 .844-.078 1.704-.063.843-.063 1.703 0 1.11.063 2.219.078 1.11.078 2.234 0 .282-.031.64a2.1 2.1 0 0 1-.156.641 1.2 1.2 0 0 1-.344.5q-.234.204-.625.204-.375 0-.656-.376a3.3 3.3 0 0 1-.454-.921 12 12 0 0 1-.296-1.282q-.11-.702-.172-1.359a96 96 0 0 1-.078-1.219q-.015-.562-.016-.828 0-.296.016-.86.03-.561.109-1.218.078-.656.203-1.328.141-.688.36-1.234.218-.564.515-.907.312-.36.734-.36.344 0 .516.235.188.219.266.547.078.312.093.672.015.344.016.594m8.281 5.423q0 .265-.015.797 0 .515-.047 1.093-.031.563-.094 1.078-.063.501-.156.735-.126.297-.328.515a.71.71 0 0 1-.547.22q-.532 0-.766-.423-.234-.422-.312-1.047a9.4 9.4 0 0 1-.063-1.359q.015-.735-.015-1.36a4 4 0 0 0-.172-1.046q-.141-.422-.516-.422-.516 0-.797.172a.95.95 0 0 0-.39.422q-.11.266-.141.609-.015.344-.047.719-.03.36-.047.969-.015.609-.14 1.203a2.9 2.9 0 0 1-.422 1.03q-.282.423-.844.423a.7.7 0 0 1-.563-.266 2.1 2.1 0 0 1-.328-.687 6 6 0 0 1-.187-.938 17 17 0 0 1-.063-1v-.906q.016-.406.016-.61 0-.312.016-1.03.03-.72.109-1.594.078-.891.203-1.829t.328-1.703q.203-.78.485-1.265.296-.485.687-.47.25.016.422.22.187.203.297.53.124.314.203.688.078.375.11.75.046.36.046.672.015.313.016.485a21 21 0 0 1-.063 1.625 2.8 2.8 0 0 1 .953-.797 2.65 2.65 0 0 1 1.22-.313q.78 0 1.171.438.406.421.578 1.062.172.626.188 1.344.015.703.015 1.266m4.078 4.5q-.796 0-1.39-.422a3.7 3.7 0 0 1-1-1.078 5.2 5.2 0 0 1-.61-1.453 6.6 6.6 0 0 1-.203-1.594q0-.828.203-1.703.204-.89.625-1.61.422-.735 1.079-1.187.656-.47 1.562-.469.875 0 1.484.484.625.47 1 1.188.375.703.532 1.547.156.843.11 1.594a8.6 8.6 0 0 1-.267 1.671 5.3 5.3 0 0 1-.609 1.516q-.405.672-1.031 1.094t-1.485.422m.157-7.063q-.235 0-.422.25-.172.25-.297.61-.11.36-.172.765-.062.39-.062.688 0 .374.062.812.078.438.203.813.125.36.297.609.188.234.422.234.25 0 .422-.234.188-.234.297-.594.11-.36.156-.781.047-.437.047-.812 0-.345-.063-.75a4.3 4.3 0 0 0-.187-.782 1.8 1.8 0 0 0-.297-.593q-.172-.235-.406-.235m9.453.766q-.219.015-.375-.031l-.313-.126a3 3 0 0 0-.28-.109.6.6 0 0 0-.313-.047q-.313.016-.563.172a2.2 2.2 0 0 0-.437.39 2.7 2.7 0 0 0-.329.532 3 3 0 0 0-.218.563 4 4 0 0 0-.078.578q-.016.374-.016.812-.016.453-.016.86t-.03.64a5 5 0 0 1-.08.594 2.6 2.6 0 0 1-.202.625 1.4 1.4 0 0 1-.344.5.8.8 0 0 1-.562.203.75.75 0 0 1-.47-.156 1.4 1.4 0 0 1-.327-.406 4 4 0 0 1-.22-.61 8 8 0 0 1-.124-.703q-.047-.375-.078-.75l-.031-.703v-.625q.015-.282.015-.453-.015-.548-.062-1.094-.032-.562-.032-1.11 0-.343.032-.765.03-.422.172-.781.14-.376.406-.625.28-.25.765-.25.266 0 .454.172t.296.422q.126.25.188.53.063.282.078.516.375-.609.844-.984.468-.39 1.219-.422.374-.015.734.078.375.078.672.282.312.186.5.5.203.312.219.734.03.5-.297.766-.33.265-.797.28m11.64 3.062q0 .531-.343 1.047-.329.5-.844.906-.5.39-1.078.641-.579.234-1.063.234a2.76 2.76 0 0 1-1.484-.406 3.9 3.9 0 0 1-1.078-1.062 5.2 5.2 0 0 1-.672-1.407 5.6 5.6 0 0 1-.219-1.515q0-.781.219-1.672.22-.89.656-1.64a4.3 4.3 0 0 1 1.125-1.25q.688-.5 1.625-.5.531 0 1.016.187a2.45 2.45 0 0 1 1.422 1.281q.218.453.218 1.016 0 .735-.312 1.375a3.6 3.6 0 0 1-.828 1.109q-.516.47-1.188.766a4 4 0 0 1-1.375.312q.063.452.36.656.312.204.734.204.313 0 .61-.157.296-.156.578-.343.281-.204.546-.36.282-.156.563-.156.313 0 .562.203t.25.531m-2.53-3.828a.94.94 0 0 0-.11-.422.36.36 0 0 0-.344-.218.9.9 0 0 0-.578.187 1.4 1.4 0 0 0-.39.453 2.6 2.6 0 0 0-.25.578 3 3 0 0 0-.094.578q.218-.046.515-.125.313-.078.578-.203.281-.14.47-.343a.66.66 0 0 0 .202-.485m.874-5.547q0 .173-.094.344-.093.156-.234.297a2.3 2.3 0 0 1-.281.266q-.156.108-.281.203a8 8 0 0 0-.25.187 3 3 0 0 1-.282.188 3 3 0 0 1-.297.14.7.7 0 0 1-.28.063.4.4 0 0 1-.22-.063.27.27 0 0 1-.093-.218q0-.235.172-.563.188-.344.453-.656.265-.328.562-.547.297-.234.547-.234.219 0 .39.187.189.172.188.406m12.688 9.953q0 .282-.032.735-.015.453-.125.89a2.1 2.1 0 0 1-.343.735q-.235.312-.657.312-.578 0-.89-.375-.314-.375-.297-.937a3.8 3.8 0 0 1-1.14.687 3.4 3.4 0 0 1-1.282.25q-.453 0-.86-.218a2.7 2.7 0 0 1-.718-.563 2.9 2.9 0 0 1-.5-.766 2.2 2.2 0 0 1-.188-.859q0-.75.454-1.312a4.3 4.3 0 0 1 1.14-.954q.672-.406 1.422-.64.766-.234 1.36-.313v-.14a.6.6 0 0 0 .015-.141q0-.484-.266-.781t-.75-.297q-.39 0-.671.14a3.3 3.3 0 0 0-.532.297q-.25.157-.5.297a1.24 1.24 0 0 1-.562.125.87.87 0 0 1-.594-.218.74.74 0 0 1-.234-.563q0-.516.297-.937.312-.422.765-.704a4 4 0 0 1 1-.453 3.4 3.4 0 0 1 1-.172q.422 0 .844.11.422.093.797.312.375.204.672.516.312.297.5.703.28.578.453 1.234.172.64.265 1.329.095.67.125 1.359.032.672.032 1.312m-2.5-.5-.047-1.062h-.063a.14.14 0 0 0-.062-.016q-.204 0-.516.11-.296.094-.578.28a2.3 2.3 0 0 0-.484.392.7.7 0 0 0-.188.453q0 .218.156.297a.8.8 0 0 0 .36.078q.344 0 .734-.172.39-.188.688-.36m10.172-2.89a77 77 0 0 1-.891 2.25q-.484 1.171-1.047 2.187a4.6 4.6 0 0 1-.766 1.047q-.422.405-.968.406-.437 0-.86-.437a6.6 6.6 0 0 1-.765-1.063q-.345-.624-.61-1.25a23 23 0 0 1-.375-1.015 40 40 0 0 0-.28-.906 15 15 0 0 1-.282-.985 12 12 0 0 1-.203-.984 6 6 0 0 1-.078-.938q0-.61.218-1 .22-.39.86-.39.249 0 .453.156.203.14.375.406.172.265.328.625.156.344.297.766.14.406.265.844.126.436.25.843.126.407.25.797.141.375.36.75l.25-.64q.141-.36.297-.766.171-.406.359-.828.187-.438.406-.844a8.4 8.4 0 0 1 .891-1.437q.485-.594.953-.594.438 0 .625.265.188.266.188.688t-.141.953-.359 1.094m3.625-5.313a.65.65 0 0 1-.125.39 1.2 1.2 0 0 1-.297.313 2 2 0 0 1-.407.204 1.5 1.5 0 0 1-.406.062.97.97 0 0 1-.547-.156q-.234-.156-.234-.485a.74.74 0 0 1 .109-.406q.126-.188.297-.297a1.2 1.2 0 0 1 .391-.187q.219-.063.422-.063.297 0 .547.14.25.142.25.485m.125 5.313v.469q0 .234-.016.453-.015.265-.016.718 0 .438-.031.954a12 12 0 0 1-.109 1.046 4.4 4.4 0 0 1-.219.97 2 2 0 0 1-.422.718.9.9 0 0 1-.641.281.58.58 0 0 1-.5-.234 2.2 2.2 0 0 1-.343-.64 5.3 5.3 0 0 1-.188-.891 18 18 0 0 1-.094-.954q-.03-.469-.031-.859v-1.281q0-.47.031-1 .032-.531.11-1.078.093-.547.25-1 .171-.453.437-.735a.88.88 0 0 1 .672-.281q.422 0 .641.422t.328.984q.11.562.125 1.125.016.547.016.813m5.687-3q0 .453-.312.672a6 6 0 0 1-.672.422q-.375.186-.688.453-.297.265-.297.797a.9.9 0 0 0 .125.484q.14.203.328.375.204.156.438.328t.422.39q.203.219.328.532.141.312.141.766 0 .656-.344 1.296a4.3 4.3 0 0 1-.86 1.125 4.3 4.3 0 0 1-1.171.782q-.657.297-1.297.297-.265 0-.532-.047a1.5 1.5 0 0 1-.484-.141 1.05 1.05 0 0 1-.344-.297.9.9 0 0 1-.14-.516q0-.437.172-.671.171-.25.437-.391t.563-.219q.312-.078.578-.187.266-.126.437-.313.172-.188.172-.531 0-.328-.266-.672a14 14 0 0 0-.562-.75 8 8 0 0 1-.578-.86 2.03 2.03 0 0 1-.25-1q0-.671.265-1.234a3.4 3.4 0 0 1 .735-1 3.5 3.5 0 0 1 1.062-.656 3.2 3.2 0 0 1 1.25-.25q.25 0 .485.047.25.046.437.172a.8.8 0 0 1 .297.312.86.86 0 0 1 .125.485m7.266 6.39q0 .282-.032.735-.015.453-.125.89a2.1 2.1 0 0 1-.343.735q-.235.312-.657.312-.578 0-.89-.375t-.297-.937q-.5.436-1.141.687-.624.25-1.281.25-.453 0-.859-.218a2.7 2.7 0 0 1-.719-.563 2.9 2.9 0 0 1-.5-.766 2.2 2.2 0 0 1-.188-.859q0-.75.454-1.312a4.2 4.2 0 0 1 1.14-.954q.672-.406 1.422-.64.766-.234 1.359-.313v-.14a.6.6 0 0 0 .016-.141q0-.484-.266-.781t-.75-.297q-.39 0-.671.14a3.3 3.3 0 0 0-.532.297q-.25.157-.5.297a1.24 1.24 0 0 1-.562.125.87.87 0 0 1-.594-.218.74.74 0 0 1-.234-.563q0-.516.297-.937.312-.422.765-.704a4 4 0 0 1 1-.453 3.4 3.4 0 0 1 1-.172q.422 0 .844.11.422.093.797.312.375.204.672.516.312.297.5.703.28.578.453 1.234.172.64.265 1.329.095.67.125 1.359.032.672.032 1.312m-2.5-.5-.047-1.062h-.063a.14.14 0 0 0-.062-.016q-.203 0-.516.11-.296.094-.578.28a2.3 2.3 0 0 0-.484.392.7.7 0 0 0-.188.453q0 .218.156.297a.8.8 0 0 0 .36.078q.344 0 .734-.172.391-.188.688-.36m8.859-3.14q-.219.015-.375-.031l-.312-.126a3 3 0 0 0-.282-.109.6.6 0 0 0-.312-.047q-.313.016-.563.172a2.2 2.2 0 0 0-.437.39 2.7 2.7 0 0 0-.328.532 3 3 0 0 0-.219.563 4 4 0 0 0-.078.578 19 19 0 0 0-.016.812q-.015.453-.015.86t-.032.64q-.015.25-.078.594a2.6 2.6 0 0 1-.203.625 1.4 1.4 0 0 1-.344.5.8.8 0 0 1-.562.203.75.75 0 0 1-.469-.156 1.4 1.4 0 0 1-.328-.406 4 4 0 0 1-.219-.61 8 8 0 0 1-.125-.703q-.046-.375-.078-.75l-.031-.703v-.625q.015-.282.015-.453-.015-.548-.062-1.094a20 20 0 0 1-.031-1.11q0-.343.031-.765t.172-.781a1.6 1.6 0 0 1 .406-.625q.282-.25.766-.25.266 0 .453.172.188.171.297.422.125.25.187.53.063.282.078.516.375-.609.844-.984.47-.39 1.219-.422.375-.015.734.078.375.078.672.282.312.186.5.5.203.312.219.734.031.5-.297.766-.328.265-.797.28m11.938 1.375q0 .859-.172 1.703a4.8 4.8 0 0 1-.578 1.516 3.15 3.15 0 0 1-1.094 1.062q-.672.406-1.688.406-1 0-1.672-.39a3.2 3.2 0 0 1-1.078-1.063 4.8 4.8 0 0 1-.562-1.484 9 9 0 0 1-.156-1.688q0-.938.218-1.86.048-.249.172-.687.141-.453.344-.875.219-.436.484-.75.282-.312.61-.312.312 0 .5.172t.297.437q.108.251.14.547.031.282.031.516 0 .36-.062.703-.047.344-.109.687l-.125.938a9 9 0 0 0-.032 1.469q.032.281.125.547.094.266.266.453.172.172.484.172.407 0 .641-.22.25-.217.359-.546.126-.328.157-.703.03-.376.031-.688 0-.687-.094-1.343-.094-.672-.172-1.36a1.5 1.5 0 0 1 .063-.687 1.5 1.5 0 0 1 .218-.422q.141-.188.344-.297a.85.85 0 0 1 .453-.125q.344 0 .61.25.266.234.437.625.188.374.297.86.125.468.188.937.078.453.093.86.032.405.032.64m10.437-.688v.813q0 .5-.031 1.094-.016.593-.094 1.203a5.3 5.3 0 0 1-.25 1.078q-.156.484-.406.797a.79.79 0 0 1-.641.312.6.6 0 0 1-.531-.281 2.2 2.2 0 0 1-.25-.688 5 5 0 0 1-.094-.796v-.641q0-.703.047-1.375t.047-1.375v-.28q0-.204-.031-.407a1.2 1.2 0 0 0-.11-.359q-.062-.156-.203-.156-.28 0-.453.297a2.7 2.7 0 0 0-.281.672q-.11.39-.156.78-.048.375-.063.563a8 8 0 0 0-.062.61q-.017.405-.063.89a9 9 0 0 1-.125 1q-.078.5-.219.922-.124.406-.328.672-.203.266-.5.266a.64.64 0 0 1-.578-.328 2.4 2.4 0 0 1-.297-.766 6.4 6.4 0 0 1-.125-.89q-.015-.454-.015-.704v-.516q.015-.25.015-.515v-.36q0-.25-.015-.546 0-.313-.032-.641a5 5 0 0 0-.062-.594 1.4 1.4 0 0 0-.141-.453q-.093-.172-.219-.172-.202 0-.375.266-.171.25-.296.61-.125.343-.204.687-.062.344-.062.5v.094q0 .75.094 1.468.093.72.093 1.469 0 .438-.281.813-.281.36-.781.359a.76.76 0 0 1-.594-.266 2.4 2.4 0 0 1-.39-.718 6 6 0 0 1-.25-.954 12 12 0 0 1-.11-1.03 45 45 0 0 1-.047-.923v-.625q0-.234-.015-.687 0-.453.015-.985.031-.53.094-1.078.063-.562.203-1.015t.36-.735a.73.73 0 0 1 .593-.297q.406 0 .657.22.265.218.265.655 0 .094-.015.188 0 .094-.016.172.172-.25.422-.5.25-.266.531-.469a2.6 2.6 0 0 1 .625-.344q.329-.14.656-.14a.97.97 0 0 1 .563.172q.25.171.437.437.187.25.313.547.124.297.172.562.156-.281.375-.562.234-.297.5-.516.265-.218.578-.36.329-.14.672-.14.327 0 .562.235.234.234.406.609.173.36.266.828.094.453.156.906.063.438.078.829.016.374.016.593m11.438 2.953q0 .282-.032.735-.015.453-.125.89a2.1 2.1 0 0 1-.343.735q-.235.312-.657.312-.578 0-.89-.375-.314-.375-.297-.937-.5.436-1.141.687-.625.25-1.281.25-.453 0-.859-.218a2.7 2.7 0 0 1-.719-.563 2.8 2.8 0 0 1-.5-.766 2.2 2.2 0 0 1-.188-.859q0-.75.453-1.312a4.3 4.3 0 0 1 1.141-.954q.672-.406 1.422-.64a8.5 8.5 0 0 1 1.359-.313v-.14a.6.6 0 0 0 .016-.141q0-.484-.266-.781t-.75-.297q-.39 0-.672.14a3.3 3.3 0 0 0-.531.297q-.25.157-.5.297a1.24 1.24 0 0 1-.562.125.87.87 0 0 1-.594-.218.74.74 0 0 1-.234-.563q0-.516.296-.937.313-.422.766-.704a4 4 0 0 1 1-.453 3.4 3.4 0 0 1 1-.172q.422 0 .844.11.422.093.797.312.375.204.672.516.312.297.5.703.28.578.453 1.234.172.64.265 1.329.094.67.125 1.359.032.672.032 1.312m-2.5-.5-.047-1.062h-.063a.14.14 0 0 0-.062-.016q-.204 0-.516.11a2.3 2.3 0 0 0-.578.28 2.3 2.3 0 0 0-.484.392.7.7 0 0 0-.188.453q0 .218.156.297a.8.8 0 0 0 .36.078q.344 0 .734-.172.39-.188.688-.36m10.171-7.578q0 1.14-.093 2.266-.078 1.125-.078 2.266 0 .92.046 1.828.063.906.063 1.828 0 .25-.016.61-.015.342-.109.671a1.3 1.3 0 0 1-.281.563q-.188.234-.547.234a1.01 1.01 0 0 1-.781-.344 1.7 1.7 0 0 1-.375-.797 2.7 2.7 0 0 1-.86.953q-.562.39-1.219.391a1.72 1.72 0 0 1-1.218-.484 4.3 4.3 0 0 1-.844-1.172 7 7 0 0 1-.5-1.438 6.5 6.5 0 0 1-.156-1.297q0-.39.047-.89t.156-1.016a8 8 0 0 1 .312-1q.188-.5.469-.89.297-.391.688-.626.406-.234.921-.234.563 0 1.079.328.515.328.781.813l.14-2.485q.016-.297.047-.687.032-.406.125-.766.11-.359.328-.61.22-.25.641-.25.453 0 .703.22.25.218.36.562.125.328.14.719.031.39.031.734m-2.546 6.938q0-.36-.016-.703-.015-.345 0-.703a8 8 0 0 0-.219-.438 2 2 0 0 0-.312-.453 1.6 1.6 0 0 0-.391-.36.85.85 0 0 0-.469-.14.6.6 0 0 0-.453.172 1 1 0 0 0-.25.422 2.5 2.5 0 0 0-.109.515 8 8 0 0 0-.016.485q0 .187.031.562.032.36.11.734.094.376.25.657.156.28.422.281.203 0 .406-.078.202-.095.375-.219a3 3 0 0 0 .344-.297q.171-.171.297-.312zm10.421-1.125q0 .859-.171 1.703a4.7 4.7 0 0 1-.579 1.516q-.405.655-1.093 1.062-.672.406-1.688.406-1 0-1.672-.39a3.2 3.2 0 0 1-1.078-1.063 4.8 4.8 0 0 1-.562-1.484 9 9 0 0 1-.157-1.688q0-.938.219-1.86.047-.249.172-.687.14-.453.344-.875.219-.436.484-.75.282-.312.61-.312.312 0 .5.172t.296.437q.11.251.141.547.031.282.031.516 0 .36-.062.703a15 15 0 0 1-.11.687l-.125.938a9.5 9.5 0 0 0-.031 1.469q.032.281.125.547.094.266.266.453.172.172.484.172.407 0 .641-.22.25-.217.359-.546a2.5 2.5 0 0 0 .156-.703q.032-.376.032-.688 0-.687-.094-1.343-.094-.672-.172-1.36a1.45 1.45 0 0 1 .063-.687 1.5 1.5 0 0 1 .218-.422q.141-.188.344-.297a.85.85 0 0 1 .453-.125q.343 0 .61.25.265.234.437.625.188.374.297.86.125.468.187.937.08.453.094.86.031.405.031.64m3.875-5q0 .843-.078 1.703a23 23 0 0 0-.062 1.703q0 1.11.062 2.219.078 1.11.078 2.234 0 .282-.031.64-.031.344-.156.641a1.2 1.2 0 0 1-.344.5q-.234.204-.625.204-.375 0-.656-.376a3.3 3.3 0 0 1-.453-.921 12 12 0 0 1-.297-1.282q-.11-.702-.172-1.359-.047-.672-.078-1.219a36 36 0 0 1-.016-.828q0-.296.016-.86.031-.561.109-1.218t.203-1.328q.141-.688.36-1.234.22-.564.515-.907.314-.36.735-.36.344 0 .515.235.188.219.266.547.078.312.094.672.015.344.015.594m4.829 10.031q-1.11 0-1.735-.297a2 2 0 0 1-.922-.812q-.297-.532-.359-1.282-.063-.75-.063-1.671 0-.735.047-1.47.047-.75.141-1.593-.219 0-.344.016h-.203a1.6 1.6 0 0 1-.859-.22q-.375-.218-.375-.671a.7.7 0 0 1 .218-.5q.204-.218.532-.375.328-.156.703-.25.39-.093.734-.125 0-.438.063-.969.062-.531.218-.984.172-.47.454-.781a.92.92 0 0 1 .718-.313q.25 0 .438.156.203.142.328.375.125.22.187.5.063.282.063.547 0 .313-.047.64-.046.33-.172.813a4 4 0 0 1 .36-.03 1 1 0 0 1 .171-.016q.267 0 .547.046.297.048.532.157.25.11.406.297a.6.6 0 0 1 .156.421.67.67 0 0 1-.234.5q-.22.219-.563.375a4 4 0 0 1-.734.25 7 7 0 0 1-.735.11q-.093.64-.14 1.187-.031.531-.078 1.078l-.063.547q-.015.266-.015.547 0 .203.015.484.016.267.11.516.093.25.296.438.203.172.563.172.219 0 .453-.032.235-.047.469-.047.406 0 .578.282.187.281.187.718a.9.9 0 0 1-.203.579 1.35 1.35 0 0 1-.484.374 2.6 2.6 0 0 1-.672.235q-.36.078-.687.078m5.328-.11q-.797 0-1.391-.421a3.7 3.7 0 0 1-1-1.078 5.2 5.2 0 0 1-.609-1.453 6.5 6.5 0 0 1-.203-1.594q0-.828.203-1.703.202-.89.625-1.61.421-.735 1.078-1.187.656-.47 1.562-.469.875 0 1.485.484.625.47 1 1.188.375.703.531 1.547a6.5 6.5 0 0 1 .109 1.594 8.6 8.6 0 0 1-.265 1.671 5.3 5.3 0 0 1-.61 1.516 3.5 3.5 0 0 1-1.031 1.094q-.625.422-1.484.422m.156-7.062q-.234 0-.422.25-.172.25-.297.61-.11.36-.172.765-.062.39-.062.688 0 .374.062.812.078.438.203.813.126.36.297.609.188.234.422.234.25 0 .422-.234.188-.234.297-.594.11-.36.156-.781a8 8 0 0 0 .047-.812q0-.345-.062-.75a4.3 4.3 0 0 0-.188-.782 1.8 1.8 0 0 0-.297-.593q-.171-.235-.406-.235m14.344 3.828q0 .531-.344 1.047-.328.5-.844.906-.5.39-1.078.641-.578.234-1.062.234a2.76 2.76 0 0 1-1.485-.406 3.9 3.9 0 0 1-1.078-1.062 5.1 5.1 0 0 1-.672-1.407 5.6 5.6 0 0 1-.219-1.515q0-.781.219-1.672.22-.89.656-1.64.454-.75 1.125-1.25.688-.5 1.625-.5.532 0 1.016.187a2.46 2.46 0 0 1 1.422 1.281q.219.453.219 1.016 0 .735-.313 1.375a3.6 3.6 0 0 1-.828 1.109 4.4 4.4 0 0 1-1.187.766 4 4 0 0 1-1.375.312q.062.452.359.656.312.204.734.204.313 0 .61-.157.297-.156.578-.343.281-.204.547-.36.281-.156.562-.156a.87.87 0 0 1 .563.203q.25.203.25.531m-2.532-3.828a.94.94 0 0 0-.109-.422.36.36 0 0 0-.344-.218.9.9 0 0 0-.578.187 1.4 1.4 0 0 0-.39.453 2.6 2.6 0 0 0-.25.578 3 3 0 0 0-.094.578q.22-.046.515-.125a3 3 0 0 0 .579-.203 1.6 1.6 0 0 0 .468-.343.66.66 0 0 0 .203-.485m16.407 1.453v.813q0 .5-.032 1.094-.015.593-.093 1.203a5.3 5.3 0 0 1-.25 1.078q-.156.484-.407.797a.78.78 0 0 1-.64.312.6.6 0 0 1-.531-.281 2.2 2.2 0 0 1-.25-.688 5 5 0 0 1-.094-.796v-.641q0-.703.047-1.375t.047-1.375V83.1q0-.204-.032-.407a1.2 1.2 0 0 0-.109-.359q-.063-.156-.203-.156-.282 0-.453.297a2.7 2.7 0 0 0-.282.672q-.109.39-.156.78-.047.375-.062.563a9 9 0 0 0-.063.61q-.015.405-.062.89a9 9 0 0 1-.125 1q-.078.5-.219.922a2.1 2.1 0 0 1-.328.672q-.203.266-.5.266a.64.64 0 0 1-.578-.328 2.4 2.4 0 0 1-.297-.766 6 6 0 0 1-.125-.89 20 20 0 0 1-.016-.704v-.516a8 8 0 0 0 .016-.515v-.36a10 10 0 0 0-.016-.546 7 7 0 0 0-.031-.641 5 5 0 0 0-.063-.594 1.5 1.5 0 0 0-.14-.453q-.094-.172-.219-.172-.202 0-.375.266-.172.25-.297.61-.125.343-.203.687-.062.344-.062.5v.094q0 .75.093 1.468.094.72.094 1.469 0 .438-.281.813-.282.36-.781.359a.76.76 0 0 1-.594-.266 2.4 2.4 0 0 1-.391-.718 6 6 0 0 1-.25-.954 13 13 0 0 1-.109-1.03 39 39 0 0 1-.047-.923v-.625q0-.234-.016-.687 0-.453.016-.985.031-.53.094-1.078.062-.562.203-1.015.14-.453.359-.735a.73.73 0 0 1 .594-.297q.407 0 .656.22.266.218.266.655 0 .094-.016.188 0 .094-.015.172.171-.25.421-.5.25-.266.532-.469a2.6 2.6 0 0 1 .625-.344 1.65 1.65 0 0 1 .656-.14q.312 0 .562.172t.438.437q.187.25.312.547.126.297.172.562.156-.281.375-.562.235-.297.5-.516.266-.218.578-.36.329-.14.672-.14.329 0 .563.235t.406.609q.172.36.266.828.093.453.156.906.063.438.078.829.016.374.016.593m7.578 2.375q0 .531-.344 1.047-.328.5-.844.906a5 5 0 0 1-1.078.641q-.577.234-1.062.234a2.77 2.77 0 0 1-1.485-.406 3.9 3.9 0 0 1-1.078-1.062 5.2 5.2 0 0 1-.672-1.407 5.6 5.6 0 0 1-.218-1.515q0-.781.218-1.672a6.1 6.1 0 0 1 .657-1.64q.453-.75 1.125-1.25.687-.5 1.625-.5.53 0 1.015.187a2.46 2.46 0 0 1 1.422 1.281q.219.453.219 1.016 0 .735-.313 1.375a3.6 3.6 0 0 1-.828 1.109 4.4 4.4 0 0 1-1.187.766 4 4 0 0 1-1.375.312q.062.452.359.656.312.204.734.204.313 0 .61-.157.296-.156.578-.343.281-.204.547-.36.281-.156.562-.156a.87.87 0 0 1 .563.203q.25.203.25.531m-2.531-3.828a.94.94 0 0 0-.11-.422.36.36 0 0 0-.344-.218.9.9 0 0 0-.578.187 1.4 1.4 0 0 0-.39.453q-.156.266-.25.578a3 3 0 0 0-.094.578q.219-.046.516-.125.312-.078.578-.203a1.6 1.6 0 0 0 .468-.343.66.66 0 0 0 .204-.485m9.89-3.672q0 1.14-.094 2.266-.078 1.125-.078 2.266 0 .92.047 1.828.063.906.063 1.828 0 .25-.016.61-.015.342-.109.671a1.3 1.3 0 0 1-.282.563q-.187.234-.546.234-.469 0-.782-.344a1.7 1.7 0 0 1-.375-.797 2.7 2.7 0 0 1-.859.953q-.562.39-1.219.391-.703 0-1.219-.484a4.3 4.3 0 0 1-.843-1.172 7 7 0 0 1-.5-1.438 6.5 6.5 0 0 1-.157-1.297 10 10 0 0 1 .204-1.906 8 8 0 0 1 .312-1q.187-.5.469-.89.297-.391.687-.626a1.8 1.8 0 0 1 .922-.234q.563 0 1.078.328t.782.813l.14-2.485q.016-.297.047-.687.032-.406.125-.766.11-.359.328-.61.22-.25.641-.25.453 0 .703.22.25.218.359.562.126.328.141.719.031.39.031.734m-2.547 6.938q0-.36-.015-.703a8 8 0 0 1 0-.703 9 9 0 0 0-.219-.438 2 2 0 0 0-.313-.453 1.6 1.6 0 0 0-.39-.36.85.85 0 0 0-.469-.14.6.6 0 0 0-.453.172 1 1 0 0 0-.25.422 2.5 2.5 0 0 0-.109.515 8 8 0 0 0-.016.485q0 .187.031.562.031.36.11.734.093.376.25.657.156.28.421.281.203 0 .407-.078.203-.095.375-.219.187-.141.343-.297.173-.171.297-.312zm6.157-7.563a.65.65 0 0 1-.125.39 1.2 1.2 0 0 1-.297.313 2 2 0 0 1-.407.204 1.5 1.5 0 0 1-.406.062.97.97 0 0 1-.547-.156q-.234-.156-.234-.485a.74.74 0 0 1 .109-.406q.126-.188.297-.297a1.2 1.2 0 0 1 .391-.187q.219-.063.422-.063.297 0 .547.14.25.142.25.485m.125 5.313v.469q0 .234-.016.453-.016.265-.016.718 0 .438-.031.954a12 12 0 0 1-.109 1.046 4.4 4.4 0 0 1-.219.97 2 2 0 0 1-.422.718.9.9 0 0 1-.641.281.58.58 0 0 1-.5-.234 2.2 2.2 0 0 1-.343-.64 5.3 5.3 0 0 1-.188-.891 18 18 0 0 1-.094-.954q-.03-.469-.031-.859v-1.281q0-.47.031-1 .032-.531.11-1.078.094-.547.25-1 .171-.453.437-.735a.88.88 0 0 1 .672-.281q.422 0 .641.422t.328.984q.11.562.125 1.125.015.547.016.813m6.531-.25q-.219.015-.375-.031l-.313-.126a3 3 0 0 0-.281-.109.6.6 0 0 0-.312-.047q-.313.016-.563.172a2.2 2.2 0 0 0-.437.39 2.7 2.7 0 0 0-.329.532 3 3 0 0 0-.218.563 4 4 0 0 0-.078.578 19 19 0 0 0-.016.812q-.016.453-.016.86t-.031.64q-.015.25-.078.594a2.6 2.6 0 0 1-.203.625 1.4 1.4 0 0 1-.344.5.8.8 0 0 1-.562.203.75.75 0 0 1-.469-.156 1.4 1.4 0 0 1-.328-.406 3.7 3.7 0 0 1-.219-.61 8 8 0 0 1-.125-.703q-.047-.375-.078-.75l-.031-.703v-.625q.015-.282.015-.453-.015-.548-.062-1.094a20 20 0 0 1-.032-1.11q0-.343.032-.765.031-.422.172-.781a1.6 1.6 0 0 1 .406-.625q.281-.25.765-.25.267 0 .454.172.188.171.296.422.125.25.188.53.063.282.078.516.375-.609.844-.984.469-.39 1.219-.422.374-.015.734.078.375.078.672.282.312.186.5.5.202.312.219.734.03.5-.297.766a1.3 1.3 0 0 1-.797.28m-132.219 24.64q0 .282-.031.735a4.3 4.3 0 0 1-.125.89 2.1 2.1 0 0 1-.344.735q-.234.312-.656.312-.578 0-.891-.375-.312-.375-.297-.937a3.8 3.8 0 0 1-1.14.687q-.625.25-1.282.25-.453 0-.859-.219a2.7 2.7 0 0 1-.719-.562 2.9 2.9 0 0 1-.5-.766 2.2 2.2 0 0 1-.187-.859q0-.75.453-1.313a4.3 4.3 0 0 1 1.141-.953q.67-.405 1.421-.64a8.5 8.5 0 0 1 1.36-.313v-.14a.6.6 0 0 0 .015-.141q0-.484-.265-.781-.266-.297-.75-.297-.391 0-.672.14a3.4 3.4 0 0 0-.531.297q-.25.157-.5.297a1.2 1.2 0 0 1-.563.125.87.87 0 0 1-.594-.219.73.73 0 0 1-.234-.562q0-.516.297-.938.312-.421.766-.703a4 4 0 0 1 1-.453 3.4 3.4 0 0 1 1-.172q.421 0 .843.11.422.093.797.312.375.204.672.516.312.297.5.703.282.578.453 1.234.172.64.266 1.328.093.672.125 1.36.031.672.031 1.312m-2.5-.5-.047-1.062h-.062a.13.13 0 0 0-.063-.016q-.203 0-.515.11a2.3 2.3 0 0 0-.579.281 2.3 2.3 0 0 0-.484.39.7.7 0 0 0-.187.454q0 .218.156.296a.8.8 0 0 0 .359.079q.343 0 .735-.172.39-.187.687-.36m14.281-2.625q0 .798-.031 1.594-.015.797-.078 1.594-.047.687-.125 1.469-.078.78-.25 1.546a9.6 9.6 0 0 1-.453 1.485 4.4 4.4 0 0 1-.75 1.265 3.4 3.4 0 0 1-1.11.875q-.656.329-1.562.329-.422 0-.953-.141a4.2 4.2 0 0 1-.985-.375 2.9 2.9 0 0 1-.781-.625 1.25 1.25 0 0 1-.312-.844q0-.358.25-.672a.86.86 0 0 1 .672-.297q.249 0 .468.079.236.093.453.203.236.11.438.187.22.094.437.094.579 0 .969-.297.391-.28.625-.734.234-.438.344-.969.125-.516.172-.984a1.67 1.67 0 0 1-.735.5q-.406.125-.859.125-.828 0-1.406-.282a2.6 2.6 0 0 1-.938-.797 3.6 3.6 0 0 1-.531-1.187 5.8 5.8 0 0 1-.172-1.453q0-.485.094-1.094.11-.61.312-1.234.204-.625.5-1.219a5.2 5.2 0 0 1 .719-1.047q.407-.453.906-.734a2.3 2.3 0 0 1 1.125-.282q.594 0 1.047.344.47.343.547.969a3.2 3.2 0 0 1 .453-.641.88.88 0 0 1 .688-.328q.219 0 .359.219.156.22.235.578.093.343.14.766.047.406.063.812.015.391.015.719zm-2.375 1.016a3 3 0 0 0-.078-.609 3.3 3.3 0 0 0-.203-.719 2 2 0 0 0-.328-.594q-.203-.25-.484-.25a.94.94 0 0 0-.641.25q-.266.25-.453.609a3.5 3.5 0 0 0-.297.75 3 3 0 0 0-.094.672q0 .204.031.547.032.344.125.672.11.328.282.563a.53.53 0 0 0 .453.234q.422 0 .734-.203.313-.203.516-.516.219-.312.328-.687t.109-.719m6.407-5.156q0 .843-.079 1.703-.062.843-.062 1.703 0 1.11.062 2.219.08 1.109.079 2.234 0 .281-.032.641a2.2 2.2 0 0 1-.156.64 1.2 1.2 0 0 1-.344.5q-.234.203-.625.203-.375 0-.656-.375a3.3 3.3 0 0 1-.453-.921 12 12 0 0 1-.297-1.282q-.11-.703-.172-1.359-.046-.672-.078-1.219-.016-.562-.016-.828 0-.297.016-.859.031-.563.109-1.219.079-.656.204-1.328.14-.688.359-1.234.219-.564.516-.907.312-.36.734-.36.344 0 .516.235.187.219.265.547.079.312.094.672.016.344.016.594m3.765-1.438a.64.64 0 0 1-.125.39 1.2 1.2 0 0 1-.297.313q-.187.125-.406.204a1.5 1.5 0 0 1-.406.062.96.96 0 0 1-.547-.156q-.234-.156-.234-.485a.74.74 0 0 1 .109-.406 1 1 0 0 1 .297-.297q.172-.125.39-.187a1.5 1.5 0 0 1 .422-.063q.297 0 .547.14.25.142.25.485m.125 5.313v.468q0 .235-.015.454-.016.265-.016.718 0 .438-.031.953-.032.516-.11 1.047a4.4 4.4 0 0 1-.218.969 2 2 0 0 1-.422.719.9.9 0 0 1-.641.281.58.58 0 0 1-.5-.234 2.2 2.2 0 0 1-.344-.641 5.3 5.3 0 0 1-.187-.891 17 17 0 0 1-.094-.953 13 13 0 0 1-.031-.859v-1.281q0-.47.031-1 .031-.531.109-1.078.094-.547.25-1a2.2 2.2 0 0 1 .438-.735.9.9 0 0 1 .672-.281q.422 0 .64.422.22.421.329.984.108.562.125 1.125.015.547.015.813m6.906-.407q0 .08-.015.172a1 1 0 0 1-.047.157q-.141.358-.438.609a1.1 1.1 0 0 1-.703.234q-.609 0-.828-.609a.5.5 0 0 1-.031-.172q0-.11-.016-.219v-.453a.9.9 0 0 0-.109-.344q-.078-.125-.266-.125-.266 0-.515.344a3.8 3.8 0 0 0-.422.797 7 7 0 0 0-.281.938 3.7 3.7 0 0 0-.11.781q0 .234.031.578.032.328.125.641.094.312.25.546a.53.53 0 0 0 .438.219.8.8 0 0 0 .484-.156q.236-.172.453-.391.204-.187.438-.39a.87.87 0 0 1 .562-.203q.391 0 .61.281a.97.97 0 0 1 .234.64q0 .532-.281 1a3.2 3.2 0 0 1-.703.797 3.4 3.4 0 0 1-.938.516 2.7 2.7 0 0 1-.984.203q-.844 0-1.438-.422a3.3 3.3 0 0 1-.937-1.062 5 5 0 0 1-.516-1.422 7.3 7.3 0 0 1-.156-1.453q0-.797.219-1.719.219-.937.672-1.734a4.3 4.3 0 0 1 1.156-1.329q.719-.531 1.703-.531.609 0 1.047.266.453.265.734.703.297.422.438.953.156.531.156 1.047v.156a1 1 0 0 1-.016.156m7.422 3.219q0 .531-.343 1.047-.328.5-.844.906a5 5 0 0 1-1.078.641q-.579.234-1.063.234a2.76 2.76 0 0 1-1.484-.406 3.9 3.9 0 0 1-1.078-1.062 5.1 5.1 0 0 1-.672-1.407 5.6 5.6 0 0 1-.219-1.515q0-.781.219-1.672a6.1 6.1 0 0 1 .656-1.641q.453-.75 1.125-1.25.687-.5 1.625-.5.531 0 1.016.188.484.171.843.5.36.328.579.781t.218 1.016a3.1 3.1 0 0 1-.312 1.375 3.7 3.7 0 0 1-.828 1.109q-.516.468-1.188.766a4 4 0 0 1-1.375.312q.063.453.36.656.312.203.734.203.312 0 .609-.156t.578-.344q.282-.203.547-.359.282-.156.563-.156a.87.87 0 0 1 .562.203.65.65 0 0 1 .25.531m-2.531-3.828a.94.94 0 0 0-.109-.422.36.36 0 0 0-.344-.219.9.9 0 0 0-.578.188 1.4 1.4 0 0 0-.391.453q-.156.266-.25.578a3 3 0 0 0-.094.578q.219-.047.516-.125.312-.078.578-.203.282-.14.469-.344a.66.66 0 0 0 .203-.484m12.641 1.453v.813q0 .5-.032 1.093-.015.594-.093 1.204a5.3 5.3 0 0 1-.25 1.078q-.156.484-.407.797a.78.78 0 0 1-.64.312.6.6 0 0 1-.531-.281 2.2 2.2 0 0 1-.25-.688 5 5 0 0 1-.094-.797v-.64q0-.703.047-1.375t.047-1.375v-.281q0-.203-.032-.407a1.2 1.2 0 0 0-.109-.359q-.063-.156-.203-.156-.282 0-.453.297a2.6 2.6 0 0 0-.282.671 5 5 0 0 0-.156.782q-.047.375-.062.562a9 9 0 0 0-.063.61q-.015.405-.062.89a9 9 0 0 1-.125 1 5.6 5.6 0 0 1-.219.922 2.1 2.1 0 0 1-.328.672q-.203.266-.5.266a.64.64 0 0 1-.578-.329 2.4 2.4 0 0 1-.297-.765 6 6 0 0 1-.125-.891 20 20 0 0 1-.016-.703v-.516q.016-.25.016-.515v-.36a10 10 0 0 0-.016-.546q0-.313-.031-.641a5 5 0 0 0-.063-.594 1.5 1.5 0 0 0-.14-.453q-.094-.172-.219-.172-.202 0-.375.266-.172.25-.297.609a6 6 0 0 0-.203.688 3 3 0 0 0-.062.5v.093q0 .75.093 1.469.094.719.094 1.469 0 .438-.281.812-.282.36-.781.36a.76.76 0 0 1-.594-.266 2.3 2.3 0 0 1-.391-.719 6 6 0 0 1-.25-.953 13 13 0 0 1-.109-1.031 39 39 0 0 1-.047-.922v-.625q0-.234-.016-.687 0-.453.016-.985.031-.53.094-1.078a5.4 5.4 0 0 1 .203-1.015q.14-.453.359-.735a.73.73 0 0 1 .594-.297q.407 0 .656.219.266.22.266.656 0 .094-.016.188 0 .094-.015.172.171-.25.421-.5.25-.266.532-.469.297-.219.625-.344.327-.14.656-.14.312 0 .562.171t.438.438q.188.25.312.547.126.297.172.562.156-.281.375-.562.235-.297.5-.516a2.6 2.6 0 0 1 .578-.359q.329-.141.672-.141.329 0 .563.235t.406.609q.172.36.266.828.093.453.156.906.063.438.078.828.016.375.016.594m3.609-5.75a.65.65 0 0 1-.125.39 1.2 1.2 0 0 1-.297.313q-.187.125-.406.204a1.5 1.5 0 0 1-.406.062.96.96 0 0 1-.547-.156q-.235-.156-.235-.485a.74.74 0 0 1 .11-.406 1 1 0 0 1 .297-.297q.171-.125.39-.187a1.5 1.5 0 0 1 .422-.063q.297 0 .547.14.25.142.25.485m.125 5.313v.468q0 .235-.016.454-.015.265-.015.718 0 .438-.031.953-.032.516-.11 1.047a4.3 4.3 0 0 1-.219.969 2 2 0 0 1-.421.719.9.9 0 0 1-.641.281.58.58 0 0 1-.5-.234 2.2 2.2 0 0 1-.344-.641 5.3 5.3 0 0 1-.187-.891 17 17 0 0 1-.094-.953 13 13 0 0 1-.031-.859v-1.281q0-.47.031-1 .031-.531.109-1.078.094-.547.25-1a2.2 2.2 0 0 1 .438-.735.9.9 0 0 1 .672-.281q.421 0 .64.422a3.6 3.6 0 0 1 .328.984q.11.562.125 1.125.016.547.016.813m7.75 3.39q0 .282-.031.735a4.3 4.3 0 0 1-.125.89 2.1 2.1 0 0 1-.344.735q-.234.312-.656.312-.578 0-.891-.375-.312-.375-.297-.937a3.8 3.8 0 0 1-1.14.687q-.625.25-1.282.25-.453 0-.859-.219a2.7 2.7 0 0 1-.719-.562 2.9 2.9 0 0 1-.5-.766 2.2 2.2 0 0 1-.187-.859q0-.75.453-1.313a4.3 4.3 0 0 1 1.141-.953q.67-.405 1.421-.64a8.5 8.5 0 0 1 1.36-.313v-.14a.6.6 0 0 0 .015-.141q0-.484-.265-.781-.266-.297-.75-.297-.392 0-.672.14a3.4 3.4 0 0 0-.531.297q-.25.157-.5.297a1.2 1.2 0 0 1-.563.125.87.87 0 0 1-.594-.219.73.73 0 0 1-.234-.562q0-.516.297-.938.312-.421.766-.703a4 4 0 0 1 1-.453 3.4 3.4 0 0 1 1-.172q.422 0 .843.11.423.093.797.312.375.204.672.516.312.297.5.703.282.578.453 1.234.172.64.266 1.328.093.672.125 1.36.031.672.031 1.312m-2.5-.5-.047-1.062h-.062a.13.13 0 0 0-.063-.016q-.203 0-.515.11a2.3 2.3 0 0 0-.579.281 2.3 2.3 0 0 0-.484.39.7.7 0 0 0-.187.454q0 .218.156.296a.8.8 0 0 0 .359.079q.344 0 .735-.172.39-.187.687-.36m5.703 1.953a.76.76 0 0 1-.094.375.84.84 0 0 1-.25.266q-.14.11-.328.172a1 1 0 0 1-.359.062 1.7 1.7 0 0 1-.516-.093 1.8 1.8 0 0 1-.5-.235 1.8 1.8 0 0 1-.375-.359.8.8 0 0 1-.156-.484q0-.423.359-.625a1.4 1.4 0 0 1 1.219-.141q.266.078.485.234.234.141.375.36.14.203.14.468"/><defs><filter id="a" width="275.758" height="190" x="0" y="0" color-interpolation-filters="sRGB" filterUnits="userSpaceOnUse"><feFlood flood-opacity="0" result="BackgroundImageFix"/><feBlend in="SourceGraphic" in2="BackgroundImageFix" result="shape"/><feColorMatrix in="SourceAlpha" result="hardAlpha" values="0 0 0 0 0 0 0 0 0 0 0 0 0 0 0 0 0 0 127 0"/><feOffset dy="4"/><feGaussianBlur stdDeviation="2"/><feComposite in2="hardAlpha" k2="-1" k3="1" operator="arithmetic"/><feColorMatrix values="0 0 0 0 0 0 0 0 0 0 0 0 0 0 0 0 0 0 0.25 0"/><feBlend in2="shape" result="effect1_innerShadow_1137_1495"/></filter></defs></svg>