<svg xmlns="http://www.w3.org/2000/svg" width="247" height="141" fill="none" viewBox="0 0 247 141"><g filter="url(#a)"><path fill="#3dc3ff" fill-rule="evenodd" d="M19.766 82.604C6.83 74.123 1 63.612 1 52.465 1 34.192 21.876 16.14 56.41 7.215 73.16 2.885 92.84 1 115.45 1c69.232 0 133.075 18.644 130.35 51.465 0 16.286-11.816 31.261-35.88 40.201-16.034 5.957-37.263 8.934-64.946 8.934-49.07 2.914-86.18-1.96-109.911-11.264q-.492-.193-.976-.388c-8.896 12.531-7.839 25.355-5.152 46.939-10.23-21.908-15.868-34.848-9.17-54.283" clip-rule="evenodd"/></g><path fill="#3dc3ff" d="m19.766 82.604.945.326a1 1 0 0 0-.397-1.163zM56.41 7.214l-.25-.967zM245.8 52.466l-.996-.082-.004.082zm-35.88 40.201.348.938zm-64.946 8.934v-1l-.06.002zM35.063 90.336l-.365.93v.001zm-.976-.388.375-.927a1 1 0 0 0-1.19.348zm-5.152 46.939-.906.423a1 1 0 0 0 1.898-.546zM1 52.465H0C0 64.02 6.065 74.817 19.217 83.44l.549-.836.548-.837C7.596 73.43 2 63.204 2 52.465zm55.41-45.25-.25-.968c-17.368 4.488-31.366 11.287-41.044 19.318C5.446 33.59 0 42.927 0 52.465h2c0-8.735 4.992-17.56 14.393-25.36 9.394-7.795 23.1-14.485 40.267-18.922zM115.45 1V0C92.791 0 73.02 1.889 56.16 6.247l.25.968.25.968C73.3 3.883 92.89 2 115.451 2zM245.8 52.465l.997.083c.712-8.582-2.947-16.181-9.789-22.695-6.823-6.496-16.855-11.963-29.059-16.369C183.531 4.67 150.138 0 115.451 0v2c34.544 0 67.688 4.654 91.819 13.365 12.069 4.358 21.815 9.706 28.359 15.937 6.526 6.213 9.825 13.252 9.175 21.08zm-35.88 40.201.348.938c24.284-9.022 36.532-24.278 36.532-41.139h-2c0 15.71-11.384 30.406-35.229 39.264zm-64.946 8.934v1c27.74 0 49.103-2.981 65.294-8.996l-.348-.937-.349-.938c-15.877 5.898-36.972 8.871-64.597 8.871zM35.063 90.336l-.365.931c23.92 9.379 61.193 14.25 110.335 11.331l-.059-.998-.06-.998c-48.996 2.91-85.945-1.967-109.486-11.197zm-.976-.388-.374.927q.489.197.985.392l.365-.931.365-.931q-.487-.19-.966-.384zm-5.152 46.939.992-.123c-2.694-21.646-3.663-34.07 4.976-46.237l-.816-.579-.815-.579c-9.154 12.894-8.008 26.12-5.33 47.642zm-9.17-54.283-.945-.326c-3.408 9.89-3.685 18.171-1.794 26.755 1.879 8.531 5.898 17.346 11.003 28.277l.906-.423.906-.423c-5.126-10.977-9.04-19.586-10.862-27.861-1.811-8.221-1.558-16.128 1.732-25.673z"/><path fill="#fff" d="M36.993 30.992q0 .843-.375 1.656a5.3 5.3 0 0 1-.969 1.469 5.5 5.5 0 0 1-1.39 1.062 3.9 3.9 0 0 1-1.61.453q-.015.281-.031.72 0 .42-.047.89a10 10 0 0 1-.14.937 3.3 3.3 0 0 1-.25.844q-.157.375-.423.61a.88.88 0 0 1-.625.234.9.9 0 0 1-.703-.297 2 2 0 0 1-.39-.688 4.5 4.5 0 0 1-.172-.843 15 15 0 0 1-.063-.766q-.03-.453-.047-.89v-2.907l.032-1.484q.015-.781.047-1.438.03-.672.062-1.14.047-.47.11-.547a1 1 0 0 1 .093-.063 1 1 0 0 1 .172-.11 4 4 0 0 1 .281-.171 9.5 9.5 0 0 1 1.578-.703 5.2 5.2 0 0 1 1.703-.297q.72 0 1.297.297.594.28 1 .765.422.47.641 1.11.219.625.219 1.297m-2.703.36a.96.96 0 0 0-.157-.548q-.14-.234-.484-.234a1.5 1.5 0 0 0-.594.125 5 5 0 0 0-.547.234q.048.547.078 1.063.048.515.016 1.062.251-.125.547-.281.297-.173.547-.375a2.2 2.2 0 0 0 .422-.453 1.07 1.07 0 0 0 .172-.594m6.047 8.468q-.797 0-1.391-.422a3.7 3.7 0 0 1-1-1.078 5.2 5.2 0 0 1-.61-1.453 6.6 6.6 0 0 1-.203-1.594q0-.828.203-1.703.204-.89.626-1.61.42-.734 1.078-1.187.656-.47 1.562-.469.875 0 1.485.485.624.468 1 1.187.375.703.53 1.547a6.5 6.5 0 0 1 .11 1.594 8.6 8.6 0 0 1-.265 1.672 5.3 5.3 0 0 1-.61 1.515q-.405.672-1.031 1.094t-1.484.422m.156-7.063q-.235 0-.422.25-.172.25-.297.61a5.5 5.5 0 0 0-.172.765q-.062.39-.062.688 0 .375.062.812.078.438.203.813.126.36.297.61.188.233.422.234.25 0 .422-.235.188-.234.297-.594.11-.36.156-.78.047-.438.047-.813 0-.345-.063-.75a4.3 4.3 0 0 0-.187-.782 1.8 1.8 0 0 0-.297-.593q-.172-.235-.406-.235m9.453.766q-.218.015-.375-.031l-.313-.125a3 3 0 0 0-.28-.11.6.6 0 0 0-.313-.047q-.313.015-.563.172a2.2 2.2 0 0 0-.437.39 2.7 2.7 0 0 0-.328.532 3 3 0 0 0-.22.563 4 4 0 0 0-.077.578q-.015.375-.016.812-.016.453-.016.86t-.03.64q-.016.25-.079.594-.063.328-.203.625a1.4 1.4 0 0 1-.344.5.8.8 0 0 1-.562.203.75.75 0 0 1-.47-.156 1.4 1.4 0 0 1-.327-.406 4 4 0 0 1-.219-.61 8 8 0 0 1-.125-.703q-.046-.375-.078-.75-.015-.375-.031-.703v-.625q.015-.28.015-.453-.015-.548-.062-1.094-.032-.562-.032-1.11 0-.343.032-.765.03-.422.172-.781.14-.375.406-.625.281-.25.766-.25.266 0 .453.172t.297.422a2.3 2.3 0 0 1 .187.53q.063.282.078.517.375-.61.844-.985.468-.39 1.219-.422.374-.015.734.078.375.078.672.282.312.187.5.5.203.312.219.734.03.5-.297.766-.329.265-.797.28m7.672-5.063a.65.65 0 0 1-.125.391 1.2 1.2 0 0 1-.297.313q-.187.124-.406.203a1.5 1.5 0 0 1-.407.062.96.96 0 0 1-.547-.156q-.234-.157-.234-.484a.74.74 0 0 1 .11-.407q.125-.187.296-.297.172-.124.391-.187.218-.063.422-.063.297 0 .547.141t.25.484m.125 5.313v.469q0 .234-.016.453-.015.265-.015.719 0 .437-.032.953-.03.515-.11 1.047a4.4 4.4 0 0 1-.218.968 2 2 0 0 1-.422.72.9.9 0 0 1-.64.28.58.58 0 0 1-.5-.234 2.2 2.2 0 0 1-.344-.64 5.4 5.4 0 0 1-.188-.891 17 17 0 0 1-.093-.953q-.032-.47-.032-.86v-1.281q0-.47.032-1 .03-.531.109-1.078a6.4 6.4 0 0 1 .25-1q.172-.453.438-.735a.9.9 0 0 1 .671-.28q.422 0 .641.421.219.422.328.984t.125 1.125q.015.548.016.813m5.687-3q0 .453-.312.672a6 6 0 0 1-.672.422q-.375.188-.688.453-.297.266-.297.797 0 .281.126.484.14.203.328.375.202.156.437.328t.422.39q.203.22.328.532.14.313.14.766 0 .656-.343 1.297a4.3 4.3 0 0 1-.86 1.125 4.3 4.3 0 0 1-1.171.78q-.657.298-1.297.298-.265 0-.531-.047a1.5 1.5 0 0 1-.485-.14 1.04 1.04 0 0 1-.343-.298.9.9 0 0 1-.141-.515q0-.438.172-.672.171-.25.437-.39.266-.142.563-.22.311-.078.578-.187.266-.125.437-.313.172-.188.172-.53 0-.33-.265-.673-.25-.36-.563-.75a8 8 0 0 1-.578-.86 2.04 2.04 0 0 1-.25-1q0-.67.266-1.233a3.4 3.4 0 0 1 .734-1q.47-.422 1.063-.657a3.2 3.2 0 0 1 1.25-.25q.25 0 .484.047.25.047.437.172a.8.8 0 0 1 .297.313.86.86 0 0 1 .125.484m5.203 0q0 .453-.312.672a6 6 0 0 1-.672.422q-.376.188-.687.453-.297.266-.297.797 0 .281.125.484.14.203.328.375.203.156.437.328t.422.39q.204.22.328.532.14.313.14.766 0 .656-.343 1.297a4.3 4.3 0 0 1-.86 1.125 4.3 4.3 0 0 1-1.171.78q-.657.298-1.297.298-.266 0-.531-.047a1.5 1.5 0 0 1-.485-.14 1.05 1.05 0 0 1-.343-.298.9.9 0 0 1-.141-.515q0-.438.172-.672.171-.25.437-.39.267-.142.563-.22.311-.078.578-.187.266-.125.438-.313t.171-.53q0-.33-.265-.673-.25-.36-.563-.75a8 8 0 0 1-.578-.86 2.04 2.04 0 0 1-.25-1q0-.67.266-1.233a3.4 3.4 0 0 1 .734-1q.47-.422 1.063-.657a3.2 3.2 0 0 1 1.25-.25q.25 0 .484.047.25.047.438.172a.8.8 0 0 1 .296.313.86.86 0 0 1 .125.484m3.594 9.047q-.797 0-1.39-.422a3.7 3.7 0 0 1-1-1.078 5.2 5.2 0 0 1-.61-1.453 6.6 6.6 0 0 1-.203-1.594q0-.828.203-1.703.204-.89.625-1.61.421-.734 1.078-1.187.657-.47 1.563-.469.875 0 1.484.485.625.468 1 1.187.375.703.531 1.547.157.843.11 1.594a8.6 8.6 0 0 1-.266 1.672 5.3 5.3 0 0 1-.61 1.515q-.406.672-1.03 1.094-.626.422-1.485.422m.156-7.063q-.234 0-.421.25-.172.25-.297.61-.11.36-.172.765-.063.39-.063.688 0 .375.063.812.078.438.203.813.124.36.297.61.187.233.422.234.25 0 .421-.235.189-.234.297-.594.11-.36.157-.78.046-.438.046-.813 0-.345-.062-.75a4.3 4.3 0 0 0-.187-.782 1.8 1.8 0 0 0-.297-.593q-.172-.235-.407-.235m6.282 5.782q0 .25-.141.64-.125.39-.328.766-.187.375-.438.64-.25.267-.484.266-.312 0-.312-.312a.9.9 0 0 1 .078-.36q.078-.171.171-.344a3 3 0 0 0 .172-.328.7.7 0 0 0 .079-.312.9.9 0 0 1-.5.156.79.79 0 0 1-.61-.281.92.92 0 0 1-.25-.625q0-.501.328-.797.329-.312.828-.313.563 0 .985.297t.422.907m10.937-1.954q0 .532-.344 1.047-.328.5-.843.907-.5.39-1.079.64-.578.235-1.062.235a2.76 2.76 0 0 1-1.484-.407 3.9 3.9 0 0 1-1.079-1.062 5.2 5.2 0 0 1-.671-1.406 5.6 5.6 0 0 1-.22-1.516q0-.78.22-1.672.218-.89.656-1.64a4.3 4.3 0 0 1 1.125-1.25q.687-.5 1.625-.5.531 0 1.016.187a2.45 2.45 0 0 1 1.421 1.281q.22.453.22 1.016 0 .735-.313 1.375a3.6 3.6 0 0 1-.829 1.11q-.515.468-1.187.765a4 4 0 0 1-1.375.312q.063.453.36.657.312.203.734.203.312 0 .61-.157.296-.156.577-.343.282-.203.547-.36a1.15 1.15 0 0 1 .563-.156q.312 0 .562.203t.25.531m-2.531-3.828a.94.94 0 0 0-.11-.422.36.36 0 0 0-.343-.218.9.9 0 0 0-.578.187 1.4 1.4 0 0 0-.391.453 2.6 2.6 0 0 0-.25.578 3 3 0 0 0-.094.579q.219-.047.516-.125.311-.079.578-.204.282-.14.469-.343a.66.66 0 0 0 .203-.485m.875-5.547q0 .173-.094.344-.093.156-.234.297a2.3 2.3 0 0 1-.281.266q-.157.109-.282.203a8 8 0 0 0-.25.187 3 3 0 0 1-.281.188 3 3 0 0 1-.297.14.7.7 0 0 1-.281.063.4.4 0 0 1-.219-.063.27.27 0 0 1-.094-.218q0-.235.172-.563.188-.344.453-.656.266-.328.563-.547.297-.234.547-.234.219 0 .39.187.188.172.188.406m8.625 1.25a.65.65 0 0 1-.125.391 1.2 1.2 0 0 1-.297.313q-.187.124-.406.203a1.5 1.5 0 0 1-.406.062.96.96 0 0 1-.547-.156q-.235-.157-.235-.484a.74.74 0 0 1 .11-.407 1 1 0 0 1 .296-.297q.172-.124.391-.187t.422-.063q.297 0 .547.141t.25.484m.125 5.313v.469q0 .234-.016.453-.015.265-.015.719 0 .437-.032.953a12 12 0 0 1-.109 1.047 4.4 4.4 0 0 1-.219.968 2 2 0 0 1-.422.72.9.9 0 0 1-.64.28.58.58 0 0 1-.5-.234 2.2 2.2 0 0 1-.344-.64 5.4 5.4 0 0 1-.187-.891 17 17 0 0 1-.094-.953q-.031-.47-.031-.86v-1.281q0-.47.03-1 .033-.531.11-1.078.094-.547.25-1 .172-.453.438-.735a.9.9 0 0 1 .671-.28q.422 0 .641.421.219.422.328.984t.125 1.125q.016.548.016.813m10.594.437v.813q0 .5-.032 1.094-.015.594-.093 1.203a5.3 5.3 0 0 1-.25 1.078q-.157.484-.407.797a.78.78 0 0 1-.64.312.6.6 0 0 1-.531-.28 2.2 2.2 0 0 1-.25-.688 5 5 0 0 1-.094-.797v-.64q0-.704.047-1.376t.047-1.375v-.281q0-.204-.032-.406a1.2 1.2 0 0 0-.109-.36q-.062-.156-.203-.156-.282 0-.453.297a2.7 2.7 0 0 0-.282.672q-.11.39-.156.78-.047.375-.062.563a9 9 0 0 0-.063.61q-.015.406-.062.89a9 9 0 0 1-.125 1q-.078.5-.219.922-.125.407-.328.672t-.5.266a.64.64 0 0 1-.578-.328 2.4 2.4 0 0 1-.297-.766 6 6 0 0 1-.125-.89 20 20 0 0 1-.016-.704v-.515q.016-.25.016-.516v-.36a10 10 0 0 0-.016-.546 7 7 0 0 0-.031-.64 5 5 0 0 0-.063-.595 1.5 1.5 0 0 0-.14-.453q-.094-.171-.219-.172-.203 0-.375.266-.172.25-.297.61-.125.343-.203.687-.062.344-.062.5v.094q0 .75.093 1.468.094.72.094 1.47 0 .436-.281.812-.282.36-.781.36a.76.76 0 0 1-.594-.267 2.3 2.3 0 0 1-.39-.718 6 6 0 0 1-.25-.953 12 12 0 0 1-.11-1.032q-.032-.514-.047-.922v-.625q0-.234-.016-.687 0-.453.016-.984a20 20 0 0 1 .094-1.079 5.5 5.5 0 0 1 .203-1.015 2.3 2.3 0 0 1 .36-.735.73.73 0 0 1 .593-.296q.406 0 .656.218.266.219.266.657 0 .093-.016.187 0 .094-.016.172.173-.25.422-.5.25-.265.532-.469a2.6 2.6 0 0 1 .625-.344 1.65 1.65 0 0 1 .656-.14q.313 0 .562.172t.438.437q.188.251.312.547.126.297.172.563.156-.282.375-.563a3.4 3.4 0 0 1 .5-.516q.266-.218.578-.359.328-.14.672-.14.329 0 .563.234t.406.61q.172.359.266.827.093.453.156.907.063.436.078.828.016.375.016.593m8.187.5q0 .688-.156 1.516a5.3 5.3 0 0 1-.5 1.516q-.344.703-.922 1.172-.562.468-1.422.468-.219 0-.453-.03a2.2 2.2 0 0 1-.453-.11 1.6 1.6 0 0 1-.375-.203.9.9 0 0 1-.266-.36l-.14 2.25q-.016.36-.032.86 0 .499-.125.953a1.7 1.7 0 0 1-.39.765q-.266.329-.781.328-.297 0-.5-.312a2.5 2.5 0 0 1-.329-.766 9 9 0 0 1-.171-1.047 14 14 0 0 1-.079-1.109 35 35 0 0 1-.015-.969v-.64q0-1.047-.016-2.078-.015-1.047-.015-2.094v-.578q0-.407.031-.875.031-.47.094-.97.078-.498.218-.905.141-.423.36-.672a.66.66 0 0 1 .531-.266q.203 0 .359.125a.86.86 0 0 1 .282.297q.125.172.203.375t.125.375a3.3 3.3 0 0 1 1.109-.828q.64-.282 1.359-.281.75 0 1.219.422.484.421.75 1.046.282.626.391 1.344.11.703.109 1.281m-2.234-.125q0-.234-.047-.468a1.3 1.3 0 0 0-.141-.453.76.76 0 0 0-.281-.344.76.76 0 0 0-.469-.14q-.375 0-.797.25-.406.233-.609.546-.078.125-.094.406-.015.282-.015.422v.297l.031.36.031.359q.031.172.078.265a.6.6 0 0 0 .203.266q.157.109.344.203.188.095.375.14.204.048.344.048a.65.65 0 0 0 .531-.25q.204-.25.313-.594.124-.345.156-.703.047-.375.047-.61m6.156 5.235q-.797 0-1.391-.422a3.7 3.7 0 0 1-1-1.078 5.2 5.2 0 0 1-.609-1.453 6.6 6.6 0 0 1-.203-1.594q0-.828.203-1.703.203-.89.625-1.61.422-.734 1.078-1.187.656-.47 1.563-.469.875 0 1.484.485.625.468 1 1.187.375.703.531 1.547.156.843.11 1.594a8.6 8.6 0 0 1-.266 1.672 5.3 5.3 0 0 1-.609 1.515 3.5 3.5 0 0 1-1.032 1.094q-.624.422-1.484.422m.156-7.063q-.234 0-.422.25-.171.25-.296.61-.11.36-.172.765-.063.39-.063.688 0 .375.063.812.078.438.203.813.124.36.297.61.187.233.422.234.25 0 .421-.235.188-.234.297-.594.11-.36.157-.78.046-.438.046-.813 0-.345-.062-.75a4.3 4.3 0 0 0-.188-.782 1.8 1.8 0 0 0-.296-.593q-.172-.235-.407-.235m9.453.766q-.218.015-.375-.031l-.312-.125a3 3 0 0 0-.281-.11.6.6 0 0 0-.313-.047 1.15 1.15 0 0 0-.562.172 2.2 2.2 0 0 0-.438.39 2.7 2.7 0 0 0-.328.532 3 3 0 0 0-.219.563 4 4 0 0 0-.078.578q-.015.375-.015.812a24 24 0 0 0-.016.86q0 .406-.031.64a6 6 0 0 1-.078.594q-.063.328-.204.625a1.4 1.4 0 0 1-.343.5.8.8 0 0 1-.563.203.75.75 0 0 1-.469-.156 1.4 1.4 0 0 1-.328-.406 4 4 0 0 1-.218-.61 7 7 0 0 1-.125-.703q-.048-.375-.079-.75-.015-.375-.031-.703v-.625q.016-.28.016-.453a19 19 0 0 0-.063-1.094 20 20 0 0 1-.031-1.11q0-.343.031-.765t.172-.781a1.6 1.6 0 0 1 .406-.625q.282-.25.766-.25.266 0 .453.172.188.171.297.422.125.25.188.53.061.282.078.517.375-.61.843-.985.47-.39 1.219-.422.375-.015.735.078.375.078.671.282.313.187.5.5.204.312.219.734.031.5-.297.766-.327.265-.797.28m4.969 6.406q-1.11 0-1.734-.297a2 2 0 0 1-.922-.812q-.297-.531-.359-1.281-.063-.75-.063-1.672 0-.735.047-1.47.047-.75.141-1.593-.22 0-.344.016h-.203q-.5 0-.86-.219-.375-.219-.375-.672 0-.28.219-.5.203-.218.531-.375.328-.156.703-.25.391-.093.735-.125 0-.437.062-.969a4.7 4.7 0 0 1 .219-.984q.173-.468.453-.781a.93.93 0 0 1 .719-.313.66.66 0 0 1 .437.157q.203.14.329.375a1.8 1.8 0 0 1 .187.5q.063.281.063.546 0 .313-.047.641-.048.329-.172.813.266-.032.359-.032.094-.015.172-.015.265 0 .547.047.297.046.531.156.25.11.406.297a.6.6 0 0 1 .157.422.67.67 0 0 1-.235.5q-.219.218-.562.375a4 4 0 0 1-.735.25q-.39.078-.734.109a21 21 0 0 0-.141 1.187q-.03.532-.078 1.079l-.062.546a9 9 0 0 0 0 1.032q.016.266.109.515.095.25.297.438.203.171.563.172.218 0 .453-.032.234-.045.468-.046.406 0 .579.28.187.282.187.72a.9.9 0 0 1-.203.578 1.35 1.35 0 0 1-.484.375 2.6 2.6 0 0 1-.672.234q-.36.078-.688.078m9-2.765q0 .28-.031.734a4.3 4.3 0 0 1-.125.89 2.1 2.1 0 0 1-.344.735q-.234.312-.656.312-.578 0-.891-.375-.312-.375-.297-.937-.5.437-1.14.687-.625.25-1.281.25-.454 0-.86-.218a2.7 2.7 0 0 1-.719-.563 2.9 2.9 0 0 1-.5-.765 2.2 2.2 0 0 1-.187-.86q0-.75.453-1.312a4.3 4.3 0 0 1 1.141-.953q.672-.407 1.422-.641a8.5 8.5 0 0 1 1.359-.313v-.14a.6.6 0 0 0 .016-.14q0-.486-.266-.782t-.75-.297q-.39 0-.672.14a3.3 3.3 0 0 0-.531.298q-.25.156-.5.296a1.24 1.24 0 0 1-.563.125.87.87 0 0 1-.593-.218.73.73 0 0 1-.235-.563q0-.516.297-.937.313-.423.766-.703a4 4 0 0 1 1-.454 3.4 3.4 0 0 1 1-.171q.422 0 .843.109.423.094.797.312.375.204.672.516.312.297.5.703.282.578.453 1.235.172.64.266 1.328.093.671.125 1.36.031.671.031 1.312m-2.5-.5-.047-1.063h-.062a.14.14 0 0 0-.063-.016q-.203 0-.515.11a2.3 2.3 0 0 0-.578.281 2.3 2.3 0 0 0-.485.39.7.7 0 0 0-.187.454q0 .219.156.297a.8.8 0 0 0 .359.078q.344 0 .735-.172.39-.187.687-.36m7.875 3.14q-.266 0-.422-.25a1.7 1.7 0 0 1-.234-.547 4 4 0 0 1-.109-.625 11 11 0 0 1-.016-.5q0-.468.047-.937l.125-.938q.078-.468.125-.937a7 7 0 0 0 .062-.938q0-.187-.015-.406a1.7 1.7 0 0 0-.078-.406.67.67 0 0 0-.172-.328.45.45 0 0 0-.328-.125q-.14 0-.313.234a3.3 3.3 0 0 0-.328.516q-.14.28-.25.578a1.5 1.5 0 0 0-.094.422v.703q.016.343.016.703v.906q-.016.282-.047.578a5 5 0 0 1-.094.578q-.047.282-.14.547a1.8 1.8 0 0 1-.25.453q-.141.188-.344.313a.9.9 0 0 1-.485.125.7.7 0 0 1-.515-.203 1.5 1.5 0 0 1-.328-.516 3.6 3.6 0 0 1-.188-.719 26 26 0 0 1-.078-.78q-.016-.392-.016-.704.016-.328.016-.516v-.734q0-.594-.031-1.172-.016-.577-.016-1.156v-.797q.016-.484.125-.937a2.1 2.1 0 0 1 .36-.797q.25-.329.734-.328.219 0 .391.14.171.141.296.344.141.203.219.437.095.235.141.407.156-.22.359-.422.218-.203.485-.36a2.55 2.55 0 0 1 1.343-.343q.798 0 1.235.39.453.375.656.953.218.563.266 1.22.046.656.046 1.187 0 .265-.046.797-.048.515-.157 1.156-.094.624-.265 1.297-.172.655-.407 1.203a3 3 0 0 1-.562.89q-.312.344-.719.344m6.672.125q-1.11 0-1.734-.297a2 2 0 0 1-.922-.812q-.297-.531-.36-1.281a23 23 0 0 1-.015-3.14q.047-.751.14-1.595-.218 0-.343.016h-.203q-.5 0-.86-.219-.375-.219-.375-.672 0-.28.219-.5a1.7 1.7 0 0 1 .531-.375q.328-.156.703-.25.39-.093.735-.125 0-.437.062-.969a4.7 4.7 0 0 1 .219-.984q.172-.468.453-.781a.93.93 0 0 1 .719-.313q.25 0 .437.157.204.14.328.375.125.218.188.5.063.281.062.546 0 .313-.046.641-.048.329-.172.813.266-.032.359-.032.094-.015.172-.015.265 0 .547.047.297.046.531.156.25.11.406.297a.6.6 0 0 1 .157.422.67.67 0 0 1-.235.5q-.219.218-.562.375-.344.156-.735.25-.39.078-.734.109-.094.64-.141 1.187-.031.532-.078 1.079-.032.266-.062.546a9 9 0 0 0 0 1.032q.016.266.109.515.094.25.297.438.203.171.562.172.219 0 .454-.032.234-.045.468-.046.407 0 .578.28.188.282.188.72a.9.9 0 0 1-.203.578 1.35 1.35 0 0 1-.485.375 2.6 2.6 0 0 1-.671.234q-.36.078-.688.078m8.906-3.344q0 .532-.343 1.047-.328.5-.844.907-.5.39-1.078.64-.579.235-1.063.235a2.76 2.76 0 0 1-1.484-.407 3.9 3.9 0 0 1-1.078-1.062 5.1 5.1 0 0 1-.672-1.406 5.6 5.6 0 0 1-.219-1.516q0-.78.219-1.672.219-.89.656-1.64.453-.75 1.125-1.25.687-.5 1.625-.5.531 0 1.016.187.484.171.843.5.36.329.579.781.218.453.218 1.016 0 .735-.312 1.375a3.7 3.7 0 0 1-.828 1.11 4.4 4.4 0 0 1-1.188.765 4 4 0 0 1-1.375.312q.063.453.36.657.312.203.734.203.312 0 .609-.157.297-.156.578-.343.282-.203.547-.36.281-.156.563-.156.312 0 .562.203a.65.65 0 0 1 .25.531m-2.531-3.828a.94.94 0 0 0-.109-.422.36.36 0 0 0-.344-.218.9.9 0 0 0-.578.187 1.4 1.4 0 0 0-.391.453q-.156.266-.25.578a3 3 0 0 0-.094.579q.219-.047.516-.125.312-.079.578-.204.282-.14.469-.343a.66.66 0 0 0 .203-.485m13.469-2.734q0 .297-.063.578a1.2 1.2 0 0 1-.187.469 1.05 1.05 0 0 1-.375.328q-.234.11-.578.11-.391 0-.578-.157a.86.86 0 0 1-.266-.375 2 2 0 0 1-.063-.5q0-.265-.031-.484a.86.86 0 0 0-.109-.39q-.094-.157-.344-.157-.234 0-.391.36-.14.359-.234.827a7 7 0 0 0-.125.922q-.031.438-.031.594a6 6 0 0 1 .39-.047 2.5 2.5 0 0 1 .86.016q.234.046.437.156a.8.8 0 0 1 .328.281.72.72 0 0 1 .125.438q0 .28-.25.5a2.1 2.1 0 0 1-.578.375 5 5 0 0 1-.672.234 5 5 0 0 1-.546.125q.046 1.079.046 2.172 0 1.03-.046 2.031a1.2 1.2 0 0 1-.344.797q-.298.313-.781.313a.9.9 0 0 1-.454-.11.85.85 0 0 1-.312-.265 1.6 1.6 0 0 1-.203-.391 2 2 0 0 1-.078-.453 56 56 0 0 1-.125-1.875 29 29 0 0 1-.032-1.906q-.109.015-.218.015h-.203q-.188 0-.454-.047a2.3 2.3 0 0 1-.515-.156 1.7 1.7 0 0 1-.406-.297.6.6 0 0 1-.172-.437q0-.344.234-.578.219-.235.531-.375.329-.157.672-.22.36-.06.625-.093v-.25q0-.765.141-1.64.14-.876.5-1.626.358-.75.984-1.234.625-.5 1.594-.5.609 0 1.047.266.437.249.719.672.28.405.406.937.125.516.125 1.047m2-1.563a.65.65 0 0 1-.125.391 1.2 1.2 0 0 1-.297.313 2 2 0 0 1-.406.203 1.5 1.5 0 0 1-.407.062.96.96 0 0 1-.546-.156q-.235-.157-.235-.484a.74.74 0 0 1 .11-.407q.125-.187.296-.297a1.2 1.2 0 0 1 .391-.187q.219-.063.422-.063.297 0 .547.141t.25.484m.125 5.313v.469q0 .234-.016.453-.015.265-.015.719 0 .437-.032.953a12 12 0 0 1-.109 1.047 4.4 4.4 0 0 1-.219.968 2 2 0 0 1-.422.72.9.9 0 0 1-.64.28.58.58 0 0 1-.5-.234 2.2 2.2 0 0 1-.344-.64 5.4 5.4 0 0 1-.188-.891 17 17 0 0 1-.093-.953 13 13 0 0 1-.032-.86v-1.281q0-.47.032-1 .03-.531.109-1.078.094-.547.25-1 .172-.453.438-.735a.88.88 0 0 1 .671-.28q.423 0 .641.421.219.422.328.984t.125 1.125q.016.548.016.813m6.906-.406q0 .078-.016.172a1 1 0 0 1-.046.156q-.141.36-.438.61a1.1 1.1 0 0 1-.703.234q-.609 0-.828-.61a.5.5 0 0 1-.031-.172q0-.109-.016-.218v-.454a.9.9 0 0 0-.109-.343q-.079-.126-.266-.125-.266 0-.516.343a3.8 3.8 0 0 0-.422.797 7 7 0 0 0-.281.938 3.7 3.7 0 0 0-.109.781q0 .234.031.578.032.328.125.64.094.314.25.548.172.219.438.218a.8.8 0 0 0 .484-.156q.234-.172.453-.39.202-.188.438-.391a.87.87 0 0 1 .562-.203q.39 0 .609.281a.97.97 0 0 1 .235.64q0 .532-.281 1a3.2 3.2 0 0 1-.704.798q-.421.327-.937.515a2.7 2.7 0 0 1-.984.203q-.844 0-1.438-.422a3.3 3.3 0 0 1-.937-1.062 5 5 0 0 1-.516-1.422 7.3 7.3 0 0 1-.156-1.453q0-.797.218-1.719.219-.938.672-1.734a4.3 4.3 0 0 1 1.157-1.328q.718-.532 1.703-.532.609 0 1.047.266.452.266.734.703.297.422.437.953.157.532.157 1.047v.156a1 1 0 0 1-.016.157m7.516 3.797q0 .28-.032.734-.015.453-.125.89a2.1 2.1 0 0 1-.343.735q-.235.312-.657.312-.578 0-.89-.375t-.297-.937q-.5.437-1.141.687-.624.25-1.281.25-.453 0-.859-.218a2.7 2.7 0 0 1-.719-.563 2.9 2.9 0 0 1-.5-.765 2.2 2.2 0 0 1-.188-.86q0-.75.454-1.312a4.2 4.2 0 0 1 1.14-.953q.672-.407 1.422-.641.766-.234 1.359-.313v-.14a.6.6 0 0 0 .016-.14q0-.486-.266-.782t-.75-.297q-.39 0-.671.14a3.3 3.3 0 0 0-.532.298q-.25.156-.5.296a1.24 1.24 0 0 1-.562.125.87.87 0 0 1-.594-.218.74.74 0 0 1-.234-.563q0-.516.297-.937.312-.423.765-.703a4 4 0 0 1 1-.454 3.4 3.4 0 0 1 1-.171q.422 0 .844.109.422.094.797.312.375.204.672.516.312.297.5.703.28.578.453 1.235.172.64.265 1.328.095.671.125 1.36.032.671.032 1.312m-2.5-.5-.047-1.063h-.063a.14.14 0 0 0-.062-.016q-.204 0-.516.11-.296.093-.578.281a2.3 2.3 0 0 0-.484.39.7.7 0 0 0-.188.454q0 .219.156.297a.8.8 0 0 0 .36.078q.344 0 .734-.172.391-.187.688-.36m8.859-3.141q-.219.015-.375-.031l-.312-.125a3 3 0 0 0-.282-.11.6.6 0 0 0-.312-.047q-.313.015-.563.172a2.2 2.2 0 0 0-.437.39 2.7 2.7 0 0 0-.328.532 3 3 0 0 0-.219.563 4 4 0 0 0-.078.578q-.016.375-.016.812-.015.453-.015.86t-.032.64q-.015.25-.078.594a2.6 2.6 0 0 1-.203.625 1.4 1.4 0 0 1-.344.5.8.8 0 0 1-.562.203.75.75 0 0 1-.469-.156 1.4 1.4 0 0 1-.328-.406 4 4 0 0 1-.219-.61 8 8 0 0 1-.125-.703q-.047-.375-.078-.75-.015-.375-.031-.703v-.625q.015-.28.015-.453-.015-.548-.062-1.094a20 20 0 0 1-.031-1.11q0-.343.031-.765t.172-.781a1.6 1.6 0 0 1 .406-.625q.282-.25.766-.25.266 0 .453.172.188.171.297.422.124.25.187.53.063.282.078.517.375-.61.844-.985.47-.39 1.219-.422.375-.015.734.078.375.078.672.282.312.187.5.5.202.312.219.734.031.5-.297.766-.328.265-.797.28m11.828-4.438q0 1.14-.094 2.266-.078 1.125-.078 2.266 0 .921.047 1.828.063.906.063 1.828 0 .25-.016.61-.015.342-.109.671a1.3 1.3 0 0 1-.282.563q-.187.234-.546.234-.469 0-.782-.344a1.7 1.7 0 0 1-.375-.797 2.7 2.7 0 0 1-.859.954q-.562.39-1.219.39-.703 0-1.219-.484a4.3 4.3 0 0 1-.843-1.172 7 7 0 0 1-.5-1.438 6.4 6.4 0 0 1-.157-1.296 10 10 0 0 1 .204-1.907 8 8 0 0 1 .312-1q.187-.5.469-.89.297-.391.687-.625a1.8 1.8 0 0 1 .922-.235q.563 0 1.078.328.516.33.782.813l.14-2.484q.016-.298.047-.688.032-.405.125-.766.11-.36.328-.609.22-.25.641-.25.453 0 .703.219t.359.562q.125.33.141.72.031.39.031.733m-2.547 6.938q0-.36-.015-.703a8 8 0 0 1 0-.703 9 9 0 0 0-.219-.438 2 2 0 0 0-.313-.453 1.6 1.6 0 0 0-.39-.36.85.85 0 0 0-.469-.14.6.6 0 0 0-.453.172 1 1 0 0 0-.25.422 2.5 2.5 0 0 0-.109.515 8 8 0 0 0-.016.485q0 .187.031.562.031.36.11.735.093.375.25.656.156.28.421.281.203 0 .407-.078.203-.093.375-.219.187-.14.343-.297.172-.171.297-.312zm10.125.562q0 .532-.343 1.047-.328.5-.844.907-.5.39-1.078.64-.579.235-1.063.235a2.76 2.76 0 0 1-1.484-.407 3.9 3.9 0 0 1-1.078-1.062 5.1 5.1 0 0 1-.672-1.406 5.6 5.6 0 0 1-.219-1.516q0-.78.219-1.672.219-.89.656-1.64.453-.75 1.125-1.25.687-.5 1.625-.5.531 0 1.016.187.484.171.843.5.36.329.579.781.218.453.218 1.016 0 .735-.312 1.375a3.7 3.7 0 0 1-.828 1.11 4.4 4.4 0 0 1-1.188.765 4 4 0 0 1-1.375.312q.063.453.36.657.312.203.734.203.312 0 .609-.157.297-.156.578-.343.282-.203.547-.36.281-.156.563-.156.312 0 .562.203a.65.65 0 0 1 .25.531m-2.531-3.828a.94.94 0 0 0-.109-.422.36.36 0 0 0-.344-.218.9.9 0 0 0-.578.187 1.4 1.4 0 0 0-.391.453q-.156.266-.25.578a3 3 0 0 0-.094.579q.219-.047.516-.125.312-.079.578-.204.282-.14.469-.343a.66.66 0 0 0 .203-.485M50.313 60.82q-.797 0-1.39-.422a3.7 3.7 0 0 1-1-1.078 5.2 5.2 0 0 1-.61-1.453 6.6 6.6 0 0 1-.203-1.594q0-.828.203-1.703a5.6 5.6 0 0 1 .625-1.61q.421-.734 1.078-1.187.657-.47 1.563-.469.875 0 1.484.485.625.468 1 1.187.375.703.531 1.547.156.843.11 1.594a8.6 8.6 0 0 1-.266 1.672 5.3 5.3 0 0 1-.61 1.515q-.405.672-1.03 1.094-.626.422-1.485.422m.156-7.063q-.234 0-.422.25-.171.25-.296.61a5.5 5.5 0 0 0-.172.765q-.063.39-.063.688 0 .375.063.812.078.438.203.813.124.36.297.61.187.233.422.234.25 0 .421-.235.187-.234.297-.594t.157-.78q.045-.438.046-.813 0-.345-.062-.75a4.3 4.3 0 0 0-.188-.782 1.8 1.8 0 0 0-.296-.593q-.172-.235-.407-.235m6.953-2.86a19 19 0 0 1-.078 1.704q-.062.844-.062 1.703 0 1.11.062 2.219.078 1.11.078 2.234 0 .282-.03.64-.033.345-.157.642a1.2 1.2 0 0 1-.344.5q-.234.203-.625.203-.375 0-.656-.375a3.3 3.3 0 0 1-.453-.922 12 12 0 0 1-.297-1.281q-.11-.704-.172-1.36a98 98 0 0 1-.078-1.219q-.015-.562-.016-.828 0-.297.016-.86.03-.561.11-1.218.078-.656.202-1.328.141-.687.36-1.234.22-.562.515-.907.314-.36.735-.359.343 0 .515.234.188.22.266.547.078.314.094.672.015.344.015.594m8.282 5.423q0 .266-.016.797 0 .515-.047 1.093-.03.563-.094 1.079-.061.5-.156.734-.125.297-.328.516a.71.71 0 0 1-.547.218q-.532 0-.765-.422-.234-.421-.313-1.046a9.4 9.4 0 0 1-.062-1.36q.015-.735-.016-1.36a4 4 0 0 0-.172-1.046q-.141-.422-.516-.422-.515 0-.796.172a.95.95 0 0 0-.391.422q-.11.265-.14.61-.017.343-.048.718-.03.36-.046.969t-.141 1.203-.422 1.031q-.281.422-.844.422a.7.7 0 0 1-.562-.266 2.1 2.1 0 0 1-.328-.687 6 6 0 0 1-.188-.938 17 17 0 0 1-.062-1v-.906q.015-.406.015-.61 0-.312.016-1.03.03-.72.11-1.594.078-.89.202-1.828.125-.937.329-1.704.202-.78.484-1.265.297-.485.687-.469.25.015.422.219.187.203.297.531.126.313.203.688t.11.75q.046.36.047.671.015.313.015.485a21 21 0 0 1-.062 1.625 2.8 2.8 0 0 1 .953-.797 2.65 2.65 0 0 1 1.219-.313q.78 0 1.171.438.407.422.579 1.062.172.626.187 1.344.016.703.016 1.266m4.078 4.5q-.797 0-1.39-.422a3.7 3.7 0 0 1-1-1.078 5.2 5.2 0 0 1-.61-1.453 6.6 6.6 0 0 1-.203-1.594q0-.828.203-1.703.203-.89.625-1.61.421-.734 1.078-1.187.656-.47 1.562-.469.876 0 1.485.485.624.468 1 1.187.375.703.531 1.547a6.5 6.5 0 0 1 .11 1.594 8.6 8.6 0 0 1-.266 1.672 5.3 5.3 0 0 1-.61 1.515q-.406.672-1.03 1.094-.626.422-1.485.422m.156-7.063q-.234 0-.422.25-.171.25-.297.61a5.5 5.5 0 0 0-.172.765q-.062.39-.062.688 0 .375.062.812.079.438.204.813.125.36.296.61.188.233.422.234.25 0 .422-.235.188-.234.297-.594.11-.36.156-.78.047-.438.047-.813 0-.345-.062-.75a4.3 4.3 0 0 0-.188-.782 1.8 1.8 0 0 0-.297-.593q-.172-.235-.406-.235m14.344 3.828q0 .532-.344 1.047-.328.5-.844.907-.5.39-1.078.64-.578.235-1.062.235a2.76 2.76 0 0 1-1.485-.407 3.9 3.9 0 0 1-1.078-1.062 5.2 5.2 0 0 1-.672-1.406 5.6 5.6 0 0 1-.218-1.516q0-.78.218-1.672.219-.89.657-1.64a4.3 4.3 0 0 1 1.125-1.25q.687-.5 1.625-.5.53 0 1.015.187a2.45 2.45 0 0 1 1.422 1.281q.219.453.219 1.016 0 .735-.313 1.375a3.6 3.6 0 0 1-.828 1.11q-.516.468-1.187.765a4 4 0 0 1-1.375.312q.061.453.36.657.311.203.733.203.313 0 .61-.157.296-.156.578-.343.281-.203.547-.36a1.15 1.15 0 0 1 .562-.156q.313 0 .563.203t.25.531m-2.531-3.828a.94.94 0 0 0-.11-.422.36.36 0 0 0-.344-.218.9.9 0 0 0-.578.187 1.4 1.4 0 0 0-.39.453 2.6 2.6 0 0 0-.25.578 3 3 0 0 0-.094.579q.219-.047.516-.125.312-.079.578-.204.28-.14.468-.343a.66.66 0 0 0 .204-.485m5.406 5.782q0 .25-.14.64-.126.39-.329.766-.187.375-.437.64-.25.267-.485.266-.312 0-.312-.312 0-.187.078-.36.079-.171.172-.344a3 3 0 0 0 .172-.328.7.7 0 0 0 .078-.312.9.9 0 0 1-.5.156.79.79 0 0 1-.61-.281.92.92 0 0 1-.25-.625q0-.501.328-.797.329-.312.829-.313.563 0 .984.297t.422.907m8.969-7.766q0 .453-.313.672a6 6 0 0 1-.672.422q-.375.188-.687.453-.297.266-.297.797 0 .281.125.484.14.203.328.375.203.156.437.328.235.173.422.39.204.22.328.532.141.313.141.766 0 .656-.344 1.297a4.3 4.3 0 0 1-.86 1.125 4.3 4.3 0 0 1-1.17.78q-.657.298-1.298.298-.266 0-.531-.047a1.5 1.5 0 0 1-.484-.14 1.05 1.05 0 0 1-.344-.298.9.9 0 0 1-.14-.515q0-.438.171-.672.172-.25.438-.39.265-.142.562-.22.312-.078.578-.187.266-.125.438-.313t.172-.53q0-.33-.266-.673-.25-.36-.563-.75a8 8 0 0 1-.578-.86 2.04 2.04 0 0 1-.25-1q0-.67.266-1.233a3.4 3.4 0 0 1 .734-1q.47-.422 1.063-.657a3.2 3.2 0 0 1 1.25-.25q.25 0 .484.047.25.047.438.172a.8.8 0 0 1 .297.313.86.86 0 0 1 .125.484m7.171 5.812q0 .532-.343 1.047-.328.5-.844.907-.5.39-1.078.64-.579.235-1.063.235a2.76 2.76 0 0 1-1.484-.407 3.9 3.9 0 0 1-1.078-1.062 5.2 5.2 0 0 1-.672-1.406 5.6 5.6 0 0 1-.219-1.516q0-.78.219-1.672.22-.89.656-1.64a4.3 4.3 0 0 1 1.125-1.25q.688-.5 1.625-.5.531 0 1.016.187a2.46 2.46 0 0 1 1.422 1.281q.218.453.218 1.016 0 .735-.312 1.375a3.6 3.6 0 0 1-.828 1.11 4.4 4.4 0 0 1-1.188.765 4 4 0 0 1-1.375.312q.063.453.36.657.312.203.734.203.313 0 .609-.157.297-.156.579-.343.28-.203.546-.36.281-.156.563-.156.313 0 .562.203a.65.65 0 0 1 .25.531m-2.531-3.828a.94.94 0 0 0-.109-.422.36.36 0 0 0-.344-.218.9.9 0 0 0-.578.187 1.4 1.4 0 0 0-.39.453q-.157.266-.25.578a3 3 0 0 0-.094.579q.218-.047.515-.125.313-.079.578-.204.282-.14.469-.343a.66.66 0 0 0 .203-.485m10.563 7.172q-1.11 0-1.735-.297a2 2 0 0 1-.922-.812q-.296-.531-.359-1.281-.062-.75-.062-1.672 0-.735.046-1.47.048-.75.141-1.593-.219 0-.344.016h-.203a1.6 1.6 0 0 1-.859-.219q-.375-.219-.375-.672 0-.28.219-.5a1.7 1.7 0 0 1 .531-.375q.328-.156.703-.25.39-.093.734-.125 0-.437.063-.969.062-.531.219-.984.171-.468.453-.781a.92.92 0 0 1 .718-.313q.25 0 .438.157.203.14.328.375a1.8 1.8 0 0 1 .188.5q.062.281.062.546 0 .313-.047.641-.046.329-.172.813a4 4 0 0 1 .36-.032q.093-.015.172-.015.266 0 .546.047.297.046.532.156.25.11.406.297a.6.6 0 0 1 .156.422.67.67 0 0 1-.234.5q-.22.218-.563.375a4 4 0 0 1-.734.25q-.39.078-.734.109-.095.64-.141 1.187-.031.532-.078 1.079l-.063.546q-.015.267-.015.547 0 .203.015.485.016.266.11.515.093.25.297.438.202.171.562.172.219 0 .453-.032.234-.045.469-.046.406 0 .578.28.188.282.188.72a.9.9 0 0 1-.204.578 1.35 1.35 0 0 1-.484.375 2.6 2.6 0 0 1-.672.234 3.2 3.2 0 0 1-.687.078m4.937-11.469a.64.64 0 0 1-.125.391 1.2 1.2 0 0 1-.297.313q-.187.124-.406.203a1.5 1.5 0 0 1-.406.062.96.96 0 0 1-.547-.156q-.234-.157-.234-.484a.74.74 0 0 1 .109-.407 1 1 0 0 1 .297-.297q.172-.124.39-.187a1.5 1.5 0 0 1 .422-.063q.297 0 .547.141t.25.484m.125 5.313v.469q0 .234-.015.453-.016.265-.016.719 0 .437-.031.953-.032.515-.11 1.047a4.4 4.4 0 0 1-.218.968 2 2 0 0 1-.422.72.9.9 0 0 1-.641.28.58.58 0 0 1-.5-.234 2.2 2.2 0 0 1-.344-.64 5.3 5.3 0 0 1-.187-.891 17 17 0 0 1-.094-.953 13 13 0 0 1-.031-.86v-1.281q0-.47.031-1 .031-.531.109-1.078.094-.547.25-1a2.2 2.2 0 0 1 .438-.735.88.88 0 0 1 .672-.28q.422 0 .64.421.22.422.329.984.108.563.125 1.125.015.547.015.813m7.844 0a77 77 0 0 1-.891 2.25q-.484 1.172-1.047 2.187a4.6 4.6 0 0 1-.765 1.047q-.421.407-.969.407-.438 0-.859-.438a6.7 6.7 0 0 1-.766-1.062 14 14 0 0 1-.609-1.25 22 22 0 0 1-.375-1.016 39 39 0 0 0-.282-.906 16 16 0 0 1-.281-.985 12 12 0 0 1-.203-.984 6 6 0 0 1-.078-.938q0-.61.219-1t.859-.39q.25 0 .453.156.204.142.375.406.172.266.328.625.156.345.297.766.14.405.266.844.124.437.25.843.124.407.25.797.14.375.359.75l.25-.64q.141-.36.297-.766.172-.406.359-.828.188-.438.407-.844a8.4 8.4 0 0 1 .89-1.437q.485-.594.953-.594.438 0 .625.266.188.266.188.687t-.141.953a10 10 0 0 1-.359 1.094m7.594 2.812q0 .532-.344 1.047-.328.5-.844.907-.5.39-1.078.64-.578.235-1.062.235a2.76 2.76 0 0 1-1.485-.407 3.9 3.9 0 0 1-1.078-1.062 5.1 5.1 0 0 1-.672-1.406 5.6 5.6 0 0 1-.219-1.516q0-.78.219-1.672.22-.89.656-1.64.454-.75 1.125-1.25.688-.5 1.625-.5.532 0 1.016.187a2.46 2.46 0 0 1 1.422 1.281q.219.453.219 1.016 0 .735-.313 1.375a3.6 3.6 0 0 1-.828 1.11 4.4 4.4 0 0 1-1.187.765 4 4 0 0 1-1.375.312q.062.453.359.657.312.203.734.203.313 0 .61-.157.296-.156.578-.343.281-.203.547-.36.281-.156.562-.156a.87.87 0 0 1 .563.203q.25.204.25.531m-2.532-3.828a.94.94 0 0 0-.109-.422.36.36 0 0 0-.344-.218.9.9 0 0 0-.578.187 1.4 1.4 0 0 0-.39.453 2.6 2.6 0 0 0-.25.578 3 3 0 0 0-.094.579q.22-.047.515-.125a3 3 0 0 0 .579-.204 1.6 1.6 0 0 0 .468-.343.66.66 0 0 0 .203-.485m8.579.766q-.219.015-.375-.031l-.313-.125a3 3 0 0 0-.281-.11.6.6 0 0 0-.313-.047 1.15 1.15 0 0 0-.562.172 2.2 2.2 0 0 0-.438.39 2.7 2.7 0 0 0-.328.532 3 3 0 0 0-.219.563 4 4 0 0 0-.078.578q-.015.375-.015.812a24 24 0 0 0-.016.86q0 .405-.031.64a6 6 0 0 1-.078.594 2.6 2.6 0 0 1-.203.625 1.4 1.4 0 0 1-.344.5.8.8 0 0 1-.563.203.75.75 0 0 1-.468-.156 1.4 1.4 0 0 1-.329-.406 4 4 0 0 1-.218-.61 8 8 0 0 1-.125-.703q-.048-.375-.078-.75-.016-.375-.032-.703v-.625q.016-.28.016-.453-.015-.548-.063-1.094-.03-.562-.031-1.11 0-.343.031-.765.032-.421.172-.781.14-.375.407-.625.28-.25.765-.25.266 0 .453.172.188.171.297.422.125.25.188.53.062.282.078.517.375-.61.844-.985.468-.39 1.218-.422.375-.015.735.078.375.079.672.282.312.187.5.5.203.312.218.734.031.5-.297.766-.327.265-.796.28m12.359-1.422-.25 2.266q-.125 1.125-.172 2.25a33 33 0 0 0-.062 2.453q.015 1.155.015 2.453 0 .312-.015.766 0 .453-.11.875-.11.42-.359.718-.234.297-.719.297a.62.62 0 0 1-.406-.14 1.4 1.4 0 0 1-.281-.375 3 3 0 0 1-.188-.5 9 9 0 0 1-.109-.579 12 12 0 0 1-.094-1.218v-2.969q-.36.468-.938.719-.563.234-1.125.234-.703 0-1.218-.328a2.9 2.9 0 0 1-.828-.86 4 4 0 0 1-.485-1.156 5 5 0 0 1-.156-1.218v-.094a6.8 6.8 0 0 1 .25-1.75 6.8 6.8 0 0 1 .734-1.766q.5-.812 1.235-1.344a2.87 2.87 0 0 1 1.734-.546q.531 0 .969.218.453.219.64.72.126-.36.375-.58a.98.98 0 0 1 .672-.233q.516 0 .719.343.219.33.219.735 0 .171-.016.312zm-3.594.375q-.359 0-.672.297-.312.281-.547.703-.234.406-.375.875a3.3 3.3 0 0 0-.125.828q0 .219.032.469.047.25.125.484.093.219.234.375.156.14.391.14.202 0 .468-.093.282-.11.547-.265.266-.172.469-.375t.281-.391q.048-.11.078-.328.032-.219.047-.453a8 8 0 0 0 .063-.844q0-.188-.094-.422a2 2 0 0 0-.219-.469 1.3 1.3 0 0 0-.328-.375.6.6 0 0 0-.375-.156m11.188 2.422q0 .859-.172 1.703a4.7 4.7 0 0 1-.578 1.516 3.15 3.15 0 0 1-1.094 1.062q-.672.406-1.688.406-1 0-1.671-.39a3.2 3.2 0 0 1-1.079-1.063 4.8 4.8 0 0 1-.562-1.484 9 9 0 0 1-.156-1.688q0-.937.218-1.859.048-.25.172-.687.141-.454.344-.875.219-.438.484-.75.282-.313.61-.313.312 0 .5.172.187.171.297.437.109.251.14.547.032.282.032.516 0 .36-.063.703-.047.344-.109.688l-.125.937a9 9 0 0 0-.032 1.469q.032.281.125.547.094.265.266.453.172.171.484.172.407 0 .641-.22.25-.218.359-.546.126-.328.157-.703t.031-.688q0-.687-.094-1.343-.093-.672-.172-1.36a1.5 1.5 0 0 1 .063-.687q.078-.234.219-.422.14-.187.343-.297a.85.85 0 0 1 .453-.125q.345 0 .61.25.266.234.437.625.188.375.297.86.125.468.188.937.078.452.093.86.032.406.032.64m7.593 2.266q0 .28-.031.734-.015.453-.125.89a2.1 2.1 0 0 1-.344.735q-.234.312-.656.312-.578 0-.89-.375-.314-.375-.297-.937-.5.437-1.141.687-.625.25-1.281.25a1.8 1.8 0 0 1-.86-.218 2.7 2.7 0 0 1-.718-.563 2.8 2.8 0 0 1-.5-.765 2.2 2.2 0 0 1-.188-.86q0-.75.453-1.312a4.3 4.3 0 0 1 1.141-.953q.672-.407 1.422-.641a8.5 8.5 0 0 1 1.359-.313v-.14a.6.6 0 0 0 .016-.14q0-.486-.266-.782t-.75-.297q-.39 0-.672.14a3.3 3.3 0 0 0-.531.298q-.25.156-.5.296a1.24 1.24 0 0 1-.562.125.87.87 0 0 1-.594-.218.74.74 0 0 1-.235-.563q0-.516.297-.937.313-.423.766-.703a4 4 0 0 1 1-.454 3.4 3.4 0 0 1 1-.171q.421 0 .844.109.422.094.797.312.375.204.671.516.313.297.5.703.282.578.454 1.235.172.64.265 1.328.094.671.125 1.36.031.671.031 1.312m-2.5-.5-.046-1.063h-.063a.14.14 0 0 0-.062-.016q-.204 0-.516.11a2.3 2.3 0 0 0-.578.281 2.3 2.3 0 0 0-.485.39.7.7 0 0 0-.187.454q0 .219.156.297a.8.8 0 0 0 .36.078q.344 0 .734-.172.39-.187.687-.36m6.36-6.766q0 .843-.078 1.703-.063.844-.063 1.703 0 1.11.063 2.219.078 1.11.078 2.234 0 .282-.031.64-.031.345-.157.642a1.2 1.2 0 0 1-.343.5q-.235.203-.625.203-.375 0-.657-.375a3.3 3.3 0 0 1-.453-.922 12 12 0 0 1-.297-1.281q-.11-.704-.172-1.36-.047-.672-.078-1.219-.015-.562-.015-.828 0-.297.015-.86.032-.561.11-1.218.077-.656.203-1.328.14-.687.359-1.234.219-.562.516-.907.312-.36.734-.359.344 0 .516.234.187.22.265.547.08.314.094.672.016.344.016.594m8.453 2.203-.25 2.266q-.125 1.125-.172 2.25a33 33 0 0 0-.062 2.453q.015 1.155.015 2.453 0 .312-.015.766 0 .453-.11.875-.11.42-.359.718-.234.297-.719.297a.62.62 0 0 1-.406-.14 1.4 1.4 0 0 1-.281-.375 3 3 0 0 1-.188-.5 9 9 0 0 1-.109-.579 12 12 0 0 1-.094-1.218v-2.969q-.36.468-.938.719-.563.234-1.125.234-.703 0-1.218-.328a2.9 2.9 0 0 1-.828-.86 4 4 0 0 1-.485-1.156 5 5 0 0 1-.156-1.218v-.094a6.8 6.8 0 0 1 .25-1.75 6.8 6.8 0 0 1 .734-1.766q.5-.812 1.235-1.344a2.87 2.87 0 0 1 1.734-.546q.531 0 .969.218.453.219.64.72.126-.36.375-.58a.98.98 0 0 1 .672-.233q.516 0 .719.343.219.33.219.735 0 .171-.016.312zm-3.594.375q-.359 0-.672.297-.312.281-.547.703-.234.406-.375.875a3.3 3.3 0 0 0-.125.828q0 .219.032.469.047.25.125.484.093.219.234.375.156.14.391.14.202 0 .468-.093.282-.11.547-.265.266-.172.469-.375t.281-.391q.048-.11.078-.328.032-.219.047-.453a8 8 0 0 0 .063-.844q0-.188-.094-.422a2 2 0 0 0-.219-.469 1.3 1.3 0 0 0-.328-.375.6.6 0 0 0-.375-.156m11.188 2.422q0 .859-.172 1.703a4.7 4.7 0 0 1-.578 1.516 3.15 3.15 0 0 1-1.094 1.062q-.672.406-1.688.406-1 0-1.671-.39a3.2 3.2 0 0 1-1.079-1.063 4.8 4.8 0 0 1-.562-1.484 9 9 0 0 1-.156-1.688q0-.937.218-1.859.048-.25.172-.687.141-.454.344-.875.219-.438.484-.75.282-.313.61-.313.312 0 .5.172.187.171.297.437.109.251.14.547.032.282.032.516 0 .36-.063.703-.047.344-.109.688l-.125.937a9 9 0 0 0-.032 1.469q.032.281.125.547.094.265.266.453.172.171.484.172.407 0 .641-.22.25-.218.359-.546.126-.328.157-.703t.031-.688q0-.687-.094-1.343-.093-.672-.172-1.36a1.5 1.5 0 0 1 .063-.687q.078-.234.219-.422.14-.187.343-.297a.85.85 0 0 1 .453-.125q.345 0 .61.25.266.234.437.625.188.375.297.86.125.468.188.937.078.452.093.86.032.406.032.64m7.5 1.687q0 .532-.344 1.047-.328.5-.844.907-.5.39-1.078.64-.578.235-1.062.235a2.76 2.76 0 0 1-1.485-.407 3.9 3.9 0 0 1-1.078-1.062 5.1 5.1 0 0 1-.672-1.406 5.6 5.6 0 0 1-.219-1.516q0-.78.219-1.672.22-.89.656-1.64.454-.75 1.125-1.25.688-.5 1.625-.5.532 0 1.016.187a2.46 2.46 0 0 1 1.422 1.281q.219.453.219 1.016 0 .735-.313 1.375a3.6 3.6 0 0 1-.828 1.11 4.4 4.4 0 0 1-1.187.765 4 4 0 0 1-1.375.312q.062.453.359.657.312.203.734.203.313 0 .61-.157.296-.156.578-.343.281-.203.547-.36.281-.156.562-.156a.87.87 0 0 1 .563.203q.25.204.25.531m-2.532-3.828a.94.94 0 0 0-.109-.422.36.36 0 0 0-.344-.218.9.9 0 0 0-.578.187 1.4 1.4 0 0 0-.39.453 2.6 2.6 0 0 0-.25.578 3 3 0 0 0-.094.579q.22-.047.515-.125a3 3 0 0 0 .579-.204 1.6 1.6 0 0 0 .468-.343.66.66 0 0 0 .203-.485m8.579.766q-.219.015-.375-.031l-.313-.125a3 3 0 0 0-.281-.11.6.6 0 0 0-.313-.047 1.15 1.15 0 0 0-.562.172 2.2 2.2 0 0 0-.438.39 2.7 2.7 0 0 0-.328.532 3 3 0 0 0-.219.563 4 4 0 0 0-.078.578q-.015.375-.015.812a24 24 0 0 0-.016.86q0 .405-.031.64a6 6 0 0 1-.078.594 2.6 2.6 0 0 1-.203.625 1.4 1.4 0 0 1-.344.5.8.8 0 0 1-.563.203.75.75 0 0 1-.468-.156 1.4 1.4 0 0 1-.329-.406 4 4 0 0 1-.218-.61 8 8 0 0 1-.125-.703q-.048-.375-.078-.75-.016-.375-.032-.703v-.625q.016-.28.016-.453-.015-.548-.063-1.094-.03-.562-.031-1.11 0-.343.031-.765.032-.421.172-.781.14-.375.407-.625.28-.25.765-.25.266 0 .453.172.188.171.297.422.125.25.188.53.062.282.078.517.375-.61.844-.985.468-.39 1.218-.422.375-.015.735.078.375.079.672.282.312.187.5.5.203.312.218.734.031.5-.297.766-.327.265-.796.28M40.751 71.085q0 1.14-.094 2.266-.078 1.125-.078 2.266 0 .922.047 1.828.062.906.062 1.828 0 .25-.016.61a3 3 0 0 1-.109.671 1.3 1.3 0 0 1-.281.563q-.187.234-.547.234-.47 0-.781-.344a1.7 1.7 0 0 1-.375-.797 2.7 2.7 0 0 1-.86.954q-.562.39-1.218.39a1.72 1.72 0 0 1-1.22-.484 4.3 4.3 0 0 1-.843-1.172 7 7 0 0 1-.5-1.438 6.5 6.5 0 0 1-.156-1.296 9.6 9.6 0 0 1 .203-1.907q.124-.515.312-1 .188-.5.47-.89.296-.391.687-.625a1.8 1.8 0 0 1 .922-.235q.562 0 1.078.328.515.33.78.813l.142-2.484q.015-.297.046-.688.032-.405.125-.766.11-.36.329-.609.218-.25.64-.25.453 0 .703.219t.36.562q.125.33.14.72.032.39.032.733m-2.547 6.938q0-.36-.016-.703-.015-.345 0-.703a9 9 0 0 0-.219-.438 2 2 0 0 0-.312-.453 1.6 1.6 0 0 0-.39-.36.85.85 0 0 0-.47-.14.6.6 0 0 0-.453.172 1 1 0 0 0-.25.422 2.5 2.5 0 0 0-.11.515q-.015.282-.015.485 0 .187.032.562.03.36.109.735.093.375.25.656.156.28.422.281.202 0 .406-.078.203-.093.375-.219.188-.14.344-.297.171-.171.297-.312zm10.422-1.125a8.5 8.5 0 0 1-.172 1.703 4.7 4.7 0 0 1-.578 1.516q-.407.656-1.094 1.062-.671.406-1.688.406-1 0-1.672-.39a3.2 3.2 0 0 1-1.078-1.063 4.8 4.8 0 0 1-.562-1.484 9 9 0 0 1-.156-1.688q0-.937.218-1.859.048-.25.172-.687a6.4 6.4 0 0 1 .344-.875q.219-.438.484-.75.281-.313.61-.313.312 0 .5.172t.297.437q.11.251.14.547.031.282.031.516 0 .36-.062.703-.047.344-.11.688l-.124.937a9.4 9.4 0 0 0-.032 1.469q.032.281.125.547.094.266.266.453.172.171.484.172.407 0 .64-.22.251-.217.36-.546.126-.328.157-.703.03-.376.03-.688 0-.687-.093-1.343a54 54 0 0 1-.172-1.36 1.5 1.5 0 0 1 .063-.687q.078-.234.218-.422t.344-.297a.85.85 0 0 1 .453-.125q.345 0 .61.25.266.234.437.625.188.375.297.86.125.468.188.937.078.453.093.86.032.405.032.64m-1.47-7.047q0 .173-.093.344-.093.156-.234.297a2.3 2.3 0 0 1-.282.265q-.156.109-.28.203a8 8 0 0 0-.25.188 3 3 0 0 1-.282.187 3 3 0 0 1-.297.141.7.7 0 0 1-.281.063.4.4 0 0 1-.219-.063.27.27 0 0 1-.094-.219q0-.234.172-.562.188-.344.453-.656.266-.329.563-.547.297-.235.547-.235.218 0 .39.188.188.172.188.406m9.157 5.922q-.406 1.079-.89 2.25a21 21 0 0 1-1.047 2.187q-.345.626-.766 1.047-.422.407-.969.407-.437 0-.86-.438a6.6 6.6 0 0 1-.765-1.062q-.343-.626-.61-1.25a23 23 0 0 1-.374-1.016 40 40 0 0 0-.281-.906 15 15 0 0 1-.282-.985 12 12 0 0 1-.203-.984 6 6 0 0 1-.078-.938q0-.61.219-1t.86-.39q.25 0 .452.156.203.142.375.406.172.266.328.625.157.345.297.766.141.406.266.844t.25.843q.125.407.25.797.141.375.36.75l.25-.64.296-.766q.172-.406.36-.828.187-.438.406-.844a8.3 8.3 0 0 1 .89-1.437q.484-.594.954-.594.437 0 .625.266.187.266.187.687t-.14.953-.36 1.094m3.625-5.313a.65.65 0 0 1-.125.391 1.2 1.2 0 0 1-.297.313q-.187.124-.406.203a1.5 1.5 0 0 1-.406.062.96.96 0 0 1-.547-.156q-.234-.157-.235-.484a.74.74 0 0 1 .11-.407 1 1 0 0 1 .297-.297q.172-.124.39-.187.22-.063.422-.063.297 0 .547.141t.25.484m.125 5.313v.469q0 .234-.016.453-.015.266-.015.719 0 .437-.031.953-.032.514-.11 1.047a4.4 4.4 0 0 1-.219.968 2 2 0 0 1-.421.72.9.9 0 0 1-.641.28.58.58 0 0 1-.5-.234 2.2 2.2 0 0 1-.344-.64 5.4 5.4 0 0 1-.187-.891 17 17 0 0 1-.094-.953q-.03-.47-.031-.86v-1.281q0-.47.03-1 .032-.531.11-1.078.094-.547.25-1 .172-.453.438-.735a.9.9 0 0 1 .672-.28q.421 0 .64.421.219.422.328.984t.125 1.125q.015.547.016.813m7.844-4.688q0 1.14-.094 2.266-.078 1.125-.078 2.266 0 .922.047 1.828.062.906.062 1.828 0 .25-.015.61a3 3 0 0 1-.11.671 1.3 1.3 0 0 1-.28.563q-.189.234-.548.234-.468 0-.781-.344a1.7 1.7 0 0 1-.375-.797 2.7 2.7 0 0 1-.86.954q-.561.39-1.218.39a1.72 1.72 0 0 1-1.219-.484 4.3 4.3 0 0 1-.844-1.172 7 7 0 0 1-.5-1.438 6.5 6.5 0 0 1-.156-1.296 9.7 9.7 0 0 1 .203-1.907q.126-.515.313-1 .187-.5.468-.89.297-.391.688-.625.405-.235.922-.235.562 0 1.078.328.516.33.781.813l.14-2.484q.016-.297.048-.688.03-.405.125-.766.11-.36.328-.609.22-.25.64-.25.454 0 .704.219t.359.562q.125.33.14.72.032.39.032.733m-2.547 6.938q0-.36-.016-.703-.015-.345 0-.703a9 9 0 0 0-.218-.438 2 2 0 0 0-.313-.453 1.6 1.6 0 0 0-.39-.36.85.85 0 0 0-.47-.14.6.6 0 0 0-.452.172 1 1 0 0 0-.25.422 2.5 2.5 0 0 0-.11.515q-.015.282-.015.485 0 .187.03.562.032.36.11.735.094.375.25.656.156.28.422.281.202 0 .406-.078.203-.093.375-.219.188-.14.344-.297.172-.171.297-.312zm10.219 1.14q0 .282-.032.735-.015.453-.125.89a2.1 2.1 0 0 1-.343.735q-.235.312-.657.312-.578 0-.89-.375t-.297-.937a3.8 3.8 0 0 1-1.14.687 3.4 3.4 0 0 1-1.282.25q-.453 0-.86-.218a2.7 2.7 0 0 1-.718-.563 2.9 2.9 0 0 1-.5-.765 2.2 2.2 0 0 1-.188-.86q0-.75.454-1.312a4.3 4.3 0 0 1 1.14-.953q.672-.407 1.422-.641.765-.234 1.36-.313v-.14a.6.6 0 0 0 .015-.14q0-.486-.266-.782t-.75-.297q-.39 0-.671.14a3.3 3.3 0 0 0-.532.298q-.25.156-.5.296a1.24 1.24 0 0 1-.562.125.87.87 0 0 1-.594-.218.74.74 0 0 1-.234-.563q0-.516.297-.937.312-.423.765-.703a4 4 0 0 1 1-.454 3.4 3.4 0 0 1 1-.171q.422 0 .844.109.422.094.797.312.375.204.672.516.312.297.5.703.28.578.453 1.235.172.64.265 1.328.095.671.125 1.36.032.671.032 1.312m-2.5-.5-.047-1.062h-.063a.14.14 0 0 0-.062-.016q-.203 0-.516.11-.296.093-.578.281a2.3 2.3 0 0 0-.484.39.7.7 0 0 0-.188.454q0 .219.156.297a.8.8 0 0 0 .36.078q.344 0 .734-.172.39-.187.688-.36m5.687 1.876q0 .25-.14.64-.126.39-.329.766-.187.375-.437.64-.25.267-.484.266-.313 0-.313-.312 0-.187.078-.36.079-.171.172-.344.094-.156.172-.328a.7.7 0 0 0 .078-.312.9.9 0 0 1-.5.156.79.79 0 0 1-.61-.281.92.92 0 0 1-.25-.625q0-.5.329-.797.328-.312.828-.313.563 0 .984.297t.422.907m11.547-3.829q0 .688-.156 1.516a5.3 5.3 0 0 1-.5 1.516q-.345.703-.922 1.172-.562.468-1.422.468-.219 0-.453-.03a2.2 2.2 0 0 1-.453-.11 1.6 1.6 0 0 1-.375-.203.9.9 0 0 1-.266-.36l-.14 2.25q-.015.36-.032.86 0 .499-.125.953a1.7 1.7 0 0 1-.39.765q-.266.329-.782.328-.296 0-.5-.312a2.5 2.5 0 0 1-.328-.766 9 9 0 0 1-.172-1.047 14 14 0 0 1-.078-1.109q-.015-.531-.015-.969v-.64q0-1.046-.016-2.078-.016-1.047-.016-2.094v-.578q0-.407.032-.875.03-.47.093-.97a5.3 5.3 0 0 1 .22-.905q.14-.422.359-.672a.67.67 0 0 1 .53-.266.56.56 0 0 1 .36.125.86.86 0 0 1 .281.297q.125.172.204.375t.125.375q.483-.546 1.109-.828.64-.281 1.36-.281.75 0 1.218.422.484.421.75 1.046.282.626.39 1.344.11.704.11 1.281m-2.234-.125a2.4 2.4 0 0 0-.047-.468 1.3 1.3 0 0 0-.14-.453.76.76 0 0 0-.282-.344.76.76 0 0 0-.469-.14q-.375-.001-.797.25-.405.233-.61.546-.076.125-.093.406-.015.281-.015.422v.297l.03.36.032.359q.03.171.078.265a.6.6 0 0 0 .203.266q.158.109.344.203.187.095.375.14.203.048.344.048a.65.65 0 0 0 .531-.25q.203-.25.313-.594.124-.345.156-.703.047-.375.047-.61m8.61-1.062q-.22.015-.376-.031l-.312-.125a3 3 0 0 0-.282-.11.6.6 0 0 0-.312-.047q-.313.016-.563.172a2.2 2.2 0 0 0-.437.39 2.7 2.7 0 0 0-.328.532 3 3 0 0 0-.22.563 4 4 0 0 0-.077.578q-.016.374-.016.812-.015.453-.015.86 0 .405-.032.64-.015.25-.078.594-.062.328-.203.625a1.4 1.4 0 0 1-.344.5.8.8 0 0 1-.562.203.75.75 0 0 1-.469-.156 1.4 1.4 0 0 1-.328-.406 4 4 0 0 1-.219-.61 8 8 0 0 1-.125-.703q-.047-.375-.078-.75-.015-.375-.031-.703v-.625q.015-.28.015-.453a19 19 0 0 0-.062-1.094q-.03-.562-.031-1.11 0-.343.03-.765.033-.421.173-.781.14-.375.406-.625.282-.25.766-.25.266 0 .453.172.188.171.297.422a2.3 2.3 0 0 1 .187.53q.063.282.078.517.376-.61.844-.985.47-.39 1.219-.422.375-.015.734.078.375.079.672.282.312.187.5.5.203.312.219.734.03.5-.297.766-.328.265-.797.28m4.296 6.297q-.797 0-1.39-.422a3.7 3.7 0 0 1-1-1.078 5.2 5.2 0 0 1-.61-1.453 6.6 6.6 0 0 1-.203-1.594q0-.828.203-1.703.203-.89.625-1.61.421-.735 1.078-1.187.656-.47 1.563-.469.875 0 1.484.485.625.468 1 1.187.375.703.531 1.547t.11 1.594a8.6 8.6 0 0 1-.266 1.672 5.3 5.3 0 0 1-.609 1.515 3.5 3.5 0 0 1-1.032 1.094q-.624.422-1.484.422m.156-7.063q-.234 0-.422.25-.171.25-.297.61a5.5 5.5 0 0 0-.171.765q-.063.39-.063.688 0 .374.063.812.078.438.203.813.125.36.297.61.187.233.421.234.25 0 .422-.235.188-.234.297-.594.11-.36.156-.78.047-.439.047-.813 0-.345-.062-.75a4.3 4.3 0 0 0-.188-.782 1.8 1.8 0 0 0-.297-.593q-.172-.235-.406-.235m9.828.61q0 .079-.015.172a1 1 0 0 1-.047.156q-.141.36-.438.61a1.1 1.1 0 0 1-.703.234q-.609 0-.828-.61a.5.5 0 0 1-.031-.172q0-.109-.016-.218v-.454a.9.9 0 0 0-.109-.343q-.078-.125-.266-.125-.266 0-.515.343a3.8 3.8 0 0 0-.422.797 7 7 0 0 0-.282.938 3.8 3.8 0 0 0-.109.781q0 .234.031.578.032.329.125.64.094.314.25.548a.54.54 0 0 0 .438.218.8.8 0 0 0 .484-.156q.234-.172.453-.39.204-.188.438-.391a.87.87 0 0 1 .562-.203q.391 0 .61.281a.97.97 0 0 1 .234.64q0 .532-.281 1a3.2 3.2 0 0 1-.703.798q-.422.327-.938.515a2.7 2.7 0 0 1-.984.203q-.844 0-1.438-.422a3.3 3.3 0 0 1-.937-1.062 5 5 0 0 1-.516-1.422 7.3 7.3 0 0 1-.156-1.453q0-.796.219-1.719a6.4 6.4 0 0 1 .672-1.734 4.3 4.3 0 0 1 1.156-1.328q.719-.532 1.703-.532.609 0 1.047.266.453.266.734.703.297.422.438.953.156.532.156 1.047v.156a1 1 0 0 1-.016.157m7.719 1.53q0 .861-.172 1.704a4.7 4.7 0 0 1-.578 1.516 3.14 3.14 0 0 1-1.094 1.062q-.672.406-1.687.406-1 0-1.672-.39a3.2 3.2 0 0 1-1.078-1.063 4.8 4.8 0 0 1-.563-1.484 9 9 0 0 1-.156-1.688q0-.937.219-1.859.046-.25.172-.687a6 6 0 0 1 .343-.875q.22-.438.485-.75.28-.313.609-.313.313 0 .5.172.188.172.297.437.11.251.141.547.031.282.031.516 0 .36-.063.703-.046.344-.109.688l-.125.937a9.5 9.5 0 0 0-.031 1.469q.031.281.125.547.093.266.265.453.172.171.485.172.406 0 .64-.22.25-.217.36-.546.124-.328.156-.703.031-.376.031-.688 0-.687-.093-1.343a51 51 0 0 1-.172-1.36 1.5 1.5 0 0 1 .062-.687q.078-.234.219-.422.14-.187.344-.297a.84.84 0 0 1 .453-.125q.344 0 .609.25.266.234.438.625.188.375.297.86.124.468.187.937.078.453.094.86.031.405.031.64m6.375-1.374q-.219.015-.375-.031l-.312-.125a3 3 0 0 0-.282-.11.6.6 0 0 0-.312-.047q-.313.016-.563.172a2.2 2.2 0 0 0-.437.39 2.7 2.7 0 0 0-.328.532 3 3 0 0 0-.219.563 4 4 0 0 0-.078.578q-.016.374-.016.812-.015.453-.015.86 0 .405-.032.64-.015.25-.078.594a2.5 2.5 0 0 1-.203.625 1.4 1.4 0 0 1-.344.5.8.8 0 0 1-.562.203.75.75 0 0 1-.469-.156 1.4 1.4 0 0 1-.328-.406 4 4 0 0 1-.219-.61 8 8 0 0 1-.125-.703q-.047-.375-.078-.75l-.031-.703v-.625q.015-.28.015-.453-.015-.548-.062-1.094a20 20 0 0 1-.031-1.11q0-.343.031-.765.031-.421.172-.781a1.6 1.6 0 0 1 .406-.625q.282-.25.766-.25.266 0 .453.172.188.171.297.422.125.25.187.53.063.282.078.517.376-.61.844-.985.47-.39 1.219-.422.375-.015.734.078.375.079.672.282.312.187.5.5.203.312.219.734.031.5-.297.766-.328.265-.797.28m7.969 3.64q0 .282-.031.735a4.4 4.4 0 0 1-.125.89 2.1 2.1 0 0 1-.344.735q-.234.312-.656.312-.579 0-.891-.375t-.297-.937q-.5.437-1.141.687-.624.25-1.281.25-.453 0-.859-.218a2.7 2.7 0 0 1-.719-.563 2.9 2.9 0 0 1-.5-.765 2.2 2.2 0 0 1-.187-.86q0-.75.453-1.312a4.2 4.2 0 0 1 1.14-.953q.672-.407 1.422-.641.766-.234 1.36-.313v-.14a.6.6 0 0 0 .015-.14q0-.486-.265-.782-.267-.297-.75-.297-.391 0-.672.14a3.3 3.3 0 0 0-.532.298q-.25.156-.5.296a1.24 1.24 0 0 1-.562.125.87.87 0 0 1-.594-.218.74.74 0 0 1-.234-.563q0-.516.297-.937.312-.423.765-.703a4 4 0 0 1 1-.454 3.4 3.4 0 0 1 1-.171q.423 0 .844.109.422.094.797.312.375.204.672.516.312.297.5.703.28.578.453 1.235.172.64.266 1.328.093.671.125 1.36.03.671.031 1.312m-2.5-.5-.047-1.062h-.063a.13.13 0 0 0-.062-.016q-.202 0-.516.11-.296.093-.578.281a2.3 2.3 0 0 0-.484.39.7.7 0 0 0-.188.454q0 .219.157.297a.8.8 0 0 0 .359.078q.344 0 .734-.172.391-.187.688-.36m8.859-3.14q-.219.015-.375-.031l-.312-.125a3 3 0 0 0-.282-.11.6.6 0 0 0-.312-.047q-.312.016-.563.172a2.2 2.2 0 0 0-.437.39 2.7 2.7 0 0 0-.328.532 3 3 0 0 0-.219.563 4 4 0 0 0-.078.578q-.016.374-.016.812-.015.453-.015.86 0 .405-.032.64-.015.25-.078.594a2.5 2.5 0 0 1-.203.625 1.4 1.4 0 0 1-.344.5.8.8 0 0 1-.562.203.75.75 0 0 1-.469-.156 1.4 1.4 0 0 1-.328-.406 4 4 0 0 1-.219-.61 8 8 0 0 1-.125-.703q-.046-.375-.078-.75-.015-.375-.031-.703v-.625q.016-.28.016-.453-.017-.548-.063-1.094a20 20 0 0 1-.031-1.11q0-.343.031-.765.031-.421.172-.781a1.6 1.6 0 0 1 .406-.625q.282-.25.766-.25.266 0 .453.172.188.171.297.422.125.25.187.53.063.282.078.517.375-.61.844-.985.47-.39 1.219-.422.375-.015.734.078.375.079.672.282.313.187.5.5.204.312.219.734.031.5-.297.766-.328.265-.797.28m11.938 1.375q0 .859-.172 1.703a4.7 4.7 0 0 1-.578 1.516 3.15 3.15 0 0 1-1.094 1.062q-.672.406-1.688.406-1 0-1.671-.39a3.2 3.2 0 0 1-1.079-1.063 4.8 4.8 0 0 1-.562-1.484 9 9 0 0 1-.156-1.688q0-.937.218-1.859.048-.25.172-.687.141-.453.344-.875.219-.438.484-.75.282-.313.61-.313.312 0 .5.172.187.172.297.437.109.251.14.547.032.282.032.516 0 .36-.063.703-.047.344-.109.688l-.125.937a9 9 0 0 0-.032 1.469q.032.281.125.547.094.266.266.453.172.171.484.172.407 0 .641-.22.25-.217.359-.546.126-.328.157-.703.031-.376.031-.688 0-.687-.094-1.343-.093-.672-.172-1.36a1.5 1.5 0 0 1 .063-.687q.078-.234.219-.422.14-.187.343-.297a.85.85 0 0 1 .453-.125q.345 0 .61.25.266.234.437.625.188.375.297.86.125.468.188.937.078.453.093.86.032.405.032.64m10.437-.688v.813q0 .5-.031 1.094-.015.593-.094 1.203a5.3 5.3 0 0 1-.25 1.078 2.5 2.5 0 0 1-.406.797.79.79 0 0 1-.641.312.6.6 0 0 1-.531-.28 2.2 2.2 0 0 1-.25-.688 5 5 0 0 1-.094-.797v-.64q0-.704.047-1.376t.047-1.375v-.281q0-.204-.031-.406a1.2 1.2 0 0 0-.11-.36q-.062-.156-.203-.156-.28 0-.453.297a2.7 2.7 0 0 0-.281.672q-.11.39-.156.78-.047.375-.063.563a9 9 0 0 0-.062.61q-.017.406-.063.89a9 9 0 0 1-.125 1q-.078.5-.219.922-.124.407-.328.672-.203.266-.5.266a.64.64 0 0 1-.578-.328 2.4 2.4 0 0 1-.297-.766 6.4 6.4 0 0 1-.125-.89q-.015-.454-.015-.704v-.515q.015-.25.015-.516v-.36q0-.249-.015-.546 0-.312-.032-.64a5 5 0 0 0-.062-.595 1.4 1.4 0 0 0-.141-.453q-.093-.172-.218-.172-.204 0-.375.266-.172.25-.297.61-.125.343-.203.687-.063.345-.063.5v.094q0 .75.094 1.468.094.72.094 1.47 0 .436-.282.812-.281.36-.781.36a.76.76 0 0 1-.594-.267 2.4 2.4 0 0 1-.39-.718 6 6 0 0 1-.25-.953 13 13 0 0 1-.11-1.032 45 45 0 0 1-.047-.922v-.625q0-.234-.015-.687 0-.453.015-.984.032-.532.094-1.079.063-.562.203-1.015t.36-.735a.73.73 0 0 1 .593-.296q.406 0 .657.218.265.219.265.657 0 .094-.015.187 0 .094-.016.172.172-.25.422-.5.25-.265.531-.469a2.6 2.6 0 0 1 .625-.344q.329-.14.656-.14a.97.97 0 0 1 .563.172q.25.171.437.437.188.251.313.547t.172.563q.156-.281.375-.563.234-.297.5-.516.266-.218.578-.359.329-.14.672-.14.328 0 .562.234t.407.61q.172.359.265.827.095.454.156.907.063.436.079.828.015.375.015.593m14.281 0v.813q0 .5-.031 1.094-.015.593-.094 1.203a5.3 5.3 0 0 1-.25 1.078 2.5 2.5 0 0 1-.406.797.78.78 0 0 1-.64.312.6.6 0 0 1-.532-.28 2.3 2.3 0 0 1-.25-.688 5 5 0 0 1-.093-.797v-.64q0-.704.046-1.376.047-.672.047-1.375v-.281q0-.204-.031-.406a1.2 1.2 0 0 0-.109-.36q-.063-.156-.203-.156-.282 0-.454.297a2.7 2.7 0 0 0-.281.672q-.11.39-.156.78-.046.375-.063.563-.03.204-.062.61-.015.406-.063.89-.03.485-.125 1-.078.5-.218.922a2.2 2.2 0 0 1-.328.672q-.204.266-.5.266a.65.65 0 0 1-.579-.328 2.4 2.4 0 0 1-.296-.766 6 6 0 0 1-.125-.89 20 20 0 0 1-.016-.704v-.515q.016-.25.016-.516v-.36q0-.249-.016-.546a7 7 0 0 0-.031-.64 5 5 0 0 0-.063-.595 1.5 1.5 0 0 0-.14-.453q-.094-.172-.219-.172-.204 0-.375.266-.173.25-.297.61-.125.343-.203.687-.063.345-.063.5v.094q0 .75.094 1.468.094.72.094 1.47 0 .436-.281.812-.281.36-.782.36a.76.76 0 0 1-.593-.267 2.3 2.3 0 0 1-.391-.718 6 6 0 0 1-.25-.953 12 12 0 0 1-.109-1.032 39 39 0 0 1-.047-.922v-.625q0-.234-.016-.687 0-.453.016-.984.031-.532.093-1.079.063-.562.204-1.015a2.3 2.3 0 0 1 .359-.735.73.73 0 0 1 .594-.296q.406 0 .656.218.266.219.266.657 0 .094-.016.187 0 .094-.016.172a3.7 3.7 0 0 1 .422-.5q.25-.265.531-.469.298-.219.625-.344.328-.14.657-.14.312 0 .562.172t.438.437q.188.251.312.547.126.297.172.563.156-.281.375-.563.234-.297.5-.516.266-.218.578-.359.328-.14.672-.14a.77.77 0 0 1 .563.234q.234.235.406.61.172.359.265.827.094.454.157.907.062.436.078.828.015.375.015.593m7.579 2.375q0 .532-.344 1.047-.328.5-.844.907-.5.39-1.078.64-.578.235-1.063.235a2.76 2.76 0 0 1-1.484-.407 3.9 3.9 0 0 1-1.078-1.062 5.1 5.1 0 0 1-.672-1.406 5.6 5.6 0 0 1-.219-1.516q0-.78.219-1.672.22-.89.656-1.64.453-.75 1.125-1.25.688-.5 1.625-.5.531 0 1.016.187a2.46 2.46 0 0 1 1.422 1.281q.219.453.219 1.016a3.1 3.1 0 0 1-.313 1.375 3.6 3.6 0 0 1-.828 1.11 4.4 4.4 0 0 1-1.188.765 4 4 0 0 1-1.375.312q.063.453.36.657.312.203.734.203.313 0 .61-.157.296-.156.578-.343.28-.203.547-.36.281-.156.562-.156.312 0 .563.203t.25.531m-2.532-3.828a.94.94 0 0 0-.109-.422.36.36 0 0 0-.344-.218.9.9 0 0 0-.578.187 1.4 1.4 0 0 0-.391.453q-.156.266-.25.578a3 3 0 0 0-.093.579q.219-.047.515-.125.313-.078.578-.204.282-.14.469-.343a.66.66 0 0 0 .203-.485m.875-5.547q0 .173-.093.344a1.6 1.6 0 0 1-.235.297 2.3 2.3 0 0 1-.281.266q-.156.109-.281.203a7 7 0 0 0-.25.187 3 3 0 0 1-.282.188 3 3 0 0 1-.296.14.7.7 0 0 1-.282.063.4.4 0 0 1-.218-.063.27.27 0 0 1-.094-.218q0-.235.172-.563.188-.344.453-.656.265-.328.562-.547.298-.234.547-.234a.52.52 0 0 1 .391.187q.187.172.187.406m9.016 1.875q0 1.14-.094 2.266-.078 1.125-.078 2.266 0 .922.047 1.828.063.906.062 1.828 0 .25-.015.61-.016.343-.11.671a1.3 1.3 0 0 1-.281.563q-.187.234-.547.234-.469 0-.781-.344a1.7 1.7 0 0 1-.375-.797 2.7 2.7 0 0 1-.859.954q-.563.39-1.219.39-.703 0-1.219-.484a4.3 4.3 0 0 1-.844-1.172 7 7 0 0 1-.5-1.438 6.5 6.5 0 0 1-.156-1.296 10 10 0 0 1 .203-1.907 8 8 0 0 1 .313-1q.187-.5.469-.89.296-.391.687-.625a1.8 1.8 0 0 1 .922-.235q.562 0 1.078.328.516.33.781.813l.141-2.484q.015-.297.047-.688.031-.405.125-.766.11-.36.328-.609.219-.25.641-.25.453 0 .703.219t.359.562q.125.33.141.72.031.39.031.733m-2.547 6.938q0-.36-.016-.703-.015-.345 0-.703a8 8 0 0 0-.218-.438 2 2 0 0 0-.313-.453 1.6 1.6 0 0 0-.39-.36.85.85 0 0 0-.469-.14.6.6 0 0 0-.453.172 1 1 0 0 0-.25.422 2.5 2.5 0 0 0-.11.515 9 9 0 0 0-.015.485 7.3 7.3 0 0 0 .14 1.297q.094.375.25.656.156.28.422.281.204 0 .406-.078.204-.093.375-.219a3 3 0 0 0 .344-.297q.173-.171.297-.312zm6.156-7.563a.64.64 0 0 1-.125.391 1.2 1.2 0 0 1-.297.313q-.187.124-.406.203a1.5 1.5 0 0 1-.406.062.96.96 0 0 1-.547-.156q-.234-.157-.234-.484a.74.74 0 0 1 .109-.407 1 1 0 0 1 .297-.297 1.2 1.2 0 0 1 .391-.187q.218-.063.421-.063.297 0 .547.141t.25.484m.125 5.313v.469q0 .234-.015.453-.016.266-.016.719 0 .437-.031.953-.031.514-.11 1.047a4.4 4.4 0 0 1-.218.968 2 2 0 0 1-.422.72.9.9 0 0 1-.641.28.58.58 0 0 1-.5-.234 2.2 2.2 0 0 1-.344-.64 5.4 5.4 0 0 1-.187-.891 17 17 0 0 1-.094-.953 13 13 0 0 1-.031-.86v-1.281q0-.47.031-1 .031-.531.11-1.078a6 6 0 0 1 .25-1q.171-.453.437-.735a.88.88 0 0 1 .672-.28q.422 0 .641.421.218.422.328.984.109.563.125 1.125.015.547.015.813m6.907-.406q0 .079-.016.172a1 1 0 0 1-.047.156 1.5 1.5 0 0 1-.437.61 1.1 1.1 0 0 1-.704.234q-.609 0-.828-.61a.5.5 0 0 1-.031-.172q0-.109-.016-.218v-.454a.9.9 0 0 0-.109-.343q-.078-.125-.266-.125-.266 0-.515.343a3.8 3.8 0 0 0-.422.797 7 7 0 0 0-.281.938q-.11.484-.11.781 0 .234.032.578.03.329.125.64.093.314.25.548.171.218.437.218a.8.8 0 0 0 .484-.156q.235-.172.454-.39.203-.188.437-.391a.87.87 0 0 1 .563-.203q.39 0 .609.281a.97.97 0 0 1 .234.64q0 .532-.281 1a3.2 3.2 0 0 1-.703.798q-.422.327-.938.515a2.7 2.7 0 0 1-.984.203q-.844 0-1.437-.422a3.3 3.3 0 0 1-.938-1.062 5 5 0 0 1-.516-1.422 7.3 7.3 0 0 1-.156-1.453q0-.796.219-1.719.219-.937.672-1.734a4.3 4.3 0 0 1 1.156-1.328q.719-.532 1.703-.532.609 0 1.047.266.453.266.734.703.297.422.438.953.156.532.156 1.047v.156a1 1 0 0 1-.015.157m3.843 6.453q-.796 0-1.39-.422a3.7 3.7 0 0 1-1-1.078 5.2 5.2 0 0 1-.61-1.453 6.6 6.6 0 0 1-.203-1.594q0-.828.203-1.703.204-.89.625-1.61.423-.735 1.078-1.187.657-.47 1.563-.469.875 0 1.484.485.625.468 1 1.187.375.703.532 1.547a6.5 6.5 0 0 1 .109 1.594 8.6 8.6 0 0 1-.266 1.672 5.3 5.3 0 0 1-.609 1.515 3.5 3.5 0 0 1-1.031 1.094q-.626.422-1.485.422m.157-7.063q-.235 0-.422.25-.173.25-.297.61-.11.36-.172.765-.063.39-.063.688 0 .374.063.812.078.438.203.813.124.36.297.61.188.233.422.234.25 0 .422-.235.188-.234.297-.594t.156-.78a8 8 0 0 0 .047-.813q0-.345-.063-.75a4.3 4.3 0 0 0-.187-.782 1.8 1.8 0 0 0-.297-.593q-.172-.235-.406-.235m6.953.063q0 .25-.032.687-.03.423-.093.922a9 9 0 0 1-.188 1q-.11.5-.265.922-.157.406-.375.672-.22.25-.5.25-.345 0-.594-.328a3.5 3.5 0 0 1-.406-.86 8 8 0 0 1-.25-1.171q-.094-.64-.141-1.25a27 27 0 0 1-.063-1.141v-1.516q0-.437.032-.922.047-.483.125-.953.094-.484.265-.875.172-.39.453-.625.281-.25.704-.25.375 0 .609.328.25.313.391.829.156.5.218 1.125.079.624.094 1.234.031.594.016 1.11zm-.297 5.937a.9.9 0 0 1-.125.47 1.1 1.1 0 0 1-.328.312 1.4 1.4 0 0 1-.438.203 1.8 1.8 0 0 1-.469.062q-.343 0-.656-.187-.312-.172-.312-.563 0-.234.125-.422.14-.203.343-.343t.438-.22q.25-.077.469-.077.359 0 .656.187.297.173.297.578"/><defs><filter id="a" width="246.885" height="141.888" x="0" y="0" color-interpolation-filters="sRGB" filterUnits="userSpaceOnUse"><feFlood flood-opacity="0" result="BackgroundImageFix"/><feBlend in="SourceGraphic" in2="BackgroundImageFix" result="shape"/><feColorMatrix in="SourceAlpha" result="hardAlpha" values="0 0 0 0 0 0 0 0 0 0 0 0 0 0 0 0 0 0 127 0"/><feOffset dy="4"/><feGaussianBlur stdDeviation="2"/><feComposite in2="hardAlpha" k2="-1" k3="1" operator="arithmetic"/><feColorMatrix values="0 0 0 0 0 0 0 0 0 0 0 0 0 0 0 0 0 0 0.25 0"/><feBlend in2="shape" result="effect1_innerShadow_1138_2289"/></filter></defs></svg>