<svg xmlns="http://www.w3.org/2000/svg" width="251" height="171" fill="none" viewBox="0 0 251 171"><g filter="url(#a)"><path fill="#00c57f" fill-rule="evenodd" d="M35.509 108.841C11.486 97.618 1 81.054 1 63.126c0-22.058 21.15-43.85 56.136-54.624C74.106 3.276 94.042 1 116.95 1c70.137 0 134.817 22.506 132.056 62.126 0 19.659-11.971 37.736-36.351 48.529-13.293 5.884-30.11 9.359-51.151 10.428-8.277 20.567-20.39 31.157-40.264 47.917 14.574-19.534 23.504-32.129 26.735-47.563l-1.116.002c-49.713 3.518-87.31-2.366-111.351-13.598" clip-rule="evenodd"/></g><path fill="#00c57f" d="m35.509 108.841-.423.906zM57.136 8.502l.294.956zm191.871 54.624-.997-.07-.003.07zm-36.351 48.529.405.914zm-51.151 10.428-.051-.999a1 1 0 0 0-.877.626zM121.241 170l-.801-.598a1 1 0 0 0 1.446 1.363zm26.735-47.563.978.205a1 1 0 0 0-.982-1.205zm-1.116.002v-1l-.071.002zM1 63.126H0C0 81.531 10.799 98.4 35.086 109.747l.423-.906.423-.906C12.172 96.835 2 80.577 2 63.126zM57.136 8.502l-.295-.956C21.706 18.366 0 40.4 0 63.126h2c0-21.39 20.593-42.94 55.43-53.668zM116.95 1V0C93.982 0 73.937 2.281 56.84 7.546l.294.956.295.956C74.272 4.27 94.102 2 116.95 2zm132.056 62.126.998.07c1.427-20.483-14.606-36.289-39.294-46.91C185.956 5.639 152.107 0 116.951 0v2c34.981 0 68.54 5.615 92.969 16.124 24.496 10.538 39.423 25.795 38.09 44.933zm-36.351 48.529.405.914c24.665-10.918 36.946-29.311 36.946-49.443h-2c0 19.186-11.661 36.948-35.755 47.614zm-51.151 10.428.05.999c21.117-1.073 38.065-4.563 51.506-10.513l-.405-.914-.404-.915c-13.145 5.819-29.832 9.28-50.798 10.344zm0 0-.928-.373c-8.174 20.311-20.1 30.76-39.981 47.526l.645.764.645.765c19.867-16.755 32.167-27.486 40.546-48.309zM121.241 170l.802.598c14.547-19.498 23.628-32.268 26.911-47.956l-.978-.205-.979-.205c-3.178 15.181-11.956 27.6-26.557 47.17zm25.619-47.561v1l1.119-.002-.003-1-.004-1-1.112.002zM35.509 108.841l-.423.906c24.254 11.332 62.043 17.213 111.844 13.689l-.07-.997-.071-.998c-49.623 3.512-87.03-2.374-110.857-13.506z"/><path fill="#fff" d="M51.658 41.688q0 .312-.063.75a3.3 3.3 0 0 1-.203.843q-.156.39-.422.672-.265.266-.703.266-.578 0-.875-.422a2.9 2.9 0 0 1-.406-1 8 8 0 0 1-.157-1.203q-.015-.61-.03-.969-1.125.187-2.22.328-.03.36-.14.89a4.5 4.5 0 0 1-.313 1.032 2.7 2.7 0 0 1-.547.844q-.328.36-.812.36a.73.73 0 0 1-.594-.267 2.1 2.1 0 0 1-.312-.656 4 4 0 0 1-.141-.765q-.016-.407-.016-.672 0-.89.141-1.75a32 32 0 0 1 .578-2.797q.157-.61.375-1.25.235-.657.531-1.281.313-.641.703-1.141a3.5 3.5 0 0 1 .891-.812 2.05 2.05 0 0 1 1.11-.313q.594 0 1.03.266.439.265.766.703.329.437.547 1 .219.547.36 1.125.156.563.25 1.11.11.546.187.968.203 1.015.344 2.062.14 1.032.14 2.078m-3.016-3.797q0-.187-.031-.61a6 6 0 0 0-.094-.86 2.7 2.7 0 0 0-.25-.765q-.156-.343-.438-.343-.156 0-.297.218a2.1 2.1 0 0 0-.25.532 7 7 0 0 0-.203.703q-.078.39-.14.75t-.094.656q-.03.281-.047.406.938-.078 1.844-.234zm14.89 2.062q0 .266-.015.797 0 .516-.047 1.094-.03.562-.094 1.078-.062.5-.156.734-.125.297-.328.516a.71.71 0 0 1-.547.219q-.532 0-.766-.422t-.312-1.047a9.4 9.4 0 0 1-.063-1.36q.016-.734-.015-1.359a4 4 0 0 0-.172-1.047q-.141-.422-.516-.422-.516 0-.797.172a.95.95 0 0 0-.39.422q-.11.265-.14.61-.017.343-.048.718-.03.36-.047.969-.015.609-.14 1.203a2.9 2.9 0 0 1-.422 1.031q-.282.422-.844.422a.7.7 0 0 1-.562-.265 2.1 2.1 0 0 1-.328-.688 6 6 0 0 1-.188-.937 17 17 0 0 1-.062-1v-.907q.015-.406.015-.609 0-.312.016-1.031.03-.719.11-1.594.077-.89.202-1.828.126-.938.328-1.703.204-.781.485-1.266.297-.484.687-.469.25.016.422.22.187.203.297.53.125.313.203.688t.11.75q.046.36.046.672.015.313.016.484a21 21 0 0 1-.062 1.625 2.8 2.8 0 0 1 .953-.797 2.65 2.65 0 0 1 1.218-.312q.782 0 1.172.437.407.423.578 1.063.173.624.188 1.343.015.704.015 1.266m3.688-6.86a.65.65 0 0 1-.125.391 1.2 1.2 0 0 1-.297.313q-.187.124-.406.203a1.5 1.5 0 0 1-.406.063.96.96 0 0 1-.547-.157q-.235-.156-.235-.484a.74.74 0 0 1 .11-.406q.124-.187.297-.297.171-.126.39-.188.22-.062.422-.062.297 0 .547.14t.25.485m.125 5.313v.469q0 .234-.016.453-.015.266-.015.719 0 .438-.031.953-.032.516-.11 1.047a4.4 4.4 0 0 1-.219.969 2 2 0 0 1-.421.718.9.9 0 0 1-.641.282.58.58 0 0 1-.5-.235 2.2 2.2 0 0 1-.344-.64 5.4 5.4 0 0 1-.187-.891 17 17 0 0 1-.094-.953q-.03-.47-.031-.86v-1.281q0-.468.03-1 .033-.53.11-1.078a6.4 6.4 0 0 1 .25-1q.172-.453.438-.734a.88.88 0 0 1 .672-.282q.42 0 .64.422.219.423.328.985t.125 1.125q.016.546.016.812m8.266.938q0 .687-.157 1.515a5.3 5.3 0 0 1-.5 1.516q-.343.704-.921 1.172-.564.468-1.422.469-.219 0-.454-.032a2.2 2.2 0 0 1-.453-.109 1.6 1.6 0 0 1-.375-.203.9.9 0 0 1-.265-.36l-.14 2.25q-.017.36-.032.86 0 .499-.125.953a1.7 1.7 0 0 1-.39.766q-.267.328-.782.328-.297 0-.5-.313a2.5 2.5 0 0 1-.328-.765 9 9 0 0 1-.172-1.047 14 14 0 0 1-.078-1.11q-.016-.531-.016-.968v-.641q0-1.046-.015-2.078-.016-1.047-.016-2.094v-.578q0-.405.031-.875.031-.468.094-.969a5.3 5.3 0 0 1 .219-.906q.14-.422.36-.672a.67.67 0 0 1 .53-.266.56.56 0 0 1 .36.126.86.86 0 0 1 .281.296q.125.173.203.375.078.203.125.375.484-.546 1.11-.828.64-.28 1.359-.281.75 0 1.219.422.484.422.75 1.047.28.624.39 1.343.11.704.11 1.282m-2.235-.125q0-.235-.047-.469a1.3 1.3 0 0 0-.14-.453.76.76 0 0 0-.281-.344.76.76 0 0 0-.47-.14q-.375 0-.796.25-.406.234-.61.546-.078.126-.093.407-.016.28-.016.422v.296l.031.36q.015.188.032.36.03.17.078.265a.6.6 0 0 0 .203.265q.156.11.344.203t.375.141q.203.047.343.047a.65.65 0 0 0 .532-.25 1.8 1.8 0 0 0 .312-.594 2.7 2.7 0 0 0 .156-.703q.047-.375.047-.61m6.156 5.234q-.796 0-1.39-.422a3.7 3.7 0 0 1-1-1.078 5.2 5.2 0 0 1-.61-1.453 6.6 6.6 0 0 1-.203-1.594q0-.828.204-1.703a5.6 5.6 0 0 1 .624-1.61q.423-.734 1.079-1.187.656-.468 1.562-.468.876 0 1.484.484.625.468 1 1.187.376.705.532 1.547.156.844.11 1.594a8.6 8.6 0 0 1-.267 1.672 5.3 5.3 0 0 1-.609 1.516q-.405.671-1.031 1.093t-1.484.422m.157-7.062q-.234 0-.422.25-.172.25-.297.609a5.5 5.5 0 0 0-.172.766q-.062.39-.062.687 0 .375.062.813.078.437.203.812.126.36.297.61.188.234.422.234.25 0 .422-.234.188-.236.297-.594.11-.36.156-.782.047-.437.047-.812 0-.345-.063-.75a4.3 4.3 0 0 0-.187-.781 1.8 1.8 0 0 0-.297-.594q-.172-.234-.406-.234m11.11 1.28q0 .798-.032 1.595-.016.796-.078 1.593a47 47 0 0 1-.125 1.47q-.079.78-.25 1.546a9.5 9.5 0 0 1-.453 1.484q-.282.72-.75 1.266A3.4 3.4 0 0 1 88 48.5q-.656.328-1.562.328a3.8 3.8 0 0 1-.953-.14 4.2 4.2 0 0 1-.985-.376 2.9 2.9 0 0 1-.781-.624 1.25 1.25 0 0 1-.312-.844q0-.36.25-.672a.86.86 0 0 1 .671-.297q.25 0 .47.078.233.094.452.203.234.11.438.188.218.093.437.093.579 0 .969-.296.39-.282.625-.735.234-.437.344-.968.124-.516.172-.985-.314.36-.735.5-.405.125-.86.125-.827 0-1.405-.281a2.6 2.6 0 0 1-.938-.797 3.6 3.6 0 0 1-.531-1.187 6 6 0 0 1-.172-1.454q0-.484.094-1.093A9 9 0 0 1 84 38.03q.204-.625.5-1.218.313-.594.719-1.047t.906-.735a2.3 2.3 0 0 1 1.125-.281q.594 0 1.047.344.47.344.547.968.173-.328.453-.64a.87.87 0 0 1 .688-.328q.218 0 .359.218.156.219.234.579.094.343.141.765.047.407.063.813.015.39.015.718zm-2.376 1.017q0-.235-.078-.61-.063-.375-.203-.719a2 2 0 0 0-.328-.593q-.203-.25-.485-.25a.94.94 0 0 0-.64.25q-.266.25-.453.609-.187.345-.297.75-.094.39-.094.672 0 .203.031.547.032.344.125.672.11.328.281.562a.54.54 0 0 0 .454.234q.421 0 .734-.203.312-.203.516-.515.218-.313.328-.688.11-.376.11-.718m6.406-5.157q0 .844-.078 1.703a23 23 0 0 0-.062 1.703q0 1.11.062 2.22.078 1.109.078 2.234 0 .28-.03.64a2.1 2.1 0 0 1-.157.64 1.2 1.2 0 0 1-.344.5q-.234.204-.625.204-.375 0-.656-.375a3.3 3.3 0 0 1-.453-.922 12 12 0 0 1-.297-1.281q-.11-.703-.172-1.36a98 98 0 0 1-.078-1.218Q92 38.657 92 38.39q0-.297.016-.86.03-.562.11-1.218.078-.656.202-1.329.141-.687.36-1.234.22-.562.515-.906.313-.36.735-.36.343 0 .515.235.188.219.266.547.078.312.094.672.015.344.015.593m3.766-1.437a.65.65 0 0 1-.125.39 1.2 1.2 0 0 1-.297.313q-.187.124-.406.203a1.5 1.5 0 0 1-.406.063.96.96 0 0 1-.547-.157q-.235-.156-.235-.484a.74.74 0 0 1 .11-.406q.124-.187.297-.297.171-.126.39-.188.22-.062.422-.062.297 0 .547.14t.25.485m.125 5.312v.469q0 .234-.016.453-.015.266-.015.719 0 .438-.031.953-.032.516-.11 1.047a4.4 4.4 0 0 1-.219.969 2 2 0 0 1-.421.718.9.9 0 0 1-.641.282.58.58 0 0 1-.5-.235 2.2 2.2 0 0 1-.344-.64 5.4 5.4 0 0 1-.187-.891 17 17 0 0 1-.094-.953q-.03-.47-.031-.86v-1.281q0-.468.03-1 .033-.53.11-1.078a6.4 6.4 0 0 1 .25-1q.172-.453.438-.734a.88.88 0 0 1 .672-.282q.42 0 .64.422.219.423.328.985t.125 1.125q.015.546.016.812m6.906-.406q0 .079-.015.172a1 1 0 0 1-.047.156q-.141.36-.438.61a1.1 1.1 0 0 1-.703.234q-.609 0-.828-.61a.5.5 0 0 1-.031-.171q0-.11-.016-.22v-.452a.9.9 0 0 0-.109-.344q-.078-.125-.266-.125-.266 0-.515.344a3.8 3.8 0 0 0-.422.797 7 7 0 0 0-.282.937 3.7 3.7 0 0 0-.109.781q0 .236.031.578.032.33.125.641.094.312.25.547a.54.54 0 0 0 .438.219.8.8 0 0 0 .484-.157q.234-.171.453-.39.204-.187.438-.39a.87.87 0 0 1 .562-.204q.391 0 .61.281a.97.97 0 0 1 .234.641q0 .532-.281 1a3.2 3.2 0 0 1-.703.797q-.422.328-.938.516a2.7 2.7 0 0 1-.984.203q-.844 0-1.438-.422a3.3 3.3 0 0 1-.937-1.063 5 5 0 0 1-.516-1.422 7.3 7.3 0 0 1-.156-1.453q0-.797.219-1.718.218-.939.672-1.735a4.3 4.3 0 0 1 1.156-1.328q.719-.531 1.703-.531.609 0 1.047.265.453.266.734.703.297.423.438.954.156.531.156 1.047v.156a1 1 0 0 1-.016.156m7.422 3.219q0 .531-.344 1.047-.328.5-.843.906-.5.39-1.078.64-.579.235-1.063.235a2.76 2.76 0 0 1-1.484-.406 3.9 3.9 0 0 1-1.078-1.063 5.1 5.1 0 0 1-.672-1.406 5.6 5.6 0 0 1-.219-1.516q0-.78.219-1.672.218-.89.656-1.64.453-.75 1.125-1.25.687-.5 1.625-.5.531 0 1.016.187a2.45 2.45 0 0 1 1.421 1.282q.219.453.219 1.015 0 .735-.312 1.375a3.7 3.7 0 0 1-.828 1.11 4.4 4.4 0 0 1-1.188.765 4 4 0 0 1-1.375.313q.063.453.359.656.313.203.735.203.312 0 .609-.156a6 6 0 0 0 .578-.344q.282-.203.547-.36.282-.156.563-.156.312 0 .562.203a.65.65 0 0 1 .25.532m-2.531-3.828a.95.95 0 0 0-.109-.422.36.36 0 0 0-.344-.219.9.9 0 0 0-.578.188 1.4 1.4 0 0 0-.391.453q-.156.266-.25.578a3 3 0 0 0-.094.578q.219-.047.516-.125.312-.078.578-.203.282-.141.469-.344a.66.66 0 0 0 .203-.484m12.641 1.453v.812q0 .5-.032 1.094-.015.594-.093 1.203a5.4 5.4 0 0 1-.25 1.078q-.157.485-.407.797a.78.78 0 0 1-.64.313.6.6 0 0 1-.532-.282 2.3 2.3 0 0 1-.25-.687 5 5 0 0 1-.093-.797v-.64q0-.704.047-1.376.046-.672.046-1.375v-.28q0-.204-.031-.407a1.2 1.2 0 0 0-.109-.36q-.063-.156-.203-.156-.282 0-.453.297a2.7 2.7 0 0 0-.282.672q-.11.39-.156.781-.047.375-.062.563a9 9 0 0 0-.063.61q-.015.405-.062.89a9 9 0 0 1-.125 1q-.079.5-.219.922a2.2 2.2 0 0 1-.328.672q-.203.265-.5.265a.64.64 0 0 1-.578-.328 2.4 2.4 0 0 1-.297-.766 6 6 0 0 1-.125-.89 20 20 0 0 1-.016-.703v-.516q.016-.25.016-.516v-.359q0-.25-.016-.547a7 7 0 0 0-.031-.64 5 5 0 0 0-.063-.594 1.5 1.5 0 0 0-.14-.453q-.094-.172-.219-.172-.204 0-.375.265-.172.25-.297.61-.125.343-.203.687-.063.344-.063.5v.094q0 .75.094 1.469.094.718.094 1.468 0 .438-.281.813-.281.36-.782.36a.76.76 0 0 1-.593-.266 2.3 2.3 0 0 1-.391-.719 6 6 0 0 1-.25-.953 12 12 0 0 1-.109-1.031 39 39 0 0 1-.047-.922v-.625q0-.235-.016-.688 0-.453.016-.984.031-.531.094-1.078a5.4 5.4 0 0 1 .203-1.016q.14-.453.359-.734a.73.73 0 0 1 .594-.297q.406 0 .656.219.266.218.266.656 0 .093-.016.187 0 .094-.016.172a3.7 3.7 0 0 1 .422-.5q.25-.265.532-.468.296-.219.625-.344.327-.14.656-.14.313 0 .562.171t.438.438q.188.249.312.546.126.297.172.563.156-.282.375-.563.234-.297.5-.515t.578-.36q.328-.14.672-.14a.77.77 0 0 1 .563.234q.234.235.406.61.171.36.266.828.093.453.156.906.061.438.078.828.016.375.016.594m3.609-5.75a.65.65 0 0 1-.125.39 1.2 1.2 0 0 1-.297.313q-.187.124-.406.203a1.5 1.5 0 0 1-.406.063.96.96 0 0 1-.547-.157q-.235-.156-.235-.484a.74.74 0 0 1 .11-.406 1 1 0 0 1 .297-.297q.171-.126.39-.188a1.5 1.5 0 0 1 .422-.062q.297 0 .547.14t.25.485m.125 5.312v.469q0 .234-.016.453-.015.266-.015.719 0 .438-.032.953-.03.516-.109 1.047a4.4 4.4 0 0 1-.219.969 2 2 0 0 1-.422.718.9.9 0 0 1-.64.282.58.58 0 0 1-.5-.235 2.2 2.2 0 0 1-.344-.64 5.3 5.3 0 0 1-.187-.891 17 17 0 0 1-.094-.953 13 13 0 0 1-.031-.86v-1.281q0-.468.031-1 .031-.53.109-1.078.094-.547.25-1a2.2 2.2 0 0 1 .438-.734.88.88 0 0 1 .672-.282q.421 0 .64.422.219.423.328.985t.125 1.125q.016.546.016.812m7.75 3.39q0 .282-.031.735a4.3 4.3 0 0 1-.125.89 2.1 2.1 0 0 1-.344.735q-.234.313-.656.313-.579 0-.891-.375t-.297-.938q-.5.438-1.14.688-.625.25-1.282.25-.453 0-.859-.219a2.7 2.7 0 0 1-.719-.562 2.9 2.9 0 0 1-.5-.766 2.2 2.2 0 0 1-.187-.86q0-.75.453-1.312a4.2 4.2 0 0 1 1.14-.953q.672-.406 1.422-.64a8.5 8.5 0 0 1 1.36-.313v-.14a.6.6 0 0 0 .015-.142q0-.484-.265-.78-.265-.298-.75-.298-.392 0-.672.141a3.3 3.3 0 0 0-.531.297q-.25.156-.5.297a1.25 1.25 0 0 1-.563.125.87.87 0 0 1-.594-.219.74.74 0 0 1-.234-.562q0-.516.297-.938.312-.422.765-.703a4 4 0 0 1 1-.453 3.4 3.4 0 0 1 1-.172q.423 0 .844.11.422.093.797.312.375.203.672.515.312.297.5.703.28.579.453 1.235.172.64.266 1.328.093.672.125 1.36.03.671.031 1.312m-2.5-.5-.047-1.062h-.062a.14.14 0 0 0-.063-.015q-.203 0-.516.11-.296.093-.578.28a2.3 2.3 0 0 0-.484.391.7.7 0 0 0-.188.453q0 .219.157.297a.8.8 0 0 0 .359.078q.344 0 .734-.172.391-.187.688-.36m13.75-.077q0 .531-.344 1.047-.328.5-.844.906a5 5 0 0 1-1.078.64q-.577.235-1.062.235a2.77 2.77 0 0 1-1.485-.406A3.9 3.9 0 0 1 140 42.578a5.2 5.2 0 0 1-.672-1.406 5.6 5.6 0 0 1-.218-1.516q0-.78.218-1.672a6.1 6.1 0 0 1 .657-1.64q.453-.75 1.125-1.25.687-.5 1.625-.5.53 0 1.015.187a2.46 2.46 0 0 1 1.422 1.282q.219.453.219 1.015 0 .735-.313 1.375a3.6 3.6 0 0 1-.828 1.11 4.4 4.4 0 0 1-1.187.765 4 4 0 0 1-1.375.313q.062.453.359.656.312.203.735.203.312 0 .609-.156a6 6 0 0 0 .578-.344q.282-.203.547-.36.281-.156.562-.156a.87.87 0 0 1 .563.203.65.65 0 0 1 .25.532m-2.531-3.828a.94.94 0 0 0-.11-.422.36.36 0 0 0-.343-.219.9.9 0 0 0-.579.188 1.4 1.4 0 0 0-.39.453q-.156.266-.25.578a3 3 0 0 0-.094.578q.219-.047.516-.125.312-.078.578-.203.281-.141.469-.344a.66.66 0 0 0 .203-.484m.875-5.547q0 .171-.094.343a1.6 1.6 0 0 1-.234.297 2.4 2.4 0 0 1-.282.266q-.156.109-.281.203a8 8 0 0 0-.25.188 3 3 0 0 1-.281.187 3 3 0 0 1-.297.14.7.7 0 0 1-.281.063.4.4 0 0 1-.219-.062.27.27 0 0 1-.094-.219q0-.234.172-.562.188-.344.453-.657.266-.327.563-.547.297-.234.547-.234.218 0 .39.188.188.172.188.406m13.312 4.89-.25 2.266q-.124 1.125-.172 2.25a33 33 0 0 0-.062 2.453q.015 1.157.015 2.453 0 .313-.015.766 0 .453-.11.875-.109.421-.359.719-.234.297-.719.297a.62.62 0 0 1-.406-.141 1.4 1.4 0 0 1-.281-.375 3 3 0 0 1-.188-.5 10 10 0 0 1-.109-.578 12 12 0 0 1-.094-1.219v-2.969a2.3 2.3 0 0 1-.937.719q-.562.234-1.125.234-.703 0-1.219-.328a3 3 0 0 1-.828-.86 4 4 0 0 1-.485-1.155 5 5 0 0 1-.156-1.22v-.093a6.8 6.8 0 0 1 .25-1.75 6.8 6.8 0 0 1 .735-1.766 4.6 4.6 0 0 1 1.234-1.343 2.87 2.87 0 0 1 1.734-.547q.531 0 .969.219.453.218.641.718.125-.36.375-.578a.98.98 0 0 1 .672-.234q.515 0 .718.344.219.327.219.734 0 .172-.016.313zm-3.594.375q-.359 0-.671.297a2.7 2.7 0 0 0-.547.703q-.236.407-.375.875a3.2 3.2 0 0 0-.125.828q0 .22.031.47.047.249.125.484.094.218.234.375.157.14.391.14.203 0 .469-.093.28-.11.547-.266.266-.173.468-.375.203-.204.282-.39.047-.11.078-.329a7 7 0 0 0 .047-.453 9 9 0 0 0 .062-.844q0-.187-.094-.422a2 2 0 0 0-.218-.468 1.3 1.3 0 0 0-.329-.375.6.6 0 0 0-.375-.157m11.188 2.422q0 .859-.172 1.703a4.7 4.7 0 0 1-.578 1.516 3.15 3.15 0 0 1-1.094 1.063q-.672.405-1.687.406-1 0-1.672-.39a3.2 3.2 0 0 1-1.078-1.063 4.8 4.8 0 0 1-.563-1.485 9 9 0 0 1-.156-1.687q0-.937.219-1.86.046-.249.172-.687a6 6 0 0 1 .343-.875q.22-.438.485-.75.28-.312.609-.313.312 0 .5.172.187.172.297.438.11.25.141.547.03.28.031.515 0 .36-.063.703-.046.345-.109.688l-.125.937a9.5 9.5 0 0 0-.031 1.47q.03.28.125.546.094.266.265.453.172.172.485.172.406 0 .64-.219.25-.219.36-.547.125-.328.156-.703t.031-.687q0-.688-.094-1.344a56 56 0 0 1-.171-1.36 1.5 1.5 0 0 1 .062-.687q.078-.234.219-.422.14-.187.344-.297a.84.84 0 0 1 .453-.125q.343 0 .609.25.266.235.438.625.187.375.296.86.125.468.188.937.078.453.094.86.03.406.031.64m7.594 2.266q0 .28-.032.734-.015.454-.125.89a2.1 2.1 0 0 1-.343.735q-.235.313-.657.313-.578 0-.89-.375-.314-.375-.297-.938-.5.438-1.141.688-.624.25-1.281.25-.453 0-.859-.219a2.7 2.7 0 0 1-.719-.562 2.9 2.9 0 0 1-.5-.766 2.2 2.2 0 0 1-.188-.86q0-.75.454-1.312a4.2 4.2 0 0 1 1.14-.953q.672-.406 1.422-.64.766-.235 1.359-.313v-.14a.6.6 0 0 0 .016-.142q0-.484-.266-.78-.266-.298-.75-.298-.39 0-.671.141a3.3 3.3 0 0 0-.532.297q-.25.156-.5.297a1.24 1.24 0 0 1-.562.125.87.87 0 0 1-.594-.219.74.74 0 0 1-.234-.562q0-.516.297-.938.312-.422.765-.703a4 4 0 0 1 1-.453 3.4 3.4 0 0 1 1-.172q.422 0 .844.11.422.093.797.312.375.203.672.515.312.297.5.703.28.579.453 1.235.172.64.265 1.328.095.672.125 1.36.032.671.032 1.312m-2.5-.5-.047-1.063h-.063a.14.14 0 0 0-.062-.015 1.6 1.6 0 0 0-.516.11q-.297.093-.578.28a2.3 2.3 0 0 0-.484.391.7.7 0 0 0-.188.453q0 .219.156.297a.8.8 0 0 0 .36.078q.344 0 .734-.172.391-.187.688-.36m7.875 3.14q-.266 0-.422-.25a1.7 1.7 0 0 1-.235-.546 4.4 4.4 0 0 1-.109-.625 12 12 0 0 1-.016-.5q0-.469.047-.938l.125-.937q.078-.469.125-.938a7 7 0 0 0 .063-.937q0-.187-.016-.407a1.6 1.6 0 0 0-.078-.406.66.66 0 0 0-.172-.328.44.44 0 0 0-.328-.125q-.141 0-.312.234a3.4 3.4 0 0 0-.329.516q-.14.282-.25.578a1.5 1.5 0 0 0-.093.422v.703q.015.345.015.703v.907q-.015.28-.047.578-.03.297-.093.578-.047.281-.141.547a1.7 1.7 0 0 1-.25.453q-.14.188-.344.312a.9.9 0 0 1-.484.125.7.7 0 0 1-.516-.203 1.5 1.5 0 0 1-.328-.516 3.6 3.6 0 0 1-.187-.718q-.048-.407-.078-.782-.016-.39-.016-.703.015-.327.016-.515v-.735q0-.593-.032-1.172-.015-.577-.015-1.156v-.797q.015-.484.125-.937a2.1 2.1 0 0 1 .359-.797q.25-.328.734-.328.219 0 .391.14t.297.344q.141.204.219.438.093.234.14.406.156-.219.36-.422.218-.203.484-.36a2.53 2.53 0 0 1 1.344-.343q.796 0 1.234.39.453.375.656.954.22.563.266 1.218.047.657.047 1.188 0 .266-.047.797-.046.516-.156 1.156a13 13 0 0 1-.266 1.297 8.5 8.5 0 0 1-.406 1.203 3 3 0 0 1-.563.89q-.312.344-.718.344m9.765-10.718q0 1.14-.093 2.265-.08 1.126-.079 2.266 0 .922.047 1.828.063.906.063 1.828 0 .25-.016.61-.015.343-.109.672a1.3 1.3 0 0 1-.281.562q-.188.234-.547.234-.469 0-.782-.343a1.7 1.7 0 0 1-.375-.797 2.7 2.7 0 0 1-.859.953q-.562.39-1.219.39a1.72 1.72 0 0 1-1.218-.484 4.3 4.3 0 0 1-.844-1.172 7 7 0 0 1-.5-1.437 6.5 6.5 0 0 1-.156-1.297q0-.39.046-.89.048-.501.157-1.016a8 8 0 0 1 .312-1q.187-.5.469-.891.297-.39.687-.625.407-.234.922-.234.563 0 1.078.328t.782.812l.14-2.484q.016-.297.047-.688.032-.406.125-.765.11-.36.328-.61.22-.25.641-.25.453 0 .703.22.25.217.359.562.126.328.141.718.031.39.031.735m-2.547 6.937q0-.36-.015-.703a8 8 0 0 1 0-.703 9 9 0 0 0-.219-.437 2 2 0 0 0-.312-.454 1.6 1.6 0 0 0-.391-.359.85.85 0 0 0-.469-.14.6.6 0 0 0-.453.171 1 1 0 0 0-.25.422 2.5 2.5 0 0 0-.109.516 8 8 0 0 0-.016.484q0 .188.031.563.032.36.11.734.093.375.25.656.155.282.422.282.202 0 .406-.079.203-.093.375-.218a3 3 0 0 0 .344-.297q.171-.172.296-.313zm6.547 3.797q-.797 0-1.39-.422a3.7 3.7 0 0 1-1-1.078 5.2 5.2 0 0 1-.61-1.453 6.6 6.6 0 0 1-.203-1.594q0-.828.203-1.703.204-.89.625-1.61.423-.734 1.078-1.187.657-.468 1.563-.468.875 0 1.484.484.625.468 1 1.187.375.705.532 1.547a6.5 6.5 0 0 1 .109 1.594 8.6 8.6 0 0 1-.266 1.672 5.3 5.3 0 0 1-.609 1.516 3.5 3.5 0 0 1-1.031 1.093q-.625.422-1.485.422m.157-7.062q-.235 0-.422.25-.172.25-.297.609-.11.36-.172.766-.063.39-.063.687 0 .375.063.813.078.437.203.812.124.36.297.61.188.234.422.234.25 0 .422-.234.187-.236.297-.594.109-.36.156-.782a8 8 0 0 0 .047-.812q0-.345-.063-.75a4.3 4.3 0 0 0-.187-.781 1.8 1.8 0 0 0-.297-.594q-.172-.234-.406-.234m10.765 7.062q-.797 0-1.39-.422a3.7 3.7 0 0 1-1-1.078 5.2 5.2 0 0 1-.61-1.453 6.6 6.6 0 0 1-.203-1.594q0-.828.203-1.703.204-.89.625-1.61.422-.734 1.078-1.187.657-.468 1.563-.468.875 0 1.484.484.625.468 1 1.187.375.705.531 1.547.157.844.11 1.594a8.6 8.6 0 0 1-.266 1.672 5.3 5.3 0 0 1-.609 1.516 3.5 3.5 0 0 1-1.031 1.093q-.626.422-1.485.422m.156-7.062q-.234 0-.421.25-.173.25-.297.609-.11.36-.172.766-.063.39-.063.687 0 .375.063.813.078.437.203.812.125.36.297.61.187.234.422.234.25 0 .422-.234.187-.236.296-.594.11-.36.157-.782a8 8 0 0 0 .047-.812q0-.345-.063-.75a4.3 4.3 0 0 0-.187-.781 1.8 1.8 0 0 0-.297-.594q-.172-.234-.407-.234M43.322 62.797q0 .28-.032.734a4.3 4.3 0 0 1-.125.89 2.1 2.1 0 0 1-.343.735q-.235.313-.657.313-.578 0-.89-.375t-.297-.938q-.501.438-1.14.688-.627.25-1.282.25-.453 0-.86-.219a2.7 2.7 0 0 1-.718-.562 2.9 2.9 0 0 1-.5-.766 2.2 2.2 0 0 1-.188-.86q0-.75.453-1.312a4.3 4.3 0 0 1 1.141-.953q.672-.406 1.422-.64.765-.235 1.36-.313v-.14a.6.6 0 0 0 .015-.142q0-.484-.266-.78-.266-.298-.75-.298-.39 0-.672.141a3.3 3.3 0 0 0-.53.297q-.252.156-.5.297a1.24 1.24 0 0 1-.563.125.87.87 0 0 1-.594-.219.74.74 0 0 1-.234-.562q0-.516.296-.938.313-.422.766-.703a4 4 0 0 1 1-.453 3.4 3.4 0 0 1 1-.172q.422 0 .844.11.422.093.797.312.375.203.672.515.312.298.5.703.28.579.453 1.235.172.64.265 1.328.095.672.125 1.36.032.671.032 1.312m-2.5-.5-.047-1.063h-.063a.14.14 0 0 0-.062-.015q-.204 0-.516.11-.297.093-.578.28a2.3 2.3 0 0 0-.484.391.7.7 0 0 0-.188.453q0 .219.156.297a.8.8 0 0 0 .36.078q.344 0 .734-.172.39-.187.688-.36m8.296 5q0 .453-.218.844-.22.39-.563.687-.344.297-.781.469a2.3 2.3 0 0 1-.86.172q-.312 0-.64-.063a2 2 0 0 1-.594-.187 2 2 0 0 1-.484-.36 1.4 1.4 0 0 1-.328-.546.45.45 0 0 1-.047-.204.55.55 0 0 1 .187-.421.65.65 0 0 1 .422-.172.48.48 0 0 1 .328.109l.297.266q.157.14.375.25.219.125.594.125a1 1 0 0 0 .594-.204.64.64 0 0 0 .281-.546.5.5 0 0 0-.172-.391 1.8 1.8 0 0 0-.375-.281l-.437-.25a.86.86 0 0 1-.329-.266q-.125-.172-.125-.5v-.75a2.2 2.2 0 0 1-1.078-.562 3.5 3.5 0 0 1-.703-1.016 5.3 5.3 0 0 1-.39-1.234 6.7 6.7 0 0 1-.125-1.25q0-.516.093-1.094.095-.579.282-1.14.187-.564.484-1.079a4.3 4.3 0 0 1 .688-.906q.405-.39.906-.625a2.7 2.7 0 0 1 1.14-.234q.562 0 .985.25t.687.656q.282.406.422.906t.14 1q0 .124-.015.297a.9.9 0 0 1-.047.297 1.4 1.4 0 0 1-.406.547 1 1 0 0 1-.64.218q-.532 0-.735-.53a1.2 1.2 0 0 1-.047-.36q.015-.235-.016-.438a.84.84 0 0 0-.109-.375q-.093-.156-.328-.156-.281 0-.531.344a3.4 3.4 0 0 0-.438.797q-.187.468-.297.953-.11.468-.109.75 0 .202.031.547.047.327.14.656.111.328.282.562a.58.58 0 0 0 .469.235q.281 0 .515-.172.235-.172.454-.375a5 5 0 0 1 .437-.39.77.77 0 0 1 .484-.173q.329 0 .532.25.218.25.218.578 0 .407-.187.782-.187.36-.484.656t-.688.516q-.375.218-.766.312v.094q0 .093-.015.203a.4.4 0 0 1-.047.203q.25.094.547.25.297.172.547.39.25.236.422.5.171.282.171.579m8.375-6.766a8.5 8.5 0 0 1-.171 1.703 4.7 4.7 0 0 1-.579 1.516q-.406.657-1.093 1.063-.672.406-1.688.406-1 0-1.672-.39a3.2 3.2 0 0 1-1.078-1.063 4.8 4.8 0 0 1-.562-1.485 9 9 0 0 1-.157-1.687q0-.937.22-1.86.046-.249.171-.687a6.4 6.4 0 0 1 .344-.875q.219-.438.484-.75.281-.312.61-.313.312 0 .5.172.187.172.296.438.11.25.141.547.03.28.031.515 0 .36-.062.703-.047.345-.11.688l-.125.937a9.4 9.4 0 0 0-.03 1.47q.03.28.124.546t.266.453q.171.172.484.172.407 0 .64-.219.251-.219.36-.547.125-.328.156-.703.032-.375.032-.687 0-.688-.094-1.344a54 54 0 0 1-.172-1.36 1.5 1.5 0 0 1 .063-.687q.078-.234.218-.422t.344-.297a.85.85 0 0 1 .453-.125q.344 0 .61.25.265.235.437.625.188.375.297.86.125.469.188.937.077.453.093.86.031.406.031.64m-1.468-7.047q0 .173-.094.344-.093.156-.234.297a2.3 2.3 0 0 1-.282.266q-.157.109-.28.203a8 8 0 0 0-.25.187 3 3 0 0 1-.282.188 3 3 0 0 1-.297.14.7.7 0 0 1-.281.063.4.4 0 0 1-.219-.063.27.27 0 0 1-.094-.218q0-.235.172-.563.188-.344.453-.656.266-.328.563-.547.297-.234.547-.234.218 0 .39.187.188.172.188.406M64.243 59q0 .078-.015.172a1 1 0 0 1-.047.156 1.5 1.5 0 0 1-.437.61 1.1 1.1 0 0 1-.704.234q-.609 0-.828-.61a.5.5 0 0 1-.031-.171q0-.11-.016-.22v-.452a.9.9 0 0 0-.109-.344q-.078-.125-.266-.125-.266 0-.515.344a3.8 3.8 0 0 0-.422.797 7 7 0 0 0-.281.937q-.11.484-.11.781 0 .236.031.578.032.33.125.641.094.312.25.547.172.219.438.219a.8.8 0 0 0 .484-.157q.236-.171.453-.39.204-.187.438-.39a.87.87 0 0 1 .563-.204q.39 0 .609.281a.97.97 0 0 1 .234.641q0 .532-.281 1a3.2 3.2 0 0 1-.703.797 3.4 3.4 0 0 1-.938.516 2.7 2.7 0 0 1-.984.203q-.844 0-1.437-.422a3.3 3.3 0 0 1-.938-1.063 5 5 0 0 1-.516-1.422 7.3 7.3 0 0 1-.156-1.453q0-.797.219-1.718.219-.939.672-1.735a4.3 4.3 0 0 1 1.156-1.328q.72-.531 1.703-.531.609 0 1.047.265.453.266.734.703.297.423.438.954.156.531.156 1.047v.156a1 1 0 0 1-.016.156m7.516 3.797q0 .28-.031.734a4.3 4.3 0 0 1-.125.89 2.1 2.1 0 0 1-.344.735q-.234.313-.656.313-.578 0-.89-.375-.314-.375-.298-.938-.5.438-1.14.688-.625.25-1.282.25-.453 0-.859-.219a2.7 2.7 0 0 1-.719-.562 2.9 2.9 0 0 1-.5-.766 2.2 2.2 0 0 1-.187-.86q0-.75.453-1.312a4.3 4.3 0 0 1 1.14-.953q.672-.406 1.422-.64.766-.235 1.36-.313v-.14a.6.6 0 0 0 .016-.142q-.001-.484-.266-.78-.266-.298-.75-.298-.39 0-.672.141a3.3 3.3 0 0 0-.531.297q-.25.156-.5.297a1.24 1.24 0 0 1-.563.125.87.87 0 0 1-.594-.219.74.74 0 0 1-.234-.562q0-.516.297-.938.312-.422.766-.703a4 4 0 0 1 1-.453 3.4 3.4 0 0 1 1-.172q.42 0 .843.11.422.093.797.312.375.203.672.515.312.298.5.703.282.579.453 1.235.172.64.266 1.328.093.672.125 1.36.03.671.031 1.312m-2.5-.5-.047-1.063h-.062a.14.14 0 0 0-.063-.015q-.203 0-.515.11-.297.093-.579.28a2.3 2.3 0 0 0-.484.391.7.7 0 0 0-.187.453q0 .219.156.297a.8.8 0 0 0 .36.078q.342 0 .734-.172.39-.187.687-.36m8.86-3.14q-.219.015-.376-.032L77.432 59a3 3 0 0 0-.281-.11.6.6 0 0 0-.313-.046q-.312.015-.562.172a2.2 2.2 0 0 0-.438.39 2.7 2.7 0 0 0-.328.532 3 3 0 0 0-.219.562 4 4 0 0 0-.078.578q-.015.375-.015.813-.016.453-.016.859t-.031.64q-.016.25-.078.594-.063.33-.204.625a1.4 1.4 0 0 1-.343.5.8.8 0 0 1-.563.204.75.75 0 0 1-.469-.157 1.4 1.4 0 0 1-.328-.406 4 4 0 0 1-.218-.61 8 8 0 0 1-.125-.703q-.048-.375-.079-.75l-.03-.703v-.625q.015-.28.015-.453a19 19 0 0 0-.063-1.093q-.03-.563-.03-1.11 0-.343.03-.766.031-.42.172-.78.141-.376.406-.626.282-.25.766-.25.266 0 .453.172.188.172.297.422.125.25.188.531.061.282.078.516.375-.609.843-.984.47-.391 1.22-.422.374-.016.734.078.375.078.671.281.314.188.5.5.204.312.22.734.03.5-.298.766-.327.265-.797.281m11.828-4.438q0 1.14-.094 2.265-.078 1.126-.078 2.266 0 .922.047 1.828.062.906.062 1.828 0 .25-.016.61-.015.343-.109.672a1.3 1.3 0 0 1-.281.562q-.187.234-.547.234-.468 0-.781-.343a1.7 1.7 0 0 1-.375-.797 2.7 2.7 0 0 1-.86.953q-.562.39-1.218.39a1.72 1.72 0 0 1-1.22-.484 4.3 4.3 0 0 1-.843-1.172 7 7 0 0 1-.5-1.437 6.5 6.5 0 0 1-.156-1.297 9.7 9.7 0 0 1 .203-1.906q.125-.516.313-1 .186-.5.468-.891.297-.39.688-.625.406-.234.922-.234.562 0 1.078.328.515.328.781.812l.14-2.484q.017-.297.047-.688.031-.406.126-.765.109-.36.328-.61.218-.25.64-.25.454 0 .703.22.25.217.36.562.125.328.14.718.032.39.032.735M87.4 61.656q0-.36-.016-.703-.015-.343 0-.703a9 9 0 0 0-.219-.437 2 2 0 0 0-.312-.454 1.6 1.6 0 0 0-.39-.359.85.85 0 0 0-.47-.14.6.6 0 0 0-.453.171 1 1 0 0 0-.25.422 2.5 2.5 0 0 0-.109.516q-.016.281-.016.484 0 .188.032.563.03.36.109.734.094.375.25.656t.422.282q.202 0 .406-.079.203-.093.375-.218.188-.141.344-.297.171-.172.297-.313zm6.547 3.797q-.797 0-1.391-.422a3.7 3.7 0 0 1-1-1.078 5.2 5.2 0 0 1-.61-1.453 6.6 6.6 0 0 1-.203-1.594q0-.828.204-1.703.202-.89.625-1.61.42-.734 1.078-1.187.656-.468 1.562-.468.875 0 1.485.484.625.468 1 1.187.375.705.53 1.547.157.844.11 1.594a8.6 8.6 0 0 1-.265 1.672 5.3 5.3 0 0 1-.61 1.516q-.405.671-1.031 1.093t-1.484.422m.156-7.062q-.234 0-.422.25-.172.25-.297.609a5.5 5.5 0 0 0-.172.766q-.062.39-.062.687 0 .375.062.813.078.437.203.812.126.36.297.61.188.234.422.234.25 0 .422-.234.188-.236.297-.594.11-.36.156-.782.047-.437.047-.812 0-.345-.062-.75a4.3 4.3 0 0 0-.188-.781 1.8 1.8 0 0 0-.297-.594q-.172-.234-.406-.234m12.375-1.985q0 .453-.313.672a6 6 0 0 1-.672.422q-.375.188-.687.453-.297.266-.297.797a.9.9 0 0 0 .125.484q.14.203.328.375.203.157.438.328t.422.391q.202.219.328.531.14.313.14.766 0 .657-.343 1.297a4.3 4.3 0 0 1-.86 1.125 4.3 4.3 0 0 1-1.172.781 3.1 3.1 0 0 1-1.297.297q-.266 0-.531-.047a1.5 1.5 0 0 1-.484-.14 1.04 1.04 0 0 1-.344-.297.9.9 0 0 1-.141-.516q0-.438.172-.672.172-.25.438-.39.265-.14.562-.22.313-.077.578-.187a1.4 1.4 0 0 0 .438-.312q.172-.187.172-.532 0-.327-.266-.671a14 14 0 0 0-.562-.75 8 8 0 0 1-.578-.86 2.03 2.03 0 0 1-.25-1q0-.672.265-1.234.281-.579.735-1a3.5 3.5 0 0 1 1.062-.656q.594-.25 1.25-.25.25 0 .484.047.25.046.438.171a.8.8 0 0 1 .297.313.86.86 0 0 1 .125.484m7.265 6.39q0 .282-.031.735-.015.454-.125.89a2.1 2.1 0 0 1-.344.735q-.234.313-.656.313-.578 0-.89-.375-.314-.375-.297-.938-.5.438-1.141.688-.626.25-1.281.25a1.8 1.8 0 0 1-.86-.219 2.7 2.7 0 0 1-.718-.562 2.8 2.8 0 0 1-.5-.766 2.2 2.2 0 0 1-.188-.86q0-.75.453-1.312a4.3 4.3 0 0 1 1.141-.953q.672-.406 1.422-.64.765-.235 1.359-.313v-.14a.6.6 0 0 0 .016-.142q0-.484-.266-.78-.265-.298-.75-.298-.39 0-.672.141a3.3 3.3 0 0 0-.531.297q-.25.156-.5.297a1.24 1.24 0 0 1-.562.125.87.87 0 0 1-.594-.219.74.74 0 0 1-.235-.562q0-.516.297-.938.313-.422.766-.703a4 4 0 0 1 1-.453 3.4 3.4 0 0 1 1-.172q.421 0 .844.11.422.093.797.312.375.203.671.515.313.298.5.703.282.579.454 1.235.172.64.265 1.328.094.672.125 1.36.031.671.031 1.312m-2.5-.5-.046-1.062h-.063a.14.14 0 0 0-.062-.015 1.6 1.6 0 0 0-.516.11 2.3 2.3 0 0 0-.578.28 2.3 2.3 0 0 0-.485.391.7.7 0 0 0-.187.453q0 .219.156.297a.8.8 0 0 0 .36.078q.344 0 .734-.172.39-.187.687-.36m7.875 3.142q-.265 0-.421-.25a1.7 1.7 0 0 1-.235-.547 4.4 4.4 0 0 1-.109-.625 11 11 0 0 1-.016-.5q0-.469.047-.938l.125-.937q.078-.469.125-.938a7 7 0 0 0 .063-.937q0-.187-.016-.407a1.7 1.7 0 0 0-.078-.406.66.66 0 0 0-.172-.328.44.44 0 0 0-.328-.125q-.14 0-.313.234a3.4 3.4 0 0 0-.328.516q-.14.282-.25.578a1.5 1.5 0 0 0-.094.422v.703q.016.345.016.703v.907q-.015.28-.047.578-.031.297-.094.578-.047.281-.14.547a1.8 1.8 0 0 1-.25.453q-.141.188-.344.312a.9.9 0 0 1-.484.125.7.7 0 0 1-.516-.203 1.5 1.5 0 0 1-.328-.516 3.7 3.7 0 0 1-.188-.718q-.047-.407-.078-.782-.015-.39-.015-.703.015-.327.015-.515v-.735q0-.593-.031-1.172-.016-.577-.016-1.156v-.797q.017-.484.125-.937.11-.469.36-.797t.734-.328q.219 0 .391.14.171.141.297.344.14.204.218.438.094.234.141.406.156-.218.359-.422.22-.203.485-.36a2.53 2.53 0 0 1 1.344-.343q.796 0 1.234.39.453.375.656.954.22.563.266 1.218.047.657.047 1.188 0 .266-.047.797-.047.516-.156 1.156a13 13 0 0 1-.266 1.297q-.172.657-.406 1.203a3 3 0 0 1-.563.89q-.312.345-.719.344m10.11-5.766q0 .796-.031 1.594a27 27 0 0 1-.079 1.593q-.046.688-.125 1.47-.078.78-.25 1.546a9.4 9.4 0 0 1-.453 1.484q-.28.72-.75 1.266a3.4 3.4 0 0 1-1.109.875q-.656.328-1.563.328-.422 0-.953-.14a4.2 4.2 0 0 1-.984-.376 2.9 2.9 0 0 1-.781-.624 1.24 1.24 0 0 1-.313-.844q0-.36.25-.672a.86.86 0 0 1 .672-.297q.25 0 .469.078.234.094.453.203.234.11.437.188.219.094.438.094.578 0 .969-.297.39-.282.625-.735.234-.437.343-.969a7 7 0 0 0 .172-.984q-.312.36-.734.5a2.9 2.9 0 0 1-.859.125q-.829 0-1.407-.281a2.6 2.6 0 0 1-.937-.797 3.6 3.6 0 0 1-.531-1.187 5.8 5.8 0 0 1-.172-1.454q0-.484.093-1.093.11-.61.313-1.235t.5-1.218q.312-.594.719-1.047t.906-.735a2.3 2.3 0 0 1 1.125-.281q.594 0 1.047.344.469.344.547.968.171-.328.453-.64a.87.87 0 0 1 .687-.328q.219 0 .36.218.156.219.234.579.094.344.141.765.047.407.062.813.016.39.016.718zm-2.375 1.016q0-.235-.078-.61-.063-.375-.203-.719a2 2 0 0 0-.329-.593q-.202-.25-.484-.25a.94.94 0 0 0-.641.25 2.3 2.3 0 0 0-.453.609q-.188.345-.297.75-.093.39-.093.672 0 .203.031.547.031.343.125.672.11.328.281.562a.54.54 0 0 0 .453.234q.422 0 .735-.203.312-.203.515-.515a2.3 2.3 0 0 0 .328-.688q.11-.376.11-.718m10.328-.157q0 .859-.172 1.703a4.7 4.7 0 0 1-.578 1.516 3.14 3.14 0 0 1-1.094 1.063q-.672.406-1.687.406-1 0-1.672-.39a3.2 3.2 0 0 1-1.078-1.063 4.8 4.8 0 0 1-.563-1.485 9 9 0 0 1-.156-1.687q0-.937.219-1.86.046-.249.172-.687a6 6 0 0 1 .343-.875q.22-.438.485-.75.28-.312.609-.313.312 0 .5.172.187.172.297.438.11.25.141.547.03.28.031.515 0 .36-.063.703-.046.345-.109.688l-.125.937a9.5 9.5 0 0 0-.031 1.47q.031.28.125.546t.265.453q.172.172.485.172.406 0 .64-.219.25-.219.36-.547.124-.328.156-.703.031-.375.031-.687 0-.688-.094-1.344a56 56 0 0 1-.171-1.36 1.5 1.5 0 0 1 .062-.687q.078-.234.219-.422.14-.187.344-.297a.84.84 0 0 1 .453-.125q.344 0 .609.25.266.235.438.625.188.375.296.86.125.469.188.937.078.453.094.86.031.406.031.64m7.5 1.688q0 .531-.344 1.047-.328.5-.844.906a5 5 0 0 1-1.078.64q-.577.235-1.062.235a2.77 2.77 0 0 1-1.485-.406 3.9 3.9 0 0 1-1.078-1.063 5.2 5.2 0 0 1-.672-1.406 5.6 5.6 0 0 1-.218-1.516q0-.78.218-1.672a6.1 6.1 0 0 1 .657-1.64q.453-.75 1.125-1.25.687-.5 1.625-.5.53 0 1.015.187a2.46 2.46 0 0 1 1.422 1.282q.219.453.219 1.015 0 .735-.313 1.375a3.6 3.6 0 0 1-.828 1.11 4.4 4.4 0 0 1-1.187.765 4 4 0 0 1-1.375.313q.062.453.359.656.313.203.735.203.312 0 .609-.156a6 6 0 0 0 .578-.344q.282-.203.547-.36.281-.156.562-.156a.87.87 0 0 1 .563.203.65.65 0 0 1 .25.532m-2.531-3.828a.94.94 0 0 0-.11-.422.36.36 0 0 0-.343-.219.9.9 0 0 0-.579.188 1.4 1.4 0 0 0-.39.453q-.156.266-.25.578a3 3 0 0 0-.094.578q.219-.047.516-.125.312-.078.578-.203.281-.141.469-.344a.66.66 0 0 0 .203-.484m13.468 3.828q0 .531-.343 1.047-.328.5-.844.906-.5.39-1.078.64-.579.235-1.063.235a2.76 2.76 0 0 1-1.484-.406 3.9 3.9 0 0 1-1.078-1.063 5.1 5.1 0 0 1-.672-1.406 5.6 5.6 0 0 1-.219-1.516q0-.78.219-1.672.22-.89.656-1.64.453-.75 1.125-1.25.688-.5 1.625-.5.531 0 1.016.187a2.46 2.46 0 0 1 1.422 1.282q.218.453.218 1.015 0 .735-.312 1.375a3.6 3.6 0 0 1-.828 1.11 4.4 4.4 0 0 1-1.188.765 4 4 0 0 1-1.375.313q.063.453.36.656.312.203.734.203.313 0 .609-.156.297-.156.579-.344.28-.203.546-.36.281-.156.563-.156.312 0 .562.203a.65.65 0 0 1 .25.532m-2.531-3.828a.94.94 0 0 0-.109-.422.36.36 0 0 0-.344-.219.9.9 0 0 0-.578.188 1.4 1.4 0 0 0-.391.453q-.156.266-.25.578a3 3 0 0 0-.093.578q.218-.047.515-.125a3 3 0 0 0 .578-.203q.282-.141.469-.344a.66.66 0 0 0 .203-.484m7.735-1.985q0 .453-.313.672a6 6 0 0 1-.672.422q-.375.188-.687.453-.297.266-.297.797a.9.9 0 0 0 .125.484q.14.203.328.375.203.157.437.328.235.172.422.391.204.219.328.531.141.313.141.766 0 .657-.344 1.297a4.2 4.2 0 0 1-.859 1.125 4.3 4.3 0 0 1-1.172.781q-.656.297-1.297.297-.265 0-.531-.047a1.5 1.5 0 0 1-.484-.14 1.04 1.04 0 0 1-.344-.297.9.9 0 0 1-.141-.516q0-.438.172-.672a1.2 1.2 0 0 1 .438-.39q.265-.14.562-.22.312-.077.578-.187a1.4 1.4 0 0 0 .438-.312q.172-.187.172-.532 0-.327-.266-.671a14 14 0 0 0-.563-.75 8 8 0 0 1-.578-.86 2.04 2.04 0 0 1-.25-1q0-.672.266-1.234.28-.579.734-1 .47-.422 1.063-.656.594-.25 1.25-.25.25 0 .484.047.25.046.438.171a.8.8 0 0 1 .297.313.86.86 0 0 1 .125.484m4.265 9.157q-1.11 0-1.734-.297a2 2 0 0 1-.922-.813q-.297-.531-.359-1.281-.063-.75-.063-1.672 0-.735.047-1.469.047-.75.141-1.593-.22 0-.344.015h-.203q-.5 0-.86-.219-.375-.218-.375-.672 0-.28.219-.5.203-.218.531-.374.328-.157.703-.25.391-.095.735-.126 0-.437.062-.968.063-.531.219-.985.172-.469.453-.78a.93.93 0 0 1 .719-.313.66.66 0 0 1 .437.156q.203.141.329.375a1.8 1.8 0 0 1 .187.5q.063.281.063.547 0 .312-.047.64-.048.33-.172.813.266-.031.359-.031.094-.015.172-.016.265 0 .547.047.297.047.531.156.25.11.406.297a.6.6 0 0 1 .157.422.67.67 0 0 1-.235.5q-.219.218-.562.375a4 4 0 0 1-.735.25q-.39.077-.734.11-.093.64-.141 1.187-.03.53-.078 1.078l-.062.547a9 9 0 0 0 0 1.031q.016.266.109.516.094.25.297.437.203.172.563.172.218 0 .453-.031.234-.047.468-.047.406 0 .579.281.187.282.187.719a.9.9 0 0 1-.203.578 1.35 1.35 0 0 1-.484.375 2.6 2.6 0 0 1-.672.234q-.36.08-.688.079m9-2.766q0 .28-.031.734-.015.454-.125.89a2.1 2.1 0 0 1-.344.735q-.234.313-.656.313-.578 0-.891-.375-.312-.375-.297-.938-.5.438-1.14.688-.625.25-1.281.25-.454 0-.86-.219a2.7 2.7 0 0 1-.719-.562 2.9 2.9 0 0 1-.5-.766 2.2 2.2 0 0 1-.187-.86q0-.75.453-1.312a4.3 4.3 0 0 1 1.141-.953q.672-.406 1.422-.64.765-.235 1.359-.313v-.14a.6.6 0 0 0 .016-.142q0-.484-.266-.78-.266-.298-.75-.298-.39 0-.672.141a3.3 3.3 0 0 0-.531.297q-.25.156-.5.297a1.24 1.24 0 0 1-.563.125.87.87 0 0 1-.593-.219.73.73 0 0 1-.235-.562q0-.516.297-.938.313-.422.766-.703a4 4 0 0 1 1-.453 3.4 3.4 0 0 1 1-.172q.422 0 .843.11.423.093.797.312.375.203.672.515.313.298.5.703.282.579.453 1.235.172.64.266 1.328.093.672.125 1.36.031.671.031 1.312m-2.5-.5-.047-1.063h-.062a.14.14 0 0 0-.063-.015q-.203 0-.515.11a2.3 2.3 0 0 0-.578.28 2.3 2.3 0 0 0-.485.391.7.7 0 0 0-.187.453q0 .219.156.297a.8.8 0 0 0 .359.078q.344 0 .735-.172.39-.187.687-.36m.75-9.125q0 .171-.094.344-.093.156-.234.297a2.3 2.3 0 0 1-.281.265q-.156.109-.281.203a7 7 0 0 0-.25.188 4 4 0 0 1-.282.187 3 3 0 0 1-.297.14.7.7 0 0 1-.281.063.4.4 0 0 1-.219-.062.27.27 0 0 1-.093-.219q0-.235.172-.562a4 4 0 0 1 .453-.657 3 3 0 0 1 .562-.547q.297-.234.547-.234a.52.52 0 0 1 .391.188q.187.172.187.406m15.938 6.672v.812q0 .5-.032 1.094-.015.594-.093 1.203a5.3 5.3 0 0 1-.25 1.078q-.156.485-.407.797a.78.78 0 0 1-.64.313.6.6 0 0 1-.531-.282 2.2 2.2 0 0 1-.25-.687 5 5 0 0 1-.094-.797v-.64q0-.704.047-1.376t.047-1.375v-.28q0-.204-.032-.407a1.2 1.2 0 0 0-.109-.36q-.063-.156-.203-.156-.282 0-.453.297a2.7 2.7 0 0 0-.282.672q-.109.39-.156.781-.047.375-.062.563a9 9 0 0 0-.063.61q-.015.405-.062.89a9 9 0 0 1-.125 1 6 6 0 0 1-.219.922q-.125.405-.328.671t-.5.266a.64.64 0 0 1-.578-.328 2.4 2.4 0 0 1-.297-.766 6 6 0 0 1-.125-.89 20 20 0 0 1-.016-.703v-.516q.016-.25.016-.516v-.359a10 10 0 0 0-.016-.547 7 7 0 0 0-.031-.64 5 5 0 0 0-.063-.594 1.5 1.5 0 0 0-.14-.453q-.094-.172-.219-.172-.203 0-.375.265-.172.25-.297.61-.125.343-.203.687-.063.344-.062.5v.094q0 .75.093 1.469.094.718.094 1.468 0 .438-.281.813-.282.36-.781.36a.76.76 0 0 1-.594-.266 2.4 2.4 0 0 1-.391-.719 6 6 0 0 1-.25-.953 13 13 0 0 1-.109-1.031 39 39 0 0 1-.047-.922v-.625q0-.235-.016-.688 0-.453.016-.984.031-.531.094-1.078a5.4 5.4 0 0 1 .203-1.016 2.3 2.3 0 0 1 .359-.734.73.73 0 0 1 .594-.297q.407 0 .656.219.266.218.266.656 0 .093-.016.187 0 .094-.015.172.171-.25.421-.5.25-.265.532-.468.297-.218.625-.344.327-.14.656-.14.312 0 .562.171t.438.438q.187.249.312.546.126.297.172.563.156-.282.375-.563.235-.297.5-.515.266-.219.578-.36.329-.14.672-.14.329 0 .563.234t.406.61q.172.36.266.828.093.453.156.906.063.438.078.828.015.375.016.594m7.875.687q0 .859-.172 1.703a4.7 4.7 0 0 1-.578 1.516 3.15 3.15 0 0 1-1.094 1.063q-.672.406-1.688.406-1 0-1.671-.39a3.2 3.2 0 0 1-1.079-1.063 4.8 4.8 0 0 1-.562-1.485 9 9 0 0 1-.156-1.687q0-.937.218-1.86.048-.249.172-.687.141-.453.344-.875.219-.438.484-.75.282-.312.61-.313.312 0 .5.172t.297.438q.109.25.14.547.032.28.032.515 0 .36-.063.703-.047.345-.109.688l-.125.937a9 9 0 0 0-.032 1.47q.032.28.125.546.094.266.266.453.172.172.484.172.407 0 .641-.219.25-.219.359-.547.126-.328.157-.703t.031-.687q0-.688-.094-1.344-.094-.672-.172-1.36a1.5 1.5 0 0 1 .063-.687q.078-.234.219-.422.14-.187.343-.297a.85.85 0 0 1 .453-.125q.345 0 .61.25.266.235.437.625.188.375.297.86.125.469.188.937.078.453.093.86.032.406.032.64m3.531-6.437a.65.65 0 0 1-.125.39 1.2 1.2 0 0 1-.297.313q-.187.124-.406.203a1.5 1.5 0 0 1-.406.063.96.96 0 0 1-.547-.157q-.235-.156-.235-.484a.74.74 0 0 1 .11-.406 1 1 0 0 1 .297-.297q.171-.126.39-.188a1.5 1.5 0 0 1 .422-.062q.297 0 .547.14t.25.485m.125 5.312v.469q0 .234-.016.453-.015.266-.015.719 0 .438-.032.953-.03.516-.109 1.047a4.4 4.4 0 0 1-.219.969 2 2 0 0 1-.422.718.9.9 0 0 1-.64.282.58.58 0 0 1-.5-.235 2.2 2.2 0 0 1-.344-.64 5.3 5.3 0 0 1-.187-.891 17 17 0 0 1-.094-.953 13 13 0 0 1-.031-.86v-1.281q0-.468.031-1 .031-.53.109-1.078.094-.547.25-1a2.2 2.2 0 0 1 .438-.734.88.88 0 0 1 .672-.282q.421 0 .64.422.219.423.328.985t.125 1.125q.016.546.016.812m4.75 6.157q-1.11 0-1.734-.297a2 2 0 0 1-.922-.813q-.297-.531-.36-1.281a21 21 0 0 1-.062-1.672q0-.735.047-1.469.047-.75.14-1.593-.219 0-.343.015h-.204q-.5 0-.859-.219-.375-.218-.375-.672 0-.28.219-.5a1.7 1.7 0 0 1 .531-.374q.328-.157.703-.25.39-.095.735-.126 0-.437.062-.968.063-.531.219-.985.171-.469.453-.78a.92.92 0 0 1 .719-.313q.25 0 .437.156.204.141.328.375.126.218.188.5.062.281.062.547 0 .312-.047.64-.046.33-.171.813.265-.031.359-.031.093-.015.172-.016.265 0 .547.047.297.047.531.156.25.11.406.297a.6.6 0 0 1 .156.422.67.67 0 0 1-.234.5q-.219.218-.562.375-.344.156-.735.25-.39.077-.734.11-.094.64-.141 1.187-.031.53-.078 1.078-.032.266-.062.547a9 9 0 0 0 0 1.031q.015.266.109.516.093.25.297.437.203.172.562.172.219 0 .453-.031.235-.047.469-.047.407 0 .578.281.188.282.188.719a.9.9 0 0 1-.203.578 1.35 1.35 0 0 1-.485.375 2.6 2.6 0 0 1-.672.234 3.2 3.2 0 0 1-.687.079m5.328-.11q-.797 0-1.391-.422a3.7 3.7 0 0 1-1-1.078 5.2 5.2 0 0 1-.609-1.453 6.6 6.6 0 0 1-.203-1.594q0-.828.203-1.703.203-.89.625-1.61.422-.734 1.078-1.187.657-.468 1.563-.468.875 0 1.484.484.625.468 1 1.187.375.705.531 1.547.156.844.11 1.594a8.6 8.6 0 0 1-.266 1.672 5.3 5.3 0 0 1-.609 1.516 3.5 3.5 0 0 1-1.032 1.093q-.624.422-1.484.422m.156-7.062q-.234 0-.422.25-.171.25-.296.609-.11.36-.172.766-.063.39-.063.687 0 .375.063.813.078.437.203.812.125.36.297.61.187.234.422.234.25 0 .421-.234.188-.236.297-.594.11-.36.157-.782.046-.437.046-.812 0-.345-.062-.75a4.3 4.3 0 0 0-.188-.781 1.7 1.7 0 0 0-.296-.594q-.172-.234-.407-.234M63.126 80.844q0 .453-.078 1.031-.062.562-.219 1.156a6.6 6.6 0 0 1-.39 1.156 4.3 4.3 0 0 1-.594 1.016q-.344.438-.812.703a2.06 2.06 0 0 1-1.063.266q-.64 0-1.172-.297a2.9 2.9 0 0 1-.89-.812 1.3 1.3 0 0 1-.344.75 1 1 0 0 1-.75.312q-.265 0-.453-.266a2.4 2.4 0 0 1-.282-.671 7 7 0 0 1-.172-.922 16 16 0 0 1-.062-.97q-.016-.468-.016-.843V80.86l.032-1.078q0-.266-.016-.797 0-.53.016-1.171.014-.656.062-1.329.063-.687.203-1.25t.39-.921q.251-.36.642-.376.312 0 .53.22.22.218.36.577.156.36.234.813.094.437.126.89.046.438.046.844.015.39.016.64 0 .048-.016.22v.843q.141-.296.407-.578.266-.28.593-.5.329-.218.688-.36.36-.14.687-.14.657 0 1.094.344.453.328.719.844t.375 1.125q.11.593.11 1.125m-2.297.469q0-.188-.03-.407a1.1 1.1 0 0 0-.11-.406.8.8 0 0 0-.235-.312.54.54 0 0 0-.375-.126q-.25 0-.5.11a2.3 2.3 0 0 0-.453.281q-.219.172-.406.375-.187.188-.328.375l-.156 1.39q.25.36.609.579.36.203.813.203.343 0 .562-.219.234-.219.36-.531a2.6 2.6 0 0 0 .187-.687q.063-.36.062-.626m9.891 2.484q0 .28-.031.734-.015.454-.125.89a2.1 2.1 0 0 1-.344.735q-.234.313-.656.313-.579 0-.89-.375-.314-.375-.298-.938-.5.438-1.14.688-.625.25-1.282.25-.453 0-.859-.219a2.7 2.7 0 0 1-.719-.562 2.9 2.9 0 0 1-.5-.766 2.2 2.2 0 0 1-.187-.86q0-.75.453-1.312a4.3 4.3 0 0 1 1.14-.953q.672-.406 1.422-.64.765-.235 1.36-.313v-.14a.6.6 0 0 0 .015-.141q0-.485-.265-.782-.266-.297-.75-.297-.39 0-.672.141a3.3 3.3 0 0 0-.531.297q-.25.156-.5.297a1.24 1.24 0 0 1-.563.125.87.87 0 0 1-.594-.219.74.74 0 0 1-.234-.562q0-.516.297-.938.312-.422.766-.703a4 4 0 0 1 1-.453 3.4 3.4 0 0 1 1-.172q.42 0 .843.11.422.093.797.312.375.203.672.515.312.297.5.704.282.577.453 1.234.172.64.266 1.328.093.672.125 1.36.03.671.031 1.312m-2.5-.5-.047-1.063h-.062a.14.14 0 0 0-.063-.015q-.203 0-.516.11-.296.093-.578.28a2.3 2.3 0 0 0-.484.391.7.7 0 0 0-.187.453q0 .219.156.297a.8.8 0 0 0 .36.078q.343 0 .733-.172.39-.188.688-.36m6.016-8.203a.65.65 0 0 1-.125.39 1.2 1.2 0 0 1-.297.313q-.187.124-.406.203a1.5 1.5 0 0 1-.407.063.96.96 0 0 1-.547-.157q-.234-.156-.234-.484a.74.74 0 0 1 .11-.406q.125-.187.296-.297.172-.126.39-.188.22-.062.423-.062.297 0 .547.14t.25.485m.125 5.312v.469q0 .234-.016.453-.016.266-.016.719 0 .438-.03.953-.032.516-.11 1.047a4.4 4.4 0 0 1-.219.969 2 2 0 0 1-.422.718.9.9 0 0 1-.64.282.58.58 0 0 1-.5-.235 2.2 2.2 0 0 1-.344-.64 5.4 5.4 0 0 1-.188-.891 17 17 0 0 1-.094-.953q-.03-.47-.03-.86v-1.281q0-.469.03-1 .032-.53.11-1.078a6.4 6.4 0 0 1 .25-1 2.2 2.2 0 0 1 .437-.734.88.88 0 0 1 .672-.281q.422 0 .64.421.22.423.329.985t.125 1.125q.016.546.016.812m7.703-2.469q0 .25-.094.532a5 5 0 0 1-.234.547q-.141.281-.297.546-.156.25-.281.47-.313.5-.626 1.015-.296.515-.609 1.016l.39.609q.25.39.485.828.25.422.422.844.172.421.172.719 0 .281-.219.546a.67.67 0 0 1-.531.266q-.329 0-.672-.234a6 6 0 0 1-.656-.547 9 9 0 0 1-.578-.672q-.266-.36-.454-.594-.203.219-.53.594-.314.375-.688.734-.36.36-.719.625-.36.25-.64.25a.62.62 0 0 1-.516-.234.85.85 0 0 1-.188-.547q0-.312.203-.797.22-.484.5-1 .297-.516.579-.984.296-.469.453-.735a30 30 0 0 1-.391-.734 21 21 0 0 1-.453-.969 17 17 0 0 1-.36-1 3.2 3.2 0 0 1-.14-.828q0-.36.219-.578.218-.219.578-.219.39 0 .734.313.345.297.64.734.298.422.516.89.235.455.375.75l.516-.765q.344-.484.766-.953.421-.468.875-.812.453-.344.859-.344.266 0 .422.234a.77.77 0 0 1 .172.484m3.281 8.516q-.797 0-1.39-.422a3.7 3.7 0 0 1-1-1.078 5.2 5.2 0 0 1-.61-1.453 6.6 6.6 0 0 1-.203-1.594q0-.828.203-1.703a5.6 5.6 0 0 1 .625-1.61q.421-.734 1.078-1.187.657-.469 1.563-.469.875 0 1.484.485.625.468 1 1.187.375.704.531 1.547.156.844.11 1.594a8.6 8.6 0 0 1-.266 1.672 5.3 5.3 0 0 1-.61 1.516q-.405.671-1.03 1.093-.626.422-1.485.422m.156-7.062q-.234 0-.422.25-.171.25-.296.609a5.5 5.5 0 0 0-.172.766q-.063.39-.063.687 0 .375.063.813.078.437.203.812.124.36.297.61.187.234.421.234.25 0 .422-.234.188-.236.297-.594.11-.36.156-.781.047-.438.047-.813 0-.345-.062-.75a4.3 4.3 0 0 0-.188-.781 1.8 1.8 0 0 0-.296-.594q-.172-.234-.407-.234m6.297 5.859a.8.8 0 0 1-.094.375.9.9 0 0 1-.25.266q-.14.109-.328.171a1 1 0 0 1-.36.063 1.6 1.6 0 0 1-.515-.094 1.8 1.8 0 0 1-.5-.234 1.8 1.8 0 0 1-.375-.36.8.8 0 0 1-.156-.484q0-.422.36-.625a1.4 1.4 0 0 1 1.218-.14q.266.078.484.234.235.14.376.36.14.202.14.468m12.281-1.562q0 .312-.062.75a3.3 3.3 0 0 1-.203.843q-.156.39-.422.672-.266.266-.703.266-.579 0-.875-.422a2.9 2.9 0 0 1-.406-1 8 8 0 0 1-.157-1.203q-.016-.61-.031-.969-1.125.187-2.219.328-.03.36-.14.89a4.5 4.5 0 0 1-.313 1.032 2.7 2.7 0 0 1-.547.844q-.329.36-.812.36a.73.73 0 0 1-.594-.266 2.1 2.1 0 0 1-.312-.657 4 4 0 0 1-.141-.765q-.016-.406-.016-.672 0-.89.14-1.75a32 32 0 0 1 .579-2.797q.157-.61.375-1.25.234-.657.531-1.281.313-.642.703-1.141a3.5 3.5 0 0 1 .891-.812 2.05 2.05 0 0 1 1.109-.313q.594 0 1.032.266.437.265.765.703t.547 1q.219.547.36 1.125.156.563.25 1.11.109.546.187.968.203 1.016.344 2.062.14 1.031.14 2.079m-3.015-3.797q0-.188-.031-.61a6 6 0 0 0-.094-.86 2.7 2.7 0 0 0-.25-.765q-.156-.344-.438-.344-.156 0-.297.22a2.1 2.1 0 0 0-.25.53 7 7 0 0 0-.203.704q-.078.39-.14.75t-.094.656q-.031.281-.047.406.938-.078 1.844-.234zm8.609-2.485q0 .453-.312.672a6 6 0 0 1-.672.422q-.375.188-.688.453-.297.266-.297.797a.9.9 0 0 0 .125.484q.141.203.329.375.203.157.437.329.234.171.422.39.203.219.328.531.141.313.141.766 0 .657-.344 1.297a4.28 4.28 0 0 1-2.031 1.906q-.657.297-1.297.297-.266 0-.531-.047a1.5 1.5 0 0 1-.485-.14 1.05 1.05 0 0 1-.344-.297.9.9 0 0 1-.14-.516q0-.438.172-.672.171-.25.437-.39t.563-.22q.312-.077.578-.187.266-.124.437-.312.172-.187.172-.531 0-.33-.265-.672-.25-.36-.563-.75a8 8 0 0 1-.578-.86 2.03 2.03 0 0 1-.25-1q0-.672.266-1.234.28-.578.734-1 .469-.422 1.062-.656.594-.25 1.25-.25.25 0 .485.046.25.048.437.172a.8.8 0 0 1 .297.313.86.86 0 0 1 .125.484M119.861 80q0 .078-.016.172a1 1 0 0 1-.047.156 1.5 1.5 0 0 1-.437.61 1.1 1.1 0 0 1-.703.234q-.61 0-.829-.61a.5.5 0 0 1-.031-.171q0-.11-.015-.22v-.452a.9.9 0 0 0-.11-.344q-.078-.125-.265-.125-.266 0-.516.344a3.8 3.8 0 0 0-.422.797 7 7 0 0 0-.281.937q-.11.485-.11.781 0 .236.032.579.03.328.125.64.093.313.25.547.171.219.437.219a.8.8 0 0 0 .485-.156q.234-.172.453-.391.203-.187.437-.39a.87.87 0 0 1 .563-.204q.39 0 .609.281a.97.97 0 0 1 .234.641q0 .532-.281 1a3.2 3.2 0 0 1-.703.797q-.422.328-.937.516a2.7 2.7 0 0 1-.985.203q-.844 0-1.437-.422a3.3 3.3 0 0 1-.938-1.063 5 5 0 0 1-.515-1.422 7.2 7.2 0 0 1-.157-1.453q0-.797.219-1.719.219-.937.672-1.734a4.3 4.3 0 0 1 1.156-1.328q.719-.531 1.703-.531.61 0 1.047.265.453.267.735.704.296.421.437.953.156.531.156 1.046v.157a1 1 0 0 1-.015.156m7.422 3.219q0 .531-.344 1.047-.328.5-.844.906-.5.39-1.078.64-.579.235-1.063.235a2.76 2.76 0 0 1-1.484-.406 3.9 3.9 0 0 1-1.078-1.063 5.1 5.1 0 0 1-.672-1.406 5.6 5.6 0 0 1-.219-1.516q0-.78.219-1.672.22-.89.656-1.64.453-.75 1.125-1.25.688-.5 1.625-.5.531 0 1.016.187a2.46 2.46 0 0 1 1.422 1.281q.219.454.219 1.016a3.1 3.1 0 0 1-.313 1.375 3.6 3.6 0 0 1-.828 1.11 4.4 4.4 0 0 1-1.188.765 4 4 0 0 1-1.375.313q.063.453.36.656.312.203.734.203.313 0 .61-.156.296-.156.578-.344.28-.203.547-.36.281-.155.562-.156.312 0 .563.204t.25.53m-2.532-3.828a.94.94 0 0 0-.109-.422.36.36 0 0 0-.344-.219.9.9 0 0 0-.578.188 1.4 1.4 0 0 0-.391.453q-.156.266-.25.578a3 3 0 0 0-.093.578q.218-.047.515-.125a3 3 0 0 0 .578-.203q.282-.141.469-.344a.66.66 0 0 0 .203-.484m.875-5.547q0 .171-.093.344a1.6 1.6 0 0 1-.235.296 2.3 2.3 0 0 1-.281.266q-.156.109-.281.203a7 7 0 0 0-.25.188 3 3 0 0 1-.282.187 3 3 0 0 1-.296.14.7.7 0 0 1-.282.063.4.4 0 0 1-.218-.062.27.27 0 0 1-.094-.219q0-.234.172-.562.188-.344.453-.657.265-.328.562-.547.297-.234.547-.234a.52.52 0 0 1 .391.188q.187.172.187.406m5.203 2.687q0 .844-.078 1.703a23 23 0 0 0-.062 1.704q0 1.11.062 2.218.078 1.11.078 2.235 0 .28-.031.64-.031.345-.156.64a1.2 1.2 0 0 1-.344.5q-.234.204-.625.204-.375 0-.656-.375a3.3 3.3 0 0 1-.453-.922 12 12 0 0 1-.297-1.281q-.11-.703-.172-1.36a107 107 0 0 1-.078-1.218 31 31 0 0 1-.016-.828q0-.297.016-.86.031-.562.109-1.219.078-.656.203-1.328.141-.687.36-1.234.219-.562.515-.906.314-.36.735-.36.344 0 .515.235.188.219.266.547.078.312.094.671.015.345.015.594m8.032 5q0 .859-.172 1.703a4.8 4.8 0 0 1-.578 1.516 3.15 3.15 0 0 1-1.094 1.063q-.672.406-1.688.406-1 0-1.671-.39a3.2 3.2 0 0 1-1.079-1.063 4.8 4.8 0 0 1-.562-1.485 9 9 0 0 1-.156-1.687q0-.937.218-1.86.048-.249.172-.687.141-.453.344-.875.219-.438.484-.75.282-.313.61-.313.312 0 .5.172t.297.438q.109.25.14.547.032.28.032.515 0 .36-.063.703-.047.345-.109.688l-.125.937a9 9 0 0 0-.032 1.47q.032.28.125.546.094.266.266.453.172.172.484.172.407 0 .641-.219.25-.219.359-.547.126-.328.157-.703.03-.375.031-.687 0-.688-.094-1.344-.094-.672-.172-1.36a1.5 1.5 0 0 1 .063-.687q.078-.234.219-.422.14-.188.343-.297a.85.85 0 0 1 .453-.125q.345 0 .61.25.266.235.437.625.188.375.297.86.125.469.188.937.078.453.093.86.032.406.032.64m3.875-5q0 .844-.078 1.703-.063.844-.063 1.704 0 1.11.063 2.218.078 1.11.078 2.235 0 .28-.032.64-.03.345-.156.64a1.2 1.2 0 0 1-.344.5q-.234.204-.625.204-.374 0-.656-.375a3.3 3.3 0 0 1-.453-.922 12 12 0 0 1-.297-1.281q-.11-.703-.172-1.36a107 107 0 0 1-.078-1.218 35 35 0 0 1-.015-.828q0-.297.015-.86.031-.562.11-1.219.078-.656.203-1.328.14-.687.359-1.234.219-.562.516-.906.312-.36.734-.36.344 0 .516.235.187.219.265.547.078.312.094.671.015.345.016.594m7.828 7.266q0 .28-.031.734a4.4 4.4 0 0 1-.125.89 2.1 2.1 0 0 1-.344.735q-.234.313-.656.313-.579 0-.891-.375t-.297-.938q-.5.438-1.141.688-.624.25-1.281.25-.453 0-.859-.219a2.7 2.7 0 0 1-.719-.562 2.9 2.9 0 0 1-.5-.766 2.2 2.2 0 0 1-.187-.86q0-.75.453-1.312a4.2 4.2 0 0 1 1.14-.953q.672-.406 1.422-.64a8.5 8.5 0 0 1 1.36-.313v-.14a.6.6 0 0 0 .015-.141q0-.485-.265-.782-.267-.297-.75-.297-.392 0-.672.141a3.3 3.3 0 0 0-.532.297q-.25.156-.5.297a1.24 1.24 0 0 1-.562.125.87.87 0 0 1-.594-.219.74.74 0 0 1-.234-.562q0-.516.297-.938.312-.422.765-.703a4 4 0 0 1 1-.453 3.4 3.4 0 0 1 1-.172q.423 0 .844.11.422.093.797.312.375.203.672.515.312.297.5.704.28.577.453 1.234.171.64.266 1.328.093.672.125 1.36.03.671.031 1.312m-2.5-.5-.047-1.063h-.063a.13.13 0 0 0-.062-.015q-.203 0-.516.11-.296.093-.578.28a2.3 2.3 0 0 0-.484.391.7.7 0 0 0-.188.453q0 .219.157.297a.8.8 0 0 0 .359.078q.344 0 .734-.172.391-.188.688-.36m8.015-5.89q0 .452-.312.671a6 6 0 0 1-.672.422q-.375.188-.687.453-.297.266-.297.797a.9.9 0 0 0 .125.484q.14.203.328.375.203.157.437.329.235.171.422.39.204.219.328.531.141.313.141.766 0 .657-.344 1.297a4.28 4.28 0 0 1-2.031 1.906q-.657.297-1.297.297-.266 0-.531-.047a1.5 1.5 0 0 1-.485-.14 1 1 0 0 1-.343-.297.9.9 0 0 1-.141-.516q0-.438.172-.672.171-.25.437-.39t.563-.22q.312-.077.578-.187a1.4 1.4 0 0 0 .438-.312q.171-.187.171-.531 0-.33-.265-.672a14 14 0 0 0-.563-.75 8 8 0 0 1-.578-.86 2.03 2.03 0 0 1-.25-1q0-.672.266-1.234.28-.578.734-1 .47-.422 1.063-.656.593-.25 1.25-.25.25 0 .484.046.25.048.438.172a.8.8 0 0 1 .296.313.85.85 0 0 1 .125.484m10.938-.75q0 .296-.063.577a1.2 1.2 0 0 1-.187.47 1.05 1.05 0 0 1-.375.327q-.234.11-.578.11-.391 0-.578-.157a.86.86 0 0 1-.266-.375 2 2 0 0 1-.062-.5 3.4 3.4 0 0 0-.032-.484.9.9 0 0 0-.109-.39q-.094-.157-.344-.157-.234 0-.39.36-.14.36-.235.828a7 7 0 0 0-.125.921q-.031.438-.031.594.203-.03.391-.047a2.5 2.5 0 0 1 .859.016q.234.047.437.156a.8.8 0 0 1 .329.281q.125.172.125.438 0 .282-.25.5-.235.218-.579.375a5 5 0 0 1-.671.234q-.345.095-.547.125.047 1.08.047 2.172 0 1.032-.047 2.031a1.2 1.2 0 0 1-.344.797q-.297.313-.781.313a.9.9 0 0 1-.453-.11.85.85 0 0 1-.313-.265 1.6 1.6 0 0 1-.203-.39 2 2 0 0 1-.078-.454 56 56 0 0 1-.125-1.875q-.047-.952-.031-1.906a2 2 0 0 1-.219.016h-.203a2.7 2.7 0 0 1-.969-.204 1.7 1.7 0 0 1-.406-.296.6.6 0 0 1-.172-.438q0-.344.234-.578.219-.234.531-.375.329-.156.672-.219.36-.062.625-.094v-.25q0-.765.141-1.64t.5-1.625q.36-.75.984-1.235.625-.5 1.594-.5.609 0 1.047.266.438.25.719.672.281.406.406.937.125.516.125 1.047m2-1.563a.65.65 0 0 1-.125.39 1.2 1.2 0 0 1-.297.313q-.187.124-.406.203a1.5 1.5 0 0 1-.406.063.96.96 0 0 1-.547-.157q-.235-.156-.235-.484a.74.74 0 0 1 .11-.406 1 1 0 0 1 .297-.297q.171-.126.39-.188a1.5 1.5 0 0 1 .422-.062q.297 0 .547.14t.25.485m.125 5.312v.469q0 .234-.016.453-.015.266-.015.719 0 .438-.032.953-.03.516-.109 1.047a4.4 4.4 0 0 1-.219.969 2 2 0 0 1-.422.718.9.9 0 0 1-.64.282.58.58 0 0 1-.5-.235 2.2 2.2 0 0 1-.344-.64 5.3 5.3 0 0 1-.187-.891 17 17 0 0 1-.094-.953 13 13 0 0 1-.031-.86v-1.281q0-.469.031-1 .031-.53.109-1.078.094-.547.25-1a2.2 2.2 0 0 1 .438-.734.88.88 0 0 1 .672-.281q.421 0 .64.421.219.423.328.985t.125 1.125q.016.546.016.812m6.906-.406q0 .078-.015.172a1 1 0 0 1-.047.156q-.141.36-.438.61a1.1 1.1 0 0 1-.703.234q-.609 0-.828-.61a.5.5 0 0 1-.031-.171q0-.11-.016-.22v-.452a.9.9 0 0 0-.109-.344q-.078-.125-.266-.125-.266 0-.516.344a3.8 3.8 0 0 0-.421.797 7 7 0 0 0-.282.937 3.7 3.7 0 0 0-.109.781q0 .236.031.579.032.328.125.64.094.313.25.547a.54.54 0 0 0 .438.219.8.8 0 0 0 .484-.156q.234-.172.453-.391.203-.187.438-.39a.87.87 0 0 1 .562-.204q.391 0 .61.281a.97.97 0 0 1 .234.641q0 .532-.281 1a3.2 3.2 0 0 1-.703.797q-.423.328-.938.516a2.7 2.7 0 0 1-.984.203q-.844 0-1.438-.422a3.3 3.3 0 0 1-.937-1.063 5 5 0 0 1-.516-1.422 7.3 7.3 0 0 1-.156-1.453q0-.797.219-1.719a6.4 6.4 0 0 1 .671-1.734 4.3 4.3 0 0 1 1.157-1.328q.719-.531 1.703-.531.609 0 1.047.265.453.267.734.704.297.421.438.953.156.531.156 1.046v.157a1 1 0 0 1-.016.156m7.516 3.797q0 .28-.031.734a4.4 4.4 0 0 1-.125.89 2.1 2.1 0 0 1-.344.735q-.234.313-.656.313-.579 0-.891-.375t-.297-.938q-.5.438-1.141.688-.624.25-1.281.25-.453 0-.859-.219a2.7 2.7 0 0 1-.719-.562 2.9 2.9 0 0 1-.5-.766 2.2 2.2 0 0 1-.187-.86q0-.75.453-1.312a4.2 4.2 0 0 1 1.14-.953q.672-.406 1.422-.64a8.5 8.5 0 0 1 1.36-.313v-.14a.6.6 0 0 0 .015-.141q0-.485-.265-.782-.267-.297-.75-.297-.392 0-.672.141a3.3 3.3 0 0 0-.532.297q-.25.156-.5.297a1.24 1.24 0 0 1-.562.125.87.87 0 0 1-.594-.219.74.74 0 0 1-.234-.562q0-.516.297-.938.312-.422.765-.703a4 4 0 0 1 1-.453 3.4 3.4 0 0 1 1-.172q.423 0 .844.11.422.093.797.312.375.203.672.515.312.297.5.704.28.577.453 1.234.171.64.266 1.328.093.672.125 1.36.03.671.031 1.312m-2.5-.5-.047-1.063h-.063a.13.13 0 0 0-.062-.015q-.203 0-.516.11-.296.093-.578.28a2.3 2.3 0 0 0-.484.391.7.7 0 0 0-.188.453q0 .219.157.297a.8.8 0 0 0 .359.078q.344 0 .734-.172.391-.188.688-.36m12.922-2.453v.812q0 .5-.032 1.094-.015.594-.093 1.203a5.3 5.3 0 0 1-.25 1.078q-.157.485-.407.797a.78.78 0 0 1-.64.313.6.6 0 0 1-.531-.282 2.2 2.2 0 0 1-.25-.687 5 5 0 0 1-.094-.797v-.64q0-.704.047-1.376t.047-1.375v-.28q0-.204-.032-.407a1.2 1.2 0 0 0-.109-.36q-.062-.156-.203-.156-.282 0-.453.297a2.7 2.7 0 0 0-.282.672q-.11.39-.156.781-.047.375-.062.563a9 9 0 0 0-.063.61q-.015.405-.062.89a9 9 0 0 1-.125 1 6 6 0 0 1-.219.922q-.125.405-.328.671t-.5.266a.64.64 0 0 1-.578-.328 2.4 2.4 0 0 1-.297-.766 6 6 0 0 1-.125-.89 20 20 0 0 1-.016-.703v-.516q.016-.25.016-.516v-.359a10 10 0 0 0-.016-.547 7 7 0 0 0-.031-.64 5 5 0 0 0-.063-.594 1.5 1.5 0 0 0-.14-.453q-.094-.172-.219-.172-.203 0-.375.265-.173.25-.297.61-.125.343-.203.687-.063.345-.062.5v.094q0 .75.093 1.469.094.719.094 1.469 0 .437-.281.812-.282.36-.781.36a.76.76 0 0 1-.594-.266 2.4 2.4 0 0 1-.391-.719 6 6 0 0 1-.25-.953 13 13 0 0 1-.109-1.031 39 39 0 0 1-.047-.922v-.625q0-.234-.016-.688 0-.453.016-.984.031-.531.094-1.078a5.4 5.4 0 0 1 .203-1.016 2.3 2.3 0 0 1 .359-.734.73.73 0 0 1 .594-.297q.406 0 .656.219.266.218.266.656 0 .093-.016.187 0 .094-.015.172.172-.25.421-.5.25-.265.532-.469.297-.218.625-.343.327-.14.656-.14.312 0 .562.171t.438.438q.188.25.312.546.126.297.172.563.156-.282.375-.563.235-.297.5-.515.266-.219.578-.36.329-.14.672-.14.329 0 .563.234t.406.61q.172.36.266.828.093.453.156.906.063.437.078.828.015.375.016.594M65.673 97.656q0 .296-.062.578a1.2 1.2 0 0 1-.188.47 1.04 1.04 0 0 1-.375.327q-.234.11-.578.11-.39 0-.578-.157a.86.86 0 0 1-.266-.375 2 2 0 0 1-.062-.5q0-.265-.032-.484a.86.86 0 0 0-.109-.39q-.093-.157-.344-.157-.234 0-.39.36-.14.36-.235.828-.093.469-.125.921-.03.438-.03.594.203-.03.39-.047a2.5 2.5 0 0 1 .86.016q.233.047.437.156a.8.8 0 0 1 .328.282q.125.171.125.437 0 .28-.25.5a2.1 2.1 0 0 1-.578.375 5 5 0 0 1-.672.234q-.345.095-.547.125.047 1.078.047 2.172 0 1.032-.047 2.031-.031.485-.344.797-.297.313-.781.313a.9.9 0 0 1-.453-.11.85.85 0 0 1-.313-.265 1.6 1.6 0 0 1-.203-.391 2.2 2.2 0 0 1-.078-.453 57 57 0 0 1-.125-1.875q-.047-.953-.031-1.906-.11.016-.219.016h-.203q-.187 0-.453-.047a2.3 2.3 0 0 1-.516-.157 1.7 1.7 0 0 1-.406-.296.6.6 0 0 1-.172-.438q0-.344.234-.578.219-.234.532-.375.327-.156.672-.219.36-.063.624-.094v-.25q0-.765.141-1.64t.5-1.625.984-1.235q.625-.5 1.594-.5.61 0 1.047.266.438.25.719.672.281.405.406.937.126.516.125 1.047m4.844 3.5q-.218.016-.375-.031l-.313-.125a3 3 0 0 0-.28-.109.6.6 0 0 0-.313-.047q-.313.015-.563.172a2.2 2.2 0 0 0-.437.39 2.7 2.7 0 0 0-.329.532 3 3 0 0 0-.218.562 4 4 0 0 0-.078.578q-.016.375-.016.813a25 25 0 0 0-.016.859q0 .406-.03.641-.016.25-.079.593-.063.328-.203.625a1.4 1.4 0 0 1-.344.5.8.8 0 0 1-.562.203.75.75 0 0 1-.47-.156 1.4 1.4 0 0 1-.327-.406 4 4 0 0 1-.219-.609 8 8 0 0 1-.125-.703q-.047-.375-.078-.75-.015-.375-.031-.704v-.625a8 8 0 0 0 .015-.453q-.015-.546-.062-1.094-.031-.561-.031-1.109 0-.343.03-.766.032-.42.173-.78.14-.376.406-.626.281-.25.766-.25.266 0 .453.172.188.172.296.422.126.25.188.531.063.282.078.516.375-.609.844-.984.468-.39 1.219-.422.374-.016.734.078.375.078.672.281.312.188.5.5.203.312.219.734.03.5-.297.766a1.3 1.3 0 0 1-.797.281m7.969 3.641q0 .28-.032.734-.015.453-.125.891a2.1 2.1 0 0 1-.343.734q-.235.313-.657.313-.578 0-.89-.375t-.297-.938a3.8 3.8 0 0 1-1.14.688q-.625.25-1.282.25-.453 0-.86-.219a2.7 2.7 0 0 1-.718-.563 2.9 2.9 0 0 1-.5-.765 2.2 2.2 0 0 1-.188-.859q0-.75.454-1.313a4.2 4.2 0 0 1 1.14-.953 6.5 6.5 0 0 1 1.422-.641q.766-.234 1.36-.312v-.141a.6.6 0 0 0 .015-.14q0-.485-.266-.782t-.75-.297q-.39 0-.671.141a3.3 3.3 0 0 0-.532.297q-.25.156-.5.297a1.25 1.25 0 0 1-.562.125.87.87 0 0 1-.594-.219.74.74 0 0 1-.234-.562q0-.516.296-.938.313-.422.766-.703a4 4 0 0 1 1-.453 3.4 3.4 0 0 1 1-.172q.422 0 .844.11.422.093.797.312.375.203.672.515.312.297.5.704.28.577.453 1.234.172.64.265 1.328.095.672.125 1.359.032.672.032 1.313m-2.5-.5-.047-1.063h-.063a.14.14 0 0 0-.062-.015 1.6 1.6 0 0 0-.516.109q-.296.094-.578.281a2.3 2.3 0 0 0-.484.391.7.7 0 0 0-.188.453q0 .219.156.297a.8.8 0 0 0 .36.078q.344 0 .734-.172.39-.188.688-.359m10.703-4.563-.25 2.266q-.125 1.125-.172 2.25a33 33 0 0 0-.063 2.453q.015 1.157.016 2.453 0 .313-.016.766 0 .453-.109.875a1.8 1.8 0 0 1-.36.719q-.234.296-.718.296a.62.62 0 0 1-.406-.14 1.4 1.4 0 0 1-.282-.375 3 3 0 0 1-.187-.5 10 10 0 0 1-.11-.578A12 12 0 0 1 83.94 109v-2.969q-.36.469-.938.719a2.9 2.9 0 0 1-1.125.234q-.703 0-1.219-.328a3 3 0 0 1-.828-.859 4 4 0 0 1-.484-1.156 5 5 0 0 1-.156-1.219v-.094q0-.813.25-1.75a6.8 6.8 0 0 1 .734-1.766q.5-.812 1.234-1.343a2.87 2.87 0 0 1 1.735-.547q.531 0 .969.219.453.218.64.718a1.33 1.33 0 0 1 .375-.578.98.98 0 0 1 .672-.234q.516 0 .719.344.219.327.219.734 0 .172-.016.313zm-3.594.375q-.36 0-.672.297-.312.282-.547.703a4 4 0 0 0-.375.875 3.3 3.3 0 0 0-.125.828q0 .22.031.469.047.25.126.485.093.217.234.375.156.14.39.14.203 0 .47-.093.281-.11.546-.266a3 3 0 0 0 .469-.375q.204-.204.281-.391.047-.11.078-.328a6 6 0 0 0 .047-.453 8 8 0 0 0 .063-.844q0-.187-.094-.422a2 2 0 0 0-.219-.468 1.3 1.3 0 0 0-.328-.375.58.58 0 0 0-.375-.157m11.188 2.422q0 .86-.172 1.703a4.7 4.7 0 0 1-.579 1.516q-.405.657-1.093 1.062-.672.407-1.688.407-1 0-1.672-.391a3.2 3.2 0 0 1-1.078-1.062 4.8 4.8 0 0 1-.562-1.485 9 9 0 0 1-.156-1.687q0-.937.218-1.86.047-.249.172-.687a6.4 6.4 0 0 1 .344-.875 3.7 3.7 0 0 1 .484-.75q.281-.313.61-.313.312 0 .5.172t.296.438q.11.25.141.547.031.28.031.515 0 .36-.062.703-.047.345-.11.688l-.124.937a9.4 9.4 0 0 0-.032 1.469q.032.282.125.547.094.266.266.453.172.172.484.172.407 0 .64-.219.251-.219.36-.547.126-.328.156-.703.032-.375.032-.687 0-.688-.094-1.344-.094-.672-.172-1.36a1.5 1.5 0 0 1 .063-.687q.078-.234.218-.422t.344-.297a.85.85 0 0 1 .453-.125q.345 0 .61.25.266.235.437.625.188.375.297.86.125.468.188.937.078.453.093.86.031.405.031.64m3.53-6.437a.65.65 0 0 1-.124.39 1.2 1.2 0 0 1-.297.313q-.187.124-.406.203a1.5 1.5 0 0 1-.407.063.96.96 0 0 1-.546-.157q-.235-.156-.235-.484a.74.74 0 0 1 .11-.406q.125-.187.296-.297.172-.126.391-.188t.422-.062q.297 0 .547.14t.25.485m.126 5.312v.469q0 .234-.016.453-.016.266-.016.719 0 .438-.03.953-.033.516-.11 1.047a4.4 4.4 0 0 1-.219.969 2 2 0 0 1-.422.718.9.9 0 0 1-.64.282.58.58 0 0 1-.5-.235 2.2 2.2 0 0 1-.344-.64 5.4 5.4 0 0 1-.188-.891 17 17 0 0 1-.093-.953q-.032-.47-.032-.859v-1.282q0-.468.032-1 .03-.53.109-1.078.094-.547.25-1a2.2 2.2 0 0 1 .438-.734.88.88 0 0 1 .671-.281q.422 0 .641.421.219.423.328.985t.125 1.125q.016.546.016.812m5.547 6.032q-.266 0-.422-.25a1.8 1.8 0 0 1-.235-.547 4.4 4.4 0 0 1-.109-.625q-.016-.329-.016-.5 0-.469.047-.938l.125-.937q.078-.469.125-.938.063-.469.063-.937 0-.188-.016-.407a1.6 1.6 0 0 0-.078-.406.66.66 0 0 0-.172-.328.45.45 0 0 0-.328-.125q-.141 0-.312.234a3.4 3.4 0 0 0-.329.516q-.14.281-.25.578a1.5 1.5 0 0 0-.093.422v.703q.015.344.015.703v.906q-.015.282-.047.579-.03.296-.093.578-.047.281-.141.547a1.8 1.8 0 0 1-.25.453 1.2 1.2 0 0 1-.344.312.9.9 0 0 1-.484.125.7.7 0 0 1-.516-.203 1.5 1.5 0 0 1-.328-.515 3.6 3.6 0 0 1-.187-.719 25 25 0 0 1-.079-.781q-.015-.391-.015-.704.015-.327.016-.515v-.735q0-.593-.032-1.172-.015-.577-.015-1.156v-.797q.015-.484.125-.937.109-.469.359-.797t.734-.328q.219 0 .391.14t.297.344q.141.203.219.438.093.234.14.406.156-.22.36-.422.218-.203.484-.36a2.53 2.53 0 0 1 1.344-.343q.796 0 1.234.39.453.375.656.954.22.563.266 1.218.047.657.047 1.188 0 .266-.047.797-.046.516-.156 1.156a13 13 0 0 1-.266 1.297 8.5 8.5 0 0 1-.406 1.203 3 3 0 0 1-.563.891q-.312.344-.718.344m10.125-4.485q0 .266-.016.797 0 .516-.047 1.094-.031.562-.094 1.078-.062.5-.156.734-.125.297-.328.516t-.547.219q-.531 0-.765-.422-.235-.422-.313-1.047a9 9 0 0 1-.062-1.36q.015-.734-.016-1.359a4 4 0 0 0-.172-1.047q-.141-.422-.516-.422-.515 0-.796.172a.95.95 0 0 0-.391.422q-.11.265-.141.61-.015.343-.047.718-.03.36-.046.969a6.7 6.7 0 0 1-.141 1.203q-.125.594-.422 1.031-.281.422-.844.422a.7.7 0 0 1-.562-.265 2.1 2.1 0 0 1-.328-.688 6 6 0 0 1-.188-.937 17 17 0 0 1-.062-1v-.907q.015-.406.015-.609 0-.312.016-1.031a41 41 0 0 1 .312-3.422q.126-.938.329-1.703.202-.782.484-1.266.297-.484.687-.469.25.016.422.22.188.203.297.53.125.313.203.688t.11.75q.047.36.047.672.015.313.015.484a22 22 0 0 1-.062 1.625q.359-.484.953-.797a2.65 2.65 0 0 1 1.219-.312q.78 0 1.171.437.406.422.579 1.063.171.624.187 1.344.016.702.016 1.265m7.75 1.844q0 .28-.032.734-.015.453-.125.891a2.1 2.1 0 0 1-.343.734q-.235.313-.657.313-.578 0-.89-.375-.314-.375-.297-.938a3.8 3.8 0 0 1-1.141.688q-.624.25-1.281.25-.453 0-.859-.219a2.7 2.7 0 0 1-.719-.563 2.9 2.9 0 0 1-.5-.765 2.2 2.2 0 0 1-.188-.859q0-.75.454-1.313a4.2 4.2 0 0 1 1.14-.953 6.5 6.5 0 0 1 1.422-.641q.766-.234 1.359-.312v-.141a.6.6 0 0 0 .016-.14q0-.485-.266-.782t-.75-.297q-.39 0-.671.141a3.3 3.3 0 0 0-.532.297q-.25.156-.5.297a1.24 1.24 0 0 1-.562.125.87.87 0 0 1-.594-.219.74.74 0 0 1-.234-.562q0-.516.297-.938.312-.422.765-.703a4 4 0 0 1 1-.453 3.4 3.4 0 0 1 1-.172q.422 0 .844.11.422.093.797.312.375.203.672.515.312.297.5.704.28.577.453 1.234.172.64.265 1.328.095.672.125 1.359.032.672.032 1.313m-2.5-.5-.047-1.063h-.063a.14.14 0 0 0-.062-.015q-.204 0-.516.109a2.3 2.3 0 0 0-.578.281 2.3 2.3 0 0 0-.484.391.7.7 0 0 0-.188.453q0 .219.156.297a.8.8 0 0 0 .36.078q.344 0 .734-.172.391-.188.688-.359m8.015-5.89q0 .452-.312.671a6 6 0 0 1-.672.422q-.375.188-.688.453-.296.266-.296.797 0 .282.125.484.14.204.328.375.203.157.437.329.234.171.422.39.203.219.328.531.141.313.141.766 0 .656-.344 1.297a4.28 4.28 0 0 1-2.031 1.906 3.1 3.1 0 0 1-1.297.297q-.266 0-.531-.047a1.5 1.5 0 0 1-.485-.14 1.04 1.04 0 0 1-.343-.297.9.9 0 0 1-.141-.516q0-.438.172-.672.171-.25.437-.391a2.7 2.7 0 0 1 .563-.218q.312-.078.578-.188.266-.124.437-.312.172-.187.172-.532 0-.327-.265-.671-.25-.36-.563-.75a8 8 0 0 1-.578-.86 2.03 2.03 0 0 1-.25-1q0-.672.266-1.234.28-.578.734-1 .47-.422 1.063-.656.593-.25 1.25-.25.25 0 .484.046.25.048.437.172a.8.8 0 0 1 .297.313.85.85 0 0 1 .125.484m2.875 7.765q0 .25-.14.64a4.5 4.5 0 0 1-.328.766 2.7 2.7 0 0 1-.438.641q-.25.265-.484.265-.313 0-.313-.312 0-.188.078-.36.079-.171.172-.343a3 3 0 0 0 .172-.328.7.7 0 0 0 .078-.313.9.9 0 0 1-.5.156.78.78 0 0 1-.609-.281.92.92 0 0 1-.25-.625q0-.5.328-.797.328-.312.828-.312.562 0 .984.297.423.297.422.906m8.032 1.39q-1.11 0-1.735-.296a2.02 2.02 0 0 1-.922-.813q-.297-.531-.359-1.281-.063-.75-.063-1.672 0-.734.047-1.469.047-.75.141-1.593-.22 0-.344.015h-.203q-.5 0-.859-.219-.375-.218-.375-.671a.7.7 0 0 1 .218-.5q.204-.219.532-.376.328-.156.703-.25.39-.094.734-.124 0-.438.063-.97.062-.53.218-.984.172-.468.454-.78a.92.92 0 0 1 .718-.313q.25 0 .438.156.203.141.328.375.125.218.187.5.063.281.063.547 0 .312-.047.64-.047.33-.172.813a4 4 0 0 1 .36-.031 1 1 0 0 1 .171-.016q.266 0 .547.047.297.046.532.156.25.11.406.297a.6.6 0 0 1 .156.422.67.67 0 0 1-.234.5q-.22.218-.563.375a4 4 0 0 1-.734.25 7 7 0 0 1-.735.109q-.093.64-.14 1.188-.031.53-.078 1.078l-.063.547q-.015.265-.015.547 0 .202.015.484.016.266.11.516.093.25.296.437.203.172.563.172.219 0 .453-.031.234-.048.469-.047.406 0 .578.281.187.282.187.719a.9.9 0 0 1-.203.578 1.35 1.35 0 0 1-.484.375 2.6 2.6 0 0 1-.672.234q-.36.078-.687.078m9-2.765q0 .28-.032.734-.015.453-.125.891a2.1 2.1 0 0 1-.343.734q-.235.313-.657.313-.578 0-.89-.375t-.297-.938a3.9 3.9 0 0 1-1.141.688q-.625.25-1.281.25-.454 0-.859-.219a2.7 2.7 0 0 1-.719-.563 2.8 2.8 0 0 1-.5-.765 2.2 2.2 0 0 1-.188-.859q0-.75.453-1.313a4.3 4.3 0 0 1 1.141-.953 6.5 6.5 0 0 1 1.422-.641q.765-.234 1.359-.312v-.141a.6.6 0 0 0 .016-.14q0-.485-.266-.782t-.75-.297q-.39 0-.672.141a3.3 3.3 0 0 0-.531.297q-.25.156-.5.297a1.25 1.25 0 0 1-.562.125.87.87 0 0 1-.594-.219.74.74 0 0 1-.234-.562q0-.516.296-.938.313-.422.766-.703a4 4 0 0 1 1-.453 3.4 3.4 0 0 1 1-.172q.422 0 .844.11.422.093.797.312.375.203.672.515.312.297.5.704.28.577.453 1.234.172.64.265 1.328.094.672.125 1.359.032.672.032 1.313m-2.5-.5-.047-1.063h-.063a.14.14 0 0 0-.062-.015q-.204 0-.516.109a2.3 2.3 0 0 0-.578.281 2.3 2.3 0 0 0-.484.391.7.7 0 0 0-.188.453q0 .219.156.297a.8.8 0 0 0 .36.078q.344 0 .734-.172.39-.188.688-.359m10.171-7.578q0 1.14-.093 2.265-.078 1.125-.078 2.266 0 .922.046 1.828.063.906.063 1.828 0 .25-.016.61-.015.344-.109.672a1.3 1.3 0 0 1-.281.562q-.188.234-.547.234a1.01 1.01 0 0 1-.781-.343 1.7 1.7 0 0 1-.375-.797 2.7 2.7 0 0 1-.86.953q-.562.39-1.219.391a1.72 1.72 0 0 1-1.218-.485 4.3 4.3 0 0 1-.844-1.172 7 7 0 0 1-.5-1.437 6.5 6.5 0 0 1-.156-1.297 9.4 9.4 0 0 1 .203-1.906q.125-.516.312-1 .188-.5.469-.891.297-.39.688-.625.406-.234.921-.234.563 0 1.079.328.515.329.781.812l.14-2.484q.016-.297.047-.688.032-.406.125-.765.11-.36.328-.61.22-.25.641-.25.453 0 .703.22.25.218.36.562.125.327.14.718.031.39.031.735m-2.546 6.937q0-.359-.016-.703a8 8 0 0 1 0-.703 10 10 0 0 0-.219-.438 2 2 0 0 0-.312-.453 1.6 1.6 0 0 0-.391-.359.85.85 0 0 0-.469-.141.62.62 0 0 0-.453.172 1 1 0 0 0-.25.422 2.5 2.5 0 0 0-.109.516 8 8 0 0 0-.016.484q0 .188.031.563.032.359.11.734.094.375.25.656t.422.282q.202 0 .406-.079.202-.093.375-.218.187-.141.344-.297.171-.172.297-.313zm6.156-7.562a.65.65 0 0 1-.125.39 1.2 1.2 0 0 1-.297.313 2 2 0 0 1-.406.203 1.5 1.5 0 0 1-.407.063.96.96 0 0 1-.546-.157q-.235-.156-.235-.484a.74.74 0 0 1 .11-.406q.125-.187.296-.297.172-.126.391-.188.218-.062.422-.062.297 0 .547.14t.25.485m.125 5.312v.469q0 .234-.016.453-.015.266-.015.719 0 .438-.032.953a12 12 0 0 1-.109 1.047 4.5 4.5 0 0 1-.219.969 2 2 0 0 1-.422.718.9.9 0 0 1-.64.282.58.58 0 0 1-.5-.235 2.2 2.2 0 0 1-.344-.64 5.4 5.4 0 0 1-.188-.891 17 17 0 0 1-.093-.953 13 13 0 0 1-.032-.859v-1.282q0-.468.032-1 .03-.53.109-1.078a6.5 6.5 0 0 1 .25-1q.172-.453.438-.734a.88.88 0 0 1 .671-.281q.423 0 .641.421.219.423.328.985t.125 1.125q.016.546.016.812m5.547 6.032q-.266 0-.422-.25a1.8 1.8 0 0 1-.235-.547 4.4 4.4 0 0 1-.109-.625q-.016-.329-.016-.5 0-.469.047-.938l.125-.937q.078-.469.125-.938.063-.469.063-.937 0-.188-.016-.407a1.6 1.6 0 0 0-.078-.406.66.66 0 0 0-.172-.328.45.45 0 0 0-.328-.125q-.141 0-.312.234a3.4 3.4 0 0 0-.329.516q-.14.281-.25.578a1.5 1.5 0 0 0-.093.422v.703q.015.344.015.703v.906q-.015.282-.047.579-.03.296-.093.578-.047.281-.141.547a1.8 1.8 0 0 1-.25.453 1.2 1.2 0 0 1-.344.312.9.9 0 0 1-.484.125.7.7 0 0 1-.516-.203 1.5 1.5 0 0 1-.328-.515 3.6 3.6 0 0 1-.187-.719 21 21 0 0 1-.078-.781 17 17 0 0 1-.016-.704q.015-.327.016-.515v-.735q0-.593-.032-1.172a45 45 0 0 1-.015-1.156v-.797q.015-.484.125-.937a2.1 2.1 0 0 1 .359-.797q.25-.328.734-.328.219 0 .391.14t.297.344q.141.203.219.438.093.234.14.406.156-.22.36-.422.218-.203.484-.36a2.53 2.53 0 0 1 1.344-.343q.796 0 1.234.39.453.375.656.954.22.563.266 1.218.047.657.047 1.188 0 .266-.047.797-.047.516-.156 1.156a13 13 0 0 1-.266 1.297 8.5 8.5 0 0 1-.406 1.203 3 3 0 0 1-.563.891q-.312.344-.718.344m10.125-4.485q0 .266-.016.797 0 .516-.047 1.094-.031.562-.094 1.078-.061.5-.156.734-.125.297-.328.516t-.547.219q-.531 0-.765-.422-.235-.422-.313-1.047a9 9 0 0 1-.062-1.36q.015-.734-.016-1.359a4 4 0 0 0-.172-1.047q-.141-.422-.516-.422-.515 0-.796.172a.95.95 0 0 0-.391.422q-.11.265-.141.61-.015.343-.047.718-.03.36-.046.969a6.7 6.7 0 0 1-.141 1.203q-.125.594-.422 1.031-.281.422-.844.422a.7.7 0 0 1-.562-.265 2.1 2.1 0 0 1-.328-.688 6 6 0 0 1-.188-.937 17 17 0 0 1-.062-1v-.907q.015-.406.015-.609 0-.312.016-1.031a41 41 0 0 1 .312-3.422q.125-.938.329-1.703.202-.782.484-1.266.297-.484.687-.469.25.016.422.22.188.203.297.53.125.313.203.688t.11.75q.047.36.047.672.015.313.015.484a22 22 0 0 1-.062 1.625q.359-.484.953-.797a2.65 2.65 0 0 1 1.219-.312q.78 0 1.171.437.406.422.579 1.063.171.624.187 1.344.015.702.016 1.265m7.75 1.844q0 .28-.032.734-.015.453-.125.891a2.1 2.1 0 0 1-.343.734q-.235.313-.657.313-.578 0-.89-.375-.314-.375-.297-.938a3.8 3.8 0 0 1-1.141.688q-.624.25-1.281.25-.453 0-.859-.219a2.7 2.7 0 0 1-.719-.563 2.9 2.9 0 0 1-.5-.765 2.2 2.2 0 0 1-.188-.859q0-.75.454-1.313a4.2 4.2 0 0 1 1.14-.953 6.5 6.5 0 0 1 1.422-.641q.766-.234 1.359-.312v-.141a.6.6 0 0 0 .016-.14q0-.485-.266-.782t-.75-.297q-.39 0-.671.141a3.3 3.3 0 0 0-.532.297q-.25.156-.5.297a1.24 1.24 0 0 1-.562.125.87.87 0 0 1-.594-.219.74.74 0 0 1-.234-.562q0-.516.297-.938.312-.422.765-.703a4 4 0 0 1 1-.453 3.4 3.4 0 0 1 1-.172q.422 0 .844.11.422.093.797.312.375.203.672.515.312.297.5.704.28.577.453 1.234.172.64.265 1.328.095.672.125 1.359.032.672.032 1.313m-2.5-.5-.047-1.063h-.063a.14.14 0 0 0-.062-.015q-.204 0-.516.109a2.3 2.3 0 0 0-.578.281 2.3 2.3 0 0 0-.484.391.7.7 0 0 0-.188.453q0 .219.156.297a.8.8 0 0 0 .36.078q.344 0 .734-.172.391-.188.688-.359m8.015-5.89q0 .452-.312.671a6 6 0 0 1-.672.422q-.375.188-.688.453-.296.266-.296.797 0 .282.125.484.14.204.328.375.203.157.437.329.234.171.422.39.203.219.328.531.141.313.141.766 0 .656-.344 1.297a4.28 4.28 0 0 1-2.031 1.906 3.1 3.1 0 0 1-1.297.297q-.266 0-.531-.047a1.5 1.5 0 0 1-.485-.14 1.04 1.04 0 0 1-.343-.297.9.9 0 0 1-.141-.516q0-.438.172-.672.171-.25.437-.391a2.7 2.7 0 0 1 .563-.218q.312-.078.578-.188.266-.124.437-.312.172-.187.172-.532 0-.327-.265-.671-.25-.36-.563-.75a8 8 0 0 1-.578-.86 2.03 2.03 0 0 1-.25-1q0-.672.266-1.234.28-.578.734-1 .47-.422 1.063-.656.593-.25 1.25-.25.25 0 .484.046.25.048.437.172a.8.8 0 0 1 .297.313.85.85 0 0 1 .125.484m3.547 2.046q0 .25-.031.688-.031.421-.094.921a9 9 0 0 1-.187 1 7 7 0 0 1-.266.922 2.4 2.4 0 0 1-.375.672q-.219.25-.5.25-.344 0-.594-.328a3.5 3.5 0 0 1-.406-.859 9 9 0 0 1-.25-1.172 19 19 0 0 1-.141-1.25 26 26 0 0 1-.062-1.141v-1.515q0-.439.031-.922.047-.484.125-.953.094-.485.266-.875.171-.391.453-.625.281-.25.703-.25.375 0 .609.328.25.312.391.828.156.5.219 1.125.078.624.094 1.234.03.594.015 1.11zm-.297 5.938a.87.87 0 0 1-.125.468q-.124.188-.328.313a1.4 1.4 0 0 1-.437.203 1.8 1.8 0 0 1-.469.063q-.344 0-.656-.188-.313-.172-.313-.562 0-.235.125-.422a1.3 1.3 0 0 1 .344-.344q.203-.141.437-.219a1.6 1.6 0 0 1 .469-.078q.36 0 .656.187.297.172.297.579"/><defs><filter id="a" width="250.093" height="175" x="0" y="0" color-interpolation-filters="sRGB" filterUnits="userSpaceOnUse"><feFlood flood-opacity="0" result="BackgroundImageFix"/><feBlend in="SourceGraphic" in2="BackgroundImageFix" result="shape"/><feColorMatrix in="SourceAlpha" result="hardAlpha" values="0 0 0 0 0 0 0 0 0 0 0 0 0 0 0 0 0 0 127 0"/><feOffset dy="4"/><feGaussianBlur stdDeviation="2"/><feComposite in2="hardAlpha" k2="-1" k3="1" operator="arithmetic"/><feColorMatrix values="0 0 0 0 0 0 0 0 0 0 0 0 0 0 0 0 0 0 0.25 0"/><feBlend in2="shape" result="effect1_innerShadow_1127_705"/></filter></defs></svg>