<svg xmlns="http://www.w3.org/2000/svg" width="211" height="114" fill="none" viewBox="0 0 211 114"><g filter="url(#a)"><path fill="#3dc3ff" fill-rule="evenodd" d="M28.4 74.181C9.995 67.22 1.96 56.946 1.96 45.826c0-13.682 16.204-27.198 43.012-33.88C57.974 8.703 73.25 7.291 90.803 7.291c53.74 0 103.299 13.96 101.184 38.534 0 12.193-9.173 23.406-27.853 30.1l-.487.173c-6.355 17.322-16.015 24.229-33.647 36.265 12.455-13.513 19.53-21.672 21.167-32.892-10.338 2.095-22.715 3.143-37.447 3.143-38.09 2.182-66.898-1.467-85.32-8.434" clip-rule="evenodd"/></g><path fill="#3dc3ff" d="m28.4 74.181-.353.935zm16.572-62.236.242.97zm147.015 33.88-.996-.085-.004.086zm-27.853 30.101-.337-.941zm-.487.173-.331-.944a1 1 0 0 0-.608.6zM130 112.364l-.735-.677a.999.999 0 0 0 1.299 1.503zm21.167-32.892.989.144a.998.998 0 0 0-1.188-1.125zm-37.447 3.143v-1q-.029 0-.057.002zM.96 45.825c0 11.719 8.496 22.26 27.087 29.291l.707-1.87C10.532 66.354 2.96 56.347 2.96 45.826zm43.77-34.85c-13.5 3.366-24.397 8.467-31.942 14.505C5.254 31.51.96 38.568.96 45.826h2c0-6.424 3.808-12.965 11.078-18.784 7.26-5.81 17.869-10.81 31.176-14.127zm46.073-4.683c-17.6 0-32.964 1.415-46.073 4.683l.484 1.94c12.895-3.214 28.084-4.623 45.589-4.623zm102.18 39.62c.563-6.536-2.333-12.3-7.68-17.21-5.329-4.894-13.147-9-22.633-12.303-18.983-6.61-44.928-10.107-71.867-10.107v2c26.801 0 52.506 3.483 71.209 9.996 9.356 3.258 16.89 7.25 21.938 11.886 5.03 4.62 7.536 9.815 7.041 15.566zm-28.511 30.955c18.883-6.766 28.515-18.25 28.515-31.041h-2c0 11.596-8.713 22.537-27.19 29.159zm-.494.175.494-.175-.675-1.882-.481.17zm-1.27-1.288c-6.235 16.995-15.639 23.747-33.272 35.785l1.128 1.651c17.631-12.036 27.546-19.096 34.022-36.747zm-31.972 37.288c12.404-13.459 19.731-21.845 21.42-33.426l-1.979-.289c-1.584 10.86-8.407 18.792-20.912 32.36zM113.72 83.615c14.775 0 27.223-1.05 37.646-3.163l-.398-1.96c-10.253 2.078-22.56 3.123-37.248 3.123zm-85.673-8.499c18.605 7.037 47.57 10.683 85.73 8.497l-.114-1.996c-38.021 2.178-66.672-1.474-84.908-8.371z"/><path fill="#fff" d="M27.566 27.595q0 .633-.281 1.242-.27.61-.727 1.102-.456.48-1.043.797-.585.304-1.207.34-.01.21-.023.538 0 .317-.035.668a7 7 0 0 1-.106.704q-.058.351-.187.632-.117.282-.317.457a.66.66 0 0 1-.468.176.67.67 0 0 1-.528-.222 1.5 1.5 0 0 1-.293-.516 3.4 3.4 0 0 1-.128-.633 20 20 0 0 1-.082-1.242v-2.18l.023-1.113a39 39 0 0 1 .082-1.934q.034-.35.082-.41l.07-.047a.7.7 0 0 1 .13-.082 3 3 0 0 1 .21-.129q.54-.304 1.184-.527.645-.222 1.277-.223.54 0 .973.223.446.21.75.574.315.352.48.832.164.47.164.973m-2.027.27a.7.7 0 0 0-.117-.41q-.105-.176-.364-.176a1.1 1.1 0 0 0-.445.093 4 4 0 0 0-.41.176q.035.411.059.797.035.387.011.797.188-.094.41-.211.224-.13.41-.281.189-.153.317-.34a.8.8 0 0 0 .129-.445m4.535 6.351q-.597 0-1.043-.316a2.8 2.8 0 0 1-.75-.809 3.9 3.9 0 0 1-.457-1.09 5 5 0 0 1-.152-1.195q0-.621.152-1.277.153-.669.469-1.207.316-.552.808-.891.494-.352 1.172-.352.657 0 1.114.364.468.35.75.89.28.528.398 1.16.118.633.082 1.196a6.4 6.4 0 0 1-.2 1.254q-.15.632-.456 1.136-.304.504-.774.82-.468.318-1.113.317m.117-5.297q-.175 0-.316.188-.129.187-.223.457-.082.269-.129.574a3.3 3.3 0 0 0-.047.516q0 .28.047.609.06.328.153.61.093.268.222.456.141.176.317.176.187 0 .316-.176a1.3 1.3 0 0 0 .223-.445q.081-.27.117-.586.035-.328.035-.61 0-.257-.047-.562a3 3 0 0 0-.14-.586 1.3 1.3 0 0 0-.223-.445q-.128-.176-.305-.176m7.09.574A.8.8 0 0 1 37 29.47l-.234-.094a2 2 0 0 0-.211-.082.46.46 0 0 0-.235-.035.86.86 0 0 0-.422.129 1.6 1.6 0 0 0-.328.293q-.141.176-.246.398-.105.212-.164.422a3 3 0 0 0-.059.434q-.01.28-.011.61-.012.338-.012.644 0 .305-.023.48a4 4 0 0 1-.059.446 2 2 0 0 1-.152.468 1.1 1.1 0 0 1-.258.375.6.6 0 0 1-.422.153.56.56 0 0 1-.352-.118 1.1 1.1 0 0 1-.246-.304 3 3 0 0 1-.164-.457 6 6 0 0 1-.093-.528 14 14 0 0 1-.06-.562l-.023-.528v-.468q.012-.21.012-.34a15 15 0 0 0-.047-.82 15 15 0 0 1-.023-.832q0-.258.023-.575.024-.316.13-.586a1.2 1.2 0 0 1 .304-.468q.21-.188.574-.188.2 0 .34.13a.9.9 0 0 1 .223.316q.093.186.14.398.047.21.059.387.28-.457.633-.739.351-.292.914-.316.28-.011.55.058.282.06.504.211.235.142.375.375.153.235.164.551.024.375-.222.575a.97.97 0 0 1-.598.21m8.168-.117a.7.7 0 0 1-.047.246q-.105.27-.328.457a.83.83 0 0 1-.527.176q-.457 0-.621-.457a.4.4 0 0 1-.024-.129q0-.083-.011-.164v-.34a.7.7 0 0 0-.082-.258q-.06-.093-.2-.093-.2 0-.387.258a3 3 0 0 0-.316.597q-.129.34-.21.703a2.8 2.8 0 0 0-.083.586q0 .176.024.434.023.246.093.48.07.235.188.41a.4.4 0 0 0 .328.165.6.6 0 0 0 .363-.118q.175-.129.34-.293.153-.14.328-.293a.65.65 0 0 1 .422-.152q.293 0 .457.211.176.21.176.48 0 .399-.211.75-.21.34-.527.598-.317.246-.703.387a2 2 0 0 1-.739.152q-.633 0-1.078-.316a2.5 2.5 0 0 1-.703-.797 3.8 3.8 0 0 1-.387-1.066 5.5 5.5 0 0 1-.117-1.09 5.6 5.6 0 0 1 .164-1.29q.165-.703.504-1.3.34-.598.867-.996.54-.399 1.278-.399.456 0 .785.2.34.198.55.527.223.316.329.715.117.398.117.785v.117q0 .06-.012.117m5.637 2.848q0 .21-.024.55a3.2 3.2 0 0 1-.093.669q-.083.316-.258.55a.58.58 0 0 1-.492.235q-.435 0-.668-.282-.234-.28-.223-.703-.375.33-.856.516a2.6 2.6 0 0 1-.96.188 1.34 1.34 0 0 1-.645-.165 2 2 0 0 1-.539-.421 2.1 2.1 0 0 1-.375-.575 1.6 1.6 0 0 1-.14-.644q0-.562.34-.985.351-.422.855-.714a5 5 0 0 1 1.066-.48 6.4 6.4 0 0 1 1.02-.235v-.106a.4.4 0 0 0 .011-.105q0-.364-.199-.586-.2-.223-.562-.223-.294 0-.504.106-.21.093-.399.222-.188.117-.375.223a.9.9 0 0 1-.422.094.65.65 0 0 1-.445-.164.55.55 0 0 1-.176-.422q0-.387.223-.703.235-.316.574-.528.352-.222.75-.34.411-.128.75-.128.316 0 .633.082.316.07.598.234.28.152.504.387.233.222.375.527.21.434.34.926.128.48.199.996.07.504.093 1.02.024.503.024.984m-1.875-.375-.035-.797h-.047a.1.1 0 0 0-.047-.012q-.152 0-.387.082a1.7 1.7 0 0 0-.433.211q-.211.13-.364.293a.52.52 0 0 0-.14.34q0 .165.117.223t.27.058q.257 0 .55-.129.293-.14.516-.27m5.906 2.355q-.2 0-.316-.187a1.3 1.3 0 0 1-.176-.41 3 3 0 0 1-.082-.47 7 7 0 0 1 .023-1.078l.094-.702q.059-.353.094-.703.047-.353.047-.704a4 4 0 0 0-.012-.304 1.2 1.2 0 0 0-.059-.305.5.5 0 0 0-.129-.246.33.33 0 0 0-.246-.094q-.105 0-.234.176-.129.164-.246.387-.105.21-.188.433-.07.21-.07.317v.527q.012.258.012.527v.68a9 9 0 0 1-.035.434 4 4 0 0 1-.07.433q-.037.211-.106.41-.07.188-.188.34a.9.9 0 0 1-.258.235.7.7 0 0 1-.363.093.52.52 0 0 1-.387-.152 1.1 1.1 0 0 1-.246-.387 2.7 2.7 0 0 1-.14-.539 19 19 0 0 1-.059-.586 13 13 0 0 1-.011-.527 9 9 0 0 0 .011-.387v-.55q0-.445-.023-.88-.012-.433-.012-.867v-.597q.012-.364.094-.703.082-.352.27-.598.187-.246.55-.246a.45.45 0 0 1 .293.105q.129.106.223.258.105.153.164.328.07.176.105.305.117-.165.27-.316.164-.153.363-.27a1.9 1.9 0 0 1 1.008-.258q.597 0 .926.293.339.282.492.715.165.422.2.914.033.492.034.89 0 .2-.035.598-.034.387-.117.868a10 10 0 0 1-.2.972 6.4 6.4 0 0 1-.304.903 2.2 2.2 0 0 1-.422.667.71.71 0 0 1-.539.258m7.184-2.414q0 .4-.258.785-.246.375-.633.68-.375.293-.809.48a2.1 2.1 0 0 1-.796.176q-.622 0-1.114-.304-.48-.317-.808-.797a3.9 3.9 0 0 1-.504-1.055q-.165-.586-.164-1.137 0-.585.164-1.253.164-.669.492-1.231.34-.562.844-.937.515-.375 1.218-.375.399 0 .762.14a1.84 1.84 0 0 1 1.067.961q.164.34.164.762 0 .55-.235 1.031t-.62.832a3.3 3.3 0 0 1-.891.574q-.504.211-1.032.235.047.339.27.492.234.152.55.152a1 1 0 0 0 .458-.117q.223-.117.433-.258.211-.151.41-.27a.86.86 0 0 1 .422-.117q.234 0 .422.153a.49.49 0 0 1 .188.398m-1.899-2.87a.7.7 0 0 0-.082-.317.27.27 0 0 0-.258-.164.67.67 0 0 0-.433.14 1.04 1.04 0 0 0-.293.34q-.117.199-.188.434-.058.234-.07.433.164-.034.387-.093.234-.06.433-.153.21-.105.352-.258a.5.5 0 0 0 .152-.363m5.098 5.378q-.832 0-1.3-.223a1.5 1.5 0 0 1-.692-.609 2.35 2.35 0 0 1-.27-.96 17 17 0 0 1-.012-2.355 25 25 0 0 1 .106-1.197q-.164 0-.258.012h-.152q-.375 0-.645-.164a.54.54 0 0 1-.281-.504q0-.21.164-.375.152-.165.399-.281.245-.117.527-.188.293-.07.55-.093 0-.329.047-.727a3.5 3.5 0 0 1 .164-.738q.13-.352.34-.586a.7.7 0 0 1 .54-.235q.186 0 .328.118.152.106.246.28.093.165.14.376.047.21.047.41 0 .234-.035.48a6 6 0 0 1-.129.61q.2-.024.27-.024a1 1 0 0 1 .129-.011q.199 0 .41.035.221.035.398.117a.8.8 0 0 1 .305.223.45.45 0 0 1 .117.316.5.5 0 0 1-.176.375q-.165.164-.422.281-.258.117-.55.188a5 5 0 0 1-.551.082q-.07.48-.106.89-.023.399-.058.81-.024.198-.047.41a7 7 0 0 0 0 .773q.012.199.082.386a.85.85 0 0 0 .222.329q.153.128.422.128.165 0 .34-.023.176-.035.352-.035.304 0 .433.21.141.211.141.54 0 .246-.152.434a1 1 0 0 1-.364.28 2 2 0 0 1-.504.176q-.27.06-.515.06m6.75-2.074q0 .21-.024.55-.011.34-.093.669-.082.316-.258.55a.58.58 0 0 1-.492.235q-.434 0-.668-.282a1 1 0 0 1-.223-.703q-.375.33-.855.516a2.6 2.6 0 0 1-.961.188 1.34 1.34 0 0 1-.645-.165 2 2 0 0 1-.539-.421 2.1 2.1 0 0 1-.375-.575 1.6 1.6 0 0 1-.14-.644q0-.562.34-.985.351-.422.855-.714a5 5 0 0 1 1.066-.48 6.4 6.4 0 0 1 1.02-.235v-.106a.4.4 0 0 0 .011-.105q0-.364-.199-.586-.2-.223-.562-.223-.294 0-.504.106a2.5 2.5 0 0 0-.399.222q-.187.117-.375.223a.9.9 0 0 1-.422.094.65.65 0 0 1-.445-.164.55.55 0 0 1-.176-.422q0-.387.223-.703a2.1 2.1 0 0 1 .574-.528q.353-.222.75-.34.411-.128.75-.128.317 0 .633.082.316.07.598.234.28.152.504.387.233.222.375.527.21.434.34.926.128.48.199.996.07.504.093 1.02.024.503.024.984m-1.875-.375-.035-.797h-.047a.1.1 0 0 0-.047-.012q-.152 0-.387.082a1.7 1.7 0 0 0-.433.211q-.211.13-.364.293a.52.52 0 0 0-.14.34q0 .165.117.223t.27.058q.257 0 .55-.129.293-.14.516-.27m6.012-4.418q0 .339-.235.504-.222.165-.504.316-.281.14-.515.34-.223.2-.223.598 0 .21.094.363.105.153.246.281.151.117.328.246.176.13.316.293.153.164.246.399.105.234.106.574 0 .492-.258.973a3.2 3.2 0 0 1-1.523 1.43 2.35 2.35 0 0 1-.973.222q-.2 0-.398-.035a1.1 1.1 0 0 1-.364-.106.8.8 0 0 1-.258-.222.66.66 0 0 1-.105-.387q0-.329.129-.504a.9.9 0 0 1 .328-.293q.199-.105.422-.164.234-.059.434-.14.198-.094.328-.235.129-.141.129-.398 0-.247-.2-.504-.187-.27-.421-.563a6 6 0 0 1-.434-.644 1.5 1.5 0 0 1-.188-.75q0-.504.2-.926.21-.435.55-.75.352-.316.797-.492a2.4 2.4 0 0 1 .938-.188q.187 0 .363.035a.9.9 0 0 1 .328.13.6.6 0 0 1 .223.234.64.64 0 0 1 .094.363m2.156 5.824q0 .188-.106.48a3.4 3.4 0 0 1-.246.575 2 2 0 0 1-.328.48q-.187.2-.363.2-.234 0-.234-.235 0-.141.058-.27a4 4 0 0 1 .129-.257q.07-.117.129-.246a.5.5 0 0 0 .059-.235.66.66 0 0 1-.376.117.59.59 0 0 1-.457-.21.7.7 0 0 1-.187-.47q0-.374.246-.597a.86.86 0 0 1 .621-.234q.422 0 .738.222.317.223.317.68m6.726-5.824q0 .339-.234.504-.222.165-.504.316-.281.14-.516.34-.222.2-.222.598 0 .21.094.363.105.153.246.281.151.117.328.246.175.13.316.293.153.164.246.399.105.234.106.574 0 .492-.258.973a3.2 3.2 0 0 1-1.523 1.43 2.35 2.35 0 0 1-.973.222q-.2 0-.399-.035a1.1 1.1 0 0 1-.363-.106.8.8 0 0 1-.258-.222.66.66 0 0 1-.105-.387q0-.329.129-.504a.9.9 0 0 1 .328-.293q.199-.105.422-.164.234-.059.433-.14.2-.094.329-.235.128-.141.128-.398 0-.247-.199-.504-.187-.27-.422-.563a6 6 0 0 1-.433-.644 1.5 1.5 0 0 1-.188-.75q0-.504.2-.926.21-.435.55-.75.352-.316.797-.492.446-.188.938-.188.188 0 .363.035a.9.9 0 0 1 .328.13.6.6 0 0 1 .223.234.64.64 0 0 1 .093.363m5.38 4.36q0 .398-.258.784-.248.375-.633.68-.375.293-.809.48-.434.177-.797.176-.621 0-1.113-.304-.48-.317-.809-.797a3.9 3.9 0 0 1-.504-1.055 4.2 4.2 0 0 1-.164-1.137q0-.585.164-1.253.165-.669.493-1.231.339-.562.843-.937.516-.375 1.22-.375.398 0 .76.14a1.84 1.84 0 0 1 1.067.961q.165.34.164.762 0 .55-.234 1.031a2.7 2.7 0 0 1-.621.832 3.3 3.3 0 0 1-.89.574q-.505.211-1.032.235.047.339.27.492.234.152.55.152a1 1 0 0 0 .457-.117q.223-.117.434-.258.21-.151.41-.27a.86.86 0 0 1 .422-.117q.234 0 .422.153a.49.49 0 0 1 .187.398m-1.9-2.872a.7.7 0 0 0-.081-.316.27.27 0 0 0-.258-.164.67.67 0 0 0-.434.14 1.04 1.04 0 0 0-.293.34q-.117.199-.187.434-.059.234-.07.433.164-.034.386-.093.235-.06.434-.153.21-.105.352-.258a.5.5 0 0 0 .152-.363m6.435.574a.8.8 0 0 1-.282-.023l-.234-.094a2 2 0 0 0-.211-.082.46.46 0 0 0-.234-.035.86.86 0 0 0-.422.129 1.6 1.6 0 0 0-.329.293 2 2 0 0 0-.246.398q-.105.212-.164.422a3 3 0 0 0-.058.434q-.012.28-.012.61-.012.338-.012.644 0 .305-.023.48a4 4 0 0 1-.059.446q-.046.246-.152.468a1.1 1.1 0 0 1-.258.375.6.6 0 0 1-.422.153.56.56 0 0 1-.351-.118 1.1 1.1 0 0 1-.246-.304 3 3 0 0 1-.164-.457 6 6 0 0 1-.094-.528 14 14 0 0 1-.059-.562l-.023-.528v-.468q.011-.21.011-.34a14 14 0 0 0-.046-.82 15 15 0 0 1-.024-.832q0-.258.024-.575.022-.316.129-.586a1.2 1.2 0 0 1 .304-.468q.21-.188.574-.188.2 0 .34.13a.9.9 0 0 1 .223.316q.094.186.14.398.047.21.06.387.28-.457.632-.739.351-.292.914-.316.282-.011.55.058.282.06.505.211.234.142.375.375.152.235.164.551.023.375-.223.575a.97.97 0 0 1-.598.21m2.93-3.796q0 .164-.095.293a.9.9 0 0 1-.222.234 1.4 1.4 0 0 1-.305.152q-.164.047-.305.047a.7.7 0 0 1-.41-.117q-.176-.118-.176-.363 0-.177.082-.305a.8.8 0 0 1 .223-.223.9.9 0 0 1 .293-.14q.165-.047.317-.047.222 0 .41.105t.187.364m.093 3.984v.351q0 .176-.012.34a10 10 0 0 0-.011.54q0 .327-.024.714t-.082.785a3.3 3.3 0 0 1-.164.727 1.5 1.5 0 0 1-.317.539.67.67 0 0 1-.48.21.43.43 0 0 1-.375-.175 1.6 1.6 0 0 1-.258-.48 4 4 0 0 1-.14-.668q-.048-.376-.07-.715a10 10 0 0 1-.024-.645v-.961q0-.351.023-.75.024-.398.082-.808.07-.411.188-.75.129-.34.328-.551.199-.21.504-.21.316 0 .48.316.165.316.246.738.082.421.094.843.012.41.012.61m4.16 4.523q-.2 0-.316-.187a1.3 1.3 0 0 1-.176-.41 3 3 0 0 1-.082-.47 8 8 0 0 1-.012-.374q0-.352.035-.703l.094-.703q.058-.353.094-.703.047-.353.047-.704 0-.14-.012-.304a1.2 1.2 0 0 0-.059-.305.5.5 0 0 0-.129-.246.33.33 0 0 0-.246-.094q-.105 0-.234.176-.129.164-.246.387-.105.21-.188.433-.07.21-.07.317v.527q.012.258.012.527v.68q-.012.21-.035.434a4 4 0 0 1-.071.433q-.035.211-.105.41-.07.188-.188.34a.9.9 0 0 1-.257.235.7.7 0 0 1-.364.093.52.52 0 0 1-.386-.152 1.1 1.1 0 0 1-.247-.387 2.7 2.7 0 0 1-.14-.539 19 19 0 0 1-.059-.586 13 13 0 0 1-.011-.527 9 9 0 0 0 .011-.387v-.55q0-.445-.023-.88-.012-.433-.012-.867v-.597q.013-.364.094-.703.082-.352.27-.598.187-.246.55-.246a.45.45 0 0 1 .293.105q.129.106.223.258.105.153.164.328.07.176.105.305a2.5 2.5 0 0 1 .27-.316q.163-.153.363-.27a1.9 1.9 0 0 1 1.008-.258q.597 0 .926.293.339.282.492.715.164.422.199.914t.035.89q0 .2-.035.598-.034.387-.117.868a10 10 0 0 1-.199.972 6.5 6.5 0 0 1-.305.903 2.2 2.2 0 0 1-.422.667.71.71 0 0 1-.539.258m7.582-4.324q0 .598-.023 1.195a34 34 0 0 1-.153 2.297q-.058.586-.187 1.16-.129.586-.34 1.114a3.3 3.3 0 0 1-.563.949 2.5 2.5 0 0 1-.832.656q-.492.246-1.171.246-.317 0-.715-.105a3 3 0 0 1-.739-.281 2.2 2.2 0 0 1-.586-.47.93.93 0 0 1-.234-.632q0-.27.188-.504a.65.65 0 0 1 .504-.223q.187 0 .351.06.176.07.34.151.175.083.328.141.164.07.328.07.433 0 .727-.222.292-.211.468-.551a2.6 2.6 0 0 0 .258-.727q.094-.387.129-.738-.234.27-.551.375a2.2 2.2 0 0 1-.644.094q-.621 0-1.055-.211a1.95 1.95 0 0 1-.703-.598 2.7 2.7 0 0 1-.398-.89 4.4 4.4 0 0 1-.129-1.09q0-.364.07-.82a7 7 0 0 1 .234-.926q.153-.469.375-.914.235-.446.539-.786.306-.34.68-.55.387-.211.844-.211.446 0 .785.258.351.257.41.726.129-.246.34-.48a.66.66 0 0 1 .516-.247q.164 0 .269.165.117.163.176.433.07.258.105.574.036.306.047.61.012.293.012.539zm-1.781.762q0-.176-.059-.457a2.5 2.5 0 0 0-.152-.54 1.6 1.6 0 0 0-.246-.445.46.46 0 0 0-.363-.187q-.27 0-.481.187a1.7 1.7 0 0 0-.34.457 2.5 2.5 0 0 0-.222.563 2.2 2.2 0 0 0-.071.504q0 .152.024.41.023.258.093.504.082.246.211.422.13.176.34.176.317 0 .551-.153.234-.152.387-.386a1.8 1.8 0 0 0 .246-.516 2 2 0 0 0 .082-.54m7.594 1.582q0 .21-.024.55-.012.34-.094.669-.081.316-.257.55a.58.58 0 0 1-.493.235q-.433 0-.668-.282-.234-.28-.222-.703-.375.33-.856.516a2.6 2.6 0 0 1-.961.188 1.34 1.34 0 0 1-.644-.165 2 2 0 0 1-.539-.421 2.2 2.2 0 0 1-.375-.575 1.6 1.6 0 0 1-.141-.644q0-.562.34-.985.352-.422.855-.714a5 5 0 0 1 1.067-.48 6.4 6.4 0 0 1 1.019-.235v-.106a.4.4 0 0 0 .012-.105q0-.364-.199-.586-.199-.223-.563-.223-.292 0-.504.106-.21.093-.398.222-.188.117-.375.223a.9.9 0 0 1-.422.094.65.65 0 0 1-.445-.164.55.55 0 0 1-.176-.422q0-.387.223-.703.234-.316.574-.528a3 3 0 0 1 .75-.34q.41-.128.75-.128.317 0 .633.082.316.07.597.234.282.152.504.387.235.222.375.527.211.434.34.926.13.48.199.996.071.504.094 1.02.024.503.024.984m-1.875-.375-.036-.797h-.046a.1.1 0 0 0-.047-.012q-.153 0-.387.082a1.7 1.7 0 0 0-.434.211q-.21.13-.363.293a.52.52 0 0 0-.141.34q0 .165.118.223t.269.058q.258 0 .551-.129.293-.14.516-.27m6.011-4.418q0 .339-.234.504-.223.165-.504.316a2.6 2.6 0 0 0-.516.34q-.222.2-.222.598 0 .21.093.363a1.7 1.7 0 0 0 .247.281q.152.117.328.246.175.13.316.293.153.164.246.399.106.234.106.574 0 .492-.258.973a3.2 3.2 0 0 1-.645.843q-.386.364-.879.586a2.3 2.3 0 0 1-.972.223q-.2 0-.399-.035a1.1 1.1 0 0 1-.363-.106.8.8 0 0 1-.258-.222.67.67 0 0 1-.105-.387q0-.329.129-.504a.9.9 0 0 1 .328-.293q.199-.105.422-.164.234-.059.433-.14.2-.094.328-.235.129-.141.129-.398 0-.247-.199-.504a11 11 0 0 0-.422-.563 6 6 0 0 1-.433-.644 1.5 1.5 0 0 1-.188-.75q0-.504.199-.926.212-.435.551-.75.351-.316.797-.492a2.4 2.4 0 0 1 .937-.188q.188 0 .364.035a.9.9 0 0 1 .328.13.6.6 0 0 1 .223.234.65.65 0 0 1 .093.363m5.52 6.785q-.598 0-1.043-.316a2.8 2.8 0 0 1-.75-.809 3.9 3.9 0 0 1-.457-1.09 5 5 0 0 1-.153-1.195q0-.621.153-1.277.152-.669.469-1.207.316-.552.808-.891.492-.352 1.172-.352.657 0 1.113.364.47.35.75.89.282.528.399 1.16.117.633.082 1.196-.036.621-.199 1.254-.153.632-.457 1.136a2.6 2.6 0 0 1-.774.82q-.468.318-1.113.317m.117-5.297q-.176 0-.316.188a2 2 0 0 0-.223.457q-.082.269-.129.574a3.4 3.4 0 0 0-.047.516q0 .28.047.609a4.4 4.4 0 0 0 .152.61q.094.268.223.456.14.176.316.176.188 0 .317-.176.14-.175.223-.445.081-.27.117-.586.035-.328.035-.61 0-.257-.047-.562a3 3 0 0 0-.141-.586 1.3 1.3 0 0 0-.222-.445q-.13-.176-.305-.176m8.156 1.606q0 .645-.129 1.277t-.433 1.137a2.36 2.36 0 0 1-.821.797q-.503.304-1.265.304-.75 0-1.254-.293a2.4 2.4 0 0 1-.809-.797 3.6 3.6 0 0 1-.422-1.113 7 7 0 0 1-.117-1.265q0-.704.164-1.395.036-.187.129-.516.106-.34.258-.656.164-.328.363-.562.211-.235.457-.235a.53.53 0 0 1 .375.13.9.9 0 0 1 .223.327q.083.188.105.41.024.211.024.387 0 .27-.047.527-.035.258-.082.516l-.094.703a7 7 0 0 0-.023 1.102q.023.21.094.41a1 1 0 0 0 .199.34.5.5 0 0 0 .363.129q.304 0 .481-.164a.9.9 0 0 0 .269-.41q.094-.247.117-.528t.024-.515a7 7 0 0 0-.071-1.008 51 51 0 0 1-.129-1.02 1.1 1.1 0 0 1 .047-.516q.059-.175.164-.316a.8.8 0 0 1 .258-.223.64.64 0 0 1 .34-.093q.258 0 .457.187.2.176.328.469.14.281.223.645.093.35.141.703.058.34.07.644.023.305.023.48m9.082-.516q0 .34-.058.773-.048.422-.164.868a5 5 0 0 1-.293.867 3.2 3.2 0 0 1-.446.762 2.1 2.1 0 0 1-.609.527q-.34.2-.797.2-.48 0-.879-.224a2.15 2.15 0 0 1-.668-.609.98.98 0 0 1-.258.563.74.74 0 0 1-.562.234q-.2 0-.34-.2a1.8 1.8 0 0 1-.211-.503 5 5 0 0 1-.129-.692q-.035-.375-.047-.726a22 22 0 0 1-.011-.633v-1.195l.023-.809q0-.2-.012-.598 0-.398.012-.878.012-.493.047-.997.047-.515.152-.937a2.1 2.1 0 0 1 .293-.691.6.6 0 0 1 .481-.282q.234 0 .398.164.164.165.27.434.117.27.175.61.071.327.094.667a6 6 0 0 1 .035.633q.012.293.012.48 0 .036-.012.165v.632q.106-.222.305-.433.2-.21.445-.375.246-.165.516-.27t.516-.105q.492 0 .82.258.34.246.539.633.2.386.281.843.082.445.082.844m-1.722.352q0-.141-.024-.305a.8.8 0 0 0-.082-.305.6.6 0 0 0-.176-.234.4.4 0 0 0-.281-.094.9.9 0 0 0-.375.082q-.175.082-.34.211-.164.13-.304.281a3 3 0 0 0-.246.282l-.118 1.043q.188.27.457.433.27.152.61.152a.57.57 0 0 0 .422-.164q.176-.164.269-.398.105-.246.141-.516.047-.27.047-.468m4.664 3.855q-.598 0-1.043-.316a2.8 2.8 0 0 1-.75-.809 3.9 3.9 0 0 1-.457-1.09 5 5 0 0 1-.153-1.195q0-.621.153-1.277.152-.669.468-1.207.317-.552.809-.891.492-.352 1.172-.352.656 0 1.113.364.47.35.75.89.282.528.399 1.16.117.633.082 1.196-.036.621-.2 1.254-.151.632-.457 1.136-.305.504-.773.82-.47.318-1.113.317m.117-5.297q-.176 0-.317.188-.128.187-.222.457-.083.269-.129.574a3.4 3.4 0 0 0-.047.516q0 .28.047.609a4.4 4.4 0 0 0 .152.61q.094.268.223.456.14.176.316.176.188 0 .317-.176a1.3 1.3 0 0 0 .222-.445q.082-.27.118-.586.035-.328.035-.61 0-.257-.047-.562a3 3 0 0 0-.141-.586 1.3 1.3 0 0 0-.222-.445q-.13-.176-.305-.176m10.137 1.09v.61q0 .375-.024.82a9 9 0 0 1-.07.902 4 4 0 0 1-.188.809 1.9 1.9 0 0 1-.304.597.59.59 0 0 1-.481.235.45.45 0 0 1-.398-.211 1.7 1.7 0 0 1-.188-.516 4 4 0 0 1-.07-.598v-.48q0-.528.035-1.031.035-.504.035-1.032v-.21q0-.153-.023-.305a1 1 0 0 0-.082-.27q-.046-.117-.153-.117-.21 0-.339.223-.13.21-.211.504-.082.292-.118.586-.035.28-.046.422a6 6 0 0 0-.047.457q-.012.304-.047.668a7 7 0 0 1-.094.75q-.059.375-.164.69a1.6 1.6 0 0 1-.246.505.46.46 0 0 1-.375.2.48.48 0 0 1-.434-.247 1.8 1.8 0 0 1-.222-.574 5 5 0 0 1-.094-.668 16 16 0 0 1-.012-.528v-.386q.012-.187.012-.387v-.27q0-.187-.012-.41 0-.234-.023-.48a4 4 0 0 0-.047-.445 1.1 1.1 0 0 0-.106-.34q-.07-.13-.164-.13-.152 0-.281.2-.129.187-.223.457a4 4 0 0 0-.152.516 2.4 2.4 0 0 0-.047.375v.07q0 .562.071 1.102.07.538.07 1.101 0 .328-.211.61a.7.7 0 0 1-.586.269.57.57 0 0 1-.445-.2 1.8 1.8 0 0 1-.293-.538 4.6 4.6 0 0 1-.188-.715 10 10 0 0 1-.082-.774 38 38 0 0 1-.035-.691v-.469q0-.176-.012-.515 0-.34.012-.739.024-.398.07-.808.047-.422.153-.762.105-.34.269-.55a.55.55 0 0 1 .446-.223.72.72 0 0 1 .492.164q.2.164.199.492a1 1 0 0 1-.012.14 1 1 0 0 1-.011.13q.128-.188.316-.376.188-.199.398-.351.223-.164.469-.258a1.2 1.2 0 0 1 .492-.105q.235 0 .422.128.188.13.328.329.14.187.235.41.093.222.129.422.116-.212.281-.422.175-.224.375-.387.2-.165.433-.27.246-.105.504-.105.246 0 .422.176t.305.457q.129.27.199.62.07.34.117.68.048.329.059.622.012.281.012.445m6.316 0q0 .34-.059.773-.047.422-.164.868-.105.446-.293.867a3.2 3.2 0 0 1-.445.762 2.1 2.1 0 0 1-.609.527q-.34.2-.797.2-.48 0-.879-.224a2.1 2.1 0 0 1-.668-.609.98.98 0 0 1-.258.563.74.74 0 0 1-.562.234q-.2 0-.34-.2a1.8 1.8 0 0 1-.211-.503 5 5 0 0 1-.129-.692q-.035-.375-.047-.726a19 19 0 0 1-.012-.633v-1.195l.024-.809q0-.2-.012-.598 0-.398.012-.878.011-.493.047-.997.047-.515.152-.937a2.1 2.1 0 0 1 .293-.691.6.6 0 0 1 .48-.282q.236 0 .399.164.164.165.269.434.118.27.176.61.07.327.094.667.035.33.035.633.012.293.012.48 0 .036-.012.165v.632a1.7 1.7 0 0 1 .305-.433q.2-.21.445-.375.246-.165.516-.27.269-.105.515-.105.492 0 .821.258.34.246.539.633.199.386.281.843.082.445.082.844m-1.723.352q0-.141-.023-.305a.8.8 0 0 0-.082-.305.6.6 0 0 0-.176-.234.4.4 0 0 0-.281-.094.9.9 0 0 0-.375.082 1.7 1.7 0 0 0-.34.211q-.164.13-.305.281a3 3 0 0 0-.246.282l-.117 1.043q.187.27.457.433.27.152.609.152a.57.57 0 0 0 .422-.164q.176-.164.27-.398.105-.246.14-.516a3 3 0 0 0 .047-.468m7.418 1.863q0 .21-.023.55-.012.34-.094.669a1.6 1.6 0 0 1-.258.55.58.58 0 0 1-.492.235q-.434 0-.668-.282-.234-.28-.222-.703a2.9 2.9 0 0 1-.856.516 2.6 2.6 0 0 1-.961.188 1.34 1.34 0 0 1-.644-.165 2.1 2.1 0 0 1-.914-.996 1.6 1.6 0 0 1-.141-.644q0-.562.34-.985.351-.422.855-.714a5 5 0 0 1 1.067-.48 6.4 6.4 0 0 1 1.019-.235v-.106a.4.4 0 0 0 .012-.105q0-.364-.199-.586-.2-.223-.563-.223-.293 0-.504.106-.21.093-.398.222-.187.117-.375.223a.9.9 0 0 1-.422.094.65.65 0 0 1-.445-.164.55.55 0 0 1-.176-.422q0-.387.222-.703.235-.316.575-.528a3 3 0 0 1 .75-.34q.41-.128.75-.128.316 0 .633.082.316.07.597.234.282.152.504.387.234.222.375.527.211.434.34.926.129.48.199.996.07.504.094 1.02.023.503.023.984m-1.875-.375-.035-.797h-.047a.1.1 0 0 0-.047-.012q-.152 0-.386.082a1.7 1.7 0 0 0-.434.211 1.7 1.7 0 0 0-.363.293.52.52 0 0 0-.141.34q0 .165.117.223t.27.058q.257 0 .551-.129.293-.14.515-.27m6.012-4.418q0 .339-.234.504-.224.165-.504.316-.282.14-.516.34-.223.2-.223.598 0 .21.094.363.106.153.246.281.153.117.328.246.177.13.317.293.151.164.246.399.105.234.105.574 0 .492-.257.973a3.2 3.2 0 0 1-1.524 1.43 2.3 2.3 0 0 1-.972.222q-.2 0-.399-.035a1.1 1.1 0 0 1-.363-.106.8.8 0 0 1-.258-.222.67.67 0 0 1-.105-.387q0-.329.128-.504a.9.9 0 0 1 .329-.293q.199-.105.421-.164.235-.059.434-.14.2-.094.328-.235.129-.141.129-.398 0-.247-.199-.504a11 11 0 0 0-.422-.563 6 6 0 0 1-.434-.644 1.5 1.5 0 0 1-.187-.75q0-.504.199-.926.211-.435.551-.75.351-.316.797-.492a2.4 2.4 0 0 1 .937-.188q.187 0 .364.035a.9.9 0 0 1 .328.13.6.6 0 0 1 .222.234.64.64 0 0 1 .094.363M45.121 42.165q0 .855-.07 1.7a25 25 0 0 0-.059 1.699q0 .691.035 1.37.047.68.047 1.372 0 .187-.012.457-.011.258-.082.504a1 1 0 0 1-.21.422q-.141.175-.41.175a.76.76 0 0 1-.587-.257 1.3 1.3 0 0 1-.28-.598q-.224.422-.646.715a1.57 1.57 0 0 1-.913.293 1.3 1.3 0 0 1-.915-.363 3.2 3.2 0 0 1-.632-.88 5.2 5.2 0 0 1-.375-1.078 5 5 0 0 1-.118-.972 7.2 7.2 0 0 1 .153-1.43q.093-.387.234-.75a3 3 0 0 1 .352-.668q.222-.292.515-.468.305-.177.692-.176.421 0 .808.246t.586.61l.106-1.864q.012-.223.035-.516a3.3 3.3 0 0 1 .094-.574q.081-.27.246-.457t.48-.187q.34 0 .527.164.188.164.27.421.095.246.105.54.024.292.024.55m-1.91 5.203q0-.27-.012-.527a6 6 0 0 1 0-.527 7 7 0 0 0-.164-.328 1.5 1.5 0 0 0-.234-.34 1.2 1.2 0 0 0-.293-.27.64.64 0 0 0-.352-.105.46.46 0 0 0-.34.129.76.76 0 0 0-.187.316 2 2 0 0 0-.082.387 7 7 0 0 0-.012.363 5.5 5.5 0 0 0 .106.973q.07.28.187.492.117.21.316.21.153 0 .305-.058a1.7 1.7 0 0 0 .281-.164q.141-.105.258-.222a6 6 0 0 0 .223-.235zm7.594.422q0 .4-.258.785-.246.375-.633.68-.375.293-.809.48a2.1 2.1 0 0 1-.796.176q-.622 0-1.114-.304-.48-.317-.808-.797a3.9 3.9 0 0 1-.504-1.055q-.165-.586-.164-1.137 0-.585.164-1.254.164-.667.492-1.23.34-.562.844-.937.515-.376 1.218-.376.399 0 .762.141a1.84 1.84 0 0 1 1.067.961q.164.34.164.762 0 .55-.235 1.031t-.62.832a3.3 3.3 0 0 1-.892.574q-.505.211-1.03.235.045.339.269.492.234.152.55.152a1 1 0 0 0 .458-.117q.222-.117.433-.258.211-.151.41-.27a.86.86 0 0 1 .422-.117q.234 0 .422.153a.49.49 0 0 1 .188.398m-1.899-2.87a.7.7 0 0 0-.082-.317.27.27 0 0 0-.258-.164.67.67 0 0 0-.433.14 1.04 1.04 0 0 0-.293.34q-.117.2-.188.434-.058.234-.07.433.164-.034.387-.093.234-.06.433-.153.21-.105.352-.258a.5.5 0 0 0 .152-.363m7.125-3.224q0 .165-.094.294a.9.9 0 0 1-.222.234 1.4 1.4 0 0 1-.305.152q-.164.047-.305.047a.7.7 0 0 1-.41-.117q-.176-.118-.176-.363 0-.177.082-.305a.8.8 0 0 1 .223-.223.9.9 0 0 1 .293-.14q.165-.047.317-.047.222 0 .41.105t.187.364m.094 3.985v.352q0 .175-.012.34a10 10 0 0 0-.012.538q0 .329-.023.715-.024.387-.082.785a3.3 3.3 0 0 1-.164.727 1.5 1.5 0 0 1-.316.539.67.67 0 0 1-.481.21.43.43 0 0 1-.375-.175 1.6 1.6 0 0 1-.258-.48 4 4 0 0 1-.14-.668 13 13 0 0 1-.07-.715 10 10 0 0 1-.024-.645v-.961q0-.351.023-.75.024-.398.082-.808.07-.411.188-.75.129-.34.328-.551.199-.21.504-.21.315 0 .48.316.165.315.246.738.082.421.094.843.012.41.012.61m4.16 4.523q-.2 0-.316-.187a1.3 1.3 0 0 1-.176-.41 3 3 0 0 1-.082-.47 7 7 0 0 1 .023-1.078l.094-.702q.059-.353.094-.703.047-.353.047-.704a4 4 0 0 0-.012-.304 1.2 1.2 0 0 0-.059-.305.5.5 0 0 0-.129-.246.33.33 0 0 0-.246-.094q-.105 0-.234.176-.129.164-.246.387-.105.21-.188.433-.07.21-.07.317v.527q.012.258.012.527v.68q-.012.21-.035.434-.024.223-.07.433-.037.211-.106.41-.07.188-.188.34a.9.9 0 0 1-.258.235.7.7 0 0 1-.363.093.52.52 0 0 1-.386-.152 1.1 1.1 0 0 1-.247-.387 2.7 2.7 0 0 1-.14-.539 18 18 0 0 1-.059-.586 13 13 0 0 1-.011-.527 9 9 0 0 0 .011-.387v-.55q0-.445-.023-.88-.012-.433-.012-.867v-.597q.013-.363.094-.703.082-.352.27-.598.187-.246.55-.246a.45.45 0 0 1 .293.105q.129.106.223.258.105.153.164.328.07.176.105.305.117-.165.27-.316.164-.153.363-.27a1.9 1.9 0 0 1 1.008-.258q.597 0 .926.293.339.282.492.715.165.422.2.914.034.492.034.89 0 .2-.035.598-.035.387-.117.868a10 10 0 0 1-.2.972 6.4 6.4 0 0 1-.304.903 2.2 2.2 0 0 1-.422.667.71.71 0 0 1-.539.258m5.707-6.773q0 .34-.234.504-.223.165-.504.316-.282.14-.516.34-.222.2-.222.598 0 .21.093.363.106.152.246.281.153.117.328.246.177.13.317.293.151.164.246.399.105.234.105.574 0 .492-.257.973a3.2 3.2 0 0 1-1.523 1.43 2.35 2.35 0 0 1-.974.222q-.198 0-.398-.035a1.1 1.1 0 0 1-.363-.106.8.8 0 0 1-.258-.222.66.66 0 0 1-.106-.387q0-.329.13-.504a.9.9 0 0 1 .328-.293q.199-.105.421-.164.235-.059.434-.14.2-.094.328-.235.13-.141.13-.398 0-.246-.2-.504-.188-.27-.422-.563a6 6 0 0 1-.434-.644 1.5 1.5 0 0 1-.187-.75q0-.504.2-.926.21-.435.55-.75.351-.317.797-.492.446-.188.937-.188.187 0 .364.035a.9.9 0 0 1 .328.13.6.6 0 0 1 .222.234.64.64 0 0 1 .094.363m5.602 3.094q0 .644-.13 1.277-.128.632-.433 1.137a2.36 2.36 0 0 1-.82.797q-.504.304-1.266.304-.75 0-1.254-.293a2.4 2.4 0 0 1-.808-.797 3.6 3.6 0 0 1-.422-1.113 7 7 0 0 1-.117-1.266q0-.702.164-1.394a4.8 4.8 0 0 1 .387-1.172q.163-.328.363-.562.21-.235.457-.235.234 0 .375.13a.9.9 0 0 1 .222.327q.082.188.106.41.023.212.023.387 0 .27-.047.527-.034.258-.082.516l-.093.703a7 7 0 0 0-.024 1.102q.024.21.094.41a1 1 0 0 0 .2.34.5.5 0 0 0 .362.129q.306 0 .48-.164a.9.9 0 0 0 .27-.41q.094-.247.118-.528t.023-.516q0-.516-.07-1.007-.07-.504-.13-1.02a1.1 1.1 0 0 1 .047-.516q.06-.175.165-.316a.8.8 0 0 1 .258-.223.64.64 0 0 1 .34-.093q.257 0 .456.187.2.176.329.469.14.281.222.645.095.35.14.703.06.34.071.644.024.305.024.48m2.906-3.75q0 .633-.059 1.277a17 17 0 0 0-.047 1.277q0 .833.047 1.664.06.833.059 1.676 0 .21-.024.48a1.6 1.6 0 0 1-.117.481.9.9 0 0 1-.258.375.7.7 0 0 1-.468.152q-.282 0-.492-.28a2.5 2.5 0 0 1-.34-.692 9 9 0 0 1-.223-.961 17 17 0 0 1-.129-1.02q-.035-.504-.058-.914a25 25 0 0 1-.012-.62q0-.224.011-.645.024-.422.082-.914.06-.492.153-.996.105-.516.27-.926.164-.422.386-.68a.71.71 0 0 1 .55-.27q.26.001.388.176a.96.96 0 0 1 .199.41q.058.236.07.504.012.257.012.446m2.824-1.078q0 .164-.094.292a.9.9 0 0 1-.222.235 1.4 1.4 0 0 1-.305.152q-.164.047-.305.047a.7.7 0 0 1-.41-.117q-.176-.118-.176-.363 0-.177.082-.305a.8.8 0 0 1 .223-.223.9.9 0 0 1 .293-.14q.165-.047.316-.047.224 0 .41.105.189.105.188.364m.094 3.984v.352q0 .175-.012.34a10 10 0 0 0-.012.538q0 .329-.023.715-.024.387-.082.785a3.3 3.3 0 0 1-.164.727 1.5 1.5 0 0 1-.317.539.67.67 0 0 1-.48.21.43.43 0 0 1-.375-.175 1.6 1.6 0 0 1-.258-.48 4 4 0 0 1-.14-.668 13 13 0 0 1-.07-.715 10 10 0 0 1-.024-.645v-.961q0-.351.023-.75.024-.398.082-.808.07-.411.188-.75.129-.34.328-.551.199-.21.504-.21.315 0 .48.316.165.315.246.738.082.421.094.843.012.41.012.61m4.16 4.523q-.2 0-.316-.187a1.3 1.3 0 0 1-.176-.41 3 3 0 0 1-.082-.47 7 7 0 0 1 .023-1.078l.094-.702q.058-.353.094-.703.047-.353.047-.704a4 4 0 0 0-.012-.304 1.2 1.2 0 0 0-.059-.305.5.5 0 0 0-.129-.246.33.33 0 0 0-.246-.094q-.105 0-.234.176-.129.164-.246.387-.105.21-.188.433-.07.21-.07.317v.527q.012.258.012.527v.68q-.012.21-.035.434-.025.223-.07.433-.036.211-.106.41-.07.188-.188.34a.9.9 0 0 1-.258.235.7.7 0 0 1-.363.093.52.52 0 0 1-.386-.152 1.1 1.1 0 0 1-.247-.387 2.7 2.7 0 0 1-.14-.539 19 19 0 0 1-.059-.586 13 13 0 0 1-.012-.527 9 9 0 0 0 .012-.387v-.55q0-.445-.023-.88-.012-.433-.012-.867v-.597q.013-.363.094-.703.081-.352.27-.598.187-.246.55-.246a.45.45 0 0 1 .293.105q.129.106.223.258.105.153.164.328.07.176.105.305.117-.165.27-.316.164-.153.363-.27a1.9 1.9 0 0 1 1.008-.258q.597 0 .926.293.339.282.492.715.165.422.199.914.035.492.035.89 0 .2-.035.598-.035.387-.117.868a10 10 0 0 1-.2.972 6.4 6.4 0 0 1-.304.903 2.2 2.2 0 0 1-.422.667.71.71 0 0 1-.539.258m7.254-1.98q0 .21-.023.55-.013.34-.094.669-.082.316-.258.55a.58.58 0 0 1-.492.235q-.434 0-.668-.282-.234-.28-.223-.703-.375.33-.855.516a2.6 2.6 0 0 1-.961.188q-.34 0-.645-.165a2 2 0 0 1-.539-.421 2.1 2.1 0 0 1-.375-.575 1.6 1.6 0 0 1-.14-.644q0-.562.34-.985.351-.422.855-.714a5 5 0 0 1 1.066-.48 6.4 6.4 0 0 1 1.02-.235v-.106a.4.4 0 0 0 .011-.105q0-.364-.199-.586-.2-.222-.562-.223-.294 0-.504.106-.21.093-.399.222-.187.118-.375.223a.9.9 0 0 1-.421.094.65.65 0 0 1-.446-.164.55.55 0 0 1-.176-.422q0-.387.223-.703.234-.316.574-.528a3 3 0 0 1 .75-.34q.411-.128.75-.128.317 0 .633.082.316.07.598.234.28.152.504.387.233.222.375.527.21.434.34.926.128.48.199.996.07.504.093 1.02.024.503.024.984m-1.875-.375-.035-.797h-.047a.1.1 0 0 0-.047-.012q-.152 0-.387.082a1.7 1.7 0 0 0-.433.211q-.21.13-.364.293a.52.52 0 0 0-.14.34q0 .165.117.223t.27.058q.257 0 .55-.129.293-.14.516-.27m4.277 1.465a.6.6 0 0 1-.07.281.65.65 0 0 1-.188.2.8.8 0 0 1-.246.128.8.8 0 0 1-.27.047q-.174 0-.386-.07a1.4 1.4 0 0 1-.375-.176 1.3 1.3 0 0 1-.281-.27.6.6 0 0 1-.117-.363q0-.316.27-.469a1.05 1.05 0 0 1 .913-.105q.2.058.364.176.175.105.28.27.106.151.106.35m8.403-1.278q0 .223-.118.434-.117.2-.55.469-.435.27-.961.515-.528.235-1.02.41-.492.165-.726.165-.165 0-.387-.083a2.7 2.7 0 0 1-.856-.456 1.2 1.2 0 0 1-.257-.294 1.2 1.2 0 0 1-.094-.328 17 17 0 0 1-.07-.574q-.024-.328-.047-.691l-.047-.703-.024-.598v-.375q0-.434.024-.996.034-.563.117-1.125.082-.574.234-1.09.165-.528.434-.89.082-.106.328-.223t.574-.223a12 12 0 0 1 1.465-.351 9 9 0 0 1 .656-.106q.293-.047.446-.047.175 0 .328.082.164.07.27.2a.9.9 0 0 1 .175.292.77.77 0 0 1 .024.586q-.036.105-.118.235-.117.151-.492.363a13 13 0 0 1-1.664.785q-.399.165-.562.235-.048.27-.106.55-.047.27-.07.551a7 7 0 0 1 .82-.351q.458-.165.867-.165.832 0 .832.82a.73.73 0 0 1-.082.352.8.8 0 0 1-.199.27 1.3 1.3 0 0 1-.281.21l-.305.165q-.375.2-.785.352l-.82.28a5 5 0 0 0-.047.212 1 1 0 0 0-.024.21q0 .165.024.329l.047.328q.14-.046.445-.153.317-.105.656-.21.34-.106.656-.176.317-.082.47-.082.175 0 .327.082a.7.7 0 0 1 .258.199q.105.117.164.281.07.165.07.328m-1.207-8.953a.53.53 0 0 1-.07.258 1.2 1.2 0 0 1-.177.223q-.093.105-.21.199a8 8 0 0 0-.211.152 6 6 0 0 0-.188.14 2 2 0 0 1-.21.142q-.106.058-.224.105a.5.5 0 0 1-.21.047.3.3 0 0 1-.165-.047.2.2 0 0 1-.07-.164q0-.176.13-.422.14-.258.339-.492.199-.245.422-.41.222-.176.41-.176.165 0 .293.14a.4.4 0 0 1 .14.305m9.468 3.785q0 .223-.047.434a.9.9 0 0 1-.14.352.8.8 0 0 1-.281.246 1 1 0 0 1-.434.082q-.293 0-.434-.117a.65.65 0 0 1-.199-.282 1.5 1.5 0 0 1-.047-.375 3 3 0 0 0-.023-.363.65.65 0 0 0-.082-.293q-.07-.117-.258-.117-.176 0-.293.27a4 4 0 0 0-.176.62 6 6 0 0 0-.094.692 8 8 0 0 0-.023.445q.152-.023.293-.035a1.9 1.9 0 0 1 .645.012q.175.034.328.117a.6.6 0 0 1 .246.21.55.55 0 0 1 .094.329q0 .21-.188.375-.176.165-.434.281-.246.106-.503.176a4 4 0 0 1-.411.094q.036.809.036 1.629 0 .773-.036 1.523a.9.9 0 0 1-.257.598.77.77 0 0 1-.586.234.66.66 0 0 1-.34-.082.65.65 0 0 1-.235-.2 1.2 1.2 0 0 1-.152-.292 1.7 1.7 0 0 1-.059-.34q-.058-.703-.093-1.406-.036-.715-.024-1.43a1 1 0 0 1-.164.012h-.152a2 2 0 0 1-.727-.153 1.3 1.3 0 0 1-.304-.222.44.44 0 0 1-.129-.328.6.6 0 0 1 .175-.434q.165-.175.399-.281.246-.117.504-.164a9 9 0 0 1 .469-.07v-.188q0-.575.105-1.23a4.4 4.4 0 0 1 .375-1.22q.27-.562.738-.925.469-.375 1.196-.375.456 0 .785.2.328.186.539.503.21.305.305.703.093.387.093.785m4.547 5.356q0 .21-.023.55-.012.34-.094.669a1.6 1.6 0 0 1-.258.55.58.58 0 0 1-.492.235q-.434 0-.668-.282-.234-.28-.223-.703-.375.33-.855.516a2.6 2.6 0 0 1-.961.188q-.34 0-.645-.165a2 2 0 0 1-.539-.421 2.2 2.2 0 0 1-.375-.575 1.6 1.6 0 0 1-.14-.644q0-.562.34-.985.351-.422.855-.714a4.8 4.8 0 0 1 1.066-.48 6.4 6.4 0 0 1 1.02-.235v-.106a.4.4 0 0 0 .012-.105q0-.364-.2-.586-.198-.222-.562-.223-.293 0-.504.106a2.5 2.5 0 0 0-.398.222q-.187.118-.375.223a.9.9 0 0 1-.422.094.66.66 0 0 1-.446-.164.55.55 0 0 1-.175-.422q0-.387.222-.703.235-.316.575-.528a3 3 0 0 1 .75-.34q.41-.128.75-.128.315 0 .632.082.317.07.598.234.281.152.504.387.234.222.375.527.211.434.34.926.129.48.199.996.07.504.094 1.02.023.503.023.984m-1.875-.375-.035-.797h-.047a.1.1 0 0 0-.047-.012q-.152 0-.386.082a1.7 1.7 0 0 0-.434.211 1.7 1.7 0 0 0-.363.293.52.52 0 0 0-.141.34q0 .165.117.223t.27.058q.257 0 .551-.129.293-.14.515-.27m.563-6.844a.53.53 0 0 1-.071.258 1.2 1.2 0 0 1-.175.223 2 2 0 0 1-.211.199 7 7 0 0 0-.211.152 6 6 0 0 0-.188.14 2 2 0 0 1-.211.141q-.105.06-.222.106a.5.5 0 0 1-.211.047.3.3 0 0 1-.164-.047.2.2 0 0 1-.071-.164q0-.176.129-.422a3 3 0 0 1 .34-.492q.199-.246.422-.41.222-.176.41-.176a.4.4 0 0 1 .293.14.4.4 0 0 1 .141.305m6.363 4.371a.7.7 0 0 1-.047.246q-.106.27-.328.457a.82.82 0 0 1-.527.176q-.458 0-.621-.457a.3.3 0 0 1-.024-.129q0-.082-.012-.164v-.34a.7.7 0 0 0-.082-.258q-.058-.093-.199-.093-.2 0-.387.258a3 3 0 0 0-.316.597q-.129.34-.211.703a2.8 2.8 0 0 0-.082.586q0 .176.023.434.024.246.094.48.07.235.188.41a.4.4 0 0 0 .328.165.6.6 0 0 0 .363-.118q.176-.129.34-.293.153-.14.328-.293a.65.65 0 0 1 .422-.152q.293 0 .457.211.176.21.176.48 0 .399-.211.75a2.4 2.4 0 0 1-.528.598q-.315.246-.703.387a2 2 0 0 1-.738.152q-.633 0-1.078-.316a2.5 2.5 0 0 1-.703-.797 3.8 3.8 0 0 1-.387-1.066 5.5 5.5 0 0 1-.117-1.09q0-.598.164-1.29.163-.703.504-1.3t.867-.996q.539-.399 1.277-.399.457 0 .786.2.34.198.55.527.223.316.328.715.118.398.118.785v.117q0 .06-.012.117m2.59-3.68q0 .165-.094.294a.9.9 0 0 1-.223.234 1.4 1.4 0 0 1-.304.152q-.165.047-.305.047a.7.7 0 0 1-.41-.117q-.176-.118-.176-.363 0-.177.082-.305a.8.8 0 0 1 .223-.223.9.9 0 0 1 .293-.14q.164-.047.316-.047a.8.8 0 0 1 .41.105q.188.105.188.364m.094 3.985v.352q0 .175-.012.34a10 10 0 0 0-.012.538q0 .329-.023.715-.024.387-.082.785a3.4 3.4 0 0 1-.164.727 1.5 1.5 0 0 1-.317.539.67.67 0 0 1-.48.21.43.43 0 0 1-.375-.175 1.6 1.6 0 0 1-.258-.48 4 4 0 0 1-.141-.668q-.046-.375-.07-.715a10 10 0 0 1-.023-.645v-.961q0-.351.023-.75.024-.398.082-.808.07-.411.187-.75.13-.34.329-.551.198-.21.504-.21.316 0 .48.316.163.315.246.738.082.421.094.843.012.41.012.61m3.023-2.906q0 .633-.059 1.277-.046.633-.046 1.277 0 .833.046 1.664.059.833.059 1.676 0 .21-.023.48a1.6 1.6 0 0 1-.118.481.9.9 0 0 1-.257.375.7.7 0 0 1-.469.152q-.282 0-.492-.28a2.5 2.5 0 0 1-.34-.692 9 9 0 0 1-.223-.961 17 17 0 0 1-.129-1.02q-.035-.504-.058-.914a24 24 0 0 1-.012-.62q0-.224.012-.645.023-.422.082-.914.058-.492.152-.996.105-.516.27-.926.164-.422.386-.68a.71.71 0 0 1 .551-.27q.258.001.387.176.14.165.199.41.058.236.07.504.012.257.012.446m8.625 5.015q0 .4-.258.785-.246.375-.633.68-.375.293-.808.48a2.1 2.1 0 0 1-.797.176 2.07 2.07 0 0 1-1.113-.304 2.9 2.9 0 0 1-.809-.797 3.9 3.9 0 0 1-.504-1.055 4.2 4.2 0 0 1-.164-1.137q0-.585.164-1.254.164-.667.492-1.23.34-.562.844-.937.516-.376 1.219-.376.397 0 .762.141.363.129.632.375.27.246.434.586t.164.762q0 .55-.234 1.031-.236.48-.621.832a3.3 3.3 0 0 1-.891.574 3 3 0 0 1-1.031.235q.047.339.269.492.234.152.551.152a1 1 0 0 0 .457-.117q.222-.117.434-.258.21-.151.41-.27a.86.86 0 0 1 .422-.117.65.65 0 0 1 .421.153.49.49 0 0 1 .188.398m-1.898-2.87a.7.7 0 0 0-.082-.317.27.27 0 0 0-.258-.164.67.67 0 0 0-.434.14q-.176.13-.293.34-.117.2-.187.434a2.4 2.4 0 0 0-.071.433q.165-.034.387-.093.234-.06.434-.153.21-.105.351-.258a.5.5 0 0 0 .153-.363m10.734 1.089q0 .34-.059.773-.047.422-.164.868-.105.446-.293.867a3.2 3.2 0 0 1-.445.762 2.1 2.1 0 0 1-.609.527 1.55 1.55 0 0 1-.797.2q-.482 0-.879-.224a2.1 2.1 0 0 1-.668-.609 1 1 0 0 1-.258.563.74.74 0 0 1-.562.234q-.2 0-.34-.2a1.8 1.8 0 0 1-.211-.503 5 5 0 0 1-.129-.692 12 12 0 0 1-.047-.726 19 19 0 0 1-.012-.633v-1.195l.024-.809q0-.2-.012-.598 0-.398.012-.878.012-.492.047-.996.047-.516.152-.938a2.1 2.1 0 0 1 .293-.691.6.6 0 0 1 .48-.282q.235 0 .399.164t.269.434q.117.27.176.61.07.327.094.667.035.33.035.633.012.293.012.48 0 .036-.012.165v.632a1.7 1.7 0 0 1 .305-.433q.2-.21.445-.375.246-.165.516-.27.269-.105.515-.105.492 0 .821.258.34.246.539.633.198.386.281.843.082.445.082.844m-1.723.352q0-.141-.023-.305a.8.8 0 0 0-.082-.305.6.6 0 0 0-.176-.234.4.4 0 0 0-.281-.094.9.9 0 0 0-.375.082 1.7 1.7 0 0 0-.34.211q-.164.13-.305.281a3 3 0 0 0-.246.282l-.117 1.042q.187.27.457.434.27.152.609.152a.57.57 0 0 0 .422-.164q.175-.164.27-.398.105-.246.14-.516a3 3 0 0 0 .047-.468m7.348 1.43q0 .398-.258.784-.246.375-.633.68-.375.293-.808.48a2.1 2.1 0 0 1-.797.176 2.07 2.07 0 0 1-1.113-.304 2.9 2.9 0 0 1-.809-.797 3.9 3.9 0 0 1-.504-1.055 4.2 4.2 0 0 1-.164-1.137q0-.585.164-1.254.164-.667.492-1.23.34-.562.844-.937.516-.376 1.219-.376.398 0 .761.141.365.129.633.375.27.246.434.586t.164.762q0 .55-.234 1.031t-.622.832a3.3 3.3 0 0 1-.89.574 3 3 0 0 1-1.031.235q.047.339.269.492.234.152.551.152a1 1 0 0 0 .457-.117q.222-.117.434-.258.21-.151.41-.27a.86.86 0 0 1 .422-.117.65.65 0 0 1 .421.153.49.49 0 0 1 .188.398m-1.899-2.872a.7.7 0 0 0-.082-.316.27.27 0 0 0-.257-.164.67.67 0 0 0-.434.14q-.176.13-.293.34a2 2 0 0 0-.187.434 2.4 2.4 0 0 0-.071.433q.165-.034.387-.093.234-.06.434-.153.21-.105.351-.258a.5.5 0 0 0 .152-.363m9.481 1.09v.61q0 .375-.023.82a9 9 0 0 1-.071.902 4 4 0 0 1-.187.809q-.117.363-.305.597a.59.59 0 0 1-.48.235.45.45 0 0 1-.399-.211 1.7 1.7 0 0 1-.187-.516 4 4 0 0 1-.071-.598v-.48q0-.527.035-1.031t.036-1.032v-.21q0-.153-.024-.305a.9.9 0 0 0-.082-.27q-.047-.117-.152-.117-.211 0-.34.223-.129.21-.211.504-.083.292-.117.586-.035.28-.047.422a7 7 0 0 0-.047.457q-.012.304-.047.667a6 6 0 0 1-.094.75q-.058.375-.164.692a1.6 1.6 0 0 1-.246.504.46.46 0 0 1-.375.2.48.48 0 0 1-.433-.247 1.8 1.8 0 0 1-.223-.574 5 5 0 0 1-.094-.668 16 16 0 0 1-.011-.528v-.386a7 7 0 0 0 .011-.387v-.27a9 9 0 0 0-.011-.41q0-.234-.024-.48a4 4 0 0 0-.047-.446 1.1 1.1 0 0 0-.105-.34q-.07-.128-.164-.128-.153 0-.282.199-.128.187-.222.457a4 4 0 0 0-.153.516 2.4 2.4 0 0 0-.046.375v.07q0 .562.07 1.102.07.538.07 1.101 0 .328-.211.61a.7.7 0 0 1-.586.269.57.57 0 0 1-.445-.2 1.8 1.8 0 0 1-.293-.538 4.5 4.5 0 0 1-.187-.715 9 9 0 0 1-.082-.774 31 31 0 0 1-.036-.691v-.469q0-.176-.011-.515 0-.34.011-.739.023-.398.071-.808.047-.422.152-.762t.27-.55a.54.54 0 0 1 .445-.223.72.72 0 0 1 .492.164q.2.164.199.492a1 1 0 0 1-.011.14q0 .07-.012.13a2.7 2.7 0 0 1 .316-.376 3 3 0 0 1 .399-.351q.222-.165.468-.258.247-.105.493-.105.234 0 .422.128.187.13.328.329.14.187.234.41t.129.422q.117-.212.281-.422.175-.224.375-.387.2-.165.434-.27.246-.105.504-.105.245 0 .422.176.175.176.304.457.13.27.199.62.07.34.118.68.046.329.058.622.012.281.012.445M32.517 66.299q-.831 0-1.3-.224a1.5 1.5 0 0 1-.692-.609 2.35 2.35 0 0 1-.27-.96 17 17 0 0 1-.012-2.355q.036-.564.107-1.197-.165 0-.258.012h-.153q-.375 0-.644-.164a.54.54 0 0 1-.282-.504q0-.21.165-.375.152-.165.398-.281t.527-.188q.294-.07.551-.093 0-.329.047-.727.047-.399.164-.738.13-.352.34-.586a.7.7 0 0 1 .539-.235q.187 0 .328.118.153.105.246.28.095.165.14.376.048.21.048.41 0 .234-.035.48a6 6 0 0 1-.13.61q.2-.024.27-.024a1 1 0 0 1 .13-.011q.198 0 .41.035.222.034.398.117a.8.8 0 0 1 .304.223.45.45 0 0 1 .118.316.5.5 0 0 1-.176.375q-.165.165-.422.281a3 3 0 0 1-.55.188 5 5 0 0 1-.552.082q-.07.48-.105.89-.023.399-.059.81l-.047.41a7 7 0 0 0 0 .773q.013.199.082.386a.85.85 0 0 0 .223.329q.152.129.422.129.165 0 .34-.024.175-.035.351-.035.305 0 .434.21.14.212.14.54 0 .246-.152.433a1 1 0 0 1-.363.282 2 2 0 0 1-.504.176q-.27.058-.516.058m5.836-4.806a.8.8 0 0 1-.28-.023l-.235-.094a2 2 0 0 0-.211-.082.46.46 0 0 0-.235-.035.86.86 0 0 0-.421.129 1.6 1.6 0 0 0-.329.293q-.14.176-.246.398-.105.212-.164.422a3 3 0 0 0-.058.434q-.012.28-.012.61-.012.339-.012.644t-.023.48a4 4 0 0 1-.059.446q-.047.246-.152.468a1.1 1.1 0 0 1-.258.375.6.6 0 0 1-.422.153.56.56 0 0 1-.351-.118 1.1 1.1 0 0 1-.246-.304 3 3 0 0 1-.165-.457 6 6 0 0 1-.093-.528 14 14 0 0 1-.059-.562l-.023-.527v-.47q.012-.21.011-.34a14 14 0 0 0-.047-.82 15 15 0 0 1-.023-.831q0-.258.023-.575.024-.316.13-.586.105-.28.304-.468.21-.188.574-.188.2 0 .34.13a.9.9 0 0 1 .223.316q.094.186.14.398.047.21.06.387.28-.457.632-.739.351-.292.914-.316.281-.012.55.059.282.059.505.21.233.142.375.376.152.234.164.55.023.375-.223.575a.97.97 0 0 1-.598.21m5.977 2.73q0 .212-.023.552-.013.34-.094.668-.082.315-.258.55a.58.58 0 0 1-.492.235q-.434 0-.668-.281t-.223-.704q-.375.33-.855.516a2.6 2.6 0 0 1-.961.188 1.34 1.34 0 0 1-.645-.165 2 2 0 0 1-.539-.421 2.2 2.2 0 0 1-.375-.575 1.6 1.6 0 0 1-.14-.644q0-.562.34-.984.351-.423.855-.715a5 5 0 0 1 1.066-.48 6.4 6.4 0 0 1 1.02-.235v-.106a.4.4 0 0 0 .011-.105q0-.364-.199-.586-.2-.222-.562-.223-.294 0-.504.106-.21.093-.399.222-.187.118-.375.223a.9.9 0 0 1-.422.094.65.65 0 0 1-.445-.164.55.55 0 0 1-.176-.422q0-.387.223-.703.234-.316.574-.528.352-.222.75-.34.411-.128.75-.128.316 0 .633.082.316.07.598.234.28.152.504.387.233.222.375.527.21.434.34.926.128.48.199.996.07.504.093 1.02.024.503.024.984m-1.875-.374-.035-.797h-.047a.1.1 0 0 0-.047-.012q-.152 0-.387.082a1.7 1.7 0 0 0-.433.211q-.21.13-.364.293a.52.52 0 0 0-.14.34q0 .165.117.223t.27.058q.257 0 .55-.129.293-.14.516-.27m5.906 2.355q-.2 0-.316-.187a1.3 1.3 0 0 1-.176-.41 3 3 0 0 1-.082-.47 7 7 0 0 1 .023-1.078l.094-.702q.059-.353.094-.703.047-.353.047-.704a4 4 0 0 0-.012-.304 1.2 1.2 0 0 0-.059-.305.5.5 0 0 0-.128-.246A.33.33 0 0 0 47.6 61q-.105 0-.235.176-.129.164-.246.387-.106.21-.187.433-.07.21-.07.317v.527q.01.258.01.527v.68q-.011.21-.034.434-.024.223-.07.433-.037.211-.106.41-.071.188-.187.34a.9.9 0 0 1-.258.235.7.7 0 0 1-.364.093.52.52 0 0 1-.386-.152 1.1 1.1 0 0 1-.246-.387 2.7 2.7 0 0 1-.141-.539 19 19 0 0 1-.059-.586 13 13 0 0 1-.011-.527 9 9 0 0 0 .011-.387v-.55q0-.445-.023-.88-.012-.433-.012-.867v-.597q.013-.363.094-.703.083-.352.27-.598t.55-.246a.45.45 0 0 1 .293.105q.129.106.223.258.105.153.164.328.07.176.105.305.117-.165.27-.316.164-.153.363-.27a1.9 1.9 0 0 1 1.008-.258q.597 0 .926.293.339.282.492.715.165.422.2.914.034.492.034.89 0 .2-.035.598-.035.387-.117.868a10 10 0 0 1-.2.972 6.4 6.4 0 0 1-.304.903 2.2 2.2 0 0 1-.422.668.71.71 0 0 1-.539.257m7.723-5.777-.188 1.7a25 25 0 0 0-.129 1.687 25 25 0 0 0-.046 1.84q.01.867.011 1.84 0 .234-.011.574 0 .34-.082.656-.083.315-.27.539-.175.222-.54.223a.47.47 0 0 1-.304-.106 1 1 0 0 1-.21-.281 2 2 0 0 1-.141-.375 7 7 0 0 1-.082-.434 9 9 0 0 1-.07-.914V65.15q-.27.351-.704.539a2.2 2.2 0 0 1-.843.176q-.528 0-.915-.247a2.2 2.2 0 0 1-.62-.644 3 3 0 0 1-.364-.867 3.8 3.8 0 0 1-.117-.914v-.07q0-.61.187-1.313.188-.715.551-1.324.375-.61.926-1.008a2.15 2.15 0 0 1 1.3-.41q.399 0 .727.164.34.164.48.539a1 1 0 0 1 .282-.434.73.73 0 0 1 .504-.176q.386 0 .539.258a.97.97 0 0 1 .164.551q0 .129-.012.234zm-2.696.281a.72.72 0 0 0-.503.223q-.235.21-.41.527a3 3 0 0 0-.282.657 2.5 2.5 0 0 0-.093.62q0 .165.023.352.035.188.094.363.07.165.175.282.118.105.293.105.154 0 .352-.07.21-.082.41-.2.2-.129.352-.28a.9.9 0 0 0 .21-.294q.036-.081.06-.246.023-.164.034-.34a6 6 0 0 0 .047-.632q0-.141-.07-.317a1.4 1.4 0 0 0-.164-.351 1 1 0 0 0-.246-.282.44.44 0 0 0-.282-.117m8.391 1.817q0 .644-.129 1.277t-.433 1.137a2.36 2.36 0 0 1-.82.797q-.505.304-1.266.304-.75 0-1.254-.293a2.4 2.4 0 0 1-.809-.797 3.6 3.6 0 0 1-.422-1.113 7 7 0 0 1-.117-1.266q0-.702.164-1.394a4.8 4.8 0 0 1 .387-1.172q.164-.328.363-.562.21-.235.457-.235.235 0 .375.13a.9.9 0 0 1 .223.327q.083.188.105.41.024.212.024.387 0 .27-.047.527-.034.258-.082.516l-.094.703a7 7 0 0 0-.023 1.102q.023.21.093.41a1 1 0 0 0 .2.34.5.5 0 0 0 .363.129q.304 0 .48-.164a.9.9 0 0 0 .27-.41q.094-.247.117-.528t.024-.516q0-.516-.07-1.007-.071-.504-.13-1.02a1.1 1.1 0 0 1 .047-.516q.06-.175.164-.316a.8.8 0 0 1 .258-.223.64.64 0 0 1 .34-.093q.258 0 .457.187.2.176.328.469.14.281.223.645.094.35.14.703.06.34.07.644.024.305.024.48m2.649-4.828q0 .164-.094.292a.9.9 0 0 1-.223.235 1.4 1.4 0 0 1-.305.152q-.163.047-.304.047a.7.7 0 0 1-.41-.117q-.176-.118-.176-.363 0-.177.082-.305a.8.8 0 0 1 .223-.223.9.9 0 0 1 .293-.14q.163-.047.316-.047.222 0 .41.105t.188.364m.093 3.984v.352q0 .175-.011.34a10 10 0 0 0-.012.538q0 .329-.023.715-.024.387-.083.785a3.3 3.3 0 0 1-.164.727 1.5 1.5 0 0 1-.316.539.67.67 0 0 1-.48.21.43.43 0 0 1-.376-.175 1.6 1.6 0 0 1-.257-.48 4 4 0 0 1-.14-.668 13 13 0 0 1-.071-.715 10 10 0 0 1-.024-.645v-.961q0-.351.024-.75.023-.398.082-.808.071-.411.187-.75.13-.34.328-.551.2-.21.504-.21.316 0 .48.316.165.315.247.738.082.421.094.843.01.41.011.61m3.024-2.906q0 .633-.059 1.277a17 17 0 0 0-.047 1.277q0 .833.047 1.664.06.833.059 1.676 0 .21-.024.48a1.6 1.6 0 0 1-.117.481.9.9 0 0 1-.258.375.7.7 0 0 1-.468.153q-.282 0-.493-.282a2.5 2.5 0 0 1-.34-.691 9 9 0 0 1-.222-.961 17 17 0 0 1-.129-1.02q-.035-.504-.059-.914a25 25 0 0 1-.011-.62q0-.224.011-.645.024-.422.082-.914.06-.492.153-.996.105-.516.27-.926.164-.422.386-.68a.71.71 0 0 1 .55-.27q.26.001.387.176a.96.96 0 0 1 .2.41q.058.236.07.504.012.257.012.446m3.117 7.441q-.598 0-1.043-.316a2.8 2.8 0 0 1-.75-.809 3.9 3.9 0 0 1-.457-1.09 5 5 0 0 1-.152-1.195q0-.621.152-1.277.152-.669.469-1.208.316-.55.808-.89.493-.352 1.172-.352.657 0 1.114.364.468.35.75.89.28.528.398 1.16t.082 1.196q-.035.621-.2 1.254-.15.632-.456 1.136-.304.505-.774.82-.468.317-1.113.317m.117-5.297q-.175 0-.316.188-.129.187-.223.457-.082.269-.129.574a3.3 3.3 0 0 0 0 1.125q.06.328.152.61.094.268.223.456.141.177.317.176.187 0 .316-.176a1.3 1.3 0 0 0 .223-.445q.081-.27.117-.586a6 6 0 0 0 .035-.61q0-.257-.047-.562a3 3 0 0 0-.14-.586 1.3 1.3 0 0 0-.223-.445q-.13-.176-.305-.176m4.723 4.395a.6.6 0 0 1-.07.281.65.65 0 0 1-.188.2.8.8 0 0 1-.246.128.8.8 0 0 1-.27.047q-.176 0-.386-.07a1.4 1.4 0 0 1-.375-.176 1.3 1.3 0 0 1-.282-.27.6.6 0 0 1-.117-.363q0-.316.27-.469a1.05 1.05 0 0 1 .914-.105q.2.059.363.176.176.105.281.27.105.151.106.35m9.21-1.172q0 .235-.046.562-.035.33-.153.633a1.6 1.6 0 0 1-.316.504.7.7 0 0 1-.527.2q-.434 0-.657-.317a2.2 2.2 0 0 1-.304-.75 6 6 0 0 1-.117-.903 44 44 0 0 0-.024-.726q-.843.141-1.664.246a6 6 0 0 1-.105.668 3.4 3.4 0 0 1-.235.773 2 2 0 0 1-.41.633.8.8 0 0 1-.61.27.55.55 0 0 1-.444-.2 1.6 1.6 0 0 1-.235-.492 3 3 0 0 1-.105-.574 14 14 0 0 1-.012-.504q0-.668.105-1.312a24 24 0 0 1 .434-2.098q.117-.457.281-.937.176-.493.399-.961.234-.48.527-.856.293-.375.668-.61.375-.233.832-.233.446 0 .773.199.329.199.575.527t.41.75q.164.41.27.844.117.421.187.832.081.41.14.726.153.762.258 1.547.105.773.106 1.559m-2.261-2.848q0-.14-.023-.457a4.4 4.4 0 0 0-.07-.644 2 2 0 0 0-.188-.575q-.118-.258-.328-.257-.118 0-.223.164-.105.152-.187.398a5 5 0 0 0-.153.527q-.058.293-.105.563-.048.27-.07.492l-.036.305q.704-.06 1.383-.176zm5.016-3.48q0 .164-.094.304a.9.9 0 0 1-.235.223 1.4 1.4 0 0 1-.304.152q-.164.047-.305.047a.7.7 0 0 1-.41-.117q-.176-.118-.176-.363 0-.176.082-.305a.8.8 0 0 1 .223-.223q.14-.093.293-.14.165-.047.316-.047.223 0 .41.117.2.106.2.352m.222 5.086q0 .55-.035 1.23a10 10 0 0 1-.14 1.348 6.3 6.3 0 0 1-.34 1.289 2.8 2.8 0 0 1-.657 1.02q-.235.222-.55.468a6 6 0 0 1-.68.457q-.351.21-.715.34-.363.14-.691.14-.375 0-.551-.21-.188-.199-.188-.563 0-.375.2-.562.199-.188.492-.328t.644-.317q.34-.164.633-.504t.492-.914q.2-.585.2-1.535a29 29 0 0 0-.094-2.344l-.047-.68a10 10 0 0 1-.024-.69q0-.212.06-.446.058-.234.175-.422a.95.95 0 0 1 .293-.316.77.77 0 0 1 .445-.13.6.6 0 0 1 .48.223q.2.223.317.575.13.34.176.773.058.422.082.832.024.399.023.738zm6.082-.375q0 .644-.129 1.277-.128.632-.433 1.137a2.36 2.36 0 0 1-.82.797q-.504.304-1.266.304-.75 0-1.254-.293a2.4 2.4 0 0 1-.809-.797 3.6 3.6 0 0 1-.422-1.113 7 7 0 0 1-.117-1.266q0-.702.164-1.394a4.8 4.8 0 0 1 .387-1.172q.164-.328.363-.562.211-.235.457-.235.235 0 .375.13a.9.9 0 0 1 .223.327q.082.188.106.41.023.212.023.387 0 .27-.047.527-.034.258-.082.516l-.094.703a7 7 0 0 0-.023 1.102q.023.21.094.41a1 1 0 0 0 .199.34.5.5 0 0 0 .363.129q.304 0 .48-.164a.9.9 0 0 0 .27-.41q.094-.247.117-.528t.024-.516q0-.516-.07-1.007-.07-.504-.13-1.02a1.1 1.1 0 0 1 .047-.516q.06-.175.164-.316a.8.8 0 0 1 .258-.223.64.64 0 0 1 .34-.093q.258 0 .457.187.2.176.328.469.14.281.223.645.095.35.14.703.06.34.07.644.024.305.024.48m5.766-4.36q0 .855-.07 1.7-.06.843-.059 1.699 0 .691.035 1.37.047.68.047 1.372 0 .187-.012.457-.011.258-.082.504a1 1 0 0 1-.21.422q-.141.176-.41.176a.76.76 0 0 1-.587-.258 1.3 1.3 0 0 1-.28-.598q-.224.422-.646.715a1.57 1.57 0 0 1-.913.293 1.3 1.3 0 0 1-.915-.363 3.2 3.2 0 0 1-.632-.88 5.2 5.2 0 0 1-.375-1.078 5 5 0 0 1-.118-.972 7.2 7.2 0 0 1 .153-1.43q.093-.387.234-.75a3 3 0 0 1 .352-.668q.222-.292.515-.468.305-.177.692-.176.421 0 .808.246t.586.61l.106-1.864q.011-.223.035-.516.024-.304.094-.574.081-.27.246-.457t.48-.187q.34 0 .527.164.188.164.27.421.095.246.105.54.024.292.024.55m-1.91 5.203q0-.27-.012-.527a6 6 0 0 1 0-.527 7 7 0 0 0-.164-.328 1.5 1.5 0 0 0-.234-.34q-.13-.165-.293-.27a.64.64 0 0 0-.352-.105.46.46 0 0 0-.34.129.76.76 0 0 0-.187.316q-.06.175-.082.387a7 7 0 0 0-.012.363 5.5 5.5 0 0 0 .106.973q.07.28.187.492.118.21.316.21.153 0 .305-.058.153-.07.281-.164.141-.105.258-.222.129-.13.223-.235zm7.664.856q0 .21-.024.55-.011.34-.093.669a1.6 1.6 0 0 1-.258.55.58.58 0 0 1-.492.235q-.434 0-.668-.281t-.223-.704q-.375.33-.855.516a2.6 2.6 0 0 1-.961.188q-.34 0-.645-.165a2 2 0 0 1-.539-.421 2.2 2.2 0 0 1-.375-.575 1.6 1.6 0 0 1-.141-.644q0-.562.34-.984.352-.423.856-.715a4.8 4.8 0 0 1 1.066-.48 6.4 6.4 0 0 1 1.02-.235v-.106a.4.4 0 0 0 .011-.105q0-.364-.199-.586-.2-.222-.562-.223-.294 0-.504.106a2.5 2.5 0 0 0-.399.222q-.188.118-.375.223a.9.9 0 0 1-.422.094.66.66 0 0 1-.445-.164.55.55 0 0 1-.176-.422q0-.387.223-.703.235-.316.574-.528.353-.222.75-.34.411-.128.75-.128.316 0 .633.082.316.07.598.234.28.152.504.387.234.222.375.527.21.434.339.926.13.48.2.996.07.504.093 1.02.024.503.024.984m-1.875-.375-.035-.797h-.047a.1.1 0 0 0-.047-.012q-.152 0-.387.082a1.7 1.7 0 0 0-.433.211 1.7 1.7 0 0 0-.364.293.52.52 0 0 0-.14.34q0 .165.117.223t.269.058q.258 0 .551-.129.293-.14.516-.27m10.383.375q0 .21-.024.55-.012.34-.093.669a1.6 1.6 0 0 1-.258.55.58.58 0 0 1-.492.235q-.435 0-.668-.281-.235-.281-.223-.704-.375.33-.856.516a2.6 2.6 0 0 1-.961.188 1.34 1.34 0 0 1-.644-.165 2 2 0 0 1-.539-.421 2.2 2.2 0 0 1-.375-.575 1.6 1.6 0 0 1-.141-.644q0-.562.34-.984.351-.423.856-.715a4.8 4.8 0 0 1 1.066-.48 6.4 6.4 0 0 1 1.02-.235v-.106a.5.5 0 0 0 .011-.105q0-.364-.199-.586-.2-.222-.562-.223-.294 0-.504.106a2.5 2.5 0 0 0-.399.222q-.187.118-.375.223a.9.9 0 0 1-.422.094.65.65 0 0 1-.445-.164.55.55 0 0 1-.176-.422q0-.387.223-.703.234-.316.574-.528a3 3 0 0 1 .75-.34q.411-.128.75-.128.316 0 .633.082.316.07.598.234.28.152.503.387.236.222.375.527.211.434.34.926.13.48.2.996.07.504.093 1.02.024.503.024.984m-1.875-.375-.035-.797h-.047a.1.1 0 0 0-.047-.012q-.153 0-.387.082a1.7 1.7 0 0 0-.434.211q-.21.13-.363.293a.52.52 0 0 0-.14.34q0 .165.117.223t.269.058q.258 0 .551-.129.293-.14.516-.27m10.312-4.98q0 .222-.047.433a.9.9 0 0 1-.14.352.8.8 0 0 1-.282.246 1 1 0 0 1-.433.082q-.293 0-.434-.117a.65.65 0 0 1-.199-.282 1.5 1.5 0 0 1-.047-.375 3 3 0 0 0-.023-.363.65.65 0 0 0-.082-.293q-.07-.117-.258-.117-.176 0-.293.27a4 4 0 0 0-.176.62 6 6 0 0 0-.094.692 8 8 0 0 0-.023.445q.153-.023.293-.035a1.9 1.9 0 0 1 .644.012q.176.034.329.117a.6.6 0 0 1 .246.21.55.55 0 0 1 .093.329q0 .21-.187.375-.176.165-.434.281-.246.106-.504.176a4 4 0 0 1-.41.094 37 37 0 0 1 0 3.152.9.9 0 0 1-.258.598.77.77 0 0 1-.585.234.66.66 0 0 1-.34-.082.65.65 0 0 1-.235-.2 1.2 1.2 0 0 1-.152-.292 1.7 1.7 0 0 1-.059-.34q-.058-.703-.093-1.406-.036-.715-.024-1.43a1 1 0 0 1-.164.012h-.152a2 2 0 0 1-.727-.153 1.3 1.3 0 0 1-.304-.222.44.44 0 0 1-.129-.328.6.6 0 0 1 .175-.434q.165-.175.399-.281.246-.117.504-.164.27-.047.468-.07v-.188q0-.575.106-1.23a4.4 4.4 0 0 1 .375-1.22q.27-.562.738-.925.469-.375 1.196-.375.456 0 .785.2.327.186.539.503.21.305.304.703.094.387.094.785m1.5-1.172q0 .164-.094.292a.9.9 0 0 1-.222.235 1.4 1.4 0 0 1-.305.152 1.1 1.1 0 0 1-.305.047.7.7 0 0 1-.41-.117q-.176-.118-.176-.363 0-.177.083-.305a.75.75 0 0 1 .222-.223.9.9 0 0 1 .293-.14q.164-.047.317-.047.222 0 .41.105t.187.364m.094 3.984v.352q0 .175-.012.34a10 10 0 0 0-.011.538q0 .329-.024.715-.024.387-.082.785a3.3 3.3 0 0 1-.164.727 1.5 1.5 0 0 1-.316.539.67.67 0 0 1-.481.21.44.44 0 0 1-.375-.175 1.7 1.7 0 0 1-.258-.48 4 4 0 0 1-.14-.668q-.047-.376-.071-.715-.023-.352-.023-.645v-.961q0-.351.023-.75.024-.398.082-.808a5 5 0 0 1 .188-.75q.129-.34.328-.551a.66.66 0 0 1 .504-.21q.316 0 .48.316.165.315.246.738.082.421.094.843.012.41.012.61m5.18-.305a1 1 0 0 1-.012.13 1 1 0 0 1-.035.116q-.106.27-.328.457a.83.83 0 0 1-.528.176q-.456 0-.621-.457a.4.4 0 0 1-.023-.129q0-.082-.012-.164v-.34a.7.7 0 0 0-.082-.258q-.058-.093-.199-.093-.2 0-.387.258a2.8 2.8 0 0 0-.316.597q-.13.34-.211.703a2.8 2.8 0 0 0-.082.586q0 .176.023.434.024.246.094.48.07.235.187.41.13.165.329.165a.6.6 0 0 0 .363-.118q.175-.129.34-.293.152-.14.328-.293a.65.65 0 0 1 .422-.152q.292 0 .457.211.175.21.175.48 0 .399-.21.75a2.4 2.4 0 0 1-.528.598 2.6 2.6 0 0 1-.703.387 2 2 0 0 1-.738.152q-.633 0-1.078-.316a2.5 2.5 0 0 1-.703-.797 3.8 3.8 0 0 1-.387-1.066 5.5 5.5 0 0 1-.117-1.09q0-.598.164-1.29.163-.703.504-1.3.339-.598.867-.996.539-.399 1.277-.399.458 0 .785.2.34.198.551.527.222.316.328.715.117.398.117.785v.117q0 .06-.011.117m5.636 2.848q0 .21-.023.55-.012.34-.094.669a1.6 1.6 0 0 1-.258.55.58.58 0 0 1-.492.235q-.434 0-.668-.281t-.222-.704a2.9 2.9 0 0 1-.856.516 2.6 2.6 0 0 1-.961.188 1.34 1.34 0 0 1-.644-.165 2.1 2.1 0 0 1-.914-.996 1.6 1.6 0 0 1-.141-.644q0-.562.34-.984.351-.423.855-.715a5 5 0 0 1 1.067-.48 6.4 6.4 0 0 1 1.019-.235v-.106a.4.4 0 0 0 .012-.105q0-.364-.199-.586-.2-.222-.563-.223-.293 0-.504.106-.21.093-.398.222-.187.118-.375.223a.9.9 0 0 1-.422.094.65.65 0 0 1-.445-.164.55.55 0 0 1-.176-.422q0-.387.223-.703.234-.316.574-.528a3 3 0 0 1 .75-.34q.41-.128.75-.128.317 0 .633.082.316.07.597.234.282.152.504.387.234.222.375.527.211.434.34.926.129.48.199.996.07.504.094 1.02.024.503.023.984m-1.875-.375-.035-.797h-.047a.1.1 0 0 0-.047-.012q-.152 0-.386.082a1.7 1.7 0 0 0-.434.211q-.21.13-.363.293a.52.52 0 0 0-.141.34q0 .165.117.223t.27.058q.257 0 .551-.129.293-.14.515-.27m6.645-2.356a.8.8 0 0 1-.281-.023l-.235-.094a2 2 0 0 0-.211-.082.46.46 0 0 0-.234-.035.9.9 0 0 0-.422.129 1.7 1.7 0 0 0-.328.293q-.141.176-.246.398-.105.212-.164.422a3 3 0 0 0-.059.434q-.012.28-.012.61-.01.339-.011.644t-.024.48a4 4 0 0 1-.058.446q-.047.246-.153.468a1.1 1.1 0 0 1-.257.375.6.6 0 0 1-.422.153.56.56 0 0 1-.352-.118 1.1 1.1 0 0 1-.246-.304 3 3 0 0 1-.164-.457 6 6 0 0 1-.094-.528 13 13 0 0 1-.058-.562l-.024-.527v-.47q.012-.21.012-.34a15 15 0 0 0-.047-.82 15 15 0 0 1-.023-.831q0-.258.023-.575.024-.316.129-.586.105-.28.305-.468.21-.188.574-.188.2 0 .34.13a.9.9 0 0 1 .222.316q.095.186.141.398.047.21.059.387.28-.457.632-.739.352-.292.914-.316.282-.012.551.059.282.059.504.21.234.142.375.376.153.234.164.55.024.375-.222.575a.98.98 0 0 1-.598.21m9.363.516q0 .34-.058.773-.048.422-.164.868a5 5 0 0 1-.293.867 3.2 3.2 0 0 1-.446.762 2.1 2.1 0 0 1-.609.527q-.34.2-.797.2-.48 0-.879-.224a2.15 2.15 0 0 1-.668-.609.98.98 0 0 1-.258.563.74.74 0 0 1-.562.234q-.2 0-.34-.2a1.8 1.8 0 0 1-.211-.503 5 5 0 0 1-.129-.692q-.035-.375-.047-.726a19 19 0 0 1-.011-.633v-1.195l.023-.809q0-.2-.012-.598 0-.398.012-.878.012-.492.047-.996.047-.516.152-.938a2.1 2.1 0 0 1 .293-.691.6.6 0 0 1 .481-.282q.234 0 .398.164t.27.434q.117.27.175.61.07.327.094.667a6 6 0 0 1 .035.633q.012.293.012.48 0 .036-.012.165v.632q.106-.222.305-.433.2-.21.445-.375.246-.165.516-.27t.516-.105q.492 0 .82.258.34.246.539.633.199.386.281.843.082.445.082.844m-1.722.352q0-.141-.024-.305a.8.8 0 0 0-.082-.305.6.6 0 0 0-.176-.234.4.4 0 0 0-.281-.094.9.9 0 0 0-.375.082q-.175.082-.34.211-.164.13-.305.281a3 3 0 0 0-.246.282l-.117 1.042q.188.27.457.434.27.152.61.152a.57.57 0 0 0 .421-.164q.177-.164.27-.398.105-.246.141-.516.047-.27.047-.468m7.347 1.43q0 .398-.258.784-.246.375-.632.68-.375.293-.809.48a2.1 2.1 0 0 1-.797.176 2.07 2.07 0 0 1-1.113-.304 2.9 2.9 0 0 1-.809-.797 3.9 3.9 0 0 1-.504-1.055 4.2 4.2 0 0 1-.164-1.137q0-.585.164-1.254.165-.667.492-1.23.34-.562.844-.937.516-.376 1.219-.376.399 0 .762.141a1.84 1.84 0 0 1 1.066.961q.164.34.164.762 0 .55-.234 1.031t-.621.832a3.3 3.3 0 0 1-.891.574 3 3 0 0 1-1.031.235q.047.339.269.492a1 1 0 0 0 .551.152 1 1 0 0 0 .457-.117q.223-.117.434-.258.21-.151.41-.27a.86.86 0 0 1 .422-.117q.234 0 .422.153a.49.49 0 0 1 .187.398m-1.898-2.872a.7.7 0 0 0-.082-.316.27.27 0 0 0-.258-.164.67.67 0 0 0-.434.14q-.176.13-.293.34-.117.2-.187.434-.059.234-.07.433.164-.034.386-.093.234-.06.434-.153.21-.105.351-.258a.5.5 0 0 0 .153-.363m9.48 1.09v.61q0 .375-.023.82a9 9 0 0 1-.071.902 4 4 0 0 1-.187.809q-.117.363-.305.597a.59.59 0 0 1-.48.235.45.45 0 0 1-.399-.211 1.7 1.7 0 0 1-.187-.516 4 4 0 0 1-.07-.597v-.481q0-.528.035-1.031.035-.504.035-1.032v-.21q0-.153-.024-.305a.9.9 0 0 0-.082-.27q-.047-.117-.152-.117-.211 0-.34.223-.129.21-.211.504-.081.292-.117.586a13 13 0 0 0-.047.422 7 7 0 0 0-.047.457q-.01.304-.047.667a6 6 0 0 1-.093.75q-.059.375-.164.692a1.6 1.6 0 0 1-.246.504.46.46 0 0 1-.375.2.48.48 0 0 1-.434-.247 1.8 1.8 0 0 1-.223-.574 5 5 0 0 1-.093-.668 16 16 0 0 1-.012-.528v-.386q.012-.187.012-.387v-.27q0-.186-.012-.41 0-.234-.024-.48a4 4 0 0 0-.046-.446 1.1 1.1 0 0 0-.106-.34q-.07-.128-.164-.128-.152 0-.281.199-.129.187-.223.457a4 4 0 0 0-.152.516 2.3 2.3 0 0 0-.047.375v.07q0 .562.07 1.102.07.538.07 1.101 0 .328-.21.61a.7.7 0 0 1-.586.269.57.57 0 0 1-.446-.2 1.8 1.8 0 0 1-.293-.538 4.6 4.6 0 0 1-.187-.715 9 9 0 0 1-.082-.774 26 26 0 0 1-.035-.691v-.469q0-.176-.012-.515 0-.34.012-.739.023-.398.07-.808.047-.422.152-.762.106-.34.27-.55a.54.54 0 0 1 .445-.223.72.72 0 0 1 .492.164q.2.164.2.492a1 1 0 0 1-.012.14q0 .07-.012.13a2.7 2.7 0 0 1 .317-.376q.187-.199.398-.351.223-.165.469-.258a1.2 1.2 0 0 1 .492-.105q.234 0 .422.128.187.13.328.329.141.187.234.41.095.222.129.422.117-.212.281-.422.177-.224.375-.387.2-.165.434-.27.246-.105.504-.105.246 0 .422.176t.304.457q.13.27.2.62.07.34.117.68.047.329.058.622.012.281.012.445m2.473 3.305a.6.6 0 0 1-.07.281.7.7 0 0 1-.188.2.8.8 0 0 1-.246.128.8.8 0 0 1-.27.047q-.176 0-.386-.07a1.4 1.4 0 0 1-.375-.176 1.3 1.3 0 0 1-.282-.27.6.6 0 0 1-.117-.363q0-.316.27-.469a1.05 1.05 0 0 1 .914-.105q.2.059.363.176.176.105.281.27a.6.6 0 0 1 .106.35"/><defs><filter id="a" width="192.093" height="111.073" x=".96" y="6.292" color-interpolation-filters="sRGB" filterUnits="userSpaceOnUse"><feFlood flood-opacity="0" result="BackgroundImageFix"/><feBlend in="SourceGraphic" in2="BackgroundImageFix" result="shape"/><feColorMatrix in="SourceAlpha" result="hardAlpha" values="0 0 0 0 0 0 0 0 0 0 0 0 0 0 0 0 0 0 127 0"/><feOffset dy="4"/><feGaussianBlur stdDeviation="2"/><feComposite in2="hardAlpha" k2="-1" k3="1" operator="arithmetic"/><feColorMatrix values="0 0 0 0 0 0 0 0 0 0 0 0 0 0 0 0 0 0 0.25 0"/><feBlend in2="shape" result="effect1_innerShadow_871_290"/></filter></defs></svg>