<svg xmlns="http://www.w3.org/2000/svg" width="288" height="180" fill="none" viewBox="0 0 288 180"><g filter="url(#a)"><path fill="#f4719c" fill-rule="evenodd" d="M38.622 29.116C32.574 17.442 20.216 10.933 1 1.63c25.231 3.333 41.447 5.793 53.61 18.023 7.888-3.697 17.059-6.883 27.351-9.369C100.087 5.907 121.384 4 145.853 4c74.917 0 144.005 18.852 141.056 52.04 0 16.468-12.787 31.611-38.828 40.651-17.351 6.024-40.324 9.034-70.281 9.034-53.1 2.947-93.26-1.982-118.94-11.39C33.2 84.933 22 71.058 22 56.04c0-9.433 5.887-18.807 16.622-26.925" clip-rule="evenodd"/></g><path fill="#f4719c" d="m1 1.63.13-.99a1 1 0 0 0-.565 1.89zm37.622 27.486.603.798a1 1 0 0 0 .285-1.258zm15.989-9.463-.71.705a1 1 0 0 0 1.134.2zm27.35-9.369-.234-.972zM286.91 56.041l-.996-.089-.004.089zm-38.828 40.65-.328-.945zm-70.281 9.034v-1l-.055.001zM58.86 94.335l.345-.94zM1 1.63l-.436.9c19.3 9.343 31.304 15.723 37.17 27.046l.888-.46.888-.46C33.28 16.631 20.568 9.992 1.436.73zm53.61 18.023.71-.705C42.873 6.432 26.277 3.96 1.13.639L1 1.63l-.131.992c25.317 3.344 41.153 5.792 53.032 17.736zm27.351-9.369-.234-.972c-10.35 2.5-19.585 5.706-27.541 9.436l.425.905.424.906c7.818-3.666 16.925-6.83 27.161-9.303zM145.853 4V3c-24.515 0-45.897 1.91-64.127 6.312l.235.972.235.972C100.218 6.904 121.43 5 145.853 5zm141.056 52.04.996.09c.773-8.705-3.201-16.394-10.592-22.97-7.374-6.56-18.216-12.08-31.413-16.533C219.496 7.72 183.378 3 145.853 3v2c37.392 0 73.276 4.707 99.408 13.522 13.071 4.41 23.631 9.824 30.723 16.133 7.074 6.294 10.63 13.407 9.929 21.297zm-38.828 40.651.328.945c26.228-9.105 39.5-24.512 39.5-41.595h-2c0 15.85-12.302 30.73-38.156 39.706zm-70.281 9.034v1c30.01 0 53.109-3.014 70.609-9.09l-.328-.944-.328-.945c-17.202 5.972-40.049 8.979-69.953 8.979zM58.86 94.335l-.343.939c25.859 9.474 66.172 14.4 119.339 11.449l-.056-.998-.055-.999c-53.033 2.943-93.04-1.987-118.54-11.33zM22 56.04h-1c0 15.634 11.687 29.77 37.517 39.233l.344-.94.344-.938C33.714 84.056 23 70.44 23 56.04zm16.622-26.925-.604-.797C27.155 36.534 21 46.169 21 56.04h2c0-8.994 5.619-18.107 16.225-26.127z"/><path fill="#fff" d="M62.077 37.15q0 .359-.234.624a1.8 1.8 0 0 1-.532.438q-.28.172-.578.375a3 3 0 0 0-.546.437 2 2 0 0 0-.407.532 1.4 1.4 0 0 0-.156.672q0 .327.156.593.157.266.375.532l.5.53q.282.267.5.61.236.329.39.75.157.422.157.984 0 .392-.172.891-.156.484-.437.984a6.5 6.5 0 0 1-.672.97 6.3 6.3 0 0 1-.813.843q-.421.36-.89.578a2 2 0 0 1-.907.234 1.45 1.45 0 0 1-.859-.265q-.375-.266-.375-.797 0-.36.172-.656.172-.313.422-.594t.547-.547q.313-.266.562-.531.25-.266.422-.547.172-.297.172-.625 0-.453-.328-.922a13 13 0 0 0-.703-.984q-.39-.516-.719-1.047a2.1 2.1 0 0 1-.312-1.078q0-.672.359-1.407.36-.75.922-1.359.563-.624 1.265-1.031.704-.406 1.391-.406.547 0 .938.328.39.327.39.89m7.094 8.187q0 .531-.344 1.047-.328.5-.844.906a5 5 0 0 1-1.078.64q-.578.235-1.062.235a2.76 2.76 0 0 1-1.485-.406 3.9 3.9 0 0 1-1.078-1.063 5.2 5.2 0 0 1-.672-1.406 5.6 5.6 0 0 1-.218-1.516q0-.78.218-1.672.219-.89.657-1.64.453-.75 1.125-1.25.687-.5 1.625-.5.53 0 1.015.187a2.45 2.45 0 0 1 1.422 1.282q.219.453.219 1.015 0 .735-.313 1.375a3.6 3.6 0 0 1-.828 1.11q-.516.468-1.187.765a4 4 0 0 1-1.375.313q.061.453.36.656.311.204.733.203.313 0 .61-.156.296-.156.578-.344a7 7 0 0 1 .547-.36 1.15 1.15 0 0 1 .562-.156q.313 0 .563.204t.25.53m-2.531-3.828a.94.94 0 0 0-.11-.422.36.36 0 0 0-.344-.219.9.9 0 0 0-.578.188 1.4 1.4 0 0 0-.39.453 2.6 2.6 0 0 0-.25.578 3 3 0 0 0-.094.578q.219-.047.516-.125.311-.078.578-.203.28-.14.468-.344a.66.66 0 0 0 .204-.484m13.562 4.406q0 .282-.031.734-.015.454-.125.891a2.1 2.1 0 0 1-.344.734q-.234.313-.656.313-.579 0-.89-.375-.314-.375-.298-.938-.5.438-1.14.688a3.4 3.4 0 0 1-1.282.25q-.453 0-.859-.219a2.7 2.7 0 0 1-.719-.562 2.9 2.9 0 0 1-.5-.766 2.2 2.2 0 0 1-.187-.86q0-.75.453-1.312a4.3 4.3 0 0 1 1.14-.953q.673-.405 1.422-.64.766-.235 1.36-.313v-.14a.6.6 0 0 0 .015-.141q0-.485-.265-.782-.266-.296-.75-.297-.39 0-.672.141a3.3 3.3 0 0 0-.531.297q-.25.156-.5.297a1.24 1.24 0 0 1-.563.125.87.87 0 0 1-.594-.219.74.74 0 0 1-.234-.562q0-.516.297-.938.313-.422.766-.703a4 4 0 0 1 1-.453 3.4 3.4 0 0 1 1-.172q.42 0 .843.11.422.093.797.312.375.203.672.515.313.298.5.704.282.578.453 1.234.172.64.266 1.328.093.672.125 1.36.03.671.031 1.312m-2.5-.5-.047-1.062h-.062a.14.14 0 0 0-.063-.016q-.203 0-.515.11-.297.093-.579.28a2.3 2.3 0 0 0-.484.391.7.7 0 0 0-.187.453q0 .219.156.297a.8.8 0 0 0 .36.078q.342 0 .734-.172.39-.187.687-.359m14.281-2.625q0 .797-.03 1.594-.016.796-.079 1.593-.047.689-.125 1.47-.078.78-.25 1.546a9.5 9.5 0 0 1-.453 1.484q-.282.72-.75 1.266a3.4 3.4 0 0 1-1.11.875q-.656.328-1.562.328a3.8 3.8 0 0 1-.953-.14 4.2 4.2 0 0 1-.985-.375 2.9 2.9 0 0 1-.78-.625 1.25 1.25 0 0 1-.313-.844q0-.36.25-.672a.86.86 0 0 1 .672-.297q.25 0 .468.078.236.094.453.203.235.11.438.188.219.093.438.094.578 0 .968-.297.39-.281.625-.735a3.6 3.6 0 0 0 .344-.968q.124-.516.172-.985-.313.36-.735.5-.405.125-.859.125-.828 0-1.406-.281a2.6 2.6 0 0 1-.938-.797 3.6 3.6 0 0 1-.53-1.187 6 6 0 0 1-.173-1.453q0-.485.094-1.094.11-.61.313-1.235.203-.624.5-1.218a5.2 5.2 0 0 1 .718-1.047q.406-.453.906-.735a2.3 2.3 0 0 1 1.125-.28q.594 0 1.047.343.47.344.547.969.172-.33.453-.641a.87.87 0 0 1 .688-.328q.218 0 .36.219.154.219.234.578.093.343.14.765.046.407.063.813.015.39.015.719zm-2.375 1.016q0-.235-.078-.61-.062-.376-.203-.718a2 2 0 0 0-.328-.594q-.203-.25-.484-.25a.94.94 0 0 0-.641.25q-.266.25-.453.61-.188.342-.297.75-.093.39-.094.671 0 .204.031.547.032.344.125.672.11.328.282.562a.54.54 0 0 0 .453.235q.422 0 .734-.203.313-.204.516-.516.219-.312.328-.688t.11-.718m6.407-5.157q0 .844-.079 1.703a23 23 0 0 0-.062 1.704q0 1.11.063 2.218.078 1.11.078 2.235 0 .28-.032.64a2.1 2.1 0 0 1-.156.641 1.2 1.2 0 0 1-.344.5q-.234.204-.625.203-.375 0-.656-.375a3.3 3.3 0 0 1-.453-.922 12 12 0 0 1-.297-1.281q-.11-.703-.172-1.36a98 98 0 0 1-.078-1.218q-.016-.563-.016-.828 0-.297.016-.86.031-.562.11-1.218.078-.657.203-1.328.14-.688.359-1.235.219-.562.516-.906.312-.36.734-.36.344 0 .516.235.187.219.265.547.078.312.094.672.016.344.016.593m3.765-1.437a.65.65 0 0 1-.125.39 1.2 1.2 0 0 1-.297.313q-.187.125-.406.203a1.5 1.5 0 0 1-.406.063.96.96 0 0 1-.547-.157q-.234-.156-.234-.484a.74.74 0 0 1 .109-.406q.125-.187.297-.297.172-.125.39-.188.22-.062.422-.062.297 0 .547.14t.25.485m.125 5.312v.47q0 .233-.015.452-.016.266-.016.719 0 .438-.031.953-.032.516-.11 1.047a4.4 4.4 0 0 1-.218.969 2 2 0 0 1-.422.718.9.9 0 0 1-.64.282.58.58 0 0 1-.5-.235 2.2 2.2 0 0 1-.345-.64 5.4 5.4 0 0 1-.187-.89 17 17 0 0 1-.094-.954q-.03-.468-.031-.86v-1.281q0-.468.031-1 .031-.53.11-1.078a6.4 6.4 0 0 1 .25-1q.171-.453.437-.734a.88.88 0 0 1 .672-.281q.422 0 .64.422.22.42.329.984.109.563.125 1.125.015.546.015.812m6.907-.406q0 .079-.016.172a1 1 0 0 1-.047.156 1.5 1.5 0 0 1-.437.61 1.1 1.1 0 0 1-.704.234q-.609 0-.828-.61a.5.5 0 0 1-.031-.171q0-.11-.016-.219v-.453a.9.9 0 0 0-.109-.344q-.078-.125-.266-.125-.266 0-.515.344a3.8 3.8 0 0 0-.422.797 7 7 0 0 0-.281.937q-.11.485-.11.782 0 .234.032.578.03.328.125.64.093.313.25.547.171.219.437.219a.8.8 0 0 0 .484-.156q.235-.172.454-.391.203-.187.437-.39a.87.87 0 0 1 .563-.204q.39 0 .609.282a.97.97 0 0 1 .234.64q0 .532-.281 1a3.2 3.2 0 0 1-.703.797q-.422.328-.938.516a2.7 2.7 0 0 1-.984.203q-.844 0-1.437-.422a3.3 3.3 0 0 1-.938-1.063 5 5 0 0 1-.516-1.422 7.3 7.3 0 0 1-.156-1.453q0-.796.219-1.718.219-.937.672-1.735a4.3 4.3 0 0 1 1.156-1.328q.719-.531 1.703-.531.609 0 1.047.265.453.267.734.704.297.421.438.953.156.531.156 1.047v.156a1 1 0 0 1-.015.156m7.421 3.219q0 .531-.343 1.047-.328.5-.844.906a5 5 0 0 1-1.078.64q-.579.235-1.063.235a2.76 2.76 0 0 1-1.484-.406 3.9 3.9 0 0 1-1.078-1.063 5.1 5.1 0 0 1-.672-1.406 5.6 5.6 0 0 1-.219-1.516q0-.78.219-1.672a6.1 6.1 0 0 1 .656-1.64q.453-.75 1.125-1.25.687-.5 1.625-.5.531 0 1.016.187a2.46 2.46 0 0 1 1.422 1.282q.218.453.218 1.015 0 .735-.312 1.375a3.6 3.6 0 0 1-.828 1.11 4.4 4.4 0 0 1-1.188.765 4 4 0 0 1-1.375.313q.063.453.36.656.312.204.734.203.312 0 .609-.156t.579-.344q.28-.203.546-.36a1.15 1.15 0 0 1 .563-.156q.313 0 .562.204a.65.65 0 0 1 .25.53m-2.531-3.828a.94.94 0 0 0-.109-.422.36.36 0 0 0-.344-.219.9.9 0 0 0-.578.188 1.4 1.4 0 0 0-.391.453q-.156.266-.25.578a3 3 0 0 0-.093.578q.218-.047.515-.125.312-.078.578-.203.282-.14.469-.344a.66.66 0 0 0 .203-.484m12.641 1.453v.812q0 .5-.031 1.094-.016.594-.094 1.203a5.3 5.3 0 0 1-.25 1.078q-.157.485-.406.797a.79.79 0 0 1-.641.313.6.6 0 0 1-.531-.282 2.2 2.2 0 0 1-.25-.687 5 5 0 0 1-.094-.797v-.64q0-.704.047-1.376t.047-1.374v-.282q0-.202-.032-.406a1.2 1.2 0 0 0-.109-.36q-.062-.155-.203-.156-.282 0-.453.297a2.6 2.6 0 0 0-.281.672q-.11.39-.157.781-.047.375-.062.563a9 9 0 0 0-.063.61q-.015.405-.062.89a9 9 0 0 1-.125 1q-.078.5-.219.922a2.1 2.1 0 0 1-.328.672q-.204.265-.5.265a.64.64 0 0 1-.578-.328 2.4 2.4 0 0 1-.297-.766 6 6 0 0 1-.125-.89 20 20 0 0 1-.016-.703v-.516q.016-.249.016-.516v-.359a10 10 0 0 0-.016-.547 7 7 0 0 0-.031-.64 5 5 0 0 0-.062-.594 1.5 1.5 0 0 0-.141-.453q-.094-.172-.219-.172-.203 0-.375.265-.171.25-.297.61-.125.344-.203.687-.062.344-.062.5v.094q0 .75.093 1.469.094.72.094 1.469 0 .437-.281.812-.282.36-.781.36a.76.76 0 0 1-.594-.266 2.4 2.4 0 0 1-.391-.719 6 6 0 0 1-.25-.953 13 13 0 0 1-.109-1.031 39 39 0 0 1-.047-.922v-.625q0-.234-.016-.688 0-.453.016-.984.031-.53.094-1.078.062-.563.203-1.016.14-.453.359-.734a.73.73 0 0 1 .594-.297q.407 0 .656.219.266.218.266.656 0 .094-.016.188 0 .094-.015.171.171-.25.422-.5.249-.265.531-.468.297-.219.625-.344.328-.14.656-.14.312 0 .563.171t.437.438q.187.25.313.547.124.296.171.562a5 5 0 0 1 .375-.562q.235-.297.5-.516.266-.219.579-.36.327-.14.671-.14.329 0 .563.234.235.235.406.61.172.36.266.828.093.453.156.906.063.438.078.828.016.375.016.594m3.609-5.75a.65.65 0 0 1-.125.39 1.2 1.2 0 0 1-.297.313q-.187.125-.406.203a1.5 1.5 0 0 1-.406.063.96.96 0 0 1-.547-.157q-.234-.156-.234-.484a.74.74 0 0 1 .109-.406 1 1 0 0 1 .297-.297q.172-.125.39-.188.22-.062.422-.062.297 0 .547.14t.25.485m.125 5.312v.47q0 .233-.015.452-.016.266-.016.719 0 .438-.031.953a12 12 0 0 1-.11 1.047 4.4 4.4 0 0 1-.218.969 2 2 0 0 1-.422.718.9.9 0 0 1-.641.282.58.58 0 0 1-.5-.235 2.2 2.2 0 0 1-.344-.64 5.3 5.3 0 0 1-.187-.89 17 17 0 0 1-.094-.954 13 13 0 0 1-.031-.86v-1.281q0-.468.031-1 .031-.53.109-1.078.094-.547.25-1a2.2 2.2 0 0 1 .438-.734.88.88 0 0 1 .672-.281q.422 0 .64.422.22.42.329.984.108.563.125 1.125.015.546.015.812m7.75 3.391q0 .282-.031.734a4.3 4.3 0 0 1-.125.891 2.1 2.1 0 0 1-.344.734q-.234.313-.656.313-.578 0-.891-.375-.312-.375-.297-.938-.5.438-1.14.688-.626.25-1.281.25-.454 0-.86-.219a2.7 2.7 0 0 1-.719-.562 2.9 2.9 0 0 1-.5-.766 2.2 2.2 0 0 1-.187-.86q0-.75.453-1.312a4.3 4.3 0 0 1 1.141-.953q.672-.405 1.422-.64a8.5 8.5 0 0 1 1.359-.313v-.14a.6.6 0 0 0 .016-.141q0-.485-.266-.782-.266-.296-.75-.297-.39 0-.672.141a3.3 3.3 0 0 0-.531.297q-.25.156-.5.297a1.24 1.24 0 0 1-.563.125.87.87 0 0 1-.593-.219.73.73 0 0 1-.235-.562q0-.516.297-.938.313-.422.766-.703a4 4 0 0 1 1-.453 3.4 3.4 0 0 1 1-.172q.422 0 .843.11.423.093.797.312.375.203.672.515.312.298.5.704.282.578.453 1.234.172.64.266 1.328.093.672.125 1.36.031.671.031 1.312m-2.5-.5-.047-1.062h-.062a.14.14 0 0 0-.063-.016q-.203 0-.515.11a2.3 2.3 0 0 0-.578.28 2.3 2.3 0 0 0-.485.391.7.7 0 0 0-.187.453q0 .219.156.297a.8.8 0 0 0 .359.078q.344 0 .735-.172.39-.187.687-.359m13.75-.078q0 .531-.344 1.047-.328.5-.843.906-.5.39-1.078.64-.579.235-1.063.235a2.76 2.76 0 0 1-1.484-.406 3.9 3.9 0 0 1-1.078-1.063 5.1 5.1 0 0 1-.672-1.406 5.6 5.6 0 0 1-.219-1.516q0-.78.219-1.672.218-.89.656-1.64.453-.75 1.125-1.25.687-.5 1.625-.5.531 0 1.016.187a2.45 2.45 0 0 1 1.421 1.282q.219.453.219 1.015 0 .735-.312 1.375a3.7 3.7 0 0 1-.828 1.11 4.4 4.4 0 0 1-1.188.765 4 4 0 0 1-1.375.313q.063.453.359.656.314.204.735.203.312 0 .609-.156t.578-.344q.282-.203.547-.36a1.15 1.15 0 0 1 .563-.156q.312 0 .562.204a.65.65 0 0 1 .25.53m-2.531-3.828a.95.95 0 0 0-.109-.422.36.36 0 0 0-.344-.219.9.9 0 0 0-.578.188 1.4 1.4 0 0 0-.391.453q-.156.266-.25.578a3 3 0 0 0-.094.578q.219-.047.516-.125.312-.078.578-.203.282-.14.469-.344a.66.66 0 0 0 .203-.484m7.734-1.985q0 .454-.312.672a6 6 0 0 1-.672.422q-.375.188-.688.453-.296.266-.296.797a.9.9 0 0 0 .125.484q.14.204.328.376.203.156.437.328t.422.39q.203.219.328.532.141.312.141.765 0 .657-.344 1.297a4.28 4.28 0 0 1-2.031 1.906q-.657.297-1.297.297-.266 0-.531-.047a1.5 1.5 0 0 1-.485-.14 1.04 1.04 0 0 1-.343-.297.9.9 0 0 1-.141-.516q0-.437.172-.672.171-.25.437-.39t.563-.22q.312-.077.578-.187.266-.124.437-.312.172-.187.172-.531 0-.33-.265-.672-.25-.36-.563-.75a8 8 0 0 1-.578-.86 2.03 2.03 0 0 1-.25-1q0-.671.266-1.234.28-.578.734-1 .47-.422 1.063-.656.593-.25 1.25-.25.25 0 .484.047.25.046.437.172a.8.8 0 0 1 .297.312.85.85 0 0 1 .125.484m4.266 9.157q-1.11 0-1.734-.297a2 2 0 0 1-.922-.813q-.297-.531-.36-1.281-.062-.75-.062-1.672 0-.735.047-1.469.047-.75.14-1.593-.219 0-.343.015h-.204q-.5 0-.859-.218-.375-.219-.375-.672 0-.282.219-.5.203-.219.531-.375.328-.157.703-.25.39-.094.735-.125 0-.438.062-.97.063-.53.219-.983.171-.469.453-.782a.92.92 0 0 1 .719-.312q.25 0 .437.156.204.141.328.375.125.22.188.5.062.282.062.547 0 .313-.047.64a8 8 0 0 1-.171.813q.265-.03.359-.031.094-.015.172-.016.265 0 .547.047.297.047.531.156.25.11.406.297a.6.6 0 0 1 .156.422.67.67 0 0 1-.234.5q-.219.218-.562.375a4 4 0 0 1-.735.25q-.39.078-.734.11-.094.64-.141 1.187-.031.53-.078 1.078-.032.266-.062.547a9 9 0 0 0 0 1.031q.015.266.109.516.093.25.297.437.203.172.562.172.219 0 .453-.031.235-.047.469-.047.407 0 .578.281.188.282.188.719a.9.9 0 0 1-.203.578 1.35 1.35 0 0 1-.485.375 2.6 2.6 0 0 1-.672.234 3.2 3.2 0 0 1-.687.079m4.937-11.47a.64.64 0 0 1-.125.392 1.2 1.2 0 0 1-.296.312 2 2 0 0 1-.407.203 1.5 1.5 0 0 1-.406.063.96.96 0 0 1-.547-.157q-.234-.156-.234-.484a.74.74 0 0 1 .109-.406 1 1 0 0 1 .297-.297 1.2 1.2 0 0 1 .391-.188q.218-.062.422-.062.296 0 .546.14t.25.485m.125 5.313v.47q0 .233-.015.452-.016.266-.016.719 0 .438-.031.953-.031.516-.109 1.047a4.4 4.4 0 0 1-.219.969 2 2 0 0 1-.422.718.9.9 0 0 1-.641.282.58.58 0 0 1-.5-.235 2.2 2.2 0 0 1-.343-.64 5.3 5.3 0 0 1-.188-.89 17 17 0 0 1-.094-.954 13 13 0 0 1-.031-.86v-1.281q0-.468.031-1 .032-.53.11-1.078a6 6 0 0 1 .25-1q.171-.453.437-.734a.88.88 0 0 1 .672-.281q.422 0 .641.422.218.42.328.984.109.563.125 1.125.015.546.015.812m7.844 0a80 80 0 0 1-.89 2.25q-.484 1.172-1.047 2.188-.345.625-.766 1.047-.422.405-.969.406-.437 0-.859-.437a6.7 6.7 0 0 1-.766-1.063 14 14 0 0 1-.609-1.25 22 22 0 0 1-.375-1.016 39 39 0 0 0-.281-.906 15 15 0 0 1-.282-.984 12 12 0 0 1-.203-.985 6 6 0 0 1-.078-.937q0-.61.219-1t.859-.39q.25 0 .453.155.204.141.375.407.172.265.329.625.156.343.296.765.141.407.266.844.125.438.25.844t.25.797q.141.375.359.75l.25-.64.297-.767q.173-.405.36-.828.187-.436.406-.843a8.3 8.3 0 0 1 .891-1.438q.483-.594.953-.594.437 0 .625.266.187.265.187.688 0 .421-.14.953-.141.53-.36 1.093m7.594 2.813q0 .531-.344 1.047-.328.5-.844.906-.5.39-1.078.64-.577.235-1.062.235a2.77 2.77 0 0 1-1.485-.406 3.9 3.9 0 0 1-1.078-1.063 5.2 5.2 0 0 1-.672-1.406 5.6 5.6 0 0 1-.218-1.516q0-.78.218-1.672.219-.89.657-1.64.453-.75 1.125-1.25.687-.5 1.625-.5.53 0 1.015.187a2.46 2.46 0 0 1 1.422 1.282q.219.453.219 1.015 0 .735-.313 1.375a3.6 3.6 0 0 1-.828 1.11 4.4 4.4 0 0 1-1.187.765 4 4 0 0 1-1.375.313q.062.453.359.656.312.204.735.203.312 0 .609-.156t.578-.344q.282-.203.547-.36.281-.155.562-.156a.87.87 0 0 1 .563.204.65.65 0 0 1 .25.53m-2.531-3.828a.94.94 0 0 0-.11-.422.36.36 0 0 0-.343-.219.9.9 0 0 0-.579.188 1.4 1.4 0 0 0-.39.453q-.156.266-.25.578a3 3 0 0 0-.094.578q.219-.047.516-.125.312-.078.578-.203.281-.14.469-.344a.66.66 0 0 0 .203-.484m8.578.765q-.219.015-.375-.03l-.313-.126a3 3 0 0 0-.281-.11.6.6 0 0 0-.313-.046q-.312.015-.562.172a2.2 2.2 0 0 0-.438.39 2.7 2.7 0 0 0-.328.532 3 3 0 0 0-.218.562 4 4 0 0 0-.079.578q-.015.375-.015.813-.016.453-.016.86 0 .405-.031.64-.015.25-.078.593a2.6 2.6 0 0 1-.203.626 1.4 1.4 0 0 1-.344.5.8.8 0 0 1-.563.203.75.75 0 0 1-.468-.157 1.4 1.4 0 0 1-.328-.406 3.7 3.7 0 0 1-.219-.61 8 8 0 0 1-.125-.702q-.046-.375-.078-.75-.016-.375-.032-.703v-.626a8 8 0 0 0 .016-.453q-.015-.546-.062-1.093a20 20 0 0 1-.032-1.11q0-.343.032-.765.03-.422.171-.782.141-.375.407-.625.28-.25.765-.25.265 0 .453.172.187.173.297.422.125.25.188.531t.078.516q.375-.609.844-.984.468-.39 1.218-.422.375-.016.735.078.375.078.672.281.312.188.5.5.203.313.218.734.031.502-.296.766a1.3 1.3 0 0 1-.797.281m11.734 3.641q0 .282-.031.734a4.3 4.3 0 0 1-.125.891 2.1 2.1 0 0 1-.344.734q-.234.313-.656.313-.578 0-.891-.375-.312-.375-.297-.938-.5.438-1.14.688-.625.25-1.282.25-.453 0-.859-.219a2.7 2.7 0 0 1-.719-.562 2.9 2.9 0 0 1-.5-.766 2.2 2.2 0 0 1-.187-.86q0-.75.453-1.312a4.2 4.2 0 0 1 1.141-.953q.672-.405 1.421-.64.766-.235 1.36-.313v-.14a.6.6 0 0 0 .015-.141q0-.485-.265-.782-.266-.296-.75-.297-.392 0-.672.141a3.3 3.3 0 0 0-.531.297q-.25.156-.5.297a1.24 1.24 0 0 1-.563.125.87.87 0 0 1-.594-.219.74.74 0 0 1-.234-.562q0-.516.297-.938.313-.422.766-.703a4 4 0 0 1 1-.453 3.4 3.4 0 0 1 1-.172q.422 0 .843.11.423.093.797.312.375.203.672.515.312.298.5.704.282.578.453 1.234.172.64.266 1.328.093.672.125 1.36.031.671.031 1.312m-2.5-.5-.047-1.062h-.062a.14.14 0 0 0-.063-.016q-.203 0-.515.11a2.3 2.3 0 0 0-.579.28 2.3 2.3 0 0 0-.484.391.7.7 0 0 0-.187.453q0 .219.156.297a.8.8 0 0 0 .359.078q.344 0 .735-.172.39-.187.687-.359m6.359-6.766q0 .844-.078 1.703a23 23 0 0 0-.062 1.704q0 1.11.062 2.218.078 1.11.078 2.235 0 .28-.031.64-.031.344-.156.641a1.2 1.2 0 0 1-.344.5q-.234.204-.625.203-.375 0-.656-.375a3.3 3.3 0 0 1-.453-.922 12 12 0 0 1-.297-1.281q-.11-.703-.172-1.36-.047-.67-.078-1.218a36 36 0 0 1-.016-.828q0-.297.016-.86.031-.562.109-1.218.078-.657.203-1.328.141-.688.36-1.235.22-.562.515-.906.314-.36.735-.36.344 0 .515.235.188.219.266.547.078.312.094.672.015.344.015.593m4.829 10.032q-1.11 0-1.735-.297a2 2 0 0 1-.922-.813q-.296-.531-.359-1.281t-.063-1.672q0-.735.047-1.469.047-.75.141-1.593-.219 0-.344.015h-.203q-.5 0-.859-.218-.375-.219-.375-.672a.7.7 0 0 1 .218-.5q.204-.219.532-.375.328-.157.703-.25.39-.094.734-.125 0-.438.063-.97.062-.53.218-.983.172-.469.454-.782a.92.92 0 0 1 .718-.312q.25 0 .438.156.203.141.328.375.125.22.187.5.063.282.063.547 0 .313-.047.64-.046.33-.172.813.266-.03.36-.031a1 1 0 0 1 .171-.016q.267 0 .547.047.297.047.532.156.25.11.406.297a.6.6 0 0 1 .156.422.67.67 0 0 1-.234.5q-.22.218-.563.375a4 4 0 0 1-.734.25 7 7 0 0 1-.735.11q-.093.64-.14 1.187-.031.53-.078 1.078l-.063.547q-.015.266-.015.547 0 .203.015.484.016.266.11.516.093.25.296.437.203.172.563.172.219 0 .453-.031.235-.047.469-.047.406 0 .578.281.187.282.187.719a.9.9 0 0 1-.203.578 1.35 1.35 0 0 1-.484.375 2.6 2.6 0 0 1-.672.234 3.2 3.2 0 0 1-.687.079m9-2.766q0 .282-.032.734-.015.454-.125.891a2.1 2.1 0 0 1-.343.734q-.235.313-.657.313-.578 0-.89-.375-.314-.375-.297-.938a3.8 3.8 0 0 1-1.141.688q-.625.25-1.281.25-.453 0-.859-.219a2.7 2.7 0 0 1-.719-.562 2.9 2.9 0 0 1-.5-.766 2.2 2.2 0 0 1-.188-.86q0-.75.453-1.312a4.3 4.3 0 0 1 1.141-.953q.672-.405 1.422-.64.766-.235 1.359-.313v-.14a.6.6 0 0 0 .016-.141q0-.485-.266-.782-.266-.296-.75-.297-.39 0-.672.141a3.3 3.3 0 0 0-.531.297q-.25.156-.5.297a1.24 1.24 0 0 1-.562.125.87.87 0 0 1-.594-.219.74.74 0 0 1-.234-.562q0-.516.296-.938.313-.422.766-.703a4 4 0 0 1 1-.453 3.4 3.4 0 0 1 1-.172q.422 0 .844.11.422.093.797.312.375.203.672.515.312.298.5.704.28.578.453 1.234.172.64.265 1.328.095.672.125 1.36.032.671.032 1.312m-2.5-.5-.047-1.062h-.063a.14.14 0 0 0-.062-.016q-.204 0-.516.11a2.3 2.3 0 0 0-.578.28 2.3 2.3 0 0 0-.484.391.7.7 0 0 0-.188.453q0 .219.156.297a.8.8 0 0 0 .36.078q.344 0 .734-.172.391-.187.688-.359m5.687 1.875q0 .25-.141.64-.124.391-.328.766-.187.375-.437.64-.25.267-.485.267-.312 0-.312-.313a.9.9 0 0 1 .078-.36q.078-.17.172-.343.093-.157.172-.328a.7.7 0 0 0 .078-.313.9.9 0 0 1-.5.157.78.78 0 0 1-.609-.282.92.92 0 0 1-.25-.625q0-.5.328-.797.328-.312.828-.312.563 0 .984.297t.422.906m8.969-7.766q0 .454-.313.672a6 6 0 0 1-.672.422q-.375.188-.687.453-.297.266-.297.797 0 .282.125.484.14.204.328.376.203.156.438.328t.422.39q.202.219.328.532.14.312.14.765 0 .657-.343 1.297a4.3 4.3 0 0 1-.86 1.125 4.3 4.3 0 0 1-1.172.781 3.1 3.1 0 0 1-1.297.297q-.266 0-.531-.047a1.5 1.5 0 0 1-.484-.14 1.04 1.04 0 0 1-.344-.297.9.9 0 0 1-.141-.516q0-.437.172-.672.173-.25.438-.39t.562-.22q.313-.077.578-.187a1.4 1.4 0 0 0 .438-.312q.172-.187.172-.531 0-.33-.266-.672a14 14 0 0 0-.562-.75 8 8 0 0 1-.578-.86 2.03 2.03 0 0 1-.25-1q0-.671.265-1.234.282-.578.735-1a3.5 3.5 0 0 1 1.062-.656 3.2 3.2 0 0 1 1.25-.25q.25 0 .484.047.25.046.438.172a.8.8 0 0 1 .297.312.86.86 0 0 1 .125.484m3.203-2.312a.65.65 0 0 1-.125.39 1.2 1.2 0 0 1-.297.313q-.187.125-.406.203a1.5 1.5 0 0 1-.406.063.96.96 0 0 1-.547-.157q-.235-.156-.235-.484a.74.74 0 0 1 .11-.406 1 1 0 0 1 .297-.297q.171-.125.39-.188.22-.062.422-.062.297 0 .547.14t.25.485M228 42.52v.47q0 .233-.016.452-.015.266-.015.719 0 .438-.032.953-.03.516-.109 1.047a4.4 4.4 0 0 1-.219.969 2 2 0 0 1-.422.718.9.9 0 0 1-.64.282.58.58 0 0 1-.5-.235 2.2 2.2 0 0 1-.344-.64 5.3 5.3 0 0 1-.187-.89 17 17 0 0 1-.094-.954 13 13 0 0 1-.031-.86V43.27q0-.468.031-1 .031-.53.109-1.078.094-.547.25-1a2.2 2.2 0 0 1 .438-.734.88.88 0 0 1 .672-.281q.421 0 .64.422.219.42.328.984.11.563.125 1.125.016.546.016.812m8.187.266q0 .797-.031 1.594-.015.796-.078 1.593-.047.689-.125 1.47-.078.78-.25 1.546a9.5 9.5 0 0 1-.453 1.484 4.4 4.4 0 0 1-.75 1.266 3.4 3.4 0 0 1-1.109.875q-.657.328-1.563.328-.422 0-.953-.14a4.2 4.2 0 0 1-.984-.375 2.9 2.9 0 0 1-.782-.625 1.25 1.25 0 0 1-.312-.844q0-.36.25-.672a.86.86 0 0 1 .672-.297q.25 0 .468.078.235.094.454.203.234.11.437.188.219.093.438.094.578 0 .968-.297.391-.281.625-.735.235-.437.344-.968.125-.516.172-.985-.312.36-.734.5a3 3 0 0 1-.86.125q-.828 0-1.406-.281a2.6 2.6 0 0 1-.938-.797 3.7 3.7 0 0 1-.531-1.187 6 6 0 0 1-.172-1.453q0-.485.094-1.094a9.3 9.3 0 0 1 .813-2.453q.313-.594.718-1.047a3.6 3.6 0 0 1 .907-.735 2.3 2.3 0 0 1 1.125-.28q.593 0 1.046.343.47.344.547.969.173-.33.453-.641a.87.87 0 0 1 .688-.328q.22 0 .359.219.157.219.235.578.093.343.14.765.047.407.063.813.015.39.015.719zm-2.375 1.016q0-.235-.078-.61a3.3 3.3 0 0 0-.203-.718 2 2 0 0 0-.328-.594q-.203-.25-.484-.25a.94.94 0 0 0-.641.25 2.3 2.3 0 0 0-.453.61q-.187.342-.297.75-.094.39-.094.671 0 .204.032.547.03.344.125.672.109.328.281.562a.53.53 0 0 0 .453.235q.422 0 .734-.203.313-.204.516-.516.219-.312.328-.688t.109-.718m10.125 2.109q0 .282-.031.734-.015.454-.125.891a2.1 2.1 0 0 1-.344.734q-.234.313-.656.313-.578 0-.89-.375-.314-.375-.297-.938-.5.438-1.141.688-.625.25-1.281.25a1.8 1.8 0 0 1-.86-.219 2.7 2.7 0 0 1-.718-.562 2.8 2.8 0 0 1-.5-.766 2.2 2.2 0 0 1-.188-.86q0-.75.453-1.312a4.3 4.3 0 0 1 1.141-.953q.672-.405 1.422-.64a8.5 8.5 0 0 1 1.359-.313v-.14a.6.6 0 0 0 .016-.141q0-.485-.266-.782-.266-.296-.75-.297-.39 0-.672.141a3.3 3.3 0 0 0-.531.297q-.25.156-.5.297a1.24 1.24 0 0 1-.562.125.87.87 0 0 1-.594-.219.74.74 0 0 1-.235-.562q0-.516.297-.938.313-.422.766-.703a4 4 0 0 1 1-.453 3.4 3.4 0 0 1 1-.172q.421 0 .844.11.422.093.797.312.375.203.671.515.313.298.5.704.282.578.454 1.234.172.64.265 1.328.094.672.125 1.36.031.671.031 1.312m-2.5-.5-.046-1.062h-.063a.14.14 0 0 0-.062-.016q-.204 0-.516.11a2.3 2.3 0 0 0-.578.28 2.3 2.3 0 0 0-.485.391.7.7 0 0 0-.187.453q0 .219.156.297a.8.8 0 0 0 .36.078q.344 0 .734-.172.39-.187.687-.359m13.844.5q0 .282-.031.734-.015.454-.125.891a2.1 2.1 0 0 1-.344.734q-.234.313-.656.313-.578 0-.891-.375-.312-.375-.297-.938-.5.438-1.14.688-.625.25-1.281.25a1.8 1.8 0 0 1-.86-.219 2.7 2.7 0 0 1-.719-.562 2.9 2.9 0 0 1-.5-.766 2.2 2.2 0 0 1-.187-.86q0-.75.453-1.312a4.3 4.3 0 0 1 1.141-.953q.672-.405 1.422-.64a8.5 8.5 0 0 1 1.359-.313v-.14a.6.6 0 0 0 .016-.141q0-.485-.266-.782-.266-.296-.75-.297-.39 0-.672.141a3.3 3.3 0 0 0-.531.297q-.25.156-.5.297a1.24 1.24 0 0 1-.563.125.87.87 0 0 1-.593-.219.73.73 0 0 1-.235-.562q0-.516.297-.938.313-.422.766-.703a4 4 0 0 1 1-.453 3.4 3.4 0 0 1 1-.172q.422 0 .843.11.422.093.797.312.375.203.672.515.313.298.5.704.282.578.453 1.234.172.64.266 1.328.093.672.125 1.36.031.671.031 1.312m-2.5-.5-.047-1.062h-.062a.14.14 0 0 0-.063-.016q-.203 0-.515.11a2.3 2.3 0 0 0-.578.28 2.3 2.3 0 0 0-.485.391.7.7 0 0 0-.187.453q0 .219.156.297a.8.8 0 0 0 .359.078q.344 0 .735-.172.39-.187.687-.359m8.016-5.89q0 .453-.313.671a6 6 0 0 1-.672.422q-.375.188-.687.453-.297.266-.297.797 0 .282.125.484.14.204.328.376.203.156.438.328t.422.39q.202.219.328.532.14.312.14.765 0 .657-.343 1.297a4.3 4.3 0 0 1-.86 1.125 4.3 4.3 0 0 1-1.172.781 3.1 3.1 0 0 1-1.297.297q-.266 0-.531-.047a1.5 1.5 0 0 1-.484-.14 1.04 1.04 0 0 1-.344-.297.9.9 0 0 1-.141-.516q0-.437.172-.672.173-.25.438-.39t.562-.22q.313-.077.578-.187a1.4 1.4 0 0 0 .438-.312q.172-.187.172-.531 0-.33-.266-.672a14 14 0 0 0-.562-.75 8 8 0 0 1-.578-.86 2.03 2.03 0 0 1-.25-1q0-.671.265-1.234.282-.578.735-1a3.5 3.5 0 0 1 1.062-.656 3.2 3.2 0 0 1 1.25-.25q.25 0 .484.047.25.046.438.172a.8.8 0 0 1 .297.312.86.86 0 0 1 .125.484M52.593 69.57q-.798 0-1.39-.422a3.7 3.7 0 0 1-1-1.078 5.2 5.2 0 0 1-.61-1.453 6.6 6.6 0 0 1-.203-1.594q0-.828.203-1.703.202-.89.625-1.61.421-.733 1.078-1.187.656-.468 1.562-.468.876 0 1.485.484.624.469 1 1.188.375.703.531 1.546.155.844.11 1.594a8.6 8.6 0 0 1-.266 1.672 5.3 5.3 0 0 1-.61 1.516q-.406.672-1.03 1.093-.626.422-1.485.422m.156-7.062q-.234 0-.422.25-.171.25-.297.61-.11.358-.172.765-.062.39-.062.687 0 .375.062.813.079.437.204.812.125.36.296.61.188.234.422.234.25 0 .422-.234.188-.236.297-.594.11-.36.156-.781.047-.438.047-.813 0-.344-.062-.75a4.3 4.3 0 0 0-.188-.781 1.8 1.8 0 0 0-.297-.594q-.172-.234-.406-.234m9.453.765q-.218.015-.375-.03l-.312-.126a3 3 0 0 0-.282-.11.6.6 0 0 0-.312-.046 1.15 1.15 0 0 0-.563.172 2.2 2.2 0 0 0-.437.39 2.7 2.7 0 0 0-.328.532 3 3 0 0 0-.219.562 4 4 0 0 0-.078.578q-.015.375-.016.813-.015.453-.015.86t-.032.64q-.015.249-.078.594-.062.328-.203.625a1.4 1.4 0 0 1-.344.5.8.8 0 0 1-.562.203.75.75 0 0 1-.469-.157 1.4 1.4 0 0 1-.328-.406 4 4 0 0 1-.219-.61 8 8 0 0 1-.125-.702q-.047-.375-.078-.75-.015-.375-.031-.703v-.625q.015-.282.016-.454a19 19 0 0 0-.063-1.093q-.03-.562-.031-1.11 0-.343.031-.765.03-.422.172-.782.14-.375.406-.625.282-.25.766-.25.266 0 .453.172.187.173.297.422.125.25.187.531.063.282.078.516.375-.609.844-.984.47-.39 1.219-.422.375-.016.734.078.375.078.672.281.313.188.5.5.204.313.219.734.03.502-.297.766-.328.266-.797.281m3.906-5.062a.65.65 0 0 1-.125.39 1.2 1.2 0 0 1-.297.313 2 2 0 0 1-.406.203 1.5 1.5 0 0 1-.406.063.96.96 0 0 1-.547-.157q-.234-.156-.234-.484a.74.74 0 0 1 .11-.406q.123-.188.296-.297.173-.125.39-.188.22-.062.422-.062.297 0 .547.14t.25.485m.125 5.312v.47q0 .233-.015.452-.016.266-.016.719 0 .438-.031.953-.031.516-.11 1.047a4.4 4.4 0 0 1-.218.969 2 2 0 0 1-.422.719.9.9 0 0 1-.64.28.58.58 0 0 1-.5-.234 2.2 2.2 0 0 1-.345-.64 5.4 5.4 0 0 1-.187-.89 17 17 0 0 1-.094-.954q-.03-.468-.031-.86v-1.281q0-.468.031-1 .031-.53.11-1.078.093-.547.25-1 .171-.453.437-.734a.9.9 0 0 1 .672-.281q.422 0 .64.422.22.42.329.984.109.562.125 1.125.015.546.015.812m7.657 2.813q0 .531-.344 1.047-.328.5-.844.906-.5.39-1.078.64-.578.235-1.062.235a2.76 2.76 0 0 1-1.485-.406A3.9 3.9 0 0 1 68 67.696a5.2 5.2 0 0 1-.672-1.406 5.6 5.6 0 0 1-.219-1.516q0-.78.22-1.672.218-.89.655-1.64.453-.75 1.125-1.25.688-.5 1.625-.5.532 0 1.016.187a2.45 2.45 0 0 1 1.422 1.282q.219.453.219 1.015 0 .735-.313 1.375a3.6 3.6 0 0 1-.828 1.11q-.516.468-1.187.765a4 4 0 0 1-1.376.313q.063.453.36.656.312.203.734.203.313 0 .61-.156.296-.156.578-.344.281-.203.547-.36a1.15 1.15 0 0 1 .562-.155q.313 0 .563.203t.25.53m-2.532-3.828a.94.94 0 0 0-.109-.422.36.36 0 0 0-.344-.219.9.9 0 0 0-.578.188 1.4 1.4 0 0 0-.39.453 2.6 2.6 0 0 0-.25.578 3 3 0 0 0-.094.578q.218-.047.515-.125.313-.078.578-.203.281-.14.47-.344a.66.66 0 0 0 .202-.484m7.594 7.047q-.266 0-.422-.25a1.7 1.7 0 0 1-.234-.547 4.4 4.4 0 0 1-.11-.625q-.015-.329-.015-.5 0-.469.047-.938l.125-.937q.078-.469.125-.938.062-.469.062-.937 0-.187-.015-.407a1.7 1.7 0 0 0-.079-.406.66.66 0 0 0-.171-.328.44.44 0 0 0-.329-.125q-.14 0-.312.234a3.4 3.4 0 0 0-.328.516q-.14.282-.25.578a1.5 1.5 0 0 0-.094.422v.703q.016.345.016.703v.907q-.015.28-.047.578-.031.296-.094.578-.047.281-.14.547a1.7 1.7 0 0 1-.25.453q-.141.188-.344.312a.9.9 0 0 1-.485.125.7.7 0 0 1-.515-.203 1.5 1.5 0 0 1-.328-.515 3.6 3.6 0 0 1-.188-.72q-.047-.405-.078-.78a18 18 0 0 1-.016-.703q.016-.33.016-.516v-.734q0-.594-.031-1.172-.016-.579-.016-1.157v-.797a4.6 4.6 0 0 1 .125-.937q.11-.468.36-.797.25-.328.734-.328a.6.6 0 0 1 .39.14q.172.141.297.344.14.204.22.438.093.235.14.406.156-.218.36-.422.217-.203.483-.36a2.54 2.54 0 0 1 1.344-.343q.797 0 1.235.39.453.376.656.954.219.562.265 1.219.047.656.047 1.187 0 .266-.047.797-.046.516-.156 1.156-.093.626-.265 1.297a8.6 8.6 0 0 1-.407 1.203 3 3 0 0 1-.562.89q-.313.345-.719.345m6.672.125q-1.11 0-1.734-.297a2 2 0 0 1-.922-.813q-.297-.531-.36-1.281a23 23 0 0 1-.016-3.14q.048-.75.141-1.594-.218 0-.343.015h-.204q-.5 0-.859-.218-.375-.219-.375-.672 0-.282.219-.5.203-.219.531-.375.328-.157.703-.25.39-.094.735-.125 0-.438.062-.97.063-.53.219-.983.171-.469.453-.782a.92.92 0 0 1 .719-.312q.25 0 .437.156.204.141.328.375.125.22.188.5.062.282.062.547 0 .313-.047.64-.046.33-.171.813.265-.03.359-.031.094-.015.172-.016.266 0 .547.047.297.047.531.156.25.11.406.297a.6.6 0 0 1 .156.422.67.67 0 0 1-.234.5 1.9 1.9 0 0 1-.562.375q-.344.157-.735.25-.39.078-.734.11-.095.64-.14 1.187-.033.53-.079 1.078l-.062.547q-.016.266-.016.547 0 .203.016.484.015.266.109.516.095.25.297.437.203.172.562.172.219 0 .453-.031a2.4 2.4 0 0 1 .47-.047q.405 0 .577.281.188.282.188.719a.9.9 0 0 1-.203.578 1.35 1.35 0 0 1-.485.375 2.6 2.6 0 0 1-.672.235q-.36.078-.687.078m9-2.766q0 .282-.031.734-.015.454-.125.891a2.1 2.1 0 0 1-.344.734q-.234.313-.656.313-.58 0-.89-.375-.314-.375-.298-.938-.5.438-1.14.688a3.4 3.4 0 0 1-1.282.25q-.453 0-.859-.219a2.7 2.7 0 0 1-.719-.562 2.9 2.9 0 0 1-.5-.766 2.2 2.2 0 0 1-.187-.86q0-.75.453-1.312a4.3 4.3 0 0 1 1.14-.953q.672-.405 1.422-.64.765-.235 1.36-.313v-.14a.6.6 0 0 0 .015-.141q0-.485-.265-.782-.266-.296-.75-.297-.39 0-.672.141a3.3 3.3 0 0 0-.531.297q-.25.156-.5.297a1.24 1.24 0 0 1-.563.125.87.87 0 0 1-.594-.219.74.74 0 0 1-.234-.562q0-.516.297-.938.312-.422.765-.703a4 4 0 0 1 1-.453 3.4 3.4 0 0 1 1-.172q.423 0 .844.11.422.093.797.312.375.203.672.515.312.298.5.704.282.578.453 1.234.172.64.266 1.328.093.672.125 1.36.03.672.031 1.312m-2.5-.5-.047-1.062h-.062a.14.14 0 0 0-.063-.016q-.203 0-.516.11-.296.094-.578.28a2.3 2.3 0 0 0-.484.391.7.7 0 0 0-.187.453q0 .219.156.297a.8.8 0 0 0 .36.078q.343 0 .733-.172.39-.187.688-.359m8.297 5q0 .453-.219.844t-.562.687q-.345.297-.782.469a2.3 2.3 0 0 1-.859.172q-.312 0-.64-.063a2 2 0 0 1-.594-.187 2 2 0 0 1-.485-.36 1.4 1.4 0 0 1-.328-.546.45.45 0 0 1-.047-.203.55.55 0 0 1 .188-.422.65.65 0 0 1 .422-.172.48.48 0 0 1 .328.11l.297.265q.156.14.375.25.218.125.593.125a1 1 0 0 0 .594-.203.64.64 0 0 0 .281-.547.5.5 0 0 0-.172-.39 1.8 1.8 0 0 0-.375-.282l-.437-.25a.86.86 0 0 1-.328-.266q-.126-.171-.125-.5v-.75a2.2 2.2 0 0 1-1.078-.562 3.5 3.5 0 0 1-.703-1.016 5.3 5.3 0 0 1-.391-1.234 6.7 6.7 0 0 1-.125-1.25q0-.516.094-1.094.093-.578.281-1.14.188-.564.484-1.079.297-.515.688-.906.406-.39.906-.625a2.7 2.7 0 0 1 1.14-.234q.564 0 .985.25t.688.656q.28.406.422.906.14.5.14 1 0 .125-.015.297a.9.9 0 0 1-.047.297q-.125.312-.407.547a1 1 0 0 1-.64.219q-.532 0-.735-.532a1.2 1.2 0 0 1-.047-.36q.016-.233-.015-.437a.84.84 0 0 0-.11-.375q-.093-.156-.328-.156-.28 0-.53.344a3.4 3.4 0 0 0-.438.797q-.187.468-.297.953-.11.468-.11.75 0 .203.032.547.046.328.14.656.11.328.281.563a.58.58 0 0 0 .47.234q.28 0 .515-.172a5 5 0 0 0 .453-.375q.219-.219.438-.39a.77.77 0 0 1 .484-.172.65.65 0 0 1 .531.25q.219.25.219.578 0 .405-.188.78-.187.36-.484.657t-.687.516q-.376.219-.766.312v.094q0 .094-.016.203a.4.4 0 0 1-.047.203q.251.094.547.25.297.172.547.39.25.236.422.5.172.282.172.579m4.5-1.844q-.797 0-1.391-.422a3.7 3.7 0 0 1-1-1.078 5.2 5.2 0 0 1-.609-1.453 6.5 6.5 0 0 1-.203-1.594q0-.828.203-1.703.203-.89.625-1.61.422-.733 1.078-1.187.656-.468 1.563-.468.875 0 1.484.484.625.469 1 1.188.375.703.531 1.546t.11 1.594a8.6 8.6 0 0 1-.266 1.672 5.4 5.4 0 0 1-.609 1.516 3.5 3.5 0 0 1-1.032 1.093q-.624.422-1.484.422m.156-7.062q-.234 0-.422.25-.171.25-.297.61-.11.358-.171.765-.063.39-.063.687 0 .375.063.813.078.437.203.812.124.36.297.61.187.234.421.234.25 0 .422-.234.188-.236.297-.594.11-.36.156-.781.048-.438.047-.813 0-.344-.062-.75a4.3 4.3 0 0 0-.188-.781 1.8 1.8 0 0 0-.297-.594q-.172-.234-.406-.234m3.063-5.032a1 1 0 0 1-.157.5 2.3 2.3 0 0 1-.39.47q-.234.203-.5.343a1.2 1.2 0 0 1-.5.125q-.235 0-.469-.078-.219-.094-.453-.203a4 4 0 0 0-.438-.188 1.1 1.1 0 0 0-.437-.093.64.64 0 0 0-.344.109 5 5 0 0 0-.359.219q-.187.109-.391.203a.8.8 0 0 1-.375.093.49.49 0 0 1-.406-.203.75.75 0 0 1-.156-.437.85.85 0 0 1 .187-.516 1.9 1.9 0 0 1 .469-.437 2.4 2.4 0 0 1 .578-.313q.313-.125.547-.125.266 0 .453.11.203.11.375.25t.344.25q.188.11.437.109a.7.7 0 0 0 .375-.11q.188-.124.36-.265.187-.156.343-.266a.6.6 0 0 1 .36-.125q.219 0 .375.188a.58.58 0 0 1 .172.39m7.515 8.86q0 .531-.343 1.047-.328.5-.844.906-.5.39-1.078.64-.579.235-1.063.235a2.76 2.76 0 0 1-1.484-.406 3.9 3.9 0 0 1-1.078-1.063 5.1 5.1 0 0 1-.672-1.406 5.6 5.6 0 0 1-.219-1.516q0-.78.219-1.672a6.1 6.1 0 0 1 .656-1.64q.453-.75 1.125-1.25.687-.5 1.625-.5.531 0 1.016.187.484.173.843.5.36.33.579.782.218.453.218 1.015 0 .735-.312 1.375a3.7 3.7 0 0 1-.828 1.11 4.4 4.4 0 0 1-1.188.765 4 4 0 0 1-1.375.313q.063.453.36.656.312.203.734.203.312 0 .609-.156t.578-.344q.282-.203.547-.36a1.15 1.15 0 0 1 .563-.155q.312 0 .562.203a.65.65 0 0 1 .25.53m-2.531-3.828a.94.94 0 0 0-.109-.422.36.36 0 0 0-.344-.219.9.9 0 0 0-.578.188 1.4 1.4 0 0 0-.391.453q-.156.266-.25.578a3 3 0 0 0-.094.578q.219-.047.516-.125.312-.078.578-.203.282-.14.469-.344a.66.66 0 0 0 .203-.484m7.734-1.985q0 .454-.312.672a6 6 0 0 1-.672.422q-.375.188-.687.453-.297.266-.297.797a.9.9 0 0 0 .125.484q.14.204.328.376.203.156.437.328.235.172.422.39.204.219.328.532.141.312.141.765 0 .657-.344 1.297a4.28 4.28 0 0 1-2.031 1.906q-.657.297-1.297.297-.266 0-.531-.047a1.5 1.5 0 0 1-.485-.14 1.04 1.04 0 0 1-.343-.297.9.9 0 0 1-.141-.516q0-.436.172-.672.171-.25.437-.39t.563-.22q.312-.077.578-.187a1.4 1.4 0 0 0 .438-.312q.171-.188.171-.531 0-.33-.265-.672a14 14 0 0 0-.563-.75 8 8 0 0 1-.578-.86 2.03 2.03 0 0 1-.25-1q0-.671.266-1.234.28-.578.734-1 .47-.422 1.063-.656.593-.25 1.25-.25.25 0 .484.047.25.046.438.172a.8.8 0 0 1 .296.312.85.85 0 0 1 .125.484m11.125-1.687q0 1.14-.093 2.265-.078 1.126-.078 2.266 0 .922.046 1.828.063.907.063 1.828 0 .25-.016.61-.015.344-.109.672a1.3 1.3 0 0 1-.281.562q-.188.234-.547.235a1.01 1.01 0 0 1-.781-.344 1.7 1.7 0 0 1-.375-.797 2.7 2.7 0 0 1-.86.953q-.562.39-1.219.39a1.72 1.72 0 0 1-1.218-.484 4.3 4.3 0 0 1-.844-1.172 7 7 0 0 1-.5-1.437 6.5 6.5 0 0 1-.156-1.297q0-.39.047-.89.046-.501.156-1.016.124-.516.312-1 .188-.5.469-.89a2.4 2.4 0 0 1 .688-.626q.406-.234.921-.234.563 0 1.079.328.515.329.781.812l.14-2.484q.016-.297.047-.687.032-.406.125-.766.11-.36.328-.61.22-.25.641-.25.453 0 .703.22.25.218.36.562.125.328.14.718.031.392.031.735m-2.546 6.937q0-.36-.016-.703a8 8 0 0 1 0-.703 9 9 0 0 0-.219-.437 2 2 0 0 0-.312-.453 1.6 1.6 0 0 0-.391-.36.85.85 0 0 0-.469-.14.6.6 0 0 0-.453.171 1 1 0 0 0-.25.422 2.5 2.5 0 0 0-.109.516 8 8 0 0 0-.016.484q0 .188.031.563.032.36.11.734.093.375.25.656.156.282.422.282.202 0 .406-.078.202-.094.375-.22a3 3 0 0 0 .344-.296q.171-.172.297-.313zm10.218 1.141q0 .282-.031.734-.015.454-.125.891a2.1 2.1 0 0 1-.344.734q-.234.313-.656.313-.578 0-.891-.375-.312-.375-.296-.938-.5.438-1.141.688-.625.25-1.281.25a1.8 1.8 0 0 1-.86-.219 2.7 2.7 0 0 1-.718-.562 2.8 2.8 0 0 1-.5-.766 2.2 2.2 0 0 1-.188-.86q0-.75.453-1.312a4.3 4.3 0 0 1 1.141-.953q.672-.405 1.422-.64a8.5 8.5 0 0 1 1.359-.313v-.14a.6.6 0 0 0 .016-.141q0-.485-.266-.782-.266-.296-.75-.297-.39 0-.672.141a3.3 3.3 0 0 0-.531.297q-.25.156-.5.297a1.24 1.24 0 0 1-.563.125.87.87 0 0 1-.593-.219.73.73 0 0 1-.235-.562q0-.516.297-.938.313-.422.766-.703a4 4 0 0 1 1-.453 3.4 3.4 0 0 1 1-.172q.421 0 .844.11.421.093.796.312.375.203.672.515.313.298.5.704.282.578.453 1.234.173.64.266 1.328.094.672.125 1.36.031.672.031 1.312m-2.5-.5-.047-1.062h-.062a.14.14 0 0 0-.063-.016q-.203 0-.515.11a2.3 2.3 0 0 0-.578.28 2.3 2.3 0 0 0-.485.391.7.7 0 0 0-.187.453q0 .219.156.297a.8.8 0 0 0 .359.078q.344 0 .735-.172.39-.187.687-.359m11.782-5.89q0 .453-.313.671a6 6 0 0 1-.672.422q-.375.188-.687.453-.297.266-.297.797a.9.9 0 0 0 .125.484q.14.204.328.376.203.156.437.328.235.172.422.39.204.219.328.532.141.312.141.765 0 .657-.344 1.297a4.2 4.2 0 0 1-.859 1.125 4.3 4.3 0 0 1-1.172.781q-.656.297-1.297.297-.265 0-.531-.047a1.5 1.5 0 0 1-.484-.14 1.04 1.04 0 0 1-.344-.297.9.9 0 0 1-.141-.516q0-.436.172-.672.172-.25.438-.39.265-.14.562-.22.312-.077.578-.187a1.4 1.4 0 0 0 .438-.312q.171-.188.172-.531 0-.33-.266-.672a14 14 0 0 0-.563-.75 8 8 0 0 1-.578-.86 2.04 2.04 0 0 1-.25-1q0-.671.266-1.234.28-.578.734-1 .47-.422 1.063-.656.594-.25 1.25-.25.25 0 .484.047.25.046.438.172a.8.8 0 0 1 .297.312.86.86 0 0 1 .125.484m7.468 4.124a8.5 8.5 0 0 1-.172 1.704 4.7 4.7 0 0 1-.578 1.515 3.15 3.15 0 0 1-1.093 1.063q-.672.406-1.688.406-1 0-1.672-.39a3.2 3.2 0 0 1-1.078-1.063 4.8 4.8 0 0 1-.562-1.485 9 9 0 0 1-.157-1.687q0-.937.219-1.86.047-.249.172-.687.14-.453.344-.875.218-.438.484-.75.282-.312.609-.312.313 0 .5.171.188.172.297.438.11.25.141.547.031.282.031.515 0 .36-.062.703-.048.345-.11.688l-.125.938a9.5 9.5 0 0 0-.031 1.468q.032.282.125.547.094.266.266.453.172.172.484.172.406 0 .641-.219.25-.218.359-.546a2.6 2.6 0 0 0 .156-.704q.032-.375.032-.687 0-.687-.094-1.344-.094-.671-.172-1.36a1.5 1.5 0 0 1 .062-.687q.078-.234.219-.422.14-.187.344-.297a.85.85 0 0 1 .453-.124q.344 0 .609.25.266.234.438.624.188.375.297.86.125.468.187.937.078.454.094.86.031.405.031.64M164 66.912q0 .282-.031.734a4.3 4.3 0 0 1-.125.891 2.1 2.1 0 0 1-.344.734q-.234.313-.656.313-.579 0-.891-.375t-.297-.938q-.5.438-1.14.688-.625.25-1.282.25-.453 0-.859-.219a2.7 2.7 0 0 1-.719-.562 2.9 2.9 0 0 1-.5-.766 2.2 2.2 0 0 1-.187-.86q0-.75.453-1.312a4.2 4.2 0 0 1 1.141-.953q.67-.405 1.421-.64.766-.235 1.36-.313v-.14a.6.6 0 0 0 .015-.141q0-.485-.265-.782-.266-.296-.75-.297-.391 0-.672.141a3.3 3.3 0 0 0-.531.297q-.25.156-.5.297a1.25 1.25 0 0 1-.563.125.87.87 0 0 1-.594-.219.74.74 0 0 1-.234-.562q0-.516.297-.938.312-.422.766-.703a4 4 0 0 1 1-.453 3.4 3.4 0 0 1 1-.172q.422 0 .843.11.423.093.797.312.375.203.672.515.312.298.5.704.282.578.453 1.234.172.64.266 1.328.093.672.125 1.36.031.672.031 1.312m-2.5-.5-.047-1.062h-.062a.14.14 0 0 0-.063-.016q-.203 0-.515.11a2.3 2.3 0 0 0-.579.28 2.3 2.3 0 0 0-.484.391.7.7 0 0 0-.187.453q0 .219.156.297a.8.8 0 0 0 .359.078q.344 0 .735-.172.39-.187.687-.359m13.75-.078q0 .531-.344 1.047-.328.5-.843.906-.5.39-1.079.64-.577.235-1.062.235a2.76 2.76 0 0 1-1.484-.406 3.9 3.9 0 0 1-1.079-1.063 5.2 5.2 0 0 1-.671-1.406 5.6 5.6 0 0 1-.219-1.516q0-.78.219-1.672.218-.89.656-1.64.453-.75 1.125-1.25.687-.5 1.625-.5.53 0 1.015.187a2.45 2.45 0 0 1 1.422 1.282q.219.453.219 1.015 0 .735-.312 1.375a3.7 3.7 0 0 1-.829 1.11 4.4 4.4 0 0 1-1.187.765 4 4 0 0 1-1.375.313q.063.453.359.656.313.203.735.203.312 0 .609-.156t.578-.344q.282-.203.547-.36a1.15 1.15 0 0 1 .563-.155q.312 0 .562.203a.65.65 0 0 1 .25.53m-2.531-3.828a.94.94 0 0 0-.11-.422.36.36 0 0 0-.343-.219.9.9 0 0 0-.578.188 1.4 1.4 0 0 0-.391.453q-.156.266-.25.578a3 3 0 0 0-.094.578q.219-.047.516-.125.312-.078.578-.203.281-.14.469-.344a.66.66 0 0 0 .203-.484m10.422-.657-.25 2.266q-.126 1.125-.172 2.25a34 34 0 0 0-.063 2.453q.016 1.157.016 2.453 0 .313-.016.766 0 .453-.109.875-.11.421-.359.719-.235.297-.719.297a.62.62 0 0 1-.406-.141 1.4 1.4 0 0 1-.282-.375 3 3 0 0 1-.187-.5 10 10 0 0 1-.11-.578 12 12 0 0 1-.093-1.219V68.15q-.36.469-.938.72-.562.233-1.125.234-.703 0-1.219-.329a3 3 0 0 1-.828-.859 4 4 0 0 1-.484-1.156 5 5 0 0 1-.156-1.219v-.094a6.8 6.8 0 0 1 .25-1.75 6.8 6.8 0 0 1 .734-1.765q.5-.813 1.234-1.344a2.87 2.87 0 0 1 1.735-.547q.531 0 .969.219.453.219.64.718.125-.359.375-.578a.98.98 0 0 1 .672-.234q.516 0 .719.344.219.327.219.734 0 .172-.016.313-.016.14-.031.297m-3.594.376q-.36 0-.672.296a2.7 2.7 0 0 0-.547.703 4 4 0 0 0-.375.876 3.3 3.3 0 0 0-.125.828q0 .218.031.468.048.25.125.485.094.218.235.375a.56.56 0 0 0 .39.14q.204 0 .469-.093.282-.11.547-.266.265-.172.469-.375a1.3 1.3 0 0 0 .281-.39q.046-.11.078-.329.032-.218.047-.453a9 9 0 0 0 .063-.844q0-.187-.094-.422a2 2 0 0 0-.219-.468 1.3 1.3 0 0 0-.328-.375.6.6 0 0 0-.375-.157m11.187 2.421a8.5 8.5 0 0 1-.172 1.704 4.7 4.7 0 0 1-.578 1.515q-.405.657-1.093 1.063-.672.406-1.688.406-1 0-1.672-.39a3.2 3.2 0 0 1-1.078-1.063 4.8 4.8 0 0 1-.562-1.485 9 9 0 0 1-.157-1.687q0-.937.219-1.86.047-.249.172-.687.14-.453.344-.875.219-.438.484-.75.282-.312.609-.312.313 0 .5.171t.297.438q.11.25.141.547.031.282.031.515 0 .36-.062.703-.047.345-.11.688l-.125.938a9.5 9.5 0 0 0-.031 1.468q.032.282.125.547.094.266.266.453.172.172.484.172.406 0 .641-.219.25-.218.359-.546.125-.33.156-.704.032-.375.032-.687 0-.687-.094-1.344-.094-.671-.172-1.36a1.5 1.5 0 0 1 .062-.687q.079-.234.219-.422t.344-.297a.85.85 0 0 1 .453-.124q.343 0 .609.25.266.234.438.624.187.375.297.86.125.468.187.937.079.454.094.86.031.405.031.64m3.532-6.437a.65.65 0 0 1-.125.39 1.2 1.2 0 0 1-.297.313 2 2 0 0 1-.407.203 1.5 1.5 0 0 1-.406.063.97.97 0 0 1-.547-.157q-.234-.156-.234-.484a.74.74 0 0 1 .109-.406q.126-.188.297-.297a1.2 1.2 0 0 1 .391-.188q.219-.062.422-.062.297 0 .547.14t.25.485m.125 5.312v.47q0 .233-.016.452-.016.266-.016.719 0 .438-.031.953-.031.516-.109 1.047a4.4 4.4 0 0 1-.219.969 2 2 0 0 1-.422.719.9.9 0 0 1-.641.28.58.58 0 0 1-.5-.234 2.2 2.2 0 0 1-.343-.64 5.3 5.3 0 0 1-.188-.89 18 18 0 0 1-.094-.954q-.03-.468-.031-.86v-1.281q0-.468.031-1 .032-.53.11-1.078.094-.547.25-1 .171-.453.437-.734a.88.88 0 0 1 .672-.281q.422 0 .641.422.219.42.328.984.11.562.125 1.125.015.546.016.812m8.265.938q0 .687-.156 1.516a5.3 5.3 0 0 1-.5 1.515 3.4 3.4 0 0 1-.922 1.172q-.562.47-1.422.469-.219 0-.453-.031a2.2 2.2 0 0 1-.453-.11 1.6 1.6 0 0 1-.375-.203.9.9 0 0 1-.266-.36l-.14 2.25q-.016.36-.032.86 0 .5-.125.953a1.7 1.7 0 0 1-.39.766q-.266.328-.781.328-.297 0-.5-.313a2.5 2.5 0 0 1-.329-.765 9 9 0 0 1-.171-1.047 14 14 0 0 1-.079-1.11q-.015-.531-.015-.968v-.64q0-1.048-.016-2.079-.015-1.047-.015-2.094v-.578q0-.405.031-.875.031-.468.094-.969.078-.5.218-.906.141-.422.36-.672a.67.67 0 0 1 .531-.265q.203 0 .359.125a.85.85 0 0 1 .282.297q.125.172.203.374.078.204.125.376a3.3 3.3 0 0 1 1.109-.829q.64-.28 1.359-.28.75 0 1.219.421.484.422.75 1.047.282.625.391 1.344.11.702.109 1.28m-2.234-.125q0-.235-.047-.469a1.3 1.3 0 0 0-.141-.453.76.76 0 0 0-.281-.344.76.76 0 0 0-.469-.14q-.375 0-.797.25-.405.234-.609.547-.078.124-.094.406-.015.28-.015.422v.297l.031.359.031.36q.032.17.078.265a.6.6 0 0 0 .203.266q.157.109.344.203.188.093.375.14.204.047.344.047a.65.65 0 0 0 .531-.25q.204-.249.313-.594.125-.343.156-.703.047-.375.047-.61m9.734 2q0 .531-.344 1.047-.328.5-.843.906-.5.39-1.078.64-.579.235-1.063.235a2.76 2.76 0 0 1-1.484-.406 3.9 3.9 0 0 1-1.078-1.063 5.1 5.1 0 0 1-.672-1.406 5.6 5.6 0 0 1-.219-1.516q0-.78.219-1.672a6.1 6.1 0 0 1 .656-1.64q.453-.75 1.125-1.25.687-.5 1.625-.5.531 0 1.016.187.485.173.843.5.36.33.578.782.219.453.219 1.015 0 .735-.312 1.375a3.7 3.7 0 0 1-.828 1.11 4.4 4.4 0 0 1-1.188.765 4 4 0 0 1-1.375.313q.063.453.359.656.314.203.735.203.312 0 .609-.156t.578-.344q.282-.203.547-.36a1.15 1.15 0 0 1 .563-.155q.313 0 .562.203a.65.65 0 0 1 .25.53m-2.531-3.828a.94.94 0 0 0-.109-.422.36.36 0 0 0-.344-.219.9.9 0 0 0-.578.188 1.4 1.4 0 0 0-.391.453q-.156.266-.25.578a3 3 0 0 0-.094.578q.219-.047.516-.125.312-.078.578-.203.282-.14.469-.344a.66.66 0 0 0 .203-.484m13.656-3.672q0 1.14-.094 2.265-.078 1.126-.078 2.266 0 .922.047 1.828.063.907.063 1.828 0 .25-.016.61-.015.344-.109.672a1.3 1.3 0 0 1-.282.562q-.187.234-.546.235-.469 0-.782-.344a1.7 1.7 0 0 1-.375-.797 2.7 2.7 0 0 1-.859.953q-.562.39-1.219.39-.703.001-1.219-.484a4.3 4.3 0 0 1-.843-1.172 7 7 0 0 1-.5-1.437 6.5 6.5 0 0 1-.157-1.297 9.7 9.7 0 0 1 .204-1.906q.125-.516.312-1 .187-.5.469-.89a2.4 2.4 0 0 1 .687-.626 1.8 1.8 0 0 1 .922-.234q.563 0 1.078.328.516.329.782.812l.14-2.484q.016-.297.047-.687.032-.406.125-.766.11-.36.328-.61.22-.25.641-.25.453 0 .703.22.25.218.359.562.126.328.141.718.031.392.031.735m-2.547 6.937q0-.36-.015-.703a8 8 0 0 1 0-.703 9 9 0 0 0-.219-.437 2 2 0 0 0-.313-.453 1.6 1.6 0 0 0-.39-.36.85.85 0 0 0-.469-.14.6.6 0 0 0-.453.171 1 1 0 0 0-.25.422 2.5 2.5 0 0 0-.109.516 8 8 0 0 0-.016.484q0 .188.031.563.032.36.11.734.093.375.25.656.156.282.421.282.203 0 .407-.078.203-.094.375-.22.187-.14.343-.296a7 7 0 0 0 .297-.313zm10.125.563q0 .531-.343 1.047-.328.5-.844.906a5 5 0 0 1-1.078.64q-.579.235-1.063.235a2.76 2.76 0 0 1-1.484-.406 3.9 3.9 0 0 1-1.078-1.063 5.1 5.1 0 0 1-.672-1.406 5.6 5.6 0 0 1-.219-1.516q0-.78.219-1.672a6.1 6.1 0 0 1 .656-1.64q.453-.75 1.125-1.25.687-.5 1.625-.5.531 0 1.016.187.485.173.843.5.36.33.579.782.218.453.218 1.015 0 .735-.312 1.375a3.7 3.7 0 0 1-.828 1.11 4.4 4.4 0 0 1-1.188.765 4 4 0 0 1-1.375.313q.063.453.36.656.312.203.734.203.312 0 .609-.156t.578-.344q.282-.203.547-.36a1.15 1.15 0 0 1 .563-.155q.312 0 .562.203a.65.65 0 0 1 .25.53m-2.531-3.828a.94.94 0 0 0-.109-.422.36.36 0 0 0-.344-.219.9.9 0 0 0-.578.188 1.4 1.4 0 0 0-.391.453q-.156.266-.25.578a3 3 0 0 0-.094.578q.219-.047.516-.125.312-.078.578-.203.282-.14.469-.344a.66.66 0 0 0 .203-.484m11.5-1.985q0 .454-.312.672a6 6 0 0 1-.672.422q-.375.188-.688.453-.297.266-.297.797 0 .283.125.484.14.204.328.376.204.156.438.328t.422.39q.203.219.328.532.141.312.141.765 0 .657-.344 1.297a4.2 4.2 0 0 1-.86 1.125 4.3 4.3 0 0 1-1.171.781q-.657.297-1.297.297-.265 0-.532-.047a1.5 1.5 0 0 1-.484-.14 1.05 1.05 0 0 1-.344-.297.9.9 0 0 1-.14-.516q0-.436.172-.672.171-.25.437-.39t.563-.22q.312-.077.578-.187.266-.124.437-.312.172-.188.172-.531 0-.33-.266-.672a14 14 0 0 0-.562-.75 8 8 0 0 1-.578-.86 2.03 2.03 0 0 1-.25-1q0-.671.265-1.234.282-.578.735-1 .469-.422 1.062-.656a3.2 3.2 0 0 1 1.25-.25q.25 0 .485.047.25.046.437.172a.8.8 0 0 1 .297.312.86.86 0 0 1 .125.484m7.266 6.391q0 .282-.032.734-.015.454-.125.891a2.1 2.1 0 0 1-.343.734q-.235.313-.657.313-.578 0-.89-.375t-.297-.938a3.8 3.8 0 0 1-1.141.688q-.624.25-1.281.25-.453 0-.859-.219a2.7 2.7 0 0 1-.719-.562 2.9 2.9 0 0 1-.5-.766 2.2 2.2 0 0 1-.188-.86q0-.75.454-1.312a4.2 4.2 0 0 1 1.14-.953q.672-.405 1.422-.64.767-.235 1.359-.313v-.14a.6.6 0 0 0 .016-.141q0-.485-.266-.782-.266-.296-.75-.297-.39 0-.671.141a3.3 3.3 0 0 0-.532.297q-.25.156-.5.297a1.24 1.24 0 0 1-.562.125.87.87 0 0 1-.594-.219.74.74 0 0 1-.234-.562q0-.516.297-.938.312-.422.765-.703a4 4 0 0 1 1-.453 3.4 3.4 0 0 1 1-.172q.422 0 .844.11.422.093.797.312.375.203.672.515.312.298.5.704.28.578.453 1.234.172.64.265 1.328.095.672.125 1.36.032.672.032 1.312m-2.5-.5-.047-1.062h-.063a.13.13 0 0 0-.062-.016q-.203 0-.516.11-.296.094-.578.28a2.3 2.3 0 0 0-.484.391.7.7 0 0 0-.188.453q0 .219.156.297a.8.8 0 0 0 .36.078q.344 0 .734-.172.391-.187.688-.359m10.281-1.766a8.5 8.5 0 0 1-.172 1.704 4.7 4.7 0 0 1-.578 1.515 3.14 3.14 0 0 1-1.094 1.063q-.672.406-1.687.406-1 0-1.672-.39a3.2 3.2 0 0 1-1.078-1.063 4.8 4.8 0 0 1-.563-1.485 9 9 0 0 1-.156-1.687q0-.937.219-1.86.046-.249.172-.687.14-.453.343-.875a3.7 3.7 0 0 1 .485-.75q.28-.312.609-.312.312 0 .5.171t.297.438q.11.25.141.547.03.282.031.515 0 .36-.063.703-.046.345-.109.688l-.125.938a9.5 9.5 0 0 0-.031 1.468q.031.282.125.547t.265.453q.172.172.485.172.406 0 .64-.219.25-.218.36-.546a2.6 2.6 0 0 0 .156-.704q.031-.375.031-.687 0-.687-.094-1.344a56 56 0 0 1-.171-1.36 1.5 1.5 0 0 1 .062-.687q.078-.234.219-.422.14-.187.344-.297a.85.85 0 0 1 .453-.124q.344 0 .609.25.266.234.438.624.188.375.296.86.125.468.188.937.078.454.094.86.031.405.031.64m-1.469-7.047q0 .173-.094.344-.093.157-.234.297a2.3 2.3 0 0 1-.281.266q-.156.109-.281.203a7 7 0 0 0-.25.187 3 3 0 0 1-.282.188 3 3 0 0 1-.297.14.7.7 0 0 1-.281.063.4.4 0 0 1-.219-.062.27.27 0 0 1-.093-.22q0-.234.172-.562.188-.344.453-.656.265-.328.562-.547.297-.234.547-.234a.52.52 0 0 1 .391.187q.187.172.187.407m9.156 1.235q0 1.14-.093 2.265-.078 1.126-.078 2.266 0 .922.046 1.828.063.907.063 1.828 0 .25-.016.61-.015.344-.109.672a1.3 1.3 0 0 1-.281.562q-.188.234-.547.235a1.01 1.01 0 0 1-.781-.344 1.7 1.7 0 0 1-.375-.797 2.7 2.7 0 0 1-.86.953q-.562.39-1.219.39a1.72 1.72 0 0 1-1.218-.484 4.3 4.3 0 0 1-.844-1.172 7 7 0 0 1-.5-1.437 6.5 6.5 0 0 1-.156-1.297q0-.39.047-.89.046-.501.156-1.016.125-.516.312-1 .188-.5.469-.89a2.4 2.4 0 0 1 .688-.626q.406-.234.921-.234.563 0 1.079.328.515.329.781.812l.14-2.484q.017-.297.047-.687.032-.406.125-.766.11-.36.328-.61.22-.25.641-.25.453 0 .703.22.25.218.36.562.125.328.14.718.031.392.031.735m-2.546 6.937q0-.36-.016-.703-.015-.343 0-.703a8 8 0 0 0-.219-.437 2 2 0 0 0-.312-.453 1.6 1.6 0 0 0-.391-.36.85.85 0 0 0-.469-.14.6.6 0 0 0-.453.171 1 1 0 0 0-.25.422 2.5 2.5 0 0 0-.109.516 8 8 0 0 0-.016.484q0 .188.031.563.032.36.11.734.094.375.25.656t.422.282q.203 0 .406-.078.202-.094.375-.22a3 3 0 0 0 .344-.296q.171-.172.297-.313zm10.125.563q0 .531-.344 1.047-.328.5-.844.906a5 5 0 0 1-1.078.64q-.578.235-1.063.235a2.76 2.76 0 0 1-1.484-.406 3.9 3.9 0 0 1-1.078-1.063 5.1 5.1 0 0 1-.672-1.406 5.6 5.6 0 0 1-.219-1.516q0-.78.219-1.672.22-.89.656-1.64.453-.75 1.125-1.25.688-.5 1.625-.5.532 0 1.016.187a2.46 2.46 0 0 1 1.422 1.282q.219.453.219 1.015a3.1 3.1 0 0 1-.313 1.375 3.6 3.6 0 0 1-.828 1.11 4.4 4.4 0 0 1-1.188.765 4 4 0 0 1-1.375.313q.063.453.36.656.312.203.734.203.313 0 .61-.156.296-.156.578-.344.281-.203.547-.36.281-.155.562-.155.312 0 .563.203t.25.53m-2.532-3.828a.94.94 0 0 0-.109-.422.36.36 0 0 0-.344-.219.9.9 0 0 0-.578.188 1.4 1.4 0 0 0-.391.453q-.156.266-.25.578a3 3 0 0 0-.093.578q.219-.047.515-.125.313-.078.578-.203.282-.14.469-.344a.66.66 0 0 0 .203-.484"/><defs><filter id="a" width="288" height="110.945" x="0" y=".63" color-interpolation-filters="sRGB" filterUnits="userSpaceOnUse"><feFlood flood-opacity="0" result="BackgroundImageFix"/><feBlend in="SourceGraphic" in2="BackgroundImageFix" result="shape"/><feColorMatrix in="SourceAlpha" result="hardAlpha" values="0 0 0 0 0 0 0 0 0 0 0 0 0 0 0 0 0 0 127 0"/><feOffset dy="4"/><feGaussianBlur stdDeviation="2"/><feComposite in2="hardAlpha" k2="-1" k3="1" operator="arithmetic"/><feColorMatrix values="0 0 0 0 0 0 0 0 0 0 0 0 0 0 0 0 0 0 0.25 0"/><feBlend in2="shape" result="effect1_innerShadow_1137_1617"/></filter></defs></svg>