<svg xmlns="http://www.w3.org/2000/svg" width="227" height="107" fill="none" viewBox="0 0 227 107"><g filter="url(#a)"><path fill="#f4719c" fill-rule="evenodd" d="M32.236 68.002C10.491 61.029 1 50.738 1 39.599 1 25.894 20.144 12.355 51.812 5.661 67.172 2.414 85.22 1 105.955 1c63.486 0 122.033 13.983 119.534 38.599 0 12.214-10.836 23.446-32.903 30.15-12.033 3.657-27.256 5.816-46.302 6.48-7.491 12.778-18.456 19.358-36.445 29.771 13.192-12.137 21.275-19.962 24.199-29.551l-1.01.001c-44.998 2.186-79.03-1.47-100.792-8.448" clip-rule="evenodd"/></g><path fill="#f4719c" d="m32.236 68.002.306-.952zm19.576-62.34-.206-.98zM225.49 39.598l-.995-.101a1 1 0 0 0-.005.101zm-32.903 30.15.29.958zm-46.302 6.48-.034-1a1 1 0 0 0-.828.494zM109.839 106l-.677-.736a1.001 1.001 0 0 0 1.178 1.602zm24.199-29.551.957.292a1.002 1.002 0 0 0-.959-1.292zm-1.01.001v-1l-.048.001zM1 39.6H0c0 11.832 10.09 22.35 31.931 29.354l.305-.952.306-.952C10.893 60.107 2 50.043 2 39.599zM51.812 5.661l-.206-.978c-15.916 3.364-28.752 8.46-37.637 14.49C5.115 25.184 0 32.257 0 39.6h2c0-6.362 4.457-12.91 13.092-18.77 8.604-5.84 21.174-10.86 36.927-14.19zM105.955 1V0C85.18 0 67.058 1.416 51.605 4.683l.207.978.207.978C67.288 3.412 85.26 2 105.955 2zm119.534 38.599.995.101c.673-6.626-2.796-12.416-9.076-17.306-6.271-4.883-15.475-8.982-26.658-12.284C168.367 3.5 137.756 0 105.955 0v2c31.686 0 62.091 3.491 84.229 10.028 11.076 3.27 20.008 7.282 25.996 11.944 5.979 4.656 8.891 9.843 8.314 15.526zm-32.903 30.15.29.958c22.18-6.74 33.613-18.199 33.613-31.108h-2c0 11.519-10.238 22.523-32.194 29.194zm-46.302 6.48.035 1c19.095-.666 34.412-2.832 46.557-6.522l-.29-.957-.291-.957c-11.92 3.622-27.049 5.774-46.045 6.437zm0 0-.862-.506c-7.337 12.514-18.054 18.975-36.084 29.412l.501.865.501.866c17.948-10.39 29.16-17.088 36.807-30.131zM109.839 106l.677.736c6.589-6.062 11.951-11.09 16.03-15.813 4.087-4.732 6.932-9.207 8.449-14.182l-.957-.292-.956-.292c-1.407 4.614-4.066 8.847-8.05 13.459-3.991 4.62-9.267 9.573-15.87 15.648zm23.189-29.55v1l1.013-.001-.003-1-.002-1-1.008.001zM32.236 68.002l-.305.952c21.923 7.03 56.09 10.683 101.146 8.495l-.049-.999-.048-.999c-44.941 2.183-78.838-1.475-100.438-8.401z"/><path fill="#fff" d="M41.08 31.322q0 .297-.157.578-.156.267-.734.625-.579.36-1.281.688-.704.312-1.36.547-.656.219-.968.218-.219 0-.516-.109a3.6 3.6 0 0 1-1.14-.61 1.6 1.6 0 0 1-.344-.39q-.063-.11-.125-.437a22 22 0 0 1-.094-.766q-.032-.438-.063-.922-.03-.5-.062-.937-.016-.453-.031-.797v-.5q0-.578.03-1.328.048-.75.157-1.5.11-.766.313-1.453.218-.704.578-1.188.109-.141.437-.297t.766-.297a16 16 0 0 1 1.953-.468q.484-.095.875-.141.39-.063.594-.063.234 0 .437.11a.9.9 0 0 1 .36.265q.156.172.234.391.093.203.094.438 0 .203-.063.343a1.5 1.5 0 0 1-.156.313q-.156.203-.656.484a18 18 0 0 1-2.22 1.047q-.53.219-.75.313-.061.36-.14.734-.062.36-.093.734a9 9 0 0 1 1.093-.468 3.4 3.4 0 0 1 1.157-.22q1.11 0 1.109 1.095a1 1 0 0 1-.11.468 1.1 1.1 0 0 1-.265.36q-.157.156-.375.28l-.406.22a9 9 0 0 1-1.047.468l-1.094.375q-.031.126-.062.282-.032.14-.032.28 0 .22.032.438l.062.438.594-.203q.422-.141.875-.282t.875-.234q.422-.11.625-.11.234 0 .437.11.204.094.344.266.141.156.219.375.093.219.094.437m3.28-8.453a.65.65 0 0 1-.124.39 1.2 1.2 0 0 1-.297.313q-.187.125-.406.203a1.5 1.5 0 0 1-.407.063.96.96 0 0 1-.546-.156q-.235-.156-.235-.485a.74.74 0 0 1 .11-.406 1 1 0 0 1 .296-.297q.172-.125.391-.187.219-.063.422-.063.297 0 .547.14.25.142.25.485m.126 5.313v.468q0 .235-.016.454-.015.265-.015.718 0 .438-.032.953a12 12 0 0 1-.11 1.047 4.4 4.4 0 0 1-.218.969 2 2 0 0 1-.422.719.9.9 0 0 1-.64.281.58.58 0 0 1-.5-.234 2.2 2.2 0 0 1-.344-.641 5.4 5.4 0 0 1-.188-.89 17 17 0 0 1-.093-.954q-.032-.468-.032-.86v-1.28q0-.47.032-1 .03-.532.109-1.078.094-.547.25-1 .172-.454.438-.735a.9.9 0 0 1 .671-.281q.422 0 .641.422t.328.984.125 1.125q.015.547.016.813m3.36 4.765q0 .25-.141.64-.125.391-.329.766-.187.375-.437.641t-.484.266q-.313 0-.313-.313 0-.187.078-.36.078-.17.172-.343a3 3 0 0 0 .172-.328.7.7 0 0 0 .078-.312.9.9 0 0 1-.5.156.79.79 0 0 1-.61-.282.92.92 0 0 1-.25-.625q0-.5.329-.796.328-.313.828-.313.563 0 .984.297t.422.906m11.546-3.828q0 .688-.156 1.516a5.3 5.3 0 0 1-.5 1.515 3.4 3.4 0 0 1-.922 1.172q-.562.47-1.422.469-.219 0-.453-.031a2.2 2.2 0 0 1-.453-.11 1.6 1.6 0 0 1-.375-.203.9.9 0 0 1-.266-.36l-.14 2.25q-.015.36-.032.86 0 .5-.125.953a1.7 1.7 0 0 1-.39.766q-.266.328-.782.328-.296 0-.5-.312a2.5 2.5 0 0 1-.328-.766 9 9 0 0 1-.172-1.047 14 14 0 0 1-.078-1.11q-.015-.53-.015-.968v-.64q0-1.048-.016-2.079-.015-1.047-.016-2.093v-.579q0-.405.032-.875.03-.468.093-.968a5.3 5.3 0 0 1 .22-.907q.14-.421.359-.671a.67.67 0 0 1 .53-.266.56.56 0 0 1 .36.125.86.86 0 0 1 .281.297q.126.172.204.375t.125.375q.484-.547 1.109-.828.64-.282 1.36-.282.75 0 1.218.422.485.422.75 1.047.282.625.39 1.344.11.704.11 1.281m-2.234-.125q0-.234-.047-.469a1.3 1.3 0 0 0-.14-.453.76.76 0 0 0-.282-.343.76.76 0 0 0-.469-.141q-.375 0-.797.25-.406.234-.61.547-.077.124-.093.406-.015.281-.015.422v.297l.03.36.032.358q.03.173.078.266a.6.6 0 0 0 .203.266q.157.109.344.203.188.094.375.14.203.048.344.047a.65.65 0 0 0 .531-.25 1.8 1.8 0 0 0 .313-.593 2.7 2.7 0 0 0 .156-.703q.047-.375.047-.61m9.734 2q0 .531-.344 1.047-.328.5-.844.906-.5.39-1.078.64-.578.235-1.062.235a2.76 2.76 0 0 1-1.484-.406A3.9 3.9 0 0 1 61 32.354a5.2 5.2 0 0 1-.671-1.407 5.6 5.6 0 0 1-.22-1.515q0-.781.22-1.672.218-.89.656-1.64a4.3 4.3 0 0 1 1.125-1.25q.687-.5 1.625-.5.531 0 1.015.187a2.45 2.45 0 0 1 1.422 1.28q.219.454.219 1.017 0 .734-.312 1.375a3.6 3.6 0 0 1-.829 1.109q-.516.469-1.187.765a4 4 0 0 1-1.375.313q.062.452.36.656.311.203.734.203.312 0 .609-.156t.578-.344q.282-.203.547-.359.282-.156.563-.156.312 0 .562.203t.25.531m-2.531-3.828a.94.94 0 0 0-.11-.422.36.36 0 0 0-.343-.219.9.9 0 0 0-.578.188 1.4 1.4 0 0 0-.391.453 2.6 2.6 0 0 0-.25.578 3 3 0 0 0-.094.578q.219-.047.516-.125.311-.078.578-.203.281-.14.469-.344a.66.66 0 0 0 .203-.484m7.734-1.984q0 .453-.312.672a6 6 0 0 1-.672.421q-.376.187-.688.454-.297.265-.297.796 0 .282.125.485.14.203.328.375.204.156.438.328t.422.39q.203.219.328.532.14.312.14.765 0 .657-.343 1.297a4.3 4.3 0 0 1-.86 1.125 4.3 4.3 0 0 1-1.171.781q-.657.297-1.297.297-.265 0-.532-.047a1.5 1.5 0 0 1-.484-.14 1.04 1.04 0 0 1-.344-.297.9.9 0 0 1-.14-.516q0-.436.172-.672a1.2 1.2 0 0 1 .437-.39q.266-.141.563-.219.311-.078.578-.187.266-.126.437-.313.172-.187.172-.531 0-.329-.266-.672-.25-.36-.562-.75a8 8 0 0 1-.578-.86 2.04 2.04 0 0 1-.25-1q0-.671.266-1.234.28-.577.734-1 .469-.422 1.062-.656.594-.25 1.25-.25.25 0 .485.047.25.046.437.172a.8.8 0 0 1 .297.312.86.86 0 0 1 .125.485m5.203 0q0 .453-.312.672a6 6 0 0 1-.672.421q-.376.187-.688.454-.297.265-.297.796 0 .282.126.485.14.203.328.375.202.156.437.328t.422.39q.204.219.328.532.14.312.14.765 0 .657-.343 1.297a4.3 4.3 0 0 1-.86 1.125 4.3 4.3 0 0 1-1.171.781q-.657.297-1.297.297-.266 0-.531-.047a1.5 1.5 0 0 1-.485-.14 1.05 1.05 0 0 1-.344-.297.9.9 0 0 1-.14-.516q0-.436.172-.672.171-.249.437-.39t.563-.219q.311-.078.578-.187.266-.126.437-.313.172-.187.172-.531 0-.329-.265-.672-.25-.36-.563-.75a8 8 0 0 1-.578-.86 2.04 2.04 0 0 1-.25-1q0-.671.266-1.234a3.4 3.4 0 0 1 .734-1q.47-.422 1.063-.656.593-.25 1.25-.25.25 0 .484.047.25.046.437.172a.8.8 0 0 1 .297.312.86.86 0 0 1 .125.485m3.594 9.046q-.797 0-1.39-.421a3.7 3.7 0 0 1-1-1.079 5.2 5.2 0 0 1-.61-1.453 6.6 6.6 0 0 1-.203-1.593q0-.828.203-1.703.204-.89.625-1.61.421-.735 1.078-1.187.657-.47 1.563-.47.875 0 1.484.485.625.47 1 1.188.375.702.531 1.547.156.843.11 1.593a8.6 8.6 0 0 1-.266 1.672 5.3 5.3 0 0 1-.61 1.516q-.405.672-1.03 1.094-.626.42-1.485.421m.156-7.062q-.234 0-.422.25-.171.25-.297.61-.109.358-.171.765-.063.39-.063.688 0 .375.063.812.078.438.203.813.124.36.297.609.187.234.421.234.25 0 .422-.234.188-.234.297-.594.11-.36.156-.781.047-.438.047-.813 0-.344-.062-.75a4.3 4.3 0 0 0-.188-.78 1.8 1.8 0 0 0-.297-.595q-.172-.234-.406-.234m10.672 4.406q0 .282-.031.735a4.3 4.3 0 0 1-.125.89 2.1 2.1 0 0 1-.344.735q-.234.312-.656.312-.578 0-.89-.375t-.298-.937a3.8 3.8 0 0 1-1.14.687 3.4 3.4 0 0 1-1.282.25q-.452 0-.859-.219a2.7 2.7 0 0 1-.719-.562 2.9 2.9 0 0 1-.5-.766 2.2 2.2 0 0 1-.187-.86q0-.75.453-1.312a4.3 4.3 0 0 1 1.14-.953q.673-.406 1.422-.64a8.5 8.5 0 0 1 1.36-.313v-.14a.6.6 0 0 0 .016-.141q0-.484-.266-.781-.265-.297-.75-.297-.39 0-.672.14a3.3 3.3 0 0 0-.531.297q-.25.156-.5.297a1.24 1.24 0 0 1-.563.125.87.87 0 0 1-.594-.219.74.74 0 0 1-.234-.562q0-.515.297-.938.312-.42.766-.703a4 4 0 0 1 1-.453 3.4 3.4 0 0 1 1-.172q.42 0 .843.11.422.093.797.312.375.203.672.516.313.297.5.703.282.578.453 1.234.172.64.266 1.328.093.672.125 1.36.03.672.031 1.312m-2.5-.5-.047-1.062h-.062a.14.14 0 0 0-.063-.016q-.203 0-.515.11-.297.093-.579.28a2.3 2.3 0 0 0-.484.391.7.7 0 0 0-.187.454q0 .218.156.296a.8.8 0 0 0 .36.079q.342 0 .734-.172.39-.188.687-.36m6.36-6.765q0 .843-.079 1.703a23 23 0 0 0-.062 1.703q0 1.11.062 2.219.078 1.11.078 2.234 0 .282-.03.64-.033.344-.157.641a1.2 1.2 0 0 1-.344.5q-.234.204-.625.203-.375 0-.656-.375a3.3 3.3 0 0 1-.453-.922 12 12 0 0 1-.297-1.28q-.11-.705-.172-1.36a98 98 0 0 1-.078-1.219q-.016-.562-.016-.828 0-.296.016-.86.03-.561.11-1.218.078-.656.203-1.328.14-.688.359-1.235.219-.562.516-.906.312-.36.734-.36.344 0 .516.235.186.219.265.547.079.312.094.672.016.344.016.594m4.109 2.922q0 .249-.031.687-.031.422-.094.922a9 9 0 0 1-.188 1 7 7 0 0 1-.265.922q-.157.406-.375.672-.22.25-.5.25-.344 0-.594-.328a3.5 3.5 0 0 1-.406-.86 8.5 8.5 0 0 1-.25-1.172q-.095-.64-.14-1.25a26 26 0 0 1-.063-1.14v-1.516q0-.438.03-.922.048-.484.126-.953.093-.485.266-.875.171-.39.453-.625a1.02 1.02 0 0 1 .703-.25q.375 0 .61.328.249.313.39.828.156.501.218 1.125.08.625.094 1.235.031.593.016 1.109zm-.297 5.937a.9.9 0 0 1-.125.469q-.125.188-.328.312a1.4 1.4 0 0 1-.438.203 1.8 1.8 0 0 1-.468.063q-.344 0-.657-.188-.312-.172-.312-.562 0-.234.125-.422.14-.203.344-.344.202-.14.437-.219.25-.078.469-.078.36 0 .656.188.297.171.297.578m8.594 1.125q-.954 0-1.656-.484a3.8 3.8 0 0 1-1.172-1.266 6.9 6.9 0 0 1-.688-1.875 11.05 11.05 0 0 1 .016-4.453q.249-1.125.75-2.031a4.6 4.6 0 0 1 1.265-1.485q.766-.578 1.829-.578 1.03 0 1.718.563.703.546 1.11 1.437.422.876.593 1.969.188 1.094.188 2.187 0 1.22-.25 2.313a6.2 6.2 0 0 1-.734 1.906q-.485.828-1.235 1.313-.734.484-1.734.484m.187-8.719a.68.68 0 0 0-.515.235q-.204.234-.344.625-.141.375-.203.859-.063.469-.063.953 0 .548.063 1.094.078.547.219.984.14.438.343.703.219.266.516.266.343 0 .547-.344.203-.343.312-.828.126-.484.157-1 .046-.516.046-.86 0-.42-.062-.89a4.2 4.2 0 0 0-.172-.86 2.1 2.1 0 0 0-.328-.671.62.62 0 0 0-.516-.266m16.032-.015q0 1.077-.5 1.937a5.4 5.4 0 0 1-1.329 1.516q.25.375.516.875.265.5.469 1.062.219.547.344 1.11.14.546.14 1.015 0 .5-.25.89-.234.407-.812.407-.485 0-.844-.469a5.8 5.8 0 0 1-.625-1.109q-.266-.656-.5-1.328a8 8 0 0 0-.422-1.078q-.281.093-.547.218-.265.11-.547.22-.015.343-.062.952a6.7 6.7 0 0 1-.172 1.188q-.125.594-.391 1.031-.266.438-.734.438a.9.9 0 0 1-.797-.422 2.9 2.9 0 0 1-.406-1 7 7 0 0 1-.125-1.172 37 37 0 0 1-.016-.953q0-.735.031-1.438.032-.718.032-1.453 0-.672-.032-1.344-.015-.67-.015-1.359v-.39q0-.25.015-.5.031-.267.063-.5.031-.235.109-.376.156-.328.703-.625.563-.297 1.219-.515.672-.235 1.297-.36.64-.14.953-.14.797 0 1.406.297.61.297 1.016.812.407.5.609 1.172.204.657.204 1.39m-2.891.218q0-.406-.188-.609-.187-.219-.609-.219-.312 0-.641.11a4 4 0 0 0-.578.25q.063 1.234.047 2.453.328-.11.672-.282t.625-.421q.297-.25.484-.563a1.37 1.37 0 0 0 .188-.719m9.984 5.22q0 .53-.343 1.046-.328.5-.844.906-.5.39-1.078.64-.579.235-1.063.235a2.76 2.76 0 0 1-1.484-.406 3.9 3.9 0 0 1-1.078-1.062 5.1 5.1 0 0 1-.672-1.407 5.6 5.6 0 0 1-.219-1.515q0-.781.219-1.672t.656-1.64q.453-.751 1.125-1.25.687-.5 1.625-.5.531 0 1.016.187.484.17.843.5.36.328.579.78.218.454.218 1.017 0 .734-.312 1.375a3.7 3.7 0 0 1-.828 1.109 4.4 4.4 0 0 1-1.188.765 4 4 0 0 1-1.375.313q.063.452.36.656.312.203.734.203.312 0 .609-.156t.578-.344q.282-.203.547-.359a1.15 1.15 0 0 1 .563-.156q.313 0 .562.203a.65.65 0 0 1 .25.531m-2.531-3.829a.94.94 0 0 0-.109-.422.36.36 0 0 0-.344-.219.9.9 0 0 0-.578.188 1.4 1.4 0 0 0-.391.453q-.156.266-.25.578a3 3 0 0 0-.094.578q.219-.047.516-.125.312-.078.578-.203.282-.14.469-.344a.66.66 0 0 0 .203-.484m5.734-4.297a.64.64 0 0 1-.125.39 1.2 1.2 0 0 1-.296.313 2 2 0 0 1-.407.203 1.5 1.5 0 0 1-.406.063.96.96 0 0 1-.547-.156q-.234-.156-.234-.485a.74.74 0 0 1 .109-.406 1 1 0 0 1 .297-.297 1.2 1.2 0 0 1 .391-.187 1.5 1.5 0 0 1 .422-.063q.296 0 .546.14.25.142.25.485m.125 5.313v.468q0 .235-.015.454-.016.265-.016.718 0 .438-.031.953a12 12 0 0 1-.109 1.047 4.4 4.4 0 0 1-.219.969 2 2 0 0 1-.422.719.9.9 0 0 1-.641.281.58.58 0 0 1-.5-.234 2.2 2.2 0 0 1-.343-.641 5.3 5.3 0 0 1-.188-.89 17 17 0 0 1-.094-.954 13 13 0 0 1-.031-.86v-1.28q0-.47.031-1 .032-.532.11-1.078a6 6 0 0 1 .25-1q.171-.454.437-.735a.88.88 0 0 1 .672-.281q.422 0 .641.422.218.422.328.984.109.562.125 1.125.015.547.015.813m11.61-4.688q0 1.14-.094 2.266-.078 1.125-.078 2.265 0 .922.047 1.829.062.906.062 1.828 0 .25-.015.609-.016.344-.11.672a1.3 1.3 0 0 1-.281.562q-.187.235-.547.235-.469 0-.781-.344a1.7 1.7 0 0 1-.375-.797 2.7 2.7 0 0 1-.859.953q-.563.39-1.219.39-.703.001-1.219-.484a4.3 4.3 0 0 1-.844-1.171 7 7 0 0 1-.5-1.438 6.5 6.5 0 0 1-.156-1.297 10 10 0 0 1 .203-1.906q.125-.516.313-1 .188-.5.468-.89.297-.392.688-.626a1.8 1.8 0 0 1 .922-.234q.562 0 1.078.328.516.329.781.813l.141-2.485q.015-.297.047-.687.03-.406.125-.766.11-.36.328-.61t.64-.25q.453 0 .704.22.25.218.359.562.124.328.141.719.03.39.031.734m-2.547 6.938q0-.36-.016-.703-.015-.344 0-.704a8 8 0 0 0-.218-.437 2 2 0 0 0-.313-.453 1.6 1.6 0 0 0-.391-.36.85.85 0 0 0-.468-.14.6.6 0 0 0-.453.172 1 1 0 0 0-.25.422 2.5 2.5 0 0 0-.11.515 9 9 0 0 0-.015.485 7.3 7.3 0 0 0 .14 1.296q.094.376.25.657.156.28.422.28.203 0 .406-.077.204-.094.375-.219a3 3 0 0 0 .344-.297q.173-.172.297-.312zm10.219 1.14q0 .282-.032.735-.015.453-.125.89a2.1 2.1 0 0 1-.343.735q-.235.312-.657.312-.578 0-.89-.375t-.297-.937q-.5.436-1.141.687-.624.25-1.281.25-.454 0-.859-.219a2.7 2.7 0 0 1-.719-.562 2.9 2.9 0 0 1-.5-.766 2.2 2.2 0 0 1-.188-.86q0-.75.454-1.312a4.2 4.2 0 0 1 1.14-.953q.672-.406 1.422-.64.766-.235 1.359-.313v-.14a.6.6 0 0 0 .016-.141q0-.484-.266-.781t-.75-.297q-.39 0-.671.14a3.3 3.3 0 0 0-.532.297q-.25.156-.5.297a1.24 1.24 0 0 1-.562.125.87.87 0 0 1-.594-.219.74.74 0 0 1-.234-.562q0-.515.297-.938.312-.42.765-.703a4 4 0 0 1 1-.453 3.4 3.4 0 0 1 1-.172q.422 0 .844.11.422.093.797.312.375.203.672.516.312.297.5.703.28.578.453 1.234.172.64.265 1.328.095.672.125 1.36.032.672.032 1.312m-2.5-.5-.047-1.062h-.063a.14.14 0 0 0-.062-.016q-.204 0-.516.11-.297.093-.578.28a2.3 2.3 0 0 0-.484.391.7.7 0 0 0-.188.454q0 .218.156.296a.8.8 0 0 0 .36.079q.344 0 .734-.172.391-.188.688-.36m14.703-6.234q0 1.296-.063 2.61-.061 1.296-.156 2.593-.015.235-.031.64a14 14 0 0 1-.188 1.782 3.6 3.6 0 0 1-.25.86q-.155.374-.422.609a.85.85 0 0 1-.625.25q-.327 0-.593-.141a1.4 1.4 0 0 1-.422-.36 1.86 1.86 0 0 1-.36-1.124q0-.516.032-1.032.031-.531.093-1.046l-1.546.156q-.048.406-.11.984-.047.563-.219 1.094-.156.515-.484.89t-.906.375a.98.98 0 0 1-.594-.171 1.2 1.2 0 0 1-.375-.407 2.1 2.1 0 0 1-.203-.578 3 3 0 0 1-.063-.594q0-.937.079-1.859a38 38 0 0 0 .125-3.844q0-1 .031-2 .015-.328.015-.765a4 4 0 0 1 .11-.813q.109-.39.344-.656.25-.266.734-.266.672 0 1.016.36.343.343.484.875.141.514.141 1.11v1.046q0 .625-.032 1.234l-.062 1.204 1.672-.25.031-1.516q.015-.75.062-1.5l.032-.766q.015-.405.125-.75.109-.343.359-.562.266-.235.781-.235.438 0 .703.25.282.25.438.61.173.36.234.765.063.406.063.735zm3.609-1.969a.64.64 0 0 1-.125.39 1.2 1.2 0 0 1-.297.313q-.187.125-.406.203a1.5 1.5 0 0 1-.406.063.96.96 0 0 1-.547-.156q-.234-.156-.234-.485a.74.74 0 0 1 .109-.406 1 1 0 0 1 .297-.297q.172-.125.39-.187a1.5 1.5 0 0 1 .422-.063q.298 0 .547.14.25.142.25.485m.125 5.313v.468q0 .235-.015.454-.016.265-.016.718 0 .438-.031.953-.032.516-.11 1.047a4.4 4.4 0 0 1-.218.969 2 2 0 0 1-.422.719.9.9 0 0 1-.641.281.58.58 0 0 1-.5-.234 2.2 2.2 0 0 1-.344-.641 5.3 5.3 0 0 1-.187-.89 17 17 0 0 1-.094-.954 13 13 0 0 1-.031-.86v-1.28q0-.47.031-1 .031-.532.109-1.078.094-.547.25-1a2.2 2.2 0 0 1 .438-.735.88.88 0 0 1 .672-.281q.422 0 .64.422.22.422.329.984.108.562.125 1.125.015.547.015.813m8.266.937q0 .688-.156 1.516a5.3 5.3 0 0 1-.5 1.515q-.345.705-.922 1.172-.562.47-1.422.469-.219 0-.453-.031a2.2 2.2 0 0 1-.453-.11 1.6 1.6 0 0 1-.375-.203.9.9 0 0 1-.266-.36l-.141 2.25q-.015.36-.031.86 0 .5-.125.953a1.7 1.7 0 0 1-.391.766q-.265.328-.781.328-.297 0-.5-.312a2.5 2.5 0 0 1-.328-.766 9 9 0 0 1-.172-1.047 14 14 0 0 1-.078-1.11 35 35 0 0 1-.016-.968v-.64q0-1.048-.015-2.079-.016-1.047-.016-2.093v-.579q0-.405.031-.875.032-.468.094-.968.078-.5.219-.907.14-.421.359-.671a.67.67 0 0 1 .532-.266q.203 0 .359.125a.85.85 0 0 1 .281.297q.126.172.203.375t.125.375q.485-.547 1.11-.828.64-.282 1.359-.282.75 0 1.219.422.485.422.75 1.047.281.625.39 1.344.11.704.11 1.281m-2.235-.125q0-.234-.046-.469a1.3 1.3 0 0 0-.141-.453.77.77 0 0 0-.281-.343.76.76 0 0 0-.469-.141q-.375 0-.797.25a1.74 1.74 0 0 0-.609.547q-.078.124-.094.406-.015.281-.016.422v.297l.032.36q.015.186.031.358.031.173.078.266a.6.6 0 0 0 .203.266q.156.109.344.203t.375.14q.203.048.344.047a.65.65 0 0 0 .531-.25 1.8 1.8 0 0 0 .312-.593q.126-.345.157-.703a5 5 0 0 0 .046-.61m9.735 2q0 .531-.344 1.047-.328.5-.844.906a5 5 0 0 1-1.078.64q-.578.235-1.062.235a2.77 2.77 0 0 1-1.485-.406 3.9 3.9 0 0 1-1.078-1.062 5.2 5.2 0 0 1-.672-1.407 5.6 5.6 0 0 1-.218-1.515q0-.781.218-1.672a6.1 6.1 0 0 1 .657-1.64q.453-.751 1.125-1.25.687-.5 1.625-.5.53 0 1.015.187a2.46 2.46 0 0 1 1.422 1.28q.219.454.219 1.017 0 .734-.313 1.375a3.6 3.6 0 0 1-.828 1.109 4.4 4.4 0 0 1-1.187.765 4 4 0 0 1-1.375.313q.062.452.359.656.312.203.734.203.313 0 .61-.156t.578-.344q.281-.203.547-.359.281-.156.562-.156a.87.87 0 0 1 .563.203q.25.203.25.531m-2.531-3.828a.94.94 0 0 0-.11-.422.36.36 0 0 0-.344-.219.9.9 0 0 0-.578.188 1.4 1.4 0 0 0-.39.453q-.157.266-.25.578a3 3 0 0 0-.094.578q.219-.047.516-.125.312-.078.578-.203a1.6 1.6 0 0 0 .468-.344.66.66 0 0 0 .204-.484m8.578.766q-.219.015-.375-.032l-.313-.125a3 3 0 0 0-.281-.109.6.6 0 0 0-.313-.047q-.312.016-.562.172a2.2 2.2 0 0 0-.438.39 2.7 2.7 0 0 0-.328.532 3 3 0 0 0-.218.562 4 4 0 0 0-.079.579q-.015.375-.015.812a24 24 0 0 0-.016.86q0 .406-.031.64a5 5 0 0 1-.078.594q-.063.328-.203.625a1.4 1.4 0 0 1-.344.5.8.8 0 0 1-.563.203.75.75 0 0 1-.468-.156 1.4 1.4 0 0 1-.328-.407 3.7 3.7 0 0 1-.219-.609 8 8 0 0 1-.125-.703q-.046-.375-.078-.75-.016-.376-.032-.703v-.625q.016-.282.016-.453-.015-.548-.062-1.094a20 20 0 0 1-.032-1.11q0-.343.032-.765.03-.422.171-.781.141-.376.407-.625.28-.25.765-.25.266 0 .453.172.188.172.297.421.125.25.188.532.062.28.078.515.375-.609.844-.984.468-.39 1.218-.422.375-.015.735.078.375.078.672.281.312.188.5.5.203.314.218.735.031.5-.296.765a1.3 1.3 0 0 1-.797.282M78.4 51.994q0 .531-.344 1.047-.328.5-.844.906-.5.39-1.078.64-.578.235-1.062.235a2.76 2.76 0 0 1-1.485-.406 3.9 3.9 0 0 1-1.078-1.062 5.2 5.2 0 0 1-.672-1.407 5.6 5.6 0 0 1-.218-1.515q0-.782.218-1.672.219-.89.657-1.64a4.3 4.3 0 0 1 1.125-1.25q.687-.5 1.625-.5.53 0 1.015.187a2.45 2.45 0 0 1 1.422 1.28q.219.454.219 1.016 0 .735-.313 1.375a3.6 3.6 0 0 1-.828 1.11q-.516.469-1.187.765a4 4 0 0 1-1.375.313q.061.453.36.656.311.203.733.203.313 0 .61-.156.296-.156.578-.344.282-.203.547-.359.281-.156.562-.156.313 0 .563.203t.25.531m-2.531-3.828a.94.94 0 0 0-.11-.422.36.36 0 0 0-.344-.219.9.9 0 0 0-.578.188 1.4 1.4 0 0 0-.39.453q-.156.266-.25.578a3 3 0 0 0-.094.578q.219-.047.516-.125.312-.078.578-.203.28-.14.468-.344a.66.66 0 0 0 .204-.484m7.734-1.984q0 .453-.312.671a6 6 0 0 1-.672.422q-.376.188-.688.453-.297.267-.297.797 0 .282.125.485.14.202.328.375.204.156.438.328t.422.39q.203.219.328.532.14.312.14.765 0 .657-.343 1.297a4.3 4.3 0 0 1-.86 1.125 4.3 4.3 0 0 1-1.172.781q-.656.297-1.296.297-.266 0-.532-.047a1.5 1.5 0 0 1-.484-.14 1.05 1.05 0 0 1-.344-.297.9.9 0 0 1-.14-.516q0-.436.171-.672.172-.249.438-.39t.563-.219q.312-.078.578-.187.266-.126.437-.313.172-.187.172-.531 0-.328-.266-.672-.25-.36-.562-.75a8 8 0 0 1-.578-.86 2.04 2.04 0 0 1-.25-1q0-.671.265-1.234.282-.578.735-1 .468-.422 1.062-.656.594-.25 1.25-.25.25 0 .485.047.25.046.437.172a.8.8 0 0 1 .297.312.86.86 0 0 1 .125.485m4.266 9.156q-1.11 0-1.735-.297a2 2 0 0 1-.922-.812q-.296-.532-.359-1.282-.062-.75-.062-1.672 0-.735.046-1.468.047-.75.141-1.594-.219 0-.344.015h-.203q-.5 0-.86-.218-.374-.219-.374-.672 0-.282.218-.5a1.7 1.7 0 0 1 .532-.375 3.7 3.7 0 0 1 .703-.25 5 5 0 0 1 .734-.125q0-.438.063-.969.062-.531.218-.984.172-.469.454-.782a.92.92 0 0 1 .718-.312q.25 0 .438.156.203.141.328.375.125.22.188.5.062.282.062.547 0 .313-.047.64-.046.33-.172.813.266-.03.36-.031.094-.016.171-.016.267 0 .547.047.297.047.532.156.25.11.406.297a.6.6 0 0 1 .156.422.67.67 0 0 1-.234.5q-.22.219-.563.375-.344.157-.734.25-.39.078-.735.11-.093.64-.14 1.187-.031.532-.078 1.078l-.063.547q-.015.266-.015.547 0 .203.015.484.015.267.11.516.093.25.296.438.203.171.563.171.219 0 .453-.03.234-.048.469-.048.405 0 .578.281.188.282.188.72a.9.9 0 0 1-.204.577 1.35 1.35 0 0 1-.484.375 2.6 2.6 0 0 1-.672.235q-.36.078-.687.078m9-2.766q0 .282-.032.735-.015.453-.125.89a2.1 2.1 0 0 1-.343.735q-.235.312-.657.312-.578 0-.89-.375-.314-.375-.297-.937a3.8 3.8 0 0 1-1.14.687 3.4 3.4 0 0 1-1.282.25q-.453 0-.86-.219a2.7 2.7 0 0 1-.718-.562 2.9 2.9 0 0 1-.5-.766 2.2 2.2 0 0 1-.188-.86q0-.75.453-1.312a4.3 4.3 0 0 1 1.141-.953q.672-.406 1.422-.64.765-.234 1.36-.313v-.14a.6.6 0 0 0 .015-.141q0-.484-.266-.781t-.75-.297q-.39 0-.672.14a3.3 3.3 0 0 0-.53.297q-.25.156-.5.297a1.24 1.24 0 0 1-.563.125.87.87 0 0 1-.594-.219.74.74 0 0 1-.234-.562q0-.515.296-.938.313-.42.766-.703a4 4 0 0 1 1-.453 3.4 3.4 0 0 1 1-.172q.422 0 .844.11.422.093.797.312.375.203.672.516.312.297.5.703.28.578.453 1.234.172.64.265 1.328.095.672.125 1.36.032.672.032 1.312m-2.5-.5-.047-1.062h-.063a.14.14 0 0 0-.062-.016q-.204 0-.516.11-.297.093-.578.28a2.3 2.3 0 0 0-.484.391.7.7 0 0 0-.188.453q0 .219.156.297a.8.8 0 0 0 .36.078q.344 0 .734-.171.39-.187.688-.36m.75-9.125q0 .173-.094.344-.094.156-.235.297a2.3 2.3 0 0 1-.28.265q-.158.11-.282.204a8 8 0 0 0-.25.187 3 3 0 0 1-.281.188 3 3 0 0 1-.297.14.7.7 0 0 1-.281.063.4.4 0 0 1-.22-.063.27.27 0 0 1-.093-.219q0-.234.172-.562.187-.344.453-.656.266-.328.563-.547.297-.235.546-.235.219 0 .391.188.188.172.188.406m13.093 9.625q0 .282-.031.735-.015.453-.125.89a2.1 2.1 0 0 1-.344.735q-.234.312-.656.312-.578 0-.891-.375-.312-.375-.296-.937-.5.436-1.141.687-.626.25-1.281.25a1.8 1.8 0 0 1-.86-.219 2.7 2.7 0 0 1-.718-.562 2.8 2.8 0 0 1-.5-.766 2.2 2.2 0 0 1-.188-.86q0-.75.453-1.312a4.3 4.3 0 0 1 1.141-.953q.672-.406 1.422-.64a8.5 8.5 0 0 1 1.359-.313v-.14a.6.6 0 0 0 .016-.141q0-.484-.266-.781t-.75-.297q-.39 0-.672.14a3.3 3.3 0 0 0-.531.297q-.25.156-.5.297a1.24 1.24 0 0 1-.563.125.87.87 0 0 1-.593-.219.73.73 0 0 1-.235-.562q0-.515.297-.938.313-.42.766-.703a4 4 0 0 1 1-.453 3.4 3.4 0 0 1 1-.172q.421 0 .844.11.421.093.796.312.375.203.672.516.313.297.5.703.282.578.453 1.234.173.64.266 1.328.094.672.125 1.36.031.672.031 1.312m-2.5-.5-.047-1.062h-.062a.14.14 0 0 0-.063-.016q-.203 0-.515.11a2.3 2.3 0 0 0-.578.28 2.3 2.3 0 0 0-.485.391.7.7 0 0 0-.187.453q0 .219.156.297a.8.8 0 0 0 .359.078q.344 0 .735-.171.39-.187.687-.36m.36-7.703a.24.24 0 0 1-.11.203.4.4 0 0 1-.218.063q-.282 0-.594-.172a14 14 0 0 0-.516-.313l-.312-.203a3 3 0 0 1-.313-.25 2 2 0 0 1-.25-.297.7.7 0 0 1-.094-.343q0-.235.172-.407a.54.54 0 0 1 .407-.187q.234 0 .546.219.313.203.594.5.297.297.485.625.203.328.203.562m11.422 1.813q0 .453-.313.671a6 6 0 0 1-.672.422q-.375.188-.687.453-.297.267-.297.797a.9.9 0 0 0 .125.485q.14.202.328.375.203.156.437.328.235.172.422.39.204.219.328.532.141.312.141.765 0 .657-.344 1.297a4.2 4.2 0 0 1-.859 1.125 4.3 4.3 0 0 1-1.172.781q-.656.297-1.297.297-.266 0-.531-.047a1.5 1.5 0 0 1-.484-.14 1.04 1.04 0 0 1-.344-.297.9.9 0 0 1-.141-.516q0-.436.172-.672.172-.249.438-.39.265-.141.562-.219.312-.078.578-.187a1.4 1.4 0 0 0 .438-.313q.171-.187.172-.531 0-.328-.266-.672a14 14 0 0 0-.563-.75 8 8 0 0 1-.578-.86 2.04 2.04 0 0 1-.25-1q0-.671.266-1.234a3.4 3.4 0 0 1 .734-1q.47-.422 1.063-.656.594-.25 1.25-.25.25 0 .484.047.25.046.438.172a.8.8 0 0 1 .297.312.86.86 0 0 1 .125.485m3.593 9.046q-.796 0-1.39-.421a3.7 3.7 0 0 1-1-1.079 5.2 5.2 0 0 1-.61-1.453 6.6 6.6 0 0 1-.203-1.593q0-.828.203-1.704.204-.89.625-1.609.423-.734 1.078-1.187.657-.47 1.563-.47.875 0 1.484.485.625.47 1 1.188.375.702.532 1.547a6.5 6.5 0 0 1 .109 1.593 8.6 8.6 0 0 1-.266 1.672 5.3 5.3 0 0 1-.609 1.516 3.5 3.5 0 0 1-1.031 1.094q-.625.42-1.485.421m.157-7.062q-.235 0-.422.25-.172.25-.297.61-.11.358-.172.765-.063.39-.063.688 0 .374.063.812.078.438.203.813.124.36.297.609.188.234.422.234.25 0 .422-.234.188-.234.297-.594.11-.36.156-.781a8 8 0 0 0 .047-.813q0-.343-.063-.75a4.3 4.3 0 0 0-.187-.78 1.8 1.8 0 0 0-.297-.595q-.172-.234-.406-.234m6.953-2.86q0 .844-.078 1.704-.063.843-.063 1.703 0 1.11.063 2.219.078 1.11.078 2.234 0 .282-.032.64-.03.345-.156.641a1.2 1.2 0 0 1-.344.5q-.234.203-.625.203-.375 0-.656-.375a3.3 3.3 0 0 1-.453-.922 12 12 0 0 1-.297-1.28q-.11-.705-.172-1.36-.046-.672-.078-1.219-.015-.562-.015-.828 0-.296.015-.86.032-.561.11-1.218t.203-1.328q.14-.688.359-1.235.219-.562.516-.906.312-.36.734-.36.344 0 .516.235.187.219.265.547.078.312.094.672.016.344.016.594m4.828 10.032q-1.11 0-1.735-.297a2 2 0 0 1-.921-.812q-.297-.532-.36-1.282a21 21 0 0 1-.062-1.672q0-.735.047-1.468.047-.75.14-1.594-.218 0-.344.015h-.203q-.5 0-.859-.218-.375-.219-.375-.672 0-.282.219-.5a1.7 1.7 0 0 1 .531-.375q.328-.157.703-.25a5 5 0 0 1 .734-.125q0-.438.063-.969t.219-.984q.171-.469.453-.782a.92.92 0 0 1 .719-.312q.25 0 .437.156.204.141.328.375.125.22.188.5.062.282.062.547 0 .313-.047.64-.046.33-.172.813.266-.03.36-.031.094-.016.172-.016.265 0 .547.047.297.047.531.156.25.11.406.297a.6.6 0 0 1 .156.422.67.67 0 0 1-.234.5q-.218.219-.563.375a4 4 0 0 1-.734.25q-.39.078-.734.11-.095.64-.141 1.187-.031.532-.078 1.078l-.063.547q-.015.266-.015.547 0 .203.015.484.016.267.11.516.093.25.297.438.203.171.562.171.219 0 .453-.03.235-.048.469-.048.407 0 .578.281.188.282.188.72a.9.9 0 0 1-.203.577 1.35 1.35 0 0 1-.485.375 2.6 2.6 0 0 1-.672.235 3.2 3.2 0 0 1-.687.078m9-2.766q0 .282-.031.735a4.3 4.3 0 0 1-.125.89 2.1 2.1 0 0 1-.344.735q-.234.312-.656.312-.579 0-.891-.375t-.297-.937q-.5.436-1.141.687-.624.25-1.281.25-.453 0-.859-.219a2.7 2.7 0 0 1-.719-.562 2.9 2.9 0 0 1-.5-.766 2.2 2.2 0 0 1-.187-.86q0-.75.453-1.312a4.2 4.2 0 0 1 1.14-.953q.672-.406 1.422-.64.766-.234 1.36-.313v-.14a.6.6 0 0 0 .015-.141q0-.484-.265-.781-.266-.297-.75-.297-.392 0-.672.14a3.3 3.3 0 0 0-.532.297q-.25.156-.5.297a1.24 1.24 0 0 1-.562.125.87.87 0 0 1-.594-.219.74.74 0 0 1-.234-.562q0-.515.297-.938.312-.42.765-.703a4 4 0 0 1 1-.453 3.4 3.4 0 0 1 1-.172q.423 0 .844.11.422.093.797.312.375.203.672.516.312.297.5.703.28.578.453 1.234.172.64.266 1.328.093.672.125 1.36.03.672.031 1.312m-2.5-.5-.047-1.062h-.063a.13.13 0 0 0-.062-.016q-.202 0-.516.11-.297.093-.578.28a2.3 2.3 0 0 0-.484.391.7.7 0 0 0-.188.453q0 .219.157.297a.8.8 0 0 0 .359.078q.344 0 .734-.171.391-.187.688-.36m5.703 1.953q0 .203-.094.375a.9.9 0 0 1-.25.266q-.14.11-.328.172a1 1 0 0 1-.359.062q-.235 0-.516-.093a1.8 1.8 0 0 1-.5-.235 1.8 1.8 0 0 1-.375-.36.8.8 0 0 1-.156-.484q0-.421.359-.625a1.4 1.4 0 0 1 1.219-.14q.266.078.484.234.236.141.375.36a.8.8 0 0 1 .141.468m2.891 0q0 .203-.094.375a.9.9 0 0 1-.25.266q-.14.11-.328.172a1 1 0 0 1-.36.062q-.234 0-.515-.093a1.8 1.8 0 0 1-.5-.235 1.8 1.8 0 0 1-.375-.36.8.8 0 0 1-.157-.484q0-.421.36-.625.359-.218.734-.218.234 0 .485.078.265.078.484.234.234.141.375.36a.8.8 0 0 1 .141.468m2.89 0q0 .203-.094.375a.85.85 0 0 1-.25.266q-.14.11-.328.172a1 1 0 0 1-.359.062q-.234 0-.516-.093a1.8 1.8 0 0 1-.5-.235 1.8 1.8 0 0 1-.375-.36.8.8 0 0 1-.156-.484q0-.421.359-.625a1.4 1.4 0 0 1 1.219-.14q.266.078.485.234.234.141.375.36.14.203.14.468"/><defs><filter id="a" width="226.567" height="111" x="0" y="0" color-interpolation-filters="sRGB" filterUnits="userSpaceOnUse"><feFlood flood-opacity="0" result="BackgroundImageFix"/><feBlend in="SourceGraphic" in2="BackgroundImageFix" result="shape"/><feColorMatrix in="SourceAlpha" result="hardAlpha" values="0 0 0 0 0 0 0 0 0 0 0 0 0 0 0 0 0 0 127 0"/><feOffset dy="4"/><feGaussianBlur stdDeviation="2"/><feComposite in2="hardAlpha" k2="-1" k3="1" operator="arithmetic"/><feColorMatrix values="0 0 0 0 0 0 0 0 0 0 0 0 0 0 0 0 0 0 0.25 0"/><feBlend in2="shape" result="effect1_innerShadow_1137_1311"/></filter></defs></svg>