<svg width="227" height="107" viewBox="0 0 227 107" fill="none" xmlns="http://www.w3.org/2000/svg">
<g filter="url(#filter0_i_1137_1372)">
<path fill-rule="evenodd" clip-rule="evenodd" d="M32.2364 68.002C10.4914 61.0288 0.999969 50.7375 0.999969 39.599C0.999969 25.894 20.1436 12.3552 51.8123 5.66106C67.1727 2.41416 85.2199 1 105.955 1C169.441 1 227.988 14.9831 225.489 39.599C225.489 51.8131 214.653 63.0447 192.586 69.7498C180.553 73.4059 165.33 75.5652 146.284 76.229C138.793 89.0073 127.828 95.5871 109.839 106C123.031 93.8633 131.114 86.0384 134.038 76.4489C133.703 76.4497 133.366 76.4501 133.028 76.4501C88.0301 78.6358 53.9979 74.9804 32.2364 68.002Z" fill="#F4719C"/>
</g>
<path d="M32.2364 68.002L32.5417 67.0497L32.2364 68.002ZM51.8123 5.66106L51.6055 4.68268L51.8123 5.66106ZM225.489 39.599L224.494 39.498C224.491 39.5316 224.489 39.5653 224.489 39.599H225.489ZM192.586 69.7498L192.876 70.7067L192.586 69.7498ZM146.284 76.229L146.25 75.2297C145.907 75.2416 145.595 75.4278 145.422 75.7233L146.284 76.229ZM109.839 106L109.162 105.264C108.787 105.609 108.731 106.182 109.033 106.593C109.336 107.003 109.899 107.121 110.34 106.866L109.839 106ZM134.038 76.4489L134.995 76.7406C135.087 76.4371 135.03 76.1077 134.841 75.8529C134.652 75.5981 134.353 75.4482 134.036 75.4489L134.038 76.4489ZM133.028 76.4501V75.4501C133.012 75.4501 132.996 75.4505 132.98 75.4513L133.028 76.4501ZM0.999969 39.599H-3.05176e-05C-3.05176e-05 51.432 10.0897 61.9501 31.931 68.9542L32.2364 68.002L32.5417 67.0497C10.893 60.1074 1.99997 50.043 1.99997 39.599H0.999969ZM51.8123 5.66106L51.6055 4.68268C35.6904 8.04684 22.8538 13.1436 13.9688 19.1735C5.11516 25.1822 -3.05176e-05 32.2559 -3.05176e-05 39.599H0.999969H1.99997C1.99997 33.2371 6.45657 26.6889 15.0919 20.8284C23.6959 14.9892 36.2655 9.96946 52.0192 6.63944L51.8123 5.66106ZM105.955 1V0C85.1801 0 67.0578 1.41635 51.6055 4.68268L51.8123 5.66106L52.0192 6.63944C67.2876 3.41198 85.2597 2 105.955 2V1ZM225.489 39.599L226.484 39.7C227.157 33.0745 223.688 27.2836 217.408 22.394C211.137 17.511 201.933 13.4116 190.75 10.1095C168.367 3.50047 137.756 0 105.955 0V1V2C137.641 2 168.046 5.49106 190.184 12.0276C201.26 15.2982 210.192 19.31 216.18 23.9721C222.159 28.6276 225.071 33.8155 224.494 39.498L225.489 39.599ZM192.586 69.7498L192.876 70.7067C215.056 63.9676 226.489 52.5084 226.489 39.599H225.489H224.489C224.489 51.1178 214.251 62.1218 192.295 68.793L192.586 69.7498ZM146.284 76.229L146.319 77.2284C165.414 76.5628 180.731 74.3969 192.876 70.7067L192.586 69.7498L192.295 68.793C180.375 72.4148 165.246 74.5675 146.25 75.2297L146.284 76.229ZM146.284 76.229L145.422 75.7233C138.085 88.2371 127.368 94.6981 109.338 105.135L109.839 106L110.34 106.866C128.288 96.476 139.5 89.7775 147.147 76.7348L146.284 76.229ZM109.839 106L110.516 106.736C117.105 100.674 122.467 95.6456 126.546 90.9229C130.633 86.1908 133.478 81.7159 134.995 76.7406L134.038 76.4489L133.082 76.1572C131.675 80.7714 129.016 85.0037 125.032 89.6156C121.041 94.2369 115.765 99.1892 109.162 105.264L109.839 106ZM133.028 76.4501V77.4501C133.367 77.4501 133.704 77.4497 134.041 77.4489L134.038 76.4489L134.036 75.4489C133.701 75.4497 133.365 75.4501 133.028 75.4501V76.4501ZM32.2364 68.002L31.931 68.9542C53.854 75.9845 88.0211 79.6374 133.077 77.4489L133.028 76.4501L132.98 75.4513C88.039 77.6342 54.1418 73.9764 32.5417 67.0497L32.2364 68.002Z" fill="#F4719C"/>
<path d="M43.767 32.0723C43.7358 32.3431 43.6889 32.6087 43.6264 32.8691C43.5743 33.1296 43.5066 33.3639 43.4233 33.5723C43.34 33.7702 43.2306 33.9264 43.0952 34.041C42.9702 34.166 42.8243 34.2285 42.6577 34.2285C42.491 34.2285 42.34 34.0983 42.2045 33.8379C42.0691 33.5879 41.9389 33.2546 41.8139 32.8379C41.6993 32.4108 41.59 31.9316 41.4858 31.4004C41.392 30.8691 41.3035 30.3327 41.2202 29.791C41.1472 29.2389 41.0847 28.7025 41.0327 28.1816C40.9806 27.6608 40.9389 27.2077 40.9077 26.8223C40.8452 27.2181 40.7722 27.6608 40.6889 28.1504C40.6056 28.64 40.5066 29.14 40.392 29.6504C40.2775 30.1504 40.1525 30.6452 40.017 31.1348C39.8816 31.6139 39.7358 32.0462 39.5795 32.4316C39.4233 32.8066 39.2566 33.1087 39.0795 33.3379C38.9025 33.5671 38.715 33.6816 38.517 33.6816C38.34 33.6816 38.1629 33.5618 37.9858 33.3223C37.8087 33.0827 37.6368 32.7702 37.4702 32.3848C37.3035 31.9889 37.1472 31.5514 37.0014 31.0723C36.8556 30.5931 36.7202 30.1139 36.5952 29.6348C36.4702 29.1452 36.3608 28.6868 36.267 28.2598C36.1733 27.8223 36.1004 27.4577 36.0483 27.166C36.0483 27.3848 36.0431 27.6296 36.0327 27.9004C36.0327 28.1608 36.0327 28.3483 36.0327 28.4629C36.0327 28.515 36.0275 28.6868 36.017 28.9785C36.017 29.2702 36.0014 29.6191 35.9702 30.0254C35.9389 30.4316 35.892 30.8691 35.8295 31.3379C35.767 31.7962 35.6733 32.2233 35.5483 32.6191C35.4337 33.015 35.2879 33.3483 35.1108 33.6191C34.9337 33.89 34.715 34.0358 34.4545 34.0566C34.2462 33.9629 34.0691 33.8066 33.9233 33.5879C33.7879 33.3587 33.6733 33.0931 33.5795 32.791C33.4858 32.4889 33.4129 32.166 33.3608 31.8223C33.3087 31.4785 33.267 31.1452 33.2358 30.8223C33.2045 30.4889 33.1837 30.1816 33.1733 29.9004C33.1733 29.6191 33.1733 29.39 33.1733 29.2129C33.1733 28.9004 33.1889 28.5098 33.2202 28.041C33.2618 27.5618 33.3243 27.0618 33.4077 26.541C33.491 26.0202 33.6004 25.4993 33.7358 24.9785C33.8712 24.4577 34.0327 23.9941 34.2202 23.5879C34.4181 23.1712 34.642 22.8327 34.892 22.5723C35.1525 22.3118 35.4493 22.1816 35.7827 22.1816C35.9389 22.1816 36.1056 22.2702 36.2827 22.4473C36.4597 22.6243 36.6368 22.8587 36.8139 23.1504C36.991 23.4316 37.1629 23.7493 37.3295 24.1035C37.4962 24.4577 37.6525 24.8171 37.7983 25.1816C37.9545 25.5358 38.09 25.8796 38.2045 26.2129C38.3191 26.5358 38.4129 26.8118 38.4858 27.041C38.5691 26.791 38.6733 26.4993 38.7983 26.166C38.9233 25.8327 39.0587 25.4889 39.2045 25.1348C39.3608 24.7702 39.5275 24.416 39.7045 24.0723C39.892 23.7181 40.0847 23.4056 40.2827 23.1348C40.4806 22.8535 40.6785 22.6296 40.8764 22.4629C41.0847 22.2858 41.2931 22.1973 41.5014 22.1973C41.866 22.1973 42.1785 22.3327 42.4389 22.6035C42.6993 22.8743 42.9181 23.2285 43.0952 23.666C43.2722 24.0931 43.4129 24.5775 43.517 25.1191C43.6212 25.6504 43.6993 26.1816 43.7514 26.7129C43.8139 27.2337 43.8504 27.7233 43.8608 28.1816C43.8816 28.64 43.892 29.0098 43.892 29.291C43.892 29.4056 43.892 29.5618 43.892 29.7598C43.892 29.9577 43.8868 30.1816 43.8764 30.4316C43.8764 30.6816 43.866 30.9473 43.8452 31.2285C43.8243 31.5098 43.7983 31.791 43.767 32.0723ZM51.642 31.5723C51.642 31.7598 51.6316 32.0046 51.6108 32.3066C51.6004 32.6087 51.5587 32.9056 51.4858 33.1973C51.4129 33.4785 51.2983 33.7233 51.142 33.9316C50.9858 34.14 50.767 34.2441 50.4858 34.2441C50.1004 34.2441 49.8035 34.1191 49.5952 33.8691C49.3868 33.6191 49.2879 33.3066 49.2983 32.9316C48.965 33.2233 48.5847 33.4525 48.1577 33.6191C47.741 33.7858 47.3139 33.8691 46.8764 33.8691C46.5743 33.8691 46.2879 33.7962 46.017 33.6504C45.7462 33.5046 45.5066 33.3171 45.2983 33.0879C45.09 32.8587 44.9233 32.6035 44.7983 32.3223C44.6733 32.0306 44.6108 31.7441 44.6108 31.4629C44.6108 30.9629 44.7618 30.5254 45.0639 30.1504C45.3764 29.7754 45.7566 29.4577 46.2045 29.1973C46.6525 28.9264 47.1264 28.7129 47.6264 28.5566C48.1368 28.4004 48.59 28.2962 48.9858 28.2441C48.9858 28.1921 48.9858 28.1452 48.9858 28.1035C48.9962 28.0618 49.0014 28.015 49.0014 27.9629C49.0014 27.64 48.9129 27.3796 48.7358 27.1816C48.5587 26.9837 48.3087 26.8848 47.9858 26.8848C47.7254 26.8848 47.5014 26.9316 47.3139 27.0254C47.1264 27.1087 46.9493 27.2077 46.7827 27.3223C46.616 27.4264 46.4493 27.5254 46.2827 27.6191C46.116 27.7025 45.9285 27.7441 45.7202 27.7441C45.491 27.7441 45.2931 27.6712 45.1264 27.5254C44.9702 27.3796 44.892 27.1921 44.892 26.9629C44.892 26.6191 44.991 26.3066 45.1889 26.0254C45.3972 25.7441 45.6525 25.5098 45.9545 25.3223C46.267 25.1243 46.6004 24.9733 46.9545 24.8691C47.3191 24.7546 47.6525 24.6973 47.9545 24.6973C48.2358 24.6973 48.517 24.7337 48.7983 24.8066C49.0795 24.8691 49.3452 24.9733 49.5952 25.1191C49.8452 25.2546 50.0691 25.4264 50.267 25.6348C50.4754 25.8327 50.642 26.0671 50.767 26.3379C50.9545 26.7233 51.1056 27.1348 51.2202 27.5723C51.3347 27.9993 51.4233 28.4421 51.4858 28.9004C51.5483 29.3483 51.59 29.8014 51.6108 30.2598C51.6316 30.7077 51.642 31.1452 51.642 31.5723ZM49.142 31.0723L49.0952 30.0098C49.0743 30.0098 49.0535 30.0098 49.0327 30.0098C49.0118 29.9993 48.991 29.9941 48.9702 29.9941C48.8347 29.9941 48.6629 30.0306 48.4545 30.1035C48.2566 30.166 48.0639 30.2598 47.8764 30.3848C47.6889 30.4993 47.5275 30.6296 47.392 30.7754C47.267 30.9212 47.2045 31.0723 47.2045 31.2285C47.2045 31.3743 47.2566 31.4733 47.3608 31.5254C47.465 31.5775 47.5847 31.6035 47.7202 31.6035C47.9493 31.6035 48.1941 31.5462 48.4545 31.4316C48.715 31.3066 48.9441 31.1868 49.142 31.0723ZM57.1577 25.1816C57.1577 25.4837 57.0535 25.7077 56.8452 25.8535C56.6472 25.9993 56.4233 26.14 56.1733 26.2754C55.9233 26.4004 55.6941 26.5514 55.4858 26.7285C55.2879 26.9056 55.1889 27.1712 55.1889 27.5254C55.1889 27.7129 55.2306 27.8743 55.3139 28.0098C55.4077 28.1452 55.517 28.2702 55.642 28.3848C55.7775 28.4889 55.9233 28.5983 56.0795 28.7129C56.2358 28.8275 56.3764 28.9577 56.5014 29.1035C56.6368 29.2493 56.7462 29.4264 56.8295 29.6348C56.9233 29.8431 56.9702 30.0983 56.9702 30.4004C56.9702 30.8379 56.8556 31.2702 56.6264 31.6973C56.4077 32.1139 56.1212 32.4889 55.767 32.8223C55.4233 33.1452 55.0327 33.4056 54.5952 33.6035C54.1577 33.8014 53.7254 33.9004 53.2983 33.9004C53.1212 33.9004 52.9441 33.8848 52.767 33.8535C52.59 33.8327 52.4285 33.7858 52.2827 33.7129C52.1472 33.64 52.0327 33.541 51.9389 33.416C51.8452 33.2806 51.7983 33.1087 51.7983 32.9004C51.7983 32.6087 51.8556 32.3848 51.9702 32.2285C52.0847 32.0618 52.2306 31.9316 52.4077 31.8379C52.5847 31.7441 52.7722 31.6712 52.9702 31.6191C53.1785 31.5671 53.3712 31.5046 53.5483 31.4316C53.7254 31.3483 53.8712 31.2441 53.9858 31.1191C54.1004 30.9941 54.1577 30.8171 54.1577 30.5879C54.1577 30.3691 54.0691 30.1452 53.892 29.916C53.7254 29.6764 53.5379 29.4264 53.3295 29.166C53.1212 28.8952 52.9285 28.6087 52.7514 28.3066C52.5847 28.0046 52.5014 27.6712 52.5014 27.3066C52.5014 26.8587 52.59 26.4473 52.767 26.0723C52.9545 25.6868 53.1993 25.3535 53.5014 25.0723C53.8139 24.791 54.1681 24.5723 54.5639 24.416C54.9597 24.2493 55.3764 24.166 55.8139 24.166C55.9806 24.166 56.142 24.1816 56.2983 24.2129C56.465 24.2441 56.6108 24.3014 56.7358 24.3848C56.8608 24.4577 56.9597 24.5618 57.0327 24.6973C57.116 24.8223 57.1577 24.9837 57.1577 25.1816ZM67.3452 27.7754C67.3452 27.8275 67.34 27.8848 67.3295 27.9473C67.3191 27.9993 67.3035 28.0514 67.2827 28.1035C67.1889 28.3431 67.0431 28.5462 66.8452 28.7129C66.6472 28.8691 66.4129 28.9473 66.142 28.9473C65.7358 28.9473 65.4597 28.7441 65.3139 28.3379C65.2931 28.2858 65.2827 28.2285 65.2827 28.166C65.2827 28.0931 65.2775 28.0202 65.267 27.9473V27.4941C65.2462 27.3483 65.2097 27.2337 65.1577 27.1504C65.1056 27.0671 65.017 27.0254 64.892 27.0254C64.715 27.0254 64.5431 27.14 64.3764 27.3691C64.2202 27.5879 64.0795 27.8535 63.9545 28.166C63.84 28.4681 63.7462 28.7806 63.6733 29.1035C63.6004 29.4264 63.5639 29.6868 63.5639 29.8848C63.5639 30.041 63.5743 30.2337 63.5952 30.4629C63.616 30.6816 63.6577 30.8952 63.7202 31.1035C63.7827 31.3118 63.866 31.4941 63.9702 31.6504C64.0847 31.7962 64.2306 31.8691 64.4077 31.8691C64.5847 31.8691 64.7462 31.8171 64.892 31.7129C65.0483 31.5983 65.1993 31.4681 65.3452 31.3223C65.4806 31.1973 65.6264 31.0671 65.7827 30.9316C65.9493 30.7962 66.1368 30.7285 66.3452 30.7285C66.6056 30.7285 66.8087 30.8223 66.9545 31.0098C67.1108 31.1973 67.1889 31.4108 67.1889 31.6504C67.1889 32.0046 67.0952 32.3379 66.9077 32.6504C66.7202 32.9525 66.4858 33.2181 66.2045 33.4473C65.9233 33.666 65.6108 33.8379 65.267 33.9629C64.9233 34.0983 64.5952 34.166 64.2827 34.166C63.7202 34.166 63.241 34.0254 62.8452 33.7441C62.4597 33.4629 62.1472 33.1087 61.9077 32.6816C61.6681 32.2441 61.4962 31.7702 61.392 31.2598C61.2879 30.7493 61.2358 30.265 61.2358 29.8066C61.2358 29.2754 61.3087 28.7025 61.4545 28.0879C61.6004 27.4629 61.8243 26.8848 62.1264 26.3535C62.4285 25.8223 62.8139 25.3796 63.2827 25.0254C63.7618 24.6712 64.3295 24.4941 64.9858 24.4941C65.392 24.4941 65.741 24.5827 66.0327 24.7598C66.3347 24.9368 66.5795 25.1712 66.767 25.4629C66.965 25.7441 67.1108 26.0618 67.2045 26.416C67.3087 26.7702 67.3608 27.1191 67.3608 27.4629C67.3608 27.515 67.3608 27.5671 67.3608 27.6191C67.3608 27.6712 67.3556 27.7233 67.3452 27.7754ZM74.8608 31.5723C74.8608 31.7598 74.8504 32.0046 74.8295 32.3066C74.8191 32.6087 74.7775 32.9056 74.7045 33.1973C74.6316 33.4785 74.517 33.7233 74.3608 33.9316C74.2045 34.14 73.9858 34.2441 73.7045 34.2441C73.3191 34.2441 73.0222 34.1191 72.8139 33.8691C72.6056 33.6191 72.5066 33.3066 72.517 32.9316C72.1837 33.2233 71.8035 33.4525 71.3764 33.6191C70.9597 33.7858 70.5327 33.8691 70.0952 33.8691C69.7931 33.8691 69.5066 33.7962 69.2358 33.6504C68.965 33.5046 68.7254 33.3171 68.517 33.0879C68.3087 32.8587 68.142 32.6035 68.017 32.3223C67.892 32.0306 67.8295 31.7441 67.8295 31.4629C67.8295 30.9629 67.9806 30.5254 68.2827 30.1504C68.5952 29.7754 68.9754 29.4577 69.4233 29.1973C69.8712 28.9264 70.3452 28.7129 70.8452 28.5566C71.3556 28.4004 71.8087 28.2962 72.2045 28.2441C72.2045 28.1921 72.2045 28.1452 72.2045 28.1035C72.215 28.0618 72.2202 28.015 72.2202 27.9629C72.2202 27.64 72.1316 27.3796 71.9545 27.1816C71.7775 26.9837 71.5275 26.8848 71.2045 26.8848C70.9441 26.8848 70.7202 26.9316 70.5327 27.0254C70.3452 27.1087 70.1681 27.2077 70.0014 27.3223C69.8347 27.4264 69.6681 27.5254 69.5014 27.6191C69.3347 27.7025 69.1472 27.7441 68.9389 27.7441C68.7097 27.7441 68.5118 27.6712 68.3452 27.5254C68.1889 27.3796 68.1108 27.1921 68.1108 26.9629C68.1108 26.6191 68.2097 26.3066 68.4077 26.0254C68.616 25.7441 68.8712 25.5098 69.1733 25.3223C69.4858 25.1243 69.8191 24.9733 70.1733 24.8691C70.5379 24.7546 70.8712 24.6973 71.1733 24.6973C71.4545 24.6973 71.7358 24.7337 72.017 24.8066C72.2983 24.8691 72.5639 24.9733 72.8139 25.1191C73.0639 25.2546 73.2879 25.4264 73.4858 25.6348C73.6941 25.8327 73.8608 26.0671 73.9858 26.3379C74.1733 26.7233 74.3243 27.1348 74.4389 27.5723C74.5535 27.9993 74.642 28.4421 74.7045 28.9004C74.767 29.3483 74.8087 29.8014 74.8295 30.2598C74.8504 30.7077 74.8608 31.1452 74.8608 31.5723ZM72.3608 31.0723L72.3139 30.0098C72.2931 30.0098 72.2722 30.0098 72.2514 30.0098C72.2306 29.9993 72.2097 29.9941 72.1889 29.9941C72.0535 29.9941 71.8816 30.0306 71.6733 30.1035C71.4754 30.166 71.2827 30.2598 71.0952 30.3848C70.9077 30.4993 70.7462 30.6296 70.6108 30.7754C70.4858 30.9212 70.4233 31.0723 70.4233 31.2285C70.4233 31.3743 70.4754 31.4733 70.5795 31.5254C70.6837 31.5775 70.8035 31.6035 70.9389 31.6035C71.1681 31.6035 71.4129 31.5462 71.6733 31.4316C71.9337 31.3066 72.1629 31.1868 72.3608 31.0723ZM78.7202 24.3066C78.7202 24.8691 78.6941 25.4368 78.642 26.0098C78.6004 26.5723 78.5795 27.14 78.5795 27.7129C78.5795 28.4525 78.6004 29.1921 78.642 29.9316C78.6941 30.6712 78.7202 31.416 78.7202 32.166C78.7202 32.3535 78.7097 32.5671 78.6889 32.8066C78.6681 33.0358 78.616 33.2493 78.5327 33.4473C78.4597 33.6452 78.3452 33.8118 78.1889 33.9473C78.0327 34.0827 77.8243 34.1504 77.5639 34.1504C77.3139 34.1504 77.0952 34.0254 76.9077 33.7754C76.7306 33.5358 76.5795 33.2285 76.4545 32.8535C76.34 32.4681 76.241 32.041 76.1577 31.5723C76.0847 31.1035 76.0275 30.6504 75.9858 30.2129C75.9545 29.765 75.9285 29.3587 75.9077 28.9941C75.8972 28.6191 75.892 28.3431 75.892 28.166C75.892 27.9681 75.8972 27.6816 75.9077 27.3066C75.9285 26.9316 75.965 26.5254 76.017 26.0879C76.0691 25.6504 76.1368 25.2077 76.2202 24.7598C76.3139 24.3014 76.4337 23.89 76.5795 23.5254C76.7254 23.1504 76.8972 22.8483 77.0952 22.6191C77.3035 22.3796 77.5483 22.2598 77.8295 22.2598C78.0587 22.2598 78.2306 22.3379 78.3452 22.4941C78.4702 22.64 78.5587 22.8223 78.6108 23.041C78.6629 23.2493 78.6941 23.4733 78.7045 23.7129C78.715 23.9421 78.7202 24.14 78.7202 24.3066ZM89.392 28.6191C89.392 28.8171 89.392 29.0879 89.392 29.4316C89.392 29.765 89.3816 30.1296 89.3608 30.5254C89.3504 30.9212 89.3191 31.3223 89.267 31.7285C89.215 32.1243 89.1316 32.4837 89.017 32.8066C88.9129 33.1296 88.7775 33.3952 88.6108 33.6035C88.4441 33.8118 88.2306 33.916 87.9702 33.916C87.741 33.916 87.5639 33.8223 87.4389 33.6348C87.3243 33.4368 87.241 33.2077 87.1889 32.9473C87.1368 32.6868 87.1056 32.4212 87.0952 32.1504C87.0952 31.8796 87.0952 31.666 87.0952 31.5098C87.0952 31.041 87.1108 30.5827 87.142 30.1348C87.1733 29.6868 87.1889 29.2285 87.1889 28.7598C87.1889 28.7077 87.1889 28.6139 87.1889 28.4785C87.1889 28.3431 87.1785 28.2077 87.1577 28.0723C87.1368 27.9368 87.1004 27.8171 87.0483 27.7129C87.0066 27.6087 86.9389 27.5566 86.8452 27.5566C86.6577 27.5566 86.5066 27.6556 86.392 27.8535C86.2775 28.041 86.1837 28.265 86.1108 28.5254C86.0379 28.7858 85.9858 29.0462 85.9545 29.3066C85.9233 29.5566 85.9025 29.7441 85.892 29.8691C85.8712 30.0046 85.8504 30.2077 85.8295 30.4785C85.8191 30.7493 85.7983 31.0462 85.767 31.3691C85.7462 31.6921 85.7045 32.0254 85.642 32.3691C85.59 32.7025 85.517 33.0098 85.4233 33.291C85.34 33.5618 85.2306 33.7858 85.0952 33.9629C84.9597 34.14 84.7931 34.2285 84.5952 34.2285C84.3452 34.2285 84.1525 34.1191 84.017 33.9004C83.8816 33.6816 83.7827 33.4264 83.7202 33.1348C83.6577 32.8431 83.616 32.5462 83.5952 32.2441C83.5847 31.9421 83.5795 31.7077 83.5795 31.541C83.5795 31.3639 83.5795 31.1921 83.5795 31.0254C83.59 30.8587 83.5952 30.6868 83.5952 30.5098C83.5952 30.4368 83.5952 30.3171 83.5952 30.1504C83.5952 29.9837 83.59 29.8014 83.5795 29.6035C83.5795 29.3952 83.5691 29.1816 83.5483 28.9629C83.5379 28.7441 83.517 28.5462 83.4858 28.3691C83.4545 28.1816 83.4077 28.0306 83.3452 27.916C83.2827 27.8014 83.2097 27.7441 83.1264 27.7441C82.991 27.7441 82.866 27.8327 82.7514 28.0098C82.6368 28.1764 82.5379 28.3796 82.4545 28.6191C82.3712 28.8483 82.3035 29.0775 82.2514 29.3066C82.2097 29.5358 82.1889 29.7025 82.1889 29.8066V29.9004C82.1889 30.4004 82.2202 30.89 82.2827 31.3691C82.3452 31.8483 82.3764 32.3379 82.3764 32.8379C82.3764 33.1296 82.2827 33.4004 82.0952 33.6504C81.9077 33.89 81.6472 34.0098 81.3139 34.0098C81.0743 34.0098 80.8764 33.9212 80.7202 33.7441C80.5639 33.5566 80.4337 33.3171 80.3295 33.0254C80.2254 32.7337 80.142 32.416 80.0795 32.0723C80.0275 31.7181 79.991 31.3743 79.9702 31.041C79.9493 30.6973 79.9337 30.39 79.9233 30.1191C79.9233 29.8379 79.9233 29.6296 79.9233 29.4941C79.9233 29.3379 79.9181 29.1087 79.9077 28.8066C79.9077 28.5046 79.9129 28.1764 79.9233 27.8223C79.9441 27.4681 79.9754 27.1087 80.017 26.7441C80.0587 26.3691 80.1264 26.0306 80.2202 25.7285C80.3139 25.4264 80.4337 25.1816 80.5795 24.9941C80.7358 24.7962 80.9337 24.6973 81.1733 24.6973C81.4441 24.6973 81.6629 24.7702 81.8295 24.916C82.0066 25.0618 82.0952 25.2806 82.0952 25.5723C82.0952 25.6348 82.09 25.6973 82.0795 25.7598C82.0795 25.8223 82.0743 25.8796 82.0639 25.9316C82.1785 25.765 82.3191 25.5983 82.4858 25.4316C82.6525 25.2546 82.8295 25.0983 83.017 24.9629C83.215 24.8171 83.4233 24.7025 83.642 24.6191C83.8608 24.5254 84.0795 24.4785 84.2983 24.4785C84.5066 24.4785 84.6941 24.5358 84.8608 24.6504C85.0275 24.765 85.1733 24.9108 85.2983 25.0879C85.4233 25.2546 85.5275 25.4368 85.6108 25.6348C85.6941 25.8327 85.7514 26.0202 85.7827 26.1973C85.8868 26.0098 86.0118 25.8223 86.1577 25.6348C86.3139 25.4368 86.4806 25.265 86.6577 25.1191C86.8347 24.9733 87.0275 24.8535 87.2358 24.7598C87.4545 24.666 87.6785 24.6191 87.9077 24.6191C88.1264 24.6191 88.3139 24.6973 88.4702 24.8535C88.6264 25.0098 88.7618 25.2129 88.8764 25.4629C88.991 25.7025 89.0795 25.9785 89.142 26.291C89.2045 26.5931 89.2566 26.8952 89.2983 27.1973C89.34 27.4889 89.366 27.765 89.3764 28.0254C89.3868 28.2754 89.392 28.4733 89.392 28.6191ZM97.0639 31.5723C97.0639 31.7598 97.0535 32.0046 97.0327 32.3066C97.0222 32.6087 96.9806 32.9056 96.9077 33.1973C96.8347 33.4785 96.7202 33.7233 96.5639 33.9316C96.4077 34.14 96.1889 34.2441 95.9077 34.2441C95.5222 34.2441 95.2254 34.1191 95.017 33.8691C94.8087 33.6191 94.7097 33.3066 94.7202 32.9316C94.3868 33.2233 94.0066 33.4525 93.5795 33.6191C93.1629 33.7858 92.7358 33.8691 92.2983 33.8691C91.9962 33.8691 91.7097 33.7962 91.4389 33.6504C91.1681 33.5046 90.9285 33.3171 90.7202 33.0879C90.5118 32.8587 90.3452 32.6035 90.2202 32.3223C90.0952 32.0306 90.0327 31.7441 90.0327 31.4629C90.0327 30.9629 90.1837 30.5254 90.4858 30.1504C90.7983 29.7754 91.1785 29.4577 91.6264 29.1973C92.0743 28.9264 92.5483 28.7129 93.0483 28.5566C93.5587 28.4004 94.0118 28.2962 94.4077 28.2441C94.4077 28.1921 94.4077 28.1452 94.4077 28.1035C94.4181 28.0618 94.4233 28.015 94.4233 27.9629C94.4233 27.64 94.3347 27.3796 94.1577 27.1816C93.9806 26.9837 93.7306 26.8848 93.4077 26.8848C93.1472 26.8848 92.9233 26.9316 92.7358 27.0254C92.5483 27.1087 92.3712 27.2077 92.2045 27.3223C92.0379 27.4264 91.8712 27.5254 91.7045 27.6191C91.5379 27.7025 91.3504 27.7441 91.142 27.7441C90.9129 27.7441 90.715 27.6712 90.5483 27.5254C90.392 27.3796 90.3139 27.1921 90.3139 26.9629C90.3139 26.6191 90.4129 26.3066 90.6108 26.0254C90.8191 25.7441 91.0743 25.5098 91.3764 25.3223C91.6889 25.1243 92.0222 24.9733 92.3764 24.8691C92.741 24.7546 93.0743 24.6973 93.3764 24.6973C93.6577 24.6973 93.9389 24.7337 94.2202 24.8066C94.5014 24.8691 94.767 24.9733 95.017 25.1191C95.267 25.2546 95.491 25.4264 95.6889 25.6348C95.8972 25.8327 96.0639 26.0671 96.1889 26.3379C96.3764 26.7233 96.5275 27.1348 96.642 27.5723C96.7566 27.9993 96.8452 28.4421 96.9077 28.9004C96.9702 29.3483 97.0118 29.8014 97.0327 30.2598C97.0535 30.7077 97.0639 31.1452 97.0639 31.5723ZM94.5639 31.0723L94.517 30.0098C94.4962 30.0098 94.4754 30.0098 94.4545 30.0098C94.4337 29.9993 94.4129 29.9941 94.392 29.9941C94.2566 29.9941 94.0847 30.0306 93.8764 30.1035C93.6785 30.166 93.4858 30.2598 93.2983 30.3848C93.1108 30.4993 92.9493 30.6296 92.8139 30.7754C92.6889 30.9212 92.6264 31.0723 92.6264 31.2285C92.6264 31.3743 92.6785 31.4733 92.7827 31.5254C92.8868 31.5775 93.0066 31.6035 93.142 31.6035C93.3712 31.6035 93.616 31.5462 93.8764 31.4316C94.1368 31.3066 94.366 31.1868 94.5639 31.0723ZM100.251 32.9473C100.251 33.1139 100.205 33.3275 100.111 33.5879C100.027 33.8483 99.9181 34.1035 99.7827 34.3535C99.6577 34.6035 99.5118 34.8171 99.3452 34.9941C99.1785 35.1712 99.017 35.2598 98.8608 35.2598C98.6525 35.2598 98.5483 35.1556 98.5483 34.9473C98.5483 34.8223 98.5743 34.7025 98.6264 34.5879C98.6785 34.4733 98.7358 34.3587 98.7983 34.2441C98.8608 34.14 98.9181 34.0306 98.9702 33.916C99.0222 33.8118 99.0483 33.7077 99.0483 33.6035C98.892 33.7077 98.7254 33.7598 98.5483 33.7598C98.3087 33.7598 98.1056 33.666 97.9389 33.4785C97.7722 33.291 97.6889 33.0827 97.6889 32.8535C97.6889 32.5202 97.7983 32.2546 98.017 32.0566C98.2358 31.8483 98.5118 31.7441 98.8452 31.7441C99.2202 31.7441 99.5483 31.8431 99.8295 32.041C100.111 32.2389 100.251 32.541 100.251 32.9473ZM111.189 30.9941C111.189 31.3483 111.074 31.6973 110.845 32.041C110.626 32.3743 110.345 32.6764 110.001 32.9473C109.668 33.2077 109.309 33.4212 108.923 33.5879C108.538 33.7441 108.184 33.8223 107.861 33.8223C107.309 33.8223 106.814 33.6868 106.376 33.416C105.949 33.1348 105.59 32.7806 105.298 32.3535C105.007 31.9264 104.783 31.4577 104.626 30.9473C104.481 30.4264 104.408 29.9212 104.408 29.4316C104.408 28.9108 104.481 28.3535 104.626 27.7598C104.772 27.166 104.991 26.6191 105.283 26.1191C105.585 25.6191 105.96 25.2025 106.408 24.8691C106.866 24.5358 107.408 24.3691 108.033 24.3691C108.387 24.3691 108.725 24.4316 109.048 24.5566C109.371 24.6712 109.652 24.8379 109.892 25.0566C110.132 25.2754 110.324 25.5358 110.47 25.8379C110.616 26.14 110.689 26.4785 110.689 26.8535C110.689 27.3431 110.585 27.8014 110.376 28.2285C110.168 28.6556 109.892 29.0254 109.548 29.3379C109.205 29.6504 108.809 29.9056 108.361 30.1035C107.913 30.291 107.455 30.3952 106.986 30.416C107.027 30.7181 107.147 30.9368 107.345 31.0723C107.553 31.2077 107.798 31.2754 108.08 31.2754C108.288 31.2754 108.491 31.2233 108.689 31.1191C108.887 31.015 109.08 30.9004 109.267 30.7754C109.455 30.64 109.637 30.5202 109.814 30.416C110.001 30.3118 110.189 30.2598 110.376 30.2598C110.585 30.2598 110.772 30.3275 110.939 30.4629C111.106 30.5983 111.189 30.7754 111.189 30.9941ZM108.658 27.166C108.658 27.0306 108.621 26.89 108.548 26.7441C108.475 26.5983 108.361 26.5254 108.205 26.5254C107.975 26.5254 107.783 26.5879 107.626 26.7129C107.47 26.8275 107.34 26.9785 107.236 27.166C107.132 27.3431 107.048 27.5358 106.986 27.7441C106.934 27.9525 106.902 28.1452 106.892 28.3223C107.038 28.291 107.21 28.2493 107.408 28.1973C107.616 28.1452 107.809 28.0775 107.986 27.9941C108.173 27.9004 108.33 27.7858 108.455 27.6504C108.59 27.515 108.658 27.3535 108.658 27.166ZM118.658 29.3066C118.658 29.8796 118.6 30.4473 118.486 31.0098C118.371 31.5723 118.178 32.0775 117.908 32.5254C117.637 32.9629 117.272 33.3171 116.814 33.5879C116.366 33.8587 115.803 33.9941 115.126 33.9941C114.46 33.9941 113.902 33.8639 113.455 33.6035C113.007 33.3327 112.647 32.9785 112.376 32.541C112.116 32.1035 111.928 31.6087 111.814 31.0566C111.71 30.5046 111.658 29.9421 111.658 29.3691C111.658 28.7441 111.731 28.1243 111.876 27.5098C111.908 27.3431 111.965 27.1139 112.048 26.8223C112.142 26.5202 112.257 26.2285 112.392 25.9473C112.538 25.6556 112.699 25.4056 112.876 25.1973C113.064 24.9889 113.267 24.8848 113.486 24.8848C113.694 24.8848 113.861 24.9421 113.986 25.0566C114.111 25.1712 114.21 25.3171 114.283 25.4941C114.356 25.6608 114.402 25.8431 114.423 26.041C114.444 26.2285 114.455 26.4004 114.455 26.5566C114.455 26.7962 114.434 27.0306 114.392 27.2598C114.361 27.4889 114.324 27.7181 114.283 27.9473C114.241 28.2598 114.199 28.5723 114.158 28.8848C114.126 29.1973 114.111 29.5098 114.111 29.8223C114.111 29.9785 114.116 30.1556 114.126 30.3535C114.147 30.541 114.189 30.7233 114.251 30.9004C114.314 31.0775 114.402 31.2285 114.517 31.3535C114.632 31.4681 114.793 31.5254 115.001 31.5254C115.272 31.5254 115.486 31.4525 115.642 31.3066C115.809 31.1608 115.928 30.9785 116.001 30.7598C116.085 30.541 116.137 30.3066 116.158 30.0566C116.178 29.8066 116.189 29.5775 116.189 29.3691C116.189 28.9108 116.158 28.4629 116.095 28.0254C116.033 27.5775 115.975 27.1243 115.923 26.666C115.913 26.6139 115.908 26.541 115.908 26.4473C115.908 26.291 115.934 26.1348 115.986 25.9785C116.038 25.8223 116.111 25.6816 116.205 25.5566C116.298 25.4316 116.413 25.3327 116.548 25.2598C116.684 25.1764 116.835 25.1348 117.001 25.1348C117.231 25.1348 117.434 25.2181 117.611 25.3848C117.788 25.541 117.934 25.7493 118.048 26.0098C118.173 26.2598 118.272 26.5462 118.345 26.8691C118.428 27.1816 118.491 27.4941 118.533 27.8066C118.585 28.1087 118.616 28.3952 118.626 28.666C118.647 28.9368 118.658 29.1504 118.658 29.3066ZM127.017 34.3379C126.277 34.3379 125.699 34.2389 125.283 34.041C124.876 33.8535 124.569 33.5827 124.361 33.2285C124.163 32.8743 124.043 32.4473 124.001 31.9473C123.96 31.4473 123.939 30.89 123.939 30.2754C123.939 29.7858 123.955 29.2962 123.986 28.8066C124.017 28.3066 124.064 27.7754 124.126 27.2129C123.981 27.2129 123.866 27.2181 123.783 27.2285C123.699 27.2285 123.632 27.2285 123.58 27.2285C123.246 27.2285 122.96 27.1556 122.72 27.0098C122.47 26.8639 122.345 26.64 122.345 26.3379C122.345 26.1504 122.418 25.9837 122.564 25.8379C122.699 25.6921 122.876 25.5671 123.095 25.4629C123.314 25.3587 123.548 25.2754 123.798 25.2129C124.059 25.1504 124.303 25.1087 124.533 25.0879C124.533 24.7962 124.553 24.4733 124.595 24.1191C124.637 23.765 124.71 23.4368 124.814 23.1348C124.928 22.8223 125.08 22.5618 125.267 22.3535C125.455 22.1452 125.694 22.041 125.986 22.041C126.152 22.041 126.298 22.0931 126.423 22.1973C126.559 22.291 126.668 22.416 126.751 22.5723C126.835 22.7181 126.897 22.8848 126.939 23.0723C126.981 23.2598 127.001 23.4421 127.001 23.6191C127.001 23.8275 126.986 24.041 126.955 24.2598C126.923 24.4785 126.866 24.7493 126.783 25.0723C126.96 25.0514 127.08 25.041 127.142 25.041C127.205 25.0306 127.262 25.0254 127.314 25.0254C127.491 25.0254 127.673 25.041 127.861 25.0723C128.059 25.1035 128.236 25.1556 128.392 25.2285C128.559 25.3014 128.694 25.4004 128.798 25.5254C128.902 25.64 128.955 25.7806 128.955 25.9473C128.955 26.1348 128.876 26.3014 128.72 26.4473C128.574 26.5931 128.387 26.7181 128.158 26.8223C127.928 26.9264 127.684 27.0098 127.423 27.0723C127.163 27.1243 126.918 27.1608 126.689 27.1816C126.626 27.6087 126.58 28.0046 126.548 28.3691C126.527 28.7233 126.501 29.0827 126.47 29.4473C126.449 29.6243 126.428 29.8066 126.408 29.9941C126.397 30.1712 126.392 30.3535 126.392 30.541C126.392 30.6764 126.397 30.8379 126.408 31.0254C126.418 31.2025 126.455 31.3743 126.517 31.541C126.58 31.7077 126.678 31.8535 126.814 31.9785C126.949 32.0931 127.137 32.1504 127.376 32.1504C127.522 32.1504 127.673 32.14 127.83 32.1191C127.986 32.0879 128.142 32.0723 128.298 32.0723C128.569 32.0723 128.762 32.166 128.876 32.3535C129.001 32.541 129.064 32.7806 129.064 33.0723C129.064 33.291 128.996 33.4837 128.861 33.6504C128.736 33.8066 128.574 33.9316 128.376 34.0254C128.178 34.1296 127.955 34.2077 127.705 34.2598C127.465 34.3118 127.236 34.3379 127.017 34.3379ZM135.923 30.9941C135.923 31.3483 135.809 31.6973 135.58 32.041C135.361 32.3743 135.08 32.6764 134.736 32.9473C134.402 33.2077 134.043 33.4212 133.658 33.5879C133.272 33.7441 132.918 33.8223 132.595 33.8223C132.043 33.8223 131.548 33.6868 131.111 33.416C130.684 33.1348 130.324 32.7806 130.033 32.3535C129.741 31.9264 129.517 31.4577 129.361 30.9473C129.215 30.4264 129.142 29.9212 129.142 29.4316C129.142 28.9108 129.215 28.3535 129.361 27.7598C129.507 27.166 129.725 26.6191 130.017 26.1191C130.319 25.6191 130.694 25.2025 131.142 24.8691C131.6 24.5358 132.142 24.3691 132.767 24.3691C133.121 24.3691 133.46 24.4316 133.783 24.5566C134.106 24.6712 134.387 24.8379 134.626 25.0566C134.866 25.2754 135.059 25.5358 135.205 25.8379C135.35 26.14 135.423 26.4785 135.423 26.8535C135.423 27.3431 135.319 27.8014 135.111 28.2285C134.902 28.6556 134.626 29.0254 134.283 29.3379C133.939 29.6504 133.543 29.9056 133.095 30.1035C132.647 30.291 132.189 30.3952 131.72 30.416C131.762 30.7181 131.882 30.9368 132.08 31.0723C132.288 31.2077 132.533 31.2754 132.814 31.2754C133.022 31.2754 133.225 31.2233 133.423 31.1191C133.621 31.015 133.814 30.9004 134.001 30.7754C134.189 30.64 134.371 30.5202 134.548 30.416C134.736 30.3118 134.923 30.2598 135.111 30.2598C135.319 30.2598 135.507 30.3275 135.673 30.4629C135.84 30.5983 135.923 30.7754 135.923 30.9941ZM133.392 27.166C133.392 27.0306 133.356 26.89 133.283 26.7441C133.21 26.5983 133.095 26.5254 132.939 26.5254C132.71 26.5254 132.517 26.5879 132.361 26.7129C132.205 26.8275 132.074 26.9785 131.97 27.166C131.866 27.3431 131.783 27.5358 131.72 27.7441C131.668 27.9525 131.637 28.1452 131.626 28.3223C131.772 28.291 131.944 28.2493 132.142 28.1973C132.35 28.1452 132.543 28.0775 132.72 27.9941C132.908 27.9004 133.064 27.7858 133.189 27.6504C133.324 27.515 133.392 27.3535 133.392 27.166ZM140.986 34.2129C140.809 34.2129 140.668 34.1296 140.564 33.9629C140.46 33.8066 140.382 33.6243 140.33 33.416C140.277 33.2077 140.241 32.9993 140.22 32.791C140.21 32.5723 140.205 32.4056 140.205 32.291C140.205 31.9785 140.22 31.666 140.251 31.3535C140.293 31.041 140.335 30.7285 140.376 30.416C140.428 30.1035 140.47 29.791 140.501 29.4785C140.543 29.166 140.564 28.8535 140.564 28.541C140.564 28.416 140.559 28.2806 140.548 28.1348C140.538 27.9889 140.512 27.8535 140.47 27.7285C140.439 27.5931 140.382 27.4837 140.298 27.4004C140.215 27.3171 140.106 27.2754 139.97 27.2754C139.876 27.2754 139.772 27.3535 139.658 27.5098C139.543 27.6556 139.434 27.8275 139.33 28.0254C139.236 28.2129 139.152 28.4056 139.08 28.6035C139.017 28.791 138.986 28.9316 138.986 29.0254C138.986 29.2546 138.986 29.4889 138.986 29.7285C138.996 29.9577 139.001 30.1921 139.001 30.4316V31.3379C138.991 31.5254 138.975 31.7181 138.955 31.916C138.934 32.1139 138.902 32.3066 138.861 32.4941C138.83 32.6816 138.783 32.8639 138.72 33.041C138.658 33.2077 138.574 33.3587 138.47 33.4941C138.376 33.6191 138.262 33.7233 138.126 33.8066C137.991 33.89 137.83 33.9316 137.642 33.9316C137.434 33.9316 137.262 33.8639 137.126 33.7285C136.991 33.5931 136.882 33.4212 136.798 33.2129C136.715 32.9941 136.652 32.7546 136.611 32.4941C136.58 32.2233 136.553 31.9629 136.533 31.7129C136.522 31.4525 136.517 31.2181 136.517 31.0098C136.527 30.791 136.533 30.6191 136.533 30.4941V29.7598C136.533 29.3639 136.522 28.9733 136.501 28.5879C136.491 28.2025 136.486 27.8171 136.486 27.4316C136.486 27.2233 136.486 26.9577 136.486 26.6348C136.496 26.3118 136.538 25.9993 136.611 25.6973C136.684 25.3848 136.803 25.1191 136.97 24.9004C137.137 24.6816 137.382 24.5723 137.705 24.5723C137.85 24.5723 137.981 24.6191 138.095 24.7129C138.21 24.8066 138.309 24.9212 138.392 25.0566C138.486 25.1921 138.559 25.3379 138.611 25.4941C138.673 25.6504 138.72 25.7858 138.751 25.9004C138.856 25.7546 138.975 25.6139 139.111 25.4785C139.257 25.3431 139.418 25.2233 139.595 25.1191C139.772 25.015 139.97 24.9316 140.189 24.8691C140.408 24.8066 140.658 24.7754 140.939 24.7754C141.47 24.7754 141.882 24.9056 142.173 25.166C142.475 25.416 142.694 25.7337 142.83 26.1191C142.975 26.4941 143.064 26.9004 143.095 27.3379C143.126 27.7754 143.142 28.1712 143.142 28.5254C143.142 28.7025 143.126 28.9681 143.095 29.3223C143.064 29.666 143.012 30.0514 142.939 30.4785C142.876 30.8952 142.788 31.3275 142.673 31.7754C142.559 32.2129 142.423 32.6139 142.267 32.9785C142.111 33.3431 141.923 33.64 141.705 33.8691C141.496 34.0983 141.257 34.2129 140.986 34.2129ZM151.111 29.7285C151.111 29.9056 151.106 30.1712 151.095 30.5254C151.095 30.8691 151.08 31.2337 151.048 31.6191C151.027 31.9941 150.996 32.3535 150.955 32.6973C150.913 33.0306 150.861 33.2754 150.798 33.4316C150.715 33.6296 150.606 33.8014 150.47 33.9473C150.335 34.0931 150.152 34.166 149.923 34.166C149.569 34.166 149.314 34.0254 149.158 33.7441C149.001 33.4629 148.897 33.1139 148.845 32.6973C148.793 32.2806 148.772 31.8275 148.783 31.3379C148.793 30.8483 148.788 30.3952 148.767 29.9785C148.746 29.5618 148.689 29.2129 148.595 28.9316C148.501 28.6504 148.33 28.5098 148.08 28.5098C147.736 28.5098 147.47 28.5671 147.283 28.6816C147.106 28.7858 146.975 28.9264 146.892 29.1035C146.819 29.2806 146.772 29.4837 146.751 29.7129C146.741 29.9421 146.725 30.1816 146.705 30.4316C146.684 30.6712 146.668 30.9941 146.658 31.4004C146.647 31.8066 146.6 32.2077 146.517 32.6035C146.434 32.9993 146.293 33.3431 146.095 33.6348C145.908 33.916 145.626 34.0566 145.251 34.0566C145.022 34.0566 144.835 33.9681 144.689 33.791C144.553 33.6139 144.444 33.3848 144.361 33.1035C144.277 32.8223 144.215 32.5098 144.173 32.166C144.142 31.8223 144.121 31.4889 144.111 31.166C144.111 30.8327 144.111 30.5306 144.111 30.2598C144.121 29.9889 144.126 29.7858 144.126 29.6504C144.126 29.4421 144.132 29.0983 144.142 28.6191C144.163 28.14 144.199 27.6087 144.251 27.0254C144.303 26.4316 144.371 25.8223 144.455 25.1973C144.538 24.5723 144.647 24.0046 144.783 23.4941C144.918 22.9733 145.08 22.5514 145.267 22.2285C145.465 21.9056 145.694 21.7493 145.955 21.7598C146.121 21.7702 146.262 21.8431 146.376 21.9785C146.501 22.1139 146.6 22.291 146.673 22.5098C146.757 22.7181 146.824 22.9473 146.876 23.1973C146.928 23.4473 146.965 23.6973 146.986 23.9473C147.017 24.1868 147.033 24.4108 147.033 24.6191C147.043 24.8275 147.048 24.9889 147.048 25.1035C147.048 25.3743 147.043 25.6452 147.033 25.916C147.022 26.1868 147.007 26.4577 146.986 26.7285C147.225 26.4056 147.543 26.14 147.939 25.9316C148.345 25.7233 148.751 25.6191 149.158 25.6191C149.678 25.6191 150.069 25.765 150.33 26.0566C150.6 26.3379 150.793 26.6921 150.908 27.1191C151.022 27.5358 151.085 27.9837 151.095 28.4629C151.106 28.9316 151.111 29.3535 151.111 29.7285ZM155.189 34.2285C154.658 34.2285 154.194 34.0879 153.798 33.8066C153.402 33.5254 153.069 33.166 152.798 32.7285C152.527 32.291 152.324 31.8066 152.189 31.2754C152.054 30.7337 151.986 30.2025 151.986 29.6816C151.986 29.1296 152.054 28.5618 152.189 27.9785C152.324 27.3848 152.533 26.8483 152.814 26.3691C153.095 25.8796 153.455 25.4837 153.892 25.1816C154.33 24.8691 154.85 24.7129 155.455 24.7129C156.038 24.7129 156.533 24.8743 156.939 25.1973C157.356 25.5098 157.689 25.9056 157.939 26.3848C158.189 26.8535 158.366 27.3691 158.47 27.9316C158.574 28.4941 158.611 29.0254 158.58 29.5254C158.548 30.0775 158.46 30.6348 158.314 31.1973C158.179 31.7598 157.975 32.265 157.705 32.7129C157.434 33.1608 157.09 33.5254 156.673 33.8066C156.257 34.0879 155.762 34.2285 155.189 34.2285ZM155.345 27.166C155.189 27.166 155.048 27.2493 154.923 27.416C154.809 27.5827 154.71 27.7858 154.626 28.0254C154.554 28.265 154.496 28.5202 154.455 28.791C154.413 29.0514 154.392 29.2806 154.392 29.4785C154.392 29.7285 154.413 29.9993 154.455 30.291C154.507 30.5827 154.574 30.8535 154.658 31.1035C154.741 31.3431 154.84 31.5462 154.955 31.7129C155.08 31.8691 155.22 31.9473 155.376 31.9473C155.543 31.9473 155.684 31.8691 155.798 31.7129C155.923 31.5566 156.022 31.3587 156.095 31.1191C156.168 30.8796 156.22 30.6191 156.251 30.3379C156.283 30.0462 156.298 29.7754 156.298 29.5254C156.298 29.2962 156.277 29.0462 156.236 28.7754C156.194 28.4941 156.132 28.2337 156.048 27.9941C155.975 27.7546 155.876 27.5566 155.751 27.4004C155.637 27.2441 155.501 27.166 155.345 27.166ZM169.876 23.4941C169.876 24.2546 169.845 25.0098 169.783 25.7598C169.731 26.5098 169.705 27.265 169.705 28.0254C169.705 28.64 169.72 29.2493 169.751 29.8535C169.793 30.4577 169.814 31.0671 169.814 31.6816C169.814 31.8483 169.809 32.0514 169.798 32.291C169.788 32.5202 169.751 32.7441 169.689 32.9629C169.637 33.1816 169.543 33.3691 169.408 33.5254C169.283 33.6816 169.1 33.7598 168.861 33.7598C168.548 33.7598 168.288 33.6452 168.08 33.416C167.882 33.1764 167.757 32.9108 167.705 32.6191C167.507 32.9941 167.22 33.3118 166.845 33.5723C166.47 33.8327 166.064 33.9629 165.626 33.9629C165.158 33.9629 164.751 33.8014 164.408 33.4785C164.074 33.1556 163.793 32.765 163.564 32.3066C163.345 31.8483 163.179 31.3691 163.064 30.8691C162.96 30.3691 162.908 29.9368 162.908 29.5723C162.908 29.3118 162.923 29.015 162.955 28.6816C162.986 28.3483 163.038 28.0098 163.111 27.666C163.194 27.3223 163.298 26.9889 163.423 26.666C163.548 26.3327 163.705 26.0358 163.892 25.7754C164.09 25.515 164.319 25.3066 164.58 25.1504C164.85 24.9941 165.158 24.916 165.501 24.916C165.876 24.916 166.236 25.0254 166.58 25.2441C166.923 25.4629 167.184 25.7337 167.361 26.0566L167.501 23.5723C167.512 23.3743 167.527 23.1452 167.548 22.8848C167.569 22.6139 167.611 22.3587 167.673 22.1191C167.746 21.8796 167.856 21.6764 168.001 21.5098C168.147 21.3431 168.361 21.2598 168.642 21.2598C168.944 21.2598 169.179 21.3327 169.345 21.4785C169.512 21.6243 169.632 21.8118 169.705 22.041C169.788 22.2598 169.835 22.4993 169.845 22.7598C169.866 23.0202 169.876 23.265 169.876 23.4941ZM167.33 30.4316C167.33 30.1921 167.324 29.9577 167.314 29.7285C167.304 29.4993 167.304 29.265 167.314 29.0254C167.251 28.89 167.179 28.7441 167.095 28.5879C167.012 28.4212 166.908 28.2702 166.783 28.1348C166.668 27.9889 166.538 27.8691 166.392 27.7754C166.246 27.6816 166.09 27.6348 165.923 27.6348C165.736 27.6348 165.585 27.6921 165.47 27.8066C165.356 27.9212 165.272 28.0618 165.22 28.2285C165.168 28.3848 165.132 28.5566 165.111 28.7441C165.1 28.9316 165.095 29.0931 165.095 29.2285C165.095 29.3535 165.106 29.541 165.126 29.791C165.147 30.0306 165.184 30.2754 165.236 30.5254C165.298 30.7754 165.382 30.9941 165.486 31.1816C165.59 31.3691 165.731 31.4629 165.908 31.4629C166.043 31.4629 166.179 31.4368 166.314 31.3848C166.449 31.3223 166.574 31.2493 166.689 31.166C166.814 31.0723 166.929 30.9733 167.033 30.8691C167.147 30.7546 167.246 30.6504 167.33 30.5566V30.4316ZM173.486 22.8691C173.486 23.015 173.444 23.1452 173.361 23.2598C173.288 23.3743 173.189 23.4785 173.064 23.5723C172.939 23.6556 172.804 23.7233 172.658 23.7754C172.512 23.8171 172.376 23.8379 172.251 23.8379C172.043 23.8379 171.861 23.7858 171.705 23.6816C171.548 23.5775 171.47 23.416 171.47 23.1973C171.47 23.041 171.507 22.9056 171.58 22.791C171.663 22.666 171.762 22.5671 171.876 22.4941C171.991 22.4108 172.121 22.3483 172.267 22.3066C172.413 22.265 172.554 22.2441 172.689 22.2441C172.887 22.2441 173.069 22.291 173.236 22.3848C173.402 22.4785 173.486 22.64 173.486 22.8691ZM173.611 28.1816C173.611 28.3275 173.611 28.4837 173.611 28.6504C173.611 28.8066 173.606 28.9577 173.595 29.1035C173.585 29.2806 173.58 29.5202 173.58 29.8223C173.58 30.1139 173.569 30.4316 173.548 30.7754C173.527 31.1191 173.491 31.4681 173.439 31.8223C173.397 32.1764 173.324 32.4993 173.22 32.791C173.116 33.0827 172.975 33.3223 172.798 33.5098C172.632 33.6868 172.418 33.7806 172.158 33.791C171.96 33.8014 171.793 33.7233 171.658 33.5566C171.522 33.39 171.408 33.1764 171.314 32.916C171.231 32.6452 171.168 32.3483 171.126 32.0254C171.085 31.6921 171.054 31.3743 171.033 31.0723C171.012 30.7598 171.001 30.4733 171.001 30.2129C171.001 29.9525 171.001 29.7598 171.001 29.6348C171.001 29.4681 171.001 29.2337 171.001 28.9316C171.001 28.6191 171.012 28.2858 171.033 27.9316C171.054 27.5775 171.09 27.2181 171.142 26.8535C171.205 26.4889 171.288 26.1556 171.392 25.8535C171.507 25.5514 171.652 25.3066 171.83 25.1191C172.007 24.9316 172.231 24.8379 172.501 24.8379C172.783 24.8379 172.996 24.9785 173.142 25.2598C173.288 25.541 173.397 25.8691 173.47 26.2441C173.543 26.6191 173.585 26.9941 173.595 27.3691C173.606 27.7337 173.611 28.0046 173.611 28.1816ZM180.517 27.7754C180.517 27.8275 180.512 27.8848 180.501 27.9473C180.491 27.9993 180.475 28.0514 180.455 28.1035C180.361 28.3431 180.215 28.5462 180.017 28.7129C179.819 28.8691 179.585 28.9473 179.314 28.9473C178.908 28.9473 178.632 28.7441 178.486 28.3379C178.465 28.2858 178.455 28.2285 178.455 28.166C178.455 28.0931 178.449 28.0202 178.439 27.9473V27.4941C178.418 27.3483 178.382 27.2337 178.33 27.1504C178.277 27.0671 178.189 27.0254 178.064 27.0254C177.887 27.0254 177.715 27.14 177.548 27.3691C177.392 27.5879 177.251 27.8535 177.126 28.166C177.012 28.4681 176.918 28.7806 176.845 29.1035C176.772 29.4264 176.736 29.6868 176.736 29.8848C176.736 30.041 176.746 30.2337 176.767 30.4629C176.788 30.6816 176.83 30.8952 176.892 31.1035C176.955 31.3118 177.038 31.4941 177.142 31.6504C177.257 31.7962 177.402 31.8691 177.58 31.8691C177.757 31.8691 177.918 31.8171 178.064 31.7129C178.22 31.5983 178.371 31.4681 178.517 31.3223C178.652 31.1973 178.798 31.0671 178.955 30.9316C179.121 30.7962 179.309 30.7285 179.517 30.7285C179.777 30.7285 179.981 30.8223 180.126 31.0098C180.283 31.1973 180.361 31.4108 180.361 31.6504C180.361 32.0046 180.267 32.3379 180.08 32.6504C179.892 32.9525 179.658 33.2181 179.376 33.4473C179.095 33.666 178.783 33.8379 178.439 33.9629C178.095 34.0983 177.767 34.166 177.455 34.166C176.892 34.166 176.413 34.0254 176.017 33.7441C175.632 33.4629 175.319 33.1087 175.08 32.6816C174.84 32.2441 174.668 31.7702 174.564 31.2598C174.46 30.7493 174.408 30.265 174.408 29.8066C174.408 29.2754 174.481 28.7025 174.626 28.0879C174.772 27.4629 174.996 26.8848 175.298 26.3535C175.6 25.8223 175.986 25.3796 176.455 25.0254C176.934 24.6712 177.501 24.4941 178.158 24.4941C178.564 24.4941 178.913 24.5827 179.205 24.7598C179.507 24.9368 179.751 25.1712 179.939 25.4629C180.137 25.7441 180.283 26.0618 180.376 26.416C180.481 26.7702 180.533 27.1191 180.533 27.4629C180.533 27.515 180.533 27.5671 180.533 27.6191C180.533 27.6712 180.527 27.7233 180.517 27.7754ZM188.033 31.5723C188.033 31.7598 188.022 32.0046 188.001 32.3066C187.991 32.6087 187.949 32.9056 187.876 33.1973C187.804 33.4785 187.689 33.7233 187.533 33.9316C187.376 34.14 187.158 34.2441 186.876 34.2441C186.491 34.2441 186.194 34.1191 185.986 33.8691C185.777 33.6191 185.679 33.3066 185.689 32.9316C185.356 33.2233 184.975 33.4525 184.548 33.6191C184.132 33.7858 183.705 33.8691 183.267 33.8691C182.965 33.8691 182.679 33.7962 182.408 33.6504C182.137 33.5046 181.897 33.3171 181.689 33.0879C181.481 32.8587 181.314 32.6035 181.189 32.3223C181.064 32.0306 181.001 31.7441 181.001 31.4629C181.001 30.9629 181.152 30.5254 181.455 30.1504C181.767 29.7754 182.147 29.4577 182.595 29.1973C183.043 28.9264 183.517 28.7129 184.017 28.5566C184.527 28.4004 184.981 28.2962 185.376 28.2441C185.376 28.1921 185.376 28.1452 185.376 28.1035C185.387 28.0618 185.392 28.015 185.392 27.9629C185.392 27.64 185.304 27.3796 185.126 27.1816C184.949 26.9837 184.699 26.8848 184.376 26.8848C184.116 26.8848 183.892 26.9316 183.705 27.0254C183.517 27.1087 183.34 27.2077 183.173 27.3223C183.007 27.4264 182.84 27.5254 182.673 27.6191C182.507 27.7025 182.319 27.7441 182.111 27.7441C181.882 27.7441 181.684 27.6712 181.517 27.5254C181.361 27.3796 181.283 27.1921 181.283 26.9629C181.283 26.6191 181.382 26.3066 181.58 26.0254C181.788 25.7441 182.043 25.5098 182.345 25.3223C182.658 25.1243 182.991 24.9733 183.345 24.8691C183.71 24.7546 184.043 24.6973 184.345 24.6973C184.626 24.6973 184.908 24.7337 185.189 24.8066C185.47 24.8691 185.736 24.9733 185.986 25.1191C186.236 25.2546 186.46 25.4264 186.658 25.6348C186.866 25.8327 187.033 26.0671 187.158 26.3379C187.345 26.7233 187.496 27.1348 187.611 27.5723C187.725 27.9993 187.814 28.4421 187.876 28.9004C187.939 29.3483 187.981 29.8014 188.001 30.2598C188.022 30.7077 188.033 31.1452 188.033 31.5723ZM185.533 31.0723L185.486 30.0098C185.465 30.0098 185.444 30.0098 185.423 30.0098C185.402 29.9993 185.382 29.9941 185.361 29.9941C185.225 29.9941 185.054 30.0306 184.845 30.1035C184.647 30.166 184.455 30.2598 184.267 30.3848C184.08 30.4993 183.918 30.6296 183.783 30.7754C183.658 30.9212 183.595 31.0723 183.595 31.2285C183.595 31.3743 183.647 31.4733 183.751 31.5254C183.856 31.5775 183.975 31.6035 184.111 31.6035C184.34 31.6035 184.585 31.5462 184.845 31.4316C185.106 31.3066 185.335 31.1868 185.533 31.0723ZM193.548 25.1816C193.548 25.4837 193.444 25.7077 193.236 25.8535C193.038 25.9993 192.814 26.14 192.564 26.2754C192.314 26.4004 192.085 26.5514 191.876 26.7285C191.679 26.9056 191.58 27.1712 191.58 27.5254C191.58 27.7129 191.621 27.8743 191.705 28.0098C191.798 28.1452 191.908 28.2702 192.033 28.3848C192.168 28.4889 192.314 28.5983 192.47 28.7129C192.626 28.8275 192.767 28.9577 192.892 29.1035C193.027 29.2493 193.137 29.4264 193.22 29.6348C193.314 29.8431 193.361 30.0983 193.361 30.4004C193.361 30.8379 193.246 31.2702 193.017 31.6973C192.798 32.1139 192.512 32.4889 192.158 32.8223C191.814 33.1452 191.423 33.4056 190.986 33.6035C190.548 33.8014 190.116 33.9004 189.689 33.9004C189.512 33.9004 189.335 33.8848 189.158 33.8535C188.981 33.8327 188.819 33.7858 188.673 33.7129C188.538 33.64 188.423 33.541 188.33 33.416C188.236 33.2806 188.189 33.1087 188.189 32.9004C188.189 32.6087 188.246 32.3848 188.361 32.2285C188.475 32.0618 188.621 31.9316 188.798 31.8379C188.975 31.7441 189.163 31.6712 189.361 31.6191C189.569 31.5671 189.762 31.5046 189.939 31.4316C190.116 31.3483 190.262 31.2441 190.376 31.1191C190.491 30.9941 190.548 30.8171 190.548 30.5879C190.548 30.3691 190.46 30.1452 190.283 29.916C190.116 29.6764 189.929 29.4264 189.72 29.166C189.512 28.8952 189.319 28.6087 189.142 28.3066C188.975 28.0046 188.892 27.6712 188.892 27.3066C188.892 26.8587 188.981 26.4473 189.158 26.0723C189.345 25.6868 189.59 25.3535 189.892 25.0723C190.205 24.791 190.559 24.5723 190.955 24.416C191.35 24.2493 191.767 24.166 192.205 24.166C192.371 24.166 192.533 24.1816 192.689 24.2129C192.856 24.2441 193.001 24.3014 193.126 24.3848C193.251 24.4577 193.35 24.5618 193.423 24.6973C193.507 24.8223 193.548 24.9837 193.548 25.1816ZM45.1655 50.1191C45.1655 50.5775 45.1134 51.0827 45.0092 51.6348C44.9155 52.1764 44.7488 52.6816 44.5092 53.1504C44.2801 53.6191 43.9728 54.0098 43.5873 54.3223C43.2123 54.6348 42.7384 54.791 42.1655 54.791C42.0196 54.791 41.8686 54.7806 41.7123 54.7598C41.5561 54.7389 41.4051 54.7025 41.2592 54.6504C41.1238 54.5983 40.9988 54.5306 40.8842 54.4473C40.7696 54.3535 40.6811 54.2337 40.6186 54.0879L40.478 56.3379C40.4676 56.5775 40.4571 56.8639 40.4467 57.1973C40.4467 57.5306 40.4051 57.8483 40.3217 58.1504C40.2488 58.4525 40.1186 58.7077 39.9311 58.916C39.754 59.1348 39.4936 59.2441 39.1498 59.2441C38.9519 59.2441 38.7853 59.14 38.6498 58.9316C38.5144 58.7337 38.4051 58.4785 38.3217 58.166C38.2488 57.8535 38.1915 57.5046 38.1498 57.1191C38.1082 56.7337 38.0821 56.3639 38.0717 56.0098C38.0613 55.6556 38.0561 55.3327 38.0561 55.041C38.0561 54.7493 38.0561 54.5358 38.0561 54.4004C38.0561 53.7025 38.0509 53.0098 38.0405 52.3223C38.0301 51.6243 38.0248 50.9264 38.0248 50.2285C38.0248 50.1035 38.0248 49.9108 38.0248 49.6504C38.0248 49.3796 38.0353 49.0879 38.0561 48.7754C38.0769 48.4629 38.1082 48.14 38.1498 47.8066C38.2019 47.4733 38.2748 47.1712 38.3686 46.9004C38.4623 46.6191 38.5821 46.3952 38.728 46.2285C38.8738 46.0514 39.0509 45.9629 39.2592 45.9629C39.3946 45.9629 39.5144 46.0046 39.6186 46.0879C39.7332 46.1608 39.8269 46.2598 39.8998 46.3848C39.9832 46.4993 40.0509 46.6243 40.103 46.7598C40.1551 46.8952 40.1967 47.0202 40.228 47.1348C40.5509 46.7702 40.9207 46.4941 41.3373 46.3066C41.7644 46.1191 42.2176 46.0254 42.6967 46.0254C43.1967 46.0254 43.603 46.166 43.9155 46.4473C44.2384 46.7285 44.4884 47.0775 44.6655 47.4941C44.853 47.9108 44.9832 48.3587 45.0561 48.8379C45.129 49.3066 45.1655 49.7337 45.1655 50.1191ZM42.9311 49.9941C42.9311 49.8379 42.9155 49.6816 42.8842 49.5254C42.8634 49.3587 42.8165 49.2077 42.7436 49.0723C42.6811 48.9264 42.5873 48.8118 42.4623 48.7285C42.3373 48.6348 42.1811 48.5879 41.9936 48.5879C41.7436 48.5879 41.478 48.6712 41.1967 48.8379C40.9259 48.9941 40.7228 49.1764 40.5873 49.3848C40.5353 49.4681 40.504 49.6035 40.4936 49.791C40.4832 49.9785 40.478 50.1191 40.478 50.2129C40.478 50.2858 40.478 50.3848 40.478 50.5098C40.4884 50.6243 40.4988 50.7441 40.5092 50.8691C40.5196 50.9941 40.5301 51.1139 40.5405 51.2285C40.5613 51.3431 40.5873 51.4316 40.6186 51.4941C40.6498 51.5879 40.7176 51.6764 40.8217 51.7598C40.9259 51.8327 41.0405 51.9004 41.1655 51.9629C41.2905 52.0254 41.4155 52.0723 41.5405 52.1035C41.6759 52.1348 41.7905 52.1504 41.8842 52.1504C42.103 52.1504 42.2801 52.0671 42.4155 51.9004C42.5509 51.7337 42.6551 51.5358 42.728 51.3066C42.8113 51.0775 42.8634 50.8431 42.8842 50.6035C42.9155 50.3535 42.9311 50.1504 42.9311 49.9941ZM51.5405 48.9316C51.3946 48.9421 51.2696 48.9316 51.1655 48.9004C51.0613 48.8587 50.9571 48.8171 50.853 48.7754C50.7592 48.7337 50.6655 48.6973 50.5717 48.666C50.478 48.6243 50.3738 48.6087 50.2592 48.6191C50.0509 48.6296 49.8634 48.6868 49.6967 48.791C49.5405 48.8952 49.3946 49.0254 49.2592 49.1816C49.1342 49.3379 49.0248 49.515 48.9311 49.7129C48.8373 49.9004 48.7644 50.0879 48.7123 50.2754C48.6811 50.4004 48.6551 50.5931 48.6342 50.8535C48.6238 51.1035 48.6186 51.3743 48.6186 51.666C48.6082 51.9681 48.603 52.2546 48.603 52.5254C48.603 52.7962 48.5926 53.0098 48.5717 53.166C48.5613 53.3327 48.5353 53.5306 48.4936 53.7598C48.4519 53.9785 48.3842 54.1868 48.2905 54.3848C48.2071 54.5827 48.0926 54.7493 47.9467 54.8848C47.8009 55.0202 47.6134 55.0879 47.3842 55.0879C47.2071 55.0879 47.0509 55.0358 46.9155 54.9316C46.7905 54.8275 46.6811 54.6921 46.5873 54.5254C46.504 54.3483 46.4311 54.1452 46.3686 53.916C46.3165 53.6868 46.2748 53.4525 46.2436 53.2129C46.2123 52.9629 46.1863 52.7129 46.1655 52.4629C46.1551 52.2129 46.1446 51.9785 46.1342 51.7598C46.1342 51.5306 46.1342 51.3223 46.1342 51.1348C46.1446 50.9473 46.1498 50.7962 46.1498 50.6816C46.1394 50.3171 46.1186 49.9525 46.0873 49.5879C46.0665 49.2129 46.0561 48.8431 46.0561 48.4785C46.0561 48.2493 46.0665 47.9941 46.0873 47.7129C46.1082 47.4316 46.1655 47.1712 46.2592 46.9316C46.353 46.6816 46.4884 46.4733 46.6655 46.3066C46.853 46.14 47.1082 46.0566 47.4311 46.0566C47.6082 46.0566 47.7592 46.1139 47.8842 46.2285C48.0092 46.3431 48.1082 46.4837 48.1811 46.6504C48.2644 46.8171 48.3269 46.9941 48.3686 47.1816C48.4103 47.3691 48.4363 47.541 48.4467 47.6973C48.6967 47.291 48.978 46.9629 49.2905 46.7129C49.603 46.4525 50.0092 46.3118 50.5092 46.291C50.7592 46.2806 51.004 46.3066 51.2436 46.3691C51.4936 46.4212 51.7176 46.515 51.9155 46.6504C52.1238 46.7754 52.2905 46.9421 52.4155 47.1504C52.5509 47.3587 52.6238 47.6035 52.6342 47.8848C52.6551 48.2181 52.5561 48.4733 52.3373 48.6504C52.1186 48.8275 51.853 48.9212 51.5405 48.9316ZM59.5092 52.5723C59.5092 52.7598 59.4988 53.0046 59.478 53.3066C59.4676 53.6087 59.4259 53.9056 59.353 54.1973C59.2801 54.4785 59.1655 54.7233 59.0092 54.9316C58.853 55.14 58.6342 55.2441 58.353 55.2441C57.9676 55.2441 57.6707 55.1191 57.4623 54.8691C57.254 54.6191 57.1551 54.3066 57.1655 53.9316C56.8321 54.2233 56.4519 54.4525 56.0248 54.6191C55.6082 54.7858 55.1811 54.8691 54.7436 54.8691C54.4415 54.8691 54.1551 54.7962 53.8842 54.6504C53.6134 54.5046 53.3738 54.3171 53.1655 54.0879C52.9571 53.8587 52.7905 53.6035 52.6655 53.3223C52.5405 53.0306 52.478 52.7441 52.478 52.4629C52.478 51.9629 52.629 51.5254 52.9311 51.1504C53.2436 50.7754 53.6238 50.4577 54.0717 50.1973C54.5196 49.9264 54.9936 49.7129 55.4936 49.5566C56.004 49.4004 56.4571 49.2962 56.853 49.2441C56.853 49.1921 56.853 49.1452 56.853 49.1035C56.8634 49.0618 56.8686 49.015 56.8686 48.9629C56.8686 48.64 56.7801 48.3796 56.603 48.1816C56.4259 47.9837 56.1759 47.8848 55.853 47.8848C55.5926 47.8848 55.3686 47.9316 55.1811 48.0254C54.9936 48.1087 54.8165 48.2077 54.6498 48.3223C54.4832 48.4264 54.3165 48.5254 54.1498 48.6191C53.9832 48.7025 53.7957 48.7441 53.5873 48.7441C53.3582 48.7441 53.1603 48.6712 52.9936 48.5254C52.8373 48.3796 52.7592 48.1921 52.7592 47.9629C52.7592 47.6191 52.8582 47.3066 53.0561 47.0254C53.2644 46.7441 53.5196 46.5098 53.8217 46.3223C54.1342 46.1243 54.4676 45.9733 54.8217 45.8691C55.1863 45.7546 55.5196 45.6973 55.8217 45.6973C56.103 45.6973 56.3842 45.7337 56.6655 45.8066C56.9467 45.8691 57.2123 45.9733 57.4623 46.1191C57.7123 46.2546 57.9363 46.4264 58.1342 46.6348C58.3426 46.8327 58.5092 47.0671 58.6342 47.3379C58.8217 47.7233 58.9728 48.1348 59.0873 48.5723C59.2019 48.9993 59.2905 49.4421 59.353 49.9004C59.4155 50.3483 59.4571 50.8014 59.478 51.2598C59.4988 51.7077 59.5092 52.1452 59.5092 52.5723ZM57.0092 52.0723L56.9623 51.0098C56.9415 51.0098 56.9207 51.0098 56.8998 51.0098C56.879 50.9993 56.8582 50.9941 56.8373 50.9941C56.7019 50.9941 56.5301 51.0306 56.3217 51.1035C56.1238 51.166 55.9311 51.2598 55.7436 51.3848C55.5561 51.4993 55.3946 51.6296 55.2592 51.7754C55.1342 51.9212 55.0717 52.0723 55.0717 52.2285C55.0717 52.3743 55.1238 52.4733 55.228 52.5254C55.3321 52.5775 55.4519 52.6035 55.5873 52.6035C55.8165 52.6035 56.0613 52.5462 56.3217 52.4316C56.5821 52.3066 56.8113 52.1868 57.0092 52.0723ZM73.6967 49.6191C73.6967 49.8171 73.6967 50.0879 73.6967 50.4316C73.6967 50.765 73.6863 51.1296 73.6655 51.5254C73.6551 51.9212 73.6238 52.3223 73.5717 52.7285C73.5196 53.1243 73.4363 53.4837 73.3217 53.8066C73.2176 54.1296 73.0821 54.3952 72.9155 54.6035C72.7488 54.8118 72.5353 54.916 72.2748 54.916C72.0457 54.916 71.8686 54.8223 71.7436 54.6348C71.629 54.4368 71.5457 54.2077 71.4936 53.9473C71.4415 53.6868 71.4103 53.4212 71.3998 53.1504C71.3998 52.8796 71.3998 52.666 71.3998 52.5098C71.3998 52.041 71.4155 51.5827 71.4467 51.1348C71.478 50.6868 71.4936 50.2285 71.4936 49.7598C71.4936 49.7077 71.4936 49.6139 71.4936 49.4785C71.4936 49.3431 71.4832 49.2077 71.4623 49.0723C71.4415 48.9368 71.4051 48.8171 71.353 48.7129C71.3113 48.6087 71.2436 48.5566 71.1498 48.5566C70.9623 48.5566 70.8113 48.6556 70.6967 48.8535C70.5821 49.041 70.4884 49.265 70.4155 49.5254C70.3426 49.7858 70.2905 50.0462 70.2592 50.3066C70.228 50.5566 70.2071 50.7441 70.1967 50.8691C70.1759 51.0046 70.1551 51.2077 70.1342 51.4785C70.1238 51.7493 70.103 52.0462 70.0717 52.3691C70.0509 52.6921 70.0092 53.0254 69.9467 53.3691C69.8946 53.7025 69.8217 54.0098 69.728 54.291C69.6446 54.5618 69.5353 54.7858 69.3998 54.9629C69.2644 55.14 69.0978 55.2285 68.8998 55.2285C68.6498 55.2285 68.4571 55.1191 68.3217 54.9004C68.1863 54.6816 68.0873 54.4264 68.0248 54.1348C67.9623 53.8431 67.9207 53.5462 67.8998 53.2441C67.8894 52.9421 67.8842 52.7077 67.8842 52.541C67.8842 52.3639 67.8842 52.1921 67.8842 52.0254C67.8946 51.8587 67.8998 51.6868 67.8998 51.5098C67.8998 51.4368 67.8998 51.3171 67.8998 51.1504C67.8998 50.9837 67.8946 50.8014 67.8842 50.6035C67.8842 50.3952 67.8738 50.1816 67.853 49.9629C67.8426 49.7441 67.8217 49.5462 67.7905 49.3691C67.7592 49.1816 67.7123 49.0306 67.6498 48.916C67.5873 48.8014 67.5144 48.7441 67.4311 48.7441C67.2957 48.7441 67.1707 48.8327 67.0561 49.0098C66.9415 49.1764 66.8426 49.3796 66.7592 49.6191C66.6759 49.8483 66.6082 50.0775 66.5561 50.3066C66.5144 50.5358 66.4936 50.7025 66.4936 50.8066V50.9004C66.4936 51.4004 66.5248 51.89 66.5873 52.3691C66.6498 52.8483 66.6811 53.3379 66.6811 53.8379C66.6811 54.1296 66.5873 54.4004 66.3998 54.6504C66.2123 54.89 65.9519 55.0098 65.6186 55.0098C65.379 55.0098 65.1811 54.9212 65.0248 54.7441C64.8686 54.5566 64.7384 54.3171 64.6342 54.0254C64.5301 53.7337 64.4467 53.416 64.3842 53.0723C64.3321 52.7181 64.2957 52.3743 64.2748 52.041C64.254 51.6973 64.2384 51.39 64.228 51.1191C64.228 50.8379 64.228 50.6296 64.228 50.4941C64.228 50.3379 64.2228 50.1087 64.2123 49.8066C64.2123 49.5046 64.2176 49.1764 64.228 48.8223C64.2488 48.4681 64.2801 48.1087 64.3217 47.7441C64.3634 47.3691 64.4311 47.0306 64.5248 46.7285C64.6186 46.4264 64.7384 46.1816 64.8842 45.9941C65.0405 45.7962 65.2384 45.6973 65.478 45.6973C65.7488 45.6973 65.9676 45.7702 66.1342 45.916C66.3113 46.0618 66.3998 46.2806 66.3998 46.5723C66.3998 46.6348 66.3946 46.6973 66.3842 46.7598C66.3842 46.8223 66.379 46.8796 66.3686 46.9316C66.4832 46.765 66.6238 46.5983 66.7905 46.4316C66.9571 46.2546 67.1342 46.0983 67.3217 45.9629C67.5196 45.8171 67.728 45.7025 67.9467 45.6191C68.1655 45.5254 68.3842 45.4785 68.603 45.4785C68.8113 45.4785 68.9988 45.5358 69.1655 45.6504C69.3321 45.765 69.478 45.9108 69.603 46.0879C69.728 46.2546 69.8321 46.4368 69.9155 46.6348C69.9988 46.8327 70.0561 47.0202 70.0873 47.1973C70.1915 47.0098 70.3165 46.8223 70.4623 46.6348C70.6186 46.4368 70.7853 46.265 70.9623 46.1191C71.1394 45.9733 71.3321 45.8535 71.5405 45.7598C71.7592 45.666 71.9832 45.6191 72.2123 45.6191C72.4311 45.6191 72.6186 45.6973 72.7748 45.8535C72.9311 46.0098 73.0665 46.2129 73.1811 46.4629C73.2957 46.7025 73.3842 46.9785 73.4467 47.291C73.5092 47.5931 73.5613 47.8952 73.603 48.1973C73.6446 48.4889 73.6707 48.765 73.6811 49.0254C73.6915 49.2754 73.6967 49.4733 73.6967 49.6191ZM81.3686 52.5723C81.3686 52.7598 81.3582 53.0046 81.3373 53.3066C81.3269 53.6087 81.2853 53.9056 81.2123 54.1973C81.1394 54.4785 81.0248 54.7233 80.8686 54.9316C80.7123 55.14 80.4936 55.2441 80.2123 55.2441C79.8269 55.2441 79.5301 55.1191 79.3217 54.8691C79.1134 54.6191 79.0144 54.3066 79.0248 53.9316C78.6915 54.2233 78.3113 54.4525 77.8842 54.6191C77.4676 54.7858 77.0405 54.8691 76.603 54.8691C76.3009 54.8691 76.0144 54.7962 75.7436 54.6504C75.4728 54.5046 75.2332 54.3171 75.0248 54.0879C74.8165 53.8587 74.6498 53.6035 74.5248 53.3223C74.3998 53.0306 74.3373 52.7441 74.3373 52.4629C74.3373 51.9629 74.4884 51.5254 74.7905 51.1504C75.103 50.7754 75.4832 50.4577 75.9311 50.1973C76.379 49.9264 76.853 49.7129 77.353 49.5566C77.8634 49.4004 78.3165 49.2962 78.7123 49.2441C78.7123 49.1921 78.7123 49.1452 78.7123 49.1035C78.7228 49.0618 78.728 49.015 78.728 48.9629C78.728 48.64 78.6394 48.3796 78.4623 48.1816C78.2853 47.9837 78.0353 47.8848 77.7123 47.8848C77.4519 47.8848 77.228 47.9316 77.0405 48.0254C76.853 48.1087 76.6759 48.2077 76.5092 48.3223C76.3426 48.4264 76.1759 48.5254 76.0092 48.6191C75.8426 48.7025 75.6551 48.7441 75.4467 48.7441C75.2176 48.7441 75.0196 48.6712 74.853 48.5254C74.6967 48.3796 74.6186 48.1921 74.6186 47.9629C74.6186 47.6191 74.7176 47.3066 74.9155 47.0254C75.1238 46.7441 75.379 46.5098 75.6811 46.3223C75.9936 46.1243 76.3269 45.9733 76.6811 45.8691C77.0457 45.7546 77.379 45.6973 77.6811 45.6973C77.9623 45.6973 78.2436 45.7337 78.5248 45.8066C78.8061 45.8691 79.0717 45.9733 79.3217 46.1191C79.5717 46.2546 79.7957 46.4264 79.9936 46.6348C80.2019 46.8327 80.3686 47.0671 80.4936 47.3379C80.6811 47.7233 80.8321 48.1348 80.9467 48.5723C81.0613 48.9993 81.1498 49.4421 81.2123 49.9004C81.2748 50.3483 81.3165 50.8014 81.3373 51.2598C81.3582 51.7077 81.3686 52.1452 81.3686 52.5723ZM78.8686 52.0723L78.8217 51.0098C78.8009 51.0098 78.7801 51.0098 78.7592 51.0098C78.7384 50.9993 78.7176 50.9941 78.6967 50.9941C78.5613 50.9941 78.3894 51.0306 78.1811 51.1035C77.9832 51.166 77.7905 51.2598 77.603 51.3848C77.4155 51.4993 77.254 51.6296 77.1186 51.7754C76.9936 51.9212 76.9311 52.0723 76.9311 52.2285C76.9311 52.3743 76.9832 52.4733 77.0873 52.5254C77.1915 52.5775 77.3113 52.6035 77.4467 52.6035C77.6759 52.6035 77.9207 52.5462 78.1811 52.4316C78.4415 52.3066 78.6707 52.1868 78.8686 52.0723ZM86.7436 55.2129C86.5665 55.2129 86.4259 55.1296 86.3217 54.9629C86.2176 54.8066 86.1394 54.6243 86.0873 54.416C86.0353 54.2077 85.9988 53.9993 85.978 53.791C85.9676 53.5723 85.9623 53.4056 85.9623 53.291C85.9623 52.9785 85.978 52.666 86.0092 52.3535C86.0509 52.041 86.0926 51.7285 86.1342 51.416C86.1863 51.1035 86.228 50.791 86.2592 50.4785C86.3009 50.166 86.3217 49.8535 86.3217 49.541C86.3217 49.416 86.3165 49.2806 86.3061 49.1348C86.2957 48.9889 86.2696 48.8535 86.228 48.7285C86.1967 48.5931 86.1394 48.4837 86.0561 48.4004C85.9728 48.3171 85.8634 48.2754 85.728 48.2754C85.6342 48.2754 85.5301 48.3535 85.4155 48.5098C85.3009 48.6556 85.1915 48.8275 85.0873 49.0254C84.9936 49.2129 84.9103 49.4056 84.8373 49.6035C84.7748 49.791 84.7436 49.9316 84.7436 50.0254C84.7436 50.2546 84.7436 50.4889 84.7436 50.7285C84.754 50.9577 84.7592 51.1921 84.7592 51.4316V52.3379C84.7488 52.5254 84.7332 52.7181 84.7123 52.916C84.6915 53.1139 84.6603 53.3066 84.6186 53.4941C84.5873 53.6816 84.5405 53.8639 84.478 54.041C84.4155 54.2077 84.3321 54.3587 84.228 54.4941C84.1342 54.6191 84.0196 54.7233 83.8842 54.8066C83.7488 54.89 83.5873 54.9316 83.3998 54.9316C83.1915 54.9316 83.0196 54.8639 82.8842 54.7285C82.7488 54.5931 82.6394 54.4212 82.5561 54.2129C82.4728 53.9941 82.4103 53.7546 82.3686 53.4941C82.3373 53.2233 82.3113 52.9629 82.2905 52.7129C82.2801 52.4525 82.2748 52.2181 82.2748 52.0098C82.2853 51.791 82.2905 51.6191 82.2905 51.4941V50.7598C82.2905 50.3639 82.2801 49.9733 82.2592 49.5879C82.2488 49.2025 82.2436 48.8171 82.2436 48.4316C82.2436 48.2233 82.2436 47.9577 82.2436 47.6348C82.254 47.3118 82.2957 46.9993 82.3686 46.6973C82.4415 46.3848 82.5613 46.1191 82.728 45.9004C82.8946 45.6816 83.1394 45.5723 83.4623 45.5723C83.6082 45.5723 83.7384 45.6191 83.853 45.7129C83.9676 45.8066 84.0665 45.9212 84.1498 46.0566C84.2436 46.1921 84.3165 46.3379 84.3686 46.4941C84.4311 46.6504 84.478 46.7858 84.5092 46.9004C84.6134 46.7546 84.7332 46.6139 84.8686 46.4785C85.0144 46.3431 85.1759 46.2233 85.353 46.1191C85.5301 46.015 85.728 45.9316 85.9467 45.8691C86.1655 45.8066 86.4155 45.7754 86.6967 45.7754C87.228 45.7754 87.6394 45.9056 87.9311 46.166C88.2332 46.416 88.4519 46.7337 88.5873 47.1191C88.7332 47.4941 88.8217 47.9004 88.853 48.3379C88.8842 48.7754 88.8998 49.1712 88.8998 49.5254C88.8998 49.7025 88.8842 49.9681 88.853 50.3223C88.8217 50.666 88.7696 51.0514 88.6967 51.4785C88.6342 51.8952 88.5457 52.3275 88.4311 52.7754C88.3165 53.2129 88.1811 53.6139 88.0248 53.9785C87.8686 54.3431 87.6811 54.64 87.4623 54.8691C87.254 55.0983 87.0144 55.2129 86.7436 55.2129ZM96.5092 44.4941C96.5092 45.2546 96.478 46.0098 96.4155 46.7598C96.3634 47.5098 96.3373 48.265 96.3373 49.0254C96.3373 49.64 96.353 50.2493 96.3842 50.8535C96.4259 51.4577 96.4467 52.0671 96.4467 52.6816C96.4467 52.8483 96.4415 53.0514 96.4311 53.291C96.4207 53.5202 96.3842 53.7441 96.3217 53.9629C96.2696 54.1816 96.1759 54.3691 96.0405 54.5254C95.9155 54.6816 95.7332 54.7598 95.4936 54.7598C95.1811 54.7598 94.9207 54.6452 94.7123 54.416C94.5144 54.1764 94.3894 53.9108 94.3373 53.6191C94.1394 53.9941 93.853 54.3118 93.478 54.5723C93.103 54.8327 92.6967 54.9629 92.2592 54.9629C91.7905 54.9629 91.3842 54.8014 91.0405 54.4785C90.7071 54.1556 90.4259 53.765 90.1967 53.3066C89.978 52.8483 89.8113 52.3691 89.6967 51.8691C89.5926 51.3691 89.5405 50.9368 89.5405 50.5723C89.5405 50.3118 89.5561 50.015 89.5873 49.6816C89.6186 49.3483 89.6707 49.0098 89.7436 48.666C89.8269 48.3223 89.9311 47.9889 90.0561 47.666C90.1811 47.3327 90.3373 47.0358 90.5248 46.7754C90.7228 46.515 90.9519 46.3066 91.2123 46.1504C91.4832 45.9941 91.7905 45.916 92.1342 45.916C92.5092 45.916 92.8686 46.0254 93.2123 46.2441C93.5561 46.4629 93.8165 46.7337 93.9936 47.0566L94.1342 44.5723C94.1446 44.3743 94.1603 44.1452 94.1811 43.8848C94.2019 43.6139 94.2436 43.3587 94.3061 43.1191C94.379 42.8796 94.4884 42.6764 94.6342 42.5098C94.7801 42.3431 94.9936 42.2598 95.2748 42.2598C95.5769 42.2598 95.8113 42.3327 95.978 42.4785C96.1446 42.6243 96.2644 42.8118 96.3373 43.041C96.4207 43.2598 96.4676 43.4993 96.478 43.7598C96.4988 44.0202 96.5092 44.265 96.5092 44.4941ZM93.9623 51.4316C93.9623 51.1921 93.9571 50.9577 93.9467 50.7285C93.9363 50.4993 93.9363 50.265 93.9467 50.0254C93.8842 49.89 93.8113 49.7441 93.728 49.5879C93.6446 49.4212 93.5405 49.2702 93.4155 49.1348C93.3009 48.9889 93.1707 48.8691 93.0248 48.7754C92.879 48.6816 92.7228 48.6348 92.5561 48.6348C92.3686 48.6348 92.2176 48.6921 92.103 48.8066C91.9884 48.9212 91.9051 49.0618 91.853 49.2285C91.8009 49.3848 91.7644 49.5566 91.7436 49.7441C91.7332 49.9316 91.728 50.0931 91.728 50.2285C91.728 50.3535 91.7384 50.541 91.7592 50.791C91.7801 51.0306 91.8165 51.2754 91.8686 51.5254C91.9311 51.7754 92.0144 51.9941 92.1186 52.1816C92.2228 52.3691 92.3634 52.4629 92.5405 52.4629C92.6759 52.4629 92.8113 52.4368 92.9467 52.3848C93.0821 52.3223 93.2071 52.2493 93.3217 52.166C93.4467 52.0723 93.5613 51.9733 93.6655 51.8691C93.7801 51.7546 93.879 51.6504 93.9623 51.5566V51.4316ZM104.181 52.5723C104.181 52.7598 104.171 53.0046 104.15 53.3066C104.139 53.6087 104.098 53.9056 104.025 54.1973C103.952 54.4785 103.837 54.7233 103.681 54.9316C103.525 55.14 103.306 55.2441 103.025 55.2441C102.639 55.2441 102.343 55.1191 102.134 54.8691C101.926 54.6191 101.827 54.3066 101.837 53.9316C101.504 54.2233 101.124 54.4525 100.697 54.6191C100.28 54.7858 99.853 54.8691 99.4155 54.8691C99.1134 54.8691 98.8269 54.7962 98.5561 54.6504C98.2853 54.5046 98.0457 54.3171 97.8373 54.0879C97.629 53.8587 97.4623 53.6035 97.3373 53.3223C97.2123 53.0306 97.1498 52.7441 97.1498 52.4629C97.1498 51.9629 97.3009 51.5254 97.603 51.1504C97.9155 50.7754 98.2957 50.4577 98.7436 50.1973C99.1915 49.9264 99.6655 49.7129 100.165 49.5566C100.676 49.4004 101.129 49.2962 101.525 49.2441C101.525 49.1921 101.525 49.1452 101.525 49.1035C101.535 49.0618 101.54 49.015 101.54 48.9629C101.54 48.64 101.452 48.3796 101.275 48.1816C101.098 47.9837 100.848 47.8848 100.525 47.8848C100.264 47.8848 100.04 47.9316 99.853 48.0254C99.6655 48.1087 99.4884 48.2077 99.3217 48.3223C99.1551 48.4264 98.9884 48.5254 98.8217 48.6191C98.6551 48.7025 98.4676 48.7441 98.2592 48.7441C98.0301 48.7441 97.8321 48.6712 97.6655 48.5254C97.5092 48.3796 97.4311 48.1921 97.4311 47.9629C97.4311 47.6191 97.5301 47.3066 97.728 47.0254C97.9363 46.7441 98.1915 46.5098 98.4936 46.3223C98.8061 46.1243 99.1394 45.9733 99.4936 45.8691C99.8582 45.7546 100.192 45.6973 100.494 45.6973C100.775 45.6973 101.056 45.7337 101.337 45.8066C101.619 45.8691 101.884 45.9733 102.134 46.1191C102.384 46.2546 102.608 46.4264 102.806 46.6348C103.014 46.8327 103.181 47.0671 103.306 47.3379C103.494 47.7233 103.645 48.1348 103.759 48.5723C103.874 48.9993 103.962 49.4421 104.025 49.9004C104.087 50.3483 104.129 50.8014 104.15 51.2598C104.171 51.7077 104.181 52.1452 104.181 52.5723ZM101.681 52.0723L101.634 51.0098C101.613 51.0098 101.593 51.0098 101.572 51.0098C101.551 50.9993 101.53 50.9941 101.509 50.9941C101.374 50.9941 101.202 51.0306 100.994 51.1035C100.796 51.166 100.603 51.2598 100.415 51.3848C100.228 51.4993 100.067 51.6296 99.9311 51.7754C99.8061 51.9212 99.7436 52.0723 99.7436 52.2285C99.7436 52.3743 99.7957 52.4733 99.8998 52.5254C100.004 52.5775 100.124 52.6035 100.259 52.6035C100.488 52.6035 100.733 52.5462 100.994 52.4316C101.254 52.3066 101.483 52.1868 101.681 52.0723ZM110.54 48.9316C110.395 48.9421 110.27 48.9316 110.165 48.9004C110.061 48.8587 109.957 48.8171 109.853 48.7754C109.759 48.7337 109.665 48.6973 109.572 48.666C109.478 48.6243 109.374 48.6087 109.259 48.6191C109.051 48.6296 108.863 48.6868 108.697 48.791C108.54 48.8952 108.395 49.0254 108.259 49.1816C108.134 49.3379 108.025 49.515 107.931 49.7129C107.837 49.9004 107.764 50.0879 107.712 50.2754C107.681 50.4004 107.655 50.5931 107.634 50.8535C107.624 51.1035 107.619 51.3743 107.619 51.666C107.608 51.9681 107.603 52.2546 107.603 52.5254C107.603 52.7962 107.593 53.0098 107.572 53.166C107.561 53.3327 107.535 53.5306 107.494 53.7598C107.452 53.9785 107.384 54.1868 107.29 54.3848C107.207 54.5827 107.093 54.7493 106.947 54.8848C106.801 55.0202 106.613 55.0879 106.384 55.0879C106.207 55.0879 106.051 55.0358 105.915 54.9316C105.79 54.8275 105.681 54.6921 105.587 54.5254C105.504 54.3483 105.431 54.1452 105.369 53.916C105.317 53.6868 105.275 53.4525 105.244 53.2129C105.212 52.9629 105.186 52.7129 105.165 52.4629C105.155 52.2129 105.145 51.9785 105.134 51.7598C105.134 51.5306 105.134 51.3223 105.134 51.1348C105.145 50.9473 105.15 50.7962 105.15 50.6816C105.139 50.3171 105.119 49.9525 105.087 49.5879C105.067 49.2129 105.056 48.8431 105.056 48.4785C105.056 48.2493 105.067 47.9941 105.087 47.7129C105.108 47.4316 105.165 47.1712 105.259 46.9316C105.353 46.6816 105.488 46.4733 105.665 46.3066C105.853 46.14 106.108 46.0566 106.431 46.0566C106.608 46.0566 106.759 46.1139 106.884 46.2285C107.009 46.3431 107.108 46.4837 107.181 46.6504C107.264 46.8171 107.327 46.9941 107.369 47.1816C107.41 47.3691 107.436 47.541 107.447 47.6973C107.697 47.291 107.978 46.9629 108.29 46.7129C108.603 46.4525 109.009 46.3118 109.509 46.291C109.759 46.2806 110.004 46.3066 110.244 46.3691C110.494 46.4212 110.718 46.515 110.915 46.6504C111.124 46.7754 111.29 46.9421 111.415 47.1504C111.551 47.3587 111.624 47.6035 111.634 47.8848C111.655 48.2181 111.556 48.4733 111.337 48.6504C111.119 48.8275 110.853 48.9212 110.54 48.9316ZM122.181 51.9941C122.181 52.3483 122.067 52.6973 121.837 53.041C121.619 53.3743 121.337 53.6764 120.994 53.9473C120.66 54.2077 120.301 54.4212 119.915 54.5879C119.53 54.7441 119.176 54.8223 118.853 54.8223C118.301 54.8223 117.806 54.6868 117.369 54.416C116.942 54.1348 116.582 53.7806 116.29 53.3535C115.999 52.9264 115.775 52.4577 115.619 51.9473C115.473 51.4264 115.4 50.9212 115.4 50.4316C115.4 49.9108 115.473 49.3535 115.619 48.7598C115.764 48.166 115.983 47.6191 116.275 47.1191C116.577 46.6191 116.952 46.2025 117.4 45.8691C117.858 45.5358 118.4 45.3691 119.025 45.3691C119.379 45.3691 119.718 45.4316 120.04 45.5566C120.363 45.6712 120.645 45.8379 120.884 46.0566C121.124 46.2754 121.317 46.5358 121.462 46.8379C121.608 47.14 121.681 47.4785 121.681 47.8535C121.681 48.3431 121.577 48.8014 121.369 49.2285C121.16 49.6556 120.884 50.0254 120.54 50.3379C120.197 50.6504 119.801 50.9056 119.353 51.1035C118.905 51.291 118.447 51.3952 117.978 51.416C118.02 51.7181 118.139 51.9368 118.337 52.0723C118.546 52.2077 118.79 52.2754 119.072 52.2754C119.28 52.2754 119.483 52.2233 119.681 52.1191C119.879 52.015 120.072 51.9004 120.259 51.7754C120.447 51.64 120.629 51.5202 120.806 51.416C120.994 51.3118 121.181 51.2598 121.369 51.2598C121.577 51.2598 121.764 51.3275 121.931 51.4629C122.098 51.5983 122.181 51.7754 122.181 51.9941ZM119.65 48.166C119.65 48.0306 119.613 47.89 119.54 47.7441C119.468 47.5983 119.353 47.5254 119.197 47.5254C118.968 47.5254 118.775 47.5879 118.619 47.7129C118.462 47.8275 118.332 47.9785 118.228 48.166C118.124 48.3431 118.04 48.5358 117.978 48.7441C117.926 48.9525 117.895 49.1452 117.884 49.3223C118.03 49.291 118.202 49.2493 118.4 49.1973C118.608 49.1452 118.801 49.0775 118.978 48.9941C119.165 48.9004 119.322 48.7858 119.447 48.6504C119.582 48.515 119.65 48.3535 119.65 48.166ZM125.728 45.3066C125.728 45.8691 125.702 46.4368 125.65 47.0098C125.608 47.5723 125.587 48.14 125.587 48.7129C125.587 49.4525 125.608 50.1921 125.65 50.9316C125.702 51.6712 125.728 52.416 125.728 53.166C125.728 53.3535 125.718 53.5671 125.697 53.8066C125.676 54.0358 125.624 54.2493 125.54 54.4473C125.468 54.6452 125.353 54.8118 125.197 54.9473C125.04 55.0827 124.832 55.1504 124.572 55.1504C124.322 55.1504 124.103 55.0254 123.915 54.7754C123.738 54.5358 123.587 54.2285 123.462 53.8535C123.348 53.4681 123.249 53.041 123.165 52.5723C123.093 52.1035 123.035 51.6504 122.994 51.2129C122.962 50.765 122.936 50.3587 122.915 49.9941C122.905 49.6191 122.9 49.3431 122.9 49.166C122.9 48.9681 122.905 48.6816 122.915 48.3066C122.936 47.9316 122.973 47.5254 123.025 47.0879C123.077 46.6504 123.145 46.2077 123.228 45.7598C123.322 45.3014 123.442 44.89 123.587 44.5254C123.733 44.1504 123.905 43.8483 124.103 43.6191C124.311 43.3796 124.556 43.2598 124.837 43.2598C125.067 43.2598 125.238 43.3379 125.353 43.4941C125.478 43.64 125.567 43.8223 125.619 44.041C125.671 44.2493 125.702 44.4733 125.712 44.7129C125.723 44.9421 125.728 45.14 125.728 45.3066ZM133.462 51.9941C133.462 52.3483 133.348 52.6973 133.119 53.041C132.9 53.3743 132.619 53.6764 132.275 53.9473C131.942 54.2077 131.582 54.4212 131.197 54.5879C130.811 54.7441 130.457 54.8223 130.134 54.8223C129.582 54.8223 129.087 54.6868 128.65 54.416C128.223 54.1348 127.863 53.7806 127.572 53.3535C127.28 52.9264 127.056 52.4577 126.9 51.9473C126.754 51.4264 126.681 50.9212 126.681 50.4316C126.681 49.9108 126.754 49.3535 126.9 48.7598C127.046 48.166 127.264 47.6191 127.556 47.1191C127.858 46.6191 128.233 46.2025 128.681 45.8691C129.139 45.5358 129.681 45.3691 130.306 45.3691C130.66 45.3691 130.999 45.4316 131.322 45.5566C131.645 45.6712 131.926 45.8379 132.165 46.0566C132.405 46.2754 132.598 46.5358 132.744 46.8379C132.889 47.14 132.962 47.4785 132.962 47.8535C132.962 48.3431 132.858 48.8014 132.65 49.2285C132.442 49.6556 132.165 50.0254 131.822 50.3379C131.478 50.6504 131.082 50.9056 130.634 51.1035C130.186 51.291 129.728 51.3952 129.259 51.416C129.301 51.7181 129.421 51.9368 129.619 52.0723C129.827 52.2077 130.072 52.2754 130.353 52.2754C130.561 52.2754 130.764 52.2233 130.962 52.1191C131.16 52.015 131.353 51.9004 131.54 51.7754C131.728 51.64 131.91 51.5202 132.087 51.416C132.275 51.3118 132.462 51.2598 132.65 51.2598C132.858 51.2598 133.046 51.3275 133.212 51.4629C133.379 51.5983 133.462 51.7754 133.462 51.9941ZM130.931 48.166C130.931 48.0306 130.895 47.89 130.822 47.7441C130.749 47.5983 130.634 47.5254 130.478 47.5254C130.249 47.5254 130.056 47.5879 129.9 47.7129C129.744 47.8275 129.613 47.9785 129.509 48.166C129.405 48.3431 129.322 48.5358 129.259 48.7441C129.207 48.9525 129.176 49.1452 129.165 49.3223C129.311 49.291 129.483 49.2493 129.681 49.1973C129.889 49.1452 130.082 49.0775 130.259 48.9941C130.447 48.9004 130.603 48.7858 130.728 48.6504C130.863 48.515 130.931 48.3535 130.931 48.166ZM144.4 51.9941C144.4 52.3483 144.285 52.6973 144.056 53.041C143.837 53.3743 143.556 53.6764 143.212 53.9473C142.879 54.2077 142.52 54.4212 142.134 54.5879C141.749 54.7441 141.395 54.8223 141.072 54.8223C140.52 54.8223 140.025 54.6868 139.587 54.416C139.16 54.1348 138.801 53.7806 138.509 53.3535C138.218 52.9264 137.994 52.4577 137.837 51.9473C137.692 51.4264 137.619 50.9212 137.619 50.4316C137.619 49.9108 137.692 49.3535 137.837 48.7598C137.983 48.166 138.202 47.6191 138.494 47.1191C138.796 46.6191 139.171 46.2025 139.619 45.8691C140.077 45.5358 140.619 45.3691 141.244 45.3691C141.598 45.3691 141.936 45.4316 142.259 45.5566C142.582 45.6712 142.863 45.8379 143.103 46.0566C143.343 46.2754 143.535 46.5358 143.681 46.8379C143.827 47.14 143.9 47.4785 143.9 47.8535C143.9 48.3431 143.796 48.8014 143.587 49.2285C143.379 49.6556 143.103 50.0254 142.759 50.3379C142.415 50.6504 142.02 50.9056 141.572 51.1035C141.124 51.291 140.665 51.3952 140.197 51.416C140.238 51.7181 140.358 51.9368 140.556 52.0723C140.764 52.2077 141.009 52.2754 141.29 52.2754C141.499 52.2754 141.702 52.2233 141.9 52.1191C142.098 52.015 142.29 51.9004 142.478 51.7754C142.665 51.64 142.848 51.5202 143.025 51.416C143.212 51.3118 143.4 51.2598 143.587 51.2598C143.796 51.2598 143.983 51.3275 144.15 51.4629C144.317 51.5983 144.4 51.7754 144.4 51.9941ZM141.869 48.166C141.869 48.0306 141.832 47.89 141.759 47.7441C141.686 47.5983 141.572 47.5254 141.415 47.5254C141.186 47.5254 140.994 47.5879 140.837 47.7129C140.681 47.8275 140.551 47.9785 140.447 48.166C140.343 48.3431 140.259 48.5358 140.197 48.7441C140.145 48.9525 140.113 49.1452 140.103 49.3223C140.249 49.291 140.421 49.2493 140.619 49.1973C140.827 49.1452 141.02 49.0775 141.197 48.9941C141.384 48.9004 141.54 48.7858 141.665 48.6504C141.801 48.515 141.869 48.3535 141.869 48.166ZM154.509 49.6191C154.509 49.8171 154.509 50.0879 154.509 50.4316C154.509 50.765 154.499 51.1296 154.478 51.5254C154.468 51.9212 154.436 52.3223 154.384 52.7285C154.332 53.1243 154.249 53.4837 154.134 53.8066C154.03 54.1296 153.895 54.3952 153.728 54.6035C153.561 54.8118 153.348 54.916 153.087 54.916C152.858 54.916 152.681 54.8223 152.556 54.6348C152.442 54.4368 152.358 54.2077 152.306 53.9473C152.254 53.6868 152.223 53.4212 152.212 53.1504C152.212 52.8796 152.212 52.666 152.212 52.5098C152.212 52.041 152.228 51.5827 152.259 51.1348C152.29 50.6868 152.306 50.2285 152.306 49.7598C152.306 49.7077 152.306 49.6139 152.306 49.4785C152.306 49.3431 152.296 49.2077 152.275 49.0723C152.254 48.9368 152.218 48.8171 152.165 48.7129C152.124 48.6087 152.056 48.5566 151.962 48.5566C151.775 48.5566 151.624 48.6556 151.509 48.8535C151.395 49.041 151.301 49.265 151.228 49.5254C151.155 49.7858 151.103 50.0462 151.072 50.3066C151.04 50.5566 151.02 50.7441 151.009 50.8691C150.988 51.0046 150.968 51.2077 150.947 51.4785C150.936 51.7493 150.915 52.0462 150.884 52.3691C150.863 52.6921 150.822 53.0254 150.759 53.3691C150.707 53.7025 150.634 54.0098 150.54 54.291C150.457 54.5618 150.348 54.7858 150.212 54.9629C150.077 55.14 149.91 55.2285 149.712 55.2285C149.462 55.2285 149.27 55.1191 149.134 54.9004C148.999 54.6816 148.9 54.4264 148.837 54.1348C148.775 53.8431 148.733 53.5462 148.712 53.2441C148.702 52.9421 148.697 52.7077 148.697 52.541C148.697 52.3639 148.697 52.1921 148.697 52.0254C148.707 51.8587 148.712 51.6868 148.712 51.5098C148.712 51.4368 148.712 51.3171 148.712 51.1504C148.712 50.9837 148.707 50.8014 148.697 50.6035C148.697 50.3952 148.686 50.1816 148.665 49.9629C148.655 49.7441 148.634 49.5462 148.603 49.3691C148.572 49.1816 148.525 49.0306 148.462 48.916C148.4 48.8014 148.327 48.7441 148.244 48.7441C148.108 48.7441 147.983 48.8327 147.869 49.0098C147.754 49.1764 147.655 49.3796 147.572 49.6191C147.488 49.8483 147.421 50.0775 147.369 50.3066C147.327 50.5358 147.306 50.7025 147.306 50.8066V50.9004C147.306 51.4004 147.337 51.89 147.4 52.3691C147.462 52.8483 147.494 53.3379 147.494 53.8379C147.494 54.1296 147.4 54.4004 147.212 54.6504C147.025 54.89 146.764 55.0098 146.431 55.0098C146.192 55.0098 145.994 54.9212 145.837 54.7441C145.681 54.5566 145.551 54.3171 145.447 54.0254C145.343 53.7337 145.259 53.416 145.197 53.0723C145.145 52.7181 145.108 52.3743 145.087 52.041C145.067 51.6973 145.051 51.39 145.04 51.1191C145.04 50.8379 145.04 50.6296 145.04 50.4941C145.04 50.3379 145.035 50.1087 145.025 49.8066C145.025 49.5046 145.03 49.1764 145.04 48.8223C145.061 48.4681 145.093 48.1087 145.134 47.7441C145.176 47.3691 145.244 47.0306 145.337 46.7285C145.431 46.4264 145.551 46.1816 145.697 45.9941C145.853 45.7962 146.051 45.6973 146.29 45.6973C146.561 45.6973 146.78 45.7702 146.947 45.916C147.124 46.0618 147.212 46.2806 147.212 46.5723C147.212 46.6348 147.207 46.6973 147.197 46.7598C147.197 46.8223 147.192 46.8796 147.181 46.9316C147.296 46.765 147.436 46.5983 147.603 46.4316C147.77 46.2546 147.947 46.0983 148.134 45.9629C148.332 45.8171 148.54 45.7025 148.759 45.6191C148.978 45.5254 149.197 45.4785 149.415 45.4785C149.624 45.4785 149.811 45.5358 149.978 45.6504C150.145 45.765 150.29 45.9108 150.415 46.0879C150.54 46.2546 150.645 46.4368 150.728 46.6348C150.811 46.8327 150.869 47.0202 150.9 47.1973C151.004 47.0098 151.129 46.8223 151.275 46.6348C151.431 46.4368 151.598 46.265 151.775 46.1191C151.952 45.9733 152.145 45.8535 152.353 45.7598C152.572 45.666 152.796 45.6191 153.025 45.6191C153.244 45.6191 153.431 45.6973 153.587 45.8535C153.744 46.0098 153.879 46.2129 153.994 46.4629C154.108 46.7025 154.197 46.9785 154.259 47.291C154.322 47.5931 154.374 47.8952 154.415 48.1973C154.457 48.4889 154.483 48.765 154.494 49.0254C154.504 49.2754 154.509 49.4733 154.509 49.6191ZM162.931 49.6191C162.931 49.9212 162.905 50.265 162.853 50.6504C162.811 51.0254 162.738 51.4108 162.634 51.8066C162.54 52.2025 162.41 52.5879 162.244 52.9629C162.087 53.3379 161.889 53.6764 161.65 53.9785C161.421 54.2702 161.15 54.5046 160.837 54.6816C160.535 54.8587 160.181 54.9473 159.775 54.9473C159.348 54.9473 158.957 54.8483 158.603 54.6504C158.259 54.4525 157.962 54.1816 157.712 53.8379C157.681 54.1191 157.567 54.3691 157.369 54.5879C157.171 54.7962 156.921 54.9004 156.619 54.9004C156.442 54.9004 156.29 54.8118 156.165 54.6348C156.051 54.4577 155.957 54.2337 155.884 53.9629C155.811 53.6816 155.754 53.3743 155.712 53.041C155.681 52.7077 155.66 52.3848 155.65 52.0723C155.639 51.7598 155.634 51.4785 155.634 51.2285C155.634 50.9785 155.634 50.8014 155.634 50.6973C155.634 50.3431 155.634 49.9889 155.634 49.6348C155.645 49.2806 155.655 48.9212 155.665 48.5566C155.665 48.3796 155.66 48.1139 155.65 47.7598C155.65 47.4056 155.655 47.015 155.665 46.5879C155.676 46.1504 155.697 45.7077 155.728 45.2598C155.77 44.8014 155.837 44.3848 155.931 44.0098C156.025 43.6348 156.155 43.3275 156.322 43.0879C156.488 42.8483 156.702 42.7233 156.962 42.7129C157.171 42.7129 157.348 42.7858 157.494 42.9316C157.639 43.0775 157.759 43.2702 157.853 43.5098C157.957 43.7493 158.035 44.0202 158.087 44.3223C158.15 44.6139 158.192 44.9108 158.212 45.2129C158.244 45.5046 158.259 45.7858 158.259 46.0566C158.27 46.3171 158.275 46.5306 158.275 46.6973C158.275 46.7285 158.27 46.8014 158.259 46.916C158.259 47.0202 158.259 47.1348 158.259 47.2598C158.259 47.3848 158.259 47.4993 158.259 47.6035C158.259 47.6973 158.259 47.7493 158.259 47.7598C158.353 47.5618 158.488 47.3691 158.665 47.1816C158.843 46.9941 159.04 46.8275 159.259 46.6816C159.478 46.5358 159.707 46.416 159.947 46.3223C160.186 46.2285 160.415 46.1816 160.634 46.1816C161.072 46.1816 161.436 46.2962 161.728 46.5254C162.03 46.7441 162.27 47.0254 162.447 47.3691C162.624 47.7129 162.749 48.0879 162.822 48.4941C162.895 48.89 162.931 49.265 162.931 49.6191ZM160.634 50.0879C160.634 49.9629 160.624 49.8275 160.603 49.6816C160.593 49.5358 160.556 49.4004 160.494 49.2754C160.442 49.1504 160.363 49.0462 160.259 48.9629C160.165 48.8796 160.04 48.8379 159.884 48.8379C159.718 48.8379 159.551 48.8743 159.384 48.9473C159.228 49.0202 159.077 49.1139 158.931 49.2285C158.785 49.3431 158.65 49.4681 158.525 49.6035C158.4 49.7285 158.29 49.8535 158.197 49.9785L158.04 51.3691C158.207 51.6087 158.41 51.8014 158.65 51.9473C158.889 52.0827 159.16 52.1504 159.462 52.1504C159.692 52.1504 159.879 52.0775 160.025 51.9316C160.181 51.7858 160.301 51.6087 160.384 51.4004C160.478 51.1816 160.54 50.9525 160.572 50.7129C160.613 50.4733 160.634 50.265 160.634 50.0879ZM166.853 55.2285C166.322 55.2285 165.858 55.0879 165.462 54.8066C165.067 54.5254 164.733 54.166 164.462 53.7285C164.192 53.291 163.988 52.8066 163.853 52.2754C163.718 51.7337 163.65 51.2025 163.65 50.6816C163.65 50.1296 163.718 49.5618 163.853 48.9785C163.988 48.3848 164.197 47.8483 164.478 47.3691C164.759 46.8796 165.119 46.4837 165.556 46.1816C165.994 45.8691 166.514 45.7129 167.119 45.7129C167.702 45.7129 168.197 45.8743 168.603 46.1973C169.02 46.5098 169.353 46.9056 169.603 47.3848C169.853 47.8535 170.03 48.3691 170.134 48.9316C170.238 49.4941 170.275 50.0254 170.244 50.5254C170.212 51.0775 170.124 51.6348 169.978 52.1973C169.843 52.7598 169.639 53.265 169.369 53.7129C169.098 54.1608 168.754 54.5254 168.337 54.8066C167.921 55.0879 167.426 55.2285 166.853 55.2285ZM167.009 48.166C166.853 48.166 166.712 48.2493 166.587 48.416C166.473 48.5827 166.374 48.7858 166.29 49.0254C166.218 49.265 166.16 49.5202 166.119 49.791C166.077 50.0514 166.056 50.2806 166.056 50.4785C166.056 50.7285 166.077 50.9993 166.119 51.291C166.171 51.5827 166.238 51.8535 166.322 52.1035C166.405 52.3431 166.504 52.5462 166.619 52.7129C166.744 52.8691 166.884 52.9473 167.04 52.9473C167.207 52.9473 167.348 52.8691 167.462 52.7129C167.587 52.5566 167.686 52.3587 167.759 52.1191C167.832 51.8796 167.884 51.6191 167.915 51.3379C167.947 51.0462 167.962 50.7754 167.962 50.5254C167.962 50.2962 167.942 50.0462 167.9 49.7754C167.858 49.4941 167.796 49.2337 167.712 48.9941C167.639 48.7546 167.54 48.5566 167.415 48.4004C167.301 48.2441 167.165 48.166 167.009 48.166ZM176.462 48.9316C176.317 48.9421 176.192 48.9316 176.087 48.9004C175.983 48.8587 175.879 48.8171 175.775 48.7754C175.681 48.7337 175.587 48.6973 175.494 48.666C175.4 48.6243 175.296 48.6087 175.181 48.6191C174.973 48.6296 174.785 48.6868 174.619 48.791C174.462 48.8952 174.317 49.0254 174.181 49.1816C174.056 49.3379 173.947 49.515 173.853 49.7129C173.759 49.9004 173.686 50.0879 173.634 50.2754C173.603 50.4004 173.577 50.5931 173.556 50.8535C173.546 51.1035 173.54 51.3743 173.54 51.666C173.53 51.9681 173.525 52.2546 173.525 52.5254C173.525 52.7962 173.514 53.0098 173.494 53.166C173.483 53.3327 173.457 53.5306 173.415 53.7598C173.374 53.9785 173.306 54.1868 173.212 54.3848C173.129 54.5827 173.014 54.7493 172.869 54.8848C172.723 55.0202 172.535 55.0879 172.306 55.0879C172.129 55.0879 171.973 55.0358 171.837 54.9316C171.712 54.8275 171.603 54.6921 171.509 54.5254C171.426 54.3483 171.353 54.1452 171.29 53.916C171.238 53.6868 171.197 53.4525 171.165 53.2129C171.134 52.9629 171.108 52.7129 171.087 52.4629C171.077 52.2129 171.067 51.9785 171.056 51.7598C171.056 51.5306 171.056 51.3223 171.056 51.1348C171.067 50.9473 171.072 50.7962 171.072 50.6816C171.061 50.3171 171.04 49.9525 171.009 49.5879C170.988 49.2129 170.978 48.8431 170.978 48.4785C170.978 48.2493 170.988 47.9941 171.009 47.7129C171.03 47.4316 171.087 47.1712 171.181 46.9316C171.275 46.6816 171.41 46.4733 171.587 46.3066C171.775 46.14 172.03 46.0566 172.353 46.0566C172.53 46.0566 172.681 46.1139 172.806 46.2285C172.931 46.3431 173.03 46.4837 173.103 46.6504C173.186 46.8171 173.249 46.9941 173.29 47.1816C173.332 47.3691 173.358 47.541 173.369 47.6973C173.619 47.291 173.9 46.9629 174.212 46.7129C174.525 46.4525 174.931 46.3118 175.431 46.291C175.681 46.2806 175.926 46.3066 176.165 46.3691C176.415 46.4212 176.639 46.515 176.837 46.6504C177.046 46.7754 177.212 46.9421 177.337 47.1504C177.473 47.3587 177.546 47.6035 177.556 47.8848C177.577 48.2181 177.478 48.4733 177.259 48.6504C177.04 48.8275 176.775 48.9212 176.462 48.9316ZM184.431 52.5723C184.431 52.7598 184.421 53.0046 184.4 53.3066C184.389 53.6087 184.348 53.9056 184.275 54.1973C184.202 54.4785 184.087 54.7233 183.931 54.9316C183.775 55.14 183.556 55.2441 183.275 55.2441C182.889 55.2441 182.593 55.1191 182.384 54.8691C182.176 54.6191 182.077 54.3066 182.087 53.9316C181.754 54.2233 181.374 54.4525 180.947 54.6191C180.53 54.7858 180.103 54.8691 179.665 54.8691C179.363 54.8691 179.077 54.7962 178.806 54.6504C178.535 54.5046 178.296 54.3171 178.087 54.0879C177.879 53.8587 177.712 53.6035 177.587 53.3223C177.462 53.0306 177.4 52.7441 177.4 52.4629C177.4 51.9629 177.551 51.5254 177.853 51.1504C178.165 50.7754 178.546 50.4577 178.994 50.1973C179.442 49.9264 179.915 49.7129 180.415 49.5566C180.926 49.4004 181.379 49.2962 181.775 49.2441C181.775 49.1921 181.775 49.1452 181.775 49.1035C181.785 49.0618 181.79 49.015 181.79 48.9629C181.79 48.64 181.702 48.3796 181.525 48.1816C181.348 47.9837 181.098 47.8848 180.775 47.8848C180.514 47.8848 180.29 47.9316 180.103 48.0254C179.915 48.1087 179.738 48.2077 179.572 48.3223C179.405 48.4264 179.238 48.5254 179.072 48.6191C178.905 48.7025 178.718 48.7441 178.509 48.7441C178.28 48.7441 178.082 48.6712 177.915 48.5254C177.759 48.3796 177.681 48.1921 177.681 47.9629C177.681 47.6191 177.78 47.3066 177.978 47.0254C178.186 46.7441 178.442 46.5098 178.744 46.3223C179.056 46.1243 179.389 45.9733 179.744 45.8691C180.108 45.7546 180.442 45.6973 180.744 45.6973C181.025 45.6973 181.306 45.7337 181.587 45.8066C181.869 45.8691 182.134 45.9733 182.384 46.1191C182.634 46.2546 182.858 46.4264 183.056 46.6348C183.264 46.8327 183.431 47.0671 183.556 47.3379C183.744 47.7233 183.895 48.1348 184.009 48.5723C184.124 48.9993 184.212 49.4421 184.275 49.9004C184.337 50.3483 184.379 50.8014 184.4 51.2598C184.421 51.7077 184.431 52.1452 184.431 52.5723ZM181.931 52.0723L181.884 51.0098C181.863 51.0098 181.843 51.0098 181.822 51.0098C181.801 50.9993 181.78 50.9941 181.759 50.9941C181.624 50.9941 181.452 51.0306 181.244 51.1035C181.046 51.166 180.853 51.2598 180.665 51.3848C180.478 51.4993 180.317 51.6296 180.181 51.7754C180.056 51.9212 179.994 52.0723 179.994 52.2285C179.994 52.3743 180.046 52.4733 180.15 52.5254C180.254 52.5775 180.374 52.6035 180.509 52.6035C180.738 52.6035 180.983 52.5462 181.244 52.4316C181.504 52.3066 181.733 52.1868 181.931 52.0723ZM188.29 48.2285C188.29 48.3952 188.28 48.6243 188.259 48.916C188.238 49.1973 188.207 49.5046 188.165 49.8379C188.124 50.1608 188.061 50.4941 187.978 50.8379C187.905 51.1712 187.817 51.4785 187.712 51.7598C187.608 52.0306 187.483 52.2546 187.337 52.4316C187.192 52.5983 187.025 52.6816 186.837 52.6816C186.608 52.6816 186.41 52.5723 186.244 52.3535C186.087 52.1243 185.952 51.8379 185.837 51.4941C185.733 51.14 185.65 50.7493 185.587 50.3223C185.525 49.8952 185.478 49.4785 185.447 49.0723C185.415 48.6556 185.395 48.2754 185.384 47.9316C185.384 47.5775 185.384 47.3066 185.384 47.1191C185.384 46.9316 185.384 46.6973 185.384 46.416C185.384 46.1243 185.395 45.8171 185.415 45.4941C185.447 45.1712 185.488 44.8535 185.54 44.541C185.603 44.2181 185.692 43.9264 185.806 43.666C185.921 43.4056 186.072 43.1973 186.259 43.041C186.447 42.8743 186.681 42.791 186.962 42.791C187.212 42.791 187.415 42.9004 187.572 43.1191C187.738 43.3275 187.869 43.6035 187.962 43.9473C188.067 44.2806 188.139 44.6556 188.181 45.0723C188.233 45.4889 188.264 45.9004 188.275 46.3066C188.296 46.7025 188.301 47.0723 188.29 47.416C188.29 47.7598 188.29 48.0306 188.29 48.2285ZM187.994 54.166C187.994 54.3431 187.952 54.4993 187.869 54.6348C187.785 54.7598 187.676 54.8639 187.54 54.9473C187.405 55.041 187.259 55.1087 187.103 55.1504C186.947 55.1921 186.79 55.2129 186.634 55.2129C186.405 55.2129 186.186 55.1504 185.978 55.0254C185.77 54.9108 185.665 54.7233 185.665 54.4629C185.665 54.3066 185.707 54.166 185.79 54.041C185.884 53.9056 185.999 53.791 186.134 53.6973C186.27 53.6035 186.415 53.5306 186.572 53.4785C186.738 53.4264 186.895 53.4004 187.04 53.4004C187.28 53.4004 187.499 53.4629 187.697 53.5879C187.895 53.7025 187.994 53.8952 187.994 54.166Z" fill="white"/>
<defs>
<filter id="filter0_i_1137_1372" x="-3.05176e-05" y="0" width="226.567" height="111" filterUnits="userSpaceOnUse" color-interpolation-filters="sRGB">
<feFlood flood-opacity="0" result="BackgroundImageFix"/>
<feBlend mode="normal" in="SourceGraphic" in2="BackgroundImageFix" result="shape"/>
<feColorMatrix in="SourceAlpha" type="matrix" values="0 0 0 0 0 0 0 0 0 0 0 0 0 0 0 0 0 0 127 0" result="hardAlpha"/>
<feOffset dy="4"/>
<feGaussianBlur stdDeviation="2"/>
<feComposite in2="hardAlpha" operator="arithmetic" k2="-1" k3="1"/>
<feColorMatrix type="matrix" values="0 0 0 0 0 0 0 0 0 0 0 0 0 0 0 0 0 0 0.25 0"/>
<feBlend mode="normal" in2="shape" result="effect1_innerShadow_1137_1372"/>
</filter>
</defs>
</svg>
