<svg xmlns="http://www.w3.org/2000/svg" width="250" height="113" fill="none" viewBox="0 0 250 113"><g filter="url(#a)"><path fill="#3dc3ff" fill-rule="evenodd" d="M35.36 74.107C11.44 66.602 1 55.527 1 43.54 1 28.79 22.058 14.22 56.894 7.016 73.79 3.522 93.642 2 116.45 2c69.835 0 134.236 15.048 131.487 41.54 0 10.898-8.194 21.07-24.83 28.341l1.754.067c-8.257 18.905-20.821 26.36-43.862 39.409 15.71-14.14 24.833-22.842 27.3-34.403-15.734 4.164-36.082 6.245-62.069 6.245-49.498 2.352-86.933-1.582-110.871-9.092" clip-rule="evenodd"/></g><path fill="#3dc3ff" d="m35.36 74.107-.3.954zm21.534-67.09.202.978zM247.938 43.54l-.994-.103a1 1 0 0 0-.006.103zm-24.83 28.341-.4-.916a.999.999 0 0 0 .362 1.915zm1.754.067.916.4a1 1 0 0 0-.878-1.4zM181 111.357l-.669-.743a1 1 0 0 0 1.162 1.613zm27.3-34.403.978.209a.998.998 0 0 0-1.234-1.175zM146.231 83.2v-1h-.047zM0 43.539c0 12.695 11.058 23.992 35.06 31.522l.6-1.908C11.822 65.674 2 54.82 2 43.54zM56.691 6.038c-17.497 3.618-31.602 9.099-41.36 15.579C5.606 28.072 0 35.664 0 43.54h2c0-6.874 4.922-13.94 14.437-20.258 9.479-6.294 23.32-11.7 40.66-15.287zM116.451 1c-22.848 0-42.773 1.524-59.76 5.037l.405 1.958C73.902 4.52 93.681 3 116.451 3zm132.482 42.643c.737-7.106-3.064-13.317-9.953-18.565-6.884-5.244-16.994-9.651-29.289-13.203C185.084 4.767 151.424 1 116.451 1v2c34.861 0 68.319 3.758 92.685 10.796 12.191 3.522 22.031 7.845 28.632 12.873 6.594 5.023 9.813 10.628 9.176 16.768zm-25.424 29.154c16.793-7.34 25.429-17.776 25.429-29.257h-2c0 10.316-7.751 20.222-24.23 27.425zm-.439.083 1.754.067.076-1.999-1.754-.066zm.875-1.333c-8.106 18.563-20.372 25.877-43.438 38.94l.986 1.74c23.015-13.034 35.879-20.63 44.285-39.88zM181.669 112.1c7.845-7.061 14.106-12.817 18.711-18.266 4.619-5.466 7.619-10.678 8.898-16.671l-1.956-.417c-1.188 5.567-3.983 10.487-8.47 15.797-4.501 5.327-10.656 10.992-18.521 18.071zm-35.438-27.901c26.03 0 46.474-2.084 62.325-6.278l-.512-1.933c-15.617 4.132-35.87 6.21-61.813 6.21zM35.061 75.06c24.096 7.56 61.664 11.491 111.218 9.137l-.095-1.998c-49.442 2.35-86.745-1.587-110.525-9.047z"/><path fill="#3dc3ff" stroke="#3dc3ff" stroke-linecap="round" stroke-linejoin="round" stroke-width="2" d="M57.862 103.357C39.717 87.026 30.36 77.949 29.894 63.344L14 63.948c8.256 18.905 20.821 26.36 43.862 39.409"/><path fill="#fff" d="M59.927 11.717a.9.9 0 0 1-.123.465 1.1 1.1 0 0 1-.3.355 2.3 2.3 0 0 1-.875.37 61 61 0 0 1-.124 2.98 44 44 0 0 1-.273 2.967h.082q.219 0 .424.054a.9.9 0 0 1 .382.164.75.75 0 0 1 .274.287q.11.164.11.41a.8.8 0 0 1-.206.547q-.19.233-.52.397-.314.164-.71.273a6 6 0 0 1-.793.164 8 8 0 0 1-1.326.123q-.164 0-.41-.013a2 2 0 0 1-.452-.082 1 1 0 0 1-.355-.205.47.47 0 0 1-.15-.37q0-.286.122-.505.11-.233.301-.41.193-.178.424-.288.246-.108.492-.164.096-.752.178-1.49a21 21 0 0 0 .11-1.517q.026-.78.054-1.532l.055-1.531-.178.027h-.15q-.192 0-.41-.04a1.6 1.6 0 0 1-.41-.137 1.3 1.3 0 0 1-.329-.26.6.6 0 0 1-.123-.383q0-.465.383-.766.396-.3.93-.464a6 6 0 0 1 1.107-.22 8 8 0 0 1 .902-.068q.192 0 .506.028.315.028.615.123.315.095.534.26.232.164.232.45m4.197 1.763q0 .397-.273.588-.26.192-.588.37-.329.163-.602.396-.26.232-.26.697 0 .247.11.424.123.178.287.328.178.137.383.287t.37.342q.177.192.286.465.123.273.123.67 0 .574-.3 1.135a3.7 3.7 0 0 1-.752.984q-.451.424-1.026.684-.574.26-1.135.26-.233 0-.465-.042a1.3 1.3 0 0 1-.423-.123.9.9 0 0 1-.301-.26.8.8 0 0 1-.123-.45q0-.384.15-.588.15-.219.383-.342a2.3 2.3 0 0 1 .492-.192q.274-.068.506-.164.233-.11.383-.273t.15-.465q0-.287-.232-.588a12 12 0 0 0-.492-.656 7 7 0 0 1-.506-.752 1.8 1.8 0 0 1-.219-.875q0-.588.233-1.08a2.9 2.9 0 0 1 .642-.875q.411-.37.93-.575a2.8 2.8 0 0 1 1.094-.218q.218 0 .423.04.22.042.383.151.164.096.26.274.11.163.11.423m4.553 0q0 .397-.273.588-.26.192-.588.37-.329.163-.602.396-.26.232-.26.697 0 .247.11.424.123.178.287.328.177.137.383.287.205.15.369.342.177.192.287.465.123.273.123.67 0 .574-.3 1.135a3.73 3.73 0 0 1-1.777 1.668q-.576.26-1.136.26-.233 0-.465-.042a1.3 1.3 0 0 1-.424-.123.9.9 0 0 1-.3-.26.77.77 0 0 1-.123-.45q0-.384.15-.588.15-.219.383-.342t.492-.192q.273-.068.506-.164a1.2 1.2 0 0 0 .383-.273q.15-.164.15-.465 0-.287-.232-.588-.219-.315-.492-.656a7 7 0 0 1-.506-.752 1.8 1.8 0 0 1-.22-.875q0-.588.233-1.08.246-.507.643-.875.41-.37.93-.575a2.8 2.8 0 0 1 1.093-.218q.219 0 .424.04.22.042.383.151.165.096.26.274.11.163.11.423m3.145 7.916q-.697 0-1.217-.369a3.2 3.2 0 0 1-.875-.943 4.5 4.5 0 0 1-.533-1.271 5.7 5.7 0 0 1-.178-1.395q0-.725.178-1.49.177-.78.546-1.408.37-.643.944-1.04.574-.41 1.367-.41.765 0 1.299.424.546.41.875 1.04.328.614.465 1.353.136.738.095 1.394-.04.725-.232 1.463a4.7 4.7 0 0 1-.533 1.326q-.355.588-.903.957-.546.37-1.298.37m.136-6.18q-.205 0-.369.22-.15.218-.26.533-.094.315-.15.67a4 4 0 0 0-.055.601q0 .328.055.711.069.383.178.711.11.315.26.533.163.205.369.205.218 0 .369-.205.165-.204.26-.52.095-.314.136-.683.041-.383.041-.71 0-.302-.054-.657a4 4 0 0 0-.164-.684 1.5 1.5 0 0 0-.26-.52q-.15-.204-.356-.204m15.121 1.272v.711q0 .437-.027.957-.013.52-.082 1.053-.068.519-.219.943-.136.424-.355.698a.69.69 0 0 1-.56.273.53.53 0 0 1-.466-.246 2 2 0 0 1-.218-.602 4.4 4.4 0 0 1-.082-.697v-.56q0-.616.04-1.204.042-.588.042-1.203v-.246q0-.177-.028-.355a1 1 0 0 0-.095-.315q-.055-.136-.178-.136-.246 0-.397.26-.15.245-.246.587t-.136.684q-.042.329-.055.492a8 8 0 0 0-.055.533q-.013.355-.055.78a8 8 0 0 1-.109.875 5 5 0 0 1-.191.806 1.9 1.9 0 0 1-.287.588.53.53 0 0 1-.438.232.56.56 0 0 1-.506-.287 2.1 2.1 0 0 1-.26-.67 5.5 5.5 0 0 1-.109-.779 19 19 0 0 1-.014-.615v-.451q.014-.22.014-.451v-.315q0-.219-.014-.478 0-.275-.027-.56a4 4 0 0 0-.055-.52 1.3 1.3 0 0 0-.123-.397q-.081-.15-.191-.15-.177 0-.328.232-.15.22-.26.533-.11.3-.178.602-.054.3-.054.437v.082q0 .657.082 1.285.082.63.082 1.286 0 .383-.246.71-.246.315-.684.315a.66.66 0 0 1-.52-.232 2 2 0 0 1-.341-.63 5.3 5.3 0 0 1-.219-.833 11 11 0 0 1-.096-.903q-.027-.451-.04-.806v-.547q0-.205-.014-.602 0-.396.013-.861.028-.465.082-.943.055-.492.178-.889.123-.396.314-.643a.64.64 0 0 1 .52-.26q.355 0 .574.192.233.193.233.574 0 .083-.014.164a1 1 0 0 1-.014.15q.15-.217.37-.437.218-.232.464-.41a2.3 2.3 0 0 1 .547-.3q.288-.124.574-.124a.85.85 0 0 1 .493.15q.218.15.382.383.164.22.274.479.11.26.15.492.136-.246.328-.492a3 3 0 0 1 .438-.451 2.2 2.2 0 0 1 .506-.315 1.5 1.5 0 0 1 .588-.123q.287 0 .492.205.204.206.355.534.15.314.233.724.082.397.136.793.055.383.069.725.013.328.013.52m6.631 2.078q0 .465-.3.916a3.4 3.4 0 0 1-.739.793 4.3 4.3 0 0 1-.943.56 2.5 2.5 0 0 1-.93.206q-.725 0-1.299-.355a3.4 3.4 0 0 1-.943-.93 4.5 4.5 0 0 1-.588-1.23 5 5 0 0 1-.191-1.327q0-.684.191-1.463.193-.78.574-1.435.397-.657.985-1.094.6-.437 1.422-.437.465 0 .888.164a2.15 2.15 0 0 1 1.244 1.12q.192.397.192.89 0 .642-.274 1.202a3.2 3.2 0 0 1-.724.971q-.451.41-1.04.67a3.5 3.5 0 0 1-1.203.274q.056.396.315.574.273.177.643.177.273 0 .533-.136.26-.137.506-.301.246-.178.478-.314.246-.138.492-.137a.76.76 0 0 1 .493.178.57.57 0 0 1 .218.464m-2.215-3.35a.8.8 0 0 0-.095-.368.32.32 0 0 0-.301-.192q-.301 0-.506.164-.205.15-.342.397a2.3 2.3 0 0 0-.219.506q-.068.273-.081.505.191-.04.45-.109.275-.068.507-.178.245-.123.41-.3a.58.58 0 0 0 .177-.424m6.768-1.735q0 .396-.273.587-.261.192-.588.37-.33.163-.602.396-.26.232-.26.697 0 .247.11.424.123.178.287.328.177.137.383.287.205.15.369.342.177.192.287.465.123.273.123.67 0 .574-.3 1.135a3.73 3.73 0 0 1-1.777 1.668q-.576.26-1.136.26-.232 0-.465-.042a1.3 1.3 0 0 1-.424-.123.9.9 0 0 1-.3-.26.8.8 0 0 1-.123-.45q0-.384.15-.588.15-.219.383-.342a2.3 2.3 0 0 1 .492-.192q.273-.068.506-.164.232-.11.383-.273.15-.164.15-.465 0-.287-.232-.588a12 12 0 0 0-.493-.656 7 7 0 0 1-.505-.752 1.8 1.8 0 0 1-.22-.875q0-.588.233-1.08a2.9 2.9 0 0 1 .643-.875q.41-.37.93-.575a2.8 2.8 0 0 1 1.093-.218q.219 0 .424.04.219.042.383.151.165.096.26.274.11.163.109.423m8.846 3.007v.711q0 .437-.028.957a10 10 0 0 1-.082 1.053q-.068.519-.218.943a2.2 2.2 0 0 1-.356.698.69.69 0 0 1-.56.273.53.53 0 0 1-.465-.246 2 2 0 0 1-.219-.602 4.4 4.4 0 0 1-.082-.697v-.56q0-.616.041-1.204.04-.588.041-1.203v-.246q0-.177-.027-.355a1 1 0 0 0-.096-.315q-.055-.136-.178-.136-.246 0-.396.26-.151.245-.246.587-.096.342-.137.684-.041.329-.055.492a8 8 0 0 0-.054.533q-.015.355-.055.78a8 8 0 0 1-.11.875q-.068.437-.191.806a1.9 1.9 0 0 1-.287.588.53.53 0 0 1-.438.232.56.56 0 0 1-.505-.287 2.1 2.1 0 0 1-.26-.67 6 6 0 0 1-.11-.779q-.013-.397-.013-.615v-.451q.013-.22.013-.451v-.315a9 9 0 0 0-.013-.478q0-.275-.028-.56a4 4 0 0 0-.054-.52 1.3 1.3 0 0 0-.123-.397q-.082-.15-.192-.15-.178 0-.328.232-.15.22-.26.533-.11.3-.177.602-.055.3-.055.437v.082q0 .657.082 1.285.082.63.082 1.286 0 .383-.246.71-.246.315-.684.315a.66.66 0 0 1-.52-.232 2 2 0 0 1-.341-.63 5.3 5.3 0 0 1-.219-.833 11 11 0 0 1-.095-.903q-.028-.451-.041-.806v-.547q0-.205-.014-.602 0-.396.014-.861.027-.465.082-.943.054-.492.177-.889.123-.396.315-.643a.64.64 0 0 1 .52-.26q.354 0 .574.192.231.193.232.574 0 .083-.014.164a1 1 0 0 1-.013.15q.15-.217.369-.437.219-.232.465-.41.26-.191.546-.3a1.45 1.45 0 0 1 .575-.124.85.85 0 0 1 .492.15q.218.15.383.383.164.22.273.479.11.26.151.492.136-.246.328-.492.204-.26.437-.451.233-.192.506-.315.287-.123.588-.123.287 0 .492.205.205.206.356.534.15.314.232.724.082.397.137.793.054.383.068.725.014.328.014.52m3.5 4.909q-.698 0-1.217-.37a3.2 3.2 0 0 1-.875-.943 4.5 4.5 0 0 1-.533-1.271 5.7 5.7 0 0 1-.178-1.395q0-.725.178-1.49.177-.78.547-1.408.369-.643.943-1.04.574-.41 1.367-.41.766 0 1.299.424.547.41.875 1.04.328.614.465 1.353.136.738.096 1.394-.042.725-.233 1.463a4.6 4.6 0 0 1-.533 1.326q-.356.588-.902.957-.547.37-1.299.37m.136-6.18q-.204 0-.369.218-.15.219-.259.534a5 5 0 0 0-.151.67 4 4 0 0 0-.055.601q0 .328.055.711.069.383.178.711.109.315.26.533.163.205.369.205.219 0 .369-.205.164-.204.26-.52.095-.314.136-.683.041-.383.041-.71 0-.302-.054-.657a4 4 0 0 0-.164-.684 1.6 1.6 0 0 0-.26-.52q-.15-.204-.356-.204m6.084.054q0 .22-.027.602-.028.369-.082.807a8 8 0 0 1-.164.875q-.096.437-.232.806a2.1 2.1 0 0 1-.329.588.57.57 0 0 1-.437.219q-.301 0-.52-.287a3 3 0 0 1-.355-.752 8 8 0 0 1-.219-1.026 16 16 0 0 1-.123-1.093 25 25 0 0 1-.055-.998v-1.327q0-.383.028-.806.041-.424.109-.834a3.6 3.6 0 0 1 .233-.766q.15-.342.396-.547a.9.9 0 0 1 .615-.218.63.63 0 0 1 .534.287q.218.274.341.724.137.438.192.985.068.546.082 1.08.028.52.013.97zm-.259 5.196a.77.77 0 0 1-.11.41.9.9 0 0 1-.287.273 1.2 1.2 0 0 1-.383.178 1.6 1.6 0 0 1-.41.055 1.1 1.1 0 0 1-.574-.164q-.273-.15-.273-.492a.65.65 0 0 1 .109-.37q.123-.177.301-.3.177-.123.383-.192.218-.068.41-.068.314 0 .574.164.26.15.26.506m9.529-4.553v.342q-.013.506-.055 1.08-.041.574-.136 1.135a6 6 0 0 1-.288 1.08q-.19.506-.519.902a2.4 2.4 0 0 1-.807.629q-.478.232-1.162.232-.738 0-1.299-.314a2.9 2.9 0 0 1-.916-.82 3.7 3.7 0 0 1-.547-1.149 5 5 0 0 1-.177-1.299q0-.287.068-.642.055-.356.205-.656.15-.315.383-.52a.9.9 0 0 1 .615-.219q.397 0 .588.22.205.217.287.546.096.315.123.697.027.37.069.697.041.315.136.534a.37.37 0 0 0 .356.218.51.51 0 0 0 .451-.246q.164-.246.232-.574.082-.342.096-.683.027-.342.027-.534 0-.765-.136-1.49a18 18 0 0 0-.315-1.49 34 34 0 0 0-.205-.78 3 3 0 0 1-.109-.792q0-.465.246-.752.246-.3.724-.301.355 0 .561.15.205.137.41.41.315.425.52.971.218.547.342 1.135.123.587.177 1.19.055.587.055 1.093m6.809 1.176q0 .752-.151 1.49a4.1 4.1 0 0 1-.506 1.326 2.75 2.75 0 0 1-.957.93q-.588.355-1.476.355-.876 0-1.463-.341a2.8 2.8 0 0 1-.944-.93 4.2 4.2 0 0 1-.492-1.299 8 8 0 0 1-.136-1.476q0-.821.191-1.627.04-.22.15-.602.123-.396.301-.766.192-.383.424-.656.246-.273.533-.273.273 0 .438.15t.259.383q.096.219.123.478.028.247.028.452 0 .314-.055.615-.04.3-.096.601l-.109.82a8 8 0 0 0-.027 1.286q.027.246.109.478t.232.397q.151.15.424.15.355 0 .561-.191.22-.191.314-.479.11-.287.137-.615.027-.329.027-.601 0-.601-.082-1.176a53 53 0 0 1-.15-1.19 1.3 1.3 0 0 1 .055-.602q.068-.204.191-.368a.9.9 0 0 1 .301-.26.74.74 0 0 1 .396-.11q.302 0 .534.22.232.204.382.546.165.329.26.752.11.41.164.82.069.397.082.752.027.356.028.56m4.716 4.293q-.232 0-.369-.219a1.5 1.5 0 0 1-.205-.479 4 4 0 0 1-.096-.546 8 8 0 0 1 .028-1.258l.109-.82q.068-.41.11-.82.054-.411.054-.821 0-.165-.013-.356a1.5 1.5 0 0 0-.069-.355.6.6 0 0 0-.15-.287.4.4 0 0 0-.287-.11q-.124 0-.274.206-.15.191-.287.45a5 5 0 0 0-.219.507 1.3 1.3 0 0 0-.082.369v.615q.014.3.014.615v.793q-.014.246-.041.506a5 5 0 0 1-.082.506 3 3 0 0 1-.123.478 1.5 1.5 0 0 1-.219.397q-.123.164-.301.273a.8.8 0 0 1-.423.11.6.6 0 0 1-.452-.178 1.3 1.3 0 0 1-.287-.451 3.2 3.2 0 0 1-.164-.63 22 22 0 0 1-.068-.683 16 16 0 0 1-.014-.615q.014-.287.014-.451v-.643q0-.52-.027-1.025-.015-.505-.014-1.012v-.697q.013-.424.109-.82.096-.41.315-.698.218-.287.642-.287.192 0 .342.123.15.124.26.301.123.178.191.383.083.205.123.355a3 3 0 0 1 .315-.369q.191-.177.424-.314a2.2 2.2 0 0 1 1.175-.301q.697 0 1.08.342.397.327.575.834.191.492.232 1.066.04.575.041 1.04 0 .232-.041.697-.04.45-.137 1.011-.082.547-.232 1.135a7.4 7.4 0 0 1-.356 1.053q-.204.478-.492.779-.273.3-.629.3m5.838.11q-.97 0-1.517-.26a1.76 1.76 0 0 1-.807-.712q-.26-.465-.314-1.12a18 18 0 0 1-.055-1.463q0-.643.041-1.286.04-.656.123-1.394-.192 0-.301.014h-.178q-.437 0-.752-.192a.64.64 0 0 1-.328-.588q0-.246.192-.437.177-.192.465-.328.286-.138.615-.22.342-.08.642-.109 0-.382.055-.847t.191-.861q.151-.411.397-.684a.8.8 0 0 1 .629-.274q.219 0 .383.137a.9.9 0 0 1 .287.328q.109.192.164.438t.055.478q0 .275-.041.56a7 7 0 0 1-.151.712q.232-.027.315-.028a1 1 0 0 1 .15-.013q.232 0 .479.04.26.042.464.137.22.096.356.26a.53.53 0 0 1 .137.37q0 .246-.206.437a1.6 1.6 0 0 1-.492.328q-.3.137-.642.219a6 6 0 0 1-.643.095q-.083.56-.123 1.04-.027.465-.068.943-.028.232-.055.478a8 8 0 0 0-.014.479q0 .178.014.424.013.233.096.45a1 1 0 0 0 .259.384q.178.15.493.15.19 0 .396-.027.206-.041.41-.041.356 0 .506.246.165.246.164.629a.78.78 0 0 1-.177.506q-.165.204-.424.328a2.2 2.2 0 0 1-.588.205q-.315.068-.602.068m4.662-.096q-.697 0-1.216-.37a3.2 3.2 0 0 1-.875-.943 4.5 4.5 0 0 1-.534-1.271 5.8 5.8 0 0 1-.177-1.395q0-.725.177-1.49.178-.78.547-1.408.37-.643.944-1.04.573-.41 1.367-.41.765 0 1.299.424.546.41.875 1.04.327.614.464 1.353.137.738.096 1.394-.041.725-.232 1.463a4.7 4.7 0 0 1-.533 1.326q-.356.588-.903.957-.546.37-1.299.37m.137-6.18q-.206 0-.369.218-.15.219-.26.534a5 5 0 0 0-.15.67 4 4 0 0 0-.055.601q0 .328.055.711.068.383.177.711.11.315.26.533.165.205.369.205.219 0 .37-.205.164-.204.259-.52.096-.314.137-.683.04-.383.041-.71 0-.302-.055-.657a3.7 3.7 0 0 0-.164-.684 1.6 1.6 0 0 0-.259-.52q-.151-.204-.356-.204m11.895.533a.8.8 0 0 1-.055.287q-.123.315-.383.533a.96.96 0 0 1-.615.205q-.534 0-.725-.533a.4.4 0 0 1-.027-.15 1.4 1.4 0 0 0-.014-.192v-.396a.8.8 0 0 0-.095-.3q-.07-.11-.233-.11-.232 0-.451.3a3.3 3.3 0 0 0-.369.698q-.15.396-.246.82t-.096.684q0 .204.027.506.028.287.11.56.081.273.218.479a.47.47 0 0 0 .383.191.7.7 0 0 0 .424-.137q.205-.15.397-.341.178-.165.382-.342a.76.76 0 0 1 .493-.178q.34 0 .533.246a.85.85 0 0 1 .205.56q0 .465-.246.876a2.8 2.8 0 0 1-.615.697q-.37.287-.821.451a2.4 2.4 0 0 1-.861.178q-.738 0-1.258-.37a2.9 2.9 0 0 1-.82-.929 4.4 4.4 0 0 1-.451-1.244 6.3 6.3 0 0 1-.137-1.272q0-.697.191-1.504a5.7 5.7 0 0 1 .588-1.517 3.8 3.8 0 0 1 1.012-1.162q.629-.465 1.49-.465.534 0 .916.232.397.232.643.616.26.37.383.833.136.465.136.917v.136a.7.7 0 0 1-.013.137m3.363 5.647q-.698 0-1.217-.37a3.2 3.2 0 0 1-.875-.943 4.5 4.5 0 0 1-.533-1.271 5.7 5.7 0 0 1-.178-1.395q0-.725.178-1.49.178-.78.547-1.408.369-.643.943-1.04.575-.41 1.367-.41.766 0 1.299.424.547.41.875 1.04.329.614.465 1.353.137.738.096 1.394-.041.725-.233 1.463a4.6 4.6 0 0 1-.533 1.326q-.356.588-.902.957-.547.37-1.299.37m.137-6.18q-.205 0-.37.218-.15.219-.259.534a5 5 0 0 0-.151.67 4 4 0 0 0-.054.601q0 .328.054.711.069.383.178.711.11.315.26.533.164.205.369.205.219 0 .369-.205.164-.204.26-.52.096-.314.137-.683.04-.383.041-.71 0-.302-.055-.657a4 4 0 0 0-.164-.684 1.6 1.6 0 0 0-.26-.52q-.15-.204-.355-.204m11.826 1.271v.711q0 .437-.028.957a10 10 0 0 1-.082 1.053q-.068.519-.218.943a2.2 2.2 0 0 1-.356.698.69.69 0 0 1-.56.273.53.53 0 0 1-.465-.246 2 2 0 0 1-.219-.602 4.4 4.4 0 0 1-.082-.697v-.56q0-.616.041-1.204.04-.588.041-1.203v-.246q0-.177-.027-.355a1 1 0 0 0-.096-.315q-.055-.136-.178-.136-.246 0-.396.26-.151.245-.246.587-.096.342-.137.684-.041.329-.055.492a8 8 0 0 0-.054.533q-.015.355-.055.78a8 8 0 0 1-.109.875q-.069.437-.192.806a1.9 1.9 0 0 1-.287.588.53.53 0 0 1-.438.232.56.56 0 0 1-.505-.287 2.1 2.1 0 0 1-.26-.67 6 6 0 0 1-.11-.779q-.013-.397-.013-.615v-.451q.013-.22.013-.451v-.315a9 9 0 0 0-.013-.478q0-.275-.028-.56a4 4 0 0 0-.054-.52 1.3 1.3 0 0 0-.123-.397q-.083-.15-.192-.15-.177 0-.328.232-.15.22-.26.533-.109.3-.177.602-.055.3-.055.437v.082q0 .657.082 1.285.082.63.082 1.286 0 .383-.246.71-.246.315-.684.315a.66.66 0 0 1-.519-.232 2 2 0 0 1-.342-.63 5.4 5.4 0 0 1-.219-.833q-.068-.464-.095-.903-.028-.451-.041-.806v-.547q0-.205-.014-.602 0-.396.014-.861.027-.465.082-.943.054-.492.177-.889.123-.396.315-.643a.64.64 0 0 1 .519-.26q.356 0 .575.192.232.193.232.574 0 .083-.014.164a1 1 0 0 1-.013.15q.15-.217.369-.437.219-.232.465-.41.26-.191.547-.3.286-.124.574-.124a.85.85 0 0 1 .492.15q.219.15.383.383.163.22.273.479.11.26.151.492.136-.246.328-.492.204-.26.437-.451.233-.192.506-.315.286-.123.588-.123.286 0 .492.205.205.206.356.534.15.314.232.724.082.397.137.793.054.383.068.725.014.328.014.52m10.664 0q0 .397-.069.903-.054.492-.191 1.011a5.7 5.7 0 0 1-.342 1.012q-.205.492-.519.889-.301.383-.711.615a1.8 1.8 0 0 1-.93.232q-.56 0-1.025-.26a2.5 2.5 0 0 1-.78-.71 1.15 1.15 0 0 1-.3.656.87.87 0 0 1-.657.273q-.233 0-.396-.232a2.1 2.1 0 0 1-.246-.588 6 6 0 0 1-.151-.807 14 14 0 0 1-.054-.847q-.014-.41-.014-.739v-1.394l.027-.943q0-.233-.013-.698 0-.465.013-1.025.015-.574.055-1.162.055-.602.178-1.094t.342-.807q.218-.315.56-.328.273 0 .465.192.191.19.314.506.138.315.206.71.081.383.109.78.04.383.041.738.014.342.014.56 0 .042-.014.192v.738q.123-.259.355-.506.233-.246.52-.437t.601-.314.602-.123q.575 0 .957.3.396.288.629.739.232.45.328.984.096.519.096.984m-2.01.41q0-.163-.027-.355a.9.9 0 0 0-.096-.355.7.7 0 0 0-.205-.274.47.47 0 0 0-.328-.11q-.219 0-.438.096a2 2 0 0 0-.396.246q-.191.15-.356.329-.164.163-.287.328l-.136 1.217q.218.315.533.505.314.178.711.178.3 0 .492-.191a1.3 1.3 0 0 0 .314-.465q.123-.288.164-.602.055-.315.055-.547m5.441 4.499q-.697 0-1.216-.37a3.2 3.2 0 0 1-.875-.943 4.5 4.5 0 0 1-.534-1.271 5.8 5.8 0 0 1-.177-1.395q0-.725.177-1.49.178-.78.547-1.408.37-.643.944-1.04.574-.41 1.367-.41.765 0 1.299.424.546.41.875 1.04.327.614.465 1.353.137.738.095 1.394-.041.725-.232 1.463a4.7 4.7 0 0 1-.533 1.326q-.356.588-.903.957-.546.37-1.299.37m.137-6.18q-.205 0-.369.218-.15.219-.26.534a5 5 0 0 0-.15.67 4 4 0 0 0-.055.601q0 .328.055.711.068.383.178.711.11.315.259.533.165.205.37.205.218 0 .369-.205.164-.204.259-.52.096-.314.137-.683.04-.383.041-.71 0-.302-.055-.657a3.7 3.7 0 0 0-.164-.684 1.5 1.5 0 0 0-.259-.52q-.151-.204-.356-.204m9.338 3.855q0 .247-.027.643a3.7 3.7 0 0 1-.11.78q-.095.368-.3.642a.68.68 0 0 1-.575.273q-.506 0-.779-.328t-.26-.82a3.3 3.3 0 0 1-.998.601 3 3 0 0 1-1.121.219q-.396 0-.752-.191a2.4 2.4 0 0 1-.629-.493 2.5 2.5 0 0 1-.437-.67 1.9 1.9 0 0 1-.164-.751q0-.656.396-1.149.41-.492.998-.834a5.7 5.7 0 0 1 1.244-.56 7.5 7.5 0 0 1 1.19-.274v-.123a.5.5 0 0 0 .014-.123q0-.423-.233-.684-.233-.26-.656-.26a1.3 1.3 0 0 0-.588.124q-.246.11-.465.26-.22.135-.437.26-.219.108-.493.109a.76.76 0 0 1-.519-.192.64.64 0 0 1-.205-.492q0-.45.26-.82.273-.369.67-.615.41-.26.875-.397.478-.15.875-.15.369 0 .738.095.369.082.697.274.328.177.588.451.273.26.437.615.247.505.397 1.08.15.56.232 1.162.082.588.11 1.19.027.588.027 1.148m-2.187-.437-.041-.93h-.055a.1.1 0 0 0-.055-.014 1.4 1.4 0 0 0-.451.096 2 2 0 0 0-.506.246q-.246.15-.424.342a.6.6 0 0 0-.164.396q0 .192.137.26a.7.7 0 0 0 .314.069 1.6 1.6 0 0 0 .643-.15q.341-.165.602-.315M38.052 37.072q0 .246-.027.643-.014.396-.11.78a1.8 1.8 0 0 1-.3.642.68.68 0 0 1-.575.273q-.506 0-.779-.328t-.26-.82a3.4 3.4 0 0 1-.998.601 3 3 0 0 1-1.12.219q-.398 0-.753-.191a2.4 2.4 0 0 1-.629-.493 2.5 2.5 0 0 1-.437-.67 1.9 1.9 0 0 1-.164-.751q0-.656.396-1.149.41-.492.998-.834a5.7 5.7 0 0 1 1.244-.56 7.5 7.5 0 0 1 1.19-.274v-.123a.5.5 0 0 0 .014-.123q0-.423-.233-.684-.233-.26-.656-.26a1.3 1.3 0 0 0-.588.124q-.246.11-.465.26a11 11 0 0 1-.437.26q-.219.108-.493.109a.76.76 0 0 1-.52-.192.64.64 0 0 1-.204-.492q0-.45.26-.82.273-.369.67-.616.41-.26.874-.396.48-.15.875-.15.37 0 .739.095.369.082.697.274.329.177.588.451.273.26.437.615.246.506.397 1.08.15.56.232 1.162.083.588.11 1.19.027.588.027 1.148m-2.187-.437-.041-.93h-.055a.1.1 0 0 0-.055-.014 1.4 1.4 0 0 0-.451.096 2 2 0 0 0-.506.246q-.246.15-.424.342a.6.6 0 0 0-.164.397q0 .19.137.26a.7.7 0 0 0 .314.068q.301 0 .643-.15.342-.165.602-.315m5.564-5.92q0 .738-.068 1.49-.055.738-.055 1.49 0 .971.055 1.942.068.97.068 1.955 0 .245-.027.56-.028.301-.137.56a1.05 1.05 0 0 1-.3.438q-.206.178-.548.178-.328 0-.574-.328a2.9 2.9 0 0 1-.396-.807q-.15-.505-.26-1.12a20 20 0 0 1-.15-1.19 86 86 0 0 1-.069-1.067q-.014-.492-.014-.724 0-.26.014-.752.027-.492.096-1.067.068-.574.178-1.162.123-.6.314-1.08.192-.492.451-.793.273-.315.643-.314.3 0 .45.205.165.191.233.478.069.274.082.588.014.3.014.52m3.295-1.258a.57.57 0 0 1-.11.342q-.095.15-.26.273-.163.11-.355.178a1.3 1.3 0 0 1-.355.055.84.84 0 0 1-.479-.137q-.205-.136-.205-.424 0-.205.096-.355a.9.9 0 0 1 .26-.26q.15-.11.341-.164t.37-.055a.96.96 0 0 1 .478.123q.219.123.219.424m.11 4.648v.41q0 .206-.014.397-.014.233-.014.629 0 .383-.027.834-.028.45-.096.916-.054.465-.191.848a1.8 1.8 0 0 1-.37.629.78.78 0 0 1-.56.246.5.5 0 0 1-.438-.205 1.9 1.9 0 0 1-.3-.561 4.7 4.7 0 0 1-.164-.78q-.055-.436-.082-.833a11 11 0 0 1-.028-.752v-1.121q0-.41.028-.875.027-.465.095-.944.082-.478.219-.875.15-.396.383-.642a.77.77 0 0 1 .588-.246q.37 0 .56.369.192.369.287.861.096.492.11.985.013.478.013.71m9.269.383v.711q0 .437-.028.957-.013.52-.082 1.053-.068.519-.218.943-.137.424-.356.698a.69.69 0 0 1-.56.273.53.53 0 0 1-.465-.246 2 2 0 0 1-.219-.602 4.4 4.4 0 0 1-.082-.697v-.56q0-.616.041-1.203.04-.588.041-1.204v-.246q0-.177-.027-.355a1 1 0 0 0-.096-.315q-.054-.136-.178-.136-.246 0-.396.26-.15.245-.246.587t-.137.684q-.04.329-.055.492a8 8 0 0 0-.054.533q-.015.355-.055.78a8 8 0 0 1-.11.874 5 5 0 0 1-.19.807 1.9 1.9 0 0 1-.288.588.53.53 0 0 1-.437.233.56.56 0 0 1-.506-.288 2.1 2.1 0 0 1-.26-.67 5.5 5.5 0 0 1-.11-.779q-.013-.397-.013-.615v-.451a7 7 0 0 0 .014-.451v-.315q0-.219-.014-.478 0-.275-.027-.56a4 4 0 0 0-.055-.52 1.3 1.3 0 0 0-.123-.397q-.083-.15-.192-.15-.177 0-.328.232-.15.22-.26.533-.109.3-.177.602-.055.3-.055.437v.082q0 .657.082 1.285.082.63.082 1.286 0 .383-.246.71-.246.315-.684.315a.66.66 0 0 1-.519-.232 2 2 0 0 1-.342-.63 5.3 5.3 0 0 1-.219-.833 11 11 0 0 1-.095-.903q-.028-.451-.041-.806v-.547q0-.205-.014-.602 0-.396.014-.861.027-.465.082-.943.054-.493.178-.889.122-.396.314-.643a.64.64 0 0 1 .52-.26q.354 0 .574.192.232.192.232.574 0 .083-.014.164a1 1 0 0 1-.013.15q.15-.217.369-.437.218-.232.465-.41a2.3 2.3 0 0 1 .547-.3q.286-.124.574-.124.273 0 .492.15.218.151.383.383.164.22.273.479.11.26.15.492.137-.246.329-.492a3 3 0 0 1 .437-.451q.233-.192.506-.315a1.5 1.5 0 0 1 .588-.123q.287 0 .492.205.205.206.356.534.15.314.232.724.082.397.137.793.055.383.068.725.014.328.014.52m6.63 2.078q0 .466-.3.916a3.4 3.4 0 0 1-.738.793 4.3 4.3 0 0 1-.944.56 2.5 2.5 0 0 1-.93.206q-.723 0-1.298-.355a3.4 3.4 0 0 1-.944-.93 4.5 4.5 0 0 1-.587-1.23 5 5 0 0 1-.192-1.327q0-.684.192-1.463.191-.78.574-1.435.396-.657.984-1.094.602-.437 1.422-.437.465 0 .889.164a2.15 2.15 0 0 1 1.244 1.12q.19.397.191.89 0 .642-.273 1.203a3.2 3.2 0 0 1-.725.97q-.45.41-1.039.67a3.5 3.5 0 0 1-1.203.273q.054.397.314.575.274.177.643.178.273 0 .533-.137t.506-.301q.246-.177.479-.315.246-.136.492-.136a.76.76 0 0 1 .492.178.57.57 0 0 1 .219.464m-2.214-3.35a.8.8 0 0 0-.096-.368.32.32 0 0 0-.3-.192q-.302 0-.506.164-.206.15-.342.397a2.3 2.3 0 0 0-.219.506q-.069.273-.082.505.192-.04.451-.109.273-.068.506-.178.245-.123.41-.3a.58.58 0 0 0 .178-.424m6.644 6.167q-.232 0-.369-.219a1.5 1.5 0 0 1-.205-.479 4 4 0 0 1-.096-.546 8 8 0 0 1 .027-1.258l.11-.82q.069-.41.11-.82.054-.411.054-.821 0-.165-.013-.355a1.4 1.4 0 0 0-.069-.356.6.6 0 0 0-.15-.287.4.4 0 0 0-.287-.11q-.124 0-.274.206-.15.191-.287.45a5 5 0 0 0-.219.507 1.3 1.3 0 0 0-.082.369v.615q.014.3.014.615v.793q-.014.246-.04.506a5 5 0 0 1-.083.506 3 3 0 0 1-.123.478 1.5 1.5 0 0 1-.219.397q-.123.164-.3.273a.8.8 0 0 1-.424.11.6.6 0 0 1-.452-.178 1.3 1.3 0 0 1-.287-.451 3 3 0 0 1-.164-.63 21 21 0 0 1-.068-.683 16 16 0 0 1-.014-.615 10 10 0 0 0 .014-.451v-.643q0-.52-.027-1.025-.014-.506-.014-1.012v-.697q.014-.424.11-.82.095-.41.314-.698.219-.287.642-.287.192 0 .342.123.15.124.26.301.123.178.191.383.083.205.123.355.137-.19.315-.369.191-.177.424-.314a2.2 2.2 0 0 1 1.175-.301q.697 0 1.08.342.397.329.575.834.191.492.232 1.066.04.575.041 1.04 0 .231-.04.697-.042.45-.138 1.011a11 11 0 0 1-.232 1.135q-.15.575-.356 1.053-.204.479-.492.779-.273.3-.629.3m5.838.11q-.97 0-1.517-.26a1.76 1.76 0 0 1-.807-.711q-.26-.465-.314-1.122a20 20 0 0 1-.014-2.748q.04-.656.123-1.394-.192 0-.3.014h-.178a1.4 1.4 0 0 1-.752-.192.64.64 0 0 1-.329-.588q0-.246.192-.437.177-.192.465-.328.287-.138.615-.22.342-.08.642-.109 0-.382.055-.847t.192-.861q.15-.411.396-.684a.8.8 0 0 1 .629-.274.58.58 0 0 1 .383.137.9.9 0 0 1 .287.328q.109.192.164.438a2.2 2.2 0 0 1 .055.478q0 .275-.041.56a7 7 0 0 1-.15.712q.231-.028.314-.028a1 1 0 0 1 .15-.013q.233 0 .479.04.26.042.464.137a.95.95 0 0 1 .356.26.53.53 0 0 1 .137.37q0 .245-.206.437a1.7 1.7 0 0 1-.492.328 3.6 3.6 0 0 1-.642.219 6 6 0 0 1-.643.096q-.083.56-.123 1.038-.027.465-.068.944-.028.232-.055.478a8 8 0 0 0 0 .903q.014.233.096.45a1 1 0 0 0 .26.384q.177.15.492.15.191 0 .396-.027.206-.041.41-.041.356 0 .506.246.165.246.164.629 0 .287-.177.506a1.2 1.2 0 0 1-.424.328q-.26.136-.588.205-.314.068-.602.068m7.875-2.42q0 .245-.027.642-.015.396-.11.78-.094.368-.3.642a.68.68 0 0 1-.574.273q-.506 0-.78-.328-.273-.328-.26-.82a3.4 3.4 0 0 1-.998.601 3 3 0 0 1-1.12.219q-.398 0-.753-.191a2.4 2.4 0 0 1-.628-.493 2.5 2.5 0 0 1-.438-.67 1.9 1.9 0 0 1-.164-.751q0-.656.396-1.149.41-.492.998-.834a5.7 5.7 0 0 1 1.245-.56 7.5 7.5 0 0 1 1.19-.274v-.123a.5.5 0 0 0 .013-.123q0-.423-.233-.684-.232-.26-.656-.26a1.3 1.3 0 0 0-.588.124q-.246.11-.465.26a11 11 0 0 1-.437.26q-.219.108-.492.109a.76.76 0 0 1-.52-.192.64.64 0 0 1-.205-.492q0-.45.26-.82.273-.369.67-.616.41-.26.875-.396.478-.15.875-.15.369 0 .738.095.369.082.697.274.328.177.588.451.274.26.438.615.246.506.396 1.08.15.56.233 1.162.08.588.109 1.19.027.588.027 1.148m-2.187-.438-.041-.93h-.055a.1.1 0 0 0-.055-.014 1.4 1.4 0 0 0-.45.096 2 2 0 0 0-.507.246 2 2 0 0 0-.424.342.6.6 0 0 0-.163.397q0 .19.136.26a.7.7 0 0 0 .315.068q.3 0 .642-.15.342-.165.602-.315m7.26 4.375q0 .396-.192.738a2.2 2.2 0 0 1-.492.602q-.3.26-.684.41-.382.15-.752.15-.273 0-.56-.054a1.7 1.7 0 0 1-.52-.165 1.8 1.8 0 0 1-.423-.314 1.2 1.2 0 0 1-.288-.479.4.4 0 0 1-.04-.177q0-.22.163-.37.178-.15.37-.15a.42.42 0 0 1 .287.096l.26.232q.136.123.328.219.19.11.52.11.272 0 .519-.178a.56.56 0 0 0 .246-.479q0-.204-.15-.342a1.5 1.5 0 0 0-.329-.246l-.383-.218a.75.75 0 0 1-.287-.233q-.11-.15-.11-.437v-.657a1.9 1.9 0 0 1-.942-.492 3 3 0 0 1-.616-.889 4.7 4.7 0 0 1-.341-1.08 6 6 0 0 1-.11-1.093q0-.451.082-.957a6.4 6.4 0 0 1 .246-.998q.164-.492.424-.944.26-.45.602-.793.355-.342.793-.547.45-.204.998-.205.492 0 .861.22.37.217.602.573.246.356.369.793t.123.875q0 .11-.014.26 0 .15-.04.26a1.2 1.2 0 0 1-.356.478.9.9 0 0 1-.56.192q-.465 0-.644-.465a1 1 0 0 1-.04-.315q.013-.205-.014-.382a.7.7 0 0 0-.096-.328q-.082-.138-.287-.137-.246 0-.465.3a3 3 0 0 0-.383.698q-.164.41-.26.834a3 3 0 0 0-.095.656q0 .178.027.478.042.288.123.575.096.286.246.492.165.205.41.205.247 0 .452-.15t.396-.329q.191-.19.383-.341a.67.67 0 0 1 .424-.15.57.57 0 0 1 .465.218.75.75 0 0 1 .191.506q0 .355-.164.684-.164.314-.424.574a2.7 2.7 0 0 1-.601.45 2.5 2.5 0 0 1-.67.274v.082q0 .082-.014.178a.34.34 0 0 1-.041.178q.219.081.479.219.26.15.478.341.219.206.37.438.15.246.15.506m7.15-3.938q0 .246-.027.643-.015.396-.11.78-.096.368-.3.642a.68.68 0 0 1-.575.273q-.506 0-.78-.328-.272-.328-.259-.82a3.4 3.4 0 0 1-.998.601 3 3 0 0 1-1.121.219q-.396 0-.752-.191a2.4 2.4 0 0 1-.629-.493 2.5 2.5 0 0 1-.437-.67 1.9 1.9 0 0 1-.164-.751q0-.656.396-1.149.41-.492.998-.834a5.7 5.7 0 0 1 1.244-.56 7.5 7.5 0 0 1 1.19-.274v-.123a.5.5 0 0 0 .013-.123q0-.423-.232-.684-.233-.26-.656-.26a1.3 1.3 0 0 0-.588.124q-.247.11-.465.26a11 11 0 0 1-.437.26q-.219.108-.493.109a.76.76 0 0 1-.52-.192.64.64 0 0 1-.204-.492q0-.45.26-.82.273-.369.67-.616.41-.26.874-.396.48-.15.875-.15.37 0 .739.095.369.082.697.274.329.177.588.451.273.26.437.615.246.506.397 1.08.15.56.232 1.162.082.588.11 1.19.027.588.027 1.148m-2.188-.437-.04-.93h-.055a.1.1 0 0 0-.055-.014 1.4 1.4 0 0 0-.451.096 2 2 0 0 0-.506.246q-.246.15-.424.342a.6.6 0 0 0-.164.397q0 .19.137.26a.7.7 0 0 0 .314.068q.3 0 .643-.15.342-.165.601-.315m1.655-7.82a.87.87 0 0 1-.137.437 2 2 0 0 1-.342.41 2.3 2.3 0 0 1-.437.3q-.233.11-.438.11a1.3 1.3 0 0 1-.41-.068q-.192-.082-.396-.178a4 4 0 0 0-.383-.164 1 1 0 0 0-.383-.082q-.15 0-.3.096-.151.082-.315.191-.165.096-.342.178a.7.7 0 0 1-.328.082.43.43 0 0 1-.356-.178.66.66 0 0 1-.136-.383q0-.232.164-.45.165-.22.41-.384a2 2 0 0 1 .506-.273q.273-.11.478-.11.232 0 .397.096.177.096.328.22.15.122.3.218.165.096.383.096a.6.6 0 0 0 .329-.096q.164-.109.314-.233.165-.136.3-.232.151-.11.315-.11.192 0 .328.165.15.164.15.341m3.95 10.582q-.697 0-1.216-.37a3.2 3.2 0 0 1-.875-.943 4.5 4.5 0 0 1-.533-1.272 5.7 5.7 0 0 1-.178-1.394q0-.725.178-1.49.177-.78.547-1.408.369-.643.943-1.04.575-.41 1.367-.41.766 0 1.3.424.546.41.874 1.04.328.614.465 1.353a5.7 5.7 0 0 1 .096 1.394q-.041.725-.233 1.463a4.7 4.7 0 0 1-.533 1.326q-.356.588-.902.957-.547.37-1.3.37m.138-6.18q-.205 0-.37.218-.15.219-.26.534-.095.315-.15.67a4 4 0 0 0-.054.601q0 .329.054.711.069.383.178.711.11.315.26.533.164.205.369.205.219 0 .37-.205.163-.205.259-.52.096-.314.137-.683.04-.383.04-.71 0-.302-.054-.657a4 4 0 0 0-.164-.684 1.5 1.5 0 0 0-.26-.52q-.15-.204-.355-.204m5.496 5.058q0 .22-.123.56a4 4 0 0 1-.287.67q-.165.33-.383.561-.219.233-.424.233-.274 0-.274-.274 0-.164.069-.314.068-.15.15-.3.083-.138.15-.288a.6.6 0 0 0 .069-.273.77.77 0 0 1-.437.136.69.69 0 0 1-.534-.246.8.8 0 0 1-.219-.547q0-.437.288-.697.287-.273.724-.273.492 0 .862.26.369.26.369.792m9.57-1.709q0 .466-.301.916a3.3 3.3 0 0 1-.738.793 4.3 4.3 0 0 1-.943.56 2.5 2.5 0 0 1-.93.206q-.724 0-1.299-.355a3.4 3.4 0 0 1-.943-.93 4.5 4.5 0 0 1-.588-1.23 5 5 0 0 1-.192-1.327q0-.684.192-1.463.191-.78.574-1.435.397-.657.984-1.094.601-.437 1.422-.437.465 0 .889.164.425.15.738.437.315.288.506.684.192.396.192.888 0 .643-.274 1.204a3.2 3.2 0 0 1-.725.97q-.45.41-1.039.67a3.5 3.5 0 0 1-1.203.273q.056.397.315.575.273.177.642.178.274 0 .534-.137t.505-.301a6 6 0 0 1 .479-.315q.246-.136.492-.136a.76.76 0 0 1 .492.178.57.57 0 0 1 .219.464m-2.215-3.35a.8.8 0 0 0-.096-.368.315.315 0 0 0-.3-.192.8.8 0 0 0-.506.164q-.206.15-.342.397a2.3 2.3 0 0 0-.219.506q-.068.273-.082.505.192-.04.451-.109.274-.068.506-.178.246-.123.41-.3a.58.58 0 0 0 .178-.424m8.531-1.27q0 .218-.082.464a4 4 0 0 1-.205.479 8 8 0 0 1-.259.478q-.138.22-.247.41-.273.438-.546.889-.26.45-.534.889l.342.533q.219.343.424.724.219.37.369.739.15.37.151.629a.75.75 0 0 1-.192.478.58.58 0 0 1-.465.233q-.286 0-.588-.206a5.4 5.4 0 0 1-.574-.478 8 8 0 0 1-.506-.588q-.233-.315-.396-.52-.178.192-.465.52a8 8 0 0 1-.602.643q-.314.315-.628.547-.315.218-.561.218a.55.55 0 0 1-.451-.205.74.74 0 0 1-.164-.478q0-.274.177-.697.192-.425.438-.875.26-.451.506-.862.26-.41.396-.642a24 24 0 0 1-.341-.643 18 18 0 0 1-.397-.848q-.177-.45-.314-.875a2.8 2.8 0 0 1-.123-.724q0-.315.191-.506a.68.68 0 0 1 .506-.192q.342 0 .642.274.302.26.561.643.26.369.451.779.205.396.328.656l.451-.67q.301-.423.67-.834.37-.41.766-.71.396-.302.752-.302.232 0 .369.206.15.19.15.423m6.002 4.62q0 .466-.3.916a3.4 3.4 0 0 1-.739.793 4.3 4.3 0 0 1-.943.56 2.5 2.5 0 0 1-.93.206q-.725 0-1.299-.355a3.4 3.4 0 0 1-.943-.93 4.5 4.5 0 0 1-.588-1.23 5 5 0 0 1-.191-1.327q0-.684.191-1.463.192-.78.574-1.435.397-.657.985-1.094.602-.437 1.422-.437.465 0 .888.164a2.15 2.15 0 0 1 1.244 1.12q.192.397.192.89 0 .642-.274 1.203a3.2 3.2 0 0 1-.724.97 3.8 3.8 0 0 1-1.039.67 3.5 3.5 0 0 1-1.203.273q.054.397.314.575.274.177.643.178.273 0 .533-.137a6 6 0 0 0 .506-.301q.246-.177.478-.315.246-.136.492-.136.274 0 .493.178a.57.57 0 0 1 .218.464m-2.214-3.35a.8.8 0 0 0-.096-.368.32.32 0 0 0-.301-.192q-.3 0-.506.164-.205.15-.342.397a2.3 2.3 0 0 0-.218.506q-.069.273-.082.505.191-.04.451-.109a3 3 0 0 0 .506-.178q.246-.123.41-.3a.58.58 0 0 0 .178-.424m7.505.67a.9.9 0 0 1-.328-.027l-.273-.109a3 3 0 0 0-.246-.096.54.54 0 0 0-.274-.04q-.273.013-.492.15a2 2 0 0 0-.383.341 2.4 2.4 0 0 0-.287.465 2.7 2.7 0 0 0-.191.492q-.041.165-.069.506a17 17 0 0 0-.013.711q-.014.397-.014.752 0 .356-.027.56a4 4 0 0 1-.069.52 2.2 2.2 0 0 1-.177.547 1.3 1.3 0 0 1-.301.438.7.7 0 0 1-.492.177.65.65 0 0 1-.41-.136 1.3 1.3 0 0 1-.288-.356 3.4 3.4 0 0 1-.191-.533 6 6 0 0 1-.109-.615q-.041-.329-.069-.656l-.027-.616v-.546q.014-.247.014-.397a17 17 0 0 0-.055-.957 18 18 0 0 1-.027-.97q0-.302.027-.67.027-.37.15-.684.123-.328.356-.547.246-.219.67-.219.233 0 .396.15.164.15.26.37.11.218.164.465.054.245.068.45.328-.533.739-.86.41-.343 1.066-.37.328-.014.643.069.327.067.588.246.273.164.437.437.178.273.191.643.028.437-.259.67a1.14 1.14 0 0 1-.698.246m6.235-.136a.8.8 0 0 1-.055.287q-.123.315-.383.533a.96.96 0 0 1-.615.205q-.533 0-.725-.533a.4.4 0 0 1-.027-.15q0-.096-.014-.192v-.396a.8.8 0 0 0-.095-.3q-.069-.11-.233-.11-.232 0-.451.3a3.3 3.3 0 0 0-.369.698q-.15.397-.246.82-.096.424-.096.684 0 .204.028.506.027.287.109.56t.219.479q.15.19.382.191a.7.7 0 0 0 .424-.137q.205-.15.397-.342.177-.164.383-.341a.76.76 0 0 1 .492-.178q.342 0 .533.246a.85.85 0 0 1 .205.56q0 .465-.246.876a2.8 2.8 0 0 1-.615.697q-.37.287-.821.451-.45.178-.861.178-.738 0-1.258-.37a2.9 2.9 0 0 1-.82-.929 4.4 4.4 0 0 1-.451-1.244 6.4 6.4 0 0 1-.137-1.272q0-.697.191-1.504a5.7 5.7 0 0 1 .588-1.517 3.8 3.8 0 0 1 1.012-1.162q.629-.465 1.49-.465.534 0 .916.232.397.232.643.616.26.37.383.833.136.465.136.917v.136a.7.7 0 0 1-.013.137m3.131.355v.41q0 .206-.014.397-.014.233-.014.629 0 .383-.027.834t-.096.916q-.054.465-.191.848a1.8 1.8 0 0 1-.369.629.78.78 0 0 1-.561.246.5.5 0 0 1-.437-.205 1.9 1.9 0 0 1-.301-.561 4.6 4.6 0 0 1-.164-.78q-.055-.436-.082-.833a12 12 0 0 1-.028-.752v-1.121q0-.41.028-.875.027-.465.095-.944.082-.478.219-.875a1.9 1.9 0 0 1 .383-.642.77.77 0 0 1 .588-.246q.37 0 .56.369.192.369.288.861t.109.985q.014.478.014.71m.506-5.455q0 .15-.083.301a1.3 1.3 0 0 1-.205.26q-.11.123-.246.232a10 10 0 0 0-.246.178q-.096.068-.219.164-.108.083-.246.164a2 2 0 0 1-.259.123.6.6 0 0 1-.246.055.34.34 0 0 1-.192-.055.24.24 0 0 1-.082-.191q0-.205.15-.492.165-.3.397-.575.232-.286.492-.478.26-.205.479-.205.19 0 .341.164.165.15.165.355m5.537 5.1a.8.8 0 0 1-.055.287q-.123.315-.383.533a.96.96 0 0 1-.615.205q-.534 0-.725-.533a.4.4 0 0 1-.027-.15 1.4 1.4 0 0 0-.014-.192v-.396a.8.8 0 0 0-.095-.3q-.068-.11-.233-.11-.232 0-.451.3a3.3 3.3 0 0 0-.369.698q-.15.397-.246.82-.096.424-.096.684 0 .204.027.506.028.287.11.56.081.273.218.479a.47.47 0 0 0 .383.191.7.7 0 0 0 .424-.137q.205-.15.397-.342.178-.164.382-.341a.76.76 0 0 1 .493-.178q.34 0 .533.246a.85.85 0 0 1 .205.56q0 .465-.246.876a2.8 2.8 0 0 1-.615.697q-.37.287-.821.451a2.4 2.4 0 0 1-.861.178q-.738 0-1.258-.37a2.9 2.9 0 0 1-.82-.929 4.4 4.4 0 0 1-.451-1.244 6.3 6.3 0 0 1-.137-1.272q0-.697.191-1.504a5.7 5.7 0 0 1 .588-1.517 3.8 3.8 0 0 1 1.012-1.162q.629-.465 1.49-.465.534 0 .916.232.397.232.643.616.26.37.383.833.136.465.136.917v.136a.7.7 0 0 1-.013.137m3.021-4.293a.56.56 0 0 1-.109.342q-.096.15-.26.273a1.6 1.6 0 0 1-.356.178 1.3 1.3 0 0 1-.355.055.84.84 0 0 1-.478-.137q-.206-.136-.206-.424 0-.205.096-.355a.9.9 0 0 1 .26-.26q.15-.11.342-.164.19-.055.369-.055.26 0 .478.123.219.123.219.424m.109 4.648v.41q0 .206-.013.397-.014.233-.014.629 0 .383-.027.834t-.096.916q-.054.465-.191.848a1.8 1.8 0 0 1-.369.629.78.78 0 0 1-.561.246.51.51 0 0 1-.438-.205 1.9 1.9 0 0 1-.3-.561 4.6 4.6 0 0 1-.164-.78q-.055-.436-.082-.833a11 11 0 0 1-.028-.752v-1.121q0-.41.028-.875.027-.465.095-.944.082-.478.219-.875.15-.396.383-.642a.77.77 0 0 1 .588-.246q.37 0 .56.369.192.369.287.861.096.492.11.985.013.478.013.71m3.569 5.292q-.698 0-1.217-.37a3.2 3.2 0 0 1-.875-.943 4.5 4.5 0 0 1-.533-1.272 5.7 5.7 0 0 1-.178-1.394q0-.725.178-1.49.178-.78.547-1.408.369-.643.943-1.04.575-.41 1.367-.41.766 0 1.299.424.547.41.875 1.04.328.614.465 1.353.137.738.096 1.394-.041.725-.233 1.463a4.6 4.6 0 0 1-.533 1.326q-.356.588-.902.957-.548.37-1.299.37m.137-6.18q-.205 0-.37.218-.15.219-.259.534a5 5 0 0 0-.151.67 4 4 0 0 0-.054.601q0 .329.054.711.069.383.178.711.109.315.26.533.164.205.369.205.219 0 .369-.205.164-.205.26-.52.095-.314.137-.683.04-.383.041-.71 0-.302-.055-.657a4 4 0 0 0-.164-.684 1.6 1.6 0 0 0-.26-.52q-.15-.204-.355-.204m7.533-1.736q0 .396-.274.587-.26.192-.588.37-.328.163-.601.396-.26.232-.26.697 0 .246.109.424.124.178.288.328.178.137.382.287t.37.342q.177.192.287.465.123.273.123.67 0 .574-.301 1.135a3.75 3.75 0 0 1-1.777 1.668q-.574.26-1.135.26-.232 0-.465-.042a1.3 1.3 0 0 1-.424-.123.9.9 0 0 1-.301-.26.8.8 0 0 1-.123-.45q0-.384.151-.588.15-.219.383-.342.232-.123.492-.192.273-.068.506-.164.232-.11.382-.273.151-.165.151-.465 0-.287-.233-.588-.218-.315-.492-.656a7 7 0 0 1-.506-.752 1.8 1.8 0 0 1-.218-.875q0-.588.232-1.08.246-.506.643-.875.41-.37.929-.575a2.8 2.8 0 0 1 1.094-.218q.219 0 .424.04.218.042.383.151a.7.7 0 0 1 .259.274q.11.163.11.424m9.57 5.085q0 .466-.301.916a3.3 3.3 0 0 1-.738.793 4.3 4.3 0 0 1-.943.56 2.5 2.5 0 0 1-.93.206q-.724 0-1.299-.355a3.4 3.4 0 0 1-.943-.93 4.5 4.5 0 0 1-.588-1.23 5 5 0 0 1-.192-1.327q0-.684.192-1.463.191-.78.574-1.435.397-.657.984-1.094.602-.437 1.422-.437.465 0 .889.164.424.15.738.437.315.288.506.684.192.396.192.888 0 .643-.274 1.204a3.2 3.2 0 0 1-.724.97 3.9 3.9 0 0 1-1.04.67 3.5 3.5 0 0 1-1.203.273q.056.397.315.575.273.177.642.178.274 0 .534-.137t.505-.301a6 6 0 0 1 .479-.315q.246-.136.492-.136a.76.76 0 0 1 .492.178.57.57 0 0 1 .219.464m-2.215-3.35a.8.8 0 0 0-.095-.368.32.32 0 0 0-.301-.192.8.8 0 0 0-.506.164q-.205.15-.342.397a2.3 2.3 0 0 0-.219.506q-.068.273-.082.505.192-.04.451-.109.274-.068.506-.178.246-.123.41-.3a.58.58 0 0 0 .178-.424m11.129.534a.7.7 0 0 1-.055.287q-.123.315-.382.533a.97.97 0 0 1-.616.205q-.533 0-.724-.533a.4.4 0 0 1-.028-.15q0-.096-.013-.192v-.396a.8.8 0 0 0-.096-.3q-.069-.11-.232-.11-.233 0-.452.3a3.4 3.4 0 0 0-.369.698q-.15.397-.246.82-.096.424-.095.684 0 .204.027.506.028.287.109.56.082.273.219.479.15.19.383.191a.7.7 0 0 0 .424-.137q.205-.15.396-.342.178-.164.383-.341a.76.76 0 0 1 .492-.178q.342 0 .533.246a.85.85 0 0 1 .205.56q0 .465-.246.876a2.8 2.8 0 0 1-.615.697 3 3 0 0 1-.82.451 2.4 2.4 0 0 1-.862.178q-.738 0-1.257-.37a2.9 2.9 0 0 1-.821-.929 4.4 4.4 0 0 1-.451-1.244 6.4 6.4 0 0 1-.137-1.272q0-.697.192-1.504a5.6 5.6 0 0 1 .588-1.517 3.8 3.8 0 0 1 1.011-1.162q.63-.465 1.491-.465.532 0 .916.232.396.232.642.616.26.37.383.833.137.465.137.917v.136a1 1 0 0 1-.014.137m6.754 1.34q0 .752-.15 1.49a4.2 4.2 0 0 1-.506 1.326 2.75 2.75 0 0 1-.957.93q-.588.355-1.477.355-.875 0-1.463-.341a2.8 2.8 0 0 1-.943-.93 4.2 4.2 0 0 1-.492-1.299 8 8 0 0 1-.137-1.477q0-.82.191-1.626a5.5 5.5 0 0 1 .452-1.367 3.2 3.2 0 0 1 .423-.657q.247-.273.534-.273a.62.62 0 0 1 .437.15q.165.15.26.383.096.219.123.478.027.247.027.452 0 .314-.054.615-.042.3-.096.601l-.109.82a8 8 0 0 0-.028 1.286q.027.246.11.478.082.233.232.397.15.15.424.15.356 0 .56-.191.219-.191.315-.479.109-.287.137-.615.027-.329.027-.602 0-.6-.082-1.175a48 48 0 0 1-.151-1.19 1.3 1.3 0 0 1 .247-.97.9.9 0 0 1 .3-.26.74.74 0 0 1 .397-.11q.3 0 .533.22.233.204.383.546.164.329.26.752.109.41.164.82.068.397.082.752.027.356.027.56m3.09-5.633a.57.57 0 0 1-.109.342q-.096.15-.26.273-.165.11-.356.178a1.3 1.3 0 0 1-.355.055.85.85 0 0 1-.479-.137q-.205-.136-.205-.424 0-.205.096-.355a.9.9 0 0 1 .26-.26q.15-.11.341-.164a1.4 1.4 0 0 1 .37-.055q.26 0 .478.123.219.123.219.424m.109 4.648v.41q0 .206-.013.397-.014.233-.014.629 0 .383-.027.834-.029.45-.096.916-.055.465-.192.848a1.8 1.8 0 0 1-.369.629.78.78 0 0 1-.56.246.51.51 0 0 1-.438-.205 2 2 0 0 1-.301-.561 5 5 0 0 1-.164-.78q-.054-.436-.082-.833a12 12 0 0 1-.027-.752v-1.121q0-.41.027-.875.029-.465.096-.944.083-.478.219-.875.15-.396.383-.642a.77.77 0 0 1 .588-.246q.368 0 .56.369.191.369.287.861t.11.985q.013.478.013.71m6.864-4.101q0 .998-.082 1.982a28 28 0 0 0-.069 1.983q0 .806.041 1.6.055.792.055 1.599 0 .22-.014.533-.013.3-.096.588a1.1 1.1 0 0 1-.246.492q-.164.205-.478.205a.89.89 0 0 1-.684-.3 1.5 1.5 0 0 1-.328-.698 2.34 2.34 0 0 1-.752.834 1.83 1.83 0 0 1-1.066.342q-.615 0-1.067-.424a3.8 3.8 0 0 1-.738-1.025 6 6 0 0 1-.437-1.258 5.6 5.6 0 0 1-.137-1.135 8.6 8.6 0 0 1 .178-1.668q.11-.45.273-.875a3.3 3.3 0 0 1 .41-.779 2.1 2.1 0 0 1 .602-.547q.356-.205.806-.205.493 0 .944.287t.683.711l.123-2.174q.014-.26.041-.601a4 4 0 0 1 .11-.67q.095-.315.287-.533.191-.22.56-.22.397 0 .616.192t.314.492q.11.288.123.63.027.34.028.642m-2.229 6.07q0-.314-.014-.615a7 7 0 0 1 0-.615 7 7 0 0 0-.191-.383 1.7 1.7 0 0 0-.273-.396 1.4 1.4 0 0 0-.342-.315.75.75 0 0 0-.41-.123.54.54 0 0 0-.397.15q-.15.15-.219.37a2.2 2.2 0 0 0-.095.45q-.014.247-.014.425 0 .164.027.492.028.314.096.642.082.328.219.575.136.245.369.246a1 1 0 0 0 .355-.069q.178-.082.328-.191.165-.123.301-.26a6 6 0 0 0 .26-.273zm8.941.998q0 .246-.027.643a3.7 3.7 0 0 1-.109.78q-.096.368-.301.642a.68.68 0 0 1-.574.273q-.506 0-.78-.328-.273-.328-.259-.82a3.4 3.4 0 0 1-.998.601 3 3 0 0 1-1.121.219q-.397 0-.752-.191a2.3 2.3 0 0 1-.629-.493 2.5 2.5 0 0 1-.438-.67 1.9 1.9 0 0 1-.164-.751q0-.656.397-1.149.41-.492.998-.834a5.7 5.7 0 0 1 1.244-.56 7.4 7.4 0 0 1 1.189-.274v-.123a.5.5 0 0 0 .014-.123q0-.423-.233-.684-.231-.26-.656-.26a1.3 1.3 0 0 0-.588.124q-.246.11-.465.26a10 10 0 0 1-.437.26q-.219.108-.492.109a.76.76 0 0 1-.52-.192.65.65 0 0 1-.205-.492q0-.45.26-.82.274-.369.67-.616.41-.26.875-.396.479-.15.875-.15.369 0 .738.095.37.082.697.274.328.177.588.451.274.26.438.615.246.506.396 1.08.151.56.233 1.162.081.588.109 1.19.027.588.027 1.148m-2.187-.437-.041-.93h-.055a.1.1 0 0 0-.054-.014q-.178 0-.452.096a2 2 0 0 0-.505.246q-.247.15-.424.342a.6.6 0 0 0-.164.397q0 .19.136.26a.7.7 0 0 0 .315.068q.3 0 .642-.15.342-.165.602-.315m6.891 2.748q-.232 0-.37-.219a1.5 1.5 0 0 1-.205-.479 4 4 0 0 1-.095-.546 10 10 0 0 1-.014-.438q0-.41.041-.82l.109-.82q.069-.41.11-.82.054-.411.054-.821 0-.165-.013-.355a1.4 1.4 0 0 0-.069-.356.6.6 0 0 0-.15-.287.4.4 0 0 0-.287-.11q-.123 0-.274.206-.15.191-.287.45a5 5 0 0 0-.218.507 1.3 1.3 0 0 0-.082.369v.615q.013.3.013.615v.793q-.014.246-.041.506a4 4 0 0 1-.082.506 3 3 0 0 1-.123.478 1.5 1.5 0 0 1-.219.397q-.123.164-.3.273a.8.8 0 0 1-.424.11.6.6 0 0 1-.451-.178 1.3 1.3 0 0 1-.288-.451 3.3 3.3 0 0 1-.164-.63 22 22 0 0 1-.068-.683 16 16 0 0 1-.014-.615q.014-.287.014-.451v-.643q0-.52-.027-1.025a38 38 0 0 1-.014-1.012v-.697q.014-.424.109-.82.096-.41.315-.698.219-.287.642-.287.192 0 .342.123.151.124.26.301.123.178.191.383.083.205.123.355.137-.19.315-.369.192-.177.424-.314a2.23 2.23 0 0 1 1.176-.301q.696 0 1.08.342.396.329.574.834.191.492.232 1.066t.041 1.04q0 .231-.041.697-.041.45-.136 1.011-.083.547-.233 1.135a7.6 7.6 0 0 1-.355 1.053 2.6 2.6 0 0 1-.493.779q-.273.3-.628.3m8.544-9.38q0 .999-.082 1.983a29 29 0 0 0-.068 1.983q0 .806.041 1.6.055.792.055 1.599 0 .22-.014.533-.013.3-.096.588a1.1 1.1 0 0 1-.246.492q-.164.205-.478.205a.89.89 0 0 1-.684-.3 1.5 1.5 0 0 1-.328-.698 2.34 2.34 0 0 1-.752.834 1.83 1.83 0 0 1-1.066.342q-.615 0-1.067-.424a3.8 3.8 0 0 1-.738-1.025 6 6 0 0 1-.437-1.258 5.6 5.6 0 0 1-.137-1.135 8.2 8.2 0 0 1 .178-1.668q.109-.45.273-.875a3.3 3.3 0 0 1 .41-.779 2.1 2.1 0 0 1 .602-.547q.356-.205.806-.205.492 0 .944.287.45.287.683.711l.123-2.174q.014-.26.041-.601a4 4 0 0 1 .11-.67q.095-.315.287-.533.19-.22.56-.22.397 0 .616.192t.314.492q.11.288.123.63.027.34.027.642m-2.228 6.071q0-.314-.014-.615a7 7 0 0 1 0-.615 7 7 0 0 0-.191-.383 1.7 1.7 0 0 0-.274-.396 1.4 1.4 0 0 0-.341-.315.75.75 0 0 0-.411-.123.54.54 0 0 0-.396.15q-.15.15-.219.37a2.2 2.2 0 0 0-.095.45q-.014.247-.014.425 0 .164.027.492.027.314.096.642.082.328.219.575.137.245.369.246a1 1 0 0 0 .355-.069q.178-.082.328-.191.165-.123.301-.26.15-.15.26-.273zm5.728 3.323q-.697 0-1.216-.37a3.2 3.2 0 0 1-.875-.943 4.5 4.5 0 0 1-.534-1.272 5.8 5.8 0 0 1-.177-1.394q0-.725.177-1.49.178-.78.547-1.408.37-.643.944-1.04.574-.41 1.367-.41.765 0 1.299.424.546.41.875 1.04.327.614.465 1.353.137.738.095 1.394-.041.725-.232 1.463a4.7 4.7 0 0 1-.533 1.326q-.356.588-.903.957-.546.37-1.299.37m.137-6.18q-.205 0-.369.218-.15.219-.26.534a5 5 0 0 0-.15.67 4 4 0 0 0-.055.601q0 .329.055.711.068.383.178.711.11.315.259.533.165.205.37.205.218 0 .369-.205.164-.205.259-.52.096-.314.137-.683.041-.383.041-.71 0-.302-.055-.657a3.7 3.7 0 0 0-.164-.684 1.5 1.5 0 0 0-.259-.52q-.151-.204-.356-.204M42.208 52.488q0 .397-.068.903-.055.492-.191 1.011a6 6 0 0 1-.342 1.012 3.7 3.7 0 0 1-.52.889q-.3.383-.71.615a1.8 1.8 0 0 1-.93.232q-.561 0-1.026-.26-.45-.26-.78-.71a1.15 1.15 0 0 1-.3.656.87.87 0 0 1-.656.273q-.232 0-.397-.232a2 2 0 0 1-.246-.588 6 6 0 0 1-.15-.807 14 14 0 0 1-.055-.847 22 22 0 0 1-.013-.738v-1.395l.027-.943q0-.233-.014-.698 0-.465.014-1.025.013-.574.055-1.162.054-.602.177-1.094t.342-.807.56-.328q.274 0 .465.192.192.19.315.506.137.315.205.71.082.383.11.78.04.383.04.738.014.342.014.56 0 .042-.014.192v.738q.124-.26.356-.505a3.15 3.15 0 0 1 1.121-.752q.315-.123.602-.123.573 0 .957.3.396.288.629.739.232.45.328.984.095.519.095.984m-2.01.41q0-.163-.027-.355a.9.9 0 0 0-.096-.355.7.7 0 0 0-.205-.274.48.48 0 0 0-.328-.11q-.218 0-.437.096a2 2 0 0 0-.397.247q-.191.15-.355.328-.164.163-.287.328l-.137 1.217q.22.315.533.505.315.178.711.178.3 0 .492-.191.205-.192.315-.465.123-.287.164-.602.054-.315.055-.547m8.573 1.668q0 .466-.301.916a3.4 3.4 0 0 1-.738.793 4.3 4.3 0 0 1-.944.56 2.5 2.5 0 0 1-.93.206q-.723 0-1.298-.355a3.4 3.4 0 0 1-.944-.93 4.5 4.5 0 0 1-.587-1.23 5 5 0 0 1-.192-1.327q0-.684.192-1.463.191-.78.574-1.435.396-.657.984-1.094.602-.437 1.422-.437.465 0 .889.164a2.15 2.15 0 0 1 1.244 1.12q.19.397.191.89 0 .642-.273 1.203a3.2 3.2 0 0 1-.725.97q-.45.41-1.039.67a3.5 3.5 0 0 1-1.203.273q.054.397.314.575.274.178.643.178.273 0 .533-.137t.506-.301q.246-.177.479-.315.246-.136.492-.136a.76.76 0 0 1 .492.178.57.57 0 0 1 .219.464m-2.215-3.35a.8.8 0 0 0-.096-.368.32.32 0 0 0-.3-.192q-.302 0-.506.164-.206.15-.342.397a2.3 2.3 0 0 0-.219.506q-.069.273-.082.505.192-.04.451-.109.273-.068.506-.178.245-.123.41-.3a.58.58 0 0 0 .178-.424m11.06 1.272v.711q0 .437-.027.957-.013.52-.082 1.053-.068.519-.219.943-.136.424-.355.698a.69.69 0 0 1-.56.273.53.53 0 0 1-.465-.246 2 2 0 0 1-.22-.602 4.4 4.4 0 0 1-.081-.697v-.56q0-.616.04-1.203.042-.588.042-1.204v-.246q0-.177-.028-.355a1 1 0 0 0-.095-.315q-.055-.136-.178-.136-.246 0-.396.26-.15.245-.247.587-.095.342-.136.684-.042.329-.055.492a8 8 0 0 0-.055.533q-.014.355-.054.78a8 8 0 0 1-.11.874 5 5 0 0 1-.191.807 1.9 1.9 0 0 1-.287.588.53.53 0 0 1-.438.233.56.56 0 0 1-.506-.288 2.1 2.1 0 0 1-.26-.67 5.5 5.5 0 0 1-.109-.779q-.013-.397-.013-.615v-.451a7 7 0 0 0 .013-.451v-.315q0-.219-.013-.478 0-.275-.028-.56a4 4 0 0 0-.054-.52 1.3 1.3 0 0 0-.123-.397q-.083-.15-.192-.15-.177 0-.328.232-.15.22-.26.533-.11.3-.178.602-.054.3-.054.437v.082q0 .657.082 1.285.081.63.082 1.286 0 .383-.246.71-.246.315-.684.315a.66.66 0 0 1-.52-.232 2 2 0 0 1-.341-.63 5.3 5.3 0 0 1-.219-.833 11 11 0 0 1-.096-.903q-.027-.451-.04-.806v-.547q0-.205-.014-.602 0-.396.013-.861.028-.465.082-.943.055-.492.178-.889t.315-.643a.64.64 0 0 1 .52-.26q.354 0 .573.192.233.193.233.574 0 .083-.014.164a1 1 0 0 1-.014.15q.15-.217.37-.437.218-.232.464-.41a2.3 2.3 0 0 1 .547-.3q.288-.124.575-.124a.85.85 0 0 1 .492.15q.218.15.383.383.163.22.273.479.11.26.15.492.137-.246.328-.492a3 3 0 0 1 .438-.451 2.2 2.2 0 0 1 .506-.315 1.5 1.5 0 0 1 .588-.123q.287 0 .492.205.205.206.355.534.15.314.233.724.082.397.136.793.055.383.069.725.014.328.014.52m10.09-4.484q0 .998-.082 1.982a29 29 0 0 0-.068 1.983q0 .806.041 1.6.055.792.055 1.599 0 .22-.014.533-.014.3-.096.588a1.14 1.14 0 0 1-.246.492q-.165.205-.478.205a.89.89 0 0 1-.684-.3 1.5 1.5 0 0 1-.328-.698 2.34 2.34 0 0 1-.752.834 1.83 1.83 0 0 1-1.066.342q-.615 0-1.067-.424a3.7 3.7 0 0 1-.738-1.025 6 6 0 0 1-.438-1.258 5.7 5.7 0 0 1-.136-1.135 8.5 8.5 0 0 1 .177-1.668q.11-.45.274-.875.165-.437.41-.779.26-.342.602-.547.355-.205.806-.205.492 0 .944.287.45.288.683.711l.123-2.174q.014-.26.041-.601.028-.355.11-.67.095-.315.287-.533.19-.22.56-.22.397 0 .615.192.219.192.315.492.11.287.123.63.027.34.027.642m-2.228 6.07q0-.314-.014-.615-.013-.3 0-.615a8 8 0 0 0-.191-.383 1.7 1.7 0 0 0-.274-.396 1.4 1.4 0 0 0-.341-.315.75.75 0 0 0-.41-.123.54.54 0 0 0-.397.15q-.15.15-.219.37a2.2 2.2 0 0 0-.096.45q-.013.247-.013.425 0 .164.027.492.027.314.096.642.081.328.219.575.136.245.369.246a1 1 0 0 0 .355-.069q.178-.082.328-.191.165-.123.301-.26.15-.15.26-.273zm5.728 3.323q-.697 0-1.216-.37a3.2 3.2 0 0 1-.875-.943 4.5 4.5 0 0 1-.534-1.272 5.7 5.7 0 0 1-.177-1.394q0-.725.177-1.49.178-.78.547-1.408.368-.643.944-1.04.573-.41 1.367-.41.765 0 1.299.424.546.41.875 1.04.327.614.465 1.353.136.738.095 1.394-.041.725-.232 1.463a4.6 4.6 0 0 1-.534 1.326q-.354.588-.902.957-.546.37-1.299.37m.137-6.18q-.205 0-.37.218-.15.219-.259.534-.096.315-.15.67a4 4 0 0 0-.055.601q0 .329.055.711.068.383.178.711.108.315.26.533.164.205.368.205.22 0 .37-.205.164-.205.26-.52.095-.314.136-.683.04-.383.041-.71 0-.302-.055-.657a4 4 0 0 0-.164-.684 1.5 1.5 0 0 0-.26-.52q-.15-.204-.355-.204m11.895.533a.8.8 0 0 1-.055.287q-.123.315-.383.533a.96.96 0 0 1-.615.205q-.533 0-.725-.533a.4.4 0 0 1-.027-.15q0-.096-.014-.192v-.396a.8.8 0 0 0-.095-.3q-.069-.11-.233-.11-.232 0-.451.3-.205.288-.37.698-.15.397-.245.82-.096.424-.096.684 0 .204.027.506.028.287.11.56.081.273.218.479.15.19.383.191a.7.7 0 0 0 .424-.137q.205-.15.397-.342.177-.164.382-.341a.76.76 0 0 1 .493-.178q.341 0 .533.246.204.246.205.56 0 .465-.246.876-.247.396-.615.697-.37.287-.82.451a2.4 2.4 0 0 1-.862.178q-.739 0-1.258-.37a2.9 2.9 0 0 1-.82-.929 4.4 4.4 0 0 1-.451-1.244 6.4 6.4 0 0 1-.137-1.272q0-.697.191-1.504a5.7 5.7 0 0 1 .588-1.517 3.8 3.8 0 0 1 1.012-1.162q.63-.465 1.49-.465.534 0 .916.232.397.232.643.616.259.369.383.834.136.465.136.916v.136a.7.7 0 0 1-.013.137m3.363 5.647q-.697 0-1.217-.37a3.2 3.2 0 0 1-.875-.943 4.5 4.5 0 0 1-.533-1.272 5.7 5.7 0 0 1-.178-1.394q0-.725.178-1.49.177-.78.547-1.408.369-.643.943-1.04.575-.41 1.367-.41.766 0 1.3.424.546.41.874 1.04.328.614.465 1.353.136.738.096 1.394-.041.725-.233 1.463a4.7 4.7 0 0 1-.533 1.326q-.356.588-.902.957-.547.37-1.3.37m.137-6.18q-.205 0-.37.218-.15.219-.26.534-.095.315-.15.67a4 4 0 0 0-.054.601q0 .329.054.711.069.383.178.711.11.315.26.533.164.205.369.205.219 0 .37-.205.163-.205.259-.52.096-.314.137-.683.04-.383.04-.71 0-.302-.054-.657a4 4 0 0 0-.164-.684 1.5 1.5 0 0 0-.26-.52q-.15-.204-.355-.204m8.271.67a.9.9 0 0 1-.328-.028l-.273-.109a3 3 0 0 0-.247-.096.54.54 0 0 0-.273-.04q-.273.013-.492.15a2 2 0 0 0-.383.341q-.165.205-.287.465a3 3 0 0 0-.192.492q-.04.165-.068.506-.013.33-.013.711-.014.397-.014.752 0 .356-.028.56-.014.22-.068.52a2.3 2.3 0 0 1-.178.547 1.25 1.25 0 0 1-.3.438.7.7 0 0 1-.493.177.65.65 0 0 1-.41-.136 1.3 1.3 0 0 1-.287-.356 3.3 3.3 0 0 1-.191-.533 7 7 0 0 1-.11-.615q-.04-.329-.068-.656l-.027-.616v-.546q.013-.247.013-.397a17 17 0 0 0-.054-.957 18 18 0 0 1-.028-.97q0-.302.028-.67a2.3 2.3 0 0 1 .15-.684q.123-.328.355-.547.247-.219.67-.219.233 0 .397.15.165.15.26.37.109.218.164.465.054.245.068.45.328-.533.738-.86.411-.343 1.067-.37.328-.014.642.069.33.068.588.246.273.164.438.437.177.273.191.643.028.437-.26.67a1.14 1.14 0 0 1-.697.246m7.424 1.039q0 .6-.137 1.326a4.7 4.7 0 0 1-.437 1.326 3 3 0 0 1-.807 1.025q-.492.41-1.244.41-.192 0-.397-.027a2 2 0 0 1-.396-.095 1.4 1.4 0 0 1-.328-.178.8.8 0 0 1-.233-.315l-.123 1.97q-.013.314-.027.751 0 .438-.11.834a1.5 1.5 0 0 1-.341.67q-.232.288-.684.287-.26 0-.437-.273a2.2 2.2 0 0 1-.287-.67 8 8 0 0 1-.15-.916q-.055-.506-.07-.97-.012-.465-.013-.849v-.56q0-.916-.013-1.819-.014-.915-.014-1.831v-.506q0-.356.027-.766.028-.41.082-.848.069-.437.192-.793a1.7 1.7 0 0 1 .314-.587.58.58 0 0 1 .465-.233q.177 0 .314.11.15.095.247.26.109.15.177.327.069.178.11.329.424-.48.97-.725.56-.246 1.19-.246.656 0 1.066.369.424.369.656.916.246.546.342 1.176.096.615.096 1.12m-1.955-.11q0-.204-.041-.41a1.1 1.1 0 0 0-.123-.396.67.67 0 0 0-.246-.301.67.67 0 0 0-.41-.123q-.33 0-.698.219a1.5 1.5 0 0 0-.533.478q-.069.11-.082.356-.014.246-.014.369v.26a42 42 0 0 1 .055.629q.027.15.068.232.042.123.178.232.137.096.3.178a1.6 1.6 0 0 0 .33.123q.176.041.3.041a.57.57 0 0 0 .465-.219 1.6 1.6 0 0 0 .273-.52q.11-.3.137-.614a5 5 0 0 0 .041-.534m5.387 4.58q-.698 0-1.217-.369a3.2 3.2 0 0 1-.875-.943 4.5 4.5 0 0 1-.533-1.272 5.7 5.7 0 0 1-.178-1.394q0-.725.178-1.49.177-.78.546-1.408.37-.643.944-1.04.574-.41 1.367-.41.765 0 1.299.424.546.41.875 1.04.328.614.465 1.353.137.738.095 1.394-.04.725-.232 1.463a4.7 4.7 0 0 1-.533 1.326q-.356.588-.903.957-.546.37-1.298.37m.136-6.18q-.204 0-.369.22-.15.218-.26.533-.095.315-.15.67a4 4 0 0 0-.055.601q0 .329.055.711.069.383.178.711.11.315.259.533.165.205.37.205.218 0 .369-.205.164-.205.26-.52.095-.314.136-.683.042-.383.041-.71 0-.302-.054-.657a4 4 0 0 0-.164-.684 1.6 1.6 0 0 0-.26-.52q-.151-.204-.356-.204m5.51 5.128a.7.7 0 0 1-.082.328.8.8 0 0 1-.219.232 1 1 0 0 1-.287.15.9.9 0 0 1-.314.055q-.205 0-.451-.082a1.6 1.6 0 0 1-.438-.205 1.5 1.5 0 0 1-.328-.314.7.7 0 0 1-.137-.424q0-.369.315-.547.314-.19.642-.191.205 0 .424.068.232.069.424.205a1 1 0 0 1 .328.315.7.7 0 0 1 .123.41m8.313-8.942a.8.8 0 0 1-.206.547 1.6 1.6 0 0 1-.464.383q-.246.15-.506.328-.26.165-.479.383a1.7 1.7 0 0 0-.355.465q-.137.26-.137.588 0 .286.137.52.136.232.328.464l.437.465q.246.233.438.533.206.287.342.656t.136.862q0 .342-.15.779-.137.425-.383.861-.246.438-.588.848a5.4 5.4 0 0 1-.711.738q-.369.315-.779.506a1.8 1.8 0 0 1-.793.205 1.27 1.27 0 0 1-.752-.232q-.328-.233-.328-.698 0-.314.15-.574.151-.273.37-.52.218-.245.478-.478.273-.233.492-.465a3 3 0 0 0 .369-.478q.151-.26.151-.547 0-.396-.287-.807-.274-.424-.616-.861-.341-.45-.628-.916a1.84 1.84 0 0 1-.274-.943q0-.588.315-1.23.314-.657.806-1.19a4.5 4.5 0 0 1 1.108-.903q.615-.355 1.216-.355.479 0 .821.287t.342.78m3.076 9.995q-.698 0-1.217-.37a3.2 3.2 0 0 1-.875-.943 4.5 4.5 0 0 1-.533-1.272 5.7 5.7 0 0 1-.178-1.394q0-.725.178-1.49.177-.78.547-1.408.369-.643.943-1.04.575-.41 1.367-.41.766 0 1.299.424.547.41.875 1.04.328.614.465 1.353.136.738.096 1.394-.042.725-.233 1.463a4.6 4.6 0 0 1-.533 1.326q-.356.588-.902.957-.547.37-1.299.37m.136-6.18q-.204 0-.369.218-.15.219-.259.534a5 5 0 0 0-.151.67 4 4 0 0 0-.055.601q0 .329.055.711.069.383.178.711.109.315.26.533.163.205.369.205.219 0 .369-.205.164-.205.26-.52.095-.314.136-.683.041-.383.041-.71 0-.302-.054-.657a4 4 0 0 0-.164-.684 1.6 1.6 0 0 0-.26-.52q-.15-.204-.356-.204m11.827 1.271v.711q0 .437-.028.957a10 10 0 0 1-.082 1.053q-.067.519-.219.943a2.2 2.2 0 0 1-.355.698.69.69 0 0 1-.561.273.53.53 0 0 1-.464-.246 1.9 1.9 0 0 1-.219-.602 4.4 4.4 0 0 1-.082-.697v-.56q0-.616.041-1.203.04-.588.041-1.204v-.246q0-.177-.027-.355a1.1 1.1 0 0 0-.096-.315q-.055-.136-.178-.136-.246 0-.396.26-.151.245-.246.587-.096.342-.137.684a12 12 0 0 0-.055.492 8 8 0 0 0-.055.533q-.013.355-.054.78a8 8 0 0 1-.11.874q-.068.438-.191.807a1.9 1.9 0 0 1-.287.588.53.53 0 0 1-.438.233.56.56 0 0 1-.506-.288 2.1 2.1 0 0 1-.259-.67 6 6 0 0 1-.11-.779q-.013-.397-.013-.615v-.451q.013-.22.013-.451v-.315a9 9 0 0 0-.013-.478q0-.275-.028-.56a4 4 0 0 0-.054-.52 1.3 1.3 0 0 0-.123-.397q-.082-.15-.192-.15-.178 0-.328.232-.15.22-.26.533-.11.3-.177.602-.055.3-.055.437v.082q0 .657.082 1.285.082.63.082 1.286 0 .383-.246.71-.246.315-.684.315a.66.66 0 0 1-.519-.232 2 2 0 0 1-.342-.63 5.4 5.4 0 0 1-.219-.833q-.067-.464-.096-.903-.027-.451-.041-.806v-.547q0-.205-.013-.602 0-.396.013-.861.028-.465.082-.943.055-.492.178-.889t.315-.643a.63.63 0 0 1 .519-.26q.356 0 .574.192.233.193.233.574 0 .083-.014.164a1 1 0 0 1-.013.15q.15-.217.369-.437.218-.232.464-.41.26-.192.547-.3a1.45 1.45 0 0 1 .575-.124.85.85 0 0 1 .492.15q.218.15.383.383.163.22.273.479.11.26.15.492.137-.246.329-.492.204-.26.437-.451.233-.192.506-.315.286-.123.588-.123.287 0 .492.205.205.206.355.534.151.314.233.724.082.397.137.793.054.383.068.725.014.328.014.52m3.5 4.909q-.698 0-1.217-.37a3.2 3.2 0 0 1-.875-.943 4.5 4.5 0 0 1-.533-1.272 5.7 5.7 0 0 1-.178-1.394q0-.725.178-1.49.177-.78.546-1.408.37-.643.944-1.04.574-.41 1.367-.41.765 0 1.299.424.546.41.875 1.04.328.614.465 1.353.137.738.095 1.394-.04.725-.232 1.463a4.6 4.6 0 0 1-.533 1.326q-.355.588-.903.957-.546.37-1.298.37m.136-6.18q-.204 0-.369.218-.15.219-.26.534-.095.315-.15.67a4 4 0 0 0-.055.601q0 .329.055.711.069.383.178.711.109.315.26.533.164.205.369.205.219 0 .369-.205.164-.205.26-.52.095-.314.136-.683.042-.383.041-.71 0-.302-.054-.657a4 4 0 0 0-.164-.684 1.6 1.6 0 0 0-.26-.52q-.15-.204-.356-.204m7.534-1.736q0 .396-.274.587-.26.192-.588.37-.328.163-.601.396-.26.232-.26.697 0 .246.109.424.123.178.287.328.178.137.383.287t.369.342q.179.192.287.465.123.273.123.67 0 .574-.3 1.135a3.73 3.73 0 0 1-1.778 1.668q-.574.26-1.134.26-.233 0-.465-.042a1.3 1.3 0 0 1-.424-.123.9.9 0 0 1-.301-.26.8.8 0 0 1-.123-.45q0-.384.15-.588.151-.219.383-.342t.492-.192q.274-.068.506-.164.233-.11.383-.273.15-.165.151-.465 0-.287-.233-.588-.219-.315-.492-.656a7 7 0 0 1-.506-.752 1.8 1.8 0 0 1-.219-.875q0-.588.233-1.08.246-.507.642-.875.411-.37.93-.575a2.8 2.8 0 0 1 1.094-.218q.219 0 .424.04.218.042.382.151.165.096.26.274.11.163.11.423m9.83 3.609q0 .752-.151 1.49a4.1 4.1 0 0 1-.506 1.326 2.75 2.75 0 0 1-.957.93q-.588.355-1.476.355-.876 0-1.463-.341a2.8 2.8 0 0 1-.943-.93 4.2 4.2 0 0 1-.493-1.299 8 8 0 0 1-.136-1.477q0-.82.191-1.626.04-.22.15-.602.123-.397.301-.766.192-.383.424-.656.246-.273.533-.273.274 0 .438.15t.259.383q.096.219.124.478.027.247.027.452 0 .314-.055.615-.04.3-.096.601l-.109.82a8 8 0 0 0-.027 1.286q.027.246.109.478.082.233.233.397.15.15.423.15.356 0 .561-.191.22-.191.314-.479.11-.287.137-.615.027-.329.027-.602 0-.6-.082-1.175a53 53 0 0 1-.15-1.19 1.3 1.3 0 0 1 .055-.602q.068-.204.191-.368a.9.9 0 0 1 .301-.26.74.74 0 0 1 .396-.11q.301 0 .534.22.232.204.382.546.165.329.26.752.11.41.164.82.069.397.082.752.028.356.028.56m9.132-.602v.711q0 .437-.027.957a10 10 0 0 1-.082 1.053q-.068.519-.219.943a2.2 2.2 0 0 1-.355.698.69.69 0 0 1-.561.273.53.53 0 0 1-.465-.246 2 2 0 0 1-.218-.602 4.4 4.4 0 0 1-.082-.697v-.56q0-.616.041-1.203.04-.588.041-1.204v-.246a2 2 0 0 0-.028-.355 1 1 0 0 0-.095-.315q-.055-.136-.178-.136-.246 0-.397.26-.15.245-.246.587a4.6 4.6 0 0 0-.136.684 12 12 0 0 0-.055.492 8 8 0 0 0-.055.533q-.013.355-.054.78a8 8 0 0 1-.11.874q-.068.438-.191.807a1.9 1.9 0 0 1-.287.588.54.54 0 0 1-.438.233.56.56 0 0 1-.506-.288 2.1 2.1 0 0 1-.259-.67 5.5 5.5 0 0 1-.11-.779q-.014-.397-.014-.615v-.451q.014-.22.014-.451v-.315q0-.219-.014-.478 0-.275-.027-.56a4 4 0 0 0-.055-.52 1.3 1.3 0 0 0-.123-.397q-.081-.15-.191-.15-.177 0-.328.232-.15.22-.26.533a5 5 0 0 0-.178.602 3 3 0 0 0-.054.437v.082q0 .657.082 1.285.082.63.082 1.286 0 .383-.246.71-.246.315-.684.315a.66.66 0 0 1-.519-.232 2 2 0 0 1-.342-.63 5.4 5.4 0 0 1-.219-.833q-.068-.464-.096-.903-.027-.451-.041-.806v-.547q0-.205-.013-.602 0-.396.013-.861.028-.465.082-.943.055-.492.178-.889t.314-.643a.64.64 0 0 1 .52-.26q.355 0 .574.192.233.193.233.574 0 .083-.014.164a1 1 0 0 1-.014.15q.151-.217.369-.437.219-.232.465-.41.26-.192.547-.3.288-.124.574-.124a.85.85 0 0 1 .493.15q.218.15.382.383.165.22.274.479.11.26.15.492.137-.246.328-.492.206-.26.438-.451.232-.192.506-.315.287-.123.588-.123.286 0 .492.205.205.206.355.534.151.314.233.724.082.397.136.793.055.383.069.725.013.328.013.52m6.713 2.584q0 .246-.027.643a3.8 3.8 0 0 1-.109.78q-.096.368-.301.642a.68.68 0 0 1-.574.273q-.506 0-.78-.328t-.259-.82a3.4 3.4 0 0 1-.999.601 3 3 0 0 1-1.121.219q-.396 0-.752-.191a2.47 2.47 0 0 1-1.066-1.162 1.9 1.9 0 0 1-.164-.752q0-.656.396-1.149.411-.492.999-.834a5.6 5.6 0 0 1 1.244-.56 7.4 7.4 0 0 1 1.189-.274v-.123a.5.5 0 0 0 .014-.123q0-.423-.233-.684-.232-.26-.656-.26a1.3 1.3 0 0 0-.588.124q-.246.11-.465.26a10 10 0 0 1-.437.26q-.219.108-.492.109a.76.76 0 0 1-.52-.192.64.64 0 0 1-.205-.492q0-.45.26-.82.273-.369.67-.616.41-.26.875-.396.478-.15.875-.15.369 0 .738.095.37.082.697.274.328.178.588.451.273.26.438.615.246.506.396 1.08.15.56.233 1.162.082.588.109 1.19.027.588.027 1.148m-2.187-.437-.041-.93h-.055a.1.1 0 0 0-.055-.014q-.177 0-.451.096a2 2 0 0 0-.506.246q-.246.15-.423.342a.6.6 0 0 0-.164.397q0 .19.136.26a.7.7 0 0 0 .315.068q.3 0 .642-.15.342-.165.602-.315m12.031-.069q0 .466-.301.916a3.3 3.3 0 0 1-.738.793 4.3 4.3 0 0 1-.943.56 2.5 2.5 0 0 1-.93.206q-.724 0-1.299-.355a3.4 3.4 0 0 1-.943-.93 4.5 4.5 0 0 1-.588-1.23 5 5 0 0 1-.192-1.327q0-.684.192-1.463.191-.78.574-1.435.397-.657.984-1.094.602-.437 1.422-.437.465 0 .889.164.424.15.738.437.315.287.506.684.192.396.192.888 0 .643-.274 1.204a3.2 3.2 0 0 1-.724.97 3.9 3.9 0 0 1-1.04.67 3.5 3.5 0 0 1-1.203.273q.055.397.315.575.273.178.642.178.274 0 .534-.137t.505-.301a6 6 0 0 1 .479-.315q.246-.136.492-.136a.76.76 0 0 1 .492.178.57.57 0 0 1 .219.464m-2.215-3.35a.8.8 0 0 0-.095-.368.32.32 0 0 0-.301-.192.8.8 0 0 0-.506.164q-.205.15-.342.397a2.3 2.3 0 0 0-.219.506q-.068.273-.082.505.192-.04.451-.109.274-.068.506-.178.246-.123.41-.3a.58.58 0 0 0 .178-.424m9.119-.573-.218 1.982a29 29 0 0 0-.151 1.969 29 29 0 0 0-.054 2.146q.013 1.012.013 2.147 0 .273-.013.67 0 .397-.096.765a1.6 1.6 0 0 1-.315.63q-.204.258-.629.259a.54.54 0 0 1-.355-.123 1.2 1.2 0 0 1-.246-.328 2.4 2.4 0 0 1-.164-.438 8 8 0 0 1-.096-.506 11 11 0 0 1-.082-1.066v-2.598q-.315.41-.82.63a2.5 2.5 0 0 1-.985.204q-.615 0-1.066-.287a2.6 2.6 0 0 1-.725-.752 3.6 3.6 0 0 1-.423-1.012 4.4 4.4 0 0 1-.137-1.066v-.082q0-.71.219-1.531.218-.834.642-1.545a4.1 4.1 0 0 1 1.08-1.176 2.5 2.5 0 0 1 1.518-.478q.464 0 .848.191.396.191.56.629.11-.315.328-.506a.86.86 0 0 1 .588-.205q.451 0 .629.3.191.288.191.643 0 .15-.013.274zm-3.144.328q-.315 0-.588.26a2.4 2.4 0 0 0-.479.615 3.6 3.6 0 0 0-.328.765 3 3 0 0 0-.109.725q0 .192.027.41.041.219.11.424.082.191.205.328a.5.5 0 0 0 .342.123q.177 0 .41-.082.246-.096.478-.232.233-.15.41-.329.179-.177.246-.341.042-.096.069-.287.027-.192.041-.397a8 8 0 0 0 .055-.738q0-.165-.083-.37a1.7 1.7 0 0 0-.191-.41 1.1 1.1 0 0 0-.287-.328.5.5 0 0 0-.328-.136m9.789 2.119q0 .752-.15 1.49a4.2 4.2 0 0 1-.506 1.326 2.75 2.75 0 0 1-.957.93q-.589.355-1.477.355-.875 0-1.463-.341a2.8 2.8 0 0 1-.943-.93 4.2 4.2 0 0 1-.492-1.299 8 8 0 0 1-.137-1.477q0-.82.191-1.626a5.6 5.6 0 0 1 .451-1.367q.192-.384.424-.657.246-.273.534-.273a.62.62 0 0 1 .437.15q.164.15.26.383.096.219.123.478.027.247.027.452 0 .314-.055.615-.04.3-.095.601l-.11.82a8 8 0 0 0-.027 1.286q.028.246.109.478.083.233.233.397.15.15.424.15.356 0 .56-.191.219-.191.315-.479a2.2 2.2 0 0 0 .136-.615q.028-.329.028-.602 0-.6-.082-1.175a48 48 0 0 1-.151-1.19 1.3 1.3 0 0 1 .055-.602q.069-.204.191-.368a.9.9 0 0 1 .301-.26.74.74 0 0 1 .397-.11q.3 0 .533.22.232.204.383.546.164.329.259.752.11.41.165.82.067.397.082.752.027.356.027.56m3.09-5.633a.57.57 0 0 1-.11.342q-.095.15-.259.273-.165.11-.356.178a1.3 1.3 0 0 1-.355.055.84.84 0 0 1-.479-.137q-.205-.137-.205-.424 0-.205.096-.355a.9.9 0 0 1 .26-.26q.15-.11.341-.164t.369-.055a.96.96 0 0 1 .479.123q.219.123.219.424m.109 4.648v.41q0 .206-.014.397a12 12 0 0 0-.013.629q0 .383-.028.834-.027.45-.095.916-.055.465-.192.848a1.8 1.8 0 0 1-.369.629.78.78 0 0 1-.56.246.5.5 0 0 1-.438-.205 1.9 1.9 0 0 1-.301-.561 5 5 0 0 1-.164-.78 15 15 0 0 1-.082-.833 12 12 0 0 1-.027-.752v-1.121q0-.41.027-.875t.096-.944q.082-.478.219-.875.15-.396.383-.642a.77.77 0 0 1 .587-.246q.37 0 .561.369t.287.861.109.985q.014.478.014.71m7.233.82q0 .603-.137 1.327a4.6 4.6 0 0 1-.438 1.326q-.3.615-.806 1.025-.492.41-1.244.41-.192 0-.397-.027a2 2 0 0 1-.396-.095 1.4 1.4 0 0 1-.329-.178.8.8 0 0 1-.232-.315l-.123 1.97q-.013.314-.027.751 0 .438-.11.834a1.5 1.5 0 0 1-.342.67q-.231.288-.683.287-.26 0-.438-.273a2.2 2.2 0 0 1-.287-.67 8 8 0 0 1-.15-.916 12 12 0 0 1-.068-.97q-.015-.465-.014-.849v-.56q0-.916-.014-1.819-.014-.915-.014-1.831v-.506q0-.356.028-.766.027-.41.082-.848.068-.437.191-.793.123-.37.315-.587a.58.58 0 0 1 .465-.233q.177 0 .314.11.15.095.246.26.11.15.178.327t.109.329q.424-.48.971-.725.56-.246 1.189-.246.657 0 1.067.369.423.369.656.916.246.546.342 1.176.096.615.096 1.12m-1.956-.109a2 2 0 0 0-.041-.41 1.1 1.1 0 0 0-.123-.396.66.66 0 0 0-.246-.301.66.66 0 0 0-.41-.123q-.328 0-.697.219a1.5 1.5 0 0 0-.533.478q-.069.11-.082.356a8 8 0 0 0-.014.369v.26l.027.314.028.315q.027.15.068.232.041.123.178.232.136.096.301.178.163.083.328.123.177.041.3.041a.57.57 0 0 0 .465-.219q.178-.218.274-.52.11-.3.136-.614a4 4 0 0 0 .041-.534m8.518 1.75q0 .466-.301.916a3.3 3.3 0 0 1-.738.793 4.3 4.3 0 0 1-.943.56 2.5 2.5 0 0 1-.93.206q-.725 0-1.299-.355a3.4 3.4 0 0 1-.943-.93 4.5 4.5 0 0 1-.588-1.23 5 5 0 0 1-.192-1.327q0-.684.192-1.463.191-.78.574-1.435.397-.657.984-1.094.601-.437 1.422-.437.465 0 .889.164.424.15.738.437.315.287.506.684.192.396.192.888 0 .643-.274 1.204a3.2 3.2 0 0 1-.725.97q-.45.41-1.039.67a3.5 3.5 0 0 1-1.203.273q.056.397.315.575.273.178.642.178.274 0 .534-.137t.505-.301a6 6 0 0 1 .479-.315q.246-.136.492-.136a.76.76 0 0 1 .492.178.57.57 0 0 1 .219.464m-2.215-3.35a.8.8 0 0 0-.096-.368.315.315 0 0 0-.3-.192.8.8 0 0 0-.506.164q-.205.15-.342.397a2.3 2.3 0 0 0-.219.506q-.068.273-.082.505.192-.04.451-.109.274-.068.506-.178.246-.123.41-.3a.58.58 0 0 0 .178-.424m5.319.056a9 9 0 0 1-.028.601q-.027.369-.082.807a8 8 0 0 1-.164.875q-.096.437-.232.806a2.1 2.1 0 0 1-.328.588q-.192.219-.438.219-.3 0-.519-.287a3 3 0 0 1-.356-.752 8 8 0 0 1-.219-1.026 17 17 0 0 1-.123-1.093 23 23 0 0 1-.054-.998V49.69q0-.383.027-.806.041-.424.109-.834a3.6 3.6 0 0 1 .233-.766q.15-.342.396-.547a.9.9 0 0 1 .615-.218.63.63 0 0 1 .534.287q.218.273.341.724.137.438.192.985.068.546.082 1.08.027.52.014.97zm-.26 5.195a.77.77 0 0 1-.11.41.9.9 0 0 1-.287.273 1.2 1.2 0 0 1-.383.178 1.6 1.6 0 0 1-.41.055 1.1 1.1 0 0 1-.574-.164q-.273-.15-.273-.492a.65.65 0 0 1 .109-.37q.123-.177.301-.3.177-.123.383-.192.218-.068.41-.068.314 0 .574.164.26.15.26.506"/><defs><filter id="a" width="249.023" height="115.357" x="0" y="1" color-interpolation-filters="sRGB" filterUnits="userSpaceOnUse"><feFlood flood-opacity="0" result="BackgroundImageFix"/><feBlend in="SourceGraphic" in2="BackgroundImageFix" result="shape"/><feColorMatrix in="SourceAlpha" result="hardAlpha" values="0 0 0 0 0 0 0 0 0 0 0 0 0 0 0 0 0 0 127 0"/><feOffset dy="4"/><feGaussianBlur stdDeviation="2"/><feComposite in2="hardAlpha" k2="-1" k3="1" operator="arithmetic"/><feColorMatrix values="0 0 0 0 0 0 0 0 0 0 0 0 0 0 0 0 0 0 0.25 0"/><feBlend in2="shape" result="effect1_innerShadow_880_333"/></filter></defs></svg>