<svg xmlns="http://www.w3.org/2000/svg" width="187" height="115" fill="none" viewBox="0 0 187 115"><g filter="url(#a)"><path fill="#3dc3ff" fill-rule="evenodd" d="M26.733 73.107C8.819 65.602 1 54.527 1 42.54 1 27.79 16.77 13.22 42.86 6.016 55.514 2.522 70.38 1 87.463 1c52.301 0 100.532 15.048 98.473 41.54 0 13.145-8.926 25.232-27.106 32.448-9.913 3.935-22.453 6.258-38.143 6.973-6.172 13.752-15.205 20.833-30.024 32.039 10.867-13.061 17.526-21.482 19.935-31.803l-.832.002c-37.07 2.352-65.106-1.582-83.033-9.092" clip-rule="evenodd"/></g><path fill="#3dc3ff" d="m26.733 73.107-.387.922zM42.86 6.017l-.267-.965zM185.936 42.54l-.997-.078-.003.078zM158.83 74.988l.369.93zm-38.143 6.973-.046-1a1 1 0 0 0-.867.59zM90.663 114l-.77-.64a1.001 1.001 0 0 0 1.373 1.438zm19.935-31.803.974.228a1 1 0 0 0-.977-1.228zm-.832.002v-1q-.032 0-.063.002zM0 42.539c0 12.527 8.205 23.89 26.346 31.49l.773-1.844C9.433 64.775 2 53.988 2 42.54zM42.594 5.053C29.44 8.684 18.828 14.188 11.484 20.7 4.141 27.21 0 34.79 0 42.54h2c0-7 3.744-14.078 10.81-20.343 7.062-6.261 17.38-11.644 30.316-15.217zM87.464 0c-17.136 0-32.1 1.526-44.87 5.052l.532 1.928C55.664 3.518 70.434 2 87.463 2zm99.469 42.617c.542-6.972-2.242-13.15-7.447-18.445-5.186-5.275-12.8-9.705-22.042-13.27C138.955 3.772 113.691 0 87.464 0v2c26.072 0 51.074 3.753 69.261 10.769 9.096 3.508 16.423 7.808 21.335 12.805 4.894 4.978 7.367 10.615 6.879 16.888zm-27.734 33.3c18.427-7.314 27.737-19.696 27.737-33.377h-2c0 12.608-8.543 24.4-26.475 31.518zm-38.467 7.043c15.757-.718 28.417-3.053 38.467-7.043l-.738-1.859c-9.775 3.88-22.196 6.192-37.82 6.904zm-.958-1.409c-6.053 13.49-14.88 20.433-29.714 31.651l1.206 1.596c14.804-11.195 24.043-18.413 30.333-32.428zM91.431 114.64c10.833-13.019 17.668-21.623 20.141-32.215l-1.948-.455c-2.345 10.048-8.827 18.287-19.73 31.39zm18.335-31.441q.419 0 .835-.002l-.006-2-.829.002zm-83.42-9.17c18.126 7.594 46.335 11.525 83.483 9.168l-.126-1.996c-36.992 2.347-64.855-1.59-82.584-9.016z"/><path fill="#fff" d="M29.42 41.113q0 .342-.287.643-.273.3-.725.547-.438.246-.984.437-.548.178-1.08.301-.534.137-1.012.205-.465.069-.738.069a3 3 0 0 1-.56-.055.9.9 0 0 1-.48-.205q-.108-.082-.19-.37a10 10 0 0 1-.165-.683 17 17 0 0 1-.123-.848 38 38 0 0 1-.096-.902q-.027-.437-.054-.807a17 17 0 0 1 0-1.394q.027-.492.068-1.04a25 25 0 0 1 .26-2.214q.096-.519.219-.93.136-.41.287-.642.26-.37.656-.37.273 0 .465.192.192.178.3.478.124.287.178.657.069.356.096.71.027.356.027.657v.478q0 1.067-.054 2.12a54 54 0 0 0-.041 2.105v.533q.615-.191 1.34-.355a5.8 5.8 0 0 1 1.38-.178q.232 0 .465.027.247.028.424.123a.64.64 0 0 1 .3.26q.124.165.124.451m6.07-.547q0 .466-.3.916a3.4 3.4 0 0 1-.739.793 4.3 4.3 0 0 1-.943.56 2.5 2.5 0 0 1-.93.206q-.724 0-1.299-.355a3.4 3.4 0 0 1-.943-.93 4.5 4.5 0 0 1-.588-1.23 5 5 0 0 1-.191-1.327q0-.684.191-1.463.192-.78.574-1.435.397-.657.985-1.094.601-.437 1.421-.437.465 0 .89.164a2.15 2.15 0 0 1 1.243 1.12q.192.397.192.89 0 .642-.274 1.203a3.2 3.2 0 0 1-.724.97q-.451.41-1.04.67a3.5 3.5 0 0 1-1.203.273q.055.397.315.575.273.177.642.178.274 0 .534-.137t.506-.301q.246-.177.478-.315.246-.136.492-.136a.76.76 0 0 1 .492.178.57.57 0 0 1 .22.464m-2.215-3.35a.8.8 0 0 0-.095-.368.32.32 0 0 0-.301-.192q-.301 0-.506.164-.205.15-.342.397a2.3 2.3 0 0 0-.218.506q-.069.273-.082.505.19-.04.45-.109.274-.068.507-.178.245-.123.41-.3a.58.58 0 0 0 .177-.424m8.956 1.122q0 .698-.028 1.394-.014.698-.068 1.395-.041.602-.11 1.285a11 11 0 0 1-.218 1.354q-.15.682-.397 1.299-.246.628-.656 1.107a3 3 0 0 1-.97.766q-.576.286-1.368.287-.369 0-.834-.123a3.7 3.7 0 0 1-.861-.329 2.5 2.5 0 0 1-.684-.546 1.1 1.1 0 0 1-.273-.739q0-.314.218-.588a.76.76 0 0 1 .588-.26q.22 0 .41.069.206.082.397.178.205.095.383.164a1 1 0 0 0 .383.082q.506 0 .847-.26a1.8 1.8 0 0 0 .547-.642q.206-.383.3-.848.11-.452.151-.861a1.45 1.45 0 0 1-.642.437q-.356.11-.752.11-.725 0-1.23-.247a2.3 2.3 0 0 1-.821-.697q-.315-.45-.465-1.04-.15-.587-.15-1.27 0-.424.082-.958.096-.532.273-1.08.178-.546.438-1.066.273-.52.629-.916.354-.397.793-.643.45-.246.984-.246.52 0 .916.301.41.3.479.848.15-.288.396-.56a.76.76 0 0 1 .602-.288q.19 0 .314.191.137.192.205.506.083.3.123.67.042.355.055.711.014.342.014.63zm-2.079.889q0-.205-.068-.534a3 3 0 0 0-.178-.628 1.8 1.8 0 0 0-.287-.52.53.53 0 0 0-.424-.219.82.82 0 0 0-.56.219 2 2 0 0 0-.397.533q-.164.301-.26.656a2.6 2.6 0 0 0-.081.588q0 .178.027.479.026.3.11.588.095.287.245.492t.397.205q.369 0 .642-.178a1.5 1.5 0 0 0 .452-.451q.19-.273.287-.602.095-.328.095-.628m8.86 1.845q0 .246-.028.643-.013.396-.109.78-.096.368-.3.642a.68.68 0 0 1-.575.273q-.506 0-.78-.328-.273-.328-.26-.82a3.4 3.4 0 0 1-.997.601 3 3 0 0 1-1.121.219q-.396 0-.752-.191a2.4 2.4 0 0 1-.63-.493 2.5 2.5 0 0 1-.437-.67 1.9 1.9 0 0 1-.164-.751q0-.656.397-1.149.41-.492.998-.834a5.7 5.7 0 0 1 1.244-.56 7.5 7.5 0 0 1 1.19-.274v-.123a.5.5 0 0 0 .013-.123q0-.423-.232-.684-.233-.26-.657-.26a1.3 1.3 0 0 0-.587.124 3 3 0 0 0-.465.26q-.219.135-.438.26-.219.108-.492.109a.76.76 0 0 1-.52-.192.64.64 0 0 1-.205-.492q0-.45.26-.82.273-.369.67-.616.41-.26.875-.396.479-.15.875-.15.369 0 .738.095.37.082.698.274.328.178.588.451.273.26.437.615.246.506.397 1.08.15.56.232 1.162.082.588.11 1.19.027.588.027 1.148m-2.188-.437-.04-.93h-.056a.1.1 0 0 0-.054-.014q-.179 0-.451.096a2 2 0 0 0-.506.246 2 2 0 0 0-.424.342.6.6 0 0 0-.164.397q0 .19.137.26a.7.7 0 0 0 .314.068q.3 0 .643-.15.341-.165.601-.315m5.565-5.92q0 .738-.069 1.49-.054.738-.054 1.49 0 .971.054 1.942.069.97.069 1.955 0 .245-.028.56-.027.301-.136.56a1.05 1.05 0 0 1-.301.438q-.206.178-.547.178-.328 0-.574-.328a2.9 2.9 0 0 1-.397-.807 10 10 0 0 1-.26-1.12 20 20 0 0 1-.15-1.19q-.04-.588-.068-1.067-.014-.492-.014-.724 0-.26.014-.752.027-.492.095-1.067.069-.574.178-1.162.123-.6.315-1.08.191-.492.45-.793.274-.315.643-.314.3 0 .451.205.164.192.233.478.069.274.082.588.014.3.014.52m3.595 2.557q0 .218-.027.601-.027.369-.082.807a8 8 0 0 1-.164.875 6 6 0 0 1-.233.806q-.136.356-.328.588a.57.57 0 0 1-.437.219q-.3 0-.52-.287a3 3 0 0 1-.355-.752 7.5 7.5 0 0 1-.219-1.026 16 16 0 0 1-.123-1.093 23 23 0 0 1-.055-.998v-1.327q0-.383.028-.806.04-.424.11-.834.081-.424.231-.766t.397-.547a.9.9 0 0 1 .615-.218q.329 0 .533.287.219.274.342.724.136.438.192.985.068.546.082 1.08.028.52.013.97zm-.26 5.195a.77.77 0 0 1-.109.41.9.9 0 0 1-.287.273 1.2 1.2 0 0 1-.383.178 1.6 1.6 0 0 1-.41.055 1.1 1.1 0 0 1-.574-.164q-.273-.15-.273-.492a.65.65 0 0 1 .109-.37 1.2 1.2 0 0 1 .3-.3q.18-.123.383-.192a1.4 1.4 0 0 1 .41-.068q.315 0 .575.164.26.15.26.506m7.52.984q-.834 0-1.45-.424a3.34 3.34 0 0 1-1.024-1.107 6 6 0 0 1-.602-1.64 9.7 9.7 0 0 1 .014-3.897 6.6 6.6 0 0 1 .656-1.778q.437-.792 1.107-1.298.67-.507 1.6-.506.903 0 1.504.492.615.478.97 1.258.37.765.52 1.722.165.957.164 1.914 0 1.067-.219 2.024a5.4 5.4 0 0 1-.642 1.668 3.36 3.36 0 0 1-1.08 1.148q-.643.424-1.518.424m.164-7.629a.6.6 0 0 0-.451.205 1.7 1.7 0 0 0-.3.547q-.124.329-.178.752a6 6 0 0 0-.055.834q0 .48.054.957.069.48.192.861.123.383.3.616.192.232.452.232.3 0 .478-.3.178-.302.274-.725.11-.424.136-.875.042-.452.042-.752 0-.369-.055-.78a3.7 3.7 0 0 0-.15-.751 1.9 1.9 0 0 0-.288-.588.55.55 0 0 0-.45-.233m10.528 2.666q0 .397-.069.903-.054.492-.191 1.011a6 6 0 0 1-.342 1.012 3.7 3.7 0 0 1-.52.889q-.3.383-.71.615a1.8 1.8 0 0 1-.93.232q-.561 0-1.026-.26-.45-.26-.779-.71a1.15 1.15 0 0 1-.3.656.87.87 0 0 1-.657.273q-.233 0-.396-.232a2 2 0 0 1-.247-.588 6 6 0 0 1-.15-.807 14 14 0 0 1-.055-.847q-.013-.411-.013-.738v-1.395l.027-.943q0-.233-.014-.698 0-.465.014-1.025.015-.574.055-1.162.055-.602.178-1.094t.341-.807.56-.328q.274 0 .466.192.19.19.314.506.137.314.205.71.082.383.11.78.04.383.04.738.014.342.014.56 0 .042-.013.192v.738q.123-.26.355-.505a3.15 3.15 0 0 1 1.121-.752q.314-.123.602-.123.575 0 .957.3.396.288.629.739.232.45.328.984.096.519.096.984m-2.01.41q0-.163-.028-.355a.9.9 0 0 0-.095-.355.7.7 0 0 0-.205-.274.48.48 0 0 0-.329-.11q-.218 0-.437.096a2 2 0 0 0-.396.247q-.192.15-.356.328-.165.163-.287.328l-.137 1.217q.22.315.533.505.315.178.711.178.3 0 .493-.191.204-.192.314-.465.123-.287.164-.602.055-.315.055-.547m7.588-1.011a.9.9 0 0 1-.328-.028l-.274-.109a3 3 0 0 0-.246-.096.54.54 0 0 0-.273-.04q-.274.013-.493.15a2 2 0 0 0-.382.341q-.165.205-.287.465a2.7 2.7 0 0 0-.192.492 3.4 3.4 0 0 0-.068.506q-.014.33-.014.711-.014.397-.014.752 0 .356-.027.56-.015.22-.068.52a2.3 2.3 0 0 1-.178.547 1.25 1.25 0 0 1-.3.438.7.7 0 0 1-.493.177.65.65 0 0 1-.41-.136 1.3 1.3 0 0 1-.287-.356 3.3 3.3 0 0 1-.192-.533 7 7 0 0 1-.11-.615 16 16 0 0 1-.067-.656l-.028-.616v-.546q.014-.247.014-.397-.015-.479-.055-.957a18 18 0 0 1-.027-.97q0-.302.027-.67.028-.37.15-.684.124-.328.356-.547.246-.219.67-.219.233 0 .396.15.165.15.26.37.11.218.164.465.056.245.069.45.328-.533.738-.86.41-.343 1.066-.37.329-.014.643.069.329.068.588.246.273.164.437.437.179.273.192.643.027.437-.26.67a1.14 1.14 0 0 1-.697.246m3.418-4.43a.57.57 0 0 1-.11.342q-.096.15-.26.273-.163.11-.355.178a1.3 1.3 0 0 1-.355.055.84.84 0 0 1-.479-.137q-.205-.137-.205-.424 0-.205.096-.355a.9.9 0 0 1 .26-.26q.15-.11.341-.164t.37-.055a.96.96 0 0 1 .478.123q.219.123.219.424m.109 4.648v.41q0 .206-.014.397-.013.233-.013.629 0 .383-.028.834-.027.45-.095.916-.055.465-.192.848a1.8 1.8 0 0 1-.369.629.78.78 0 0 1-.56.246.5.5 0 0 1-.438-.205 1.9 1.9 0 0 1-.3-.561 4.7 4.7 0 0 1-.165-.78q-.054-.436-.082-.833a11 11 0 0 1-.027-.752v-1.121q0-.41.027-.875t.096-.944q.082-.478.219-.875.15-.396.382-.642a.77.77 0 0 1 .588-.246q.37 0 .56.369.193.369.288.861t.11.985q.012.478.013.71m7.164.233q0 .698-.027 1.394-.014.698-.069 1.395-.04.602-.109 1.285a11 11 0 0 1-.219 1.354q-.15.682-.396 1.299a3.8 3.8 0 0 1-.657 1.107 3 3 0 0 1-.97.766q-.575.286-1.367.287-.37 0-.834-.123a3.7 3.7 0 0 1-.862-.329 2.5 2.5 0 0 1-.683-.546 1.1 1.1 0 0 1-.274-.739q0-.314.219-.588a.76.76 0 0 1 .588-.26q.219 0 .41.069.205.082.397.178.204.095.382.164a1 1 0 0 0 .383.082q.506 0 .848-.26a1.8 1.8 0 0 0 .547-.642q.205-.383.3-.848.11-.452.15-.861a1.45 1.45 0 0 1-.642.437q-.355.11-.752.11-.724 0-1.23-.247a2.3 2.3 0 0 1-.82-.697q-.315-.45-.465-1.04-.15-.587-.15-1.27 0-.424.081-.958.096-.532.274-1.08.177-.546.437-1.066.274-.52.63-.916.354-.397.792-.643.452-.246.985-.246.519 0 .916.301.41.3.478.848.15-.288.397-.56a.76.76 0 0 1 .601-.288q.192 0 .315.191.136.192.205.506.081.3.123.67.04.355.054.711.014.342.014.63zm-2.078.889q0-.205-.068-.534a3 3 0 0 0-.178-.628 1.8 1.8 0 0 0-.287-.52.53.53 0 0 0-.424-.219.82.82 0 0 0-.56.219 2 2 0 0 0-.397.533q-.164.301-.26.656a2.6 2.6 0 0 0-.082.588q0 .178.027.479.028.3.11.588.096.287.246.492t.396.205q.369 0 .643-.178a1.5 1.5 0 0 0 .451-.451q.191-.273.287-.602t.096-.628m8.86 1.845q0 .246-.028.643-.015.396-.11.78-.095.368-.3.642a.68.68 0 0 1-.574.273q-.506 0-.78-.328-.273-.328-.26-.82a3.4 3.4 0 0 1-.998.601 3 3 0 0 1-1.12.219q-.398 0-.752-.191a2.4 2.4 0 0 1-.63-.493 2.5 2.5 0 0 1-.437-.67 1.9 1.9 0 0 1-.164-.751q0-.656.397-1.149.41-.492.998-.834a5.7 5.7 0 0 1 1.244-.56 7.5 7.5 0 0 1 1.19-.274v-.123a.5.5 0 0 0 .013-.123q0-.423-.233-.684-.232-.26-.656-.26a1.3 1.3 0 0 0-.588.124q-.246.11-.465.26-.218.135-.437.26-.219.108-.492.109a.76.76 0 0 1-.52-.192.64.64 0 0 1-.205-.492q0-.45.26-.82.273-.369.67-.616.41-.26.875-.396.478-.15.875-.15.369 0 .738.095.37.082.697.274.33.178.588.451.274.26.438.615.246.506.396 1.08.15.56.233 1.162.08.588.109 1.19.027.588.027 1.148m-2.188-.437-.041-.93h-.055a.1.1 0 0 0-.055-.014 1.4 1.4 0 0 0-.45.096 2 2 0 0 0-.507.246 2 2 0 0 0-.423.342.6.6 0 0 0-.165.397q0 .19.137.26a.7.7 0 0 0 .315.068q.3 0 .642-.15.342-.165.602-.315m8.9-6.631q0 .998-.082 1.982a30 30 0 0 0-.027 3.582q.055.793.055 1.6 0 .22-.014.533-.014.3-.096.588a1.1 1.1 0 0 1-.246.492q-.164.205-.478.205a.89.89 0 0 1-.684-.3 1.5 1.5 0 0 1-.328-.698 2.34 2.34 0 0 1-.752.834 1.83 1.83 0 0 1-1.066.342q-.615 0-1.067-.424a3.7 3.7 0 0 1-.738-1.025 6 6 0 0 1-.438-1.258 5.7 5.7 0 0 1-.136-1.135 8.4 8.4 0 0 1 .177-1.668q.11-.45.274-.875.165-.437.41-.779.26-.342.602-.547.354-.205.806-.205.493 0 .943.287.452.288.684.711l.123-2.174q.014-.26.041-.601a4 4 0 0 1 .109-.67q.096-.315.288-.533.19-.22.56-.22.397 0 .615.192.219.192.315.492.11.287.123.63.027.34.027.642m-2.228 6.07q0-.314-.014-.615a7 7 0 0 1 0-.615 8 8 0 0 0-.191-.383 1.7 1.7 0 0 0-.274-.396 1.4 1.4 0 0 0-.342-.315.74.74 0 0 0-.41-.123.54.54 0 0 0-.396.15q-.15.15-.219.37a2.2 2.2 0 0 0-.096.45 8 8 0 0 0-.013.425 6.5 6.5 0 0 0 .123 1.134q.081.328.218.575.138.245.37.246a1 1 0 0 0 .355-.069q.178-.082.328-.191.165-.123.301-.26.15-.15.26-.273zm8.941.998q0 .246-.027.643a3.7 3.7 0 0 1-.11.78q-.095.368-.3.642a.68.68 0 0 1-.575.273q-.506 0-.779-.328t-.26-.82a3.3 3.3 0 0 1-.998.601 3 3 0 0 1-1.121.219q-.396 0-.752-.191a2.4 2.4 0 0 1-.629-.493 2.5 2.5 0 0 1-.437-.67 1.9 1.9 0 0 1-.164-.751q0-.656.396-1.149.41-.492.998-.834a5.7 5.7 0 0 1 1.244-.56 7.5 7.5 0 0 1 1.19-.274v-.123a.5.5 0 0 0 .014-.123q0-.423-.233-.684-.233-.26-.656-.26a1.3 1.3 0 0 0-.588.124q-.246.11-.465.26-.22.135-.437.26-.219.108-.493.109a.76.76 0 0 1-.519-.192.64.64 0 0 1-.205-.492q0-.45.26-.82.273-.369.67-.616.41-.26.875-.396.478-.15.875-.15.369 0 .738.095.369.082.697.274.329.178.588.451.273.26.437.615.247.506.397 1.08.15.56.232 1.162.083.588.11 1.19.027.588.027 1.148m-2.187-.437-.041-.93h-.055a.1.1 0 0 0-.055-.014 1.4 1.4 0 0 0-.451.096 2 2 0 0 0-.506.246q-.246.15-.424.342a.6.6 0 0 0-.164.397q0 .19.137.26a.7.7 0 0 0 .314.068 1.6 1.6 0 0 0 .643-.15q.341-.165.602-.315m4.976 1.64q0 .22-.123.56a4 4 0 0 1-.287.67 2.3 2.3 0 0 1-.383.561q-.219.233-.424.233-.273 0-.273-.274a.8.8 0 0 1 .068-.314q.069-.15.151-.3.082-.138.15-.288a.6.6 0 0 0 .068-.273.77.77 0 0 1-.437.136.69.69 0 0 1-.533-.246.8.8 0 0 1-.219-.547q0-.437.287-.697a1 1 0 0 1 .725-.273q.492 0 .861.26t.369.792m8.572-8.558a.9.9 0 0 1-.123.465 1.1 1.1 0 0 1-.3.355 2.3 2.3 0 0 1-.875.37 63 63 0 0 1-.123 2.98 44 44 0 0 1-.274 2.966h.082q.219 0 .424.055a.9.9 0 0 1 .383.164.76.76 0 0 1 .273.287q.11.165.11.41 0 .315-.205.547a1.6 1.6 0 0 1-.52.397q-.315.164-.711.273a6 6 0 0 1-.793.164 8 8 0 0 1-1.326.123q-.164 0-.41-.013a2 2 0 0 1-.451-.082 1 1 0 0 1-.356-.205.48.48 0 0 1-.15-.37q0-.286.123-.505.11-.233.301-.41a1.6 1.6 0 0 1 .423-.288q.246-.108.493-.164.095-.752.177-1.49.082-.751.11-1.518l.109-3.062-.178.027h-.15q-.191 0-.41-.04a1.5 1.5 0 0 1-.41-.137 1.3 1.3 0 0 1-.328-.26.58.58 0 0 1-.124-.383q0-.465.383-.766.397-.3.93-.464.547-.165 1.107-.22.561-.068.903-.068.19 0 .506.028.314.028.615.123.314.096.533.26.232.164.232.45m4.075 9.666q-.233 0-.369-.219a1.5 1.5 0 0 1-.206-.479 4 4 0 0 1-.095-.546 10 10 0 0 1-.014-.438q0-.41.041-.82l.109-.82q.069-.41.11-.82.054-.411.055-.821 0-.165-.014-.355a1.4 1.4 0 0 0-.069-.356.6.6 0 0 0-.15-.287.4.4 0 0 0-.287-.11q-.123 0-.273.206a3 3 0 0 0-.288.45 5 5 0 0 0-.218.507 1.3 1.3 0 0 0-.082.369v.615q.013.3.013.615v.793a9 9 0 0 1-.041.506 4 4 0 0 1-.082.506 3 3 0 0 1-.123.478 1.5 1.5 0 0 1-.219.397q-.123.164-.3.273a.8.8 0 0 1-.424.11.6.6 0 0 1-.451-.178 1.3 1.3 0 0 1-.287-.451 3 3 0 0 1-.164-.63 19 19 0 0 1-.069-.683 16 16 0 0 1-.013-.615q.013-.287.013-.451v-.643q0-.52-.027-1.025a38 38 0 0 1-.014-1.012v-.697q.014-.424.11-.82a1.8 1.8 0 0 1 .314-.698q.219-.287.643-.287.19 0 .341.123.151.124.26.301.123.178.192.383.081.205.123.355.137-.19.314-.369.192-.177.424-.314a2.23 2.23 0 0 1 1.176-.301q.697 0 1.08.342.396.328.574.834.192.492.232 1.066.042.575.041 1.04 0 .231-.041.697-.041.45-.136 1.011-.083.547-.233 1.135a7.6 7.6 0 0 1-.355 1.053 2.6 2.6 0 0 1-.492.779q-.274.3-.629.3m6.658-7.903q0 .397-.274.588-.26.192-.587.37-.329.163-.602.396-.26.232-.26.697 0 .246.11.424.122.178.287.328.178.137.382.287t.37.342q.177.192.287.465.123.273.123.67 0 .574-.301 1.135a3.75 3.75 0 0 1-1.777 1.668q-.574.26-1.135.26-.232 0-.465-.042a1.3 1.3 0 0 1-.424-.123.9.9 0 0 1-.301-.26.8.8 0 0 1-.123-.45q0-.384.151-.588.15-.219.383-.342.232-.123.492-.192.273-.068.506-.164.232-.11.382-.273.151-.165.151-.465 0-.287-.233-.588-.218-.315-.492-.656a7 7 0 0 1-.506-.752 1.8 1.8 0 0 1-.218-.875q0-.588.232-1.08.246-.507.643-.875.41-.37.929-.575a2.8 2.8 0 0 1 1.094-.218q.219 0 .424.04.218.042.383.151a.7.7 0 0 1 .259.274q.11.163.11.423m6.535 3.61q0 .752-.15 1.49a4.2 4.2 0 0 1-.506 1.326 2.75 2.75 0 0 1-.957.93q-.588.355-1.477.355-.875 0-1.463-.341a2.8 2.8 0 0 1-.943-.93 4.2 4.2 0 0 1-.492-1.299 8 8 0 0 1-.137-1.477q0-.82.191-1.626a5.5 5.5 0 0 1 .452-1.367 3.2 3.2 0 0 1 .423-.657q.246-.273.534-.273a.62.62 0 0 1 .437.15q.164.15.26.383.096.219.123.478.027.247.027.452 0 .314-.054.615-.042.3-.096.601l-.109.82a8 8 0 0 0-.028 1.286q.027.246.11.478.082.233.232.397.15.15.424.15.356 0 .56-.191.219-.191.315-.479.109-.287.137-.615.027-.329.027-.602 0-.6-.082-1.175a48 48 0 0 1-.151-1.19 1.3 1.3 0 0 1 .247-.97.9.9 0 0 1 .3-.26.74.74 0 0 1 .397-.11q.3 0 .533.22.233.204.383.546.164.329.26.752.108.41.164.82.068.397.082.752.027.356.027.56m3.391-4.375q0 .738-.069 1.49-.054.738-.054 1.49 0 .971.054 1.942.069.97.069 1.955 0 .245-.028.56-.028.301-.136.56a1.05 1.05 0 0 1-.301.438q-.205.178-.547.178-.328 0-.574-.328a2.9 2.9 0 0 1-.397-.807q-.15-.505-.26-1.12-.094-.615-.15-1.19-.04-.588-.068-1.067-.014-.492-.014-.724 0-.26.014-.752a17 17 0 0 1 .273-2.229 6.3 6.3 0 0 1 .315-1.08q.191-.492.451-.793.273-.315.642-.314.301 0 .452.205.163.192.232.478.069.274.082.588.014.3.014.52m3.295-1.258a.57.57 0 0 1-.11.342q-.095.15-.26.273a1.6 1.6 0 0 1-.355.178 1.3 1.3 0 0 1-.356.055.84.84 0 0 1-.478-.137q-.205-.137-.205-.424 0-.205.096-.355a.9.9 0 0 1 .259-.26q.152-.11.342-.164.192-.055.369-.055.26 0 .479.123t.219.424m.109 4.648v.41q0 .206-.014.397a12 12 0 0 0-.013.629q0 .383-.028.834-.027.45-.095.916-.056.465-.192.848a1.8 1.8 0 0 1-.369.629.78.78 0 0 1-.561.246.5.5 0 0 1-.437-.205 1.9 1.9 0 0 1-.301-.561 5 5 0 0 1-.164-.78 15 15 0 0 1-.082-.833 12 12 0 0 1-.027-.752V38.76q0-.41.027-.875t.096-.944q.081-.478.219-.875.15-.396.382-.642a.77.77 0 0 1 .588-.246q.369 0 .561.369.19.369.287.861t.109.985q.014.478.014.71m4.853 5.278q-.232 0-.369-.219a1.5 1.5 0 0 1-.205-.479 4 4 0 0 1-.095-.546 9 9 0 0 1-.014-.438q0-.41.041-.82l.109-.82q.068-.41.11-.82.054-.411.054-.821 0-.165-.013-.355a1.4 1.4 0 0 0-.069-.356.6.6 0 0 0-.15-.287.4.4 0 0 0-.287-.11q-.123 0-.274.206-.15.191-.287.45a5 5 0 0 0-.219.507 1.3 1.3 0 0 0-.082.369v.615q.015.3.014.615v.793q-.014.246-.041.506a4 4 0 0 1-.082.506 3 3 0 0 1-.123.478 1.5 1.5 0 0 1-.219.397q-.123.164-.3.273a.8.8 0 0 1-.424.11.6.6 0 0 1-.452-.178 1.3 1.3 0 0 1-.287-.451 3.2 3.2 0 0 1-.164-.63 22 22 0 0 1-.068-.683 16 16 0 0 1-.014-.615q.014-.287.014-.451v-.643q0-.52-.027-1.025a38 38 0 0 1-.014-1.012v-.697q.014-.424.109-.82.096-.41.315-.698.219-.287.642-.287.192 0 .342.123.15.124.26.301.123.178.191.383.083.205.123.355.137-.19.315-.369.191-.177.424-.314a2.23 2.23 0 0 1 1.175-.301q.697 0 1.081.342.396.328.574.834.191.492.232 1.066.04.575.041 1.04 0 .231-.041.697-.04.45-.137 1.011-.081.547-.232 1.135a7.6 7.6 0 0 1-.355 1.053 2.6 2.6 0 0 1-.493.779q-.273.3-.629.3m6.659-7.903q0 .397-.274.588-.26.192-.588.37-.328.163-.601.396-.26.232-.26.697 0 .246.109.424.123.178.287.328.179.137.383.287t.369.342q.179.192.288.465.123.273.123.67 0 .574-.301 1.135a3.73 3.73 0 0 1-1.778 1.668q-.574.26-1.134.26-.233 0-.465-.042a1.3 1.3 0 0 1-.424-.123.9.9 0 0 1-.301-.26.8.8 0 0 1-.123-.45q0-.384.151-.588.15-.219.382-.342t.493-.192q.274-.068.505-.164.233-.11.383-.273.151-.165.151-.465 0-.287-.233-.588-.219-.315-.492-.656a7 7 0 0 1-.506-.752 1.8 1.8 0 0 1-.219-.875q0-.588.233-1.08.246-.507.642-.875.411-.37.93-.575a2.8 2.8 0 0 1 1.094-.218q.219 0 .424.04.218.042.383.151a.7.7 0 0 1 .259.274q.11.163.11.423m3.103 1.792q0 .218-.027.601-.028.369-.082.807a8 8 0 0 1-.164.875q-.096.437-.233.806-.136.356-.328.588a.57.57 0 0 1-.437.219q-.301 0-.52-.287a3 3 0 0 1-.355-.752 8 8 0 0 1-.219-1.026 16 16 0 0 1-.123-1.093 23 23 0 0 1-.055-.998v-1.327q0-.383.028-.806.04-.424.109-.834.082-.424.232-.766t.397-.547a.9.9 0 0 1 .615-.218q.329 0 .533.287.219.274.342.724.137.438.191.985.069.546.083 1.08.027.52.013.97zm-.26 5.195a.77.77 0 0 1-.109.41.9.9 0 0 1-.287.273 1.2 1.2 0 0 1-.383.178 1.6 1.6 0 0 1-.41.055q-.301 0-.574-.164-.274-.15-.274-.492a.65.65 0 0 1 .11-.37q.123-.177.3-.3a1.5 1.5 0 0 1 .383-.192q.22-.068.41-.068.315 0 .575.164.26.15.259.506"/><defs><filter id="a" width="187" height="119" x="0" y="0" color-interpolation-filters="sRGB" filterUnits="userSpaceOnUse"><feFlood flood-opacity="0" result="BackgroundImageFix"/><feBlend in="SourceGraphic" in2="BackgroundImageFix" result="shape"/><feColorMatrix in="SourceAlpha" result="hardAlpha" values="0 0 0 0 0 0 0 0 0 0 0 0 0 0 0 0 0 0 127 0"/><feOffset dy="4"/><feGaussianBlur stdDeviation="2"/><feComposite in2="hardAlpha" k2="-1" k3="1" operator="arithmetic"/><feColorMatrix values="0 0 0 0 0 0 0 0 0 0 0 0 0 0 0 0 0 0 0.25 0"/><feBlend in2="shape" result="effect1_innerShadow_880_334"/></filter></defs></svg>