<svg xmlns="http://www.w3.org/2000/svg" width="285" height="185" fill="none" viewBox="0 0 285 185"><g filter="url(#a)"><path fill="#f4719c" fill-rule="evenodd" d="M25.754 103.787C14.938 93.51 10 81.392 10 68.64 10 44.624 33.337 20.9 71.943 9.168 90.668 3.478 112.668 1 137.946 1c77.392 0 148.764 24.504 145.717 67.64 0 21.404-13.209 41.086-40.111 52.836-17.925 7.829-41.657 11.741-72.603 11.741-54.855 3.83-96.342-2.575-122.87-14.804-5.463-2.518-10.292-5.283-14.515-8.258C25.43 120.849 14.947 129.737 1 141.343c11.374-15.043 19.633-26.305 24.754-37.556" clip-rule="evenodd"/></g><path fill="#f4719c" d="m25.754 103.787.91.415a1 1 0 0 0-.22-1.139zM71.943 9.168l-.291-.957zm211.72 59.472-.997-.07-.003.07zm-40.111 52.836.4.916zm-72.603 11.741v-1l-.07.003zm-122.87-14.804-.419.908zm-14.515-8.258.576-.817a1 1 0 0 0-1.372.212zM1 141.343l-.798-.603a1 1 0 0 0 1.438 1.371zm9-72.703H9c0 13.037 5.059 25.414 16.065 35.872l.69-.725.688-.724C15.818 92.967 11 81.108 11 68.64zM71.943 9.168l-.291-.957C32.905 19.985 9 43.948 9 68.641h2C11 45.3 33.769 21.812 72.234 10.124zM137.946 1V0c-25.337 0-47.443 2.483-66.294 8.211l.29.957.292.957C90.833 4.473 112.727 2 137.946 2zm145.717 67.64.998.07c1.571-22.249-16.076-39.43-43.301-50.987C214.062 6.137 176.728 0 137.946 0v2c38.61 0 75.658 6.115 102.632 17.564 27.047 11.48 43.563 28.119 42.088 49.006zm-40.111 52.836.4.916c27.183-11.873 40.711-31.867 40.711-53.752h-2c0 20.923-12.891 40.292-39.511 51.92zm-72.603 11.741v1c31.017 0 54.903-3.919 73.003-11.825l-.4-.916-.4-.916c-17.749 7.752-41.327 11.657-72.203 11.657zm-122.87-14.804-.419.908c26.74 12.327 68.416 18.73 123.358 14.894l-.069-.998-.07-.997c-54.767 3.824-96.065-2.584-122.382-14.715zm-14.515-8.258-.576.818c4.278 3.013 9.16 5.807 14.672 8.348l.419-.908.418-.908c-5.413-2.496-10.188-5.232-14.357-8.167zm0 0-.796-.605C24.715 120.138 14.324 128.955.36 140.574l.64.769.64.768c13.93-11.591 24.506-20.551 32.72-31.35zM1 141.343l.798.603c11.36-15.024 19.69-26.375 24.866-37.744l-.91-.415-.91-.414C19.776 114.505 11.591 125.679.202 140.74z"/><path fill="#fff" d="M44.476 35.428q0 .36-.235.625a1.8 1.8 0 0 1-.531.437q-.282.173-.578.375-.297.188-.547.438a2 2 0 0 0-.406.531 1.4 1.4 0 0 0-.157.672q0 .328.157.594.156.266.375.53l.5.532q.28.265.5.61.234.327.39.75.156.42.156.984 0 .39-.171.89-.157.484-.438.985a6.5 6.5 0 0 1-.672.969q-.374.468-.812.843-.422.36-.89.579a2 2 0 0 1-.907.234 1.45 1.45 0 0 1-.86-.266q-.375-.266-.375-.797 0-.36.172-.656.173-.312.422-.594a7 7 0 0 1 .547-.546q.313-.267.563-.532.25-.266.421-.547a1.23 1.23 0 0 0 .172-.625q0-.453-.328-.921a14 14 0 0 0-.703-.985q-.39-.516-.719-1.047a2.1 2.1 0 0 1-.312-1.078q0-.672.36-1.406.358-.75.921-1.36.563-.624 1.266-1.03t1.39-.407q.548 0 .938.328.39.329.39.89m7.093 8.187q0 .531-.344 1.047-.328.5-.843.906-.5.39-1.078.641-.579.234-1.063.234a2.76 2.76 0 0 1-1.484-.406 3.9 3.9 0 0 1-1.078-1.062 5.2 5.2 0 0 1-.672-1.407 5.6 5.6 0 0 1-.219-1.515q0-.781.219-1.672.218-.89.656-1.64a4.3 4.3 0 0 1 1.125-1.25q.687-.5 1.625-.5.531 0 1.016.187a2.45 2.45 0 0 1 1.421 1.281q.22.453.22 1.016 0 .734-.313 1.375a3.6 3.6 0 0 1-.828 1.109q-.516.47-1.188.766a4 4 0 0 1-1.375.312q.063.453.36.656.312.204.734.204.312 0 .61-.157.296-.156.577-.343.282-.204.547-.36.282-.156.563-.156a.87.87 0 0 1 .562.203q.25.203.25.531m-2.531-3.828a.94.94 0 0 0-.11-.422.36.36 0 0 0-.343-.218.9.9 0 0 0-.578.187 1.4 1.4 0 0 0-.39.453 2.6 2.6 0 0 0-.25.578 3 3 0 0 0-.095.578q.219-.046.516-.125.312-.078.578-.203.282-.14.469-.343a.66.66 0 0 0 .203-.485m13.656 1.016q-.405 1.078-.89 2.25-.484 1.171-1.047 2.187-.345.626-.766 1.047-.421.405-.969.406-.437 0-.859-.437a6.6 6.6 0 0 1-.766-1.063q-.343-.624-.609-1.25a23 23 0 0 1-.375-1.015 40 40 0 0 0-.281-.906 15 15 0 0 1-.282-.985 12 12 0 0 1-.203-.984 6 6 0 0 1-.078-.938q0-.61.219-1t.86-.39q.25 0 .452.156.203.14.375.406t.329.625q.156.345.296.766.141.406.266.844.126.436.25.843.126.407.25.797.141.375.36.75l.25-.64.296-.766q.172-.406.36-.828.187-.438.406-.844a8.3 8.3 0 0 1 .89-1.437q.485-.594.954-.594.437 0 .625.265.187.266.187.688t-.14.953-.36 1.094m4.016 6.047q-.797 0-1.39-.422a3.7 3.7 0 0 1-1-1.078 5.2 5.2 0 0 1-.61-1.453 6.6 6.6 0 0 1-.203-1.594q0-.828.203-1.703.203-.89.625-1.61.421-.734 1.078-1.187.656-.47 1.563-.469.875 0 1.484.484.625.47 1 1.188.375.703.531 1.547a6.5 6.5 0 0 1 .11 1.594 8.6 8.6 0 0 1-.266 1.671 5.3 5.3 0 0 1-.61 1.516q-.405.672-1.03 1.094-.626.422-1.485.422m.156-7.063q-.234 0-.422.25-.171.25-.297.61a5.5 5.5 0 0 0-.172.765q-.062.39-.062.688 0 .374.063.812.078.438.203.813.125.36.296.609.189.234.422.234.25 0 .422-.234.188-.234.297-.594.11-.36.156-.781.047-.437.047-.812 0-.345-.062-.75a4.3 4.3 0 0 0-.188-.782 1.8 1.8 0 0 0-.297-.593q-.172-.235-.406-.235m9.828.61q0 .078-.015.171a1 1 0 0 1-.047.157 1.5 1.5 0 0 1-.438.609 1.1 1.1 0 0 1-.703.234q-.609 0-.828-.609a.5.5 0 0 1-.031-.172q0-.11-.016-.219v-.453a.9.9 0 0 0-.11-.343q-.077-.126-.265-.125-.266 0-.516.343a3.8 3.8 0 0 0-.421.797 7 7 0 0 0-.282.938 3.7 3.7 0 0 0-.109.78q0 .236.031.579.032.328.125.64.094.313.25.548.172.218.438.218a.8.8 0 0 0 .484-.156q.234-.172.453-.39.203-.189.438-.391a.87.87 0 0 1 .562-.203q.39 0 .61.28a.97.97 0 0 1 .234.642q0 .53-.281 1a3.2 3.2 0 0 1-.703.796q-.422.33-.938.516a2.7 2.7 0 0 1-.984.203q-.844 0-1.438-.422a3.3 3.3 0 0 1-.937-1.062 5 5 0 0 1-.516-1.422 7.3 7.3 0 0 1-.156-1.453q0-.796.219-1.719.218-.937.671-1.734a4.3 4.3 0 0 1 1.157-1.328q.719-.532 1.703-.532.609 0 1.047.266.453.265.734.703.297.422.438.953a3.7 3.7 0 0 1 .156 1.047v.156a1 1 0 0 1-.016.157m7.422 3.218q0 .531-.344 1.047-.328.5-.843.906-.5.39-1.079.641-.578.234-1.062.234a2.76 2.76 0 0 1-1.484-.406 3.9 3.9 0 0 1-1.079-1.062 5.2 5.2 0 0 1-.671-1.407 5.6 5.6 0 0 1-.22-1.515q0-.781.22-1.672.218-.89.656-1.64a4.3 4.3 0 0 1 1.125-1.25q.687-.5 1.625-.5.531 0 1.016.187a2.45 2.45 0 0 1 1.421 1.281q.22.453.22 1.016 0 .734-.313 1.375a3.6 3.6 0 0 1-.829 1.109q-.516.47-1.187.766a4 4 0 0 1-1.375.312q.063.453.36.656.312.204.734.204.312 0 .61-.157.296-.156.577-.343.282-.204.547-.36.282-.156.563-.156a.87.87 0 0 1 .562.203q.25.203.25.531m-2.531-3.828a.94.94 0 0 0-.11-.422.36.36 0 0 0-.343-.218.9.9 0 0 0-.578.187 1.4 1.4 0 0 0-.391.453q-.156.266-.25.578a3 3 0 0 0-.094.578q.219-.046.516-.125.311-.078.578-.203.282-.14.469-.343a.66.66 0 0 0 .203-.485m1.39-3.844q0 .126-.046.157-.048.03-.157.03-.187 0-.422-.093a4 4 0 0 1-.453-.234 11 11 0 0 1-.437-.297 6 6 0 0 1-.344-.281l-.375.297a5 5 0 0 1-.437.328 5 5 0 0 1-.47.25 1.2 1.2 0 0 1-.437.093.4.4 0 0 1-.156-.03q-.062-.033-.062-.157 0-.234.203-.594t.5-.687q.297-.33.625-.563.327-.234.578-.234t.578.234q.328.219.61.531.296.313.5.657.203.344.203.593m12.079 7.672q0 .531-.344 1.047-.328.5-.844.906-.5.39-1.078.641-.578.234-1.062.234a2.76 2.76 0 0 1-1.485-.406 3.9 3.9 0 0 1-1.078-1.062 5.2 5.2 0 0 1-.672-1.407 5.6 5.6 0 0 1-.219-1.515q0-.781.22-1.672.218-.89.655-1.64a4.3 4.3 0 0 1 1.125-1.25q.688-.5 1.625-.5.532 0 1.016.187a2.45 2.45 0 0 1 1.422 1.281q.219.453.219 1.016 0 .734-.313 1.375a3.6 3.6 0 0 1-.828 1.109q-.516.47-1.187.766a4 4 0 0 1-1.376.312q.063.453.36.656.312.204.734.204.313 0 .61-.157.296-.156.578-.343.281-.204.547-.36.281-.156.562-.156a.87.87 0 0 1 .563.203q.25.203.25.531m-2.532-3.828a.94.94 0 0 0-.109-.422.36.36 0 0 0-.344-.218.9.9 0 0 0-.578.187 1.4 1.4 0 0 0-.39.453q-.157.266-.25.578a3 3 0 0 0-.094.578q.218-.046.515-.125.313-.078.578-.203.281-.14.47-.343a.66.66 0 0 0 .202-.485m7.735-1.984q0 .453-.313.672a6 6 0 0 1-.672.422q-.375.188-.687.453-.297.265-.297.797 0 .28.125.484.14.203.328.375.203.156.438.328t.421.39q.204.22.329.532.14.312.14.766 0 .656-.344 1.296a4.3 4.3 0 0 1-.859 1.125 4.3 4.3 0 0 1-1.172.782q-.656.296-1.297.297-.266 0-.53-.047a1.5 1.5 0 0 1-.485-.141 1.05 1.05 0 0 1-.344-.297.9.9 0 0 1-.14-.515q0-.438.171-.672.172-.25.438-.391.265-.141.562-.219.313-.078.578-.187.266-.126.438-.313t.172-.531q0-.329-.266-.672-.25-.36-.562-.75a8 8 0 0 1-.579-.86 2.04 2.04 0 0 1-.25-1q.001-.671.266-1.234.282-.577.734-1 .47-.421 1.063-.656.594-.25 1.25-.25.25 0 .484.047.25.046.438.172a.8.8 0 0 1 .297.312.86.86 0 0 1 .125.485m4.265 9.156q-1.109 0-1.734-.297a2 2 0 0 1-.922-.812q-.297-.532-.359-1.282-.063-.75-.063-1.671 0-.735.047-1.47.047-.75.141-1.593-.22 0-.344.016h-.203a1.6 1.6 0 0 1-.859-.22q-.376-.218-.376-.671 0-.28.219-.5.204-.218.532-.375.328-.156.703-.25.39-.093.734-.125 0-.438.063-.969.062-.531.218-.984a2.4 2.4 0 0 1 .453-.781.93.93 0 0 1 .719-.313q.25 0 .438.156.202.142.328.375.125.22.187.5.063.282.063.547 0 .313-.047.64-.047.33-.172.813.266-.03.359-.03.094-.016.172-.016.266 0 .547.046.297.048.531.157.25.109.407.297a.6.6 0 0 1 .156.421.67.67 0 0 1-.234.5q-.22.219-.563.375a4 4 0 0 1-.734.25 7 7 0 0 1-.735.11q-.093.64-.14 1.187-.031.531-.078 1.078l-.063.547q-.016.266-.016.547 0 .203.016.485.016.265.109.515.094.25.297.438.203.171.563.172.219 0 .453-.032.234-.047.469-.047.405 0 .578.282.187.281.187.718a.9.9 0 0 1-.203.579 1.35 1.35 0 0 1-.484.375 2.6 2.6 0 0 1-.672.234q-.36.078-.688.078m4.938-11.469a.65.65 0 0 1-.125.39 1.2 1.2 0 0 1-.297.313q-.187.125-.406.204a1.5 1.5 0 0 1-.406.062.96.96 0 0 1-.547-.156q-.235-.156-.235-.485a.74.74 0 0 1 .11-.406 1 1 0 0 1 .297-.297q.171-.125.39-.187a1.5 1.5 0 0 1 .422-.063q.297 0 .547.14.25.142.25.485m.125 5.313v.469q0 .234-.016.453-.015.265-.015.718 0 .438-.032.954-.03.515-.109 1.046a4.4 4.4 0 0 1-.219.97 2 2 0 0 1-.422.718.9.9 0 0 1-.64.281.58.58 0 0 1-.5-.234 2.2 2.2 0 0 1-.344-.64 5.3 5.3 0 0 1-.187-.891 17 17 0 0 1-.094-.954 13 13 0 0 1-.031-.859v-1.281q0-.47.031-1 .031-.531.109-1.078.094-.547.25-1a2.2 2.2 0 0 1 .438-.735.88.88 0 0 1 .672-.281q.421 0 .64.422t.328.984.125 1.125q.016.547.016.813m7.844 0a77 77 0 0 1-.891 2.25q-.484 1.171-1.047 2.187a4.6 4.6 0 0 1-.765 1.047 1.36 1.36 0 0 1-.969.406q-.437 0-.86-.437a6.7 6.7 0 0 1-.765-1.063 14 14 0 0 1-.61-1.25 25 25 0 0 1-.375-1.015 39 39 0 0 0-.281-.906 15 15 0 0 1-.281-.985 12 12 0 0 1-.203-.984 6 6 0 0 1-.078-.938q0-.61.218-1 .22-.39.86-.39.249 0 .453.156.203.14.375.406t.328.625q.156.345.297.766.14.406.266.844.124.436.25.843.124.407.25.797.14.375.359.75l.25-.64q.141-.36.297-.766.171-.406.359-.828.188-.438.406-.844a8.4 8.4 0 0 1 .891-1.437q.485-.594.953-.594.438 0 .625.265.188.266.188.688t-.141.953-.359 1.094m7.593 2.812q0 .531-.343 1.047-.328.5-.844.906-.5.39-1.078.641-.579.234-1.063.234a2.76 2.76 0 0 1-1.484-.406 3.9 3.9 0 0 1-1.078-1.062 5.1 5.1 0 0 1-.672-1.407 5.6 5.6 0 0 1-.219-1.515q0-.781.219-1.672t.656-1.64q.453-.75 1.125-1.25.687-.5 1.625-.5.531 0 1.016.187a2.46 2.46 0 0 1 1.422 1.281q.218.453.218 1.016 0 .734-.312 1.375a3.6 3.6 0 0 1-.828 1.109 4.4 4.4 0 0 1-1.188.766 4 4 0 0 1-1.375.312q.063.453.36.656.312.204.734.204.312 0 .609-.157.297-.156.579-.343.28-.204.546-.36a1.15 1.15 0 0 1 .563-.156q.313 0 .562.203a.65.65 0 0 1 .25.531m-2.531-3.828a.94.94 0 0 0-.109-.422.36.36 0 0 0-.344-.218.9.9 0 0 0-.578.187 1.4 1.4 0 0 0-.391.453q-.156.266-.25.578a3 3 0 0 0-.093.578q.218-.046.515-.125.312-.078.578-.203.282-.14.469-.343a.66.66 0 0 0 .203-.485m8.578.766q-.219.015-.375-.031l-.312-.125a3 3 0 0 0-.281-.11.6.6 0 0 0-.313-.047q-.312.015-.562.172a2.2 2.2 0 0 0-.438.39 2.7 2.7 0 0 0-.328.532 3 3 0 0 0-.219.563 4 4 0 0 0-.078.578q-.016.375-.016.812-.015.453-.015.86t-.031.64a5 5 0 0 1-.079.594 2.6 2.6 0 0 1-.203.625 1.4 1.4 0 0 1-.343.5.8.8 0 0 1-.563.203.75.75 0 0 1-.469-.156 1.4 1.4 0 0 1-.328-.406 4 4 0 0 1-.219-.61 8 8 0 0 1-.125-.703q-.047-.375-.078-.75l-.031-.703v-.625q.016-.282.016-.453-.016-.548-.063-1.094a20 20 0 0 1-.031-1.11q0-.343.031-.765t.172-.781a1.6 1.6 0 0 1 .406-.625q.282-.25.766-.25.266 0 .453.172.188.171.297.422.125.25.187.53.063.282.079.516.375-.609.843-.984.47-.39 1.219-.422.375-.015.734.078.375.078.672.282.313.187.5.5.204.312.219.734.031.5-.297.766-.328.265-.797.28m10.891-.156q0 .078-.016.171a1 1 0 0 1-.047.157 1.5 1.5 0 0 1-.437.609 1.1 1.1 0 0 1-.703.234q-.61 0-.828-.609a.5.5 0 0 1-.032-.172q0-.11-.015-.219v-.453a.9.9 0 0 0-.11-.343q-.078-.126-.265-.125-.265 0-.516.343a3.8 3.8 0 0 0-.422.797 7 7 0 0 0-.281.938 3.7 3.7 0 0 0-.109.78q0 .236.031.579.031.328.125.64.093.313.25.548.171.218.437.218a.8.8 0 0 0 .485-.156q.234-.172.453-.39.203-.189.437-.391a.87.87 0 0 1 .563-.203q.39 0 .609.28a.97.97 0 0 1 .235.642q0 .53-.282 1a3.2 3.2 0 0 1-.703.796q-.421.33-.937.516a2.7 2.7 0 0 1-.985.203q-.843 0-1.437-.422a3.3 3.3 0 0 1-.938-1.062 5 5 0 0 1-.515-1.422 7.3 7.3 0 0 1-.156-1.453q0-.796.218-1.719.219-.937.672-1.734a4.3 4.3 0 0 1 1.156-1.328q.72-.532 1.704-.532.61 0 1.046.266.453.265.735.703.297.422.437.953.157.531.157 1.047v.156a1 1 0 0 1-.016.157m3.844 6.453q-.798 0-1.391-.422a3.7 3.7 0 0 1-1-1.078 5.2 5.2 0 0 1-.609-1.453 6.5 6.5 0 0 1-.203-1.594q0-.828.203-1.703.202-.89.625-1.61.421-.734 1.078-1.187.656-.47 1.562-.469.875 0 1.485.484.625.47 1 1.188.375.703.531 1.547a6.5 6.5 0 0 1 .109 1.594 8.6 8.6 0 0 1-.265 1.671 5.3 5.3 0 0 1-.61 1.516 3.5 3.5 0 0 1-1.031 1.094q-.625.422-1.484.422m.156-7.063q-.234 0-.422.25-.173.25-.297.61-.11.36-.172.765-.062.39-.062.688 0 .374.062.812.078.438.203.813.126.36.297.609.188.234.422.234.25 0 .422-.234.188-.234.297-.594.11-.36.156-.781a8 8 0 0 0 .047-.812q0-.345-.062-.75a4.3 4.3 0 0 0-.188-.782 1.8 1.8 0 0 0-.297-.593q-.172-.235-.406-.235m13.516 1.453v.813q0 .5-.032 1.094-.015.593-.093 1.203a5.4 5.4 0 0 1-.25 1.078q-.157.484-.407.797a.78.78 0 0 1-.64.312.6.6 0 0 1-.532-.281 2.3 2.3 0 0 1-.25-.688 5 5 0 0 1-.093-.796v-.641q0-.703.047-1.375.046-.672.046-1.375V41.1q0-.203-.031-.407a1.2 1.2 0 0 0-.109-.359q-.063-.156-.203-.156-.282 0-.453.297a2.7 2.7 0 0 0-.282.672q-.11.39-.156.78-.047.375-.062.563a9 9 0 0 0-.063.61q-.015.405-.062.89a9 9 0 0 1-.125 1q-.079.5-.219.922-.126.406-.328.672-.203.266-.5.266a.64.64 0 0 1-.578-.328 2.4 2.4 0 0 1-.297-.766 6 6 0 0 1-.125-.89 20 20 0 0 1-.016-.704v-.515a9 9 0 0 0 .016-.516v-.36q0-.25-.016-.546a7 7 0 0 0-.031-.641 5 5 0 0 0-.063-.594 1.5 1.5 0 0 0-.14-.453q-.094-.172-.219-.172-.204 0-.375.266-.173.25-.297.61-.125.343-.203.687-.063.344-.063.5v.094q0 .75.094 1.468.094.72.094 1.469 0 .438-.281.813-.281.36-.782.359a.76.76 0 0 1-.593-.266 2.3 2.3 0 0 1-.391-.718 6 6 0 0 1-.25-.954 12 12 0 0 1-.109-1.03 39 39 0 0 1-.047-.923v-.625q0-.234-.016-.687 0-.453.016-.985.031-.53.094-1.078.062-.562.203-1.015a2.3 2.3 0 0 1 .359-.735.73.73 0 0 1 .594-.297q.406 0 .656.22.266.218.266.655 0 .094-.016.188 0 .093-.016.172a3.7 3.7 0 0 1 .422-.5q.25-.266.532-.469a2.6 2.6 0 0 1 .625-.344 1.65 1.65 0 0 1 .656-.14q.312 0 .562.172t.438.437q.188.25.312.547.126.297.172.562.156-.281.375-.562.234-.297.5-.516.266-.218.578-.36.328-.14.672-.14a.77.77 0 0 1 .563.235q.234.234.406.609.171.36.266.828.093.453.156.906.062.438.078.829.015.374.016.593m11.531-5.125q0 1.14-.094 2.266-.078 1.125-.078 2.266 0 .92.047 1.828.062.906.062 1.828 0 .25-.015.61-.016.342-.11.671a1.3 1.3 0 0 1-.281.563q-.187.234-.547.234-.469 0-.781-.344a1.7 1.7 0 0 1-.375-.797 2.7 2.7 0 0 1-.859.953q-.563.39-1.219.391-.703 0-1.219-.484a4.3 4.3 0 0 1-.844-1.172 7 7 0 0 1-.5-1.438 6.5 6.5 0 0 1-.156-1.297 10 10 0 0 1 .203-1.906q.125-.516.313-1 .188-.5.468-.89.297-.391.688-.625a1.8 1.8 0 0 1 .922-.235q.562 0 1.078.328.516.329.781.813l.141-2.485q.015-.297.047-.687.03-.406.125-.766.11-.36.328-.61t.64-.25q.453 0 .704.22.25.218.359.562.124.328.141.719.03.39.031.734m-2.547 6.938q0-.36-.016-.703-.015-.345 0-.703a8 8 0 0 0-.218-.438 2 2 0 0 0-.313-.453 1.6 1.6 0 0 0-.391-.36.85.85 0 0 0-.468-.14.6.6 0 0 0-.453.172 1 1 0 0 0-.25.422 2.5 2.5 0 0 0-.11.515 9 9 0 0 0-.015.485 7.3 7.3 0 0 0 .14 1.297q.094.374.25.656.156.28.422.281.203 0 .406-.078.204-.095.375-.219a3 3 0 0 0 .344-.297q.173-.171.297-.312zm6.547 3.797q-.797 0-1.391-.422a3.7 3.7 0 0 1-1-1.078 5.2 5.2 0 0 1-.609-1.453 6.5 6.5 0 0 1-.203-1.594q0-.828.203-1.703.203-.89.625-1.61.421-.734 1.078-1.187.656-.47 1.562-.469.876 0 1.485.484.624.47 1 1.188.375.703.531 1.547a6.5 6.5 0 0 1 .109 1.594 8.6 8.6 0 0 1-.265 1.671 5.3 5.3 0 0 1-.61 1.516q-.405.672-1.031 1.094t-1.484.422m.156-7.063q-.234 0-.422.25-.171.25-.297.61-.11.36-.172.765-.062.39-.062.688 0 .374.062.812.078.438.204.813.125.36.296.609.188.234.422.234.25 0 .422-.234.188-.234.297-.594.11-.36.156-.781.048-.437.047-.812 0-.345-.062-.75a4.3 4.3 0 0 0-.188-.782 1.8 1.8 0 0 0-.297-.593q-.171-.235-.406-.235m9.453.766q-.219.015-.375-.031l-.312-.125a3 3 0 0 0-.282-.11.6.6 0 0 0-.312-.047q-.312.015-.563.172a2.2 2.2 0 0 0-.437.39 2.7 2.7 0 0 0-.328.532 3 3 0 0 0-.219.563 4 4 0 0 0-.078.578 19 19 0 0 0-.016.812q-.015.453-.015.86t-.032.64q-.015.25-.078.594a2.6 2.6 0 0 1-.203.625 1.4 1.4 0 0 1-.344.5.8.8 0 0 1-.562.203.75.75 0 0 1-.469-.156 1.4 1.4 0 0 1-.328-.406 4 4 0 0 1-.219-.61 8 8 0 0 1-.125-.703q-.046-.375-.078-.75-.015-.375-.031-.703v-.625q.015-.282.016-.453-.017-.548-.063-1.094a20 20 0 0 1-.031-1.11q0-.343.031-.765t.172-.781a1.6 1.6 0 0 1 .406-.625q.282-.25.766-.25.265 0 .453.172.187.171.297.422.125.25.187.53.063.282.078.516.376-.609.844-.984.47-.39 1.219-.422.375-.015.734.078.375.078.672.282.312.187.5.5.203.312.219.734.031.5-.297.766-.328.265-.797.28m11.828-4.438q0 1.14-.093 2.266-.08 1.125-.079 2.266 0 .92.047 1.828.063.906.063 1.828 0 .25-.016.61-.015.342-.109.671a1.3 1.3 0 0 1-.281.563q-.188.234-.547.234-.469 0-.782-.344a1.7 1.7 0 0 1-.375-.797 2.7 2.7 0 0 1-.859.953q-.562.39-1.219.391a1.72 1.72 0 0 1-1.218-.484 4.3 4.3 0 0 1-.844-1.172 7 7 0 0 1-.5-1.438 6.5 6.5 0 0 1-.156-1.297q0-.39.046-.89.048-.5.157-1.016a8 8 0 0 1 .312-1q.187-.5.469-.89.297-.391.687-.625.407-.235.922-.235.563 0 1.078.328.516.329.782.813l.14-2.485q.016-.297.047-.687.032-.406.125-.766.11-.36.328-.61.22-.25.641-.25.453 0 .703.22.25.218.359.562.126.328.141.719.031.39.031.734m-2.547 6.938q0-.36-.015-.703a8 8 0 0 1 0-.703 9 9 0 0 0-.219-.438 2 2 0 0 0-.312-.453 1.6 1.6 0 0 0-.391-.36.85.85 0 0 0-.469-.14.6.6 0 0 0-.453.172 1 1 0 0 0-.25.422 2.5 2.5 0 0 0-.109.515 8 8 0 0 0-.016.485q0 .187.031.562.032.36.11.735.093.374.25.656.156.28.422.281.202 0 .406-.078.202-.095.375-.219.187-.141.344-.297.171-.171.296-.312zm10.125.562q0 .531-.343 1.047-.328.5-.844.906-.5.39-1.078.641-.579.234-1.063.234a2.76 2.76 0 0 1-1.484-.406 3.9 3.9 0 0 1-1.078-1.062 5.1 5.1 0 0 1-.672-1.407 5.6 5.6 0 0 1-.219-1.515q0-.781.219-1.672.218-.89.656-1.64.453-.75 1.125-1.25.687-.5 1.625-.5.531 0 1.016.187a2.46 2.46 0 0 1 1.422 1.281q.218.453.218 1.016 0 .734-.312 1.375a3.6 3.6 0 0 1-.828 1.109 4.4 4.4 0 0 1-1.188.766 4 4 0 0 1-1.375.312q.063.453.36.656.312.204.734.204.312 0 .609-.157.297-.156.579-.343.28-.204.546-.36a1.15 1.15 0 0 1 .563-.156q.312 0 .562.203a.65.65 0 0 1 .25.531m-2.531-3.828a.94.94 0 0 0-.109-.422.36.36 0 0 0-.344-.218.9.9 0 0 0-.578.187 1.4 1.4 0 0 0-.391.453q-.156.266-.25.578a3 3 0 0 0-.093.578q.218-.046.515-.125.312-.078.578-.203.282-.14.469-.343a.66.66 0 0 0 .203-.485m12.719.61q0 .078-.016.171a1 1 0 0 1-.047.157 1.5 1.5 0 0 1-.437.609 1.1 1.1 0 0 1-.703.234q-.61 0-.828-.609a.5.5 0 0 1-.032-.172q0-.11-.015-.219v-.453a.9.9 0 0 0-.11-.343q-.078-.126-.265-.125-.265 0-.516.343a3.8 3.8 0 0 0-.422.797 7 7 0 0 0-.281.938 3.7 3.7 0 0 0-.109.78q0 .236.031.579.031.328.125.64.093.313.25.548.171.218.437.218a.8.8 0 0 0 .485-.156q.234-.172.453-.39.203-.189.437-.391a.87.87 0 0 1 .563-.203q.39 0 .609.28a.97.97 0 0 1 .235.642q0 .53-.282 1a3.2 3.2 0 0 1-.703.796q-.421.33-.937.516a2.7 2.7 0 0 1-.985.203q-.843 0-1.437-.422a3.3 3.3 0 0 1-.938-1.062 5 5 0 0 1-.515-1.422 7.3 7.3 0 0 1-.156-1.453q0-.796.218-1.719.219-.937.672-1.734a4.3 4.3 0 0 1 1.156-1.328q.72-.532 1.704-.532.61 0 1.046.266.453.265.735.703.297.422.437.953.157.531.157 1.047v.156a1 1 0 0 1-.016.157m7.516 3.796q0 .282-.032.735-.015.453-.125.89a2.1 2.1 0 0 1-.343.735q-.235.312-.657.312-.578 0-.89-.375-.314-.375-.297-.937-.5.436-1.141.687-.626.25-1.281.25-.453 0-.859-.218a2.7 2.7 0 0 1-.719-.563 2.8 2.8 0 0 1-.5-.766 2.2 2.2 0 0 1-.188-.859q0-.75.453-1.312a4.3 4.3 0 0 1 1.141-.954q.672-.406 1.422-.64a8.5 8.5 0 0 1 1.359-.313v-.14a.6.6 0 0 0 .016-.141q0-.484-.266-.781t-.75-.297q-.39 0-.672.14a3.3 3.3 0 0 0-.531.297q-.25.157-.5.297a1.24 1.24 0 0 1-.562.125.87.87 0 0 1-.594-.218.74.74 0 0 1-.234-.563q0-.516.296-.937.313-.422.766-.704a4 4 0 0 1 1-.453 3.4 3.4 0 0 1 1-.172q.422 0 .844.11.422.093.797.312.375.203.672.516.312.297.5.703.28.578.453 1.234.172.64.265 1.329.094.67.125 1.359.032.672.032 1.312m-2.5-.5-.047-1.062h-.063a.14.14 0 0 0-.062-.016q-.204 0-.516.11a2.3 2.3 0 0 0-.578.28 2.3 2.3 0 0 0-.484.392.7.7 0 0 0-.188.453q0 .218.156.297a.8.8 0 0 0 .36.078q.344 0 .734-.172.39-.187.688-.36m10.828-2.453q0 .453-.078 1.032-.063.562-.219 1.156a6.6 6.6 0 0 1-.391 1.156 4.2 4.2 0 0 1-.594 1.016q-.344.437-.812.703a2.06 2.06 0 0 1-1.063.265q-.64 0-1.171-.296a2.9 2.9 0 0 1-.891-.813 1.3 1.3 0 0 1-.344.75 1 1 0 0 1-.75.313q-.266-.001-.453-.266a2.4 2.4 0 0 1-.281-.672 7 7 0 0 1-.172-.922 17 17 0 0 1-.063-.969q-.015-.468-.015-.843v-1.594l.031-1.078q0-.266-.016-.797 0-.531.016-1.172.015-.656.063-1.328.062-.688.203-1.25.14-.562.39-.922t.641-.375q.312 0 .531.219.219.218.36.578.156.36.234.812.093.438.125.891.047.438.047.844.015.39.015.64 0 .048-.015.22v.843a2.3 2.3 0 0 1 .406-.578q.265-.282.594-.5t.687-.36q.36-.14.688-.14.656 0 1.094.344.453.328.718.843.266.516.375 1.125.11.594.11 1.125m-2.297.469q0-.187-.031-.406a1.1 1.1 0 0 0-.11-.406.8.8 0 0 0-.234-.313.55.55 0 0 0-.375-.125q-.25 0-.5.11a2.3 2.3 0 0 0-.453.28q-.22.172-.407.376-.187.187-.328.375l-.156 1.39q.25.36.609.578.36.204.813.204a.76.76 0 0 0 .562-.22q.235-.218.36-.53.14-.329.187-.688.063-.36.063-.625m9.797 1.906q0 .531-.344 1.047-.328.5-.844.906-.5.39-1.078.641-.578.234-1.062.234a2.76 2.76 0 0 1-1.485-.406 3.9 3.9 0 0 1-1.078-1.062 5.1 5.1 0 0 1-.672-1.407 5.6 5.6 0 0 1-.219-1.515q0-.781.219-1.672.22-.89.656-1.64.453-.75 1.125-1.25.688-.5 1.625-.5.532 0 1.016.187a2.46 2.46 0 0 1 1.422 1.281q.219.453.219 1.016a3.1 3.1 0 0 1-.313 1.375 3.6 3.6 0 0 1-.828 1.109 4.4 4.4 0 0 1-1.187.766 4 4 0 0 1-1.375.312q.062.453.359.656.312.204.734.204.313 0 .61-.157.297-.156.578-.343.281-.204.547-.36.281-.156.562-.156.312 0 .563.203t.25.531m-2.532-3.828a.94.94 0 0 0-.109-.422.36.36 0 0 0-.344-.218.9.9 0 0 0-.578.187 1.4 1.4 0 0 0-.39.453 2.6 2.6 0 0 0-.25.578 3 3 0 0 0-.094.578q.218-.046.515-.125a3 3 0 0 0 .579-.203 1.6 1.6 0 0 0 .468-.343.66.66 0 0 0 .203-.485m8.016 8.906q0 .454-.219.844t-.562.688q-.344.296-.781.468a2.4 2.4 0 0 1-.86.172q-.312 0-.64-.062a2 2 0 0 1-.594-.188 2 2 0 0 1-.485-.36 1.4 1.4 0 0 1-.328-.546.45.45 0 0 1-.047-.203.55.55 0 0 1 .188-.422.65.65 0 0 1 .422-.172.48.48 0 0 1 .328.11l.297.265q.156.14.375.25.219.125.594.125a1 1 0 0 0 .593-.203.64.64 0 0 0 .282-.547.5.5 0 0 0-.172-.39 1.8 1.8 0 0 0-.375-.282l-.438-.25a.86.86 0 0 1-.328-.265q-.125-.173-.125-.5v-.75a2.2 2.2 0 0 1-1.078-.563 3.5 3.5 0 0 1-.703-1.015 5.3 5.3 0 0 1-.391-1.235 6.7 6.7 0 0 1-.125-1.25q0-.515.094-1.094.093-.578.281-1.14.188-.563.485-1.078.296-.516.687-.907.406-.39.906-.625a2.7 2.7 0 0 1 1.141-.234q.562 0 .984.25.423.25.688.656.28.406.422.907.14.5.14 1 0 .125-.015.296a.9.9 0 0 1-.047.297 1.4 1.4 0 0 1-.406.547 1.02 1.02 0 0 1-.641.219q-.531 0-.734-.531a1.1 1.1 0 0 1-.047-.36q.015-.234-.016-.437a.84.84 0 0 0-.109-.375q-.094-.156-.328-.156-.282 0-.532.343a3.4 3.4 0 0 0-.437.797q-.187.469-.297.953a3.5 3.5 0 0 0-.109.75q0 .204.031.547.047.329.14.656.11.33.282.563a.58.58 0 0 0 .468.234q.282 0 .516-.172a5 5 0 0 0 .453-.375q.219-.218.438-.39a.76.76 0 0 1 .484-.172.65.65 0 0 1 .531.25.85.85 0 0 1 .219.578q0 .405-.187.781-.188.36-.485.657-.297.296-.687.515-.375.219-.766.313v.093q0 .094-.016.204a.4.4 0 0 1-.046.203q.249.093.546.25.298.171.547.39.25.235.422.5.172.282.172.578m8.172-4.5q0 .282-.031.735a4.3 4.3 0 0 1-.125.89 2.1 2.1 0 0 1-.344.735q-.234.312-.656.312-.579 0-.891-.375t-.297-.937q-.5.436-1.14.687-.625.25-1.282.25-.453 0-.859-.218a2.7 2.7 0 0 1-.719-.563 2.9 2.9 0 0 1-.5-.766 2.2 2.2 0 0 1-.187-.859q0-.75.453-1.312a4.2 4.2 0 0 1 1.14-.954q.672-.406 1.422-.64.766-.234 1.36-.313v-.14a.6.6 0 0 0 .015-.141q0-.484-.265-.781t-.75-.297q-.391 0-.672.14a3.3 3.3 0 0 0-.531.297q-.25.157-.5.297a1.24 1.24 0 0 1-.563.125.87.87 0 0 1-.594-.218.74.74 0 0 1-.234-.563q0-.516.297-.937.312-.422.765-.704a4 4 0 0 1 1-.453 3.4 3.4 0 0 1 1-.172q.423 0 .844.11.422.093.797.312.375.203.672.516.312.297.5.703.28.578.453 1.234.172.64.266 1.329.093.67.125 1.359.03.672.031 1.312m-2.5-.5-.047-1.062h-.062a.14.14 0 0 0-.063-.016q-.202 0-.516.11-.296.093-.578.28a2.3 2.3 0 0 0-.484.392.7.7 0 0 0-.188.453q0 .218.157.297a.8.8 0 0 0 .359.078q.344 0 .734-.172.391-.187.688-.36m5.687 1.875q0 .25-.14.641-.126.39-.328.766-.187.375-.438.64-.25.266-.484.266-.313 0-.313-.313a.9.9 0 0 1 .078-.359q.079-.173.172-.344.094-.156.172-.328a.7.7 0 0 0 .078-.312.9.9 0 0 1-.5.156.79.79 0 0 1-.609-.281.92.92 0 0 1-.25-.625q0-.501.328-.797.328-.313.828-.313.562 0 .985.297.421.297.421.906M44.726 61.397q0 .078-.016.171a1 1 0 0 1-.047.157 1.5 1.5 0 0 1-.437.609 1.1 1.1 0 0 1-.704.234q-.609 0-.828-.609a.5.5 0 0 1-.031-.172q0-.11-.016-.219v-.453a.9.9 0 0 0-.109-.343q-.078-.126-.266-.125-.266 0-.515.343a3.8 3.8 0 0 0-.422.797 7 7 0 0 0-.281.938q-.11.484-.11.78 0 .236.031.579.032.328.125.64.094.313.25.547.172.22.438.22a.8.8 0 0 0 .484-.157q.235-.172.453-.39.204-.189.438-.391a.87.87 0 0 1 .563-.203q.39 0 .609.28a.97.97 0 0 1 .234.642q0 .53-.281 1a3.2 3.2 0 0 1-.703.796 3.4 3.4 0 0 1-.938.516 2.7 2.7 0 0 1-.984.203q-.844 0-1.437-.422a3.3 3.3 0 0 1-.938-1.062 5 5 0 0 1-.516-1.422 7.3 7.3 0 0 1-.156-1.453q0-.796.219-1.719.219-.937.672-1.734a4.3 4.3 0 0 1 1.156-1.328q.72-.532 1.703-.532.609 0 1.047.266.453.265.734.703.297.422.438.953.156.531.156 1.047v.156a1 1 0 0 1-.016.157m3.843 6.453q-.797 0-1.39-.422a3.7 3.7 0 0 1-1-1.078 5.2 5.2 0 0 1-.61-1.453 6.6 6.6 0 0 1-.203-1.594q0-.828.203-1.703a5.6 5.6 0 0 1 .625-1.61q.421-.734 1.078-1.187.657-.47 1.563-.469.875 0 1.484.484.625.47 1 1.188.375.703.531 1.547.157.843.11 1.594a8.6 8.6 0 0 1-.266 1.671 5.3 5.3 0 0 1-.61 1.516q-.406.672-1.03 1.094-.626.422-1.485.422m.156-7.063q-.234 0-.421.25-.172.25-.297.61a5.5 5.5 0 0 0-.172.765q-.063.39-.063.688 0 .375.063.812.078.438.203.813.125.36.297.609.187.234.422.234.25 0 .422-.234.188-.234.296-.594.11-.36.157-.781.047-.437.047-.812 0-.345-.063-.75a4.3 4.3 0 0 0-.187-.782 1.8 1.8 0 0 0-.297-.593q-.172-.235-.407-.235M62.24 62.24v.813q0 .5-.031 1.094-.016.593-.094 1.203a5.3 5.3 0 0 1-.25 1.078q-.157.484-.406.797a.79.79 0 0 1-.64.312.6.6 0 0 1-.532-.281 2.2 2.2 0 0 1-.25-.688 5 5 0 0 1-.094-.796v-.641q0-.703.047-1.375t.047-1.375V62.1q0-.203-.031-.407a1.2 1.2 0 0 0-.11-.359q-.062-.156-.203-.156-.28 0-.453.297a2.7 2.7 0 0 0-.281.672q-.11.39-.156.78-.047.375-.063.563-.03.204-.062.61-.016.405-.063.89a9 9 0 0 1-.125 1 6 6 0 0 1-.219.922q-.124.406-.328.672-.203.266-.5.266a.64.64 0 0 1-.578-.328 2.4 2.4 0 0 1-.297-.766 6 6 0 0 1-.125-.89q-.015-.454-.015-.704v-.516q.015-.25.015-.515v-.36q0-.25-.015-.546 0-.313-.032-.641a5 5 0 0 0-.062-.594 1.5 1.5 0 0 0-.14-.453q-.094-.172-.22-.172-.202 0-.375.266-.171.25-.296.61-.125.343-.204.687-.062.344-.062.5v.094q0 .75.094 1.468.093.72.093 1.469 0 .438-.28.813-.282.36-.782.359a.76.76 0 0 1-.594-.266 2.3 2.3 0 0 1-.39-.718 6 6 0 0 1-.25-.954 12 12 0 0 1-.11-1.03q-.03-.517-.047-.923v-.625q0-.234-.015-.687 0-.453.015-.985.032-.53.094-1.078.063-.562.203-1.015.141-.454.36-.735a.73.73 0 0 1 .593-.297q.407 0 .657.22.265.218.265.655 0 .094-.015.188 0 .093-.016.172a3.6 3.6 0 0 1 .422-.5 3.7 3.7 0 0 1 .531-.469q.297-.218.625-.344.329-.14.656-.14a.97.97 0 0 1 .563.172q.25.171.437.437.188.25.313.547.124.297.172.562.156-.281.375-.562.234-.297.5-.516.266-.218.578-.36a1.7 1.7 0 0 1 .672-.14q.328 0 .562.235t.406.609q.173.36.266.828.095.453.156.906.063.438.078.829.015.374.016.593m14.281 0v.813q0 .5-.03 1.094-.017.593-.095 1.203a5.3 5.3 0 0 1-.25 1.078q-.156.484-.406.797a.79.79 0 0 1-.64.312.6.6 0 0 1-.532-.281 2.2 2.2 0 0 1-.25-.688 5 5 0 0 1-.094-.796v-.641q0-.703.047-1.375t.047-1.375V62.1q0-.203-.031-.407a1.2 1.2 0 0 0-.11-.359q-.062-.156-.203-.156-.28 0-.453.297a2.7 2.7 0 0 0-.28.672q-.11.39-.157.78-.047.375-.063.563-.03.204-.062.61-.015.405-.063.89-.03.485-.125 1a6 6 0 0 1-.218.922 2.1 2.1 0 0 1-.329.672q-.203.266-.5.266a.64.64 0 0 1-.578-.328 2.4 2.4 0 0 1-.297-.766 6 6 0 0 1-.124-.89q-.016-.454-.016-.704v-.516q.016-.25.016-.515v-.36q0-.25-.016-.546 0-.313-.031-.641a5 5 0 0 0-.063-.594 1.5 1.5 0 0 0-.14-.453q-.094-.172-.22-.172-.203 0-.374.266-.172.25-.297.61-.125.343-.203.687-.063.344-.063.5v.094q0 .75.094 1.468.094.72.094 1.469 0 .438-.282.813-.28.36-.78.359a.76.76 0 0 1-.594-.266 2.4 2.4 0 0 1-.391-.718 6 6 0 0 1-.25-.954 12 12 0 0 1-.11-1.03 42 42 0 0 1-.046-.923v-.625q0-.234-.016-.687 0-.453.016-.985.03-.53.093-1.078.063-.562.203-1.015.141-.454.36-.735a.73.73 0 0 1 .594-.297q.406 0 .656.22.266.218.266.655 0 .094-.016.188 0 .093-.016.172a3.6 3.6 0 0 1 .422-.5q.25-.266.531-.469.297-.218.625-.344.33-.14.657-.14a.97.97 0 0 1 .562.172q.25.171.438.437.188.25.312.547.125.297.172.562.157-.281.375-.562.234-.297.5-.516.266-.218.578-.36a1.7 1.7 0 0 1 .672-.14q.328 0 .563.235t.406.609q.172.36.265.828.094.453.157.906.061.438.078.829.015.374.015.593m7.875.688a8.5 8.5 0 0 1-.172 1.703 4.7 4.7 0 0 1-.578 1.516q-.406.655-1.093 1.062-.671.406-1.688.406-1 0-1.672-.39a3.2 3.2 0 0 1-1.078-1.063 4.8 4.8 0 0 1-.562-1.484 9 9 0 0 1-.157-1.688q0-.937.22-1.86.046-.249.171-.687.14-.453.344-.875a3.7 3.7 0 0 1 .484-.75q.281-.312.61-.312.311 0 .5.172.187.171.296.437.11.251.141.547.03.282.031.516 0 .36-.062.703-.047.344-.11.687l-.125.938a9.4 9.4 0 0 0-.03 1.469q.03.281.124.547t.266.453q.172.172.484.172.406 0 .64-.22.25-.217.36-.546.126-.328.156-.703.032-.376.032-.688a9.5 9.5 0 0 0-.094-1.343q-.094-.672-.172-1.36a1.5 1.5 0 0 1 .063-.687q.078-.235.218-.422t.344-.297a.85.85 0 0 1 .453-.125q.344 0 .61.25.265.234.437.625.188.374.297.86.125.468.187.937.079.453.094.86.031.406.031.64m3.532-6.438a.65.65 0 0 1-.125.39 1.2 1.2 0 0 1-.297.313q-.187.125-.407.204a1.5 1.5 0 0 1-.406.062.96.96 0 0 1-.547-.156q-.234-.156-.234-.485a.74.74 0 0 1 .11-.406q.125-.188.296-.297.172-.125.39-.187.22-.063.423-.063.297 0 .547.14.25.142.25.485m.125 5.313v.469q0 .234-.016.453-.016.265-.016.718 0 .438-.03.954-.033.515-.11 1.046a4.4 4.4 0 0 1-.219.97 2 2 0 0 1-.422.718.9.9 0 0 1-.64.281.58.58 0 0 1-.5-.234 2.2 2.2 0 0 1-.344-.64 5.4 5.4 0 0 1-.188-.891 17 17 0 0 1-.094-.954q-.03-.469-.03-.859v-1.281q0-.47.03-1 .032-.532.11-1.078a6.4 6.4 0 0 1 .25-1q.172-.454.437-.735a.88.88 0 0 1 .672-.281q.422 0 .64.422.22.422.329.984t.125 1.125q.016.547.016.813m4.75 6.156q-1.11 0-1.735-.297a2 2 0 0 1-.922-.812q-.296-.532-.359-1.282-.062-.75-.062-1.671 0-.735.046-1.47.047-.75.141-1.593-.219 0-.344.016h-.203q-.5 0-.86-.22-.374-.218-.374-.671 0-.28.218-.5.204-.218.532-.375.328-.156.703-.25.39-.093.734-.125 0-.438.063-.969.062-.531.218-.984.172-.47.454-.781a.92.92 0 0 1 .718-.313q.25 0 .438.156.203.142.328.375.125.22.188.5.062.282.062.547 0 .313-.047.64-.046.33-.172.813.265-.03.36-.03.094-.016.171-.016.267 0 .547.046.297.048.532.157.25.109.406.297a.6.6 0 0 1 .156.421.67.67 0 0 1-.234.5q-.22.219-.563.375-.344.157-.734.25-.39.078-.734.11-.095.64-.141 1.187-.03.531-.078 1.078l-.063.547q-.015.266-.015.547 0 .203.015.484.015.267.11.516.093.25.296.438.203.172.563.172.219 0 .453-.032.235-.047.469-.047.405 0 .578.282.188.281.188.718a.9.9 0 0 1-.204.579 1.35 1.35 0 0 1-.484.374 2.6 2.6 0 0 1-.672.235q-.36.078-.687.078m9-2.766q0 .282-.032.735-.015.453-.125.89a2.1 2.1 0 0 1-.343.735q-.235.312-.657.312-.578 0-.89-.375-.314-.375-.297-.937a3.8 3.8 0 0 1-1.14.687 3.4 3.4 0 0 1-1.282.25q-.453 0-.86-.218a2.7 2.7 0 0 1-.718-.563 2.9 2.9 0 0 1-.5-.766 2.2 2.2 0 0 1-.188-.859q0-.75.453-1.312a4.3 4.3 0 0 1 1.141-.954q.672-.406 1.422-.64.765-.234 1.36-.313v-.14a.6.6 0 0 0 .015-.141q0-.484-.266-.781t-.75-.297q-.39 0-.672.14a3.3 3.3 0 0 0-.53.297q-.25.157-.5.297a1.24 1.24 0 0 1-.563.125.87.87 0 0 1-.594-.218.74.74 0 0 1-.234-.563q0-.516.296-.937.313-.422.766-.704a4 4 0 0 1 1-.453 3.4 3.4 0 0 1 1-.172q.422 0 .844.11.422.093.797.312.375.203.672.516.312.297.5.703.28.578.453 1.234.172.64.265 1.329.095.67.125 1.359.032.672.032 1.312m-2.5-.5-.047-1.062h-.063a.14.14 0 0 0-.062-.016q-.204 0-.516.11-.296.093-.578.28a2.3 2.3 0 0 0-.484.392.7.7 0 0 0-.188.453q0 .218.156.297a.8.8 0 0 0 .36.078q.344 0 .734-.172.39-.188.688-.36m11.781-5.89q0 .453-.313.672a6 6 0 0 1-.671.422q-.376.188-.688.453-.297.265-.297.797a.9.9 0 0 0 .125.484q.14.203.328.375.204.156.438.328t.422.39q.202.22.328.532.14.312.14.766 0 .656-.343 1.296a4.3 4.3 0 0 1-.86 1.125 4.3 4.3 0 0 1-1.172.782 3.1 3.1 0 0 1-1.296.297q-.267 0-.532-.047a1.5 1.5 0 0 1-.484-.141 1.04 1.04 0 0 1-.344-.297.9.9 0 0 1-.14-.516q0-.437.171-.671.172-.25.438-.391.265-.141.562-.219.313-.078.579-.187.265-.126.437-.313.172-.188.172-.531 0-.329-.266-.672a14 14 0 0 0-.562-.75 8 8 0 0 1-.578-.86 2.03 2.03 0 0 1-.25-1q0-.671.265-1.234a3.4 3.4 0 0 1 .735-1 3.5 3.5 0 0 1 1.062-.656 3.2 3.2 0 0 1 1.25-.25q.25 0 .485.047.25.046.437.172a.8.8 0 0 1 .297.312.86.86 0 0 1 .125.485m7.172 5.812q0 .531-.344 1.047-.328.5-.844.906a5 5 0 0 1-1.078.641q-.578.234-1.062.234a2.77 2.77 0 0 1-1.485-.406 3.9 3.9 0 0 1-1.078-1.062 5.2 5.2 0 0 1-.672-1.407 5.6 5.6 0 0 1-.218-1.515q0-.781.218-1.672a6.1 6.1 0 0 1 .657-1.64q.453-.75 1.125-1.25.687-.5 1.625-.5.53 0 1.015.187a2.46 2.46 0 0 1 1.422 1.281q.219.453.219 1.016 0 .734-.313 1.375a3.6 3.6 0 0 1-.828 1.109 4.4 4.4 0 0 1-1.187.766 4 4 0 0 1-1.375.312q.062.453.359.656.312.204.734.204.313 0 .61-.157.297-.156.578-.343.281-.204.547-.36.281-.156.562-.156a.87.87 0 0 1 .563.203q.25.203.25.531m-2.531-3.828a.94.94 0 0 0-.11-.422.36.36 0 0 0-.344-.218.9.9 0 0 0-.578.187 1.4 1.4 0 0 0-.39.453 2.6 2.6 0 0 0-.25.578 3 3 0 0 0-.094.578q.219-.046.516-.125.312-.078.578-.203a1.6 1.6 0 0 0 .468-.343.66.66 0 0 0 .204-.485m9.89-3.672q0 1.14-.094 2.266-.078 1.125-.078 2.266 0 .92.047 1.828.063.906.063 1.828 0 .25-.016.61-.016.342-.109.671a1.3 1.3 0 0 1-.282.563q-.187.234-.546.234-.469 0-.782-.344a1.7 1.7 0 0 1-.375-.797 2.7 2.7 0 0 1-.859.953q-.562.39-1.219.391-.703 0-1.219-.484a4.3 4.3 0 0 1-.843-1.172 7 7 0 0 1-.5-1.438 6.4 6.4 0 0 1-.157-1.297 10 10 0 0 1 .204-1.906 8 8 0 0 1 .312-1q.187-.5.469-.89.297-.391.687-.625a1.8 1.8 0 0 1 .922-.235q.563 0 1.078.328.515.329.782.813l.14-2.485q.016-.297.047-.687.032-.406.125-.766.11-.36.328-.61.22-.25.641-.25.453 0 .703.22.25.218.359.562.125.328.141.719.031.39.031.734m-2.547 6.938q0-.36-.015-.703a8 8 0 0 1 0-.703 9 9 0 0 0-.219-.438 2 2 0 0 0-.313-.453 1.6 1.6 0 0 0-.39-.36.85.85 0 0 0-.469-.14.6.6 0 0 0-.453.172 1 1 0 0 0-.25.422 2.5 2.5 0 0 0-.109.515 8 8 0 0 0-.016.485q0 .187.031.562.031.36.11.735.093.374.25.656.156.28.421.281.204 0 .407-.078.203-.095.375-.219.187-.141.343-.297.172-.171.297-.312zm10.125.562q0 .531-.343 1.047-.328.5-.844.906-.5.39-1.078.641-.579.234-1.063.234a2.76 2.76 0 0 1-1.484-.406 3.9 3.9 0 0 1-1.078-1.062 5.1 5.1 0 0 1-.672-1.407 5.6 5.6 0 0 1-.219-1.515q0-.781.219-1.672t.656-1.64q.453-.75 1.125-1.25.687-.5 1.625-.5.531 0 1.016.187.484.171.843.5.36.328.579.781t.218 1.016q0 .734-.312 1.375a3.7 3.7 0 0 1-.828 1.109 4.4 4.4 0 0 1-1.188.766 4 4 0 0 1-1.375.312q.063.453.36.656.312.204.734.204.312 0 .609-.157.297-.156.578-.343.282-.204.547-.36a1.15 1.15 0 0 1 .563-.156q.312 0 .562.203a.65.65 0 0 1 .25.531m-2.531-3.828a.94.94 0 0 0-.109-.422.36.36 0 0 0-.344-.218.9.9 0 0 0-.578.187 1.4 1.4 0 0 0-.391.453q-.156.266-.25.578a3 3 0 0 0-.094.578q.219-.046.516-.125.312-.078.578-.203.282-.14.469-.343a.66.66 0 0 0 .203-.485m5.406 5.781q0 .25-.14.641-.126.39-.328.766-.187.375-.438.64-.25.266-.484.266-.313 0-.313-.313a.9.9 0 0 1 .078-.359q.079-.173.172-.344.094-.156.172-.328a.7.7 0 0 0 .078-.312.9.9 0 0 1-.5.156.78.78 0 0 1-.609-.281.92.92 0 0 1-.25-.625q0-.501.328-.797.328-.313.828-.313.563 0 .984.297.423.297.422.906m10.938-8.515q0 .297-.063.578a1.2 1.2 0 0 1-.187.469 1.05 1.05 0 0 1-.375.328q-.234.11-.578.11-.391 0-.578-.157a.86.86 0 0 1-.266-.375 2 2 0 0 1-.063-.5q0-.266-.031-.484a.86.86 0 0 0-.109-.391q-.094-.156-.344-.156-.234 0-.391.359-.14.36-.234.828a7 7 0 0 0-.125.922q-.031.438-.031.594a6 6 0 0 1 .39-.047 2.5 2.5 0 0 1 .86.016q.234.046.437.156a.8.8 0 0 1 .328.281.72.72 0 0 1 .125.438q0 .28-.25.5a2.1 2.1 0 0 1-.578.375 5 5 0 0 1-.672.234 5 5 0 0 1-.546.125q.046 1.079.046 2.172 0 1.03-.046 2.031a1.2 1.2 0 0 1-.344.797q-.298.312-.781.312a.9.9 0 0 1-.454-.109.85.85 0 0 1-.312-.266 1.6 1.6 0 0 1-.203-.39 2 2 0 0 1-.078-.453 56 56 0 0 1-.125-1.875 29 29 0 0 1-.032-1.907q-.109.016-.218.016h-.203q-.188 0-.454-.047a2.3 2.3 0 0 1-.515-.156 1.7 1.7 0 0 1-.406-.297.6.6 0 0 1-.172-.437q0-.344.234-.579.219-.233.531-.375.328-.156.672-.218.36-.063.625-.094v-.25q0-.765.141-1.64.14-.876.5-1.626.358-.75.984-1.234.625-.5 1.594-.5.609 0 1.047.266.437.25.719.671.28.407.406.938.125.516.125 1.047m6.062 7.14q0 .282-.031.735-.015.453-.125.89a2.1 2.1 0 0 1-.344.735q-.234.312-.656.312-.577 0-.891-.375-.312-.375-.296-.937-.5.436-1.141.687-.625.25-1.281.25a1.8 1.8 0 0 1-.86-.218 2.7 2.7 0 0 1-.718-.563 2.8 2.8 0 0 1-.5-.766 2.2 2.2 0 0 1-.188-.859q0-.75.453-1.312a4.3 4.3 0 0 1 1.141-.954q.672-.406 1.422-.64a8.5 8.5 0 0 1 1.359-.313v-.14a.6.6 0 0 0 .016-.141q0-.484-.266-.781-.265-.297-.75-.297-.39 0-.672.14a3.3 3.3 0 0 0-.531.297q-.25.157-.5.297a1.24 1.24 0 0 1-.563.125.87.87 0 0 1-.593-.218.73.73 0 0 1-.235-.563q0-.516.297-.937.312-.422.766-.704a4 4 0 0 1 1-.453 3.4 3.4 0 0 1 1-.172q.421 0 .844.11.421.093.796.312.375.203.672.516.313.297.5.703.282.578.453 1.234.173.64.266 1.329.094.67.125 1.359.031.672.031 1.312m-2.5-.5-.047-1.062h-.062a.14.14 0 0 0-.063-.016q-.203 0-.515.11a2.3 2.3 0 0 0-.578.28 2.3 2.3 0 0 0-.485.392.7.7 0 0 0-.187.453q0 .218.156.297a.8.8 0 0 0 .359.078q.344 0 .735-.172.39-.188.687-.36m10.453 1.235a.71.71 0 0 1-.265.547 2.5 2.5 0 0 1-.656.422q-.391.187-.907.312-.5.125-1 .203-.484.078-.922.11a7 7 0 0 1-.703.046q-.266 0-.75-.015a5 5 0 0 1-.937-.125 2.4 2.4 0 0 1-.813-.313.74.74 0 0 1-.343-.64q0-.313.218-.766a9 9 0 0 1 .563-.984q.344-.532.765-1.078.423-.563.829-1.079.406-.515.765-.937.36-.437.563-.719-.22.047-.563.14-.328.08-.687.157-.36.078-.703.14a4 4 0 0 1-.563.048q-.188 0-.422-.063a2.5 2.5 0 0 1-.453-.203 1.7 1.7 0 0 1-.359-.297.6.6 0 0 1-.141-.39q0-.282.25-.516.25-.25.656-.438a5 5 0 0 1 .907-.343q.5-.157.984-.25a8 8 0 0 1 1.625-.204q.297 0 .719.063.422.061.812.219.406.155.688.422a.9.9 0 0 1 .281.671 1 1 0 0 1-.031.235 3 3 0 0 1-.047.219q-.032.109-.281.5-.236.375-.594.906-.344.516-.766 1.125-.406.593-.781 1.125a114 114 0 0 0-1.031 1.484q.64-.172 1.297-.281a7 7 0 0 1 1.328-.125q.156 0 .406.016.25.015.484.093.235.063.407.203a.42.42 0 0 1 .171.36m6.86-1.313q0 .531-.344 1.047-.328.5-.844.906a5 5 0 0 1-1.078.641q-.577.234-1.062.234a2.77 2.77 0 0 1-1.485-.406 3.9 3.9 0 0 1-1.078-1.062 5.2 5.2 0 0 1-.672-1.407 5.6 5.6 0 0 1-.218-1.515q0-.781.218-1.672a6.1 6.1 0 0 1 .657-1.64q.453-.75 1.125-1.25.687-.5 1.625-.5.53 0 1.015.187a2.46 2.46 0 0 1 1.422 1.281q.219.453.219 1.016 0 .734-.313 1.375a3.6 3.6 0 0 1-.828 1.109 4.4 4.4 0 0 1-1.187.766 4 4 0 0 1-1.375.312q.062.453.359.656.312.204.734.204.313 0 .61-.157.296-.156.578-.343.281-.204.547-.36.281-.156.562-.156a.87.87 0 0 1 .563.203q.25.203.25.531m-2.531-3.828a.94.94 0 0 0-.11-.422.36.36 0 0 0-.344-.218.9.9 0 0 0-.578.187 1.4 1.4 0 0 0-.39.453 2.6 2.6 0 0 0-.25.578 3 3 0 0 0-.094.578q.219-.046.516-.125.312-.078.578-.203a1.6 1.6 0 0 0 .468-.343.66.66 0 0 0 .204-.485m7.593 7.047q-.265 0-.422-.25a1.7 1.7 0 0 1-.234-.547 4 4 0 0 1-.109-.625 11 11 0 0 1-.016-.5q0-.469.047-.937l.125-.938q.078-.469.125-.937a7 7 0 0 0 .062-.938q0-.187-.015-.406a1.7 1.7 0 0 0-.078-.406.67.67 0 0 0-.172-.328.45.45 0 0 0-.328-.125q-.14 0-.313.234a3.4 3.4 0 0 0-.328.516q-.14.28-.25.578a1.5 1.5 0 0 0-.094.422v.703q.016.343.016.703v.906q-.016.281-.047.578a5 5 0 0 1-.094.578q-.047.282-.14.547a1.8 1.8 0 0 1-.25.453q-.141.188-.344.313a.9.9 0 0 1-.484.125.7.7 0 0 1-.516-.203 1.5 1.5 0 0 1-.328-.516 3.6 3.6 0 0 1-.188-.719 26 26 0 0 1-.078-.781q-.015-.39-.015-.703.015-.328.015-.516v-.734q0-.594-.031-1.172-.016-.577-.016-1.156v-.797q.016-.485.125-.938a2.1 2.1 0 0 1 .36-.796q.25-.33.734-.329.219 0 .391.141.171.14.297.344.14.203.218.437.095.235.141.407.156-.22.359-.422.22-.204.485-.36a2.55 2.55 0 0 1 1.343-.343q.798 0 1.235.39.453.375.656.953.219.563.266 1.219t.047 1.188q0 .265-.047.796-.048.516-.157 1.157-.094.624-.265 1.297-.172.655-.406 1.203a3 3 0 0 1-.563.89q-.312.344-.719.344m9.766-10.719q0 1.14-.094 2.266-.078 1.125-.078 2.266 0 .92.047 1.828.063.906.062 1.828 0 .25-.015.61-.016.342-.11.671a1.3 1.3 0 0 1-.281.563q-.187.234-.547.234-.469 0-.781-.344a1.7 1.7 0 0 1-.375-.797 2.7 2.7 0 0 1-.859.953q-.563.39-1.219.391-.703 0-1.219-.484a4.3 4.3 0 0 1-.844-1.172 7 7 0 0 1-.5-1.438 6.5 6.5 0 0 1-.156-1.297 10 10 0 0 1 .203-1.906 8 8 0 0 1 .313-1q.187-.5.469-.89.296-.391.687-.625a1.8 1.8 0 0 1 .922-.235q.562 0 1.078.328.516.329.781.813l.141-2.485q.015-.297.047-.687.031-.406.125-.766.11-.36.328-.61t.641-.25q.453 0 .703.22.25.218.359.562.125.328.141.719.03.39.031.734m-2.547 6.938q0-.36-.016-.703-.015-.345 0-.703a8 8 0 0 0-.218-.438 2 2 0 0 0-.313-.453 1.6 1.6 0 0 0-.39-.36.85.85 0 0 0-.469-.14.6.6 0 0 0-.453.172 1 1 0 0 0-.25.422 2.5 2.5 0 0 0-.11.515 9 9 0 0 0-.015.485 7.3 7.3 0 0 0 .14 1.297q.094.374.25.656.156.28.422.281.204 0 .406-.078.204-.095.375-.219a3 3 0 0 0 .344-.297q.173-.171.297-.312zm6.547 3.797q-.797 0-1.391-.422a3.7 3.7 0 0 1-1-1.078 5.2 5.2 0 0 1-.609-1.453 6.5 6.5 0 0 1-.203-1.594q0-.828.203-1.703.203-.89.625-1.61.422-.734 1.078-1.187.656-.47 1.563-.469.875 0 1.484.484.625.47 1 1.188.375.703.531 1.547.156.843.11 1.594a8.6 8.6 0 0 1-.266 1.671 5.4 5.4 0 0 1-.609 1.516 3.5 3.5 0 0 1-1.032 1.094q-.624.422-1.484.422m.156-7.063q-.234 0-.422.25-.171.25-.297.61-.11.36-.171.765-.063.39-.063.688 0 .375.063.812.077.438.203.813.125.36.297.609.187.234.421.234.25 0 .422-.234.188-.234.297-.594.11-.36.156-.781.048-.437.047-.812 0-.345-.062-.75a4.3 4.3 0 0 0-.188-.782 1.8 1.8 0 0 0-.297-.593q-.171-.235-.406-.235m17.281 1.453v.813q0 .5-.031 1.094-.016.593-.094 1.203a5.3 5.3 0 0 1-.25 1.078 2.5 2.5 0 0 1-.406.797.78.78 0 0 1-.64.312.6.6 0 0 1-.532-.281 2.3 2.3 0 0 1-.25-.688 5 5 0 0 1-.093-.796v-.641q0-.703.046-1.375.048-.672.047-1.375V62.1q0-.203-.031-.407a1.2 1.2 0 0 0-.109-.359q-.063-.156-.203-.156-.282 0-.454.297a2.7 2.7 0 0 0-.281.672q-.11.39-.156.78-.047.375-.063.563-.03.204-.062.61-.016.405-.063.89-.03.485-.125 1-.078.5-.218.922-.126.406-.328.672-.204.266-.5.266a.65.65 0 0 1-.579-.328 2.4 2.4 0 0 1-.296-.766 6 6 0 0 1-.125-.89 20 20 0 0 1-.016-.704v-.516a9 9 0 0 0 .016-.515v-.36q0-.25-.016-.546 0-.313-.031-.641a5 5 0 0 0-.063-.594 1.5 1.5 0 0 0-.14-.453q-.094-.172-.219-.172-.204 0-.375.266-.173.25-.297.61-.125.343-.203.687-.063.344-.063.5v.094q0 .75.094 1.468.094.72.094 1.469 0 .438-.281.813-.281.36-.782.359a.76.76 0 0 1-.593-.266 2.3 2.3 0 0 1-.391-.718 6 6 0 0 1-.25-.954 12 12 0 0 1-.109-1.03 39 39 0 0 1-.047-.923v-.625q0-.234-.016-.687 0-.453.016-.985.03-.53.093-1.078.063-.562.204-1.015a2.3 2.3 0 0 1 .359-.735.73.73 0 0 1 .594-.297q.405 0 .656.22.266.218.266.655 0 .094-.016.188 0 .093-.016.172.172-.25.422-.5.25-.266.531-.469.298-.218.625-.344.328-.14.657-.14a.97.97 0 0 1 .562.172q.25.171.438.437.188.25.312.547.125.297.172.562.156-.281.375-.562.234-.297.5-.516.266-.218.578-.36.329-.14.672-.14a.77.77 0 0 1 .563.235q.234.234.406.609.172.36.265.828.094.453.157.906.061.438.078.829.015.374.015.593m7.875.688q0 .859-.171 1.703a4.7 4.7 0 0 1-.579 1.516q-.405.655-1.093 1.062-.672.406-1.688.406-1 0-1.672-.39a3.2 3.2 0 0 1-1.078-1.063 4.8 4.8 0 0 1-.562-1.484 9 9 0 0 1-.157-1.688q0-.937.219-1.86.047-.249.172-.687.14-.453.344-.875.219-.436.484-.75.282-.312.61-.312.312 0 .5.172.187.171.296.437.11.251.141.547.031.282.031.516 0 .36-.062.703a15 15 0 0 1-.11.687l-.125.938a9.5 9.5 0 0 0-.031 1.469q.032.281.125.547.094.266.266.453.172.172.484.172.407 0 .641-.22.25-.217.359-.546.125-.328.156-.703.032-.376.032-.688 0-.687-.094-1.343-.094-.672-.172-1.36a1.45 1.45 0 0 1 .063-.687 1.5 1.5 0 0 1 .218-.422q.141-.187.344-.297a.84.84 0 0 1 .453-.125q.343 0 .61.25.265.234.437.625.188.374.297.86.125.468.187.937.079.453.094.86.031.406.031.64m3.532-6.438a.65.65 0 0 1-.125.39 1.2 1.2 0 0 1-.297.313 2 2 0 0 1-.406.204 1.5 1.5 0 0 1-.407.062.97.97 0 0 1-.547-.156q-.234-.156-.234-.485a.74.74 0 0 1 .109-.406q.126-.188.297-.297a1.2 1.2 0 0 1 .391-.187q.218-.063.422-.063.297 0 .547.14.25.142.25.485m.125 5.313v.469q0 .234-.016.453-.016.265-.016.718 0 .438-.031.954a12 12 0 0 1-.109 1.046 4.4 4.4 0 0 1-.219.97 2 2 0 0 1-.422.718.9.9 0 0 1-.64.281.58.58 0 0 1-.5-.234 2.2 2.2 0 0 1-.344-.64 5.3 5.3 0 0 1-.188-.891 17 17 0 0 1-.093-.954 13 13 0 0 1-.032-.859v-1.281q0-.47.032-1 .03-.532.109-1.078.093-.547.25-1 .171-.454.437-.735a.88.88 0 0 1 .672-.281q.423 0 .641.422t.328.984.125 1.125q.016.547.016.813m4.75 6.156q-1.11 0-1.735-.297a2 2 0 0 1-.922-.812q-.296-.532-.359-1.282-.062-.75-.062-1.671 0-.735.046-1.47.048-.75.141-1.593-.219 0-.344.016h-.203a1.6 1.6 0 0 1-.859-.22q-.375-.218-.375-.671 0-.28.219-.5a1.7 1.7 0 0 1 .531-.375q.328-.156.703-.25.39-.093.734-.125 0-.438.063-.969.062-.531.219-.984.171-.47.453-.781a.92.92 0 0 1 .718-.313q.25 0 .438.156.203.142.328.375a1.8 1.8 0 0 1 .188.5q.062.282.062.547 0 .313-.047.64-.046.33-.172.813a4 4 0 0 1 .36-.03q.093-.016.172-.016.265 0 .546.046.297.048.532.157.25.109.406.297a.6.6 0 0 1 .156.421.67.67 0 0 1-.234.5q-.22.219-.563.375a4 4 0 0 1-.734.25 7 7 0 0 1-.734.11q-.095.64-.141 1.187-.032.531-.078 1.078l-.063.547q-.015.266-.015.547 0 .203.015.484.016.267.11.516.093.25.297.438.202.172.562.172.219 0 .453-.032.234-.047.469-.047.406 0 .578.282.188.281.188.718a.9.9 0 0 1-.204.579 1.35 1.35 0 0 1-.484.374 2.6 2.6 0 0 1-.672.235 3.2 3.2 0 0 1-.687.078m5.328-.11q-.797 0-1.391-.421a3.7 3.7 0 0 1-1-1.078 5.2 5.2 0 0 1-.609-1.453 6.5 6.5 0 0 1-.203-1.594q0-.828.203-1.703.203-.89.625-1.61.421-.734 1.078-1.187.656-.47 1.562-.469.876 0 1.485.484.624.47 1 1.188.375.703.531 1.547a6.5 6.5 0 0 1 .109 1.594 8.6 8.6 0 0 1-.265 1.671 5.3 5.3 0 0 1-.61 1.516q-.405.672-1.031 1.094t-1.484.422m.156-7.062q-.234 0-.422.25-.171.25-.297.61-.11.36-.172.765-.062.39-.062.688 0 .375.062.812.078.438.204.813.125.36.296.609.188.234.422.234.25 0 .422-.234.188-.234.297-.594.11-.36.156-.781.048-.437.047-.812 0-.345-.062-.75a4.3 4.3 0 0 0-.188-.782 1.8 1.8 0 0 0-.297-.593q-.171-.235-.406-.235m14.391-1.453q0 .25-.094.531-.094.266-.234.547t-.297.547q-.157.25-.282.469-.312.5-.625 1.015-.297.516-.609 1.016l.391.61q.25.39.484.828.25.42.422.843.171.422.172.719 0 .282-.219.547a.67.67 0 0 1-.531.266q-.329 0-.672-.235a6 6 0 0 1-.656-.547 8 8 0 0 1-.578-.672q-.267-.36-.454-.593-.202.218-.531.593-.312.375-.687.735-.36.36-.719.625-.36.25-.641.25a.62.62 0 0 1-.515-.235.85.85 0 0 1-.188-.546q0-.314.203-.797.22-.485.5-1 .297-.516.578-.985.297-.468.454-.734a26 26 0 0 1-.391-.734 21 21 0 0 1-.453-.97 17 17 0 0 1-.36-1 3.2 3.2 0 0 1-.14-.827q0-.36.219-.578.218-.22.578-.22.39 0 .734.313.344.297.641.735.297.421.515.89.236.453.375.75.188-.281.516-.765.343-.485.766-.953.421-.47.875-.813.453-.345.859-.344.266 0 .422.235a.77.77 0 0 1 .172.484m3.047-2.844a.65.65 0 0 1-.125.39 1.2 1.2 0 0 1-.297.313 2 2 0 0 1-.407.204 1.5 1.5 0 0 1-.406.062.97.97 0 0 1-.547-.156q-.234-.156-.234-.485a.74.74 0 0 1 .109-.406q.126-.188.297-.297a1.2 1.2 0 0 1 .391-.187q.219-.063.422-.063.297 0 .547.14.25.142.25.485m.125 5.313v.469q0 .234-.016.453-.016.265-.016.718 0 .438-.031.954a12 12 0 0 1-.109 1.046 4.4 4.4 0 0 1-.219.97 2 2 0 0 1-.422.718.9.9 0 0 1-.641.281.58.58 0 0 1-.5-.234 2.2 2.2 0 0 1-.343-.64 5.3 5.3 0 0 1-.188-.891 17 17 0 0 1-.094-.954q-.03-.469-.031-.859v-1.281q0-.47.031-1 .032-.532.11-1.078.094-.547.25-1 .171-.454.437-.735a.88.88 0 0 1 .672-.281q.422 0 .641.422t.328.984.125 1.125q.015.547.016.813m7.703-2.469q0 .25-.094.531-.094.266-.234.547t-.297.547q-.157.25-.282.469-.312.5-.625 1.015-.297.516-.609 1.016l.391.61q.25.39.484.828.25.42.422.843.171.422.172.719 0 .282-.219.547a.67.67 0 0 1-.531.266q-.329 0-.672-.235a6 6 0 0 1-.656-.547 8 8 0 0 1-.578-.672q-.267-.36-.454-.593-.202.218-.531.593-.312.375-.687.735-.36.36-.719.625-.36.25-.641.25a.62.62 0 0 1-.515-.235.85.85 0 0 1-.188-.546q0-.314.203-.797.22-.485.5-1 .297-.516.578-.985.297-.468.454-.734a26 26 0 0 1-.391-.734 21 21 0 0 1-.453-.97 17 17 0 0 1-.36-1 3.2 3.2 0 0 1-.14-.827q0-.36.219-.578.218-.22.578-.22.39 0 .734.313.344.297.641.735.297.421.515.89.236.453.375.75.188-.281.516-.765.343-.485.766-.953.421-.47.875-.813.453-.345.859-.344.266 0 .422.235a.77.77 0 0 1 .172.484m3.047-2.844a.65.65 0 0 1-.125.39 1.2 1.2 0 0 1-.297.313 2 2 0 0 1-.407.204 1.5 1.5 0 0 1-.406.062.97.97 0 0 1-.547-.156q-.234-.156-.234-.485a.74.74 0 0 1 .109-.406q.126-.188.297-.297a1.2 1.2 0 0 1 .391-.187q.219-.063.422-.063.297 0 .547.14.25.142.25.485m.125 5.313v.469q0 .234-.016.453-.016.265-.016.718 0 .438-.031.954a12 12 0 0 1-.109 1.046 4.4 4.4 0 0 1-.219.97 2 2 0 0 1-.422.718.9.9 0 0 1-.641.281.58.58 0 0 1-.5-.234 2.2 2.2 0 0 1-.343-.64 5.3 5.3 0 0 1-.188-.891 17 17 0 0 1-.094-.954q-.03-.469-.031-.859v-1.281q0-.47.031-1 .032-.532.11-1.078.094-.547.25-1 .171-.454.437-.735a.88.88 0 0 1 .672-.281q.422 0 .641.422t.328.984.125 1.125q.015.547.016.813M61.804 88.85q-.797 0-1.391-.422a3.7 3.7 0 0 1-1-1.078 5.2 5.2 0 0 1-.61-1.453 6.6 6.6 0 0 1-.203-1.594q0-.828.204-1.703a5.6 5.6 0 0 1 .625-1.61q.42-.735 1.078-1.187.656-.47 1.562-.469.875 0 1.485.484.625.47 1 1.188.375.703.53 1.547.157.843.11 1.594a8.6 8.6 0 0 1-.265 1.671 5.3 5.3 0 0 1-.61 1.516q-.405.672-1.031 1.094t-1.484.422m.156-7.063q-.234 0-.422.25-.172.25-.297.61-.11.36-.172.765-.062.39-.062.688 0 .374.062.812.078.438.203.813.126.36.297.609.188.234.422.234.25 0 .422-.234.187-.234.297-.594t.156-.781q.047-.437.047-.812 0-.345-.062-.75a4.3 4.3 0 0 0-.188-.782 1.8 1.8 0 0 0-.297-.593q-.172-.235-.406-.235m10.875 2.14a8.5 8.5 0 0 1-.172 1.704 4.7 4.7 0 0 1-.578 1.516q-.405.655-1.094 1.062-.672.406-1.687.406-1 0-1.672-.39a3.2 3.2 0 0 1-1.078-1.063 4.8 4.8 0 0 1-.563-1.484 9 9 0 0 1-.156-1.688q0-.938.219-1.86.046-.249.171-.687.141-.453.344-.875a3.7 3.7 0 0 1 .485-.75q.28-.312.609-.312.312 0 .5.172t.297.437q.11.251.14.547.032.282.032.516 0 .36-.063.703-.046.344-.11.687-.06.469-.124.938a9.4 9.4 0 0 0-.031 1.469q.03.281.125.547.093.266.265.453.172.172.485.172.405 0 .64-.22.25-.217.36-.546.124-.328.156-.703.03-.376.031-.688a9.5 9.5 0 0 0-.094-1.343q-.094-.672-.172-1.36a1.5 1.5 0 0 1 .063-.687q.078-.235.219-.422.14-.188.343-.297a.85.85 0 0 1 .454-.125q.343 0 .609.25.266.234.438.625.187.374.296.86.126.468.188.937.078.453.094.86.03.405.03.64m9.297-4.124q0 .453-.313.672a6 6 0 0 1-.672.422q-.375.186-.687.453-.297.265-.297.797 0 .28.125.484.14.203.328.375.203.156.438.328t.421.39q.204.219.329.532.14.312.14.766 0 .656-.344 1.296a4.3 4.3 0 0 1-.859 1.125 4.3 4.3 0 0 1-1.172.782q-.656.297-1.297.297-.266 0-.53-.047a1.5 1.5 0 0 1-.485-.141 1.05 1.05 0 0 1-.344-.297.9.9 0 0 1-.14-.516q0-.437.171-.671.172-.25.438-.391.265-.141.562-.219.313-.078.578-.187.266-.126.438-.313.172-.188.172-.531 0-.328-.266-.672-.25-.36-.562-.75a8 8 0 0 1-.579-.86 2.04 2.04 0 0 1-.25-1q.001-.671.266-1.234.282-.577.734-1 .47-.421 1.063-.656.594-.25 1.25-.25.25 0 .484.047.25.046.438.172a.8.8 0 0 1 .297.312.86.86 0 0 1 .125.485m7.172 5.812q0 .531-.344 1.047-.328.5-.844.906-.5.39-1.078.641-.578.234-1.062.234a2.76 2.76 0 0 1-1.485-.406 3.9 3.9 0 0 1-1.078-1.062 5.2 5.2 0 0 1-.672-1.407 5.6 5.6 0 0 1-.219-1.515q0-.781.22-1.672.218-.89.655-1.64a4.3 4.3 0 0 1 1.125-1.25q.688-.5 1.625-.5.532 0 1.016.187a2.45 2.45 0 0 1 1.422 1.281q.219.453.219 1.016 0 .735-.313 1.375a3.6 3.6 0 0 1-.828 1.109q-.516.47-1.187.766a4 4 0 0 1-1.376.312q.063.452.36.656.312.204.734.204.313 0 .61-.157.296-.156.578-.343.281-.204.547-.36.281-.156.562-.156a.87.87 0 0 1 .563.203q.25.203.25.531m-2.532-3.828a.94.94 0 0 0-.109-.422.36.36 0 0 0-.344-.218.9.9 0 0 0-.578.187 1.4 1.4 0 0 0-.39.453q-.157.266-.25.578a3 3 0 0 0-.094.578q.218-.046.515-.125.313-.078.578-.203.281-.14.47-.343a.66.66 0 0 0 .202-.485m7.594 7.047q-.266 0-.422-.25a1.7 1.7 0 0 1-.234-.547 4.4 4.4 0 0 1-.11-.625q-.015-.328-.015-.5 0-.469.047-.937l.125-.938q.078-.469.125-.937.062-.469.062-.938 0-.187-.015-.406a1.7 1.7 0 0 0-.079-.406.66.66 0 0 0-.171-.328.44.44 0 0 0-.329-.126q-.14 0-.312.235a3.4 3.4 0 0 0-.328.516 6 6 0 0 0-.25.578 1.5 1.5 0 0 0-.094.422v.703q.016.343.016.703v.906q-.015.281-.047.578-.03.296-.094.578-.047.282-.14.547a1.7 1.7 0 0 1-.25.453q-.141.188-.344.313a.9.9 0 0 1-.485.125.7.7 0 0 1-.515-.203 1.5 1.5 0 0 1-.328-.516 3.6 3.6 0 0 1-.188-.719q-.047-.406-.078-.781-.016-.39-.016-.703.016-.328.016-.516v-.734q0-.594-.031-1.172-.016-.577-.016-1.156v-.797q.015-.485.125-.938.11-.468.36-.796.25-.33.734-.329a.6.6 0 0 1 .39.141q.172.14.297.344.14.203.22.437.093.235.14.407.156-.22.36-.422.218-.204.483-.36a2.55 2.55 0 0 1 1.344-.343q.797 0 1.235.39.453.375.656.953.218.563.266 1.219.046.656.046 1.188 0 .265-.047.796-.046.516-.156 1.157-.093.624-.265 1.297-.172.655-.407 1.203a3 3 0 0 1-.562.89q-.312.344-.719.344m6.672.125q-1.11 0-1.734-.297a2 2 0 0 1-.922-.812q-.297-.532-.36-1.282-.062-.75-.062-1.671 0-.735.047-1.47.047-.75.14-1.593-.218 0-.343.016H97.6q-.5 0-.859-.22-.375-.218-.375-.671 0-.28.219-.5.203-.218.531-.375.328-.156.703-.25.39-.093.735-.125 0-.438.062-.969a4.7 4.7 0 0 1 .219-.984q.172-.47.453-.781a.92.92 0 0 1 .719-.313q.25 0 .437.156.204.142.328.375.126.22.188.5.063.282.062.547 0 .313-.046.64-.048.33-.172.813.266-.03.359-.03.094-.016.172-.016.265 0 .547.046.297.048.531.157.25.11.406.297a.6.6 0 0 1 .157.421.67.67 0 0 1-.235.5q-.219.219-.562.375-.344.157-.735.25-.39.078-.734.11-.094.64-.141 1.187-.031.531-.078 1.078-.032.266-.062.547a9 9 0 0 0 0 1.032q.016.265.109.515.094.25.297.438.203.172.562.172.219 0 .454-.032.234-.047.468-.047.407 0 .578.282.188.281.188.718a.9.9 0 0 1-.203.579 1.35 1.35 0 0 1-.485.374 2.6 2.6 0 0 1-.671.235q-.36.078-.688.078m4.938-11.469a.65.65 0 0 1-.125.39 1.2 1.2 0 0 1-.297.313 2 2 0 0 1-.407.204 1.5 1.5 0 0 1-.406.062.97.97 0 0 1-.547-.156q-.234-.156-.234-.485a.74.74 0 0 1 .109-.406q.126-.188.297-.297a1.2 1.2 0 0 1 .391-.187q.219-.063.422-.063.297 0 .547.14.25.142.25.485m.125 5.313v.469q0 .234-.016.453-.016.265-.016.718 0 .438-.031.954a12 12 0 0 1-.109 1.046 4.4 4.4 0 0 1-.219.97 2 2 0 0 1-.422.718.9.9 0 0 1-.641.281.58.58 0 0 1-.5-.234 2.2 2.2 0 0 1-.343-.64 5.3 5.3 0 0 1-.188-.891 17 17 0 0 1-.094-.954q-.03-.469-.031-.859v-1.281q0-.47.031-1 .032-.531.11-1.078.093-.547.25-1 .171-.453.437-.735a.88.88 0 0 1 .672-.281q.422 0 .641.422t.328.984.125 1.125q.016.547.016.813m5.546 6.031q-.265 0-.421-.25a1.7 1.7 0 0 1-.235-.547 4.4 4.4 0 0 1-.109-.625 11 11 0 0 1-.016-.5q0-.469.047-.937l.125-.938q.078-.469.125-.937a7 7 0 0 0 .063-.938q0-.187-.016-.406a1.7 1.7 0 0 0-.078-.406.66.66 0 0 0-.172-.328.44.44 0 0 0-.328-.126q-.14 0-.313.235a3.4 3.4 0 0 0-.328.516q-.14.28-.25.578a1.5 1.5 0 0 0-.094.422v.703q.016.343.016.703v.906q-.015.281-.047.578a5 5 0 0 1-.094.578q-.047.282-.14.547a1.8 1.8 0 0 1-.25.453q-.141.188-.344.313a.9.9 0 0 1-.484.125.7.7 0 0 1-.516-.203 1.5 1.5 0 0 1-.328-.516 3.7 3.7 0 0 1-.188-.719 26 26 0 0 1-.078-.781q-.015-.39-.015-.703.015-.328.015-.516v-.734q0-.594-.031-1.172-.016-.577-.016-1.156v-.797q.016-.485.125-.938a2.1 2.1 0 0 1 .36-.796q.25-.33.734-.329.219 0 .391.141.171.14.297.344.14.203.218.437.094.235.141.407.156-.22.359-.422.22-.204.485-.36a2.54 2.54 0 0 1 1.344-.343q.796 0 1.234.39.453.375.656.953.22.563.266 1.219t.047 1.188q0 .265-.047.796-.047.516-.156 1.157-.095.624-.266 1.297-.172.655-.406 1.203a3 3 0 0 1-.563.89q-.312.344-.719.344m9.766-10.719q0 1.14-.094 2.266-.078 1.125-.078 2.266 0 .92.047 1.828.063.906.063 1.828 0 .25-.016.61a3 3 0 0 1-.109.671 1.3 1.3 0 0 1-.282.563q-.187.234-.547.234-.468 0-.781-.344a1.7 1.7 0 0 1-.375-.797 2.7 2.7 0 0 1-.859.953q-.562.39-1.219.391-.703 0-1.219-.484a4.3 4.3 0 0 1-.843-1.172 7 7 0 0 1-.5-1.438 6.4 6.4 0 0 1-.157-1.297 10 10 0 0 1 .203-1.906 8 8 0 0 1 .313-1q.187-.5.469-.89.297-.391.687-.626a1.8 1.8 0 0 1 .922-.234q.562 0 1.078.328t.781.813l.141-2.485q.015-.297.047-.687.031-.406.125-.766.11-.359.328-.61.218-.25.641-.25.453 0 .703.22.25.218.359.562.124.328.141.719.031.39.031.734m-2.547 6.938q0-.36-.015-.703a8 8 0 0 1 0-.703 9 9 0 0 0-.219-.438 2 2 0 0 0-.313-.453 1.6 1.6 0 0 0-.39-.36.85.85 0 0 0-.469-.14.6.6 0 0 0-.453.172 1 1 0 0 0-.25.422 2.5 2.5 0 0 0-.11.515 9 9 0 0 0-.015.485 7.3 7.3 0 0 0 .14 1.297q.094.374.25.656.157.28.422.281.203 0 .407-.078.203-.095.375-.219.187-.141.343-.297.172-.171.297-.312zm6.547 3.797q-.797 0-1.391-.422a3.7 3.7 0 0 1-1-1.078 5.2 5.2 0 0 1-.609-1.453 6.6 6.6 0 0 1-.203-1.594q0-.828.203-1.703.203-.89.625-1.61.422-.735 1.078-1.187.656-.47 1.563-.469.875 0 1.484.484.625.47 1 1.188.375.703.531 1.547.156.843.11 1.594a8.6 8.6 0 0 1-.266 1.671 5.3 5.3 0 0 1-.609 1.516 3.5 3.5 0 0 1-1.032 1.094q-.624.422-1.484.422m.156-7.063q-.234 0-.422.25-.171.25-.296.61-.11.36-.172.765-.063.39-.063.688 0 .374.063.812.078.438.203.813.124.36.297.609.187.234.422.234.25 0 .421-.234.188-.234.297-.594.11-.36.157-.781.046-.437.046-.812 0-.345-.062-.75a4.3 4.3 0 0 0-.188-.782 1.8 1.8 0 0 0-.296-.593q-.172-.235-.407-.235m10.766 7.063q-.797 0-1.391-.422a3.7 3.7 0 0 1-1-1.078 5.2 5.2 0 0 1-.609-1.453 6.5 6.5 0 0 1-.203-1.594q0-.828.203-1.703.203-.89.625-1.61.422-.735 1.078-1.187.656-.47 1.563-.469.875 0 1.484.484.625.47 1 1.188.375.703.531 1.547.156.843.11 1.594a8.6 8.6 0 0 1-.266 1.671 5.4 5.4 0 0 1-.609 1.516 3.5 3.5 0 0 1-1.032 1.094q-.624.422-1.484.422m.156-7.063q-.234 0-.422.25-.171.25-.297.61-.11.36-.171.765-.063.39-.063.688 0 .374.063.812.077.438.203.813.124.36.297.609.187.234.421.234.25 0 .422-.234.188-.234.297-.594.11-.36.156-.781.048-.437.047-.812 0-.345-.062-.75a4.3 4.3 0 0 0-.188-.782 1.8 1.8 0 0 0-.297-.593q-.172-.235-.406-.235m13.594.61q0 .078-.016.171a1 1 0 0 1-.047.157 1.5 1.5 0 0 1-.437.609 1.1 1.1 0 0 1-.703.234q-.61 0-.828-.609a.5.5 0 0 1-.032-.172q0-.11-.015-.219v-.453a.9.9 0 0 0-.11-.343q-.078-.126-.265-.126-.265 0-.516.344a3.8 3.8 0 0 0-.422.797 7 7 0 0 0-.281.938 3.7 3.7 0 0 0-.109.78q0 .236.031.579.031.328.125.64.093.313.25.547.171.22.437.22a.8.8 0 0 0 .485-.157q.234-.172.453-.39.203-.189.437-.391a.87.87 0 0 1 .563-.203q.39 0 .609.28a.97.97 0 0 1 .235.642q0 .53-.282 1a3.2 3.2 0 0 1-.703.796q-.421.33-.937.516a2.7 2.7 0 0 1-.985.203q-.843 0-1.437-.422a3.3 3.3 0 0 1-.938-1.062 5 5 0 0 1-.515-1.422 7.3 7.3 0 0 1-.156-1.453q0-.797.218-1.719.219-.937.672-1.734a4.3 4.3 0 0 1 1.156-1.328q.72-.532 1.704-.532.61 0 1.046.266.453.265.735.703.297.422.437.953.157.531.157 1.047v.156a1 1 0 0 1-.016.157m3.844 6.453q-.798 0-1.391-.422a3.7 3.7 0 0 1-1-1.078 5.2 5.2 0 0 1-.609-1.453 6.5 6.5 0 0 1-.203-1.594q0-.828.203-1.703.202-.89.625-1.61.421-.735 1.078-1.187.656-.47 1.562-.469.875 0 1.485.484.625.47 1 1.188.375.703.531 1.547a6.5 6.5 0 0 1 .109 1.594 8.6 8.6 0 0 1-.265 1.671 5.3 5.3 0 0 1-.61 1.516 3.5 3.5 0 0 1-1.031 1.094q-.625.422-1.484.422m.156-7.063q-.234 0-.422.25-.173.25-.297.61-.11.36-.172.765-.062.39-.062.688 0 .374.062.812.078.438.203.813.126.36.297.609.188.234.422.234.25 0 .422-.234.188-.234.297-.594.11-.36.156-.781a8 8 0 0 0 .047-.812q0-.345-.062-.75a4.3 4.3 0 0 0-.188-.782 1.8 1.8 0 0 0-.297-.593q-.172-.235-.406-.235m9.453.766q-.219.015-.375-.031l-.312-.126a3 3 0 0 0-.282-.109.6.6 0 0 0-.312-.047q-.313.016-.563.172a2.2 2.2 0 0 0-.437.39 2.7 2.7 0 0 0-.328.532 3 3 0 0 0-.219.563 4 4 0 0 0-.078.578 19 19 0 0 0-.016.812q-.015.453-.015.86t-.032.64q-.015.25-.078.594a2.6 2.6 0 0 1-.203.625 1.4 1.4 0 0 1-.344.5.8.8 0 0 1-.562.203.75.75 0 0 1-.469-.156 1.4 1.4 0 0 1-.328-.406 4 4 0 0 1-.219-.61 8 8 0 0 1-.125-.703q-.047-.375-.078-.75-.015-.375-.031-.703v-.625q.015-.282.015-.453-.015-.548-.062-1.094a20 20 0 0 1-.031-1.11q0-.343.031-.765t.172-.781a1.6 1.6 0 0 1 .406-.625q.282-.25.766-.25.266 0 .453.172.188.171.297.422.124.25.187.53.063.282.078.516.376-.609.844-.984.47-.39 1.219-.422.375-.015.734.078.375.078.672.282.312.186.5.5.202.312.219.734.031.5-.297.766-.328.265-.797.28m8.484 1.187q0 .688-.156 1.516a5.3 5.3 0 0 1-.5 1.516 3.4 3.4 0 0 1-.922 1.171q-.562.47-1.422.47-.217 0-.453-.032a2.2 2.2 0 0 1-.453-.11 1.7 1.7 0 0 1-.375-.203.9.9 0 0 1-.265-.359l-.141 2.25q-.016.36-.031.86 0 .499-.125.953a1.7 1.7 0 0 1-.391.765q-.265.328-.781.328-.297 0-.5-.312a2.5 2.5 0 0 1-.328-.766 9 9 0 0 1-.172-1.047 14 14 0 0 1-.078-1.11 31 31 0 0 1-.016-.968v-.64q0-1.047-.016-2.079-.015-1.046-.015-2.093v-.578q0-.406.031-.876.031-.468.094-.968.078-.501.219-.906.14-.423.359-.672a.67.67 0 0 1 .531-.266q.203 0 .36.125a.86.86 0 0 1 .281.297q.125.172.203.375t.125.375q.485-.547 1.109-.828.64-.282 1.36-.281.75 0 1.218.421.484.422.75 1.047.282.626.391 1.344.11.703.109 1.281m-2.234-.125q0-.234-.047-.468a1.3 1.3 0 0 0-.14-.454.77.77 0 0 0-.282-.343.76.76 0 0 0-.468-.141q-.375 0-.797.25a1.75 1.75 0 0 0-.61.547q-.078.125-.093.406a8 8 0 0 0-.016.422v.297l.031.36.031.359a1 1 0 0 0 .079.265.6.6 0 0 0 .203.266q.156.109.343.203t.375.14q.203.047.344.047a.65.65 0 0 0 .531-.25q.204-.25.313-.593.124-.345.156-.703.047-.375.047-.61m6.156 5.235q-.797 0-1.39-.422a3.7 3.7 0 0 1-1-1.078 5.2 5.2 0 0 1-.61-1.453 6.6 6.6 0 0 1-.203-1.594q0-.828.203-1.703.204-.89.625-1.61.423-.735 1.078-1.187.657-.47 1.563-.469.875 0 1.484.484.625.47 1 1.188.375.703.532 1.547a6.5 6.5 0 0 1 .109 1.594 8.6 8.6 0 0 1-.266 1.671 5.3 5.3 0 0 1-.609 1.516 3.5 3.5 0 0 1-1.031 1.094q-.625.422-1.485.422m.157-7.063q-.235 0-.422.25-.172.25-.297.61-.11.36-.172.765-.063.39-.063.688 0 .374.063.812.078.438.203.813.124.36.297.609.188.234.422.234.25 0 .422-.234.188-.234.297-.594t.156-.781a8 8 0 0 0 .047-.812q0-.345-.063-.75a4.4 4.4 0 0 0-.187-.782 1.8 1.8 0 0 0-.297-.593q-.172-.235-.406-.235m14.953 1.953q0 .688-.157 1.516a5.3 5.3 0 0 1-.5 1.516 3.4 3.4 0 0 1-.921 1.171q-.562.47-1.422.47-.219 0-.453-.032a2.2 2.2 0 0 1-.454-.11 1.7 1.7 0 0 1-.375-.203.9.9 0 0 1-.265-.359l-.141 2.25q-.015.36-.031.86 0 .499-.125.953a1.7 1.7 0 0 1-.391.765q-.265.328-.781.328-.297 0-.5-.312a2.5 2.5 0 0 1-.328-.766 9 9 0 0 1-.172-1.047 14 14 0 0 1-.078-1.11 31 31 0 0 1-.016-.968v-.64q0-1.047-.015-2.079-.016-1.046-.016-2.093v-.578q0-.406.031-.876.031-.468.094-.968.078-.501.219-.906.14-.423.359-.672a.67.67 0 0 1 .531-.266.56.56 0 0 1 .36.125.86.86 0 0 1 .281.297q.125.172.203.375t.125.375q.485-.547 1.11-.828.64-.282 1.359-.281.75 0 1.219.421.485.422.75 1.047.28.626.39 1.344.11.703.11 1.281m-2.235-.125q0-.234-.047-.468a1.3 1.3 0 0 0-.14-.454.77.77 0 0 0-.281-.343.76.76 0 0 0-.469-.141q-.375 0-.797.25a1.74 1.74 0 0 0-.609.547q-.08.125-.094.406a8 8 0 0 0-.016.422v.297q.016.171.031.36l.032.359a1 1 0 0 0 .078.265.6.6 0 0 0 .203.266q.156.109.344.203t.375.14q.203.047.343.047a.65.65 0 0 0 .532-.25 1.8 1.8 0 0 0 .312-.593q.125-.345.156-.703.048-.375.047-.61m9.735 2q0 .531-.344 1.047-.328.5-.844.906-.5.39-1.078.641-.578.234-1.062.234a2.76 2.76 0 0 1-1.485-.406 3.9 3.9 0 0 1-1.078-1.062 5.1 5.1 0 0 1-.672-1.407 5.6 5.6 0 0 1-.219-1.515q0-.781.219-1.672.22-.89.656-1.64.453-.75 1.125-1.25.688-.5 1.625-.5.532 0 1.016.187a2.46 2.46 0 0 1 1.422 1.281q.219.453.219 1.016a3.1 3.1 0 0 1-.313 1.375 3.6 3.6 0 0 1-.828 1.109 4.4 4.4 0 0 1-1.187.766 4 4 0 0 1-1.375.312q.062.452.359.656.312.204.734.204.313 0 .61-.157.297-.156.578-.343.281-.204.547-.36.281-.156.562-.156.312 0 .563.203t.25.531m-2.532-3.828a.94.94 0 0 0-.109-.422.36.36 0 0 0-.344-.218.9.9 0 0 0-.578.187 1.4 1.4 0 0 0-.39.453 2.6 2.6 0 0 0-.25.578 3 3 0 0 0-.094.578q.218-.046.515-.125a3 3 0 0 0 .579-.203 1.6 1.6 0 0 0 .468-.343.66.66 0 0 0 .203-.485m7.735-1.984q0 .453-.313.672a6 6 0 0 1-.672.422q-.375.186-.687.453-.297.265-.297.797a.9.9 0 0 0 .125.484q.14.203.328.375.203.156.438.328t.422.39q.202.219.328.532.14.312.14.766 0 .656-.343 1.296a4.3 4.3 0 0 1-.86 1.125 4.3 4.3 0 0 1-1.172.782q-.656.297-1.297.297-.266 0-.531-.047a1.5 1.5 0 0 1-.484-.141 1.04 1.04 0 0 1-.344-.297.9.9 0 0 1-.141-.516q0-.437.172-.671.173-.25.438-.391t.562-.219q.313-.078.578-.187a1.4 1.4 0 0 0 .438-.313q.171-.188.172-.531 0-.328-.266-.672-.25-.36-.562-.75a8 8 0 0 1-.578-.86 2.03 2.03 0 0 1-.25-1q0-.671.265-1.234.281-.577.735-1a3.5 3.5 0 0 1 1.062-.656 3.2 3.2 0 0 1 1.25-.25q.25 0 .484.047.25.046.438.172a.8.8 0 0 1 .297.312.86.86 0 0 1 .125.485m7.265 6.39q0 .282-.031.735-.015.453-.125.89a2.1 2.1 0 0 1-.344.735q-.234.312-.656.312-.578 0-.89-.375-.314-.375-.297-.937-.5.436-1.141.687-.625.25-1.281.25a1.8 1.8 0 0 1-.86-.218 2.7 2.7 0 0 1-.718-.563 2.8 2.8 0 0 1-.5-.766 2.2 2.2 0 0 1-.188-.859q0-.75.453-1.312a4.3 4.3 0 0 1 1.141-.954q.672-.406 1.422-.64a8.5 8.5 0 0 1 1.359-.313v-.14a.6.6 0 0 0 .016-.141q0-.484-.266-.781t-.75-.297q-.39 0-.672.14a3.3 3.3 0 0 0-.531.297q-.25.157-.5.297a1.24 1.24 0 0 1-.562.125.87.87 0 0 1-.594-.218.74.74 0 0 1-.235-.563q0-.516.297-.937.313-.422.766-.704a4 4 0 0 1 1-.453 3.4 3.4 0 0 1 1-.172q.421 0 .844.11.422.093.797.312.375.204.671.516.313.297.5.703.282.578.454 1.234.172.64.265 1.329.094.67.125 1.359.031.672.031 1.312m-2.5-.5-.046-1.062h-.063a.14.14 0 0 0-.062-.016q-.204 0-.516.11a2.3 2.3 0 0 0-.578.28 2.3 2.3 0 0 0-.485.392.7.7 0 0 0-.187.453q0 .218.156.297a.8.8 0 0 0 .36.078q.343 0 .734-.172.39-.188.687-.36m10.172-7.578q0 1.14-.093 2.266-.08 1.125-.079 2.266 0 .92.047 1.828.063.906.063 1.828 0 .25-.016.61-.015.342-.109.671a1.3 1.3 0 0 1-.281.563q-.188.234-.547.234-.469 0-.782-.344a1.7 1.7 0 0 1-.375-.797 2.7 2.7 0 0 1-.859.953q-.562.39-1.219.391a1.72 1.72 0 0 1-1.218-.484 4.3 4.3 0 0 1-.844-1.172 7 7 0 0 1-.5-1.438 6.5 6.5 0 0 1-.156-1.297q0-.39.046-.89.048-.5.157-1.016a8 8 0 0 1 .312-1q.187-.5.469-.89.297-.391.687-.626.407-.234.922-.234.563 0 1.078.328t.782.813l.14-2.485q.016-.297.047-.687.032-.406.125-.766.11-.359.328-.61.22-.25.641-.25.453 0 .703.22.25.218.359.562.126.328.141.719.031.39.031.734m-2.547 6.938q0-.36-.015-.703a8 8 0 0 1 0-.703 9 9 0 0 0-.219-.438 2 2 0 0 0-.312-.453 1.6 1.6 0 0 0-.391-.36.85.85 0 0 0-.469-.14.6.6 0 0 0-.453.172 1 1 0 0 0-.25.422 2.5 2.5 0 0 0-.109.515 8 8 0 0 0-.016.485q0 .187.031.562.032.36.11.734.093.376.25.657.156.28.422.281.202 0 .406-.078.202-.095.375-.219.187-.141.344-.297.171-.171.296-.312zm6.547 3.797q-.797 0-1.39-.422a3.7 3.7 0 0 1-1-1.078 5.2 5.2 0 0 1-.61-1.453 6.6 6.6 0 0 1-.203-1.594q0-.828.203-1.703.204-.89.625-1.61.423-.735 1.078-1.187.657-.47 1.563-.469.875 0 1.484.484.625.47 1 1.188.375.703.532 1.547a6.5 6.5 0 0 1 .109 1.594 8.6 8.6 0 0 1-.266 1.671 5.3 5.3 0 0 1-.609 1.516 3.5 3.5 0 0 1-1.031 1.094q-.625.422-1.485.422m.157-7.063q-.235 0-.422.25-.172.25-.297.61-.11.36-.172.765-.063.39-.063.688 0 .374.063.812.078.438.203.813.124.36.297.609.188.234.422.234.25 0 .422-.234.188-.234.297-.594t.156-.781a8 8 0 0 0 .047-.812q0-.345-.063-.75a4.4 4.4 0 0 0-.187-.782 1.8 1.8 0 0 0-.297-.593q-.172-.235-.406-.235m6.296 5.86q0 .203-.093.374a.9.9 0 0 1-.25.266q-.14.11-.328.172a1 1 0 0 1-.36.063q-.234 0-.515-.094a1.8 1.8 0 0 1-.5-.235 1.8 1.8 0 0 1-.375-.359.8.8 0 0 1-.157-.484q0-.423.36-.625.359-.22.734-.22.235 0 .484.079.266.078.485.234.234.141.375.36.14.202.14.469m2.891 0q0 .203-.094.374a.9.9 0 0 1-.25.266q-.14.11-.328.172a1 1 0 0 1-.359.063q-.234 0-.516-.094a1.8 1.8 0 0 1-.5-.235 1.8 1.8 0 0 1-.375-.359.8.8 0 0 1-.156-.484q0-.423.359-.625a1.4 1.4 0 0 1 1.219-.141q.266.078.484.234.236.141.375.36a.8.8 0 0 1 .141.469m2.891 0q0 .203-.094.374a.9.9 0 0 1-.25.266q-.14.11-.328.172a1 1 0 0 1-.36.063q-.234 0-.515-.094a1.8 1.8 0 0 1-.5-.235 1.8 1.8 0 0 1-.375-.359.8.8 0 0 1-.156-.484.67.67 0 0 1 .359-.625q.359-.22.734-.22.235 0 .485.079.265.078.484.234.234.141.375.36a.8.8 0 0 1 .141.469m-109.586 19.546q0 .282-.032.735-.015.453-.125.89a2.1 2.1 0 0 1-.343.735q-.235.312-.657.312-.578 0-.89-.375t-.297-.937a3.8 3.8 0 0 1-1.141.687q-.624.25-1.281.25-.453 0-.859-.219a2.7 2.7 0 0 1-.719-.562 2.9 2.9 0 0 1-.5-.766 2.2 2.2 0 0 1-.188-.859q0-.75.454-1.313a4.3 4.3 0 0 1 1.14-.953q.672-.405 1.422-.64a8.5 8.5 0 0 1 1.359-.313v-.14a.6.6 0 0 0 .016-.141q0-.484-.266-.781t-.75-.297q-.39 0-.671.14a3.4 3.4 0 0 0-.532.297q-.25.157-.5.297a1.2 1.2 0 0 1-.562.125.87.87 0 0 1-.594-.219.73.73 0 0 1-.234-.562q0-.516.297-.938.312-.421.765-.703a4 4 0 0 1 1-.453 3.4 3.4 0 0 1 1-.172q.422 0 .844.11.422.093.797.312.375.204.672.516.312.297.5.703.28.578.453 1.234.171.64.265 1.328.095.672.125 1.36.032.672.032 1.312m-2.5-.5-.047-1.062h-.063a.13.13 0 0 0-.062-.016q-.203 0-.516.11-.296.093-.578.281a2.3 2.3 0 0 0-.484.39.7.7 0 0 0-.188.454q0 .218.156.296a.8.8 0 0 0 .36.079q.344 0 .734-.172.391-.187.688-.36m7.078 3.266q-1.11 0-1.735-.297a2 2 0 0 1-.921-.812q-.297-.532-.36-1.282-.062-.75-.062-1.672 0-.734.047-1.468.047-.75.14-1.594-.219 0-.344.016h-.203a1.6 1.6 0 0 1-.859-.219q-.375-.219-.375-.672 0-.282.219-.5.203-.219.531-.375.328-.157.703-.25.391-.094.734-.125 0-.438.063-.969t.219-.984q.171-.47.453-.781a.92.92 0 0 1 .719-.313q.25 0 .437.156.204.142.328.375.125.22.188.5.062.282.062.547 0 .313-.047.64-.046.33-.172.813.266-.03.36-.031a1 1 0 0 1 .172-.016q.265 0 .547.047.297.048.531.157.25.109.406.296a.6.6 0 0 1 .156.422.67.67 0 0 1-.234.5 1.9 1.9 0 0 1-.563.375 4 4 0 0 1-.734.25q-.39.078-.734.11-.094.64-.141 1.187-.031.531-.078 1.078l-.063.547q-.015.266-.015.547 0 .204.015.484.016.266.11.516.093.25.297.438.203.171.562.171.219 0 .453-.031.235-.047.469-.047.407 0 .578.282.188.281.188.718a.9.9 0 0 1-.203.578 1.3 1.3 0 0 1-.485.375 2.5 2.5 0 0 1-.672.235 3.2 3.2 0 0 1-.687.078m8.906-3.344q0 .531-.344 1.047a3.8 3.8 0 0 1-.843.906 5 5 0 0 1-1.079.641q-.578.234-1.062.234a2.76 2.76 0 0 1-1.484-.406 3.9 3.9 0 0 1-1.079-1.062 5.2 5.2 0 0 1-.671-1.407 5.6 5.6 0 0 1-.219-1.515q0-.781.219-1.672a6.1 6.1 0 0 1 .656-1.641q.453-.75 1.125-1.25.687-.5 1.625-.5.532 0 1.015.188.485.171.844.5.36.328.578.781.219.453.219 1.016a3.1 3.1 0 0 1-.312 1.375 3.7 3.7 0 0 1-.829 1.109 4.4 4.4 0 0 1-1.187.766 4 4 0 0 1-1.375.312q.063.453.359.656.313.203.735.203.312 0 .609-.156t.578-.344q.282-.203.547-.359.281-.156.563-.156.312 0 .562.203a.65.65 0 0 1 .25.531m-2.531-3.828a.95.95 0 0 0-.11-.422.36.36 0 0 0-.343-.219.9.9 0 0 0-.578.188 1.4 1.4 0 0 0-.391.453q-.157.266-.25.578a3 3 0 0 0-.094.578q.219-.047.516-.125.312-.078.578-.203a1.6 1.6 0 0 0 .469-.344.66.66 0 0 0 .203-.484m7.594 7.047q-.266 0-.422-.25a1.7 1.7 0 0 1-.235-.547 4.4 4.4 0 0 1-.109-.625q-.016-.328-.016-.5 0-.469.047-.937l.125-.938q.078-.469.125-.937.063-.469.063-.938 0-.187-.016-.406a1.6 1.6 0 0 0-.078-.406.67.67 0 0 0-.172-.329.45.45 0 0 0-.328-.125q-.14 0-.313.235a3.6 3.6 0 0 0-.328.515 6 6 0 0 0-.25.579 1.5 1.5 0 0 0-.093.421v.704q.015.343.015.703v.906q-.015.28-.047.578-.03.297-.093.578-.048.282-.141.547a1.8 1.8 0 0 1-.25.453 1.2 1.2 0 0 1-.344.313.9.9 0 0 1-.484.125.7.7 0 0 1-.516-.203 1.5 1.5 0 0 1-.328-.516 3.6 3.6 0 0 1-.187-.719 23 23 0 0 1-.079-.781q-.015-.39-.015-.703a12 12 0 0 0 .015-.516v-.734q0-.594-.031-1.172-.015-.578-.015-1.156v-.797q.015-.485.125-.938.109-.468.359-.797.25-.328.734-.328a.6.6 0 0 1 .391.141q.172.14.297.344.141.203.219.437.093.234.14.406.156-.218.36-.421.218-.204.484-.36t.594-.25.75-.094q.796 0 1.234.391.453.375.656.953.22.562.266 1.219.047.656.047 1.187 0 .266-.047.797-.047.516-.156 1.157-.094.625-.266 1.296-.171.657-.406 1.204a3 3 0 0 1-.563.89q-.312.344-.718.344m7.89 1.859q0 .454-.219.844-.218.391-.562.688t-.781.468a2.3 2.3 0 0 1-.86.172q-.312 0-.64-.062a2 2 0 0 1-.594-.188 2 2 0 0 1-.484-.359 1.4 1.4 0 0 1-.329-.547.45.45 0 0 1-.046-.203.55.55 0 0 1 .187-.422.65.65 0 0 1 .422-.172q.203 0 .328.109l.297.266q.156.14.375.25.219.125.594.125a1 1 0 0 0 .593-.203.64.64 0 0 0 .282-.547.51.51 0 0 0-.172-.391 1.8 1.8 0 0 0-.375-.281l-.438-.25a.86.86 0 0 1-.328-.265q-.125-.173-.125-.5v-.75a2.2 2.2 0 0 1-1.078-.563 3.5 3.5 0 0 1-.703-1.016 5.4 5.4 0 0 1-.391-1.234 6.7 6.7 0 0 1-.125-1.25q0-.515.094-1.094.094-.578.281-1.14.188-.563.485-1.078t.687-.907q.406-.39.906-.625a2.7 2.7 0 0 1 1.141-.234q.563 0 .984.25.423.25.688.656.28.406.422.906.14.5.14 1 0 .126-.015.297a.9.9 0 0 1-.047.297 1.4 1.4 0 0 1-.406.547 1 1 0 0 1-.641.219q-.531 0-.734-.531a1.1 1.1 0 0 1-.047-.36q.015-.234-.016-.437a.8.8 0 0 0-.109-.375q-.094-.157-.328-.157-.282 0-.532.344a3.4 3.4 0 0 0-.437.797q-.187.469-.297.953a3.5 3.5 0 0 0-.109.75q0 .204.031.547.047.329.141.656.109.329.281.563a.58.58 0 0 0 .469.234.85.85 0 0 0 .515-.172q.235-.171.453-.375.219-.218.438-.39a.76.76 0 0 1 .484-.172.65.65 0 0 1 .531.25.85.85 0 0 1 .219.578q0 .406-.187.781-.188.36-.485.656t-.687.516q-.375.219-.766.313v.093q0 .095-.015.203a.4.4 0 0 1-.047.204q.25.093.547.25.297.171.546.39.25.234.422.5.172.281.172.578m8.172-4.5q0 .282-.031.735a4.3 4.3 0 0 1-.125.89 2.1 2.1 0 0 1-.344.735q-.234.312-.656.312-.578 0-.891-.375-.312-.375-.297-.937a3.8 3.8 0 0 1-1.14.687q-.625.25-1.282.25-.453 0-.859-.219a2.7 2.7 0 0 1-.719-.562 2.9 2.9 0 0 1-.5-.766 2.2 2.2 0 0 1-.187-.859q0-.75.453-1.313a4.3 4.3 0 0 1 1.141-.953q.672-.405 1.421-.64a8.5 8.5 0 0 1 1.36-.313v-.14a.6.6 0 0 0 .015-.141q0-.484-.265-.781-.266-.297-.75-.297-.392 0-.672.14a3.4 3.4 0 0 0-.531.297q-.25.157-.5.297a1.2 1.2 0 0 1-.563.125.87.87 0 0 1-.594-.219.73.73 0 0 1-.234-.562q0-.516.297-.938.313-.421.766-.703a4 4 0 0 1 1-.453 3.4 3.4 0 0 1 1-.172q.422 0 .843.11.423.093.797.312.375.204.672.516.312.297.5.703.282.578.453 1.234.172.64.266 1.328.093.672.125 1.36.031.672.031 1.312m-2.5-.5-.047-1.062h-.062a.13.13 0 0 0-.063-.016q-.203 0-.515.11a2.3 2.3 0 0 0-.579.281 2.3 2.3 0 0 0-.484.39.7.7 0 0 0-.187.454q0 .218.156.296a.8.8 0 0 0 .359.079q.344 0 .735-.172.39-.187.687-.36m1.891-8.937a1 1 0 0 1-.157.5 2.3 2.3 0 0 1-.39.469q-.234.203-.5.343a1.2 1.2 0 0 1-.5.125q-.234 0-.469-.078-.219-.093-.453-.203a4 4 0 0 0-.438-.187 1.1 1.1 0 0 0-.437-.094.64.64 0 0 0-.344.11 5 5 0 0 0-.359.218q-.187.109-.391.203a.8.8 0 0 1-.375.094.49.49 0 0 1-.406-.203.75.75 0 0 1-.156-.438.85.85 0 0 1 .187-.515 1.9 1.9 0 0 1 .469-.438 2.4 2.4 0 0 1 .578-.312q.313-.126.547-.125.266 0 .453.109.204.11.375.25t.344.25q.188.11.437.11a.7.7 0 0 0 .375-.11q.188-.125.36-.266.187-.156.343-.265a.6.6 0 0 1 .36-.125q.219 0 .375.187a.58.58 0 0 1 .172.39m4.515 12.094q-.796 0-1.39-.422a3.7 3.7 0 0 1-1-1.078 5.2 5.2 0 0 1-.61-1.454 6.6 6.6 0 0 1-.203-1.593q0-.828.203-1.703a5.7 5.7 0 0 1 .625-1.61 3.6 3.6 0 0 1 1.078-1.187q.657-.47 1.563-.469.875 0 1.484.484.625.47 1 1.188.375.703.532 1.547.156.843.109 1.593a8.5 8.5 0 0 1-.266 1.672 5.3 5.3 0 0 1-.609 1.516 3.5 3.5 0 0 1-1.031 1.094q-.626.422-1.485.422m.157-7.063q-.235 0-.422.25a2.5 2.5 0 0 0-.297.609q-.11.36-.172.766-.063.391-.063.688 0 .374.063.812.078.438.203.813.124.358.297.609.188.234.422.234.25 0 .422-.234.188-.234.297-.594.11-.359.156-.781.047-.438.047-.813 0-.344-.063-.75a4.3 4.3 0 0 0-.187-.781 1.8 1.8 0 0 0-.297-.594q-.172-.234-.406-.234m6.953.063q0 .249-.032.687-.03.422-.093.922a9 9 0 0 1-.188 1 7 7 0 0 1-.265.922q-.157.407-.375.672-.22.25-.5.25-.344 0-.594-.328a3.5 3.5 0 0 1-.406-.86 8 8 0 0 1-.25-1.172q-.095-.64-.141-1.25a27 27 0 0 1-.063-1.14v-1.516q0-.438.032-.922.047-.484.125-.953.094-.485.265-.875t.453-.625q.281-.25.704-.25.375 0 .609.328.25.314.391.828.156.501.218 1.125.079.625.094 1.235.031.594.016 1.109zm-.297 5.937a.9.9 0 0 1-.125.469 1.04 1.04 0 0 1-.328.312 1.4 1.4 0 0 1-.438.203 1.8 1.8 0 0 1-.469.063q-.343 0-.656-.188-.312-.172-.312-.562a.74.74 0 0 1 .125-.422q.14-.203.343-.344t.438-.218q.25-.079.469-.079.359 0 .656.188.297.172.297.578"/><defs><filter id="a" width="284.758" height="146.343" x="0" y="0" color-interpolation-filters="sRGB" filterUnits="userSpaceOnUse"><feFlood flood-opacity="0" result="BackgroundImageFix"/><feBlend in="SourceGraphic" in2="BackgroundImageFix" result="shape"/><feColorMatrix in="SourceAlpha" result="hardAlpha" values="0 0 0 0 0 0 0 0 0 0 0 0 0 0 0 0 0 0 127 0"/><feOffset dy="4"/><feGaussianBlur stdDeviation="2"/><feComposite in2="hardAlpha" k2="-1" k3="1" operator="arithmetic"/><feColorMatrix values="0 0 0 0 0 0 0 0 0 0 0 0 0 0 0 0 0 0 0.25 0"/><feBlend in2="shape" result="effect1_innerShadow_1137_1434"/></filter></defs></svg>