<svg xmlns="http://www.w3.org/2000/svg" width="301" height="170" fill="none" viewBox="0 0 301 170"><g filter="url(#a)"><path fill="#3dc3ff" fill-rule="evenodd" d="M52.81 82.83C49.546 76.607 48 69.965 48 63.125c0-22.058 21.423-43.85 56.862-54.624C122.051 3.276 142.246 1 165.45 1c71.044 0 136.561 22.506 133.764 62.126 0 19.659-12.125 37.736-36.82 48.529-16.455 7.19-38.24 10.784-66.648 10.784-50.355 3.518-88.439-2.366-112.79-13.598-8.07-3.721-14.63-8.03-19.797-12.781C46.068 100.497 27.695 98.037 1 94.123c23.894-2.363 40.11-4.34 51.81-11.294" clip-rule="evenodd"/></g><path fill="#3dc3ff" d="m52.81 82.83.511.86a1 1 0 0 0 .375-1.325zm52.052-74.328.291.957zm194.352 54.624-.997-.07-.003.07zm-36.82 48.529.4.916zm-66.648 10.784v-1l-.07.002zm-112.79-13.598-.42.908zM63.158 96.06l.677-.736a1 1 0 0 0-.928-.232zM1 94.123l-.098-.996a1 1 0 0 0-.047 1.985zm47-30.997h-1c0 6.995 1.583 13.797 4.925 20.168l.885-.465.886-.464C50.51 76.292 49 69.811 49 63.126zm56.862-54.624-.291-.957c-35.58 10.818-57.57 32.847-57.57 55.581h2c0-21.383 20.854-42.936 56.152-53.667zM165.45 1V0c-23.262 0-43.564 2.281-60.879 7.545l.291.957.291.957C122.215 4.27 142.305 2 165.45 2zm133.764 62.126.998.07c1.446-20.49-14.799-36.294-39.799-46.91C235.342 5.637 201.058 0 165.45 0v2c35.436 0 69.433 5.615 94.182 16.126 24.82 10.54 39.935 25.8 38.585 44.93zm-36.82 48.529.4.916c24.977-10.915 37.42-29.306 37.42-49.445h-2c0 19.179-11.808 36.943-36.221 47.612zm-66.648 10.784v1c28.478 0 50.418-3.6 67.048-10.868l-.4-.916-.401-.917c-16.278 7.114-37.909 10.701-66.247 10.701zm-112.79-13.598-.42.908c24.564 11.33 62.837 17.211 113.28 13.687l-.07-.997-.07-.998c-50.267 3.512-88.162-2.374-112.302-13.508zM63.158 96.06l-.677.736c5.255 4.832 11.907 9.196 20.054 12.953l.42-.908.418-.908c-7.99-3.685-14.46-7.94-19.538-12.61zm0 0-.251-.968c-16.858 4.377-35.014 1.963-61.763-1.959l-.145.99-.145.989c26.642 3.906 45.23 6.414 62.555 1.916zM1 94.123l.098.995c23.824-2.356 40.293-4.339 52.223-11.429l-.51-.86-.512-.86C40.831 88.786 24.866 90.76.902 93.128z"/><path fill="#fff" d="M93.088 37.297q0 .343-.031.984-.032.625-.125 1.39-.078.75-.235 1.548-.156.78-.406 1.422-.25.64-.61 1.062-.358.406-.859.406-.468 0-.86-.265a3.6 3.6 0 0 1-.702-.672 5.7 5.7 0 0 1-.547-.86 11 11 0 0 1-.39-.828 118 118 0 0 0-.657-1.562 42 42 0 0 1-.625-1.578v.437q0 .672-.016 1.344 0 .657-.093 1.313-.031.266-.079.624-.03.345-.109.688a2.6 2.6 0 0 1-.234.64.95.95 0 0 1-.39.438.7.7 0 0 1-.267.094q-.109.015-.25.047h-.046a.86.86 0 0 1-.61-.235 2.1 2.1 0 0 1-.422-.625 5 5 0 0 1-.28-.859 18 18 0 0 1-.157-.937 15 15 0 0 1-.078-1.485 25 25 0 0 1 .156-2.594q.11-.843.266-1.734.171-.89.437-1.61.265-.734.64-1.187.376-.468.876-.469.485 0 .86.375.39.375.687.891.296.516.5 1.078.203.563.343.938.266.735.516 1.468.25.72.484 1.47.016.03.063.171.047.14.11.313.062.187.156.421 0-.203-.016-.28v-.688l-.031-1.032v-1.625q.016-.39.046-.828.048-.453.126-.906t.218-.812q.158-.376.375-.61a.77.77 0 0 1 .563-.234q.39 0 .672.297.28.297.468.765.188.453.297 1.032.11.561.172 1.109.063.546.078 1.016.016.468.016.734m4 7.156q-.797 0-1.39-.422a3.7 3.7 0 0 1-1-1.078 5.2 5.2 0 0 1-.61-1.453 6.6 6.6 0 0 1-.203-1.594q0-.828.203-1.703a5.6 5.6 0 0 1 .625-1.61q.421-.734 1.078-1.187.656-.468 1.563-.468.875 0 1.484.484.625.468 1 1.187.375.705.531 1.547.156.844.11 1.594a8.6 8.6 0 0 1-.266 1.672 5.3 5.3 0 0 1-.61 1.516q-.406.671-1.03 1.093-.626.422-1.485.422m.156-7.062q-.234 0-.422.25-.171.25-.297.609a5.5 5.5 0 0 0-.172.766q-.062.39-.062.687 0 .375.063.813.078.437.203.812.125.36.296.61.189.234.422.234.25 0 .422-.234.188-.236.297-.594.11-.36.156-.782.047-.437.047-.812 0-.345-.062-.75a4.3 4.3 0 0 0-.188-.781 1.8 1.8 0 0 0-.297-.594q-.171-.234-.406-.234m12.375-1.985q0 .453-.312.672a6 6 0 0 1-.672.422q-.375.188-.688.453-.297.266-.297.797a.9.9 0 0 0 .125.484q.141.203.329.375.203.157.437.328t.422.391q.203.219.328.531.141.313.141.766 0 .657-.344 1.297a4.28 4.28 0 0 1-2.031 1.906q-.657.297-1.297.297-.265 0-.531-.047a1.5 1.5 0 0 1-.485-.14 1.05 1.05 0 0 1-.344-.297.9.9 0 0 1-.14-.516q0-.438.172-.672.171-.25.437-.39t.563-.22q.312-.077.578-.187.266-.124.437-.312.172-.187.172-.532 0-.327-.265-.671-.25-.36-.563-.75a8 8 0 0 1-.578-.86 2.03 2.03 0 0 1-.25-1q0-.672.266-1.234.28-.579.734-1 .469-.422 1.062-.656.594-.25 1.25-.25.25 0 .485.047.25.046.437.171a.8.8 0 0 1 .297.313.86.86 0 0 1 .125.484m7.172 5.813q0 .531-.344 1.047-.328.5-.843.906a5 5 0 0 1-1.079.64q-.578.235-1.062.235a2.76 2.76 0 0 1-1.484-.406 3.9 3.9 0 0 1-1.079-1.063 5.2 5.2 0 0 1-.671-1.406 5.6 5.6 0 0 1-.219-1.516q0-.78.219-1.672.218-.89.656-1.64.453-.75 1.125-1.25.687-.5 1.625-.5.53 0 1.015.187a2.45 2.45 0 0 1 1.422 1.282q.219.453.219 1.015 0 .735-.312 1.375a3.7 3.7 0 0 1-.829 1.11 4.4 4.4 0 0 1-1.187.765 4 4 0 0 1-1.375.313q.063.453.359.656.313.203.735.203.312 0 .609-.156a6 6 0 0 0 .578-.344q.282-.203.547-.36.282-.156.563-.156.312 0 .562.203a.65.65 0 0 1 .25.532m-2.531-3.828a.94.94 0 0 0-.11-.422.36.36 0 0 0-.343-.219.9.9 0 0 0-.578.188 1.4 1.4 0 0 0-.391.453q-.156.266-.25.578a3 3 0 0 0-.094.578q.219-.047.516-.125.312-.078.578-.203.281-.141.469-.344a.66.66 0 0 0 .203-.484m10 2.14q0 .859-.172 1.703a4.7 4.7 0 0 1-.578 1.516 3.15 3.15 0 0 1-1.094 1.063q-.672.405-1.687.406-1 0-1.672-.39a3.2 3.2 0 0 1-1.078-1.063 4.8 4.8 0 0 1-.563-1.485 9 9 0 0 1-.156-1.687q0-.937.219-1.86.046-.249.171-.687.141-.453.344-.875.219-.438.485-.75.28-.312.609-.313.312 0 .5.172t.297.438q.11.25.14.547.032.28.032.515 0 .36-.063.703-.047.345-.109.688l-.125.937a9.5 9.5 0 0 0-.031 1.47q.03.28.125.546.093.266.265.453.172.172.485.172.406 0 .64-.219.25-.219.36-.547.124-.328.156-.703.031-.375.031-.687 0-.688-.094-1.344-.094-.672-.172-1.36a1.5 1.5 0 0 1 .063-.687q.078-.234.219-.422.14-.187.343-.297a.85.85 0 0 1 .454-.125q.344 0 .609.25.266.235.437.625.188.375.297.86.126.468.188.937.078.453.094.86.03.406.031.64M134.775 38q0 .079-.015.172a1 1 0 0 1-.047.156q-.141.36-.438.61a1.1 1.1 0 0 1-.703.234q-.609 0-.828-.61a.5.5 0 0 1-.031-.171q0-.11-.016-.22v-.452a.9.9 0 0 0-.109-.344q-.078-.125-.266-.125-.266 0-.515.344a3.8 3.8 0 0 0-.422.797 7 7 0 0 0-.281.937q-.11.484-.11.781 0 .236.031.578.032.33.125.641.094.312.25.547a.54.54 0 0 0 .438.219.8.8 0 0 0 .484-.157q.236-.171.453-.39.204-.187.438-.39a.87.87 0 0 1 .562-.204q.391 0 .61.281a.97.97 0 0 1 .234.641q0 .532-.281 1a3.2 3.2 0 0 1-.703.797q-.422.328-.938.516a2.7 2.7 0 0 1-.984.203q-.844 0-1.438-.422a3.3 3.3 0 0 1-.937-1.063 5 5 0 0 1-.516-1.422 7.3 7.3 0 0 1-.156-1.453q0-.797.219-1.718.219-.939.672-1.735a4.3 4.3 0 0 1 1.156-1.328q.719-.531 1.703-.531.609 0 1.047.265.453.266.734.703.297.423.438.954.156.531.156 1.047v.156a1 1 0 0 1-.016.156m7.516 3.797q0 .28-.031.734a4.3 4.3 0 0 1-.125.89 2.1 2.1 0 0 1-.344.735q-.234.313-.656.313-.579 0-.891-.375t-.297-.938q-.5.438-1.14.688-.625.25-1.282.25-.453 0-.859-.219a2.7 2.7 0 0 1-.719-.562 2.9 2.9 0 0 1-.5-.766 2.2 2.2 0 0 1-.187-.86q0-.75.453-1.312a4.2 4.2 0 0 1 1.141-.953q.67-.406 1.421-.64a8.5 8.5 0 0 1 1.36-.313v-.14a.6.6 0 0 0 .015-.142q0-.484-.265-.78-.265-.298-.75-.298-.392 0-.672.141a3.3 3.3 0 0 0-.531.297q-.25.156-.5.297a1.25 1.25 0 0 1-.563.125.87.87 0 0 1-.594-.219.74.74 0 0 1-.234-.562q0-.516.297-.938.312-.422.766-.703a4 4 0 0 1 1-.453 3.4 3.4 0 0 1 1-.172q.422 0 .843.11.422.093.797.312.375.203.672.515.312.297.5.703.282.579.453 1.235.172.64.266 1.328.093.672.125 1.36.031.671.031 1.312m-2.5-.5-.047-1.063h-.062a.14.14 0 0 0-.063-.015q-.203 0-.515.11a2.3 2.3 0 0 0-.579.28 2.3 2.3 0 0 0-.484.391.7.7 0 0 0-.187.453q0 .219.156.297a.8.8 0 0 0 .359.078q.344 0 .735-.172.39-.187.687-.36m8.016-5.89q0 .452-.313.671a6 6 0 0 1-.672.422q-.375.188-.687.453-.297.266-.297.797a.9.9 0 0 0 .125.484q.14.203.328.375.202.157.438.328.234.172.421.391a1.7 1.7 0 0 1 .329.531q.14.313.14.766 0 .657-.344 1.297a4.2 4.2 0 0 1-.859 1.125 4.3 4.3 0 0 1-1.172.781q-.656.297-1.297.297-.265 0-.531-.047a1.5 1.5 0 0 1-.484-.14 1.04 1.04 0 0 1-.344-.297.9.9 0 0 1-.141-.516q0-.438.172-.672.172-.25.438-.39.265-.14.562-.22.312-.077.578-.187a1.4 1.4 0 0 0 .438-.312q.171-.187.172-.532 0-.327-.266-.671-.25-.36-.562-.75a8 8 0 0 1-.579-.86 2.04 2.04 0 0 1-.25-1q0-.672.266-1.234.281-.579.734-1 .47-.422 1.063-.656.594-.25 1.25-.25.25 0 .484.047.25.046.438.171a.8.8 0 0 1 .297.313.86.86 0 0 1 .125.484m3.593 9.046q-.796 0-1.39-.422a3.7 3.7 0 0 1-1-1.078 5.2 5.2 0 0 1-.61-1.453 6.6 6.6 0 0 1-.203-1.594q0-.828.203-1.703.204-.89.625-1.61.423-.734 1.079-1.187.656-.468 1.562-.468.875 0 1.484.484.625.468 1 1.187.375.705.532 1.547a6.5 6.5 0 0 1 .109 1.594 8.6 8.6 0 0 1-.266 1.672 5.3 5.3 0 0 1-.609 1.516 3.5 3.5 0 0 1-1.031 1.093q-.625.422-1.485.422m.157-7.062q-.235 0-.422.25-.173.25-.297.609-.11.36-.172.766a4.4 4.4 0 0 0-.062.687q0 .375.062.813.078.437.203.812.124.36.297.61.188.234.422.234.25 0 .422-.234.188-.236.297-.594.11-.36.156-.782a8 8 0 0 0 .047-.812q0-.345-.063-.75a4.3 4.3 0 0 0-.187-.781 1.8 1.8 0 0 0-.297-.594q-.172-.234-.406-.234m6.281 5.78q0 .251-.141.642-.124.39-.328.765-.188.375-.437.64-.25.266-.485.266-.312 0-.312-.312a.9.9 0 0 1 .078-.36q.078-.171.172-.343.094-.156.172-.328a.7.7 0 0 0 .078-.313.9.9 0 0 1-.5.156.79.79 0 0 1-.61-.28.92.92 0 0 1-.25-.626q0-.5.329-.797.327-.312.828-.312.562 0 .984.297t.422.906m7.359 1.282q-.797 0-1.39-.422a3.7 3.7 0 0 1-1-1.078 5.2 5.2 0 0 1-.61-1.453 6.6 6.6 0 0 1-.203-1.594q0-.828.203-1.703.204-.89.625-1.61.423-.734 1.078-1.187.657-.468 1.563-.468.875 0 1.484.484.625.468 1 1.187.375.705.532 1.547a6.5 6.5 0 0 1 .109 1.594 8.6 8.6 0 0 1-.266 1.672 5.3 5.3 0 0 1-.609 1.516 3.5 3.5 0 0 1-1.031 1.093q-.626.422-1.485.422m.157-7.062q-.235 0-.422.25-.173.25-.297.609-.11.36-.172.766-.063.39-.063.687 0 .375.063.813.078.437.203.812.125.36.297.61.188.234.422.234.25 0 .422-.234.187-.236.297-.594.109-.36.156-.782a8 8 0 0 0 .047-.812q0-.345-.063-.75a4.3 4.3 0 0 0-.187-.781 1.8 1.8 0 0 0-.297-.594q-.172-.234-.406-.234m15.843-.422a6.5 6.5 0 0 1-.562 2.656 7.7 7.7 0 0 1-1.516 2.25 7.3 7.3 0 0 1-2.203 1.578 6.2 6.2 0 0 1-2.641.578h-.031a.57.57 0 0 1-.469-.25 2.8 2.8 0 0 1-.296-.656 5 5 0 0 1-.188-.875 16 16 0 0 1-.094-.937 13 13 0 0 1-.031-.829v-.562q0-.531.016-1.047.015-.531.047-1.062 0-.173.015-.5.031-.345.063-.766.03-.422.078-.875.046-.47.094-.86l.109-.703q.062-.312.141-.422.202-.344.625-.609a4.5 4.5 0 0 1 .906-.437 6 6 0 0 1 1-.25q.515-.094.89-.094 1.032 0 1.782.39a3.5 3.5 0 0 1 1.265 1.032q.516.64.75 1.484.25.844.25 1.766m-2.625.453q0-.345-.125-.703a2.2 2.2 0 0 0-.359-.657 1.6 1.6 0 0 0-.547-.468 1.34 1.34 0 0 0-.703-.188q-.328 0-.672.157-.078.046-.141.296a5 5 0 0 0-.109.578q-.032.345-.062.75-.032.407-.047.782 0 .36-.016.64v.845q0 .296.016.593.03.297.062.516.031.218.11.218.468 0 .921-.36.47-.374.844-.905.375-.532.594-1.11.234-.578.234-.984m14.016 4.875q-.047.405-.141.797a4 4 0 0 1-.203.703 1.2 1.2 0 0 1-.328.469.6.6 0 0 1-.437.187q-.25 0-.454-.39a5.5 5.5 0 0 1-.39-1 21 21 0 0 1-.328-1.438 71 71 0 0 1-.266-1.61 65 65 0 0 1-.312-2.969q-.095.596-.219 1.329-.126.735-.297 1.5-.172.75-.375 1.484-.203.72-.438 1.297a4 4 0 0 1-.5.907q-.265.343-.562.343-.266 0-.531-.36a4.8 4.8 0 0 1-.516-.937 14 14 0 0 1-.469-1.312 37 37 0 0 1-.734-2.813 33 33 0 0 1-.219-1.093q0 .327-.015.734v.563q0 .078-.016.515 0 .437-.047 1.047-.046.61-.141 1.313a7.7 7.7 0 0 1-.281 1.28q-.171.595-.437 1-.266.407-.657.438a1.26 1.26 0 0 1-.531-.468 3.8 3.8 0 0 1-.344-.797 7 7 0 0 1-.218-.97 19 19 0 0 1-.125-1q-.047-.499-.063-.921v-.687q0-.47.047-1.172.063-.72.188-1.5.124-.782.328-1.563a8.3 8.3 0 0 1 .484-1.39q.297-.626.672-1.016.39-.39.891-.39.233 0 .5.265.266.265.531.703.266.422.515.953.25.531.469 1.078.234.531.406 1.032.173.483.282.828.124-.375.312-.875t.406-1.032q.235-.546.5-1.062.282-.531.579-.938.296-.42.593-.672.313-.265.625-.265.547 0 .938.406t.656 1.063q.266.64.422 1.453.156.796.234 1.593.094.78.11 1.47.03.686.031 1.109v.468q0 .297-.016.672 0 .375-.031.797a24 24 0 0 1-.078.844m4.203-6q0 .485-.016.969l-.031.968a40 40 0 0 0-.031 1.594q0 .781-.047 1.578-.015.266-.031.719a4.3 4.3 0 0 1-.125.875 2.2 2.2 0 0 1-.313.75.7.7 0 0 1-.609.313.8.8 0 0 1-.609-.25 2 2 0 0 1-.375-.657 4.4 4.4 0 0 1-.172-.89 16 16 0 0 1-.063-.97q0-.483.016-.89.015-.406.015-.625v-2.125l.032-2.125a2 2 0 0 1-.5-.64 1.95 1.95 0 0 1-.172-.797q0-.64.375-1.094.39-.453 1.062-.453.579 0 .907.437.328.438.468 1.047.156.61.188 1.25.031.625.031 1.016m3.594 6.875q0 .25-.141.64-.125.39-.328.766-.188.375-.437.64-.25.266-.485.266-.312 0-.312-.312a.9.9 0 0 1 .078-.36q.078-.171.172-.343.093-.156.172-.328a.7.7 0 0 0 .078-.313.9.9 0 0 1-.5.156.79.79 0 0 1-.61-.28.92.92 0 0 1-.25-.626q0-.5.328-.797.328-.312.829-.312.562 0 .984.297t.422.906m11.031-1.375q0 .28-.031.734a4.3 4.3 0 0 1-.125.89 2.1 2.1 0 0 1-.344.735q-.234.313-.656.313-.578 0-.891-.375-.312-.375-.297-.938-.5.438-1.14.688-.625.25-1.282.25-.453 0-.859-.219a2.7 2.7 0 0 1-.719-.562 2.9 2.9 0 0 1-.5-.766 2.2 2.2 0 0 1-.187-.86q0-.75.453-1.312a4.2 4.2 0 0 1 1.141-.953q.67-.406 1.421-.64a8.5 8.5 0 0 1 1.36-.313v-.14a.6.6 0 0 0 .015-.142q0-.484-.265-.78-.265-.298-.75-.298-.392 0-.672.141a3.3 3.3 0 0 0-.531.297q-.25.156-.5.297a1.24 1.24 0 0 1-.563.125.87.87 0 0 1-.594-.219.74.74 0 0 1-.234-.562q0-.516.297-.938.312-.422.766-.703a4 4 0 0 1 1-.453 3.4 3.4 0 0 1 1-.172q.422 0 .843.11.422.093.797.312.375.203.672.515.312.297.5.703.282.579.453 1.235.172.64.266 1.328.093.672.125 1.36.031.671.031 1.312m-2.5-.5-.047-1.063h-.062a.14.14 0 0 0-.063-.015q-.203 0-.515.11a2.3 2.3 0 0 0-.579.28 2.3 2.3 0 0 0-.484.391.7.7 0 0 0-.187.453q0 .219.156.297a.8.8 0 0 0 .359.078q.344 0 .735-.172.39-.187.687-.36m8.016-5.89q0 .452-.313.671a6 6 0 0 1-.672.422q-.375.188-.687.453-.297.266-.297.797a.9.9 0 0 0 .125.484q.14.203.328.375.203.157.438.328t.421.391a1.7 1.7 0 0 1 .329.531q.14.313.14.766 0 .657-.344 1.297a4.2 4.2 0 0 1-.859 1.125 4.3 4.3 0 0 1-1.172.781q-.656.297-1.297.297-.265 0-.531-.047a1.5 1.5 0 0 1-.484-.14 1.04 1.04 0 0 1-.344-.297.9.9 0 0 1-.141-.516q0-.438.172-.672.172-.25.438-.39.265-.14.562-.22.313-.077.578-.187a1.4 1.4 0 0 0 .438-.312q.171-.187.172-.532 0-.327-.266-.671-.25-.36-.562-.75a8 8 0 0 1-.579-.86 2.04 2.04 0 0 1-.25-1q0-.672.266-1.234.281-.579.734-1 .47-.422 1.063-.656.594-.25 1.25-.25.25 0 .484.047.25.046.438.171a.8.8 0 0 1 .297.313.86.86 0 0 1 .125.484M227.119 38q0 .079-.015.172a1 1 0 0 1-.047.156q-.141.36-.438.61a1.1 1.1 0 0 1-.703.234q-.609 0-.828-.61a.5.5 0 0 1-.031-.171q0-.11-.016-.22v-.452a.9.9 0 0 0-.109-.344q-.078-.125-.266-.125-.265 0-.516.344a3.8 3.8 0 0 0-.421.797 7 7 0 0 0-.282.937 3.7 3.7 0 0 0-.109.781q0 .236.031.578.032.33.125.641.094.312.25.547a.54.54 0 0 0 .438.219.8.8 0 0 0 .484-.157q.234-.171.453-.39.203-.187.438-.39a.87.87 0 0 1 .562-.204q.391 0 .61.281a.97.97 0 0 1 .234.641q0 .532-.281 1a3.2 3.2 0 0 1-.703.797q-.423.328-.938.516a2.7 2.7 0 0 1-.984.203q-.844 0-1.438-.422a3.3 3.3 0 0 1-.937-1.063 5 5 0 0 1-.516-1.422 7.3 7.3 0 0 1-.156-1.453q0-.797.219-1.718a6.4 6.4 0 0 1 .671-1.735 4.3 4.3 0 0 1 1.157-1.328q.719-.531 1.703-.531.609 0 1.047.265.453.266.734.703.297.423.438.954.156.531.156 1.047v.156a1 1 0 0 1-.016.156m7.422 3.219q0 .531-.344 1.047-.328.5-.843.906a5 5 0 0 1-1.079.64q-.577.235-1.062.235a2.76 2.76 0 0 1-1.484-.406 3.9 3.9 0 0 1-1.079-1.063 5.2 5.2 0 0 1-.671-1.406 5.6 5.6 0 0 1-.219-1.516q0-.78.219-1.672.218-.89.656-1.64.453-.75 1.125-1.25.687-.5 1.625-.5.532 0 1.015.187a2.45 2.45 0 0 1 1.422 1.282q.219.453.219 1.015 0 .735-.312 1.375a3.7 3.7 0 0 1-.829 1.11 4.4 4.4 0 0 1-1.187.765 4 4 0 0 1-1.375.313q.063.453.359.656.313.203.735.203.312 0 .609-.156a6 6 0 0 0 .578-.344q.282-.203.547-.36.281-.156.563-.156.312 0 .562.203a.65.65 0 0 1 .25.532m-2.531-3.828a.94.94 0 0 0-.11-.422.36.36 0 0 0-.343-.219.9.9 0 0 0-.578.188 1.4 1.4 0 0 0-.391.453q-.156.266-.25.578a3 3 0 0 0-.094.578q.219-.047.516-.125.312-.078.578-.203.281-.141.469-.344a.66.66 0 0 0 .203-.484m.875-5.547q0 .171-.094.343a1.6 1.6 0 0 1-.234.297 2.3 2.3 0 0 1-.282.266q-.156.109-.281.203a8 8 0 0 0-.25.188 3 3 0 0 1-.281.187 3 3 0 0 1-.297.14.7.7 0 0 1-.281.063.4.4 0 0 1-.219-.062.27.27 0 0 1-.094-.219q0-.234.172-.562.188-.344.453-.657.266-.327.563-.547.297-.234.547-.234.219 0 .39.188.188.172.188.406m5.203 2.687q0 .844-.078 1.703-.063.844-.063 1.703 0 1.11.063 2.22.078 1.109.078 2.234 0 .28-.031.64-.031.345-.157.64a1.2 1.2 0 0 1-.343.5q-.235.204-.625.204-.375 0-.657-.375a3.3 3.3 0 0 1-.453-.922 12 12 0 0 1-.297-1.281 23 23 0 0 1-.171-1.36 89 89 0 0 1-.079-1.218 35 35 0 0 1-.015-.828q0-.297.015-.86.032-.562.11-1.218t.203-1.329q.14-.687.359-1.234.219-.562.516-.906.312-.36.734-.36.344 0 .516.235.187.219.266.547.078.312.093.672.016.344.016.593m8.031 5q0 .859-.172 1.703a4.7 4.7 0 0 1-.578 1.516 3.14 3.14 0 0 1-1.094 1.063q-.671.405-1.687.406-1 0-1.672-.39a3.2 3.2 0 0 1-1.078-1.063 4.8 4.8 0 0 1-.563-1.485 9 9 0 0 1-.156-1.687q0-.937.219-1.86.046-.249.172-.687.14-.453.344-.875a3.7 3.7 0 0 1 .484-.75q.281-.312.609-.313.313 0 .5.172t.297.438q.11.25.141.547.031.28.031.515 0 .36-.062.703-.048.345-.11.688l-.125.937a9.5 9.5 0 0 0-.031 1.47q.031.28.125.546.093.266.266.453.172.172.484.172.406 0 .641-.219.25-.219.359-.547.124-.328.156-.703.031-.375.031-.687 0-.688-.093-1.344a51 51 0 0 1-.172-1.36 1.5 1.5 0 0 1 .062-.687q.078-.234.219-.422.14-.187.344-.297a.84.84 0 0 1 .453-.125q.344 0 .609.25.266.235.438.625.188.375.297.86.125.468.187.937.078.453.094.86.031.406.031.64m3.875-5q0 .844-.078 1.703-.063.844-.062 1.703 0 1.11.062 2.22.078 1.109.078 2.234 0 .28-.031.64-.031.345-.156.64a1.2 1.2 0 0 1-.344.5q-.234.204-.625.204-.375 0-.656-.375a3.3 3.3 0 0 1-.453-.922 12 12 0 0 1-.297-1.281 23 23 0 0 1-.172-1.36 107 107 0 0 1-.078-1.218 31 31 0 0 1-.016-.828q0-.297.016-.86.031-.562.109-1.218t.203-1.329q.141-.687.36-1.234.218-.562.515-.906.313-.36.735-.36.344 0 .515.235.188.219.266.547.078.312.094.672.015.344.015.593m7.828 7.266q0 .28-.031.734-.015.454-.125.89a2.1 2.1 0 0 1-.344.735q-.234.313-.656.313-.577 0-.891-.375-.312-.375-.296-.938-.5.438-1.141.688-.626.25-1.281.25a1.8 1.8 0 0 1-.86-.219 2.7 2.7 0 0 1-.718-.562 2.8 2.8 0 0 1-.5-.766 2.2 2.2 0 0 1-.188-.86q0-.75.453-1.312a4.3 4.3 0 0 1 1.141-.953q.672-.406 1.422-.64.765-.235 1.359-.313v-.14a.6.6 0 0 0 .016-.142q0-.484-.266-.78-.266-.298-.75-.298-.39 0-.672.141a3.3 3.3 0 0 0-.531.297q-.25.156-.5.297a1.24 1.24 0 0 1-.563.125.87.87 0 0 1-.593-.219.73.73 0 0 1-.235-.562q0-.516.297-.938.313-.422.766-.703a4 4 0 0 1 1-.453 3.4 3.4 0 0 1 1-.172q.421 0 .844.11.421.093.796.312.375.203.672.515.313.297.5.703.282.579.453 1.235.173.64.266 1.328.094.672.125 1.36.031.671.031 1.312m-2.5-.5-.047-1.063h-.062a.14.14 0 0 0-.063-.015q-.203 0-.515.11a2.3 2.3 0 0 0-.578.28 2.3 2.3 0 0 0-.485.391.7.7 0 0 0-.187.453q0 .219.156.297a.8.8 0 0 0 .359.078q.344 0 .735-.172.39-.187.687-.36m8.016-5.89q0 .452-.313.671a6 6 0 0 1-.671.422q-.376.188-.688.453-.297.266-.297.797a.9.9 0 0 0 .125.484q.14.203.328.375.204.157.438.328t.422.391q.202.219.328.531.14.313.14.766 0 .657-.343 1.297a4.3 4.3 0 0 1-.86 1.125 4.3 4.3 0 0 1-1.172.781 3.1 3.1 0 0 1-1.296.297q-.267 0-.532-.047a1.5 1.5 0 0 1-.484-.14 1.05 1.05 0 0 1-.344-.297.9.9 0 0 1-.14-.516q0-.438.171-.672.173-.25.438-.39.266-.14.562-.22.313-.077.579-.187.265-.124.437-.312.172-.187.172-.532 0-.327-.266-.671a14 14 0 0 0-.562-.75 8 8 0 0 1-.578-.86 2.03 2.03 0 0 1-.25-1q0-.672.265-1.234.282-.579.735-1a3.5 3.5 0 0 1 1.062-.656q.594-.25 1.25-.25.25 0 .485.047.25.046.437.171a.8.8 0 0 1 .297.313.86.86 0 0 1 .125.484M85.619 59.843q0 .453-.078 1.031-.062.562-.219 1.156a6.6 6.6 0 0 1-.39 1.157 4.3 4.3 0 0 1-.594 1.015q-.344.438-.813.703a2.06 2.06 0 0 1-1.062.266q-.64 0-1.172-.297a2.9 2.9 0 0 1-.89-.812 1.3 1.3 0 0 1-.344.75 1 1 0 0 1-.75.312q-.266 0-.454-.266a2.4 2.4 0 0 1-.28-.671 7 7 0 0 1-.173-.922 16 16 0 0 1-.062-.97q-.016-.468-.016-.843V59.86l.031-1.078q0-.265-.015-.797 0-.53.016-1.172.015-.656.062-1.328.063-.687.203-1.25t.39-.922q.252-.36.641-.374.313 0 .532.218.218.22.359.578.156.36.234.813.095.438.125.89.047.438.047.844.016.39.016.64 0 .048-.016.22v.843q.142-.297.406-.578.267-.28.594-.5.328-.218.688-.36.36-.14.687-.14.657 0 1.094.344.453.328.719.844.266.515.375 1.125.11.593.11 1.125m-2.297.468q0-.187-.031-.406a1.1 1.1 0 0 0-.11-.406.8.8 0 0 0-.234-.312.54.54 0 0 0-.375-.126q-.25 0-.5.11a2.3 2.3 0 0 0-.453.281q-.219.172-.406.375-.187.187-.328.375l-.157 1.39q.25.36.61.579.36.203.812.203.344 0 .563-.219.234-.219.36-.531a2.6 2.6 0 0 0 .187-.687q.062-.36.062-.626m9.797 1.907q0 .531-.344 1.047-.328.5-.843.906-.5.39-1.079.64-.578.235-1.062.235a2.76 2.76 0 0 1-1.484-.406 3.9 3.9 0 0 1-1.079-1.063 5.2 5.2 0 0 1-.671-1.406 5.6 5.6 0 0 1-.22-1.516q0-.78.22-1.672.218-.89.656-1.64.453-.75 1.125-1.25.687-.5 1.625-.5.531 0 1.016.187a2.45 2.45 0 0 1 1.421 1.282q.22.453.22 1.015 0 .735-.313 1.375a3.6 3.6 0 0 1-.829 1.11q-.515.468-1.187.765a4 4 0 0 1-1.375.313q.063.453.36.656.312.203.734.203.312 0 .61-.156.296-.156.577-.344.282-.203.547-.36a1.15 1.15 0 0 1 .563-.156.87.87 0 0 1 .562.203q.25.204.25.532m-2.531-3.828a.94.94 0 0 0-.11-.422.36.36 0 0 0-.343-.219.9.9 0 0 0-.578.188 1.4 1.4 0 0 0-.391.453q-.156.266-.25.578a3 3 0 0 0-.094.578q.219-.047.516-.125a3 3 0 0 0 .578-.203 1.6 1.6 0 0 0 .469-.344.66.66 0 0 0 .203-.484m6.797 7.172q-1.11 0-1.735-.297a2 2 0 0 1-.922-.813q-.296-.531-.359-1.281-.062-.75-.062-1.672 0-.735.046-1.469.048-.75.141-1.593-.219 0-.344.015h-.203q-.5 0-.86-.219-.374-.218-.374-.672 0-.28.219-.5a1.7 1.7 0 0 1 .53-.374 3.7 3.7 0 0 1 .704-.25q.39-.095.734-.126 0-.437.063-.968t.219-.985q.171-.469.453-.78a.92.92 0 0 1 .718-.313q.25 0 .438.156.204.141.328.375.125.218.188.5.062.281.062.547 0 .312-.047.64a8 8 0 0 1-.172.813q.266-.031.36-.031.094-.015.172-.016.266 0 .546.047.298.047.532.156.25.11.406.297a.6.6 0 0 1 .156.422.67.67 0 0 1-.234.5q-.219.218-.563.375-.344.156-.734.25-.39.077-.734.11-.095.64-.141 1.187-.03.53-.078 1.078l-.063.547q-.015.266-.015.547 0 .203.015.484.015.266.11.516.093.25.297.437.203.172.562.172.219 0 .453-.031a2.4 2.4 0 0 1 .469-.047q.406 0 .578.281.188.282.188.719a.9.9 0 0 1-.204.578 1.35 1.35 0 0 1-.484.375 2.6 2.6 0 0 1-.672.234q-.36.08-.687.079m9-2.766q0 .28-.031.734a4.4 4.4 0 0 1-.125.89 2.1 2.1 0 0 1-.344.735q-.234.313-.656.313-.579 0-.891-.375t-.297-.938q-.5.438-1.141.688-.624.25-1.281.25-.453 0-.859-.219a2.7 2.7 0 0 1-.719-.562 2.9 2.9 0 0 1-.5-.766 2.2 2.2 0 0 1-.187-.86q0-.75.453-1.312a4.2 4.2 0 0 1 1.14-.953q.672-.406 1.422-.64a8.5 8.5 0 0 1 1.36-.313v-.14a.6.6 0 0 0 .015-.142q0-.484-.265-.78-.267-.298-.75-.298-.392 0-.672.141a3.3 3.3 0 0 0-.532.297q-.25.156-.5.297a1.24 1.24 0 0 1-.562.125.87.87 0 0 1-.594-.219.74.74 0 0 1-.234-.562q0-.516.297-.938.312-.422.765-.703a4 4 0 0 1 1-.453 3.4 3.4 0 0 1 1-.172q.423 0 .844.11.422.093.797.312.375.203.672.515.312.298.5.703.28.579.453 1.235.171.64.266 1.328.093.672.125 1.36.03.671.031 1.312m-2.5-.5-.047-1.063h-.063a.13.13 0 0 0-.062-.015q-.203 0-.516.11-.297.093-.578.28a2.3 2.3 0 0 0-.484.391.7.7 0 0 0-.188.453q0 .219.157.297a.8.8 0 0 0 .359.078q.344 0 .734-.172.391-.187.688-.36m13.937-7.578q0 1.14-.093 2.265-.08 1.126-.079 2.266 0 .922.047 1.828.063.906.063 1.828 0 .25-.016.61-.016.343-.109.672a1.3 1.3 0 0 1-.281.562q-.188.234-.547.234-.469 0-.782-.343a1.7 1.7 0 0 1-.375-.797 2.7 2.7 0 0 1-.859.953q-.562.39-1.219.39a1.72 1.72 0 0 1-1.218-.484 4.3 4.3 0 0 1-.844-1.172 7 7 0 0 1-.5-1.437 6.5 6.5 0 0 1-.156-1.297q0-.39.046-.89.048-.501.157-1.016a8 8 0 0 1 .312-1q.187-.5.469-.891.297-.39.687-.625.407-.234.922-.234.563 0 1.078.328t.782.812l.14-2.484q.016-.297.047-.688.032-.406.125-.765.11-.36.328-.61.22-.25.641-.25.453 0 .703.22.25.217.359.562.126.328.141.718.031.39.031.735m-2.547 6.937q0-.36-.015-.703a8 8 0 0 1 0-.703 9 9 0 0 0-.219-.437 2 2 0 0 0-.312-.454 1.6 1.6 0 0 0-.391-.359.85.85 0 0 0-.469-.14.6.6 0 0 0-.453.171 1 1 0 0 0-.25.422 2.5 2.5 0 0 0-.109.516 8 8 0 0 0-.016.484q0 .188.031.563.032.36.11.734.093.375.25.656.156.282.422.282.202 0 .406-.079.203-.093.375-.218a3 3 0 0 0 .344-.297q.171-.172.296-.313zm6.547 3.797q-.797 0-1.39-.422a3.7 3.7 0 0 1-1-1.078 5.2 5.2 0 0 1-.61-1.453 6.6 6.6 0 0 1-.203-1.594q0-.828.203-1.703.204-.89.625-1.61.423-.734 1.078-1.187.657-.468 1.563-.468.875 0 1.484.484.625.468 1 1.187.375.705.532 1.547a6.5 6.5 0 0 1 .109 1.594 8.6 8.6 0 0 1-.266 1.672 5.3 5.3 0 0 1-.609 1.516 3.5 3.5 0 0 1-1.031 1.093q-.626.422-1.485.422m.157-7.062q-.235 0-.422.25-.172.25-.297.609-.11.36-.172.766-.063.39-.063.687 0 .375.063.813.078.437.203.812.124.36.297.61.188.234.422.234.25 0 .422-.234.188-.236.297-.594.109-.36.156-.782a8 8 0 0 0 .047-.812q0-.345-.063-.75a4.3 4.3 0 0 0-.187-.781 1.8 1.8 0 0 0-.297-.594q-.172-.234-.406-.234m14.953 1.953q0 .687-.157 1.515a5.3 5.3 0 0 1-.5 1.516q-.344.704-.921 1.172-.562.468-1.422.469-.219 0-.453-.032a2.2 2.2 0 0 1-.454-.109 1.7 1.7 0 0 1-.375-.203.9.9 0 0 1-.265-.36l-.141 2.25q-.016.36-.031.86 0 .499-.125.953a1.7 1.7 0 0 1-.391.766q-.265.328-.781.328-.297 0-.5-.313a2.5 2.5 0 0 1-.328-.765 9 9 0 0 1-.172-1.047 14 14 0 0 1-.078-1.11 31 31 0 0 1-.016-.968v-.641q0-1.047-.015-2.078-.016-1.047-.016-2.094v-.578q0-.405.031-.875.031-.468.094-.969.078-.5.219-.906.14-.422.359-.672a.67.67 0 0 1 .531-.266.56.56 0 0 1 .36.126.86.86 0 0 1 .281.296q.125.173.203.375.078.203.125.375.484-.546 1.11-.828.64-.28 1.359-.281.75 0 1.219.422.484.422.75 1.047.28.624.39 1.343.11.704.11 1.282m-2.235-.125a2.3 2.3 0 0 0-.047-.469 1.3 1.3 0 0 0-.14-.453.77.77 0 0 0-.281-.344.76.76 0 0 0-.469-.14q-.375 0-.797.25a1.74 1.74 0 0 0-.609.546q-.08.126-.094.407a8 8 0 0 0-.016.422v.296q.016.172.031.36l.032.36q.03.17.078.265a.6.6 0 0 0 .203.265q.156.11.344.203.187.095.375.141.203.047.343.047a.65.65 0 0 0 .532-.25 1.8 1.8 0 0 0 .312-.594q.125-.343.156-.703.048-.375.047-.61m9.828 2.578q0 .28-.031.734-.015.454-.125.89a2.1 2.1 0 0 1-.344.735q-.234.313-.656.313-.578 0-.89-.375-.314-.375-.297-.938-.5.438-1.141.688-.625.25-1.281.25a1.8 1.8 0 0 1-.86-.219 2.7 2.7 0 0 1-.718-.562 2.8 2.8 0 0 1-.5-.766 2.2 2.2 0 0 1-.188-.86q0-.75.453-1.312a4.3 4.3 0 0 1 1.141-.953q.672-.406 1.422-.64.765-.235 1.359-.313v-.14a.6.6 0 0 0 .016-.142q0-.484-.266-.78-.266-.298-.75-.298-.39 0-.672.141a3.3 3.3 0 0 0-.531.297q-.25.156-.5.297a1.24 1.24 0 0 1-.562.125.87.87 0 0 1-.594-.219.74.74 0 0 1-.235-.562q0-.516.297-.938.313-.422.766-.703a4 4 0 0 1 1-.453 3.4 3.4 0 0 1 1-.172q.421 0 .844.11.422.093.797.312.375.203.671.515.313.298.5.703.282.579.454 1.235.172.64.265 1.328.094.672.125 1.36.031.671.031 1.312m-2.5-.5-.046-1.063h-.063a.14.14 0 0 0-.062-.015 1.6 1.6 0 0 0-.516.11 2.3 2.3 0 0 0-.578.28 2.3 2.3 0 0 0-.485.391.7.7 0 0 0-.187.453q0 .219.156.297a.8.8 0 0 0 .36.078q.343 0 .734-.172.39-.187.687-.36m.954-7.594q0 .125-.047.156a.3.3 0 0 1-.157.032q-.187 0-.421-.094a4 4 0 0 1-.454-.234 12 12 0 0 1-.437-.297 6 6 0 0 1-.344-.282q-.156.126-.375.297a5 5 0 0 1-.437.328 5 5 0 0 1-.469.25 1.2 1.2 0 0 1-.438.094.4.4 0 0 1-.156-.031q-.063-.032-.062-.156 0-.235.203-.594a3.8 3.8 0 0 1 .5-.688 4 4 0 0 1 .625-.562q.328-.234.578-.234t.578.234q.329.219.609.531.297.312.5.656t.204.594m6.921 10.734q-.265 0-.421-.25a1.7 1.7 0 0 1-.235-.546 4.4 4.4 0 0 1-.109-.625 11 11 0 0 1-.016-.5q0-.469.047-.938l.125-.937q.078-.469.125-.938a7 7 0 0 0 .063-.937q0-.187-.016-.407a1.7 1.7 0 0 0-.078-.406.66.66 0 0 0-.172-.328.44.44 0 0 0-.328-.125q-.14 0-.313.234a3.4 3.4 0 0 0-.328.516q-.14.282-.25.578a1.5 1.5 0 0 0-.094.422v.703q.016.345.016.703v.907q-.015.28-.047.578-.031.297-.094.578-.047.281-.14.547a1.8 1.8 0 0 1-.25.453q-.141.188-.344.312a.9.9 0 0 1-.484.125.7.7 0 0 1-.516-.203 1.5 1.5 0 0 1-.328-.516 3.7 3.7 0 0 1-.188-.718q-.047-.407-.078-.782-.015-.39-.015-.703.015-.327.015-.515v-.735q0-.593-.031-1.172-.015-.577-.016-1.156v-.797q.016-.484.125-.937.11-.469.36-.797t.734-.328q.219 0 .391.14.171.141.297.344.14.204.218.438.095.234.141.406.156-.218.359-.422.22-.203.485-.36a2.53 2.53 0 0 1 1.344-.343q.796 0 1.234.39.453.375.656.954.22.563.266 1.218.047.657.047 1.188 0 .266-.047.797-.047.516-.156 1.156-.095.626-.266 1.297-.172.657-.406 1.203a3 3 0 0 1-.563.89q-.312.345-.719.344M158.729 59q0 .078-.016.172a1 1 0 0 1-.047.156 1.5 1.5 0 0 1-.437.61 1.1 1.1 0 0 1-.704.234q-.609 0-.828-.61a.5.5 0 0 1-.031-.171q0-.11-.016-.22v-.452a.9.9 0 0 0-.109-.344q-.078-.125-.266-.125-.266 0-.515.344a3.8 3.8 0 0 0-.422.797 7 7 0 0 0-.281.937q-.11.484-.11.781 0 .236.032.578.03.33.125.641.093.312.25.547.171.219.437.219a.8.8 0 0 0 .484-.157q.235-.171.454-.39.203-.187.437-.39a.87.87 0 0 1 .563-.204q.39 0 .609.281a.97.97 0 0 1 .234.641q0 .532-.281 1a3.2 3.2 0 0 1-.703.797q-.422.328-.938.516a2.7 2.7 0 0 1-.984.203q-.844 0-1.437-.422a3.3 3.3 0 0 1-.938-1.063 5 5 0 0 1-.516-1.422 7.3 7.3 0 0 1-.156-1.453q0-.797.219-1.718.219-.939.672-1.735a4.3 4.3 0 0 1 1.156-1.328q.719-.531 1.703-.531.609 0 1.047.265.453.266.734.703.297.423.438.954.156.531.156 1.047v.156a1 1 0 0 1-.015.156m6.296.156q-.218.015-.375-.031l-.312-.125a3 3 0 0 0-.281-.11.6.6 0 0 0-.313-.046q-.312.015-.562.172a2.2 2.2 0 0 0-.438.39 2.7 2.7 0 0 0-.328.532 3 3 0 0 0-.219.562 4 4 0 0 0-.078.578q-.015.375-.015.813a24 24 0 0 0-.016.859q0 .406-.031.64a6 6 0 0 1-.078.594q-.063.33-.204.625a1.4 1.4 0 0 1-.343.5.8.8 0 0 1-.563.204.75.75 0 0 1-.469-.157 1.4 1.4 0 0 1-.328-.406 4 4 0 0 1-.218-.61 7 7 0 0 1-.125-.703q-.048-.375-.079-.75-.015-.375-.031-.703v-.625q.016-.28.016-.453a19 19 0 0 0-.063-1.093 20 20 0 0 1-.031-1.11q0-.343.031-.766.031-.42.172-.78a1.6 1.6 0 0 1 .406-.626q.282-.25.766-.25.265 0 .453.172.187.172.297.422.125.25.188.531.061.282.078.516.375-.609.843-.984.47-.391 1.219-.422.375-.016.735.078.375.078.671.281.313.188.5.5.204.312.219.734.031.5-.297.766-.327.265-.797.281m7.875 3.063q0 .531-.343 1.047-.328.5-.844.906-.5.39-1.078.64-.579.235-1.063.235a2.76 2.76 0 0 1-1.484-.406 3.9 3.9 0 0 1-1.078-1.063 5.1 5.1 0 0 1-.672-1.406 5.6 5.6 0 0 1-.219-1.516q0-.78.219-1.672.218-.89.656-1.64.453-.75 1.125-1.25.687-.5 1.625-.5.531 0 1.016.187a2.46 2.46 0 0 1 1.422 1.282q.218.453.218 1.015 0 .735-.312 1.375a3.6 3.6 0 0 1-.828 1.11 4.4 4.4 0 0 1-1.188.765 4 4 0 0 1-1.375.313q.063.453.36.656.312.203.734.203.312 0 .609-.156t.579-.344q.28-.203.546-.36.282-.156.563-.156.313 0 .562.203a.65.65 0 0 1 .25.532m-2.531-3.828a.94.94 0 0 0-.109-.422.36.36 0 0 0-.344-.219.9.9 0 0 0-.578.188 1.4 1.4 0 0 0-.391.453q-.156.266-.25.578a3 3 0 0 0-.093.578q.218-.047.515-.125.312-.078.578-.203.282-.141.469-.344a.66.66 0 0 0 .203-.484m9.797 4.406q0 .28-.031.734a4.3 4.3 0 0 1-.125.89 2.1 2.1 0 0 1-.344.735q-.234.313-.656.313-.579 0-.891-.375t-.297-.938q-.5.438-1.14.688-.625.25-1.282.25-.453 0-.859-.219a2.7 2.7 0 0 1-.719-.562 2.9 2.9 0 0 1-.5-.766 2.2 2.2 0 0 1-.187-.86q0-.75.453-1.312a4.2 4.2 0 0 1 1.141-.953q.67-.406 1.421-.64a8.5 8.5 0 0 1 1.36-.313v-.14a.6.6 0 0 0 .015-.142q0-.484-.265-.78-.265-.298-.75-.298-.392 0-.672.141a3.3 3.3 0 0 0-.531.297q-.25.156-.5.297a1.25 1.25 0 0 1-.563.125.87.87 0 0 1-.594-.219.74.74 0 0 1-.234-.562q0-.516.297-.938.312-.422.766-.703a4 4 0 0 1 1-.453 3.4 3.4 0 0 1 1-.172q.422 0 .843.11.422.093.797.312.375.203.672.515.312.298.5.703.282.579.453 1.235.172.64.266 1.328.093.672.125 1.36.031.671.031 1.312m-2.5-.5-.047-1.063h-.062a.14.14 0 0 0-.063-.015q-.203 0-.515.11a2.3 2.3 0 0 0-.579.28 2.3 2.3 0 0 0-.484.391.7.7 0 0 0-.187.453q0 .219.156.297a.8.8 0 0 0 .359.078q.344 0 .735-.172.39-.187.687-.36m8.016-5.89q0 .452-.313.671a6 6 0 0 1-.672.422q-.375.188-.687.453-.297.266-.297.797a.9.9 0 0 0 .125.484q.14.203.328.375.203.157.438.328t.421.391a1.7 1.7 0 0 1 .329.531q.14.313.14.766 0 .657-.344 1.297a4.2 4.2 0 0 1-.859 1.125 4.3 4.3 0 0 1-1.172.781q-.656.297-1.297.297-.265 0-.531-.047a1.5 1.5 0 0 1-.484-.14 1.04 1.04 0 0 1-.344-.297.9.9 0 0 1-.141-.516q0-.438.172-.672.172-.25.438-.39.265-.14.562-.22.312-.077.578-.187a1.4 1.4 0 0 0 .438-.312q.171-.187.172-.532 0-.327-.266-.671-.25-.36-.562-.75a8 8 0 0 1-.579-.86 2.04 2.04 0 0 1-.25-1q0-.672.266-1.234.281-.579.734-1 .47-.422 1.063-.656.594-.25 1.25-.25.25 0 .484.047.25.046.438.171a.8.8 0 0 1 .297.313.86.86 0 0 1 .125.484m8.968 0q0 .452-.312.671a6 6 0 0 1-.672.422q-.375.188-.687.453-.297.266-.297.797a.9.9 0 0 0 .125.484q.14.203.328.375.203.157.437.328.235.172.422.391.204.219.328.531.141.313.141.766 0 .657-.344 1.297a4.28 4.28 0 0 1-2.031 1.906q-.657.297-1.297.297-.266 0-.531-.047a1.5 1.5 0 0 1-.485-.14 1 1 0 0 1-.343-.297.9.9 0 0 1-.141-.516q0-.438.172-.672.171-.25.437-.39t.563-.22q.312-.077.578-.187a1.4 1.4 0 0 0 .438-.312q.171-.187.171-.532 0-.327-.265-.671a14 14 0 0 0-.563-.75 8 8 0 0 1-.578-.86 2.03 2.03 0 0 1-.25-1q0-.672.266-1.234.28-.579.734-1 .47-.422 1.063-.656.593-.25 1.25-.25.25 0 .484.047.25.046.438.171a.8.8 0 0 1 .296.313.85.85 0 0 1 .125.484m7.266 6.39q0 .28-.031.734a4.3 4.3 0 0 1-.125.89 2.1 2.1 0 0 1-.344.735q-.234.313-.656.313-.579 0-.891-.375t-.297-.938q-.5.438-1.14.688-.625.25-1.282.25-.453 0-.859-.219a2.7 2.7 0 0 1-.719-.562 2.9 2.9 0 0 1-.5-.766 2.2 2.2 0 0 1-.187-.86q0-.75.453-1.312a4.2 4.2 0 0 1 1.141-.953q.67-.406 1.421-.64a8.5 8.5 0 0 1 1.36-.313v-.14a.6.6 0 0 0 .015-.142q0-.484-.265-.78-.265-.298-.75-.298-.392 0-.672.141a3.3 3.3 0 0 0-.531.297q-.25.156-.5.297a1.25 1.25 0 0 1-.563.125.87.87 0 0 1-.594-.219.74.74 0 0 1-.234-.562q0-.516.297-.938.312-.422.766-.703a4 4 0 0 1 1-.453 3.4 3.4 0 0 1 1-.172q.422 0 .843.11.422.093.797.312.375.203.672.515.312.298.5.703.282.579.453 1.235.172.64.266 1.328.093.672.125 1.36.031.671.031 1.312m-2.5-.5-.047-1.063h-.062a.14.14 0 0 0-.063-.015q-.203 0-.515.11a2.3 2.3 0 0 0-.579.28 2.3 2.3 0 0 0-.484.391.7.7 0 0 0-.187.453q0 .219.156.297a.8.8 0 0 0 .359.078q.344 0 .735-.172.39-.187.687-.36m1.891-8.938a1 1 0 0 1-.157.5 2.3 2.3 0 0 1-.39.47q-.234.203-.5.343a1.2 1.2 0 0 1-.5.125q-.235 0-.469-.078-.219-.094-.453-.203a4 4 0 0 0-.438-.188 1.1 1.1 0 0 0-.437-.094.64.64 0 0 0-.344.11 5 5 0 0 0-.359.218q-.187.11-.391.204a.8.8 0 0 1-.375.093.49.49 0 0 1-.406-.203.75.75 0 0 1-.156-.437.85.85 0 0 1 .187-.516q.187-.25.469-.437a2.4 2.4 0 0 1 .578-.313q.313-.125.547-.125.266 0 .453.11.203.108.375.25.172.14.344.25.188.108.437.109a.7.7 0 0 0 .375-.11q.188-.124.36-.265.187-.156.343-.266a.6.6 0 0 1 .36-.125q.219 0 .375.188a.58.58 0 0 1 .172.39m4.515 12.094q-.796 0-1.39-.422a3.7 3.7 0 0 1-1-1.078 5.2 5.2 0 0 1-.61-1.453 6.6 6.6 0 0 1-.203-1.594q0-.828.203-1.703.204-.89.625-1.61.423-.734 1.078-1.187.657-.468 1.563-.468.875 0 1.484.484.625.468 1 1.187.375.705.532 1.547a6.5 6.5 0 0 1 .109 1.594 8.6 8.6 0 0 1-.266 1.672 5.3 5.3 0 0 1-.609 1.516 3.5 3.5 0 0 1-1.031 1.093q-.626.422-1.485.422m.157-7.062q-.235 0-.422.25-.173.25-.297.609-.11.36-.172.766-.063.39-.063.687 0 .375.063.813.078.437.203.812.125.36.297.61.188.234.422.234.25 0 .422-.234.187-.236.297-.594.109-.36.156-.782a8 8 0 0 0 .047-.812q0-.345-.063-.75a4.3 4.3 0 0 0-.187-.781 1.8 1.8 0 0 0-.297-.594q-.172-.234-.406-.234m14.437 4.406q0 .28-.031.734a4.3 4.3 0 0 1-.125.89 2.1 2.1 0 0 1-.344.735q-.234.313-.656.313-.578 0-.891-.375-.312-.375-.297-.938-.5.438-1.14.688-.625.25-1.282.25-.453 0-.859-.219a2.7 2.7 0 0 1-.719-.562 2.9 2.9 0 0 1-.5-.766 2.2 2.2 0 0 1-.187-.86q0-.75.453-1.312a4.2 4.2 0 0 1 1.141-.953q.67-.406 1.421-.64a8.5 8.5 0 0 1 1.36-.313v-.14a.6.6 0 0 0 .015-.142q0-.484-.265-.78-.265-.298-.75-.298-.392 0-.672.141a3.3 3.3 0 0 0-.531.297q-.25.156-.5.297a1.24 1.24 0 0 1-.563.125.87.87 0 0 1-.594-.219.74.74 0 0 1-.234-.562q0-.516.297-.938.312-.422.766-.703a4 4 0 0 1 1-.453 3.4 3.4 0 0 1 1-.172q.422 0 .843.11.422.093.797.312.375.203.672.515.312.298.5.703.282.579.453 1.235.172.64.266 1.328.093.672.125 1.36.031.671.031 1.312m-2.5-.5-.047-1.063h-.062a.14.14 0 0 0-.063-.015q-.203 0-.515.11a2.3 2.3 0 0 0-.579.28 2.3 2.3 0 0 0-.484.391.7.7 0 0 0-.187.453q0 .219.156.297a.8.8 0 0 0 .359.078q.344 0 .735-.172.39-.187.687-.36m7.078 3.266q-1.11 0-1.734-.297a2 2 0 0 1-.922-.813q-.297-.531-.359-1.281-.063-.75-.063-1.672 0-.735.047-1.469.047-.75.141-1.593-.22 0-.344.015h-.203q-.5 0-.86-.219-.375-.218-.375-.672 0-.28.219-.5.203-.218.531-.374.328-.157.703-.25.392-.095.735-.126 0-.437.062-.968.063-.531.219-.985.173-.469.453-.78a.93.93 0 0 1 .719-.313.66.66 0 0 1 .437.156q.203.141.329.375a1.8 1.8 0 0 1 .187.5q.063.281.063.547 0 .312-.047.64-.048.33-.172.813.266-.031.359-.031.094-.015.172-.016.265 0 .547.047.297.047.531.156.25.11.406.297a.6.6 0 0 1 .157.422.67.67 0 0 1-.235.5q-.219.218-.562.375a4 4 0 0 1-.735.25q-.39.077-.734.11-.093.64-.141 1.187-.03.53-.078 1.078l-.062.547a9 9 0 0 0 0 1.031q.015.266.109.516.095.25.297.437.203.172.563.172.218 0 .453-.031.234-.047.468-.047.406 0 .579.281.187.282.187.719a.9.9 0 0 1-.203.578 1.35 1.35 0 0 1-.484.375 2.6 2.6 0 0 1-.672.234q-.36.08-.688.079m9-2.766q0 .28-.031.734-.015.454-.125.89a2.1 2.1 0 0 1-.344.735q-.234.313-.656.313-.577 0-.891-.375-.312-.375-.297-.938-.5.438-1.14.688-.625.25-1.281.25-.454 0-.86-.219a2.7 2.7 0 0 1-.719-.562 2.9 2.9 0 0 1-.5-.766 2.2 2.2 0 0 1-.187-.86q0-.75.453-1.312a4.3 4.3 0 0 1 1.141-.953q.672-.406 1.422-.64.765-.235 1.359-.313v-.14a.6.6 0 0 0 .016-.142q0-.484-.266-.78-.266-.298-.75-.298-.39 0-.672.141a3.3 3.3 0 0 0-.531.297q-.25.156-.5.297a1.24 1.24 0 0 1-.563.125.87.87 0 0 1-.593-.219.73.73 0 0 1-.235-.562q0-.516.297-.938.313-.422.766-.703a4 4 0 0 1 1-.453 3.4 3.4 0 0 1 1-.172q.422 0 .843.11.423.093.797.312.375.203.672.515.313.298.5.703.282.579.453 1.235.172.64.266 1.328.093.672.125 1.36.031.671.031 1.312m-2.5-.5-.047-1.063h-.062a.14.14 0 0 0-.063-.015q-.203 0-.515.11a2.3 2.3 0 0 0-.578.28 2.3 2.3 0 0 0-.485.391.7.7 0 0 0-.187.453q0 .219.156.297a.8.8 0 0 0 .359.078q.343 0 .735-.172.39-.187.687-.36M240.729 59q0 .078-.016.172a1 1 0 0 1-.047.156 1.5 1.5 0 0 1-.437.61 1.1 1.1 0 0 1-.704.234q-.609 0-.828-.61a.5.5 0 0 1-.031-.171q0-.11-.016-.22v-.452a.9.9 0 0 0-.109-.344q-.078-.125-.266-.125-.266 0-.515.344a3.8 3.8 0 0 0-.422.797 7 7 0 0 0-.281.937q-.11.484-.11.781 0 .236.032.578.03.33.125.641.093.312.25.547.171.219.437.219a.8.8 0 0 0 .484-.157q.235-.171.454-.39.203-.187.437-.39a.87.87 0 0 1 .563-.204q.39 0 .609.281a.97.97 0 0 1 .234.641q0 .532-.281 1a3.2 3.2 0 0 1-.703.797q-.422.328-.938.516a2.7 2.7 0 0 1-.984.203q-.844 0-1.437-.422a3.3 3.3 0 0 1-.938-1.063 5 5 0 0 1-.516-1.422 7.3 7.3 0 0 1-.156-1.453q0-.797.219-1.718.219-.939.672-1.735a4.3 4.3 0 0 1 1.156-1.328q.719-.531 1.703-.531.609 0 1.047.265.453.266.734.703.297.423.438.954.156.531.156 1.047v.156a1 1 0 0 1-.015.156m7.515 3.797q0 .28-.031.734-.015.454-.125.89a2.1 2.1 0 0 1-.344.735q-.234.313-.656.313-.577 0-.891-.375-.312-.375-.297-.938-.5.438-1.14.688-.625.25-1.281.25-.454 0-.86-.219a2.7 2.7 0 0 1-.719-.562 2.9 2.9 0 0 1-.5-.766 2.2 2.2 0 0 1-.187-.86q0-.75.453-1.312a4.3 4.3 0 0 1 1.141-.953q.672-.406 1.422-.64.765-.235 1.359-.313v-.14a.6.6 0 0 0 .016-.142q0-.484-.266-.78-.266-.298-.75-.298-.39 0-.672.141a3.3 3.3 0 0 0-.531.297q-.25.156-.5.297a1.24 1.24 0 0 1-.563.125.87.87 0 0 1-.593-.219.73.73 0 0 1-.235-.562q0-.516.297-.938.313-.422.766-.703a4 4 0 0 1 1-.453 3.4 3.4 0 0 1 1-.172q.422 0 .843.11.423.093.797.312.375.203.672.515.313.298.5.703.282.579.453 1.235.172.64.266 1.328.093.672.125 1.36.031.671.031 1.312m-2.5-.5-.047-1.063h-.062a.14.14 0 0 0-.063-.015q-.203 0-.515.11a2.3 2.3 0 0 0-.578.28 2.3 2.3 0 0 0-.485.391.7.7 0 0 0-.187.453q0 .219.156.297a.8.8 0 0 0 .359.078q.343 0 .735-.172.39-.187.687-.36m10.172-7.578q0 1.14-.094 2.265-.078 1.126-.078 2.266 0 .922.047 1.828.063.906.063 1.828 0 .25-.016.61-.015.343-.109.672a1.3 1.3 0 0 1-.282.562q-.187.234-.547.234-.468 0-.781-.343a1.7 1.7 0 0 1-.375-.797 2.7 2.7 0 0 1-.859.953q-.562.39-1.219.39-.703 0-1.219-.484a4.3 4.3 0 0 1-.843-1.172 7 7 0 0 1-.5-1.437 6.4 6.4 0 0 1-.157-1.297 10 10 0 0 1 .203-1.906 8 8 0 0 1 .313-1q.187-.5.469-.891.297-.39.687-.625.406-.234.922-.234.562 0 1.078.328t.781.812l.141-2.484q.015-.297.047-.688a4.3 4.3 0 0 1 .125-.765q.11-.36.328-.61t.641-.25q.453 0 .703.22.25.217.359.562.125.328.141.718.031.39.031.735m-2.547 6.937q0-.36-.015-.703a8 8 0 0 1 0-.703 9 9 0 0 0-.219-.437 2 2 0 0 0-.313-.454 1.6 1.6 0 0 0-.39-.359.85.85 0 0 0-.469-.14.6.6 0 0 0-.453.171 1 1 0 0 0-.25.422 2.5 2.5 0 0 0-.11.516q-.015.281-.015.484a7.3 7.3 0 0 0 .14 1.297q.094.375.25.656.157.282.422.282.203 0 .407-.079.202-.093.375-.218.187-.141.343-.297.172-.172.297-.313zm10.219 1.14q0 .282-.031.735a4.3 4.3 0 0 1-.125.89 2.1 2.1 0 0 1-.344.735q-.234.313-.656.313-.579 0-.891-.375t-.297-.938q-.5.438-1.14.688-.625.25-1.282.25-.453 0-.859-.219a2.7 2.7 0 0 1-.719-.562 2.9 2.9 0 0 1-.5-.766 2.2 2.2 0 0 1-.187-.86q0-.75.453-1.312a4.3 4.3 0 0 1 1.14-.953q.672-.406 1.422-.64a8.5 8.5 0 0 1 1.36-.313v-.14a.6.6 0 0 0 .015-.142q0-.484-.265-.78-.266-.298-.75-.298-.392 0-.672.141a3.3 3.3 0 0 0-.531.297q-.25.156-.5.297a1.25 1.25 0 0 1-.563.125.87.87 0 0 1-.594-.219.74.74 0 0 1-.234-.562q0-.516.297-.938.312-.422.765-.703a4 4 0 0 1 1-.453 3.4 3.4 0 0 1 1-.172q.423 0 .844.11.422.093.797.312.375.203.672.515.312.298.5.703.28.579.453 1.235.172.64.266 1.328.093.672.125 1.36.031.671.031 1.312m-2.5-.5-.047-1.062h-.062a.14.14 0 0 0-.063-.015q-.202 0-.516.11a2.3 2.3 0 0 0-.578.28 2.3 2.3 0 0 0-.484.391.7.7 0 0 0-.188.453q0 .219.157.297a.8.8 0 0 0 .359.078q.344 0 .734-.172.391-.187.688-.36m8.016-5.89q0 .453-.313.672a6 6 0 0 1-.672.422q-.375.188-.687.453-.297.266-.297.797a.9.9 0 0 0 .125.484q.14.203.328.375.203.157.437.328.235.172.422.391.204.219.328.531.141.313.141.766 0 .657-.344 1.297a4.2 4.2 0 0 1-.859 1.125 4.3 4.3 0 0 1-1.172.781q-.656.297-1.297.297-.265 0-.531-.047a1.5 1.5 0 0 1-.484-.14 1.04 1.04 0 0 1-.344-.297.9.9 0 0 1-.141-.516q0-.438.172-.672a1.2 1.2 0 0 1 .438-.39q.265-.14.562-.22.312-.077.578-.187a1.4 1.4 0 0 0 .438-.312q.171-.187.172-.532 0-.327-.266-.671a14 14 0 0 0-.563-.75 8 8 0 0 1-.578-.86 2.04 2.04 0 0 1-.25-1q0-.672.266-1.234.28-.579.734-1 .47-.422 1.063-.656.594-.25 1.25-.25.25 0 .484.047.25.046.438.171a.8.8 0 0 1 .297.313.86.86 0 0 1 .125.484M85.284 81.344q0 .687-.157 1.515a5.3 5.3 0 0 1-.5 1.516q-.344.704-.922 1.172-.563.468-1.422.469-.219 0-.453-.032a2.2 2.2 0 0 1-.453-.109 1.6 1.6 0 0 1-.375-.203.9.9 0 0 1-.266-.36l-.14 2.25q-.015.36-.032.86 0 .499-.124.953a1.7 1.7 0 0 1-.391.766q-.266.327-.781.328-.297 0-.5-.313a2.5 2.5 0 0 1-.329-.765 9 9 0 0 1-.171-1.047 14 14 0 0 1-.079-1.11q-.015-.531-.015-.968v-.641q0-1.047-.016-2.078-.015-1.047-.015-2.094v-.578q0-.405.03-.875.032-.468.095-.969a5.3 5.3 0 0 1 .218-.906q.141-.422.36-.672a.67.67 0 0 1 .531-.266.56.56 0 0 1 .36.126.86.86 0 0 1 .28.296q.126.172.204.375t.125.375q.484-.546 1.11-.828.64-.28 1.358-.281.75 0 1.22.422.483.422.75 1.047.28.624.39 1.344.11.702.11 1.28m-2.235-.125q0-.234-.047-.469a1.3 1.3 0 0 0-.14-.453.76.76 0 0 0-.282-.344.76.76 0 0 0-.469-.14q-.375 0-.797.25-.405.234-.609.546-.078.126-.094.407-.015.281-.015.421v.297l.031.36q.015.188.031.36.031.17.078.265a.6.6 0 0 0 .203.265q.158.11.344.204.188.093.375.14.203.047.344.047a.65.65 0 0 0 .531-.25q.204-.25.313-.594.124-.343.156-.703.047-.375.047-.61m9.734 2q0 .531-.344 1.047-.328.5-.843.906-.5.39-1.078.64-.579.235-1.063.235a2.76 2.76 0 0 1-1.484-.406 3.9 3.9 0 0 1-1.078-1.063 5.2 5.2 0 0 1-.672-1.406 5.6 5.6 0 0 1-.219-1.516q0-.78.219-1.672.219-.89.656-1.64.453-.75 1.125-1.25.687-.5 1.625-.5.531 0 1.016.187a2.45 2.45 0 0 1 1.421 1.281q.22.454.22 1.016 0 .735-.313 1.375a3.6 3.6 0 0 1-.828 1.11q-.516.468-1.188.765a4 4 0 0 1-1.375.313q.063.453.36.656.312.203.734.203.312 0 .61-.156.296-.156.577-.344.282-.203.547-.36a1.15 1.15 0 0 1 .563-.156q.313 0 .562.204t.25.53m-2.531-3.828a.94.94 0 0 0-.11-.422.36.36 0 0 0-.343-.219.9.9 0 0 0-.578.188 1.4 1.4 0 0 0-.39.453q-.157.266-.25.578a3 3 0 0 0-.095.578q.219-.047.516-.125.312-.078.578-.203a1.6 1.6 0 0 0 .469-.344.66.66 0 0 0 .203-.484m6.078-2.86q0 .844-.078 1.703a23 23 0 0 0-.062 1.704q0 1.11.062 2.218.078 1.11.078 2.235 0 .28-.031.64-.031.345-.156.64a1.2 1.2 0 0 1-.344.5q-.234.204-.625.204-.375 0-.656-.375a3.3 3.3 0 0 1-.454-.922 12 12 0 0 1-.296-1.281q-.11-.703-.172-1.36a98 98 0 0 1-.078-1.218q-.016-.562-.016-.828 0-.297.016-.86.03-.562.109-1.219.078-.656.203-1.328.141-.687.36-1.234.218-.562.515-.906.312-.36.734-.36.345 0 .516.235.188.219.266.547.078.312.093.671.015.345.016.594m4.156 9.922q-.796 0-1.39-.422a3.7 3.7 0 0 1-1-1.078 5.2 5.2 0 0 1-.61-1.453 6.6 6.6 0 0 1-.203-1.594q0-.828.203-1.703.204-.89.625-1.61.423-.734 1.078-1.187.657-.469 1.563-.469.875 0 1.484.485.625.468 1 1.187.375.704.532 1.547a6.5 6.5 0 0 1 .109 1.594 8.6 8.6 0 0 1-.266 1.672 5.3 5.3 0 0 1-.609 1.516 3.5 3.5 0 0 1-1.031 1.093q-.625.422-1.485.422m.157-7.062q-.235 0-.422.25a2.5 2.5 0 0 0-.297.609q-.11.36-.172.766-.062.39-.062.687 0 .375.062.813.078.437.203.812.124.36.297.61.188.234.422.234.25 0 .422-.234.188-.236.297-.594.11-.36.156-.781a8 8 0 0 0 .047-.813q0-.345-.063-.75a4.3 4.3 0 0 0-.187-.781 1.8 1.8 0 0 0-.297-.594q-.172-.234-.406-.234m14.953 1.953q0 .687-.157 1.515a5.3 5.3 0 0 1-.5 1.516q-.344.704-.921 1.172-.562.468-1.422.469-.219 0-.453-.032a2.2 2.2 0 0 1-.454-.109 1.7 1.7 0 0 1-.375-.203.9.9 0 0 1-.265-.36l-.141 2.25q-.016.36-.031.86 0 .499-.125.953a1.7 1.7 0 0 1-.391.766q-.265.327-.781.328-.296 0-.5-.313a2.5 2.5 0 0 1-.328-.765 9 9 0 0 1-.172-1.047 14 14 0 0 1-.078-1.11 35 35 0 0 1-.016-.968v-.641q0-1.047-.015-2.078-.016-1.047-.016-2.094v-.578q0-.405.031-.875.031-.468.094-.969.078-.5.219-.906.14-.422.359-.672a.67.67 0 0 1 .531-.266.56.56 0 0 1 .36.126.86.86 0 0 1 .281.296q.125.172.203.375t.125.375q.484-.546 1.11-.828.64-.28 1.359-.281.75 0 1.219.422.484.422.75 1.047.28.624.39 1.344.11.702.11 1.28m-2.235-.125a2.3 2.3 0 0 0-.047-.469 1.3 1.3 0 0 0-.14-.453.77.77 0 0 0-.281-.344.76.76 0 0 0-.469-.14q-.375 0-.797.25a1.74 1.74 0 0 0-.609.546q-.079.126-.094.407a8 8 0 0 0-.016.421v.297q.016.172.031.36l.032.36q.031.17.078.265a.6.6 0 0 0 .203.265q.156.11.344.204t.375.14q.203.047.343.047a.65.65 0 0 0 .532-.25 1.8 1.8 0 0 0 .312-.594q.126-.343.156-.703.047-.375.047-.61m8.61-1.063q-.219.015-.375-.031l-.313-.125a3 3 0 0 0-.281-.11.6.6 0 0 0-.313-.046q-.312.016-.562.172a2.2 2.2 0 0 0-.438.39 2.7 2.7 0 0 0-.328.531 3 3 0 0 0-.218.563 4 4 0 0 0-.079.578q-.015.375-.015.813a24 24 0 0 0-.016.859q0 .406-.031.64-.015.25-.078.594a2.6 2.6 0 0 1-.203.625 1.4 1.4 0 0 1-.344.5.8.8 0 0 1-.563.204.75.75 0 0 1-.468-.157 1.4 1.4 0 0 1-.328-.406 3.7 3.7 0 0 1-.219-.61 8 8 0 0 1-.125-.703q-.047-.375-.078-.75-.016-.375-.032-.703v-.625q.016-.28.016-.453-.015-.546-.062-1.094a20 20 0 0 1-.032-1.109q0-.343.032-.766.03-.42.171-.78.141-.376.407-.626.28-.25.765-.25.266 0 .453.172.188.172.297.422.126.25.188.531.063.282.078.516.375-.609.844-.984.468-.39 1.218-.422.375-.016.735.078.375.078.672.281.312.188.5.5.203.312.218.734.031.5-.296.766a1.3 1.3 0 0 1-.797.281m4.297 6.297q-.798 0-1.391-.422a3.7 3.7 0 0 1-1-1.078 5.2 5.2 0 0 1-.609-1.453 6.5 6.5 0 0 1-.204-1.594q0-.828.204-1.703.202-.89.625-1.61.421-.734 1.078-1.187.656-.469 1.562-.469.875 0 1.485.485.624.468 1 1.187.375.704.531 1.547a6.5 6.5 0 0 1 .109 1.594 8.6 8.6 0 0 1-.265 1.672 5.3 5.3 0 0 1-.61 1.516 3.5 3.5 0 0 1-1.031 1.093q-.625.422-1.484.422m.156-7.062q-.234 0-.422.25-.172.25-.297.609-.11.36-.172.766-.062.39-.062.687 0 .375.062.813.078.437.203.812.126.36.297.61.188.234.422.234.25 0 .422-.234.188-.236.297-.594.11-.36.156-.781a8 8 0 0 0 .047-.813q0-.345-.063-.75a4.3 4.3 0 0 0-.187-.781 1.8 1.8 0 0 0-.297-.594q-.171-.234-.406-.234m1.765-5.063q0 .173-.093.344a1.6 1.6 0 0 1-.235.297 2.3 2.3 0 0 1-.281.265q-.156.11-.281.204a8 8 0 0 0-.25.187 3 3 0 0 1-.281.188 3 3 0 0 1-.297.14.7.7 0 0 1-.282.063.4.4 0 0 1-.218-.063.27.27 0 0 1-.094-.219q0-.234.172-.562.188-.344.453-.656.266-.329.562-.547.297-.234.547-.235a.52.52 0 0 1 .391.188q.187.172.187.406m9.422 7.016q0 .687-.156 1.515a5.3 5.3 0 0 1-.5 1.516q-.343.704-.922 1.172-.562.468-1.422.469a3.4 3.4 0 0 1-.453-.032 2.2 2.2 0 0 1-.453-.109 1.7 1.7 0 0 1-.375-.203.94.94 0 0 1-.266-.36l-.14 2.25q-.016.36-.031.86 0 .499-.125.953a1.7 1.7 0 0 1-.391.766q-.266.327-.781.328-.297 0-.5-.313a2.5 2.5 0 0 1-.328-.765 9 9 0 0 1-.172-1.047 14 14 0 0 1-.078-1.11 31 31 0 0 1-.016-.968v-.641q0-1.047-.016-2.078-.015-1.047-.015-2.094v-.578q0-.405.031-.875.031-.468.094-.969.078-.5.218-.906.141-.422.36-.672a.67.67 0 0 1 .531-.266q.203 0 .359.126a.86.86 0 0 1 .282.296q.125.172.203.375t.125.375a3.3 3.3 0 0 1 1.109-.828q.64-.28 1.36-.281.75 0 1.218.422.485.422.75 1.047.282.624.391 1.344.11.702.109 1.28m-2.234-.125q0-.234-.047-.469a1.3 1.3 0 0 0-.141-.453.76.76 0 0 0-.281-.344.76.76 0 0 0-.469-.14q-.375 0-.796.25a1.75 1.75 0 0 0-.61.546q-.078.126-.094.407-.015.281-.015.421v.297l.031.36.031.36q.031.17.078.265a.6.6 0 0 0 .204.265q.156.11.343.204t.375.14q.204.047.344.047a.65.65 0 0 0 .531-.25q.204-.25.313-.594.124-.343.156-.703.047-.375.047-.61m8.609-1.063q-.218.015-.375-.031l-.312-.125a3 3 0 0 0-.281-.11.6.6 0 0 0-.313-.046q-.312.016-.562.172a2.2 2.2 0 0 0-.438.39 2.7 2.7 0 0 0-.328.531 3 3 0 0 0-.219.563 4 4 0 0 0-.078.578q-.016.375-.016.813-.015.453-.015.859t-.031.64a5 5 0 0 1-.079.594 2.5 2.5 0 0 1-.203.625 1.4 1.4 0 0 1-.343.5.8.8 0 0 1-.563.204.75.75 0 0 1-.469-.157 1.4 1.4 0 0 1-.328-.406 4 4 0 0 1-.219-.61 8 8 0 0 1-.125-.703q-.047-.375-.078-.75-.015-.375-.031-.703v-.625q.016-.28.016-.453-.017-.546-.063-1.094a20 20 0 0 1-.031-1.109q0-.343.031-.766.031-.42.172-.78a1.6 1.6 0 0 1 .406-.626q.282-.25.766-.25.265 0 .453.172.187.172.297.422.125.25.187.531.063.282.079.516.375-.609.843-.984.47-.39 1.219-.422.375-.016.734.078.375.078.672.281.313.188.5.5.204.312.219.734.031.5-.297.766-.328.265-.797.281m3.907-5.062a.65.65 0 0 1-.125.39 1.2 1.2 0 0 1-.297.313 2 2 0 0 1-.407.203 1.5 1.5 0 0 1-.406.063.97.97 0 0 1-.547-.157q-.234-.156-.234-.484a.74.74 0 0 1 .109-.406q.126-.187.297-.297.172-.126.391-.188.218-.062.422-.062.297 0 .547.14t.25.485m.125 5.312v.469q0 .234-.016.453-.015.266-.016.719 0 .438-.031.953-.031.516-.109 1.047a4.4 4.4 0 0 1-.219.969 2 2 0 0 1-.422.718.9.9 0 0 1-.641.282.58.58 0 0 1-.5-.235 2.2 2.2 0 0 1-.343-.64 5.3 5.3 0 0 1-.188-.891 18 18 0 0 1-.094-.953q-.03-.47-.031-.86v-1.281q0-.469.031-1 .032-.53.11-1.078.094-.547.25-1 .171-.453.437-.734a.88.88 0 0 1 .672-.281q.422 0 .641.421.219.423.328.985t.125 1.125q.015.546.016.812m4.078 6.047q-.798 0-1.391-.422a3.7 3.7 0 0 1-1-1.078 5.2 5.2 0 0 1-.609-1.453 6.5 6.5 0 0 1-.203-1.594q0-.828.203-1.703.202-.89.625-1.61.421-.734 1.078-1.187.656-.469 1.562-.469.875 0 1.485.485.625.468 1 1.187.375.704.531 1.547a6.5 6.5 0 0 1 .109 1.594 8.6 8.6 0 0 1-.265 1.672 5.3 5.3 0 0 1-.61 1.516q-.405.671-1.031 1.093t-1.484.422m.156-7.062q-.234 0-.422.25-.171.25-.297.609-.11.36-.172.766-.062.39-.062.687 0 .375.062.813.078.437.203.812.126.36.297.61.188.234.422.234.25 0 .422-.234.187-.236.297-.594.11-.36.156-.781a8 8 0 0 0 .047-.813q0-.345-.062-.75a4.3 4.3 0 0 0-.188-.781 1.8 1.8 0 0 0-.297-.594q-.172-.234-.406-.234m13.594.609q0 .078-.016.172a1 1 0 0 1-.047.156 1.5 1.5 0 0 1-.437.61 1.1 1.1 0 0 1-.703.234q-.61 0-.829-.61a.5.5 0 0 1-.031-.171q0-.11-.015-.22v-.452a.9.9 0 0 0-.11-.344q-.078-.125-.265-.125-.266 0-.516.344a3.8 3.8 0 0 0-.422.797 7 7 0 0 0-.281.937q-.11.485-.11.781 0 .236.032.579.031.328.125.64.094.313.25.547.171.219.437.219a.8.8 0 0 0 .485-.156q.234-.172.453-.391.203-.187.437-.39a.87.87 0 0 1 .563-.204q.39 0 .609.281a.97.97 0 0 1 .234.641q0 .532-.281 1a3.2 3.2 0 0 1-.703.797q-.422.328-.937.516a2.7 2.7 0 0 1-.985.203q-.843 0-1.437-.422a3.3 3.3 0 0 1-.938-1.063 5 5 0 0 1-.515-1.422 7.2 7.2 0 0 1-.157-1.453q0-.797.219-1.719.219-.937.672-1.734a4.3 4.3 0 0 1 1.156-1.328q.719-.531 1.703-.531.61 0 1.047.265.453.267.735.704.296.421.437.953.156.531.156 1.046v.157a1 1 0 0 1-.015.156m3.843 6.453q-.796 0-1.39-.422a3.7 3.7 0 0 1-1-1.078 5.2 5.2 0 0 1-.61-1.453 6.6 6.6 0 0 1-.203-1.594q0-.828.203-1.703.204-.89.625-1.61.423-.734 1.079-1.187.656-.469 1.562-.469.875 0 1.484.485.625.468 1 1.187.376.704.532 1.547a6.5 6.5 0 0 1 .109 1.594 8.6 8.6 0 0 1-.266 1.672 5.3 5.3 0 0 1-.609 1.516 3.5 3.5 0 0 1-1.031 1.093q-.626.422-1.485.422m.157-7.062q-.235 0-.422.25-.172.25-.297.609-.11.36-.172.766a4.4 4.4 0 0 0-.062.687q0 .375.062.813.078.437.203.812.126.36.297.61.188.234.422.234.25 0 .422-.234.188-.236.297-.594.11-.36.156-.781a8 8 0 0 0 .047-.813q0-.345-.063-.75a4.3 4.3 0 0 0-.187-.781 1.8 1.8 0 0 0-.297-.594q-.172-.234-.406-.234m9.453.765q-.219.015-.375-.031l-.313-.125a3 3 0 0 0-.281-.11.6.6 0 0 0-.312-.046q-.313.016-.563.172a2.2 2.2 0 0 0-.437.39 2.7 2.7 0 0 0-.329.531 3 3 0 0 0-.218.563 4 4 0 0 0-.078.578q-.016.375-.016.813-.015.453-.016.859 0 .406-.031.64-.015.25-.078.594a2.6 2.6 0 0 1-.203.625 1.4 1.4 0 0 1-.344.5.8.8 0 0 1-.562.204.75.75 0 0 1-.469-.157 1.4 1.4 0 0 1-.328-.406 3.7 3.7 0 0 1-.219-.61 8 8 0 0 1-.125-.703q-.046-.375-.078-.75l-.031-.703v-.625q.015-.28.015-.453-.015-.546-.062-1.094a20 20 0 0 1-.032-1.109q0-.343.032-.766.031-.42.172-.78a1.6 1.6 0 0 1 .406-.626q.281-.25.765-.25.267 0 .454.172.188.172.296.422.125.25.188.531t.078.516q.375-.609.844-.984.469-.39 1.219-.422.374-.016.734.078.375.078.672.281.312.188.5.5.202.312.219.734.03.5-.297.766a1.3 1.3 0 0 1-.797.281m8.484 1.188q0 .687-.156 1.515a5.3 5.3 0 0 1-.5 1.516q-.343.704-.922 1.172-.562.468-1.422.469-.219 0-.453-.032a2.2 2.2 0 0 1-.453-.109 1.7 1.7 0 0 1-.375-.203.9.9 0 0 1-.266-.36l-.14 2.25q-.016.36-.032.86 0 .499-.125.953a1.7 1.7 0 0 1-.39.766q-.266.327-.781.328-.297 0-.5-.313a2.5 2.5 0 0 1-.329-.765 9 9 0 0 1-.171-1.047 14 14 0 0 1-.079-1.11 35 35 0 0 1-.015-.968v-.641q0-1.047-.016-2.078-.015-1.047-.015-2.094v-.578q0-.405.031-.875.031-.468.094-.969.078-.5.218-.906.141-.422.36-.672a.67.67 0 0 1 .531-.266q.203 0 .359.126a.86.86 0 0 1 .282.296q.125.172.203.375.077.203.125.375a3.3 3.3 0 0 1 1.109-.828q.64-.28 1.359-.281.75 0 1.219.422.484.422.75 1.047.282.624.391 1.344.11.702.109 1.28m-2.234-.125q0-.234-.047-.469a1.3 1.3 0 0 0-.141-.453.76.76 0 0 0-.281-.344.76.76 0 0 0-.469-.14q-.374 0-.797.25-.405.234-.609.546-.078.126-.094.407-.015.281-.015.421v.297l.031.36.031.36q.031.17.078.265a.6.6 0 0 0 .203.265q.157.11.344.204t.375.14q.203.047.344.047a.65.65 0 0 0 .531-.25q.204-.25.313-.594.125-.343.156-.703.047-.375.047-.61m6.156 5.234q-.797 0-1.391-.422a3.7 3.7 0 0 1-1-1.078 5.2 5.2 0 0 1-.609-1.453 6.6 6.6 0 0 1-.203-1.594q0-.828.203-1.703.204-.89.625-1.61.422-.734 1.078-1.187.657-.469 1.563-.469.875 0 1.484.485.625.468 1 1.187.375.704.531 1.547.157.844.11 1.594a8.6 8.6 0 0 1-.266 1.672 5.3 5.3 0 0 1-.609 1.516 3.5 3.5 0 0 1-1.032 1.093q-.624.422-1.484.422m.156-7.062q-.234 0-.422.25-.171.25-.296.609-.11.36-.172.766-.063.39-.063.687 0 .375.063.813.078.437.203.812.124.36.297.61.187.234.422.234.25 0 .421-.234.188-.236.297-.594.11-.36.157-.781.046-.438.046-.813 0-.345-.062-.75a4.3 4.3 0 0 0-.188-.781 1.7 1.7 0 0 0-.296-.594q-.172-.234-.407-.234m14.344 3.828q0 .531-.344 1.047-.328.5-.843.906a5 5 0 0 1-1.079.64q-.577.235-1.062.235a2.76 2.76 0 0 1-1.484-.406 3.9 3.9 0 0 1-1.079-1.063 5.2 5.2 0 0 1-.671-1.406 5.6 5.6 0 0 1-.219-1.516q0-.78.219-1.672.218-.89.656-1.64.453-.75 1.125-1.25.687-.5 1.625-.5.532 0 1.015.187a2.45 2.45 0 0 1 1.422 1.281q.219.454.219 1.016 0 .735-.312 1.375a3.7 3.7 0 0 1-.829 1.11 4.4 4.4 0 0 1-1.187.765 4 4 0 0 1-1.375.313q.063.453.359.656.313.203.735.203.312 0 .609-.156a6 6 0 0 0 .578-.344q.282-.203.547-.36.281-.155.563-.156.312 0 .562.204a.65.65 0 0 1 .25.53m-2.531-3.828a.94.94 0 0 0-.11-.422.36.36 0 0 0-.343-.219.9.9 0 0 0-.578.188 1.4 1.4 0 0 0-.391.453q-.157.266-.25.578a3 3 0 0 0-.094.578q.219-.047.516-.125.312-.078.578-.203.281-.141.469-.344a.66.66 0 0 0 .203-.484m14.078 1.953q0 .687-.156 1.515a5.3 5.3 0 0 1-.5 1.516 3.4 3.4 0 0 1-.922 1.172q-.562.468-1.422.469-.219 0-.453-.032a2.2 2.2 0 0 1-.453-.109 1.6 1.6 0 0 1-.375-.203.9.9 0 0 1-.266-.36l-.141 2.25q-.015.36-.031.86 0 .499-.125.953a1.7 1.7 0 0 1-.39.766q-.266.327-.782.328-.297 0-.5-.313a2.5 2.5 0 0 1-.328-.765 9 9 0 0 1-.172-1.047 15 15 0 0 1-.078-1.11 35 35 0 0 1-.015-.968v-.641q0-1.047-.016-2.078-.015-1.047-.016-2.094v-.578q0-.405.032-.875.03-.468.093-.969.078-.5.219-.906.141-.422.359-.672a.67.67 0 0 1 .532-.266q.203 0 .359.126a.85.85 0 0 1 .281.296 1.6 1.6 0 0 1 .203.375q.079.203.125.375.485-.546 1.11-.828.64-.28 1.359-.281.75 0 1.219.422.484.422.75 1.047.281.624.391 1.344.11.702.109 1.28m-2.234-.125q0-.234-.047-.469a1.3 1.3 0 0 0-.141-.453.76.76 0 0 0-.281-.344.76.76 0 0 0-.469-.14q-.375 0-.797.25a1.74 1.74 0 0 0-.609.546q-.078.126-.094.407t-.016.421v.297l.032.36.031.36q.031.17.078.265a.6.6 0 0 0 .203.265q.156.11.344.204t.375.14q.203.047.344.047a.65.65 0 0 0 .531-.25q.203-.25.312-.594.126-.343.157-.703.047-.375.047-.61m9.828 2.578q0 .28-.032.734-.015.454-.125.89a2.1 2.1 0 0 1-.343.735q-.235.313-.657.313-.578 0-.89-.375t-.297-.938q-.5.438-1.141.688-.624.25-1.281.25-.453 0-.859-.219a2.7 2.7 0 0 1-.719-.562 2.9 2.9 0 0 1-.5-.766 2.2 2.2 0 0 1-.188-.86q0-.75.454-1.312a4.2 4.2 0 0 1 1.14-.953q.672-.406 1.422-.64.766-.235 1.359-.313v-.14a.6.6 0 0 0 .016-.141q0-.485-.266-.782-.265-.297-.75-.297-.39 0-.671.141a3.3 3.3 0 0 0-.532.297q-.25.156-.5.297a1.24 1.24 0 0 1-.562.125.87.87 0 0 1-.594-.219.74.74 0 0 1-.234-.562q0-.516.297-.938.312-.422.765-.703a4 4 0 0 1 1-.453 3.4 3.4 0 0 1 1-.172q.422 0 .844.11.422.093.797.312.375.203.672.515.312.297.5.704.28.577.453 1.234.172.64.265 1.328.095.672.125 1.36.032.671.032 1.312m-2.5-.5-.047-1.063h-.063a.13.13 0 0 0-.062-.015q-.203 0-.516.11-.297.093-.578.28a2.3 2.3 0 0 0-.484.391.7.7 0 0 0-.188.453q0 .219.156.297a.8.8 0 0 0 .36.078q.344 0 .734-.172.391-.188.688-.36m8.859-3.14q-.219.015-.375-.032l-.312-.125a3 3 0 0 0-.282-.11.6.6 0 0 0-.312-.046q-.312.016-.563.172a2.2 2.2 0 0 0-.437.39 2.7 2.7 0 0 0-.328.531 3 3 0 0 0-.219.563 4 4 0 0 0-.078.578q-.016.375-.016.813-.015.453-.015.859t-.032.64q-.015.25-.078.594a2.5 2.5 0 0 1-.203.625 1.4 1.4 0 0 1-.344.5.8.8 0 0 1-.562.204.75.75 0 0 1-.469-.157 1.4 1.4 0 0 1-.328-.406 4 4 0 0 1-.219-.61 8 8 0 0 1-.125-.703q-.047-.375-.078-.75-.015-.375-.031-.703v-.625q.015-.28.015-.453-.015-.546-.062-1.094a20 20 0 0 1-.031-1.109q0-.343.031-.766.031-.42.172-.78a1.6 1.6 0 0 1 .406-.626q.282-.25.766-.25.266 0 .453.172.188.172.297.422.125.25.187.531.063.282.078.516.375-.609.844-.984.47-.39 1.219-.422.375-.016.734.078.375.078.672.281.312.188.5.5.203.312.219.734.032.5-.297.766-.328.265-.797.281m7.969 3.64q0 .28-.031.734a4.3 4.3 0 0 1-.125.89 2.1 2.1 0 0 1-.344.735q-.234.313-.656.313-.579 0-.891-.375t-.297-.938q-.5.438-1.141.688-.624.25-1.281.25-.453 0-.859-.219a2.7 2.7 0 0 1-.719-.562 2.9 2.9 0 0 1-.5-.766 2.2 2.2 0 0 1-.187-.86q0-.75.453-1.312a4.2 4.2 0 0 1 1.14-.953q.672-.406 1.422-.64a8.5 8.5 0 0 1 1.36-.313v-.14a.6.6 0 0 0 .015-.141q0-.485-.265-.782-.266-.297-.75-.297-.392 0-.672.141a3.3 3.3 0 0 0-.532.297q-.25.156-.5.297a1.24 1.24 0 0 1-.562.125.87.87 0 0 1-.594-.219.74.74 0 0 1-.234-.562q0-.516.297-.938.312-.422.765-.703a4 4 0 0 1 1-.453 3.4 3.4 0 0 1 1-.172q.423 0 .844.11.422.093.797.312.375.203.672.515.312.297.5.704.28.577.453 1.234.172.64.266 1.328.093.672.125 1.36.03.671.031 1.312m-2.5-.5-.047-1.063h-.063a.13.13 0 0 0-.062-.015q-.202 0-.516.11-.297.093-.578.28a2.3 2.3 0 0 0-.484.391.7.7 0 0 0-.188.453q0 .219.157.297a.8.8 0 0 0 .359.078q.344 0 .734-.172.391-.188.688-.36m12.922-2.453v.812q0 .5-.032 1.094-.015.594-.093 1.203a5.3 5.3 0 0 1-.25 1.078q-.156.485-.407.797a.78.78 0 0 1-.64.313.6.6 0 0 1-.531-.282 2.2 2.2 0 0 1-.25-.687 5 5 0 0 1-.094-.797v-.64q0-.704.047-1.376t.047-1.375v-.28q0-.204-.032-.407a1.2 1.2 0 0 0-.109-.36q-.062-.156-.203-.156-.282 0-.453.297a2.7 2.7 0 0 0-.282.672q-.109.39-.156.781-.047.375-.062.563a9 9 0 0 0-.063.61q-.015.405-.062.89a9 9 0 0 1-.125 1 6 6 0 0 1-.219.922q-.125.405-.328.671t-.5.266a.64.64 0 0 1-.578-.328 2.4 2.4 0 0 1-.297-.766 6 6 0 0 1-.125-.89 20 20 0 0 1-.016-.703v-.516q.016-.25.016-.516v-.359a10 10 0 0 0-.016-.547 7 7 0 0 0-.031-.64 5 5 0 0 0-.063-.594 1.5 1.5 0 0 0-.14-.453q-.094-.172-.219-.172-.203 0-.375.265-.171.25-.297.61-.125.343-.203.687-.063.345-.062.5v.094q0 .75.093 1.469.094.719.094 1.469 0 .437-.281.812-.282.36-.781.36a.76.76 0 0 1-.594-.266 2.4 2.4 0 0 1-.391-.719 6 6 0 0 1-.25-.953 13 13 0 0 1-.109-1.031 39 39 0 0 1-.047-.922v-.625q0-.234-.016-.688 0-.453.016-.984.031-.531.094-1.078a5.4 5.4 0 0 1 .203-1.016 2.3 2.3 0 0 1 .359-.734.73.73 0 0 1 .594-.297q.407 0 .656.219.266.218.266.656 0 .093-.016.187 0 .094-.015.172.171-.25.421-.5.25-.265.532-.469.297-.218.625-.343.327-.14.656-.14.312 0 .562.171t.438.438q.188.25.312.546.126.297.172.563a5 5 0 0 1 .375-.563q.235-.297.5-.515.266-.219.578-.36.328-.14.672-.14.329 0 .563.234t.406.61q.172.36.266.828.093.453.156.906.063.437.078.828.016.375.016.594m11.531-5.125q0 1.14-.094 2.265-.078 1.126-.078 2.266 0 .922.047 1.828.062.906.062 1.828 0 .25-.015.61-.016.344-.11.671a1.3 1.3 0 0 1-.281.563q-.187.234-.547.234-.468 0-.781-.343a1.7 1.7 0 0 1-.375-.797 2.7 2.7 0 0 1-.859.953q-.563.39-1.219.39-.703 0-1.219-.484a4.3 4.3 0 0 1-.844-1.172 7 7 0 0 1-.5-1.437 6.5 6.5 0 0 1-.156-1.297 10 10 0 0 1 .203-1.906 8 8 0 0 1 .313-1q.187-.5.469-.891.297-.39.687-.625.406-.234.922-.234.562 0 1.078.328.516.329.781.812l.141-2.484q.015-.297.047-.688a4.3 4.3 0 0 1 .125-.765q.11-.36.328-.61t.641-.25q.453 0 .703.22.25.218.359.562.125.328.141.718.031.39.031.735m-2.547 6.937q0-.36-.016-.703-.015-.343 0-.703a8 8 0 0 0-.218-.437 2 2 0 0 0-.313-.454 1.6 1.6 0 0 0-.39-.359.85.85 0 0 0-.469-.14.6.6 0 0 0-.453.171 1 1 0 0 0-.25.422 2.5 2.5 0 0 0-.11.516q-.015.281-.015.484a7.3 7.3 0 0 0 .14 1.297q.094.375.25.656.157.281.422.281.204 0 .406-.078.204-.093.375-.218a3 3 0 0 0 .344-.297q.173-.172.297-.313zm10.125.563q0 .531-.344 1.047-.328.5-.843.906a5 5 0 0 1-1.079.64q-.577.235-1.062.235a2.76 2.76 0 0 1-1.484-.406 3.9 3.9 0 0 1-1.079-1.063 5.2 5.2 0 0 1-.671-1.406 5.6 5.6 0 0 1-.219-1.516q0-.78.219-1.672.218-.89.656-1.64.453-.75 1.125-1.25.687-.5 1.625-.5.531 0 1.015.187a2.45 2.45 0 0 1 1.422 1.281q.219.454.219 1.016 0 .735-.312 1.375a3.7 3.7 0 0 1-.829 1.11 4.4 4.4 0 0 1-1.187.765 4 4 0 0 1-1.375.313q.062.453.359.656.313.203.735.203.312 0 .609-.156a6 6 0 0 0 .578-.344q.282-.203.547-.36.281-.155.563-.156.312 0 .562.204a.65.65 0 0 1 .25.53m-2.531-3.828a.94.94 0 0 0-.11-.422.36.36 0 0 0-.343-.219.9.9 0 0 0-.578.188 1.4 1.4 0 0 0-.391.453q-.156.266-.25.578a3 3 0 0 0-.094.578q.219-.047.516-.125.312-.078.578-.203.281-.141.469-.344a.66.66 0 0 0 .203-.484m-140.227 22.953q0 .687-.156 1.515a5.3 5.3 0 0 1-.5 1.516 3.4 3.4 0 0 1-.922 1.172q-.562.469-1.422.469-.219 0-.453-.032a2.2 2.2 0 0 1-.453-.109 1.7 1.7 0 0 1-.375-.203.9.9 0 0 1-.266-.36l-.14 2.25q-.016.36-.031.86 0 .5-.125.953a1.74 1.74 0 0 1-.391.766q-.266.328-.781.328-.297 0-.5-.313a2.5 2.5 0 0 1-.328-.765 9 9 0 0 1-.172-1.047 14 14 0 0 1-.078-1.11 31 31 0 0 1-.016-.968v-.641q0-1.047-.016-2.078-.015-1.047-.015-2.094v-.578q0-.407.031-.875t.094-.969q.078-.5.218-.906.141-.422.36-.672a.67.67 0 0 1 .531-.266q.203 0 .359.126a.86.86 0 0 1 .282.296q.125.172.203.375t.125.375a3.3 3.3 0 0 1 1.109-.828q.64-.28 1.36-.281.75 0 1.218.422.484.422.75 1.047.282.624.391 1.343.11.703.109 1.282m-2.234-.125q0-.235-.047-.469a1.3 1.3 0 0 0-.141-.453.76.76 0 0 0-.281-.344.76.76 0 0 0-.469-.141q-.375 0-.796.25a1.8 1.8 0 0 0-.61.547q-.078.126-.094.407-.015.28-.015.422v.296l.031.36.031.359q.031.172.078.266a.6.6 0 0 0 .204.265q.156.11.343.204t.375.14q.204.047.344.047a.65.65 0 0 0 .531-.25 1.8 1.8 0 0 0 .313-.594 2.8 2.8 0 0 0 .156-.703q.047-.375.047-.609m8.609-1.063q-.219.016-.375-.031l-.312-.125a3 3 0 0 0-.281-.109.6.6 0 0 0-.313-.047q-.312.015-.562.172a2.2 2.2 0 0 0-.438.39 2.7 2.7 0 0 0-.328.532 3 3 0 0 0-.219.562 4 4 0 0 0-.078.578q-.015.375-.016.813-.015.453-.015.859t-.031.641a5 5 0 0 1-.079.593 2.5 2.5 0 0 1-.203.625 1.4 1.4 0 0 1-.343.5.8.8 0 0 1-.563.203.75.75 0 0 1-.469-.156 1.4 1.4 0 0 1-.328-.406 4 4 0 0 1-.219-.609 8 8 0 0 1-.125-.703q-.047-.375-.078-.75l-.031-.704v-.625a9 9 0 0 0 .016-.453 20 20 0 0 0-.063-1.094 20 20 0 0 1-.031-1.109q0-.343.031-.766.031-.42.172-.78a1.6 1.6 0 0 1 .406-.626q.282-.25.766-.25.266 0 .453.172.188.172.297.422.125.25.187.531.063.282.079.516.375-.609.843-.984.47-.39 1.219-.422.375-.016.734.078.375.078.672.281.313.188.5.5.204.312.219.734.031.5-.297.766a1.3 1.3 0 0 1-.797.281m4.297 6.297q-.797 0-1.39-.422a3.7 3.7 0 0 1-1-1.078 5.2 5.2 0 0 1-.61-1.453 6.6 6.6 0 0 1-.203-1.594q0-.828.203-1.703.204-.89.625-1.61.422-.734 1.078-1.187.657-.469 1.563-.469.875 0 1.484.485.625.468 1 1.187.375.704.531 1.547.157.844.11 1.594a8.6 8.6 0 0 1-.266 1.672 5.3 5.3 0 0 1-.609 1.516 3.5 3.5 0 0 1-1.031 1.093q-.626.422-1.485.422m.156-7.062q-.234 0-.421.25a2.5 2.5 0 0 0-.297.609q-.11.36-.172.766-.063.39-.063.687 0 .375.063.813.078.437.203.812.124.36.297.61.187.234.422.234.25 0 .422-.234.187-.235.296-.594.11-.36.157-.782a8 8 0 0 0 .047-.812q0-.344-.063-.75a4.3 4.3 0 0 0-.187-.781 1.8 1.8 0 0 0-.297-.594q-.172-.234-.407-.234m10.766-3.672q0 1.14-.094 2.265-.078 1.125-.078 2.266 0 .922.047 1.828.063.906.063 1.828 0 .25-.016.61a3 3 0 0 1-.109.672 1.3 1.3 0 0 1-.282.562q-.187.234-.547.234-.469 0-.781-.343a1.7 1.7 0 0 1-.375-.797 2.7 2.7 0 0 1-.859.953q-.562.39-1.219.391-.703 0-1.219-.485a4.3 4.3 0 0 1-.843-1.172 7 7 0 0 1-.5-1.437 6.4 6.4 0 0 1-.157-1.297 10 10 0 0 1 .203-1.906q.126-.516.313-1 .187-.5.469-.891.297-.39.687-.625.406-.234.922-.234.562 0 1.078.328.516.329.781.812l.141-2.484q.015-.297.047-.688a4.3 4.3 0 0 1 .125-.765q.11-.36.328-.61t.641-.25q.453 0 .703.22.25.218.359.562.124.327.141.718.031.39.031.735m-2.547 6.937q0-.359-.015-.703a8 8 0 0 1 0-.703 10 10 0 0 0-.219-.438 2 2 0 0 0-.313-.453 1.6 1.6 0 0 0-.39-.359.85.85 0 0 0-.469-.141.6.6 0 0 0-.453.172 1 1 0 0 0-.25.422 2.5 2.5 0 0 0-.11.516q-.015.281-.015.484a7.3 7.3 0 0 0 .14 1.297q.094.375.25.656.157.282.422.282.203 0 .407-.079.202-.093.375-.218.187-.141.343-.297.173-.172.297-.313zm10.422-1.125q0 .86-.172 1.703a4.7 4.7 0 0 1-.578 1.516 3.1 3.1 0 0 1-1.094 1.062q-.672.407-1.687.407-1 0-1.672-.391a3.2 3.2 0 0 1-1.078-1.062 4.8 4.8 0 0 1-.563-1.485 9 9 0 0 1-.156-1.687q0-.937.219-1.86.046-.249.172-.687.14-.453.343-.875.22-.438.485-.75.28-.313.609-.313.312 0 .5.172.187.172.297.438.11.25.141.547.03.28.031.515 0 .36-.063.703-.046.345-.109.688l-.125.937a9.5 9.5 0 0 0-.031 1.469q.031.282.125.547t.265.453q.172.172.485.172.406 0 .64-.219.25-.219.36-.547.125-.328.156-.703t.031-.687q0-.688-.093-1.344-.094-.672-.172-1.36a1.5 1.5 0 0 1 .062-.687q.078-.234.219-.422.14-.187.344-.297a.84.84 0 0 1 .453-.125q.343 0 .609.25.266.235.438.625.187.375.297.86.124.468.187.937.078.453.094.86.031.405.031.64m7.969 3a.71.71 0 0 1-.266.547 2.5 2.5 0 0 1-.656.422 4.6 4.6 0 0 1-.906.312 11 11 0 0 1-1 .204q-.485.078-.922.109a7 7 0 0 1-.703.047q-.266 0-.75-.016a5 5 0 0 1-.938-.125 2.4 2.4 0 0 1-.812-.312.74.74 0 0 1-.344-.641q0-.312.219-.766.218-.453.562-.984t.766-1.078q.421-.562.828-1.078.406-.515.766-.938.359-.437.562-.718-.219.047-.562.14-.328.078-.688.156-.36.079-.703.141a4 4 0 0 1-.563.047q-.187 0-.421-.062a2.5 2.5 0 0 1-.454-.204 1.7 1.7 0 0 1-.359-.296.6.6 0 0 1-.141-.391q0-.282.25-.516a2.3 2.3 0 0 1 .657-.437q.406-.203.906-.344.5-.156.984-.25a8 8 0 0 1 1.625-.203q.297 0 .719.062.422.063.813.22.406.155.687.421a.88.88 0 0 1 .281.672q0 .124-.031.234-.015.094-.047.219-.031.11-.281.5-.234.375-.594.906-.344.516-.765 1.125-.407.594-.782 1.125a134 134 0 0 0-1.031 1.485q.64-.172 1.297-.282a7.3 7.3 0 0 1 1.328-.125q.157 0 .406.016t.485.094q.234.062.406.203a.42.42 0 0 1 .172.359m2.89-9.437a.64.64 0 0 1-.125.39 1.2 1.2 0 0 1-.296.313 2 2 0 0 1-.407.203 1.5 1.5 0 0 1-.406.063.96.96 0 0 1-.547-.157q-.234-.156-.234-.484a.74.74 0 0 1 .109-.406 1 1 0 0 1 .297-.297q.172-.126.391-.188a1.5 1.5 0 0 1 .422-.062q.296 0 .546.14t.25.485m.125 5.312v.469q0 .234-.015.453-.016.266-.016.719 0 .438-.031.953a12 12 0 0 1-.109 1.047 4.5 4.5 0 0 1-.219.969 2 2 0 0 1-.422.718.9.9 0 0 1-.641.282.58.58 0 0 1-.5-.235 2.2 2.2 0 0 1-.343-.64 5.3 5.3 0 0 1-.188-.891 17 17 0 0 1-.094-.953 13 13 0 0 1-.031-.859v-1.282q0-.468.031-1 .032-.53.11-1.078a6 6 0 0 1 .25-1q.171-.453.437-.734a.88.88 0 0 1 .672-.281q.422 0 .641.421.218.423.328.985.109.563.125 1.125.015.546.015.812m6.532-.25q-.219.016-.375-.031l-.313-.125a3 3 0 0 0-.281-.109.6.6 0 0 0-.313-.047q-.312.015-.562.172a2.2 2.2 0 0 0-.438.39 2.7 2.7 0 0 0-.328.532 3 3 0 0 0-.218.562 4 4 0 0 0-.079.578q-.015.375-.015.813-.016.453-.016.859t-.031.641a6 6 0 0 1-.078.593q-.063.328-.203.625a1.4 1.4 0 0 1-.344.5.8.8 0 0 1-.563.203.75.75 0 0 1-.468-.156 1.4 1.4 0 0 1-.328-.406 3.6 3.6 0 0 1-.219-.609 8 8 0 0 1-.125-.703q-.047-.375-.078-.75-.016-.375-.032-.704v-.625q.016-.28.016-.453-.015-.546-.062-1.094a20 20 0 0 1-.032-1.109q0-.343.032-.766.03-.42.171-.78.141-.376.407-.626.28-.25.765-.25.266 0 .453.172.188.172.297.422.125.25.188.531.062.282.078.516.375-.609.844-.984.468-.39 1.218-.422.375-.016.735.078.375.078.672.281.312.188.5.5.203.312.218.734.031.5-.296.766a1.3 1.3 0 0 1-.797.281m7.672-5.062a.65.65 0 0 1-.125.39 1.2 1.2 0 0 1-.297.313 2 2 0 0 1-.407.203 1.5 1.5 0 0 1-.406.063.97.97 0 0 1-.547-.157q-.234-.156-.234-.484a.74.74 0 0 1 .109-.406q.126-.187.297-.297.172-.126.391-.188.218-.062.422-.062.297 0 .547.14t.25.485m.125 5.312v.469q0 .234-.016.453-.016.266-.016.719 0 .438-.031.953a12 12 0 0 1-.109 1.047 4.5 4.5 0 0 1-.219.969 2 2 0 0 1-.422.718.9.9 0 0 1-.641.282.58.58 0 0 1-.5-.235 2.2 2.2 0 0 1-.343-.64 5.3 5.3 0 0 1-.188-.891 17 17 0 0 1-.094-.953q-.03-.47-.031-.859v-1.282q0-.468.031-1 .032-.53.11-1.078.094-.547.25-1 .171-.453.437-.734a.88.88 0 0 1 .672-.281q.422 0 .641.421.219.423.328.985t.125 1.125q.016.546.016.812m5.546 6.032q-.265 0-.421-.25a1.7 1.7 0 0 1-.235-.547 4.4 4.4 0 0 1-.109-.625 11 11 0 0 1-.016-.5q0-.469.047-.938l.125-.937q.078-.469.125-.938.063-.469.063-.937 0-.188-.016-.407a1.7 1.7 0 0 0-.078-.406.66.66 0 0 0-.172-.328.45.45 0 0 0-.328-.125q-.14 0-.313.234a3.4 3.4 0 0 0-.328.516q-.14.281-.25.578a1.5 1.5 0 0 0-.094.422v.703q.016.344.016.703v.906q-.015.282-.047.579-.031.296-.094.578-.047.281-.14.547a1.8 1.8 0 0 1-.25.453 1.2 1.2 0 0 1-.344.312.9.9 0 0 1-.484.125.7.7 0 0 1-.516-.203 1.5 1.5 0 0 1-.328-.515 3.7 3.7 0 0 1-.188-.719 26 26 0 0 1-.078-.781q-.015-.391-.015-.704.015-.327.015-.515v-.735q0-.593-.031-1.172-.015-.577-.016-1.156v-.797q.016-.484.125-.937.11-.469.36-.797t.734-.328q.219 0 .391.14.171.141.297.344.14.203.218.438.095.234.141.406.156-.22.359-.422.22-.203.485-.36a2.53 2.53 0 0 1 1.344-.343q.796 0 1.234.39.453.375.656.954.22.563.266 1.218.047.657.047 1.188 0 .266-.047.797-.047.516-.156 1.156-.095.625-.266 1.297-.172.657-.406 1.203a3 3 0 0 1-.563.891q-.312.344-.719.344m7.61-9.032q0 .453-.313.672a6 6 0 0 1-.672.422q-.375.188-.687.453-.297.266-.297.797 0 .282.125.484.14.204.328.375.203.157.438.329.234.171.422.39.202.219.328.531.14.313.14.766 0 .656-.343 1.297a4.3 4.3 0 0 1-.86 1.125 4.3 4.3 0 0 1-1.172.781q-.656.297-1.297.297-.266 0-.531-.047a1.5 1.5 0 0 1-.484-.14 1.04 1.04 0 0 1-.344-.297.9.9 0 0 1-.141-.516q0-.438.172-.672.173-.25.438-.391.265-.14.562-.218.313-.078.578-.188.266-.124.438-.312.172-.187.172-.532 0-.327-.266-.671-.25-.36-.562-.75a8 8 0 0 1-.578-.86 2.03 2.03 0 0 1-.25-1q0-.672.265-1.234.281-.578.735-1a3.5 3.5 0 0 1 1.062-.656q.594-.25 1.25-.25.25 0 .484.046.25.048.438.172a.8.8 0 0 1 .297.313.86.86 0 0 1 .125.484m7.469 4.125q0 .86-.172 1.703a4.8 4.8 0 0 1-.578 1.516 3.14 3.14 0 0 1-1.094 1.062q-.672.407-1.688.407-1 0-1.672-.391a3.2 3.2 0 0 1-1.078-1.062 4.8 4.8 0 0 1-.562-1.485 9 9 0 0 1-.156-1.687q0-.937.218-1.86.048-.249.172-.687a6 6 0 0 1 .344-.875q.219-.438.484-.75.282-.313.61-.313.312 0 .5.172.187.172.297.438.108.25.14.547.031.28.031.515 0 .36-.062.703-.047.345-.109.688l-.125.937a9 9 0 0 0-.032 1.469q.032.282.125.547.094.266.266.453.172.172.484.172.407 0 .641-.219.25-.219.359-.547.126-.328.157-.703a9 9 0 0 0 .031-.687 9.4 9.4 0 0 0-.094-1.344q-.094-.672-.172-1.36a1.5 1.5 0 0 1 .063-.687 1.5 1.5 0 0 1 .218-.422q.141-.187.344-.297a.85.85 0 0 1 .453-.125q.344 0 .61.25.266.235.437.625.187.375.297.86.125.468.188.937.078.453.093.86.032.405.032.64m3.875-5q0 .844-.079 1.703-.062.844-.062 1.704 0 1.109.062 2.218.08 1.11.079 2.235 0 .281-.032.64a2.2 2.2 0 0 1-.156.641 1.2 1.2 0 0 1-.344.5q-.234.203-.625.203-.375 0-.656-.375a3.3 3.3 0 0 1-.453-.922 12 12 0 0 1-.297-1.281 23 23 0 0 1-.172-1.359q-.047-.672-.078-1.219-.015-.562-.016-.828 0-.297.016-.86.031-.562.109-1.219.079-.656.204-1.328.14-.687.359-1.234.219-.562.516-.906.312-.36.734-.36.344 0 .516.235.187.219.265.547.078.312.094.671.016.345.016.594m3.765-1.437a.64.64 0 0 1-.125.39 1.2 1.2 0 0 1-.297.313q-.187.124-.406.203a1.5 1.5 0 0 1-.406.063.96.96 0 0 1-.547-.157q-.234-.156-.234-.484a.74.74 0 0 1 .109-.406 1 1 0 0 1 .297-.297q.172-.126.39-.188a1.5 1.5 0 0 1 .422-.062q.298 0 .547.14t.25.485m.125 5.312v.469q0 .234-.015.453-.016.266-.016.719 0 .438-.031.953-.032.516-.11 1.047a4.4 4.4 0 0 1-.218.969 2 2 0 0 1-.422.718.9.9 0 0 1-.641.282.58.58 0 0 1-.5-.235 2.2 2.2 0 0 1-.344-.64 5.3 5.3 0 0 1-.187-.891 17 17 0 0 1-.094-.953 13 13 0 0 1-.031-.859v-1.282q0-.468.031-1 .031-.53.109-1.078a6.5 6.5 0 0 1 .25-1 2.2 2.2 0 0 1 .438-.734.88.88 0 0 1 .672-.281q.422 0 .64.421.22.423.329.985.108.563.125 1.125.015.546.015.812m5.547 6.032q-.266 0-.422-.25a1.8 1.8 0 0 1-.234-.547 4.4 4.4 0 0 1-.11-.625 9 9 0 0 1 .032-1.438l.125-.937q.077-.469.125-.938.062-.469.062-.937a6 6 0 0 0-.015-.407 1.7 1.7 0 0 0-.079-.406.66.66 0 0 0-.171-.328.45.45 0 0 0-.329-.125q-.14 0-.312.234a3.4 3.4 0 0 0-.328.516q-.14.281-.25.578a1.5 1.5 0 0 0-.094.422v.703q.015.344.016.703v.906q-.016.282-.047.579-.031.296-.094.578-.046.281-.141.547a1.7 1.7 0 0 1-.25.453 1.2 1.2 0 0 1-.343.312.9.9 0 0 1-.485.125.7.7 0 0 1-.515-.203 1.5 1.5 0 0 1-.328-.515 3.6 3.6 0 0 1-.188-.719 26 26 0 0 1-.078-.781q-.015-.391-.016-.704.016-.327.016-.515v-.735q0-.593-.031-1.172-.016-.577-.016-1.156v-.797q.015-.484.125-.937.11-.469.359-.797.25-.328.735-.328.219 0 .39.14.173.141.297.344.141.203.219.438.094.234.141.406.156-.22.359-.422.219-.203.484-.36a2.55 2.55 0 0 1 1.344-.343q.797 0 1.235.39.453.375.656.954.219.563.265 1.218.048.657.047 1.188 0 .266-.047.797-.047.516-.156 1.156-.094.625-.265 1.297-.172.657-.407 1.203a3 3 0 0 1-.562.891q-.313.344-.719.344m9.672-2.641q0 .28-.031.734a4.3 4.3 0 0 1-.125.891 2.1 2.1 0 0 1-.344.734q-.234.313-.656.313-.579 0-.891-.375t-.297-.938a3.8 3.8 0 0 1-1.14.688q-.625.25-1.282.25-.453 0-.859-.219a2.7 2.7 0 0 1-.719-.563 2.9 2.9 0 0 1-.5-.765 2.2 2.2 0 0 1-.187-.859q0-.75.453-1.313a4.2 4.2 0 0 1 1.14-.953 6.5 6.5 0 0 1 1.422-.641q.766-.234 1.36-.312v-.141a.6.6 0 0 0 .015-.14q0-.485-.265-.782-.266-.297-.75-.297-.392 0-.672.141a3 3 0 0 0-.531.297q-.25.156-.5.297a1.25 1.25 0 0 1-.563.125.87.87 0 0 1-.594-.219.74.74 0 0 1-.234-.562q0-.516.297-.938.312-.422.765-.703a4 4 0 0 1 1-.453 3.4 3.4 0 0 1 1-.172q.423 0 .844.11.422.093.797.312.375.203.672.515.312.297.5.704.28.577.453 1.234.172.64.266 1.328.093.672.125 1.359.031.672.031 1.313m-2.5-.5-.047-1.063h-.062a.14.14 0 0 0-.063-.015q-.202 0-.516.109-.296.094-.578.281a2.3 2.3 0 0 0-.484.391.7.7 0 0 0-.188.453q0 .219.157.297a.8.8 0 0 0 .359.078q.344 0 .734-.172.391-.188.688-.359m5.703 1.953q0 .203-.094.375a.9.9 0 0 1-.25.266q-.14.11-.328.171a1 1 0 0 1-.359.063q-.234 0-.516-.094a1.8 1.8 0 0 1-.5-.234 1.8 1.8 0 0 1-.375-.359.8.8 0 0 1-.156-.485q0-.421.359-.625a1.4 1.4 0 0 1 1.219-.14q.266.078.484.234.236.14.375.359a.8.8 0 0 1 .141.469"/><defs><filter id="a" width="300.301" height="128.454" x="0" y="0" color-interpolation-filters="sRGB" filterUnits="userSpaceOnUse"><feFlood flood-opacity="0" result="BackgroundImageFix"/><feBlend in="SourceGraphic" in2="BackgroundImageFix" result="shape"/><feColorMatrix in="SourceAlpha" result="hardAlpha" values="0 0 0 0 0 0 0 0 0 0 0 0 0 0 0 0 0 0 127 0"/><feOffset dy="4"/><feGaussianBlur stdDeviation="2"/><feComposite in2="hardAlpha" k2="-1" k3="1" operator="arithmetic"/><feColorMatrix values="0 0 0 0 0 0 0 0 0 0 0 0 0 0 0 0 0 0 0.25 0"/><feBlend in2="shape" result="effect1_innerShadow_1138_2044"/></filter></defs></svg>