<svg xmlns="http://www.w3.org/2000/svg" width="269" height="190" fill="none" viewBox="0 0 269 190"><g filter="url(#a)"><path fill="#3dc3ff" fill-rule="evenodd" d="M38.139 125.432C12.285 112.482 1 93.37 1 72.684 1 47.232 23.76 22.088 61.414 9.656 79.677 3.626 101.134 1 125.788 1c75.482 0 145.091 25.969 142.12 71.684 0 22.683-12.883 43.542-39.121 55.994-5.215 2.475-10.934 4.581-17.193 6.317-8.887 22.487-21.789 34.562-42.594 53.374 14.261-20.494 23.5-34.368 27.674-50.105-11.384 1.905-24.233 2.858-38.698 2.858-53.501 4.059-93.964-2.73-119.837-15.69" clip-rule="evenodd"/></g><path fill="#3dc3ff" d="m38.139 125.432.448-.894zM61.414 9.656l.313.95zm206.494 63.028-.998-.065-.002.065zm-39.121 55.994.429.904zm-17.193 6.317-.267-.963a1 1 0 0 0-.663.596zM169 188.369l-.821-.572a1.001 1.001 0 0 0 1.492 1.313zm27.674-50.105.966.257a1 1 0 0 0-1.131-1.243zm-38.698 2.858v-1l-.076.003zM1 72.684H0c0 21.124 11.556 40.551 37.69 53.642l.449-.894.448-.894C13.014 111.729 2 92.931 2 72.684zM61.414 9.656l-.314-.95C23.26 21.202 0 46.607 0 72.685h2c0-24.826 22.263-49.708 59.727-62.078zM125.788 1V0C101.07 0 79.498 2.632 61.1 8.707l.314.95.313.949C79.855 4.62 101.198 2 125.788 2zm142.12 71.684.998.065c1.527-23.487-15.623-41.692-42.219-53.958C200.05 6.506 163.623 0 125.788 0v2c37.646 0 73.765 6.479 100.061 18.607 26.336 12.146 42.506 29.784 41.061 52.012zm-39.121 55.994.429.904c26.541-12.597 39.692-33.78 39.692-56.898h-2c0 22.25-12.615 42.783-38.55 55.091zm-17.193 6.317.267.964c6.309-1.75 12.083-3.875 17.355-6.377l-.429-.904-.429-.903c-5.157 2.448-10.821 4.534-17.031 6.257zm0 0-.93-.367c-8.791 22.246-21.525 34.183-42.335 52.999l.671.742.671.741c20.799-18.806 33.871-31.019 42.853-53.747zM169 188.369l.821.571c14.241-20.465 23.593-34.483 27.819-50.419l-.966-.257-.967-.256c-4.12 15.536-13.246 29.266-27.528 49.789zm-11.024-47.247v1c14.507 0 27.413-.955 38.863-2.872l-.165-.986-.165-.986c-11.318 1.894-24.11 2.844-38.533 2.844zm-119.837-15.69-.448.894c26.097 13.072 66.762 19.859 120.361 15.793l-.076-.997-.076-.997c-53.403 4.051-93.663-2.739-119.313-15.587z"/><path fill="#fff" d="M44.586 44.516q-.954 0-1.656-.485a3.8 3.8 0 0 1-1.172-1.265 6.9 6.9 0 0 1-.688-1.875 11.1 11.1 0 0 1 .016-4.453q.25-1.126.75-2.032a4.6 4.6 0 0 1 1.266-1.484q.765-.578 1.828-.578 1.03 0 1.718.562.704.547 1.11 1.438.421.875.594 1.968.187 1.095.187 2.188 0 1.219-.25 2.313a6.2 6.2 0 0 1-.734 1.906q-.485.829-1.235 1.312-.734.485-1.734.485m.187-8.72a.68.68 0 0 0-.515.235q-.204.235-.344.625-.14.375-.203.86-.063.468-.063.953 0 .546.063 1.093.078.547.219.985.14.438.343.703.219.266.516.266.344 0 .547-.344t.312-.828q.126-.485.157-1 .046-.516.047-.86 0-.421-.063-.89a4.2 4.2 0 0 0-.172-.86 2.1 2.1 0 0 0-.328-.672.62.62 0 0 0-.516-.265m9.22-.39q0 .453-.313.672a6 6 0 0 1-.672.422q-.376.188-.688.453-.297.266-.297.797 0 .282.125.484.141.203.329.375.202.157.437.328t.422.391q.203.219.328.531.14.313.14.766 0 .657-.343 1.297a4.3 4.3 0 0 1-.86 1.125 4.3 4.3 0 0 1-1.171.781q-.657.297-1.297.297-.265 0-.531-.047a1.5 1.5 0 0 1-.485-.14 1.05 1.05 0 0 1-.344-.297.9.9 0 0 1-.14-.516q0-.438.172-.672.171-.25.437-.39t.563-.22q.311-.077.578-.187.266-.124.437-.312.172-.187.172-.532 0-.327-.265-.671-.25-.36-.563-.75a8 8 0 0 1-.578-.86 2.04 2.04 0 0 1-.25-1q0-.672.266-1.234a3.4 3.4 0 0 1 .734-1q.469-.422 1.062-.656a3.2 3.2 0 0 1 1.25-.25q.25 0 .485.047.25.046.437.171a.8.8 0 0 1 .297.313.86.86 0 0 1 .125.484m8.968 0q0 .453-.313.672a6 6 0 0 1-.671.422q-.375.188-.688.453-.297.266-.297.797 0 .282.125.484.14.203.328.375.204.157.438.328t.422.391q.203.219.328.531.14.313.14.766 0 .657-.343 1.297a4.3 4.3 0 0 1-.86 1.125 4.3 4.3 0 0 1-1.172.781q-.656.297-1.296.297-.266 0-.532-.047a1.5 1.5 0 0 1-.484-.14 1.04 1.04 0 0 1-.344-.297.9.9 0 0 1-.14-.516q0-.438.171-.672.172-.25.438-.39.265-.14.562-.22.313-.077.579-.187.266-.124.437-.312.172-.187.172-.532 0-.327-.266-.671-.25-.36-.562-.75a8 8 0 0 1-.578-.86 2.04 2.04 0 0 1-.25-1q0-.672.265-1.234a3.4 3.4 0 0 1 .735-1q.468-.422 1.062-.656a3.2 3.2 0 0 1 1.25-.25q.25 0 .485.047.25.046.437.171a.8.8 0 0 1 .297.313.86.86 0 0 1 .125.484m3.203-2.312a.65.65 0 0 1-.125.39 1.2 1.2 0 0 1-.297.313q-.187.124-.406.203a1.5 1.5 0 0 1-.406.063.96.96 0 0 1-.547-.157q-.235-.156-.235-.484a.74.74 0 0 1 .11-.406q.125-.187.297-.297.171-.126.39-.188.22-.062.422-.062.297 0 .547.14t.25.485m.125 5.312v.469q0 .234-.016.453-.015.266-.015.719 0 .438-.031.953-.032.516-.11 1.047a4.4 4.4 0 0 1-.219.969 2 2 0 0 1-.421.718.9.9 0 0 1-.641.282.58.58 0 0 1-.5-.235 2.2 2.2 0 0 1-.344-.64 5.4 5.4 0 0 1-.187-.891 17 17 0 0 1-.094-.953q-.03-.47-.031-.86v-1.281q0-.468.03-1 .032-.53.11-1.078a6.4 6.4 0 0 1 .25-1 2.2 2.2 0 0 1 .438-.734.88.88 0 0 1 .672-.282q.42 0 .64.422.22.423.328.985.11.563.125 1.125.016.546.016.812m5.547 6.032q-.266 0-.422-.25a1.7 1.7 0 0 1-.234-.547 4.4 4.4 0 0 1-.11-.625q-.015-.33-.015-.5 0-.469.047-.938l.125-.937q.078-.469.125-.938.062-.468.062-.937 0-.187-.016-.407a1.7 1.7 0 0 0-.078-.406.66.66 0 0 0-.172-.328.44.44 0 0 0-.328-.125q-.14 0-.312.234a3.4 3.4 0 0 0-.328.516q-.14.282-.25.578a1.5 1.5 0 0 0-.094.422v.703q.016.345.016.703v.907q-.015.28-.047.578-.031.297-.094.578-.047.281-.14.547a1.7 1.7 0 0 1-.25.453q-.141.188-.344.312a.9.9 0 0 1-.485.125.7.7 0 0 1-.515-.203 1.5 1.5 0 0 1-.329-.516 3.6 3.6 0 0 1-.187-.718q-.046-.407-.078-.782-.016-.39-.016-.703.016-.327.016-.515v-.735q0-.593-.031-1.172-.016-.577-.016-1.156v-.797q.015-.484.125-.937.11-.469.36-.797.248-.328.734-.328a.6.6 0 0 1 .39.14q.172.141.297.344.141.204.219.438.094.234.14.406.158-.219.36-.422a2.8 2.8 0 0 1 .484-.36A2.54 2.54 0 0 1 71.79 35q.797 0 1.234.39.454.375.657.954.218.563.265 1.218.047.657.047 1.188 0 .266-.047.797-.046.516-.156 1.156-.093.626-.266 1.297-.171.657-.406 1.203a3 3 0 0 1-.562.89q-.313.344-.72.344m6.672.124q-1.11 0-1.735-.296a2 2 0 0 1-.921-.813q-.297-.531-.36-1.281-.062-.75-.062-1.672 0-.735.047-1.469.046-.75.14-1.593-.219 0-.344.015h-.203q-.5 0-.86-.219-.374-.218-.374-.672 0-.28.219-.5a1.7 1.7 0 0 1 .53-.374q.33-.157.704-.25.39-.094.734-.126 0-.437.063-.968t.219-.985q.171-.469.453-.78a.92.92 0 0 1 .719-.313q.25 0 .437.156.203.141.328.375.126.218.188.5.062.281.062.547 0 .313-.047.64-.046.33-.172.813.266-.031.36-.031.094-.015.172-.016.266 0 .547.047.296.047.53.156.25.11.407.297a.6.6 0 0 1 .156.422.67.67 0 0 1-.234.5q-.219.218-.563.375-.344.156-.734.25a7 7 0 0 1-.734.11q-.095.64-.14 1.187-.033.53-.08 1.078l-.062.547q-.015.266-.015.547 0 .203.015.484.015.266.11.516.093.25.297.437.203.172.562.172.219 0 .453-.031.235-.047.47-.047.405 0 .577.281.188.282.188.719a.9.9 0 0 1-.203.578 1.35 1.35 0 0 1-.485.375 2.6 2.6 0 0 1-.672.234q-.36.078-.687.078m5.328-.109q-.797 0-1.39-.422a3.7 3.7 0 0 1-1-1.078 5.2 5.2 0 0 1-.61-1.453 6.6 6.6 0 0 1-.203-1.594q0-.828.203-1.703.203-.89.625-1.61.421-.734 1.078-1.187.656-.468 1.563-.468.875 0 1.484.484.625.468 1 1.187.375.705.531 1.547.155.844.11 1.594a8.6 8.6 0 0 1-.266 1.672 5.3 5.3 0 0 1-.61 1.516q-.405.671-1.03 1.093-.626.422-1.485.422m.156-7.062q-.234 0-.422.25-.171.25-.297.609-.109.36-.171.766-.063.39-.063.687 0 .375.063.813.078.437.203.812.125.36.297.61.187.234.421.234.25 0 .422-.234.188-.236.297-.594.11-.36.156-.782.047-.437.047-.812 0-.345-.062-.75a4.3 4.3 0 0 0-.188-.781 1.8 1.8 0 0 0-.297-.594q-.171-.234-.406-.234m13.516 1.453v.812q0 .5-.031 1.094-.016.594-.094 1.203a5.3 5.3 0 0 1-.25 1.078q-.156.485-.406.797a.78.78 0 0 1-.641.313.6.6 0 0 1-.531-.282 2.2 2.2 0 0 1-.25-.687 5 5 0 0 1-.094-.797v-.64q0-.704.047-1.376t.047-1.375v-.28q0-.204-.032-.407a1.2 1.2 0 0 0-.109-.36q-.063-.156-.203-.156-.282 0-.453.297a2.7 2.7 0 0 0-.281.672q-.11.39-.157.781-.046.375-.062.563-.031.202-.063.61-.014.405-.062.89-.032.484-.125 1-.078.5-.219.922-.125.405-.328.672-.203.265-.5.265a.64.64 0 0 1-.578-.328 2.4 2.4 0 0 1-.297-.766 6 6 0 0 1-.125-.89q-.015-.453-.016-.703v-.516q.016-.25.016-.516v-.359q0-.25-.016-.547 0-.312-.03-.64a5 5 0 0 0-.063-.594 1.5 1.5 0 0 0-.141-.453q-.094-.172-.219-.172-.203 0-.375.265-.171.25-.297.61-.124.343-.203.687-.062.344-.062.5v.094q0 .75.093 1.469.094.718.094 1.468 0 .438-.281.813-.282.36-.781.36a.76.76 0 0 1-.594-.266 2.4 2.4 0 0 1-.39-.719 6 6 0 0 1-.25-.953 12 12 0 0 1-.11-1.031q-.031-.516-.047-.922v-.625q0-.235-.016-.688 0-.453.016-.984.03-.531.094-1.078a5.5 5.5 0 0 1 .203-1.016 2.3 2.3 0 0 1 .36-.734.73.73 0 0 1 .593-.297q.406 0 .656.219.266.218.266.656 0 .093-.016.187 0 .094-.015.172a3.6 3.6 0 0 1 .422-.5q.25-.265.53-.468a2.6 2.6 0 0 1 .626-.344q.328-.14.656-.14a.97.97 0 0 1 .563.171q.25.172.437.438.188.249.313.546.124.297.171.563.158-.282.375-.563a3.4 3.4 0 0 1 .5-.515 2.6 2.6 0 0 1 .579-.36q.327-.14.671-.14.33 0 .563.234.235.235.406.61.172.36.266.828.093.453.156.906.063.438.078.828.016.375.016.594m7.672 2.953q0 .28-.032.734-.015.454-.125.89a2.1 2.1 0 0 1-.343.735q-.235.313-.657.313-.578 0-.89-.375t-.297-.938q-.5.438-1.141.688-.624.25-1.281.25-.453 0-.86-.219a2.7 2.7 0 0 1-.718-.562 2.9 2.9 0 0 1-.5-.766 2.2 2.2 0 0 1-.188-.86q0-.75.454-1.312a4.3 4.3 0 0 1 1.14-.953q.672-.406 1.422-.64.766-.235 1.359-.313v-.14a.6.6 0 0 0 .016-.142q0-.484-.266-.78-.266-.298-.75-.298-.39 0-.671.141a3.3 3.3 0 0 0-.532.297q-.25.156-.5.297a1.24 1.24 0 0 1-.562.125.87.87 0 0 1-.594-.219.74.74 0 0 1-.234-.562q0-.516.297-.938.312-.422.765-.703a4 4 0 0 1 1-.453 3.4 3.4 0 0 1 1-.172q.422 0 .844.11.422.093.797.312.375.203.672.515.312.297.5.703.28.579.453 1.235.171.64.265 1.328.095.672.125 1.36.032.671.032 1.312m-2.5-.5-.047-1.063h-.063a.14.14 0 0 0-.062-.015q-.203 0-.516.11-.296.093-.578.28a2.3 2.3 0 0 0-.484.391.7.7 0 0 0-.188.453q0 .219.156.297a.8.8 0 0 0 .36.078q.344 0 .734-.172.391-.187.688-.36m8.015-5.89q0 .452-.312.671a6 6 0 0 1-.672.422q-.375.188-.688.453-.296.266-.296.797a.9.9 0 0 0 .125.484q.14.203.328.375.203.157.437.328t.422.391q.203.219.328.531.141.313.141.766 0 .657-.344 1.297a4.28 4.28 0 0 1-2.031 1.906q-.657.297-1.297.297-.266 0-.531-.047a1.5 1.5 0 0 1-.485-.14 1 1 0 0 1-.343-.297.9.9 0 0 1-.141-.516q0-.438.172-.672.171-.25.437-.39t.563-.22q.312-.077.578-.187.266-.124.437-.312.172-.187.172-.532 0-.327-.265-.671a14 14 0 0 0-.563-.75 8 8 0 0 1-.578-.86 2.03 2.03 0 0 1-.25-1q0-.672.266-1.234.28-.579.734-1 .47-.422 1.063-.656.593-.25 1.25-.25.25 0 .484.047.25.046.437.171a.8.8 0 0 1 .297.313.85.85 0 0 1 .125.484m11.125-1.688q0 1.14-.093 2.265-.08 1.126-.079 2.266 0 .922.047 1.828.063.906.063 1.828 0 .25-.016.61-.015.343-.109.672a1.3 1.3 0 0 1-.281.562q-.188.234-.547.234-.469 0-.782-.343a1.7 1.7 0 0 1-.375-.797 2.66 2.66 0 0 1-.859.953q-.562.39-1.219.39a1.72 1.72 0 0 1-1.218-.484 4.3 4.3 0 0 1-.844-1.172 7 7 0 0 1-.5-1.437 6.5 6.5 0 0 1-.156-1.297q0-.39.046-.89.048-.501.157-1.016a8 8 0 0 1 .312-1q.187-.5.469-.891.297-.39.687-.625.407-.234.922-.234.563 0 1.078.328t.782.812l.14-2.484q.016-.297.047-.688.032-.406.125-.765.11-.36.328-.61.22-.25.641-.25.453 0 .703.22.25.217.359.562.126.328.141.718.031.39.031.735m-2.547 6.937q0-.36-.015-.703a8 8 0 0 1 0-.703 9 9 0 0 0-.219-.437 2 2 0 0 0-.312-.454 1.6 1.6 0 0 0-.391-.359.85.85 0 0 0-.469-.14.6.6 0 0 0-.453.171 1 1 0 0 0-.25.422 2.5 2.5 0 0 0-.109.516 8 8 0 0 0-.016.484q0 .188.031.563.032.36.11.734.093.375.25.656.156.282.422.282.202 0 .406-.079.203-.093.375-.218a3 3 0 0 0 .344-.297q.171-.172.296-.313zm6.547 3.797q-.796 0-1.39-.422a3.7 3.7 0 0 1-1-1.078 5.2 5.2 0 0 1-.61-1.453 6.6 6.6 0 0 1-.203-1.594q0-.828.203-1.703.204-.89.625-1.61.423-.734 1.078-1.187.657-.468 1.563-.468.875 0 1.484.484.625.468 1 1.187.375.705.532 1.547a6.5 6.5 0 0 1 .109 1.594 8.6 8.6 0 0 1-.266 1.672 5.3 5.3 0 0 1-.609 1.516 3.5 3.5 0 0 1-1.031 1.093q-.626.422-1.485.422m.157-7.062q-.235 0-.422.25-.172.25-.297.609-.11.36-.172.766-.063.39-.063.687 0 .375.063.813.078.437.203.812.124.36.297.61.188.234.422.234.25 0 .422-.234.188-.236.297-.594.109-.36.156-.782a8 8 0 0 0 .047-.812q0-.345-.063-.75a4.3 4.3 0 0 0-.187-.781 1.8 1.8 0 0 0-.297-.594q-.172-.234-.406-.234m15.843-.422a6.5 6.5 0 0 1-.562 2.656 7.7 7.7 0 0 1-1.516 2.25 7.3 7.3 0 0 1-2.203 1.578 6.2 6.2 0 0 1-2.641.578h-.031a.57.57 0 0 1-.469-.25 2.8 2.8 0 0 1-.296-.656 5 5 0 0 1-.188-.875 16 16 0 0 1-.094-.937 13 13 0 0 1-.031-.829v-.562q0-.531.016-1.047.015-.531.047-1.062 0-.173.015-.5.031-.345.063-.766.031-.422.078-.875.046-.47.094-.86l.109-.703q.062-.312.141-.422.202-.344.625-.609a4.5 4.5 0 0 1 .906-.437 6 6 0 0 1 1-.25q.515-.094.89-.094 1.032 0 1.782.39a3.5 3.5 0 0 1 1.265 1.032q.516.64.75 1.484.25.844.25 1.766m-2.625.453q0-.345-.125-.703a2.2 2.2 0 0 0-.359-.657 1.6 1.6 0 0 0-.547-.468 1.34 1.34 0 0 0-.703-.188q-.329 0-.672.157-.078.046-.141.296a5 5 0 0 0-.109.578q-.032.345-.062.75-.032.407-.047.782 0 .36-.016.64v.845q0 .296.016.593.031.297.062.516.031.218.11.218.468 0 .921-.36.47-.374.844-.905.375-.532.594-1.11.234-.578.234-.984m14.016 4.875q-.047.405-.141.797-.077.39-.203.703a1.2 1.2 0 0 1-.328.469.6.6 0 0 1-.437.187q-.25 0-.454-.39a5.5 5.5 0 0 1-.39-1 21 21 0 0 1-.328-1.438 71 71 0 0 1-.266-1.61 65 65 0 0 1-.312-2.969q-.094.596-.219 1.329a30 30 0 0 1-.672 2.984q-.202.72-.438 1.297a4 4 0 0 1-.5.907q-.265.343-.562.343-.265 0-.531-.36a4.8 4.8 0 0 1-.516-.937 14 14 0 0 1-.469-1.312 37 37 0 0 1-.734-2.813 33 33 0 0 1-.219-1.093q0 .327-.015.734v.563q0 .078-.016.515 0 .437-.047 1.047t-.141 1.313a7.7 7.7 0 0 1-.281 1.28q-.171.595-.437 1-.265.407-.657.438a1.26 1.26 0 0 1-.531-.468 3.8 3.8 0 0 1-.344-.797 7 7 0 0 1-.218-.97 19 19 0 0 1-.125-1q-.047-.499-.063-.921v-.687q0-.47.047-1.172.063-.72.188-1.5.124-.782.328-1.563a8.3 8.3 0 0 1 .484-1.39q.297-.626.672-1.016.39-.39.891-.39.234 0 .5.265t.531.703q.266.422.515.953.25.531.469 1.078.234.531.406 1.032.172.483.282.828.125-.375.312-.875.188-.5.406-1.032.235-.546.5-1.062.282-.531.579-.938.296-.42.593-.672.313-.265.625-.265.547 0 .938.406t.656 1.063q.266.64.422 1.453.156.796.234 1.593.094.78.11 1.47.031.686.031 1.109v.468q0 .297-.016.672 0 .375-.031.797a24 24 0 0 1-.078.844m8.562.266q0 .453-.296.734a1.4 1.4 0 0 1-.719.36q-.47.108-1.063.202-.594.079-1.218.141a25 25 0 0 1-2.282.125q-.125 0-.359-.016-.219 0-.469-.03a3 3 0 0 1-.453-.063.9.9 0 0 1-.312-.125 1 1 0 0 1-.204-.25 3 3 0 0 1-.234-.75 2 2 0 0 1-.031-.328q0-.22.047-.391a.9.9 0 0 1 .218-.344q.188-.203.391-.39l.391-.391q.218-.235.578-.61.36-.39.765-.859.423-.484.829-1 .422-.531.765-1.031t.547-.938q.219-.436.219-.75a.7.7 0 0 0-.172-.484.58.58 0 0 0-.469-.203.93.93 0 0 0-.609.234 9 9 0 0 0-.563.516q-.28.266-.609.5a1.17 1.17 0 0 1-.719.234q-.484 0-.765-.281-.266-.28-.266-.75 0-.687.297-1.266.312-.593.812-1.015.501-.422 1.125-.657.625-.25 1.282-.25.67 0 1.25.157.577.156 1 .484.422.328.656.844.25.5.25 1.219 0 .562-.203 1.187a7 7 0 0 1-.516 1.234q-.312.626-.734 1.25a19.7 19.7 0 0 1-2.516 3.063q.765-.093 1.609-.187a15 15 0 0 1 1.625-.094q.454 0 .782.25.343.234.343.718m11.704-3.22q0 .689-.157 1.516a5.3 5.3 0 0 1-.5 1.516q-.343.704-.922 1.172-.563.468-1.421.469-.219 0-.454-.032a2.2 2.2 0 0 1-.453-.109 1.7 1.7 0 0 1-.375-.203.9.9 0 0 1-.265-.36l-.141 2.25q-.015.36-.031.86 0 .499-.125.953a1.7 1.7 0 0 1-.391.766q-.265.328-.781.328-.297 0-.5-.313a2.5 2.5 0 0 1-.328-.765 9 9 0 0 1-.172-1.047 14 14 0 0 1-.078-1.11 31 31 0 0 1-.016-.968v-.641q0-1.046-.015-2.078-.016-1.047-.016-2.094v-.578q0-.405.031-.875.031-.468.094-.969.078-.5.219-.906a1.9 1.9 0 0 1 .359-.672.67.67 0 0 1 .531-.266.56.56 0 0 1 .36.126.86.86 0 0 1 .281.296q.125.173.203.375.078.203.125.375a3.3 3.3 0 0 1 1.109-.828 3.35 3.35 0 0 1 1.36-.281q.75 0 1.219.422.483.422.75 1.047.28.624.39 1.343.11.704.11 1.282m-2.235-.124a2.3 2.3 0 0 0-.047-.469 1.3 1.3 0 0 0-.14-.453.77.77 0 0 0-.282-.344.76.76 0 0 0-.468-.14q-.375 0-.797.25a1.75 1.75 0 0 0-.61.546q-.078.126-.093.407a8 8 0 0 0-.016.422v.296l.031.36.032.36q.03.17.078.265a.6.6 0 0 0 .203.265q.156.11.344.203t.375.141q.203.047.343.047a.65.65 0 0 0 .532-.25 1.8 1.8 0 0 0 .312-.594q.125-.343.156-.703.048-.375.047-.61m6.156 5.234q-.796 0-1.39-.422a3.7 3.7 0 0 1-1-1.078 5.2 5.2 0 0 1-.61-1.453 6.6 6.6 0 0 1-.203-1.594q0-.828.203-1.703.204-.89.625-1.61.422-.734 1.079-1.187.656-.468 1.562-.468.875 0 1.484.484.625.468 1 1.187.375.705.532 1.547a6.5 6.5 0 0 1 .109 1.594 8.6 8.6 0 0 1-.266 1.672 5.3 5.3 0 0 1-.609 1.516 3.5 3.5 0 0 1-1.031 1.093q-.626.422-1.485.422m.157-7.062q-.235 0-.422.25-.173.25-.297.609-.11.36-.172.766a4.4 4.4 0 0 0-.062.687q0 .375.062.813.078.437.203.812.125.36.297.61.188.234.422.234.25 0 .422-.234.187-.236.297-.594.11-.36.156-.782a8 8 0 0 0 .047-.812q0-.345-.063-.75a4.3 4.3 0 0 0-.187-.781 1.8 1.8 0 0 0-.297-.594q-.172-.234-.406-.234m10.765-3.672q0 1.14-.093 2.265-.08 1.126-.079 2.266 0 .922.047 1.828.063.906.063 1.828 0 .25-.016.61-.015.343-.109.672a1.3 1.3 0 0 1-.281.562q-.188.234-.547.234-.469 0-.782-.343a1.7 1.7 0 0 1-.375-.797 2.66 2.66 0 0 1-.859.953q-.562.39-1.219.39a1.72 1.72 0 0 1-1.218-.484 4.3 4.3 0 0 1-.844-1.172 7 7 0 0 1-.5-1.437 6.5 6.5 0 0 1-.156-1.297q0-.39.046-.89.048-.501.157-1.016a8 8 0 0 1 .312-1q.187-.5.469-.891.297-.39.687-.625.407-.234.922-.234.563 0 1.078.328t.782.812l.14-2.484q.016-.297.047-.688.032-.406.125-.765.11-.36.328-.61.22-.25.641-.25.453 0 .703.22.25.217.359.562.126.328.141.718.031.39.031.735m-2.547 6.937q0-.36-.015-.703a8 8 0 0 1 0-.703 9 9 0 0 0-.219-.437 2 2 0 0 0-.312-.454 1.6 1.6 0 0 0-.391-.359.85.85 0 0 0-.469-.14.6.6 0 0 0-.453.171 1 1 0 0 0-.25.422 2.5 2.5 0 0 0-.109.516 8 8 0 0 0-.016.484q0 .188.031.563.032.36.11.734.094.375.25.656t.422.282q.202 0 .406-.079.202-.093.375-.218a3 3 0 0 0 .344-.297q.171-.172.296-.313zm10.125.563q0 .531-.343 1.047-.328.5-.844.906-.5.39-1.078.64-.579.235-1.063.235a2.76 2.76 0 0 1-1.484-.406 3.9 3.9 0 0 1-1.078-1.063 5.1 5.1 0 0 1-.672-1.406 5.6 5.6 0 0 1-.219-1.516q0-.78.219-1.672.22-.89.656-1.64.453-.75 1.125-1.25.688-.5 1.625-.5.531 0 1.016.187a2.46 2.46 0 0 1 1.422 1.282q.218.453.218 1.015 0 .735-.312 1.375a3.6 3.6 0 0 1-.828 1.11 4.4 4.4 0 0 1-1.188.765 4 4 0 0 1-1.375.313q.063.453.36.656.312.203.734.203.313 0 .609-.156.297-.156.579-.344.28-.203.546-.36.281-.156.563-.156.313 0 .562.203a.65.65 0 0 1 .25.532m-2.531-3.828a.94.94 0 0 0-.109-.422.36.36 0 0 0-.344-.219.9.9 0 0 0-.578.188 1.4 1.4 0 0 0-.391.453q-.156.266-.25.578a3 3 0 0 0-.093.578q.218-.047.515-.125a3 3 0 0 0 .578-.203q.282-.141.469-.344a.66.66 0 0 0 .203-.484m12.641 1.453v.812q0 .5-.031 1.094-.016.594-.094 1.203a5.3 5.3 0 0 1-.25 1.078q-.157.485-.406.797a.79.79 0 0 1-.641.313.6.6 0 0 1-.531-.282 2.2 2.2 0 0 1-.25-.687 5 5 0 0 1-.094-.797v-.64q0-.704.047-1.376t.047-1.375v-.28q0-.204-.032-.407a1.2 1.2 0 0 0-.109-.36q-.062-.156-.203-.156-.282 0-.453.297a2.6 2.6 0 0 0-.281.672q-.11.39-.157.781-.047.375-.062.563a9 9 0 0 0-.063.61q-.015.405-.062.89a9 9 0 0 1-.125 1 6 6 0 0 1-.219.922q-.125.405-.328.672-.203.265-.5.265a.64.64 0 0 1-.578-.328 2.4 2.4 0 0 1-.297-.766 6 6 0 0 1-.125-.89q-.016-.453-.016-.703v-.516q.016-.25.016-.516v-.359a10 10 0 0 0-.016-.547 7 7 0 0 0-.031-.64 5 5 0 0 0-.062-.594 1.5 1.5 0 0 0-.141-.453q-.094-.172-.219-.172-.202 0-.375.265-.171.25-.297.61-.125.343-.203.687-.062.344-.062.5v.094q0 .75.093 1.469.094.718.094 1.468 0 .438-.281.813-.282.36-.781.36a.76.76 0 0 1-.594-.266 2.4 2.4 0 0 1-.391-.719 6 6 0 0 1-.25-.953 13 13 0 0 1-.109-1.031 39 39 0 0 1-.047-.922v-.625q0-.235-.016-.688 0-.453.016-.984.031-.531.094-1.078a5.4 5.4 0 0 1 .203-1.016 2.3 2.3 0 0 1 .359-.734.73.73 0 0 1 .594-.297q.407 0 .656.219.266.218.266.656 0 .093-.016.187 0 .094-.015.172a3.5 3.5 0 0 1 .422-.5q.249-.265.531-.468.297-.219.625-.344.328-.14.656-.14.312 0 .563.171t.437.438a2.6 2.6 0 0 1 .313.546q.125.297.171.563a5 5 0 0 1 .375-.563q.235-.297.5-.515.266-.219.579-.36.327-.14.671-.14.329 0 .563.234.235.235.406.61.172.36.266.828.093.453.156.906.063.438.078.828.016.375.016.594m9.375-3.438q0 .453-.313.672a6 6 0 0 1-.672.422q-.375.188-.687.453-.297.266-.297.797a.9.9 0 0 0 .125.484q.14.203.328.375.203.157.438.328t.422.391q.202.219.328.531.14.313.14.766 0 .657-.343 1.297a4.3 4.3 0 0 1-.86 1.125 4.3 4.3 0 0 1-1.172.781 3.1 3.1 0 0 1-1.297.297q-.266 0-.531-.047a1.5 1.5 0 0 1-.484-.14 1.04 1.04 0 0 1-.344-.297.9.9 0 0 1-.141-.516q0-.438.172-.672.173-.25.438-.39t.562-.22q.313-.077.578-.187a1.4 1.4 0 0 0 .438-.312q.172-.187.172-.532 0-.327-.266-.671a14 14 0 0 0-.562-.75 8 8 0 0 1-.578-.86 2.03 2.03 0 0 1-.25-1q0-.672.265-1.234.281-.579.735-1a3.5 3.5 0 0 1 1.062-.656q.594-.25 1.25-.25.25 0 .484.047.25.046.438.171a.8.8 0 0 1 .297.313.86.86 0 0 1 .125.484m7.172 5.813q0 .531-.344 1.047-.328.5-.844.906-.5.39-1.078.64-.578.235-1.062.235a2.76 2.76 0 0 1-1.485-.406 3.9 3.9 0 0 1-1.078-1.063 5.1 5.1 0 0 1-.672-1.406 5.6 5.6 0 0 1-.219-1.516q0-.78.219-1.672.22-.89.656-1.64.454-.75 1.125-1.25.688-.5 1.625-.5.532 0 1.016.187a2.46 2.46 0 0 1 1.422 1.282q.219.453.219 1.015 0 .735-.313 1.375a3.6 3.6 0 0 1-.828 1.11 4.4 4.4 0 0 1-1.187.765 4 4 0 0 1-1.375.313q.062.453.359.656.312.203.734.203.313 0 .61-.156.296-.156.578-.344.281-.203.547-.36.281-.156.562-.156a.87.87 0 0 1 .563.203q.25.204.25.532m-2.532-3.828a.94.94 0 0 0-.109-.422.36.36 0 0 0-.344-.219.9.9 0 0 0-.578.188 1.4 1.4 0 0 0-.39.453q-.157.266-.25.578a3 3 0 0 0-.094.578q.22-.047.515-.125.313-.078.579-.203.28-.141.468-.344a.66.66 0 0 0 .203-.484m8.579.765q-.219.015-.375-.031l-.313-.125a3 3 0 0 0-.281-.11.6.6 0 0 0-.313-.046q-.312.015-.562.172a2.2 2.2 0 0 0-.438.39 2.7 2.7 0 0 0-.328.532 3 3 0 0 0-.219.562 4 4 0 0 0-.078.578q-.015.375-.015.813a24 24 0 0 0-.016.859q0 .406-.031.64a6 6 0 0 1-.078.594 2.6 2.6 0 0 1-.203.625 1.4 1.4 0 0 1-.344.5.8.8 0 0 1-.563.203.75.75 0 0 1-.468-.156 1.4 1.4 0 0 1-.329-.406 4 4 0 0 1-.218-.61 8 8 0 0 1-.125-.703q-.048-.375-.078-.75-.016-.375-.032-.703v-.625q.016-.28.016-.453-.015-.546-.063-1.093-.03-.563-.031-1.11 0-.343.031-.766.032-.42.172-.78.14-.376.407-.626.28-.25.765-.25.266 0 .453.172.188.172.297.422.126.25.188.531.061.282.078.516.375-.609.844-.984.468-.391 1.218-.422.375-.016.735.078.375.078.672.281.312.188.5.5.203.312.218.734.031.5-.297.766-.328.265-.796.281M38.547 60.344q0 .687-.156 1.515a5.3 5.3 0 0 1-.5 1.516q-.345.704-.922 1.172-.563.468-1.422.469-.219 0-.453-.032a2.2 2.2 0 0 1-.453-.109 1.6 1.6 0 0 1-.375-.203.9.9 0 0 1-.266-.36l-.14 2.25q-.016.36-.032.86 0 .499-.125.953a1.7 1.7 0 0 1-.39.766q-.267.328-.782.328-.297 0-.5-.313a2.5 2.5 0 0 1-.328-.765 9 9 0 0 1-.172-1.047 14 14 0 0 1-.078-1.11q-.015-.531-.015-.968v-.641q0-1.047-.016-2.078-.016-1.047-.016-2.094v-.578q0-.405.032-.875.03-.468.093-.969a5.3 5.3 0 0 1 .219-.906q.14-.422.36-.672a.67.67 0 0 1 .53-.266.56.56 0 0 1 .36.126.86.86 0 0 1 .281.296q.126.173.203.375.078.203.125.375.484-.546 1.11-.828.64-.28 1.36-.281.75 0 1.218.422.485.422.75 1.047.281.624.39 1.343.11.704.11 1.282m-2.234-.125a2.4 2.4 0 0 0-.047-.469 1.3 1.3 0 0 0-.141-.453.76.76 0 0 0-.281-.344.76.76 0 0 0-.469-.14q-.375 0-.797.25-.406.234-.61.546-.077.126-.093.407t-.016.422v.296l.032.36.03.36q.033.17.079.265a.6.6 0 0 0 .203.265q.156.11.344.203.188.095.375.141.203.047.344.047a.65.65 0 0 0 .53-.25q.204-.25.313-.594.126-.343.157-.703.046-.375.047-.61m9.828 2.578q0 .28-.032.734a4.3 4.3 0 0 1-.125.89 2.1 2.1 0 0 1-.343.735q-.235.313-.657.313-.578 0-.89-.375t-.297-.938q-.5.438-1.14.688-.625.25-1.282.25-.453 0-.86-.219a2.7 2.7 0 0 1-.718-.562 2.9 2.9 0 0 1-.5-.766 2.2 2.2 0 0 1-.188-.86q0-.75.453-1.312a4.3 4.3 0 0 1 1.141-.953q.672-.406 1.422-.64.766-.235 1.36-.313v-.14a.6.6 0 0 0 .015-.142q0-.484-.266-.78-.265-.298-.75-.298-.39 0-.672.141a3.3 3.3 0 0 0-.53.297q-.25.156-.5.297a1.24 1.24 0 0 1-.563.125.87.87 0 0 1-.594-.219.74.74 0 0 1-.234-.562q0-.516.297-.938.312-.422.765-.703a4 4 0 0 1 1-.453 3.4 3.4 0 0 1 1-.172q.422 0 .844.11.422.093.797.312.375.203.672.515.312.298.5.703.28.579.453 1.235.171.64.265 1.328.095.672.125 1.36.032.671.032 1.312m-2.5-.5-.047-1.063h-.063a.14.14 0 0 0-.062-.015q-.204 0-.516.11-.297.093-.578.28a2.3 2.3 0 0 0-.484.391.7.7 0 0 0-.188.453q0 .219.156.297a.8.8 0 0 0 .36.078q.344 0 .734-.172.39-.187.688-.36m8.859-3.14q-.218.015-.375-.032L51.813 59a3 3 0 0 0-.282-.11.6.6 0 0 0-.312-.046q-.313.015-.563.172a2.2 2.2 0 0 0-.437.39 2.7 2.7 0 0 0-.328.532 3 3 0 0 0-.22.562 4 4 0 0 0-.077.578q-.015.375-.016.813-.015.453-.016.859 0 .406-.03.64-.016.25-.079.594-.063.33-.203.625a1.4 1.4 0 0 1-.344.5.8.8 0 0 1-.562.204.75.75 0 0 1-.469-.157 1.4 1.4 0 0 1-.328-.406 4 4 0 0 1-.219-.61 8 8 0 0 1-.125-.703q-.047-.375-.078-.75-.015-.375-.031-.703v-.625q.015-.28.015-.453-.014-.546-.062-1.093-.031-.563-.031-1.11 0-.343.03-.766.033-.42.173-.78.14-.376.406-.626.282-.25.766-.25.265 0 .453.172t.297.422q.124.25.187.531t.078.516q.375-.609.844-.984.47-.391 1.219-.422.375-.016.734.078.375.078.672.281.312.188.5.5.203.312.219.734.03.5-.297.766-.328.265-.797.281m7.875 3.062q0 .531-.344 1.047-.328.5-.843.906-.5.39-1.079.64-.578.235-1.062.235a2.76 2.76 0 0 1-1.484-.406 3.9 3.9 0 0 1-1.079-1.063 5.2 5.2 0 0 1-.672-1.406 5.6 5.6 0 0 1-.218-1.516q0-.78.218-1.672.219-.89.657-1.64.453-.75 1.125-1.25.687-.5 1.625-.5.53 0 1.015.187a2.45 2.45 0 0 1 1.422 1.282q.219.453.219 1.015 0 .735-.312 1.375a3.6 3.6 0 0 1-.829 1.11q-.516.468-1.187.765a4 4 0 0 1-1.375.313q.062.453.36.656.311.203.734.203.312 0 .609-.156t.578-.344q.282-.203.547-.36a1.15 1.15 0 0 1 .563-.156.87.87 0 0 1 .562.203q.25.204.25.532m-2.531-3.828a.94.94 0 0 0-.11-.422.36.36 0 0 0-.343-.219.9.9 0 0 0-.578.188 1.4 1.4 0 0 0-.391.453q-.157.266-.25.578a3 3 0 0 0-.094.578q.219-.047.516-.125.311-.078.578-.203.281-.141.469-.344a.66.66 0 0 0 .203-.484m8.953.609q0 .078-.016.172a1 1 0 0 1-.047.156 1.5 1.5 0 0 1-.437.61 1.1 1.1 0 0 1-.703.234q-.609 0-.828-.61a.5.5 0 0 1-.032-.171q0-.11-.015-.22v-.452a.9.9 0 0 0-.11-.344q-.078-.125-.265-.125-.266 0-.516.344a3.8 3.8 0 0 0-.422.797 7 7 0 0 0-.281.937q-.11.484-.11.781 0 .236.032.578.03.33.125.641.093.312.25.547.171.219.437.219a.8.8 0 0 0 .485-.157q.234-.171.453-.39.203-.187.437-.39a.87.87 0 0 1 .563-.204q.39 0 .61.281a.97.97 0 0 1 .234.641q0 .532-.282 1a3.2 3.2 0 0 1-.703.797 3.4 3.4 0 0 1-.937.516 2.7 2.7 0 0 1-.985.203q-.843 0-1.437-.422a3.3 3.3 0 0 1-.938-1.063 5 5 0 0 1-.515-1.422 7.3 7.3 0 0 1-.157-1.453q0-.797.22-1.718.218-.939.671-1.735a4.3 4.3 0 0 1 1.156-1.328q.72-.531 1.703-.531.61 0 1.047.265.454.266.735.703.297.423.437.954.156.531.156 1.047v.156a1 1 0 0 1-.015.156m3.453-4.906a.65.65 0 0 1-.125.39 1.2 1.2 0 0 1-.297.313q-.187.124-.406.203a1.5 1.5 0 0 1-.406.063.96.96 0 0 1-.547-.157q-.234-.156-.235-.484a.74.74 0 0 1 .11-.406q.124-.188.297-.297.171-.126.39-.188.22-.062.422-.062.297 0 .547.14t.25.485m.125 5.312v.469q0 .234-.016.453-.015.266-.015.719 0 .438-.031.953-.032.516-.11 1.047a4.4 4.4 0 0 1-.219.969 2 2 0 0 1-.421.718.9.9 0 0 1-.641.282.58.58 0 0 1-.5-.235 2.2 2.2 0 0 1-.344-.64 5.4 5.4 0 0 1-.187-.891 17 17 0 0 1-.094-.953q-.031-.47-.031-.86v-1.281q0-.468.03-1 .033-.53.11-1.078.094-.547.25-1a2.2 2.2 0 0 1 .438-.734.88.88 0 0 1 .672-.282q.42 0 .64.422.219.423.328.985t.125 1.125q.016.546.016.812m7.844-4.687q0 1.14-.094 2.265-.078 1.126-.078 2.266 0 .922.047 1.828.062.906.062 1.828 0 .25-.015.61-.015.343-.11.672a1.3 1.3 0 0 1-.281.562q-.187.234-.547.234-.468 0-.781-.343a1.7 1.7 0 0 1-.375-.797 2.7 2.7 0 0 1-.86.953q-.561.39-1.218.39a1.72 1.72 0 0 1-1.219-.484 4.3 4.3 0 0 1-.844-1.172 7 7 0 0 1-.5-1.437 6.5 6.5 0 0 1-.156-1.297 9.6 9.6 0 0 1 .203-1.906q.126-.516.313-1 .187-.5.468-.891.297-.39.688-.625.406-.234.922-.234.562 0 1.078.328t.781.812l.14-2.484q.016-.297.048-.688.03-.406.125-.765.108-.36.328-.61t.64-.25q.454 0 .704.22.25.217.359.562.125.328.14.718.032.39.032.735m-2.547 6.937q0-.36-.016-.703-.015-.343 0-.703a9 9 0 0 0-.219-.437 2 2 0 0 0-.312-.454 1.6 1.6 0 0 0-.39-.359.85.85 0 0 0-.47-.14.6.6 0 0 0-.453.171 1 1 0 0 0-.25.422 2.5 2.5 0 0 0-.109.516q-.016.281-.016.484 0 .188.032.563.03.36.11.734.093.375.25.656.155.282.421.282.202 0 .406-.079a2.2 2.2 0 0 0 .375-.218q.188-.141.344-.297.172-.172.297-.313zm6.547 3.797q-.797 0-1.39-.422a3.7 3.7 0 0 1-1-1.078 5.2 5.2 0 0 1-.61-1.453 6.6 6.6 0 0 1-.203-1.594q0-.828.203-1.703.203-.89.625-1.61.421-.734 1.078-1.187.656-.468 1.562-.468.876 0 1.485.484.625.468 1 1.187.375.705.531 1.547.156.844.11 1.594a8.6 8.6 0 0 1-.266 1.672 5.3 5.3 0 0 1-.61 1.516q-.406.671-1.03 1.093-.626.422-1.485.422m.156-7.062q-.234 0-.422.25-.172.25-.297.609-.11.36-.172.766-.062.39-.062.687 0 .375.062.813.079.437.204.812.125.36.296.61.188.234.422.234.25 0 .422-.234.188-.236.297-.594.11-.36.156-.782.047-.437.047-.812 0-.345-.062-.75a4.3 4.3 0 0 0-.188-.781 1.8 1.8 0 0 0-.297-.594q-.172-.234-.406-.234m8.61-1.985q0 .453-.313.672A6 6 0 0 1 90 57.5q-.376.188-.687.453-.297.266-.297.797 0 .282.125.484.14.203.328.375.203.157.437.328t.422.391q.203.219.328.531.14.313.14.766 0 .657-.343 1.297a4.3 4.3 0 0 1-.86 1.125 4.3 4.3 0 0 1-1.171.781q-.657.297-1.297.297-.266 0-.531-.047a1.5 1.5 0 0 1-.485-.14 1.05 1.05 0 0 1-.343-.297.9.9 0 0 1-.141-.516q0-.438.172-.672.172-.25.437-.39.266-.14.563-.22.311-.077.578-.187.266-.124.438-.312.171-.187.171-.532 0-.327-.265-.671-.25-.36-.563-.75a8 8 0 0 1-.578-.86 2.04 2.04 0 0 1-.25-1q0-.672.266-1.234.28-.579.734-1 .47-.422 1.063-.656a3.2 3.2 0 0 1 1.25-.25q.25 0 .484.047.25.046.438.171a.8.8 0 0 1 .296.313.86.86 0 0 1 .125.484M101.171 59q0 .078-.016.172a1 1 0 0 1-.047.156 1.5 1.5 0 0 1-.437.61 1.1 1.1 0 0 1-.703.234q-.609 0-.828-.61a.5.5 0 0 1-.032-.171q0-.11-.015-.22v-.452a.9.9 0 0 0-.11-.344q-.078-.125-.265-.125-.266 0-.516.344a3.8 3.8 0 0 0-.422.797 7 7 0 0 0-.281.937q-.11.484-.11.781 0 .236.032.578.03.33.125.641.093.312.25.547.172.219.437.219a.8.8 0 0 0 .485-.157q.234-.171.453-.39.203-.187.437-.39a.87.87 0 0 1 .563-.204q.39 0 .609.281a.97.97 0 0 1 .235.641q0 .532-.282 1a3.2 3.2 0 0 1-.703.797q-.422.328-.937.516a2.7 2.7 0 0 1-.985.203q-.843 0-1.437-.422a3.3 3.3 0 0 1-.938-1.063 5 5 0 0 1-.515-1.422 7.3 7.3 0 0 1-.156-1.453q0-.797.218-1.718.219-.939.672-1.735a4.3 4.3 0 0 1 1.156-1.328q.72-.531 1.704-.531.61 0 1.046.265.453.266.735.703.297.423.437.954.157.531.157 1.047v.156a1 1 0 0 1-.016.156m3.844 6.453q-.798 0-1.391-.422a3.7 3.7 0 0 1-1-1.078 5.2 5.2 0 0 1-.609-1.453 6.5 6.5 0 0 1-.204-1.594q0-.828.204-1.703.202-.89.625-1.61.421-.734 1.078-1.187.656-.468 1.562-.468.875 0 1.485.484.624.468 1 1.187.375.705.531 1.547a6.5 6.5 0 0 1 .109 1.594 8.6 8.6 0 0 1-.265 1.672 5.3 5.3 0 0 1-.61 1.516 3.5 3.5 0 0 1-1.031 1.093q-.625.422-1.484.422m.156-7.062q-.234 0-.422.25-.172.25-.297.609-.11.36-.172.766-.062.39-.062.687 0 .375.062.813.078.437.203.812.126.36.297.61.188.234.422.234.25 0 .422-.234.188-.236.297-.594.11-.36.156-.782a8 8 0 0 0 .047-.812q0-.345-.063-.75a4.3 4.3 0 0 0-.187-.781 1.8 1.8 0 0 0-.297-.594q-.171-.234-.406-.234m13.516 1.453v.812q0 .5-.032 1.094-.015.594-.094 1.203a5.3 5.3 0 0 1-.25 1.078 2.5 2.5 0 0 1-.406.797.78.78 0 0 1-.64.313.6.6 0 0 1-.532-.282 2.3 2.3 0 0 1-.25-.687 5 5 0 0 1-.093-.797v-.64q0-.704.047-1.376.046-.672.046-1.375v-.28q0-.204-.031-.407a1.2 1.2 0 0 0-.109-.36q-.063-.156-.203-.156-.282 0-.453.297a2.7 2.7 0 0 0-.282.672q-.11.39-.156.781-.047.375-.062.563a9 9 0 0 0-.063.61q-.015.405-.063.89-.03.484-.124 1-.08.5-.219.922a2.2 2.2 0 0 1-.328.671q-.204.266-.5.266a.65.65 0 0 1-.579-.328 2.4 2.4 0 0 1-.296-.766 6 6 0 0 1-.125-.89 20 20 0 0 1-.016-.703v-.516q.016-.25.016-.516v-.359q0-.25-.016-.547a7 7 0 0 0-.031-.64 5 5 0 0 0-.063-.594 1.5 1.5 0 0 0-.14-.453q-.094-.172-.219-.172-.204 0-.375.265-.172.25-.297.61-.125.343-.203.687-.063.344-.063.5v.094q0 .75.094 1.469.094.718.094 1.468 0 .438-.281.813-.281.36-.782.36a.76.76 0 0 1-.593-.266 2.3 2.3 0 0 1-.391-.719 6 6 0 0 1-.25-.953 12 12 0 0 1-.109-1.031 39 39 0 0 1-.047-.922v-.625q0-.235-.016-.688 0-.453.016-.984.031-.531.093-1.078.063-.563.204-1.016t.359-.734a.73.73 0 0 1 .594-.297q.406 0 .656.219.266.218.266.656 0 .093-.016.187 0 .094-.016.172a3.7 3.7 0 0 1 .422-.5q.25-.265.531-.468.297-.218.626-.344.327-.14.656-.14.312 0 .562.171t.438.438q.188.249.312.546.126.297.172.563.156-.282.375-.563.234-.297.5-.515t.578-.36q.328-.14.672-.14a.77.77 0 0 1 .563.234q.234.234.406.61.171.36.266.828.093.453.156.906.061.438.078.828.016.375.016.594m7.765 5.61q-.797 0-1.391-.423a3.7 3.7 0 0 1-1-1.078 5.2 5.2 0 0 1-.609-1.453 6.6 6.6 0 0 1-.203-1.594q0-.828.203-1.703.204-.89.625-1.61.422-.734 1.078-1.187.657-.468 1.563-.468.875 0 1.484.484.625.468 1 1.187.375.705.531 1.547.157.844.11 1.594a8.6 8.6 0 0 1-.266 1.672 5.3 5.3 0 0 1-.609 1.516 3.5 3.5 0 0 1-1.031 1.093q-.626.422-1.485.422m.156-7.063q-.234 0-.421.25-.172.25-.297.609-.11.36-.172.766-.063.39-.063.687 0 .375.063.813.078.437.203.812.125.36.297.61.187.234.422.234.25 0 .421-.234.188-.236.297-.594.11-.36.157-.782.046-.437.046-.812 0-.345-.062-.75a4.3 4.3 0 0 0-.188-.781 1.7 1.7 0 0 0-.296-.594q-.172-.234-.407-.234m15.844-.422a6.5 6.5 0 0 1-.562 2.656 7.7 7.7 0 0 1-1.516 2.25 7.3 7.3 0 0 1-2.203 1.578 6.2 6.2 0 0 1-2.641.578h-.031a.56.56 0 0 1-.469-.25 2.8 2.8 0 0 1-.297-.656 5 5 0 0 1-.187-.875 16 16 0 0 1-.094-.937 13 13 0 0 1-.031-.829v-.562q0-.531.016-1.047.016-.531.046-1.062 0-.173.016-.5.032-.345.062-.766.031-.422.079-.875.047-.47.093-.86l.11-.703q.062-.312.14-.422.204-.343.625-.609.423-.266.907-.437a6 6 0 0 1 1-.25q.515-.094.89-.094 1.032 0 1.782.39a3.5 3.5 0 0 1 1.265 1.032q.516.64.75 1.484.25.844.25 1.766m-2.625.453q0-.345-.125-.703a2.2 2.2 0 0 0-.359-.657 1.6 1.6 0 0 0-.547-.468 1.34 1.34 0 0 0-.703-.188q-.329 0-.672.157-.078.046-.141.296a5 5 0 0 0-.109.578q-.031.345-.063.75-.03.407-.047.782 0 .36-.015.64v.845q0 .296.015.593.031.297.063.516.031.218.109.218.47 0 .922-.36.47-.374.844-.905.375-.532.594-1.11.234-.578.234-.984m14.016 4.875a7 7 0 0 1-.141.797 4 4 0 0 1-.203.703 1.2 1.2 0 0 1-.328.469.6.6 0 0 1-.438.187q-.249 0-.453-.39a5.5 5.5 0 0 1-.39-1 22 22 0 0 1-.329-1.438 77 77 0 0 1-.265-1.61 51 51 0 0 1-.188-1.609q-.077-.78-.125-1.36-.093.596-.218 1.329-.126.735-.297 1.5-.173.75-.375 1.484-.204.72-.438 1.297a4 4 0 0 1-.5.907q-.265.343-.562.343-.265 0-.532-.36a4.8 4.8 0 0 1-.515-.937 14 14 0 0 1-.469-1.312 37 37 0 0 1-.734-2.813 33 33 0 0 1-.219-1.093q0 .327-.016.734v.563q0 .078-.015.515 0 .437-.047 1.047t-.141 1.313a7.7 7.7 0 0 1-.281 1.28q-.172.595-.437 1-.266.407-.657.438a1.26 1.26 0 0 1-.531-.469 3.8 3.8 0 0 1-.344-.796 6.6 6.6 0 0 1-.218-.97 16 16 0 0 1-.188-1.922v-.687q0-.468.047-1.171.063-.72.187-1.5.126-.782.328-1.563.203-.78.485-1.39.297-.626.672-1.016.39-.39.89-.39.235 0 .5.265.266.265.532.703.266.422.515.953.25.531.469 1.078.234.531.406 1.032.173.483.281.828.126-.375.313-.875t.406-1.032q.235-.546.5-1.062.281-.531.578-.938.297-.42.594-.672.313-.265.625-.265.547 0 .938.406t.656 1.063q.266.64.422 1.453.156.796.234 1.593.094.78.11 1.47.03.686.031 1.109v.468q0 .297-.016.672 0 .375-.031.797a24 24 0 0 1-.078.844m4.203-6q0 .485-.016.969l-.031.968a40 40 0 0 0-.031 1.594q0 .781-.047 1.578-.016.266-.031.719a4.3 4.3 0 0 1-.125.875 2.2 2.2 0 0 1-.313.75.7.7 0 0 1-.609.313.8.8 0 0 1-.61-.25 2 2 0 0 1-.375-.657 4.5 4.5 0 0 1-.171-.89 15 15 0 0 1-.063-.97q0-.483.016-.89.015-.406.015-.625v-2.125l.032-2.125a2 2 0 0 1-.5-.64 1.95 1.95 0 0 1-.172-.797q0-.64.375-1.094.39-.453 1.062-.453.579 0 .906.437.328.438.469 1.047.156.61.188 1.25.03.625.031 1.016m3.594 6.875q0 .25-.141.64-.125.39-.328.766a2.7 2.7 0 0 1-.438.64q-.25.267-.484.266-.312 0-.312-.312a.9.9 0 0 1 .078-.36q.078-.172.172-.343a3 3 0 0 0 .171-.328.7.7 0 0 0 .079-.313.9.9 0 0 1-.5.156.79.79 0 0 1-.61-.28.92.92 0 0 1-.25-.626q0-.5.328-.797.329-.312.828-.312.563 0 .985.297t.422.906M171.828 59q0 .078-.016.172a1 1 0 0 1-.046.156q-.141.36-.438.61a1.1 1.1 0 0 1-.703.234q-.609 0-.828-.61a.5.5 0 0 1-.031-.171q0-.11-.016-.22v-.452a.9.9 0 0 0-.109-.344q-.078-.125-.266-.125-.265 0-.516.344a3.8 3.8 0 0 0-.421.797 7 7 0 0 0-.282.937 3.7 3.7 0 0 0-.109.781q0 .236.031.578.032.33.125.641.094.312.25.547a.54.54 0 0 0 .438.219.8.8 0 0 0 .484-.157q.234-.171.453-.39.203-.187.438-.39a.87.87 0 0 1 .562-.204q.391 0 .61.281a.97.97 0 0 1 .234.641q0 .532-.281 1a3.2 3.2 0 0 1-.703.797q-.423.328-.938.516a2.7 2.7 0 0 1-.984.203q-.844 0-1.438-.422a3.3 3.3 0 0 1-.937-1.063 5 5 0 0 1-.516-1.422 7.3 7.3 0 0 1-.156-1.453q0-.797.219-1.718a6.4 6.4 0 0 1 .671-1.735 4.3 4.3 0 0 1 1.157-1.328q.718-.531 1.703-.531.609 0 1.047.265.452.266.734.703.297.423.438.954.156.531.156 1.047v.156a1 1 0 0 1-.016.156m3.844 6.453q-.797 0-1.391-.422a3.7 3.7 0 0 1-1-1.078 5.2 5.2 0 0 1-.609-1.453 6.5 6.5 0 0 1-.203-1.594q0-.828.203-1.703.203-.89.625-1.61.422-.734 1.078-1.187.656-.468 1.563-.468.875 0 1.484.484.625.468 1 1.187.375.705.531 1.547a6.5 6.5 0 0 1 .109 1.594 8.6 8.6 0 0 1-.265 1.672 5.4 5.4 0 0 1-.609 1.516 3.5 3.5 0 0 1-1.032 1.093q-.624.422-1.484.422m.156-7.062q-.234 0-.422.25-.171.25-.297.609-.11.36-.171.766-.063.39-.063.687 0 .375.063.813.077.437.203.812.125.36.297.61.186.234.421.234.25 0 .422-.234.188-.236.297-.594.11-.36.156-.782.047-.437.047-.812 0-.345-.062-.75a4.3 4.3 0 0 0-.188-.781 1.8 1.8 0 0 0-.297-.594q-.172-.234-.406-.234m13.516 1.453v.812q0 .5-.032 1.094-.015.594-.093 1.203a5.3 5.3 0 0 1-.25 1.078q-.156.485-.407.797a.78.78 0 0 1-.64.313.6.6 0 0 1-.531-.282 2.2 2.2 0 0 1-.25-.687 5 5 0 0 1-.094-.797v-.64q0-.704.047-1.376t.047-1.375v-.28q0-.204-.032-.407a1.2 1.2 0 0 0-.109-.36q-.062-.156-.203-.156-.282 0-.453.297a2.7 2.7 0 0 0-.282.672 5.4 5.4 0 0 0-.156.781q-.047.375-.062.563a9 9 0 0 0-.063.61q-.015.405-.062.89a9 9 0 0 1-.125 1 6 6 0 0 1-.219.922q-.125.405-.328.671t-.5.266a.64.64 0 0 1-.578-.328 2.4 2.4 0 0 1-.297-.766 6 6 0 0 1-.125-.89 20 20 0 0 1-.016-.703v-.516q.016-.25.016-.516v-.359a10 10 0 0 0-.016-.547 7 7 0 0 0-.031-.64 5 5 0 0 0-.062-.594 1.5 1.5 0 0 0-.141-.453q-.095-.172-.219-.172-.202 0-.375.265-.171.25-.297.61-.125.343-.203.687-.062.344-.062.5v.094q0 .75.093 1.469.094.718.094 1.468 0 .438-.281.813-.282.36-.781.36a.76.76 0 0 1-.594-.266 2.4 2.4 0 0 1-.391-.719 6 6 0 0 1-.25-.953 13 13 0 0 1-.109-1.031 39 39 0 0 1-.047-.922v-.625q0-.235-.016-.688 0-.453.016-.984.031-.531.094-1.078a5.4 5.4 0 0 1 .203-1.016 2.3 2.3 0 0 1 .359-.734.73.73 0 0 1 .594-.297q.407 0 .656.219.266.218.266.656 0 .093-.016.187 0 .094-.015.172a3.5 3.5 0 0 1 .422-.5q.249-.265.531-.468.297-.218.625-.344.327-.14.656-.14.313 0 .562.171t.438.438q.188.249.312.546.126.297.172.563a5 5 0 0 1 .375-.563q.235-.297.5-.515a2.5 2.5 0 0 1 .579-.36q.327-.14.671-.14.329 0 .563.234.235.234.406.61.172.36.266.828.093.453.156.906.063.438.078.828.016.375.016.594m4 5.61q-.798 0-1.391-.423a3.7 3.7 0 0 1-1-1.078 5.2 5.2 0 0 1-.609-1.453 6.5 6.5 0 0 1-.203-1.594q0-.828.203-1.703.203-.89.625-1.61.421-.734 1.078-1.187.656-.468 1.562-.468.876 0 1.485.484.624.468 1 1.187.375.705.531 1.547a6.5 6.5 0 0 1 .109 1.594 8.6 8.6 0 0 1-.265 1.672 5.3 5.3 0 0 1-.61 1.516q-.405.671-1.031 1.093t-1.484.422m.156-7.063q-.234 0-.422.25-.171.25-.297.609-.11.36-.172.766-.062.39-.062.687 0 .375.062.813.078.437.203.812.126.36.297.61.188.234.422.234.25 0 .422-.234.188-.236.297-.594.11-.36.156-.782.048-.437.047-.812 0-.345-.062-.75a4.3 4.3 0 0 0-.188-.781 1.8 1.8 0 0 0-.297-.594q-.171-.234-.406-.234m12.375-1.985q0 .453-.313.672a6 6 0 0 1-.671.422q-.375.188-.688.453-.297.266-.297.797a.9.9 0 0 0 .125.484q.14.203.328.375.204.157.438.328t.422.391q.203.219.328.531.141.313.141.766 0 .657-.344 1.297a4.3 4.3 0 0 1-.86 1.125 4.3 4.3 0 0 1-1.172.781 3.1 3.1 0 0 1-1.296.297q-.266 0-.532-.047a1.5 1.5 0 0 1-.484-.14 1.05 1.05 0 0 1-.344-.297.9.9 0 0 1-.14-.516q0-.438.172-.672.171-.25.437-.39t.563-.22q.312-.077.578-.187.266-.124.437-.312.172-.187.172-.532 0-.327-.266-.671a14 14 0 0 0-.562-.75 8 8 0 0 1-.578-.86 2.03 2.03 0 0 1-.25-1q0-.672.265-1.234.282-.579.735-1a3.5 3.5 0 0 1 1.062-.656q.594-.25 1.25-.25.25 0 .485.047.25.046.437.171a.8.8 0 0 1 .297.313.86.86 0 0 1 .125.484m7.172 5.813q0 .531-.344 1.047-.328.5-.844.906a5 5 0 0 1-1.078.64q-.577.235-1.062.235a2.77 2.77 0 0 1-1.485-.406 3.9 3.9 0 0 1-1.078-1.063 5.2 5.2 0 0 1-.672-1.406 5.6 5.6 0 0 1-.218-1.516q0-.78.218-1.672a6.1 6.1 0 0 1 .657-1.64q.453-.75 1.125-1.25.687-.5 1.625-.5.53 0 1.015.187a2.46 2.46 0 0 1 1.422 1.282q.219.453.219 1.015 0 .735-.313 1.375a3.6 3.6 0 0 1-.828 1.11 4.4 4.4 0 0 1-1.187.765 4 4 0 0 1-1.375.313q.062.453.359.656.312.203.735.203.312 0 .609-.156a6 6 0 0 0 .578-.344q.281-.203.547-.36.281-.156.562-.156a.87.87 0 0 1 .563.203.65.65 0 0 1 .25.532m-2.531-3.828a.94.94 0 0 0-.11-.422.36.36 0 0 0-.344-.219.9.9 0 0 0-.578.188 1.4 1.4 0 0 0-.39.453q-.156.266-.25.578a3 3 0 0 0-.094.578q.219-.047.516-.125.312-.078.578-.203.281-.141.468-.344a.66.66 0 0 0 .204-.484m9.89-3.672q0 1.14-.094 2.265-.078 1.126-.078 2.266 0 .922.047 1.828.063.906.063 1.828 0 .25-.016.61-.015.343-.109.672a1.3 1.3 0 0 1-.281.562q-.189.234-.547.234-.469 0-.782-.343a1.7 1.7 0 0 1-.375-.797 2.7 2.7 0 0 1-.859.953q-.562.39-1.219.39a1.72 1.72 0 0 1-1.218-.484 4.3 4.3 0 0 1-.844-1.172 7 7 0 0 1-.5-1.437 6.5 6.5 0 0 1-.156-1.297q0-.39.046-.89.048-.501.157-1.016a8 8 0 0 1 .312-1q.187-.5.469-.891.297-.39.687-.625.407-.234.922-.234.563 0 1.078.328t.782.812l.14-2.484q.016-.297.047-.688.032-.406.125-.765.11-.36.328-.61.22-.25.641-.25.453 0 .703.22.25.217.359.562.126.328.141.718.031.39.031.735m-2.547 6.937q0-.36-.015-.703a8 8 0 0 1 0-.703 9 9 0 0 0-.219-.437 2 2 0 0 0-.313-.454 1.6 1.6 0 0 0-.39-.359.85.85 0 0 0-.469-.14.6.6 0 0 0-.453.171 1 1 0 0 0-.25.422 2.5 2.5 0 0 0-.109.516 8 8 0 0 0-.016.484q0 .188.031.563.032.36.11.734.093.375.25.656.156.282.422.282.202 0 .406-.079.202-.093.375-.218.187-.141.343-.297.172-.172.297-.313zm10.125.563q0 .531-.343 1.047-.328.5-.844.906-.5.39-1.078.64-.579.235-1.063.235a2.76 2.76 0 0 1-1.484-.406 3.9 3.9 0 0 1-1.078-1.063 5.1 5.1 0 0 1-.672-1.406 5.6 5.6 0 0 1-.219-1.516q0-.78.219-1.672.218-.89.656-1.64.453-.75 1.125-1.25.687-.5 1.625-.5.531 0 1.016.187a2.46 2.46 0 0 1 1.422 1.282q.218.453.218 1.015 0 .735-.312 1.375a3.6 3.6 0 0 1-.828 1.11 4.4 4.4 0 0 1-1.188.765 4 4 0 0 1-1.375.313q.063.453.36.656.312.203.734.203.312 0 .609-.156a6 6 0 0 0 .578-.344q.282-.203.547-.36.281-.156.563-.156.312 0 .562.203a.65.65 0 0 1 .25.532m-2.531-3.828a.94.94 0 0 0-.109-.422.36.36 0 0 0-.344-.219.9.9 0 0 0-.578.188 1.4 1.4 0 0 0-.391.453q-.156.266-.25.578a3 3 0 0 0-.093.578q.218-.047.515-.125.312-.078.578-.203.282-.141.469-.344a.66.66 0 0 0 .203-.484m13.469 3.828q0 .531-.344 1.047-.328.5-.844.906a5 5 0 0 1-1.078.64q-.577.235-1.062.235a2.77 2.77 0 0 1-1.485-.406 3.9 3.9 0 0 1-1.078-1.063 5.2 5.2 0 0 1-.672-1.406 5.6 5.6 0 0 1-.218-1.516q0-.78.218-1.672a6.1 6.1 0 0 1 .657-1.64q.453-.75 1.125-1.25.687-.5 1.625-.5.53 0 1.015.187a2.46 2.46 0 0 1 1.422 1.282q.219.453.219 1.015 0 .735-.313 1.375a3.6 3.6 0 0 1-.828 1.11 4.4 4.4 0 0 1-1.187.765 4 4 0 0 1-1.375.313q.062.453.359.656.312.203.734.203.313 0 .61-.156.296-.156.578-.344.282-.203.547-.36.281-.156.562-.156a.87.87 0 0 1 .563.203.65.65 0 0 1 .25.532m-2.531-3.828a.94.94 0 0 0-.11-.422.36.36 0 0 0-.343-.219.9.9 0 0 0-.579.188 1.4 1.4 0 0 0-.39.453q-.156.266-.25.578a3 3 0 0 0-.094.578q.219-.047.516-.125.312-.078.578-.203a1.6 1.6 0 0 0 .469-.344.66.66 0 0 0 .203-.484M19.25 80.406q-.406 1.078-.89 2.25t-1.047 2.188q-.345.624-.766 1.047-.421.406-.969.406-.437 0-.86-.438a6.6 6.6 0 0 1-.765-1.062q-.343-.626-.61-1.25a23 23 0 0 1-.374-1.016 40 40 0 0 0-.281-.906 15 15 0 0 1-.282-.984 12 12 0 0 1-.203-.985 6 6 0 0 1-.078-.937q0-.61.219-1 .218-.39.86-.39.25 0 .452.155.203.141.375.407.172.265.328.625.157.344.297.765.14.406.266.844.124.438.25.844.124.405.25.797.14.375.36.75.108-.281.25-.641l.296-.766q.172-.405.36-.828.187-.437.406-.844a8.3 8.3 0 0 1 .89-1.437q.485-.594.953-.594.438 0 .625.266.188.266.188.687 0 .423-.14.954t-.36 1.093m4.016 6.047q-.797 0-1.391-.422a3.7 3.7 0 0 1-1-1.078 5.2 5.2 0 0 1-.61-1.453 6.6 6.6 0 0 1-.203-1.594q0-.828.204-1.703a5.6 5.6 0 0 1 .625-1.61q.42-.734 1.078-1.187.656-.469 1.562-.469.875 0 1.485.485.624.468 1 1.187.375.704.53 1.547.158.844.11 1.594a8.6 8.6 0 0 1-.265 1.672 5.3 5.3 0 0 1-.61 1.516q-.405.671-1.031 1.093t-1.484.422m.156-7.062q-.234 0-.422.25-.172.25-.297.609a5.5 5.5 0 0 0-.172.766q-.062.39-.062.687 0 .375.062.813.078.437.203.812.126.36.297.61.188.234.422.234.25 0 .422-.234.188-.236.297-.594.11-.36.156-.781.047-.438.047-.813 0-.345-.062-.75a4.3 4.3 0 0 0-.188-.781 1.8 1.8 0 0 0-.297-.594q-.172-.234-.406-.234m8.469 7.046q-.266 0-.422-.25a1.7 1.7 0 0 1-.235-.546 4.4 4.4 0 0 1-.109-.625q-.016-.33-.016-.5 0-.469.047-.938l.125-.937q.078-.469.125-.938a7 7 0 0 0 .063-.937q0-.187-.016-.407a1.7 1.7 0 0 0-.078-.406.66.66 0 0 0-.172-.328.44.44 0 0 0-.328-.125q-.141 0-.312.234a3.4 3.4 0 0 0-.329.516q-.14.281-.25.578a1.5 1.5 0 0 0-.093.422v.703q.015.345.015.703v.906q-.015.281-.047.579a5 5 0 0 1-.093.578q-.047.281-.141.547a1.7 1.7 0 0 1-.25.453q-.14.188-.344.312a.9.9 0 0 1-.484.125.7.7 0 0 1-.516-.203 1.5 1.5 0 0 1-.328-.516 3.6 3.6 0 0 1-.187-.718q-.048-.406-.078-.781-.016-.39-.016-.704.015-.327.015-.515v-.735q0-.593-.03-1.171-.016-.578-.016-1.157v-.797a4.6 4.6 0 0 1 .125-.937q.109-.469.359-.797t.734-.328a.6.6 0 0 1 .391.14q.172.141.297.344.14.203.219.438.093.234.14.406.156-.22.36-.422a2.8 2.8 0 0 1 .484-.36A2.54 2.54 0 0 1 31.844 77q.796 0 1.234.39.453.375.656.954.22.562.266 1.219.047.656.047 1.187 0 .266-.047.797-.046.516-.156 1.156-.094.626-.266 1.297a8.6 8.6 0 0 1-.406 1.203 3 3 0 0 1-.563.89q-.312.345-.718.344m6.672.126q-1.11 0-1.735-.297a2 2 0 0 1-.922-.813q-.296-.531-.36-1.281-.061-.75-.062-1.672 0-.735.047-1.469.047-.75.14-1.594-.218 0-.343.016h-.203q-.5 0-.86-.219-.375-.219-.374-.671 0-.282.218-.5a1.7 1.7 0 0 1 .532-.376q.328-.156.703-.25.39-.094.734-.124 0-.438.063-.97.062-.53.218-.984.172-.468.453-.78a.92.92 0 0 1 .72-.313q.25 0 .437.156.203.141.328.375.125.218.187.5.063.281.063.547 0 .312-.047.64-.047.33-.172.813.265-.031.36-.031.094-.016.171-.016.266 0 .547.047.297.047.532.156.25.11.406.297a.6.6 0 0 1 .156.422.67.67 0 0 1-.234.5q-.22.218-.563.375-.344.156-.734.25-.39.078-.735.11-.093.64-.14 1.187-.031.53-.078 1.078l-.063.547q-.015.266-.016.547 0 .202.016.484.015.266.11.516.093.25.296.437.203.172.563.172.219 0 .453-.031a2.4 2.4 0 0 1 .469-.047q.405 0 .578.281.187.282.187.719a.9.9 0 0 1-.203.578 1.35 1.35 0 0 1-.484.375 2.6 2.6 0 0 1-.672.234q-.36.08-.687.079m9-2.766q0 .28-.032.734-.015.454-.125.89a2.1 2.1 0 0 1-.343.735q-.236.313-.657.313-.578 0-.89-.375-.314-.375-.297-.938-.501.438-1.14.688-.627.25-1.282.25-.453 0-.86-.219a2.7 2.7 0 0 1-.718-.562 2.9 2.9 0 0 1-.5-.766 2.2 2.2 0 0 1-.188-.86q0-.75.453-1.312a4.3 4.3 0 0 1 1.141-.953q.672-.406 1.422-.64.765-.235 1.36-.313v-.14a.6.6 0 0 0 .015-.141q0-.485-.266-.782-.265-.297-.75-.297-.39 0-.672.141a3.3 3.3 0 0 0-.53.297q-.252.156-.5.297a1.24 1.24 0 0 1-.563.125.87.87 0 0 1-.594-.219.74.74 0 0 1-.234-.562q0-.516.296-.938.313-.422.766-.703a4 4 0 0 1 1-.453 3.4 3.4 0 0 1 1-.172q.422 0 .844.11.422.093.797.312.375.203.672.515.312.297.5.704.28.577.453 1.234.172.64.265 1.328.094.672.125 1.36.032.671.032 1.312m-2.5-.5-.047-1.063h-.063a.14.14 0 0 0-.062-.015q-.204 0-.516.11-.297.093-.578.28a2.3 2.3 0 0 0-.484.391.7.7 0 0 0-.188.453q0 .219.156.297a.8.8 0 0 0 .36.078q.344 0 .734-.172.39-.188.688-.36m10.171-7.578q0 1.14-.093 2.265-.078 1.126-.078 2.266 0 .922.046 1.828.063.906.063 1.828 0 .25-.016.61-.015.344-.11.671a1.3 1.3 0 0 1-.28.563q-.188.234-.547.234-.469 0-.782-.343a1.7 1.7 0 0 1-.374-.797 2.7 2.7 0 0 1-.86.953q-.562.39-1.219.39a1.72 1.72 0 0 1-1.218-.484 4.3 4.3 0 0 1-.844-1.172 7 7 0 0 1-.5-1.437 6.5 6.5 0 0 1-.156-1.297 9.6 9.6 0 0 1 .203-1.906q.124-.516.312-1 .188-.5.469-.891.297-.39.688-.625.406-.234.921-.234.563 0 1.078.328.516.329.782.812l.14-2.484q.015-.297.047-.688.032-.406.125-.765.11-.36.328-.61.22-.25.641-.25.453 0 .703.22.25.218.36.562.125.328.14.718.031.39.031.735m-2.547 6.937q0-.36-.015-.703t0-.703a9 9 0 0 0-.219-.437 2 2 0 0 0-.312-.454A1.6 1.6 0 0 0 51.75 80a.85.85 0 0 0-.469-.14.6.6 0 0 0-.453.171 1 1 0 0 0-.25.422 2.5 2.5 0 0 0-.11.516q-.015.281-.015.484 0 .188.031.563.032.36.11.734.093.375.25.656.156.281.422.281.202 0 .406-.078.203-.093.375-.218.188-.141.344-.297.171-.172.297-.313zm10.126.563q0 .531-.344 1.047-.328.5-.844.906-.5.39-1.078.64-.579.235-1.063.235A2.76 2.76 0 0 1 58 85.64a3.9 3.9 0 0 1-1.078-1.063 5.2 5.2 0 0 1-.672-1.406 5.6 5.6 0 0 1-.219-1.516q0-.78.219-1.672.22-.89.656-1.64.453-.75 1.125-1.25.688-.5 1.625-.5.531 0 1.016.187a2.45 2.45 0 0 1 1.422 1.281q.219.454.218 1.016 0 .735-.312 1.375a3.6 3.6 0 0 1-.828 1.11q-.516.468-1.188.765a4 4 0 0 1-1.375.313q.063.453.36.656.312.203.734.203.313 0 .61-.156.296-.156.578-.344.281-.203.547-.36a1.15 1.15 0 0 1 .562-.156.87.87 0 0 1 .563.204q.25.203.25.53M60.28 79.39a.94.94 0 0 0-.11-.422.36.36 0 0 0-.343-.219.9.9 0 0 0-.578.188 1.4 1.4 0 0 0-.39.453q-.157.266-.25.578a3 3 0 0 0-.094.578q.218-.047.515-.125a3 3 0 0 0 .578-.203q.282-.141.47-.344a.66.66 0 0 0 .202-.484m13.657-3.672q0 1.14-.094 2.265-.078 1.126-.078 2.266 0 .922.046 1.828.063.906.063 1.828 0 .25-.016.61-.015.344-.109.671a1.3 1.3 0 0 1-.281.563q-.187.234-.547.234-.47 0-.781-.343a1.7 1.7 0 0 1-.375-.797 2.7 2.7 0 0 1-.86.953q-.562.39-1.219.39a1.72 1.72 0 0 1-1.218-.484 4.3 4.3 0 0 1-.844-1.172 7 7 0 0 1-.5-1.437 6.5 6.5 0 0 1-.156-1.297 9.7 9.7 0 0 1 .203-1.906q.124-.516.312-1 .188-.5.47-.891.296-.39.687-.625.406-.234.921-.234.564 0 1.079.328.515.329.78.812l.141-2.484q.015-.297.047-.688.032-.406.125-.765.11-.36.329-.61.218-.25.64-.25.454 0 .703.22.25.218.36.562.125.328.14.718.031.39.031.735m-2.547 6.937q0-.36-.016-.703-.015-.343 0-.703a9 9 0 0 0-.219-.437 2 2 0 0 0-.312-.454 1.6 1.6 0 0 0-.39-.359.85.85 0 0 0-.47-.14.6.6 0 0 0-.453.171 1 1 0 0 0-.25.422 2.5 2.5 0 0 0-.11.516q-.015.281-.015.484 0 .188.031.563.032.36.11.734.093.375.25.656.156.281.422.281.202 0 .406-.078.203-.093.375-.218.188-.141.344-.297a7 7 0 0 0 .297-.313zm10.125.563q0 .531-.344 1.047-.328.5-.844.906-.5.39-1.078.64-.578.235-1.062.235a2.76 2.76 0 0 1-1.485-.406 3.9 3.9 0 0 1-1.078-1.063 5.2 5.2 0 0 1-.672-1.406 5.6 5.6 0 0 1-.219-1.516q0-.78.22-1.672.218-.89.655-1.64.454-.75 1.125-1.25.688-.5 1.625-.5.532 0 1.016.187a2.45 2.45 0 0 1 1.422 1.281q.219.454.219 1.016 0 .735-.313 1.375a3.6 3.6 0 0 1-.828 1.11q-.516.468-1.187.765a4 4 0 0 1-1.376.313q.063.453.36.656.312.203.734.203.313 0 .61-.156.296-.156.578-.344.281-.203.547-.36a1.15 1.15 0 0 1 .562-.156q.313 0 .563.204t.25.53m-2.532-3.828a.94.94 0 0 0-.109-.422.36.36 0 0 0-.344-.219.9.9 0 0 0-.578.188 1.4 1.4 0 0 0-.39.453q-.157.266-.25.578a3 3 0 0 0-.094.578q.22-.047.515-.125.313-.078.579-.203.28-.141.468-.344a.66.66 0 0 0 .203-.484m13.47-2.735q0 .296-.063.578a1.2 1.2 0 0 1-.188.47 1.04 1.04 0 0 1-.375.327q-.234.11-.578.11-.39 0-.578-.157a.86.86 0 0 1-.266-.375 2 2 0 0 1-.062-.5q0-.265-.031-.484a.86.86 0 0 0-.11-.39q-.093-.157-.344-.157-.234 0-.39.36-.14.36-.235.828-.093.469-.125.921-.03.438-.03.594.203-.03.39-.047a2.5 2.5 0 0 1 .86.016q.233.047.437.156a.8.8 0 0 1 .328.281q.125.172.125.438 0 .282-.25.5-.235.218-.578.375a5 5 0 0 1-.672.234q-.345.095-.547.125.047 1.08.047 2.172 0 1.032-.047 2.031-.031.485-.344.797-.297.313-.781.313a.9.9 0 0 1-.453-.11.85.85 0 0 1-.313-.265 1.5 1.5 0 0 1-.203-.39 2.2 2.2 0 0 1-.078-.454 57 57 0 0 1-.125-1.875 29 29 0 0 1-.031-1.906 2 2 0 0 1-.219.016h-.203a2.7 2.7 0 0 1-.969-.204 1.7 1.7 0 0 1-.406-.296.6.6 0 0 1-.172-.438q0-.344.234-.578.219-.234.532-.375.327-.156.671-.219.36-.062.626-.094v-.25q0-.765.14-1.64t.5-1.625.984-1.235q.625-.5 1.594-.5.609 0 1.047.266.438.25.719.672.281.406.406.937.126.516.125 1.047m6.062 7.14q0 .282-.032.735a4.3 4.3 0 0 1-.125.89 2.1 2.1 0 0 1-.343.735q-.235.313-.657.313-.578 0-.89-.375t-.297-.938q-.501.438-1.14.688-.625.25-1.282.25-.453 0-.86-.219a2.7 2.7 0 0 1-.718-.562 2.9 2.9 0 0 1-.5-.766 2.2 2.2 0 0 1-.188-.86q0-.75.454-1.312a4.3 4.3 0 0 1 1.14-.953q.672-.406 1.422-.64.765-.235 1.36-.313v-.14a.6.6 0 0 0 .015-.141q0-.485-.266-.782t-.75-.297q-.39 0-.671.141a3.3 3.3 0 0 0-.532.297q-.25.156-.5.297a1.24 1.24 0 0 1-.562.125.87.87 0 0 1-.594-.219.74.74 0 0 1-.234-.562q0-.516.296-.938.313-.422.766-.703a4 4 0 0 1 1-.453 3.4 3.4 0 0 1 1-.172q.422 0 .844.11.422.093.797.312.375.203.672.515.312.297.5.704.28.577.453 1.234.171.64.265 1.328.095.672.125 1.36.032.671.032 1.312m-2.5-.5-.047-1.062h-.063a.14.14 0 0 0-.062-.015q-.203 0-.516.11-.297.093-.578.28a2.3 2.3 0 0 0-.484.391.7.7 0 0 0-.188.453q0 .219.156.297a.8.8 0 0 0 .36.078q.344 0 .734-.172.39-.188.688-.36m10.453 1.235q0 .313-.266.547a2.5 2.5 0 0 1-.656.422q-.391.188-.906.313-.5.124-1 .203-.485.078-.922.109a7 7 0 0 1-.703.047q-.266 0-.75-.016a5 5 0 0 1-.938-.125 2.4 2.4 0 0 1-.812-.312.74.74 0 0 1-.344-.64q0-.314.219-.766.218-.453.562-.985.344-.53.766-1.078.422-.562.828-1.078t.765-.938q.36-.436.563-.718a11 11 0 0 0-.563.14q-.327.078-.687.156-.36.08-.703.141a4 4 0 0 1-.563.047q-.187 0-.421-.062a2.5 2.5 0 0 1-.454-.204 1.7 1.7 0 0 1-.359-.296.6.6 0 0 1-.14-.391q0-.282.25-.516.25-.25.656-.437.406-.203.906-.344.5-.156.984-.25a8 8 0 0 1 1.625-.203q.297 0 .719.062.422.063.813.22.406.155.687.421a.9.9 0 0 1 .281.672q0 .125-.031.234-.015.094-.047.219-.031.11-.281.5-.234.375-.594.906-.343.516-.765 1.125-.407.594-.782 1.125a143 143 0 0 0-1.031 1.485q.64-.172 1.297-.282.671-.125 1.328-.125.156 0 .406.016t.485.094q.234.063.406.203a.42.42 0 0 1 .172.36m6.859-1.312q0 .531-.344 1.047-.328.5-.843.906a5 5 0 0 1-1.079.64q-.578.235-1.062.235a2.76 2.76 0 0 1-1.484-.406 3.9 3.9 0 0 1-1.078-1.063 5.1 5.1 0 0 1-.672-1.406 5.6 5.6 0 0 1-.219-1.516q0-.78.219-1.672.218-.89.656-1.64.453-.75 1.125-1.25.687-.5 1.625-.5.531 0 1.016.187a2.45 2.45 0 0 1 1.421 1.281q.219.454.219 1.016 0 .735-.312 1.375a3.7 3.7 0 0 1-.828 1.11 4.4 4.4 0 0 1-1.188.765 4 4 0 0 1-1.375.313q.063.453.359.656.314.203.735.203.312 0 .609-.156a6 6 0 0 0 .578-.344q.282-.203.547-.36.281-.155.563-.156.312 0 .562.204a.65.65 0 0 1 .25.53m-2.531-3.828a.95.95 0 0 0-.109-.422.36.36 0 0 0-.344-.219.9.9 0 0 0-.578.188 1.4 1.4 0 0 0-.391.453q-.156.266-.25.578a3 3 0 0 0-.094.578q.219-.047.516-.125.312-.078.578-.203.281-.141.469-.344a.66.66 0 0 0 .203-.484m8.578.765q-.219.015-.375-.031l-.312-.125a3 3 0 0 0-.282-.11.6.6 0 0 0-.312-.046q-.313.016-.563.172a2.2 2.2 0 0 0-.437.39 2.7 2.7 0 0 0-.328.531 3 3 0 0 0-.219.563 4 4 0 0 0-.078.578q-.016.375-.016.813-.015.453-.015.859t-.032.64q-.015.25-.078.594a2.6 2.6 0 0 1-.203.625 1.4 1.4 0 0 1-.344.5.8.8 0 0 1-.562.204.75.75 0 0 1-.469-.157 1.4 1.4 0 0 1-.328-.406 4 4 0 0 1-.219-.61 8 8 0 0 1-.125-.703q-.047-.375-.078-.75l-.031-.703v-.625q.015-.28.015-.453-.015-.546-.062-1.094a20 20 0 0 1-.031-1.109q0-.343.031-.766.031-.42.172-.78a1.6 1.6 0 0 1 .406-.626q.282-.25.766-.25.266 0 .453.172.188.172.297.422.124.25.187.531t.078.516q.375-.609.844-.984.47-.39 1.219-.422.375-.016.734.078.375.078.672.281.312.188.5.5.203.312.219.734.031.5-.297.766-.328.265-.797.281m11.687-2.219q0 .25-.093.532-.094.266-.235.547t-.296.546q-.157.25-.282.47-.312.5-.625 1.015-.297.515-.609 1.016l.39.609q.25.39.485.828.25.422.422.844.172.421.172.719 0 .281-.219.546a.67.67 0 0 1-.531.266q-.328 0-.672-.234a6 6 0 0 1-.657-.547 9 9 0 0 1-.578-.672q-.266-.36-.453-.594-.203.219-.531.594-.313.375-.688.734a6.4 6.4 0 0 1-.718.625q-.36.25-.641.25a.62.62 0 0 1-.515-.234.85.85 0 0 1-.188-.547q0-.312.203-.797.22-.484.5-1 .297-.516.578-.984.297-.469.453-.735a29 29 0 0 1-.39-.734 20 20 0 0 1-.453-.969 16 16 0 0 1-.36-1 3.2 3.2 0 0 1-.14-.828q0-.36.218-.578.219-.219.579-.219.39 0 .734.313.344.297.64.734.297.422.516.89.234.455.375.75l.516-.765q.344-.484.765-.953.423-.468.875-.812.453-.344.86-.344.265 0 .422.234a.77.77 0 0 1 .171.484m3.047-2.843a.64.64 0 0 1-.125.39 1.2 1.2 0 0 1-.296.313 2 2 0 0 1-.407.203 1.5 1.5 0 0 1-.406.063.96.96 0 0 1-.547-.157q-.234-.156-.234-.484a.74.74 0 0 1 .109-.406 1 1 0 0 1 .297-.297q.172-.126.391-.188.218-.062.421-.062.298 0 .547.14t.25.485m.125 5.312v.469q0 .234-.015.453-.016.266-.016.719 0 .438-.031.953-.031.516-.11 1.047a4.4 4.4 0 0 1-.218.969 2 2 0 0 1-.422.718.9.9 0 0 1-.641.282.58.58 0 0 1-.5-.235 2.2 2.2 0 0 1-.343-.64 5.3 5.3 0 0 1-.188-.891 17 17 0 0 1-.094-.953 13 13 0 0 1-.031-.86v-1.281q0-.469.031-1 .032-.53.11-1.078a6 6 0 0 1 .25-1q.171-.453.437-.734a.88.88 0 0 1 .672-.281q.422 0 .641.421.218.423.328.985.109.563.125 1.125.015.546.015.812m7.704-2.469q0 .25-.094.532-.094.266-.235.547t-.297.546q-.156.25-.281.47-.312.5-.625 1.015-.297.515-.609 1.016l.391.609q.25.39.484.828.25.422.422.844.172.421.172.719 0 .281-.219.546a.67.67 0 0 1-.531.266q-.328 0-.672-.234a6 6 0 0 1-.656-.547 9 9 0 0 1-.579-.672q-.266-.36-.453-.594-.202.219-.531.594-.312.375-.687.734-.36.36-.719.625-.36.25-.641.25a.63.63 0 0 1-.516-.234.86.86 0 0 1-.187-.547q0-.312.203-.797.22-.484.5-1 .297-.516.578-.984.297-.469.453-.735a19 19 0 0 1-.843-1.703 16 16 0 0 1-.36-1 3.2 3.2 0 0 1-.14-.828q0-.36.218-.578a.78.78 0 0 1 .578-.219q.392 0 .735.313.344.297.641.734.296.422.515.89.234.455.375.75l.516-.765q.344-.484.765-.953.423-.468.875-.812.453-.344.86-.344.265 0 .422.234a.77.77 0 0 1 .172.484m3.046-2.843a.64.64 0 0 1-.125.39 1.2 1.2 0 0 1-.297.313q-.186.124-.406.203a1.5 1.5 0 0 1-.406.063.96.96 0 0 1-.547-.157q-.234-.156-.234-.484a.74.74 0 0 1 .109-.406 1 1 0 0 1 .297-.297q.172-.126.391-.188a1.5 1.5 0 0 1 .422-.062q.296 0 .546.14t.25.485m.125 5.312v.469q0 .234-.015.453-.016.266-.016.719 0 .438-.031.953-.031.516-.109 1.047a4.4 4.4 0 0 1-.219.969 2 2 0 0 1-.422.718.9.9 0 0 1-.641.282.58.58 0 0 1-.5-.235 2.2 2.2 0 0 1-.344-.64 5.4 5.4 0 0 1-.187-.891 17 17 0 0 1-.094-.953 13 13 0 0 1-.031-.86v-1.281q0-.469.031-1 .032-.53.11-1.078a6 6 0 0 1 .25-1q.171-.453.437-.734a.88.88 0 0 1 .672-.281q.422 0 .641.421.218.423.328.985.109.563.125 1.125.015.546.015.812m8.516 6.156q-1.11 0-1.734-.296a2 2 0 0 1-.922-.813q-.297-.531-.36-1.281a21 21 0 0 1-.062-1.672q0-.735.047-1.469.047-.75.14-1.594-.218 0-.343.016h-.203q-.5 0-.86-.219-.375-.219-.375-.671 0-.282.219-.5a1.7 1.7 0 0 1 .531-.376q.328-.156.703-.25.39-.094.735-.124 0-.438.062-.97.063-.53.219-.984.172-.468.453-.78a.92.92 0 0 1 .719-.313q.25 0 .437.156.204.141.328.375.125.218.188.5.063.281.062.547 0 .312-.047.64-.047.33-.171.813.266-.031.359-.031.094-.016.172-.016.265 0 .547.047.297.047.531.156.25.11.406.297a.6.6 0 0 1 .156.422.67.67 0 0 1-.234.5q-.219.218-.562.375-.344.156-.735.25-.39.078-.734.11a20 20 0 0 0-.141 1.187q-.031.53-.078 1.078-.032.266-.062.547a9 9 0 0 0 0 1.031q.015.266.109.516t.297.437q.203.172.562.172.219 0 .454-.031.234-.047.468-.047.407 0 .578.281.188.282.188.719a.9.9 0 0 1-.203.578 1.35 1.35 0 0 1-.485.375 2.6 2.6 0 0 1-.672.234 3.2 3.2 0 0 1-.687.079m5.328-.109q-.797 0-1.391-.422a3.7 3.7 0 0 1-1-1.078 5.2 5.2 0 0 1-.609-1.453 6.6 6.6 0 0 1-.203-1.594q0-.828.203-1.703.204-.89.625-1.61.422-.734 1.078-1.187.657-.469 1.563-.469.875 0 1.484.485.625.468 1 1.187.375.704.531 1.547.157.844.11 1.594a8.6 8.6 0 0 1-.266 1.672 5.3 5.3 0 0 1-.609 1.516 3.5 3.5 0 0 1-1.031 1.093q-.625.422-1.485.422m.156-7.062q-.234 0-.421.25-.173.25-.297.609-.11.36-.172.766-.063.39-.063.687 0 .375.063.813.078.437.203.812.124.36.297.61.187.234.422.234.25 0 .421-.234.188-.236.297-.594.11-.36.157-.781.046-.438.046-.813 0-.345-.062-.75a4.3 4.3 0 0 0-.188-.781 1.7 1.7 0 0 0-.296-.594q-.172-.234-.407-.234m10.766-3.672q0 1.14-.094 2.265-.078 1.126-.078 2.266 0 .922.047 1.828.063.906.062 1.828 0 .25-.015.61-.016.344-.109.671a1.3 1.3 0 0 1-.282.563q-.187.234-.547.234-.469 0-.781-.343a1.7 1.7 0 0 1-.375-.797 2.7 2.7 0 0 1-.859.953q-.563.39-1.219.39-.703 0-1.219-.484a4.3 4.3 0 0 1-.844-1.172 7 7 0 0 1-.5-1.437 6.5 6.5 0 0 1-.156-1.297 10 10 0 0 1 .203-1.906 8 8 0 0 1 .313-1q.187-.5.469-.891.297-.39.687-.625.406-.234.922-.234.562 0 1.078.328.516.329.781.812l.141-2.484q.015-.297.047-.688a4.3 4.3 0 0 1 .125-.765q.11-.36.328-.61t.641-.25q.453 0 .703.22.25.218.359.562.124.328.141.718.031.39.031.735m-2.547 6.937q0-.36-.016-.703-.015-.343 0-.703a8 8 0 0 0-.218-.437 2 2 0 0 0-.313-.454 1.6 1.6 0 0 0-.39-.359.85.85 0 0 0-.469-.14.6.6 0 0 0-.453.171 1 1 0 0 0-.25.422 2.5 2.5 0 0 0-.11.516q-.015.281-.015.484a7.3 7.3 0 0 0 .14 1.297q.094.375.25.656.157.281.422.281.204 0 .406-.078.204-.093.376-.218.186-.141.343-.297.173-.172.297-.313zm10.219 1.14q0 .282-.031.735a4.3 4.3 0 0 1-.125.89 2.1 2.1 0 0 1-.344.735q-.234.313-.656.313-.579 0-.891-.375t-.297-.938q-.5.438-1.141.688-.624.25-1.281.25-.453 0-.859-.219a2.7 2.7 0 0 1-.719-.562 2.9 2.9 0 0 1-.5-.766 2.2 2.2 0 0 1-.187-.86q0-.75.453-1.312a4.2 4.2 0 0 1 1.14-.953q.672-.406 1.422-.64a8.5 8.5 0 0 1 1.36-.313v-.14a.6.6 0 0 0 .015-.141q0-.485-.265-.782t-.75-.297q-.391 0-.672.141a3.3 3.3 0 0 0-.531.297q-.25.156-.5.297a1.25 1.25 0 0 1-.563.125.87.87 0 0 1-.594-.219.74.74 0 0 1-.234-.562q0-.516.297-.938.312-.422.765-.703a4 4 0 0 1 1-.453 3.4 3.4 0 0 1 1-.172q.423 0 .844.11.422.093.797.312.375.203.672.515.312.297.5.704.28.577.453 1.234.172.64.266 1.328.093.672.125 1.36.03.671.031 1.312m-2.5-.5L175 82.235h-.062a.14.14 0 0 0-.063-.015q-.202 0-.516.11-.297.093-.578.28a2.3 2.3 0 0 0-.484.391.7.7 0 0 0-.188.453q0 .219.157.297a.8.8 0 0 0 .359.078q.344 0 .734-.172.391-.188.688-.36m14.297-1.343q0 .266-.016.797 0 .516-.047 1.094-.031.562-.093 1.078-.063.5-.157.734-.124.297-.328.516-.203.219-.547.219-.531 0-.765-.422-.235-.421-.313-1.047a9 9 0 0 1-.062-1.36q.015-.734-.016-1.359a4 4 0 0 0-.172-1.047q-.141-.422-.516-.422-.515 0-.796.172a.95.95 0 0 0-.391.422q-.11.265-.141.61-.016.343-.046.718-.032.36-.047.969a6.7 6.7 0 0 1-.141 1.203 2.9 2.9 0 0 1-.422 1.031q-.281.423-.844.422a.7.7 0 0 1-.562-.265 2.1 2.1 0 0 1-.328-.688 5.7 5.7 0 0 1-.188-.937 17 17 0 0 1-.062-1v-.907q.015-.406.015-.609 0-.312.016-1.031.031-.719.109-1.594.078-.89.204-1.828a14 14 0 0 1 .328-1.703q.202-.782.484-1.266.297-.484.688-.469.25.016.421.22.187.203.297.53.125.313.203.688t.11.75q.047.36.047.672.015.313.015.484a22 22 0 0 1-.062 1.625q.359-.484.953-.797a2.65 2.65 0 0 1 1.219-.312q.78 0 1.171.437.406.422.579 1.063.172.624.187 1.344.016.702.016 1.265m4.078 4.5q-.797 0-1.391-.422a3.7 3.7 0 0 1-1-1.078 5.2 5.2 0 0 1-.609-1.453 6.5 6.5 0 0 1-.203-1.594q0-.828.203-1.703.203-.89.625-1.61.422-.734 1.078-1.187.656-.469 1.563-.469.875 0 1.484.485.625.468 1 1.187.375.704.531 1.547a6.5 6.5 0 0 1 .109 1.594 8.6 8.6 0 0 1-.265 1.672 5.4 5.4 0 0 1-.609 1.516 3.5 3.5 0 0 1-1.032 1.093q-.624.422-1.484.422m.156-7.062q-.234 0-.422.25-.171.25-.297.609-.11.36-.171.766-.063.39-.063.687 0 .375.063.813.077.437.203.812.125.36.297.61.186.234.421.234.25 0 .422-.234.188-.236.297-.594.11-.36.156-.781.047-.438.047-.813 0-.345-.062-.75a4.3 4.3 0 0 0-.188-.781 1.8 1.8 0 0 0-.297-.594q-.172-.234-.406-.234m9.453.765q-.219.015-.375-.031l-.312-.125a3 3 0 0 0-.282-.11.6.6 0 0 0-.312-.046q-.312.016-.562.172a2.2 2.2 0 0 0-.438.39 2.7 2.7 0 0 0-.328.531 3 3 0 0 0-.219.563 4 4 0 0 0-.078.578q-.016.375-.016.813-.015.453-.015.859t-.032.64q-.015.25-.078.594a2.5 2.5 0 0 1-.203.625 1.4 1.4 0 0 1-.343.5.8.8 0 0 1-.563.204.75.75 0 0 1-.469-.157 1.4 1.4 0 0 1-.328-.406 4 4 0 0 1-.219-.61 8 8 0 0 1-.125-.703q-.047-.375-.078-.75-.015-.375-.031-.703v-.625q.016-.28.016-.453-.016-.546-.063-1.094a20 20 0 0 1-.031-1.109q0-.343.031-.766.031-.42.172-.78a1.6 1.6 0 0 1 .406-.626q.282-.25.766-.25.266 0 .453.172.188.172.297.422.125.25.187.531.063.282.079.516.375-.609.843-.984.47-.39 1.219-.422.375-.016.734.078.375.078.672.281.313.188.5.5.204.312.219.734.031.5-.297.766-.328.265-.797.281m7.969 3.64q0 .282-.031.735a4.3 4.3 0 0 1-.125.89 2.1 2.1 0 0 1-.344.735q-.234.313-.656.313-.579 0-.891-.375t-.297-.938q-.5.438-1.14.688-.625.25-1.282.25-.453 0-.859-.219a2.7 2.7 0 0 1-.719-.562 2.9 2.9 0 0 1-.5-.766 2.2 2.2 0 0 1-.187-.86q0-.75.453-1.312a4.3 4.3 0 0 1 1.14-.953q.672-.406 1.422-.64a8.5 8.5 0 0 1 1.36-.313v-.14a.6.6 0 0 0 .015-.141q0-.485-.265-.782-.266-.297-.75-.297-.392 0-.672.141a3.3 3.3 0 0 0-.531.297q-.25.156-.5.297a1.25 1.25 0 0 1-.563.125.87.87 0 0 1-.594-.219.74.74 0 0 1-.234-.562q0-.516.297-.938.312-.422.765-.703a4 4 0 0 1 1-.453 3.4 3.4 0 0 1 1-.172q.423 0 .844.11.423.093.797.312.375.203.672.515.312.297.5.704.281.577.453 1.234.172.64.266 1.328.093.672.125 1.36.031.671.031 1.312m-2.5-.5-.047-1.062h-.062a.14.14 0 0 0-.063-.015q-.202 0-.516.11a2.3 2.3 0 0 0-.578.28 2.3 2.3 0 0 0-.484.391.7.7 0 0 0-.188.453q0 .219.157.297a.8.8 0 0 0 .359.078q.344 0 .734-.172.391-.188.688-.36m5.688 1.876q0 .25-.141.64-.125.39-.328.766a2.7 2.7 0 0 1-.438.64q-.25.267-.484.266-.312 0-.313-.312a.9.9 0 0 1 .078-.36q.08-.171.172-.343.094-.156.172-.328a.7.7 0 0 0 .078-.313.9.9 0 0 1-.5.156.79.79 0 0 1-.609-.28.92.92 0 0 1-.25-.626q0-.5.328-.797.328-.312.828-.312.562 0 .985.297.422.296.422.906m13.874-4.328v.812q0 .5-.031 1.094-.015.594-.093 1.203a5.4 5.4 0 0 1-.25 1.078q-.157.485-.407.797a.78.78 0 0 1-.64.313.6.6 0 0 1-.532-.282 2.3 2.3 0 0 1-.25-.687 5 5 0 0 1-.093-.797v-.64q0-.704.046-1.376.047-.671.047-1.375v-.28q0-.204-.031-.407a1.2 1.2 0 0 0-.109-.36q-.063-.156-.203-.156-.282 0-.454.297a2.7 2.7 0 0 0-.281.672q-.11.39-.156.781-.047.375-.063.563a10 10 0 0 0-.062.61q-.015.405-.062.89a9 9 0 0 1-.126 1q-.077.5-.218.922a2.2 2.2 0 0 1-.328.671q-.203.266-.5.266a.64.64 0 0 1-.578-.328 2.4 2.4 0 0 1-.297-.766 6 6 0 0 1-.125-.89 20 20 0 0 1-.016-.703v-.516q.016-.25.016-.516v-.359q0-.25-.016-.547a7 7 0 0 0-.031-.64 5 5 0 0 0-.063-.594 1.5 1.5 0 0 0-.14-.453q-.094-.172-.219-.172-.204 0-.375.265-.173.25-.297.61-.125.343-.203.687-.063.345-.063.5v.094q0 .75.094 1.469t.094 1.469q0 .437-.281.812-.281.36-.782.36a.76.76 0 0 1-.593-.266 2.3 2.3 0 0 1-.391-.719 6 6 0 0 1-.25-.953 12 12 0 0 1-.109-1.031 39 39 0 0 1-.047-.922v-.625q0-.234-.016-.688 0-.453.016-.984.031-.531.094-1.078a5.4 5.4 0 0 1 .203-1.016q.14-.453.359-.734a.73.73 0 0 1 .594-.297q.406 0 .656.219.266.218.266.656 0 .093-.016.187 0 .094-.016.172a3.7 3.7 0 0 1 .422-.5q.25-.265.532-.469a2.6 2.6 0 0 1 .624-.343q.328-.14.657-.14.312 0 .562.171t.438.438q.188.25.312.546.126.297.172.563.156-.282.375-.563.234-.297.5-.515t.578-.36q.329-.14.672-.14a.77.77 0 0 1 .563.234q.234.234.406.61.171.36.265.828.094.453.157.906.061.437.078.828.015.375.015.594m7.672 2.953q0 .28-.031.734-.015.454-.125.89a2.1 2.1 0 0 1-.344.735q-.234.313-.656.313-.578 0-.89-.375-.314-.375-.297-.938-.5.438-1.141.688-.625.25-1.281.25a1.8 1.8 0 0 1-.86-.219 2.7 2.7 0 0 1-.718-.562 2.8 2.8 0 0 1-.5-.766 2.2 2.2 0 0 1-.188-.86q0-.75.453-1.312a4.3 4.3 0 0 1 1.141-.953q.672-.406 1.422-.64.765-.235 1.359-.313v-.14a.6.6 0 0 0 .016-.141q0-.485-.266-.782t-.75-.297q-.39 0-.672.141a3.3 3.3 0 0 0-.531.297q-.25.156-.5.297a1.24 1.24 0 0 1-.563.125.87.87 0 0 1-.593-.219.73.73 0 0 1-.235-.562q0-.516.297-.938.313-.422.766-.703a4 4 0 0 1 1-.453 3.4 3.4 0 0 1 1-.172q.421 0 .844.11.422.093.797.312.375.203.671.515.313.297.5.704.282.577.453 1.234.173.64.266 1.328.094.672.125 1.36.031.671.031 1.312m-2.5-.5-.046-1.063h-.063a.14.14 0 0 0-.063-.015q-.203 0-.515.11a2.3 2.3 0 0 0-.578.28 2.3 2.3 0 0 0-.485.391.7.7 0 0 0-.187.453q0 .219.156.297a.8.8 0 0 0 .359.078q.344 0 .735-.172.39-.188.687-.36m8.016-5.89q0 .452-.312.671a6 6 0 0 1-.672.422q-.375.188-.688.453-.297.266-.297.797a.9.9 0 0 0 .125.484q.14.203.328.375.204.157.438.329.234.171.422.39.203.219.328.531.14.313.14.766 0 .657-.343 1.297a4.3 4.3 0 0 1-.86 1.125 4.3 4.3 0 0 1-1.171.781q-.657.297-1.297.297-.266 0-.532-.047a1.5 1.5 0 0 1-.484-.14 1.05 1.05 0 0 1-.344-.297.9.9 0 0 1-.14-.516q0-.438.171-.672.173-.25.438-.39.266-.14.562-.22.314-.077.579-.187.266-.124.437-.312.172-.187.172-.531 0-.33-.266-.672a14 14 0 0 0-.562-.75 8 8 0 0 1-.578-.86 2.03 2.03 0 0 1-.25-1q0-.672.265-1.234.282-.578.735-1a3.5 3.5 0 0 1 1.062-.656q.594-.25 1.25-.25.25 0 .485.046.25.048.437.172a.8.8 0 0 1 .297.313.86.86 0 0 1 .125.484m11.031 6.39q0 .28-.031.734-.015.454-.125.89a2.1 2.1 0 0 1-.344.735q-.234.313-.656.313-.577 0-.891-.375-.312-.375-.296-.938-.5.438-1.141.688-.625.25-1.281.25a1.8 1.8 0 0 1-.86-.219 2.8 2.8 0 0 1-1.218-1.328 2.2 2.2 0 0 1-.188-.86q0-.75.453-1.312a4.3 4.3 0 0 1 1.141-.953q.672-.406 1.422-.64.765-.235 1.359-.313v-.14a.6.6 0 0 0 .016-.141q0-.485-.266-.782-.265-.297-.75-.297-.39 0-.672.141a3.3 3.3 0 0 0-.531.297q-.25.156-.5.297a1.24 1.24 0 0 1-.563.125.87.87 0 0 1-.593-.219.73.73 0 0 1-.235-.562q0-.516.297-.938.312-.422.766-.703a4 4 0 0 1 1-.453 3.4 3.4 0 0 1 1-.172q.421 0 .844.11.421.093.796.312.375.203.672.515.313.297.5.704.282.577.453 1.234.172.64.266 1.328.094.672.125 1.36.031.671.031 1.312m-2.5-.5-.047-1.063h-.062a.14.14 0 0 0-.063-.015q-.203 0-.515.11a2.3 2.3 0 0 0-.578.28 2.3 2.3 0 0 0-.485.391.7.7 0 0 0-.187.453q0 .219.156.297a.8.8 0 0 0 .359.078q.344 0 .735-.172.39-.188.687-.36m.36-7.703a.24.24 0 0 1-.11.203.4.4 0 0 1-.219.062q-.28 0-.593-.171a14 14 0 0 0-.516-.313l-.312-.203a3 3 0 0 1-.313-.25 2 2 0 0 1-.25-.297.7.7 0 0 1-.094-.344q0-.234.172-.406a.53.53 0 0 1 .406-.187q.235 0 .547.218.314.204.594.5.297.297.485.625.203.328.203.563m7.656 1.812q0 .453-.313.672a6 6 0 0 1-.672.422q-.375.188-.687.453-.297.266-.297.797a.9.9 0 0 0 .125.484q.14.203.328.375.203.157.438.329.234.171.422.39.202.219.328.531.14.313.14.766 0 .657-.343 1.297a4.3 4.3 0 0 1-.86 1.125 4.3 4.3 0 0 1-1.172.781 3.1 3.1 0 0 1-1.296.297q-.267 0-.532-.047a1.5 1.5 0 0 1-.484-.14 1.04 1.04 0 0 1-.344-.297.9.9 0 0 1-.14-.516q0-.438.171-.672.172-.25.438-.39.265-.14.562-.22.313-.077.579-.187.265-.124.437-.312.172-.187.172-.531 0-.33-.266-.672a14 14 0 0 0-.562-.75 8 8 0 0 1-.578-.86 2.03 2.03 0 0 1-.25-1q0-.672.265-1.234.282-.578.735-1a3.5 3.5 0 0 1 1.062-.656q.594-.25 1.25-.25.25 0 .485.046.25.048.437.172a.8.8 0 0 1 .297.313.86.86 0 0 1 .125.484m-215.453 24q-.407 1.078-.89 2.25a21 21 0 0 1-1.048 2.188 4.6 4.6 0 0 1-.765 1.047 1.36 1.36 0 0 1-.97.406q-.436 0-.858-.438a6.6 6.6 0 0 1-.766-1.062q-.344-.625-.61-1.25a23 23 0 0 1-.374-1.016 40 40 0 0 0-.282-.906 15 15 0 0 1-.281-.984 12 12 0 0 1-.203-.985 6 6 0 0 1-.078-.937q0-.61.218-1 .22-.39.86-.39.25 0 .453.155.203.141.375.407.172.265.328.625.156.344.297.765.14.406.266.844a44 44 0 0 0 .25.844q.124.406.25.797.14.375.359.75l.25-.641q.141-.36.297-.766.171-.406.36-.828.186-.437.406-.843a8.3 8.3 0 0 1 .89-1.438q.484-.594.953-.594.438 0 .625.266.188.266.188.687 0 .423-.14.953a10 10 0 0 1-.36 1.094m7.593 2.813q0 .531-.343 1.047-.328.5-.844.906-.5.39-1.078.64-.579.235-1.063.235a2.77 2.77 0 0 1-1.484-.406 3.9 3.9 0 0 1-1.078-1.063 5.2 5.2 0 0 1-.672-1.406 5.6 5.6 0 0 1-.219-1.516q0-.781.219-1.672.22-.89.656-1.64.453-.75 1.125-1.25.688-.5 1.625-.5.531 0 1.016.187a2.45 2.45 0 0 1 1.422 1.281q.219.454.218 1.016 0 .735-.312 1.375a3.6 3.6 0 0 1-.828 1.109q-.516.47-1.188.766a4 4 0 0 1-1.375.313q.063.453.36.656.312.203.734.203.313 0 .61-.156a7 7 0 0 0 .578-.344q.281-.203.547-.359.28-.157.562-.157.312 0 .563.204a.65.65 0 0 1 .25.531m-2.53-3.828a.94.94 0 0 0-.11-.422.36.36 0 0 0-.344-.219.9.9 0 0 0-.578.188 1.4 1.4 0 0 0-.39.453 2.6 2.6 0 0 0-.25.578 3 3 0 0 0-.094.578q.218-.047.515-.125.313-.078.578-.203a1.6 1.6 0 0 0 .47-.344.66.66 0 0 0 .202-.484m10.171 5.14a.7.7 0 0 1-.266.547 2.5 2.5 0 0 1-.656.422 4.6 4.6 0 0 1-.906.312 11 11 0 0 1-1 .204q-.484.078-.922.109a7 7 0 0 1-.703.047q-.266 0-.75-.016a5 5 0 0 1-.937-.125 2.4 2.4 0 0 1-.813-.312.74.74 0 0 1-.344-.641q0-.312.219-.766.218-.453.563-.984.344-.53.765-1.078.421-.562.828-1.078.406-.515.766-.938.36-.437.562-.718a11 11 0 0 0-.562.14q-.328.078-.688.156-.36.079-.703.141a4 4 0 0 1-.562.047q-.188 0-.422-.062a2.5 2.5 0 0 1-.453-.204 1.7 1.7 0 0 1-.36-.296.6.6 0 0 1-.14-.391q0-.282.25-.516.25-.25.656-.437.406-.203.906-.344.5-.156.985-.25a8 8 0 0 1 1.625-.203q.297 0 .718.062.422.063.813.22.406.155.687.421a.88.88 0 0 1 .282.672 1 1 0 0 1-.032.234q-.015.094-.047.219-.03.11-.28.5-.235.375-.594.906-.345.516-.766 1.125-.406.594-.781 1.125a120 120 0 0 0-1.032 1.485q.641-.172 1.297-.282a7.3 7.3 0 0 1 1.328-.125q.157 0 .407.016t.484.094q.234.062.406.203a.42.42 0 0 1 .172.359m6.86-1.312q0 .531-.344 1.047-.328.5-.844.906-.5.39-1.078.64-.579.235-1.063.235a2.77 2.77 0 0 1-1.484-.406 3.9 3.9 0 0 1-1.078-1.063 5.2 5.2 0 0 1-.672-1.406 5.6 5.6 0 0 1-.219-1.516q0-.781.219-1.672.22-.89.656-1.64.453-.75 1.125-1.25.688-.5 1.625-.5.531 0 1.016.187a2.45 2.45 0 0 1 1.422 1.281q.219.454.218 1.016 0 .735-.312 1.375a3.6 3.6 0 0 1-.828 1.109q-.516.47-1.188.766a4 4 0 0 1-1.375.313q.063.453.36.656.312.203.734.203.313 0 .61-.156a7 7 0 0 0 .578-.344q.281-.203.547-.359.28-.157.562-.157.312 0 .563.204a.65.65 0 0 1 .25.531m-2.532-3.828a.94.94 0 0 0-.11-.422.36.36 0 0 0-.343-.219.9.9 0 0 0-.578.188 1.4 1.4 0 0 0-.39.453 2.6 2.6 0 0 0-.25.578 3 3 0 0 0-.094.578q.218-.047.515-.125.313-.078.578-.203a1.6 1.6 0 0 0 .47-.344.66.66 0 0 0 .202-.484m7.735-1.985q0 .453-.313.672a6 6 0 0 1-.672.422q-.375.188-.687.453-.297.266-.297.797 0 .282.125.484.14.204.328.375.203.157.438.329.234.171.421.39.203.219.329.531.14.313.14.766 0 .656-.344 1.297a4.2 4.2 0 0 1-.859 1.125 4.3 4.3 0 0 1-1.172.781q-.656.297-1.297.297-.266 0-.531-.047a1.5 1.5 0 0 1-.484-.14 1.05 1.05 0 0 1-.344-.297.9.9 0 0 1-.14-.516q0-.438.171-.672.172-.25.438-.391a2.7 2.7 0 0 1 .562-.218q.313-.078.578-.188.266-.124.438-.312.171-.187.172-.532 0-.327-.266-.671-.25-.36-.562-.75a8 8 0 0 1-.579-.86 2.03 2.03 0 0 1-.25-1q0-.672.266-1.234a3.4 3.4 0 0 1 .734-1 3.5 3.5 0 0 1 1.063-.656 3.2 3.2 0 0 1 1.25-.25q.25 0 .484.046.25.048.438.172a.8.8 0 0 1 .297.313.86.86 0 0 1 .125.484m10.937 5.813q0 .531-.344 1.047-.328.5-.843.906-.5.39-1.079.64-.578.235-1.062.235a2.77 2.77 0 0 1-1.484-.406 3.9 3.9 0 0 1-1.079-1.063 5.2 5.2 0 0 1-.671-1.406 5.6 5.6 0 0 1-.22-1.516q0-.781.22-1.672.218-.89.656-1.64.453-.75 1.125-1.25.687-.5 1.625-.5.531 0 1.016.187a2.45 2.45 0 0 1 1.421 1.281q.22.454.22 1.016 0 .735-.313 1.375a3.6 3.6 0 0 1-.829 1.109q-.515.47-1.187.766a4 4 0 0 1-1.375.313q.063.453.36.656.312.203.734.203.312 0 .61-.156.296-.156.577-.344.282-.203.547-.359.282-.157.563-.157.312 0 .562.204a.65.65 0 0 1 .25.531m-2.531-3.828a.94.94 0 0 0-.11-.422.36.36 0 0 0-.343-.219.9.9 0 0 0-.578.188 1.4 1.4 0 0 0-.391.453 2.6 2.6 0 0 0-.25.578 3 3 0 0 0-.094.578q.219-.047.516-.125.311-.078.578-.203a1.6 1.6 0 0 0 .469-.344.66.66 0 0 0 .203-.484m6.078-2.86q0 .844-.078 1.703-.063.844-.063 1.704 0 1.109.063 2.218.078 1.11.078 2.235 0 .281-.031.64-.031.344-.156.641a1.2 1.2 0 0 1-.344.5q-.234.203-.625.203-.375 0-.656-.375a3.3 3.3 0 0 1-.454-.922 12 12 0 0 1-.296-1.281q-.11-.703-.172-1.359a99 99 0 0 1-.079-1.219 33 33 0 0 1-.015-.828q0-.297.016-.86.03-.562.109-1.219.078-.656.203-1.328.14-.687.36-1.234.218-.562.515-.906.312-.36.734-.36.344 0 .516.235.187.219.266.547.078.312.093.671.016.345.016.594m7.734 6.688q0 .531-.343 1.047-.329.5-.844.906a5 5 0 0 1-1.078.64q-.579.235-1.063.235a2.77 2.77 0 0 1-1.484-.406 3.9 3.9 0 0 1-1.078-1.063 5.2 5.2 0 0 1-.672-1.406 5.6 5.6 0 0 1-.219-1.516q0-.781.219-1.672.22-.89.656-1.64.453-.75 1.125-1.25.688-.5 1.625-.5.531 0 1.016.187a2.45 2.45 0 0 1 1.422 1.281q.218.454.218 1.016 0 .735-.312 1.375a3.6 3.6 0 0 1-.828 1.109q-.516.47-1.188.766a4 4 0 0 1-1.375.313q.063.453.36.656.312.203.734.203.313 0 .61-.156a7 7 0 0 0 .578-.344q.281-.203.546-.359.282-.157.563-.157.312 0 .562.204a.65.65 0 0 1 .25.531m-2.53-3.828a.94.94 0 0 0-.11-.422.36.36 0 0 0-.344-.219.9.9 0 0 0-.578.188 1.4 1.4 0 0 0-.39.453 2.6 2.6 0 0 0-.25.578 3 3 0 0 0-.094.578q.218-.047.515-.125.313-.078.578-.203a1.6 1.6 0 0 0 .469-.344.66.66 0 0 0 .203-.484m7.734-1.985q0 .453-.313.672a6 6 0 0 1-.672.422q-.375.188-.687.453-.297.266-.297.797 0 .282.125.484.14.204.328.375.203.157.437.329.235.171.422.39.204.219.328.531.141.313.141.766 0 .656-.344 1.297a4.27 4.27 0 0 1-2.031 1.906q-.656.297-1.297.297-.266 0-.531-.047a1.5 1.5 0 0 1-.484-.14 1.05 1.05 0 0 1-.344-.297.9.9 0 0 1-.14-.516q0-.438.171-.672.172-.25.438-.391a2.7 2.7 0 0 1 .562-.218q.312-.078.578-.188.266-.124.438-.312.171-.187.171-.532 0-.327-.265-.671-.25-.36-.563-.75a8 8 0 0 1-.578-.86 2.04 2.04 0 0 1-.25-1q0-.672.266-1.234a3.4 3.4 0 0 1 .734-1q.47-.422 1.063-.656a3.2 3.2 0 0 1 1.25-.25q.25 0 .484.046.25.048.438.172a.8.8 0 0 1 .296.313.86.86 0 0 1 .126.484m11.656 1.328-.25 2.266q-.126 1.125-.172 2.25a34 34 0 0 0-.063 2.453q.016 1.157.016 2.453 0 .313-.016.766 0 .453-.109.875a1.8 1.8 0 0 1-.359.719q-.235.296-.719.296a.62.62 0 0 1-.406-.14 1.4 1.4 0 0 1-.282-.375 3 3 0 0 1-.187-.5 10 10 0 0 1-.11-.578 12 12 0 0 1-.093-1.219v-2.969q-.36.469-.938.719a2.9 2.9 0 0 1-1.125.234q-.703 0-1.218-.328a3 3 0 0 1-.829-.859 4 4 0 0 1-.484-1.156 5 5 0 0 1-.156-1.219v-.094q0-.813.25-1.75a6.8 6.8 0 0 1 .734-1.766q.5-.812 1.235-1.343a2.87 2.87 0 0 1 1.734-.547q.531 0 .969.219.453.218.64.718.126-.36.375-.578a.98.98 0 0 1 .672-.234q.515 0 .719.344.219.327.219.734 0 .172-.016.313zm-3.594.375q-.36 0-.672.297a2.7 2.7 0 0 0-.547.703 4 4 0 0 0-.375.875 3.3 3.3 0 0 0-.125.828q0 .22.032.469.046.25.124.485.094.217.235.375.156.14.391.14.203 0 .468-.093.282-.11.547-.266.265-.172.469-.375t.281-.391q.047-.11.078-.328.032-.219.047-.453a8 8 0 0 0 .063-.844q0-.187-.094-.422a2 2 0 0 0-.219-.468 1.3 1.3 0 0 0-.328-.375.58.58 0 0 0-.375-.157m11.187 2.422q0 .86-.171 1.703a4.7 4.7 0 0 1-.579 1.516q-.406.657-1.093 1.062-.672.407-1.688.407-1 0-1.672-.391a3.2 3.2 0 0 1-1.078-1.062 4.8 4.8 0 0 1-.562-1.485 9 9 0 0 1-.157-1.687q0-.937.219-1.86.047-.249.172-.687a6 6 0 0 1 .344-.875q.219-.438.484-.75.282-.313.61-.313.312 0 .5.172t.297.438q.108.25.14.547.031.28.031.515 0 .36-.062.703-.047.345-.109.688l-.126.937a9.5 9.5 0 0 0-.031 1.469q.032.282.125.547.094.266.266.453.172.172.484.172.407 0 .641-.219.25-.219.359-.547.126-.328.156-.703.032-.375.032-.687 0-.688-.094-1.344-.094-.672-.172-1.36a1.5 1.5 0 0 1 .063-.687 1.5 1.5 0 0 1 .218-.422q.141-.187.344-.297a.85.85 0 0 1 .453-.125q.344 0 .61.25.266.235.437.625.188.375.297.86.125.468.188.937.078.453.093.86.031.405.031.64m7.594 2.266q0 .28-.031.734-.015.453-.125.891a2.1 2.1 0 0 1-.344.734q-.234.313-.656.313-.578 0-.891-.375-.312-.375-.297-.938a3.8 3.8 0 0 1-1.14.688q-.625.25-1.281.25-.453 0-.86-.219a2.7 2.7 0 0 1-.719-.563 2.9 2.9 0 0 1-.5-.765 2.2 2.2 0 0 1-.187-.859q0-.75.453-1.313a4.3 4.3 0 0 1 1.141-.953 6.5 6.5 0 0 1 1.422-.641q.765-.234 1.359-.312v-.141a.6.6 0 0 0 .016-.14q0-.485-.266-.782t-.75-.297q-.39 0-.672.141a3.3 3.3 0 0 0-.531.297q-.25.156-.5.297a1.25 1.25 0 0 1-.563.125.87.87 0 0 1-.593-.219.73.73 0 0 1-.235-.562q0-.516.297-.938.313-.422.766-.703a4 4 0 0 1 1-.453 3.4 3.4 0 0 1 1-.172q.421 0 .843.11.422.093.797.312.375.203.672.515.313.297.5.704.282.577.453 1.234.173.64.266 1.328.093.672.125 1.359.031.672.031 1.313m-2.5-.5-.047-1.063h-.062a.14.14 0 0 0-.063-.015q-.203 0-.515.109a2.3 2.3 0 0 0-.578.281 2.3 2.3 0 0 0-.485.391.7.7 0 0 0-.187.453q0 .219.156.297a.8.8 0 0 0 .359.078q.344 0 .735-.172.39-.188.687-.359m8.016-5.89q0 .452-.313.671a6 6 0 0 1-.671.422q-.375.188-.688.453-.297.266-.297.797 0 .282.125.484.14.204.328.375.204.157.438.329.234.171.422.39.202.219.328.531.14.313.14.766 0 .656-.343 1.297a4.3 4.3 0 0 1-.86 1.125 4.3 4.3 0 0 1-1.172.781 3.1 3.1 0 0 1-1.297.297q-.266 0-.531-.047a1.5 1.5 0 0 1-.484-.14 1.04 1.04 0 0 1-.344-.297.9.9 0 0 1-.141-.516q0-.438.172-.672.172-.25.438-.391.265-.14.562-.218.313-.078.578-.188.266-.124.438-.312.172-.187.172-.532 0-.327-.266-.671-.25-.36-.562-.75a8 8 0 0 1-.578-.86 2.03 2.03 0 0 1-.25-1q0-.672.265-1.234.282-.578.735-1a3.5 3.5 0 0 1 1.062-.656q.594-.25 1.25-.25.25 0 .484.046.25.048.438.172a.8.8 0 0 1 .297.313.86.86 0 0 1 .125.484m7.172 5.812q0 .531-.344 1.047-.328.5-.844.906-.5.39-1.078.64-.577.235-1.062.235a2.77 2.77 0 0 1-1.485-.406 3.9 3.9 0 0 1-1.078-1.063 5.2 5.2 0 0 1-.672-1.406 5.6 5.6 0 0 1-.219-1.516q0-.781.219-1.672t.657-1.64q.453-.75 1.124-1.25.688-.5 1.626-.5.53 0 1.015.187a2.46 2.46 0 0 1 1.422 1.281q.219.454.219 1.016 0 .735-.313 1.375a3.6 3.6 0 0 1-.828 1.109 4.4 4.4 0 0 1-1.187.766 4 4 0 0 1-1.375.313q.062.453.359.656.312.203.734.203.313 0 .61-.156.296-.156.578-.344.281-.203.547-.359a1.14 1.14 0 0 1 .562-.157q.313 0 .563.204t.25.531m-2.532-3.828a.94.94 0 0 0-.109-.422.36.36 0 0 0-.344-.219.9.9 0 0 0-.578.188 1.4 1.4 0 0 0-.39.453 2.5 2.5 0 0 0-.25.578 3 3 0 0 0-.094.578q.22-.047.515-.125.313-.078.579-.203.28-.141.468-.344a.66.66 0 0 0 .203-.484m11.36 7.047q-.266 0-.422-.25a1.8 1.8 0 0 1-.234-.547 4.4 4.4 0 0 1-.11-.625 9 9 0 0 1 .032-1.438l.124-.937q.079-.469.126-.938.062-.469.062-.937 0-.188-.016-.407a1.6 1.6 0 0 0-.078-.406.66.66 0 0 0-.172-.328.44.44 0 0 0-.328-.125q-.141 0-.312.234a3.4 3.4 0 0 0-.328.516q-.14.281-.25.578a1.5 1.5 0 0 0-.094.422v.703q.015.344.016.703v.906q-.017.282-.047.579-.031.296-.094.578-.047.281-.141.547a1.8 1.8 0 0 1-.25.453 1.2 1.2 0 0 1-.344.312.9.9 0 0 1-.484.125.7.7 0 0 1-.516-.203 1.5 1.5 0 0 1-.328-.515 3.7 3.7 0 0 1-.187-.719 26 26 0 0 1-.078-.781 17 17 0 0 1-.016-.704q.016-.327.016-.515v-.735q0-.593-.031-1.172-.016-.577-.016-1.156v-.797q.015-.484.125-.937.11-.469.359-.797.25-.328.735-.328a.6.6 0 0 1 .39.14q.173.141.297.344.141.203.219.438.093.234.141.406.156-.22.359-.422.219-.203.484-.36a2.53 2.53 0 0 1 1.344-.343q.797 0 1.234.39.453.375.657.954.218.563.265 1.218.047.657.047 1.188 0 .266-.047.797-.046.516-.156 1.156a13 13 0 0 1-.266 1.297 8.5 8.5 0 0 1-.406 1.203 3 3 0 0 1-.562.891q-.313.344-.719.344m9.578-3.219q0 .531-.344 1.047-.327.5-.844.906-.5.39-1.078.64-.578.235-1.062.235a2.77 2.77 0 0 1-1.484-.406 3.9 3.9 0 0 1-1.079-1.063 5.2 5.2 0 0 1-.671-1.406 5.6 5.6 0 0 1-.219-1.516q0-.781.219-1.672.218-.89.656-1.64.453-.75 1.125-1.25.687-.5 1.625-.5.53 0 1.015.187a2.45 2.45 0 0 1 1.422 1.281q.219.454.219 1.016 0 .735-.312 1.375a3.6 3.6 0 0 1-.829 1.109 4.4 4.4 0 0 1-1.187.766 4 4 0 0 1-1.375.313q.063.453.359.656.313.203.735.203.312 0 .609-.156t.578-.344q.282-.203.547-.359a1.14 1.14 0 0 1 .563-.157q.312 0 .562.204a.65.65 0 0 1 .25.531m-2.531-3.828a.94.94 0 0 0-.11-.422.36.36 0 0 0-.343-.219.9.9 0 0 0-.578.188 1.4 1.4 0 0 0-.391.453 2.6 2.6 0 0 0-.25.578 3 3 0 0 0-.094.578q.219-.047.516-.125.312-.078.578-.203.281-.141.469-.344a.66.66 0 0 0 .203-.484m12.64 1.453v.812q0 .5-.031 1.094-.015.594-.094 1.203a5.3 5.3 0 0 1-.25 1.078 2.5 2.5 0 0 1-.406.797.79.79 0 0 1-.64.313.6.6 0 0 1-.532-.282 2.3 2.3 0 0 1-.25-.687 5 5 0 0 1-.094-.797v-.641q0-.703.047-1.375a19 19 0 0 0 .047-1.375v-.281q0-.203-.031-.406a1.2 1.2 0 0 0-.109-.359q-.063-.157-.204-.157-.28 0-.453.297a2.7 2.7 0 0 0-.281.672q-.11.39-.156.781-.047.375-.063.563-.03.203-.062.609-.016.406-.063.891-.03.484-.125 1-.078.5-.218.922a2.2 2.2 0 0 1-.329.672.61.61 0 0 1-.5.265.64.64 0 0 1-.578-.328 2.4 2.4 0 0 1-.296-.766 6 6 0 0 1-.126-.89q-.015-.454-.015-.703v-.516q.015-.25.015-.516v-.359q0-.25-.015-.547 0-.312-.031-.64a5 5 0 0 0-.063-.594 1.4 1.4 0 0 0-.141-.453q-.093-.172-.218-.172-.204 0-.375.265a2.5 2.5 0 0 0-.297.61 6 6 0 0 0-.203.687 3 3 0 0 0-.063.5v.094q0 .75.094 1.469.094.718.094 1.468 0 .438-.282.813-.28.36-.781.359a.76.76 0 0 1-.593-.265 2.3 2.3 0 0 1-.391-.719 6 6 0 0 1-.25-.953 12 12 0 0 1-.109-1.031 39 39 0 0 1-.047-.922v-.625q0-.235-.016-.688 0-.453.016-.984.03-.531.093-1.078.063-.563.204-1.016t.359-.734a.73.73 0 0 1 .594-.297q.405 0 .656.219.265.218.265.656 0 .093-.015.187 0 .094-.016.172.172-.25.422-.5.25-.265.531-.469.298-.218.625-.343.328-.14.657-.14a.97.97 0 0 1 .562.171q.25.172.438.438.188.25.312.546.125.297.172.563.156-.282.375-.563.234-.297.5-.515t.578-.36q.328-.14.672-.14a.77.77 0 0 1 .563.234q.234.234.406.61.172.36.265.828.094.453.157.906.061.438.078.828.015.375.015.594m11.438 2.953q0 .28-.031.734a4.3 4.3 0 0 1-.125.891 2.1 2.1 0 0 1-.344.734q-.234.313-.656.313-.579 0-.891-.375t-.297-.938a3.8 3.8 0 0 1-1.141.688q-.624.25-1.281.25-.453 0-.859-.219a2.7 2.7 0 0 1-.719-.563 2.9 2.9 0 0 1-.5-.765 2.2 2.2 0 0 1-.187-.859q0-.75.453-1.313a4.2 4.2 0 0 1 1.14-.953 6.5 6.5 0 0 1 1.422-.641q.766-.234 1.36-.312v-.141a.6.6 0 0 0 .015-.14q0-.485-.265-.782t-.75-.297q-.391 0-.672.141a3 3 0 0 0-.531.297q-.25.156-.5.297a1.25 1.25 0 0 1-.563.125.87.87 0 0 1-.594-.219.74.74 0 0 1-.234-.562q0-.516.297-.938.312-.422.765-.703a4 4 0 0 1 1-.453 3.4 3.4 0 0 1 1-.172q.423 0 .844.11.422.093.797.312.375.203.672.515.312.297.5.704.28.577.453 1.234.172.64.266 1.328.093.672.125 1.359.03.672.031 1.313m-2.5-.5-.047-1.063h-.062a.14.14 0 0 0-.063-.015q-.202 0-.516.109a2.3 2.3 0 0 0-.578.281 2.3 2.3 0 0 0-.484.391.7.7 0 0 0-.188.453q0 .219.157.297a.8.8 0 0 0 .359.078q.344 0 .734-.172.391-.188.688-.359m10.594-1.953q0 .687-.157 1.515a5.3 5.3 0 0 1-.5 1.516 3.4 3.4 0 0 1-.922 1.172q-.561.469-1.421.469-.219 0-.453-.032a2.2 2.2 0 0 1-.454-.109 1.7 1.7 0 0 1-.375-.203.9.9 0 0 1-.265-.36l-.141 2.25q-.015.36-.031.86 0 .5-.125.953a1.7 1.7 0 0 1-.391.766q-.265.328-.781.328-.297 0-.5-.313a2.5 2.5 0 0 1-.328-.765 9 9 0 0 1-.172-1.047 14 14 0 0 1-.078-1.11 31 31 0 0 1-.016-.968v-.641q0-1.047-.015-2.078-.016-1.047-.016-2.094v-.578q0-.407.031-.875t.094-.969q.078-.5.219-.906.14-.422.359-.672a.67.67 0 0 1 .531-.266.56.56 0 0 1 .36.126.86.86 0 0 1 .281.296q.125.172.203.375t.125.375a3.3 3.3 0 0 1 1.109-.828 3.35 3.35 0 0 1 1.36-.281q.75 0 1.219.422.485.422.75 1.047.28.624.39 1.343.11.703.11 1.282m-2.235-.125q0-.235-.047-.469a1.3 1.3 0 0 0-.14-.453.77.77 0 0 0-.281-.344.76.76 0 0 0-.469-.141q-.375 0-.797.25a1.8 1.8 0 0 0-.61.547q-.078.126-.093.407a8 8 0 0 0-.016.422v.296q.016.172.031.36l.032.359a1 1 0 0 0 .078.266.6.6 0 0 0 .203.265q.156.11.344.204t.375.14q.203.047.343.047a.65.65 0 0 0 .532-.25q.203-.25.312-.594.125-.343.156-.703.047-.375.047-.609m9.828 2.578q0 .28-.031.734-.015.453-.125.891a2.1 2.1 0 0 1-.344.734q-.234.313-.656.313-.578 0-.89-.375-.314-.375-.297-.938a3.9 3.9 0 0 1-1.141.688q-.625.25-1.281.25-.453 0-.86-.219a2.7 2.7 0 0 1-.718-.563 2.8 2.8 0 0 1-.5-.765 2.2 2.2 0 0 1-.188-.859q0-.75.453-1.313a4.3 4.3 0 0 1 1.141-.953 6.5 6.5 0 0 1 1.422-.641q.765-.234 1.359-.312v-.141a.6.6 0 0 0 .016-.14q0-.485-.266-.782t-.75-.297q-.39 0-.672.141a3.3 3.3 0 0 0-.531.297q-.25.156-.5.297a1.25 1.25 0 0 1-.563.125.87.87 0 0 1-.593-.219.73.73 0 0 1-.235-.562q0-.516.297-.938.313-.422.766-.703a4 4 0 0 1 1-.453 3.4 3.4 0 0 1 1-.172q.421 0 .844.11.422.093.797.312.375.203.671.515.313.297.5.704.282.577.453 1.234.173.64.266 1.328.094.672.125 1.359.031.672.031 1.313m-2.5-.5-.046-1.063h-.063a.14.14 0 0 0-.063-.015q-.203 0-.515.109a2.3 2.3 0 0 0-.578.281 2.3 2.3 0 0 0-.485.391.7.7 0 0 0-.187.453q0 .219.156.297a.8.8 0 0 0 .359.078q.344 0 .735-.172.39-.188.687-.359m8.86-3.141q-.219.016-.375-.031l-.313-.125a3 3 0 0 0-.281-.109.6.6 0 0 0-.313-.047q-.312.015-.562.172a2.2 2.2 0 0 0-.438.39 2.7 2.7 0 0 0-.328.532 3 3 0 0 0-.218.562 4 4 0 0 0-.078.578q-.016.375-.016.813-.016.453-.016.859t-.031.641q-.015.25-.078.593a2.6 2.6 0 0 1-.203.625 1.4 1.4 0 0 1-.344.5.8.8 0 0 1-.562.203.75.75 0 0 1-.469-.156 1.4 1.4 0 0 1-.328-.406 3.6 3.6 0 0 1-.219-.609 8 8 0 0 1-.125-.703q-.047-.375-.078-.75l-.031-.704v-.625a9 9 0 0 0 .015-.453q-.015-.546-.062-1.094a20 20 0 0 1-.032-1.109q0-.343.032-.766.03-.42.171-.78.141-.376.407-.626.28-.25.765-.25a.65.65 0 0 1 .454.172q.186.172.296.422.125.25.188.531t.078.516q.375-.609.844-.984.468-.39 1.218-.422.375-.016.735.078.375.078.672.281.312.188.5.5.202.312.219.734.03.5-.297.766a1.3 1.3 0 0 1-.797.281m7.875 3.063q0 .531-.344 1.047-.328.5-.844.906-.5.39-1.078.64-.577.235-1.062.235a2.77 2.77 0 0 1-1.485-.406 3.9 3.9 0 0 1-1.078-1.063 5.1 5.1 0 0 1-.672-1.406 5.6 5.6 0 0 1-.218-1.516q0-.781.218-1.672a6.2 6.2 0 0 1 .656-1.64q.454-.75 1.126-1.25.688-.5 1.624-.5.532 0 1.016.187a2.46 2.46 0 0 1 1.422 1.281q.219.454.219 1.016 0 .735-.313 1.375a3.6 3.6 0 0 1-.828 1.109 4.4 4.4 0 0 1-1.187.766 4 4 0 0 1-1.375.313q.062.453.359.656.312.203.734.203.313 0 .61-.156.296-.156.578-.344.281-.203.547-.359a1.14 1.14 0 0 1 .562-.157q.313 0 .563.204t.25.531m-2.531-3.828a.94.94 0 0 0-.11-.422.36.36 0 0 0-.344-.219.9.9 0 0 0-.578.188 1.4 1.4 0 0 0-.39.453 2.5 2.5 0 0 0-.25.578 3 3 0 0 0-.094.578q.219-.047.516-.125.312-.078.578-.203.28-.141.468-.344a.66.66 0 0 0 .204-.484m8.953.609q0 .078-.016.172a1 1 0 0 1-.047.156q-.14.36-.437.61a1.1 1.1 0 0 1-.703.234q-.61 0-.829-.61a.5.5 0 0 1-.031-.171q0-.11-.016-.219v-.453a.9.9 0 0 0-.109-.344q-.078-.125-.265-.125-.266 0-.516.344a3.8 3.8 0 0 0-.422.797 7 7 0 0 0-.281.937 3.7 3.7 0 0 0-.11.781q0 .235.032.579.03.328.125.64.093.313.25.547.171.219.437.219a.8.8 0 0 0 .485-.156q.234-.172.453-.391.203-.187.437-.391a.87.87 0 0 1 .563-.203.73.73 0 0 1 .609.281.98.98 0 0 1 .234.641q0 .53-.281 1a3.2 3.2 0 0 1-.703.797q-.422.328-.938.516a2.7 2.7 0 0 1-.984.203q-.844 0-1.437-.422a3.3 3.3 0 0 1-.938-1.063 5 5 0 0 1-.515-1.422 7.2 7.2 0 0 1-.157-1.453q0-.797.219-1.719.219-.937.672-1.734a4.3 4.3 0 0 1 1.156-1.328q.719-.531 1.703-.531.61 0 1.047.265.453.267.734.704.297.421.438.953.156.531.156 1.047v.156a1 1 0 0 1-.015.156m7.421 3.219q0 .531-.343 1.047-.328.5-.844.906a5 5 0 0 1-1.078.64q-.579.235-1.063.235a2.77 2.77 0 0 1-1.484-.406 3.9 3.9 0 0 1-1.078-1.063 5.1 5.1 0 0 1-.672-1.406 5.6 5.6 0 0 1-.219-1.516q0-.781.219-1.672a6.2 6.2 0 0 1 .656-1.64q.453-.75 1.125-1.25.688-.5 1.625-.5.531 0 1.016.187a2.46 2.46 0 0 1 1.422 1.281q.218.454.218 1.016 0 .735-.312 1.375a3.6 3.6 0 0 1-.828 1.109 4.4 4.4 0 0 1-1.188.766 4 4 0 0 1-1.375.313q.063.453.36.656.312.203.734.203.313 0 .609-.156.297-.156.579-.344a7 7 0 0 1 .547-.359q.28-.157.562-.157.313 0 .562.204a.65.65 0 0 1 .25.531m-2.531-3.828a.94.94 0 0 0-.109-.422.36.36 0 0 0-.344-.219.9.9 0 0 0-.578.188 1.4 1.4 0 0 0-.391.453 2.6 2.6 0 0 0-.25.578 3 3 0 0 0-.093.578q.218-.047.515-.125.313-.078.578-.203.282-.141.469-.344a.66.66 0 0 0 .203-.484m12.641 1.453v.812q0 .5-.031 1.094-.016.594-.094 1.203a5.3 5.3 0 0 1-.25 1.078q-.157.485-.406.797a.79.79 0 0 1-.641.313.6.6 0 0 1-.531-.282 2.2 2.2 0 0 1-.25-.687 5 5 0 0 1-.094-.797v-.641q0-.703.047-1.375t.047-1.375v-.281q0-.203-.031-.406a1.2 1.2 0 0 0-.11-.359q-.063-.157-.203-.157-.281 0-.453.297a2.7 2.7 0 0 0-.281.672 5 5 0 0 0-.157.781q-.047.375-.062.563a9 9 0 0 0-.063.609q-.015.406-.062.891a9 9 0 0 1-.125 1 6 6 0 0 1-.219.922q-.125.405-.328.672a.61.61 0 0 1-.5.265.64.64 0 0 1-.578-.328 2.4 2.4 0 0 1-.297-.766 6.4 6.4 0 0 1-.125-.89q-.016-.454-.016-.703v-.516a8 8 0 0 0 .016-.516v-.359q0-.25-.016-.547 0-.312-.031-.64a5 5 0 0 0-.062-.594 1.5 1.5 0 0 0-.141-.453q-.094-.172-.219-.172-.202 0-.375.265-.171.25-.297.61a6 6 0 0 0-.203.687 3 3 0 0 0-.062.5v.094q0 .75.093 1.469.094.718.094 1.468 0 .438-.281.813-.281.36-.781.359a.76.76 0 0 1-.594-.265 2.4 2.4 0 0 1-.391-.719 6 6 0 0 1-.25-.953 13 13 0 0 1-.109-1.031 45 45 0 0 1-.047-.922v-.625q0-.235-.015-.688 0-.453.015-.984.031-.531.094-1.078a5.5 5.5 0 0 1 .203-1.016 2.3 2.3 0 0 1 .359-.734.73.73 0 0 1 .594-.297q.407 0 .656.219.266.218.266.656 0 .093-.016.187 0 .094-.015.172a3.5 3.5 0 0 1 .422-.5q.249-.265.531-.469.297-.218.625-.343.328-.14.656-.14.312 0 .563.171t.437.438a2.6 2.6 0 0 1 .313.546q.125.297.171.563a4.5 4.5 0 0 1 .376-.563 3.3 3.3 0 0 1 .5-.515q.265-.219.578-.36.327-.14.672-.14.327 0 .562.234t.406.61q.172.36.266.828.093.453.156.906.063.438.078.828.016.375.016.594m3.953-1.391q0 .25-.031.688-.031.421-.094.921a9 9 0 0 1-.188 1 7 7 0 0 1-.265.922 2.4 2.4 0 0 1-.375.672q-.22.25-.5.25-.344 0-.594-.328a3.5 3.5 0 0 1-.406-.859 8.5 8.5 0 0 1-.25-1.172q-.095-.64-.141-1.25a26 26 0 0 1-.062-1.141v-1.515q0-.439.031-.922.047-.484.125-.953.094-.485.266-.875.171-.391.453-.625.281-.25.703-.25.375 0 .609.328.25.312.391.828.156.5.219 1.125.078.624.093 1.234.031.594.016 1.11zm-.297 5.938a.9.9 0 0 1-.125.468q-.125.188-.328.313a1.4 1.4 0 0 1-.437.203 1.8 1.8 0 0 1-.469.063q-.344 0-.657-.188-.312-.172-.312-.562 0-.235.125-.422a1.3 1.3 0 0 1 .344-.344q.203-.141.437-.219a1.6 1.6 0 0 1 .469-.078q.36 0 .656.187.297.172.297.579"/><defs><filter id="a" width="269" height="193.369" x="0" y="0" color-interpolation-filters="sRGB" filterUnits="userSpaceOnUse"><feFlood flood-opacity="0" result="BackgroundImageFix"/><feBlend in="SourceGraphic" in2="BackgroundImageFix" result="shape"/><feColorMatrix in="SourceAlpha" result="hardAlpha" values="0 0 0 0 0 0 0 0 0 0 0 0 0 0 0 0 0 0 127 0"/><feOffset dy="4"/><feGaussianBlur stdDeviation="2"/><feComposite in2="hardAlpha" k2="-1" k3="1" operator="arithmetic"/><feColorMatrix values="0 0 0 0 0 0 0 0 0 0 0 0 0 0 0 0 0 0 0.25 0"/><feBlend in2="shape" result="effect1_innerShadow_1138_2228"/></filter></defs></svg>