<svg xmlns="http://www.w3.org/2000/svg" width="299" height="170" fill="none" viewBox="0 0 299 170"><g filter="url(#a)"><path fill="#00c57f" fill-rule="evenodd" d="M57.796 124.23C37.14 111.202 28 93.508 28 74.522c0-26.105 23.017-51.893 61.093-64.644C107.56 3.694 129.259 1 154.19 1c76.33 0 146.722 26.634 143.717 73.522 0 23.265-13.028 44.658-39.56 57.43-17.679 8.51-41.085 12.762-71.607 12.762-44.895 3.455-80.711-.751-106.552-9.879C60.254 138.525 31.586 140.489-7 143c37.717-6.751 61.046-11.323 64.796-18.77" clip-rule="evenodd"/></g><path fill="#00c57f" d="m57.796 124.23.893.45a1 1 0 0 0-.36-1.296zM89.093 9.878l-.318-.948zm208.814 64.644-.998-.064-.002.064zm-39.56 57.43.433.901zm-71.607 12.762v-1l-.077.003zm-106.552-9.879.334-.942a1 1 0 0 0-.516-.041zM-7 143l-.176-.984a1 1 0 0 0 .24 1.982zm35-68.478h-1c0 19.359 9.34 37.359 30.263 50.554l.533-.846.534-.846C37.937 110.522 29 93.134 29 74.522zM89.093 9.878l-.318-.948C50.503 21.746 27 47.8 27 74.522h2c0-25.487 22.53-51.01 60.41-63.696zM154.19 1V0c-24.996 0-46.811 2.7-65.415 8.93l.318.948.317.948C107.742 4.687 129.324 2 154.19 2zm143.717 73.522.998.064c1.542-24.064-15.782-42.73-42.682-55.314C229.288 6.672 192.451 0 154.19 0v2c38.069 0 74.593 6.645 101.185 19.084 26.628 12.456 42.997 30.55 41.534 53.374zm-39.56 57.43.433.901c26.84-12.919 40.127-34.64 40.127-58.331h-2c0 22.838-12.768 43.905-38.994 56.529zm-71.607 12.762v1c30.601 0 54.174-4.261 72.04-12.861l-.433-.901-.434-.901c-17.491 8.419-40.73 12.663-71.173 12.663zm-106.552-9.879-.333.943c26.011 9.188 61.976 13.395 106.962 9.933l-.077-.997-.077-.997c-44.804 3.448-80.471-.757-106.142-9.824zm0 0-.181-.983c-19.863 3.676-48.46 5.637-87.072 8.15L-7 143l.065.998c38.561-2.51 67.3-4.476 87.305-8.179zM-7 143l.176.984c18.847-3.373 34.152-6.211 45.216-9.141 5.53-1.465 10.046-2.965 13.433-4.586 3.352-1.604 5.772-3.407 6.864-5.577l-.893-.45-.893-.45c-.782 1.554-2.685 3.115-5.941 4.673-3.22 1.542-7.597 3.003-13.082 4.456-10.969 2.905-26.187 5.729-45.056 9.107z"/><path fill="#fff" d="M85.125 41.688q0 .312-.062.75a3.3 3.3 0 0 1-.204.843q-.156.39-.421.672-.267.266-.704.266-.578 0-.875-.422a2.9 2.9 0 0 1-.406-1 8 8 0 0 1-.156-1.203q-.016-.61-.031-.969-1.125.187-2.22.328-.03.36-.14.89a4.5 4.5 0 0 1-.312 1.032 2.7 2.7 0 0 1-.547.844q-.328.36-.813.36a.73.73 0 0 1-.593-.267 2.1 2.1 0 0 1-.313-.656 4 4 0 0 1-.14-.765q-.016-.407-.016-.672 0-.89.14-1.75a32 32 0 0 1 .579-2.797q.156-.61.375-1.25.234-.657.53-1.281.314-.641.704-1.141a3.5 3.5 0 0 1 .89-.812 2.05 2.05 0 0 1 1.11-.313q.594 0 1.031.266.438.265.766.703t.547 1q.218.547.36 1.125.155.563.25 1.11.109.546.187.968.203 1.015.343 2.062.141 1.032.141 2.078m-3.016-3.797q0-.187-.03-.61a6 6 0 0 0-.095-.86 2.7 2.7 0 0 0-.25-.765q-.156-.343-.437-.343-.156 0-.297.218a2.1 2.1 0 0 0-.25.532 7 7 0 0 0-.203.703q-.079.39-.14.75-.064.36-.094.656l-.047.406q.938-.078 1.843-.234zm11.125 2.062q0 .266-.015.797 0 .516-.047 1.094-.031.562-.094 1.078-.062.5-.156.734-.126.297-.328.516a.71.71 0 0 1-.547.219q-.531 0-.766-.422t-.312-1.047a9.4 9.4 0 0 1-.063-1.36q.015-.734-.015-1.359a4 4 0 0 0-.172-1.047q-.141-.422-.516-.422-.516 0-.797.172a.95.95 0 0 0-.39.422q-.11.265-.141.61-.015.343-.047.718-.03.36-.047.969-.015.609-.14 1.203-.126.594-.422 1.031-.282.422-.844.422a.7.7 0 0 1-.562-.265 2.1 2.1 0 0 1-.329-.688 6 6 0 0 1-.187-.937 17 17 0 0 1-.063-1v-.907q.016-.406.016-.609 0-.312.016-1.031.03-.719.109-1.594.078-.89.203-1.828.126-.938.328-1.703.204-.781.485-1.266.296-.484.687-.469.25.016.422.22.188.203.297.53.124.313.203.688.078.375.11.75.046.36.046.672.016.313.016.484a21 21 0 0 1-.063 1.625 2.8 2.8 0 0 1 .954-.797 2.65 2.65 0 0 1 1.218-.312q.782 0 1.172.437.407.423.578 1.063.172.624.188 1.343.015.704.015 1.266m4.032-2.5q0 .25-.032.688-.03.42-.093.922a9 9 0 0 1-.188 1 7 7 0 0 1-.266.921q-.156.407-.374.672-.22.25-.5.25-.345 0-.594-.328a3.5 3.5 0 0 1-.406-.86 9 9 0 0 1-.25-1.171q-.094-.64-.141-1.25a26 26 0 0 1-.063-1.14V35.64q0-.439.032-.922.045-.484.125-.953.093-.485.265-.875.172-.391.453-.625a1.02 1.02 0 0 1 .704-.25q.375 0 .609.328.25.312.39.828.157.5.22 1.125.077.625.093 1.234.03.594.016 1.11zm-.297 5.938a.9.9 0 0 1-.125.468 1.05 1.05 0 0 1-.328.313 1.4 1.4 0 0 1-.438.203 1.8 1.8 0 0 1-.469.063q-.343 0-.656-.188-.312-.172-.312-.562 0-.235.125-.422.14-.203.343-.344t.438-.219q.25-.078.469-.078.36 0 .656.188.297.171.297.578m9.015-1.922a4 4 0 0 1-.265-.547 2.3 2.3 0 0 1-.141-.531 1.2 1.2 0 0 1 .031-.485.78.78 0 0 1 .297-.39.52.52 0 0 1 .391-.094q.219.03.469.187a14 14 0 0 0 .062-1.125 7 7 0 0 0-.062-.89 4.3 4.3 0 0 0-.172-.86 2.2 2.2 0 0 0-.328-.672.63.63 0 0 0-.516-.265.68.68 0 0 0-.516.234q-.203.235-.343.625-.141.375-.203.86-.063.468-.063.953 0 .546.063 1.093.078.547.218.985t.344.703q.219.266.516.266a.5.5 0 0 0 .218-.047m3 .64q.157.22.344.563.188.329.281.687.11.344.094.657a.64.64 0 0 1-.265.5.53.53 0 0 1-.407.109 1.1 1.1 0 0 1-.453-.14 2.2 2.2 0 0 1-.453-.313 4 4 0 0 1-.453-.422q-.422.36-.953.563a3.1 3.1 0 0 1-1.157.203q-.953 0-1.656-.485a3.8 3.8 0 0 1-1.172-1.265 6.9 6.9 0 0 1-.687-1.875 11.05 11.05 0 0 1 .015-4.453q.25-1.126.75-2.032a4.65 4.65 0 0 1 1.266-1.484q.766-.578 1.828-.578 1.032 0 1.719.562.704.547 1.109 1.438.423.875.594 1.968.188 1.095.188 2.188 0 .969-.157 1.86a7.8 7.8 0 0 1-.468 1.624zm8.36-2.578q0 .859-.172 1.703a4.7 4.7 0 0 1-.578 1.516 3.15 3.15 0 0 1-1.094 1.063q-.672.405-1.688.406-.999 0-1.671-.39a3.2 3.2 0 0 1-1.079-1.063 4.8 4.8 0 0 1-.562-1.485 9 9 0 0 1-.156-1.687q0-.937.218-1.86.048-.249.172-.687.141-.453.344-.875.219-.438.484-.75.282-.312.61-.313.312 0 .5.172t.297.438q.11.25.14.547.032.28.032.515 0 .36-.063.703-.047.345-.109.688l-.125.937a9 9 0 0 0-.032 1.47q.032.28.126.546.093.266.265.453.172.172.485.172.406 0 .64-.219.25-.219.36-.547.125-.328.156-.703t.031-.687q0-.688-.094-1.344-.094-.672-.172-1.36a1.5 1.5 0 0 1 .063-.687q.078-.234.219-.422.14-.187.343-.297a.85.85 0 0 1 .454-.125q.343 0 .609.25.266.235.437.625.188.375.297.86.126.468.188.937.078.453.093.86.032.406.032.64m7.594 2.266q0 .28-.032.734-.015.454-.125.89a2.1 2.1 0 0 1-.343.735.78.78 0 0 1-.657.313q-.578 0-.89-.375-.314-.375-.297-.938-.5.438-1.141.688-.626.25-1.281.25a1.8 1.8 0 0 1-.86-.219 2.7 2.7 0 0 1-.718-.562 2.8 2.8 0 0 1-.5-.766 2.2 2.2 0 0 1-.188-.86q0-.75.453-1.312a4.3 4.3 0 0 1 1.141-.953q.672-.406 1.422-.64.765-.235 1.359-.313v-.14a.6.6 0 0 0 .016-.142q0-.484-.266-.78-.266-.298-.75-.298-.39 0-.672.141a3.3 3.3 0 0 0-.531.297q-.25.156-.5.297a1.24 1.24 0 0 1-.562.125.87.87 0 0 1-.594-.219.74.74 0 0 1-.234-.562q0-.516.296-.938.313-.422.766-.703a4 4 0 0 1 1-.453 3.4 3.4 0 0 1 1-.172q.421 0 .844.11.422.093.797.312.375.203.671.515.314.297.5.703.282.579.454 1.235.172.64.265 1.328.094.672.125 1.36.032.671.032 1.312m-2.5-.5-.047-1.063h-.063a.14.14 0 0 0-.062-.015 1.6 1.6 0 0 0-.516.11 2.3 2.3 0 0 0-.578.28 2.3 2.3 0 0 0-.484.391.7.7 0 0 0-.188.453q0 .219.156.297a.8.8 0 0 0 .36.078q.344 0 .734-.172.39-.187.688-.36m7.874 3.14q-.265 0-.421-.25a1.7 1.7 0 0 1-.235-.546 4.4 4.4 0 0 1-.109-.625 11 11 0 0 1-.016-.5q0-.469.047-.938l.125-.937q.078-.469.125-.938a7 7 0 0 0 .063-.937q0-.187-.016-.407a1.6 1.6 0 0 0-.078-.406.66.66 0 0 0-.172-.328.44.44 0 0 0-.328-.125q-.14 0-.313.234a3.4 3.4 0 0 0-.328.516q-.14.282-.25.578a1.5 1.5 0 0 0-.094.422v.703q.016.345.016.703v.907q-.015.28-.047.578a5 5 0 0 1-.093.578q-.048.281-.141.547a1.8 1.8 0 0 1-.25.453q-.14.188-.344.312a.9.9 0 0 1-.484.125.7.7 0 0 1-.516-.203 1.5 1.5 0 0 1-.328-.516 3.6 3.6 0 0 1-.187-.718 23 23 0 0 1-.079-.782q-.015-.39-.015-.703.015-.327.015-.515v-.735q0-.593-.031-1.172-.016-.577-.016-1.156v-.797q.016-.484.126-.937.108-.469.359-.797.25-.328.734-.328.219 0 .391.14.171.141.297.344.14.204.219.438.093.234.14.406.156-.219.36-.422.218-.203.484-.36a2.53 2.53 0 0 1 1.344-.343q.796 0 1.234.39.453.375.656.954.22.563.266 1.218.047.657.047 1.188 0 .266-.047.797-.047.516-.156 1.156A13 13 0 0 1 132 42q-.172.657-.406 1.203a3 3 0 0 1-.563.89q-.312.344-.719.344m9.766-10.718q0 1.14-.094 2.265-.078 1.126-.078 2.266 0 .922.047 1.828.063.906.063 1.828 0 .25-.016.61-.015.343-.109.672a1.3 1.3 0 0 1-.282.562q-.187.234-.547.234-.468 0-.781-.343a1.7 1.7 0 0 1-.375-.797 2.7 2.7 0 0 1-.859.953q-.562.39-1.219.39-.703 0-1.219-.484a4.3 4.3 0 0 1-.843-1.172 7 7 0 0 1-.5-1.437 6.4 6.4 0 0 1-.157-1.297 10 10 0 0 1 .203-1.906 8 8 0 0 1 .313-1q.187-.5.469-.891.297-.39.687-.625.406-.234.922-.234.563 0 1.078.328t.781.812l.141-2.484q.016-.297.047-.688a4.3 4.3 0 0 1 .125-.765q.11-.36.328-.61t.641-.25q.453 0 .703.22.25.217.359.562.125.328.141.718.031.39.031.735m-2.547 6.937q0-.36-.015-.703a8 8 0 0 1 0-.703 9 9 0 0 0-.219-.437 2 2 0 0 0-.313-.454 1.6 1.6 0 0 0-.39-.359.85.85 0 0 0-.469-.14.6.6 0 0 0-.453.171 1 1 0 0 0-.25.422 2.5 2.5 0 0 0-.11.516q-.015.281-.015.484 0 .188.031.563.031.36.11.734.093.375.25.656.156.282.421.282.203 0 .407-.079.203-.093.375-.218.187-.141.343-.297.172-.172.297-.313zm6.547 3.797q-.797 0-1.39-.422a3.7 3.7 0 0 1-1-1.078 5.2 5.2 0 0 1-.61-1.453 6.6 6.6 0 0 1-.203-1.594q0-.828.203-1.703.204-.89.625-1.61.422-.734 1.078-1.187.657-.468 1.563-.468.875 0 1.484.484.625.468 1 1.187.375.705.531 1.547.157.844.11 1.594a8.6 8.6 0 0 1-.266 1.672 5.3 5.3 0 0 1-.609 1.516 3.5 3.5 0 0 1-1.032 1.093q-.624.422-1.484.422m.156-7.062q-.233 0-.422.25-.171.25-.296.609-.11.36-.172.766-.063.39-.063.687 0 .375.063.813.078.437.203.812.124.36.297.61.187.234.422.234.25 0 .422-.234.186-.236.296-.594.11-.36.157-.782a8 8 0 0 0 .047-.812q0-.345-.063-.75a4.3 4.3 0 0 0-.187-.781 1.8 1.8 0 0 0-.297-.594q-.172-.234-.407-.234M155 44.453q-.797 0-1.391-.422a3.7 3.7 0 0 1-1-1.078A5.2 5.2 0 0 1 152 41.5a6.6 6.6 0 0 1-.203-1.594q0-.828.203-1.703.203-.89.625-1.61.422-.734 1.078-1.187.656-.468 1.563-.468.875 0 1.484.484.625.468 1 1.187.375.705.531 1.547.156.844.11 1.594a8.6 8.6 0 0 1-.266 1.672 5.3 5.3 0 0 1-.609 1.516 3.5 3.5 0 0 1-1.032 1.093q-.624.422-1.484.422m.156-7.062q-.234 0-.422.25-.171.25-.296.609-.11.36-.172.766-.063.39-.063.687 0 .375.063.813.078.437.203.812.125.36.297.61.187.234.422.234.25 0 .421-.234.187-.236.297-.594.11-.36.156-.782.047-.437.047-.812 0-.345-.062-.75a4.3 4.3 0 0 0-.188-.781 1.8 1.8 0 0 0-.297-.594q-.171-.234-.406-.234m14.703-2.625q0 1.078-.531 1.968a4.7 4.7 0 0 1-1.422 1.47q.47.093.813.327.343.219.562.547.235.328.344.75.125.406.125.86 0 .89-.422 1.562a3.55 3.55 0 0 1-1.062 1.094 5.2 5.2 0 0 1-1.469.64 6.4 6.4 0 0 1-1.594.203q-.437 0-.875-.062a3.6 3.6 0 0 1-.828-.219q-.141-.047-.234-.375a6 6 0 0 1-.157-.828 27 27 0 0 1-.078-1.047 45 45 0 0 1-.047-1.078q-.015-.516-.015-.906V38.03q0-.562.031-1.11v-.437q.016-.297.016-.656l.031-.781q.032-.407.062-.75.048-.36.11-.61.078-.249.172-.312.359-.234.797-.437a7 7 0 0 1 .906-.376q.469-.156.937-.25.47-.093.891-.093.578 0 1.109.172.547.156.938.484.406.329.64.813.25.468.25 1.078m-2.593.828q0-.266-.172-.39a.66.66 0 0 0-.422-.126 1.34 1.34 0 0 0-.875.344q-.047.047-.094.266-.032.218-.062.5l-.032.515v.562q.016.08.032.141.015.063.047.063a1 1 0 0 0 .546-.188q.282-.203.5-.484.236-.297.375-.625.157-.329.157-.578m-.063 4.515q0-.265-.187-.375a.8.8 0 0 0-.422-.109q-.219 0-.469.11-.234.093-.391.234-.047.03-.078.156-.015.125-.031.281 0 .141-.016.282v.499l.032.188q.03.078.062.078.218 0 .485-.125.265-.124.484-.312.234-.188.375-.422a.9.9 0 0 0 .156-.485m6.328 4.344q-.797 0-1.39-.422a3.7 3.7 0 0 1-1-1.078 5.2 5.2 0 0 1-.61-1.453 6.6 6.6 0 0 1-.203-1.594q0-.828.203-1.703.204-.89.625-1.61.423-.734 1.078-1.187.657-.468 1.563-.468.875 0 1.484.484.625.468 1 1.187.375.705.531 1.547.157.844.11 1.594a8.6 8.6 0 0 1-.266 1.672 5.3 5.3 0 0 1-.609 1.516 3.5 3.5 0 0 1-1.031 1.093q-.625.422-1.485.422m.157-7.062q-.235 0-.422.25-.172.25-.297.609-.11.36-.172.766-.063.39-.063.687 0 .375.063.813.078.437.203.812.124.36.297.61.187.234.422.234.25 0 .422-.234.188-.236.297-.594.108-.36.156-.782a8 8 0 0 0 .047-.812q0-.345-.063-.75a4.3 4.3 0 0 0-.187-.781 1.8 1.8 0 0 0-.297-.594q-.172-.234-.406-.234m11.421 1.453q0 .453-.078 1.031a8 8 0 0 1-.219 1.156 6.5 6.5 0 0 1-.39 1.157 4.2 4.2 0 0 1-.594 1.015q-.344.438-.812.703a2.07 2.07 0 0 1-1.063.266q-.64 0-1.172-.297a2.9 2.9 0 0 1-.89-.812 1.3 1.3 0 0 1-.344.75 1 1 0 0 1-.75.312q-.266 0-.453-.266a2.4 2.4 0 0 1-.282-.672 7 7 0 0 1-.171-.921 16 16 0 0 1-.063-.97q-.015-.468-.016-.843V38.86l.032-1.078q0-.265-.016-.797 0-.53.016-1.172.015-.656.062-1.328.063-.687.203-1.25t.391-.922q.25-.36.641-.374.312 0 .531.218.22.22.359.578.157.36.235.813.093.438.125.89.047.438.047.844.015.39.015.64 0 .048-.015.22v.843q.14-.297.406-.578.265-.28.594-.5.327-.218.687-.36.36-.14.687-.14.657 0 1.094.344.453.328.719.844.265.515.375 1.125.11.593.109 1.125m-2.297.468q0-.187-.031-.406a1.1 1.1 0 0 0-.109-.406.8.8 0 0 0-.234-.312.55.55 0 0 0-.376-.126q-.25 0-.5.11a2.3 2.3 0 0 0-.453.281q-.218.173-.406.375-.187.187-.328.375l-.156 1.39q.25.36.609.579.36.203.813.203a.76.76 0 0 0 .562-.219q.234-.219.359-.531.141-.329.188-.687.063-.36.062-.626m6.219 5.141q-.797 0-1.39-.422a3.7 3.7 0 0 1-1-1.078 5.2 5.2 0 0 1-.61-1.453 6.6 6.6 0 0 1-.203-1.594q0-.828.203-1.703.204-.89.625-1.61.423-.734 1.078-1.187.657-.468 1.563-.468.875 0 1.484.484.625.468 1 1.187.375.705.531 1.547.157.844.11 1.594a8.6 8.6 0 0 1-.266 1.672 5.3 5.3 0 0 1-.609 1.516 3.5 3.5 0 0 1-1.031 1.093q-.625.422-1.485.422m.157-7.062q-.235 0-.422.25-.172.25-.297.609-.11.36-.172.766-.063.39-.063.687 0 .375.063.813.078.437.203.812.124.36.297.61.187.234.422.234.25 0 .422-.234.188-.236.297-.594.108-.36.156-.782a8 8 0 0 0 .047-.812q0-.345-.063-.75a4.3 4.3 0 0 0-.187-.781 1.8 1.8 0 0 0-.297-.594q-.172-.234-.406-.234m14.531-3.672q0 1.14-.094 2.265-.078 1.126-.078 2.266 0 .922.047 1.828.062.906.062 1.828 0 .25-.015.61-.016.343-.11.672a1.3 1.3 0 0 1-.281.562q-.187.234-.547.234-.469 0-.781-.343a1.7 1.7 0 0 1-.375-.797 2.7 2.7 0 0 1-.859.953q-.564.39-1.219.39-.703 0-1.219-.484a4.3 4.3 0 0 1-.844-1.172 7 7 0 0 1-.5-1.437 6.5 6.5 0 0 1-.156-1.297 10 10 0 0 1 .203-1.906q.125-.516.313-1 .188-.5.468-.891.297-.39.688-.625.406-.234.922-.234.562 0 1.078.328t.781.812l.141-2.484q.015-.297.047-.688.03-.406.125-.765.11-.36.328-.61t.64-.25q.453 0 .704.22.25.217.359.562.124.328.141.718.03.39.031.735m-2.547 6.937q0-.36-.016-.703-.015-.343 0-.703a8 8 0 0 0-.218-.437 2 2 0 0 0-.313-.454 1.6 1.6 0 0 0-.391-.359.85.85 0 0 0-.468-.14.62.62 0 0 0-.454.171 1 1 0 0 0-.25.422 2.5 2.5 0 0 0-.109.516q-.015.281-.015.484a7.3 7.3 0 0 0 .14 1.297q.094.375.25.656t.422.282q.203 0 .406-.079.204-.093.375-.218a3 3 0 0 0 .344-.297q.173-.172.297-.313zm10.219 1.14q0 .282-.032.735-.015.454-.125.89a2.1 2.1 0 0 1-.343.735q-.235.313-.657.313-.578 0-.89-.375-.314-.375-.297-.938-.5.438-1.141.688a3.4 3.4 0 0 1-1.281.25q-.453 0-.859-.219a2.7 2.7 0 0 1-.719-.562 2.9 2.9 0 0 1-.5-.766 2.2 2.2 0 0 1-.188-.86q0-.75.453-1.312a4.3 4.3 0 0 1 1.141-.953q.672-.406 1.422-.64.766-.235 1.359-.313v-.14a.6.6 0 0 0 .016-.142q0-.484-.266-.78-.266-.298-.75-.298-.39 0-.672.141a3.3 3.3 0 0 0-.531.297q-.25.156-.5.297a1.24 1.24 0 0 1-.562.125.87.87 0 0 1-.594-.219.74.74 0 0 1-.234-.562q0-.516.297-.938.312-.422.765-.703a4 4 0 0 1 1-.453 3.4 3.4 0 0 1 1-.172q.422 0 .844.11.422.093.797.312.375.203.672.515.312.297.5.703.28.579.453 1.235.172.64.265 1.328.095.672.125 1.36.032.671.032 1.312m-2.5-.5-.047-1.062h-.063a.14.14 0 0 0-.062-.015 1.6 1.6 0 0 0-.516.11 2.3 2.3 0 0 0-.578.28 2.3 2.3 0 0 0-.484.391.7.7 0 0 0-.188.453q0 .219.156.297a.8.8 0 0 0 .36.078q.344 0 .734-.172.391-.187.688-.36m14.703-6.233q0 1.296-.063 2.609-.061 1.296-.156 2.594-.015.234-.031.64a15 15 0 0 1-.188 1.781 3.6 3.6 0 0 1-.25.86q-.156.375-.422.61a.85.85 0 0 1-.625.25q-.327 0-.593-.141a1.4 1.4 0 0 1-.422-.36 1.86 1.86 0 0 1-.36-1.125q0-.515.032-1.031.03-.531.093-1.047l-1.547.156-.109.985q-.047.563-.219 1.093-.156.516-.484.891t-.906.375a.98.98 0 0 1-.594-.172 1.2 1.2 0 0 1-.375-.406 2.1 2.1 0 0 1-.203-.578 3 3 0 0 1-.063-.594q0-.937.079-1.86a38 38 0 0 0 .124-3.843q0-1 .032-2 .015-.328.015-.766a4 4 0 0 1 .11-.812q.11-.391.343-.656.25-.266.735-.266.672 0 1.015.36.344.343.485.874.141.516.141 1.11v1.047q0 .624-.032 1.234l-.062 1.203 1.672-.25.031-1.516q.015-.75.062-1.5l.032-.765q.015-.407.125-.75.109-.344.359-.563.265-.234.781-.234.438 0 .703.25.282.25.438.61.172.358.234.765.063.406.063.734zm3.609-1.97a.65.65 0 0 1-.125.391 1.2 1.2 0 0 1-.297.313q-.187.124-.406.203a1.5 1.5 0 0 1-.406.063.96.96 0 0 1-.547-.157q-.234-.156-.234-.484a.74.74 0 0 1 .109-.406 1 1 0 0 1 .297-.297q.172-.126.39-.188a1.5 1.5 0 0 1 .422-.062q.297 0 .547.14t.25.485m.125 5.313v.469q0 .234-.016.453-.015.266-.015.719 0 .438-.031.953-.032.516-.11 1.047a4.4 4.4 0 0 1-.218.969 2 2 0 0 1-.422.718.9.9 0 0 1-.641.282.58.58 0 0 1-.5-.235 2.2 2.2 0 0 1-.344-.64 5.3 5.3 0 0 1-.187-.891 17 17 0 0 1-.094-.953 13 13 0 0 1-.031-.86v-1.281q0-.468.031-1 .031-.53.109-1.078.094-.547.25-1a2.2 2.2 0 0 1 .438-.734.88.88 0 0 1 .672-.282q.422 0 .64.422.22.423.329.985.108.563.124 1.125.016.546.016.812m8.266.938q0 .687-.156 1.515a5.3 5.3 0 0 1-.5 1.516q-.345.704-.922 1.172-.562.468-1.422.469-.219 0-.453-.032a2.2 2.2 0 0 1-.453-.109 1.6 1.6 0 0 1-.376-.203.9.9 0 0 1-.265-.36l-.141 2.25q-.015.36-.031.86 0 .499-.125.953a1.7 1.7 0 0 1-.391.766q-.265.328-.781.328-.296 0-.5-.313a2.5 2.5 0 0 1-.328-.765 9 9 0 0 1-.172-1.047 14 14 0 0 1-.078-1.11 35 35 0 0 1-.016-.968v-.641q0-1.046-.015-2.078-.016-1.047-.016-2.094v-.578q0-.405.031-.875.031-.468.094-.969.078-.5.219-.906.14-.422.359-.672a.67.67 0 0 1 .532-.266q.203 0 .359.126a.86.86 0 0 1 .281.296q.125.173.203.375.078.203.125.375.484-.546 1.11-.828.64-.28 1.359-.281.75 0 1.219.422.484.422.75 1.047.28.624.39 1.343.11.704.11 1.282m-2.235-.125a2.3 2.3 0 0 0-.047-.469 1.3 1.3 0 0 0-.14-.453.77.77 0 0 0-.281-.344.76.76 0 0 0-.469-.14q-.375 0-.797.25a1.74 1.74 0 0 0-.609.546q-.078.126-.094.407a8 8 0 0 0-.016.422v.296l.032.36q.015.188.031.36.031.17.078.265a.6.6 0 0 0 .203.265q.156.11.344.203t.375.141q.203.047.343.047a.65.65 0 0 0 .532-.25 1.8 1.8 0 0 0 .312-.594q.126-.343.156-.703.047-.375.047-.61m6.157 5.234q-.797 0-1.391-.422a3.7 3.7 0 0 1-1-1.078 5.2 5.2 0 0 1-.609-1.453 6.5 6.5 0 0 1-.204-1.594q0-.828.204-1.703.202-.89.625-1.61.421-.734 1.078-1.187.656-.468 1.562-.468.875 0 1.485.484.625.468 1 1.187.375.705.531 1.547a6.5 6.5 0 0 1 .109 1.594 8.6 8.6 0 0 1-.265 1.672 5.3 5.3 0 0 1-.61 1.516A3.5 3.5 0 0 1 241 44.03q-.625.422-1.484.422m.156-7.062q-.234 0-.422.25-.173.25-.297.609-.11.36-.172.766-.062.39-.062.687 0 .375.062.813.078.437.203.812.126.36.297.61.188.234.422.234.25 0 .422-.234.188-.236.297-.594.11-.36.156-.782a8 8 0 0 0 .047-.812q0-.345-.063-.75a4.3 4.3 0 0 0-.187-.781 1.8 1.8 0 0 0-.297-.594q-.171-.234-.406-.234M77.562 62.797q0 .28-.03.734-.016.454-.126.89a2.1 2.1 0 0 1-.344.735q-.233.313-.656.313-.578 0-.89-.375-.314-.375-.297-.938-.501.438-1.14.688-.626.25-1.282.25-.453 0-.86-.219a2.7 2.7 0 0 1-.718-.562 2.9 2.9 0 0 1-.5-.766 2.2 2.2 0 0 1-.188-.86q0-.75.453-1.312a4.3 4.3 0 0 1 1.141-.953q.672-.406 1.422-.64.765-.235 1.36-.313v-.14a.6.6 0 0 0 .015-.142q0-.484-.266-.78-.266-.298-.75-.298-.39 0-.672.141a3.3 3.3 0 0 0-.53.297q-.25.156-.5.297a1.24 1.24 0 0 1-.563.125.87.87 0 0 1-.594-.219.74.74 0 0 1-.234-.562q0-.516.296-.938.313-.422.766-.703a4 4 0 0 1 1-.453 3.4 3.4 0 0 1 1-.172q.422 0 .844.11.422.093.797.312.375.203.671.515.314.298.5.703.282.579.454 1.235.172.64.265 1.328.094.672.125 1.36.031.671.031 1.312m-2.5-.5-.046-1.063h-.063a.14.14 0 0 0-.062-.015q-.204 0-.516.11-.297.093-.578.28a2.3 2.3 0 0 0-.484.391.7.7 0 0 0-.188.453q0 .219.156.297a.8.8 0 0 0 .36.078q.344 0 .734-.172.39-.187.688-.36m10.594-1.953q0 .687-.156 1.515a5.3 5.3 0 0 1-.5 1.516q-.345.704-.922 1.172-.562.468-1.422.469-.219 0-.453-.032a2.2 2.2 0 0 1-.453-.109 1.6 1.6 0 0 1-.375-.203.9.9 0 0 1-.266-.36l-.14 2.25q-.016.36-.031.86 0 .499-.126.953a1.7 1.7 0 0 1-.39.766q-.266.328-.781.328-.297 0-.5-.313a2.5 2.5 0 0 1-.329-.765 9 9 0 0 1-.171-1.047 14 14 0 0 1-.079-1.11q-.015-.531-.015-.968v-.641q0-1.047-.016-2.078-.015-1.047-.015-2.094v-.578q0-.405.03-.875.032-.468.095-.969a5.3 5.3 0 0 1 .218-.906q.141-.422.36-.672a.67.67 0 0 1 .531-.266.56.56 0 0 1 .36.126.86.86 0 0 1 .28.296q.126.173.204.375.078.203.125.375.484-.546 1.11-.828.64-.28 1.359-.281.75 0 1.218.422.484.422.75 1.047.282.624.39 1.343.11.704.11 1.282m-2.234-.125q0-.235-.047-.469a1.3 1.3 0 0 0-.14-.453.76.76 0 0 0-.282-.344.76.76 0 0 0-.469-.14q-.375 0-.796.25-.407.234-.61.546-.078.126-.094.407-.015.28-.015.422v.296l.031.36q.015.188.031.36.032.17.078.265a.6.6 0 0 0 .204.265q.156.11.343.203.187.095.375.141.203.047.344.047a.65.65 0 0 0 .531-.25q.204-.25.313-.594.124-.343.156-.703.047-.375.047-.61m9.828 2.578q0 .28-.031.734-.015.454-.125.89a2.1 2.1 0 0 1-.344.735q-.234.313-.656.313-.578 0-.89-.375-.314-.375-.298-.938-.5.438-1.14.688-.625.25-1.282.25-.453 0-.859-.219a2.7 2.7 0 0 1-.719-.562 2.9 2.9 0 0 1-.5-.766 2.2 2.2 0 0 1-.187-.86q0-.75.453-1.312a4.3 4.3 0 0 1 1.14-.953q.672-.406 1.422-.64.766-.235 1.36-.313v-.14a.6.6 0 0 0 .015-.142q0-.484-.265-.78-.265-.298-.75-.298-.39 0-.672.141a3.3 3.3 0 0 0-.531.297q-.25.156-.5.297a1.24 1.24 0 0 1-.563.125.87.87 0 0 1-.594-.219.74.74 0 0 1-.234-.562q0-.516.297-.938.312-.422.766-.703a4 4 0 0 1 1-.453 3.4 3.4 0 0 1 1-.172q.42 0 .843.11.422.093.797.312.375.203.672.515.312.298.5.703.281.579.453 1.235.172.64.266 1.328.093.672.125 1.36.03.671.031 1.312m-2.5-.5-.047-1.063h-.062a.14.14 0 0 0-.063-.015q-.203 0-.516.11-.296.093-.578.28A2.3 2.3 0 0 0 89 62a.7.7 0 0 0-.187.453q0 .219.156.297a.8.8 0 0 0 .36.078q.342 0 .734-.172.39-.187.687-.36m8.86-3.14q-.22.015-.376-.032L98.922 59a3 3 0 0 0-.281-.11.6.6 0 0 0-.313-.046q-.312.015-.562.172a2.2 2.2 0 0 0-.438.39 2.7 2.7 0 0 0-.328.532 3 3 0 0 0-.219.562 4 4 0 0 0-.078.578q-.016.375-.016.813-.015.453-.015.859t-.031.64q-.016.25-.079.594-.062.33-.203.625a1.4 1.4 0 0 1-.343.5.8.8 0 0 1-.563.204.75.75 0 0 1-.469-.157 1.4 1.4 0 0 1-.328-.406 4 4 0 0 1-.219-.61 8 8 0 0 1-.124-.703q-.048-.375-.079-.75l-.03-.703v-.625q.015-.28.015-.453-.015-.546-.063-1.093-.03-.563-.031-1.11 0-.343.031-.766.031-.42.172-.78.141-.376.406-.626.282-.25.766-.25.266 0 .453.172.188.172.297.422.125.25.188.531.061.282.078.516.374-.609.843-.984.47-.391 1.22-.422.375-.016.734.078.375.078.671.281.313.188.5.5.204.312.219.734.031.5-.297.766-.327.265-.797.281m7.874 3.062q0 .531-.343 1.047-.328.5-.844.906-.5.39-1.078.64-.579.235-1.063.235a2.76 2.76 0 0 1-1.484-.406 3.9 3.9 0 0 1-1.078-1.063 5.1 5.1 0 0 1-.672-1.406 5.6 5.6 0 0 1-.219-1.516q0-.78.219-1.672.219-.89.656-1.64.453-.75 1.125-1.25.687-.5 1.625-.5.531 0 1.016.187a2.46 2.46 0 0 1 1.422 1.282q.218.453.218 1.015 0 .735-.312 1.375a3.6 3.6 0 0 1-.828 1.11 4.4 4.4 0 0 1-1.188.765 4 4 0 0 1-1.375.313q.063.453.36.656.312.203.734.203.312 0 .609-.156a6 6 0 0 0 .578-.344q.282-.203.547-.36.282-.156.563-.156.313 0 .562.203a.65.65 0 0 1 .25.532m-2.531-3.828a.94.94 0 0 0-.109-.422.36.36 0 0 0-.344-.219.9.9 0 0 0-.578.188 1.4 1.4 0 0 0-.391.453q-.156.266-.25.578a3 3 0 0 0-.093.578q.218-.047.515-.125.312-.078.578-.203.282-.141.469-.344a.66.66 0 0 0 .203-.484m8.953.609q0 .078-.015.172a1 1 0 0 1-.047.156q-.141.36-.438.61a1.1 1.1 0 0 1-.703.234q-.609 0-.828-.61a.5.5 0 0 1-.031-.171q0-.11-.016-.22v-.452a.9.9 0 0 0-.109-.344q-.078-.125-.266-.125-.266 0-.515.344a3.8 3.8 0 0 0-.422.797 7 7 0 0 0-.282.937 3.7 3.7 0 0 0-.109.781q0 .236.031.578.032.33.125.641.094.312.25.547a.54.54 0 0 0 .438.219.8.8 0 0 0 .484-.157q.234-.171.453-.39.204-.187.438-.39a.87.87 0 0 1 .562-.204q.391 0 .61.281a.97.97 0 0 1 .234.641q0 .532-.281 1a3.2 3.2 0 0 1-.703.797q-.422.328-.938.516a2.7 2.7 0 0 1-.984.203q-.844 0-1.438-.422a3.3 3.3 0 0 1-.937-1.063 5 5 0 0 1-.516-1.422 7.3 7.3 0 0 1-.156-1.453q0-.797.219-1.718a6.4 6.4 0 0 1 .672-1.735 4.3 4.3 0 0 1 1.156-1.328q.719-.531 1.703-.531.609 0 1.047.265.453.266.734.703.297.423.438.954.156.531.156 1.047v.156a1 1 0 0 1-.016.156m7.422 3.219q0 .531-.344 1.047-.328.5-.843.906a5 5 0 0 1-1.079.64q-.578.235-1.062.235a2.76 2.76 0 0 1-1.484-.406 3.9 3.9 0 0 1-1.078-1.063 5.1 5.1 0 0 1-.672-1.406 5.6 5.6 0 0 1-.219-1.516q0-.78.219-1.672.218-.89.656-1.64.453-.75 1.125-1.25.687-.5 1.625-.5.531 0 1.016.187a2.45 2.45 0 0 1 1.421 1.282q.219.453.219 1.015 0 .735-.312 1.375a3.7 3.7 0 0 1-.828 1.11 4.4 4.4 0 0 1-1.188.765 4 4 0 0 1-1.375.313q.063.453.359.656.314.203.735.203.312 0 .609-.156a6 6 0 0 0 .578-.344q.282-.203.547-.36.281-.156.563-.156.312 0 .562.203a.65.65 0 0 1 .25.532m-2.531-3.828a.95.95 0 0 0-.109-.422.36.36 0 0 0-.344-.219.9.9 0 0 0-.578.188 1.4 1.4 0 0 0-.391.453q-.156.266-.25.578a3 3 0 0 0-.094.578q.219-.047.516-.125.312-.078.578-.203.281-.141.469-.344a.66.66 0 0 0 .203-.484m5.406 5.78q0 .25-.141.641-.124.39-.328.766-.187.376-.437.64-.25.267-.485.266-.312 0-.312-.312a.9.9 0 0 1 .078-.36q.079-.172.172-.343.094-.156.172-.328a.7.7 0 0 0 .078-.313.9.9 0 0 1-.5.156.78.78 0 0 1-.609-.28.92.92 0 0 1-.25-.626q0-.5.328-.797.328-.312.828-.312.563 0 .984.297t.422.906m7.359 1.282q-.796 0-1.39-.422a3.7 3.7 0 0 1-1-1.078 5.2 5.2 0 0 1-.61-1.453 6.6 6.6 0 0 1-.203-1.594q0-.828.203-1.703.203-.89.626-1.61.421-.734 1.078-1.187.656-.468 1.562-.468.875 0 1.484.484.625.468 1 1.187.375.705.532 1.547a6.5 6.5 0 0 1 .109 1.594 8.6 8.6 0 0 1-.265 1.672 5.3 5.3 0 0 1-.61 1.516 3.5 3.5 0 0 1-1.031 1.093q-.626.422-1.485.422m.157-7.062q-.235 0-.422.25-.173.25-.297.609-.11.36-.172.766a4.4 4.4 0 0 0-.062.687q0 .375.062.813.078.437.203.812.126.36.297.61.188.234.422.234.25 0 .422-.234.187-.236.297-.594.11-.36.156-.782a8 8 0 0 0 .047-.812q0-.345-.063-.75a4.3 4.3 0 0 0-.187-.781 1.8 1.8 0 0 0-.297-.594q-.172-.234-.406-.234m13.593.609q0 .078-.015.172a1 1 0 0 1-.047.156q-.141.36-.438.61a1.1 1.1 0 0 1-.703.234q-.609 0-.828-.61a.5.5 0 0 1-.031-.171q0-.11-.016-.22v-.452a.9.9 0 0 0-.109-.344q-.078-.125-.266-.125-.266 0-.515.344a3.8 3.8 0 0 0-.422.797 7 7 0 0 0-.281.937q-.11.484-.11.781 0 .236.031.578.031.33.126.641.093.312.25.547.171.219.437.219a.8.8 0 0 0 .484-.157q.236-.171.453-.39.204-.187.438-.39a.87.87 0 0 1 .562-.204q.391 0 .61.281a.97.97 0 0 1 .234.641q0 .532-.281 1a3.2 3.2 0 0 1-.703.797q-.422.328-.938.516a2.7 2.7 0 0 1-.984.203q-.844 0-1.438-.422a3.3 3.3 0 0 1-.937-1.063 5 5 0 0 1-.516-1.422 7.3 7.3 0 0 1-.156-1.453q0-.797.219-1.718.219-.939.672-1.735a4.3 4.3 0 0 1 1.156-1.328q.719-.531 1.703-.531.609 0 1.047.265.453.266.734.703.297.423.438.954.156.531.156 1.047v.156a1 1 0 0 1-.016.156m3.844 6.453q-.797 0-1.39-.422a3.7 3.7 0 0 1-1-1.078 5.2 5.2 0 0 1-.61-1.453 6.6 6.6 0 0 1-.203-1.594q0-.828.203-1.703.204-.89.625-1.61.422-.734 1.078-1.187.657-.468 1.563-.468.875 0 1.484.484.625.468 1 1.187.375.705.532 1.547a6.5 6.5 0 0 1 .109 1.594 8.6 8.6 0 0 1-.266 1.672 5.3 5.3 0 0 1-.609 1.516 3.5 3.5 0 0 1-1.031 1.093q-.626.422-1.485.422m.156-7.062q-.234 0-.421.25-.172.25-.297.609-.11.36-.172.766-.063.39-.063.687 0 .375.063.813.078.437.203.812.124.36.297.61.188.234.422.234.25 0 .422-.234.188-.236.296-.594.11-.36.157-.782a8 8 0 0 0 .047-.812q0-.345-.063-.75a4.3 4.3 0 0 0-.187-.781 1.8 1.8 0 0 0-.297-.594q-.172-.234-.407-.234m9.454.765q-.219.015-.375-.031l-.313-.125a3 3 0 0 0-.281-.11.6.6 0 0 0-.313-.046q-.312.015-.562.172a2.2 2.2 0 0 0-.438.39 2.7 2.7 0 0 0-.328.532 3 3 0 0 0-.218.562 4 4 0 0 0-.079.578q-.015.375-.015.813a24 24 0 0 0-.016.859q0 .406-.031.64a6 6 0 0 1-.078.594 2.6 2.6 0 0 1-.203.625 1.4 1.4 0 0 1-.344.5.8.8 0 0 1-.563.204.75.75 0 0 1-.468-.157 1.4 1.4 0 0 1-.329-.406 4 4 0 0 1-.218-.61 8 8 0 0 1-.125-.703q-.047-.375-.078-.75-.016-.375-.032-.703v-.625q.016-.28.016-.453-.015-.546-.063-1.093-.03-.563-.031-1.11 0-.343.031-.766.032-.42.172-.78.141-.376.407-.626.28-.25.765-.25.265 0 .453.172.187.172.297.422.125.25.188.531.062.282.078.516.375-.609.844-.984.468-.391 1.218-.422.375-.016.735.078.375.078.672.281.312.188.5.5.203.312.218.734.031.5-.297.766-.327.265-.796.281m8.484 1.188q0 .687-.156 1.515a5.3 5.3 0 0 1-.5 1.516 3.4 3.4 0 0 1-.922 1.172q-.562.468-1.422.469-.219 0-.453-.032a2.2 2.2 0 0 1-.453-.109 1.6 1.6 0 0 1-.375-.203.9.9 0 0 1-.266-.36l-.141 2.25q-.015.36-.031.86 0 .499-.125.953a1.7 1.7 0 0 1-.39.766q-.266.328-.782.328-.297 0-.5-.313a2.5 2.5 0 0 1-.328-.765 9 9 0 0 1-.172-1.047 15 15 0 0 1-.078-1.11 35 35 0 0 1-.015-.968v-.641q0-1.047-.016-2.078-.016-1.047-.016-2.094v-.578q0-.405.032-.875.03-.468.093-.969.078-.5.219-.906.141-.422.359-.672a.67.67 0 0 1 .532-.266q.203 0 .359.126a.85.85 0 0 1 .281.296q.125.173.204.375.078.203.124.375.485-.546 1.11-.828.64-.28 1.359-.281.75 0 1.219.422.485.422.75 1.047.282.624.391 1.343.11.704.109 1.282m-2.234-.125q0-.235-.047-.469a1.3 1.3 0 0 0-.141-.453.76.76 0 0 0-.281-.344.76.76 0 0 0-.469-.14q-.375 0-.797.25a1.74 1.74 0 0 0-.609.546q-.078.126-.094.407-.015.28-.016.422v.296l.032.36.031.36q.031.17.078.265a.6.6 0 0 0 .203.265q.156.11.344.203.188.095.375.141.203.047.344.047a.65.65 0 0 0 .531-.25q.203-.25.312-.594.126-.343.157-.703.047-.375.047-.61m6.156 5.234q-.797 0-1.391-.422a3.7 3.7 0 0 1-1-1.078 5.2 5.2 0 0 1-.609-1.453 6.5 6.5 0 0 1-.203-1.594q0-.828.203-1.703.203-.89.625-1.61.422-.734 1.078-1.187.656-.468 1.563-.468.875 0 1.484.484.625.468 1 1.187.375.705.531 1.547a6.5 6.5 0 0 1 .109 1.594 8.6 8.6 0 0 1-.265 1.672 5.4 5.4 0 0 1-.609 1.516 3.5 3.5 0 0 1-1.032 1.093q-.624.422-1.484.422m.156-7.062q-.234 0-.422.25-.171.25-.297.609-.11.36-.171.766-.063.39-.063.687 0 .375.063.813.077.437.203.812.125.36.297.61.186.234.421.234.25 0 .422-.234.188-.236.297-.594.11-.36.156-.782.047-.437.047-.812 0-.345-.062-.75a4.3 4.3 0 0 0-.188-.781 1.8 1.8 0 0 0-.297-.594q-.172-.234-.406-.234m14.531-3.672q0 1.14-.093 2.265-.078 1.126-.078 2.266 0 .922.046 1.828.063.906.063 1.828 0 .25-.016.61-.015.343-.109.672a1.3 1.3 0 0 1-.281.562q-.188.234-.547.234-.469 0-.782-.343a1.7 1.7 0 0 1-.374-.797 2.7 2.7 0 0 1-.86.953q-.562.39-1.219.39a1.72 1.72 0 0 1-1.218-.484 4.3 4.3 0 0 1-.844-1.172 7 7 0 0 1-.5-1.437 6.5 6.5 0 0 1-.156-1.297 9.4 9.4 0 0 1 .203-1.906 8 8 0 0 1 .312-1q.188-.5.469-.891.297-.39.687-.625.407-.234.922-.234.563 0 1.078.328t.782.812l.14-2.484q.016-.297.047-.688.032-.406.125-.765.11-.36.328-.61.22-.25.641-.25.453 0 .703.22.25.217.36.562.125.328.14.718.031.39.031.735m-2.547 6.937q0-.36-.015-.703a8 8 0 0 1 0-.703 9 9 0 0 0-.219-.437 2 2 0 0 0-.312-.454 1.6 1.6 0 0 0-.391-.359.85.85 0 0 0-.469-.14.6.6 0 0 0-.453.171 1 1 0 0 0-.25.422 2.5 2.5 0 0 0-.109.516 8 8 0 0 0-.016.484q0 .188.031.563.032.36.11.734.094.375.25.656t.422.282q.202 0 .406-.079.202-.093.375-.218a3 3 0 0 0 .344-.297q.171-.172.296-.313zm10.219 1.14q0 .282-.031.735-.015.454-.125.89a2.1 2.1 0 0 1-.344.735q-.234.313-.656.313-.577 0-.891-.375-.312-.375-.296-.938-.5.438-1.141.688-.625.25-1.281.25a1.8 1.8 0 0 1-.86-.219 2.8 2.8 0 0 1-1.218-1.328 2.2 2.2 0 0 1-.188-.86q0-.75.453-1.312a4.3 4.3 0 0 1 1.141-.953q.672-.406 1.422-.64.765-.235 1.359-.313v-.14a.6.6 0 0 0 .016-.142q0-.484-.266-.78-.265-.298-.75-.298-.39 0-.672.141a3.3 3.3 0 0 0-.531.297q-.25.156-.5.297a1.24 1.24 0 0 1-.563.125.87.87 0 0 1-.593-.219.73.73 0 0 1-.235-.562q0-.516.297-.938.312-.422.766-.703a4 4 0 0 1 1-.453 3.4 3.4 0 0 1 1-.172q.421 0 .844.11.421.093.796.312.375.203.672.515.313.298.5.703.282.579.453 1.235.172.64.266 1.328.094.672.125 1.36.031.671.031 1.312m-2.5-.5-.047-1.062h-.062a.14.14 0 0 0-.063-.015q-.203 0-.515.11a2.3 2.3 0 0 0-.578.28 2.3 2.3 0 0 0-.485.391.7.7 0 0 0-.187.453q0 .219.156.297a.8.8 0 0 0 .359.078q.344 0 .735-.172.39-.187.687-.36m.75-9.124q0 .171-.093.344a1.6 1.6 0 0 1-.235.297 2.3 2.3 0 0 1-.281.265q-.156.109-.281.203a7 7 0 0 0-.25.188 3 3 0 0 1-.282.187 3 3 0 0 1-.297.14.7.7 0 0 1-.281.063.4.4 0 0 1-.219-.062.27.27 0 0 1-.093-.219q0-.235.172-.562a4 4 0 0 1 .453-.657 3 3 0 0 1 .562-.547q.297-.234.547-.234a.52.52 0 0 1 .391.188q.187.172.187.406m11.031 3.234q0 .453-.312.672a6 6 0 0 1-.672.422q-.375.188-.687.453-.297.266-.297.797a.9.9 0 0 0 .125.484q.14.203.328.375.203.157.437.328.235.172.422.391.204.219.328.531.141.313.141.766 0 .657-.344 1.297a4.3 4.3 0 0 1-.859 1.125 4.3 4.3 0 0 1-1.172.781q-.657.297-1.297.297-.266 0-.531-.047a1.5 1.5 0 0 1-.484-.14 1.04 1.04 0 0 1-.344-.297.9.9 0 0 1-.141-.516q0-.438.172-.672.172-.25.437-.39.267-.14.563-.22.312-.077.578-.187a1.4 1.4 0 0 0 .438-.312q.171-.187.171-.532 0-.327-.265-.671a14 14 0 0 0-.563-.75 8 8 0 0 1-.578-.86 2.04 2.04 0 0 1-.25-1q0-.672.266-1.234.28-.579.734-1 .47-.422 1.063-.656.594-.25 1.25-.25.25 0 .484.047.25.046.438.171a.8.8 0 0 1 .297.313.86.86 0 0 1 .124.484m3.204-2.312a.65.65 0 0 1-.125.39 1.2 1.2 0 0 1-.297.313 2 2 0 0 1-.406.203 1.5 1.5 0 0 1-.407.063.97.97 0 0 1-.547-.157q-.234-.156-.234-.484a.74.74 0 0 1 .109-.406q.126-.188.297-.297.172-.126.391-.188.218-.062.422-.062.297 0 .547.14t.25.485m.125 5.312v.469q0 .234-.016.453-.016.266-.016.719 0 .438-.031.953-.031.516-.109 1.047a4.4 4.4 0 0 1-.219.969 2 2 0 0 1-.422.718.9.9 0 0 1-.64.282.58.58 0 0 1-.5-.235 2.2 2.2 0 0 1-.344-.64 5.3 5.3 0 0 1-.188-.891 18 18 0 0 1-.094-.953q-.03-.47-.031-.86v-1.281q0-.468.031-1 .032-.53.11-1.078.093-.547.25-1 .171-.453.437-.734a.88.88 0 0 1 .672-.282q.422 0 .641.422.219.423.328.985t.125 1.125q.016.546.016.812m5.547 6.032q-.267 0-.422-.25a1.7 1.7 0 0 1-.235-.547 4.4 4.4 0 0 1-.109-.625 11 11 0 0 1-.016-.5q0-.469.047-.938l.125-.937q.078-.469.125-.938a7 7 0 0 0 .063-.937q0-.187-.016-.407a1.6 1.6 0 0 0-.078-.406.66.66 0 0 0-.172-.328.44.44 0 0 0-.328-.125q-.14 0-.313.234a3.4 3.4 0 0 0-.328.516q-.14.282-.25.578a1.5 1.5 0 0 0-.093.422v.703q.015.345.015.703v.907q-.015.28-.047.578-.031.297-.094.578-.047.281-.14.547a1.8 1.8 0 0 1-.25.453q-.14.188-.344.312a.9.9 0 0 1-.484.125.7.7 0 0 1-.516-.203 1.5 1.5 0 0 1-.328-.516 3.7 3.7 0 0 1-.188-.718q-.046-.407-.078-.782-.015-.39-.015-.703.015-.327.015-.515v-.735q0-.593-.031-1.172-.015-.577-.015-1.156v-.797q.015-.484.124-.937.11-.469.36-.797t.734-.328q.219 0 .391.14.171.141.297.344.14.204.218.438.095.234.141.406.156-.218.359-.422.22-.203.485-.36A2.53 2.53 0 0 1 211.64 56q.796 0 1.234.39.453.375.656.954.22.563.266 1.218.047.657.047 1.188 0 .266-.047.797-.046.516-.156 1.156a13 13 0 0 1-.266 1.297q-.172.657-.406 1.203a3 3 0 0 1-.563.89q-.312.345-.718.344m9.671-2.641q0 .28-.031.734-.015.454-.125.89a2.1 2.1 0 0 1-.344.735q-.234.313-.656.313-.577 0-.891-.375-.312-.375-.296-.938-.5.438-1.141.688-.625.25-1.281.25a1.8 1.8 0 0 1-.86-.219 2.7 2.7 0 0 1-.718-.562 2.8 2.8 0 0 1-.5-.766 2.2 2.2 0 0 1-.188-.86q0-.75.453-1.312a4.3 4.3 0 0 1 1.141-.953q.672-.406 1.422-.64.765-.235 1.359-.313v-.14a.6.6 0 0 0 .016-.142q0-.484-.266-.78-.266-.298-.75-.298-.39 0-.672.141a3.3 3.3 0 0 0-.531.297q-.25.156-.5.297a1.24 1.24 0 0 1-.562.125.87.87 0 0 1-.594-.219.74.74 0 0 1-.235-.562q0-.516.297-.938.313-.422.766-.703a4 4 0 0 1 1-.453 3.4 3.4 0 0 1 1-.172q.421 0 .844.11.421.093.796.312.375.203.672.515.313.298.5.703.282.579.454 1.235.172.64.265 1.328.094.672.125 1.36.031.671.031 1.312m-2.5-.5-.047-1.063h-.062a.14.14 0 0 0-.062-.015 1.6 1.6 0 0 0-.516.11 2.3 2.3 0 0 0-.578.28 2.3 2.3 0 0 0-.485.391.7.7 0 0 0-.187.453q0 .219.156.297a.8.8 0 0 0 .36.078q.343 0 .734-.172.39-.187.687-.36m6.016-8.203a.65.65 0 0 1-.125.39 1.2 1.2 0 0 1-.297.313q-.187.124-.406.203a1.5 1.5 0 0 1-.406.063.96.96 0 0 1-.547-.157q-.234-.156-.235-.484a.74.74 0 0 1 .11-.406 1 1 0 0 1 .297-.297q.171-.126.39-.188a1.5 1.5 0 0 1 .422-.062q.297 0 .547.14t.25.485m.125 5.312v.469q0 .234-.016.453-.015.266-.015.719 0 .438-.031.953-.032.516-.11 1.047a4.4 4.4 0 0 1-.219.969 2 2 0 0 1-.421.718.9.9 0 0 1-.641.282.58.58 0 0 1-.5-.235 2.2 2.2 0 0 1-.344-.64 5.3 5.3 0 0 1-.187-.891 17 17 0 0 1-.094-.953 13 13 0 0 1-.031-.86v-1.281q0-.468.031-1 .031-.53.109-1.078.094-.547.25-1a2.2 2.2 0 0 1 .438-.734.88.88 0 0 1 .672-.282q.421 0 .64.422.219.423.328.985t.125 1.125q.016.546.016.812m5.688-3q0 .453-.313.672a6 6 0 0 1-.672.422q-.375.188-.687.453-.297.266-.297.797a.9.9 0 0 0 .125.484q.14.203.328.375.203.157.437.328.235.172.422.391.204.219.328.531.141.313.141.766 0 .657-.344 1.297a4.28 4.28 0 0 1-2.031 1.906q-.656.297-1.297.297-.266 0-.531-.047a1.5 1.5 0 0 1-.485-.14 1 1 0 0 1-.343-.297.9.9 0 0 1-.141-.516q0-.438.172-.672a1.2 1.2 0 0 1 .438-.39q.265-.14.562-.22.312-.077.578-.187a1.4 1.4 0 0 0 .438-.312q.172-.187.172-.532 0-.327-.266-.671a14 14 0 0 0-.563-.75 8 8 0 0 1-.578-.86 2.04 2.04 0 0 1-.25-1q0-.672.266-1.234.28-.579.734-1 .47-.422 1.063-.656.594-.25 1.25-.25.25 0 .484.047.25.046.438.171a.77.77 0 0 1 .296.313.85.85 0 0 1 .126.484m11.124-1.687q0 1.14-.093 2.265-.078 1.126-.078 2.266 0 .922.047 1.828.062.906.062 1.828 0 .25-.016.61a3 3 0 0 1-.109.672 1.3 1.3 0 0 1-.281.562q-.188.234-.547.234a1.01 1.01 0 0 1-.781-.343 1.7 1.7 0 0 1-.375-.797 2.7 2.7 0 0 1-.86.953q-.562.39-1.219.39a1.72 1.72 0 0 1-1.218-.484 4.3 4.3 0 0 1-.844-1.172 7 7 0 0 1-.5-1.437 6.5 6.5 0 0 1-.156-1.297 9.4 9.4 0 0 1 .203-1.906 8 8 0 0 1 .312-1q.188-.5.469-.891.297-.39.688-.625a1.8 1.8 0 0 1 .922-.234q.561 0 1.078.328.515.328.781.812l.141-2.484q.016-.297.046-.688.032-.406.125-.765.11-.36.329-.61.218-.25.64-.25.453 0 .703.22.25.217.36.562.125.328.14.718.031.39.031.735m-2.546 6.937q0-.36-.016-.703-.015-.343 0-.703a8 8 0 0 0-.219-.437 2 2 0 0 0-.312-.454 1.6 1.6 0 0 0-.391-.359.85.85 0 0 0-.469-.14.6.6 0 0 0-.453.171 1 1 0 0 0-.25.422 2.5 2.5 0 0 0-.109.516 8 8 0 0 0-.016.484q0 .188.031.563.032.36.11.734.093.375.25.656.156.282.422.282.203 0 .406-.079.202-.093.375-.218a3 3 0 0 0 .344-.297 8 8 0 0 0 .297-.313zm10.125.563q0 .531-.344 1.047-.328.5-.844.906-.5.39-1.078.64-.578.235-1.063.235a2.76 2.76 0 0 1-1.484-.406 3.9 3.9 0 0 1-1.078-1.063 5.1 5.1 0 0 1-.672-1.406 5.6 5.6 0 0 1-.219-1.516q0-.78.219-1.672.22-.89.656-1.64.453-.75 1.125-1.25.688-.5 1.625-.5.532 0 1.016.187a2.46 2.46 0 0 1 1.422 1.282q.219.453.219 1.015a3.1 3.1 0 0 1-.313 1.375 3.6 3.6 0 0 1-.828 1.11 4.4 4.4 0 0 1-1.188.765 4 4 0 0 1-1.374.313q.062.453.359.656.312.203.734.203.313 0 .61-.156t.578-.344q.281-.203.547-.36.281-.156.562-.156.312 0 .563.203t.25.532m-2.532-3.828a.94.94 0 0 0-.109-.422.36.36 0 0 0-.344-.219.9.9 0 0 0-.578.188 1.4 1.4 0 0 0-.39.453q-.157.266-.25.578a3 3 0 0 0-.094.578q.218-.047.515-.125.313-.078.579-.203.28-.141.468-.344a.66.66 0 0 0 .203-.484M82.289 83.797q0 .28-.031.734a4.3 4.3 0 0 1-.125.89 2.1 2.1 0 0 1-.344.735q-.234.313-.656.313-.578 0-.89-.375-.314-.375-.298-.938-.5.438-1.14.688-.625.25-1.282.25-.453 0-.859-.219a2.7 2.7 0 0 1-.719-.562 2.9 2.9 0 0 1-.5-.766 2.2 2.2 0 0 1-.187-.86q0-.75.453-1.312a4.3 4.3 0 0 1 1.14-.953q.672-.406 1.422-.64.766-.235 1.36-.313v-.14a.6.6 0 0 0 .015-.141q0-.485-.265-.782-.266-.297-.75-.297-.39 0-.672.141a3.3 3.3 0 0 0-.531.297q-.25.156-.5.297a1.24 1.24 0 0 1-.563.125.87.87 0 0 1-.594-.219.74.74 0 0 1-.234-.562q0-.516.297-.938.312-.422.766-.703a4 4 0 0 1 1-.453 3.4 3.4 0 0 1 1-.172q.42 0 .843.11.422.093.797.312.375.203.672.515.312.297.5.704.282.577.453 1.234.172.64.266 1.328.093.672.125 1.36.03.671.031 1.312m-2.5-.5-.047-1.063h-.062a.14.14 0 0 0-.063-.015q-.203 0-.515.11-.297.093-.579.28a2.3 2.3 0 0 0-.484.391.7.7 0 0 0-.187.453q0 .219.156.297a.8.8 0 0 0 .36.078q.342 0 .734-.172.39-.188.687-.36m6.36-6.766q0 .844-.079 1.703a23 23 0 0 0-.062 1.704q0 1.11.062 2.218.078 1.11.078 2.235 0 .28-.03.64-.033.345-.157.64a1.2 1.2 0 0 1-.344.5q-.234.204-.625.204-.375 0-.656-.375a3.3 3.3 0 0 1-.453-.922 12 12 0 0 1-.297-1.281q-.11-.703-.172-1.36a98 98 0 0 1-.078-1.218q-.016-.562-.016-.828 0-.297.016-.86.03-.562.11-1.219.078-.656.202-1.328.141-.687.36-1.234.22-.562.515-.906.314-.36.735-.36.343 0 .515.235.188.219.266.547.078.312.094.671.015.345.015.594m7.734 6.688q0 .531-.344 1.047-.328.5-.844.906-.5.39-1.078.64-.578.235-1.062.235a2.76 2.76 0 0 1-1.485-.406 3.9 3.9 0 0 1-1.078-1.063 5.2 5.2 0 0 1-.672-1.406 5.6 5.6 0 0 1-.218-1.516q0-.78.218-1.672.219-.89.657-1.64.453-.75 1.125-1.25.687-.5 1.625-.5.53 0 1.015.187a2.45 2.45 0 0 1 1.422 1.281q.219.454.219 1.016 0 .735-.313 1.375a3.6 3.6 0 0 1-.828 1.11q-.516.468-1.187.765a4 4 0 0 1-1.375.313q.062.453.36.656.311.203.733.203.313 0 .61-.156.296-.156.578-.344.281-.203.547-.36a1.15 1.15 0 0 1 .562-.156.87.87 0 0 1 .563.204q.25.203.25.53m-2.531-3.828a.94.94 0 0 0-.11-.422.36.36 0 0 0-.344-.219.9.9 0 0 0-.578.188 1.4 1.4 0 0 0-.39.453q-.157.266-.25.578a3 3 0 0 0-.094.578q.219-.047.516-.125.312-.078.578-.203.28-.141.468-.344a.66.66 0 0 0 .204-.484m8.578.765q-.219.015-.375-.031L99.242 80a3 3 0 0 0-.281-.11.6.6 0 0 0-.313-.046q-.312.016-.562.172a2.2 2.2 0 0 0-.438.39 2.7 2.7 0 0 0-.328.531 3 3 0 0 0-.218.563 4 4 0 0 0-.079.578q-.015.375-.015.813-.016.453-.016.859t-.031.64q-.016.25-.078.594-.063.33-.203.625a1.4 1.4 0 0 1-.344.5.8.8 0 0 1-.563.204.75.75 0 0 1-.468-.157 1.4 1.4 0 0 1-.328-.406 4 4 0 0 1-.22-.61 8 8 0 0 1-.124-.703q-.047-.375-.078-.75-.015-.375-.032-.703v-.625q.016-.28.016-.453-.015-.546-.062-1.094-.032-.561-.032-1.109 0-.343.032-.766.03-.42.171-.78.141-.376.407-.626.28-.25.765-.25.266 0 .453.172.188.172.297.422.125.25.188.531.062.282.078.516.375-.609.844-.984.468-.39 1.218-.422.375-.016.735.078.375.078.672.281.312.188.5.5.203.312.218.734.031.5-.296.766a1.3 1.3 0 0 1-.797.281m4.968 6.406q-1.108 0-1.734-.296a2 2 0 0 1-.922-.813q-.297-.531-.359-1.281-.063-.75-.063-1.672 0-.735.047-1.469.046-.75.141-1.594-.22 0-.344.016h-.203a1.6 1.6 0 0 1-.859-.219q-.375-.219-.375-.671 0-.282.218-.5.204-.219.532-.376.328-.156.703-.25.39-.094.734-.124 0-.438.063-.97.062-.53.218-.984.172-.468.453-.78a.93.93 0 0 1 .719-.313q.25 0 .438.156.202.141.328.375.125.218.187.5.063.281.063.547 0 .312-.047.64-.047.33-.172.813.266-.031.359-.031.094-.016.172-.016.266 0 .547.047.297.047.531.156.25.11.407.297a.6.6 0 0 1 .156.422.67.67 0 0 1-.234.5q-.22.218-.563.375a4 4 0 0 1-.734.25 7 7 0 0 1-.735.11 20 20 0 0 0-.14 1.187q-.031.53-.078 1.078l-.063.547q-.016.266-.016.547 0 .202.016.484.016.266.109.516.095.25.297.437.203.172.563.172.219 0 .453-.031.234-.047.469-.047.406 0 .578.281.187.282.187.719a.9.9 0 0 1-.203.578 1.35 1.35 0 0 1-.484.375 2.6 2.6 0 0 1-.672.234q-.36.08-.688.079m9-2.765q0 .28-.031.734-.015.454-.125.89a2.1 2.1 0 0 1-.344.735q-.234.313-.656.313-.578 0-.89-.375-.314-.375-.297-.938-.5.438-1.141.688-.625.25-1.281.25a1.8 1.8 0 0 1-.86-.219 2.7 2.7 0 0 1-.718-.562 2.8 2.8 0 0 1-.5-.766 2.2 2.2 0 0 1-.188-.86q0-.75.453-1.312a4.3 4.3 0 0 1 1.141-.953q.672-.406 1.422-.64.765-.235 1.359-.313v-.14a.6.6 0 0 0 .016-.141q0-.485-.266-.782t-.75-.297q-.39 0-.672.141a3.3 3.3 0 0 0-.531.297q-.25.156-.5.297a1.24 1.24 0 0 1-.562.125.87.87 0 0 1-.594-.219.74.74 0 0 1-.235-.562q0-.516.297-.938.313-.422.766-.703a4 4 0 0 1 1-.453 3.4 3.4 0 0 1 1-.172q.421 0 .844.11.422.093.797.312.375.203.671.515.313.297.5.704.282.577.454 1.234.172.64.265 1.328.094.672.125 1.36.031.671.031 1.312m-2.5-.5-.046-1.063h-.063a.14.14 0 0 0-.062-.015 1.6 1.6 0 0 0-.516.11 2.3 2.3 0 0 0-.578.28 2.3 2.3 0 0 0-.485.391.7.7 0 0 0-.187.453q0 .219.156.297a.8.8 0 0 0 .36.078q.344 0 .734-.172.39-.188.687-.36m6.36-3.844q0 .25-.031.688-.032.42-.094.921a9 9 0 0 1-.188 1q-.11.5-.265.922-.156.406-.375.672-.22.25-.5.25-.344 0-.594-.328a3.5 3.5 0 0 1-.406-.86 8.5 8.5 0 0 1-.25-1.171q-.094-.64-.141-1.25a26 26 0 0 1-.062-1.14V77.64q0-.439.031-.922.047-.484.125-.953.093-.485.265-.875.172-.391.454-.625.28-.25.703-.25.375 0 .609.328.25.312.391.828.156.5.218 1.125.08.624.094 1.234.031.594.016 1.11zm-.297 5.938a.9.9 0 0 1-.125.468q-.125.188-.328.313a1.4 1.4 0 0 1-.438.203 1.8 1.8 0 0 1-.468.063q-.344 0-.657-.188-.312-.172-.312-.562 0-.235.125-.422.14-.203.344-.344t.437-.219q.25-.078.469-.078.359 0 .656.188.297.171.297.578m12.906-1.704q0 .314-.062.75a3.4 3.4 0 0 1-.203.844 2.1 2.1 0 0 1-.422.672q-.266.266-.703.266-.58 0-.875-.422a2.9 2.9 0 0 1-.407-1 8 8 0 0 1-.156-1.203q-.016-.61-.031-.969-1.125.187-2.219.328a8 8 0 0 1-.141.89 4.5 4.5 0 0 1-.312 1.032 2.7 2.7 0 0 1-.547.844q-.329.36-.812.36a.73.73 0 0 1-.594-.266 2.1 2.1 0 0 1-.313-.657 4 4 0 0 1-.14-.765q-.016-.406-.016-.672 0-.89.141-1.75.14-.876.328-1.735.094-.453.25-1.062.156-.61.375-1.25.234-.657.531-1.281.313-.642.703-1.141a3.5 3.5 0 0 1 .891-.812 2.05 2.05 0 0 1 1.109-.313q.594 0 1.031.266.438.265.766.703t.547 1q.22.547.359 1.125.156.563.25 1.11.11.546.188.968.203 1.016.344 2.062.14 1.031.14 2.079m-3.015-3.796q0-.188-.032-.61a6 6 0 0 0-.093-.86 2.7 2.7 0 0 0-.25-.765q-.157-.344-.438-.344-.156 0-.297.22a2.1 2.1 0 0 0-.25.53q-.109.313-.203.704-.078.39-.141.75-.061.36-.093.656l-.047.406q.937-.078 1.844-.234zm14.875.78q0 .798-.032 1.595-.015.796-.078 1.593-.047.688-.125 1.47-.078.78-.25 1.546a9.4 9.4 0 0 1-.453 1.484q-.28.72-.75 1.266a3.4 3.4 0 0 1-1.109.875q-.657.328-1.563.328-.422 0-.953-.14a4.2 4.2 0 0 1-.984-.376 2.9 2.9 0 0 1-.782-.624 1.25 1.25 0 0 1-.312-.844q0-.36.25-.672a.86.86 0 0 1 .672-.297q.25 0 .469.078.234.094.453.203.234.11.437.188.219.094.438.094.578 0 .968-.297.391-.282.625-.735.235-.437.344-.969a7 7 0 0 0 .172-.984q-.312.36-.734.5a3 3 0 0 1-.86.125q-.828 0-1.406-.281a2.6 2.6 0 0 1-.937-.797 3.6 3.6 0 0 1-.532-1.187 6 6 0 0 1-.172-1.454q0-.483.094-1.093a9.3 9.3 0 0 1 .813-2.454q.313-.593.718-1.046.406-.454.907-.735a2.3 2.3 0 0 1 1.125-.281q.593 0 1.047.344.468.344.546.969.172-.33.454-.641a.87.87 0 0 1 .687-.328q.22 0 .359.219.157.218.235.578.093.344.14.765.048.407.063.813.016.39.016.719zm-2.375 1.016q0-.234-.079-.609a3.3 3.3 0 0 0-.203-.719 2 2 0 0 0-.328-.593q-.203-.25-.484-.25a.94.94 0 0 0-.641.25 2.3 2.3 0 0 0-.453.609q-.187.345-.297.75-.094.39-.094.672 0 .203.032.547.031.343.125.672.109.328.281.562a.54.54 0 0 0 .453.234q.422 0 .734-.203.314-.203.516-.515.219-.313.328-.688t.11-.719m10.031 1.532q0 .531-.344 1.047-.328.5-.844.906a5 5 0 0 1-1.078.64q-.577.235-1.062.235a2.77 2.77 0 0 1-1.485-.406 3.9 3.9 0 0 1-1.078-1.063 5.2 5.2 0 0 1-.672-1.406 5.6 5.6 0 0 1-.218-1.516q0-.78.218-1.672a6.1 6.1 0 0 1 .657-1.64q.453-.75 1.125-1.25.687-.5 1.625-.5.53 0 1.015.187a2.46 2.46 0 0 1 1.422 1.281q.219.454.219 1.016 0 .735-.313 1.375a3.6 3.6 0 0 1-.828 1.11 4.4 4.4 0 0 1-1.187.765 4 4 0 0 1-1.375.313q.062.453.359.656.312.203.734.203.313 0 .61-.156.296-.156.578-.344.281-.203.547-.36.281-.155.562-.156a.87.87 0 0 1 .563.204q.25.203.25.53m-2.531-3.828a.94.94 0 0 0-.11-.422.36.36 0 0 0-.344-.219.9.9 0 0 0-.578.188 1.4 1.4 0 0 0-.39.453q-.156.266-.25.578a3 3 0 0 0-.094.578q.219-.047.516-.125.312-.078.578-.203.28-.141.468-.344a.66.66 0 0 0 .204-.484m7.593 7.046q-.265 0-.422-.25a1.7 1.7 0 0 1-.234-.546 4.4 4.4 0 0 1-.109-.625 11 11 0 0 1-.016-.5q0-.469.047-.938l.125-.937q.078-.469.125-.938a7 7 0 0 0 .062-.937q0-.187-.015-.407a1.7 1.7 0 0 0-.078-.406.67.67 0 0 0-.172-.328.45.45 0 0 0-.328-.125q-.14 0-.313.234a3.4 3.4 0 0 0-.328.516q-.14.281-.25.578a1.5 1.5 0 0 0-.094.422v.703q.016.345.016.703v.906q-.015.281-.047.579-.031.296-.094.578-.047.281-.14.547a1.8 1.8 0 0 1-.25.453q-.141.188-.344.312a.9.9 0 0 1-.484.125.7.7 0 0 1-.516-.203 1.5 1.5 0 0 1-.328-.516 3.6 3.6 0 0 1-.188-.718q-.046-.406-.078-.781-.015-.39-.015-.704.015-.327.015-.515v-.735q0-.593-.031-1.171-.016-.578-.016-1.157v-.797q.016-.484.125-.937.11-.469.36-.797t.734-.328q.219 0 .391.14.171.141.297.344.14.203.218.438.095.234.141.406.156-.22.359-.422.22-.203.485-.36a2.54 2.54 0 0 1 1.343-.343q.798 0 1.235.39.453.375.656.954.219.562.266 1.219.047.656.047 1.187 0 .266-.047.797-.048.516-.157 1.156-.094.626-.265 1.297-.172.656-.406 1.203a3 3 0 0 1-.563.89q-.312.345-.719.344m6.672.126q-1.11 0-1.734-.297a2 2 0 0 1-.922-.813q-.297-.531-.359-1.281-.063-.75-.063-1.672 0-.735.047-1.469.047-.75.141-1.594-.22 0-.344.016h-.203q-.5 0-.86-.219-.375-.219-.375-.671 0-.282.219-.5.203-.219.531-.376.328-.156.703-.25.391-.094.735-.124 0-.438.062-.97.063-.53.219-.984.173-.468.453-.78a.93.93 0 0 1 .719-.313.66.66 0 0 1 .437.156q.203.141.329.375a1.8 1.8 0 0 1 .187.5q.063.281.063.547 0 .312-.047.64-.048.33-.172.813.266-.031.359-.031.094-.016.172-.016.265 0 .547.047.297.047.531.156.25.11.406.297a.6.6 0 0 1 .157.422.67.67 0 0 1-.235.5q-.219.218-.562.375a4 4 0 0 1-.735.25q-.39.078-.734.11-.093.64-.141 1.187-.03.53-.078 1.078l-.062.547a9 9 0 0 0 0 1.031q.015.266.109.516.095.25.297.437.203.172.563.172.218 0 .453-.031.234-.047.468-.047.406 0 .579.281.187.282.187.719a.9.9 0 0 1-.203.578 1.35 1.35 0 0 1-.484.375 2.6 2.6 0 0 1-.672.234q-.36.08-.688.079m8.906-3.344q0 .531-.343 1.047-.328.5-.844.906-.5.39-1.078.64-.579.235-1.063.235a2.76 2.76 0 0 1-1.484-.406 3.9 3.9 0 0 1-1.078-1.063 5.1 5.1 0 0 1-.672-1.406 5.6 5.6 0 0 1-.219-1.516q0-.78.219-1.672.22-.89.656-1.64.453-.75 1.125-1.25.688-.5 1.625-.5.531 0 1.016.187a2.46 2.46 0 0 1 1.422 1.281q.218.454.218 1.016 0 .735-.312 1.375a3.6 3.6 0 0 1-.828 1.11 4.4 4.4 0 0 1-1.188.765 4 4 0 0 1-1.375.313q.063.453.36.656.312.203.734.203.313 0 .609-.156.297-.156.579-.344.28-.203.546-.36.281-.155.563-.156.313 0 .562.204a.65.65 0 0 1 .25.53m-2.531-3.828a.94.94 0 0 0-.109-.422.36.36 0 0 0-.344-.219.9.9 0 0 0-.578.188 1.4 1.4 0 0 0-.391.453q-.156.266-.25.578a3 3 0 0 0-.093.578q.218-.047.515-.125a3 3 0 0 0 .578-.203q.282-.141.469-.344a.66.66 0 0 0 .203-.484m14.078 1.953q0 .687-.156 1.515a5.3 5.3 0 0 1-.5 1.516q-.343.704-.922 1.172-.562.468-1.422.469-.219 0-.453-.032a2.2 2.2 0 0 1-.453-.109 1.7 1.7 0 0 1-.375-.203.9.9 0 0 1-.266-.36l-.14 2.25q-.016.36-.031.86 0 .499-.125.953a1.7 1.7 0 0 1-.391.766q-.266.327-.781.328-.297 0-.5-.313a2.5 2.5 0 0 1-.328-.765 9 9 0 0 1-.172-1.047 14 14 0 0 1-.078-1.11 31 31 0 0 1-.016-.968v-.641q0-1.047-.016-2.078-.015-1.047-.015-2.094v-.578q0-.405.031-.875.031-.468.094-.969.078-.5.218-.906.141-.422.36-.672a.67.67 0 0 1 .531-.266q.203 0 .359.126a.86.86 0 0 1 .282.296q.125.172.203.375t.125.375a3.3 3.3 0 0 1 1.109-.828q.64-.28 1.36-.281.75 0 1.218.422.484.422.75 1.047.282.624.391 1.344.11.702.109 1.28m-2.234-.125q0-.234-.047-.469a1.3 1.3 0 0 0-.141-.453.76.76 0 0 0-.281-.344.76.76 0 0 0-.469-.14q-.375 0-.796.25a1.75 1.75 0 0 0-.61.546q-.078.126-.094.407-.015.281-.015.421v.297l.031.36.031.36q.031.17.078.265a.6.6 0 0 0 .204.265q.156.11.343.204t.375.14q.204.047.344.047a.65.65 0 0 0 .531-.25q.204-.25.313-.594.124-.343.156-.703.047-.375.047-.61m6.156 5.234q-.797 0-1.39-.422a3.7 3.7 0 0 1-1-1.078 5.2 5.2 0 0 1-.61-1.453 6.6 6.6 0 0 1-.203-1.594q0-.828.203-1.703.204-.89.625-1.61.422-.734 1.078-1.187.657-.469 1.563-.469.875 0 1.484.485.625.468 1 1.187.375.704.531 1.547.157.844.11 1.594a8.6 8.6 0 0 1-.266 1.672 5.3 5.3 0 0 1-.609 1.516 3.5 3.5 0 0 1-1.031 1.093q-.625.422-1.485.422m.156-7.062q-.234 0-.421.25-.172.25-.297.609-.11.36-.172.766-.063.39-.063.687 0 .375.063.813.078.437.203.812.124.36.297.61.187.234.422.234.25 0 .422-.234.188-.236.296-.594.11-.36.157-.781a8 8 0 0 0 .047-.813q0-.345-.063-.75a4.3 4.3 0 0 0-.187-.781 1.8 1.8 0 0 0-.297-.594q-.172-.234-.407-.234m10.766-3.672q0 1.14-.094 2.265-.078 1.126-.078 2.266 0 .922.047 1.828.063.906.063 1.828 0 .25-.016.61-.015.344-.109.671a1.3 1.3 0 0 1-.282.563q-.187.234-.547.234-.468 0-.781-.343a1.7 1.7 0 0 1-.375-.797 2.7 2.7 0 0 1-.859.953q-.562.39-1.219.39-.703 0-1.219-.484a4.3 4.3 0 0 1-.843-1.172 7 7 0 0 1-.5-1.437 6.4 6.4 0 0 1-.157-1.297 10 10 0 0 1 .203-1.906 8 8 0 0 1 .313-1q.187-.5.469-.891.297-.39.687-.625.406-.234.922-.234.562 0 1.078.328.516.329.781.812l.141-2.484q.015-.297.047-.688a4.3 4.3 0 0 1 .125-.765q.11-.36.328-.61t.641-.25q.453 0 .703.22.25.218.359.562.125.328.141.718.031.39.031.735m-2.547 6.937q0-.36-.015-.703a8 8 0 0 1 0-.703 9 9 0 0 0-.219-.437 2 2 0 0 0-.313-.454 1.6 1.6 0 0 0-.39-.359.85.85 0 0 0-.469-.14.6.6 0 0 0-.453.171 1 1 0 0 0-.25.422 2.5 2.5 0 0 0-.11.516q-.015.281-.015.484a7.3 7.3 0 0 0 .14 1.297q.094.375.25.656.157.281.422.281.203 0 .407-.078.203-.093.375-.218.187-.141.343-.297.173-.172.297-.313zm10.125.563q0 .531-.344 1.047-.328.5-.843.906-.5.39-1.078.64-.579.235-1.063.235a2.76 2.76 0 0 1-1.484-.406 3.9 3.9 0 0 1-1.078-1.063 5.1 5.1 0 0 1-.672-1.406 5.6 5.6 0 0 1-.219-1.516q0-.78.219-1.672.219-.89.656-1.64.453-.75 1.125-1.25.687-.5 1.625-.5.531 0 1.016.187a2.45 2.45 0 0 1 1.421 1.281q.219.454.219 1.016 0 .735-.312 1.375a3.7 3.7 0 0 1-.828 1.11 4.4 4.4 0 0 1-1.188.765 4 4 0 0 1-1.375.313q.063.453.359.656.314.203.735.203.312 0 .609-.156a6 6 0 0 0 .578-.344q.282-.203.547-.36.282-.155.563-.156.312 0 .562.204a.65.65 0 0 1 .25.53m-2.531-3.828a.95.95 0 0 0-.109-.422.36.36 0 0 0-.344-.219.9.9 0 0 0-.578.188 1.4 1.4 0 0 0-.391.453q-.156.266-.25.578a3 3 0 0 0-.094.578q.219-.047.516-.125.312-.078.578-.203.282-.141.469-.344a.66.66 0 0 0 .203-.484m11.5-1.985q0 .453-.313.672a6 6 0 0 1-.671.422q-.375.188-.688.453-.297.266-.297.797a.9.9 0 0 0 .125.484q.14.203.328.375.204.157.438.329.234.171.422.39.202.219.328.531.14.313.14.766 0 .657-.343 1.297a4.3 4.3 0 0 1-.86 1.125 4.3 4.3 0 0 1-1.172.781 3.1 3.1 0 0 1-1.296.297q-.267 0-.532-.047a1.5 1.5 0 0 1-.484-.14 1.05 1.05 0 0 1-.344-.297.9.9 0 0 1-.14-.516q0-.438.171-.672.172-.25.438-.39t.562-.22q.313-.077.579-.187.265-.124.437-.312.172-.187.172-.531 0-.33-.266-.672a14 14 0 0 0-.562-.75 8 8 0 0 1-.578-.86 2.03 2.03 0 0 1-.25-1q0-.672.265-1.234.282-.578.735-1a3.5 3.5 0 0 1 1.062-.656q.594-.25 1.25-.25.25 0 .485.046.25.048.437.172a.8.8 0 0 1 .297.313.86.86 0 0 1 .125.484m7.172 5.813q0 .531-.344 1.047-.328.5-.844.906a5 5 0 0 1-1.078.64q-.577.235-1.062.235a2.77 2.77 0 0 1-1.485-.406 3.9 3.9 0 0 1-1.078-1.063 5.2 5.2 0 0 1-.672-1.406 5.6 5.6 0 0 1-.218-1.516q0-.78.218-1.672a6.1 6.1 0 0 1 .657-1.64q.453-.75 1.125-1.25.687-.5 1.625-.5.53 0 1.015.187a2.46 2.46 0 0 1 1.422 1.281q.219.454.219 1.016 0 .735-.313 1.375a3.6 3.6 0 0 1-.828 1.11 4.4 4.4 0 0 1-1.187.765 4 4 0 0 1-1.375.313q.062.453.359.656.312.203.734.203.313 0 .61-.156.296-.156.578-.344.281-.203.547-.36.281-.155.562-.156a.87.87 0 0 1 .563.204q.25.203.25.53m-2.531-3.828a.94.94 0 0 0-.11-.422.36.36 0 0 0-.344-.219.9.9 0 0 0-.578.188 1.4 1.4 0 0 0-.39.453q-.156.266-.25.578a3 3 0 0 0-.094.578q.219-.047.516-.125.312-.078.578-.203.28-.141.468-.344a.66.66 0 0 0 .204-.484m7.593 7.046q-.265 0-.422-.25a1.7 1.7 0 0 1-.234-.546 4.4 4.4 0 0 1-.109-.625 11 11 0 0 1-.016-.5q0-.469.047-.938l.125-.937q.078-.469.125-.938a7 7 0 0 0 .062-.937q0-.187-.015-.407a1.7 1.7 0 0 0-.078-.406.67.67 0 0 0-.172-.328.45.45 0 0 0-.328-.125q-.14 0-.313.234a3.4 3.4 0 0 0-.328.516q-.14.281-.25.578a1.5 1.5 0 0 0-.094.422v.703q.016.345.016.703v.906q-.015.281-.047.579-.031.296-.094.578-.047.281-.14.547a1.8 1.8 0 0 1-.25.453q-.141.188-.344.312a.9.9 0 0 1-.484.125.7.7 0 0 1-.516-.203 1.5 1.5 0 0 1-.328-.516 3.6 3.6 0 0 1-.188-.718q-.046-.406-.078-.781-.015-.39-.015-.704.015-.327.015-.515v-.735q0-.593-.031-1.171-.016-.578-.016-1.157v-.797q.016-.484.125-.937.11-.469.36-.797t.734-.328q.219 0 .391.14.171.141.297.344.14.203.218.438.094.234.141.406.156-.22.359-.422.22-.203.485-.36a2.54 2.54 0 0 1 1.343-.343q.797 0 1.235.39.453.375.656.954.219.562.266 1.219.047.656.047 1.187 0 .266-.047.797-.048.516-.157 1.156-.094.626-.265 1.297-.172.656-.406 1.203a3 3 0 0 1-.563.89q-.312.345-.719.344m6.672.126q-1.11 0-1.734-.297a2 2 0 0 1-.922-.813q-.297-.531-.359-1.281-.063-.75-.063-1.672 0-.735.047-1.469.047-.75.141-1.594-.22 0-.344.016h-.203q-.5 0-.86-.219-.375-.219-.375-.671 0-.282.219-.5.203-.219.531-.376.328-.156.703-.25.391-.094.735-.124 0-.438.062-.97.063-.53.219-.984.173-.468.453-.78a.93.93 0 0 1 .719-.313.66.66 0 0 1 .437.156q.203.141.329.375a1.8 1.8 0 0 1 .187.5q.063.281.063.547 0 .312-.047.64-.048.33-.172.813.266-.031.359-.031.094-.016.172-.016.265 0 .547.047.297.047.531.156.25.11.406.297a.6.6 0 0 1 .157.422.67.67 0 0 1-.235.5q-.219.218-.562.375a4 4 0 0 1-.735.25q-.39.078-.734.11-.093.64-.141 1.187-.03.53-.078 1.078l-.062.547a9 9 0 0 0 0 1.031q.015.266.109.516.095.25.297.437.203.172.563.172.218 0 .453-.031.234-.047.468-.047.406 0 .579.281.187.282.187.719a.9.9 0 0 1-.203.578 1.35 1.35 0 0 1-.484.375 2.6 2.6 0 0 1-.672.234q-.36.08-.688.079m4.938-11.47a.65.65 0 0 1-.125.391 1.2 1.2 0 0 1-.297.313 2 2 0 0 1-.406.203 1.5 1.5 0 0 1-.407.063.97.97 0 0 1-.547-.157q-.234-.156-.234-.484 0-.234.109-.406.126-.187.297-.297.172-.126.391-.188.218-.062.422-.062.297 0 .547.14t.25.485m.125 5.313v.469q0 .234-.016.453-.016.266-.016.719 0 .438-.031.953-.031.516-.109 1.047a4.4 4.4 0 0 1-.219.969 2 2 0 0 1-.422.718.9.9 0 0 1-.64.282.58.58 0 0 1-.5-.235 2.2 2.2 0 0 1-.344-.64 5.3 5.3 0 0 1-.188-.891 17 17 0 0 1-.093-.953 13 13 0 0 1-.032-.86v-1.281q0-.469.032-1 .03-.53.109-1.078.094-.547.25-1 .172-.453.437-.734a.9.9 0 0 1 .672-.281q.423 0 .641.421.219.423.328.985t.125 1.125q.016.546.016.812m6.531-.25q-.219.015-.375-.031l-.313-.125a3 3 0 0 0-.281-.11.6.6 0 0 0-.312-.046q-.313.016-.563.172a2.2 2.2 0 0 0-.437.39 2.7 2.7 0 0 0-.328.531 3 3 0 0 0-.219.563 4 4 0 0 0-.078.578q-.016.375-.016.813-.016.453-.016.859t-.031.64q-.015.25-.078.594a2.6 2.6 0 0 1-.203.625 1.4 1.4 0 0 1-.344.5.8.8 0 0 1-.562.204.75.75 0 0 1-.469-.157 1.4 1.4 0 0 1-.328-.406 4 4 0 0 1-.219-.61 8 8 0 0 1-.125-.703q-.047-.375-.078-.75-.015-.375-.031-.703v-.625q.015-.28.015-.453-.015-.546-.062-1.094a20 20 0 0 1-.031-1.109q0-.343.031-.766.031-.42.172-.78a1.6 1.6 0 0 1 .406-.626q.281-.25.766-.25.266 0 .453.172.188.172.297.422.124.25.187.531t.078.516q.375-.609.844-.984.469-.39 1.219-.422.375-.016.734.078.375.078.672.281.312.188.5.5.202.312.219.734.031.5-.297.766a1.3 1.3 0 0 1-.797.281m-191.117 27.41q-1.11 0-1.735-.296a2 2 0 0 1-.922-.813q-.296-.531-.359-1.281-.062-.75-.062-1.672 0-.734.047-1.469.046-.75.14-1.593-.218 0-.344.015h-.203a1.6 1.6 0 0 1-.86-.219q-.374-.218-.374-.671 0-.282.219-.5.203-.219.53-.376.33-.156.704-.25.39-.094.734-.124 0-.438.063-.97.062-.53.219-.984.171-.468.453-.78a.92.92 0 0 1 .718-.313q.25 0 .438.156.203.141.328.375.125.218.188.5.062.281.062.547 0 .312-.047.64a8 8 0 0 1-.172.813q.265-.031.36-.031.093-.016.172-.016.265 0 .547.047.296.046.53.156.25.11.407.297a.6.6 0 0 1 .156.422.67.67 0 0 1-.234.5q-.218.218-.563.375-.344.156-.734.25a7 7 0 0 1-.734.109q-.095.64-.141 1.188-.03.53-.078 1.078l-.063.547a9 9 0 0 0 0 1.031q.015.266.11.516.093.25.297.437.203.172.562.172.219 0 .453-.031a2.3 2.3 0 0 1 .469-.047q.406 0 .578.281.188.282.188.719a.9.9 0 0 1-.203.578 1.35 1.35 0 0 1-.485.375 2.6 2.6 0 0 1-.672.234q-.36.078-.687.078m7.781-6.406q-.218.016-.375-.031l-.312-.125a3 3 0 0 0-.282-.109.6.6 0 0 0-.312-.047q-.313.015-.563.172a2.2 2.2 0 0 0-.437.39 2.7 2.7 0 0 0-.328.532 3 3 0 0 0-.22.562 4 4 0 0 0-.077.578q-.015.375-.016.813a25 25 0 0 0-.016.859q0 .406-.03.641-.016.25-.079.593-.063.328-.203.625a1.4 1.4 0 0 1-.344.5.8.8 0 0 1-.562.203.75.75 0 0 1-.469-.156 1.4 1.4 0 0 1-.328-.406 4 4 0 0 1-.219-.609 8 8 0 0 1-.125-.703q-.047-.375-.078-.75-.015-.375-.031-.704v-.625a9 9 0 0 0 .015-.453q-.014-.546-.062-1.094-.031-.561-.031-1.109 0-.343.03-.766.033-.42.173-.78.14-.376.406-.626.282-.25.766-.25.265 0 .453.172t.297.422q.124.25.187.531t.078.516q.375-.609.844-.984.47-.39 1.219-.422.375-.016.734.078.375.078.672.281.312.188.5.5.203.312.219.734.03.5-.297.766a1.3 1.3 0 0 1-.797.281m7.875 3.063q0 .531-.344 1.047-.328.5-.844.906-.5.39-1.078.64-.578.235-1.062.235a2.77 2.77 0 0 1-1.484-.406 3.9 3.9 0 0 1-1.079-1.063 5.2 5.2 0 0 1-.672-1.406 5.6 5.6 0 0 1-.218-1.516q0-.781.218-1.672a6.2 6.2 0 0 1 .657-1.64q.453-.75 1.125-1.25.687-.5 1.625-.5.531 0 1.015.187a2.45 2.45 0 0 1 1.422 1.281q.219.454.219 1.016 0 .735-.312 1.375a3.6 3.6 0 0 1-.829 1.109q-.515.47-1.187.766a4 4 0 0 1-1.375.313q.061.453.36.656.311.203.734.203.312 0 .609-.156a7 7 0 0 0 .578-.344q.282-.203.547-.359.282-.157.563-.157.312 0 .562.204a.65.65 0 0 1 .25.531m-2.531-3.828a.94.94 0 0 0-.11-.422.36.36 0 0 0-.343-.219.9.9 0 0 0-.579.188 1.4 1.4 0 0 0-.39.453 2.6 2.6 0 0 0-.25.578 3 3 0 0 0-.094.578q.219-.047.516-.125.311-.078.578-.203a1.6 1.6 0 0 0 .469-.344.66.66 0 0 0 .203-.484m12.64 1.453v.812q0 .5-.03 1.094-.016.594-.095 1.203a5.3 5.3 0 0 1-.25 1.078q-.156.485-.406.797a.79.79 0 0 1-.64.313.6.6 0 0 1-.532-.282 2.2 2.2 0 0 1-.25-.687 5 5 0 0 1-.094-.797v-.641q0-.703.047-1.375t.047-1.375v-.281q0-.203-.031-.406a1.2 1.2 0 0 0-.11-.359q-.062-.157-.203-.157-.28 0-.453.297a2.7 2.7 0 0 0-.28.672q-.11.39-.157.781-.047.375-.063.563-.03.203-.062.609-.015.406-.063.891-.03.484-.125 1-.078.5-.218.922-.126.405-.329.672-.203.265-.5.265a.64.64 0 0 1-.578-.328 2.4 2.4 0 0 1-.296-.766 6 6 0 0 1-.126-.89q-.015-.454-.015-.703v-.516q.016-.25.016-.516v-.359q0-.25-.016-.547 0-.312-.031-.64a5 5 0 0 0-.063-.594 1.4 1.4 0 0 0-.14-.453q-.094-.172-.22-.172-.203 0-.374.265-.172.25-.297.61a6 6 0 0 0-.203.687 3 3 0 0 0-.063.5v.094q0 .75.094 1.469.094.718.094 1.468 0 .438-.281.813-.282.36-.782.359a.76.76 0 0 1-.594-.265 2.4 2.4 0 0 1-.39-.719 6 6 0 0 1-.25-.953 12 12 0 0 1-.11-1.031q-.03-.516-.046-.922v-.625q0-.235-.016-.688 0-.453.016-.984.03-.531.093-1.078.063-.563.204-1.016t.359-.734a.73.73 0 0 1 .594-.297q.406 0 .656.219.266.218.266.656 0 .093-.016.187a1 1 0 0 1-.016.172q.172-.25.422-.5a3.7 3.7 0 0 1 .531-.469q.297-.218.625-.343.33-.14.657-.14a.97.97 0 0 1 .562.171q.25.172.438.438.188.25.312.546.125.297.172.563.157-.282.375-.563.234-.297.5-.515t.578-.36a1.7 1.7 0 0 1 .672-.14q.328 0 .563.234t.406.61q.171.36.265.828.094.453.157.906.061.438.078.828.015.375.015.594m7.579 2.375q0 .531-.344 1.047-.328.5-.844.906-.5.39-1.078.64-.578.235-1.063.235a2.77 2.77 0 0 1-1.484-.406 3.9 3.9 0 0 1-1.078-1.063 5.2 5.2 0 0 1-.672-1.406 5.6 5.6 0 0 1-.219-1.516q0-.781.219-1.672.22-.89.656-1.64.453-.75 1.125-1.25.688-.5 1.625-.5.531 0 1.016.187a2.45 2.45 0 0 1 1.422 1.281q.219.454.219 1.016 0 .735-.313 1.375a3.6 3.6 0 0 1-.828 1.109q-.516.47-1.188.766a4 4 0 0 1-1.375.313q.063.453.36.656.312.203.734.203.313 0 .61-.156a7 7 0 0 0 .578-.344q.281-.203.546-.359.282-.157.563-.157.312 0 .563.204a.65.65 0 0 1 .25.531m-2.532-3.828a.94.94 0 0 0-.11-.422.36.36 0 0 0-.343-.219.9.9 0 0 0-.578.188 1.4 1.4 0 0 0-.39.453 2.6 2.6 0 0 0-.25.578 3 3 0 0 0-.094.578q.218-.047.515-.125.313-.078.578-.203a1.6 1.6 0 0 0 .47-.344.66.66 0 0 0 .202-.484m9.89-3.672q0 1.14-.093 2.265-.078 1.125-.078 2.266 0 .922.047 1.828.062.906.062 1.828 0 .25-.015.61a3 3 0 0 1-.11.672 1.3 1.3 0 0 1-.28.562q-.189.234-.548.234-.469 0-.781-.343a1.7 1.7 0 0 1-.375-.797 2.7 2.7 0 0 1-.86.953q-.561.39-1.218.391-.703 0-1.219-.485a4.3 4.3 0 0 1-.844-1.172 7 7 0 0 1-.5-1.437 6.5 6.5 0 0 1-.156-1.297 9.7 9.7 0 0 1 .203-1.906q.126-.516.313-1 .187-.5.469-.891.296-.39.687-.625.406-.234.922-.234.562 0 1.078.328.516.329.781.812l.14-2.484q.016-.297.048-.688.03-.406.125-.765.11-.36.328-.61.22-.25.64-.25.454 0 .704.22.25.218.359.562.125.327.14.718.033.39.032.735M91 103.656q0-.359-.016-.703a8 8 0 0 1 0-.703 9 9 0 0 0-.218-.438 2 2 0 0 0-.313-.453 1.6 1.6 0 0 0-.39-.359.85.85 0 0 0-.47-.141.62.62 0 0 0-.452.172 1 1 0 0 0-.25.422 2.5 2.5 0 0 0-.11.516q-.015.281-.015.484 0 .188.03.563.033.359.11.734.094.375.25.656t.422.282q.203 0 .406-.079.203-.093.375-.218.188-.141.344-.297.172-.172.297-.313zm10.125.563q0 .531-.344 1.047-.328.5-.844.906-.5.39-1.078.64-.578.235-1.062.235a2.77 2.77 0 0 1-1.484-.406 3.9 3.9 0 0 1-1.079-1.063 5.2 5.2 0 0 1-.671-1.406 5.6 5.6 0 0 1-.22-1.516q0-.781.22-1.672a6.2 6.2 0 0 1 .656-1.64q.453-.75 1.125-1.25.687-.5 1.625-.5.532 0 1.015.187a2.45 2.45 0 0 1 1.422 1.281q.219.454.219 1.016 0 .735-.313 1.375a3.6 3.6 0 0 1-.828 1.109q-.515.47-1.187.766a4 4 0 0 1-1.375.313q.061.453.36.656.311.203.734.203.312 0 .609-.156a7 7 0 0 0 .578-.344q.282-.203.547-.359.282-.157.562-.157.313 0 .563.204a.65.65 0 0 1 .25.531m-2.531-3.828a.94.94 0 0 0-.11-.422.36.36 0 0 0-.343-.219.9.9 0 0 0-.579.188 1.4 1.4 0 0 0-.39.453 2.6 2.6 0 0 0-.25.578 3 3 0 0 0-.094.578q.219-.047.516-.125.311-.078.578-.203a1.6 1.6 0 0 0 .469-.344.66.66 0 0 0 .203-.484m5.734-4.297a.65.65 0 0 1-.125.39 1.2 1.2 0 0 1-.297.313q-.187.124-.406.203a1.5 1.5 0 0 1-.406.063.96.96 0 0 1-.547-.157q-.234-.156-.235-.484a.74.74 0 0 1 .11-.406 1 1 0 0 1 .297-.297q.172-.126.39-.188a1.5 1.5 0 0 1 .422-.062q.297 0 .547.14t.25.485m.125 5.312v.469q0 .234-.015.453-.016.266-.016.719 0 .438-.031.953-.032.516-.11 1.047a4.3 4.3 0 0 1-.219.969 2 2 0 0 1-.421.718.9.9 0 0 1-.641.282.58.58 0 0 1-.5-.235 2.2 2.2 0 0 1-.344-.64 5.3 5.3 0 0 1-.187-.891 17 17 0 0 1-.094-.953 13 13 0 0 1-.031-.859v-1.282q0-.468.031-1 .031-.53.109-1.078a6.5 6.5 0 0 1 .25-1 2.2 2.2 0 0 1 .438-.734.88.88 0 0 1 .672-.281q.422 0 .64.421.22.423.328.985.11.563.126 1.125.015.546.015.812m6.531-.25q-.217.016-.375-.031l-.312-.125a3 3 0 0 0-.281-.109.6.6 0 0 0-.313-.047q-.312.015-.562.172a2.2 2.2 0 0 0-.438.39 2.7 2.7 0 0 0-.328.532 3 3 0 0 0-.219.562 4 4 0 0 0-.078.578q-.016.375-.016.813-.015.453-.015.859t-.031.641a6 6 0 0 1-.078.593q-.063.328-.204.625a1.4 1.4 0 0 1-.343.5.8.8 0 0 1-.563.203.75.75 0 0 1-.469-.156 1.4 1.4 0 0 1-.328-.406 4 4 0 0 1-.219-.609 8 8 0 0 1-.124-.703q-.048-.375-.079-.75-.015-.375-.031-.704v-.625q.016-.28.016-.453a20 20 0 0 0-.063-1.094 20 20 0 0 1-.031-1.109q0-.343.031-.766.031-.42.172-.78a1.6 1.6 0 0 1 .406-.626q.282-.25.766-.25.266 0 .453.172.188.172.297.422.125.25.187.531.063.282.079.516.375-.609.843-.984.47-.39 1.219-.422.375-.016.735.078.374.078.671.281.313.188.5.5.204.312.219.734.031.5-.297.766a1.3 1.3 0 0 1-.797.281m7.969 3.641q0 .28-.031.734a4.3 4.3 0 0 1-.125.891 2.1 2.1 0 0 1-.344.734q-.234.313-.656.313-.578 0-.891-.375-.312-.375-.297-.938a3.8 3.8 0 0 1-1.14.688q-.626.25-1.281.25-.454 0-.86-.219a2.7 2.7 0 0 1-.719-.563 2.9 2.9 0 0 1-.5-.765 2.2 2.2 0 0 1-.187-.859q0-.75.453-1.313a4.3 4.3 0 0 1 1.141-.953 6.5 6.5 0 0 1 1.422-.641q.765-.234 1.359-.312v-.141a.6.6 0 0 0 .015-.14q0-.485-.265-.782-.266-.297-.75-.297-.392 0-.672.141a3 3 0 0 0-.531.297q-.25.156-.5.297a1.25 1.25 0 0 1-.563.125.87.87 0 0 1-.593-.219.73.73 0 0 1-.235-.562q0-.516.297-.938.313-.422.766-.703a4 4 0 0 1 1-.453 3.4 3.4 0 0 1 1-.172q.421 0 .843.11.422.093.797.312.375.203.672.515.312.297.5.704.282.577.453 1.234.172.64.266 1.328.093.672.125 1.359.031.672.031 1.313m-2.5-.5-.047-1.063h-.062a.14.14 0 0 0-.063-.015q-.203 0-.515.109a2.3 2.3 0 0 0-.578.281 2.3 2.3 0 0 0-.485.391.7.7 0 0 0-.187.453q0 .219.156.297a.8.8 0 0 0 .359.078q.344 0 .735-.172.39-.188.687-.359m5.688 1.875q0 .25-.141.64a4.5 4.5 0 0 1-.328.766 2.7 2.7 0 0 1-.438.641q-.25.265-.484.265-.312 0-.312-.312 0-.188.078-.36t.172-.343q.093-.156.171-.328a.7.7 0 0 0 .079-.313.9.9 0 0 1-.5.156.79.79 0 0 1-.61-.281.92.92 0 0 1-.25-.625q0-.5.328-.797.328-.312.828-.312.563 0 .985.297t.422.906m8.968-7.766q0 .453-.312.672a6 6 0 0 1-.672.422q-.375.188-.687.453-.297.266-.297.797 0 .282.125.484.14.204.328.375.203.157.437.329.235.171.422.39.204.219.328.531.141.313.141.766 0 .656-.344 1.297a4.28 4.28 0 0 1-2.031 1.906 3.1 3.1 0 0 1-1.297.297q-.266 0-.531-.047a1.5 1.5 0 0 1-.485-.14 1.04 1.04 0 0 1-.343-.297.9.9 0 0 1-.141-.516q0-.438.172-.672.171-.25.437-.391a2.7 2.7 0 0 1 .563-.218q.312-.078.578-.188.266-.124.438-.312.171-.187.171-.532 0-.327-.265-.671-.25-.36-.563-.75a8 8 0 0 1-.578-.86 2.03 2.03 0 0 1-.25-1q0-.672.266-1.234.28-.578.734-1 .47-.422 1.063-.656.593-.25 1.25-.25.25 0 .484.046.25.048.438.172a.8.8 0 0 1 .296.313.85.85 0 0 1 .125.484m7.469 4.125q0 .86-.172 1.703a4.7 4.7 0 0 1-.578 1.516 3.1 3.1 0 0 1-1.094 1.062q-.672.407-1.687.407-1 0-1.672-.391a3.2 3.2 0 0 1-1.078-1.062 4.8 4.8 0 0 1-.563-1.485 9 9 0 0 1-.156-1.687q0-.937.219-1.86.046-.249.172-.687.14-.453.343-.875.22-.438.485-.75.281-.313.609-.313.313 0 .5.172.188.172.297.438.11.25.141.547.031.28.031.515 0 .36-.063.703-.046.345-.109.688l-.125.937a9.5 9.5 0 0 0-.031 1.469q.031.282.125.547.093.266.266.453.172.172.484.172.406 0 .64-.219.25-.219.36-.547.124-.328.156-.703.031-.375.031-.687 0-.688-.093-1.344-.094-.672-.172-1.36a1.5 1.5 0 0 1 .062-.687q.078-.234.219-.422.14-.187.344-.297a.84.84 0 0 1 .453-.125q.344 0 .609.25.266.235.438.625.188.375.297.86.124.468.187.937.078.453.094.86.031.405.031.64m3.922 4.922q-.797 0-1.391-.422a3.7 3.7 0 0 1-1-1.078 5.2 5.2 0 0 1-.609-1.453 6.6 6.6 0 0 1-.203-1.594q0-.828.203-1.703.203-.89.625-1.61.422-.734 1.078-1.187.656-.469 1.563-.469.875 0 1.484.485.625.468 1 1.187.375.704.531 1.547.156.844.11 1.594a8.6 8.6 0 0 1-.266 1.672 5.3 5.3 0 0 1-.609 1.516 3.5 3.5 0 0 1-1.032 1.093q-.624.422-1.484.422m.156-7.062q-.234 0-.422.25a2.5 2.5 0 0 0-.296.609q-.11.36-.172.766-.063.39-.063.687 0 .375.063.813a6 6 0 0 0 .203.812q.125.36.297.61.187.234.422.234.25 0 .421-.234.187-.235.297-.594.11-.36.156-.782a8 8 0 0 0 .047-.812q0-.344-.062-.75a4.3 4.3 0 0 0-.188-.781 1.7 1.7 0 0 0-.297-.594q-.171-.234-.406-.234m9.453.765q-.218.016-.375-.031l-.312-.125a3 3 0 0 0-.281-.109.6.6 0 0 0-.313-.047q-.312.015-.562.172a2.2 2.2 0 0 0-.438.39 2.7 2.7 0 0 0-.328.532 3 3 0 0 0-.219.562 4 4 0 0 0-.078.578q-.015.375-.015.813-.016.453-.016.859t-.031.641a5 5 0 0 1-.079.593 2.5 2.5 0 0 1-.203.625 1.4 1.4 0 0 1-.343.5.8.8 0 0 1-.563.203.75.75 0 0 1-.469-.156 1.4 1.4 0 0 1-.328-.406 4 4 0 0 1-.218-.609 8 8 0 0 1-.126-.703q-.046-.375-.078-.75-.015-.375-.031-.704v-.625q.016-.28.016-.453a19 19 0 0 0-.063-1.094 20 20 0 0 1-.031-1.109q0-.343.031-.766.031-.42.172-.78a1.6 1.6 0 0 1 .406-.626q.282-.25.766-.25.266 0 .453.172.188.172.297.422.125.25.188.531.062.282.078.516.375-.609.843-.984.47-.39 1.219-.422.375-.016.734.078.375.078.672.281.313.188.5.5.204.312.219.734.031.5-.297.766a1.3 1.3 0 0 1-.797.281m11.641-3.5q0 .296-.062.578a1.2 1.2 0 0 1-.188.47 1.05 1.05 0 0 1-.375.327q-.234.11-.578.11-.391 0-.578-.157a.86.86 0 0 1-.266-.375 2 2 0 0 1-.062-.5 3.4 3.4 0 0 0-.032-.484.9.9 0 0 0-.109-.39q-.093-.157-.344-.157-.234 0-.39.36-.14.36-.235.828a7 7 0 0 0-.125.921q-.031.438-.031.594.203-.03.391-.047a2.5 2.5 0 0 1 .859.016q.234.047.437.156a.8.8 0 0 1 .329.282q.125.171.125.437 0 .28-.25.5a2.1 2.1 0 0 1-.578.375 5 5 0 0 1-.672.234q-.345.095-.547.125.047 1.078.047 2.172 0 1.032-.047 2.031a1.2 1.2 0 0 1-.344.797q-.297.313-.781.313a.9.9 0 0 1-.453-.11.85.85 0 0 1-.313-.265 1.6 1.6 0 0 1-.203-.391 2 2 0 0 1-.078-.453 56 56 0 0 1-.125-1.875 29 29 0 0 1-.031-1.906q-.11.016-.219.016h-.203q-.187 0-.453-.047a2.3 2.3 0 0 1-.516-.157 1.7 1.7 0 0 1-.406-.296.6.6 0 0 1-.172-.438q0-.344.234-.578a1.6 1.6 0 0 1 .532-.375q.327-.156.671-.219.36-.063.625-.094v-.25q0-.765.141-1.64t.5-1.625q.36-.75.984-1.235.625-.5 1.594-.5.609 0 1.047.266.438.25.719.672.281.405.406.937.125.516.125 1.047m4.844 3.5q-.219.016-.375-.031l-.313-.125a3 3 0 0 0-.281-.109.6.6 0 0 0-.313-.047q-.312.015-.562.172a2.2 2.2 0 0 0-.438.39 2.7 2.7 0 0 0-.328.532 3 3 0 0 0-.218.562 4 4 0 0 0-.078.578q-.016.375-.016.813-.016.453-.016.859t-.031.641q-.015.25-.078.593a2.6 2.6 0 0 1-.203.625 1.4 1.4 0 0 1-.344.5.8.8 0 0 1-.562.203.75.75 0 0 1-.469-.156 1.4 1.4 0 0 1-.328-.406 3.6 3.6 0 0 1-.219-.609 8 8 0 0 1-.125-.703q-.047-.375-.078-.75l-.031-.704v-.625a9 9 0 0 0 .015-.453q-.015-.546-.062-1.094a20 20 0 0 1-.032-1.109q0-.343.032-.766.03-.42.171-.78.141-.376.407-.626.28-.25.765-.25a.65.65 0 0 1 .454.172q.186.172.296.422.125.25.188.531t.078.516q.375-.609.844-.984.468-.39 1.218-.422.375-.016.735.078.375.078.672.281.312.188.5.5.202.312.219.734.03.5-.297.766a1.3 1.3 0 0 1-.797.281m3.906-5.062a.65.65 0 0 1-.125.39 1.2 1.2 0 0 1-.297.313q-.187.124-.406.203a1.5 1.5 0 0 1-.406.063.96.96 0 0 1-.547-.157q-.235-.156-.235-.484a.74.74 0 0 1 .11-.406 1 1 0 0 1 .297-.297q.171-.126.39-.188a1.5 1.5 0 0 1 .422-.062q.297 0 .547.14t.25.485m.125 5.312v.469q0 .234-.016.453-.015.266-.015.719 0 .438-.032.953a12 12 0 0 1-.109 1.047 4.4 4.4 0 0 1-.219.969 2 2 0 0 1-.422.718.9.9 0 0 1-.64.282.58.58 0 0 1-.5-.235 2.2 2.2 0 0 1-.344-.64 5.3 5.3 0 0 1-.187-.891 17 17 0 0 1-.094-.953 13 13 0 0 1-.031-.859v-1.282q0-.468.031-1 .031-.53.109-1.078a6.5 6.5 0 0 1 .25-1 2.2 2.2 0 0 1 .438-.734.88.88 0 0 1 .672-.281q.421 0 .64.421.219.423.328.985t.125 1.125q.016.546.016.812m4.078 6.047q-.797 0-1.391-.422a3.7 3.7 0 0 1-1-1.078 5.2 5.2 0 0 1-.609-1.453 6.6 6.6 0 0 1-.203-1.594q0-.828.203-1.703.204-.89.625-1.61.422-.734 1.078-1.187.657-.469 1.563-.469.875 0 1.484.485.625.468 1 1.187.375.704.531 1.547.157.844.11 1.594a8.6 8.6 0 0 1-.266 1.672 5.3 5.3 0 0 1-.609 1.516 3.5 3.5 0 0 1-1.031 1.093q-.625.422-1.485.422m.156-7.062q-.234 0-.421.25a2.5 2.5 0 0 0-.297.609q-.11.36-.172.766-.063.39-.063.687 0 .375.063.813.078.437.203.812.124.36.297.61.187.234.422.234.25 0 .421-.234.188-.235.297-.594.11-.36.157-.782.046-.437.046-.812 0-.344-.062-.75a4.3 4.3 0 0 0-.188-.781 1.7 1.7 0 0 0-.296-.594q-.172-.234-.407-.234m6.282 5.781q0 .25-.141.64a4.5 4.5 0 0 1-.328.766 2.7 2.7 0 0 1-.438.641q-.25.265-.484.265-.312 0-.312-.312 0-.188.078-.36t.172-.343q.093-.156.171-.328a.7.7 0 0 0 .079-.313.9.9 0 0 1-.5.156.79.79 0 0 1-.61-.281.92.92 0 0 1-.25-.625q0-.5.328-.797.328-.312.828-.312.563 0 .985.297t.422.906m8.031 1.39q-1.11 0-1.734-.296a2 2 0 0 1-.922-.813q-.297-.531-.36-1.281-.062-.75-.062-1.672 0-.734.047-1.469.047-.75.14-1.593-.219 0-.343.015h-.204a1.6 1.6 0 0 1-.859-.219q-.375-.218-.375-.671 0-.282.219-.5a1.7 1.7 0 0 1 .531-.376q.328-.156.703-.25.39-.094.735-.124 0-.438.062-.97.063-.53.219-.984.171-.468.453-.78a.92.92 0 0 1 .719-.313q.25 0 .437.156.204.141.328.375.125.218.188.5.062.281.062.547 0 .312-.047.64-.046.33-.171.813.265-.031.359-.031.093-.016.172-.016.265 0 .547.047.297.046.531.156.25.11.406.297a.6.6 0 0 1 .156.422.67.67 0 0 1-.234.5q-.219.218-.563.375a4 4 0 0 1-.734.25q-.39.078-.734.109-.094.64-.141 1.188-.031.53-.078 1.078l-.063.547q-.015.265-.015.547 0 .202.015.484.016.266.11.516.093.25.297.437.203.172.562.172.219 0 .453-.031.235-.048.469-.047.407 0 .578.281.188.282.188.719a.9.9 0 0 1-.203.578 1.35 1.35 0 0 1-.485.375 2.6 2.6 0 0 1-.672.234 3.2 3.2 0 0 1-.687.078m5.328-.109q-.797 0-1.391-.422a3.7 3.7 0 0 1-1-1.078 5.2 5.2 0 0 1-.609-1.453 6.6 6.6 0 0 1-.203-1.594q0-.828.203-1.703.203-.89.625-1.61.422-.734 1.078-1.187.656-.469 1.563-.469.875 0 1.484.485.625.468 1 1.187.375.704.531 1.547.156.844.11 1.594a8.6 8.6 0 0 1-.266 1.672 5.3 5.3 0 0 1-.609 1.516 3.5 3.5 0 0 1-1.032 1.093q-.624.422-1.484.422m.156-7.062q-.234 0-.422.25a2.5 2.5 0 0 0-.296.609q-.11.36-.172.766-.063.39-.063.687 0 .375.063.813a6 6 0 0 0 .203.812q.125.36.297.61.187.234.422.234.25 0 .421-.234.187-.235.297-.594.11-.36.156-.782a8 8 0 0 0 .047-.812q0-.344-.062-.75a4.3 4.3 0 0 0-.188-.781 1.7 1.7 0 0 0-.297-.594q-.171-.234-.406-.234m8.469 7.047q-.266 0-.422-.25a1.8 1.8 0 0 1-.234-.547 4.4 4.4 0 0 1-.11-.625 9 9 0 0 1 .032-1.438l.125-.937q.078-.469.125-.938.062-.469.062-.937a6 6 0 0 0-.015-.407 1.7 1.7 0 0 0-.079-.406.66.66 0 0 0-.171-.328.45.45 0 0 0-.329-.125q-.14 0-.312.234a3.4 3.4 0 0 0-.328.516q-.14.281-.25.578a1.5 1.5 0 0 0-.094.422v.703q.016.344.016.703v.906q-.016.282-.047.579-.031.296-.094.578-.047.281-.141.547a1.7 1.7 0 0 1-.25.453 1.2 1.2 0 0 1-.343.312.9.9 0 0 1-.485.125.7.7 0 0 1-.515-.203 1.5 1.5 0 0 1-.328-.515 3.6 3.6 0 0 1-.188-.719 26 26 0 0 1-.078-.781 17 17 0 0 1-.016-.704q.016-.327.016-.515v-.735q0-.593-.031-1.172-.016-.577-.016-1.156v-.797q.015-.484.125-.937.11-.469.359-.797.25-.328.735-.328.219 0 .39.14t.297.344q.141.203.219.438.093.234.141.406.156-.22.359-.422.219-.203.484-.36a2.53 2.53 0 0 1 1.344-.343q.797 0 1.234.39.454.375.657.954.219.563.265 1.218.047.657.047 1.188 0 .266-.047.797-.047.516-.156 1.156a13 13 0 0 1-.266 1.297 8.5 8.5 0 0 1-.406 1.203 3 3 0 0 1-.562.891q-.313.344-.719.344m6.672.124q-1.11 0-1.735-.296a2 2 0 0 1-.921-.813q-.297-.531-.36-1.281-.062-.75-.062-1.672 0-.734.047-1.469.047-.75.14-1.593-.218 0-.344.015h-.203a1.6 1.6 0 0 1-.859-.219q-.375-.218-.375-.671 0-.282.219-.5a1.7 1.7 0 0 1 .531-.376q.328-.156.703-.25a5 5 0 0 1 .734-.124q0-.438.063-.97.063-.53.219-.984.171-.468.453-.78a.92.92 0 0 1 .719-.313q.25 0 .437.156.204.141.328.375.125.218.188.5.062.281.062.547 0 .312-.047.64-.046.33-.172.813.266-.031.36-.031.093-.016.172-.016.265 0 .547.047.297.046.531.156.25.11.406.297a.6.6 0 0 1 .156.422.67.67 0 0 1-.234.5q-.219.218-.562.375-.344.156-.735.25-.39.078-.734.109-.094.64-.141 1.188-.031.53-.078 1.078l-.062.547a9 9 0 0 0 0 1.031q.015.266.109.516.093.25.297.437.203.172.562.172.219 0 .453-.031.235-.048.469-.047.407 0 .578.281.188.282.188.719a.9.9 0 0 1-.203.578 1.35 1.35 0 0 1-.485.375 2.6 2.6 0 0 1-.672.234 3.2 3.2 0 0 1-.687.078m9.203-5.031q0 .86-.172 1.703a4.7 4.7 0 0 1-.578 1.516 3.1 3.1 0 0 1-1.094 1.062q-.672.407-1.687.407-1 0-1.672-.391a3.2 3.2 0 0 1-1.078-1.062 4.8 4.8 0 0 1-.563-1.485 9 9 0 0 1-.156-1.687q0-.937.219-1.86.046-.249.172-.687.14-.453.343-.875.22-.438.485-.75.28-.313.609-.313.312 0 .5.172t.297.438q.11.25.141.547.03.28.031.515 0 .36-.063.703-.046.345-.109.688l-.125.937a9.5 9.5 0 0 0-.031 1.469q.031.282.125.547t.265.453q.172.172.485.172.406 0 .64-.219.25-.219.36-.547.124-.328.156-.703.031-.375.031-.687 0-.688-.093-1.344-.094-.672-.172-1.36a1.5 1.5 0 0 1 .062-.687q.078-.234.219-.422.14-.187.344-.297a.84.84 0 0 1 .453-.125q.344 0 .609.25.266.235.438.625.188.375.297.86.124.468.187.937.078.453.094.86.031.405.031.64m6.375-1.375q-.219.016-.375-.031l-.312-.125a3 3 0 0 0-.282-.109.6.6 0 0 0-.312-.047 1.14 1.14 0 0 0-.563.172 2.2 2.2 0 0 0-.437.39 2.7 2.7 0 0 0-.328.532 3 3 0 0 0-.219.562 4 4 0 0 0-.078.578q-.016.375-.016.813-.015.453-.015.859t-.032.641q-.015.25-.078.593a2.6 2.6 0 0 1-.203.625 1.4 1.4 0 0 1-.344.5.8.8 0 0 1-.562.203.75.75 0 0 1-.469-.156 1.4 1.4 0 0 1-.328-.406 4 4 0 0 1-.219-.609 8 8 0 0 1-.125-.703q-.046-.375-.078-.75-.015-.375-.031-.704v-.625a9 9 0 0 0 .015-.453q-.015-.546-.062-1.094a20 20 0 0 1-.031-1.109q0-.343.031-.766.031-.42.172-.78a1.6 1.6 0 0 1 .406-.626q.282-.25.766-.25.266 0 .453.172.188.172.297.422.124.25.187.531t.078.516q.375-.609.844-.984.47-.39 1.219-.422.375-.016.734.078.375.078.672.281.312.188.5.5.202.312.219.734.031.5-.297.766a1.3 1.3 0 0 1-.797.281m7.969 3.641q0 .28-.032.734-.015.453-.124.891a2.1 2.1 0 0 1-.344.734q-.234.313-.656.313-.579 0-.891-.375t-.297-.938a3.8 3.8 0 0 1-1.141.688q-.624.25-1.281.25-.453 0-.859-.219a2.7 2.7 0 0 1-.719-.563 2.9 2.9 0 0 1-.5-.765 2.2 2.2 0 0 1-.188-.859q0-.75.454-1.313a4.2 4.2 0 0 1 1.14-.953 6.5 6.5 0 0 1 1.422-.641q.766-.234 1.36-.312v-.141a.6.6 0 0 0 .015-.14q0-.485-.265-.782-.267-.297-.75-.297-.392 0-.672.141a3.3 3.3 0 0 0-.532.297q-.25.156-.5.297a1.24 1.24 0 0 1-.562.125.87.87 0 0 1-.594-.219.74.74 0 0 1-.234-.562q0-.516.297-.938.312-.422.765-.703a4 4 0 0 1 1-.453 3.4 3.4 0 0 1 1-.172q.423 0 .844.11.422.093.797.312.375.203.672.515.312.297.5.704.28.577.453 1.234.171.64.266 1.328.094.672.124 1.359.032.672.032 1.313m-2.5-.5-.047-1.063h-.063a.14.14 0 0 0-.062-.015q-.203 0-.516.109a2.3 2.3 0 0 0-.578.281 2.3 2.3 0 0 0-.484.391.7.7 0 0 0-.188.453q0 .219.156.297a.8.8 0 0 0 .36.078q.344 0 .734-.172.391-.188.688-.359m13.75-.078q0 .531-.344 1.047-.328.5-.844.906-.5.39-1.078.64-.577.235-1.062.235a2.77 2.77 0 0 1-1.485-.406 3.9 3.9 0 0 1-1.078-1.063 5.2 5.2 0 0 1-.672-1.406 5.6 5.6 0 0 1-.219-1.516q0-.781.219-1.672t.657-1.64q.453-.75 1.124-1.25.688-.5 1.626-.5.53 0 1.015.187a2.46 2.46 0 0 1 1.422 1.281q.219.454.219 1.016 0 .735-.313 1.375a3.6 3.6 0 0 1-.828 1.109 4.4 4.4 0 0 1-1.187.766 4 4 0 0 1-1.375.313q.062.453.359.656.312.203.734.203.313 0 .61-.156.296-.156.578-.344.281-.203.547-.359a1.14 1.14 0 0 1 .562-.157q.313 0 .563.204t.25.531m-2.532-3.828a.94.94 0 0 0-.109-.422.36.36 0 0 0-.344-.219.9.9 0 0 0-.578.188 1.4 1.4 0 0 0-.39.453 2.5 2.5 0 0 0-.25.578 3 3 0 0 0-.094.578q.22-.047.515-.125.314-.078.579-.203.28-.141.468-.344a.66.66 0 0 0 .203-.484m13.563 4.406q0 .28-.031.734a4.3 4.3 0 0 1-.125.891 2.1 2.1 0 0 1-.344.734q-.234.313-.656.313-.579 0-.891-.375t-.297-.938a3.8 3.8 0 0 1-1.14.688q-.625.25-1.282.25-.453 0-.859-.219a2.7 2.7 0 0 1-.719-.563 2.9 2.9 0 0 1-.5-.765 2.2 2.2 0 0 1-.187-.859q0-.75.453-1.313a4.2 4.2 0 0 1 1.141-.953 6.5 6.5 0 0 1 1.421-.641q.766-.234 1.36-.312v-.141a.6.6 0 0 0 .015-.14q0-.485-.265-.782-.266-.297-.75-.297-.392 0-.672.141a3 3 0 0 0-.531.297q-.25.156-.5.297a1.25 1.25 0 0 1-.563.125.87.87 0 0 1-.594-.219.74.74 0 0 1-.234-.562q0-.516.297-.938.312-.422.766-.703a4 4 0 0 1 1-.453 3.4 3.4 0 0 1 1-.172q.422 0 .843.11.422.093.797.312.375.203.672.515.312.297.5.704.282.577.453 1.234.172.64.266 1.328.093.672.125 1.359.031.672.031 1.313m-2.5-.5-.047-1.063h-.062a.14.14 0 0 0-.063-.015q-.203 0-.515.109a2.3 2.3 0 0 0-.579.281 2.3 2.3 0 0 0-.484.391.7.7 0 0 0-.187.453q0 .219.156.297a.8.8 0 0 0 .359.078q.344 0 .735-.172.39-.188.687-.359m7.078 3.265q-1.11 0-1.734-.296a2 2 0 0 1-.922-.813q-.297-.531-.359-1.281-.063-.75-.063-1.672 0-.734.047-1.469.047-.75.14-1.593-.218 0-.343.015h-.203q-.5 0-.86-.219-.375-.218-.375-.671 0-.282.219-.5a1.7 1.7 0 0 1 .531-.376q.328-.156.703-.25.391-.094.735-.124 0-.438.062-.97.063-.53.219-.984.173-.468.453-.78a.93.93 0 0 1 .719-.313.66.66 0 0 1 .437.156q.204.141.329.375a1.8 1.8 0 0 1 .187.5q.063.281.063.547 0 .312-.047.64-.048.33-.172.813.266-.031.359-.031.094-.016.172-.016.265 0 .547.047.297.046.531.156.25.11.406.297a.6.6 0 0 1 .157.422.67.67 0 0 1-.235.5q-.219.218-.562.375a4 4 0 0 1-.735.25q-.39.078-.734.109-.094.64-.141 1.188-.03.53-.078 1.078l-.062.547a9 9 0 0 0 0 1.031q.015.266.109.516t.297.437q.203.172.562.172.219 0 .454-.031.234-.048.468-.047.407 0 .578.281.188.282.188.719a.9.9 0 0 1-.203.578 1.35 1.35 0 0 1-.485.375 2.5 2.5 0 0 1-.671.234q-.36.078-.688.078m8.906-3.343q0 .531-.343 1.047-.328.5-.844.906a5 5 0 0 1-1.078.64q-.579.235-1.063.235a2.77 2.77 0 0 1-1.484-.406 3.9 3.9 0 0 1-1.078-1.063 5.1 5.1 0 0 1-.672-1.406 5.6 5.6 0 0 1-.219-1.516q0-.781.219-1.672t.656-1.64q.453-.75 1.125-1.25.687-.5 1.625-.5.531 0 1.016.187.484.172.843.5.36.329.579.781.218.454.218 1.016 0 .735-.312 1.375a3.6 3.6 0 0 1-.828 1.109 4.4 4.4 0 0 1-1.188.766 4 4 0 0 1-1.375.313q.063.453.36.656.312.203.734.203.312 0 .609-.156t.579-.344q.28-.203.546-.359.281-.157.563-.157.313 0 .562.204a.65.65 0 0 1 .25.531m-2.531-3.828a.94.94 0 0 0-.109-.422.36.36 0 0 0-.344-.219.9.9 0 0 0-.578.188 1.4 1.4 0 0 0-.391.453 2.6 2.6 0 0 0-.25.578 3 3 0 0 0-.094.578q.219-.047.516-.125.312-.078.578-.203.282-.141.469-.344a.66.66 0 0 0 .203-.484m.875-5.547q0 .171-.094.344-.093.156-.234.296a2.3 2.3 0 0 1-.281.266 12 12 0 0 0-.532.39 3 3 0 0 1-.281.188 3 3 0 0 1-.297.14.7.7 0 0 1-.281.063.4.4 0 0 1-.219-.062.27.27 0 0 1-.093-.219q0-.234.171-.562.189-.344.454-.657.265-.328.562-.547.297-.234.547-.234a.52.52 0 0 1 .391.188q.187.171.187.406m-131.531 23.812q0 .297-.063.578a1.2 1.2 0 0 1-.187.469 1.04 1.04 0 0 1-.375.328 1.4 1.4 0 0 1-.578.11q-.391 0-.578-.157a.86.86 0 0 1-.266-.375 2 2 0 0 1-.063-.5q0-.265-.031-.484a.9.9 0 0 0-.109-.391q-.094-.156-.344-.156-.234 0-.39.36a5 5 0 0 0-.235.828 7 7 0 0 0-.125.922 10 10 0 0 0-.031.593q.202-.031.391-.047.186-.03.406-.031.219 0 .453.047t.437.156a.77.77 0 0 1 .328.282q.126.171.126.437 0 .28-.25.5a2.1 2.1 0 0 1-.579.375 5 5 0 0 1-.671.234q-.345.095-.547.125.047 1.078.047 2.172 0 1.032-.047 2.031a1.2 1.2 0 0 1-.344.797q-.297.313-.781.313a.9.9 0 0 1-.454-.11.86.86 0 0 1-.312-.265 1.6 1.6 0 0 1-.203-.391 2 2 0 0 1-.078-.453 56 56 0 0 1-.125-1.875q-.048-.953-.032-1.906-.108.016-.218.016h-.203q-.187 0-.453-.047a2.3 2.3 0 0 1-.516-.157 1.7 1.7 0 0 1-.406-.296.6.6 0 0 1-.172-.438q0-.344.234-.578.219-.234.531-.375.328-.156.672-.219.36-.063.625-.094v-.25q0-.765.141-1.64.14-.876.5-1.625.36-.75.984-1.235.625-.5 1.594-.5.609 0 1.047.266.438.25.719.672.281.406.406.937.125.516.125 1.047m4.844 3.5q-.219.016-.375-.031l-.313-.125a3 3 0 0 0-.281-.109.6.6 0 0 0-.313-.047q-.312.015-.562.172a2.2 2.2 0 0 0-.438.39 2.7 2.7 0 0 0-.328.532 3 3 0 0 0-.218.562 4 4 0 0 0-.079.578q-.015.375-.015.813-.016.453-.016.859t-.031.641a6 6 0 0 1-.078.593q-.063.328-.203.625a1.4 1.4 0 0 1-.344.5.8.8 0 0 1-.563.203.75.75 0 0 1-.468-.156 1.4 1.4 0 0 1-.329-.406 4 4 0 0 1-.218-.609 8 8 0 0 1-.125-.703q-.047-.375-.078-.75-.016-.375-.032-.704v-.625q.016-.28.016-.453-.015-.546-.063-1.094-.03-.561-.031-1.109 0-.343.031-.765.032-.422.172-.782.141-.375.407-.625.28-.25.765-.25a.65.65 0 0 1 .453.172q.187.172.297.422.125.25.188.531.062.282.078.516a3.8 3.8 0 0 1 .844-.984q.468-.392 1.218-.422.375-.016.735.078.375.078.672.281.312.188.5.5.203.312.218.734.031.5-.297.766a1.3 1.3 0 0 1-.796.281m7.968 3.641q0 .28-.031.734-.015.453-.125.891a2.1 2.1 0 0 1-.344.734q-.234.313-.656.313-.578 0-.89-.375t-.297-.938a3.9 3.9 0 0 1-1.141.688q-.625.25-1.281.25-.453 0-.86-.219a2.7 2.7 0 0 1-.718-.563 2.8 2.8 0 0 1-.5-.765 2.2 2.2 0 0 1-.188-.859q0-.75.453-1.313a4.3 4.3 0 0 1 1.141-.953 6.5 6.5 0 0 1 1.422-.641q.765-.234 1.359-.312v-.141a.6.6 0 0 0 .016-.14q0-.485-.266-.782t-.75-.297q-.39 0-.672.141a3.3 3.3 0 0 0-.531.297q-.25.156-.5.297a1.25 1.25 0 0 1-.563.125.87.87 0 0 1-.593-.219.73.73 0 0 1-.235-.562q0-.516.297-.938.313-.422.766-.703a4 4 0 0 1 1-.453 3.4 3.4 0 0 1 1-.172q.421 0 .844.109.422.094.797.313.375.203.671.515.313.297.5.703.282.579.453 1.235.173.64.266 1.328.094.672.125 1.359.031.672.031 1.313m-2.5-.5-.046-1.063h-.063a.14.14 0 0 0-.063-.015q-.203 0-.515.109a2.3 2.3 0 0 0-.578.281 2.3 2.3 0 0 0-.485.391.7.7 0 0 0-.187.453q0 .219.156.297a.8.8 0 0 0 .359.078q.344 0 .735-.172.39-.188.687-.359m10.704-4.563-.25 2.266q-.126 1.125-.172 2.25a34 34 0 0 0-.063 2.453q.016 1.157.016 2.453 0 .313-.016.766 0 .453-.109.875a1.8 1.8 0 0 1-.36.719q-.234.296-.718.296a.62.62 0 0 1-.407-.14 1.4 1.4 0 0 1-.281-.375 3 3 0 0 1-.187-.5 9 9 0 0 1-.11-.578 12 12 0 0 1-.093-1.219v-2.969q-.36.469-.938.719a2.9 2.9 0 0 1-1.125.234q-.703 0-1.219-.328a3 3 0 0 1-.828-.859 4 4 0 0 1-.484-1.156 5 5 0 0 1-.156-1.219v-.094q0-.813.25-1.75a6.8 6.8 0 0 1 .734-1.766 4.6 4.6 0 0 1 1.234-1.343q.75-.547 1.735-.547.531 0 .968.219.453.218.641.718.125-.359.375-.578a.98.98 0 0 1 .672-.234q.516 0 .719.344.218.327.218.734 0 .172-.015.313-.016.14-.031.296m-3.594.375q-.36 0-.672.297a2.7 2.7 0 0 0-.547.703 4 4 0 0 0-.375.875 3.3 3.3 0 0 0-.125.828q0 .22.031.469.048.25.125.485.094.217.235.375.156.14.39.14.204 0 .469-.093a4 4 0 0 0 .547-.266q.265-.172.469-.375t.281-.391q.047-.11.078-.328t.047-.453q.031-.25.047-.484a6 6 0 0 0 .015-.36q0-.187-.093-.422a2 2 0 0 0-.219-.468 1.3 1.3 0 0 0-.328-.375.58.58 0 0 0-.375-.157m11.187 2.422q0 .86-.172 1.703a4.7 4.7 0 0 1-.578 1.516 3.1 3.1 0 0 1-1.093 1.062q-.672.407-1.688.407-1 0-1.672-.391a3.2 3.2 0 0 1-1.078-1.062 4.8 4.8 0 0 1-.562-1.485 9 9 0 0 1-.157-1.687q0-.937.219-1.86.047-.249.172-.687.14-.453.344-.875.218-.438.484-.75.282-.312.609-.313.313 0 .5.172t.297.438q.11.25.141.547.031.28.031.515 0 .36-.062.703-.048.345-.11.688l-.125.937a9.5 9.5 0 0 0-.031 1.469q.031.282.125.547t.266.453q.172.172.484.172.406 0 .641-.219.25-.219.359-.547.125-.328.156-.703t.031-.687q0-.688-.093-1.344-.094-.672-.172-1.359a1.5 1.5 0 0 1 .062-.688 1.5 1.5 0 0 1 .219-.422q.14-.187.344-.297a.85.85 0 0 1 .453-.125q.343 0 .609.25.266.235.438.625.187.375.297.86.125.468.187.937a6.5 6.5 0 0 1 .094.86q.031.405.031.64m7.5 1.688q0 .531-.343 1.047-.328.5-.844.906-.5.39-1.078.64-.579.235-1.063.235a2.77 2.77 0 0 1-1.484-.406 3.9 3.9 0 0 1-1.078-1.063 5.1 5.1 0 0 1-.672-1.406 5.6 5.6 0 0 1-.219-1.516q0-.781.219-1.672t.656-1.64q.453-.75 1.125-1.25.687-.5 1.625-.5.531 0 1.016.187.485.172.843.5.36.328.578.781.219.454.219 1.016 0 .735-.312 1.375a3.7 3.7 0 0 1-.828 1.109 4.4 4.4 0 0 1-1.188.766 4 4 0 0 1-1.375.313q.063.453.36.656.312.203.734.203.312 0 .609-.156t.578-.344q.282-.203.547-.359.281-.157.563-.157.312 0 .562.204a.65.65 0 0 1 .25.531m-2.531-3.828a.94.94 0 0 0-.109-.422.36.36 0 0 0-.344-.219.9.9 0 0 0-.578.188 1.4 1.4 0 0 0-.391.453 2.6 2.6 0 0 0-.25.578 3 3 0 0 0-.094.578q.219-.047.516-.125.312-.078.578-.203.282-.141.469-.344a.66.66 0 0 0 .203-.484m10.172 5.14a.71.71 0 0 1-.266.547 2.5 2.5 0 0 1-.656.422q-.39.188-.906.312a11 11 0 0 1-1 .204q-.484.078-.922.109a7 7 0 0 1-.703.047q-.266 0-.75-.016a5 5 0 0 1-.938-.125 2.4 2.4 0 0 1-.812-.312.74.74 0 0 1-.344-.641q0-.312.219-.766.219-.453.562-.984t.766-1.078q.421-.562.828-1.078.406-.515.766-.938.359-.437.562-.718-.219.047-.562.14-.328.078-.688.156a19 19 0 0 1-.703.141 4 4 0 0 1-.563.047 1.7 1.7 0 0 1-.421-.062 2.5 2.5 0 0 1-.453-.204 1.6 1.6 0 0 1-.36-.296.6.6 0 0 1-.14-.391q0-.281.25-.516.25-.25.656-.437.406-.203.906-.344a9 9 0 0 1 .984-.25 8 8 0 0 1 1.625-.203q.297 0 .719.062.422.063.813.219.406.156.687.422a.88.88 0 0 1 .281.672q0 .125-.031.234-.015.094-.047.219-.031.11-.281.5-.234.375-.594.906-.344.516-.765 1.125-.407.594-.782 1.125a134 134 0 0 0-1.031 1.485q.641-.172 1.297-.282a7.3 7.3 0 0 1 1.328-.125q.157 0 .406.016t.485.094q.234.062.406.203a.42.42 0 0 1 .172.359m6.953-.734q0 .28-.031.734a4.3 4.3 0 0 1-.125.891 2.1 2.1 0 0 1-.344.734q-.234.313-.656.313-.579 0-.891-.375t-.297-.938a3.8 3.8 0 0 1-1.14.688q-.625.25-1.282.25-.453 0-.859-.219a2.7 2.7 0 0 1-.719-.563 2.9 2.9 0 0 1-.5-.765 2.2 2.2 0 0 1-.187-.859q0-.75.453-1.313a4.2 4.2 0 0 1 1.141-.953 6.5 6.5 0 0 1 1.421-.641q.766-.234 1.36-.312v-.141a.6.6 0 0 0 .015-.14q0-.485-.265-.782-.266-.297-.75-.297-.392 0-.672.141a3 3 0 0 0-.531.297q-.25.156-.5.297a1.25 1.25 0 0 1-.563.125.87.87 0 0 1-.594-.219.74.74 0 0 1-.234-.562q0-.516.297-.938.312-.422.766-.703a4 4 0 0 1 1-.453 3.3 3.3 0 0 1 1-.172q.422 0 .843.109.422.094.797.313.375.203.672.515.312.297.5.703.282.579.453 1.235.172.64.266 1.328.093.672.125 1.359.031.672.031 1.313m-2.5-.5-.047-1.063h-.062a.14.14 0 0 0-.063-.015q-.203 0-.515.109a2.3 2.3 0 0 0-.579.281 2.3 2.3 0 0 0-.484.391.7.7 0 0 0-.187.453q0 .219.156.297a.8.8 0 0 0 .359.078q.344 0 .735-.172.39-.188.687-.359"/><defs><filter id="a" width="307.001" height="150.916" x="-8" y="0" color-interpolation-filters="sRGB" filterUnits="userSpaceOnUse"><feFlood flood-opacity="0" result="BackgroundImageFix"/><feBlend in="SourceGraphic" in2="BackgroundImageFix" result="shape"/><feColorMatrix in="SourceAlpha" result="hardAlpha" values="0 0 0 0 0 0 0 0 0 0 0 0 0 0 0 0 0 0 127 0"/><feOffset dy="4"/><feGaussianBlur stdDeviation="2"/><feComposite in2="hardAlpha" k2="-1" k3="1" operator="arithmetic"/><feColorMatrix values="0 0 0 0 0 0 0 0 0 0 0 0 0 0 0 0 0 0 0.25 0"/><feBlend in2="shape" result="effect1_innerShadow_1129_822"/></filter></defs></svg>