<svg xmlns="http://www.w3.org/2000/svg" width="290" height="117" fill="none" viewBox="0 0 290 117"><g filter="url(#a)"><path fill="#3dc3ff" fill-rule="evenodd" d="M27.835 70.134C9.5 62.942 1.327 53.561 1.327 43.546c0-14.75 23.61-29.32 62.669-36.524 18.944-3.494 41.203-5.016 66.776-5.016 78.3 0 150.507 15.048 147.425 41.54 0 13.144-13.364 25.232-40.581 32.448-18.134 4.808-42.145 7.21-73.454 7.21-50.742 2.151-90.178-.953-117.078-7.241-7.003 6.925-4.863 19.624-.713 39.632-10.446-19.819-17.692-33.928-18.536-45.461" clip-rule="evenodd"/></g><path fill="#3dc3ff" d="m27.835 70.134.997-.073a1 1 0 0 0-.632-.858zm36.16-63.112.182.983zm214.202 36.524-.993-.116a1 1 0 0 0-.007.116zm-40.581 32.448.256.966zm-73.454 7.21v-1l-.042.001zm-117.078-7.24.228-.974a1 1 0 0 0-.93.263zm-.713 39.632-.885.466a1 1 0 0 0 1.864-.669zM1.327 43.545h-1c0 10.666 8.709 20.289 27.142 27.52l.366-.931.365-.931C9.965 62.05 2.327 52.913 2.327 43.546zM63.996 7.023l-.181-.983c-19.599 3.615-35.39 9.088-46.31 15.555C6.645 28.025.327 35.614.327 43.546h2c0-6.818 5.487-13.889 16.197-20.231 10.65-6.307 26.194-11.72 45.653-15.31zm66.776-5.016v-1c-25.608 0-47.932 1.523-66.957 5.033l.18.983.182.983c18.864-3.479 41.056-5 66.595-5zm147.425 41.54.994.115c.834-7.169-3.469-13.386-11.156-18.61-7.698-5.23-19.011-9.63-32.783-13.178-27.563-7.102-65.28-10.867-104.48-10.867v2c39.1 0 76.637 3.759 103.981 10.804 13.683 3.525 24.738 7.855 32.158 12.896 7.433 5.05 11 10.647 10.293 16.724zm-40.581 32.448.256.966c13.689-3.629 23.984-8.505 30.878-14.196 6.905-5.7 10.447-12.27 10.447-19.218h-2c0 6.195-3.139 12.243-9.72 17.676-6.593 5.443-16.589 10.218-30.117 13.805zm-73.454 7.21v1c31.349 0 55.456-2.404 73.71-7.244l-.256-.966-.256-.967c-18.015 4.776-41.928 7.177-73.198 7.177zM47.084 75.964l-.227.974c27.02 6.316 66.556 9.42 117.347 7.267l-.042-1-.042-.999c-50.692 2.149-90.029-.956-116.808-7.216zm-.713 39.632.98-.203c-2.08-10.023-3.63-18.11-3.806-24.546-.175-6.426 1.028-10.994 4.243-14.172l-.703-.711-.704-.711c-3.789 3.746-5.017 8.99-4.836 15.648.181 6.647 1.776 14.914 3.847 24.898zM27.835 70.134l-.998.073c.435 5.932 2.509 12.464 5.748 19.948 3.24 7.487 7.682 16.004 12.901 25.906l.885-.466.885-.466c-5.227-9.917-9.631-18.364-12.836-25.769-3.207-7.409-5.178-13.698-5.588-19.3z"/><path fill="#fff" d="M59.03 32.41q0 .312-.062.75a3.3 3.3 0 0 1-.203.843q-.157.39-.422.672-.266.265-.703.265-.58 0-.875-.421a2.9 2.9 0 0 1-.407-1 8 8 0 0 1-.156-1.204q-.015-.61-.031-.968-1.125.187-2.219.328a8 8 0 0 1-.14.89 4.5 4.5 0 0 1-.313 1.032 2.7 2.7 0 0 1-.547.843q-.329.36-.812.36a.73.73 0 0 1-.594-.266 2.1 2.1 0 0 1-.313-.656 4 4 0 0 1-.14-.766q-.015-.406-.016-.672 0-.89.14-1.75a32 32 0 0 1 .579-2.796q.156-.61.375-1.25.234-.657.531-1.282.312-.64.703-1.14.39-.501.89-.813a2.05 2.05 0 0 1 1.11-.312q.594 0 1.031.265.438.266.766.703.328.438.547 1 .219.548.36 1.125.155.563.25 1.11.109.546.187.969.203 1.015.344 2.062.14 1.031.14 2.078m-3.015-3.798q0-.187-.032-.61a6 6 0 0 0-.093-.858 2.7 2.7 0 0 0-.25-.766q-.157-.344-.438-.344-.156 0-.297.219a2.1 2.1 0 0 0-.25.531 7 7 0 0 0-.203.703q-.078.39-.14.75t-.094.657l-.047.406q.938-.078 1.844-.235zm6.953-3.36q0 .845-.078 1.704a23 23 0 0 0-.063 1.703q0 1.11.063 2.219.078 1.11.078 2.234 0 .282-.032.64a2.1 2.1 0 0 1-.156.642 1.2 1.2 0 0 1-.344.5q-.234.203-.625.203-.375 0-.656-.375a3.3 3.3 0 0 1-.453-.922 12 12 0 0 1-.297-1.281q-.11-.704-.172-1.36a98 98 0 0 1-.078-1.219q-.015-.562-.015-.828 0-.296.015-.86.031-.561.11-1.218.078-.656.203-1.328.14-.687.36-1.234.218-.562.515-.907.312-.36.734-.359.344 0 .516.234.187.22.265.547.079.313.094.672.016.344.016.594m7.734 6.688q0 .532-.344 1.047-.328.5-.843.907-.5.39-1.079.64-.578.234-1.062.235a2.76 2.76 0 0 1-1.484-.407 3.9 3.9 0 0 1-1.08-1.062 5.2 5.2 0 0 1-.671-1.406 5.6 5.6 0 0 1-.22-1.516q0-.78.22-1.672.218-.89.656-1.64a4.3 4.3 0 0 1 1.125-1.25q.687-.5 1.625-.5.53 0 1.015.187a2.45 2.45 0 0 1 1.422 1.281q.22.453.22 1.016 0 .735-.313 1.375a3.6 3.6 0 0 1-.829 1.11q-.516.468-1.187.765a4 4 0 0 1-1.375.312q.062.453.36.657.312.203.734.203.312 0 .61-.157.296-.156.577-.343.282-.204.547-.36.281-.156.563-.156a.87.87 0 0 1 .562.203q.25.204.25.531m-2.531-3.828a.94.94 0 0 0-.11-.422.36.36 0 0 0-.343-.218.9.9 0 0 0-.578.187 1.4 1.4 0 0 0-.391.453q-.156.266-.25.578a3 3 0 0 0-.094.579q.219-.047.516-.125a3 3 0 0 0 .578-.204q.281-.14.469-.343a.66.66 0 0 0 .203-.485m.875-5.547q0 .173-.094.344a1.6 1.6 0 0 1-.234.297 2.3 2.3 0 0 1-.282.266q-.156.109-.28.203a8 8 0 0 0-.25.187 3 3 0 0 1-.282.188 3 3 0 0 1-.297.14.7.7 0 0 1-.281.063.4.4 0 0 1-.219-.063.27.27 0 0 1-.094-.218q0-.235.172-.563.188-.344.453-.656.266-.328.563-.547.297-.234.547-.234.218 0 .39.187.188.172.188.406m11.765 7v.813q0 .5-.03 1.094-.017.593-.095 1.203a5.3 5.3 0 0 1-.25 1.078q-.156.485-.406.797a.79.79 0 0 1-.64.312.6.6 0 0 1-.532-.28 2.2 2.2 0 0 1-.25-.688 5 5 0 0 1-.093-.797v-.64q0-.704.046-1.376.047-.672.047-1.375v-.281q0-.204-.03-.406a1.2 1.2 0 0 0-.11-.36q-.063-.156-.203-.156-.282 0-.454.297a2.7 2.7 0 0 0-.28.672q-.11.39-.157.78-.046.375-.063.563-.03.204-.062.61-.015.405-.063.89a9 9 0 0 1-.125 1 6 6 0 0 1-.218.922q-.126.407-.328.672-.204.266-.5.266a.64.64 0 0 1-.579-.328 2.4 2.4 0 0 1-.296-.766 6 6 0 0 1-.125-.89 22 22 0 0 1-.016-.704v-.515q.016-.25.016-.516v-.36q0-.249-.016-.546 0-.313-.031-.64a5 5 0 0 0-.063-.595 1.5 1.5 0 0 0-.14-.453q-.094-.172-.22-.172-.203 0-.374.266-.172.25-.297.61-.125.344-.203.687-.063.345-.063.5v.094q0 .75.094 1.468.094.72.094 1.47 0 .436-.281.812-.281.36-.782.36a.76.76 0 0 1-.593-.267 2.4 2.4 0 0 1-.391-.718 6 6 0 0 1-.25-.953 12 12 0 0 1-.11-1.032q-.03-.514-.046-.922v-.625q0-.234-.016-.687 0-.453.016-.984a20 20 0 0 1 .093-1.079 5.5 5.5 0 0 1 .204-1.015 2.3 2.3 0 0 1 .359-.735.73.73 0 0 1 .594-.296q.406 0 .656.218.266.219.266.657 0 .093-.016.187 0 .094-.016.172a3.6 3.6 0 0 1 .422-.5q.25-.265.531-.469.297-.218.625-.344.33-.14.657-.14a.97.97 0 0 1 .562.172q.25.171.438.437.188.251.312.547.125.297.172.563.157-.282.375-.563.234-.297.5-.516.266-.218.578-.359a1.7 1.7 0 0 1 .672-.14q.328 0 .563.234t.406.61q.171.359.265.827.094.454.157.907.061.437.078.828.015.375.015.593m11.532-5.125q0 1.14-.094 2.266-.078 1.125-.078 2.266 0 .921.047 1.828.062.906.062 1.828 0 .25-.015.61a3 3 0 0 1-.11.671 1.3 1.3 0 0 1-.281.563q-.187.234-.547.234-.468 0-.781-.344a1.7 1.7 0 0 1-.375-.797 2.7 2.7 0 0 1-.86.954q-.562.39-1.218.39a1.72 1.72 0 0 1-1.22-.484 4.3 4.3 0 0 1-.843-1.172 7 7 0 0 1-.5-1.438 6.5 6.5 0 0 1-.156-1.296 9.7 9.7 0 0 1 .203-1.907q.125-.515.313-1 .187-.5.468-.89.297-.391.688-.625a1.8 1.8 0 0 1 .922-.235q.562 0 1.078.328.516.33.781.813l.14-2.484q.017-.297.048-.688.03-.405.125-.766.11-.36.328-.609.219-.25.64-.25.454 0 .703.219.25.219.36.562.125.33.14.72.032.39.032.733m-2.547 6.938q0-.36-.016-.703-.015-.345 0-.703a9 9 0 0 0-.219-.438 2 2 0 0 0-.312-.453 1.6 1.6 0 0 0-.39-.36.85.85 0 0 0-.47-.14.6.6 0 0 0-.453.172 1 1 0 0 0-.25.422 2.5 2.5 0 0 0-.109.515q-.016.282-.016.485 0 .187.032.562.03.36.11.735.093.374.25.656.155.28.42.281.204 0 .407-.078.203-.093.375-.219.188-.14.344-.297.172-.171.297-.312zm6.156-7.563a.65.65 0 0 1-.125.391 1.2 1.2 0 0 1-.297.313q-.187.124-.406.203a1.5 1.5 0 0 1-.406.062.96.96 0 0 1-.547-.156q-.234-.156-.235-.484a.74.74 0 0 1 .11-.407q.124-.188.297-.297.172-.124.39-.187.22-.063.422-.063.297 0 .547.141t.25.484m.125 5.313v.469q0 .234-.016.453-.015.265-.015.719 0 .437-.031.953-.032.514-.11 1.047a4.4 4.4 0 0 1-.219.968 2 2 0 0 1-.421.72.9.9 0 0 1-.641.28.58.58 0 0 1-.5-.234 2.2 2.2 0 0 1-.344-.64 5.4 5.4 0 0 1-.187-.891 17 17 0 0 1-.094-.953q-.03-.47-.031-.86v-1.281q0-.47.03-1 .033-.531.11-1.078.094-.547.25-1 .172-.453.438-.735a.9.9 0 0 1 .672-.28q.421 0 .64.421.219.422.328.984t.125 1.125q.016.547.016.813m5.688-3q0 .453-.313.672a6 6 0 0 1-.672.422q-.375.188-.687.453-.297.265-.297.797 0 .281.125.484.14.203.328.375.203.157.437.328.235.172.422.39.204.22.328.532.141.313.141.766 0 .656-.344 1.297a4.27 4.27 0 0 1-2.03 1.906q-.656.297-1.298.297-.266 0-.531-.047a1.5 1.5 0 0 1-.484-.14 1.05 1.05 0 0 1-.344-.298.9.9 0 0 1-.14-.515q0-.438.171-.672.172-.25.438-.39.265-.142.562-.22.312-.078.578-.187.265-.125.438-.313.171-.188.172-.53 0-.33-.266-.673-.25-.36-.563-.75a8 8 0 0 1-.578-.86 2.04 2.04 0 0 1-.25-1q0-.67.266-1.233.28-.58.734-1 .47-.422 1.063-.657.594-.25 1.25-.25.25 0 .484.047.25.047.438.172a.8.8 0 0 1 .297.313.86.86 0 0 1 .125.484m5.203 0q0 .453-.313.672a6 6 0 0 1-.672.422q-.375.188-.687.453-.297.265-.297.797a.9.9 0 0 0 .125.484q.14.203.328.375.203.157.438.328t.421.39a1.7 1.7 0 0 1 .329.532q.14.313.14.766 0 .656-.344 1.297a4.2 4.2 0 0 1-.859 1.125 4.3 4.3 0 0 1-1.172.78q-.656.298-1.297.298-.266 0-.531-.047a1.5 1.5 0 0 1-.484-.14 1.04 1.04 0 0 1-.344-.298.9.9 0 0 1-.141-.515q0-.438.172-.672.172-.25.438-.39.265-.142.562-.22.313-.078.578-.187a1.4 1.4 0 0 0 .438-.313q.171-.188.172-.53 0-.33-.266-.673-.25-.36-.562-.75a8 8 0 0 1-.579-.86 2.04 2.04 0 0 1-.25-1q0-.67.266-1.233.282-.58.734-1 .47-.422 1.063-.657.594-.25 1.25-.25.25 0 .484.047.25.047.438.172a.8.8 0 0 1 .297.313.86.86 0 0 1 .125.484m3.593 9.047q-.796 0-1.39-.422a3.7 3.7 0 0 1-1-1.078 5.2 5.2 0 0 1-.61-1.453 6.6 6.6 0 0 1-.203-1.594q0-.828.203-1.703.204-.89.625-1.61.423-.734 1.079-1.187.656-.47 1.562-.469.875 0 1.484.485.625.468 1 1.187.375.703.532 1.547a6.5 6.5 0 0 1 .109 1.594 8.6 8.6 0 0 1-.266 1.672 5.3 5.3 0 0 1-.609 1.515 3.5 3.5 0 0 1-1.031 1.094q-.626.422-1.485.422m.157-7.063q-.235 0-.422.25-.172.25-.297.61-.11.36-.172.765a4.4 4.4 0 0 0-.062.688q0 .374.062.812.078.438.203.813.125.36.297.61.188.233.422.234.25 0 .422-.235.188-.234.297-.594.11-.36.156-.78a8 8 0 0 0 .047-.813q0-.345-.063-.75a4.3 4.3 0 0 0-.187-.782 1.8 1.8 0 0 0-.297-.593q-.172-.235-.406-.235m6.281 5.782q0 .25-.141.64-.124.39-.328.766-.188.375-.437.64-.25.266-.485.266-.312 0-.312-.312a.9.9 0 0 1 .078-.36q.078-.171.172-.344.094-.156.172-.328a.7.7 0 0 0 .078-.312.9.9 0 0 1-.5.156.79.79 0 0 1-.61-.281.92.92 0 0 1-.25-.625q0-.5.329-.797.327-.312.828-.313.563 0 .984.297t.422.907m11.031-1.375q0 .28-.031.734-.015.453-.125.89a2.1 2.1 0 0 1-.344.735q-.234.312-.656.312-.578 0-.891-.375-.312-.375-.297-.937-.5.437-1.14.687-.625.25-1.281.25-.454 0-.86-.218a2.7 2.7 0 0 1-.719-.563 2.9 2.9 0 0 1-.5-.765 2.2 2.2 0 0 1-.187-.86q0-.75.453-1.312a4.3 4.3 0 0 1 1.141-.953q.672-.407 1.422-.641a8.5 8.5 0 0 1 1.359-.313v-.14a.6.6 0 0 0 .016-.14q0-.486-.266-.782t-.75-.297q-.39 0-.672.14a3.3 3.3 0 0 0-.531.298q-.25.156-.5.296a1.24 1.24 0 0 1-.563.125.87.87 0 0 1-.593-.218.73.73 0 0 1-.235-.563q0-.516.297-.937.313-.423.766-.703a4 4 0 0 1 1-.454 3.4 3.4 0 0 1 1-.171q.421 0 .843.109.422.094.797.312.375.204.672.516.313.297.5.703.282.579.453 1.235.172.64.266 1.328.093.671.125 1.36.031.671.031 1.312m-2.5-.5-.047-1.063h-.062a.14.14 0 0 0-.063-.016q-.203 0-.515.11a2.3 2.3 0 0 0-.578.281 2.3 2.3 0 0 0-.485.39.7.7 0 0 0-.187.454q0 .219.156.297a.8.8 0 0 0 .359.078q.344 0 .735-.172.39-.187.687-.36m7.078 3.265q-1.108 0-1.734-.297a2 2 0 0 1-.922-.812q-.297-.531-.359-1.281-.063-.75-.063-1.672 0-.735.047-1.47.047-.75.141-1.593-.22 0-.344.016h-.203q-.5 0-.86-.219-.375-.219-.375-.672 0-.28.219-.5a1.7 1.7 0 0 1 .531-.375q.329-.156.704-.25.39-.093.734-.125 0-.437.062-.969.063-.531.219-.984a2.4 2.4 0 0 1 .453-.781.93.93 0 0 1 .719-.313q.25 0 .438.157.202.14.328.375.125.218.187.5.063.281.063.546 0 .313-.047.641t-.172.813q.266-.032.359-.032.094-.015.172-.015.266 0 .547.047.297.046.531.156.25.11.407.297a.6.6 0 0 1 .156.422.67.67 0 0 1-.235.5q-.218.217-.562.375a4 4 0 0 1-.734.25 7 7 0 0 1-.735.109q-.093.64-.14 1.187-.031.532-.079 1.079l-.062.546q-.016.266-.016.547 0 .203.016.485.015.266.109.515.095.25.297.438.203.171.563.172.219 0 .453-.032.234-.045.469-.046.405 0 .578.28.187.282.187.72a.9.9 0 0 1-.203.578 1.35 1.35 0 0 1-.484.375 2.6 2.6 0 0 1-.672.234q-.36.078-.688.078m4.938-11.469a.65.65 0 0 1-.125.391 1.2 1.2 0 0 1-.297.313q-.187.124-.406.203a1.5 1.5 0 0 1-.407.062.96.96 0 0 1-.546-.156q-.235-.156-.235-.484a.74.74 0 0 1 .11-.407q.125-.188.296-.297a1.2 1.2 0 0 1 .391-.187 1.5 1.5 0 0 1 .422-.063q.297 0 .547.141t.25.484m.125 5.313v.469q0 .234-.016.453-.015.265-.015.719 0 .437-.032.953a12 12 0 0 1-.109 1.047 4.4 4.4 0 0 1-.219.968 2 2 0 0 1-.422.72.9.9 0 0 1-.64.28.58.58 0 0 1-.5-.234 2.2 2.2 0 0 1-.344-.64 5.4 5.4 0 0 1-.188-.891 18 18 0 0 1-.093-.953 13 13 0 0 1-.032-.86v-1.281q0-.47.032-1 .031-.531.109-1.078.094-.547.25-1 .172-.453.438-.735a.88.88 0 0 1 .671-.28q.423 0 .641.421.219.422.328.984t.125 1.125q.016.547.016.813m7.844 0a77 77 0 0 1-.891 2.25q-.484 1.172-1.047 2.187a4.6 4.6 0 0 1-.766 1.047q-.422.407-.968.407-.437 0-.86-.438a6.6 6.6 0 0 1-.765-1.062 14 14 0 0 1-.61-1.25 25 25 0 0 1-.375-1.016 39 39 0 0 0-.281-.906 15 15 0 0 1-.281-.985 12 12 0 0 1-.203-.984 6 6 0 0 1-.078-.938q0-.61.218-1 .22-.39.86-.39.249 0 .453.156.202.142.375.406.171.266.328.625.156.345.297.766.14.406.265.844a52 52 0 0 0 .5 1.64q.141.375.36.75l.25-.64q.141-.36.297-.766.171-.406.359-.828.187-.438.406-.844a8.4 8.4 0 0 1 .891-1.437q.485-.594.953-.594.438 0 .625.266.188.265.188.687t-.141.953-.359 1.094m3.625-5.313a.65.65 0 0 1-.125.391 1.2 1.2 0 0 1-.297.313 2 2 0 0 1-.407.203 1.5 1.5 0 0 1-.406.062.97.97 0 0 1-.547-.156q-.234-.156-.234-.484a.74.74 0 0 1 .109-.407q.126-.188.297-.297a1.2 1.2 0 0 1 .391-.187q.219-.063.422-.063.297 0 .547.141t.25.484m.125 5.313v.469q0 .234-.016.453-.016.265-.016.719 0 .437-.031.953a12 12 0 0 1-.109 1.047 4.4 4.4 0 0 1-.219.968 2 2 0 0 1-.422.72.9.9 0 0 1-.641.28.58.58 0 0 1-.5-.234 2.2 2.2 0 0 1-.343-.64 5.3 5.3 0 0 1-.188-.891 18 18 0 0 1-.094-.953q-.03-.47-.031-.86v-1.281q0-.47.031-1 .032-.531.11-1.078.094-.547.25-1 .171-.453.437-.735a.88.88 0 0 1 .672-.28q.422 0 .641.421.219.422.328.984t.125 1.125q.015.547.016.813m7.843-4.688q0 1.14-.093 2.266-.08 1.125-.079 2.266 0 .921.047 1.828.063.906.063 1.828 0 .25-.016.61-.015.343-.109.671a1.3 1.3 0 0 1-.281.563q-.188.234-.547.234-.469 0-.782-.344a1.7 1.7 0 0 1-.375-.797 2.7 2.7 0 0 1-.859.954q-.562.39-1.219.39a1.72 1.72 0 0 1-1.218-.484 4.3 4.3 0 0 1-.844-1.172 7 7 0 0 1-.5-1.438 6.5 6.5 0 0 1-.156-1.296q0-.39.046-.891.048-.5.157-1.016a8 8 0 0 1 .312-1q.187-.5.469-.89.297-.391.687-.625.407-.235.922-.235.563 0 1.078.328.516.33.782.813l.14-2.484q.016-.297.047-.688.032-.405.125-.766.11-.36.328-.609.22-.25.641-.25.453 0 .703.219t.359.562q.126.33.141.72.031.39.031.733m-2.547 6.938q0-.36-.015-.703a8 8 0 0 1 0-.703 9 9 0 0 0-.219-.438 2 2 0 0 0-.312-.453 1.6 1.6 0 0 0-.391-.36.85.85 0 0 0-.469-.14.6.6 0 0 0-.453.172 1 1 0 0 0-.25.422 2.5 2.5 0 0 0-.109.515 8 8 0 0 0-.016.485q0 .187.031.562.032.36.11.735.094.374.25.656.156.28.422.281.202 0 .406-.078.202-.093.375-.219.187-.14.344-.297a8 8 0 0 0 .296-.312zm10.219 1.14q0 .282-.031.735-.015.453-.125.89a2.1 2.1 0 0 1-.344.735q-.234.312-.656.312-.578 0-.891-.375-.312-.375-.297-.937-.5.437-1.14.687-.625.25-1.281.25-.454 0-.86-.218a2.7 2.7 0 0 1-.719-.563 2.9 2.9 0 0 1-.5-.765 2.2 2.2 0 0 1-.187-.86q0-.75.453-1.312a4.3 4.3 0 0 1 1.141-.953q.672-.407 1.422-.641a8.5 8.5 0 0 1 1.359-.313v-.14a.6.6 0 0 0 .016-.14q0-.486-.266-.782t-.75-.297q-.39 0-.672.14a3.3 3.3 0 0 0-.531.298q-.25.156-.5.296a1.24 1.24 0 0 1-.563.125.87.87 0 0 1-.593-.218.73.73 0 0 1-.235-.563q0-.516.297-.937.313-.423.766-.703a4 4 0 0 1 1-.454 3.4 3.4 0 0 1 1-.171q.422 0 .843.109.423.094.797.312.375.204.672.516.313.297.5.703.282.579.453 1.235.172.64.266 1.328.093.671.125 1.36.031.671.031 1.312m-2.5-.5-.047-1.062h-.062a.14.14 0 0 0-.063-.016q-.203 0-.515.11a2.3 2.3 0 0 0-.578.281 2.3 2.3 0 0 0-.485.39.7.7 0 0 0-.187.454q0 .219.156.297a.8.8 0 0 0 .359.078q.344 0 .735-.172.39-.187.687-.36m10.172-7.578q0 1.14-.094 2.266-.078 1.125-.078 2.266 0 .921.047 1.828.063.906.063 1.828 0 .25-.016.61-.016.343-.109.671a1.3 1.3 0 0 1-.282.563q-.187.234-.547.234-.468 0-.781-.344a1.7 1.7 0 0 1-.375-.797 2.7 2.7 0 0 1-.859.954q-.562.39-1.219.39-.703 0-1.219-.484a4.3 4.3 0 0 1-.843-1.172 7 7 0 0 1-.5-1.438 6.4 6.4 0 0 1-.157-1.296 10 10 0 0 1 .203-1.907 8 8 0 0 1 .313-1q.187-.5.469-.89.297-.391.687-.625a1.8 1.8 0 0 1 .922-.235q.562 0 1.078.328.516.33.781.813l.141-2.484q.015-.297.047-.688.031-.405.125-.766.11-.36.328-.609.219-.25.641-.25.453 0 .703.219t.359.562q.125.33.141.72.031.39.031.733m-2.547 6.938q0-.36-.015-.703a8 8 0 0 1 0-.703 9 9 0 0 0-.219-.438 2 2 0 0 0-.313-.453 1.6 1.6 0 0 0-.39-.36.85.85 0 0 0-.469-.14.6.6 0 0 0-.453.172 1 1 0 0 0-.25.422 2.5 2.5 0 0 0-.11.515 9 9 0 0 0-.015.485 7.3 7.3 0 0 0 .14 1.297q.094.374.25.656.157.28.422.281.203 0 .407-.078.202-.093.375-.219.187-.14.343-.297a7 7 0 0 0 .297-.312zm10.125.562q0 .532-.344 1.047-.328.5-.843.907-.5.39-1.078.64-.579.234-1.063.235a2.76 2.76 0 0 1-1.484-.407 3.9 3.9 0 0 1-1.078-1.062 5.1 5.1 0 0 1-.672-1.406 5.6 5.6 0 0 1-.219-1.516q0-.78.219-1.672.218-.89.656-1.64.453-.75 1.125-1.25.687-.5 1.625-.5.531 0 1.016.187a2.45 2.45 0 0 1 1.421 1.281q.219.453.219 1.016 0 .735-.312 1.375a3.7 3.7 0 0 1-.828 1.11 4.4 4.4 0 0 1-1.188.765 4 4 0 0 1-1.375.312q.063.453.359.657.314.203.735.203.312 0 .609-.157.297-.156.578-.343.282-.204.547-.36a1.15 1.15 0 0 1 .563-.156q.313 0 .562.203a.65.65 0 0 1 .25.531m-2.531-3.828a.95.95 0 0 0-.109-.422.36.36 0 0 0-.344-.218.9.9 0 0 0-.578.187 1.4 1.4 0 0 0-.391.453q-.156.266-.25.578a3 3 0 0 0-.094.579q.219-.047.516-.125.312-.078.578-.204.282-.14.469-.343a.66.66 0 0 0 .203-.485m13.469-2.734q0 .297-.063.578a1.2 1.2 0 0 1-.187.469 1.05 1.05 0 0 1-.375.328q-.235.11-.578.11-.392 0-.579-.157a.86.86 0 0 1-.265-.375 2 2 0 0 1-.063-.5q0-.265-.031-.484a.86.86 0 0 0-.109-.39q-.094-.157-.344-.157-.234 0-.391.36-.14.359-.234.827a7 7 0 0 0-.125.922q-.031.438-.031.594a6 6 0 0 1 .39-.047 2.5 2.5 0 0 1 .86.016q.234.046.437.156a.8.8 0 0 1 .328.281.72.72 0 0 1 .125.438q0 .28-.25.5a2.1 2.1 0 0 1-.578.375 5 5 0 0 1-.672.234 5 5 0 0 1-.547.125q.047 1.078.047 2.172 0 1.03-.047 2.031-.03.485-.343.797-.297.313-.782.313a.9.9 0 0 1-.453-.11.85.85 0 0 1-.312-.265 1.5 1.5 0 0 1-.203-.391 2 2 0 0 1-.078-.453 54 54 0 0 1-.125-1.875q-.047-.954-.032-1.906-.11.015-.218.015h-.204a2.7 2.7 0 0 1-.968-.203 1.7 1.7 0 0 1-.407-.297.6.6 0 0 1-.171-.437q0-.344.234-.578.219-.235.531-.375.329-.157.672-.22.36-.06.625-.093v-.25q0-.765.141-1.64a5.9 5.9 0 0 1 .5-1.626q.359-.75.984-1.234.625-.5 1.594-.5.609 0 1.047.266.437.249.718.672.281.405.407.937.125.516.125 1.047m2.125 3.75v.469q0 .234-.016.453-.016.265-.016.719 0 .437-.031.953a12 12 0 0 1-.109 1.047 4.4 4.4 0 0 1-.219.968 2 2 0 0 1-.422.72.9.9 0 0 1-.64.28.58.58 0 0 1-.5-.234 2.2 2.2 0 0 1-.344-.64 5.3 5.3 0 0 1-.188-.891 17 17 0 0 1-.093-.953 13 13 0 0 1-.032-.86v-1.281q0-.47.032-1 .03-.531.109-1.078.093-.547.25-1a2.2 2.2 0 0 1 .437-.735.9.9 0 0 1 .672-.28q.423 0 .641.421.219.422.328.984t.125 1.125q.016.547.016.813m.578-6.234q0 .172-.094.343a1.6 1.6 0 0 1-.234.297 2.3 2.3 0 0 1-.282.266q-.156.109-.281.203a8 8 0 0 0-.25.187 3 3 0 0 1-.281.188 3 3 0 0 1-.297.14.7.7 0 0 1-.281.063.4.4 0 0 1-.219-.062.27.27 0 0 1-.094-.22q0-.233.172-.562.188-.344.453-.656.266-.328.563-.547.297-.234.547-.234.219 0 .39.187.188.172.188.407m5.109 3.234q0 .453-.312.672a6 6 0 0 1-.672.422q-.375.188-.688.453-.297.265-.297.797a.9.9 0 0 0 .125.484q.141.203.329.375.203.157.437.328t.422.39q.203.22.328.532.141.313.141.766 0 .656-.344 1.297a4.28 4.28 0 0 1-2.031 1.906q-.657.297-1.297.297-.266 0-.531-.047a1.5 1.5 0 0 1-.485-.14 1.05 1.05 0 0 1-.344-.298.9.9 0 0 1-.14-.515q0-.438.172-.672.171-.25.437-.39.266-.142.563-.22.312-.078.578-.187.266-.125.437-.313.172-.188.172-.53 0-.33-.265-.673-.25-.36-.563-.75a8 8 0 0 1-.578-.86 2.03 2.03 0 0 1-.25-1q0-.67.266-1.233a3.4 3.4 0 0 1 .734-1q.469-.422 1.062-.657a3.2 3.2 0 0 1 1.25-.25q.25 0 .485.047.25.047.437.172a.8.8 0 0 1 .297.313.85.85 0 0 1 .125.484m3.203-2.313a.64.64 0 0 1-.125.391 1.2 1.2 0 0 1-.297.313q-.187.124-.406.203a1.5 1.5 0 0 1-.406.062.96.96 0 0 1-.547-.156q-.234-.156-.234-.484a.74.74 0 0 1 .109-.407 1 1 0 0 1 .297-.297 1.2 1.2 0 0 1 .391-.187q.218-.063.421-.063.297 0 .547.141t.25.484m.125 5.313v.469q0 .234-.015.453-.016.265-.016.719 0 .437-.031.953-.031.514-.11 1.047a4.4 4.4 0 0 1-.218.968 2 2 0 0 1-.422.72.9.9 0 0 1-.641.28.58.58 0 0 1-.5-.234 2.2 2.2 0 0 1-.344-.64 5.4 5.4 0 0 1-.187-.891 17 17 0 0 1-.094-.953 13 13 0 0 1-.031-.86v-1.281q0-.47.031-1 .031-.531.11-1.078a6 6 0 0 1 .25-1q.171-.453.437-.735a.88.88 0 0 1 .672-.28q.422 0 .641.421.218.422.328.984.109.563.125 1.125.015.547.015.813m6.907-.406q0 .079-.016.172a1 1 0 0 1-.047.156 1.5 1.5 0 0 1-.437.61 1.1 1.1 0 0 1-.704.234q-.609 0-.828-.61a.5.5 0 0 1-.031-.172q0-.109-.016-.218v-.454a.9.9 0 0 0-.109-.343q-.078-.125-.266-.125-.266 0-.515.343a3.8 3.8 0 0 0-.422.797 7 7 0 0 0-.281.938q-.11.484-.11.781 0 .234.032.578.03.329.125.64.093.314.25.548.171.218.437.218a.8.8 0 0 0 .484-.156q.235-.172.454-.39.203-.188.437-.391a.87.87 0 0 1 .563-.203q.39 0 .609.281a.97.97 0 0 1 .234.64q0 .532-.281 1a3.2 3.2 0 0 1-.703.798q-.422.327-.938.515a2.7 2.7 0 0 1-.984.203q-.844 0-1.437-.422a3.3 3.3 0 0 1-.938-1.062 5 5 0 0 1-.516-1.422 7.3 7.3 0 0 1-.156-1.453q0-.796.219-1.719.219-.937.672-1.734a4.3 4.3 0 0 1 1.156-1.328q.719-.532 1.703-.532.609 0 1.047.266.453.266.734.703.297.422.438.953.156.532.156 1.047v.156a1 1 0 0 1-.015.157m7.515 3.797q0 .28-.031.734-.015.453-.125.89a2.1 2.1 0 0 1-.344.735q-.234.312-.656.312-.578 0-.891-.375-.312-.375-.297-.937-.5.437-1.14.687-.625.25-1.281.25-.454 0-.86-.218a2.7 2.7 0 0 1-.719-.563 2.9 2.9 0 0 1-.5-.765 2.2 2.2 0 0 1-.187-.86q0-.75.453-1.312a4.3 4.3 0 0 1 1.141-.953q.672-.407 1.422-.641a8.5 8.5 0 0 1 1.359-.313v-.14a.6.6 0 0 0 .016-.14q0-.486-.266-.782t-.75-.297q-.39 0-.672.14a3.3 3.3 0 0 0-.531.298q-.25.156-.5.296a1.24 1.24 0 0 1-.563.125.87.87 0 0 1-.593-.218.73.73 0 0 1-.235-.563q0-.516.297-.937.313-.423.766-.703a4 4 0 0 1 1-.454 3.4 3.4 0 0 1 1-.171q.422 0 .843.109.422.094.797.312.375.204.672.516.313.297.5.703.282.579.453 1.235.172.64.266 1.328.093.671.125 1.36.031.671.031 1.312m-2.5-.5-.047-1.063h-.062a.14.14 0 0 0-.063-.016q-.203 0-.515.11a2.3 2.3 0 0 0-.578.281 2.3 2.3 0 0 0-.485.39.7.7 0 0 0-.187.454q0 .219.156.297a.8.8 0 0 0 .359.078q.344 0 .735-.172.39-.187.687-.36m13.75-.079q0 .532-.344 1.047-.328.5-.843.907-.5.39-1.078.64-.579.234-1.063.235a2.76 2.76 0 0 1-1.484-.407 3.9 3.9 0 0 1-1.078-1.062 5.1 5.1 0 0 1-.672-1.406 5.6 5.6 0 0 1-.219-1.516q0-.78.219-1.672.218-.89.656-1.64.453-.75 1.125-1.25.687-.5 1.625-.5.531 0 1.016.187a2.45 2.45 0 0 1 1.421 1.281q.219.453.219 1.016 0 .735-.312 1.375a3.7 3.7 0 0 1-.828 1.11 4.4 4.4 0 0 1-1.188.765 4 4 0 0 1-1.375.312q.063.453.359.657.314.203.735.203.312 0 .609-.157.297-.156.578-.343.282-.204.547-.36a1.15 1.15 0 0 1 .563-.156q.313 0 .562.203a.65.65 0 0 1 .25.531m-2.531-3.828a.95.95 0 0 0-.109-.422.36.36 0 0 0-.344-.218.9.9 0 0 0-.578.187 1.4 1.4 0 0 0-.391.453q-.156.266-.25.578a3 3 0 0 0-.094.579q.219-.047.516-.125.312-.078.578-.204.282-.14.469-.343a.66.66 0 0 0 .203-.485M34.038 53.52q0 .28-.031.734-.015.453-.125.89a2.1 2.1 0 0 1-.344.735q-.234.312-.656.312-.579 0-.89-.375-.314-.375-.298-.937-.5.437-1.14.687a3.4 3.4 0 0 1-1.282.25q-.453 0-.859-.218a2.7 2.7 0 0 1-.719-.563 2.9 2.9 0 0 1-.5-.765 2.2 2.2 0 0 1-.187-.86q0-.75.453-1.312a4.3 4.3 0 0 1 1.14-.953q.672-.407 1.422-.641.765-.234 1.36-.313v-.14a.6.6 0 0 0 .015-.14q0-.486-.265-.782-.266-.297-.75-.297-.39 0-.672.14a3.3 3.3 0 0 0-.531.298q-.25.156-.5.296a1.24 1.24 0 0 1-.563.125.87.87 0 0 1-.594-.218.74.74 0 0 1-.234-.563q0-.516.297-.937.312-.423.765-.703a4 4 0 0 1 1-.454 3.4 3.4 0 0 1 1-.171q.423 0 .844.109.423.094.797.312.375.204.672.516.312.297.5.703.282.579.453 1.235.172.64.266 1.328.093.671.125 1.36.03.671.031 1.312m-2.5-.5-.047-1.063h-.062a.14.14 0 0 0-.063-.016q-.203 0-.515.11-.297.093-.579.281a2.3 2.3 0 0 0-.484.39.7.7 0 0 0-.187.454q0 .219.156.297a.8.8 0 0 0 .36.078q.342 0 .733-.172.39-.187.688-.36m6.36-6.766q0 .843-.079 1.703a23 23 0 0 0-.062 1.703q0 1.11.062 2.219.078 1.11.078 2.234 0 .282-.03.64a2.1 2.1 0 0 1-.157.642 1.2 1.2 0 0 1-.344.5q-.234.203-.625.203-.375 0-.656-.375a3.3 3.3 0 0 1-.453-.922 12 12 0 0 1-.297-1.281q-.11-.704-.172-1.36a98 98 0 0 1-.078-1.219q-.015-.562-.016-.828 0-.297.016-.86.03-.561.11-1.218.078-.656.202-1.328.141-.687.36-1.234.22-.562.515-.907.313-.36.735-.359.343 0 .515.234.188.22.266.547.078.313.094.672.015.344.015.594m3.765-1.438a.65.65 0 0 1-.125.391 1.2 1.2 0 0 1-.297.313q-.187.124-.406.203a1.5 1.5 0 0 1-.406.062.96.96 0 0 1-.547-.156q-.235-.156-.235-.484a.74.74 0 0 1 .11-.407q.124-.188.297-.297.171-.124.39-.187.22-.063.422-.063.297 0 .547.141t.25.484m.125 5.313v.469q0 .234-.016.453-.015.266-.015.719 0 .437-.032.953a12 12 0 0 1-.109 1.047 4.4 4.4 0 0 1-.219.968 2 2 0 0 1-.422.72.9.9 0 0 1-.64.28.58.58 0 0 1-.5-.234 2.2 2.2 0 0 1-.344-.64 5.4 5.4 0 0 1-.187-.891 17 17 0 0 1-.094-.953q-.03-.47-.031-.86v-1.281q0-.47.03-1 .032-.532.11-1.078a6.4 6.4 0 0 1 .25-1 2.2 2.2 0 0 1 .438-.735.88.88 0 0 1 .672-.28q.42 0 .64.421.219.422.328.984t.125 1.125q.015.547.016.813m10.594.437v.813q0 .5-.032 1.094-.015.593-.093 1.203a5.3 5.3 0 0 1-.25 1.078q-.156.485-.407.797a.79.79 0 0 1-.64.312.6.6 0 0 1-.531-.28 2.2 2.2 0 0 1-.25-.688 5 5 0 0 1-.094-.797v-.64q0-.704.047-1.376t.047-1.375v-.281q0-.204-.032-.406a1.2 1.2 0 0 0-.109-.36q-.063-.156-.203-.156-.282 0-.453.297a2.7 2.7 0 0 0-.282.672q-.109.39-.156.78-.047.375-.062.563-.031.204-.063.61-.015.406-.062.89-.032.485-.125 1a6 6 0 0 1-.219.922q-.125.406-.328.672t-.5.266a.64.64 0 0 1-.578-.328 2.4 2.4 0 0 1-.297-.766 6 6 0 0 1-.125-.89q-.015-.454-.016-.704v-.515q.016-.25.016-.516v-.36q0-.249-.016-.546 0-.312-.031-.64a5 5 0 0 0-.062-.595 1.5 1.5 0 0 0-.141-.453q-.095-.172-.219-.172-.202 0-.375.266-.171.25-.297.61-.124.344-.203.687-.062.344-.062.5v.094q0 .75.093 1.468.094.72.094 1.47 0 .436-.281.812-.282.36-.781.36a.76.76 0 0 1-.594-.267 2.3 2.3 0 0 1-.39-.718 6 6 0 0 1-.25-.953 12 12 0 0 1-.11-1.032q-.031-.514-.047-.922v-.625q0-.234-.016-.687 0-.453.016-.984.03-.532.094-1.079.062-.562.203-1.015.14-.453.36-.735a.73.73 0 0 1 .593-.296q.406 0 .656.218.266.219.266.657 0 .093-.016.187a1 1 0 0 1-.015.172 3.6 3.6 0 0 1 .421-.5q.25-.265.532-.469.297-.218.625-.344.327-.14.656-.14a.97.97 0 0 1 .563.172q.25.171.437.437.188.251.313.547.124.297.171.563.157-.282.375-.563.235-.297.5-.516.266-.218.578-.359a1.7 1.7 0 0 1 .672-.14q.33 0 .563.234.234.234.406.61.172.359.266.827.093.453.156.907.063.437.078.828.015.375.016.593m7.578 2.375q0 .532-.344 1.047-.328.5-.844.907-.5.39-1.078.64-.578.234-1.062.235a2.76 2.76 0 0 1-1.485-.407A3.9 3.9 0 0 1 54.07 54.3a5.2 5.2 0 0 1-.672-1.406 5.6 5.6 0 0 1-.218-1.516q0-.78.218-1.672.219-.89.657-1.64a4.3 4.3 0 0 1 1.125-1.25q.687-.5 1.625-.5.53 0 1.015.187a2.45 2.45 0 0 1 1.422 1.281q.219.453.219 1.016 0 .735-.313 1.375a3.6 3.6 0 0 1-.828 1.11q-.516.468-1.187.765a4 4 0 0 1-1.375.312q.061.453.36.657.312.203.733.203.313 0 .61-.157.297-.156.578-.343.282-.203.547-.36.281-.156.562-.156a.87.87 0 0 1 .563.203q.25.204.25.531m-2.531-3.828a.94.94 0 0 0-.11-.422.36.36 0 0 0-.344-.218.9.9 0 0 0-.578.187 1.4 1.4 0 0 0-.39.453 2.6 2.6 0 0 0-.25.578 3 3 0 0 0-.094.579q.219-.047.516-.125.312-.078.578-.204.28-.14.468-.343a.66.66 0 0 0 .204-.485m7.593 7.047q-.265 0-.422-.25a1.7 1.7 0 0 1-.234-.547 4.4 4.4 0 0 1-.11-.625 11 11 0 0 1-.015-.5q0-.468.047-.937l.125-.938q.078-.468.125-.937a7 7 0 0 0 .063-.938q0-.187-.016-.406a1.7 1.7 0 0 0-.078-.406.66.66 0 0 0-.172-.328.44.44 0 0 0-.328-.125q-.14 0-.313.234a3.4 3.4 0 0 0-.328.516q-.14.28-.25.578a1.5 1.5 0 0 0-.094.422v.703q.015.343.016.703v.906q-.015.282-.047.578-.03.297-.094.578-.046.282-.14.547a1.7 1.7 0 0 1-.25.453q-.141.188-.344.313a.9.9 0 0 1-.484.125.7.7 0 0 1-.516-.203 1.5 1.5 0 0 1-.328-.516 3.6 3.6 0 0 1-.188-.719q-.046-.405-.078-.78a18 18 0 0 1-.015-.704q.015-.328.015-.516v-.734q0-.593-.031-1.172-.015-.577-.016-1.156v-.797q.016-.484.125-.937.11-.47.36-.797.25-.329.734-.328a.6.6 0 0 1 .39.14q.172.141.298.344.14.203.218.437.095.235.141.407.156-.22.36-.422.218-.203.484-.36a2.55 2.55 0 0 1 1.343-.343q.797 0 1.235.39.453.375.656.953.218.563.266 1.22.047.656.047 1.187 0 .265-.047.797-.048.515-.157 1.156-.093.625-.265 1.297-.172.655-.406 1.203a3 3 0 0 1-.563.89q-.312.344-.719.344m6.672.125q-1.11 0-1.734-.297a2 2 0 0 1-.922-.812q-.297-.531-.36-1.281-.062-.75-.062-1.672 0-.735.047-1.47.047-.75.14-1.593-.218 0-.343.016h-.203q-.5 0-.86-.219-.375-.219-.375-.672 0-.28.22-.5.203-.218.53-.375.329-.156.703-.25.39-.093.735-.125 0-.436.062-.969.063-.531.22-.984.171-.468.452-.781a.92.92 0 0 1 .719-.313q.25 0 .438.157.202.14.328.375.124.218.187.5.063.281.063.546 0 .313-.047.641-.048.329-.172.813.266-.032.36-.032.094-.015.171-.015.266 0 .547.047.297.046.531.156.25.11.406.297a.6.6 0 0 1 .157.422.67.67 0 0 1-.235.5q-.218.218-.562.375-.345.156-.734.25-.39.078-.735.109-.094.64-.14 1.187-.031.532-.079 1.079l-.062.546q-.016.267-.016.547 0 .203.016.485.015.266.11.515.092.25.296.438.203.171.563.172.218 0 .453-.032.234-.045.468-.046.407 0 .579.28.187.282.187.72a.9.9 0 0 1-.203.578 1.35 1.35 0 0 1-.484.375 2.6 2.6 0 0 1-.672.234q-.36.078-.688.078m9-2.765q0 .28-.031.734a4.3 4.3 0 0 1-.125.89 2.1 2.1 0 0 1-.344.735q-.234.312-.656.312-.578 0-.89-.375-.314-.375-.297-.937a3.8 3.8 0 0 1-1.141.687 3.4 3.4 0 0 1-1.281.25q-.453 0-.86-.218a2.7 2.7 0 0 1-.719-.563 2.9 2.9 0 0 1-.5-.765 2.2 2.2 0 0 1-.187-.86q0-.75.453-1.312a4.3 4.3 0 0 1 1.14-.953q.673-.407 1.423-.641a8.5 8.5 0 0 1 1.359-.313v-.14a.6.6 0 0 0 .016-.14q0-.486-.266-.782t-.75-.297q-.39 0-.672.14a3.3 3.3 0 0 0-.531.298q-.25.156-.5.296a1.24 1.24 0 0 1-.563.125.87.87 0 0 1-.593-.218.74.74 0 0 1-.235-.563q0-.516.297-.937.313-.423.766-.703a4 4 0 0 1 1-.454 3.4 3.4 0 0 1 1-.171q.421 0 .843.109.422.094.797.312.375.204.672.516.313.297.5.703.282.579.453 1.235.172.64.266 1.328.094.671.125 1.36.03.671.031 1.312m-2.5-.5-.047-1.063h-.062a.14.14 0 0 0-.063-.016q-.203 0-.515.11-.297.093-.578.281a2.3 2.3 0 0 0-.485.39.7.7 0 0 0-.187.454q0 .219.156.297a.8.8 0 0 0 .36.078q.343 0 .734-.172.39-.187.687-.36m8.297 5q0 .453-.219.843-.218.39-.562.688a2.7 2.7 0 0 1-.781.469 2.3 2.3 0 0 1-.86.171q-.312 0-.64-.062a2 2 0 0 1-.594-.188 2 2 0 0 1-.484-.359 1.4 1.4 0 0 1-.329-.547.45.45 0 0 1-.047-.203.55.55 0 0 1 .188-.422.65.65 0 0 1 .422-.172.48.48 0 0 1 .328.11l.297.265q.157.14.375.25.219.125.594.125a1 1 0 0 0 .593-.203.64.64 0 0 0 .282-.547.5.5 0 0 0-.172-.39 1.8 1.8 0 0 0-.375-.282l-.438-.25a.86.86 0 0 1-.328-.265q-.125-.172-.125-.5v-.75a2.2 2.2 0 0 1-1.078-.563 3.5 3.5 0 0 1-.703-1.015 5.3 5.3 0 0 1-.39-1.235 6.7 6.7 0 0 1-.126-1.25q0-.515.094-1.093.094-.579.281-1.141t.485-1.078.687-.906q.406-.391.906-.625a2.7 2.7 0 0 1 1.141-.235q.563 0 .984.25t.688.656q.28.406.422.907.14.5.14 1 0 .124-.015.297a.9.9 0 0 1-.047.296q-.125.313-.406.547a1 1 0 0 1-.641.22q-.531 0-.734-.532a1.2 1.2 0 0 1-.047-.36q.015-.234-.016-.437a.8.8 0 0 0-.11-.375q-.093-.156-.327-.156-.282 0-.532.343a3.4 3.4 0 0 0-.437.797q-.187.469-.297.953-.11.47-.11.75 0 .204.032.547.047.33.14.657.11.328.282.562a.58.58 0 0 0 .468.234q.282 0 .516-.171t.453-.375a5 5 0 0 1 .438-.391.77.77 0 0 1 .484-.172q.328 0 .531.25.22.25.22.578 0 .406-.188.781-.188.36-.485.657t-.687.515q-.375.219-.766.313v.094q0 .093-.016.203a.4.4 0 0 1-.046.203q.25.093.546.25.297.172.547.39.25.235.422.5.172.281.172.579m8.172-4.5q0 .28-.031.734-.015.453-.125.89a2.1 2.1 0 0 1-.344.735q-.234.312-.656.312-.58 0-.89-.375-.314-.375-.298-.937-.5.437-1.14.687a3.4 3.4 0 0 1-1.282.25q-.453 0-.859-.218a2.7 2.7 0 0 1-.719-.563 2.9 2.9 0 0 1-.5-.765 2.2 2.2 0 0 1-.187-.86q0-.75.453-1.312a4.3 4.3 0 0 1 1.14-.953q.672-.407 1.422-.641.766-.234 1.36-.313v-.14a.6.6 0 0 0 .015-.14q0-.486-.265-.782-.266-.297-.75-.297-.39 0-.672.14a3.3 3.3 0 0 0-.531.298q-.25.156-.5.296a1.24 1.24 0 0 1-.563.125.87.87 0 0 1-.594-.218.74.74 0 0 1-.234-.563q0-.516.297-.937.312-.423.766-.703a4 4 0 0 1 1-.454 3.4 3.4 0 0 1 1-.171q.42 0 .843.109.422.094.797.312.375.204.672.516.312.297.5.703.282.579.453 1.235.172.64.266 1.328.093.671.125 1.36.03.671.031 1.312m-2.5-.5-.047-1.063h-.062a.14.14 0 0 0-.063-.016q-.203 0-.516.11-.296.093-.578.281a2.3 2.3 0 0 0-.484.39.7.7 0 0 0-.187.454q0 .219.156.297a.8.8 0 0 0 .36.078q.342 0 .733-.172.39-.187.688-.36m1.89-8.938a1 1 0 0 1-.156.5 2.3 2.3 0 0 1-.39.469q-.235.203-.5.344a1.2 1.2 0 0 1-.5.125q-.235 0-.469-.079a16 16 0 0 1-.453-.203 4 4 0 0 0-.438-.187 1.1 1.1 0 0 0-.437-.094.64.64 0 0 0-.344.11 5 5 0 0 0-.36.218q-.186.109-.39.203a.8.8 0 0 1-.375.094.49.49 0 0 1-.406-.203.75.75 0 0 1-.156-.438.85.85 0 0 1 .187-.515q.187-.25.469-.438.28-.203.578-.312.312-.125.547-.125.266 0 .453.11.203.108.375.25.173.14.344.25.187.108.437.109.203 0 .375-.11.188-.125.36-.265.188-.157.343-.266a.6.6 0 0 1 .36-.125q.218 0 .375.187a.57.57 0 0 1 .172.391m4.516 12.094q-.797 0-1.39-.422a3.7 3.7 0 0 1-1-1.078 5.2 5.2 0 0 1-.61-1.453 6.6 6.6 0 0 1-.203-1.594q0-.828.203-1.703a5.6 5.6 0 0 1 .625-1.61q.421-.734 1.078-1.187.657-.47 1.563-.469.875 0 1.484.485.625.468 1 1.187.375.703.532 1.547a6.5 6.5 0 0 1 .109 1.594 8.6 8.6 0 0 1-.266 1.672 5.3 5.3 0 0 1-.609 1.515 3.5 3.5 0 0 1-1.031 1.094q-.626.422-1.485.422m.156-7.063q-.234 0-.421.25-.172.25-.297.61-.11.36-.172.765-.063.39-.063.688 0 .375.063.812.078.438.203.813.124.36.297.61.188.233.422.234.25 0 .422-.235.188-.234.296-.594.11-.36.157-.78.047-.438.047-.813 0-.345-.063-.75a4.3 4.3 0 0 0-.187-.782 1.8 1.8 0 0 0-.297-.593q-.172-.235-.407-.235m12.376-1.984q0 .453-.313.672a6 6 0 0 1-.672.422q-.375.188-.687.453-.297.266-.297.797a.9.9 0 0 0 .125.484q.14.203.328.375.203.157.437.328.235.172.422.39.204.22.328.532.141.313.141.766 0 .656-.344 1.297a4.2 4.2 0 0 1-.859 1.125 4.3 4.3 0 0 1-1.172.78q-.656.298-1.297.298-.265 0-.531-.047a1.5 1.5 0 0 1-.484-.14 1.04 1.04 0 0 1-.344-.298.9.9 0 0 1-.141-.515q0-.438.172-.672.172-.25.438-.39.265-.142.562-.22.312-.078.578-.187a1.4 1.4 0 0 0 .438-.313q.172-.188.172-.53 0-.329-.266-.673a14 14 0 0 0-.563-.75 8 8 0 0 1-.578-.86 2.04 2.04 0 0 1-.25-1q0-.67.266-1.233a3.4 3.4 0 0 1 .734-1q.47-.422 1.063-.657.593-.25 1.25-.25.25 0 .484.047.25.047.438.172a.8.8 0 0 1 .297.313.86.86 0 0 1 .125.484m7.265 6.39q0 .282-.031.735a4.3 4.3 0 0 1-.125.89 2.1 2.1 0 0 1-.344.735q-.234.312-.656.312-.578 0-.891-.375-.312-.375-.297-.937-.5.437-1.14.687-.626.25-1.281.25-.454 0-.86-.218a2.7 2.7 0 0 1-.719-.563 2.9 2.9 0 0 1-.5-.765 2.2 2.2 0 0 1-.187-.86q0-.75.453-1.312a4.3 4.3 0 0 1 1.141-.953q.672-.407 1.422-.641a8.5 8.5 0 0 1 1.359-.313v-.14a.6.6 0 0 0 .016-.14q0-.486-.266-.782t-.75-.297q-.39 0-.672.14a3.3 3.3 0 0 0-.531.298q-.25.156-.5.296a1.24 1.24 0 0 1-.563.125.87.87 0 0 1-.593-.218.73.73 0 0 1-.235-.563q0-.516.297-.937.312-.423.766-.703a4 4 0 0 1 1-.454 3.4 3.4 0 0 1 1-.171q.422 0 .843.109.422.094.797.312.375.204.672.516.312.297.5.703.282.579.453 1.235.172.64.266 1.328.093.671.125 1.36.031.671.031 1.312m-2.5-.5-.047-1.062h-.062a.14.14 0 0 0-.063-.016q-.203 0-.515.11a2.3 2.3 0 0 0-.578.281 2.3 2.3 0 0 0-.485.39.7.7 0 0 0-.187.454q0 .219.156.297a.8.8 0 0 0 .359.078q.343 0 .735-.172.39-.187.687-.36m10.281-1.765q0 .859-.171 1.703a4.7 4.7 0 0 1-.579 1.516q-.406.655-1.093 1.062-.672.406-1.688.406-1 0-1.672-.39a3.2 3.2 0 0 1-1.078-1.063 4.8 4.8 0 0 1-.562-1.484 9 9 0 0 1-.157-1.688q0-.937.219-1.859.047-.25.172-.687.14-.453.344-.875.219-.438.484-.75.282-.313.61-.313.312 0 .5.172.187.171.296.437.11.251.141.547.031.282.031.516 0 .36-.062.703a15 15 0 0 1-.11.688l-.125.937a9.5 9.5 0 0 0-.031 1.469q.032.281.125.547.094.266.266.453.172.171.484.172.407 0 .641-.22.25-.218.359-.546.125-.328.156-.703.032-.376.032-.688 0-.687-.094-1.343-.094-.672-.172-1.36a1.45 1.45 0 0 1 .063-.687 1.5 1.5 0 0 1 .218-.422q.141-.187.344-.297a.84.84 0 0 1 .453-.125q.343 0 .61.25.265.235.437.625.188.375.297.86.125.468.187.937.079.453.094.86.031.406.031.64m7.688-5.813q0 1.14-.094 2.266-.078 1.125-.078 2.266 0 .921.047 1.828.063.906.062 1.828 0 .25-.015.61-.016.343-.11.671a1.3 1.3 0 0 1-.281.563q-.187.234-.547.234-.469 0-.781-.344a1.7 1.7 0 0 1-.375-.797 2.7 2.7 0 0 1-.859.954q-.563.39-1.219.39-.703 0-1.219-.484a4.3 4.3 0 0 1-.844-1.172 7 7 0 0 1-.5-1.438 6.5 6.5 0 0 1-.156-1.296 10 10 0 0 1 .203-1.907 8 8 0 0 1 .313-1q.187-.5.469-.89.296-.391.687-.625a1.8 1.8 0 0 1 .922-.235q.562 0 1.078.328.516.33.781.813l.141-2.484q.015-.297.047-.688.031-.406.125-.766.11-.36.328-.609.218-.25.641-.25.453 0 .703.219t.359.562q.125.33.141.72.03.39.031.733m-2.547 6.938q0-.36-.016-.703-.015-.345 0-.703a8 8 0 0 0-.218-.438 2 2 0 0 0-.313-.453 1.6 1.6 0 0 0-.39-.36.85.85 0 0 0-.469-.14.6.6 0 0 0-.453.172 1 1 0 0 0-.25.422 2.5 2.5 0 0 0-.11.515 9 9 0 0 0-.015.485 7.3 7.3 0 0 0 .14 1.297q.094.374.25.656.156.28.422.281.204 0 .406-.078.204-.093.375-.219a3 3 0 0 0 .344-.297 7 7 0 0 0 .297-.312zm10.219 1.14q0 .282-.031.735a4.4 4.4 0 0 1-.125.89 2.1 2.1 0 0 1-.344.735q-.234.312-.656.312-.579 0-.891-.375t-.297-.937q-.5.437-1.141.687-.624.25-1.281.25-.453 0-.859-.218a2.7 2.7 0 0 1-.719-.563 2.9 2.9 0 0 1-.5-.765 2.2 2.2 0 0 1-.187-.86q0-.75.453-1.312a4.2 4.2 0 0 1 1.14-.953q.672-.407 1.422-.641.766-.234 1.36-.313v-.14a.6.6 0 0 0 .015-.14q0-.486-.265-.782-.267-.297-.75-.297-.392 0-.672.14a3.3 3.3 0 0 0-.532.298q-.25.156-.5.296a1.24 1.24 0 0 1-.562.125.87.87 0 0 1-.594-.218.74.74 0 0 1-.234-.563q0-.516.297-.937.312-.423.765-.703a4 4 0 0 1 1-.454 3.4 3.4 0 0 1 1-.171q.423 0 .844.109.422.094.797.312.375.204.672.516.312.297.5.703.28.579.453 1.235.171.64.266 1.328.093.671.125 1.36.03.671.031 1.312m-2.5-.5-.047-1.062h-.063a.13.13 0 0 0-.062-.016q-.203 0-.516.11-.296.093-.578.281a2.3 2.3 0 0 0-.484.39.7.7 0 0 0-.188.454q0 .219.157.297a.8.8 0 0 0 .359.078q.344 0 .734-.172.391-.187.688-.36m.75-9.124q0 .171-.094.343a1.6 1.6 0 0 1-.234.297 2.3 2.3 0 0 1-.282.266q-.156.109-.281.203a8 8 0 0 0-.25.187 3 3 0 0 1-.281.188 3 3 0 0 1-.297.14.7.7 0 0 1-.281.063.4.4 0 0 1-.219-.062.27.27 0 0 1-.094-.22q0-.233.172-.562.188-.344.453-.656.266-.328.563-.547.297-.234.547-.234.218 0 .39.187.188.172.188.407m9.422 6.234a77 77 0 0 1-.891 2.25q-.484 1.171-1.047 2.187a4.6 4.6 0 0 1-.765 1.047 1.36 1.36 0 0 1-.969.407q-.437 0-.86-.438a6.7 6.7 0 0 1-.765-1.062 14 14 0 0 1-.61-1.25 25 25 0 0 1-.375-1.016 39 39 0 0 0-.281-.906 15 15 0 0 1-.281-.985 12 12 0 0 1-.203-.984 6 6 0 0 1-.078-.938q0-.61.218-1 .22-.39.86-.39.249 0 .453.156.202.142.375.406.172.266.328.625.156.345.297.766.14.406.266.844.124.437.25.843.124.407.25.797.14.375.359.75l.25-.64q.141-.36.297-.766.171-.406.359-.828.188-.438.406-.844a8.4 8.4 0 0 1 .891-1.437q.485-.594.953-.594.438 0 .625.266.188.265.188.687t-.141.953-.359 1.094m7.593 2.812q0 .532-.343 1.047-.328.5-.844.907-.5.39-1.078.64-.579.234-1.063.235a2.76 2.76 0 0 1-1.484-.407 3.9 3.9 0 0 1-1.078-1.062 5.1 5.1 0 0 1-.672-1.406 5.6 5.6 0 0 1-.219-1.516q0-.78.219-1.672.218-.89.656-1.64.453-.75 1.125-1.25.687-.5 1.625-.5.531 0 1.016.187a2.46 2.46 0 0 1 1.422 1.281q.218.453.218 1.016 0 .735-.312 1.375a3.6 3.6 0 0 1-.828 1.11 4.4 4.4 0 0 1-1.188.765 4 4 0 0 1-1.375.312q.063.453.36.657.312.203.734.203.312 0 .609-.157.297-.156.579-.343.28-.203.546-.36a1.15 1.15 0 0 1 .563-.156q.312 0 .562.203a.65.65 0 0 1 .25.531m-2.531-3.828a.94.94 0 0 0-.109-.422.36.36 0 0 0-.344-.218.9.9 0 0 0-.578.187 1.4 1.4 0 0 0-.391.453q-.156.266-.25.578a3 3 0 0 0-.093.579q.218-.047.515-.125.312-.078.578-.204.282-.14.469-.343a.66.66 0 0 0 .203-.485m6.078-2.86q0 .845-.078 1.704-.062.844-.062 1.703 0 1.11.062 2.219.078 1.11.078 2.234 0 .282-.031.64-.031.345-.156.642a1.2 1.2 0 0 1-.344.5q-.235.203-.625.203-.375 0-.656-.375a3.3 3.3 0 0 1-.453-.922 12 12 0 0 1-.297-1.281q-.11-.704-.172-1.36-.047-.672-.078-1.219a31 31 0 0 1-.016-.828q0-.297.016-.86.031-.561.109-1.218t.203-1.328q.141-.687.36-1.234.218-.562.515-.907.313-.36.735-.359.344 0 .515.234.188.22.266.547.078.313.094.672.015.344.015.594m9.532.876q0 .453-.313.672a6 6 0 0 1-.672.422q-.375.188-.687.453-.297.266-.297.797a.9.9 0 0 0 .125.484q.14.203.328.375.203.157.437.328.235.172.422.39.204.22.328.532.141.313.141.766 0 .656-.344 1.297a4.2 4.2 0 0 1-.859 1.125 4.3 4.3 0 0 1-1.172.78q-.656.298-1.297.298-.266 0-.531-.047a1.5 1.5 0 0 1-.484-.14 1.04 1.04 0 0 1-.344-.298.9.9 0 0 1-.141-.515q0-.438.172-.672.172-.25.438-.39.265-.142.562-.22.312-.078.578-.187a1.4 1.4 0 0 0 .438-.313q.172-.188.172-.53 0-.329-.266-.673a14 14 0 0 0-.563-.75 8 8 0 0 1-.578-.86 2.04 2.04 0 0 1-.25-1q0-.67.266-1.233a3.4 3.4 0 0 1 .734-1q.47-.422 1.063-.657.594-.25 1.25-.25.25 0 .484.047.25.047.438.172a.8.8 0 0 1 .297.313.86.86 0 0 1 .125.484m7.265 6.39q0 .282-.031.735a4.3 4.3 0 0 1-.125.89 2.1 2.1 0 0 1-.344.735q-.234.312-.656.312-.578 0-.891-.375-.312-.375-.297-.937-.5.437-1.14.687-.625.25-1.281.25-.454 0-.86-.218a2.7 2.7 0 0 1-.719-.563 2.9 2.9 0 0 1-.5-.765 2.2 2.2 0 0 1-.187-.86q0-.75.453-1.312a4.3 4.3 0 0 1 1.141-.953q.672-.407 1.422-.641a8.5 8.5 0 0 1 1.359-.313v-.14a.6.6 0 0 0 .016-.14q0-.486-.266-.782t-.75-.297q-.39 0-.672.14a3.3 3.3 0 0 0-.531.298q-.25.156-.5.296a1.24 1.24 0 0 1-.563.125.87.87 0 0 1-.593-.218.73.73 0 0 1-.235-.563q0-.516.297-.937.313-.423.766-.703a4 4 0 0 1 1-.454 3.4 3.4 0 0 1 1-.171q.422 0 .843.109.423.094.797.312.375.204.672.516.312.297.5.703.282.579.453 1.235.172.64.266 1.328.093.671.125 1.36.031.671.031 1.312m-2.5-.5-.047-1.062h-.062a.14.14 0 0 0-.063-.016q-.203 0-.515.11a2.3 2.3 0 0 0-.578.281 2.3 2.3 0 0 0-.485.39.7.7 0 0 0-.187.454q0 .219.156.297a.8.8 0 0 0 .359.078q.344 0 .735-.172.39-.187.687-.36m1.891-8.937a1 1 0 0 1-.156.5 2.4 2.4 0 0 1-.391.469q-.234.203-.5.344a1.2 1.2 0 0 1-.5.125q-.234 0-.469-.079-.219-.093-.453-.203a4 4 0 0 0-.437-.187 1.1 1.1 0 0 0-.438-.094.64.64 0 0 0-.344.11 5 5 0 0 0-.359.218q-.187.109-.391.203a.8.8 0 0 1-.375.094.49.49 0 0 1-.406-.203.75.75 0 0 1-.156-.438.85.85 0 0 1 .187-.515q.188-.25.469-.438.281-.203.578-.312.312-.125.547-.125.266 0 .453.11.204.108.375.25.172.14.344.25.188.108.437.109a.7.7 0 0 0 .375-.11q.188-.125.36-.265.187-.157.344-.266a.6.6 0 0 1 .359-.125q.219 0 .375.187a.58.58 0 0 1 .172.391m4.515 12.094q-.796 0-1.39-.422a3.7 3.7 0 0 1-1-1.078 5.2 5.2 0 0 1-.61-1.453 6.6 6.6 0 0 1-.203-1.594q0-.828.203-1.703.204-.89.625-1.61.423-.734 1.079-1.187.656-.47 1.562-.469.875 0 1.484.485.625.468 1 1.187.375.703.532 1.547a6.5 6.5 0 0 1 .109 1.594 8.6 8.6 0 0 1-.266 1.672 5.3 5.3 0 0 1-.609 1.515 3.5 3.5 0 0 1-1.031 1.094q-.626.422-1.485.422m.157-7.063q-.235 0-.422.25-.173.25-.297.61-.11.36-.172.765a4.4 4.4 0 0 0-.062.688q0 .375.062.812.078.438.203.813.124.36.297.61.188.233.422.234.25 0 .422-.235.188-.234.297-.594.11-.36.156-.78a8 8 0 0 0 .047-.813q0-.345-.063-.75a4.3 4.3 0 0 0-.187-.782 1.8 1.8 0 0 0-.297-.593q-.172-.235-.406-.235m14.343 3.828q0 .532-.343 1.047-.328.5-.844.907-.5.39-1.078.64-.579.234-1.063.235a2.76 2.76 0 0 1-1.484-.407 3.9 3.9 0 0 1-1.078-1.062 5.1 5.1 0 0 1-.672-1.406 5.6 5.6 0 0 1-.219-1.516q0-.78.219-1.672.218-.89.656-1.64.453-.75 1.125-1.25.687-.5 1.625-.5.531 0 1.016.187a2.46 2.46 0 0 1 1.422 1.281q.218.453.218 1.016 0 .735-.312 1.375a3.6 3.6 0 0 1-.828 1.11 4.4 4.4 0 0 1-1.188.765 4 4 0 0 1-1.375.312q.063.453.36.657.312.203.734.203.312 0 .609-.157.297-.156.579-.343.28-.203.546-.36a1.15 1.15 0 0 1 .563-.156q.312 0 .562.203a.65.65 0 0 1 .25.531m-2.531-3.828a.94.94 0 0 0-.109-.422.36.36 0 0 0-.344-.218.9.9 0 0 0-.578.187 1.4 1.4 0 0 0-.391.453q-.156.266-.25.578a3 3 0 0 0-.093.579q.218-.047.515-.125.312-.078.578-.204.282-.14.469-.343a.66.66 0 0 0 .203-.485m7.735-1.984q0 .453-.313.672a6 6 0 0 1-.672.422q-.375.188-.687.453-.297.266-.297.797a.9.9 0 0 0 .125.484q.14.203.328.375.203.157.437.328.235.172.422.39.204.22.328.532.141.313.141.766 0 .656-.344 1.297a4.2 4.2 0 0 1-.859 1.125 4.3 4.3 0 0 1-1.172.78q-.656.298-1.297.298-.266 0-.531-.047a1.5 1.5 0 0 1-.484-.14 1.04 1.04 0 0 1-.344-.298.9.9 0 0 1-.141-.515q0-.438.172-.672.172-.25.438-.39.265-.142.562-.22.312-.078.578-.187a1.4 1.4 0 0 0 .438-.313q.172-.188.172-.53 0-.329-.266-.673a14 14 0 0 0-.563-.75 8 8 0 0 1-.578-.86 2.04 2.04 0 0 1-.25-1q0-.67.266-1.233a3.4 3.4 0 0 1 .734-1q.47-.422 1.063-.657.594-.25 1.25-.25.25 0 .484.047.25.047.438.172a.8.8 0 0 1 .297.313.86.86 0 0 1 .125.484m5.203 0q0 .453-.313.672a6 6 0 0 1-.672.422q-.375.188-.687.453-.297.266-.297.797a.9.9 0 0 0 .125.484q.14.203.328.375.203.157.438.328t.421.39a1.7 1.7 0 0 1 .329.532q.14.313.14.766 0 .656-.344 1.297a4.2 4.2 0 0 1-.859 1.125 4.3 4.3 0 0 1-1.172.78q-.656.298-1.297.298-.266 0-.531-.047a1.5 1.5 0 0 1-.484-.14 1.04 1.04 0 0 1-.344-.298.9.9 0 0 1-.141-.515q0-.438.172-.672.173-.25.438-.39.265-.142.562-.22.312-.078.578-.187a1.4 1.4 0 0 0 .438-.313q.172-.188.172-.53 0-.329-.266-.673-.25-.36-.562-.75a8 8 0 0 1-.579-.86 2.04 2.04 0 0 1-.25-1q0-.67.266-1.233.281-.58.734-1 .47-.422 1.063-.657.593-.25 1.25-.25.25 0 .484.047.25.047.438.172a.8.8 0 0 1 .297.313.86.86 0 0 1 .125.484m7.172 5.812q0 .532-.344 1.047-.328.5-.844.907-.5.39-1.078.64-.579.234-1.063.235a2.76 2.76 0 0 1-1.484-.407 3.9 3.9 0 0 1-1.078-1.062 5.1 5.1 0 0 1-.672-1.406 5.6 5.6 0 0 1-.219-1.516q0-.78.219-1.672.22-.89.656-1.64.453-.75 1.125-1.25.688-.5 1.625-.5.531 0 1.016.187a2.46 2.46 0 0 1 1.422 1.281q.219.453.219 1.016a3.1 3.1 0 0 1-.313 1.375 3.6 3.6 0 0 1-.828 1.11 4.4 4.4 0 0 1-1.188.765 4 4 0 0 1-1.375.312q.063.453.36.657.312.203.734.203.313 0 .61-.157.296-.156.578-.343.28-.203.547-.36.281-.156.562-.156.312 0 .563.203t.25.531m-2.532-3.828a.94.94 0 0 0-.109-.422.36.36 0 0 0-.344-.218.9.9 0 0 0-.578.187 1.4 1.4 0 0 0-.391.453q-.156.266-.25.578a3 3 0 0 0-.093.579q.218-.047.515-.125.313-.078.578-.204.282-.14.469-.343a.66.66 0 0 0 .203-.485m7.594 7.047q-.266 0-.422-.25a1.7 1.7 0 0 1-.234-.547 4.4 4.4 0 0 1-.11-.625q-.015-.327-.015-.5 0-.468.047-.937l.125-.938q.078-.468.125-.937a7 7 0 0 0 .062-.938q0-.187-.015-.406a1.7 1.7 0 0 0-.079-.406.66.66 0 0 0-.171-.328.45.45 0 0 0-.329-.125q-.14 0-.312.234a3.3 3.3 0 0 0-.328.516q-.14.28-.25.578a1.5 1.5 0 0 0-.094.422v.703q.016.343.016.703v.906q-.016.282-.047.578a5 5 0 0 1-.094.578q-.047.282-.141.547a1.7 1.7 0 0 1-.25.453q-.14.188-.343.313a.9.9 0 0 1-.485.125.7.7 0 0 1-.515-.203 1.5 1.5 0 0 1-.328-.516 3.6 3.6 0 0 1-.188-.719 26 26 0 0 1-.078-.78q-.016-.392-.016-.704.016-.328.016-.516v-.734q0-.593-.031-1.172a41 41 0 0 1-.016-1.156v-.797q.015-.484.125-.937.11-.47.359-.797.25-.329.735-.328.219 0 .39.14.173.141.297.344.141.203.219.437.094.235.141.407.156-.22.359-.422a2.8 2.8 0 0 1 .484-.36 2.54 2.54 0 0 1 1.344-.343q.797 0 1.235.39.452.375.656.953.219.563.265 1.22.048.656.047 1.187 0 .265-.047.797-.046.515-.156 1.156-.094.625-.265 1.297-.172.655-.407 1.203a3 3 0 0 1-.562.89q-.313.344-.719.344m8.828-6.437q0 .078-.015.172a1 1 0 0 1-.047.156q-.141.36-.438.61a1.1 1.1 0 0 1-.703.234q-.609 0-.828-.61a.5.5 0 0 1-.031-.172q0-.109-.016-.218v-.454a.9.9 0 0 0-.109-.343q-.078-.126-.266-.125-.266 0-.516.343a3.8 3.8 0 0 0-.421.797 7 7 0 0 0-.282.938 3.7 3.7 0 0 0-.109.781q0 .234.031.578.032.329.125.64.094.314.25.548a.54.54 0 0 0 .438.218.8.8 0 0 0 .484-.156q.234-.172.453-.39.203-.188.438-.391a.87.87 0 0 1 .562-.203q.391 0 .61.281a.97.97 0 0 1 .234.64q0 .532-.281 1a3.2 3.2 0 0 1-.703.798q-.423.327-.938.515a2.7 2.7 0 0 1-.984.203q-.844 0-1.438-.422a3.3 3.3 0 0 1-.937-1.062 5 5 0 0 1-.516-1.422 7.3 7.3 0 0 1-.156-1.453q0-.796.219-1.719a6.4 6.4 0 0 1 .671-1.734 4.3 4.3 0 0 1 1.157-1.328q.719-.532 1.703-.532.609 0 1.047.266.453.265.734.703.297.422.438.953.156.532.156 1.047v.156a1 1 0 0 1-.016.157m3.453-4.907a.64.64 0 0 1-.125.391 1.2 1.2 0 0 1-.297.313q-.187.124-.406.203a1.5 1.5 0 0 1-.406.062.96.96 0 0 1-.547-.156q-.234-.156-.234-.484a.74.74 0 0 1 .109-.407 1 1 0 0 1 .297-.297 1.2 1.2 0 0 1 .391-.187q.218-.063.421-.063.298 0 .547.141t.25.484m.125 5.313v.469q0 .234-.015.453-.016.266-.016.719 0 .437-.031.953-.032.514-.11 1.047a4.4 4.4 0 0 1-.218.968 2 2 0 0 1-.422.72.9.9 0 0 1-.641.28.58.58 0 0 1-.5-.234 2.2 2.2 0 0 1-.344-.64 5.4 5.4 0 0 1-.187-.891 17 17 0 0 1-.094-.953 13 13 0 0 1-.031-.86V50.88q0-.47.031-1 .031-.532.11-1.078a6 6 0 0 1 .25-1q.171-.453.437-.735a.88.88 0 0 1 .672-.28q.422 0 .641.421.218.422.328.984.109.562.125 1.125.015.547.015.813m7.75 3.39q0 .282-.031.735-.015.453-.125.89a2.1 2.1 0 0 1-.344.735q-.234.312-.656.312-.577 0-.891-.375-.312-.375-.296-.937-.5.437-1.141.687-.625.25-1.281.25a1.8 1.8 0 0 1-.86-.218 2.7 2.7 0 0 1-.718-.563 2.8 2.8 0 0 1-.5-.765 2.2 2.2 0 0 1-.188-.86q0-.75.453-1.312a4.3 4.3 0 0 1 1.141-.953q.672-.407 1.422-.641a8.5 8.5 0 0 1 1.359-.313v-.14a.6.6 0 0 0 .016-.14q0-.486-.266-.782-.265-.297-.75-.297-.39 0-.672.14a3.3 3.3 0 0 0-.531.298q-.25.156-.5.296a1.24 1.24 0 0 1-.563.125.87.87 0 0 1-.593-.218.73.73 0 0 1-.235-.563q0-.516.297-.937.312-.423.766-.703a4 4 0 0 1 1-.454 3.4 3.4 0 0 1 1-.171q.421 0 .844.109.421.094.796.312.375.204.672.516.313.297.5.703.282.579.453 1.235.173.64.266 1.328.094.671.125 1.36.031.671.031 1.312m-2.5-.5-.047-1.062h-.062a.14.14 0 0 0-.063-.016q-.203 0-.515.11a2.3 2.3 0 0 0-.578.281 2.3 2.3 0 0 0-.485.39.7.7 0 0 0-.187.454q0 .219.156.297a.8.8 0 0 0 .359.078q.344 0 .735-.172.39-.187.687-.36m6.016-8.203a.65.65 0 0 1-.125.391 1.2 1.2 0 0 1-.297.313q-.187.124-.406.203a1.5 1.5 0 0 1-.406.062.96.96 0 0 1-.547-.156q-.235-.156-.235-.484a.74.74 0 0 1 .11-.407 1 1 0 0 1 .297-.297q.171-.124.39-.187a1.5 1.5 0 0 1 .422-.063q.297 0 .547.141t.25.484m.125 5.313v.469q0 .234-.016.453-.015.266-.015.719 0 .437-.032.953-.03.514-.109 1.047a4.4 4.4 0 0 1-.219.968 2 2 0 0 1-.422.72.9.9 0 0 1-.64.28.58.58 0 0 1-.5-.234 2.2 2.2 0 0 1-.344-.64 5.3 5.3 0 0 1-.187-.891 17 17 0 0 1-.094-.953 13 13 0 0 1-.031-.86v-1.281q0-.47.031-1 .031-.532.109-1.078.094-.547.25-1a2.2 2.2 0 0 1 .438-.735.88.88 0 0 1 .672-.28q.421 0 .64.421.219.422.328.984t.125 1.125q.016.547.016.813m5.687-3q0 .453-.312.672a6 6 0 0 1-.672.422q-.375.188-.687.453-.297.266-.297.797a.9.9 0 0 0 .125.484q.14.203.328.375.203.157.437.328.235.172.422.39.204.22.328.532.141.313.141.766 0 .656-.344 1.297a4.28 4.28 0 0 1-2.031 1.906q-.657.297-1.297.297-.265 0-.531-.047a1.5 1.5 0 0 1-.485-.14 1 1 0 0 1-.343-.298.9.9 0 0 1-.141-.515q0-.438.172-.672.171-.25.437-.39.266-.142.563-.22.312-.078.578-.187a1.4 1.4 0 0 0 .438-.313q.171-.188.171-.53 0-.329-.265-.673a14 14 0 0 0-.563-.75 8 8 0 0 1-.578-.86 2.03 2.03 0 0 1-.25-1q0-.67.266-1.233a3.4 3.4 0 0 1 .734-1q.47-.422 1.063-.657.593-.25 1.25-.25.25 0 .484.047.25.047.438.172a.8.8 0 0 1 .296.313.85.85 0 0 1 .125.484m3.547 2.047q0 .25-.031.687-.031.423-.094.922a9 9 0 0 1-.187 1q-.11.5-.266.922-.156.406-.375.672-.218.25-.5.25-.344 0-.594-.328a3.5 3.5 0 0 1-.406-.86 9 9 0 0 1-.25-1.171 19 19 0 0 1-.14-1.25 24 24 0 0 1-.063-1.141v-1.516q0-.437.031-.922.048-.483.125-.953.094-.484.266-.875.172-.39.453-.625a1.02 1.02 0 0 1 .703-.25q.375 0 .61.328.249.313.39.829.156.5.219 1.125.078.625.094 1.234.03.594.015 1.11zm-.297 5.937a.87.87 0 0 1-.125.47q-.124.186-.328.312a1.4 1.4 0 0 1-.437.203 1.8 1.8 0 0 1-.469.062q-.344 0-.656-.187-.313-.172-.313-.563 0-.234.125-.422.141-.203.344-.343t.438-.22q.249-.077.468-.077.36 0 .657.187.296.173.296.578"/><defs><filter id="a" width="278.966" height="119.589" x=".327" y="1.006" color-interpolation-filters="sRGB" filterUnits="userSpaceOnUse"><feFlood flood-opacity="0" result="BackgroundImageFix"/><feBlend in="SourceGraphic" in2="BackgroundImageFix" result="shape"/><feColorMatrix in="SourceAlpha" result="hardAlpha" values="0 0 0 0 0 0 0 0 0 0 0 0 0 0 0 0 0 0 127 0"/><feOffset dy="4"/><feGaussianBlur stdDeviation="2"/><feComposite in2="hardAlpha" k2="-1" k3="1" operator="arithmetic"/><feColorMatrix values="0 0 0 0 0 0 0 0 0 0 0 0 0 0 0 0 0 0 0.25 0"/><feBlend in2="shape" result="effect1_innerShadow_1138_2472"/></filter></defs></svg>