<svg xmlns="http://www.w3.org/2000/svg" width="289" height="116" fill="none" viewBox="0 0 289 116"><g filter="url(#a)"><path fill="#3dc3ff" fill-rule="evenodd" d="M38.83 75.425C12.734 67.787 1.344 56.515 1.344 44.317c0-15.01 22.973-29.839 60.975-37.17 18.433-3.557 40.089-5.105 64.972-5.105 76.183 0 146.439 15.314 143.441 42.275 0 13.377-13.003 25.678-39.485 33.022-5.485 1.521-11.523 2.806-18.156 3.854-9.005 14.793-22.289 22.081-44.485 33.807 15.585-13.086 25.227-21.596 28.871-31.878-11.15 1.037-23.672 1.555-37.699 1.555-53.997 2.394-94.836-1.61-120.95-9.252" clip-rule="evenodd"/></g><path fill="#3dc3ff" d="m38.83 75.425-.282.96zM62.32 7.146l-.19-.981zm208.413 37.17-.994-.11a1 1 0 0 0-.006.11zM231.248 77.34l.267.964zm-18.156 3.854-.156-.988a1 1 0 0 0-.698.468zM168.607 115l-.643-.766a1 1 0 0 0 1.11 1.65zm28.871-31.878.943.334a1 1 0 0 0-1.035-1.33zm-37.699 1.555v-1l-.044.001zM1.345 44.317h-1c0 6.45 3.024 12.576 9.302 18.02 6.258 5.427 15.78 10.207 28.901 14.047l.281-.96.281-.96c-12.972-3.796-22.193-8.47-28.153-13.638-5.94-5.151-8.612-10.76-8.612-16.51zM62.32 7.147l-.19-.982c-19.073 3.68-34.444 9.252-45.075 15.837C6.475 28.556.345 36.277.345 44.317h2c0-6.971 5.358-14.17 15.764-20.615 10.356-6.414 25.472-11.922 44.4-15.574zm64.972-5.105v-1c-24.919 0-46.644 1.55-65.161 5.123l.19.981.189.982c18.348-3.54 39.936-5.086 64.782-5.086zm143.441 42.275.993.11c.808-7.26-3.356-13.58-10.848-18.905-7.496-5.327-18.509-9.806-31.912-13.419-26.826-7.229-63.53-11.061-101.674-11.061v2c38.04 0 74.555 3.824 101.153 10.993 13.309 3.586 24.059 7.99 31.274 13.117 7.219 5.13 10.712 10.834 10.02 17.054zm-39.485 33.022.267.964c13.326-3.696 23.349-8.661 30.059-14.456 6.724-5.806 10.159-12.483 10.159-19.53h-2c0 6.33-3.067 12.492-9.466 18.017-6.411 5.536-16.13 10.393-29.286 14.041zm-18.156 3.854.156.988c6.664-1.053 12.74-2.346 18.267-3.878l-.267-.964-.267-.964c-5.444 1.51-11.444 2.787-18.045 3.83zm0 0-.854-.52c-8.838 14.518-21.854 21.691-44.098 33.443l.467.884.467.884c22.147-11.7 35.699-19.103 44.872-34.171zM168.607 115l.643.766c7.785-6.537 14.135-11.971 18.994-17.067 4.865-5.101 8.29-9.918 10.177-15.243l-.943-.334-.942-.334c-1.757 4.957-4.976 9.536-9.739 14.531-4.77 5.002-11.033 10.366-18.833 16.915zm-8.828-30.323v1c14.051 0 26.604-.519 37.792-1.56l-.093-.995-.092-.996c-11.114 1.034-23.603 1.551-37.607 1.551zm-120.95-9.252-.28.96c26.263 7.686 67.225 11.688 121.275 9.291l-.045-.999-.044-.999c-53.946 2.392-94.66-1.614-120.625-9.213z"/><path fill="#fff" d="M34.235 26.901q0 .297-.14.532a1.3 1.3 0 0 1-.345.406 2.6 2.6 0 0 1-1 .422 70 70 0 0 1-.14 3.406 51 51 0 0 1-.313 3.39h.094q.25 0 .484.063.25.047.438.188.203.124.312.328a.83.83 0 0 1 .125.468q0 .36-.234.626a1.8 1.8 0 0 1-.594.453q-.36.188-.812.312a7 7 0 0 1-.907.188 9 9 0 0 1-1.515.14q-.187 0-.469-.015a2 2 0 0 1-.516-.094 1.1 1.1 0 0 1-.406-.234.54.54 0 0 1-.172-.422q0-.33.141-.578.125-.267.344-.47t.484-.327q.282-.126.563-.188.109-.859.203-1.703a24 24 0 0 0 .125-1.734l.125-3.5-.203.03h-.172q-.219 0-.469-.046a1.8 1.8 0 0 1-.469-.156 1.5 1.5 0 0 1-.375-.297.67.67 0 0 1-.14-.438q0-.53.437-.875a3.4 3.4 0 0 1 1.063-.53 6.6 6.6 0 0 1 1.265-.25q.64-.08 1.031-.079.219 0 .579.031.36.032.703.14.36.11.61.298a.6.6 0 0 1 .265.515m4.797 2.016q0 .453-.313.672a6 6 0 0 1-.672.422q-.375.188-.687.453-.297.266-.297.797 0 .281.125.484.14.203.328.375.202.156.438.328.234.172.421.39.204.22.328.532.141.313.141.766 0 .656-.344 1.297a4.3 4.3 0 0 1-.859 1.125 4.3 4.3 0 0 1-1.172.78q-.656.298-1.297.298-.265 0-.531-.047a1.5 1.5 0 0 1-.484-.14 1.04 1.04 0 0 1-.344-.298.9.9 0 0 1-.14-.515q0-.438.171-.672.172-.25.438-.39a2.6 2.6 0 0 1 .562-.22 4 4 0 0 0 .578-.187q.265-.124.438-.312.171-.188.172-.532 0-.328-.266-.672-.25-.36-.562-.75a8 8 0 0 1-.579-.859 2.04 2.04 0 0 1-.25-1q0-.672.266-1.234a3.4 3.4 0 0 1 .734-1 3.5 3.5 0 0 1 1.063-.657q.593-.25 1.25-.25.25 0 .484.047.25.048.438.172a.8.8 0 0 1 .297.313.86.86 0 0 1 .125.484m5.203 0q0 .453-.313.672a6 6 0 0 1-.672.422q-.375.188-.687.453-.297.266-.297.797 0 .281.125.484.14.203.328.375.203.156.438.328a2.5 2.5 0 0 1 .422.39q.202.22.328.532.14.313.14.766 0 .656-.343 1.297a4.3 4.3 0 0 1-.86 1.125 4.3 4.3 0 0 1-1.172.78q-.656.298-1.297.298-.266 0-.53-.047a1.5 1.5 0 0 1-.485-.14 1.04 1.04 0 0 1-.344-.298.9.9 0 0 1-.14-.515q0-.438.171-.672.172-.25.438-.39a2.6 2.6 0 0 1 .562-.22q.313-.078.578-.187.266-.124.438-.312t.172-.532q0-.328-.266-.672-.25-.36-.562-.75a8 8 0 0 1-.578-.859 2.04 2.04 0 0 1-.25-1q0-.672.265-1.234a3.4 3.4 0 0 1 .734-1 3.5 3.5 0 0 1 1.063-.657q.594-.25 1.25-.25.25 0 .484.047.25.048.438.172a.8.8 0 0 1 .297.313.86.86 0 0 1 .125.484m3.593 9.047q-.795 0-1.39-.422a3.7 3.7 0 0 1-1-1.078 5.2 5.2 0 0 1-.61-1.453 6.6 6.6 0 0 1-.203-1.594q0-.828.203-1.703.204-.89.625-1.61.422-.735 1.079-1.187.656-.469 1.562-.469.876 0 1.484.485.625.468 1 1.187.376.704.532 1.547.156.844.11 1.594a8.6 8.6 0 0 1-.267 1.672 5.3 5.3 0 0 1-.609 1.515q-.405.672-1.031 1.094t-1.485.422m.157-7.063q-.235 0-.422.25-.173.25-.297.61-.11.36-.172.765-.062.39-.062.688 0 .375.062.812.078.438.203.813.126.36.297.61.188.234.422.234.25 0 .422-.235a1.8 1.8 0 0 0 .297-.593q.11-.36.156-.782.047-.437.047-.812 0-.345-.063-.75a4.3 4.3 0 0 0-.187-.782 1.8 1.8 0 0 0-.297-.593q-.172-.235-.406-.235m17.281 1.454v.812q0 .5-.031 1.094-.016.594-.094 1.203a5.3 5.3 0 0 1-.25 1.078q-.156.484-.406.797a.78.78 0 0 1-.64.312.6.6 0 0 1-.532-.28 2.2 2.2 0 0 1-.25-.688 5 5 0 0 1-.094-.797v-.64q0-.705.047-1.376.047-.672.047-1.375v-.281q0-.204-.031-.406a1.2 1.2 0 0 0-.11-.36q-.062-.156-.203-.156-.28 0-.453.297a2.7 2.7 0 0 0-.281.672q-.11.39-.157.781-.046.375-.062.563-.031.203-.062.609-.016.406-.063.89-.03.485-.125 1-.078.5-.219.922-.124.407-.328.672-.203.266-.5.266a.64.64 0 0 1-.578-.328 2.4 2.4 0 0 1-.297-.766 6 6 0 0 1-.125-.89q-.016-.454-.016-.704v-.515a8 8 0 0 0 .016-.516v-.36q0-.249-.016-.546 0-.313-.03-.64a5 5 0 0 0-.063-.594 1.5 1.5 0 0 0-.14-.454q-.094-.171-.22-.171-.202 0-.375.265-.171.25-.297.61a6 6 0 0 0-.203.687q-.062.344-.062.5v.094q0 .75.094 1.468.093.72.093 1.47 0 .436-.28.812-.282.36-.782.36a.76.76 0 0 1-.594-.267 2.4 2.4 0 0 1-.39-.718 6 6 0 0 1-.25-.953 12 12 0 0 1-.11-1.032q-.03-.514-.047-.922v-.624q0-.235-.015-.688 0-.453.015-.984.031-.532.094-1.078.063-.563.203-1.016t.36-.734a.73.73 0 0 1 .593-.297q.407 0 .657.218.265.219.265.657 0 .093-.016.187a1 1 0 0 1-.015.172 3.6 3.6 0 0 1 .422-.5 3.7 3.7 0 0 1 .531-.469q.297-.219.625-.343.329-.141.656-.141a.97.97 0 0 1 .563.172q.25.171.437.437.188.251.313.547.124.297.172.563.156-.282.375-.563.234-.297.5-.515t.578-.36q.328-.14.672-.14.328 0 .562.234t.406.61q.173.359.266.827.094.454.156.907.063.437.078.828.016.375.016.594m7.578 2.375q0 .531-.344 1.046-.328.5-.843.907-.5.39-1.078.64-.579.235-1.063.235a2.76 2.76 0 0 1-1.484-.407 3.9 3.9 0 0 1-1.078-1.062 5.2 5.2 0 0 1-.672-1.406 5.6 5.6 0 0 1-.22-1.516q0-.78.22-1.672.218-.89.656-1.64.453-.75 1.125-1.25.687-.5 1.625-.5.531 0 1.016.187a2.45 2.45 0 0 1 1.421 1.281q.22.453.22 1.016 0 .735-.313 1.375a3.6 3.6 0 0 1-.828 1.11q-.516.468-1.188.765a4 4 0 0 1-1.375.312q.062.453.36.657.312.203.734.203.312 0 .61-.157.296-.156.577-.343.282-.204.547-.36a1.15 1.15 0 0 1 .563-.156q.312 0 .562.203t.25.532m-2.531-3.83a.94.94 0 0 0-.11-.421.36.36 0 0 0-.343-.22.9.9 0 0 0-.578.188 1.4 1.4 0 0 0-.391.453 2.6 2.6 0 0 0-.25.579 3 3 0 0 0-.094.578q.219-.047.516-.125.312-.078.578-.203.282-.141.469-.344a.66.66 0 0 0 .203-.485m7.734-1.984q0 .453-.312.672a6 6 0 0 1-.672.422q-.376.188-.688.453-.296.266-.296.797 0 .281.125.484.14.203.328.375.202.156.437.328a2.5 2.5 0 0 1 .422.39q.203.22.328.532.14.313.14.766 0 .656-.343 1.297a4.3 4.3 0 0 1-.86 1.125 4.3 4.3 0 0 1-1.171.78q-.657.298-1.297.298-.266 0-.531-.047a1.5 1.5 0 0 1-.485-.14 1.04 1.04 0 0 1-.343-.298.9.9 0 0 1-.141-.515q0-.438.172-.672.171-.25.437-.39a2.6 2.6 0 0 1 .563-.22q.311-.078.578-.187.266-.124.437-.312.172-.188.172-.532 0-.328-.265-.672-.25-.36-.563-.75a8 8 0 0 1-.578-.859 2.04 2.04 0 0 1-.25-1q0-.672.266-1.234a3.4 3.4 0 0 1 .734-1 3.5 3.5 0 0 1 1.063-.657q.593-.25 1.25-.25.25 0 .484.047.25.048.437.172a.8.8 0 0 1 .297.313.86.86 0 0 1 .125.484m10.11 3.438v.812q0 .5-.032 1.094-.015.594-.093 1.203a5.3 5.3 0 0 1-.25 1.078q-.157.484-.407.797a.79.79 0 0 1-.64.312.6.6 0 0 1-.531-.28 2.2 2.2 0 0 1-.25-.688 5 5 0 0 1-.094-.797v-.64q0-.705.047-1.376.046-.672.047-1.375v-.281q0-.204-.032-.406a1.2 1.2 0 0 0-.11-.36q-.06-.156-.202-.156-.282 0-.453.297a2.7 2.7 0 0 0-.282.672q-.11.39-.156.781-.047.375-.062.563-.031.203-.063.609-.015.406-.062.89-.032.485-.125 1-.078.5-.22.922-.124.407-.327.672t-.5.266a.64.64 0 0 1-.578-.328 2.4 2.4 0 0 1-.297-.766 6 6 0 0 1-.125-.89q-.016-.454-.016-.704v-.515a8 8 0 0 0 .016-.516v-.36q0-.249-.016-.546 0-.313-.031-.64a5 5 0 0 0-.063-.594 1.5 1.5 0 0 0-.14-.454q-.094-.171-.219-.171-.203 0-.375.265-.172.25-.297.61a6 6 0 0 0-.203.687q-.062.344-.062.5v.094q0 .75.093 1.468.094.72.094 1.47 0 .436-.281.812-.282.36-.781.36a.76.76 0 0 1-.594-.267 2.4 2.4 0 0 1-.39-.718 6 6 0 0 1-.25-.953 12 12 0 0 1-.11-1.032q-.032-.514-.047-.922v-.624q0-.235-.016-.688 0-.453.016-.984.03-.532.094-1.078.062-.563.203-1.016.14-.453.36-.734a.73.73 0 0 1 .593-.297q.406 0 .656.218.266.219.266.657 0 .093-.016.187a1 1 0 0 1-.015.172q.171-.25.421-.5.25-.265.532-.469a2.6 2.6 0 0 1 .625-.343q.327-.141.656-.141a.97.97 0 0 1 .562.172q.25.171.438.437.187.251.312.547.126.297.172.563.157-.282.375-.563a3.4 3.4 0 0 1 .5-.515q.266-.219.578-.36a1.7 1.7 0 0 1 .672-.14q.329 0 .563.234t.406.61q.172.359.266.827.093.454.156.907.062.437.078.828.015.375.016.594m4 5.609q-.798 0-1.391-.422a3.7 3.7 0 0 1-1-1.078 5.2 5.2 0 0 1-.61-1.453 6.6 6.6 0 0 1-.203-1.594q0-.828.204-1.703.202-.89.625-1.61.42-.735 1.078-1.187.656-.469 1.562-.469.875 0 1.485.485.624.468 1 1.187.375.704.53 1.547a6.5 6.5 0 0 1 .11 1.594 8.6 8.6 0 0 1-.265 1.672 5.3 5.3 0 0 1-.61 1.515q-.405.672-1.031 1.094t-1.484.422m.156-7.063q-.234 0-.422.25-.172.25-.297.61-.11.36-.172.765-.062.39-.062.688 0 .375.062.812.078.438.203.813.126.36.297.61.188.234.422.234.25 0 .422-.235a1.8 1.8 0 0 0 .297-.593q.11-.36.156-.782.047-.437.047-.812 0-.345-.062-.75a4.3 4.3 0 0 0-.188-.782 1.8 1.8 0 0 0-.297-.593q-.172-.235-.406-.235m6.281 5.782q0 .25-.14.64-.126.39-.329.766-.187.375-.437.64-.25.267-.484.266-.313 0-.313-.312 0-.187.078-.36.079-.171.172-.343a3 3 0 0 0 .172-.329.7.7 0 0 0 .078-.312.9.9 0 0 1-.5.156.79.79 0 0 1-.61-.281.92.92 0 0 1-.25-.625q0-.501.329-.797.328-.312.828-.312.563 0 .984.296.422.297.422.907m11.844-1.328q0 .39-.328.734a3.2 3.2 0 0 1-.828.625 7 7 0 0 1-1.125.5q-.626.203-1.235.344-.609.156-1.156.234a6 6 0 0 1-.844.078q-.297 0-.64-.062a1.05 1.05 0 0 1-.547-.235q-.126-.093-.219-.422-.094-.328-.188-.78a20 20 0 0 1-.14-.97 46 46 0 0 1-.11-1.03q-.03-.501-.062-.923-.016-.422-.016-.656 0-.39.016-.937.031-.562.078-1.188.047-.641.125-1.297t.172-1.234q.11-.594.25-1.063a3.3 3.3 0 0 1 .328-.734q.297-.422.75-.422.313 0 .531.219.22.202.344.547.141.327.203.75.078.405.11.812.03.407.031.75v.547q0 1.22-.063 2.422a62 62 0 0 0-.047 2.406v.61q.704-.22 1.532-.407a6.6 6.6 0 0 1 1.578-.203q.266 0 .531.031.282.032.484.141a.73.73 0 0 1 .344.297q.141.188.141.516m2.969-8.75a.65.65 0 0 1-.125.39 1.2 1.2 0 0 1-.297.313 2 2 0 0 1-.407.203 1.5 1.5 0 0 1-.406.062.97.97 0 0 1-.547-.156q-.234-.157-.234-.484a.74.74 0 0 1 .109-.407q.126-.188.297-.296a1.2 1.2 0 0 1 .391-.188q.219-.063.422-.062.297 0 .547.14t.25.485m.125 5.312v.469q0 .234-.016.453-.016.265-.016.719 0 .437-.031.953a12 12 0 0 1-.109 1.047 4.4 4.4 0 0 1-.219.968 2 2 0 0 1-.422.72.9.9 0 0 1-.641.28.58.58 0 0 1-.5-.234 2.2 2.2 0 0 1-.343-.64 5.3 5.3 0 0 1-.188-.891 18 18 0 0 1-.094-.953q-.03-.47-.031-.86v-1.281q0-.468.031-1 .032-.531.11-1.078.094-.547.25-1 .171-.453.437-.734a.88.88 0 0 1 .672-.282q.422 0 .641.422t.328.985q.11.563.125 1.125.015.546.016.812m4.75 6.156q-1.11 0-1.735-.297a2.02 2.02 0 0 1-.922-.812q-.296-.531-.359-1.281t-.063-1.672q0-.735.047-1.469.047-.75.141-1.594-.219 0-.344.016h-.203q-.5 0-.859-.219-.375-.219-.375-.672a.7.7 0 0 1 .218-.5q.204-.218.532-.375.328-.156.703-.25a5 5 0 0 1 .734-.125q0-.437.063-.968.062-.532.218-.985.172-.468.454-.781a.92.92 0 0 1 .718-.313q.25 0 .438.157.203.14.328.375.125.218.187.5.063.281.063.547 0 .312-.047.64-.046.328-.172.813.266-.032.36-.032a1 1 0 0 1 .171-.015q.267 0 .547.047.297.046.532.156.25.11.406.297a.6.6 0 0 1 .156.422.67.67 0 0 1-.234.5q-.22.217-.563.375a4 4 0 0 1-.734.25 7 7 0 0 1-.735.109q-.093.64-.14 1.188-.032.53-.078 1.078l-.063.547q-.015.266-.015.546 0 .203.015.485.016.266.11.515.093.25.296.438.203.172.563.172.219 0 .453-.032.235-.046.469-.046.406 0 .578.28.187.282.187.72a.9.9 0 0 1-.203.578 1.34 1.34 0 0 1-.484.375 2.6 2.6 0 0 1-.672.234 3.2 3.2 0 0 1-.687.078m9-2.765q0 .28-.032.734-.015.453-.125.89a2.1 2.1 0 0 1-.343.735q-.235.313-.657.313-.578 0-.89-.375-.314-.375-.297-.938a3.8 3.8 0 0 1-1.141.688q-.625.25-1.281.25-.454 0-.859-.22a2.7 2.7 0 0 1-.719-.562 2.9 2.9 0 0 1-.5-.765 2.2 2.2 0 0 1-.188-.86q0-.75.453-1.312a4.3 4.3 0 0 1 1.141-.953q.672-.407 1.422-.641.766-.234 1.359-.312v-.141a.6.6 0 0 0 .016-.14q0-.486-.266-.782t-.75-.297q-.39 0-.672.14a3.3 3.3 0 0 0-.531.298q-.25.156-.5.297a1.24 1.24 0 0 1-.562.125.87.87 0 0 1-.594-.22.74.74 0 0 1-.234-.562q0-.515.296-.937.313-.422.766-.703a4 4 0 0 1 1-.453 3.4 3.4 0 0 1 1-.172q.422 0 .844.109.422.094.797.313.375.203.672.515.312.297.5.703.28.579.453 1.235.172.64.265 1.328.095.671.125 1.36.032.67.032 1.312m-2.5-.5-.047-1.063h-.063a.14.14 0 0 0-.062-.015q-.204 0-.516.109a2.3 2.3 0 0 0-.578.281 2.3 2.3 0 0 0-.484.39.7.7 0 0 0-.188.454q0 .219.156.297a.8.8 0 0 0 .36.078q.344 0 .734-.172.391-.187.688-.36m6.359-3.844q0 .25-.031.687-.031.423-.094.922a9 9 0 0 1-.188 1 7 7 0 0 1-.265.922q-.156.407-.375.672-.22.25-.5.25-.344 0-.594-.328a3.5 3.5 0 0 1-.406-.86 8.5 8.5 0 0 1-.25-1.171q-.095-.642-.141-1.25a26 26 0 0 1-.062-1.141v-1.516q0-.437.031-.921.047-.484.125-.954.093-.484.266-.875a1.66 1.66 0 0 1 .453-.625q.281-.25.703-.25.375 0 .609.329.25.312.391.828.156.5.219 1.125.078.624.093 1.234.031.594.016 1.11zm-.297 5.937a.9.9 0 0 1-.125.47q-.125.186-.328.312a1.4 1.4 0 0 1-.438.203 1.8 1.8 0 0 1-.468.062q-.344 0-.657-.187-.312-.172-.312-.563 0-.234.125-.422.14-.203.344-.343t.437-.22q.25-.077.469-.077.36 0 .656.187.297.172.297.578m11.922-7.343q0 .297-.078.625a2 2 0 0 1-.219.609 1.5 1.5 0 0 1-.406.469 1 1 0 0 1-.61.187q-.546 0-.812-.187a1.1 1.1 0 0 1-.375-.5 2 2 0 0 1-.125-.625q0-.345-.016-.64a1.2 1.2 0 0 0-.109-.485q-.078-.203-.359-.203a.75.75 0 0 0-.547.234 1.9 1.9 0 0 0-.407.578q-.171.36-.296.813-.11.453-.188.906-.063.438-.094.844-.03.39-.031.64 0 .329.016.782.031.453.156.875.124.406.375.703.25.28.719.28.312 0 .609-.077.297-.078.594-.172.297-.11.594-.188.312-.078.625-.078.359 0 .593.297a.97.97 0 0 1 .235.64q0 .501-.313.938a3.4 3.4 0 0 1-.781.75 3.8 3.8 0 0 1-1 .516 3 3 0 0 1-.969.187q-1.125 0-1.906-.515a4 4 0 0 1-1.266-1.297 6 6 0 0 1-.703-1.797 10 10 0 0 1-.203-1.984q0-.657.125-1.438.124-.781.375-1.562a10 10 0 0 1 .625-1.532q.391-.734.906-1.296.516-.563 1.157-.907.655-.343 1.437-.343.766 0 1.281.39.516.375.828.969.314.578.438 1.281.125.687.125 1.313m3.594 8.406q-.798 0-1.391-.422a3.7 3.7 0 0 1-1-1.078 5.2 5.2 0 0 1-.609-1.453 6.5 6.5 0 0 1-.203-1.594q0-.828.203-1.703.202-.89.625-1.61.421-.735 1.078-1.187.656-.469 1.562-.469.875 0 1.485.485.625.468 1 1.187.375.704.531 1.547a6.5 6.5 0 0 1 .109 1.594 8.6 8.6 0 0 1-.265 1.672 5.3 5.3 0 0 1-.61 1.515q-.405.672-1.031 1.094t-1.484.422m.156-7.063q-.234 0-.422.25-.171.25-.297.61-.11.36-.172.765-.062.39-.062.688 0 .375.062.812.078.438.203.813a2.6 2.6 0 0 0 .297.61q.188.234.422.234.25 0 .422-.235.188-.234.297-.593.11-.36.156-.782.047-.437.047-.812 0-.345-.062-.75a4.4 4.4 0 0 0-.188-.782 1.8 1.8 0 0 0-.297-.593q-.172-.235-.406-.235m8.469 7.047q-.266 0-.422-.25a1.8 1.8 0 0 1-.235-.547 4.4 4.4 0 0 1-.109-.625q-.015-.327-.016-.5 0-.468.047-.937l.125-.938q.078-.468.125-.937a7 7 0 0 0 .063-.938q0-.187-.016-.406a1.6 1.6 0 0 0-.078-.406.66.66 0 0 0-.172-.328.44.44 0 0 0-.328-.125q-.141 0-.312.234a3.4 3.4 0 0 0-.329.516q-.14.28-.25.578a1.5 1.5 0 0 0-.093.422v.703q.015.343.015.703v.906q-.015.282-.047.578a5 5 0 0 1-.093.578q-.047.282-.141.547a1.7 1.7 0 0 1-.25.453 1.2 1.2 0 0 1-.344.313.9.9 0 0 1-.484.125.7.7 0 0 1-.516-.203 1.5 1.5 0 0 1-.328-.516 3.6 3.6 0 0 1-.187-.718q-.048-.407-.078-.782-.016-.39-.016-.703.016-.328.016-.515v-.735q0-.594-.032-1.172-.015-.577-.015-1.156v-.797q.015-.484.125-.937a2.1 2.1 0 0 1 .359-.797q.25-.328.734-.328a.6.6 0 0 1 .391.14q.173.141.297.344.141.202.219.438.093.234.14.406.157-.22.36-.422a2.8 2.8 0 0 1 .484-.36 2.54 2.54 0 0 1 1.344-.343q.797 0 1.234.39.453.375.656.954.22.562.266 1.218.047.657.047 1.188 0 .265-.047.797-.046.515-.156 1.156-.094.624-.266 1.297a8.5 8.5 0 0 1-.406 1.203 3 3 0 0 1-.563.89q-.312.345-.718.344m10.125-4.484q0 .266-.016.797 0 .515-.047 1.093-.031.563-.094 1.079-.061.5-.156.734-.124.297-.328.516-.203.218-.547.218-.531 0-.765-.422-.235-.421-.313-1.046a9 9 0 0 1-.062-1.36q.015-.735-.016-1.36a4 4 0 0 0-.172-1.046q-.141-.422-.516-.422-.515 0-.796.172a.95.95 0 0 0-.391.422q-.11.265-.141.61-.015.343-.047.718-.03.36-.046.969a6.7 6.7 0 0 1-.141 1.203 2.9 2.9 0 0 1-.422 1.031q-.281.422-.844.422a.7.7 0 0 1-.562-.266 2.1 2.1 0 0 1-.328-.687 5.7 5.7 0 0 1-.188-.938 17 17 0 0 1-.062-1v-.906q.015-.406.015-.61 0-.312.016-1.03.031-.719.109-1.594.078-.89.203-1.828.126-.938.329-1.703.202-.782.484-1.266.297-.485.687-.469.25.015.422.219.188.203.297.531.126.313.203.688t.11.75q.047.36.047.672.015.313.015.484a22 22 0 0 1-.062 1.625 2.76 2.76 0 0 1 .953-.797 2.65 2.65 0 0 1 1.219-.312q.78 0 1.171.437.406.421.579 1.063.172.624.187 1.343.016.703.016 1.266m7.656 1.266q0 .531-.344 1.046-.328.5-.844.907-.5.39-1.078.64-.577.235-1.062.235a2.77 2.77 0 0 1-1.485-.407 3.9 3.9 0 0 1-1.078-1.062 5.2 5.2 0 0 1-.672-1.406 5.6 5.6 0 0 1-.218-1.516q0-.78.218-1.672.219-.89.657-1.64.453-.75 1.125-1.25.687-.5 1.625-.5.53 0 1.015.187.485.172.844.5.36.329.578.781.219.453.219 1.016 0 .735-.313 1.375a3.6 3.6 0 0 1-.828 1.11 4.4 4.4 0 0 1-1.187.765 4 4 0 0 1-1.375.312q.063.453.359.657.313.203.735.203.312 0 .609-.157a6 6 0 0 0 .578-.343q.282-.204.547-.36.281-.156.562-.156a.87.87 0 0 1 .563.203q.25.204.25.532m-2.531-3.829a.94.94 0 0 0-.11-.421.36.36 0 0 0-.343-.22.9.9 0 0 0-.579.188 1.4 1.4 0 0 0-.39.453q-.156.265-.25.579a3 3 0 0 0-.094.578q.219-.047.516-.125.312-.078.578-.203.281-.141.469-.344a.66.66 0 0 0 .203-.485m8.953.61q0 .078-.016.172a1 1 0 0 1-.047.156 1.5 1.5 0 0 1-.437.61 1.1 1.1 0 0 1-.703.234q-.61 0-.828-.61a.5.5 0 0 1-.032-.172q0-.109-.015-.218v-.453a.9.9 0 0 0-.11-.344q-.078-.125-.265-.125-.265 0-.516.344a3.8 3.8 0 0 0-.422.796 7 7 0 0 0-.281.938 3.7 3.7 0 0 0-.109.781q0 .235.031.578.031.328.125.64.094.315.25.548.171.219.437.218a.8.8 0 0 0 .485-.156 4 4 0 0 0 .453-.39q.203-.188.437-.391a.87.87 0 0 1 .563-.203q.39 0 .609.281a.98.98 0 0 1 .235.64q0 .532-.282 1a3.2 3.2 0 0 1-.703.798q-.422.327-.937.515a2.7 2.7 0 0 1-.985.203q-.843 0-1.437-.422a3.3 3.3 0 0 1-.938-1.062 5 5 0 0 1-.515-1.422 7.3 7.3 0 0 1-.157-1.453q0-.796.219-1.719.219-.937.672-1.734a4.3 4.3 0 0 1 1.156-1.328q.72-.531 1.703-.531.61 0 1.047.265.453.266.735.703.297.423.437.953.156.533.156 1.047v.157a1 1 0 0 1-.015.156m3.453-4.906a.65.65 0 0 1-.125.39 1.2 1.2 0 0 1-.297.313 1.8 1.8 0 0 1-.406.203 1.5 1.5 0 0 1-.406.062.96.96 0 0 1-.547-.156q-.235-.157-.235-.484a.74.74 0 0 1 .11-.407 1 1 0 0 1 .297-.296q.171-.125.39-.188.22-.063.422-.062.297 0 .547.14t.25.485m.125 5.312v.469q0 .234-.016.453-.015.265-.015.719 0 .437-.032.953-.03.515-.109 1.047a4.4 4.4 0 0 1-.219.968 2 2 0 0 1-.422.72.9.9 0 0 1-.64.28.58.58 0 0 1-.5-.234 2.2 2.2 0 0 1-.344-.64 5.3 5.3 0 0 1-.187-.891 17 17 0 0 1-.094-.953 13 13 0 0 1-.031-.86v-1.281q0-.468.031-1 .031-.531.109-1.078.094-.547.25-1a2.2 2.2 0 0 1 .438-.734.88.88 0 0 1 .672-.282q.421 0 .64.422t.328.985q.11.563.125 1.125.016.546.016.812m10.594.438v.812q0 .5-.032 1.094-.015.594-.093 1.203a5.3 5.3 0 0 1-.25 1.078q-.156.484-.407.797a.78.78 0 0 1-.64.312.6.6 0 0 1-.531-.28 2.2 2.2 0 0 1-.25-.688 5 5 0 0 1-.094-.797v-.64q0-.705.047-1.376.047-.672.047-1.375v-.281q0-.204-.032-.406a1.2 1.2 0 0 0-.109-.36q-.062-.156-.203-.156-.282 0-.453.297a2.7 2.7 0 0 0-.282.672q-.109.39-.156.781-.047.375-.062.563a9 9 0 0 0-.063.609q-.015.406-.062.89a9 9 0 0 1-.125 1q-.078.5-.219.922-.125.407-.328.672t-.5.266a.64.64 0 0 1-.578-.328 2.4 2.4 0 0 1-.297-.766 6 6 0 0 1-.125-.89 20 20 0 0 1-.016-.704v-.515q.016-.25.016-.516v-.36a10 10 0 0 0-.016-.546q0-.313-.031-.64a5 5 0 0 0-.063-.594 1.5 1.5 0 0 0-.14-.454q-.094-.171-.219-.171-.203 0-.375.265-.171.25-.297.61-.125.343-.203.687-.062.344-.062.5v.094q0 .75.093 1.468.094.72.094 1.47 0 .436-.281.812-.282.36-.781.36a.76.76 0 0 1-.594-.267 2.4 2.4 0 0 1-.391-.718 6 6 0 0 1-.25-.953 13 13 0 0 1-.109-1.032 39 39 0 0 1-.047-.922v-.624q0-.235-.016-.688 0-.453.016-.984.031-.532.094-1.078.062-.563.203-1.016.14-.453.359-.734a.73.73 0 0 1 .594-.297q.407 0 .656.218.266.219.266.657 0 .093-.016.187 0 .094-.015.172.172-.25.421-.5.25-.265.532-.469.297-.219.625-.343.327-.141.656-.141.313 0 .562.172t.438.437q.188.251.312.547.126.297.172.563a5 5 0 0 1 .375-.563q.235-.297.5-.515.266-.219.578-.36.329-.14.672-.14.329 0 .563.234t.406.61q.172.359.266.827.093.454.156.907.063.437.078.828.016.375.016.594m7.578 2.375q0 .531-.344 1.046-.328.5-.844.907-.5.39-1.078.64-.578.235-1.062.235a2.77 2.77 0 0 1-1.485-.407 3.9 3.9 0 0 1-1.078-1.062 5.2 5.2 0 0 1-.672-1.406 5.6 5.6 0 0 1-.218-1.516q0-.78.218-1.672.219-.89.657-1.64.453-.75 1.125-1.25.687-.5 1.625-.5.53 0 1.015.187a2.46 2.46 0 0 1 1.422 1.281q.219.453.219 1.016 0 .735-.313 1.375a3.6 3.6 0 0 1-.828 1.11 4.4 4.4 0 0 1-1.187.765 4 4 0 0 1-1.375.312q.062.453.359.657.312.203.734.203.313 0 .61-.157.297-.156.578-.343.281-.204.547-.36.281-.156.562-.156a.87.87 0 0 1 .563.203q.25.204.25.532m-2.531-3.829a.94.94 0 0 0-.11-.421.36.36 0 0 0-.344-.22.9.9 0 0 0-.578.188 1.4 1.4 0 0 0-.39.453q-.156.265-.25.579a3 3 0 0 0-.094.578q.219-.047.516-.125.312-.078.578-.203a1.6 1.6 0 0 0 .468-.344.66.66 0 0 0 .204-.485M206 37.948q-.265 0-.422-.25a1.7 1.7 0 0 1-.234-.547 4.4 4.4 0 0 1-.109-.625 11 11 0 0 1-.016-.5q0-.468.047-.937l.125-.938q.078-.468.125-.937a7 7 0 0 0 .062-.938q0-.187-.015-.406a1.7 1.7 0 0 0-.078-.406.67.67 0 0 0-.172-.328.44.44 0 0 0-.328-.125q-.14 0-.313.234a3.4 3.4 0 0 0-.328.516q-.14.28-.25.578a1.5 1.5 0 0 0-.094.422v.703q.016.343.016.703v.906q-.015.282-.047.578a5 5 0 0 1-.094.578q-.047.282-.14.547a1.8 1.8 0 0 1-.25.453q-.141.189-.344.313a.9.9 0 0 1-.484.125.7.7 0 0 1-.516-.203 1.5 1.5 0 0 1-.328-.516 3.7 3.7 0 0 1-.188-.718q-.047-.407-.078-.782-.015-.39-.015-.703.015-.328.015-.515v-.735q0-.594-.031-1.172-.015-.577-.016-1.156v-.797q.016-.484.125-.937.11-.469.36-.797t.734-.328q.219 0 .391.14.171.141.297.344.14.202.218.438.095.234.141.406.156-.22.359-.422.22-.203.485-.36a2.55 2.55 0 0 1 1.343-.343q.798 0 1.235.39.453.375.656.954.219.562.266 1.218.047.657.047 1.188 0 .265-.047.797-.048.515-.157 1.156-.094.624-.265 1.297a9 9 0 0 1-.406 1.203 3 3 0 0 1-.563.89q-.312.345-.719.344m6.672.125q-1.109 0-1.734-.297a2 2 0 0 1-.922-.812q-.297-.531-.359-1.281-.063-.75-.063-1.672 0-.735.047-1.469.047-.75.141-1.594-.22 0-.344.016h-.203q-.5 0-.86-.219-.375-.219-.375-.672 0-.28.219-.5.204-.218.531-.375.328-.156.703-.25.392-.093.735-.125 0-.437.062-.968.063-.532.219-.985a2.4 2.4 0 0 1 .453-.781.92.92 0 0 1 .719-.313q.25 0 .437.157.204.14.329.375a1.8 1.8 0 0 1 .187.5q.063.281.063.547 0 .312-.047.64-.048.328-.172.813.266-.032.359-.032.094-.015.172-.015.265 0 .547.047.297.046.531.156.25.11.406.297a.6.6 0 0 1 .157.422.67.67 0 0 1-.235.5 1.9 1.9 0 0 1-.562.375 4 4 0 0 1-.735.25q-.39.078-.734.109-.093.64-.141 1.188-.03.53-.078 1.078l-.062.547a9 9 0 0 0 0 1.03q.015.267.109.516.094.25.297.438.203.172.563.172.218 0 .453-.032.234-.046.468-.046.406 0 .579.28.187.282.187.72a.9.9 0 0 1-.203.578 1.34 1.34 0 0 1-.484.375 2.6 2.6 0 0 1-.672.234q-.36.078-.688.078m5.328-.11q-.796 0-1.39-.421a3.7 3.7 0 0 1-1-1.078 5.2 5.2 0 0 1-.61-1.453 6.6 6.6 0 0 1-.203-1.594q0-.828.203-1.703.204-.89.625-1.61.423-.735 1.078-1.187.657-.469 1.563-.469.875 0 1.484.485.625.468 1 1.187.375.704.532 1.547.156.844.109 1.594a8.6 8.6 0 0 1-.266 1.672 5.3 5.3 0 0 1-.609 1.515 3.5 3.5 0 0 1-1.031 1.094q-.625.422-1.485.422m.157-7.062q-.235 0-.422.25-.172.25-.297.61-.11.36-.172.765-.063.39-.063.688 0 .375.063.812.078.438.203.813.125.36.297.61.188.234.422.234.25 0 .422-.235.187-.234.297-.593.11-.36.156-.782.047-.437.047-.812 0-.345-.063-.75a4.3 4.3 0 0 0-.187-.782 1.8 1.8 0 0 0-.297-.593q-.172-.235-.406-.235M232.5 34.73q0 .531-.343 1.046-.328.5-.844.907a5 5 0 0 1-1.078.64q-.579.235-1.063.235a2.76 2.76 0 0 1-1.484-.407 3.9 3.9 0 0 1-1.078-1.062 5.1 5.1 0 0 1-.672-1.406 5.6 5.6 0 0 1-.219-1.516q0-.78.219-1.672a6.1 6.1 0 0 1 .656-1.64q.453-.75 1.125-1.25.687-.5 1.625-.5.531 0 1.016.187.485.172.843.5.36.329.579.781.218.453.218 1.016 0 .735-.312 1.375a3.7 3.7 0 0 1-.828 1.11 4.4 4.4 0 0 1-1.188.765 4 4 0 0 1-1.375.312q.063.453.36.657.312.203.734.203.312 0 .609-.157a6 6 0 0 0 .578-.343q.282-.204.547-.36a1.15 1.15 0 0 1 .563-.156q.313 0 .562.203t.25.532m-2.531-3.829a.94.94 0 0 0-.109-.421.36.36 0 0 0-.344-.22.9.9 0 0 0-.578.188 1.4 1.4 0 0 0-.391.453q-.156.265-.25.579a3 3 0 0 0-.094.578q.219-.047.516-.125.312-.078.578-.203.282-.141.469-.344a.66.66 0 0 0 .203-.485m.875-5.546q0 .171-.094.343-.093.156-.234.297a2.3 2.3 0 0 1-.281.266 13 13 0 0 0-.532.39 3 3 0 0 1-.281.188 3 3 0 0 1-.297.14.7.7 0 0 1-.281.063.4.4 0 0 1-.219-.062.27.27 0 0 1-.093-.22q0-.233.171-.562.188-.344.454-.656.265-.328.562-.547.297-.234.547-.234a.52.52 0 0 1 .391.187q.187.172.187.407m12.688 9.953q0 .28-.032.734-.015.453-.125.89a2.1 2.1 0 0 1-.343.735q-.235.313-.657.313-.578 0-.89-.375-.314-.375-.297-.938a3.8 3.8 0 0 1-1.141.688q-.625.25-1.281.25-.453 0-.859-.22a2.7 2.7 0 0 1-.719-.562 2.9 2.9 0 0 1-.5-.765 2.2 2.2 0 0 1-.188-.86q0-.75.453-1.312a4.3 4.3 0 0 1 1.141-.953q.672-.407 1.422-.641.766-.234 1.359-.312v-.141a.6.6 0 0 0 .016-.14q0-.486-.266-.782-.265-.297-.75-.297-.39 0-.672.14a3.3 3.3 0 0 0-.531.298q-.25.156-.5.297a1.24 1.24 0 0 1-.562.125.87.87 0 0 1-.594-.22.74.74 0 0 1-.234-.562q0-.515.296-.937.313-.422.766-.703a4 4 0 0 1 1-.453 3.4 3.4 0 0 1 1-.172q.422 0 .844.109.422.094.797.313.375.203.672.515.312.297.5.703.28.579.453 1.235.172.64.265 1.328.095.671.125 1.36.032.67.032 1.312m-2.5-.5-.047-1.063h-.063a.14.14 0 0 0-.062-.015q-.204 0-.516.109a2.3 2.3 0 0 0-.578.281 2.3 2.3 0 0 0-.484.39.7.7 0 0 0-.188.454q0 .219.156.297a.8.8 0 0 0 .36.078q.344 0 .734-.172.391-.187.688-.36M68.914 53.355v.812q0 .5-.03 1.094-.017.594-.095 1.203a5.3 5.3 0 0 1-.25 1.078q-.156.484-.406.797a.79.79 0 0 1-.64.312.6.6 0 0 1-.532-.28 2.2 2.2 0 0 1-.25-.688 5 5 0 0 1-.093-.797v-.64q0-.705.046-1.376.047-.672.047-1.375v-.281q0-.204-.03-.406a1.2 1.2 0 0 0-.11-.36q-.063-.156-.203-.156-.282 0-.454.297a2.7 2.7 0 0 0-.28.672q-.11.39-.157.781-.047.375-.063.563-.03.203-.062.609-.015.406-.063.89-.03.485-.125 1-.078.5-.218.922-.126.407-.328.672-.204.266-.5.266a.64.64 0 0 1-.579-.328 2.4 2.4 0 0 1-.296-.766 6 6 0 0 1-.125-.89q-.015-.454-.016-.704v-.515q.016-.25.016-.516v-.36q0-.249-.016-.546 0-.313-.031-.64a5 5 0 0 0-.063-.594 1.5 1.5 0 0 0-.14-.454q-.094-.171-.22-.172-.203 0-.374.266-.172.25-.297.61a6 6 0 0 0-.203.687q-.063.345-.063.5v.094q0 .75.094 1.468.094.72.094 1.47 0 .436-.281.812-.282.36-.782.36a.76.76 0 0 1-.593-.267 2.4 2.4 0 0 1-.391-.718 6 6 0 0 1-.25-.953 12 12 0 0 1-.11-1.032 42 42 0 0 1-.046-.922v-.624q0-.235-.016-.688 0-.453.016-.984.03-.532.093-1.078a5.5 5.5 0 0 1 .204-1.016 2.3 2.3 0 0 1 .359-.734.73.73 0 0 1 .594-.297q.406 0 .656.218.266.219.266.657 0 .093-.016.187a1 1 0 0 1-.016.172q.173-.25.422-.5a3.7 3.7 0 0 1 .531-.469q.297-.219.625-.343.33-.141.657-.141a.97.97 0 0 1 .562.172q.25.171.438.437.188.251.312.547.125.297.172.563.157-.282.375-.563.234-.297.5-.515t.578-.36a1.7 1.7 0 0 1 .672-.14q.328 0 .563.234t.406.61q.172.359.265.827.094.453.157.907.061.436.078.828.015.375.015.593m7.579 2.375q0 .531-.344 1.046-.328.5-.844.907-.5.39-1.078.64-.579.235-1.063.235a2.76 2.76 0 0 1-1.484-.407 3.9 3.9 0 0 1-1.078-1.062 5.2 5.2 0 0 1-.672-1.406 5.6 5.6 0 0 1-.219-1.516q0-.78.22-1.672.218-.89.655-1.64.453-.75 1.125-1.25.688-.5 1.625-.5.532 0 1.016.187a2.45 2.45 0 0 1 1.422 1.281q.219.453.219 1.016 0 .735-.313 1.375a3.6 3.6 0 0 1-.828 1.11q-.516.468-1.188.765a4 4 0 0 1-1.375.312q.063.453.36.657.312.203.734.203.313 0 .61-.157.296-.156.578-.343.281-.204.547-.36a1.15 1.15 0 0 1 .562-.156.87.87 0 0 1 .563.203q.25.204.25.532M73.96 51.9a.94.94 0 0 0-.11-.422.36.36 0 0 0-.343-.218.9.9 0 0 0-.578.187 1.4 1.4 0 0 0-.39.453q-.157.266-.25.578a3 3 0 0 0-.094.579q.218-.047.515-.125a3 3 0 0 0 .578-.203q.281-.141.47-.344a.66.66 0 0 0 .202-.485m6.078-2.859q0 .844-.078 1.703a23 23 0 0 0-.062 1.703q0 1.11.062 2.219.078 1.11.078 2.234 0 .282-.03.641-.033.345-.157.64a1.2 1.2 0 0 1-.344.5q-.234.204-.625.204-.375 0-.656-.375a3.3 3.3 0 0 1-.453-.922 12 12 0 0 1-.297-1.281q-.11-.704-.172-1.36a98 98 0 0 1-.078-1.218q-.016-.562-.016-.829 0-.297.016-.859.03-.562.11-1.219.078-.656.202-1.328.141-.687.36-1.234.218-.562.515-.907.313-.36.735-.359.343 0 .515.235.188.218.266.546.078.314.094.672.015.344.015.594m8.282 5.422q0 .266-.016.797 0 .515-.047 1.093-.03.563-.094 1.079-.061.5-.156.734-.124.297-.328.516a.71.71 0 0 1-.547.218q-.532 0-.765-.422-.234-.421-.313-1.046a9.4 9.4 0 0 1-.062-1.36q.015-.735-.016-1.36a4 4 0 0 0-.172-1.046q-.141-.422-.516-.422-.515 0-.796.172a.95.95 0 0 0-.391.422q-.11.265-.14.61-.017.343-.048.718-.03.36-.046.969t-.141 1.203-.422 1.031q-.281.422-.844.422a.7.7 0 0 1-.562-.266 2.1 2.1 0 0 1-.328-.687 6 6 0 0 1-.188-.938 17 17 0 0 1-.062-1v-.906q.015-.405.015-.61 0-.312.016-1.03.03-.719.11-1.594.078-.89.202-1.828.126-.938.329-1.703.202-.782.484-1.266.297-.485.687-.469.25.016.422.219.188.202.297.531.126.313.203.688t.11.75q.046.36.047.672.015.312.015.484a21 21 0 0 1-.062 1.625q.36-.485.953-.797a2.65 2.65 0 0 1 1.219-.312q.78 0 1.171.437.406.421.579 1.063.172.624.187 1.343.016.703.016 1.266m4.078 4.5q-.797 0-1.39-.422a3.7 3.7 0 0 1-1-1.078 5.2 5.2 0 0 1-.61-1.453 6.6 6.6 0 0 1-.203-1.594q0-.828.203-1.703.203-.89.625-1.61.421-.734 1.078-1.187.656-.469 1.562-.469.876 0 1.485.485.624.468 1 1.187.375.704.531 1.547a6.5 6.5 0 0 1 .11 1.594 8.6 8.6 0 0 1-.266 1.672 5.3 5.3 0 0 1-.61 1.515q-.405.672-1.03 1.094-.626.422-1.485.422m.156-7.063q-.234 0-.422.25-.171.25-.297.61-.11.36-.172.765-.062.39-.062.688 0 .375.062.812.078.438.204.813.125.36.296.61.188.234.422.234.25 0 .422-.235.188-.234.297-.593.11-.36.156-.782.048-.437.047-.812 0-.345-.062-.75a4.3 4.3 0 0 0-.188-.782 1.8 1.8 0 0 0-.297-.593q-.172-.235-.406-.235m9.453.766q-.219.015-.375-.031l-.312-.125a3 3 0 0 0-.282-.11.6.6 0 0 0-.312-.047q-.312.015-.563.172a2.2 2.2 0 0 0-.437.391 2.7 2.7 0 0 0-.328.531 3 3 0 0 0-.219.563 4 4 0 0 0-.078.578q-.016.375-.016.812-.015.453-.015.86t-.032.64q-.015.25-.078.594-.062.328-.203.625a1.4 1.4 0 0 1-.344.5.8.8 0 0 1-.562.203.75.75 0 0 1-.469-.156 1.4 1.4 0 0 1-.328-.406 4 4 0 0 1-.219-.61 8 8 0 0 1-.125-.703q-.046-.375-.078-.75-.015-.375-.031-.703v-.625q.016-.28.016-.453-.016-.548-.063-1.094-.03-.562-.031-1.11 0-.342.031-.765.03-.421.172-.781.141-.375.406-.625.282-.25.766-.25.266 0 .453.172.188.171.297.422.125.249.187.531.063.282.078.516.376-.61.844-.985.47-.39 1.219-.422.375-.015.734.078.375.079.672.282.313.187.5.5.204.312.219.734.031.5-.297.766-.328.265-.797.281m10.891-.156q0 .078-.016.172a1 1 0 0 1-.047.156 1.5 1.5 0 0 1-.437.61 1.1 1.1 0 0 1-.703.234q-.61 0-.828-.61a.5.5 0 0 1-.032-.172q0-.11-.015-.218v-.453a.9.9 0 0 0-.11-.344q-.078-.125-.265-.125-.266 0-.516.343a3.8 3.8 0 0 0-.422.797 7 7 0 0 0-.281.938 3.7 3.7 0 0 0-.109.781q0 .235.031.578.031.328.125.64.093.315.25.548.171.219.437.218a.8.8 0 0 0 .485-.156 4 4 0 0 0 .453-.39q.203-.188.437-.391a.87.87 0 0 1 .563-.203q.39 0 .609.281a.98.98 0 0 1 .235.64q0 .532-.282 1a3.2 3.2 0 0 1-.703.798q-.422.327-.937.515a2.7 2.7 0 0 1-.985.203q-.843 0-1.437-.422a3.3 3.3 0 0 1-.938-1.062 5 5 0 0 1-.515-1.422 7.3 7.3 0 0 1-.157-1.453q0-.796.219-1.719.219-.937.672-1.734a4.3 4.3 0 0 1 1.156-1.328q.719-.531 1.703-.532.61 0 1.047.266.453.266.735.703.297.423.437.953.156.531.156 1.047v.157a1 1 0 0 1-.015.156m7.969 1.953q0 .266-.016.797 0 .515-.047 1.093-.031.563-.094 1.079-.062.5-.156.734-.125.297-.328.516-.203.218-.547.218-.53 0-.766-.422-.234-.421-.312-1.046a9.5 9.5 0 0 1-.063-1.36q.016-.735-.015-1.36a4 4 0 0 0-.172-1.046q-.141-.422-.516-.422-.515 0-.797.172a.95.95 0 0 0-.39.422q-.11.265-.141.61-.015.343-.047.718-.031.36-.047.969-.015.609-.14 1.203-.126.594-.422 1.031-.282.422-.844.422a.7.7 0 0 1-.562-.266 2.1 2.1 0 0 1-.328-.687 5.7 5.7 0 0 1-.188-.938 17 17 0 0 1-.062-1v-.906q.015-.405.015-.61 0-.312.016-1.03.031-.719.109-1.594.078-.89.203-1.828a14 14 0 0 1 .328-1.703q.203-.782.485-1.266.297-.485.687-.469.25.016.422.219.188.202.297.531.125.313.203.688t.11.75q.046.36.046.672.016.312.016.484 0 .405-.016.812t-.046.813a2.76 2.76 0 0 1 .953-.797 2.65 2.65 0 0 1 1.218-.312q.782 0 1.172.437.407.421.578 1.063.173.624.188 1.343.016.703.016 1.266m7.75 1.844q0 .28-.032.734-.015.453-.125.89a2.1 2.1 0 0 1-.343.735q-.235.313-.657.313-.578 0-.89-.375-.314-.375-.297-.938-.5.437-1.141.688-.625.25-1.281.25-.454 0-.859-.22a2.7 2.7 0 0 1-.719-.562 2.8 2.8 0 0 1-.5-.765 2.2 2.2 0 0 1-.188-.86q0-.75.453-1.312a4.3 4.3 0 0 1 1.141-.953q.672-.407 1.422-.641.765-.234 1.359-.312v-.141a.6.6 0 0 0 .016-.14q0-.486-.266-.782t-.75-.297q-.39 0-.672.14a3.3 3.3 0 0 0-.531.298q-.25.156-.5.297a1.24 1.24 0 0 1-.562.125.87.87 0 0 1-.594-.22.74.74 0 0 1-.234-.562q0-.515.296-.937.313-.423.766-.703a4 4 0 0 1 1-.453 3.4 3.4 0 0 1 1-.172q.422 0 .844.109.422.094.797.313.375.203.672.515.312.297.5.703.28.578.453 1.235.172.64.265 1.328.094.671.125 1.36.032.67.032 1.312m-2.5-.5-.047-1.063h-.063a.14.14 0 0 0-.062-.015q-.204 0-.516.109a2.3 2.3 0 0 0-.578.281 2.3 2.3 0 0 0-.484.39.7.7 0 0 0-.188.454q0 .219.156.297a.8.8 0 0 0 .36.078q.344 0 .734-.172.39-.187.688-.36m10.171-2.891q-.405 1.079-.89 2.25-.484 1.171-1.047 2.188a4.6 4.6 0 0 1-.766 1.046q-.422.407-.968.407-.438 0-.86-.438a6.6 6.6 0 0 1-.765-1.062q-.345-.626-.61-1.25a25 25 0 0 1-.375-1.016 39 39 0 0 0-.281-.906 15 15 0 0 1-.281-.985 12 12 0 0 1-.203-.984 6 6 0 0 1-.079-.937q0-.61.219-1 .218-.39.86-.391.249 0 .453.156.202.142.375.406.172.266.328.625.156.345.297.766.14.406.265.844a52 52 0 0 0 .5 1.64q.141.375.36.75l.25-.64.297-.766q.171-.406.359-.828.187-.438.406-.844a8.3 8.3 0 0 1 .891-1.437q.484-.594.953-.594.438 0 .625.266t.187.687-.14.953q-.141.531-.36 1.094m7.594 2.813q0 .531-.344 1.046-.328.5-.843.907-.5.39-1.078.64-.579.235-1.063.235a2.76 2.76 0 0 1-1.484-.407 3.9 3.9 0 0 1-1.078-1.062 5.1 5.1 0 0 1-.672-1.406 5.6 5.6 0 0 1-.219-1.516q0-.78.219-1.672a6.1 6.1 0 0 1 .656-1.64q.453-.75 1.125-1.25.687-.5 1.625-.5.531 0 1.016.187a2.45 2.45 0 0 1 1.421 1.281q.219.453.219 1.016 0 .735-.312 1.375a3.7 3.7 0 0 1-.828 1.11 4.4 4.4 0 0 1-1.188.765 4 4 0 0 1-1.375.312q.063.453.359.657.314.203.735.203.312 0 .609-.157a6 6 0 0 0 .578-.343q.282-.204.547-.36a1.15 1.15 0 0 1 .563-.156q.312 0 .562.203t.25.532m-2.531-3.829a.95.95 0 0 0-.109-.422.36.36 0 0 0-.344-.218.9.9 0 0 0-.578.187 1.4 1.4 0 0 0-.391.453q-.156.266-.25.578a3 3 0 0 0-.094.579q.219-.047.516-.125.312-.079.578-.203.282-.141.469-.344a.66.66 0 0 0 .203-.485m14.078 1.953q0 .688-.156 1.516a5.3 5.3 0 0 1-.5 1.516 3.4 3.4 0 0 1-.922 1.172q-.562.468-1.422.468-.219 0-.453-.03a2.2 2.2 0 0 1-.453-.11 1.6 1.6 0 0 1-.375-.203.9.9 0 0 1-.266-.36l-.14 2.25q-.016.36-.032.86 0 .499-.125.953a1.7 1.7 0 0 1-.39.765q-.266.329-.782.328-.296 0-.5-.312a2.5 2.5 0 0 1-.328-.766 9 9 0 0 1-.172-1.047 15 15 0 0 1-.078-1.109q-.015-.531-.015-.969v-.64q0-1.047-.016-2.078-.015-1.047-.016-2.094v-.578q0-.407.032-.875.031-.47.093-.969.079-.5.219-.906.141-.423.36-.672a.66.66 0 0 1 .531-.266q.203 0 .359.125a.84.84 0 0 1 .281.297q.125.173.204.375.077.203.125.375a3.25 3.25 0 0 1 1.109-.828q.64-.28 1.359-.281.75 0 1.219.422.484.42.75 1.047.282.624.391 1.343.11.703.109 1.282m-2.234-.124q0-.235-.047-.47a1.3 1.3 0 0 0-.141-.452.76.76 0 0 0-.281-.344.76.76 0 0 0-.469-.14q-.375 0-.797.25a1.74 1.74 0 0 0-.609.546q-.078.126-.094.406-.015.282-.015.422v.297l.031.36.031.359q.031.171.078.266a.6.6 0 0 0 .203.265q.156.109.344.203t.375.14q.203.048.344.048a.65.65 0 0 0 .531-.25 1.8 1.8 0 0 0 .313-.594q.124-.345.156-.703.047-.375.047-.61m8.609-1.063q-.219.015-.375-.031l-.312-.125a3 3 0 0 0-.282-.11.6.6 0 0 0-.312-.047q-.313.015-.563.172a2.2 2.2 0 0 0-.437.391 2.7 2.7 0 0 0-.328.531 3 3 0 0 0-.219.563 4 4 0 0 0-.078.578 19 19 0 0 0-.016.812q-.015.453-.015.86t-.032.64q-.015.25-.078.594a2.5 2.5 0 0 1-.203.625 1.4 1.4 0 0 1-.344.5.8.8 0 0 1-.562.203.75.75 0 0 1-.469-.156 1.4 1.4 0 0 1-.328-.406 4 4 0 0 1-.219-.61 8 8 0 0 1-.125-.703q-.047-.375-.078-.75-.015-.375-.031-.703v-.625q.015-.28.015-.453-.015-.548-.062-1.094a20 20 0 0 1-.031-1.11q0-.342.031-.765.031-.421.172-.781a1.6 1.6 0 0 1 .406-.625q.282-.25.766-.25.266 0 .453.172.188.171.297.422.125.249.187.531.063.282.078.516.375-.61.844-.985.47-.39 1.219-.422.375-.015.734.078.375.079.672.282.312.187.5.5.202.312.219.734.031.5-.297.766-.328.265-.797.281m7.969 3.64q0 .282-.031.735a4.4 4.4 0 0 1-.125.89 2.1 2.1 0 0 1-.344.735q-.234.313-.656.313-.579 0-.891-.375t-.297-.938q-.5.437-1.141.688-.624.25-1.281.25-.453 0-.859-.22a2.7 2.7 0 0 1-.719-.562 2.9 2.9 0 0 1-.5-.765 2.2 2.2 0 0 1-.187-.86q0-.75.453-1.312a4.2 4.2 0 0 1 1.14-.953q.672-.407 1.422-.641.766-.234 1.36-.312v-.141a.6.6 0 0 0 .015-.14q0-.486-.265-.782-.267-.297-.75-.297-.392 0-.672.14a3.3 3.3 0 0 0-.532.298q-.25.156-.5.297a1.24 1.24 0 0 1-.562.125.87.87 0 0 1-.594-.22.74.74 0 0 1-.234-.562q0-.515.297-.937.312-.423.765-.703a4 4 0 0 1 1-.453 3.4 3.4 0 0 1 1-.172q.423 0 .844.109.422.094.797.313.375.203.672.515.312.297.5.703.28.578.453 1.235.172.64.266 1.328.093.671.125 1.36.03.67.031 1.312m-2.5-.5-.047-1.062h-.063a.13.13 0 0 0-.062-.015q-.202 0-.516.109-.297.093-.578.281a2.3 2.3 0 0 0-.484.39.7.7 0 0 0-.188.454q0 .219.157.297a.8.8 0 0 0 .359.078q.344 0 .734-.172.391-.187.688-.36m11.781-5.89q0 .453-.312.672a6 6 0 0 1-.672.422q-.375.188-.688.453-.297.266-.297.797a.9.9 0 0 0 .125.484q.14.203.328.375.204.156.438.328t.422.39q.203.22.328.532.141.313.141.766 0 .656-.344 1.297a4.2 4.2 0 0 1-.86 1.125 4.3 4.3 0 0 1-1.171.78q-.657.298-1.297.298-.265 0-.532-.047a1.5 1.5 0 0 1-.484-.14 1.05 1.05 0 0 1-.344-.298.9.9 0 0 1-.14-.515q0-.438.172-.672.171-.25.437-.39a2.6 2.6 0 0 1 .563-.22q.312-.078.578-.187.266-.124.437-.312.172-.188.172-.532 0-.328-.266-.672a14 14 0 0 0-.562-.75 8 8 0 0 1-.578-.859 2.03 2.03 0 0 1-.25-1q0-.672.265-1.234.282-.58.735-1a3.5 3.5 0 0 1 1.062-.657 3.2 3.2 0 0 1 1.25-.25q.25 0 .485.047.25.048.437.172a.8.8 0 0 1 .297.313.86.86 0 0 1 .125.484m7.266 6.39q0 .282-.032.735-.015.453-.125.89a2.1 2.1 0 0 1-.343.735q-.235.313-.657.313-.578 0-.89-.375t-.297-.938a3.8 3.8 0 0 1-1.141.688q-.624.25-1.281.25-.453 0-.859-.22a2.7 2.7 0 0 1-.719-.562 2.9 2.9 0 0 1-.5-.765 2.2 2.2 0 0 1-.188-.86q0-.75.454-1.312a4.2 4.2 0 0 1 1.14-.953q.672-.407 1.422-.641.766-.234 1.359-.312v-.141a.6.6 0 0 0 .016-.14q0-.486-.266-.782-.265-.297-.75-.297-.39 0-.671.14a3.3 3.3 0 0 0-.532.298q-.25.156-.5.297a1.24 1.24 0 0 1-.562.125.87.87 0 0 1-.594-.22.74.74 0 0 1-.234-.562q0-.515.297-.937.312-.423.765-.703a4 4 0 0 1 1-.453 3.4 3.4 0 0 1 1-.172q.422 0 .844.109.422.094.797.313.375.203.672.515.312.297.5.703.28.578.453 1.235.172.64.265 1.328.095.671.125 1.36.032.67.032 1.312m-2.5-.5-.047-1.062h-.063a.14.14 0 0 0-.062-.015q-.203 0-.516.109-.297.093-.578.281a2.3 2.3 0 0 0-.484.39.7.7 0 0 0-.188.454q0 .219.156.297a.8.8 0 0 0 .36.078q.344 0 .734-.172.391-.187.688-.36m10.281-1.765a8.5 8.5 0 0 1-.172 1.703 4.7 4.7 0 0 1-.578 1.516 3.14 3.14 0 0 1-1.094 1.062q-.672.407-1.687.407-1 0-1.672-.391a3.2 3.2 0 0 1-1.078-1.063 4.8 4.8 0 0 1-.563-1.484 9 9 0 0 1-.156-1.687q0-.937.219-1.86.046-.25.172-.687.14-.454.343-.875a3.7 3.7 0 0 1 .485-.75q.28-.313.609-.313.312 0 .5.172t.297.438q.11.25.141.546.03.282.031.516 0 .36-.063.703-.046.345-.109.688l-.125.937a9.5 9.5 0 0 0-.031 1.469q.031.281.125.547.094.265.265.453.172.172.485.172.406 0 .64-.219.25-.219.36-.547a2.6 2.6 0 0 0 .156-.703q.031-.376.031-.687 0-.688-.094-1.344a56 56 0 0 1-.171-1.36 1.5 1.5 0 0 1 .062-.687q.078-.234.219-.422.14-.187.344-.297a.85.85 0 0 1 .453-.125q.344 0 .609.25.266.235.438.625.188.375.296.86.125.469.188.937.078.453.094.86.031.406.031.64m-1.469-7.047q0 .173-.094.344-.093.156-.234.297a2.3 2.3 0 0 1-.281.265q-.156.11-.281.203a7 7 0 0 0-.25.188 4 4 0 0 1-.282.188 3 3 0 0 1-.297.14.7.7 0 0 1-.281.063.4.4 0 0 1-.219-.063.27.27 0 0 1-.093-.219q0-.234.172-.562.188-.344.453-.656.265-.329.562-.547.297-.235.547-.235a.52.52 0 0 1 .391.188q.187.172.187.406m9.156 1.235q0 1.14-.093 2.265-.078 1.125-.078 2.266 0 .921.046 1.828.063.906.063 1.828 0 .25-.016.61-.015.343-.109.671a1.3 1.3 0 0 1-.281.563q-.188.234-.547.234a1.01 1.01 0 0 1-.781-.344 1.7 1.7 0 0 1-.375-.797 2.7 2.7 0 0 1-.86.954q-.562.39-1.219.39-.703 0-1.218-.484a4.3 4.3 0 0 1-.844-1.172 7 7 0 0 1-.5-1.437 6.5 6.5 0 0 1-.156-1.297q0-.39.047-.891.046-.5.156-1.016.125-.515.312-1 .188-.5.469-.89.297-.39.688-.625.406-.235.921-.235.563 0 1.079.328.515.33.781.813l.14-2.484q.016-.297.047-.688.032-.406.125-.765.11-.36.328-.61.22-.25.641-.25.454 0 .703.219.25.219.36.562.125.33.14.72.031.39.031.733m-2.546 6.937q0-.36-.016-.703-.015-.345 0-.703a9 9 0 0 0-.219-.438 2 2 0 0 0-.312-.453 1.6 1.6 0 0 0-.391-.36.85.85 0 0 0-.469-.14.6.6 0 0 0-.453.172 1 1 0 0 0-.25.422 2.5 2.5 0 0 0-.109.516 8 8 0 0 0-.016.484q0 .187.031.562.032.36.11.735.094.375.25.656t.422.281q.203 0 .406-.078.203-.093.375-.219a3 3 0 0 0 .344-.297 8 8 0 0 0 .297-.312zm10.125.563q0 .531-.344 1.046-.328.5-.844.907a5 5 0 0 1-1.078.64q-.578.235-1.063.235a2.76 2.76 0 0 1-1.484-.407 3.9 3.9 0 0 1-1.078-1.062 5.1 5.1 0 0 1-.672-1.406 5.6 5.6 0 0 1-.219-1.516q0-.78.219-1.672.22-.89.656-1.64.453-.75 1.125-1.25.688-.5 1.625-.5.531 0 1.016.187a2.46 2.46 0 0 1 1.422 1.281q.219.453.219 1.016a3.1 3.1 0 0 1-.313 1.375 3.6 3.6 0 0 1-.828 1.11 4.4 4.4 0 0 1-1.188.765 4 4 0 0 1-1.375.312q.063.453.36.657.312.203.734.203.313 0 .61-.157.296-.156.578-.343.28-.204.547-.36.281-.156.562-.156.312 0 .563.203t.25.532m-2.532-3.829a.94.94 0 0 0-.109-.422.36.36 0 0 0-.344-.218.9.9 0 0 0-.578.187 1.4 1.4 0 0 0-.391.453q-.156.266-.25.578a3 3 0 0 0-.093.579q.218-.047.515-.125a3 3 0 0 0 .578-.203q.282-.141.469-.344a.66.66 0 0 0 .203-.485m6.078.063q0 .25-.031.687-.031.423-.094.922a9 9 0 0 1-.187 1q-.11.5-.266.922-.156.407-.375.672-.219.25-.5.25-.344 0-.593-.328a3.5 3.5 0 0 1-.407-.86 9 9 0 0 1-.25-1.171 19 19 0 0 1-.14-1.25 26 26 0 0 1-.063-1.141V50.15q0-.437.031-.922.048-.483.125-.953.094-.484.266-.875.172-.39.453-.625a1.02 1.02 0 0 1 .703-.25q.375 0 .61.328.25.313.39.829.156.5.219 1.125.078.624.094 1.234.032.594.015 1.11zm-.296 5.937a.9.9 0 0 1-.125.47q-.125.186-.329.312a1.4 1.4 0 0 1-.437.203 1.8 1.8 0 0 1-.469.062q-.344 0-.656-.187-.312-.172-.313-.563 0-.234.125-.422a1.4 1.4 0 0 1 .344-.343q.203-.14.438-.22.25-.077.468-.077.36 0 .657.187.297.172.297.578"/><defs><filter id="a" width="271.48" height="118.959" x=".345" y="1.042" color-interpolation-filters="sRGB" filterUnits="userSpaceOnUse"><feFlood flood-opacity="0" result="BackgroundImageFix"/><feBlend in="SourceGraphic" in2="BackgroundImageFix" result="shape"/><feColorMatrix in="SourceAlpha" result="hardAlpha" values="0 0 0 0 0 0 0 0 0 0 0 0 0 0 0 0 0 0 127 0"/><feOffset dy="4"/><feGaussianBlur stdDeviation="2"/><feComposite in2="hardAlpha" k2="-1" k3="1" operator="arithmetic"/><feColorMatrix values="0 0 0 0 0 0 0 0 0 0 0 0 0 0 0 0 0 0 0.25 0"/><feBlend in2="shape" result="effect1_innerShadow_1138_2594"/></filter></defs></svg>