<svg xmlns="http://www.w3.org/2000/svg" width="229" height="148" fill="none" viewBox="0 0 229 148"><g filter="url(#a)"><path fill="#3dc3ff" fill-rule="evenodd" d="M57.541 112.259C38.37 105.883 30 96.474 30 86.29c0-12.53 16.879-24.908 44.801-31.029C88.344 52.293 104.257 51 122.54 51c55.976 0 107.596 12.785 105.393 35.29 0 11.168-9.554 21.437-29.011 27.567-10.609 3.343-24.031 5.317-40.824 5.924-6.606 11.683-16.273 17.698-32.134 27.219 11.632-11.096 18.758-18.251 21.337-27.018l-.891.001c-39.675 1.998-69.68-1.344-88.868-7.724" clip-rule="evenodd"/></g><path fill="#3dc3ff" d="m57.541 112.259-.316.949zm17.26-56.997-.214-.977zM227.932 86.29l-.995-.097a1 1 0 0 0-.005.097zm-29.011 27.567.3.954zm-40.824 5.924-.036-1a1 1 0 0 0-.835.508zM125.963 147l-.69-.724a1 1 0 0 0 1.205 1.581zm21.337-27.018.959.282a1 1 0 0 0-.962-1.282zm-.891.001v-1l-.05.001zM29 86.29c0 10.858 8.936 20.503 28.225 26.918l.632-1.898C38.8 104.974 31 95.8 31 86.29zm45.587-32.005c-14.045 3.078-25.381 7.744-33.233 13.27C33.528 73.062 29 79.552 29 86.29h2c0-5.79 3.911-11.756 11.505-17.1 7.569-5.326 18.633-9.91 32.51-12.952zM122.54 50c-18.324 0-34.314 1.295-47.952 4.285l.428 1.953C88.464 53.291 104.298 52 122.54 52zm106.388 36.388c.595-6.08-2.475-11.397-8.033-15.884-5.547-4.479-13.68-8.233-23.549-11.255C177.592 53.201 150.587 50 122.539 50v2c27.928 0 54.721 3.191 74.221 9.162 9.757 2.987 17.615 6.649 22.877 10.898 5.251 4.239 7.806 8.96 7.3 14.133zm-29.706 28.423c19.591-6.173 29.711-16.68 29.711-28.52h-2c0 10.493-8.988 20.524-28.312 26.612zm-41.088 5.969c16.844-.609 30.363-2.59 41.088-5.969l-.601-1.908c-10.493 3.306-23.818 5.273-40.559 5.878zm-.907-1.491c-6.455 11.417-15.88 17.311-31.777 26.854l1.029 1.714c15.824-9.498 25.734-15.635 32.489-27.584zm-30.573 28.434c11.572-11.039 18.937-18.383 21.606-27.459l-1.919-.564c-2.487 8.458-9.376 15.423-21.067 26.576zm19.756-26.74.893-.001-.005-2-.888.001zm-89.183-7.775c19.353 6.435 49.499 9.775 89.233 7.774l-.1-1.998c-39.615 1.996-69.482-1.349-88.502-7.674z"/><path fill="#fff" d="M48.938 86.854q0 .26-.137.505-.137.233-.643.547-.505.314-1.12.602-.616.274-1.19.478-.575.192-.848.192-.192 0-.451-.096a3.2 3.2 0 0 1-.998-.533 1.4 1.4 0 0 1-.301-.342q-.054-.096-.11-.383a20 20 0 0 1-.081-.67q-.028-.383-.055-.806l-.055-.82q-.014-.397-.027-.698v-.437q0-.507.027-1.162.042-.657.137-1.313.096-.67.273-1.272.192-.615.506-1.039.096-.122.383-.26.288-.135.67-.26a14 14 0 0 1 1.709-.41q.423-.081.766-.122a4 4 0 0 1 .52-.055q.204 0 .382.096a.8.8 0 0 1 .314.232q.137.15.206.342a.9.9 0 0 1 .082.383.7.7 0 0 1-.055.3 1.3 1.3 0 0 1-.137.274q-.136.177-.574.424a15.5 15.5 0 0 1-1.941.916q-.466.191-.657.273-.054.315-.123.643-.055.315-.082.642.425-.218.957-.41a3 3 0 0 1 1.012-.191q.97 0 .97.957a.85.85 0 0 1-.095.41 1 1 0 0 1-.232.315 1.6 1.6 0 0 1-.329.246l-.355.191a8 8 0 0 1-.916.41l-.957.328a6 6 0 0 0-.055.246 1 1 0 0 0-.027.246q0 .192.027.383l.055.383q.164-.055.52-.178.367-.123.765-.246.397-.123.766-.205.369-.096.547-.096.205 0 .382.096a.8.8 0 0 1 .301.233q.123.136.191.328a1 1 0 0 1 .083.382m10.171-1.928q0 .6-.136 1.326a4.6 4.6 0 0 1-.438 1.326q-.301.615-.806 1.025-.493.41-1.245.41-.191 0-.396-.027a2 2 0 0 1-.397-.095 1.4 1.4 0 0 1-.328-.178.8.8 0 0 1-.232-.315l-.123 1.97a63 63 0 0 0-.028.751q0 .438-.109.834a1.5 1.5 0 0 1-.342.67q-.233.287-.683.287-.26 0-.438-.273a2.2 2.2 0 0 1-.287-.67 8 8 0 0 1-.15-.916q-.055-.507-.069-.97-.013-.465-.013-.849v-.56q0-.915-.014-1.819-.014-.915-.014-1.831v-.506q0-.356.028-.766.027-.41.082-.848.069-.437.191-.793a1.7 1.7 0 0 1 .315-.587.58.58 0 0 1 .464-.233.5.5 0 0 1 .315.11q.15.095.246.26.11.15.178.327t.11.328q.423-.478.97-.724.56-.246 1.19-.246.655 0 1.066.369.422.369.656.916.246.546.342 1.176.095.615.095 1.12m-1.955-.11q0-.204-.04-.41a1.1 1.1 0 0 0-.124-.396.67.67 0 0 0-.246-.301.66.66 0 0 0-.41-.123q-.328 0-.697.219a1.5 1.5 0 0 0-.534.478q-.067.11-.081.356t-.014.369v.26a48 48 0 0 1 .054.629q.028.15.069.232.04.123.178.232.136.096.3.178a1.6 1.6 0 0 0 .328.123q.179.04.301.041a.57.57 0 0 0 .465-.219q.178-.218.274-.52.11-.3.136-.614.041-.33.041-.534m5.387 4.58q-.697 0-1.217-.369a3.2 3.2 0 0 1-.875-.943 4.5 4.5 0 0 1-.533-1.272 5.7 5.7 0 0 1-.178-1.394q0-.725.178-1.49.177-.78.547-1.409.369-.642.943-1.038.575-.41 1.367-.41.765 0 1.3.423.547.41.874 1.04.328.614.465 1.353a5.7 5.7 0 0 1 .096 1.394q-.04.725-.233 1.463a4.7 4.7 0 0 1-.533 1.326q-.356.588-.902.957-.547.37-1.299.37m.137-6.18q-.205 0-.37.22-.15.218-.26.533-.094.315-.15.67a4 4 0 0 0-.054.601q0 .329.054.711.069.383.178.711.11.314.26.533.164.205.37.205.218 0 .368-.205.164-.204.26-.52.096-.314.137-.683.04-.383.04-.71 0-.301-.054-.657a4 4 0 0 0-.164-.684 1.5 1.5 0 0 0-.26-.52q-.15-.204-.355-.204m8.271.67a.9.9 0 0 1-.328-.027l-.273-.109a3 3 0 0 0-.246-.096.54.54 0 0 0-.274-.04q-.273.012-.492.15a2 2 0 0 0-.383.342q-.165.204-.287.464a3 3 0 0 0-.191.493q-.041.164-.069.505-.013.33-.013.711-.014.397-.014.752 0 .356-.027.56-.014.22-.069.52a2.3 2.3 0 0 1-.177.547 1.25 1.25 0 0 1-.301.438.7.7 0 0 1-.493.177.65.65 0 0 1-.41-.136 1.3 1.3 0 0 1-.287-.356 3.3 3.3 0 0 1-.191-.533 7 7 0 0 1-.11-.615q-.04-.329-.068-.656l-.027-.616v-.547q.013-.246.013-.396a17 17 0 0 0-.054-.957 18 18 0 0 1-.028-.97q0-.302.028-.67.027-.37.15-.684.123-.328.356-.547.246-.219.67-.219.232 0 .396.15t.26.37q.109.218.164.465.055.245.068.45.328-.533.739-.86.41-.343 1.066-.37.329-.013.642.069.33.067.588.246.274.164.438.437.177.274.191.643.028.437-.26.67a1.14 1.14 0 0 1-.697.246m10.815-1.243-.22 1.982a29 29 0 0 0-.15 1.969 29 29 0 0 0-.054 2.146q.013 1.012.013 2.147 0 .273-.013.67 0 .397-.096.765a1.6 1.6 0 0 1-.314.63q-.206.258-.63.259a.54.54 0 0 1-.355-.123 1.2 1.2 0 0 1-.246-.328 2.4 2.4 0 0 1-.164-.438 8 8 0 0 1-.096-.506q-.067-.532-.082-1.066v-2.598q-.315.41-.82.63a2.5 2.5 0 0 1-.984.204q-.615 0-1.067-.287a2.6 2.6 0 0 1-.724-.752 3.6 3.6 0 0 1-.424-1.011 4.4 4.4 0 0 1-.137-1.067v-.082q0-.71.219-1.531.219-.834.642-1.545a4.1 4.1 0 0 1 1.08-1.176q.657-.478 1.518-.478.465 0 .848.191.396.192.56.629.11-.314.329-.506a.86.86 0 0 1 .587-.205q.45 0 .63.3.19.288.19.643 0 .15-.013.274-.014.123-.027.26m-3.145.328q-.315 0-.588.26-.273.245-.478.615a3.6 3.6 0 0 0-.328.765q-.11.41-.11.725 0 .19.028.41.04.219.109.424.082.191.205.328a.5.5 0 0 0 .342.123q.177 0 .41-.082.246-.096.478-.232.233-.15.41-.329.179-.177.247-.341.04-.096.068-.287.027-.192.041-.397a7 7 0 0 0 .055-.738q0-.165-.082-.37a1.7 1.7 0 0 0-.192-.41 1.1 1.1 0 0 0-.287-.328.5.5 0 0 0-.328-.136m9.79 2.119q0 .752-.151 1.49t-.506 1.326a2.75 2.75 0 0 1-.957.93q-.588.355-1.477.355-.874 0-1.462-.341a2.8 2.8 0 0 1-.944-.93 4.2 4.2 0 0 1-.492-1.299 8 8 0 0 1-.137-1.477q0-.82.192-1.626.04-.22.15-.602.123-.396.3-.766.192-.383.425-.656.245-.273.533-.273.273 0 .437.15.165.15.26.383.096.219.123.478.028.247.028.452 0 .314-.055.615-.042.3-.096.601l-.11.82a8 8 0 0 0-.027 1.286q.028.246.11.478.082.233.232.397.15.15.424.15.356 0 .56-.191.219-.191.315-.479.109-.287.137-.615.027-.329.027-.602 0-.6-.082-1.175a47 47 0 0 1-.15-1.19 1.3 1.3 0 0 1 .055-.602q.068-.204.19-.368a.9.9 0 0 1 .302-.26.74.74 0 0 1 .396-.11q.3 0 .533.22.233.204.383.546.164.329.26.752.109.41.164.82.068.397.082.752.027.356.027.56m6.562 1.476q0 .466-.301.916a3.4 3.4 0 0 1-.738.793 4.3 4.3 0 0 1-.944.56 2.5 2.5 0 0 1-.93.206q-.724 0-1.298-.355a3.4 3.4 0 0 1-.944-.93 4.5 4.5 0 0 1-.588-1.23 5 5 0 0 1-.19-1.327q0-.684.19-1.463.192-.78.575-1.435.396-.657.984-1.094.602-.437 1.422-.437.465 0 .889.164a2.15 2.15 0 0 1 1.244 1.12q.19.397.191.89 0 .642-.273 1.203a3.2 3.2 0 0 1-.725.97q-.45.41-1.039.67a3.5 3.5 0 0 1-1.203.273q.054.397.314.575.274.177.643.177.273 0 .533-.136.26-.137.506-.301.246-.177.479-.314.246-.137.492-.137a.76.76 0 0 1 .492.178.57.57 0 0 1 .219.464m-2.215-3.35a.8.8 0 0 0-.096-.368.32.32 0 0 0-.3-.192q-.302 0-.507.164-.204.15-.341.397a2.3 2.3 0 0 0-.219.506q-.069.273-.082.505.191-.04.451-.109.273-.068.506-.178.245-.123.41-.3a.58.58 0 0 0 .178-.424m11.949.89a69 69 0 0 1-.779 1.968 19 19 0 0 1-.916 1.914q-.301.547-.67.916a1.2 1.2 0 0 1-.848.356q-.383 0-.752-.383a6 6 0 0 1-.67-.93q-.3-.546-.533-1.094-.219-.56-.328-.888-.11-.369-.246-.793t-.246-.861a10 10 0 0 1-.178-.862 5 5 0 0 1-.068-.82q0-.533.191-.875.192-.342.752-.342.219 0 .397.137.177.123.328.355.15.233.287.547.137.3.26.67.123.355.232.738.11.384.219.739.11.356.218.697.124.328.315.656l.219-.56.259-.67q.151-.356.315-.725.164-.383.355-.738.369-.739.78-1.258.423-.52.834-.52.382 0 .547.233.164.232.164.602 0 .368-.123.833-.123.466-.315.958m3.514 5.29q-.698 0-1.217-.369a3.2 3.2 0 0 1-.875-.943 4.5 4.5 0 0 1-.533-1.272 5.7 5.7 0 0 1-.178-1.394q0-.725.178-1.49.178-.78.547-1.409.369-.642.943-1.038.575-.41 1.367-.41.767 0 1.299.423.547.41.875 1.04.328.614.465 1.353.136.738.096 1.394-.042.725-.233 1.463a4.6 4.6 0 0 1-.533 1.326q-.356.588-.902.957-.548.37-1.299.37m.136-6.18q-.204 0-.369.22-.15.218-.259.533a5 5 0 0 0-.151.67 4 4 0 0 0-.055.601q0 .329.055.711.069.383.178.711.109.314.26.533.163.205.369.205.219 0 .369-.205.164-.204.26-.52.096-.314.136-.683.042-.383.041-.71 0-.301-.054-.657a4 4 0 0 0-.164-.684 1.6 1.6 0 0 0-.26-.52q-.15-.204-.356-.204m8.6.534a.7.7 0 0 1-.055.287q-.123.314-.382.533a.97.97 0 0 1-.616.205q-.533 0-.724-.533a.4.4 0 0 1-.028-.15q0-.096-.013-.192v-.396a.8.8 0 0 0-.096-.3q-.069-.11-.232-.11-.233 0-.452.3a3.4 3.4 0 0 0-.369.698q-.15.397-.246.82-.096.424-.096.684 0 .204.028.506.028.287.109.56.082.273.219.479.15.19.383.191a.7.7 0 0 0 .424-.137q.204-.15.396-.341.178-.165.383-.342a.76.76 0 0 1 .492-.178q.342 0 .533.246a.85.85 0 0 1 .205.56q0 .465-.246.876a2.8 2.8 0 0 1-.615.697 3 3 0 0 1-.82.451 2.4 2.4 0 0 1-.862.178q-.738 0-1.257-.37a2.9 2.9 0 0 1-.821-.929 4.4 4.4 0 0 1-.451-1.244 6.4 6.4 0 0 1-.137-1.272q0-.697.192-1.504a5.6 5.6 0 0 1 .588-1.517 3.8 3.8 0 0 1 1.011-1.162q.63-.465 1.491-.465.532 0 .916.232.396.232.642.616.26.369.383.834.137.465.137.916v.136a1 1 0 0 1-.014.137m6.494 2.816q0 .466-.301.916a3.3 3.3 0 0 1-.738.793 4.3 4.3 0 0 1-.943.56 2.5 2.5 0 0 1-.93.206q-.724 0-1.299-.355a3.4 3.4 0 0 1-.943-.93 4.5 4.5 0 0 1-.588-1.23 5 5 0 0 1-.191-1.327q0-.684.191-1.463.192-.78.574-1.435.397-.657.985-1.094.601-.437 1.422-.437.464 0 .888.164.424.15.738.437.315.288.506.684.192.396.192.888 0 .643-.274 1.204a3.2 3.2 0 0 1-.724.97 3.8 3.8 0 0 1-1.039.67 3.5 3.5 0 0 1-1.204.273q.055.397.315.575.273.177.643.177.273 0 .533-.136a6 6 0 0 0 .506-.301q.246-.177.478-.314.246-.137.492-.137.275 0 .492.178a.57.57 0 0 1 .219.464m-2.215-3.35a.8.8 0 0 0-.095-.368.32.32 0 0 0-.301-.192.8.8 0 0 0-.506.164q-.206.15-.342.397a2.3 2.3 0 0 0-.219.506q-.067.273-.082.505.192-.04.452-.109.273-.068.505-.178.247-.123.411-.3a.58.58 0 0 0 .177-.424m1.217-3.362q0 .108-.041.136-.04.028-.137.028a1 1 0 0 1-.369-.082 3 3 0 0 1-.396-.206 10 10 0 0 1-.383-.26 6 6 0 0 1-.301-.245q-.136.11-.328.26a4 4 0 0 1-.383.287 4 4 0 0 1-.41.218 1 1 0 0 1-.383.082.4.4 0 0 1-.136-.027q-.055-.027-.055-.137 0-.204.178-.52.177-.314.437-.6.26-.288.547-.493t.506-.205.506.205q.287.19.533.465.26.273.437.574.178.3.178.52m5.551 1.627q0 .396-.273.587-.261.192-.588.37-.329.163-.602.396-.26.232-.26.697 0 .246.11.424.122.178.287.328.177.137.383.287.204.15.369.342.177.192.287.465.123.273.123.67 0 .574-.301 1.135a3.7 3.7 0 0 1-.752.984q-.451.424-1.025.684t-1.135.26q-.233 0-.465-.042a1.3 1.3 0 0 1-.424-.123.9.9 0 0 1-.3-.26.8.8 0 0 1-.124-.45q0-.384.151-.588.15-.219.383-.342t.492-.192q.273-.068.506-.164.232-.11.383-.273.15-.164.15-.465 0-.287-.232-.588a12 12 0 0 0-.493-.656 7 7 0 0 1-.506-.752 1.8 1.8 0 0 1-.218-.875q0-.588.232-1.08.246-.507.643-.875.41-.37.929-.575a2.8 2.8 0 0 1 1.094-.218q.219 0 .424.04.218.042.383.151a.7.7 0 0 1 .26.274q.108.163.109.424m7.848 0q0 .396-.274.587-.26.192-.588.37-.327.163-.601.396-.26.232-.26.697 0 .246.109.424.123.178.287.328.179.137.383.287t.369.342q.179.192.287.465.124.273.124.67 0 .574-.301 1.135a3.73 3.73 0 0 1-1.778 1.668q-.574.26-1.134.26-.233 0-.465-.042a1.3 1.3 0 0 1-.424-.123.9.9 0 0 1-.301-.26.8.8 0 0 1-.123-.45q0-.384.151-.588.15-.219.382-.342t.493-.192q.273-.068.505-.164.233-.11.383-.273t.151-.465q0-.287-.233-.588-.219-.314-.492-.656a7 7 0 0 1-.506-.752 1.8 1.8 0 0 1-.219-.875q0-.588.233-1.08.246-.507.642-.875.411-.37.93-.575a2.8 2.8 0 0 1 1.094-.218q.219 0 .424.04.218.042.382.151.165.096.26.274.11.163.11.424m6.357 5.591q0 .246-.027.643a3.7 3.7 0 0 1-.11.78q-.095.368-.3.642a.68.68 0 0 1-.575.273q-.506 0-.779-.328t-.26-.82a3.3 3.3 0 0 1-.998.601 3 3 0 0 1-1.121.219q-.396 0-.752-.191a2.4 2.4 0 0 1-.629-.493 2.5 2.5 0 0 1-.437-.67 1.9 1.9 0 0 1-.164-.751q0-.656.396-1.149.41-.492.998-.834a5.7 5.7 0 0 1 1.244-.56 7.5 7.5 0 0 1 1.19-.274v-.123a.5.5 0 0 0 .013-.123q0-.423-.232-.683-.233-.26-.656-.26a1.3 1.3 0 0 0-.588.123q-.246.11-.465.26-.22.135-.437.26-.219.109-.493.109a.76.76 0 0 1-.519-.192.64.64 0 0 1-.205-.492q0-.45.26-.82.273-.369.669-.615.411-.26.875-.397.479-.15.875-.15.37 0 .739.095.369.082.697.274.328.178.588.451.273.26.437.615.246.506.397 1.08.15.56.232 1.162.082.588.11 1.19.027.588.027 1.148m-2.187-.437-.041-.93h-.055a.1.1 0 0 0-.055-.014 1.4 1.4 0 0 0-.451.096 2 2 0 0 0-.506.246q-.246.15-.424.342a.6.6 0 0 0-.164.397q0 .19.137.26a.7.7 0 0 0 .314.068 1.6 1.6 0 0 0 .643-.15q.341-.165.602-.315m1.654-7.82a.9.9 0 0 1-.137.437 2 2 0 0 1-.342.41 2.3 2.3 0 0 1-.437.3q-.232.11-.438.11-.204 0-.41-.068-.191-.082-.396-.178a4 4 0 0 0-.383-.164 1 1 0 0 0-.383-.082q-.15 0-.301.096a4 4 0 0 0-.314.191q-.164.096-.342.178a.7.7 0 0 1-.328.082.43.43 0 0 1-.356-.178.66.66 0 0 1-.136-.383.74.74 0 0 1 .164-.45q.164-.22.41-.384.246-.178.506-.273.274-.11.478-.11.232 0 .397.096.178.096.328.22.15.122.301.218a.75.75 0 0 0 .383.096.6.6 0 0 0 .328-.096q.164-.109.314-.233.164-.136.301-.232.15-.11.314-.11.192 0 .328.165a.5.5 0 0 1 .151.341m3.951 10.582q-.697 0-1.217-.37a3.2 3.2 0 0 1-.875-.943 4.5 4.5 0 0 1-.533-1.272 5.8 5.8 0 0 1-.178-1.394q0-.725.178-1.49.178-.78.547-1.409.369-.642.943-1.038.575-.41 1.367-.41.766 0 1.299.423.547.41.875 1.04.329.614.465 1.353.137.738.096 1.394-.041.725-.233 1.463a4.6 4.6 0 0 1-.533 1.326q-.356.588-.902.957-.547.37-1.299.37m.137-6.18q-.205 0-.369.219a2.2 2.2 0 0 0-.26.533 5 5 0 0 0-.151.67 4 4 0 0 0-.054.601q0 .329.054.711.069.383.178.711.11.314.26.533.164.205.369.205.219 0 .369-.205.165-.204.26-.52.096-.314.137-.683.04-.383.041-.71 0-.301-.055-.657a3.7 3.7 0 0 0-.164-.684 1.5 1.5 0 0 0-.26-.52q-.15-.204-.355-.204m12.715-3.213q0 .998-.082 1.982a28 28 0 0 0-.069 1.983q0 .806.041 1.6.055.792.055 1.599 0 .218-.014.533-.013.3-.096.588a1.1 1.1 0 0 1-.246.492q-.163.205-.478.205a.89.89 0 0 1-.684-.3 1.5 1.5 0 0 1-.328-.698 2.34 2.34 0 0 1-.752.834 1.83 1.83 0 0 1-1.066.342q-.615 0-1.067-.424a3.8 3.8 0 0 1-.738-1.025 6 6 0 0 1-.437-1.258 5.6 5.6 0 0 1-.137-1.135 8.6 8.6 0 0 1 .178-1.668q.11-.45.273-.875a3.3 3.3 0 0 1 .41-.779 2.1 2.1 0 0 1 .602-.547q.356-.205.806-.205.493 0 .944.287t.683.711l.123-2.174q.014-.26.041-.601a4 4 0 0 1 .11-.67q.095-.315.287-.533.191-.22.56-.22.397 0 .616.192t.314.492q.11.287.123.63.028.34.028.642m-2.229 6.07q0-.315-.014-.615a7 7 0 0 1 0-.615 7 7 0 0 0-.191-.383 1.7 1.7 0 0 0-.273-.397 1.4 1.4 0 0 0-.342-.314.75.75 0 0 0-.41-.123.54.54 0 0 0-.397.15q-.15.15-.219.37a2.2 2.2 0 0 0-.095.45 8 8 0 0 0-.014.425q0 .163.027.492.028.315.096.642.082.328.219.575.137.245.369.246a1 1 0 0 0 .355-.069q.178-.082.329-.191.163-.123.3-.26a6 6 0 0 0 .26-.273zm5.387-6.617a.57.57 0 0 1-.11.342q-.095.15-.259.273-.165.11-.356.178a1.3 1.3 0 0 1-.355.055.84.84 0 0 1-.479-.137q-.205-.137-.205-.424 0-.205.096-.355a.9.9 0 0 1 .26-.26q.15-.11.341-.164a1.4 1.4 0 0 1 .37-.055q.26 0 .478.123.219.123.219.424m.109 4.649v.41q0 .204-.014.396a12 12 0 0 0-.013.629q0 .382-.028.834-.027.45-.095.916-.055.465-.192.848a1.8 1.8 0 0 1-.369.629.78.78 0 0 1-.56.246.5.5 0 0 1-.438-.205 1.9 1.9 0 0 1-.301-.561 5 5 0 0 1-.164-.78q-.054-.436-.082-.833a12 12 0 0 1-.027-.752v-1.121q0-.41.027-.875.028-.465.096-.944.082-.478.219-.875.15-.396.383-.642a.77.77 0 0 1 .587-.246q.37 0 .561.369t.287.861.109.984q.014.479.014.712m6.699-3.282q0 .26-.054.506a1 1 0 0 1-.164.41.9.9 0 0 1-.329.287 1.2 1.2 0 0 1-.505.096q-.342 0-.506-.137a.75.75 0 0 1-.233-.328 1.7 1.7 0 0 1-.054-.437q0-.233-.028-.424a.76.76 0 0 0-.095-.342q-.082-.137-.301-.137-.206 0-.342.315-.123.315-.205.724a6 6 0 0 0-.109.807 8 8 0 0 0-.028.52 5 5 0 0 1 .342-.041 2.2 2.2 0 0 1 .752.013q.205.041.383.137a.7.7 0 0 1 .287.246q.11.15.109.383 0 .246-.218.437a1.9 1.9 0 0 1-.506.329q-.288.122-.588.205a5 5 0 0 1-.479.109q.041.943.041 1.9 0 .903-.041 1.778a1.04 1.04 0 0 1-.301.697q-.26.273-.683.273a.8.8 0 0 1-.397-.095.75.75 0 0 1-.273-.233 1.4 1.4 0 0 1-.178-.341 2 2 0 0 1-.068-.397 50 50 0 0 1-.11-1.64 26 26 0 0 1-.027-1.669q-.095.014-.191.014h-.178a2.3 2.3 0 0 1-.848-.178 1.5 1.5 0 0 1-.355-.26.52.52 0 0 1-.151-.382q0-.301.206-.506.19-.205.464-.328.288-.136.588-.192.315-.054.547-.082v-.218q0-.67.123-1.436t.438-1.422a2.95 2.95 0 0 1 .861-1.08q.547-.437 1.395-.437.532 0 .916.232.382.219.629.588.246.355.355.82.11.451.109.916m5.223 5.742q0 .466-.301.916a3.3 3.3 0 0 1-.738.793 4.3 4.3 0 0 1-.943.56 2.5 2.5 0 0 1-.93.206q-.725 0-1.299-.355a3.4 3.4 0 0 1-.943-.93 4.5 4.5 0 0 1-.588-1.23 5 5 0 0 1-.192-1.327q0-.684.192-1.463.191-.78.574-1.435a3.8 3.8 0 0 1 .984-1.094q.602-.437 1.422-.437.465 0 .889.164.424.15.738.437.315.288.506.684.192.396.192.888 0 .643-.274 1.204a3.2 3.2 0 0 1-.725.97q-.45.41-1.039.67a3.5 3.5 0 0 1-1.203.273q.055.397.315.575.273.177.642.177.274 0 .534-.136.26-.137.505-.301a6 6 0 0 1 .479-.314q.246-.137.492-.137a.76.76 0 0 1 .492.178.57.57 0 0 1 .219.464m-2.215-3.35a.8.8 0 0 0-.096-.368.315.315 0 0 0-.3-.192.8.8 0 0 0-.506.164q-.206.15-.342.397a2.3 2.3 0 0 0-.219.506q-.068.273-.082.505.192-.04.451-.109.274-.068.506-.178.246-.123.41-.3a.58.58 0 0 0 .178-.424m7.506.67a.9.9 0 0 1-.328-.027l-.52-.205a.54.54 0 0 0-.273-.04q-.273.012-.492.15a2 2 0 0 0-.383.342 2.4 2.4 0 0 0-.287.464 3 3 0 0 0-.192.493q-.04.164-.068.505a17 17 0 0 0-.014.711q-.013.397-.013.752 0 .356-.028.56a5 5 0 0 1-.068.52 2.2 2.2 0 0 1-.178.547 1.25 1.25 0 0 1-.301.438.7.7 0 0 1-.492.177.65.65 0 0 1-.41-.136 1.3 1.3 0 0 1-.287-.356 3 3 0 0 1-.191-.533 7 7 0 0 1-.11-.615q-.04-.329-.068-.656l-.027-.616v-.547q.013-.246.013-.396a17 17 0 0 0-.054-.957 17 17 0 0 1-.028-.97q0-.302.028-.67.027-.37.15-.684.123-.328.355-.547.246-.219.67-.219.232 0 .397.15.164.15.26.37.108.218.164.465.054.245.068.45a3.3 3.3 0 0 1 .738-.86q.41-.343 1.067-.37.328-.013.642.069.329.067.588.246.273.164.438.437.177.274.191.643.027.437-.26.67a1.14 1.14 0 0 1-.697.246m6.891 2.68q0 .466-.301.916a3.4 3.4 0 0 1-.738.793 4.3 4.3 0 0 1-.944.56 2.5 2.5 0 0 1-.929.206q-.725 0-1.299-.355a3.4 3.4 0 0 1-.944-.93 4.5 4.5 0 0 1-.588-1.23 5 5 0 0 1-.191-1.327q0-.684.191-1.463.191-.78.575-1.435a3.8 3.8 0 0 1 .984-1.094q.601-.437 1.422-.437.465 0 .889.164a2.15 2.15 0 0 1 1.244 1.12q.19.397.191.89 0 .642-.273 1.203a3.2 3.2 0 0 1-.725.97 3.8 3.8 0 0 1-1.039.67 3.5 3.5 0 0 1-1.203.273q.054.397.314.575.274.177.643.177.273 0 .533-.136a6 6 0 0 0 .506-.301 6 6 0 0 1 .479-.314q.246-.137.492-.137a.76.76 0 0 1 .492.178.57.57 0 0 1 .219.464m-2.215-3.35a.8.8 0 0 0-.096-.368.32.32 0 0 0-.301-.192q-.3 0-.506.164-.204.15-.341.397a2.3 2.3 0 0 0-.219.506q-.069.273-.082.505.191-.04.451-.109a3 3 0 0 0 .506-.178q.246-.123.41-.3a.58.58 0 0 0 .178-.424m6.644 6.167q-.233 0-.369-.219a1.5 1.5 0 0 1-.205-.478 4 4 0 0 1-.096-.547 8 8 0 0 1 .028-1.258l.109-.82q.068-.41.11-.82.054-.411.054-.821 0-.165-.013-.356a1.5 1.5 0 0 0-.069-.355.6.6 0 0 0-.15-.287.4.4 0 0 0-.287-.11q-.124 0-.274.206-.15.191-.287.45a5 5 0 0 0-.219.507 1.3 1.3 0 0 0-.082.369v.615q.014.3.014.615v.793q-.014.246-.041.506a5 5 0 0 1-.082.506 3 3 0 0 1-.123.478 1.5 1.5 0 0 1-.219.397q-.123.164-.301.273a.8.8 0 0 1-.423.11.6.6 0 0 1-.452-.178 1.3 1.3 0 0 1-.287-.451 3.2 3.2 0 0 1-.164-.63 22 22 0 0 1-.068-.683 16 16 0 0 1-.014-.615q.014-.287.014-.451v-.643q0-.52-.027-1.025-.015-.505-.014-1.012v-.697q.013-.424.109-.82.096-.41.315-.698.219-.287.642-.287.192 0 .342.123t.26.301q.123.178.191.383.082.205.123.355a3 3 0 0 1 .315-.369q.191-.177.424-.314a2.2 2.2 0 0 1 1.175-.301q.697 0 1.08.342.397.328.575.834.191.492.232 1.066.04.575.041 1.04 0 .231-.041.697-.04.45-.137 1.011-.082.547-.232 1.135a7.4 7.4 0 0 1-.356 1.053q-.204.479-.492.779-.273.3-.629.3m5.838.11q-.97 0-1.517-.26a1.76 1.76 0 0 1-.807-.712q-.26-.465-.314-1.12a18 18 0 0 1-.055-1.463q0-.643.041-1.286.04-.656.123-1.394-.192 0-.301.014h-.178q-.437 0-.752-.192a.64.64 0 0 1-.328-.588q0-.246.192-.437.177-.192.465-.328.287-.138.615-.22.342-.08.642-.109 0-.382.055-.847t.192-.862q.15-.409.396-.683a.8.8 0 0 1 .629-.274q.219 0 .383.137a.9.9 0 0 1 .287.328q.109.192.164.438t.055.478q0 .275-.041.56a7 7 0 0 1-.151.712q.232-.028.315-.028a1 1 0 0 1 .15-.013q.232 0 .479.04.26.042.464.138.22.095.356.26a.53.53 0 0 1 .137.368q0 .246-.206.438a1.6 1.6 0 0 1-.492.328q-.3.136-.642.219a6 6 0 0 1-.643.096q-.083.56-.123 1.038-.027.465-.068.944-.028.232-.055.478a8 8 0 0 0-.014.479q0 .178.014.424.013.233.096.45a1 1 0 0 0 .26.384q.177.15.492.15.19 0 .396-.027.206-.041.41-.041.356 0 .506.246.165.246.164.629a.78.78 0 0 1-.177.506q-.165.204-.424.328a2.2 2.2 0 0 1-.588.205q-.315.068-.602.068m7.793-2.927q0 .466-.301.916a3.3 3.3 0 0 1-.738.793 4.3 4.3 0 0 1-.943.56 2.5 2.5 0 0 1-.93.206q-.725 0-1.299-.355a3.4 3.4 0 0 1-.943-.93 4.5 4.5 0 0 1-.588-1.23 5 5 0 0 1-.191-1.327q0-.684.191-1.463.192-.78.574-1.435.397-.657.985-1.094.602-.437 1.421-.437.466 0 .889.164.424.15.738.437.315.288.506.684.192.396.192.888 0 .643-.274 1.204a3.2 3.2 0 0 1-.724.97 3.8 3.8 0 0 1-1.039.67 3.5 3.5 0 0 1-1.204.273q.055.397.315.575.273.177.643.177.273 0 .533-.136.259-.137.506-.301.246-.177.478-.314.246-.137.492-.137.275 0 .492.178a.57.57 0 0 1 .219.464m-2.215-3.35a.8.8 0 0 0-.095-.368.32.32 0 0 0-.301-.192.8.8 0 0 0-.506.164q-.205.15-.342.397a2.3 2.3 0 0 0-.219.506q-.067.273-.082.505.191-.04.452-.109.273-.068.505-.178.247-.123.411-.3a.58.58 0 0 0 .177-.424m6.768-1.735q0 .396-.273.587-.261.192-.588.37-.329.163-.602.396-.26.232-.26.697 0 .246.11.424.123.178.287.328.177.137.383.287.204.15.369.342.177.192.287.465.123.273.123.67 0 .574-.301 1.135a3.7 3.7 0 0 1-.752.984q-.451.424-1.025.684t-1.135.26q-.233 0-.465-.042a1.3 1.3 0 0 1-.424-.123.9.9 0 0 1-.3-.26.77.77 0 0 1-.124-.45q0-.384.151-.588.15-.219.383-.342.232-.123.492-.192.273-.068.506-.164.232-.11.383-.273.15-.164.15-.465 0-.287-.232-.588a12 12 0 0 0-.493-.656 7 7 0 0 1-.506-.752 1.8 1.8 0 0 1-.218-.875q0-.588.232-1.08.246-.507.643-.875.41-.37.929-.575a2.8 2.8 0 0 1 1.094-.218q.219 0 .424.04.219.042.383.151a.7.7 0 0 1 .26.274q.109.163.109.424m6.685.163q0 .439-.232.82a3.3 3.3 0 0 1-.56.698 4 4 0 0 1-.739.56q-.396.234-.738.37a11 11 0 0 1 .068 1.873q0 .286-.082.547a.94.94 0 0 1-.246.424q-.164.177-.478.177-.547 0-.739-.547a3 3 0 0 1-.109-.547 18 18 0 0 1-.068-.724 21 21 0 0 1-.014-.738v-.588q0-.192.014-.451a.9.9 0 0 1 .136-.424q.123-.178.411-.342.287-.178.587-.37.315-.19.547-.423a.75.75 0 0 0 .233-.547.84.84 0 0 0-.11-.424.95.95 0 0 0-.287-.314 1.1 1.1 0 0 0-.383-.205 1.1 1.1 0 0 0-.423-.082q-.52 0-.821.177-.3.165-.519.37l-.397.369a.66.66 0 0 1-.465.164.9.9 0 0 1-.601-.233.73.73 0 0 1-.26-.56q0-.533.315-.903.314-.382.779-.601.465-.232.984-.328.52-.11.93-.11.546 0 1.121.246.588.233 1.053.63.479.396.779.93.315.533.314 1.106m-2.023 6.645a.64.64 0 0 1-.123.397.9.9 0 0 1-.287.273 1.2 1.2 0 0 1-.383.164 1.5 1.5 0 0 1-.396.055q-.315 0-.588-.15-.26-.15-.26-.493 0-.219.109-.383.123-.177.301-.3.178-.124.383-.178.218-.069.41-.069.315 0 .574.164.26.165.26.52"/><defs><filter id="a" width="200" height="102" x="29" y="50" color-interpolation-filters="sRGB" filterUnits="userSpaceOnUse"><feFlood flood-opacity="0" result="BackgroundImageFix"/><feBlend in="SourceGraphic" in2="BackgroundImageFix" result="shape"/><feColorMatrix in="SourceAlpha" result="hardAlpha" values="0 0 0 0 0 0 0 0 0 0 0 0 0 0 0 0 0 0 127 0"/><feOffset dy="4"/><feGaussianBlur stdDeviation="2"/><feComposite in2="hardAlpha" k2="-1" k3="1" operator="arithmetic"/><feColorMatrix values="0 0 0 0 0 0 0 0 0 0 0 0 0 0 0 0 0 0 0.25 0"/><feBlend in2="shape" result="effect1_innerShadow_871_289"/></filter></defs></svg>