<svg xmlns="http://www.w3.org/2000/svg" width="302" height="164" fill="none" viewBox="0 0 302 164"><g filter="url(#a)"><path fill="#00c57f" fill-rule="evenodd" d="M62.149 87.766C55.21 79.654 52 70.488 52 60.92c0-21.275 21.15-42.292 56.136-52.684C125.105 3.196 145.043 1 167.951 1c70.137 0 134.817 21.707 132.056 59.92 0 18.961-11.971 36.397-36.35 46.806-16.245 6.935-37.752 10.401-65.797 10.401-49.712 3.393-87.31-2.281-111.351-13.114a91 91 0 0 1-8.365-4.285c-22.11 11.106-46.323 13.586-81.366 16.727 29.794-10.206 50.476-17.753 65.37-29.689" clip-rule="evenodd"/></g><path fill="#00c57f" d="m62.149 87.766.625.78a1 1 0 0 0 .135-1.43zm45.987-79.53.284.958zM300.007 60.92l-.997-.072-.003.072zm-36.35 46.806.392.92zm-65.797 10.401v-1l-.068.003zM86.509 105.013l-.411.911zm-8.365-4.285.503-.864a1 1 0 0 0-.952-.03zm-81.366 16.727-.324-.946a1 1 0 0 0 .413 1.942zM52 60.92h-1c0 9.809 3.297 19.204 10.389 27.496l.76-.65.76-.65C56.124 79.183 53 70.248 53 60.92zm56.136-52.684-.285-.959c-17.61 5.23-31.794 13.15-41.593 22.496C56.46 39.117 51 49.936 51 60.92h2c0-10.29 5.115-20.618 14.638-29.7 9.522-9.08 23.405-16.864 40.782-22.026zM167.951 1V0c-22.965 0-43.007 2.2-60.1 7.277l.285.959.284.958C125.266 4.191 145.1 2 167.951 2zm132.056 59.92.998.072c1.43-19.802-14.637-35.05-39.306-45.285C236.948 5.436 203.103 0 167.951 0v2c34.984 0 68.548 5.416 92.981 15.554 24.515 10.171 39.408 24.883 38.078 43.294zm-36.35 46.806.392.92c24.654-10.526 36.958-28.27 36.958-47.726h-2c0 18.467-11.638 35.594-35.743 45.886zm-65.797 10.401v1c28.114 0 49.772-3.472 66.189-10.481l-.392-.92-.393-.92c-16.071 6.862-37.427 10.321-65.404 10.321zM86.509 105.013l-.411.911c24.25 10.928 62.032 16.6 111.83 13.201l-.068-.998-.068-.997c-49.627 3.387-87.04-2.29-110.872-13.029zm-8.365-4.285-.503.864a91 91 0 0 0 8.457 4.332l.41-.911.412-.912a89 89 0 0 1-8.273-4.237zm0 0-.449-.893c-21.91 11.005-45.923 13.479-81.007 16.624l.09.996.089.996c35.004-3.138 59.416-5.623 81.726-16.829zm-81.366 16.727.324.946c29.75-10.191 50.614-17.789 65.672-29.854l-.625-.78-.625-.781C46.79 98.79 26.292 106.288-3.546 116.509z"/><path fill="#fff" d="M87.469 42.813a7 7 0 0 1-.14.797 4 4 0 0 1-.204.703 1.2 1.2 0 0 1-.328.469.6.6 0 0 1-.438.187q-.249 0-.453-.39a5.4 5.4 0 0 1-.39-1 22 22 0 0 1-.329-1.438 74 74 0 0 1-.265-1.61 51 51 0 0 1-.188-1.609q-.078-.78-.125-1.359-.093.593-.218 1.328a29 29 0 0 1-.672 2.985q-.203.718-.438 1.296a4 4 0 0 1-.5.907q-.265.343-.562.343-.266 0-.531-.359a4.8 4.8 0 0 1-.516-.937 14 14 0 0 1-.469-1.313q-.219-.72-.406-1.437-.187-.735-.328-1.375a33 33 0 0 1-.219-1.094q0 .328-.016.734v.563q0 .078-.015.515 0 .437-.047 1.047t-.14 1.313a7.7 7.7 0 0 1-.282 1.28q-.172.595-.437 1-.266.407-.657.438a1.26 1.26 0 0 1-.531-.468 3.8 3.8 0 0 1-.344-.797 6.6 6.6 0 0 1-.219-.969 16 16 0 0 1-.187-1.922v-.687q0-.469.047-1.172.062-.72.187-1.5.126-.782.329-1.563a8.3 8.3 0 0 1 .484-1.39 3.8 3.8 0 0 1 .672-1.016q.39-.39.89-.39.235 0 .5.265.267.265.532.703.266.422.515.953.25.531.469 1.078.234.532.406 1.032.173.484.281.828.126-.375.313-.875t.406-1.031q.234-.548.5-1.063a8 8 0 0 1 .578-.937q.297-.423.594-.672.313-.266.625-.266.547 0 .938.406t.656 1.063q.266.64.422 1.453.156.796.234 1.594.095.78.11 1.468.03.688.03 1.11v.469q0 .296-.015.671 0 .375-.031.797t-.078.844m7.875-.5q0 .282-.031.734a4.3 4.3 0 0 1-.126.891 2.1 2.1 0 0 1-.343.734q-.234.313-.656.313-.579 0-.891-.375T93 43.672q-.5.438-1.14.688-.625.25-1.282.25-.452 0-.86-.219A2.7 2.7 0 0 1 89 43.83a2.9 2.9 0 0 1-.5-.766 2.2 2.2 0 0 1-.187-.86q0-.75.453-1.312a4.3 4.3 0 0 1 1.14-.953q.672-.406 1.422-.64.766-.235 1.36-.313v-.14a.6.6 0 0 0 .015-.141q0-.485-.266-.782t-.75-.296q-.39 0-.671.14a3.3 3.3 0 0 0-.532.297q-.25.156-.5.297a1.24 1.24 0 0 1-.562.125.87.87 0 0 1-.594-.219.74.74 0 0 1-.234-.562q0-.516.297-.938.312-.421.765-.703a4 4 0 0 1 1-.453 3.4 3.4 0 0 1 1-.172q.422 0 .844.11.422.093.797.312.375.203.672.516.312.296.5.703.28.578.453 1.234.172.64.266 1.328.094.672.124 1.36.032.671.032 1.312m-2.5-.5-.047-1.062h-.063a.14.14 0 0 0-.062-.016q-.203 0-.516.11-.297.093-.578.28a2.3 2.3 0 0 0-.484.391.7.7 0 0 0-.188.453q0 .219.156.297a.8.8 0 0 0 .36.078q.344 0 .734-.172.39-.187.688-.359m8.015-5.89q0 .452-.312.671a6 6 0 0 1-.672.422q-.376.188-.687.453-.297.266-.297.797 0 .282.125.485.14.202.328.375.203.156.437.328.234.171.422.39.204.219.328.532.141.312.141.765 0 .657-.344 1.297a4.27 4.27 0 0 1-2.031 1.906q-.657.297-1.297.297-.266 0-.531-.047a1.5 1.5 0 0 1-.485-.14 1.05 1.05 0 0 1-.343-.297.9.9 0 0 1-.141-.516q0-.437.172-.672.172-.25.437-.39.266-.14.563-.22.311-.077.578-.187.266-.124.438-.312t.171-.531q0-.33-.265-.672-.25-.36-.563-.75a8 8 0 0 1-.578-.86 2.04 2.04 0 0 1-.25-1q0-.672.266-1.234.28-.578.734-1 .47-.422 1.063-.656a3.2 3.2 0 0 1 1.25-.25q.25 0 .484.047.25.046.438.172a.8.8 0 0 1 .296.312.85.85 0 0 1 .125.484m11.032 6.39q0 .282-.032.734-.015.454-.125.891a2.1 2.1 0 0 1-.343.734q-.235.313-.657.313-.578 0-.89-.375-.314-.375-.297-.938-.5.438-1.141.688a3.4 3.4 0 0 1-1.281.25q-.454 0-.859-.219a2.7 2.7 0 0 1-.719-.562 2.9 2.9 0 0 1-.5-.766 2.2 2.2 0 0 1-.188-.86q0-.75.453-1.312a4.3 4.3 0 0 1 1.141-.953q.672-.406 1.422-.64.766-.235 1.359-.313v-.14a.6.6 0 0 0 .016-.141q0-.485-.266-.782t-.75-.296q-.39 0-.672.14a3.3 3.3 0 0 0-.531.297q-.25.156-.5.297a1.24 1.24 0 0 1-.562.125.87.87 0 0 1-.594-.219.74.74 0 0 1-.234-.562q0-.516.297-.938.312-.421.765-.703a4 4 0 0 1 1-.453 3.4 3.4 0 0 1 1-.172q.422 0 .844.11.422.093.797.312.375.203.672.516.312.296.5.703.28.578.453 1.234.172.64.265 1.328.095.672.125 1.36.032.671.032 1.312m-2.5-.5-.047-1.062h-.063a.14.14 0 0 0-.062-.016 1.6 1.6 0 0 0-.516.11 2.3 2.3 0 0 0-.578.28 2.3 2.3 0 0 0-.484.391.7.7 0 0 0-.188.453q0 .219.156.297a.8.8 0 0 0 .36.078q.344 0 .734-.172.391-.187.688-.359m7.078 3.266q-1.11 0-1.735-.297a2 2 0 0 1-.922-.813q-.296-.531-.359-1.281-.062-.75-.062-1.672 0-.735.047-1.469.047-.75.14-1.593-.219 0-.344.015h-.203a1.6 1.6 0 0 1-.859-.218q-.375-.219-.375-.672 0-.282.219-.5a1.7 1.7 0 0 1 .531-.375q.328-.157.703-.25.39-.095.734-.125 0-.438.063-.97.062-.53.219-.983.171-.469.453-.782a.92.92 0 0 1 .719-.312q.25 0 .437.156.203.141.328.375a1.8 1.8 0 0 1 .188.5q.062.282.062.547 0 .312-.047.64-.046.33-.172.813.266-.03.36-.031.094-.016.172-.016.266 0 .546.047.297.046.532.156.25.11.406.297a.6.6 0 0 1 .156.422.67.67 0 0 1-.234.5q-.219.218-.563.375a4 4 0 0 1-.734.25q-.39.078-.734.11-.094.64-.141 1.187-.031.53-.078 1.078l-.063.547q-.015.266-.015.547 0 .203.015.484.016.266.11.516.093.25.297.437.203.172.562.172.219 0 .453-.031.235-.047.469-.047.407 0 .578.281.188.282.188.719a.9.9 0 0 1-.204.578 1.3 1.3 0 0 1-.484.375 2.6 2.6 0 0 1-.672.235 3.2 3.2 0 0 1-.687.078m8.906-3.344q0 .531-.344 1.047a3.9 3.9 0 0 1-.843.906 5 5 0 0 1-1.079.64q-.578.235-1.062.235a2.77 2.77 0 0 1-1.485-.406 3.9 3.9 0 0 1-1.078-1.063 5.2 5.2 0 0 1-.672-1.406 5.6 5.6 0 0 1-.218-1.516q0-.78.218-1.671a6.1 6.1 0 0 1 .657-1.641q.453-.75 1.125-1.25.687-.5 1.625-.5.53 0 1.015.187.485.173.844.5.36.33.578.782.219.453.219 1.015 0 .735-.313 1.375a3.6 3.6 0 0 1-.828 1.11 4.4 4.4 0 0 1-1.187.765 4 4 0 0 1-1.375.313q.063.453.359.656.313.203.735.203.312 0 .609-.156a6 6 0 0 0 .578-.344q.282-.203.547-.36.282-.155.562-.155a.87.87 0 0 1 .563.203.65.65 0 0 1 .25.53m-2.531-3.828a.94.94 0 0 0-.11-.422.36.36 0 0 0-.343-.219.9.9 0 0 0-.579.188 1.4 1.4 0 0 0-.39.453q-.156.266-.25.578a3 3 0 0 0-.094.578q.219-.047.516-.125.312-.078.578-.203.281-.141.469-.344a.66.66 0 0 0 .203-.484m7.594 7.047q-.267 0-.422-.25a1.7 1.7 0 0 1-.235-.547 4.4 4.4 0 0 1-.109-.625 11 11 0 0 1-.016-.5q0-.469.047-.938l.125-.937q.078-.469.125-.938a7 7 0 0 0 .063-.937q0-.187-.016-.406a1.6 1.6 0 0 0-.078-.407.66.66 0 0 0-.172-.328.44.44 0 0 0-.328-.125q-.14 0-.313.235a3.4 3.4 0 0 0-.328.515q-.14.282-.25.578a1.5 1.5 0 0 0-.093.422v.703q.015.345.015.703v.907q-.015.28-.047.578-.031.297-.094.578a3.3 3.3 0 0 1-.14.547 1.8 1.8 0 0 1-.25.453 1.2 1.2 0 0 1-.344.312.9.9 0 0 1-.484.125.7.7 0 0 1-.516-.203 1.5 1.5 0 0 1-.328-.515 3.7 3.7 0 0 1-.188-.72q-.047-.405-.078-.78-.015-.39-.015-.703.015-.33.015-.516V40.5q0-.594-.031-1.172-.015-.578-.015-1.157v-.796q.016-.485.124-.938.11-.468.36-.797.25-.328.734-.328.219 0 .391.14.171.141.297.344.14.204.218.438.095.234.141.406.156-.218.359-.422.22-.203.485-.36a2.54 2.54 0 0 1 1.344-.343q.796 0 1.234.39.453.375.656.954.22.562.266 1.219.047.656.047 1.187 0 .266-.047.797-.047.516-.156 1.156a13 13 0 0 1-.266 1.297q-.172.657-.406 1.203a3 3 0 0 1-.563.89q-.312.345-.718.345m7.89 1.859q0 .453-.219.844-.218.39-.562.687t-.781.469a2.3 2.3 0 0 1-.86.172q-.312 0-.64-.063a2 2 0 0 1-.594-.187 2 2 0 0 1-.484-.36 1.4 1.4 0 0 1-.329-.546.45.45 0 0 1-.047-.203.55.55 0 0 1 .188-.422.65.65 0 0 1 .422-.172.48.48 0 0 1 .328.11q.141.124.297.265.156.14.375.25.219.125.594.125a1 1 0 0 0 .593-.203.64.64 0 0 0 .282-.547.5.5 0 0 0-.172-.39 1.8 1.8 0 0 0-.375-.282l-.438-.25a.86.86 0 0 1-.328-.266q-.125-.171-.125-.5v-.75a2.2 2.2 0 0 1-1.078-.562 3.5 3.5 0 0 1-.703-1.016 5.4 5.4 0 0 1-.391-1.234 6.7 6.7 0 0 1-.125-1.25q0-.516.094-1.094.093-.578.281-1.14.188-.563.485-1.079a4.3 4.3 0 0 1 .687-.906 3.4 3.4 0 0 1 .906-.625 2.7 2.7 0 0 1 1.141-.234q.563 0 .984.25.423.25.688.656.28.406.422.906.14.5.14 1 0 .125-.015.297a.9.9 0 0 1-.047.297 1.4 1.4 0 0 1-.406.547 1 1 0 0 1-.641.219q-.531 0-.734-.532a1.1 1.1 0 0 1-.047-.36q.015-.233-.016-.437a.84.84 0 0 0-.109-.375q-.094-.156-.328-.156-.282 0-.532.344a3.4 3.4 0 0 0-.437.797q-.187.468-.297.953a3.5 3.5 0 0 0-.109.75q0 .203.031.547.047.328.141.656.108.328.281.563a.58.58 0 0 0 .469.234.85.85 0 0 0 .515-.172 5 5 0 0 0 .453-.375q.219-.219.438-.39a.77.77 0 0 1 .484-.172.65.65 0 0 1 .531.25q.219.25.219.578 0 .405-.187.78-.188.36-.485.657t-.687.516q-.375.219-.766.312v.094a2 2 0 0 1-.015.203.4.4 0 0 1-.047.203q.25.094.547.25.296.172.546.39.25.236.422.5.172.282.172.579m8.172-4.5q0 .282-.031.734a4.3 4.3 0 0 1-.125.891 2.1 2.1 0 0 1-.344.734q-.234.313-.656.313-.579 0-.891-.375t-.297-.938q-.5.438-1.14.688-.625.25-1.282.25-.453 0-.859-.219a2.7 2.7 0 0 1-.719-.562 2.9 2.9 0 0 1-.5-.766 2.2 2.2 0 0 1-.187-.86q0-.75.453-1.312a4.3 4.3 0 0 1 1.14-.953q.672-.406 1.422-.64.766-.235 1.36-.313v-.14a.6.6 0 0 0 .015-.141q0-.485-.265-.782-.266-.297-.75-.296-.392 0-.672.14a3.3 3.3 0 0 0-.531.297q-.25.156-.5.297a1.25 1.25 0 0 1-.563.125.87.87 0 0 1-.594-.219.74.74 0 0 1-.234-.562q0-.516.297-.938.312-.421.765-.703a4 4 0 0 1 1-.453 3.4 3.4 0 0 1 1-.172q.423 0 .844.11.423.093.797.312.375.203.672.516.312.296.5.703.281.578.453 1.234.172.64.266 1.328.093.672.125 1.36.031.671.031 1.312m-2.5-.5-.047-1.062h-.062a.14.14 0 0 0-.063-.016q-.202 0-.516.11a2.3 2.3 0 0 0-.578.28 2.3 2.3 0 0 0-.484.391.7.7 0 0 0-.188.453q0 .219.157.297a.8.8 0 0 0 .359.078q.344 0 .734-.172.391-.187.688-.359m1.891-8.937a1 1 0 0 1-.157.5 2.3 2.3 0 0 1-.39.468q-.234.204-.5.344a1.2 1.2 0 0 1-.5.125q-.234 0-.469-.078-.219-.094-.453-.203a4 4 0 0 0-.438-.188 1.1 1.1 0 0 0-.437-.093.64.64 0 0 0-.344.109 5 5 0 0 0-.359.219q-.187.108-.391.203a.8.8 0 0 1-.375.094.49.49 0 0 1-.406-.204.75.75 0 0 1-.156-.437.85.85 0 0 1 .187-.516q.187-.25.469-.437.28-.204.578-.313.313-.125.547-.125.266 0 .453.11.202.109.375.25.172.14.344.25.188.109.437.109a.7.7 0 0 0 .375-.11q.188-.124.36-.265.187-.156.343-.266a.6.6 0 0 1 .36-.125q.219 0 .375.188a.58.58 0 0 1 .172.39m4.515 12.093q-.797 0-1.39-.422a3.7 3.7 0 0 1-1-1.078 5.2 5.2 0 0 1-.61-1.453 6.6 6.6 0 0 1-.203-1.594q0-.828.203-1.703.204-.89.625-1.61.422-.734 1.078-1.187.657-.468 1.563-.468.875 0 1.484.484.625.469 1 1.188.375.703.532 1.546.156.844.109 1.594a8.6 8.6 0 0 1-.266 1.672 5.3 5.3 0 0 1-.609 1.516 3.5 3.5 0 0 1-1.031 1.093q-.626.422-1.485.422m.156-7.062q-.234 0-.421.25-.172.25-.297.61-.11.358-.172.765-.063.39-.063.687 0 .375.063.813.078.437.203.812.124.36.297.61.188.234.422.234.25 0 .422-.234.188-.235.296-.594.11-.36.157-.781a8 8 0 0 0 .047-.813q0-.345-.063-.75a4.3 4.3 0 0 0-.187-.781 1.8 1.8 0 0 0-.297-.594q-.172-.234-.407-.234m6.297 2.031q0 .202-.093.375a.9.9 0 0 1-.25.266q-.142.109-.328.172a1 1 0 0 1-.36.062 2 2 0 0 1-.516-.078 3 3 0 0 1-.5-.234 1.8 1.8 0 0 1-.374-.36.8.8 0 0 1-.157-.484q0-.438.36-.64.359-.22.734-.22.235 0 .484.079.266.078.485.234.234.14.375.36.14.202.14.468m0 3.828q0 .203-.093.375a.9.9 0 0 1-.25.266q-.142.11-.328.172a1 1 0 0 1-.36.062q-.234 0-.516-.094a1.8 1.8 0 0 1-.5-.234 1.8 1.8 0 0 1-.374-.36.8.8 0 0 1-.157-.484q0-.422.36-.625.359-.218.734-.218.235 0 .484.078.266.078.485.234.234.14.375.36.14.202.14.468m11.11-2.031q0 .531-.344 1.047-.328.5-.844.906a5 5 0 0 1-1.078.64q-.577.235-1.062.235a2.77 2.77 0 0 1-1.485-.406 3.9 3.9 0 0 1-1.078-1.063 5.1 5.1 0 0 1-.672-1.406 5.6 5.6 0 0 1-.218-1.516q0-.78.218-1.671.22-.891.656-1.641.454-.75 1.126-1.25.688-.5 1.624-.5.532 0 1.016.187a2.45 2.45 0 0 1 1.422 1.282q.219.453.219 1.015 0 .735-.313 1.375a3.6 3.6 0 0 1-.828 1.11 4.4 4.4 0 0 1-1.187.765 4 4 0 0 1-1.375.313q.062.453.359.656.312.203.734.203.313 0 .61-.156.296-.156.578-.344.281-.203.547-.36.281-.155.562-.155a.87.87 0 0 1 .563.203q.25.203.25.53m-2.531-3.828a.94.94 0 0 0-.11-.422.36.36 0 0 0-.344-.219.9.9 0 0 0-.578.188 1.4 1.4 0 0 0-.39.453q-.157.266-.25.578a3 3 0 0 0-.094.578q.219-.047.516-.125.312-.078.578-.203.28-.141.468-.344a.66.66 0 0 0 .204-.484m7.734-1.985q0 .453-.313.672a6 6 0 0 1-.671.422q-.375.188-.688.453-.297.266-.297.797a.9.9 0 0 0 .125.485q.14.202.328.375.204.156.438.328.234.171.422.39.202.219.328.532.14.312.14.765 0 .657-.343 1.297a4.3 4.3 0 0 1-.86 1.125 4.3 4.3 0 0 1-1.172.781 3.1 3.1 0 0 1-1.297.297q-.265 0-.531-.047a1.5 1.5 0 0 1-.484-.14 1.04 1.04 0 0 1-.344-.297.9.9 0 0 1-.141-.516q0-.437.172-.672.172-.25.438-.39.265-.14.562-.22.313-.077.578-.187.266-.124.438-.312t.172-.531q0-.33-.266-.672-.25-.36-.562-.75a8 8 0 0 1-.578-.86 2.03 2.03 0 0 1-.25-1q0-.672.265-1.234.282-.578.735-1a3.5 3.5 0 0 1 1.062-.656q.594-.25 1.25-.25.25 0 .484.047.25.046.438.172a.8.8 0 0 1 .297.312.86.86 0 0 1 .125.484m5.203 0q0 .453-.313.672a6 6 0 0 1-.671.422q-.375.188-.688.453-.297.266-.297.797a.9.9 0 0 0 .125.485q.14.202.328.375.204.156.438.328.234.171.422.39a1.7 1.7 0 0 1 .328.532q.141.312.141.765 0 .657-.344 1.297a4.2 4.2 0 0 1-.86 1.125 4.3 4.3 0 0 1-1.172.781 3.1 3.1 0 0 1-1.296.297q-.266 0-.532-.047a1.5 1.5 0 0 1-.484-.14 1.05 1.05 0 0 1-.344-.297.9.9 0 0 1-.14-.516q0-.437.172-.672.171-.25.437-.39t.563-.22q.312-.077.578-.187.266-.124.437-.312.172-.188.172-.531 0-.33-.266-.672-.25-.36-.562-.75a8 8 0 0 1-.578-.86 2.03 2.03 0 0 1-.25-1q0-.672.265-1.234.282-.578.735-1a3.5 3.5 0 0 1 1.062-.656q.594-.25 1.25-.25.25 0 .485.047.25.046.437.172a.8.8 0 0 1 .297.312.86.86 0 0 1 .125.484m7.172 5.813q0 .531-.344 1.047-.328.5-.844.906a5 5 0 0 1-1.078.64q-.577.235-1.062.235a2.77 2.77 0 0 1-1.485-.406 3.9 3.9 0 0 1-1.078-1.063 5.2 5.2 0 0 1-.672-1.406 5.6 5.6 0 0 1-.218-1.516q0-.78.218-1.671a6.1 6.1 0 0 1 .657-1.641q.453-.75 1.125-1.25.687-.5 1.625-.5.53 0 1.015.187a2.45 2.45 0 0 1 1.422 1.282q.219.453.219 1.015 0 .735-.313 1.375a3.6 3.6 0 0 1-.828 1.11 4.4 4.4 0 0 1-1.187.765 4 4 0 0 1-1.375.313q.062.453.359.656.312.203.735.203.312 0 .609-.156a6 6 0 0 0 .578-.344q.281-.203.547-.36.281-.155.562-.155a.87.87 0 0 1 .563.203.65.65 0 0 1 .25.53m-2.531-3.828a.94.94 0 0 0-.11-.422.36.36 0 0 0-.344-.219.9.9 0 0 0-.578.188 1.4 1.4 0 0 0-.39.453q-.156.266-.25.578a3 3 0 0 0-.094.578q.219-.047.516-.125.312-.078.578-.203.281-.141.468-.344a.66.66 0 0 0 .204-.484m7.734-1.985q0 .453-.312.672a6 6 0 0 1-.672.422q-.375.188-.688.453-.297.266-.297.797a.9.9 0 0 0 .125.485q.14.202.328.375.204.156.438.328.234.171.422.39a1.7 1.7 0 0 1 .328.532q.14.312.14.765 0 .657-.343 1.297a4.2 4.2 0 0 1-.86 1.125 4.3 4.3 0 0 1-1.171.781 3.1 3.1 0 0 1-1.297.297q-.266 0-.532-.047a1.5 1.5 0 0 1-.484-.14 1.05 1.05 0 0 1-.344-.297.9.9 0 0 1-.14-.516q0-.437.171-.672.173-.25.438-.39.266-.14.562-.22.314-.077.579-.187.266-.124.437-.312.172-.188.172-.531 0-.33-.266-.672-.25-.36-.562-.75a8 8 0 0 1-.578-.86 2.03 2.03 0 0 1-.25-1q0-.672.265-1.234.282-.578.735-1a3.5 3.5 0 0 1 1.062-.656q.594-.25 1.25-.25.25 0 .485.047.25.046.437.172a.8.8 0 0 1 .297.312.86.86 0 0 1 .125.484m8.969 0q0 .453-.313.672a6 6 0 0 1-.672.422q-.375.188-.687.453-.297.266-.297.797a.9.9 0 0 0 .125.485q.14.202.328.375.203.156.438.328.234.171.421.39.204.219.329.532.14.312.14.765 0 .657-.343 1.297a4.3 4.3 0 0 1-.86 1.125 4.3 4.3 0 0 1-1.172.781q-.656.297-1.297.297-.266 0-.531-.047a1.5 1.5 0 0 1-.484-.14 1.04 1.04 0 0 1-.344-.297.9.9 0 0 1-.141-.516q0-.437.172-.672.173-.25.438-.39t.562-.22q.313-.077.578-.187.265-.124.438-.312.171-.188.172-.531 0-.33-.266-.672a15 15 0 0 0-.562-.75 8 8 0 0 1-.579-.86 2.04 2.04 0 0 1-.25-1q0-.672.266-1.234.281-.578.734-1 .47-.422 1.063-.656.594-.25 1.25-.25.25 0 .484.047.25.046.438.172a.8.8 0 0 1 .297.312.86.86 0 0 1 .125.484m3.203-2.312a.65.65 0 0 1-.125.39 1.2 1.2 0 0 1-.297.313q-.187.125-.406.203a1.5 1.5 0 0 1-.406.063.96.96 0 0 1-.547-.157q-.235-.156-.235-.484a.74.74 0 0 1 .11-.406q.125-.187.296-.297.172-.126.391-.188t.422-.062q.297 0 .547.14t.25.485m.125 5.312v.47q0 .233-.016.452-.015.266-.015.719 0 .438-.032.953-.03.516-.109 1.047a4.4 4.4 0 0 1-.219.969 2 2 0 0 1-.422.719.9.9 0 0 1-.64.28.58.58 0 0 1-.5-.234 2.2 2.2 0 0 1-.344-.64 5.4 5.4 0 0 1-.188-.89 18 18 0 0 1-.093-.954 13 13 0 0 1-.031-.86v-1.281q0-.468.031-1 .031-.53.109-1.078.094-.546.25-1 .173-.453.438-.734a.88.88 0 0 1 .672-.281q.421 0 .64.422.219.42.328.984.11.562.125 1.125.016.546.016.812m5.547 6.032q-.266 0-.422-.25a1.7 1.7 0 0 1-.234-.547 4 4 0 0 1-.11-.625 12 12 0 0 1-.016-.5q0-.469.047-.938l.125-.937q.078-.469.125-.938a7 7 0 0 0 .063-.937q0-.187-.016-.406a1.6 1.6 0 0 0-.078-.407.66.66 0 0 0-.172-.328.44.44 0 0 0-.328-.125q-.141 0-.312.235a3.3 3.3 0 0 0-.328.515q-.142.282-.25.578a1.5 1.5 0 0 0-.094.422v.703q.015.345.015.703v.907q-.015.28-.047.578-.03.297-.093.578-.046.281-.141.547a1.7 1.7 0 0 1-.25.453 1.2 1.2 0 0 1-.344.312.9.9 0 0 1-.484.125.7.7 0 0 1-.516-.203 1.5 1.5 0 0 1-.328-.515 3.6 3.6 0 0 1-.187-.72q-.047-.405-.078-.78-.016-.39-.016-.703.016-.33.016-.516V40.5q0-.594-.032-1.172-.015-.578-.015-1.157v-.796q.015-.485.125-.938a2.1 2.1 0 0 1 .359-.797q.25-.328.734-.328a.6.6 0 0 1 .391.14q.173.141.297.344.141.204.219.438.093.234.14.406.157-.218.36-.422.219-.203.484-.36a2.54 2.54 0 0 1 1.344-.343q.797 0 1.234.39.453.375.657.954.218.562.265 1.219.047.656.047 1.187 0 .266-.047.797-.047.516-.156 1.156a13 13 0 0 1-.266 1.297q-.171.657-.406 1.203a3 3 0 0 1-.563.89q-.312.345-.718.345m9.672-2.641q0 .282-.032.734-.015.454-.125.891a2.1 2.1 0 0 1-.343.734q-.235.313-.657.313-.578 0-.89-.375-.314-.375-.297-.938-.5.438-1.141.688-.624.25-1.281.25-.453 0-.859-.219a2.7 2.7 0 0 1-.719-.562 2.9 2.9 0 0 1-.5-.766 2.2 2.2 0 0 1-.188-.86q0-.75.454-1.312a4.2 4.2 0 0 1 1.14-.953q.672-.406 1.422-.64.766-.235 1.359-.313v-.14a.6.6 0 0 0 .016-.141q0-.485-.266-.782t-.75-.296q-.39 0-.671.14a3.3 3.3 0 0 0-.532.297q-.25.156-.5.297a1.24 1.24 0 0 1-.562.125.87.87 0 0 1-.594-.219.74.74 0 0 1-.234-.562q0-.516.296-.938.313-.421.766-.703a4 4 0 0 1 1-.453 3.4 3.4 0 0 1 1-.172q.422 0 .844.11.422.093.797.312.375.203.672.516.312.296.5.703.28.578.453 1.234.172.64.265 1.328.095.672.125 1.36.032.671.032 1.312m-2.5-.5-.047-1.062h-.063a.14.14 0 0 0-.062-.016 1.6 1.6 0 0 0-.516.11q-.296.093-.578.28a2.3 2.3 0 0 0-.484.391.7.7 0 0 0-.188.453q0 .219.156.297a.8.8 0 0 0 .36.078q.344 0 .734-.172.391-.187.688-.359m6.015-8.203a.64.64 0 0 1-.125.39 1.2 1.2 0 0 1-.297.313q-.187.125-.406.203a1.5 1.5 0 0 1-.406.063.96.96 0 0 1-.547-.157q-.234-.156-.234-.484a.74.74 0 0 1 .109-.406 1 1 0 0 1 .297-.297 1.2 1.2 0 0 1 .39-.188q.22-.062.422-.062.297 0 .547.14t.25.485m.125 5.312v.47q0 .233-.015.452-.016.266-.016.719 0 .438-.031.953-.032.516-.11 1.047a4.4 4.4 0 0 1-.218.969 2 2 0 0 1-.422.719.9.9 0 0 1-.641.28.58.58 0 0 1-.5-.234 2.2 2.2 0 0 1-.344-.64 5.4 5.4 0 0 1-.187-.89 17 17 0 0 1-.094-.954 13 13 0 0 1-.031-.86v-1.281q0-.468.031-1 .031-.53.11-1.078.093-.546.25-1 .171-.453.437-.734a.88.88 0 0 1 .672-.281q.422 0 .641.422.218.42.328.984.109.562.125 1.125.015.546.015.812m5.688-3q0 .453-.313.672a6 6 0 0 1-.672.422q-.375.188-.687.453-.297.266-.297.797a.9.9 0 0 0 .125.485q.14.202.328.375.203.156.438.328.233.171.422.39.202.219.328.532.14.312.14.765 0 .657-.344 1.297a4.2 4.2 0 0 1-.859 1.125 4.3 4.3 0 0 1-1.172.781q-.656.297-1.297.297-.266 0-.531-.047a1.5 1.5 0 0 1-.484-.14 1.04 1.04 0 0 1-.344-.297.9.9 0 0 1-.141-.516q0-.437.172-.672.173-.25.438-.39t.562-.22q.313-.077.578-.187.265-.124.438-.312.171-.188.172-.531 0-.33-.266-.672a15 15 0 0 0-.562-.75 8 8 0 0 1-.578-.86 2.03 2.03 0 0 1-.25-1q0-.672.265-1.234.281-.578.735-1a3.5 3.5 0 0 1 1.062-.656q.594-.25 1.25-.25.25 0 .484.047.25.046.438.172a.8.8 0 0 1 .297.312.86.86 0 0 1 .125.484m13.875 3.438v.812q0 .5-.031 1.094-.016.594-.094 1.203a5.3 5.3 0 0 1-.25 1.078q-.157.485-.406.797a.79.79 0 0 1-.641.313.6.6 0 0 1-.531-.281 2.2 2.2 0 0 1-.25-.688 5 5 0 0 1-.094-.797v-.64q0-.705.047-1.375.047-.672.047-1.375v-.282q0-.202-.032-.406a1.2 1.2 0 0 0-.109-.36q-.062-.156-.203-.156-.282 0-.453.297a2.6 2.6 0 0 0-.281.672q-.11.39-.157.781-.047.375-.062.563a9 9 0 0 0-.063.61q-.015.405-.062.89a9 9 0 0 1-.125 1 6 6 0 0 1-.219.922q-.125.406-.328.672-.204.265-.5.265a.64.64 0 0 1-.578-.328 2.4 2.4 0 0 1-.297-.765 6 6 0 0 1-.125-.891 20 20 0 0 1-.016-.703v-.516q.016-.25.016-.515v-.36q0-.25-.016-.547 0-.312-.031-.64a5 5 0 0 0-.063-.594 1.5 1.5 0 0 0-.14-.453q-.095-.172-.219-.172-.202 0-.375.266-.171.25-.297.609a6 6 0 0 0-.203.687q-.062.344-.062.5v.094q0 .75.093 1.469.094.719.094 1.469 0 .437-.281.812-.282.36-.781.36a.76.76 0 0 1-.594-.266 2.4 2.4 0 0 1-.391-.719 6 6 0 0 1-.25-.953 13 13 0 0 1-.109-1.031 39 39 0 0 1-.047-.922v-.625a20 20 0 0 0-.016-.688q0-.453.016-.984.031-.531.094-1.078a5.4 5.4 0 0 1 .203-1.016q.14-.453.359-.734a.73.73 0 0 1 .594-.297q.407 0 .656.219.266.218.266.656 0 .094-.016.188 0 .094-.015.171.172-.25.421-.5.25-.265.532-.468.297-.218.625-.344.328-.14.656-.14.312 0 .563.171t.437.438a2.6 2.6 0 0 1 .313.547q.125.296.171.562a5 5 0 0 1 .375-.562q.235-.297.5-.516.266-.219.578-.36.329-.14.672-.14.329 0 .563.234.235.235.406.61.172.36.266.828.093.453.156.906.063.438.078.828.016.375.016.594m7.875.687q0 .86-.172 1.704a4.7 4.7 0 0 1-.578 1.515 3.15 3.15 0 0 1-1.094 1.063q-.672.406-1.688.406-.999 0-1.671-.39a3.2 3.2 0 0 1-1.079-1.063 4.8 4.8 0 0 1-.562-1.485 9 9 0 0 1-.156-1.687q0-.937.218-1.86.048-.249.172-.687.141-.453.344-.875.219-.438.484-.75.282-.312.61-.312.312 0 .5.171.187.172.297.438.11.25.14.547.032.281.032.515 0 .36-.063.704-.047.343-.109.687l-.125.938a9 9 0 0 0-.032 1.468q.031.282.126.547.094.266.265.453.172.172.485.172.406 0 .64-.219.25-.218.36-.546.125-.33.156-.704.031-.375.031-.687 0-.688-.094-1.344-.094-.671-.172-1.36a1.5 1.5 0 0 1 .063-.687q.078-.234.219-.422.14-.188.343-.296a.85.85 0 0 1 .454-.125q.343 0 .609.25.266.234.437.625.187.375.297.859.125.468.188.937.078.453.093.86.032.406.032.64m7.687-5.812q0 1.14-.093 2.266-.08 1.125-.079 2.265 0 .922.047 1.828.063.906.063 1.828 0 .25-.016.61-.016.344-.109.672a1.3 1.3 0 0 1-.282.562q-.187.234-.546.235-.469 0-.782-.344a1.7 1.7 0 0 1-.375-.797 2.7 2.7 0 0 1-.859.953q-.562.39-1.219.39-.703.001-1.219-.484a4.3 4.3 0 0 1-.843-1.172 7 7 0 0 1-.5-1.437 6.5 6.5 0 0 1-.157-1.297 9.7 9.7 0 0 1 .204-1.906q.125-.516.312-1 .187-.5.469-.89.297-.392.687-.626.406-.234.922-.234.563 0 1.078.328.516.329.782.812l.14-2.484q.016-.297.047-.687.032-.407.125-.766.11-.36.328-.61.22-.25.641-.25.453 0 .703.22.25.218.359.562.126.328.141.719.031.39.031.734m-2.547 6.937q0-.36-.015-.703a8 8 0 0 1 0-.703 9 9 0 0 0-.219-.437 2 2 0 0 0-.312-.453 1.6 1.6 0 0 0-.391-.36.85.85 0 0 0-.469-.14.6.6 0 0 0-.453.171 1 1 0 0 0-.25.422 2.5 2.5 0 0 0-.109.516 8 8 0 0 0-.016.484q0 .188.031.563.032.36.11.734.093.375.25.656.156.282.421.282.203 0 .407-.078.202-.094.375-.22a3 3 0 0 0 .344-.296q.171-.172.296-.313zm10.219 1.141q0 .282-.031.734a4.3 4.3 0 0 1-.125.891 2.1 2.1 0 0 1-.344.734q-.234.313-.656.313-.578 0-.891-.375-.312-.375-.297-.938-.5.438-1.14.688-.625.25-1.281.25-.454 0-.86-.219a2.7 2.7 0 0 1-.719-.562 2.9 2.9 0 0 1-.5-.766 2.2 2.2 0 0 1-.187-.86q0-.75.453-1.312a4.3 4.3 0 0 1 1.141-.953q.672-.406 1.422-.64.765-.235 1.359-.313v-.14a.6.6 0 0 0 .015-.141q0-.485-.265-.782-.266-.297-.75-.296-.392 0-.672.14a3.3 3.3 0 0 0-.531.297q-.25.156-.5.297a1.24 1.24 0 0 1-.563.125.87.87 0 0 1-.593-.219.73.73 0 0 1-.235-.562q0-.516.297-.938.313-.421.766-.703a4 4 0 0 1 1-.453 3.4 3.4 0 0 1 1-.172q.421 0 .843.11.423.093.797.312.375.203.672.516.312.296.5.703.282.578.453 1.234.172.64.266 1.328.093.672.125 1.36.031.671.031 1.312m-2.5-.5-.047-1.062h-.062a.14.14 0 0 0-.063-.016q-.203 0-.515.11a2.3 2.3 0 0 0-.578.28 2.3 2.3 0 0 0-.485.391.7.7 0 0 0-.187.453q0 .219.156.297a.8.8 0 0 0 .359.078q.344 0 .735-.172.39-.187.687-.359m12.922-2.453v.812q0 .5-.031 1.094-.016.594-.094 1.203a5.3 5.3 0 0 1-.25 1.078q-.156.485-.406.797a.79.79 0 0 1-.641.313.6.6 0 0 1-.531-.281 2.2 2.2 0 0 1-.25-.688 5 5 0 0 1-.094-.797v-.64q0-.705.047-1.375.047-.672.047-1.375v-.282q0-.202-.031-.406a1.2 1.2 0 0 0-.11-.36q-.062-.156-.203-.156-.28 0-.453.297a2.7 2.7 0 0 0-.281.672q-.11.39-.156.781-.048.375-.063.563a9 9 0 0 0-.063.61q-.015.405-.062.89a9 9 0 0 1-.125 1 6 6 0 0 1-.219.922q-.124.406-.328.672-.203.265-.5.265a.64.64 0 0 1-.578-.328 2.4 2.4 0 0 1-.297-.765 6.4 6.4 0 0 1-.125-.891q-.015-.454-.016-.703v-.516q.016-.25.016-.515v-.36q0-.25-.016-.547 0-.312-.031-.64a5 5 0 0 0-.062-.594 1.4 1.4 0 0 0-.141-.453q-.093-.172-.219-.172-.202 0-.375.266-.171.25-.296.609-.126.343-.204.687-.062.344-.062.5v.094q0 .75.094 1.469.093.719.093 1.469 0 .437-.281.812-.281.36-.781.36a.76.76 0 0 1-.594-.266 2.4 2.4 0 0 1-.391-.719 6 6 0 0 1-.25-.953 13 13 0 0 1-.109-1.031 45 45 0 0 1-.047-.922v-.625q0-.235-.015-.688 0-.453.015-.984.031-.531.094-1.078a5.5 5.5 0 0 1 .203-1.016q.141-.453.359-.734a.73.73 0 0 1 .594-.297q.407 0 .656.219.267.218.266.656 0 .094-.016.188 0 .094-.015.171a3.5 3.5 0 0 1 .422-.5q.249-.265.531-.468.297-.218.625-.344.328-.14.656-.14a.97.97 0 0 1 .563.171q.25.172.437.438a2.7 2.7 0 0 1 .485 1.11q.156-.282.375-.563.234-.297.5-.516.265-.219.578-.36.328-.14.672-.14.328 0 .562.234t.406.61q.172.36.266.828.095.453.156.906.063.438.078.828.016.375.016.594M86.055 55.235q0 1.14-.094 2.266-.078 1.125-.078 2.265 0 .922.047 1.828.062.907.062 1.828 0 .25-.015.61-.015.344-.11.672a1.3 1.3 0 0 1-.281.562q-.187.234-.547.234-.468 0-.781-.343a1.7 1.7 0 0 1-.375-.797 2.7 2.7 0 0 1-.86.953q-.562.39-1.218.39a1.72 1.72 0 0 1-1.22-.484 4.3 4.3 0 0 1-.843-1.172 7 7 0 0 1-.5-1.437 6.5 6.5 0 0 1-.156-1.297 9.7 9.7 0 0 1 .203-1.906q.125-.516.313-1 .187-.5.468-.89.297-.392.688-.626.405-.234.922-.234.562 0 1.078.328.516.329.781.812l.14-2.484q.016-.297.048-.687.03-.407.125-.766.108-.36.328-.61.219-.25.64-.25.454 0 .703.22.25.218.36.562.125.328.14.719.032.39.032.734m-2.547 6.937q0-.36-.016-.703-.015-.343 0-.703a9 9 0 0 0-.219-.437 2 2 0 0 0-.312-.453 1.6 1.6 0 0 0-.39-.36.85.85 0 0 0-.47-.14.6.6 0 0 0-.453.171 1 1 0 0 0-.25.422 2.5 2.5 0 0 0-.109.516 9 9 0 0 0-.016.484q0 .188.032.563.03.36.11.734.093.375.25.656.155.282.42.282.204 0 .407-.078.203-.094.375-.22.188-.14.344-.296.172-.172.297-.313zm10.125.563q0 .531-.344 1.047-.328.5-.844.906-.5.39-1.078.64-.578.235-1.062.235a2.76 2.76 0 0 1-1.485-.406 3.9 3.9 0 0 1-1.078-1.063 5.2 5.2 0 0 1-.672-1.406 5.6 5.6 0 0 1-.218-1.516q0-.78.218-1.671.219-.891.657-1.641.453-.75 1.125-1.25.687-.5 1.625-.5.53 0 1.015.187.484.173.844.5.36.33.578.782.219.453.219 1.015 0 .735-.313 1.375a3.6 3.6 0 0 1-.828 1.11q-.516.468-1.187.765a4 4 0 0 1-1.375.313q.062.453.36.656.311.203.733.203.313 0 .61-.156.296-.156.578-.344.281-.203.547-.36a1.15 1.15 0 0 1 .562-.155.87.87 0 0 1 .563.203q.25.203.25.53m-2.531-3.828a.94.94 0 0 0-.11-.422.36.36 0 0 0-.344-.219.9.9 0 0 0-.578.188 1.4 1.4 0 0 0-.39.453q-.157.266-.25.578a3 3 0 0 0-.094.578q.219-.047.516-.125.312-.078.578-.203.28-.141.468-.344a.66.66 0 0 0 .204-.484m14.078 1.953q0 .687-.157 1.516a5.3 5.3 0 0 1-.5 1.515q-.343.704-.921 1.172-.562.47-1.422.469-.219 0-.453-.031a2.2 2.2 0 0 1-.454-.11 1.7 1.7 0 0 1-.375-.203.9.9 0 0 1-.265-.36l-.141 2.25q-.016.36-.031.86 0 .5-.125.953a1.7 1.7 0 0 1-.39.766q-.266.328-.782.328-.297 0-.5-.313a2.5 2.5 0 0 1-.328-.765 9 9 0 0 1-.172-1.047 14 14 0 0 1-.078-1.11q-.015-.531-.016-.968v-.64q0-1.048-.015-2.079-.016-1.047-.016-2.094v-.578q0-.405.031-.875.031-.468.094-.969.078-.5.219-.906.14-.421.36-.672a.67.67 0 0 1 .53-.265.56.56 0 0 1 .36.125.86.86 0 0 1 .281.297q.125.172.203.375.078.202.125.375.484-.547 1.11-.829.64-.28 1.359-.28.75 0 1.219.421.484.422.75 1.047.28.624.39 1.344.11.702.11 1.28m-2.235-.125a2.3 2.3 0 0 0-.047-.469 1.3 1.3 0 0 0-.14-.453.77.77 0 0 0-.281-.344.76.76 0 0 0-.469-.14q-.375 0-.797.25a1.74 1.74 0 0 0-.609.547q-.08.124-.094.406a8 8 0 0 0-.016.422v.297q.016.171.031.359l.032.36q.031.17.078.265a.6.6 0 0 0 .203.266q.156.108.344.203.188.093.375.14.203.047.343.047a.65.65 0 0 0 .532-.25q.203-.25.312-.594.126-.343.156-.703.047-.375.047-.61m9.735 2q0 .531-.344 1.047-.328.5-.844.906-.5.39-1.078.64-.578.235-1.062.235a2.76 2.76 0 0 1-1.485-.406 3.9 3.9 0 0 1-1.078-1.063 5.1 5.1 0 0 1-.672-1.406 5.6 5.6 0 0 1-.219-1.516q0-.78.219-1.671.22-.891.656-1.641.454-.75 1.125-1.25.688-.5 1.625-.5.532 0 1.016.187a2.45 2.45 0 0 1 1.422 1.282q.219.453.219 1.015 0 .735-.313 1.375a3.6 3.6 0 0 1-.828 1.11 4.4 4.4 0 0 1-1.187.765 4 4 0 0 1-1.375.313q.062.453.359.656.312.203.734.203.313 0 .61-.156t.578-.344q.281-.203.547-.36.281-.155.562-.155a.87.87 0 0 1 .563.203q.25.203.25.53m-2.532-3.828a.94.94 0 0 0-.109-.422.36.36 0 0 0-.344-.219.9.9 0 0 0-.578.188 1.4 1.4 0 0 0-.39.453q-.157.266-.25.578a3 3 0 0 0-.094.578q.22-.047.515-.125.313-.078.579-.203.28-.141.468-.344a.66.66 0 0 0 .203-.484m7.735-1.985q0 .453-.313.672a6 6 0 0 1-.672.422q-.375.188-.687.453-.297.266-.297.797a.9.9 0 0 0 .125.485q.14.202.328.375.203.156.438.328.234.171.422.39.202.219.328.532.14.312.14.765 0 .657-.343 1.297a4.3 4.3 0 0 1-.86 1.125 4.3 4.3 0 0 1-1.172.781 3.1 3.1 0 0 1-1.297.297q-.266 0-.531-.047a1.5 1.5 0 0 1-.484-.14 1.04 1.04 0 0 1-.344-.297.9.9 0 0 1-.141-.516q0-.438.172-.672.172-.25.438-.39.265-.14.562-.22.313-.077.578-.187.266-.124.438-.312t.172-.531q0-.33-.266-.672-.25-.36-.562-.75a8 8 0 0 1-.578-.86 2.03 2.03 0 0 1-.25-1q0-.672.265-1.234.281-.578.735-1a3.5 3.5 0 0 1 1.062-.656q.594-.25 1.25-.25.25 0 .484.047.25.046.438.172a.8.8 0 0 1 .297.312.86.86 0 0 1 .125.484m5.203 0q0 .453-.313.672a6 6 0 0 1-.671.422q-.375.188-.688.453-.297.266-.297.797a.9.9 0 0 0 .125.485q.14.202.328.375.204.156.438.328.234.171.422.39.202.219.328.532.14.312.14.765 0 .657-.343 1.297a4.3 4.3 0 0 1-.86 1.125 4.3 4.3 0 0 1-1.172.781 3.1 3.1 0 0 1-1.296.297q-.267 0-.532-.047a1.5 1.5 0 0 1-.484-.14 1.05 1.05 0 0 1-.344-.297.9.9 0 0 1-.14-.516q0-.438.171-.672.172-.25.438-.39t.562-.22a4 4 0 0 0 .579-.187q.265-.124.437-.312t.172-.531q0-.33-.266-.672-.25-.36-.562-.75a8 8 0 0 1-.578-.86 2.03 2.03 0 0 1-.25-1q0-.672.265-1.234.282-.578.735-1a3.5 3.5 0 0 1 1.062-.656q.594-.25 1.25-.25.25 0 .485.047.25.046.437.172a.8.8 0 0 1 .297.312.86.86 0 0 1 .125.484m3.594 9.047q-.797 0-1.391-.422a3.7 3.7 0 0 1-1-1.078 5.2 5.2 0 0 1-.609-1.453 6.5 6.5 0 0 1-.203-1.594q0-.828.203-1.703.202-.89.625-1.61.421-.734 1.078-1.187.656-.468 1.562-.468.875 0 1.485.484.625.469 1 1.188.375.703.531 1.546a6.5 6.5 0 0 1 .109 1.594 8.6 8.6 0 0 1-.265 1.672 5.3 5.3 0 0 1-.61 1.516 3.5 3.5 0 0 1-1.031 1.093q-.625.422-1.484.422m.156-7.062q-.234 0-.422.25-.172.25-.297.61-.11.358-.172.765-.062.39-.062.687 0 .375.062.813.078.437.203.812.126.36.297.61.188.234.422.234.25 0 .422-.234.188-.235.297-.594.11-.36.156-.781a8 8 0 0 0 .047-.813q0-.345-.062-.75a4.3 4.3 0 0 0-.188-.781 1.8 1.8 0 0 0-.297-.594q-.172-.234-.406-.234m10.672 4.406q0 .282-.031.734a4.4 4.4 0 0 1-.125.891 2.1 2.1 0 0 1-.344.734q-.234.313-.656.313-.579 0-.891-.375t-.297-.938a3.8 3.8 0 0 1-1.141.688q-.624.25-1.281.25-.453 0-.859-.219a2.7 2.7 0 0 1-.719-.562 2.9 2.9 0 0 1-.5-.766 2.2 2.2 0 0 1-.187-.86q0-.75.453-1.312a4.2 4.2 0 0 1 1.14-.953q.672-.406 1.422-.64.766-.235 1.36-.313v-.14a.6.6 0 0 0 .015-.141q0-.485-.265-.782-.267-.297-.75-.296-.391 0-.672.14a3.3 3.3 0 0 0-.532.297q-.25.156-.5.297a1.24 1.24 0 0 1-.562.125.87.87 0 0 1-.594-.219.74.74 0 0 1-.234-.562q0-.516.297-.938.312-.421.765-.703a4 4 0 0 1 1-.453 3.4 3.4 0 0 1 1-.172q.423 0 .844.11.422.093.797.312.375.203.672.516.312.296.5.703.28.578.453 1.234.172.64.266 1.328.093.672.125 1.36.03.671.031 1.312m-2.5-.5-.047-1.062h-.063a.13.13 0 0 0-.062-.016q-.202 0-.516.11-.296.093-.578.28a2.3 2.3 0 0 0-.484.391.7.7 0 0 0-.188.453q0 .219.157.297a.8.8 0 0 0 .359.078q.344 0 .734-.172.391-.187.688-.359m14.359-1.953q0 .687-.156 1.516a5.3 5.3 0 0 1-.5 1.515 3.4 3.4 0 0 1-.922 1.172q-.562.47-1.422.469-.219 0-.453-.031a2.2 2.2 0 0 1-.453-.11 1.7 1.7 0 0 1-.375-.203.9.9 0 0 1-.266-.36l-.14 2.25q-.016.36-.032.86 0 .5-.125.953a1.7 1.7 0 0 1-.39.766q-.266.328-.781.328-.297 0-.5-.313a2.5 2.5 0 0 1-.329-.765 9 9 0 0 1-.171-1.047 14 14 0 0 1-.079-1.11 35 35 0 0 1-.015-.968v-.64q0-1.048-.016-2.079-.015-1.047-.015-2.094v-.578q0-.405.031-.875.031-.468.094-.969.078-.5.218-.906.141-.421.36-.672a.67.67 0 0 1 .531-.265q.203 0 .359.125a.86.86 0 0 1 .282.297q.125.172.203.375.077.202.125.375.484-.547 1.109-.829.64-.28 1.359-.28.75 0 1.219.421.484.422.75 1.047.282.624.391 1.344.11.702.109 1.28m-2.234-.125q0-.235-.047-.469a1.3 1.3 0 0 0-.141-.453.76.76 0 0 0-.281-.344.76.76 0 0 0-.469-.14q-.374 0-.797.25a1.75 1.75 0 0 0-.609.547q-.078.124-.094.406-.015.28-.015.422v.297l.031.359.031.36q.031.17.078.265a.6.6 0 0 0 .203.266q.157.108.344.203.188.093.375.14.203.047.344.047a.65.65 0 0 0 .531-.25q.204-.25.313-.594.124-.343.156-.703.047-.375.047-.61m8.609-1.063q-.219.015-.375-.03l-.312-.126a3 3 0 0 0-.282-.11.6.6 0 0 0-.312-.046q-.312.015-.563.172a2.2 2.2 0 0 0-.437.39 2.7 2.7 0 0 0-.328.532 3 3 0 0 0-.219.562 4 4 0 0 0-.078.578q-.016.375-.016.813-.015.453-.015.86 0 .405-.032.64-.015.249-.078.594a2.5 2.5 0 0 1-.203.624 1.4 1.4 0 0 1-.344.5.8.8 0 0 1-.562.204.75.75 0 0 1-.469-.157 1.4 1.4 0 0 1-.328-.406 4 4 0 0 1-.219-.61 8 8 0 0 1-.125-.702q-.046-.375-.078-.75-.015-.375-.031-.703v-.625q.016-.283.016-.454-.017-.547-.063-1.093a20 20 0 0 1-.031-1.11q0-.344.031-.765t.172-.782a1.6 1.6 0 0 1 .406-.625q.282-.25.766-.25.266 0 .453.172.188.172.297.422.125.25.187.531.063.282.078.516.375-.609.844-.984.47-.39 1.219-.422.375-.016.734.078.375.078.672.281.313.188.5.5.204.312.219.735.031.5-.297.765t-.797.281m7.969 3.641q0 .282-.031.734a4.3 4.3 0 0 1-.125.891 2.1 2.1 0 0 1-.344.734q-.234.313-.656.313-.579 0-.891-.375t-.297-.938q-.5.438-1.14.688-.625.25-1.282.25-.453 0-.859-.219a2.7 2.7 0 0 1-.719-.562 2.9 2.9 0 0 1-.5-.766 2.2 2.2 0 0 1-.187-.86q0-.75.453-1.312a4.3 4.3 0 0 1 1.14-.953q.672-.406 1.422-.64.766-.235 1.36-.313v-.14a.6.6 0 0 0 .015-.141q0-.485-.265-.782-.266-.297-.75-.296-.392 0-.672.14a3.3 3.3 0 0 0-.531.297q-.25.156-.5.297a1.25 1.25 0 0 1-.563.125.87.87 0 0 1-.594-.219.74.74 0 0 1-.234-.562q0-.516.297-.938.312-.421.765-.703a4 4 0 0 1 1-.453 3.4 3.4 0 0 1 1-.172q.423 0 .844.11.422.093.797.312.375.203.672.516.312.296.5.703.28.578.453 1.234.172.64.266 1.328.093.672.125 1.36.031.671.031 1.312m-2.5-.5-.047-1.062h-.062a.14.14 0 0 0-.063-.016q-.202 0-.516.11a2.3 2.3 0 0 0-.578.28 2.3 2.3 0 0 0-.484.391.7.7 0 0 0-.188.453q0 .219.157.297a.8.8 0 0 0 .359.078q.344 0 .734-.172.391-.187.688-.359m14.359-1.953q0 .687-.156 1.516a5.3 5.3 0 0 1-.5 1.515q-.343.704-.922 1.172-.562.47-1.422.469-.219 0-.453-.031a2.2 2.2 0 0 1-.453-.11 1.7 1.7 0 0 1-.375-.203.9.9 0 0 1-.266-.36l-.14 2.25q-.016.36-.031.86 0 .5-.125.953a1.7 1.7 0 0 1-.391.766q-.266.328-.781.328-.297 0-.5-.313a2.5 2.5 0 0 1-.328-.765 9 9 0 0 1-.172-1.047 14 14 0 0 1-.078-1.11 31 31 0 0 1-.016-.968v-.64q0-1.048-.016-2.079-.015-1.047-.015-2.094v-.578q0-.405.031-.875.031-.468.094-.969.078-.5.218-.906.141-.421.36-.672a.67.67 0 0 1 .531-.265q.203 0 .359.125a.86.86 0 0 1 .282.297q.125.172.203.375.078.202.125.375.485-.547 1.109-.829.64-.28 1.36-.28.75 0 1.218.421.484.422.75 1.047.282.624.391 1.344.11.702.109 1.28m-2.234-.125q0-.235-.047-.469a1.3 1.3 0 0 0-.141-.453.76.76 0 0 0-.281-.344.76.76 0 0 0-.469-.14q-.375 0-.796.25a1.76 1.76 0 0 0-.61.547q-.078.124-.094.406-.015.28-.015.422v.297l.031.359.031.36q.031.17.078.265a.6.6 0 0 0 .204.266q.156.108.343.203.188.093.375.14.204.047.344.047a.65.65 0 0 0 .531-.25q.204-.25.313-.594.124-.343.156-.703.047-.375.047-.61m9.734 2q0 .531-.343 1.047-.328.5-.844.906-.5.39-1.078.64-.579.235-1.063.235a2.76 2.76 0 0 1-1.484-.406 3.9 3.9 0 0 1-1.078-1.063 5.1 5.1 0 0 1-.672-1.406 5.6 5.6 0 0 1-.219-1.516q0-.78.219-1.671.218-.891.656-1.641.453-.75 1.125-1.25.687-.5 1.625-.5.531 0 1.016.187.485.173.843.5.36.33.579.782.218.453.218 1.015 0 .735-.312 1.375a3.7 3.7 0 0 1-.828 1.11 4.4 4.4 0 0 1-1.188.765 4 4 0 0 1-1.375.313q.063.453.36.656.312.203.734.203.312 0 .609-.156a6 6 0 0 0 .578-.344q.282-.203.547-.36.281-.155.563-.155.312 0 .562.203a.65.65 0 0 1 .25.53m-2.531-3.828a.94.94 0 0 0-.109-.422.36.36 0 0 0-.344-.219.9.9 0 0 0-.578.188 1.4 1.4 0 0 0-.391.453q-.156.266-.25.578a3 3 0 0 0-.094.578q.219-.047.516-.125.312-.078.578-.203.282-.141.469-.344a.66.66 0 0 0 .203-.484m7.734-1.985q0 .453-.312.672a6 6 0 0 1-.672.422q-.375.188-.687.453-.297.266-.297.797a.9.9 0 0 0 .125.485q.14.202.328.375.203.156.437.328.235.171.422.39.204.219.328.532.141.312.141.765 0 .657-.344 1.297a4.28 4.28 0 0 1-2.031 1.906 3.1 3.1 0 0 1-1.297.297q-.265 0-.531-.047a1.5 1.5 0 0 1-.485-.14 1 1 0 0 1-.343-.297.9.9 0 0 1-.141-.516q0-.438.172-.672.172-.25.437-.39.266-.14.563-.22.312-.077.578-.187.266-.124.438-.312t.171-.531q0-.33-.265-.672a14 14 0 0 0-.563-.75 8 8 0 0 1-.578-.86 2.04 2.04 0 0 1-.25-1q0-.672.266-1.234.28-.578.734-1 .47-.422 1.063-.656.594-.25 1.25-.25.25 0 .484.047.25.046.438.172a.77.77 0 0 1 .296.312.85.85 0 0 1 .125.484m5.204 0q0 .453-.313.672a6 6 0 0 1-.672.422q-.375.188-.687.453-.297.266-.297.797a.9.9 0 0 0 .125.485q.14.202.328.375.203.156.437.328.235.171.422.39.204.219.328.532.141.312.141.765 0 .657-.344 1.297a4.2 4.2 0 0 1-.859 1.125 4.3 4.3 0 0 1-1.172.781q-.656.297-1.297.297-.266 0-.531-.047a1.5 1.5 0 0 1-.484-.14 1.04 1.04 0 0 1-.344-.297.9.9 0 0 1-.141-.516q0-.438.172-.672a1.2 1.2 0 0 1 .438-.39q.265-.14.562-.22.312-.077.578-.187.266-.124.438-.312t.172-.531q0-.33-.266-.672a14 14 0 0 0-.563-.75 8 8 0 0 1-.578-.86 2.04 2.04 0 0 1-.25-1q0-.672.266-1.234.28-.578.734-1 .47-.422 1.063-.656.593-.25 1.25-.25.25 0 .484.047.25.046.438.172a.8.8 0 0 1 .297.312.86.86 0 0 1 .125.484m3.593 9.047q-.796 0-1.39-.422a3.7 3.7 0 0 1-1-1.078 5.2 5.2 0 0 1-.61-1.453 6.6 6.6 0 0 1-.203-1.594q0-.828.203-1.703.204-.89.625-1.61.423-.734 1.078-1.187.657-.468 1.563-.468.875 0 1.484.484.625.469 1 1.188.375.703.532 1.546.156.844.109 1.594a8.6 8.6 0 0 1-.266 1.672 5.3 5.3 0 0 1-.609 1.516 3.5 3.5 0 0 1-1.031 1.093q-.626.422-1.485.422m.157-7.062q-.235 0-.422.25-.173.25-.297.61-.11.358-.172.765-.063.39-.063.687 0 .375.063.813.078.437.203.812.124.36.297.61.188.234.422.234.25 0 .422-.234.188-.235.297-.594.109-.36.156-.781a8 8 0 0 0 .047-.813q0-.345-.063-.75a4.3 4.3 0 0 0-.187-.781 1.8 1.8 0 0 0-.297-.594q-.172-.234-.406-.234m10.671 4.406q0 .282-.031.734-.015.454-.125.891a2.1 2.1 0 0 1-.344.734q-.234.313-.656.313-.578 0-.89-.375-.314-.375-.297-.938-.5.438-1.141.688-.625.25-1.281.25a1.8 1.8 0 0 1-.86-.219 2.7 2.7 0 0 1-.718-.562 2.8 2.8 0 0 1-.5-.766 2.2 2.2 0 0 1-.188-.86q0-.75.453-1.312a4.3 4.3 0 0 1 1.141-.953q.672-.406 1.422-.64.765-.235 1.359-.313v-.14a.6.6 0 0 0 .016-.141q0-.485-.266-.782t-.75-.296q-.39 0-.672.14a3.3 3.3 0 0 0-.531.297q-.25.156-.5.297a1.24 1.24 0 0 1-.562.125.87.87 0 0 1-.594-.219.74.74 0 0 1-.235-.562q0-.516.297-.938.313-.421.766-.703a4 4 0 0 1 1-.453 3.4 3.4 0 0 1 1-.172q.421 0 .844.11.422.093.797.312.375.203.671.516.313.296.5.703.282.578.454 1.234.172.64.265 1.328.094.672.125 1.36.031.671.031 1.312m-2.5-.5-.046-1.062h-.063a.14.14 0 0 0-.062-.016 1.6 1.6 0 0 0-.516.11 2.3 2.3 0 0 0-.578.28 2.3 2.3 0 0 0-.485.391.7.7 0 0 0-.187.453q0 .219.156.297a.8.8 0 0 0 .36.078q.344 0 .734-.172.39-.187.687-.359m5.704 1.953q0 .203-.094.375a.9.9 0 0 1-.25.266q-.14.11-.328.172a1 1 0 0 1-.36.062q-.234 0-.515-.094a1.8 1.8 0 0 1-.5-.234 1.8 1.8 0 0 1-.375-.36.8.8 0 0 1-.157-.484q0-.422.36-.625.359-.218.734-.218.234 0 .485.078.265.078.484.234.234.14.375.36a.8.8 0 0 1 .141.468m11.296-7.203q0 .297-.078.625a2 2 0 0 1-.218.61 1.5 1.5 0 0 1-.407.468 1 1 0 0 1-.609.188q-.547 0-.813-.188a1.1 1.1 0 0 1-.375-.5 2.1 2.1 0 0 1-.125-.625q0-.345-.015-.64a1.2 1.2 0 0 0-.11-.485q-.077-.203-.359-.203a.75.75 0 0 0-.547.234 1.9 1.9 0 0 0-.406.579q-.173.36-.297.812-.11.453-.187.906-.063.438-.094.844-.031.39-.031.64 0 .33.015.782.031.453.156.875.126.405.375.703.25.282.719.281.313 0 .61-.078.296-.078.593-.172.297-.11.594-.187.313-.078.625-.078.36 0 .594.297a.97.97 0 0 1 .234.64q0 .5-.312.938a3.4 3.4 0 0 1-.782.75 3.8 3.8 0 0 1-1 .515 3 3 0 0 1-.968.188q-1.125 0-1.907-.516a4 4 0 0 1-1.265-1.297 6 6 0 0 1-.703-1.797 10 10 0 0 1-.203-1.984q0-.656.125-1.437.125-.782.375-1.563a10 10 0 0 1 .625-1.531q.39-.735.906-1.297a4.4 4.4 0 0 1 1.156-.906q.657-.344 1.438-.344.765 0 1.281.39.516.375.828.97.312.578.437 1.28.125.688.125 1.313m3.594 8.406q-.797 0-1.39-.422a3.7 3.7 0 0 1-1-1.078 5.2 5.2 0 0 1-.61-1.453 6.6 6.6 0 0 1-.203-1.594q0-.828.203-1.703.204-.89.625-1.61.422-.734 1.078-1.187.657-.468 1.563-.468.875 0 1.484.484.625.469 1 1.188.375.703.531 1.546t.11 1.594a8.6 8.6 0 0 1-.266 1.672 5.3 5.3 0 0 1-.609 1.516 3.5 3.5 0 0 1-1.031 1.093q-.625.422-1.485.422m.156-7.062q-.234 0-.421.25-.172.25-.297.61-.11.358-.172.765-.063.39-.063.687 0 .375.063.813.078.437.203.812.124.36.297.61.187.234.422.234.25 0 .422-.234.188-.235.296-.594.11-.36.157-.781a8 8 0 0 0 .047-.813q0-.345-.063-.75a4.3 4.3 0 0 0-.187-.781 1.8 1.8 0 0 0-.297-.594q-.172-.234-.407-.234m8.469 7.047q-.266 0-.422-.25a1.7 1.7 0 0 1-.234-.547 4 4 0 0 1-.109-.625 11 11 0 0 1-.016-.5q0-.469.047-.938l.125-.937q.078-.469.125-.938a7 7 0 0 0 .062-.937q0-.187-.015-.406a1.7 1.7 0 0 0-.078-.407.67.67 0 0 0-.172-.328.45.45 0 0 0-.328-.125q-.14 0-.313.235a3.3 3.3 0 0 0-.328.515q-.14.282-.25.578a1.5 1.5 0 0 0-.094.422v.703q.016.345.016.703v.907q-.016.28-.047.578t-.094.578a3.3 3.3 0 0 1-.14.547 1.8 1.8 0 0 1-.25.453q-.141.188-.344.312a.9.9 0 0 1-.485.125.7.7 0 0 1-.515-.203 1.5 1.5 0 0 1-.328-.515 3.6 3.6 0 0 1-.188-.72q-.046-.405-.078-.78-.016-.39-.016-.703.016-.33.016-.516V61.5q0-.594-.031-1.172-.016-.578-.016-1.157v-.796q.016-.485.125-.938.11-.468.36-.797.25-.328.734-.328.219 0 .391.14.171.141.296.344.141.204.219.438.095.234.141.406.156-.218.359-.422.219-.203.485-.36a2.55 2.55 0 0 1 1.343-.343q.798 0 1.235.39.453.375.656.954.219.562.266 1.219.046.656.046 1.187 0 .266-.046.797-.048.516-.157 1.156-.094.626-.265 1.297-.172.657-.407 1.203a3 3 0 0 1-.562.89q-.312.345-.719.345m10.125-4.485q0 .266-.015.797 0 .516-.047 1.094-.031.562-.094 1.078-.063.5-.156.734-.126.297-.328.516a.71.71 0 0 1-.547.219q-.531 0-.766-.422-.234-.421-.312-1.047a9 9 0 0 1-.063-1.36q.015-.733-.016-1.359a4 4 0 0 0-.171-1.047q-.141-.42-.516-.421-.515 0-.797.171a.96.96 0 0 0-.391.422 2.1 2.1 0 0 0-.14.61q-.016.343-.047.718-.032.36-.047.97a6.6 6.6 0 0 1-.141 1.202q-.125.594-.421 1.032-.282.42-.844.421a.7.7 0 0 1-.563-.265 2.1 2.1 0 0 1-.328-.688 5.7 5.7 0 0 1-.187-.937 17 17 0 0 1-.063-1V62q.016-.406.016-.61 0-.312.015-1.031.032-.719.11-1.594.078-.89.203-1.828t.328-1.703q.203-.782.484-1.266.297-.484.688-.468.25.015.422.218.187.204.297.532.125.312.203.687t.109.75q.047.36.047.672.016.312.016.484a22 22 0 0 1-.063 1.625 2.8 2.8 0 0 1 .953-.797 2.65 2.65 0 0 1 1.219-.312q.782 0 1.172.437.406.423.578 1.063.172.624.188 1.344.015.702.015 1.265m7.656 1.266q0 .531-.343 1.047-.328.5-.844.906-.5.39-1.078.64-.579.235-1.063.235a2.76 2.76 0 0 1-1.484-.406 3.9 3.9 0 0 1-1.078-1.063 5.1 5.1 0 0 1-.672-1.406 5.6 5.6 0 0 1-.219-1.516q0-.78.219-1.671.22-.891.656-1.641.453-.75 1.125-1.25.688-.5 1.625-.5.531 0 1.016.187a2.45 2.45 0 0 1 1.422 1.282q.218.453.218 1.015 0 .735-.312 1.375a3.6 3.6 0 0 1-.828 1.11 4.4 4.4 0 0 1-1.188.765 4 4 0 0 1-1.375.313q.063.453.36.656.312.203.734.203.313 0 .609-.156.297-.156.579-.344.28-.203.546-.36.281-.155.563-.155.313 0 .562.203a.65.65 0 0 1 .25.53m-2.531-3.828a.94.94 0 0 0-.109-.422.36.36 0 0 0-.344-.219.9.9 0 0 0-.578.188 1.4 1.4 0 0 0-.391.453q-.156.266-.25.578a3 3 0 0 0-.093.578q.218-.047.515-.125a3 3 0 0 0 .578-.203q.282-.141.469-.344a.66.66 0 0 0 .203-.484m8.953.61q0 .077-.015.171a1 1 0 0 1-.047.156q-.141.36-.438.61a1.1 1.1 0 0 1-.703.234q-.609 0-.828-.61a.5.5 0 0 1-.031-.171q0-.11-.016-.219v-.453a.9.9 0 0 0-.109-.344q-.078-.125-.266-.125-.266 0-.515.344a3.8 3.8 0 0 0-.422.797 7 7 0 0 0-.282.937 3.8 3.8 0 0 0-.109.782q0 .233.031.578.032.328.125.64.094.313.25.547a.54.54 0 0 0 .438.219.8.8 0 0 0 .484-.156q.234-.172.453-.391.204-.187.438-.39a.87.87 0 0 1 .562-.204q.391 0 .61.282a.97.97 0 0 1 .234.64q0 .532-.281 1a3.2 3.2 0 0 1-.703.797q-.422.328-.938.516a2.7 2.7 0 0 1-.984.203q-.844 0-1.438-.422a3.3 3.3 0 0 1-.937-1.063 5 5 0 0 1-.516-1.421 7.3 7.3 0 0 1-.156-1.454q0-.796.219-1.718a6.4 6.4 0 0 1 .672-1.735 4.3 4.3 0 0 1 1.156-1.328q.719-.531 1.703-.531.609 0 1.047.266.453.264.734.703.297.421.438.953.156.531.156 1.047v.156a1 1 0 0 1-.016.156m7.422 3.218q0 .531-.344 1.047a3.8 3.8 0 0 1-.843.906q-.5.39-1.078.64-.579.235-1.063.235a2.76 2.76 0 0 1-1.484-.406 3.9 3.9 0 0 1-1.078-1.063 5.1 5.1 0 0 1-.672-1.406 5.6 5.6 0 0 1-.219-1.516q0-.78.219-1.671t.656-1.641q.453-.75 1.125-1.25.687-.5 1.625-.5.531 0 1.016.187.484.173.843.5.36.33.578.782.219.453.219 1.015 0 .735-.312 1.375a3.7 3.7 0 0 1-.828 1.11 4.4 4.4 0 0 1-1.188.765 4 4 0 0 1-1.375.313q.063.453.359.656.313.203.735.203.312 0 .609-.156a6 6 0 0 0 .578-.344q.282-.203.547-.36.281-.155.563-.155.313 0 .562.203a.65.65 0 0 1 .25.53m-2.531-3.828a.95.95 0 0 0-.109-.422.36.36 0 0 0-.344-.219.9.9 0 0 0-.578.188 1.4 1.4 0 0 0-.391.453q-.156.266-.25.578a3 3 0 0 0-.094.578q.219-.047.516-.125.312-.078.578-.203.282-.141.469-.344a.66.66 0 0 0 .203-.484m8.578.765q-.219.015-.375-.03l-.312-.126a3 3 0 0 0-.282-.11.6.6 0 0 0-.312-.046q-.313.015-.563.172a2.2 2.2 0 0 0-.437.39 2.7 2.7 0 0 0-.328.532 3 3 0 0 0-.219.562 4 4 0 0 0-.078.578q-.016.375-.016.813-.015.453-.015.86 0 .405-.032.64-.015.249-.078.594a2.5 2.5 0 0 1-.203.624 1.4 1.4 0 0 1-.344.5.8.8 0 0 1-.562.204.75.75 0 0 1-.469-.157 1.4 1.4 0 0 1-.328-.406 4 4 0 0 1-.219-.61 8 8 0 0 1-.125-.702q-.046-.375-.078-.75l-.031-.703v-.625q.015-.283.015-.454-.015-.547-.062-1.093a20 20 0 0 1-.031-1.11q0-.344.031-.765t.172-.782a1.6 1.6 0 0 1 .406-.625q.282-.25.766-.25.265 0 .453.172.187.172.297.422.125.25.187.531.063.282.078.516.376-.609.844-.984.47-.39 1.219-.422.375-.016.734.078.375.078.672.281.312.188.5.5.202.312.219.735.031.5-.297.765t-.797.281M107.602 86.97q-.797 0-1.391-.422a3.7 3.7 0 0 1-1-1.078 5.2 5.2 0 0 1-.609-1.453 6.5 6.5 0 0 1-.204-1.594q0-.828.204-1.703.202-.89.625-1.61.421-.734 1.078-1.187.656-.468 1.562-.468.875 0 1.485.484.624.469 1 1.188.375.703.531 1.546t.109 1.594a8.6 8.6 0 0 1-.265 1.672 5.3 5.3 0 0 1-.61 1.516 3.5 3.5 0 0 1-1.031 1.093q-.626.422-1.484.422m.156-7.062q-.234 0-.422.25-.172.25-.297.61-.11.358-.172.765-.062.39-.062.687 0 .375.062.813.078.437.203.812.126.36.297.61.188.234.422.234.25 0 .422-.234.188-.236.297-.594.11-.36.156-.781a8 8 0 0 0 .047-.813q0-.345-.063-.75a4.3 4.3 0 0 0-.187-.781 1.8 1.8 0 0 0-.297-.594q-.172-.234-.406-.234m12.375-1.985q0 .453-.313.672a6 6 0 0 1-.672.422q-.375.188-.687.453-.297.266-.297.797a.9.9 0 0 0 .125.484q.14.203.328.376.203.156.438.328.234.171.422.39.202.219.328.532.14.312.14.765 0 .657-.343 1.297a4.3 4.3 0 0 1-.86 1.125 4.3 4.3 0 0 1-1.172.781 3.1 3.1 0 0 1-1.297.297q-.266 0-.531-.047a1.5 1.5 0 0 1-.484-.14 1.04 1.04 0 0 1-.344-.297.9.9 0 0 1-.141-.516q0-.438.172-.672.172-.25.438-.39.265-.14.562-.22.313-.077.578-.187.266-.124.438-.312.172-.187.172-.531 0-.33-.266-.672-.25-.36-.562-.75a8 8 0 0 1-.578-.86 2.03 2.03 0 0 1-.25-1q0-.672.265-1.234.281-.578.735-1a3.5 3.5 0 0 1 1.062-.656q.594-.25 1.25-.25.25 0 .484.047.25.046.438.172a.8.8 0 0 1 .297.312.86.86 0 0 1 .125.484m7.172 5.813q0 .531-.344 1.047-.328.5-.844.906-.5.39-1.078.64-.578.235-1.062.235a2.76 2.76 0 0 1-1.485-.406 3.9 3.9 0 0 1-1.078-1.063 5.1 5.1 0 0 1-.672-1.406 5.6 5.6 0 0 1-.219-1.516q0-.78.219-1.671.22-.891.656-1.641.454-.75 1.125-1.25.688-.5 1.625-.5.532 0 1.016.187a2.45 2.45 0 0 1 1.422 1.282q.219.453.219 1.015 0 .735-.313 1.375a3.6 3.6 0 0 1-.828 1.11 4.4 4.4 0 0 1-1.187.765 4 4 0 0 1-1.375.313q.062.453.359.656.312.203.734.203.313 0 .61-.156t.578-.344q.281-.203.547-.36.281-.155.562-.156a.87.87 0 0 1 .563.204q.25.203.25.53m-2.532-3.828a.94.94 0 0 0-.109-.422.36.36 0 0 0-.344-.219.9.9 0 0 0-.578.188 1.4 1.4 0 0 0-.39.453q-.157.266-.25.578a3 3 0 0 0-.094.578q.22-.047.515-.125.313-.078.579-.203.28-.141.468-.344a.66.66 0 0 0 .203-.484m10 2.14q0 .86-.171 1.704a4.7 4.7 0 0 1-.579 1.515q-.405.657-1.093 1.063-.672.406-1.688.406-1 0-1.672-.39a3.2 3.2 0 0 1-1.078-1.063 4.8 4.8 0 0 1-.562-1.485 9 9 0 0 1-.157-1.687q0-.937.219-1.86.047-.249.172-.687.14-.453.344-.875.219-.438.484-.75.282-.312.61-.312.312 0 .5.171t.296.438q.11.25.141.547.031.281.031.515 0 .36-.062.704-.047.343-.11.687l-.125.938a9.5 9.5 0 0 0-.031 1.468q.032.282.125.547.094.266.266.453.172.172.484.172.407 0 .641-.219.25-.218.359-.546a2.5 2.5 0 0 0 .156-.704q.032-.375.032-.687 0-.688-.094-1.344a51 51 0 0 1-.172-1.36 1.45 1.45 0 0 1 .063-.687 1.5 1.5 0 0 1 .218-.422q.141-.188.344-.296a.85.85 0 0 1 .453-.126q.343 0 .61.25.265.235.437.626.188.375.297.859.125.469.187.937.08.453.094.86.031.406.031.64m10.516-1.53q0 .077-.016.171a1 1 0 0 1-.046.156q-.141.36-.438.61a1.1 1.1 0 0 1-.703.234q-.609 0-.828-.61a.5.5 0 0 1-.031-.171q0-.11-.016-.219v-.453a.9.9 0 0 0-.109-.344q-.079-.125-.266-.125-.265 0-.516.344a3.8 3.8 0 0 0-.422.797 7 7 0 0 0-.281.937 3.7 3.7 0 0 0-.109.782q0 .234.031.578.032.328.125.64.094.313.25.547.172.219.438.219a.8.8 0 0 0 .484-.156q.234-.172.453-.391.202-.187.438-.39a.87.87 0 0 1 .562-.204q.39 0 .609.282a.97.97 0 0 1 .235.64q0 .532-.281 1a3.2 3.2 0 0 1-.704.797q-.421.328-.937.516a2.7 2.7 0 0 1-.984.203q-.844 0-1.438-.422a3.3 3.3 0 0 1-.937-1.063 5 5 0 0 1-.516-1.421 7.3 7.3 0 0 1-.156-1.454q0-.796.218-1.718.219-.937.672-1.735a4.3 4.3 0 0 1 1.157-1.328q.718-.531 1.703-.531.609 0 1.047.266.452.264.734.703.297.421.437.953.157.531.157 1.047v.156a1 1 0 0 1-.016.156m3.844 6.452q-.797 0-1.391-.422a3.7 3.7 0 0 1-1-1.078 5.2 5.2 0 0 1-.609-1.453 6.5 6.5 0 0 1-.203-1.594q0-.828.203-1.703.203-.89.625-1.61.421-.734 1.078-1.187.656-.468 1.562-.468.876 0 1.485.484.624.469 1 1.188.375.703.531 1.546a6.5 6.5 0 0 1 .109 1.594 8.6 8.6 0 0 1-.265 1.672 5.3 5.3 0 0 1-.61 1.516q-.405.672-1.031 1.093-.624.422-1.484.422m.156-7.062q-.234 0-.422.25-.171.25-.297.61-.11.358-.172.765-.062.39-.062.687 0 .375.062.813.079.437.204.812.125.36.296.61.188.234.422.234.25 0 .422-.234.188-.236.297-.594.11-.36.156-.781.048-.438.047-.813 0-.345-.062-.75a4.3 4.3 0 0 0-.188-.781 1.8 1.8 0 0 0-.297-.594q-.172-.234-.406-.234m9.453.765q-.219.015-.375-.03l-.312-.126a3 3 0 0 0-.282-.11.6.6 0 0 0-.312-.046q-.312.016-.563.172a2.2 2.2 0 0 0-.437.39 2.7 2.7 0 0 0-.328.532 3 3 0 0 0-.219.562 4 4 0 0 0-.078.578q-.016.375-.016.813-.015.453-.015.86t-.032.64q-.015.249-.078.594a2.5 2.5 0 0 1-.203.624 1.4 1.4 0 0 1-.344.5.8.8 0 0 1-.562.204.75.75 0 0 1-.469-.157 1.4 1.4 0 0 1-.328-.406 4 4 0 0 1-.219-.61 8 8 0 0 1-.125-.702q-.046-.375-.078-.75-.015-.375-.031-.703v-.626q.016-.28.016-.453-.017-.546-.063-1.093a20 20 0 0 1-.031-1.11q0-.344.031-.765t.172-.782a1.6 1.6 0 0 1 .406-.625q.282-.25.766-.25.266 0 .453.172.188.172.297.422.125.25.187.531.063.282.078.516.375-.609.844-.984.47-.39 1.219-.422.375-.016.734.078.375.078.672.281.313.188.5.5.204.312.219.734.031.5-.297.766-.328.265-.797.281m8.485 1.188q0 .687-.157 1.516a5.3 5.3 0 0 1-.5 1.515q-.343.704-.922 1.172-.563.47-1.421.469-.219 0-.454-.031a2.2 2.2 0 0 1-.453-.11 1.7 1.7 0 0 1-.375-.203.9.9 0 0 1-.265-.36l-.141 2.25q-.015.36-.031.86 0 .5-.125.953a1.7 1.7 0 0 1-.391.766q-.265.328-.781.328-.297 0-.5-.313a2.5 2.5 0 0 1-.328-.765 9 9 0 0 1-.172-1.047 14 14 0 0 1-.078-1.11 31 31 0 0 1-.016-.968v-.64q0-1.048-.015-2.079-.016-1.047-.016-2.094v-.578q0-.405.031-.875.031-.468.094-.969a5 5 0 0 1 .219-.906 1.9 1.9 0 0 1 .359-.672.67.67 0 0 1 .531-.265.56.56 0 0 1 .36.125.86.86 0 0 1 .281.297q.125.172.203.374.078.203.125.376.485-.547 1.109-.829a3.35 3.35 0 0 1 1.36-.28q.75 0 1.219.421.483.422.75 1.047.28.624.39 1.344.11.702.11 1.28m-2.235-.125a2.3 2.3 0 0 0-.047-.469 1.3 1.3 0 0 0-.14-.453.77.77 0 0 0-.282-.344.76.76 0 0 0-.468-.14q-.375 0-.797.25a1.76 1.76 0 0 0-.61.547q-.078.124-.093.406a8 8 0 0 0-.016.422v.297l.031.359.032.36q.03.17.078.265a.6.6 0 0 0 .203.266q.156.108.344.203.188.093.375.14.203.047.343.047a.65.65 0 0 0 .532-.25q.203-.25.312-.594.125-.343.156-.703.048-.375.047-.61m6.156 5.234q-.796 0-1.39-.422a3.7 3.7 0 0 1-1-1.078 5.2 5.2 0 0 1-.61-1.453 6.6 6.6 0 0 1-.203-1.594q0-.828.203-1.703.204-.89.625-1.61.423-.734 1.079-1.187.656-.468 1.562-.468.875 0 1.484.484.625.469 1 1.188.375.703.532 1.546.156.844.109 1.594a8.6 8.6 0 0 1-.266 1.672 5.3 5.3 0 0 1-.609 1.516 3.5 3.5 0 0 1-1.031 1.093q-.626.422-1.485.422m.157-7.062q-.235 0-.422.25-.173.25-.297.61-.11.358-.172.765-.062.39-.062.687 0 .375.062.813.078.437.203.812.125.36.297.61.188.234.422.234.25 0 .422-.234.187-.236.297-.594.11-.36.156-.781a8 8 0 0 0 .047-.813q0-.345-.063-.75a4.3 4.3 0 0 0-.187-.781 1.8 1.8 0 0 0-.297-.594q-.172-.234-.406-.234m14.343 3.828q0 .531-.343 1.047-.328.5-.844.906-.5.39-1.078.64-.579.235-1.063.235a2.76 2.76 0 0 1-1.484-.406 3.9 3.9 0 0 1-1.078-1.063 5.1 5.1 0 0 1-.672-1.406 5.6 5.6 0 0 1-.219-1.516q0-.78.219-1.671.22-.891.656-1.641.453-.75 1.125-1.25.688-.5 1.625-.5.531 0 1.016.187a2.45 2.45 0 0 1 1.422 1.282q.218.453.218 1.015 0 .735-.312 1.375a3.6 3.6 0 0 1-.828 1.11 4.4 4.4 0 0 1-1.188.765 4 4 0 0 1-1.375.313q.063.453.36.656.312.203.734.203.313 0 .609-.156.297-.156.579-.344.28-.203.546-.36.281-.155.563-.156.313 0 .562.204a.65.65 0 0 1 .25.53m-2.531-3.828a.94.94 0 0 0-.109-.422.36.36 0 0 0-.344-.219.9.9 0 0 0-.578.188 1.4 1.4 0 0 0-.391.453q-.156.266-.25.578a3 3 0 0 0-.093.578q.218-.047.515-.125a3 3 0 0 0 .578-.203q.282-.141.469-.344a.66.66 0 0 0 .203-.484m.875-5.547q0 .171-.094.344-.093.156-.234.297a2.3 2.3 0 0 1-.281.265q-.156.109-.281.203a7 7 0 0 0-.25.188 4 4 0 0 1-.282.187 3 3 0 0 1-.297.14.7.7 0 0 1-.281.063.4.4 0 0 1-.219-.062.27.27 0 0 1-.093-.219q0-.234.172-.562.188-.344.453-.657a3 3 0 0 1 .562-.546q.297-.235.547-.235a.52.52 0 0 1 .391.188q.187.172.187.406m12.594 9.375q0 .531-.344 1.047-.328.5-.844.906a5 5 0 0 1-1.078.64q-.577.235-1.062.235a2.77 2.77 0 0 1-1.485-.406 3.9 3.9 0 0 1-1.078-1.063 5.2 5.2 0 0 1-.672-1.406 5.6 5.6 0 0 1-.218-1.516q0-.78.218-1.671a6.1 6.1 0 0 1 .657-1.641q.453-.75 1.125-1.25.687-.5 1.625-.5.53 0 1.015.187a2.45 2.45 0 0 1 1.422 1.282q.219.453.219 1.015 0 .735-.313 1.375a3.6 3.6 0 0 1-.828 1.11 4.4 4.4 0 0 1-1.187.765 4 4 0 0 1-1.375.313q.062.453.359.656.313.203.735.203.312 0 .609-.156a6 6 0 0 0 .578-.344q.282-.203.547-.36.281-.155.562-.156a.87.87 0 0 1 .563.204.65.65 0 0 1 .25.53m-2.531-3.828a.94.94 0 0 0-.11-.422.36.36 0 0 0-.343-.219.9.9 0 0 0-.579.188 1.4 1.4 0 0 0-.39.453q-.157.266-.25.578a3 3 0 0 0-.094.578q.219-.047.516-.125.312-.078.578-.203.281-.141.469-.344a.66.66 0 0 0 .203-.484m7.734-1.985q0 .453-.312.672a6 6 0 0 1-.672.422 3.4 3.4 0 0 0-.688.453q-.297.266-.297.797a.9.9 0 0 0 .125.484q.14.203.328.376.204.156.438.328.234.171.422.39a1.7 1.7 0 0 1 .328.532q.141.312.141.765 0 .657-.344 1.297a4.2 4.2 0 0 1-.86 1.125 4.3 4.3 0 0 1-1.171.781 3.1 3.1 0 0 1-1.297.297q-.265 0-.532-.047a1.5 1.5 0 0 1-.484-.14 1.05 1.05 0 0 1-.344-.297.9.9 0 0 1-.14-.516q0-.438.172-.672.171-.25.437-.39t.563-.22q.312-.077.578-.187.266-.124.437-.312.172-.187.172-.531 0-.33-.266-.672-.25-.36-.562-.75a8 8 0 0 1-.578-.86 2.03 2.03 0 0 1-.25-1q0-.672.265-1.234.282-.578.735-1a3.5 3.5 0 0 1 1.062-.656q.594-.25 1.25-.25.25 0 .485.047.25.046.437.172a.8.8 0 0 1 .297.312.86.86 0 0 1 .125.484m5.203 0q0 .453-.312.672a6 6 0 0 1-.672.422 3.4 3.4 0 0 0-.688.453q-.297.266-.297.797a.9.9 0 0 0 .125.484q.141.203.329.376.203.156.437.328.234.171.422.39a1.7 1.7 0 0 1 .328.532q.141.312.141.765 0 .657-.344 1.297a4.28 4.28 0 0 1-2.031 1.906 3.1 3.1 0 0 1-1.297.297q-.266 0-.531-.047a1.5 1.5 0 0 1-.485-.14 1.05 1.05 0 0 1-.344-.297.9.9 0 0 1-.14-.516q0-.438.172-.672.171-.25.437-.39t.563-.22q.312-.077.578-.187.266-.124.437-.312.172-.187.172-.531 0-.33-.265-.672-.25-.36-.563-.75a8 8 0 0 1-.578-.86 2.03 2.03 0 0 1-.25-1q0-.672.266-1.234.28-.578.734-1 .469-.422 1.062-.656.594-.25 1.25-.25.25 0 .485.047.25.046.437.172a.8.8 0 0 1 .297.312.85.85 0 0 1 .125.484m7.172 5.813q0 .531-.344 1.047a3.8 3.8 0 0 1-.843.906 5 5 0 0 1-1.079.64q-.578.235-1.062.235a2.76 2.76 0 0 1-1.484-.406 3.9 3.9 0 0 1-1.079-1.063 5.2 5.2 0 0 1-.671-1.406 5.6 5.6 0 0 1-.219-1.516q0-.78.219-1.671.218-.891.656-1.641.453-.75 1.125-1.25.687-.5 1.625-.5.531 0 1.015.187.485.173.844.5.36.33.578.782.219.453.219 1.015 0 .735-.312 1.375a3.7 3.7 0 0 1-.829 1.11 4.4 4.4 0 0 1-1.187.765 4 4 0 0 1-1.375.313q.062.453.359.656.313.203.735.203.312 0 .609-.156a6 6 0 0 0 .578-.344q.282-.203.547-.36.281-.155.563-.156.312 0 .562.204a.65.65 0 0 1 .25.53m-2.531-3.828a.94.94 0 0 0-.11-.422.36.36 0 0 0-.343-.219.9.9 0 0 0-.578.188 1.4 1.4 0 0 0-.391.453q-.156.266-.25.578a3 3 0 0 0-.094.578q.219-.047.516-.125.312-.078.578-.203.281-.141.469-.344a.66.66 0 0 0 .203-.484m7.594 7.047q-.266 0-.422-.25a1.7 1.7 0 0 1-.235-.547 4.4 4.4 0 0 1-.109-.625 12 12 0 0 1-.016-.5q0-.469.047-.938l.125-.937q.078-.469.125-.938a7 7 0 0 0 .063-.937q0-.187-.016-.406a1.6 1.6 0 0 0-.078-.407.66.66 0 0 0-.172-.328.44.44 0 0 0-.328-.125q-.14 0-.313.234a3.4 3.4 0 0 0-.328.516q-.14.281-.25.578a1.5 1.5 0 0 0-.093.422v.703q.015.345.015.703v.907q-.015.28-.047.578-.031.297-.093.578-.048.281-.141.547a1.8 1.8 0 0 1-.25.453 1.2 1.2 0 0 1-.344.312.9.9 0 0 1-.484.125.7.7 0 0 1-.516-.203 1.5 1.5 0 0 1-.328-.515 3.6 3.6 0 0 1-.187-.72 23 23 0 0 1-.079-.78q-.015-.39-.015-.703.015-.33.015-.516V82.5q0-.594-.031-1.172-.015-.578-.015-1.157v-.796q.015-.485.125-.938.108-.468.359-.797.25-.328.734-.328.219 0 .391.14t.297.344q.14.204.219.438.093.234.14.406a3.3 3.3 0 0 1 .36-.422q.218-.203.484-.36a2.54 2.54 0 0 1 1.344-.343q.796 0 1.234.39.453.375.656.954.22.562.266 1.219.047.656.047 1.187 0 .266-.047.797-.047.517-.156 1.156a13 13 0 0 1-.266 1.297q-.172.657-.406 1.203a3 3 0 0 1-.563.89q-.312.345-.718.345m8.828-6.438q0 .078-.016.172a1 1 0 0 1-.047.156 1.5 1.5 0 0 1-.437.61 1.1 1.1 0 0 1-.703.234q-.61 0-.829-.61a.5.5 0 0 1-.031-.171q0-.11-.015-.219v-.453a.9.9 0 0 0-.11-.344q-.078-.125-.265-.125-.266 0-.516.344a3.8 3.8 0 0 0-.422.797 7 7 0 0 0-.281.937q-.11.485-.11.782 0 .234.032.578.031.328.125.64.094.313.25.547.171.219.437.219a.8.8 0 0 0 .485-.156q.234-.172.453-.391.203-.187.437-.39a.87.87 0 0 1 .563-.204q.39 0 .609.282a.97.97 0 0 1 .234.64q0 .532-.281 1a3.2 3.2 0 0 1-.703.797q-.422.328-.937.516a2.7 2.7 0 0 1-.985.203q-.843 0-1.437-.422a3.3 3.3 0 0 1-.938-1.063 5 5 0 0 1-.515-1.421 7.2 7.2 0 0 1-.157-1.454q0-.796.219-1.718.219-.937.672-1.735a4.3 4.3 0 0 1 1.156-1.328q.719-.531 1.703-.531.61 0 1.047.266.453.264.735.703.296.421.437.953.156.531.156 1.047v.156a1 1 0 0 1-.015.156m3.453-4.906a.65.65 0 0 1-.125.39 1.2 1.2 0 0 1-.297.313q-.187.125-.406.203a1.5 1.5 0 0 1-.407.063.96.96 0 0 1-.546-.157q-.235-.156-.235-.484a.74.74 0 0 1 .11-.406q.125-.187.296-.297.172-.126.391-.188t.422-.062q.297 0 .547.14t.25.485m.125 5.312v.47q0 .233-.016.452-.015.266-.015.719 0 .438-.032.953-.031.516-.109 1.047a4.4 4.4 0 0 1-.219.969 2 2 0 0 1-.422.719.9.9 0 0 1-.64.28.58.58 0 0 1-.5-.234 2.2 2.2 0 0 1-.344-.64 5.4 5.4 0 0 1-.188-.89 18 18 0 0 1-.093-.954 13 13 0 0 1-.032-.86v-1.281q0-.468.032-1 .031-.53.109-1.078.094-.547.25-1 .172-.453.438-.734a.88.88 0 0 1 .671-.281q.422 0 .641.422.219.42.328.984.11.563.125 1.125.016.546.016.812m7.75 3.391q0 .282-.031.734a4.4 4.4 0 0 1-.125.891 2.1 2.1 0 0 1-.344.734q-.234.313-.656.313-.579 0-.891-.375t-.297-.938a3.8 3.8 0 0 1-1.141.688q-.624.25-1.281.25-.453 0-.859-.219a2.7 2.7 0 0 1-.719-.562 2.9 2.9 0 0 1-.5-.766 2.2 2.2 0 0 1-.187-.86q0-.75.453-1.312a4.2 4.2 0 0 1 1.14-.953q.672-.405 1.422-.64.766-.235 1.36-.313v-.14a.6.6 0 0 0 .015-.141q0-.485-.265-.782-.267-.296-.75-.296-.391 0-.672.14a3.3 3.3 0 0 0-.532.297q-.25.156-.5.297a1.24 1.24 0 0 1-.562.125.87.87 0 0 1-.594-.219.74.74 0 0 1-.234-.562q0-.516.297-.938.312-.422.765-.703a4 4 0 0 1 1-.453 3.4 3.4 0 0 1 1-.172q.423 0 .844.11.422.093.797.312.375.203.672.516.312.296.5.703.28.578.453 1.234.172.64.266 1.328.093.672.125 1.36.03.671.031 1.312m-2.5-.5-.047-1.062h-.063a.13.13 0 0 0-.062-.016q-.202 0-.516.11-.296.094-.578.28a2.3 2.3 0 0 0-.484.391.7.7 0 0 0-.188.453q0 .219.157.297a.8.8 0 0 0 .359.078q.344 0 .734-.172.391-.187.688-.359m6.359-6.766q0 .844-.078 1.704-.062.843-.062 1.703 0 1.11.062 2.218.078 1.11.078 2.235 0 .28-.031.64-.031.344-.156.641a1.2 1.2 0 0 1-.344.5q-.235.203-.625.203-.375 0-.656-.375a3.3 3.3 0 0 1-.453-.922 12 12 0 0 1-.297-1.281 23 23 0 0 1-.172-1.36 107 107 0 0 1-.078-1.218 31 31 0 0 1-.016-.828q0-.297.016-.86.031-.562.109-1.218t.203-1.328q.141-.688.36-1.235.218-.562.515-.906.313-.36.735-.36.344 0 .515.235.188.219.266.547.078.312.094.672.015.344.015.593m4.11 2.922q0 .25-.032.688a20 20 0 0 1-.093.922 10 10 0 0 1-.188 1q-.109.5-.266.922-.156.405-.375.671-.218.25-.5.25-.344 0-.593-.328a3.5 3.5 0 0 1-.407-.86 9 9 0 0 1-.25-1.171 19 19 0 0 1-.14-1.25 27 27 0 0 1-.063-1.14v-1.516q0-.439.032-.922.046-.484.125-.953.094-.485.265-.875t.453-.625a1.02 1.02 0 0 1 .703-.25q.375 0 .61.328.25.312.39.828.157.5.219 1.125.078.625.094 1.234.031.594.016 1.11zm-.297 5.938a.9.9 0 0 1-.125.469q-.126.187-.328.312a1.4 1.4 0 0 1-.438.203 1.8 1.8 0 0 1-.469.063q-.344 0-.656-.188-.312-.172-.312-.562 0-.235.125-.422.14-.204.343-.344.204-.141.438-.219.25-.078.469-.078.359 0 .656.188.297.171.297.578"/><defs><filter id="a" width="305.316" height="124.107" x="-4.223" y="0" color-interpolation-filters="sRGB" filterUnits="userSpaceOnUse"><feFlood flood-opacity="0" result="BackgroundImageFix"/><feBlend in="SourceGraphic" in2="BackgroundImageFix" result="shape"/><feColorMatrix in="SourceAlpha" result="hardAlpha" values="0 0 0 0 0 0 0 0 0 0 0 0 0 0 0 0 0 0 127 0"/><feOffset dy="4"/><feGaussianBlur stdDeviation="2"/><feComposite in2="hardAlpha" k2="-1" k3="1" operator="arithmetic"/><feColorMatrix values="0 0 0 0 0 0 0 0 0 0 0 0 0 0 0 0 0 0 0.25 0"/><feBlend in2="shape" result="effect1_innerShadow_1129_883"/></filter></defs></svg>