<svg xmlns="http://www.w3.org/2000/svg" width="187" height="115" fill="none" viewBox="0 0 187 115"><g filter="url(#a)"><path fill="#00d287" fill-rule="evenodd" d="M26.733 73.107C8.819 65.602 1 54.527 1 42.54 1 27.79 16.77 13.22 42.86 6.016 55.514 2.522 70.38 1 87.463 1c52.301 0 100.532 15.048 98.473 41.54 0 13.145-8.926 25.232-27.106 32.448-9.913 3.935-22.453 6.258-38.143 6.973-6.172 13.752-15.205 20.833-30.024 32.039 10.867-13.061 17.526-21.482 19.935-31.803l-.832.002c-37.07 2.352-65.106-1.582-83.033-9.092" clip-rule="evenodd"/></g><path fill="#00d287" d="m26.733 73.107-.387.922zM42.86 6.017l-.267-.965zM185.936 42.54l-.997-.078-.003.078zM158.83 74.988l.369.93zm-38.143 6.973-.046-1a1 1 0 0 0-.867.59zM90.663 114l-.77-.64a1.001 1.001 0 0 0 1.373 1.438zm19.935-31.803.974.228a1 1 0 0 0-.977-1.228zm-.832.002v-1q-.032 0-.063.002zM0 42.539c0 12.527 8.205 23.89 26.346 31.49l.773-1.844C9.433 64.775 2 53.988 2 42.54zM42.594 5.053C29.44 8.684 18.828 14.188 11.482 20.7 4.142 27.21 0 34.79 0 42.54h2c0-7 3.743-14.078 10.81-20.343 7.062-6.261 17.379-11.644 30.316-15.217zM87.464 0c-17.136 0-32.1 1.526-44.87 5.052l.532 1.928C55.664 3.518 70.434 2 87.463 2zm99.469 42.617c.542-6.972-2.242-13.15-7.447-18.445-5.186-5.275-12.8-9.705-22.042-13.27C138.955 3.772 113.691 0 87.464 0v2c26.072 0 51.074 3.753 69.261 10.769 9.096 3.508 16.423 7.808 21.335 12.805 4.894 4.978 7.367 10.615 6.879 16.888zm-27.734 33.3c18.427-7.314 27.737-19.696 27.737-33.377h-2c0 12.608-8.543 24.4-26.475 31.518zm-38.467 7.043c15.757-.718 28.417-3.053 38.467-7.043l-.738-1.859c-9.775 3.88-22.196 6.192-37.82 6.904zm-.958-1.409c-6.054 13.49-14.88 20.433-29.715 31.651l1.207 1.596c14.804-11.195 24.043-18.413 30.333-32.428zM91.431 114.64c10.833-13.019 17.668-21.623 20.141-32.215l-1.948-.455c-2.345 10.048-8.827 18.287-19.73 31.39zm18.335-31.441q.419 0 .835-.002l-.006-2-.829.002zm-83.42-9.17c18.126 7.594 46.335 11.525 83.483 9.168l-.126-1.996c-36.992 2.347-64.855-1.59-82.584-9.016z"/><path fill="#fff" d="M29.013 37.113q0 .342-.287.643-.274.3-.725.547-.438.246-.984.437a13 13 0 0 1-1.08.301 10 10 0 0 1-1.012.205q-.465.069-.739.069a3 3 0 0 1-.56-.055.9.9 0 0 1-.479-.205q-.108-.082-.19-.37a10 10 0 0 1-.165-.683 17 17 0 0 1-.123-.848q-.055-.465-.096-.902-.027-.437-.054-.807a16 16 0 0 1 0-1.394q.026-.492.068-1.04a25 25 0 0 1 .26-2.214q.095-.519.218-.93.138-.41.287-.642.26-.37.657-.37.273 0 .465.192.19.177.3.478.123.287.178.657.069.356.096.71.027.356.027.657v.478q0 1.067-.055 2.12a54 54 0 0 0-.04 2.105v.533q.615-.191 1.34-.355a5.8 5.8 0 0 1 1.38-.178q.233 0 .465.027.246.028.424.123a.64.64 0 0 1 .3.26q.124.165.124.451m2.597-7.656a.57.57 0 0 1-.109.342q-.095.15-.26.273-.165.11-.355.178a1.3 1.3 0 0 1-.356.055.84.84 0 0 1-.478-.137q-.205-.136-.205-.424 0-.205.095-.355a.9.9 0 0 1 .26-.26q.15-.11.342-.164.191-.055.37-.055a.96.96 0 0 1 .478.123q.218.123.218.424m.11 4.648v.41q0 .206-.014.397-.014.233-.014.629 0 .383-.027.834t-.096.916q-.054.465-.191.848a1.8 1.8 0 0 1-.37.629.78.78 0 0 1-.56.246.5.5 0 0 1-.437-.205 1.9 1.9 0 0 1-.301-.561 4.7 4.7 0 0 1-.164-.78q-.055-.436-.082-.833a11 11 0 0 1-.027-.752v-1.121q0-.41.027-.875t.096-.944q.081-.478.218-.875.15-.396.383-.642a.77.77 0 0 1 .588-.246q.37 0 .56.369.192.369.288.861t.11.985q.013.478.013.71m4.156 5.387q-.97 0-1.518-.26a1.76 1.76 0 0 1-.806-.71q-.26-.465-.315-1.122a20 20 0 0 1-.014-2.748q.042-.656.124-1.394-.192 0-.301.014h-.178q-.437 0-.752-.192a.64.64 0 0 1-.328-.588q0-.246.192-.437.177-.192.464-.328a3.3 3.3 0 0 1 .616-.22q.341-.08.642-.109 0-.382.055-.847.054-.465.191-.861.15-.411.397-.684a.8.8 0 0 1 .629-.274.58.58 0 0 1 .382.137.9.9 0 0 1 .288.328q.109.192.164.438a2.2 2.2 0 0 1 .054.478q0 .275-.04.56a7 7 0 0 1-.151.712q.233-.028.314-.028a1 1 0 0 1 .15-.013q.233 0 .48.04.258.042.464.137a.95.95 0 0 1 .356.26.53.53 0 0 1 .136.37q0 .245-.205.437a1.7 1.7 0 0 1-.492.328q-.3.136-.643.219a6 6 0 0 1-.642.096q-.083.56-.123 1.038-.027.465-.069.944l-.054.478a8 8 0 0 0 0 .903q.013.233.095.45a1 1 0 0 0 .26.384q.178.15.492.15.192 0 .397-.027.205-.041.41-.041.356 0 .506.246.165.246.164.629a.78.78 0 0 1-.178.506 1.2 1.2 0 0 1-.424.328q-.26.136-.587.205a3 3 0 0 1-.602.068m7.875-2.42q0 .246-.027.643-.014.396-.11.78-.095.368-.3.642a.68.68 0 0 1-.575.273q-.506 0-.779-.328t-.26-.82a3.4 3.4 0 0 1-.998.601 3 3 0 0 1-1.12.219q-.398 0-.753-.191a2.4 2.4 0 0 1-.629-.493 2.5 2.5 0 0 1-.437-.67 1.9 1.9 0 0 1-.164-.751q0-.656.396-1.149.41-.492.998-.834a5.7 5.7 0 0 1 1.244-.56 7.5 7.5 0 0 1 1.19-.274v-.123a.5.5 0 0 0 .013-.123q0-.423-.232-.684-.233-.26-.656-.26a1.3 1.3 0 0 0-.588.124q-.247.11-.465.26a11 11 0 0 1-.437.26q-.219.108-.493.109a.76.76 0 0 1-.52-.192.64.64 0 0 1-.204-.492q0-.45.26-.82.273-.369.67-.616.41-.26.874-.396.48-.15.875-.15.37 0 .739.095.369.082.697.274.328.177.588.451.273.26.437.615.246.506.397 1.08.15.56.232 1.162.082.588.11 1.19.027.588.027 1.148m-2.187-.437-.041-.93h-.055a.1.1 0 0 0-.055-.014 1.4 1.4 0 0 0-.451.096 2 2 0 0 0-.506.246 2 2 0 0 0-.424.342.6.6 0 0 0-.164.397q0 .19.137.26a.7.7 0 0 0 .314.068q.3 0 .643-.15.342-.165.601-.315m4.976 1.64q0 .22-.123.56a4 4 0 0 1-.287.67q-.164.33-.383.561-.219.233-.424.233-.273 0-.273-.274 0-.164.068-.314.069-.15.15-.3.082-.138.15-.288a.6.6 0 0 0 .07-.273.77.77 0 0 1-.438.136.69.69 0 0 1-.533-.246.8.8 0 0 1-.22-.547q0-.437.288-.697.287-.273.725-.273.492 0 .86.26.37.26.37.792m9.734-4.17a67 67 0 0 1-.779 1.97 19 19 0 0 1-.916 1.913q-.3.547-.67.916a1.2 1.2 0 0 1-.847.356q-.383 0-.752-.383a6 6 0 0 1-.67-.93q-.3-.546-.534-1.094-.218-.56-.328-.888-.11-.369-.246-.793a13 13 0 0 1-.246-.861 10 10 0 0 1-.178-.862 5 5 0 0 1-.068-.82q0-.533.191-.875.192-.342.752-.342.219 0 .397.137.178.123.328.355.15.233.287.547.137.3.26.67.123.355.232.738.11.384.22.739.108.356.218.697a4.3 4.3 0 0 0 .314.656l.219-.56.26-.67a44 44 0 0 1 .314-.725q.165-.383.356-.738.37-.739.779-1.258.423-.52.834-.52.383 0 .547.233.165.232.164.602 0 .368-.123.833a9 9 0 0 1-.315.957m3.514 5.292q-.697 0-1.217-.37a3.2 3.2 0 0 1-.875-.943 4.5 4.5 0 0 1-.533-1.272 5.7 5.7 0 0 1-.178-1.394q0-.725.178-1.49.177-.78.547-1.408.369-.643.943-1.04.575-.41 1.367-.41.766 0 1.3.424.546.41.874 1.04.33.614.465 1.353.136.738.096 1.394-.041.725-.233 1.463a4.7 4.7 0 0 1-.533 1.326q-.355.588-.902.957-.548.37-1.299.37m.137-6.18q-.205 0-.37.218-.15.219-.26.534-.095.315-.15.67a4 4 0 0 0-.054.601q0 .329.054.711.069.383.178.711.11.315.26.533.164.205.37.205.218 0 .368-.205.164-.205.26-.52.096-.314.137-.683.04-.383.04-.71 0-.302-.054-.657a4 4 0 0 0-.164-.684 1.5 1.5 0 0 0-.26-.52q-.15-.204-.355-.204m8.6.533a.8.8 0 0 1-.055.287q-.123.315-.383.533a.96.96 0 0 1-.615.205q-.534 0-.725-.533a.4.4 0 0 1-.027-.15q0-.096-.014-.192v-.396a.8.8 0 0 0-.096-.3q-.068-.11-.232-.11-.232 0-.451.3-.205.288-.37.698-.15.397-.246.82-.095.424-.095.684 0 .204.027.506.027.287.11.56.081.273.218.479.15.19.383.191a.7.7 0 0 0 .424-.137q.205-.15.396-.342.178-.164.383-.341a.76.76 0 0 1 .492-.178q.342 0 .534.246.204.246.205.56 0 .465-.246.876-.246.396-.616.697-.37.287-.82.451a2.4 2.4 0 0 1-.861.178q-.739 0-1.258-.37a2.9 2.9 0 0 1-.82-.929 4.4 4.4 0 0 1-.452-1.244 6.4 6.4 0 0 1-.136-1.272q0-.697.191-1.504a5.7 5.7 0 0 1 .588-1.517 3.8 3.8 0 0 1 1.012-1.162q.629-.465 1.49-.465.532 0 .916.232.396.232.643.616.26.37.382.833.137.465.137.917v.136a.7.7 0 0 1-.014.137m6.494 2.816q0 .466-.301.916a3.4 3.4 0 0 1-.739.793 4.3 4.3 0 0 1-.943.56 2.5 2.5 0 0 1-.93.206q-.725 0-1.298-.355a3.4 3.4 0 0 1-.944-.93 4.5 4.5 0 0 1-.588-1.23 5 5 0 0 1-.191-1.327q0-.684.191-1.463.192-.78.575-1.435.396-.657.984-1.094.602-.437 1.422-.437.465 0 .888.164a2.15 2.15 0 0 1 1.245 1.12q.19.397.191.89 0 .642-.273 1.203a3.2 3.2 0 0 1-.725.97q-.45.41-1.04.67a3.5 3.5 0 0 1-1.202.273q.054.397.314.575.274.177.643.178.273 0 .533-.137t.506-.301q.246-.177.478-.315.247-.136.493-.136a.76.76 0 0 1 .492.178.57.57 0 0 1 .219.464m-2.215-3.35a.8.8 0 0 0-.096-.368.32.32 0 0 0-.3-.192q-.301 0-.507.164-.204.15-.341.397a2.3 2.3 0 0 0-.22.506q-.067.273-.081.505.191-.04.451-.109.272-.068.506-.178.245-.123.41-.3a.58.58 0 0 0 .178-.424m1.216-3.363q0 .11-.04.137-.041.028-.137.028-.165 0-.37-.082a3 3 0 0 1-.396-.206 10 10 0 0 1-.383-.26 6 6 0 0 1-.3-.245l-.329.26q-.177.15-.382.287a5 5 0 0 1-.41.218 1 1 0 0 1-.383.082.4.4 0 0 1-.137-.027q-.055-.027-.055-.137 0-.205.178-.52.177-.314.438-.6a3.4 3.4 0 0 1 .546-.493q.287-.205.506-.205t.506.205q.288.19.533.465.261.273.438.574t.177.52m8.846 1.627q0 .397-.273.588-.26.192-.588.37-.329.163-.602.396-.26.232-.26.697 0 .246.11.424.123.178.287.328.177.137.383.287t.369.342q.177.192.287.465.123.273.123.67 0 .574-.3 1.135a3.73 3.73 0 0 1-1.777 1.668q-.576.26-1.136.26-.233 0-.465-.042a1.3 1.3 0 0 1-.423-.123.9.9 0 0 1-.301-.26.8.8 0 0 1-.123-.45q0-.384.15-.588.15-.219.383-.342a2.3 2.3 0 0 1 .492-.192q.273-.068.506-.164.233-.11.383-.273.15-.165.15-.465 0-.287-.232-.588a12 12 0 0 0-.492-.656 7 7 0 0 1-.506-.752 1.8 1.8 0 0 1-.219-.875q0-.588.232-1.08a2.9 2.9 0 0 1 .643-.875q.41-.37.93-.575a2.8 2.8 0 0 1 1.093-.218q.22 0 .424.04.22.042.383.151.164.096.26.274.11.163.11.424m6.358 5.592q0 .246-.028.643-.013.396-.11.78-.095.368-.3.642a.68.68 0 0 1-.574.273q-.506 0-.78-.328-.272-.328-.26-.82a3.4 3.4 0 0 1-.997.601 3 3 0 0 1-1.121.219q-.397 0-.752-.191a2.4 2.4 0 0 1-.63-.493 2.5 2.5 0 0 1-.437-.67 1.9 1.9 0 0 1-.164-.751q0-.656.397-1.149.41-.492.998-.834a5.7 5.7 0 0 1 1.244-.56 7.5 7.5 0 0 1 1.19-.274v-.123a.5.5 0 0 0 .013-.123q0-.423-.232-.684-.233-.26-.657-.26a1.3 1.3 0 0 0-.588.124q-.246.11-.464.26-.219.135-.438.26-.219.108-.492.109a.76.76 0 0 1-.52-.192.64.64 0 0 1-.205-.492q0-.45.26-.82.274-.369.67-.616.41-.26.875-.396.479-.15.875-.15.369 0 .738.095.37.082.698.274.327.177.587.451.274.26.438.615.246.506.397 1.08.15.56.232 1.162.082.588.11 1.19.026.588.027 1.148m-2.188-.437-.04-.93h-.056a.1.1 0 0 0-.054-.014 1.4 1.4 0 0 0-.451.096 2 2 0 0 0-.506.246 2 2 0 0 0-.424.342.6.6 0 0 0-.164.397q0 .19.137.26a.7.7 0 0 0 .314.068q.3 0 .643-.15.341-.165.601-.315m9.475-2.147q0 .397-.069.903-.054.492-.191 1.011a6 6 0 0 1-.342 1.012q-.205.492-.52.889-.3.383-.71.615a1.8 1.8 0 0 1-.93.232q-.56 0-1.025-.26-.45-.26-.78-.71a1.15 1.15 0 0 1-.3.656.87.87 0 0 1-.657.273q-.233 0-.396-.232a2 2 0 0 1-.246-.588 6 6 0 0 1-.15-.807 14 14 0 0 1-.055-.847 22 22 0 0 1-.014-.738v-1.395l.027-.943q0-.233-.013-.698 0-.465.013-1.025.015-.574.055-1.162.055-.602.178-1.094t.342-.807q.218-.315.56-.328.273 0 .465.192.19.19.314.506.138.315.206.71.08.383.109.78.04.382.04.738.014.342.014.56 0 .042-.013.192v.738q.123-.26.355-.505a3.15 3.15 0 0 1 1.121-.752q.314-.123.602-.123.575 0 .957.3.396.288.629.739.232.45.328.984.096.519.096.984m-2.01.41q0-.163-.027-.355a.9.9 0 0 0-.096-.355.7.7 0 0 0-.205-.274.48.48 0 0 0-.328-.11q-.219 0-.438.096a2 2 0 0 0-.396.247q-.191.15-.356.328-.164.163-.287.328l-.137 1.217q.219.315.534.505.314.178.71.178.301 0 .493-.191.204-.192.314-.465.123-.287.164-.602.055-.315.055-.547m8.572 1.668q0 .466-.301.916a3.3 3.3 0 0 1-.738.793 4.3 4.3 0 0 1-.943.56 2.5 2.5 0 0 1-.93.206q-.725 0-1.299-.355a3.4 3.4 0 0 1-.943-.93 4.5 4.5 0 0 1-.588-1.23 5 5 0 0 1-.191-1.327q0-.684.191-1.463.192-.78.574-1.435.397-.657.985-1.094.6-.437 1.422-.437.464 0 .888.164.425.15.738.437.315.288.506.684.192.396.192.888 0 .643-.274 1.204a3.2 3.2 0 0 1-.724.97 3.8 3.8 0 0 1-1.039.67 3.5 3.5 0 0 1-1.204.273q.055.397.315.575.273.177.643.178.273 0 .533-.137a6 6 0 0 0 .506-.301q.246-.177.478-.315.246-.136.492-.136.274 0 .492.178a.57.57 0 0 1 .219.464m-2.215-3.35a.8.8 0 0 0-.095-.368.32.32 0 0 0-.301-.192.8.8 0 0 0-.506.164q-.205.15-.342.397a2.3 2.3 0 0 0-.219.506q-.067.273-.081.505.191-.04.45-.109.275-.068.507-.178.245-.123.41-.3a.58.58 0 0 0 .177-.424m11.786 3.35q0 .466-.301.916a3.4 3.4 0 0 1-.739.793 4.3 4.3 0 0 1-.943.56 2.5 2.5 0 0 1-.93.206q-.725 0-1.298-.355a3.4 3.4 0 0 1-.944-.93 4.5 4.5 0 0 1-.588-1.23 5 5 0 0 1-.191-1.327q0-.684.191-1.463.191-.78.575-1.435a3.8 3.8 0 0 1 .984-1.094q.602-.437 1.422-.437.465 0 .889.164a2.15 2.15 0 0 1 1.244 1.12q.19.397.191.89 0 .642-.273 1.203a3.2 3.2 0 0 1-.725.97 3.8 3.8 0 0 1-1.039.67 3.5 3.5 0 0 1-1.203.273q.054.397.314.575.274.177.643.178.273 0 .533-.137a6 6 0 0 0 .506-.301q.246-.177.478-.315a1 1 0 0 1 .493-.136.76.76 0 0 1 .492.178.57.57 0 0 1 .219.464m-2.215-3.35a.8.8 0 0 0-.096-.368.32.32 0 0 0-.301-.192q-.3 0-.506.164-.204.15-.341.397a2.3 2.3 0 0 0-.219.506q-.069.273-.082.505.191-.04.451-.109a3 3 0 0 0 .506-.178q.246-.123.41-.3a.58.58 0 0 0 .178-.424m8.531-1.27q0 .218-.082.464a4 4 0 0 1-.205.479 8 8 0 0 1-.26.478q-.136.22-.246.41a76 76 0 0 0-.547.889q-.26.45-.533.889l.342.533q.219.343.424.724.218.37.369.739.15.37.15.629a.75.75 0 0 1-.191.478.58.58 0 0 1-.465.233q-.288 0-.588-.206a5 5 0 0 1-.574-.478 7 7 0 0 1-.506-.588q-.232-.315-.397-.52-.177.192-.464.52a8 8 0 0 1-.602.643q-.314.315-.629.547-.314.218-.56.218a.55.55 0 0 1-.452-.205.75.75 0 0 1-.164-.478q0-.274.178-.697.191-.425.438-.875.26-.451.505-.862.26-.41.397-.642a27 27 0 0 1-.342-.643 17 17 0 0 1-.396-.848q-.179-.45-.315-.875a2.8 2.8 0 0 1-.123-.724q0-.315.191-.506a.7.7 0 0 1 .506-.192q.342 0 .643.274.3.26.56.643.26.369.452.779.204.396.328.656.164-.246.451-.67.3-.423.67-.834.369-.41.765-.71.397-.302.752-.302.232 0 .37.206.15.19.15.423m6.672 2.98q0 .6-.137 1.326a4.7 4.7 0 0 1-.437 1.326 3 3 0 0 1-.807 1.025q-.492.41-1.244.41-.192 0-.397-.027a2 2 0 0 1-.396-.095 1.4 1.4 0 0 1-.328-.178.8.8 0 0 1-.233-.315l-.123 1.97q-.013.314-.027.751 0 .438-.109.834a1.5 1.5 0 0 1-.342.67q-.232.288-.684.287-.26 0-.437-.273a2.2 2.2 0 0 1-.287-.67 8 8 0 0 1-.151-.916q-.054-.506-.068-.97-.014-.465-.014-.849v-.56q0-.916-.014-1.819-.013-.915-.013-1.831v-.506q0-.356.027-.766.028-.41.082-.848.069-.437.192-.793.123-.369.314-.588a.58.58 0 0 1 .465-.232q.177 0 .314.11.151.095.246.26.11.15.178.327.069.178.11.329.423-.48.97-.725.56-.246 1.19-.246.656 0 1.066.369.424.369.656.916.246.546.342 1.176.096.615.096 1.12m-1.955-.11q0-.204-.041-.41a1.1 1.1 0 0 0-.123-.396.67.67 0 0 0-.246-.301.67.67 0 0 0-.411-.123q-.327 0-.697.219a1.5 1.5 0 0 0-.533.478q-.069.11-.082.356a8 8 0 0 0-.014.369v.26l.028.314.027.315q.027.15.068.232.042.123.178.232.136.096.301.178.164.083.328.123.177.041.301.041a.57.57 0 0 0 .465-.219 1.6 1.6 0 0 0 .273-.52q.11-.3.137-.614a5 5 0 0 0 .041-.534m5.345-4.101q0 .738-.068 1.49a20 20 0 0 0-.055 1.49q0 .971.055 1.942.068.97.068 1.955 0 .245-.027.56-.027.301-.137.56a1.05 1.05 0 0 1-.3.438q-.205.178-.547.178-.328 0-.574-.328a2.9 2.9 0 0 1-.397-.807q-.15-.505-.26-1.12-.096-.615-.15-1.19-.04-.588-.068-1.067-.015-.492-.014-.724 0-.26.014-.752a17 17 0 0 1 .273-2.229q.123-.6.314-1.08.192-.492.452-.793.273-.315.642-.314.301 0 .451.205.165.191.233.478.068.274.082.588.013.3.013.52m3.295-1.258a.56.56 0 0 1-.109.342q-.095.15-.26.273a1.6 1.6 0 0 1-.355.178 1.3 1.3 0 0 1-.356.055.84.84 0 0 1-.478-.137q-.205-.136-.205-.424 0-.205.095-.355a.9.9 0 0 1 .26-.26q.15-.11.342-.164t.369-.055q.26 0 .479.123t.218.424m.11 4.648v.41q0 .206-.014.397-.014.233-.014.629 0 .383-.027.834t-.096.916q-.054.465-.191.848a1.8 1.8 0 0 1-.369.629.78.78 0 0 1-.561.246.5.5 0 0 1-.437-.205 1.9 1.9 0 0 1-.301-.561 4.6 4.6 0 0 1-.164-.78q-.055-.436-.082-.833a12 12 0 0 1-.027-.752v-1.121q0-.41.027-.875t.096-.944q.081-.478.218-.875a1.9 1.9 0 0 1 .383-.642.77.77 0 0 1 .588-.246q.369 0 .561.369.19.369.287.861t.109.985q.014.478.014.71m6.043-.355a.8.8 0 0 1-.055.287q-.123.315-.383.533a.96.96 0 0 1-.615.205q-.533 0-.725-.533a.4.4 0 0 1-.027-.15 1.4 1.4 0 0 0-.014-.192v-.396a.8.8 0 0 0-.095-.3q-.068-.11-.233-.11-.232 0-.451.3a3.3 3.3 0 0 0-.369.698q-.15.397-.246.82-.096.424-.096.684 0 .204.027.506.028.287.11.56t.219.479q.15.19.382.191a.7.7 0 0 0 .424-.137q.205-.15.397-.342.177-.164.383-.341a.76.76 0 0 1 .492-.178q.342 0 .533.246a.85.85 0 0 1 .205.56q0 .465-.246.876a2.8 2.8 0 0 1-.615.697q-.37.287-.821.451-.45.178-.861.178-.738 0-1.258-.37a2.9 2.9 0 0 1-.82-.929 4.4 4.4 0 0 1-.451-1.244 6.4 6.4 0 0 1-.137-1.272q0-.697.191-1.504a5.7 5.7 0 0 1 .588-1.517 3.8 3.8 0 0 1 1.012-1.162q.629-.465 1.49-.465.534 0 .916.232.397.232.643.616.26.37.383.833.136.465.136.917v.136a.7.7 0 0 1-.013.137m6.576 3.322q0 .246-.027.643-.014.396-.11.78-.096.368-.301.642a.68.68 0 0 1-.574.273q-.506 0-.779-.328t-.26-.82a3.4 3.4 0 0 1-.998.601 3 3 0 0 1-1.121.219q-.396 0-.752-.191a2.3 2.3 0 0 1-.629-.493 2.5 2.5 0 0 1-.437-.67 1.9 1.9 0 0 1-.164-.751q0-.656.396-1.149.41-.492.998-.834a5.7 5.7 0 0 1 1.244-.56 7.5 7.5 0 0 1 1.19-.274v-.123a.5.5 0 0 0 .013-.123q0-.423-.232-.684-.233-.26-.656-.26a1.3 1.3 0 0 0-.588.124q-.246.11-.465.26-.219.135-.438.26a1.1 1.1 0 0 1-.492.109.76.76 0 0 1-.519-.192.64.64 0 0 1-.205-.492q0-.45.259-.82.274-.369.67-.616.41-.26.875-.396.479-.15.875-.15.37 0 .739.095.369.082.697.274.329.177.588.451.273.26.437.615.246.506.397 1.08.15.56.232 1.162.082.588.11 1.19.027.588.027 1.148m-2.188-.437-.041-.93h-.054a.1.1 0 0 0-.055-.014 1.4 1.4 0 0 0-.451.096 2 2 0 0 0-.506.246q-.246.15-.424.342a.6.6 0 0 0-.164.397q0 .19.137.26a.7.7 0 0 0 .314.068 1.6 1.6 0 0 0 .643-.15q.342-.165.601-.315m7.752-2.748a.9.9 0 0 1-.328-.028l-.273-.109a3 3 0 0 0-.246-.096.54.54 0 0 0-.274-.04q-.273.013-.492.15a2 2 0 0 0-.383.341 2.4 2.4 0 0 0-.287.465 2.7 2.7 0 0 0-.191.492q-.041.165-.069.506a17 17 0 0 0-.013.711q-.014.397-.014.752 0 .356-.027.56a4 4 0 0 1-.069.52 2.2 2.2 0 0 1-.177.547 1.3 1.3 0 0 1-.301.438.7.7 0 0 1-.492.177.66.66 0 0 1-.411-.136 1.3 1.3 0 0 1-.287-.356 3.3 3.3 0 0 1-.191-.533 6 6 0 0 1-.109-.615 15 15 0 0 1-.069-.656l-.027-.616v-.546q.014-.247.014-.397-.015-.479-.055-.957a18 18 0 0 1-.027-.97q0-.302.027-.67.027-.37.15-.684.123-.328.356-.547.246-.219.67-.219.233 0 .396.15.165.15.26.37.11.218.164.465.054.245.068.45.328-.533.739-.86.41-.343 1.066-.37.328-.014.643.069.327.067.587.246.274.164.438.437.177.273.191.643.028.437-.259.67a1.14 1.14 0 0 1-.698.246m7.055 5.51q-.697 0-1.217-.37a3.2 3.2 0 0 1-.875-.943 4.5 4.5 0 0 1-.533-1.272 5.8 5.8 0 0 1-.178-1.394q0-.725.178-1.49.178-.78.547-1.408.369-.643.943-1.04.575-.41 1.367-.41.766 0 1.299.424.548.41.875 1.04.328.614.465 1.353.137.738.096 1.394-.041.725-.233 1.463a4.6 4.6 0 0 1-.533 1.326q-.356.588-.902.957-.548.37-1.299.37m.137-6.18q-.206 0-.369.218a2.2 2.2 0 0 0-.26.534 5 5 0 0 0-.151.67 4 4 0 0 0-.054.601q0 .329.054.711.069.383.178.711.11.315.26.533.164.205.369.205.219 0 .369-.205.165-.205.26-.52.095-.314.137-.683.04-.383.041-.71 0-.302-.055-.657a3.7 3.7 0 0 0-.164-.684 1.5 1.5 0 0 0-.26-.52q-.15-.204-.355-.204M34.564 50.643l-.22 1.982a29 29 0 0 0-.15 1.969 29 29 0 0 0-.054 2.146q.013 1.012.013 2.147 0 .273-.013.67 0 .397-.096.765a1.6 1.6 0 0 1-.314.63q-.206.258-.63.259a.54.54 0 0 1-.355-.123 1.2 1.2 0 0 1-.246-.328 2.4 2.4 0 0 1-.164-.438 8 8 0 0 1-.096-.506q-.068-.532-.082-1.066v-2.598q-.315.41-.82.63a2.5 2.5 0 0 1-.985.204q-.615 0-1.066-.287a2.6 2.6 0 0 1-.725-.752 3.6 3.6 0 0 1-.423-1.012A4.4 4.4 0 0 1 28 53.87v-.082q0-.71.219-1.531a6 6 0 0 1 .642-1.545 4.1 4.1 0 0 1 1.08-1.176q.657-.478 1.518-.478.465 0 .848.191.396.191.56.629.11-.315.328-.506a.86.86 0 0 1 .588-.205q.45 0 .63.3.19.288.19.643 0 .15-.013.274l-.028.26m-3.145.328q-.315 0-.588.26a2.4 2.4 0 0 0-.479.615 3.6 3.6 0 0 0-.328.765q-.11.41-.109.725 0 .192.027.41.041.219.11.424.081.191.205.328a.5.5 0 0 0 .342.123q.177 0 .41-.082.246-.096.478-.232.233-.15.41-.329a1.1 1.1 0 0 0 .247-.341q.04-.096.068-.287.027-.192.04-.397a7 7 0 0 0 .056-.738q0-.165-.082-.37a1.7 1.7 0 0 0-.192-.41 1.1 1.1 0 0 0-.287-.328.5.5 0 0 0-.328-.136m9.789 2.119q0 .752-.15 1.49-.151.738-.506 1.326a2.75 2.75 0 0 1-.957.93q-.588.355-1.477.355-.874 0-1.463-.341a2.8 2.8 0 0 1-.943-.93 4.2 4.2 0 0 1-.492-1.299 8 8 0 0 1-.137-1.477q0-.82.191-1.626.042-.22.15-.602.124-.397.302-.766.191-.383.423-.656.246-.273.534-.273.273 0 .437.15t.26.383q.096.219.123.478.027.247.027.452 0 .314-.054.615-.042.3-.096.601l-.11.82a8 8 0 0 0-.027 1.286q.027.246.11.478.082.233.232.397.15.15.424.15.356 0 .56-.191.219-.191.315-.479.11-.287.136-.615.028-.329.028-.602 0-.6-.082-1.175a47 47 0 0 1-.15-1.19 1.3 1.3 0 0 1 .055-.602q.067-.204.19-.368a.9.9 0 0 1 .301-.26.74.74 0 0 1 .397-.11q.3 0 .533.22.232.204.383.546.164.329.26.752.108.41.164.82.068.397.082.752.027.356.027.56m6.563 1.476q0 .466-.301.916a3.4 3.4 0 0 1-.739.793 4.3 4.3 0 0 1-.943.56 2.5 2.5 0 0 1-.93.206q-.725 0-1.298-.355a3.4 3.4 0 0 1-.944-.93 4.5 4.5 0 0 1-.588-1.23 5 5 0 0 1-.191-1.327q0-.684.191-1.463.192-.78.575-1.435.396-.657.984-1.094.602-.437 1.422-.437.465 0 .889.164a2.15 2.15 0 0 1 1.244 1.12q.19.397.191.89 0 .642-.273 1.203a3.2 3.2 0 0 1-.725.97q-.45.41-1.04.67a3.5 3.5 0 0 1-1.202.273q.054.397.314.575.274.178.643.178.273 0 .533-.137t.506-.301q.246-.177.478-.315.246-.136.493-.136a.76.76 0 0 1 .492.178.57.57 0 0 1 .218.464m-2.215-3.35a.8.8 0 0 0-.096-.368.32.32 0 0 0-.3-.192q-.301 0-.507.164-.204.15-.341.397a2.3 2.3 0 0 0-.22.506q-.068.273-.081.505.191-.04.45-.109.275-.068.507-.178.245-.123.41-.3a.58.58 0 0 0 .178-.424m11.785 3.35q0 .466-.301.916a3.4 3.4 0 0 1-.738.793 4.3 4.3 0 0 1-.944.56 2.5 2.5 0 0 1-.93.206q-.723 0-1.298-.355a3.4 3.4 0 0 1-.944-.93 4.5 4.5 0 0 1-.587-1.23 5 5 0 0 1-.192-1.327q0-.684.192-1.463.191-.78.574-1.435.396-.657.984-1.094.602-.437 1.422-.437.465 0 .889.164a2.15 2.15 0 0 1 1.244 1.12q.19.397.191.89 0 .642-.273 1.203a3.2 3.2 0 0 1-.725.97q-.45.41-1.039.67a3.5 3.5 0 0 1-1.203.273q.055.397.315.575.273.178.642.178.273 0 .533-.137t.506-.301q.246-.177.479-.315.246-.136.492-.136a.76.76 0 0 1 .492.178.57.57 0 0 1 .219.464m-2.215-3.35a.8.8 0 0 0-.096-.368.32.32 0 0 0-.3-.192q-.302 0-.506.164-.206.15-.342.397a2.3 2.3 0 0 0-.219.506q-.068.273-.082.505.192-.04.451-.109.274-.068.506-.178.245-.123.41-.3a.58.58 0 0 0 .178-.424m.766-4.853q0 .15-.082.301a1.4 1.4 0 0 1-.206.26q-.108.123-.246.232a10 10 0 0 0-.246.178q-.095.069-.218.164-.11.083-.246.164a2 2 0 0 1-.26.123.6.6 0 0 1-.246.055.34.34 0 0 1-.192-.055.24.24 0 0 1-.082-.191q0-.206.15-.492.165-.301.397-.575.233-.286.492-.478.26-.205.479-.205.19 0 .341.164.165.15.165.355m12.332 4.485q0 1.203-.493 2.324a6.7 6.7 0 0 1-1.326 1.969 6.4 6.4 0 0 1-1.927 1.38 5.4 5.4 0 0 1-2.311.506h-.027a.5.5 0 0 1-.41-.218 2.4 2.4 0 0 1-.26-.575 4.3 4.3 0 0 1-.164-.765 14 14 0 0 1-.082-.82 11 11 0 0 1-.028-.725v-.492a30 30 0 0 1 .055-1.846q0-.15.014-.438.027-.3.054-.67.028-.368.069-.765.04-.41.082-.752l.095-.615q.056-.274.123-.37.178-.3.547-.533a4 4 0 0 1 .793-.383q.438-.15.875-.218.45-.082.78-.082.901 0 1.558.342.67.328 1.108.902.451.56.656 1.299.219.738.219 1.545m-2.297.396q0-.3-.11-.615a2 2 0 0 0-.314-.574 1.4 1.4 0 0 0-.479-.41 1.17 1.17 0 0 0-.615-.165q-.287 0-.588.137-.068.041-.123.26a4 4 0 0 0-.096.506q-.027.301-.054.656t-.041.684q0 .315-.014.56v.738q0 .26.014.52.027.26.055.451.027.192.095.192.411 0 .807-.315.41-.328.738-.793t.52-.97q.204-.507.205-.862m5.168-3.787a.57.57 0 0 1-.11.342q-.095.15-.26.273-.163.11-.355.178a1.3 1.3 0 0 1-.355.055.84.84 0 0 1-.479-.137q-.205-.137-.205-.424 0-.205.096-.355a.9.9 0 0 1 .26-.26q.15-.11.341-.164t.37-.055a.96.96 0 0 1 .478.123q.219.123.219.424m.11 4.648v.41q0 .206-.015.397-.013.233-.013.629 0 .383-.028.834-.027.45-.095.916-.055.465-.192.848a1.8 1.8 0 0 1-.369.629.78.78 0 0 1-.56.246.5.5 0 0 1-.438-.205 1.9 1.9 0 0 1-.3-.561 4.7 4.7 0 0 1-.165-.78q-.055-.436-.082-.833a11 11 0 0 1-.027-.752v-1.121q0-.41.027-.875.028-.465.096-.944.082-.478.219-.875.15-.396.382-.642a.77.77 0 0 1 .588-.246q.37 0 .56.369.192.369.288.861t.11.985q.013.478.013.71m6.78 2.967q0 .246-.027.643-.014.396-.11.78-.095.368-.3.642a.68.68 0 0 1-.574.273q-.506 0-.78-.328-.273-.328-.26-.82a3.4 3.4 0 0 1-.998.601 3 3 0 0 1-1.12.219q-.398 0-.752-.191a2.4 2.4 0 0 1-.63-.493 2.5 2.5 0 0 1-.437-.67 1.9 1.9 0 0 1-.164-.751q0-.656.397-1.149.41-.492.998-.834a5.7 5.7 0 0 1 1.244-.56 7.5 7.5 0 0 1 1.19-.274v-.123a.5.5 0 0 0 .013-.123q0-.423-.233-.684-.232-.26-.656-.26a1.3 1.3 0 0 0-.588.124q-.246.11-.465.26a11 11 0 0 1-.437.26q-.219.108-.492.109a.76.76 0 0 1-.52-.192.64.64 0 0 1-.205-.492q0-.45.26-.82.274-.369.67-.616.41-.26.875-.396.478-.15.875-.15.369 0 .738.095.37.082.697.274.33.178.588.451.274.26.438.615.246.506.396 1.08.15.56.233 1.162.08.588.109 1.19.027.588.027 1.148m-2.187-.437-.041-.93h-.055a.1.1 0 0 0-.055-.014 1.4 1.4 0 0 0-.45.096 2 2 0 0 0-.507.246q-.246.15-.423.342a.6.6 0 0 0-.164.397q0 .19.136.26a.7.7 0 0 0 .315.068q.3 0 .642-.15.342-.165.602-.315m9.474-2.147q0 .397-.068.903-.054.492-.191 1.011a6 6 0 0 1-.342 1.012 3.7 3.7 0 0 1-.52.889q-.3.383-.71.615a1.8 1.8 0 0 1-.93.232q-.561 0-1.026-.26-.45-.26-.779-.71a1.15 1.15 0 0 1-.3.656.87.87 0 0 1-.657.273q-.233 0-.396-.232a2 2 0 0 1-.247-.588 6 6 0 0 1-.15-.807 14 14 0 0 1-.055-.847q-.013-.411-.013-.738v-1.395l.027-.943q0-.233-.014-.698 0-.465.014-1.025.014-.574.055-1.162.054-.602.177-1.094t.342-.807q.22-.315.56-.328.274 0 .466.192.19.19.314.506.137.315.205.71.082.383.11.78.04.383.04.738.014.342.014.56 0 .042-.013.192v.738q.123-.26.355-.505.232-.247.52-.438.286-.192.601-.315.314-.122.602-.123.573 0 .957.301.396.288.629.739.232.45.328.984.096.519.095.984m-2.01.41q0-.163-.027-.355a.9.9 0 0 0-.095-.355.7.7 0 0 0-.205-.274.48.48 0 0 0-.329-.11q-.218 0-.437.096a2 2 0 0 0-.397.247q-.191.15-.355.328-.165.163-.287.328l-.137 1.217q.22.315.533.505.315.178.711.178.3 0 .493-.191.204-.192.314-.465.123-.287.164-.602.055-.315.055-.547m8.573 1.668q0 .466-.3.916a3.4 3.4 0 0 1-.74.793 4.3 4.3 0 0 1-.942.56 2.5 2.5 0 0 1-.93.206q-.724 0-1.299-.355a3.4 3.4 0 0 1-.943-.93 4.5 4.5 0 0 1-.588-1.23 5 5 0 0 1-.192-1.327q0-.684.192-1.463.191-.78.574-1.435.396-.657.984-1.094.602-.437 1.422-.437.465 0 .889.164a2.15 2.15 0 0 1 1.244 1.12q.191.397.191.89 0 .642-.273 1.203a3.2 3.2 0 0 1-.725.97q-.45.41-1.039.67a3.5 3.5 0 0 1-1.203.273q.056.397.315.575.273.178.642.178.273 0 .533-.137t.506-.301q.246-.177.479-.315.246-.136.492-.136a.76.76 0 0 1 .492.178.57.57 0 0 1 .219.464m-2.215-3.35a.8.8 0 0 0-.096-.368.32.32 0 0 0-.3-.192q-.301 0-.506.164-.205.15-.342.397a2.3 2.3 0 0 0-.219.506q-.068.273-.082.505.192-.04.451-.109.274-.068.506-.178.246-.123.41-.3a.58.58 0 0 0 .178-.424m5.947 6.276q-.97 0-1.517-.26a1.76 1.76 0 0 1-.807-.71q-.26-.465-.314-1.122a20 20 0 0 1-.014-2.748q.04-.656.123-1.394-.191 0-.3.014h-.178a1.4 1.4 0 0 1-.752-.192.64.64 0 0 1-.329-.588q0-.246.192-.437.177-.192.465-.328a3.3 3.3 0 0 1 .615-.22q.342-.08.643-.109 0-.382.054-.847.055-.465.192-.861.15-.411.396-.684a.8.8 0 0 1 .629-.274.58.58 0 0 1 .383.137.9.9 0 0 1 .287.328q.11.192.164.438a2.2 2.2 0 0 1 .055.478q0 .275-.041.56a7 7 0 0 1-.15.712q.232-.028.314-.028a1 1 0 0 1 .15-.013q.233 0 .479.04.26.042.465.138a.95.95 0 0 1 .355.26.53.53 0 0 1 .137.368q0 .247-.205.438a1.7 1.7 0 0 1-.493.328 3.6 3.6 0 0 1-.642.219 6 6 0 0 1-.643.096q-.081.56-.123 1.038-.027.465-.068.944l-.055.478a8 8 0 0 0 0 .903q.014.233.096.45a1 1 0 0 0 .26.384q.177.15.492.15.191 0 .396-.027.206-.042.41-.041.356 0 .506.246.165.246.164.629 0 .287-.177.506a1.2 1.2 0 0 1-.424.328q-.26.136-.588.205a3 3 0 0 1-.602.068m7.793-2.926q0 .466-.3.916a3.4 3.4 0 0 1-.739.793 4.3 4.3 0 0 1-.943.56 2.5 2.5 0 0 1-.93.206q-.724 0-1.299-.355a3.4 3.4 0 0 1-.943-.93 4.5 4.5 0 0 1-.588-1.23 5 5 0 0 1-.191-1.327q0-.684.191-1.463.192-.78.574-1.435.397-.657.985-1.094.6-.437 1.422-.437.465 0 .888.164a2.15 2.15 0 0 1 1.244 1.12q.192.397.192.89 0 .642-.274 1.203a3.2 3.2 0 0 1-.724.97 3.8 3.8 0 0 1-1.039.67 3.5 3.5 0 0 1-1.203.273q.054.397.314.575.274.178.643.178.273 0 .533-.137a6 6 0 0 0 .506-.301q.246-.177.478-.315.246-.136.492-.136.274 0 .493.178a.57.57 0 0 1 .218.464m-2.214-3.35a.8.8 0 0 0-.096-.368.32.32 0 0 0-.301-.192q-.3 0-.506.164-.205.15-.342.397a2.3 2.3 0 0 0-.218.506q-.069.273-.082.505.191-.04.451-.109a3 3 0 0 0 .506-.178q.246-.123.41-.3a.58.58 0 0 0 .178-.424m6.767-1.736q0 .397-.273.588-.26.192-.588.37-.329.163-.602.396-.26.232-.26.697 0 .246.11.424.123.178.287.328.177.137.383.287.204.15.369.342.177.192.287.465.123.273.123.67 0 .574-.301 1.135a3.7 3.7 0 0 1-.752.984q-.45.424-1.025.684-.574.26-1.135.26-.232 0-.465-.042a1.3 1.3 0 0 1-.424-.123.9.9 0 0 1-.3-.26.8.8 0 0 1-.123-.45q0-.384.15-.588.15-.219.383-.342.232-.123.492-.192.273-.068.506-.164.232-.11.383-.273.15-.165.15-.465 0-.287-.232-.588a12 12 0 0 0-.493-.656 7 7 0 0 1-.505-.752 1.8 1.8 0 0 1-.219-.875q0-.588.232-1.08.246-.507.643-.875.41-.37.93-.575.519-.218 1.093-.218.219 0 .424.04.22.042.383.151a.7.7 0 0 1 .26.274.75.75 0 0 1 .109.423m13.193 6.03q-.04.356-.123.697a3.5 3.5 0 0 1-.177.615q-.11.26-.287.41a.53.53 0 0 1-.383.165q-.219 0-.397-.342a5 5 0 0 1-.342-.875q-.15-.56-.287-1.258a66 66 0 0 1-.232-1.408 43 43 0 0 1-.164-1.409 68 68 0 0 1-.11-1.189q-.081.52-.191 1.162-.109.642-.26 1.313-.15.655-.328 1.299-.177.628-.383 1.134a3.5 3.5 0 0 1-.437.793q-.233.3-.492.301-.232 0-.465-.315a4.2 4.2 0 0 1-.451-.82q-.22-.52-.41-1.148a31 31 0 0 1-.643-2.461 28 28 0 0 1-.191-.957q0 .286-.014.642v.493q0 .068-.014.45 0 .384-.041.917-.04.533-.123 1.148a7 7 0 0 1-.246 1.121q-.15.52-.383.875-.232.356-.574.383a1.1 1.1 0 0 1-.465-.41 3.3 3.3 0 0 1-.301-.697 6 6 0 0 1-.191-.848 16 16 0 0 1-.164-1.682v-.601q0-.41.041-1.026.054-.628.164-1.312t.287-1.367.424-1.217q.26-.547.588-.889.341-.342.779-.342.206 0 .438.233.233.233.464.615.233.369.452.834.218.465.41.944.205.465.355.902.151.423.246.724.11-.328.274-.765.164-.438.355-.902.206-.48.438-.93.245-.465.506-.82.26-.37.519-.588.273-.233.547-.233.478 0 .82.356.342.355.575.93.233.56.369 1.27.136.698.205 1.395.081.684.095 1.285.028.602.028.971v.41q0 .261-.014.588 0 .328-.027.698a18 18 0 0 1-.069.738m6.809-.944q0 .466-.301.916a3.3 3.3 0 0 1-.738.793 4.3 4.3 0 0 1-.943.56 2.5 2.5 0 0 1-.93.206q-.724 0-1.299-.355a3.4 3.4 0 0 1-.943-.93 4.5 4.5 0 0 1-.588-1.23 5 5 0 0 1-.192-1.327q0-.684.192-1.463.191-.78.574-1.435.397-.657.984-1.094.601-.437 1.422-.437.465 0 .889.164.424.15.738.437.315.287.506.684.192.396.192.888 0 .643-.274 1.204a3.2 3.2 0 0 1-.725.97q-.45.41-1.039.67a3.5 3.5 0 0 1-1.203.273q.055.397.315.575.273.178.642.178.274 0 .534-.137t.505-.301a6 6 0 0 1 .479-.315q.246-.136.492-.136a.76.76 0 0 1 .492.178.57.57 0 0 1 .219.464m-2.215-3.35a.8.8 0 0 0-.096-.368.315.315 0 0 0-.3-.192.8.8 0 0 0-.506.164q-.206.15-.342.397a2.3 2.3 0 0 0-.219.506q-.068.273-.082.505.192-.04.451-.109.274-.068.506-.178.246-.123.41-.3a.58.58 0 0 0 .178-.424m5.319-2.501q0 .738-.069 1.49-.054.738-.054 1.49 0 .971.054 1.942.069.97.069 1.955 0 .245-.028.56-.027.301-.137.56a1.05 1.05 0 0 1-.3.438q-.205.178-.547.178-.328 0-.574-.328a2.9 2.9 0 0 1-.397-.807q-.15-.505-.26-1.12-.095-.615-.15-1.19-.04-.588-.068-1.067-.014-.493-.014-.724 0-.26.014-.752a17 17 0 0 1 .273-2.229 6.3 6.3 0 0 1 .315-1.08q.191-.492.451-.793.273-.315.642-.314.301 0 .451.205.165.192.233.478.068.274.082.588.014.3.014.52m3.595 0q0 .738-.068 1.49-.055.738-.055 1.49 0 .971.055 1.942.068.97.068 1.955 0 .245-.027.56-.027.301-.137.56a1.05 1.05 0 0 1-.301.438q-.205.178-.546.178-.329 0-.575-.328a2.9 2.9 0 0 1-.396-.807q-.15-.505-.26-1.12-.096-.615-.15-1.19-.041-.588-.069-1.067a29 29 0 0 1-.013-.724q0-.26.013-.752.028-.492.096-1.067.069-.574.178-1.162.123-.6.314-1.08.192-.492.451-.793.274-.315.643-.314.3 0 .451.205.165.192.233.478.067.274.082.588.013.3.013.52m3.295-1.258a.56.56 0 0 1-.109.342q-.096.15-.26.273a1.6 1.6 0 0 1-.355.178 1.3 1.3 0 0 1-.356.055.84.84 0 0 1-.478-.137q-.205-.137-.205-.424 0-.205.095-.355a.9.9 0 0 1 .26-.26q.15-.11.342-.164.19-.055.369-.055.26 0 .478.123.219.123.219.424m.11 4.648v.41q0 .206-.014.397-.014.233-.014.629 0 .383-.027.834t-.096.916q-.054.465-.191.848a1.8 1.8 0 0 1-.369.629.78.78 0 0 1-.561.246.5.5 0 0 1-.437-.205 1.9 1.9 0 0 1-.301-.561 4.6 4.6 0 0 1-.164-.78q-.055-.436-.082-.833a11 11 0 0 1-.028-.752v-1.121q0-.41.028-.875.027-.465.095-.944.082-.478.219-.875.15-.396.383-.642a.77.77 0 0 1 .588-.246q.37 0 .56.369.192.369.288.861t.109.985q.014.478.014.71m4.156 5.387q-.97 0-1.518-.26a1.76 1.76 0 0 1-.806-.71q-.26-.465-.315-1.122a18 18 0 0 1-.055-1.462q0-.643.041-1.286.042-.656.124-1.394-.192 0-.301.014h-.178a1.4 1.4 0 0 1-.752-.192.63.63 0 0 1-.328-.588q0-.246.191-.437.179-.192.465-.328.288-.137.615-.22.342-.08.643-.109 0-.382.055-.847.054-.465.191-.861.15-.411.397-.684a.8.8 0 0 1 .628-.274.58.58 0 0 1 .383.137.9.9 0 0 1 .287.328q.11.192.164.438t.055.478q0 .275-.041.56a7 7 0 0 1-.15.712q.232-.028.314-.028a1 1 0 0 1 .151-.013q.232 0 .478.04.26.042.465.138.219.095.355.26.137.15.137.368 0 .247-.205.438a1.7 1.7 0 0 1-.492.328 3.6 3.6 0 0 1-.643.219 6 6 0 0 1-.642.096q-.083.56-.123 1.038-.028.465-.069.944l-.054.478a8 8 0 0 0 0 .903q.014.233.095.45a1 1 0 0 0 .26.384q.178.15.492.15.192 0 .397-.027.204-.042.41-.041.355 0 .506.246.164.246.164.629 0 .287-.178.506a1.2 1.2 0 0 1-.424.328 2.2 2.2 0 0 1-.588.205q-.314.068-.601.068m8.053-4.402q0 .752-.151 1.49a4.1 4.1 0 0 1-.506 1.326 2.75 2.75 0 0 1-.957.93q-.588.355-1.476.355-.876 0-1.463-.341a2.8 2.8 0 0 1-.944-.93 4.2 4.2 0 0 1-.492-1.299 8 8 0 0 1-.136-1.477q0-.82.191-1.626.04-.22.15-.602.124-.397.301-.766.192-.383.424-.656.246-.273.533-.273.273 0 .438.15t.259.383q.096.219.123.478.028.247.028.452 0 .314-.055.615-.04.3-.096.601l-.109.82a8 8 0 0 0-.027 1.286q.027.246.109.478.082.233.232.397.151.15.424.15.355 0 .561-.191.22-.191.314-.479.11-.287.137-.615.027-.329.027-.602 0-.6-.082-1.175a53 53 0 0 1-.15-1.19 1.3 1.3 0 0 1 .055-.602q.068-.204.191-.368a.9.9 0 0 1 .301-.26.74.74 0 0 1 .396-.11q.302 0 .534.22.231.204.382.546.165.329.26.752.11.41.164.82.069.397.082.752.028.356.028.56m4.839-3.61q0 .397-.273.588-.26.192-.588.37-.328.163-.602.396-.26.232-.259.697 0 .246.109.424.123.178.287.328.178.137.383.287t.369.342q.178.192.287.465.123.273.123.67 0 .574-.3 1.135a3.75 3.75 0 0 1-1.778 1.668q-.574.26-1.135.26-.232 0-.464-.042a1.3 1.3 0 0 1-.424-.123.9.9 0 0 1-.301-.26.8.8 0 0 1-.123-.45q0-.384.15-.588.151-.219.383-.342t.492-.192q.274-.068.506-.164.233-.11.383-.273.15-.165.15-.465 0-.287-.232-.588-.219-.315-.492-.656a7 7 0 0 1-.506-.752 1.8 1.8 0 0 1-.219-.875q0-.588.233-1.08.246-.507.642-.875.41-.37.93-.575a2.8 2.8 0 0 1 1.094-.218q.218 0 .423.04.22.042.383.151.165.096.26.274a.75.75 0 0 1 .109.423m-75.14 16.182q0 .342-.274.629a2.8 2.8 0 0 1-.642.492q-.37.205-.766.342a6 6 0 0 1-.656.191 55 55 0 0 0-.178 2.106q-.055 1.04-.055 2.092 0 .56.028 1.107.027.548.027 1.094 0 .246-.055.547a1.9 1.9 0 0 1-.164.547 1.2 1.2 0 0 1-.314.437.75.75 0 0 1-.506.178q-.355 0-.574-.205a1.4 1.4 0 0 1-.328-.479 2.7 2.7 0 0 1-.15-.601 5 5 0 0 1-.042-.588 99 99 0 0 1-.054-3.309v-1.367q.013-.67.013-1.367-.191.028-.396.04-.192.014-.397.014-.164 0-.437-.027a3 3 0 0 1-.506-.123 1.5 1.5 0 0 1-.424-.246.54.54 0 0 1-.178-.41q0-.41.329-.711.314-.314.806-.533a6.3 6.3 0 0 1 1.108-.383q.614-.165 1.203-.246.6-.096 1.094-.137.506-.04.779-.04.26 0 .547.026.3.015.56.11.26.096.424.287.178.19.178.533m1.545-.205a.57.57 0 0 1-.11.342q-.095.15-.26.273a1.6 1.6 0 0 1-.355.178 1.3 1.3 0 0 1-.355.055.84.84 0 0 1-.479-.137q-.205-.137-.205-.424 0-.205.096-.355a.9.9 0 0 1 .26-.26q.15-.11.341-.164t.37-.055a.96.96 0 0 1 .478.123q.219.123.219.424m.11 4.649v.41q0 .204-.015.396a11 11 0 0 0-.013.629q0 .382-.028.834-.027.45-.095.916-.055.465-.192.848a1.8 1.8 0 0 1-.369.629.78.78 0 0 1-.56.246.5.5 0 0 1-.438-.205 1.9 1.9 0 0 1-.3-.561 4.7 4.7 0 0 1-.165-.78q-.054-.436-.082-.833a11 11 0 0 1-.027-.752v-1.121q0-.41.027-.875t.096-.944q.082-.478.219-.875.15-.396.382-.642a.77.77 0 0 1 .588-.246q.37 0 .56.369.193.369.288.861t.11.984q.013.479.013.712m7.232.82q0 .6-.137 1.326a4.6 4.6 0 0 1-.438 1.326q-.301.615-.806 1.025-.493.41-1.245.41-.191 0-.396-.027a2 2 0 0 1-.397-.095 1.4 1.4 0 0 1-.328-.178.8.8 0 0 1-.232-.315l-.123 1.97a63 63 0 0 0-.027.751q0 .438-.11.834a1.5 1.5 0 0 1-.342.67q-.231.287-.683.287-.26 0-.438-.273a2.2 2.2 0 0 1-.287-.67 8 8 0 0 1-.15-.916q-.055-.507-.069-.97-.013-.465-.013-.849v-.56q0-.915-.014-1.819-.014-.915-.014-1.831v-.506q0-.356.028-.766.027-.41.082-.848.069-.437.191-.793a1.7 1.7 0 0 1 .315-.587.58.58 0 0 1 .465-.233.5.5 0 0 1 .314.11q.15.095.246.26.11.15.178.327t.11.328q.423-.478.97-.724.56-.246 1.19-.246.655 0 1.066.369.423.369.656.916.246.546.342 1.176.096.615.096 1.12m-1.956-.11q0-.204-.04-.41a1.1 1.1 0 0 0-.124-.396.67.67 0 0 0-.246-.301.66.66 0 0 0-.41-.123q-.328 0-.697.219a1.5 1.5 0 0 0-.533.478q-.069.11-.082.356-.014.246-.014.369v.26a48 48 0 0 1 .055.629q.027.15.068.232.041.123.178.232.136.096.3.178a1.6 1.6 0 0 0 .329.123q.177.04.3.041a.57.57 0 0 0 .465-.219q.178-.218.274-.52.11-.3.136-.614.041-.33.041-.534m5.387 4.58q-.697 0-1.217-.369a3.2 3.2 0 0 1-.875-.943 4.5 4.5 0 0 1-.533-1.272 5.7 5.7 0 0 1-.178-1.394q0-.725.178-1.49.177-.78.547-1.409.369-.642.943-1.038.575-.41 1.368-.41.765 0 1.298.423.548.41.875 1.04.33.614.465 1.353a5.7 5.7 0 0 1 .096 1.394q-.04.725-.233 1.463a4.7 4.7 0 0 1-.533 1.326q-.355.588-.902.957-.547.37-1.299.37m.137-6.18q-.205 0-.37.22-.15.218-.26.533-.094.315-.15.67a4 4 0 0 0-.054.601q0 .328.055.711.067.383.177.711.11.314.26.533.164.205.37.205.218 0 .368-.205.165-.204.26-.52.096-.314.137-.683.04-.383.04-.71 0-.301-.054-.657a4 4 0 0 0-.164-.684 1.5 1.5 0 0 0-.26-.52q-.15-.204-.355-.204m9.42-.956q0 .424-.014.847l-.027.848q-.028.698-.028 1.395 0 .683-.041 1.38-.014.232-.027.63-.014.383-.109.765a1.9 1.9 0 0 1-.274.656.61.61 0 0 1-.533.274.7.7 0 0 1-.533-.22 1.8 1.8 0 0 1-.328-.573 4 4 0 0 1-.15-.78 14 14 0 0 1-.055-.847q0-.425.013-.78.015-.356.014-.546v-1.86l.027-1.86a1.8 1.8 0 0 1-.437-.56q-.15-.342-.15-.697 0-.561.328-.957.34-.397.929-.397.506 0 .793.383.287.382.41.916.137.534.164 1.094.028.546.028.889m7.314-.616q0 .439-.232.82a3.3 3.3 0 0 1-.561.698q-.328.315-.738.56-.396.234-.738.37a11 11 0 0 1 .068 1.873q0 .286-.082.547a.96.96 0 0 1-.246.424q-.164.177-.479.177-.546 0-.738-.547a3 3 0 0 1-.109-.547q-.041-.355-.069-.724a21 21 0 0 1-.013-.738v-.588q0-.192.013-.451a.94.94 0 0 1 .137-.424q.123-.178.41-.342.288-.178.588-.37.315-.19.547-.423a.75.75 0 0 0 .232-.547.84.84 0 0 0-.109-.424 1 1 0 0 0-.287-.314 1.1 1.1 0 0 0-.383-.205 1.1 1.1 0 0 0-.424-.082q-.519 0-.82.177a2.5 2.5 0 0 0-.52.37l-.396.369a.66.66 0 0 1-.465.164.9.9 0 0 1-.601-.233.72.72 0 0 1-.26-.56q0-.533.314-.903.315-.382.78-.601.464-.232.984-.328.519-.11.93-.11.546 0 1.121.246.588.233 1.052.63.478.396.78.93.314.533.314 1.106m-2.023 6.645a.64.64 0 0 1-.123.397.9.9 0 0 1-.287.273 1.2 1.2 0 0 1-.383.164 1.5 1.5 0 0 1-.397.055q-.314 0-.588-.15-.26-.15-.259-.493 0-.219.109-.383.123-.177.301-.3.177-.124.383-.178.218-.069.41-.069.314 0 .574.164.26.165.26.52"/><defs><filter id="a" width="187" height="119" x="0" y="0" color-interpolation-filters="sRGB" filterUnits="userSpaceOnUse"><feFlood flood-opacity="0" result="BackgroundImageFix"/><feBlend in="SourceGraphic" in2="BackgroundImageFix" result="shape"/><feColorMatrix in="SourceAlpha" result="hardAlpha" values="0 0 0 0 0 0 0 0 0 0 0 0 0 0 0 0 0 0 127 0"/><feOffset dy="4"/><feGaussianBlur stdDeviation="2"/><feComposite in2="hardAlpha" k2="-1" k3="1" operator="arithmetic"/><feColorMatrix values="0 0 0 0 0 0 0 0 0 0 0 0 0 0 0 0 0 0 0.25 0"/><feBlend in2="shape" result="effect1_innerShadow_871_280"/></filter></defs></svg>