<svg xmlns="http://www.w3.org/2000/svg" width="219" height="137" fill="none" viewBox="0 0 219 137"><g filter="url(#a)"><path fill="#3dc3ff" fill-rule="evenodd" d="M31.046 87.145C10.13 78.18 1 64.948 1 50.627 1 33.007 19.414 15.6 49.877 6.993 64.652 2.818 82.01 1 101.957 1c61.068 0 117.384 17.978 114.98 49.627 0 15.704-10.423 30.145-31.65 38.766-11.574 4.7-26.217 7.477-44.537 8.33-7.207 16.429-17.754 24.889-35.057 38.277 12.689-15.604 20.464-25.665 23.277-37.994l-.971.001c-43.284 2.81-76.02-1.89-96.953-10.862" clip-rule="evenodd"/></g><path fill="#3dc3ff" d="m31.046 87.145-.394.92zm18.83-80.152.273.962zm167.061 43.634-.997-.075-.003.075zm-31.65 38.766-.376-.927zm-44.537 8.33-.047-.999a1 1 0 0 0-.869.597zM105.693 136l-.776-.631a1 1 0 0 0 1.388 1.422zm23.277-37.994.975.222a1 1 0 0 0-.978-1.222zm-.971.001v-1l-.065.002zM0 50.627c0 14.847 9.5 28.37 30.652 37.437l.788-1.838C10.76 77.362 2 64.423 2 50.627zM49.605 6.03c-15.342 4.335-27.71 10.901-36.262 18.66C4.793 32.443 0 41.45 0 50.626h2c0-8.444 4.413-16.951 12.687-24.457 8.27-7.502 20.34-13.943 35.461-18.215zM101.957 0c-20 0-37.458 1.822-52.352 6.03l.544 1.925C64.805 3.815 82.066 2 101.957 2zm115.977 50.703c.627-8.253-2.59-15.578-8.64-21.875-6.031-6.277-14.897-11.558-25.678-15.813C162.05 4.504 132.57 0 101.957 0v2c30.455 0 59.666 4.485 80.925 12.875 10.631 4.196 19.21 9.344 24.97 15.339 5.742 5.976 8.663 12.766 8.088 20.338zm-32.271 39.616c21.484-8.725 32.274-23.465 32.274-39.692h-2c0 15.181-10.056 29.322-31.026 37.84zm-44.867 8.403c18.389-.857 33.153-3.645 44.867-8.403l-.752-1.853c-11.434 4.644-25.956 7.408-44.208 8.258zm-.962-1.4c-7.092 16.167-17.436 24.489-34.753 37.887l1.224 1.582c17.29-13.378 28.039-21.975 35.361-38.666zm-33.365 39.309c12.656-15.563 20.602-25.805 23.476-38.403l-1.95-.445c-2.752 12.061-10.355 21.941-23.078 37.586zm21.53-37.624.974-.001-.006-2-.968.001zM30.652 88.064c21.135 9.06 54.047 13.757 97.411 10.941l-.129-1.996C84.73 99.814 52.171 95.112 31.44 86.226z"/><path fill="#fff" d="M39.545 20.773q0 .27-.176.47-.165.198-.398.327-.21.129-.434.282a2.4 2.4 0 0 0-.41.328q-.188.176-.305.398a1.1 1.1 0 0 0-.117.504.86.86 0 0 0 .117.445q.117.2.281.399l.375.398q.212.2.375.457.176.246.294.563t.117.738q0 .293-.13.668a4 4 0 0 1-.327.738q-.212.375-.504.727-.281.351-.61.633a3 3 0 0 1-.668.433q-.35.176-.68.176-.363 0-.644-.2-.28-.198-.281-.597 0-.27.129-.492a2.4 2.4 0 0 1 .316-.445q.188-.212.41-.41a5 5 0 0 0 .422-.399q.187-.2.317-.41a.9.9 0 0 0 .129-.469q0-.34-.246-.691a10 10 0 0 0-.528-.739 10 10 0 0 1-.539-.785 1.6 1.6 0 0 1-.234-.808q0-.504.27-1.055.27-.562.69-1.02.422-.468.95-.773t1.043-.305q.41 0 .703.246.293.247.293.668m2.637 8.567q-.599 0-1.043-.317a2.8 2.8 0 0 1-.75-.808 3.9 3.9 0 0 1-.457-1.09 5 5 0 0 1-.153-1.195q0-.621.153-1.278.152-.667.468-1.207.316-.55.809-.89.492-.352 1.172-.352.656 0 1.113.363a2.6 2.6 0 0 1 .75.891q.281.528.399 1.16.117.633.082 1.195-.036.622-.2 1.254-.151.633-.457 1.137-.304.505-.773.82-.47.317-1.113.317m.117-5.297q-.176 0-.317.188-.128.187-.222.456-.082.27-.13.575a3.3 3.3 0 0 0 0 1.125q.06.327.153.61.094.268.223.456.142.176.316.176.187 0 .317-.176.14-.175.222-.445.083-.27.117-.586a6 6 0 0 0 .036-.61q0-.257-.047-.562a3 3 0 0 0-.14-.586 1.3 1.3 0 0 0-.224-.445q-.128-.176-.304-.176m10.136 1.09v.61q0 .375-.023.82a9 9 0 0 1-.07.902q-.06.445-.188.808-.118.364-.304.598a.59.59 0 0 1-.48.235.45.45 0 0 1-.4-.212 1.7 1.7 0 0 1-.187-.515 4 4 0 0 1-.07-.598v-.48q0-.528.035-1.031.036-.504.035-1.032v-.21q0-.153-.023-.305a.9.9 0 0 0-.082-.27q-.046-.117-.153-.117-.21 0-.34.223-.128.21-.21.503t-.118.586a12 12 0 0 0-.047.422 7 7 0 0 0-.046.457 12 12 0 0 1-.047.668 7 7 0 0 1-.094.75q-.059.375-.164.692a1.6 1.6 0 0 1-.246.504.46.46 0 0 1-.375.199.48.48 0 0 1-.434-.246 1.8 1.8 0 0 1-.222-.575 5 5 0 0 1-.094-.667 16 16 0 0 1-.012-.528v-.387q.012-.187.012-.386v-.27q0-.187-.012-.41 0-.234-.023-.48a4 4 0 0 0-.047-.446 1.1 1.1 0 0 0-.106-.34q-.07-.128-.164-.128-.152 0-.28.199-.13.187-.224.457a4 4 0 0 0-.152.515 2.4 2.4 0 0 0-.047.375v.07q0 .564.07 1.102.07.54.07 1.102 0 .328-.21.61a.7.7 0 0 1-.586.269.57.57 0 0 1-.445-.2 1.8 1.8 0 0 1-.293-.538 4.5 4.5 0 0 1-.188-.715 9 9 0 0 1-.082-.774 32 32 0 0 1-.035-.691v-.469q0-.176-.012-.516 0-.339.012-.738.024-.398.07-.808.047-.423.153-.762.105-.34.27-.55a.54.54 0 0 1 .445-.224.72.72 0 0 1 .492.165q.2.163.199.492a1 1 0 0 1-.012.14 1 1 0 0 1-.011.13q.127-.188.316-.376.188-.2.398-.351a2 2 0 0 1 .469-.258q.246-.105.492-.106.235 0 .422.13.188.128.328.327.14.188.235.41.093.224.128.422a3 3 0 0 1 .282-.421q.175-.223.375-.387.2-.165.433-.27.246-.105.504-.105.246 0 .422.176t.305.457q.129.27.199.62.07.34.117.68.047.329.059.622.012.28.011.445m3 4.207q-.597 0-1.042-.317a2.8 2.8 0 0 1-.75-.808 3.9 3.9 0 0 1-.458-1.09 5 5 0 0 1-.152-1.195q0-.621.152-1.278.153-.667.47-1.207.315-.55.808-.89.492-.352 1.172-.352.655 0 1.113.363a2.6 2.6 0 0 1 .75.891q.281.528.399 1.16.117.633.081 1.195-.035.622-.199 1.254-.152.633-.457 1.137-.304.505-.773.82-.47.317-1.114.317m.118-5.297q-.176 0-.317.188-.129.187-.222.456-.082.27-.13.575a3.3 3.3 0 0 0 0 1.125q.06.327.153.61.094.268.223.456.14.176.316.176.187 0 .317-.176.14-.175.222-.445t.117-.586a6 6 0 0 0 .036-.61q0-.257-.047-.562a3 3 0 0 0-.14-.586 1.3 1.3 0 0 0-.224-.445q-.128-.176-.304-.176m6.457-1.488q0 .339-.235.504-.222.163-.503.316-.282.14-.516.34-.223.2-.223.598 0 .21.094.363.105.152.246.281.153.117.328.246.176.13.317.293.151.164.246.399.105.234.105.574 0 .492-.258.972a3.2 3.2 0 0 1-1.523 1.43 2.35 2.35 0 0 1-.973.223q-.199 0-.398-.035a1.1 1.1 0 0 1-.364-.106.8.8 0 0 1-.257-.223.66.66 0 0 1-.106-.386q0-.328.13-.504a.9.9 0 0 1 .327-.293q.2-.105.422-.164.233-.06.434-.14.2-.094.328-.235.129-.141.129-.399 0-.246-.2-.504-.187-.27-.421-.562a6 6 0 0 1-.434-.645 1.5 1.5 0 0 1-.187-.75q0-.503.199-.925.21-.435.55-.75.352-.317.797-.492a2.4 2.4 0 0 1 .938-.188q.188 0 .363.035a.9.9 0 0 1 .328.129.6.6 0 0 1 .223.234.64.64 0 0 1 .094.364m5.226-1.735q0 .165-.093.293a.9.9 0 0 1-.223.235 1.4 1.4 0 0 1-.305.152q-.164.047-.304.047a.7.7 0 0 1-.41-.117q-.176-.117-.176-.364 0-.175.082-.304a.8.8 0 0 1 .222-.223.9.9 0 0 1 .293-.14q.165-.047.317-.047.222 0 .41.105t.187.363m.094 3.985v.351q0 .175-.012.34a10 10 0 0 0-.011.54q0 .327-.024.714-.023.387-.082.785a3.3 3.3 0 0 1-.164.727 1.5 1.5 0 0 1-.316.539.67.67 0 0 1-.48.21.43.43 0 0 1-.376-.175 1.6 1.6 0 0 1-.258-.48 4 4 0 0 1-.14-.669 13 13 0 0 1-.07-.714 10 10 0 0 1-.024-.645v-.961q0-.351.023-.75.024-.398.082-.808.07-.411.188-.75.129-.34.328-.551.199-.21.504-.211.317 0 .48.316.165.316.247.739.082.42.093.843.012.41.012.61m4.16 4.523q-.2 0-.316-.187a1.3 1.3 0 0 1-.176-.41 3 3 0 0 1-.082-.47 7 7 0 0 1 .023-1.078l.094-.703q.059-.35.094-.703.047-.35.047-.703 0-.14-.012-.305a1.2 1.2 0 0 0-.059-.304.5.5 0 0 0-.128-.246.33.33 0 0 0-.246-.094q-.105 0-.235.176-.129.164-.246.387-.105.21-.187.433-.07.21-.07.317v.527q.01.258.011.527v.68q-.012.21-.035.433a4 4 0 0 1-.07.434q-.037.21-.106.41-.071.187-.187.34a.9.9 0 0 1-.258.234.7.7 0 0 1-.364.094.52.52 0 0 1-.386-.152 1.1 1.1 0 0 1-.246-.387 2.7 2.7 0 0 1-.141-.539 18 18 0 0 1-.059-.586 13 13 0 0 1-.011-.527 9 9 0 0 0 .011-.387v-.55q0-.446-.023-.88-.012-.434-.012-.867v-.598q.013-.363.094-.703.082-.351.27-.597.186-.246.55-.246a.45.45 0 0 1 .293.105q.129.105.223.258.105.152.164.328.07.176.105.305.118-.164.27-.317.164-.151.363-.27a1.9 1.9 0 0 1 1.008-.257q.597 0 .926.293.339.282.492.715.165.422.2.914.034.492.034.89 0 .2-.035.598-.034.387-.117.867a10 10 0 0 1-.2.973 6.4 6.4 0 0 1-.304.902 2.2 2.2 0 0 1-.422.668.71.71 0 0 1-.539.258m5.707-6.773q0 .339-.234.504-.222.163-.504.316-.281.14-.516.34-.222.2-.222.598 0 .21.093.363.105.152.247.281.151.117.328.246.175.13.316.293.153.164.246.399.105.234.106.574 0 .492-.258.972a3.2 3.2 0 0 1-1.523 1.43 2.35 2.35 0 0 1-.973.223q-.2 0-.399-.035a1.1 1.1 0 0 1-.363-.106.8.8 0 0 1-.258-.223.66.66 0 0 1-.105-.386q0-.328.129-.504a.9.9 0 0 1 .328-.293q.199-.105.422-.164.234-.06.433-.14.2-.094.328-.235.13-.141.13-.399 0-.246-.2-.504-.188-.27-.422-.562a6 6 0 0 1-.433-.645 1.5 1.5 0 0 1-.188-.75q0-.503.2-.925.21-.435.55-.75.351-.317.797-.492a2.4 2.4 0 0 1 .938-.188q.187 0 .363.035a.9.9 0 0 1 .328.129.6.6 0 0 1 .222.234.64.64 0 0 1 .094.364m5.602 3.093q0 .645-.13 1.278-.128.632-.433 1.137a2.36 2.36 0 0 1-.82.796q-.504.305-1.266.305-.75 0-1.254-.293a2.4 2.4 0 0 1-.808-.797 3.6 3.6 0 0 1-.422-1.113 7 7 0 0 1-.117-1.266q0-.702.164-1.394a4.8 4.8 0 0 1 .387-1.172q.163-.328.363-.563.21-.234.457-.234.234 0 .375.129a.9.9 0 0 1 .223.328q.082.188.105.41.023.21.023.387 0 .27-.046.527-.036.258-.082.516l-.094.703a7 7 0 0 0-.024 1.102q.024.21.094.41a1 1 0 0 0 .2.34.5.5 0 0 0 .363.128q.304 0 .48-.164a.9.9 0 0 0 .27-.41q.093-.246.117-.527.023-.282.023-.516 0-.515-.07-1.008a40 40 0 0 1-.129-1.019 1.1 1.1 0 0 1 .047-.516 1.1 1.1 0 0 1 .164-.316.8.8 0 0 1 .258-.223.64.64 0 0 1 .34-.093q.257 0 .457.187.2.175.328.469.141.28.222.644.094.353.141.703.06.34.07.645.024.304.024.48m2.906-3.75q0 .633-.058 1.278-.048.633-.047 1.277 0 .833.047 1.664.058.832.058 1.676 0 .21-.023.48a1.6 1.6 0 0 1-.118.48.9.9 0 0 1-.257.376.7.7 0 0 1-.47.152q-.28 0-.491-.281a2.5 2.5 0 0 1-.34-.691 9 9 0 0 1-.223-.961 17 17 0 0 1-.129-1.02q-.035-.503-.058-.914a25 25 0 0 1-.012-.621q0-.222.012-.645.023-.42.082-.914.059-.492.152-.996.105-.515.27-.925a2.3 2.3 0 0 1 .386-.68.71.71 0 0 1 .551-.27q.257 0 .387.176.14.164.199.41.06.234.07.504.012.258.012.445m2.824-1.078q0 .165-.093.293a.9.9 0 0 1-.223.235 1.4 1.4 0 0 1-.305.152q-.164.047-.305.047a.7.7 0 0 1-.41-.117q-.175-.117-.175-.364 0-.175.082-.304a.8.8 0 0 1 .222-.223.9.9 0 0 1 .293-.14q.165-.047.317-.047.222 0 .41.105t.187.363m.094 3.985v.351q0 .175-.012.34a10 10 0 0 0-.011.54q0 .327-.024.714-.023.387-.082.785a3.3 3.3 0 0 1-.164.727 1.5 1.5 0 0 1-.316.539.67.67 0 0 1-.48.21.43.43 0 0 1-.376-.175 1.6 1.6 0 0 1-.258-.48 4 4 0 0 1-.14-.669 13 13 0 0 1-.07-.714 10 10 0 0 1-.024-.645v-.961q0-.351.023-.75a10 10 0 0 1 .083-.808q.07-.411.187-.75.129-.34.328-.551.199-.21.504-.211.316 0 .48.316.165.316.247.739.081.42.093.843.012.41.012.61m4.16 4.523q-.2 0-.316-.187a1.3 1.3 0 0 1-.176-.41 3 3 0 0 1-.082-.47 7 7 0 0 1 .023-1.078l.094-.703q.059-.35.094-.703.047-.35.047-.703 0-.14-.012-.305a1.2 1.2 0 0 0-.058-.304.5.5 0 0 0-.13-.246.33.33 0 0 0-.245-.094q-.105 0-.235.176-.129.164-.246.387-.105.21-.187.433-.07.21-.07.317v.527q.01.258.01.527v.68q-.011.21-.034.433t-.07.434q-.037.21-.106.41-.071.187-.187.34a.9.9 0 0 1-.258.234.7.7 0 0 1-.364.094.52.52 0 0 1-.386-.152 1.1 1.1 0 0 1-.246-.387 2.7 2.7 0 0 1-.141-.539 18 18 0 0 1-.059-.586 13 13 0 0 1-.011-.527q.01-.246.011-.387v-.55q0-.446-.023-.88-.012-.434-.012-.867v-.598q.013-.363.094-.703.082-.351.27-.597.187-.246.55-.246a.45.45 0 0 1 .293.105q.129.105.223.258.105.152.164.328.07.176.105.305.118-.164.27-.317.164-.151.363-.27a1.9 1.9 0 0 1 1.008-.257q.597 0 .926.293.339.282.492.715.165.422.2.914.034.492.034.89 0 .2-.035.598-.034.387-.117.867a10 10 0 0 1-.2.973 6.4 6.4 0 0 1-.304.902 2.2 2.2 0 0 1-.422.668.71.71 0 0 1-.539.258m7.254-1.98q0 .21-.023.55-.013.34-.094.668a1.6 1.6 0 0 1-.258.551.58.58 0 0 1-.492.235q-.434 0-.668-.282t-.223-.703q-.375.328-.855.516a2.6 2.6 0 0 1-.961.187 1.34 1.34 0 0 1-.645-.164 2 2 0 0 1-.539-.422 2.1 2.1 0 0 1-.375-.574 1.6 1.6 0 0 1-.14-.644q0-.562.34-.985.351-.422.855-.715a5 5 0 0 1 1.066-.48 6.4 6.4 0 0 1 1.02-.234v-.106a.4.4 0 0 0 .012-.105q0-.364-.2-.586-.198-.223-.562-.223-.292 0-.504.105-.21.094-.398.223-.188.117-.375.223a.9.9 0 0 1-.422.094.65.65 0 0 1-.446-.165.55.55 0 0 1-.175-.421q0-.387.222-.703.234-.316.575-.528a3 3 0 0 1 .75-.34q.41-.129.75-.129.315 0 .632.082.316.07.598.235.281.151.504.387.234.222.375.527.21.434.34.926.129.48.199.996.07.503.094 1.02.023.503.023.984m-1.875-.375-.035-.797h-.047a.1.1 0 0 0-.047-.012q-.152 0-.386.082a1.7 1.7 0 0 0-.434.211q-.21.13-.363.293a.52.52 0 0 0-.141.34q0 .164.117.223t.27.058q.258 0 .55-.129a8 8 0 0 0 .516-.27m6.012-4.418q0 .339-.235.504a4 4 0 0 1-.503.316q-.282.14-.516.34-.223.2-.223.598 0 .21.094.363.105.152.246.281.153.117.328.246a2 2 0 0 1 .317.293q.151.164.246.399.105.234.105.574 0 .492-.258.972a3.2 3.2 0 0 1-1.523 1.43 2.35 2.35 0 0 1-.973.223q-.199 0-.398-.035a1.1 1.1 0 0 1-.363-.106.8.8 0 0 1-.258-.223.66.66 0 0 1-.106-.386q0-.328.129-.504a.9.9 0 0 1 .328-.293q.2-.105.422-.164.234-.06.434-.14.2-.094.328-.235.129-.141.129-.399 0-.246-.199-.504a11 11 0 0 0-.422-.562 6 6 0 0 1-.434-.645 1.5 1.5 0 0 1-.187-.75q0-.503.199-.925.21-.435.551-.75.351-.317.797-.492.445-.189.937-.188.188 0 .363.035a.9.9 0 0 1 .328.129.6.6 0 0 1 .223.234.64.64 0 0 1 .094.364m8.344-1.266q0 .855-.071 1.7a26 26 0 0 0-.023 3.07q.047.68.047 1.37 0 .189-.012.458-.012.258-.082.504a1 1 0 0 1-.211.422q-.14.175-.41.175a.76.76 0 0 1-.586-.258 1.3 1.3 0 0 1-.281-.597q-.224.422-.645.715a1.57 1.57 0 0 1-.914.293q-.527 0-.914-.364a3.2 3.2 0 0 1-.633-.879 5.2 5.2 0 0 1-.375-1.078 5 5 0 0 1-.117-.972 7.4 7.4 0 0 1 .152-1.43q.094-.387.235-.75.14-.375.351-.668.223-.293.516-.469a1.36 1.36 0 0 1 .691-.175q.422 0 .809.246t.586.609l.105-1.863q.012-.223.035-.516.024-.305.094-.574.082-.27.246-.457.165-.188.481-.188.34 0 .527.164a.9.9 0 0 1 .27.422q.093.246.105.54.024.292.024.55m-1.911 5.203q0-.27-.011-.527a6 6 0 0 1 0-.527 7 7 0 0 0-.164-.329 1.5 1.5 0 0 0-.235-.34q-.129-.164-.293-.269a.64.64 0 0 0-.351-.105.46.46 0 0 0-.34.128.76.76 0 0 0-.188.317 2 2 0 0 0-.082.387q-.01.21-.011.363a5.3 5.3 0 0 0 .105.973q.07.28.188.492.117.21.316.21.152 0 .305-.058.152-.07.281-.164.141-.105.258-.223.129-.129.222-.234zm7.594.422q0 .398-.258.785-.246.375-.632.68-.375.292-.809.48a2.1 2.1 0 0 1-.797.176 2.07 2.07 0 0 1-1.113-.305 2.9 2.9 0 0 1-.809-.796 3.9 3.9 0 0 1-.504-1.055 4.2 4.2 0 0 1-.164-1.137q0-.585.164-1.254.165-.668.492-1.23.34-.563.844-.938.516-.375 1.219-.375.399 0 .762.14a1.85 1.85 0 0 1 1.066.962q.164.339.164.762 0 .55-.234 1.03-.234.482-.621.833a3.3 3.3 0 0 1-.891.574q-.504.21-1.031.235.047.339.269.492a1 1 0 0 0 .551.152 1 1 0 0 0 .457-.117q.223-.117.434-.258a5 5 0 0 1 .41-.27.86.86 0 0 1 .422-.117q.234 0 .422.153a.49.49 0 0 1 .187.398m-1.898-2.871a.7.7 0 0 0-.082-.316.27.27 0 0 0-.258-.165.67.67 0 0 0-.434.141 1.04 1.04 0 0 0-.293.34q-.117.199-.187.434-.059.234-.07.433.164-.035.386-.094.234-.059.434-.152a1.2 1.2 0 0 0 .351-.258.5.5 0 0 0 .153-.363m7.383-2.145q0 .633-.059 1.278-.047.633-.047 1.277 0 .833.047 1.664.059.832.059 1.676 0 .21-.024.48a1.6 1.6 0 0 1-.117.48.9.9 0 0 1-.258.376q-.175.152-.469.152-.28 0-.492-.281a2.5 2.5 0 0 1-.34-.691q-.129-.435-.222-.961a17 17 0 0 1-.129-1.02q-.035-.503-.059-.914a24 24 0 0 1-.012-.621q0-.222.012-.645a15 15 0 0 1 .235-1.91q.105-.515.269-.925.164-.422.387-.68a.71.71 0 0 1 .551-.27q.257 0 .386.176.14.164.2.41.058.234.07.504.012.258.012.445m5.871 5.45q0 .21-.024.55-.012.34-.094.668a1.6 1.6 0 0 1-.257.551.58.58 0 0 1-.493.235q-.433 0-.668-.282-.234-.281-.222-.703a2.9 2.9 0 0 1-.856.516 2.6 2.6 0 0 1-.961.187q-.34 0-.644-.164a2 2 0 0 1-.539-.422 2.2 2.2 0 0 1-.375-.574 1.6 1.6 0 0 1-.141-.644q0-.562.34-.985.352-.422.856-.715a4.8 4.8 0 0 1 1.066-.48 6.4 6.4 0 0 1 1.019-.234v-.106a.4.4 0 0 0 .012-.105q0-.364-.199-.586-.199-.223-.563-.223a1.1 1.1 0 0 0-.503.105 2.5 2.5 0 0 0-.399.223q-.188.117-.375.223a.9.9 0 0 1-.422.094.65.65 0 0 1-.445-.165.55.55 0 0 1-.176-.421q0-.387.223-.703.234-.316.574-.528.351-.223.75-.34.41-.129.75-.129.317 0 .633.082.316.07.597.235a2 2 0 0 1 .504.387q.236.222.375.527.211.434.34.926.13.48.199.996.071.503.094 1.02.024.503.024.984m-1.875-.375-.036-.797h-.046a.1.1 0 0 0-.047-.012q-.153 0-.387.082a1.7 1.7 0 0 0-.434.211 1.7 1.7 0 0 0-.363.293.52.52 0 0 0-.14.34q0 .164.117.223t.269.058q.258 0 .551-.129a8 8 0 0 0 .516-.27m8.121-1.84q0 .34-.059.773-.047.422-.164.867a5 5 0 0 1-.293.868 3.2 3.2 0 0 1-.445.761 2.1 2.1 0 0 1-.61.528q-.34.2-.796.199-.482 0-.879-.223a2.1 2.1 0 0 1-.668-.61 1 1 0 0 1-.258.563.74.74 0 0 1-.563.235q-.199 0-.339-.2a1.8 1.8 0 0 1-.211-.503 5 5 0 0 1-.129-.692q-.035-.375-.047-.726a19 19 0 0 1-.012-.633v-1.195l.024-.81q0-.198-.012-.597 0-.397.012-.879.011-.492.046-.996a6 6 0 0 1 .153-.937q.105-.422.293-.692t.48-.28q.234 0 .399.163.164.165.269.434.117.27.176.61.07.327.094.667.035.328.035.633.012.293.012.48 0 .036-.012.165v.632q.105-.223.305-.433.199-.21.445-.375t.515-.27q.27-.105.516-.105.493 0 .82.258.34.246.539.632.2.387.282.844.082.445.082.844m-1.723.351q0-.14-.023-.304a.8.8 0 0 0-.082-.305.6.6 0 0 0-.176-.234.4.4 0 0 0-.281-.094.9.9 0 0 0-.375.082 1.7 1.7 0 0 0-.34.21q-.165.13-.305.282a3 3 0 0 0-.246.281l-.117 1.043q.187.27.457.434.27.152.609.152a.57.57 0 0 0 .422-.164q.175-.165.27-.398.105-.246.14-.516.047-.27.047-.469m4.664 3.856q-.597 0-1.043-.317a2.8 2.8 0 0 1-.75-.808 3.9 3.9 0 0 1-.457-1.09 5 5 0 0 1-.152-1.195q0-.621.152-1.278.153-.667.469-1.207.316-.55.808-.89.493-.352 1.172-.352.657 0 1.114.363.468.352.75.891.28.528.398 1.16.117.633.082 1.195-.035.622-.199 1.254-.153.633-.457 1.137-.304.505-.774.82-.468.317-1.113.317m.117-5.297q-.175 0-.316.188-.129.187-.223.456a4.3 4.3 0 0 0-.176 1.09q0 .282.047.61.059.327.153.61.093.268.222.456.141.176.317.176.187 0 .316-.176.14-.175.223-.445t.117-.586q.035-.328.035-.61 0-.257-.047-.562a3 3 0 0 0-.14-.586 1.3 1.3 0 0 0-.223-.445q-.129-.176-.305-.176m7.09.574a.8.8 0 0 1-.281-.023l-.445-.176a.5.5 0 0 0-.235-.035.9.9 0 0 0-.422.129 1.7 1.7 0 0 0-.328.293q-.141.176-.246.398-.105.21-.164.422a3 3 0 0 0-.059.434q-.01.28-.011.609-.012.34-.012.645 0 .304-.023.48a4 4 0 0 1-.059.445q-.047.246-.152.469a1.1 1.1 0 0 1-.258.375.6.6 0 0 1-.422.152.56.56 0 0 1-.352-.117 1.1 1.1 0 0 1-.246-.305 3 3 0 0 1-.164-.457 6 6 0 0 1-.093-.527 13 13 0 0 1-.059-.562l-.024-.528v-.468q.012-.211.012-.34a14 14 0 0 0-.047-.82 16 16 0 0 1-.023-.833q0-.258.023-.574.024-.316.129-.586.106-.281.305-.469.211-.187.574-.187.2 0 .34.129a.9.9 0 0 1 .223.316q.093.188.14.399t.059.386q.28-.456.633-.738.351-.292.914-.316.28-.012.551.058.28.06.503.211.236.141.375.375.153.235.164.551.024.375-.222.574a.97.97 0 0 1-.598.211m5.977 2.73q0 .212-.024.551-.012.34-.093.668-.083.317-.258.551a.58.58 0 0 1-.492.235q-.434 0-.668-.282t-.223-.703a2.9 2.9 0 0 1-.856.516 2.6 2.6 0 0 1-.96.187 1.34 1.34 0 0 1-.645-.164 2 2 0 0 1-.539-.422 2.2 2.2 0 0 1-.375-.574 1.6 1.6 0 0 1-.141-.644q0-.562.34-.985.352-.422.856-.715a5 5 0 0 1 1.066-.48 6.4 6.4 0 0 1 1.02-.234v-.106a.5.5 0 0 0 .011-.105q0-.364-.199-.586-.2-.223-.562-.223-.294 0-.504.105a2.5 2.5 0 0 0-.399.223q-.188.117-.375.223a.9.9 0 0 1-.422.094.65.65 0 0 1-.445-.165.55.55 0 0 1-.176-.421q0-.387.223-.703.234-.316.574-.528.351-.223.75-.34.411-.129.75-.129.316 0 .633.082.316.07.598.235.28.151.503.387.236.222.375.527.211.434.34.926.13.48.2.996.07.503.093 1.02.024.503.024.984m-1.875-.374-.035-.797h-.047a.1.1 0 0 0-.047-.012q-.153 0-.387.082a1.7 1.7 0 0 0-.433.211 1.7 1.7 0 0 0-.364.293.52.52 0 0 0-.14.34q0 .164.117.223t.269.058q.258 0 .551-.129a8 8 0 0 0 .516-.27m5.308 2.449q-.832 0-1.3-.223a1.5 1.5 0 0 1-.692-.61 2.35 2.35 0 0 1-.269-.96 17 17 0 0 1-.012-2.356q.035-.562.105-1.195-.164 0-.257.012h-.153q-.375 0-.644-.164a.54.54 0 0 1-.282-.504q0-.21.164-.375.153-.165.399-.281t.527-.188a4 4 0 0 1 .551-.094q0-.327.047-.726t.164-.738q.129-.352.34-.586a.7.7 0 0 1 .539-.235q.187 0 .328.117.153.106.246.282.094.164.141.375.047.21.047.41 0 .234-.036.48a6 6 0 0 1-.128.61q.198-.024.269-.024a1 1 0 0 1 .129-.012q.2 0 .41.036.223.034.399.117a.8.8 0 0 1 .304.223.45.45 0 0 1 .117.316.5.5 0 0 1-.175.375q-.165.164-.422.281-.258.116-.551.188a5 5 0 0 1-.551.082q-.07.48-.105.89-.024.399-.059.809l-.047.41a7 7 0 0 0 0 .773q.012.2.082.387a.84.84 0 0 0 .223.328q.152.13.422.13.164 0 .34-.024.175-.036.351-.035.305 0 .434.21.14.21.14.54 0 .246-.152.433a1 1 0 0 1-.363.282 2 2 0 0 1-.504.175q-.27.06-.516.059m3.996-.082q-.597 0-1.043-.317a2.8 2.8 0 0 1-.75-.808 3.9 3.9 0 0 1-.457-1.09 5 5 0 0 1-.152-1.195q0-.621.152-1.278.153-.667.469-1.207.317-.55.809-.89.492-.352 1.172-.352.655 0 1.113.363.468.352.75.891.28.528.398 1.16.118.633.082 1.195a6.4 6.4 0 0 1-.199 1.254 4 4 0 0 1-.457 1.137q-.305.505-.773.82-.47.317-1.114.317m.118-5.297q-.177 0-.317.188-.129.187-.222.456-.083.27-.129.575a3 3 0 0 0-.047.515q0 .282.047.61.058.327.152.61.094.268.223.456.14.176.316.176.188 0 .316-.176.14-.175.223-.445t.117-.586q.036-.328.035-.61a3.7 3.7 0 0 0-.187-1.148 1.3 1.3 0 0 0-.223-.445q-.129-.176-.304-.176m1.324-3.797a.54.54 0 0 1-.07.258 1.2 1.2 0 0 1-.176.223 2 2 0 0 1-.211.199 7 7 0 0 0-.211.152l-.188.14a2 2 0 0 1-.211.141q-.105.06-.222.106a.5.5 0 0 1-.211.047.3.3 0 0 1-.164-.047.2.2 0 0 1-.071-.164q0-.176.129-.422a3 3 0 0 1 .34-.492q.2-.246.422-.41.223-.176.41-.176.165 0 .293.14a.4.4 0 0 1 .141.305m5.765 4.371a.8.8 0 0 1-.281-.023l-.445-.176a.46.46 0 0 0-.234-.035.86.86 0 0 0-.422.129 1.6 1.6 0 0 0-.328.293 2 2 0 0 0-.247.398q-.105.21-.164.422a3 3 0 0 0-.058.434q-.012.28-.012.609-.012.34-.012.645 0 .304-.023.48a4 4 0 0 1-.059.445q-.047.246-.152.469a1.1 1.1 0 0 1-.258.375.6.6 0 0 1-.422.152.56.56 0 0 1-.351-.117 1.1 1.1 0 0 1-.246-.305 2.7 2.7 0 0 1-.164-.457 5 5 0 0 1-.094-.527 13 13 0 0 1-.059-.562l-.023-.528v-.468q.012-.211.011-.34a14 14 0 0 0-.046-.82 15 15 0 0 1-.024-.833q0-.258.024-.574.022-.316.129-.586.105-.281.304-.469.211-.187.574-.187.2 0 .34.129a.9.9 0 0 1 .223.316q.093.188.141.399.046.211.058.386a2.9 2.9 0 0 1 .633-.738q.351-.292.914-.316.281-.012.551.058.28.06.504.211.234.141.375.375.152.235.164.551.023.375-.223.574a.97.97 0 0 1-.598.211m2.93-3.797q0 .165-.094.293a.9.9 0 0 1-.222.235 1.4 1.4 0 0 1-.305.152 1.1 1.1 0 0 1-.305.047.7.7 0 0 1-.41-.117q-.176-.117-.176-.364 0-.175.082-.304a.8.8 0 0 1 .223-.223 1 1 0 0 1 .293-.14 1.2 1.2 0 0 1 .316-.047q.224 0 .411.105t.187.363m.094 3.985v.351q0 .175-.012.34a10 10 0 0 0-.012.54q0 .327-.023.714-.024.387-.082.785a3.3 3.3 0 0 1-.164.727 1.5 1.5 0 0 1-.316.539.67.67 0 0 1-.481.21.44.44 0 0 1-.375-.175 1.6 1.6 0 0 1-.258-.48 4 4 0 0 1-.14-.669q-.048-.375-.071-.714a10 10 0 0 1-.023-.645v-.961q0-.351.023-.75.024-.398.082-.808a5 5 0 0 1 .188-.75q.129-.34.328-.551a.66.66 0 0 1 .504-.211q.317 0 .48.316.165.316.246.739.082.42.094.843.012.41.012.61m3.058 4.535a1.75 1.75 0 0 1-1.042-.317 2.8 2.8 0 0 1-.75-.808 3.9 3.9 0 0 1-.458-1.09 5 5 0 0 1-.152-1.195q0-.621.152-1.278.153-.667.469-1.207.317-.55.809-.89.492-.352 1.172-.352.656 0 1.113.363.468.352.75.891.28.528.398 1.16.118.633.082 1.195a6.4 6.4 0 0 1-.199 1.254 4 4 0 0 1-.457 1.137q-.305.505-.773.82-.47.317-1.114.317m.118-5.297q-.176 0-.317.188-.129.187-.222.456-.083.27-.129.575a3 3 0 0 0-.047.515q0 .282.047.61a4.4 4.4 0 0 0 .152.61q.094.268.223.456.14.176.316.176.188 0 .317-.176a1.3 1.3 0 0 0 .222-.445q.083-.27.117-.586.036-.328.036-.61 0-.257-.047-.562a3 3 0 0 0-.141-.586 1.3 1.3 0 0 0-.223-.445q-.129-.176-.304-.176m10.757 2.871a1.4 1.4 0 0 1-.257.785q-.246.375-.633.68-.375.292-.809.48a2.1 2.1 0 0 1-.797.176 2.07 2.07 0 0 1-1.113-.305 2.9 2.9 0 0 1-.808-.796 3.9 3.9 0 0 1-.504-1.055q-.165-.586-.164-1.137 0-.585.164-1.254.163-.668.492-1.23.34-.563.844-.938.515-.375 1.218-.375.399 0 .762.14a1.85 1.85 0 0 1 1.066.962q.165.339.164.762 0 .55-.234 1.03-.234.482-.621.833a3.3 3.3 0 0 1-.891.574q-.504.21-1.031.235.047.339.27.492.234.152.55.152.235 0 .457-.117t.434-.258q.211-.152.41-.27a.86.86 0 0 1 .422-.117q.234 0 .422.153a.49.49 0 0 1 .187.398m-1.898-2.871a.7.7 0 0 0-.082-.316.27.27 0 0 0-.258-.165.67.67 0 0 0-.433.141q-.177.13-.293.34a2 2 0 0 0-.188.434 2.4 2.4 0 0 0-.07.433q.163-.035.387-.094.234-.059.433-.152.211-.105.352-.258a.5.5 0 0 0 .152-.363M36.856 36.82q0 .165-.094.293a.9.9 0 0 1-.223.235 1.4 1.4 0 0 1-.305.152q-.163.047-.304.047a.7.7 0 0 1-.41-.117q-.177-.118-.176-.364 0-.175.082-.304a.8.8 0 0 1 .222-.223.9.9 0 0 1 .293-.14q.165-.047.317-.047.222 0 .41.105t.188.363m.093 3.985v.351q0 .175-.011.34a10 10 0 0 0-.012.54q0 .327-.024.714-.023.387-.082.785a3.3 3.3 0 0 1-.164.727 1.5 1.5 0 0 1-.316.539.67.67 0 0 1-.48.21.43.43 0 0 1-.376-.175 1.6 1.6 0 0 1-.257-.48 4 4 0 0 1-.141-.669q-.047-.375-.07-.714a10 10 0 0 1-.024-.645v-.961q0-.351.024-.75a10 10 0 0 1 .082-.808q.07-.411.187-.75.13-.34.328-.551.2-.21.504-.211.317 0 .48.316.165.316.247.739.082.42.093.843.012.41.012.61m7.946.328v.61q0 .375-.024.82a9 9 0 0 1-.07.902q-.06.445-.188.808-.118.364-.304.598a.59.59 0 0 1-.48.234.45.45 0 0 1-.4-.21 1.7 1.7 0 0 1-.187-.516 4 4 0 0 1-.07-.598v-.48q0-.528.035-1.032t.035-1.03v-.212q0-.152-.023-.304a.9.9 0 0 0-.082-.27q-.047-.117-.153-.117-.21 0-.34.223-.128.21-.21.504-.082.293-.118.585-.035.282-.047.422a7 7 0 0 0-.046.457 12 12 0 0 1-.047.668 7 7 0 0 1-.094.75q-.059.374-.164.692a1.6 1.6 0 0 1-.246.504.46.46 0 0 1-.375.199.48.48 0 0 1-.434-.246 1.8 1.8 0 0 1-.222-.575 5 5 0 0 1-.094-.667 16 16 0 0 1-.012-.528v-.386q.012-.188.012-.387v-.27q0-.187-.012-.41 0-.234-.023-.48a4 4 0 0 0-.047-.446 1.1 1.1 0 0 0-.106-.34q-.07-.128-.164-.128-.152 0-.28.199-.13.187-.224.457a4 4 0 0 0-.152.515 2.4 2.4 0 0 0-.047.375v.07q0 .564.07 1.102.07.54.07 1.102 0 .328-.21.61a.7.7 0 0 1-.586.269.57.57 0 0 1-.445-.2 1.8 1.8 0 0 1-.293-.538 4.5 4.5 0 0 1-.188-.715 9 9 0 0 1-.082-.774 32 32 0 0 1-.035-.691v-.469q0-.175-.012-.516 0-.339.012-.738.024-.398.07-.808.047-.423.153-.762.105-.34.27-.55a.54.54 0 0 1 .444-.224.72.72 0 0 1 .493.164q.2.165.199.493a1 1 0 0 1-.012.14 1 1 0 0 1-.012.13q.13-.188.317-.376.188-.2.398-.351a2 2 0 0 1 .469-.258q.246-.106.492-.106.235 0 .422.13.187.128.328.327.14.188.235.41.093.224.129.422a3 3 0 0 1 .28-.422q.177-.222.376-.386.2-.165.433-.27.246-.105.504-.105.246 0 .422.176t.305.457q.129.27.199.62.07.34.117.68.047.33.059.621.012.282.011.446m2.707-4.313q0 .165-.094.293a.9.9 0 0 1-.223.235 1.4 1.4 0 0 1-.304.152q-.165.047-.305.047a.7.7 0 0 1-.41-.117q-.177-.118-.176-.364 0-.175.082-.304a.8.8 0 0 1 .223-.223.9.9 0 0 1 .292-.14q.164-.047.317-.047.222 0 .41.105t.188.363m.093 3.985v.351q0 .175-.011.34a10 10 0 0 0-.012.54q0 .327-.024.714-.023.387-.082.785a3.3 3.3 0 0 1-.164.727 1.5 1.5 0 0 1-.316.539.67.67 0 0 1-.48.21.43.43 0 0 1-.376-.175 1.6 1.6 0 0 1-.257-.48 4 4 0 0 1-.141-.669q-.047-.375-.07-.714a10 10 0 0 1-.024-.645v-.961q0-.351.024-.75a10 10 0 0 1 .082-.808q.071-.411.187-.75.13-.34.328-.551.2-.21.504-.211.316 0 .48.316.165.316.247.739.082.42.094.843.01.41.011.61m3.563 4.617q-.833 0-1.301-.223a1.5 1.5 0 0 1-.691-.61 2.35 2.35 0 0 1-.27-.96 17 17 0 0 1-.012-2.355q.036-.564.106-1.196a2 2 0 0 0-.258.012h-.152q-.375 0-.645-.164a.54.54 0 0 1-.281-.504q0-.21.164-.375.153-.164.398-.281t.528-.188q.293-.07.55-.094 0-.327.047-.726t.164-.739q.13-.352.34-.585a.7.7 0 0 1 .54-.235q.187 0 .328.117.151.105.246.282.093.163.14.375.047.21.047.41 0 .234-.035.48a6 6 0 0 1-.129.61q.2-.024.27-.024a1 1 0 0 1 .129-.011q.198 0 .41.035.221.035.398.117a.8.8 0 0 1 .305.222.45.45 0 0 1 .117.317q0 .21-.176.375-.165.165-.422.281a3 3 0 0 1-.55.188 5 5 0 0 1-.551.082q-.07.48-.106.89-.023.398-.058.809-.024.2-.047.41a7 7 0 0 0 0 .773q.012.2.082.387a.85.85 0 0 0 .222.328q.153.13.422.13.165 0 .34-.024.176-.035.352-.035.304 0 .433.21.141.21.141.54 0 .246-.152.433a1 1 0 0 1-.364.282 2 2 0 0 1-.504.175 2.4 2.4 0 0 1-.515.059m6.75-2.074q0 .21-.024.55a3.2 3.2 0 0 1-.093.668 1.6 1.6 0 0 1-.258.551.58.58 0 0 1-.492.235q-.434 0-.668-.282t-.223-.703q-.375.328-.855.516a2.6 2.6 0 0 1-.961.187 1.34 1.34 0 0 1-.645-.164 2 2 0 0 1-.539-.422 2.2 2.2 0 0 1-.375-.574 1.6 1.6 0 0 1-.14-.644q0-.562.34-.985.351-.422.855-.715a5 5 0 0 1 1.066-.48 6.4 6.4 0 0 1 1.02-.234v-.106a.4.4 0 0 0 .011-.105q0-.364-.199-.586-.2-.223-.562-.223-.294 0-.504.105-.21.094-.399.223-.188.118-.375.223a.9.9 0 0 1-.422.094.65.65 0 0 1-.445-.164.55.55 0 0 1-.176-.422q0-.388.223-.703.234-.317.574-.528a3 3 0 0 1 .75-.34q.411-.129.75-.129.316 0 .633.082.316.07.598.235.28.152.504.386.233.224.375.528.21.434.34.926.128.48.199.996.07.503.093 1.02.024.502.024.984m-1.875-.375-.035-.797h-.047a.1.1 0 0 0-.047-.012q-.152 0-.387.082a1.7 1.7 0 0 0-.433.211q-.211.13-.364.293a.52.52 0 0 0-.14.34q0 .164.117.222.117.06.27.06.257 0 .55-.13a8 8 0 0 0 .516-.27m9.691-1.84v.61q0 .375-.023.82a9 9 0 0 1-.07.902q-.06.445-.188.808-.117.364-.305.598a.59.59 0 0 1-.48.234.45.45 0 0 1-.399-.21 1.7 1.7 0 0 1-.187-.516 4 4 0 0 1-.07-.598v-.48q0-.528.035-1.032t.035-1.03v-.212a2 2 0 0 0-.024-.304.9.9 0 0 0-.082-.27q-.046-.117-.152-.117-.21 0-.34.223-.129.21-.21.504-.082.293-.118.585-.035.282-.047.422a7 7 0 0 0-.047.457q-.012.305-.047.668a7 7 0 0 1-.093.75q-.06.374-.164.692a1.6 1.6 0 0 1-.246.504.46.46 0 0 1-.375.199.48.48 0 0 1-.434-.246 1.8 1.8 0 0 1-.223-.575 5 5 0 0 1-.093-.667 16 16 0 0 1-.012-.528v-.386q.012-.188.012-.387v-.27q0-.187-.012-.41 0-.234-.024-.48a4 4 0 0 0-.047-.446 1.1 1.1 0 0 0-.105-.34q-.07-.128-.164-.128-.152 0-.281.199-.129.187-.223.457a4 4 0 0 0-.152.515 2.4 2.4 0 0 0-.047.375v.07q0 .564.07 1.102.07.54.07 1.102 0 .328-.21.61a.7.7 0 0 1-.586.269.57.57 0 0 1-.446-.2 1.8 1.8 0 0 1-.293-.538 4.5 4.5 0 0 1-.187-.715 9 9 0 0 1-.082-.774 32 32 0 0 1-.035-.691v-.469q0-.175-.012-.516 0-.339.012-.738.023-.398.07-.808.047-.423.152-.762.105-.34.27-.55a.54.54 0 0 1 .445-.224.72.72 0 0 1 .492.164q.2.165.2.493a1 1 0 0 1-.012.14 1 1 0 0 1-.012.13q.129-.188.316-.376.188-.2.399-.351a2 2 0 0 1 .469-.258q.246-.106.492-.106.234 0 .422.13.187.128.328.327.141.188.234.41.094.224.13.422a3 3 0 0 1 .28-.422q.177-.222.375-.386.2-.165.434-.27.246-.105.504-.105.246 0 .422.176t.305.457q.128.27.199.62.07.34.117.68.046.33.058.621.012.282.012.446m3 4.207q-.597 0-1.043-.317a2.8 2.8 0 0 1-.75-.808 3.9 3.9 0 0 1-.457-1.09 5 5 0 0 1-.152-1.195q0-.621.152-1.278.153-.667.469-1.207.315-.55.809-.89.492-.352 1.171-.352.657 0 1.114.363a2.6 2.6 0 0 1 .75.891q.28.528.398 1.16.118.633.082 1.196a6.4 6.4 0 0 1-.199 1.253q-.153.633-.457 1.137-.305.505-.773.82-.47.317-1.114.317m.117-5.297q-.175 0-.316.188-.129.187-.223.456-.081.27-.129.575a3.3 3.3 0 0 0 0 1.125q.06.328.153.61.093.269.222.456.141.176.317.176.187 0 .316-.176a1.3 1.3 0 0 0 .223-.445q.083-.27.117-.586.035-.328.035-.61 0-.257-.047-.562a3 3 0 0 0-.14-.586 1.3 1.3 0 0 0-.223-.445q-.129-.176-.305-.176m6.457-1.488q0 .339-.234.504-.222.163-.504.316-.281.14-.516.34-.222.2-.222.597 0 .211.094.364.105.152.246.281.151.117.328.246.175.13.316.293.153.164.246.398.105.235.106.575 0 .492-.258.972a3.2 3.2 0 0 1-1.523 1.43 2.35 2.35 0 0 1-.973.223q-.2 0-.398-.035a1.1 1.1 0 0 1-.364-.106.8.8 0 0 1-.258-.223.66.66 0 0 1-.105-.386q0-.328.129-.504a.9.9 0 0 1 .328-.293q.199-.105.422-.164.234-.06.433-.14.2-.094.328-.235.13-.141.13-.399 0-.246-.2-.504-.187-.27-.422-.562a6 6 0 0 1-.433-.645 1.5 1.5 0 0 1-.188-.75q0-.504.2-.925.21-.435.55-.75.352-.317.797-.492.446-.188.938-.188.188 0 .363.035a.9.9 0 0 1 .328.129.6.6 0 0 1 .223.234.64.64 0 0 1 .093.364m8.274 4.793q0 .21-.024.55-.011.34-.093.668a1.6 1.6 0 0 1-.258.551.58.58 0 0 1-.492.235q-.435 0-.668-.282a1 1 0 0 1-.223-.703q-.375.328-.855.516a2.6 2.6 0 0 1-.961.187 1.34 1.34 0 0 1-.645-.164 2 2 0 0 1-.539-.422 2.1 2.1 0 0 1-.375-.574 1.6 1.6 0 0 1-.14-.644q0-.562.34-.985.351-.422.855-.715a5 5 0 0 1 1.066-.48 6.4 6.4 0 0 1 1.02-.234v-.106a.4.4 0 0 0 .011-.105q0-.364-.199-.586-.2-.223-.562-.223-.294 0-.504.105-.21.094-.399.223-.187.118-.375.223a.9.9 0 0 1-.421.094.65.65 0 0 1-.446-.164.55.55 0 0 1-.176-.422q0-.388.223-.703a2.1 2.1 0 0 1 .574-.528 3 3 0 0 1 .75-.34q.411-.129.75-.129.317 0 .633.082.316.07.598.235.28.152.504.386.233.224.375.528.21.434.34.926.128.48.199.996.07.503.093 1.02.024.502.024.984m-1.875-.375-.035-.797h-.047a.1.1 0 0 0-.047-.012q-.152 0-.387.082a1.7 1.7 0 0 0-.433.211q-.211.13-.364.293a.52.52 0 0 0-.14.34q0 .164.117.222.117.06.27.06.257 0 .55-.13.293-.14.516-.27m7.336-6.153q0 .165-.094.293a.9.9 0 0 1-.223.235 1.4 1.4 0 0 1-.304.152q-.165.047-.305.047a.7.7 0 0 1-.41-.117q-.176-.118-.176-.364 0-.175.082-.304a.8.8 0 0 1 .223-.223.9.9 0 0 1 .293-.14q.165-.047.316-.047.223 0 .41.105.188.105.188.363m.094 3.985v.351q0 .175-.012.34a10 10 0 0 0-.012.54q0 .327-.023.714-.024.387-.082.785a3.3 3.3 0 0 1-.164.727 1.5 1.5 0 0 1-.317.539.67.67 0 0 1-.48.21.43.43 0 0 1-.375-.175 1.6 1.6 0 0 1-.258-.48 4 4 0 0 1-.14-.669 13 13 0 0 1-.071-.714 10 10 0 0 1-.024-.645v-.961q0-.351.024-.75a10 10 0 0 1 .082-.808q.07-.411.188-.75.128-.34.328-.551.198-.21.503-.211.318 0 .481.316.164.316.246.739.082.42.094.843.012.41.012.61m4.16 4.523q-.2 0-.317-.187a1.3 1.3 0 0 1-.175-.41 3 3 0 0 1-.082-.47 7 7 0 0 1 .023-1.078l.094-.703q.059-.35.093-.703.047-.35.047-.703 0-.14-.011-.304a1.2 1.2 0 0 0-.059-.305.5.5 0 0 0-.129-.246.33.33 0 0 0-.246-.094q-.105 0-.234.176-.129.164-.247.386-.105.212-.187.434-.07.21-.07.316v.528q.01.257.011.527v.68q-.011.21-.035.434a4 4 0 0 1-.07.433q-.036.21-.106.41-.07.188-.187.34a.9.9 0 0 1-.258.234.7.7 0 0 1-.363.094.52.52 0 0 1-.387-.152 1.1 1.1 0 0 1-.246-.387 2.7 2.7 0 0 1-.14-.539 18 18 0 0 1-.06-.586 13 13 0 0 1-.01-.527 9 9 0 0 0 .01-.387v-.55q0-.446-.023-.88-.01-.434-.011-.867v-.597q.011-.364.094-.704.081-.351.269-.597t.55-.246a.45.45 0 0 1 .294.105q.129.105.222.258.105.152.165.328.07.176.105.305.117-.165.27-.317.163-.151.363-.27a1.9 1.9 0 0 1 1.008-.257q.597 0 .925.293.34.282.492.715.165.422.2.914t.035.89q0 .2-.035.598-.036.387-.117.867a10 10 0 0 1-.2.973 6.4 6.4 0 0 1-.304.902 2.2 2.2 0 0 1-.422.668.71.71 0 0 1-.54.258m5.707-6.773q0 .339-.235.504-.222.163-.503.316-.282.14-.516.34-.223.2-.223.597 0 .211.094.364.105.152.246.281.153.117.328.246.176.13.317.293.151.164.246.398.105.235.105.575 0 .492-.258.972a3.2 3.2 0 0 1-1.523 1.43 2.35 2.35 0 0 1-.973.223q-.199 0-.398-.035a1.1 1.1 0 0 1-.364-.106.8.8 0 0 1-.257-.223.66.66 0 0 1-.106-.386q0-.328.13-.504a.9.9 0 0 1 .327-.293q.2-.105.422-.164.233-.06.434-.14.199-.094.328-.235t.129-.399q0-.246-.2-.504-.187-.27-.421-.562a6 6 0 0 1-.434-.645 1.5 1.5 0 0 1-.187-.75q0-.504.199-.925.21-.435.55-.75.352-.317.797-.492.446-.188.938-.188.188 0 .363.035a.9.9 0 0 1 .328.129.6.6 0 0 1 .223.234.64.64 0 0 1 .094.364m5.601 3.093q0 .645-.129 1.278-.129.632-.433 1.136a2.36 2.36 0 0 1-.821.797q-.503.305-1.265.305-.75 0-1.254-.293a2.4 2.4 0 0 1-.809-.797 3.6 3.6 0 0 1-.421-1.113 7 7 0 0 1-.118-1.266q0-.702.164-1.394a4.8 4.8 0 0 1 .387-1.172 2.8 2.8 0 0 1 .363-.563q.211-.234.457-.234.235 0 .375.129a.9.9 0 0 1 .223.328q.082.188.106.41.023.21.023.387 0 .27-.047.527-.035.258-.082.516l-.094.703a7 7 0 0 0-.023 1.102 1.8 1.8 0 0 0 .094.41 1 1 0 0 0 .199.34.5.5 0 0 0 .363.129q.304 0 .481-.165a.9.9 0 0 0 .269-.41q.095-.246.117-.527a6 6 0 0 0 .024-.516 7 7 0 0 0-.071-1.008 45 45 0 0 1-.128-1.019 1.1 1.1 0 0 1 .046-.516q.059-.175.164-.316a.8.8 0 0 1 .258-.223.64.64 0 0 1 .34-.093q.258 0 .457.187.2.175.328.469.14.28.223.644.093.353.141.703.058.34.07.645.024.304.023.48m2.907-3.75q0 .633-.059 1.278-.047.632-.047 1.277 0 .833.047 1.664.059.833.059 1.676 0 .21-.024.48a1.6 1.6 0 0 1-.117.48.9.9 0 0 1-.258.376q-.175.153-.469.152-.28 0-.492-.281a2.5 2.5 0 0 1-.34-.691q-.129-.435-.222-.961a17 17 0 0 1-.129-1.02q-.035-.503-.059-.914a24 24 0 0 1-.012-.621q0-.222.012-.645a15 15 0 0 1 .235-1.91q.105-.515.269-.925.163-.422.387-.68a.71.71 0 0 1 .551-.27q.257 0 .386.176.14.165.2.41.058.235.07.504.012.258.012.445m2.824-1.078q0 .165-.094.293a.9.9 0 0 1-.223.235 1.4 1.4 0 0 1-.304.152 1.1 1.1 0 0 1-.305.047.7.7 0 0 1-.41-.117q-.176-.118-.176-.364 0-.175.082-.304a.8.8 0 0 1 .223-.223.9.9 0 0 1 .293-.14 1.2 1.2 0 0 1 .316-.047.8.8 0 0 1 .41.105q.188.105.188.363m.094 3.985v.351q0 .175-.012.34a10 10 0 0 0-.012.54q0 .327-.023.714-.024.387-.082.785a3.4 3.4 0 0 1-.164.727 1.5 1.5 0 0 1-.317.539.67.67 0 0 1-.48.21.43.43 0 0 1-.375-.175 1.6 1.6 0 0 1-.258-.48 4 4 0 0 1-.141-.669q-.046-.375-.07-.714a10 10 0 0 1-.024-.645v-.961q0-.351.024-.75.024-.398.082-.808.07-.411.187-.75.13-.34.329-.551.198-.21.504-.211.316 0 .48.316t.246.739q.082.42.094.843.012.41.012.61m4.16 4.523q-.2 0-.317-.187a1.3 1.3 0 0 1-.175-.41 3 3 0 0 1-.083-.47 7 7 0 0 1 .024-1.078l.094-.703q.058-.35.093-.703a5 5 0 0 0 .036-1.008 1.3 1.3 0 0 0-.059-.304.5.5 0 0 0-.129-.246.33.33 0 0 0-.246-.094q-.105 0-.234.176-.129.164-.246.386a4 4 0 0 0-.188.434q-.07.21-.07.316v.528q.011.257.011.527v.68q-.01.21-.035.434a4 4 0 0 1-.07.433q-.036.21-.106.41a1.3 1.3 0 0 1-.187.34.9.9 0 0 1-.258.234.7.7 0 0 1-.363.094.53.53 0 0 1-.387-.152 1.2 1.2 0 0 1-.246-.387 3 3 0 0 1-.141-.539 18 18 0 0 1-.058-.586 13 13 0 0 1-.012-.527q.012-.246.012-.387v-.55q0-.446-.024-.88-.01-.434-.011-.867v-.597q.011-.364.093-.704a1.6 1.6 0 0 1 .27-.597q.188-.246.551-.246.164 0 .293.105t.222.258q.106.152.164.328.07.176.106.305a2.6 2.6 0 0 1 .269-.317 2 2 0 0 1 .364-.27 1.9 1.9 0 0 1 1.008-.257q.597 0 .925.293.34.282.492.715.164.422.2.914.035.492.035.89 0 .2-.035.598-.036.387-.117.867a10 10 0 0 1-.2.973 6.5 6.5 0 0 1-.304.902 2.2 2.2 0 0 1-.422.668q-.235.258-.539.258m7.254-1.98q0 .21-.024.55-.012.34-.094.668a1.6 1.6 0 0 1-.257.551.58.58 0 0 1-.493.235q-.433 0-.668-.282-.234-.281-.222-.703a2.9 2.9 0 0 1-.856.516 2.6 2.6 0 0 1-.961.187q-.34 0-.644-.164a2 2 0 0 1-.539-.422 2.2 2.2 0 0 1-.375-.574 1.6 1.6 0 0 1-.141-.644q0-.562.34-.985.352-.422.855-.715a5 5 0 0 1 1.067-.48 6.4 6.4 0 0 1 1.019-.234v-.106a.4.4 0 0 0 .012-.105q0-.364-.199-.586-.199-.223-.563-.223a1.1 1.1 0 0 0-.503.105 2.5 2.5 0 0 0-.399.223q-.187.118-.375.223a.9.9 0 0 1-.422.094.65.65 0 0 1-.445-.164.55.55 0 0 1-.176-.422q0-.388.223-.703.234-.317.574-.528.351-.223.75-.34.41-.129.75-.129.316 0 .633.082.317.07.597.235a2 2 0 0 1 .504.386q.236.224.375.528.211.434.34.926.13.48.199.996.071.503.094 1.02.024.502.024.984m-1.875-.375-.036-.797h-.046a.1.1 0 0 0-.047-.012q-.153 0-.387.082a1.7 1.7 0 0 0-.434.211 1.7 1.7 0 0 0-.363.293.52.52 0 0 0-.141.34q0 .164.118.222.117.06.269.06.258 0 .551-.13a8 8 0 0 0 .516-.27m10.453-5.684q0 .855-.071 1.7a25 25 0 0 0-.058 1.699q0 .69.035 1.37.047.68.047 1.372 0 .187-.012.457-.012.258-.082.504a1 1 0 0 1-.211.422q-.14.175-.41.175a.76.76 0 0 1-.586-.258 1.3 1.3 0 0 1-.281-.597q-.223.422-.645.715a1.57 1.57 0 0 1-.914.293q-.527 0-.914-.364a3.2 3.2 0 0 1-.633-.879 5.2 5.2 0 0 1-.375-1.078 5 5 0 0 1-.117-.972q0-.293.035-.668t.118-.762q.093-.387.234-.75a3 3 0 0 1 .351-.668q.224-.293.516-.469a1.36 1.36 0 0 1 .691-.175q.422 0 .809.246t.586.609l.105-1.863q.012-.223.036-.516.023-.305.093-.574.083-.27.246-.457.165-.188.481-.188.34 0 .527.164a.9.9 0 0 1 .27.422q.093.246.105.54.024.292.024.55m-1.91 5.203q0-.27-.012-.527a6 6 0 0 1 0-.528 7 7 0 0 0-.164-.328 1.5 1.5 0 0 0-.235-.34q-.129-.164-.293-.269a.64.64 0 0 0-.351-.105.46.46 0 0 0-.34.128.76.76 0 0 0-.187.317 1.8 1.8 0 0 0-.082.387q-.012.21-.012.363 0 .14.023.422.024.27.082.55.07.282.188.493.117.21.316.21.153 0 .305-.058.152-.07.281-.164.141-.106.258-.223a6 6 0 0 0 .223-.234zm4.91 2.848q-.598 0-1.043-.317a2.8 2.8 0 0 1-.75-.808 3.9 3.9 0 0 1-.457-1.09 5 5 0 0 1-.153-1.195q0-.621.153-1.278.152-.667.468-1.207.317-.55.809-.89.492-.352 1.172-.352.656 0 1.113.363.47.352.75.891.282.528.399 1.16.117.633.082 1.196-.036.62-.2 1.253-.151.633-.457 1.137-.304.505-.773.82-.47.317-1.113.317m.117-5.297q-.176 0-.317.188-.128.187-.222.456-.083.27-.129.575a3.4 3.4 0 0 0-.047.515q0 .282.047.61a4.4 4.4 0 0 0 .152.61q.094.269.223.456.14.176.316.176.188 0 .317-.176.14-.176.222-.445.082-.27.118-.586.035-.328.035-.61 0-.257-.047-.562a3 3 0 0 0-.141-.586 1.3 1.3 0 0 0-.222-.445q-.13-.176-.305-.176m11.215 1.465q0 .516-.117 1.136a4 4 0 0 1-.375 1.137 2.6 2.6 0 0 1-.692.88q-.422.35-1.066.35-.165 0-.34-.023a1.7 1.7 0 0 1-.34-.082 1.2 1.2 0 0 1-.281-.152.7.7 0 0 1-.199-.27l-.106 1.688q-.012.27-.023.644 0 .376-.094.715a1.3 1.3 0 0 1-.293.575q-.2.245-.586.246-.222 0-.375-.235a1.9 1.9 0 0 1-.246-.574 7 7 0 0 1-.129-.785 11 11 0 0 1-.059-.832 28 28 0 0 1-.011-.727v-.48q0-.785-.012-1.559-.012-.785-.012-1.57v-.434q0-.305.024-.656.023-.351.07-.727.059-.375.164-.68.105-.315.27-.503a.5.5 0 0 1 .398-.2q.152 0 .27.094a.65.65 0 0 1 .211.223q.093.13.152.281.058.153.094.282.363-.41.832-.622.48-.21 1.019-.21.563 0 .914.316.363.316.563.785.21.469.293 1.008.082.527.082.96m-1.676-.094q0-.175-.035-.352a1 1 0 0 0-.106-.34.57.57 0 0 0-.211-.257.57.57 0 0 0-.351-.106 1.2 1.2 0 0 0-.598.188 1.3 1.3 0 0 0-.457.41.7.7 0 0 0-.07.305q-.012.21-.012.316v.223a35 35 0 0 1 .047.539.8.8 0 0 0 .059.2q.035.105.152.198.117.083.258.153.14.07.281.105.152.035.258.035a.49.49 0 0 0 .398-.187q.153-.188.235-.446.093-.257.117-.527.035-.281.035-.457m7.371 1.934q0 .21-.023.55-.012.34-.094.668-.083.317-.258.551a.58.58 0 0 1-.492.235q-.434 0-.668-.282a1 1 0 0 1-.223-.703q-.375.328-.855.516a2.6 2.6 0 0 1-.961.187 1.34 1.34 0 0 1-.645-.164 2 2 0 0 1-.539-.422 2.2 2.2 0 0 1-.375-.574 1.6 1.6 0 0 1-.14-.644q0-.562.339-.985.352-.422.856-.715a5 5 0 0 1 1.066-.48 6.4 6.4 0 0 1 1.02-.234v-.106a.4.4 0 0 0 .012-.105q0-.364-.2-.586-.198-.223-.562-.223-.292 0-.504.105a2.5 2.5 0 0 0-.398.223q-.187.118-.375.223a.9.9 0 0 1-.422.094.66.66 0 0 1-.446-.164.55.55 0 0 1-.175-.422q0-.388.222-.703.235-.317.574-.528.352-.223.75-.34.411-.129.75-.129.316 0 .633.082.316.07.598.235.28.152.504.386.234.224.375.528.21.434.34.926.129.48.199.996.07.503.094 1.02.023.502.023.984m-1.875-.375-.035-.797h-.047a.1.1 0 0 0-.047-.012q-.151 0-.387.082a1.7 1.7 0 0 0-.433.211 1.7 1.7 0 0 0-.363.293.52.52 0 0 0-.141.34q0 .164.117.222.117.06.27.06.258 0 .55-.13.294-.14.516-.27m.715-5.696q0 .094-.035.117a.2.2 0 0 1-.117.024.9.9 0 0 1-.317-.07 3 3 0 0 1-.34-.176 9 9 0 0 1-.328-.223 5 5 0 0 1-.258-.21l-.281.222a4 4 0 0 1-.328.246q-.175.105-.352.188a.9.9 0 0 1-.328.07.3.3 0 0 1-.117-.024q-.047-.023-.047-.117 0-.175.153-.445.152-.27.375-.516.222-.246.468-.422.246-.175.434-.175.187 0 .434.175.246.165.457.399.222.234.375.492.152.258.152.445m5.191 8.051q-.199 0-.316-.187a1.3 1.3 0 0 1-.176-.41 3 3 0 0 1-.082-.47 7 7 0 0 1 .024-1.078l.093-.703q.059-.35.094-.703.047-.35.047-.703 0-.14-.012-.304a1.3 1.3 0 0 0-.058-.305.5.5 0 0 0-.129-.246.33.33 0 0 0-.246-.094q-.106 0-.235.176-.129.164-.246.386-.106.212-.187.434-.07.21-.071.316v.528q.012.257.012.527v.68q-.012.21-.035.434a4 4 0 0 1-.07.433q-.036.21-.106.41a1.3 1.3 0 0 1-.187.34 1 1 0 0 1-.258.234.7.7 0 0 1-.364.094.52.52 0 0 1-.386-.152 1.1 1.1 0 0 1-.246-.387 2.7 2.7 0 0 1-.141-.539 21 21 0 0 1-.059-.586 15 15 0 0 1-.011-.527q.012-.246.011-.387v-.55q0-.446-.023-.88a31 31 0 0 1-.012-.867v-.597q.012-.364.094-.704a1.6 1.6 0 0 1 .27-.597q.187-.246.55-.246a.45.45 0 0 1 .293.105q.129.105.223.258a1.3 1.3 0 0 1 .164.328q.07.176.106.305.117-.165.269-.317.164-.151.363-.27a1.9 1.9 0 0 1 1.008-.257q.598 0 .926.293.34.282.492.715.164.422.199.914t.036.89q0 .2-.036.598-.035.387-.117.867a10 10 0 0 1-.199.973 6.5 6.5 0 0 1-.305.902 2.2 2.2 0 0 1-.422.668.71.71 0 0 1-.539.258m6.621-4.828q0 .06-.011.129a1 1 0 0 1-.035.117q-.106.27-.329.457a.82.82 0 0 1-.527.176q-.457 0-.621-.457a.3.3 0 0 1-.023-.129q0-.083-.012-.164v-.34a.7.7 0 0 0-.082-.258q-.059-.093-.199-.093-.2 0-.387.257a3 3 0 0 0-.317.598q-.129.34-.21.703a2.8 2.8 0 0 0-.083.586q0 .176.024.434.024.246.094.48t.187.41a.4.4 0 0 0 .328.164q.2 0 .364-.117a3 3 0 0 0 .339-.293q.153-.14.329-.293a.65.65 0 0 1 .421-.152q.294 0 .457.21.177.212.176.481 0 .399-.211.75-.21.34-.527.598a2.6 2.6 0 0 1-.703.387 2 2 0 0 1-.738.152q-.633 0-1.079-.316a2.5 2.5 0 0 1-.703-.797 3.8 3.8 0 0 1-.386-1.067 5.4 5.4 0 0 1-.118-1.09q0-.597.164-1.289a4.9 4.9 0 0 1 .504-1.3 3.2 3.2 0 0 1 .868-.996q.539-.399 1.277-.399.457 0 .785.2.34.198.551.527.222.316.328.715.117.398.117.785v.117q0 .059-.012.117m4.723.117a.8.8 0 0 1-.281-.023l-.235-.094a2 2 0 0 0-.21-.082.5.5 0 0 0-.235-.035.9.9 0 0 0-.422.129 1.7 1.7 0 0 0-.328.293q-.141.176-.246.398-.105.21-.164.422a3 3 0 0 0-.059.434q-.01.28-.011.609-.012.34-.012.645t-.023.48a4 4 0 0 1-.059.445q-.047.246-.152.469a1.1 1.1 0 0 1-.258.375.6.6 0 0 1-.422.152.56.56 0 0 1-.352-.117 1.1 1.1 0 0 1-.246-.304 3 3 0 0 1-.164-.458 6 6 0 0 1-.094-.527 13 13 0 0 1-.058-.562l-.024-.528v-.468q.012-.211.012-.34a14 14 0 0 0-.047-.82 16 16 0 0 1-.023-.833q0-.258.023-.574.024-.316.129-.586.105-.281.305-.469.21-.187.574-.187.2 0 .34.129a.9.9 0 0 1 .223.316q.093.188.14.399t.059.386q.28-.456.633-.738.351-.292.914-.316.281-.012.55.058.282.06.504.211.236.141.375.375.153.235.164.551.024.375-.222.574a.98.98 0 0 1-.598.211m5.906 2.297q0 .399-.258.785-.245.375-.632.68-.375.292-.809.48a2.1 2.1 0 0 1-.797.176 2.07 2.07 0 0 1-1.113-.304 2.9 2.9 0 0 1-.809-.797 3.9 3.9 0 0 1-.504-1.055 4.2 4.2 0 0 1-.164-1.137q0-.585.164-1.254.165-.667.493-1.23.339-.563.843-.938.516-.375 1.219-.375.399 0 .762.14a1.85 1.85 0 0 1 1.066.962q.165.339.164.762 0 .55-.234 1.03-.234.482-.621.833a3.3 3.3 0 0 1-.891.574q-.504.21-1.031.234.047.34.27.493a1 1 0 0 0 .55.152q.235 0 .457-.117t.434-.258q.211-.152.41-.27a.86.86 0 0 1 .422-.117q.234 0 .422.153a.49.49 0 0 1 .187.398m-1.898-2.871a.7.7 0 0 0-.082-.316.27.27 0 0 0-.258-.164.68.68 0 0 0-.434.14q-.175.13-.293.34-.117.199-.187.434-.059.234-.07.433.164-.034.386-.094.235-.059.434-.152.211-.105.352-.258a.5.5 0 0 0 .152-.363m7.348 3.305q0 .21-.024.55-.012.34-.094.668a1.6 1.6 0 0 1-.257.551.58.58 0 0 1-.493.235q-.433 0-.668-.282-.234-.281-.222-.703a2.9 2.9 0 0 1-.856.516 2.6 2.6 0 0 1-.961.187q-.34 0-.644-.164a2.1 2.1 0 0 1-.914-.996 1.6 1.6 0 0 1-.141-.644q0-.562.34-.985.351-.422.855-.715a5 5 0 0 1 1.067-.48 6.4 6.4 0 0 1 1.019-.234v-.106a.4.4 0 0 0 .012-.105q0-.364-.199-.586-.199-.223-.563-.223-.293 0-.504.105-.21.094-.398.223-.187.118-.375.223a.9.9 0 0 1-.422.094.65.65 0 0 1-.445-.164.55.55 0 0 1-.176-.422q0-.388.223-.703.234-.317.574-.528.351-.223.75-.34.41-.129.75-.129.316 0 .633.082.317.07.597.235a2 2 0 0 1 .504.386q.236.224.375.528.211.434.34.926.129.48.199.996.07.503.094 1.02.024.502.024.984m-1.875-.375-.036-.797h-.047a.1.1 0 0 0-.046-.012q-.153 0-.387.082a1.7 1.7 0 0 0-.434.211 1.7 1.7 0 0 0-.363.293.52.52 0 0 0-.141.34q0 .164.118.222.117.06.269.06.258 0 .551-.13a8 8 0 0 0 .516-.27m6.011-4.418q0 .339-.234.504-.224.163-.504.316a2.6 2.6 0 0 0-.516.34q-.222.2-.222.597 0 .211.093.364.106.152.247.281.151.117.328.246.175.13.316.293.153.164.246.398.106.235.106.575 0 .492-.258.972a3.2 3.2 0 0 1-1.524 1.43 2.35 2.35 0 0 1-.972.223q-.2 0-.399-.035a1.1 1.1 0 0 1-.363-.106.8.8 0 0 1-.258-.223.67.67 0 0 1-.105-.386q0-.328.129-.504a.9.9 0 0 1 .328-.293q.199-.105.422-.164.234-.06.433-.14.2-.094.328-.235.129-.141.129-.399 0-.246-.199-.504a11 11 0 0 0-.422-.562 6 6 0 0 1-.433-.645 1.5 1.5 0 0 1-.188-.75q0-.504.199-.925.212-.435.551-.75.351-.317.797-.492a2.4 2.4 0 0 1 .937-.188q.188 0 .364.035a.9.9 0 0 1 .328.129.6.6 0 0 1 .222.234.64.64 0 0 1 .094.364m2.66 1.535q0 .188-.023.515-.024.317-.07.692a7 7 0 0 1-.141.75q-.082.375-.199.691a1.8 1.8 0 0 1-.281.504.49.49 0 0 1-.375.188q-.258 0-.446-.246a2.6 2.6 0 0 1-.304-.645 6 6 0 0 1-.188-.879q-.07-.48-.105-.937a19 19 0 0 1-.047-.856v-1.136q0-.33.023-.692.036-.363.094-.715.07-.362.199-.656.129-.293.34-.469a.76.76 0 0 1 .527-.187q.282 0 .457.246.188.234.293.62.117.375.164.845.059.468.071.925.023.446.011.832zm-.222 4.453q0 .2-.094.352a.8.8 0 0 1-.246.234q-.153.105-.328.152a1.4 1.4 0 0 1-.352.047.94.94 0 0 1-.492-.14q-.234-.13-.234-.422a.56.56 0 0 1 .093-.317q.107-.151.258-.258.153-.105.328-.164.188-.058.352-.058a.9.9 0 0 1 .492.14q.223.128.223.434M47.373 59.266q0 .234-.047.562-.035.328-.152.633a1.6 1.6 0 0 1-.317.504.7.7 0 0 1-.527.2q-.434 0-.656-.317a2.2 2.2 0 0 1-.305-.75 6 6 0 0 1-.117-.903 44 44 0 0 0-.024-.726 45 45 0 0 1-1.663.246q-.024.27-.106.668a3.4 3.4 0 0 1-.234.773 2.1 2.1 0 0 1-.41.633.8.8 0 0 1-.61.27.55.55 0 0 1-.445-.2 1.6 1.6 0 0 1-.235-.492 3 3 0 0 1-.105-.574 14 14 0 0 1-.012-.504q0-.668.106-1.312a24 24 0 0 1 .433-2.098q.117-.457.281-.938.176-.492.399-.96.234-.48.527-.856.294-.375.668-.61.376-.234.832-.234.445 0 .774.2.328.198.574.527t.41.75q.165.41.27.844.117.42.187.832.083.41.14.726.153.762.259 1.547.105.773.105 1.559m-2.262-2.848q0-.14-.023-.457a4.4 4.4 0 0 0-.07-.645 2 2 0 0 0-.188-.574q-.117-.258-.328-.258-.117 0-.223.164-.105.153-.187.399a5 5 0 0 0-.152.527q-.06.294-.106.563-.047.27-.07.492l-.036.305q.704-.06 1.383-.176zm5.016-3.48q0 .163-.094.304a.9.9 0 0 1-.234.223 1.4 1.4 0 0 1-.305.152q-.164.047-.304.047a.7.7 0 0 1-.41-.117q-.177-.118-.177-.363 0-.177.082-.305a.8.8 0 0 1 .223-.223q.141-.094.293-.14.165-.047.317-.047.222 0 .41.117.2.105.199.352m.223 5.085q0 .552-.035 1.23a10 10 0 0 1-.141 1.349 6.3 6.3 0 0 1-.34 1.289 2.8 2.8 0 0 1-.656 1.02q-.234.222-.551.468a6 6 0 0 1-.68.457q-.35.21-.715.34-.363.14-.691.14-.376 0-.55-.21-.189-.199-.188-.563 0-.375.199-.562.2-.188.492-.329.293-.14.645-.316.339-.164.633-.504.293-.34.492-.914.2-.585.199-1.535a29 29 0 0 0-.094-2.344l-.047-.68a10 10 0 0 1-.023-.691q0-.211.058-.445.06-.235.176-.422a.95.95 0 0 1 .293-.317.77.77 0 0 1 .446-.129.6.6 0 0 1 .48.223q.2.223.316.574.13.34.176.774.059.421.082.832.024.398.024.738zm6.082-.375q0 .645-.13 1.278-.128.632-.433 1.136a2.36 2.36 0 0 1-.82.797q-.504.305-1.266.305-.75 0-1.254-.293a2.4 2.4 0 0 1-.808-.797 3.6 3.6 0 0 1-.422-1.113 7 7 0 0 1-.117-1.266q0-.702.164-1.394a4.8 4.8 0 0 1 .387-1.172q.163-.328.363-.563.21-.234.457-.234.234 0 .375.129a.9.9 0 0 1 .222.328q.082.188.106.41.024.21.023.387 0 .27-.047.527-.034.258-.082.516l-.093.703a7 7 0 0 0-.024 1.102q.024.21.094.41a1 1 0 0 0 .2.34.5.5 0 0 0 .363.129q.304 0 .48-.165a.9.9 0 0 0 .27-.41q.093-.246.117-.527.023-.282.023-.516 0-.515-.07-1.008-.07-.503-.13-1.019a1.1 1.1 0 0 1 .047-.516 1.1 1.1 0 0 1 .165-.316.8.8 0 0 1 .258-.223.64.64 0 0 1 .34-.093q.257 0 .457.187.198.175.328.469.14.28.222.644.095.353.14.703.06.34.071.645.024.304.024.48m5.765-4.359q0 .855-.07 1.7-.06.843-.059 1.699 0 .69.035 1.37.047.68.047 1.372 0 .187-.011.457-.013.258-.082.504a1 1 0 0 1-.211.422q-.14.175-.41.175a.76.76 0 0 1-.586-.258 1.3 1.3 0 0 1-.282-.597q-.222.422-.644.715a1.57 1.57 0 0 1-.914.293 1.3 1.3 0 0 1-.914-.364 3.2 3.2 0 0 1-.633-.879 5.2 5.2 0 0 1-.375-1.078 5 5 0 0 1-.117-.972 7.2 7.2 0 0 1 .152-1.43q.094-.387.234-.75A3 3 0 0 1 57.71 55q.222-.293.516-.469.304-.175.691-.175.421 0 .809.246.386.246.585.609l.106-1.863q.012-.223.035-.516a3.3 3.3 0 0 1 .094-.574q.083-.27.246-.457.165-.188.48-.188.34 0 .528.164.188.165.27.422.093.246.105.54.024.292.023.55m-1.91 5.203q0-.27-.012-.527a6 6 0 0 1 0-.528 6 6 0 0 0-.164-.328 1.5 1.5 0 0 0-.234-.34q-.13-.164-.293-.269a.64.64 0 0 0-.352-.105.46.46 0 0 0-.34.128.76.76 0 0 0-.187.317 2 2 0 0 0-.082.387 7 7 0 0 0-.012.363 5.5 5.5 0 0 0 .106.972q.071.282.187.493.117.21.317.21.152 0 .304-.058.153-.07.282-.164.14-.106.258-.223.128-.129.222-.234zm7.664.856q0 .21-.023.55-.013.34-.094.668a1.6 1.6 0 0 1-.258.551.58.58 0 0 1-.492.235q-.434 0-.668-.282a1 1 0 0 1-.223-.703q-.375.328-.855.516a2.6 2.6 0 0 1-.961.187 1.34 1.34 0 0 1-.645-.164 2 2 0 0 1-.539-.422 2.1 2.1 0 0 1-.375-.574 1.6 1.6 0 0 1-.14-.644q0-.562.34-.985.352-.422.855-.715a5 5 0 0 1 1.066-.48 6.4 6.4 0 0 1 1.02-.234v-.106a.4.4 0 0 0 .012-.105q0-.364-.2-.586-.198-.223-.562-.223-.292 0-.504.105-.21.094-.398.223-.187.118-.375.223a.9.9 0 0 1-.422.094.65.65 0 0 1-.445-.164.55.55 0 0 1-.176-.422q0-.388.222-.703a2.1 2.1 0 0 1 .575-.528 3 3 0 0 1 .75-.34q.41-.129.75-.129.315 0 .632.082.316.07.598.235.282.152.504.386.234.224.375.528.21.434.34.926.129.48.199.996.07.503.094 1.02.023.502.023.984m-1.875-.375-.035-.797h-.047a.1.1 0 0 0-.047-.012q-.152 0-.386.082a1.7 1.7 0 0 0-.434.211q-.21.13-.363.293a.52.52 0 0 0-.141.34q0 .164.117.222.117.06.27.06.258 0 .55-.13.294-.14.516-.27m9.692-1.84v.61q0 .375-.024.82a9 9 0 0 1-.07.902 4 4 0 0 1-.188.808q-.118.364-.304.598a.59.59 0 0 1-.48.234.45.45 0 0 1-.4-.21 1.7 1.7 0 0 1-.187-.516 4 4 0 0 1-.07-.598v-.48q0-.528.035-1.032t.035-1.03v-.212q0-.152-.023-.304a.9.9 0 0 0-.082-.27q-.047-.117-.153-.117-.21 0-.34.223-.128.21-.21.504-.082.293-.118.585-.035.282-.046.422a7 7 0 0 0-.047.457 12 12 0 0 1-.047.668 7 7 0 0 1-.094.75q-.059.374-.164.692a1.6 1.6 0 0 1-.246.504.46.46 0 0 1-.375.199.48.48 0 0 1-.434-.246 1.8 1.8 0 0 1-.222-.575 5 5 0 0 1-.094-.667 16 16 0 0 1-.012-.528v-.386q.012-.188.012-.387v-.27q0-.187-.012-.41 0-.234-.023-.48a4 4 0 0 0-.047-.446 1.1 1.1 0 0 0-.106-.34q-.07-.128-.164-.128-.152 0-.28.199-.13.187-.224.457a4 4 0 0 0-.152.515 2.4 2.4 0 0 0-.047.375v.07q0 .564.07 1.102.07.54.07 1.102 0 .328-.21.61a.7.7 0 0 1-.586.269.57.57 0 0 1-.445-.2 1.8 1.8 0 0 1-.293-.538 4.5 4.5 0 0 1-.188-.715 9 9 0 0 1-.082-.774 31 31 0 0 1-.035-.691v-.469q0-.175-.012-.516 0-.339.012-.738.025-.398.07-.808a4 4 0 0 1 .153-.762q.105-.34.27-.55a.54.54 0 0 1 .444-.224.72.72 0 0 1 .493.164q.199.165.199.493a1 1 0 0 1-.012.14 1 1 0 0 1-.011.13q.127-.188.316-.376.188-.2.398-.351.223-.165.47-.258a1.2 1.2 0 0 1 .491-.106q.234 0 .422.13.187.128.328.327.14.188.235.41.093.224.129.422.117-.21.28-.422.177-.222.376-.386.2-.165.433-.27.246-.105.504-.105.246 0 .422.176t.305.457q.129.27.2.62.07.34.116.68.047.33.059.621.012.282.012.446m3 4.207q-.598 0-1.043-.317a2.8 2.8 0 0 1-.75-.808 3.9 3.9 0 0 1-.457-1.09 5 5 0 0 1-.153-1.195q0-.621.153-1.278.151-.667.468-1.207.316-.55.809-.89.492-.352 1.172-.352.656 0 1.113.363a2.6 2.6 0 0 1 .75.891q.281.528.398 1.16.118.633.083 1.196-.035.62-.2 1.253-.152.633-.457 1.137-.304.505-.773.82-.47.317-1.113.317m.117-5.297q-.176 0-.317.188-.129.187-.222.456-.082.27-.13.575a3.3 3.3 0 0 0 0 1.125q.06.328.153.61.094.269.223.456.14.176.316.176.187 0 .317-.176a1.3 1.3 0 0 0 .222-.445q.083-.27.117-.586.036-.328.036-.61 0-.257-.047-.562a3 3 0 0 0-.14-.586 1.3 1.3 0 0 0-.224-.445q-.128-.176-.304-.176m6.457-1.488q0 .339-.235.504-.222.163-.504.316-.28.14-.515.34-.222.2-.223.597 0 .211.094.364.105.152.246.281.153.117.328.246.176.13.317.293.151.164.246.398.105.235.105.575 0 .492-.258.972a3.2 3.2 0 0 1-1.523 1.43 2.35 2.35 0 0 1-.973.223q-.199 0-.398-.035a1.1 1.1 0 0 1-.364-.106.8.8 0 0 1-.257-.223.66.66 0 0 1-.106-.386q0-.328.13-.504a.9.9 0 0 1 .327-.293q.2-.105.422-.164.234-.06.434-.14.2-.094.328-.235.129-.141.129-.399 0-.246-.2-.504-.186-.27-.421-.562a6 6 0 0 1-.434-.645 1.5 1.5 0 0 1-.187-.75q0-.504.199-.925.21-.435.55-.75.352-.317.797-.492.446-.188.938-.188.188 0 .363.035a.9.9 0 0 1 .328.129.6.6 0 0 1 .223.234.64.64 0 0 1 .094.364m8.742.996-.187 1.699a25 25 0 0 0-.13 1.688q-.057.972-.046 1.84.01.866.011 1.84 0 .233-.011.573 0 .34-.082.657-.083.315-.27.539-.176.222-.539.222a.47.47 0 0 1-.305-.105 1 1 0 0 1-.21-.281 2 2 0 0 1-.141-.375 7 7 0 0 1-.082-.434 9 9 0 0 1-.07-.914v-2.227q-.27.352-.704.54a2.2 2.2 0 0 1-.843.175q-.528 0-.914-.246a2.2 2.2 0 0 1-.622-.644 3 3 0 0 1-.363-.867 3.8 3.8 0 0 1-.117-.915v-.07q0-.61.188-1.312.187-.715.55-1.325.375-.61.926-1.007a2.15 2.15 0 0 1 1.3-.41q.4 0 .727.163.34.165.48.54a1 1 0 0 1 .282-.434.73.73 0 0 1 .504-.176q.387 0 .54.258a.97.97 0 0 1 .163.55q0 .13-.012.235zm-2.695.281a.72.72 0 0 0-.504.223q-.235.21-.41.527-.176.305-.282.656a2.5 2.5 0 0 0-.093.621q0 .165.023.352.035.187.094.363.07.164.176.282.117.105.293.105.152 0 .351-.07.21-.082.41-.2.2-.13.352-.28a1 1 0 0 0 .21-.294q.036-.081.06-.246.023-.165.034-.34a6 6 0 0 0 .047-.633q0-.14-.07-.316a1.4 1.4 0 0 0-.164-.352 1 1 0 0 0-.246-.28.44.44 0 0 0-.281-.118m8.39 1.816q0 .645-.129 1.278-.129.632-.433 1.136a2.36 2.36 0 0 1-.82.797q-.505.305-1.266.305-.75 0-1.254-.293a2.4 2.4 0 0 1-.809-.797 3.6 3.6 0 0 1-.421-1.113 7 7 0 0 1-.118-1.266q0-.702.164-1.394a4.8 4.8 0 0 1 .387-1.172q.164-.328.363-.563.211-.234.457-.234.235 0 .375.129a.9.9 0 0 1 .223.328q.083.188.105.41.024.21.024.387 0 .27-.047.527-.034.258-.082.516l-.094.703a7 7 0 0 0-.023 1.102q.024.21.094.41a1 1 0 0 0 .199.34.5.5 0 0 0 .363.129q.305 0 .48-.165a.9.9 0 0 0 .27-.41q.094-.246.117-.527t.024-.516q0-.515-.07-1.008-.07-.503-.13-1.019a1.1 1.1 0 0 1 .047-.516q.06-.175.164-.316a.8.8 0 0 1 .258-.223.64.64 0 0 1 .34-.093q.258 0 .457.187.2.175.328.469.14.28.223.644.094.353.14.703.06.34.07.645.025.304.024.48m5.625 1.266q0 .399-.258.785-.246.375-.632.68-.375.292-.809.48a2.1 2.1 0 0 1-.797.176 2.07 2.07 0 0 1-1.113-.304 2.9 2.9 0 0 1-.809-.797 3.9 3.9 0 0 1-.504-1.055 4.2 4.2 0 0 1-.164-1.137q0-.585.164-1.254.165-.667.493-1.23.339-.563.843-.938.516-.375 1.219-.375.399 0 .762.14a1.85 1.85 0 0 1 1.066.962q.164.339.164.762 0 .55-.234 1.03-.234.482-.621.833a3.3 3.3 0 0 1-.891.574q-.504.21-1.031.234.047.34.269.493a1 1 0 0 0 .551.152q.235 0 .457-.117t.434-.258q.211-.152.41-.27a.86.86 0 0 1 .422-.117q.234 0 .422.153a.49.49 0 0 1 .187.398m-1.898-2.871a.7.7 0 0 0-.082-.316.27.27 0 0 0-.258-.164.68.68 0 0 0-.434.14q-.175.13-.293.34-.117.199-.187.434-.059.234-.07.433.164-.034.386-.094.235-.059.434-.152.211-.105.352-.258a.5.5 0 0 0 .152-.363m9.48 1.09v.61q0 .375-.023.82a9 9 0 0 1-.07.902 4 4 0 0 1-.188.808q-.117.364-.305.598a.59.59 0 0 1-.48.234.45.45 0 0 1-.399-.21 1.7 1.7 0 0 1-.187-.516 4 4 0 0 1-.07-.598v-.48q0-.528.035-1.032t.035-1.03v-.212q0-.152-.023-.304a1 1 0 0 0-.082-.27q-.048-.117-.153-.117-.21 0-.34.223-.129.21-.211.504a4 4 0 0 0-.117.585 13 13 0 0 0-.047.422 7 7 0 0 0-.047.457q-.011.305-.046.668a7 7 0 0 1-.094.75q-.059.374-.164.692a1.6 1.6 0 0 1-.246.504.483.483 0 0 1-.809-.047 1.8 1.8 0 0 1-.223-.575 5 5 0 0 1-.093-.667 16 16 0 0 1-.012-.528v-.386q.012-.188.012-.387v-.27a8 8 0 0 0-.012-.41q0-.234-.023-.48a4 4 0 0 0-.047-.446 1.1 1.1 0 0 0-.106-.34q-.07-.128-.164-.128-.152 0-.281.199-.129.187-.223.457a4 4 0 0 0-.152.515 2.4 2.4 0 0 0-.047.375v.07q0 .564.07 1.102.07.54.071 1.102a1 1 0 0 1-.211.61.7.7 0 0 1-.586.269.57.57 0 0 1-.446-.2 1.8 1.8 0 0 1-.293-.538 4.6 4.6 0 0 1-.187-.715 10 10 0 0 1-.082-.774 31 31 0 0 1-.035-.691v-.469q0-.175-.012-.516 0-.339.012-.738.023-.398.07-.808a4 4 0 0 1 .152-.762q.106-.34.27-.55a.54.54 0 0 1 .445-.224.72.72 0 0 1 .492.164q.2.165.2.493a1 1 0 0 1-.012.14q0 .07-.012.13a2.7 2.7 0 0 1 .317-.376q.187-.2.398-.351.223-.165.469-.258a1.2 1.2 0 0 1 .492-.106q.234 0 .422.13.187.128.328.327.141.188.234.41.095.224.129.422.117-.21.282-.422a2.5 2.5 0 0 1 .375-.386q.198-.165.433-.27.246-.105.504-.105.246 0 .422.176t.305.457q.129.27.199.62.07.34.117.68.047.33.059.621.01.282.011.446m6.926 4.195q-.2 0-.316-.187a1.3 1.3 0 0 1-.176-.41 3 3 0 0 1-.082-.47 8 8 0 0 1-.012-.374q0-.352.035-.703l.094-.703q.058-.353.094-.704.047-.35.047-.703 0-.14-.012-.304a1.2 1.2 0 0 0-.059-.305.5.5 0 0 0-.129-.246.33.33 0 0 0-.246-.094q-.105 0-.234.176-.129.164-.246.386-.105.212-.188.434-.07.21-.07.316v.528q.012.257.012.527v.68q-.012.21-.035.434a4 4 0 0 1-.071.433q-.034.21-.105.41a1.3 1.3 0 0 1-.188.34.9.9 0 0 1-.257.234.7.7 0 0 1-.364.094.52.52 0 0 1-.386-.152 1.1 1.1 0 0 1-.247-.387 2.7 2.7 0 0 1-.14-.539 18 18 0 0 1-.059-.586 13 13 0 0 1-.011-.527 10 10 0 0 0 .011-.387v-.55q0-.446-.023-.88a31 31 0 0 1-.012-.867v-.597q.012-.364.094-.704.082-.351.269-.597.188-.246.551-.246a.45.45 0 0 1 .293.105q.129.105.223.258a1.3 1.3 0 0 1 .164.328q.07.176.105.305.117-.165.27-.317.163-.151.363-.27a1.9 1.9 0 0 1 1.008-.257q.597 0 .926.293.339.282.492.715.164.422.199.914t.035.89q0 .2-.035.598-.035.387-.117.867a10 10 0 0 1-.199.973 6.5 6.5 0 0 1-.305.902 2.2 2.2 0 0 1-.422.668.71.71 0 0 1-.539.258m7.254-1.98q0 .21-.023.55-.012.34-.094.668-.083.317-.258.551a.58.58 0 0 1-.492.235q-.434 0-.668-.282a1 1 0 0 1-.223-.703q-.375.328-.855.516a2.6 2.6 0 0 1-.961.187 1.34 1.34 0 0 1-.645-.164 2 2 0 0 1-.539-.422 2.2 2.2 0 0 1-.375-.574 1.6 1.6 0 0 1-.14-.644q0-.562.339-.985.352-.422.856-.715a5 5 0 0 1 1.066-.48 6.4 6.4 0 0 1 1.02-.234v-.106a.4.4 0 0 0 .012-.105q0-.364-.2-.586-.198-.223-.562-.223-.293 0-.504.105a2.5 2.5 0 0 0-.399.223q-.188.118-.375.223a.9.9 0 0 1-.421.094.66.66 0 0 1-.446-.164.55.55 0 0 1-.175-.422q0-.388.222-.703.235-.316.574-.528.353-.223.75-.34.411-.129.75-.129.316 0 .633.082.316.07.598.235.28.152.504.386.234.224.375.528.21.434.34.926.129.48.199.996.07.503.094 1.02.023.502.023.984m-1.875-.375-.035-.797h-.047a.1.1 0 0 0-.047-.012q-.152 0-.387.082a1.7 1.7 0 0 0-.433.211 1.7 1.7 0 0 0-.363.293.52.52 0 0 0-.141.34q0 .164.117.222.117.06.27.06.257 0 .55-.13.294-.14.516-.27m1.418-6.703a.75.75 0 0 1-.117.374 1.8 1.8 0 0 1-.293.352 2 2 0 0 1-.375.258.9.9 0 0 1-.375.094 1.1 1.1 0 0 1-.352-.059 14 14 0 0 1-.34-.152 3 3 0 0 0-.328-.14.8.8 0 0 0-.328-.071.5.5 0 0 0-.258.082 4 4 0 0 0-.269.164 4 4 0 0 1-.293.152.6.6 0 0 1-.281.07.37.37 0 0 1-.305-.152.56.56 0 0 1-.117-.328q0-.2.14-.387t.352-.328a1.8 1.8 0 0 1 .434-.234q.234-.094.41-.094.198 0 .34.082.152.082.281.188.129.105.258.187a.64.64 0 0 0 .328.082.5.5 0 0 0 .281-.082q.141-.093.269-.2.141-.116.258-.198a.45.45 0 0 1 .27-.094q.164 0 .281.14a.43.43 0 0 1 .129.294m3.387 9.07q-.598 0-1.043-.317a2.8 2.8 0 0 1-.75-.808 3.9 3.9 0 0 1-.457-1.09 5 5 0 0 1-.153-1.195q0-.621.153-1.278.152-.667.468-1.207.317-.55.809-.89.492-.352 1.172-.352.656 0 1.113.363.47.352.75.891.282.528.399 1.16.117.633.082 1.196-.036.62-.2 1.253-.151.633-.457 1.137-.305.505-.773.82-.47.317-1.113.317m.117-5.297q-.176 0-.317.188-.128.187-.222.456-.083.27-.129.575a3.4 3.4 0 0 0-.047.515q0 .282.047.61a4.4 4.4 0 0 0 .152.61q.094.269.223.456.14.176.316.176.188 0 .317-.176.14-.176.222-.445.082-.27.118-.586.035-.328.035-.61 0-.257-.047-.562a3 3 0 0 0-.141-.586 1.3 1.3 0 0 0-.222-.445q-.13-.176-.305-.176m10.828 3.305q0 .21-.023.55-.012.34-.094.668-.083.317-.258.551a.58.58 0 0 1-.492.235q-.434 0-.668-.282a1 1 0 0 1-.223-.703q-.375.328-.855.516a2.6 2.6 0 0 1-.961.187 1.34 1.34 0 0 1-.645-.164 2 2 0 0 1-.539-.422 2.2 2.2 0 0 1-.375-.574 1.6 1.6 0 0 1-.14-.644q0-.562.339-.985.352-.422.856-.715a5 5 0 0 1 1.066-.48 6.4 6.4 0 0 1 1.02-.234v-.106a.4.4 0 0 0 .012-.105q0-.364-.2-.586-.198-.223-.562-.223-.292 0-.504.105a2.5 2.5 0 0 0-.399.223q-.187.118-.375.223a.9.9 0 0 1-.421.094.66.66 0 0 1-.446-.164.55.55 0 0 1-.175-.422q0-.388.222-.703.235-.316.574-.528.353-.223.75-.34.411-.129.75-.129.317 0 .633.082.316.07.598.235.28.152.504.386.234.224.375.528.21.434.34.926.129.48.199.996.07.503.094 1.02.023.502.023.984m-1.875-.375-.035-.797h-.047a.1.1 0 0 0-.047-.012q-.151 0-.387.082a1.7 1.7 0 0 0-.433.211 1.7 1.7 0 0 0-.363.293.52.52 0 0 0-.141.34q0 .164.117.222.117.06.27.06.257 0 .55-.13.294-.14.516-.27m10.77-1.465q0 .516-.118 1.136-.105.61-.375 1.137a2.6 2.6 0 0 1-.691.88q-.422.35-1.066.35-.165 0-.34-.023a1.7 1.7 0 0 1-.34-.082 1.2 1.2 0 0 1-.281-.152.7.7 0 0 1-.2-.27l-.105 1.688q-.012.27-.024.644 0 .376-.093.715a1.3 1.3 0 0 1-.293.575q-.2.245-.586.246-.223 0-.375-.235a1.9 1.9 0 0 1-.246-.574 7 7 0 0 1-.129-.785 11 11 0 0 1-.059-.832 24 24 0 0 1-.011-.727v-.48q0-.785-.012-1.559-.012-.785-.012-1.57v-.434q0-.305.024-.656.023-.351.07-.727.059-.375.164-.68.105-.315.269-.503.165-.2.399-.2.152 0 .269.094a.64.64 0 0 1 .211.223q.094.13.153.281.058.153.093.282.364-.41.832-.622.482-.21 1.02-.21.563 0 .914.316.363.316.563.785.21.469.293 1.008.081.527.082.96m-1.676-.094q0-.175-.035-.352a1 1 0 0 0-.106-.34.57.57 0 0 0-.211-.257.57.57 0 0 0-.351-.106 1.2 1.2 0 0 0-.598.188 1.3 1.3 0 0 0-.457.41.66.66 0 0 0-.07.305q-.012.21-.012.316v.223q.012.129.023.27l.024.269a.8.8 0 0 0 .058.2q.036.105.153.198.117.083.258.153.14.07.281.105.152.035.258.035a.49.49 0 0 0 .398-.187q.153-.188.234-.446.094-.257.118-.527.035-.281.035-.457m6.457-.797a.8.8 0 0 1-.281-.023l-.235-.094a2 2 0 0 0-.211-.082.46.46 0 0 0-.234-.035.9.9 0 0 0-.422.129 1.6 1.6 0 0 0-.328.293q-.141.176-.246.398-.106.21-.164.422a3 3 0 0 0-.059.434q-.012.28-.012.609-.01.34-.011.645t-.024.48a4 4 0 0 1-.058.445q-.047.246-.153.469a1.1 1.1 0 0 1-.258.375.6.6 0 0 1-.421.152.56.56 0 0 1-.352-.117 1.1 1.1 0 0 1-.246-.304 3 3 0 0 1-.164-.458 6 6 0 0 1-.094-.527 13 13 0 0 1-.058-.562l-.024-.528v-.468q.012-.211.012-.34a15 15 0 0 0-.047-.82 15 15 0 0 1-.023-.833q0-.258.023-.574.024-.316.129-.586.105-.281.305-.469.21-.187.574-.187.2 0 .34.129a.9.9 0 0 1 .222.316q.095.188.141.399.047.211.058.386a2.9 2.9 0 0 1 .633-.738q.352-.292.914-.316.282-.012.551.058.282.06.504.211.234.141.375.375.153.235.164.551.024.375-.223.574a.97.97 0 0 1-.597.211m3.222 4.723q-.597 0-1.043-.317a2.8 2.8 0 0 1-.75-.808 3.9 3.9 0 0 1-.457-1.09 5 5 0 0 1-.152-1.195q0-.621.152-1.278.153-.667.469-1.207.317-.55.809-.89.492-.352 1.172-.352.656 0 1.113.363.468.352.75.891.28.528.398 1.16.118.633.082 1.196a6.4 6.4 0 0 1-.199 1.253 4 4 0 0 1-.457 1.137q-.305.505-.773.82-.47.317-1.114.317m.118-5.297q-.177 0-.317.188-.129.187-.222.456-.083.27-.129.575a3 3 0 0 0-.047.515q0 .282.047.61a4.4 4.4 0 0 0 .152.61q.094.269.223.456.14.176.316.176.188 0 .316-.176.14-.176.223-.445.083-.27.117-.586.036-.328.035-.61a3.7 3.7 0 0 0-.187-1.148 1.3 1.3 0 0 0-.223-.445q-.129-.176-.304-.176m8.074-2.754q0 .855-.07 1.7a24 24 0 0 0-.059 1.699q0 .69.035 1.37.047.68.047 1.372 0 .187-.012.457-.012.258-.082.504a1 1 0 0 1-.211.422q-.14.175-.41.175a.76.76 0 0 1-.586-.258 1.3 1.3 0 0 1-.281-.597q-.222.422-.645.715a1.57 1.57 0 0 1-.914.293q-.527 0-.914-.364a3.2 3.2 0 0 1-.633-.879 5.2 5.2 0 0 1-.375-1.078 5 5 0 0 1-.117-.972q0-.293.035-.668t.118-.762q.093-.387.234-.75.14-.375.352-.668.222-.293.515-.469a1.36 1.36 0 0 1 .692-.175q.421 0 .808.246t.586.609l.106-1.863q.01-.223.035-.516.023-.305.094-.574.081-.27.246-.457.164-.188.48-.188.34 0 .527.164a.9.9 0 0 1 .27.422q.094.246.105.54.024.292.024.55m-1.91 5.203q0-.27-.012-.527a6 6 0 0 1 0-.528 7 7 0 0 0-.164-.328 1.5 1.5 0 0 0-.234-.34q-.13-.164-.293-.269a.64.64 0 0 0-.352-.105.46.46 0 0 0-.34.128.76.76 0 0 0-.187.317 2 2 0 0 0-.082.387q-.012.21-.012.363 0 .14.023.422.024.27.082.55.07.282.188.493.117.21.316.21.153 0 .305-.058.152-.07.281-.164.141-.106.258-.223a6 6 0 0 0 .223-.234zm7.816-.844q0 .645-.129 1.278-.129.632-.433 1.136a2.4 2.4 0 0 1-.821.797q-.504.305-1.265.305-.75 0-1.254-.293a2.4 2.4 0 0 1-.809-.797 3.6 3.6 0 0 1-.422-1.113 7 7 0 0 1-.117-1.266q0-.702.164-1.394.036-.188.129-.516.105-.34.258-.656.163-.328.363-.563.211-.234.457-.234.234 0 .375.129a.9.9 0 0 1 .223.328q.083.188.105.41.024.21.024.387 0 .27-.047.527-.036.258-.082.516l-.094.703a7 7 0 0 0-.023 1.102q.023.21.093.41a1 1 0 0 0 .2.34.5.5 0 0 0 .363.129q.304 0 .48-.165a.9.9 0 0 0 .27-.41q.093-.246.117-.527a6 6 0 0 0 .024-.516 7 7 0 0 0-.071-1.008q-.07-.503-.129-1.019a1.1 1.1 0 0 1 .047-.516q.059-.175.164-.316a.8.8 0 0 1 .258-.223.64.64 0 0 1 .34-.093q.258 0 .457.187.2.175.328.469.14.28.223.644.093.353.14.703.059.34.071.645.023.304.023.48m5.977 2.25a.53.53 0 0 1-.2.41 1.9 1.9 0 0 1-.492.317 3.5 3.5 0 0 1-.679.234q-.375.095-.75.153-.364.058-.692.082a5 5 0 0 1-.527.035q-.199 0-.563-.012a3.6 3.6 0 0 1-.703-.094 1.8 1.8 0 0 1-.609-.234.55.55 0 0 1-.258-.48q0-.235.164-.575t.422-.738.574-.809q.316-.42.621-.808.305-.387.574-.703.27-.328.422-.54-.164.037-.422.106-.245.06-.515.117-.27.06-.527.106a3 3 0 0 1-.422.035q-.141 0-.317-.047a2 2 0 0 1-.34-.152 1.3 1.3 0 0 1-.269-.223.45.45 0 0 1-.106-.293q0-.21.188-.387a1.7 1.7 0 0 1 .492-.328 4 4 0 0 1 .68-.258q.375-.117.738-.187a6 6 0 0 1 1.219-.152q.222 0 .539.047.317.045.609.164.305.117.516.316.21.199.211.504a.6.6 0 0 1-.024.176 2 2 0 0 1-.035.164q-.023.082-.211.375-.175.28-.445.68-.258.386-.574.843-.305.445-.586.844a70 70 0 0 0-.774 1.113q.481-.129.973-.21.504-.094.996-.094.117 0 .305.011.188.013.363.07a.8.8 0 0 1 .305.153.31.31 0 0 1 .129.27M47.994 72.5a.7.7 0 0 1-.047.246q-.105.27-.328.457a.83.83 0 0 1-.527.176q-.458 0-.621-.457a.4.4 0 0 1-.024-.129q0-.083-.012-.164v-.34a.7.7 0 0 0-.082-.258q-.057-.094-.199-.094-.199 0-.386.258a2.8 2.8 0 0 0-.317.598q-.129.339-.21.703a2.8 2.8 0 0 0-.083.586q0 .176.024.434.023.246.093.48t.188.41a.4.4 0 0 0 .328.164q.2 0 .363-.117.175-.13.34-.293.153-.14.328-.293a.65.65 0 0 1 .422-.152q.294 0 .457.21.176.212.176.481 0 .399-.211.75-.21.34-.527.598a2.6 2.6 0 0 1-.704.387 2 2 0 0 1-.738.152q-.633 0-1.078-.316a2.5 2.5 0 0 1-.703-.797 3.8 3.8 0 0 1-.387-1.067 5.5 5.5 0 0 1-.117-1.09q0-.597.164-1.289.164-.703.504-1.3t.867-.996q.54-.399 1.278-.399.456 0 .785.2.34.198.55.527.223.315.329.715.117.398.117.785v.117a.6.6 0 0 1-.012.117m2.883 4.84q-.598 0-1.043-.317a2.8 2.8 0 0 1-.75-.808 3.9 3.9 0 0 1-.457-1.09 5 5 0 0 1-.152-1.195q0-.621.152-1.278.152-.667.469-1.207.316-.55.808-.89.492-.352 1.172-.352.657 0 1.114.363a2.6 2.6 0 0 1 .75.891q.28.528.398 1.16.117.633.082 1.195-.035.622-.2 1.254-.15.633-.456 1.137-.305.504-.774.82-.468.317-1.113.317m.117-5.297q-.175 0-.316.188-.129.187-.223.457-.082.269-.129.574a3.3 3.3 0 0 0 0 1.125q.06.328.152.61.094.269.223.456.141.176.317.176.187 0 .316-.176a1.3 1.3 0 0 0 .223-.445q.081-.27.117-.586a6 6 0 0 0 .035-.61q0-.257-.047-.562a3 3 0 0 0-.14-.586 1.3 1.3 0 0 0-.223-.445q-.13-.176-.305-.176m7.09.574a.8.8 0 0 1-.281-.023l-.235-.094a2 2 0 0 0-.21-.082.46.46 0 0 0-.235-.035.86.86 0 0 0-.422.129 1.6 1.6 0 0 0-.328.293q-.141.176-.246.398a2.4 2.4 0 0 0-.164.422 3 3 0 0 0-.059.434q-.012.28-.011.609a19 19 0 0 0-.012.644q0 .306-.024.481a4 4 0 0 1-.058.445q-.047.246-.152.469a1.1 1.1 0 0 1-.258.375.6.6 0 0 1-.422.152.56.56 0 0 1-.352-.117 1.1 1.1 0 0 1-.246-.305 3 3 0 0 1-.164-.456 6 6 0 0 1-.094-.528 14 14 0 0 1-.058-.562l-.024-.528v-.469q.012-.21.012-.34a14 14 0 0 0-.047-.82 15 15 0 0 1-.023-.832q0-.257.023-.574.024-.316.129-.586.105-.281.305-.469.21-.187.574-.187.2 0 .34.129a.9.9 0 0 1 .223.316q.093.187.14.399.046.211.059.386.28-.456.633-.738.35-.292.913-.316.282-.012.551.058.282.06.504.211.235.141.375.375.153.234.164.551.024.375-.222.574a.97.97 0 0 1-.598.211m5.063 0a.8.8 0 0 1-.282-.023l-.234-.094a2 2 0 0 0-.211-.082.46.46 0 0 0-.235-.035.86.86 0 0 0-.421.129 1.6 1.6 0 0 0-.329.293q-.14.176-.245.398a2.4 2.4 0 0 0-.165.422 3 3 0 0 0-.058.434q-.012.28-.012.609a19 19 0 0 0-.012.644q0 .306-.023.481a4 4 0 0 1-.059.445q-.046.246-.152.469a1.1 1.1 0 0 1-.258.375.6.6 0 0 1-.422.152.56.56 0 0 1-.351-.117 1.1 1.1 0 0 1-.246-.305 3 3 0 0 1-.164-.456 6 6 0 0 1-.094-.528 14 14 0 0 1-.059-.562l-.023-.528v-.469q.011-.21.011-.34a14 14 0 0 0-.046-.82 15 15 0 0 1-.024-.832q0-.257.024-.574.023-.316.128-.586.105-.281.305-.469.21-.187.575-.187.198 0 .34.129a.9.9 0 0 1 .222.316q.095.187.14.399.047.211.06.386.28-.456.632-.738.351-.292.914-.316.282-.012.55.058.282.06.505.211.234.141.375.375.152.234.164.551.023.375-.223.574a.97.97 0 0 1-.597.211m5.906 2.297q0 .399-.258.785-.246.375-.633.68-.375.293-.809.48a2.1 2.1 0 0 1-.796.176q-.62 0-1.114-.304a2.9 2.9 0 0 1-.808-.797 3.9 3.9 0 0 1-.504-1.055q-.165-.586-.164-1.137 0-.585.164-1.254.164-.667.492-1.23.34-.563.844-.938.516-.375 1.219-.375.398 0 .761.14a1.84 1.84 0 0 1 1.067.962q.164.339.164.762 0 .55-.235 1.03-.234.482-.62.833a3.3 3.3 0 0 1-.891.574q-.504.21-1.032.235.047.339.27.492.235.152.55.152a1 1 0 0 0 .458-.117q.222-.117.433-.258.212-.152.41-.27a.86.86 0 0 1 .422-.117q.235 0 .422.153a.49.49 0 0 1 .188.398m-1.899-2.871a.7.7 0 0 0-.082-.316.27.27 0 0 0-.258-.165.67.67 0 0 0-.433.141q-.176.13-.293.34-.117.199-.188.434-.058.234-.07.433.164-.034.387-.094.234-.059.433-.152.211-.105.352-.258a.5.5 0 0 0 .152-.363m5.098 5.379q-.832 0-1.3-.223a1.5 1.5 0 0 1-.692-.61 2.35 2.35 0 0 1-.27-.96 17 17 0 0 1-.012-2.356q.037-.562.106-1.195a2 2 0 0 0-.258.012h-.152q-.375 0-.645-.164a.54.54 0 0 1-.281-.504q0-.21.164-.375.153-.165.398-.281.247-.118.528-.188.293-.07.55-.094 0-.327.047-.726.048-.399.165-.739.129-.352.34-.585a.7.7 0 0 1 .538-.235q.189 0 .329.117.152.106.246.282.094.163.14.375.047.21.047.41 0 .234-.035.48a6 6 0 0 1-.129.61q.2-.024.27-.024a1 1 0 0 1 .129-.011q.199 0 .41.035.222.035.398.117a.8.8 0 0 1 .305.222.45.45 0 0 1 .117.317.5.5 0 0 1-.176.375q-.165.165-.422.281t-.55.188a5 5 0 0 1-.551.082q-.07.48-.106.89-.023.4-.058.809l-.047.41a7 7 0 0 0 0 .773q.012.2.082.387a.85.85 0 0 0 .223.328q.152.13.422.13.163 0 .34-.024.176-.035.35-.035.306 0 .434.21.141.21.141.54 0 .246-.152.433a1 1 0 0 1-.364.281 2 2 0 0 1-.503.176q-.27.06-.516.059m6.75-2.074q0 .21-.023.55-.013.34-.094.668-.082.317-.258.551a.58.58 0 0 1-.492.235q-.434 0-.668-.282t-.223-.703q-.375.328-.855.516a2.6 2.6 0 0 1-.961.187 1.34 1.34 0 0 1-.645-.164 2 2 0 0 1-.539-.422 2.2 2.2 0 0 1-.375-.574 1.6 1.6 0 0 1-.14-.644q0-.563.34-.985.351-.422.855-.715a5 5 0 0 1 1.066-.48 6.4 6.4 0 0 1 1.02-.234v-.106a.4.4 0 0 0 .011-.105q0-.364-.199-.586-.2-.223-.562-.223-.294 0-.504.106a2.5 2.5 0 0 0-.399.222q-.187.118-.375.223a.9.9 0 0 1-.421.094.65.65 0 0 1-.446-.165.55.55 0 0 1-.175-.421q0-.387.222-.704a2.1 2.1 0 0 1 .574-.527 3 3 0 0 1 .75-.34q.411-.129.75-.129.316 0 .633.082.316.07.598.235.28.152.504.386.234.224.375.528.21.433.34.926.128.48.199.996.07.503.093 1.02.024.502.024.984m-1.875-.375-.035-.797h-.047a.1.1 0 0 0-.047-.012q-.152 0-.387.082a1.7 1.7 0 0 0-.433.211q-.21.13-.364.293a.52.52 0 0 0-.14.34q0 .164.117.222.117.06.27.06.257 0 .55-.13.293-.14.516-.27m9.691-1.84v.61q0 .375-.023.82a9 9 0 0 1-.07.902q-.06.445-.188.808-.117.364-.305.598a.59.59 0 0 1-.48.235.45.45 0 0 1-.398-.212 1.7 1.7 0 0 1-.188-.515 4 4 0 0 1-.07-.598v-.48q0-.527.035-1.032.035-.504.035-1.03v-.212q0-.152-.023-.304a.9.9 0 0 0-.082-.27q-.048-.117-.153-.117-.21 0-.34.223-.129.21-.21.504-.082.293-.118.585-.035.282-.047.422a7 7 0 0 0-.046.457 12 12 0 0 1-.047.668 7 7 0 0 1-.094.75q-.06.375-.164.692a1.6 1.6 0 0 1-.246.504.46.46 0 0 1-.375.199.48.48 0 0 1-.434-.246 1.8 1.8 0 0 1-.223-.575 5 5 0 0 1-.093-.667 16 16 0 0 1-.012-.528v-.386q.012-.188.012-.387v-.27q0-.188-.012-.41 0-.234-.023-.48a4 4 0 0 0-.047-.446 1.1 1.1 0 0 0-.106-.34q-.07-.129-.164-.128-.152 0-.281.199-.129.187-.223.457a4 4 0 0 0-.152.515 2.4 2.4 0 0 0-.047.375v.07q0 .564.07 1.102.07.54.07 1.102 0 .328-.21.61a.7.7 0 0 1-.586.269.57.57 0 0 1-.446-.2 1.8 1.8 0 0 1-.292-.538 4.5 4.5 0 0 1-.188-.715 9 9 0 0 1-.082-.774 31 31 0 0 1-.035-.691v-.469q0-.176-.012-.516 0-.339.012-.738.023-.399.07-.808.047-.423.152-.762.105-.34.27-.55a.54.54 0 0 1 .445-.224.72.72 0 0 1 .493.165q.198.163.199.492a1 1 0 0 1-.012.14 1 1 0 0 1-.012.13q.13-.188.317-.376.188-.2.398-.351a2 2 0 0 1 .469-.258 1.2 1.2 0 0 1 .492-.106q.234 0 .422.13.187.128.328.327.141.188.234.41.094.224.13.422.117-.21.28-.422.177-.222.376-.386.198-.165.433-.27.246-.105.504-.105.246 0 .422.176t.305.457q.129.27.199.62.07.34.117.68.046.33.059.621.01.281.011.446m5.684 1.781q0 .399-.258.785-.246.375-.633.68-.375.293-.808.48a2.1 2.1 0 0 1-.797.176q-.621 0-1.113-.304a2.9 2.9 0 0 1-.809-.797 3.9 3.9 0 0 1-.504-1.055q-.165-.586-.164-1.137 0-.585.164-1.254.164-.667.492-1.23.34-.563.844-.938.516-.375 1.219-.375.398 0 .761.14a1.84 1.84 0 0 1 1.067.962q.165.339.164.762 0 .55-.234 1.03-.235.482-.621.833a3.3 3.3 0 0 1-.891.574 3 3 0 0 1-1.031.235q.045.339.27.492.233.152.55.152a1 1 0 0 0 .457-.117q.222-.117.434-.258.21-.152.41-.27a.86.86 0 0 1 .422-.117q.234 0 .421.153a.49.49 0 0 1 .188.398m-1.898-2.871a.7.7 0 0 0-.082-.316.27.27 0 0 0-.258-.165.67.67 0 0 0-.434.141q-.176.13-.293.34-.117.199-.187.434-.06.234-.07.433.164-.034.386-.094.233-.059.434-.152.21-.105.351-.258a.5.5 0 0 0 .153-.363m5.695 5.285q-.2 0-.317-.187a1.3 1.3 0 0 1-.175-.41 3 3 0 0 1-.082-.47 7 7 0 0 1 .023-1.078l.094-.703q.058-.35.094-.703.046-.35.046-.703 0-.14-.011-.305a1.2 1.2 0 0 0-.059-.304.5.5 0 0 0-.129-.246.33.33 0 0 0-.246-.094q-.105 0-.234.176-.129.165-.246.386-.105.212-.188.434-.07.21-.07.317v.527q.011.257.011.527v.68q-.01.21-.035.434a4 4 0 0 1-.07.433q-.035.21-.105.41-.07.188-.188.34a.9.9 0 0 1-.258.234.7.7 0 0 1-.363.094.52.52 0 0 1-.387-.152 1.1 1.1 0 0 1-.246-.387 2.7 2.7 0 0 1-.14-.539 18 18 0 0 1-.059-.586 13 13 0 0 1-.012-.527 9 9 0 0 0 .012-.387v-.55q0-.446-.023-.88-.012-.434-.012-.867v-.598q.012-.363.094-.703.081-.351.27-.597.187-.246.55-.246a.45.45 0 0 1 .293.105q.129.105.222.258.106.152.165.328.07.176.105.305.117-.165.27-.317.163-.151.363-.27a1.9 1.9 0 0 1 1.008-.257q.597 0 .925.293.34.282.493.715.163.422.199.914.035.492.035.89 0 .2-.035.598-.036.387-.117.867a10 10 0 0 1-.2.973 6.4 6.4 0 0 1-.304.902 2.2 2.2 0 0 1-.422.668.71.71 0 0 1-.54.258m5.004.094q-.833 0-1.301-.223a1.5 1.5 0 0 1-.691-.61 2.35 2.35 0 0 1-.27-.96 17 17 0 0 1-.012-2.356q.036-.562.106-1.195a2 2 0 0 0-.258.012h-.152q-.375 0-.645-.164a.54.54 0 0 1-.281-.504q0-.21.164-.375.152-.165.398-.281.246-.118.528-.188.293-.07.55-.094 0-.327.047-.726t.164-.739q.13-.352.34-.585a.7.7 0 0 1 .539-.235q.188 0 .328.117.153.106.247.282.093.163.14.375.047.21.047.41 0 .234-.035.48a6 6 0 0 1-.129.61q.2-.024.269-.024a1 1 0 0 1 .129-.011q.2 0 .411.035.222.035.398.117a.8.8 0 0 1 .305.222.45.45 0 0 1 .117.317q0 .21-.176.375-.164.165-.422.281t-.551.188a5 5 0 0 1-.55.082q-.07.48-.106.89-.023.4-.058.809-.024.2-.047.41a7 7 0 0 0 0 .773q.012.2.082.387a.85.85 0 0 0 .222.328q.153.13.422.13.165 0 .34-.024.175-.035.352-.035.304 0 .433.21.141.21.141.54a.67.67 0 0 1-.152.433 1 1 0 0 1-.364.281 2 2 0 0 1-.504.176 2.4 2.4 0 0 1-.515.059m6.679-2.508q0 .399-.257.785-.246.375-.633.68-.375.293-.809.48a2.1 2.1 0 0 1-.797.176 2.07 2.07 0 0 1-1.113-.304 2.9 2.9 0 0 1-.809-.797 3.9 3.9 0 0 1-.503-1.055q-.165-.586-.165-1.137 0-.585.165-1.254.163-.667.492-1.23.34-.563.843-.938.516-.375 1.219-.375.399 0 .762.14a1.85 1.85 0 0 1 1.066.962q.165.339.164.762 0 .55-.234 1.03-.234.482-.621.833a3.3 3.3 0 0 1-.891.574q-.503.21-1.031.235.046.339.27.492a1 1 0 0 0 .55.152q.235 0 .457-.117t.434-.258q.211-.152.41-.27a.86.86 0 0 1 .422-.117q.234 0 .422.153a.49.49 0 0 1 .187.398m-1.898-2.871a.7.7 0 0 0-.082-.316.27.27 0 0 0-.258-.165.67.67 0 0 0-.433.141q-.176.13-.293.34a2 2 0 0 0-.188.434 2.4 2.4 0 0 0-.07.433q.164-.034.386-.094.235-.059.434-.152.211-.105.352-.258a.5.5 0 0 0 .152-.363m10.172 3.305q0 .21-.024.55-.011.34-.093.668-.083.317-.258.551a.58.58 0 0 1-.492.235q-.434 0-.668-.282t-.223-.703q-.375.328-.855.516a2.6 2.6 0 0 1-.961.187 1.34 1.34 0 0 1-.645-.164 2 2 0 0 1-.539-.422 2.2 2.2 0 0 1-.375-.574 1.6 1.6 0 0 1-.141-.644q0-.563.34-.985.352-.422.856-.715a5 5 0 0 1 1.066-.48 6.4 6.4 0 0 1 1.02-.234v-.106a.5.5 0 0 0 .011-.105q0-.364-.199-.586-.2-.223-.562-.223-.294 0-.504.106a2.5 2.5 0 0 0-.399.222q-.187.118-.375.223a.9.9 0 0 1-.422.094.66.66 0 0 1-.445-.165.55.55 0 0 1-.176-.421q0-.387.223-.704.234-.315.574-.527.352-.222.75-.34.411-.129.75-.129.316 0 .633.082.316.07.598.235.28.152.504.386.234.224.375.528.21.433.339.926.13.48.2.996.07.503.093 1.02.024.502.024.984m-1.875-.375-.035-.797h-.047a.1.1 0 0 0-.047-.012q-.153 0-.387.082a1.7 1.7 0 0 0-.433.211 1.7 1.7 0 0 0-.364.293.52.52 0 0 0-.14.34q0 .164.117.222.117.06.269.06.258 0 .551-.13.293-.14.516-.27m12.515-1.84v.61q0 .375-.023.82a9 9 0 0 1-.07.902 4 4 0 0 1-.188.808 1.9 1.9 0 0 1-.304.598.59.59 0 0 1-.481.235.45.45 0 0 1-.398-.212 1.7 1.7 0 0 1-.188-.515 4 4 0 0 1-.07-.598v-.48q0-.527.035-1.032.035-.504.035-1.03v-.212q0-.152-.023-.304a1 1 0 0 0-.082-.27q-.047-.117-.153-.117-.21 0-.34.223-.128.21-.21.504-.082.293-.118.585a13 13 0 0 0-.047.422 7 7 0 0 0-.046.457q-.012.305-.047.668a7 7 0 0 1-.094.75q-.059.375-.164.692a1.6 1.6 0 0 1-.246.504.483.483 0 0 1-.809-.047 1.8 1.8 0 0 1-.222-.575 5 5 0 0 1-.094-.667 16 16 0 0 1-.012-.528v-.386q.012-.188.012-.387v-.27a8 8 0 0 0-.012-.41q0-.234-.023-.48a4 4 0 0 0-.047-.446 1.1 1.1 0 0 0-.106-.34q-.07-.129-.164-.128-.152 0-.281.199-.129.187-.223.457a4 4 0 0 0-.152.515 2.4 2.4 0 0 0-.047.375v.07q0 .564.07 1.102.07.54.071 1.102a1 1 0 0 1-.211.61.7.7 0 0 1-.586.269.57.57 0 0 1-.445-.2 1.7 1.7 0 0 1-.293-.538 4.5 4.5 0 0 1-.188-.715 10 10 0 0 1-.082-.774 31 31 0 0 1-.035-.691v-.469q0-.176-.012-.516 0-.339.012-.738.024-.399.07-.808.046-.423.153-.762.105-.34.269-.55a.54.54 0 0 1 .445-.224.72.72 0 0 1 .493.165q.199.163.199.492a1 1 0 0 1-.012.14q0 .07-.012.13a2.7 2.7 0 0 1 .317-.376q.188-.2.398-.351.223-.165.469-.258a1.2 1.2 0 0 1 .492-.106q.234 0 .422.13.187.128.328.327.14.188.235.41.093.224.128.422a3 3 0 0 1 .282-.422 2.5 2.5 0 0 1 .375-.386q.2-.165.433-.27.246-.105.504-.105.246 0 .422.176t.305.457q.129.27.199.62.07.34.117.68.047.33.059.621.011.281.011.446m5.754 2.215q0 .21-.023.55-.012.34-.094.668-.081.317-.258.551a.58.58 0 0 1-.492.235q-.434 0-.668-.282t-.222-.703q-.376.328-.856.516a2.6 2.6 0 0 1-.961.187q-.34 0-.644-.164a2.1 2.1 0 0 1-.914-.996 1.6 1.6 0 0 1-.141-.644q0-.563.34-.985.351-.422.855-.715a5 5 0 0 1 1.067-.48 6.4 6.4 0 0 1 1.019-.234v-.106a.4.4 0 0 0 .012-.105q0-.364-.199-.586-.2-.223-.563-.223-.292 0-.504.106-.21.093-.398.222-.187.118-.375.223a.9.9 0 0 1-.422.094.65.65 0 0 1-.445-.165.55.55 0 0 1-.176-.421q0-.387.223-.704.234-.315.574-.527.351-.222.75-.34.41-.129.75-.129.316 0 .633.082.316.07.597.235a2 2 0 0 1 .504.386q.234.224.375.528.211.433.34.926.129.48.199.996.07.503.094 1.02.024.502.023.984m-1.875-.375-.035-.797h-.047a.1.1 0 0 0-.047-.012q-.152 0-.386.082a1.7 1.7 0 0 0-.434.211q-.21.13-.363.293a.52.52 0 0 0-.141.34q0 .164.117.222.118.06.27.06.257 0 .551-.13a8 8 0 0 0 .515-.27m5.907 2.355q-.2 0-.317-.187a1.3 1.3 0 0 1-.176-.41 3 3 0 0 1-.082-.47 7 7 0 0 1 .024-1.078l.094-.703q.058-.35.093-.703a5 5 0 0 0 .036-1.008 1.3 1.3 0 0 0-.059-.304.5.5 0 0 0-.129-.246.33.33 0 0 0-.246-.094q-.106 0-.234.176-.129.165-.247.386a4 4 0 0 0-.187.434q-.07.21-.07.317v.527q.01.257.011.527v.68q-.01.21-.035.434a4 4 0 0 1-.07.433q-.036.21-.106.41a1.3 1.3 0 0 1-.187.34.9.9 0 0 1-.258.234.7.7 0 0 1-.363.094.53.53 0 0 1-.387-.152 1.2 1.2 0 0 1-.246-.387 3 3 0 0 1-.141-.539 18 18 0 0 1-.058-.586 13 13 0 0 1-.012-.527q.012-.246.012-.387v-.55q0-.446-.024-.88-.01-.434-.011-.867v-.598q.011-.363.093-.703a1.6 1.6 0 0 1 .27-.597q.188-.246.551-.246.164 0 .293.105t.222.258q.106.152.164.328.07.176.106.305a2.6 2.6 0 0 1 .269-.317 2 2 0 0 1 .364-.27 1.9 1.9 0 0 1 1.007-.257q.599 0 .926.293.34.282.492.715.165.422.2.914t.035.89q0 .2-.035.598a11 11 0 0 1-.118.867 10 10 0 0 1-.199.973 6.5 6.5 0 0 1-.304.902 2.2 2.2 0 0 1-.422.668q-.235.258-.539.258m5.004.094q-.833 0-1.301-.223a1.5 1.5 0 0 1-.692-.61 2.35 2.35 0 0 1-.269-.96 15 15 0 0 1-.047-1.254q0-.55.035-1.102.036-.562.106-1.195-.165 0-.258.012h-.153q-.374 0-.644-.164a.54.54 0 0 1-.281-.504q0-.21.164-.375.152-.165.398-.281.246-.118.527-.188a4 4 0 0 1 .551-.094q0-.327.047-.726t.164-.739q.129-.352.34-.585a.7.7 0 0 1 .539-.235q.187 0 .328.117.153.106.246.282.095.163.141.375.047.21.047.41 0 .234-.035.48a6 6 0 0 1-.129.61q.199-.024.269-.024a1 1 0 0 1 .129-.011q.2 0 .41.035.224.035.399.117a.8.8 0 0 1 .304.222.45.45 0 0 1 .118.317q0 .21-.176.375-.164.165-.422.281-.257.117-.551.188a5 5 0 0 1-.551.082q-.07.48-.105.89-.023.4-.059.809l-.046.41a7 7 0 0 0 0 .773q.011.2.082.387a.84.84 0 0 0 .222.328q.153.13.422.13.164 0 .34-.024.175-.035.351-.035.306 0 .434.21.141.21.141.54a.67.67 0 0 1-.153.433 1 1 0 0 1-.363.281 2 2 0 0 1-.504.176 2.4 2.4 0 0 1-.515.059m6.679-2.508q0 .399-.258.785-.246.375-.632.68-.375.293-.809.48a2.1 2.1 0 0 1-.797.176 2.07 2.07 0 0 1-1.113-.304 2.9 2.9 0 0 1-.809-.797 3.9 3.9 0 0 1-.504-1.055 4.2 4.2 0 0 1-.164-1.137q0-.585.164-1.254.165-.667.493-1.23.339-.563.843-.938.516-.375 1.219-.375.399 0 .762.14a1.85 1.85 0 0 1 1.066.962q.164.339.164.762 0 .55-.234 1.03-.234.482-.621.833a3.3 3.3 0 0 1-.891.574q-.504.21-1.031.235.047.339.269.492a1 1 0 0 0 .551.152 1 1 0 0 0 .457-.117q.223-.117.434-.258a5 5 0 0 1 .41-.27.86.86 0 0 1 .422-.117q.234 0 .422.153a.49.49 0 0 1 .187.398m-1.898-2.871a.7.7 0 0 0-.082-.316.27.27 0 0 0-.258-.165.68.68 0 0 0-.434.141q-.175.13-.293.34-.117.199-.187.434-.059.234-.07.433.164-.034.386-.094.235-.059.434-.152.212-.105.351-.258a.5.5 0 0 0 .153-.363m6.433.574a.8.8 0 0 1-.281-.023l-.234-.094a3 3 0 0 0-.211-.082.5.5 0 0 0-.235-.035.86.86 0 0 0-.421.129 1.6 1.6 0 0 0-.329.293q-.14.176-.246.398-.105.21-.164.422a3 3 0 0 0-.058.434q-.012.28-.012.609-.012.34-.012.644 0 .306-.023.481a4 4 0 0 1-.059.445q-.047.246-.152.469a1.1 1.1 0 0 1-.258.375.6.6 0 0 1-.422.152.56.56 0 0 1-.351-.117 1.1 1.1 0 0 1-.246-.305 3 3 0 0 1-.165-.456 6 6 0 0 1-.093-.528 13 13 0 0 1-.059-.562l-.023-.528v-.469q.012-.21.011-.34a14 14 0 0 0-.046-.82 15 15 0 0 1-.024-.832q0-.257.024-.574.023-.316.128-.586.106-.281.305-.469.211-.187.574-.187.2 0 .34.129a.9.9 0 0 1 .223.316q.093.187.14.399.047.211.059.386a2.9 2.9 0 0 1 .633-.738q.351-.292.914-.316.28-.012.551.058.28.06.504.211.234.141.375.375.152.234.164.551.023.375-.223.574a.97.97 0 0 1-.598.211m7.254-2.062q0 .339-.234.504-.223.163-.504.316a2.6 2.6 0 0 0-.516.34q-.222.2-.222.597 0 .211.093.364.106.152.247.281.152.117.328.246.175.13.316.293.153.165.246.398.106.235.106.575 0 .492-.258.972a3.2 3.2 0 0 1-.645.844q-.386.364-.879.586a2.35 2.35 0 0 1-.972.223q-.2 0-.399-.035a1.1 1.1 0 0 1-.363-.106.8.8 0 0 1-.258-.222.67.67 0 0 1-.105-.387q0-.328.129-.504a.9.9 0 0 1 .328-.293q.199-.105.422-.164.234-.06.433-.14.2-.094.328-.235.129-.141.129-.399 0-.246-.199-.503a11 11 0 0 0-.422-.563 6 6 0 0 1-.433-.645 1.5 1.5 0 0 1-.188-.75q0-.503.199-.925.212-.435.551-.75.351-.316.797-.492a2.4 2.4 0 0 1 .937-.188q.188 0 .364.035a.9.9 0 0 1 .328.129.6.6 0 0 1 .223.234.65.65 0 0 1 .093.364m5.602 3.093q0 .645-.129 1.278a3.6 3.6 0 0 1-.434 1.136 2.36 2.36 0 0 1-.82.797q-.504.305-1.266.305-.75 0-1.253-.293a2.4 2.4 0 0 1-.809-.797 3.6 3.6 0 0 1-.422-1.113 7 7 0 0 1-.117-1.266q0-.702.164-1.394.035-.187.129-.516.105-.34.258-.656.163-.328.363-.563.211-.234.457-.234.234 0 .375.129a.9.9 0 0 1 .223.328q.081.188.105.41.024.21.024.387 0 .27-.047.527-.036.258-.082.516l-.094.703a7 7 0 0 0-.024 1.102q.024.21.094.41a1 1 0 0 0 .199.34.5.5 0 0 0 .364.129q.305 0 .48-.165a.9.9 0 0 0 .27-.41q.093-.246.117-.527a7 7 0 0 0 .023-.516 7 7 0 0 0-.07-1.007q-.07-.504-.129-1.02a1.1 1.1 0 0 1 .047-.516q.059-.175.164-.316a.8.8 0 0 1 .258-.223.64.64 0 0 1 .34-.094q.258 0 .457.188.2.176.328.469.141.28.222.644.095.353.141.703.059.34.07.645.024.304.024.48m5.695 1.7q0 .21-.023.55-.012.34-.094.668-.082.317-.258.551a.58.58 0 0 1-.492.235q-.434 0-.668-.282t-.223-.703q-.375.328-.855.516a2.6 2.6 0 0 1-.961.187q-.34 0-.645-.164a2 2 0 0 1-.539-.422 2.2 2.2 0 0 1-.375-.574 1.6 1.6 0 0 1-.14-.644q0-.563.34-.985.351-.422.855-.715a5 5 0 0 1 1.066-.48 6.4 6.4 0 0 1 1.02-.234v-.106a.4.4 0 0 0 .012-.105q0-.364-.2-.586-.198-.223-.562-.223-.293 0-.504.106a2.5 2.5 0 0 0-.398.222q-.188.118-.375.223a.9.9 0 0 1-.422.094.66.66 0 0 1-.446-.165.55.55 0 0 1-.175-.421q0-.387.222-.704.235-.315.575-.527.351-.222.75-.34.41-.129.75-.129.315 0 .632.082.317.07.598.235.281.152.504.386.234.224.375.528.211.433.34.926.129.48.199.996.07.503.094 1.02.023.502.023.984m-1.875-.375-.035-.797h-.047a.1.1 0 0 0-.047-.012q-.152 0-.386.082a1.7 1.7 0 0 0-.434.211 1.7 1.7 0 0 0-.363.293.52.52 0 0 0-.141.34q0 .164.117.222.117.06.27.06.257 0 .551-.13a8 8 0 0 0 .515-.27m6.012-4.418q0 .339-.234.504-.224.163-.504.316-.282.14-.516.34-.223.2-.223.597 0 .211.094.364.105.152.246.281.153.117.328.246a2 2 0 0 1 .317.293q.151.165.246.398.105.235.105.575 0 .492-.258.972a3.2 3.2 0 0 1-1.523 1.43 2.35 2.35 0 0 1-.973.223q-.198 0-.398-.035a1.1 1.1 0 0 1-.363-.106.8.8 0 0 1-.258-.222.67.67 0 0 1-.106-.387q0-.328.129-.504a.9.9 0 0 1 .328-.293q.2-.105.422-.164.235-.06.434-.14.2-.094.328-.235.129-.141.129-.399 0-.246-.199-.503a11 11 0 0 0-.422-.563 6 6 0 0 1-.434-.645 1.5 1.5 0 0 1-.187-.75q0-.503.199-.925.211-.435.551-.75.351-.316.797-.492.445-.188.937-.188.188 0 .363.035a.9.9 0 0 1 .328.129.6.6 0 0 1 .223.234.64.64 0 0 1 .094.364M76.072 88.5a.7.7 0 0 1-.047.246q-.105.27-.328.457a.83.83 0 0 1-.527.176q-.457 0-.621-.457a.4.4 0 0 1-.024-.129q0-.083-.011-.164v-.34a.7.7 0 0 0-.082-.258q-.06-.094-.2-.094-.198 0-.386.258a2.8 2.8 0 0 0-.317.598q-.129.339-.21.703a2.8 2.8 0 0 0-.083.586q0 .176.024.434.023.246.093.48t.188.41a.4.4 0 0 0 .328.164q.2 0 .363-.117.176-.13.34-.293.153-.14.328-.293a.65.65 0 0 1 .422-.152q.294 0 .457.21.176.212.176.481 0 .399-.21.75-.212.34-.528.598-.316.246-.703.387a2 2 0 0 1-.739.152q-.632 0-1.078-.316a2.5 2.5 0 0 1-.703-.797 3.8 3.8 0 0 1-.387-1.067 5.5 5.5 0 0 1-.117-1.09q0-.597.164-1.289a4.8 4.8 0 0 1 .504-1.3q.34-.598.867-.996.54-.399 1.278-.399.456 0 .785.2.34.198.55.527.224.315.329.715.117.398.117.785v.117q0 .059-.012.117m5.567 2.414q0 .398-.258.785-.246.375-.633.68-.375.293-.809.48-.433.177-.796.176-.622 0-1.114-.304a2.9 2.9 0 0 1-.808-.797 3.9 3.9 0 0 1-.504-1.055q-.165-.586-.164-1.137 0-.585.164-1.254.164-.667.492-1.23.34-.563.844-.938.516-.375 1.219-.375.398 0 .761.14a1.84 1.84 0 0 1 1.067.962q.164.339.164.762 0 .55-.235 1.03-.234.482-.62.833a3.3 3.3 0 0 1-.891.574 3 3 0 0 1-1.032.235q.047.339.27.492.235.152.55.152a1 1 0 0 0 .458-.117 5 5 0 0 0 .433-.258q.211-.152.41-.27a.86.86 0 0 1 .422-.117q.235 0 .422.153a.49.49 0 0 1 .188.398m-1.899-2.871a.7.7 0 0 0-.082-.316.27.27 0 0 0-.258-.165.67.67 0 0 0-.433.141 1.04 1.04 0 0 0-.293.34q-.117.199-.188.434-.058.234-.07.433.164-.034.387-.094.234-.059.433-.152.211-.105.352-.258a.5.5 0 0 0 .152-.363m.657-4.16a.54.54 0 0 1-.07.258 1.2 1.2 0 0 1-.177.222q-.093.105-.21.2a8 8 0 0 0-.212.152q-.082.059-.187.14a3 3 0 0 1-.21.141 2 2 0 0 1-.224.106.5.5 0 0 1-.21.046.3.3 0 0 1-.165-.046.2.2 0 0 1-.07-.165q0-.175.129-.421.14-.258.34-.493.199-.245.422-.41.222-.175.41-.175a.4.4 0 0 1 .293.14.4.4 0 0 1 .14.305m3.902 2.015q0 .633-.059 1.278-.047.633-.047 1.277 0 .833.047 1.664.06.833.059 1.676 0 .21-.024.48a1.6 1.6 0 0 1-.117.48.9.9 0 0 1-.258.376.7.7 0 0 1-.468.152q-.282 0-.493-.281a2.5 2.5 0 0 1-.34-.691q-.128-.435-.222-.961a17 17 0 0 1-.129-1.02q-.035-.504-.059-.914a25 25 0 0 1-.011-.621q0-.223.011-.645.024-.42.083-.914.058-.492.152-.996.105-.516.27-.925.164-.422.386-.68a.71.71 0 0 1 .55-.27q.26 0 .388.176.14.165.199.41.058.235.07.504.012.258.012.445m6.023 3.75q0 .645-.129 1.278-.129.632-.433 1.136a2.36 2.36 0 0 1-.82.797q-.505.305-1.266.305-.75 0-1.254-.293a2.4 2.4 0 0 1-.809-.797 3.6 3.6 0 0 1-.422-1.113 7 7 0 0 1-.117-1.266q0-.702.164-1.394a4.8 4.8 0 0 1 .387-1.172q.164-.328.363-.563.211-.234.457-.234.236 0 .375.129a.9.9 0 0 1 .223.328q.082.188.106.41.023.21.023.387 0 .27-.047.527-.034.258-.082.516l-.094.703a7 7 0 0 0-.023 1.102q.023.21.094.41a1 1 0 0 0 .199.34.5.5 0 0 0 .363.129q.305 0 .48-.165a.9.9 0 0 0 .27-.41q.094-.246.117-.527t.024-.516q0-.516-.07-1.007-.07-.504-.13-1.02a1.1 1.1 0 0 1 .047-.516q.06-.175.164-.316a.8.8 0 0 1 .258-.223.64.64 0 0 1 .34-.094q.258 0 .457.188.2.176.328.469.14.28.223.644.094.353.14.703.06.34.07.645.024.305.024.48m2.906-3.75q0 .633-.058 1.278-.047.633-.047 1.277 0 .833.047 1.664.058.833.058 1.676 0 .21-.023.48a1.6 1.6 0 0 1-.117.48.9.9 0 0 1-.258.376.7.7 0 0 1-.469.152q-.28 0-.492-.281a2.5 2.5 0 0 1-.34-.691q-.129-.435-.222-.961a18 18 0 0 1-.13-1.02 76 76 0 0 1-.058-.914 25 25 0 0 1-.012-.621q0-.223.012-.645.024-.42.082-.914.06-.492.153-.996.105-.516.269-.925.164-.422.387-.68a.71.71 0 0 1 .55-.27q.258 0 .387.176.14.165.2.41.057.235.07.504.011.258.011.445m5.872 5.45q0 .21-.024.55a3.2 3.2 0 0 1-.094.668 1.6 1.6 0 0 1-.257.551.58.58 0 0 1-.493.235q-.433 0-.668-.282-.234-.281-.222-.703-.375.328-.856.516a2.6 2.6 0 0 1-.96.187 1.34 1.34 0 0 1-.645-.164 2 2 0 0 1-.54-.422 2.1 2.1 0 0 1-.374-.574 1.6 1.6 0 0 1-.14-.644q0-.563.339-.985.352-.422.856-.715a5 5 0 0 1 1.066-.48 6.4 6.4 0 0 1 1.02-.234v-.106a.4.4 0 0 0 .011-.105q0-.364-.2-.586-.198-.223-.562-.223-.292 0-.504.106-.21.093-.398.222-.188.118-.375.223a.9.9 0 0 1-.422.094.65.65 0 0 1-.445-.165.55.55 0 0 1-.176-.421q0-.387.223-.704.234-.315.574-.527a3 3 0 0 1 .75-.34q.41-.129.75-.129.316 0 .633.082.316.07.597.235.282.152.504.386.236.224.375.528.211.433.34.926.13.48.2.996.07.503.093 1.02.024.502.024.984m-1.875-.375-.035-.797h-.047a.1.1 0 0 0-.047-.012q-.152 0-.387.082a1.7 1.7 0 0 0-.434.211q-.21.13-.363.293a.52.52 0 0 0-.14.34q0 .164.117.222.117.06.27.06.257 0 .55-.13a8 8 0 0 0 .516-.27m6.011-4.418q0 .339-.234.504-.222.163-.504.316a2.6 2.6 0 0 0-.516.34q-.222.2-.222.597 0 .211.094.364.105.152.246.281.152.117.328.246.175.13.316.293.153.165.246.398.106.235.106.575 0 .492-.258.972a3.2 3.2 0 0 1-.645.844q-.385.364-.879.586a2.35 2.35 0 0 1-.972.223 2.3 2.3 0 0 1-.399-.035 1.1 1.1 0 0 1-.363-.106.8.8 0 0 1-.258-.222.66.66 0 0 1-.105-.387q0-.328.129-.504a.9.9 0 0 1 .328-.293 2 2 0 0 1 .422-.164q.234-.06.433-.14.2-.094.328-.235.129-.141.129-.399 0-.246-.199-.503a11 11 0 0 0-.422-.563 6 6 0 0 1-.433-.645 1.5 1.5 0 0 1-.188-.75q0-.503.2-.925.21-.435.55-.75.352-.317.797-.492.445-.188.938-.188.188 0 .363.035a.9.9 0 0 1 .328.129.6.6 0 0 1 .223.234.65.65 0 0 1 .093.364m6.621 6.773q-.199 0-.316-.187a1.3 1.3 0 0 1-.176-.41 3 3 0 0 1-.082-.47 7 7 0 0 1 .024-1.078l.093-.703q.059-.35.094-.703.047-.35.047-.703 0-.14-.012-.305a1.3 1.3 0 0 0-.058-.304.5.5 0 0 0-.129-.246.33.33 0 0 0-.246-.094q-.106 0-.235.176-.129.165-.246.386-.105.212-.187.434-.07.21-.071.317v.527q.012.257.012.527v.68q-.012.21-.035.434a4 4 0 0 1-.07.433q-.036.21-.106.41a1.3 1.3 0 0 1-.187.34 1 1 0 0 1-.258.234.7.7 0 0 1-.363.094.52.52 0 0 1-.387-.152 1.1 1.1 0 0 1-.246-.387 2.7 2.7 0 0 1-.141-.539 18 18 0 0 1-.058-.586 13 13 0 0 1-.012-.527q.012-.246.012-.387v-.55q0-.446-.024-.88a31 31 0 0 1-.012-.867v-.598q.012-.363.094-.703a1.6 1.6 0 0 1 .27-.597q.187-.246.55-.246.165 0 .293.105.13.105.223.258a1.3 1.3 0 0 1 .164.328q.07.176.106.305a2.6 2.6 0 0 1 .269-.317q.165-.151.363-.27a1.9 1.9 0 0 1 1.008-.257q.598 0 .926.293.34.282.492.715.165.422.199.914.036.492.036.89 0 .2-.036.598-.035.387-.117.867a10 10 0 0 1-.199.973 6 6 0 0 1-.305.902 2.2 2.2 0 0 1-.422.668.7.7 0 0 1-.539.258m7.407-3.68q0 .645-.129 1.278a3.6 3.6 0 0 1-.434 1.136 2.36 2.36 0 0 1-.82.797q-.504.305-1.266.305-.75 0-1.254-.293a2.4 2.4 0 0 1-.808-.797 3.6 3.6 0 0 1-.422-1.113 7 7 0 0 1-.117-1.266q0-.702.164-1.394.034-.187.129-.516.105-.34.257-.656.165-.328.364-.563.21-.234.457-.234.234 0 .375.129a.9.9 0 0 1 .222.328q.082.188.106.41.024.21.023.387 0 .27-.047.527-.034.258-.082.516l-.093.703a7 7 0 0 0-.024 1.102q.024.21.094.41a1 1 0 0 0 .199.34.5.5 0 0 0 .363.129q.306 0 .481-.165a.9.9 0 0 0 .269-.41q.094-.246.118-.527a7 7 0 0 0 .023-.516 7 7 0 0 0-.07-1.007q-.07-.504-.129-1.02a1.1 1.1 0 0 1 .047-.516q.059-.175.164-.316a.8.8 0 0 1 .258-.223.65.65 0 0 1 .797.094q.199.175.328.469.14.28.222.644.094.353.141.703.058.34.07.645.024.305.024.48m3.445 3.774q-.832 0-1.301-.223a1.5 1.5 0 0 1-.691-.61 2.35 2.35 0 0 1-.27-.96 17 17 0 0 1-.011-2.356q.035-.562.105-1.195-.163 0-.258.012h-.152q-.375 0-.645-.164a.55.55 0 0 1-.281-.504q0-.21.164-.375.153-.164.399-.281.245-.118.527-.188.293-.07.551-.094 0-.327.047-.726t.164-.739q.129-.352.339-.585a.7.7 0 0 1 .54-.235q.187 0 .328.117.151.106.246.282.093.163.14.375.047.21.047.41 0 .234-.035.48a6 6 0 0 1-.129.61 3 3 0 0 1 .27-.024 1 1 0 0 1 .129-.011q.198 0 .41.035.222.035.398.117a.8.8 0 0 1 .305.222.45.45 0 0 1 .117.317q0 .21-.176.375-.164.165-.422.281-.257.117-.55.188a5 5 0 0 1-.551.082q-.07.48-.106.89-.023.4-.058.809l-.047.41a7 7 0 0 0 0 .773q.012.2.082.387a.84.84 0 0 0 .223.328q.152.13.422.13.163 0 .339-.024.177-.035.352-.035.305 0 .434.21.14.21.14.54a.67.67 0 0 1-.152.433 1 1 0 0 1-.363.281 2 2 0 0 1-.504.176q-.27.06-.516.059m5.836-4.805a.8.8 0 0 1-.281-.023l-.235-.094a2 2 0 0 0-.211-.082.46.46 0 0 0-.234-.035.9.9 0 0 0-.422.129 1.7 1.7 0 0 0-.328.293q-.141.176-.246.398-.105.21-.164.422a3 3 0 0 0-.059.434q-.011.28-.011.609-.012.34-.012.644 0 .306-.024.481a4 4 0 0 1-.058.445q-.046.246-.153.469a1.1 1.1 0 0 1-.257.375.6.6 0 0 1-.422.152.56.56 0 0 1-.352-.117 1.1 1.1 0 0 1-.246-.305 3 3 0 0 1-.164-.456 6 6 0 0 1-.094-.528 13 13 0 0 1-.058-.562l-.024-.528v-.469q.012-.21.012-.34a14 14 0 0 0-.047-.82 15 15 0 0 1-.023-.832q0-.257.023-.574.024-.316.129-.586.105-.281.305-.469.21-.187.574-.187.2 0 .34.129a.9.9 0 0 1 .222.316q.095.187.141.399.047.211.059.386.28-.456.632-.738.352-.292.914-.316a1.9 1.9 0 0 1 .551.058q.282.06.504.211.234.141.375.375.153.234.164.551.024.375-.222.574a.98.98 0 0 1-.598.211m2.93-3.797a.5.5 0 0 1-.094.293.9.9 0 0 1-.223.235 1.4 1.4 0 0 1-.304.152 1.1 1.1 0 0 1-.305.047.7.7 0 0 1-.41-.117q-.177-.118-.176-.364 0-.175.082-.304a.75.75 0 0 1 .223-.223.9.9 0 0 1 .293-.14q.163-.047.316-.047.222 0 .41.105t.188.363m.093 3.985v.351q0 .175-.011.34a10 10 0 0 0-.012.54q0 .327-.024.714-.022.387-.082.785a3.2 3.2 0 0 1-.164.727 1.5 1.5 0 0 1-.316.539.67.67 0 0 1-.48.21.43.43 0 0 1-.375-.175 1.6 1.6 0 0 1-.258-.48 4 4 0 0 1-.141-.668q-.047-.375-.07-.715a10 10 0 0 1-.024-.645v-.961q0-.351.024-.75a10 10 0 0 1 .082-.808q.07-.411.187-.75a1.7 1.7 0 0 1 .328-.551.66.66 0 0 1 .504-.211q.316 0 .481.316t.246.739q.082.42.094.843.01.41.011.61m5.883-3.516q0 .855-.07 1.7a25 25 0 0 0-.059 1.698q0 .692.035 1.372.048.68.047 1.37 0 .189-.011.458-.013.258-.082.504a1 1 0 0 1-.211.421q-.141.177-.411.176a.76.76 0 0 1-.585-.257 1.3 1.3 0 0 1-.282-.598q-.222.422-.644.715a1.57 1.57 0 0 1-.914.293q-.528 0-.914-.364a3.2 3.2 0 0 1-.633-.879 5.2 5.2 0 0 1-.375-1.078 5 5 0 0 1-.117-.972 7 7 0 0 1 .152-1.43q.094-.387.234-.75.14-.375.352-.668.222-.293.516-.469.304-.175.691-.175.422 0 .809.246.386.246.585.609l.106-1.863q.012-.223.035-.516.024-.304.094-.574.083-.27.246-.457.164-.188.48-.188.34 0 .528.164a.9.9 0 0 1 .269.422q.094.246.106.54.023.292.023.55m-1.91 5.203q0-.27-.012-.527a6 6 0 0 1 0-.528 6 6 0 0 0-.164-.328 1.4 1.4 0 0 0-.234-.34q-.13-.164-.293-.269a.64.64 0 0 0-.352-.106.46.46 0 0 0-.34.13.8.8 0 0 0-.187.316 2 2 0 0 0-.082.387q-.012.21-.012.363a5.4 5.4 0 0 0 .106.972q.07.282.187.493.117.21.317.21a.8.8 0 0 0 .304-.058q.153-.07.282-.164.14-.105.257-.223.13-.129.223-.234zm7.664.856q0 .21-.023.55-.012.34-.094.668-.083.317-.258.551a.58.58 0 0 1-.492.235q-.434 0-.668-.282a1 1 0 0 1-.223-.703q-.375.328-.855.516a2.6 2.6 0 0 1-.961.187 1.34 1.34 0 0 1-.645-.164 2 2 0 0 1-.539-.422 2.2 2.2 0 0 1-.375-.574 1.6 1.6 0 0 1-.14-.644q0-.563.339-.985.352-.422.856-.715a5 5 0 0 1 1.066-.48 6.4 6.4 0 0 1 1.02-.234v-.106a.4.4 0 0 0 .012-.105q0-.364-.2-.586-.198-.223-.562-.223-.292 0-.504.106a2.5 2.5 0 0 0-.398.222q-.188.118-.375.223a.9.9 0 0 1-.422.094.66.66 0 0 1-.446-.165.55.55 0 0 1-.175-.421q0-.387.222-.704.235-.315.574-.527.353-.222.75-.34.411-.129.75-.129.317 0 .633.082.316.07.598.235.28.152.504.386.234.224.375.528.21.433.34.926.129.48.199.996.07.503.094 1.02.023.502.023.984m-1.875-.375-.035-.797h-.047a.1.1 0 0 0-.047-.012q-.151 0-.387.082a1.7 1.7 0 0 0-.433.211 1.7 1.7 0 0 0-.363.293.52.52 0 0 0-.141.34q0 .164.117.222.117.06.27.06.258 0 .55-.13.294-.14.516-.27m6.012-4.418q0 .339-.235.504a4 4 0 0 1-.503.316q-.282.14-.516.34-.223.2-.223.597 0 .211.094.364.105.152.246.281.153.117.328.246a2 2 0 0 1 .317.293q.151.165.246.398.105.235.105.575 0 .492-.258.972a3.2 3.2 0 0 1-1.523 1.43 2.35 2.35 0 0 1-.973.223q-.199 0-.398-.035a1.1 1.1 0 0 1-.363-.106.8.8 0 0 1-.258-.222.66.66 0 0 1-.106-.387q0-.328.129-.504a.9.9 0 0 1 .328-.293q.2-.105.422-.164.234-.06.434-.14.2-.094.328-.235.129-.141.129-.399 0-.246-.199-.503a11 11 0 0 0-.422-.563 6 6 0 0 1-.434-.645 1.5 1.5 0 0 1-.187-.75q0-.503.199-.925.21-.435.551-.75.352-.317.796-.492.446-.188.938-.188.188 0 .363.035a.9.9 0 0 1 .328.129.6.6 0 0 1 .223.234.64.64 0 0 1 .094.364m2.168 5.882a.6.6 0 0 1-.071.282.64.64 0 0 1-.187.199.8.8 0 0 1-.246.129.8.8 0 0 1-.27.047q-.176 0-.386-.07a1.4 1.4 0 0 1-.375-.176 1.3 1.3 0 0 1-.282-.27.6.6 0 0 1-.117-.363q0-.316.27-.469a1.04 1.04 0 0 1 .914-.105q.2.058.363.175.176.105.281.27a.6.6 0 0 1 .106.352"/><defs><filter id="a" width="218.012" height="141" x="0" y="0" color-interpolation-filters="sRGB" filterUnits="userSpaceOnUse"><feFlood flood-opacity="0" result="BackgroundImageFix"/><feBlend in="SourceGraphic" in2="BackgroundImageFix" result="shape"/><feColorMatrix in="SourceAlpha" result="hardAlpha" values="0 0 0 0 0 0 0 0 0 0 0 0 0 0 0 0 0 0 127 0"/><feOffset dy="4"/><feGaussianBlur stdDeviation="2"/><feComposite in2="hardAlpha" k2="-1" k3="1" operator="arithmetic"/><feColorMatrix values="0 0 0 0 0 0 0 0 0 0 0 0 0 0 0 0 0 0 0.25 0"/><feBlend in2="shape" result="effect1_innerShadow_871_287"/></filter></defs></svg>