<svg xmlns="http://www.w3.org/2000/svg" width="251" height="142" fill="none" viewBox="0 0 251 142"><g filter="url(#a)"><path fill="#3dc3ff" fill-rule="evenodd" d="M35.509 90.336C11.486 81.038 1 67.316 1 52.466 1 34.191 22.15 16.14 57.136 7.214 74.106 2.885 94.042 1 116.95 1c70.137 0 134.817 18.644 132.056 51.465 0 16.286-11.971 31.261-36.351 40.201-13.293 4.875-30.11 7.754-51.151 8.639-8.277 17.038-20.39 25.811-40.264 39.695 14.574-16.182 23.504-26.615 26.735-39.401l-1.116.001c-49.713 2.914-87.31-1.96-111.351-11.264" clip-rule="evenodd"/></g><path fill="#3dc3ff" d="m35.509 90.336-.361.933zM57.136 7.215l.247.969zm191.871 45.25-.996-.084-.004.084zm-36.351 40.201.345.94zm-51.151 8.639-.042-.999a1 1 0 0 0-.858.562zM121.241 141l-.743-.669a1 1 0 0 0 1.316 1.489zm26.735-39.401.969.245a1 1 0 0 0-.972-1.245zm-1.116.001v-1l-.059.002zM1 52.465H0c0 15.436 10.93 29.43 35.148 38.804l.36-.933.362-.933C12.042 80.181 2 66.732 2 52.465zm56.136-45.25-.248-.97c-17.592 4.489-31.77 11.287-41.574 19.316C5.52 33.584 0 42.921 0 52.465h2c0-8.73 5.055-17.554 14.581-25.357C26.1 19.312 39.99 12.621 57.384 8.184zM116.95 1V0C93.994 0 73.967 1.889 56.888 6.246l.248.969.247.969C74.243 3.882 94.09 2 116.95 2zm132.056 51.465.997.084c.722-8.587-2.988-16.188-9.918-22.7-6.911-6.495-17.072-11.96-29.435-16.366C185.917 4.668 152.09 0 116.951 0v2c34.998 0 68.579 4.654 93.029 13.367 12.229 4.358 22.105 9.707 28.736 15.94 6.613 6.214 9.953 13.252 9.295 21.075zm-36.351 40.201.345.94c24.593-9.02 37.006-24.272 37.006-41.14h-2c0 15.701-11.529 30.4-35.695 39.262zm-51.151 8.639.042 1c21.101-.888 38.03-3.777 51.454-8.7l-.345-.939-.344-.938c-13.163 4.827-29.869 7.696-50.849 8.578zm0 0-.9-.437c-8.147 16.772-20.04 25.413-39.937 39.312l.573.82.573.82c19.851-13.868 32.184-22.774 40.59-40.078zM121.241 141l.743.669c14.532-16.135 23.658-26.754 26.961-39.825l-.969-.245-.97-.245c-3.159 12.5-11.891 22.747-26.508 38.977zm25.619-39.4v1l1.118-.001-.002-1-.003-1-1.113.001zM35.509 90.336l-.361.933c24.228 9.377 61.987 14.248 111.77 11.329l-.058-.998-.059-.998c-49.64 2.91-87.077-1.967-110.931-11.199z"/><path fill="#fff" d="M64.9 28.398q0 .36-.235.625a1.8 1.8 0 0 1-.53.437q-.282.172-.579.375-.297.188-.547.438a2 2 0 0 0-.406.531 1.4 1.4 0 0 0-.156.672q0 .329.156.594.156.266.375.531l.5.531q.28.265.5.61.234.327.39.75.157.422.157.984 0 .39-.172.89-.156.486-.438.985a6.5 6.5 0 0 1-.672.969q-.374.468-.812.844-.422.36-.89.578a2 2 0 0 1-.907.234 1.45 1.45 0 0 1-.86-.266q-.374-.265-.374-.796 0-.36.172-.657.172-.312.421-.593.251-.282.547-.547.313-.265.563-.532.25-.265.422-.546.172-.297.172-.625 0-.454-.329-.922a14 14 0 0 0-.703-.985q-.39-.515-.718-1.047a2.1 2.1 0 0 1-.313-1.078q0-.672.36-1.406.358-.75.921-1.36a5.2 5.2 0 0 1 1.266-1.03q.703-.407 1.39-.407.548 0 .938.328.39.33.39.89m3.125.062a.65.65 0 0 1-.125.391 1.2 1.2 0 0 1-.297.313q-.187.124-.406.203a1.5 1.5 0 0 1-.407.062.96.96 0 0 1-.547-.156q-.234-.157-.234-.484a.74.74 0 0 1 .11-.407q.125-.187.296-.297.172-.124.391-.187t.422-.063q.297 0 .547.141t.25.484m.125 5.313v.469q0 .234-.016.453-.016.265-.016.719 0 .437-.03.953a12 12 0 0 1-.11 1.047 4.4 4.4 0 0 1-.219.968 2 2 0 0 1-.422.72.9.9 0 0 1-.64.28.58.58 0 0 1-.5-.234 2.2 2.2 0 0 1-.344-.64 5.4 5.4 0 0 1-.188-.891 17 17 0 0 1-.093-.953q-.032-.47-.032-.86v-1.281q0-.47.032-1 .03-.531.109-1.078a6.4 6.4 0 0 1 .25-1 2.2 2.2 0 0 1 .438-.735.88.88 0 0 1 .671-.28q.422 0 .641.421.219.422.328.984t.125 1.125q.016.548.016.813m10.593.437v.813q0 .5-.03 1.094-.016.594-.094 1.203a5.3 5.3 0 0 1-.25 1.078q-.157.484-.407.797a.78.78 0 0 1-.64.312.6.6 0 0 1-.532-.28 2.2 2.2 0 0 1-.25-.688 5 5 0 0 1-.093-.797v-.64q0-.704.046-1.376.047-.672.047-1.375v-.281q0-.204-.03-.406a1.2 1.2 0 0 0-.11-.36q-.063-.156-.203-.156-.282 0-.454.297a2.7 2.7 0 0 0-.28.672q-.11.39-.157.78-.047.375-.062.563-.032.204-.063.61-.015.406-.062.89a9 9 0 0 1-.126 1 6 6 0 0 1-.218.922q-.126.407-.328.672-.204.266-.5.266a.64.64 0 0 1-.579-.328 2.4 2.4 0 0 1-.296-.766 6 6 0 0 1-.125-.89q-.016-.454-.016-.704v-.515q.016-.25.016-.516v-.36q0-.249-.016-.546 0-.313-.031-.64a5 5 0 0 0-.063-.595 1.5 1.5 0 0 0-.14-.453q-.094-.171-.22-.172-.203 0-.374.266-.172.25-.297.61-.125.343-.203.687-.063.344-.063.5v.094q0 .75.094 1.468.094.72.094 1.47 0 .436-.281.812-.281.36-.782.36a.76.76 0 0 1-.593-.267 2.3 2.3 0 0 1-.391-.718 6 6 0 0 1-.25-.953 12 12 0 0 1-.11-1.032q-.03-.514-.046-.922v-.625q0-.234-.016-.687 0-.453.016-.984.03-.532.093-1.079.063-.562.204-1.015t.359-.735a.73.73 0 0 1 .594-.296q.406 0 .656.218.266.219.266.657 0 .093-.016.187 0 .094-.016.172a3.6 3.6 0 0 1 .422-.5 3.7 3.7 0 0 1 .531-.469q.297-.218.626-.344.327-.14.656-.14a.97.97 0 0 1 .562.172q.25.171.438.437.188.251.312.547.125.297.172.563.157-.282.375-.563.234-.297.5-.516.266-.218.578-.359a1.7 1.7 0 0 1 .672-.14q.328 0 .563.234t.406.61q.171.359.266.827.093.453.156.907.061.436.078.828.016.375.016.593m3.282 4.329q0 .25-.14.64-.126.39-.329.766-.187.375-.437.64-.25.267-.485.266-.312 0-.312-.312 0-.187.078-.36.078-.171.172-.344a3 3 0 0 0 .171-.328.7.7 0 0 0 .079-.312.9.9 0 0 1-.5.156.79.79 0 0 1-.61-.281.92.92 0 0 1-.25-.625q0-.501.328-.797.33-.312.828-.313.564 0 .985.297t.422.907m11.843-1.329q0 .39-.328.735-.312.343-.828.625a7 7 0 0 1-1.125.5q-.624.203-1.234.344-.61.156-1.156.234a6 6 0 0 1-.844.078 3.6 3.6 0 0 1-.64-.062 1.05 1.05 0 0 1-.548-.235q-.125-.093-.218-.422-.094-.328-.188-.78a20 20 0 0 1-.14-.97 44 44 0 0 1-.11-1.03q-.031-.501-.062-.923a19 19 0 0 1 0-1.594q.03-.562.078-1.187.047-.641.125-1.297t.172-1.234q.109-.594.25-1.063.156-.468.328-.734.297-.422.75-.422.312 0 .531.219.219.202.344.547.14.327.203.75.078.405.11.812.03.405.03.75v.547q0 1.218-.062 2.422a61 61 0 0 0-.047 2.406v.61q.704-.22 1.531-.407a6.6 6.6 0 0 1 1.578-.203q.267 0 .532.031.281.032.484.14.219.094.344.298.14.188.14.515m2.97-8.75a.65.65 0 0 1-.126.391 1.2 1.2 0 0 1-.297.313q-.187.124-.406.203a1.5 1.5 0 0 1-.406.062.96.96 0 0 1-.547-.156q-.234-.157-.234-.484a.74.74 0 0 1 .109-.407q.124-.187.297-.297.172-.124.39-.187.22-.063.422-.063.297 0 .547.141t.25.484m.124 5.313v.469q0 .234-.015.453-.016.265-.016.719 0 .437-.031.953a12 12 0 0 1-.11 1.047 4.4 4.4 0 0 1-.218.968 2 2 0 0 1-.422.72.9.9 0 0 1-.64.28.58.58 0 0 1-.5-.234 2.2 2.2 0 0 1-.345-.64 5.4 5.4 0 0 1-.187-.891 17 17 0 0 1-.094-.953q-.03-.47-.031-.86v-1.281q0-.47.031-1 .03-.531.11-1.078a6.4 6.4 0 0 1 .25-1 2.2 2.2 0 0 1 .437-.735.88.88 0 0 1 .672-.28q.422 0 .64.421.22.422.329.984.108.563.125 1.125.015.548.015.813m4.75 6.156q-1.11 0-1.734-.297a2 2 0 0 1-.922-.812q-.297-.531-.36-1.281-.062-.75-.062-1.672 0-.735.047-1.47.047-.75.14-1.593-.218 0-.343.016h-.203q-.5 0-.86-.219-.375-.219-.375-.672 0-.28.22-.5a1.7 1.7 0 0 1 .53-.375q.329-.156.703-.25.39-.093.735-.125 0-.437.062-.969.063-.531.22-.984.171-.468.452-.781a.92.92 0 0 1 .719-.313.66.66 0 0 1 .437.157q.203.14.329.375a1.8 1.8 0 0 1 .187.5q.063.281.063.546 0 .313-.047.641-.048.329-.172.813.266-.032.359-.032.094-.015.172-.015.265 0 .547.047.297.046.531.156.25.11.406.297a.6.6 0 0 1 .157.422.67.67 0 0 1-.235.5q-.219.218-.562.375a4 4 0 0 1-.735.25q-.39.078-.734.109a21 21 0 0 0-.141 1.187q-.03.532-.078 1.079l-.062.546a9 9 0 0 0 0 1.032q.016.266.109.515.095.25.297.438.203.171.563.172.218 0 .453-.032.234-.045.468-.046.406 0 .579.28.187.282.187.72a.9.9 0 0 1-.203.578 1.35 1.35 0 0 1-.484.375 2.6 2.6 0 0 1-.672.234q-.36.078-.688.078m9-2.765q0 .28-.031.734-.015.453-.125.89a2.1 2.1 0 0 1-.344.735q-.234.312-.656.312-.578 0-.891-.375-.312-.375-.297-.937-.5.437-1.14.687-.626.25-1.281.25-.454 0-.86-.218a2.7 2.7 0 0 1-.719-.563 2.9 2.9 0 0 1-.5-.765 2.2 2.2 0 0 1-.187-.86q0-.75.453-1.312a4.3 4.3 0 0 1 1.141-.953q.672-.407 1.422-.641a8.5 8.5 0 0 1 1.359-.313v-.14a.6.6 0 0 0 .016-.14q0-.486-.266-.782t-.75-.297q-.39 0-.672.14a3.3 3.3 0 0 0-.531.298q-.25.156-.5.296a1.24 1.24 0 0 1-.563.125.87.87 0 0 1-.593-.218.73.73 0 0 1-.235-.563q0-.516.297-.937.312-.423.766-.703a4 4 0 0 1 1-.454 3.4 3.4 0 0 1 1-.171q.422 0 .843.109.423.094.797.312.375.204.672.516.313.297.5.703.282.578.453 1.235.172.64.266 1.328.093.671.125 1.36.031.671.031 1.312m-2.5-.5-.047-1.063h-.062a.14.14 0 0 0-.063-.016q-.203 0-.515.11a2.3 2.3 0 0 0-.578.281 2.3 2.3 0 0 0-.485.39.7.7 0 0 0-.187.454q0 .219.156.297a.8.8 0 0 0 .359.078q.343 0 .735-.172.39-.187.687-.36m6.36-3.844q0 .25-.032.687a20 20 0 0 1-.093.922 10 10 0 0 1-.188 1q-.109.5-.266.922-.156.406-.375.672-.218.25-.5.25-.344 0-.593-.328a3.5 3.5 0 0 1-.407-.86 9 9 0 0 1-.25-1.171 19 19 0 0 1-.14-1.25 27 27 0 0 1-.063-1.141v-1.516q0-.437.032-.922a13 13 0 0 1 .125-.953q.093-.484.265-.875.172-.39.453-.625a1.02 1.02 0 0 1 .703-.25q.375 0 .61.328.25.313.39.829.157.5.219 1.125.079.624.094 1.234.031.594.016 1.11zm-.297 5.937a.9.9 0 0 1-.125.47 1.1 1.1 0 0 1-.328.312 1.4 1.4 0 0 1-.438.203 1.8 1.8 0 0 1-.469.062q-.344 0-.656-.187-.312-.172-.312-.563 0-.234.125-.422.14-.203.343-.343t.438-.22q.25-.077.469-.077.359 0 .656.187.297.172.297.578m8.593 1.125q-.953 0-1.656-.484a3.8 3.8 0 0 1-1.172-1.266 6.9 6.9 0 0 1-.687-1.875 11.05 11.05 0 0 1 .015-4.453q.25-1.125.75-2.031a4.65 4.65 0 0 1 1.266-1.484q.766-.579 1.828-.579 1.032 0 1.719.563.703.547 1.109 1.437.422.875.594 1.97.188 1.093.188 2.187 0 1.218-.25 2.312a6.2 6.2 0 0 1-.735 1.906q-.484.829-1.234 1.313-.735.484-1.735.484m.188-8.718a.68.68 0 0 0-.516.234q-.203.234-.343.625a4 4 0 0 0-.204.86 7 7 0 0 0-.062.952q0 .548.062 1.094.079.547.219.985t.344.703q.219.265.516.265.344 0 .546-.343.204-.345.313-.829.124-.483.156-1a10 10 0 0 0 .047-.859q0-.422-.062-.89a4.3 4.3 0 0 0-.172-.86 2.2 2.2 0 0 0-.328-.672.63.63 0 0 0-.516-.265m15.141-2.079q0 1.14-.094 2.266-.078 1.125-.078 2.266 0 .921.047 1.828.062.906.062 1.828 0 .25-.016.61-.015.342-.109.671a1.3 1.3 0 0 1-.281.563q-.187.234-.547.234a1.01 1.01 0 0 1-.781-.344 1.7 1.7 0 0 1-.375-.797 2.7 2.7 0 0 1-.86.954q-.562.39-1.218.39-.703 0-1.219-.484a4.3 4.3 0 0 1-.844-1.172 7 7 0 0 1-.5-1.438 6.5 6.5 0 0 1-.156-1.296 9.4 9.4 0 0 1 .203-1.907 8 8 0 0 1 .312-1q.188-.5.469-.89.297-.391.688-.625a1.8 1.8 0 0 1 .922-.235q.562 0 1.078.328.515.33.781.813l.141-2.484q.016-.298.046-.688.032-.405.125-.766.11-.36.329-.609.218-.25.64-.25.453 0 .703.219t.36.562q.125.33.14.72.032.39.032.733m-2.547 6.938q0-.36-.016-.703-.015-.345 0-.703a8 8 0 0 0-.219-.438 2 2 0 0 0-.312-.453 1.6 1.6 0 0 0-.391-.36.85.85 0 0 0-.469-.14.6.6 0 0 0-.453.172 1 1 0 0 0-.25.422 2.5 2.5 0 0 0-.109.515q-.016.282-.016.485a7.4 7.4 0 0 0 .141 1.297q.093.375.25.656.156.28.422.281.203 0 .406-.078.202-.093.375-.219a3 3 0 0 0 .344-.297q.171-.171.297-.312zm6.547 3.797q-.798 0-1.391-.422a3.7 3.7 0 0 1-1-1.078 5.2 5.2 0 0 1-.609-1.453 6.5 6.5 0 0 1-.204-1.594q0-.828.204-1.703.202-.89.625-1.61.421-.734 1.078-1.187.656-.47 1.562-.469.875 0 1.485.485.625.468 1 1.187.375.703.531 1.547a6.5 6.5 0 0 1 .109 1.594 8.6 8.6 0 0 1-.265 1.672 5.3 5.3 0 0 1-.61 1.515 3.5 3.5 0 0 1-1.031 1.094q-.626.422-1.484.422m.156-7.063q-.234 0-.422.25-.173.25-.297.61-.11.36-.172.765-.062.39-.062.688 0 .375.062.812.078.438.203.813.126.36.297.61.188.233.422.234.25 0 .422-.235.187-.234.297-.594t.156-.78a8 8 0 0 0 .047-.813q0-.345-.063-.75a4.3 4.3 0 0 0-.187-.782 1.8 1.8 0 0 0-.297-.593q-.172-.235-.406-.235m14.531 1.016a77 77 0 0 1-.891 2.25q-.483 1.172-1.046 2.187-.345.626-.766 1.047-.422.407-.969.407-.437 0-.859-.438a6.7 6.7 0 0 1-.766-1.062 14 14 0 0 1-.609-1.25 22 22 0 0 1-.375-1.016 44 44 0 0 0-.281-.906 15 15 0 0 1-.282-.985 12 12 0 0 1-.203-.984 6 6 0 0 1-.078-.938q0-.61.219-1t.859-.39q.25 0 .453.156.204.142.375.406.172.266.328.625.158.345.297.766.141.406.266.844t.25.843q.125.407.25.797.14.375.359.75l.25-.64q.141-.36.297-.766.173-.406.36-.828.187-.438.406-.844a8.4 8.4 0 0 1 .89-1.437q.484-.594.954-.594.437 0 .625.266.187.265.187.687t-.141.953a10 10 0 0 1-.359 1.094m4.016 6.047q-.798 0-1.391-.422a3.7 3.7 0 0 1-1-1.078 5.2 5.2 0 0 1-.609-1.453 6.5 6.5 0 0 1-.203-1.594q0-.828.203-1.703.202-.89.625-1.61.421-.734 1.078-1.187.656-.47 1.562-.469.875 0 1.485.485.625.468 1 1.187.375.703.531 1.547a6.5 6.5 0 0 1 .109 1.594 8.6 8.6 0 0 1-.265 1.672 5.3 5.3 0 0 1-.61 1.515 3.5 3.5 0 0 1-1.031 1.094q-.625.422-1.484.422m.156-7.063q-.234 0-.422.25-.172.25-.297.61-.11.36-.172.765-.062.39-.062.688 0 .375.062.812.078.438.203.813.126.36.297.61.188.233.422.234.25 0 .422-.235.187-.234.297-.594t.156-.78a8 8 0 0 0 .047-.813q0-.345-.062-.75a4.3 4.3 0 0 0-.188-.782 1.8 1.8 0 0 0-.297-.593q-.171-.235-.406-.235m10.766 1.016a77 77 0 0 1-.891 2.25q-.484 1.172-1.047 2.187a4.6 4.6 0 0 1-.766 1.047q-.422.407-.968.407-.437 0-.86-.438a6.6 6.6 0 0 1-.765-1.062 14 14 0 0 1-.61-1.25 25 25 0 0 1-.375-1.016 39 39 0 0 0-.281-.906 15 15 0 0 1-.281-.985 12 12 0 0 1-.203-.984 6 6 0 0 1-.078-.938q0-.61.218-1 .22-.39.86-.39.249 0 .453.156.202.142.375.406.171.266.328.625.156.345.297.766.14.406.265.844a52 52 0 0 0 .5 1.64q.141.375.36.75l.25-.64q.141-.36.297-.766.171-.406.359-.828.187-.438.406-.844a8.4 8.4 0 0 1 .891-1.437q.485-.594.953-.594.438 0 .625.266.188.265.188.687t-.141.953-.359 1.094m4.015 6.047q-.797 0-1.39-.422a3.7 3.7 0 0 1-1-1.078 5.2 5.2 0 0 1-.61-1.453 6.6 6.6 0 0 1-.203-1.594q0-.828.203-1.703.204-.89.625-1.61.422-.734 1.078-1.187.657-.47 1.563-.469.875 0 1.484.485.625.468 1 1.187.375.703.531 1.547.157.843.11 1.594a8.6 8.6 0 0 1-.266 1.672 5.3 5.3 0 0 1-.609 1.515 3.5 3.5 0 0 1-1.031 1.094q-.625.422-1.485.422m.156-7.063q-.234 0-.421.25-.172.25-.297.61-.11.36-.172.765-.063.39-.063.688 0 .375.063.812.078.438.203.813.124.36.297.61.187.233.422.234.25 0 .422-.235.188-.234.296-.594.11-.36.157-.78a8 8 0 0 0 .047-.813q0-.345-.063-.75a4.4 4.4 0 0 0-.187-.782 1.8 1.8 0 0 0-.297-.593q-.172-.235-.407-.235m1.969-3.687q0 .124-.047.156-.047.03-.156.031a1.2 1.2 0 0 1-.422-.093 4 4 0 0 1-.453-.235 10 10 0 0 1-.437-.297 6 6 0 0 1-.344-.28l-.375.296a5 5 0 0 1-.438.328 5 5 0 0 1-.468.25 1.2 1.2 0 0 1-.438.094.4.4 0 0 1-.156-.031q-.063-.031-.063-.157 0-.234.203-.593a4 4 0 0 1 .5-.688q.298-.328.625-.562.329-.235.579-.235t.578.235q.328.218.609.53.297.314.5.657t.203.594m12.375 7.515q0 .532-.344 1.047-.328.5-.843.907-.5.39-1.078.64-.579.235-1.063.235a2.76 2.76 0 0 1-1.484-.407 3.9 3.9 0 0 1-1.078-1.062 5.1 5.1 0 0 1-.672-1.406 5.6 5.6 0 0 1-.219-1.516q0-.78.219-1.672.218-.89.656-1.64.453-.75 1.125-1.25.687-.5 1.625-.5.531 0 1.016.187a2.45 2.45 0 0 1 1.421 1.281q.219.453.219 1.016 0 .735-.312 1.375a3.7 3.7 0 0 1-.828 1.11 4.4 4.4 0 0 1-1.188.765 4 4 0 0 1-1.375.312q.063.453.359.657.314.203.735.203.312 0 .609-.157.297-.156.578-.343.282-.203.547-.36.281-.156.563-.156.313 0 .562.203a.65.65 0 0 1 .25.531m-2.531-3.828a.95.95 0 0 0-.109-.422.36.36 0 0 0-.344-.218.9.9 0 0 0-.578.187 1.4 1.4 0 0 0-.391.453q-.156.266-.25.578a3 3 0 0 0-.094.579q.219-.047.516-.125.312-.079.578-.204.282-.14.469-.343a.66.66 0 0 0 .203-.485m.875-5.547q0 .173-.094.344-.093.156-.234.297a2.3 2.3 0 0 1-.281.266q-.157.109-.282.203a8 8 0 0 0-.25.187 3 3 0 0 1-.281.188 3 3 0 0 1-.297.14.7.7 0 0 1-.281.063.4.4 0 0 1-.219-.063.27.27 0 0 1-.094-.218q0-.235.172-.563.188-.344.453-.656.267-.328.563-.547.297-.234.547-.234.219 0 .39.187.188.172.188.406M53.095 60.82q-.797 0-1.39-.422a3.7 3.7 0 0 1-1-1.078 5.2 5.2 0 0 1-.61-1.453 6.6 6.6 0 0 1-.203-1.594q0-.828.203-1.703.203-.89.625-1.61.421-.734 1.078-1.187.657-.47 1.563-.469.875 0 1.484.485.625.468 1 1.187.375.703.531 1.547a6.5 6.5 0 0 1 .11 1.594 8.6 8.6 0 0 1-.266 1.672 5.3 5.3 0 0 1-.61 1.515q-.406.672-1.03 1.094-.625.422-1.485.422m.156-7.063q-.234 0-.422.25-.171.25-.297.61a5.5 5.5 0 0 0-.171.765q-.063.39-.063.688 0 .375.063.812.078.438.203.813.125.36.297.61.187.233.422.234.25 0 .421-.235.188-.234.297-.594.11-.36.157-.78.046-.438.046-.813 0-.345-.062-.75a4.3 4.3 0 0 0-.188-.782 1.8 1.8 0 0 0-.297-.593q-.171-.235-.406-.235m15.844-.422q0 1.376-.562 2.657a7.7 7.7 0 0 1-1.516 2.25 7.3 7.3 0 0 1-2.203 1.578 6.2 6.2 0 0 1-2.64.578h-.032a.57.57 0 0 1-.469-.25 2.8 2.8 0 0 1-.297-.656 5 5 0 0 1-.187-.875 16 16 0 0 1-.094-.938q-.03-.468-.031-.828v-.562a35 35 0 0 1 .062-2.11q0-.171.016-.5.031-.343.062-.765.032-.422.078-.875.048-.47.094-.86l.11-.703q.062-.312.14-.422.204-.343.625-.61a4.6 4.6 0 0 1 .907-.437 6 6 0 0 1 1-.25q.515-.093.89-.093 1.031 0 1.781.39.766.375 1.266 1.031.516.641.75 1.485.25.843.25 1.765m-2.625.454q0-.344-.125-.704a2.2 2.2 0 0 0-.36-.656 1.6 1.6 0 0 0-.546-.469 1.34 1.34 0 0 0-.703-.187q-.33 0-.672.156-.079.047-.14.297a5 5 0 0 0-.11.578q-.031.345-.063.75a22 22 0 0 0-.047.781q0 .36-.015.641v.844q0 .297.015.594.032.296.063.515.03.219.11.219.469 0 .921-.36.47-.374.844-.906.375-.531.594-1.11.234-.577.234-.983m5.906-4.329a.65.65 0 0 1-.125.391 1.2 1.2 0 0 1-.297.313q-.187.124-.406.203a1.5 1.5 0 0 1-.406.062.96.96 0 0 1-.547-.156q-.234-.157-.234-.484a.74.74 0 0 1 .109-.407q.125-.187.297-.297.172-.124.39-.187.22-.063.422-.063.297 0 .547.141t.25.484m.125 5.313v.469q0 .234-.015.453-.016.265-.016.719 0 .437-.031.953-.031.515-.11 1.047a4.4 4.4 0 0 1-.218.968 2 2 0 0 1-.422.72.9.9 0 0 1-.64.28.58.58 0 0 1-.5-.234 2.2 2.2 0 0 1-.345-.64 5.4 5.4 0 0 1-.187-.891 17 17 0 0 1-.094-.953q-.03-.47-.031-.86v-1.281q0-.47.031-1 .031-.531.11-1.078a6.4 6.4 0 0 1 .25-1q.171-.453.437-.735a.9.9 0 0 1 .672-.28q.422 0 .64.421.22.422.329.984t.125 1.125q.015.547.015.813m7.75 3.39q0 .282-.031.735a4.3 4.3 0 0 1-.125.89 2.1 2.1 0 0 1-.344.735q-.234.312-.656.312-.578 0-.89-.375-.314-.375-.297-.937a3.8 3.8 0 0 1-1.141.687 3.4 3.4 0 0 1-1.281.25q-.453 0-.86-.218a2.7 2.7 0 0 1-.719-.563 2.9 2.9 0 0 1-.5-.765 2.2 2.2 0 0 1-.187-.86q0-.75.453-1.312a4.3 4.3 0 0 1 1.14-.953q.673-.407 1.423-.641a8.5 8.5 0 0 1 1.359-.313v-.14a.6.6 0 0 0 .016-.14q0-.486-.266-.782t-.75-.297q-.39 0-.672.14a3.3 3.3 0 0 0-.531.298q-.25.156-.5.296a1.24 1.24 0 0 1-.563.125.87.87 0 0 1-.593-.218.74.74 0 0 1-.235-.563q0-.516.297-.937.313-.423.766-.703a4 4 0 0 1 1-.454 3.4 3.4 0 0 1 1-.171q.421 0 .844.109.42.094.796.312.375.204.672.516.313.297.5.703.282.578.453 1.235.173.64.266 1.328.094.671.125 1.36.03.671.031 1.312m-2.5-.5-.047-1.062h-.062a.14.14 0 0 0-.063-.016q-.203 0-.515.11-.296.093-.578.281a2.3 2.3 0 0 0-.485.39.7.7 0 0 0-.187.454q0 .219.156.297a.8.8 0 0 0 .36.078q.343 0 .734-.172.39-.187.687-.36M88.58 55.21q0 .454-.078 1.032-.062.562-.219 1.156a6.6 6.6 0 0 1-.39 1.156 4.3 4.3 0 0 1-.594 1.016q-.344.437-.812.703a2.06 2.06 0 0 1-1.063.266q-.64 0-1.172-.297a2.9 2.9 0 0 1-.89-.813 1.3 1.3 0 0 1-.344.75 1 1 0 0 1-.75.313q-.266 0-.453-.266a2.4 2.4 0 0 1-.281-.672 7 7 0 0 1-.172-.922 16 16 0 0 1-.063-.968q-.016-.47-.016-.844v-1.594l.032-1.078q0-.266-.016-.797 0-.531.016-1.172.015-.656.062-1.328.063-.687.203-1.25t.391-.922q.25-.36.64-.375.313 0 .532.219.219.218.36.578.155.36.234.813.093.437.125.89.046.438.046.844.016.39.016.64 0 .048-.016.22v.843q.141-.296.407-.578t.594-.5q.327-.219.687-.36t.688-.14q.656 0 1.093.344.453.328.719.843.266.517.375 1.125.11.594.11 1.125m-2.296.47q0-.189-.032-.407a1.1 1.1 0 0 0-.11-.406.8.8 0 0 0-.234-.313.54.54 0 0 0-.374-.125q-.25 0-.5.11a2.3 2.3 0 0 0-.454.28q-.217.172-.406.376-.187.188-.328.375l-.156 1.39q.25.36.61.579.359.203.812.203.343 0 .562-.22.234-.218.36-.53.14-.329.187-.688.063-.36.063-.625m9.796 1.905q0 .532-.343 1.047-.329.5-.844.907-.5.39-1.078.64-.579.235-1.063.235a2.76 2.76 0 0 1-1.484-.407 3.9 3.9 0 0 1-1.078-1.062 5.2 5.2 0 0 1-.672-1.406 5.6 5.6 0 0 1-.219-1.516q0-.78.219-1.672.22-.89.656-1.64a4.3 4.3 0 0 1 1.125-1.25q.688-.5 1.625-.5.531 0 1.016.187a2.45 2.45 0 0 1 1.422 1.281q.218.453.218 1.016 0 .735-.312 1.375a3.6 3.6 0 0 1-.828 1.11q-.516.468-1.188.765a4 4 0 0 1-1.375.312q.063.453.36.657.312.203.734.203.313 0 .61-.157.296-.156.578-.343.281-.203.546-.36a1.15 1.15 0 0 1 .563-.156.87.87 0 0 1 .562.203q.25.204.25.531m-2.53-3.828a.94.94 0 0 0-.11-.422.36.36 0 0 0-.344-.218.9.9 0 0 0-.578.187 1.4 1.4 0 0 0-.39.453 2.6 2.6 0 0 0-.25.578 3 3 0 0 0-.094.579q.218-.047.515-.125.313-.079.578-.204.282-.14.469-.343a.66.66 0 0 0 .203-.485m6.796 7.172q-1.11 0-1.734-.297a2 2 0 0 1-.922-.812q-.297-.531-.36-1.281-.062-.75-.062-1.672 0-.735.047-1.47.047-.75.14-1.593-.218 0-.343.016h-.204q-.5 0-.859-.219-.375-.219-.375-.672 0-.28.219-.5a1.7 1.7 0 0 1 .531-.375q.328-.156.703-.25.39-.093.735-.125 0-.437.062-.969.063-.531.219-.984.172-.468.453-.781a.92.92 0 0 1 .719-.313q.25 0 .437.157.204.14.328.375.125.218.188.5.063.281.062.546 0 .313-.046.641-.048.329-.172.813.266-.032.359-.032.094-.015.172-.015.265 0 .547.047.297.046.531.156.25.11.406.297a.6.6 0 0 1 .157.422.67.67 0 0 1-.235.5q-.219.218-.562.375-.344.156-.735.25-.39.078-.734.109-.095.64-.14 1.187-.033.532-.079 1.079l-.062.546q-.016.267-.016.547 0 .203.016.485.015.266.109.515.094.25.297.438.203.171.562.172.219 0 .454-.032.234-.045.468-.046.407 0 .578.28.188.282.188.72a.9.9 0 0 1-.203.578 1.35 1.35 0 0 1-.485.375 2.6 2.6 0 0 1-.671.234q-.36.078-.688.078m8.906-3.344q0 .532-.343 1.047-.328.5-.844.907-.5.39-1.078.64-.579.235-1.063.235a2.76 2.76 0 0 1-1.484-.407 3.9 3.9 0 0 1-1.078-1.062 5.1 5.1 0 0 1-.672-1.406 5.6 5.6 0 0 1-.219-1.516q0-.78.219-1.672.219-.89.656-1.64.453-.75 1.125-1.25.687-.5 1.625-.5.531 0 1.016.187.484.171.843.5.36.329.579.781.218.453.218 1.016 0 .735-.312 1.375a3.7 3.7 0 0 1-.828 1.11 4.4 4.4 0 0 1-1.188.765 4 4 0 0 1-1.375.312q.063.453.36.657.312.203.734.203.312 0 .609-.157.297-.156.578-.343.282-.203.547-.36.281-.156.563-.156.313 0 .562.203a.65.65 0 0 1 .25.531m-2.531-3.828a.94.94 0 0 0-.109-.422.36.36 0 0 0-.344-.218.9.9 0 0 0-.578.187 1.4 1.4 0 0 0-.391.453q-.156.266-.25.578a3 3 0 0 0-.094.579q.219-.047.516-.125.312-.079.578-.204.282-.14.469-.343a.66.66 0 0 0 .203-.485m7.734-1.984q0 .453-.312.672a6 6 0 0 1-.672.422q-.375.188-.687.453-.297.266-.297.797a.9.9 0 0 0 .125.484q.14.203.328.375.203.156.437.328.235.173.422.39.204.22.328.532.141.313.141.766 0 .656-.344 1.297a4.28 4.28 0 0 1-2.031 1.906q-.657.297-1.297.297-.266 0-.531-.047a1.5 1.5 0 0 1-.485-.14 1 1 0 0 1-.343-.298.9.9 0 0 1-.141-.515q0-.438.172-.672.171-.25.437-.39.266-.142.563-.22.312-.078.578-.187a1.4 1.4 0 0 0 .438-.313q.171-.188.171-.53 0-.33-.265-.673a14 14 0 0 0-.563-.75 8 8 0 0 1-.578-.86 2.03 2.03 0 0 1-.25-1q0-.67.266-1.233.28-.58.734-1 .47-.422 1.063-.657.593-.25 1.25-.25.25 0 .484.047.25.047.438.172a.8.8 0 0 1 .296.313.85.85 0 0 1 .125.484m11.157-2.078q0 .39-.313.719a3.2 3.2 0 0 1-.734.562 6.5 6.5 0 0 1-1.625.61 61 61 0 0 0-.203 2.406 45 45 0 0 0-.063 2.39q0 .641.031 1.266.032.625.032 1.25 0 .281-.063.625a2.2 2.2 0 0 1-.187.625 1.34 1.34 0 0 1-.36.5.85.85 0 0 1-.578.203q-.406 0-.656-.234a1.6 1.6 0 0 1-.375-.547 3 3 0 0 1-.172-.688 6 6 0 0 1-.047-.672 117 117 0 0 1-.062-3.78v-1.563q.015-.766.015-1.563-.219.032-.453.047-.219.016-.453.016-.188 0-.5-.032a3.6 3.6 0 0 1-.578-.14 1.7 1.7 0 0 1-.484-.281.61.61 0 0 1-.204-.47q0-.468.375-.812.36-.359.922-.61a7.3 7.3 0 0 1 1.266-.437 12 12 0 0 1 1.375-.28q.687-.11 1.25-.157.578-.047.891-.047.296 0 .625.031.343.015.64.125t.485.328q.203.22.203.61m1.765-.235a.64.64 0 0 1-.125.391 1.2 1.2 0 0 1-.297.313q-.187.124-.406.203a1.5 1.5 0 0 1-.406.062.96.96 0 0 1-.547-.156q-.234-.157-.234-.484a.74.74 0 0 1 .109-.407 1 1 0 0 1 .297-.297 1.2 1.2 0 0 1 .391-.187q.218-.063.421-.063.297 0 .547.141t.25.484m.125 5.313v.469q0 .234-.015.453-.016.265-.016.719 0 .437-.031.953-.032.515-.11 1.047a4.4 4.4 0 0 1-.218.968 2 2 0 0 1-.422.72.9.9 0 0 1-.641.28.58.58 0 0 1-.5-.234 2.2 2.2 0 0 1-.344-.64 5.4 5.4 0 0 1-.187-.891 17 17 0 0 1-.094-.953 13 13 0 0 1-.031-.86v-1.281q0-.47.031-1 .031-.531.11-1.078a6 6 0 0 1 .25-1q.171-.453.437-.735a.88.88 0 0 1 .672-.28q.422 0 .641.421.218.422.328.984.109.563.125 1.125.015.547.015.813m8.266.937q0 .688-.156 1.516a5.3 5.3 0 0 1-.5 1.516q-.345.703-.922 1.172-.562.468-1.422.468-.219 0-.453-.03a2.2 2.2 0 0 1-.453-.11 1.6 1.6 0 0 1-.375-.203.9.9 0 0 1-.266-.36l-.141 2.25q-.015.36-.031.86 0 .499-.125.953a1.7 1.7 0 0 1-.39.765q-.267.329-.782.328-.297 0-.5-.312a2.5 2.5 0 0 1-.328-.766 9 9 0 0 1-.172-1.047 15 15 0 0 1-.078-1.109 35 35 0 0 1-.015-.969v-.64q0-1.047-.016-2.078-.016-1.047-.016-2.094v-.578q0-.407.032-.875.03-.47.093-.97.078-.498.219-.905.141-.422.359-.672a.67.67 0 0 1 .532-.266q.203 0 .359.125a.85.85 0 0 1 .281.297 1.6 1.6 0 0 1 .203.375q.078.203.125.375.484-.546 1.11-.828.64-.282 1.359-.281.75 0 1.219.422.484.421.75 1.046.281.626.391 1.344.108.703.109 1.281m-2.234-.125q0-.234-.047-.468a1.3 1.3 0 0 0-.141-.453.76.76 0 0 0-.281-.344.76.76 0 0 0-.469-.14q-.375 0-.797.25a1.74 1.74 0 0 0-.609.546q-.079.125-.094.406-.016.282-.016.422v.297l.032.36q.015.186.031.359.031.171.078.265a.6.6 0 0 0 .203.266q.156.109.344.203t.375.14q.203.048.344.048a.65.65 0 0 0 .531-.25 1.8 1.8 0 0 0 .312-.594q.126-.345.157-.703.047-.375.047-.61m6.156 5.235q-.797 0-1.391-.422a3.7 3.7 0 0 1-1-1.078 5.2 5.2 0 0 1-.609-1.453 6.5 6.5 0 0 1-.203-1.594q0-.828.203-1.703.203-.89.625-1.61.421-.734 1.078-1.187.656-.47 1.562-.469.876 0 1.485.485.625.468 1 1.187.375.703.531 1.547a6.5 6.5 0 0 1 .109 1.594 8.6 8.6 0 0 1-.265 1.672 5.3 5.3 0 0 1-.61 1.515q-.405.672-1.031 1.094t-1.484.422m.156-7.063q-.234 0-.422.25-.171.25-.297.61-.11.36-.172.765-.062.39-.062.688 0 .375.062.812.078.438.204.813.125.36.296.61.188.233.422.234.25 0 .422-.235.188-.234.297-.594.11-.36.156-.78.048-.438.047-.813 0-.345-.062-.75a4.3 4.3 0 0 0-.188-.782 1.8 1.8 0 0 0-.297-.593q-.172-.235-.406-.235m15.125 5.172q0 .453-.297.735a1.4 1.4 0 0 1-.719.359q-.468.109-1.062.203a39 39 0 0 1-1.219.14 24 24 0 0 1-2.281.126q-.125 0-.359-.016-.22 0-.469-.031a3 3 0 0 1-.453-.063.9.9 0 0 1-.313-.125 1 1 0 0 1-.203-.25 4 4 0 0 1-.141-.36 3 3 0 0 1-.093-.39 2 2 0 0 1-.032-.328q0-.219.047-.39a.9.9 0 0 1 .219-.344q.187-.204.391-.39l.39-.391q.22-.235.578-.61.36-.39.766-.86.422-.483.828-1 .422-.53.766-1.03.343-.5.547-.938.218-.438.218-.75a.7.7 0 0 0-.171-.484.58.58 0 0 0-.469-.203.94.94 0 0 0-.61.234 8 8 0 0 0-.562.516 6 6 0 0 1-.609.5 1.17 1.17 0 0 1-.719.234q-.484 0-.766-.281-.265-.282-.265-.75 0-.688.296-1.266.314-.594.813-1.016a3.8 3.8 0 0 1 1.125-.656q.625-.25 1.281-.25.672 0 1.25.156a2.8 2.8 0 0 1 1 .485q.422.328.656.844.25.5.25 1.218 0 .563-.203 1.188a7.3 7.3 0 0 1-.515 1.234q-.313.626-.735 1.25-.406.61-.843 1.172-.438.563-.875 1.047-.438.484-.797.844.765-.094 1.609-.188a15 15 0 0 1 1.625-.094q.453 0 .781.25.344.235.344.72m3.047.688q0 .202-.094.375a.9.9 0 0 1-.25.265q-.14.11-.328.172a1 1 0 0 1-.359.063q-.235 0-.516-.094a1.8 1.8 0 0 1-.5-.234 1.8 1.8 0 0 1-.375-.36.8.8 0 0 1-.156-.484q0-.422.359-.625a1.4 1.4 0 0 1 1.219-.14q.265.077.484.234.236.14.375.359a.8.8 0 0 1 .141.469m11.922-9.594q0 .563-.141 1.266-.14.687-.359 1.406-.204.719-.453 1.406-.235.672-.422 1.219-.125.343-.281.86-.141.5-.344 1.062-.188.562-.422 1.125a7 7 0 0 1-.516 1.015 3 3 0 0 1-.625.72 1.08 1.08 0 0 1-.718.28q-.329 0-.641-.297a4 4 0 0 1-.578-.75 12 12 0 0 1-.516-1.03q-.234-.579-.437-1.126a26 26 0 0 1-.328-1.015 97 97 0 0 1-.782-3.172 11.4 11.4 0 0 1-.281-2.5q0-.313.031-.64.031-.344.157-.626a1.16 1.16 0 0 1 .343-.453q.235-.188.641-.188.343 0 .625.391.297.375.531.984.234.61.422 1.36.202.75.375 1.484l.328 1.36q.156.624.313 1 .094-.312.265-.907.188-.61.422-1.328.25-.719.531-1.469.297-.765.61-1.375.328-.624.672-1.015.343-.39.703-.39.266-.001.437.124a.8.8 0 0 1 .266.328q.093.204.125.438.047.234.047.453m6.875 8.14q0 .282-.031.735a4.4 4.4 0 0 1-.125.89 2.1 2.1 0 0 1-.344.735q-.234.312-.656.312-.579 0-.891-.375t-.297-.937q-.5.437-1.141.687-.624.25-1.281.25-.453 0-.859-.218a2.7 2.7 0 0 1-.719-.563 2.9 2.9 0 0 1-.5-.765 2.2 2.2 0 0 1-.187-.86q0-.75.453-1.312a4.2 4.2 0 0 1 1.14-.953q.672-.407 1.422-.641.766-.234 1.36-.313v-.14a.6.6 0 0 0 .015-.14q0-.486-.265-.782-.267-.297-.75-.297-.392 0-.672.14a3.3 3.3 0 0 0-.532.298q-.25.156-.5.296a1.24 1.24 0 0 1-.562.125.87.87 0 0 1-.594-.218.74.74 0 0 1-.234-.563q0-.516.297-.937.312-.423.765-.703a4 4 0 0 1 1-.454 3.4 3.4 0 0 1 1-.171q.423 0 .844.109.422.094.797.312.375.204.672.516.312.297.5.703.28.578.453 1.235.171.64.266 1.328.093.671.125 1.36.03.671.031 1.312m-2.5-.5-.047-1.062h-.063a.13.13 0 0 0-.062-.016q-.203 0-.516.11-.296.093-.578.281a2.3 2.3 0 0 0-.484.39.7.7 0 0 0-.188.454q0 .219.157.297a.8.8 0 0 0 .359.078q.344 0 .734-.172.391-.187.688-.36m12.922-2.453v.813q0 .5-.032 1.094-.015.594-.093 1.203a5.3 5.3 0 0 1-.25 1.078q-.157.484-.407.797a.78.78 0 0 1-.64.312.6.6 0 0 1-.531-.28 2.2 2.2 0 0 1-.25-.688 5 5 0 0 1-.094-.797v-.64q0-.704.047-1.376t.047-1.375v-.281q0-.204-.032-.406a1.2 1.2 0 0 0-.109-.36q-.062-.156-.203-.156-.282 0-.453.297a2.7 2.7 0 0 0-.282.672q-.11.39-.156.78-.047.375-.062.563a9 9 0 0 0-.063.61q-.015.406-.062.89a9 9 0 0 1-.125 1q-.078.5-.219.922-.125.407-.328.672t-.5.266a.64.64 0 0 1-.578-.328 2.4 2.4 0 0 1-.297-.766 6 6 0 0 1-.125-.89 20 20 0 0 1-.016-.704v-.515q.016-.25.016-.516v-.36a10 10 0 0 0-.016-.546 7 7 0 0 0-.031-.64 5 5 0 0 0-.063-.595 1.5 1.5 0 0 0-.14-.453q-.094-.172-.219-.172-.203 0-.375.266-.173.25-.297.61-.125.343-.203.687-.063.344-.062.5v.094q0 .75.093 1.468.094.72.094 1.47 0 .436-.281.812-.282.36-.781.36a.76.76 0 0 1-.594-.267 2.4 2.4 0 0 1-.391-.718 6 6 0 0 1-.25-.953 13 13 0 0 1-.109-1.032 39 39 0 0 1-.047-.922v-.625q0-.234-.016-.687 0-.453.016-.984.031-.532.094-1.079.062-.562.203-1.015.14-.453.359-.735a.73.73 0 0 1 .594-.296q.406 0 .656.218.266.219.266.657 0 .094-.016.187 0 .094-.015.172.172-.25.421-.5.25-.265.532-.469a2.6 2.6 0 0 1 .625-.344 1.65 1.65 0 0 1 .656-.14q.312 0 .562.172t.438.437q.188.251.312.547.126.297.172.563.156-.281.375-.563a3.4 3.4 0 0 1 .5-.516q.266-.218.578-.359.329-.14.672-.14.329 0 .563.234t.406.61q.172.359.266.827.093.453.156.907.063.436.078.828.015.375.016.593m4 5.61q-.798 0-1.391-.422a3.7 3.7 0 0 1-1-1.078 5.2 5.2 0 0 1-.609-1.453 6.5 6.5 0 0 1-.203-1.594q0-.828.203-1.703.202-.89.625-1.61.421-.734 1.078-1.187.656-.47 1.562-.469.875 0 1.485.485.624.468 1 1.187.375.703.531 1.547a6.5 6.5 0 0 1 .109 1.594 8.6 8.6 0 0 1-.265 1.672 5.3 5.3 0 0 1-.61 1.515 3.5 3.5 0 0 1-1.031 1.094q-.625.422-1.484.422m.156-7.063q-.234 0-.422.25-.173.25-.297.61-.11.36-.172.765-.062.39-.062.688 0 .375.062.812.078.438.203.813.126.36.297.61.188.233.422.234.25 0 .422-.235.187-.234.297-.594t.156-.78a8 8 0 0 0 .047-.813q0-.345-.062-.75a4.3 4.3 0 0 0-.188-.782 1.8 1.8 0 0 0-.297-.593q-.171-.235-.406-.235m8.609-1.984q0 .453-.312.672a6 6 0 0 1-.672.422q-.375.188-.688.453-.296.266-.296.797a.9.9 0 0 0 .125.484q.14.203.328.375.203.156.437.328t.422.39q.203.22.328.532.141.313.141.766 0 .656-.344 1.297a4.28 4.28 0 0 1-2.031 1.906q-.657.297-1.297.297-.266 0-.531-.047a1.5 1.5 0 0 1-.485-.14 1 1 0 0 1-.343-.298.9.9 0 0 1-.141-.515q0-.438.172-.672.171-.25.437-.39.266-.142.563-.22.312-.078.578-.187.266-.125.437-.313.172-.188.172-.53 0-.33-.265-.673-.25-.36-.563-.75a8 8 0 0 1-.578-.86 2.03 2.03 0 0 1-.25-1q0-.67.266-1.233.28-.58.734-1 .47-.422 1.063-.657.593-.25 1.25-.25.25 0 .484.047.25.047.437.172a.8.8 0 0 1 .297.313.85.85 0 0 1 .125.484M66.673 78.585q0 .532-.344 1.047-.328.5-.843.907-.5.39-1.079.64-.578.235-1.062.235a2.76 2.76 0 0 1-1.484-.407 3.9 3.9 0 0 1-1.078-1.062 5.2 5.2 0 0 1-.672-1.406 5.6 5.6 0 0 1-.22-1.516q0-.78.22-1.672.218-.89.656-1.64a4.3 4.3 0 0 1 1.125-1.25q.687-.5 1.625-.5.532 0 1.015.187a2.45 2.45 0 0 1 1.422 1.281q.22.453.22 1.016 0 .735-.313 1.375a3.6 3.6 0 0 1-.829 1.11q-.516.468-1.187.765a4 4 0 0 1-1.375.312q.063.453.36.657.312.203.734.203.312 0 .61-.157.296-.156.577-.343.282-.203.547-.36a1.15 1.15 0 0 1 .563-.156q.312 0 .562.203t.25.531m-2.531-3.828a.94.94 0 0 0-.11-.422.36.36 0 0 0-.343-.218.9.9 0 0 0-.578.187 1.4 1.4 0 0 0-.391.453 2.6 2.6 0 0 0-.25.578 3 3 0 0 0-.094.579q.219-.047.516-.125.312-.078.578-.204.282-.14.469-.343a.66.66 0 0 0 .203-.485m7.594 7.047q-.266 0-.422-.25a1.7 1.7 0 0 1-.235-.547 4.4 4.4 0 0 1-.109-.625q-.016-.327-.016-.5 0-.468.047-.937l.125-.938q.078-.468.125-.937.063-.469.063-.938 0-.187-.016-.406a1.7 1.7 0 0 0-.078-.406.66.66 0 0 0-.172-.328.44.44 0 0 0-.328-.125q-.141 0-.312.234a3.4 3.4 0 0 0-.329.516q-.14.28-.25.578a1.5 1.5 0 0 0-.093.422v.703q.015.343.015.703v.906q-.015.281-.047.578-.03.296-.093.578-.048.282-.141.547a1.7 1.7 0 0 1-.25.453q-.14.188-.344.313a.9.9 0 0 1-.484.125.7.7 0 0 1-.516-.203 1.5 1.5 0 0 1-.328-.516 3.6 3.6 0 0 1-.187-.719q-.048-.405-.079-.78-.015-.392-.015-.704.016-.328.016-.516v-.734q0-.594-.032-1.172-.015-.577-.015-1.156v-.797q.015-.484.125-.937.109-.47.359-.797.25-.329.734-.328a.6.6 0 0 1 .391.14q.172.141.297.344.141.203.219.437.093.235.14.407.156-.22.36-.422.218-.203.484-.36a2.55 2.55 0 0 1 1.344-.343q.797 0 1.234.39.453.375.656.953.22.563.266 1.22.047.655.047 1.187 0 .265-.047.797-.047.515-.156 1.156-.094.625-.266 1.297-.172.655-.406 1.203a3 3 0 0 1-.563.89q-.312.345-.718.344m6.671.125q-1.11 0-1.734-.297a2 2 0 0 1-.922-.812q-.296-.531-.36-1.281-.061-.75-.062-1.672 0-.735.047-1.47.047-.75.14-1.593-.218 0-.343.016h-.203q-.5 0-.86-.219-.374-.219-.374-.672 0-.28.218-.5a1.7 1.7 0 0 1 .532-.375q.328-.156.703-.25.39-.093.734-.125 0-.436.063-.969.062-.531.218-.984.172-.468.454-.781a.92.92 0 0 1 .718-.313q.25 0 .438.157.203.14.328.375.125.218.187.5.063.281.063.546 0 .313-.047.641-.046.328-.172.813.266-.032.36-.032.094-.015.171-.015.267 0 .547.047.297.046.531.156.25.11.407.297a.6.6 0 0 1 .156.422.67.67 0 0 1-.234.5q-.22.217-.563.375-.344.156-.734.25a7 7 0 0 1-.735.109q-.093.64-.14 1.187-.031.532-.078 1.079l-.063.546q-.016.267-.016.547 0 .203.016.485.015.266.11.515.093.25.296.438.203.171.563.172.219 0 .453-.032.234-.046.469-.046.405 0 .578.28.187.282.187.72a.9.9 0 0 1-.203.578 1.35 1.35 0 0 1-.484.375 2.6 2.6 0 0 1-.672.234q-.36.078-.687.078m8.907-3.344q0 .532-.344 1.047-.328.5-.844.907-.5.39-1.078.64-.578.235-1.062.235a2.76 2.76 0 0 1-1.485-.407 3.9 3.9 0 0 1-1.078-1.062 5.2 5.2 0 0 1-.672-1.406 5.6 5.6 0 0 1-.219-1.516q0-.78.22-1.672.218-.89.656-1.64a4.3 4.3 0 0 1 1.124-1.25q.688-.5 1.626-.5.53 0 1.015.187a2.45 2.45 0 0 1 1.422 1.281q.219.453.219 1.016 0 .735-.313 1.375a3.6 3.6 0 0 1-.828 1.11q-.516.468-1.187.765a4 4 0 0 1-1.375.312q.062.453.359.657.312.203.734.203.313 0 .61-.157.296-.156.578-.343.281-.203.547-.36a1.15 1.15 0 0 1 .562-.156.87.87 0 0 1 .563.203q.25.204.25.531m-2.531-3.828a.94.94 0 0 0-.11-.422.36.36 0 0 0-.344-.218.9.9 0 0 0-.578.187 1.4 1.4 0 0 0-.39.453q-.157.266-.25.578a3 3 0 0 0-.094.579q.219-.047.516-.125.311-.078.578-.204.28-.14.468-.343a.66.66 0 0 0 .204-.485m7.593 7.047q-.265 0-.422-.25a1.7 1.7 0 0 1-.234-.547 4.4 4.4 0 0 1-.11-.625q-.015-.327-.015-.5 0-.468.047-.937l.125-.938q.078-.468.125-.937a7 7 0 0 0 .062-.938q0-.187-.015-.406a1.7 1.7 0 0 0-.078-.406.66.66 0 0 0-.172-.328.44.44 0 0 0-.328-.125q-.14 0-.313.234a3.4 3.4 0 0 0-.328.516 6 6 0 0 0-.25.578 1.5 1.5 0 0 0-.094.422v.703q.016.343.016.703v.906q-.015.281-.047.578-.03.296-.094.578-.047.282-.14.547a1.7 1.7 0 0 1-.25.453q-.141.188-.344.313a.9.9 0 0 1-.484.125.7.7 0 0 1-.516-.203 1.5 1.5 0 0 1-.328-.516 3.6 3.6 0 0 1-.188-.719q-.047-.405-.078-.78-.016-.392-.016-.704.016-.328.016-.516v-.734q0-.594-.031-1.172-.016-.577-.016-1.156v-.797q.015-.484.125-.937.11-.47.36-.797.25-.329.734-.328a.6.6 0 0 1 .39.14q.172.141.297.344.14.203.22.437.093.235.14.407.156-.22.36-.422.218-.203.484-.36a2.55 2.55 0 0 1 1.343-.343q.797 0 1.235.39.452.375.656.953.219.563.266 1.22.046.655.046 1.187 0 .265-.046.797-.048.515-.157 1.156-.093.625-.265 1.297-.172.655-.406 1.203a3 3 0 0 1-.563.89q-.312.345-.719.344m9.766-10.719q0 1.14-.094 2.266-.078 1.125-.078 2.266 0 .922.047 1.828.063.906.062 1.828 0 .25-.015.61-.016.343-.11.671a1.3 1.3 0 0 1-.281.563q-.187.234-.547.234-.468 0-.781-.344a1.7 1.7 0 0 1-.375-.797 2.7 2.7 0 0 1-.86.954q-.561.39-1.218.39a1.72 1.72 0 0 1-1.219-.484 4.3 4.3 0 0 1-.844-1.172 7 7 0 0 1-.5-1.438 6.5 6.5 0 0 1-.156-1.296 9.7 9.7 0 0 1 .203-1.907q.126-.515.313-1 .187-.5.469-.89.296-.391.687-.625a1.8 1.8 0 0 1 .922-.235q.562 0 1.078.328.516.33.781.813l.14-2.484q.016-.297.048-.688.03-.405.125-.766.11-.36.328-.609.218-.25.641-.25.453 0 .703.219t.359.562q.124.33.141.72.03.39.031.733m-2.547 6.938q0-.36-.016-.703-.015-.345 0-.703a9 9 0 0 0-.218-.438 2 2 0 0 0-.313-.453 1.6 1.6 0 0 0-.39-.36.85.85 0 0 0-.47-.14.6.6 0 0 0-.452.172 1 1 0 0 0-.25.422 2.5 2.5 0 0 0-.11.515q-.015.282-.015.485 0 .187.03.562.033.36.11.735.094.375.25.656.156.28.422.281.204 0 .406-.078.203-.093.375-.219.188-.14.344-.297.172-.171.297-.312zm10.125.562q0 .532-.344 1.047-.328.5-.843.907a5 5 0 0 1-1.079.64q-.578.235-1.062.235a2.76 2.76 0 0 1-1.484-.407 3.9 3.9 0 0 1-1.079-1.062 5.2 5.2 0 0 1-.671-1.406 5.6 5.6 0 0 1-.219-1.516q0-.78.219-1.672.218-.89.656-1.64.453-.75 1.125-1.25.687-.5 1.625-.5.53 0 1.015.187a2.45 2.45 0 0 1 1.422 1.281q.219.453.219 1.016 0 .735-.312 1.375a3.7 3.7 0 0 1-.829 1.11 4.4 4.4 0 0 1-1.187.765 4 4 0 0 1-1.375.312q.063.453.359.657.313.203.735.203.312 0 .609-.157.297-.156.578-.343.282-.203.547-.36.281-.156.563-.156.312 0 .562.203a.65.65 0 0 1 .25.531m-2.531-3.828a.94.94 0 0 0-.11-.422.36.36 0 0 0-.343-.218.9.9 0 0 0-.578.187 1.4 1.4 0 0 0-.391.453q-.157.266-.25.578a3 3 0 0 0-.094.579q.219-.047.516-.125.312-.078.578-.204.281-.14.469-.343a.66.66 0 0 0 .203-.485m8.578.766q-.219.015-.375-.031l-.313-.125a3 3 0 0 0-.281-.11.6.6 0 0 0-.312-.047q-.313.016-.563.172a2.2 2.2 0 0 0-.437.39 2.7 2.7 0 0 0-.328.532 3 3 0 0 0-.219.563 4 4 0 0 0-.078.578q-.016.374-.016.812-.016.453-.016.86 0 .405-.031.64-.015.25-.078.594a2.6 2.6 0 0 1-.203.625 1.4 1.4 0 0 1-.344.5.8.8 0 0 1-.562.203.75.75 0 0 1-.469-.156 1.4 1.4 0 0 1-.328-.406 4 4 0 0 1-.219-.61 8 8 0 0 1-.125-.703q-.047-.375-.078-.75l-.031-.703v-.625q.015-.28.015-.453-.015-.548-.062-1.094a20 20 0 0 1-.031-1.11q0-.343.031-.765.031-.421.172-.781a1.6 1.6 0 0 1 .406-.625q.281-.25.766-.25.266 0 .453.172.188.171.297.422.124.25.187.53.063.282.078.517.375-.61.844-.985.468-.39 1.219-.422.374-.015.734.078.375.079.672.282.312.187.5.5.203.312.219.734.03.5-.297.766a1.3 1.3 0 0 1-.797.28m11.828-4.438q0 1.14-.094 2.266-.078 1.125-.078 2.266 0 .922.047 1.828.063.906.063 1.828 0 .25-.016.61a3 3 0 0 1-.109.671 1.3 1.3 0 0 1-.282.563q-.187.234-.547.234-.468 0-.781-.344a1.7 1.7 0 0 1-.375-.797 2.7 2.7 0 0 1-.859.954q-.562.39-1.219.39-.703 0-1.219-.484a4.3 4.3 0 0 1-.843-1.172 7 7 0 0 1-.5-1.438 6.4 6.4 0 0 1-.157-1.296 10 10 0 0 1 .203-1.907 8 8 0 0 1 .313-1q.187-.5.469-.89.297-.391.687-.625a1.8 1.8 0 0 1 .922-.235q.562 0 1.078.328.516.33.781.813l.141-2.484q.015-.297.047-.688.031-.405.125-.766.11-.36.328-.609.219-.25.641-.25.453 0 .703.219t.359.562q.124.33.141.72.031.39.031.733m-2.547 6.938q0-.36-.015-.703a8 8 0 0 1 0-.703 9 9 0 0 0-.219-.438 2 2 0 0 0-.313-.453 1.6 1.6 0 0 0-.39-.36.85.85 0 0 0-.469-.14.6.6 0 0 0-.453.172 1 1 0 0 0-.25.422 2.5 2.5 0 0 0-.11.515 9 9 0 0 0-.015.485 7.3 7.3 0 0 0 .14 1.297q.094.375.25.656.157.28.422.281.203 0 .407-.078.203-.093.375-.219.187-.14.343-.297.172-.171.297-.312zm6.156-7.563a.64.64 0 0 1-.125.391 1.2 1.2 0 0 1-.296.313 2 2 0 0 1-.407.203 1.5 1.5 0 0 1-.406.062.96.96 0 0 1-.547-.156q-.234-.157-.234-.484a.74.74 0 0 1 .109-.407 1 1 0 0 1 .297-.297 1.2 1.2 0 0 1 .391-.187 1.5 1.5 0 0 1 .422-.063q.296 0 .546.141t.25.484m.125 5.313v.469q0 .234-.015.453-.016.266-.016.719 0 .437-.031.953a12 12 0 0 1-.109 1.047 4.4 4.4 0 0 1-.219.968 2 2 0 0 1-.422.72.9.9 0 0 1-.641.28.58.58 0 0 1-.5-.234 2.2 2.2 0 0 1-.343-.64 5.3 5.3 0 0 1-.188-.891 17 17 0 0 1-.094-.953 13 13 0 0 1-.031-.86v-1.281q0-.47.031-1 .032-.531.11-1.078a6 6 0 0 1 .25-1q.171-.453.437-.735a.88.88 0 0 1 .672-.28q.422 0 .641.421.218.422.328.984.109.563.125 1.125.015.547.015.813m6.532-.25q-.219.015-.375-.031l-.313-.125a3 3 0 0 0-.281-.11.6.6 0 0 0-.313-.047q-.312.016-.562.172a2.2 2.2 0 0 0-.438.39 2.7 2.7 0 0 0-.328.532 3 3 0 0 0-.218.563 4 4 0 0 0-.079.578q-.015.374-.015.812a24 24 0 0 0-.016.86q0 .405-.031.64a6 6 0 0 1-.078.594 2.6 2.6 0 0 1-.203.625 1.4 1.4 0 0 1-.344.5.8.8 0 0 1-.563.203.75.75 0 0 1-.468-.156 1.4 1.4 0 0 1-.328-.406 3.7 3.7 0 0 1-.219-.61 8 8 0 0 1-.125-.703q-.047-.375-.078-.75-.016-.375-.032-.703v-.625q.016-.28.016-.453-.015-.548-.062-1.094a20 20 0 0 1-.032-1.11q0-.343.032-.765.03-.421.171-.781.141-.375.407-.625.28-.25.765-.25.266 0 .453.172.188.171.297.422.125.25.188.53.061.282.078.517.375-.61.844-.985.468-.39 1.218-.422.375-.015.735.078.375.079.672.282.312.187.5.5.203.312.218.734.031.5-.296.766a1.3 1.3 0 0 1-.797.28m7.875 3.062q0 .532-.344 1.047-.328.5-.844.907-.5.39-1.078.64-.578.235-1.062.235a2.76 2.76 0 0 1-1.485-.407 3.9 3.9 0 0 1-1.078-1.062 5.1 5.1 0 0 1-.672-1.406 5.6 5.6 0 0 1-.219-1.516q0-.78.219-1.672.22-.89.656-1.64.453-.75 1.125-1.25.688-.5 1.625-.5.532 0 1.016.187a2.46 2.46 0 0 1 1.422 1.281q.219.453.219 1.016a3.1 3.1 0 0 1-.313 1.375 3.6 3.6 0 0 1-.828 1.11 4.4 4.4 0 0 1-1.187.765 4 4 0 0 1-1.375.312q.062.453.359.657.312.203.734.203.313 0 .61-.157.297-.156.578-.343.281-.203.547-.36.281-.156.562-.156.312 0 .563.203t.25.531m-2.532-3.828a.94.94 0 0 0-.109-.422.36.36 0 0 0-.344-.218.9.9 0 0 0-.578.187 1.4 1.4 0 0 0-.39.453 2.6 2.6 0 0 0-.25.578 3 3 0 0 0-.094.579q.219-.047.515-.125a3 3 0 0 0 .579-.204 1.6 1.6 0 0 0 .468-.343.66.66 0 0 0 .203-.485m5.735-4.297a.65.65 0 0 1-.125.391 1.2 1.2 0 0 1-.297.313 2 2 0 0 1-.406.203 1.5 1.5 0 0 1-.407.062.96.96 0 0 1-.546-.156q-.235-.157-.235-.484a.74.74 0 0 1 .11-.407q.125-.187.296-.297a1.2 1.2 0 0 1 .391-.187q.218-.063.422-.063.297 0 .547.141t.25.484m.125 5.313v.469q0 .234-.016.453-.015.266-.015.719 0 .437-.032.953a12 12 0 0 1-.109 1.047 4.4 4.4 0 0 1-.219.968 2 2 0 0 1-.422.72.9.9 0 0 1-.64.28.58.58 0 0 1-.5-.234 2.2 2.2 0 0 1-.344-.64 5.4 5.4 0 0 1-.188-.891 17 17 0 0 1-.093-.953 13 13 0 0 1-.032-.86v-1.281q0-.47.032-1 .03-.531.109-1.078.094-.547.25-1 .172-.453.438-.735a.88.88 0 0 1 .671-.28q.423 0 .641.421.219.422.328.984t.125 1.125q.016.547.016.813m4.75 6.156q-1.11 0-1.735-.297a2 2 0 0 1-.921-.812q-.297-.531-.36-1.281-.062-.75-.062-1.672 0-.735.047-1.47.047-.75.14-1.593-.219 0-.344.016h-.203a1.6 1.6 0 0 1-.859-.219q-.375-.219-.375-.672 0-.28.219-.5a1.7 1.7 0 0 1 .531-.375q.328-.156.703-.25.39-.093.734-.125 0-.436.063-.969.062-.531.219-.984.171-.468.453-.781a.92.92 0 0 1 .719-.313q.25 0 .437.157.203.14.328.375a1.8 1.8 0 0 1 .188.5q.062.281.062.546 0 .313-.047.641-.046.328-.172.813a4 4 0 0 1 .36-.032q.094-.015.172-.015.265 0 .547.047.296.046.531.156.25.11.406.297a.6.6 0 0 1 .156.422.67.67 0 0 1-.234.5q-.218.217-.563.375a4 4 0 0 1-.734.25q-.39.078-.734.109-.095.64-.141 1.187-.031.532-.078 1.079l-.063.546q-.015.267-.015.547 0 .203.015.485.016.266.11.515.093.25.297.438.203.171.562.172.219 0 .453-.032.235-.046.469-.046.407 0 .578.28.188.282.188.72a.9.9 0 0 1-.203.578 1.35 1.35 0 0 1-.485.375 2.6 2.6 0 0 1-.672.234 3.2 3.2 0 0 1-.687.078m4.937-11.469a.64.64 0 0 1-.125.391 1.2 1.2 0 0 1-.297.313q-.187.124-.406.203a1.5 1.5 0 0 1-.406.062.96.96 0 0 1-.547-.156q-.234-.157-.234-.484a.74.74 0 0 1 .109-.407 1 1 0 0 1 .297-.297 1.2 1.2 0 0 1 .391-.187q.218-.063.421-.063.298 0 .547.141t.25.484m.125 5.313v.469q0 .234-.015.453-.016.266-.016.719 0 .437-.031.953-.032.514-.11 1.047a4.4 4.4 0 0 1-.218.968 2 2 0 0 1-.422.72.9.9 0 0 1-.641.28.58.58 0 0 1-.5-.234 2.2 2.2 0 0 1-.344-.64 5.4 5.4 0 0 1-.187-.891 17 17 0 0 1-.094-.953 13 13 0 0 1-.031-.86v-1.281q0-.47.031-1 .031-.531.11-1.078a6 6 0 0 1 .25-1q.171-.453.437-.735a.88.88 0 0 1 .672-.28q.422 0 .641.421.218.422.328.984.109.563.125 1.125.015.547.015.813m5.547 6.031q-.266 0-.422-.25a1.7 1.7 0 0 1-.234-.547 4 4 0 0 1-.109-.625 11 11 0 0 1-.016-.5q0-.468.047-.937l.125-.938q.078-.468.125-.937a7 7 0 0 0 .062-.938q0-.187-.015-.406a1.7 1.7 0 0 0-.078-.406.67.67 0 0 0-.172-.328.45.45 0 0 0-.328-.125q-.14 0-.313.234a3.3 3.3 0 0 0-.328.516q-.14.28-.25.578a1.5 1.5 0 0 0-.094.422v.703q.016.343.016.703v.906q-.016.281-.047.578a5 5 0 0 1-.094.578q-.047.282-.14.547a1.8 1.8 0 0 1-.25.453q-.141.188-.344.313a.9.9 0 0 1-.485.125.7.7 0 0 1-.515-.203 1.5 1.5 0 0 1-.328-.516 3.6 3.6 0 0 1-.188-.719 26 26 0 0 1-.078-.78q-.016-.392-.016-.704.016-.328.016-.516v-.734q0-.594-.031-1.172-.016-.577-.016-1.156v-.797q.016-.484.125-.937a2.1 2.1 0 0 1 .36-.797q.25-.329.734-.328.219 0 .391.14.171.141.296.344.141.203.219.437.095.235.141.407.156-.22.359-.422.218-.203.485-.36a2.55 2.55 0 0 1 1.343-.343q.798 0 1.235.39.452.375.656.953.219.563.266 1.22.046.655.046 1.187 0 .265-.046.797-.048.515-.157 1.156-.094.625-.265 1.297-.172.655-.407 1.203a3 3 0 0 1-.562.89q-.312.345-.719.344m10.125-4.484q0 .266-.015.797 0 .515-.047 1.093a17 17 0 0 1-.094 1.079q-.063.5-.156.734-.126.297-.328.516a.71.71 0 0 1-.547.218q-.532 0-.766-.422-.234-.421-.312-1.046a9 9 0 0 1-.063-1.36q.015-.734-.016-1.36a4 4 0 0 0-.171-1.046q-.141-.422-.516-.422-.516 0-.797.172a.96.96 0 0 0-.391.422q-.109.265-.14.61-.016.343-.047.718-.032.36-.047.969t-.141 1.203q-.125.594-.421 1.031-.282.422-.844.422a.7.7 0 0 1-.563-.266 2.1 2.1 0 0 1-.328-.687 5.7 5.7 0 0 1-.187-.938 17 17 0 0 1-.063-1v-.906q.016-.405.016-.61 0-.312.015-1.03.032-.72.11-1.594.078-.89.203-1.828.125-.937.328-1.704.203-.78.484-1.265.297-.485.688-.469.25.015.422.219.188.203.297.531.125.313.203.688t.109.75q.047.36.047.671.015.313.016.485a22 22 0 0 1-.063 1.625 2.8 2.8 0 0 1 .953-.797 2.66 2.66 0 0 1 1.219-.313q.781 0 1.172.438.406.422.578 1.062.172.626.188 1.344.015.703.015 1.266m4.078 4.5q-.797 0-1.39-.422a3.7 3.7 0 0 1-1-1.078 5.2 5.2 0 0 1-.61-1.453 6.6 6.6 0 0 1-.203-1.594q0-.828.203-1.703.204-.89.625-1.61.423-.735 1.078-1.187.657-.47 1.563-.469.875 0 1.484.485.625.468 1 1.187.375.703.532 1.547a6.5 6.5 0 0 1 .109 1.594 8.6 8.6 0 0 1-.266 1.672 5.3 5.3 0 0 1-.609 1.515 3.5 3.5 0 0 1-1.031 1.094q-.625.422-1.485.422m.157-7.063q-.235 0-.422.25-.172.25-.297.61-.11.36-.172.765-.063.39-.063.688 0 .374.063.812.078.438.203.813.124.36.297.61.188.233.422.234.25 0 .422-.235.187-.234.297-.594t.156-.78a8 8 0 0 0 .047-.813q0-.345-.063-.75a4.4 4.4 0 0 0-.187-.782 1.8 1.8 0 0 0-.297-.593q-.172-.235-.406-.235m11.046-1.797q0 .5-.265.938a3.8 3.8 0 0 1-.641.797q-.375.36-.844.64a6.4 6.4 0 0 1-.843.422 12.6 12.6 0 0 1 .078 2.14q0 .33-.094.626a1.1 1.1 0 0 1-.281.484q-.188.203-.547.203-.625 0-.844-.625a3.3 3.3 0 0 1-.125-.625q-.047-.405-.078-.828-.016-.437-.016-.843v-.672q0-.219.016-.516a1.1 1.1 0 0 1 .156-.484q.14-.204.469-.39.328-.204.672-.423.359-.219.625-.484a.86.86 0 0 0 .266-.625.96.96 0 0 0-.125-.485 1.1 1.1 0 0 0-.329-.359 1.3 1.3 0 0 0-.437-.234 1.3 1.3 0 0 0-.484-.094q-.594 0-.938.203a3 3 0 0 0-.594.422l-.453.422a.75.75 0 0 1-.531.187 1.04 1.04 0 0 1-.688-.265.83.83 0 0 1-.296-.64q0-.61.359-1.032.358-.438.891-.688a4.2 4.2 0 0 1 1.125-.375q.593-.125 1.062-.125.626 0 1.281.282.672.265 1.203.718.548.454.891 1.063.36.61.359 1.265m-2.312 7.594a.73.73 0 0 1-.141.453q-.124.188-.328.313a1.4 1.4 0 0 1-.437.187 1.8 1.8 0 0 1-.453.063 1.4 1.4 0 0 1-.672-.172q-.297-.172-.297-.563 0-.25.125-.437.14-.203.344-.344t.437-.203q.25-.078.469-.078.359 0 .656.187.297.188.297.594"/><defs><filter id="a" width="250.093" height="146" x="0" y="0" color-interpolation-filters="sRGB" filterUnits="userSpaceOnUse"><feFlood flood-opacity="0" result="BackgroundImageFix"/><feBlend in="SourceGraphic" in2="BackgroundImageFix" result="shape"/><feColorMatrix in="SourceAlpha" result="hardAlpha" values="0 0 0 0 0 0 0 0 0 0 0 0 0 0 0 0 0 0 127 0"/><feOffset dy="4"/><feGaussianBlur stdDeviation="2"/><feComposite in2="hardAlpha" k2="-1" k3="1" operator="arithmetic"/><feColorMatrix values="0 0 0 0 0 0 0 0 0 0 0 0 0 0 0 0 0 0 0.25 0"/><feBlend in2="shape" result="effect1_innerShadow_1138_1983"/></filter></defs></svg>