<svg width="187" height="115" viewBox="0 0 187 115" fill="none" xmlns="http://www.w3.org/2000/svg">
<g filter="url(#filter0_i_871_280)">
<path fill-rule="evenodd" clip-rule="evenodd" d="M26.7328 73.1069C8.81906 65.6024 0.999969 54.527 0.999969 42.5399C0.999969 27.7907 16.7706 13.2204 42.8597 6.01618C55.5137 2.52191 70.3811 1 87.4632 1C139.764 1 187.995 16.0484 185.936 42.5399C185.936 55.6846 177.01 67.7719 158.83 74.9879C148.917 78.9225 136.377 81.2463 120.687 81.9608C114.515 95.7126 105.482 102.794 90.6626 114C101.53 100.939 108.189 92.5175 110.598 82.1974C110.322 82.1983 110.044 82.1987 109.766 82.1987C72.6962 84.5509 44.6601 80.6171 26.7328 73.1069Z" fill="#00D287"/>
</g>
<path d="M26.7328 73.1069L26.3464 74.0292H26.3464L26.7328 73.1069ZM42.8597 6.01618L42.5935 5.05226L42.8597 6.01618ZM185.936 42.5399L184.939 42.4624C184.937 42.4882 184.936 42.514 184.936 42.5399H185.936ZM158.83 74.9879L159.199 75.9174L158.83 74.9879ZM120.687 81.9608L120.641 80.9618C120.264 80.979 119.929 81.207 119.774 81.5513L120.687 81.9608ZM90.6626 114L89.8939 113.36C89.569 113.751 89.5885 114.323 89.9392 114.691C90.29 115.058 90.8606 115.104 91.2658 114.798L90.6626 114ZM110.598 82.1974L111.572 82.4248C111.642 82.127 111.571 81.8139 111.381 81.5747C111.19 81.3354 110.901 81.1965 110.595 81.1974L110.598 82.1974ZM109.766 82.1987V81.1987C109.745 81.1987 109.724 81.1994 109.703 81.2007L109.766 82.1987ZM-3.05176e-05 42.5399C-3.05176e-05 55.0658 8.20468 66.4292 26.3464 74.0292L27.1192 72.1846C9.43345 64.7756 1.99997 53.9882 1.99997 42.5399H-3.05176e-05ZM42.5935 5.05226C29.4413 8.68411 18.8281 14.1884 11.483 20.7004C4.1418 27.209 -3.05176e-05 34.7907 -3.05176e-05 42.5399H1.99997C1.99997 35.5399 5.74347 28.4619 12.8098 22.197C19.8723 15.9355 30.189 10.5525 43.1259 6.98011L42.5935 5.05226ZM87.4632 0C70.3283 0 55.3639 1.52585 42.5935 5.05226L43.1259 6.98011C55.6635 3.51796 70.434 2 87.4632 2V0ZM186.933 42.6174C187.475 35.645 184.691 29.4664 179.486 24.1721C174.3 18.8968 166.686 14.4675 157.444 10.9027C138.955 3.77087 113.691 0 87.4632 0V2C113.536 2 138.538 5.75335 156.725 12.7686C165.821 16.2773 173.148 20.5773 178.06 25.5743C182.954 30.5523 185.427 36.189 184.939 42.4624L186.933 42.6174ZM159.199 75.9174C177.626 68.603 186.936 56.221 186.936 42.5399H184.936C184.936 55.1481 176.393 66.9408 158.461 74.0585L159.199 75.9174ZM120.732 82.9597C136.489 82.2423 149.149 79.9067 159.199 75.9174L158.461 74.0585C148.686 77.9383 136.265 80.2504 120.641 80.9618L120.732 82.9597ZM119.774 81.5513C113.72 95.0402 104.894 101.984 90.0594 113.202L91.2658 114.798C106.07 103.603 115.309 96.385 121.599 82.3702L119.774 81.5513ZM91.4313 114.64C102.264 101.621 109.099 93.0171 111.572 82.4248L109.624 81.9701C107.279 92.0179 100.797 100.257 89.8939 113.36L91.4313 114.64ZM109.766 83.1987C110.045 83.1987 110.324 83.1983 110.601 83.1974L110.595 81.1974C110.32 81.1983 110.043 81.1987 109.766 81.1987V83.1987ZM26.3464 74.0292C44.4721 81.6225 72.6813 85.5539 109.829 83.1967L109.703 81.2007C72.7111 83.5479 44.8481 79.6116 27.1192 72.1846L26.3464 74.0292Z" fill="#00D287"/>
<path d="M29.0127 37.1133C29.0127 37.3411 28.917 37.5553 28.7256 37.7559C28.5433 37.9564 28.3018 38.1387 28.001 38.3027C27.7093 38.4668 27.3812 38.6126 27.0166 38.7402C26.652 38.8587 26.292 38.959 25.9365 39.041C25.5811 39.1322 25.2438 39.2005 24.9248 39.2461C24.6149 39.2917 24.3688 39.3145 24.1865 39.3145C24.0133 39.3145 23.8265 39.2962 23.626 39.2598C23.4346 39.2324 23.2751 39.1641 23.1475 39.0547C23.0745 39 23.0107 38.877 22.9561 38.6855C22.9014 38.4941 22.8467 38.2663 22.792 38.002C22.7464 37.7376 22.7054 37.4551 22.6689 37.1543C22.6325 36.8444 22.6006 36.5436 22.5732 36.252C22.555 35.9603 22.5368 35.6914 22.5186 35.4453C22.5094 35.1992 22.5049 35.0078 22.5049 34.8711C22.5049 34.6432 22.5094 34.3698 22.5186 34.0508C22.5368 33.7227 22.5596 33.3763 22.5869 33.0117C22.6143 32.638 22.6507 32.2598 22.6963 31.877C22.7419 31.4941 22.792 31.1341 22.8467 30.7969C22.9105 30.4505 22.9834 30.1406 23.0654 29.8672C23.1566 29.5938 23.2523 29.3796 23.3525 29.2246C23.5257 28.9785 23.7445 28.8555 24.0088 28.8555C24.1911 28.8555 24.346 28.9193 24.4736 29.0469C24.6012 29.1654 24.7015 29.3249 24.7744 29.5254C24.8564 29.7168 24.9157 29.9355 24.9521 30.1816C24.9977 30.4186 25.0296 30.6556 25.0479 30.8926C25.0661 31.1296 25.0752 31.3483 25.0752 31.5488C25.0752 31.7493 25.0752 31.9089 25.0752 32.0273C25.0752 32.7383 25.057 33.4447 25.0205 34.1465C24.9932 34.8392 24.9795 35.541 24.9795 36.252V36.7852C25.3896 36.6576 25.8363 36.5391 26.3193 36.4297C26.8024 36.3112 27.2627 36.252 27.7002 36.252C27.8551 36.252 28.0101 36.2611 28.165 36.2793C28.3291 36.2975 28.4704 36.3385 28.5889 36.4023C28.7165 36.457 28.8167 36.5436 28.8896 36.6621C28.9717 36.7715 29.0127 36.9219 29.0127 37.1133ZM31.6104 29.457C31.6104 29.5846 31.5739 29.6986 31.501 29.7988C31.4372 29.8991 31.3506 29.9902 31.2412 30.0723C31.1318 30.1452 31.0133 30.2044 30.8857 30.25C30.7581 30.2865 30.6396 30.3047 30.5303 30.3047C30.348 30.3047 30.1885 30.2591 30.0518 30.168C29.915 30.0768 29.8467 29.9355 29.8467 29.7441C29.8467 29.6074 29.8786 29.4889 29.9424 29.3887C30.0153 29.2793 30.1019 29.1927 30.2021 29.1289C30.3024 29.056 30.4163 29.0013 30.5439 28.9648C30.6715 28.9284 30.7946 28.9102 30.9131 28.9102C31.0863 28.9102 31.2458 28.9512 31.3916 29.0332C31.5374 29.1152 31.6104 29.2565 31.6104 29.457ZM31.7197 34.1055C31.7197 34.2331 31.7197 34.3698 31.7197 34.5156C31.7197 34.6523 31.7152 34.7845 31.7061 34.9121C31.6969 35.0671 31.6924 35.2767 31.6924 35.541C31.6924 35.7962 31.6833 36.0742 31.665 36.375C31.6468 36.6758 31.6149 36.9811 31.5693 37.291C31.5329 37.6009 31.4691 37.8835 31.3779 38.1387C31.2868 38.3939 31.1637 38.6035 31.0088 38.7676C30.863 38.9225 30.6761 39.0046 30.4482 39.0137C30.2751 39.0228 30.1292 38.9544 30.0107 38.8086C29.8923 38.6628 29.792 38.4759 29.71 38.248C29.637 38.0111 29.5824 37.7513 29.5459 37.4688C29.5094 37.1771 29.4821 36.8991 29.4639 36.6348C29.4456 36.3613 29.4365 36.1107 29.4365 35.8828C29.4365 35.6549 29.4365 35.4863 29.4365 35.377C29.4365 35.2311 29.4365 35.026 29.4365 34.7617C29.4365 34.4883 29.4456 34.1966 29.4639 33.8867C29.4821 33.5768 29.514 33.2624 29.5596 32.9434C29.6143 32.6243 29.6872 32.3327 29.7783 32.0684C29.8786 31.804 30.0062 31.5898 30.1611 31.4258C30.3161 31.2617 30.512 31.1797 30.749 31.1797C30.9951 31.1797 31.182 31.3027 31.3096 31.5488C31.4372 31.7949 31.5329 32.082 31.5967 32.4102C31.6605 32.7383 31.6969 33.0664 31.7061 33.3945C31.7152 33.7135 31.7197 33.9505 31.7197 34.1055ZM35.876 39.4922C35.2288 39.4922 34.723 39.4056 34.3584 39.2324C34.0029 39.0684 33.734 38.8314 33.5518 38.5215C33.3786 38.2116 33.2738 37.8379 33.2373 37.4004C33.2008 36.9629 33.1826 36.4753 33.1826 35.9375C33.1826 35.5091 33.1963 35.0807 33.2236 34.6523C33.251 34.2148 33.292 33.75 33.3467 33.2578C33.2191 33.2578 33.1188 33.2624 33.0459 33.2715C32.973 33.2715 32.9137 33.2715 32.8682 33.2715C32.5765 33.2715 32.3258 33.2077 32.1162 33.0801C31.8975 32.9525 31.7881 32.7565 31.7881 32.4922C31.7881 32.3281 31.8519 32.1823 31.9795 32.0547C32.098 31.9271 32.2529 31.8177 32.4443 31.7266C32.6357 31.6354 32.8408 31.5625 33.0596 31.5078C33.2874 31.4531 33.5016 31.4167 33.7021 31.3984C33.7021 31.1432 33.7204 30.8607 33.7568 30.5508C33.7933 30.2409 33.8571 29.9538 33.9482 29.6895C34.0485 29.416 34.1807 29.1882 34.3447 29.0059C34.5088 28.8236 34.7184 28.7324 34.9736 28.7324C35.1195 28.7324 35.2471 28.778 35.3564 28.8691C35.4749 28.9512 35.5706 29.0605 35.6436 29.1973C35.7165 29.3249 35.7712 29.4707 35.8076 29.6348C35.8441 29.7988 35.8623 29.9583 35.8623 30.1133C35.8623 30.2956 35.8486 30.4824 35.8213 30.6738C35.7939 30.8652 35.7438 31.1022 35.6709 31.3848C35.8258 31.3665 35.9307 31.3574 35.9854 31.3574C36.04 31.3483 36.0902 31.3438 36.1357 31.3438C36.2907 31.3438 36.4502 31.3574 36.6143 31.3848C36.7874 31.4121 36.9424 31.4577 37.0791 31.5215C37.2249 31.5853 37.3434 31.6719 37.4346 31.7812C37.5257 31.8815 37.5713 32.0046 37.5713 32.1504C37.5713 32.3145 37.5029 32.4603 37.3662 32.5879C37.2386 32.7155 37.0745 32.8249 36.874 32.916C36.6735 33.0072 36.4593 33.0801 36.2314 33.1348C36.0036 33.1803 35.7894 33.2122 35.5889 33.2305C35.5342 33.6042 35.4932 33.9505 35.4658 34.2695C35.4476 34.5794 35.4248 34.8939 35.3975 35.2129C35.3792 35.3678 35.361 35.5273 35.3428 35.6914C35.3337 35.8464 35.3291 36.0059 35.3291 36.1699C35.3291 36.2884 35.3337 36.4297 35.3428 36.5938C35.3519 36.7487 35.3838 36.8991 35.4385 37.0449C35.4932 37.1908 35.5798 37.3184 35.6982 37.4277C35.8167 37.528 35.9808 37.5781 36.1904 37.5781C36.318 37.5781 36.4502 37.569 36.5869 37.5508C36.7236 37.5234 36.8604 37.5098 36.9971 37.5098C37.234 37.5098 37.4027 37.5918 37.5029 37.7559C37.6123 37.9199 37.667 38.1296 37.667 38.3848C37.667 38.5762 37.6077 38.7448 37.4893 38.8906C37.3799 39.0273 37.2386 39.1367 37.0654 39.2188C36.8923 39.3099 36.6963 39.3783 36.4775 39.4238C36.2679 39.4694 36.0674 39.4922 35.876 39.4922ZM43.751 37.0723C43.751 37.2363 43.7419 37.4505 43.7236 37.7148C43.7145 37.9792 43.6781 38.2389 43.6143 38.4941C43.5505 38.7402 43.4502 38.9544 43.3135 39.1367C43.1768 39.319 42.9854 39.4102 42.7393 39.4102C42.402 39.4102 42.1423 39.3008 41.96 39.082C41.7777 38.8633 41.6911 38.5898 41.7002 38.2617C41.4085 38.5169 41.0758 38.7174 40.7021 38.8633C40.3376 39.0091 39.9639 39.082 39.5811 39.082C39.3167 39.082 39.0661 39.0182 38.8291 38.8906C38.5921 38.763 38.3825 38.599 38.2002 38.3984C38.0179 38.1979 37.8721 37.9746 37.7627 37.7285C37.6533 37.4733 37.5986 37.2227 37.5986 36.9766C37.5986 36.5391 37.7308 36.1562 37.9951 35.8281C38.2686 35.5 38.6012 35.222 38.9932 34.9941C39.3851 34.7572 39.7998 34.5703 40.2373 34.4336C40.6839 34.2969 41.0804 34.2057 41.4268 34.1602C41.4268 34.1146 41.4268 34.0736 41.4268 34.0371C41.4359 34.0007 41.4404 33.9596 41.4404 33.9141C41.4404 33.6315 41.363 33.4036 41.208 33.2305C41.0531 33.0573 40.8343 32.9707 40.5518 32.9707C40.3239 32.9707 40.1279 33.0117 39.9639 33.0938C39.7998 33.1667 39.6449 33.2533 39.499 33.3535C39.3532 33.4447 39.2074 33.5312 39.0615 33.6133C38.9157 33.6862 38.7516 33.7227 38.5693 33.7227C38.3688 33.7227 38.1956 33.6589 38.0498 33.5312C37.9131 33.4036 37.8447 33.2396 37.8447 33.0391C37.8447 32.7383 37.9313 32.4648 38.1045 32.2188C38.2868 31.9727 38.5101 31.7676 38.7744 31.6035C39.0479 31.4303 39.3395 31.2982 39.6494 31.207C39.9684 31.1068 40.2601 31.0566 40.5244 31.0566C40.7705 31.0566 41.0166 31.0885 41.2627 31.1523C41.5088 31.207 41.7412 31.2982 41.96 31.4258C42.1787 31.5443 42.3747 31.6947 42.5479 31.877C42.7301 32.0501 42.876 32.2552 42.9854 32.4922C43.1494 32.8294 43.2816 33.1895 43.3818 33.5723C43.4821 33.946 43.5596 34.3333 43.6143 34.7344C43.6689 35.1263 43.7054 35.5228 43.7236 35.9238C43.7419 36.3158 43.751 36.6986 43.751 37.0723ZM41.5635 36.6348L41.5225 35.7051C41.5042 35.7051 41.486 35.7051 41.4678 35.7051C41.4495 35.696 41.4313 35.6914 41.4131 35.6914C41.2946 35.6914 41.1442 35.7233 40.9619 35.7871C40.7887 35.8418 40.6201 35.9238 40.4561 36.0332C40.292 36.1335 40.1507 36.2474 40.0322 36.375C39.9229 36.5026 39.8682 36.6348 39.8682 36.7715C39.8682 36.8991 39.9137 36.9857 40.0049 37.0312C40.096 37.0768 40.2008 37.0996 40.3193 37.0996C40.5199 37.0996 40.734 37.0495 40.9619 36.9492C41.1898 36.8398 41.3903 36.735 41.5635 36.6348ZM46.54 38.2754C46.54 38.4212 46.499 38.6081 46.417 38.8359C46.3441 39.0638 46.2484 39.2871 46.1299 39.5059C46.0205 39.7246 45.8929 39.9115 45.7471 40.0664C45.6012 40.2214 45.46 40.2988 45.3232 40.2988C45.141 40.2988 45.0498 40.2077 45.0498 40.0254C45.0498 39.916 45.0726 39.8112 45.1182 39.7109C45.1637 39.6107 45.2139 39.5104 45.2686 39.4102C45.3232 39.319 45.3734 39.2233 45.4189 39.123C45.4645 39.0319 45.4873 38.9408 45.4873 38.8496C45.3506 38.9408 45.2048 38.9863 45.0498 38.9863C44.8402 38.9863 44.6624 38.9043 44.5166 38.7402C44.3708 38.5762 44.2979 38.3939 44.2979 38.1934C44.2979 37.9017 44.3936 37.6693 44.585 37.4961C44.7764 37.3138 45.0179 37.2227 45.3096 37.2227C45.6377 37.2227 45.9248 37.3092 46.1709 37.4824C46.417 37.6556 46.54 37.9199 46.54 38.2754ZM56.2744 34.1055C56.0374 34.7344 55.7777 35.3906 55.4951 36.0742C55.2126 36.7578 54.9072 37.3958 54.5791 37.9883C54.3786 38.3529 54.1553 38.6582 53.9092 38.9043C53.6631 39.1413 53.3805 39.2598 53.0615 39.2598C52.8063 39.2598 52.5557 39.1322 52.3096 38.877C52.0726 38.6126 51.8493 38.3027 51.6396 37.9473C51.4391 37.5827 51.2614 37.2181 51.1064 36.8535C50.9606 36.4798 50.8512 36.1836 50.7783 35.9648C50.7054 35.7188 50.6234 35.4544 50.5322 35.1719C50.4411 34.8893 50.359 34.6022 50.2861 34.3105C50.2132 34.0189 50.154 33.7318 50.1084 33.4492C50.0628 33.1576 50.04 32.8841 50.04 32.6289C50.04 32.2734 50.1038 31.9818 50.2314 31.7539C50.359 31.526 50.6097 31.4121 50.9834 31.4121C51.1292 31.4121 51.2614 31.4577 51.3799 31.5488C51.4984 31.6309 51.6077 31.7493 51.708 31.9043C51.8083 32.0592 51.904 32.2415 51.9951 32.4512C52.0863 32.6517 52.1729 32.875 52.2549 33.1211C52.3369 33.3581 52.4144 33.6042 52.4873 33.8594C52.5602 34.1146 52.6331 34.3607 52.7061 34.5977C52.779 34.8346 52.8519 35.0671 52.9248 35.2949C53.0068 35.5137 53.1117 35.7324 53.2393 35.9512C53.3031 35.7871 53.376 35.6003 53.458 35.3906C53.54 35.181 53.6266 34.9577 53.7178 34.7207C53.818 34.4837 53.9229 34.2422 54.0322 33.9961C54.1416 33.7409 54.2601 33.4948 54.3877 33.2578C54.6338 32.7656 54.8936 32.3464 55.167 32C55.4495 31.6536 55.7275 31.4805 56.001 31.4805C56.2562 31.4805 56.4385 31.5579 56.5479 31.7129C56.6572 31.8678 56.7119 32.0684 56.7119 32.3145C56.7119 32.5605 56.6709 32.8385 56.5889 33.1484C56.5068 33.4583 56.402 33.7773 56.2744 34.1055ZM59.7881 39.3965C59.3232 39.3965 58.9176 39.2734 58.5713 39.0273C58.2249 38.7812 57.9333 38.4668 57.6963 38.084C57.4593 37.7012 57.2816 37.2773 57.1631 36.8125C57.0446 36.3385 56.9854 35.8737 56.9854 35.418C56.9854 34.9349 57.0446 34.4382 57.1631 33.9277C57.2816 33.4082 57.4639 32.9388 57.71 32.5195C57.9561 32.0911 58.2705 31.7448 58.6533 31.4805C59.0361 31.207 59.4919 31.0703 60.0205 31.0703C60.5309 31.0703 60.9639 31.2116 61.3193 31.4941C61.6839 31.7676 61.9756 32.1139 62.1943 32.5332C62.4131 32.9434 62.568 33.3945 62.6592 33.8867C62.7503 34.3789 62.7822 34.8438 62.7549 35.2812C62.7275 35.7643 62.6501 36.252 62.5225 36.7441C62.404 37.2363 62.2262 37.6784 61.9893 38.0703C61.7523 38.4622 61.4515 38.7812 61.0869 39.0273C60.7223 39.2734 60.2894 39.3965 59.7881 39.3965ZM59.9248 33.2168C59.7881 33.2168 59.665 33.2897 59.5557 33.4355C59.4554 33.5814 59.3688 33.7591 59.2959 33.9688C59.2321 34.1784 59.182 34.4017 59.1455 34.6387C59.109 34.8665 59.0908 35.0671 59.0908 35.2402C59.0908 35.459 59.109 35.696 59.1455 35.9512C59.1911 36.2064 59.2503 36.4434 59.3232 36.6621C59.3962 36.8717 59.4827 37.0495 59.583 37.1953C59.6924 37.332 59.8154 37.4004 59.9521 37.4004C60.098 37.4004 60.221 37.332 60.3213 37.1953C60.4307 37.0586 60.5173 36.8854 60.5811 36.6758C60.6449 36.4661 60.6904 36.2383 60.7178 35.9922C60.7451 35.737 60.7588 35.5 60.7588 35.2812C60.7588 35.0807 60.7406 34.862 60.7041 34.625C60.6676 34.3789 60.613 34.151 60.54 33.9414C60.4762 33.7318 60.3896 33.5586 60.2803 33.4219C60.18 33.2852 60.0615 33.2168 59.9248 33.2168ZM68.5244 33.75C68.5244 33.7956 68.5199 33.8457 68.5107 33.9004C68.5016 33.946 68.488 33.9915 68.4697 34.0371C68.3877 34.2467 68.2601 34.4245 68.0869 34.5703C67.9137 34.707 67.7087 34.7754 67.4717 34.7754C67.1162 34.7754 66.8747 34.5977 66.7471 34.2422C66.7288 34.1966 66.7197 34.1465 66.7197 34.0918C66.7197 34.028 66.7152 33.9642 66.7061 33.9004V33.5039C66.6878 33.3763 66.6559 33.276 66.6104 33.2031C66.5648 33.1302 66.4873 33.0938 66.3779 33.0938C66.223 33.0938 66.0726 33.194 65.9268 33.3945C65.79 33.5859 65.667 33.8184 65.5576 34.0918C65.4574 34.3561 65.3753 34.6296 65.3115 34.9121C65.2477 35.1947 65.2158 35.4225 65.2158 35.5957C65.2158 35.7324 65.2249 35.901 65.2432 36.1016C65.2614 36.293 65.2979 36.4798 65.3525 36.6621C65.4072 36.8444 65.4801 37.0039 65.5713 37.1406C65.6715 37.2682 65.7992 37.332 65.9541 37.332C66.109 37.332 66.2503 37.2865 66.3779 37.1953C66.5146 37.0951 66.6468 36.9811 66.7744 36.8535C66.8929 36.7441 67.0205 36.6302 67.1572 36.5117C67.3031 36.3932 67.4671 36.334 67.6494 36.334C67.8773 36.334 68.055 36.416 68.1826 36.5801C68.3193 36.7441 68.3877 36.931 68.3877 37.1406C68.3877 37.4505 68.3057 37.7422 68.1416 38.0156C67.9775 38.2799 67.7725 38.5124 67.5264 38.7129C67.2803 38.9043 67.0068 39.0547 66.7061 39.1641C66.4053 39.2826 66.1182 39.3418 65.8447 39.3418C65.3525 39.3418 64.9333 39.2188 64.5869 38.9727C64.2497 38.7266 63.9762 38.4167 63.7666 38.043C63.557 37.6602 63.4066 37.2454 63.3154 36.7988C63.2243 36.3522 63.1787 35.9284 63.1787 35.5273C63.1787 35.0625 63.2425 34.5612 63.3701 34.0234C63.4977 33.4766 63.6937 32.9707 63.958 32.5059C64.2223 32.041 64.5596 31.6536 64.9697 31.3438C65.389 31.0339 65.8857 30.8789 66.46 30.8789C66.8154 30.8789 67.1208 30.9564 67.376 31.1113C67.6403 31.2663 67.8545 31.4714 68.0186 31.7266C68.1917 31.9727 68.3193 32.2507 68.4014 32.5605C68.4925 32.8704 68.5381 33.1758 68.5381 33.4766C68.5381 33.5221 68.5381 33.5677 68.5381 33.6133C68.5381 33.6589 68.5335 33.7044 68.5244 33.75ZM75.0186 36.5664C75.0186 36.8763 74.9183 37.1816 74.7178 37.4824C74.5264 37.7741 74.2803 38.0384 73.9795 38.2754C73.6878 38.5033 73.3734 38.6901 73.0361 38.8359C72.6989 38.9727 72.389 39.041 72.1064 39.041C71.6234 39.041 71.1904 38.9225 70.8076 38.6855C70.4339 38.4395 70.1195 38.1296 69.8643 37.7559C69.609 37.3822 69.4131 36.972 69.2764 36.5254C69.1488 36.0697 69.085 35.6276 69.085 35.1992C69.085 34.7435 69.1488 34.2559 69.2764 33.7363C69.404 33.2168 69.5954 32.7383 69.8506 32.3008C70.1149 31.8633 70.443 31.4987 70.835 31.207C71.236 30.9154 71.71 30.7695 72.2568 30.7695C72.5667 30.7695 72.863 30.8242 73.1455 30.9336C73.4281 31.0339 73.6742 31.1797 73.8838 31.3711C74.0934 31.5625 74.262 31.7904 74.3896 32.0547C74.5173 32.319 74.5811 32.6152 74.5811 32.9434C74.5811 33.3717 74.4899 33.7728 74.3076 34.1465C74.1253 34.5202 73.8838 34.8438 73.583 35.1172C73.2822 35.3906 72.9359 35.6139 72.5439 35.7871C72.152 35.9512 71.751 36.0423 71.3408 36.0605C71.3773 36.3249 71.4821 36.5163 71.6553 36.6348C71.8376 36.7533 72.0518 36.8125 72.2979 36.8125C72.4801 36.8125 72.6579 36.7669 72.8311 36.6758C73.0042 36.5846 73.1729 36.4844 73.3369 36.375C73.501 36.2565 73.6605 36.1517 73.8154 36.0605C73.9795 35.9694 74.1436 35.9238 74.3076 35.9238C74.4899 35.9238 74.654 35.9831 74.7998 36.1016C74.9456 36.2201 75.0186 36.375 75.0186 36.5664ZM72.8037 33.2168C72.8037 33.0983 72.7718 32.9753 72.708 32.8477C72.6442 32.7201 72.5439 32.6562 72.4072 32.6562C72.2067 32.6562 72.0381 32.7109 71.9014 32.8203C71.7646 32.9206 71.6507 33.0527 71.5596 33.2168C71.4684 33.3717 71.3955 33.5404 71.3408 33.7227C71.2952 33.9049 71.2679 34.0736 71.2588 34.2285C71.3864 34.2012 71.5368 34.1647 71.71 34.1191C71.8923 34.0736 72.0609 34.0143 72.2158 33.9414C72.3799 33.8594 72.5166 33.7591 72.626 33.6406C72.7445 33.5221 72.8037 33.3809 72.8037 33.2168ZM74.0205 29.8535C74.0205 29.9264 74.0068 29.972 73.9795 29.9902C73.9521 30.0085 73.9066 30.0176 73.8428 30.0176C73.7334 30.0176 73.6104 29.9902 73.4736 29.9355C73.346 29.8809 73.2139 29.8125 73.0771 29.7305C72.9495 29.6484 72.8219 29.5618 72.6943 29.4707C72.5758 29.3796 72.4756 29.2975 72.3936 29.2246C72.3024 29.2975 72.193 29.3841 72.0654 29.4844C71.9469 29.5846 71.8193 29.6803 71.6826 29.7715C71.5459 29.8535 71.4092 29.9264 71.2725 29.9902C71.1357 30.0449 71.0081 30.0723 70.8896 30.0723C70.8441 30.0723 70.7985 30.0632 70.7529 30.0449C70.7165 30.0267 70.6982 29.9811 70.6982 29.9082C70.6982 29.7715 70.7575 29.5983 70.876 29.3887C70.9945 29.179 71.1403 28.9785 71.3135 28.7871C71.4867 28.5957 71.6689 28.4316 71.8604 28.2949C72.0518 28.1582 72.2204 28.0898 72.3662 28.0898C72.512 28.0898 72.6807 28.1582 72.8721 28.2949C73.0635 28.4225 73.2412 28.5775 73.4053 28.7598C73.5785 28.9421 73.7243 29.1335 73.8428 29.334C73.9613 29.5345 74.0205 29.7077 74.0205 29.8535ZM82.8662 31.4805C82.8662 31.7448 82.7751 31.9408 82.5928 32.0684C82.4196 32.196 82.2236 32.319 82.0049 32.4375C81.7861 32.5469 81.5856 32.679 81.4033 32.834C81.2301 32.9889 81.1436 33.2214 81.1436 33.5312C81.1436 33.6953 81.18 33.8366 81.2529 33.9551C81.335 34.0736 81.4307 34.1829 81.54 34.2832C81.6585 34.3743 81.7861 34.4701 81.9229 34.5703C82.0596 34.6706 82.1826 34.7845 82.292 34.9121C82.4105 35.0397 82.5062 35.1947 82.5791 35.377C82.6611 35.5592 82.7021 35.7826 82.7021 36.0469C82.7021 36.4297 82.6019 36.8079 82.4014 37.1816C82.21 37.5462 81.9593 37.8743 81.6494 38.166C81.3486 38.4486 81.0068 38.6764 80.624 38.8496C80.2412 39.0228 79.863 39.1094 79.4893 39.1094C79.3343 39.1094 79.1794 39.0957 79.0244 39.0684C78.8695 39.0501 78.7282 39.0091 78.6006 38.9453C78.4821 38.8815 78.3818 38.7949 78.2998 38.6855C78.2178 38.5671 78.1768 38.4167 78.1768 38.2344C78.1768 37.9792 78.2269 37.7832 78.3271 37.6465C78.4274 37.5007 78.555 37.3867 78.71 37.3047C78.8649 37.2227 79.029 37.1589 79.2021 37.1133C79.3844 37.0677 79.5531 37.013 79.708 36.9492C79.863 36.8763 79.9906 36.7852 80.0908 36.6758C80.1911 36.5664 80.2412 36.4115 80.2412 36.2109C80.2412 36.0195 80.1637 35.8236 80.0088 35.623C79.863 35.4134 79.6989 35.1947 79.5166 34.9668C79.3343 34.7298 79.1657 34.4792 79.0107 34.2148C78.8649 33.9505 78.792 33.6589 78.792 33.3398C78.792 32.9479 78.8695 32.5879 79.0244 32.2598C79.1885 31.9225 79.4027 31.6309 79.667 31.3848C79.9404 31.1387 80.2503 30.9473 80.5967 30.8105C80.943 30.6647 81.3076 30.5918 81.6904 30.5918C81.8363 30.5918 81.9775 30.6055 82.1143 30.6328C82.2601 30.6602 82.3877 30.7103 82.4971 30.7832C82.6064 30.847 82.693 30.9382 82.7568 31.0566C82.8298 31.166 82.8662 31.3073 82.8662 31.4805ZM89.2236 37.0723C89.2236 37.2363 89.2145 37.4505 89.1963 37.7148C89.1872 37.9792 89.1507 38.2389 89.0869 38.4941C89.0231 38.7402 88.9229 38.9544 88.7861 39.1367C88.6494 39.319 88.458 39.4102 88.2119 39.4102C87.8747 39.4102 87.6149 39.3008 87.4326 39.082C87.2503 38.8633 87.1637 38.5898 87.1729 38.2617C86.8812 38.5169 86.5485 38.7174 86.1748 38.8633C85.8102 39.0091 85.4365 39.082 85.0537 39.082C84.7894 39.082 84.5387 39.0182 84.3018 38.8906C84.0648 38.763 83.8551 38.599 83.6729 38.3984C83.4906 38.1979 83.3447 37.9746 83.2354 37.7285C83.126 37.4733 83.0713 37.2227 83.0713 36.9766C83.0713 36.5391 83.2035 36.1562 83.4678 35.8281C83.7412 35.5 84.0739 35.222 84.4658 34.9941C84.8577 34.7572 85.2725 34.5703 85.71 34.4336C86.1566 34.2969 86.5531 34.2057 86.8994 34.1602C86.8994 34.1146 86.8994 34.0736 86.8994 34.0371C86.9085 34.0007 86.9131 33.9596 86.9131 33.9141C86.9131 33.6315 86.8356 33.4036 86.6807 33.2305C86.5257 33.0573 86.307 32.9707 86.0244 32.9707C85.7965 32.9707 85.6006 33.0117 85.4365 33.0938C85.2725 33.1667 85.1175 33.2533 84.9717 33.3535C84.8258 33.4447 84.68 33.5312 84.5342 33.6133C84.3883 33.6862 84.2243 33.7227 84.042 33.7227C83.8415 33.7227 83.6683 33.6589 83.5225 33.5312C83.3857 33.4036 83.3174 33.2396 83.3174 33.0391C83.3174 32.7383 83.404 32.4648 83.5771 32.2188C83.7594 31.9727 83.9827 31.7676 84.2471 31.6035C84.5205 31.4303 84.8122 31.2982 85.1221 31.207C85.4411 31.1068 85.7327 31.0566 85.9971 31.0566C86.2432 31.0566 86.4893 31.0885 86.7354 31.1523C86.9814 31.207 87.2139 31.2982 87.4326 31.4258C87.6514 31.5443 87.8473 31.6947 88.0205 31.877C88.2028 32.0501 88.3486 32.2552 88.458 32.4922C88.6221 32.8294 88.7542 33.1895 88.8545 33.5723C88.9548 33.946 89.0322 34.3333 89.0869 34.7344C89.1416 35.1263 89.1781 35.5228 89.1963 35.9238C89.2145 36.3158 89.2236 36.6986 89.2236 37.0723ZM87.0361 36.6348L86.9951 35.7051C86.9769 35.7051 86.9587 35.7051 86.9404 35.7051C86.9222 35.696 86.904 35.6914 86.8857 35.6914C86.7673 35.6914 86.6169 35.7233 86.4346 35.7871C86.2614 35.8418 86.0928 35.9238 85.9287 36.0332C85.7646 36.1335 85.6234 36.2474 85.5049 36.375C85.3955 36.5026 85.3408 36.6348 85.3408 36.7715C85.3408 36.8991 85.3864 36.9857 85.4775 37.0312C85.5687 37.0768 85.6735 37.0996 85.792 37.0996C85.9925 37.0996 86.2067 37.0495 86.4346 36.9492C86.6624 36.8398 86.863 36.735 87.0361 36.6348ZM96.5107 34.4883C96.5107 34.7526 96.488 35.0534 96.4424 35.3906C96.4059 35.7188 96.3421 36.056 96.251 36.4023C96.1689 36.7487 96.055 37.0859 95.9092 37.4141C95.7725 37.7422 95.5993 38.0384 95.3896 38.3027C95.1891 38.5579 94.9521 38.763 94.6787 38.918C94.4144 39.0729 94.1045 39.1504 93.749 39.1504C93.3753 39.1504 93.0335 39.0638 92.7236 38.8906C92.4229 38.7174 92.1631 38.4805 91.9443 38.1797C91.917 38.4258 91.8167 38.6445 91.6436 38.8359C91.4704 39.0182 91.2516 39.1094 90.9873 39.1094C90.8324 39.1094 90.7002 39.0319 90.5908 38.877C90.4906 38.722 90.4085 38.526 90.3447 38.2891C90.2809 38.043 90.2308 37.7741 90.1943 37.4824C90.167 37.1908 90.1488 36.9082 90.1396 36.6348C90.1305 36.3613 90.126 36.1152 90.126 35.8965C90.126 35.6777 90.126 35.5228 90.126 35.4316C90.126 35.1217 90.126 34.8118 90.126 34.502C90.1351 34.1921 90.1442 33.8776 90.1533 33.5586C90.1533 33.4036 90.1488 33.1712 90.1396 32.8613C90.1396 32.5514 90.1442 32.2096 90.1533 31.8359C90.1624 31.4531 90.1807 31.0658 90.208 30.6738C90.2445 30.2728 90.3037 29.9082 90.3857 29.5801C90.4678 29.252 90.5817 28.9831 90.7275 28.7734C90.8734 28.5638 91.0602 28.4544 91.2881 28.4453C91.4704 28.4453 91.6253 28.5091 91.7529 28.6367C91.8805 28.7643 91.9854 28.9329 92.0674 29.1426C92.1585 29.3522 92.2269 29.5892 92.2725 29.8535C92.3271 30.1087 92.3636 30.3685 92.3818 30.6328C92.4092 30.888 92.4229 31.1341 92.4229 31.3711C92.432 31.599 92.4365 31.7858 92.4365 31.9316C92.4365 31.959 92.432 32.0228 92.4229 32.123C92.4229 32.2142 92.4229 32.3145 92.4229 32.4238C92.4229 32.5332 92.4229 32.6335 92.4229 32.7246C92.4229 32.8066 92.4229 32.8522 92.4229 32.8613C92.5049 32.6882 92.6234 32.5195 92.7783 32.3555C92.9333 32.1914 93.1064 32.0456 93.2979 31.918C93.4893 31.7904 93.6898 31.6855 93.8994 31.6035C94.109 31.5215 94.3096 31.4805 94.501 31.4805C94.8838 31.4805 95.2028 31.5807 95.458 31.7812C95.7223 31.9727 95.932 32.2188 96.0869 32.5195C96.2419 32.8203 96.3512 33.1484 96.415 33.5039C96.4788 33.8503 96.5107 34.1784 96.5107 34.4883ZM94.501 34.8984C94.501 34.7891 94.4919 34.6706 94.4736 34.543C94.4645 34.4154 94.4326 34.2969 94.3779 34.1875C94.3324 34.0781 94.264 33.987 94.1729 33.9141C94.0908 33.8411 93.9814 33.8047 93.8447 33.8047C93.6989 33.8047 93.5531 33.8366 93.4072 33.9004C93.2705 33.9642 93.1383 34.0462 93.0107 34.1465C92.8831 34.2467 92.7646 34.3561 92.6553 34.4746C92.5459 34.584 92.4502 34.6934 92.3682 34.8027L92.2314 36.0195C92.3773 36.2292 92.555 36.3978 92.7646 36.5254C92.9743 36.6439 93.2113 36.7031 93.4756 36.7031C93.6761 36.7031 93.8402 36.6393 93.9678 36.5117C94.1045 36.3841 94.2093 36.2292 94.2822 36.0469C94.3643 35.8555 94.4189 35.6549 94.4463 35.4453C94.4827 35.2357 94.501 35.0534 94.501 34.8984ZM103.073 36.5664C103.073 36.8763 102.973 37.1816 102.772 37.4824C102.581 37.7741 102.335 38.0384 102.034 38.2754C101.743 38.5033 101.428 38.6901 101.091 38.8359C100.754 38.9727 100.444 39.041 100.161 39.041C99.6781 39.041 99.2451 38.9225 98.8623 38.6855C98.4886 38.4395 98.1742 38.1296 97.9189 37.7559C97.6637 37.3822 97.4678 36.972 97.3311 36.5254C97.2035 36.0697 97.1396 35.6276 97.1396 35.1992C97.1396 34.7435 97.2035 34.2559 97.3311 33.7363C97.4587 33.2168 97.6501 32.7383 97.9053 32.3008C98.1696 31.8633 98.4977 31.4987 98.8896 31.207C99.2907 30.9154 99.7646 30.7695 100.312 30.7695C100.621 30.7695 100.918 30.8242 101.2 30.9336C101.483 31.0339 101.729 31.1797 101.938 31.3711C102.148 31.5625 102.317 31.7904 102.444 32.0547C102.572 32.319 102.636 32.6152 102.636 32.9434C102.636 33.3717 102.545 33.7728 102.362 34.1465C102.18 34.5202 101.938 34.8438 101.638 35.1172C101.337 35.3906 100.991 35.6139 100.599 35.7871C100.207 35.9512 99.8057 36.0423 99.3955 36.0605C99.432 36.3249 99.5368 36.5163 99.71 36.6348C99.8923 36.7533 100.106 36.8125 100.353 36.8125C100.535 36.8125 100.713 36.7669 100.886 36.6758C101.059 36.5846 101.228 36.4844 101.392 36.375C101.556 36.2565 101.715 36.1517 101.87 36.0605C102.034 35.9694 102.198 35.9238 102.362 35.9238C102.545 35.9238 102.709 35.9831 102.854 36.1016C103 36.2201 103.073 36.375 103.073 36.5664ZM100.858 33.2168C100.858 33.0983 100.826 32.9753 100.763 32.8477C100.699 32.7201 100.599 32.6562 100.462 32.6562C100.261 32.6562 100.093 32.7109 99.9561 32.8203C99.8193 32.9206 99.7054 33.0527 99.6143 33.2168C99.5231 33.3717 99.4502 33.5404 99.3955 33.7227C99.3499 33.9049 99.3226 34.0736 99.3135 34.2285C99.4411 34.2012 99.5915 34.1647 99.7646 34.1191C99.9469 34.0736 100.116 34.0143 100.271 33.9414C100.435 33.8594 100.571 33.7591 100.681 33.6406C100.799 33.5221 100.858 33.3809 100.858 33.2168ZM112.644 36.5664C112.644 36.8763 112.543 37.1816 112.343 37.4824C112.151 37.7741 111.905 38.0384 111.604 38.2754C111.313 38.5033 110.998 38.6901 110.661 38.8359C110.324 38.9727 110.014 39.041 109.731 39.041C109.248 39.041 108.815 38.9225 108.433 38.6855C108.059 38.4395 107.744 38.1296 107.489 37.7559C107.234 37.3822 107.038 36.972 106.901 36.5254C106.774 36.0697 106.71 35.6276 106.71 35.1992C106.71 34.7435 106.774 34.2559 106.901 33.7363C107.029 33.2168 107.22 32.7383 107.476 32.3008C107.74 31.8633 108.068 31.4987 108.46 31.207C108.861 30.9154 109.335 30.7695 109.882 30.7695C110.192 30.7695 110.488 30.8242 110.771 30.9336C111.053 31.0339 111.299 31.1797 111.509 31.3711C111.718 31.5625 111.887 31.7904 112.015 32.0547C112.142 32.319 112.206 32.6152 112.206 32.9434C112.206 33.3717 112.115 33.7728 111.933 34.1465C111.75 34.5202 111.509 34.8438 111.208 35.1172C110.907 35.3906 110.561 35.6139 110.169 35.7871C109.777 35.9512 109.376 36.0423 108.966 36.0605C109.002 36.3249 109.107 36.5163 109.28 36.6348C109.463 36.7533 109.677 36.8125 109.923 36.8125C110.105 36.8125 110.283 36.7669 110.456 36.6758C110.629 36.5846 110.798 36.4844 110.962 36.375C111.126 36.2565 111.285 36.1517 111.44 36.0605C111.604 35.9694 111.769 35.9238 111.933 35.9238C112.115 35.9238 112.279 35.9831 112.425 36.1016C112.571 36.2201 112.644 36.375 112.644 36.5664ZM110.429 33.2168C110.429 33.0983 110.397 32.9753 110.333 32.8477C110.269 32.7201 110.169 32.6562 110.032 32.6562C109.832 32.6562 109.663 32.7109 109.526 32.8203C109.39 32.9206 109.276 33.0527 109.185 33.2168C109.093 33.3717 109.021 33.5404 108.966 33.7227C108.92 33.9049 108.893 34.0736 108.884 34.2285C109.011 34.2012 109.162 34.1647 109.335 34.1191C109.517 34.0736 109.686 34.0143 109.841 33.9414C110.005 33.8594 110.142 33.7591 110.251 33.6406C110.369 33.5221 110.429 33.3809 110.429 33.2168ZM118.96 31.9453C118.96 32.0911 118.933 32.2461 118.878 32.4102C118.823 32.5651 118.755 32.7246 118.673 32.8887C118.591 33.0527 118.504 33.2122 118.413 33.3672C118.322 33.513 118.24 33.6497 118.167 33.7773C117.985 34.069 117.802 34.3652 117.62 34.666C117.447 34.9668 117.269 35.263 117.087 35.5547C117.169 35.6823 117.283 35.86 117.429 36.0879C117.575 36.3158 117.716 36.5573 117.853 36.8125C117.998 37.0586 118.121 37.3047 118.222 37.5508C118.322 37.7969 118.372 38.0065 118.372 38.1797C118.372 38.3438 118.308 38.5033 118.181 38.6582C118.053 38.8132 117.898 38.8906 117.716 38.8906C117.524 38.8906 117.328 38.8223 117.128 38.6855C116.937 38.5488 116.745 38.3893 116.554 38.207C116.371 38.0156 116.203 37.8197 116.048 37.6191C115.893 37.4095 115.761 37.2363 115.651 37.0996C115.533 37.2272 115.378 37.4004 115.187 37.6191C115.004 37.8379 114.804 38.0521 114.585 38.2617C114.375 38.4714 114.166 38.6536 113.956 38.8086C113.746 38.9544 113.56 39.0273 113.396 39.0273C113.204 39.0273 113.054 38.959 112.944 38.8223C112.835 38.6855 112.78 38.526 112.78 38.3438C112.78 38.1615 112.84 37.929 112.958 37.6465C113.086 37.3639 113.231 37.0723 113.396 36.7715C113.569 36.4707 113.737 36.1836 113.901 35.9102C114.075 35.6367 114.207 35.4225 114.298 35.2676C114.207 35.1035 114.093 34.8893 113.956 34.625C113.819 34.3516 113.687 34.069 113.56 33.7773C113.441 33.4766 113.336 33.1849 113.245 32.9023C113.163 32.6107 113.122 32.3691 113.122 32.1777C113.122 31.9681 113.186 31.7995 113.313 31.6719C113.441 31.5443 113.61 31.4805 113.819 31.4805C114.047 31.4805 114.261 31.5716 114.462 31.7539C114.662 31.9271 114.849 32.1413 115.022 32.3965C115.196 32.6426 115.346 32.9023 115.474 33.1758C115.61 33.4401 115.72 33.6589 115.802 33.832C115.911 33.668 116.062 33.4447 116.253 33.1621C116.453 32.8796 116.677 32.6016 116.923 32.3281C117.169 32.0547 117.424 31.8177 117.688 31.6172C117.953 31.4167 118.203 31.3164 118.44 31.3164C118.595 31.3164 118.718 31.3848 118.81 31.5215C118.91 31.6491 118.96 31.7904 118.96 31.9453ZM125.632 34.9258C125.632 35.3268 125.586 35.7689 125.495 36.252C125.413 36.7259 125.267 37.168 125.058 37.5781C124.857 37.9883 124.588 38.3301 124.251 38.6035C123.923 38.877 123.508 39.0137 123.007 39.0137C122.879 39.0137 122.747 39.0046 122.61 38.9863C122.474 38.9681 122.341 38.9362 122.214 38.8906C122.095 38.8451 121.986 38.7858 121.886 38.7129C121.785 38.6309 121.708 38.526 121.653 38.3984L121.53 40.3672C121.521 40.5768 121.512 40.8275 121.503 41.1191C121.503 41.4108 121.466 41.6888 121.394 41.9531C121.33 42.2174 121.216 42.4408 121.052 42.623C120.897 42.8145 120.669 42.9102 120.368 42.9102C120.195 42.9102 120.049 42.819 119.931 42.6367C119.812 42.4635 119.716 42.2402 119.644 41.9668C119.58 41.6934 119.53 41.388 119.493 41.0508C119.457 40.7135 119.434 40.39 119.425 40.0801C119.416 39.7702 119.411 39.4876 119.411 39.2324C119.411 38.9772 119.411 38.7904 119.411 38.6719C119.411 38.0612 119.407 37.4551 119.397 36.8535C119.388 36.2428 119.384 35.6322 119.384 35.0215C119.384 34.9121 119.384 34.7435 119.384 34.5156C119.384 34.2786 119.393 34.0234 119.411 33.75C119.429 33.4766 119.457 33.194 119.493 32.9023C119.539 32.6107 119.603 32.3464 119.685 32.1094C119.767 31.8633 119.871 31.6673 119.999 31.5215C120.127 31.3665 120.282 31.2891 120.464 31.2891C120.582 31.2891 120.687 31.3255 120.778 31.3984C120.879 31.4622 120.961 31.5488 121.024 31.6582C121.097 31.7585 121.157 31.8678 121.202 31.9863C121.248 32.1048 121.284 32.2142 121.312 32.3145C121.594 31.9954 121.918 31.7539 122.282 31.5898C122.656 31.4258 123.052 31.3438 123.472 31.3438C123.909 31.3438 124.265 31.4668 124.538 31.7129C124.821 31.959 125.039 32.2643 125.194 32.6289C125.358 32.9935 125.472 33.3854 125.536 33.8047C125.6 34.2148 125.632 34.5885 125.632 34.9258ZM123.677 34.8164C123.677 34.6797 123.663 34.543 123.636 34.4062C123.618 34.2604 123.576 34.1283 123.513 34.0098C123.458 33.8822 123.376 33.7819 123.267 33.709C123.157 33.627 123.021 33.5859 122.856 33.5859C122.638 33.5859 122.405 33.6589 122.159 33.8047C121.922 33.9414 121.744 34.1009 121.626 34.2832C121.58 34.3561 121.553 34.4746 121.544 34.6387C121.535 34.8027 121.53 34.9258 121.53 35.0078C121.53 35.0716 121.53 35.1582 121.53 35.2676C121.539 35.3678 121.549 35.4727 121.558 35.582C121.567 35.6914 121.576 35.7962 121.585 35.8965C121.603 35.9967 121.626 36.0742 121.653 36.1289C121.681 36.2109 121.74 36.2884 121.831 36.3613C121.922 36.4251 122.022 36.4844 122.132 36.5391C122.241 36.5938 122.351 36.6348 122.46 36.6621C122.578 36.6895 122.679 36.7031 122.761 36.7031C122.952 36.7031 123.107 36.6302 123.226 36.4844C123.344 36.3385 123.435 36.1654 123.499 35.9648C123.572 35.7643 123.618 35.5592 123.636 35.3496C123.663 35.1309 123.677 34.9531 123.677 34.8164ZM129.022 30.7148C129.022 31.207 129 31.7038 128.954 32.2051C128.918 32.6973 128.899 33.194 128.899 33.6953C128.899 34.3424 128.918 34.9896 128.954 35.6367C129 36.2839 129.022 36.9355 129.022 37.5918C129.022 37.7559 129.013 37.9427 128.995 38.1523C128.977 38.3529 128.931 38.5397 128.858 38.7129C128.795 38.8861 128.694 39.0319 128.558 39.1504C128.421 39.2689 128.239 39.3281 128.011 39.3281C127.792 39.3281 127.601 39.2188 127.437 39C127.282 38.7904 127.149 38.5215 127.04 38.1934C126.94 37.8561 126.853 37.4824 126.78 37.0723C126.716 36.6621 126.666 36.2656 126.63 35.8828C126.603 35.4909 126.58 35.1354 126.562 34.8164C126.552 34.4883 126.548 34.2467 126.548 34.0918C126.548 33.9186 126.552 33.668 126.562 33.3398C126.58 33.0117 126.612 32.6562 126.657 32.2734C126.703 31.8906 126.762 31.5033 126.835 31.1113C126.917 30.7103 127.022 30.3503 127.149 30.0312C127.277 29.7031 127.427 29.4388 127.601 29.2383C127.783 29.0286 127.997 28.9238 128.243 28.9238C128.444 28.9238 128.594 28.9922 128.694 29.1289C128.804 29.2565 128.881 29.416 128.927 29.6074C128.972 29.7897 129 29.9857 129.009 30.1953C129.018 30.3958 129.022 30.569 129.022 30.7148ZM132.317 29.457C132.317 29.5846 132.281 29.6986 132.208 29.7988C132.144 29.8991 132.058 29.9902 131.948 30.0723C131.839 30.1452 131.72 30.2044 131.593 30.25C131.465 30.2865 131.347 30.3047 131.237 30.3047C131.055 30.3047 130.896 30.2591 130.759 30.168C130.622 30.0768 130.554 29.9355 130.554 29.7441C130.554 29.6074 130.586 29.4889 130.649 29.3887C130.722 29.2793 130.809 29.1927 130.909 29.1289C131.009 29.056 131.123 29.0013 131.251 28.9648C131.379 28.9284 131.502 28.9102 131.62 28.9102C131.793 28.9102 131.953 28.9512 132.099 29.0332C132.244 29.1152 132.317 29.2565 132.317 29.457ZM132.427 34.1055C132.427 34.2331 132.427 34.3698 132.427 34.5156C132.427 34.6523 132.422 34.7845 132.413 34.9121C132.404 35.0671 132.399 35.2767 132.399 35.541C132.399 35.7962 132.39 36.0742 132.372 36.375C132.354 36.6758 132.322 36.9811 132.276 37.291C132.24 37.6009 132.176 37.8835 132.085 38.1387C131.994 38.3939 131.871 38.6035 131.716 38.7676C131.57 38.9225 131.383 39.0046 131.155 39.0137C130.982 39.0228 130.836 38.9544 130.718 38.8086C130.599 38.6628 130.499 38.4759 130.417 38.248C130.344 38.0111 130.289 37.7513 130.253 37.4688C130.216 37.1771 130.189 36.8991 130.171 36.6348C130.153 36.3613 130.144 36.1107 130.144 35.8828C130.144 35.6549 130.144 35.4863 130.144 35.377C130.144 35.2311 130.144 35.026 130.144 34.7617C130.144 34.4883 130.153 34.1966 130.171 33.8867C130.189 33.5768 130.221 33.2624 130.267 32.9434C130.321 32.6243 130.394 32.3327 130.485 32.0684C130.586 31.804 130.713 31.5898 130.868 31.4258C131.023 31.2617 131.219 31.1797 131.456 31.1797C131.702 31.1797 131.889 31.3027 132.017 31.5488C132.144 31.7949 132.24 32.082 132.304 32.4102C132.368 32.7383 132.404 33.0664 132.413 33.3945C132.422 33.7135 132.427 33.9505 132.427 34.1055ZM138.47 33.75C138.47 33.7956 138.465 33.8457 138.456 33.9004C138.447 33.946 138.433 33.9915 138.415 34.0371C138.333 34.2467 138.205 34.4245 138.032 34.5703C137.859 34.707 137.654 34.7754 137.417 34.7754C137.062 34.7754 136.82 34.5977 136.692 34.2422C136.674 34.1966 136.665 34.1465 136.665 34.0918C136.665 34.028 136.66 33.9642 136.651 33.9004V33.5039C136.633 33.3763 136.601 33.276 136.556 33.2031C136.51 33.1302 136.433 33.0938 136.323 33.0938C136.168 33.0938 136.018 33.194 135.872 33.3945C135.735 33.5859 135.612 33.8184 135.503 34.0918C135.403 34.3561 135.321 34.6296 135.257 34.9121C135.193 35.1947 135.161 35.4225 135.161 35.5957C135.161 35.7324 135.17 35.901 135.188 36.1016C135.207 36.293 135.243 36.4798 135.298 36.6621C135.353 36.8444 135.425 37.0039 135.517 37.1406C135.617 37.2682 135.744 37.332 135.899 37.332C136.054 37.332 136.196 37.2865 136.323 37.1953C136.46 37.0951 136.592 36.9811 136.72 36.8535C136.838 36.7441 136.966 36.6302 137.103 36.5117C137.248 36.3932 137.412 36.334 137.595 36.334C137.823 36.334 138 36.416 138.128 36.5801C138.265 36.7441 138.333 36.931 138.333 37.1406C138.333 37.4505 138.251 37.7422 138.087 38.0156C137.923 38.2799 137.718 38.5124 137.472 38.7129C137.226 38.9043 136.952 39.0547 136.651 39.1641C136.351 39.2826 136.063 39.3418 135.79 39.3418C135.298 39.3418 134.879 39.2188 134.532 38.9727C134.195 38.7266 133.922 38.4167 133.712 38.043C133.502 37.6602 133.352 37.2454 133.261 36.7988C133.17 36.3522 133.124 35.9284 133.124 35.5273C133.124 35.0625 133.188 34.5612 133.315 34.0234C133.443 33.4766 133.639 32.9707 133.903 32.5059C134.168 32.041 134.505 31.6536 134.915 31.3438C135.334 31.0339 135.831 30.8789 136.405 30.8789C136.761 30.8789 137.066 30.9564 137.321 31.1113C137.586 31.2663 137.8 31.4714 137.964 31.7266C138.137 31.9727 138.265 32.2507 138.347 32.5605C138.438 32.8704 138.483 33.1758 138.483 33.4766C138.483 33.5221 138.483 33.5677 138.483 33.6133C138.483 33.6589 138.479 33.7044 138.47 33.75ZM145.046 37.0723C145.046 37.2363 145.037 37.4505 145.019 37.7148C145.009 37.9792 144.973 38.2389 144.909 38.4941C144.845 38.7402 144.745 38.9544 144.608 39.1367C144.472 39.319 144.28 39.4102 144.034 39.4102C143.697 39.4102 143.437 39.3008 143.255 39.082C143.073 38.8633 142.986 38.5898 142.995 38.2617C142.703 38.5169 142.371 38.7174 141.997 38.8633C141.632 39.0091 141.259 39.082 140.876 39.082C140.612 39.082 140.361 39.0182 140.124 38.8906C139.887 38.763 139.677 38.599 139.495 38.3984C139.313 38.1979 139.167 37.9746 139.058 37.7285C138.948 37.4733 138.894 37.2227 138.894 36.9766C138.894 36.5391 139.026 36.1562 139.29 35.8281C139.563 35.5 139.896 35.222 140.288 34.9941C140.68 34.7572 141.095 34.5703 141.532 34.4336C141.979 34.2969 142.375 34.2057 142.722 34.1602C142.722 34.1146 142.722 34.0736 142.722 34.0371C142.731 34.0007 142.735 33.9596 142.735 33.9141C142.735 33.6315 142.658 33.4036 142.503 33.2305C142.348 33.0573 142.129 32.9707 141.847 32.9707C141.619 32.9707 141.423 33.0117 141.259 33.0938C141.095 33.1667 140.94 33.2533 140.794 33.3535C140.648 33.4447 140.502 33.5312 140.356 33.6133C140.211 33.6862 140.047 33.7227 139.864 33.7227C139.664 33.7227 139.491 33.6589 139.345 33.5312C139.208 33.4036 139.14 33.2396 139.14 33.0391C139.14 32.7383 139.226 32.4648 139.399 32.2188C139.582 31.9727 139.805 31.7676 140.069 31.6035C140.343 31.4303 140.634 31.2982 140.944 31.207C141.263 31.1068 141.555 31.0566 141.819 31.0566C142.065 31.0566 142.312 31.0885 142.558 31.1523C142.804 31.207 143.036 31.2982 143.255 31.4258C143.474 31.5443 143.67 31.6947 143.843 31.877C144.025 32.0501 144.171 32.2552 144.28 32.4922C144.444 32.8294 144.576 33.1895 144.677 33.5723C144.777 33.946 144.854 34.3333 144.909 34.7344C144.964 35.1263 145 35.5228 145.019 35.9238C145.037 36.3158 145.046 36.6986 145.046 37.0723ZM142.858 36.6348L142.817 35.7051C142.799 35.7051 142.781 35.7051 142.763 35.7051C142.744 35.696 142.726 35.6914 142.708 35.6914C142.59 35.6914 142.439 35.7233 142.257 35.7871C142.084 35.8418 141.915 35.9238 141.751 36.0332C141.587 36.1335 141.446 36.2474 141.327 36.375C141.218 36.5026 141.163 36.6348 141.163 36.7715C141.163 36.8991 141.209 36.9857 141.3 37.0312C141.391 37.0768 141.496 37.0996 141.614 37.0996C141.815 37.0996 142.029 37.0495 142.257 36.9492C142.485 36.8398 142.685 36.735 142.858 36.6348ZM150.61 33.8867C150.483 33.8958 150.373 33.8867 150.282 33.8594C150.191 33.8229 150.1 33.7865 150.009 33.75C149.927 33.7135 149.845 33.6816 149.763 33.6543C149.681 33.6178 149.59 33.6042 149.489 33.6133C149.307 33.6224 149.143 33.6725 148.997 33.7637C148.86 33.8548 148.733 33.9688 148.614 34.1055C148.505 34.2422 148.409 34.3971 148.327 34.5703C148.245 34.7344 148.181 34.8984 148.136 35.0625C148.108 35.1719 148.086 35.3405 148.067 35.5684C148.058 35.7871 148.054 36.0241 148.054 36.2793C148.045 36.5436 148.04 36.7943 148.04 37.0312C148.04 37.2682 148.031 37.4551 148.013 37.5918C148.004 37.7376 147.981 37.9108 147.944 38.1113C147.908 38.3027 147.849 38.485 147.767 38.6582C147.694 38.8314 147.593 38.9772 147.466 39.0957C147.338 39.2142 147.174 39.2734 146.974 39.2734C146.819 39.2734 146.682 39.2279 146.563 39.1367C146.454 39.0456 146.358 38.9271 146.276 38.7812C146.203 38.6263 146.14 38.4486 146.085 38.248C146.039 38.0475 146.003 37.8424 145.976 37.6328C145.948 37.4141 145.925 37.1953 145.907 36.9766C145.898 36.7578 145.889 36.5527 145.88 36.3613C145.88 36.1608 145.88 35.9785 145.88 35.8145C145.889 35.6504 145.894 35.5182 145.894 35.418C145.884 35.099 145.866 34.7799 145.839 34.4609C145.821 34.1328 145.812 33.8092 145.812 33.4902C145.812 33.2897 145.821 33.0664 145.839 32.8203C145.857 32.5742 145.907 32.3464 145.989 32.1367C146.071 31.918 146.19 31.7357 146.345 31.5898C146.509 31.444 146.732 31.3711 147.015 31.3711C147.17 31.3711 147.302 31.4212 147.411 31.5215C147.521 31.6217 147.607 31.7448 147.671 31.8906C147.744 32.0365 147.799 32.1914 147.835 32.3555C147.871 32.5195 147.894 32.6699 147.903 32.8066C148.122 32.4512 148.368 32.1641 148.642 31.9453C148.915 31.7174 149.271 31.5944 149.708 31.5762C149.927 31.5671 150.141 31.5898 150.351 31.6445C150.569 31.6901 150.765 31.7721 150.938 31.8906C151.121 32 151.267 32.1458 151.376 32.3281C151.494 32.5104 151.558 32.7246 151.567 32.9707C151.586 33.2624 151.499 33.4857 151.308 33.6406C151.116 33.7956 150.884 33.8776 150.61 33.8867ZM157.665 39.3965C157.2 39.3965 156.795 39.2734 156.448 39.0273C156.102 38.7812 155.81 38.4668 155.573 38.084C155.336 37.7012 155.159 37.2773 155.04 36.8125C154.922 36.3385 154.862 35.8737 154.862 35.418C154.862 34.9349 154.922 34.4382 155.04 33.9277C155.159 33.4082 155.341 32.9388 155.587 32.5195C155.833 32.0911 156.147 31.7448 156.53 31.4805C156.913 31.207 157.369 31.0703 157.897 31.0703C158.408 31.0703 158.841 31.2116 159.196 31.4941C159.561 31.7676 159.853 32.1139 160.071 32.5332C160.29 32.9434 160.445 33.3945 160.536 33.8867C160.627 34.3789 160.659 34.8438 160.632 35.2812C160.604 35.7643 160.527 36.252 160.399 36.7441C160.281 37.2363 160.103 37.6784 159.866 38.0703C159.629 38.4622 159.328 38.7812 158.964 39.0273C158.599 39.2734 158.166 39.3965 157.665 39.3965ZM157.802 33.2168C157.665 33.2168 157.542 33.2897 157.433 33.4355C157.332 33.5814 157.246 33.7591 157.173 33.9688C157.109 34.1784 157.059 34.4017 157.022 34.6387C156.986 34.8665 156.968 35.0671 156.968 35.2402C156.968 35.459 156.986 35.696 157.022 35.9512C157.068 36.2064 157.127 36.4434 157.2 36.6621C157.273 36.8717 157.36 37.0495 157.46 37.1953C157.569 37.332 157.692 37.4004 157.829 37.4004C157.975 37.4004 158.098 37.332 158.198 37.1953C158.308 37.0586 158.394 36.8854 158.458 36.6758C158.522 36.4661 158.567 36.2383 158.595 35.9922C158.622 35.737 158.636 35.5 158.636 35.2812C158.636 35.0807 158.618 34.862 158.581 34.625C158.545 34.3789 158.49 34.151 158.417 33.9414C158.353 33.7318 158.267 33.5586 158.157 33.4219C158.057 33.2852 157.938 33.2168 157.802 33.2168ZM34.5635 50.6426C34.4906 51.3079 34.4176 51.9688 34.3447 52.625C34.2718 53.2812 34.2217 53.9375 34.1943 54.5938C34.1488 55.3503 34.1305 56.0658 34.1396 56.7402C34.1488 57.4147 34.1533 58.1302 34.1533 58.8867C34.1533 59.069 34.1488 59.2923 34.1396 59.5566C34.1396 59.821 34.1077 60.0762 34.0439 60.3223C33.9801 60.5684 33.8753 60.778 33.7295 60.9512C33.5928 61.1243 33.3831 61.2109 33.1006 61.2109C32.9639 61.2109 32.8454 61.1699 32.7451 61.0879C32.654 61.0059 32.5719 60.8965 32.499 60.7598C32.4352 60.6322 32.3805 60.4863 32.335 60.3223C32.2985 60.1582 32.2666 59.9896 32.2393 59.8164C32.1937 59.4609 32.1663 59.1055 32.1572 58.75C32.1572 58.4036 32.1572 58.1484 32.1572 57.9844V56.918V56.1523C31.9476 56.4258 31.6742 56.6354 31.3369 56.7812C31.0088 56.918 30.6807 56.9863 30.3525 56.9863C29.9424 56.9863 29.5869 56.8906 29.2861 56.6992C28.9945 56.4987 28.7529 56.248 28.5615 55.9473C28.3701 55.6374 28.2288 55.3001 28.1377 54.9355C28.0465 54.571 28.001 54.2155 28.001 53.8691V53.7871C28.001 53.3132 28.0739 52.8027 28.2197 52.2559C28.3656 51.6999 28.5798 51.1849 28.8623 50.7109C29.154 50.237 29.514 49.8451 29.9424 49.5352C30.3799 49.2161 30.8857 49.0566 31.46 49.0566C31.7699 49.0566 32.0524 49.1204 32.3076 49.248C32.5719 49.3757 32.7588 49.5853 32.8682 49.877C32.9411 49.6673 33.0505 49.4987 33.1963 49.3711C33.3512 49.2344 33.5472 49.166 33.7842 49.166C34.085 49.166 34.2946 49.2663 34.4131 49.4668C34.5407 49.6582 34.6045 49.8724 34.6045 50.1094C34.6045 50.2096 34.5999 50.3008 34.5908 50.3828C34.5817 50.4648 34.5726 50.5514 34.5635 50.6426ZM31.4189 50.9707C31.2093 50.9707 31.0133 51.0573 30.8311 51.2305C30.6488 51.3945 30.4893 51.5996 30.3525 51.8457C30.2158 52.0827 30.1064 52.3379 30.0244 52.6113C29.9515 52.8848 29.915 53.1263 29.915 53.3359C29.915 53.4635 29.9242 53.6003 29.9424 53.7461C29.9697 53.8919 30.0062 54.0332 30.0518 54.1699C30.1064 54.2975 30.1748 54.4069 30.2568 54.498C30.348 54.5801 30.4619 54.6211 30.5986 54.6211C30.7171 54.6211 30.8538 54.5938 31.0088 54.5391C31.1729 54.4753 31.3324 54.3978 31.4873 54.3066C31.6423 54.2064 31.779 54.097 31.8975 53.9785C32.016 53.86 32.098 53.7461 32.1436 53.6367C32.1709 53.5729 32.1937 53.4772 32.2119 53.3496C32.2301 53.222 32.2438 53.0898 32.2529 52.9531C32.2712 52.8073 32.2848 52.666 32.2939 52.5293C32.3031 52.3926 32.3076 52.2878 32.3076 52.2148C32.3076 52.1055 32.2803 51.9824 32.2256 51.8457C32.18 51.6999 32.1162 51.5632 32.0342 51.4355C31.9521 51.2988 31.8564 51.1895 31.7471 51.1074C31.6377 51.0163 31.5283 50.9707 31.4189 50.9707ZM41.208 53.0898C41.208 53.5911 41.1579 54.0879 41.0576 54.5801C40.9574 55.0723 40.7887 55.5143 40.5518 55.9062C40.3148 56.2891 39.9958 56.599 39.5947 56.8359C39.2028 57.0729 38.7106 57.1914 38.1182 57.1914C37.5348 57.1914 37.0472 57.0775 36.6553 56.8496C36.2633 56.6126 35.9489 56.3027 35.7119 55.9199C35.484 55.5371 35.32 55.1042 35.2197 54.6211C35.1286 54.138 35.083 53.6458 35.083 53.1445C35.083 52.5977 35.1468 52.0553 35.2744 51.5176C35.3018 51.3717 35.3519 51.1712 35.4248 50.916C35.5068 50.6517 35.6071 50.3965 35.7256 50.1504C35.8532 49.8952 35.9945 49.6764 36.1494 49.4941C36.3135 49.3118 36.4912 49.2207 36.6826 49.2207C36.8649 49.2207 37.0107 49.2708 37.1201 49.3711C37.2295 49.4714 37.3161 49.599 37.3799 49.7539C37.4437 49.8997 37.4847 50.0592 37.5029 50.2324C37.5212 50.3965 37.5303 50.5469 37.5303 50.6836C37.5303 50.8932 37.512 51.0983 37.4756 51.2988C37.4482 51.4993 37.4163 51.6999 37.3799 51.9004C37.3434 52.1738 37.307 52.4473 37.2705 52.7207C37.2432 52.9941 37.2295 53.2676 37.2295 53.541C37.2295 53.6777 37.234 53.8327 37.2432 54.0059C37.2614 54.1699 37.2979 54.3294 37.3525 54.4844C37.4072 54.6393 37.4847 54.7715 37.585 54.8809C37.6852 54.9811 37.8265 55.0312 38.0088 55.0312C38.2458 55.0312 38.4326 54.9674 38.5693 54.8398C38.7152 54.7122 38.82 54.5527 38.8838 54.3613C38.9567 54.1699 39.0023 53.9648 39.0205 53.7461C39.0387 53.5273 39.0479 53.3268 39.0479 53.1445C39.0479 52.7435 39.0205 52.3516 38.9658 51.9688C38.9111 51.5768 38.861 51.1803 38.8154 50.7793C38.8063 50.7337 38.8018 50.6699 38.8018 50.5879C38.8018 50.4512 38.8245 50.3145 38.8701 50.1777C38.9157 50.041 38.9795 49.918 39.0615 49.8086C39.1436 49.6992 39.2438 49.6126 39.3623 49.5488C39.4808 49.4759 39.613 49.4395 39.7588 49.4395C39.9593 49.4395 40.137 49.5124 40.292 49.6582C40.4469 49.7949 40.5745 49.9772 40.6748 50.2051C40.7842 50.4238 40.8708 50.6745 40.9346 50.957C41.0075 51.2305 41.0622 51.5039 41.0986 51.7773C41.1442 52.0417 41.1715 52.2923 41.1807 52.5293C41.1989 52.7663 41.208 52.9531 41.208 53.0898ZM47.7705 54.5664C47.7705 54.8763 47.6702 55.1816 47.4697 55.4824C47.2783 55.7741 47.0322 56.0384 46.7314 56.2754C46.4398 56.5033 46.1253 56.6901 45.7881 56.8359C45.4508 56.9727 45.141 57.041 44.8584 57.041C44.3753 57.041 43.9424 56.9225 43.5596 56.6855C43.1859 56.4395 42.8714 56.1296 42.6162 55.7559C42.361 55.3822 42.165 54.972 42.0283 54.5254C41.9007 54.0697 41.8369 53.6276 41.8369 53.1992C41.8369 52.7435 41.9007 52.2559 42.0283 51.7363C42.1559 51.2168 42.3473 50.7383 42.6025 50.3008C42.8669 49.8633 43.195 49.4987 43.5869 49.207C43.988 48.9154 44.4619 48.7695 45.0088 48.7695C45.3187 48.7695 45.6149 48.8242 45.8975 48.9336C46.18 49.0339 46.4261 49.1797 46.6357 49.3711C46.8454 49.5625 47.014 49.7904 47.1416 50.0547C47.2692 50.319 47.333 50.6152 47.333 50.9434C47.333 51.3717 47.2419 51.7728 47.0596 52.1465C46.8773 52.5202 46.6357 52.8438 46.335 53.1172C46.0342 53.3906 45.6878 53.6139 45.2959 53.7871C44.904 53.9512 44.5029 54.0423 44.0928 54.0605C44.1292 54.3249 44.234 54.5163 44.4072 54.6348C44.5895 54.7533 44.8037 54.8125 45.0498 54.8125C45.2321 54.8125 45.4098 54.7669 45.583 54.6758C45.7562 54.5846 45.9248 54.4844 46.0889 54.375C46.2529 54.2565 46.4124 54.1517 46.5674 54.0605C46.7314 53.9694 46.8955 53.9238 47.0596 53.9238C47.2419 53.9238 47.4059 53.9831 47.5518 54.1016C47.6976 54.2201 47.7705 54.375 47.7705 54.5664ZM45.5557 51.2168C45.5557 51.0983 45.5238 50.9753 45.46 50.8477C45.3962 50.7201 45.2959 50.6562 45.1592 50.6562C44.9587 50.6562 44.79 50.7109 44.6533 50.8203C44.5166 50.9206 44.4027 51.0527 44.3115 51.2168C44.2204 51.3717 44.1475 51.5404 44.0928 51.7227C44.0472 51.9049 44.0199 52.0736 44.0107 52.2285C44.1383 52.2012 44.2887 52.1647 44.4619 52.1191C44.6442 52.0736 44.8128 52.0143 44.9678 51.9414C45.1318 51.8594 45.2686 51.7591 45.3779 51.6406C45.4964 51.5221 45.5557 51.3809 45.5557 51.2168ZM57.3408 54.5664C57.3408 54.8763 57.2406 55.1816 57.04 55.4824C56.8486 55.7741 56.6025 56.0384 56.3018 56.2754C56.0101 56.5033 55.6956 56.6901 55.3584 56.8359C55.0212 56.9727 54.7113 57.041 54.4287 57.041C53.9456 57.041 53.5127 56.9225 53.1299 56.6855C52.7562 56.4395 52.4417 56.1296 52.1865 55.7559C51.9313 55.3822 51.7354 54.972 51.5986 54.5254C51.471 54.0697 51.4072 53.6276 51.4072 53.1992C51.4072 52.7435 51.471 52.2559 51.5986 51.7363C51.7262 51.2168 51.9176 50.7383 52.1729 50.3008C52.4372 49.8633 52.7653 49.4987 53.1572 49.207C53.5583 48.9154 54.0322 48.7695 54.5791 48.7695C54.889 48.7695 55.1852 48.8242 55.4678 48.9336C55.7503 49.0339 55.9964 49.1797 56.2061 49.3711C56.4157 49.5625 56.5843 49.7904 56.7119 50.0547C56.8395 50.319 56.9033 50.6152 56.9033 50.9434C56.9033 51.3717 56.8122 51.7728 56.6299 52.1465C56.4476 52.5202 56.2061 52.8438 55.9053 53.1172C55.6045 53.3906 55.2581 53.6139 54.8662 53.7871C54.4743 53.9512 54.0732 54.0423 53.6631 54.0605C53.6995 54.3249 53.8044 54.5163 53.9775 54.6348C54.1598 54.7533 54.374 54.8125 54.6201 54.8125C54.8024 54.8125 54.9801 54.7669 55.1533 54.6758C55.3265 54.5846 55.4951 54.4844 55.6592 54.375C55.8232 54.2565 55.9827 54.1517 56.1377 54.0605C56.3018 53.9694 56.4658 53.9238 56.6299 53.9238C56.8122 53.9238 56.9762 53.9831 57.1221 54.1016C57.2679 54.2201 57.3408 54.375 57.3408 54.5664ZM55.126 51.2168C55.126 51.0983 55.0941 50.9753 55.0303 50.8477C54.9665 50.7201 54.8662 50.6562 54.7295 50.6562C54.529 50.6562 54.3604 50.7109 54.2236 50.8203C54.0869 50.9206 53.973 51.0527 53.8818 51.2168C53.7907 51.3717 53.7178 51.5404 53.6631 51.7227C53.6175 51.9049 53.5902 52.0736 53.5811 52.2285C53.7087 52.2012 53.859 52.1647 54.0322 52.1191C54.2145 52.0736 54.3831 52.0143 54.5381 51.9414C54.7021 51.8594 54.8389 51.7591 54.9482 51.6406C55.0667 51.5221 55.126 51.3809 55.126 51.2168ZM55.8916 46.3633C55.8916 46.4635 55.8643 46.5638 55.8096 46.6641C55.7549 46.7552 55.6865 46.8418 55.6045 46.9238C55.5316 47.0059 55.4495 47.0833 55.3584 47.1562C55.2673 47.2201 55.1852 47.2793 55.1123 47.334C55.0485 47.3796 54.9756 47.4342 54.8936 47.498C54.8206 47.5527 54.7386 47.6074 54.6475 47.6621C54.5654 47.7077 54.4788 47.7487 54.3877 47.7852C54.3057 47.8216 54.2236 47.8398 54.1416 47.8398C54.0687 47.8398 54.0049 47.8216 53.9502 47.7852C53.8955 47.7396 53.8682 47.6758 53.8682 47.5938C53.8682 47.457 53.9183 47.293 54.0186 47.1016C54.1279 46.901 54.2601 46.7096 54.415 46.5273C54.57 46.3359 54.734 46.1764 54.9072 46.0488C55.0804 45.9121 55.2399 45.8438 55.3857 45.8438C55.5133 45.8438 55.6273 45.8984 55.7275 46.0078C55.8369 46.1081 55.8916 46.2266 55.8916 46.3633ZM68.2236 50.8477C68.2236 51.6497 68.0596 52.4245 67.7314 53.1719C67.4033 53.9102 66.9613 54.5664 66.4053 55.1406C65.8584 55.7148 65.2158 56.1751 64.4775 56.5215C63.7484 56.8587 62.9782 57.0273 62.167 57.0273H62.1396C61.9756 57.0273 61.8389 56.9544 61.7295 56.8086C61.6292 56.6536 61.5426 56.4622 61.4697 56.2344C61.3968 56.0065 61.3421 55.7513 61.3057 55.4688C61.2692 55.1862 61.2419 54.9128 61.2236 54.6484C61.2054 54.375 61.1963 54.1335 61.1963 53.9238C61.1963 53.7051 61.1963 53.541 61.1963 53.4316C61.1963 53.1217 61.2008 52.8164 61.21 52.5156C61.2191 52.2057 61.2327 51.8958 61.251 51.5859C61.251 51.4857 61.2555 51.3398 61.2646 51.1484C61.2829 50.9479 61.3011 50.7246 61.3193 50.4785C61.3376 50.2324 61.3604 49.9772 61.3877 49.7129C61.415 49.4395 61.4424 49.1888 61.4697 48.9609C61.5062 48.724 61.5381 48.5189 61.5654 48.3457C61.6019 48.1634 61.6429 48.0404 61.6885 47.9766C61.807 47.776 61.9893 47.5983 62.2354 47.4434C62.4814 47.2884 62.7458 47.1608 63.0283 47.0605C63.32 46.9603 63.6117 46.8874 63.9033 46.8418C64.2041 46.7871 64.4639 46.7598 64.6826 46.7598C65.2842 46.7598 65.8037 46.8737 66.2412 47.1016C66.6878 47.3203 67.057 47.6211 67.3486 48.0039C67.6494 48.3776 67.8682 48.8105 68.0049 49.3027C68.1507 49.7949 68.2236 50.3099 68.2236 50.8477ZM65.9268 51.2441C65.9268 51.0436 65.8903 50.8385 65.8174 50.6289C65.7445 50.4193 65.6396 50.2279 65.5029 50.0547C65.3753 49.8815 65.2158 49.7448 65.0244 49.6445C64.8421 49.5352 64.637 49.4805 64.4092 49.4805C64.2178 49.4805 64.0218 49.526 63.8213 49.6172C63.7757 49.6445 63.7347 49.7311 63.6982 49.877C63.6618 50.0137 63.6299 50.1823 63.6025 50.3828C63.5843 50.5833 63.5661 50.8021 63.5479 51.0391C63.5296 51.276 63.516 51.5039 63.5068 51.7227C63.5068 51.9323 63.5023 52.1191 63.4932 52.2832C63.4932 52.4473 63.4932 52.5566 63.4932 52.6113C63.4932 52.7025 63.4932 52.8392 63.4932 53.0215C63.4932 53.1947 63.4977 53.3678 63.5068 53.541C63.5251 53.7142 63.5433 53.8646 63.5615 53.9922C63.5798 54.1198 63.6117 54.1836 63.6572 54.1836C63.9307 54.1836 64.1995 54.0788 64.4639 53.8691C64.7373 53.6504 64.9834 53.3861 65.2021 53.0762C65.4209 52.7663 65.5941 52.4427 65.7217 52.1055C65.8584 51.7682 65.9268 51.4811 65.9268 51.2441ZM71.0947 47.457C71.0947 47.5846 71.0583 47.6986 70.9854 47.7988C70.9215 47.8991 70.835 47.9902 70.7256 48.0723C70.6162 48.1452 70.4977 48.2044 70.3701 48.25C70.2425 48.2865 70.124 48.3047 70.0146 48.3047C69.8324 48.3047 69.6729 48.2591 69.5361 48.168C69.3994 48.0768 69.3311 47.9355 69.3311 47.7441C69.3311 47.6074 69.363 47.4889 69.4268 47.3887C69.4997 47.2793 69.5863 47.1927 69.6865 47.1289C69.7868 47.056 69.9007 47.0013 70.0283 46.9648C70.1559 46.9284 70.279 46.9102 70.3975 46.9102C70.5706 46.9102 70.7301 46.9512 70.876 47.0332C71.0218 47.1152 71.0947 47.2565 71.0947 47.457ZM71.2041 52.1055C71.2041 52.2331 71.2041 52.3698 71.2041 52.5156C71.2041 52.6523 71.1995 52.7845 71.1904 52.9121C71.1813 53.0671 71.1768 53.2767 71.1768 53.541C71.1768 53.7962 71.1676 54.0742 71.1494 54.375C71.1312 54.6758 71.0993 54.9811 71.0537 55.291C71.0173 55.6009 70.9535 55.8835 70.8623 56.1387C70.7712 56.3939 70.6481 56.6035 70.4932 56.7676C70.3473 56.9225 70.1605 57.0046 69.9326 57.0137C69.7594 57.0228 69.6136 56.9544 69.4951 56.8086C69.3766 56.6628 69.2764 56.4759 69.1943 56.248C69.1214 56.0111 69.0667 55.7513 69.0303 55.4688C68.9938 55.1771 68.9665 54.8991 68.9482 54.6348C68.93 54.3613 68.9209 54.1107 68.9209 53.8828C68.9209 53.6549 68.9209 53.4863 68.9209 53.377C68.9209 53.2311 68.9209 53.026 68.9209 52.7617C68.9209 52.4883 68.93 52.1966 68.9482 51.8867C68.9665 51.5768 68.9984 51.2624 69.0439 50.9434C69.0986 50.6243 69.1715 50.3327 69.2627 50.0684C69.363 49.804 69.4906 49.5898 69.6455 49.4258C69.8005 49.2617 69.9964 49.1797 70.2334 49.1797C70.4795 49.1797 70.6663 49.3027 70.7939 49.5488C70.9215 49.7949 71.0173 50.082 71.0811 50.4102C71.1449 50.7383 71.1813 51.0664 71.1904 51.3945C71.1995 51.7135 71.2041 51.9505 71.2041 52.1055ZM77.9854 55.0723C77.9854 55.2363 77.9762 55.4505 77.958 55.7148C77.9489 55.9792 77.9124 56.2389 77.8486 56.4941C77.7848 56.7402 77.6846 56.9544 77.5479 57.1367C77.4111 57.319 77.2197 57.4102 76.9736 57.4102C76.6364 57.4102 76.3766 57.3008 76.1943 57.082C76.012 56.8633 75.9255 56.5898 75.9346 56.2617C75.6429 56.5169 75.3102 56.7174 74.9365 56.8633C74.5719 57.0091 74.1982 57.082 73.8154 57.082C73.5511 57.082 73.3005 57.0182 73.0635 56.8906C72.8265 56.763 72.6169 56.599 72.4346 56.3984C72.2523 56.1979 72.1064 55.9746 71.9971 55.7285C71.8877 55.4733 71.833 55.2227 71.833 54.9766C71.833 54.5391 71.9652 54.1562 72.2295 53.8281C72.5029 53.5 72.8356 53.222 73.2275 52.9941C73.6195 52.7572 74.0342 52.5703 74.4717 52.4336C74.9183 52.2969 75.3148 52.2057 75.6611 52.1602C75.6611 52.1146 75.6611 52.0736 75.6611 52.0371C75.6702 52.0007 75.6748 51.9596 75.6748 51.9141C75.6748 51.6315 75.5973 51.4036 75.4424 51.2305C75.2874 51.0573 75.0687 50.9707 74.7861 50.9707C74.5583 50.9707 74.3623 51.0117 74.1982 51.0938C74.0342 51.1667 73.8792 51.2533 73.7334 51.3535C73.5876 51.4447 73.4417 51.5312 73.2959 51.6133C73.1501 51.6862 72.986 51.7227 72.8037 51.7227C72.6032 51.7227 72.43 51.6589 72.2842 51.5312C72.1475 51.4036 72.0791 51.2396 72.0791 51.0391C72.0791 50.7383 72.1657 50.4648 72.3389 50.2188C72.5212 49.9727 72.7445 49.7676 73.0088 49.6035C73.2822 49.4303 73.5739 49.2982 73.8838 49.207C74.2028 49.1068 74.4945 49.0566 74.7588 49.0566C75.0049 49.0566 75.251 49.0885 75.4971 49.1523C75.7432 49.207 75.9756 49.2982 76.1943 49.4258C76.4131 49.5443 76.609 49.6947 76.7822 49.877C76.9645 50.0501 77.1104 50.2552 77.2197 50.4922C77.3838 50.8294 77.516 51.1895 77.6162 51.5723C77.7165 51.946 77.7939 52.3333 77.8486 52.7344C77.9033 53.1263 77.9398 53.5228 77.958 53.9238C77.9762 54.3158 77.9854 54.6986 77.9854 55.0723ZM75.7979 54.6348L75.7568 53.7051C75.7386 53.7051 75.7204 53.7051 75.7021 53.7051C75.6839 53.696 75.6657 53.6914 75.6475 53.6914C75.529 53.6914 75.3786 53.7233 75.1963 53.7871C75.0231 53.8418 74.8545 53.9238 74.6904 54.0332C74.5264 54.1335 74.3851 54.2474 74.2666 54.375C74.1572 54.5026 74.1025 54.6348 74.1025 54.7715C74.1025 54.8991 74.1481 54.9857 74.2393 55.0312C74.3304 55.0768 74.4352 55.0996 74.5537 55.0996C74.7542 55.0996 74.9684 55.0495 75.1963 54.9492C75.4242 54.8398 75.6247 54.735 75.7979 54.6348ZM85.2725 52.4883C85.2725 52.7526 85.2497 53.0534 85.2041 53.3906C85.1676 53.7188 85.1038 54.056 85.0127 54.4023C84.9307 54.7487 84.8167 55.0859 84.6709 55.4141C84.5342 55.7422 84.361 56.0384 84.1514 56.3027C83.9508 56.5579 83.7139 56.763 83.4404 56.918C83.1761 57.0729 82.8662 57.1504 82.5107 57.1504C82.137 57.1504 81.7952 57.0638 81.4854 56.8906C81.1846 56.7174 80.9248 56.4805 80.7061 56.1797C80.6787 56.4258 80.5785 56.6445 80.4053 56.8359C80.2321 57.0182 80.0133 57.1094 79.749 57.1094C79.5941 57.1094 79.4619 57.0319 79.3525 56.877C79.2523 56.722 79.1702 56.526 79.1064 56.2891C79.0426 56.043 78.9925 55.7741 78.9561 55.4824C78.9287 55.1908 78.9105 54.9082 78.9014 54.6348C78.8923 54.3613 78.8877 54.1152 78.8877 53.8965C78.8877 53.6777 78.8877 53.5228 78.8877 53.4316C78.8877 53.1217 78.8877 52.8118 78.8877 52.502C78.8968 52.1921 78.9059 51.8776 78.915 51.5586C78.915 51.4036 78.9105 51.1712 78.9014 50.8613C78.9014 50.5514 78.9059 50.2096 78.915 49.8359C78.9242 49.4531 78.9424 49.0658 78.9697 48.6738C79.0062 48.2728 79.0654 47.9082 79.1475 47.5801C79.2295 47.252 79.3434 46.9831 79.4893 46.7734C79.6351 46.5638 79.8219 46.4544 80.0498 46.4453C80.2321 46.4453 80.387 46.5091 80.5146 46.6367C80.6423 46.7643 80.7471 46.9329 80.8291 47.1426C80.9202 47.3522 80.9886 47.5892 81.0342 47.8535C81.0889 48.1087 81.1253 48.3685 81.1436 48.6328C81.1709 48.888 81.1846 49.1341 81.1846 49.3711C81.1937 49.599 81.1982 49.7858 81.1982 49.9316C81.1982 49.959 81.1937 50.0228 81.1846 50.123C81.1846 50.2142 81.1846 50.3145 81.1846 50.4238C81.1846 50.5332 81.1846 50.6335 81.1846 50.7246C81.1846 50.8066 81.1846 50.8522 81.1846 50.8613C81.2666 50.6882 81.3851 50.5195 81.54 50.3555C81.695 50.1914 81.8682 50.0456 82.0596 49.918C82.251 49.7904 82.4515 49.6855 82.6611 49.6035C82.8708 49.5215 83.0713 49.4805 83.2627 49.4805C83.6455 49.4805 83.9645 49.5807 84.2197 49.7812C84.484 49.9727 84.6937 50.2188 84.8486 50.5195C85.0036 50.8203 85.113 51.1484 85.1768 51.5039C85.2406 51.8503 85.2725 52.1784 85.2725 52.4883ZM83.2627 52.8984C83.2627 52.7891 83.2536 52.6706 83.2354 52.543C83.2262 52.4154 83.1943 52.2969 83.1396 52.1875C83.0941 52.0781 83.0257 51.987 82.9346 51.9141C82.8525 51.8411 82.7432 51.8047 82.6064 51.8047C82.4606 51.8047 82.3148 51.8366 82.1689 51.9004C82.0322 51.9642 81.9001 52.0462 81.7725 52.1465C81.6449 52.2467 81.5264 52.3561 81.417 52.4746C81.3076 52.584 81.2119 52.6934 81.1299 52.8027L80.9932 54.0195C81.139 54.2292 81.3167 54.3978 81.5264 54.5254C81.736 54.6439 81.973 54.7031 82.2373 54.7031C82.4378 54.7031 82.6019 54.6393 82.7295 54.5117C82.8662 54.3841 82.971 54.2292 83.0439 54.0469C83.126 53.8555 83.1807 53.6549 83.208 53.4453C83.2445 53.2357 83.2627 53.0534 83.2627 52.8984ZM91.835 54.5664C91.835 54.8763 91.7347 55.1816 91.5342 55.4824C91.3428 55.7741 91.0967 56.0384 90.7959 56.2754C90.5042 56.5033 90.1898 56.6901 89.8525 56.8359C89.5153 56.9727 89.2054 57.041 88.9229 57.041C88.4398 57.041 88.0068 56.9225 87.624 56.6855C87.2503 56.4395 86.9359 56.1296 86.6807 55.7559C86.4255 55.3822 86.2295 54.972 86.0928 54.5254C85.9652 54.0697 85.9014 53.6276 85.9014 53.1992C85.9014 52.7435 85.9652 52.2559 86.0928 51.7363C86.2204 51.2168 86.4118 50.7383 86.667 50.3008C86.9313 49.8633 87.2594 49.4987 87.6514 49.207C88.0524 48.9154 88.5264 48.7695 89.0732 48.7695C89.3831 48.7695 89.6794 48.8242 89.9619 48.9336C90.2445 49.0339 90.4906 49.1797 90.7002 49.3711C90.9098 49.5625 91.0785 49.7904 91.2061 50.0547C91.3337 50.319 91.3975 50.6152 91.3975 50.9434C91.3975 51.3717 91.3063 51.7728 91.124 52.1465C90.9417 52.5202 90.7002 52.8438 90.3994 53.1172C90.0986 53.3906 89.7523 53.6139 89.3604 53.7871C88.9684 53.9512 88.5674 54.0423 88.1572 54.0605C88.1937 54.3249 88.2985 54.5163 88.4717 54.6348C88.654 54.7533 88.8682 54.8125 89.1143 54.8125C89.2965 54.8125 89.4743 54.7669 89.6475 54.6758C89.8206 54.5846 89.9893 54.4844 90.1533 54.375C90.3174 54.2565 90.4769 54.1517 90.6318 54.0605C90.7959 53.9694 90.96 53.9238 91.124 53.9238C91.3063 53.9238 91.4704 53.9831 91.6162 54.1016C91.762 54.2201 91.835 54.375 91.835 54.5664ZM89.6201 51.2168C89.6201 51.0983 89.5882 50.9753 89.5244 50.8477C89.4606 50.7201 89.3604 50.6562 89.2236 50.6562C89.0231 50.6562 88.8545 50.7109 88.7178 50.8203C88.5811 50.9206 88.4671 51.0527 88.376 51.2168C88.2848 51.3717 88.2119 51.5404 88.1572 51.7227C88.1117 51.9049 88.0843 52.0736 88.0752 52.2285C88.2028 52.2012 88.3532 52.1647 88.5264 52.1191C88.7087 52.0736 88.8773 52.0143 89.0322 51.9414C89.1963 51.8594 89.333 51.7591 89.4424 51.6406C89.5609 51.5221 89.6201 51.3809 89.6201 51.2168ZM95.5674 57.4922C94.9202 57.4922 94.4144 57.4056 94.0498 57.2324C93.6943 57.0684 93.4255 56.8314 93.2432 56.5215C93.07 56.2116 92.9652 55.8379 92.9287 55.4004C92.8923 54.9629 92.874 54.4753 92.874 53.9375C92.874 53.5091 92.8877 53.0807 92.915 52.6523C92.9424 52.2148 92.9834 51.75 93.0381 51.2578C92.9105 51.2578 92.8102 51.2624 92.7373 51.2715C92.6644 51.2715 92.6051 51.2715 92.5596 51.2715C92.2679 51.2715 92.0173 51.2077 91.8076 51.0801C91.5889 50.9525 91.4795 50.7565 91.4795 50.4922C91.4795 50.3281 91.5433 50.1823 91.6709 50.0547C91.7894 49.9271 91.9443 49.8177 92.1357 49.7266C92.3271 49.6354 92.5322 49.5625 92.751 49.5078C92.9788 49.4531 93.193 49.4167 93.3936 49.3984C93.3936 49.1432 93.4118 48.8607 93.4482 48.5508C93.4847 48.2409 93.5485 47.9538 93.6396 47.6895C93.7399 47.416 93.8721 47.1882 94.0361 47.0059C94.2002 46.8236 94.4098 46.7324 94.665 46.7324C94.8109 46.7324 94.9385 46.778 95.0479 46.8691C95.1663 46.9512 95.262 47.0605 95.335 47.1973C95.4079 47.3249 95.4626 47.4707 95.499 47.6348C95.5355 47.7988 95.5537 47.9583 95.5537 48.1133C95.5537 48.2956 95.54 48.4824 95.5127 48.6738C95.4854 48.8652 95.4352 49.1022 95.3623 49.3848C95.5173 49.3665 95.6221 49.3574 95.6768 49.3574C95.7314 49.3483 95.7816 49.3438 95.8271 49.3438C95.9821 49.3438 96.1416 49.3574 96.3057 49.3848C96.4788 49.4121 96.6338 49.4577 96.7705 49.5215C96.9163 49.5853 97.0348 49.6719 97.126 49.7812C97.2171 49.8815 97.2627 50.0046 97.2627 50.1504C97.2627 50.3145 97.1943 50.4603 97.0576 50.5879C96.93 50.7155 96.766 50.8249 96.5654 50.916C96.3649 51.0072 96.1507 51.0801 95.9229 51.1348C95.695 51.1803 95.4808 51.2122 95.2803 51.2305C95.2256 51.6042 95.1846 51.9505 95.1572 52.2695C95.139 52.5794 95.1162 52.8939 95.0889 53.2129C95.0706 53.3678 95.0524 53.5273 95.0342 53.6914C95.0251 53.8464 95.0205 54.0059 95.0205 54.1699C95.0205 54.2884 95.0251 54.4297 95.0342 54.5938C95.0433 54.7487 95.0752 54.8991 95.1299 55.0449C95.1846 55.1908 95.2712 55.3184 95.3896 55.4277C95.5081 55.528 95.6722 55.5781 95.8818 55.5781C96.0094 55.5781 96.1416 55.569 96.2783 55.5508C96.415 55.5234 96.5518 55.5098 96.6885 55.5098C96.9255 55.5098 97.0941 55.5918 97.1943 55.7559C97.3037 55.9199 97.3584 56.1296 97.3584 56.3848C97.3584 56.5762 97.2992 56.7448 97.1807 56.8906C97.0713 57.0273 96.93 57.1367 96.7568 57.2188C96.5837 57.3099 96.3877 57.3783 96.1689 57.4238C95.9593 57.4694 95.7588 57.4922 95.5674 57.4922ZM103.36 54.5664C103.36 54.8763 103.26 55.1816 103.06 55.4824C102.868 55.7741 102.622 56.0384 102.321 56.2754C102.03 56.5033 101.715 56.6901 101.378 56.8359C101.041 56.9727 100.731 57.041 100.448 57.041C99.9652 57.041 99.5322 56.9225 99.1494 56.6855C98.7757 56.4395 98.4613 56.1296 98.2061 55.7559C97.9508 55.3822 97.7549 54.972 97.6182 54.5254C97.4906 54.0697 97.4268 53.6276 97.4268 53.1992C97.4268 52.7435 97.4906 52.2559 97.6182 51.7363C97.7458 51.2168 97.9372 50.7383 98.1924 50.3008C98.4567 49.8633 98.7848 49.4987 99.1768 49.207C99.5778 48.9154 100.052 48.7695 100.599 48.7695C100.909 48.7695 101.205 48.8242 101.487 48.9336C101.77 49.0339 102.016 49.1797 102.226 49.3711C102.435 49.5625 102.604 49.7904 102.731 50.0547C102.859 50.319 102.923 50.6152 102.923 50.9434C102.923 51.3717 102.832 51.7728 102.649 52.1465C102.467 52.5202 102.226 52.8438 101.925 53.1172C101.624 53.3906 101.278 53.6139 100.886 53.7871C100.494 53.9512 100.093 54.0423 99.6826 54.0605C99.7191 54.3249 99.8239 54.5163 99.9971 54.6348C100.179 54.7533 100.394 54.8125 100.64 54.8125C100.822 54.8125 101 54.7669 101.173 54.6758C101.346 54.5846 101.515 54.4844 101.679 54.375C101.843 54.2565 102.002 54.1517 102.157 54.0605C102.321 53.9694 102.485 53.9238 102.649 53.9238C102.832 53.9238 102.996 53.9831 103.142 54.1016C103.287 54.2201 103.36 54.375 103.36 54.5664ZM101.146 51.2168C101.146 51.0983 101.114 50.9753 101.05 50.8477C100.986 50.7201 100.886 50.6562 100.749 50.6562C100.549 50.6562 100.38 50.7109 100.243 50.8203C100.106 50.9206 99.9925 51.0527 99.9014 51.2168C99.8102 51.3717 99.7373 51.5404 99.6826 51.7227C99.637 51.9049 99.6097 52.0736 99.6006 52.2285C99.7282 52.2012 99.8786 52.1647 100.052 52.1191C100.234 52.0736 100.403 52.0143 100.558 51.9414C100.722 51.8594 100.858 51.7591 100.968 51.6406C101.086 51.5221 101.146 51.3809 101.146 51.2168ZM107.913 49.4805C107.913 49.7448 107.822 49.9408 107.64 50.0684C107.466 50.196 107.271 50.319 107.052 50.4375C106.833 50.5469 106.632 50.679 106.45 50.834C106.277 50.9889 106.19 51.2214 106.19 51.5312C106.19 51.6953 106.227 51.8366 106.3 51.9551C106.382 52.0736 106.478 52.1829 106.587 52.2832C106.705 52.3743 106.833 52.4701 106.97 52.5703C107.106 52.6706 107.229 52.7845 107.339 52.9121C107.457 53.0397 107.553 53.1947 107.626 53.377C107.708 53.5592 107.749 53.7826 107.749 54.0469C107.749 54.4297 107.649 54.8079 107.448 55.1816C107.257 55.5462 107.006 55.8743 106.696 56.166C106.396 56.4486 106.054 56.6764 105.671 56.8496C105.288 57.0228 104.91 57.1094 104.536 57.1094C104.381 57.1094 104.226 57.0957 104.071 57.0684C103.916 57.0501 103.775 57.0091 103.647 56.9453C103.529 56.8815 103.429 56.7949 103.347 56.6855C103.265 56.5671 103.224 56.4167 103.224 56.2344C103.224 55.9792 103.274 55.7832 103.374 55.6465C103.474 55.5007 103.602 55.3867 103.757 55.3047C103.912 55.2227 104.076 55.1589 104.249 55.1133C104.431 55.0677 104.6 55.013 104.755 54.9492C104.91 54.8763 105.037 54.7852 105.138 54.6758C105.238 54.5664 105.288 54.4115 105.288 54.2109C105.288 54.0195 105.211 53.8236 105.056 53.623C104.91 53.4134 104.746 53.1947 104.563 52.9668C104.381 52.7298 104.213 52.4792 104.058 52.2148C103.912 51.9505 103.839 51.6589 103.839 51.3398C103.839 50.9479 103.916 50.5879 104.071 50.2598C104.235 49.9225 104.45 49.6309 104.714 49.3848C104.987 49.1387 105.297 48.9473 105.644 48.8105C105.99 48.6647 106.354 48.5918 106.737 48.5918C106.883 48.5918 107.024 48.6055 107.161 48.6328C107.307 48.6602 107.435 48.7103 107.544 48.7832C107.653 48.847 107.74 48.9382 107.804 49.0566C107.877 49.166 107.913 49.3073 107.913 49.4805ZM121.106 55.5098C121.079 55.7467 121.038 55.9792 120.983 56.207C120.938 56.4349 120.879 56.64 120.806 56.8223C120.733 56.9954 120.637 57.1322 120.519 57.2324C120.409 57.3418 120.282 57.3965 120.136 57.3965C119.99 57.3965 119.858 57.2826 119.739 57.0547C119.621 56.8359 119.507 56.5443 119.397 56.1797C119.297 55.806 119.201 55.3867 119.11 54.9219C119.028 54.457 118.951 53.9876 118.878 53.5137C118.814 53.0306 118.759 52.5612 118.714 52.1055C118.668 51.6497 118.632 51.2533 118.604 50.916C118.55 51.2624 118.486 51.6497 118.413 52.0781C118.34 52.5065 118.254 52.944 118.153 53.3906C118.053 53.8281 117.944 54.2611 117.825 54.6895C117.707 55.1087 117.579 55.487 117.442 55.8242C117.306 56.1523 117.16 56.4167 117.005 56.6172C116.85 56.8177 116.686 56.918 116.513 56.918C116.358 56.918 116.203 56.8132 116.048 56.6035C115.893 56.3939 115.743 56.1204 115.597 55.7832C115.451 55.4368 115.314 55.054 115.187 54.6348C115.059 54.2155 114.94 53.7962 114.831 53.377C114.722 52.9486 114.626 52.5475 114.544 52.1738C114.462 51.791 114.398 51.472 114.353 51.2168C114.353 51.4082 114.348 51.6224 114.339 51.8594C114.339 52.0872 114.339 52.2513 114.339 52.3516C114.339 52.3971 114.334 52.5475 114.325 52.8027C114.325 53.0579 114.312 53.3633 114.284 53.7188C114.257 54.0742 114.216 54.457 114.161 54.8672C114.106 55.2682 114.024 55.6419 113.915 55.9883C113.815 56.3346 113.687 56.6263 113.532 56.8633C113.377 57.1003 113.186 57.2279 112.958 57.2461C112.776 57.1641 112.621 57.0273 112.493 56.8359C112.375 56.6354 112.274 56.403 112.192 56.1387C112.11 55.8743 112.047 55.5918 112.001 55.291C111.955 54.9902 111.919 54.6986 111.892 54.416C111.864 54.1243 111.846 53.8555 111.837 53.6094C111.837 53.3633 111.837 53.1628 111.837 53.0078C111.837 52.7344 111.851 52.3926 111.878 51.9824C111.914 51.5632 111.969 51.1257 112.042 50.6699C112.115 50.2142 112.211 49.7585 112.329 49.3027C112.448 48.847 112.589 48.4414 112.753 48.0859C112.926 47.7214 113.122 47.4251 113.341 47.1973C113.569 46.9694 113.828 46.8555 114.12 46.8555C114.257 46.8555 114.403 46.9329 114.558 47.0879C114.713 47.2428 114.868 47.4479 115.022 47.7031C115.177 47.9492 115.328 48.2272 115.474 48.5371C115.619 48.847 115.756 49.1615 115.884 49.4805C116.021 49.7904 116.139 50.0911 116.239 50.3828C116.34 50.6654 116.422 50.9069 116.485 51.1074C116.558 50.8887 116.649 50.6335 116.759 50.3418C116.868 50.0501 116.987 49.7493 117.114 49.4395C117.251 49.1204 117.397 48.8105 117.552 48.5098C117.716 48.1999 117.884 47.9264 118.058 47.6895C118.231 47.4434 118.404 47.2474 118.577 47.1016C118.759 46.9466 118.942 46.8691 119.124 46.8691C119.443 46.8691 119.716 46.9876 119.944 47.2246C120.172 47.4616 120.364 47.7715 120.519 48.1543C120.674 48.528 120.797 48.9518 120.888 49.4258C120.979 49.8906 121.047 50.3555 121.093 50.8203C121.147 51.276 121.179 51.7044 121.188 52.1055C121.207 52.5065 121.216 52.8301 121.216 53.0762C121.216 53.1764 121.216 53.3132 121.216 53.4863C121.216 53.6595 121.211 53.8555 121.202 54.0742C121.202 54.293 121.193 54.5254 121.175 54.7715C121.157 55.0176 121.134 55.2637 121.106 55.5098ZM127.915 54.5664C127.915 54.8763 127.815 55.1816 127.614 55.4824C127.423 55.7741 127.177 56.0384 126.876 56.2754C126.584 56.5033 126.27 56.6901 125.933 56.8359C125.595 56.9727 125.285 57.041 125.003 57.041C124.52 57.041 124.087 56.9225 123.704 56.6855C123.33 56.4395 123.016 56.1296 122.761 55.7559C122.506 55.3822 122.31 54.972 122.173 54.5254C122.045 54.0697 121.981 53.6276 121.981 53.1992C121.981 52.7435 122.045 52.2559 122.173 51.7363C122.3 51.2168 122.492 50.7383 122.747 50.3008C123.011 49.8633 123.34 49.4987 123.731 49.207C124.132 48.9154 124.606 48.7695 125.153 48.7695C125.463 48.7695 125.759 48.8242 126.042 48.9336C126.325 49.0339 126.571 49.1797 126.78 49.3711C126.99 49.5625 127.159 49.7904 127.286 50.0547C127.414 50.319 127.478 50.6152 127.478 50.9434C127.478 51.3717 127.386 51.7728 127.204 52.1465C127.022 52.5202 126.78 52.8438 126.479 53.1172C126.179 53.3906 125.832 53.6139 125.44 53.7871C125.049 53.9512 124.647 54.0423 124.237 54.0605C124.274 54.3249 124.379 54.5163 124.552 54.6348C124.734 54.7533 124.948 54.8125 125.194 54.8125C125.377 54.8125 125.554 54.7669 125.728 54.6758C125.901 54.5846 126.069 54.4844 126.233 54.375C126.397 54.2565 126.557 54.1517 126.712 54.0605C126.876 53.9694 127.04 53.9238 127.204 53.9238C127.386 53.9238 127.55 53.9831 127.696 54.1016C127.842 54.2201 127.915 54.375 127.915 54.5664ZM125.7 51.2168C125.7 51.0983 125.668 50.9753 125.604 50.8477C125.541 50.7201 125.44 50.6562 125.304 50.6562C125.103 50.6562 124.935 50.7109 124.798 50.8203C124.661 50.9206 124.547 51.0527 124.456 51.2168C124.365 51.3717 124.292 51.5404 124.237 51.7227C124.192 51.9049 124.164 52.0736 124.155 52.2285C124.283 52.2012 124.433 52.1647 124.606 52.1191C124.789 52.0736 124.957 52.0143 125.112 51.9414C125.276 51.8594 125.413 51.7591 125.522 51.6406C125.641 51.5221 125.7 51.3809 125.7 51.2168ZM131.019 48.7148C131.019 49.207 130.996 49.7038 130.95 50.2051C130.914 50.6973 130.896 51.194 130.896 51.6953C130.896 52.3424 130.914 52.9896 130.95 53.6367C130.996 54.2839 131.019 54.9355 131.019 55.5918C131.019 55.7559 131.009 55.9427 130.991 56.1523C130.973 56.3529 130.927 56.5397 130.854 56.7129C130.791 56.8861 130.69 57.0319 130.554 57.1504C130.417 57.2689 130.235 57.3281 130.007 57.3281C129.788 57.3281 129.597 57.2188 129.433 57C129.278 56.7904 129.146 56.5215 129.036 56.1934C128.936 55.8561 128.849 55.4824 128.776 55.0723C128.713 54.6621 128.662 54.2656 128.626 53.8828C128.599 53.4909 128.576 53.1354 128.558 52.8164C128.549 52.4883 128.544 52.2467 128.544 52.0918C128.544 51.9186 128.549 51.668 128.558 51.3398C128.576 51.0117 128.608 50.6562 128.653 50.2734C128.699 49.8906 128.758 49.5033 128.831 49.1113C128.913 48.7103 129.018 48.3503 129.146 48.0312C129.273 47.7031 129.424 47.4388 129.597 47.2383C129.779 47.0286 129.993 46.9238 130.239 46.9238C130.44 46.9238 130.59 46.9922 130.69 47.1289C130.8 47.2565 130.877 47.416 130.923 47.6074C130.968 47.7897 130.996 47.9857 131.005 48.1953C131.014 48.3958 131.019 48.569 131.019 48.7148ZM134.614 48.7148C134.614 49.207 134.591 49.7038 134.546 50.2051C134.509 50.6973 134.491 51.194 134.491 51.6953C134.491 52.3424 134.509 52.9896 134.546 53.6367C134.591 54.2839 134.614 54.9355 134.614 55.5918C134.614 55.7559 134.605 55.9427 134.587 56.1523C134.569 56.3529 134.523 56.5397 134.45 56.7129C134.386 56.8861 134.286 57.0319 134.149 57.1504C134.013 57.2689 133.83 57.3281 133.603 57.3281C133.384 57.3281 133.192 57.2188 133.028 57C132.873 56.7904 132.741 56.5215 132.632 56.1934C132.532 55.8561 132.445 55.4824 132.372 55.0723C132.308 54.6621 132.258 54.2656 132.222 53.8828C132.194 53.4909 132.172 53.1354 132.153 52.8164C132.144 52.4883 132.14 52.2467 132.14 52.0918C132.14 51.9186 132.144 51.668 132.153 51.3398C132.172 51.0117 132.203 50.6562 132.249 50.2734C132.295 49.8906 132.354 49.5033 132.427 49.1113C132.509 48.7103 132.614 48.3503 132.741 48.0312C132.869 47.7031 133.019 47.4388 133.192 47.2383C133.375 47.0286 133.589 46.9238 133.835 46.9238C134.035 46.9238 134.186 46.9922 134.286 47.1289C134.396 47.2565 134.473 47.416 134.519 47.6074C134.564 47.7897 134.591 47.9857 134.601 48.1953C134.61 48.3958 134.614 48.569 134.614 48.7148ZM137.909 47.457C137.909 47.5846 137.873 47.6986 137.8 47.7988C137.736 47.8991 137.649 47.9902 137.54 48.0723C137.431 48.1452 137.312 48.2044 137.185 48.25C137.057 48.2865 136.938 48.3047 136.829 48.3047C136.647 48.3047 136.487 48.2591 136.351 48.168C136.214 48.0768 136.146 47.9355 136.146 47.7441C136.146 47.6074 136.177 47.4889 136.241 47.3887C136.314 47.2793 136.401 47.1927 136.501 47.1289C136.601 47.056 136.715 47.0013 136.843 46.9648C136.97 46.9284 137.093 46.9102 137.212 46.9102C137.385 46.9102 137.545 46.9512 137.69 47.0332C137.836 47.1152 137.909 47.2565 137.909 47.457ZM138.019 52.1055C138.019 52.2331 138.019 52.3698 138.019 52.5156C138.019 52.6523 138.014 52.7845 138.005 52.9121C137.996 53.0671 137.991 53.2767 137.991 53.541C137.991 53.7962 137.982 54.0742 137.964 54.375C137.946 54.6758 137.914 54.9811 137.868 55.291C137.832 55.6009 137.768 55.8835 137.677 56.1387C137.586 56.3939 137.463 56.6035 137.308 56.7676C137.162 56.9225 136.975 57.0046 136.747 57.0137C136.574 57.0228 136.428 56.9544 136.31 56.8086C136.191 56.6628 136.091 56.4759 136.009 56.248C135.936 56.0111 135.881 55.7513 135.845 55.4688C135.808 55.1771 135.781 54.8991 135.763 54.6348C135.744 54.3613 135.735 54.1107 135.735 53.8828C135.735 53.6549 135.735 53.4863 135.735 53.377C135.735 53.2311 135.735 53.026 135.735 52.7617C135.735 52.4883 135.744 52.1966 135.763 51.8867C135.781 51.5768 135.813 51.2624 135.858 50.9434C135.913 50.6243 135.986 50.3327 136.077 50.0684C136.177 49.804 136.305 49.5898 136.46 49.4258C136.615 49.2617 136.811 49.1797 137.048 49.1797C137.294 49.1797 137.481 49.3027 137.608 49.5488C137.736 49.7949 137.832 50.082 137.896 50.4102C137.959 50.7383 137.996 51.0664 138.005 51.3945C138.014 51.7135 138.019 51.9505 138.019 52.1055ZM142.175 57.4922C141.528 57.4922 141.022 57.4056 140.657 57.2324C140.302 57.0684 140.033 56.8314 139.851 56.5215C139.677 56.2116 139.573 55.8379 139.536 55.4004C139.5 54.9629 139.481 54.4753 139.481 53.9375C139.481 53.5091 139.495 53.0807 139.522 52.6523C139.55 52.2148 139.591 51.75 139.646 51.2578C139.518 51.2578 139.418 51.2624 139.345 51.2715C139.272 51.2715 139.213 51.2715 139.167 51.2715C138.875 51.2715 138.625 51.2077 138.415 51.0801C138.196 50.9525 138.087 50.7565 138.087 50.4922C138.087 50.3281 138.151 50.1823 138.278 50.0547C138.397 49.9271 138.552 49.8177 138.743 49.7266C138.935 49.6354 139.14 49.5625 139.358 49.5078C139.586 49.4531 139.8 49.4167 140.001 49.3984C140.001 49.1432 140.019 48.8607 140.056 48.5508C140.092 48.2409 140.156 47.9538 140.247 47.6895C140.347 47.416 140.479 47.1882 140.644 47.0059C140.808 46.8236 141.017 46.7324 141.272 46.7324C141.418 46.7324 141.546 46.778 141.655 46.8691C141.774 46.9512 141.869 47.0605 141.942 47.1973C142.015 47.3249 142.07 47.4707 142.106 47.6348C142.143 47.7988 142.161 47.9583 142.161 48.1133C142.161 48.2956 142.147 48.4824 142.12 48.6738C142.093 48.8652 142.043 49.1022 141.97 49.3848C142.125 49.3665 142.229 49.3574 142.284 49.3574C142.339 49.3483 142.389 49.3438 142.435 49.3438C142.59 49.3438 142.749 49.3574 142.913 49.3848C143.086 49.4121 143.241 49.4577 143.378 49.5215C143.524 49.5853 143.642 49.6719 143.733 49.7812C143.825 49.8815 143.87 50.0046 143.87 50.1504C143.87 50.3145 143.802 50.4603 143.665 50.5879C143.537 50.7155 143.373 50.8249 143.173 50.916C142.972 51.0072 142.758 51.0801 142.53 51.1348C142.302 51.1803 142.088 51.2122 141.888 51.2305C141.833 51.6042 141.792 51.9505 141.765 52.2695C141.746 52.5794 141.724 52.8939 141.696 53.2129C141.678 53.3678 141.66 53.5273 141.642 53.6914C141.632 53.8464 141.628 54.0059 141.628 54.1699C141.628 54.2884 141.632 54.4297 141.642 54.5938C141.651 54.7487 141.683 54.8991 141.737 55.0449C141.792 55.1908 141.879 55.3184 141.997 55.4277C142.116 55.528 142.28 55.5781 142.489 55.5781C142.617 55.5781 142.749 55.569 142.886 55.5508C143.022 55.5234 143.159 55.5098 143.296 55.5098C143.533 55.5098 143.701 55.5918 143.802 55.7559C143.911 55.9199 143.966 56.1296 143.966 56.3848C143.966 56.5762 143.907 56.7448 143.788 56.8906C143.679 57.0273 143.537 57.1367 143.364 57.2188C143.191 57.3099 142.995 57.3783 142.776 57.4238C142.567 57.4694 142.366 57.4922 142.175 57.4922ZM150.228 53.0898C150.228 53.5911 150.177 54.0879 150.077 54.5801C149.977 55.0723 149.808 55.5143 149.571 55.9062C149.334 56.2891 149.015 56.599 148.614 56.8359C148.222 57.0729 147.73 57.1914 147.138 57.1914C146.554 57.1914 146.067 57.0775 145.675 56.8496C145.283 56.6126 144.968 56.3027 144.731 55.9199C144.504 55.5371 144.34 55.1042 144.239 54.6211C144.148 54.138 144.103 53.6458 144.103 53.1445C144.103 52.5977 144.166 52.0553 144.294 51.5176C144.321 51.3717 144.371 51.1712 144.444 50.916C144.526 50.6517 144.627 50.3965 144.745 50.1504C144.873 49.8952 145.014 49.6764 145.169 49.4941C145.333 49.3118 145.511 49.2207 145.702 49.2207C145.884 49.2207 146.03 49.2708 146.14 49.3711C146.249 49.4714 146.336 49.599 146.399 49.7539C146.463 49.8997 146.504 50.0592 146.522 50.2324C146.541 50.3965 146.55 50.5469 146.55 50.6836C146.55 50.8932 146.532 51.0983 146.495 51.2988C146.468 51.4993 146.436 51.6999 146.399 51.9004C146.363 52.1738 146.326 52.4473 146.29 52.7207C146.263 52.9941 146.249 53.2676 146.249 53.541C146.249 53.6777 146.254 53.8327 146.263 54.0059C146.281 54.1699 146.317 54.3294 146.372 54.4844C146.427 54.6393 146.504 54.7715 146.604 54.8809C146.705 54.9811 146.846 55.0312 147.028 55.0312C147.265 55.0312 147.452 54.9674 147.589 54.8398C147.735 54.7122 147.84 54.5527 147.903 54.3613C147.976 54.1699 148.022 53.9648 148.04 53.7461C148.058 53.5273 148.067 53.3268 148.067 53.1445C148.067 52.7435 148.04 52.3516 147.985 51.9688C147.931 51.5768 147.881 51.1803 147.835 50.7793C147.826 50.7337 147.821 50.6699 147.821 50.5879C147.821 50.4512 147.844 50.3145 147.89 50.1777C147.935 50.041 147.999 49.918 148.081 49.8086C148.163 49.6992 148.263 49.6126 148.382 49.5488C148.5 49.4759 148.632 49.4395 148.778 49.4395C148.979 49.4395 149.157 49.5124 149.312 49.6582C149.466 49.7949 149.594 49.9772 149.694 50.2051C149.804 50.4238 149.89 50.6745 149.954 50.957C150.027 51.2305 150.082 51.5039 150.118 51.7773C150.164 52.0417 150.191 52.2923 150.2 52.5293C150.218 52.7663 150.228 52.9531 150.228 53.0898ZM155.067 49.4805C155.067 49.7448 154.976 49.9408 154.794 50.0684C154.621 50.196 154.425 50.319 154.206 50.4375C153.987 50.5469 153.787 50.679 153.604 50.834C153.431 50.9889 153.345 51.2214 153.345 51.5312C153.345 51.6953 153.381 51.8366 153.454 51.9551C153.536 52.0736 153.632 52.1829 153.741 52.2832C153.86 52.3743 153.987 52.4701 154.124 52.5703C154.261 52.6706 154.384 52.7845 154.493 52.9121C154.612 53.0397 154.707 53.1947 154.78 53.377C154.862 53.5592 154.903 53.7826 154.903 54.0469C154.903 54.4297 154.803 54.8079 154.603 55.1816C154.411 55.5462 154.16 55.8743 153.851 56.166C153.55 56.4486 153.208 56.6764 152.825 56.8496C152.442 57.0228 152.064 57.1094 151.69 57.1094C151.535 57.1094 151.381 57.0957 151.226 57.0684C151.071 57.0501 150.929 57.0091 150.802 56.9453C150.683 56.8815 150.583 56.7949 150.501 56.6855C150.419 56.5671 150.378 56.4167 150.378 56.2344C150.378 55.9792 150.428 55.7832 150.528 55.6465C150.629 55.5007 150.756 55.3867 150.911 55.3047C151.066 55.2227 151.23 55.1589 151.403 55.1133C151.586 55.0677 151.754 55.013 151.909 54.9492C152.064 54.8763 152.192 54.7852 152.292 54.6758C152.392 54.5664 152.442 54.4115 152.442 54.2109C152.442 54.0195 152.365 53.8236 152.21 53.623C152.064 53.4134 151.9 53.1947 151.718 52.9668C151.535 52.7298 151.367 52.4792 151.212 52.2148C151.066 51.9505 150.993 51.6589 150.993 51.3398C150.993 50.9479 151.071 50.5879 151.226 50.2598C151.39 49.9225 151.604 49.6309 151.868 49.3848C152.142 49.1387 152.451 48.9473 152.798 48.8105C153.144 48.6647 153.509 48.5918 153.892 48.5918C154.037 48.5918 154.179 48.6055 154.315 48.6328C154.461 48.6602 154.589 48.7103 154.698 48.7832C154.808 48.847 154.894 48.9382 154.958 49.0566C155.031 49.166 155.067 49.3073 155.067 49.4805ZM79.9268 65.6621C79.9268 65.89 79.8356 66.0996 79.6533 66.291C79.4801 66.4733 79.266 66.6374 79.0107 66.7832C78.7646 66.9199 78.5094 67.0339 78.2451 67.125C77.9808 67.2161 77.762 67.2799 77.5889 67.3164C77.516 68.0182 77.4567 68.7201 77.4111 69.4219C77.3747 70.1146 77.3564 70.8118 77.3564 71.5137C77.3564 71.8874 77.3656 72.2565 77.3838 72.6211C77.402 72.9857 77.4111 73.3503 77.4111 73.7148C77.4111 73.8789 77.3929 74.0612 77.3564 74.2617C77.3291 74.4531 77.2744 74.6354 77.1924 74.8086C77.1195 74.9818 77.0146 75.1276 76.8779 75.2461C76.7412 75.3646 76.5726 75.4238 76.3721 75.4238C76.1351 75.4238 75.9437 75.3555 75.7979 75.2188C75.6611 75.0911 75.5518 74.9316 75.4697 74.7402C75.3968 74.5488 75.3467 74.3483 75.3193 74.1387C75.292 73.9199 75.2783 73.724 75.2783 73.5508C75.2601 73.0039 75.2464 72.457 75.2373 71.9102C75.2282 71.3542 75.2236 70.7982 75.2236 70.2422C75.2236 69.7773 75.2236 69.3216 75.2236 68.875C75.2327 68.4284 75.2373 67.9727 75.2373 67.5078C75.1097 67.526 74.9775 67.5397 74.8408 67.5488C74.7132 67.5579 74.5811 67.5625 74.4443 67.5625C74.335 67.5625 74.1891 67.5534 74.0068 67.5352C73.8337 67.5078 73.665 67.4668 73.501 67.4121C73.3369 67.3483 73.1956 67.2663 73.0771 67.166C72.9587 67.0566 72.8994 66.9199 72.8994 66.7559C72.8994 66.4824 73.0088 66.2454 73.2275 66.0449C73.4372 65.8353 73.7061 65.6576 74.0342 65.5117C74.3714 65.3568 74.7406 65.2292 75.1416 65.1289C75.5518 65.0195 75.9528 64.9375 76.3447 64.8828C76.7458 64.819 77.1104 64.7734 77.4385 64.7461C77.7757 64.7188 78.0355 64.7051 78.2178 64.7051C78.391 64.7051 78.5732 64.7142 78.7646 64.7324C78.9652 64.7415 79.152 64.778 79.3252 64.8418C79.4984 64.9056 79.6396 65.0013 79.749 65.1289C79.8675 65.2565 79.9268 65.4342 79.9268 65.6621ZM81.4717 65.457C81.4717 65.5846 81.4352 65.6986 81.3623 65.7988C81.2985 65.8991 81.2119 65.9902 81.1025 66.0723C80.9932 66.1452 80.8747 66.2044 80.7471 66.25C80.6195 66.2865 80.501 66.3047 80.3916 66.3047C80.2093 66.3047 80.0498 66.2591 79.9131 66.168C79.7764 66.0768 79.708 65.9355 79.708 65.7441C79.708 65.6074 79.7399 65.4889 79.8037 65.3887C79.8766 65.2793 79.9632 65.1927 80.0635 65.1289C80.1637 65.056 80.2777 65.0013 80.4053 64.9648C80.5329 64.9284 80.6559 64.9102 80.7744 64.9102C80.9476 64.9102 81.1071 64.9512 81.2529 65.0332C81.3988 65.1152 81.4717 65.2565 81.4717 65.457ZM81.5811 70.1055C81.5811 70.2331 81.5811 70.3698 81.5811 70.5156C81.5811 70.6523 81.5765 70.7845 81.5674 70.9121C81.5583 71.0671 81.5537 71.2767 81.5537 71.541C81.5537 71.7962 81.5446 72.0742 81.5264 72.375C81.5081 72.6758 81.4762 72.9811 81.4307 73.291C81.3942 73.6009 81.3304 73.8835 81.2393 74.1387C81.1481 74.3939 81.0251 74.6035 80.8701 74.7676C80.7243 74.9225 80.5374 75.0046 80.3096 75.0137C80.1364 75.0228 79.9906 74.9544 79.8721 74.8086C79.7536 74.6628 79.6533 74.4759 79.5713 74.248C79.4984 74.0111 79.4437 73.7513 79.4072 73.4688C79.3708 73.1771 79.3434 72.8991 79.3252 72.6348C79.307 72.3613 79.2979 72.1107 79.2979 71.8828C79.2979 71.6549 79.2979 71.4863 79.2979 71.377C79.2979 71.2311 79.2979 71.026 79.2979 70.7617C79.2979 70.4883 79.307 70.1966 79.3252 69.8867C79.3434 69.5768 79.3753 69.2624 79.4209 68.9434C79.4756 68.6243 79.5485 68.3327 79.6396 68.0684C79.7399 67.804 79.8675 67.5898 80.0225 67.4258C80.1774 67.2617 80.3734 67.1797 80.6104 67.1797C80.8564 67.1797 81.0433 67.3027 81.1709 67.5488C81.2985 67.7949 81.3942 68.082 81.458 68.4102C81.5218 68.7383 81.5583 69.0664 81.5674 69.3945C81.5765 69.7135 81.5811 69.9505 81.5811 70.1055ZM88.8135 70.9258C88.8135 71.3268 88.7679 71.7689 88.6768 72.252C88.5947 72.7259 88.4489 73.168 88.2393 73.5781C88.0387 73.9883 87.7699 74.3301 87.4326 74.6035C87.1045 74.877 86.6898 75.0137 86.1885 75.0137C86.0609 75.0137 85.9287 75.0046 85.792 74.9863C85.6553 74.9681 85.5231 74.9362 85.3955 74.8906C85.277 74.8451 85.1676 74.7858 85.0674 74.7129C84.9671 74.6309 84.8896 74.526 84.835 74.3984L84.7119 76.3672C84.7028 76.5768 84.6937 76.8275 84.6846 77.1191C84.6846 77.4108 84.6481 77.6888 84.5752 77.9531C84.5114 78.2174 84.3975 78.4408 84.2334 78.623C84.0785 78.8145 83.8506 78.9102 83.5498 78.9102C83.3766 78.9102 83.2308 78.819 83.1123 78.6367C82.9938 78.4635 82.8981 78.2402 82.8252 77.9668C82.7614 77.6934 82.7113 77.388 82.6748 77.0508C82.6383 76.7135 82.6156 76.39 82.6064 76.0801C82.5973 75.7702 82.5928 75.4876 82.5928 75.2324C82.5928 74.9772 82.5928 74.7904 82.5928 74.6719C82.5928 74.0612 82.5882 73.4551 82.5791 72.8535C82.57 72.2428 82.5654 71.6322 82.5654 71.0215C82.5654 70.9121 82.5654 70.7435 82.5654 70.5156C82.5654 70.2786 82.5745 70.0234 82.5928 69.75C82.611 69.4766 82.6383 69.194 82.6748 68.9023C82.7204 68.6107 82.7842 68.3464 82.8662 68.1094C82.9482 67.8633 83.0531 67.6673 83.1807 67.5215C83.3083 67.3665 83.4632 67.2891 83.6455 67.2891C83.764 67.2891 83.8688 67.3255 83.96 67.3984C84.0602 67.4622 84.1423 67.5488 84.2061 67.6582C84.279 67.7585 84.3382 67.8678 84.3838 67.9863C84.4294 68.1048 84.4658 68.2142 84.4932 68.3145C84.7757 67.9954 85.0993 67.7539 85.4639 67.5898C85.8376 67.4258 86.234 67.3438 86.6533 67.3438C87.0908 67.3438 87.4463 67.4668 87.7197 67.7129C88.0023 67.959 88.221 68.2643 88.376 68.6289C88.54 68.9935 88.654 69.3854 88.7178 69.8047C88.7816 70.2148 88.8135 70.5885 88.8135 70.9258ZM86.8584 70.8164C86.8584 70.6797 86.8447 70.543 86.8174 70.4062C86.7992 70.2604 86.7581 70.1283 86.6943 70.0098C86.6396 69.8822 86.5576 69.7819 86.4482 69.709C86.3389 69.627 86.2021 69.5859 86.0381 69.5859C85.8193 69.5859 85.5869 69.6589 85.3408 69.8047C85.1038 69.9414 84.9261 70.1009 84.8076 70.2832C84.762 70.3561 84.7347 70.4746 84.7256 70.6387C84.7165 70.8027 84.7119 70.9258 84.7119 71.0078C84.7119 71.0716 84.7119 71.1582 84.7119 71.2676C84.721 71.3678 84.7301 71.4727 84.7393 71.582C84.7484 71.6914 84.7575 71.7962 84.7666 71.8965C84.7848 71.9967 84.8076 72.0742 84.835 72.1289C84.8623 72.2109 84.9215 72.2884 85.0127 72.3613C85.1038 72.4251 85.2041 72.4844 85.3135 72.5391C85.4229 72.5938 85.5322 72.6348 85.6416 72.6621C85.7601 72.6895 85.8604 72.7031 85.9424 72.7031C86.1338 72.7031 86.2887 72.6302 86.4072 72.4844C86.5257 72.3385 86.6169 72.1654 86.6807 71.9648C86.7536 71.7643 86.7992 71.5592 86.8174 71.3496C86.8447 71.1309 86.8584 70.9531 86.8584 70.8164ZM92.2451 75.3965C91.7803 75.3965 91.3747 75.2734 91.0283 75.0273C90.682 74.7812 90.3903 74.4668 90.1533 74.084C89.9163 73.7012 89.7386 73.2773 89.6201 72.8125C89.5016 72.3385 89.4424 71.8737 89.4424 71.418C89.4424 70.9349 89.5016 70.4382 89.6201 69.9277C89.7386 69.4082 89.9209 68.9388 90.167 68.5195C90.4131 68.0911 90.7275 67.7448 91.1104 67.4805C91.4932 67.207 91.9489 67.0703 92.4775 67.0703C92.988 67.0703 93.4209 67.2116 93.7764 67.4941C94.141 67.7676 94.4326 68.1139 94.6514 68.5332C94.8701 68.9434 95.0251 69.3945 95.1162 69.8867C95.2074 70.3789 95.2393 70.8438 95.2119 71.2812C95.1846 71.7643 95.1071 72.252 94.9795 72.7441C94.861 73.2363 94.6833 73.6784 94.4463 74.0703C94.2093 74.4622 93.9085 74.7812 93.5439 75.0273C93.1794 75.2734 92.7464 75.3965 92.2451 75.3965ZM92.3818 69.2168C92.2451 69.2168 92.1221 69.2897 92.0127 69.4355C91.9124 69.5814 91.8258 69.7591 91.7529 69.9688C91.6891 70.1784 91.639 70.4017 91.6025 70.6387C91.5661 70.8665 91.5479 71.0671 91.5479 71.2402C91.5479 71.459 91.5661 71.696 91.6025 71.9512C91.6481 72.2064 91.7074 72.4434 91.7803 72.6621C91.8532 72.8717 91.9398 73.0495 92.04 73.1953C92.1494 73.332 92.2725 73.4004 92.4092 73.4004C92.555 73.4004 92.6781 73.332 92.7783 73.1953C92.8877 73.0586 92.9743 72.8854 93.0381 72.6758C93.1019 72.4661 93.1475 72.2383 93.1748 71.9922C93.2021 71.737 93.2158 71.5 93.2158 71.2812C93.2158 71.0807 93.1976 70.862 93.1611 70.625C93.1247 70.3789 93.07 70.151 92.9971 69.9414C92.9333 69.7318 92.8467 69.5586 92.7373 69.4219C92.637 69.2852 92.5186 69.2168 92.3818 69.2168ZM101.802 68.2598C101.802 68.5423 101.797 68.8249 101.788 69.1074C101.779 69.39 101.77 69.6725 101.761 69.9551C101.743 70.4199 101.733 70.8848 101.733 71.3496C101.733 71.8053 101.72 72.2656 101.692 72.7305C101.683 72.8854 101.674 73.0951 101.665 73.3594C101.656 73.6146 101.619 73.8698 101.556 74.125C101.501 74.3711 101.41 74.5898 101.282 74.7812C101.155 74.9635 100.977 75.0547 100.749 75.0547C100.53 75.0547 100.353 74.9818 100.216 74.8359C100.079 74.681 99.9697 74.4896 99.8877 74.2617C99.8148 74.0247 99.7646 73.765 99.7373 73.4824C99.71 73.1908 99.6917 72.9082 99.6826 72.6348C99.6826 72.3522 99.6872 72.0924 99.6963 71.8555C99.7054 71.6185 99.71 71.4362 99.71 71.3086C99.71 70.6888 99.71 70.069 99.71 69.4492C99.7191 68.8294 99.7282 68.2096 99.7373 67.5898C99.555 67.4349 99.4092 67.248 99.2998 67.0293C99.1995 66.8014 99.1494 66.569 99.1494 66.332C99.1494 65.9583 99.2588 65.6393 99.4775 65.375C99.7054 65.1107 100.015 64.9785 100.407 64.9785C100.744 64.9785 101.009 65.1061 101.2 65.3613C101.392 65.6165 101.528 65.9219 101.61 66.2773C101.701 66.6328 101.756 66.9974 101.774 67.3711C101.793 67.7357 101.802 68.0319 101.802 68.2598ZM109.116 67.6445C109.116 67.9362 109.039 68.2096 108.884 68.4648C108.738 68.7109 108.551 68.9434 108.323 69.1621C108.104 69.3717 107.858 69.5586 107.585 69.7227C107.321 69.8776 107.075 70.0007 106.847 70.0918C106.901 70.5293 106.929 70.9805 106.929 71.4453C106.929 71.6003 106.924 71.7734 106.915 71.9648C106.915 72.1562 106.888 72.3385 106.833 72.5117C106.787 72.6758 106.705 72.8171 106.587 72.9355C106.478 73.054 106.318 73.1133 106.108 73.1133C105.744 73.1133 105.498 72.931 105.37 72.5664C105.325 72.4297 105.288 72.2474 105.261 72.0195C105.233 71.7826 105.211 71.541 105.192 71.2949C105.183 71.0397 105.179 70.7936 105.179 70.5566C105.179 70.3197 105.179 70.1237 105.179 69.9688C105.179 69.8411 105.183 69.6908 105.192 69.5176C105.211 69.3444 105.256 69.2031 105.329 69.0938C105.411 68.9753 105.548 68.8613 105.739 68.752C105.931 68.6335 106.127 68.5104 106.327 68.3828C106.537 68.2552 106.719 68.1139 106.874 67.959C107.029 67.804 107.106 67.6217 107.106 67.4121C107.106 67.2572 107.07 67.1159 106.997 66.9883C106.924 66.8607 106.828 66.7559 106.71 66.6738C106.601 66.5827 106.473 66.5143 106.327 66.4688C106.19 66.4141 106.049 66.3867 105.903 66.3867C105.557 66.3867 105.284 66.446 105.083 66.5645C104.882 66.6738 104.709 66.7969 104.563 66.9336C104.427 67.0612 104.295 67.1842 104.167 67.3027C104.049 67.4121 103.894 67.4668 103.702 67.4668C103.483 67.4668 103.283 67.3893 103.101 67.2344C102.927 67.0794 102.841 66.8926 102.841 66.6738C102.841 66.3184 102.946 66.0176 103.155 65.7715C103.365 65.5163 103.625 65.3158 103.935 65.1699C104.244 65.015 104.573 64.9056 104.919 64.8418C105.265 64.7689 105.575 64.7324 105.849 64.7324C106.213 64.7324 106.587 64.8145 106.97 64.9785C107.362 65.1335 107.713 65.3431 108.022 65.6074C108.341 65.8717 108.601 66.1816 108.802 66.5371C109.011 66.8926 109.116 67.2617 109.116 67.6445ZM107.093 74.2891C107.093 74.444 107.052 74.5762 106.97 74.6855C106.897 74.7949 106.801 74.8861 106.683 74.959C106.573 75.0319 106.446 75.0866 106.3 75.123C106.163 75.1595 106.031 75.1777 105.903 75.1777C105.694 75.1777 105.498 75.1276 105.315 75.0273C105.142 74.9271 105.056 74.763 105.056 74.5352C105.056 74.3893 105.092 74.2617 105.165 74.1523C105.247 74.0339 105.347 73.9336 105.466 73.8516C105.584 73.7695 105.712 73.7103 105.849 73.6738C105.994 73.6283 106.131 73.6055 106.259 73.6055C106.468 73.6055 106.66 73.6602 106.833 73.7695C107.006 73.8789 107.093 74.0521 107.093 74.2891Z" fill="white"/>
<defs>
<filter id="filter0_i_871_280" x="-3.05176e-05" y="0" width="187" height="119" filterUnits="userSpaceOnUse" color-interpolation-filters="sRGB">
<feFlood flood-opacity="0" result="BackgroundImageFix"/>
<feBlend mode="normal" in="SourceGraphic" in2="BackgroundImageFix" result="shape"/>
<feColorMatrix in="SourceAlpha" type="matrix" values="0 0 0 0 0 0 0 0 0 0 0 0 0 0 0 0 0 0 127 0" result="hardAlpha"/>
<feOffset dy="4"/>
<feGaussianBlur stdDeviation="2"/>
<feComposite in2="hardAlpha" operator="arithmetic" k2="-1" k3="1"/>
<feColorMatrix type="matrix" values="0 0 0 0 0 0 0 0 0 0 0 0 0 0 0 0 0 0 0.25 0"/>
<feBlend mode="normal" in2="shape" result="effect1_innerShadow_871_280"/>
</filter>
</defs>
</svg>
