<svg width="212" height="120" viewBox="0 0 212 120" fill="none" xmlns="http://www.w3.org/2000/svg">
<g filter="url(#filter0_i_871_291)">
<path fill-rule="evenodd" clip-rule="evenodd" d="M28.1238 76.8112C9.24174 69.7538 1 59.3382 1 48.0652C1 34.1947 17.6231 20.4924 45.1224 13.7174C58.4604 10.4312 74.1315 9 92.1369 9C147.264 9 198.103 23.152 195.933 48.0652C195.933 60.4268 186.524 71.7941 167.361 78.5802C161.734 80.5732 155.302 82.1268 147.981 83.2411C140.435 99.073 129.253 106.662 110.357 119C123.941 104.904 132.133 95.9398 134.881 84.696C128.953 85.1396 122.551 85.3614 115.645 85.3614C76.5717 87.5735 47.0202 83.874 28.1238 76.8112Z" fill="#3DC3FF"/>
</g>
<path d="M28.1238 76.8112L27.7737 77.7479L27.7737 77.7479L28.1238 76.8112ZM45.1224 13.7174L45.3616 14.6883L45.3616 14.6883L45.1224 13.7174ZM195.933 48.0652L194.937 47.9784C194.934 48.0073 194.933 48.0362 194.933 48.0652H195.933ZM167.361 78.5802L167.028 77.6376L167.028 77.6376L167.361 78.5802ZM147.981 83.2411L147.831 82.2524C147.503 82.3023 147.221 82.5115 147.078 82.8108L147.981 83.2411ZM110.357 119L109.637 118.306C109.284 118.673 109.263 119.246 109.587 119.638C109.911 120.03 110.478 120.116 110.904 119.837L110.357 119ZM134.881 84.696L135.852 84.9334C135.928 84.6224 135.851 84.2938 135.644 84.0496C135.437 83.8053 135.126 83.6749 134.806 83.6988L134.881 84.696ZM115.645 85.3614V84.3614C115.626 84.3614 115.608 84.3619 115.589 84.363L115.645 85.3614ZM0 48.0652C0 59.9434 8.71268 70.6236 27.7737 77.7479L28.4739 75.8745C9.77081 68.884 2 58.733 2 48.0652H0ZM44.8832 12.7464C31.038 16.1574 19.8645 21.3271 12.1286 27.4462C4.40428 33.5562 0 40.7083 0 48.0652H2C2 41.5516 5.90728 34.9173 13.3694 29.0148C20.8199 23.1214 31.7075 18.0523 45.3616 14.6883L44.8832 12.7464ZM92.1369 8C74.0847 8 58.3267 9.4343 44.8832 12.7464L45.3616 14.6883C58.5942 11.4282 74.1783 10 92.1369 10V8ZM196.929 48.152C197.506 41.526 194.535 35.6845 189.055 30.7105C183.592 25.7526 175.576 21.5927 165.847 18.2446C146.379 11.5447 119.769 8 92.1369 8V10C119.633 10 146.005 13.5313 165.196 20.1357C174.797 23.4397 182.529 27.4891 187.711 32.1915C192.874 36.8778 195.445 42.1478 194.937 47.9784L196.929 48.152ZM167.695 79.5229C187.055 72.667 196.933 61.0311 196.933 48.0652H194.933C194.933 59.8225 185.993 70.9212 167.028 77.6376L167.695 79.5229ZM148.132 84.2297C155.502 83.1079 161.997 81.541 167.695 79.5229L167.028 77.6376C161.471 79.6055 155.102 81.1457 147.831 82.2524L148.132 84.2297ZM147.078 82.8108C139.67 98.3551 128.731 105.809 109.811 118.163L110.904 119.837C129.775 107.516 141.201 99.7908 148.884 83.6713L147.078 82.8108ZM111.077 119.694C124.609 105.651 133.028 96.49 135.852 84.9334L133.91 84.4586C131.238 95.3895 123.273 104.156 109.637 118.306L111.077 119.694ZM115.645 86.3614C122.572 86.3614 128.999 86.139 134.956 85.6932L134.806 83.6988C128.907 84.1403 122.53 84.3614 115.645 84.3614V86.3614ZM27.7737 77.7479C46.8524 84.8789 76.5598 88.5757 115.702 86.3598L115.589 84.363C76.5836 86.5712 47.1879 82.8691 28.4739 75.8745L27.7737 77.7479Z" fill="#3DC3FF"/>
<path d="M19.3964 43.8535C19.3964 44.0267 19.3508 44.1953 19.2597 44.3594C19.1685 44.5143 18.9543 44.6966 18.6171 44.9062C18.2799 45.1159 17.9062 45.3164 17.496 45.5078C17.0858 45.6901 16.6894 45.8496 16.3065 45.9863C15.9237 46.1139 15.6412 46.1777 15.4589 46.1777C15.3313 46.1777 15.1809 46.1458 15.0077 46.082C14.8345 46.0273 14.6614 45.9544 14.4882 45.8633C14.315 45.7721 14.1555 45.6673 14.0097 45.5488C13.873 45.4303 13.7727 45.3164 13.7089 45.207C13.6724 45.1432 13.636 45.0156 13.5995 44.8242C13.5722 44.6328 13.5448 44.4095 13.5175 44.1543C13.4993 43.8991 13.481 43.6302 13.4628 43.3477C13.4446 43.056 13.4263 42.7826 13.4081 42.5273C13.399 42.263 13.3899 42.0306 13.3808 41.8301C13.3808 41.6296 13.3808 41.4837 13.3808 41.3926C13.3808 41.0553 13.3899 40.668 13.4081 40.2305C13.4355 39.793 13.481 39.3555 13.5448 38.918C13.6086 38.4714 13.6998 38.0475 13.8183 37.6465C13.9459 37.2363 14.1145 36.89 14.3241 36.6074C14.3879 36.5254 14.5155 36.4388 14.7069 36.3477C14.8983 36.2565 15.1217 36.1699 15.3769 36.0879C15.6412 36.0059 15.9237 35.9284 16.2245 35.8555C16.5253 35.7826 16.8124 35.7233 17.0858 35.6777C17.3684 35.623 17.6236 35.582 17.8515 35.5547C18.0793 35.5182 18.2525 35.5 18.371 35.5C18.5077 35.5 18.6353 35.5319 18.7538 35.5957C18.8814 35.6504 18.9862 35.7279 19.0683 35.8281C19.1594 35.9284 19.2278 36.0423 19.2733 36.1699C19.328 36.2884 19.3554 36.416 19.3554 36.5527C19.3554 36.6712 19.3371 36.7715 19.3007 36.8535C19.2733 36.9355 19.2278 37.0267 19.164 37.127C19.0728 37.2454 18.8814 37.3867 18.5898 37.5508C18.2981 37.7148 17.9791 37.8789 17.6327 38.043C17.2955 38.1979 16.9674 38.3392 16.6483 38.4668C16.3385 38.5944 16.1197 38.6855 15.9921 38.7402C15.9556 38.9499 15.9146 39.1641 15.869 39.3828C15.8326 39.5924 15.8052 39.8066 15.787 40.0254C16.0696 39.8796 16.3886 39.7428 16.744 39.6152C17.0995 39.4876 17.4368 39.4238 17.7558 39.4238C18.4029 39.4238 18.7265 39.7428 18.7265 40.3809C18.7265 40.5358 18.6946 40.6725 18.6308 40.791C18.5761 40.9095 18.4986 41.0143 18.3983 41.1055C18.3072 41.1966 18.1978 41.2786 18.0702 41.3516C17.9517 41.4154 17.8332 41.4792 17.7148 41.543C17.4231 41.6979 17.1177 41.8346 16.7987 41.9531C16.4797 42.0625 16.1607 42.1719 15.8417 42.2812C15.8235 42.3542 15.8052 42.4362 15.787 42.5273C15.7688 42.6094 15.7597 42.6914 15.7597 42.7734C15.7597 42.901 15.7688 43.0286 15.787 43.1562C15.8052 43.2839 15.8235 43.4115 15.8417 43.5391C15.9511 43.5026 16.1243 43.4434 16.3612 43.3613C16.6073 43.2793 16.8625 43.1973 17.1269 43.1152C17.3912 43.0332 17.6464 42.9648 17.8925 42.9102C18.1386 42.8464 18.3209 42.8145 18.4394 42.8145C18.5761 42.8145 18.7037 42.8464 18.8222 42.9102C18.9407 42.9648 19.0409 43.0423 19.123 43.1426C19.205 43.2337 19.2688 43.3431 19.3144 43.4707C19.369 43.5983 19.3964 43.7259 19.3964 43.8535ZM25.9999 42.0898C25.9999 42.5911 25.9498 43.0879 25.8495 43.5801C25.7493 44.0723 25.5806 44.5143 25.3437 44.9062C25.1067 45.2891 24.7877 45.599 24.3866 45.8359C23.9947 46.0729 23.5025 46.1914 22.9101 46.1914C22.3267 46.1914 21.8391 46.0775 21.4472 45.8496C21.0552 45.6126 20.7408 45.3027 20.5038 44.9199C20.276 44.5371 20.1119 44.1042 20.0116 43.6211C19.9205 43.138 19.8749 42.6458 19.8749 42.1445C19.8749 41.5977 19.9387 41.0553 20.0663 40.5176C20.0937 40.3717 20.1438 40.1712 20.2167 39.916C20.2987 39.6517 20.399 39.3965 20.5175 39.1504C20.6451 38.8952 20.7864 38.6764 20.9413 38.4941C21.1054 38.3118 21.2831 38.2207 21.4745 38.2207C21.6568 38.2207 21.8026 38.2708 21.912 38.3711C22.0214 38.4714 22.108 38.599 22.1718 38.7539C22.2356 38.8997 22.2766 39.0592 22.2948 39.2324C22.3131 39.3965 22.3222 39.5469 22.3222 39.6836C22.3222 39.8932 22.3039 40.0983 22.2675 40.2988C22.2401 40.4993 22.2082 40.6999 22.1718 40.9004C22.1353 41.1738 22.0989 41.4473 22.0624 41.7207C22.0351 41.9941 22.0214 42.2676 22.0214 42.541C22.0214 42.6777 22.026 42.8327 22.0351 43.0059C22.0533 43.1699 22.0898 43.3294 22.1444 43.4844C22.1991 43.6393 22.2766 43.7715 22.3769 43.8809C22.4771 43.9811 22.6184 44.0312 22.8007 44.0312C23.0377 44.0312 23.2245 43.9674 23.3612 43.8398C23.5071 43.7122 23.6119 43.5527 23.6757 43.3613C23.7486 43.1699 23.7942 42.9648 23.8124 42.7461C23.8306 42.5273 23.8398 42.3268 23.8398 42.1445C23.8398 41.7435 23.8124 41.3516 23.7577 40.9688C23.703 40.5768 23.6529 40.1803 23.6073 39.7793C23.5982 39.7337 23.5937 39.6699 23.5937 39.5879C23.5937 39.4512 23.6164 39.3145 23.662 39.1777C23.7076 39.041 23.7714 38.918 23.8534 38.8086C23.9355 38.6992 24.0357 38.6126 24.1542 38.5488C24.2727 38.4759 24.4049 38.4395 24.5507 38.4395C24.7512 38.4395 24.9289 38.5124 25.0839 38.6582C25.2388 38.7949 25.3664 38.9772 25.4667 39.2051C25.5761 39.4238 25.6627 39.6745 25.7265 39.957C25.7994 40.2305 25.8541 40.5039 25.8905 40.7773C25.9361 41.0417 25.9635 41.2923 25.9726 41.5293C25.9908 41.7663 25.9999 41.9531 25.9999 42.0898ZM34.1347 38.4805C34.1347 38.7448 34.0435 38.9408 33.8612 39.0684C33.6881 39.196 33.4921 39.319 33.2733 39.4375C33.0546 39.5469 32.8541 39.679 32.6718 39.834C32.4986 39.9889 32.412 40.2214 32.412 40.5312C32.412 40.6953 32.4485 40.8366 32.5214 40.9551C32.6034 41.0736 32.6991 41.1829 32.8085 41.2832C32.927 41.3743 33.0546 41.4701 33.1913 41.5703C33.328 41.6706 33.4511 41.7845 33.5605 41.9121C33.6789 42.0397 33.7746 42.1947 33.8476 42.377C33.9296 42.5592 33.9706 42.7826 33.9706 43.0469C33.9706 43.4297 33.8704 43.8079 33.6698 44.1816C33.4784 44.5462 33.2278 44.8743 32.9179 45.166C32.6171 45.4486 32.2753 45.6764 31.8925 45.8496C31.5097 46.0228 31.1314 46.1094 30.7577 46.1094C30.6028 46.1094 30.4478 46.0957 30.2929 46.0684C30.1379 46.0501 29.9967 46.0091 29.869 45.9453C29.7506 45.8815 29.6503 45.7949 29.5683 45.6855C29.4862 45.5671 29.4452 45.4167 29.4452 45.2344C29.4452 44.9792 29.4954 44.7832 29.5956 44.6465C29.6959 44.5007 29.8235 44.3867 29.9784 44.3047C30.1334 44.2227 30.2974 44.1589 30.4706 44.1133C30.6529 44.0677 30.8215 44.013 30.9765 43.9492C31.1314 43.8763 31.259 43.7852 31.3593 43.6758C31.4595 43.5664 31.5097 43.4115 31.5097 43.2109C31.5097 43.0195 31.4322 42.8236 31.2773 42.623C31.1314 42.4134 30.9674 42.1947 30.7851 41.9668C30.6028 41.7298 30.4342 41.4792 30.2792 41.2148C30.1334 40.9505 30.0605 40.6589 30.0605 40.3398C30.0605 39.9479 30.1379 39.5879 30.2929 39.2598C30.4569 38.9225 30.6711 38.6309 30.9355 38.3848C31.2089 38.1387 31.5188 37.9473 31.8651 37.8105C32.2115 37.6647 32.5761 37.5918 32.9589 37.5918C33.1047 37.5918 33.246 37.6055 33.3827 37.6328C33.5286 37.6602 33.6562 37.7103 33.7655 37.7832C33.8749 37.847 33.9615 37.9382 34.0253 38.0566C34.0982 38.166 34.1347 38.3073 34.1347 38.4805ZM37.2792 46.3965C36.8144 46.3965 36.4088 46.2734 36.0624 46.0273C35.7161 45.7812 35.4244 45.4668 35.1874 45.084C34.9504 44.7012 34.7727 44.2773 34.6542 43.8125C34.5357 43.3385 34.4765 42.8737 34.4765 42.418C34.4765 41.9349 34.5357 41.4382 34.6542 40.9277C34.7727 40.4082 34.955 39.9388 35.2011 39.5195C35.4472 39.0911 35.7616 38.7448 36.1444 38.4805C36.5273 38.207 36.983 38.0703 37.5116 38.0703C38.022 38.0703 38.455 38.2116 38.8105 38.4941C39.175 38.7676 39.4667 39.1139 39.6855 39.5332C39.9042 39.9434 40.0592 40.3945 40.1503 40.8867C40.2414 41.3789 40.2733 41.8438 40.246 42.2812C40.2187 42.7643 40.1412 43.252 40.0136 43.7441C39.8951 44.2363 39.7174 44.6784 39.4804 45.0703C39.2434 45.4622 38.9426 45.7812 38.578 46.0273C38.2135 46.2734 37.7805 46.3965 37.2792 46.3965ZM37.4159 40.2168C37.2792 40.2168 37.1562 40.2897 37.0468 40.4355C36.9465 40.5814 36.8599 40.7591 36.787 40.9688C36.7232 41.1784 36.6731 41.4017 36.6366 41.6387C36.6002 41.8665 36.5819 42.0671 36.5819 42.2402C36.5819 42.459 36.6002 42.696 36.6366 42.9512C36.6822 43.2064 36.7414 43.4434 36.8144 43.6621C36.8873 43.8717 36.9739 44.0495 37.0741 44.1953C37.1835 44.332 37.3065 44.4004 37.4433 44.4004C37.5891 44.4004 37.7121 44.332 37.8124 44.1953C37.9218 44.0586 38.0084 43.8854 38.0722 43.6758C38.136 43.4661 38.1815 43.2383 38.2089 42.9922C38.2362 42.737 38.2499 42.5 38.2499 42.2812C38.2499 42.0807 38.2317 41.862 38.1952 41.625C38.1588 41.3789 38.1041 41.151 38.0312 40.9414C37.9674 40.7318 37.8808 40.5586 37.7714 40.4219C37.6711 40.2852 37.5526 40.2168 37.4159 40.2168ZM46.9315 42.0898C46.9315 42.5911 46.8814 43.0879 46.7812 43.5801C46.6809 44.0723 46.5123 44.5143 46.2753 44.9062C46.0383 45.2891 45.7193 45.599 45.3183 45.8359C44.9263 46.0729 44.4342 46.1914 43.8417 46.1914C43.2584 46.1914 42.7707 46.0775 42.3788 45.8496C41.9869 45.6126 41.6724 45.3027 41.4355 44.9199C41.2076 44.5371 41.0435 44.1042 40.9433 43.6211C40.8521 43.138 40.8065 42.6458 40.8065 42.1445C40.8065 41.5977 40.8704 41.0553 40.998 40.5176C41.0253 40.3717 41.0754 40.1712 41.1483 39.916C41.2304 39.6517 41.3306 39.3965 41.4491 39.1504C41.5767 38.8952 41.718 38.6764 41.873 38.4941C42.037 38.3118 42.2148 38.2207 42.4062 38.2207C42.5885 38.2207 42.7343 38.2708 42.8437 38.3711C42.953 38.4714 43.0396 38.599 43.1034 38.7539C43.1672 38.8997 43.2082 39.0592 43.2265 39.2324C43.2447 39.3965 43.2538 39.5469 43.2538 39.6836C43.2538 39.8932 43.2356 40.0983 43.1991 40.2988C43.1718 40.4993 43.1399 40.6999 43.1034 40.9004C43.067 41.1738 43.0305 41.4473 42.994 41.7207C42.9667 41.9941 42.953 42.2676 42.953 42.541C42.953 42.6777 42.9576 42.8327 42.9667 43.0059C42.9849 43.1699 43.0214 43.3294 43.0761 43.4844C43.1308 43.6393 43.2082 43.7715 43.3085 43.8809C43.4088 43.9811 43.55 44.0312 43.7323 44.0312C43.9693 44.0312 44.1562 43.9674 44.2929 43.8398C44.4387 43.7122 44.5435 43.5527 44.6073 43.3613C44.6802 43.1699 44.7258 42.9648 44.744 42.7461C44.7623 42.5273 44.7714 42.3268 44.7714 42.1445C44.7714 41.7435 44.744 41.3516 44.6894 40.9688C44.6347 40.5768 44.5845 40.1803 44.539 39.7793C44.5299 39.7337 44.5253 39.6699 44.5253 39.5879C44.5253 39.4512 44.5481 39.3145 44.5937 39.1777C44.6392 39.041 44.703 38.918 44.7851 38.8086C44.8671 38.6992 44.9674 38.6126 45.0858 38.5488C45.2043 38.4759 45.3365 38.4395 45.4823 38.4395C45.6829 38.4395 45.8606 38.5124 46.0155 38.6582C46.1705 38.7949 46.2981 38.9772 46.3983 39.2051C46.5077 39.4238 46.5943 39.6745 46.6581 39.957C46.731 40.2305 46.7857 40.5039 46.8222 40.7773C46.8677 41.0417 46.8951 41.2923 46.9042 41.5293C46.9224 41.7663 46.9315 41.9531 46.9315 42.0898ZM53.6581 46.3965C53.1933 46.3965 52.7877 46.2734 52.4413 46.0273C52.095 45.7812 51.8033 45.4668 51.5663 45.084C51.3293 44.7012 51.1516 44.2773 51.0331 43.8125C50.9146 43.3385 50.8554 42.8737 50.8554 42.418C50.8554 41.9349 50.9146 41.4382 51.0331 40.9277C51.1516 40.4082 51.3339 39.9388 51.58 39.5195C51.8261 39.0911 52.1405 38.7448 52.5233 38.4805C52.9062 38.207 53.3619 38.0703 53.8905 38.0703C54.401 38.0703 54.8339 38.2116 55.1894 38.4941C55.5539 38.7676 55.8456 39.1139 56.0644 39.5332C56.2831 39.9434 56.4381 40.3945 56.5292 40.8867C56.6204 41.3789 56.6523 41.8438 56.6249 42.2812C56.5976 42.7643 56.5201 43.252 56.3925 43.7441C56.274 44.2363 56.0963 44.6784 55.8593 45.0703C55.6223 45.4622 55.3215 45.7812 54.9569 46.0273C54.5924 46.2734 54.1594 46.3965 53.6581 46.3965ZM53.7948 40.2168C53.6581 40.2168 53.5351 40.2897 53.4257 40.4355C53.3254 40.5814 53.2388 40.7591 53.1659 40.9688C53.1021 41.1784 53.052 41.4017 53.0155 41.6387C52.9791 41.8665 52.9608 42.0671 52.9608 42.2402C52.9608 42.459 52.9791 42.696 53.0155 42.9512C53.0611 43.2064 53.1204 43.4434 53.1933 43.6621C53.2662 43.8717 53.3528 44.0495 53.453 44.1953C53.5624 44.332 53.6855 44.4004 53.8222 44.4004C53.968 44.4004 54.0911 44.332 54.1913 44.1953C54.3007 44.0586 54.3873 43.8854 54.4511 43.6758C54.5149 43.4661 54.5605 43.2383 54.5878 42.9922C54.6151 42.737 54.6288 42.5 54.6288 42.2812C54.6288 42.0807 54.6106 41.862 54.5741 41.625C54.5377 41.3789 54.483 41.151 54.4101 40.9414C54.3463 40.7318 54.2597 40.5586 54.1503 40.4219C54.05 40.2852 53.9315 40.2168 53.7948 40.2168ZM67.289 38.8086C67.289 39.4375 67.1431 40.0026 66.8515 40.5039C66.5598 41.0052 66.1724 41.4473 65.6894 41.8301C65.8352 42.0488 65.9856 42.304 66.1405 42.5957C66.2955 42.8874 66.4322 43.1973 66.5507 43.5254C66.6783 43.8444 66.7786 44.168 66.8515 44.4961C66.9335 44.8151 66.9745 45.1113 66.9745 45.3848C66.9745 45.6764 66.9016 45.9362 66.7558 46.1641C66.619 46.401 66.3821 46.5195 66.0448 46.5195C65.7623 46.5195 65.5162 46.3828 65.3065 46.1094C65.106 45.8359 64.9237 45.5124 64.7597 45.1387C64.6047 44.7559 64.4589 44.3685 64.3222 43.9766C64.1946 43.5846 64.0715 43.2702 63.953 43.0332C63.789 43.0879 63.6295 43.1517 63.4745 43.2246C63.3196 43.2884 63.1601 43.3522 62.996 43.416C62.9869 43.6165 62.9687 43.8945 62.9413 44.25C62.9231 44.5964 62.873 44.9427 62.7909 45.2891C62.718 45.6354 62.6041 45.9362 62.4491 46.1914C62.2942 46.4466 62.08 46.5742 61.8065 46.5742C61.5058 46.5742 61.2733 46.4512 61.1093 46.2051C60.9452 45.959 60.8267 45.6673 60.7538 45.3301C60.69 44.9928 60.6536 44.651 60.6444 44.3047C60.6353 43.9492 60.6308 43.6712 60.6308 43.4707C60.6308 43.0423 60.6399 42.623 60.6581 42.2129C60.6763 41.7936 60.6855 41.3698 60.6855 40.9414C60.6855 40.5495 60.6763 40.1576 60.6581 39.7656C60.649 39.3737 60.6444 38.9772 60.6444 38.5762C60.6444 38.485 60.6444 38.3711 60.6444 38.2344C60.6444 38.0885 60.649 37.9427 60.6581 37.7969C60.6763 37.6419 60.6946 37.4961 60.7128 37.3594C60.731 37.2227 60.7629 37.1133 60.8085 37.0312C60.8996 36.8398 61.1047 36.6576 61.4237 36.4844C61.7519 36.3112 62.1073 36.1608 62.4901 36.0332C62.8821 35.8965 63.2603 35.7917 63.6249 35.7188C63.9986 35.6367 64.2766 35.5957 64.4589 35.5957C64.9237 35.5957 65.3339 35.6823 65.6894 35.8555C66.0448 36.0286 66.3411 36.2656 66.578 36.5664C66.815 36.8581 66.9927 37.1999 67.1112 37.5918C67.2297 37.9746 67.289 38.3802 67.289 38.8086ZM64.7597 39C64.7597 38.763 64.705 38.5853 64.5956 38.4668C64.4862 38.3392 64.3085 38.2754 64.0624 38.2754C63.8801 38.2754 63.6933 38.3073 63.5019 38.3711C63.3196 38.4349 63.151 38.5078 62.996 38.5898C63.0325 39.3099 63.0461 40.0254 63.037 40.7363C63.2284 40.6725 63.4244 40.5905 63.6249 40.4902C63.8254 40.39 64.0077 40.2669 64.1718 40.1211C64.345 39.9753 64.4862 39.8112 64.5956 39.6289C64.705 39.4466 64.7597 39.237 64.7597 39ZM73.578 44.0723C73.578 44.2363 73.5689 44.4505 73.5507 44.7148C73.5416 44.9792 73.5051 45.2389 73.4413 45.4941C73.3775 45.7402 73.2773 45.9544 73.1405 46.1367C73.0038 46.319 72.8124 46.4102 72.5663 46.4102C72.2291 46.4102 71.9693 46.3008 71.787 46.082C71.6047 45.8633 71.5181 45.5898 71.5273 45.2617C71.2356 45.5169 70.9029 45.7174 70.5292 45.8633C70.1646 46.0091 69.7909 46.082 69.4081 46.082C69.1438 46.082 68.8931 46.0182 68.6562 45.8906C68.4192 45.763 68.2095 45.599 68.0273 45.3984C67.845 45.1979 67.6991 44.9746 67.5898 44.7285C67.4804 44.4733 67.4257 44.2227 67.4257 43.9766C67.4257 43.5391 67.5579 43.1562 67.8222 42.8281C68.0956 42.5 68.4283 42.222 68.8202 41.9941C69.2121 41.7572 69.6269 41.5703 70.0644 41.4336C70.511 41.2969 70.9075 41.2057 71.2538 41.1602C71.2538 41.1146 71.2538 41.0736 71.2538 41.0371C71.2629 41.0007 71.2675 40.9596 71.2675 40.9141C71.2675 40.6315 71.19 40.4036 71.0351 40.2305C70.8801 40.0573 70.6614 39.9707 70.3788 39.9707C70.151 39.9707 69.955 40.0117 69.7909 40.0938C69.6269 40.1667 69.4719 40.2533 69.3261 40.3535C69.1802 40.4447 69.0344 40.5312 68.8886 40.6133C68.7427 40.6862 68.5787 40.7227 68.3964 40.7227C68.1959 40.7227 68.0227 40.6589 67.8769 40.5312C67.7401 40.4036 67.6718 40.2396 67.6718 40.0391C67.6718 39.7383 67.7584 39.4648 67.9315 39.2188C68.1138 38.9727 68.3371 38.7676 68.6015 38.6035C68.8749 38.4303 69.1666 38.2982 69.4765 38.207C69.7955 38.1068 70.0871 38.0566 70.3515 38.0566C70.5976 38.0566 70.8437 38.0885 71.0898 38.1523C71.3358 38.207 71.5683 38.2982 71.787 38.4258C72.0058 38.5443 72.2017 38.6947 72.3749 38.877C72.5572 39.0501 72.703 39.2552 72.8124 39.4922C72.9765 39.8294 73.1086 40.1895 73.2089 40.5723C73.3092 40.946 73.3866 41.3333 73.4413 41.7344C73.496 42.1263 73.5325 42.5228 73.5507 42.9238C73.5689 43.3158 73.578 43.6986 73.578 44.0723ZM71.3905 43.6348L71.3495 42.7051C71.3313 42.7051 71.3131 42.7051 71.2948 42.7051C71.2766 42.696 71.2584 42.6914 71.2401 42.6914C71.1217 42.6914 70.9713 42.7233 70.789 42.7871C70.6158 42.8418 70.4472 42.9238 70.2831 43.0332C70.119 43.1335 69.9778 43.2474 69.8593 43.375C69.7499 43.5026 69.6952 43.6348 69.6952 43.7715C69.6952 43.8991 69.7408 43.9857 69.8319 44.0312C69.9231 44.0768 70.0279 44.0996 70.1464 44.0996C70.3469 44.0996 70.5611 44.0495 70.789 43.9492C71.0168 43.8398 71.2174 43.735 71.3905 43.6348ZM72.0468 35.6504C72.0468 35.7507 72.0194 35.8509 71.9648 35.9512C71.9101 36.0423 71.8417 36.1289 71.7597 36.2109C71.6868 36.293 71.6047 36.3704 71.5136 36.4434C71.4224 36.5072 71.3404 36.5664 71.2675 36.6211C71.2037 36.6667 71.1308 36.7214 71.0487 36.7852C70.9758 36.8398 70.8938 36.8945 70.8026 36.9492C70.7206 36.9948 70.634 37.0358 70.5429 37.0723C70.4608 37.1087 70.3788 37.127 70.2968 37.127C70.2239 37.127 70.1601 37.1087 70.1054 37.0723C70.0507 37.0267 70.0233 36.9629 70.0233 36.8809C70.0233 36.7441 70.0735 36.5801 70.1737 36.3887C70.2831 36.1882 70.4153 35.9967 70.5702 35.8145C70.7252 35.623 70.8892 35.4635 71.0624 35.3359C71.2356 35.1992 71.3951 35.1309 71.5409 35.1309C71.6685 35.1309 71.7825 35.1855 71.8827 35.2949C71.9921 35.3952 72.0468 35.5137 72.0468 35.6504ZM80.6601 41.9258C80.6601 42.3268 80.6145 42.7689 80.5233 43.252C80.4413 43.7259 80.2955 44.168 80.0858 44.5781C79.8853 44.9883 79.6164 45.3301 79.2792 45.6035C78.9511 45.877 78.5364 46.0137 78.0351 46.0137C77.9075 46.0137 77.7753 46.0046 77.6386 45.9863C77.5019 45.9681 77.3697 45.9362 77.2421 45.8906C77.1236 45.8451 77.0142 45.7858 76.914 45.7129C76.8137 45.6309 76.7362 45.526 76.6815 45.3984L76.5585 47.3672C76.5494 47.5768 76.5403 47.8275 76.5312 48.1191C76.5312 48.4108 76.4947 48.6888 76.4218 48.9531C76.358 49.2174 76.244 49.4408 76.08 49.623C75.925 49.8145 75.6972 49.9102 75.3964 49.9102C75.2232 49.9102 75.0774 49.819 74.9589 49.6367C74.8404 49.4635 74.7447 49.2402 74.6718 48.9668C74.608 48.6934 74.5579 48.388 74.5214 48.0508C74.4849 47.7135 74.4621 47.39 74.453 47.0801C74.4439 46.7702 74.4394 46.4876 74.4394 46.2324C74.4394 45.9772 74.4394 45.7904 74.4394 45.6719C74.4394 45.0612 74.4348 44.4551 74.4257 43.8535C74.4166 43.2428 74.412 42.6322 74.412 42.0215C74.412 41.9121 74.412 41.7435 74.412 41.5156C74.412 41.2786 74.4211 41.0234 74.4394 40.75C74.4576 40.4766 74.4849 40.194 74.5214 39.9023C74.567 39.6107 74.6308 39.3464 74.7128 39.1094C74.7948 38.8633 74.8996 38.6673 75.0273 38.5215C75.1549 38.3665 75.3098 38.2891 75.4921 38.2891C75.6106 38.2891 75.7154 38.3255 75.8065 38.3984C75.9068 38.4622 75.9888 38.5488 76.0526 38.6582C76.1256 38.7585 76.1848 38.8678 76.2304 38.9863C76.276 39.1048 76.3124 39.2142 76.3398 39.3145C76.6223 38.9954 76.9459 38.7539 77.3105 38.5898C77.6842 38.4258 78.0806 38.3438 78.4999 38.3438C78.9374 38.3438 79.2929 38.4668 79.5663 38.7129C79.8489 38.959 80.0676 39.2643 80.2226 39.6289C80.3866 39.9935 80.5006 40.3854 80.5644 40.8047C80.6282 41.2148 80.6601 41.5885 80.6601 41.9258ZM78.705 41.8164C78.705 41.6797 78.6913 41.543 78.664 41.4062C78.6457 41.2604 78.6047 41.1283 78.5409 41.0098C78.4862 40.8822 78.4042 40.7819 78.2948 40.709C78.1855 40.627 78.0487 40.5859 77.8847 40.5859C77.6659 40.5859 77.4335 40.6589 77.1874 40.8047C76.9504 40.9414 76.7727 41.1009 76.6542 41.2832C76.6086 41.3561 76.5813 41.4746 76.5722 41.6387C76.5631 41.8027 76.5585 41.9258 76.5585 42.0078C76.5585 42.0716 76.5585 42.1582 76.5585 42.2676C76.5676 42.3678 76.5767 42.4727 76.5858 42.582C76.595 42.6914 76.6041 42.7962 76.6132 42.8965C76.6314 42.9967 76.6542 43.0742 76.6815 43.1289C76.7089 43.2109 76.7681 43.2884 76.8593 43.3613C76.9504 43.4251 77.0507 43.4844 77.1601 43.5391C77.2694 43.5938 77.3788 43.6348 77.4882 43.6621C77.6067 43.6895 77.7069 43.7031 77.789 43.7031C77.9804 43.7031 78.1353 43.6302 78.2538 43.4844C78.3723 43.3385 78.4635 43.1654 78.5273 42.9648C78.6002 42.7643 78.6457 42.5592 78.664 42.3496C78.6913 42.1309 78.705 41.9531 78.705 41.8164ZM83.7499 36.457C83.7499 36.5846 83.7135 36.6986 83.6405 36.7988C83.5767 36.8991 83.4901 36.9902 83.3808 37.0723C83.2714 37.1452 83.1529 37.2044 83.0253 37.25C82.8977 37.2865 82.7792 37.3047 82.6698 37.3047C82.4875 37.3047 82.328 37.2591 82.1913 37.168C82.0546 37.0768 81.9862 36.9355 81.9862 36.7441C81.9862 36.6074 82.0181 36.4889 82.0819 36.3887C82.1549 36.2793 82.2414 36.1927 82.3417 36.1289C82.442 36.056 82.5559 36.0013 82.6835 35.9648C82.8111 35.9284 82.9342 35.9102 83.0526 35.9102C83.2258 35.9102 83.3853 35.9512 83.5312 36.0332C83.677 36.1152 83.7499 36.2565 83.7499 36.457ZM83.8593 41.1055C83.8593 41.2331 83.8593 41.3698 83.8593 41.5156C83.8593 41.6523 83.8547 41.7845 83.8456 41.9121C83.8365 42.0671 83.8319 42.2767 83.8319 42.541C83.8319 42.7962 83.8228 43.0742 83.8046 43.375C83.7864 43.6758 83.7545 43.9811 83.7089 44.291C83.6724 44.6009 83.6086 44.8835 83.5175 45.1387C83.4263 45.3939 83.3033 45.6035 83.1483 45.7676C83.0025 45.9225 82.8157 46.0046 82.5878 46.0137C82.4146 46.0228 82.2688 45.9544 82.1503 45.8086C82.0318 45.6628 81.9315 45.4759 81.8495 45.248C81.7766 45.0111 81.7219 44.7513 81.6855 44.4688C81.649 44.1771 81.6217 43.8991 81.6034 43.6348C81.5852 43.3613 81.5761 43.1107 81.5761 42.8828C81.5761 42.6549 81.5761 42.4863 81.5761 42.377C81.5761 42.2311 81.5761 42.026 81.5761 41.7617C81.5761 41.4883 81.5852 41.1966 81.6034 40.8867C81.6217 40.5768 81.6536 40.2624 81.6991 39.9434C81.7538 39.6243 81.8267 39.3327 81.9179 39.0684C82.0181 38.804 82.1457 38.5898 82.3007 38.4258C82.4556 38.2617 82.6516 38.1797 82.8886 38.1797C83.1347 38.1797 83.3215 38.3027 83.4491 38.5488C83.5767 38.7949 83.6724 39.082 83.7362 39.4102C83.8 39.7383 83.8365 40.0664 83.8456 40.3945C83.8547 40.7135 83.8593 40.9505 83.8593 41.1055ZM90.7226 37.0039C90.7226 37.6693 90.6952 38.3301 90.6405 38.9863C90.595 39.6426 90.5722 40.3034 90.5722 40.9688C90.5722 41.5065 90.5858 42.0397 90.6132 42.5684C90.6496 43.097 90.6679 43.6302 90.6679 44.168C90.6679 44.3138 90.6633 44.4915 90.6542 44.7012C90.6451 44.9017 90.6132 45.0977 90.5585 45.2891C90.5129 45.4805 90.4309 45.6445 90.3124 45.7812C90.203 45.918 90.0435 45.9863 89.8339 45.9863C89.5605 45.9863 89.3326 45.8861 89.1503 45.6855C88.9771 45.4759 88.8677 45.2435 88.8222 44.9883C88.649 45.3164 88.3983 45.5944 88.0702 45.8223C87.7421 46.0501 87.3866 46.1641 87.0038 46.1641C86.5937 46.1641 86.2382 46.0228 85.9374 45.7402C85.6457 45.4577 85.3996 45.1159 85.1991 44.7148C85.0077 44.3138 84.8619 43.8945 84.7616 43.457C84.6705 43.0195 84.6249 42.6413 84.6249 42.3223C84.6249 42.0944 84.6386 41.8346 84.6659 41.543C84.6933 41.2513 84.7388 40.9551 84.8026 40.6543C84.8756 40.3535 84.9667 40.0618 85.0761 39.7793C85.1855 39.4876 85.3222 39.2279 85.4862 39C85.6594 38.7721 85.8599 38.5898 86.0878 38.4531C86.3248 38.3164 86.5937 38.248 86.8944 38.248C87.2226 38.248 87.537 38.3438 87.8378 38.5352C88.1386 38.7266 88.3664 38.9635 88.5214 39.2461L88.6444 37.0723C88.6536 36.8991 88.6672 36.6986 88.6855 36.4707C88.7037 36.2337 88.7401 36.0104 88.7948 35.8008C88.8586 35.5911 88.9543 35.4134 89.0819 35.2676C89.2095 35.1217 89.3964 35.0488 89.6425 35.0488C89.9068 35.0488 90.1119 35.1126 90.2577 35.2402C90.4036 35.3678 90.5084 35.5319 90.5722 35.7324C90.6451 35.9238 90.6861 36.1335 90.6952 36.3613C90.7135 36.5892 90.7226 36.8034 90.7226 37.0039ZM88.494 43.0742C88.494 42.8646 88.4895 42.6595 88.4804 42.459C88.4713 42.2585 88.4713 42.0534 88.4804 41.8438C88.4257 41.7253 88.3619 41.5977 88.289 41.4609C88.2161 41.3151 88.1249 41.1829 88.0155 41.0645C87.9153 40.9368 87.8013 40.832 87.6737 40.75C87.5461 40.668 87.4094 40.627 87.2636 40.627C87.0995 40.627 86.9674 40.6771 86.8671 40.7773C86.7668 40.8776 86.6939 41.0007 86.6483 41.1465C86.6028 41.2832 86.5709 41.4336 86.5526 41.5977C86.5435 41.7617 86.539 41.903 86.539 42.0215C86.539 42.1309 86.5481 42.2949 86.5663 42.5137C86.5845 42.7233 86.6164 42.9375 86.662 43.1562C86.7167 43.375 86.7896 43.5664 86.8808 43.7305C86.9719 43.8945 87.095 43.9766 87.2499 43.9766C87.3684 43.9766 87.4869 43.9538 87.6054 43.9082C87.7239 43.8535 87.8332 43.7897 87.9335 43.7168C88.0429 43.6348 88.1431 43.5482 88.2343 43.457C88.3345 43.3568 88.4211 43.2656 88.494 43.1836V43.0742ZM94.2226 46.3965C93.7577 46.3965 93.3521 46.2734 93.0058 46.0273C92.6594 45.7812 92.3677 45.4668 92.1308 45.084C91.8938 44.7012 91.7161 44.2773 91.5976 43.8125C91.4791 43.3385 91.4198 42.8737 91.4198 42.418C91.4198 41.9349 91.4791 41.4382 91.5976 40.9277C91.7161 40.4082 91.8983 39.9388 92.1444 39.5195C92.3905 39.0911 92.705 38.7448 93.0878 38.4805C93.4706 38.207 93.9263 38.0703 94.455 38.0703C94.9654 38.0703 95.3983 38.2116 95.7538 38.4941C96.1184 38.7676 96.4101 39.1139 96.6288 39.5332C96.8476 39.9434 97.0025 40.3945 97.0937 40.8867C97.1848 41.3789 97.2167 41.8438 97.1894 42.2812C97.162 42.7643 97.0845 43.252 96.9569 43.7441C96.8385 44.2363 96.6607 44.6784 96.4237 45.0703C96.1868 45.4622 95.886 45.7812 95.5214 46.0273C95.1568 46.2734 94.7239 46.3965 94.2226 46.3965ZM94.3593 40.2168C94.2226 40.2168 94.0995 40.2897 93.9901 40.4355C93.8899 40.5814 93.8033 40.7591 93.7304 40.9688C93.6666 41.1784 93.6164 41.4017 93.58 41.6387C93.5435 41.8665 93.5253 42.0671 93.5253 42.2402C93.5253 42.459 93.5435 42.696 93.58 42.9512C93.6256 43.2064 93.6848 43.4434 93.7577 43.6621C93.8306 43.8717 93.9172 44.0495 94.0175 44.1953C94.1269 44.332 94.2499 44.4004 94.3866 44.4004C94.5325 44.4004 94.6555 44.332 94.7558 44.1953C94.8651 44.0586 94.9517 43.8854 95.0155 43.6758C95.0793 43.4661 95.1249 43.2383 95.1523 42.9922C95.1796 42.737 95.1933 42.5 95.1933 42.2812C95.1933 42.0807 95.175 41.862 95.1386 41.625C95.1021 41.3789 95.0474 41.151 94.9745 40.9414C94.9107 40.7318 94.8241 40.5586 94.7148 40.4219C94.6145 40.2852 94.496 40.2168 94.3593 40.2168ZM100.443 40.2715C100.443 40.4173 100.434 40.6178 100.416 40.873C100.398 41.1191 100.37 41.388 100.334 41.6797C100.297 41.9622 100.243 42.2539 100.17 42.5547C100.106 42.8464 100.029 43.1152 99.9374 43.3613C99.8463 43.5983 99.7369 43.7943 99.6093 43.9492C99.4817 44.0951 99.3358 44.168 99.1718 44.168C98.9713 44.168 98.7981 44.0723 98.6523 43.8809C98.5155 43.6803 98.397 43.4297 98.2968 43.1289C98.2056 42.819 98.1327 42.4772 98.078 42.1035C98.0233 41.7298 97.9823 41.3652 97.955 41.0098C97.9276 40.6452 97.9094 40.3125 97.9003 40.0117C97.9003 39.7018 97.9003 39.4648 97.9003 39.3008C97.9003 39.1367 97.9003 38.9316 97.9003 38.6855C97.9003 38.4303 97.9094 38.1615 97.9276 37.8789C97.955 37.5964 97.9914 37.3184 98.037 37.0449C98.0917 36.7624 98.1692 36.5072 98.2694 36.2793C98.3697 36.0514 98.5019 35.8691 98.6659 35.7324C98.83 35.5866 99.0351 35.5137 99.2812 35.5137C99.4999 35.5137 99.6776 35.6094 99.8144 35.8008C99.9602 35.9831 100.074 36.2246 100.156 36.5254C100.247 36.8171 100.311 37.1452 100.348 37.5098C100.393 37.8743 100.42 38.2344 100.43 38.5898C100.448 38.9362 100.452 39.2598 100.443 39.5605C100.443 39.8613 100.443 40.0983 100.443 40.2715ZM100.184 45.4668C100.184 45.6217 100.147 45.7585 100.074 45.877C100.001 45.9863 99.9055 46.0775 99.787 46.1504C99.6685 46.2324 99.5409 46.2917 99.4042 46.3281C99.2675 46.3646 99.1308 46.3828 98.994 46.3828C98.7935 46.3828 98.6021 46.3281 98.4198 46.2188C98.2375 46.1185 98.1464 45.9544 98.1464 45.7266C98.1464 45.5898 98.1829 45.4668 98.2558 45.3574C98.3378 45.2389 98.4381 45.1387 98.5565 45.0566C98.675 44.9746 98.8026 44.9108 98.9394 44.8652C99.0852 44.8197 99.2219 44.7969 99.3495 44.7969C99.5592 44.7969 99.7506 44.8516 99.9237 44.9609C100.097 45.0612 100.184 45.2298 100.184 45.4668ZM111.476 43.9766C111.476 44.1589 111.458 44.3776 111.422 44.6328C111.394 44.888 111.335 45.1341 111.244 45.3711C111.153 45.599 111.03 45.7949 110.875 45.959C110.72 46.1139 110.515 46.1914 110.26 46.1914C109.922 46.1914 109.667 46.0684 109.494 45.8223C109.33 45.5762 109.211 45.2845 109.139 44.9473C109.066 44.6009 109.02 44.25 109.002 43.8945C108.993 43.5391 108.984 43.2565 108.975 43.0469C108.318 43.1562 107.671 43.252 107.033 43.334C107.015 43.5436 106.974 43.8034 106.91 44.1133C106.855 44.4232 106.764 44.724 106.637 45.0156C106.518 45.2982 106.359 45.5443 106.158 45.7539C105.967 45.9635 105.73 46.0684 105.447 46.0684C105.228 46.0684 105.055 45.9909 104.928 45.8359C104.809 45.6719 104.718 45.4805 104.654 45.2617C104.59 45.043 104.549 44.8197 104.531 44.5918C104.522 44.3548 104.517 44.1589 104.517 44.0039C104.517 43.4844 104.559 42.974 104.641 42.4727C104.723 41.9622 104.818 41.4564 104.928 40.9551C104.982 40.6908 105.055 40.3809 105.146 40.0254C105.238 39.6699 105.347 39.3053 105.475 38.9316C105.611 38.5488 105.766 38.1751 105.939 37.8105C106.122 37.4368 106.327 37.1042 106.555 36.8125C106.782 36.5208 107.042 36.2839 107.334 36.1016C107.626 35.9193 107.949 35.8281 108.305 35.8281C108.651 35.8281 108.952 35.9056 109.207 36.0605C109.462 36.2155 109.685 36.4206 109.877 36.6758C110.068 36.931 110.228 37.2227 110.355 37.5508C110.483 37.8698 110.588 38.1979 110.67 38.5352C110.761 38.8633 110.834 39.1868 110.889 39.5059C110.952 39.8249 111.007 40.1074 111.053 40.3535C111.171 40.946 111.271 41.5475 111.353 42.1582C111.435 42.7598 111.476 43.3659 111.476 43.9766ZM108.838 40.6543C108.838 40.5449 108.829 40.3672 108.81 40.1211C108.801 39.8659 108.774 39.6152 108.728 39.3691C108.683 39.1139 108.61 38.8906 108.51 38.6992C108.419 38.4987 108.291 38.3984 108.127 38.3984C108.036 38.3984 107.949 38.4622 107.867 38.5898C107.785 38.7083 107.712 38.8633 107.648 39.0547C107.585 39.237 107.525 39.4421 107.471 39.6699C107.425 39.8978 107.384 40.1165 107.348 40.3262C107.311 40.5358 107.284 40.7272 107.266 40.9004C107.247 41.0645 107.234 41.1829 107.225 41.2559C107.771 41.2103 108.309 41.1419 108.838 41.0508V40.6543ZM115.551 46.4922C114.904 46.4922 114.398 46.4056 114.033 46.2324C113.678 46.0684 113.409 45.8314 113.226 45.5215C113.053 45.2116 112.948 44.8379 112.912 44.4004C112.876 43.9629 112.857 43.4753 112.857 42.9375C112.857 42.5091 112.871 42.0807 112.898 41.6523C112.926 41.2148 112.967 40.75 113.021 40.2578C112.894 40.2578 112.794 40.2624 112.721 40.2715C112.648 40.2715 112.588 40.2715 112.543 40.2715C112.251 40.2715 112.001 40.2077 111.791 40.0801C111.572 39.9525 111.463 39.7565 111.463 39.4922C111.463 39.3281 111.527 39.1823 111.654 39.0547C111.773 38.9271 111.928 38.8177 112.119 38.7266C112.31 38.6354 112.516 38.5625 112.734 38.5078C112.962 38.4531 113.176 38.4167 113.377 38.3984C113.377 38.1432 113.395 37.8607 113.432 37.5508C113.468 37.2409 113.532 36.9538 113.623 36.6895C113.723 36.416 113.855 36.1882 114.019 36.0059C114.184 35.8236 114.393 35.7324 114.648 35.7324C114.794 35.7324 114.922 35.778 115.031 35.8691C115.15 35.9512 115.245 36.0605 115.318 36.1973C115.391 36.3249 115.446 36.4707 115.482 36.6348C115.519 36.7988 115.537 36.9583 115.537 37.1133C115.537 37.2956 115.523 37.4824 115.496 37.6738C115.469 37.8652 115.419 38.1022 115.346 38.3848C115.501 38.3665 115.605 38.3574 115.66 38.3574C115.715 38.3483 115.765 38.3438 115.81 38.3438C115.965 38.3438 116.125 38.3574 116.289 38.3848C116.462 38.4121 116.617 38.4577 116.754 38.5215C116.9 38.5853 117.018 38.6719 117.109 38.7812C117.2 38.8815 117.246 39.0046 117.246 39.1504C117.246 39.3145 117.178 39.4603 117.041 39.5879C116.913 39.7155 116.749 39.8249 116.549 39.916C116.348 40.0072 116.134 40.0801 115.906 40.1348C115.678 40.1803 115.464 40.2122 115.264 40.2305C115.209 40.6042 115.168 40.9505 115.141 41.2695C115.122 41.5794 115.1 41.8939 115.072 42.2129C115.054 42.3678 115.036 42.5273 115.017 42.6914C115.008 42.8464 115.004 43.0059 115.004 43.1699C115.004 43.2884 115.008 43.4297 115.017 43.5938C115.027 43.7487 115.059 43.8991 115.113 44.0449C115.168 44.1908 115.254 44.3184 115.373 44.4277C115.491 44.528 115.656 44.5781 115.865 44.5781C115.993 44.5781 116.125 44.569 116.262 44.5508C116.398 44.5234 116.535 44.5098 116.672 44.5098C116.909 44.5098 117.077 44.5918 117.178 44.7559C117.287 44.9199 117.342 45.1296 117.342 45.3848C117.342 45.5762 117.282 45.7448 117.164 45.8906C117.055 46.0273 116.913 46.1367 116.74 46.2188C116.567 46.3099 116.371 46.3783 116.152 46.4238C115.943 46.4694 115.742 46.4922 115.551 46.4922ZM123.603 42.0898C123.603 42.5911 123.553 43.0879 123.453 43.5801C123.353 44.0723 123.184 44.5143 122.947 44.9062C122.71 45.2891 122.391 45.599 121.99 45.8359C121.598 46.0729 121.106 46.1914 120.514 46.1914C119.93 46.1914 119.443 46.0775 119.051 45.8496C118.659 45.6126 118.344 45.3027 118.107 44.9199C117.879 44.5371 117.715 44.1042 117.615 43.6211C117.524 43.138 117.478 42.6458 117.478 42.1445C117.478 41.5977 117.542 41.0553 117.67 40.5176C117.697 40.3717 117.747 40.1712 117.82 39.916C117.902 39.6517 118.003 39.3965 118.121 39.1504C118.249 38.8952 118.39 38.6764 118.545 38.4941C118.709 38.3118 118.887 38.2207 119.078 38.2207C119.26 38.2207 119.406 38.2708 119.516 38.3711C119.625 38.4714 119.711 38.599 119.775 38.7539C119.839 38.8997 119.88 39.0592 119.898 39.2324C119.917 39.3965 119.926 39.5469 119.926 39.6836C119.926 39.8932 119.907 40.0983 119.871 40.2988C119.844 40.4993 119.812 40.6999 119.775 40.9004C119.739 41.1738 119.702 41.4473 119.666 41.7207C119.639 41.9941 119.625 42.2676 119.625 42.541C119.625 42.6777 119.629 42.8327 119.639 43.0059C119.657 43.1699 119.693 43.3294 119.748 43.4844C119.803 43.6393 119.88 43.7715 119.98 43.8809C120.081 43.9811 120.222 44.0312 120.404 44.0312C120.641 44.0312 120.828 43.9674 120.965 43.8398C121.111 43.7122 121.215 43.5527 121.279 43.3613C121.352 43.1699 121.398 42.9648 121.416 42.7461C121.434 42.5273 121.443 42.3268 121.443 42.1445C121.443 41.7435 121.416 41.3516 121.361 40.9688C121.307 40.5768 121.256 40.1803 121.211 39.7793C121.202 39.7337 121.197 39.6699 121.197 39.5879C121.197 39.4512 121.22 39.3145 121.266 39.1777C121.311 39.041 121.375 38.918 121.457 38.8086C121.539 38.6992 121.639 38.6126 121.758 38.5488C121.876 38.4759 122.008 38.4395 122.154 38.4395C122.355 38.4395 122.532 38.5124 122.687 38.6582C122.842 38.7949 122.97 38.9772 123.07 39.2051C123.18 39.4238 123.266 39.6745 123.33 39.957C123.403 40.2305 123.458 40.5039 123.494 40.7773C123.54 41.0417 123.567 41.2923 123.576 41.5293C123.594 41.7663 123.603 41.9531 123.603 42.0898ZM127.035 46.3965C126.57 46.3965 126.165 46.2734 125.818 46.0273C125.472 45.7812 125.18 45.4668 124.943 45.084C124.706 44.7012 124.529 44.2773 124.41 43.8125C124.292 43.3385 124.232 42.8737 124.232 42.418C124.232 41.9349 124.292 41.4382 124.41 40.9277C124.529 40.4082 124.711 39.9388 124.957 39.5195C125.203 39.0911 125.517 38.7448 125.9 38.4805C126.283 38.207 126.739 38.0703 127.267 38.0703C127.778 38.0703 128.211 38.2116 128.566 38.4941C128.931 38.7676 129.223 39.1139 129.441 39.5332C129.66 39.9434 129.815 40.3945 129.906 40.8867C129.997 41.3789 130.029 41.8438 130.002 42.2812C129.975 42.7643 129.897 43.252 129.769 43.7441C129.651 44.2363 129.473 44.6784 129.236 45.0703C128.999 45.4622 128.698 45.7812 128.334 46.0273C127.969 46.2734 127.536 46.3965 127.035 46.3965ZM127.172 40.2168C127.035 40.2168 126.912 40.2897 126.803 40.4355C126.702 40.5814 126.616 40.7591 126.543 40.9688C126.479 41.1784 126.429 41.4017 126.392 41.6387C126.356 41.8665 126.338 42.0671 126.338 42.2402C126.338 42.459 126.356 42.696 126.392 42.9512C126.438 43.2064 126.497 43.4434 126.57 43.6621C126.643 43.8717 126.73 44.0495 126.83 44.1953C126.939 44.332 127.062 44.4004 127.199 44.4004C127.345 44.4004 127.468 44.332 127.568 44.1953C127.678 44.0586 127.764 43.8854 127.828 43.6758C127.892 43.4661 127.937 43.2383 127.965 42.9922C127.992 42.737 128.006 42.5 128.006 42.2812C128.006 42.0807 127.988 41.862 127.951 41.625C127.915 41.3789 127.86 41.151 127.787 40.9414C127.723 40.7318 127.637 40.5586 127.527 40.4219C127.427 40.2852 127.309 40.2168 127.172 40.2168ZM136.551 37.7148C136.551 38.207 136.528 38.7038 136.482 39.2051C136.446 39.6973 136.428 40.194 136.428 40.6953C136.428 41.3424 136.446 41.9896 136.482 42.6367C136.528 43.2839 136.551 43.9355 136.551 44.5918C136.551 44.7559 136.542 44.9427 136.523 45.1523C136.505 45.3529 136.46 45.5397 136.387 45.7129C136.323 45.8861 136.223 46.0319 136.086 46.1504C135.949 46.2689 135.767 46.3281 135.539 46.3281C135.32 46.3281 135.129 46.2188 134.965 46C134.81 45.7904 134.678 45.5215 134.568 45.1934C134.468 44.8561 134.381 44.4824 134.309 44.0723C134.245 43.6621 134.195 43.2656 134.158 42.8828C134.131 42.4909 134.108 42.1354 134.09 41.8164C134.081 41.4883 134.076 41.2467 134.076 41.0918C134.076 40.9186 134.081 40.668 134.09 40.3398C134.108 40.0117 134.14 39.6562 134.185 39.2734C134.231 38.8906 134.29 38.5033 134.363 38.1113C134.445 37.7103 134.55 37.3503 134.678 37.0312C134.805 36.7031 134.956 36.4388 135.129 36.2383C135.311 36.0286 135.525 35.9238 135.771 35.9238C135.972 35.9238 136.122 35.9922 136.223 36.1289C136.332 36.2565 136.409 36.416 136.455 36.6074C136.501 36.7897 136.528 36.9857 136.537 37.1953C136.546 37.3958 136.551 37.569 136.551 37.7148ZM140.187 46.3965C139.723 46.3965 139.317 46.2734 138.971 46.0273C138.624 45.7812 138.333 45.4668 138.096 45.084C137.859 44.7012 137.681 44.2773 137.562 43.8125C137.444 43.3385 137.385 42.8737 137.385 42.418C137.385 41.9349 137.444 41.4382 137.562 40.9277C137.681 40.4082 137.863 39.9388 138.109 39.5195C138.355 39.0911 138.67 38.7448 139.053 38.4805C139.435 38.207 139.891 38.0703 140.42 38.0703C140.93 38.0703 141.363 38.2116 141.719 38.4941C142.083 38.7676 142.375 39.1139 142.594 39.5332C142.812 39.9434 142.967 40.3945 143.059 40.8867C143.15 41.3789 143.182 41.8438 143.154 42.2812C143.127 42.7643 143.049 43.252 142.922 43.7441C142.803 44.2363 142.626 44.6784 142.389 45.0703C142.152 45.4622 141.851 45.7812 141.486 46.0273C141.122 46.2734 140.689 46.3965 140.187 46.3965ZM140.324 40.2168C140.187 40.2168 140.064 40.2897 139.955 40.4355C139.855 40.5814 139.768 40.7591 139.695 40.9688C139.631 41.1784 139.581 41.4017 139.545 41.6387C139.508 41.8665 139.49 42.0671 139.49 42.2402C139.49 42.459 139.508 42.696 139.545 42.9512C139.59 43.2064 139.65 43.4434 139.723 43.6621C139.795 43.8717 139.882 44.0495 139.982 44.1953C140.092 44.332 140.215 44.4004 140.351 44.4004C140.497 44.4004 140.62 44.332 140.721 44.1953C140.83 44.0586 140.917 43.8854 140.98 43.6758C141.044 43.4661 141.09 43.2383 141.117 42.9922C141.144 42.737 141.158 42.5 141.158 42.2812C141.158 42.0807 141.14 41.862 141.103 41.625C141.067 41.3789 141.012 41.151 140.939 40.9414C140.876 40.7318 140.789 40.5586 140.68 40.4219C140.579 40.2852 140.461 40.2168 140.324 40.2168ZM150.045 41.3379C150.045 41.8027 150.036 42.2676 150.017 42.7324C150.008 43.1973 149.986 43.6621 149.949 44.127C149.922 44.528 149.885 44.9564 149.84 45.4121C149.794 45.8678 149.721 46.319 149.621 46.7656C149.521 47.2214 149.389 47.6543 149.225 48.0645C149.06 48.4837 148.842 48.8529 148.568 49.1719C148.304 49.4909 147.98 49.7461 147.598 49.9375C147.215 50.1289 146.759 50.2246 146.23 50.2246C145.984 50.2246 145.706 50.1836 145.396 50.1016C145.096 50.0286 144.809 49.9193 144.535 49.7734C144.271 49.6276 144.043 49.4453 143.851 49.2266C143.669 49.0169 143.578 48.7708 143.578 48.4883C143.578 48.2786 143.651 48.0827 143.797 47.9004C143.952 47.7272 144.148 47.6406 144.385 47.6406C144.531 47.6406 144.667 47.6634 144.795 47.709C144.932 47.7637 145.064 47.8229 145.191 47.8867C145.328 47.9505 145.456 48.0052 145.574 48.0508C145.702 48.1055 145.829 48.1328 145.957 48.1328C146.294 48.1328 146.577 48.0462 146.805 47.873C147.032 47.709 147.215 47.4948 147.351 47.2305C147.488 46.9753 147.588 46.6927 147.652 46.3828C147.725 46.082 147.775 45.7949 147.803 45.5215C147.62 45.7311 147.406 45.877 147.16 45.959C146.923 46.0319 146.672 46.0684 146.408 46.0684C145.925 46.0684 145.515 45.9863 145.178 45.8223C144.84 45.6491 144.567 45.4167 144.357 45.125C144.148 44.8242 143.993 44.4779 143.892 44.0859C143.792 43.694 143.742 43.2702 143.742 42.8145C143.742 42.5319 143.769 42.2129 143.824 41.8574C143.888 41.502 143.979 41.1419 144.098 40.7773C144.216 40.4128 144.362 40.0573 144.535 39.7109C144.717 39.3646 144.927 39.0592 145.164 38.7949C145.401 38.5306 145.665 38.3164 145.957 38.1523C146.258 37.9883 146.586 37.9062 146.941 37.9062C147.288 37.9062 147.593 38.0065 147.857 38.207C148.131 38.4076 148.29 38.6901 148.336 39.0547C148.436 38.8633 148.568 38.6764 148.732 38.4941C148.896 38.3027 149.097 38.207 149.334 38.207C149.461 38.207 149.566 38.2708 149.648 38.3984C149.739 38.526 149.808 38.6947 149.853 38.9043C149.908 39.1048 149.949 39.3281 149.976 39.5742C150.004 39.8112 150.022 40.0482 150.031 40.2852C150.04 40.513 150.045 40.7227 150.045 40.9141C150.045 41.1055 150.045 41.2467 150.045 41.3379ZM147.967 42.2266C147.967 42.0898 147.944 41.9121 147.898 41.6934C147.862 41.4746 147.803 41.265 147.721 41.0645C147.648 40.8639 147.552 40.6908 147.434 40.5449C147.315 40.3991 147.174 40.3262 147.01 40.3262C146.8 40.3262 146.613 40.3991 146.449 40.5449C146.294 40.6908 146.162 40.8685 146.053 41.0781C145.943 41.2786 145.857 41.4974 145.793 41.7344C145.738 41.9622 145.711 42.1582 145.711 42.3223C145.711 42.4408 145.72 42.6003 145.738 42.8008C145.756 43.0013 145.793 43.1973 145.848 43.3887C145.911 43.5801 145.993 43.7441 146.094 43.8809C146.194 44.0176 146.326 44.0859 146.49 44.0859C146.736 44.0859 146.95 44.0267 147.133 43.9082C147.315 43.7897 147.465 43.6393 147.584 43.457C147.711 43.2747 147.807 43.0742 147.871 42.8555C147.935 42.6367 147.967 42.4271 147.967 42.2266ZM153.613 46.3965C153.148 46.3965 152.743 46.2734 152.396 46.0273C152.05 45.7812 151.758 45.4668 151.521 45.084C151.284 44.7012 151.107 44.2773 150.988 43.8125C150.87 43.3385 150.81 42.8737 150.81 42.418C150.81 41.9349 150.87 41.4382 150.988 40.9277C151.107 40.4082 151.289 39.9388 151.535 39.5195C151.781 39.0911 152.096 38.7448 152.478 38.4805C152.861 38.207 153.317 38.0703 153.846 38.0703C154.356 38.0703 154.789 38.2116 155.144 38.4941C155.509 38.7676 155.801 39.1139 156.019 39.5332C156.238 39.9434 156.393 40.3945 156.484 40.8867C156.575 41.3789 156.607 41.8438 156.58 42.2812C156.553 42.7643 156.475 43.252 156.348 43.7441C156.229 44.2363 156.051 44.6784 155.814 45.0703C155.577 45.4622 155.277 45.7812 154.912 46.0273C154.547 46.2734 154.114 46.3965 153.613 46.3965ZM153.75 40.2168C153.613 40.2168 153.49 40.2897 153.381 40.4355C153.281 40.5814 153.194 40.7591 153.121 40.9688C153.057 41.1784 153.007 41.4017 152.971 41.6387C152.934 41.8665 152.916 42.0671 152.916 42.2402C152.916 42.459 152.934 42.696 152.971 42.9512C153.016 43.2064 153.075 43.4434 153.148 43.6621C153.221 43.8717 153.308 44.0495 153.408 44.1953C153.517 44.332 153.641 44.4004 153.777 44.4004C153.923 44.4004 154.046 44.332 154.146 44.1953C154.256 44.0586 154.342 43.8854 154.406 43.6758C154.47 43.4661 154.516 43.2383 154.543 42.9922C154.57 42.737 154.584 42.5 154.584 42.2812C154.584 42.0807 154.566 41.862 154.529 41.625C154.493 41.3789 154.438 41.151 154.365 40.9414C154.301 40.7318 154.215 40.5586 154.105 40.4219C154.005 40.2852 153.887 40.2168 153.75 40.2168ZM166.383 44.0723C166.383 44.2363 166.374 44.4505 166.355 44.7148C166.346 44.9792 166.31 45.2389 166.246 45.4941C166.182 45.7402 166.082 45.9544 165.945 46.1367C165.809 46.319 165.617 46.4102 165.371 46.4102C165.034 46.4102 164.774 46.3008 164.592 46.082C164.409 45.8633 164.323 45.5898 164.332 45.2617C164.04 45.5169 163.708 45.7174 163.334 45.8633C162.969 46.0091 162.596 46.082 162.213 46.082C161.948 46.082 161.698 46.0182 161.461 45.8906C161.224 45.763 161.014 45.599 160.832 45.3984C160.65 45.1979 160.504 44.9746 160.394 44.7285C160.285 44.4733 160.23 44.2227 160.23 43.9766C160.23 43.5391 160.363 43.1562 160.627 42.8281C160.9 42.5 161.233 42.222 161.625 41.9941C162.017 41.7572 162.432 41.5703 162.869 41.4336C163.316 41.2969 163.712 41.2057 164.059 41.1602C164.059 41.1146 164.059 41.0736 164.059 41.0371C164.068 41.0007 164.072 40.9596 164.072 40.9141C164.072 40.6315 163.995 40.4036 163.84 40.2305C163.685 40.0573 163.466 39.9707 163.184 39.9707C162.956 39.9707 162.76 40.0117 162.596 40.0938C162.432 40.1667 162.277 40.2533 162.131 40.3535C161.985 40.4447 161.839 40.5312 161.693 40.6133C161.547 40.6862 161.383 40.7227 161.201 40.7227C161.001 40.7227 160.827 40.6589 160.682 40.5312C160.545 40.4036 160.476 40.2396 160.476 40.0391C160.476 39.7383 160.563 39.4648 160.736 39.2188C160.919 38.9727 161.142 38.7676 161.406 38.6035C161.68 38.4303 161.971 38.2982 162.281 38.207C162.6 38.1068 162.892 38.0566 163.156 38.0566C163.402 38.0566 163.648 38.0885 163.894 38.1523C164.141 38.207 164.373 38.2982 164.592 38.4258C164.81 38.5443 165.006 38.6947 165.18 38.877C165.362 39.0501 165.508 39.2552 165.617 39.4922C165.781 39.8294 165.913 40.1895 166.014 40.5723C166.114 40.946 166.191 41.3333 166.246 41.7344C166.301 42.1263 166.337 42.5228 166.355 42.9238C166.374 43.3158 166.383 43.6986 166.383 44.0723ZM164.195 43.6348L164.154 42.7051C164.136 42.7051 164.118 42.7051 164.1 42.7051C164.081 42.696 164.063 42.6914 164.045 42.6914C163.926 42.6914 163.776 42.7233 163.594 42.7871C163.42 42.8418 163.252 42.9238 163.088 43.0332C162.924 43.1335 162.782 43.2474 162.664 43.375C162.555 43.5026 162.5 43.6348 162.5 43.7715C162.5 43.8991 162.545 43.9857 162.637 44.0312C162.728 44.0768 162.833 44.0996 162.951 44.0996C163.152 44.0996 163.366 44.0495 163.594 43.9492C163.822 43.8398 164.022 43.735 164.195 43.6348ZM173.465 41.9258C173.465 42.3268 173.419 42.7689 173.328 43.252C173.246 43.7259 173.1 44.168 172.891 44.5781C172.69 44.9883 172.421 45.3301 172.084 45.6035C171.756 45.877 171.341 46.0137 170.84 46.0137C170.712 46.0137 170.58 46.0046 170.443 45.9863C170.307 45.9681 170.174 45.9362 170.047 45.8906C169.928 45.8451 169.819 45.7858 169.719 45.7129C169.618 45.6309 169.541 45.526 169.486 45.3984L169.363 47.3672C169.354 47.5768 169.345 47.8275 169.336 48.1191C169.336 48.4108 169.299 48.6888 169.226 48.9531C169.163 49.2174 169.049 49.4408 168.885 49.623C168.73 49.8145 168.502 49.9102 168.201 49.9102C168.028 49.9102 167.882 49.819 167.764 49.6367C167.645 49.4635 167.549 49.2402 167.476 48.9668C167.413 48.6934 167.363 48.388 167.326 48.0508C167.29 47.7135 167.267 47.39 167.258 47.0801C167.249 46.7702 167.244 46.4876 167.244 46.2324C167.244 45.9772 167.244 45.7904 167.244 45.6719C167.244 45.0612 167.239 44.4551 167.23 43.8535C167.221 43.2428 167.217 42.6322 167.217 42.0215C167.217 41.9121 167.217 41.7435 167.217 41.5156C167.217 41.2786 167.226 41.0234 167.244 40.75C167.262 40.4766 167.29 40.194 167.326 39.9023C167.372 39.6107 167.435 39.3464 167.517 39.1094C167.6 38.8633 167.704 38.6673 167.832 38.5215C167.96 38.3665 168.114 38.2891 168.297 38.2891C168.415 38.2891 168.52 38.3255 168.611 38.3984C168.711 38.4622 168.794 38.5488 168.857 38.6582C168.93 38.7585 168.989 38.8678 169.035 38.9863C169.081 39.1048 169.117 39.2142 169.144 39.3145C169.427 38.9954 169.751 38.7539 170.115 38.5898C170.489 38.4258 170.885 38.3438 171.305 38.3438C171.742 38.3438 172.098 38.4668 172.371 38.7129C172.654 38.959 172.872 39.2643 173.027 39.6289C173.191 39.9935 173.305 40.3854 173.369 40.8047C173.433 41.2148 173.465 41.5885 173.465 41.9258ZM171.51 41.8164C171.51 41.6797 171.496 41.543 171.469 41.4062C171.45 41.2604 171.409 41.1283 171.346 41.0098C171.291 40.8822 171.209 40.7819 171.1 40.709C170.99 40.627 170.853 40.5859 170.689 40.5859C170.471 40.5859 170.238 40.6589 169.992 40.8047C169.755 40.9414 169.577 41.1009 169.459 41.2832C169.413 41.3561 169.386 41.4746 169.377 41.6387C169.368 41.8027 169.363 41.9258 169.363 42.0078C169.363 42.0716 169.363 42.1582 169.363 42.2676C169.372 42.3678 169.381 42.4727 169.391 42.582C169.4 42.6914 169.409 42.7962 169.418 42.8965C169.436 42.9967 169.459 43.0742 169.486 43.1289C169.514 43.2109 169.573 43.2884 169.664 43.3613C169.755 43.4251 169.855 43.4844 169.965 43.5391C170.074 43.5938 170.184 43.6348 170.293 43.6621C170.411 43.6895 170.512 43.7031 170.594 43.7031C170.785 43.7031 170.94 43.6302 171.059 43.4844C171.177 43.3385 171.268 43.1654 171.332 42.9648C171.405 42.7643 171.45 42.5592 171.469 42.3496C171.496 42.1309 171.51 41.9531 171.51 41.8164ZM176.896 46.3965C176.432 46.3965 176.026 46.2734 175.68 46.0273C175.333 45.7812 175.042 45.4668 174.805 45.084C174.568 44.7012 174.39 44.2773 174.271 43.8125C174.153 43.3385 174.094 42.8737 174.094 42.418C174.094 41.9349 174.153 41.4382 174.271 40.9277C174.39 40.4082 174.572 39.9388 174.818 39.5195C175.064 39.0911 175.379 38.7448 175.762 38.4805C176.144 38.207 176.6 38.0703 177.129 38.0703C177.639 38.0703 178.072 38.2116 178.428 38.4941C178.792 38.7676 179.084 39.1139 179.303 39.5332C179.521 39.9434 179.676 40.3945 179.767 40.8867C179.859 41.3789 179.891 41.8438 179.863 42.2812C179.836 42.7643 179.758 43.252 179.631 43.7441C179.512 44.2363 179.335 44.6784 179.098 45.0703C178.861 45.4622 178.56 45.7812 178.195 46.0273C177.831 46.2734 177.398 46.3965 176.896 46.3965ZM177.033 40.2168C176.896 40.2168 176.773 40.2897 176.664 40.4355C176.564 40.5814 176.477 40.7591 176.404 40.9688C176.34 41.1784 176.29 41.4017 176.254 41.6387C176.217 41.8665 176.199 42.0671 176.199 42.2402C176.199 42.459 176.217 42.696 176.254 42.9512C176.299 43.2064 176.359 43.4434 176.432 43.6621C176.504 43.8717 176.591 44.0495 176.691 44.1953C176.801 44.332 176.924 44.4004 177.06 44.4004C177.206 44.4004 177.329 44.332 177.43 44.1953C177.539 44.0586 177.626 43.8854 177.689 43.6758C177.753 43.4661 177.799 43.2383 177.826 42.9922C177.853 42.737 177.867 42.5 177.867 42.2812C177.867 42.0807 177.849 41.862 177.812 41.625C177.776 41.3789 177.721 41.151 177.648 40.9414C177.585 40.7318 177.498 40.5586 177.389 40.4219C177.288 40.2852 177.17 40.2168 177.033 40.2168ZM178.578 35.7871C178.578 35.8874 178.551 35.9876 178.496 36.0879C178.441 36.179 178.373 36.2656 178.291 36.3477C178.218 36.4297 178.136 36.5072 178.045 36.5801C177.954 36.6439 177.872 36.7031 177.799 36.7578C177.735 36.8034 177.662 36.8581 177.58 36.9219C177.507 36.9766 177.425 37.0312 177.334 37.0859C177.252 37.1315 177.165 37.1725 177.074 37.209C176.992 37.2454 176.91 37.2637 176.828 37.2637C176.755 37.2637 176.691 37.2454 176.637 37.209C176.582 37.1634 176.555 37.0996 176.555 37.0176C176.555 36.8809 176.605 36.7168 176.705 36.5254C176.814 36.3249 176.947 36.1335 177.101 35.9512C177.256 35.7598 177.42 35.6003 177.594 35.4727C177.767 35.3359 177.926 35.2676 178.072 35.2676C178.2 35.2676 178.314 35.3223 178.414 35.4316C178.523 35.5319 178.578 35.6504 178.578 35.7871ZM184.566 38.4805C184.566 38.7448 184.475 38.9408 184.293 39.0684C184.12 39.196 183.924 39.319 183.705 39.4375C183.486 39.5469 183.286 39.679 183.103 39.834C182.93 39.9889 182.844 40.2214 182.844 40.5312C182.844 40.6953 182.88 40.8366 182.953 40.9551C183.035 41.0736 183.131 41.1829 183.24 41.2832C183.359 41.3743 183.486 41.4701 183.623 41.5703C183.76 41.6706 183.883 41.7845 183.992 41.9121C184.111 42.0397 184.206 42.1947 184.279 42.377C184.361 42.5592 184.402 42.7826 184.402 43.0469C184.402 43.4297 184.302 43.8079 184.101 44.1816C183.91 44.5462 183.659 44.8743 183.35 45.166C183.049 45.4486 182.707 45.6764 182.324 45.8496C181.941 46.0228 181.563 46.1094 181.189 46.1094C181.034 46.1094 180.879 46.0957 180.725 46.0684C180.57 46.0501 180.428 46.0091 180.301 45.9453C180.182 45.8815 180.082 45.7949 180 45.6855C179.918 45.5671 179.877 45.4167 179.877 45.2344C179.877 44.9792 179.927 44.7832 180.027 44.6465C180.128 44.5007 180.255 44.3867 180.41 44.3047C180.565 44.2227 180.729 44.1589 180.902 44.1133C181.085 44.0677 181.253 44.013 181.408 43.9492C181.563 43.8763 181.691 43.7852 181.791 43.6758C181.891 43.5664 181.941 43.4115 181.941 43.2109C181.941 43.0195 181.864 42.8236 181.709 42.623C181.563 42.4134 181.399 42.1947 181.217 41.9668C181.034 41.7298 180.866 41.4792 180.711 41.2148C180.565 40.9505 180.492 40.6589 180.492 40.3398C180.492 39.9479 180.57 39.5879 180.725 39.2598C180.889 38.9225 181.103 38.6309 181.367 38.3848C181.641 38.1387 181.95 37.9473 182.297 37.8105C182.643 37.6647 183.008 37.5918 183.391 37.5918C183.536 37.5918 183.678 37.6055 183.814 37.6328C183.96 37.6602 184.088 37.7103 184.197 37.7832C184.307 37.847 184.393 37.9382 184.457 38.0566C184.53 38.166 184.566 38.3073 184.566 38.4805ZM71.7323 62.0723C71.7323 62.2363 71.7232 62.4505 71.705 62.7148C71.6959 62.9792 71.6594 63.2389 71.5956 63.4941C71.5318 63.7402 71.4315 63.9544 71.2948 64.1367C71.1581 64.319 70.9667 64.4102 70.7206 64.4102C70.3834 64.4102 70.1236 64.3008 69.9413 64.082C69.759 63.8633 69.6724 63.5898 69.6815 63.2617C69.3899 63.5169 69.0572 63.7174 68.6835 63.8633C68.3189 64.0091 67.9452 64.082 67.5624 64.082C67.2981 64.082 67.0474 64.0182 66.8105 63.8906C66.5735 63.763 66.3638 63.599 66.1815 63.3984C65.9993 63.1979 65.8534 62.9746 65.744 62.7285C65.6347 62.4733 65.58 62.2227 65.58 61.9766C65.58 61.5391 65.7121 61.1562 65.9765 60.8281C66.2499 60.5 66.5826 60.222 66.9745 59.9941C67.3664 59.7572 67.7812 59.5703 68.2187 59.4336C68.6653 59.2969 69.0618 59.2057 69.4081 59.1602C69.4081 59.1146 69.4081 59.0736 69.4081 59.0371C69.4172 59.0007 69.4218 58.9596 69.4218 58.9141C69.4218 58.6315 69.3443 58.4036 69.1894 58.2305C69.0344 58.0573 68.8157 57.9707 68.5331 57.9707C68.3052 57.9707 68.1093 58.0117 67.9452 58.0938C67.7812 58.1667 67.6262 58.2533 67.4804 58.3535C67.3345 58.4447 67.1887 58.5312 67.0429 58.6133C66.897 58.6862 66.733 58.7227 66.5507 58.7227C66.3502 58.7227 66.177 58.6589 66.0312 58.5312C65.8944 58.4036 65.8261 58.2396 65.8261 58.0391C65.8261 57.7383 65.9127 57.4648 66.0858 57.2188C66.2681 56.9727 66.4914 56.7676 66.7558 56.6035C67.0292 56.4303 67.3209 56.2982 67.6308 56.207C67.9498 56.1068 68.2414 56.0566 68.5058 56.0566C68.7519 56.0566 68.998 56.0885 69.244 56.1523C69.4901 56.207 69.7226 56.2982 69.9413 56.4258C70.1601 56.5443 70.356 56.6947 70.5292 56.877C70.7115 57.0501 70.8573 57.2552 70.9667 57.4922C71.1308 57.8294 71.2629 58.1895 71.3632 58.5723C71.4635 58.946 71.5409 59.3333 71.5956 59.7344C71.6503 60.1263 71.6868 60.5228 71.705 60.9238C71.7232 61.3158 71.7323 61.6986 71.7323 62.0723ZM69.5448 61.6348L69.5038 60.7051C69.4856 60.7051 69.4674 60.7051 69.4491 60.7051C69.4309 60.696 69.4127 60.6914 69.3944 60.6914C69.276 60.6914 69.1256 60.7233 68.9433 60.7871C68.7701 60.8418 68.6015 60.9238 68.4374 61.0332C68.2733 61.1335 68.1321 61.2474 68.0136 61.375C67.9042 61.5026 67.8495 61.6348 67.8495 61.7715C67.8495 61.8991 67.8951 61.9857 67.9862 62.0312C68.0774 62.0768 68.1822 62.0996 68.3007 62.0996C68.5012 62.0996 68.7154 62.0495 68.9433 61.9492C69.1711 61.8398 69.3717 61.735 69.5448 61.6348ZM76.5585 56.4805C76.5585 56.7448 76.4674 56.9408 76.2851 57.0684C76.1119 57.196 75.9159 57.319 75.6972 57.4375C75.4784 57.5469 75.2779 57.679 75.0956 57.834C74.9224 57.9889 74.8358 58.2214 74.8358 58.5312C74.8358 58.6953 74.8723 58.8366 74.9452 58.9551C75.0273 59.0736 75.123 59.1829 75.2323 59.2832C75.3508 59.3743 75.4784 59.4701 75.6151 59.5703C75.7519 59.6706 75.8749 59.7845 75.9843 59.9121C76.1028 60.0397 76.1985 60.1947 76.2714 60.377C76.3534 60.5592 76.3944 60.7826 76.3944 61.0469C76.3944 61.4297 76.2942 61.8079 76.0937 62.1816C75.9023 62.5462 75.6516 62.8743 75.3417 63.166C75.0409 63.4486 74.6991 63.6764 74.3163 63.8496C73.9335 64.0228 73.5552 64.1094 73.1815 64.1094C73.0266 64.1094 72.8717 64.0957 72.7167 64.0684C72.5618 64.0501 72.4205 64.0091 72.2929 63.9453C72.1744 63.8815 72.0741 63.7949 71.9921 63.6855C71.9101 63.5671 71.869 63.4167 71.869 63.2344C71.869 62.9792 71.9192 62.7832 72.0194 62.6465C72.1197 62.5007 72.2473 62.3867 72.4023 62.3047C72.5572 62.2227 72.7213 62.1589 72.8944 62.1133C73.0767 62.0677 73.2454 62.013 73.4003 61.9492C73.5552 61.8763 73.6829 61.7852 73.7831 61.6758C73.8834 61.5664 73.9335 61.4115 73.9335 61.2109C73.9335 61.0195 73.856 60.8236 73.7011 60.623C73.5552 60.4134 73.3912 60.1947 73.2089 59.9668C73.0266 59.7298 72.858 59.4792 72.703 59.2148C72.5572 58.9505 72.4843 58.6589 72.4843 58.3398C72.4843 57.9479 72.5618 57.5879 72.7167 57.2598C72.8808 56.9225 73.095 56.6309 73.3593 56.3848C73.6327 56.1387 73.9426 55.9473 74.289 55.8105C74.6353 55.6647 74.9999 55.5918 75.3827 55.5918C75.5286 55.5918 75.6698 55.6055 75.8065 55.6328C75.9524 55.6602 76.08 55.7103 76.1894 55.7832C76.2987 55.847 76.3853 55.9382 76.4491 56.0566C76.522 56.166 76.5585 56.3073 76.5585 56.4805ZM85.1444 58.8867C85.0168 58.8958 84.9075 58.8867 84.8163 58.8594C84.7252 58.8229 84.634 58.7865 84.5429 58.75C84.4608 58.7135 84.3788 58.6816 84.2968 58.6543C84.2148 58.6178 84.1236 58.6042 84.0233 58.6133C83.8411 58.6224 83.677 58.6725 83.5312 58.7637C83.3944 58.8548 83.2668 58.9688 83.1483 59.1055C83.039 59.2422 82.9433 59.3971 82.8612 59.5703C82.7792 59.7344 82.7154 59.8984 82.6698 60.0625C82.6425 60.1719 82.6197 60.3405 82.6015 60.5684C82.5924 60.7871 82.5878 61.0241 82.5878 61.2793C82.5787 61.5436 82.5741 61.7943 82.5741 62.0312C82.5741 62.2682 82.565 62.4551 82.5468 62.5918C82.5377 62.7376 82.5149 62.9108 82.4784 63.1113C82.442 63.3027 82.3827 63.485 82.3007 63.6582C82.2278 63.8314 82.1275 63.9772 81.9999 64.0957C81.8723 64.2142 81.7082 64.2734 81.5077 64.2734C81.3528 64.2734 81.2161 64.2279 81.0976 64.1367C80.9882 64.0456 80.8925 63.9271 80.8105 63.7812C80.7375 63.6263 80.6737 63.4486 80.619 63.248C80.5735 63.0475 80.537 62.8424 80.5097 62.6328C80.4823 62.4141 80.4595 62.1953 80.4413 61.9766C80.4322 61.7578 80.4231 61.5527 80.414 61.3613C80.414 61.1608 80.414 60.9785 80.414 60.8145C80.4231 60.6504 80.4276 60.5182 80.4276 60.418C80.4185 60.099 80.4003 59.7799 80.373 59.4609C80.3547 59.1328 80.3456 58.8092 80.3456 58.4902C80.3456 58.2897 80.3547 58.0664 80.373 57.8203C80.3912 57.5742 80.4413 57.3464 80.5233 57.1367C80.6054 56.918 80.7239 56.7357 80.8788 56.5898C81.0429 56.444 81.2662 56.3711 81.5487 56.3711C81.7037 56.3711 81.8358 56.4212 81.9452 56.5215C82.0546 56.6217 82.1412 56.7448 82.205 56.8906C82.2779 57.0365 82.3326 57.1914 82.369 57.3555C82.4055 57.5195 82.4283 57.6699 82.4374 57.8066C82.6562 57.4512 82.9023 57.1641 83.1757 56.9453C83.4491 56.7174 83.8046 56.5944 84.2421 56.5762C84.4608 56.5671 84.675 56.5898 84.8847 56.6445C85.1034 56.6901 85.2994 56.7721 85.4726 56.8906C85.6549 57 85.8007 57.1458 85.9101 57.3281C86.0286 57.5104 86.0924 57.7246 86.1015 57.9707C86.1197 58.2624 86.0331 58.4857 85.8417 58.6406C85.6503 58.7956 85.4179 58.8776 85.1444 58.8867ZM92.0351 61.5664C92.0351 61.8763 91.9348 62.1816 91.7343 62.4824C91.5429 62.7741 91.2968 63.0384 90.996 63.2754C90.7043 63.5033 90.3899 63.6901 90.0526 63.8359C89.7154 63.9727 89.4055 64.041 89.123 64.041C88.6399 64.041 88.2069 63.9225 87.8241 63.6855C87.4504 63.4395 87.136 63.1296 86.8808 62.7559C86.6256 62.3822 86.4296 61.972 86.2929 61.5254C86.1653 61.0697 86.1015 60.6276 86.1015 60.1992C86.1015 59.7435 86.1653 59.2559 86.2929 58.7363C86.4205 58.2168 86.6119 57.7383 86.8671 57.3008C87.1314 56.8633 87.4595 56.4987 87.8515 56.207C88.2525 55.9154 88.7265 55.7695 89.2733 55.7695C89.5832 55.7695 89.8795 55.8242 90.162 55.9336C90.4446 56.0339 90.6907 56.1797 90.9003 56.3711C91.1099 56.5625 91.2786 56.7904 91.4062 57.0547C91.5338 57.319 91.5976 57.6152 91.5976 57.9434C91.5976 58.3717 91.5064 58.7728 91.3241 59.1465C91.1418 59.5202 90.9003 59.8438 90.5995 60.1172C90.2987 60.3906 89.9524 60.6139 89.5605 60.7871C89.1685 60.9512 88.7675 61.0423 88.3573 61.0605C88.3938 61.3249 88.4986 61.5163 88.6718 61.6348C88.8541 61.7533 89.0683 61.8125 89.3144 61.8125C89.4967 61.8125 89.6744 61.7669 89.8476 61.6758C90.0207 61.5846 90.1894 61.4844 90.3534 61.375C90.5175 61.2565 90.677 61.1517 90.8319 61.0605C90.996 60.9694 91.1601 60.9238 91.3241 60.9238C91.5064 60.9238 91.6705 60.9831 91.8163 61.1016C91.9621 61.2201 92.0351 61.375 92.0351 61.5664ZM89.8202 58.2168C89.8202 58.0983 89.7883 57.9753 89.7245 57.8477C89.6607 57.7201 89.5605 57.6562 89.4237 57.6562C89.2232 57.6562 89.0546 57.7109 88.9179 57.8203C88.7812 57.9206 88.6672 58.0527 88.5761 58.2168C88.4849 58.3717 88.412 58.5404 88.3573 58.7227C88.3118 58.9049 88.2844 59.0736 88.2753 59.2285C88.4029 59.2012 88.5533 59.1647 88.7265 59.1191C88.9088 59.0736 89.0774 59.0143 89.2323 58.9414C89.3964 58.8594 89.5331 58.7591 89.6425 58.6406C89.761 58.5221 89.8202 58.3809 89.8202 58.2168ZM98.3105 55.8242C98.3105 55.9974 98.2922 56.166 98.2558 56.3301C98.2284 56.485 98.1737 56.6217 98.0917 56.7402C98.0097 56.8587 97.9003 56.9544 97.7636 57.0273C97.6269 57.0911 97.4582 57.123 97.2577 57.123C97.0299 57.123 96.8612 57.0775 96.7519 56.9863C96.6425 56.8952 96.565 56.7858 96.5194 56.6582C96.483 56.5215 96.4648 56.3757 96.4648 56.2207C96.4648 56.0658 96.4556 55.9245 96.4374 55.7969C96.4283 55.6602 96.3964 55.5462 96.3417 55.4551C96.287 55.3639 96.1868 55.3184 96.0409 55.3184C95.9042 55.3184 95.7903 55.4232 95.6991 55.6328C95.6171 55.8424 95.5487 56.084 95.494 56.3574C95.4394 56.6309 95.4029 56.8997 95.3847 57.1641C95.3664 57.4193 95.3573 57.5924 95.3573 57.6836C95.4758 57.6654 95.5898 57.6517 95.6991 57.6426C95.8085 57.6243 95.927 57.6152 96.0546 57.6152C96.1822 57.6152 96.3144 57.6289 96.4511 57.6562C96.5878 57.6836 96.7154 57.7292 96.8339 57.793C96.9524 57.8477 97.0481 57.9297 97.121 58.0391C97.1939 58.1393 97.2304 58.2669 97.2304 58.4219C97.2304 58.5859 97.1575 58.7318 97.0116 58.8594C96.8749 58.987 96.7063 59.0964 96.5058 59.1875C96.3144 59.2695 96.1184 59.3379 95.9179 59.3926C95.7174 59.4473 95.5579 59.4837 95.4394 59.502C95.4667 60.1309 95.4804 60.7643 95.4804 61.4023C95.4804 62.0039 95.4667 62.5964 95.4394 63.1797C95.4211 63.4622 95.3209 63.6947 95.1386 63.877C94.9654 64.0592 94.7375 64.1504 94.455 64.1504C94.3 64.1504 94.1679 64.1185 94.0585 64.0547C93.9491 64 93.858 63.9225 93.7851 63.8223C93.7121 63.722 93.6529 63.6081 93.6073 63.4805C93.5709 63.3529 93.5481 63.2207 93.539 63.084C93.4934 62.5371 93.4569 61.9902 93.4296 61.4434C93.4023 60.8874 93.3931 60.3314 93.4023 59.7754C93.3385 59.7845 93.2746 59.7891 93.2108 59.7891C93.1562 59.7891 93.0969 59.7891 93.0331 59.7891C92.9237 59.7891 92.7916 59.7754 92.6366 59.748C92.4817 59.7207 92.3313 59.6751 92.1855 59.6113C92.0487 59.5384 91.9302 59.4518 91.83 59.3516C91.7297 59.2513 91.6796 59.1237 91.6796 58.9688C91.6796 58.7682 91.748 58.5996 91.8847 58.4629C92.0123 58.3262 92.1672 58.2168 92.3495 58.1348C92.5409 58.0436 92.7369 57.9798 92.9374 57.9434C93.147 57.9069 93.3293 57.8796 93.4843 57.8613V57.6426C93.4843 57.196 93.5253 56.7174 93.6073 56.207C93.6894 55.6966 93.8352 55.2227 94.0448 54.7852C94.2545 54.3477 94.5416 53.9876 94.9062 53.7051C95.2707 53.4134 95.7356 53.2676 96.3007 53.2676C96.6562 53.2676 96.9615 53.3451 97.2167 53.5C97.4719 53.6458 97.6815 53.8418 97.8456 54.0879C98.0097 54.3249 98.1282 54.5983 98.2011 54.9082C98.274 55.209 98.3105 55.5143 98.3105 55.8242ZM103.533 61.5664C103.533 61.8763 103.433 62.1816 103.232 62.4824C103.041 62.7741 102.795 63.0384 102.494 63.2754C102.202 63.5033 101.888 63.6901 101.551 63.8359C101.213 63.9727 100.904 64.041 100.621 64.041C100.138 64.041 99.705 63.9225 99.3222 63.6855C98.9485 63.4395 98.634 63.1296 98.3788 62.7559C98.1236 62.3822 97.9276 61.972 97.7909 61.5254C97.6633 61.0697 97.5995 60.6276 97.5995 60.1992C97.5995 59.7435 97.6633 59.2559 97.7909 58.7363C97.9185 58.2168 98.1099 57.7383 98.3651 57.3008C98.6295 56.8633 98.9576 56.4987 99.3495 56.207C99.7506 55.9154 100.225 55.7695 100.771 55.7695C101.081 55.7695 101.378 55.8242 101.66 55.9336C101.943 56.0339 102.189 56.1797 102.398 56.3711C102.608 56.5625 102.777 56.7904 102.904 57.0547C103.032 57.319 103.096 57.6152 103.096 57.9434C103.096 58.3717 103.004 58.7728 102.822 59.1465C102.64 59.5202 102.398 59.8438 102.098 60.1172C101.797 60.3906 101.45 60.6139 101.059 60.7871C100.667 60.9512 100.266 61.0423 99.8554 61.0605C99.8918 61.3249 99.9967 61.5163 100.17 61.6348C100.352 61.7533 100.566 61.8125 100.812 61.8125C100.995 61.8125 101.172 61.7669 101.346 61.6758C101.519 61.5846 101.687 61.4844 101.851 61.375C102.016 61.2565 102.175 61.1517 102.33 61.0605C102.494 60.9694 102.658 60.9238 102.822 60.9238C103.004 60.9238 103.169 60.9831 103.314 61.1016C103.46 61.2201 103.533 61.375 103.533 61.5664ZM101.318 58.2168C101.318 58.0983 101.286 57.9753 101.223 57.8477C101.159 57.7201 101.059 57.6562 100.922 57.6562C100.721 57.6562 100.553 57.7109 100.416 57.8203C100.279 57.9206 100.165 58.0527 100.074 58.2168C99.983 58.3717 99.9101 58.5404 99.8554 58.7227C99.8098 58.9049 99.7825 59.0736 99.7733 59.2285C99.901 59.2012 100.051 59.1647 100.225 59.1191C100.407 59.0736 100.575 59.0143 100.73 58.9414C100.894 58.8594 101.031 58.7591 101.141 58.6406C101.259 58.5221 101.318 58.3809 101.318 58.2168ZM106.336 54.457C106.336 54.5846 106.299 54.6986 106.226 54.7988C106.163 54.8991 106.076 54.9902 105.967 55.0723C105.857 55.1452 105.739 55.2044 105.611 55.25C105.484 55.2865 105.365 55.3047 105.256 55.3047C105.073 55.3047 104.914 55.2591 104.777 55.168C104.641 55.0768 104.572 54.9355 104.572 54.7441C104.572 54.6074 104.604 54.4889 104.668 54.3887C104.741 54.2793 104.827 54.1927 104.928 54.1289C105.028 54.056 105.142 54.0013 105.269 53.9648C105.397 53.9284 105.52 53.9102 105.639 53.9102C105.812 53.9102 105.971 53.9512 106.117 54.0332C106.263 54.1152 106.336 54.2565 106.336 54.457ZM106.445 59.1055C106.445 59.2331 106.445 59.3698 106.445 59.5156C106.445 59.6523 106.441 59.7845 106.432 59.9121C106.422 60.0671 106.418 60.2767 106.418 60.541C106.418 60.7962 106.409 61.0742 106.391 61.375C106.372 61.6758 106.34 61.9811 106.295 62.291C106.258 62.6009 106.195 62.8835 106.103 63.1387C106.012 63.3939 105.889 63.6035 105.734 63.7676C105.588 63.9225 105.402 64.0046 105.174 64.0137C105.001 64.0228 104.855 63.9544 104.736 63.8086C104.618 63.6628 104.517 63.4759 104.435 63.248C104.363 63.0111 104.308 62.7513 104.271 62.4688C104.235 62.1771 104.208 61.8991 104.189 61.6348C104.171 61.3613 104.162 61.1107 104.162 60.8828C104.162 60.6549 104.162 60.4863 104.162 60.377C104.162 60.2311 104.162 60.026 104.162 59.7617C104.162 59.4883 104.171 59.1966 104.189 58.8867C104.208 58.5768 104.239 58.2624 104.285 57.9434C104.34 57.6243 104.413 57.3327 104.504 57.0684C104.604 56.804 104.732 56.5898 104.887 56.4258C105.042 56.2617 105.238 56.1797 105.475 56.1797C105.721 56.1797 105.907 56.3027 106.035 56.5488C106.163 56.7949 106.258 57.082 106.322 57.4102C106.386 57.7383 106.422 58.0664 106.432 58.3945C106.441 58.7135 106.445 58.9505 106.445 59.1055ZM111.668 66.0098C111.668 66.2741 111.604 66.5202 111.476 66.748C111.349 66.9759 111.185 67.1764 110.984 67.3496C110.784 67.5228 110.556 67.6595 110.301 67.7598C110.045 67.86 109.795 67.9102 109.549 67.9102C109.366 67.9102 109.18 67.8919 108.988 67.8555C108.806 67.8281 108.633 67.7734 108.469 67.6914C108.314 67.6094 108.172 67.5046 108.045 67.377C107.917 67.2493 107.822 67.0898 107.758 66.8984C107.73 66.8438 107.717 66.7845 107.717 66.7207C107.717 66.5749 107.771 66.4518 107.881 66.3516C107.999 66.2513 108.122 66.2012 108.25 66.2012C108.368 66.2012 108.464 66.2331 108.537 66.2969C108.619 66.3698 108.706 66.4473 108.797 66.5293C108.888 66.6113 108.997 66.6842 109.125 66.748C109.253 66.821 109.426 66.8574 109.644 66.8574C109.827 66.8574 110 66.7982 110.164 66.6797C110.328 66.5612 110.41 66.4017 110.41 66.2012C110.41 66.0645 110.36 65.9505 110.26 65.8594C110.169 65.7682 110.059 65.6862 109.932 65.6133C109.804 65.5404 109.676 65.4674 109.549 65.3945C109.421 65.3307 109.325 65.2533 109.262 65.1621C109.189 65.0618 109.152 64.916 109.152 64.7246C109.152 64.5332 109.152 64.3737 109.152 64.2461V64.0684C108.779 63.9863 108.464 63.8223 108.209 63.5762C107.954 63.321 107.749 63.0247 107.594 62.6875C107.439 62.3503 107.325 61.9902 107.252 61.6074C107.179 61.2246 107.142 60.86 107.142 60.5137C107.142 60.2129 107.17 59.8939 107.225 59.5566C107.279 59.2194 107.361 58.8867 107.471 58.5586C107.58 58.2305 107.721 57.916 107.894 57.6152C108.068 57.3145 108.268 57.0501 108.496 56.8223C108.733 56.5944 108.997 56.4121 109.289 56.2754C109.59 56.1387 109.922 56.0703 110.287 56.0703C110.615 56.0703 110.902 56.1432 111.148 56.2891C111.394 56.4349 111.595 56.6263 111.75 56.8633C111.914 57.1003 112.037 57.3646 112.119 57.6562C112.201 57.9479 112.242 58.2396 112.242 58.5312C112.242 58.6042 112.238 58.6908 112.228 58.791C112.228 58.8913 112.215 58.9779 112.187 59.0508C112.114 59.2331 111.996 59.3926 111.832 59.5293C111.668 59.6569 111.481 59.7207 111.271 59.7207C110.961 59.7207 110.747 59.5658 110.629 59.2559C110.601 59.1738 110.588 59.069 110.588 58.9414C110.597 58.8047 110.592 58.6771 110.574 58.5586C110.565 58.431 110.533 58.3216 110.478 58.2305C110.424 58.1393 110.328 58.0938 110.191 58.0938C110.027 58.0938 109.872 58.194 109.726 58.3945C109.581 58.5859 109.453 58.8184 109.344 59.0918C109.234 59.3652 109.148 59.6432 109.084 59.9258C109.02 60.1992 108.988 60.418 108.988 60.582C108.988 60.7005 108.997 60.86 109.016 61.0605C109.043 61.252 109.084 61.4434 109.139 61.6348C109.202 61.8262 109.284 61.9902 109.385 62.127C109.494 62.2637 109.631 62.332 109.795 62.332C109.959 62.332 110.109 62.2819 110.246 62.1816C110.383 62.0814 110.515 61.972 110.642 61.8535C110.77 61.7259 110.898 61.612 111.025 61.5117C111.153 61.4115 111.294 61.3613 111.449 61.3613C111.641 61.3613 111.795 61.4342 111.914 61.5801C112.042 61.7259 112.105 61.8945 112.105 62.0859C112.105 62.3229 112.051 62.5508 111.941 62.7695C111.832 62.9792 111.691 63.1706 111.517 63.3438C111.344 63.5169 111.144 63.6673 110.916 63.7949C110.697 63.9225 110.474 64.0137 110.246 64.0684V64.1504C110.246 64.2051 110.241 64.2643 110.232 64.3281C110.232 64.401 110.219 64.4603 110.191 64.5059C110.337 64.5605 110.497 64.6335 110.67 64.7246C110.843 64.8249 111.003 64.9388 111.148 65.0664C111.294 65.2031 111.417 65.349 111.517 65.5039C111.618 65.668 111.668 65.8366 111.668 66.0098ZM115.605 64.3965C115.141 64.3965 114.735 64.2734 114.389 64.0273C114.042 63.7812 113.751 63.4668 113.514 63.084C113.277 62.7012 113.099 62.2773 112.98 61.8125C112.862 61.3385 112.803 60.8737 112.803 60.418C112.803 59.9349 112.862 59.4382 112.98 58.9277C113.099 58.4082 113.281 57.9388 113.527 57.5195C113.773 57.0911 114.088 56.7448 114.471 56.4805C114.853 56.207 115.309 56.0703 115.838 56.0703C116.348 56.0703 116.781 56.2116 117.137 56.4941C117.501 56.7676 117.793 57.1139 118.012 57.5332C118.23 57.9434 118.385 58.3945 118.476 58.8867C118.568 59.3789 118.6 59.8438 118.572 60.2812C118.545 60.7643 118.467 61.252 118.34 61.7441C118.221 62.2363 118.044 62.6784 117.807 63.0703C117.57 63.4622 117.269 63.7812 116.904 64.0273C116.54 64.2734 116.107 64.3965 115.605 64.3965ZM115.742 58.2168C115.605 58.2168 115.482 58.2897 115.373 58.4355C115.273 58.5814 115.186 58.7591 115.113 58.9688C115.049 59.1784 114.999 59.4017 114.963 59.6387C114.926 59.8665 114.908 60.0671 114.908 60.2402C114.908 60.459 114.926 60.696 114.963 60.9512C115.008 61.2064 115.068 61.4434 115.141 61.6621C115.213 61.8717 115.3 62.0495 115.4 62.1953C115.51 62.332 115.633 62.4004 115.769 62.4004C115.915 62.4004 116.038 62.332 116.139 62.1953C116.248 62.0586 116.335 61.8854 116.398 61.6758C116.462 61.4661 116.508 61.2383 116.535 60.9922C116.562 60.737 116.576 60.5 116.576 60.2812C116.576 60.0807 116.558 59.862 116.521 59.625C116.485 59.3789 116.43 59.151 116.357 58.9414C116.294 58.7318 116.207 58.5586 116.098 58.4219C115.997 58.2852 115.879 58.2168 115.742 58.2168ZM118.422 53.8145C118.422 53.9512 118.376 54.097 118.285 54.252C118.194 54.3978 118.08 54.5345 117.943 54.6621C117.807 54.7806 117.661 54.8809 117.506 54.9629C117.351 55.0358 117.205 55.0723 117.068 55.0723C116.932 55.0723 116.795 55.0495 116.658 55.0039C116.531 54.9492 116.398 54.89 116.262 54.8262C116.134 54.7624 116.006 54.7077 115.879 54.6621C115.751 54.6074 115.624 54.5801 115.496 54.5801C115.396 54.5801 115.295 54.612 115.195 54.6758C115.095 54.7305 114.99 54.7943 114.881 54.8672C114.771 54.931 114.657 54.9902 114.539 55.0449C114.43 55.0996 114.32 55.127 114.211 55.127C114.065 55.127 113.947 55.0677 113.855 54.9492C113.764 54.8216 113.719 54.694 113.719 54.5664C113.719 54.4115 113.773 54.2611 113.883 54.1152C113.992 53.9694 114.129 53.8418 114.293 53.7324C114.457 53.6139 114.626 53.5228 114.799 53.459C114.981 53.3861 115.141 53.3496 115.277 53.3496C115.432 53.3496 115.564 53.3815 115.674 53.4453C115.792 53.5091 115.902 53.582 116.002 53.6641C116.102 53.7461 116.202 53.819 116.303 53.8828C116.412 53.9466 116.54 53.9785 116.685 53.9785C116.804 53.9785 116.913 53.9466 117.014 53.8828C117.123 53.8099 117.228 53.7324 117.328 53.6504C117.437 53.5592 117.538 53.4818 117.629 53.418C117.729 53.3451 117.834 53.3086 117.943 53.3086C118.071 53.3086 118.18 53.3633 118.271 53.4727C118.372 53.582 118.422 53.696 118.422 53.8145ZM124.998 61.5664C124.998 61.8763 124.898 62.1816 124.697 62.4824C124.506 62.7741 124.26 63.0384 123.959 63.2754C123.667 63.5033 123.353 63.6901 123.016 63.8359C122.678 63.9727 122.368 64.041 122.086 64.041C121.603 64.041 121.17 63.9225 120.787 63.6855C120.413 63.4395 120.099 63.1296 119.844 62.7559C119.588 62.3822 119.392 61.972 119.256 61.5254C119.128 61.0697 119.064 60.6276 119.064 60.1992C119.064 59.7435 119.128 59.2559 119.256 58.7363C119.383 58.2168 119.575 57.7383 119.83 57.3008C120.094 56.8633 120.422 56.4987 120.814 56.207C121.215 55.9154 121.689 55.7695 122.236 55.7695C122.546 55.7695 122.842 55.8242 123.125 55.9336C123.407 56.0339 123.654 56.1797 123.863 56.3711C124.073 56.5625 124.241 56.7904 124.369 57.0547C124.497 57.319 124.56 57.6152 124.56 57.9434C124.56 58.3717 124.469 58.7728 124.287 59.1465C124.105 59.5202 123.863 59.8438 123.562 60.1172C123.262 60.3906 122.915 60.6139 122.523 60.7871C122.131 60.9512 121.73 61.0423 121.32 61.0605C121.357 61.3249 121.461 61.5163 121.635 61.6348C121.817 61.7533 122.031 61.8125 122.277 61.8125C122.46 61.8125 122.637 61.7669 122.81 61.6758C122.984 61.5846 123.152 61.4844 123.316 61.375C123.48 61.2565 123.64 61.1517 123.795 61.0605C123.959 60.9694 124.123 60.9238 124.287 60.9238C124.469 60.9238 124.633 60.9831 124.779 61.1016C124.925 61.2201 124.998 61.375 124.998 61.5664ZM122.783 58.2168C122.783 58.0983 122.751 57.9753 122.687 57.8477C122.624 57.7201 122.523 57.6562 122.387 57.6562C122.186 57.6562 122.017 57.7109 121.881 57.8203C121.744 57.9206 121.63 58.0527 121.539 58.2168C121.448 58.3717 121.375 58.5404 121.32 58.7227C121.275 58.9049 121.247 59.0736 121.238 59.2285C121.366 59.2012 121.516 59.1647 121.689 59.1191C121.872 59.0736 122.04 59.0143 122.195 58.9414C122.359 58.8594 122.496 58.7591 122.605 58.6406C122.724 58.5221 122.783 58.3809 122.783 58.2168ZM129.551 56.4805C129.551 56.7448 129.46 56.9408 129.277 57.0684C129.104 57.196 128.908 57.319 128.689 57.4375C128.471 57.5469 128.27 57.679 128.088 57.834C127.915 57.9889 127.828 58.2214 127.828 58.5312C127.828 58.6953 127.864 58.8366 127.937 58.9551C128.019 59.0736 128.115 59.1829 128.225 59.2832C128.343 59.3743 128.471 59.4701 128.607 59.5703C128.744 59.6706 128.867 59.7845 128.976 59.9121C129.095 60.0397 129.191 60.1947 129.264 60.377C129.346 60.5592 129.387 60.7826 129.387 61.0469C129.387 61.4297 129.286 61.8079 129.086 62.1816C128.894 62.5462 128.644 62.8743 128.334 63.166C128.033 63.4486 127.691 63.6764 127.309 63.8496C126.926 64.0228 126.547 64.1094 126.174 64.1094C126.019 64.1094 125.864 64.0957 125.709 64.0684C125.554 64.0501 125.413 64.0091 125.285 63.9453C125.167 63.8815 125.066 63.7949 124.984 63.6855C124.902 63.5671 124.861 63.4167 124.861 63.2344C124.861 62.9792 124.911 62.7832 125.012 62.6465C125.112 62.5007 125.239 62.3867 125.394 62.3047C125.549 62.2227 125.713 62.1589 125.887 62.1133C126.069 62.0677 126.238 62.013 126.392 61.9492C126.547 61.8763 126.675 61.7852 126.775 61.6758C126.876 61.5664 126.926 61.4115 126.926 61.2109C126.926 61.0195 126.848 60.8236 126.693 60.623C126.547 60.4134 126.383 60.1947 126.201 59.9668C126.019 59.7298 125.85 59.4792 125.695 59.2148C125.549 58.9505 125.476 58.6589 125.476 58.3398C125.476 57.9479 125.554 57.5879 125.709 57.2598C125.873 56.9225 126.087 56.6309 126.351 56.3848C126.625 56.1387 126.935 55.9473 127.281 55.8105C127.628 55.6647 127.992 55.5918 128.375 55.5918C128.521 55.5918 128.662 55.6055 128.799 55.6328C128.945 55.6602 129.072 55.7103 129.182 55.7832C129.291 55.847 129.378 55.9382 129.441 56.0566C129.514 56.166 129.551 56.3073 129.551 56.4805ZM132.08 63.3438C132.08 63.4622 132.053 63.5716 131.998 63.6719C131.943 63.763 131.87 63.8405 131.779 63.9043C131.697 63.9681 131.601 64.0182 131.492 64.0547C131.392 64.0911 131.287 64.1094 131.178 64.1094C131.041 64.1094 130.891 64.082 130.726 64.0273C130.572 63.9818 130.426 63.9134 130.289 63.8223C130.161 63.7311 130.052 63.6263 129.961 63.5078C129.87 63.3802 129.824 63.2389 129.824 63.084C129.824 62.8379 129.929 62.6556 130.139 62.5371C130.348 62.4095 130.562 62.3457 130.781 62.3457C130.918 62.3457 131.059 62.3685 131.205 62.4141C131.36 62.4596 131.501 62.528 131.629 62.6191C131.766 62.7012 131.875 62.806 131.957 62.9336C132.039 63.0521 132.08 63.1888 132.08 63.3438Z" fill="white"/>
<defs>
<filter id="filter0_i_871_291" x="0" y="8" width="197" height="116" filterUnits="userSpaceOnUse" color-interpolation-filters="sRGB">
<feFlood flood-opacity="0" result="BackgroundImageFix"/>
<feBlend mode="normal" in="SourceGraphic" in2="BackgroundImageFix" result="shape"/>
<feColorMatrix in="SourceAlpha" type="matrix" values="0 0 0 0 0 0 0 0 0 0 0 0 0 0 0 0 0 0 127 0" result="hardAlpha"/>
<feOffset dy="4"/>
<feGaussianBlur stdDeviation="2"/>
<feComposite in2="hardAlpha" operator="arithmetic" k2="-1" k3="1"/>
<feColorMatrix type="matrix" values="0 0 0 0 0 0 0 0 0 0 0 0 0 0 0 0 0 0 0.25 0"/>
<feBlend mode="normal" in2="shape" result="effect1_innerShadow_871_291"/>
</filter>
</defs>
</svg>
