<svg xmlns="http://www.w3.org/2000/svg" width="210" height="115" fill="none" viewBox="0 0 210 115"><g filter="url(#a)"><path fill="#00d287" fill-rule="evenodd" d="M29.837 73.039C9.762 65.54 1 54.476 1 42.5 1 27.765 18.673 13.209 47.909 6.01 62.089 2.521 78.749 1 97.892 1c58.609 0 112.657 15.034 110.35 41.5 0 13.133-10.003 25.209-30.375 32.418-11.109 3.93-25.162 6.252-42.744 6.966-6.917 13.739-17.039 20.813-33.646 32.009 12.179-13.049 19.64-21.462 22.34-31.772h-.932c-41.541 2.35-72.959-1.58-93.048-9.082" clip-rule="evenodd"/></g><path fill="#00d287" d="m29.837 73.039.35-.937zM47.909 6.01l-.24-.97zM208.242 42.5l-.996-.087-.004.087zm-30.375 32.417-.334-.943zm-42.744 6.966-.041-.999a1 1 0 0 0-.853.55zm-33.646 32.009-.731-.682a1 1 0 0 0-.029 1.331 1 1 0 0 0 1.319.18zm22.34-31.772.968.253a1.002 1.002 0 0 0-.97-1.253zm-.932 0v-1l-.057.003zM0 42.502c0 12.581 9.234 23.91 29.487 31.475l.7-1.874C10.29 64.672 2 53.87 2 42.5zM47.67 5.04c-14.714 3.622-26.584 9.11-34.8 15.604C4.668 27.129 0 34.71 0 42.5h2c0-6.946 4.17-14.01 12.111-20.287 7.93-6.268 19.514-11.656 34.037-15.232zM97.892 0C78.702 0 61.955 1.524 47.67 5.04l.478 1.942C62.222 3.517 78.796 2 97.892 2zm111.346 42.587c.612-7.014-2.534-13.202-8.351-18.477-5.799-5.26-14.312-9.675-24.651-13.23C155.547 3.765 127.264 0 97.892 0v2c29.236 0 57.282 3.752 77.693 10.771 10.211 3.511 18.441 7.817 23.958 12.82 5.5 4.988 8.245 10.604 7.703 16.823zM178.2 75.861c20.569-7.28 31.042-19.623 31.042-33.36h-2c0 12.527-9.533 24.335-29.709 31.474zm-43.037 7.022c17.641-.716 31.802-3.047 43.037-7.022l-.667-1.886c-10.981 3.886-24.927 6.199-42.451 6.91zm-.934-1.448c-6.782 13.472-16.678 20.416-33.311 31.629l1.118 1.658c16.581-11.178 26.929-18.383 33.98-32.388zm-32.021 33.14c12.132-12.999 19.801-21.6 22.577-32.201l-1.935-.507c-2.624 10.02-9.879 18.245-22.104 31.344zm20.677-31.453.935-.001-.005-2h-.93zm-93.398-9.147c20.272 7.572 51.845 11.5 93.454 9.145l-.113-1.996c-41.472 2.346-72.734-1.587-92.642-9.022z"/><path fill="#fff" d="M46.675 36.854q0 .26-.137.505-.136.233-.642.547t-1.122.602q-.615.273-1.189.478-.574.192-.848.192-.191 0-.45-.096a3.2 3.2 0 0 1-.999-.533 1.4 1.4 0 0 1-.3-.342q-.056-.095-.11-.383a20 20 0 0 1-.082-.67q-.028-.383-.055-.806l-.054-.82-.028-.698v-.437q0-.507.028-1.163.04-.655.136-1.312.096-.67.274-1.271.191-.615.505-1.04.096-.122.383-.26.288-.135.67-.26a14 14 0 0 1 1.71-.41q.423-.081.765-.122a4 4 0 0 1 .52-.055q.205 0 .382.096a.8.8 0 0 1 .315.232q.136.15.205.342a.9.9 0 0 1 .082.383.7.7 0 0 1-.055.3 1.3 1.3 0 0 1-.137.274q-.136.177-.574.424a15.5 15.5 0 0 1-1.941.916q-.465.191-.657.273-.054.315-.123.643-.054.315-.082.642.424-.218.958-.41a3 3 0 0 1 1.011-.191q.97 0 .97.957a.85.85 0 0 1-.095.41 1 1 0 0 1-.232.315 1.6 1.6 0 0 1-.328.246l-.356.191a8 8 0 0 1-.916.41l-.957.328a6 6 0 0 0-.055.246 1 1 0 0 0-.027.246q0 .192.027.383l.055.383q.165-.054.52-.178.369-.123.765-.246.397-.123.766-.205.369-.096.547-.095.204 0 .383.095a.8.8 0 0 1 .3.233q.123.136.192.328a1 1 0 0 1 .082.383m9.72.218q0 .246-.027.643a3.7 3.7 0 0 1-.11.78q-.094.368-.3.642a.68.68 0 0 1-.574.273q-.506 0-.78-.328-.273-.328-.26-.82a3.4 3.4 0 0 1-.997.601 3 3 0 0 1-1.121.219q-.397 0-.752-.191a2.4 2.4 0 0 1-.63-.493 2.5 2.5 0 0 1-.437-.67 1.9 1.9 0 0 1-.164-.751q0-.656.397-1.149.41-.492.998-.834a5.7 5.7 0 0 1 1.244-.56 7.5 7.5 0 0 1 1.19-.274v-.123a.5.5 0 0 0 .013-.123q0-.423-.233-.684-.231-.26-.656-.26a1.3 1.3 0 0 0-.588.124 3 3 0 0 0-.464.26q-.219.135-.438.26-.219.108-.492.109a.76.76 0 0 1-.52-.192.64.64 0 0 1-.205-.492q0-.45.26-.82.273-.369.67-.616.41-.26.875-.396.478-.15.875-.15.369 0 .738.095.37.082.698.274.327.177.587.451.274.26.438.615.246.506.396 1.08.15.56.233 1.162.08.588.11 1.19.026.588.026 1.148m-2.187-.437-.041-.93h-.055a.1.1 0 0 0-.054-.014 1.4 1.4 0 0 0-.452.096 2 2 0 0 0-.505.246q-.246.15-.424.342a.6.6 0 0 0-.164.397q0 .19.136.26a.7.7 0 0 0 .315.068q.3 0 .642-.15.342-.165.602-.315m7.014-5.154q0 .396-.274.587-.26.192-.588.37-.328.163-.601.396-.26.232-.26.697 0 .246.11.424.122.178.286.328.179.137.383.287t.37.342q.177.192.287.465.123.273.123.67 0 .574-.301 1.135a3.73 3.73 0 0 1-1.777 1.668q-.575.26-1.135.26-.233 0-.465-.042a1.3 1.3 0 0 1-.424-.123.9.9 0 0 1-.3-.26.77.77 0 0 1-.124-.45q0-.384.15-.588.15-.219.383-.342t.493-.192q.273-.068.505-.164a1.2 1.2 0 0 0 .383-.273q.15-.165.15-.465 0-.287-.232-.588-.219-.315-.492-.656a7 7 0 0 1-.506-.752 1.8 1.8 0 0 1-.218-.875q0-.588.232-1.08.246-.506.642-.875.411-.37.93-.575a2.8 2.8 0 0 1 1.094-.218q.219 0 .424.04.219.042.383.151.163.096.26.274.108.163.109.424m8.914 2.269a.8.8 0 0 1-.055.287q-.123.315-.383.533a.96.96 0 0 1-.615.205q-.533 0-.725-.533a.4.4 0 0 1-.027-.15q0-.096-.014-.192v-.396a.8.8 0 0 0-.095-.3q-.069-.11-.233-.11-.233 0-.45.3-.206.288-.37.698-.15.397-.246.82-.096.424-.096.684 0 .204.028.506a3 3 0 0 0 .109.56q.082.273.219.479.15.19.382.191a.7.7 0 0 0 .424-.137q.206-.15.397-.342.177-.164.383-.341a.76.76 0 0 1 .492-.178q.341 0 .533.246a.85.85 0 0 1 .205.56q0 .465-.246.876-.247.396-.615.697-.37.287-.82.451a2.4 2.4 0 0 1-.862.178q-.738 0-1.258-.37a2.9 2.9 0 0 1-.82-.929 4.4 4.4 0 0 1-.451-1.244 6.4 6.4 0 0 1-.137-1.272q0-.697.191-1.504a5.7 5.7 0 0 1 .588-1.517 3.8 3.8 0 0 1 1.012-1.162q.63-.465 1.49-.465.534 0 .916.232.397.232.643.616.259.37.383.833.136.465.136.917v.136a.7.7 0 0 1-.013.137m6.494 2.816q0 .466-.3.916a3.4 3.4 0 0 1-.74.793 4.3 4.3 0 0 1-.943.56 2.5 2.5 0 0 1-.93.206q-.723 0-1.298-.355a3.4 3.4 0 0 1-.943-.93 4.5 4.5 0 0 1-.588-1.23 5 5 0 0 1-.192-1.327q0-.684.192-1.463.191-.78.574-1.435.396-.657.984-1.094.602-.437 1.422-.437.465 0 .889.164A2.15 2.15 0 0 1 76 32.054q.191.397.191.89 0 .642-.273 1.203a3.2 3.2 0 0 1-.725.97q-.45.41-1.039.67a3.5 3.5 0 0 1-1.203.273q.055.397.315.575.273.177.642.178.273 0 .533-.137t.506-.301q.246-.177.479-.315.246-.136.492-.136a.76.76 0 0 1 .492.178.57.57 0 0 1 .219.464m-2.215-3.35a.8.8 0 0 0-.096-.368.32.32 0 0 0-.3-.192q-.302 0-.506.164-.206.15-.342.397a2.3 2.3 0 0 0-.219.506q-.068.273-.082.505.192-.04.451-.109.274-.068.506-.178.245-.123.41-.3a.58.58 0 0 0 .178-.424m.766-4.853q0 .15-.082.301a1.4 1.4 0 0 1-.205.26q-.11.124-.247.232a9 9 0 0 0-.246.178 7 7 0 0 0-.218.164 3 3 0 0 1-.247.164 2 2 0 0 1-.26.123.6.6 0 0 1-.245.055.34.34 0 0 1-.192-.055.24.24 0 0 1-.082-.191q0-.205.15-.492.165-.301.397-.575.233-.286.492-.478.26-.205.479-.205.19 0 .342.164.164.15.164.355m4.552 2.352q0 .738-.068 1.49-.055.738-.055 1.49 0 .971.055 1.942.069.97.068 1.955 0 .245-.027.56-.027.301-.137.56a1.05 1.05 0 0 1-.3.438q-.206.178-.547.178-.329 0-.575-.328a2.9 2.9 0 0 1-.396-.807q-.15-.505-.26-1.12a20 20 0 0 1-.15-1.19 86 86 0 0 1-.069-1.067q-.013-.492-.013-.724 0-.26.013-.752.028-.492.096-1.067.069-.574.178-1.162.123-.6.314-1.08.192-.492.451-.793.274-.315.643-.314.3 0 .451.205.165.191.233.478.068.274.082.588.013.3.013.52m7.028 4.375q0 .752-.15 1.49t-.507 1.326a2.75 2.75 0 0 1-.957.93q-.588.355-1.476.355-.875 0-1.463-.341a2.8 2.8 0 0 1-.943-.93 4.2 4.2 0 0 1-.493-1.299 8 8 0 0 1-.136-1.477q0-.82.191-1.626.042-.22.15-.602.124-.397.301-.766.192-.383.424-.656.246-.273.533-.273.274 0 .438.15.165.15.26.383.094.219.123.478.027.247.027.452 0 .314-.055.615-.04.3-.095.601l-.11.82a8 8 0 0 0-.027 1.286q.027.246.11.478.08.233.232.397.15.15.423.15.356 0 .561-.191.219-.191.314-.479.11-.287.137-.615.028-.329.028-.602 0-.6-.082-1.175a47 47 0 0 1-.15-1.19 1.3 1.3 0 0 1 .055-.602q.066-.204.19-.368a.9.9 0 0 1 .301-.26.74.74 0 0 1 .396-.11q.302 0 .534.22.232.204.383.546.164.329.26.752.108.41.163.82.069.397.082.752.028.356.028.56m3.39-4.375q0 .738-.068 1.49-.055.738-.055 1.49 0 .971.055 1.942.069.97.068 1.955 0 .245-.027.56-.027.301-.137.56a1.05 1.05 0 0 1-.3.438q-.206.178-.547.178-.329 0-.575-.328a2.9 2.9 0 0 1-.396-.807 10 10 0 0 1-.26-1.12q-.096-.615-.15-1.19-.041-.588-.069-1.067-.013-.492-.013-.724 0-.26.013-.752.028-.492.096-1.067.069-.574.178-1.162.123-.6.314-1.08.192-.492.451-.793.274-.315.643-.314.3 0 .451.205.165.191.233.478.068.274.082.588.013.3.013.52M97 37.072q0 .246-.027.643-.014.396-.11.78-.096.368-.3.642a.68.68 0 0 1-.575.273q-.506 0-.779-.328t-.26-.82a3.4 3.4 0 0 1-.998.601 3 3 0 0 1-1.12.219q-.398 0-.753-.191a2.4 2.4 0 0 1-.629-.493 2.5 2.5 0 0 1-.437-.67 1.9 1.9 0 0 1-.164-.751q0-.656.396-1.149.41-.492.998-.834a5.7 5.7 0 0 1 1.244-.56 7.5 7.5 0 0 1 1.19-.274v-.123a.5.5 0 0 0 .013-.123q0-.423-.232-.684-.233-.26-.656-.26a1.3 1.3 0 0 0-.588.124q-.247.11-.465.26a11 11 0 0 1-.437.26q-.219.108-.493.109a.76.76 0 0 1-.52-.192.64.64 0 0 1-.204-.492q0-.45.26-.82.273-.369.67-.616.41-.26.874-.396.48-.15.875-.15.37 0 .739.095.369.082.697.274.329.177.588.451.273.26.437.615.246.506.397 1.08.15.56.232 1.162.082.588.11 1.19.027.588.027 1.148m-2.187-.437-.041-.93h-.055a.1.1 0 0 0-.055-.014 1.4 1.4 0 0 0-.451.096 2 2 0 0 0-.506.246 2 2 0 0 0-.424.342.6.6 0 0 0-.164.397q0 .19.137.26a.7.7 0 0 0 .314.068q.3 0 .643-.15.341-.165.602-.315m7.013-5.154q0 .396-.273.587-.26.192-.588.37-.328.163-.602.396-.26.232-.26.697 0 .246.11.424.123.178.287.328.177.137.383.287t.369.342q.177.192.287.465.123.273.123.67 0 .574-.301 1.135a3.7 3.7 0 0 1-.752.984q-.45.424-1.025.684-.574.26-1.135.26-.233 0-.465-.042a1.3 1.3 0 0 1-.424-.123.9.9 0 0 1-.3-.26.8.8 0 0 1-.123-.45q0-.384.15-.588.15-.219.383-.342a2.3 2.3 0 0 1 .492-.192q.273-.068.506-.164a1.2 1.2 0 0 0 .383-.273q.15-.165.15-.465 0-.287-.232-.588a12 12 0 0 0-.492-.656 7 7 0 0 1-.506-.752 1.8 1.8 0 0 1-.22-.875q0-.588.233-1.08.246-.506.643-.875.41-.37.93-.575a2.8 2.8 0 0 1 1.093-.218q.219 0 .424.04.22.042.383.151a.7.7 0 0 1 .26.274.75.75 0 0 1 .109.424m9.735-1.477q0 .998-.083 1.982a29 29 0 0 0-.068 1.983q0 .806.041 1.6.055.792.055 1.599 0 .22-.014.533-.013.3-.096.588a1.1 1.1 0 0 1-.246.492q-.164.205-.478.205a.89.89 0 0 1-.684-.3 1.5 1.5 0 0 1-.328-.698 2.34 2.34 0 0 1-.752.834 1.83 1.83 0 0 1-1.066.342q-.615 0-1.067-.424a3.8 3.8 0 0 1-.738-1.025 6 6 0 0 1-.437-1.258 5.6 5.6 0 0 1-.137-1.135 8.6 8.6 0 0 1 .178-1.668q.11-.45.273-.875a3.3 3.3 0 0 1 .41-.779 2.1 2.1 0 0 1 .602-.547q.356-.205.806-.205.493 0 .944.287t.683.711l.123-2.174q.015-.26.041-.601a4 4 0 0 1 .11-.67q.096-.315.287-.533.192-.22.56-.22.397 0 .616.192t.314.492q.11.288.123.63.028.34.028.642m-2.229 6.07q0-.314-.014-.615a7 7 0 0 1 0-.615 7 7 0 0 0-.191-.383 1.7 1.7 0 0 0-.274-.396 1.4 1.4 0 0 0-.341-.315.75.75 0 0 0-.41-.123.54.54 0 0 0-.397.15q-.15.15-.219.37a2.2 2.2 0 0 0-.095.45q-.014.247-.014.425 0 .164.027.492.028.314.096.642.082.328.219.575.137.245.369.246a1 1 0 0 0 .355-.069q.178-.082.328-.191.165-.123.301-.26a6 6 0 0 0 .26-.273zm5.729 3.323q-.698 0-1.217-.37a3.2 3.2 0 0 1-.875-.943 4.5 4.5 0 0 1-.533-1.272 5.7 5.7 0 0 1-.178-1.394q0-.725.178-1.49.177-.78.546-1.408.37-.643.944-1.04.574-.41 1.367-.41.765 0 1.299.424.546.41.875 1.04.328.614.465 1.353.137.738.095 1.394-.04.725-.232 1.463a4.7 4.7 0 0 1-.533 1.326q-.356.588-.903.957-.546.37-1.298.37m.136-6.18q-.205 0-.369.218-.15.219-.26.534-.095.315-.15.67a4 4 0 0 0-.055.601q0 .329.055.711.069.383.178.711.11.315.259.533.165.205.37.205.218 0 .369-.205.164-.205.259-.52.096-.314.137-.683.042-.383.041-.71a4.4 4.4 0 0 0-.219-1.34 1.5 1.5 0 0 0-.259-.52q-.151-.205-.356-.205m11.895.533a.8.8 0 0 1-.055.287q-.123.315-.383.533a.96.96 0 0 1-.615.205q-.533 0-.725-.533a.4.4 0 0 1-.027-.15q0-.096-.014-.192v-.396a.8.8 0 0 0-.095-.3q-.069-.11-.233-.11-.232 0-.451.3a3.3 3.3 0 0 0-.369.698q-.15.397-.246.82-.096.424-.096.684 0 .204.028.506.027.287.109.56.083.273.219.479.15.19.382.191a.7.7 0 0 0 .424-.137q.205-.15.397-.342.177-.164.383-.341a.76.76 0 0 1 .492-.178q.341 0 .533.246a.85.85 0 0 1 .205.56q0 .465-.246.876a2.8 2.8 0 0 1-.615.697q-.37.287-.821.451-.45.178-.861.178-.738 0-1.258-.37a2.9 2.9 0 0 1-.82-.929 4.4 4.4 0 0 1-.451-1.244 6.4 6.4 0 0 1-.137-1.272q0-.697.191-1.504a5.7 5.7 0 0 1 .588-1.517 3.8 3.8 0 0 1 1.012-1.162q.629-.465 1.49-.465.534 0 .916.232.397.232.643.616.26.37.383.833.136.465.136.917v.136a.7.7 0 0 1-.013.137m3.363 5.647q-.697 0-1.217-.37a3.2 3.2 0 0 1-.875-.943 4.5 4.5 0 0 1-.533-1.272 5.8 5.8 0 0 1-.178-1.394q0-.725.178-1.49.178-.78.547-1.408.369-.643.943-1.04.575-.41 1.367-.41.767 0 1.299.424.548.41.875 1.04.328.614.465 1.353.137.738.096 1.394-.04.725-.233 1.463a4.6 4.6 0 0 1-.533 1.326q-.356.588-.902.957-.548.37-1.299.37m.137-6.18q-.206 0-.369.218a2.2 2.2 0 0 0-.26.534 5 5 0 0 0-.151.67 4 4 0 0 0-.054.601q0 .329.054.711.069.383.178.711.11.315.26.533.164.205.369.205.219 0 .369-.205.165-.205.26-.52.095-.314.137-.683.04-.383.041-.71 0-.302-.055-.657a3.7 3.7 0 0 0-.164-.684 1.5 1.5 0 0 0-.26-.52q-.15-.204-.355-.204m8.271.67a.9.9 0 0 1-.328-.028l-.273-.109a3 3 0 0 0-.246-.096.54.54 0 0 0-.274-.04q-.273.013-.492.15a2 2 0 0 0-.383.341 2.4 2.4 0 0 0-.287.465 2.7 2.7 0 0 0-.191.492q-.041.165-.069.506a17 17 0 0 0-.013.711q-.014.397-.014.752 0 .356-.027.56-.014.22-.069.52a2.2 2.2 0 0 1-.177.547 1.3 1.3 0 0 1-.301.438.7.7 0 0 1-.492.177.66.66 0 0 1-.411-.136 1.3 1.3 0 0 1-.287-.356 3.3 3.3 0 0 1-.191-.533 7 7 0 0 1-.11-.615q-.04-.329-.068-.656l-.027-.616v-.546q.013-.247.013-.397a17 17 0 0 0-.054-.957 18 18 0 0 1-.028-.97q0-.302.028-.67.027-.37.15-.684.123-.328.356-.547.246-.219.67-.219.233 0 .396.15.164.15.26.37.109.218.164.465.054.245.068.45.328-.533.739-.86.41-.343 1.066-.37.328-.014.642.069.328.067.588.246.274.164.438.437.177.273.191.643.028.437-.259.67a1.14 1.14 0 0 1-.698.246m7.424 1.039q0 .6-.137 1.326a4.6 4.6 0 0 1-.437 1.326 3 3 0 0 1-.807 1.025q-.492.41-1.244.41-.192 0-.396-.027a2 2 0 0 1-.397-.095 1.4 1.4 0 0 1-.328-.178.8.8 0 0 1-.232-.315l-.123 1.97q-.015.314-.028.751 0 .438-.109.834a1.5 1.5 0 0 1-.342.67q-.232.288-.684.287-.26 0-.437-.273a2.2 2.2 0 0 1-.287-.67 8 8 0 0 1-.151-.916q-.054-.506-.068-.97-.014-.465-.014-.849v-.56q0-.916-.013-1.819-.014-.915-.014-1.831v-.506q0-.356.027-.766.028-.41.082-.848.069-.437.192-.793a1.7 1.7 0 0 1 .314-.588.58.58 0 0 1 .465-.232q.178 0 .315.11.15.095.246.26.11.15.177.327.068.178.11.329.424-.48.97-.725a2.9 2.9 0 0 1 1.19-.246q.656 0 1.066.369.424.369.657.916.246.546.341 1.176.096.615.096 1.12m-1.955-.11q0-.204-.041-.41a1.1 1.1 0 0 0-.123-.396.67.67 0 0 0-.246-.301.67.67 0 0 0-.41-.123q-.328 0-.698.219a1.5 1.5 0 0 0-.533.478q-.068.11-.082.356a7 7 0 0 0-.013.369v.26a43 43 0 0 1 .054.629 1 1 0 0 0 .069.232q.04.123.177.232a2.4 2.4 0 0 0 .301.178q.164.083.328.123.178.041.301.041a.57.57 0 0 0 .465-.219 1.6 1.6 0 0 0 .273-.52q.11-.3.137-.614a5 5 0 0 0 .041-.534m5.387 4.58q-.698 0-1.217-.369a3.2 3.2 0 0 1-.875-.943 4.5 4.5 0 0 1-.533-1.272 5.7 5.7 0 0 1-.178-1.394q0-.725.178-1.49.177-.78.547-1.408.369-.643.943-1.04.575-.41 1.367-.41.767 0 1.299.424.547.41.875 1.04.328.614.465 1.353.137.738.096 1.394-.041.725-.233 1.463a4.6 4.6 0 0 1-.533 1.326q-.356.588-.902.957-.548.37-1.299.37m.136-6.18q-.204 0-.369.22-.15.218-.259.533a5 5 0 0 0-.151.67 4 4 0 0 0-.055.601q0 .329.055.711.069.383.178.711.109.315.26.533.163.205.369.205.219 0 .369-.205.164-.205.26-.52.095-.314.136-.683.041-.383.041-.71 0-.302-.054-.657a4 4 0 0 0-.164-.684 1.6 1.6 0 0 0-.26-.52q-.15-.204-.356-.204m10.706 6.167q-.232 0-.37-.219a1.5 1.5 0 0 1-.205-.479 4 4 0 0 1-.095-.546 9 9 0 0 1-.014-.438q0-.41.041-.82l.109-.82q.068-.41.11-.82.054-.411.054-.821 0-.165-.013-.355a1.4 1.4 0 0 0-.069-.356.6.6 0 0 0-.15-.287.4.4 0 0 0-.287-.11q-.123 0-.274.206-.15.191-.287.45a5 5 0 0 0-.218.507 1.3 1.3 0 0 0-.082.369v.615q.013.3.013.615v.793q-.014.246-.041.506a4 4 0 0 1-.082.506 3 3 0 0 1-.123.478 1.5 1.5 0 0 1-.219.397q-.123.164-.3.273a.8.8 0 0 1-.424.11.6.6 0 0 1-.451-.178 1.3 1.3 0 0 1-.288-.451 3.3 3.3 0 0 1-.164-.63 22 22 0 0 1-.068-.683 16 16 0 0 1-.014-.615q.014-.287.014-.451v-.643q0-.52-.027-1.025a38 38 0 0 1-.014-1.012v-.697q.014-.424.109-.82.096-.41.315-.698.219-.287.642-.287.192 0 .342.123.15.124.26.301.123.178.191.383.083.205.123.355.137-.19.315-.369.192-.177.424-.314a2.23 2.23 0 0 1 1.176-.301q.696 0 1.08.342.396.329.574.834.191.492.232 1.066t.041 1.04q0 .231-.041.697-.041.45-.136 1.011-.083.547-.233 1.135a7.6 7.6 0 0 1-.355 1.053 2.6 2.6 0 0 1-.493.779q-.273.3-.628.3m8.462-2.31q0 .245-.027.642a3.8 3.8 0 0 1-.109.78q-.096.368-.301.642a.68.68 0 0 1-.574.273q-.506 0-.78-.328-.273-.328-.259-.82a3.4 3.4 0 0 1-.998.601 3 3 0 0 1-1.122.219 1.56 1.56 0 0 1-.751-.191 2.3 2.3 0 0 1-.629-.493 2.5 2.5 0 0 1-.438-.67 1.9 1.9 0 0 1-.164-.751q0-.656.397-1.149.41-.492.998-.834a5.7 5.7 0 0 1 1.244-.56 7.4 7.4 0 0 1 1.189-.274v-.123a.5.5 0 0 0 .014-.123q0-.423-.233-.684-.232-.26-.656-.26a1.3 1.3 0 0 0-.588.124q-.246.11-.465.26a10 10 0 0 1-.437.26q-.219.108-.492.109a.76.76 0 0 1-.52-.192.65.65 0 0 1-.205-.492q0-.45.26-.82.274-.369.67-.616.41-.26.875-.396.479-.15.875-.15.369 0 .738.095.37.082.697.274.328.177.588.451.274.26.438.615.246.506.396 1.08.151.56.233 1.162.081.588.109 1.19.027.588.027 1.148m-2.187-.438-.041-.93h-.055a.1.1 0 0 0-.054-.014q-.178 0-.452.096a2 2 0 0 0-.506.246q-.246.15-.423.342a.6.6 0 0 0-.164.397q0 .19.136.26a.7.7 0 0 0 .315.068q.3 0 .642-.15.342-.165.602-.315m1.654-7.82a.86.86 0 0 1-.137.437 2 2 0 0 1-.341.41 2.3 2.3 0 0 1-.438.3q-.233.11-.437.11-.206 0-.41-.068-.192-.082-.397-.178a4 4 0 0 0-.383-.164 1 1 0 0 0-.383-.082q-.15 0-.3.096a4 4 0 0 0-.315.191 4 4 0 0 1-.342.178.7.7 0 0 1-.328.082.43.43 0 0 1-.355-.178.66.66 0 0 1-.137-.383q0-.232.164-.45.165-.22.41-.384.246-.178.506-.273.273-.11.479-.11.232 0 .396.096.178.096.328.22.151.122.301.218a.75.75 0 0 0 .383.096.6.6 0 0 0 .328-.096q.164-.109.314-.233.165-.136.301-.232a.53.53 0 0 1 .315-.11q.191 0 .328.165.15.164.15.341m3.951 10.582q-.697 0-1.216-.37a3.2 3.2 0 0 1-.875-.943 4.5 4.5 0 0 1-.534-1.272 5.8 5.8 0 0 1-.177-1.394q0-.725.177-1.49.178-.78.547-1.408.37-.643.944-1.04.573-.41 1.367-.41.765 0 1.299.424.546.41.875 1.04.327.614.464 1.353.138.738.096 1.394-.041.725-.232 1.463a4.7 4.7 0 0 1-.533 1.326q-.356.588-.903.957-.546.37-1.299.37m.137-6.18q-.205 0-.369.218-.15.219-.26.534a5 5 0 0 0-.15.67 4 4 0 0 0-.055.601q0 .329.055.711.068.383.178.711.109.315.259.533.165.205.369.205.219 0 .37-.205.164-.205.259-.52.096-.314.137-.683.04-.383.041-.71 0-.302-.055-.657a3.7 3.7 0 0 0-.164-.684 1.5 1.5 0 0 0-.259-.52q-.151-.204-.356-.204M27.138 51.75a.8.8 0 0 1-.055.287q-.123.315-.383.533a.96.96 0 0 1-.615.205q-.533 0-.725-.533a.4.4 0 0 1-.027-.15 1.3 1.3 0 0 0-.014-.192v-.396a.8.8 0 0 0-.095-.3q-.069-.11-.233-.11-.232 0-.451.3-.205.288-.37.698a6 6 0 0 0-.245.82q-.096.424-.096.684 0 .204.027.506.028.287.11.56.081.273.219.479.15.19.382.191a.7.7 0 0 0 .424-.137q.206-.15.397-.342.177-.164.382-.341a.76.76 0 0 1 .493-.178q.342 0 .533.246.205.246.205.56 0 .465-.246.876a2.8 2.8 0 0 1-.615.697q-.37.287-.82.451-.452.178-.862.178-.738 0-1.258-.37a2.9 2.9 0 0 1-.82-.929 4.4 4.4 0 0 1-.451-1.244 6.4 6.4 0 0 1-.137-1.272q0-.697.191-1.504a5.7 5.7 0 0 1 .588-1.517 3.8 3.8 0 0 1 1.012-1.162q.63-.465 1.49-.465.534 0 .916.232.397.232.643.616.259.369.383.834.136.465.136.916v.136a.7.7 0 0 1-.013.137m3.363 5.647q-.697 0-1.217-.37a3.2 3.2 0 0 1-.875-.943 4.5 4.5 0 0 1-.533-1.272 5.7 5.7 0 0 1-.178-1.394q0-.725.178-1.49.177-.78.547-1.408.369-.643.943-1.04.575-.41 1.367-.41.765 0 1.3.424.546.41.874 1.04.328.614.465 1.353.136.738.096 1.394-.041.725-.233 1.463a4.7 4.7 0 0 1-.533 1.326q-.356.588-.902.957-.547.37-1.299.37m.137-6.18q-.205 0-.37.218-.15.219-.26.534-.095.315-.15.67a4 4 0 0 0-.054.601q0 .329.054.711.069.383.178.711.11.315.26.533.164.205.369.205.219 0 .37-.205.163-.205.259-.52.096-.314.137-.683.04-.383.04-.71 0-.302-.054-.657a4 4 0 0 0-.164-.684 1.5 1.5 0 0 0-.26-.52q-.15-.204-.355-.204m7.41 6.166q-.232 0-.37-.219a1.5 1.5 0 0 1-.204-.479 4 4 0 0 1-.096-.546 8 8 0 0 1 .027-1.258l.11-.82q.068-.41.109-.82.055-.411.055-.821 0-.165-.014-.355a1.5 1.5 0 0 0-.068-.356.6.6 0 0 0-.15-.287.4.4 0 0 0-.288-.11q-.123 0-.273.206-.15.191-.287.45a5 5 0 0 0-.22.507 1.3 1.3 0 0 0-.081.369v.615q.014.3.014.615v.793q-.014.246-.041.506a5 5 0 0 1-.083.506 3 3 0 0 1-.123.478 1.5 1.5 0 0 1-.218.397q-.124.164-.301.273a.8.8 0 0 1-.424.11.6.6 0 0 1-.451-.178 1.3 1.3 0 0 1-.287-.451 3 3 0 0 1-.164-.63q-.041-.354-.069-.683a16 16 0 0 1-.013-.615q.013-.287.013-.451v-.643q0-.52-.027-1.025-.014-.506-.014-1.012v-.697q.014-.424.11-.82.095-.41.314-.698.219-.287.643-.287.19 0 .342.123.15.124.26.301.122.178.19.383.082.205.124.355.136-.19.314-.369a2.4 2.4 0 0 1 .424-.314 2.2 2.2 0 0 1 1.176-.301q.698 0 1.08.342.397.328.574.834.191.492.233 1.066.04.575.04 1.04 0 .231-.04.697-.041.45-.137 1.011-.082.547-.233 1.135-.15.575-.355 1.053-.205.479-.492.779-.273.3-.63.3m6.658-7.903q0 .397-.273.588-.261.192-.588.37-.329.163-.602.396-.26.232-.26.697 0 .246.11.424.123.178.287.328.177.137.383.287.205.15.369.342.177.192.287.465.123.273.123.67 0 .574-.3 1.135a3.73 3.73 0 0 1-1.777 1.668q-.575.26-1.136.26-.233 0-.465-.042a1.3 1.3 0 0 1-.424-.123.9.9 0 0 1-.3-.26.8.8 0 0 1-.123-.45q0-.384.15-.588.15-.219.383-.342t.492-.192q.273-.068.506-.164a1.2 1.2 0 0 0 .383-.273q.15-.165.15-.465 0-.287-.232-.588a12 12 0 0 0-.493-.656 7 7 0 0 1-.505-.752 1.8 1.8 0 0 1-.22-.875q0-.588.233-1.08.246-.507.643-.875.41-.37.93-.575a2.8 2.8 0 0 1 1.093-.218q.219 0 .424.04.219.042.383.151.165.096.26.274.11.163.11.423m6.275 5.086q0 .466-.3.916a3.4 3.4 0 0 1-.739.793 4.3 4.3 0 0 1-.943.56 2.5 2.5 0 0 1-.93.206q-.724 0-1.299-.355a3.4 3.4 0 0 1-.943-.93 4.5 4.5 0 0 1-.588-1.23 5 5 0 0 1-.191-1.327q0-.684.191-1.463.192-.78.575-1.435.396-.657.984-1.094.6-.437 1.422-.437.465 0 .888.164a2.15 2.15 0 0 1 1.245 1.12q.19.397.19.89 0 .642-.273 1.203a3.2 3.2 0 0 1-.724.97q-.45.41-1.04.67a3.5 3.5 0 0 1-1.202.273q.054.397.314.575.273.178.643.178.273 0 .533-.137t.506-.301q.246-.177.478-.315.246-.136.492-.136a.76.76 0 0 1 .493.178.57.57 0 0 1 .218.464m-2.214-3.35a.8.8 0 0 0-.096-.368.32.32 0 0 0-.3-.192q-.302 0-.507.164-.204.15-.341.397a2.3 2.3 0 0 0-.22.506q-.068.273-.081.505.191-.04.45-.109a3 3 0 0 0 .507-.178q.245-.123.41-.3a.58.58 0 0 0 .178-.424m8.955 1.122q0 .698-.028 1.394-.014.698-.068 1.395-.04.602-.11 1.285a11 11 0 0 1-.218 1.354q-.15.682-.397 1.299a3.8 3.8 0 0 1-.656 1.107 3 3 0 0 1-.97.766q-.575.286-1.368.287-.369 0-.834-.123a3.7 3.7 0 0 1-.861-.329 2.5 2.5 0 0 1-.684-.546 1.1 1.1 0 0 1-.273-.739q0-.314.219-.588a.76.76 0 0 1 .588-.26q.218 0 .41.069.205.082.396.178.205.095.383.164a1 1 0 0 0 .383.082q.506 0 .847-.26a1.8 1.8 0 0 0 .547-.642q.205-.383.301-.848.11-.452.15-.861a1.45 1.45 0 0 1-.642.437q-.356.11-.752.11-.724 0-1.23-.247a2.3 2.3 0 0 1-.82-.697q-.315-.45-.466-1.04-.15-.587-.15-1.27 0-.424.082-.958.096-.532.273-1.08.178-.546.438-1.066.273-.52.629-.916.355-.397.793-.643.45-.246.984-.246.52 0 .916.301.41.3.479.848.15-.288.396-.56a.76.76 0 0 1 .602-.288q.19 0 .314.191.137.192.205.506.082.3.123.67.042.355.055.711.014.342.014.63zm-2.078.889q0-.205-.069-.534a3 3 0 0 0-.178-.628 1.8 1.8 0 0 0-.287-.52.53.53 0 0 0-.423-.219.82.82 0 0 0-.561.219 2 2 0 0 0-.396.533q-.165.301-.26.656a2.6 2.6 0 0 0-.082.588q0 .178.027.479.027.3.11.588.095.287.245.492t.397.205q.369 0 .643-.178a1.5 1.5 0 0 0 .45-.451q.192-.273.288-.602t.096-.628m9.037-.137q0 .752-.15 1.49-.151.738-.507 1.326a2.75 2.75 0 0 1-.957.93q-.588.355-1.476.355-.876 0-1.463-.341a2.8 2.8 0 0 1-.943-.93 4.2 4.2 0 0 1-.493-1.299 8 8 0 0 1-.136-1.477q0-.82.191-1.626a5.6 5.6 0 0 1 .451-1.367q.193-.384.424-.657.246-.273.533-.273.274 0 .438.15.165.15.26.383.095.219.123.478.027.247.027.452 0 .314-.055.615-.04.3-.096.601l-.109.82a8 8 0 0 0-.027 1.286q.026.246.11.478.08.233.232.397.15.15.423.15.355 0 .561-.191.219-.191.314-.479.11-.287.137-.615.027-.329.027-.602 0-.6-.082-1.175a47 47 0 0 1-.15-1.19 1.3 1.3 0 0 1 .055-.602q.069-.204.191-.368a.9.9 0 0 1 .301-.26.74.74 0 0 1 .396-.11q.301 0 .534.22.232.204.382.546.164.329.26.752.11.41.164.82.069.397.082.752.028.356.028.56m6.562 1.476q0 .466-.3.916a3.4 3.4 0 0 1-.739.793 4.3 4.3 0 0 1-.943.56 2.5 2.5 0 0 1-.93.206q-.724 0-1.299-.355a3.4 3.4 0 0 1-.943-.93 4.5 4.5 0 0 1-.588-1.23 5 5 0 0 1-.191-1.327q0-.684.191-1.463.192-.78.574-1.435.396-.657.985-1.094.601-.437 1.421-.437.465 0 .89.164a2.15 2.15 0 0 1 1.243 1.12q.192.397.192.89 0 .642-.274 1.203a3.2 3.2 0 0 1-.724.97q-.452.41-1.04.67a3.5 3.5 0 0 1-1.203.273q.055.397.315.575.273.178.642.178.274 0 .534-.137t.505-.301q.247-.177.479-.315.246-.136.492-.136a.76.76 0 0 1 .492.178.57.57 0 0 1 .22.464m-2.215-3.35a.8.8 0 0 0-.095-.368.32.32 0 0 0-.301-.192q-.301 0-.506.164-.205.15-.342.397a2.3 2.3 0 0 0-.219.506q-.067.273-.082.505.192-.04.452-.109.273-.068.505-.178.247-.123.41-.3a.58.58 0 0 0 .178-.424m11.06 1.272v.711q0 .437-.026.957-.015.52-.082 1.053-.069.519-.22.943-.135.424-.355.698a.69.69 0 0 1-.56.273.53.53 0 0 1-.465-.246 2 2 0 0 1-.219-.602 4.4 4.4 0 0 1-.082-.697v-.56q0-.616.041-1.203.04-.588.041-1.204v-.246q0-.177-.027-.355a1 1 0 0 0-.096-.315q-.054-.136-.178-.136-.246 0-.396.26-.15.245-.246.587t-.137.684a13 13 0 0 0-.055.492 8 8 0 0 0-.054.533q-.015.355-.055.78a8 8 0 0 1-.11.874 5 5 0 0 1-.19.807 1.9 1.9 0 0 1-.288.588.53.53 0 0 1-.437.233.56.56 0 0 1-.506-.288 2.1 2.1 0 0 1-.26-.67 5.5 5.5 0 0 1-.11-.779q-.013-.397-.013-.615v-.451a7 7 0 0 0 .014-.451v-.315q0-.219-.014-.478 0-.275-.027-.56a4 4 0 0 0-.055-.52 1.3 1.3 0 0 0-.123-.397q-.083-.15-.192-.15-.177 0-.328.232-.15.22-.26.533-.109.3-.177.602-.055.3-.055.437v.082q0 .657.082 1.285.082.63.082 1.286 0 .383-.246.71-.246.315-.683.315a.66.66 0 0 1-.52-.232 2 2 0 0 1-.342-.63 5.3 5.3 0 0 1-.219-.833q-.068-.464-.095-.903-.028-.451-.041-.806v-.547q0-.205-.014-.602 0-.396.014-.861.027-.465.082-.943.054-.492.178-.889.123-.397.314-.643a.64.64 0 0 1 .52-.26q.355 0 .574.192.232.193.232.574 0 .083-.014.164a1 1 0 0 1-.013.15q.15-.217.369-.437.218-.232.465-.41a2.3 2.3 0 0 1 .547-.3q.286-.124.574-.124.273 0 .492.15t.383.383q.164.22.273.479.11.26.15.492.138-.246.329-.492a3 3 0 0 1 .437-.451q.233-.192.506-.315a1.5 1.5 0 0 1 .588-.123q.287 0 .492.205.205.206.356.534.15.314.232.724.082.397.137.793.055.383.068.725.014.328.014.52m8.204-3.008q0 .397-.273.588-.261.192-.588.37-.33.163-.602.396-.26.232-.26.697 0 .246.11.424.123.178.287.328.177.137.383.287.205.15.369.342.177.192.287.465.123.273.123.67 0 .574-.3 1.135a3.73 3.73 0 0 1-1.777 1.668q-.576.26-1.136.26-.233 0-.465-.042a1.3 1.3 0 0 1-.424-.123.9.9 0 0 1-.3-.26.8.8 0 0 1-.123-.45q0-.384.15-.588.15-.219.383-.342t.492-.192q.273-.068.506-.164a1.2 1.2 0 0 0 .383-.273q.15-.165.15-.465 0-.287-.232-.588-.219-.315-.493-.656a7 7 0 0 1-.505-.752 1.8 1.8 0 0 1-.22-.875q0-.588.233-1.08a2.9 2.9 0 0 1 .643-.875q.41-.37.93-.575a2.8 2.8 0 0 1 1.093-.218q.219 0 .424.04.218.042.383.151.165.096.26.274.109.163.109.423m6.275 5.086q0 .466-.3.916a3.4 3.4 0 0 1-.739.793 4.3 4.3 0 0 1-.943.56 2.5 2.5 0 0 1-.93.206q-.725 0-1.299-.355a3.4 3.4 0 0 1-.943-.93 4.5 4.5 0 0 1-.588-1.23 5 5 0 0 1-.191-1.327q0-.684.191-1.463.192-.78.574-1.435.397-.657.985-1.094.6-.437 1.422-.437.465 0 .888.164a2.15 2.15 0 0 1 1.245 1.12q.19.397.19.89 0 .642-.273 1.203a3.2 3.2 0 0 1-.724.97q-.45.41-1.04.67a3.5 3.5 0 0 1-1.202.273q.053.397.314.575.274.178.643.178.273 0 .533-.137t.506-.301q.246-.177.478-.315.246-.136.492-.136a.76.76 0 0 1 .493.178.57.57 0 0 1 .218.464m-2.214-3.35a.8.8 0 0 0-.096-.368.32.32 0 0 0-.3-.192q-.301 0-.507.164-.204.15-.342.397a2.3 2.3 0 0 0-.218.506q-.069.273-.082.505.191-.04.45-.109.275-.068.507-.178.245-.123.41-.3a.58.58 0 0 0 .178-.424m11.867 3.856q0 .246-.028.643a3.7 3.7 0 0 1-.109.78q-.096.368-.301.642a.68.68 0 0 1-.574.273q-.506 0-.779-.328-.274-.328-.26-.82a3.4 3.4 0 0 1-.998.601 3 3 0 0 1-1.121.219q-.396 0-.752-.191a2.4 2.4 0 0 1-.63-.493 2.5 2.5 0 0 1-.437-.67 1.9 1.9 0 0 1-.164-.751q0-.656.397-1.149.41-.492.998-.834a5.7 5.7 0 0 1 1.244-.56 7.5 7.5 0 0 1 1.19-.274v-.123a.5.5 0 0 0 .013-.123q0-.423-.232-.684-.233-.26-.656-.26a1.3 1.3 0 0 0-.588.124q-.246.11-.465.26-.219.135-.438.26-.219.108-.492.109a.76.76 0 0 1-.52-.192.64.64 0 0 1-.204-.492q0-.45.26-.82.272-.369.67-.616.41-.26.874-.396.479-.15.875-.15.369 0 .738.095.37.082.698.274.327.178.588.451.273.26.437.615.246.506.397 1.08.15.56.232 1.162.082.588.109 1.19.028.588.028 1.148m-2.188-.437-.041-.93h-.054a.1.1 0 0 0-.055-.014q-.178 0-.451.096a2 2 0 0 0-.506.246 2 2 0 0 0-.424.342.6.6 0 0 0-.164.397q0 .19.137.26a.7.7 0 0 0 .314.068 1.6 1.6 0 0 0 .643-.15q.342-.165.601-.315m5.565-5.92q0 .738-.069 1.49-.054.738-.054 1.49 0 .971.054 1.942.069.97.069 1.955 0 .245-.028.56-.027.301-.136.56a1.05 1.05 0 0 1-.301.438q-.205.178-.547.178-.328 0-.574-.328a2.9 2.9 0 0 1-.397-.807q-.15-.505-.26-1.12-.094-.615-.15-1.19-.04-.588-.068-1.067-.014-.493-.014-.724 0-.26.014-.752a17 17 0 0 1 .273-2.229 6.3 6.3 0 0 1 .315-1.08q.191-.492.451-.793.273-.315.642-.314.301 0 .452.205.163.192.232.478.069.274.082.588.014.3.014.52m3.295-1.258a.57.57 0 0 1-.11.342q-.096.15-.26.273a1.6 1.6 0 0 1-.355.178 1.3 1.3 0 0 1-.355.055.84.84 0 0 1-.479-.137q-.205-.137-.205-.424 0-.205.096-.355a.9.9 0 0 1 .259-.26q.152-.11.342-.164.192-.055.369-.055a.96.96 0 0 1 .479.123q.219.123.219.424m.109 4.648v.41q0 .206-.014.397a12 12 0 0 0-.013.629q0 .383-.028.834-.027.45-.095.916-.055.465-.192.848a1.8 1.8 0 0 1-.369.629.78.78 0 0 1-.561.246.5.5 0 0 1-.437-.205 1.9 1.9 0 0 1-.301-.561 5 5 0 0 1-.164-.78 15 15 0 0 1-.082-.833 12 12 0 0 1-.027-.752v-1.121q0-.41.027-.875t.096-.944q.082-.478.219-.875.15-.396.382-.642a.77.77 0 0 1 .588-.246q.369 0 .561.369.19.369.287.861t.109.985q.014.478.014.71m9.27.383v.711q0 .437-.028.957a10 10 0 0 1-.082 1.053q-.067.519-.219.943a2.2 2.2 0 0 1-.355.698.69.69 0 0 1-.561.273.53.53 0 0 1-.464-.246 1.9 1.9 0 0 1-.219-.602 4.4 4.4 0 0 1-.082-.697v-.56q0-.616.041-1.203.04-.588.041-1.204v-.246a2 2 0 0 0-.028-.355 1 1 0 0 0-.095-.315q-.055-.136-.178-.136-.246 0-.396.26-.151.245-.247.587a4.6 4.6 0 0 0-.136.684 12 12 0 0 0-.055.492 8 8 0 0 0-.055.533q-.013.355-.054.78a8 8 0 0 1-.11.874q-.068.438-.191.807a1.9 1.9 0 0 1-.287.588.54.54 0 0 1-.438.233.56.56 0 0 1-.506-.288 2.1 2.1 0 0 1-.259-.67 5.5 5.5 0 0 1-.11-.779q-.013-.397-.013-.615v-.451q.013-.22.013-.451v-.315a9 9 0 0 0-.013-.478q0-.275-.028-.56a4 4 0 0 0-.054-.52 1.3 1.3 0 0 0-.124-.397q-.081-.15-.191-.15-.177 0-.328.232-.15.22-.26.533a5 5 0 0 0-.178.602 3 3 0 0 0-.054.437v.082q0 .657.082 1.285.081.63.082 1.286 0 .383-.246.71-.246.315-.684.315a.66.66 0 0 1-.519-.232 2 2 0 0 1-.342-.63 5.4 5.4 0 0 1-.219-.833q-.068-.464-.096-.903-.027-.451-.041-.806v-.547q0-.205-.013-.602 0-.396.013-.861.028-.465.082-.943.055-.492.178-.889t.315-.643a.63.63 0 0 1 .519-.26q.355 0 .574.192.233.193.233.574 0 .083-.014.164a.7.7 0 0 1-.014.15q.151-.217.37-.437.218-.232.464-.41.26-.192.547-.3.288-.124.574-.124a.85.85 0 0 1 .493.15q.218.15.382.383.165.22.274.479.11.26.15.492.137-.246.328-.492.206-.26.438-.451.232-.192.506-.315.287-.123.588-.123.287 0 .492.205.205.206.355.534.151.314.233.724.082.397.136.793.056.383.069.725.014.328.014.52m6.63 2.078q0 .466-.3.916a3.4 3.4 0 0 1-.739.793 4.3 4.3 0 0 1-.943.56 2.5 2.5 0 0 1-.93.206q-.724 0-1.299-.355a3.4 3.4 0 0 1-.943-.93 4.5 4.5 0 0 1-.588-1.23 5 5 0 0 1-.191-1.327q0-.684.191-1.463.192-.78.574-1.435.397-.657.985-1.094.601-.437 1.422-.437.465 0 .888.164a2.15 2.15 0 0 1 1.244 1.12q.192.397.192.89 0 .642-.274 1.203a3.2 3.2 0 0 1-.724.97 3.8 3.8 0 0 1-1.039.67 3.5 3.5 0 0 1-1.203.273q.054.397.314.575.273.178.643.178.273 0 .533-.137a6 6 0 0 0 .506-.301q.246-.177.478-.315.246-.136.492-.136.274 0 .493.178a.57.57 0 0 1 .218.464m-2.214-3.35a.8.8 0 0 0-.096-.368.32.32 0 0 0-.301-.192q-.3 0-.506.164-.205.15-.342.397a2.3 2.3 0 0 0-.218.506q-.069.273-.082.505.191-.04.451-.109a3 3 0 0 0 .506-.178q.245-.123.41-.3a.58.58 0 0 0 .178-.424m6.644 6.167q-.232 0-.369-.219a1.5 1.5 0 0 1-.205-.479 4 4 0 0 1-.096-.546 10 10 0 0 1-.014-.438q0-.41.041-.82l.11-.82q.068-.41.109-.82.055-.411.055-.821 0-.165-.014-.355a1.5 1.5 0 0 0-.068-.356.6.6 0 0 0-.151-.287.4.4 0 0 0-.287-.11q-.123 0-.273.206-.15.191-.287.45a5 5 0 0 0-.219.507 1.3 1.3 0 0 0-.082.369v.615q.014.3.014.615v.793q-.014.246-.041.506a5 5 0 0 1-.082.506 3 3 0 0 1-.123.478 1.5 1.5 0 0 1-.219.397q-.123.164-.301.273a.8.8 0 0 1-.424.11.6.6 0 0 1-.451-.178 1.3 1.3 0 0 1-.287-.451 3 3 0 0 1-.164-.63 22 22 0 0 1-.068-.683q-.014-.342-.014-.615.014-.287.014-.451v-.643q0-.52-.028-1.025a38 38 0 0 1-.013-1.012v-.697q.013-.424.109-.82a1.8 1.8 0 0 1 .314-.698q.219-.287.643-.287.191 0 .342.123.15.124.26.301.123.178.191.383.083.205.123.355.137-.19.314-.369.192-.177.424-.314a2.2 2.2 0 0 1 1.176-.301q.697 0 1.08.342.397.328.574.834.191.492.233 1.066.04.575.041 1.04 0 .231-.041.697-.042.45-.137 1.011a12 12 0 0 1-.232 1.135 7.6 7.6 0 0 1-.356 1.053 2.6 2.6 0 0 1-.492.779q-.273.3-.629.3m5.838.11q-.97 0-1.518-.26a1.76 1.76 0 0 1-.806-.711q-.26-.465-.315-1.122a18 18 0 0 1-.054-1.462q0-.643.041-1.286.04-.656.123-1.394-.192 0-.301.014h-.178a1.4 1.4 0 0 1-.752-.192.63.63 0 0 1-.328-.588q0-.246.191-.437.178-.192.465-.328.288-.137.616-.22a4.5 4.5 0 0 1 .642-.109q0-.382.055-.847.054-.465.191-.861.15-.411.397-.684a.8.8 0 0 1 .629-.274q.218 0 .382.137a.9.9 0 0 1 .288.328q.108.192.164.438.054.246.054.478 0 .275-.041.56a7 7 0 0 1-.15.712q.233-.028.314-.028a1 1 0 0 1 .151-.013q.232 0 .478.04.26.042.465.138.219.095.356.26a.53.53 0 0 1 .136.368q0 .247-.205.438a1.6 1.6 0 0 1-.492.328 3.6 3.6 0 0 1-.643.219 6 6 0 0 1-.642.096q-.083.56-.123 1.038-.027.465-.069.944l-.054.478a8 8 0 0 0-.014.479q0 .177.014.424.014.233.095.45a1 1 0 0 0 .26.384q.179.15.492.15.192 0 .397-.027a2 2 0 0 1 .41-.041q.356 0 .506.246.164.246.164.629 0 .287-.178.506a1.2 1.2 0 0 1-.424.328q-.26.136-.587.205a3 3 0 0 1-.602.068m7.875-2.42q0 .245-.027.642-.014.396-.11.78-.096.368-.301.642a.68.68 0 0 1-.574.273q-.506 0-.779-.328t-.26-.82a3.4 3.4 0 0 1-.998.601 3 3 0 0 1-1.121.219q-.396 0-.752-.191a2.3 2.3 0 0 1-.629-.493 2.5 2.5 0 0 1-.437-.67 1.9 1.9 0 0 1-.164-.751q0-.656.396-1.149.41-.492.998-.834a5.7 5.7 0 0 1 1.244-.56 7.5 7.5 0 0 1 1.19-.274v-.123a.5.5 0 0 0 .013-.123q0-.423-.232-.684-.233-.26-.656-.26a1.3 1.3 0 0 0-.588.124q-.246.11-.465.26-.219.135-.438.26a1.1 1.1 0 0 1-.492.109.76.76 0 0 1-.519-.192.64.64 0 0 1-.205-.492q0-.45.259-.82.274-.369.67-.616.41-.26.875-.396.479-.15.875-.15.37 0 .739.095.369.082.697.274.328.178.588.451.273.26.437.615.246.506.397 1.08.15.56.232 1.162.082.588.11 1.19.027.588.027 1.148m-2.188-.438-.041-.93h-.054a.1.1 0 0 0-.055-.014 1.4 1.4 0 0 0-.451.096 2 2 0 0 0-.506.246q-.246.15-.424.342a.6.6 0 0 0-.164.397q0 .19.137.26a.7.7 0 0 0 .314.068 1.6 1.6 0 0 0 .643-.15q.342-.165.601-.315m7.752-2.748a.9.9 0 0 1-.328-.028l-.273-.109a3 3 0 0 0-.246-.096.54.54 0 0 0-.274-.04q-.273.013-.492.15a2 2 0 0 0-.383.341 2.4 2.4 0 0 0-.287.465 2.7 2.7 0 0 0-.191.492q-.041.165-.069.506a17 17 0 0 0-.013.711q-.014.397-.014.752 0 .356-.027.56a4 4 0 0 1-.069.52 2.2 2.2 0 0 1-.177.547 1.3 1.3 0 0 1-.301.438.7.7 0 0 1-.492.177.65.65 0 0 1-.41-.136 1.3 1.3 0 0 1-.288-.356 3.3 3.3 0 0 1-.191-.533 6 6 0 0 1-.109-.615q-.041-.329-.069-.656l-.027-.616v-.546q.014-.247.014-.397-.015-.479-.055-.957a18 18 0 0 1-.027-.97q0-.302.027-.67.027-.37.15-.684.123-.328.356-.547.246-.219.67-.219.232 0 .396.15.165.15.26.37.11.218.164.465.054.245.068.45.328-.533.739-.86.41-.343 1.066-.37.328-.014.643.069.327.068.588.246.273.164.437.437.178.273.191.643.028.437-.259.67a1.14 1.14 0 0 1-.698.246m10.35-3.883q0 .998-.082 1.982a30 30 0 0 0-.027 3.582q.054.793.054 1.6 0 .22-.013.533-.013.3-.096.588a1.15 1.15 0 0 1-.246.492q-.165.205-.479.205a.88.88 0 0 1-.683-.3 1.5 1.5 0 0 1-.328-.698 2.35 2.35 0 0 1-.752.834 1.83 1.83 0 0 1-1.067.342q-.615 0-1.066-.424a3.7 3.7 0 0 1-.738-1.025 6 6 0 0 1-.438-1.258 5.7 5.7 0 0 1-.137-1.135 8.6 8.6 0 0 1 .178-1.668q.11-.45.274-.875a3.3 3.3 0 0 1 .41-.779q.26-.342.601-.547.355-.205.807-.205.492 0 .943.287.451.288.684.711l.123-2.174q.014-.26.041-.601a4 4 0 0 1 .109-.67q.096-.315.287-.533.192-.22.561-.22.396 0 .615.192t.315.492q.11.287.123.63.027.34.027.642m-2.229 6.07q0-.314-.013-.615a7 7 0 0 1 0-.615 8 8 0 0 0-.192-.383 1.7 1.7 0 0 0-.273-.396 1.4 1.4 0 0 0-.342-.315.74.74 0 0 0-.41-.123.54.54 0 0 0-.396.15.9.9 0 0 0-.219.37 2 2 0 0 0-.096.45 8 8 0 0 0-.014.425q0 .164.028.492.027.314.095.642.082.328.219.575.137.245.369.246a1 1 0 0 0 .356-.069q.178-.082.328-.191.164-.123.301-.26.15-.15.259-.273zm5.387-6.617a.56.56 0 0 1-.109.342q-.096.15-.26.273a1.6 1.6 0 0 1-.355.178 1.3 1.3 0 0 1-.356.055.84.84 0 0 1-.478-.137q-.205-.137-.205-.424 0-.205.095-.355a.9.9 0 0 1 .26-.26q.15-.11.342-.164.19-.055.369-.055.26 0 .478.123.219.123.219.424m.11 4.648v.41q0 .206-.014.397-.014.233-.014.629 0 .383-.027.834t-.096.916q-.054.465-.191.848a1.8 1.8 0 0 1-.369.629.78.78 0 0 1-.561.246.5.5 0 0 1-.437-.205 1.9 1.9 0 0 1-.301-.561 4.6 4.6 0 0 1-.164-.78q-.055-.436-.082-.833a11 11 0 0 1-.028-.752v-1.121q0-.41.028-.875.027-.465.095-.944.082-.478.219-.875.15-.396.383-.642a.77.77 0 0 1 .588-.246q.37 0 .56.369.192.369.288.861t.109.985q.014.478.014.71m5.714-.218a.9.9 0 0 1-.328-.028l-.273-.109a3 3 0 0 0-.246-.096.54.54 0 0 0-.274-.04q-.273.013-.492.15a2 2 0 0 0-.383.341 2.4 2.4 0 0 0-.287.465 2.7 2.7 0 0 0-.191.492q-.041.165-.069.506a17 17 0 0 0-.013.711q-.014.397-.014.752 0 .356-.027.56a4 4 0 0 1-.069.52 2.2 2.2 0 0 1-.177.547 1.25 1.25 0 0 1-.301.438.7.7 0 0 1-.492.177.65.65 0 0 1-.41-.136 1.3 1.3 0 0 1-.288-.356 3.4 3.4 0 0 1-.191-.533 6 6 0 0 1-.109-.615q-.041-.329-.069-.656l-.027-.616v-.546q.014-.247.014-.397a17 17 0 0 0-.055-.957 18 18 0 0 1-.027-.97q0-.302.027-.67.027-.37.15-.684.123-.328.356-.547.246-.219.67-.219.232 0 .396.15.165.15.26.37.11.218.164.465.054.245.068.45.328-.533.739-.86.41-.343 1.066-.37.328-.014.643.069.327.068.588.246.273.164.437.437.178.273.191.643.028.437-.259.67a1.14 1.14 0 0 1-.698.246m6.891 2.68q0 .465-.301.915a3.3 3.3 0 0 1-.738.793 4.3 4.3 0 0 1-.943.56 2.5 2.5 0 0 1-.93.206q-.725 0-1.299-.355a3.4 3.4 0 0 1-.943-.93 4.5 4.5 0 0 1-.588-1.23 5 5 0 0 1-.192-1.327q0-.684.192-1.463.191-.78.574-1.435.397-.657.984-1.094.602-.437 1.422-.437.465 0 .889.164.424.15.738.437.315.287.506.684.192.396.192.888 0 .643-.274 1.204a3.2 3.2 0 0 1-.724.97 3.9 3.9 0 0 1-1.04.67 3.5 3.5 0 0 1-1.203.273q.055.397.315.575.273.178.642.178.274 0 .534-.137t.505-.301a6 6 0 0 1 .479-.315q.246-.136.492-.136a.76.76 0 0 1 .492.178.57.57 0 0 1 .219.464m-2.215-3.35a.8.8 0 0 0-.095-.37.32.32 0 0 0-.301-.19.8.8 0 0 0-.506.163q-.205.15-.342.397a2.3 2.3 0 0 0-.219.506q-.068.273-.082.505.192-.04.451-.109.274-.068.506-.178.246-.123.41-.3a.58.58 0 0 0 .178-.424m5.018-3.76a.57.57 0 0 1-.11.342q-.095.15-.259.273-.165.11-.356.178a1.3 1.3 0 0 1-.355.055.84.84 0 0 1-.479-.137q-.205-.137-.205-.424 0-.205.096-.355a.9.9 0 0 1 .26-.26q.15-.11.341-.164a1.4 1.4 0 0 1 .37-.055q.26 0 .478.123.219.123.219.424m.109 4.648v.41q0 .206-.014.397a12 12 0 0 0-.013.629q0 .383-.028.834-.027.45-.095.916-.055.465-.192.848a1.8 1.8 0 0 1-.369.629.78.78 0 0 1-.56.246.51.51 0 0 1-.438-.205 1.9 1.9 0 0 1-.301-.561 5 5 0 0 1-.164-.78q-.054-.436-.082-.833a12 12 0 0 1-.027-.752v-1.121q0-.41.027-.875.028-.465.096-.944.082-.478.219-.875.15-.396.383-.642a.77.77 0 0 1 .587-.246q.37 0 .561.369t.287.861.109.985q.014.478.014.71m4.156 5.387q-.97 0-1.517-.26a1.76 1.76 0 0 1-.807-.71q-.26-.465-.314-1.122a18 18 0 0 1-.055-1.462q0-.643.041-1.286.04-.656.123-1.394-.191 0-.301.014h-.177q-.438 0-.752-.192a.63.63 0 0 1-.328-.588.6.6 0 0 1 .191-.437q.177-.192.465-.328.286-.137.615-.22.342-.08.643-.109 0-.382.054-.847.056-.465.192-.861.15-.411.396-.684a.8.8 0 0 1 .629-.274.58.58 0 0 1 .383.137.9.9 0 0 1 .287.328q.11.192.164.438t.055.478q0 .275-.041.56a7 7 0 0 1-.151.712q.233-.028.315-.028a1 1 0 0 1 .15-.013q.233 0 .479.04.26.042.465.138.218.095.355.26a.53.53 0 0 1 .137.368q0 .247-.205.438a1.7 1.7 0 0 1-.493.328q-.3.137-.642.219a6 6 0 0 1-.643.096q-.081.56-.123 1.038-.027.465-.068.944l-.055.478a8 8 0 0 0 0 .903q.013.233.096.45a1 1 0 0 0 .26.384q.177.15.492.15.191 0 .396-.027a2 2 0 0 1 .411-.041q.355 0 .505.246.165.246.164.629a.78.78 0 0 1-.177.506q-.165.205-.424.328a2.2 2.2 0 0 1-.588.205q-.314.068-.602.068m4.663-.095q-.698 0-1.217-.37a3.2 3.2 0 0 1-.875-.943 4.5 4.5 0 0 1-.533-1.272 5.7 5.7 0 0 1-.178-1.394q0-.725.178-1.49.177-.78.546-1.408.37-.643.944-1.04.574-.41 1.367-.41.765 0 1.299.424.546.41.875 1.04.328.614.465 1.353.137.738.095 1.394-.04.725-.232 1.463a4.7 4.7 0 0 1-.533 1.326q-.356.588-.903.957-.546.37-1.298.37m.136-6.18q-.205 0-.369.218-.15.219-.26.534-.095.315-.15.67a4 4 0 0 0-.055.601q0 .329.055.711.069.383.178.711.11.315.259.533.165.205.37.205.218 0 .369-.205.164-.205.259-.52.096-.314.137-.683.041-.383.041-.71a4.4 4.4 0 0 0-.219-1.34 1.5 1.5 0 0 0-.259-.52q-.151-.205-.356-.205m5.51 5.127a.7.7 0 0 1-.082.328.8.8 0 0 1-.219.232 1 1 0 0 1-.287.15.9.9 0 0 1-.314.055q-.205 0-.452-.082a1.6 1.6 0 0 1-.437-.205 1.5 1.5 0 0 1-.328-.314.7.7 0 0 1-.137-.424q0-.369.315-.547.313-.19.642-.191.205 0 .424.068.232.069.424.205a1 1 0 0 1 .328.315.7.7 0 0 1 .123.41"/><defs><filter id="a" width="209.314" height="118.893" x="0" y="0" color-interpolation-filters="sRGB" filterUnits="userSpaceOnUse"><feFlood flood-opacity="0" result="BackgroundImageFix"/><feBlend in="SourceGraphic" in2="BackgroundImageFix" result="shape"/><feColorMatrix in="SourceAlpha" result="hardAlpha" values="0 0 0 0 0 0 0 0 0 0 0 0 0 0 0 0 0 0 127 0"/><feOffset dy="4"/><feGaussianBlur stdDeviation="2"/><feComposite in2="hardAlpha" k2="-1" k3="1" operator="arithmetic"/><feColorMatrix values="0 0 0 0 0 0 0 0 0 0 0 0 0 0 0 0 0 0 0.25 0"/><feBlend in2="shape" result="effect1_innerShadow_871_281"/></filter></defs></svg>