<svg xmlns="http://www.w3.org/2000/svg" width="273" height="147" fill="none" viewBox="0 0 273 147"><g filter="url(#a)"><path fill="#00d287" fill-rule="evenodd" d="M25.213 78.503C23.718 74.484 23 70.306 23 66.04c0-19.187 19.351-38.142 51.363-47.513C89.89 13.98 108.133 12 129.093 12c64.174 0 123.355 19.576 120.829 54.039 0 17.1-10.953 32.824-33.26 42.211-14.863 6.254-34.542 9.38-60.203 9.38-45.486 3.06-79.887-2.057-101.884-11.827-10.397-4.618-18.023-10.275-23.173-16.605C24.242 99.985 14.61 107.89 1 118.8c12.978-16.536 21.064-27.355 24.213-40.298" clip-rule="evenodd"/></g><path fill="#00d287" d="m25.213 78.503.971.237a1 1 0 0 0-.034-.585zm49.15-59.977.281.96zm175.559 47.513-.997-.073-.003.073zm-33.26 42.211-.388-.922zm-60.203 9.38v-1l-.067.002zM54.575 105.803l.406-.914zM31.402 89.198l.776-.631a1 1 0 0 0-1.609.078zM1 118.8l-.787-.617a1 1 0 0 0 1.413 1.397zm25.15-40.646C24.699 74.252 24 70.192 24 66.039h-2c0 4.381.738 8.678 2.275 12.813zM24 66.039c0-9.242 4.66-18.53 13.362-26.709 8.7-8.177 21.39-15.192 37.282-19.845l-.562-1.92c-16.12 4.72-29.111 11.868-38.09 20.308C27.015 46.31 22 56.093 22 66.039zm50.644-46.554C90.049 14.975 108.189 13 129.093 13v-2c-21.017 0-39.362 1.984-55.011 6.566zM129.093 13c32.004 0 62.704 4.884 85.048 14.022 22.432 9.173 35.995 22.417 34.784 38.944l1.994.146c1.315-17.936-13.45-31.711-36.021-40.942C192.24 15.904 161.262 11 129.093 11zm119.829 53.039c0 16.597-10.611 32.015-32.648 41.289l.776 1.844c22.576-9.501 33.872-25.531 33.872-43.133zm-32.648 41.289c-14.691 6.182-34.221 9.302-59.815 9.302v2c25.728 0 45.556-3.132 60.591-9.458zm-59.882 9.304c-45.402 3.055-79.62-2.065-101.411-11.743l-.812 1.828c22.204 9.861 56.787 14.976 102.357 11.911zM54.981 104.889c-10.29-4.57-17.775-10.141-22.803-16.322l-1.552 1.262c5.272 6.48 13.038 12.222 23.543 16.888zM30.569 88.645C23.509 99.28 14.006 107.093.374 118.02l1.252 1.56c13.588-10.894 23.349-18.892 30.61-29.83zM1.787 119.418C14.735 102.92 22.975 91.931 26.184 78.74l-1.943-.473C21.153 90.961 13.221 101.61.213 118.184z"/><path fill="#fff" d="M57.022 50.451q-.834 0-1.45-.424a3.34 3.34 0 0 1-1.025-1.107 6 6 0 0 1-.601-1.64 9.7 9.7 0 0 1 .013-3.897 6.6 6.6 0 0 1 .656-1.778q.438-.792 1.108-1.298.67-.507 1.6-.506.901 0 1.503.492.615.478.971 1.258.37.765.52 1.722.164.957.164 1.914 0 1.067-.219 2.024a5.4 5.4 0 0 1-.643 1.668 3.36 3.36 0 0 1-1.08 1.148q-.642.424-1.517.424m.164-7.629a.6.6 0 0 0-.451.205q-.179.206-.301.547-.123.329-.178.752a6 6 0 0 0-.055.834q0 .48.055.957.07.48.191.861.124.383.301.616.191.232.452.232.3 0 .478-.3.178-.302.273-.725.11-.424.137-.875.04-.452.041-.752 0-.369-.054-.78a3.7 3.7 0 0 0-.15-.751 1.9 1.9 0 0 0-.288-.588.55.55 0 0 0-.451-.233m10.049 3.268q0 .752-.15 1.49-.151.738-.507 1.326a2.75 2.75 0 0 1-.957.93q-.588.355-1.476.355-.875 0-1.463-.341a2.8 2.8 0 0 1-.944-.93 4.2 4.2 0 0 1-.492-1.299 8 8 0 0 1-.136-1.477q0-.82.191-1.626.041-.22.15-.602.123-.397.301-.766.193-.383.424-.656.246-.273.533-.273.273 0 .438.15t.26.383q.095.219.123.478.027.247.027.452 0 .314-.055.615-.04.3-.096.601l-.109.82a8 8 0 0 0-.027 1.286q.026.246.11.478.08.233.232.397.15.15.423.15.355 0 .561-.191.219-.191.314-.479.11-.287.137-.615.028-.329.028-.602 0-.6-.083-1.175a47 47 0 0 1-.15-1.19 1.3 1.3 0 0 1 .055-.602q.069-.204.191-.368a.9.9 0 0 1 .3-.26.74.74 0 0 1 .397-.11q.3 0 .534.22.232.204.382.546.165.329.26.752.11.41.164.82.069.397.082.752.028.356.028.56m8.134-3.61q0 .397-.273.588-.26.192-.588.37-.329.163-.602.396-.26.232-.26.697 0 .246.11.424.123.178.287.328.178.137.383.287t.37.342q.177.192.286.465.123.273.123.67 0 .574-.3 1.135a3.73 3.73 0 0 1-1.777 1.668q-.576.26-1.136.26-.232 0-.464-.042a1.3 1.3 0 0 1-.424-.123.9.9 0 0 1-.301-.26.8.8 0 0 1-.123-.45q0-.384.15-.588.15-.219.383-.342a2.3 2.3 0 0 1 .492-.192q.274-.068.506-.164a1.2 1.2 0 0 0 .383-.273q.15-.165.15-.465 0-.287-.232-.588-.219-.315-.492-.656a7 7 0 0 1-.506-.752 1.8 1.8 0 0 1-.219-.875q0-.588.233-1.08a2.9 2.9 0 0 1 .642-.875q.411-.37.93-.575a2.8 2.8 0 0 1 1.094-.218q.218 0 .423.04.22.042.383.151.164.096.26.274.11.163.11.423m6.276 5.086q0 .466-.301.916a3.4 3.4 0 0 1-.738.793 4.3 4.3 0 0 1-.944.56 2.5 2.5 0 0 1-.93.206q-.723 0-1.298-.355a3.4 3.4 0 0 1-.944-.93 4.5 4.5 0 0 1-.587-1.23 5 5 0 0 1-.192-1.327q0-.684.192-1.463.191-.78.574-1.435.396-.657.984-1.094.602-.437 1.422-.437.465 0 .889.164a2.15 2.15 0 0 1 1.244 1.12q.19.397.191.89 0 .642-.273 1.203a3.2 3.2 0 0 1-.725.97q-.45.41-1.039.67a3.5 3.5 0 0 1-1.203.273q.055.397.314.575.274.178.643.178.273 0 .533-.137t.506-.301q.246-.177.479-.315.246-.136.492-.136a.76.76 0 0 1 .492.178.57.57 0 0 1 .219.464m-2.215-3.35a.8.8 0 0 0-.096-.368.32.32 0 0 0-.3-.192q-.302 0-.506.164-.206.15-.342.397a2.3 2.3 0 0 0-.219.506q-.069.273-.082.505.192-.04.451-.109.274-.068.506-.178.245-.123.41-.3a.58.58 0 0 0 .178-.424m5.086-3.622a.63.63 0 0 1-.11.355q-.109.15-.273.26t-.355.178a1.3 1.3 0 0 1-.356.054.84.84 0 0 1-.478-.136q-.206-.137-.206-.424 0-.205.096-.356a.9.9 0 0 1 .26-.26q.164-.109.342-.163a1.3 1.3 0 0 1 .369-.055q.26 0 .478.137.233.123.233.41m.26 5.933q0 .643-.041 1.436-.028.78-.164 1.572a7.3 7.3 0 0 1-.397 1.504q-.273.71-.766 1.19a9 9 0 0 1-.642.546q-.369.288-.793.534a4.6 4.6 0 0 1-.834.396q-.424.165-.807.164-.437 0-.642-.246-.219-.233-.219-.656 0-.437.232-.657.233-.218.575-.382.34-.165.752-.37a2.3 2.3 0 0 0 .738-.587q.343-.397.574-1.067.233-.683.233-1.79a33 33 0 0 0-.11-2.735l-.055-.793a12 12 0 0 1-.027-.807q0-.246.068-.52a1.7 1.7 0 0 1 .206-.491q.136-.232.341-.37.22-.15.52-.15a.7.7 0 0 1 .56.26q.232.26.37.67.15.396.205.902.068.493.095.97.028.465.028.862zm6.918 1.545q0 .246-.028.643-.013.396-.11.78-.094.368-.3.642a.68.68 0 0 1-.574.273q-.505 0-.78-.328-.272-.328-.26-.82a3.4 3.4 0 0 1-.997.601 3 3 0 0 1-1.121.219q-.397 0-.752-.191a2.4 2.4 0 0 1-.63-.493 2.5 2.5 0 0 1-.437-.67 1.9 1.9 0 0 1-.164-.751q0-.656.397-1.149.41-.492.998-.834a5.7 5.7 0 0 1 1.244-.56 7.5 7.5 0 0 1 1.19-.274v-.123a.5.5 0 0 0 .013-.123q0-.423-.232-.684-.232-.26-.657-.26a1.3 1.3 0 0 0-.588.124 3 3 0 0 0-.464.26q-.219.135-.438.26-.219.108-.492.109a.76.76 0 0 1-.52-.192.64.64 0 0 1-.205-.492q0-.45.26-.82.273-.369.67-.616.41-.26.875-.396.479-.15.875-.15.369 0 .738.095.37.082.698.274.327.178.587.451.275.26.438.615.246.506.397 1.08.15.56.232 1.162.082.588.11 1.19.026.588.027 1.148m-2.188-.437-.04-.93h-.056a.1.1 0 0 0-.054-.014q-.179 0-.451.096a2 2 0 0 0-.506.246 2 2 0 0 0-.424.342.6.6 0 0 0-.164.397q0 .19.136.26a.7.7 0 0 0 .315.068q.3 0 .643-.15.341-.165.601-.315m4.977 1.64q0 .22-.123.56a4 4 0 0 1-.287.67q-.164.33-.383.561-.219.233-.424.233-.273 0-.274-.274 0-.164.069-.314.067-.15.15-.3.083-.138.15-.288a.6.6 0 0 0 .069-.273.77.77 0 0 1-.438.136.69.69 0 0 1-.533-.246.8.8 0 0 1-.219-.547q0-.437.288-.697.286-.273.724-.273.492 0 .862.26.369.26.369.792m9.652-1.203q0 .246-.027.643a3.7 3.7 0 0 1-.11.78q-.095.368-.3.642a.68.68 0 0 1-.575.273q-.506 0-.779-.328t-.26-.82a3.3 3.3 0 0 1-.998.601 3 3 0 0 1-1.12.219q-.398 0-.753-.191a2.4 2.4 0 0 1-.629-.493 2.5 2.5 0 0 1-.437-.67 1.9 1.9 0 0 1-.164-.751q0-.656.396-1.149.41-.492.998-.834a5.7 5.7 0 0 1 1.244-.56 7.5 7.5 0 0 1 1.19-.274v-.123a.5.5 0 0 0 .013-.123q0-.423-.232-.684-.233-.26-.656-.26a1.3 1.3 0 0 0-.588.124 3 3 0 0 0-.465.26q-.22.135-.437.26-.219.108-.493.109a.76.76 0 0 1-.52-.192.64.64 0 0 1-.204-.492q0-.45.26-.82.273-.369.67-.616.41-.26.874-.396.479-.15.875-.15.37 0 .739.095.369.082.697.274.328.178.588.451.273.26.437.615.246.506.397 1.08.15.56.232 1.162.082.588.11 1.19.027.588.027 1.148m-2.187-.437-.041-.93h-.055a.1.1 0 0 0-.055-.014 1.4 1.4 0 0 0-.451.096 2 2 0 0 0-.506.246q-.246.15-.424.342a.6.6 0 0 0-.164.397q0 .19.137.26a.7.7 0 0 0 .314.068 1.6 1.6 0 0 0 .643-.15q.341-.165.602-.315m7.013-5.154q0 .396-.273.587-.26.192-.588.37-.328.163-.602.396-.26.232-.259.697 0 .246.109.424.123.178.287.328.178.137.383.287t.369.342q.177.192.287.465.123.273.123.67 0 .574-.301 1.135a3.7 3.7 0 0 1-.752.984q-.45.424-1.025.684-.574.26-1.135.26-.232 0-.465-.042a1.3 1.3 0 0 1-.423-.123.9.9 0 0 1-.301-.26.8.8 0 0 1-.123-.45q0-.384.15-.588.15-.219.383-.342.232-.123.492-.192.273-.068.506-.164.233-.11.383-.273.15-.165.15-.465 0-.287-.232-.588-.219-.315-.492-.656a7 7 0 0 1-.506-.752 1.8 1.8 0 0 1-.219-.875q0-.588.232-1.08.246-.507.643-.875.41-.37.93-.575a2.8 2.8 0 0 1 1.093-.218q.22 0 .424.04.22.042.383.151a.7.7 0 0 1 .26.274.75.75 0 0 1 .109.423m8.914 2.269a1 1 0 0 1-.013.15 1 1 0 0 1-.041.137q-.123.315-.383.533a.96.96 0 0 1-.615.205q-.533 0-.725-.533a.4.4 0 0 1-.027-.15 1.4 1.4 0 0 0-.014-.192v-.396a.8.8 0 0 0-.096-.3q-.068-.11-.232-.11-.233 0-.451.3-.205.288-.37.698-.15.397-.246.82-.095.424-.095.684 0 .204.027.506.028.287.109.56.082.273.219.479.15.19.383.191a.7.7 0 0 0 .424-.137q.205-.15.396-.342.178-.164.383-.341a.76.76 0 0 1 .492-.178q.342 0 .533.246a.85.85 0 0 1 .206.56q0 .465-.247.876a2.8 2.8 0 0 1-.615.697 3 3 0 0 1-.82.451 2.4 2.4 0 0 1-.861.178q-.74 0-1.258-.37a2.9 2.9 0 0 1-.821-.929 4.4 4.4 0 0 1-.451-1.244 6.4 6.4 0 0 1-.136-1.272q0-.697.191-1.504a5.7 5.7 0 0 1 .588-1.517 3.8 3.8 0 0 1 1.012-1.162q.629-.465 1.49-.465.533 0 .916.232.396.232.642.616.26.369.383.834.137.465.137.916v.136a1 1 0 0 1-.014.137m6.494 2.816q0 .466-.3.916a3.4 3.4 0 0 1-.739.793 4.3 4.3 0 0 1-.943.56 2.5 2.5 0 0 1-.93.206q-.725 0-1.299-.355a3.4 3.4 0 0 1-.943-.93 4.5 4.5 0 0 1-.588-1.23 5 5 0 0 1-.191-1.327q0-.684.191-1.463.192-.78.574-1.435.397-.657.985-1.094.601-.437 1.422-.437.465 0 .888.164a2.15 2.15 0 0 1 1.244 1.12q.192.397.192.89 0 .642-.274 1.203a3.2 3.2 0 0 1-.724.97 3.8 3.8 0 0 1-1.039.67 3.5 3.5 0 0 1-1.203.273q.054.397.314.575.274.178.643.178.273 0 .533-.137a6 6 0 0 0 .506-.301q.246-.177.478-.315.246-.136.492-.136.274 0 .493.178a.57.57 0 0 1 .218.464m-2.214-3.35a.8.8 0 0 0-.096-.368.32.32 0 0 0-.301-.192q-.3 0-.506.164-.205.15-.342.397a2.3 2.3 0 0 0-.218.506q-.069.273-.082.505.191-.04.451-.109a3 3 0 0 0 .506-.178q.246-.123.41-.3a.58.58 0 0 0 .178-.424m.765-4.853q0 .15-.082.301a1.4 1.4 0 0 1-.205.26q-.11.123-.246.232a10 10 0 0 0-.246.178q-.096.069-.219.164-.11.083-.246.164a2 2 0 0 1-.26.123.6.6 0 0 1-.246.055.33.33 0 0 1-.191-.055.24.24 0 0 1-.082-.191q0-.206.15-.492.165-.301.397-.575.233-.286.492-.478.26-.205.478-.205.192 0 .342.164.164.15.164.355m4.553 2.352q0 .738-.068 1.49-.055.738-.055 1.49 0 .971.055 1.942.068.97.068 1.955 0 .245-.027.56-.028.301-.137.56a1.05 1.05 0 0 1-.301.438q-.205.178-.547.178-.328 0-.574-.328a2.9 2.9 0 0 1-.397-.807q-.15-.505-.259-1.12-.096-.615-.151-1.19-.04-.588-.068-1.067-.014-.493-.014-.724 0-.26.014-.752.027-.492.096-1.067.067-.574.177-1.162a6.3 6.3 0 0 1 .315-1.08q.191-.492.451-.793.274-.315.643-.314.3 0 .451.205.164.192.232.478.069.274.082.588.014.3.014.52m7.027 4.375q0 .752-.15 1.49a4.1 4.1 0 0 1-.506 1.326 2.75 2.75 0 0 1-.957.93q-.588.355-1.477.355-.875 0-1.462-.341a2.8 2.8 0 0 1-.944-.93 4.2 4.2 0 0 1-.492-1.299 8 8 0 0 1-.137-1.477q0-.82.192-1.626.04-.22.15-.602.123-.397.301-.766.191-.383.424-.656.245-.273.533-.273a.62.62 0 0 1 .437.15q.165.15.26.383.096.219.123.478.028.247.028.452 0 .314-.055.615-.041.3-.096.601l-.109.82a8 8 0 0 0-.028 1.286q.028.246.11.478.081.233.232.397.15.15.424.15.356 0 .561-.191.218-.191.314-.479.11-.287.137-.615.027-.329.027-.602 0-.6-.082-1.175a43 43 0 0 1-.15-1.19 1.3 1.3 0 0 1 .246-.97.9.9 0 0 1 .301-.26.74.74 0 0 1 .396-.11q.301 0 .533.22.233.204.383.546.164.329.26.752.109.41.164.82.068.397.082.752.027.356.027.56m3.391-4.375q0 .738-.068 1.49-.055.738-.055 1.49 0 .971.055 1.942.068.97.068 1.955 0 .245-.027.56-.028.301-.137.56a1.05 1.05 0 0 1-.301.438q-.205.178-.547.178-.328 0-.574-.328a2.9 2.9 0 0 1-.397-.807q-.15-.505-.259-1.12-.096-.615-.151-1.19-.04-.588-.068-1.067-.014-.493-.014-.724 0-.26.014-.752.027-.492.096-1.067.067-.574.177-1.162a6.3 6.3 0 0 1 .315-1.08q.191-.492.451-.793.273-.315.643-.314.3 0 .451.205.164.192.232.478.069.274.082.588.014.3.014.52m6.849 6.357q0 .246-.027.643a3.7 3.7 0 0 1-.109.78q-.096.368-.301.642a.68.68 0 0 1-.574.273q-.506 0-.78-.328-.273-.328-.259-.82a3.4 3.4 0 0 1-.998.601 3 3 0 0 1-1.121.219q-.397 0-.752-.191a2.3 2.3 0 0 1-.629-.493 2.5 2.5 0 0 1-.438-.67 1.9 1.9 0 0 1-.164-.751q0-.656.397-1.149.41-.492.998-.834a5.7 5.7 0 0 1 1.244-.56 7.4 7.4 0 0 1 1.189-.274v-.123a.5.5 0 0 0 .014-.123q0-.423-.232-.684-.232-.26-.657-.26a1.3 1.3 0 0 0-.588.124q-.246.11-.464.26-.219.135-.438.26-.219.108-.492.109a.76.76 0 0 1-.52-.192.65.65 0 0 1-.205-.492q0-.45.26-.82.274-.369.67-.616.41-.26.875-.396.479-.15.875-.15.369 0 .738.095.37.082.697.274.328.178.588.451.274.26.438.615.246.506.396 1.08.151.56.233 1.162.081.588.109 1.19.027.588.027 1.148m-2.187-.437-.041-.93h-.055a.1.1 0 0 0-.054-.014q-.178 0-.452.096a2 2 0 0 0-.505.246 2 2 0 0 0-.424.342.6.6 0 0 0-.164.397q0 .19.136.26a.7.7 0 0 0 .315.068q.3 0 .642-.15.342-.165.602-.315m7.014-5.154q0 .396-.274.587-.26.192-.588.37-.327.163-.601.396-.26.232-.26.697 0 .246.109.424.123.178.287.328.179.137.383.287t.369.342q.179.192.288.465.123.273.123.67 0 .574-.301 1.135a3.73 3.73 0 0 1-1.778 1.668q-.574.26-1.134.26-.233 0-.465-.042a1.3 1.3 0 0 1-.424-.123.9.9 0 0 1-.301-.26.8.8 0 0 1-.123-.45q0-.384.151-.588.15-.219.382-.342t.493-.192q.273-.068.505-.164.233-.11.383-.273.151-.165.151-.465 0-.287-.233-.588-.219-.315-.492-.656a7 7 0 0 1-.506-.752 1.8 1.8 0 0 1-.219-.875q0-.588.233-1.08.246-.507.642-.875.411-.37.93-.575a2.8 2.8 0 0 1 1.094-.218q.219 0 .424.04.219.042.383.151a.7.7 0 0 1 .259.274q.11.163.11.423m9.734-1.477q0 .998-.082 1.982a30 30 0 0 0-.027 3.582q.054.793.054 1.6 0 .22-.013.533-.013.3-.096.588a1.15 1.15 0 0 1-.246.492q-.164.205-.479.205a.88.88 0 0 1-.683-.3 1.5 1.5 0 0 1-.328-.698 2.35 2.35 0 0 1-.752.834 1.83 1.83 0 0 1-1.067.342q-.615 0-1.066-.424a3.7 3.7 0 0 1-.738-1.025 6 6 0 0 1-.438-1.258 5.7 5.7 0 0 1-.137-1.135 8.6 8.6 0 0 1 .178-1.668q.11-.45.274-.875a3.3 3.3 0 0 1 .41-.779q.26-.342.601-.547.356-.205.807-.205.492 0 .943.287.452.288.684.711l.123-2.174q.014-.26.041-.601a4 4 0 0 1 .109-.67q.096-.315.287-.533.192-.22.561-.22.396 0 .615.192t.315.492q.11.287.123.63.027.34.027.642m-2.228 6.07q0-.314-.014-.615a7 7 0 0 1 0-.615 8 8 0 0 0-.192-.383 1.7 1.7 0 0 0-.273-.396 1.4 1.4 0 0 0-.342-.315.74.74 0 0 0-.41-.123.54.54 0 0 0-.396.15.9.9 0 0 0-.219.37 2 2 0 0 0-.096.45 8 8 0 0 0-.014.425q0 .164.028.492.027.314.095.642.082.328.219.575.137.245.369.246a1 1 0 0 0 .356-.069q.177-.082.328-.191.164-.123.301-.26.15-.15.26-.273zm8.859.492q0 .466-.301.916a3.3 3.3 0 0 1-.738.793 4.3 4.3 0 0 1-.944.56 2.5 2.5 0 0 1-.929.206q-.725 0-1.299-.355a3.4 3.4 0 0 1-.943-.93 4.5 4.5 0 0 1-.588-1.23 5 5 0 0 1-.192-1.327q0-.684.192-1.463.191-.78.574-1.435a3.8 3.8 0 0 1 .984-1.094q.601-.437 1.422-.437.465 0 .889.164a2.15 2.15 0 0 1 1.244 1.12q.191.397.191.89 0 .642-.273 1.203a3.2 3.2 0 0 1-.725.97q-.45.41-1.039.67a3.5 3.5 0 0 1-1.203.273q.055.397.315.575.273.178.642.178.273 0 .533-.137a6 6 0 0 0 .506-.301 6 6 0 0 1 .479-.315q.246-.136.492-.136a.76.76 0 0 1 .492.178.57.57 0 0 1 .219.464m-2.215-3.35a.8.8 0 0 0-.096-.368.315.315 0 0 0-.3-.192.78.78 0 0 0-.506.164q-.205.15-.342.397a2.3 2.3 0 0 0-.219.506q-.068.273-.082.505.192-.04.451-.109.274-.068.506-.178.246-.123.41-.3a.58.58 0 0 0 .178-.424m11.949-3.212q0 .998-.082 1.982a29 29 0 0 0-.068 1.983q0 .806.041 1.6.055.792.055 1.599 0 .22-.014.533-.013.3-.096.588a1.1 1.1 0 0 1-.246.492q-.164.205-.478.205a.89.89 0 0 1-.684-.3 1.5 1.5 0 0 1-.328-.698 2.34 2.34 0 0 1-.752.834 1.83 1.83 0 0 1-1.066.342q-.616 0-1.067-.424a3.7 3.7 0 0 1-.738-1.025 6 6 0 0 1-.438-1.258 5.7 5.7 0 0 1-.136-1.135q0-.341.041-.779t.136-.889q.11-.45.274-.875a3.3 3.3 0 0 1 .41-.779 2.1 2.1 0 0 1 .602-.547 1.6 1.6 0 0 1 .806-.205q.492 0 .944.287.45.288.683.711l.123-2.174q.014-.26.041-.601.027-.355.11-.67.095-.315.287-.533.19-.22.56-.22.397 0 .615.192.219.192.315.492.11.287.123.63.027.34.027.642m-2.228 6.07q0-.314-.014-.615a7 7 0 0 1 0-.615 8 8 0 0 0-.191-.383 1.7 1.7 0 0 0-.274-.396 1.4 1.4 0 0 0-.342-.315.74.74 0 0 0-.41-.123.54.54 0 0 0-.396.15q-.15.15-.219.37a2.2 2.2 0 0 0-.096.45 8 8 0 0 0-.013.425q0 .164.027.492.027.314.096.642.081.328.218.575.138.245.37.246a1 1 0 0 0 .355-.069q.178-.082.328-.191.165-.123.301-.26.15-.15.26-.273zm8.859.492q0 .466-.301.916a3.3 3.3 0 0 1-.738.793 4.3 4.3 0 0 1-.943.56 2.5 2.5 0 0 1-.93.206q-.725 0-1.299-.355a3.4 3.4 0 0 1-.943-.93 4.5 4.5 0 0 1-.588-1.23 5 5 0 0 1-.191-1.327q0-.684.191-1.463.192-.78.574-1.435.396-.657.985-1.094.602-.437 1.421-.437.465 0 .889.164.424.15.738.437.315.287.506.684.192.396.192.888 0 .643-.274 1.204a3.2 3.2 0 0 1-.724.97 3.9 3.9 0 0 1-1.039.67 3.5 3.5 0 0 1-1.204.273q.056.397.315.575.273.178.642.178.274 0 .534-.137t.505-.301q.247-.177.479-.315.246-.136.492-.136.274 0 .492.178a.57.57 0 0 1 .219.464m-2.215-3.35a.8.8 0 0 0-.095-.368.32.32 0 0 0-.301-.192.8.8 0 0 0-.506.164q-.205.15-.342.397a2.3 2.3 0 0 0-.219.506q-.068.273-.082.505.191-.04.452-.109a3 3 0 0 0 .505-.178 1.4 1.4 0 0 0 .411-.3.58.58 0 0 0 .177-.424m8.491-2.392q0 .26-.055.506a1 1 0 0 1-.164.41.9.9 0 0 1-.328.287 1.2 1.2 0 0 1-.506.096q-.342 0-.506-.137a.75.75 0 0 1-.232-.328 1.7 1.7 0 0 1-.055-.437q0-.232-.028-.424a.76.76 0 0 0-.095-.342q-.082-.137-.301-.137-.206 0-.342.315-.123.315-.205.724a6 6 0 0 0-.109.807 9 9 0 0 0-.028.52 5 5 0 0 1 .342-.041 2.2 2.2 0 0 1 .752.013q.205.041.383.137a.7.7 0 0 1 .287.246q.11.15.109.383 0 .246-.218.437a1.9 1.9 0 0 1-.506.328q-.288.123-.588.206a5 5 0 0 1-.479.109q.041.943.041 1.9 0 .903-.041 1.778a1.05 1.05 0 0 1-.3.697q-.26.273-.684.273a.77.77 0 0 1-.396-.095.75.75 0 0 1-.274-.233 1.4 1.4 0 0 1-.178-.342 2 2 0 0 1-.068-.396 48 48 0 0 1-.109-1.64q-.042-.835-.028-1.669-.095.015-.191.014h-.178a2.3 2.3 0 0 1-.847-.178 1.5 1.5 0 0 1-.356-.26.52.52 0 0 1-.15-.382q0-.301.205-.506.19-.205.465-.328.287-.137.587-.192.315-.054.547-.082v-.218q0-.67.123-1.436t.438-1.422a3 3 0 0 1 .861-1.08q.548-.437 1.395-.437.533 0 .916.232.383.219.629.588.246.355.355.82.11.451.11.916m5.222 5.742q0 .466-.301.916a3.3 3.3 0 0 1-.738.793 4.3 4.3 0 0 1-.943.56 2.5 2.5 0 0 1-.93.206q-.725 0-1.299-.355a3.4 3.4 0 0 1-.943-.93 4.5 4.5 0 0 1-.588-1.23 5 5 0 0 1-.191-1.327q0-.684.191-1.463.192-.78.574-1.435.397-.657.985-1.094.602-.437 1.421-.437.465 0 .889.164.424.15.738.437.315.287.506.684.192.396.192.888 0 .643-.274 1.204a3.2 3.2 0 0 1-.724.97 3.9 3.9 0 0 1-1.039.67 3.5 3.5 0 0 1-1.204.273q.055.397.315.575.273.178.642.178.274 0 .534-.137.259-.137.506-.301.246-.177.478-.315.246-.136.492-.136.274 0 .492.178a.57.57 0 0 1 .219.464m-2.215-3.35a.8.8 0 0 0-.095-.368.32.32 0 0 0-.301-.192.8.8 0 0 0-.506.164q-.206.15-.342.397a2.3 2.3 0 0 0-.219.506q-.067.273-.082.505.191-.04.452-.109a3 3 0 0 0 .505-.178q.247-.123.411-.3a.58.58 0 0 0 .177-.424m6.768-1.736q0 .397-.274.588-.26.192-.587.37-.329.163-.602.396-.26.232-.26.697 0 .246.11.424.122.178.287.328.177.137.383.287.204.15.369.342.177.192.287.465.123.273.123.67 0 .574-.301 1.135a3.7 3.7 0 0 1-.752.984q-.451.424-1.025.684t-1.135.26q-.233 0-.465-.042a1.3 1.3 0 0 1-.424-.123.9.9 0 0 1-.3-.26.77.77 0 0 1-.124-.45q0-.384.151-.588.15-.219.383-.342t.492-.192q.273-.068.506-.164.232-.11.383-.273.15-.165.15-.465 0-.287-.233-.588-.218-.315-.492-.656a7 7 0 0 1-.506-.752 1.8 1.8 0 0 1-.218-.875q0-.588.232-1.08.246-.507.643-.875.41-.37.929-.575a2.8 2.8 0 0 1 1.094-.218q.219 0 .424.04.218.042.383.151a.7.7 0 0 1 .26.274q.109.163.109.423m6.357 5.592q0 .246-.027.643a3.8 3.8 0 0 1-.109.78q-.096.368-.301.642a.68.68 0 0 1-.574.273q-.506 0-.78-.328-.273-.328-.259-.82a3.4 3.4 0 0 1-.998.601 3 3 0 0 1-1.122.219q-.396 0-.752-.191a2.47 2.47 0 0 1-1.066-1.162 1.9 1.9 0 0 1-.164-.752q0-.656.396-1.149.411-.492.999-.834a5.6 5.6 0 0 1 1.244-.56 7.4 7.4 0 0 1 1.189-.274v-.123a.5.5 0 0 0 .014-.123q0-.423-.233-.684-.232-.26-.656-.26a1.3 1.3 0 0 0-.588.124q-.246.11-.465.26a10 10 0 0 1-.437.26q-.219.108-.492.109a.76.76 0 0 1-.52-.192.64.64 0 0 1-.205-.492q0-.45.26-.82.273-.369.67-.616.41-.26.875-.396.478-.15.875-.15.369 0 .738.095.37.082.697.274.328.178.588.451.274.26.438.615.246.506.396 1.08.15.56.233 1.162.082.588.109 1.19.027.588.027 1.148m-2.187-.437-.041-.93h-.055a.1.1 0 0 0-.055-.014q-.177 0-.451.096a2 2 0 0 0-.506.246q-.246.15-.423.342a.6.6 0 0 0-.164.397q0 .19.136.26a.7.7 0 0 0 .315.068q.3 0 .642-.15.342-.165.602-.315m12.195-6.631q0 .998-.082 1.982a30 30 0 0 0-.027 3.582q.054.793.054 1.6 0 .22-.013.533-.013.3-.096.588a1.14 1.14 0 0 1-.246.492q-.164.205-.479.205a.88.88 0 0 1-.683-.3 1.5 1.5 0 0 1-.328-.698 2.34 2.34 0 0 1-.752.834 1.83 1.83 0 0 1-1.067.342q-.615 0-1.066-.424a3.7 3.7 0 0 1-.738-1.025 6 6 0 0 1-.438-1.258 5.7 5.7 0 0 1-.137-1.135q0-.341.042-.779a8 8 0 0 1 .136-.889q.11-.45.274-.875a3.3 3.3 0 0 1 .41-.779 2.1 2.1 0 0 1 .601-.547q.355-.205.807-.205.493 0 .943.287.451.288.684.711l.123-2.174q.014-.26.041-.601a4 4 0 0 1 .109-.67q.096-.315.288-.533.19-.22.56-.22.396 0 .615.192t.315.492q.11.287.123.63.027.34.027.642m-2.228 6.07q0-.314-.014-.615a7 7 0 0 1 0-.615 9 9 0 0 0-.191-.383 1.7 1.7 0 0 0-.274-.396 1.4 1.4 0 0 0-.342-.315.74.74 0 0 0-.41-.123.54.54 0 0 0-.396.15.9.9 0 0 0-.219.37 2 2 0 0 0-.096.45 8 8 0 0 0-.013.425q0 .164.027.492.027.314.096.642.081.328.218.575.137.245.369.246a1 1 0 0 0 .356-.069q.178-.082.328-.191.164-.123.301-.26.15-.15.26-.273zm5.728 3.323q-.697 0-1.217-.37a3.2 3.2 0 0 1-.875-.943 4.5 4.5 0 0 1-.533-1.272 5.8 5.8 0 0 1-.178-1.394q0-.725.178-1.49.178-.78.547-1.408a3.15 3.15 0 0 1 .943-1.04q.575-.41 1.368-.41.765 0 1.298.424.548.41.875 1.04.328.614.465 1.353.137.738.096 1.394-.041.725-.232 1.463a4.7 4.7 0 0 1-.534 1.326 3 3 0 0 1-.902.957q-.547.37-1.299.37m.137-6.18q-.206 0-.369.218a2.2 2.2 0 0 0-.26.534 5 5 0 0 0-.15.67 4 4 0 0 0-.055.601q0 .329.055.711.068.383.177.711.11.315.26.533.164.205.369.205.219 0 .369-.205.165-.205.26-.52.096-.314.137-.683.04-.383.041-.71 0-.302-.055-.657a3.7 3.7 0 0 0-.164-.684 1.5 1.5 0 0 0-.26-.52q-.15-.204-.355-.204M52.9 68.383q-.232 0-.37-.219a1.5 1.5 0 0 1-.205-.478 4 4 0 0 1-.095-.547 8 8 0 0 1 .027-1.258l.11-.82q.068-.41.109-.82.055-.411.055-.821 0-.165-.014-.355a1.5 1.5 0 0 0-.069-.356.6.6 0 0 0-.15-.287.4.4 0 0 0-.287-.11q-.123 0-.273.206-.15.191-.288.45a5 5 0 0 0-.218.507 1.3 1.3 0 0 0-.082.369v.615q.013.3.013.615v.793q-.013.246-.04.506a5 5 0 0 1-.083.506 3 3 0 0 1-.123.478 1.5 1.5 0 0 1-.218.397q-.123.164-.301.273a.8.8 0 0 1-.424.11.6.6 0 0 1-.451-.178 1.3 1.3 0 0 1-.287-.451 3 3 0 0 1-.164-.63q-.041-.354-.069-.683a16 16 0 0 1-.014-.615q.014-.287.014-.451v-.643q0-.52-.027-1.025-.014-.506-.014-1.012v-.697q.015-.424.11-.82.095-.41.314-.698.219-.287.643-.287.19 0 .341.123.15.124.26.301.123.178.191.383.082.205.124.355.136-.19.314-.369.192-.177.424-.314a2.2 2.2 0 0 1 1.176-.301q.698 0 1.08.342.397.328.574.834.192.492.232 1.066.042.575.041 1.04 0 .231-.04.697-.042.45-.137 1.011-.083.547-.233 1.135-.15.575-.355 1.053a2.6 2.6 0 0 1-.492.779q-.274.3-.63.3m5.25.014q-.697 0-1.217-.37a3.2 3.2 0 0 1-.875-.943 4.5 4.5 0 0 1-.533-1.272 5.7 5.7 0 0 1-.178-1.394q0-.725.178-1.49.177-.78.547-1.408.369-.643.943-1.04.574-.41 1.367-.41.766 0 1.299.424.546.41.875 1.04.328.614.465 1.353.136.738.096 1.394-.041.725-.233 1.463a4.6 4.6 0 0 1-.533 1.326q-.356.588-.902.957-.547.37-1.3.37m.136-6.18q-.205 0-.369.218-.15.219-.26.534-.094.315-.15.67a4 4 0 0 0-.055.601q0 .328.055.711.069.383.178.711.11.314.26.533.163.205.369.205.219 0 .369-.205.164-.204.26-.52.095-.314.136-.683.042-.383.041-.71 0-.301-.054-.657a4 4 0 0 0-.164-.684 1.5 1.5 0 0 0-.26-.52q-.15-.204-.356-.204m7.534-1.736q0 .396-.274.587-.26.192-.588.37-.328.163-.601.396-.26.232-.26.697 0 .246.11.424.122.178.286.328.179.137.383.287t.37.342q.177.192.287.465.123.273.123.67 0 .574-.301 1.135a3.73 3.73 0 0 1-1.777 1.668q-.575.26-1.135.26-.233 0-.465-.042a1.3 1.3 0 0 1-.424-.123.9.9 0 0 1-.3-.26.8.8 0 0 1-.124-.45q0-.384.15-.588.15-.219.383-.342t.493-.192q.273-.068.505-.164a1.2 1.2 0 0 0 .383-.273q.15-.164.15-.465 0-.287-.232-.588-.219-.314-.492-.656a7 7 0 0 1-.506-.752 1.8 1.8 0 0 1-.219-.875q0-.588.233-1.08a2.9 2.9 0 0 1 .642-.875q.411-.37.93-.575a2.8 2.8 0 0 1 1.094-.218q.219 0 .424.04.218.042.383.151.163.096.26.274.109.163.109.423m4.552 0q0 .396-.273.587-.26.192-.588.37-.329.163-.602.396-.26.232-.26.697 0 .246.11.424.123.178.287.328.178.137.383.287t.37.342q.177.192.286.465.123.273.123.67 0 .574-.3 1.135a3.7 3.7 0 0 1-.752.984q-.451.424-1.026.684-.573.26-1.135.26-.233 0-.465-.042a1.3 1.3 0 0 1-.423-.123.9.9 0 0 1-.301-.26.8.8 0 0 1-.123-.45q0-.384.15-.588.15-.219.383-.342a2.3 2.3 0 0 1 .492-.192q.274-.068.506-.164.233-.11.383-.273t.15-.465q0-.287-.232-.588a12 12 0 0 0-.492-.656 7 7 0 0 1-.506-.752 1.8 1.8 0 0 1-.219-.875q0-.588.233-1.08a2.9 2.9 0 0 1 .642-.875q.41-.37.93-.575a2.8 2.8 0 0 1 1.094-.218q.218 0 .423.04.22.042.383.151.164.096.26.274.11.163.11.423m3.145 7.916q-.697 0-1.217-.37a3.2 3.2 0 0 1-.875-.943 4.5 4.5 0 0 1-.533-1.272 5.7 5.7 0 0 1-.178-1.394q0-.725.178-1.49.177-.78.547-1.408.369-.643.943-1.04.575-.41 1.367-.41.766 0 1.3.424.546.41.874 1.04.328.614.465 1.353.136.738.096 1.394-.041.725-.233 1.463a4.7 4.7 0 0 1-.533 1.326q-.356.588-.902.957-.547.37-1.3.37m.137-6.18q-.205 0-.37.218-.15.219-.26.534-.095.315-.15.67a4 4 0 0 0-.054.601q0 .328.054.711.069.383.178.711.11.314.26.533.164.205.369.205.219 0 .37-.205.163-.204.259-.52.096-.314.136-.683.042-.383.042-.71 0-.301-.055-.657a4 4 0 0 0-.164-.684 1.5 1.5 0 0 0-.26-.52q-.15-.204-.355-.204m11.894.533a.8.8 0 0 1-.055.287q-.123.315-.382.533a.96.96 0 0 1-.616.205q-.533 0-.724-.533a.4.4 0 0 1-.028-.15q0-.096-.013-.192v-.396a.8.8 0 0 0-.096-.3q-.069-.11-.232-.11-.233 0-.451.3-.205.288-.37.698-.15.397-.246.82-.096.424-.095.684 0 .204.027.506a3 3 0 0 0 .11.56q.081.273.218.479.15.19.383.191a.7.7 0 0 0 .424-.137q.205-.15.396-.341.178-.165.383-.342a.76.76 0 0 1 .492-.178q.342 0 .533.246.205.246.205.56 0 .465-.246.876-.246.396-.615.697-.37.287-.82.451a2.4 2.4 0 0 1-.862.178q-.738 0-1.257-.37a2.9 2.9 0 0 1-.82-.929 4.4 4.4 0 0 1-.452-1.244 6.4 6.4 0 0 1-.137-1.272q0-.697.192-1.504a5.7 5.7 0 0 1 .588-1.517 3.8 3.8 0 0 1 1.011-1.162q.63-.465 1.49-.465.534 0 .917.232.396.232.642.616.26.369.383.834.137.465.137.916v.136a.7.7 0 0 1-.014.137m3.363 5.647q-.697 0-1.216-.37a3.2 3.2 0 0 1-.875-.943 4.5 4.5 0 0 1-.534-1.272 5.7 5.7 0 0 1-.177-1.394q0-.725.177-1.49.178-.78.547-1.408.368-.643.944-1.04.573-.41 1.367-.41.765 0 1.299.424.546.41.875 1.04.327.614.465 1.353.136.738.095 1.394-.041.725-.232 1.463a4.7 4.7 0 0 1-.533 1.326q-.355.588-.903.957-.546.37-1.299.37m.137-6.18q-.206 0-.369.218-.15.219-.26.534-.096.315-.15.67a4 4 0 0 0-.055.601q0 .328.055.711.068.383.177.711.11.314.26.533.165.205.37.205.218 0 .369-.205.164-.204.26-.52.095-.314.136-.683.04-.383.041-.71 0-.301-.055-.657a4 4 0 0 0-.164-.684 1.5 1.5 0 0 0-.26-.52q-.15-.204-.355-.204m8.272.67a.9.9 0 0 1-.328-.028l-.274-.109a3 3 0 0 0-.246-.096.54.54 0 0 0-.273-.04q-.274.013-.493.15a2 2 0 0 0-.383.341q-.164.205-.287.465a3 3 0 0 0-.191.492q-.04.165-.068.506-.014.33-.014.711-.014.397-.014.752 0 .356-.027.56-.015.22-.068.52a2.3 2.3 0 0 1-.178.547 1.25 1.25 0 0 1-.3.438.7.7 0 0 1-.493.177.65.65 0 0 1-.41-.136 1.3 1.3 0 0 1-.287-.356 3.3 3.3 0 0 1-.192-.533 7 7 0 0 1-.11-.615q-.04-.329-.067-.656l-.028-.616v-.547q.014-.246.014-.396a17 17 0 0 0-.055-.957 18 18 0 0 1-.027-.97q0-.302.027-.67a2.3 2.3 0 0 1 .15-.684q.124-.328.356-.547.246-.219.67-.219.233 0 .396.15.164.15.26.37.11.218.164.465.056.245.069.45.327-.533.738-.86.41-.343 1.066-.37.328-.014.643.069.328.068.588.246.273.164.437.437.179.273.192.643.027.437-.26.67a1.14 1.14 0 0 1-.697.246m7.423 1.039q0 .6-.136 1.326a4.6 4.6 0 0 1-.438 1.326q-.3.615-.806 1.025-.493.41-1.245.41-.19 0-.396-.027a2 2 0 0 1-.397-.095 1.5 1.5 0 0 1-.328-.178.8.8 0 0 1-.232-.315l-.123 1.97q-.014.314-.027.751 0 .438-.11.834a1.5 1.5 0 0 1-.342.67q-.232.287-.683.287-.26 0-.438-.273a2.2 2.2 0 0 1-.287-.67 8 8 0 0 1-.15-.916q-.056-.507-.069-.97-.013-.465-.013-.849v-.56q0-.915-.014-1.819-.015-.915-.014-1.831v-.506q0-.356.028-.766.027-.41.082-.848.069-.437.191-.793a1.7 1.7 0 0 1 .315-.587.58.58 0 0 1 .465-.233.5.5 0 0 1 .314.11q.15.095.246.26.11.15.178.327t.109.329q.424-.48.971-.725.56-.246 1.189-.246.657 0 1.067.369.423.369.656.916.246.546.342 1.176.095.615.095 1.12m-1.955-.11a2 2 0 0 0-.041-.41 1.1 1.1 0 0 0-.123-.396.66.66 0 0 0-.246-.301.66.66 0 0 0-.41-.123q-.328 0-.697.219a1.5 1.5 0 0 0-.533.478q-.069.11-.082.356-.014.246-.014.369v.26l.027.314q.013.164.028.315.027.15.068.232.04.123.178.232.136.096.3.178t.329.123q.177.04.3.041a.57.57 0 0 0 .465-.219q.178-.218.274-.52.11-.3.136-.614a4 4 0 0 0 .041-.534m5.387 4.58q-.697 0-1.217-.369a3.2 3.2 0 0 1-.875-.943 4.5 4.5 0 0 1-.533-1.272 5.8 5.8 0 0 1-.178-1.394q0-.725.178-1.49.178-.78.547-1.408.369-.643.943-1.04.575-.41 1.367-.41.766 0 1.299.424.548.41.875 1.04.328.614.465 1.353.137.738.096 1.394-.04.725-.233 1.463a4.6 4.6 0 0 1-.533 1.326q-.356.588-.902.957-.547.37-1.299.37m.137-6.18q-.206 0-.369.22a2.2 2.2 0 0 0-.26.533 5 5 0 0 0-.151.67 4 4 0 0 0-.054.601q0 .328.054.711.069.383.178.711.11.314.26.533.163.205.369.205.219 0 .369-.205.165-.204.26-.52.095-.314.137-.683.04-.383.041-.71 0-.301-.055-.657a3.7 3.7 0 0 0-.164-.684 1.5 1.5 0 0 0-.26-.52q-.15-.204-.355-.204m12.633 3.856q0 .246-.028.643a3.7 3.7 0 0 1-.109.78q-.096.368-.301.642a.68.68 0 0 1-.574.273q-.506 0-.779-.328-.274-.328-.26-.82a3.4 3.4 0 0 1-.998.601 3 3 0 0 1-1.121.219q-.397 0-.752-.191a2.3 2.3 0 0 1-.629-.493 2.5 2.5 0 0 1-.438-.67 1.9 1.9 0 0 1-.164-.751q0-.656.397-1.149.41-.492.998-.834a5.7 5.7 0 0 1 1.244-.56 7.5 7.5 0 0 1 1.189-.274v-.123a.5.5 0 0 0 .014-.123q0-.423-.232-.684-.233-.26-.657-.26-.34 0-.588.124-.246.11-.464.26-.219.135-.438.26-.219.108-.492.109a.76.76 0 0 1-.52-.192.65.65 0 0 1-.205-.492q0-.45.26-.82.273-.369.67-.616.41-.26.875-.396.479-.15.875-.15.369 0 .738.095.37.082.698.274.327.178.587.451.275.26.438.615.246.506.396 1.08.151.56.233 1.162.082.588.109 1.19.028.588.028 1.148m-2.188-.437-.041-.93h-.055a.1.1 0 0 0-.054-.014q-.178 0-.451.096a2 2 0 0 0-.506.246 2 2 0 0 0-.424.342.6.6 0 0 0-.164.397q0 .19.137.26a.7.7 0 0 0 .314.068q.3 0 .643-.15.341-.165.601-.315m6.193 2.857q-.97 0-1.517-.26a1.76 1.76 0 0 1-.807-.71q-.26-.465-.314-1.122a18 18 0 0 1-.055-1.463q0-.642.041-1.285.04-.656.123-1.394-.191 0-.301.014h-.177q-.438 0-.752-.192a.63.63 0 0 1-.328-.588.6.6 0 0 1 .191-.437q.177-.192.465-.328.286-.137.615-.22.342-.08.643-.109 0-.382.054-.847.056-.465.192-.861.15-.411.396-.684a.8.8 0 0 1 .629-.274.58.58 0 0 1 .383.137.9.9 0 0 1 .287.328q.11.192.164.438t.055.478q0 .275-.041.56a7 7 0 0 1-.151.712q.233-.028.315-.028a1 1 0 0 1 .15-.013q.233 0 .479.04.26.042.465.138.218.095.355.26a.53.53 0 0 1 .137.368q0 .247-.205.438a1.7 1.7 0 0 1-.492.328 3.6 3.6 0 0 1-.643.219 6 6 0 0 1-.643.096q-.081.56-.123 1.038-.027.465-.068.944l-.055.478a8 8 0 0 0 0 .903q.014.233.096.45a1 1 0 0 0 .26.384q.177.15.492.15.192 0 .396-.027a2 2 0 0 1 .411-.041q.355 0 .505.246.165.246.164.629a.78.78 0 0 1-.177.506q-.165.204-.424.328a2.2 2.2 0 0 1-.588.205q-.314.068-.602.068m7.875-2.42q0 .246-.027.643a3.7 3.7 0 0 1-.109.78q-.096.368-.301.642a.68.68 0 0 1-.574.273q-.506 0-.78-.328-.273-.328-.259-.82a3.4 3.4 0 0 1-.998.601 3 3 0 0 1-1.121.219q-.397 0-.752-.191a2.3 2.3 0 0 1-.629-.493 2.5 2.5 0 0 1-.438-.67 1.9 1.9 0 0 1-.164-.751q0-.656.397-1.149.41-.492.998-.834a5.7 5.7 0 0 1 1.244-.56 7.4 7.4 0 0 1 1.189-.274v-.123a.5.5 0 0 0 .014-.123q0-.423-.233-.684-.231-.26-.656-.26a1.3 1.3 0 0 0-.588.124q-.246.11-.464.26-.219.135-.438.26-.219.108-.492.109a.76.76 0 0 1-.52-.192.65.65 0 0 1-.205-.492q0-.45.26-.82.274-.369.67-.616.41-.26.875-.396.479-.15.875-.15.369 0 .738.095.37.082.697.274.329.178.588.451.274.26.438.615.246.506.396 1.08.151.56.233 1.162.082.588.109 1.19.027.588.027 1.148m-2.187-.437-.041-.93h-.055a.1.1 0 0 0-.054-.014q-.178 0-.452.096a2 2 0 0 0-.505.246q-.247.15-.424.342a.6.6 0 0 0-.164.397q0 .19.136.26a.7.7 0 0 0 .315.068q.3 0 .642-.15.342-.165.602-.315m8.08-2.885a.7.7 0 0 1-.055.287q-.123.315-.382.533a.97.97 0 0 1-.616.205q-.533 0-.724-.533a.4.4 0 0 1-.028-.15q0-.096-.013-.192v-.396a.8.8 0 0 0-.096-.3q-.069-.11-.232-.11-.233 0-.452.3a3.4 3.4 0 0 0-.369.698q-.15.397-.246.82-.096.424-.096.684 0 .204.028.506.027.287.109.56t.219.479q.15.19.383.191a.7.7 0 0 0 .424-.137q.204-.15.396-.341.178-.165.383-.342a.76.76 0 0 1 .492-.178q.342 0 .533.246a.85.85 0 0 1 .205.56q0 .465-.246.876a2.8 2.8 0 0 1-.615.697q-.37.287-.82.451a2.4 2.4 0 0 1-.862.178q-.738 0-1.257-.37a2.9 2.9 0 0 1-.821-.929 4.4 4.4 0 0 1-.451-1.244 6.4 6.4 0 0 1-.137-1.272q0-.697.192-1.504a5.6 5.6 0 0 1 .588-1.517 3.8 3.8 0 0 1 1.011-1.162q.63-.465 1.491-.465.532 0 .916.232.396.232.642.616.26.369.383.834.137.465.137.916v.136a1 1 0 0 1-.014.137m6.576 3.322q0 .246-.027.643a3.7 3.7 0 0 1-.11.78q-.095.368-.3.642a.68.68 0 0 1-.575.273q-.506 0-.779-.328t-.26-.82a3.3 3.3 0 0 1-.998.601 3 3 0 0 1-1.121.219q-.396 0-.752-.191a2.4 2.4 0 0 1-.629-.493 2.5 2.5 0 0 1-.437-.67 1.9 1.9 0 0 1-.164-.751q0-.656.396-1.149.41-.492.998-.834a5.7 5.7 0 0 1 1.245-.56 7.4 7.4 0 0 1 1.189-.274v-.123a.5.5 0 0 0 .014-.123q0-.423-.233-.684-.232-.26-.656-.26a1.3 1.3 0 0 0-.588.124q-.246.11-.465.26-.218.135-.437.26-.219.108-.492.109a.76.76 0 0 1-.52-.192.64.64 0 0 1-.205-.492q0-.45.26-.82.273-.369.67-.616.41-.26.875-.396.478-.15.875-.15.369 0 .738.095.369.082.697.274.328.178.588.451.273.26.438.615.246.506.396 1.08.15.56.232 1.162.083.588.11 1.19.027.588.027 1.148m-2.187-.437-.041-.93h-.055a.1.1 0 0 0-.055-.014 1.4 1.4 0 0 0-.451.096 2 2 0 0 0-.506.246q-.246.15-.424.342a.6.6 0 0 0-.164.397q0 .19.137.26a.7.7 0 0 0 .315.068q.3 0 .642-.15.342-.165.602-.315m11.306-2.147v.711q0 .437-.027.957a10 10 0 0 1-.082 1.053 4.7 4.7 0 0 1-.219.943 2.2 2.2 0 0 1-.355.698.69.69 0 0 1-.561.273.53.53 0 0 1-.465-.246 2 2 0 0 1-.218-.602 4.4 4.4 0 0 1-.082-.697v-.56q0-.615.041-1.204.04-.587.041-1.203v-.246q0-.177-.028-.355a1 1 0 0 0-.095-.315q-.055-.136-.178-.136-.246 0-.397.26-.15.245-.246.587a4.5 4.5 0 0 0-.136.684 12 12 0 0 0-.055.492 8 8 0 0 0-.055.533q-.013.355-.055.78a8 8 0 0 1-.109.874q-.068.438-.191.807a1.9 1.9 0 0 1-.287.588.54.54 0 0 1-.438.233.56.56 0 0 1-.506-.288 2.1 2.1 0 0 1-.26-.67 6 6 0 0 1-.109-.779q-.014-.397-.014-.615v-.451q.014-.219.014-.451v-.315q0-.219-.014-.478 0-.275-.027-.56a4 4 0 0 0-.055-.52 1.3 1.3 0 0 0-.123-.397q-.081-.15-.191-.15-.178 0-.328.232-.15.22-.26.533a5 5 0 0 0-.178.602 3 3 0 0 0-.054.437v.082q0 .657.082 1.285.082.63.082 1.286 0 .383-.246.71-.246.315-.684.315a.66.66 0 0 1-.52-.232 2.1 2.1 0 0 1-.341-.63 5.4 5.4 0 0 1-.219-.833q-.069-.464-.096-.903-.027-.451-.041-.806v-.547q0-.205-.013-.602 0-.396.013-.861.028-.465.082-.943.055-.492.178-.889t.314-.643a.64.64 0 0 1 .52-.26q.355 0 .574.192.233.193.233.574 0 .083-.014.164a1 1 0 0 1-.014.15q.15-.217.369-.437.219-.232.465-.41.26-.192.547-.3.288-.124.574-.124a.85.85 0 0 1 .493.15q.218.15.382.383.165.22.274.479.11.26.15.492.137-.246.328-.492.206-.26.438-.451.232-.192.506-.315.286-.123.588-.123.286 0 .492.205.204.206.355.534.15.314.233.724.082.397.136.793.056.383.069.725.013.328.013.52m10.008 2.584q0 .246-.027.643a3.7 3.7 0 0 1-.11.78q-.095.368-.3.642a.68.68 0 0 1-.575.273q-.506 0-.779-.328t-.26-.82a3.3 3.3 0 0 1-.998.601 3 3 0 0 1-1.121.219q-.396 0-.752-.191a2.4 2.4 0 0 1-.629-.493 2.5 2.5 0 0 1-.437-.67 1.9 1.9 0 0 1-.164-.751q0-.656.396-1.149.41-.492.998-.834a5.7 5.7 0 0 1 1.244-.56 7.5 7.5 0 0 1 1.19-.274v-.123a.5.5 0 0 0 .014-.123q0-.423-.233-.684-.233-.26-.656-.26a1.3 1.3 0 0 0-.588.124q-.246.11-.465.26-.218.135-.437.26-.219.108-.492.109a.76.76 0 0 1-.52-.192.64.64 0 0 1-.205-.492q0-.45.26-.82.273-.369.67-.616.41-.26.875-.396.478-.15.875-.15.369 0 .738.095.369.082.697.274.329.178.588.451.273.26.438.615.246.506.396 1.08.15.56.232 1.162.083.588.11 1.19.027.588.027 1.148m-2.187-.437-.041-.93h-.055a.1.1 0 0 0-.055-.014 1.4 1.4 0 0 0-.451.096 2 2 0 0 0-.506.246q-.246.15-.424.342a.6.6 0 0 0-.164.397q0 .19.137.26a.7.7 0 0 0 .315.068q.3 0 .642-.15.341-.165.602-.315m7.013-5.155q0 .397-.273.588-.26.192-.588.37-.328.163-.602.396-.26.232-.259.697 0 .246.109.424.123.178.287.328.178.137.383.287t.369.342q.178.192.287.465.123.273.123.67 0 .574-.301 1.135a3.73 3.73 0 0 1-1.777 1.668q-.574.26-1.135.26-.233 0-.464-.042a1.3 1.3 0 0 1-.424-.123.9.9 0 0 1-.301-.26.8.8 0 0 1-.123-.45q0-.384.15-.588.151-.219.383-.342.233-.123.492-.192.274-.068.506-.164.233-.11.383-.273t.15-.465q0-.287-.232-.588-.219-.314-.492-.656a7 7 0 0 1-.506-.752 1.8 1.8 0 0 1-.219-.875q0-.588.233-1.08.246-.507.642-.875.41-.37.93-.575a2.8 2.8 0 0 1 1.094-.218q.218 0 .423.04.22.042.383.151.165.096.26.274a.75.75 0 0 1 .109.423m8.914 2.27a1 1 0 0 1-.013.15 1 1 0 0 1-.041.137q-.123.315-.383.533a.96.96 0 0 1-.615.205q-.534 0-.725-.533a.4.4 0 0 1-.027-.15 1.4 1.4 0 0 0-.014-.192v-.396a.8.8 0 0 0-.096-.3q-.068-.11-.232-.11-.232 0-.451.3a3.3 3.3 0 0 0-.369.698 6 6 0 0 0-.246.82q-.096.424-.096.684 0 .204.027.506.027.287.11.56.081.273.218.479a.47.47 0 0 0 .383.191.7.7 0 0 0 .424-.137q.206-.15.396-.341.178-.165.383-.342a.76.76 0 0 1 .492-.178.64.64 0 0 1 .534.246q.204.246.205.56 0 .465-.246.876-.246.396-.616.697a3 3 0 0 1-.82.451 2.4 2.4 0 0 1-.861.178q-.738 0-1.258-.37a2.9 2.9 0 0 1-.82-.929 4.4 4.4 0 0 1-.452-1.244 6.4 6.4 0 0 1-.136-1.272q0-.697.191-1.504a5.7 5.7 0 0 1 .588-1.517 3.8 3.8 0 0 1 1.012-1.162q.629-.465 1.49-.465.533 0 .916.232.396.232.643.616.26.369.382.834.137.465.137.916v.136a.6.6 0 0 1-.014.137m6.495 2.816q0 .466-.301.916a3.4 3.4 0 0 1-.739.793 4.3 4.3 0 0 1-.943.56 2.5 2.5 0 0 1-.93.206q-.725 0-1.298-.355a3.4 3.4 0 0 1-.944-.93 4.5 4.5 0 0 1-.588-1.23 5 5 0 0 1-.191-1.327q0-.683.191-1.463.192-.78.575-1.435a3.8 3.8 0 0 1 .984-1.094q.602-.437 1.422-.437.465 0 .888.164a2.15 2.15 0 0 1 1.245 1.12q.19.397.191.89 0 .642-.273 1.203a3.2 3.2 0 0 1-.725.97 3.8 3.8 0 0 1-1.039.67 3.5 3.5 0 0 1-1.203.273q.054.397.314.575.274.177.643.177.273 0 .533-.136a6 6 0 0 0 .506-.301q.246-.177.478-.314a1 1 0 0 1 .493-.137.76.76 0 0 1 .492.178.57.57 0 0 1 .219.464m-2.215-3.35a.8.8 0 0 0-.096-.368.32.32 0 0 0-.301-.192q-.3 0-.506.164-.204.15-.341.397a2.2 2.2 0 0 0-.219.506q-.069.273-.082.505.191-.04.451-.109a3 3 0 0 0 .506-.178q.246-.123.41-.3a.58.58 0 0 0 .178-.424m.765-4.853q0 .15-.082.301a1.3 1.3 0 0 1-.205.26q-.11.123-.246.232a10 10 0 0 0-.246.178q-.096.069-.219.164-.11.083-.246.164a2 2 0 0 1-.26.123.6.6 0 0 1-.246.055.34.34 0 0 1-.191-.055.24.24 0 0 1-.082-.191q0-.206.15-.492.165-.301.397-.575.232-.286.492-.478.26-.205.478-.205.192 0 .342.164.164.15.164.355m4.553 2.352q0 .738-.068 1.49-.055.738-.055 1.49 0 .971.055 1.942.068.97.068 1.955 0 .245-.027.56-.028.301-.137.56a1.05 1.05 0 0 1-.301.438q-.205.178-.547.178-.327 0-.574-.328a2.9 2.9 0 0 1-.396-.807 10 10 0 0 1-.26-1.12q-.096-.615-.151-1.19-.04-.588-.068-1.067-.014-.493-.014-.724 0-.26.014-.752.027-.492.096-1.067.068-.574.178-1.162.123-.6.314-1.08.192-.492.451-.793.273-.315.643-.314.3 0 .451.205.164.192.232.478.069.274.082.588.014.3.014.52m7.027 4.375q0 .752-.15 1.49a4.1 4.1 0 0 1-.506 1.326 2.75 2.75 0 0 1-.957.93q-.588.355-1.476.355-.876 0-1.463-.341a2.8 2.8 0 0 1-.944-.93 4.2 4.2 0 0 1-.492-1.299 8 8 0 0 1-.137-1.477q0-.82.192-1.626.04-.22.15-.602.123-.397.301-.766.192-.383.424-.656.246-.273.533-.273.273 0 .438.15.163.15.259.383.096.219.123.478.028.247.028.452 0 .314-.055.615-.04.3-.096.601l-.109.82a8 8 0 0 0-.027 1.286q.027.246.109.478.082.233.232.397.151.15.424.15.356 0 .561-.191.218-.191.314-.479.11-.287.137-.615.027-.329.027-.602 0-.6-.082-1.175a48 48 0 0 1-.15-1.19 1.3 1.3 0 0 1 .055-.602q.068-.204.191-.368a.9.9 0 0 1 .301-.26.74.74 0 0 1 .396-.11q.301 0 .533.22.233.204.383.546.165.329.26.752.11.41.164.82.069.397.082.752.027.356.027.56m3.391-4.375q0 .738-.068 1.49-.055.738-.055 1.49 0 .971.055 1.942.068.97.068 1.955 0 .245-.027.56-.028.301-.137.56a1.05 1.05 0 0 1-.301.438q-.205.178-.547.178-.327 0-.574-.328a2.9 2.9 0 0 1-.396-.807 10 10 0 0 1-.26-1.12q-.096-.615-.151-1.19-.04-.588-.068-1.067-.014-.493-.014-.724 0-.26.014-.752.027-.492.096-1.067.068-.574.178-1.162.123-.6.314-1.08.192-.492.451-.793.273-.315.643-.314.3 0 .451.205.164.192.232.478.069.274.082.588.014.3.014.52m6.85 6.357q0 .246-.028.643a3.7 3.7 0 0 1-.109.78q-.096.368-.301.642a.68.68 0 0 1-.574.273q-.506 0-.779-.328-.274-.328-.26-.82a3.4 3.4 0 0 1-.998.601 3 3 0 0 1-1.121.219q-.397 0-.752-.191a2.3 2.3 0 0 1-.629-.493 2.5 2.5 0 0 1-.438-.67 1.9 1.9 0 0 1-.164-.751q0-.656.397-1.149.41-.492.998-.834a5.7 5.7 0 0 1 1.244-.56 7.5 7.5 0 0 1 1.189-.274v-.123a.5.5 0 0 0 .014-.123q0-.423-.232-.684-.232-.26-.657-.26-.34 0-.587.124-.247.11-.465.26-.219.135-.438.26-.219.108-.492.109a.76.76 0 0 1-.52-.192.65.65 0 0 1-.205-.492q0-.45.26-.82.273-.369.67-.616.41-.26.875-.396.479-.15.875-.15.369 0 .738.095.37.082.698.274.327.178.588.451.273.26.437.615.246.506.396 1.08.151.56.233 1.162.082.588.109 1.19.028.588.028 1.148m-2.188-.437-.041-.93h-.055a.1.1 0 0 0-.054-.014q-.178 0-.451.096a2 2 0 0 0-.506.246 2 2 0 0 0-.424.342.6.6 0 0 0-.164.397q0 .19.137.26a.7.7 0 0 0 .314.068 1.6 1.6 0 0 0 .643-.15q.341-.165.601-.315m7.014-5.155q0 .397-.274.588-.26.192-.588.37-.327.163-.601.396-.26.232-.26.697 0 .246.11.424.122.178.287.328.178.137.382.287t.37.342q.177.192.287.465.123.273.123.67 0 .574-.301 1.135a3.75 3.75 0 0 1-1.777 1.668q-.574.26-1.135.26-.232 0-.465-.042a1.3 1.3 0 0 1-.424-.123.9.9 0 0 1-.301-.26.8.8 0 0 1-.123-.45q0-.384.151-.588.15-.219.383-.342.232-.123.492-.192.273-.068.506-.164.232-.11.382-.273.151-.164.151-.465 0-.287-.233-.588-.218-.314-.492-.656a7 7 0 0 1-.506-.752 1.8 1.8 0 0 1-.218-.875q0-.588.232-1.08.246-.507.643-.875.41-.37.929-.575a2.8 2.8 0 0 1 1.094-.218q.219 0 .424.04.218.042.383.151a.7.7 0 0 1 .259.274q.11.163.11.423m9.734-1.476q0 .998-.082 1.982a30 30 0 0 0-.027 3.582q.054.793.054 1.6 0 .218-.013.533-.013.3-.096.588a1.1 1.1 0 0 1-.246.492q-.164.205-.478.205a.89.89 0 0 1-.684-.3 1.5 1.5 0 0 1-.328-.698 2.34 2.34 0 0 1-.752.834 1.83 1.83 0 0 1-1.067.342q-.615 0-1.066-.424a3.7 3.7 0 0 1-.738-1.025 6 6 0 0 1-.438-1.258 5.7 5.7 0 0 1-.136-1.135q0-.341.041-.779a8 8 0 0 1 .136-.889q.11-.45.274-.875a3.3 3.3 0 0 1 .41-.779 2.1 2.1 0 0 1 .601-.547q.356-.205.807-.205.492 0 .943.287.452.288.684.711l.123-2.174q.014-.26.041-.601a4 4 0 0 1 .109-.67q.096-.315.288-.533.19-.22.56-.22.396 0 .615.192t.315.492q.11.287.123.63.027.34.027.642m-2.228 6.07q0-.315-.014-.615a7 7 0 0 1 0-.615 9 9 0 0 0-.191-.383 1.7 1.7 0 0 0-.274-.396 1.4 1.4 0 0 0-.342-.315.74.74 0 0 0-.41-.123.54.54 0 0 0-.396.15.9.9 0 0 0-.219.37 2 2 0 0 0-.096.45 8 8 0 0 0-.013.425q0 .163.027.492.027.315.096.642.081.328.218.575.138.245.37.246a1 1 0 0 0 .355-.069q.178-.082.328-.191.164-.123.301-.26.15-.15.26-.273zm5.728 3.323q-.697 0-1.217-.37a3.2 3.2 0 0 1-.875-.943 4.5 4.5 0 0 1-.533-1.272 5.8 5.8 0 0 1-.178-1.394q0-.725.178-1.49.178-.78.547-1.408a3.15 3.15 0 0 1 .943-1.04q.575-.41 1.368-.41.765 0 1.298.424.548.41.875 1.04.329.614.465 1.353.137.738.096 1.394-.041.725-.232 1.463a4.7 4.7 0 0 1-.534 1.326 3 3 0 0 1-.902.957q-.547.37-1.299.37m.137-6.18q-.205 0-.369.218a2.2 2.2 0 0 0-.26.534 5 5 0 0 0-.15.67 4 4 0 0 0-.055.601q0 .328.055.711.067.383.177.711.11.314.26.533.164.205.369.205.219 0 .369-.205.165-.204.26-.52.096-.314.137-.683.04-.383.041-.71 0-.301-.055-.657a3.7 3.7 0 0 0-.164-.684 1.5 1.5 0 0 0-.26-.52q-.15-.204-.355-.204M55.094 81.926q0 .6-.137 1.326a4.6 4.6 0 0 1-.437 1.326q-.3.615-.807 1.025-.492.41-1.244.41-.192 0-.397-.027a2 2 0 0 1-.396-.095 1.4 1.4 0 0 1-.328-.178.8.8 0 0 1-.233-.315l-.123 1.97a63 63 0 0 0-.027.751q0 .438-.11.834a1.5 1.5 0 0 1-.341.67q-.233.287-.684.287-.26 0-.437-.273a2.2 2.2 0 0 1-.287-.67 8 8 0 0 1-.15-.916 13 13 0 0 1-.069-.97q-.014-.465-.014-.849v-.56q0-.915-.013-1.819-.014-.915-.014-1.831v-.506q0-.356.027-.766.028-.41.082-.848.069-.437.192-.793.123-.37.314-.587a.58.58 0 0 1 .465-.233.5.5 0 0 1 .314.11q.15.095.247.26.109.15.177.327.069.178.11.328.423-.478.97-.724.56-.246 1.19-.246.656 0 1.066.369.425.369.657.916.246.546.341 1.176.096.615.096 1.12m-1.955-.11q0-.204-.041-.41a1.1 1.1 0 0 0-.123-.396.67.67 0 0 0-.246-.301.67.67 0 0 0-.41-.123q-.33 0-.698.219a1.5 1.5 0 0 0-.533.478q-.068.11-.082.356t-.014.369v.26q.015.15.028.314l.027.315a1 1 0 0 0 .069.232q.04.123.177.232.137.096.301.178.165.082.328.123.178.04.3.041a.57.57 0 0 0 .466-.219 1.6 1.6 0 0 0 .273-.52q.11-.3.137-.614.04-.33.04-.534m8.6 2.256q0 .246-.028.643-.013.396-.11.78-.094.368-.3.642a.68.68 0 0 1-.574.273q-.505 0-.78-.328-.273-.328-.26-.82a3.4 3.4 0 0 1-.997.601 3 3 0 0 1-1.121.219q-.397 0-.752-.191a2.4 2.4 0 0 1-.63-.493 2.5 2.5 0 0 1-.437-.67 1.9 1.9 0 0 1-.164-.751q0-.656.397-1.149.41-.492.998-.834a5.7 5.7 0 0 1 1.244-.56 7.5 7.5 0 0 1 1.19-.274v-.123a.5.5 0 0 0 .013-.123q0-.423-.232-.683-.233-.26-.657-.26a1.3 1.3 0 0 0-.588.123q-.246.11-.464.26a11 11 0 0 1-.438.26q-.219.109-.492.109a.76.76 0 0 1-.52-.192.64.64 0 0 1-.205-.492q0-.45.26-.82a2.4 2.4 0 0 1 .67-.615q.41-.26.875-.397.478-.15.875-.15.369 0 .738.095.37.082.697.274.33.178.588.451.275.26.438.615.246.506.396 1.08.15.56.233 1.162.082.588.11 1.19.026.588.026 1.148m-2.188-.437-.041-.93h-.055a.1.1 0 0 0-.054-.014 1.4 1.4 0 0 0-.452.096 2 2 0 0 0-.505.246q-.247.15-.424.342a.6.6 0 0 0-.164.397q0 .19.136.26a.7.7 0 0 0 .315.068q.3 0 .642-.15.342-.165.602-.315m.834-6.645q0 .11-.041.137-.04.027-.137.027-.164 0-.369-.082a3 3 0 0 1-.396-.205 9 9 0 0 1-.383-.26 6 6 0 0 1-.3-.246q-.137.11-.33.26a4 4 0 0 1-.382.287 5 5 0 0 1-.41.219 1 1 0 0 1-.383.082.4.4 0 0 1-.137-.027q-.054-.028-.054-.137 0-.205.177-.52.178-.315.438-.601.26-.288.547-.492t.506-.205.506.205q.287.19.533.465.26.273.437.574.178.3.178.52m6.057 9.393q-.232 0-.37-.219a1.5 1.5 0 0 1-.205-.478 4 4 0 0 1-.095-.547 8 8 0 0 1 .027-1.258l.11-.82q.067-.41.109-.82.055-.411.055-.821 0-.165-.014-.356a1.5 1.5 0 0 0-.069-.355.6.6 0 0 0-.15-.287.4.4 0 0 0-.287-.11q-.123 0-.273.206-.15.191-.288.45a5 5 0 0 0-.218.507 1.3 1.3 0 0 0-.082.369v.615q.013.3.013.615v.793q-.013.246-.04.506a5 5 0 0 1-.083.506 3 3 0 0 1-.123.478 1.5 1.5 0 0 1-.219.397q-.122.164-.3.273a.8.8 0 0 1-.424.11.6.6 0 0 1-.451-.178 1.3 1.3 0 0 1-.287-.451 3 3 0 0 1-.164-.63q-.041-.354-.069-.683a16 16 0 0 1-.014-.615q.015-.287.014-.451v-.643q0-.52-.027-1.025-.015-.505-.014-1.012v-.697q.014-.424.11-.82.095-.41.314-.698.219-.287.643-.287.19 0 .341.123.15.123.26.301.123.178.192.383.081.205.123.355.136-.19.314-.369a2.4 2.4 0 0 1 .424-.314 2.2 2.2 0 0 1 1.176-.301q.697 0 1.08.342.397.328.574.834.192.492.232 1.066.042.575.041 1.04 0 .231-.04.697-.041.45-.137 1.011-.082.547-.233 1.135-.15.575-.355 1.053a2.6 2.6 0 0 1-.492.779q-.274.3-.63.3m7.724-5.633a.8.8 0 0 1-.055.287q-.122.314-.382.533a.96.96 0 0 1-.615.205q-.534 0-.725-.533a.4.4 0 0 1-.027-.15q0-.096-.014-.192v-.396a.8.8 0 0 0-.096-.3q-.068-.11-.232-.11-.232 0-.451.3-.205.287-.37.698a6 6 0 0 0-.246.82q-.095.424-.095.684 0 .204.027.506.027.287.11.56.081.273.218.479.15.19.383.191a.7.7 0 0 0 .424-.137q.205-.15.396-.341.178-.165.383-.342a.76.76 0 0 1 .492-.178q.342 0 .534.246.204.246.205.56 0 .465-.246.876a2.8 2.8 0 0 1-.616.697q-.37.287-.82.451a2.4 2.4 0 0 1-.861.178q-.74 0-1.258-.37a2.9 2.9 0 0 1-.82-.929 4.4 4.4 0 0 1-.452-1.244 6.4 6.4 0 0 1-.136-1.272q0-.697.191-1.504a5.7 5.7 0 0 1 .588-1.517 3.8 3.8 0 0 1 1.012-1.162q.629-.465 1.49-.465.532 0 .916.232.396.232.642.616.26.369.383.834.137.465.137.916v.136a.7.7 0 0 1-.014.137m5.51.137a.9.9 0 0 1-.328-.028l-.273-.109a3 3 0 0 0-.247-.096.54.54 0 0 0-.273-.04q-.273.012-.492.15a2 2 0 0 0-.383.342q-.165.204-.287.464a3 3 0 0 0-.192.493q-.04.164-.068.505-.014.33-.014.711-.013.397-.013.752 0 .356-.028.56-.014.22-.068.52a2.3 2.3 0 0 1-.178.547 1.25 1.25 0 0 1-.3.438.7.7 0 0 1-.493.177.65.65 0 0 1-.41-.136 1.3 1.3 0 0 1-.287-.356 3.3 3.3 0 0 1-.191-.533 7 7 0 0 1-.11-.615q-.04-.329-.068-.656l-.027-.616v-.547q.013-.246.013-.396-.014-.478-.054-.957a17 17 0 0 1-.028-.97q0-.302.028-.67a2.3 2.3 0 0 1 .15-.684q.123-.328.355-.547.247-.219.67-.219.232 0 .397.15t.26.37q.109.218.164.465.054.245.068.45.328-.533.738-.86.411-.343 1.067-.37.328-.013.642.069.329.067.588.246.273.164.438.437.177.274.191.643.028.437-.26.67a1.14 1.14 0 0 1-.697.246m6.89 2.68q0 .465-.3.915a3.4 3.4 0 0 1-.738.793 4.3 4.3 0 0 1-.944.56 2.5 2.5 0 0 1-.93.206q-.724 0-1.298-.355a3.4 3.4 0 0 1-.944-.93 4.5 4.5 0 0 1-.588-1.23 5 5 0 0 1-.19-1.327q0-.684.19-1.463.192-.78.575-1.435.396-.657.984-1.094.602-.437 1.422-.437.465 0 .889.164a2.15 2.15 0 0 1 1.244 1.12q.19.397.191.89 0 .642-.273 1.203a3.2 3.2 0 0 1-.725.97q-.45.41-1.039.67a3.5 3.5 0 0 1-1.203.273q.054.397.314.575.274.177.643.177.273 0 .533-.136.26-.137.506-.301.246-.177.478-.314.247-.137.493-.137a.76.76 0 0 1 .492.178.57.57 0 0 1 .219.464m-2.214-3.35a.8.8 0 0 0-.096-.37.32.32 0 0 0-.3-.19q-.302 0-.507.163-.204.15-.341.397a2.3 2.3 0 0 0-.22.506q-.067.273-.081.505.191-.04.451-.109.273-.068.506-.178.245-.123.41-.3a.58.58 0 0 0 .178-.424m8.572 3.855q0 .246-.027.643-.015.396-.11.78-.095.368-.3.642a.68.68 0 0 1-.575.273q-.506 0-.779-.328t-.26-.82a3.4 3.4 0 0 1-.998.601 3 3 0 0 1-1.12.219q-.398 0-.753-.191a2.4 2.4 0 0 1-.629-.493 2.5 2.5 0 0 1-.437-.67 1.9 1.9 0 0 1-.164-.751q0-.656.396-1.149.41-.492.998-.834a5.7 5.7 0 0 1 1.244-.56 7.5 7.5 0 0 1 1.19-.274v-.123a.5.5 0 0 0 .014-.123q0-.423-.233-.683t-.656-.26a1.3 1.3 0 0 0-.588.123q-.246.11-.465.26a11 11 0 0 1-.437.26q-.219.109-.493.109a.76.76 0 0 1-.52-.192.64.64 0 0 1-.204-.492q0-.45.26-.82.273-.369.67-.615.41-.26.875-.397.478-.15.875-.15.369 0 .738.095.369.082.697.274.329.178.588.451.273.26.438.615.245.506.396 1.08.15.56.232 1.162.082.588.11 1.19.027.588.027 1.148m-2.187-.437-.041-.93h-.055a.1.1 0 0 0-.055-.014 1.4 1.4 0 0 0-.451.096 2 2 0 0 0-.506.246 2 2 0 0 0-.424.342.6.6 0 0 0-.164.397q0 .19.137.26a.7.7 0 0 0 .314.068q.301 0 .643-.15.341-.165.602-.315m7.013-5.154q0 .396-.273.587-.26.192-.588.37-.329.163-.602.396-.26.232-.26.697 0 .246.11.424.123.178.287.328.178.137.383.287t.369.342q.177.192.287.465.123.273.123.67 0 .574-.3 1.135a3.73 3.73 0 0 1-1.777 1.668q-.576.26-1.136.26-.233 0-.465-.042a1.3 1.3 0 0 1-.423-.123.9.9 0 0 1-.301-.26.77.77 0 0 1-.123-.45q0-.384.15-.588.15-.219.383-.342.232-.123.492-.192.274-.068.506-.164a1.2 1.2 0 0 0 .383-.273q.15-.164.15-.465 0-.287-.232-.588a12 12 0 0 0-.492-.656 7 7 0 0 1-.506-.752 1.8 1.8 0 0 1-.219-.875q0-.588.233-1.08.245-.507.642-.875.41-.37.93-.575a2.8 2.8 0 0 1 1.094-.218q.218 0 .423.04.22.042.383.151.165.096.26.274.11.163.11.424m10.199 1.162-.218 1.982a29 29 0 0 0-.151 1.969 30 30 0 0 0-.054 2.146q.013 1.012.013 2.147 0 .273-.013.67 0 .397-.096.765a1.6 1.6 0 0 1-.315.63q-.205.258-.628.259a.55.55 0 0 1-.356-.123 1.2 1.2 0 0 1-.246-.328 2.5 2.5 0 0 1-.164-.438 9 9 0 0 1-.096-.506 11 11 0 0 1-.082-1.066V85.15a2 2 0 0 1-.82.63 2.5 2.5 0 0 1-.984.204q-.616 0-1.067-.287a2.6 2.6 0 0 1-.724-.752 3.5 3.5 0 0 1-.424-1.011 4.4 4.4 0 0 1-.137-1.067v-.082q0-.71.219-1.531a6 6 0 0 1 .642-1.545 4.1 4.1 0 0 1 1.08-1.176 2.5 2.5 0 0 1 1.518-.478q.465 0 .848.191.396.192.56.629.11-.314.328-.506a.86.86 0 0 1 .588-.205q.452 0 .629.3.191.288.191.643 0 .15-.013.274zm-3.144.328q-.315 0-.588.26-.273.245-.478.615a3.6 3.6 0 0 0-.329.765 3 3 0 0 0-.109.725q0 .19.027.41.042.219.11.424.081.191.205.328a.5.5 0 0 0 .342.123q.177 0 .41-.082.246-.096.478-.232.233-.15.41-.329.178-.177.247-.341.04-.096.068-.287.027-.192.041-.397a8 8 0 0 0 .055-.738q0-.165-.082-.37a1.7 1.7 0 0 0-.192-.41 1.1 1.1 0 0 0-.287-.328.5.5 0 0 0-.328-.136m9.789 2.119q0 .752-.15 1.49a4.2 4.2 0 0 1-.506 1.326 2.75 2.75 0 0 1-.957.93q-.588.355-1.477.355-.875 0-1.463-.341a2.8 2.8 0 0 1-.943-.93 4.2 4.2 0 0 1-.492-1.299 8 8 0 0 1-.137-1.477q0-.82.191-1.626a5.5 5.5 0 0 1 .452-1.367 3.2 3.2 0 0 1 .423-.657q.246-.273.534-.273a.62.62 0 0 1 .437.15q.164.15.26.383.096.219.123.478.027.247.027.452 0 .314-.054.615-.042.3-.096.601l-.109.82a8 8 0 0 0-.028 1.286q.027.246.11.478.082.233.232.397.15.15.424.15.356 0 .56-.191.219-.191.315-.479.109-.287.137-.615.027-.329.027-.602 0-.6-.082-1.175a48 48 0 0 1-.151-1.19 1.3 1.3 0 0 1 .247-.97.9.9 0 0 1 .3-.26.74.74 0 0 1 .397-.11q.3 0 .533.22.233.204.383.546.164.329.26.752.108.41.164.82.068.397.082.752.027.356.027.56m6.563 1.476q0 .466-.301.916a3.4 3.4 0 0 1-.739.793 4.3 4.3 0 0 1-.943.56 2.5 2.5 0 0 1-.93.206q-.725 0-1.298-.355a3.4 3.4 0 0 1-.944-.93 4.5 4.5 0 0 1-.588-1.23 5 5 0 0 1-.191-1.327q0-.684.191-1.463.192-.78.575-1.435a3.8 3.8 0 0 1 .984-1.094q.601-.437 1.422-.437.465 0 .888.164a2.15 2.15 0 0 1 1.245 1.12q.19.397.191.89 0 .642-.273 1.203a3.2 3.2 0 0 1-.725.97 3.8 3.8 0 0 1-1.039.67 3.5 3.5 0 0 1-1.203.273q.054.397.314.575.274.177.643.177.273 0 .533-.136a6 6 0 0 0 .506-.301q.246-.177.478-.314a1 1 0 0 1 .493-.137.76.76 0 0 1 .492.178.57.57 0 0 1 .219.464m-2.215-3.35a.8.8 0 0 0-.096-.368.32.32 0 0 0-.301-.192q-.3 0-.506.164-.204.15-.341.397a2.2 2.2 0 0 0-.219.506q-.069.273-.082.505.191-.04.451-.109a3 3 0 0 0 .506-.178q.246-.123.41-.3a.58.58 0 0 0 .178-.424m12.318 1.71q0 .6-.137 1.326a4.7 4.7 0 0 1-.437 1.326 3 3 0 0 1-.807 1.025q-.492.41-1.244.41-.192 0-.396-.027a2 2 0 0 1-.397-.095 1.4 1.4 0 0 1-.328-.178.8.8 0 0 1-.232-.315l-.124 1.97q-.014.314-.027.751 0 .438-.109.834a1.5 1.5 0 0 1-.342.67q-.232.287-.684.287-.26 0-.437-.273a2.2 2.2 0 0 1-.287-.67 8 8 0 0 1-.151-.916q-.054-.507-.068-.97-.014-.465-.014-.849v-.56q0-.915-.013-1.819-.014-.915-.014-1.831v-.506q0-.356.027-.766.028-.41.082-.848.069-.437.192-.793a1.7 1.7 0 0 1 .314-.587.58.58 0 0 1 .465-.233q.178 0 .315.11.15.095.246.26.11.15.177.327.069.178.11.328.423-.478.97-.724a2.9 2.9 0 0 1 1.19-.246q.656 0 1.066.369.425.369.657.916.246.546.341 1.176.096.615.096 1.12m-1.955-.11q0-.204-.041-.41a1.1 1.1 0 0 0-.123-.396.67.67 0 0 0-.246-.301.67.67 0 0 0-.41-.123q-.329 0-.698.219a1.5 1.5 0 0 0-.533.478q-.068.11-.082.356a8 8 0 0 0-.014.369v.26q.015.15.028.314l.027.315a1 1 0 0 0 .069.232q.04.123.177.232a2.4 2.4 0 0 0 .301.178q.164.082.328.123.178.04.301.041a.57.57 0 0 0 .465-.219 1.6 1.6 0 0 0 .273-.52q.11-.3.137-.614a5 5 0 0 0 .041-.534m7.533-.93a.9.9 0 0 1-.328-.027l-.273-.109a3 3 0 0 0-.247-.096.54.54 0 0 0-.273-.04q-.273.012-.492.15a2 2 0 0 0-.383.342 2.4 2.4 0 0 0-.287.464 2.7 2.7 0 0 0-.191.493 3 3 0 0 0-.069.505 17 17 0 0 0-.013.711q-.015.397-.014.752 0 .356-.028.56a4 4 0 0 1-.068.52 2.2 2.2 0 0 1-.178.547 1.3 1.3 0 0 1-.3.438.7.7 0 0 1-.493.177.65.65 0 0 1-.41-.136 1.3 1.3 0 0 1-.287-.356 3 3 0 0 1-.191-.533 7 7 0 0 1-.11-.615q-.04-.329-.068-.656l-.027-.616v-.547q.013-.246.013-.396a17 17 0 0 0-.054-.957 17 17 0 0 1-.028-.97q0-.302.028-.67.027-.37.15-.684.123-.328.356-.547.246-.219.669-.219.233 0 .397.15t.26.37q.109.218.164.465.054.245.068.45a3.3 3.3 0 0 1 .738-.86q.41-.343 1.067-.37.328-.013.642.069.328.067.588.246.274.164.438.437.177.274.191.643.028.437-.26.67a1.13 1.13 0 0 1-.697.246m3.76 5.51q-.698 0-1.217-.369a3.2 3.2 0 0 1-.875-.943 4.5 4.5 0 0 1-.533-1.272 5.7 5.7 0 0 1-.178-1.394q0-.725.178-1.49.178-.78.547-1.409.369-.642.943-1.038.575-.41 1.367-.41.766 0 1.299.423.547.41.875 1.04.328.614.465 1.353.137.738.096 1.394-.041.725-.233 1.463a4.6 4.6 0 0 1-.533 1.326q-.356.588-.902.957-.548.37-1.299.37m.137-6.18q-.205 0-.37.22-.15.218-.259.533a5 5 0 0 0-.151.67 4 4 0 0 0-.054.601q0 .328.054.711.069.383.178.711.11.314.26.533.164.205.369.205.219 0 .369-.205.164-.204.26-.52.095-.314.137-.683.04-.383.041-.71 0-.301-.055-.657a4 4 0 0 0-.164-.684 1.6 1.6 0 0 0-.26-.52q-.15-.204-.355-.204m9.42-3.212q0 .998-.082 1.982a28 28 0 0 0-.069 1.983q0 .806.041 1.6.055.792.055 1.599 0 .218-.014.533-.013.3-.096.588a1.1 1.1 0 0 1-.246.492q-.163.205-.478.205a.89.89 0 0 1-.684-.3 1.5 1.5 0 0 1-.328-.698 2.34 2.34 0 0 1-.752.834 1.83 1.83 0 0 1-1.066.342q-.615 0-1.067-.424a3.8 3.8 0 0 1-.738-1.025 6 6 0 0 1-.437-1.258 5.6 5.6 0 0 1-.137-1.135 8.6 8.6 0 0 1 .178-1.668q.11-.45.273-.875a3.3 3.3 0 0 1 .41-.779 2.1 2.1 0 0 1 .602-.547q.356-.205.806-.205.493 0 .944.287t.683.711l.123-2.174q.014-.26.041-.601a4 4 0 0 1 .11-.67q.095-.315.287-.533.191-.22.56-.22.397 0 .616.192t.314.492q.11.287.123.63.028.34.028.642m-2.229 6.07q0-.315-.014-.615a7 7 0 0 1 0-.615 7 7 0 0 0-.191-.383 1.7 1.7 0 0 0-.273-.397 1.4 1.4 0 0 0-.342-.314.75.75 0 0 0-.41-.123.54.54 0 0 0-.397.15q-.15.15-.219.37a2.2 2.2 0 0 0-.095.45 8 8 0 0 0-.014.425q0 .163.027.492.028.315.096.642.082.328.219.575.137.245.369.246a1 1 0 0 0 .355-.069q.178-.082.328-.191.165-.123.301-.26a6 6 0 0 0 .26-.273zm9.119-.984q0 .752-.15 1.49a4.1 4.1 0 0 1-.506 1.326 2.75 2.75 0 0 1-.957.93q-.588.355-1.477.355-.875 0-1.463-.341a2.8 2.8 0 0 1-.943-.93 4.2 4.2 0 0 1-.492-1.299 8 8 0 0 1-.137-1.477q0-.82.192-1.626.04-.22.15-.602.123-.396.301-.766.191-.383.424-.656.246-.273.533-.273a.62.62 0 0 1 .437.15q.165.15.26.383.096.219.123.478.027.247.027.452 0 .314-.054.615-.041.3-.096.601l-.109.82a8 8 0 0 0-.028 1.286q.028.246.11.478.082.233.232.397.15.15.424.15.356 0 .561-.191.218-.191.314-.479.109-.287.137-.615.027-.329.027-.602 0-.6-.082-1.175a43 43 0 0 1-.15-1.19 1.3 1.3 0 0 1 .246-.97.9.9 0 0 1 .3-.26.74.74 0 0 1 .397-.11q.3 0 .533.22.233.204.383.546.164.329.26.752.109.41.164.82.068.397.082.752.027.356.027.56m6.973 2.625a.62.62 0 0 1-.233.478q-.218.205-.574.37-.342.163-.793.273a10 10 0 0 1-.875.178 9 9 0 0 1-.806.095 6 6 0 0 1-.616.041q-.232 0-.656-.013a4.2 4.2 0 0 1-.82-.11 2.1 2.1 0 0 1-.711-.273.64.64 0 0 1-.301-.56q0-.274.191-.67.192-.397.493-.862.3-.465.67-.943.369-.492.724-.944.355-.45.67-.82.315-.383.492-.629a10 10 0 0 0-.492.123 31 31 0 0 1-.601.137q-.315.069-.616.123a4 4 0 0 1-.492.041 1.5 1.5 0 0 1-.369-.055 2 2 0 0 1-.396-.177 1.4 1.4 0 0 1-.315-.26.53.53 0 0 1-.123-.342q0-.246.219-.451.219-.22.574-.383.355-.178.793-.3a8 8 0 0 1 .861-.22 7 7 0 0 1 1.422-.177q.26 0 .629.054.369.055.711.192.355.136.602.369.246.232.246.588a.7.7 0 0 1-.028.205 2 2 0 0 1-.041.191q-.027.096-.246.438-.206.328-.519.793a73 73 0 0 1-.67.984q-.356.52-.684.985a102 102 0 0 0-.902 1.298q.56-.15 1.135-.246.587-.11 1.162-.109.136 0 .355.014.219.013.424.082a.9.9 0 0 1 .355.177.36.36 0 0 1 .151.315m6.002-1.149q0 .466-.301.916a3.3 3.3 0 0 1-.738.793 4.3 4.3 0 0 1-.944.56 2.5 2.5 0 0 1-.929.206q-.724 0-1.299-.355a3.4 3.4 0 0 1-.944-.93 4.5 4.5 0 0 1-.587-1.23 5 5 0 0 1-.192-1.327q0-.684.192-1.463.191-.78.574-1.435a3.8 3.8 0 0 1 .984-1.094q.601-.437 1.422-.437.465 0 .889.164a2.15 2.15 0 0 1 1.244 1.12q.19.397.191.89 0 .642-.273 1.203a3.2 3.2 0 0 1-.725.97 3.8 3.8 0 0 1-1.039.67 3.5 3.5 0 0 1-1.203.273q.055.397.315.575.273.177.642.177.273 0 .533-.136a6 6 0 0 0 .506-.301 6 6 0 0 1 .479-.314q.246-.137.492-.137a.76.76 0 0 1 .492.178.57.57 0 0 1 .219.464m-2.215-3.35a.8.8 0 0 0-.096-.368.32.32 0 0 0-.301-.192q-.3 0-.505.164-.206.15-.342.397a2.3 2.3 0 0 0-.219.506q-.069.273-.082.505.192-.04.451-.109a3 3 0 0 0 .506-.178q.246-.123.41-.3a.58.58 0 0 0 .178-.424m11.06 1.272v.711q0 .437-.027.957a10 10 0 0 1-.082 1.053q-.067.519-.219.943a2.2 2.2 0 0 1-.355.698.69.69 0 0 1-.561.273.53.53 0 0 1-.464-.246 1.9 1.9 0 0 1-.219-.602 4.4 4.4 0 0 1-.082-.697v-.56q0-.615.041-1.204.04-.587.041-1.203v-.246a2 2 0 0 0-.028-.355 1 1 0 0 0-.095-.315q-.055-.136-.178-.136-.246 0-.397.26-.15.245-.246.587a4.6 4.6 0 0 0-.136.684 12 12 0 0 0-.055.492 8 8 0 0 0-.055.533q-.013.355-.054.78a8 8 0 0 1-.11.874q-.068.438-.191.807a1.9 1.9 0 0 1-.287.588.54.54 0 0 1-.438.233.56.56 0 0 1-.506-.288 2.1 2.1 0 0 1-.259-.67 5.5 5.5 0 0 1-.11-.779q-.013-.397-.013-.615v-.451q.013-.219.013-.451v-.315a9 9 0 0 0-.013-.478q0-.275-.028-.56a4 4 0 0 0-.054-.52 1.3 1.3 0 0 0-.124-.397q-.081-.15-.191-.15-.177 0-.328.232-.15.22-.26.533a5 5 0 0 0-.178.602 3 3 0 0 0-.054.437v.082q0 .657.082 1.285.082.63.082 1.286 0 .383-.246.71-.246.315-.684.315a.66.66 0 0 1-.519-.232 2 2 0 0 1-.342-.63 5.4 5.4 0 0 1-.219-.833q-.068-.464-.096-.903-.027-.451-.041-.806v-.547q0-.205-.013-.602 0-.396.013-.861.028-.465.082-.943.055-.493.178-.889t.315-.643a.63.63 0 0 1 .519-.26q.355 0 .574.192.233.192.233.574 0 .083-.014.164a1 1 0 0 1-.014.15q.151-.217.37-.437.218-.232.464-.41.26-.191.547-.3.288-.124.574-.124a.85.85 0 0 1 .493.15q.218.15.382.383.165.22.274.479.11.26.15.492.137-.246.328-.492.206-.26.438-.451.232-.192.506-.315.286-.123.588-.123.286 0 .492.205.205.206.355.534.151.314.233.724.082.397.136.793.056.383.069.725.013.328.013.52m6.454-5.031a.57.57 0 0 1-.11.342q-.095.15-.26.273a1.6 1.6 0 0 1-.355.178 1.3 1.3 0 0 1-.355.055.84.84 0 0 1-.479-.137q-.205-.137-.205-.424 0-.205.096-.355a.9.9 0 0 1 .259-.26q.152-.11.342-.164.192-.055.369-.055a.96.96 0 0 1 .479.123q.219.123.219.424m.109 4.649v.41q0 .204-.014.396a12 12 0 0 0-.013.629q0 .382-.028.834-.027.45-.095.916-.056.465-.192.848a1.8 1.8 0 0 1-.369.629.78.78 0 0 1-.56.246.5.5 0 0 1-.438-.205 1.9 1.9 0 0 1-.301-.561 5 5 0 0 1-.164-.78 15 15 0 0 1-.082-.833 12 12 0 0 1-.027-.752v-1.121q0-.41.027-.875t.096-.944q.082-.478.219-.875.15-.396.382-.642a.77.77 0 0 1 .588-.246q.369 0 .561.369.19.369.287.861t.109.984q.014.479.014.712m4.854 5.277q-.232 0-.37-.219a1.5 1.5 0 0 1-.205-.478 4 4 0 0 1-.095-.547 9 9 0 0 1-.014-.438q0-.41.041-.82l.109-.82q.069-.41.11-.82.054-.411.054-.821 0-.165-.013-.356a1.4 1.4 0 0 0-.069-.355.6.6 0 0 0-.15-.287.4.4 0 0 0-.287-.11q-.123 0-.274.206-.15.191-.287.45a5 5 0 0 0-.218.507 1.3 1.3 0 0 0-.082.369v.615q.013.3.013.615v.793q-.014.246-.041.506a4 4 0 0 1-.082.506 3 3 0 0 1-.123.478 1.5 1.5 0 0 1-.219.397q-.123.164-.3.273a.8.8 0 0 1-.424.11.6.6 0 0 1-.451-.178 1.3 1.3 0 0 1-.288-.451 3.3 3.3 0 0 1-.164-.63 22 22 0 0 1-.068-.683 16 16 0 0 1-.014-.615q.014-.287.014-.451v-.643q0-.52-.027-1.025a38 38 0 0 1-.014-1.012v-.697q.014-.424.109-.82.096-.41.315-.698.219-.287.642-.287.192 0 .342.123t.26.301q.123.178.191.383.083.205.123.355.137-.19.315-.369.191-.177.424-.314a2.23 2.23 0 0 1 1.175-.301q.697 0 1.081.342.396.328.574.834.191.492.232 1.066t.041 1.04q0 .231-.041.697-.04.45-.137 1.011-.082.547-.232 1.135a7.6 7.6 0 0 1-.355 1.053 2.6 2.6 0 0 1-.493.779q-.274.3-.628.3m6.658-7.902q0 .396-.274.587-.26.192-.588.37-.327.163-.601.396-.26.232-.26.697 0 .246.109.424.123.178.288.328.178.137.382.287.206.15.369.342.178.192.288.465.123.273.123.67 0 .574-.301 1.135a3.75 3.75 0 0 1-1.777 1.668q-.575.26-1.135.26-.232 0-.465-.042a1.3 1.3 0 0 1-.424-.123.9.9 0 0 1-.301-.26.8.8 0 0 1-.123-.45q0-.384.151-.588.15-.219.382-.342t.493-.192q.273-.068.506-.164.231-.11.382-.273t.151-.465q0-.287-.233-.588-.219-.314-.492-.656a7 7 0 0 1-.506-.752 1.8 1.8 0 0 1-.219-.875q0-.588.233-1.08.246-.507.642-.875.411-.37.93-.575a2.8 2.8 0 0 1 1.094-.218q.219 0 .424.04.218.042.383.151a.7.7 0 0 1 .259.274q.11.163.11.424m6.535 3.609q0 .752-.151 1.49-.15.738-.505 1.326a2.75 2.75 0 0 1-.957.93q-.588.355-1.477.355-.875 0-1.463-.341a2.8 2.8 0 0 1-.943-.93 4.2 4.2 0 0 1-.492-1.299 8 8 0 0 1-.137-1.477q0-.82.191-1.626a5.6 5.6 0 0 1 .451-1.367q.192-.384.424-.657.246-.273.533-.273.274 0 .438.15t.26.383q.096.219.123.478.027.247.027.452 0 .314-.055.615-.04.3-.095.601l-.11.82a8 8 0 0 0-.027 1.286q.027.246.109.478.083.233.233.397.15.15.424.15.355 0 .56-.191.219-.191.315-.479a2.2 2.2 0 0 0 .136-.615q.028-.329.028-.602 0-.6-.082-1.175a48 48 0 0 1-.151-1.19 1.3 1.3 0 0 1 .055-.602q.069-.204.191-.368a.9.9 0 0 1 .301-.26.74.74 0 0 1 .397-.11q.3 0 .533.22.232.204.383.546.164.329.259.752.11.41.164.82.069.397.083.752.027.356.027.56m3.39-4.375q0 .738-.068 1.49a20 20 0 0 0-.055 1.49q0 .971.055 1.942.069.97.068 1.955 0 .245-.027.56-.027.301-.137.56a1.05 1.05 0 0 1-.3.438q-.205.178-.547.178-.328 0-.574-.328a2.9 2.9 0 0 1-.397-.807q-.15-.505-.26-1.12-.095-.615-.15-1.19-.04-.588-.068-1.067-.014-.492-.014-.724 0-.26.014-.752a17 17 0 0 1 .273-2.229q.123-.6.314-1.08.191-.492.452-.793.273-.314.642-.314.301 0 .451.205.165.191.233.478.068.275.082.588.013.3.013.52m3.295-1.258a.56.56 0 0 1-.109.342q-.095.15-.26.273a1.6 1.6 0 0 1-.355.178 1.3 1.3 0 0 1-.356.055.84.84 0 0 1-.478-.137q-.205-.137-.205-.424 0-.205.095-.355a.9.9 0 0 1 .26-.26q.15-.11.342-.164t.369-.055q.26 0 .479.123t.218.424m.11 4.649v.41q0 .204-.014.396-.014.233-.014.629 0 .382-.027.834-.027.45-.096.916-.054.465-.191.848a1.8 1.8 0 0 1-.369.629.78.78 0 0 1-.561.246.5.5 0 0 1-.437-.205 1.9 1.9 0 0 1-.301-.561 4.6 4.6 0 0 1-.164-.78 15 15 0 0 1-.082-.833 12 12 0 0 1-.027-.752v-1.121q0-.41.027-.875t.096-.944q.081-.478.218-.875a1.9 1.9 0 0 1 .383-.642.77.77 0 0 1 .588-.246q.369 0 .561.369.19.369.287.861t.109.984q.014.479.014.712m4.853 5.277q-.233 0-.369-.219a1.5 1.5 0 0 1-.205-.478 4 4 0 0 1-.096-.547 8 8 0 0 1 .028-1.258l.109-.82q.069-.41.109-.82.055-.411.055-.821 0-.165-.014-.356a1.4 1.4 0 0 0-.068-.355.6.6 0 0 0-.15-.287.4.4 0 0 0-.287-.11q-.124 0-.274.206-.15.191-.287.45a5 5 0 0 0-.219.507 1.3 1.3 0 0 0-.082.369v.615q.014.3.014.615v.793q-.014.246-.041.506a5 5 0 0 1-.082.506 3 3 0 0 1-.123.478 1.5 1.5 0 0 1-.219.397q-.123.164-.301.273a.8.8 0 0 1-.423.11.6.6 0 0 1-.452-.178 1.3 1.3 0 0 1-.287-.451 3.2 3.2 0 0 1-.164-.63 22 22 0 0 1-.068-.683 16 16 0 0 1-.014-.615q.014-.287.014-.451v-.643q0-.52-.028-1.025a38 38 0 0 1-.013-1.012v-.697q.013-.424.109-.82.096-.41.315-.698.218-.287.642-.287.192 0 .342.123t.26.301q.123.178.191.383.083.205.123.355a3 3 0 0 1 .315-.369q.191-.177.424-.314a2.2 2.2 0 0 1 1.175-.301q.697 0 1.08.342.397.328.575.834.191.492.232 1.066.04.575.041 1.04 0 .231-.041.697-.04.45-.137 1.011-.082.547-.232 1.135a7.4 7.4 0 0 1-.356 1.053q-.204.479-.492.779-.273.3-.629.3m8.463-2.31q0 .245-.027.642a3.7 3.7 0 0 1-.11.78q-.095.368-.3.642a.68.68 0 0 1-.575.273q-.506 0-.779-.328t-.26-.82a3.3 3.3 0 0 1-.998.601 3 3 0 0 1-1.121.219q-.396 0-.752-.191a2.4 2.4 0 0 1-.629-.493 2.5 2.5 0 0 1-.437-.67 1.9 1.9 0 0 1-.164-.751q0-.656.396-1.149.41-.492.998-.834a5.7 5.7 0 0 1 1.245-.56 7.4 7.4 0 0 1 1.189-.274v-.123a.5.5 0 0 0 .014-.123q0-.423-.233-.683-.232-.26-.656-.26a1.3 1.3 0 0 0-.588.123q-.246.11-.465.26-.218.135-.437.26-.219.109-.492.109a.76.76 0 0 1-.52-.192.64.64 0 0 1-.205-.492q0-.45.26-.82.273-.369.67-.615.41-.26.875-.397.478-.15.875-.15.369 0 .738.095.369.082.697.274.328.178.588.451.273.26.438.615.246.506.396 1.08.15.56.232 1.162.083.588.11 1.19.027.588.027 1.148m-2.187-.438-.041-.93h-.055a.1.1 0 0 0-.055-.014 1.4 1.4 0 0 0-.451.096 2 2 0 0 0-.506.246q-.246.15-.424.342a.6.6 0 0 0-.164.397q0 .19.137.26a.7.7 0 0 0 .315.068q.3 0 .642-.15.342-.165.602-.315m4.99 1.709a.7.7 0 0 1-.082.328.8.8 0 0 1-.219.232 1 1 0 0 1-.287.15.9.9 0 0 1-.314.055 1.4 1.4 0 0 1-.452-.082 1.6 1.6 0 0 1-.437-.205 1.5 1.5 0 0 1-.328-.314.7.7 0 0 1-.137-.424q0-.369.315-.547.314-.191.642-.191.205 0 .424.068.232.069.424.205a1 1 0 0 1 .328.315.7.7 0 0 1 .123.41"/><defs><filter id="a" width="251" height="112.801" x="0" y="11" color-interpolation-filters="sRGB" filterUnits="userSpaceOnUse"><feFlood flood-opacity="0" result="BackgroundImageFix"/><feBlend in="SourceGraphic" in2="BackgroundImageFix" result="shape"/><feColorMatrix in="SourceAlpha" result="hardAlpha" values="0 0 0 0 0 0 0 0 0 0 0 0 0 0 0 0 0 0 127 0"/><feOffset dy="4"/><feGaussianBlur stdDeviation="2"/><feComposite in2="hardAlpha" k2="-1" k3="1" operator="arithmetic"/><feColorMatrix values="0 0 0 0 0 0 0 0 0 0 0 0 0 0 0 0 0 0 0.25 0"/><feBlend in2="shape" result="effect1_innerShadow_871_283"/></filter></defs></svg>