<svg xmlns="http://www.w3.org/2000/svg" width="251" height="142" fill="none" viewBox="0 0 251 142"><g filter="url(#a)"><path fill="#3dc3ff" fill-rule="evenodd" d="M35.509 90.336C11.486 81.038 1 67.316 1 52.466 1 34.191 22.15 16.14 57.136 7.214 74.106 2.885 94.042 1 116.95 1c70.137 0 134.817 18.644 132.056 51.465 0 16.286-11.971 31.261-36.351 40.201-13.293 4.875-30.11 7.754-51.151 8.639-8.277 17.038-20.39 25.811-40.264 39.695 14.574-16.182 23.504-26.615 26.735-39.401l-1.116.001c-49.713 2.914-87.31-1.96-111.351-11.264" clip-rule="evenodd"/></g><path fill="#3dc3ff" d="m35.509 90.336-.361.933zM57.136 7.215l.247.969zm191.871 45.25-.996-.084-.004.084zm-36.351 40.201.345.94zm-51.151 8.639-.042-.999a1 1 0 0 0-.858.562zM121.241 141l-.743-.669a1 1 0 0 0 1.316 1.489zm26.735-39.401.969.245a1 1 0 0 0-.972-1.245zm-1.116.001v-1l-.059.002zM1 52.465H0c0 15.436 10.93 29.43 35.148 38.804l.36-.933.362-.933C12.042 80.181 2 66.732 2 52.465zm56.136-45.25-.248-.97c-17.592 4.489-31.77 11.287-41.574 19.316C5.52 33.584 0 42.921 0 52.465h2c0-8.73 5.055-17.554 14.581-25.357C26.1 19.312 39.99 12.621 57.384 8.184zM116.95 1V0C93.994 0 73.967 1.889 56.888 6.246l.248.969.247.969C74.243 3.882 94.09 2 116.95 2zm132.056 51.465.997.084c.722-8.587-2.988-16.188-9.918-22.7-6.911-6.495-17.072-11.96-29.435-16.366C185.917 4.668 152.09 0 116.951 0v2c34.998 0 68.579 4.654 93.029 13.367 12.229 4.358 22.105 9.707 28.736 15.94 6.613 6.214 9.953 13.252 9.295 21.075zm-36.351 40.201.345.94c24.593-9.02 37.006-24.272 37.006-41.14h-2c0 15.701-11.529 30.4-35.695 39.262zm-51.151 8.639.042 1c21.101-.888 38.03-3.777 51.454-8.7l-.345-.939-.344-.938c-13.163 4.827-29.869 7.696-50.849 8.578zm0 0-.9-.437c-8.147 16.772-20.04 25.413-39.937 39.312l.573.82.573.82c19.851-13.868 32.184-22.774 40.59-40.078zM121.241 141l.743.669c14.532-16.135 23.658-26.754 26.961-39.825l-.969-.245-.97-.245c-3.159 12.5-11.891 22.747-26.508 38.977zm25.619-39.4v1l1.118-.001-.002-1-.003-1-1.113.001zM35.509 90.336l-.361.933c24.228 9.377 61.987 14.248 111.77 11.329l-.058-.998-.059-.998c-49.64 2.91-87.077-1.967-110.931-11.199z"/><path fill="#fff" d="M57.658 28.085q0 .594-.407 1.079-.406.483-1 .875-.578.375-1.218.656-.641.281-1.11.469a15 15 0 0 1-.062 1.359 10 10 0 0 1 1.125-.469 3.6 3.6 0 0 1 1.187-.219q.453 0 .734.188.297.188.297.656 0 .516-.375.922-.359.405-.875.719a7 7 0 0 1-1.078.531q-.562.219-.953.344a34 34 0 0 1-.062 2.031q-.016.25-.063.625-.03.375-.156.734-.11.345-.328.61a.71.71 0 0 1-.563.25q-.328 0-.562-.313a3.2 3.2 0 0 1-.407-.828 9 9 0 0 1-.265-1.11 28 28 0 0 1-.156-1.218q-.047-.594-.063-1.094v-1.359q.015-.406.016-.89l.031-1.016q.03-.532.063-1 .03-.485.078-.844.062-.375.14-.547.172-.344.813-.672a9 9 0 0 1 1.453-.594 14 14 0 0 1 1.547-.421q.764-.172 1.172-.172.187 0 .359.03.188.017.344.095a.64.64 0 0 1 .25.218.67.67 0 0 1 .093.375m6.624 8.5q0 .532-.343 1.047-.328.5-.844.907-.5.39-1.078.64-.579.235-1.063.235a2.76 2.76 0 0 1-1.484-.407 3.9 3.9 0 0 1-1.078-1.062 5.2 5.2 0 0 1-.672-1.406 5.6 5.6 0 0 1-.219-1.516q0-.78.219-1.672.22-.89.656-1.64.453-.75 1.125-1.25.688-.5 1.625-.5.531 0 1.016.187a2.45 2.45 0 0 1 1.422 1.281q.219.453.218 1.016 0 .735-.312 1.375a3.6 3.6 0 0 1-.828 1.11q-.516.468-1.188.765a4 4 0 0 1-1.375.312q.063.453.36.657.312.203.734.203.313 0 .61-.157.296-.156.578-.343.281-.203.547-.36a1.15 1.15 0 0 1 .562-.156.87.87 0 0 1 .563.203q.25.204.25.531m-2.53-3.828a.94.94 0 0 0-.11-.422.36.36 0 0 0-.344-.218.9.9 0 0 0-.578.187 1.4 1.4 0 0 0-.39.453 2.6 2.6 0 0 0-.25.578 3 3 0 0 0-.094.579q.219-.047.515-.125.313-.079.578-.204.282-.14.47-.343a.66.66 0 0 0 .202-.485m1.39-3.843q0 .125-.047.156-.046.03-.156.031-.188 0-.422-.094a4 4 0 0 1-.453-.234 11 11 0 0 1-.438-.297 6 6 0 0 1-.343-.281l-.376.297a5 5 0 0 1-.437.328 5 5 0 0 1-.469.25 1.2 1.2 0 0 1-.437.094.4.4 0 0 1-.157-.032q-.062-.03-.062-.156 0-.234.203-.594t.5-.687.625-.563.578-.234.578.234q.329.219.61.532.297.312.5.656.203.343.203.594m4.015 9.625q0 .25-.14.64-.125.39-.328.766-.188.375-.438.64-.25.267-.484.266-.312 0-.313-.312 0-.187.079-.36.078-.171.171-.344a3 3 0 0 0 .172-.328.7.7 0 0 0 .078-.312.9.9 0 0 1-.5.156.79.79 0 0 1-.609-.281.92.92 0 0 1-.25-.625q0-.501.328-.797.328-.312.828-.313.562 0 .985.297.42.297.421.907m7.36 1.28q-.797 0-1.39-.421a3.7 3.7 0 0 1-1-1.078 5.2 5.2 0 0 1-.61-1.453 6.6 6.6 0 0 1-.203-1.594q0-.828.203-1.703a5.6 5.6 0 0 1 .625-1.61q.421-.734 1.078-1.187.656-.47 1.563-.469.875 0 1.484.485.625.468 1 1.187.375.703.531 1.547.155.843.11 1.594a8.6 8.6 0 0 1-.266 1.672 5.3 5.3 0 0 1-.61 1.515q-.405.672-1.03 1.094-.626.422-1.485.422m.156-7.062q-.234 0-.422.25-.171.25-.297.61a5.5 5.5 0 0 0-.171.765q-.063.39-.063.688 0 .375.063.812.078.438.203.813.125.36.296.61.189.233.422.234.25 0 .422-.235.188-.234.297-.594.11-.36.156-.78.047-.438.047-.813 0-.345-.062-.75a4.3 4.3 0 0 0-.188-.782 1.8 1.8 0 0 0-.297-.593q-.172-.235-.406-.235m14.531 1.016q-.405 1.078-.89 2.25-.484 1.172-1.047 2.187-.344.626-.766 1.047-.422.407-.969.407-.437 0-.859-.438a6.6 6.6 0 0 1-.766-1.062q-.344-.626-.609-1.25a23 23 0 0 1-.375-1.016 39 39 0 0 0-.281-.906 15 15 0 0 1-.281-.985 12 12 0 0 1-.204-.984 6 6 0 0 1-.078-.938q0-.61.22-1 .217-.39.858-.39.25 0 .454.156.203.142.375.406.172.266.328.625.156.345.297.766.14.406.265.844.126.437.25.843.126.407.25.797.141.375.36.75l.25-.64.296-.766q.173-.406.36-.828.187-.438.406-.844a8.3 8.3 0 0 1 .89-1.437q.485-.594.954-.594.438 0 .625.266.187.265.187.687t-.14.953-.36 1.094m4.016 6.047q-.797 0-1.39-.422a3.7 3.7 0 0 1-1-1.078 5.2 5.2 0 0 1-.61-1.453 6.6 6.6 0 0 1-.203-1.594q0-.828.203-1.703.203-.89.625-1.61.421-.734 1.078-1.187.657-.47 1.563-.469.875 0 1.484.485.625.468 1 1.187.375.703.531 1.547a6.5 6.5 0 0 1 .11 1.594 8.6 8.6 0 0 1-.266 1.672 5.3 5.3 0 0 1-.61 1.515q-.405.672-1.03 1.094-.626.422-1.485.422m.156-7.063q-.234 0-.422.25-.171.25-.296.61a5.5 5.5 0 0 0-.172.765q-.063.39-.063.688 0 .375.063.812.078.438.203.813.124.36.297.61.187.233.421.234.25 0 .422-.235.188-.234.297-.594.11-.36.156-.78.047-.438.047-.813 0-.345-.062-.75a4.3 4.3 0 0 0-.188-.782 1.8 1.8 0 0 0-.296-.593q-.172-.235-.407-.235m10.766 1.016a77 77 0 0 1-.891 2.25q-.484 1.172-1.047 2.187a4.6 4.6 0 0 1-.765 1.047q-.422.407-.969.407-.437 0-.86-.438a6.6 6.6 0 0 1-.765-1.062q-.344-.626-.61-1.25a23 23 0 0 1-.374-1.016 39 39 0 0 0-.282-.906 15 15 0 0 1-.28-.985 12 12 0 0 1-.204-.984 6 6 0 0 1-.078-.938q0-.61.219-1 .218-.39.859-.39.25 0 .453.156.203.142.375.406.172.266.328.625.156.345.297.766.14.406.266.844.124.437.25.843.124.407.25.797.14.375.359.75l.25-.64q.141-.36.297-.766.172-.406.359-.828.188-.438.407-.844a8.4 8.4 0 0 1 .89-1.437q.485-.594.953-.594.438 0 .625.266.188.265.188.687t-.141.953a10 10 0 0 1-.359 1.094m4.016 6.047q-.797 0-1.391-.422a3.7 3.7 0 0 1-1-1.078 5.2 5.2 0 0 1-.609-1.453 6.5 6.5 0 0 1-.204-1.594q0-.828.204-1.703.202-.89.625-1.61.421-.734 1.078-1.187.656-.47 1.562-.469.875 0 1.485.485.624.468 1 1.187.375.703.531 1.547a6.5 6.5 0 0 1 .109 1.594 8.6 8.6 0 0 1-.265 1.672 5.3 5.3 0 0 1-.61 1.515 3.5 3.5 0 0 1-1.031 1.094q-.626.422-1.484.422m.156-7.063q-.234 0-.422.25-.172.25-.297.61-.11.36-.172.765a4.4 4.4 0 0 0-.062.688q0 .375.062.812.078.438.203.813.126.36.297.61.188.233.422.234.25 0 .422-.235.188-.234.297-.594.11-.36.156-.78a8 8 0 0 0 .047-.813q0-.345-.063-.75a4.3 4.3 0 0 0-.187-.782 1.8 1.8 0 0 0-.297-.593q-.172-.235-.406-.235m1.969-3.687q0 .124-.047.156a.3.3 0 0 1-.157.031q-.187 0-.421-.093a4 4 0 0 1-.454-.235 12 12 0 0 1-.437-.297 6 6 0 0 1-.344-.28l-.375.296a5 5 0 0 1-.437.328 5 5 0 0 1-.469.25 1.2 1.2 0 0 1-.438.094.4.4 0 0 1-.156-.031q-.062-.031-.062-.157 0-.234.203-.593a3.8 3.8 0 0 1 .5-.688 4 4 0 0 1 .625-.562q.328-.235.578-.235t.578.235q.328.218.609.53.297.314.5.657t.204.594m12.562.015q0 1.14-.094 2.266-.078 1.125-.078 2.266 0 .921.047 1.828.063.906.063 1.828 0 .25-.016.61a3 3 0 0 1-.109.671 1.3 1.3 0 0 1-.282.563q-.187.234-.547.234-.468 0-.781-.344a1.7 1.7 0 0 1-.375-.797 2.7 2.7 0 0 1-.859.954q-.562.39-1.219.39-.703 0-1.219-.484a4.3 4.3 0 0 1-.843-1.172 7 7 0 0 1-.5-1.438 6.4 6.4 0 0 1-.157-1.296 10 10 0 0 1 .203-1.907 8 8 0 0 1 .313-1q.187-.5.469-.89.297-.391.687-.625a1.8 1.8 0 0 1 .922-.235q.562 0 1.078.328.516.33.781.813l.141-2.484q.015-.298.047-.688.031-.405.125-.766.11-.36.328-.609.219-.25.641-.25.453 0 .703.219t.359.562q.124.33.141.72.031.39.031.733m-2.547 6.938q0-.36-.015-.703a8 8 0 0 1 0-.703 9 9 0 0 0-.219-.438 2 2 0 0 0-.313-.453 1.6 1.6 0 0 0-.39-.36.85.85 0 0 0-.469-.14.6.6 0 0 0-.453.172 1 1 0 0 0-.25.422 2.5 2.5 0 0 0-.11.515 9 9 0 0 0-.015.485 7.3 7.3 0 0 0 .14 1.297q.094.375.25.656.157.28.422.281.203 0 .407-.078.203-.093.375-.219.187-.14.343-.297.172-.171.297-.312zm6.156-7.563a.64.64 0 0 1-.125.391 1.2 1.2 0 0 1-.296.313 2 2 0 0 1-.407.203 1.5 1.5 0 0 1-.406.062.96.96 0 0 1-.547-.156q-.234-.157-.234-.484a.74.74 0 0 1 .109-.407 1 1 0 0 1 .297-.297 1.2 1.2 0 0 1 .391-.187 1.5 1.5 0 0 1 .422-.063q.296 0 .546.141t.25.484m.125 5.313v.469q0 .234-.015.453-.016.265-.016.719 0 .437-.031.953a12 12 0 0 1-.109 1.047 4.4 4.4 0 0 1-.219.968 2 2 0 0 1-.422.72.9.9 0 0 1-.641.28.58.58 0 0 1-.5-.234 2.2 2.2 0 0 1-.343-.64 5.3 5.3 0 0 1-.188-.891 17 17 0 0 1-.094-.953 13 13 0 0 1-.031-.86v-1.281q0-.47.031-1 .032-.531.11-1.078a6 6 0 0 1 .25-1q.171-.453.437-.735a.88.88 0 0 1 .672-.28q.422 0 .641.421.218.422.328.984.109.563.125 1.125.015.548.015.813m5.688-3q0 .453-.313.672a6 6 0 0 1-.671.422q-.376.188-.688.453-.297.266-.297.797a.9.9 0 0 0 .125.484q.14.203.328.375.204.156.438.328t.422.39q.202.22.328.532.14.313.14.766 0 .656-.343 1.297a4.3 4.3 0 0 1-.86 1.125 4.3 4.3 0 0 1-1.172.78 3.1 3.1 0 0 1-1.296.298q-.267 0-.532-.047a1.5 1.5 0 0 1-.484-.14 1.04 1.04 0 0 1-.344-.298.9.9 0 0 1-.14-.515q0-.438.171-.672.172-.25.438-.39.265-.142.562-.22.313-.078.579-.187.265-.125.437-.313t.172-.53q0-.33-.266-.673a14 14 0 0 0-.562-.75 8 8 0 0 1-.578-.86 2.03 2.03 0 0 1-.25-1q0-.67.265-1.233.282-.58.735-1a3.5 3.5 0 0 1 1.062-.657q.594-.25 1.25-.25.25 0 .485.047.25.047.437.172a.8.8 0 0 1 .297.313.86.86 0 0 1 .125.484m5.203 0q0 .453-.312.672a6 6 0 0 1-.672.422q-.375.188-.688.453-.297.266-.297.797a.9.9 0 0 0 .125.484q.14.203.328.375.204.156.438.328t.422.39q.203.22.328.532.141.313.141.766 0 .656-.344 1.297a4.3 4.3 0 0 1-.86 1.125 4.3 4.3 0 0 1-1.171.78q-.657.298-1.297.298-.266 0-.532-.047a1.5 1.5 0 0 1-.484-.14 1.05 1.05 0 0 1-.344-.298.9.9 0 0 1-.14-.515q0-.438.172-.672.171-.25.437-.39.266-.142.563-.22.312-.078.578-.187.266-.125.437-.313.172-.188.172-.53 0-.33-.266-.673a14 14 0 0 0-.562-.75 8 8 0 0 1-.578-.86 2.03 2.03 0 0 1-.25-1q0-.67.265-1.233.282-.58.735-1a3.5 3.5 0 0 1 1.062-.657q.594-.25 1.25-.25.25 0 .485.047.25.047.437.172a.8.8 0 0 1 .297.313.86.86 0 0 1 .125.484m7.172 5.812q0 .532-.344 1.047-.328.5-.844.907a5 5 0 0 1-1.078.64q-.577.235-1.062.235a2.77 2.77 0 0 1-1.485-.407 3.9 3.9 0 0 1-1.078-1.062 5.2 5.2 0 0 1-.672-1.406 5.6 5.6 0 0 1-.218-1.516q0-.78.218-1.672a6.1 6.1 0 0 1 .657-1.64q.453-.75 1.125-1.25.687-.5 1.625-.5.53 0 1.015.187a2.46 2.46 0 0 1 1.422 1.281q.219.453.219 1.016 0 .735-.313 1.375a3.6 3.6 0 0 1-.828 1.11 4.4 4.4 0 0 1-1.187.765 4 4 0 0 1-1.375.312q.062.453.359.657.312.203.735.203.312 0 .609-.157.297-.156.578-.343.282-.203.547-.36.281-.156.562-.156a.87.87 0 0 1 .563.203.65.65 0 0 1 .25.531m-2.531-3.828a.94.94 0 0 0-.11-.422.36.36 0 0 0-.343-.218.9.9 0 0 0-.579.187 1.4 1.4 0 0 0-.39.453q-.156.266-.25.578a3 3 0 0 0-.094.579q.219-.047.516-.125.312-.079.578-.204.281-.14.469-.343a.66.66 0 0 0 .203-.485m14.187-.656-.25 2.266q-.124 1.125-.172 2.25a33 33 0 0 0-.062 2.453q.015 1.155.015 2.453 0 .312-.015.766 0 .453-.11.875-.109.42-.359.718-.234.297-.719.297a.62.62 0 0 1-.406-.14 1.4 1.4 0 0 1-.281-.375 3 3 0 0 1-.188-.5 10 10 0 0 1-.109-.579 12 12 0 0 1-.094-1.218v-2.969a2.3 2.3 0 0 1-.937.719q-.562.234-1.125.234-.703 0-1.219-.328a3 3 0 0 1-.828-.86 4 4 0 0 1-.485-1.156 5 5 0 0 1-.156-1.218v-.094a6.8 6.8 0 0 1 .25-1.75 6.8 6.8 0 0 1 .735-1.766 4.6 4.6 0 0 1 1.234-1.344 2.87 2.87 0 0 1 1.734-.546q.531 0 .969.218.453.219.641.72.125-.36.375-.58a.98.98 0 0 1 .672-.233q.515 0 .718.343.219.33.219.735 0 .171-.016.312zm-3.594.375q-.359 0-.671.297a2.7 2.7 0 0 0-.547.703q-.236.406-.375.875a3.2 3.2 0 0 0-.125.828q0 .219.031.469.047.25.125.484.094.219.234.375.157.14.391.14.203 0 .469-.093.28-.11.547-.265.266-.172.468-.375.203-.204.282-.391.047-.11.078-.328a7 7 0 0 0 .047-.453 9 9 0 0 0 .062-.844q0-.188-.094-.422a2 2 0 0 0-.218-.469 1.3 1.3 0 0 0-.329-.375.6.6 0 0 0-.375-.156m11.188 2.422q0 .859-.172 1.703a4.7 4.7 0 0 1-.578 1.516 3.15 3.15 0 0 1-1.094 1.062q-.672.406-1.687.406-1 0-1.672-.39a3.2 3.2 0 0 1-1.078-1.063 4.8 4.8 0 0 1-.563-1.484 9 9 0 0 1-.156-1.688q0-.937.219-1.859.046-.25.172-.687a6 6 0 0 1 .343-.875q.22-.438.485-.75.28-.313.609-.313.312 0 .5.172.187.171.297.437.11.251.141.547.03.282.031.516 0 .36-.063.703-.046.344-.109.688l-.125.937a9.5 9.5 0 0 0-.031 1.469q.03.281.125.547.094.265.265.453.172.171.485.172.406 0 .64-.22.25-.218.36-.546.125-.328.156-.703t.031-.688q0-.687-.094-1.343a56 56 0 0 1-.171-1.36 1.5 1.5 0 0 1 .062-.687q.078-.234.219-.422.14-.187.344-.297a.84.84 0 0 1 .453-.125q.343 0 .609.25.266.234.438.625.187.375.296.86.125.468.188.937.078.453.094.86.03.406.031.64m7.5 1.687q0 .532-.344 1.047-.328.5-.844.907a5 5 0 0 1-1.078.64q-.577.235-1.062.235a2.77 2.77 0 0 1-1.485-.407 3.9 3.9 0 0 1-1.078-1.062 5.2 5.2 0 0 1-.672-1.406 5.6 5.6 0 0 1-.218-1.516q0-.78.218-1.672a6.1 6.1 0 0 1 .657-1.64q.453-.75 1.125-1.25.687-.5 1.625-.5.53 0 1.015.187a2.46 2.46 0 0 1 1.422 1.281q.219.453.219 1.016 0 .735-.313 1.375a3.6 3.6 0 0 1-.828 1.11 4.4 4.4 0 0 1-1.187.765 4 4 0 0 1-1.375.312q.062.453.359.657.312.203.735.203.312 0 .609-.157.297-.156.578-.343.282-.203.547-.36.281-.156.562-.156a.87.87 0 0 1 .563.203.65.65 0 0 1 .25.531m-2.531-3.828a.94.94 0 0 0-.11-.422.36.36 0 0 0-.343-.218.9.9 0 0 0-.579.187 1.4 1.4 0 0 0-.39.453q-.156.266-.25.578a3 3 0 0 0-.094.579q.219-.047.516-.125.312-.079.578-.204.281-.14.469-.343a.66.66 0 0 0 .203-.485m10.562 7.172q-1.11 0-1.734-.297a2 2 0 0 1-.922-.812q-.297-.531-.359-1.281-.063-.75-.063-1.672 0-.735.047-1.47.046-.75.141-1.593-.22 0-.344.016h-.203q-.5 0-.86-.219-.375-.219-.375-.672 0-.28.219-.5.203-.218.531-.375.328-.156.703-.25.391-.093.735-.125 0-.437.062-.969a4.7 4.7 0 0 1 .219-.984q.172-.468.453-.781a.93.93 0 0 1 .719-.313.66.66 0 0 1 .437.157q.203.14.329.375a1.8 1.8 0 0 1 .187.5q.063.281.063.546 0 .313-.047.641-.048.329-.172.813.266-.032.359-.032.094-.015.172-.015.265 0 .547.047.297.046.531.156.25.11.406.297a.6.6 0 0 1 .157.422.67.67 0 0 1-.235.5q-.219.218-.562.375a4 4 0 0 1-.735.25q-.39.078-.734.109a21 21 0 0 0-.141 1.187q-.03.532-.078 1.079l-.062.546a9 9 0 0 0 0 1.032q.016.266.109.515.094.25.297.438.203.171.563.172.218 0 .453-.032.234-.045.468-.046.406 0 .579.28.187.282.187.72a.9.9 0 0 1-.203.578 1.35 1.35 0 0 1-.484.375 2.6 2.6 0 0 1-.672.234q-.36.078-.688.078m8.906-3.344q0 .532-.343 1.047-.328.5-.844.907-.5.39-1.078.64-.579.235-1.063.235a2.76 2.76 0 0 1-1.484-.407 3.9 3.9 0 0 1-1.078-1.062 5.1 5.1 0 0 1-.672-1.406 5.6 5.6 0 0 1-.219-1.516q0-.78.219-1.672.219-.89.656-1.64.453-.75 1.125-1.25.687-.5 1.625-.5.531 0 1.016.187a2.46 2.46 0 0 1 1.422 1.281q.218.453.218 1.016 0 .735-.312 1.375a3.6 3.6 0 0 1-.828 1.11 4.4 4.4 0 0 1-1.188.765 4 4 0 0 1-1.375.312q.063.453.36.657.312.203.734.203.312 0 .609-.157.297-.156.579-.343.28-.203.546-.36.281-.156.563-.156.312 0 .562.203a.65.65 0 0 1 .25.531m-2.531-3.828a.94.94 0 0 0-.109-.422.36.36 0 0 0-.344-.218.9.9 0 0 0-.578.187 1.4 1.4 0 0 0-.391.453q-.156.266-.25.578a3 3 0 0 0-.093.579q.218-.047.515-.125.312-.079.578-.204.282-.14.469-.343a.66.66 0 0 0 .203-.485m12.641 1.453v.813q0 .5-.031 1.094-.016.594-.094 1.203a5.3 5.3 0 0 1-.25 1.078q-.157.484-.406.797a.79.79 0 0 1-.641.312.6.6 0 0 1-.531-.28 2.2 2.2 0 0 1-.25-.688 5 5 0 0 1-.094-.797v-.64q0-.704.047-1.376t.047-1.375v-.281q0-.204-.032-.406a1.2 1.2 0 0 0-.109-.36q-.063-.156-.203-.156-.282 0-.453.297a2.6 2.6 0 0 0-.281.672q-.11.39-.157.78-.047.375-.062.563a9 9 0 0 0-.063.61q-.015.406-.062.89a9 9 0 0 1-.125 1q-.078.5-.219.922-.125.407-.328.672t-.5.266a.64.64 0 0 1-.578-.328 2.4 2.4 0 0 1-.297-.766 6 6 0 0 1-.125-.89 20 20 0 0 1-.016-.704v-.515q.016-.25.016-.516v-.36a10 10 0 0 0-.016-.546 7 7 0 0 0-.031-.64 5 5 0 0 0-.062-.595 1.5 1.5 0 0 0-.141-.453q-.094-.171-.219-.172-.202 0-.375.266-.171.25-.297.61-.125.343-.203.687-.062.344-.062.5v.094q0 .75.093 1.468.094.72.094 1.47 0 .436-.281.812-.282.36-.781.36a.76.76 0 0 1-.594-.267 2.4 2.4 0 0 1-.391-.718 6 6 0 0 1-.25-.953 13 13 0 0 1-.109-1.032 39 39 0 0 1-.047-.922v-.625q0-.234-.016-.687 0-.453.016-.984.031-.532.094-1.079.062-.562.203-1.015.14-.453.359-.735a.73.73 0 0 1 .594-.296q.407 0 .656.218.266.219.266.657 0 .093-.016.187 0 .094-.015.172a3.5 3.5 0 0 1 .422-.5q.249-.265.531-.469a2.6 2.6 0 0 1 .625-.344q.328-.14.656-.14.312 0 .563.172t.437.437a2.6 2.6 0 0 1 .313.547q.124.297.171.563a5 5 0 0 1 .375-.563 3.4 3.4 0 0 1 .5-.516q.265-.218.579-.359.327-.14.671-.14.329 0 .563.234.235.235.406.61.172.359.266.827.093.453.156.907.063.436.078.828.016.375.016.593M41.689 50.085q0 1.14-.094 2.266-.078 1.125-.078 2.266 0 .921.047 1.828.062.906.062 1.828 0 .25-.015.61a3 3 0 0 1-.11.671 1.3 1.3 0 0 1-.281.563q-.187.234-.547.234-.468 0-.781-.344a1.7 1.7 0 0 1-.375-.797 2.7 2.7 0 0 1-.86.954q-.561.39-1.218.39a1.72 1.72 0 0 1-1.219-.484 4.3 4.3 0 0 1-.844-1.172 7 7 0 0 1-.5-1.438 6.5 6.5 0 0 1-.156-1.296 9.6 9.6 0 0 1 .203-1.907q.126-.515.313-1 .187-.5.468-.89.297-.391.688-.625a1.8 1.8 0 0 1 .922-.235q.562 0 1.078.328.516.33.781.813l.14-2.484q.017-.297.048-.688.03-.406.125-.766.11-.36.328-.609.22-.25.64-.25.454 0 .703.219.25.219.36.562.125.33.14.72.032.39.032.733m-2.547 6.938q0-.36-.016-.703a8 8 0 0 1 0-.703 9 9 0 0 0-.218-.438 2 2 0 0 0-.313-.453 1.6 1.6 0 0 0-.39-.36.85.85 0 0 0-.47-.14.6.6 0 0 0-.453.172 1 1 0 0 0-.25.422 2.5 2.5 0 0 0-.109.515q-.015.282-.016.485 0 .187.032.562.03.36.11.735.093.375.25.656.155.28.421.281.202 0 .406-.078.203-.093.375-.219.188-.14.344-.297.172-.171.297-.312zm6.156-7.563a.65.65 0 0 1-.125.391 1.2 1.2 0 0 1-.297.313q-.187.124-.406.203a1.5 1.5 0 0 1-.406.062.96.96 0 0 1-.547-.156q-.235-.157-.235-.484a.74.74 0 0 1 .11-.407q.125-.187.297-.297.172-.124.39-.187.22-.063.422-.063.297 0 .547.141t.25.484m.125 5.313v.469q0 .234-.016.453-.015.265-.015.719 0 .437-.031.953-.032.515-.11 1.047a4.4 4.4 0 0 1-.218.968 2 2 0 0 1-.422.72.9.9 0 0 1-.641.28.58.58 0 0 1-.5-.234 2.2 2.2 0 0 1-.344-.64 5.4 5.4 0 0 1-.187-.891 17 17 0 0 1-.094-.953q-.03-.47-.031-.86v-1.281q0-.47.031-1 .03-.531.11-1.078a6.4 6.4 0 0 1 .25-1q.171-.453.437-.735a.88.88 0 0 1 .672-.28q.422 0 .64.421.22.422.328.984.11.563.126 1.125.015.547.015.813m7.75 3.39q0 .282-.031.735a4.3 4.3 0 0 1-.125.89 2.1 2.1 0 0 1-.344.735q-.234.312-.656.312-.579 0-.89-.375-.314-.375-.298-.937a3.8 3.8 0 0 1-1.14.687 3.4 3.4 0 0 1-1.282.25q-.453 0-.859-.218a2.7 2.7 0 0 1-.719-.563 2.9 2.9 0 0 1-.5-.765 2.2 2.2 0 0 1-.187-.86q0-.75.453-1.312a4.3 4.3 0 0 1 1.14-.953q.673-.407 1.422-.641.766-.234 1.36-.313v-.14a.6.6 0 0 0 .015-.14q0-.486-.265-.782t-.75-.297q-.39 0-.672.14a3.3 3.3 0 0 0-.531.298q-.25.156-.5.296a1.24 1.24 0 0 1-.563.125.87.87 0 0 1-.593-.218.74.74 0 0 1-.235-.563q0-.516.297-.937.313-.423.766-.703a4 4 0 0 1 1-.454 3.4 3.4 0 0 1 1-.171q.42 0 .843.109.422.094.797.312.375.204.672.516.313.297.5.703.282.578.453 1.235.172.64.266 1.328.093.671.125 1.36.03.671.031 1.312m-2.5-.5-.047-1.062h-.062a.14.14 0 0 0-.063-.016q-.203 0-.515.11-.297.093-.578.281a2.3 2.3 0 0 0-.485.39.7.7 0 0 0-.187.454q0 .219.156.297a.8.8 0 0 0 .36.078q.342 0 .734-.172.39-.187.687-.36m10.828-2.453q0 .454-.078 1.032-.062.562-.219 1.156a6.6 6.6 0 0 1-.39 1.156 4.3 4.3 0 0 1-.594 1.016q-.344.437-.812.703a2.06 2.06 0 0 1-1.063.266q-.64 0-1.172-.297a2.9 2.9 0 0 1-.89-.813 1.3 1.3 0 0 1-.344.75 1 1 0 0 1-.75.313q-.265 0-.453-.266a2.4 2.4 0 0 1-.282-.672 7 7 0 0 1-.172-.922 16 16 0 0 1-.062-.968q-.016-.47-.016-.844v-1.594l.032-1.078q0-.266-.016-.797 0-.531.016-1.172.014-.656.062-1.328.063-.687.203-1.25t.39-.922q.251-.36.642-.375.312 0 .53.219.22.218.36.578.156.36.234.813.094.437.126.89.046.438.046.844.015.39.016.64 0 .048-.016.22v.843q.141-.296.407-.578t.593-.5q.329-.219.688-.36.36-.14.687-.14.657 0 1.094.344.453.328.719.843.266.517.375 1.125.11.594.11 1.125m-2.297.47q0-.189-.03-.407a1.1 1.1 0 0 0-.11-.406.8.8 0 0 0-.235-.313.54.54 0 0 0-.375-.125q-.25 0-.5.11a2.3 2.3 0 0 0-.453.28q-.219.172-.406.376-.187.188-.328.375l-.156 1.39q.25.36.609.579.36.203.813.203.343 0 .562-.22.234-.218.36-.53a2.6 2.6 0 0 0 .187-.688q.063-.36.062-.625m9.797 1.905q0 .532-.344 1.047-.328.5-.843.907-.5.39-1.078.64-.579.235-1.063.235a2.76 2.76 0 0 1-1.484-.407 3.9 3.9 0 0 1-1.078-1.062 5.2 5.2 0 0 1-.672-1.406 5.6 5.6 0 0 1-.219-1.516q0-.78.219-1.672.219-.89.656-1.64a4.3 4.3 0 0 1 1.125-1.25q.687-.5 1.625-.5.531 0 1.016.187a2.45 2.45 0 0 1 1.421 1.281q.22.453.22 1.016 0 .735-.313 1.375a3.6 3.6 0 0 1-.828 1.11q-.516.468-1.188.765a4 4 0 0 1-1.375.312q.063.453.36.657.312.203.734.203.312 0 .61-.157.296-.156.577-.343.282-.203.547-.36a1.15 1.15 0 0 1 .563-.156.87.87 0 0 1 .562.203q.25.204.25.531m-2.531-3.828a.94.94 0 0 0-.11-.422.36.36 0 0 0-.343-.218.9.9 0 0 0-.578.187 1.4 1.4 0 0 0-.39.453q-.157.266-.25.578a3 3 0 0 0-.095.579q.219-.047.516-.125.312-.079.578-.204.282-.14.469-.343a.66.66 0 0 0 .203-.485m6.797 7.172q-1.11 0-1.734-.297a2 2 0 0 1-.922-.812q-.297-.531-.36-1.281-.062-.75-.062-1.672 0-.735.047-1.47.046-.75.14-1.593-.219 0-.344.016h-.203q-.5 0-.859-.219-.375-.219-.375-.672 0-.28.219-.5a1.7 1.7 0 0 1 .531-.375 3.7 3.7 0 0 1 .703-.25q.39-.093.734-.125 0-.437.063-.969.063-.531.219-.984.171-.468.453-.781a.92.92 0 0 1 .719-.313q.25 0 .437.157.204.14.328.375.126.218.188.5.062.281.062.546 0 .313-.047.641a8 8 0 0 1-.171.813q.265-.032.359-.032.094-.015.172-.015.266 0 .547.047.297.046.53.156.251.11.407.297a.6.6 0 0 1 .156.422.67.67 0 0 1-.234.5q-.219.218-.562.375-.344.156-.735.25-.39.078-.734.109-.095.64-.14 1.187-.033.532-.079 1.079l-.062.546q-.016.267-.016.547 0 .203.016.485.015.266.109.515.093.25.297.438.203.171.562.172.219 0 .453-.032.235-.045.47-.046.405 0 .577.28.188.282.188.72a.9.9 0 0 1-.203.578 1.35 1.35 0 0 1-.485.375 2.6 2.6 0 0 1-.672.234q-.36.078-.687.078m8.906-3.344q0 .532-.344 1.047-.328.5-.843.907-.5.39-1.079.64-.578.235-1.062.235a2.76 2.76 0 0 1-1.484-.407 3.9 3.9 0 0 1-1.079-1.062 5.2 5.2 0 0 1-.671-1.406 5.6 5.6 0 0 1-.22-1.516q0-.78.22-1.672.218-.89.656-1.64a4.3 4.3 0 0 1 1.125-1.25q.687-.5 1.625-.5.531 0 1.016.187a2.45 2.45 0 0 1 1.421 1.281q.22.453.22 1.016 0 .735-.313 1.375a3.6 3.6 0 0 1-.829 1.11q-.516.468-1.187.765a4 4 0 0 1-1.375.312q.063.453.36.657.312.203.734.203.312 0 .61-.157.296-.156.577-.343.282-.203.547-.36a1.15 1.15 0 0 1 .563-.156q.312 0 .562.203t.25.531m-2.531-3.828a.94.94 0 0 0-.11-.422.36.36 0 0 0-.343-.218.9.9 0 0 0-.578.187 1.4 1.4 0 0 0-.391.453 2.6 2.6 0 0 0-.25.578 3 3 0 0 0-.094.579q.219-.047.516-.125.312-.079.578-.204.282-.14.469-.343a.66.66 0 0 0 .203-.485m7.734-1.984q0 .453-.312.672a6 6 0 0 1-.672.422q-.376.188-.688.453-.296.266-.296.797 0 .281.124.484.141.203.329.375.202.156.437.328t.422.39q.203.22.328.532.14.313.14.766 0 .656-.343 1.297a4.3 4.3 0 0 1-.86 1.125 4.3 4.3 0 0 1-1.171.78q-.657.298-1.297.298-.266 0-.531-.047a1.5 1.5 0 0 1-.485-.14 1.04 1.04 0 0 1-.344-.298.9.9 0 0 1-.14-.515q0-.438.172-.672.171-.25.437-.39.266-.142.563-.22.312-.078.578-.187.266-.125.437-.313.172-.188.172-.53 0-.33-.265-.673-.25-.36-.563-.75a8 8 0 0 1-.578-.86 2.04 2.04 0 0 1-.25-1q0-.67.266-1.233a3.4 3.4 0 0 1 .734-1q.47-.422 1.063-.657a3.2 3.2 0 0 1 1.25-.25q.25 0 .484.047.25.047.437.172a.8.8 0 0 1 .297.313.86.86 0 0 1 .125.484m2.89 7.844a.8.8 0 0 1-.093.375.9.9 0 0 1-.25.265q-.14.11-.328.172a1 1 0 0 1-.36.063q-.234 0-.515-.094a1.8 1.8 0 0 1-.5-.234 1.8 1.8 0 0 1-.375-.36.8.8 0 0 1-.156-.484q0-.422.36-.625a1.4 1.4 0 0 1 1.218-.14q.265.077.484.234.234.14.375.359.14.203.14.469m2.891 0a.8.8 0 0 1-.093.375.9.9 0 0 1-.25.265q-.14.11-.328.172a1 1 0 0 1-.36.063q-.234 0-.515-.094a1.8 1.8 0 0 1-.5-.234 1.8 1.8 0 0 1-.375-.36.8.8 0 0 1-.157-.484q0-.422.36-.625a1.4 1.4 0 0 1 1.219-.14q.265.077.484.234.234.14.375.359.14.203.14.469m2.891 0a.8.8 0 0 1-.094.375.9.9 0 0 1-.25.265q-.14.11-.328.172a1 1 0 0 1-.36.063q-.233 0-.515-.094a1.8 1.8 0 0 1-.5-.234 1.8 1.8 0 0 1-.375-.36.8.8 0 0 1-.156-.484q0-.422.36-.625a1.4 1.4 0 0 1 1.218-.14q.266.077.484.234.235.14.376.359.14.203.14.469m15.078-.953q-.047.406-.14.796-.078.39-.203.704a1.2 1.2 0 0 1-.329.468.6.6 0 0 1-.437.188q-.25 0-.453-.39a5.4 5.4 0 0 1-.391-1 22 22 0 0 1-.328-1.438 77 77 0 0 1-.266-1.61 51 51 0 0 1-.187-1.61q-.078-.78-.125-1.358-.094.593-.219 1.328t-.297 1.5q-.171.75-.375 1.484-.203.72-.437 1.297a4 4 0 0 1-.5.906q-.266.344-.563.344-.266 0-.531-.36a4.8 4.8 0 0 1-.516-.937 14 14 0 0 1-.468-1.312q-.22-.72-.407-1.438-.187-.735-.328-1.375a35 35 0 0 1-.218-1.094q0 .33-.016.735v.562q0 .078-.016.516 0 .437-.047 1.047t-.14 1.312a8 8 0 0 1-.281 1.281 3.7 3.7 0 0 1-.438 1q-.266.407-.656.438a1.25 1.25 0 0 1-.531-.469 3.7 3.7 0 0 1-.344-.797 6.6 6.6 0 0 1-.219-.968 16 16 0 0 1-.187-1.922v-.688q0-.468.046-1.172.063-.718.188-1.5.125-.78.328-1.562t.484-1.39q.297-.626.672-1.016.392-.39.891-.391.234 0 .5.266.266.265.531.703.266.421.516.953.25.53.469 1.078.234.531.406 1.031.171.485.281.828.125-.374.313-.875.187-.5.406-1.03.234-.548.5-1.063.28-.532.578-.938.297-.422.594-.672.312-.265.625-.265.547 0 .937.406.391.406.656 1.062.266.641.422 1.453.156.798.235 1.594.093.781.109 1.469.031.687.031 1.11v.468q0 .297-.015.672 0 .375-.032.797-.03.421-.078.844m7.875-.5q0 .28-.031.734-.015.453-.125.89a2.1 2.1 0 0 1-.344.735q-.234.312-.656.312-.578 0-.891-.375-.312-.375-.296-.937-.5.437-1.141.687-.626.25-1.281.25a1.8 1.8 0 0 1-.86-.218 2.7 2.7 0 0 1-.718-.563 2.8 2.8 0 0 1-.5-.765 2.2 2.2 0 0 1-.188-.86q0-.75.453-1.312a4.3 4.3 0 0 1 1.141-.953q.672-.407 1.422-.641a8.5 8.5 0 0 1 1.359-.313v-.14a.6.6 0 0 0 .016-.14q0-.486-.266-.782t-.75-.297q-.39 0-.672.14a3.3 3.3 0 0 0-.531.298q-.25.156-.5.296a1.24 1.24 0 0 1-.563.125.87.87 0 0 1-.593-.218.73.73 0 0 1-.235-.563q0-.516.297-.937.313-.423.766-.703a4 4 0 0 1 1-.454 3.4 3.4 0 0 1 1-.171q.421 0 .844.109.421.094.796.312.375.204.672.516.313.297.5.703.282.578.453 1.235.173.64.266 1.328.094.671.125 1.36.031.671.031 1.312m-2.5-.5-.047-1.063h-.062a.14.14 0 0 0-.063-.016q-.203 0-.515.11a2.3 2.3 0 0 0-.578.281 2.3 2.3 0 0 0-.485.39.7.7 0 0 0-.187.454q0 .219.156.297a.8.8 0 0 0 .359.078q.344 0 .735-.172.39-.187.687-.36m8.016-5.891q0 .453-.313.672a6 6 0 0 1-.671.422q-.376.188-.688.453-.297.266-.297.797a.9.9 0 0 0 .125.484q.14.203.328.375.204.156.438.328t.422.39q.202.22.328.532.14.313.14.766 0 .656-.343 1.297a4.3 4.3 0 0 1-.86 1.125 4.3 4.3 0 0 1-1.172.78 3.1 3.1 0 0 1-1.296.298q-.267 0-.532-.047a1.5 1.5 0 0 1-.484-.14 1.04 1.04 0 0 1-.344-.298.9.9 0 0 1-.14-.515q0-.438.171-.672.172-.25.438-.39.265-.142.562-.22.313-.078.579-.187.265-.125.437-.313t.172-.53q0-.33-.266-.673a14 14 0 0 0-.562-.75 8 8 0 0 1-.578-.86 2.03 2.03 0 0 1-.25-1q0-.67.265-1.233.282-.58.735-1a3.5 3.5 0 0 1 1.062-.657q.594-.25 1.25-.25.25 0 .485.047.25.047.437.172a.8.8 0 0 1 .297.313.86.86 0 0 1 .125.484m8.828 9.031q-.266 0-.422-.25a1.7 1.7 0 0 1-.234-.547 4.4 4.4 0 0 1-.11-.625q-.015-.327-.015-.5 0-.468.047-.937l.125-.938q.077-.468.125-.937a7 7 0 0 0 .062-.938q0-.187-.015-.406a1.7 1.7 0 0 0-.079-.406.66.66 0 0 0-.171-.328.45.45 0 0 0-.329-.125q-.14 0-.312.234a3.3 3.3 0 0 0-.328.516q-.14.28-.25.578a1.5 1.5 0 0 0-.094.422v.703q.015.343.016.703v.906q-.016.282-.047.578a5 5 0 0 1-.094.578q-.047.282-.141.547a1.7 1.7 0 0 1-.25.453q-.14.188-.343.313a.9.9 0 0 1-.485.125.7.7 0 0 1-.515-.203 1.5 1.5 0 0 1-.328-.516 3.6 3.6 0 0 1-.188-.719 26 26 0 0 1-.078-.78q-.016-.392-.016-.704.016-.328.016-.516v-.734q0-.594-.031-1.172-.016-.577-.016-1.156v-.797q.015-.484.125-.937.11-.47.359-.797.25-.329.735-.328.219 0 .39.14.173.141.297.344.141.203.219.437.094.235.141.407.156-.22.359-.422a2.8 2.8 0 0 1 .484-.36 2.54 2.54 0 0 1 1.344-.343q.797 0 1.235.39.453.375.656.953.219.563.265 1.22.048.656.047 1.187 0 .265-.047.797-.046.515-.156 1.156-.094.624-.265 1.297-.172.655-.407 1.203a3 3 0 0 1-.562.89q-.313.345-.719.344m9.672-2.64q0 .28-.031.734a4.3 4.3 0 0 1-.125.89 2.1 2.1 0 0 1-.344.735q-.234.312-.656.312-.579 0-.891-.375t-.297-.937q-.5.437-1.14.687-.625.25-1.282.25-.453 0-.859-.218a2.7 2.7 0 0 1-.719-.563 2.9 2.9 0 0 1-.5-.765 2.2 2.2 0 0 1-.187-.86q0-.75.453-1.312a4.2 4.2 0 0 1 1.14-.953q.672-.407 1.422-.641.766-.234 1.36-.313v-.14a.6.6 0 0 0 .015-.14q0-.486-.265-.782t-.75-.297q-.392 0-.672.14a3.3 3.3 0 0 0-.531.298q-.25.156-.5.296a1.24 1.24 0 0 1-.563.125.87.87 0 0 1-.594-.218.74.74 0 0 1-.234-.563q0-.516.297-.937.312-.423.765-.703a4 4 0 0 1 1-.454 3.4 3.4 0 0 1 1-.171q.423 0 .844.109.422.094.797.312.375.204.672.516.312.297.5.703.28.578.453 1.235.172.64.266 1.328.093.671.125 1.36.03.671.031 1.312m-2.5-.5-.047-1.063h-.062a.14.14 0 0 0-.063-.016q-.203 0-.516.11-.296.093-.578.281a2.3 2.3 0 0 0-.484.39.7.7 0 0 0-.188.454q0 .219.157.297a.8.8 0 0 0 .359.078q.344 0 .734-.172.391-.187.688-.36m1.891-8.938a1 1 0 0 1-.157.5 2.3 2.3 0 0 1-.39.469 2.7 2.7 0 0 1-.5.344 1.2 1.2 0 0 1-.5.125q-.235 0-.469-.079-.219-.093-.453-.203a4 4 0 0 0-.438-.187 1.1 1.1 0 0 0-.437-.094.64.64 0 0 0-.344.11 5 5 0 0 0-.359.218q-.188.109-.391.203a.8.8 0 0 1-.375.094.49.49 0 0 1-.406-.203.75.75 0 0 1-.156-.438.85.85 0 0 1 .187-.515q.187-.25.469-.438a2.4 2.4 0 0 1 .578-.312q.313-.125.547-.125.266 0 .453.11.202.108.375.25.171.14.344.25a.85.85 0 0 0 .437.109.7.7 0 0 0 .375-.11q.188-.125.36-.265.187-.157.343-.266a.6.6 0 0 1 .36-.125q.218 0 .375.187a.58.58 0 0 1 .172.391m4.515 12.094q-.797 0-1.39-.422a3.7 3.7 0 0 1-1-1.078 5.2 5.2 0 0 1-.61-1.453 6.6 6.6 0 0 1-.203-1.594q0-.828.203-1.703.204-.89.625-1.61.422-.734 1.078-1.187.657-.47 1.563-.469.875 0 1.484.485.625.468 1 1.187.375.703.531 1.547.157.843.11 1.594a8.6 8.6 0 0 1-.266 1.672 5.3 5.3 0 0 1-.609 1.515 3.5 3.5 0 0 1-1.031 1.094q-.626.422-1.485.422m.156-7.063q-.234 0-.421.25-.173.25-.297.61-.11.36-.172.765-.063.39-.063.688 0 .375.063.812.078.438.203.813.125.36.297.61.187.233.422.234.25 0 .422-.235.187-.234.296-.594.11-.36.157-.78a8 8 0 0 0 .047-.813q0-.345-.063-.75a4.4 4.4 0 0 0-.187-.782 1.8 1.8 0 0 0-.297-.593q-.172-.235-.407-.235m14.344 3.828q0 .532-.344 1.047-.328.5-.843.907-.5.39-1.078.64-.579.235-1.063.235a2.76 2.76 0 0 1-1.484-.407 3.9 3.9 0 0 1-1.078-1.062 5.1 5.1 0 0 1-.672-1.406 5.6 5.6 0 0 1-.219-1.516q0-.78.219-1.672.218-.89.656-1.64.453-.75 1.125-1.25.687-.5 1.625-.5.531 0 1.016.187a2.45 2.45 0 0 1 1.421 1.281q.219.453.219 1.016 0 .735-.312 1.375a3.7 3.7 0 0 1-.828 1.11 4.4 4.4 0 0 1-1.188.765 4 4 0 0 1-1.375.312q.063.453.359.657.314.203.735.203.312 0 .609-.157.297-.156.578-.343.282-.203.547-.36.281-.156.563-.156.312 0 .562.203a.65.65 0 0 1 .25.531m-2.531-3.828a.95.95 0 0 0-.109-.422.36.36 0 0 0-.344-.218.9.9 0 0 0-.578.187 1.4 1.4 0 0 0-.391.453q-.156.266-.25.578a3 3 0 0 0-.094.579q.219-.047.516-.125.312-.079.578-.204.282-.14.469-.343a.66.66 0 0 0 .203-.485m.875-5.547q0 .173-.094.344-.093.156-.234.297a2.3 2.3 0 0 1-.281.266q-.157.109-.282.203a8 8 0 0 0-.25.187 3 3 0 0 1-.281.188 3 3 0 0 1-.297.14.7.7 0 0 1-.281.063.4.4 0 0 1-.219-.063.27.27 0 0 1-.094-.218q0-.235.172-.563.188-.344.453-.656.266-.328.563-.547.297-.234.547-.234.219 0 .39.187.188.172.188.406m8.625 1.25a.65.65 0 0 1-.125.391 1.2 1.2 0 0 1-.297.313q-.187.124-.406.203a1.5 1.5 0 0 1-.406.062.96.96 0 0 1-.547-.156q-.235-.157-.235-.484a.74.74 0 0 1 .11-.407 1 1 0 0 1 .297-.297q.171-.124.39-.187a1.5 1.5 0 0 1 .422-.063q.297 0 .547.141t.25.484m.125 5.313v.469q0 .234-.016.453-.015.265-.015.719 0 .437-.032.953-.03.515-.109 1.047a4.4 4.4 0 0 1-.219.968 2 2 0 0 1-.422.72.9.9 0 0 1-.64.28.58.58 0 0 1-.5-.234 2.2 2.2 0 0 1-.344-.64 5.3 5.3 0 0 1-.187-.891 17 17 0 0 1-.094-.953 13 13 0 0 1-.031-.86v-1.281q0-.47.031-1 .031-.531.109-1.078.094-.547.25-1a2.2 2.2 0 0 1 .438-.735.88.88 0 0 1 .672-.28q.421 0 .64.421.219.422.328.984t.125 1.125q.016.547.016.813m8.187.266q0 .796-.031 1.593-.015.798-.078 1.594-.047.687-.125 1.469-.078.78-.25 1.547a9.6 9.6 0 0 1-.453 1.484 4.4 4.4 0 0 1-.75 1.266 3.4 3.4 0 0 1-1.109.875q-.657.328-1.563.328-.422 0-.953-.14a4.2 4.2 0 0 1-.984-.376 2.9 2.9 0 0 1-.782-.625 1.25 1.25 0 0 1-.312-.844q0-.36.25-.671a.86.86 0 0 1 .672-.297q.25 0 .468.078.235.093.454.203.234.11.437.187.219.094.438.094.578 0 .968-.297.391-.28.625-.734.235-.438.344-.969.125-.516.172-.984-.312.36-.734.5a3 3 0 0 1-.86.125q-.828 0-1.406-.281a2.6 2.6 0 0 1-.938-.797 3.7 3.7 0 0 1-.531-1.188 6 6 0 0 1-.172-1.453q0-.484.094-1.094a9.3 9.3 0 0 1 .813-2.453q.312-.594.718-1.047a3.6 3.6 0 0 1 .907-.734 2.3 2.3 0 0 1 1.125-.281q.593 0 1.046.343.47.345.547.97.172-.33.453-.641a.87.87 0 0 1 .688-.329q.22 0 .359.22.157.218.235.577.093.345.14.766.047.406.063.812.015.39.015.72zm-2.375 1.015q0-.234-.078-.61a3.3 3.3 0 0 0-.203-.718 2 2 0 0 0-.328-.594q-.203-.25-.484-.25a.94.94 0 0 0-.641.25 2.3 2.3 0 0 0-.453.61q-.187.343-.297.75-.094.39-.094.672 0 .203.032.546.03.345.125.672.108.33.281.563a.53.53 0 0 0 .453.234q.422 0 .734-.203.313-.203.516-.516.219-.312.328-.687t.109-.719m10.329-.156q0 .859-.172 1.703a4.8 4.8 0 0 1-.578 1.516 3.15 3.15 0 0 1-1.094 1.062q-.672.406-1.688.406-1 0-1.672-.39a3.2 3.2 0 0 1-1.078-1.063 4.8 4.8 0 0 1-.562-1.484 9 9 0 0 1-.156-1.688q0-.937.218-1.859.048-.25.172-.687.14-.454.344-.875.219-.438.484-.75.282-.313.61-.313.312 0 .5.172.187.171.297.437.108.251.14.547.031.282.031.516 0 .36-.062.703-.047.344-.109.688l-.125.937a9 9 0 0 0-.032 1.469q.032.281.125.547.094.265.266.453.172.171.484.172.407 0 .641-.22.25-.218.359-.546.126-.328.157-.703.03-.375.031-.688 0-.687-.094-1.343-.094-.672-.172-1.36a1.5 1.5 0 0 1 .063-.687 1.5 1.5 0 0 1 .218-.422q.141-.187.344-.297a.85.85 0 0 1 .453-.125q.344 0 .61.25.266.234.437.625.188.375.297.86.125.468.188.937.078.452.093.86.032.406.032.64m7.593 2.266q0 .28-.031.734-.015.453-.125.89a2.1 2.1 0 0 1-.344.735q-.234.312-.656.312-.578 0-.891-.375-.312-.375-.296-.937-.5.437-1.141.687-.625.25-1.281.25a1.8 1.8 0 0 1-.86-.218 2.7 2.7 0 0 1-.718-.563 2.8 2.8 0 0 1-.5-.765 2.2 2.2 0 0 1-.188-.86q0-.75.453-1.312a4.3 4.3 0 0 1 1.141-.953q.672-.407 1.422-.641a8.5 8.5 0 0 1 1.359-.313v-.14a.6.6 0 0 0 .016-.14q0-.486-.266-.782t-.75-.297q-.39 0-.672.14a3.3 3.3 0 0 0-.531.298q-.25.156-.5.296a1.24 1.24 0 0 1-.563.125.87.87 0 0 1-.593-.218.73.73 0 0 1-.235-.563q0-.516.297-.937.313-.423.766-.703a4 4 0 0 1 1-.454 3.4 3.4 0 0 1 1-.171q.421 0 .844.109.421.094.796.312.375.204.672.516.313.297.5.703.282.578.453 1.235.173.64.266 1.328.094.671.125 1.36.031.671.031 1.312m-2.5-.5-.047-1.063h-.062a.14.14 0 0 0-.063-.016q-.203 0-.515.11a2.3 2.3 0 0 0-.578.281 2.3 2.3 0 0 0-.485.39.7.7 0 0 0-.187.454q0 .219.156.297a.8.8 0 0 0 .359.078q.344 0 .735-.172.39-.187.687-.36m6.36-6.766q0 .843-.078 1.703-.063.844-.063 1.703 0 1.11.063 2.219.078 1.11.078 2.234 0 .282-.032.64-.03.345-.156.642a1.2 1.2 0 0 1-.344.5q-.234.203-.625.203-.374 0-.656-.375a3.3 3.3 0 0 1-.453-.922 12 12 0 0 1-.297-1.281q-.11-.704-.172-1.36-.046-.672-.078-1.219-.015-.562-.015-.828 0-.297.015-.86.031-.561.11-1.218.077-.656.203-1.328.14-.687.359-1.234.219-.562.516-.907.312-.36.734-.359.344 0 .516.234.187.22.265.547.078.314.094.672.015.344.016.594m11.593 7.266q0 .28-.031.734-.015.453-.125.89a2.1 2.1 0 0 1-.344.735q-.234.312-.656.312-.578 0-.89-.375-.314-.375-.297-.937-.5.437-1.141.687-.625.25-1.281.25a1.8 1.8 0 0 1-.86-.218 2.7 2.7 0 0 1-.718-.563 2.8 2.8 0 0 1-.5-.765 2.2 2.2 0 0 1-.188-.86q0-.75.453-1.312a4.3 4.3 0 0 1 1.141-.953q.672-.407 1.422-.641a8.5 8.5 0 0 1 1.359-.313v-.14a.6.6 0 0 0 .016-.14q0-.486-.266-.782-.265-.297-.75-.297-.39 0-.672.14a3.3 3.3 0 0 0-.531.298q-.25.156-.5.296a1.24 1.24 0 0 1-.562.125.87.87 0 0 1-.594-.218.74.74 0 0 1-.235-.563q0-.516.297-.937.313-.423.766-.703a4 4 0 0 1 1-.454 3.4 3.4 0 0 1 1-.171q.421 0 .844.109.422.094.797.312.375.204.671.516.313.297.5.703.282.578.454 1.235.172.64.265 1.328.094.671.125 1.36.031.671.031 1.312m-2.5-.5-.046-1.063h-.063a.14.14 0 0 0-.062-.016q-.204 0-.516.11a2.3 2.3 0 0 0-.578.281 2.3 2.3 0 0 0-.485.39.7.7 0 0 0-.187.454q0 .219.156.297a.8.8 0 0 0 .36.078q.343 0 .734-.172.39-.187.687-.36m6.407 3.156q-.798 0-1.391-.422a3.7 3.7 0 0 1-1-1.078 5.2 5.2 0 0 1-.609-1.453 6.5 6.5 0 0 1-.203-1.594q0-.828.203-1.703.202-.89.625-1.61.421-.734 1.078-1.187.656-.47 1.562-.469.875 0 1.485.485.624.468 1 1.187.375.703.531 1.547a6.5 6.5 0 0 1 .109 1.594 8.6 8.6 0 0 1-.265 1.672 5.3 5.3 0 0 1-.61 1.515 3.5 3.5 0 0 1-1.031 1.094q-.625.422-1.484.422m.156-7.063q-.234 0-.422.25-.173.25-.297.61-.11.36-.172.765-.062.39-.062.688 0 .375.062.812.078.438.203.813.126.36.297.61.188.233.422.234.25 0 .422-.235.187-.234.297-.594t.156-.78a8 8 0 0 0 .047-.813q0-.345-.062-.75a4.3 4.3 0 0 0-.188-.782 1.8 1.8 0 0 0-.297-.593q-.171-.235-.406-.235M79.111 76.21v.813q0 .5-.032 1.094-.015.593-.093 1.203a5.3 5.3 0 0 1-.25 1.078q-.157.485-.407.797a.78.78 0 0 1-.64.312.6.6 0 0 1-.531-.28 2.2 2.2 0 0 1-.25-.688 5 5 0 0 1-.094-.797v-.64q0-.704.047-1.376.046-.672.046-1.375v-.281q0-.204-.03-.406a1.2 1.2 0 0 0-.11-.36q-.063-.156-.203-.156-.282 0-.453.297a2.7 2.7 0 0 0-.282.672q-.109.39-.156.78-.047.375-.062.563-.031.204-.063.61-.015.406-.062.89-.032.485-.125 1a6 6 0 0 1-.22.922q-.124.407-.327.672t-.5.266a.64.64 0 0 1-.578-.328 2.4 2.4 0 0 1-.297-.766 6 6 0 0 1-.125-.89 22 22 0 0 1-.016-.704v-.515q.016-.25.016-.516v-.36q0-.249-.016-.546 0-.312-.031-.64a5 5 0 0 0-.063-.595 1.5 1.5 0 0 0-.14-.453q-.094-.172-.219-.172-.203 0-.375.266-.172.25-.297.61-.124.343-.203.687-.062.345-.062.5v.094q0 .75.093 1.468.094.72.094 1.47 0 .436-.281.812-.282.36-.781.36a.76.76 0 0 1-.594-.267 2.3 2.3 0 0 1-.39-.718 6 6 0 0 1-.25-.953 12 12 0 0 1-.11-1.032q-.032-.514-.047-.922v-.625q0-.234-.016-.687 0-.453.016-.984a20 20 0 0 1 .094-1.079 5.5 5.5 0 0 1 .203-1.015 2.3 2.3 0 0 1 .36-.735.73.73 0 0 1 .593-.296q.406 0 .656.218.266.219.266.657 0 .094-.016.187 0 .094-.016.172a3.6 3.6 0 0 1 .422-.5q.25-.265.532-.469.297-.219.625-.344.327-.14.656-.14a.97.97 0 0 1 .562.172q.25.171.438.437.188.251.312.547.126.297.172.563.157-.281.375-.563.234-.297.5-.516.266-.218.578-.359a1.7 1.7 0 0 1 .672-.14q.328 0 .563.234t.406.61q.172.359.266.827.093.454.156.907.063.436.078.828.016.375.016.593m7.578 2.375q0 .532-.344 1.047-.328.5-.844.907-.5.39-1.078.64-.578.235-1.062.235a2.76 2.76 0 0 1-1.485-.407 3.9 3.9 0 0 1-1.078-1.062 5.2 5.2 0 0 1-.672-1.406 5.6 5.6 0 0 1-.219-1.516q0-.78.22-1.672.218-.89.656-1.64a4.3 4.3 0 0 1 1.124-1.25q.688-.5 1.626-.5.53 0 1.015.187a2.45 2.45 0 0 1 1.422 1.281q.219.453.219 1.016 0 .735-.313 1.375a3.6 3.6 0 0 1-.828 1.11q-.516.468-1.187.765a4 4 0 0 1-1.375.312q.062.453.359.657.312.203.734.203.313 0 .61-.157.296-.156.578-.343.281-.203.547-.36a1.15 1.15 0 0 1 .562-.156.87.87 0 0 1 .563.203q.25.204.25.531m-2.531-3.828a.94.94 0 0 0-.11-.422.36.36 0 0 0-.344-.218.9.9 0 0 0-.578.187 1.4 1.4 0 0 0-.39.453q-.157.266-.25.578a3 3 0 0 0-.094.579q.219-.047.516-.125.311-.078.578-.204.28-.14.468-.343a.66.66 0 0 0 .204-.485m10 2.14a8.5 8.5 0 0 1-.172 1.704 4.7 4.7 0 0 1-.579 1.516q-.405.656-1.093 1.062-.672.406-1.688.406-1 0-1.672-.39a3.2 3.2 0 0 1-1.078-1.063 4.8 4.8 0 0 1-.562-1.484 9 9 0 0 1-.156-1.688q0-.937.218-1.859.047-.25.172-.687.141-.453.344-.875a3.7 3.7 0 0 1 .484-.75q.281-.313.61-.313.312 0 .5.172t.296.437q.11.251.141.547.031.282.031.516 0 .36-.062.703-.047.344-.11.688l-.124.937a9.4 9.4 0 0 0-.032 1.469q.032.281.125.547.094.266.266.453.172.171.484.172.407 0 .64-.22.251-.217.36-.546.126-.328.156-.703.032-.376.032-.688a9.5 9.5 0 0 0-.094-1.343 54 54 0 0 1-.172-1.36 1.5 1.5 0 0 1 .063-.687q.078-.234.218-.422t.344-.297a.85.85 0 0 1 .453-.125q.345 0 .61.25.266.234.437.625.188.375.297.86.125.468.188.937.078.453.093.86.031.405.031.64m3.874-2.077q0 .25-.03.687-.033.423-.094.922a9 9 0 0 1-.188 1 7 7 0 0 1-.266.922q-.156.406-.375.672-.218.25-.5.25-.344 0-.593-.328a3.5 3.5 0 0 1-.407-.86 8.5 8.5 0 0 1-.25-1.171q-.093-.64-.14-1.25a26 26 0 0 1-.063-1.141v-1.516q0-.437.031-.922.047-.483.126-.953.093-.484.265-.875.173-.39.453-.625a1.02 1.02 0 0 1 .703-.25q.375 0 .61.328.25.313.39.829.157.5.22 1.125.077.624.093 1.234.03.594.016 1.11zm-.296 5.937a.9.9 0 0 1-.125.47q-.126.186-.329.312a1.4 1.4 0 0 1-.437.203 1.8 1.8 0 0 1-.469.062q-.344 0-.656-.187-.312-.172-.312-.563 0-.234.124-.422.141-.203.344-.343t.438-.22q.25-.077.469-.077.36 0 .656.187.297.173.297.578m11.828-1.843q0 .296-.156.578-.157.265-.735.625t-1.281.687q-.704.313-1.359.547-.657.219-.969.219-.219 0-.516-.11a3.6 3.6 0 0 1-1.14-.609 1.6 1.6 0 0 1-.344-.39q-.063-.11-.125-.438a22 22 0 0 1-.094-.766 92 92 0 0 1-.062-.922q-.032-.5-.063-.937-.016-.453-.031-.797v-.5q0-.578.031-1.328.047-.75.156-1.5.11-.766.313-1.453.219-.703.578-1.188.11-.14.437-.297.328-.156.766-.296a16 16 0 0 1 1.953-.47q.485-.093.875-.14.39-.062.594-.062.234 0 .437.11a.9.9 0 0 1 .36.265q.156.172.234.39.094.204.094.438a.8.8 0 0 1-.063.344 1.4 1.4 0 0 1-.156.312q-.156.204-.656.484a17.5 17.5 0 0 1-2.219 1.047q-.531.219-.75.313-.062.36-.14.734-.063.36-.094.735a9 9 0 0 1 1.094-.47 3.4 3.4 0 0 1 1.156-.218q1.109 0 1.109 1.094a1 1 0 0 1-.109.469 1.1 1.1 0 0 1-.266.359 1.8 1.8 0 0 1-.375.281l-.406.219a9 9 0 0 1-1.047.469l-1.094.375a6 6 0 0 0-.062.28 1.3 1.3 0 0 0-.031.282q0 .219.031.438l.062.437q.188-.062.594-.203a44 44 0 0 1 .875-.281q.453-.14.875-.235.422-.108.625-.109.234 0 .438.11a.95.95 0 0 1 .343.265q.141.157.219.375.094.219.094.438m-1.61-11.938q0 .173-.093.344a1.6 1.6 0 0 1-.235.297 2.3 2.3 0 0 1-.281.265q-.156.109-.281.203a8 8 0 0 0-.25.188 3 3 0 0 1-.281.187 3 3 0 0 1-.297.141.7.7 0 0 1-.282.063.4.4 0 0 1-.218-.063.27.27 0 0 1-.094-.219q0-.234.172-.562a4 4 0 0 1 .453-.656 3 3 0 0 1 .562-.547q.297-.235.547-.235a.52.52 0 0 1 .391.188q.187.172.187.406m12.813 4.11q0 1.14-.094 2.265-.078 1.125-.078 2.266 0 .922.047 1.828.063.906.062 1.828 0 .25-.015.61-.016.343-.11.671a1.3 1.3 0 0 1-.281.563q-.187.234-.547.234-.468 0-.781-.344a1.7 1.7 0 0 1-.375-.797 2.7 2.7 0 0 1-.859.954q-.563.39-1.219.39-.703 0-1.219-.484a4.3 4.3 0 0 1-.844-1.172 7 7 0 0 1-.5-1.438 6.5 6.5 0 0 1-.156-1.296 10 10 0 0 1 .203-1.907 8 8 0 0 1 .313-1q.187-.5.469-.89.296-.391.687-.625a1.8 1.8 0 0 1 .922-.235q.562 0 1.078.328.516.33.781.813l.141-2.484q.015-.297.047-.688.031-.405.125-.766.11-.36.328-.609.218-.25.641-.25.453 0 .703.219t.359.562q.124.33.141.72.03.39.031.733m-2.547 6.937q0-.36-.016-.703-.015-.345 0-.703a8 8 0 0 0-.218-.438 2 2 0 0 0-.313-.453 1.6 1.6 0 0 0-.39-.36.85.85 0 0 0-.469-.14.6.6 0 0 0-.453.172 1 1 0 0 0-.25.422 2.5 2.5 0 0 0-.11.515 9 9 0 0 0-.015.485 7.3 7.3 0 0 0 .14 1.297q.094.375.25.656.156.28.422.281.204 0 .406-.078.204-.093.375-.219a3 3 0 0 0 .344-.297q.172-.171.297-.312zm6.156-7.563a.64.64 0 0 1-.125.391 1.2 1.2 0 0 1-.297.313q-.187.124-.406.203a1.5 1.5 0 0 1-.406.062.96.96 0 0 1-.547-.156q-.234-.157-.234-.484a.74.74 0 0 1 .109-.407 1 1 0 0 1 .297-.297 1.2 1.2 0 0 1 .391-.187q.218-.063.421-.063.297 0 .547.141t.25.484m.125 5.313v.469q0 .234-.015.453-.016.266-.016.719 0 .437-.031.953-.032.514-.11 1.047a4.4 4.4 0 0 1-.218.968 2 2 0 0 1-.422.72.9.9 0 0 1-.641.28.58.58 0 0 1-.5-.234 2.2 2.2 0 0 1-.344-.64 5.4 5.4 0 0 1-.187-.891 17 17 0 0 1-.094-.953 13 13 0 0 1-.031-.86v-1.281q0-.47.031-1 .031-.531.11-1.078a6 6 0 0 1 .25-1q.171-.453.437-.735a.88.88 0 0 1 .672-.28q.422 0 .641.421.218.422.328.984.109.563.125 1.125.015.547.015.813m7.657-3.75q0 .296-.063.578a1.2 1.2 0 0 1-.187.469 1.05 1.05 0 0 1-.375.328q-.235.11-.579.11-.39 0-.578-.157a.86.86 0 0 1-.265-.375 2 2 0 0 1-.063-.5q0-.265-.031-.484a.9.9 0 0 0-.109-.39q-.095-.157-.344-.157-.234 0-.391.36-.141.359-.234.827a7 7 0 0 0-.125.922q-.031.438-.031.594a6 6 0 0 1 .39-.047 2.5 2.5 0 0 1 .86.016q.234.046.437.156a.8.8 0 0 1 .328.281q.125.172.125.438 0 .28-.25.5a2.1 2.1 0 0 1-.578.375 5 5 0 0 1-.672.234 5 5 0 0 1-.547.125q.048 1.078.047 2.172 0 1.031-.047 2.031a1.2 1.2 0 0 1-.343.797q-.297.313-.782.313a.9.9 0 0 1-.453-.11.85.85 0 0 1-.312-.265 1.5 1.5 0 0 1-.203-.391 2.2 2.2 0 0 1-.079-.453 59 59 0 0 1-.125-1.875 30 30 0 0 1-.031-1.906 2 2 0 0 1-.219.015h-.203a2.7 2.7 0 0 1-.968-.203 1.7 1.7 0 0 1-.407-.297.6.6 0 0 1-.172-.437q0-.345.235-.578.219-.235.531-.375.328-.157.672-.22.359-.06.625-.093v-.25q0-.765.141-1.64a5.9 5.9 0 0 1 .5-1.626q.358-.75.984-1.234.625-.5 1.594-.5.609 0 1.047.266.437.249.718.672.282.405.407.937.125.516.125 1.047m5.968 6.562q0 .532-.343 1.047-.328.5-.844.907-.5.39-1.078.64-.579.235-1.063.235a2.76 2.76 0 0 1-1.484-.407 3.9 3.9 0 0 1-1.078-1.062 5.1 5.1 0 0 1-.672-1.406 5.6 5.6 0 0 1-.219-1.516q0-.78.219-1.672.218-.89.656-1.64.453-.75 1.125-1.25.687-.5 1.625-.5.531 0 1.016.187.485.172.843.5.36.329.579.781.218.453.218 1.016 0 .735-.312 1.375a3.7 3.7 0 0 1-.828 1.11 4.4 4.4 0 0 1-1.188.765 4 4 0 0 1-1.375.312q.063.453.36.657.312.203.734.203.312 0 .609-.157.297-.156.578-.343.282-.203.547-.36.282-.156.563-.156.312 0 .562.203a.65.65 0 0 1 .25.531m-2.531-3.828a.94.94 0 0 0-.109-.422.36.36 0 0 0-.344-.218.9.9 0 0 0-.578.187 1.4 1.4 0 0 0-.391.453q-.156.266-.25.578a3 3 0 0 0-.094.579q.219-.047.516-.125.312-.078.578-.204.282-.14.469-.343a.66.66 0 0 0 .203-.485m8.578.766q-.219.015-.375-.031l-.312-.125a3 3 0 0 0-.282-.11.6.6 0 0 0-.312-.047q-.312.016-.563.172a2.2 2.2 0 0 0-.437.39 2.7 2.7 0 0 0-.328.532 3 3 0 0 0-.219.563 4 4 0 0 0-.078.578q-.016.374-.016.812-.015.453-.015.86 0 .405-.032.64-.015.25-.078.594a2.5 2.5 0 0 1-.203.625 1.4 1.4 0 0 1-.344.5.8.8 0 0 1-.562.203.75.75 0 0 1-.469-.156 1.4 1.4 0 0 1-.328-.406 4 4 0 0 1-.219-.61 8 8 0 0 1-.125-.703q-.047-.375-.078-.75-.015-.375-.031-.703v-.625q.015-.28.016-.453-.017-.548-.063-1.094a20 20 0 0 1-.031-1.11q0-.343.031-.765.031-.421.172-.781a1.6 1.6 0 0 1 .406-.625q.282-.25.766-.25.266 0 .453.172.188.171.297.422.125.25.187.53.063.282.078.517.376-.61.844-.985.47-.39 1.219-.422.375-.015.734.078.375.079.672.282.312.187.5.5.203.312.219.734.031.5-.297.766-.328.265-.797.28m7.875 3.062q0 .532-.344 1.047-.328.5-.843.907-.5.39-1.078.64-.579.235-1.063.235a2.76 2.76 0 0 1-1.484-.407 3.9 3.9 0 0 1-1.078-1.062 5.1 5.1 0 0 1-.672-1.406 5.6 5.6 0 0 1-.219-1.516q0-.78.219-1.672.218-.89.656-1.64.453-.75 1.125-1.25.687-.5 1.625-.5.531 0 1.016.187a2.45 2.45 0 0 1 1.421 1.281q.219.453.219 1.016 0 .735-.312 1.375a3.7 3.7 0 0 1-.828 1.11 4.4 4.4 0 0 1-1.188.765 4 4 0 0 1-1.375.312q.063.453.359.657.314.203.735.203.312 0 .609-.157.297-.156.578-.343.282-.203.547-.36.281-.156.563-.156.312 0 .562.203a.65.65 0 0 1 .25.531m-2.531-3.828a.95.95 0 0 0-.109-.422.36.36 0 0 0-.344-.218.9.9 0 0 0-.578.187 1.4 1.4 0 0 0-.391.453q-.156.266-.25.578a3 3 0 0 0-.094.579q.219-.047.516-.125.312-.078.578-.204.282-.14.469-.343a.66.66 0 0 0 .203-.485m7.594 7.047q-.266 0-.422-.25a1.7 1.7 0 0 1-.235-.547 4.4 4.4 0 0 1-.109-.625 12 12 0 0 1-.016-.5q0-.468.047-.937l.125-.938q.078-.468.125-.937a7 7 0 0 0 .063-.938q0-.187-.016-.406a1.6 1.6 0 0 0-.078-.406.66.66 0 0 0-.172-.328.44.44 0 0 0-.328-.125q-.141 0-.312.234a3.4 3.4 0 0 0-.329.516q-.14.28-.25.578a1.5 1.5 0 0 0-.093.422v.703q.015.343.015.703v.906q-.015.281-.047.578a5 5 0 0 1-.093.578q-.047.282-.141.547a1.7 1.7 0 0 1-.25.453 1.2 1.2 0 0 1-.344.313.9.9 0 0 1-.484.125.7.7 0 0 1-.516-.203 1.5 1.5 0 0 1-.328-.516 3.6 3.6 0 0 1-.187-.719 21 21 0 0 1-.078-.78q-.016-.392-.016-.704.015-.328.016-.516v-.734q0-.594-.032-1.172-.015-.577-.015-1.156v-.797q.015-.484.125-.937a2.1 2.1 0 0 1 .359-.797q.25-.329.734-.328.219 0 .391.14t.297.344q.141.203.219.437.093.235.14.407.156-.22.36-.422.218-.203.484-.36a2.54 2.54 0 0 1 1.344-.343q.796 0 1.234.39.453.375.656.953.22.563.266 1.22.047.655.047 1.187 0 .265-.047.797-.047.515-.156 1.156a13 13 0 0 1-.266 1.297 8.5 8.5 0 0 1-.406 1.203 3 3 0 0 1-.563.89q-.312.345-.718.344m6.672.125q-1.11 0-1.735-.297a2 2 0 0 1-.922-.812q-.297-.531-.359-1.281-.063-.75-.063-1.672 0-.735.047-1.47.047-.75.141-1.593-.22 0-.344.016h-.203a1.6 1.6 0 0 1-.859-.219q-.375-.219-.375-.672a.7.7 0 0 1 .218-.5q.204-.218.532-.375.328-.156.703-.25.39-.093.734-.125 0-.436.063-.969.062-.531.218-.984.172-.468.454-.781a.92.92 0 0 1 .718-.313q.25 0 .438.157.203.14.328.375.125.218.187.5.063.281.063.546 0 .313-.047.641t-.172.813a4 4 0 0 1 .36-.032 1 1 0 0 1 .171-.015q.266 0 .547.047.297.046.532.156.25.11.406.297a.6.6 0 0 1 .156.422.67.67 0 0 1-.234.5q-.22.217-.563.375a4 4 0 0 1-.734.25 7 7 0 0 1-.735.109q-.093.64-.14 1.187-.031.532-.078 1.079l-.063.546q-.015.267-.015.547 0 .203.015.485.016.266.11.515.093.25.296.438.203.171.563.172.219 0 .453-.032.234-.046.469-.046.406 0 .578.28.187.282.187.72a.9.9 0 0 1-.203.578 1.35 1.35 0 0 1-.484.375 2.6 2.6 0 0 1-.672.234 3.2 3.2 0 0 1-.687.078m8.906-3.344q0 .532-.344 1.047-.328.5-.844.907a5 5 0 0 1-1.078.64q-.577.235-1.062.235a2.77 2.77 0 0 1-1.485-.407 3.9 3.9 0 0 1-1.078-1.062 5.2 5.2 0 0 1-.672-1.406 5.6 5.6 0 0 1-.218-1.516q0-.78.218-1.672a6.1 6.1 0 0 1 .657-1.64q.453-.75 1.125-1.25.687-.5 1.625-.5.53 0 1.015.187a2.46 2.46 0 0 1 1.422 1.281q.219.453.219 1.016 0 .735-.313 1.375a3.6 3.6 0 0 1-.828 1.11 4.4 4.4 0 0 1-1.187.765 4 4 0 0 1-1.375.312q.062.453.359.657.312.203.734.203.313 0 .61-.157.297-.156.578-.343.281-.203.547-.36.281-.156.562-.156a.87.87 0 0 1 .563.203q.25.204.25.531m-2.531-3.828a.94.94 0 0 0-.11-.422.36.36 0 0 0-.344-.218.9.9 0 0 0-.578.187 1.4 1.4 0 0 0-.39.453 2.6 2.6 0 0 0-.25.578 3 3 0 0 0-.094.579q.219-.047.516-.125.312-.078.578-.204a1.6 1.6 0 0 0 .468-.343.66.66 0 0 0 .204-.485m10.171-1.797q0 .5-.265.938a3.8 3.8 0 0 1-.641.797q-.375.36-.844.64a6.4 6.4 0 0 1-.843.422 12.6 12.6 0 0 1 .078 2.14q0 .33-.094.626a1.1 1.1 0 0 1-.281.484q-.188.203-.547.203-.625 0-.844-.625a3.3 3.3 0 0 1-.125-.625q-.047-.405-.078-.828-.016-.437-.016-.843v-.672q0-.219.016-.516a1.1 1.1 0 0 1 .156-.484q.14-.204.469-.39.328-.204.672-.423.359-.219.625-.484a.86.86 0 0 0 .266-.625.96.96 0 0 0-.125-.485 1.1 1.1 0 0 0-.329-.359 1.3 1.3 0 0 0-.437-.234 1.3 1.3 0 0 0-.484-.094q-.594 0-.938.203a3 3 0 0 0-.594.422l-.453.422a.75.75 0 0 1-.531.187 1.04 1.04 0 0 1-.688-.265.83.83 0 0 1-.296-.64q0-.61.359-1.032.358-.438.891-.688a4.2 4.2 0 0 1 1.125-.375q.593-.125 1.062-.125.626 0 1.281.282.672.265 1.203.718.548.454.891 1.063.36.61.359 1.265m-2.312 7.594a.73.73 0 0 1-.141.453q-.124.188-.328.313a1.4 1.4 0 0 1-.437.187 1.8 1.8 0 0 1-.453.063 1.4 1.4 0 0 1-.672-.172q-.297-.172-.297-.563 0-.25.125-.437.14-.203.344-.344t.437-.203q.25-.078.469-.078.359 0 .656.187.297.188.297.594"/><defs><filter id="a" width="250.093" height="146" x="0" y="0" color-interpolation-filters="sRGB" filterUnits="userSpaceOnUse"><feFlood flood-opacity="0" result="BackgroundImageFix"/><feBlend in="SourceGraphic" in2="BackgroundImageFix" result="shape"/><feColorMatrix in="SourceAlpha" result="hardAlpha" values="0 0 0 0 0 0 0 0 0 0 0 0 0 0 0 0 0 0 127 0"/><feOffset dy="4"/><feGaussianBlur stdDeviation="2"/><feComposite in2="hardAlpha" k2="-1" k3="1" operator="arithmetic"/><feColorMatrix values="0 0 0 0 0 0 0 0 0 0 0 0 0 0 0 0 0 0 0.25 0"/><feBlend in2="shape" result="effect1_innerShadow_1138_1922"/></filter></defs></svg>