<svg xmlns="http://www.w3.org/2000/svg" width="249" height="163" fill="none" viewBox="0 0 249 163"><g filter="url(#a)"><path fill="#00c57f" fill-rule="evenodd" d="M35.357 103.736C11.44 93.044 1 77.264 1 60.186 1 39.17 22.056 18.41 56.888 8.145 73.783 3.169 93.633 1 116.44 1c69.828 0 134.224 21.44 131.475 59.185 0 18.728-11.918 35.95-36.191 46.231-13.234 5.606-29.978 8.917-50.926 9.935-8.24 19.594-20.3 29.683-40.086 45.649 14.51-18.609 23.4-30.608 26.617-45.312q-.555.002-1.112.002c-49.493 3.352-86.925-2.253-110.86-12.954" clip-rule="evenodd"/></g><path fill="#00c57f" d="m35.357 103.736.408-.913zM56.888 8.147l.283.96zm191.027 52.038-.997-.073-.003.073zm-36.191 46.231.39.921zm-50.926 9.935-.048-.999a1 1 0 0 0-.874.612zM120.712 162l-.789-.615a1 1 0 0 0 1.417 1.394zm26.617-45.312.976.214a1 1 0 0 0-.98-1.214zm-1.112.002v-1l-.067.002zM1 60.185H0c0 17.58 10.78 33.66 34.949 44.464l.408-.913.408-.913C12.098 92.243 2 76.763 2 60.185zM56.888 8.147l-.282-.96c-17.531 5.167-31.654 12.99-41.411 22.221C5.439 38.638 0 49.328 0 60.185h2c0-10.157 5.09-20.354 14.57-29.324 9.478-8.968 23.3-16.656 40.601-21.755zM116.44 1V0C93.577 0 73.623 2.173 56.606 7.188l.282.959.283.96C73.943 4.163 93.69 2 116.44 2zm131.475 59.185.997.073c1.426-19.573-14.581-34.636-39.137-44.744C185.133 5.37 151.437 0 116.44 0v2c34.831 0 68.248 5.35 92.573 15.363 24.411 10.048 39.228 24.578 37.905 42.75zm-36.191 46.231.39.921c24.544-10.396 36.801-27.925 36.801-47.152h-2c0 18.23-11.58 35.144-35.581 45.311zm-50.926 9.935.049.999c21.019-1.021 37.889-4.346 51.267-10.013l-.39-.921-.39-.92c-13.09 5.545-29.708 8.842-50.584 9.856zm0 0-.922-.387c-8.131 19.334-19.996 29.283-39.792 45.258l.628.778.628.779c19.776-15.959 32.031-26.187 40.38-46.04zM120.712 162l.788.615c14.48-18.571 23.532-30.748 26.805-45.713l-.976-.214-.977-.213c-3.16 14.442-11.889 26.262-26.429 44.91zm25.505-45.31v1q.56 0 1.115-.002l-.003-1-.004-1q-.552.002-1.108.002zm-110.86-12.954-.408.913c24.143 10.793 61.758 16.396 111.336 13.039l-.068-.998-.067-.998c-49.409 3.346-86.657-2.261-110.385-12.869z"/><path fill="#fff" d="M45.414 25.625q0 .844-.375 1.656a5.3 5.3 0 0 1-.969 1.469 5.5 5.5 0 0 1-1.39 1.063 3.9 3.9 0 0 1-1.61.453q-.015.281-.03.718 0 .422-.048.891a10 10 0 0 1-.14.938 3.3 3.3 0 0 1-.25.843q-.157.375-.422.61a.88.88 0 0 1-.625.234.9.9 0 0 1-.703-.297 2 2 0 0 1-.391-.687 4.5 4.5 0 0 1-.172-.844 15 15 0 0 1-.062-.766q-.032-.453-.047-.89v-2.907l.03-1.484q.017-.78.048-1.437.03-.672.062-1.141.047-.47.11-.547a1 1 0 0 1 .093-.062 1 1 0 0 1 .172-.11 4 4 0 0 1 .282-.172 9.5 9.5 0 0 1 1.578-.703 5.2 5.2 0 0 1 1.703-.297q.718 0 1.297.297.593.282 1 .766.421.468.64 1.11.22.624.22 1.296m-2.703.36a.96.96 0 0 0-.156-.547q-.14-.235-.485-.235a1.5 1.5 0 0 0-.593.125 5 5 0 0 0-.547.235q.046.546.078 1.062.046.516.015 1.063.251-.126.547-.282.297-.172.547-.375a2.2 2.2 0 0 0 .422-.453 1.07 1.07 0 0 0 .172-.594m6.047 8.468q-.797 0-1.39-.422a3.7 3.7 0 0 1-1-1.078 5.2 5.2 0 0 1-.61-1.453 6.6 6.6 0 0 1-.203-1.594q0-.828.203-1.703a5.6 5.6 0 0 1 .625-1.61q.421-.734 1.078-1.187.656-.468 1.562-.468.876 0 1.485.484.624.468 1 1.187.375.704.531 1.547.155.844.11 1.594a8.6 8.6 0 0 1-.266 1.672 5.3 5.3 0 0 1-.61 1.515q-.406.672-1.03 1.094-.626.422-1.485.422m.156-7.062q-.234 0-.422.25-.171.25-.297.609a5.5 5.5 0 0 0-.172.766q-.062.39-.062.687 0 .375.062.813.078.437.204.812.125.36.296.61.188.234.422.234.25 0 .422-.234.188-.236.297-.594.11-.36.156-.782.047-.437.047-.812 0-.345-.062-.75a4.3 4.3 0 0 0-.188-.781 1.8 1.8 0 0 0-.297-.594q-.171-.234-.406-.234m9.453.765q-.218.015-.375-.031L57.68 28a3 3 0 0 0-.282-.11.6.6 0 0 0-.312-.046q-.312.015-.563.172a2.2 2.2 0 0 0-.437.39 2.7 2.7 0 0 0-.328.532 3 3 0 0 0-.219.562 4 4 0 0 0-.078.578q-.015.375-.016.813-.015.453-.015.859t-.032.64q-.015.25-.078.594-.062.329-.203.625a1.4 1.4 0 0 1-.344.5.8.8 0 0 1-.562.203.75.75 0 0 1-.469-.156 1.4 1.4 0 0 1-.328-.406 4 4 0 0 1-.219-.61 8 8 0 0 1-.125-.703q-.046-.375-.078-.75-.015-.375-.031-.703v-.625q.015-.28.016-.453-.016-.546-.063-1.093-.03-.562-.031-1.11 0-.343.031-.765.03-.423.172-.782.142-.375.406-.625.282-.25.766-.25.266 0 .453.172t.297.422q.125.25.187.531.063.282.078.516.375-.61.844-.985.47-.39 1.219-.421.375-.016.734.078.375.078.672.281.313.188.5.5.204.312.219.734.03.5-.297.766-.328.265-.797.281m7.672-5.062a.65.65 0 0 1-.125.39 1.2 1.2 0 0 1-.297.313q-.187.124-.406.203a1.5 1.5 0 0 1-.406.063.96.96 0 0 1-.547-.157q-.235-.156-.235-.484a.74.74 0 0 1 .11-.406q.125-.187.297-.297.171-.125.39-.188.22-.062.422-.062.297 0 .547.14t.25.485m.125 5.312v.469q0 .234-.016.453-.015.266-.015.719 0 .438-.031.953-.032.516-.11 1.047a4.4 4.4 0 0 1-.219.969 2 2 0 0 1-.421.718.9.9 0 0 1-.641.282.58.58 0 0 1-.5-.235 2.2 2.2 0 0 1-.344-.64 5.4 5.4 0 0 1-.187-.891 17 17 0 0 1-.094-.953q-.03-.47-.031-.86v-1.281q0-.469.03-1 .032-.53.11-1.078a6.4 6.4 0 0 1 .25-1 2.2 2.2 0 0 1 .438-.734.88.88 0 0 1 .672-.282q.42 0 .64.422.22.423.328.985.11.563.125 1.125.016.546.016.812m5.688-3q0 .453-.313.672a6 6 0 0 1-.672.422q-.375.188-.687.453-.297.266-.297.797 0 .282.125.484.14.203.328.375.203.157.437.328.235.172.422.391.204.219.328.531.141.313.141.766 0 .657-.344 1.297a4.3 4.3 0 0 1-.86 1.125 4.3 4.3 0 0 1-1.17.781q-.657.297-1.298.297-.266 0-.531-.047a1.5 1.5 0 0 1-.484-.14 1.04 1.04 0 0 1-.344-.297.9.9 0 0 1-.14-.516q0-.438.171-.672.172-.25.438-.39.265-.14.562-.22.312-.077.578-.187.266-.125.438-.312t.172-.532q0-.327-.266-.671-.25-.36-.563-.75a8 8 0 0 1-.578-.86 2.04 2.04 0 0 1-.25-1q0-.672.266-1.234a3.4 3.4 0 0 1 .734-1q.47-.422 1.063-.656a3.2 3.2 0 0 1 1.25-.25q.25 0 .484.047.25.046.438.171a.8.8 0 0 1 .297.313.86.86 0 0 1 .125.484m5.203 0q0 .453-.313.672a6 6 0 0 1-.672.422q-.375.188-.687.453-.297.266-.297.797 0 .282.125.484.14.203.328.375.203.157.438.328t.421.391q.204.219.329.531.14.313.14.766 0 .657-.344 1.297a4.3 4.3 0 0 1-.859 1.125 4.3 4.3 0 0 1-1.172.781q-.656.297-1.297.297-.266 0-.53-.047a1.5 1.5 0 0 1-.485-.14 1.05 1.05 0 0 1-.344-.297.9.9 0 0 1-.14-.516q0-.438.171-.672.172-.25.438-.39.265-.14.562-.22.313-.077.578-.187.266-.125.438-.312t.172-.532q0-.327-.266-.671-.25-.36-.562-.75a8 8 0 0 1-.579-.86 2.04 2.04 0 0 1-.25-1q0-.672.266-1.234a3.4 3.4 0 0 1 .734-1q.47-.422 1.063-.656a3.2 3.2 0 0 1 1.25-.25q.25 0 .484.047.25.046.438.171a.8.8 0 0 1 .297.313.86.86 0 0 1 .125.484m3.593 9.047q-.796 0-1.39-.422a3.7 3.7 0 0 1-1-1.078 5.2 5.2 0 0 1-.61-1.453 6.6 6.6 0 0 1-.203-1.594q0-.828.203-1.703.204-.89.625-1.61.422-.734 1.079-1.187.656-.468 1.562-.468.875 0 1.484.484.625.468 1 1.187.376.704.532 1.547.155.844.11 1.594a8.6 8.6 0 0 1-.267 1.672 5.3 5.3 0 0 1-.609 1.515q-.406.672-1.031 1.094-.626.422-1.485.422m.157-7.062q-.235 0-.422.25-.172.25-.297.609-.11.36-.172.766-.062.39-.062.687 0 .375.062.813.078.437.203.812.125.36.297.61.188.234.422.234.25 0 .422-.234.188-.236.297-.594.11-.36.156-.782.047-.437.047-.812 0-.345-.063-.75a4.3 4.3 0 0 0-.187-.781 1.8 1.8 0 0 0-.297-.594q-.172-.234-.406-.234m6.28 5.78q0 .251-.14.642-.124.39-.328.765-.187.375-.437.64-.25.266-.485.266-.312 0-.312-.312a.9.9 0 0 1 .078-.36q.079-.171.172-.343.094-.156.172-.328a.7.7 0 0 0 .078-.313.9.9 0 0 1-.5.156.79.79 0 0 1-.61-.28.92.92 0 0 1-.25-.626q0-.5.329-.797.327-.312.828-.312.563 0 .984.297t.422.906m10.938-1.952q0 .531-.343 1.047-.329.5-.844.906-.5.39-1.078.64-.579.235-1.063.235a2.76 2.76 0 0 1-1.484-.406 3.9 3.9 0 0 1-1.078-1.063 5.2 5.2 0 0 1-.672-1.406 5.6 5.6 0 0 1-.219-1.516q0-.78.219-1.672.22-.89.656-1.64.453-.75 1.125-1.25.688-.5 1.625-.5.531 0 1.016.187a2.45 2.45 0 0 1 1.422 1.282q.218.453.218 1.015 0 .735-.312 1.375a3.6 3.6 0 0 1-.828 1.11q-.516.468-1.188.765a4 4 0 0 1-1.375.313q.063.453.36.656.312.203.734.203.313 0 .61-.156.296-.156.578-.344.281-.203.546-.36a1.15 1.15 0 0 1 .563-.156q.313 0 .562.203t.25.532m-2.53-3.828a.94.94 0 0 0-.11-.422.36.36 0 0 0-.344-.219.9.9 0 0 0-.578.188 1.4 1.4 0 0 0-.39.453q-.157.266-.25.578a3 3 0 0 0-.094.578q.218-.047.515-.125.313-.078.578-.203a1.6 1.6 0 0 0 .47-.344.66.66 0 0 0 .202-.484m.874-5.547q0 .171-.094.343-.093.157-.234.297a2.3 2.3 0 0 1-.281.266q-.156.109-.281.203a8 8 0 0 0-.25.188 3 3 0 0 1-.282.187 3 3 0 0 1-.297.14.7.7 0 0 1-.28.063.4.4 0 0 1-.22-.062.27.27 0 0 1-.093-.219q0-.235.172-.562.187-.344.453-.657.265-.327.562-.547.297-.234.547-.234.219 0 .39.188.189.172.188.406m10.625 3.562q0 .453-.312.672a6 6 0 0 1-.672.422q-.375.188-.688.453-.297.266-.297.797a.9.9 0 0 0 .125.484q.141.203.329.375.203.157.437.328t.422.391q.203.219.328.531.141.313.141.766 0 .657-.344 1.297a4.28 4.28 0 0 1-2.031 1.906q-.657.297-1.297.297-.266 0-.531-.047a1.5 1.5 0 0 1-.485-.14 1.05 1.05 0 0 1-.344-.297.9.9 0 0 1-.14-.516q0-.438.172-.672.171-.25.437-.39t.563-.22q.312-.077.578-.187.266-.125.437-.312.172-.187.172-.532 0-.327-.265-.671-.25-.36-.563-.75a8 8 0 0 1-.578-.86 2.03 2.03 0 0 1-.25-1q0-.672.266-1.234.28-.579.734-1 .469-.422 1.062-.656.594-.25 1.25-.25.25 0 .485.047.25.046.437.171a.8.8 0 0 1 .297.313.85.85 0 0 1 .125.484m7.469 4.125q0 .859-.172 1.703a4.7 4.7 0 0 1-.578 1.516 3.14 3.14 0 0 1-1.094 1.063q-.672.405-1.687.406-1 0-1.672-.39a3.2 3.2 0 0 1-1.078-1.063 4.8 4.8 0 0 1-.563-1.485 9 9 0 0 1-.156-1.687q0-.937.219-1.86.046-.25.172-.687a6 6 0 0 1 .343-.875q.22-.438.485-.75.28-.313.609-.313.312 0 .5.172t.297.438q.11.25.141.547.03.28.031.515 0 .36-.063.703-.046.345-.109.688l-.125.937a9.5 9.5 0 0 0-.031 1.47q.031.28.125.546.093.265.265.453.172.172.485.172.406 0 .64-.219.25-.219.36-.547.124-.328.156-.703.031-.375.031-.687 0-.688-.094-1.344a56 56 0 0 1-.171-1.36 1.5 1.5 0 0 1 .062-.687q.078-.234.219-.422.14-.187.344-.297a.84.84 0 0 1 .453-.125q.344 0 .609.25.266.235.438.625.188.375.296.86.126.469.188.937.078.453.094.86.031.406.031.64m8.109-.187q0 .687-.156 1.515a5.3 5.3 0 0 1-.5 1.516q-.343.704-.922 1.172-.563.468-1.422.469-.219 0-.453-.032a2.2 2.2 0 0 1-.453-.109 1.7 1.7 0 0 1-.375-.203.9.9 0 0 1-.266-.36l-.14 2.25q-.016.36-.031.86 0 .499-.125.953a1.7 1.7 0 0 1-.391.766q-.266.328-.781.328-.297 0-.5-.313a2.5 2.5 0 0 1-.328-.765 9 9 0 0 1-.172-1.047 14 14 0 0 1-.078-1.11 31 31 0 0 1-.016-.968v-.641q0-1.046-.016-2.078-.015-1.047-.015-2.094v-.578q0-.405.031-.875.031-.468.094-.969.078-.5.218-.906.141-.421.36-.672a.67.67 0 0 1 .531-.265q.203 0 .359.125a.86.86 0 0 1 .282.296q.125.172.203.375t.125.375a3.3 3.3 0 0 1 1.109-.828q.64-.28 1.36-.281.75 0 1.218.422.484.421.75 1.047.282.624.391 1.343.11.704.109 1.282m-2.234-.125q0-.235-.047-.469a1.3 1.3 0 0 0-.141-.453.76.76 0 0 0-.281-.344.76.76 0 0 0-.469-.14q-.375 0-.796.25a1.75 1.75 0 0 0-.61.546q-.078.126-.094.407-.015.28-.015.422v.296l.031.36.031.36q.031.17.078.265a.6.6 0 0 0 .204.265q.156.11.343.203t.375.141q.203.047.344.047a.65.65 0 0 0 .531-.25q.204-.25.313-.594.124-.343.156-.703.047-.375.047-.61m9.734 2q0 .531-.343 1.047-.328.5-.844.906-.5.39-1.078.64-.579.235-1.063.235a2.76 2.76 0 0 1-1.484-.406 3.9 3.9 0 0 1-1.078-1.063 5.1 5.1 0 0 1-.672-1.406 5.6 5.6 0 0 1-.219-1.516q0-.78.219-1.672.219-.89.656-1.64.453-.75 1.125-1.25.687-.5 1.625-.5.531 0 1.016.187.485.173.843.5.36.329.579.782t.218 1.015q0 .735-.312 1.375a3.7 3.7 0 0 1-.828 1.11 4.4 4.4 0 0 1-1.188.765 4 4 0 0 1-1.375.313q.063.453.36.656.312.203.734.203.312 0 .609-.156a6 6 0 0 0 .578-.344q.282-.203.547-.36.281-.156.563-.156.312 0 .562.203a.65.65 0 0 1 .25.532m-2.531-3.828a.94.94 0 0 0-.109-.422.36.36 0 0 0-.344-.219.9.9 0 0 0-.578.188 1.4 1.4 0 0 0-.391.453q-.156.266-.25.578a3 3 0 0 0-.094.578q.219-.047.516-.125.312-.078.578-.203.282-.141.469-.344a.66.66 0 0 0 .203-.484m8.578.765q-.219.015-.375-.031L135.43 28a3 3 0 0 0-.282-.11.6.6 0 0 0-.312-.046q-.312.015-.563.172a2.2 2.2 0 0 0-.437.39 2.7 2.7 0 0 0-.328.532 3 3 0 0 0-.219.562 4 4 0 0 0-.078.578q-.016.375-.016.813-.015.453-.015.859t-.032.64q-.015.25-.078.594a2.5 2.5 0 0 1-.203.625 1.4 1.4 0 0 1-.344.5.8.8 0 0 1-.562.203.75.75 0 0 1-.469-.156 1.4 1.4 0 0 1-.328-.406 4 4 0 0 1-.219-.61 8 8 0 0 1-.125-.703q-.046-.375-.078-.75-.015-.375-.031-.703v-.625q.016-.28.016-.453-.017-.546-.063-1.093a20 20 0 0 1-.031-1.11q0-.343.031-.765.031-.423.172-.782a1.6 1.6 0 0 1 .406-.625q.282-.25.766-.25.266 0 .453.172.188.172.297.422.125.25.187.531.063.282.078.516.375-.61.844-.985.47-.39 1.219-.421.375-.016.734.078.375.078.672.281.313.188.5.5.204.312.219.734.031.5-.297.766-.328.265-.797.281m7.672-5.062a.65.65 0 0 1-.125.39 1.2 1.2 0 0 1-.297.313q-.187.124-.406.203a1.5 1.5 0 0 1-.406.063.96.96 0 0 1-.547-.157q-.235-.156-.235-.484a.74.74 0 0 1 .11-.406 1 1 0 0 1 .297-.297q.171-.125.39-.188a1.5 1.5 0 0 1 .422-.062q.297 0 .547.14t.25.485m.125 5.312v.469q0 .234-.016.453-.015.266-.015.719 0 .438-.031.953-.032.516-.11 1.047a4.3 4.3 0 0 1-.219.969 2 2 0 0 1-.421.718.9.9 0 0 1-.641.282.58.58 0 0 1-.5-.235 2.2 2.2 0 0 1-.344-.64 5.3 5.3 0 0 1-.187-.891 17 17 0 0 1-.094-.953 13 13 0 0 1-.031-.86v-1.281q0-.469.031-1 .031-.53.109-1.078.094-.547.25-1a2.2 2.2 0 0 1 .438-.734.88.88 0 0 1 .672-.282q.421 0 .64.422.22.423.328.985.11.563.125 1.125.016.546.016.812m10.594.438v.812q0 .5-.031 1.094-.016.594-.094 1.203a5.3 5.3 0 0 1-.25 1.078q-.157.485-.406.797a.79.79 0 0 1-.641.313.6.6 0 0 1-.531-.282 2.2 2.2 0 0 1-.25-.687 5 5 0 0 1-.094-.797v-.64q0-.704.047-1.376t.047-1.375v-.28q0-.204-.032-.407a1.2 1.2 0 0 0-.109-.36q-.062-.156-.203-.156-.282 0-.453.297a2.6 2.6 0 0 0-.281.672q-.11.39-.157.781-.047.375-.062.563a9 9 0 0 0-.063.61q-.015.405-.062.89a9 9 0 0 1-.125 1 6 6 0 0 1-.219.922q-.125.405-.328.672-.203.265-.5.265a.64.64 0 0 1-.578-.328 2.4 2.4 0 0 1-.297-.766 6 6 0 0 1-.125-.89q-.016-.453-.016-.703v-.516q.016-.25.016-.516v-.359a10 10 0 0 0-.016-.547 7 7 0 0 0-.031-.64 5 5 0 0 0-.062-.594 1.5 1.5 0 0 0-.141-.453q-.094-.172-.219-.172-.202 0-.375.265-.171.25-.297.61-.125.343-.203.687-.062.345-.062.5v.094q0 .75.093 1.469.094.718.094 1.468 0 .438-.281.813-.282.36-.781.36a.76.76 0 0 1-.594-.266 2.4 2.4 0 0 1-.391-.719 6 6 0 0 1-.25-.953 13 13 0 0 1-.109-1.031 39 39 0 0 1-.047-.922v-.625q0-.235-.016-.688 0-.453.016-.984.031-.532.094-1.078a5.4 5.4 0 0 1 .203-1.016 2.3 2.3 0 0 1 .359-.734.73.73 0 0 1 .594-.297q.407 0 .656.219.266.219.266.656 0 .093-.016.187 0 .094-.015.172a3.5 3.5 0 0 1 .422-.5q.249-.265.531-.468.297-.218.625-.344.328-.14.656-.14.312 0 .563.171t.437.438a2.6 2.6 0 0 1 .313.546q.124.297.171.563a5 5 0 0 1 .375-.563q.235-.297.5-.515.266-.219.579-.36.327-.14.671-.14.329 0 .563.234t.406.61q.172.36.266.828.093.453.156.906.063.437.078.828.016.375.016.594m8.187.5q0 .687-.156 1.515a5.3 5.3 0 0 1-.5 1.516q-.343.704-.922 1.172-.562.468-1.422.469-.219 0-.453-.032a2.2 2.2 0 0 1-.453-.109 1.7 1.7 0 0 1-.375-.203.9.9 0 0 1-.266-.36l-.14 2.25q-.016.36-.031.86 0 .499-.125.953a1.7 1.7 0 0 1-.391.766q-.266.328-.781.328-.297 0-.5-.313a2.5 2.5 0 0 1-.328-.765 9 9 0 0 1-.172-1.047 14 14 0 0 1-.078-1.11 31 31 0 0 1-.016-.968v-.641q0-1.046-.016-2.078-.015-1.047-.015-2.094v-.578q0-.405.031-.875.031-.468.094-.969.078-.5.218-.906.141-.421.36-.672a.67.67 0 0 1 .531-.265q.203 0 .359.125a.86.86 0 0 1 .282.296q.125.172.203.375t.125.375a3.3 3.3 0 0 1 1.109-.828q.64-.28 1.36-.281.75 0 1.218.422.484.421.75 1.047.282.624.391 1.343.11.704.109 1.282m-2.234-.125q0-.235-.047-.469a1.3 1.3 0 0 0-.141-.453.76.76 0 0 0-.281-.344.76.76 0 0 0-.469-.14q-.375 0-.796.25a1.75 1.75 0 0 0-.61.546q-.078.126-.094.407-.015.28-.015.422v.296l.031.36.031.36q.031.17.078.265a.6.6 0 0 0 .204.265q.156.11.343.203t.375.141q.203.047.344.047a.65.65 0 0 0 .531-.25q.204-.25.313-.594.124-.343.156-.703.047-.375.047-.61m6.156 5.234q-.797 0-1.39-.422a3.7 3.7 0 0 1-1-1.078 5.2 5.2 0 0 1-.61-1.453 6.6 6.6 0 0 1-.203-1.594q0-.828.203-1.703.204-.89.625-1.61.422-.734 1.078-1.187.657-.468 1.563-.468.875 0 1.484.484.625.468 1 1.187.375.704.531 1.547.157.844.11 1.594a8.6 8.6 0 0 1-.266 1.672 5.3 5.3 0 0 1-.609 1.515 3.5 3.5 0 0 1-1.031 1.094q-.626.422-1.485.422m.156-7.062q-.234 0-.421.25-.172.25-.297.609-.11.36-.172.766-.063.39-.063.687 0 .375.063.813.078.437.203.812.124.36.297.61.187.234.422.234.25 0 .422-.234.188-.236.296-.594.11-.36.157-.782a8 8 0 0 0 .047-.812q0-.345-.063-.75a4.3 4.3 0 0 0-.187-.781 1.8 1.8 0 0 0-.297-.594q-.172-.234-.407-.234m9.454.765q-.219.015-.375-.031l-.313-.125a3 3 0 0 0-.281-.11.6.6 0 0 0-.313-.046q-.312.015-.562.172a2.2 2.2 0 0 0-.438.39 2.7 2.7 0 0 0-.328.532 3 3 0 0 0-.219.562 4 4 0 0 0-.078.578q-.015.375-.015.813a24 24 0 0 0-.016.859q0 .406-.031.64a6 6 0 0 1-.078.594 2.6 2.6 0 0 1-.203.625 1.4 1.4 0 0 1-.344.5.8.8 0 0 1-.563.203.75.75 0 0 1-.468-.156 1.4 1.4 0 0 1-.329-.406 4 4 0 0 1-.218-.61 8 8 0 0 1-.125-.703q-.048-.375-.078-.75-.016-.375-.032-.703v-.625q.016-.28.016-.453-.015-.546-.063-1.093-.03-.562-.031-1.11 0-.343.031-.765.032-.423.172-.782.14-.375.407-.625.28-.25.765-.25.266 0 .453.172.188.172.297.422.126.25.188.531.061.282.078.516.375-.61.844-.985.468-.39 1.218-.421.375-.016.735.078.375.078.672.281.312.188.5.5.203.312.218.734.031.5-.297.766-.328.265-.796.281m4.968 6.407q-1.108 0-1.734-.297a2 2 0 0 1-.922-.813q-.297-.531-.359-1.281-.063-.75-.063-1.672 0-.735.047-1.469.047-.75.141-1.593-.22 0-.344.015h-.203q-.5 0-.86-.219-.375-.219-.375-.672 0-.28.219-.5.204-.218.531-.375.329-.156.704-.25.39-.093.734-.125 0-.437.062-.968.063-.531.219-.985.172-.469.453-.78a.93.93 0 0 1 .719-.313q.25 0 .438.156.202.141.328.375.125.218.187.5.063.281.063.547 0 .313-.047.64-.047.33-.172.813.266-.031.359-.031.094-.016.172-.016.266 0 .547.047.297.047.531.156.25.11.407.297a.6.6 0 0 1 .156.422.67.67 0 0 1-.235.5q-.218.218-.562.375a4 4 0 0 1-.734.25 7 7 0 0 1-.735.11 20 20 0 0 0-.14 1.187q-.031.53-.079 1.078l-.062.547q-.016.266-.016.547 0 .203.016.484.015.266.109.516t.297.437q.204.172.563.172.219 0 .453-.031.234-.047.469-.047.405 0 .578.281.187.282.187.719a.9.9 0 0 1-.203.578 1.35 1.35 0 0 1-.484.375 2.6 2.6 0 0 1-.672.234q-.36.078-.688.078m9-2.766q0 .28-.031.734-.015.454-.125.89a2.1 2.1 0 0 1-.344.735q-.234.313-.656.313-.577 0-.891-.375-.312-.375-.296-.938-.5.438-1.141.688-.625.25-1.281.25a1.8 1.8 0 0 1-.86-.219 2.7 2.7 0 0 1-.718-.562 2.8 2.8 0 0 1-.5-.766 2.2 2.2 0 0 1-.188-.86q0-.75.453-1.312a4.3 4.3 0 0 1 1.141-.953q.672-.407 1.422-.64.765-.235 1.359-.313v-.14a.6.6 0 0 0 .016-.142q0-.484-.266-.78-.265-.298-.75-.298-.39 0-.672.141a3.3 3.3 0 0 0-.531.297q-.25.156-.5.297a1.24 1.24 0 0 1-.563.125.87.87 0 0 1-.593-.219.73.73 0 0 1-.235-.562q0-.516.297-.938.313-.422.766-.703a4 4 0 0 1 1-.453 3.4 3.4 0 0 1 1-.172q.421 0 .844.11.421.093.796.312.375.203.672.515.313.297.5.703.282.579.453 1.235.173.64.266 1.328.094.672.125 1.36.031.671.031 1.312m-2.5-.5-.047-1.063h-.062a.14.14 0 0 0-.063-.015q-.203 0-.515.11a2.3 2.3 0 0 0-.578.28 2.3 2.3 0 0 0-.485.391.7.7 0 0 0-.187.453q0 .219.156.297a.8.8 0 0 0 .359.078q.344 0 .735-.172.39-.187.687-.36m7.875 3.14q-.265 0-.422-.25a1.7 1.7 0 0 1-.234-.546 4.4 4.4 0 0 1-.109-.625 11 11 0 0 1-.016-.5q0-.469.047-.938l.125-.937q.078-.469.125-.938a7 7 0 0 0 .062-.937q0-.187-.015-.407a1.7 1.7 0 0 0-.078-.406.67.67 0 0 0-.172-.328.45.45 0 0 0-.328-.125q-.14 0-.313.234a3.4 3.4 0 0 0-.328.516q-.14.281-.25.578a1.5 1.5 0 0 0-.094.422v.703q.016.345.016.703v.907q-.015.28-.047.578-.031.297-.094.578-.047.281-.14.547a1.8 1.8 0 0 1-.25.453q-.141.188-.344.312a.9.9 0 0 1-.484.125.7.7 0 0 1-.516-.203 1.5 1.5 0 0 1-.328-.516 3.6 3.6 0 0 1-.188-.718q-.046-.407-.078-.782-.015-.39-.015-.703.015-.327.015-.515v-.735q0-.593-.031-1.172-.016-.577-.016-1.156v-.797q.016-.484.125-.937.11-.469.36-.797t.734-.328q.219 0 .391.14.171.141.297.344.14.204.218.438.094.234.141.406.156-.22.359-.422.22-.203.485-.36a2.54 2.54 0 0 1 1.343-.343q.797 0 1.235.39.453.375.656.954.219.563.266 1.218.047.657.047 1.188 0 .266-.047.797-.048.516-.157 1.156-.094.626-.265 1.297-.172.657-.406 1.203a3 3 0 0 1-.563.89q-.312.344-.719.344m6.672.126q-1.11 0-1.734-.297a2 2 0 0 1-.922-.813q-.297-.531-.359-1.281-.063-.75-.063-1.672 0-.735.047-1.469.047-.75.141-1.593-.22 0-.344.015h-.203q-.5 0-.86-.219-.375-.219-.375-.672 0-.28.219-.5.203-.218.531-.375.328-.156.703-.25.391-.093.735-.125 0-.437.062-.968.063-.531.219-.985.173-.469.453-.78a.93.93 0 0 1 .719-.313.66.66 0 0 1 .437.156q.203.141.329.375a1.8 1.8 0 0 1 .187.5q.063.281.063.547 0 .313-.047.64-.048.33-.172.813.266-.031.359-.031.094-.016.172-.016.265 0 .547.047.297.047.531.156.25.11.406.297a.6.6 0 0 1 .157.422.67.67 0 0 1-.235.5q-.219.218-.562.375a4 4 0 0 1-.735.25q-.39.078-.734.11-.093.64-.141 1.187-.03.53-.078 1.078l-.062.547a9 9 0 0 0 0 1.031q.015.266.109.516.095.25.297.437.203.172.563.172.218 0 .453-.031.234-.047.468-.047.406 0 .579.281.187.282.187.719a.9.9 0 0 1-.203.578 1.35 1.35 0 0 1-.484.375 2.6 2.6 0 0 1-.672.234q-.36.078-.688.078m8.906-3.344q0 .531-.343 1.047-.328.5-.844.906-.5.39-1.078.64-.579.235-1.063.235a2.76 2.76 0 0 1-1.484-.406 3.9 3.9 0 0 1-1.078-1.063 5.1 5.1 0 0 1-.672-1.406 5.6 5.6 0 0 1-.219-1.516q0-.78.219-1.672.22-.89.656-1.64.453-.75 1.125-1.25.688-.5 1.625-.5.531 0 1.016.187a2.46 2.46 0 0 1 1.422 1.282q.218.453.218 1.015 0 .735-.312 1.375a3.6 3.6 0 0 1-.828 1.11 4.4 4.4 0 0 1-1.188.765 4 4 0 0 1-1.375.313q.063.453.36.656.312.203.734.203.313 0 .609-.156.297-.156.579-.344.28-.203.546-.36.281-.156.563-.156.313 0 .562.203a.65.65 0 0 1 .25.532m-2.531-3.828a.94.94 0 0 0-.109-.422.36.36 0 0 0-.344-.219.9.9 0 0 0-.578.188 1.4 1.4 0 0 0-.391.453q-.156.266-.25.578a3 3 0 0 0-.093.578q.218-.047.515-.125a3 3 0 0 0 .578-.203q.282-.141.469-.344a.66.66 0 0 0 .203-.484M55.969 45.656q0 .297-.063.578a1.2 1.2 0 0 1-.187.47 1.05 1.05 0 0 1-.375.327q-.236.11-.578.11-.39 0-.578-.157a.86.86 0 0 1-.266-.375 2 2 0 0 1-.063-.5q0-.265-.03-.484a.9.9 0 0 0-.11-.39q-.094-.157-.344-.157-.234 0-.39.36-.14.36-.235.828-.093.468-.125.922-.03.438-.031.593.203-.03.39-.047a2.5 2.5 0 0 1 .86.016q.234.046.437.156a.8.8 0 0 1 .328.282q.126.171.125.437 0 .282-.25.5-.234.218-.578.375a5 5 0 0 1-.672.234q-.343.095-.547.125.047 1.08.047 2.172 0 1.032-.047 2.032-.03.484-.343.796-.297.313-.782.313a.9.9 0 0 1-.453-.11.85.85 0 0 1-.312-.265 1.5 1.5 0 0 1-.203-.39 2.2 2.2 0 0 1-.078-.454 57 57 0 0 1-.125-1.875 29 29 0 0 1-.032-1.906q-.109.015-.218.016h-.203a2.7 2.7 0 0 1-.97-.204 1.7 1.7 0 0 1-.406-.297.6.6 0 0 1-.171-.437q0-.344.234-.578.219-.234.531-.375a2.7 2.7 0 0 1 .672-.219q.36-.063.625-.094v-.25q0-.765.14-1.64t.5-1.625.985-1.235q.625-.5 1.594-.5.609 0 1.047.266.437.25.718.672.282.406.407.937.125.516.125 1.047m2-1.562a.65.65 0 0 1-.125.39 1.2 1.2 0 0 1-.297.313q-.187.124-.406.203a1.5 1.5 0 0 1-.407.063.96.96 0 0 1-.547-.157q-.234-.156-.234-.484a.74.74 0 0 1 .11-.406q.125-.188.296-.297.172-.126.391-.188.218-.062.422-.062.297 0 .547.14t.25.485m.125 5.312v.469q0 .234-.016.453-.015.266-.016.719 0 .438-.03.953-.032.516-.11 1.047a4.4 4.4 0 0 1-.219.969 2 2 0 0 1-.422.718.9.9 0 0 1-.64.282.58.58 0 0 1-.5-.235 2.2 2.2 0 0 1-.344-.64 5.4 5.4 0 0 1-.188-.891 17 17 0 0 1-.093-.953q-.032-.47-.032-.86v-1.281q0-.468.032-1 .03-.53.109-1.078a6.4 6.4 0 0 1 .25-1 2.2 2.2 0 0 1 .438-.734.88.88 0 0 1 .671-.282q.422 0 .641.422.219.423.328.985t.125 1.125q.015.546.016.812M65 49q0 .078-.016.172a1 1 0 0 1-.046.156 1.5 1.5 0 0 1-.438.61 1.1 1.1 0 0 1-.703.234q-.609 0-.828-.61a.5.5 0 0 1-.032-.171q0-.11-.015-.22v-.452a.9.9 0 0 0-.11-.344q-.078-.125-.265-.125-.266 0-.516.344a3.8 3.8 0 0 0-.422.797 7 7 0 0 0-.28.937 3.7 3.7 0 0 0-.11.781q0 .236.031.578.031.33.125.641.094.312.25.547.172.219.438.219a.8.8 0 0 0 .484-.157q.234-.171.453-.39.203-.187.438-.39a.87.87 0 0 1 .562-.204q.39 0 .61.281a.97.97 0 0 1 .234.641q0 .532-.281 1a3.2 3.2 0 0 1-.704.797q-.42.328-.937.516a2.7 2.7 0 0 1-.984.203q-.844 0-1.438-.422a3.3 3.3 0 0 1-.937-1.063 5 5 0 0 1-.516-1.422 7.3 7.3 0 0 1-.156-1.453q0-.797.218-1.718.219-.939.672-1.735a4.3 4.3 0 0 1 1.157-1.328q.718-.531 1.703-.531.609 0 1.047.265.453.266.734.703.297.423.437.954a3.7 3.7 0 0 1 .157 1.047v.156A1 1 0 0 1 65 49m7.516 3.797q0 .28-.032.734a4.3 4.3 0 0 1-.125.89 2.1 2.1 0 0 1-.343.735q-.235.313-.657.313-.578 0-.89-.375t-.297-.938q-.501.438-1.14.688-.625.25-1.282.25-.453 0-.86-.219a2.7 2.7 0 0 1-.718-.562 2.9 2.9 0 0 1-.5-.766 2.2 2.2 0 0 1-.188-.86q0-.75.454-1.312a4.3 4.3 0 0 1 1.14-.953q.672-.406 1.422-.64.765-.235 1.36-.313v-.14a.6.6 0 0 0 .015-.142q0-.484-.266-.78-.266-.298-.75-.298-.39 0-.671.141a3.3 3.3 0 0 0-.532.297q-.25.156-.5.297a1.24 1.24 0 0 1-.562.125.87.87 0 0 1-.594-.219.74.74 0 0 1-.234-.562q0-.516.296-.938.313-.422.766-.703a4 4 0 0 1 1-.453 3.4 3.4 0 0 1 1-.172q.422 0 .844.11.422.093.797.312.375.203.672.515.312.298.5.703.28.579.453 1.235.171.64.265 1.328.095.672.125 1.36.032.671.032 1.312m-2.5-.5-.047-1.063h-.063a.14.14 0 0 0-.062-.015q-.203 0-.516.11-.297.093-.578.28a2.3 2.3 0 0 0-.484.391.7.7 0 0 0-.188.453q0 .219.156.297a.8.8 0 0 0 .36.078q.344 0 .734-.172.39-.187.688-.36m8.859-3.14q-.218.015-.375-.032L78.188 49a3 3 0 0 0-.282-.11.6.6 0 0 0-.312-.046q-.313.015-.563.172a2.2 2.2 0 0 0-.437.39 2.7 2.7 0 0 0-.328.532 3 3 0 0 0-.22.562 4 4 0 0 0-.077.578q-.016.375-.016.813-.016.453-.016.859t-.03.64q-.016.25-.079.594-.062.329-.203.625a1.4 1.4 0 0 1-.344.5.8.8 0 0 1-.562.203.75.75 0 0 1-.469-.156 1.4 1.4 0 0 1-.328-.406 4 4 0 0 1-.219-.61 8 8 0 0 1-.125-.703q-.047-.375-.078-.75-.015-.375-.031-.703v-.625q.015-.28.015-.453-.015-.546-.062-1.093-.031-.563-.031-1.11 0-.343.03-.766.032-.42.173-.78.14-.376.406-.626.282-.25.766-.25.266 0 .453.172.188.172.297.422.124.25.187.531t.078.516q.375-.609.844-.984.47-.391 1.219-.422.375-.016.734.078.375.078.672.281.312.188.5.5.203.312.219.734.03.5-.297.766-.328.265-.797.281m11.828-4.438q0 1.14-.094 2.265-.078 1.126-.078 2.266 0 .922.047 1.828.063.906.063 1.828 0 .25-.016.61-.015.343-.11.672a1.3 1.3 0 0 1-.28.562q-.189.234-.547.234-.469 0-.782-.343a1.7 1.7 0 0 1-.375-.797 2.7 2.7 0 0 1-.86.953q-.561.39-1.218.39a1.72 1.72 0 0 1-1.219-.484 4.3 4.3 0 0 1-.843-1.172 7 7 0 0 1-.5-1.437 6.5 6.5 0 0 1-.157-1.297 9.7 9.7 0 0 1 .204-1.906q.124-.516.312-1 .187-.5.469-.891.297-.39.687-.625.406-.234.922-.234.562 0 1.078.328t.781.812l.141-2.484q.015-.297.047-.688.031-.406.125-.765.11-.36.328-.61.22-.25.64-.25.454 0 .704.22.249.217.36.562.125.328.14.718.03.39.031.735m-2.547 6.937q0-.36-.015-.703t0-.703a9 9 0 0 0-.22-.437 2 2 0 0 0-.312-.454 1.6 1.6 0 0 0-.39-.359.85.85 0 0 0-.469-.14.6.6 0 0 0-.453.171 1 1 0 0 0-.25.422 2.5 2.5 0 0 0-.11.516q-.015.281-.015.484 0 .188.031.563.031.36.11.734.093.375.25.656.156.282.421.282.203 0 .407-.079.203-.093.375-.218.188-.141.343-.297.172-.172.297-.313zm10.125.563q0 .531-.344 1.047-.328.5-.843.906-.5.39-1.078.64-.579.235-1.063.235a2.76 2.76 0 0 1-1.484-.406 3.9 3.9 0 0 1-1.078-1.063 5.2 5.2 0 0 1-.672-1.406 5.6 5.6 0 0 1-.219-1.516q0-.78.219-1.672.219-.89.656-1.64.453-.75 1.125-1.25.687-.5 1.625-.5.531 0 1.016.187a2.45 2.45 0 0 1 1.421 1.282q.22.453.22 1.015 0 .735-.313 1.375a3.6 3.6 0 0 1-.828 1.11q-.516.468-1.188.765a4 4 0 0 1-1.375.313q.063.453.36.656.312.203.734.203.312 0 .61-.156.296-.156.577-.344.282-.203.547-.36a1.15 1.15 0 0 1 .563-.156q.313 0 .562.203t.25.532M95.75 48.39a.94.94 0 0 0-.11-.422.36.36 0 0 0-.343-.219.9.9 0 0 0-.578.188 1.4 1.4 0 0 0-.39.453q-.157.266-.25.578a3 3 0 0 0-.095.578q.219-.047.516-.125.312-.078.578-.203a1.6 1.6 0 0 0 .469-.344.66.66 0 0 0 .203-.484m9.891 7.062q-.798 0-1.391-.422a3.7 3.7 0 0 1-1-1.078 5.2 5.2 0 0 1-.609-1.453 6.5 6.5 0 0 1-.203-1.594q0-.828.203-1.703.202-.89.625-1.61.421-.734 1.078-1.187.656-.468 1.562-.468.875 0 1.485.484.624.468 1 1.187.375.705.531 1.547a6.5 6.5 0 0 1 .109 1.594 8.6 8.6 0 0 1-.265 1.672 5.3 5.3 0 0 1-.61 1.516 3.5 3.5 0 0 1-1.031 1.093q-.625.422-1.484.422m.156-7.062q-.234 0-.422.25-.172.25-.297.609-.11.36-.172.766-.062.39-.062.687 0 .375.062.813.078.437.203.812.126.36.297.61.188.234.422.234.25 0 .422-.234.188-.236.297-.594.11-.36.156-.782a8 8 0 0 0 .047-.812q0-.345-.062-.75a4.3 4.3 0 0 0-.188-.781 1.8 1.8 0 0 0-.297-.594q-.171-.234-.406-.234m6.953-2.86q0 .844-.078 1.703-.063.844-.063 1.703 0 1.11.063 2.22.078 1.109.078 2.234 0 .28-.031.64-.031.345-.157.64a1.2 1.2 0 0 1-.343.5q-.235.204-.625.204-.375 0-.656-.375a3.3 3.3 0 0 1-.454-.922 12 12 0 0 1-.296-1.281 23 23 0 0 1-.172-1.36 75 75 0 0 1-.078-1.218 31 31 0 0 1-.016-.828q0-.297.016-.86.03-.562.109-1.218.078-.656.203-1.329.141-.687.359-1.234.219-.562.516-.906.312-.36.734-.36.344 0 .516.235.188.219.266.547.078.312.093.672.016.344.016.593m8.281 5.422q0 .266-.015.797 0 .516-.047 1.094-.031.562-.094 1.078-.063.5-.156.734-.126.297-.328.516a.71.71 0 0 1-.547.219q-.531 0-.766-.422t-.312-1.047a9.5 9.5 0 0 1-.063-1.36q.016-.734-.015-1.359a4 4 0 0 0-.172-1.047q-.141-.422-.516-.422-.516 0-.797.172a.96.96 0 0 0-.391.422 2.1 2.1 0 0 0-.14.61q-.016.343-.047.718-.031.36-.047.969-.015.609-.14 1.203-.126.594-.422 1.031-.282.422-.844.422a.7.7 0 0 1-.563-.265 2.1 2.1 0 0 1-.328-.688 5.7 5.7 0 0 1-.187-.937 17 17 0 0 1-.063-1v-.907q.016-.406.016-.609 0-.312.015-1.031.032-.719.11-1.594.078-.89.203-1.828t.328-1.703q.203-.781.485-1.266.296-.484.687-.469.25.016.422.22.188.203.297.53.125.313.203.688t.109.75q.048.36.047.672.016.313.016.484a20 20 0 0 1-.063 1.625 2.8 2.8 0 0 1 .953-.797 2.65 2.65 0 0 1 1.219-.312q.782 0 1.172.437.407.423.578 1.063.172.624.188 1.343.015.704.015 1.266m4.078 4.5q-.796 0-1.39-.422a3.7 3.7 0 0 1-1-1.078 5.2 5.2 0 0 1-.61-1.453 6.6 6.6 0 0 1-.203-1.594q0-.828.203-1.703.204-.89.625-1.61.423-.734 1.078-1.187.657-.468 1.563-.468.875 0 1.484.484.625.468 1 1.187.375.705.532 1.547a6.5 6.5 0 0 1 .109 1.594 8.6 8.6 0 0 1-.266 1.672 5.3 5.3 0 0 1-.609 1.516 3.5 3.5 0 0 1-1.031 1.093q-.626.422-1.485.422m.157-7.062q-.235 0-.422.25-.172.25-.297.609-.11.36-.172.766-.063.39-.063.687 0 .375.063.813.078.437.203.812.125.36.297.61.188.234.422.234.25 0 .422-.234.188-.236.297-.594.11-.36.156-.782a8 8 0 0 0 .047-.812q0-.345-.063-.75a4.3 4.3 0 0 0-.187-.781 1.8 1.8 0 0 0-.297-.594q-.172-.234-.406-.234m14.343 3.828q0 .531-.343 1.047-.328.5-.844.906-.5.39-1.078.64-.579.235-1.063.235a2.76 2.76 0 0 1-1.484-.406 3.9 3.9 0 0 1-1.078-1.063 5.1 5.1 0 0 1-.672-1.406 5.6 5.6 0 0 1-.219-1.516q0-.78.219-1.672.218-.89.656-1.64.453-.75 1.125-1.25.687-.5 1.625-.5.531 0 1.016.187.485.173.843.5.36.329.579.782t.218 1.015q0 .735-.312 1.375a3.7 3.7 0 0 1-.828 1.11 4.4 4.4 0 0 1-1.188.765 4 4 0 0 1-1.375.313q.063.453.36.656.312.203.734.203.312 0 .609-.156t.579-.344q.28-.203.546-.36.281-.156.563-.156.312 0 .562.203a.65.65 0 0 1 .25.532m-2.531-3.828a.94.94 0 0 0-.109-.422.36.36 0 0 0-.344-.219.9.9 0 0 0-.578.188 1.4 1.4 0 0 0-.391.453q-.156.266-.25.578a3 3 0 0 0-.094.578q.219-.047.516-.125.312-.078.578-.203.282-.141.469-.344a.66.66 0 0 0 .203-.484m11.5-1.985q0 .453-.312.672a6 6 0 0 1-.672.422q-.375.188-.688.453-.297.266-.297.797a.9.9 0 0 0 .125.484q.142.203.328.375.204.157.438.328t.422.391q.203.219.328.531.141.313.141.766 0 .657-.344 1.297a4.28 4.28 0 0 1-2.031 1.906q-.657.297-1.297.297-.266 0-.531-.047a1.5 1.5 0 0 1-.485-.14 1.05 1.05 0 0 1-.344-.297.9.9 0 0 1-.14-.516q0-.438.172-.672.171-.25.437-.39t.563-.22q.312-.077.578-.187.266-.124.437-.312.172-.187.172-.532 0-.327-.266-.671a14 14 0 0 0-.562-.75 8 8 0 0 1-.578-.86 2.03 2.03 0 0 1-.25-1q0-.672.266-1.234.28-.579.734-1 .469-.422 1.062-.656.594-.25 1.25-.25.25 0 .485.047.25.046.437.171a.8.8 0 0 1 .297.313.86.86 0 0 1 .125.484m7.172 5.813q0 .531-.344 1.047-.327.5-.844.906a5 5 0 0 1-1.078.64q-.578.235-1.062.235a2.76 2.76 0 0 1-1.484-.406 3.9 3.9 0 0 1-1.079-1.063 5.2 5.2 0 0 1-.671-1.406 5.6 5.6 0 0 1-.219-1.516q0-.78.219-1.672.218-.89.656-1.64.453-.75 1.125-1.25.687-.5 1.625-.5.53 0 1.015.187a2.45 2.45 0 0 1 1.422 1.282q.219.453.219 1.015 0 .735-.312 1.375a3.7 3.7 0 0 1-.829 1.11 4.4 4.4 0 0 1-1.187.765 4 4 0 0 1-1.375.313q.063.453.359.656.313.203.735.203.312 0 .609-.156a6 6 0 0 0 .578-.344q.282-.203.547-.36.28-.156.563-.156.312 0 .562.203a.65.65 0 0 1 .25.532m-2.531-3.828a.94.94 0 0 0-.11-.422.36.36 0 0 0-.343-.219.9.9 0 0 0-.578.188 1.4 1.4 0 0 0-.391.453q-.157.266-.25.578a3 3 0 0 0-.094.578q.219-.047.516-.125.312-.078.578-.203.281-.141.469-.344a.66.66 0 0 0 .203-.484m12.719.609q0 .078-.016.172a1 1 0 0 1-.047.156 1.5 1.5 0 0 1-.437.61 1.1 1.1 0 0 1-.704.234q-.609 0-.828-.61a.5.5 0 0 1-.031-.171q0-.11-.016-.22v-.452a.9.9 0 0 0-.109-.344q-.078-.125-.266-.125-.266 0-.515.344a3.8 3.8 0 0 0-.422.797 7 7 0 0 0-.281.937q-.11.484-.11.781 0 .236.032.578.03.33.124.641.094.312.25.547a.54.54 0 0 0 .438.219.8.8 0 0 0 .484-.157q.235-.171.454-.39.203-.187.437-.39a.87.87 0 0 1 .563-.204q.39 0 .609.281a.97.97 0 0 1 .234.641q0 .532-.281 1a3.2 3.2 0 0 1-.703.797q-.422.328-.938.516a2.7 2.7 0 0 1-.984.203q-.844 0-1.437-.422a3.3 3.3 0 0 1-.938-1.063 5 5 0 0 1-.516-1.422 7.3 7.3 0 0 1-.156-1.453q0-.797.219-1.718.219-.939.672-1.735a4.3 4.3 0 0 1 1.156-1.328q.719-.531 1.703-.531.609 0 1.047.265.453.266.734.703.297.423.438.954.156.531.156 1.047v.156a1 1 0 0 1-.015.156m7.718 1.531q0 .859-.172 1.703a4.7 4.7 0 0 1-.578 1.516 3.14 3.14 0 0 1-1.094 1.063q-.671.405-1.687.406-1 0-1.672-.39a3.2 3.2 0 0 1-1.078-1.063 4.8 4.8 0 0 1-.563-1.485 9 9 0 0 1-.156-1.687q0-.937.219-1.86.047-.249.172-.687.14-.453.344-.875a3.7 3.7 0 0 1 .484-.75q.281-.312.609-.313.313 0 .5.172t.297.438q.11.25.141.547.031.28.031.515 0 .36-.062.703-.048.345-.11.688l-.125.937a9.5 9.5 0 0 0-.031 1.47q.032.28.125.546t.266.453q.172.172.484.172.406 0 .641-.219.25-.219.359-.547.125-.328.156-.703.032-.375.032-.687 0-.688-.094-1.344a51 51 0 0 1-.172-1.36 1.5 1.5 0 0 1 .062-.687q.078-.234.219-.422.14-.187.344-.297a.84.84 0 0 1 .453-.125q.343 0 .609.25.265.235.438.625.187.375.297.86.125.469.187.937.079.453.094.86.031.406.031.64m3.532-6.437a.64.64 0 0 1-.126.39 1.2 1.2 0 0 1-.296.313 2 2 0 0 1-.407.203 1.5 1.5 0 0 1-.406.063.96.96 0 0 1-.547-.157q-.234-.156-.234-.484a.74.74 0 0 1 .109-.406q.126-.188.297-.297.172-.126.391-.188t.422-.062q.297 0 .547.14t.25.485m.124 5.312v.469q0 .234-.015.453-.016.266-.016.719 0 .438-.031.953-.031.516-.109 1.047a4.4 4.4 0 0 1-.219.969 2 2 0 0 1-.422.718.9.9 0 0 1-.641.282.58.58 0 0 1-.5-.235 2.2 2.2 0 0 1-.343-.64 5.3 5.3 0 0 1-.188-.891 17 17 0 0 1-.094-.953q-.03-.47-.031-.86v-1.281q0-.468.031-1 .032-.53.11-1.078.094-.547.25-1 .171-.453.437-.734a.88.88 0 0 1 .672-.282q.422 0 .641.422.219.423.328.985t.125 1.125q.015.546.015.812m7.844-4.687q0 1.14-.094 2.265-.078 1.126-.078 2.266 0 .922.047 1.828.063.906.063 1.828 0 .25-.016.61-.015.343-.109.672a1.3 1.3 0 0 1-.281.562q-.189.234-.547.234-.469 0-.782-.343a1.7 1.7 0 0 1-.375-.797 2.7 2.7 0 0 1-.859.953q-.562.39-1.219.39a1.72 1.72 0 0 1-1.218-.484 4.3 4.3 0 0 1-.844-1.172 7 7 0 0 1-.5-1.437 6.5 6.5 0 0 1-.156-1.297q0-.39.046-.89.048-.501.157-1.016a8 8 0 0 1 .312-1q.187-.5.469-.891.297-.39.687-.625.407-.234.922-.234.563 0 1.078.328t.782.812l.14-2.484q.016-.297.047-.688.032-.406.125-.765.11-.36.328-.61.22-.25.641-.25.453 0 .703.22.25.217.359.562.126.328.141.718.031.39.031.735m-2.547 6.937q0-.36-.015-.703a8 8 0 0 1 0-.703 9 9 0 0 0-.219-.437 2 2 0 0 0-.313-.454 1.6 1.6 0 0 0-.39-.359.85.85 0 0 0-.469-.14.6.6 0 0 0-.453.171 1 1 0 0 0-.25.422 2.5 2.5 0 0 0-.109.516 8 8 0 0 0-.016.484q0 .188.031.563.032.36.11.734.093.375.25.656.156.282.422.282.202 0 .406-.079.202-.093.375-.218.187-.141.343-.297.172-.172.297-.313zm10.219 1.14q0 .282-.031.735a4.3 4.3 0 0 1-.125.89 2.1 2.1 0 0 1-.344.735q-.234.313-.656.313-.578 0-.891-.375-.312-.375-.297-.938-.5.438-1.14.688-.625.25-1.282.25-.453 0-.859-.219a2.7 2.7 0 0 1-.719-.562 2.9 2.9 0 0 1-.5-.766 2.2 2.2 0 0 1-.187-.86q0-.75.453-1.312a4.2 4.2 0 0 1 1.141-.953 6.5 6.5 0 0 1 1.421-.64 8.5 8.5 0 0 1 1.36-.313v-.14a.6.6 0 0 0 .016-.142q0-.484-.266-.78-.266-.298-.75-.298-.39 0-.672.141a3.3 3.3 0 0 0-.531.297q-.25.156-.5.297a1.24 1.24 0 0 1-.563.125.87.87 0 0 1-.594-.219.74.74 0 0 1-.234-.562q0-.516.297-.938.313-.422.766-.703a4 4 0 0 1 1-.453 3.4 3.4 0 0 1 1-.172q.422 0 .843.11.422.093.797.312.375.203.672.515.312.298.5.703.282.579.453 1.235.172.64.266 1.328.093.672.125 1.36.031.671.031 1.312m-2.5-.5-.047-1.062h-.062a.14.14 0 0 0-.063-.015q-.203 0-.515.11a2.3 2.3 0 0 0-.579.28 2.3 2.3 0 0 0-.484.391.7.7 0 0 0-.187.453q0 .219.156.297a.8.8 0 0 0 .359.078q.344 0 .735-.172.39-.187.687-.36m8.86-3.14q-.219.015-.376-.031L198.5 49a3 3 0 0 0-.281-.11.6.6 0 0 0-.313-.046q-.312.015-.562.172a2.2 2.2 0 0 0-.438.39 2.7 2.7 0 0 0-.328.532 3 3 0 0 0-.219.562 4 4 0 0 0-.078.578q-.015.375-.015.813a24 24 0 0 0-.016.859q0 .406-.031.64a6 6 0 0 1-.078.594 2.6 2.6 0 0 1-.203.625 1.4 1.4 0 0 1-.344.5.8.8 0 0 1-.563.203.75.75 0 0 1-.469-.156 1.5 1.5 0 0 1-.328-.406 4 4 0 0 1-.218-.61 8 8 0 0 1-.125-.703q-.048-.375-.079-.75-.015-.375-.031-.703v-.625q.016-.28.016-.453a19 19 0 0 0-.063-1.093q-.03-.563-.031-1.11 0-.343.031-.766.031-.42.172-.78a1.6 1.6 0 0 1 .406-.626q.282-.25.766-.25.266 0 .453.172.188.172.297.422.125.25.188.531.061.282.078.516.375-.609.844-.984.468-.391 1.218-.422.375-.016.735.078.375.078.671.281.314.188.5.5.204.312.219.734.031.5-.297.766-.328.265-.796.281M35.273 65.72q0 1.14-.093 2.265-.078 1.126-.078 2.266 0 .922.046 1.828.063.906.063 1.828 0 .25-.016.61-.015.344-.11.671a1.3 1.3 0 0 1-.28.563q-.188.234-.547.234-.47 0-.781-.343a1.7 1.7 0 0 1-.375-.797 2.7 2.7 0 0 1-.86.953q-.562.39-1.219.39a1.72 1.72 0 0 1-1.218-.484 4.3 4.3 0 0 1-.844-1.172 7 7 0 0 1-.5-1.437 6.5 6.5 0 0 1-.156-1.297 9.6 9.6 0 0 1 .203-1.906q.124-.516.312-1 .188-.5.47-.891.295-.39.687-.625.406-.234.921-.234.563 0 1.079.328.515.329.78.812l.141-2.484q.015-.297.047-.688.032-.406.125-.765.11-.36.328-.61.22-.25.641-.25.453 0 .703.22.25.218.36.562.125.328.14.718.031.39.031.735m-2.546 6.937q0-.36-.016-.703-.015-.343 0-.703a9 9 0 0 0-.219-.437 2 2 0 0 0-.312-.454 1.6 1.6 0 0 0-.39-.359.85.85 0 0 0-.47-.14.6.6 0 0 0-.453.171 1 1 0 0 0-.25.422 2.5 2.5 0 0 0-.11.516q-.015.281-.015.484 0 .188.031.563.032.36.11.734.093.375.25.656.156.281.422.281.202 0 .406-.078a2.2 2.2 0 0 0 .375-.218q.188-.141.344-.297.171-.172.297-.313zm6.156-7.562a.65.65 0 0 1-.125.39 1.2 1.2 0 0 1-.297.313q-.187.124-.406.203a1.5 1.5 0 0 1-.407.063.96.96 0 0 1-.546-.157q-.235-.156-.235-.484a.74.74 0 0 1 .11-.406q.125-.187.296-.297.172-.126.391-.188t.422-.062q.297 0 .547.14t.25.485m.125 5.312v.469q0 .234-.016.453-.015.266-.015.719 0 .438-.032.953-.03.516-.11 1.047a4.4 4.4 0 0 1-.218.969 2 2 0 0 1-.422.718.9.9 0 0 1-.64.282.58.58 0 0 1-.5-.235 2.2 2.2 0 0 1-.344-.64 5.4 5.4 0 0 1-.188-.891 17 17 0 0 1-.093-.953q-.032-.47-.032-.86v-1.281q0-.469.032-1 .03-.53.11-1.078a6.4 6.4 0 0 1 .25-1q.171-.453.437-.734a.88.88 0 0 1 .671-.281q.422 0 .641.421.219.423.328.985t.125 1.125q.016.546.016.812m6.531-.25q-.218.015-.375-.031L44.852 70a3 3 0 0 0-.282-.11.6.6 0 0 0-.312-.046q-.313.016-.563.172a2.2 2.2 0 0 0-.437.39 2.7 2.7 0 0 0-.328.531 3 3 0 0 0-.22.563 4 4 0 0 0-.077.578q-.016.375-.016.813-.015.453-.015.859t-.032.64q-.015.25-.078.594-.062.33-.203.625a1.4 1.4 0 0 1-.344.5.8.8 0 0 1-.562.204.75.75 0 0 1-.469-.157 1.4 1.4 0 0 1-.328-.406 4 4 0 0 1-.219-.61 8 8 0 0 1-.125-.703q-.046-.375-.078-.75-.015-.375-.031-.703v-.625q.015-.28.015-.453a19 19 0 0 0-.062-1.094q-.03-.561-.031-1.109 0-.343.03-.766.033-.42.173-.78.14-.376.406-.626.282-.25.766-.25.266 0 .453.172.188.172.297.422.124.25.187.531t.078.516q.375-.609.844-.984.47-.39 1.219-.422.375-.016.734.078.375.078.672.281.312.188.5.5.203.312.219.734.03.5-.297.766-.328.265-.797.281m7.875 3.063q0 .531-.344 1.047-.328.5-.843.906-.5.39-1.079.64-.578.235-1.062.235a2.76 2.76 0 0 1-1.484-.406 3.9 3.9 0 0 1-1.079-1.063 5.2 5.2 0 0 1-.671-1.406 5.6 5.6 0 0 1-.22-1.516q0-.78.22-1.672.218-.89.656-1.64.453-.75 1.125-1.25.687-.5 1.625-.5.53 0 1.015.187a2.45 2.45 0 0 1 1.422 1.281q.22.454.22 1.016 0 .735-.313 1.375a3.6 3.6 0 0 1-.829 1.11q-.516.468-1.187.765a4 4 0 0 1-1.375.313q.062.453.36.656.311.203.734.203.312 0 .61-.156.296-.156.577-.344.282-.203.547-.36a1.15 1.15 0 0 1 .563-.156.87.87 0 0 1 .562.204q.25.203.25.53m-2.531-3.828a.94.94 0 0 0-.11-.422.36.36 0 0 0-.343-.219.9.9 0 0 0-.578.188 1.4 1.4 0 0 0-.391.453q-.157.266-.25.578a3 3 0 0 0-.094.578q.219-.047.516-.125a3 3 0 0 0 .578-.203 1.6 1.6 0 0 0 .469-.344.66.66 0 0 0 .203-.484m5.734-4.297a.65.65 0 0 1-.125.39 1.2 1.2 0 0 1-.297.313q-.187.124-.406.203a1.5 1.5 0 0 1-.406.063.96.96 0 0 1-.547-.157q-.234-.156-.234-.484a.74.74 0 0 1 .109-.406q.124-.187.297-.297.172-.126.39-.188.22-.062.422-.062.297 0 .547.14t.25.485m.125 5.312v.469q0 .234-.015.453-.015.266-.016.719 0 .438-.031.953-.032.516-.11 1.047a4.4 4.4 0 0 1-.218.969 2 2 0 0 1-.422.718.9.9 0 0 1-.64.282.58.58 0 0 1-.5-.235 2.2 2.2 0 0 1-.345-.64 5.4 5.4 0 0 1-.187-.891 17 17 0 0 1-.094-.953q-.03-.47-.031-.86v-1.281q0-.469.031-1 .03-.53.11-1.078.093-.547.25-1 .171-.453.437-.734a.88.88 0 0 1 .672-.281q.422 0 .64.421.22.423.329.985t.125 1.125q.015.546.015.812m4.75 6.156q-1.11 0-1.734-.296a2 2 0 0 1-.922-.813q-.297-.531-.36-1.281-.062-.75-.062-1.672 0-.735.047-1.469.047-.75.14-1.594-.218 0-.343.016h-.203q-.5 0-.86-.219-.375-.219-.375-.671 0-.282.22-.5a1.7 1.7 0 0 1 .53-.376 3.7 3.7 0 0 1 .703-.25q.39-.094.735-.124 0-.438.062-.97.063-.53.22-.984.171-.468.452-.78a.92.92 0 0 1 .719-.313q.25 0 .437.156.203.141.329.375.124.218.187.5.063.281.063.547 0 .312-.047.64a8 8 0 0 1-.172.813q.266-.031.36-.031.093-.016.171-.016.266 0 .547.047.297.047.531.156.25.11.406.297a.6.6 0 0 1 .157.422.67.67 0 0 1-.235.5q-.218.218-.562.375-.344.156-.735.25-.39.078-.734.11-.094.64-.14 1.187-.031.53-.079 1.078l-.062.547q-.016.266-.016.547 0 .202.016.484.015.266.11.516.093.25.296.437.204.172.563.172.218 0 .453-.031a2.4 2.4 0 0 1 .468-.047q.407 0 .579.281.187.282.187.719a.9.9 0 0 1-.203.578 1.35 1.35 0 0 1-.484.375 2.6 2.6 0 0 1-.672.234q-.36.08-.688.079m4.938-11.468a.65.65 0 0 1-.125.39 1.2 1.2 0 0 1-.297.313q-.187.124-.406.203a1.5 1.5 0 0 1-.407.063.96.96 0 0 1-.547-.157q-.234-.156-.234-.484a.74.74 0 0 1 .11-.406q.125-.187.296-.297.173-.126.39-.188.22-.062.423-.062.297 0 .547.14t.25.485m.125 5.312v.469q0 .234-.016.453-.016.266-.016.719 0 .438-.03.953-.032.516-.11 1.047a4.4 4.4 0 0 1-.219.969 2 2 0 0 1-.422.718.9.9 0 0 1-.64.282.58.58 0 0 1-.5-.235 2.2 2.2 0 0 1-.344-.64 5.4 5.4 0 0 1-.188-.891 17 17 0 0 1-.093-.953q-.032-.47-.032-.86v-1.281q0-.469.032-1 .03-.53.109-1.078.094-.547.25-1 .172-.453.437-.734a.88.88 0 0 1 .672-.281q.423 0 .64.421.22.423.33.985.109.563.124 1.125.016.546.016.812m5.547 6.031q-.267 0-.422-.25a1.7 1.7 0 0 1-.235-.546 4.4 4.4 0 0 1-.11-.625q-.015-.33-.015-.5 0-.469.047-.938l.125-.937q.078-.469.125-.938a7 7 0 0 0 .063-.937q0-.187-.016-.407a1.7 1.7 0 0 0-.078-.406.66.66 0 0 0-.172-.328.44.44 0 0 0-.328-.125q-.14 0-.313.234a3.4 3.4 0 0 0-.328.516 6 6 0 0 0-.25.578 1.5 1.5 0 0 0-.093.422v.703q.015.345.015.703v.906q-.015.281-.047.579a5 5 0 0 1-.093.578q-.048.281-.141.547a1.7 1.7 0 0 1-.25.453q-.14.188-.344.312a.9.9 0 0 1-.484.125.7.7 0 0 1-.516-.203 1.5 1.5 0 0 1-.328-.516 3.6 3.6 0 0 1-.187-.718q-.048-.406-.079-.781-.015-.39-.015-.704.015-.327.015-.515v-.735q0-.593-.03-1.171-.016-.578-.016-1.157v-.797q.015-.484.125-.937.108-.469.359-.797.25-.328.734-.328a.6.6 0 0 1 .39.14q.174.141.298.344.14.203.219.438.093.234.14.406.156-.22.36-.422a2.8 2.8 0 0 1 .484-.36A2.54 2.54 0 0 1 72.055 67q.796 0 1.234.39.453.375.656.954.22.562.266 1.219.047.656.047 1.187 0 .266-.047.797-.046.516-.156 1.156-.094.626-.266 1.297-.172.656-.406 1.203a3 3 0 0 1-.563.89q-.312.345-.718.344m10.125-4.484q0 .266-.016.797 0 .516-.047 1.094-.03.562-.094 1.078-.061.5-.156.734-.125.297-.328.516a.71.71 0 0 1-.547.219q-.531 0-.766-.422-.234-.421-.312-1.047a9.4 9.4 0 0 1-.063-1.36q.016-.734-.015-1.359a4 4 0 0 0-.172-1.047q-.141-.422-.516-.422-.516 0-.797.172a.95.95 0 0 0-.39.422q-.11.265-.14.61-.016.343-.048.718-.03.36-.047.969-.015.609-.14 1.203-.126.594-.422 1.031-.282.422-.844.422a.7.7 0 0 1-.562-.265 2.1 2.1 0 0 1-.328-.688 6 6 0 0 1-.188-.937 17 17 0 0 1-.062-1v-.907q.015-.406.015-.609 0-.312.016-1.031.03-.719.11-1.594.077-.89.202-1.828.126-.938.328-1.703.203-.782.485-1.266.297-.484.687-.469.25.015.422.22.188.203.297.53.125.313.203.688t.11.75q.046.36.046.672.016.313.016.484a21 21 0 0 1-.062 1.625q.36-.484.953-.797a2.65 2.65 0 0 1 1.218-.312q.782 0 1.172.437.407.422.578 1.063.173.624.188 1.344.016.702.016 1.265m4.078 4.5q-.798 0-1.39-.422a3.7 3.7 0 0 1-1-1.078 5.2 5.2 0 0 1-.61-1.453 6.6 6.6 0 0 1-.203-1.594q0-.828.203-1.703.202-.89.625-1.61.42-.734 1.078-1.187.656-.469 1.562-.469.875 0 1.485.485.624.468 1 1.187.375.704.53 1.547.158.844.11 1.594a8.6 8.6 0 0 1-.265 1.672 5.3 5.3 0 0 1-.61 1.516q-.405.671-1.03 1.093-.626.422-1.485.422m.156-7.062q-.234 0-.422.25-.172.25-.297.609a5.5 5.5 0 0 0-.172.766q-.062.39-.062.687 0 .375.062.813.078.437.203.812.126.36.297.61.188.234.422.234.25 0 .422-.234.188-.236.297-.594.11-.36.156-.781.047-.438.047-.813 0-.345-.062-.75a4.3 4.3 0 0 0-.188-.781 1.8 1.8 0 0 0-.297-.594q-.172-.234-.406-.234m6.953.062q0 .25-.031.688-.031.42-.094.921a9 9 0 0 1-.187 1q-.11.5-.266.922-.157.406-.375.672-.22.25-.5.25-.344 0-.594-.328a3.5 3.5 0 0 1-.406-.86 9 9 0 0 1-.25-1.171q-.095-.64-.14-1.25a26 26 0 0 1-.063-1.14V67.64q0-.439.031-.922.047-.484.125-.953.094-.485.266-.875.171-.391.453-.625a1.02 1.02 0 0 1 .703-.25q.375 0 .61.328.249.312.39.828.156.5.219 1.125.078.624.093 1.234.031.594.016 1.11zm-.297 5.938a.9.9 0 0 1-.125.468q-.125.188-.328.313a1.4 1.4 0 0 1-.437.203 1.8 1.8 0 0 1-.47.063q-.343 0-.655-.188-.313-.172-.313-.562 0-.235.125-.422.14-.203.344-.344a1.7 1.7 0 0 1 .437-.219q.25-.078.47-.078.358 0 .655.188.297.171.297.578m9.016-1.922a4 4 0 0 1-.266-.547 2.2 2.2 0 0 1-.14-.531 1.2 1.2 0 0 1 .031-.485.78.78 0 0 1 .297-.39.5.5 0 0 1 .39-.094q.219.03.469.187a12 12 0 0 0 .063-1.125q0-.421-.063-.89a4 4 0 0 0-.172-.86 2.1 2.1 0 0 0-.328-.671.62.62 0 0 0-.516-.266.68.68 0 0 0-.515.234q-.203.234-.344.625-.14.375-.203.86-.063.468-.063.953 0 .546.063 1.094.078.546.219.984.14.437.343.703.219.266.516.266a.5.5 0 0 0 .219-.047m3 .64q.156.22.344.563.187.328.281.687.11.344.094.657a.64.64 0 0 1-.266.5.53.53 0 0 1-.406.109 1.1 1.1 0 0 1-.453-.14 2.2 2.2 0 0 1-.454-.313 4 4 0 0 1-.453-.422q-.422.36-.953.563a3.1 3.1 0 0 1-1.156.203q-.953 0-1.656-.485a3.8 3.8 0 0 1-1.172-1.265 6.9 6.9 0 0 1-.688-1.875 11.1 11.1 0 0 1 .016-4.454q.25-1.125.75-2.03a4.6 4.6 0 0 1 1.266-1.485q.765-.578 1.828-.578 1.03 0 1.718.562.704.547 1.11 1.438a7 7 0 0 1 .594 1.969q.187 1.094.187 2.187 0 .969-.156 1.86a7.8 7.8 0 0 1-.469 1.624zm8.359-2.578q0 .859-.172 1.703a4.7 4.7 0 0 1-.578 1.516 3.14 3.14 0 0 1-1.094 1.063q-.671.406-1.687.406-1 0-1.672-.39a3.2 3.2 0 0 1-1.078-1.063 4.8 4.8 0 0 1-.563-1.485 9 9 0 0 1-.156-1.687q0-.937.219-1.86.046-.249.172-.687.14-.453.344-.875a3.7 3.7 0 0 1 .484-.75q.281-.313.609-.313.313 0 .5.172.188.172.297.438.11.25.141.547.031.28.031.515 0 .36-.062.703-.047.345-.11.688l-.125.937a9.5 9.5 0 0 0-.031 1.47q.031.28.125.546.093.266.266.453.172.172.484.172.406 0 .641-.219.25-.219.359-.547.124-.328.156-.703.031-.375.031-.687 0-.688-.093-1.344a51 51 0 0 1-.172-1.36 1.5 1.5 0 0 1 .062-.687q.078-.234.219-.422.14-.188.344-.297a.84.84 0 0 1 .453-.125q.343 0 .609.25.266.235.438.625.188.375.297.86.125.469.187.937.079.453.094.86.031.406.031.64m7.5 1.688q0 .531-.344 1.047-.328.5-.843.906-.5.39-1.078.64-.579.235-1.063.235a2.76 2.76 0 0 1-1.484-.406 3.9 3.9 0 0 1-1.078-1.063 5.1 5.1 0 0 1-.672-1.406 5.6 5.6 0 0 1-.219-1.516q0-.78.219-1.672.219-.89.656-1.64.453-.75 1.125-1.25.687-.5 1.625-.5.531 0 1.016.187a2.45 2.45 0 0 1 1.421 1.281q.219.454.219 1.016 0 .735-.312 1.375a3.7 3.7 0 0 1-.828 1.11 4.4 4.4 0 0 1-1.188.765 4 4 0 0 1-1.375.313q.063.453.359.656.314.203.735.203.312 0 .609-.156a6 6 0 0 0 .578-.344q.282-.203.547-.36.281-.155.563-.156.312 0 .562.204a.65.65 0 0 1 .25.53m-2.531-3.828a.95.95 0 0 0-.109-.422.36.36 0 0 0-.344-.219.9.9 0 0 0-.578.188 1.4 1.4 0 0 0-.391.453q-.156.266-.25.578a3 3 0 0 0-.094.578q.219-.047.516-.125.312-.078.578-.203.282-.141.469-.344a.66.66 0 0 0 .203-.484m8.578.765q-.219.015-.375-.031l-.312-.125a3 3 0 0 0-.282-.11.6.6 0 0 0-.312-.046q-.313.016-.563.172a2.2 2.2 0 0 0-.437.39 2.7 2.7 0 0 0-.328.531 3 3 0 0 0-.219.563 4 4 0 0 0-.078.578q-.016.375-.016.813-.015.453-.015.859t-.032.64q-.015.25-.078.594a2.5 2.5 0 0 1-.203.625 1.4 1.4 0 0 1-.344.5.8.8 0 0 1-.562.204.75.75 0 0 1-.469-.157 1.4 1.4 0 0 1-.328-.406 4 4 0 0 1-.219-.61 8 8 0 0 1-.125-.703q-.047-.375-.078-.75l-.031-.703v-.625q.015-.28.015-.453-.015-.546-.062-1.094a20 20 0 0 1-.031-1.109q0-.343.031-.766.031-.42.172-.78a1.6 1.6 0 0 1 .406-.626q.282-.25.766-.25.266 0 .453.172.188.172.297.422.125.25.187.531.063.282.078.516.376-.609.844-.984.47-.39 1.219-.422.375-.016.734.078.375.078.672.281.312.188.5.5.203.312.219.734.031.5-.297.766-.328.265-.797.281m11.938 1.375q0 .859-.172 1.703a4.8 4.8 0 0 1-.578 1.516 3.15 3.15 0 0 1-1.094 1.063q-.672.406-1.688.406-1 0-1.672-.39a3.2 3.2 0 0 1-1.078-1.063 4.8 4.8 0 0 1-.562-1.485 9 9 0 0 1-.156-1.687q0-.937.218-1.86.048-.249.172-.687.141-.453.344-.875.219-.438.484-.75.282-.313.61-.313.312 0 .5.172t.297.438q.108.25.14.547.031.28.031.515 0 .36-.062.703-.047.345-.109.688l-.125.937a9 9 0 0 0-.032 1.47q.032.28.125.546.094.266.266.453.172.172.484.172.407 0 .641-.219.25-.219.359-.547.126-.328.157-.703.03-.375.031-.687 0-.688-.094-1.344-.094-.672-.172-1.36a1.5 1.5 0 0 1 .063-.687 1.5 1.5 0 0 1 .218-.422q.141-.188.344-.297a.85.85 0 0 1 .453-.125q.344 0 .61.25.266.235.437.625.188.375.297.86.125.469.188.937.078.453.093.86.032.406.032.64m10.437-.687v.812q0 .5-.031 1.094-.016.594-.094 1.203a5.3 5.3 0 0 1-.25 1.078q-.156.485-.406.797a.79.79 0 0 1-.641.313.6.6 0 0 1-.531-.282 2.2 2.2 0 0 1-.25-.687 5 5 0 0 1-.094-.797v-.64q0-.704.047-1.376t.047-1.375v-.28q0-.204-.031-.407a1.2 1.2 0 0 0-.11-.36q-.062-.156-.203-.156-.28 0-.453.297a2.7 2.7 0 0 0-.281.672q-.11.39-.156.781-.048.375-.063.563a8 8 0 0 0-.062.61q-.017.405-.063.89a9 9 0 0 1-.125 1 6 6 0 0 1-.219.922q-.124.405-.328.671-.203.266-.5.266a.64.64 0 0 1-.578-.328 2.4 2.4 0 0 1-.297-.766 6.4 6.4 0 0 1-.125-.89 23 23 0 0 1-.015-.703v-.516q.015-.25.015-.516v-.359q0-.25-.015-.547 0-.312-.032-.64a5 5 0 0 0-.062-.594 1.4 1.4 0 0 0-.141-.453q-.093-.172-.219-.172-.203 0-.375.265-.171.25-.296.61-.125.343-.204.687-.062.345-.062.5v.094q0 .75.094 1.469.093.719.093 1.469 0 .437-.281.812-.281.36-.781.36a.76.76 0 0 1-.594-.266 2.4 2.4 0 0 1-.39-.719 6 6 0 0 1-.25-.953 12 12 0 0 1-.11-1.031 45 45 0 0 1-.047-.922v-.625q0-.234-.015-.688 0-.453.015-.984.031-.531.094-1.078a5.5 5.5 0 0 1 .203-1.016 2.3 2.3 0 0 1 .36-.734.72.72 0 0 1 .593-.297q.406 0 .657.219.265.218.265.656 0 .093-.015.187 0 .094-.016.172.172-.25.422-.5.25-.265.531-.469.297-.218.625-.343.329-.14.656-.14a.97.97 0 0 1 .563.171q.25.172.437.438a2.7 2.7 0 0 1 .485 1.11q.156-.283.375-.564.234-.297.5-.515.265-.219.578-.36.328-.14.672-.14.327 0 .562.234.234.234.406.61.173.36.266.828.094.453.156.906.063.437.078.828.016.375.016.594m7.672 2.953q0 .28-.031.734a4.3 4.3 0 0 1-.125.89 2.1 2.1 0 0 1-.344.735q-.234.313-.656.313-.579 0-.891-.375t-.297-.938q-.5.438-1.14.688-.625.25-1.282.25-.453 0-.859-.219a2.7 2.7 0 0 1-.719-.562 2.9 2.9 0 0 1-.5-.766 2.2 2.2 0 0 1-.187-.86q0-.75.453-1.312a4.3 4.3 0 0 1 1.14-.953q.672-.406 1.422-.64a8.5 8.5 0 0 1 1.36-.313v-.14a.6.6 0 0 0 .015-.141q0-.485-.265-.782-.266-.297-.75-.297-.392 0-.672.141a3.3 3.3 0 0 0-.531.297q-.25.156-.5.297a1.25 1.25 0 0 1-.563.125.87.87 0 0 1-.594-.219.74.74 0 0 1-.234-.562q0-.516.297-.938.312-.422.765-.703a4 4 0 0 1 1-.453 3.4 3.4 0 0 1 1-.172q.423 0 .844.11.422.093.797.312.375.203.672.515.312.297.5.704.28.577.453 1.234.172.64.266 1.328.093.672.125 1.36.031.671.031 1.312m-2.5-.5-.047-1.063h-.062a.14.14 0 0 0-.063-.015q-.202 0-.516.11a2.3 2.3 0 0 0-.578.28 2.3 2.3 0 0 0-.484.391.7.7 0 0 0-.188.453q0 .219.157.297a.8.8 0 0 0 .359.078q.344 0 .734-.172.391-.188.688-.36m13.937-7.578q0 1.14-.093 2.265-.078 1.126-.078 2.266 0 .922.046 1.828.063.906.063 1.828 0 .25-.016.61-.016.344-.109.671a1.3 1.3 0 0 1-.281.563q-.188.234-.547.234a1.01 1.01 0 0 1-.781-.343 1.7 1.7 0 0 1-.375-.797 2.7 2.7 0 0 1-.86.953q-.562.39-1.219.39a1.72 1.72 0 0 1-1.218-.484 4.3 4.3 0 0 1-.844-1.172 7 7 0 0 1-.5-1.437 6.5 6.5 0 0 1-.156-1.297 9.4 9.4 0 0 1 .203-1.906 8 8 0 0 1 .312-1q.188-.5.469-.891.297-.39.688-.625.406-.234.921-.234.563 0 1.079.328.515.329.781.812l.14-2.484q.016-.297.047-.688.032-.406.125-.765.11-.36.328-.61.22-.25.641-.25.453 0 .703.22.25.218.36.562.125.328.14.718.031.39.031.735m-2.546 6.937q0-.36-.016-.703-.015-.343 0-.703a9 9 0 0 0-.219-.437 2 2 0 0 0-.312-.454 1.6 1.6 0 0 0-.391-.359.85.85 0 0 0-.469-.14.6.6 0 0 0-.453.171 1 1 0 0 0-.25.422 2.5 2.5 0 0 0-.109.516 8 8 0 0 0-.016.484q0 .188.031.563.032.36.11.734.093.375.25.656.156.281.422.281.203 0 .406-.078.202-.093.375-.218a3 3 0 0 0 .344-.297 8 8 0 0 0 .297-.313zm6.156-7.562a.65.65 0 0 1-.125.39 1.2 1.2 0 0 1-.297.313q-.187.124-.406.203a1.5 1.5 0 0 1-.407.063.96.96 0 0 1-.546-.157q-.235-.156-.235-.484a.74.74 0 0 1 .11-.406q.125-.187.296-.297.172-.126.391-.188a1.5 1.5 0 0 1 .422-.062q.297 0 .547.14t.25.485m.125 5.312v.469q0 .234-.016.453-.015.266-.015.719 0 .438-.032.953-.031.516-.109 1.047a4.4 4.4 0 0 1-.219.969 2 2 0 0 1-.422.718.9.9 0 0 1-.64.282.58.58 0 0 1-.5-.235 2.2 2.2 0 0 1-.344-.64 5.4 5.4 0 0 1-.188-.891 18 18 0 0 1-.093-.953 13 13 0 0 1-.032-.86v-1.281q0-.469.032-1 .031-.53.109-1.078.094-.547.25-1 .172-.453.438-.734a.88.88 0 0 1 .671-.281q.422 0 .641.421.219.423.328.985t.125 1.125q.016.546.016.812m6.906-.406q0 .078-.016.172a1 1 0 0 1-.046.156q-.141.36-.438.61a1.1 1.1 0 0 1-.703.234q-.609 0-.828-.61a.5.5 0 0 1-.031-.171q0-.11-.016-.22v-.452a.9.9 0 0 0-.109-.344q-.079-.125-.266-.125-.266 0-.516.344a3.8 3.8 0 0 0-.422.797 7 7 0 0 0-.281.937 3.7 3.7 0 0 0-.109.781q0 .236.031.579.032.328.125.64.094.313.25.547.172.219.438.219a.8.8 0 0 0 .484-.156q.234-.172.453-.391.203-.187.438-.39a.87.87 0 0 1 .562-.204q.39 0 .609.281a.97.97 0 0 1 .235.641q0 .532-.281 1a3.2 3.2 0 0 1-.704.797q-.421.328-.937.516a2.7 2.7 0 0 1-.984.203q-.844 0-1.438-.422a3.3 3.3 0 0 1-.937-1.063 5 5 0 0 1-.516-1.422 7.3 7.3 0 0 1-.156-1.453q0-.797.218-1.719.219-.937.672-1.734a4.3 4.3 0 0 1 1.157-1.328q.718-.531 1.703-.531.609 0 1.047.265.452.267.734.704.297.421.437.953.157.531.157 1.046v.157a1 1 0 0 1-.016.156m7.516 3.797q0 .28-.032.734-.015.454-.125.89a2.1 2.1 0 0 1-.343.735q-.235.313-.657.313-.578 0-.89-.375t-.297-.938q-.5.438-1.141.688-.624.25-1.281.25-.453 0-.859-.219a2.7 2.7 0 0 1-.719-.562 2.9 2.9 0 0 1-.5-.766 2.2 2.2 0 0 1-.188-.86q0-.75.454-1.312a4.2 4.2 0 0 1 1.14-.953q.672-.406 1.422-.64.766-.235 1.359-.313v-.14a.6.6 0 0 0 .016-.141q0-.485-.266-.782t-.75-.297q-.39 0-.671.141a3.3 3.3 0 0 0-.532.297q-.25.156-.5.297a1.24 1.24 0 0 1-.562.125.87.87 0 0 1-.594-.219.74.74 0 0 1-.234-.562q0-.516.297-.938.312-.422.765-.703a4 4 0 0 1 1-.453 3.4 3.4 0 0 1 1-.172q.422 0 .844.11.422.093.797.312.375.203.672.515.312.297.5.704.28.577.453 1.234.171.64.265 1.328.095.672.125 1.36.032.671.032 1.312m-2.5-.5-.047-1.063h-.063a.14.14 0 0 0-.062-.015q-.203 0-.516.11-.296.093-.578.28a2.3 2.3 0 0 0-.484.391.7.7 0 0 0-.188.453q0 .219.156.297a.8.8 0 0 0 .36.078q.344 0 .734-.172.391-.188.688-.36m14.359-1.953q0 .687-.156 1.515a5.3 5.3 0 0 1-.5 1.516 3.4 3.4 0 0 1-.922 1.172q-.562.468-1.422.469-.219 0-.453-.032a2.2 2.2 0 0 1-.453-.109 1.6 1.6 0 0 1-.375-.203.9.9 0 0 1-.266-.36l-.14 2.25q-.016.36-.032.86 0 .499-.125.953a1.7 1.7 0 0 1-.39.766q-.266.328-.782.328-.296 0-.5-.313a2.5 2.5 0 0 1-.328-.765 9 9 0 0 1-.172-1.047 15 15 0 0 1-.078-1.11 35 35 0 0 1-.015-.968v-.641q0-1.047-.016-2.078-.016-1.047-.016-2.094v-.578q0-.405.032-.875.031-.468.093-.969.079-.5.219-.906.141-.422.36-.672a.66.66 0 0 1 .531-.266q.203 0 .359.126a.84.84 0 0 1 .281.296q.125.172.204.375t.125.375a3.25 3.25 0 0 1 1.109-.828q.64-.28 1.359-.281.75 0 1.219.422.485.422.75 1.047.282.624.391 1.344.11.702.109 1.28m-2.234-.125q0-.234-.047-.469a1.3 1.3 0 0 0-.141-.453.76.76 0 0 0-.281-.344.76.76 0 0 0-.469-.14q-.374 0-.797.25a1.74 1.74 0 0 0-.609.546q-.078.126-.094.407-.015.281-.015.421v.297l.031.36.031.36q.031.17.078.265a.6.6 0 0 0 .203.265q.156.11.344.204t.375.14q.203.047.344.047a.65.65 0 0 0 .531-.25q.203-.25.313-.594.125-.343.156-.703.047-.375.047-.61m9.828 2.578q0 .28-.031.734a4.4 4.4 0 0 1-.125.89 2.1 2.1 0 0 1-.344.735q-.234.313-.656.313-.579 0-.891-.375t-.297-.938q-.5.438-1.141.688-.624.25-1.281.25-.453 0-.859-.219a2.7 2.7 0 0 1-.719-.562 2.9 2.9 0 0 1-.5-.766 2.2 2.2 0 0 1-.187-.86q0-.75.453-1.312a4.2 4.2 0 0 1 1.14-.953q.672-.406 1.422-.64a8.5 8.5 0 0 1 1.36-.313v-.14a.6.6 0 0 0 .015-.141q0-.485-.265-.782-.267-.297-.75-.297-.391 0-.672.141a3.3 3.3 0 0 0-.532.297q-.25.156-.5.297a1.24 1.24 0 0 1-.562.125.87.87 0 0 1-.594-.219.74.74 0 0 1-.234-.562q0-.516.297-.938.312-.422.765-.703a4 4 0 0 1 1-.453 3.4 3.4 0 0 1 1-.172q.423 0 .844.11.422.093.797.312.375.203.672.515.312.297.5.704.28.577.453 1.234.172.64.266 1.328.093.672.125 1.36.03.671.031 1.312m-2.5-.5-.047-1.063h-.063a.13.13 0 0 0-.062-.015q-.202 0-.516.11-.296.093-.578.28a2.3 2.3 0 0 0-.484.391.7.7 0 0 0-.188.453q0 .219.157.297a.8.8 0 0 0 .359.078q.344 0 .734-.172.391-.188.688-.36m8.859-3.14q-.219.015-.375-.032l-.312-.125a3 3 0 0 0-.282-.11.6.6 0 0 0-.312-.046q-.312.016-.563.172a2.2 2.2 0 0 0-.437.39 2.7 2.7 0 0 0-.328.531 3 3 0 0 0-.219.563 4 4 0 0 0-.078.578q-.016.375-.016.813-.015.453-.015.859t-.032.64q-.015.25-.078.594a2.5 2.5 0 0 1-.203.625 1.4 1.4 0 0 1-.344.5.8.8 0 0 1-.562.204.75.75 0 0 1-.469-.157 1.4 1.4 0 0 1-.328-.406 4 4 0 0 1-.219-.61 8 8 0 0 1-.125-.703q-.046-.375-.078-.75-.015-.375-.031-.703v-.625q.016-.28.016-.453-.016-.546-.063-1.094a20 20 0 0 1-.031-1.109q0-.343.031-.766.031-.42.172-.78a1.6 1.6 0 0 1 .406-.626q.282-.25.766-.25.266 0 .453.172.188.172.297.422.125.25.187.531.063.282.078.516.375-.609.844-.984.47-.39 1.219-.422.375-.016.734.078.375.078.672.281.313.188.5.5.204.312.219.734.031.5-.297.766-.328.265-.797.281m7.969 3.64q0 .28-.031.734a4.3 4.3 0 0 1-.125.89 2.1 2.1 0 0 1-.344.735q-.234.313-.656.313-.579 0-.891-.375t-.297-.938q-.5.438-1.14.688-.625.25-1.282.25-.453 0-.859-.219a2.7 2.7 0 0 1-.719-.562 2.9 2.9 0 0 1-.5-.766 2.2 2.2 0 0 1-.187-.86q0-.75.453-1.312a4.3 4.3 0 0 1 1.14-.953q.672-.406 1.422-.64a8.5 8.5 0 0 1 1.36-.313v-.14a.6.6 0 0 0 .015-.141q0-.485-.265-.782-.266-.297-.75-.297-.392 0-.672.141a3.3 3.3 0 0 0-.531.297q-.25.156-.5.297a1.25 1.25 0 0 1-.563.125.87.87 0 0 1-.594-.219.74.74 0 0 1-.234-.562q0-.516.297-.938.312-.422.765-.703a4 4 0 0 1 1-.453 3.4 3.4 0 0 1 1-.172q.423 0 .844.11.422.093.797.312.375.203.672.515.312.297.5.704.28.577.453 1.234.172.64.266 1.328.093.672.125 1.36.031.671.031 1.312m-2.5-.5-.047-1.063h-.062a.14.14 0 0 0-.063-.015q-.202 0-.516.11a2.3 2.3 0 0 0-.578.28 2.3 2.3 0 0 0-.484.391.7.7 0 0 0-.188.453q0 .219.157.297a.8.8 0 0 0 .359.078q.344 0 .734-.172.391-.188.688-.36M48.055 94.219q0 .531-.344 1.047-.328.5-.844.906-.5.39-1.078.64-.578.235-1.062.235a2.76 2.76 0 0 1-1.485-.406 3.9 3.9 0 0 1-1.078-1.063 5.2 5.2 0 0 1-.672-1.406 5.6 5.6 0 0 1-.219-1.516q0-.78.22-1.672.218-.89.655-1.64.453-.75 1.125-1.25.688-.5 1.625-.5.532 0 1.016.187a2.45 2.45 0 0 1 1.422 1.281q.219.454.219 1.016 0 .735-.313 1.375a3.6 3.6 0 0 1-.828 1.11q-.516.468-1.187.765a4 4 0 0 1-1.375.313q.062.453.359.656.312.203.734.203.313 0 .61-.156.296-.156.578-.344.281-.203.547-.36a1.15 1.15 0 0 1 .562-.156.87.87 0 0 1 .563.204q.25.203.25.53m-2.532-3.828a.94.94 0 0 0-.109-.422.36.36 0 0 0-.344-.219.9.9 0 0 0-.578.188 1.4 1.4 0 0 0-.39.453q-.157.266-.25.578a3 3 0 0 0-.094.578q.219-.047.515-.125a3 3 0 0 0 .579-.203q.28-.141.468-.344a.66.66 0 0 0 .203-.484m7.735-1.985q0 .453-.313.672a6 6 0 0 1-.672.422q-.375.188-.687.453-.297.266-.297.797 0 .282.125.484.14.203.328.375.203.157.438.329.234.171.422.39.202.219.328.531.14.313.14.766 0 .657-.343 1.297a4.3 4.3 0 0 1-.86 1.125 4.3 4.3 0 0 1-1.172.781q-.656.297-1.297.297-.266 0-.53-.047a1.5 1.5 0 0 1-.485-.14 1.04 1.04 0 0 1-.344-.297.9.9 0 0 1-.14-.516q0-.438.171-.672.172-.25.438-.39.265-.14.562-.22a4 4 0 0 0 .578-.187q.265-.124.438-.312.171-.187.172-.531 0-.33-.266-.672-.25-.36-.562-.75a8 8 0 0 1-.578-.86 2.04 2.04 0 0 1-.25-1q0-.672.265-1.234a3.4 3.4 0 0 1 .735-1 3.5 3.5 0 0 1 1.062-.656 3.2 3.2 0 0 1 1.25-.25q.25 0 .484.046.25.048.438.172a.8.8 0 0 1 .297.313.86.86 0 0 1 .125.484m7.781 3.938q0 .687-.156 1.515a5.3 5.3 0 0 1-.5 1.516q-.345.704-.922 1.172-.562.468-1.422.469-.219 0-.453-.032a2.2 2.2 0 0 1-.453-.109 1.6 1.6 0 0 1-.375-.203.9.9 0 0 1-.266-.36l-.14 2.25q-.015.36-.032.86 0 .5-.125.953a1.7 1.7 0 0 1-.39.766q-.266.328-.782.328-.297 0-.5-.313a2.5 2.5 0 0 1-.328-.765 9 9 0 0 1-.172-1.047 14 14 0 0 1-.078-1.11q-.015-.531-.015-.968v-.641q0-1.047-.016-2.078-.015-1.047-.016-2.094v-.578q0-.405.032-.875.03-.468.093-.969a5.3 5.3 0 0 1 .22-.906q.14-.422.359-.672a.67.67 0 0 1 .53-.266.56.56 0 0 1 .36.126.86.86 0 0 1 .281.296q.125.172.204.375t.125.375q.484-.546 1.109-.828.64-.28 1.36-.281.75 0 1.218.422.485.422.75 1.047.282.624.39 1.344.11.702.11 1.28m-2.234-.125a2.4 2.4 0 0 0-.047-.469 1.3 1.3 0 0 0-.14-.453.76.76 0 0 0-.282-.344.76.76 0 0 0-.469-.14q-.374 0-.797.25-.406.234-.61.546-.076.126-.093.407-.015.281-.015.421v.297l.03.36.032.36q.03.17.078.265a.6.6 0 0 0 .203.265q.158.11.344.204.188.093.375.14.204.047.344.047a.65.65 0 0 0 .531-.25q.204-.25.313-.594.124-.343.156-.703.047-.375.047-.61m9.828 2.578q0 .28-.031.734-.016.454-.125.89a2.1 2.1 0 0 1-.344.735q-.234.313-.656.313-.579 0-.891-.375t-.297-.938q-.5.438-1.14.688-.625.25-1.282.25-.453 0-.86-.219a2.7 2.7 0 0 1-.718-.562 2.9 2.9 0 0 1-.5-.766 2.2 2.2 0 0 1-.187-.86q0-.75.453-1.312a4.3 4.3 0 0 1 1.14-.953q.672-.406 1.422-.64.766-.235 1.36-.313v-.14a.6.6 0 0 0 .015-.141q0-.485-.265-.782-.267-.297-.75-.297-.39 0-.672.141a3.3 3.3 0 0 0-.532.297q-.25.156-.5.297a1.24 1.24 0 0 1-.562.125.87.87 0 0 1-.594-.219.74.74 0 0 1-.234-.562q0-.516.297-.938.312-.422.765-.703a4 4 0 0 1 1-.453 3.4 3.4 0 0 1 1-.172q.423 0 .844.11.422.093.797.312.375.203.672.515.312.297.5.704.28.577.453 1.234.172.64.266 1.328.093.672.125 1.36.03.671.03 1.312m-2.5-.5-.047-1.063h-.063a.14.14 0 0 0-.062-.015q-.203 0-.516.11-.296.093-.578.28a2.3 2.3 0 0 0-.484.391.7.7 0 0 0-.188.453q0 .219.157.297a.8.8 0 0 0 .359.078q.345 0 .734-.172.39-.188.688-.36m7.875 3.14q-.266 0-.422-.25a1.7 1.7 0 0 1-.234-.546 4.4 4.4 0 0 1-.11-.625q-.015-.33-.015-.5 0-.469.046-.938l.125-.937q.079-.469.125-.938a7 7 0 0 0 .063-.937q0-.187-.016-.407a1.7 1.7 0 0 0-.078-.406.66.66 0 0 0-.172-.328.44.44 0 0 0-.328-.125q-.141 0-.312.234a3.4 3.4 0 0 0-.328.516q-.142.281-.25.578a1.5 1.5 0 0 0-.094.422v.703q.015.345.015.703v.906q-.015.281-.046.579a5 5 0 0 1-.094.578q-.047.281-.14.547a1.7 1.7 0 0 1-.25.453q-.142.188-.345.312a.9.9 0 0 1-.484.125.7.7 0 0 1-.516-.203 1.5 1.5 0 0 1-.328-.516 3.6 3.6 0 0 1-.187-.718q-.047-.406-.078-.781-.016-.39-.016-.704.016-.327.016-.515v-.735q0-.593-.032-1.171-.015-.579-.015-1.157v-.797a4.6 4.6 0 0 1 .125-.937q.11-.469.36-.797.248-.328.734-.328a.6.6 0 0 1 .39.14q.172.141.297.344.141.203.219.438.094.234.14.406.157-.22.36-.422.219-.203.484-.36A2.54 2.54 0 0 1 73.961 88q.797 0 1.234.39.453.375.657.954.218.562.265 1.219.047.656.047 1.187 0 .266-.047.797-.047.516-.156 1.156-.094.626-.266 1.297a8.6 8.6 0 0 1-.406 1.203 3 3 0 0 1-.562.89q-.313.345-.72.344m6.672.126q-1.11 0-1.735-.297a2 2 0 0 1-.922-.813q-.296-.531-.359-1.281-.062-.75-.062-1.672 0-.735.046-1.469.048-.75.141-1.594-.219 0-.344.016h-.203q-.5 0-.86-.219-.374-.219-.374-.671 0-.282.219-.5a1.7 1.7 0 0 1 .53-.376 3.7 3.7 0 0 1 .704-.25q.39-.094.734-.124 0-.438.063-.97.061-.53.219-.984.171-.468.453-.78a.92.92 0 0 1 .718-.313q.25 0 .438.156.203.141.328.375.125.218.188.5.062.281.062.547 0 .312-.047.64a8 8 0 0 1-.172.813q.266-.031.36-.031.094-.016.172-.016.266 0 .546.047.297.046.532.156.25.11.406.297a.6.6 0 0 1 .156.422.67.67 0 0 1-.234.5q-.22.218-.563.375-.344.156-.734.25-.39.077-.734.11-.094.64-.141 1.187-.03.53-.078 1.078l-.063.547q-.015.266-.015.547 0 .202.015.484.015.266.11.516.093.25.297.437.202.172.562.172.219 0 .453-.031a2.4 2.4 0 0 1 .469-.047q.405 0 .578.281.188.282.188.719a.9.9 0 0 1-.204.578 1.35 1.35 0 0 1-.484.375 2.6 2.6 0 0 1-.672.234q-.36.08-.687.079m9-2.766q0 .28-.032.734-.015.454-.125.89a2.1 2.1 0 0 1-.343.735q-.235.313-.657.313-.578 0-.89-.375t-.297-.938q-.5.438-1.14.688-.625.25-1.282.25-.453 0-.86-.219a2.7 2.7 0 0 1-.718-.562 2.9 2.9 0 0 1-.5-.766 2.2 2.2 0 0 1-.188-.86q0-.75.454-1.312a4.3 4.3 0 0 1 1.14-.953q.672-.406 1.422-.64.765-.235 1.36-.313v-.14a.6.6 0 0 0 .015-.141q0-.485-.266-.782t-.75-.297q-.39 0-.671.141a3.3 3.3 0 0 0-.532.297q-.25.156-.5.297a1.24 1.24 0 0 1-.562.125.87.87 0 0 1-.594-.219.74.74 0 0 1-.234-.562q0-.516.297-.938.312-.422.765-.703a4 4 0 0 1 1-.453 3.4 3.4 0 0 1 1-.172q.422 0 .844.11.422.093.797.312.375.203.672.515.312.297.5.704.28.577.453 1.234.172.64.265 1.328.095.672.125 1.36.032.671.032 1.312m-2.5-.5-.047-1.063h-.063a.14.14 0 0 0-.062-.015q-.203 0-.516.11-.296.093-.578.28a2.3 2.3 0 0 0-.484.391.7.7 0 0 0-.188.453q0 .219.156.297a.8.8 0 0 0 .36.078q.344 0 .734-.172.39-.188.688-.36m8.86-3.14q-.22.015-.376-.032L95.352 91a3 3 0 0 0-.282-.11.6.6 0 0 0-.312-.046q-.313.016-.563.172a2.2 2.2 0 0 0-.437.39 2.7 2.7 0 0 0-.328.531 3 3 0 0 0-.22.563 4 4 0 0 0-.077.578q-.016.375-.016.813-.015.453-.015.859t-.032.64q-.015.25-.078.594-.062.33-.203.625a1.4 1.4 0 0 1-.344.5.8.8 0 0 1-.562.204.75.75 0 0 1-.469-.157 1.4 1.4 0 0 1-.328-.406 4 4 0 0 1-.219-.61 8 8 0 0 1-.125-.703q-.047-.375-.078-.75-.015-.375-.031-.703v-.625q.015-.28.015-.453a19 19 0 0 0-.062-1.094q-.03-.561-.031-1.109 0-.343.03-.766.033-.42.173-.78.14-.376.406-.626.282-.25.766-.25.266 0 .453.172.188.172.297.422.124.25.187.531t.078.516q.376-.609.844-.984.47-.39 1.219-.422.375-.016.734.078.375.078.672.281.312.188.5.5.203.312.219.734.03.5-.297.766-.328.265-.797.281m8.062 6.296q-.797 0-1.391-.422a3.7 3.7 0 0 1-1-1.078 5.2 5.2 0 0 1-.609-1.453 6.5 6.5 0 0 1-.204-1.594q0-.828.204-1.703.202-.89.625-1.61.421-.734 1.078-1.187.656-.469 1.562-.469.875 0 1.485.485.624.468 1 1.187.375.704.531 1.547a6.5 6.5 0 0 1 .109 1.594 8.6 8.6 0 0 1-.265 1.672 5.3 5.3 0 0 1-.61 1.516 3.5 3.5 0 0 1-1.031 1.093q-.626.422-1.484.422m.156-7.062q-.234 0-.422.25-.172.25-.297.609-.11.36-.172.766-.062.39-.062.687 0 .375.062.813.078.437.203.812.126.36.297.61.188.234.422.234.25 0 .422-.234.188-.236.297-.594.11-.36.156-.781a8 8 0 0 0 .047-.813q0-.345-.063-.75a4.3 4.3 0 0 0-.187-.781 1.8 1.8 0 0 0-.297-.594q-.172-.234-.406-.234m14.703-2.625q0 1.078-.531 1.968a4.7 4.7 0 0 1-1.422 1.47q.468.093.812.327.344.219.563.547.234.328.344.75.125.406.125.86 0 .89-.422 1.562a3.5 3.5 0 0 1-1.063 1.094 5.2 5.2 0 0 1-1.469.64 6.4 6.4 0 0 1-1.593.204q-.438 0-.875-.063a3.6 3.6 0 0 1-.828-.219q-.14-.047-.235-.375a6 6 0 0 1-.156-.828 27 27 0 0 1-.078-1.047 40 40 0 0 1-.063-1.984V91.03q0-.563.032-1.11v-.437q.015-.296.015-.656.016-.375.031-.781.031-.406.063-.75.047-.36.109-.61.078-.249.172-.312.36-.234.797-.437.438-.219.906-.376.469-.156.938-.25.468-.093.89-.093.579 0 1.11.172.547.156.937.484.407.328.641.813.25.468.25 1.078m-2.594.828q0-.265-.172-.39a.66.66 0 0 0-.422-.126q-.218 0-.468.094a1.3 1.3 0 0 0-.407.25q-.047.047-.093.266-.032.218-.063.5l-.031.515v.562q.016.08.031.141.016.063.047.063a1 1 0 0 0 .547-.188q.28-.203.5-.484.234-.297.375-.625a1.4 1.4 0 0 0 .156-.578m-.062 4.515q0-.266-.188-.375a.8.8 0 0 0-.422-.109q-.219 0-.468.11-.235.093-.391.234-.047.03-.078.156a8 8 0 0 0-.031.281q0 .141-.016.281v.501l.031.187q.031.078.063.078.219 0 .484-.125.266-.124.484-.312a1.6 1.6 0 0 0 .375-.422.9.9 0 0 0 .157-.485m6.328 4.344q-.797 0-1.391-.422a3.7 3.7 0 0 1-1-1.078 5.2 5.2 0 0 1-.609-1.453 6.5 6.5 0 0 1-.203-1.594q0-.828.203-1.703.203-.89.625-1.61.421-.734 1.078-1.187.656-.469 1.562-.469.876 0 1.485.485.625.468 1 1.187.375.704.531 1.547a6.5 6.5 0 0 1 .109 1.594 8.6 8.6 0 0 1-.265 1.672 5.3 5.3 0 0 1-.61 1.516q-.405.671-1.031 1.093-.624.422-1.484.422m.156-7.062q-.234 0-.422.25-.171.25-.297.609-.11.36-.172.766-.062.39-.062.687 0 .375.062.813.079.437.204.812.125.36.296.61.188.234.422.234.25 0 .422-.234.188-.236.297-.594.11-.36.156-.781.048-.438.047-.813 0-.345-.062-.75a4.3 4.3 0 0 0-.188-.781 1.8 1.8 0 0 0-.297-.594q-.172-.234-.406-.234m11.422 1.453q0 .453-.078 1.031-.063.562-.219 1.156a6.6 6.6 0 0 1-.391 1.156 4.3 4.3 0 0 1-.593 1.016q-.344.438-.813.703a2.06 2.06 0 0 1-1.062.266q-.64 0-1.172-.297a2.9 2.9 0 0 1-.891-.812 1.3 1.3 0 0 1-.344.75 1 1 0 0 1-.75.312q-.266 0-.453-.266a2.4 2.4 0 0 1-.281-.671 7 7 0 0 1-.172-.922 16 16 0 0 1-.062-.97 24 24 0 0 1-.016-.843V91.86l.031-1.078q0-.266-.015-.797 0-.53.015-1.171.016-.656.063-1.329.062-.687.203-1.25.14-.562.391-.921.25-.36.64-.376a.72.72 0 0 1 .531.22q.219.218.36.577.156.36.234.813.094.437.125.89.047.438.047.844.016.39.016.64 0 .048-.016.22v.843q.14-.296.406-.578.266-.28.594-.5.328-.218.688-.36.358-.14.687-.14.656 0 1.094.344.453.328.719.844t.375 1.125a6.3 6.3 0 0 1 .109 1.125m-2.297.469q0-.188-.031-.407a1.1 1.1 0 0 0-.11-.406.8.8 0 0 0-.234-.312.55.55 0 0 0-.375-.126q-.25 0-.5.11a2.3 2.3 0 0 0-.453.281q-.219.172-.406.375-.188.188-.328.375l-.157 1.39q.25.36.61.579.359.203.812.203a.76.76 0 0 0 .563-.219q.234-.219.359-.531.14-.328.188-.687a4 4 0 0 0 .062-.626m6.219 5.14q-.797 0-1.391-.422a3.7 3.7 0 0 1-1-1.078 5.2 5.2 0 0 1-.609-1.453 6.5 6.5 0 0 1-.203-1.594q0-.828.203-1.703.203-.89.625-1.61.421-.734 1.078-1.187.656-.469 1.562-.469.876 0 1.485.485.624.468 1 1.187.375.704.531 1.547a6.5 6.5 0 0 1 .109 1.594 8.6 8.6 0 0 1-.265 1.672 5.3 5.3 0 0 1-.61 1.516q-.405.671-1.031 1.093-.624.422-1.484.422m.156-7.062q-.234 0-.422.25-.171.25-.297.609-.11.36-.172.766-.062.39-.062.687 0 .375.062.813.079.437.204.812.125.36.296.61.188.234.422.234.25 0 .422-.234.188-.236.297-.594.11-.36.156-.781.048-.438.047-.813 0-.345-.062-.75a4.3 4.3 0 0 0-.188-.781 1.8 1.8 0 0 0-.297-.594q-.172-.234-.406-.234m14.531-3.672q0 1.14-.093 2.265-.08 1.125-.079 2.266 0 .922.047 1.828.063.906.063 1.828 0 .25-.016.61-.015.344-.109.671a1.3 1.3 0 0 1-.281.563q-.188.234-.547.234-.469 0-.782-.343a1.7 1.7 0 0 1-.375-.797 2.66 2.66 0 0 1-.859.953q-.562.39-1.219.39a1.72 1.72 0 0 1-1.218-.484 4.3 4.3 0 0 1-.844-1.172 7 7 0 0 1-.5-1.437 6.5 6.5 0 0 1-.156-1.297q0-.39.046-.89.048-.501.157-1.016a8 8 0 0 1 .312-1q.187-.5.469-.891.297-.39.687-.625.407-.234.922-.234.563 0 1.078.328.516.329.782.812l.14-2.484q.016-.297.047-.688.032-.406.125-.765.11-.36.328-.61.22-.25.641-.25.453 0 .703.22.25.218.359.562.126.327.141.718.031.39.031.735m-2.547 6.937q0-.36-.015-.703a8 8 0 0 1 0-.703 9 9 0 0 0-.219-.437 2 2 0 0 0-.312-.454 1.6 1.6 0 0 0-.391-.359.85.85 0 0 0-.469-.14.6.6 0 0 0-.453.171 1 1 0 0 0-.25.422 2.5 2.5 0 0 0-.109.516 8 8 0 0 0-.016.484q0 .188.031.563.032.36.11.734.094.375.25.656t.422.281q.202 0 .406-.078.202-.093.375-.218a3 3 0 0 0 .344-.297q.171-.172.296-.313zm10.219 1.14q0 .282-.031.735-.015.454-.125.89a2.1 2.1 0 0 1-.344.735q-.234.313-.656.313-.577 0-.891-.375-.312-.375-.297-.938-.5.438-1.14.688-.625.25-1.281.25-.454 0-.86-.219a2.7 2.7 0 0 1-.719-.562 2.9 2.9 0 0 1-.5-.766 2.2 2.2 0 0 1-.187-.86q0-.75.453-1.312a4.3 4.3 0 0 1 1.141-.953q.672-.406 1.422-.64.765-.235 1.359-.313v-.14a.6.6 0 0 0 .016-.141q0-.485-.266-.782-.265-.297-.75-.297-.39 0-.672.141a3.3 3.3 0 0 0-.531.297q-.25.156-.5.297a1.24 1.24 0 0 1-.563.125.87.87 0 0 1-.593-.219.73.73 0 0 1-.235-.562q0-.516.297-.938.313-.422.766-.703a4 4 0 0 1 1-.453 3.4 3.4 0 0 1 1-.172q.422 0 .843.11.423.093.797.312.375.203.672.515.313.297.5.704.282.577.453 1.234.172.64.266 1.328.093.672.125 1.36.031.671.031 1.312m-2.5-.5-.047-1.062h-.062a.14.14 0 0 0-.063-.015q-.203 0-.515.11a2.3 2.3 0 0 0-.578.28 2.3 2.3 0 0 0-.485.391.7.7 0 0 0-.187.453q0 .219.156.297a.8.8 0 0 0 .359.078q.344 0 .735-.172.39-.188.687-.36m14.703-6.234q0 1.297-.062 2.61-.063 1.297-.156 2.594-.016.235-.032.64a14 14 0 0 1-.187 1.781 3.6 3.6 0 0 1-.25.86q-.156.375-.422.61a.85.85 0 0 1-.625.25q-.328 0-.594-.141a1.4 1.4 0 0 1-.422-.36 1.86 1.86 0 0 1-.359-1.125 17 17 0 0 1 .125-2.078l-1.547.156q-.047.407-.109.985-.047.563-.219 1.094a2.4 2.4 0 0 1-.484.89q-.328.375-.907.375a.98.98 0 0 1-.593-.172 1.16 1.16 0 0 1-.375-.406 2.1 2.1 0 0 1-.204-.578 3 3 0 0 1-.062-.594q0-.937.078-1.86.078-.937.109-1.874a42 42 0 0 0 .016-1.969q0-1 .031-2 .016-.328.016-.766.015-.437.109-.812.11-.391.344-.656.25-.266.734-.266.672 0 1.016.36.344.343.484.874.141.516.141 1.11v1.047q0 .624-.031 1.234l-.063 1.203 1.672-.25.031-1.516q.017-.75.063-1.5l.031-.765q.016-.406.125-.75a1.2 1.2 0 0 1 .36-.563q.265-.234.781-.234.437 0 .703.25.28.25.437.61.172.359.235.765.062.406.062.734zm3.61-1.968a.65.65 0 0 1-.125.39 1.2 1.2 0 0 1-.297.313 2 2 0 0 1-.406.203 1.5 1.5 0 0 1-.407.063.97.97 0 0 1-.547-.157q-.234-.156-.234-.484 0-.235.109-.406.126-.187.297-.297.172-.126.391-.188.218-.062.422-.062.297 0 .547.14t.25.485m.125 5.312v.469q0 .234-.016.453-.016.266-.016.719 0 .438-.031.953-.031.516-.109 1.047a4.4 4.4 0 0 1-.219.969 2 2 0 0 1-.422.718.9.9 0 0 1-.64.282.58.58 0 0 1-.5-.235 2.2 2.2 0 0 1-.344-.64 5.3 5.3 0 0 1-.188-.891 17 17 0 0 1-.093-.953 13 13 0 0 1-.032-.86v-1.281q0-.469.032-1 .03-.53.109-1.078.094-.547.25-1 .172-.453.437-.734a.9.9 0 0 1 .672-.281q.423 0 .641.421.219.423.328.985t.125 1.125q.016.546.016.812m8.265.938q0 .687-.156 1.515a5.3 5.3 0 0 1-.5 1.516q-.343.704-.922 1.172-.562.468-1.422.469-.219 0-.453-.032a2.2 2.2 0 0 1-.453-.109 1.7 1.7 0 0 1-.375-.203.9.9 0 0 1-.266-.36l-.14 2.25q-.016.36-.031.86 0 .5-.125.953a1.74 1.74 0 0 1-.391.766q-.266.328-.781.328-.297 0-.5-.313a2.5 2.5 0 0 1-.328-.765 9 9 0 0 1-.172-1.047 14 14 0 0 1-.078-1.11 31 31 0 0 1-.016-.968v-.641q0-1.047-.016-2.078-.015-1.047-.015-2.094v-.578q0-.405.031-.875.031-.468.094-.969.078-.5.218-.906.141-.422.36-.672a.67.67 0 0 1 .531-.266q.203 0 .359.126a.86.86 0 0 1 .282.296q.125.172.203.375t.125.375a3.3 3.3 0 0 1 1.109-.828q.64-.28 1.36-.281.75 0 1.218.422.484.422.75 1.047.282.624.391 1.344.11.702.109 1.28m-2.234-.125q0-.234-.047-.469a1.3 1.3 0 0 0-.141-.453.76.76 0 0 0-.281-.344.76.76 0 0 0-.469-.14q-.375 0-.796.25a1.75 1.75 0 0 0-.61.546q-.078.126-.094.407-.015.281-.015.421v.297l.031.36.031.36q.031.17.078.265a.6.6 0 0 0 .204.265q.156.11.343.204t.375.14q.204.047.344.047a.65.65 0 0 0 .531-.25q.204-.25.313-.594.124-.343.156-.703.047-.375.047-.61m6.156 5.234q-.797 0-1.39-.422a3.7 3.7 0 0 1-1-1.078 5.2 5.2 0 0 1-.61-1.453 6.6 6.6 0 0 1-.203-1.594q0-.828.203-1.703.204-.89.625-1.61.422-.734 1.078-1.187.657-.469 1.563-.469.875 0 1.484.485.625.468 1 1.187.375.704.531 1.547.157.844.11 1.594a8.6 8.6 0 0 1-.266 1.672 5.3 5.3 0 0 1-.609 1.516 3.5 3.5 0 0 1-1.031 1.093q-.625.422-1.485.422m.156-7.062q-.234 0-.421.25-.172.25-.297.609-.11.36-.172.766-.063.39-.063.687 0 .375.063.813.078.437.203.812.124.36.297.61.187.234.422.234.25 0 .422-.234.188-.236.296-.594.11-.36.157-.781a8 8 0 0 0 .047-.813q0-.345-.063-.75a4.3 4.3 0 0 0-.187-.781 1.8 1.8 0 0 0-.297-.594q-.172-.234-.407-.234m11.047-1.797q0 .5-.265.937a3.8 3.8 0 0 1-.641.797q-.375.36-.844.64a6.4 6.4 0 0 1-.843.423 12.6 12.6 0 0 1 .078 2.14q0 .328-.094.625a1.1 1.1 0 0 1-.281.485q-.188.203-.547.203-.625 0-.844-.625a3.3 3.3 0 0 1-.125-.625q-.047-.407-.078-.828-.016-.438-.016-.844v-.672q0-.219.016-.516a1.1 1.1 0 0 1 .156-.484q.14-.203.469-.39.328-.204.672-.422.359-.22.625-.485a.86.86 0 0 0 .265-.625.95.95 0 0 0-.125-.484 1.1 1.1 0 0 0-.328-.36 1.3 1.3 0 0 0-.437-.234 1.3 1.3 0 0 0-.485-.094q-.593 0-.937.203a3 3 0 0 0-.594.422l-.453.422a.75.75 0 0 1-.531.188 1.04 1.04 0 0 1-.688-.266.83.83 0 0 1-.297-.64q0-.61.36-1.032.359-.436.89-.687.532-.267 1.125-.375a5.2 5.2 0 0 1 1.063-.125q.625 0 1.281.28.672.266 1.203.72.548.453.891 1.062.36.609.359 1.266m-2.312 7.594a.73.73 0 0 1-.141.453q-.125.188-.328.312a1.4 1.4 0 0 1-.437.188 1.8 1.8 0 0 1-.454.062 1.4 1.4 0 0 1-.671-.172q-.297-.172-.297-.562 0-.25.125-.438.14-.203.343-.344t.438-.203q.25-.078.469-.078.359 0 .656.188t.297.594m10.125-7.594q0 .5-.266.937-.25.422-.64.797-.375.36-.844.64a6.4 6.4 0 0 1-.844.423 12.4 12.4 0 0 1 .078 2.14q0 .328-.094.625a1.1 1.1 0 0 1-.281.485q-.187.203-.547.203-.625 0-.843-.625a3.2 3.2 0 0 1-.125-.625q-.048-.407-.079-.828-.015-.438-.015-.844v-.672q0-.219.015-.516.031-.296.157-.484.14-.203.468-.39.328-.204.672-.422a3.3 3.3 0 0 0 .625-.485.86.86 0 0 0 .266-.625.96.96 0 0 0-.125-.484 1.1 1.1 0 0 0-.328-.36 1.3 1.3 0 0 0-.438-.234 1.3 1.3 0 0 0-.484-.094q-.594 0-.938.203a3 3 0 0 0-.593.422l-.453.422a.76.76 0 0 1-.532.188q-.375 0-.687-.266a.83.83 0 0 1-.297-.64q0-.61.359-1.032.36-.436.891-.687a4.2 4.2 0 0 1 1.125-.375 5.2 5.2 0 0 1 1.062-.125q.625 0 1.282.28.672.266 1.203.72.546.453.89 1.062.36.609.36 1.266m-2.313 7.594a.74.74 0 0 1-.14.453q-.126.188-.328.312a1.4 1.4 0 0 1-.438.188 1.8 1.8 0 0 1-.453.062 1.4 1.4 0 0 1-.672-.172q-.297-.172-.297-.562 0-.25.125-.438.141-.203.344-.344a1.4 1.4 0 0 1 .437-.203q.25-.078.469-.078.36 0 .656.188t.297.594"/><defs><filter id="a" width="249" height="167" x="0" y="0" color-interpolation-filters="sRGB" filterUnits="userSpaceOnUse"><feFlood flood-opacity="0" result="BackgroundImageFix"/><feBlend in="SourceGraphic" in2="BackgroundImageFix" result="shape"/><feColorMatrix in="SourceAlpha" result="hardAlpha" values="0 0 0 0 0 0 0 0 0 0 0 0 0 0 0 0 0 0 127 0"/><feOffset dy="4"/><feGaussianBlur stdDeviation="2"/><feComposite in2="hardAlpha" k2="-1" k3="1" operator="arithmetic"/><feColorMatrix values="0 0 0 0 0 0 0 0 0 0 0 0 0 0 0 0 0 0 0.25 0"/><feBlend in2="shape" result="effect1_innerShadow_1137_1128"/></filter></defs></svg>