<svg width="191" height="107" viewBox="0 0 191 107" fill="none" xmlns="http://www.w3.org/2000/svg">
<g filter="url(#filter0_i_876_313)">
<path fill-rule="evenodd" clip-rule="evenodd" d="M27.1791 73.7506C8.9547 67.8323 1 59.098 1 49.6446C1 38.013 17.0441 26.5224 43.5856 20.8409C56.4591 18.0852 71.5843 16.885 88.9626 16.885C142.17 16.885 191.238 28.7526 189.143 49.6446C189.143 60.0108 180.062 69.5433 161.567 75.234C151.483 78.3369 138.724 80.1696 122.762 80.733C116.483 91.5781 107.294 97.1625 92.2175 106C103.274 95.6995 110.048 89.0583 112.499 80.9196C112.217 80.9203 111.935 80.9206 111.652 80.9206C73.9395 82.7756 45.4173 79.6733 27.1791 73.7506Z" fill="#3DC3FF"/>
</g>
<path d="M27.1791 73.7506L26.8702 74.7017L26.8702 74.7017L27.1791 73.7506ZM43.5856 20.8409L43.7949 21.8188L43.7949 21.8188L43.5856 20.8409ZM189.143 49.6446L188.148 49.5448C188.145 49.5779 188.143 49.6112 188.143 49.6446H189.143ZM161.567 75.234L161.273 74.2782L161.273 74.2782L161.567 75.234ZM122.762 80.733L122.727 79.7336C122.383 79.7458 122.069 79.934 121.897 80.232L122.762 80.733ZM92.2175 106L91.5358 105.268C91.1628 105.616 91.111 106.189 91.4155 106.597C91.72 107.006 92.2834 107.121 92.7232 106.863L92.2175 106ZM112.499 80.9196L113.456 81.208C113.548 80.9047 113.49 80.5761 113.301 80.3222C113.112 80.0682 112.813 79.9189 112.496 79.9196L112.499 80.9196ZM111.652 80.9206V79.9206C111.636 79.9206 111.619 79.921 111.603 79.9218L111.652 80.9206ZM0 49.6446C0 59.7852 8.54213 68.7497 26.8702 74.7017L27.4879 72.7995C9.36727 66.9149 2 58.4108 2 49.6446H0ZM43.3763 19.8631C30.0237 22.7213 19.2429 27.0537 11.7734 32.1873C4.33304 37.3008 0 43.3441 0 49.6446H2C2 44.3134 5.68903 38.7956 12.9062 33.8356C20.0941 28.8956 30.6061 24.642 43.7949 21.8188L43.3763 19.8631ZM88.9626 15.885C71.544 15.885 56.3427 17.0875 43.3763 19.8631L43.7949 21.8188C56.5754 19.083 71.6247 17.885 88.9626 17.885V15.885ZM190.138 49.7443C190.709 44.0563 187.764 39.0969 182.475 34.9268C177.196 30.7644 169.46 27.2776 160.078 24.4722C141.298 18.8568 115.625 15.885 88.9626 15.885V17.885C115.508 17.885 140.973 20.8471 159.505 26.3884C168.779 29.1614 176.242 32.5588 181.237 36.4974C186.222 40.4283 188.625 44.7868 188.148 49.5448L190.138 49.7443ZM161.861 76.1898C180.475 70.4623 190.143 60.6987 190.143 49.6446H188.143C188.143 59.3229 179.648 68.6242 161.273 74.2782L161.861 76.1898ZM122.798 81.7324C138.81 81.1672 151.663 79.3277 161.861 76.1898L161.273 74.2782C151.302 77.3461 138.639 79.172 122.727 79.7336L122.798 81.7324ZM121.897 80.232C115.771 90.8122 106.828 96.2767 91.7118 105.137L92.7232 106.863C107.76 98.0482 117.195 92.344 123.628 81.2341L121.897 80.232ZM92.8992 106.732C103.893 96.4895 110.911 89.6587 113.456 81.208L111.541 80.6313C109.184 88.4579 102.655 94.9094 91.5358 105.268L92.8992 106.732ZM111.652 81.9206C111.936 81.9206 112.219 81.9203 112.501 81.9196L112.496 79.9196C112.216 79.9203 111.935 79.9206 111.652 79.9206V81.9206ZM26.8702 74.7017C45.2716 80.6774 73.9304 83.7773 111.701 81.9194L111.603 79.9218C73.9487 81.774 45.563 78.6692 27.4879 72.7995L26.8702 74.7017Z" fill="#3DC3FF"/>
<path d="M42.1435 41.2073C42.1435 41.3433 42.1077 41.4758 42.0361 41.6047C41.9644 41.7265 41.7961 41.8697 41.5312 42.0344C41.2662 42.1991 40.9726 42.3567 40.6503 42.5071C40.328 42.6503 40.0165 42.7756 39.7157 42.8831C39.415 42.9833 39.193 43.0334 39.0497 43.0334C38.9495 43.0334 38.8313 43.0084 38.6952 42.9583C38.5592 42.9153 38.4231 42.858 38.287 42.7864C38.151 42.7148 38.0256 42.6324 37.9111 42.5393C37.8036 42.4462 37.7249 42.3567 37.6747 42.2708C37.6461 42.2206 37.6174 42.1204 37.5888 41.97C37.5673 41.8196 37.5458 41.6441 37.5243 41.4436C37.51 41.2431 37.4957 41.0318 37.4814 40.8098C37.467 40.5806 37.4527 40.3658 37.4384 40.1653C37.4312 39.9576 37.4241 39.775 37.4169 39.6174C37.4169 39.4599 37.4169 39.3453 37.4169 39.2737C37.4169 39.0087 37.4241 38.7043 37.4384 38.3606C37.4599 38.0168 37.4957 37.6731 37.5458 37.3293C37.596 36.9784 37.6676 36.6454 37.7607 36.3303C37.8609 36.0081 37.9934 35.7359 38.1581 35.5139C38.2083 35.4495 38.3085 35.3814 38.4589 35.3098C38.6093 35.2382 38.7848 35.1702 38.9853 35.1057C39.193 35.0413 39.415 34.9804 39.6513 34.9231C39.8876 34.8658 40.1132 34.8193 40.328 34.7834C40.5501 34.7405 40.7506 34.7083 40.9296 34.6868C41.1086 34.6581 41.2447 34.6438 41.3378 34.6438C41.4452 34.6438 41.5455 34.6689 41.6386 34.719C41.7389 34.762 41.8212 34.8228 41.8857 34.9016C41.9573 34.9804 42.011 35.0699 42.0468 35.1702C42.0898 35.2633 42.1113 35.3635 42.1113 35.4709C42.1113 35.564 42.0969 35.6428 42.0683 35.7073C42.0468 35.7717 42.011 35.8433 41.9609 35.9221C41.8892 36.0152 41.7389 36.1262 41.5097 36.2551C41.2805 36.384 41.0299 36.5129 40.7577 36.6418C40.4928 36.7636 40.2349 36.8746 39.9843 36.9749C39.7408 37.0751 39.5689 37.1467 39.4687 37.1897C39.44 37.3544 39.4078 37.5227 39.372 37.6946C39.3433 37.8593 39.3219 38.0276 39.3075 38.1995C39.5295 38.0849 39.7802 37.9775 40.0595 37.8772C40.3388 37.7769 40.6038 37.7268 40.8544 37.7268C41.3629 37.7268 41.6171 37.9775 41.6171 38.4788C41.6171 38.6005 41.592 38.7079 41.5419 38.801C41.4989 38.8941 41.4381 38.9765 41.3593 39.0481C41.2877 39.1197 41.2017 39.1842 41.1015 39.2415C41.0084 39.2916 40.9153 39.3417 40.8222 39.3918C40.593 39.5136 40.3531 39.621 40.1025 39.7141C39.8518 39.8 39.6012 39.886 39.3505 39.9719C39.3362 40.0292 39.3219 40.0937 39.3075 40.1653C39.2932 40.2297 39.2861 40.2942 39.2861 40.3586C39.2861 40.4589 39.2932 40.5592 39.3075 40.6594C39.3219 40.7597 39.3362 40.8599 39.3505 40.9602C39.4364 40.9316 39.5725 40.885 39.7587 40.8206C39.9521 40.7561 40.1526 40.6917 40.3603 40.6272C40.568 40.5627 40.7685 40.509 40.9618 40.4661C41.1552 40.4159 41.2984 40.3909 41.3915 40.3909C41.4989 40.3909 41.5992 40.4159 41.6923 40.4661C41.7854 40.509 41.8642 40.5699 41.9286 40.6487C41.9931 40.7203 42.0432 40.8062 42.079 40.9065C42.122 41.0068 42.1435 41.107 42.1435 41.2073ZM47.332 39.8215C47.332 40.2154 47.2926 40.6057 47.2138 40.9924C47.135 41.3792 47.0025 41.7265 46.8163 42.0344C46.6301 42.3352 46.3795 42.5787 46.0644 42.7649C45.7564 42.9511 45.3697 43.0442 44.9042 43.0442C44.4459 43.0442 44.0627 42.9547 43.7548 42.7756C43.4469 42.5894 43.1998 42.3459 43.0136 42.0452C42.8346 41.7444 42.7057 41.4042 42.6269 41.0247C42.5553 40.6451 42.5195 40.2584 42.5195 39.8645C42.5195 39.4348 42.5696 39.0087 42.6698 38.5862C42.6913 38.4716 42.7307 38.314 42.788 38.1135C42.8525 37.9058 42.9312 37.7053 43.0243 37.512C43.1246 37.3114 43.2356 37.1396 43.3573 36.9963C43.4863 36.8531 43.6259 36.7815 43.7763 36.7815C43.9195 36.7815 44.0341 36.8209 44.12 36.8997C44.206 36.9784 44.274 37.0787 44.3241 37.2004C44.3743 37.315 44.4065 37.4403 44.4208 37.5764C44.4351 37.7053 44.4423 37.8235 44.4423 37.9309C44.4423 38.0956 44.428 38.2568 44.3993 38.4143C44.3779 38.5719 44.3528 38.7294 44.3241 38.887C44.2955 39.1018 44.2669 39.3167 44.2382 39.5315C44.2167 39.7463 44.206 39.9612 44.206 40.176C44.206 40.2834 44.2096 40.4052 44.2167 40.5413C44.231 40.6702 44.2597 40.7955 44.3027 40.9172C44.3456 41.039 44.4065 41.1428 44.4853 41.2288C44.5641 41.3075 44.6751 41.3469 44.8183 41.3469C45.0045 41.3469 45.1513 41.2968 45.2587 41.1965C45.3733 41.0963 45.4557 40.9709 45.5058 40.8206C45.5631 40.6702 45.5989 40.509 45.6132 40.3372C45.6275 40.1653 45.6347 40.0077 45.6347 39.8645C45.6347 39.5494 45.6132 39.2415 45.5702 38.9407C45.5273 38.6327 45.4879 38.3212 45.4521 38.0061C45.4449 37.9703 45.4413 37.9202 45.4413 37.8557C45.4413 37.7483 45.4592 37.6409 45.495 37.5334C45.5308 37.426 45.581 37.3293 45.6454 37.2434C45.7099 37.1575 45.7887 37.0894 45.8818 37.0393C45.9749 36.982 46.0787 36.9534 46.1933 36.9534C46.3508 36.9534 46.4905 37.0107 46.6122 37.1252C46.734 37.2327 46.8342 37.3759 46.913 37.5549C46.9989 37.7268 47.067 37.9237 47.1171 38.1458C47.1744 38.3606 47.2174 38.5754 47.246 38.7903C47.2818 38.998 47.3033 39.1949 47.3105 39.3811C47.3248 39.5673 47.332 39.7141 47.332 39.8215ZM53.7236 36.9856C53.7236 37.1933 53.6519 37.3472 53.5087 37.4475C53.3726 37.5478 53.2187 37.6444 53.0468 37.7375C52.8749 37.8235 52.7174 37.9273 52.5741 38.0491C52.4381 38.1708 52.37 38.3534 52.37 38.5969C52.37 38.7258 52.3987 38.8368 52.456 38.9299C52.5204 39.023 52.5956 39.109 52.6816 39.1877C52.7747 39.2594 52.8749 39.3346 52.9823 39.4133C53.0898 39.4921 53.1864 39.5816 53.2724 39.6819C53.3655 39.7821 53.4407 39.9039 53.498 40.0471C53.5624 40.1903 53.5947 40.3658 53.5947 40.5735C53.5947 40.8743 53.5159 41.1715 53.3583 41.4651C53.2079 41.7515 53.011 42.0094 52.7675 42.2385C52.5312 42.4605 52.2626 42.6396 51.9618 42.7756C51.6611 42.9117 51.3639 42.9797 51.0702 42.9797C50.9485 42.9797 50.8267 42.969 50.705 42.9475C50.5833 42.9332 50.4723 42.901 50.372 42.8508C50.2789 42.8007 50.2001 42.7327 50.1357 42.6467C50.0712 42.5536 50.039 42.4355 50.039 42.2922C50.039 42.0917 50.0784 41.9377 50.1572 41.8303C50.2359 41.7157 50.3362 41.6262 50.4579 41.5618C50.5797 41.4973 50.7086 41.4472 50.8447 41.4114C50.9879 41.3756 51.1204 41.3326 51.2421 41.2825C51.3639 41.2252 51.4641 41.1536 51.5429 41.0676C51.6217 40.9817 51.6611 40.8599 51.6611 40.7024C51.6611 40.552 51.6002 40.398 51.4784 40.2405C51.3639 40.0758 51.2349 39.9039 51.0917 39.7249C50.9485 39.5387 50.816 39.3417 50.6943 39.134C50.5797 38.9264 50.5224 38.6972 50.5224 38.4465C50.5224 38.1386 50.5833 37.8557 50.705 37.5979C50.8339 37.3329 51.0022 37.1038 51.2099 36.9104C51.4247 36.717 51.6682 36.5667 51.9404 36.4592C52.2125 36.3446 52.4989 36.2874 52.7997 36.2874C52.9143 36.2874 53.0253 36.2981 53.1327 36.3196C53.2473 36.3411 53.3476 36.3805 53.4335 36.4377C53.5195 36.4879 53.5875 36.5595 53.6376 36.6526C53.6949 36.7385 53.7236 36.8495 53.7236 36.9856ZM56.1943 43.2053C55.829 43.2053 55.5103 43.1086 55.2382 42.9153C54.9661 42.7219 54.7369 42.4749 54.5507 42.1741C54.3645 41.8733 54.2249 41.5403 54.1318 41.175C54.0387 40.8027 53.9921 40.4374 53.9921 40.0793C53.9921 39.6998 54.0387 39.3095 54.1318 38.9084C54.2249 38.5002 54.3681 38.1314 54.5614 37.802C54.7548 37.4654 55.0019 37.1933 55.3027 36.9856C55.6034 36.7708 55.9615 36.6633 56.3769 36.6633C56.7779 36.6633 57.1181 36.7743 57.3974 36.9963C57.6838 37.2112 57.913 37.4833 58.0849 37.8127C58.2568 38.135 58.3785 38.4895 58.4501 38.8762C58.5217 39.2629 58.5468 39.6282 58.5253 39.9719C58.5038 40.3515 58.443 40.7346 58.3427 41.1213C58.2496 41.5081 58.1099 41.8554 57.9238 42.1633C57.7376 42.4713 57.5012 42.7219 57.2148 42.9153C56.9283 43.1086 56.5881 43.2053 56.1943 43.2053ZM56.3017 38.3499C56.1943 38.3499 56.0976 38.4071 56.0116 38.5217C55.9329 38.6363 55.8648 38.776 55.8075 38.9407C55.7574 39.1054 55.718 39.2808 55.6894 39.467C55.6607 39.6461 55.6464 39.8036 55.6464 39.9397C55.6464 40.1116 55.6607 40.2978 55.6894 40.4983C55.7252 40.6988 55.7717 40.885 55.829 41.0569C55.8863 41.2216 55.9544 41.3612 56.0331 41.4758C56.1191 41.5833 56.2157 41.637 56.3232 41.637C56.4377 41.637 56.5344 41.5833 56.6132 41.4758C56.6991 41.3684 56.7672 41.2323 56.8173 41.0676C56.8674 40.9029 56.9032 40.7239 56.9247 40.5305C56.9462 40.33 56.957 40.1438 56.957 39.9719C56.957 39.8144 56.9426 39.6425 56.914 39.4563C56.8853 39.2629 56.8424 39.0839 56.7851 38.9192C56.7349 38.7545 56.6669 38.6184 56.581 38.511C56.5022 38.4036 56.4091 38.3499 56.3017 38.3499ZM63.7782 39.8215C63.7782 40.2154 63.7389 40.6057 63.6601 40.9924C63.5813 41.3792 63.4488 41.7265 63.2626 42.0344C63.0764 42.3352 62.8258 42.5787 62.5107 42.7649C62.2027 42.9511 61.816 43.0442 61.3505 43.0442C60.8922 43.0442 60.509 42.9547 60.2011 42.7756C59.8932 42.5894 59.6461 42.3459 59.4599 42.0452C59.2808 41.7444 59.1519 41.4042 59.0732 41.0247C59.0016 40.6451 58.9657 40.2584 58.9657 39.8645C58.9657 39.4348 59.0159 39.0087 59.1161 38.5862C59.1376 38.4716 59.177 38.314 59.2343 38.1135C59.2988 37.9058 59.3775 37.7053 59.4706 37.512C59.5709 37.3114 59.6819 37.1396 59.8036 36.9963C59.9325 36.8531 60.0722 36.7815 60.2226 36.7815C60.3658 36.7815 60.4804 36.8209 60.5663 36.8997C60.6523 36.9784 60.7203 37.0787 60.7704 37.2004C60.8206 37.315 60.8528 37.4403 60.8671 37.5764C60.8814 37.7053 60.8886 37.8235 60.8886 37.9309C60.8886 38.0956 60.8743 38.2568 60.8456 38.4143C60.8241 38.5719 60.7991 38.7294 60.7704 38.887C60.7418 39.1018 60.7131 39.3167 60.6845 39.5315C60.663 39.7463 60.6523 39.9612 60.6523 40.176C60.6523 40.2834 60.6558 40.4052 60.663 40.5413C60.6773 40.6702 60.706 40.7955 60.7489 40.9172C60.7919 41.039 60.8528 41.1428 60.9316 41.2288C61.0103 41.3075 61.1213 41.3469 61.2646 41.3469C61.4508 41.3469 61.5976 41.2968 61.705 41.1965C61.8196 41.0963 61.9019 40.9709 61.9521 40.8206C62.0094 40.6702 62.0452 40.509 62.0595 40.3372C62.0738 40.1653 62.081 40.0077 62.081 39.8645C62.081 39.5494 62.0595 39.2415 62.0165 38.9407C61.9736 38.6327 61.9342 38.3212 61.8984 38.0061C61.8912 37.9703 61.8876 37.9202 61.8876 37.8557C61.8876 37.7483 61.9055 37.6409 61.9413 37.5334C61.9771 37.426 62.0273 37.3293 62.0917 37.2434C62.1562 37.1575 62.2349 37.0894 62.328 37.0393C62.4211 36.982 62.525 36.9534 62.6396 36.9534C62.7971 36.9534 62.9368 37.0107 63.0585 37.1252C63.1803 37.2327 63.2805 37.3759 63.3593 37.5549C63.4452 37.7268 63.5133 37.9237 63.5634 38.1458C63.6207 38.3606 63.6637 38.5754 63.6923 38.7903C63.7281 38.998 63.7496 39.1949 63.7568 39.3811C63.7711 39.5673 63.7782 39.7141 63.7782 39.8215ZM69.0634 43.2053C68.6982 43.2053 68.3795 43.1086 68.1073 42.9153C67.8352 42.7219 67.606 42.4749 67.4198 42.1741C67.2336 41.8733 67.094 41.5403 67.0009 41.175C66.9078 40.8027 66.8613 40.4374 66.8613 40.0793C66.8613 39.6998 66.9078 39.3095 67.0009 38.9084C67.094 38.5002 67.2372 38.1314 67.4306 37.802C67.6239 37.4654 67.871 37.1933 68.1718 36.9856C68.4726 36.7708 68.8307 36.6633 69.246 36.6633C69.6471 36.6633 69.9872 36.7743 70.2665 36.9963C70.553 37.2112 70.7822 37.4833 70.954 37.8127C71.1259 38.135 71.2476 38.4895 71.3193 38.8762C71.3909 39.2629 71.4159 39.6282 71.3945 39.9719C71.373 40.3515 71.3121 40.7346 71.2118 41.1213C71.1187 41.5081 70.9791 41.8554 70.7929 42.1633C70.6067 42.4713 70.3704 42.7219 70.0839 42.9153C69.7974 43.1086 69.4573 43.2053 69.0634 43.2053ZM69.1708 38.3499C69.0634 38.3499 68.9667 38.4071 68.8808 38.5217C68.802 38.6363 68.734 38.776 68.6767 38.9407C68.6266 39.1054 68.5872 39.2808 68.5585 39.467C68.5299 39.6461 68.5155 39.8036 68.5155 39.9397C68.5155 40.1116 68.5299 40.2978 68.5585 40.4983C68.5943 40.6988 68.6409 40.885 68.6982 41.0569C68.7555 41.2216 68.8235 41.3612 68.9023 41.4758C68.9882 41.5833 69.0849 41.637 69.1923 41.637C69.3069 41.637 69.4036 41.5833 69.4823 41.4758C69.5683 41.3684 69.6363 41.2323 69.6864 41.0676C69.7366 40.9029 69.7724 40.7239 69.7939 40.5305C69.8154 40.33 69.8261 40.1438 69.8261 39.9719C69.8261 39.8144 69.8118 39.6425 69.7831 39.4563C69.7545 39.2629 69.7115 39.0839 69.6542 38.9192C69.6041 38.7545 69.5361 38.6184 69.4501 38.511C69.3713 38.4036 69.2782 38.3499 69.1708 38.3499ZM79.6552 41.4114C79.6552 41.5904 79.58 41.7587 79.4296 41.9163C79.2864 42.0738 79.0966 42.217 78.8603 42.3459C78.6311 42.4749 78.3733 42.5894 78.0868 42.6897C77.8004 42.7828 77.5175 42.8616 77.2382 42.926C76.9589 42.9976 76.6939 43.0514 76.4433 43.0872C76.1998 43.123 76.0064 43.1409 75.8632 43.1409C75.7271 43.1409 75.5803 43.1265 75.4228 43.0979C75.2724 43.0764 75.1471 43.0227 75.0468 42.9368C74.9895 42.8938 74.9394 42.7971 74.8964 42.6467C74.8534 42.4963 74.8105 42.3173 74.7675 42.1096C74.7317 41.9019 74.6995 41.6799 74.6708 41.4436C74.6422 41.2001 74.6171 40.9638 74.5956 40.7346C74.5813 40.5055 74.567 40.2942 74.5527 40.1008C74.5455 39.9075 74.5419 39.7571 74.5419 39.6497C74.5419 39.4706 74.5455 39.2558 74.5527 39.0051C74.567 38.7473 74.5849 38.4752 74.6064 38.1887C74.6279 37.8951 74.6565 37.5979 74.6923 37.2971C74.7281 36.9963 74.7675 36.7135 74.8105 36.4485C74.8606 36.1764 74.9179 35.9329 74.9823 35.718C75.054 35.5032 75.1292 35.3349 75.2079 35.2131C75.344 35.0198 75.5159 34.9231 75.7236 34.9231C75.8668 34.9231 75.9885 34.9732 76.0888 35.0735C76.1891 35.1666 76.2678 35.2919 76.3251 35.4495C76.3896 35.5999 76.4361 35.7717 76.4648 35.9651C76.5006 36.1513 76.5256 36.3375 76.54 36.5237C76.5543 36.7099 76.5614 36.8818 76.5614 37.0393C76.5614 37.1969 76.5614 37.3222 76.5614 37.4153C76.5614 37.9739 76.5471 38.5289 76.5185 39.0803C76.497 39.6246 76.4863 40.176 76.4863 40.7346V41.1536C76.8085 41.0533 77.1594 40.9602 77.539 40.8743C77.9185 40.7812 78.2802 40.7346 78.6239 40.7346C78.7457 40.7346 78.8674 40.7418 78.9892 40.7561C79.1181 40.7704 79.2291 40.8027 79.3222 40.8528C79.4224 40.8958 79.5012 40.9638 79.5585 41.0569C79.623 41.1428 79.6552 41.261 79.6552 41.4114ZM84.4247 40.9817C84.4247 41.2252 84.346 41.4651 84.1884 41.7014C84.038 41.9306 83.8447 42.1383 83.6083 42.3245C83.3792 42.5035 83.1321 42.6503 82.8671 42.7649C82.6021 42.8723 82.3586 42.926 82.1366 42.926C81.7571 42.926 81.4169 42.8329 81.1161 42.6467C80.8225 42.4534 80.5754 42.2099 80.3749 41.9163C80.1744 41.6226 80.0204 41.3004 79.913 40.9495C79.8127 40.5914 79.7626 40.2441 79.7626 39.9075C79.7626 39.5494 79.8127 39.1663 79.913 38.7581C80.0133 38.3499 80.1637 37.9739 80.3642 37.6301C80.5719 37.2864 80.8297 36.9999 81.1376 36.7708C81.4527 36.5416 81.8251 36.427 82.2548 36.427C82.4983 36.427 82.731 36.47 82.953 36.5559C83.1751 36.6347 83.3684 36.7493 83.5331 36.8997C83.6978 37.05 83.8303 37.2291 83.9306 37.4368C84.0308 37.6444 84.081 37.8772 84.081 38.135C84.081 38.4716 84.0094 38.7867 83.8661 39.0803C83.7229 39.3739 83.5331 39.6282 83.2968 39.843C83.0605 40.0579 82.7883 40.2333 82.4804 40.3694C82.1724 40.4983 81.8573 40.5699 81.5351 40.5842C81.5637 40.7919 81.6461 40.9423 81.7822 41.0354C81.9254 41.1285 82.0937 41.175 82.287 41.175C82.4303 41.175 82.5699 41.1392 82.706 41.0676C82.842 40.996 82.9745 40.9172 83.1034 40.8313C83.2323 40.7382 83.3577 40.6558 83.4794 40.5842C83.6083 40.5126 83.7372 40.4768 83.8661 40.4768C84.0094 40.4768 84.1383 40.5234 84.2529 40.6165C84.3674 40.7096 84.4247 40.8313 84.4247 40.9817ZM82.6845 38.3499C82.6845 38.2568 82.6594 38.1601 82.6093 38.0598C82.5592 37.9596 82.4804 37.9094 82.373 37.9094C82.2154 37.9094 82.0829 37.9524 81.9755 38.0383C81.8681 38.1171 81.7786 38.2209 81.707 38.3499C81.6353 38.4716 81.578 38.6041 81.5351 38.7473C81.4993 38.8905 81.4778 39.023 81.4706 39.1448C81.5709 39.1233 81.6891 39.0946 81.8251 39.0588C81.9683 39.023 82.1008 38.9765 82.2226 38.9192C82.3515 38.8547 82.4589 38.776 82.5448 38.6829C82.6379 38.5898 82.6845 38.4788 82.6845 38.3499ZM87.9052 43.1946C87.7835 43.1946 87.6868 43.1373 87.6152 43.0227C87.5435 42.9153 87.4898 42.79 87.454 42.6467C87.4182 42.5035 87.3932 42.3603 87.3788 42.217C87.3717 42.0667 87.3681 41.9521 87.3681 41.8733C87.3681 41.6584 87.3788 41.4436 87.4003 41.2288C87.429 41.0139 87.4576 40.7991 87.4863 40.5842C87.5221 40.3694 87.5507 40.1545 87.5722 39.9397C87.6008 39.7249 87.6152 39.51 87.6152 39.2952C87.6152 39.2092 87.6116 39.1161 87.6044 39.0159C87.5973 38.9156 87.5794 38.8225 87.5507 38.7366C87.5292 38.6435 87.4898 38.5683 87.4325 38.511C87.3752 38.4537 87.3001 38.425 87.207 38.425C87.1425 38.425 87.0709 38.4788 86.9921 38.5862C86.9133 38.6864 86.8381 38.8046 86.7665 38.9407C86.7021 39.0696 86.6448 39.2021 86.5947 39.3381C86.5517 39.467 86.5302 39.5637 86.5302 39.6282C86.5302 39.7857 86.5302 39.9469 86.5302 40.1116C86.5374 40.2691 86.5409 40.4303 86.5409 40.595V41.218C86.5338 41.3469 86.523 41.4794 86.5087 41.6155C86.4944 41.7515 86.4729 41.884 86.4443 42.0129C86.4228 42.1418 86.3905 42.2672 86.3476 42.3889C86.3046 42.5035 86.2473 42.6073 86.1757 42.7004C86.1113 42.7864 86.0325 42.858 85.9394 42.9153C85.8463 42.9726 85.7353 43.0012 85.6064 43.0012C85.4631 43.0012 85.345 42.9547 85.2519 42.8616C85.1588 42.7685 85.0836 42.6503 85.0263 42.5071C84.969 42.3567 84.926 42.192 84.8974 42.0129C84.8759 41.8267 84.858 41.6477 84.8437 41.4758C84.8365 41.2968 84.8329 41.1357 84.8329 40.9924C84.8401 40.842 84.8437 40.7239 84.8437 40.6379V40.1331C84.8437 39.8609 84.8365 39.5924 84.8222 39.3274C84.815 39.0624 84.8114 38.7974 84.8114 38.5325C84.8114 38.3892 84.8114 38.2066 84.8114 37.9846C84.8186 37.7626 84.8473 37.5478 84.8974 37.3401C84.9475 37.1252 85.0299 36.9426 85.1445 36.7922C85.259 36.6418 85.4273 36.5667 85.6493 36.5667C85.7496 36.5667 85.8391 36.5989 85.9179 36.6633C85.9967 36.7278 86.0647 36.8066 86.122 36.8997C86.1864 36.9928 86.2366 37.093 86.2724 37.2004C86.3154 37.3079 86.3476 37.401 86.3691 37.4797C86.4407 37.3795 86.523 37.2828 86.6161 37.1897C86.7164 37.0966 86.8274 37.0142 86.9491 36.9426C87.0709 36.871 87.207 36.8137 87.3573 36.7708C87.5077 36.7278 87.6796 36.7063 87.873 36.7063C88.2382 36.7063 88.5211 36.7958 88.7216 36.9749C88.9293 37.1467 89.0797 37.3652 89.1728 37.6301C89.273 37.8879 89.3339 38.1672 89.3554 38.468C89.3769 38.7688 89.3876 39.0409 89.3876 39.2844C89.3876 39.4062 89.3769 39.5888 89.3554 39.8323C89.3339 40.0686 89.2981 40.3336 89.248 40.6272C89.205 40.9137 89.1441 41.2109 89.0654 41.5188C88.9866 41.8196 88.8935 42.0953 88.7861 42.3459C88.6786 42.5966 88.5497 42.8007 88.3993 42.9583C88.2561 43.1158 88.0914 43.1946 87.9052 43.1946ZM92.4921 43.2805C91.9836 43.2805 91.5862 43.2125 91.2997 43.0764C91.0204 42.9475 90.8092 42.7613 90.6659 42.5178C90.5299 42.2743 90.4475 41.9807 90.4189 41.637C90.3902 41.2932 90.3759 40.9101 90.3759 40.4875C90.3759 40.151 90.3866 39.8144 90.4081 39.4778C90.4296 39.134 90.4618 38.7688 90.5048 38.3821C90.4045 38.3821 90.3258 38.3857 90.2685 38.3928C90.2112 38.3928 90.1646 38.3928 90.1288 38.3928C89.8997 38.3928 89.7027 38.3427 89.538 38.2424C89.3661 38.1422 89.2802 37.9882 89.2802 37.7805C89.2802 37.6516 89.3303 37.537 89.4306 37.4368C89.5237 37.3365 89.6454 37.2506 89.7958 37.179C89.9462 37.1073 90.1073 37.05 90.2792 37.0071C90.4583 36.9641 90.6266 36.9355 90.7841 36.9211C90.7841 36.7206 90.7984 36.4986 90.8271 36.2551C90.8557 36.0116 90.9058 35.7861 90.9775 35.5784C91.0562 35.3635 91.1601 35.1845 91.289 35.0413C91.4179 34.898 91.5826 34.8264 91.7831 34.8264C91.8977 34.8264 91.998 34.8622 92.0839 34.9338C92.177 34.9983 92.2522 35.0842 92.3095 35.1917C92.3668 35.2919 92.4098 35.4065 92.4384 35.5354C92.467 35.6643 92.4814 35.7896 92.4814 35.9114C92.4814 36.0546 92.4706 36.2014 92.4491 36.3518C92.4277 36.5022 92.3883 36.6884 92.331 36.9104C92.4527 36.8961 92.5351 36.8889 92.578 36.8889C92.621 36.8818 92.6604 36.8782 92.6962 36.8782C92.818 36.8782 92.9433 36.8889 93.0722 36.9104C93.2083 36.9319 93.33 36.9677 93.4374 37.0178C93.552 37.068 93.6451 37.136 93.7167 37.2219C93.7883 37.3007 93.8241 37.3974 93.8241 37.512C93.8241 37.6409 93.7704 37.7555 93.663 37.8557C93.5627 37.956 93.4338 38.0419 93.2763 38.1135C93.1187 38.1851 92.9504 38.2424 92.7714 38.2854C92.5924 38.3212 92.4241 38.3463 92.2665 38.3606C92.2236 38.6542 92.1913 38.9264 92.1698 39.177C92.1555 39.4205 92.1376 39.6676 92.1161 39.9182C92.1018 40.04 92.0875 40.1653 92.0732 40.2942C92.066 40.4159 92.0624 40.5413 92.0624 40.6702C92.0624 40.7633 92.066 40.8743 92.0732 41.0032C92.0803 41.1249 92.1054 41.2431 92.1484 41.3577C92.1913 41.4722 92.2594 41.5725 92.3525 41.6584C92.4456 41.7372 92.5745 41.7766 92.7392 41.7766C92.8394 41.7766 92.9433 41.7694 93.0507 41.7551C93.1581 41.7336 93.2655 41.7229 93.373 41.7229C93.5592 41.7229 93.6917 41.7874 93.7704 41.9163C93.8564 42.0452 93.8993 42.2099 93.8993 42.4104C93.8993 42.5608 93.8528 42.6933 93.7597 42.8079C93.6738 42.9153 93.5627 43.0012 93.4267 43.0657C93.2906 43.1373 93.1366 43.191 92.9648 43.2268C92.8001 43.2626 92.6425 43.2805 92.4921 43.2805ZM96.1552 43.2053C95.79 43.2053 95.4713 43.1086 95.1991 42.9153C94.927 42.7219 94.6978 42.4749 94.5116 42.1741C94.3254 41.8733 94.1858 41.5403 94.0927 41.175C93.9996 40.8027 93.953 40.4374 93.953 40.0793C93.953 39.6998 93.9996 39.3095 94.0927 38.9084C94.1858 38.5002 94.329 38.1314 94.5224 37.802C94.7157 37.4654 94.9628 37.1933 95.2636 36.9856C95.5644 36.7708 95.9224 36.6633 96.3378 36.6633C96.7389 36.6633 97.079 36.7743 97.3583 36.9963C97.6448 37.2112 97.8739 37.4833 98.0458 37.8127C98.2177 38.135 98.3394 38.4895 98.4111 38.8762C98.4827 39.2629 98.5077 39.6282 98.4863 39.9719C98.4648 40.3515 98.4039 40.7346 98.3036 41.1213C98.2105 41.5081 98.0709 41.8554 97.8847 42.1633C97.6985 42.4713 97.4622 42.7219 97.1757 42.9153C96.8892 43.1086 96.5491 43.2053 96.1552 43.2053ZM96.2626 38.3499C96.1552 38.3499 96.0585 38.4071 95.9726 38.5217C95.8938 38.6363 95.8258 38.776 95.7685 38.9407C95.7183 39.1054 95.679 39.2808 95.6503 39.467C95.6217 39.6461 95.6073 39.8036 95.6073 39.9397C95.6073 40.1116 95.6217 40.2978 95.6503 40.4983C95.6861 40.6988 95.7327 40.885 95.79 41.0569C95.8473 41.2216 95.9153 41.3612 95.9941 41.4758C96.08 41.5833 96.1767 41.637 96.2841 41.637C96.3987 41.637 96.4954 41.5833 96.5741 41.4758C96.6601 41.3684 96.7281 41.2323 96.7782 41.0676C96.8284 40.9029 96.8642 40.7239 96.8857 40.5305C96.9072 40.33 96.9179 40.1438 96.9179 39.9719C96.9179 39.8144 96.9036 39.6425 96.8749 39.4563C96.8463 39.2629 96.8033 39.0839 96.746 38.9192C96.6959 38.7545 96.6279 38.6184 96.5419 38.511C96.4631 38.4036 96.37 38.3499 96.2626 38.3499ZM100.592 42.3782C100.592 42.4713 100.57 42.5572 100.527 42.636C100.484 42.7076 100.427 42.7685 100.355 42.8186C100.291 42.8687 100.216 42.9081 100.13 42.9368C100.051 42.9654 99.9687 42.9797 99.8827 42.9797C99.7753 42.9797 99.6572 42.9583 99.5282 42.9153C99.4065 42.8795 99.2919 42.8258 99.1845 42.7542C99.0842 42.6825 98.9983 42.6002 98.9267 42.5071C98.8551 42.4068 98.8193 42.2958 98.8193 42.1741C98.8193 41.9807 98.9016 41.8375 99.0663 41.7444C99.231 41.6441 99.3993 41.594 99.5712 41.594C99.6786 41.594 99.7896 41.6119 99.9042 41.6477C100.026 41.6835 100.137 41.7372 100.237 41.8088C100.345 41.8733 100.431 41.9556 100.495 42.0559C100.559 42.149 100.592 42.2564 100.592 42.3782ZM110.958 41.7229C110.936 41.9091 110.904 42.0917 110.861 42.2708C110.825 42.4498 110.779 42.6109 110.722 42.7542C110.664 42.8902 110.589 42.9976 110.496 43.0764C110.41 43.1624 110.31 43.2053 110.195 43.2053C110.081 43.2053 109.977 43.1158 109.884 42.9368C109.791 42.7649 109.701 42.5357 109.615 42.2493C109.536 41.9556 109.461 41.6262 109.39 41.261C109.325 40.8958 109.264 40.5269 109.207 40.1545C109.157 39.775 109.114 39.4062 109.078 39.0481C109.042 38.69 109.014 38.3785 108.992 38.1135C108.949 38.3857 108.899 38.69 108.842 39.0266C108.784 39.3632 108.716 39.7069 108.638 40.0579C108.559 40.4016 108.473 40.7418 108.38 41.0784C108.287 41.4078 108.186 41.705 108.079 41.97C107.972 42.2278 107.857 42.4355 107.735 42.593C107.614 42.7506 107.485 42.8293 107.349 42.8293C107.227 42.8293 107.105 42.747 106.983 42.5823C106.862 42.4176 106.743 42.2027 106.629 41.9377C106.514 41.6656 106.407 41.3648 106.307 41.0354C106.206 40.706 106.113 40.3765 106.027 40.0471C105.941 39.7105 105.866 39.3954 105.802 39.1018C105.737 38.801 105.687 38.5504 105.651 38.3499C105.651 38.5002 105.648 38.6685 105.641 38.8547C105.641 39.0338 105.641 39.1627 105.641 39.2415C105.641 39.2773 105.637 39.3954 105.63 39.5959C105.63 39.7965 105.619 40.0364 105.598 40.3157C105.576 40.595 105.544 40.8958 105.501 41.218C105.458 41.5331 105.393 41.8267 105.308 42.0989C105.229 42.371 105.129 42.6002 105.007 42.7864C104.885 42.9726 104.735 43.0728 104.556 43.0872C104.412 43.0227 104.291 42.9153 104.19 42.7649C104.097 42.6073 104.018 42.4247 103.954 42.217C103.89 42.0094 103.839 41.7874 103.804 41.551C103.768 41.3147 103.739 41.0855 103.718 40.8635C103.696 40.6344 103.682 40.4231 103.675 40.2297C103.675 40.0364 103.675 39.8788 103.675 39.7571C103.675 39.5422 103.685 39.2737 103.707 38.9514C103.736 38.622 103.779 38.2782 103.836 37.9202C103.893 37.5621 103.968 37.204 104.061 36.8459C104.155 36.4879 104.266 36.1692 104.394 35.8899C104.531 35.6034 104.684 35.3707 104.856 35.1917C105.035 35.0126 105.24 34.9231 105.469 34.9231C105.576 34.9231 105.691 34.984 105.812 35.1057C105.934 35.2275 106.056 35.3886 106.178 35.5891C106.299 35.7825 106.418 36.0009 106.532 36.2444C106.647 36.4879 106.754 36.7349 106.854 36.9856C106.962 37.2291 107.055 37.4654 107.134 37.6946C107.212 37.9166 107.277 38.1064 107.327 38.2639C107.384 38.092 107.456 37.8915 107.542 37.6624C107.628 37.4332 107.721 37.1969 107.821 36.9534C107.929 36.7027 108.043 36.4592 108.165 36.2229C108.294 35.9794 108.426 35.7646 108.562 35.5784C108.698 35.385 108.835 35.231 108.971 35.1165C109.114 34.9947 109.257 34.9338 109.4 34.9338C109.651 34.9338 109.866 35.0269 110.045 35.2131C110.224 35.3993 110.374 35.6428 110.496 35.9436C110.618 36.2372 110.714 36.5702 110.786 36.9426C110.858 37.3079 110.911 37.6731 110.947 38.0383C110.99 38.3964 111.015 38.733 111.022 39.0481C111.037 39.3632 111.044 39.6174 111.044 39.8108C111.044 39.8896 111.044 39.997 111.044 40.1331C111.044 40.2691 111.04 40.4231 111.033 40.595C111.033 40.7668 111.026 40.9495 111.012 41.1428C110.997 41.3362 110.979 41.5295 110.958 41.7229ZM116.372 41.3792C116.372 41.5081 116.365 41.6764 116.351 41.884C116.343 42.0917 116.315 42.2958 116.265 42.4963C116.214 42.6897 116.136 42.858 116.028 43.0012C115.921 43.1444 115.77 43.2161 115.577 43.2161C115.312 43.2161 115.108 43.1301 114.965 42.9583C114.822 42.7864 114.754 42.5715 114.761 42.3137C114.531 42.5142 114.27 42.6718 113.976 42.7864C113.69 42.901 113.396 42.9583 113.096 42.9583C112.888 42.9583 112.691 42.9081 112.505 42.8079C112.319 42.7076 112.154 42.5787 112.011 42.4211C111.867 42.2636 111.753 42.0881 111.667 41.8948C111.581 41.6943 111.538 41.4973 111.538 41.304C111.538 40.9602 111.642 40.6594 111.85 40.4016C112.064 40.1438 112.326 39.9254 112.634 39.7463C112.942 39.5601 113.268 39.4133 113.611 39.3059C113.962 39.1985 114.274 39.1269 114.546 39.0911C114.546 39.0553 114.546 39.023 114.546 38.9944C114.553 38.9657 114.557 38.9335 114.557 38.8977C114.557 38.6757 114.496 38.4967 114.374 38.3606C114.252 38.2245 114.08 38.1565 113.858 38.1565C113.679 38.1565 113.525 38.1887 113.396 38.2532C113.268 38.3105 113.146 38.3785 113.031 38.4573C112.917 38.5289 112.802 38.5969 112.687 38.6614C112.573 38.7187 112.444 38.7473 112.301 38.7473C112.143 38.7473 112.007 38.6972 111.893 38.5969C111.785 38.4967 111.731 38.3678 111.731 38.2102C111.731 37.9739 111.799 37.759 111.935 37.5657C112.079 37.3723 112.254 37.2112 112.462 37.0823C112.677 36.9462 112.906 36.8424 113.149 36.7708C113.4 36.692 113.629 36.6526 113.837 36.6526C114.03 36.6526 114.224 36.6777 114.417 36.7278C114.61 36.7708 114.793 36.8424 114.965 36.9426C115.137 37.0357 115.291 37.1539 115.427 37.2971C115.57 37.4332 115.684 37.5943 115.77 37.7805C115.899 38.0455 116.003 38.3284 116.082 38.6292C116.161 38.9228 116.222 39.2271 116.265 39.5422C116.308 39.8502 116.336 40.1617 116.351 40.4768C116.365 40.7847 116.372 41.0855 116.372 41.3792ZM114.653 41.0354L114.621 40.3049C114.607 40.3049 114.592 40.3049 114.578 40.3049C114.564 40.2978 114.549 40.2942 114.535 40.2942C114.442 40.2942 114.324 40.3193 114.181 40.3694C114.045 40.4124 113.912 40.4768 113.783 40.5627C113.654 40.6415 113.543 40.731 113.45 40.8313C113.364 40.9316 113.321 41.0354 113.321 41.1428C113.321 41.2431 113.357 41.3111 113.429 41.3469C113.5 41.3827 113.583 41.4006 113.676 41.4006C113.833 41.4006 114.002 41.3612 114.181 41.2825C114.36 41.1965 114.517 41.1142 114.653 41.0354ZM120.067 43.1946C119.946 43.1946 119.849 43.1373 119.777 43.0227C119.706 42.9153 119.652 42.79 119.616 42.6467C119.58 42.5035 119.555 42.3603 119.541 42.217C119.534 42.0667 119.53 41.9521 119.53 41.8733C119.53 41.6584 119.541 41.4436 119.562 41.2288C119.591 41.0139 119.62 40.7991 119.648 40.5842C119.684 40.3694 119.713 40.1545 119.734 39.9397C119.763 39.7249 119.777 39.51 119.777 39.2952C119.777 39.2092 119.774 39.1161 119.767 39.0159C119.759 38.9156 119.741 38.8225 119.713 38.7366C119.691 38.6435 119.652 38.5683 119.595 38.511C119.537 38.4537 119.462 38.425 119.369 38.425C119.305 38.425 119.233 38.4788 119.154 38.5862C119.075 38.6864 119 38.8046 118.929 38.9407C118.864 39.0696 118.807 39.2021 118.757 39.3381C118.714 39.467 118.692 39.5637 118.692 39.6282C118.692 39.7857 118.692 39.9469 118.692 40.1116C118.699 40.2691 118.703 40.4303 118.703 40.595V41.218C118.696 41.3469 118.685 41.4794 118.671 41.6155C118.656 41.7515 118.635 41.884 118.606 42.0129C118.585 42.1418 118.553 42.2672 118.51 42.3889C118.467 42.5035 118.409 42.6073 118.338 42.7004C118.273 42.7864 118.195 42.858 118.101 42.9153C118.008 42.9726 117.897 43.0012 117.768 43.0012C117.625 43.0012 117.507 42.9547 117.414 42.8616C117.321 42.7685 117.246 42.6503 117.188 42.5071C117.131 42.3567 117.088 42.192 117.059 42.0129C117.038 41.8267 117.02 41.6477 117.006 41.4758C116.999 41.2968 116.995 41.1357 116.995 40.9924C117.002 40.842 117.006 40.7239 117.006 40.6379V40.1331C117.006 39.8609 116.999 39.5924 116.984 39.3274C116.977 39.0624 116.974 38.7974 116.974 38.5325C116.974 38.3892 116.974 38.2066 116.974 37.9846C116.981 37.7626 117.009 37.5478 117.059 37.3401C117.11 37.1252 117.192 36.9426 117.307 36.7922C117.421 36.6418 117.589 36.5667 117.811 36.5667C117.912 36.5667 118.001 36.5989 118.08 36.6633C118.159 36.7278 118.227 36.8066 118.284 36.8997C118.349 36.9928 118.399 37.093 118.434 37.2004C118.477 37.3079 118.51 37.401 118.531 37.4797C118.603 37.3795 118.685 37.2828 118.778 37.1897C118.879 37.0966 118.99 37.0142 119.111 36.9426C119.233 36.871 119.369 36.8137 119.519 36.7708C119.67 36.7278 119.842 36.7063 120.035 36.7063C120.4 36.7063 120.683 36.7958 120.884 36.9749C121.091 37.1467 121.242 37.3652 121.335 37.6301C121.435 37.8879 121.496 38.1672 121.518 38.468C121.539 38.7688 121.55 39.0409 121.55 39.2844C121.55 39.4062 121.539 39.5888 121.518 39.8323C121.496 40.0686 121.46 40.3336 121.41 40.6272C121.367 40.9137 121.306 41.2109 121.227 41.5188C121.149 41.8196 121.056 42.0953 120.948 42.3459C120.841 42.5966 120.712 42.8007 120.561 42.9583C120.418 43.1158 120.254 43.1946 120.067 43.1946ZM124.654 43.2805C124.146 43.2805 123.748 43.2125 123.462 43.0764C123.183 42.9475 122.971 42.7613 122.828 42.5178C122.692 42.2743 122.61 41.9807 122.581 41.637C122.552 41.2932 122.538 40.9101 122.538 40.4875C122.538 40.151 122.549 39.8144 122.57 39.4778C122.592 39.134 122.624 38.7688 122.667 38.3821C122.567 38.3821 122.488 38.3857 122.431 38.3928C122.373 38.3928 122.327 38.3928 122.291 38.3928C122.062 38.3928 121.865 38.3427 121.7 38.2424C121.528 38.1422 121.442 37.9882 121.442 37.7805C121.442 37.6516 121.492 37.537 121.593 37.4368C121.686 37.3365 121.808 37.2506 121.958 37.179C122.108 37.1073 122.269 37.05 122.441 37.0071C122.62 36.9641 122.789 36.9355 122.946 36.9211C122.946 36.7206 122.961 36.4986 122.989 36.2551C123.018 36.0116 123.068 35.7861 123.14 35.5784C123.218 35.3635 123.322 35.1845 123.451 35.0413C123.58 34.898 123.745 34.8264 123.945 34.8264C124.06 34.8264 124.16 34.8622 124.246 34.9338C124.339 34.9983 124.414 35.0842 124.472 35.1917C124.529 35.2919 124.572 35.4065 124.601 35.5354C124.629 35.6643 124.643 35.7896 124.643 35.9114C124.643 36.0546 124.633 36.2014 124.611 36.3518C124.59 36.5022 124.55 36.6884 124.493 36.9104C124.615 36.8961 124.697 36.8889 124.74 36.8889C124.783 36.8818 124.823 36.8782 124.858 36.8782C124.98 36.8782 125.105 36.8889 125.234 36.9104C125.37 36.9319 125.492 36.9677 125.6 37.0178C125.714 37.068 125.807 37.136 125.879 37.2219C125.95 37.3007 125.986 37.3974 125.986 37.512C125.986 37.6409 125.933 37.7555 125.825 37.8557C125.725 37.956 125.596 38.0419 125.438 38.1135C125.281 38.1851 125.113 38.2424 124.934 38.2854C124.754 38.3212 124.586 38.3463 124.429 38.3606C124.386 38.6542 124.353 38.9264 124.332 39.177C124.318 39.4205 124.3 39.6676 124.278 39.9182C124.264 40.04 124.25 40.1653 124.235 40.2942C124.228 40.4159 124.225 40.5413 124.225 40.6702C124.225 40.7633 124.228 40.8743 124.235 41.0032C124.242 41.1249 124.268 41.2431 124.31 41.3577C124.353 41.4722 124.421 41.5725 124.515 41.6584C124.608 41.7372 124.737 41.7766 124.901 41.7766C125.002 41.7766 125.105 41.7694 125.213 41.7551C125.32 41.7336 125.428 41.7229 125.535 41.7229C125.721 41.7229 125.854 41.7874 125.933 41.9163C126.018 42.0452 126.061 42.2099 126.061 42.4104C126.061 42.5608 126.015 42.6933 125.922 42.8079C125.836 42.9153 125.725 43.0012 125.589 43.0657C125.453 43.1373 125.299 43.191 125.127 43.2268C124.962 43.2626 124.805 43.2805 124.654 43.2805ZM130.777 40.9817C130.777 41.2252 130.698 41.4651 130.541 41.7014C130.391 41.9306 130.197 42.1383 129.961 42.3245C129.732 42.5035 129.485 42.6503 129.22 42.7649C128.955 42.8723 128.711 42.926 128.489 42.926C128.11 42.926 127.769 42.8329 127.469 42.6467C127.175 42.4534 126.928 42.2099 126.727 41.9163C126.527 41.6226 126.373 41.3004 126.266 40.9495C126.165 40.5914 126.115 40.2441 126.115 39.9075C126.115 39.5494 126.165 39.1663 126.266 38.7581C126.366 38.3499 126.516 37.9739 126.717 37.6301C126.924 37.2864 127.182 36.9999 127.49 36.7708C127.805 36.5416 128.178 36.427 128.607 36.427C128.851 36.427 129.084 36.47 129.306 36.5559C129.528 36.6347 129.721 36.7493 129.886 36.8997C130.05 37.05 130.183 37.2291 130.283 37.4368C130.383 37.6444 130.434 37.8772 130.434 38.135C130.434 38.4716 130.362 38.7867 130.219 39.0803C130.075 39.3739 129.886 39.6282 129.649 39.843C129.413 40.0579 129.141 40.2333 128.833 40.3694C128.525 40.4983 128.21 40.5699 127.888 40.5842C127.916 40.7919 127.999 40.9423 128.135 41.0354C128.278 41.1285 128.446 41.175 128.64 41.175C128.783 41.175 128.922 41.1392 129.059 41.0676C129.195 40.996 129.327 40.9172 129.456 40.8313C129.585 40.7382 129.71 40.6558 129.832 40.5842C129.961 40.5126 130.09 40.4768 130.219 40.4768C130.362 40.4768 130.491 40.5234 130.605 40.6165C130.72 40.7096 130.777 40.8313 130.777 40.9817ZM129.037 38.3499C129.037 38.2568 129.012 38.1601 128.962 38.0598C128.912 37.9596 128.833 37.9094 128.726 37.9094C128.568 37.9094 128.435 37.9524 128.328 38.0383C128.221 38.1171 128.131 38.2209 128.059 38.3499C127.988 38.4716 127.931 38.6041 127.888 38.7473C127.852 38.8905 127.83 39.023 127.823 39.1448C127.923 39.1233 128.042 39.0946 128.178 39.0588C128.321 39.023 128.453 38.9765 128.575 38.9192C128.704 38.8547 128.811 38.776 128.897 38.6829C128.99 38.5898 129.037 38.4788 129.037 38.3499ZM134.258 43.1946C134.136 43.1946 134.039 43.1373 133.968 43.0227C133.896 42.9153 133.842 42.79 133.807 42.6467C133.771 42.5035 133.746 42.3603 133.731 42.217C133.724 42.0667 133.721 41.9521 133.721 41.8733C133.721 41.6584 133.731 41.4436 133.753 41.2288C133.781 41.0139 133.81 40.7991 133.839 40.5842C133.875 40.3694 133.903 40.1545 133.925 39.9397C133.953 39.7249 133.968 39.51 133.968 39.2952C133.968 39.2092 133.964 39.1161 133.957 39.0159C133.95 38.9156 133.932 38.8225 133.903 38.7366C133.882 38.6435 133.842 38.5683 133.785 38.511C133.728 38.4537 133.653 38.425 133.559 38.425C133.495 38.425 133.423 38.4788 133.345 38.5862C133.266 38.6864 133.191 38.8046 133.119 38.9407C133.055 39.0696 132.997 39.2021 132.947 39.3381C132.904 39.467 132.883 39.5637 132.883 39.6282C132.883 39.7857 132.883 39.9469 132.883 40.1116C132.89 40.2691 132.893 40.4303 132.893 40.595V41.218C132.886 41.3469 132.876 41.4794 132.861 41.6155C132.847 41.7515 132.825 41.884 132.797 42.0129C132.775 42.1418 132.743 42.2672 132.7 42.3889C132.657 42.5035 132.6 42.6073 132.528 42.7004C132.464 42.7864 132.385 42.858 132.292 42.9153C132.199 42.9726 132.088 43.0012 131.959 43.0012C131.816 43.0012 131.698 42.9547 131.604 42.8616C131.511 42.7685 131.436 42.6503 131.379 42.5071C131.322 42.3567 131.279 42.192 131.25 42.0129C131.228 41.8267 131.211 41.6477 131.196 41.4758C131.189 41.2968 131.185 41.1357 131.185 40.9924C131.193 40.842 131.196 40.7239 131.196 40.6379V40.1331C131.196 39.8609 131.189 39.5924 131.175 39.3274C131.168 39.0624 131.164 38.7974 131.164 38.5325C131.164 38.3892 131.164 38.2066 131.164 37.9846C131.171 37.7626 131.2 37.5478 131.25 37.3401C131.3 37.1252 131.382 36.9426 131.497 36.7922C131.612 36.6418 131.78 36.5667 132.002 36.5667C132.102 36.5667 132.192 36.5989 132.27 36.6633C132.349 36.7278 132.417 36.8066 132.475 36.8997C132.539 36.9928 132.589 37.093 132.625 37.2004C132.668 37.3079 132.7 37.401 132.722 37.4797C132.793 37.3795 132.876 37.2828 132.969 37.1897C133.069 37.0966 133.18 37.0142 133.302 36.9426C133.423 36.871 133.559 36.8137 133.71 36.7708C133.86 36.7278 134.032 36.7063 134.226 36.7063C134.591 36.7063 134.874 36.7958 135.074 36.9749C135.282 37.1467 135.432 37.3652 135.525 37.6301C135.626 37.8879 135.686 38.1672 135.708 38.468C135.729 38.7688 135.74 39.0409 135.74 39.2844C135.74 39.4062 135.729 39.5888 135.708 39.8323C135.686 40.0686 135.651 40.3336 135.601 40.6272C135.558 40.9137 135.497 41.2109 135.418 41.5188C135.339 41.8196 135.246 42.0953 135.139 42.3459C135.031 42.5966 134.902 42.8007 134.752 42.9583C134.609 43.1158 134.444 43.1946 134.258 43.1946ZM141.219 40.1116C141.219 40.2333 141.215 40.4159 141.208 40.6594C141.208 40.8958 141.197 41.1464 141.176 41.4114C141.161 41.6692 141.14 41.9163 141.111 42.1526C141.083 42.3818 141.047 42.55 141.004 42.6575C140.947 42.7935 140.871 42.9117 140.778 43.012C140.685 43.1122 140.56 43.1624 140.402 43.1624C140.159 43.1624 139.983 43.0657 139.876 42.8723C139.768 42.679 139.697 42.439 139.661 42.1526C139.625 41.8661 139.611 41.5546 139.618 41.218C139.625 40.8814 139.622 40.5699 139.607 40.2834C139.593 39.997 139.554 39.7571 139.489 39.5637C139.425 39.3704 139.307 39.2737 139.135 39.2737C138.898 39.2737 138.716 39.3131 138.587 39.3918C138.465 39.4635 138.376 39.5601 138.318 39.6819C138.268 39.8036 138.236 39.9433 138.222 40.1008C138.214 40.2584 138.204 40.4231 138.189 40.595C138.175 40.7597 138.164 40.9817 138.157 41.261C138.15 41.5403 138.118 41.816 138.06 42.0881C138.003 42.3603 137.906 42.5966 137.77 42.7971C137.642 42.9905 137.448 43.0872 137.19 43.0872C137.033 43.0872 136.904 43.0263 136.804 42.9045C136.711 42.7828 136.635 42.6252 136.578 42.4319C136.521 42.2385 136.478 42.0237 136.449 41.7874C136.428 41.551 136.413 41.3219 136.406 41.0999C136.406 40.8707 136.406 40.663 136.406 40.4768C136.413 40.2906 136.417 40.151 136.417 40.0579C136.417 39.9146 136.42 39.6783 136.428 39.3489C136.442 39.0194 136.467 38.6542 136.503 38.2532C136.539 37.845 136.585 37.426 136.643 36.9963C136.7 36.5667 136.775 36.1764 136.868 35.8254C136.961 35.4674 137.072 35.1773 137.201 34.9553C137.337 34.7333 137.495 34.6259 137.674 34.6331C137.788 34.6402 137.885 34.6903 137.964 34.7834C138.05 34.8765 138.118 34.9983 138.168 35.1487C138.225 35.2919 138.272 35.4495 138.308 35.6213C138.343 35.7932 138.368 35.9651 138.383 36.137C138.404 36.3017 138.415 36.4556 138.415 36.5989C138.422 36.7421 138.426 36.8531 138.426 36.9319C138.426 37.1181 138.422 37.3043 138.415 37.4905C138.408 37.6767 138.397 37.8629 138.383 38.0491C138.547 37.8271 138.766 37.6444 139.038 37.5012C139.317 37.358 139.597 37.2864 139.876 37.2864C140.234 37.2864 140.503 37.3866 140.682 37.5872C140.868 37.7805 141 38.024 141.079 38.3176C141.158 38.6041 141.201 38.912 141.208 39.2415C141.215 39.5637 141.219 39.8538 141.219 40.1116ZM144.022 43.2053C143.657 43.2053 143.338 43.1086 143.066 42.9153C142.794 42.7219 142.565 42.4749 142.379 42.1741C142.193 41.8733 142.053 41.5403 141.96 41.175C141.867 40.8027 141.82 40.4374 141.82 40.0793C141.82 39.6998 141.867 39.3095 141.96 38.9084C142.053 38.5002 142.196 38.1314 142.39 37.802C142.583 37.4654 142.83 37.1933 143.131 36.9856C143.432 36.7708 143.79 36.6633 144.205 36.6633C144.606 36.6633 144.946 36.7743 145.226 36.9963C145.512 37.2112 145.741 37.4833 145.913 37.8127C146.085 38.135 146.207 38.4895 146.278 38.8762C146.35 39.2629 146.375 39.6282 146.353 39.9719C146.332 40.3515 146.271 40.7346 146.171 41.1213C146.078 41.5081 145.938 41.8554 145.752 42.1633C145.566 42.4713 145.329 42.7219 145.043 42.9153C144.756 43.1086 144.416 43.2053 144.022 43.2053ZM144.13 38.3499C144.022 38.3499 143.926 38.4071 143.84 38.5217C143.761 38.6363 143.693 38.776 143.636 38.9407C143.586 39.1054 143.546 39.2808 143.518 39.467C143.489 39.6461 143.475 39.8036 143.475 39.9397C143.475 40.1116 143.489 40.2978 143.518 40.4983C143.553 40.6988 143.6 40.885 143.657 41.0569C143.714 41.2216 143.782 41.3612 143.861 41.4758C143.947 41.5833 144.044 41.637 144.151 41.637C144.266 41.637 144.363 41.5833 144.441 41.4758C144.527 41.3684 144.595 41.2323 144.645 41.0676C144.696 40.9029 144.731 40.7239 144.753 40.5305C144.774 40.33 144.785 40.1438 144.785 39.9719C144.785 39.8144 144.771 39.6425 144.742 39.4563C144.713 39.2629 144.67 39.0839 144.613 38.9192C144.563 38.7545 144.495 38.6184 144.409 38.511C144.33 38.4036 144.237 38.3499 144.13 38.3499ZM151.531 43.2053C151.166 43.2053 150.847 43.1086 150.575 42.9153C150.303 42.7219 150.074 42.4749 149.888 42.1741C149.701 41.8733 149.562 41.5403 149.469 41.175C149.376 40.8027 149.329 40.4374 149.329 40.0793C149.329 39.6998 149.376 39.3095 149.469 38.9084C149.562 38.5002 149.705 38.1314 149.898 37.802C150.092 37.4654 150.339 37.1933 150.64 36.9856C150.94 36.7708 151.298 36.6633 151.714 36.6633C152.115 36.6633 152.455 36.7743 152.734 36.9963C153.021 37.2112 153.25 37.4833 153.422 37.8127C153.594 38.135 153.715 38.4895 153.787 38.8762C153.859 39.2629 153.884 39.6282 153.862 39.9719C153.841 40.3515 153.78 40.7346 153.68 41.1213C153.587 41.5081 153.447 41.8554 153.261 42.1633C153.074 42.4713 152.838 42.7219 152.552 42.9153C152.265 43.1086 151.925 43.2053 151.531 43.2053ZM151.639 38.3499C151.531 38.3499 151.434 38.4071 151.349 38.5217C151.27 38.6363 151.202 38.776 151.144 38.9407C151.094 39.1054 151.055 39.2808 151.026 39.467C150.998 39.6461 150.983 39.8036 150.983 39.9397C150.983 40.1116 150.998 40.2978 151.026 40.4983C151.062 40.6988 151.109 40.885 151.166 41.0569C151.223 41.2216 151.291 41.3612 151.37 41.4758C151.456 41.5833 151.553 41.637 151.66 41.637C151.775 41.637 151.871 41.5833 151.95 41.4758C152.036 41.3684 152.104 41.2323 152.154 41.0676C152.204 40.9029 152.24 40.7239 152.262 40.5305C152.283 40.33 152.294 40.1438 152.294 39.9719C152.294 39.8144 152.28 39.6425 152.251 39.4563C152.222 39.2629 152.179 39.0839 152.122 38.9192C152.072 38.7545 152.004 38.6184 151.918 38.511C151.839 38.4036 151.746 38.3499 151.639 38.3499ZM44.8774 54.9817C44.8774 55.2252 44.7986 55.4651 44.641 55.7014C44.4906 55.9306 44.2973 56.1383 44.061 56.3245C43.8318 56.5035 43.5847 56.6503 43.3197 56.7649C43.0548 56.8723 42.8113 56.926 42.5893 56.926C42.2097 56.926 41.8696 56.8329 41.5688 56.6467C41.2752 56.4534 41.0281 56.2099 40.8276 55.9163C40.627 55.6226 40.4731 55.3004 40.3656 54.9495C40.2654 54.5914 40.2153 54.2441 40.2153 53.9075C40.2153 53.5494 40.2654 53.1663 40.3656 52.7581C40.4659 52.3499 40.6163 51.9739 40.8168 51.6301C41.0245 51.2864 41.2823 50.9999 41.5903 50.7708C41.9054 50.5416 42.2778 50.427 42.7074 50.427C42.9509 50.427 43.1837 50.47 43.4057 50.5559C43.6277 50.6347 43.8211 50.7493 43.9858 50.8997C44.1505 51.05 44.283 51.2291 44.3832 51.4368C44.4835 51.6444 44.5336 51.8772 44.5336 52.135C44.5336 52.4716 44.462 52.7867 44.3188 53.0803C44.1755 53.3739 43.9858 53.6282 43.7494 53.843C43.5131 54.0579 43.241 54.2333 42.933 54.3694C42.6251 54.4983 42.31 54.5699 41.9877 54.5842C42.0164 54.7919 42.0987 54.9423 42.2348 55.0354C42.378 55.1285 42.5463 55.175 42.7397 55.175C42.8829 55.175 43.0225 55.1392 43.1586 55.0676C43.2947 54.996 43.4272 54.9172 43.5561 54.8313C43.685 54.7382 43.8103 54.6558 43.9321 54.5842C44.061 54.5126 44.1899 54.4768 44.3188 54.4768C44.462 54.4768 44.5909 54.5234 44.7055 54.6165C44.8201 54.7096 44.8774 54.8313 44.8774 54.9817ZM43.1371 52.3499C43.1371 52.2568 43.1121 52.1601 43.0619 52.0598C43.0118 51.9596 42.933 51.9094 42.8256 51.9094C42.6681 51.9094 42.5356 51.9524 42.4281 52.0383C42.3207 52.1171 42.2312 52.2209 42.1596 52.3499C42.088 52.4716 42.0307 52.6041 41.9877 52.7473C41.9519 52.8905 41.9304 53.023 41.9233 53.1448C42.0235 53.1233 42.1417 53.0946 42.2778 53.0588C42.421 53.023 42.5535 52.9765 42.6752 52.9192C42.8041 52.8547 42.9115 52.776 42.9975 52.6829C43.0906 52.5898 43.1371 52.4788 43.1371 52.3499ZM50.3022 51.8987C50.2449 52.4215 50.1876 52.9407 50.1303 53.4563C50.073 53.9719 50.0336 54.4875 50.0121 55.0032C49.9763 55.5976 49.962 56.1597 49.9692 56.6897C49.9763 57.2196 49.9799 57.7818 49.9799 58.3762C49.9799 58.5194 49.9763 58.6949 49.9692 58.9026C49.9692 59.1103 49.9441 59.3108 49.894 59.5042C49.8438 59.6975 49.7615 59.8622 49.6469 59.9983C49.5395 60.1344 49.3748 60.2024 49.1528 60.2024C49.0453 60.2024 48.9522 60.1702 48.8735 60.1057C48.8018 60.0413 48.7374 59.9553 48.6801 59.8479C48.63 59.7476 48.587 59.6331 48.5512 59.5042C48.5225 59.3752 48.4975 59.2428 48.476 59.1067C48.4402 58.8274 48.4187 58.5481 48.4115 58.2688C48.4115 57.9967 48.4115 57.7961 48.4115 57.6672V56.8293V56.2278C48.2468 56.4426 48.032 56.6073 47.767 56.7219C47.5092 56.8293 47.2514 56.8831 46.9936 56.8831C46.6713 56.8831 46.392 56.8079 46.1557 56.6575C45.9265 56.4999 45.7367 56.303 45.5863 56.0667C45.436 55.8232 45.325 55.5582 45.2533 55.2717C45.1817 54.9853 45.1459 54.706 45.1459 54.4338V54.3694C45.1459 53.997 45.2032 53.5959 45.3178 53.1663C45.4324 52.7294 45.6007 52.3248 45.8227 51.9524C46.0518 51.58 46.3347 51.2721 46.6713 51.0286C47.0151 50.7779 47.4125 50.6526 47.8637 50.6526C48.1072 50.6526 48.3292 50.7027 48.5297 50.803C48.7374 50.9032 48.8842 51.068 48.9701 51.2971C49.0274 51.1324 49.1134 50.9999 49.228 50.8997C49.3497 50.7922 49.5037 50.7385 49.6899 50.7385C49.9262 50.7385 50.0909 50.8173 50.184 50.9749C50.2843 51.1252 50.3344 51.2935 50.3344 51.4797C50.3344 51.5585 50.3308 51.6301 50.3237 51.6946C50.3165 51.759 50.3093 51.8271 50.3022 51.8987ZM47.8315 52.1565C47.6668 52.1565 47.5128 52.2245 47.3696 52.3606C47.2263 52.4895 47.101 52.6506 46.9936 52.844C46.8862 53.0302 46.8002 53.2307 46.7358 53.4456C46.6785 53.6604 46.6498 53.8502 46.6498 54.0149C46.6498 54.1152 46.657 54.2226 46.6713 54.3372C46.6928 54.4517 46.7214 54.5627 46.7572 54.6702C46.8002 54.7704 46.8539 54.8564 46.9184 54.928C46.99 54.9924 47.0795 55.0247 47.1869 55.0247C47.28 55.0247 47.3875 55.0032 47.5092 54.9602C47.6381 54.9101 47.7634 54.8492 47.8852 54.7776C48.0069 54.6988 48.1143 54.6129 48.2074 54.5198C48.3005 54.4267 48.365 54.3372 48.4008 54.2512C48.4223 54.2011 48.4402 54.1259 48.4545 54.0256C48.4688 53.9254 48.4796 53.8215 48.4867 53.7141C48.5011 53.5995 48.5118 53.4885 48.519 53.3811C48.5261 53.2737 48.5297 53.1913 48.5297 53.134C48.5297 53.0481 48.5082 52.9514 48.4653 52.844C48.4294 52.7294 48.3793 52.622 48.3149 52.5217C48.2504 52.4143 48.1752 52.3284 48.0893 52.2639C48.0033 52.1923 47.9174 52.1565 47.8315 52.1565ZM55.5229 53.8215C55.5229 54.2154 55.4835 54.6057 55.4047 54.9924C55.3259 55.3792 55.1934 55.7265 55.0072 56.0344C54.8211 56.3352 54.5704 56.5787 54.2553 56.7649C53.9474 56.9511 53.5606 57.0442 53.0951 57.0442C52.6368 57.0442 52.2537 56.9547 51.9457 56.7756C51.6378 56.5894 51.3907 56.3459 51.2045 56.0452C51.0255 55.7444 50.8966 55.4042 50.8178 55.0247C50.7462 54.6451 50.7104 54.2584 50.7104 53.8645C50.7104 53.4348 50.7605 53.0087 50.8608 52.5862C50.8822 52.4716 50.9216 52.314 50.9789 52.1135C51.0434 51.9058 51.1222 51.7053 51.2153 51.512C51.3155 51.3114 51.4265 51.1396 51.5483 50.9963C51.6772 50.8531 51.8168 50.7815 51.9672 50.7815C52.1104 50.7815 52.225 50.8209 52.311 50.8997C52.3969 50.9784 52.4649 51.0787 52.5151 51.2004C52.5652 51.315 52.5974 51.4403 52.6117 51.5764C52.6261 51.7053 52.6332 51.8235 52.6332 51.9309C52.6332 52.0956 52.6189 52.2568 52.5903 52.4143C52.5688 52.5719 52.5437 52.7294 52.5151 52.887C52.4864 53.1018 52.4578 53.3167 52.4291 53.5315C52.4076 53.7463 52.3969 53.9612 52.3969 54.176C52.3969 54.2834 52.4005 54.4052 52.4076 54.5413C52.422 54.6702 52.4506 54.7955 52.4936 54.9172C52.5365 55.039 52.5974 55.1428 52.6762 55.2288C52.755 55.3075 52.866 55.3469 53.0092 55.3469C53.1954 55.3469 53.3422 55.2968 53.4496 55.1965C53.5642 55.0963 53.6466 54.9709 53.6967 54.8206C53.754 54.6702 53.7898 54.509 53.8041 54.3372C53.8184 54.1653 53.8256 54.0077 53.8256 53.8645C53.8256 53.5494 53.8041 53.2415 53.7612 52.9407C53.7182 52.6327 53.6788 52.3212 53.643 52.0061C53.6358 51.9703 53.6322 51.9202 53.6322 51.8557C53.6322 51.7483 53.6502 51.6409 53.686 51.5334C53.7218 51.426 53.7719 51.3293 53.8363 51.2434C53.9008 51.1575 53.9796 51.0894 54.0727 51.0393C54.1658 50.982 54.2696 50.9534 54.3842 50.9534C54.5418 50.9534 54.6814 51.0107 54.8031 51.1252C54.9249 51.2327 55.0252 51.3759 55.1039 51.5549C55.1899 51.7268 55.2579 51.9237 55.308 52.1458C55.3653 52.3606 55.4083 52.5754 55.4369 52.7903C55.4727 52.998 55.4942 53.1949 55.5014 53.3811C55.5157 53.5673 55.5229 53.7141 55.5229 53.8215ZM57.9506 49.3958C57.9506 49.496 57.922 49.5855 57.8647 49.6643C57.8145 49.7431 57.7465 49.8147 57.6606 49.8792C57.5746 49.9364 57.4815 49.983 57.3813 50.0188C57.281 50.0474 57.1879 50.0618 57.102 50.0618C56.9587 50.0618 56.8334 50.026 56.726 49.9543C56.6186 49.8827 56.5649 49.7717 56.5649 49.6213C56.5649 49.5139 56.5899 49.4208 56.6401 49.342C56.6974 49.2561 56.7654 49.1881 56.8442 49.1379C56.9229 49.0806 57.0125 49.0377 57.1127 49.009C57.213 48.9804 57.3097 48.9661 57.4028 48.9661C57.5388 48.9661 57.6641 48.9983 57.7787 49.0627C57.8933 49.1272 57.9506 49.2382 57.9506 49.3958ZM58.0365 53.0481C58.0365 53.1484 58.0365 53.2558 58.0365 53.3704C58.0365 53.4778 58.033 53.5816 58.0258 53.6819C58.0186 53.8036 58.0151 53.9683 58.0151 54.176C58.0151 54.3765 58.0079 54.595 57.9936 54.8313C57.9793 55.0676 57.9542 55.3075 57.9184 55.551C57.8897 55.7945 57.8396 56.0165 57.768 56.217C57.6964 56.4176 57.5997 56.5823 57.478 56.7112C57.3634 56.8329 57.2166 56.8974 57.0375 56.9045C56.9015 56.9117 56.7869 56.858 56.6938 56.7434C56.6007 56.6288 56.5219 56.482 56.4574 56.303C56.4002 56.1168 56.3572 55.9127 56.3285 55.6907C56.2999 55.4615 56.2784 55.2431 56.2641 55.0354C56.2498 54.8206 56.2426 54.6236 56.2426 54.4446C56.2426 54.2655 56.2426 54.1331 56.2426 54.0471C56.2426 53.9325 56.2426 53.7714 56.2426 53.5637C56.2426 53.3489 56.2498 53.1197 56.2641 52.8762C56.2784 52.6327 56.3035 52.3857 56.3393 52.135C56.3822 51.8844 56.4395 51.6552 56.5112 51.4475C56.5899 51.2398 56.6902 51.0715 56.8119 50.9426C56.9337 50.8137 57.0877 50.7493 57.2738 50.7493C57.4672 50.7493 57.614 50.8459 57.7143 51.0393C57.8145 51.2327 57.8897 51.4583 57.9399 51.7161C57.99 51.9739 58.0186 52.2317 58.0258 52.4895C58.033 52.7402 58.0365 52.9264 58.0365 53.0481ZM60.808 50.384C60.808 50.7708 60.7901 51.1611 60.7543 51.5549C60.7257 51.9417 60.7113 52.3319 60.7113 52.7258C60.7113 53.2343 60.7257 53.7428 60.7543 54.2512C60.7901 54.7597 60.808 55.2717 60.808 55.7874C60.808 55.9163 60.8009 56.0631 60.7865 56.2278C60.7722 56.3853 60.7364 56.5321 60.6791 56.6682C60.629 56.8043 60.5502 56.9189 60.4428 57.012C60.3354 57.1051 60.1921 57.1516 60.0131 57.1516C59.8412 57.1516 59.6908 57.0657 59.5619 56.8938C59.4402 56.7291 59.3363 56.5178 59.2504 56.26C59.1716 55.995 59.1036 55.7014 59.0463 55.3792C58.9962 55.0569 58.9568 54.7454 58.9281 54.4446C58.9067 54.1366 58.8888 53.8573 58.8744 53.6067C58.8673 53.3489 58.8637 53.1591 58.8637 53.0374C58.8637 52.9013 58.8673 52.7043 58.8744 52.4465C58.8888 52.1887 58.9138 51.9094 58.9496 51.6086C58.9854 51.3079 59.032 51.0035 59.0893 50.6956C59.1537 50.3805 59.2361 50.0976 59.3363 49.8469C59.4366 49.5891 59.5548 49.3814 59.6908 49.2239C59.8341 49.0592 60.0024 48.9768 60.1957 48.9768C60.3533 48.9768 60.4714 49.0305 60.5502 49.1379C60.6362 49.2382 60.697 49.3635 60.7328 49.5139C60.7686 49.6571 60.7901 49.8111 60.7973 49.9758C60.8044 50.1334 60.808 50.2694 60.808 50.384ZM63.4828 53.0481C63.4828 53.1484 63.4828 53.2558 63.4828 53.3704C63.4828 53.4778 63.4793 53.5816 63.4721 53.6819C63.4649 53.8036 63.4613 53.9683 63.4613 54.176C63.4613 54.3765 63.4542 54.595 63.4399 54.8313C63.4255 55.0676 63.4005 55.3075 63.3647 55.551C63.336 55.7945 63.2859 56.0165 63.2143 56.217C63.1427 56.4176 63.046 56.5823 62.9242 56.7112C62.8097 56.8329 62.6628 56.8974 62.4838 56.9045C62.3477 56.9117 62.2332 56.858 62.1401 56.7434C62.047 56.6288 61.9682 56.482 61.9037 56.303C61.8464 56.1168 61.8035 55.9127 61.7748 55.6907C61.7462 55.4615 61.7247 55.2431 61.7104 55.0354C61.6961 54.8206 61.6889 54.6236 61.6889 54.4446C61.6889 54.2655 61.6889 54.1331 61.6889 54.0471C61.6889 53.9325 61.6889 53.7714 61.6889 53.5637C61.6889 53.3489 61.6961 53.1197 61.7104 52.8762C61.7247 52.6327 61.7498 52.3857 61.7856 52.135C61.8285 51.8844 61.8858 51.6552 61.9574 51.4475C62.0362 51.2398 62.1365 51.0715 62.2582 50.9426C62.38 50.8137 62.5339 50.7493 62.7201 50.7493C62.9135 50.7493 63.0603 50.8459 63.1606 51.0393C63.2608 51.2327 63.336 51.4583 63.3862 51.7161C63.4363 51.9739 63.4649 52.2317 63.4721 52.4895C63.4793 52.7402 63.4828 52.9264 63.4828 53.0481ZM63.8803 48.762C63.8803 48.8407 63.8588 48.9195 63.8158 48.9983C63.7729 49.0699 63.7192 49.1379 63.6547 49.2024C63.5974 49.2668 63.533 49.3277 63.4613 49.385C63.3897 49.4351 63.3253 49.4817 63.268 49.5247C63.2179 49.5605 63.1606 49.6034 63.0961 49.6536C63.0388 49.6965 62.9744 49.7395 62.9028 49.7825C62.8383 49.8183 62.7703 49.8505 62.6987 49.8792C62.6342 49.9078 62.5697 49.9221 62.5053 49.9221C62.448 49.9221 62.3979 49.9078 62.3549 49.8792C62.3119 49.8433 62.2905 49.7932 62.2905 49.7288C62.2905 49.6213 62.3298 49.4924 62.4086 49.342C62.4946 49.1845 62.5984 49.0341 62.7201 48.8909C62.8419 48.7405 62.9708 48.6152 63.1069 48.5149C63.2429 48.4075 63.3683 48.3538 63.4828 48.3538C63.5831 48.3538 63.6726 48.3967 63.7514 48.4827C63.8373 48.5614 63.8803 48.6545 63.8803 48.762ZM69.3266 53.3489C69.3266 53.5566 69.3087 53.7929 69.2729 54.0579C69.2442 54.3157 69.1941 54.5806 69.1225 54.8528C69.058 55.1249 68.9685 55.3899 68.8539 55.6477C68.7465 55.9055 68.6104 56.1383 68.4457 56.3459C68.2882 56.5465 68.102 56.7076 67.8871 56.8293C67.6794 56.9511 67.436 57.012 67.1567 57.012C66.863 57.012 66.5945 56.9439 66.351 56.8079C66.1147 56.6718 65.9106 56.4856 65.7387 56.2493C65.7172 56.4426 65.6384 56.6145 65.5024 56.7649C65.3663 56.9081 65.1944 56.9797 64.9867 56.9797C64.865 56.9797 64.7612 56.9189 64.6752 56.7971C64.5964 56.6754 64.532 56.5214 64.4819 56.3352C64.4317 56.1418 64.3923 55.9306 64.3637 55.7014C64.3422 55.4722 64.3279 55.2502 64.3207 55.0354C64.3136 54.8206 64.31 54.6272 64.31 54.4553C64.31 54.2834 64.31 54.1617 64.31 54.0901C64.31 53.8466 64.31 53.6031 64.31 53.3596C64.3171 53.1161 64.3243 52.8691 64.3315 52.6184C64.3315 52.4967 64.3279 52.314 64.3207 52.0706C64.3207 51.8271 64.3243 51.5585 64.3315 51.2649C64.3386 50.9641 64.353 50.6597 64.3744 50.3518C64.4031 50.0367 64.4496 49.7502 64.5141 49.4924C64.5785 49.2346 64.6681 49.0234 64.7826 48.8586C64.8972 48.6939 65.044 48.608 65.2231 48.6008C65.3663 48.6008 65.488 48.651 65.5883 48.7512C65.6886 48.8515 65.7709 48.984 65.8354 49.1487C65.907 49.3134 65.9607 49.4996 65.9965 49.7073C66.0395 49.9078 66.0681 50.1119 66.0824 50.3196C66.1039 50.5201 66.1147 50.7135 66.1147 50.8997C66.1218 51.0787 66.1254 51.2255 66.1254 51.3401C66.1254 51.3616 66.1218 51.4117 66.1147 51.4905C66.1147 51.5621 66.1147 51.6409 66.1147 51.7268C66.1147 51.8127 66.1147 51.8915 66.1147 51.9631C66.1147 52.0276 66.1147 52.0634 66.1147 52.0706C66.1791 51.9345 66.2722 51.802 66.394 51.6731C66.5157 51.5442 66.6518 51.4296 66.8022 51.3293C66.9526 51.2291 67.1101 51.1467 67.2748 51.0823C67.4395 51.0178 67.5971 50.9856 67.7475 50.9856C68.0483 50.9856 68.2989 51.0644 68.4994 51.2219C68.7071 51.3723 68.8718 51.5657 68.9936 51.802C69.1153 52.0383 69.2013 52.2961 69.2514 52.5754C69.3015 52.8476 69.3266 53.1054 69.3266 53.3489ZM67.7475 53.6711C67.7475 53.5852 67.7403 53.4921 67.726 53.3918C67.7188 53.2916 67.6938 53.1985 67.6508 53.1125C67.615 53.0266 67.5613 52.955 67.4897 52.8977C67.4252 52.8404 67.3393 52.8118 67.2319 52.8118C67.1173 52.8118 67.0027 52.8368 66.8881 52.887C66.7807 52.9371 66.6768 53.0015 66.5766 53.0803C66.4763 53.1591 66.3832 53.245 66.2973 53.3381C66.2113 53.4241 66.1362 53.51 66.0717 53.5959L65.9643 54.552C66.0789 54.7167 66.2185 54.8492 66.3832 54.9495C66.5479 55.0426 66.7341 55.0891 66.9418 55.0891C67.0994 55.0891 67.2283 55.039 67.3285 54.9387C67.436 54.8385 67.5183 54.7167 67.5756 54.5735C67.6401 54.4231 67.683 54.2655 67.7045 54.1008C67.7332 53.9361 67.7475 53.7929 67.7475 53.6711ZM73.7094 52.8762C73.6091 52.8834 73.5232 52.8762 73.4516 52.8547C73.38 52.8261 73.3084 52.7974 73.2367 52.7688C73.1723 52.7402 73.1078 52.7151 73.0434 52.6936C72.9789 52.665 72.9073 52.6542 72.8285 52.6614C72.6853 52.6685 72.5564 52.7079 72.4418 52.7795C72.3344 52.8512 72.2341 52.9407 72.141 53.0481C72.0551 53.1555 71.9799 53.2773 71.9155 53.4133C71.851 53.5422 71.8009 53.6711 71.7651 53.8C71.7436 53.886 71.7257 54.0185 71.7113 54.1975C71.7042 54.3694 71.7006 54.5556 71.7006 54.7561C71.6934 54.9638 71.6899 55.1607 71.6899 55.3469C71.6899 55.5331 71.6827 55.6799 71.6684 55.7874C71.6612 55.9019 71.6433 56.038 71.6147 56.1956C71.586 56.3459 71.5395 56.4892 71.475 56.6252C71.4177 56.7613 71.339 56.8759 71.2387 56.969C71.1384 57.0621 71.0095 57.1086 70.852 57.1086C70.7302 57.1086 70.6228 57.0728 70.5297 57.0012C70.4438 56.9296 70.3686 56.8365 70.3041 56.7219C70.2468 56.6002 70.1967 56.4605 70.1537 56.303C70.1179 56.1454 70.0893 55.9843 70.0678 55.8196C70.0463 55.6477 70.0284 55.4758 70.0141 55.304C70.0069 55.1321 69.9998 54.9709 69.9926 54.8206C69.9926 54.663 69.9926 54.5198 69.9926 54.3909C69.9998 54.262 70.0033 54.1581 70.0033 54.0793C69.9962 53.8287 69.9819 53.578 69.9604 53.3274C69.9461 53.0696 69.9389 52.8153 69.9389 52.5647C69.9389 52.4071 69.9461 52.2317 69.9604 52.0383C69.9747 51.845 70.0141 51.6659 70.0785 51.5012C70.143 51.3293 70.2361 51.1861 70.3578 51.0715C70.4867 50.9569 70.6622 50.8997 70.8842 50.8997C71.0059 50.8997 71.1098 50.939 71.1957 51.0178C71.2817 51.0966 71.3497 51.1933 71.3998 51.3079C71.4571 51.4224 71.5001 51.5442 71.5287 51.6731C71.5574 51.802 71.5753 51.9202 71.5824 52.0276C71.7543 51.7483 71.9477 51.5227 72.1625 51.3508C72.3774 51.1718 72.6567 51.0751 73.0004 51.0608C73.1723 51.0536 73.3406 51.0715 73.5053 51.1145C73.6772 51.1503 73.8311 51.2148 73.9672 51.3079C74.1104 51.3938 74.225 51.5084 74.311 51.6516C74.4041 51.7948 74.4542 51.9631 74.4613 52.1565C74.4757 52.3857 74.4076 52.5611 74.2572 52.6829C74.1069 52.8046 73.9242 52.8691 73.7094 52.8762ZM76.3949 49.3958C76.3949 49.496 76.3663 49.5855 76.309 49.6643C76.2589 49.7431 76.1908 49.8147 76.1049 49.8792C76.019 49.9364 75.9259 49.983 75.8256 50.0188C75.7253 50.0474 75.6322 50.0618 75.5463 50.0618C75.4031 50.0618 75.2778 50.026 75.1703 49.9543C75.0629 49.8827 75.0092 49.7717 75.0092 49.6213C75.0092 49.5139 75.0343 49.4208 75.0844 49.342C75.1417 49.2561 75.2097 49.1881 75.2885 49.1379C75.3673 49.0806 75.4568 49.0377 75.5571 49.009C75.6573 48.9804 75.754 48.9661 75.8471 48.9661C75.9832 48.9661 76.1085 48.9983 76.2231 49.0627C76.3377 49.1272 76.3949 49.2382 76.3949 49.3958ZM76.4809 53.0481C76.4809 53.1484 76.4809 53.2558 76.4809 53.3704C76.4809 53.4778 76.4773 53.5816 76.4701 53.6819C76.463 53.8036 76.4594 53.9683 76.4594 54.176C76.4594 54.3765 76.4522 54.595 76.4379 54.8313C76.4236 55.0676 76.3985 55.3075 76.3627 55.551C76.3341 55.7945 76.2839 56.0165 76.2123 56.217C76.1407 56.4176 76.044 56.5823 75.9223 56.7112C75.8077 56.8329 75.6609 56.8974 75.4819 56.9045C75.3458 56.9117 75.2312 56.858 75.1381 56.7434C75.045 56.6288 74.9662 56.482 74.9018 56.303C74.8445 56.1168 74.8015 55.9127 74.7729 55.6907C74.7442 55.4615 74.7227 55.2431 74.7084 55.0354C74.6941 54.8206 74.6869 54.6236 74.6869 54.4446C74.6869 54.2655 74.6869 54.1331 74.6869 54.0471C74.6869 53.9325 74.6869 53.7714 74.6869 53.5637C74.6869 53.3489 74.6941 53.1197 74.7084 52.8762C74.7227 52.6327 74.7478 52.3857 74.7836 52.135C74.8266 51.8844 74.8839 51.6552 74.9555 51.4475C75.0343 51.2398 75.1345 51.0715 75.2563 50.9426C75.378 50.8137 75.532 50.7493 75.7182 50.7493C75.9115 50.7493 76.0584 50.8459 76.1586 51.0393C76.2589 51.2327 76.3341 51.4583 76.3842 51.7161C76.4343 51.9739 76.463 52.2317 76.4701 52.4895C76.4773 52.7402 76.4809 52.9264 76.4809 53.0481ZM79.2846 57.2053C78.9194 57.2053 78.6007 57.1086 78.3285 56.9153C78.0564 56.7219 77.8272 56.4749 77.641 56.1741C77.4548 55.8733 77.3152 55.5403 77.2221 55.175C77.129 54.8027 77.0824 54.4374 77.0824 54.0793C77.0824 53.6998 77.129 53.3095 77.2221 52.9084C77.3152 52.5002 77.4584 52.1314 77.6518 51.802C77.8451 51.4654 78.0922 51.1933 78.393 50.9856C78.6938 50.7708 79.0518 50.6633 79.4672 50.6633C79.8683 50.6633 80.2084 50.7743 80.4877 50.9963C80.7742 51.2112 81.0033 51.4833 81.1752 51.8127C81.3471 52.135 81.4688 52.4895 81.5405 52.8762C81.6121 53.2629 81.6371 53.6282 81.6156 53.9719C81.5942 54.3515 81.5333 54.7346 81.433 55.1213C81.3399 55.5081 81.2003 55.8554 81.0141 56.1633C80.8279 56.4713 80.5916 56.7219 80.3051 56.9153C80.0186 57.1086 79.6785 57.2053 79.2846 57.2053ZM79.392 52.3499C79.2846 52.3499 79.1879 52.4071 79.102 52.5217C79.0232 52.6363 78.9552 52.776 78.8979 52.9407C78.8477 53.1054 78.8084 53.2808 78.7797 53.467C78.7511 53.6461 78.7367 53.8036 78.7367 53.9397C78.7367 54.1116 78.7511 54.2978 78.7797 54.4983C78.8155 54.6988 78.8621 54.885 78.9194 55.0569C78.9766 55.2216 79.0447 55.3612 79.1235 55.4758C79.2094 55.5833 79.3061 55.637 79.4135 55.637C79.5281 55.637 79.6248 55.5833 79.7035 55.4758C79.7895 55.3684 79.8575 55.2323 79.9076 55.0676C79.9578 54.9029 79.9936 54.7239 80.0151 54.5305C80.0365 54.33 80.0473 54.1438 80.0473 53.9719C80.0473 53.8144 80.033 53.6425 80.0043 53.4563C79.9757 53.2629 79.9327 53.0839 79.8754 52.9192C79.8253 52.7545 79.7572 52.6184 79.6713 52.511C79.5925 52.4036 79.4994 52.3499 79.392 52.3499ZM89.3178 55.3792C89.3178 55.5081 89.3106 55.6764 89.2963 55.884C89.2891 56.0917 89.2605 56.2958 89.2104 56.4963C89.1602 56.6897 89.0815 56.858 88.974 57.0012C88.8666 57.1444 88.7162 57.2161 88.5229 57.2161C88.2579 57.2161 88.0538 57.1301 87.9106 56.9583C87.7673 56.7864 87.6993 56.5715 87.7065 56.3137C87.4773 56.5142 87.2159 56.6718 86.9223 56.7864C86.6358 56.901 86.3422 56.9583 86.0414 56.9583C85.8337 56.9583 85.6368 56.9081 85.4506 56.8079C85.2644 56.7076 85.0997 56.5787 84.9565 56.4211C84.8132 56.2636 84.6987 56.0881 84.6127 55.8948C84.5268 55.6943 84.4838 55.4973 84.4838 55.304C84.4838 54.9602 84.5877 54.6594 84.7953 54.4016C85.0102 54.1438 85.2716 53.9254 85.5795 53.7463C85.8875 53.5601 86.2133 53.4133 86.5571 53.3059C86.908 53.1985 87.2195 53.1269 87.4916 53.0911C87.4916 53.0553 87.4916 53.023 87.4916 52.9944C87.4988 52.9657 87.5024 52.9335 87.5024 52.8977C87.5024 52.6757 87.4415 52.4967 87.3197 52.3606C87.198 52.2245 87.0261 52.1565 86.8041 52.1565C86.6251 52.1565 86.4711 52.1887 86.3422 52.2532C86.2133 52.3105 86.0916 52.3785 85.977 52.4573C85.8624 52.5289 85.7478 52.5969 85.6332 52.6614C85.5186 52.7187 85.3897 52.7473 85.2465 52.7473C85.089 52.7473 84.9529 52.6972 84.8383 52.5969C84.7309 52.4967 84.6772 52.3678 84.6772 52.2102C84.6772 51.9739 84.7452 51.759 84.8813 51.5657C85.0245 51.3723 85.2 51.2112 85.4076 51.0823C85.6225 50.9462 85.8516 50.8424 86.0951 50.7708C86.3458 50.692 86.575 50.6526 86.7826 50.6526C86.976 50.6526 87.1694 50.6777 87.3627 50.7278C87.5561 50.7708 87.7387 50.8424 87.9106 50.9426C88.0824 51.0357 88.2364 51.1539 88.3725 51.2971C88.5157 51.4332 88.6303 51.5943 88.7162 51.7805C88.8451 52.0455 88.949 52.3284 89.0278 52.6292C89.1065 52.9228 89.1674 53.2271 89.2104 53.5422C89.2533 53.8502 89.282 54.1617 89.2963 54.4768C89.3106 54.7847 89.3178 55.0855 89.3178 55.3792ZM87.599 55.0354L87.5668 54.3049C87.5525 54.3049 87.5382 54.3049 87.5238 54.3049C87.5095 54.2978 87.4952 54.2942 87.4809 54.2942C87.3878 54.2942 87.2696 54.3193 87.1264 54.3694C86.9903 54.4124 86.8578 54.4768 86.7289 54.5627C86.6 54.6415 86.489 54.731 86.3959 54.8313C86.31 54.9316 86.267 55.0354 86.267 55.1428C86.267 55.2431 86.3028 55.3111 86.3744 55.3469C86.4461 55.3827 86.5284 55.4006 86.6215 55.4006C86.7791 55.4006 86.9474 55.3612 87.1264 55.2825C87.3054 55.1965 87.463 55.1142 87.599 55.0354ZM92.0033 57.2053C91.6381 57.2053 91.3194 57.1086 91.0473 56.9153C90.7752 56.7219 90.546 56.4749 90.3598 56.1741C90.1736 55.8733 90.0339 55.5403 89.9408 55.175C89.8477 54.8027 89.8012 54.4374 89.8012 54.0793C89.8012 53.6998 89.8477 53.3095 89.9408 52.9084C90.0339 52.5002 90.1772 52.1314 90.3705 51.802C90.5639 51.4654 90.811 51.1933 91.1117 50.9856C91.4125 50.7708 91.7706 50.6633 92.186 50.6633C92.587 50.6633 92.9272 50.7743 93.2065 50.9963C93.4929 51.2112 93.7221 51.4833 93.894 51.8127C94.0658 52.135 94.1876 52.4895 94.2592 52.8762C94.3308 53.2629 94.3559 53.6282 94.3344 53.9719C94.3129 54.3515 94.252 54.7346 94.1518 55.1213C94.0587 55.5081 93.919 55.8554 93.7328 56.1633C93.5466 56.4713 93.3103 56.7219 93.0238 56.9153C92.7374 57.1086 92.3972 57.2053 92.0033 57.2053ZM92.1108 52.3499C92.0033 52.3499 91.9067 52.4071 91.8207 52.5217C91.7419 52.6363 91.6739 52.776 91.6166 52.9407C91.5665 53.1054 91.5271 53.2808 91.4985 53.467C91.4698 53.6461 91.4555 53.8036 91.4555 53.9397C91.4555 54.1116 91.4698 54.2978 91.4985 54.4983C91.5343 54.6988 91.5808 54.885 91.6381 55.0569C91.6954 55.2216 91.7634 55.3612 91.8422 55.4758C91.9281 55.5833 92.0248 55.637 92.1322 55.637C92.2468 55.637 92.3435 55.5833 92.4223 55.4758C92.5082 55.3684 92.5763 55.2323 92.6264 55.0676C92.6765 54.9029 92.7123 54.7239 92.7338 54.5305C92.7553 54.33 92.766 54.1438 92.766 53.9719C92.766 53.8144 92.7517 53.6425 92.7231 53.4563C92.6944 53.2629 92.6515 53.0839 92.5942 52.9192C92.544 52.7545 92.476 52.6184 92.3901 52.511C92.3113 52.4036 92.2182 52.3499 92.1108 52.3499ZM99.4799 50.384C99.4799 50.7708 99.462 51.1611 99.4262 51.5549C99.3975 51.9417 99.3832 52.3319 99.3832 52.7258C99.3832 53.2343 99.3975 53.7428 99.4262 54.2512C99.462 54.7597 99.4799 55.2717 99.4799 55.7874C99.4799 55.9163 99.4727 56.0631 99.4584 56.2278C99.4441 56.3853 99.4083 56.5321 99.351 56.6682C99.3009 56.8043 99.2221 56.9189 99.1147 57.012C99.0072 57.1051 98.864 57.1516 98.685 57.1516C98.5131 57.1516 98.3627 57.0657 98.2338 56.8938C98.1121 56.7291 98.0082 56.5178 97.9223 56.26C97.8435 55.995 97.7755 55.7014 97.7182 55.3792C97.6681 55.0569 97.6287 54.7454 97.6 54.4446C97.5785 54.1366 97.5606 53.8573 97.5463 53.6067C97.5391 53.3489 97.5356 53.1591 97.5356 53.0374C97.5356 52.9013 97.5391 52.7043 97.5463 52.4465C97.5606 52.1887 97.5857 51.9094 97.6215 51.6086C97.6573 51.3079 97.7039 51.0035 97.7612 50.6956C97.8256 50.3805 97.908 50.0976 98.0082 49.8469C98.1085 49.5891 98.2266 49.3814 98.3627 49.2239C98.5059 49.0592 98.6742 48.9768 98.8676 48.9768C99.0252 48.9768 99.1433 49.0305 99.2221 49.1379C99.308 49.2382 99.3689 49.3635 99.4047 49.5139C99.4405 49.6571 99.462 49.8111 99.4692 49.9758C99.4763 50.1334 99.4799 50.2694 99.4799 50.384ZM102.337 57.2053C101.972 57.2053 101.653 57.1086 101.381 56.9153C101.109 56.7219 100.88 56.4749 100.694 56.1741C100.508 55.8733 100.368 55.5403 100.275 55.175C100.182 54.8027 100.135 54.4374 100.135 54.0793C100.135 53.6998 100.182 53.3095 100.275 52.9084C100.368 52.5002 100.511 52.1314 100.705 51.802C100.898 51.4654 101.145 51.1933 101.446 50.9856C101.747 50.7708 102.105 50.6633 102.52 50.6633C102.921 50.6633 103.261 50.7743 103.54 50.9963C103.827 51.2112 104.056 51.4833 104.228 51.8127C104.4 52.135 104.522 52.4895 104.593 52.8762C104.665 53.2629 104.69 53.6282 104.668 53.9719C104.647 54.3515 104.586 54.7346 104.486 55.1213C104.393 55.5081 104.253 55.8554 104.067 56.1633C103.881 56.4713 103.644 56.7219 103.358 56.9153C103.071 57.1086 102.731 57.2053 102.337 57.2053ZM102.445 52.3499C102.337 52.3499 102.241 52.4071 102.155 52.5217C102.076 52.6363 102.008 52.776 101.951 52.9407C101.9 53.1054 101.861 53.2808 101.832 53.467C101.804 53.6461 101.789 53.8036 101.789 53.9397C101.789 54.1116 101.804 54.2978 101.832 54.4983C101.868 54.6988 101.915 54.885 101.972 55.0569C102.029 55.2216 102.097 55.3612 102.176 55.4758C102.262 55.5833 102.359 55.637 102.466 55.637C102.581 55.637 102.677 55.5833 102.756 55.4758C102.842 55.3684 102.91 55.2323 102.96 55.0676C103.011 54.9029 103.046 54.7239 103.068 54.5305C103.089 54.33 103.1 54.1438 103.1 53.9719C103.1 53.8144 103.086 53.6425 103.057 53.4563C103.028 53.2629 102.985 53.0839 102.928 52.9192C102.878 52.7545 102.81 52.6184 102.724 52.511C102.645 52.4036 102.552 52.3499 102.445 52.3499ZM108.267 57.1946C108.145 57.1946 108.049 57.1373 107.977 57.0227C107.905 56.9153 107.852 56.79 107.816 56.6467C107.78 56.5035 107.755 56.3603 107.741 56.217C107.733 56.0667 107.73 55.9521 107.73 55.8733C107.73 55.6584 107.741 55.4436 107.762 55.2288C107.791 55.0139 107.819 54.7991 107.848 54.5842C107.884 54.3694 107.913 54.1545 107.934 53.9397C107.963 53.7249 107.977 53.51 107.977 53.2952C107.977 53.2092 107.973 53.1161 107.966 53.0159C107.959 52.9156 107.941 52.8225 107.913 52.7366C107.891 52.6435 107.852 52.5683 107.794 52.511C107.737 52.4537 107.662 52.425 107.569 52.425C107.504 52.425 107.433 52.4788 107.354 52.5862C107.275 52.6864 107.2 52.8046 107.128 52.9407C107.064 53.0696 107.007 53.2021 106.956 53.3381C106.913 53.467 106.892 53.5637 106.892 53.6282C106.892 53.7857 106.892 53.9469 106.892 54.1116C106.899 54.2691 106.903 54.4303 106.903 54.595V55.218C106.896 55.3469 106.885 55.4794 106.871 55.6155C106.856 55.7515 106.835 55.884 106.806 56.0129C106.785 56.1418 106.752 56.2672 106.709 56.3889C106.666 56.5035 106.609 56.6073 106.538 56.7004C106.473 56.7864 106.394 56.858 106.301 56.9153C106.208 56.9726 106.097 57.0012 105.968 57.0012C105.825 57.0012 105.707 56.9547 105.614 56.8616C105.521 56.7685 105.445 56.6503 105.388 56.5071C105.331 56.3567 105.288 56.192 105.259 56.0129C105.238 55.8267 105.22 55.6477 105.205 55.4758C105.198 55.2968 105.195 55.1357 105.195 54.9924C105.202 54.842 105.205 54.7239 105.205 54.6379V54.1331C105.205 53.8609 105.198 53.5924 105.184 53.3274C105.177 53.0624 105.173 52.7974 105.173 52.5325C105.173 52.3892 105.173 52.2066 105.173 51.9846C105.18 51.7626 105.209 51.5478 105.259 51.3401C105.309 51.1252 105.392 50.9426 105.506 50.7922C105.621 50.6418 105.789 50.5667 106.011 50.5667C106.111 50.5667 106.201 50.5989 106.28 50.6633C106.358 50.7278 106.427 50.8066 106.484 50.8997C106.548 50.9928 106.598 51.093 106.634 51.2004C106.677 51.3079 106.709 51.401 106.731 51.4797C106.802 51.3795 106.885 51.2828 106.978 51.1897C107.078 51.0966 107.189 51.0142 107.311 50.9426C107.433 50.871 107.569 50.8137 107.719 50.7708C107.87 50.7278 108.041 50.7063 108.235 50.7063C108.6 50.7063 108.883 50.7958 109.083 50.9749C109.291 51.1467 109.441 51.3652 109.535 51.6301C109.635 51.8879 109.696 52.1672 109.717 52.468C109.739 52.7688 109.749 53.0409 109.749 53.2844C109.749 53.4062 109.739 53.5888 109.717 53.8323C109.696 54.0686 109.66 54.3336 109.61 54.6272C109.567 54.9137 109.506 55.2109 109.427 55.5188C109.348 55.8196 109.255 56.0953 109.148 56.3459C109.04 56.5966 108.912 56.8007 108.761 56.9583C108.618 57.1158 108.453 57.1946 108.267 57.1946ZM115.217 53.2307C115.217 53.5959 115.21 53.9612 115.196 54.3264C115.189 54.6917 115.171 55.0569 115.142 55.4221C115.121 55.7372 115.092 56.0738 115.056 56.4319C115.02 56.79 114.963 57.1444 114.884 57.4954C114.805 57.8534 114.702 58.1936 114.573 58.5159C114.444 58.8453 114.272 59.1353 114.057 59.386C113.849 59.6366 113.595 59.8372 113.294 59.9875C112.994 60.1379 112.636 60.2131 112.22 60.2131C112.027 60.2131 111.808 60.1809 111.565 60.1165C111.329 60.0592 111.103 59.9732 110.888 59.8586C110.68 59.7441 110.501 59.6008 110.351 59.429C110.208 59.2642 110.136 59.0709 110.136 58.8489C110.136 58.6842 110.193 58.5302 110.308 58.387C110.43 58.2509 110.584 58.1829 110.77 58.1829C110.885 58.1829 110.992 58.2008 111.092 58.2366C111.2 58.2795 111.303 58.3261 111.404 58.3762C111.511 58.4264 111.611 58.4693 111.705 58.5051C111.805 58.5481 111.905 58.5696 112.005 58.5696C112.27 58.5696 112.492 58.5015 112.671 58.3655C112.85 58.2366 112.994 58.0683 113.101 57.8606C113.208 57.6601 113.287 57.4381 113.337 57.1946C113.395 56.9583 113.434 56.7327 113.455 56.5178C113.312 56.6825 113.144 56.7971 112.951 56.8616C112.764 56.9189 112.567 56.9475 112.36 56.9475C111.98 56.9475 111.658 56.8831 111.393 56.7542C111.128 56.6181 110.913 56.4355 110.748 56.2063C110.584 55.97 110.462 55.6978 110.383 55.3899C110.304 55.0819 110.265 54.7489 110.265 54.3909C110.265 54.1689 110.287 53.9182 110.33 53.6389C110.38 53.3596 110.451 53.0767 110.544 52.7903C110.637 52.5038 110.752 52.2245 110.888 51.9524C111.031 51.6803 111.196 51.4403 111.382 51.2327C111.568 51.025 111.776 50.8567 112.005 50.7278C112.242 50.5989 112.499 50.5344 112.779 50.5344C113.051 50.5344 113.291 50.6132 113.498 50.7708C113.713 50.9283 113.839 51.1503 113.874 51.4368C113.953 51.2864 114.057 51.1396 114.186 50.9963C114.315 50.8459 114.472 50.7708 114.659 50.7708C114.759 50.7708 114.841 50.8209 114.906 50.9211C114.977 51.0214 115.031 51.1539 115.067 51.3186C115.11 51.4762 115.142 51.6516 115.163 51.845C115.185 52.0312 115.199 52.2174 115.206 52.4036C115.214 52.5826 115.217 52.7473 115.217 52.8977C115.217 53.0481 115.217 53.1591 115.217 53.2307ZM113.584 53.929C113.584 53.8215 113.566 53.6819 113.531 53.51C113.502 53.3381 113.455 53.1734 113.391 53.0159C113.334 52.8583 113.259 52.7222 113.165 52.6077C113.072 52.4931 112.961 52.4358 112.832 52.4358C112.668 52.4358 112.521 52.4931 112.392 52.6077C112.27 52.7222 112.166 52.8619 112.08 53.0266C111.995 53.1842 111.927 53.356 111.876 53.5422C111.833 53.7213 111.812 53.8752 111.812 54.0042C111.812 54.0972 111.819 54.2226 111.833 54.3801C111.848 54.5377 111.876 54.6917 111.919 54.842C111.969 54.9924 112.034 55.1213 112.113 55.2288C112.191 55.3362 112.295 55.3899 112.424 55.3899C112.618 55.3899 112.786 55.3433 112.929 55.2502C113.072 55.1571 113.191 55.039 113.284 54.8958C113.384 54.7525 113.459 54.595 113.509 54.4231C113.559 54.2512 113.584 54.0865 113.584 53.929ZM118.021 57.2053C117.656 57.2053 117.337 57.1086 117.065 56.9153C116.793 56.7219 116.564 56.4749 116.377 56.1741C116.191 55.8733 116.052 55.5403 115.958 55.175C115.865 54.8027 115.819 54.4374 115.819 54.0793C115.819 53.6998 115.865 53.3095 115.958 52.9084C116.052 52.5002 116.195 52.1314 116.388 51.802C116.581 51.4654 116.829 51.1933 117.129 50.9856C117.43 50.7708 117.788 50.6633 118.204 50.6633C118.605 50.6633 118.945 50.7743 119.224 50.9963C119.511 51.2112 119.74 51.4833 119.912 51.8127C120.083 52.135 120.205 52.4895 120.277 52.8762C120.348 53.2629 120.373 53.6282 120.352 53.9719C120.33 54.3515 120.27 54.7346 120.169 55.1213C120.076 55.5081 119.937 55.8554 119.75 56.1633C119.564 56.4713 119.328 56.7219 119.041 56.9153C118.755 57.1086 118.415 57.2053 118.021 57.2053ZM118.128 52.3499C118.021 52.3499 117.924 52.4071 117.838 52.5217C117.76 52.6363 117.691 52.776 117.634 52.9407C117.584 53.1054 117.545 53.2808 117.516 53.467C117.487 53.6461 117.473 53.8036 117.473 53.9397C117.473 54.1116 117.487 54.2978 117.516 54.4983C117.552 54.6988 117.598 54.885 117.656 55.0569C117.713 55.2216 117.781 55.3612 117.86 55.4758C117.946 55.5833 118.042 55.637 118.15 55.637C118.264 55.637 118.361 55.5833 118.44 55.4758C118.526 55.3684 118.594 55.2323 118.644 55.0676C118.694 54.9029 118.73 54.7239 118.751 54.5305C118.773 54.33 118.784 54.1438 118.784 53.9719C118.784 53.8144 118.769 53.6425 118.741 53.4563C118.712 53.2629 118.669 53.0839 118.612 52.9192C118.562 52.7545 118.494 52.6184 118.408 52.511C118.329 52.4036 118.236 52.3499 118.128 52.3499ZM128.119 49.8254C128.119 50.3482 128.097 50.8674 128.054 51.3831C128.018 51.8987 128 52.4179 128 52.9407C128 53.3632 128.011 53.7821 128.033 54.1975C128.061 54.6129 128.076 55.0318 128.076 55.4543C128.076 55.5689 128.072 55.7086 128.065 55.8733C128.058 56.0308 128.033 56.1848 127.99 56.3352C127.954 56.4856 127.889 56.6145 127.796 56.7219C127.71 56.8293 127.585 56.8831 127.42 56.8831C127.205 56.8831 127.026 56.8043 126.883 56.6467C126.747 56.482 126.661 56.2994 126.625 56.0989C126.489 56.3567 126.292 56.5751 126.035 56.7542C125.777 56.9332 125.497 57.0227 125.197 57.0227C124.874 57.0227 124.595 56.9117 124.359 56.6897C124.13 56.4677 123.936 56.1991 123.779 55.884C123.628 55.5689 123.514 55.2395 123.435 54.8958C123.363 54.552 123.328 54.2548 123.328 54.0042C123.328 53.8251 123.338 53.621 123.36 53.3918C123.381 53.1627 123.417 52.9299 123.467 52.6936C123.525 52.4573 123.596 52.2281 123.682 52.0061C123.768 51.7769 123.875 51.5728 124.004 51.3938C124.14 51.2148 124.298 51.0715 124.477 50.9641C124.663 50.8567 124.874 50.803 125.111 50.803C125.369 50.803 125.616 50.8782 125.852 51.0286C126.088 51.179 126.267 51.3652 126.389 51.5872L126.486 49.8792C126.493 49.7431 126.504 49.5855 126.518 49.4065C126.532 49.2203 126.561 49.0448 126.604 48.8801C126.654 48.7154 126.729 48.5758 126.83 48.4612C126.93 48.3466 127.077 48.2893 127.27 48.2893C127.478 48.2893 127.639 48.3394 127.753 48.4397C127.868 48.54 127.95 48.6689 128 48.8264C128.058 48.9768 128.09 49.1415 128.097 49.3206C128.111 49.4996 128.119 49.6679 128.119 49.8254ZM126.368 54.595C126.368 54.4303 126.364 54.2691 126.357 54.1116C126.35 53.954 126.35 53.7929 126.357 53.6282C126.314 53.5351 126.264 53.4348 126.206 53.3274C126.149 53.2128 126.078 53.109 125.992 53.0159C125.913 52.9156 125.823 52.8333 125.723 52.7688C125.623 52.7043 125.515 52.6721 125.401 52.6721C125.272 52.6721 125.168 52.7115 125.089 52.7903C125.011 52.8691 124.953 52.9657 124.917 53.0803C124.882 53.1877 124.857 53.3059 124.842 53.4348C124.835 53.5637 124.831 53.6747 124.831 53.7678C124.831 53.8538 124.839 53.9827 124.853 54.1545C124.867 54.3193 124.892 54.4875 124.928 54.6594C124.971 54.8313 125.028 54.9817 125.1 55.1106C125.172 55.2395 125.268 55.304 125.39 55.304C125.483 55.304 125.576 55.2861 125.669 55.2502C125.762 55.2073 125.848 55.1571 125.927 55.0999C126.013 55.0354 126.092 54.9674 126.163 54.8958C126.242 54.817 126.31 54.7454 126.368 54.6809V54.595ZM130.869 57.2053C130.503 57.2053 130.185 57.1086 129.913 56.9153C129.64 56.7219 129.411 56.4749 129.225 56.1741C129.039 55.8733 128.899 55.5403 128.806 55.175C128.713 54.8027 128.666 54.4374 128.666 54.0793C128.666 53.6998 128.713 53.3095 128.806 52.9084C128.899 52.5002 129.042 52.1314 129.236 51.802C129.429 51.4654 129.676 51.1933 129.977 50.9856C130.278 50.7708 130.636 50.6633 131.051 50.6633C131.452 50.6633 131.792 50.7743 132.072 50.9963C132.358 51.2112 132.587 51.4833 132.759 51.8127C132.931 52.135 133.053 52.4895 133.124 52.8762C133.196 53.2629 133.221 53.6282 133.2 53.9719C133.178 54.3515 133.117 54.7346 133.017 55.1213C132.924 55.5081 132.784 55.8554 132.598 56.1633C132.412 56.4713 132.176 56.7219 131.889 56.9153C131.603 57.1086 131.262 57.2053 130.869 57.2053ZM130.976 52.3499C130.869 52.3499 130.772 52.4071 130.686 52.5217C130.607 52.6363 130.539 52.776 130.482 52.9407C130.432 53.1054 130.392 53.2808 130.364 53.467C130.335 53.6461 130.321 53.8036 130.321 53.9397C130.321 54.1116 130.335 54.2978 130.364 54.4983C130.4 54.6988 130.446 54.885 130.503 55.0569C130.561 55.2216 130.629 55.3612 130.707 55.4758C130.793 55.5833 130.89 55.637 130.997 55.637C131.112 55.637 131.209 55.5833 131.288 55.4758C131.373 55.3684 131.441 55.2323 131.492 55.0676C131.542 54.9029 131.578 54.7239 131.599 54.5305C131.621 54.33 131.631 54.1438 131.631 53.9719C131.631 53.8144 131.617 53.6425 131.588 53.4563C131.56 53.2629 131.517 53.0839 131.459 52.9192C131.409 52.7545 131.341 52.6184 131.255 52.511C131.177 52.4036 131.083 52.3499 130.976 52.3499ZM140.966 49.8254C140.966 50.3482 140.945 50.8674 140.902 51.3831C140.866 51.8987 140.848 52.4179 140.848 52.9407C140.848 53.3632 140.859 53.7821 140.88 54.1975C140.909 54.6129 140.923 55.0318 140.923 55.4543C140.923 55.5689 140.92 55.7086 140.913 55.8733C140.905 56.0308 140.88 56.1848 140.837 56.3352C140.802 56.4856 140.737 56.6145 140.644 56.7219C140.558 56.8293 140.433 56.8831 140.268 56.8831C140.053 56.8831 139.874 56.8043 139.731 56.6467C139.595 56.482 139.509 56.2994 139.473 56.0989C139.337 56.3567 139.14 56.5751 138.882 56.7542C138.624 56.9332 138.345 57.0227 138.044 57.0227C137.722 57.0227 137.443 56.9117 137.206 56.6897C136.977 56.4677 136.784 56.1991 136.626 55.884C136.476 55.5689 136.361 55.2395 136.283 54.8958C136.211 54.552 136.175 54.2548 136.175 54.0042C136.175 53.8251 136.186 53.621 136.207 53.3918C136.229 53.1627 136.265 52.9299 136.315 52.6936C136.372 52.4573 136.444 52.2281 136.53 52.0061C136.616 51.7769 136.723 51.5728 136.852 51.3938C136.988 51.2148 137.146 51.0715 137.325 50.9641C137.511 50.8567 137.722 50.803 137.958 50.803C138.216 50.803 138.463 50.8782 138.7 51.0286C138.936 51.179 139.115 51.3652 139.237 51.5872L139.333 49.8792C139.341 49.7431 139.351 49.5855 139.366 49.4065C139.38 49.2203 139.409 49.0448 139.452 48.8801C139.502 48.7154 139.577 48.5758 139.677 48.4612C139.777 48.3466 139.924 48.2893 140.118 48.2893C140.325 48.2893 140.486 48.3394 140.601 48.4397C140.716 48.54 140.798 48.6689 140.848 48.8264C140.905 48.9768 140.938 49.1415 140.945 49.3206C140.959 49.4996 140.966 49.6679 140.966 49.8254ZM139.215 54.595C139.215 54.4303 139.212 54.2691 139.205 54.1116C139.197 53.954 139.197 53.7929 139.205 53.6282C139.162 53.5351 139.111 53.4348 139.054 53.3274C138.997 53.2128 138.925 53.109 138.839 53.0159C138.761 52.9156 138.671 52.8333 138.571 52.7688C138.47 52.7043 138.363 52.6721 138.248 52.6721C138.12 52.6721 138.016 52.7115 137.937 52.7903C137.858 52.8691 137.801 52.9657 137.765 53.0803C137.729 53.1877 137.704 53.3059 137.69 53.4348C137.683 53.5637 137.679 53.6747 137.679 53.7678C137.679 53.8538 137.686 53.9827 137.701 54.1545C137.715 54.3193 137.74 54.4875 137.776 54.6594C137.819 54.8313 137.876 54.9817 137.948 55.1106C138.019 55.2395 138.116 55.304 138.238 55.304C138.331 55.304 138.424 55.2861 138.517 55.2502C138.61 55.2073 138.696 55.1571 138.775 55.0999C138.861 55.0354 138.94 54.9674 139.011 54.8958C139.09 54.817 139.158 54.7454 139.215 54.6809V54.595ZM143.448 49.3958C143.448 49.496 143.419 49.5855 143.362 49.6643C143.312 49.7431 143.244 49.8147 143.158 49.8792C143.072 49.9364 142.979 49.983 142.878 50.0188C142.778 50.0474 142.685 50.0618 142.599 50.0618C142.456 50.0618 142.33 50.026 142.223 49.9543C142.116 49.8827 142.062 49.7717 142.062 49.6213C142.062 49.5139 142.087 49.4208 142.137 49.342C142.194 49.2561 142.262 49.1881 142.341 49.1379C142.42 49.0806 142.51 49.0377 142.61 49.009C142.71 48.9804 142.807 48.9661 142.9 48.9661C143.036 48.9661 143.161 48.9983 143.276 49.0627C143.39 49.1272 143.448 49.2382 143.448 49.3958ZM143.534 53.0481C143.534 53.1484 143.534 53.2558 143.534 53.3704C143.534 53.4778 143.53 53.5816 143.523 53.6819C143.516 53.8036 143.512 53.9683 143.512 54.176C143.512 54.3765 143.505 54.595 143.491 54.8313C143.476 55.0676 143.451 55.3075 143.415 55.551C143.387 55.7945 143.337 56.0165 143.265 56.217C143.193 56.4176 143.097 56.5823 142.975 56.7112C142.86 56.8329 142.714 56.8974 142.535 56.9045C142.399 56.9117 142.284 56.858 142.191 56.7434C142.098 56.6288 142.019 56.482 141.955 56.303C141.897 56.1168 141.854 55.9127 141.826 55.6907C141.797 55.4615 141.775 55.2431 141.761 55.0354C141.747 54.8206 141.74 54.6236 141.74 54.4446C141.74 54.2655 141.74 54.1331 141.74 54.0471C141.74 53.9325 141.74 53.7714 141.74 53.5637C141.74 53.3489 141.747 53.1197 141.761 52.8762C141.775 52.6327 141.801 52.3857 141.836 52.135C141.879 51.8844 141.937 51.6552 142.008 51.4475C142.087 51.2398 142.187 51.0715 142.309 50.9426C142.431 50.8137 142.585 50.7493 142.771 50.7493C142.964 50.7493 143.111 50.8459 143.211 51.0393C143.312 51.2327 143.387 51.4583 143.437 51.7161C143.487 51.9739 143.516 52.2317 143.523 52.4895C143.53 52.7402 143.534 52.9264 143.534 53.0481ZM148.862 55.3792C148.862 55.5081 148.855 55.6764 148.84 55.884C148.833 56.0917 148.804 56.2958 148.754 56.4963C148.704 56.6897 148.625 56.858 148.518 57.0012C148.411 57.1444 148.26 57.2161 148.067 57.2161C147.802 57.2161 147.598 57.1301 147.455 56.9583C147.311 56.7864 147.243 56.5715 147.25 56.3137C147.021 56.5142 146.76 56.6718 146.466 56.7864C146.18 56.901 145.886 56.9583 145.585 56.9583C145.378 56.9583 145.181 56.9081 144.995 56.8079C144.808 56.7076 144.644 56.5787 144.5 56.4211C144.357 56.2636 144.243 56.0881 144.157 55.8948C144.071 55.6943 144.028 55.4973 144.028 55.304C144.028 54.9602 144.132 54.6594 144.339 54.4016C144.554 54.1438 144.816 53.9254 145.123 53.7463C145.431 53.5601 145.757 53.4133 146.101 53.3059C146.452 53.1985 146.763 53.1269 147.036 53.0911C147.036 53.0553 147.036 53.023 147.036 52.9944C147.043 52.9657 147.046 52.9335 147.046 52.8977C147.046 52.6757 146.985 52.4967 146.864 52.3606C146.742 52.2245 146.57 52.1565 146.348 52.1565C146.169 52.1565 146.015 52.1887 145.886 52.2532C145.757 52.3105 145.636 52.3785 145.521 52.4573C145.406 52.5289 145.292 52.5969 145.177 52.6614C145.063 52.7187 144.934 52.7473 144.79 52.7473C144.633 52.7473 144.497 52.6972 144.382 52.5969C144.275 52.4967 144.221 52.3678 144.221 52.2102C144.221 51.9739 144.289 51.759 144.425 51.5657C144.568 51.3723 144.744 51.2112 144.952 51.0823C145.166 50.9462 145.396 50.8424 145.639 50.7708C145.89 50.692 146.119 50.6526 146.327 50.6526C146.52 50.6526 146.713 50.6777 146.907 50.7278C147.1 50.7708 147.283 50.8424 147.455 50.9426C147.626 51.0357 147.78 51.1539 147.916 51.2971C148.06 51.4332 148.174 51.5943 148.26 51.7805C148.389 52.0455 148.493 52.3284 148.572 52.6292C148.65 52.9228 148.711 53.2271 148.754 53.5422C148.797 53.8502 148.826 54.1617 148.84 54.4768C148.855 54.7847 148.862 55.0855 148.862 55.3792ZM147.143 55.0354L147.111 54.3049C147.096 54.3049 147.082 54.3049 147.068 54.3049C147.053 54.2978 147.039 54.2942 147.025 54.2942C146.932 54.2942 146.814 54.3193 146.67 54.3694C146.534 54.4124 146.402 54.4768 146.273 54.5627C146.144 54.6415 146.033 54.731 145.94 54.8313C145.854 54.9316 145.811 55.0354 145.811 55.1428C145.811 55.2431 145.847 55.3111 145.918 55.3469C145.99 55.3827 146.072 55.4006 146.165 55.4006C146.323 55.4006 146.491 55.3612 146.67 55.2825C146.849 55.1965 147.007 55.1142 147.143 55.0354ZM151.064 56.3782C151.064 56.4713 151.042 56.5572 150.999 56.636C150.956 56.7076 150.899 56.7685 150.828 56.8186C150.763 56.8687 150.688 56.9081 150.602 56.9368C150.523 56.9654 150.441 56.9797 150.355 56.9797C150.247 56.9797 150.129 56.9583 150 56.9153C149.879 56.8795 149.764 56.8258 149.657 56.7542C149.556 56.6825 149.47 56.6002 149.399 56.5071C149.327 56.4068 149.291 56.2958 149.291 56.1741C149.291 55.9807 149.374 55.8375 149.538 55.7444C149.703 55.6441 149.872 55.594 150.043 55.594C150.151 55.594 150.262 55.6119 150.376 55.6477C150.498 55.6835 150.609 55.7372 150.709 55.8088C150.817 55.8733 150.903 55.9556 150.967 56.0559C151.032 56.149 151.064 56.2564 151.064 56.3782Z" fill="white"/>
<defs>
<filter id="filter0_i_876_313" x="0" y="15.885" width="190.208" height="95.1152" filterUnits="userSpaceOnUse" color-interpolation-filters="sRGB">
<feFlood flood-opacity="0" result="BackgroundImageFix"/>
<feBlend mode="normal" in="SourceGraphic" in2="BackgroundImageFix" result="shape"/>
<feColorMatrix in="SourceAlpha" type="matrix" values="0 0 0 0 0 0 0 0 0 0 0 0 0 0 0 0 0 0 127 0" result="hardAlpha"/>
<feOffset dy="4"/>
<feGaussianBlur stdDeviation="2"/>
<feComposite in2="hardAlpha" operator="arithmetic" k2="-1" k3="1"/>
<feColorMatrix type="matrix" values="0 0 0 0 0 0 0 0 0 0 0 0 0 0 0 0 0 0 0.25 0"/>
<feBlend mode="normal" in2="shape" result="effect1_innerShadow_876_313"/>
</filter>
</defs>
</svg>
