<svg width="276" height="438" viewBox="0 0 276 438" fill="none" xmlns="http://www.w3.org/2000/svg">
<g filter="url(#filter0_i_829_194)">
<path fill-rule="evenodd" clip-rule="evenodd" d="M168.118 135.107C156.096 130.384 150.849 123.414 150.849 115.87C150.849 106.587 161.433 97.4171 178.941 92.8831C187.433 90.684 197.41 89.7261 208.873 89.7261C243.972 89.7261 276.339 99.197 274.957 115.87C274.957 124.142 268.967 131.75 256.767 136.291C250.185 138.741 241.877 140.199 231.504 140.665C226.49 149.421 218.046 155.408 205.118 164.32C214.03 154.527 219.808 147.875 221.681 140.949C197.872 142.163 179.798 139.696 168.118 135.107Z" fill="#F4719C"/>
</g>
<path d="M168.118 135.107L167.752 136.038L168.118 135.107ZM178.941 92.8831L179.191 93.8512L179.191 93.8512L178.941 92.8831ZM274.957 115.87L273.961 115.787C273.959 115.814 273.957 115.842 273.957 115.87H274.957ZM256.767 136.291L256.418 135.354L256.418 135.354L256.767 136.291ZM231.504 140.665L231.459 139.666C231.117 139.681 230.806 139.871 230.636 140.168L231.504 140.665ZM205.118 164.32L204.378 163.647C204.036 164.023 204.03 164.596 204.364 164.978C204.699 165.361 205.267 165.432 205.685 165.144L205.118 164.32ZM221.681 140.949L222.646 141.21C222.73 140.9 222.66 140.57 222.459 140.321C222.258 140.071 221.95 139.933 221.63 139.95L221.681 140.949ZM149.849 115.87C149.849 123.99 155.529 131.236 167.752 136.038L168.484 134.176C156.664 129.533 151.849 122.838 151.849 115.87H149.849ZM178.69 91.915C169.835 94.2081 162.667 97.6888 157.69 101.827C152.721 105.958 149.849 110.828 149.849 115.87H151.849C151.849 111.629 154.269 107.272 158.969 103.365C163.661 99.4635 170.538 96.0921 179.191 93.8512L178.69 91.915ZM208.873 88.7261C197.361 88.7261 187.292 89.6874 178.69 91.915L179.191 93.8512C187.573 91.6805 197.459 90.7261 208.873 90.7261V88.7261ZM275.954 115.952C276.33 111.408 274.387 107.411 270.841 104.027C267.313 100.662 262.157 97.8557 255.935 95.6053C243.485 91.1014 226.494 88.7261 208.873 88.7261V90.7261C226.351 90.7261 243.093 93.0863 255.255 97.486C261.34 99.6873 266.211 102.375 269.46 105.474C272.691 108.556 274.275 111.995 273.961 115.787L275.954 115.952ZM257.116 137.228C269.536 132.605 275.957 124.717 275.957 115.87H273.957C273.957 123.568 268.397 130.894 256.418 135.354L257.116 137.228ZM231.549 141.664C241.984 141.195 250.404 139.727 257.116 137.228L256.418 135.354C249.967 137.755 241.77 139.202 231.459 139.666L231.549 141.664ZM230.636 140.168C225.757 148.689 217.529 154.549 204.55 163.497L205.685 165.144C218.563 156.266 227.223 150.154 232.371 141.162L230.636 140.168ZM205.857 164.993C210.309 160.102 214.015 155.955 216.841 152.156C219.67 148.354 221.663 144.844 222.646 141.21L220.715 140.687C219.825 143.98 217.993 147.258 215.237 150.962C212.478 154.669 208.839 158.745 204.378 163.647L205.857 164.993ZM167.752 136.038C179.617 140.699 197.851 143.166 221.732 141.947L221.63 139.95C197.894 141.161 179.979 138.693 168.484 134.176L167.752 136.038Z" fill="#F4719C"/>
<path d="M195.371 113.103C195.371 113.455 195.327 113.85 195.24 114.29C195.152 114.719 195.039 115.159 194.903 115.608C194.776 116.057 194.634 116.497 194.478 116.926C194.331 117.346 194.2 117.727 194.082 118.069C194.004 118.284 193.916 118.552 193.819 118.875C193.731 119.187 193.623 119.519 193.496 119.871C193.379 120.222 193.247 120.574 193.101 120.925C192.954 121.277 192.793 121.594 192.617 121.878C192.442 122.151 192.246 122.376 192.032 122.551C191.826 122.727 191.602 122.815 191.358 122.815C191.153 122.815 190.952 122.722 190.757 122.537C190.572 122.351 190.391 122.117 190.215 121.834C190.049 121.541 189.888 121.218 189.732 120.867C189.585 120.506 189.449 120.154 189.322 119.812C189.204 119.47 189.102 119.153 189.014 118.86C188.936 118.567 188.877 118.342 188.838 118.186C188.643 117.424 188.457 116.658 188.282 115.886C188.106 115.105 188.018 114.324 188.018 113.543C188.018 113.347 188.028 113.147 188.047 112.942C188.067 112.727 188.116 112.532 188.194 112.356C188.272 112.18 188.379 112.039 188.516 111.931C188.662 111.814 188.863 111.756 189.117 111.756C189.331 111.756 189.527 111.878 189.702 112.122C189.888 112.356 190.054 112.664 190.2 113.045C190.347 113.425 190.479 113.85 190.596 114.319C190.723 114.788 190.84 115.252 190.948 115.711C191.055 116.16 191.158 116.585 191.255 116.985C191.353 117.376 191.45 117.688 191.548 117.923C191.607 117.727 191.69 117.444 191.797 117.073C191.914 116.692 192.046 116.277 192.193 115.828C192.349 115.379 192.515 114.92 192.691 114.451C192.876 113.972 193.067 113.543 193.262 113.162C193.467 112.771 193.677 112.454 193.892 112.21C194.107 111.965 194.326 111.843 194.551 111.843C194.717 111.843 194.854 111.882 194.961 111.961C195.069 112.039 195.152 112.141 195.21 112.268C195.269 112.395 195.308 112.532 195.327 112.678C195.357 112.825 195.371 112.966 195.371 113.103ZM201.817 120.735C201.817 120.911 201.807 121.14 201.787 121.423C201.778 121.707 201.739 121.985 201.67 122.258C201.602 122.522 201.494 122.752 201.348 122.947C201.201 123.142 200.996 123.24 200.733 123.24C200.371 123.24 200.093 123.123 199.898 122.888C199.702 122.654 199.61 122.361 199.619 122.009C199.307 122.283 198.95 122.498 198.55 122.654C198.159 122.81 197.759 122.888 197.349 122.888C197.066 122.888 196.797 122.82 196.543 122.683C196.289 122.547 196.065 122.371 195.869 122.156C195.674 121.941 195.518 121.702 195.401 121.438C195.283 121.165 195.225 120.896 195.225 120.632C195.225 120.164 195.367 119.754 195.65 119.402C195.943 119.05 196.299 118.753 196.719 118.508C197.139 118.255 197.583 118.054 198.052 117.908C198.531 117.761 198.955 117.664 199.326 117.615C199.326 117.566 199.326 117.522 199.326 117.483C199.336 117.444 199.341 117.4 199.341 117.351C199.341 117.048 199.258 116.804 199.092 116.619C198.926 116.433 198.692 116.34 198.389 116.34C198.145 116.34 197.935 116.384 197.759 116.472C197.583 116.55 197.417 116.643 197.261 116.751C197.105 116.848 196.949 116.941 196.792 117.029C196.636 117.107 196.46 117.146 196.265 117.146C196.05 117.146 195.865 117.078 195.708 116.941C195.562 116.804 195.489 116.629 195.489 116.414C195.489 116.091 195.581 115.798 195.767 115.535C195.962 115.271 196.201 115.051 196.485 114.876C196.778 114.69 197.09 114.548 197.422 114.451C197.764 114.343 198.076 114.29 198.36 114.29C198.623 114.29 198.887 114.324 199.151 114.392C199.414 114.451 199.663 114.548 199.898 114.685C200.132 114.812 200.342 114.973 200.528 115.169C200.723 115.354 200.879 115.574 200.996 115.828C201.172 116.189 201.314 116.575 201.421 116.985C201.529 117.385 201.612 117.8 201.67 118.23C201.729 118.65 201.768 119.075 201.787 119.505C201.807 119.924 201.817 120.335 201.817 120.735ZM199.473 120.266L199.429 119.27C199.409 119.27 199.39 119.27 199.37 119.27C199.351 119.26 199.331 119.256 199.312 119.256C199.185 119.256 199.024 119.29 198.828 119.358C198.643 119.417 198.462 119.505 198.286 119.622C198.111 119.729 197.959 119.851 197.832 119.988C197.715 120.125 197.657 120.266 197.657 120.413C197.657 120.549 197.705 120.642 197.803 120.691C197.901 120.74 198.013 120.764 198.14 120.764C198.355 120.764 198.584 120.711 198.828 120.603C199.073 120.486 199.287 120.374 199.473 120.266ZM211.587 117.966C211.587 118.152 211.587 118.406 211.587 118.728C211.587 119.041 211.577 119.382 211.558 119.754C211.548 120.125 211.519 120.501 211.47 120.882C211.421 121.253 211.343 121.59 211.236 121.892C211.138 122.195 211.011 122.444 210.855 122.639C210.699 122.835 210.498 122.932 210.254 122.932C210.039 122.932 209.873 122.844 209.756 122.669C209.649 122.483 209.571 122.268 209.522 122.024C209.473 121.78 209.444 121.531 209.434 121.277C209.434 121.023 209.434 120.823 209.434 120.676C209.434 120.237 209.449 119.807 209.478 119.387C209.507 118.967 209.522 118.538 209.522 118.098C209.522 118.049 209.522 117.962 209.522 117.835C209.522 117.708 209.512 117.581 209.492 117.454C209.473 117.327 209.439 117.215 209.39 117.117C209.351 117.019 209.287 116.97 209.2 116.97C209.024 116.97 208.882 117.063 208.775 117.249C208.667 117.424 208.579 117.634 208.511 117.879C208.443 118.123 208.394 118.367 208.365 118.611C208.335 118.845 208.316 119.021 208.306 119.138C208.286 119.265 208.267 119.456 208.247 119.71C208.238 119.964 208.218 120.242 208.189 120.545C208.169 120.847 208.13 121.16 208.072 121.482C208.023 121.795 207.954 122.083 207.867 122.346C207.788 122.6 207.686 122.81 207.559 122.976C207.432 123.142 207.276 123.225 207.09 123.225C206.856 123.225 206.675 123.123 206.548 122.918C206.421 122.713 206.328 122.473 206.27 122.2C206.211 121.926 206.172 121.648 206.153 121.365C206.143 121.082 206.138 120.862 206.138 120.706C206.138 120.54 206.138 120.379 206.138 120.222C206.148 120.066 206.153 119.905 206.153 119.739C206.153 119.671 206.153 119.558 206.153 119.402C206.153 119.246 206.148 119.075 206.138 118.889C206.138 118.694 206.128 118.494 206.109 118.289C206.099 118.084 206.079 117.898 206.05 117.732C206.021 117.556 205.977 117.415 205.918 117.307C205.86 117.2 205.791 117.146 205.713 117.146C205.586 117.146 205.469 117.229 205.362 117.395C205.254 117.551 205.161 117.742 205.083 117.966C205.005 118.181 204.942 118.396 204.893 118.611C204.854 118.826 204.834 118.982 204.834 119.08V119.168C204.834 119.636 204.864 120.095 204.922 120.545C204.981 120.994 205.01 121.453 205.01 121.922C205.01 122.195 204.922 122.449 204.746 122.683C204.571 122.908 204.326 123.02 204.014 123.02C203.789 123.02 203.604 122.937 203.457 122.771C203.311 122.595 203.189 122.371 203.091 122.097C202.993 121.824 202.915 121.526 202.857 121.204C202.808 120.872 202.774 120.549 202.754 120.237C202.735 119.915 202.72 119.627 202.71 119.373C202.71 119.109 202.71 118.914 202.71 118.787C202.71 118.64 202.705 118.425 202.696 118.142C202.696 117.859 202.7 117.551 202.71 117.219C202.73 116.887 202.759 116.55 202.798 116.209C202.837 115.857 202.901 115.54 202.989 115.257C203.076 114.973 203.189 114.744 203.325 114.568C203.472 114.382 203.658 114.29 203.882 114.29C204.136 114.29 204.341 114.358 204.497 114.495C204.663 114.632 204.746 114.837 204.746 115.11C204.746 115.169 204.742 115.227 204.732 115.286C204.732 115.344 204.727 115.398 204.717 115.447C204.825 115.291 204.956 115.134 205.113 114.978C205.269 114.812 205.435 114.666 205.611 114.539C205.796 114.402 205.992 114.295 206.197 114.216C206.402 114.129 206.607 114.085 206.812 114.085C207.007 114.085 207.183 114.138 207.339 114.246C207.495 114.353 207.632 114.49 207.749 114.656C207.867 114.812 207.964 114.983 208.042 115.169C208.12 115.354 208.174 115.53 208.203 115.696C208.301 115.52 208.418 115.344 208.555 115.169C208.701 114.983 208.858 114.822 209.024 114.685C209.19 114.548 209.37 114.436 209.566 114.348C209.771 114.26 209.981 114.216 210.196 114.216C210.401 114.216 210.576 114.29 210.723 114.436C210.869 114.583 210.996 114.773 211.104 115.007C211.211 115.232 211.294 115.491 211.353 115.784C211.411 116.067 211.46 116.35 211.499 116.633C211.538 116.907 211.563 117.166 211.573 117.41C211.582 117.644 211.587 117.83 211.587 117.966ZM215.337 123.225C214.839 123.225 214.405 123.093 214.033 122.83C213.662 122.566 213.35 122.229 213.096 121.819C212.842 121.409 212.652 120.955 212.525 120.457C212.398 119.949 212.334 119.451 212.334 118.963C212.334 118.445 212.398 117.913 212.525 117.366C212.652 116.809 212.847 116.306 213.111 115.857C213.374 115.398 213.711 115.027 214.121 114.744C214.532 114.451 215.02 114.304 215.586 114.304C216.133 114.304 216.597 114.456 216.978 114.758C217.368 115.051 217.681 115.423 217.915 115.872C218.15 116.311 218.316 116.795 218.413 117.322C218.511 117.849 218.545 118.347 218.516 118.816C218.487 119.334 218.404 119.856 218.267 120.383C218.14 120.911 217.95 121.384 217.696 121.804C217.442 122.224 217.119 122.566 216.729 122.83C216.338 123.093 215.874 123.225 215.337 123.225ZM215.484 116.604C215.337 116.604 215.205 116.682 215.088 116.839C214.981 116.995 214.888 117.185 214.81 117.41C214.742 117.634 214.688 117.874 214.649 118.128C214.61 118.372 214.59 118.587 214.59 118.772C214.59 119.007 214.61 119.26 214.649 119.534C214.698 119.807 214.761 120.061 214.839 120.296C214.917 120.52 215.01 120.711 215.117 120.867C215.235 121.013 215.367 121.087 215.513 121.087C215.669 121.087 215.801 121.013 215.908 120.867C216.026 120.72 216.118 120.535 216.187 120.31C216.255 120.086 216.304 119.841 216.333 119.578C216.363 119.304 216.377 119.05 216.377 118.816C216.377 118.601 216.358 118.367 216.319 118.113C216.28 117.849 216.221 117.605 216.143 117.381C216.075 117.156 215.982 116.97 215.865 116.824C215.757 116.677 215.63 116.604 215.484 116.604ZM223.555 114.744C223.555 115.027 223.457 115.237 223.262 115.374C223.076 115.51 222.867 115.642 222.632 115.769C222.398 115.886 222.183 116.028 221.988 116.194C221.802 116.36 221.709 116.609 221.709 116.941C221.709 117.117 221.748 117.268 221.826 117.395C221.914 117.522 222.017 117.639 222.134 117.747C222.261 117.844 222.398 117.947 222.544 118.054C222.691 118.162 222.823 118.284 222.94 118.421C223.067 118.557 223.169 118.723 223.247 118.919C223.335 119.114 223.379 119.353 223.379 119.636C223.379 120.047 223.272 120.452 223.057 120.852C222.852 121.243 222.583 121.594 222.251 121.907C221.929 122.21 221.563 122.454 221.153 122.639C220.742 122.825 220.337 122.918 219.937 122.918C219.771 122.918 219.605 122.903 219.439 122.874C219.273 122.854 219.121 122.81 218.985 122.742C218.858 122.673 218.75 122.581 218.662 122.464C218.575 122.337 218.531 122.175 218.531 121.98C218.531 121.707 218.584 121.497 218.692 121.35C218.799 121.194 218.936 121.072 219.102 120.984C219.268 120.896 219.444 120.828 219.629 120.779C219.825 120.73 220.005 120.672 220.171 120.603C220.337 120.525 220.474 120.427 220.581 120.31C220.689 120.193 220.742 120.027 220.742 119.812C220.742 119.607 220.659 119.397 220.493 119.182C220.337 118.958 220.161 118.723 219.966 118.479C219.771 118.225 219.59 117.957 219.424 117.673C219.268 117.39 219.19 117.078 219.19 116.736C219.19 116.316 219.273 115.93 219.439 115.579C219.615 115.217 219.844 114.905 220.127 114.641C220.42 114.378 220.752 114.173 221.123 114.026C221.494 113.87 221.885 113.792 222.295 113.792C222.451 113.792 222.603 113.806 222.749 113.836C222.906 113.865 223.042 113.919 223.159 113.997C223.277 114.065 223.369 114.163 223.438 114.29C223.516 114.407 223.555 114.558 223.555 114.744ZM230.41 113.923C230.41 114.451 230.386 114.983 230.337 115.52C230.298 116.048 230.279 116.58 230.279 117.117C230.279 117.81 230.298 118.504 230.337 119.197C230.386 119.89 230.41 120.589 230.41 121.292C230.41 121.467 230.401 121.668 230.381 121.892C230.362 122.107 230.313 122.307 230.235 122.493C230.166 122.678 230.059 122.835 229.912 122.962C229.766 123.089 229.571 123.152 229.326 123.152C229.092 123.152 228.887 123.035 228.711 122.8C228.545 122.576 228.404 122.288 228.286 121.936C228.179 121.575 228.086 121.174 228.008 120.735C227.94 120.296 227.886 119.871 227.847 119.461C227.818 119.041 227.793 118.66 227.774 118.318C227.764 117.966 227.759 117.708 227.759 117.542C227.759 117.356 227.764 117.088 227.774 116.736C227.793 116.384 227.827 116.004 227.876 115.593C227.925 115.183 227.989 114.768 228.067 114.348C228.155 113.919 228.267 113.533 228.404 113.191C228.54 112.84 228.701 112.556 228.887 112.341C229.082 112.117 229.312 112.005 229.575 112.005C229.79 112.005 229.951 112.078 230.059 112.224C230.176 112.361 230.259 112.532 230.308 112.737C230.357 112.932 230.386 113.142 230.396 113.367C230.406 113.582 230.41 113.767 230.41 113.923ZM237.749 120.735C237.749 120.911 237.74 121.14 237.72 121.423C237.71 121.707 237.671 121.985 237.603 122.258C237.534 122.522 237.427 122.752 237.281 122.947C237.134 123.142 236.929 123.24 236.665 123.24C236.304 123.24 236.026 123.123 235.83 122.888C235.635 122.654 235.542 122.361 235.552 122.009C235.24 122.283 234.883 122.498 234.483 122.654C234.092 122.81 233.692 122.888 233.282 122.888C232.998 122.888 232.73 122.82 232.476 122.683C232.222 122.547 231.997 122.371 231.802 122.156C231.607 121.941 231.45 121.702 231.333 121.438C231.216 121.165 231.158 120.896 231.158 120.632C231.158 120.164 231.299 119.754 231.582 119.402C231.875 119.05 232.232 118.753 232.652 118.508C233.072 118.255 233.516 118.054 233.985 117.908C234.463 117.761 234.888 117.664 235.259 117.615C235.259 117.566 235.259 117.522 235.259 117.483C235.269 117.444 235.274 117.4 235.274 117.351C235.274 117.048 235.191 116.804 235.025 116.619C234.859 116.433 234.624 116.34 234.322 116.34C234.077 116.34 233.867 116.384 233.692 116.472C233.516 116.55 233.35 116.643 233.194 116.751C233.037 116.848 232.881 116.941 232.725 117.029C232.569 117.107 232.393 117.146 232.198 117.146C231.983 117.146 231.797 117.078 231.641 116.941C231.494 116.804 231.421 116.629 231.421 116.414C231.421 116.091 231.514 115.798 231.7 115.535C231.895 115.271 232.134 115.051 232.417 114.876C232.71 114.69 233.023 114.548 233.355 114.451C233.697 114.343 234.009 114.29 234.292 114.29C234.556 114.29 234.82 114.324 235.083 114.392C235.347 114.451 235.596 114.548 235.83 114.685C236.065 114.812 236.275 114.973 236.46 115.169C236.656 115.354 236.812 115.574 236.929 115.828C237.105 116.189 237.246 116.575 237.354 116.985C237.461 117.385 237.544 117.8 237.603 118.23C237.661 118.65 237.7 119.075 237.72 119.505C237.74 119.924 237.749 120.335 237.749 120.735ZM235.406 120.266L235.362 119.27C235.342 119.27 235.323 119.27 235.303 119.27C235.283 119.26 235.264 119.256 235.244 119.256C235.117 119.256 234.956 119.29 234.761 119.358C234.575 119.417 234.395 119.505 234.219 119.622C234.043 119.729 233.892 119.851 233.765 119.988C233.648 120.125 233.589 120.266 233.589 120.413C233.589 120.549 233.638 120.642 233.736 120.691C233.833 120.74 233.946 120.764 234.073 120.764C234.287 120.764 234.517 120.711 234.761 120.603C235.005 120.486 235.22 120.374 235.406 120.266ZM236.109 111.712C236.109 111.819 236.079 111.926 236.021 112.034C235.962 112.132 235.889 112.224 235.801 112.312C235.723 112.4 235.635 112.483 235.537 112.561C235.44 112.63 235.352 112.693 235.274 112.752C235.205 112.8 235.127 112.859 235.039 112.927C234.961 112.986 234.873 113.045 234.776 113.103C234.688 113.152 234.595 113.196 234.497 113.235C234.409 113.274 234.322 113.294 234.234 113.294C234.156 113.294 234.087 113.274 234.029 113.235C233.97 113.186 233.941 113.118 233.941 113.03C233.941 112.883 233.994 112.708 234.102 112.503C234.219 112.288 234.361 112.083 234.527 111.887C234.693 111.682 234.868 111.511 235.054 111.375C235.24 111.228 235.41 111.155 235.567 111.155C235.703 111.155 235.825 111.214 235.933 111.331C236.05 111.438 236.109 111.565 236.109 111.712ZM245.205 114.92C245.205 115.232 245.122 115.525 244.956 115.798C244.8 116.062 244.6 116.311 244.356 116.546C244.121 116.77 243.858 116.97 243.565 117.146C243.282 117.312 243.018 117.444 242.774 117.542C242.832 118.01 242.862 118.494 242.862 118.992C242.862 119.158 242.857 119.343 242.847 119.548C242.847 119.754 242.818 119.949 242.759 120.134C242.71 120.31 242.622 120.462 242.495 120.589C242.378 120.715 242.207 120.779 241.983 120.779C241.592 120.779 241.328 120.584 241.192 120.193C241.143 120.047 241.104 119.851 241.075 119.607C241.045 119.353 241.021 119.094 241.001 118.831C240.992 118.557 240.987 118.294 240.987 118.04C240.987 117.786 240.987 117.576 240.987 117.41C240.987 117.273 240.992 117.112 241.001 116.926C241.021 116.741 241.07 116.59 241.148 116.472C241.236 116.345 241.382 116.223 241.587 116.106C241.792 115.979 242.002 115.847 242.217 115.711C242.442 115.574 242.637 115.423 242.803 115.257C242.969 115.09 243.052 114.895 243.052 114.671C243.052 114.505 243.013 114.353 242.935 114.216C242.857 114.08 242.754 113.967 242.627 113.88C242.51 113.782 242.373 113.709 242.217 113.66C242.071 113.601 241.919 113.572 241.763 113.572C241.392 113.572 241.099 113.635 240.884 113.762C240.669 113.88 240.484 114.011 240.327 114.158C240.181 114.295 240.039 114.426 239.903 114.553C239.776 114.671 239.61 114.729 239.405 114.729C239.17 114.729 238.955 114.646 238.76 114.48C238.575 114.314 238.482 114.114 238.482 113.88C238.482 113.499 238.594 113.176 238.819 112.913C239.043 112.639 239.322 112.424 239.654 112.268C239.986 112.102 240.337 111.985 240.708 111.917C241.079 111.839 241.411 111.799 241.704 111.799C242.095 111.799 242.495 111.887 242.906 112.063C243.325 112.229 243.701 112.454 244.033 112.737C244.375 113.02 244.654 113.352 244.868 113.733C245.093 114.114 245.205 114.509 245.205 114.92ZM243.037 122.039C243.037 122.205 242.993 122.346 242.906 122.464C242.827 122.581 242.725 122.678 242.598 122.757C242.481 122.835 242.344 122.893 242.188 122.932C242.041 122.971 241.9 122.991 241.763 122.991C241.538 122.991 241.328 122.937 241.133 122.83C240.948 122.722 240.855 122.547 240.855 122.302C240.855 122.146 240.894 122.009 240.972 121.892C241.06 121.765 241.167 121.658 241.294 121.57C241.421 121.482 241.558 121.419 241.704 121.38C241.861 121.331 242.007 121.306 242.144 121.306C242.368 121.306 242.574 121.365 242.759 121.482C242.945 121.599 243.037 121.785 243.037 122.039Z" fill="white"/>
<defs>
<filter id="filter0_i_829_194" x="149.849" y="88.7261" width="126.151" height="80.5943" filterUnits="userSpaceOnUse" color-interpolation-filters="sRGB">
<feFlood flood-opacity="0" result="BackgroundImageFix"/>
<feBlend mode="normal" in="SourceGraphic" in2="BackgroundImageFix" result="shape"/>
<feColorMatrix in="SourceAlpha" type="matrix" values="0 0 0 0 0 0 0 0 0 0 0 0 0 0 0 0 0 0 127 0" result="hardAlpha"/>
<feOffset dy="4"/>
<feGaussianBlur stdDeviation="2"/>
<feComposite in2="hardAlpha" operator="arithmetic" k2="-1" k3="1"/>
<feColorMatrix type="matrix" values="0 0 0 0 0 0 0 0 0 0 0 0 0 0 0 0 0 0 0.25 0"/>
<feBlend mode="normal" in2="shape" result="effect1_innerShadow_829_194"/>
</filter>
</defs>
</svg>
