<svg xmlns="http://www.w3.org/2000/svg" width="210" height="115" fill="none" viewBox="0 0 210 115"><g filter="url(#a)"><path fill="#f4719c" fill-rule="evenodd" d="M30.262 73.039C10.188 65.54 1.426 54.476 1.426 42.5c0-14.736 17.673-29.292 46.908-36.49C62.514 2.521 79.175 1 98.318 1c58.608 0 112.657 15.034 110.35 41.5 0 13.133-10.003 25.209-30.376 32.418-11.108 3.93-25.161 6.252-42.744 6.966-6.916 13.739-17.038 20.813-33.645 32.009 12.179-13.049 19.64-21.462 22.34-31.772h-.932c-41.542 2.35-72.96-1.58-93.049-9.082" clip-rule="evenodd"/></g><path fill="#f4719c" d="m30.262 73.039.35-.937zM48.334 6.01l-.239-.97zM208.668 42.5l-.996-.087-.004.087zm-30.376 32.417-.333-.943zm-42.744 6.966-.04-.999a1 1 0 0 0-.853.55zm-33.645 32.009-.731-.682a1 1 0 0 0 1.29 1.511zm22.34-31.772.967.253a1 1 0 0 0-.97-1.253zm-.932 0v-1l-.057.003zM.426 42.502c0 12.581 9.233 23.91 29.487 31.475l.7-1.874C10.715 64.672 2.425 53.87 2.425 42.5zm47.67-37.46c-14.714 3.622-26.584 9.11-34.8 15.604C5.094 27.129.427 34.71.427 42.5h2c0-6.946 4.17-14.01 12.11-20.287 7.93-6.268 19.515-11.656 34.037-15.232zM98.317 0C79.128 0 62.38 1.524 48.095 5.04l.478 1.942C62.648 3.517 79.222 2 98.318 2zm111.346 42.587c.612-7.014-2.534-13.202-8.351-18.477-5.8-5.26-14.313-9.675-24.652-13.23C155.973 3.765 127.69 0 98.318 0v2c29.236 0 57.282 3.752 77.693 10.771 10.211 3.511 18.44 7.817 23.958 12.82 5.5 4.988 8.245 10.604 7.703 16.823zm-31.038 33.274c20.569-7.28 31.042-19.623 31.042-33.36h-2c0 12.527-9.534 24.335-29.709 31.474zm-43.037 7.022c17.641-.716 31.802-3.047 43.037-7.022l-.667-1.886c-10.982 3.886-24.927 6.199-42.451 6.91zm-.934-1.448c-6.782 13.472-16.678 20.416-33.311 31.629l1.118 1.658c16.581-11.178 26.929-18.383 33.979-32.388zm-32.021 33.14c12.132-12.999 19.8-21.6 22.576-32.201l-1.934-.507c-2.624 10.02-9.879 18.245-22.104 31.344zm20.677-31.453.935-.001-.006-2h-.929zm-93.399-9.147c20.272 7.572 51.846 11.5 93.455 9.145l-.113-1.996c-41.473 2.346-72.734-1.587-92.642-9.022z"/><path fill="#fff" d="M34.846 39.73q-.834 0-1.45-.423a3.3 3.3 0 0 1-1.025-1.108 6 6 0 0 1-.601-1.64 9.7 9.7 0 0 1 .013-3.897 6.6 6.6 0 0 1 .657-1.777q.436-.793 1.107-1.299.67-.506 1.6-.506.901 0 1.504.492.615.48.97 1.258.37.765.52 1.723.165.957.164 1.914 0 1.066-.219 2.023a5.4 5.4 0 0 1-.642 1.668 3.36 3.36 0 0 1-1.08 1.149q-.644.423-1.518.424m.164-7.628a.6.6 0 0 0-.451.205 1.7 1.7 0 0 0-.301.547q-.123.327-.178.752a6 6 0 0 0-.054.834q0 .479.054.957.069.479.192.86.123.384.3.616.191.233.452.233.3 0 .478-.301.178-.3.274-.725.109-.423.136-.875.041-.45.041-.752a6 6 0 0 0-.054-.78 3.7 3.7 0 0 0-.15-.751 1.9 1.9 0 0 0-.288-.588.55.55 0 0 0-.451-.232m6.617-1.108q0 .739-.068 1.49-.055.74-.055 1.49 0 .972.055 1.942.068.97.068 1.955 0 .246-.027.56-.027.301-.137.561a1.05 1.05 0 0 1-.3.438q-.206.178-.548.178-.328 0-.574-.329a2.9 2.9 0 0 1-.396-.806q-.15-.506-.26-1.121-.096-.615-.15-1.19-.041-.588-.069-1.066-.013-.492-.013-.725 0-.26.013-.752.027-.492.096-1.066.068-.574.178-1.162.123-.601.314-1.08.192-.492.451-.793.274-.315.643-.315.3 0 .451.205.165.192.232.479.069.273.083.588.013.3.013.52m6.85 6.358q0 .246-.028.642-.013.397-.109.78-.096.369-.3.642a.68.68 0 0 1-.575.274q-.505 0-.78-.329-.273-.328-.259-.82a3.4 3.4 0 0 1-.998.602 3 3 0 0 1-1.121.218q-.397 0-.752-.191a2.4 2.4 0 0 1-.629-.492 2.5 2.5 0 0 1-.437-.67 1.9 1.9 0 0 1-.165-.752q0-.656.397-1.148.41-.493.998-.834a5.7 5.7 0 0 1 1.244-.561 7.5 7.5 0 0 1 1.19-.273v-.123a.5.5 0 0 0 .013-.123q0-.425-.232-.684-.233-.26-.656-.26-.342 0-.588.123-.247.11-.465.26-.219.137-.438.26-.218.11-.492.109a.76.76 0 0 1-.52-.191.64.64 0 0 1-.204-.492q0-.452.26-.82.273-.37.67-.616.41-.26.874-.397.479-.15.875-.15.369 0 .739.096.369.082.697.273.327.178.588.451.273.26.437.616.246.506.397 1.08.15.56.232 1.162.082.588.11 1.19.027.587.027 1.148m-2.188-.438-.04-.93h-.055a.1.1 0 0 0-.055-.013 1.4 1.4 0 0 0-.451.096 2 2 0 0 0-.506.246q-.246.15-.424.341a.6.6 0 0 0-.164.397q0 .19.137.26a.7.7 0 0 0 .314.068q.3 0 .643-.15.342-.165.601-.315m.657-7.984q0 .15-.082.3a1.4 1.4 0 0 1-.206.26q-.109.123-.246.233a9 9 0 0 0-.246.178q-.096.068-.218.163-.11.082-.247.165a2 2 0 0 1-.26.123.6.6 0 0 1-.245.054.34.34 0 0 1-.192-.054.24.24 0 0 1-.082-.192q0-.205.15-.492.165-.3.397-.574a2.7 2.7 0 0 1 .492-.479q.26-.204.479-.205.19 0 .341.164.165.151.165.356m4.32 9.625q0 .22-.123.56a4 4 0 0 1-.287.67q-.165.329-.383.56-.219.233-.424.233-.273 0-.273-.273 0-.164.068-.315.068-.15.15-.3.082-.137.15-.288a.6.6 0 0 0 .07-.273.8.8 0 0 1-.438.137.69.69 0 0 1-.534-.246.8.8 0 0 1-.218-.547q0-.438.287-.697.287-.274.724-.274.493 0 .862.26t.369.793m9.57-1.71q0 .465-.3.917a3.4 3.4 0 0 1-.739.793 4.3 4.3 0 0 1-.943.56 2.5 2.5 0 0 1-.93.205q-.724 0-1.299-.355a3.4 3.4 0 0 1-.943-.93 4.5 4.5 0 0 1-.588-1.23 5 5 0 0 1-.191-1.326q0-.684.19-1.463.192-.78.575-1.436.397-.656.985-1.094.601-.437 1.421-.437.465 0 .89.164a2.15 2.15 0 0 1 1.243 1.121q.192.396.192.889 0 .643-.274 1.203a3.2 3.2 0 0 1-.724.97q-.452.41-1.04.67a3.5 3.5 0 0 1-1.203.274q.056.397.315.574.273.178.642.178.274 0 .534-.137t.505-.3q.247-.18.479-.315.246-.137.492-.137a.76.76 0 0 1 .492.178.57.57 0 0 1 .22.465m-2.215-3.349a.8.8 0 0 0-.095-.369.32.32 0 0 0-.301-.191q-.301 0-.506.164-.205.15-.342.396a2.3 2.3 0 0 0-.219.506 3 3 0 0 0-.082.506q.191-.04.452-.11.273-.067.505-.177.246-.123.41-.301a.58.58 0 0 0 .178-.424m8.75 1.873q0 .753-.15 1.49-.15.74-.506 1.327a2.75 2.75 0 0 1-.957.93q-.588.354-1.477.355-.874 0-1.462-.342a2.8 2.8 0 0 1-.944-.93 4.2 4.2 0 0 1-.492-1.298 8 8 0 0 1-.137-1.477q0-.821.192-1.627.04-.218.15-.602.123-.397.3-.765.193-.383.425-.657.245-.273.533-.273.273 0 .437.15.165.15.26.383.096.22.123.479.028.246.028.451 0 .315-.055.615-.042.3-.096.602l-.11.82a8 8 0 0 0-.027 1.285q.028.246.11.479t.232.396q.15.15.424.15.356 0 .56-.19.219-.192.315-.48.11-.286.137-.614.027-.33.027-.602 0-.602-.082-1.176a47 47 0 0 1-.15-1.19 1.3 1.3 0 0 1 .055-.602q.068-.204.19-.368a.9.9 0 0 1 .302-.26.74.74 0 0 1 .396-.11q.3 0 .533.22.233.205.383.546.164.33.26.752.109.41.164.82.069.398.082.753.027.356.027.56m8.135-3.61q0 .397-.273.589-.261.19-.588.369-.329.164-.602.396-.26.233-.26.698 0 .246.11.423.123.178.287.329.177.135.383.287.205.15.369.341.177.192.287.465.123.274.123.67 0 .574-.3 1.135a3.73 3.73 0 0 1-1.777 1.668q-.576.26-1.136.26-.233 0-.465-.041a1.3 1.3 0 0 1-.424-.123.9.9 0 0 1-.3-.26.8.8 0 0 1-.123-.451q0-.383.15-.588.15-.219.383-.342a2.3 2.3 0 0 1 .492-.191q.272-.069.506-.164.232-.11.383-.274.15-.164.15-.465 0-.286-.232-.588a12 12 0 0 0-.493-.656 7 7 0 0 1-.505-.752 1.8 1.8 0 0 1-.22-.875q0-.588.233-1.08.246-.506.643-.875.41-.369.93-.574a2.8 2.8 0 0 1 1.093-.219q.219 0 .424.041.218.041.383.15.165.096.26.274.11.164.11.424m3.145 7.917q-.697 0-1.217-.37a3.2 3.2 0 0 1-.875-.943 4.5 4.5 0 0 1-.533-1.271 5.7 5.7 0 0 1-.178-1.395q0-.725.178-1.49.177-.78.547-1.408.369-.642.943-1.04.574-.41 1.367-.41.765 0 1.299.424.546.41.875 1.04.328.614.465 1.353.136.738.095 1.395-.04.724-.232 1.462a4.7 4.7 0 0 1-.533 1.327q-.356.587-.903.957-.546.369-1.298.369m.136-6.18q-.205 0-.369.219-.15.218-.26.533-.095.315-.15.67a4 4 0 0 0-.055.602q0 .327.055.71.069.384.178.712.11.315.26.533.163.204.369.205.218 0 .369-.205.165-.205.26-.52t.136-.683q.042-.384.041-.711 0-.3-.054-.657a4 4 0 0 0-.164-.683 1.5 1.5 0 0 0-.26-.52q-.15-.205-.356-.205m9.516 1.873q0 .753-.15 1.49-.151.74-.506 1.327a2.75 2.75 0 0 1-.957.93q-.588.354-1.477.355-.874 0-1.463-.342a2.8 2.8 0 0 1-.943-.93 4.2 4.2 0 0 1-.492-1.298 8 8 0 0 1-.137-1.477q0-.821.191-1.627.042-.218.15-.602.124-.397.301-.765.192-.383.424-.657.246-.273.534-.273.273 0 .437.15.165.15.26.383.096.22.123.479.027.246.027.451 0 .315-.055.615-.04.3-.095.602l-.11.82a8 8 0 0 0-.027 1.285q.027.246.11.479.082.233.232.396.15.15.424.15.356 0 .56-.19.218-.192.315-.48.11-.286.136-.614.028-.33.028-.602 0-.602-.082-1.176a48 48 0 0 1-.15-1.19 1.3 1.3 0 0 1 .055-.602q.067-.204.19-.368a.9.9 0 0 1 .301-.26.74.74 0 0 1 .397-.11q.3 0 .533.22.232.205.383.546.165.33.26.752.108.41.164.82.067.398.082.753.027.356.027.56m9.94 1.983q0 .246-.028.642-.014.397-.11.78-.094.369-.3.642a.68.68 0 0 1-.574.274q-.506 0-.78-.329-.273-.328-.26-.82a3.4 3.4 0 0 1-.997.602 3 3 0 0 1-1.121.218q-.397 0-.752-.191a2.4 2.4 0 0 1-.63-.492 2.5 2.5 0 0 1-.437-.67 1.9 1.9 0 0 1-.164-.752q0-.656.397-1.148.41-.493.998-.834a5.7 5.7 0 0 1 1.244-.561 7.5 7.5 0 0 1 1.19-.273v-.123a.5.5 0 0 0 .013-.123q0-.425-.233-.684-.231-.26-.656-.26-.342 0-.588.123-.246.11-.465.26a11 11 0 0 1-.437.26q-.219.11-.492.109a.76.76 0 0 1-.52-.191.64.64 0 0 1-.205-.492q0-.452.26-.82.273-.37.67-.616.41-.26.875-.397.478-.15.875-.15.369 0 .738.096.37.082.697.273.33.178.588.451.274.26.438.616.246.506.396 1.08.15.56.233 1.162.08.588.109 1.19.027.587.027 1.148m-2.188-.438-.041-.93h-.055a.1.1 0 0 0-.055-.013 1.4 1.4 0 0 0-.45.096 2 2 0 0 0-.506.246 2 2 0 0 0-.424.341.6.6 0 0 0-.164.397q0 .19.136.26a.7.7 0 0 0 .315.068q.3 0 .642-.15.342-.165.602-.315m12.824.479q0 .341-.287.642-.273.3-.725.547a6 6 0 0 1-.984.438q-.547.177-1.08.3a10 10 0 0 1-1.012.206q-.465.068-.738.068a3 3 0 0 1-.561-.055.9.9 0 0 1-.478-.205q-.11-.082-.192-.37-.081-.285-.164-.683a19 19 0 0 1-.123-.847q-.054-.465-.095-.903-.028-.437-.055-.806a17 17 0 0 1 0-1.395q.027-.492.068-1.039.042-.56.11-1.135.067-.574.15-1.08.096-.519.219-.93.137-.41.287-.642.26-.37.656-.37.273 0 .465.192.192.178.301.479.123.287.178.656.068.355.095.711.028.356.028.656v.479q0 1.066-.055 2.119a54 54 0 0 0-.041 2.105v.534q.615-.191 1.34-.356a5.8 5.8 0 0 1 1.381-.178q.232 0 .464.028.247.027.424.123a.64.64 0 0 1 .301.26q.123.164.123.45m2.598-7.657a.57.57 0 0 1-.11.342q-.095.15-.259.274-.164.11-.356.177a1.3 1.3 0 0 1-.355.055.84.84 0 0 1-.479-.137q-.205-.136-.205-.424 0-.204.096-.355a.9.9 0 0 1 .26-.26q.15-.109.341-.164t.369-.055a.96.96 0 0 1 .479.124q.219.123.219.423m.109 4.649v.41q0 .206-.014.396-.013.233-.013.63 0 .383-.028.833-.027.451-.095.916-.056.465-.192.848a1.8 1.8 0 0 1-.369.629.78.78 0 0 1-.56.246.5.5 0 0 1-.438-.205 1.9 1.9 0 0 1-.301-.56 5 5 0 0 1-.164-.78q-.054-.437-.082-.834a12 12 0 0 1-.027-.752v-1.121q0-.41.027-.875t.096-.943a5.6 5.6 0 0 1 .219-.875q.15-.397.383-.643a.77.77 0 0 1 .587-.246q.37 0 .561.37.192.368.287.86.096.493.109.985.014.479.014.71m4.156 5.387q-.97 0-1.517-.26a1.76 1.76 0 0 1-.807-.711q-.26-.465-.314-1.121a18 18 0 0 1-.055-1.463q0-.643.041-1.285.04-.657.123-1.395-.192 0-.301.014h-.177q-.438 0-.752-.192a.64.64 0 0 1-.329-.587q0-.246.192-.438.177-.192.465-.328.287-.136.615-.219.342-.08.643-.11 0-.381.054-.847.055-.465.192-.861.15-.411.396-.684a.8.8 0 0 1 .629-.273q.219 0 .383.136a.9.9 0 0 1 .287.329q.11.19.164.437.054.246.055.479 0 .273-.041.56a7 7 0 0 1-.151.711q.233-.027.315-.027a1 1 0 0 1 .15-.014q.233 0 .479.041.26.04.465.137.218.096.355.26a.53.53 0 0 1 .137.369q0 .246-.205.437a1.7 1.7 0 0 1-.493.328q-.3.136-.642.22a6 6 0 0 1-.643.095q-.081.56-.123 1.039-.027.465-.068.943l-.055.479a8 8 0 0 0 0 .902q.013.233.096.451a1 1 0 0 0 .26.383q.177.15.492.15.191 0 .396-.027.206-.04.41-.04.356 0 .506.245.165.246.164.63a.78.78 0 0 1-.177.505q-.165.205-.424.328a2.2 2.2 0 0 1-.588.205q-.314.069-.602.069m7.875-2.42q0 .246-.027.642a3.8 3.8 0 0 1-.109.78q-.096.369-.301.642a.68.68 0 0 1-.574.274q-.506 0-.78-.329-.274-.328-.259-.82a3.4 3.4 0 0 1-.998.602 3 3 0 0 1-1.122.218q-.397 0-.751-.191a2.47 2.47 0 0 1-1.067-1.162 1.9 1.9 0 0 1-.164-.752q0-.656.397-1.148.41-.493.998-.834a5.6 5.6 0 0 1 1.244-.561 7.5 7.5 0 0 1 1.189-.273v-.123a.5.5 0 0 0 .014-.123q0-.425-.233-.684-.232-.26-.656-.26-.342 0-.588.123-.246.11-.465.26-.218.137-.437.26-.219.11-.492.109a.76.76 0 0 1-.52-.191.64.64 0 0 1-.205-.492q0-.452.26-.82.273-.37.67-.616.41-.26.875-.397.478-.15.875-.15.369 0 .738.096.37.082.697.273.329.178.588.451.274.26.438.616.246.506.396 1.08.15.56.233 1.162.082.588.109 1.19.027.587.027 1.148m-2.187-.438-.041-.93h-.055a.1.1 0 0 0-.055-.013q-.177 0-.451.096a2 2 0 0 0-.506.246q-.246.15-.423.341a.6.6 0 0 0-.164.397q0 .19.136.26a.7.7 0 0 0 .315.068q.3 0 .642-.15.342-.165.602-.315m4.976 1.64q0 .22-.123.561a4 4 0 0 1-.287.67 2.3 2.3 0 0 1-.383.56q-.218.233-.423.233-.274 0-.274-.273 0-.164.069-.315.068-.15.15-.3.083-.137.15-.288a.6.6 0 0 0 .069-.273.8.8 0 0 1-.438.137.69.69 0 0 1-.533-.246.8.8 0 0 1-.219-.547q0-.438.287-.697a1 1 0 0 1 .725-.274q.492 0 .861.26t.369.793m9.571-1.708q0 .465-.301.916a3.4 3.4 0 0 1-.738.793 4.3 4.3 0 0 1-.944.56 2.5 2.5 0 0 1-.929.205q-.724 0-1.299-.355a3.4 3.4 0 0 1-.944-.93 4.5 4.5 0 0 1-.587-1.23 5 5 0 0 1-.192-1.326q0-.684.192-1.463.191-.78.574-1.436a3.8 3.8 0 0 1 .984-1.094q.601-.437 1.422-.437.465 0 .889.164a2.15 2.15 0 0 1 1.244 1.121q.19.396.191.889 0 .643-.273 1.203a3.2 3.2 0 0 1-.725.97 3.8 3.8 0 0 1-1.039.67 3.5 3.5 0 0 1-1.203.274q.054.397.314.574.274.178.643.178.273 0 .533-.137a6 6 0 0 0 .506-.3 6 6 0 0 1 .479-.315q.246-.137.492-.137a.76.76 0 0 1 .492.178.57.57 0 0 1 .219.465m-2.215-3.35a.8.8 0 0 0-.096-.369.32.32 0 0 0-.301-.191q-.3 0-.505.164-.206.15-.342.396a2.3 2.3 0 0 0-.219.506 2.7 2.7 0 0 0-.082.506q.192-.04.451-.11a3 3 0 0 0 .506-.177q.246-.123.41-.301a.58.58 0 0 0 .178-.424m8.75 1.873q0 .753-.15 1.49a4.2 4.2 0 0 1-.506 1.327 2.75 2.75 0 0 1-.957.93q-.588.354-1.477.355-.875 0-1.463-.342a2.8 2.8 0 0 1-.943-.93 4.2 4.2 0 0 1-.492-1.298 8 8 0 0 1-.137-1.477q0-.821.191-1.627a5.6 5.6 0 0 1 .451-1.367q.192-.383.424-.657.246-.273.534-.273a.62.62 0 0 1 .437.15q.164.15.26.383.096.22.123.479.027.246.027.451 0 .315-.055.615-.04.3-.095.602l-.11.82a8 8 0 0 0-.027 1.285q.028.246.109.479.083.233.233.396.15.15.424.15.356 0 .56-.19.219-.192.315-.48a2.2 2.2 0 0 0 .136-.614q.028-.33.028-.602a8.4 8.4 0 0 0-.082-1.176 48 48 0 0 1-.151-1.19 1.3 1.3 0 0 1 .055-.602q.069-.204.191-.368a.9.9 0 0 1 .301-.26.74.74 0 0 1 .397-.11q.3 0 .533.22.232.205.383.546.164.33.259.752.11.41.165.82.067.398.082.753.027.356.027.56m10.021-.984a66 66 0 0 1-.779 1.969 19 19 0 0 1-.916 1.914q-.3.547-.67.916a1.2 1.2 0 0 1-.847.355q-.383 0-.752-.383a6 6 0 0 1-.67-.93q-.301-.546-.534-1.093-.218-.56-.328-.889a36 36 0 0 0-.246-.793 14 14 0 0 1-.246-.861 11 11 0 0 1-.178-.861 5.4 5.4 0 0 1-.068-.82q0-.534.191-.876.192-.341.752-.341.219 0 .397.136.178.122.328.356.15.232.287.547.137.3.26.67.123.355.232.738t.219.738q.11.356.219.697.123.33.314.657l.479-1.23q.15-.357.314-.725.165-.384.356-.739.37-.738.779-1.258.425-.52.834-.52.382 0 .547.233.164.233.164.602t-.123.834-.315.957m3.514 5.29q-.697 0-1.217-.368a3.2 3.2 0 0 1-.875-.944 4.5 4.5 0 0 1-.533-1.271 5.8 5.8 0 0 1-.178-1.395q0-.725.178-1.49.178-.78.547-1.408.369-.642.943-1.04.575-.41 1.367-.41.767 0 1.299.424.548.41.875 1.04.328.614.465 1.353.137.738.096 1.395-.04.724-.233 1.462a4.6 4.6 0 0 1-.533 1.327q-.356.587-.902.957-.548.369-1.299.369m.137-6.179q-.206 0-.369.219a2.2 2.2 0 0 0-.26.533 5 5 0 0 0-.205 1.272q0 .327.054.71.069.384.178.712.11.315.26.533.164.204.369.205.219 0 .369-.205.165-.205.26-.52t.137-.683q.04-.384.041-.711 0-.3-.055-.657a3.7 3.7 0 0 0-.164-.683 1.5 1.5 0 0 0-.26-.52q-.15-.205-.355-.205m9.515 1.873q0 .753-.15 1.49a4.1 4.1 0 0 1-.506 1.327 2.75 2.75 0 0 1-.957.93q-.588.354-1.476.355-.875 0-1.463-.342a2.8 2.8 0 0 1-.944-.93 4.2 4.2 0 0 1-.492-1.298 8 8 0 0 1-.137-1.477q0-.821.192-1.627.04-.218.15-.602.123-.397.301-.765.192-.383.424-.657.246-.273.533-.273.273 0 .438.15.163.15.259.383.096.22.123.479.028.246.028.451 0 .315-.055.615-.04.3-.096.602l-.109.82a8 8 0 0 0-.027 1.285q.027.246.109.479t.232.396q.151.15.424.15.356 0 .561-.19.218-.192.314-.48.11-.286.137-.614.027-.33.027-.602a8 8 0 0 0-.082-1.176 48 48 0 0 1-.15-1.19 1.3 1.3 0 0 1 .055-.602q.068-.204.191-.368a.9.9 0 0 1 .301-.26.74.74 0 0 1 .396-.11q.301 0 .533.22.233.205.383.546.165.33.26.752.11.41.164.82.069.398.082.753.027.356.027.56m7.315 4.403q-.97 0-1.518-.26a1.76 1.76 0 0 1-.806-.711q-.26-.465-.315-1.121a20 20 0 0 1-.013-2.748q.04-.657.123-1.395-.192 0-.301.014h-.178a1.4 1.4 0 0 1-.752-.192.63.63 0 0 1-.328-.587q0-.246.191-.438.179-.192.465-.328.288-.136.615-.219.343-.08.643-.11 0-.381.055-.847.054-.465.191-.861.15-.411.397-.684a.8.8 0 0 1 .629-.273q.218 0 .382.136a.9.9 0 0 1 .287.329q.11.19.164.437.055.246.055.479 0 .273-.041.56a7 7 0 0 1-.15.711q.233-.027.314-.027a1 1 0 0 1 .151-.014q.232 0 .478.041.26.04.465.137.219.096.355.26.137.15.137.369 0 .246-.205.437a1.7 1.7 0 0 1-.492.328 3.6 3.6 0 0 1-.643.22 6 6 0 0 1-.642.095q-.083.56-.123 1.039-.028.465-.069.943l-.054.479a8 8 0 0 0-.014.478q0 .178.014.424.014.233.095.451a1 1 0 0 0 .26.383q.178.15.492.15.192 0 .397-.027a2 2 0 0 1 .41-.04q.356 0 .506.245.164.246.164.63 0 .286-.178.505a1.2 1.2 0 0 1-.424.328 2.2 2.2 0 0 1-.588.205q-.314.069-.601.069m7.793-2.926q0 .465-.301.916a3.3 3.3 0 0 1-.738.793 4.3 4.3 0 0 1-.944.56 2.5 2.5 0 0 1-.929.205q-.725 0-1.299-.355a3.4 3.4 0 0 1-.943-.93 4.5 4.5 0 0 1-.588-1.23 5 5 0 0 1-.192-1.326q0-.684.192-1.463.191-.78.574-1.436a3.8 3.8 0 0 1 .984-1.094q.601-.437 1.422-.437.465 0 .889.164a2.15 2.15 0 0 1 1.244 1.121q.191.396.191.889 0 .643-.273 1.203a3.2 3.2 0 0 1-.725.97 3.8 3.8 0 0 1-1.039.67 3.5 3.5 0 0 1-1.203.274q.055.397.315.574.273.178.642.178.273 0 .533-.137a6 6 0 0 0 .506-.3 6 6 0 0 1 .479-.315q.246-.137.492-.137a.76.76 0 0 1 .492.178.57.57 0 0 1 .219.465m-2.215-3.35a.8.8 0 0 0-.096-.369.32.32 0 0 0-.301-.191q-.3 0-.505.164-.205.15-.342.396a2.3 2.3 0 0 0-.219.506 3 3 0 0 0-.082.506q.192-.04.451-.11.274-.067.506-.177.246-.123.41-.301a.58.58 0 0 0 .178-.424M42.974 52.617q0 .697-.027 1.395-.014.698-.069 1.394-.04.602-.11 1.285a11 11 0 0 1-.218 1.354q-.15.684-.396 1.299-.247.63-.657 1.107a3 3 0 0 1-.97.766q-.575.287-1.368.287-.369 0-.834-.123a3.7 3.7 0 0 1-.86-.328 2.5 2.5 0 0 1-.684-.547 1.1 1.1 0 0 1-.274-.738q0-.315.219-.588a.76.76 0 0 1 .588-.26q.218 0 .41.068.206.082.396.178.206.096.383.164a1 1 0 0 0 .383.082q.506 0 .848-.26a1.8 1.8 0 0 0 .547-.642q.204-.383.3-.848.11-.45.15-.861-.273.314-.642.437-.356.11-.752.11-.724 0-1.23-.246a2.3 2.3 0 0 1-.82-.698q-.315-.45-.465-1.039-.15-.587-.15-1.271 0-.424.081-.957.096-.534.274-1.08.177-.547.437-1.067.273-.519.629-.916.355-.396.793-.642.45-.246.984-.246.52 0 .916.3.41.3.479.848.15-.287.396-.56a.76.76 0 0 1 .602-.288q.192 0 .314.192.138.19.205.506.082.3.124.67.04.356.054.71.014.342.014.63zm-2.078.889q0-.206-.069-.533a3 3 0 0 0-.177-.63 1.8 1.8 0 0 0-.288-.519.53.53 0 0 0-.423-.218.82.82 0 0 0-.56.218 2 2 0 0 0-.397.534q-.165.3-.26.656a2.6 2.6 0 0 0-.082.588q0 .178.027.478t.11.588q.094.286.246.492.15.205.396.205.369 0 .643-.177.273-.179.45-.452.193-.273.288-.601.096-.328.096-.629m9.037-.137q0 .753-.15 1.49-.151.74-.506 1.327a2.75 2.75 0 0 1-.958.93q-.587.354-1.476.355-.875 0-1.463-.342a2.8 2.8 0 0 1-.943-.93 4.2 4.2 0 0 1-.492-1.298 8 8 0 0 1-.137-1.477q0-.821.191-1.627.042-.218.15-.602.124-.397.301-.765.193-.383.424-.657.246-.273.533-.273.275 0 .438.15.164.15.26.383.096.22.123.479.027.246.027.451 0 .315-.055.615-.04.3-.095.602l-.11.82a8 8 0 0 0-.027 1.285q.027.246.11.479.08.233.232.396.15.15.424.15.355 0 .56-.19.218-.192.315-.48.108-.286.136-.614.028-.33.028-.602 0-.602-.082-1.176a47 47 0 0 1-.15-1.19 1.3 1.3 0 0 1 .055-.602q.066-.204.19-.368a.9.9 0 0 1 .301-.26.74.74 0 0 1 .397-.11q.3 0 .533.22.232.205.383.546.164.33.26.752.108.41.163.82.069.398.083.753.027.356.027.56m3.09-5.633a.57.57 0 0 1-.11.342q-.095.15-.26.274-.163.11-.355.177a1.3 1.3 0 0 1-.355.055.84.84 0 0 1-.479-.137q-.205-.135-.205-.424 0-.204.096-.355a.9.9 0 0 1 .26-.26q.15-.109.341-.164.191-.054.37-.054a.96.96 0 0 1 .478.123q.219.123.219.423m.109 4.649v.41q0 .206-.014.396a11 11 0 0 0-.013.63q0 .383-.028.833-.027.451-.095.916-.055.465-.192.848a1.8 1.8 0 0 1-.369.629.78.78 0 0 1-.56.246.5.5 0 0 1-.438-.205 1.9 1.9 0 0 1-.3-.56 4.7 4.7 0 0 1-.165-.78q-.055-.437-.082-.834a11 11 0 0 1-.027-.752v-1.121q0-.41.027-.875t.096-.943q.082-.479.219-.875.15-.397.382-.643a.77.77 0 0 1 .588-.246q.37 0 .56.37.193.368.288.86.096.493.11.985.013.479.013.71m6.781 2.967q0 .246-.027.642-.014.397-.11.78-.095.369-.3.642a.68.68 0 0 1-.574.274q-.506 0-.78-.329-.273-.328-.26-.82a3.4 3.4 0 0 1-.998.602 3 3 0 0 1-1.12.218q-.397 0-.753-.191a2.4 2.4 0 0 1-.629-.492 2.5 2.5 0 0 1-.437-.67 1.9 1.9 0 0 1-.164-.752q0-.656.396-1.148.411-.493.999-.834a5.7 5.7 0 0 1 1.244-.561 7.5 7.5 0 0 1 1.19-.273v-.123a.5.5 0 0 0 .013-.123q0-.425-.233-.684-.232-.26-.656-.26-.342 0-.588.123-.246.11-.465.26a11 11 0 0 1-.437.26q-.219.11-.492.109a.76.76 0 0 1-.52-.191.64.64 0 0 1-.205-.492q0-.452.26-.82.273-.37.67-.616.41-.26.875-.397.478-.15.875-.15.369 0 .738.096.37.082.697.273.328.178.588.451.273.26.438.616.246.506.396 1.08.15.56.233 1.162.08.587.109 1.19.027.587.027 1.148m-2.187-.438-.041-.93h-.055a.1.1 0 0 0-.055-.013 1.4 1.4 0 0 0-.45.096 2 2 0 0 0-.507.246 2 2 0 0 0-.424.341.6.6 0 0 0-.163.397q0 .19.136.26a.7.7 0 0 0 .315.068q.3 0 .642-.15.342-.165.602-.315m7.752-2.748a.9.9 0 0 1-.328-.027l-.52-.205a.54.54 0 0 0-.273-.041q-.274.014-.493.15a2 2 0 0 0-.382.342q-.164.205-.288.465a3 3 0 0 0-.19.492q-.042.164-.07.506-.013.328-.013.71-.014.397-.014.753 0 .355-.027.56-.014.22-.068.52a2.3 2.3 0 0 1-.178.547 1.25 1.25 0 0 1-.3.437.7.7 0 0 1-.493.178.65.65 0 0 1-.41-.137 1.3 1.3 0 0 1-.287-.355 3.3 3.3 0 0 1-.192-.534 7 7 0 0 1-.109-.615q-.04-.327-.068-.656l-.028-.615v-.547q.015-.246.014-.397-.014-.478-.055-.957a18 18 0 0 1-.027-.97q0-.3.027-.67.028-.369.15-.684.124-.328.356-.547.246-.218.67-.218.232 0 .397.15.163.15.26.369.109.218.163.465.055.246.069.451.328-.532.738-.861.41-.342 1.066-.37.329-.013.643.069.328.067.588.246.273.164.437.438.178.273.192.642.027.438-.26.67a1.14 1.14 0 0 1-.697.246m8.34 5.496q-.232 0-.37-.218a1.5 1.5 0 0 1-.205-.48 4 4 0 0 1-.095-.546 8 8 0 0 1 .027-1.258l.11-.82q.067-.41.109-.82.054-.41.054-.82 0-.165-.013-.356a1.5 1.5 0 0 0-.069-.356.6.6 0 0 0-.15-.287.4.4 0 0 0-.287-.11q-.123.001-.273.206a3 3 0 0 0-.288.451 5 5 0 0 0-.218.506 1.3 1.3 0 0 0-.082.37v.614q.013.3.013.616v.793q-.014.246-.04.505a5 5 0 0 1-.083.506 3 3 0 0 1-.123.479 1.5 1.5 0 0 1-.219.396q-.123.164-.3.274a.8.8 0 0 1-.424.11.6.6 0 0 1-.451-.179 1.3 1.3 0 0 1-.288-.45 3 3 0 0 1-.164-.63q-.04-.356-.068-.683a16 16 0 0 1-.014-.616q.014-.286.014-.45v-.643q0-.52-.027-1.026-.014-.506-.014-1.011v-.698q.014-.423.11-.82.095-.41.314-.697t.642-.287q.192 0 .342.123t.26.3q.123.179.191.383.083.205.123.356.138-.191.315-.37.192-.177.424-.314a2.2 2.2 0 0 1 1.176-.3q.696 0 1.08.341.396.328.574.834.191.492.232 1.067.042.574.041 1.039 0 .232-.04.697-.042.45-.137 1.012-.083.546-.233 1.134-.15.575-.355 1.053a2.6 2.6 0 0 1-.492.78q-.274.3-.63.3m8.38-2.816q0 .465-.3.916a3.4 3.4 0 0 1-.739.793 4.3 4.3 0 0 1-.943.56 2.5 2.5 0 0 1-.93.205q-.724 0-1.299-.355a3.4 3.4 0 0 1-.943-.93 4.5 4.5 0 0 1-.588-1.23 5 5 0 0 1-.191-1.326q0-.684.191-1.463.192-.78.575-1.436.396-.656.984-1.094.6-.437 1.422-.437.465 0 .888.164a2.15 2.15 0 0 1 1.245 1.121q.19.396.19.889 0 .643-.273 1.203a3.2 3.2 0 0 1-.724.97q-.45.41-1.04.67a3.5 3.5 0 0 1-1.202.274q.054.397.314.574.274.178.643.178.273 0 .533-.137.26-.136.506-.3.246-.18.478-.315.246-.137.492-.137a.76.76 0 0 1 .493.178.57.57 0 0 1 .218.465m-2.214-3.35a.8.8 0 0 0-.096-.369.32.32 0 0 0-.3-.191q-.302 0-.507.164-.204.15-.342.396a2.3 2.3 0 0 0-.218.506 3 3 0 0 0-.082.506q.191-.04.45-.11.275-.067.507-.177.245-.123.41-.301a.58.58 0 0 0 .178-.424m6.767-1.736q0 .396-.273.588-.26.19-.588.369-.329.164-.602.396-.26.233-.26.698 0 .246.11.423.123.178.287.329.177.135.383.287.205.15.369.341.177.192.287.465.123.274.123.67 0 .574-.3 1.135a3.73 3.73 0 0 1-1.777 1.668q-.576.26-1.136.26-.233 0-.465-.041a1.3 1.3 0 0 1-.424-.123.9.9 0 0 1-.3-.26.77.77 0 0 1-.123-.451q0-.383.15-.588.15-.219.383-.342.232-.123.492-.191.273-.069.506-.164.232-.11.383-.274.15-.164.15-.465 0-.286-.232-.588a12 12 0 0 0-.492-.656 7 7 0 0 1-.506-.752 1.8 1.8 0 0 1-.22-.875q0-.588.233-1.08.246-.506.643-.875.41-.369.93-.574a2.8 2.8 0 0 1 1.093-.219q.219 0 .424.041.22.042.383.15.165.096.26.274.11.164.11.424m4.553 0q0 .396-.273.588-.261.19-.588.369-.33.164-.602.396-.26.233-.26.698 0 .246.11.423.122.178.287.329.177.135.383.287.205.15.369.341.177.192.287.465.123.274.123.67 0 .574-.3 1.135a3.73 3.73 0 0 1-1.777 1.668q-.576.26-1.136.26-.233 0-.465-.041a1.3 1.3 0 0 1-.424-.123.9.9 0 0 1-.3-.26.8.8 0 0 1-.124-.451q0-.383.15-.588.152-.219.384-.342a2.3 2.3 0 0 1 .492-.191q.272-.069.506-.164.232-.11.382-.274t.15-.465q0-.286-.231-.588-.219-.314-.493-.656a7 7 0 0 1-.506-.752 1.8 1.8 0 0 1-.218-.875q0-.588.232-1.08a2.9 2.9 0 0 1 .643-.875q.41-.369.93-.574a2.8 2.8 0 0 1 1.093-.219q.219 0 .424.041.218.042.383.15.164.096.26.274.109.164.109.424m6.357 5.592q0 .246-.027.642-.015.397-.11.78-.094.369-.3.642a.68.68 0 0 1-.574.274q-.506 0-.78-.329-.273-.328-.26-.82a3.4 3.4 0 0 1-.998.602 3 3 0 0 1-1.12.218q-.398 0-.753-.191a2.4 2.4 0 0 1-.629-.492 2.5 2.5 0 0 1-.437-.67 1.9 1.9 0 0 1-.164-.752q0-.656.397-1.148.41-.493.997-.834a5.7 5.7 0 0 1 1.245-.561 7.5 7.5 0 0 1 1.19-.273v-.123a.5.5 0 0 0 .013-.123q0-.425-.233-.684-.232-.26-.656-.26-.342 0-.588.123-.246.11-.465.26-.218.137-.437.26-.219.11-.492.109a.76.76 0 0 1-.52-.191.64.64 0 0 1-.205-.492q0-.452.26-.82a2.4 2.4 0 0 1 .67-.616q.41-.26.875-.397.478-.15.875-.15.369 0 .738.096.37.082.697.273.33.178.588.451.274.26.438.616.246.506.396 1.08.15.56.233 1.162.08.587.109 1.19.027.587.027 1.148m-2.187-.438-.041-.93h-.055a.1.1 0 0 0-.055-.013 1.4 1.4 0 0 0-.45.096 2 2 0 0 0-.507.246 2 2 0 0 0-.423.341.6.6 0 0 0-.165.397q0 .19.137.26a.7.7 0 0 0 .315.068q.3 0 .642-.15.342-.165.602-.315m10.185 2.748q-.233 0-.369-.218a1.5 1.5 0 0 1-.205-.48 4 4 0 0 1-.096-.546 8 8 0 0 1 .028-1.258l.109-.82q.069-.41.11-.82.054-.41.054-.82 0-.165-.013-.356a1.5 1.5 0 0 0-.069-.356.6.6 0 0 0-.15-.287.4.4 0 0 0-.287-.11q-.123.001-.274.206-.15.192-.287.451a5 5 0 0 0-.219.506 1.3 1.3 0 0 0-.082.37v.614q.014.3.014.616v.793q-.014.246-.041.505a5 5 0 0 1-.082.506 3 3 0 0 1-.123.479 1.5 1.5 0 0 1-.219.396q-.123.164-.301.274a.8.8 0 0 1-.423.11.6.6 0 0 1-.452-.179 1.3 1.3 0 0 1-.287-.45 3.2 3.2 0 0 1-.164-.63 22 22 0 0 1-.068-.683 16 16 0 0 1-.014-.616q.014-.286.014-.45v-.643q0-.52-.027-1.026a34 34 0 0 1-.014-1.011v-.698q.013-.423.109-.82.096-.41.315-.697t.642-.287q.192 0 .342.123t.26.3q.123.179.191.383.082.205.123.356a3 3 0 0 1 .315-.37q.191-.177.424-.314a2.23 2.23 0 0 1 1.175-.3q.698 0 1.08.341.397.328.575.834.191.492.232 1.067.04.574.041 1.039 0 .232-.041.697-.04.45-.137 1.012-.082.546-.232 1.134a7.4 7.4 0 0 1-.356 1.053q-.204.48-.492.78-.273.3-.629.3m5.25.014q-.697 0-1.216-.37a3.2 3.2 0 0 1-.875-.943 4.5 4.5 0 0 1-.534-1.271 5.8 5.8 0 0 1-.177-1.395q0-.725.177-1.49.178-.78.547-1.408.37-.642.944-1.04.573-.41 1.367-.41.765 0 1.299.425.546.41.875 1.039.327.614.464 1.353.138.738.096 1.395a7.5 7.5 0 0 1-.232 1.462 4.7 4.7 0 0 1-.533 1.327q-.355.587-.903.957-.546.369-1.299.369m.137-6.18q-.206 0-.369.219a2.3 2.3 0 0 0-.26.533q-.096.315-.15.67a4 4 0 0 0-.055.602q0 .327.055.71.068.384.178.712.109.315.259.533.165.204.369.205.219 0 .37-.205.164-.205.259-.52.096-.315.137-.683.04-.384.041-.711 0-.3-.055-.657a3.7 3.7 0 0 0-.164-.683 1.5 1.5 0 0 0-.259-.52q-.151-.205-.356-.205m9.42.889a69 69 0 0 1-.779 1.969 19 19 0 0 1-.916 1.914q-.301.547-.67.916a1.2 1.2 0 0 1-.848.355q-.383 0-.752-.383a6 6 0 0 1-.67-.93q-.3-.546-.533-1.093-.219-.56-.328-.889a36 36 0 0 0-.246-.793 14 14 0 0 1-.246-.861 11 11 0 0 1-.178-.861 5 5 0 0 1-.068-.82q0-.534.191-.876.192-.342.752-.342.219 0 .396.137.178.123.329.356.15.232.287.547.136.3.259.67.124.355.233.738t.219.738q.109.356.218.697.123.33.315.657l.219-.561.259-.67q.15-.355.315-.724.164-.384.355-.739.369-.738.78-1.258.423-.52.834-.52.383 0 .546.233.165.233.165.602t-.124.834-.314.957m6.727 2.967q0 .246-.028.642a3.7 3.7 0 0 1-.109.78q-.096.369-.301.642a.68.68 0 0 1-.574.274q-.506 0-.779-.329-.274-.328-.26-.82a3.4 3.4 0 0 1-.998.602 3 3 0 0 1-1.121.218q-.397 0-.752-.191a2.4 2.4 0 0 1-.629-.492 2.5 2.5 0 0 1-.438-.67 1.9 1.9 0 0 1-.164-.752q0-.656.397-1.148.41-.493.998-.834a5.7 5.7 0 0 1 1.244-.561 7.5 7.5 0 0 1 1.189-.273v-.123a.5.5 0 0 0 .014-.123q0-.425-.232-.684t-.657-.26q-.341 0-.588.123-.246.11-.464.26-.219.137-.438.26-.219.11-.492.109a.76.76 0 0 1-.52-.191.65.65 0 0 1-.205-.492q0-.452.26-.82.274-.37.67-.616.41-.26.875-.397.479-.15.875-.15.369 0 .738.096.37.082.698.273.327.178.587.451.274.26.438.616.246.506.396 1.08.151.56.233 1.162.082.587.109 1.19.028.587.028 1.148m-2.188-.438-.041-.93h-.055a.1.1 0 0 0-.054-.013q-.178 0-.451.096a2 2 0 0 0-.506.246 2 2 0 0 0-.424.341.6.6 0 0 0-.164.397q0 .19.136.26a.7.7 0 0 0 .315.068q.3 0 .643-.15.341-.165.601-.315m8.627-7.04a.63.63 0 0 1-.109.355q-.11.15-.274.26a1.6 1.6 0 0 1-.355.177 1.3 1.3 0 0 1-.356.055.84.84 0 0 1-.478-.137q-.205-.136-.205-.424 0-.205.095-.355a.9.9 0 0 1 .26-.26 1.3 1.3 0 0 1 .342-.164q.192-.055.369-.055.26 0 .479.137.232.123.232.41m.26 5.933q0 .642-.041 1.435-.027.78-.164 1.573a7.3 7.3 0 0 1-.397 1.504q-.273.71-.765 1.189a9 9 0 0 1-.643.547q-.369.287-.793.533a4.6 4.6 0 0 1-.834.396q-.423.165-.807.164-.436 0-.642-.246-.219-.231-.219-.656 0-.437.233-.656.231-.22.574-.383.341-.164.752-.369.396-.192.738-.588t.574-1.066q.233-.684.233-1.791 0-.697-.028-1.367a35 35 0 0 0-.082-1.368l-.054-.793a12 12 0 0 1-.028-.806q0-.246.069-.52.068-.273.205-.492.137-.232.341-.37.219-.15.52-.15a.7.7 0 0 1 .561.26q.232.26.369.67.15.396.205.902.068.493.095.971.028.465.028.861zm3.705 3.869q-.698 0-1.217-.37a3.2 3.2 0 0 1-.875-.943 4.5 4.5 0 0 1-.533-1.271 5.7 5.7 0 0 1-.178-1.395q0-.725.178-1.49.177-.78.547-1.408.369-.642.943-1.04.575-.41 1.367-.41.766 0 1.299.425.547.41.875 1.039.329.614.465 1.353.137.738.096 1.395-.041.724-.233 1.462a4.6 4.6 0 0 1-.533 1.327q-.356.587-.902.957-.547.369-1.299.369m.137-6.18q-.205 0-.37.219a2.3 2.3 0 0 0-.259.533 5 5 0 0 0-.205 1.272q0 .327.054.71.069.384.178.712.11.315.26.533.163.204.369.205.219 0 .369-.205.164-.205.26-.52t.137-.683q.04-.384.041-.711 0-.3-.055-.657a4 4 0 0 0-.164-.683 1.6 1.6 0 0 0-.26-.52q-.15-.205-.355-.205m8.271.67a.9.9 0 0 1-.328-.027l-.273-.11a3 3 0 0 0-.247-.095.54.54 0 0 0-.273-.041q-.273.014-.492.15a2 2 0 0 0-.383.342 2.4 2.4 0 0 0-.287.465 3 3 0 0 0-.192.492q-.04.164-.068.506-.014.328-.014.71-.013.397-.013.753 0 .355-.028.56a4 4 0 0 1-.068.52 2.2 2.2 0 0 1-.178.547 1.3 1.3 0 0 1-.3.437.7.7 0 0 1-.493.178.65.65 0 0 1-.41-.137 1.3 1.3 0 0 1-.287-.355 3 3 0 0 1-.191-.534 7 7 0 0 1-.11-.615q-.04-.327-.068-.656l-.027-.615v-.547q.013-.246.013-.397-.013-.478-.054-.957a17 17 0 0 1-.028-.97q0-.3.028-.67.027-.369.15-.684.123-.328.355-.547.247-.218.67-.218.232 0 .397.15.164.15.26.369.109.218.164.465.054.246.068.451a3.3 3.3 0 0 1 .738-.861q.41-.342 1.067-.37.328-.013.642.069.329.067.588.246.273.164.438.438.177.273.191.642.027.438-.26.67a1.13 1.13 0 0 1-.697.246m5.045 5.496q-.233 0-.369-.218a1.5 1.5 0 0 1-.205-.48 4 4 0 0 1-.096-.546 10 10 0 0 1-.014-.437q0-.41.041-.82l.11-.821q.068-.41.109-.82a6 6 0 0 0 .055-.82q0-.165-.014-.356a1.5 1.5 0 0 0-.068-.356.6.6 0 0 0-.151-.287.4.4 0 0 0-.287-.11q-.123.001-.273.206-.15.192-.287.451a5 5 0 0 0-.219.506 1.3 1.3 0 0 0-.082.37v.614q.014.3.014.616v.793q-.014.246-.041.505a5 5 0 0 1-.082.506 3 3 0 0 1-.123.479 1.5 1.5 0 0 1-.219.396q-.123.164-.301.274a.8.8 0 0 1-.424.11.6.6 0 0 1-.451-.179 1.3 1.3 0 0 1-.287-.45 3 3 0 0 1-.164-.63 22 22 0 0 1-.068-.683q-.014-.342-.014-.616.014-.286.014-.45v-.643q0-.52-.028-1.026a38 38 0 0 1-.014-1.011v-.698q.014-.423.11-.82.095-.41.314-.697t.643-.287q.191 0 .342.123.15.123.259.3.123.179.192.383.083.205.123.356.137-.191.314-.37.192-.177.424-.314a2.2 2.2 0 0 1 1.176-.3q.698 0 1.08.341.397.328.574.834.191.492.233 1.067.04.574.041 1.039 0 .232-.041.697-.042.45-.137 1.012a12 12 0 0 1-.232 1.134 7.6 7.6 0 0 1-.356 1.053 2.6 2.6 0 0 1-.492.78q-.273.3-.629.3m8.463-2.31q0 .246-.027.642-.014.397-.11.78-.096.369-.301.642a.68.68 0 0 1-.574.274q-.506 0-.779-.329-.273-.328-.26-.82a3.4 3.4 0 0 1-.998.602 3 3 0 0 1-1.121.218q-.396 0-.752-.191a2.4 2.4 0 0 1-.629-.492 2.5 2.5 0 0 1-.437-.67 1.9 1.9 0 0 1-.164-.752q0-.656.396-1.148.41-.493.998-.834a5.7 5.7 0 0 1 1.244-.561 7.5 7.5 0 0 1 1.19-.273v-.123a.5.5 0 0 0 .013-.123q0-.425-.232-.684-.233-.26-.656-.26-.342 0-.588.123-.246.11-.465.26-.219.137-.438.26a1.1 1.1 0 0 1-.492.109.76.76 0 0 1-.519-.191.64.64 0 0 1-.205-.492q0-.452.259-.82.274-.37.67-.616.41-.26.875-.397.479-.15.875-.15.37 0 .739.096.369.082.697.273.328.178.588.451.273.26.437.616.246.506.397 1.08.15.56.232 1.162.082.587.11 1.19.027.587.027 1.148m-2.188-.438-.041-.93h-.054a.1.1 0 0 0-.055-.013q-.178 0-.451.096a2 2 0 0 0-.506.246q-.246.15-.424.341a.6.6 0 0 0-.164.397q0 .19.137.26a.7.7 0 0 0 .314.068 1.6 1.6 0 0 0 .643-.15q.342-.165.601-.315m8.901-6.63q0 .997-.082 1.982a28 28 0 0 0-.069 1.982q0 .807.041 1.6.055.793.055 1.6 0 .218-.014.533-.014.3-.095.587a1.15 1.15 0 0 1-.246.493q-.165.205-.479.205a.88.88 0 0 1-.683-.301 1.5 1.5 0 0 1-.329-.697 2.3 2.3 0 0 1-.752.834 1.83 1.83 0 0 1-1.066.342q-.615 0-1.066-.424a3.7 3.7 0 0 1-.739-1.026 6 6 0 0 1-.437-1.258 5.7 5.7 0 0 1-.137-1.134 8.6 8.6 0 0 1 .178-1.668q.11-.452.273-.875.165-.438.41-.78.26-.342.602-.547.356-.204.807-.205.492 0 .943.288.452.287.684.71l.123-2.173q.013-.26.041-.602.027-.355.109-.67.096-.315.287-.533.192-.219.561-.219.396 0 .615.192.22.19.314.492.11.286.123.629.028.342.028.642m-2.229 6.07q0-.315-.013-.616-.015-.3 0-.615a8 8 0 0 0-.192-.383 1.7 1.7 0 0 0-.273-.396 1.4 1.4 0 0 0-.342-.315.75.75 0 0 0-.41-.123.54.54 0 0 0-.397.15q-.15.151-.218.37a2 2 0 0 0-.096.451 8 8 0 0 0-.014.424 6 6 0 0 0 .123 1.135q.082.328.219.574.136.246.369.246a1 1 0 0 0 .356-.068q.177-.082.328-.192.163-.123.3-.26a6 6 0 0 0 .26-.273zm8.942.998q0 .246-.028.642a3.7 3.7 0 0 1-.109.78q-.096.369-.301.642a.68.68 0 0 1-.574.274q-.506 0-.779-.329-.274-.328-.26-.82a3.4 3.4 0 0 1-.998.602 3 3 0 0 1-1.121.218q-.397 0-.752-.191a2.4 2.4 0 0 1-.629-.492 2.5 2.5 0 0 1-.438-.67 1.9 1.9 0 0 1-.164-.752q0-.656.397-1.148.41-.493.998-.834a5.7 5.7 0 0 1 1.244-.561 7.5 7.5 0 0 1 1.189-.273v-.123a.5.5 0 0 0 .014-.123q0-.425-.232-.684t-.657-.26a1.3 1.3 0 0 0-.587.123q-.247.11-.465.26-.219.137-.438.26-.219.11-.492.109a.76.76 0 0 1-.52-.191.65.65 0 0 1-.205-.492q0-.452.26-.82.274-.37.67-.616.41-.26.875-.397.479-.15.875-.15.369 0 .738.096.37.082.698.273.327.178.588.451.273.26.437.616.246.506.397 1.08.15.56.232 1.162.082.587.109 1.19.028.587.028 1.148m-2.188-.438-.041-.93h-.055a.1.1 0 0 0-.054-.013q-.178 0-.451.096a2 2 0 0 0-.506.246 2 2 0 0 0-.424.341.6.6 0 0 0-.164.397q0 .19.137.26a.7.7 0 0 0 .314.068 1.6 1.6 0 0 0 .643-.15q.341-.165.601-.315m4.99 1.71a.7.7 0 0 1-.082.327.75.75 0 0 1-.218.233 1 1 0 0 1-.287.15.9.9 0 0 1-.315.055q-.205 0-.451-.082a1.6 1.6 0 0 1-.438-.205 1.6 1.6 0 0 1-.328-.315.7.7 0 0 1-.136-.424q0-.369.314-.547a1.22 1.22 0 0 1 1.066-.123q.233.069.424.206a1 1 0 0 1 .328.314.7.7 0 0 1 .123.41"/><defs><filter id="a" width="209.314" height="118.893" x=".426" y="0" color-interpolation-filters="sRGB" filterUnits="userSpaceOnUse"><feFlood flood-opacity="0" result="BackgroundImageFix"/><feBlend in="SourceGraphic" in2="BackgroundImageFix" result="shape"/><feColorMatrix in="SourceAlpha" result="hardAlpha" values="0 0 0 0 0 0 0 0 0 0 0 0 0 0 0 0 0 0 127 0"/><feOffset dy="4"/><feGaussianBlur stdDeviation="2"/><feComposite in2="hardAlpha" k2="-1" k3="1" operator="arithmetic"/><feColorMatrix values="0 0 0 0 0 0 0 0 0 0 0 0 0 0 0 0 0 0 0.25 0"/><feBlend in2="shape" result="effect1_innerShadow_825_176"/></filter></defs></svg>