<svg xmlns="http://www.w3.org/2000/svg" width="297" height="173" fill="none" viewBox="0 0 297 173"><g filter="url(#a)"><path fill="#f4719c" fill-rule="evenodd" d="M69.103 91.373c15.042 5.386 35.131 9.03 57.263 11.152 43.327 4.153 120.296 3.728 140.754-6.311 10.872-5.335 24.442-13.235 27.756-28.397 2.167-9.91.96-20.229-1.572-28.086-6.319-19.612-22.049-26.681-37.967-31.2C237.826 3.561 176.203 1 152.564 1 97.876 1 62.33 8.13 49.452 27.875c-5.807 8.904-7.096 23.848-4.12 35.682C30.504 72.907 11.598 85.88 0 94.034l53.565-14.722c3.987 4.677 9.184 8.845 15.538 12.06" clip-rule="evenodd"/></g><path fill="#f4719c" d="m126.366 102.525.096-.996zM69.103 91.372l-.452.893a1 1 0 0 0 .115.049zm198.017 4.842-.441-.898zm27.756-28.397.977.214zm-1.572-28.086-.952.307zm-37.967-31.2-.273.962zM49.452 27.875l-.837-.546zm-4.12 35.682.534.845a1 1 0 0 0 .436-1.09zM0 94.034l-.575-.818a1 1 0 0 0 .84 1.782zm53.565-14.722.761-.648a1 1 0 0 0-1.026-.316zm-55.994 15.21a1 1 0 1 0 1.153 1.634zm3.004.33a1 1 0 1 0-1.15-1.636zm125.887 6.677c-22.096-2.118-42.092-5.752-57.022-11.098l-.674 1.883c15.154 5.426 35.337 9.081 57.505 11.206zm140.217-6.213c-4.953 2.43-13.455 4.325-24.217 5.711-10.727 1.381-23.585 2.244-37.174 2.665-27.178.841-57.21-.091-78.826-2.163l-.191 1.991c21.711 2.081 51.827 3.014 79.079 2.171 13.627-.422 26.554-1.288 37.367-2.68 10.777-1.388 19.568-3.31 24.843-5.9zM293.9 67.604c-3.202 14.648-16.331 22.368-27.221 27.712l.881 1.796c10.854-5.326 24.867-13.407 28.293-29.081zm-1.548-27.566c2.488 7.722 3.669 17.86 1.548 27.566l1.953.427c2.211-10.114.978-20.614-1.597-28.607zM255.064 9.493c15.842 4.497 31.131 11.434 37.288 30.545l1.904-.614C287.775 19.31 271.604 12.11 255.61 7.57zM152.564 2c11.795 0 33.09.64 53.623 1.9 20.581 1.263 40.247 3.143 48.877 5.593l.546-1.924c-8.88-2.52-28.782-4.406-49.3-5.666C185.744.641 164.408 0 152.564 0zM50.29 28.421c6.234-9.559 18.043-16.19 35.277-20.417C102.784 3.782 125.25 2 152.564 2V0c-27.373 0-50.025 1.783-67.473 6.062-17.43 4.275-29.833 11.081-36.476 21.267zm-3.988 34.892c-1.457-5.796-1.873-12.371-1.21-18.59.666-6.227 2.407-12.022 5.198-16.302l-1.675-1.092c-3.017 4.624-4.824 10.753-5.51 17.182-.689 6.438-.261 13.251 1.258 19.29zM44.8 62.71C29.95 72.074 11.027 85.059-.575 93.216l1.15 1.636c11.592-8.15 30.483-21.112 45.29-30.45zM.265 94.998 53.83 80.277l-.53-1.929L-.265 93.07zm69.29-4.518c-6.24-3.157-11.33-7.244-15.229-11.816l-1.522 1.297c4.075 4.78 9.378 9.03 15.847 12.304zm-70.83 5.676q.89-.63 1.85-1.304l-1.15-1.636q-.962.676-1.854 1.306z"/><path fill="#fff" d="M74.554 40.451q-.835 0-1.45-.424a3.3 3.3 0 0 1-1.025-1.107 6 6 0 0 1-.601-1.64 9.7 9.7 0 0 1 .013-3.897 6.6 6.6 0 0 1 .656-1.778q.438-.792 1.108-1.298.67-.507 1.6-.506.901 0 1.503.492.615.478.971 1.258.37.765.52 1.722.164.957.164 1.914 0 1.067-.22 2.024a5.4 5.4 0 0 1-.642 1.668 3.36 3.36 0 0 1-1.08 1.148q-.642.424-1.517.424m.164-7.629a.6.6 0 0 0-.451.205 1.7 1.7 0 0 0-.301.547q-.123.329-.178.752a6 6 0 0 0-.055.834q0 .48.055.957.069.48.192.861.122.383.3.616.192.232.451.232.301 0 .479-.3.178-.302.273-.725.11-.424.137-.875.04-.452.041-.752a6 6 0 0 0-.055-.78 3.7 3.7 0 0 0-.15-.751 1.9 1.9 0 0 0-.287-.588.55.55 0 0 0-.451-.233m13.617 3.104q0 .6-.137 1.326a4.6 4.6 0 0 1-.437 1.326q-.3.615-.807 1.025-.492.41-1.244.41-.192 0-.396-.027a2 2 0 0 1-.397-.095 1.4 1.4 0 0 1-.328-.178.8.8 0 0 1-.233-.315l-.123 1.97a63 63 0 0 0-.027.751q0 .438-.11.834a1.5 1.5 0 0 1-.341.67q-.233.288-.684.287-.26 0-.437-.273a2.2 2.2 0 0 1-.287-.67 8 8 0 0 1-.15-.916q-.055-.506-.07-.97-.012-.465-.013-.849v-.56q0-.916-.013-1.819-.014-.915-.014-1.831v-.506q0-.356.027-.766.028-.41.082-.848.069-.437.192-.793a1.7 1.7 0 0 1 .314-.587.58.58 0 0 1 .465-.233q.177 0 .314.11.15.095.247.26.11.15.177.327.068.178.11.329.423-.48.97-.725.56-.246 1.19-.246.656 0 1.066.369.425.369.656.916.246.546.342 1.176.096.615.096 1.12m-1.955-.11q0-.204-.041-.41a1.1 1.1 0 0 0-.123-.396.67.67 0 0 0-.246-.301.66.66 0 0 0-.41-.123q-.33 0-.698.219a1.5 1.5 0 0 0-.533.478q-.068.11-.082.356t-.014.369v.26a42 42 0 0 1 .055.629q.027.15.068.232.042.123.178.232.137.096.301.178.165.083.328.123.178.041.3.041a.57.57 0 0 0 .466-.219q.178-.218.273-.52.11-.3.137-.614.04-.33.04-.534m8.6 2.256q0 .246-.028.643-.013.396-.11.78-.095.368-.3.642a.68.68 0 0 1-.574.273q-.506 0-.78-.328-.273-.328-.26-.82a3.4 3.4 0 0 1-.997.601 3 3 0 0 1-1.121.219q-.397 0-.752-.191a2.4 2.4 0 0 1-.63-.493 2.5 2.5 0 0 1-.437-.67 1.9 1.9 0 0 1-.164-.751q0-.656.397-1.149.41-.492.998-.834a5.7 5.7 0 0 1 1.244-.56 7.5 7.5 0 0 1 1.19-.274v-.123a.5.5 0 0 0 .013-.123q0-.423-.233-.684-.231-.26-.656-.26a1.3 1.3 0 0 0-.588.124q-.246.11-.464.26a11 11 0 0 1-.438.26q-.219.108-.492.109a.76.76 0 0 1-.52-.192.64.64 0 0 1-.205-.492q0-.45.26-.82.274-.369.67-.616.41-.26.875-.396.478-.15.875-.15.369 0 .738.095.37.082.698.274.327.178.587.451.274.26.438.615.246.506.396 1.08.15.56.233 1.162.08.588.11 1.19.026.588.026 1.148m-2.188-.437-.041-.93h-.055a.1.1 0 0 0-.054-.014 1.4 1.4 0 0 0-.452.096 2 2 0 0 0-.505.246 2 2 0 0 0-.424.342.6.6 0 0 0-.164.397q0 .19.136.26a.7.7 0 0 0 .315.068q.3 0 .642-.15.342-.165.602-.315m.834-6.645q0 .11-.041.137-.04.027-.137.027-.164 0-.369-.082a3 3 0 0 1-.396-.205 9 9 0 0 1-.383-.26 6 6 0 0 1-.301-.246q-.136.11-.328.26-.178.15-.383.287a5 5 0 0 1-.41.219 1 1 0 0 1-.383.082.4.4 0 0 1-.137-.027q-.054-.028-.054-.137 0-.205.177-.52.178-.315.438-.601.26-.288.547-.492t.506-.205.506.205q.286.19.533.465.26.273.437.574.178.3.178.52m6.057 9.393q-.232 0-.37-.219a1.5 1.5 0 0 1-.205-.479 4 4 0 0 1-.095-.546 8 8 0 0 1 .027-1.258l.11-.82q.067-.41.109-.82.054-.411.055-.821 0-.165-.014-.355a1.4 1.4 0 0 0-.069-.356.6.6 0 0 0-.15-.287.4.4 0 0 0-.287-.11q-.123 0-.273.206-.15.191-.288.45a5 5 0 0 0-.218.507 1.3 1.3 0 0 0-.082.369v.615q.013.3.013.615v.793q-.013.246-.04.506a5 5 0 0 1-.083.506 3 3 0 0 1-.123.478 1.5 1.5 0 0 1-.219.397q-.123.164-.3.273a.8.8 0 0 1-.424.11.6.6 0 0 1-.451-.178 1.3 1.3 0 0 1-.287-.451 3 3 0 0 1-.165-.63q-.04-.354-.068-.683-.014-.342-.014-.615.014-.287.014-.451v-.643q0-.52-.027-1.025-.014-.506-.014-1.012v-.697q.015-.424.11-.82.095-.41.314-.698.219-.287.642-.287.192 0 .342.123.15.124.26.301.123.178.192.383.081.205.123.355.136-.19.314-.369.192-.177.424-.314a2.2 2.2 0 0 1 1.176-.301q.696 0 1.08.342.396.328.574.834.192.492.232 1.066t.041 1.04q0 .231-.041.697-.041.45-.136 1.011-.083.547-.233 1.135a7.6 7.6 0 0 1-.355 1.053 2.6 2.6 0 0 1-.492.779q-.274.3-.63.3m7.724-5.633a1 1 0 0 1-.013.15 1 1 0 0 1-.041.137q-.123.315-.383.533a.97.97 0 0 1-.616.205q-.533 0-.724-.533a.4.4 0 0 1-.027-.15 1.4 1.4 0 0 0-.014-.192v-.396a.8.8 0 0 0-.096-.3q-.068-.11-.232-.11-.233 0-.451.3-.205.288-.37.698-.15.397-.246.82-.095.424-.095.684 0 .204.027.506.028.287.109.56.082.273.219.479.15.19.383.191a.7.7 0 0 0 .424-.137q.205-.15.396-.342.178-.164.383-.341a.76.76 0 0 1 .492-.178q.342 0 .533.246a.85.85 0 0 1 .206.56q0 .465-.247.876a2.8 2.8 0 0 1-.615.697 3 3 0 0 1-.82.451 2.4 2.4 0 0 1-.861.178q-.74 0-1.258-.37a2.9 2.9 0 0 1-.821-.929 4.4 4.4 0 0 1-.451-1.244 6.4 6.4 0 0 1-.136-1.272q0-.697.191-1.504a5.6 5.6 0 0 1 .588-1.517 3.8 3.8 0 0 1 1.012-1.162q.629-.465 1.49-.465.533 0 .916.232.396.232.642.616.26.369.383.834.137.465.137.916v.136a1 1 0 0 1-.014.137m5.51.137a.9.9 0 0 1-.328-.028l-.52-.205a.54.54 0 0 0-.273-.04q-.273.013-.492.15a2 2 0 0 0-.383.341 2.4 2.4 0 0 0-.287.465 3 3 0 0 0-.192.492q-.04.165-.068.506a17 17 0 0 0-.014.711q-.013.397-.013.752 0 .356-.028.56a5 5 0 0 1-.068.52 2.2 2.2 0 0 1-.178.547 1.25 1.25 0 0 1-.301.438.7.7 0 0 1-.492.177.65.65 0 0 1-.41-.136 1.3 1.3 0 0 1-.287-.356 3 3 0 0 1-.191-.533 7 7 0 0 1-.11-.615q-.04-.329-.068-.656l-.027-.616v-.546q.013-.247.013-.397a17 17 0 0 0-.054-.957 17 17 0 0 1-.028-.97q0-.302.028-.67.027-.37.15-.684.123-.328.355-.547.247-.219.67-.219.232 0 .397.15.164.15.26.37.108.218.164.465.054.245.068.45a3.3 3.3 0 0 1 .738-.86q.41-.343 1.067-.37.328-.014.642.069.329.068.588.246.273.164.438.437.177.273.191.643.028.437-.26.67a1.14 1.14 0 0 1-.697.246m6.891 2.68q0 .465-.301.915a3.4 3.4 0 0 1-.738.793 4.3 4.3 0 0 1-.944.56 2.5 2.5 0 0 1-.929.206q-.726 0-1.299-.355a3.4 3.4 0 0 1-.944-.93 4.5 4.5 0 0 1-.588-1.23 5 5 0 0 1-.191-1.327q0-.684.191-1.463.192-.78.575-1.435a3.8 3.8 0 0 1 .984-1.094q.601-.437 1.422-.437.465 0 .889.164a2.15 2.15 0 0 1 1.244 1.12q.19.397.191.89 0 .642-.273 1.203a3.2 3.2 0 0 1-.725.97 3.8 3.8 0 0 1-1.039.67 3.5 3.5 0 0 1-1.203.273q.054.397.314.575.274.177.643.178.273 0 .533-.137a6 6 0 0 0 .506-.301q.246-.177.478-.315.247-.136.493-.136a.76.76 0 0 1 .492.178.57.57 0 0 1 .219.464m-2.215-3.35a.8.8 0 0 0-.096-.37.32.32 0 0 0-.301-.19q-.3 0-.506.163-.204.15-.341.397a2.3 2.3 0 0 0-.219.506q-.069.273-.082.505.191-.04.451-.109a3 3 0 0 0 .506-.178q.246-.123.41-.3a.58.58 0 0 0 .178-.424m8.572 3.855q0 .246-.027.643a3.7 3.7 0 0 1-.11.78q-.095.368-.3.642a.68.68 0 0 1-.575.273q-.506 0-.779-.328t-.26-.82a3.3 3.3 0 0 1-.998.601 3 3 0 0 1-1.121.219q-.396 0-.752-.191a2.4 2.4 0 0 1-.629-.493 2.5 2.5 0 0 1-.437-.67 1.9 1.9 0 0 1-.164-.751q0-.656.396-1.149.41-.492.998-.834a5.7 5.7 0 0 1 1.244-.56 7.5 7.5 0 0 1 1.19-.274v-.123a.5.5 0 0 0 .013-.123q0-.423-.232-.684-.233-.26-.656-.26a1.3 1.3 0 0 0-.588.124q-.246.11-.465.26-.22.135-.437.26-.219.108-.493.109a.76.76 0 0 1-.519-.192.64.64 0 0 1-.205-.492q0-.45.26-.82.273-.369.669-.616.411-.26.875-.396.479-.15.875-.15.37 0 .739.095.369.082.697.274.329.178.588.451.273.26.437.615.246.506.397 1.08.15.56.232 1.162.082.588.11 1.19.027.588.027 1.148m-2.187-.437-.041-.93h-.055a.1.1 0 0 0-.055-.014 1.4 1.4 0 0 0-.451.096 2 2 0 0 0-.506.246q-.246.15-.424.342a.6.6 0 0 0-.164.397q0 .19.137.26a.7.7 0 0 0 .314.068 1.6 1.6 0 0 0 .643-.15q.341-.165.602-.315m7.013-5.154q0 .396-.273.587-.26.192-.588.37-.328.163-.602.396-.26.232-.259.697 0 .246.109.424.123.178.287.328.178.137.383.287t.369.342q.177.192.287.465.123.273.123.67 0 .574-.301 1.135a3.7 3.7 0 0 1-.752.984q-.45.424-1.025.684-.574.26-1.135.26-.232 0-.465-.042a1.3 1.3 0 0 1-.423-.123.9.9 0 0 1-.301-.26.8.8 0 0 1-.123-.45q0-.384.15-.588.15-.219.383-.342t.492-.192q.273-.068.506-.164.233-.11.383-.273.15-.165.15-.465 0-.287-.232-.588-.219-.315-.492-.656a7 7 0 0 1-.506-.752 1.8 1.8 0 0 1-.219-.875q0-.588.232-1.08.246-.507.643-.875.41-.37.93-.574a2.8 2.8 0 0 1 1.093-.22q.22 0 .424.042.22.04.383.15a.7.7 0 0 1 .26.274.75.75 0 0 1 .109.423m10.104 3.445q0 .6-.137 1.326a4.7 4.7 0 0 1-.437 1.326 3 3 0 0 1-.807 1.025q-.492.41-1.244.41-.192 0-.397-.027a2 2 0 0 1-.396-.095 1.4 1.4 0 0 1-.328-.178.8.8 0 0 1-.233-.315l-.123 1.97q-.014.314-.027.751 0 .438-.11.834a1.5 1.5 0 0 1-.341.67q-.233.288-.684.287-.26 0-.437-.273a2.2 2.2 0 0 1-.288-.67 8 8 0 0 1-.15-.916q-.054-.506-.068-.97-.014-.465-.014-.849v-.56q0-.916-.014-1.819-.013-.915-.013-1.831v-.506q0-.356.027-.766.028-.41.082-.848.069-.437.191-.793.123-.37.315-.587a.58.58 0 0 1 .465-.233q.177 0 .314.11.15.095.246.26.11.15.178.327.069.178.109.329.425-.48.971-.725.56-.246 1.19-.246.656 0 1.066.369.424.369.656.916.246.546.342 1.176.096.615.096 1.12m-1.955-.11q0-.204-.041-.41a1.2 1.2 0 0 0-.123-.396.67.67 0 0 0-.247-.301.66.66 0 0 0-.41-.123q-.327 0-.697.219a1.5 1.5 0 0 0-.533.478q-.069.11-.082.356a8 8 0 0 0-.014.369v.26l.028.314.027.315q.027.15.068.232.042.123.178.232.136.096.301.178.163.083.328.123.178.041.301.041a.57.57 0 0 0 .464-.219q.178-.218.274-.52.109-.3.137-.614a5 5 0 0 0 .041-.534m8.517 1.75q0 .466-.301.916a3.3 3.3 0 0 1-.738.793 4.3 4.3 0 0 1-.943.56 2.5 2.5 0 0 1-.93.206q-.724 0-1.299-.355a3.4 3.4 0 0 1-.943-.93 4.5 4.5 0 0 1-.588-1.23 5 5 0 0 1-.191-1.327q0-.684.191-1.463.192-.78.574-1.435.397-.657.985-1.094.601-.437 1.422-.437.464 0 .888.164.424.15.738.437.315.287.506.684.192.396.192.888 0 .643-.274 1.204a3.2 3.2 0 0 1-.724.97 3.8 3.8 0 0 1-1.039.67 3.5 3.5 0 0 1-1.204.273q.056.397.315.575.273.177.643.178.273 0 .533-.137a6 6 0 0 0 .506-.301q.246-.177.478-.315.246-.136.492-.136.274 0 .492.178a.57.57 0 0 1 .219.464m-2.215-3.35a.8.8 0 0 0-.095-.368.32.32 0 0 0-.301-.192.8.8 0 0 0-.506.164q-.206.15-.342.397a2.3 2.3 0 0 0-.219.506q-.067.273-.082.505.191-.04.452-.109.274-.068.505-.178.247-.123.411-.3a.58.58 0 0 0 .177-.424m7.506.67a.9.9 0 0 1-.328-.027l-.273-.109a3 3 0 0 0-.246-.096.54.54 0 0 0-.274-.04q-.273.013-.492.15a2 2 0 0 0-.383.341 2.4 2.4 0 0 0-.287.465 2.7 2.7 0 0 0-.191.492q-.041.165-.069.506a17 17 0 0 0-.013.711q-.014.397-.014.752 0 .356-.027.56-.014.22-.069.52a2.2 2.2 0 0 1-.178.547 1.2 1.2 0 0 1-.3.438.7.7 0 0 1-.492.177.66.66 0 0 1-.411-.136 1.3 1.3 0 0 1-.287-.356 3.3 3.3 0 0 1-.191-.533 7 7 0 0 1-.11-.615q-.04-.329-.068-.656l-.027-.616v-.546q.013-.247.013-.397a17 17 0 0 0-.054-.957 18 18 0 0 1-.028-.97q0-.302.028-.67.027-.37.15-.684.123-.328.356-.547.246-.219.67-.219.232 0 .396.15t.26.37q.109.218.164.465.054.245.068.45a3.3 3.3 0 0 1 .738-.86q.41-.343 1.067-.37.328-.014.642.069.329.068.588.246.274.164.438.437.177.273.191.643.028.437-.259.67a1.14 1.14 0 0 1-.698.246m6.235-.136a.8.8 0 0 1-.055.287q-.123.315-.383.533a.96.96 0 0 1-.615.205q-.534 0-.725-.533a.4.4 0 0 1-.027-.15 1.4 1.4 0 0 0-.014-.192v-.396a.8.8 0 0 0-.095-.3q-.068-.11-.233-.11-.232 0-.451.3a3.3 3.3 0 0 0-.369.698q-.15.397-.246.82-.096.424-.096.684 0 .204.027.506.028.287.11.56.081.273.218.479a.47.47 0 0 0 .383.191.7.7 0 0 0 .424-.137q.205-.15.397-.342.178-.164.382-.341a.76.76 0 0 1 .493-.178q.34 0 .533.246a.85.85 0 0 1 .205.56q0 .465-.246.876a2.8 2.8 0 0 1-.615.697q-.37.287-.821.451a2.4 2.4 0 0 1-.861.178q-.738 0-1.258-.37a2.9 2.9 0 0 1-.82-.929 4.4 4.4 0 0 1-.451-1.244 6.3 6.3 0 0 1-.137-1.272q0-.697.191-1.504a5.7 5.7 0 0 1 .588-1.517 3.8 3.8 0 0 1 1.012-1.162q.629-.465 1.49-.465.534 0 .916.232.397.232.643.616.26.369.383.834.136.465.136.916v.136a.7.7 0 0 1-.013.137m6.494 2.816q0 .466-.301.916a3.4 3.4 0 0 1-.738.793 4.3 4.3 0 0 1-.944.56 2.5 2.5 0 0 1-.929.206q-.724 0-1.299-.355a3.4 3.4 0 0 1-.944-.93 4.5 4.5 0 0 1-.587-1.23 5 5 0 0 1-.192-1.327q0-.684.192-1.463.191-.78.574-1.435a3.8 3.8 0 0 1 .984-1.094q.601-.437 1.422-.437.465 0 .889.164a2.15 2.15 0 0 1 1.244 1.12q.19.397.191.89 0 .642-.273 1.203a3.2 3.2 0 0 1-.725.97 3.8 3.8 0 0 1-1.039.67 3.5 3.5 0 0 1-1.203.273q.054.397.314.575.274.177.643.178.273 0 .533-.137a6 6 0 0 0 .506-.301 6 6 0 0 1 .479-.315q.246-.136.492-.136a.76.76 0 0 1 .492.178.57.57 0 0 1 .219.464m-2.215-3.35a.8.8 0 0 0-.096-.368.32.32 0 0 0-.301-.192q-.3 0-.505.164-.205.15-.342.397a2.3 2.3 0 0 0-.219.506q-.069.273-.082.505.192-.04.451-.109a3 3 0 0 0 .506-.178q.246-.123.41-.3a.58.58 0 0 0 .178-.424m9.228 1.272q0 .397-.068.903-.054.492-.191 1.011a5.7 5.7 0 0 1-.342 1.012q-.205.492-.52.889-.3.383-.711.615a1.8 1.8 0 0 1-.929.232q-.561 0-1.026-.26-.45-.26-.779-.71a1.15 1.15 0 0 1-.301.656.87.87 0 0 1-.656.273q-.232 0-.396-.232a2 2 0 0 1-.247-.588 6 6 0 0 1-.15-.807 14 14 0 0 1-.055-.847q-.013-.411-.013-.738v-1.395l.027-.943q0-.233-.014-.698 0-.465.014-1.025.013-.574.055-1.162.054-.602.177-1.094t.342-.807.561-.328q.273 0 .465.192.19.19.314.506.137.315.205.71a6 6 0 0 1 .11.78q.04.382.041.738.013.342.013.56 0 .042-.013.192v.738q.123-.26.355-.505.232-.247.52-.438.286-.192.601-.315.315-.122.602-.123.573 0 .957.301.396.288.629.739.232.45.328.984.095.519.095.984m-2.009.41q0-.163-.028-.355a1 1 0 0 0-.095-.355.7.7 0 0 0-.205-.274.48.48 0 0 0-.329-.11q-.218 0-.437.096a2 2 0 0 0-.397.247q-.191.15-.355.328-.164.163-.287.328l-.137 1.217q.22.315.533.505.315.178.711.178a.66.66 0 0 0 .492-.191q.205-.192.315-.465.123-.287.164-.602.054-.315.055-.547m8.572 1.668q0 .466-.301.916a3.3 3.3 0 0 1-.738.793 4.3 4.3 0 0 1-.943.56 2.5 2.5 0 0 1-.93.206q-.724 0-1.299-.355a3.4 3.4 0 0 1-.943-.93 4.5 4.5 0 0 1-.588-1.23 5 5 0 0 1-.192-1.327q0-.684.192-1.463.191-.78.574-1.435a3.8 3.8 0 0 1 .984-1.094q.602-.437 1.422-.437.465 0 .889.164a2.14 2.14 0 0 1 1.244 1.12q.191.397.191.89 0 .642-.273 1.203a3.2 3.2 0 0 1-.725.97q-.45.41-1.039.67a3.5 3.5 0 0 1-1.203.273q.055.397.315.575.273.177.642.178.274 0 .533-.137a6 6 0 0 0 .506-.301 6 6 0 0 1 .479-.315q.246-.136.492-.136a.76.76 0 0 1 .492.178.57.57 0 0 1 .219.464m-2.215-3.35a.8.8 0 0 0-.096-.368.315.315 0 0 0-.3-.192.78.78 0 0 0-.506.164q-.206.15-.342.397a2.3 2.3 0 0 0-.219.506q-.068.273-.082.505.192-.04.451-.109.274-.068.506-.178.246-.123.41-.3a.58.58 0 0 0 .178-.424m12.414-.573-.219 1.982a28 28 0 0 0-.15 1.969 29 29 0 0 0-.055 2.146q.014 1.012.014 2.147 0 .273-.014.67 0 .397-.095.765a1.6 1.6 0 0 1-.315.63q-.205.258-.629.259a.54.54 0 0 1-.355-.123 1.2 1.2 0 0 1-.246-.328 2.4 2.4 0 0 1-.164-.438 8 8 0 0 1-.096-.506q-.069-.532-.082-1.066v-2.598q-.315.41-.82.63a2.6 2.6 0 0 1-.985.204q-.615 0-1.066-.287a2.6 2.6 0 0 1-.725-.752 3.6 3.6 0 0 1-.424-1.012 4.4 4.4 0 0 1-.136-1.066v-.082q0-.71.218-1.531.219-.834.643-1.545a4.1 4.1 0 0 1 1.08-1.176q.656-.478 1.518-.478.465 0 .847.191.397.191.561.629.11-.315.328-.506a.86.86 0 0 1 .588-.205q.451 0 .629.3.19.288.191.643 0 .15-.014.274zm-3.144.328q-.315 0-.588.26a2.4 2.4 0 0 0-.479.615 3.6 3.6 0 0 0-.328.765 3 3 0 0 0-.109.725q0 .192.027.41.041.219.109.424.082.191.206.328a.5.5 0 0 0 .341.123q.179 0 .41-.082.247-.096.479-.232.233-.15.41-.329.178-.177.246-.341.041-.096.069-.287.026-.192.041-.397a8 8 0 0 0 .054-.738q0-.165-.082-.37a1.7 1.7 0 0 0-.191-.41 1.1 1.1 0 0 0-.287-.328.52.52 0 0 0-.328-.136m9.789 2.119q0 .752-.151 1.49a4.1 4.1 0 0 1-.506 1.326 2.75 2.75 0 0 1-.957.93q-.588.355-1.476.355-.875 0-1.463-.341a2.8 2.8 0 0 1-.943-.93 4.2 4.2 0 0 1-.493-1.299 8 8 0 0 1-.136-1.477q0-.82.191-1.626.041-.22.15-.602.124-.397.301-.766.192-.383.424-.656.246-.273.533-.273.274 0 .438.15t.26.383q.094.219.123.478.027.247.027.452 0 .314-.055.615-.04.3-.095.601l-.11.82a8 8 0 0 0-.027 1.286q.028.246.109.478.082.233.233.397.15.15.423.15.356 0 .561-.191.22-.191.314-.479.11-.287.137-.615.027-.329.028-.602 0-.6-.083-1.175a53 53 0 0 1-.15-1.19 1.3 1.3 0 0 1 .055-.602q.068-.204.191-.368a.9.9 0 0 1 .301-.26.74.74 0 0 1 .396-.11q.302 0 .534.22.232.204.382.546.165.329.26.752.11.41.164.82.069.397.082.752.028.356.028.56m6.644 1.982q0 .246-.027.643a3.7 3.7 0 0 1-.11.78q-.095.368-.3.642a.68.68 0 0 1-.575.273q-.506 0-.779-.328t-.26-.82a3.3 3.3 0 0 1-.998.601 3 3 0 0 1-1.121.219q-.396 0-.752-.191a2.4 2.4 0 0 1-.629-.493 2.5 2.5 0 0 1-.437-.67 1.9 1.9 0 0 1-.164-.751q0-.656.396-1.149.41-.492.998-.834a5.7 5.7 0 0 1 1.245-.56 7.4 7.4 0 0 1 1.189-.274v-.123a.5.5 0 0 0 .014-.123q0-.423-.233-.684-.232-.26-.656-.26a1.3 1.3 0 0 0-.588.124q-.246.11-.465.26-.219.135-.437.26-.219.108-.492.109a.76.76 0 0 1-.52-.192.64.64 0 0 1-.205-.492q0-.45.26-.82.273-.369.67-.616.41-.26.875-.396.478-.15.875-.15.369 0 .738.095.369.082.697.274.328.178.588.451.273.26.438.615.246.506.396 1.08.15.56.232 1.162.083.588.11 1.19.027.588.027 1.148m-2.187-.437-.041-.93h-.055a.1.1 0 0 0-.055-.014 1.4 1.4 0 0 0-.451.096 2 2 0 0 0-.506.246q-.246.15-.424.342a.6.6 0 0 0-.164.397q0 .19.137.26a.7.7 0 0 0 .315.068q.3 0 .642-.15.342-.165.602-.315m6.89 2.748q-.232 0-.369-.219a1.5 1.5 0 0 1-.205-.479 4 4 0 0 1-.096-.546 8 8 0 0 1 .028-1.258l.109-.82q.069-.41.11-.82.054-.411.054-.821 0-.165-.013-.355a1.5 1.5 0 0 0-.069-.356.6.6 0 0 0-.15-.287.4.4 0 0 0-.287-.11q-.124 0-.274.206-.15.191-.287.45a5 5 0 0 0-.219.507 1.3 1.3 0 0 0-.082.369v.615q.014.3.014.615v.793q-.014.246-.041.506a5 5 0 0 1-.082.506 3 3 0 0 1-.123.478 1.5 1.5 0 0 1-.219.397q-.123.164-.301.273a.8.8 0 0 1-.423.11.6.6 0 0 1-.452-.178 1.3 1.3 0 0 1-.287-.451 3.2 3.2 0 0 1-.164-.63 22 22 0 0 1-.068-.683 16 16 0 0 1-.014-.615q.014-.287.014-.451v-.643q0-.52-.027-1.025-.014-.506-.014-1.012v-.697q.013-.424.109-.82.096-.41.315-.698.218-.287.642-.287.192 0 .342.123.15.124.26.301.123.178.191.383.083.205.123.355a3 3 0 0 1 .315-.369q.191-.177.424-.314a2.2 2.2 0 0 1 1.175-.301q.698 0 1.08.342.397.328.575.834.191.492.232 1.066.04.575.041 1.04 0 .231-.041.697-.04.45-.137 1.011-.081.547-.232 1.135a7.4 7.4 0 0 1-.356 1.053q-.204.479-.492.779-.273.3-.629.3m8.545-9.38q0 .999-.082 1.983a29 29 0 0 0-.068 1.983q0 .806.041 1.6.055.792.055 1.599 0 .22-.014.533-.013.3-.096.588a1.1 1.1 0 0 1-.246.492q-.164.205-.478.205a.89.89 0 0 1-.684-.3 1.5 1.5 0 0 1-.328-.698 2.34 2.34 0 0 1-.752.834 1.83 1.83 0 0 1-1.066.342q-.616 0-1.067-.424a3.7 3.7 0 0 1-.738-1.025 6 6 0 0 1-.438-1.258 5.7 5.7 0 0 1-.136-1.135q0-.341.041-.779t.136-.889q.11-.45.274-.875a3.3 3.3 0 0 1 .41-.779 2.1 2.1 0 0 1 .601-.547q.355-.205.807-.205.493 0 .943.287.451.288.684.711l.123-2.174q.014-.26.041-.601.027-.355.11-.67.095-.315.287-.533.19-.22.56-.22.397 0 .615.192.219.192.315.492.11.288.123.63.027.34.027.642m-2.228 6.071q0-.314-.014-.615a7 7 0 0 1 0-.615 8 8 0 0 0-.191-.383 1.7 1.7 0 0 0-.274-.396 1.4 1.4 0 0 0-.342-.315.74.74 0 0 0-.41-.123.54.54 0 0 0-.396.15q-.15.15-.219.37a2.2 2.2 0 0 0-.096.45 8 8 0 0 0-.013.425q0 .164.027.492.027.314.096.642.081.328.218.575.138.245.37.246a1 1 0 0 0 .355-.069q.178-.082.328-.191.165-.123.301-.26.15-.15.26-.273zm5.728 3.323q-.697 0-1.217-.37a3.2 3.2 0 0 1-.875-.943 4.5 4.5 0 0 1-.533-1.272 5.8 5.8 0 0 1-.177-1.394q0-.725.177-1.49.178-.78.547-1.408a3.15 3.15 0 0 1 .943-1.04q.575-.41 1.368-.41.765 0 1.299.424.546.41.875 1.04.327.614.464 1.353.137.738.096 1.394-.041.725-.232 1.463a4.7 4.7 0 0 1-.534 1.326 3 3 0 0 1-.902.957q-.546.37-1.299.37m.137-6.18q-.206 0-.369.218-.15.219-.26.534a5 5 0 0 0-.15.67 4 4 0 0 0-.055.601q0 .329.055.711.067.383.177.711.11.315.26.533.165.205.369.205.219 0 .369-.205.165-.205.26-.52.096-.314.137-.683.04-.383.041-.71 0-.302-.055-.657a3.7 3.7 0 0 0-.164-.684 1.5 1.5 0 0 0-.26-.52q-.15-.204-.355-.204m12.633 3.855q0 .246-.028.643a3.7 3.7 0 0 1-.109.78q-.096.368-.301.642a.68.68 0 0 1-.574.273q-.506 0-.779-.328-.274-.328-.26-.82a3.4 3.4 0 0 1-.998.601 3 3 0 0 1-1.121.219q-.396 0-.752-.191a2.3 2.3 0 0 1-.629-.493 2.5 2.5 0 0 1-.437-.67 1.9 1.9 0 0 1-.165-.751q0-.656.397-1.149.41-.492.998-.834a5.7 5.7 0 0 1 1.244-.56 7.5 7.5 0 0 1 1.19-.274v-.123a.5.5 0 0 0 .013-.123q0-.423-.232-.684-.233-.26-.656-.26a1.3 1.3 0 0 0-.588.124q-.246.11-.465.26-.219.135-.438.26-.218.108-.492.109a.76.76 0 0 1-.519-.192.64.64 0 0 1-.205-.492q0-.45.259-.82.274-.369.67-.616.41-.26.875-.396.479-.15.875-.15.369 0 .739.095.369.082.697.274.328.178.588.451.273.26.437.615.246.506.397 1.08.15.56.232 1.162.082.588.109 1.19.028.588.028 1.148m-2.188-.437-.041-.93h-.054a.1.1 0 0 0-.055-.014q-.178 0-.451.096a2 2 0 0 0-.506.246q-.246.15-.424.342a.6.6 0 0 0-.164.397q0 .19.137.26a.7.7 0 0 0 .314.068 1.6 1.6 0 0 0 .643-.15q.342-.165.601-.315m12.496-2.297q0 .698-.027 1.394-.014.698-.068 1.395-.041.602-.11 1.285-.068.684-.218 1.354a8.4 8.4 0 0 1-.397 1.299q-.246.628-.656 1.107a3 3 0 0 1-.971.766q-.574.286-1.367.287-.369 0-.834-.123a3.6 3.6 0 0 1-.861-.329 2.5 2.5 0 0 1-.684-.546 1.1 1.1 0 0 1-.273-.739q0-.314.218-.588a.76.76 0 0 1 .588-.26q.22 0 .41.069.205.082.397.178.205.095.383.164a1 1 0 0 0 .382.082q.506 0 .848-.26.342-.246.547-.642.205-.383.301-.848.11-.452.15-.861-.273.314-.642.437-.356.11-.752.11-.725 0-1.231-.247a2.3 2.3 0 0 1-.82-.697q-.315-.45-.465-1.04-.15-.587-.15-1.27 0-.424.082-.958.095-.532.273-1.08.178-.546.438-1.066a4.5 4.5 0 0 1 .629-.916 3.1 3.1 0 0 1 .792-.643q.451-.246.985-.246.52 0 .916.301.41.3.478.848.151-.288.397-.56a.76.76 0 0 1 .601-.288q.192 0 .315.191.136.192.205.506.083.3.123.67.041.355.055.711.013.342.013.63zm-2.078.889q0-.205-.068-.534a3 3 0 0 0-.178-.628 1.8 1.8 0 0 0-.287-.52.53.53 0 0 0-.424-.219.82.82 0 0 0-.56.219 2 2 0 0 0-.397.533q-.164.301-.26.656a2.6 2.6 0 0 0-.082.588q0 .178.028.479.027.3.109.588.096.287.246.492a.47.47 0 0 0 .397.205q.369 0 .642-.178.274-.178.451-.451.192-.273.288-.602t.095-.628m5.606-4.512q0 .738-.069 1.49-.054.738-.054 1.49 0 .971.054 1.942.069.97.069 1.955 0 .245-.028.56-.027.301-.136.56a1.05 1.05 0 0 1-.301.438q-.205.178-.547.178-.328 0-.574-.328a2.9 2.9 0 0 1-.397-.807q-.15-.505-.259-1.12-.096-.615-.151-1.19-.04-.588-.068-1.067-.014-.492-.014-.724 0-.26.014-.752a17 17 0 0 1 .273-2.229 6.3 6.3 0 0 1 .315-1.08q.191-.492.451-.793.273-.315.642-.314.301 0 .452.205.163.191.232.478.069.274.082.588.014.3.014.52m3.295-1.258a.57.57 0 0 1-.11.342q-.096.15-.259.273-.165.11-.356.178a1.3 1.3 0 0 1-.355.055.84.84 0 0 1-.479-.137q-.205-.136-.205-.424 0-.205.096-.355a.9.9 0 0 1 .259-.26q.151-.11.342-.164t.369-.055a.96.96 0 0 1 .479.123q.219.123.219.424m.109 4.648v.41q0 .206-.014.397a12 12 0 0 0-.013.629q0 .383-.028.834-.027.45-.095.916-.056.465-.192.848a1.8 1.8 0 0 1-.369.629.78.78 0 0 1-.56.246.5.5 0 0 1-.438-.205 1.9 1.9 0 0 1-.301-.561 5 5 0 0 1-.164-.78 15 15 0 0 1-.082-.833 12 12 0 0 1-.027-.752v-1.121q0-.41.027-.875t.096-.944q.082-.478.219-.875.15-.396.382-.642a.77.77 0 0 1 .588-.246q.369 0 .561.369.19.369.287.861t.109.985q.014.478.014.71m6.043-.355a.7.7 0 0 1-.055.287q-.122.315-.383.533a.96.96 0 0 1-.615.205q-.533 0-.724-.533a.4.4 0 0 1-.028-.15q0-.096-.013-.192v-.396a.8.8 0 0 0-.096-.3q-.069-.11-.232-.11-.233 0-.452.3a3.4 3.4 0 0 0-.369.698q-.15.397-.246.82-.096.424-.096.684 0 .204.028.506.027.287.109.56t.219.479q.15.19.383.191a.7.7 0 0 0 .424-.137q.204-.15.396-.342.177-.164.383-.341a.76.76 0 0 1 .492-.178q.342 0 .533.246a.85.85 0 0 1 .205.56q0 .465-.246.876a2.8 2.8 0 0 1-.615.697q-.37.287-.82.451a2.4 2.4 0 0 1-.862.178q-.738 0-1.258-.37a2.9 2.9 0 0 1-.82-.929 4.4 4.4 0 0 1-.451-1.244 6.4 6.4 0 0 1-.137-1.272q0-.697.192-1.504a5.6 5.6 0 0 1 .588-1.517 3.8 3.8 0 0 1 1.011-1.162q.63-.465 1.491-.465.532 0 .916.232.396.232.642.616.26.369.383.834.137.465.137.916v.136a1 1 0 0 1-.014.137m3.363 5.647q-.697 0-1.217-.37a3.2 3.2 0 0 1-.875-.943 4.5 4.5 0 0 1-.533-1.272 5.8 5.8 0 0 1-.177-1.394q0-.725.177-1.49.178-.78.547-1.408.37-.643.944-1.04.573-.41 1.367-.41.765 0 1.299.424.546.41.875 1.04.327.614.464 1.353.137.738.096 1.394-.041.725-.232 1.463a4.7 4.7 0 0 1-.534 1.326 3 3 0 0 1-.902.957q-.546.37-1.299.37m.137-6.18q-.205 0-.369.218-.15.219-.26.534a5 5 0 0 0-.15.67 4 4 0 0 0-.055.601q0 .329.055.711.068.383.177.711.11.315.26.533.165.205.369.205.219 0 .369-.205.165-.205.26-.52.096-.314.137-.683.04-.383.041-.71 0-.302-.055-.657a3.7 3.7 0 0 0-.164-.684 1.5 1.5 0 0 0-.26-.52q-.15-.204-.355-.204m7.533-1.736q0 .396-.273.587-.26.192-.588.37-.328.163-.602.396-.26.232-.259.697 0 .246.109.424.123.178.287.328.178.137.383.287t.369.342q.177.192.287.465.123.273.123.67 0 .574-.301 1.135a3.7 3.7 0 0 1-.752.984q-.45.424-1.025.684-.574.26-1.135.26-.232 0-.465-.042a1.3 1.3 0 0 1-.423-.123.9.9 0 0 1-.301-.26.8.8 0 0 1-.123-.45q0-.384.15-.588.15-.219.383-.342.232-.123.492-.192.273-.068.506-.164.233-.11.383-.273.15-.165.15-.465 0-.287-.232-.588-.219-.315-.492-.656a7 7 0 0 1-.506-.752 1.8 1.8 0 0 1-.219-.875q0-.588.232-1.08.247-.507.643-.875.41-.37.93-.574a2.8 2.8 0 0 1 1.093-.22q.22 0 .424.042.22.04.383.15a.7.7 0 0 1 .26.274.75.75 0 0 1 .109.423m6.276 5.085q0 .466-.301.916a3.4 3.4 0 0 1-.738.793 4.3 4.3 0 0 1-.944.56 2.5 2.5 0 0 1-.93.206q-.725 0-1.298-.355a3.4 3.4 0 0 1-.944-.93 4.5 4.5 0 0 1-.588-1.23 5 5 0 0 1-.191-1.327q0-.684.191-1.463.191-.78.575-1.435a3.8 3.8 0 0 1 .984-1.094q.602-.437 1.422-.437.465 0 .889.164a2.15 2.15 0 0 1 1.244 1.12q.19.397.191.89 0 .642-.273 1.203a3.2 3.2 0 0 1-.725.97 3.8 3.8 0 0 1-1.039.67 3.5 3.5 0 0 1-1.203.273q.054.397.314.575.274.177.643.178.273 0 .533-.137a6 6 0 0 0 .506-.301q.247-.177.478-.315.247-.136.493-.136a.76.76 0 0 1 .492.178.57.57 0 0 1 .219.464m-2.215-3.35a.8.8 0 0 0-.096-.368.32.32 0 0 0-.301-.192q-.3 0-.506.164-.204.15-.341.397a2.3 2.3 0 0 0-.219.506q-.069.273-.082.505.191-.04.451-.109a3 3 0 0 0 .506-.178q.246-.123.41-.3a.58.58 0 0 0 .178-.424M80.125 55.567q0 .466-.3.916a3.4 3.4 0 0 1-.74.793 4.3 4.3 0 0 1-.942.56 2.5 2.5 0 0 1-.93.206q-.724 0-1.299-.355a3.4 3.4 0 0 1-.943-.93 4.5 4.5 0 0 1-.588-1.23 5 5 0 0 1-.192-1.327q0-.684.192-1.463.191-.78.574-1.435.397-.657.984-1.094.602-.437 1.422-.437.465 0 .889.164a2.15 2.15 0 0 1 1.244 1.12q.192.397.192.89 0 .642-.274 1.203a3.2 3.2 0 0 1-.725.97q-.45.41-1.039.67a3.5 3.5 0 0 1-1.203.273q.055.397.315.575.273.178.642.178.274 0 .534-.137t.505-.301q.246-.177.479-.315.246-.136.492-.136a.76.76 0 0 1 .492.178.57.57 0 0 1 .219.464m-2.215-3.35a.8.8 0 0 0-.096-.368.32.32 0 0 0-.3-.192q-.301 0-.506.164-.205.15-.342.397a2.3 2.3 0 0 0-.219.506q-.068.273-.082.505.192-.04.451-.109.274-.068.506-.178.246-.123.41-.3a.58.58 0 0 0 .178-.424m6.768-1.736q0 .397-.274.588-.26.192-.588.37-.328.163-.601.396-.26.232-.26.697 0 .246.11.424.122.178.287.328.177.137.382.287t.37.342q.177.192.287.465.123.273.123.67 0 .574-.301 1.135a3.7 3.7 0 0 1-.752.984q-.451.424-1.025.684-.575.26-1.135.26-.233 0-.465-.042a1.3 1.3 0 0 1-.424-.123.9.9 0 0 1-.3-.26.8.8 0 0 1-.124-.45q0-.384.15-.588.15-.219.383-.342a2.3 2.3 0 0 1 .493-.192q.273-.068.505-.164.233-.11.383-.273.15-.165.15-.465 0-.287-.232-.588a12 12 0 0 0-.492-.656 7 7 0 0 1-.506-.752 1.8 1.8 0 0 1-.219-.875q0-.588.233-1.08a2.9 2.9 0 0 1 .642-.875q.411-.37.93-.575a2.8 2.8 0 0 1 1.094-.218q.219 0 .424.04.218.042.383.151.164.096.26.274.109.163.109.423m3.732 8.012q-.97 0-1.517-.26a1.76 1.76 0 0 1-.807-.71q-.26-.465-.314-1.122a20 20 0 0 1-.014-2.748q.04-.656.123-1.394-.192 0-.3.014h-.179q-.437 0-.752-.192a.64.64 0 0 1-.328-.588q0-.246.192-.437.177-.192.465-.328a3.3 3.3 0 0 1 .615-.22q.342-.08.642-.109 0-.382.055-.847t.191-.861q.15-.411.397-.684a.8.8 0 0 1 .629-.274.58.58 0 0 1 .383.137.9.9 0 0 1 .287.328q.109.192.164.438a2.2 2.2 0 0 1 .055.478q0 .275-.041.56a7 7 0 0 1-.15.712q.231-.028.313-.028a1 1 0 0 1 .15-.013q.233 0 .48.04.26.042.464.138a.95.95 0 0 1 .356.26.53.53 0 0 1 .137.368q0 .247-.206.438a1.7 1.7 0 0 1-.492.328q-.3.137-.642.219a6 6 0 0 1-.643.096q-.082.56-.123 1.038-.027.465-.068.944-.028.232-.055.478a8 8 0 0 0 0 .903q.014.233.096.45a1 1 0 0 0 .26.384q.177.15.492.15.191 0 .396-.027.205-.042.41-.041.356 0 .506.246.164.246.164.629 0 .287-.178.506-.163.205-.423.328-.261.136-.588.205a3 3 0 0 1-.602.068m7.875-2.42q0 .246-.027.643-.014.396-.11.78-.095.368-.3.642a.68.68 0 0 1-.575.273q-.506 0-.779-.328t-.26-.82a3.4 3.4 0 0 1-.998.601 3 3 0 0 1-1.12.219q-.397 0-.753-.191a2.4 2.4 0 0 1-.629-.493 2.5 2.5 0 0 1-.437-.67 1.9 1.9 0 0 1-.164-.751q0-.656.396-1.149.41-.492.998-.834a5.7 5.7 0 0 1 1.245-.56 7.5 7.5 0 0 1 1.189-.274v-.123a.5.5 0 0 0 .014-.123q0-.423-.233-.684-.233-.26-.656-.26a1.3 1.3 0 0 0-.588.124q-.246.11-.465.26a11 11 0 0 1-.437.26q-.219.108-.493.109a.76.76 0 0 1-.519-.192.64.64 0 0 1-.205-.492q0-.45.26-.82.273-.369.67-.616.41-.26.875-.396.478-.15.875-.15.369 0 .738.095.369.082.697.274.328.178.588.451.273.26.438.615.246.506.396 1.08.15.56.232 1.162.083.588.11 1.19.027.588.027 1.148m-2.187-.437-.041-.93h-.055a.1.1 0 0 0-.055-.014 1.4 1.4 0 0 0-.45.096 2 2 0 0 0-.507.246q-.246.15-.424.342a.6.6 0 0 0-.164.397q0 .19.137.26a.7.7 0 0 0 .314.068q.301 0 .643-.15.341-.165.602-.315m.656-7.985q0 .15-.082.301a1.4 1.4 0 0 1-.205.26q-.11.123-.246.232a9 9 0 0 0-.246.178q-.096.069-.22.164-.108.083-.245.164a2 2 0 0 1-.26.123.6.6 0 0 1-.246.055.34.34 0 0 1-.192-.055.24.24 0 0 1-.081-.191q0-.205.15-.492.164-.3.396-.575.233-.286.492-.478.26-.205.479-.205.192 0 .342.164.165.15.164.355m11.457 8.422q0 .246-.027.643-.014.396-.11.78-.096.368-.301.642a.68.68 0 0 1-.574.273q-.506 0-.779-.328t-.26-.82a3.4 3.4 0 0 1-.998.601 3 3 0 0 1-1.121.219q-.396 0-.752-.191a2.3 2.3 0 0 1-.629-.493 2.5 2.5 0 0 1-.437-.67 1.9 1.9 0 0 1-.164-.751q0-.656.396-1.149.41-.492.998-.834a5.7 5.7 0 0 1 1.244-.56 7.5 7.5 0 0 1 1.19-.274v-.123a.5.5 0 0 0 .013-.123q0-.423-.232-.684-.233-.26-.656-.26a1.3 1.3 0 0 0-.588.124q-.246.11-.465.26-.219.135-.438.26a1.1 1.1 0 0 1-.492.109.76.76 0 0 1-.519-.192.64.64 0 0 1-.205-.492q0-.45.259-.82.274-.369.67-.616.41-.26.875-.396.479-.15.875-.15.37 0 .739.095.369.082.697.274.328.178.588.451.273.26.437.615.247.506.397 1.08.15.56.232 1.162.082.588.11 1.19.027.588.027 1.148m-2.188-.437-.041-.93h-.054a.1.1 0 0 0-.055-.014 1.4 1.4 0 0 0-.451.096 2 2 0 0 0-.506.246q-.246.15-.424.342a.6.6 0 0 0-.164.397q0 .19.137.26a.7.7 0 0 0 .314.068 1.6 1.6 0 0 0 .643-.15q.342-.165.601-.315m5.565-5.92q0 .738-.068 1.49-.055.738-.055 1.49 0 .971.055 1.942.068.97.068 1.955 0 .245-.027.56-.028.301-.137.56a1.05 1.05 0 0 1-.301.438q-.205.178-.547.178-.328 0-.574-.328a2.9 2.9 0 0 1-.397-.807q-.15-.505-.259-1.12-.096-.615-.151-1.19-.04-.588-.068-1.067-.014-.493-.014-.724 0-.26.014-.752.027-.492.096-1.067.067-.574.177-1.162a6.3 6.3 0 0 1 .315-1.08q.191-.492.451-.793.273-.315.643-.314.3 0 .451.205.164.192.232.478.069.274.082.588.014.3.014.52m4.224 8.777q-.97 0-1.517-.26a1.76 1.76 0 0 1-.807-.71q-.26-.465-.314-1.122a18 18 0 0 1-.055-1.462q0-.643.041-1.286.042-.656.123-1.394-.191 0-.301.014h-.177q-.438 0-.752-.192a.63.63 0 0 1-.328-.588.6.6 0 0 1 .191-.437q.178-.192.465-.328.287-.137.615-.22.342-.08.643-.109 0-.382.054-.847.056-.465.192-.861.15-.411.396-.684a.8.8 0 0 1 .629-.274.58.58 0 0 1 .383.137.9.9 0 0 1 .287.328q.11.192.164.438t.055.478q0 .275-.041.56a7 7 0 0 1-.151.712q.233-.028.315-.028a1 1 0 0 1 .15-.013q.233 0 .479.04.26.042.465.138.218.095.355.26a.53.53 0 0 1 .137.368q0 .247-.205.438a1.7 1.7 0 0 1-.492.328 3.6 3.6 0 0 1-.643.219 6 6 0 0 1-.643.096q-.081.56-.123 1.038-.027.465-.068.944l-.055.478a8 8 0 0 0 0 .903q.013.233.096.45a1 1 0 0 0 .26.384q.177.15.492.15.192 0 .396-.027a2 2 0 0 1 .411-.041q.355 0 .505.246.165.246.165.629 0 .287-.178.506-.165.205-.424.328a2.2 2.2 0 0 1-.588.205q-.314.068-.602.068m7.876-2.42q0 .246-.028.643a3.7 3.7 0 0 1-.109.78q-.096.368-.301.642a.68.68 0 0 1-.574.273q-.505 0-.78-.328-.273-.328-.259-.82a3.4 3.4 0 0 1-.998.601 3 3 0 0 1-1.121.219q-.397 0-.752-.191a2.3 2.3 0 0 1-.629-.493 2.5 2.5 0 0 1-.438-.67 1.9 1.9 0 0 1-.164-.751q0-.656.397-1.149.41-.492.998-.834a5.7 5.7 0 0 1 1.244-.56 7.4 7.4 0 0 1 1.189-.274v-.123a.5.5 0 0 0 .014-.123q0-.423-.232-.684-.233-.26-.657-.26a1.3 1.3 0 0 0-.588.124q-.246.11-.464.26-.219.135-.438.26-.219.108-.492.109a.76.76 0 0 1-.52-.192.65.65 0 0 1-.205-.492q0-.45.26-.82.273-.369.67-.616.41-.26.875-.396.479-.15.875-.15.369 0 .738.095.37.082.697.274.328.178.588.451.274.26.438.615.246.506.396 1.08.151.56.233 1.162.081.588.109 1.19.028.588.028 1.148m-2.188-.437-.041-.93h-.055a.1.1 0 0 0-.054-.014q-.178 0-.452.096a2 2 0 0 0-.505.246 2 2 0 0 0-.424.342.6.6 0 0 0-.164.397q0 .19.136.26a.7.7 0 0 0 .315.068q.3 0 .642-.15.342-.165.602-.315m10.186 2.748q-.232 0-.37-.219a1.5 1.5 0 0 1-.205-.479 4 4 0 0 1-.095-.546 10 10 0 0 1-.014-.438q0-.41.041-.82l.109-.82q.068-.41.11-.82.054-.411.054-.821 0-.165-.013-.355a1.4 1.4 0 0 0-.069-.356.6.6 0 0 0-.15-.287.4.4 0 0 0-.287-.11q-.123 0-.274.206-.15.191-.287.45a5 5 0 0 0-.218.507 1.3 1.3 0 0 0-.082.369v.615q.013.3.013.615v.793q-.014.246-.041.506a4 4 0 0 1-.082.506 3 3 0 0 1-.123.478 1.5 1.5 0 0 1-.219.397q-.123.164-.3.273a.8.8 0 0 1-.424.11.6.6 0 0 1-.451-.178 1.3 1.3 0 0 1-.288-.451 3.3 3.3 0 0 1-.164-.63 22 22 0 0 1-.068-.683 16 16 0 0 1-.014-.615q.014-.287.014-.451v-.643q0-.52-.027-1.025a38 38 0 0 1-.014-1.012v-.697q.014-.424.109-.82.096-.41.315-.698.219-.287.642-.287.192 0 .342.123.151.124.26.301.123.178.191.383.083.205.123.355.137-.19.315-.369.192-.177.424-.314a2.23 2.23 0 0 1 1.176-.301q.696 0 1.08.342.396.328.574.834.191.492.232 1.066t.041 1.04q0 .231-.041.697-.041.45-.136 1.011-.083.547-.233 1.135a7.6 7.6 0 0 1-.355 1.053 2.6 2.6 0 0 1-.493.779q-.273.3-.628.3m5.25.014q-.698 0-1.217-.37a3.2 3.2 0 0 1-.875-.943 4.5 4.5 0 0 1-.533-1.272 5.7 5.7 0 0 1-.178-1.394q0-.725.178-1.49.177-.78.546-1.408.37-.643.944-1.04.574-.41 1.367-.41.765 0 1.299.424.546.41.875 1.04.328.614.465 1.353.137.738.095 1.394-.04.725-.232 1.463a4.7 4.7 0 0 1-.533 1.326q-.356.588-.903.957-.546.37-1.298.37m.136-6.18q-.205 0-.369.218-.15.219-.26.534-.095.315-.15.67a4 4 0 0 0-.055.601q0 .329.055.711.069.383.178.711.11.315.259.533.165.205.37.205.218 0 .369-.205.164-.205.26-.52.095-.314.136-.683.041-.383.041-.71 0-.302-.054-.657a4 4 0 0 0-.164-.684 1.6 1.6 0 0 0-.26-.52q-.151-.204-.356-.204M145.9 50.48q0 .396-.273.587-.26.192-.588.37-.328.163-.601.396-.26.232-.26.697 0 .246.109.424.123.178.287.328.178.137.383.287t.369.342q.178.192.287.465.123.273.123.67 0 .574-.3 1.135a3.75 3.75 0 0 1-1.778 1.668q-.574.26-1.135.26-.232 0-.464-.042a1.3 1.3 0 0 1-.424-.123.9.9 0 0 1-.301-.26.8.8 0 0 1-.123-.45q0-.384.15-.588.151-.219.383-.342t.492-.192q.274-.068.506-.164.233-.11.383-.273.15-.165.15-.465 0-.287-.232-.588-.219-.315-.492-.656a7 7 0 0 1-.506-.752 1.8 1.8 0 0 1-.219-.875q0-.588.233-1.08.246-.507.642-.875.411-.37.93-.575a2.8 2.8 0 0 1 1.094-.218q.218 0 .423.04.22.042.383.151.165.096.26.274a.75.75 0 0 1 .109.423m6.358 5.591q0 .246-.028.643a3.7 3.7 0 0 1-.109.78q-.096.368-.301.642a.68.68 0 0 1-.574.273q-.506 0-.779-.328t-.26-.82a3.4 3.4 0 0 1-.998.601 3 3 0 0 1-1.121.219q-.396 0-.752-.191a2.3 2.3 0 0 1-.629-.493 2.5 2.5 0 0 1-.437-.67 1.9 1.9 0 0 1-.165-.751q0-.656.397-1.149.41-.492.998-.834a5.7 5.7 0 0 1 1.244-.56 7.5 7.5 0 0 1 1.19-.274v-.123a.5.5 0 0 0 .013-.123q0-.423-.232-.684-.233-.26-.656-.26a1.3 1.3 0 0 0-.588.124q-.246.11-.465.26-.219.135-.438.26-.218.108-.492.109a.76.76 0 0 1-.519-.192.64.64 0 0 1-.205-.492q0-.45.259-.82.274-.369.67-.616.41-.26.875-.396.479-.15.875-.15.369 0 .739.095.369.082.697.274.328.178.588.451.273.26.437.615.246.506.397 1.08.15.56.232 1.162.082.588.109 1.19.028.588.028 1.148m-2.188-.437-.041-.93h-.054a.1.1 0 0 0-.055-.014q-.178 0-.451.096a2 2 0 0 0-.506.246q-.246.15-.424.342a.6.6 0 0 0-.164.397q0 .19.137.26a.7.7 0 0 0 .314.068 1.6 1.6 0 0 0 .643-.15q.342-.165.601-.315m6.891 2.748q-.232 0-.369-.219a1.5 1.5 0 0 1-.205-.479 4 4 0 0 1-.096-.546 10 10 0 0 1-.014-.438q0-.41.041-.82l.11-.82q.068-.41.109-.82.055-.411.055-.821 0-.165-.014-.355a1.5 1.5 0 0 0-.068-.356.6.6 0 0 0-.151-.287.4.4 0 0 0-.287-.11q-.123 0-.273.206-.15.191-.287.45a5 5 0 0 0-.219.507 1.3 1.3 0 0 0-.082.369v.615q.014.3.014.615v.793q-.014.246-.041.506a5 5 0 0 1-.082.506 3 3 0 0 1-.123.478 1.5 1.5 0 0 1-.219.397q-.123.164-.301.273a.8.8 0 0 1-.424.11.6.6 0 0 1-.451-.178 1.3 1.3 0 0 1-.287-.451 3 3 0 0 1-.164-.63q-.041-.354-.069-.683a16 16 0 0 1-.013-.615q.013-.287.013-.451v-.643q0-.52-.027-1.025a38 38 0 0 1-.014-1.012v-.697q.014-.424.11-.82.095-.41.314-.698.219-.287.643-.287.19 0 .342.123.15.124.259.301.123.178.192.383.083.205.123.355.137-.19.314-.369.192-.177.424-.314a2.2 2.2 0 0 1 1.176-.301q.697 0 1.08.342.397.328.574.834.192.492.233 1.066.04.575.041 1.04 0 .231-.041.697-.042.45-.137 1.011a12 12 0 0 1-.232 1.135 7.6 7.6 0 0 1-.356 1.053 2.6 2.6 0 0 1-.492.779q-.273.3-.629.3m8.846-5.045q0 .698-.028 1.394-.014.698-.068 1.395-.041.602-.109 1.285-.069.684-.219 1.354-.15.682-.397 1.299-.245.628-.656 1.107a3 3 0 0 1-.971.766q-.573.286-1.367.287-.369 0-.834-.123a3.6 3.6 0 0 1-.861-.329 2.5 2.5 0 0 1-.684-.546 1.1 1.1 0 0 1-.273-.739q0-.314.219-.588a.75.75 0 0 1 .587-.26q.219 0 .411.069.205.082.396.178.205.095.383.164a1 1 0 0 0 .383.082q.506 0 .847-.26.343-.246.547-.642.205-.383.301-.848.11-.452.15-.861-.273.314-.642.437-.356.11-.752.11-.724 0-1.231-.247a2.3 2.3 0 0 1-.82-.697 3.2 3.2 0 0 1-.465-1.04q-.15-.587-.15-1.27 0-.424.082-.958.096-.532.273-1.08.178-.546.438-1.066a4.5 4.5 0 0 1 .629-.916q.355-.397.793-.643.452-.246.984-.246.52 0 .916.301.41.3.479.848.15-.288.396-.56a.76.76 0 0 1 .602-.288q.19 0 .314.191.137.192.205.506.083.3.123.67.042.355.055.711.014.342.014.63zm-2.078.889a2.7 2.7 0 0 0-.069-.534 3 3 0 0 0-.178-.628 1.8 1.8 0 0 0-.287-.52.53.53 0 0 0-.424-.219.82.82 0 0 0-.56.219 2 2 0 0 0-.397.533q-.164.301-.259.656a2.6 2.6 0 0 0-.082.588q0 .178.027.479.028.3.109.588.096.287.246.492a.47.47 0 0 0 .397.205q.369 0 .643-.178a1.5 1.5 0 0 0 .451-.451q.19-.273.287-.602t.096-.628m9.037-.137q0 .752-.151 1.49a4.1 4.1 0 0 1-.506 1.326 2.75 2.75 0 0 1-.957.93q-.588.355-1.476.355-.875 0-1.463-.341a2.8 2.8 0 0 1-.943-.93 4.2 4.2 0 0 1-.493-1.299 8 8 0 0 1-.136-1.477q0-.82.191-1.626.041-.22.15-.602.124-.397.301-.766.192-.383.424-.656.246-.273.533-.273.274 0 .438.15t.26.383q.094.219.123.478.027.247.027.452 0 .314-.055.615-.04.3-.095.601l-.11.82a8 8 0 0 0-.027 1.286q.027.246.109.478.082.233.233.397.15.15.423.15.355 0 .561-.191.22-.191.314-.479.11-.287.137-.615.027-.329.027-.602 0-.6-.082-1.175a53 53 0 0 1-.15-1.19 1.3 1.3 0 0 1 .055-.602q.068-.204.191-.368a.9.9 0 0 1 .301-.26.74.74 0 0 1 .396-.11q.301 0 .534.22.232.204.382.546.165.329.26.752.11.41.164.82.069.397.082.752.028.356.028.56m6.562 1.476q0 .466-.301.916a3.3 3.3 0 0 1-.738.793 4.3 4.3 0 0 1-.943.56 2.5 2.5 0 0 1-.93.206q-.724 0-1.299-.355a3.4 3.4 0 0 1-.943-.93 4.5 4.5 0 0 1-.588-1.23 5 5 0 0 1-.191-1.327q0-.684.191-1.463.192-.78.574-1.435.397-.657.985-1.094.602-.437 1.421-.437.465 0 .889.164.424.15.738.437.315.287.506.684.192.396.192.888 0 .643-.274 1.204a3.2 3.2 0 0 1-.724.97 3.9 3.9 0 0 1-1.039.67 3.5 3.5 0 0 1-1.204.273q.055.397.315.575.273.178.642.178.274 0 .534-.137t.505-.301q.247-.177.479-.315.246-.136.492-.136.274 0 .492.178a.57.57 0 0 1 .219.464m-2.215-3.35a.8.8 0 0 0-.095-.368.32.32 0 0 0-.301-.192.8.8 0 0 0-.506.164q-.206.15-.342.397a2.3 2.3 0 0 0-.219.506q-.068.273-.082.505.191-.04.452-.109a3 3 0 0 0 .505-.178 1.4 1.4 0 0 0 .411-.3.58.58 0 0 0 .177-.424m11.785 3.35q0 .466-.3.916a3.4 3.4 0 0 1-.739.793 4.3 4.3 0 0 1-.943.56 2.5 2.5 0 0 1-.93.206q-.725 0-1.298-.355a3.4 3.4 0 0 1-.944-.93 4.5 4.5 0 0 1-.588-1.23 5 5 0 0 1-.191-1.327q0-.684.191-1.463.192-.78.574-1.435.397-.657.985-1.094.602-.437 1.422-.437.465 0 .888.164a2.15 2.15 0 0 1 1.245 1.12q.19.397.191.89 0 .642-.273 1.203a3.2 3.2 0 0 1-.725.97 3.8 3.8 0 0 1-1.039.67 3.5 3.5 0 0 1-1.203.273q.054.397.314.575.273.178.643.178.273 0 .533-.137a6 6 0 0 0 .506-.301q.246-.177.478-.315.246-.136.493-.136a.76.76 0 0 1 .492.178.57.57 0 0 1 .218.464m-2.214-3.35a.8.8 0 0 0-.096-.368.32.32 0 0 0-.301-.192q-.3 0-.506.164-.204.15-.342.397a2.3 2.3 0 0 0-.218.506q-.069.273-.082.505.191-.04.451-.109a3 3 0 0 0 .506-.178q.246-.123.41-.3a.58.58 0 0 0 .178-.424m8.613-2.501q0 .738-.068 1.49-.055.738-.055 1.49 0 .971.055 1.942.068.97.068 1.955 0 .245-.027.56-.028.301-.137.56a1.05 1.05 0 0 1-.301.438q-.205.178-.547.178-.328 0-.574-.328a2.9 2.9 0 0 1-.397-.807q-.15-.505-.259-1.12-.096-.615-.151-1.19-.04-.588-.068-1.067-.014-.493-.014-.724 0-.26.014-.752.027-.492.096-1.067.067-.574.177-1.162a6.3 6.3 0 0 1 .315-1.08q.191-.492.451-.793.273-.315.643-.314.3 0 .451.205.164.192.232.478.069.274.082.588.014.3.014.52m3.295-1.258a.57.57 0 0 1-.11.342q-.095.15-.259.273-.165.11-.356.178a1.3 1.3 0 0 1-.355.055.84.84 0 0 1-.479-.137q-.205-.137-.205-.424 0-.205.096-.355a.9.9 0 0 1 .26-.26q.15-.11.341-.164a1.4 1.4 0 0 1 .37-.055q.26 0 .478.123.219.123.219.424m.109 4.648v.41q0 .206-.013.397-.014.233-.014.629 0 .383-.028.834-.027.45-.095.916-.055.465-.192.848a1.8 1.8 0 0 1-.369.629.78.78 0 0 1-.56.246.51.51 0 0 1-.438-.205 1.9 1.9 0 0 1-.301-.561 5 5 0 0 1-.164-.78q-.054-.436-.082-.833a12 12 0 0 1-.027-.752V53.76q0-.41.027-.875.028-.465.096-.944.082-.478.219-.875.15-.396.383-.642a.77.77 0 0 1 .587-.246q.37 0 .561.369t.287.861q.095.492.11.985.013.478.013.71m7.438.383q0 .397-.069.903-.054.492-.191 1.011a5.7 5.7 0 0 1-.342 1.012q-.206.492-.519.889-.302.383-.711.615a1.8 1.8 0 0 1-.93.232q-.561 0-1.025-.26a2.5 2.5 0 0 1-.78-.71 1.14 1.14 0 0 1-.301.656.87.87 0 0 1-.656.273q-.233 0-.396-.232a2 2 0 0 1-.246-.588 6 6 0 0 1-.151-.807 14 14 0 0 1-.054-.847q-.015-.411-.014-.738V53.5l.027-.943q0-.233-.013-.698 0-.465.013-1.025.014-.574.055-1.162.054-.602.178-1.094.123-.492.341-.807t.561-.328q.273 0 .465.192.19.19.314.506.137.315.205.71.083.383.11.78.04.383.041.738.013.342.013.56 0 .042-.013.192v.738q.123-.26.355-.505.232-.247.52-.438.287-.192.601-.315.315-.122.602-.123.575 0 .957.301.396.288.629.739.232.45.328.984.096.519.096.984m-2.01.41q0-.163-.027-.355a1 1 0 0 0-.096-.355.7.7 0 0 0-.205-.274.48.48 0 0 0-.328-.11q-.219 0-.438.096a2 2 0 0 0-.396.247q-.191.15-.356.328-.164.163-.287.328l-.137 1.217q.219.315.534.505.314.178.711.178.3 0 .492-.191.204-.192.314-.465.123-.287.164-.602.055-.315.055-.547m8.572 1.668q0 .466-.301.916a3.3 3.3 0 0 1-.738.793 4.3 4.3 0 0 1-.943.56 2.5 2.5 0 0 1-.93.206q-.725 0-1.299-.355a3.4 3.4 0 0 1-.943-.93 4.5 4.5 0 0 1-.588-1.23 5 5 0 0 1-.191-1.327q0-.684.191-1.463.192-.78.574-1.435.397-.657.985-1.094.602-.437 1.421-.437.465 0 .889.164.424.15.738.437.315.287.506.684.192.396.192.888 0 .643-.274 1.204a3.2 3.2 0 0 1-.724.97 3.9 3.9 0 0 1-1.039.67 3.5 3.5 0 0 1-1.204.273q.056.397.315.575.273.178.642.178.274 0 .534-.137.259-.137.506-.301.246-.177.478-.315.246-.136.492-.136.275 0 .492.178a.57.57 0 0 1 .219.464m-2.215-3.35a.8.8 0 0 0-.095-.368.32.32 0 0 0-.301-.192.8.8 0 0 0-.506.164q-.205.15-.342.397a2.3 2.3 0 0 0-.219.506q-.067.273-.082.505.191-.04.452-.109a3 3 0 0 0 .505-.178 1.4 1.4 0 0 0 .411-.3.58.58 0 0 0 .177-.424m7.506.67a.9.9 0 0 1-.328-.027l-.273-.109a3 3 0 0 0-.246-.096.55.55 0 0 0-.274-.04q-.273.013-.492.15a2 2 0 0 0-.383.341 2.4 2.4 0 0 0-.287.465 2.7 2.7 0 0 0-.191.492 3 3 0 0 0-.069.506 17 17 0 0 0-.013.711q-.015.397-.014.752 0 .356-.027.56-.014.22-.069.52a2.2 2.2 0 0 1-.178.547 1.2 1.2 0 0 1-.3.438.7.7 0 0 1-.493.177.66.66 0 0 1-.41-.136 1.3 1.3 0 0 1-.287-.356 3 3 0 0 1-.191-.533 7 7 0 0 1-.11-.615q-.04-.329-.068-.656l-.027-.616v-.546q.013-.247.013-.397a17 17 0 0 0-.054-.957 17 17 0 0 1-.028-.97q0-.302.028-.67.027-.37.15-.684.123-.328.356-.547.246-.219.669-.219.233 0 .397.15t.26.37q.109.218.164.465.054.245.068.45a3.3 3.3 0 0 1 .738-.86q.41-.343 1.067-.37.328-.014.642.069.328.068.588.246.274.164.438.437.177.273.191.643.028.437-.26.67a1.13 1.13 0 0 1-.697.246m6.973 3.186q0 .246-.027.643-.014.396-.11.78-.096.368-.301.642a.68.68 0 0 1-.574.273q-.506 0-.779-.328t-.26-.82a3.4 3.4 0 0 1-.998.601 3 3 0 0 1-1.121.219q-.396 0-.752-.191a2.3 2.3 0 0 1-.629-.493 2.5 2.5 0 0 1-.437-.67 1.9 1.9 0 0 1-.165-.751q0-.656.397-1.149.41-.492.998-.834a5.7 5.7 0 0 1 1.244-.56 7.5 7.5 0 0 1 1.19-.274v-.123a.5.5 0 0 0 .013-.123q0-.423-.232-.684-.233-.26-.656-.26a1.3 1.3 0 0 0-.588.124q-.246.11-.465.26-.219.135-.438.26-.218.108-.492.109a.76.76 0 0 1-.519-.192.64.64 0 0 1-.205-.492q0-.45.259-.82.274-.369.67-.616.41-.26.875-.396.479-.15.875-.15.369 0 .739.095.369.082.697.274.328.178.588.451.273.26.437.615.246.506.397 1.08.15.56.232 1.162.082.588.11 1.19.027.588.027 1.148m-2.188-.437-.041-.93h-.054a.1.1 0 0 0-.055-.014q-.178 0-.451.096a2 2 0 0 0-.506.246q-.246.15-.424.342a.6.6 0 0 0-.164.397q0 .19.137.26a.7.7 0 0 0 .314.068 1.6 1.6 0 0 0 .643-.15q.342-.165.601-.315m8.559-7.178a.57.57 0 0 1-.109.342q-.096.15-.26.273-.165.11-.356.178a1.3 1.3 0 0 1-.355.055.85.85 0 0 1-.479-.137q-.204-.137-.205-.424 0-.205.096-.355a.9.9 0 0 1 .26-.26q.15-.11.342-.164.19-.055.369-.055.26 0 .478.123.219.123.219.424m.109 4.648v.41q0 .206-.013.397-.014.233-.014.629 0 .383-.027.834-.028.45-.096.916-.055.465-.191.848a1.8 1.8 0 0 1-.37.629.78.78 0 0 1-.56.246.51.51 0 0 1-.438-.205 1.9 1.9 0 0 1-.3-.561 5 5 0 0 1-.165-.78q-.054-.436-.082-.833a12 12 0 0 1-.027-.752v-1.121q0-.41.027-.875.029-.465.096-.944.082-.478.219-.875.15-.396.383-.642a.77.77 0 0 1 .588-.246q.37 0 .56.369t.287.861q.096.492.11.985.013.478.013.71m4.854 5.278q-.232 0-.369-.219a1.5 1.5 0 0 1-.205-.479 4 4 0 0 1-.096-.546 10 10 0 0 1-.014-.438q0-.41.041-.82l.11-.82q.068-.41.109-.82.054-.411.055-.821 0-.165-.014-.355a1.5 1.5 0 0 0-.068-.356.6.6 0 0 0-.151-.287.4.4 0 0 0-.287-.11q-.123 0-.273.206a3 3 0 0 0-.287.45 5 5 0 0 0-.219.507 1.3 1.3 0 0 0-.082.369v.615q.013.3.013.615v.793a9 9 0 0 1-.041.506 4 4 0 0 1-.082.506 3 3 0 0 1-.123.478 1.5 1.5 0 0 1-.218.397q-.123.164-.301.273a.8.8 0 0 1-.424.11.6.6 0 0 1-.451-.178 1.3 1.3 0 0 1-.287-.451 3 3 0 0 1-.164-.63q-.041-.354-.069-.683a16 16 0 0 1-.013-.615q.013-.287.013-.451v-.643q0-.52-.027-1.025a38 38 0 0 1-.014-1.012v-.697q.014-.424.11-.82.096-.41.314-.698.219-.287.643-.287.19 0 .342.123.15.124.259.301.123.178.192.383.081.205.123.355.137-.19.314-.369.192-.177.424-.314a2.2 2.2 0 0 1 1.176-.301q.698 0 1.08.342.397.328.574.834.192.492.233 1.066.04.575.041 1.04 0 .231-.041.697-.041.45-.137 1.011-.082.547-.233 1.135-.15.575-.355 1.053a2.6 2.6 0 0 1-.492.779q-.274.3-.629.3m6.658-7.903q0 .397-.273.588-.261.192-.588.37-.329.163-.602.396-.26.232-.26.697 0 .246.11.424.123.178.287.328.177.137.383.287.204.15.369.342.177.192.287.465.123.273.123.67 0 .574-.301 1.135a3.7 3.7 0 0 1-.752.984q-.451.424-1.025.684t-1.135.26q-.232 0-.465-.042a1.3 1.3 0 0 1-.424-.123.9.9 0 0 1-.3-.26.8.8 0 0 1-.123-.45q0-.384.15-.588.15-.219.383-.342.232-.123.492-.192.273-.068.506-.164.232-.11.383-.273.15-.165.15-.465 0-.287-.232-.588a12 12 0 0 0-.493-.656 7 7 0 0 1-.505-.752 1.8 1.8 0 0 1-.219-.875q0-.588.232-1.08.246-.507.643-.875.41-.37.93-.575.519-.218 1.093-.218.219 0 .424.04.22.042.383.151a.7.7 0 0 1 .26.274.75.75 0 0 1 .109.423m6.535 3.61q0 .752-.15 1.49a4.1 4.1 0 0 1-.506 1.326 2.75 2.75 0 0 1-.957.93q-.588.355-1.477.355-.875 0-1.463-.341a2.8 2.8 0 0 1-.943-.93 4.2 4.2 0 0 1-.492-1.299 8 8 0 0 1-.137-1.477q0-.82.192-1.626.04-.22.15-.602.123-.397.301-.766.191-.383.424-.656.246-.273.533-.273a.62.62 0 0 1 .437.15q.165.15.26.383.096.219.123.478.027.247.027.452 0 .314-.054.615-.041.3-.096.601l-.109.82a8 8 0 0 0-.028 1.286q.028.246.11.478.082.233.232.397.15.15.424.15.356 0 .561-.191.218-.191.314-.479.109-.287.137-.615.027-.329.027-.602 0-.6-.082-1.175a43 43 0 0 1-.15-1.19 1.3 1.3 0 0 1 .246-.97.9.9 0 0 1 .3-.26.74.74 0 0 1 .397-.11q.3 0 .533.22.233.204.383.546.164.329.26.752.109.41.164.82.068.397.082.752.027.356.027.56m3.391-4.375q0 .738-.069 1.49-.054.738-.054 1.49 0 .971.054 1.942.069.97.069 1.955 0 .245-.028.56-.027.301-.136.56a1.05 1.05 0 0 1-.301.438q-.205.178-.547.178-.328 0-.574-.328a2.9 2.9 0 0 1-.397-.807q-.15-.505-.259-1.12-.096-.615-.151-1.19-.04-.588-.068-1.067-.014-.493-.014-.724 0-.26.014-.752.027-.492.096-1.067.067-.574.177-1.162a6.3 6.3 0 0 1 .315-1.08q.191-.492.451-.793.273-.315.643-.314.3 0 .451.205.164.192.232.478.069.274.082.588.014.3.014.52m3.295-1.258a.57.57 0 0 1-.11.342q-.095.15-.259.273-.165.11-.356.178a1.3 1.3 0 0 1-.355.055.84.84 0 0 1-.479-.137q-.205-.137-.205-.424 0-.205.096-.355a.9.9 0 0 1 .26-.26q.15-.11.341-.164t.369-.055a.96.96 0 0 1 .479.123q.219.123.219.424m.109 4.648v.41q0 .206-.014.397a12 12 0 0 0-.013.629q0 .383-.028.834-.027.45-.095.916-.055.465-.192.848a1.8 1.8 0 0 1-.369.629.78.78 0 0 1-.56.246.5.5 0 0 1-.438-.205 1.9 1.9 0 0 1-.301-.561 5 5 0 0 1-.164-.78 15 15 0 0 1-.082-.833 12 12 0 0 1-.027-.752V53.76q0-.41.027-.875t.096-.944q.082-.478.219-.875.15-.396.383-.642a.77.77 0 0 1 .587-.246q.369 0 .561.369.191.369.287.861t.109.985q.014.478.014.71m4.854 5.278q-.232 0-.37-.219a1.5 1.5 0 0 1-.205-.479 4 4 0 0 1-.095-.546 10 10 0 0 1-.014-.438q0-.41.041-.82l.109-.82q.068-.41.11-.82.054-.411.054-.821 0-.165-.013-.355a1.4 1.4 0 0 0-.069-.356.6.6 0 0 0-.15-.287.4.4 0 0 0-.287-.11q-.123 0-.273.206a3 3 0 0 0-.288.45 5 5 0 0 0-.218.507 1.3 1.3 0 0 0-.082.369v.615q.013.3.013.615v.793a9 9 0 0 1-.041.506 4 4 0 0 1-.082.506 3 3 0 0 1-.123.478 1.5 1.5 0 0 1-.219.397q-.123.164-.3.273a.8.8 0 0 1-.424.11.6.6 0 0 1-.451-.178 1.3 1.3 0 0 1-.287-.451 3.2 3.2 0 0 1-.165-.63 22 22 0 0 1-.068-.683 16 16 0 0 1-.014-.615q.014-.287.014-.451v-.643q0-.52-.027-1.025a38 38 0 0 1-.014-1.012v-.697q.014-.424.109-.82.096-.41.315-.698.219-.287.643-.287.19 0 .341.123.151.124.26.301.123.178.191.383.082.205.124.355.137-.19.314-.369.192-.177.424-.314a2.23 2.23 0 0 1 1.176-.301q.696 0 1.08.342.396.328.574.834.192.492.232 1.066t.041 1.04q0 .231-.041.697-.041.45-.136 1.011-.083.547-.233 1.135a7.6 7.6 0 0 1-.355 1.053 2.6 2.6 0 0 1-.492.779q-.274.3-.629.3m8.463-2.31q0 .245-.028.642a3.7 3.7 0 0 1-.109.78q-.096.368-.301.642a.68.68 0 0 1-.574.273q-.505 0-.78-.328-.273-.328-.259-.82a3.4 3.4 0 0 1-.998.601 3 3 0 0 1-1.121.219q-.397 0-.752-.191a2.3 2.3 0 0 1-.629-.493 2.5 2.5 0 0 1-.438-.67 1.9 1.9 0 0 1-.164-.751q0-.656.397-1.149.41-.492.998-.834a5.7 5.7 0 0 1 1.244-.56 7.4 7.4 0 0 1 1.189-.274v-.123a.5.5 0 0 0 .014-.123q0-.423-.232-.684-.232-.26-.657-.26a1.3 1.3 0 0 0-.588.124q-.246.11-.464.26-.219.135-.438.26-.219.108-.492.109a.76.76 0 0 1-.52-.192.65.65 0 0 1-.205-.492q0-.45.26-.82.274-.369.67-.616.41-.26.875-.396.479-.15.875-.15.369 0 .738.095.37.082.697.274.328.178.588.451.274.26.438.615.246.506.396 1.08.151.56.233 1.162.082.588.109 1.19.027.588.028 1.148m-2.188-.438-.041-.93h-.055a.1.1 0 0 0-.054-.014q-.178 0-.452.096a2 2 0 0 0-.505.246 2 2 0 0 0-.424.342.6.6 0 0 0-.164.397q0 .19.136.26a.7.7 0 0 0 .315.068q.3 0 .642-.15.342-.165.602-.315M69.618 71.925q0 .603-.137 1.327a4.6 4.6 0 0 1-.437 1.326q-.3.615-.807 1.025-.492.41-1.244.41-.191 0-.396-.027a2 2 0 0 1-.397-.095 1.4 1.4 0 0 1-.328-.178.8.8 0 0 1-.232-.315l-.123 1.97a63 63 0 0 0-.028.751q0 .438-.11.834a1.5 1.5 0 0 1-.34.67q-.234.287-.684.287-.261 0-.438-.273a2.2 2.2 0 0 1-.287-.67 8 8 0 0 1-.15-.916q-.055-.507-.069-.97-.014-.465-.014-.849v-.56q0-.915-.013-1.819-.015-.915-.014-1.831v-.506q0-.356.028-.766.027-.41.081-.848.069-.437.192-.793.123-.37.314-.587a.58.58 0 0 1 .465-.233q.179 0 .315.11.15.095.246.26.11.15.178.327t.109.328q.423-.478.97-.724.56-.246 1.19-.246.657 0 1.066.369.425.369.657.916.246.546.341 1.176.096.615.096 1.12m-1.955-.109q0-.204-.04-.41a1.1 1.1 0 0 0-.124-.396.67.67 0 0 0-.246-.301.66.66 0 0 0-.41-.123q-.328 0-.698.219a1.5 1.5 0 0 0-.533.478q-.068.11-.082.356t-.013.369v.26a42 42 0 0 1 .054.629q.028.15.069.232.04.123.177.232.138.096.301.178.165.082.328.123.178.04.301.041a.57.57 0 0 0 .465-.219 1.6 1.6 0 0 0 .273-.52q.11-.3.137-.614.04-.33.041-.534m8.6 2.256q0 .246-.028.643a3.7 3.7 0 0 1-.109.78q-.096.368-.3.642a.68.68 0 0 1-.575.273q-.505 0-.78-.328-.272-.328-.26-.82a3.4 3.4 0 0 1-.997.601 3 3 0 0 1-1.121.219q-.396 0-.752-.191a2.4 2.4 0 0 1-.63-.493 2.5 2.5 0 0 1-.437-.67 1.9 1.9 0 0 1-.164-.751q0-.656.397-1.149.41-.492.998-.834a5.7 5.7 0 0 1 1.244-.56 7.5 7.5 0 0 1 1.19-.274v-.123a.5.5 0 0 0 .013-.123q0-.423-.232-.683-.233-.26-.656-.26a1.3 1.3 0 0 0-.588.123q-.248.11-.465.26a11 11 0 0 1-.438.26q-.219.109-.492.109a.76.76 0 0 1-.52-.192.64.64 0 0 1-.205-.492q0-.45.26-.82.274-.369.67-.615.41-.26.875-.397.479-.15.875-.15.369 0 .738.095.37.082.698.274.327.178.588.451.273.26.437.615.246.506.397 1.08.15.56.232 1.162.082.588.11 1.19.027.588.027 1.148m-2.188-.437-.04-.93h-.055a.1.1 0 0 0-.055-.014 1.4 1.4 0 0 0-.451.096 2 2 0 0 0-.506.246 2 2 0 0 0-.424.342.6.6 0 0 0-.164.397q0 .19.137.26a.7.7 0 0 0 .314.068q.3 0 .643-.15.341-.165.601-.315m7.752-2.748a.9.9 0 0 1-.328-.028l-.273-.109a3 3 0 0 0-.246-.096.54.54 0 0 0-.274-.04q-.273.012-.492.15a2 2 0 0 0-.383.342q-.165.204-.287.464a3 3 0 0 0-.191.493q-.041.164-.069.505-.014.33-.014.711-.013.397-.013.752 0 .356-.028.56-.013.22-.068.52a2.3 2.3 0 0 1-.178.547 1.25 1.25 0 0 1-.3.438.7.7 0 0 1-.493.177.65.65 0 0 1-.41-.136 1.3 1.3 0 0 1-.287-.356 3.3 3.3 0 0 1-.191-.533 7 7 0 0 1-.11-.615q-.04-.329-.068-.656l-.027-.616v-.547q.013-.246.013-.396-.013-.478-.054-.957a17 17 0 0 1-.028-.97q0-.302.028-.67.027-.37.15-.684.123-.328.355-.547.247-.219.67-.219.233 0 .397.15.165.15.26.37.109.218.164.465.054.245.068.45.329-.533.738-.86.411-.343 1.067-.37.329-.013.642.069.33.067.588.246.274.164.438.437.177.274.191.643.028.437-.26.67a1.14 1.14 0 0 1-.697.246m6.973 3.185q0 .246-.028.643a3.7 3.7 0 0 1-.109.78q-.096.368-.3.642a.68.68 0 0 1-.575.273q-.505 0-.78-.328-.272-.328-.259-.82a3.4 3.4 0 0 1-.998.601 3 3 0 0 1-1.121.219q-.396 0-.752-.191a2.4 2.4 0 0 1-.629-.493 2.5 2.5 0 0 1-.437-.67 1.9 1.9 0 0 1-.165-.751q0-.656.397-1.149.41-.492.998-.834a5.7 5.7 0 0 1 1.244-.56 7.5 7.5 0 0 1 1.19-.274v-.123a.5.5 0 0 0 .013-.123q0-.423-.232-.683-.233-.26-.656-.26a1.3 1.3 0 0 0-.588.123 3 3 0 0 0-.465.26q-.219.135-.438.26-.218.109-.492.109a.76.76 0 0 1-.52-.192.64.64 0 0 1-.204-.492q0-.45.26-.82.273-.369.67-.615.41-.26.874-.397.479-.15.875-.15.369 0 .739.095.369.082.697.274.328.178.588.451.273.26.437.615.246.506.397 1.08.15.56.232 1.162.082.588.11 1.19.027.588.027 1.148m-2.188-.437-.04-.93h-.055a.1.1 0 0 0-.055-.014 1.4 1.4 0 0 0-.451.096 2 2 0 0 0-.506.246q-.246.15-.424.342a.6.6 0 0 0-.164.397q0 .19.137.26a.7.7 0 0 0 .314.068q.3 0 .643-.15.342-.165.601-.315m12.114.437q0 .246-.028.643-.013.396-.11.78-.095.368-.3.642a.68.68 0 0 1-.574.273q-.505 0-.78-.328-.273-.328-.26-.82a3.4 3.4 0 0 1-.997.601 3 3 0 0 1-1.121.219q-.397 0-.752-.191a2.4 2.4 0 0 1-.63-.493 2.5 2.5 0 0 1-.437-.67 1.9 1.9 0 0 1-.164-.751q0-.656.397-1.149.41-.492.998-.834a5.7 5.7 0 0 1 1.244-.56 7.5 7.5 0 0 1 1.19-.274v-.123a.5.5 0 0 0 .013-.123q0-.423-.232-.683-.233-.26-.657-.26a1.3 1.3 0 0 0-.587.123q-.248.11-.465.26a11 11 0 0 1-.438.26q-.219.109-.492.109a.76.76 0 0 1-.52-.192.64.64 0 0 1-.205-.492q0-.45.26-.82.274-.369.67-.615.41-.26.875-.397.478-.15.875-.15.369 0 .738.095.37.082.698.274.327.178.587.451.275.26.438.615.246.506.396 1.08.15.56.233 1.162.082.588.11 1.19.026.588.027 1.148m-2.188-.437-.04-.93h-.056a.1.1 0 0 0-.054-.014 1.4 1.4 0 0 0-.452.096 2 2 0 0 0-.505.246 2 2 0 0 0-.424.342.6.6 0 0 0-.164.397q0 .19.136.26a.7.7 0 0 0 .315.068q.3 0 .642-.15.342-.165.602-.315m5.332-7.041a.63.63 0 0 1-.109.355q-.11.15-.274.26a1.6 1.6 0 0 1-.355.178 1.3 1.3 0 0 1-.356.054.84.84 0 0 1-.478-.136q-.205-.138-.205-.424 0-.205.095-.356a.9.9 0 0 1 .26-.26q.165-.108.342-.163.192-.055.369-.055.26 0 .479.137.232.122.232.41m.26 5.933q0 .643-.041 1.436-.027.78-.164 1.572a7.3 7.3 0 0 1-.397 1.504q-.273.71-.765 1.19a9 9 0 0 1-.643.546q-.369.288-.793.534a4.6 4.6 0 0 1-.834.396q-.423.165-.806.164-.438 0-.643-.246-.219-.233-.219-.656 0-.437.233-.656.232-.22.574-.383.341-.165.752-.37a2.3 2.3 0 0 0 .738-.587q.343-.397.574-1.067.233-.683.233-1.79a34 34 0 0 0-.11-2.735l-.054-.793a12 12 0 0 1-.028-.807q0-.246.069-.52a1.7 1.7 0 0 1 .205-.491q.136-.232.342-.37.218-.15.519-.15a.7.7 0 0 1 .561.26q.233.26.369.67.15.396.205.902.067.493.096.97.027.466.027.862zm7.096-.437q0 .752-.151 1.49a4.1 4.1 0 0 1-.506 1.326 2.75 2.75 0 0 1-.957.93q-.588.355-1.476.355-.876 0-1.463-.341a2.8 2.8 0 0 1-.944-.93 4.2 4.2 0 0 1-.492-1.299 8 8 0 0 1-.136-1.477q0-.82.191-1.626.04-.22.15-.602.123-.396.301-.766.192-.383.424-.656.246-.273.533-.273.273 0 .438.15t.259.383q.096.219.124.478.027.247.027.452 0 .314-.055.615-.04.3-.096.601l-.109.82a8 8 0 0 0-.027 1.286q.027.246.109.478.082.233.233.397.15.15.423.15.356 0 .561-.191.22-.191.314-.479.11-.287.137-.615.027-.329.027-.602 0-.6-.082-1.175a53 53 0 0 1-.15-1.19 1.3 1.3 0 0 1 .055-.602q.068-.204.191-.368a.9.9 0 0 1 .301-.26.74.74 0 0 1 .396-.11q.302 0 .534.22.232.204.382.546.164.329.26.752.11.41.164.82.069.397.082.752.028.356.028.56m6.726-5.086q0 .998-.082 1.982a30 30 0 0 0-.027 3.582q.054.793.054 1.6 0 .218-.013.533-.014.3-.096.588a1.14 1.14 0 0 1-.246.492q-.164.205-.479.205a.88.88 0 0 1-.683-.3 1.5 1.5 0 0 1-.328-.698 2.34 2.34 0 0 1-.752.834 1.83 1.83 0 0 1-1.067.342q-.615 0-1.066-.424a3.7 3.7 0 0 1-.738-1.025 6 6 0 0 1-.438-1.258 5.7 5.7 0 0 1-.137-1.135q0-.341.042-.779a8 8 0 0 1 .136-.889q.11-.45.274-.875a3.3 3.3 0 0 1 .41-.779 2.1 2.1 0 0 1 .601-.547q.355-.205.807-.205.493 0 .943.287.451.287.684.711l.123-2.174q.014-.26.041-.601a4 4 0 0 1 .109-.67q.096-.315.288-.533.19-.22.56-.22.396 0 .615.192t.315.492q.11.287.123.63.027.34.027.642m-2.228 6.07q0-.315-.014-.615a7 7 0 0 1 0-.615 9 9 0 0 0-.191-.383 1.7 1.7 0 0 0-.274-.397 1.4 1.4 0 0 0-.342-.314.74.74 0 0 0-.41-.123.54.54 0 0 0-.396.15.9.9 0 0 0-.219.37 2 2 0 0 0-.096.45 8 8 0 0 0-.013.425q0 .163.027.492.027.315.096.642.081.328.218.575.137.245.369.246a1 1 0 0 0 .356-.069q.177-.082.328-.191.164-.123.301-.26.15-.15.26-.273zm8.941.998q0 .246-.027.643a3.7 3.7 0 0 1-.11.78q-.095.368-.3.642a.68.68 0 0 1-.575.273q-.506 0-.779-.328t-.26-.82a3.3 3.3 0 0 1-.998.601 3 3 0 0 1-1.121.219q-.396 0-.752-.191a2.4 2.4 0 0 1-.629-.493 2.5 2.5 0 0 1-.437-.67 1.9 1.9 0 0 1-.164-.751q0-.656.396-1.149.41-.492.998-.834a5.7 5.7 0 0 1 1.244-.56 7.5 7.5 0 0 1 1.19-.274v-.123a.5.5 0 0 0 .013-.123q0-.423-.232-.683-.233-.26-.656-.26a1.3 1.3 0 0 0-.588.123q-.246.11-.465.26-.22.135-.437.26-.219.109-.493.109a.76.76 0 0 1-.519-.192.64.64 0 0 1-.205-.492q0-.45.26-.82.273-.369.669-.615.411-.26.875-.397.479-.15.875-.15.37 0 .739.095.369.082.697.274.329.178.588.451.273.26.437.615.246.506.397 1.08.15.56.232 1.162.082.588.11 1.19.027.588.027 1.148m-2.187-.437-.041-.93h-.055a.1.1 0 0 0-.055-.014 1.4 1.4 0 0 0-.451.096 2 2 0 0 0-.506.246q-.246.15-.424.342a.6.6 0 0 0-.164.397q0 .19.137.26a.7.7 0 0 0 .314.068 1.6 1.6 0 0 0 .643-.15q.341-.165.602-.315m7.751-2.748a.9.9 0 0 1-.328-.028l-.273-.109a3 3 0 0 0-.246-.096.54.54 0 0 0-.274-.04q-.273.012-.492.15a2 2 0 0 0-.383.342 2.4 2.4 0 0 0-.287.464 2.7 2.7 0 0 0-.191.493q-.04.164-.068.505-.015.33-.014.711-.014.397-.014.752 0 .356-.027.56a4 4 0 0 1-.069.52 2.2 2.2 0 0 1-.177.547 1.25 1.25 0 0 1-.301.438.7.7 0 0 1-.492.177.65.65 0 0 1-.41-.136 1.3 1.3 0 0 1-.287-.356 3.3 3.3 0 0 1-.192-.533 7 7 0 0 1-.109-.615q-.041-.329-.069-.656l-.027-.616v-.547q.014-.246.014-.396a17 17 0 0 0-.055-.957 18 18 0 0 1-.027-.97q0-.302.027-.67.027-.37.15-.684.123-.328.356-.547.246-.219.67-.219.233 0 .396.15.165.15.26.37.11.218.164.465.055.245.068.45.328-.533.739-.86.41-.343 1.066-.37.328-.013.643.069.327.067.588.246.273.164.437.437.178.274.192.643.027.437-.26.67a1.14 1.14 0 0 1-.698.246m7.055 5.51q-.697 0-1.217-.37a3.2 3.2 0 0 1-.875-.943 4.5 4.5 0 0 1-.533-1.272 5.8 5.8 0 0 1-.178-1.394q0-.725.178-1.49.178-.78.547-1.409a3.15 3.15 0 0 1 .943-1.038q.575-.41 1.368-.41.765 0 1.298.423.548.41.875 1.04.329.614.465 1.353.137.738.096 1.394-.041.725-.232 1.463a4.7 4.7 0 0 1-.534 1.326 3 3 0 0 1-.902.957q-.547.37-1.299.37m.137-6.18q-.205 0-.369.219a2.2 2.2 0 0 0-.26.533 5 5 0 0 0-.15.67 4 4 0 0 0-.055.601q0 .328.055.711.067.383.177.711.11.314.26.533.164.205.369.205.219 0 .369-.205.165-.204.26-.52.096-.314.137-.683.04-.383.041-.71 0-.301-.055-.657a3.7 3.7 0 0 0-.164-.684 1.5 1.5 0 0 0-.26-.52q-.15-.204-.355-.204m11.894.533a1 1 0 0 1-.013.15 1 1 0 0 1-.041.137q-.123.314-.383.533a.96.96 0 0 1-.615.205q-.534 0-.725-.533a.4.4 0 0 1-.027-.15 1.4 1.4 0 0 0-.014-.192v-.396a.8.8 0 0 0-.096-.3q-.068-.11-.232-.11-.232 0-.451.3a3.3 3.3 0 0 0-.369.698 6 6 0 0 0-.246.82q-.096.424-.096.684 0 .204.027.506.027.287.11.56.081.273.218.479a.47.47 0 0 0 .383.191.7.7 0 0 0 .424-.137q.206-.15.396-.341.179-.165.383-.342a.76.76 0 0 1 .492-.178.64.64 0 0 1 .534.246q.204.246.205.56 0 .465-.246.876-.246.396-.616.697a3 3 0 0 1-.82.451 2.4 2.4 0 0 1-.861.178q-.738 0-1.258-.37a2.9 2.9 0 0 1-.82-.929 4.4 4.4 0 0 1-.452-1.244 6.4 6.4 0 0 1-.136-1.272q0-.697.191-1.504a5.7 5.7 0 0 1 .588-1.517 3.8 3.8 0 0 1 1.012-1.162q.629-.465 1.49-.465.533 0 .916.232.397.232.643.616.26.369.382.834.138.465.137.916v.136a.6.6 0 0 1-.014.137m3.364 5.647q-.698 0-1.217-.37a3.2 3.2 0 0 1-.875-.943 4.5 4.5 0 0 1-.533-1.272 5.7 5.7 0 0 1-.178-1.394q0-.725.178-1.49.177-.78.547-1.409.369-.642.943-1.038.574-.41 1.367-.41.766 0 1.299.423.547.41.875 1.04.328.614.465 1.353.137.738.096 1.394-.041.725-.233 1.463a4.6 4.6 0 0 1-.533 1.326q-.356.588-.902.957-.548.37-1.299.37m.136-6.18q-.204 0-.369.219-.15.218-.259.533a5 5 0 0 0-.151.67 4 4 0 0 0-.055.601q0 .328.055.711.069.383.178.711.109.314.26.533.163.205.369.205.219 0 .369-.205.164-.204.26-.52.095-.314.136-.683.041-.383.041-.71 0-.301-.054-.657a4 4 0 0 0-.164-.684 1.6 1.6 0 0 0-.26-.52q-.15-.204-.356-.204m8.272.67a.9.9 0 0 1-.328-.028l-.274-.109a3 3 0 0 0-.246-.096.54.54 0 0 0-.273-.04q-.274.012-.492.15a2 2 0 0 0-.383.342 2.3 2.3 0 0 0-.287.464 3 3 0 0 0-.192.493q-.04.164-.068.505a17 17 0 0 0-.014.711q-.013.397-.013.752 0 .356-.028.56a5 5 0 0 1-.068.52 2.3 2.3 0 0 1-.178.547 1.25 1.25 0 0 1-.301.438.7.7 0 0 1-.492.177.65.65 0 0 1-.41-.136 1.3 1.3 0 0 1-.287-.356 3 3 0 0 1-.191-.533 6 6 0 0 1-.11-.615q-.04-.329-.068-.656l-.028-.616v-.547q.014-.246.014-.396a16 16 0 0 0-.055-.957 18 18 0 0 1-.027-.97q0-.302.027-.67.028-.37.151-.684.123-.328.355-.547.246-.219.67-.219.232 0 .397.15.164.15.259.37.11.218.165.465.054.245.068.45a3.3 3.3 0 0 1 .738-.86q.41-.343 1.067-.37.328-.013.642.069.329.067.588.246.273.164.438.437.177.274.191.643.028.437-.26.67a1.14 1.14 0 0 1-.697.246m7.424 1.039q0 .6-.137 1.326a4.7 4.7 0 0 1-.437 1.326 3 3 0 0 1-.807 1.025q-.492.41-1.244.41-.192 0-.397-.027a2 2 0 0 1-.396-.095 1.4 1.4 0 0 1-.328-.178.8.8 0 0 1-.233-.315l-.123 1.97q-.013.314-.027.751 0 .438-.11.834a1.5 1.5 0 0 1-.341.67q-.232.287-.684.287-.26 0-.437-.273a2.2 2.2 0 0 1-.288-.67 8 8 0 0 1-.15-.916q-.054-.507-.068-.97-.014-.465-.014-.849v-.56q0-.915-.014-1.819-.013-.915-.013-1.831v-.506q0-.356.027-.766.028-.41.082-.848.069-.437.191-.793a1.7 1.7 0 0 1 .315-.587.58.58 0 0 1 .465-.233q.177 0 .314.11.15.095.246.26.11.15.178.327.069.178.109.328.425-.478.971-.724.56-.246 1.19-.246.656 0 1.066.369.424.369.656.916.246.546.342 1.176.096.615.096 1.12m-1.955-.11q0-.204-.041-.41a1.2 1.2 0 0 0-.123-.396.67.67 0 0 0-.246-.301.67.67 0 0 0-.411-.123q-.327 0-.697.219a1.5 1.5 0 0 0-.533.478q-.069.11-.082.356a8 8 0 0 0-.014.369v.26l.028.314.027.315q.027.15.068.232.042.123.178.232.136.096.301.178.163.082.328.123.178.04.301.041a.57.57 0 0 0 .464-.219q.178-.218.274-.52.109-.3.137-.614a5 5 0 0 0 .041-.534m5.386 4.58q-.697 0-1.216-.369a3.2 3.2 0 0 1-.875-.943 4.5 4.5 0 0 1-.534-1.272 5.8 5.8 0 0 1-.177-1.394q0-.725.177-1.49.178-.78.547-1.409.37-.642.944-1.038.573-.41 1.367-.41.765 0 1.299.423.546.41.875 1.04.327.614.464 1.353.138.738.096 1.394-.041.725-.232 1.463a4.7 4.7 0 0 1-.533 1.326q-.356.588-.903.957-.546.37-1.299.37m.137-6.18q-.205 0-.369.22-.15.218-.26.533a5 5 0 0 0-.15.67 4 4 0 0 0-.055.601q0 .328.055.711.068.383.178.711.108.314.259.533.165.205.369.205.219 0 .37-.205.164-.204.259-.52.096-.314.137-.683.04-.383.041-.71 0-.301-.055-.657a3.7 3.7 0 0 0-.164-.684 1.5 1.5 0 0 0-.259-.52q-.151-.204-.356-.204m12.633 3.856q0 .246-.027.643-.014.396-.11.78-.096.368-.301.642a.68.68 0 0 1-.574.273q-.506 0-.779-.328t-.26-.82a3.4 3.4 0 0 1-.998.601 3 3 0 0 1-1.121.219q-.396 0-.752-.191a2.3 2.3 0 0 1-.629-.493 2.5 2.5 0 0 1-.437-.67 1.9 1.9 0 0 1-.164-.751q0-.656.396-1.149.41-.492.998-.834a5.7 5.7 0 0 1 1.244-.56 7.5 7.5 0 0 1 1.19-.274v-.123a.5.5 0 0 0 .013-.123q0-.423-.232-.683-.233-.26-.656-.26a1.3 1.3 0 0 0-.588.123q-.246.11-.465.26-.219.135-.438.26a1.1 1.1 0 0 1-.492.109.76.76 0 0 1-.519-.192.64.64 0 0 1-.205-.492q0-.45.259-.82.274-.369.67-.615.41-.26.875-.397.479-.15.875-.15.37 0 .739.095.369.082.697.274.328.178.588.451.273.26.437.615.246.506.397 1.08.15.56.232 1.162.082.588.11 1.19.027.588.027 1.148m-2.188-.437-.041-.93h-.054a.1.1 0 0 0-.055-.014 1.4 1.4 0 0 0-.451.096 2 2 0 0 0-.506.246q-.246.15-.424.342a.6.6 0 0 0-.164.397q0 .19.137.26a.7.7 0 0 0 .314.068 1.6 1.6 0 0 0 .643-.15q.342-.165.601-.315m12.291-1.545q0 .752-.15 1.49a4.1 4.1 0 0 1-.506 1.326 2.75 2.75 0 0 1-.957.93q-.588.355-1.476.355-.876 0-1.463-.341a2.8 2.8 0 0 1-.944-.93 4.2 4.2 0 0 1-.492-1.299 8 8 0 0 1-.137-1.477q0-.82.192-1.626.04-.22.15-.602.123-.396.301-.766.192-.383.424-.656.246-.273.533-.273.273 0 .438.15t.259.383q.096.219.123.478.028.247.028.452 0 .314-.055.615-.04.3-.096.601l-.109.82a8 8 0 0 0-.027 1.286q.027.246.109.478.082.233.232.397.151.15.424.15.356 0 .561-.191.218-.191.314-.479.11-.287.137-.615.027-.329.027-.602 0-.6-.082-1.175a48 48 0 0 1-.15-1.19 1.3 1.3 0 0 1 .055-.602q.068-.204.191-.368a.9.9 0 0 1 .301-.26.74.74 0 0 1 .396-.11q.301 0 .533.22.233.204.383.546.164.329.26.752.11.41.164.82.069.397.082.752.027.356.027.56m4.84-3.61q0 .397-.273.588-.26.192-.588.37-.328.163-.602.396-.26.232-.259.697 0 .246.109.424.123.178.287.328.178.137.383.287t.369.342q.178.192.287.465.123.273.123.67 0 .574-.301 1.135a3.7 3.7 0 0 1-.752.984q-.45.424-1.025.684-.574.26-1.135.26-.233 0-.465-.042a1.3 1.3 0 0 1-.423-.123.9.9 0 0 1-.301-.26.8.8 0 0 1-.123-.45q0-.384.15-.588.15-.219.383-.342.232-.123.492-.192.274-.068.506-.164.233-.11.383-.273t.15-.465q0-.287-.232-.588-.219-.314-.492-.656a7 7 0 0 1-.506-.752 1.8 1.8 0 0 1-.219-.875q0-.588.232-1.08.247-.507.643-.875.41-.37.93-.575a2.8 2.8 0 0 1 1.093-.218q.22 0 .424.04.22.042.383.151.165.096.26.274a.75.75 0 0 1 .109.424m6.358 5.592q0 .246-.028.643a3.7 3.7 0 0 1-.109.78q-.096.368-.301.642a.68.68 0 0 1-.574.273q-.506 0-.779-.328-.274-.328-.26-.82a3.4 3.4 0 0 1-.998.601 3 3 0 0 1-1.121.219q-.397 0-.752-.191a2.3 2.3 0 0 1-.629-.493 2.5 2.5 0 0 1-.438-.67 1.9 1.9 0 0 1-.164-.751q0-.656.397-1.149.41-.492.998-.834a5.7 5.7 0 0 1 1.244-.56 7.5 7.5 0 0 1 1.189-.274v-.123a.5.5 0 0 0 .014-.123q0-.423-.232-.683-.233-.26-.657-.26-.34 0-.587.123-.246.11-.465.26-.219.135-.438.26-.219.109-.492.109a.76.76 0 0 1-.519-.192.64.64 0 0 1-.206-.492q0-.45.26-.82.274-.369.67-.615.41-.26.875-.397.479-.15.875-.15.369 0 .738.095.37.082.698.274.327.178.588.451.273.26.437.615.246.506.397 1.08.15.56.232 1.162.082.588.109 1.19.028.588.028 1.148m-2.188-.437-.041-.93h-.055a.1.1 0 0 0-.054-.014q-.178 0-.451.096a2 2 0 0 0-.506.246 2 2 0 0 0-.424.342.6.6 0 0 0-.164.397q0 .19.137.26a.7.7 0 0 0 .314.068 1.6 1.6 0 0 0 .643-.15q.341-.165.601-.315m7.752-2.748a.9.9 0 0 1-.328-.028l-.273-.109a3 3 0 0 0-.247-.096.54.54 0 0 0-.273-.04q-.273.012-.492.15a2 2 0 0 0-.383.342 2.4 2.4 0 0 0-.287.464 2.7 2.7 0 0 0-.191.493 3 3 0 0 0-.069.505 17 17 0 0 0-.013.711q-.014.397-.014.752 0 .356-.028.56a4 4 0 0 1-.068.52 2.2 2.2 0 0 1-.178.547 1.3 1.3 0 0 1-.3.438.7.7 0 0 1-.493.177.65.65 0 0 1-.41-.136 1.3 1.3 0 0 1-.287-.356 3 3 0 0 1-.191-.533 7 7 0 0 1-.11-.615q-.04-.329-.068-.656l-.027-.616v-.547q.013-.246.013-.396a17 17 0 0 0-.054-.957 17 17 0 0 1-.028-.97q0-.302.028-.67.027-.37.15-.684.123-.328.356-.547.246-.219.669-.219.233 0 .397.15t.26.37q.109.218.164.465.054.245.068.45a3.3 3.3 0 0 1 .738-.86q.41-.343 1.067-.37.329-.013.642.069.328.067.588.246.274.164.438.437.177.274.191.643.027.437-.26.67a1.13 1.13 0 0 1-.697.246m10.186 2.68q0 .465-.301.915a3.4 3.4 0 0 1-.738.793 4.3 4.3 0 0 1-.944.56 2.5 2.5 0 0 1-.929.206q-.724 0-1.299-.355a3.4 3.4 0 0 1-.944-.93 4.5 4.5 0 0 1-.587-1.23 5 5 0 0 1-.192-1.327q0-.684.192-1.463.191-.78.574-1.435a3.8 3.8 0 0 1 .984-1.094q.602-.437 1.422-.437.465 0 .889.164a2.15 2.15 0 0 1 1.244 1.12q.19.397.191.89 0 .642-.273 1.203a3.2 3.2 0 0 1-.725.97 3.8 3.8 0 0 1-1.039.67 3.5 3.5 0 0 1-1.203.273q.054.397.314.575.274.177.643.177.273 0 .533-.136a6 6 0 0 0 .506-.301 6 6 0 0 1 .479-.314q.246-.137.492-.137a.76.76 0 0 1 .492.178.57.57 0 0 1 .219.464m-2.215-3.35a.8.8 0 0 0-.096-.37.32.32 0 0 0-.301-.19q-.3 0-.505.163-.206.15-.342.397a2.3 2.3 0 0 0-.219.506q-.069.273-.082.505.192-.04.451-.109a3 3 0 0 0 .506-.178q.246-.123.41-.3a.58.58 0 0 0 .178-.424m6.767-1.736q0 .396-.273.587-.26.192-.588.37-.328.163-.601.396-.26.232-.26.697 0 .246.109.424.123.178.287.328.178.137.383.287t.369.342q.178.192.287.465.123.273.123.67 0 .574-.3 1.135a3.73 3.73 0 0 1-1.778 1.668q-.574.26-1.135.26-.231 0-.464-.042a1.3 1.3 0 0 1-.424-.123.9.9 0 0 1-.301-.26.8.8 0 0 1-.123-.45q0-.384.15-.588.151-.219.383-.342.233-.123.492-.192.274-.068.506-.164.233-.11.383-.273t.15-.465q0-.287-.232-.588-.219-.314-.492-.656a7 7 0 0 1-.506-.752 1.8 1.8 0 0 1-.219-.875q0-.588.233-1.08.246-.507.642-.875.411-.37.93-.575a2.8 2.8 0 0 1 1.094-.218q.218 0 .423.04.22.042.383.151.164.096.26.274a.75.75 0 0 1 .109.424m4.553 0q0 .396-.273.587-.26.192-.588.37-.328.163-.602.396-.26.232-.259.697 0 .246.109.424.123.178.287.328.177.137.383.287t.369.342q.177.192.287.465.123.273.123.67 0 .574-.301 1.135a3.7 3.7 0 0 1-.752.984q-.45.424-1.025.684-.574.26-1.135.26-.232 0-.465-.042a1.3 1.3 0 0 1-.423-.123.9.9 0 0 1-.301-.26.8.8 0 0 1-.123-.45q0-.384.15-.588.15-.219.383-.342t.492-.192q.273-.068.506-.164.233-.11.383-.273t.15-.465q0-.287-.232-.588-.219-.314-.492-.656a7 7 0 0 1-.506-.752 1.8 1.8 0 0 1-.219-.875q0-.588.232-1.08.246-.507.643-.875.41-.37.93-.575a2.8 2.8 0 0 1 1.093-.218q.219 0 .424.04.22.042.383.151a.7.7 0 0 1 .26.274.75.75 0 0 1 .109.424m6.358 5.591q0 .246-.028.643a3.7 3.7 0 0 1-.109.78q-.096.368-.301.642a.68.68 0 0 1-.574.273q-.506 0-.779-.328-.274-.328-.26-.82a3.4 3.4 0 0 1-.998.601 3 3 0 0 1-1.121.219q-.397 0-.752-.191a2.3 2.3 0 0 1-.629-.493 2.5 2.5 0 0 1-.438-.67 1.9 1.9 0 0 1-.164-.751q0-.656.397-1.149.41-.492.998-.834a5.7 5.7 0 0 1 1.244-.56 7.5 7.5 0 0 1 1.189-.274v-.123a.5.5 0 0 0 .014-.123q0-.423-.232-.683t-.657-.26q-.34 0-.588.123-.246.11-.464.26-.219.135-.438.26-.219.109-.492.109a.76.76 0 0 1-.52-.192.65.65 0 0 1-.205-.492q0-.45.26-.82.274-.369.67-.615.41-.26.875-.397.479-.15.875-.15.369 0 .738.095.37.082.698.274.327.178.587.451.275.26.438.615.246.506.396 1.08.151.56.233 1.162.082.588.109 1.19.028.588.028 1.148m-2.188-.437-.041-.93h-.055a.1.1 0 0 0-.054-.014q-.178 0-.451.096a2 2 0 0 0-.506.246 2 2 0 0 0-.424.342.6.6 0 0 0-.164.397q0 .19.136.26a.7.7 0 0 0 .315.068q.3 0 .643-.15.341-.165.601-.315m12.031-.069q0 .466-.3.916a3.4 3.4 0 0 1-.739.793 4.3 4.3 0 0 1-.943.56 2.5 2.5 0 0 1-.93.206q-.725 0-1.299-.355a3.4 3.4 0 0 1-.943-.93 4.5 4.5 0 0 1-.588-1.23 5 5 0 0 1-.191-1.327q0-.684.191-1.463.192-.78.574-1.435.397-.657.985-1.094.602-.437 1.422-.437.465 0 .888.164a2.15 2.15 0 0 1 1.244 1.12q.192.397.192.89 0 .642-.274 1.203a3.2 3.2 0 0 1-.724.97 3.8 3.8 0 0 1-1.039.67 3.5 3.5 0 0 1-1.203.273q.054.397.314.575.273.177.643.177.273 0 .533-.136a6 6 0 0 0 .506-.301q.246-.177.478-.314.246-.137.492-.137.274 0 .493.178a.57.57 0 0 1 .218.464m-2.215-3.35a.8.8 0 0 0-.095-.368.32.32 0 0 0-.301-.192.8.8 0 0 0-.506.164q-.206.15-.342.397a2.3 2.3 0 0 0-.218.506q-.069.273-.082.505.191-.04.451-.109a3 3 0 0 0 .506-.178q.245-.123.41-.3a.58.58 0 0 0 .177-.424m6.645 6.167q-.233 0-.369-.219a1.5 1.5 0 0 1-.205-.478 4 4 0 0 1-.096-.547 10 10 0 0 1-.014-.438q0-.41.041-.82l.11-.82q.068-.41.109-.82.055-.411.055-.821 0-.165-.014-.356a1.5 1.5 0 0 0-.068-.355.6.6 0 0 0-.151-.287.4.4 0 0 0-.287-.11q-.123 0-.273.206-.15.191-.287.45a5 5 0 0 0-.219.507 1.3 1.3 0 0 0-.082.369v.615q.014.3.014.615v.793q-.014.246-.041.506a5 5 0 0 1-.082.506 3 3 0 0 1-.123.478 1.5 1.5 0 0 1-.219.397q-.123.164-.301.273a.8.8 0 0 1-.424.11.6.6 0 0 1-.451-.178 1.3 1.3 0 0 1-.287-.451 3 3 0 0 1-.164-.63 22 22 0 0 1-.068-.683q-.014-.342-.014-.615.014-.287.014-.451v-.643q0-.52-.028-1.025a38 38 0 0 1-.013-1.012v-.697q.013-.424.109-.82a1.8 1.8 0 0 1 .314-.698q.219-.287.643-.287.191 0 .342.123.15.123.259.301.124.178.192.383.082.205.123.355.137-.19.314-.369.192-.177.424-.314a2.2 2.2 0 0 1 1.176-.301q.697 0 1.08.342.397.328.574.834.191.492.233 1.066.04.575.041 1.04 0 .231-.041.697-.041.45-.137 1.011a12 12 0 0 1-.232 1.135 7.6 7.6 0 0 1-.356 1.053 2.6 2.6 0 0 1-.492.779q-.273.3-.629.3m8.381-2.817q0 .466-.301.916a3.3 3.3 0 0 1-.738.793 4.3 4.3 0 0 1-.944.56 2.5 2.5 0 0 1-.929.206q-.725 0-1.299-.355a3.4 3.4 0 0 1-.943-.93 4.5 4.5 0 0 1-.588-1.23 5 5 0 0 1-.192-1.327q0-.684.192-1.463.191-.78.574-1.435a3.8 3.8 0 0 1 .984-1.094q.602-.437 1.422-.437.465 0 .889.164a2.15 2.15 0 0 1 1.244 1.12q.191.397.191.89 0 .642-.273 1.203a3.2 3.2 0 0 1-.725.97q-.45.41-1.039.67a3.5 3.5 0 0 1-1.203.273q.055.397.315.575.273.177.642.177.273 0 .533-.136a6 6 0 0 0 .506-.301 6 6 0 0 1 .479-.314q.246-.137.492-.137a.76.76 0 0 1 .492.178.57.57 0 0 1 .219.464m-2.215-3.35a.8.8 0 0 0-.096-.368.315.315 0 0 0-.3-.192.78.78 0 0 0-.506.164q-.206.15-.342.397a2.3 2.3 0 0 0-.219.506q-.068.273-.082.505.192-.04.451-.109.274-.068.506-.178.246-.123.41-.3a.58.58 0 0 0 .178-.424m7.506.67a.9.9 0 0 1-.328-.027l-.274-.109a3 3 0 0 0-.246-.096.54.54 0 0 0-.273-.04q-.274.012-.492.15a2 2 0 0 0-.383.342 2.3 2.3 0 0 0-.287.464 3 3 0 0 0-.192.493q-.04.164-.068.505a17 17 0 0 0-.014.711q-.013.397-.013.752 0 .356-.028.56a5 5 0 0 1-.068.52 2.3 2.3 0 0 1-.178.547 1.25 1.25 0 0 1-.301.438.7.7 0 0 1-.492.177.65.65 0 0 1-.41-.136 1.3 1.3 0 0 1-.287-.356 3 3 0 0 1-.191-.533 6 6 0 0 1-.11-.615q-.04-.329-.068-.656l-.028-.616v-.547q.014-.246.014-.396a16 16 0 0 0-.055-.957 18 18 0 0 1-.027-.97q0-.302.027-.67.028-.37.151-.684.123-.328.355-.547.246-.219.67-.219.232 0 .397.15.164.15.259.37.11.218.165.465.054.245.068.45a3.3 3.3 0 0 1 .738-.86q.41-.343 1.067-.37.327-.013.642.069.329.067.588.246.273.164.438.437.177.274.191.643.028.437-.26.67a1.14 1.14 0 0 1-.697.246m7.355.452q0 .698-.027 1.394-.014.698-.068 1.395-.042.602-.11 1.285-.068.684-.218 1.354a8.4 8.4 0 0 1-.397 1.298q-.246.63-.656 1.108a3 3 0 0 1-.971.766q-.574.286-1.367.287-.369 0-.834-.123a3.6 3.6 0 0 1-.861-.329 2.5 2.5 0 0 1-.684-.546 1.1 1.1 0 0 1-.273-.739q0-.314.218-.588a.76.76 0 0 1 .588-.26q.22 0 .41.069.205.082.397.178.205.095.383.164a1 1 0 0 0 .382.082q.506 0 .848-.26.342-.246.547-.642.205-.383.301-.848.11-.451.15-.861-.273.314-.642.437-.356.11-.752.11-.725 0-1.231-.247a2.3 2.3 0 0 1-.82-.697q-.315-.45-.465-1.04-.15-.587-.15-1.27 0-.424.082-.958.095-.533.273-1.08t.438-1.066a4.5 4.5 0 0 1 .629-.916q.355-.397.792-.643.451-.246.985-.246.52 0 .916.301.41.3.478.848.151-.288.397-.56a.76.76 0 0 1 .601-.288q.192 0 .315.191.136.192.205.506.083.3.123.67.041.355.055.711.013.342.013.63zm-2.078.889q0-.206-.068-.534a3 3 0 0 0-.178-.629 1.8 1.8 0 0 0-.287-.52.53.53 0 0 0-.424-.218.82.82 0 0 0-.56.219 2 2 0 0 0-.397.533q-.164.301-.26.656a2.6 2.6 0 0 0-.082.588q0 .178.028.479.027.3.109.588.096.287.246.492a.47.47 0 0 0 .397.205q.369 0 .642-.178.274-.178.451-.451.192-.273.288-.601.095-.33.095-.63m5.305-5.77a.57.57 0 0 1-.109.342q-.096.15-.26.273-.164.11-.356.178a1.3 1.3 0 0 1-.355.055.85.85 0 0 1-.479-.137q-.204-.137-.205-.424 0-.205.096-.355a.9.9 0 0 1 .26-.26q.15-.11.342-.164.19-.055.369-.055.26 0 .478.123.219.123.219.424m.109 4.649v.41q0 .204-.013.396-.014.233-.014.629 0 .382-.027.834-.029.45-.096.916-.055.465-.191.848a1.8 1.8 0 0 1-.37.629.78.78 0 0 1-.56.246.51.51 0 0 1-.438-.205 1.9 1.9 0 0 1-.3-.561 5 5 0 0 1-.165-.78q-.054-.436-.082-.833a12 12 0 0 1-.027-.752v-1.121q0-.41.027-.875.029-.465.096-.944.082-.478.219-.875.15-.396.383-.642a.77.77 0 0 1 .588-.246q.37 0 .56.369.192.369.287.861.096.492.11.984.013.479.013.712m6.782 2.966q0 .246-.028.643a3.7 3.7 0 0 1-.109.78q-.096.368-.301.642a.68.68 0 0 1-.574.273q-.506 0-.779-.328-.274-.328-.26-.82a3.4 3.4 0 0 1-.998.601 3 3 0 0 1-1.121.219q-.397 0-.752-.191a2.3 2.3 0 0 1-.629-.493 2.5 2.5 0 0 1-.438-.67 1.9 1.9 0 0 1-.164-.751q0-.656.397-1.149.41-.492.998-.834a5.7 5.7 0 0 1 1.244-.56 7.4 7.4 0 0 1 1.189-.274v-.123a.5.5 0 0 0 .014-.123q0-.423-.232-.683-.233-.26-.657-.26-.341 0-.588.123-.246.11-.464.26-.219.135-.438.26-.219.109-.492.109a.76.76 0 0 1-.52-.192.65.65 0 0 1-.205-.492q0-.45.26-.82.273-.369.67-.615.41-.26.875-.397.479-.15.875-.15.369 0 .738.095.37.082.698.274.327.178.587.451.274.26.438.615.246.506.396 1.08.151.56.233 1.162.082.588.109 1.19.027.588.028 1.148m-2.188-.437-.041-.93h-.055a.1.1 0 0 0-.054-.014q-.178 0-.452.096a2 2 0 0 0-.505.246 2 2 0 0 0-.424.342.6.6 0 0 0-.164.397q0 .19.136.26a.7.7 0 0 0 .315.068q.3 0 .642-.15.342-.165.602-.315"/><defs><filter id="a" width="299.853" height="110" x="-2.853" y="0" color-interpolation-filters="sRGB" filterUnits="userSpaceOnUse"><feFlood flood-opacity="0" result="BackgroundImageFix"/><feBlend in="SourceGraphic" in2="BackgroundImageFix" result="shape"/><feColorMatrix in="SourceAlpha" result="hardAlpha" values="0 0 0 0 0 0 0 0 0 0 0 0 0 0 0 0 0 0 127 0"/><feOffset dy="4"/><feGaussianBlur stdDeviation="2"/><feComposite in2="hardAlpha" k2="-1" k3="1" operator="arithmetic"/><feColorMatrix values="0 0 0 0 0 0 0 0 0 0 0 0 0 0 0 0 0 0 0.25 0"/><feBlend in2="shape" result="effect1_innerShadow_698_196"/></filter></defs></svg>