<svg width="249" height="180" viewBox="0 0 249 180" fill="none" xmlns="http://www.w3.org/2000/svg">
<g filter="url(#filter0_i_695_198)">
<path fill-rule="evenodd" clip-rule="evenodd" d="M26.9602 118.322C8.97696 111.202 1 101.673 1 91.4657C1 77.0979 22.056 62.9044 56.8884 55.8865C73.7832 52.4826 93.6333 51 116.44 51C186.268 51 250.664 65.6593 247.915 91.4657C247.915 104.27 235.997 116.045 211.724 123.075C195.552 127.758 174.139 130.099 146.217 130.099C96.8 132.387 59.407 128.57 35.467 121.276C27.3671 133.661 20.1113 149.844 21.8209 157.048C15.9802 149.445 20.9205 132.066 26.9602 118.322Z" fill="#F4719C"/>
</g>
<path d="M26.9602 118.322L27.8757 118.724C27.985 118.475 27.9884 118.193 27.8851 117.942C27.7819 117.69 27.5809 117.492 27.3283 117.392L26.9602 118.322ZM56.8884 55.8865L56.6909 54.9062L56.8884 55.8865ZM247.915 91.4657L246.921 91.3598C246.917 91.3949 246.915 91.4303 246.915 91.4657H247.915ZM211.724 123.075L212.003 124.035L211.724 123.075ZM146.217 130.099V129.099C146.202 129.099 146.187 129.099 146.171 129.1L146.217 130.099ZM35.467 121.276L35.7584 120.319C35.3332 120.19 34.8734 120.356 34.6301 120.728L35.467 121.276ZM21.8209 157.048L21.0279 157.658C21.3152 158.032 21.8247 158.154 22.2505 157.951C22.6763 157.749 22.9028 157.276 22.7939 156.818L21.8209 157.048ZM0 91.4657C0 102.302 8.48293 112.082 26.5921 119.251L27.3283 117.392C9.47099 110.322 2 101.044 2 91.4657H0ZM56.6909 54.9062C39.1981 58.4305 25.0959 63.7688 15.3389 70.0802C5.62214 76.3657 0 83.7685 0 91.4657H2C2 84.7951 6.90585 77.9173 16.4252 71.7595C25.9043 65.6278 39.7462 60.3603 57.0859 56.8668L56.6909 54.9062ZM116.44 50C93.5954 50 73.6737 51.4845 56.6909 54.9062L57.0859 56.8668C73.8928 53.4806 93.6711 52 116.44 52V50ZM248.909 91.5716C249.65 84.6232 245.833 78.5631 238.947 73.4528C232.064 68.3446 221.957 64.0522 209.665 60.5928C185.063 53.669 151.409 50 116.44 50V52C151.3 52 184.757 55.6606 209.123 62.518C221.315 65.9493 231.155 70.1604 237.755 75.0589C244.353 79.9552 247.555 85.4049 246.921 91.3598L248.909 91.5716ZM212.003 124.035C236.357 116.982 248.915 104.994 248.915 91.4657H246.915C246.915 103.547 235.637 115.108 211.446 122.114L212.003 124.035ZM146.217 131.099C174.183 131.099 195.701 128.756 212.003 124.035L211.446 122.114C195.402 126.76 174.096 129.099 146.217 129.099V131.099ZM35.1755 122.232C59.2703 129.574 96.7918 133.388 146.264 131.098L146.171 129.1C96.8082 131.385 59.5438 127.566 35.7584 120.319L35.1755 122.232ZM22.7939 156.818C22.4162 155.226 22.5172 153.032 23.0719 150.365C23.6224 147.717 24.6007 144.691 25.8931 141.478C28.4776 135.054 32.2839 127.97 36.3039 121.823L34.6301 120.728C30.5502 126.967 26.6786 134.167 24.0376 140.732C22.7173 144.014 21.6959 147.158 21.1137 149.958C20.5357 152.738 20.3709 155.269 20.848 157.279L22.7939 156.818ZM26.0447 117.919C23.0077 124.831 20.2303 132.691 18.9512 139.811C18.3116 143.371 18.0401 146.781 18.3147 149.813C18.5889 152.841 19.4141 155.557 21.0279 157.658L22.614 156.439C21.3074 154.738 20.5599 152.431 20.3065 149.632C20.0534 146.837 20.2993 143.618 20.9197 140.165C22.1605 133.258 24.873 125.557 27.8757 118.724L26.0447 117.919Z" fill="#F4719C"/>
<path d="M30.0589 86.5156C29.4235 86.5156 28.8714 86.3542 28.4027 86.0312C27.9339 85.7188 27.5433 85.2969 27.2308 84.7656C26.9287 84.224 26.6995 83.599 26.5433 82.8906C26.3975 82.1823 26.3245 81.4375 26.3245 80.6562C26.3245 79.9271 26.4027 79.1875 26.5589 78.4375C26.7256 77.6875 26.9756 77.0104 27.3089 76.4062C27.6423 75.8021 28.0641 75.3073 28.5745 74.9219C29.085 74.5365 29.6943 74.3438 30.4027 74.3438C31.0902 74.3438 31.6631 74.5312 32.1214 74.9062C32.5902 75.2708 32.96 75.75 33.2308 76.3438C33.512 76.9271 33.71 77.5833 33.8245 78.3125C33.9495 79.0417 34.012 79.7708 34.012 80.5C34.012 81.3125 33.9287 82.0833 33.762 82.8125C33.6058 83.5312 33.361 84.1667 33.0277 84.7188C32.7048 85.2708 32.2933 85.7083 31.7933 86.0312C31.3037 86.3542 30.7256 86.5156 30.0589 86.5156ZM30.2464 77.7969C30.0485 77.7969 29.8766 77.875 29.7308 78.0312C29.5954 78.1875 29.4808 78.3958 29.387 78.6562C29.2933 78.9062 29.2256 79.1927 29.1839 79.5156C29.1423 79.8281 29.1214 80.1458 29.1214 80.4688C29.1214 80.8333 29.1423 81.1979 29.1839 81.5625C29.236 81.9271 29.3089 82.2552 29.4027 82.5469C29.4964 82.8385 29.611 83.0729 29.7464 83.25C29.8923 83.4271 30.0641 83.5156 30.262 83.5156C30.4912 83.5156 30.6735 83.401 30.8089 83.1719C30.9443 82.9427 31.0485 82.6667 31.1214 82.3438C31.2048 82.0208 31.2568 81.6875 31.2777 81.3438C31.3089 81 31.3245 80.7135 31.3245 80.4844C31.3245 80.2031 31.3037 79.9062 31.262 79.5938C31.2308 79.2812 31.1735 78.9948 31.0902 78.7344C31.0068 78.4635 30.8975 78.2396 30.762 78.0625C30.6266 77.8854 30.4548 77.7969 30.2464 77.7969ZM45.8089 81.3438C45.8089 81.8021 45.7568 82.3073 45.6527 82.8594C45.5589 83.401 45.3923 83.9062 45.1527 84.375C44.9235 84.8438 44.6162 85.2344 44.2308 85.5469C43.8558 85.8594 43.3818 86.0156 42.8089 86.0156C42.6631 86.0156 42.512 86.0052 42.3558 85.9844C42.1995 85.9635 42.0485 85.9271 41.9027 85.875C41.7673 85.8229 41.6423 85.7552 41.5277 85.6719C41.4131 85.5781 41.3245 85.4583 41.262 85.3125L41.1214 87.5625C41.111 87.8021 41.1006 88.0885 41.0902 88.4219C41.0902 88.7552 41.0485 89.0729 40.9652 89.375C40.8923 89.6771 40.762 89.9323 40.5745 90.1406C40.3975 90.3594 40.137 90.4688 39.7933 90.4688C39.5954 90.4688 39.4287 90.3646 39.2933 90.1562C39.1579 89.9583 39.0485 89.7031 38.9652 89.3906C38.8923 89.0781 38.835 88.7292 38.7933 88.3438C38.7516 87.9583 38.7256 87.5885 38.7152 87.2344C38.7048 86.8802 38.6995 86.5573 38.6995 86.2656C38.6995 85.974 38.6995 85.7604 38.6995 85.625C38.6995 84.9271 38.6943 84.2344 38.6839 83.5469C38.6735 82.849 38.6683 82.151 38.6683 81.4531C38.6683 81.3281 38.6683 81.1354 38.6683 80.875C38.6683 80.6042 38.6787 80.3125 38.6995 80C38.7204 79.6875 38.7516 79.3646 38.7933 79.0312C38.8454 78.6979 38.9183 78.3958 39.012 78.125C39.1058 77.8438 39.2256 77.6198 39.3714 77.4531C39.5173 77.276 39.6943 77.1875 39.9027 77.1875C40.0381 77.1875 40.1579 77.2292 40.262 77.3125C40.3766 77.3854 40.4704 77.4844 40.5433 77.6094C40.6266 77.724 40.6943 77.849 40.7464 77.9844C40.7985 78.1198 40.8402 78.2448 40.8714 78.3594C41.1943 77.9948 41.5641 77.7188 41.9808 77.5312C42.4079 77.3438 42.861 77.25 43.3402 77.25C43.8402 77.25 44.2464 77.3906 44.5589 77.6719C44.8818 77.9531 45.1318 78.3021 45.3089 78.7188C45.4964 79.1354 45.6266 79.5833 45.6995 80.0625C45.7725 80.5312 45.8089 80.9583 45.8089 81.3438ZM43.5745 81.2188C43.5745 81.0625 43.5589 80.9062 43.5277 80.75C43.5068 80.5833 43.46 80.4323 43.387 80.2969C43.3245 80.151 43.2308 80.0365 43.1058 79.9531C42.9808 79.8594 42.8245 79.8125 42.637 79.8125C42.387 79.8125 42.1214 79.8958 41.8402 80.0625C41.5693 80.2188 41.3662 80.401 41.2308 80.6094C41.1787 80.6927 41.1475 80.8281 41.137 81.0156C41.1266 81.2031 41.1214 81.3438 41.1214 81.4375C41.1214 81.5104 41.1214 81.6094 41.1214 81.7344C41.1318 81.849 41.1423 81.9688 41.1527 82.0938C41.1631 82.2188 41.1735 82.3385 41.1839 82.4531C41.2048 82.5677 41.2308 82.6562 41.262 82.7188C41.2933 82.8125 41.361 82.901 41.4652 82.9844C41.5693 83.0573 41.6839 83.125 41.8089 83.1875C41.9339 83.25 42.0589 83.2969 42.1839 83.3281C42.3193 83.3594 42.4339 83.375 42.5277 83.375C42.7464 83.375 42.9235 83.2917 43.0589 83.125C43.1943 82.9583 43.2985 82.7604 43.3714 82.5312C43.4548 82.3021 43.5068 82.0677 43.5277 81.8281C43.5589 81.5781 43.5745 81.375 43.5745 81.2188ZM53.4027 83.7969C53.4027 83.9844 53.3923 84.2292 53.3714 84.5312C53.361 84.8333 53.3193 85.1302 53.2464 85.4219C53.1735 85.7031 53.0589 85.9479 52.9027 86.1562C52.7464 86.3646 52.5277 86.4688 52.2464 86.4688C51.861 86.4688 51.5641 86.3438 51.3558 86.0938C51.1475 85.8438 51.0485 85.5312 51.0589 85.1562C50.7256 85.4479 50.3454 85.6771 49.9183 85.8438C49.5016 86.0104 49.0745 86.0938 48.637 86.0938C48.335 86.0938 48.0485 86.0208 47.7777 85.875C47.5068 85.7292 47.2673 85.5417 47.0589 85.3125C46.8506 85.0833 46.6839 84.8281 46.5589 84.5469C46.4339 84.2552 46.3714 83.9688 46.3714 83.6875C46.3714 83.1875 46.5225 82.75 46.8245 82.375C47.137 82 47.5173 81.6823 47.9652 81.4219C48.4131 81.151 48.887 80.9375 49.387 80.7812C49.8975 80.625 50.3506 80.5208 50.7464 80.4688C50.7464 80.4167 50.7464 80.3698 50.7464 80.3281C50.7568 80.2865 50.762 80.2396 50.762 80.1875C50.762 79.8646 50.6735 79.6042 50.4964 79.4062C50.3193 79.2083 50.0693 79.1094 49.7464 79.1094C49.486 79.1094 49.262 79.1562 49.0745 79.25C48.887 79.3333 48.71 79.4323 48.5433 79.5469C48.3766 79.651 48.21 79.75 48.0433 79.8438C47.8766 79.9271 47.6891 79.9688 47.4808 79.9688C47.2516 79.9688 47.0537 79.8958 46.887 79.75C46.7308 79.6042 46.6527 79.4167 46.6527 79.1875C46.6527 78.8438 46.7516 78.5312 46.9495 78.25C47.1579 77.9688 47.4131 77.7344 47.7152 77.5469C48.0277 77.349 48.361 77.1979 48.7152 77.0938C49.0798 76.9792 49.4131 76.9219 49.7152 76.9219C49.9964 76.9219 50.2777 76.9583 50.5589 77.0312C50.8402 77.0938 51.1058 77.1979 51.3558 77.3438C51.6058 77.4792 51.8298 77.651 52.0277 77.8594C52.236 78.0573 52.4027 78.2917 52.5277 78.5625C52.7152 78.9479 52.8662 79.3594 52.9808 79.7969C53.0954 80.224 53.1839 80.6667 53.2464 81.125C53.3089 81.5729 53.3506 82.026 53.3714 82.4844C53.3923 82.9323 53.4027 83.3698 53.4027 83.7969ZM50.9027 83.2969L50.8558 82.2344C50.835 82.2344 50.8141 82.2344 50.7933 82.2344C50.7725 82.224 50.7516 82.2188 50.7308 82.2188C50.5954 82.2188 50.4235 82.2552 50.2152 82.3281C50.0173 82.3906 49.8245 82.4844 49.637 82.6094C49.4495 82.724 49.2881 82.8542 49.1527 83C49.0277 83.1458 48.9652 83.2969 48.9652 83.4531C48.9652 83.599 49.0173 83.6979 49.1214 83.75C49.2256 83.8021 49.3454 83.8281 49.4808 83.8281C49.71 83.8281 49.9548 83.7708 50.2152 83.6562C50.4756 83.5312 50.7048 83.4115 50.9027 83.2969ZM51.8558 75.7031C51.8558 75.7865 51.8402 75.8385 51.8089 75.8594C51.7777 75.8802 51.7256 75.8906 51.6527 75.8906C51.5277 75.8906 51.387 75.8594 51.2308 75.7969C51.085 75.7344 50.9339 75.6562 50.7777 75.5625C50.6318 75.4688 50.486 75.3698 50.3402 75.2656C50.2048 75.1615 50.0902 75.0677 49.9964 74.9844C49.8923 75.0677 49.7673 75.1667 49.6214 75.2812C49.486 75.3958 49.3402 75.5052 49.1839 75.6094C49.0277 75.7031 48.8714 75.7865 48.7152 75.8594C48.5589 75.9219 48.4131 75.9531 48.2777 75.9531C48.2256 75.9531 48.1735 75.9427 48.1214 75.9219C48.0798 75.901 48.0589 75.849 48.0589 75.7656C48.0589 75.6094 48.1266 75.4115 48.262 75.1719C48.3975 74.9323 48.5641 74.7031 48.762 74.4844C48.96 74.2656 49.1683 74.0781 49.387 73.9219C49.6058 73.7656 49.7985 73.6875 49.9652 73.6875C50.1318 73.6875 50.3245 73.7656 50.5433 73.9219C50.762 74.0677 50.9652 74.2448 51.1527 74.4531C51.3506 74.6615 51.5173 74.8802 51.6527 75.1094C51.7881 75.3385 51.8558 75.5365 51.8558 75.7031ZM58.7777 86.4375C58.6006 86.4375 58.46 86.3542 58.3558 86.1875C58.2516 86.0312 58.1735 85.849 58.1214 85.6406C58.0693 85.4323 58.0329 85.224 58.012 85.0156C58.0016 84.7969 57.9964 84.6302 57.9964 84.5156C57.9964 84.2031 58.012 83.8906 58.0433 83.5781C58.085 83.2656 58.1266 82.9531 58.1683 82.6406C58.2204 82.3281 58.262 82.0156 58.2933 81.7031C58.335 81.3906 58.3558 81.0781 58.3558 80.7656C58.3558 80.6406 58.3506 80.5052 58.3402 80.3594C58.3298 80.2135 58.3037 80.0781 58.262 79.9531C58.2308 79.8177 58.1735 79.7083 58.0902 79.625C58.0068 79.5417 57.8975 79.5 57.762 79.5C57.6683 79.5 57.5641 79.5781 57.4495 79.7344C57.335 79.8802 57.2256 80.0521 57.1214 80.25C57.0277 80.4375 56.9443 80.6302 56.8714 80.8281C56.8089 81.0156 56.7777 81.1562 56.7777 81.25C56.7777 81.4792 56.7777 81.7135 56.7777 81.9531C56.7881 82.1823 56.7933 82.4167 56.7933 82.6562V83.5625C56.7829 83.75 56.7673 83.9427 56.7464 84.1406C56.7256 84.3385 56.6943 84.5312 56.6527 84.7188C56.6214 84.9062 56.5745 85.0885 56.512 85.2656C56.4495 85.4323 56.3662 85.5833 56.262 85.7188C56.1683 85.8438 56.0537 85.9479 55.9183 86.0312C55.7829 86.1146 55.6214 86.1562 55.4339 86.1562C55.2256 86.1562 55.0537 86.0885 54.9183 85.9531C54.7829 85.8177 54.6735 85.6458 54.5902 85.4375C54.5068 85.2188 54.4443 84.9792 54.4027 84.7188C54.3714 84.4479 54.3454 84.1875 54.3245 83.9375C54.3141 83.6771 54.3089 83.4427 54.3089 83.2344C54.3193 83.0156 54.3245 82.8438 54.3245 82.7188V81.9844C54.3245 81.5885 54.3141 81.1979 54.2933 80.8125C54.2829 80.4271 54.2777 80.0417 54.2777 79.6562C54.2777 79.4479 54.2777 79.1823 54.2777 78.8594C54.2881 78.5365 54.3298 78.224 54.4027 77.9219C54.4756 77.6094 54.5954 77.3438 54.762 77.125C54.9287 76.9062 55.1735 76.7969 55.4964 76.7969C55.6423 76.7969 55.7725 76.8438 55.887 76.9375C56.0016 77.0312 56.1006 77.1458 56.1839 77.2812C56.2777 77.4167 56.3506 77.5625 56.4027 77.7188C56.4652 77.875 56.512 78.0104 56.5433 78.125C56.6475 77.9792 56.7673 77.8385 56.9027 77.7031C57.0485 77.5677 57.21 77.4479 57.387 77.3438C57.5641 77.2396 57.762 77.1562 57.9808 77.0938C58.1995 77.0312 58.4495 77 58.7308 77C59.262 77 59.6735 77.1302 59.9652 77.3906C60.2673 77.6406 60.486 77.9583 60.6214 78.3438C60.7673 78.7188 60.8558 79.125 60.887 79.5625C60.9183 80 60.9339 80.3958 60.9339 80.75C60.9339 80.9271 60.9183 81.1927 60.887 81.5469C60.8558 81.8906 60.8037 82.276 60.7308 82.7031C60.6683 83.1198 60.5798 83.5521 60.4652 84C60.3506 84.4375 60.2152 84.8385 60.0589 85.2031C59.9027 85.5677 59.7152 85.8646 59.4964 86.0938C59.2881 86.3229 59.0485 86.4375 58.7777 86.4375ZM67.6058 80C67.6058 80.0521 67.6006 80.1094 67.5902 80.1719C67.5798 80.224 67.5641 80.276 67.5433 80.3281C67.4495 80.5677 67.3037 80.7708 67.1058 80.9375C66.9079 81.0938 66.6735 81.1719 66.4027 81.1719C65.9964 81.1719 65.7204 80.9688 65.5745 80.5625C65.5537 80.5104 65.5433 80.4531 65.5433 80.3906C65.5433 80.3177 65.5381 80.2448 65.5277 80.1719V79.7188C65.5068 79.5729 65.4704 79.4583 65.4183 79.375C65.3662 79.2917 65.2777 79.25 65.1527 79.25C64.9756 79.25 64.8037 79.3646 64.637 79.5938C64.4808 79.8125 64.3402 80.0781 64.2152 80.3906C64.1006 80.6927 64.0068 81.0052 63.9339 81.3281C63.861 81.651 63.8245 81.9115 63.8245 82.1094C63.8245 82.2656 63.835 82.4583 63.8558 82.6875C63.8766 82.9062 63.9183 83.1198 63.9808 83.3281C64.0433 83.5365 64.1266 83.7188 64.2308 83.875C64.3454 84.0208 64.4912 84.0938 64.6683 84.0938C64.8454 84.0938 65.0068 84.0417 65.1527 83.9375C65.3089 83.8229 65.46 83.6927 65.6058 83.5469C65.7412 83.4219 65.887 83.2917 66.0433 83.1562C66.21 83.0208 66.3975 82.9531 66.6058 82.9531C66.8662 82.9531 67.0693 83.0469 67.2152 83.2344C67.3714 83.4219 67.4495 83.6354 67.4495 83.875C67.4495 84.2292 67.3558 84.5625 67.1683 84.875C66.9808 85.1771 66.7464 85.4427 66.4652 85.6719C66.1839 85.8906 65.8714 86.0625 65.5277 86.1875C65.1839 86.3229 64.8558 86.3906 64.5433 86.3906C63.9808 86.3906 63.5016 86.25 63.1058 85.9688C62.7204 85.6875 62.4079 85.3333 62.1683 84.9062C61.9287 84.4688 61.7568 83.9948 61.6527 83.4844C61.5485 82.974 61.4964 82.4896 61.4964 82.0312C61.4964 81.5 61.5693 80.9271 61.7152 80.3125C61.861 79.6875 62.085 79.1094 62.387 78.5781C62.6891 78.0469 63.0745 77.6042 63.5433 77.25C64.0225 76.8958 64.5902 76.7188 65.2464 76.7188C65.6527 76.7188 66.0016 76.8073 66.2933 76.9844C66.5954 77.1615 66.8402 77.3958 67.0277 77.6875C67.2256 77.9688 67.3714 78.2865 67.4652 78.6406C67.5693 78.9948 67.6214 79.3438 67.6214 79.6875C67.6214 79.7396 67.6214 79.7917 67.6214 79.8438C67.6214 79.8958 67.6162 79.9479 67.6058 80ZM73.9027 80.1562C73.7568 80.1667 73.6318 80.1562 73.5277 80.125C73.4235 80.0833 73.3193 80.0417 73.2152 80C73.1214 79.9583 73.0277 79.9219 72.9339 79.8906C72.8402 79.849 72.736 79.8333 72.6214 79.8438C72.4131 79.8542 72.2256 79.9115 72.0589 80.0156C71.9027 80.1198 71.7568 80.25 71.6214 80.4062C71.4964 80.5625 71.387 80.7396 71.2933 80.9375C71.1995 81.125 71.1266 81.3125 71.0745 81.5C71.0433 81.625 71.0173 81.8177 70.9964 82.0781C70.986 82.3281 70.9808 82.599 70.9808 82.8906C70.9704 83.1927 70.9652 83.4792 70.9652 83.75C70.9652 84.0208 70.9548 84.2344 70.9339 84.3906C70.9235 84.5573 70.8975 84.7552 70.8558 84.9844C70.8141 85.2031 70.7464 85.4115 70.6527 85.6094C70.5693 85.8073 70.4548 85.974 70.3089 86.1094C70.1631 86.2448 69.9756 86.3125 69.7464 86.3125C69.5693 86.3125 69.4131 86.2604 69.2777 86.1562C69.1527 86.0521 69.0433 85.9167 68.9495 85.75C68.8662 85.5729 68.7933 85.3698 68.7308 85.1406C68.6787 84.9115 68.637 84.6771 68.6058 84.4375C68.5745 84.1875 68.5485 83.9375 68.5277 83.6875C68.5173 83.4375 68.5068 83.2031 68.4964 82.9844C68.4964 82.7552 68.4964 82.5469 68.4964 82.3594C68.5068 82.1719 68.512 82.0208 68.512 81.9062C68.5016 81.5417 68.4808 81.1771 68.4495 80.8125C68.4287 80.4375 68.4183 80.0677 68.4183 79.7031C68.4183 79.474 68.4287 79.2188 68.4495 78.9375C68.4704 78.6562 68.5277 78.3958 68.6214 78.1562C68.7152 77.9062 68.8506 77.6979 69.0277 77.5312C69.2152 77.3646 69.4704 77.2812 69.7933 77.2812C69.9704 77.2812 70.1214 77.3385 70.2464 77.4531C70.3714 77.5677 70.4704 77.7083 70.5433 77.875C70.6266 78.0417 70.6891 78.2188 70.7308 78.4062C70.7725 78.5938 70.7985 78.7656 70.8089 78.9219C71.0589 78.5156 71.3402 78.1875 71.6527 77.9375C71.9652 77.6771 72.3714 77.5365 72.8714 77.5156C73.1214 77.5052 73.3662 77.5312 73.6058 77.5938C73.8558 77.6458 74.0798 77.7396 74.2777 77.875C74.486 78 74.6527 78.1667 74.7777 78.375C74.9131 78.5833 74.986 78.8281 74.9964 79.1094C75.0173 79.4427 74.9183 79.6979 74.6995 79.875C74.4808 80.0521 74.2152 80.1458 73.9027 80.1562ZM81.7777 83.2188C81.7777 83.5729 81.6631 83.9219 81.4339 84.2656C81.2152 84.599 80.9339 84.901 80.5902 85.1719C80.2568 85.4323 79.8975 85.6458 79.512 85.8125C79.1266 85.9688 78.7725 86.0469 78.4495 86.0469C77.8975 86.0469 77.4027 85.9115 76.9652 85.6406C76.5381 85.3594 76.1787 85.0052 75.887 84.5781C75.5954 84.151 75.3714 83.6823 75.2152 83.1719C75.0693 82.651 74.9964 82.1458 74.9964 81.6562C74.9964 81.1354 75.0693 80.5781 75.2152 79.9844C75.361 79.3906 75.5798 78.8438 75.8714 78.3438C76.1735 77.8438 76.5485 77.4271 76.9964 77.0938C77.4548 76.7604 77.9964 76.5938 78.6214 76.5938C78.9756 76.5938 79.3141 76.6562 79.637 76.7812C79.96 76.8958 80.2412 77.0625 80.4808 77.2812C80.7204 77.5 80.9131 77.7604 81.0589 78.0625C81.2048 78.3646 81.2777 78.7031 81.2777 79.0781C81.2777 79.5677 81.1735 80.026 80.9652 80.4531C80.7568 80.8802 80.4808 81.25 80.137 81.5625C79.7933 81.875 79.3975 82.1302 78.9495 82.3281C78.5016 82.5156 78.0433 82.6198 77.5745 82.6406C77.6162 82.9427 77.736 83.1615 77.9339 83.2969C78.1423 83.4323 78.387 83.5 78.6683 83.5C78.8766 83.5 79.0798 83.4479 79.2777 83.3438C79.4756 83.2396 79.6683 83.125 79.8558 83C80.0433 82.8646 80.2256 82.7448 80.4027 82.6406C80.5902 82.5365 80.7777 82.4844 80.9652 82.4844C81.1735 82.4844 81.361 82.5521 81.5277 82.6875C81.6943 82.8229 81.7777 83 81.7777 83.2188ZM79.2464 79.3906C79.2464 79.2552 79.21 79.1146 79.137 78.9688C79.0641 78.8229 78.9495 78.75 78.7933 78.75C78.5641 78.75 78.3714 78.8125 78.2152 78.9375C78.0589 79.0521 77.9287 79.2031 77.8245 79.3906C77.7204 79.5677 77.637 79.7604 77.5745 79.9688C77.5225 80.1771 77.4912 80.3698 77.4808 80.5469C77.6266 80.5156 77.7985 80.474 77.9964 80.4219C78.2048 80.3698 78.3975 80.3021 78.5745 80.2188C78.762 80.125 78.9183 80.0104 79.0433 79.875C79.1787 79.7396 79.2464 79.5781 79.2464 79.3906ZM89.0433 83.7969C89.0433 83.9844 89.0329 84.2292 89.012 84.5312C89.0016 84.8333 88.96 85.1302 88.887 85.4219C88.8141 85.7031 88.6995 85.9479 88.5433 86.1562C88.387 86.3646 88.1683 86.4688 87.887 86.4688C87.5016 86.4688 87.2048 86.3438 86.9964 86.0938C86.7881 85.8438 86.6891 85.5312 86.6995 85.1562C86.3662 85.4479 85.986 85.6771 85.5589 85.8438C85.1423 86.0104 84.7152 86.0938 84.2777 86.0938C83.9756 86.0938 83.6891 86.0208 83.4183 85.875C83.1475 85.7292 82.9079 85.5417 82.6995 85.3125C82.4912 85.0833 82.3245 84.8281 82.1995 84.5469C82.0745 84.2552 82.012 83.9688 82.012 83.6875C82.012 83.1875 82.1631 82.75 82.4652 82.375C82.7777 82 83.1579 81.6823 83.6058 81.4219C84.0537 81.151 84.5277 80.9375 85.0277 80.7812C85.5381 80.625 85.9912 80.5208 86.387 80.4688C86.387 80.4167 86.387 80.3698 86.387 80.3281C86.3975 80.2865 86.4027 80.2396 86.4027 80.1875C86.4027 79.8646 86.3141 79.6042 86.137 79.4062C85.96 79.2083 85.71 79.1094 85.387 79.1094C85.1266 79.1094 84.9027 79.1562 84.7152 79.25C84.5277 79.3333 84.3506 79.4323 84.1839 79.5469C84.0173 79.651 83.8506 79.75 83.6839 79.8438C83.5173 79.9271 83.3298 79.9688 83.1214 79.9688C82.8923 79.9688 82.6943 79.8958 82.5277 79.75C82.3714 79.6042 82.2933 79.4167 82.2933 79.1875C82.2933 78.8438 82.3923 78.5312 82.5902 78.25C82.7985 77.9688 83.0537 77.7344 83.3558 77.5469C83.6683 77.349 84.0016 77.1979 84.3558 77.0938C84.7204 76.9792 85.0537 76.9219 85.3558 76.9219C85.637 76.9219 85.9183 76.9583 86.1995 77.0312C86.4808 77.0938 86.7464 77.1979 86.9964 77.3438C87.2464 77.4792 87.4704 77.651 87.6683 77.8594C87.8766 78.0573 88.0433 78.2917 88.1683 78.5625C88.3558 78.9479 88.5068 79.3594 88.6214 79.7969C88.736 80.224 88.8245 80.6667 88.887 81.125C88.9495 81.5729 88.9912 82.026 89.012 82.4844C89.0329 82.9323 89.0433 83.3698 89.0433 83.7969ZM86.5433 83.2969L86.4964 82.2344C86.4756 82.2344 86.4548 82.2344 86.4339 82.2344C86.4131 82.224 86.3923 82.2188 86.3714 82.2188C86.236 82.2188 86.0641 82.2552 85.8558 82.3281C85.6579 82.3906 85.4652 82.4844 85.2777 82.6094C85.0902 82.724 84.9287 82.8542 84.7933 83C84.6683 83.1458 84.6058 83.2969 84.6058 83.4531C84.6058 83.599 84.6579 83.6979 84.762 83.75C84.8662 83.8021 84.986 83.8281 85.1214 83.8281C85.3506 83.8281 85.5954 83.7708 85.8558 83.6562C86.1162 83.5312 86.3454 83.4115 86.5433 83.2969ZM94.5589 77.4062C94.5589 77.7083 94.4548 77.9323 94.2464 78.0781C94.0485 78.224 93.8245 78.3646 93.5745 78.5C93.3245 78.625 93.0954 78.776 92.887 78.9531C92.6891 79.1302 92.5902 79.3958 92.5902 79.75C92.5902 79.9375 92.6318 80.099 92.7152 80.2344C92.8089 80.3698 92.9183 80.4948 93.0433 80.6094C93.1787 80.7135 93.3245 80.8229 93.4808 80.9375C93.637 81.0521 93.7777 81.1823 93.9027 81.3281C94.0381 81.474 94.1475 81.651 94.2308 81.8594C94.3245 82.0677 94.3714 82.3229 94.3714 82.625C94.3714 83.0625 94.2568 83.4948 94.0277 83.9219C93.8089 84.3385 93.5225 84.7135 93.1683 85.0469C92.8245 85.3698 92.4339 85.6302 91.9964 85.8281C91.5589 86.026 91.1266 86.125 90.6995 86.125C90.5225 86.125 90.3454 86.1094 90.1683 86.0781C89.9912 86.0573 89.8298 86.0104 89.6839 85.9375C89.5485 85.8646 89.4339 85.7656 89.3402 85.6406C89.2464 85.5052 89.1995 85.3333 89.1995 85.125C89.1995 84.8333 89.2568 84.6094 89.3714 84.4531C89.486 84.2865 89.6318 84.1562 89.8089 84.0625C89.986 83.9688 90.1735 83.8958 90.3714 83.8438C90.5798 83.7917 90.7725 83.7292 90.9495 83.6562C91.1266 83.5729 91.2725 83.4688 91.387 83.3438C91.5016 83.2188 91.5589 83.0417 91.5589 82.8125C91.5589 82.5938 91.4704 82.3698 91.2933 82.1406C91.1266 81.901 90.9391 81.651 90.7308 81.3906C90.5225 81.1198 90.3298 80.8333 90.1527 80.5312C89.986 80.2292 89.9027 79.8958 89.9027 79.5312C89.9027 79.0833 89.9912 78.6719 90.1683 78.2969C90.3558 77.9115 90.6006 77.5781 90.9027 77.2969C91.2152 77.0156 91.5693 76.7969 91.9652 76.6406C92.361 76.474 92.7777 76.3906 93.2152 76.3906C93.3818 76.3906 93.5433 76.4062 93.6995 76.4375C93.8662 76.4688 94.012 76.526 94.137 76.6094C94.262 76.6823 94.361 76.7865 94.4339 76.9219C94.5173 77.0469 94.5589 77.2083 94.5589 77.4062ZM105.496 83.2188C105.496 83.5729 105.382 83.9219 105.153 84.2656C104.934 84.599 104.653 84.901 104.309 85.1719C103.976 85.4323 103.616 85.6458 103.231 85.8125C102.845 85.9688 102.491 86.0469 102.168 86.0469C101.616 86.0469 101.121 85.9115 100.684 85.6406C100.257 85.3594 99.8975 85.0052 99.6058 84.5781C99.3141 84.151 99.0902 83.6823 98.9339 83.1719C98.7881 82.651 98.7152 82.1458 98.7152 81.6562C98.7152 81.1354 98.7881 80.5781 98.9339 79.9844C99.0798 79.3906 99.2985 78.8438 99.5902 78.3438C99.8923 77.8438 100.267 77.4271 100.715 77.0938C101.174 76.7604 101.715 76.5938 102.34 76.5938C102.694 76.5938 103.033 76.6562 103.356 76.7812C103.679 76.8958 103.96 77.0625 104.2 77.2812C104.439 77.5 104.632 77.7604 104.778 78.0625C104.924 78.3646 104.996 78.7031 104.996 79.0781C104.996 79.5677 104.892 80.026 104.684 80.4531C104.476 80.8802 104.2 81.25 103.856 81.5625C103.512 81.875 103.116 82.1302 102.668 82.3281C102.22 82.5156 101.762 82.6198 101.293 82.6406C101.335 82.9427 101.455 83.1615 101.653 83.2969C101.861 83.4323 102.106 83.5 102.387 83.5C102.595 83.5 102.799 83.4479 102.996 83.3438C103.194 83.2396 103.387 83.125 103.575 83C103.762 82.8646 103.944 82.7448 104.121 82.6406C104.309 82.5365 104.496 82.4844 104.684 82.4844C104.892 82.4844 105.08 82.5521 105.246 82.6875C105.413 82.8229 105.496 83 105.496 83.2188ZM102.965 79.3906C102.965 79.2552 102.929 79.1146 102.856 78.9688C102.783 78.8229 102.668 78.75 102.512 78.75C102.283 78.75 102.09 78.8125 101.934 78.9375C101.778 79.0521 101.647 79.2031 101.543 79.3906C101.439 79.5677 101.356 79.7604 101.293 79.9688C101.241 80.1771 101.21 80.3698 101.2 80.5469C101.345 80.5156 101.517 80.474 101.715 80.4219C101.924 80.3698 102.116 80.3021 102.293 80.2188C102.481 80.125 102.637 80.0104 102.762 79.875C102.897 79.7396 102.965 79.5781 102.965 79.3906ZM103.84 73.8438C103.84 73.9583 103.809 74.0729 103.746 74.1875C103.684 74.2917 103.606 74.3906 103.512 74.4844C103.429 74.5781 103.335 74.6667 103.231 74.75C103.127 74.8229 103.033 74.8906 102.95 74.9531C102.877 75.0052 102.793 75.0677 102.7 75.1406C102.616 75.2031 102.522 75.2656 102.418 75.3281C102.325 75.3802 102.226 75.4271 102.121 75.4688C102.028 75.5104 101.934 75.5312 101.84 75.5312C101.757 75.5312 101.684 75.5104 101.621 75.4688C101.559 75.4167 101.528 75.3438 101.528 75.25C101.528 75.0938 101.585 74.9062 101.7 74.6875C101.825 74.4583 101.976 74.2396 102.153 74.0312C102.33 73.8125 102.517 73.6302 102.715 73.4844C102.913 73.3281 103.095 73.25 103.262 73.25C103.408 73.25 103.538 73.3125 103.653 73.4375C103.778 73.5521 103.84 73.6875 103.84 73.8438ZM116.731 81.5312C116.731 82.1042 116.674 82.6719 116.559 83.2344C116.444 83.7969 116.252 84.3021 115.981 84.75C115.71 85.1875 115.345 85.5417 114.887 85.8125C114.439 86.0833 113.877 86.2188 113.2 86.2188C112.533 86.2188 111.976 86.0885 111.528 85.8281C111.08 85.5573 110.72 85.2031 110.45 84.7656C110.189 84.3281 110.002 83.8333 109.887 83.2812C109.783 82.7292 109.731 82.1667 109.731 81.5938C109.731 80.9688 109.804 80.349 109.95 79.7344C109.981 79.5677 110.038 79.3385 110.121 79.0469C110.215 78.7448 110.33 78.4531 110.465 78.1719C110.611 77.8802 110.772 77.6302 110.95 77.4219C111.137 77.2135 111.34 77.1094 111.559 77.1094C111.767 77.1094 111.934 77.1667 112.059 77.2812C112.184 77.3958 112.283 77.5417 112.356 77.7188C112.429 77.8854 112.476 78.0677 112.496 78.2656C112.517 78.4531 112.528 78.625 112.528 78.7812C112.528 79.0208 112.507 79.2552 112.465 79.4844C112.434 79.7135 112.397 79.9427 112.356 80.1719C112.314 80.4844 112.272 80.7969 112.231 81.1094C112.2 81.4219 112.184 81.7344 112.184 82.0469C112.184 82.2031 112.189 82.3802 112.2 82.5781C112.22 82.7656 112.262 82.9479 112.325 83.125C112.387 83.3021 112.476 83.4531 112.59 83.5781C112.705 83.6927 112.866 83.75 113.075 83.75C113.345 83.75 113.559 83.6771 113.715 83.5312C113.882 83.3854 114.002 83.2031 114.075 82.9844C114.158 82.7656 114.21 82.5312 114.231 82.2812C114.252 82.0312 114.262 81.8021 114.262 81.5938C114.262 81.1354 114.231 80.6875 114.168 80.25C114.106 79.8021 114.049 79.349 113.996 78.8906C113.986 78.8385 113.981 78.7656 113.981 78.6719C113.981 78.5156 114.007 78.3594 114.059 78.2031C114.111 78.0469 114.184 77.9062 114.278 77.7812C114.371 77.6562 114.486 77.5573 114.621 77.4844C114.757 77.401 114.908 77.3594 115.075 77.3594C115.304 77.3594 115.507 77.4427 115.684 77.6094C115.861 77.7656 116.007 77.974 116.121 78.2344C116.246 78.4844 116.345 78.7708 116.418 79.0938C116.502 79.4062 116.564 79.7188 116.606 80.0312C116.658 80.3333 116.689 80.6198 116.7 80.8906C116.72 81.1615 116.731 81.375 116.731 81.5312ZM127.168 80.8438C127.168 81.0417 127.168 81.3125 127.168 81.6562C127.168 81.9896 127.158 82.3542 127.137 82.75C127.127 83.1458 127.095 83.5469 127.043 83.9531C126.991 84.349 126.908 84.7083 126.793 85.0312C126.689 85.3542 126.554 85.6198 126.387 85.8281C126.22 86.0365 126.007 86.1406 125.746 86.1406C125.517 86.1406 125.34 86.0469 125.215 85.8594C125.101 85.6615 125.017 85.4323 124.965 85.1719C124.913 84.9115 124.882 84.6458 124.871 84.375C124.871 84.1042 124.871 83.8906 124.871 83.7344C124.871 83.2656 124.887 82.8073 124.918 82.3594C124.95 81.9115 124.965 81.4531 124.965 80.9844C124.965 80.9323 124.965 80.8385 124.965 80.7031C124.965 80.5677 124.955 80.4323 124.934 80.2969C124.913 80.1615 124.877 80.0417 124.825 79.9375C124.783 79.8333 124.715 79.7812 124.621 79.7812C124.434 79.7812 124.283 79.8802 124.168 80.0781C124.054 80.2656 123.96 80.4896 123.887 80.75C123.814 81.0104 123.762 81.2708 123.731 81.5312C123.7 81.7812 123.679 81.9688 123.668 82.0938C123.647 82.2292 123.627 82.4323 123.606 82.7031C123.595 82.974 123.575 83.2708 123.543 83.5938C123.522 83.9167 123.481 84.25 123.418 84.5938C123.366 84.9271 123.293 85.2344 123.2 85.5156C123.116 85.7865 123.007 86.0104 122.871 86.1875C122.736 86.3646 122.569 86.4531 122.371 86.4531C122.121 86.4531 121.929 86.3438 121.793 86.125C121.658 85.9062 121.559 85.651 121.496 85.3594C121.434 85.0677 121.392 84.7708 121.371 84.4688C121.361 84.1667 121.356 83.9323 121.356 83.7656C121.356 83.5885 121.356 83.4167 121.356 83.25C121.366 83.0833 121.371 82.9115 121.371 82.7344C121.371 82.6615 121.371 82.5417 121.371 82.375C121.371 82.2083 121.366 82.026 121.356 81.8281C121.356 81.6198 121.345 81.4062 121.325 81.1875C121.314 80.9688 121.293 80.7708 121.262 80.5938C121.231 80.4062 121.184 80.2552 121.121 80.1406C121.059 80.026 120.986 79.9688 120.903 79.9688C120.767 79.9688 120.642 80.0573 120.528 80.2344C120.413 80.401 120.314 80.6042 120.231 80.8438C120.147 81.0729 120.08 81.3021 120.028 81.5312C119.986 81.7604 119.965 81.9271 119.965 82.0312V82.125C119.965 82.625 119.996 83.1146 120.059 83.5938C120.121 84.0729 120.153 84.5625 120.153 85.0625C120.153 85.3542 120.059 85.625 119.871 85.875C119.684 86.1146 119.424 86.2344 119.09 86.2344C118.851 86.2344 118.653 86.1458 118.496 85.9688C118.34 85.7812 118.21 85.5417 118.106 85.25C118.002 84.9583 117.918 84.6406 117.856 84.2969C117.804 83.9427 117.767 83.599 117.746 83.2656C117.726 82.9219 117.71 82.6146 117.7 82.3438C117.7 82.0625 117.7 81.8542 117.7 81.7188C117.7 81.5625 117.694 81.3333 117.684 81.0312C117.684 80.7292 117.689 80.401 117.7 80.0469C117.72 79.6927 117.752 79.3333 117.793 78.9688C117.835 78.5938 117.903 78.2552 117.996 77.9531C118.09 77.651 118.21 77.4062 118.356 77.2188C118.512 77.0208 118.71 76.9219 118.95 76.9219C119.22 76.9219 119.439 76.9948 119.606 77.1406C119.783 77.2865 119.871 77.5052 119.871 77.7969C119.871 77.8594 119.866 77.9219 119.856 77.9844C119.856 78.0469 119.851 78.1042 119.84 78.1562C119.955 77.9896 120.095 77.8229 120.262 77.6562C120.429 77.4792 120.606 77.3229 120.793 77.1875C120.991 77.0417 121.2 76.9271 121.418 76.8438C121.637 76.75 121.856 76.7031 122.075 76.7031C122.283 76.7031 122.47 76.7604 122.637 76.875C122.804 76.9896 122.95 77.1354 123.075 77.3125C123.2 77.4792 123.304 77.6615 123.387 77.8594C123.47 78.0573 123.528 78.2448 123.559 78.4219C123.663 78.2344 123.788 78.0469 123.934 77.8594C124.09 77.6615 124.257 77.4896 124.434 77.3438C124.611 77.1979 124.804 77.0781 125.012 76.9844C125.231 76.8906 125.455 76.8438 125.684 76.8438C125.903 76.8438 126.09 76.9219 126.246 77.0781C126.403 77.2344 126.538 77.4375 126.653 77.6875C126.767 77.9271 126.856 78.2031 126.918 78.5156C126.981 78.8177 127.033 79.1198 127.075 79.4219C127.116 79.7135 127.142 79.9896 127.153 80.25C127.163 80.5 127.168 80.6979 127.168 80.8438ZM134.934 86.4531C134.403 86.4531 133.939 86.3125 133.543 86.0312C133.147 85.75 132.814 85.3906 132.543 84.9531C132.272 84.5156 132.069 84.0312 131.934 83.5C131.799 82.9583 131.731 82.4271 131.731 81.9062C131.731 81.3542 131.799 80.7865 131.934 80.2031C132.069 79.6094 132.278 79.0729 132.559 78.5938C132.84 78.1042 133.2 77.7083 133.637 77.4062C134.075 77.0938 134.595 76.9375 135.2 76.9375C135.783 76.9375 136.278 77.099 136.684 77.4219C137.101 77.7344 137.434 78.1302 137.684 78.6094C137.934 79.0781 138.111 79.5938 138.215 80.1562C138.319 80.7188 138.356 81.25 138.325 81.75C138.293 82.3021 138.205 82.8594 138.059 83.4219C137.924 83.9844 137.72 84.4896 137.45 84.9375C137.179 85.3854 136.835 85.75 136.418 86.0312C136.002 86.3125 135.507 86.4531 134.934 86.4531ZM135.09 79.3906C134.934 79.3906 134.793 79.474 134.668 79.6406C134.554 79.8073 134.455 80.0104 134.371 80.25C134.299 80.4896 134.241 80.7448 134.2 81.0156C134.158 81.276 134.137 81.5052 134.137 81.7031C134.137 81.9531 134.158 82.224 134.2 82.5156C134.252 82.8073 134.319 83.0781 134.403 83.3281C134.486 83.5677 134.585 83.7708 134.7 83.9375C134.825 84.0938 134.965 84.1719 135.121 84.1719C135.288 84.1719 135.429 84.0938 135.543 83.9375C135.668 83.7812 135.767 83.5833 135.84 83.3438C135.913 83.1042 135.965 82.8438 135.996 82.5625C136.028 82.2708 136.043 82 136.043 81.75C136.043 81.5208 136.022 81.2708 135.981 81C135.939 80.7188 135.877 80.4583 135.793 80.2188C135.72 79.9792 135.621 79.7812 135.496 79.625C135.382 79.4688 135.246 79.3906 135.09 79.3906ZM136.856 74.3281C136.856 74.4427 136.825 74.5573 136.762 74.6719C136.7 74.776 136.621 74.875 136.528 74.9688C136.444 75.0625 136.351 75.151 136.246 75.2344C136.142 75.3073 136.049 75.375 135.965 75.4375C135.892 75.4896 135.809 75.5521 135.715 75.625C135.632 75.6875 135.538 75.75 135.434 75.8125C135.34 75.8646 135.241 75.9115 135.137 75.9531C135.043 75.9948 134.95 76.0156 134.856 76.0156C134.772 76.0156 134.7 75.9948 134.637 75.9531C134.575 75.901 134.543 75.8281 134.543 75.7344C134.543 75.5781 134.601 75.3906 134.715 75.1719C134.84 74.9427 134.991 74.724 135.168 74.5156C135.345 74.2969 135.533 74.1146 135.731 73.9688C135.929 73.8125 136.111 73.7344 136.278 73.7344C136.424 73.7344 136.554 73.7969 136.668 73.9219C136.793 74.0365 136.856 74.1719 136.856 74.3281ZM144.543 80.1562C144.397 80.1667 144.272 80.1562 144.168 80.125C144.064 80.0833 143.96 80.0417 143.856 80C143.762 79.9583 143.668 79.9219 143.575 79.8906C143.481 79.849 143.377 79.8333 143.262 79.8438C143.054 79.8542 142.866 79.9115 142.7 80.0156C142.543 80.1198 142.397 80.25 142.262 80.4062C142.137 80.5625 142.028 80.7396 141.934 80.9375C141.84 81.125 141.767 81.3125 141.715 81.5C141.684 81.625 141.658 81.8177 141.637 82.0781C141.627 82.3281 141.621 82.599 141.621 82.8906C141.611 83.1927 141.606 83.4792 141.606 83.75C141.606 84.0208 141.595 84.2344 141.575 84.3906C141.564 84.5573 141.538 84.7552 141.496 84.9844C141.455 85.2031 141.387 85.4115 141.293 85.6094C141.21 85.8073 141.095 85.974 140.95 86.1094C140.804 86.2448 140.616 86.3125 140.387 86.3125C140.21 86.3125 140.054 86.2604 139.918 86.1562C139.793 86.0521 139.684 85.9167 139.59 85.75C139.507 85.5729 139.434 85.3698 139.371 85.1406C139.319 84.9115 139.278 84.6771 139.246 84.4375C139.215 84.1875 139.189 83.9375 139.168 83.6875C139.158 83.4375 139.147 83.2031 139.137 82.9844C139.137 82.7552 139.137 82.5469 139.137 82.3594C139.147 82.1719 139.153 82.0208 139.153 81.9062C139.142 81.5417 139.121 81.1771 139.09 80.8125C139.069 80.4375 139.059 80.0677 139.059 79.7031C139.059 79.474 139.069 79.2188 139.09 78.9375C139.111 78.6562 139.168 78.3958 139.262 78.1562C139.356 77.9062 139.491 77.6979 139.668 77.5312C139.856 77.3646 140.111 77.2812 140.434 77.2812C140.611 77.2812 140.762 77.3385 140.887 77.4531C141.012 77.5677 141.111 77.7083 141.184 77.875C141.267 78.0417 141.33 78.2188 141.371 78.4062C141.413 78.5938 141.439 78.7656 141.45 78.9219C141.7 78.5156 141.981 78.1875 142.293 77.9375C142.606 77.6771 143.012 77.5365 143.512 77.5156C143.762 77.5052 144.007 77.5312 144.246 77.5938C144.496 77.6458 144.72 77.7396 144.918 77.875C145.127 78 145.293 78.1667 145.418 78.375C145.554 78.5833 145.627 78.8281 145.637 79.1094C145.658 79.4427 145.559 79.6979 145.34 79.875C145.121 80.0521 144.856 80.1458 144.543 80.1562ZM152.95 80.6719C152.95 81.2031 152.939 81.7344 152.918 82.2656C152.908 82.7969 152.882 83.3281 152.84 83.8594C152.809 84.3177 152.767 84.8073 152.715 85.3281C152.663 85.849 152.58 86.3646 152.465 86.875C152.351 87.3958 152.2 87.8906 152.012 88.3594C151.825 88.8385 151.575 89.2604 151.262 89.625C150.96 89.9896 150.59 90.2812 150.153 90.5C149.715 90.7188 149.194 90.8281 148.59 90.8281C148.309 90.8281 147.991 90.7812 147.637 90.6875C147.293 90.6042 146.965 90.4792 146.653 90.3125C146.351 90.1458 146.09 89.9375 145.871 89.6875C145.663 89.4479 145.559 89.1667 145.559 88.8438C145.559 88.6042 145.642 88.3802 145.809 88.1719C145.986 87.974 146.21 87.875 146.481 87.875C146.647 87.875 146.804 87.901 146.95 87.9531C147.106 88.0156 147.257 88.0833 147.403 88.1562C147.559 88.2292 147.705 88.2917 147.84 88.3438C147.986 88.4062 148.132 88.4375 148.278 88.4375C148.663 88.4375 148.986 88.3385 149.246 88.1406C149.507 87.9531 149.715 87.7083 149.871 87.4062C150.028 87.1146 150.142 86.7917 150.215 86.4375C150.299 86.0938 150.356 85.7656 150.387 85.4531C150.179 85.6927 149.934 85.8594 149.653 85.9531C149.382 86.0365 149.095 86.0781 148.793 86.0781C148.241 86.0781 147.772 85.9844 147.387 85.7969C147.002 85.599 146.689 85.3333 146.45 85C146.21 84.6562 146.033 84.2604 145.918 83.8125C145.804 83.3646 145.746 82.8802 145.746 82.3594C145.746 82.0365 145.778 81.6719 145.84 81.2656C145.913 80.8594 146.017 80.4479 146.153 80.0312C146.288 79.6146 146.455 79.2083 146.653 78.8125C146.861 78.4167 147.101 78.0677 147.371 77.7656C147.642 77.4635 147.944 77.2188 148.278 77.0312C148.621 76.8438 148.996 76.75 149.403 76.75C149.799 76.75 150.147 76.8646 150.45 77.0938C150.762 77.3229 150.944 77.6458 150.996 78.0625C151.111 77.8438 151.262 77.6302 151.45 77.4219C151.637 77.2031 151.866 77.0938 152.137 77.0938C152.283 77.0938 152.403 77.1667 152.496 77.3125C152.601 77.4583 152.679 77.651 152.731 77.8906C152.793 78.1198 152.84 78.375 152.871 78.6562C152.903 78.9271 152.924 79.1979 152.934 79.4688C152.944 79.7292 152.95 79.9688 152.95 80.1875C152.95 80.4062 152.95 80.5677 152.95 80.6719ZM150.575 81.6875C150.575 81.5312 150.549 81.3281 150.496 81.0781C150.455 80.8281 150.387 80.5885 150.293 80.3594C150.21 80.1302 150.101 79.9323 149.965 79.7656C149.83 79.599 149.668 79.5156 149.481 79.5156C149.241 79.5156 149.028 79.599 148.84 79.7656C148.663 79.9323 148.512 80.1354 148.387 80.375C148.262 80.6042 148.163 80.8542 148.09 81.125C148.028 81.3854 147.996 81.6094 147.996 81.7969C147.996 81.9323 148.007 82.1146 148.028 82.3438C148.049 82.5729 148.09 82.7969 148.153 83.0156C148.226 83.2344 148.319 83.4219 148.434 83.5781C148.549 83.7344 148.7 83.8125 148.887 83.8125C149.168 83.8125 149.413 83.7448 149.621 83.6094C149.83 83.474 150.002 83.3021 150.137 83.0938C150.283 82.8854 150.392 82.6562 150.465 82.4062C150.538 82.1562 150.575 81.9167 150.575 81.6875ZM160.7 83.7969C160.7 83.9844 160.689 84.2292 160.668 84.5312C160.658 84.8333 160.616 85.1302 160.543 85.4219C160.47 85.7031 160.356 85.9479 160.2 86.1562C160.043 86.3646 159.825 86.4688 159.543 86.4688C159.158 86.4688 158.861 86.3438 158.653 86.0938C158.444 85.8438 158.345 85.5312 158.356 85.1562C158.022 85.4479 157.642 85.6771 157.215 85.8438C156.799 86.0104 156.371 86.0938 155.934 86.0938C155.632 86.0938 155.345 86.0208 155.075 85.875C154.804 85.7292 154.564 85.5417 154.356 85.3125C154.147 85.0833 153.981 84.8281 153.856 84.5469C153.731 84.2552 153.668 83.9688 153.668 83.6875C153.668 83.1875 153.819 82.75 154.121 82.375C154.434 82 154.814 81.6823 155.262 81.4219C155.71 81.151 156.184 80.9375 156.684 80.7812C157.194 80.625 157.647 80.5208 158.043 80.4688C158.043 80.4167 158.043 80.3698 158.043 80.3281C158.054 80.2865 158.059 80.2396 158.059 80.1875C158.059 79.8646 157.97 79.6042 157.793 79.4062C157.616 79.2083 157.366 79.1094 157.043 79.1094C156.783 79.1094 156.559 79.1562 156.371 79.25C156.184 79.3333 156.007 79.4323 155.84 79.5469C155.674 79.651 155.507 79.75 155.34 79.8438C155.174 79.9271 154.986 79.9688 154.778 79.9688C154.549 79.9688 154.351 79.8958 154.184 79.75C154.028 79.6042 153.95 79.4167 153.95 79.1875C153.95 78.8438 154.049 78.5312 154.246 78.25C154.455 77.9688 154.71 77.7344 155.012 77.5469C155.325 77.349 155.658 77.1979 156.012 77.0938C156.377 76.9792 156.71 76.9219 157.012 76.9219C157.293 76.9219 157.575 76.9583 157.856 77.0312C158.137 77.0938 158.403 77.1979 158.653 77.3438C158.903 77.4792 159.127 77.651 159.325 77.8594C159.533 78.0573 159.7 78.2917 159.825 78.5625C160.012 78.9479 160.163 79.3594 160.278 79.7969C160.392 80.224 160.481 80.6667 160.543 81.125C160.606 81.5729 160.647 82.026 160.668 82.4844C160.689 82.9323 160.7 83.3698 160.7 83.7969ZM158.2 83.2969L158.153 82.2344C158.132 82.2344 158.111 82.2344 158.09 82.2344C158.069 82.224 158.049 82.2188 158.028 82.2188C157.892 82.2188 157.72 82.2552 157.512 82.3281C157.314 82.3906 157.121 82.4844 156.934 82.6094C156.746 82.724 156.585 82.8542 156.45 83C156.325 83.1458 156.262 83.2969 156.262 83.4531C156.262 83.599 156.314 83.6979 156.418 83.75C156.522 83.8021 156.642 83.8281 156.778 83.8281C157.007 83.8281 157.252 83.7708 157.512 83.6562C157.772 83.5312 158.002 83.4115 158.2 83.2969ZM160.09 74.3594C160.09 74.5156 160.038 74.6823 159.934 74.8594C159.83 75.026 159.7 75.1823 159.543 75.3281C159.387 75.4635 159.22 75.5781 159.043 75.6719C158.866 75.7552 158.7 75.7969 158.543 75.7969C158.387 75.7969 158.231 75.7708 158.075 75.7188C157.929 75.6562 157.778 75.5885 157.621 75.5156C157.476 75.4427 157.33 75.3802 157.184 75.3281C157.038 75.2656 156.892 75.2344 156.746 75.2344C156.632 75.2344 156.517 75.2708 156.403 75.3438C156.288 75.4062 156.168 75.4792 156.043 75.5625C155.918 75.6354 155.788 75.7031 155.653 75.7656C155.528 75.8281 155.403 75.8594 155.278 75.8594C155.111 75.8594 154.976 75.7917 154.871 75.6562C154.767 75.5104 154.715 75.3646 154.715 75.2188C154.715 75.0417 154.778 74.8698 154.903 74.7031C155.028 74.5365 155.184 74.3906 155.371 74.2656C155.559 74.1302 155.752 74.026 155.95 73.9531C156.158 73.8698 156.34 73.8281 156.496 73.8281C156.674 73.8281 156.825 73.8646 156.95 73.9375C157.085 74.0104 157.21 74.0938 157.325 74.1875C157.439 74.2812 157.554 74.3646 157.668 74.4375C157.793 74.5104 157.939 74.5469 158.106 74.5469C158.241 74.5469 158.366 74.5104 158.481 74.4375C158.606 74.3542 158.726 74.2656 158.84 74.1719C158.965 74.0677 159.08 73.9792 159.184 73.9062C159.299 73.8229 159.418 73.7812 159.543 73.7812C159.689 73.7812 159.814 73.8438 159.918 73.9688C160.033 74.0938 160.09 74.224 160.09 74.3594ZM164.606 86.4531C164.075 86.4531 163.611 86.3125 163.215 86.0312C162.819 85.75 162.486 85.3906 162.215 84.9531C161.944 84.5156 161.741 84.0312 161.606 83.5C161.47 82.9583 161.403 82.4271 161.403 81.9062C161.403 81.3542 161.47 80.7865 161.606 80.2031C161.741 79.6094 161.95 79.0729 162.231 78.5938C162.512 78.1042 162.871 77.7083 163.309 77.4062C163.746 77.0938 164.267 76.9375 164.871 76.9375C165.455 76.9375 165.95 77.099 166.356 77.4219C166.772 77.7344 167.106 78.1302 167.356 78.6094C167.606 79.0781 167.783 79.5938 167.887 80.1562C167.991 80.7188 168.028 81.25 167.996 81.75C167.965 82.3021 167.877 82.8594 167.731 83.4219C167.595 83.9844 167.392 84.4896 167.121 84.9375C166.851 85.3854 166.507 85.75 166.09 86.0312C165.674 86.3125 165.179 86.4531 164.606 86.4531ZM164.762 79.3906C164.606 79.3906 164.465 79.474 164.34 79.6406C164.226 79.8073 164.127 80.0104 164.043 80.25C163.97 80.4896 163.913 80.7448 163.871 81.0156C163.83 81.276 163.809 81.5052 163.809 81.7031C163.809 81.9531 163.83 82.224 163.871 82.5156C163.924 82.8073 163.991 83.0781 164.075 83.3281C164.158 83.5677 164.257 83.7708 164.371 83.9375C164.496 84.0938 164.637 84.1719 164.793 84.1719C164.96 84.1719 165.101 84.0938 165.215 83.9375C165.34 83.7812 165.439 83.5833 165.512 83.3438C165.585 83.1042 165.637 82.8438 165.668 82.5625C165.7 82.2708 165.715 82 165.715 81.75C165.715 81.5208 165.694 81.2708 165.653 81C165.611 80.7188 165.549 80.4583 165.465 80.2188C165.392 79.9792 165.293 79.7812 165.168 79.625C165.054 79.4688 164.918 79.3906 164.762 79.3906ZM179.825 78.7344C179.741 79.4948 179.658 80.25 179.575 81C179.491 81.75 179.434 82.5 179.403 83.25C179.351 84.1146 179.33 84.9323 179.34 85.7031C179.351 86.474 179.356 87.2917 179.356 88.1562C179.356 88.3646 179.351 88.6198 179.34 88.9219C179.34 89.224 179.304 89.5156 179.231 89.7969C179.158 90.0781 179.038 90.3177 178.871 90.5156C178.715 90.7135 178.476 90.8125 178.153 90.8125C177.996 90.8125 177.861 90.7656 177.746 90.6719C177.642 90.5781 177.549 90.4531 177.465 90.2969C177.392 90.151 177.33 89.9844 177.278 89.7969C177.236 89.6094 177.2 89.4167 177.168 89.2188C177.116 88.8125 177.085 88.4062 177.075 88C177.075 87.6042 177.075 87.3125 177.075 87.125V85.9062V85.0312C176.835 85.3438 176.522 85.5833 176.137 85.75C175.762 85.9062 175.387 85.9844 175.012 85.9844C174.543 85.9844 174.137 85.875 173.793 85.6562C173.46 85.4271 173.184 85.1406 172.965 84.7969C172.746 84.4427 172.585 84.0573 172.481 83.6406C172.377 83.224 172.325 82.8177 172.325 82.4219V82.3281C172.325 81.7865 172.408 81.2031 172.575 80.5781C172.741 79.9427 172.986 79.3542 173.309 78.8125C173.642 78.2708 174.054 77.8229 174.543 77.4688C175.043 77.1042 175.621 76.9219 176.278 76.9219C176.632 76.9219 176.955 76.9948 177.246 77.1406C177.549 77.2865 177.762 77.526 177.887 77.8594C177.97 77.6198 178.095 77.4271 178.262 77.2812C178.439 77.125 178.663 77.0469 178.934 77.0469C179.278 77.0469 179.517 77.1615 179.653 77.3906C179.799 77.6094 179.871 77.8542 179.871 78.125C179.871 78.2396 179.866 78.3438 179.856 78.4375C179.845 78.5312 179.835 78.6302 179.825 78.7344ZM176.231 79.1094C175.991 79.1094 175.767 79.2083 175.559 79.4062C175.351 79.5938 175.168 79.8281 175.012 80.1094C174.856 80.3802 174.731 80.6719 174.637 80.9844C174.554 81.2969 174.512 81.5729 174.512 81.8125C174.512 81.9583 174.522 82.1146 174.543 82.2812C174.575 82.4479 174.616 82.6094 174.668 82.7656C174.731 82.9115 174.809 83.0365 174.903 83.1406C175.007 83.2344 175.137 83.2812 175.293 83.2812C175.429 83.2812 175.585 83.25 175.762 83.1875C175.95 83.1146 176.132 83.026 176.309 82.9219C176.486 82.8073 176.642 82.6823 176.778 82.5469C176.913 82.4115 177.007 82.2812 177.059 82.1562C177.09 82.0833 177.116 81.974 177.137 81.8281C177.158 81.6823 177.174 81.5312 177.184 81.375C177.205 81.2083 177.22 81.0469 177.231 80.8906C177.241 80.7344 177.246 80.6146 177.246 80.5312C177.246 80.4062 177.215 80.2656 177.153 80.1094C177.101 79.9427 177.028 79.7865 176.934 79.6406C176.84 79.4844 176.731 79.3594 176.606 79.2656C176.481 79.1615 176.356 79.1094 176.231 79.1094ZM187.418 81.5312C187.418 82.1042 187.361 82.6719 187.246 83.2344C187.132 83.7969 186.939 84.3021 186.668 84.75C186.397 85.1875 186.033 85.5417 185.575 85.8125C185.127 86.0833 184.564 86.2188 183.887 86.2188C183.22 86.2188 182.663 86.0885 182.215 85.8281C181.767 85.5573 181.408 85.2031 181.137 84.7656C180.877 84.3281 180.689 83.8333 180.575 83.2812C180.47 82.7292 180.418 82.1667 180.418 81.5938C180.418 80.9688 180.491 80.349 180.637 79.7344C180.668 79.5677 180.726 79.3385 180.809 79.0469C180.903 78.7448 181.017 78.4531 181.153 78.1719C181.299 77.8802 181.46 77.6302 181.637 77.4219C181.825 77.2135 182.028 77.1094 182.246 77.1094C182.455 77.1094 182.621 77.1667 182.746 77.2812C182.871 77.3958 182.97 77.5417 183.043 77.7188C183.116 77.8854 183.163 78.0677 183.184 78.2656C183.205 78.4531 183.215 78.625 183.215 78.7812C183.215 79.0208 183.194 79.2552 183.153 79.4844C183.121 79.7135 183.085 79.9427 183.043 80.1719C183.002 80.4844 182.96 80.7969 182.918 81.1094C182.887 81.4219 182.871 81.7344 182.871 82.0469C182.871 82.2031 182.877 82.3802 182.887 82.5781C182.908 82.7656 182.95 82.9479 183.012 83.125C183.075 83.3021 183.163 83.4531 183.278 83.5781C183.392 83.6927 183.554 83.75 183.762 83.75C184.033 83.75 184.246 83.6771 184.403 83.5312C184.569 83.3854 184.689 83.2031 184.762 82.9844C184.845 82.7656 184.897 82.5312 184.918 82.2812C184.939 82.0312 184.95 81.8021 184.95 81.5938C184.95 81.1354 184.918 80.6875 184.856 80.25C184.793 79.8021 184.736 79.349 184.684 78.8906C184.674 78.8385 184.668 78.7656 184.668 78.6719C184.668 78.5156 184.694 78.3594 184.746 78.2031C184.799 78.0469 184.871 77.9062 184.965 77.7812C185.059 77.6562 185.174 77.5573 185.309 77.4844C185.444 77.401 185.595 77.3594 185.762 77.3594C185.991 77.3594 186.194 77.4427 186.371 77.6094C186.549 77.7656 186.694 77.974 186.809 78.2344C186.934 78.4844 187.033 78.7708 187.106 79.0938C187.189 79.4062 187.252 79.7188 187.293 80.0312C187.345 80.3333 187.377 80.6198 187.387 80.8906C187.408 81.1615 187.418 81.375 187.418 81.5312ZM194.918 83.2188C194.918 83.5729 194.804 83.9219 194.575 84.2656C194.356 84.599 194.075 84.901 193.731 85.1719C193.397 85.4323 193.038 85.6458 192.653 85.8125C192.267 85.9688 191.913 86.0469 191.59 86.0469C191.038 86.0469 190.543 85.9115 190.106 85.6406C189.679 85.3594 189.319 85.0052 189.028 84.5781C188.736 84.151 188.512 83.6823 188.356 83.1719C188.21 82.651 188.137 82.1458 188.137 81.6562C188.137 81.1354 188.21 80.5781 188.356 79.9844C188.502 79.3906 188.72 78.8438 189.012 78.3438C189.314 77.8438 189.689 77.4271 190.137 77.0938C190.595 76.7604 191.137 76.5938 191.762 76.5938C192.116 76.5938 192.455 76.6562 192.778 76.7812C193.101 76.8958 193.382 77.0625 193.621 77.2812C193.861 77.5 194.054 77.7604 194.2 78.0625C194.345 78.3646 194.418 78.7031 194.418 79.0781C194.418 79.5677 194.314 80.026 194.106 80.4531C193.897 80.8802 193.621 81.25 193.278 81.5625C192.934 81.875 192.538 82.1302 192.09 82.3281C191.642 82.5156 191.184 82.6198 190.715 82.6406C190.757 82.9427 190.877 83.1615 191.075 83.2969C191.283 83.4323 191.528 83.5 191.809 83.5C192.017 83.5 192.22 83.4479 192.418 83.3438C192.616 83.2396 192.809 83.125 192.996 83C193.184 82.8646 193.366 82.7448 193.543 82.6406C193.731 82.5365 193.918 82.4844 194.106 82.4844C194.314 82.4844 194.502 82.5521 194.668 82.6875C194.835 82.8229 194.918 83 194.918 83.2188ZM192.387 79.3906C192.387 79.2552 192.351 79.1146 192.278 78.9688C192.205 78.8229 192.09 78.75 191.934 78.75C191.705 78.75 191.512 78.8125 191.356 78.9375C191.2 79.0521 191.069 79.2031 190.965 79.3906C190.861 79.5677 190.778 79.7604 190.715 79.9688C190.663 80.1771 190.632 80.3698 190.621 80.5469C190.767 80.5156 190.939 80.474 191.137 80.4219C191.345 80.3698 191.538 80.3021 191.715 80.2188C191.903 80.125 192.059 80.0104 192.184 79.875C192.319 79.7396 192.387 79.5781 192.387 79.3906ZM205.856 83.2188C205.856 83.5729 205.741 83.9219 205.512 84.2656C205.293 84.599 205.012 84.901 204.668 85.1719C204.335 85.4323 203.976 85.6458 203.59 85.8125C203.205 85.9688 202.851 86.0469 202.528 86.0469C201.976 86.0469 201.481 85.9115 201.043 85.6406C200.616 85.3594 200.257 85.0052 199.965 84.5781C199.674 84.151 199.45 83.6823 199.293 83.1719C199.147 82.651 199.075 82.1458 199.075 81.6562C199.075 81.1354 199.147 80.5781 199.293 79.9844C199.439 79.3906 199.658 78.8438 199.95 78.3438C200.252 77.8438 200.627 77.4271 201.075 77.0938C201.533 76.7604 202.075 76.5938 202.7 76.5938C203.054 76.5938 203.392 76.6562 203.715 76.7812C204.038 76.8958 204.319 77.0625 204.559 77.2812C204.799 77.5 204.991 77.7604 205.137 78.0625C205.283 78.3646 205.356 78.7031 205.356 79.0781C205.356 79.5677 205.252 80.026 205.043 80.4531C204.835 80.8802 204.559 81.25 204.215 81.5625C203.871 81.875 203.476 82.1302 203.028 82.3281C202.58 82.5156 202.121 82.6198 201.653 82.6406C201.694 82.9427 201.814 83.1615 202.012 83.2969C202.22 83.4323 202.465 83.5 202.746 83.5C202.955 83.5 203.158 83.4479 203.356 83.3438C203.554 83.2396 203.746 83.125 203.934 83C204.121 82.8646 204.304 82.7448 204.481 82.6406C204.668 82.5365 204.856 82.4844 205.043 82.4844C205.252 82.4844 205.439 82.5521 205.606 82.6875C205.772 82.8229 205.856 83 205.856 83.2188ZM203.325 79.3906C203.325 79.2552 203.288 79.1146 203.215 78.9688C203.142 78.8229 203.028 78.75 202.871 78.75C202.642 78.75 202.45 78.8125 202.293 78.9375C202.137 79.0521 202.007 79.2031 201.903 79.3906C201.799 79.5677 201.715 79.7604 201.653 79.9688C201.601 80.1771 201.569 80.3698 201.559 80.5469C201.705 80.5156 201.877 80.474 202.075 80.4219C202.283 80.3698 202.476 80.3021 202.653 80.2188C202.84 80.125 202.996 80.0104 203.121 79.875C203.257 79.7396 203.325 79.5781 203.325 79.3906ZM211.059 77.4062C211.059 77.7083 210.955 77.9323 210.746 78.0781C210.549 78.224 210.325 78.3646 210.075 78.5C209.825 78.625 209.595 78.776 209.387 78.9531C209.189 79.1302 209.09 79.3958 209.09 79.75C209.09 79.9375 209.132 80.099 209.215 80.2344C209.309 80.3698 209.418 80.4948 209.543 80.6094C209.679 80.7135 209.825 80.8229 209.981 80.9375C210.137 81.0521 210.278 81.1823 210.403 81.3281C210.538 81.474 210.647 81.651 210.731 81.8594C210.825 82.0677 210.871 82.3229 210.871 82.625C210.871 83.0625 210.757 83.4948 210.528 83.9219C210.309 84.3385 210.022 84.7135 209.668 85.0469C209.325 85.3698 208.934 85.6302 208.496 85.8281C208.059 86.026 207.627 86.125 207.2 86.125C207.022 86.125 206.845 86.1094 206.668 86.0781C206.491 86.0573 206.33 86.0104 206.184 85.9375C206.049 85.8646 205.934 85.7656 205.84 85.6406C205.746 85.5052 205.7 85.3333 205.7 85.125C205.7 84.8333 205.757 84.6094 205.871 84.4531C205.986 84.2865 206.132 84.1562 206.309 84.0625C206.486 83.9688 206.674 83.8958 206.871 83.8438C207.08 83.7917 207.272 83.7292 207.45 83.6562C207.627 83.5729 207.772 83.4688 207.887 83.3438C208.002 83.2188 208.059 83.0417 208.059 82.8125C208.059 82.5938 207.97 82.3698 207.793 82.1406C207.627 81.901 207.439 81.651 207.231 81.3906C207.022 81.1198 206.83 80.8333 206.653 80.5312C206.486 80.2292 206.403 79.8958 206.403 79.5312C206.403 79.0833 206.491 78.6719 206.668 78.2969C206.856 77.9115 207.101 77.5781 207.403 77.2969C207.715 77.0156 208.069 76.7969 208.465 76.6406C208.861 76.474 209.278 76.3906 209.715 76.3906C209.882 76.3906 210.043 76.4062 210.2 76.4375C210.366 76.4688 210.512 76.526 210.637 76.6094C210.762 76.6823 210.861 76.7865 210.934 76.9219C211.017 77.0469 211.059 77.2083 211.059 77.4062ZM215.325 86.5625C214.585 86.5625 214.007 86.4635 213.59 86.2656C213.184 86.0781 212.877 85.8073 212.668 85.4531C212.47 85.099 212.351 84.6719 212.309 84.1719C212.267 83.6719 212.246 83.1146 212.246 82.5C212.246 82.0104 212.262 81.5208 212.293 81.0312C212.325 80.5312 212.371 80 212.434 79.4375C212.288 79.4375 212.174 79.4427 212.09 79.4531C212.007 79.4531 211.939 79.4531 211.887 79.4531C211.554 79.4531 211.267 79.3802 211.028 79.2344C210.778 79.0885 210.653 78.8646 210.653 78.5625C210.653 78.375 210.726 78.2083 210.871 78.0625C211.007 77.9167 211.184 77.7917 211.403 77.6875C211.621 77.5833 211.856 77.5 212.106 77.4375C212.366 77.375 212.611 77.3333 212.84 77.3125C212.84 77.0208 212.861 76.6979 212.903 76.3438C212.944 75.9896 213.017 75.6615 213.121 75.3594C213.236 75.0469 213.387 74.7865 213.575 74.5781C213.762 74.3698 214.002 74.2656 214.293 74.2656C214.46 74.2656 214.606 74.3177 214.731 74.4219C214.866 74.5156 214.976 74.6406 215.059 74.7969C215.142 74.9427 215.205 75.1094 215.246 75.2969C215.288 75.4844 215.309 75.6667 215.309 75.8438C215.309 76.0521 215.293 76.2656 215.262 76.4844C215.231 76.7031 215.174 76.974 215.09 77.2969C215.267 77.276 215.387 77.2656 215.45 77.2656C215.512 77.2552 215.569 77.25 215.621 77.25C215.799 77.25 215.981 77.2656 216.168 77.2969C216.366 77.3281 216.543 77.3802 216.7 77.4531C216.866 77.526 217.002 77.625 217.106 77.75C217.21 77.8646 217.262 78.0052 217.262 78.1719C217.262 78.3594 217.184 78.526 217.028 78.6719C216.882 78.8177 216.694 78.9427 216.465 79.0469C216.236 79.151 215.991 79.2344 215.731 79.2969C215.47 79.349 215.226 79.3854 214.996 79.4062C214.934 79.8333 214.887 80.2292 214.856 80.5938C214.835 80.9479 214.809 81.3073 214.778 81.6719C214.757 81.849 214.736 82.0312 214.715 82.2188C214.705 82.3958 214.7 82.5781 214.7 82.7656C214.7 82.901 214.705 83.0625 214.715 83.25C214.726 83.4271 214.762 83.599 214.825 83.7656C214.887 83.9323 214.986 84.0781 215.121 84.2031C215.257 84.3177 215.444 84.375 215.684 84.375C215.83 84.375 215.981 84.3646 216.137 84.3438C216.293 84.3125 216.45 84.2969 216.606 84.2969C216.877 84.2969 217.069 84.3906 217.184 84.5781C217.309 84.7656 217.371 85.0052 217.371 85.2969C217.371 85.5156 217.304 85.7083 217.168 85.875C217.043 86.0312 216.882 86.1562 216.684 86.25C216.486 86.3542 216.262 86.4323 216.012 86.4844C215.772 86.5365 215.543 86.5625 215.325 86.5625ZM224.325 83.7969C224.325 83.9844 224.314 84.2292 224.293 84.5312C224.283 84.8333 224.241 85.1302 224.168 85.4219C224.095 85.7031 223.981 85.9479 223.825 86.1562C223.668 86.3646 223.45 86.4688 223.168 86.4688C222.783 86.4688 222.486 86.3438 222.278 86.0938C222.069 85.8438 221.97 85.5312 221.981 85.1562C221.647 85.4479 221.267 85.6771 220.84 85.8438C220.424 86.0104 219.996 86.0938 219.559 86.0938C219.257 86.0938 218.97 86.0208 218.7 85.875C218.429 85.7292 218.189 85.5417 217.981 85.3125C217.772 85.0833 217.606 84.8281 217.481 84.5469C217.356 84.2552 217.293 83.9688 217.293 83.6875C217.293 83.1875 217.444 82.75 217.746 82.375C218.059 82 218.439 81.6823 218.887 81.4219C219.335 81.151 219.809 80.9375 220.309 80.7812C220.819 80.625 221.272 80.5208 221.668 80.4688C221.668 80.4167 221.668 80.3698 221.668 80.3281C221.679 80.2865 221.684 80.2396 221.684 80.1875C221.684 79.8646 221.595 79.6042 221.418 79.4062C221.241 79.2083 220.991 79.1094 220.668 79.1094C220.408 79.1094 220.184 79.1562 219.996 79.25C219.809 79.3333 219.632 79.4323 219.465 79.5469C219.299 79.651 219.132 79.75 218.965 79.8438C218.799 79.9271 218.611 79.9688 218.403 79.9688C218.174 79.9688 217.976 79.8958 217.809 79.75C217.653 79.6042 217.575 79.4167 217.575 79.1875C217.575 78.8438 217.674 78.5312 217.871 78.25C218.08 77.9688 218.335 77.7344 218.637 77.5469C218.95 77.349 219.283 77.1979 219.637 77.0938C220.002 76.9792 220.335 76.9219 220.637 76.9219C220.918 76.9219 221.2 76.9583 221.481 77.0312C221.762 77.0938 222.028 77.1979 222.278 77.3438C222.528 77.4792 222.752 77.651 222.95 77.8594C223.158 78.0573 223.325 78.2917 223.45 78.5625C223.637 78.9479 223.788 79.3594 223.903 79.7969C224.017 80.224 224.106 80.6667 224.168 81.125C224.231 81.5729 224.272 82.026 224.293 82.4844C224.314 82.9323 224.325 83.3698 224.325 83.7969ZM221.825 83.2969L221.778 82.2344C221.757 82.2344 221.736 82.2344 221.715 82.2344C221.694 82.224 221.674 82.2188 221.653 82.2188C221.517 82.2188 221.345 82.2552 221.137 82.3281C220.939 82.3906 220.746 82.4844 220.559 82.6094C220.371 82.724 220.21 82.8542 220.075 83C219.95 83.1458 219.887 83.2969 219.887 83.4531C219.887 83.599 219.939 83.6979 220.043 83.75C220.147 83.8021 220.267 83.8281 220.403 83.8281C220.632 83.8281 220.877 83.7708 221.137 83.6562C221.397 83.5312 221.627 83.4115 221.825 83.2969ZM222.575 74.1719C222.575 74.2865 222.543 74.401 222.481 74.5156C222.418 74.6198 222.34 74.7188 222.246 74.8125C222.163 74.9062 222.069 74.9948 221.965 75.0781C221.861 75.151 221.767 75.2188 221.684 75.2812C221.611 75.3333 221.528 75.3958 221.434 75.4688C221.351 75.5312 221.257 75.5938 221.153 75.6562C221.059 75.7083 220.96 75.7552 220.856 75.7969C220.762 75.8385 220.668 75.8594 220.575 75.8594C220.491 75.8594 220.418 75.8385 220.356 75.7969C220.293 75.7448 220.262 75.6719 220.262 75.5781C220.262 75.4219 220.319 75.2344 220.434 75.0156C220.559 74.7865 220.71 74.5677 220.887 74.3594C221.064 74.1406 221.252 73.9583 221.45 73.8125C221.647 73.6562 221.83 73.5781 221.996 73.5781C222.142 73.5781 222.272 73.6406 222.387 73.7656C222.512 73.8802 222.575 74.0156 222.575 74.1719ZM64.3245 96.7188C64.3245 97.4792 64.2933 98.2344 64.2308 98.9844C64.1787 99.7344 64.1527 100.49 64.1527 101.25C64.1527 101.865 64.1683 102.474 64.1995 103.078C64.2412 103.682 64.262 104.292 64.262 104.906C64.262 105.073 64.2568 105.276 64.2464 105.516C64.236 105.745 64.1995 105.969 64.137 106.188C64.085 106.406 63.9912 106.594 63.8558 106.75C63.7308 106.906 63.5485 106.984 63.3089 106.984C62.9964 106.984 62.736 106.87 62.5277 106.641C62.3298 106.401 62.2048 106.135 62.1527 105.844C61.9548 106.219 61.6683 106.536 61.2933 106.797C60.9183 107.057 60.512 107.188 60.0745 107.188C59.6058 107.188 59.1995 107.026 58.8558 106.703C58.5225 106.38 58.2412 105.99 58.012 105.531C57.7933 105.073 57.6266 104.594 57.512 104.094C57.4079 103.594 57.3558 103.161 57.3558 102.797C57.3558 102.536 57.3714 102.24 57.4027 101.906C57.4339 101.573 57.486 101.234 57.5589 100.891C57.6423 100.547 57.7464 100.214 57.8714 99.8906C57.9964 99.5573 58.1527 99.2604 58.3402 99C58.5381 98.7396 58.7673 98.5312 59.0277 98.375C59.2985 98.2188 59.6058 98.1406 59.9495 98.1406C60.3245 98.1406 60.6839 98.25 61.0277 98.4688C61.3714 98.6875 61.6318 98.9583 61.8089 99.2812L61.9495 96.7969C61.96 96.599 61.9756 96.3698 61.9964 96.1094C62.0173 95.8385 62.0589 95.5833 62.1214 95.3438C62.1943 95.1042 62.3037 94.901 62.4495 94.7344C62.5954 94.5677 62.8089 94.4844 63.0902 94.4844C63.3923 94.4844 63.6266 94.5573 63.7933 94.7031C63.96 94.849 64.0798 95.0365 64.1527 95.2656C64.236 95.4844 64.2829 95.724 64.2933 95.9844C64.3141 96.2448 64.3245 96.4896 64.3245 96.7188ZM61.7777 103.656C61.7777 103.417 61.7725 103.182 61.762 102.953C61.7516 102.724 61.7516 102.49 61.762 102.25C61.6995 102.115 61.6266 101.969 61.5433 101.812C61.46 101.646 61.3558 101.495 61.2308 101.359C61.1162 101.214 60.986 101.094 60.8402 101C60.6943 100.906 60.5381 100.859 60.3714 100.859C60.1839 100.859 60.0329 100.917 59.9183 101.031C59.8037 101.146 59.7204 101.286 59.6683 101.453C59.6162 101.609 59.5798 101.781 59.5589 101.969C59.5485 102.156 59.5433 102.318 59.5433 102.453C59.5433 102.578 59.5537 102.766 59.5745 103.016C59.5954 103.255 59.6318 103.5 59.6839 103.75C59.7464 104 59.8298 104.219 59.9339 104.406C60.0381 104.594 60.1787 104.688 60.3558 104.688C60.4912 104.688 60.6266 104.661 60.762 104.609C60.8975 104.547 61.0225 104.474 61.137 104.391C61.262 104.297 61.3766 104.198 61.4808 104.094C61.5954 103.979 61.6943 103.875 61.7777 103.781V103.656ZM71.9027 104.219C71.9027 104.573 71.7881 104.922 71.5589 105.266C71.3402 105.599 71.0589 105.901 70.7152 106.172C70.3818 106.432 70.0225 106.646 69.637 106.812C69.2516 106.969 68.8975 107.047 68.5745 107.047C68.0225 107.047 67.5277 106.911 67.0902 106.641C66.6631 106.359 66.3037 106.005 66.012 105.578C65.7204 105.151 65.4964 104.682 65.3402 104.172C65.1943 103.651 65.1214 103.146 65.1214 102.656C65.1214 102.135 65.1943 101.578 65.3402 100.984C65.486 100.391 65.7048 99.8438 65.9964 99.3438C66.2985 98.8438 66.6735 98.4271 67.1214 98.0938C67.5798 97.7604 68.1214 97.5938 68.7464 97.5938C69.1006 97.5938 69.4391 97.6562 69.762 97.7812C70.085 97.8958 70.3662 98.0625 70.6058 98.2812C70.8454 98.5 71.0381 98.7604 71.1839 99.0625C71.3298 99.3646 71.4027 99.7031 71.4027 100.078C71.4027 100.568 71.2985 101.026 71.0902 101.453C70.8818 101.88 70.6058 102.25 70.262 102.562C69.9183 102.875 69.5225 103.13 69.0745 103.328C68.6266 103.516 68.1683 103.62 67.6995 103.641C67.7412 103.943 67.861 104.161 68.0589 104.297C68.2673 104.432 68.512 104.5 68.7933 104.5C69.0016 104.5 69.2048 104.448 69.4027 104.344C69.6006 104.24 69.7933 104.125 69.9808 104C70.1683 103.865 70.3506 103.745 70.5277 103.641C70.7152 103.536 70.9027 103.484 71.0902 103.484C71.2985 103.484 71.486 103.552 71.6527 103.688C71.8193 103.823 71.9027 104 71.9027 104.219ZM69.3714 100.391C69.3714 100.255 69.335 100.115 69.262 99.9688C69.1891 99.8229 69.0745 99.75 68.9183 99.75C68.6891 99.75 68.4964 99.8125 68.3402 99.9375C68.1839 100.052 68.0537 100.203 67.9495 100.391C67.8454 100.568 67.762 100.76 67.6995 100.969C67.6475 101.177 67.6162 101.37 67.6058 101.547C67.7516 101.516 67.9235 101.474 68.1214 101.422C68.3298 101.37 68.5225 101.302 68.6995 101.219C68.887 101.125 69.0433 101.01 69.1683 100.875C69.3037 100.74 69.3714 100.578 69.3714 100.391ZM76.9652 107.438C76.7881 107.438 76.6475 107.354 76.5433 107.188C76.4391 107.031 76.361 106.849 76.3089 106.641C76.2568 106.432 76.2204 106.224 76.1995 106.016C76.1891 105.797 76.1839 105.63 76.1839 105.516C76.1839 105.203 76.1995 104.891 76.2308 104.578C76.2725 104.266 76.3141 103.953 76.3558 103.641C76.4079 103.328 76.4495 103.016 76.4808 102.703C76.5225 102.391 76.5433 102.078 76.5433 101.766C76.5433 101.641 76.5381 101.505 76.5277 101.359C76.5173 101.214 76.4912 101.078 76.4495 100.953C76.4183 100.818 76.361 100.708 76.2777 100.625C76.1943 100.542 76.085 100.5 75.9495 100.5C75.8558 100.5 75.7516 100.578 75.637 100.734C75.5225 100.88 75.4131 101.052 75.3089 101.25C75.2152 101.438 75.1318 101.63 75.0589 101.828C74.9964 102.016 74.9652 102.156 74.9652 102.25C74.9652 102.479 74.9652 102.714 74.9652 102.953C74.9756 103.182 74.9808 103.417 74.9808 103.656V104.562C74.9704 104.75 74.9548 104.943 74.9339 105.141C74.9131 105.339 74.8818 105.531 74.8402 105.719C74.8089 105.906 74.762 106.089 74.6995 106.266C74.637 106.432 74.5537 106.583 74.4495 106.719C74.3558 106.844 74.2412 106.948 74.1058 107.031C73.9704 107.115 73.8089 107.156 73.6214 107.156C73.4131 107.156 73.2412 107.089 73.1058 106.953C72.9704 106.818 72.861 106.646 72.7777 106.438C72.6943 106.219 72.6318 105.979 72.5902 105.719C72.5589 105.448 72.5329 105.188 72.512 104.938C72.5016 104.677 72.4964 104.443 72.4964 104.234C72.5068 104.016 72.512 103.844 72.512 103.719V102.984C72.512 102.589 72.5016 102.198 72.4808 101.812C72.4704 101.427 72.4652 101.042 72.4652 100.656C72.4652 100.448 72.4652 100.182 72.4652 99.8594C72.4756 99.5365 72.5173 99.224 72.5902 98.9219C72.6631 98.6094 72.7829 98.3438 72.9495 98.125C73.1162 97.9062 73.361 97.7969 73.6839 97.7969C73.8298 97.7969 73.96 97.8438 74.0745 97.9375C74.1891 98.0312 74.2881 98.1458 74.3714 98.2812C74.4652 98.4167 74.5381 98.5625 74.5902 98.7188C74.6527 98.875 74.6995 99.0104 74.7308 99.125C74.835 98.9792 74.9548 98.8385 75.0902 98.7031C75.236 98.5677 75.3975 98.4479 75.5745 98.3438C75.7516 98.2396 75.9495 98.1562 76.1683 98.0938C76.387 98.0312 76.637 98 76.9183 98C77.4495 98 77.861 98.1302 78.1527 98.3906C78.4548 98.6406 78.6735 98.9583 78.8089 99.3438C78.9548 99.7188 79.0433 100.125 79.0745 100.562C79.1058 101 79.1214 101.396 79.1214 101.75C79.1214 101.927 79.1058 102.193 79.0745 102.547C79.0433 102.891 78.9912 103.276 78.9183 103.703C78.8558 104.12 78.7673 104.552 78.6527 105C78.5381 105.438 78.4027 105.839 78.2464 106.203C78.0902 106.568 77.9027 106.865 77.6839 107.094C77.4756 107.323 77.236 107.438 76.9652 107.438ZM83.637 107.562C82.8975 107.562 82.3193 107.464 81.9027 107.266C81.4964 107.078 81.1891 106.807 80.9808 106.453C80.7829 106.099 80.6631 105.672 80.6214 105.172C80.5798 104.672 80.5589 104.115 80.5589 103.5C80.5589 103.01 80.5745 102.521 80.6058 102.031C80.637 101.531 80.6839 101 80.7464 100.438C80.6006 100.438 80.486 100.443 80.4027 100.453C80.3193 100.453 80.2516 100.453 80.1995 100.453C79.8662 100.453 79.5798 100.38 79.3402 100.234C79.0902 100.089 78.9652 99.8646 78.9652 99.5625C78.9652 99.375 79.0381 99.2083 79.1839 99.0625C79.3193 98.9167 79.4964 98.7917 79.7152 98.6875C79.9339 98.5833 80.1683 98.5 80.4183 98.4375C80.6787 98.375 80.9235 98.3333 81.1527 98.3125C81.1527 98.0208 81.1735 97.6979 81.2152 97.3438C81.2568 96.9896 81.3298 96.6615 81.4339 96.3594C81.5485 96.0469 81.6995 95.7865 81.887 95.5781C82.0745 95.3698 82.3141 95.2656 82.6058 95.2656C82.7725 95.2656 82.9183 95.3177 83.0433 95.4219C83.1787 95.5156 83.2881 95.6406 83.3714 95.7969C83.4548 95.9427 83.5173 96.1094 83.5589 96.2969C83.6006 96.4844 83.6214 96.6667 83.6214 96.8438C83.6214 97.0521 83.6058 97.2656 83.5745 97.4844C83.5433 97.7031 83.486 97.974 83.4027 98.2969C83.5798 98.276 83.6995 98.2656 83.762 98.2656C83.8245 98.2552 83.8818 98.25 83.9339 98.25C84.111 98.25 84.2933 98.2656 84.4808 98.2969C84.6787 98.3281 84.8558 98.3802 85.012 98.4531C85.1787 98.526 85.3141 98.625 85.4183 98.75C85.5225 98.8646 85.5745 99.0052 85.5745 99.1719C85.5745 99.3594 85.4964 99.526 85.3402 99.6719C85.1943 99.8177 85.0068 99.9427 84.7777 100.047C84.5485 100.151 84.3037 100.234 84.0433 100.297C83.7829 100.349 83.5381 100.385 83.3089 100.406C83.2464 100.833 83.1995 101.229 83.1683 101.594C83.1475 101.948 83.1214 102.307 83.0902 102.672C83.0693 102.849 83.0485 103.031 83.0277 103.219C83.0173 103.396 83.012 103.578 83.012 103.766C83.012 103.901 83.0173 104.062 83.0277 104.25C83.0381 104.427 83.0745 104.599 83.137 104.766C83.1995 104.932 83.2985 105.078 83.4339 105.203C83.5693 105.318 83.7568 105.375 83.9964 105.375C84.1423 105.375 84.2933 105.365 84.4495 105.344C84.6058 105.312 84.762 105.297 84.9183 105.297C85.1891 105.297 85.3818 105.391 85.4964 105.578C85.6214 105.766 85.6839 106.005 85.6839 106.297C85.6839 106.516 85.6162 106.708 85.4808 106.875C85.3558 107.031 85.1943 107.156 84.9964 107.25C84.7985 107.354 84.5745 107.432 84.3245 107.484C84.085 107.536 83.8558 107.562 83.637 107.562ZM91.4183 101.156C91.2725 101.167 91.1475 101.156 91.0433 101.125C90.9391 101.083 90.835 101.042 90.7308 101C90.637 100.958 90.5433 100.922 90.4495 100.891C90.3558 100.849 90.2516 100.833 90.137 100.844C89.9287 100.854 89.7412 100.911 89.5745 101.016C89.4183 101.12 89.2725 101.25 89.137 101.406C89.012 101.562 88.9027 101.74 88.8089 101.938C88.7152 102.125 88.6423 102.312 88.5902 102.5C88.5589 102.625 88.5329 102.818 88.512 103.078C88.5016 103.328 88.4964 103.599 88.4964 103.891C88.486 104.193 88.4808 104.479 88.4808 104.75C88.4808 105.021 88.4704 105.234 88.4495 105.391C88.4391 105.557 88.4131 105.755 88.3714 105.984C88.3298 106.203 88.262 106.411 88.1683 106.609C88.085 106.807 87.9704 106.974 87.8245 107.109C87.6787 107.245 87.4912 107.312 87.262 107.312C87.085 107.312 86.9287 107.26 86.7933 107.156C86.6683 107.052 86.5589 106.917 86.4652 106.75C86.3818 106.573 86.3089 106.37 86.2464 106.141C86.1943 105.911 86.1527 105.677 86.1214 105.438C86.0902 105.188 86.0641 104.938 86.0433 104.688C86.0329 104.438 86.0225 104.203 86.012 103.984C86.012 103.755 86.012 103.547 86.012 103.359C86.0225 103.172 86.0277 103.021 86.0277 102.906C86.0173 102.542 85.9964 102.177 85.9652 101.812C85.9443 101.438 85.9339 101.068 85.9339 100.703C85.9339 100.474 85.9443 100.219 85.9652 99.9375C85.986 99.6562 86.0433 99.3958 86.137 99.1562C86.2308 98.9062 86.3662 98.6979 86.5433 98.5312C86.7308 98.3646 86.986 98.2812 87.3089 98.2812C87.486 98.2812 87.637 98.3385 87.762 98.4531C87.887 98.5677 87.986 98.7083 88.0589 98.875C88.1423 99.0417 88.2048 99.2188 88.2464 99.4062C88.2881 99.5938 88.3141 99.7656 88.3245 99.9219C88.5745 99.5156 88.8558 99.1875 89.1683 98.9375C89.4808 98.6771 89.887 98.5365 90.387 98.5156C90.637 98.5052 90.8818 98.5312 91.1214 98.5938C91.3714 98.6458 91.5954 98.7396 91.7933 98.875C92.0016 99 92.1683 99.1667 92.2933 99.375C92.4287 99.5833 92.5016 99.8281 92.512 100.109C92.5329 100.443 92.4339 100.698 92.2152 100.875C91.9964 101.052 91.7308 101.146 91.4183 101.156ZM95.7152 107.453C95.1839 107.453 94.7204 107.312 94.3245 107.031C93.9287 106.75 93.5954 106.391 93.3245 105.953C93.0537 105.516 92.8506 105.031 92.7152 104.5C92.5798 103.958 92.512 103.427 92.512 102.906C92.512 102.354 92.5798 101.786 92.7152 101.203C92.8506 100.609 93.0589 100.073 93.3402 99.5938C93.6214 99.1042 93.9808 98.7083 94.4183 98.4062C94.8558 98.0938 95.3766 97.9375 95.9808 97.9375C96.5641 97.9375 97.0589 98.099 97.4652 98.4219C97.8818 98.7344 98.2152 99.1302 98.4652 99.6094C98.7152 100.078 98.8923 100.594 98.9964 101.156C99.1006 101.719 99.137 102.25 99.1058 102.75C99.0745 103.302 98.986 103.859 98.8402 104.422C98.7048 104.984 98.5016 105.49 98.2308 105.938C97.96 106.385 97.6162 106.75 97.1995 107.031C96.7829 107.312 96.2881 107.453 95.7152 107.453ZM95.8714 100.391C95.7152 100.391 95.5745 100.474 95.4495 100.641C95.335 100.807 95.236 101.01 95.1527 101.25C95.0798 101.49 95.0225 101.745 94.9808 102.016C94.9391 102.276 94.9183 102.505 94.9183 102.703C94.9183 102.953 94.9391 103.224 94.9808 103.516C95.0329 103.807 95.1006 104.078 95.1839 104.328C95.2673 104.568 95.3662 104.771 95.4808 104.938C95.6058 105.094 95.7464 105.172 95.9027 105.172C96.0693 105.172 96.21 105.094 96.3245 104.938C96.4495 104.781 96.5485 104.583 96.6214 104.344C96.6943 104.104 96.7464 103.844 96.7777 103.562C96.8089 103.271 96.8245 103 96.8245 102.75C96.8245 102.521 96.8037 102.271 96.762 102C96.7204 101.719 96.6579 101.458 96.5745 101.219C96.5016 100.979 96.4027 100.781 96.2777 100.625C96.1631 100.469 96.0277 100.391 95.8714 100.391ZM110.403 96.7188C110.403 97.4792 110.371 98.2344 110.309 98.9844C110.257 99.7344 110.231 100.49 110.231 101.25C110.231 101.865 110.246 102.474 110.278 103.078C110.319 103.682 110.34 104.292 110.34 104.906C110.34 105.073 110.335 105.276 110.325 105.516C110.314 105.745 110.278 105.969 110.215 106.188C110.163 106.406 110.069 106.594 109.934 106.75C109.809 106.906 109.627 106.984 109.387 106.984C109.075 106.984 108.814 106.87 108.606 106.641C108.408 106.401 108.283 106.135 108.231 105.844C108.033 106.219 107.746 106.536 107.371 106.797C106.996 107.057 106.59 107.188 106.153 107.188C105.684 107.188 105.278 107.026 104.934 106.703C104.601 106.38 104.319 105.99 104.09 105.531C103.871 105.073 103.705 104.594 103.59 104.094C103.486 103.594 103.434 103.161 103.434 102.797C103.434 102.536 103.45 102.24 103.481 101.906C103.512 101.573 103.564 101.234 103.637 100.891C103.72 100.547 103.825 100.214 103.95 99.8906C104.075 99.5573 104.231 99.2604 104.418 99C104.616 98.7396 104.845 98.5312 105.106 98.375C105.377 98.2188 105.684 98.1406 106.028 98.1406C106.403 98.1406 106.762 98.25 107.106 98.4688C107.45 98.6875 107.71 98.9583 107.887 99.2812L108.028 96.7969C108.038 96.599 108.054 96.3698 108.075 96.1094C108.095 95.8385 108.137 95.5833 108.2 95.3438C108.272 95.1042 108.382 94.901 108.528 94.7344C108.674 94.5677 108.887 94.4844 109.168 94.4844C109.47 94.4844 109.705 94.5573 109.871 94.7031C110.038 94.849 110.158 95.0365 110.231 95.2656C110.314 95.4844 110.361 95.724 110.371 95.9844C110.392 96.2448 110.403 96.4896 110.403 96.7188ZM107.856 103.656C107.856 103.417 107.851 103.182 107.84 102.953C107.83 102.724 107.83 102.49 107.84 102.25C107.778 102.115 107.705 101.969 107.621 101.812C107.538 101.646 107.434 101.495 107.309 101.359C107.194 101.214 107.064 101.094 106.918 101C106.772 100.906 106.616 100.859 106.45 100.859C106.262 100.859 106.111 100.917 105.996 101.031C105.882 101.146 105.799 101.286 105.746 101.453C105.694 101.609 105.658 101.781 105.637 101.969C105.627 102.156 105.621 102.318 105.621 102.453C105.621 102.578 105.632 102.766 105.653 103.016C105.674 103.255 105.71 103.5 105.762 103.75C105.825 104 105.908 104.219 106.012 104.406C106.116 104.594 106.257 104.688 106.434 104.688C106.569 104.688 106.705 104.661 106.84 104.609C106.976 104.547 107.101 104.474 107.215 104.391C107.34 104.297 107.455 104.198 107.559 104.094C107.674 103.979 107.772 103.875 107.856 103.781V103.656ZM114.403 107.453C113.871 107.453 113.408 107.312 113.012 107.031C112.616 106.75 112.283 106.391 112.012 105.953C111.741 105.516 111.538 105.031 111.403 104.5C111.267 103.958 111.2 103.427 111.2 102.906C111.2 102.354 111.267 101.786 111.403 101.203C111.538 100.609 111.746 100.073 112.028 99.5938C112.309 99.1042 112.668 98.7083 113.106 98.4062C113.543 98.0938 114.064 97.9375 114.668 97.9375C115.252 97.9375 115.746 98.099 116.153 98.4219C116.569 98.7344 116.903 99.1302 117.153 99.6094C117.403 100.078 117.58 100.594 117.684 101.156C117.788 101.719 117.825 102.25 117.793 102.75C117.762 103.302 117.674 103.859 117.528 104.422C117.392 104.984 117.189 105.49 116.918 105.938C116.647 106.385 116.304 106.75 115.887 107.031C115.47 107.312 114.976 107.453 114.403 107.453ZM114.559 100.391C114.403 100.391 114.262 100.474 114.137 100.641C114.022 100.807 113.924 101.01 113.84 101.25C113.767 101.49 113.71 101.745 113.668 102.016C113.627 102.276 113.606 102.505 113.606 102.703C113.606 102.953 113.627 103.224 113.668 103.516C113.72 103.807 113.788 104.078 113.871 104.328C113.955 104.568 114.054 104.771 114.168 104.938C114.293 105.094 114.434 105.172 114.59 105.172C114.757 105.172 114.897 105.094 115.012 104.938C115.137 104.781 115.236 104.583 115.309 104.344C115.382 104.104 115.434 103.844 115.465 103.562C115.496 103.271 115.512 103 115.512 102.75C115.512 102.521 115.491 102.271 115.45 102C115.408 101.719 115.345 101.458 115.262 101.219C115.189 100.979 115.09 100.781 114.965 100.625C114.851 100.469 114.715 100.391 114.559 100.391ZM126.793 107.438C126.616 107.438 126.476 107.354 126.371 107.188C126.267 107.031 126.189 106.849 126.137 106.641C126.085 106.432 126.049 106.224 126.028 106.016C126.017 105.797 126.012 105.63 126.012 105.516C126.012 105.203 126.028 104.891 126.059 104.578C126.101 104.266 126.142 103.953 126.184 103.641C126.236 103.328 126.278 103.016 126.309 102.703C126.351 102.391 126.371 102.078 126.371 101.766C126.371 101.641 126.366 101.505 126.356 101.359C126.345 101.214 126.319 101.078 126.278 100.953C126.246 100.818 126.189 100.708 126.106 100.625C126.022 100.542 125.913 100.5 125.778 100.5C125.684 100.5 125.58 100.578 125.465 100.734C125.351 100.88 125.241 101.052 125.137 101.25C125.043 101.438 124.96 101.63 124.887 101.828C124.825 102.016 124.793 102.156 124.793 102.25C124.793 102.479 124.793 102.714 124.793 102.953C124.804 103.182 124.809 103.417 124.809 103.656V104.562C124.799 104.75 124.783 104.943 124.762 105.141C124.741 105.339 124.71 105.531 124.668 105.719C124.637 105.906 124.59 106.089 124.528 106.266C124.465 106.432 124.382 106.583 124.278 106.719C124.184 106.844 124.069 106.948 123.934 107.031C123.799 107.115 123.637 107.156 123.45 107.156C123.241 107.156 123.069 107.089 122.934 106.953C122.799 106.818 122.689 106.646 122.606 106.438C122.522 106.219 122.46 105.979 122.418 105.719C122.387 105.448 122.361 105.188 122.34 104.938C122.33 104.677 122.325 104.443 122.325 104.234C122.335 104.016 122.34 103.844 122.34 103.719V102.984C122.34 102.589 122.33 102.198 122.309 101.812C122.299 101.427 122.293 101.042 122.293 100.656C122.293 100.448 122.293 100.182 122.293 99.8594C122.304 99.5365 122.345 99.224 122.418 98.9219C122.491 98.6094 122.611 98.3438 122.778 98.125C122.944 97.9062 123.189 97.7969 123.512 97.7969C123.658 97.7969 123.788 97.8438 123.903 97.9375C124.017 98.0312 124.116 98.1458 124.2 98.2812C124.293 98.4167 124.366 98.5625 124.418 98.7188C124.481 98.875 124.528 99.0104 124.559 99.125C124.663 98.9792 124.783 98.8385 124.918 98.7031C125.064 98.5677 125.226 98.4479 125.403 98.3438C125.58 98.2396 125.778 98.1562 125.996 98.0938C126.215 98.0312 126.465 98 126.746 98C127.278 98 127.689 98.1302 127.981 98.3906C128.283 98.6406 128.502 98.9583 128.637 99.3438C128.783 99.7188 128.871 100.125 128.903 100.562C128.934 101 128.95 101.396 128.95 101.75C128.95 101.927 128.934 102.193 128.903 102.547C128.871 102.891 128.819 103.276 128.746 103.703C128.684 104.12 128.595 104.552 128.481 105C128.366 105.438 128.231 105.839 128.075 106.203C127.918 106.568 127.731 106.865 127.512 107.094C127.304 107.323 127.064 107.438 126.793 107.438ZM132.793 107.453C132.262 107.453 131.799 107.312 131.403 107.031C131.007 106.75 130.674 106.391 130.403 105.953C130.132 105.516 129.929 105.031 129.793 104.5C129.658 103.958 129.59 103.427 129.59 102.906C129.59 102.354 129.658 101.786 129.793 101.203C129.929 100.609 130.137 100.073 130.418 99.5938C130.7 99.1042 131.059 98.7083 131.496 98.4062C131.934 98.0938 132.455 97.9375 133.059 97.9375C133.642 97.9375 134.137 98.099 134.543 98.4219C134.96 98.7344 135.293 99.1302 135.543 99.6094C135.793 100.078 135.97 100.594 136.075 101.156C136.179 101.719 136.215 102.25 136.184 102.75C136.153 103.302 136.064 103.859 135.918 104.422C135.783 104.984 135.58 105.49 135.309 105.938C135.038 106.385 134.694 106.75 134.278 107.031C133.861 107.312 133.366 107.453 132.793 107.453ZM132.95 100.391C132.793 100.391 132.653 100.474 132.528 100.641C132.413 100.807 132.314 101.01 132.231 101.25C132.158 101.49 132.101 101.745 132.059 102.016C132.017 102.276 131.996 102.505 131.996 102.703C131.996 102.953 132.017 103.224 132.059 103.516C132.111 103.807 132.179 104.078 132.262 104.328C132.345 104.568 132.444 104.771 132.559 104.938C132.684 105.094 132.825 105.172 132.981 105.172C133.147 105.172 133.288 105.094 133.403 104.938C133.528 104.781 133.627 104.583 133.7 104.344C133.772 104.104 133.825 103.844 133.856 103.562C133.887 103.271 133.903 103 133.903 102.75C133.903 102.521 133.882 102.271 133.84 102C133.799 101.719 133.736 101.458 133.653 101.219C133.58 100.979 133.481 100.781 133.356 100.625C133.241 100.469 133.106 100.391 132.95 100.391ZM141.559 98.4062C141.559 98.7083 141.455 98.9323 141.246 99.0781C141.049 99.224 140.825 99.3646 140.575 99.5C140.325 99.625 140.095 99.776 139.887 99.9531C139.689 100.13 139.59 100.396 139.59 100.75C139.59 100.938 139.632 101.099 139.715 101.234C139.809 101.37 139.918 101.495 140.043 101.609C140.179 101.714 140.325 101.823 140.481 101.938C140.637 102.052 140.778 102.182 140.903 102.328C141.038 102.474 141.147 102.651 141.231 102.859C141.325 103.068 141.371 103.323 141.371 103.625C141.371 104.062 141.257 104.495 141.028 104.922C140.809 105.339 140.522 105.714 140.168 106.047C139.825 106.37 139.434 106.63 138.996 106.828C138.559 107.026 138.127 107.125 137.7 107.125C137.522 107.125 137.345 107.109 137.168 107.078C136.991 107.057 136.83 107.01 136.684 106.938C136.549 106.865 136.434 106.766 136.34 106.641C136.246 106.505 136.2 106.333 136.2 106.125C136.2 105.833 136.257 105.609 136.371 105.453C136.486 105.286 136.632 105.156 136.809 105.062C136.986 104.969 137.174 104.896 137.371 104.844C137.58 104.792 137.772 104.729 137.95 104.656C138.127 104.573 138.272 104.469 138.387 104.344C138.502 104.219 138.559 104.042 138.559 103.812C138.559 103.594 138.47 103.37 138.293 103.141C138.127 102.901 137.939 102.651 137.731 102.391C137.522 102.12 137.33 101.833 137.153 101.531C136.986 101.229 136.903 100.896 136.903 100.531C136.903 100.083 136.991 99.6719 137.168 99.2969C137.356 98.9115 137.601 98.5781 137.903 98.2969C138.215 98.0156 138.569 97.7969 138.965 97.6406C139.361 97.474 139.778 97.3906 140.215 97.3906C140.382 97.3906 140.543 97.4062 140.7 97.4375C140.866 97.4688 141.012 97.526 141.137 97.6094C141.262 97.6823 141.361 97.7865 141.434 97.9219C141.517 98.0469 141.559 98.2083 141.559 98.4062ZM146.762 98.4062C146.762 98.7083 146.658 98.9323 146.45 99.0781C146.252 99.224 146.028 99.3646 145.778 99.5C145.528 99.625 145.299 99.776 145.09 99.9531C144.892 100.13 144.793 100.396 144.793 100.75C144.793 100.938 144.835 101.099 144.918 101.234C145.012 101.37 145.121 101.495 145.246 101.609C145.382 101.714 145.528 101.823 145.684 101.938C145.84 102.052 145.981 102.182 146.106 102.328C146.241 102.474 146.351 102.651 146.434 102.859C146.528 103.068 146.575 103.323 146.575 103.625C146.575 104.062 146.46 104.495 146.231 104.922C146.012 105.339 145.726 105.714 145.371 106.047C145.028 106.37 144.637 106.63 144.2 106.828C143.762 107.026 143.33 107.125 142.903 107.125C142.726 107.125 142.549 107.109 142.371 107.078C142.194 107.057 142.033 107.01 141.887 106.938C141.752 106.865 141.637 106.766 141.543 106.641C141.45 106.505 141.403 106.333 141.403 106.125C141.403 105.833 141.46 105.609 141.575 105.453C141.689 105.286 141.835 105.156 142.012 105.062C142.189 104.969 142.377 104.896 142.575 104.844C142.783 104.792 142.976 104.729 143.153 104.656C143.33 104.573 143.476 104.469 143.59 104.344C143.705 104.219 143.762 104.042 143.762 103.812C143.762 103.594 143.674 103.37 143.496 103.141C143.33 102.901 143.142 102.651 142.934 102.391C142.726 102.12 142.533 101.833 142.356 101.531C142.189 101.229 142.106 100.896 142.106 100.531C142.106 100.083 142.194 99.6719 142.371 99.2969C142.559 98.9115 142.804 98.5781 143.106 98.2969C143.418 98.0156 143.772 97.7969 144.168 97.6406C144.564 97.474 144.981 97.3906 145.418 97.3906C145.585 97.3906 145.746 97.4062 145.903 97.4375C146.069 97.4688 146.215 97.526 146.34 97.6094C146.465 97.6823 146.564 97.7865 146.637 97.9219C146.72 98.0469 146.762 98.2083 146.762 98.4062ZM150.356 107.453C149.825 107.453 149.361 107.312 148.965 107.031C148.569 106.75 148.236 106.391 147.965 105.953C147.694 105.516 147.491 105.031 147.356 104.5C147.22 103.958 147.153 103.427 147.153 102.906C147.153 102.354 147.22 101.786 147.356 101.203C147.491 100.609 147.7 100.073 147.981 99.5938C148.262 99.1042 148.621 98.7083 149.059 98.4062C149.496 98.0938 150.017 97.9375 150.621 97.9375C151.205 97.9375 151.7 98.099 152.106 98.4219C152.522 98.7344 152.856 99.1302 153.106 99.6094C153.356 100.078 153.533 100.594 153.637 101.156C153.741 101.719 153.778 102.25 153.746 102.75C153.715 103.302 153.627 103.859 153.481 104.422C153.345 104.984 153.142 105.49 152.871 105.938C152.601 106.385 152.257 106.75 151.84 107.031C151.424 107.312 150.929 107.453 150.356 107.453ZM150.512 100.391C150.356 100.391 150.215 100.474 150.09 100.641C149.976 100.807 149.877 101.01 149.793 101.25C149.72 101.49 149.663 101.745 149.621 102.016C149.58 102.276 149.559 102.505 149.559 102.703C149.559 102.953 149.58 103.224 149.621 103.516C149.674 103.807 149.741 104.078 149.825 104.328C149.908 104.568 150.007 104.771 150.121 104.938C150.246 105.094 150.387 105.172 150.543 105.172C150.71 105.172 150.851 105.094 150.965 104.938C151.09 104.781 151.189 104.583 151.262 104.344C151.335 104.104 151.387 103.844 151.418 103.562C151.45 103.271 151.465 103 151.465 102.75C151.465 102.521 151.444 102.271 151.403 102C151.361 101.719 151.299 101.458 151.215 101.219C151.142 100.979 151.043 100.781 150.918 100.625C150.804 100.469 150.668 100.391 150.512 100.391ZM164.106 101C164.106 101.052 164.101 101.109 164.09 101.172C164.08 101.224 164.064 101.276 164.043 101.328C163.95 101.568 163.804 101.771 163.606 101.938C163.408 102.094 163.174 102.172 162.903 102.172C162.496 102.172 162.22 101.969 162.075 101.562C162.054 101.51 162.043 101.453 162.043 101.391C162.043 101.318 162.038 101.245 162.028 101.172V100.719C162.007 100.573 161.97 100.458 161.918 100.375C161.866 100.292 161.778 100.25 161.653 100.25C161.476 100.25 161.304 100.365 161.137 100.594C160.981 100.812 160.84 101.078 160.715 101.391C160.601 101.693 160.507 102.005 160.434 102.328C160.361 102.651 160.325 102.911 160.325 103.109C160.325 103.266 160.335 103.458 160.356 103.688C160.377 103.906 160.418 104.12 160.481 104.328C160.543 104.536 160.627 104.719 160.731 104.875C160.845 105.021 160.991 105.094 161.168 105.094C161.345 105.094 161.507 105.042 161.653 104.938C161.809 104.823 161.96 104.693 162.106 104.547C162.241 104.422 162.387 104.292 162.543 104.156C162.71 104.021 162.897 103.953 163.106 103.953C163.366 103.953 163.569 104.047 163.715 104.234C163.871 104.422 163.95 104.635 163.95 104.875C163.95 105.229 163.856 105.562 163.668 105.875C163.481 106.177 163.246 106.443 162.965 106.672C162.684 106.891 162.371 107.062 162.028 107.188C161.684 107.323 161.356 107.391 161.043 107.391C160.481 107.391 160.002 107.25 159.606 106.969C159.22 106.688 158.908 106.333 158.668 105.906C158.429 105.469 158.257 104.995 158.153 104.484C158.049 103.974 157.996 103.49 157.996 103.031C157.996 102.5 158.069 101.927 158.215 101.312C158.361 100.688 158.585 100.109 158.887 99.5781C159.189 99.0469 159.575 98.6042 160.043 98.25C160.522 97.8958 161.09 97.7188 161.746 97.7188C162.153 97.7188 162.502 97.8073 162.793 97.9844C163.095 98.1615 163.34 98.3958 163.528 98.6875C163.726 98.9688 163.871 99.2865 163.965 99.6406C164.069 99.9948 164.121 100.344 164.121 100.688C164.121 100.74 164.121 100.792 164.121 100.844C164.121 100.896 164.116 100.948 164.106 101ZM167.95 107.453C167.418 107.453 166.955 107.312 166.559 107.031C166.163 106.75 165.83 106.391 165.559 105.953C165.288 105.516 165.085 105.031 164.95 104.5C164.814 103.958 164.746 103.427 164.746 102.906C164.746 102.354 164.814 101.786 164.95 101.203C165.085 100.609 165.293 100.073 165.575 99.5938C165.856 99.1042 166.215 98.7083 166.653 98.4062C167.09 98.0938 167.611 97.9375 168.215 97.9375C168.799 97.9375 169.293 98.099 169.7 98.4219C170.116 98.7344 170.45 99.1302 170.7 99.6094C170.95 100.078 171.127 100.594 171.231 101.156C171.335 101.719 171.371 102.25 171.34 102.75C171.309 103.302 171.22 103.859 171.075 104.422C170.939 104.984 170.736 105.49 170.465 105.938C170.194 106.385 169.851 106.75 169.434 107.031C169.017 107.312 168.522 107.453 167.95 107.453ZM168.106 100.391C167.95 100.391 167.809 100.474 167.684 100.641C167.569 100.807 167.47 101.01 167.387 101.25C167.314 101.49 167.257 101.745 167.215 102.016C167.174 102.276 167.153 102.505 167.153 102.703C167.153 102.953 167.174 103.224 167.215 103.516C167.267 103.807 167.335 104.078 167.418 104.328C167.502 104.568 167.601 104.771 167.715 104.938C167.84 105.094 167.981 105.172 168.137 105.172C168.304 105.172 168.444 105.094 168.559 104.938C168.684 104.781 168.783 104.583 168.856 104.344C168.929 104.104 168.981 103.844 169.012 103.562C169.043 103.271 169.059 103 169.059 102.75C169.059 102.521 169.038 102.271 168.996 102C168.955 101.719 168.892 101.458 168.809 101.219C168.736 100.979 168.637 100.781 168.512 100.625C168.397 100.469 168.262 100.391 168.106 100.391ZM177.559 101.156C177.413 101.167 177.288 101.156 177.184 101.125C177.08 101.083 176.976 101.042 176.871 101C176.778 100.958 176.684 100.922 176.59 100.891C176.496 100.849 176.392 100.833 176.278 100.844C176.069 100.854 175.882 100.911 175.715 101.016C175.559 101.12 175.413 101.25 175.278 101.406C175.153 101.562 175.043 101.74 174.95 101.938C174.856 102.125 174.783 102.312 174.731 102.5C174.7 102.625 174.674 102.818 174.653 103.078C174.642 103.328 174.637 103.599 174.637 103.891C174.627 104.193 174.621 104.479 174.621 104.75C174.621 105.021 174.611 105.234 174.59 105.391C174.58 105.557 174.554 105.755 174.512 105.984C174.47 106.203 174.403 106.411 174.309 106.609C174.226 106.807 174.111 106.974 173.965 107.109C173.819 107.245 173.632 107.312 173.403 107.312C173.226 107.312 173.069 107.26 172.934 107.156C172.809 107.052 172.7 106.917 172.606 106.75C172.522 106.573 172.45 106.37 172.387 106.141C172.335 105.911 172.293 105.677 172.262 105.438C172.231 105.188 172.205 104.938 172.184 104.688C172.174 104.438 172.163 104.203 172.153 103.984C172.153 103.755 172.153 103.547 172.153 103.359C172.163 103.172 172.168 103.021 172.168 102.906C172.158 102.542 172.137 102.177 172.106 101.812C172.085 101.438 172.075 101.068 172.075 100.703C172.075 100.474 172.085 100.219 172.106 99.9375C172.127 99.6562 172.184 99.3958 172.278 99.1562C172.371 98.9062 172.507 98.6979 172.684 98.5312C172.871 98.3646 173.127 98.2812 173.45 98.2812C173.627 98.2812 173.778 98.3385 173.903 98.4531C174.028 98.5677 174.127 98.7083 174.2 98.875C174.283 99.0417 174.345 99.2188 174.387 99.4062C174.429 99.5938 174.455 99.7656 174.465 99.9219C174.715 99.5156 174.996 99.1875 175.309 98.9375C175.621 98.6771 176.028 98.5365 176.528 98.5156C176.778 98.5052 177.022 98.5312 177.262 98.5938C177.512 98.6458 177.736 98.7396 177.934 98.875C178.142 99 178.309 99.1667 178.434 99.375C178.569 99.5833 178.642 99.8281 178.653 100.109C178.674 100.443 178.575 100.698 178.356 100.875C178.137 101.052 177.871 101.146 177.559 101.156ZM186.043 102.344C186.043 102.802 185.991 103.307 185.887 103.859C185.793 104.401 185.627 104.906 185.387 105.375C185.158 105.844 184.851 106.234 184.465 106.547C184.09 106.859 183.616 107.016 183.043 107.016C182.897 107.016 182.746 107.005 182.59 106.984C182.434 106.964 182.283 106.927 182.137 106.875C182.002 106.823 181.877 106.755 181.762 106.672C181.647 106.578 181.559 106.458 181.496 106.312L181.356 108.562C181.345 108.802 181.335 109.089 181.325 109.422C181.325 109.755 181.283 110.073 181.2 110.375C181.127 110.677 180.996 110.932 180.809 111.141C180.632 111.359 180.371 111.469 180.028 111.469C179.83 111.469 179.663 111.365 179.528 111.156C179.392 110.958 179.283 110.703 179.2 110.391C179.127 110.078 179.069 109.729 179.028 109.344C178.986 108.958 178.96 108.589 178.95 108.234C178.939 107.88 178.934 107.557 178.934 107.266C178.934 106.974 178.934 106.76 178.934 106.625C178.934 105.927 178.929 105.234 178.918 104.547C178.908 103.849 178.903 103.151 178.903 102.453C178.903 102.328 178.903 102.135 178.903 101.875C178.903 101.604 178.913 101.312 178.934 101C178.955 100.688 178.986 100.365 179.028 100.031C179.08 99.6979 179.153 99.3958 179.246 99.125C179.34 98.8438 179.46 98.6198 179.606 98.4531C179.752 98.276 179.929 98.1875 180.137 98.1875C180.272 98.1875 180.392 98.2292 180.496 98.3125C180.611 98.3854 180.705 98.4844 180.778 98.6094C180.861 98.724 180.929 98.849 180.981 98.9844C181.033 99.1198 181.075 99.2448 181.106 99.3594C181.429 98.9948 181.799 98.7188 182.215 98.5312C182.642 98.3438 183.095 98.25 183.575 98.25C184.075 98.25 184.481 98.3906 184.793 98.6719C185.116 98.9531 185.366 99.3021 185.543 99.7188C185.731 100.135 185.861 100.583 185.934 101.062C186.007 101.531 186.043 101.958 186.043 102.344ZM183.809 102.219C183.809 102.062 183.793 101.906 183.762 101.75C183.741 101.583 183.694 101.432 183.621 101.297C183.559 101.151 183.465 101.036 183.34 100.953C183.215 100.859 183.059 100.812 182.871 100.812C182.621 100.812 182.356 100.896 182.075 101.062C181.804 101.219 181.601 101.401 181.465 101.609C181.413 101.693 181.382 101.828 181.371 102.016C181.361 102.203 181.356 102.344 181.356 102.438C181.356 102.51 181.356 102.609 181.356 102.734C181.366 102.849 181.377 102.969 181.387 103.094C181.397 103.219 181.408 103.339 181.418 103.453C181.439 103.568 181.465 103.656 181.496 103.719C181.528 103.812 181.595 103.901 181.7 103.984C181.804 104.057 181.918 104.125 182.043 104.188C182.168 104.25 182.293 104.297 182.418 104.328C182.554 104.359 182.668 104.375 182.762 104.375C182.981 104.375 183.158 104.292 183.293 104.125C183.429 103.958 183.533 103.76 183.606 103.531C183.689 103.302 183.741 103.068 183.762 102.828C183.793 102.578 183.809 102.375 183.809 102.219ZM189.965 107.453C189.434 107.453 188.97 107.312 188.575 107.031C188.179 106.75 187.845 106.391 187.575 105.953C187.304 105.516 187.101 105.031 186.965 104.5C186.83 103.958 186.762 103.427 186.762 102.906C186.762 102.354 186.83 101.786 186.965 101.203C187.101 100.609 187.309 100.073 187.59 99.5938C187.871 99.1042 188.231 98.7083 188.668 98.4062C189.106 98.0938 189.627 97.9375 190.231 97.9375C190.814 97.9375 191.309 98.099 191.715 98.4219C192.132 98.7344 192.465 99.1302 192.715 99.6094C192.965 100.078 193.142 100.594 193.246 101.156C193.351 101.719 193.387 102.25 193.356 102.75C193.325 103.302 193.236 103.859 193.09 104.422C192.955 104.984 192.752 105.49 192.481 105.938C192.21 106.385 191.866 106.75 191.45 107.031C191.033 107.312 190.538 107.453 189.965 107.453ZM190.121 100.391C189.965 100.391 189.825 100.474 189.7 100.641C189.585 100.807 189.486 101.01 189.403 101.25C189.33 101.49 189.272 101.745 189.231 102.016C189.189 102.276 189.168 102.505 189.168 102.703C189.168 102.953 189.189 103.224 189.231 103.516C189.283 103.807 189.351 104.078 189.434 104.328C189.517 104.568 189.616 104.771 189.731 104.938C189.856 105.094 189.996 105.172 190.153 105.172C190.319 105.172 190.46 105.094 190.575 104.938C190.7 104.781 190.799 104.583 190.871 104.344C190.944 104.104 190.996 103.844 191.028 103.562C191.059 103.271 191.075 103 191.075 102.75C191.075 102.521 191.054 102.271 191.012 102C190.97 101.719 190.908 101.458 190.825 101.219C190.752 100.979 190.653 100.781 190.528 100.625C190.413 100.469 190.278 100.391 190.121 100.391Z" fill="white"/>
<defs>
<filter id="filter0_i_695_198" x="0" y="50" width="249" height="112.048" filterUnits="userSpaceOnUse" color-interpolation-filters="sRGB">
<feFlood flood-opacity="0" result="BackgroundImageFix"/>
<feBlend mode="normal" in="SourceGraphic" in2="BackgroundImageFix" result="shape"/>
<feColorMatrix in="SourceAlpha" type="matrix" values="0 0 0 0 0 0 0 0 0 0 0 0 0 0 0 0 0 0 127 0" result="hardAlpha"/>
<feOffset dy="4"/>
<feGaussianBlur stdDeviation="2"/>
<feComposite in2="hardAlpha" operator="arithmetic" k2="-1" k3="1"/>
<feColorMatrix type="matrix" values="0 0 0 0 0 0 0 0 0 0 0 0 0 0 0 0 0 0 0.25 0"/>
<feBlend mode="normal" in2="shape" result="effect1_innerShadow_695_198"/>
</filter>
</defs>
</svg>
