<svg xmlns="http://www.w3.org/2000/svg" width="296" height="173" fill="none" viewBox="0 0 296 173"><g filter="url(#a)"><path fill="#f4719c" fill-rule="evenodd" d="M67.4 84.42c14.671 4.973 34.266 8.337 55.853 10.295 42.259 3.834 117.332 3.441 137.285-5.825 10.604-4.925 23.84-12.217 27.073-26.213 2.112-9.147.935-18.672-1.534-25.925-6.163-18.104-21.506-24.63-37.031-28.8C231.966 3.363 171.861 1 148.805 1 95.465 1 60.794 7.582 48.234 25.808c-5.665 8.219-6.922 22.013-4.019 32.936C29.752 67.376 11.311 79.351 0 86.877l52.245-13.589c3.889 4.317 8.958 8.165 15.155 11.133" clip-rule="evenodd"/></g><path fill="#f4719c" d="m123.253 94.715-.091.996zM67.4 84.421l-.432.902a1 1 0 0 0 .111.045zm193.138 4.469.421.907zm27.073-26.213.974.225zm-1.534-25.925-.947.322zm-37.031-28.8-.26.965zM48.234 25.808l.823.567zm-4.019 32.936.513.86a1 1 0 0 0 .454-1.116zM0 86.877l-.554-.832a1 1 0 0 0 .806 1.8zm52.245-13.589.744-.669a1 1 0 0 0-.995-.299zM-2.363 87.251a1 1 0 0 0 1.112 1.662zm2.917.459a1 1 0 1 0-1.108-1.665zm122.789 6.01c-21.552-1.956-41.058-5.31-55.622-10.246l-.642 1.894c14.78 5.008 34.463 8.382 56.083 10.343zm136.774-5.737c-4.833 2.244-13.127 3.993-23.626 5.273-10.463 1.275-23.006 2.071-36.26 2.46-26.51.776-55.803-.084-76.888-1.997l-.181 1.992c21.175 1.92 50.548 2.782 77.127 2.004 13.291-.39 25.899-1.189 36.444-2.474 10.51-1.28 19.082-3.055 24.226-5.444zm26.519-25.53c-3.111 13.47-15.88 20.589-26.519 25.53l.842 1.814c10.569-4.909 24.272-12.374 27.626-26.895zm-1.506-25.379c2.422 7.112 3.569 16.446 1.506 25.378l1.949.45c2.162-9.362.956-19.079-1.561-26.473zM248.786 8.917c15.469 4.156 30.354 10.562 36.344 28.157l1.894-.645c-6.337-18.612-22.137-25.257-37.719-29.443zM148.805 2c11.505 0 32.275.59 52.304 1.754 20.073 1.166 39.257 2.901 47.677 5.163l.519-1.931c-8.659-2.326-28.067-4.066-48.08-5.23C181.166.593 160.356 0 148.805 0zM49.057 26.375c6.068-8.805 17.577-14.928 34.396-18.832C100.248 3.645 122.162 2 148.805 2V0c-26.698 0-48.789 1.646-65.804 5.595C66.009 9.54 53.902 15.82 47.41 25.24zm-3.875 32.113c-2.852-10.731-1.577-24.201 3.875-32.113L47.41 25.24c-5.876 8.527-7.115 22.645-4.16 33.761zm-1.479-.602C29.22 66.529 10.763 78.516-.554 86.045L.554 87.71c11.306-7.523 29.731-19.488 44.174-28.107zM.252 87.845l52.245-13.589-.503-1.936L-.252 85.91zm67.58-4.326c-6.085-2.915-11.047-6.685-14.843-10.9l-1.487 1.338c3.98 4.419 9.157 8.344 15.466 11.366zm-69.083 5.394q.867-.58 1.805-1.203l-1.108-1.665q-.938.624-1.809 1.206z"/><path fill="#fff" d="M91.306 29.041q0 .26-.068.547-.055.287-.192.533-.136.246-.355.41a.86.86 0 0 1-.533.164q-.48 0-.711-.164a.96.96 0 0 1-.328-.437 1.8 1.8 0 0 1-.11-.547q0-.3-.013-.56a1.1 1.1 0 0 0-.096-.424q-.068-.178-.315-.178a.66.66 0 0 0-.478.205 1.7 1.7 0 0 0-.356.506q-.15.315-.26.71-.095.398-.163.794-.055.382-.082.738a7 7 0 0 0-.028.56q0 .288.014.684.027.397.137.766.11.355.328.615.218.246.629.246.273 0 .533-.068.26-.069.52-.15.26-.097.519-.165.273-.068.547-.068.315 0 .52.26.204.245.204.56 0 .438-.273.82-.273.369-.684.657a3.3 3.3 0 0 1-.875.45q-.465.165-.847.165-.984 0-1.668-.451a3.5 3.5 0 0 1-1.108-1.135 5.3 5.3 0 0 1-.615-1.572 8.7 8.7 0 0 1-.178-1.737q0-.574.11-1.257.11-.684.328-1.368.219-.696.547-1.34.342-.642.793-1.134.45-.492 1.011-.793.575-.3 1.258-.301.67 0 1.121.342.452.328.725.848.273.505.383 1.12.11.602.11 1.149m3.145 7.356q-.697 0-1.217-.37a3.2 3.2 0 0 1-.875-.943 4.5 4.5 0 0 1-.533-1.272 5.7 5.7 0 0 1-.178-1.394q0-.725.178-1.49.177-.78.547-1.408.369-.643.943-1.04.574-.41 1.367-.41.765 0 1.299.424.547.41.875 1.04.328.614.465 1.353.136.738.096 1.394-.042.725-.233 1.463a4.7 4.7 0 0 1-.533 1.326q-.355.588-.903.957-.546.37-1.298.37m.136-6.18q-.205 0-.369.219-.15.218-.26.533-.094.315-.15.67a4 4 0 0 0-.055.601q0 .329.055.711.069.383.178.711.11.315.26.533.163.205.369.205.219 0 .369-.205.165-.205.26-.52.096-.314.136-.683.041-.383.041-.71 0-.302-.054-.657a4 4 0 0 0-.164-.684 1.5 1.5 0 0 0-.26-.52q-.15-.204-.356-.204m11.827 1.271v.711q0 .437-.028.957a10 10 0 0 1-.082 1.053q-.068.519-.219.943a2.2 2.2 0 0 1-.355.698.69.69 0 0 1-.561.273.53.53 0 0 1-.464-.246 1.9 1.9 0 0 1-.219-.602 4.4 4.4 0 0 1-.082-.697v-.56q0-.616.041-1.203.04-.588.041-1.204v-.246a2 2 0 0 0-.028-.355 1 1 0 0 0-.095-.315q-.055-.136-.178-.136-.246 0-.396.26-.151.245-.247.587a4.6 4.6 0 0 0-.136.684 12 12 0 0 0-.055.492 8 8 0 0 0-.055.533q-.014.355-.054.78a8 8 0 0 1-.11.874q-.068.438-.191.807a1.9 1.9 0 0 1-.287.588.54.54 0 0 1-.438.233.56.56 0 0 1-.506-.288 2.1 2.1 0 0 1-.259-.67 6 6 0 0 1-.11-.779q-.013-.397-.013-.615v-.451q.013-.22.013-.451v-.315a9 9 0 0 0-.013-.478q0-.275-.028-.56a4 4 0 0 0-.054-.52 1.3 1.3 0 0 0-.123-.397q-.082-.15-.192-.15-.177 0-.328.232-.15.22-.26.533-.11.3-.177.602-.055.3-.055.437v.082q0 .657.082 1.285.082.63.082 1.286 0 .383-.246.71-.246.315-.684.315a.66.66 0 0 1-.52-.232 2 2 0 0 1-.341-.63 5.3 5.3 0 0 1-.219-.833q-.068-.464-.096-.903-.027-.451-.04-.806v-.547q0-.205-.014-.602 0-.396.013-.861.028-.465.082-.943.055-.493.178-.889t.315-.643a.64.64 0 0 1 .52-.26q.355 0 .573.192.233.192.233.574 0 .083-.014.164a.7.7 0 0 1-.014.15q.151-.217.37-.437.218-.232.464-.41.26-.192.547-.3a1.45 1.45 0 0 1 .575-.124.85.85 0 0 1 .492.15q.218.151.383.383.163.22.273.479.11.26.15.492.138-.246.328-.492.206-.26.438-.451.233-.192.506-.315.287-.123.588-.123.287 0 .492.205.205.206.355.534.151.314.233.724.082.397.137.793.054.383.068.725.014.328.014.52m10.007 2.584q0 .246-.027.643a3.8 3.8 0 0 1-.109.78q-.096.368-.301.642a.68.68 0 0 1-.574.273q-.506 0-.78-.328-.273-.328-.259-.82a3.4 3.4 0 0 1-.998.601 3 3 0 0 1-1.122.219q-.397 0-.751-.191a2.47 2.47 0 0 1-1.067-1.162 1.9 1.9 0 0 1-.164-.752q0-.656.397-1.149.41-.492.998-.834a5.7 5.7 0 0 1 1.244-.56 7.4 7.4 0 0 1 1.189-.274v-.123a.5.5 0 0 0 .014-.123q0-.424-.233-.684-.232-.26-.656-.26a1.3 1.3 0 0 0-.588.124q-.246.11-.465.26a10 10 0 0 1-.437.26q-.219.108-.492.109a.76.76 0 0 1-.52-.192.64.64 0 0 1-.205-.492q0-.45.26-.82.274-.369.67-.616.41-.26.875-.396.479-.15.875-.15.369 0 .738.095.37.082.697.274.328.177.588.451.274.26.438.615.246.506.396 1.08.151.56.233 1.162.082.588.109 1.19.027.588.027 1.148m-2.187-.437-.041-.93h-.055a.1.1 0 0 0-.055-.014q-.177 0-.451.096a2 2 0 0 0-.506.246q-.246.15-.423.342a.6.6 0 0 0-.164.397q0 .19.136.26a.7.7 0 0 0 .315.068q.3 0 .642-.15.342-.165.602-.315m8.558-7.178a.56.56 0 0 1-.109.342q-.096.15-.26.273a1.6 1.6 0 0 1-.355.178 1.3 1.3 0 0 1-.356.055.84.84 0 0 1-.478-.137q-.205-.136-.205-.424 0-.205.096-.355a.9.9 0 0 1 .259-.26q.15-.11.342-.164t.369-.055q.26 0 .479.123t.218.424m.11 4.648v.41q0 .206-.014.397a12 12 0 0 0-.013.629q0 .383-.028.834-.027.45-.096.916-.054.465-.191.848a1.8 1.8 0 0 1-.369.629.78.78 0 0 1-.561.246.5.5 0 0 1-.437-.205 1.9 1.9 0 0 1-.301-.561 4.6 4.6 0 0 1-.164-.78 15 15 0 0 1-.082-.833 12 12 0 0 1-.027-.752v-1.121q0-.41.027-.875t.096-.944q.081-.478.218-.875a1.9 1.9 0 0 1 .383-.642.77.77 0 0 1 .588-.246q.369 0 .561.369.19.369.287.861t.109.985q.014.479.014.71m4.853 5.278q-.233 0-.369-.219a1.5 1.5 0 0 1-.205-.479 4 4 0 0 1-.096-.546 8 8 0 0 1 .028-1.258l.109-.82q.069-.41.11-.82.054-.411.054-.821 0-.165-.013-.356a1.5 1.5 0 0 0-.069-.355.6.6 0 0 0-.15-.287.4.4 0 0 0-.287-.11q-.123 0-.274.206-.15.191-.287.45a5 5 0 0 0-.219.507 1.3 1.3 0 0 0-.082.369v.615q.014.3.014.615v.793q-.014.246-.041.506a5 5 0 0 1-.082.506 3 3 0 0 1-.123.478 1.5 1.5 0 0 1-.219.397q-.123.164-.301.273a.8.8 0 0 1-.423.11.6.6 0 0 1-.452-.178 1.3 1.3 0 0 1-.287-.451 3.2 3.2 0 0 1-.164-.63 22 22 0 0 1-.068-.683 16 16 0 0 1-.014-.615q.014-.287.014-.451v-.643q0-.52-.027-1.025-.014-.505-.014-1.012v-.697q.013-.424.109-.82.096-.41.315-.698.219-.287.642-.287.192 0 .342.123.15.124.26.301.123.178.191.383.082.205.123.355a3 3 0 0 1 .315-.369q.191-.177.424-.314a2.23 2.23 0 0 1 1.175-.301q.697 0 1.08.342.397.329.575.834.191.492.232 1.066.04.575.041 1.04 0 .232-.041.696-.04.452-.137 1.012-.082.547-.232 1.135a7.4 7.4 0 0 1-.356 1.053q-.204.479-.492.779-.273.3-.629.3m6.659-7.903q0 .397-.274.588-.26.192-.588.37-.328.163-.601.396-.26.232-.26.697 0 .247.109.424.123.178.287.328.178.137.383.287t.369.342q.179.192.287.465.124.273.124.67 0 .574-.301 1.135a3.73 3.73 0 0 1-1.778 1.668q-.574.26-1.134.26-.232 0-.465-.042a1.3 1.3 0 0 1-.424-.123.9.9 0 0 1-.301-.26.8.8 0 0 1-.123-.45q0-.384.151-.588.15-.219.382-.342t.493-.192q.273-.068.505-.164.233-.11.383-.273.15-.165.151-.465 0-.287-.233-.588-.219-.315-.492-.656a7 7 0 0 1-.506-.752 1.8 1.8 0 0 1-.219-.875q0-.588.233-1.08.246-.507.642-.875.411-.37.93-.575a2.8 2.8 0 0 1 1.094-.218q.219 0 .424.04.218.042.382.151.165.096.26.274.11.163.11.424m6.535 3.61q0 .752-.151 1.49a4.1 4.1 0 0 1-.506 1.326 2.74 2.74 0 0 1-.957.93q-.587.355-1.476.355-.875 0-1.463-.341a2.8 2.8 0 0 1-.943-.93 4.2 4.2 0 0 1-.493-1.299 8 8 0 0 1-.136-1.477q0-.82.191-1.626.041-.22.151-.602a6 6 0 0 1 .3-.766q.192-.383.424-.656.246-.273.533-.273.274 0 .438.15t.26.383q.095.219.123.478.027.247.027.452 0 .314-.055.615-.04.3-.095.601l-.11.82a8 8 0 0 0-.027 1.286q.028.246.109.478.082.233.233.397.15.15.424.15.354 0 .56-.191.219-.191.315-.479.108-.287.136-.615.028-.329.028-.602 0-.6-.082-1.175a48 48 0 0 1-.151-1.19 1.3 1.3 0 0 1 .055-.602q.068-.204.191-.368a.9.9 0 0 1 .301-.26.74.74 0 0 1 .397-.11q.3 0 .533.22.232.204.383.546.163.329.259.752.11.41.164.82.069.397.082.752.028.356.028.56m3.39-4.375q0 .738-.068 1.49a20 20 0 0 0-.055 1.49q0 .971.055 1.942.069.97.068 1.955 0 .245-.027.56-.027.301-.137.56a1.06 1.06 0 0 1-.3.438q-.205.178-.547.178-.329 0-.575-.328a2.9 2.9 0 0 1-.396-.807q-.15-.505-.26-1.12-.096-.615-.15-1.19-.041-.588-.069-1.067a29 29 0 0 1-.013-.724q0-.26.013-.752a18 18 0 0 1 .274-2.229q.123-.6.314-1.08.192-.492.451-.793.274-.315.643-.314.301 0 .451.205.165.191.233.478.068.274.082.588.013.3.013.52m3.295-1.258a.56.56 0 0 1-.109.342q-.095.15-.26.273a1.6 1.6 0 0 1-.355.178 1.3 1.3 0 0 1-.356.055.84.84 0 0 1-.478-.137q-.205-.136-.205-.424 0-.205.095-.355a.9.9 0 0 1 .26-.26q.15-.11.342-.164.191-.055.369-.055.26 0 .479.123t.218.424m.11 4.648v.41q0 .206-.014.397-.014.233-.014.629 0 .383-.027.834t-.096.916q-.054.465-.191.848a1.8 1.8 0 0 1-.369.629.78.78 0 0 1-.561.246.5.5 0 0 1-.437-.205 1.9 1.9 0 0 1-.301-.561 4.6 4.6 0 0 1-.164-.78q-.055-.436-.082-.833a12 12 0 0 1-.028-.752v-1.121q0-.41.028-.875.027-.465.095-.944.082-.478.219-.875a1.9 1.9 0 0 1 .383-.642.77.77 0 0 1 .588-.246q.37 0 .56.369.192.369.288.861t.109.985q.014.479.014.71m4.853 5.278q-.232 0-.369-.219a1.5 1.5 0 0 1-.205-.479 4 4 0 0 1-.096-.546 8 8 0 0 1 .028-1.258l.109-.82q.069-.41.109-.82.055-.411.055-.821 0-.165-.014-.356a1.5 1.5 0 0 0-.068-.355.6.6 0 0 0-.15-.287.4.4 0 0 0-.288-.11q-.123 0-.273.206-.15.191-.287.45a5 5 0 0 0-.219.507 1.3 1.3 0 0 0-.082.369v.615q.014.3.014.615v.793q-.014.246-.041.506a5 5 0 0 1-.082.506 3 3 0 0 1-.123.478 1.5 1.5 0 0 1-.219.397q-.123.164-.301.273a.8.8 0 0 1-.424.11.6.6 0 0 1-.451-.178 1.3 1.3 0 0 1-.287-.451 3.2 3.2 0 0 1-.164-.63 22 22 0 0 1-.068-.683 16 16 0 0 1-.014-.615q.014-.287.014-.451v-.643q0-.52-.028-1.025a38 38 0 0 1-.013-1.012v-.697q.013-.424.109-.82a1.8 1.8 0 0 1 .314-.698q.22-.287.643-.287.192 0 .342.123.15.124.26.301.123.178.191.383.083.205.123.355a3 3 0 0 1 .315-.369 2.4 2.4 0 0 1 .423-.314 2.2 2.2 0 0 1 1.176-.301q.698 0 1.08.342.397.329.574.834.192.492.233 1.066.04.575.041 1.04 0 .232-.041.696-.04.452-.137 1.012a12 12 0 0 1-.232 1.135 7.6 7.6 0 0 1-.356 1.053 2.6 2.6 0 0 1-.492.779q-.273.3-.629.3m8.463-2.31q0 .245-.027.642a3.7 3.7 0 0 1-.11.78q-.095.368-.3.642a.68.68 0 0 1-.575.273q-.506 0-.779-.328t-.26-.82a3.3 3.3 0 0 1-.998.601 3 3 0 0 1-1.121.219q-.396 0-.752-.191a2.4 2.4 0 0 1-.629-.493 2.5 2.5 0 0 1-.437-.67 1.9 1.9 0 0 1-.164-.751q0-.656.396-1.149.41-.492.998-.834a5.7 5.7 0 0 1 1.244-.56 7.5 7.5 0 0 1 1.19-.274v-.123a.5.5 0 0 0 .014-.123q0-.424-.233-.684t-.656-.26a1.3 1.3 0 0 0-.588.124q-.246.11-.465.26-.22.135-.437.26-.219.108-.493.109a.76.76 0 0 1-.519-.192.64.64 0 0 1-.205-.492q0-.45.26-.82.273-.369.669-.616.411-.26.875-.396.48-.15.875-.15.37 0 .739.095.369.082.697.274.329.177.588.451.273.26.437.615.246.506.397 1.08.15.56.232 1.162.082.588.11 1.19.027.588.027 1.148m-2.187-.438-.041-.93h-.055a.1.1 0 0 0-.055-.014 1.4 1.4 0 0 0-.451.096 2 2 0 0 0-.506.246q-.246.15-.424.342a.6.6 0 0 0-.164.397q0 .19.137.26a.7.7 0 0 0 .314.068 1.6 1.6 0 0 0 .643-.15q.342-.165.602-.315m4.976 1.64q0 .22-.123.56a4 4 0 0 1-.287.67 2.3 2.3 0 0 1-.383.561q-.219.233-.424.233-.273 0-.273-.274a.8.8 0 0 1 .068-.314q.069-.15.151-.3.081-.138.15-.288a.6.6 0 0 0 .068-.273.77.77 0 0 1-.437.136.69.69 0 0 1-.533-.246.8.8 0 0 1-.219-.547q0-.437.287-.697.287-.273.725-.273.492 0 .861.26t.369.792m6.44 1.122q-.698 0-1.217-.37a3.2 3.2 0 0 1-.875-.943 4.5 4.5 0 0 1-.533-1.272 5.7 5.7 0 0 1-.178-1.394q0-.725.178-1.49.177-.78.546-1.408.37-.643.944-1.04.574-.41 1.367-.41.765 0 1.299.424.546.41.875 1.04.329.614.465 1.353.137.738.095 1.394-.04.725-.232 1.463a4.7 4.7 0 0 1-.533 1.326q-.356.588-.903.957-.546.37-1.298.37m.136-6.18q-.204 0-.369.219-.15.218-.26.533-.095.315-.15.67a4 4 0 0 0-.055.601q0 .329.055.711.069.383.178.711.11.315.259.533.165.205.37.205.218 0 .369-.205.164-.205.26-.52.095-.314.136-.683.041-.383.041-.71 0-.302-.054-.657a4 4 0 0 0-.164-.684 1.6 1.6 0 0 0-.26-.52q-.15-.204-.356-.204m11.895.533a.8.8 0 0 1-.055.287q-.123.315-.383.533a.96.96 0 0 1-.615.205q-.533 0-.725-.533a.4.4 0 0 1-.027-.15q0-.096-.014-.192v-.396a.8.8 0 0 0-.095-.3q-.068-.11-.233-.11-.232 0-.451.3a3.3 3.3 0 0 0-.369.698q-.15.396-.246.82t-.096.684q0 .204.028.506.027.287.109.56.083.273.219.479.15.19.383.191a.7.7 0 0 0 .423-.137q.205-.15.397-.342.177-.164.383-.341a.76.76 0 0 1 .492-.178q.341 0 .533.246a.85.85 0 0 1 .205.56q0 .465-.246.876a2.8 2.8 0 0 1-.615.697q-.37.287-.821.451-.45.178-.861.178-.738 0-1.258-.37a2.9 2.9 0 0 1-.82-.929 4.4 4.4 0 0 1-.451-1.244 6.4 6.4 0 0 1-.137-1.272q0-.697.192-1.504a5.6 5.6 0 0 1 .587-1.517 3.8 3.8 0 0 1 1.012-1.162q.629-.465 1.49-.465.534 0 .916.232.397.232.643.616.26.369.383.834.136.465.136.916v.136a.7.7 0 0 1-.013.137m3.363 5.647q-.697 0-1.217-.37a3.2 3.2 0 0 1-.875-.943 4.5 4.5 0 0 1-.533-1.272 5.8 5.8 0 0 1-.178-1.394q0-.725.178-1.49.178-.78.547-1.408a3.15 3.15 0 0 1 .943-1.04q.575-.41 1.368-.41.765 0 1.298.424.548.41.875 1.04.329.614.465 1.353.137.738.096 1.394-.04.725-.233 1.463a4.6 4.6 0 0 1-.533 1.326 3 3 0 0 1-.902.957q-.547.37-1.299.37m.137-6.18q-.205 0-.369.219a2.2 2.2 0 0 0-.26.533 5 5 0 0 0-.15.67 4 4 0 0 0-.055.601q0 .329.055.711.067.383.177.711.11.315.26.533.163.205.369.205.219 0 .369-.205.165-.205.26-.52.096-.314.137-.683.04-.383.041-.71 0-.302-.055-.657a3.7 3.7 0 0 0-.164-.684 1.5 1.5 0 0 0-.26-.52q-.15-.204-.355-.204m8.271.67a.9.9 0 0 1-.328-.028l-.273-.109a3 3 0 0 0-.246-.096.54.54 0 0 0-.274-.04q-.273.012-.492.15a2 2 0 0 0-.383.341 2.4 2.4 0 0 0-.287.465 2.7 2.7 0 0 0-.191.492q-.041.165-.069.506a17 17 0 0 0-.013.711q-.014.397-.014.752 0 .356-.027.56a4 4 0 0 1-.069.52 2.2 2.2 0 0 1-.177.547 1.3 1.3 0 0 1-.301.438.7.7 0 0 1-.492.177.66.66 0 0 1-.411-.136 1.3 1.3 0 0 1-.287-.356 3.3 3.3 0 0 1-.191-.533 6 6 0 0 1-.109-.615 15 15 0 0 1-.069-.656l-.027-.616v-.546q.014-.247.014-.397-.015-.479-.055-.957a18 18 0 0 1-.028-.97q0-.302.028-.67.027-.37.15-.684.123-.328.356-.547.246-.219.67-.219.232 0 .396.15t.26.37q.109.218.164.465.054.245.068.45.328-.533.739-.86.41-.343 1.066-.37.328-.014.643.069.327.067.587.246.275.164.438.437.177.273.191.643.028.437-.259.67a1.14 1.14 0 0 1-.698.246m7.424 1.039q0 .6-.137 1.326a4.6 4.6 0 0 1-.437 1.326q-.3.615-.807 1.025-.492.41-1.244.41-.191 0-.396-.027a2 2 0 0 1-.397-.095 1.4 1.4 0 0 1-.328-.178.8.8 0 0 1-.232-.315l-.123 1.97q-.015.314-.028.751 0 .438-.109.834a1.5 1.5 0 0 1-.342.67q-.233.288-.684.287-.26 0-.437-.273a2.2 2.2 0 0 1-.287-.67 8 8 0 0 1-.151-.916q-.054-.506-.068-.97-.014-.465-.014-.849v-.56q0-.916-.013-1.819-.014-.915-.014-1.831v-.506q0-.356.027-.766.028-.41.082-.848.069-.437.192-.793a1.7 1.7 0 0 1 .314-.588.58.58 0 0 1 .465-.232q.178 0 .315.11.15.095.246.26.11.15.177.327.068.178.11.328.423-.478.971-.724.56-.246 1.189-.246.656 0 1.066.369.425.369.657.916.246.546.341 1.176.096.616.096 1.12m-1.955-.11q0-.204-.041-.41a1.1 1.1 0 0 0-.123-.396.67.67 0 0 0-.246-.301.66.66 0 0 0-.41-.123q-.328 0-.698.219a1.54 1.54 0 0 0-.533.478q-.068.11-.082.356a7 7 0 0 0-.013.369v.26a43 43 0 0 1 .054.629 1 1 0 0 0 .069.232q.04.123.177.232.138.096.301.178.165.083.328.123.178.041.301.041a.57.57 0 0 0 .465-.219q.178-.218.273-.52.11-.3.137-.614a5 5 0 0 0 .041-.534m5.387 4.58q-.698 0-1.217-.369a3.2 3.2 0 0 1-.875-.943 4.5 4.5 0 0 1-.533-1.272 5.7 5.7 0 0 1-.178-1.394q0-.725.178-1.49.177-.78.547-1.408.369-.643.943-1.04.575-.41 1.367-.41.766 0 1.299.424.547.41.875 1.04.329.614.465 1.353.137.738.096 1.394-.041.725-.233 1.463a4.6 4.6 0 0 1-.533 1.326q-.356.588-.902.957-.547.37-1.299.37m.136-6.18q-.204 0-.369.22-.15.218-.259.533a5 5 0 0 0-.151.67 4 4 0 0 0-.054.601q0 .329.054.711.069.383.178.711.109.315.26.533.164.205.369.205.219 0 .369-.205.164-.205.26-.52.096-.314.136-.683.041-.383.041-.71 0-.302-.054-.657a4 4 0 0 0-.164-.684 1.6 1.6 0 0 0-.26-.52q-.15-.204-.356-.204m13.016 1.122q0 .698-.027 1.394-.013.698-.069 1.395-.04.602-.109 1.285-.068.684-.219 1.354-.15.682-.396 1.299-.246.628-.656 1.107a3 3 0 0 1-.971.766q-.575.286-1.367.287-.369 0-.834-.123a3.7 3.7 0 0 1-.862-.329 2.5 2.5 0 0 1-.683-.546 1.1 1.1 0 0 1-.274-.739q0-.314.219-.588a.76.76 0 0 1 .588-.26q.22 0 .41.069.205.082.397.178.204.095.382.164a1 1 0 0 0 .383.082q.506 0 .848-.26.342-.246.547-.642.204-.383.301-.848.109-.452.15-.861-.273.314-.643.437a2.5 2.5 0 0 1-.752.11q-.725 0-1.23-.247a2.26 2.26 0 0 1-.82-.697q-.315-.45-.465-1.04a5 5 0 0 1-.151-1.27q0-.424.082-.958a8.1 8.1 0 0 1 .711-2.146 4.5 4.5 0 0 1 .629-.916q.356-.396.793-.643.451-.246.985-.246.519 0 .916.301.41.3.478.848.15-.288.397-.56a.76.76 0 0 1 .601-.288q.192 0 .315.191.136.192.205.506.081.3.123.67.04.355.054.711.014.342.014.63zm-2.078.889q0-.205-.068-.534a3 3 0 0 0-.178-.629 1.8 1.8 0 0 0-.287-.52.53.53 0 0 0-.424-.218.82.82 0 0 0-.561.219 2 2 0 0 0-.396.533q-.164.301-.26.656a2.6 2.6 0 0 0-.082.588q0 .178.027.479.028.3.11.588.096.287.246.492t.396.205q.37 0 .643-.178t.451-.451a2.24 2.24 0 0 0 .383-1.23m8.859 1.845q0 .246-.027.643a3.8 3.8 0 0 1-.109.78q-.096.368-.301.642a.68.68 0 0 1-.574.273q-.506 0-.78-.328t-.259-.82a3.4 3.4 0 0 1-.998.601 3 3 0 0 1-1.122.219q-.396 0-.752-.191a2.47 2.47 0 0 1-1.066-1.162 1.9 1.9 0 0 1-.164-.752q0-.656.397-1.149.41-.492.998-.834a5.6 5.6 0 0 1 1.244-.56 7.4 7.4 0 0 1 1.189-.274v-.123a.5.5 0 0 0 .014-.123q0-.424-.233-.684-.232-.26-.656-.26a1.3 1.3 0 0 0-.588.124q-.246.11-.465.26a10 10 0 0 1-.437.26q-.219.108-.492.109a.76.76 0 0 1-.52-.192.64.64 0 0 1-.205-.492q0-.45.26-.82.273-.369.67-.616.41-.26.875-.396.478-.15.875-.15.369 0 .738.095.37.082.697.274.328.177.588.451.274.26.438.615.246.506.396 1.08.15.56.233 1.162.081.588.109 1.19.027.588.027 1.148m-2.187-.437-.041-.93h-.055a.1.1 0 0 0-.055-.014q-.177 0-.451.096a2 2 0 0 0-.506.246q-.246.15-.423.342a.6.6 0 0 0-.164.397q0 .19.136.26a.7.7 0 0 0 .315.068q.3 0 .642-.15.342-.165.602-.315m6.89 2.748q-.231 0-.369-.219a1.5 1.5 0 0 1-.205-.479 4 4 0 0 1-.095-.546 9 9 0 0 1-.014-.438q0-.41.041-.82l.109-.82q.068-.41.11-.82.054-.411.054-.821 0-.165-.013-.356a1.4 1.4 0 0 0-.069-.355.6.6 0 0 0-.15-.287.4.4 0 0 0-.287-.11q-.123 0-.274.206-.15.191-.287.45a5 5 0 0 0-.218.507 1.3 1.3 0 0 0-.083.369v.615q.015.3.014.615v.793q-.014.246-.041.506a4 4 0 0 1-.082.506 3 3 0 0 1-.123.478 1.5 1.5 0 0 1-.219.397q-.123.164-.3.273a.8.8 0 0 1-.424.11.6.6 0 0 1-.451-.178 1.3 1.3 0 0 1-.288-.451 3.3 3.3 0 0 1-.164-.63 22 22 0 0 1-.068-.683 16 16 0 0 1-.014-.615q.014-.287.014-.451v-.643q0-.52-.027-1.025a38 38 0 0 1-.014-1.012v-.697q.014-.424.109-.82.096-.41.315-.698.219-.287.642-.287.192 0 .342.123.15.124.26.301.123.178.191.383.083.205.123.355.137-.19.315-.369.191-.177.424-.314a2.23 2.23 0 0 1 1.175-.301q.697 0 1.081.342.396.329.574.834.191.492.232 1.066t.041 1.04q0 .232-.041.696-.04.452-.137 1.012-.082.547-.232 1.135a7.6 7.6 0 0 1-.355 1.053 2.6 2.6 0 0 1-.493.779q-.273.3-.629.3m8.86-3.924q0 .232-.014.697 0 .451-.041.957-.027.492-.082.944-.054.437-.137.642a1.5 1.5 0 0 1-.287.451.62.62 0 0 1-.478.192q-.465 0-.67-.37a2.5 2.5 0 0 1-.274-.915 8 8 0 0 1-.054-1.19q.013-.642-.014-1.19a3.5 3.5 0 0 0-.15-.915q-.124-.37-.451-.37-.452 0-.698.151a.84.84 0 0 0-.342.37 2 2 0 0 0-.123.532q-.013.3-.041.63-.026.313-.041.847-.014.532-.123 1.053a2.5 2.5 0 0 1-.369.902q-.246.37-.738.37a.6.6 0 0 1-.492-.233 1.8 1.8 0 0 1-.287-.602 5 5 0 0 1-.164-.82q-.042-.452-.055-.875v-.793q.014-.356.014-.533 0-.274.013-.903.027-.629.096-1.394.068-.78.178-1.6t.287-1.49q.178-.684.424-1.108.26-.423.601-.41.219.014.369.192.165.177.26.465.11.273.178.601.068.329.095.656.042.315.042.588.013.274.013.424a19 19 0 0 1-.055 1.422q.315-.424.834-.697a2.3 2.3 0 0 1 1.067-.274q.683 0 1.025.383.356.369.506.93.15.546.164 1.176.014.615.014 1.107m6.781 1.613q0 .246-.027.643a3.7 3.7 0 0 1-.11.78q-.095.368-.3.642a.68.68 0 0 1-.575.273q-.506 0-.779-.328t-.26-.82a3.3 3.3 0 0 1-.998.601 3 3 0 0 1-1.121.219q-.396 0-.752-.191a2.4 2.4 0 0 1-.629-.493 2.5 2.5 0 0 1-.437-.67 1.9 1.9 0 0 1-.164-.751q0-.656.396-1.149.41-.492.998-.834a5.7 5.7 0 0 1 1.244-.56 7.5 7.5 0 0 1 1.19-.274v-.123a.5.5 0 0 0 .014-.123q0-.424-.233-.684t-.656-.26a1.3 1.3 0 0 0-.588.124q-.246.11-.465.26-.218.135-.437.26-.219.108-.493.109a.76.76 0 0 1-.519-.192.64.64 0 0 1-.205-.492q0-.45.26-.82.273-.369.67-.616.41-.26.875-.396.478-.15.875-.15.369 0 .738.095.369.082.697.274.328.177.588.451.273.26.437.615.247.506.397 1.08.15.56.232 1.162.083.588.11 1.19.027.588.027 1.148m-2.187-.437-.041-.93h-.055a.1.1 0 0 0-.055-.014 1.4 1.4 0 0 0-.451.096 2 2 0 0 0-.506.246q-.246.15-.424.342a.6.6 0 0 0-.164.397q0 .19.137.26a.7.7 0 0 0 .314.068 1.6 1.6 0 0 0 .643-.15q.341-.165.602-.315m12.113.437q0 .246-.027.643-.014.396-.11.78-.096.368-.301.642a.68.68 0 0 1-.574.273q-.506 0-.779-.328t-.26-.82a3.4 3.4 0 0 1-.998.601 3 3 0 0 1-1.121.219q-.396 0-.752-.191a2.3 2.3 0 0 1-.629-.493 2.5 2.5 0 0 1-.437-.67 1.9 1.9 0 0 1-.164-.751q0-.656.396-1.149.41-.492.998-.834a5.7 5.7 0 0 1 1.244-.56 7.5 7.5 0 0 1 1.19-.274v-.123a.5.5 0 0 0 .013-.123q0-.424-.232-.684-.233-.26-.656-.26a1.3 1.3 0 0 0-.588.124q-.246.11-.465.26-.219.135-.438.26a1.1 1.1 0 0 1-.492.109.76.76 0 0 1-.519-.192.64.64 0 0 1-.205-.492q0-.45.259-.82.274-.369.67-.616.41-.26.875-.396.479-.15.875-.15.37 0 .739.095.369.082.697.274.328.177.588.451.273.26.437.615.246.506.397 1.08.15.56.232 1.162.082.588.11 1.19.027.588.027 1.148m-2.188-.437-.041-.93h-.054a.1.1 0 0 0-.055-.014 1.4 1.4 0 0 0-.451.096 2 2 0 0 0-.506.246q-.246.15-.424.342a.6.6 0 0 0-.164.397q0 .19.137.26a.7.7 0 0 0 .314.068 1.6 1.6 0 0 0 .643-.15q.342-.165.601-.315M78.919 51.566q0 .466-.3.916a3.4 3.4 0 0 1-.739.793 4.3 4.3 0 0 1-.943.56 2.5 2.5 0 0 1-.93.206q-.724 0-1.299-.355a3.4 3.4 0 0 1-.943-.93 4.5 4.5 0 0 1-.588-1.23 5 5 0 0 1-.191-1.327q0-.684.191-1.463.192-.78.574-1.435.397-.657.985-1.094.6-.437 1.422-.437.465 0 .888.164a2.15 2.15 0 0 1 1.244 1.12q.192.397.192.89 0 .642-.273 1.203a3.2 3.2 0 0 1-.725.97q-.45.41-1.04.67a3.5 3.5 0 0 1-1.202.273q.054.397.314.575.274.178.643.178.273 0 .533-.137t.506-.301q.246-.177.478-.315.246-.136.493-.136a.76.76 0 0 1 .492.178.57.57 0 0 1 .218.464m-2.214-3.35a.8.8 0 0 0-.096-.368.32.32 0 0 0-.3-.192q-.302 0-.507.164-.205.15-.342.397a2.3 2.3 0 0 0-.218.506q-.069.273-.082.505.191-.04.45-.109.275-.068.507-.178.245-.123.41-.3a.58.58 0 0 0 .178-.424m6.644 6.167q-.233 0-.369-.219a1.5 1.5 0 0 1-.205-.479 4 4 0 0 1-.096-.546 8 8 0 0 1 .027-1.258l.11-.82q.069-.41.11-.82.054-.411.054-.821 0-.165-.014-.355a1.4 1.4 0 0 0-.068-.356.6.6 0 0 0-.15-.287.4.4 0 0 0-.288-.11q-.123 0-.273.206-.15.191-.287.45a5 5 0 0 0-.219.507 1.3 1.3 0 0 0-.082.369v.615q.014.3.014.615v.793q-.014.246-.041.506a5 5 0 0 1-.082.506 3 3 0 0 1-.123.478 1.5 1.5 0 0 1-.22.397q-.122.164-.3.273a.8.8 0 0 1-.424.11.6.6 0 0 1-.45-.178 1.3 1.3 0 0 1-.288-.451 3 3 0 0 1-.164-.63q-.04-.354-.068-.683-.014-.342-.014-.615.014-.287.014-.451v-.643q0-.52-.028-1.025-.013-.506-.013-1.012v-.697q.013-.424.109-.82.096-.41.314-.698.219-.287.643-.287.192 0 .342.123.15.124.26.301.122.178.191.383.082.205.123.355.137-.19.314-.369.192-.177.424-.314a2.2 2.2 0 0 1 1.176-.301q.697 0 1.08.342.397.328.574.834.192.492.233 1.066.04.575.04 1.04 0 .231-.04.697-.04.45-.137 1.011a11 11 0 0 1-.232 1.135q-.151.575-.356 1.053-.204.479-.492.779-.273.3-.629.3m8.381-2.817q0 .466-.3.916a3.4 3.4 0 0 1-.74.793 4.3 4.3 0 0 1-.942.56 2.5 2.5 0 0 1-.93.206q-.725 0-1.299-.355a3.4 3.4 0 0 1-.943-.93 4.5 4.5 0 0 1-.588-1.23 5 5 0 0 1-.192-1.327q0-.684.192-1.463.191-.78.574-1.435.397-.657.984-1.094.601-.437 1.422-.437.465 0 .889.164a2.15 2.15 0 0 1 1.244 1.12q.192.397.192.89 0 .642-.274 1.203a3.2 3.2 0 0 1-.725.97q-.45.41-1.039.67a3.5 3.5 0 0 1-1.203.273q.055.397.315.575.273.178.642.178.274 0 .534-.137t.505-.301q.246-.177.479-.315.246-.136.492-.136a.76.76 0 0 1 .492.178.57.57 0 0 1 .219.464m-2.215-3.35a.8.8 0 0 0-.096-.368.32.32 0 0 0-.3-.192q-.301 0-.506.164-.205.15-.342.397a2.3 2.3 0 0 0-.219.506q-.068.273-.082.505.192-.04.451-.109.274-.068.506-.178.246-.123.41-.3a.58.58 0 0 0 .178-.424m7.506.67a.9.9 0 0 1-.328-.027l-.274-.109a3 3 0 0 0-.246-.096.54.54 0 0 0-.273-.04q-.274.013-.492.15a2 2 0 0 0-.383.341q-.165.205-.287.465a3 3 0 0 0-.192.492q-.04.165-.068.506-.014.33-.014.711-.013.397-.013.752 0 .356-.028.56-.014.22-.068.52a2.3 2.3 0 0 1-.178.547 1.25 1.25 0 0 1-.3.438.7.7 0 0 1-.493.177.65.65 0 0 1-.41-.136 1.3 1.3 0 0 1-.287-.356 3.3 3.3 0 0 1-.191-.533 7 7 0 0 1-.11-.615q-.04-.329-.068-.656l-.028-.616v-.546q.015-.247.014-.397a17 17 0 0 0-.055-.957 18 18 0 0 1-.027-.97q0-.302.028-.67a2.3 2.3 0 0 1 .15-.684q.123-.328.355-.547.247-.219.67-.219.232 0 .397.15t.26.37q.109.218.164.465.054.245.068.45.328-.533.738-.86.411-.343 1.067-.37.328-.014.642.069.329.068.588.246.273.164.438.437.177.273.191.643.028.437-.26.67a1.14 1.14 0 0 1-.697.246m7.355.452q0 .698-.027 1.394-.014.698-.068 1.395-.041.602-.11 1.285-.068.684-.218 1.354a8.4 8.4 0 0 1-.397 1.299q-.246.628-.656 1.107a3 3 0 0 1-.971.766q-.574.286-1.367.287-.369 0-.834-.123a3.7 3.7 0 0 1-.861-.329 2.5 2.5 0 0 1-.684-.546 1.1 1.1 0 0 1-.273-.739q0-.314.218-.588a.76.76 0 0 1 .588-.26q.22 0 .41.069.206.082.397.178.205.095.383.164a1 1 0 0 0 .383.082q.505 0 .847-.26.342-.246.547-.642.205-.383.301-.848.11-.452.15-.861-.273.314-.642.437-.356.11-.752.11-.725 0-1.23-.247a2.3 2.3 0 0 1-.821-.697q-.315-.45-.465-1.04-.15-.587-.15-1.27 0-.424.082-.958.096-.532.273-1.08.178-.546.438-1.066.273-.52.629-.916.355-.397.793-.643.45-.246.984-.246.52 0 .916.301.41.3.478.848.151-.288.397-.56a.76.76 0 0 1 .602-.288q.19 0 .314.191.136.192.205.506.083.3.123.67.041.355.055.711.013.342.013.63zm-2.078.889q0-.205-.068-.534a3 3 0 0 0-.178-.628 1.8 1.8 0 0 0-.287-.52.53.53 0 0 0-.424-.219.82.82 0 0 0-.56.219 2 2 0 0 0-.397.533q-.164.301-.259.656a2.6 2.6 0 0 0-.083.588q0 .178.028.479.028.3.109.588.096.287.246.492a.47.47 0 0 0 .397.205q.369 0 .642-.178.274-.178.452-.451.19-.273.287-.602.095-.328.095-.628m5.305-5.77a.56.56 0 0 1-.109.342q-.096.15-.26.273a1.6 1.6 0 0 1-.356.178 1.3 1.3 0 0 1-.355.055.85.85 0 0 1-.479-.137q-.204-.137-.205-.424 0-.205.096-.355a.9.9 0 0 1 .26-.26q.15-.11.342-.164.19-.055.369-.055.26 0 .478.123.219.123.219.424m.109 4.648v.41q0 .206-.013.397-.014.233-.014.629 0 .383-.027.834-.028.45-.096.916-.054.465-.191.848a1.8 1.8 0 0 1-.37.629.78.78 0 0 1-.56.246.51.51 0 0 1-.438-.205 1.9 1.9 0 0 1-.3-.561 4.6 4.6 0 0 1-.164-.78q-.055-.436-.082-.833a11 11 0 0 1-.028-.752v-1.121q0-.41.028-.875.027-.465.095-.944.082-.478.219-.875.15-.396.383-.642a.77.77 0 0 1 .588-.246q.37 0 .56.369.192.369.287.861.096.492.11.985.013.478.013.71m6.782 2.967q0 .246-.028.643a3.7 3.7 0 0 1-.109.78q-.096.368-.301.642a.68.68 0 0 1-.574.273q-.506 0-.779-.328-.274-.328-.26-.82a3.4 3.4 0 0 1-.998.601 3 3 0 0 1-1.121.219q-.397 0-.752-.191a2.3 2.3 0 0 1-.629-.493 2.5 2.5 0 0 1-.438-.67 1.9 1.9 0 0 1-.164-.751q0-.656.397-1.149.41-.492.998-.834a5.7 5.7 0 0 1 1.244-.56 7.5 7.5 0 0 1 1.189-.274v-.123a.5.5 0 0 0 .014-.123q0-.423-.232-.684-.232-.26-.657-.26-.34 0-.587.124-.247.11-.465.26-.219.135-.438.26-.219.108-.492.109a.76.76 0 0 1-.52-.192.65.65 0 0 1-.205-.492q0-.45.26-.82.274-.369.67-.616.41-.26.875-.396.479-.15.875-.15.369 0 .738.095.37.082.698.274.327.178.588.451.273.26.437.615.246.506.397 1.08.15.56.232 1.162.082.588.109 1.19.028.588.028 1.148m-2.188-.437-.041-.93h-.055a.1.1 0 0 0-.054-.014q-.178 0-.451.096a2 2 0 0 0-.506.246 2 2 0 0 0-.424.342.6.6 0 0 0-.164.397q0 .19.137.26a.7.7 0 0 0 .314.068 1.6 1.6 0 0 0 .643-.15q.341-.165.601-.315m12.66-3.992-.218 1.982a29 29 0 0 0-.151 1.969 30 30 0 0 0-.055 2.146q.014 1.012.014 2.147 0 .273-.014.67 0 .397-.095.765a1.6 1.6 0 0 1-.315.63q-.204.258-.629.259a.54.54 0 0 1-.355-.123 1.2 1.2 0 0 1-.246-.328 2.4 2.4 0 0 1-.164-.438 8 8 0 0 1-.096-.506 11 11 0 0 1-.082-1.066v-2.598q-.315.41-.82.63a2.5 2.5 0 0 1-.985.204q-.615 0-1.066-.287a2.6 2.6 0 0 1-.725-.752 3.6 3.6 0 0 1-.423-1.012 4.4 4.4 0 0 1-.137-1.066v-.082q0-.71.219-1.531.218-.834.642-1.545a4.1 4.1 0 0 1 1.08-1.176 2.5 2.5 0 0 1 1.518-.478q.465 0 .847.191.397.191.561.629.11-.315.328-.506a.86.86 0 0 1 .588-.205q.451 0 .629.3.191.288.191.643 0 .15-.013.274zm-3.144.328q-.315 0-.588.26a2.4 2.4 0 0 0-.479.615 3.6 3.6 0 0 0-.328.765 3 3 0 0 0-.109.725q0 .192.027.41.042.219.11.424.082.191.205.328a.5.5 0 0 0 .341.123q.178 0 .411-.082.246-.096.478-.232.233-.15.41-.329.178-.177.246-.341.042-.096.069-.287.027-.192.041-.397a8 8 0 0 0 .054-.738q0-.165-.082-.37a1.7 1.7 0 0 0-.191-.41 1.1 1.1 0 0 0-.287-.328.5.5 0 0 0-.328-.136m9.789 2.119q0 .752-.151 1.49-.15.738-.505 1.326a2.75 2.75 0 0 1-.957.93q-.589.355-1.477.355-.875 0-1.463-.341a2.8 2.8 0 0 1-.943-.93 4.2 4.2 0 0 1-.492-1.299 8 8 0 0 1-.137-1.477q0-.82.191-1.626a5.6 5.6 0 0 1 .451-1.367q.192-.384.424-.657.246-.273.533-.273.275 0 .438.15.164.15.26.383.096.219.123.478.027.247.027.452 0 .314-.055.615-.04.3-.095.601l-.11.82a8 8 0 0 0-.027 1.286q.028.246.109.478.083.233.233.397.15.15.424.15.355 0 .56-.191.219-.191.315-.479a2.2 2.2 0 0 0 .136-.615q.028-.329.028-.602 0-.6-.082-1.175a48 48 0 0 1-.151-1.19 1.3 1.3 0 0 1 .055-.602q.069-.204.191-.368a.9.9 0 0 1 .301-.26.74.74 0 0 1 .397-.11q.3 0 .533.22.232.204.383.546.164.329.259.752.11.41.164.82.069.397.082.752.028.356.028.56m6.562 1.476q0 .466-.3.916a3.4 3.4 0 0 1-.739.793 4.3 4.3 0 0 1-.943.56 2.5 2.5 0 0 1-.93.206q-.725 0-1.299-.355a3.4 3.4 0 0 1-.943-.93 4.5 4.5 0 0 1-.588-1.23 5 5 0 0 1-.191-1.327q0-.684.191-1.463.192-.78.574-1.435.397-.657.985-1.094.601-.437 1.422-.437.465 0 .888.164a2.15 2.15 0 0 1 1.244 1.12q.192.397.192.89 0 .642-.274 1.203a3.2 3.2 0 0 1-.724.97 3.8 3.8 0 0 1-1.039.67 3.5 3.5 0 0 1-1.203.273q.054.397.314.575.274.178.643.178.273 0 .533-.137a6 6 0 0 0 .506-.301q.246-.177.478-.315.246-.136.492-.136.274 0 .493.178a.57.57 0 0 1 .218.464m-2.215-3.35a.8.8 0 0 0-.095-.368.32.32 0 0 0-.301-.192.8.8 0 0 0-.506.164q-.205.15-.342.397a2.3 2.3 0 0 0-.218.506q-.069.273-.082.505.191-.04.451-.109a3 3 0 0 0 .506-.178q.246-.123.41-.3a.58.58 0 0 0 .177-.424m12.319 1.71q0 .6-.137 1.326a4.7 4.7 0 0 1-.437 1.326 3 3 0 0 1-.807 1.025q-.492.41-1.244.41-.192 0-.397-.027a2 2 0 0 1-.396-.095 1.4 1.4 0 0 1-.328-.178.8.8 0 0 1-.233-.315l-.123 1.97q-.014.314-.027.751 0 .438-.109.834a1.5 1.5 0 0 1-.342.67q-.233.288-.684.287-.26 0-.437-.273a2.2 2.2 0 0 1-.287-.67 8 8 0 0 1-.151-.916q-.054-.506-.068-.97-.014-.465-.014-.849v-.56q0-.916-.014-1.819-.013-.915-.013-1.831v-.506q0-.356.027-.766.028-.41.082-.848.069-.437.192-.793.122-.37.314-.587a.58.58 0 0 1 .465-.233q.177 0 .314.11.151.095.246.26.11.15.178.327.069.178.11.329.423-.48.97-.725.56-.246 1.19-.246.656 0 1.066.369.424.369.656.916.246.546.342 1.176.096.615.096 1.12m-1.955-.11q0-.204-.041-.41a1.1 1.1 0 0 0-.123-.396.67.67 0 0 0-.246-.301.67.67 0 0 0-.411-.123q-.327 0-.697.219a1.5 1.5 0 0 0-.533.478q-.069.11-.082.356a8 8 0 0 0-.014.369v.26l.028.314.027.315q.027.15.068.232.042.123.178.232.136.096.301.178.164.083.328.123.178.041.301.041a.57.57 0 0 0 .465-.219 1.6 1.6 0 0 0 .273-.52q.11-.3.137-.614a5 5 0 0 0 .041-.534m7.533-.93a.9.9 0 0 1-.328-.027l-.52-.205a.54.54 0 0 0-.273-.04q-.273.013-.492.15a2 2 0 0 0-.383.341 2.4 2.4 0 0 0-.287.465 3 3 0 0 0-.192.492q-.04.165-.068.506a17 17 0 0 0-.014.711q-.013.397-.013.752 0 .356-.028.56a5 5 0 0 1-.068.52 2.2 2.2 0 0 1-.178.547 1.25 1.25 0 0 1-.301.438.7.7 0 0 1-.492.177.65.65 0 0 1-.41-.136 1.3 1.3 0 0 1-.287-.356 3 3 0 0 1-.191-.533 7 7 0 0 1-.11-.615q-.04-.329-.068-.656l-.027-.616v-.546q.013-.247.013-.397a16 16 0 0 0-.055-.957 18 18 0 0 1-.027-.97q0-.302.027-.67.028-.37.151-.684.123-.328.355-.547.246-.219.67-.219.232 0 .397.15.164.15.26.37.108.218.164.465.054.245.068.45a3.3 3.3 0 0 1 .738-.86q.41-.343 1.067-.37.328-.014.642.069.328.068.588.246.273.164.438.437.177.273.191.643.027.437-.26.67a1.14 1.14 0 0 1-.697.246m6.891 2.68q0 .466-.301.916a3.4 3.4 0 0 1-.738.793 4.3 4.3 0 0 1-.944.56 2.5 2.5 0 0 1-.93.206q-.725 0-1.298-.355a3.4 3.4 0 0 1-.944-.93 4.5 4.5 0 0 1-.588-1.23 5 5 0 0 1-.191-1.327q0-.684.191-1.463.191-.78.575-1.435a3.8 3.8 0 0 1 .984-1.094q.601-.437 1.422-.437.465 0 .889.164a2.15 2.15 0 0 1 1.244 1.12q.19.397.191.89 0 .642-.273 1.203a3.2 3.2 0 0 1-.725.97 3.8 3.8 0 0 1-1.039.67 3.5 3.5 0 0 1-1.203.273q.054.397.314.575.274.178.643.178.273 0 .533-.137a6 6 0 0 0 .506-.301q.246-.177.478-.315.247-.136.493-.136a.76.76 0 0 1 .492.178.57.57 0 0 1 .219.464m-2.215-3.35a.8.8 0 0 0-.096-.368.32.32 0 0 0-.301-.192q-.3 0-.506.164-.204.15-.341.397a2.3 2.3 0 0 0-.219.506q-.069.273-.082.505.191-.04.451-.109a3 3 0 0 0 .506-.178q.246-.123.41-.3a.58.58 0 0 0 .178-.424m7.834.534a.8.8 0 0 1-.055.287q-.123.315-.383.533a.96.96 0 0 1-.615.205q-.533 0-.725-.533a.4.4 0 0 1-.027-.15q0-.096-.014-.192v-.396a.8.8 0 0 0-.095-.3q-.068-.11-.233-.11-.232 0-.451.3a3.3 3.3 0 0 0-.369.698q-.15.397-.246.82-.096.424-.096.684 0 .204.027.506.028.287.11.56t.219.479q.15.19.382.191a.7.7 0 0 0 .424-.137q.205-.15.397-.342.177-.164.383-.341a.76.76 0 0 1 .492-.178q.341 0 .533.246a.85.85 0 0 1 .205.56q0 .465-.246.876a2.8 2.8 0 0 1-.615.697q-.37.287-.821.451-.45.178-.861.178-.738 0-1.258-.37a2.9 2.9 0 0 1-.82-.929 4.4 4.4 0 0 1-.451-1.244 6.4 6.4 0 0 1-.137-1.272q0-.697.191-1.504a5.7 5.7 0 0 1 .588-1.517 3.8 3.8 0 0 1 1.012-1.162q.629-.465 1.49-.465.534 0 .916.232.397.232.643.616.26.369.383.834.136.465.136.916v.136a.7.7 0 0 1-.013.137m3.021-4.293a.56.56 0 0 1-.109.342q-.096.15-.26.273a1.6 1.6 0 0 1-.355.178 1.3 1.3 0 0 1-.356.055.84.84 0 0 1-.478-.137q-.205-.137-.205-.424 0-.205.095-.355a.9.9 0 0 1 .26-.26q.15-.11.342-.164.19-.055.369-.055.26 0 .478.123.219.123.219.424m.11 4.648v.41q0 .206-.014.397-.014.233-.014.629 0 .383-.027.834t-.096.916q-.054.465-.191.848a1.8 1.8 0 0 1-.369.629.78.78 0 0 1-.561.246.5.5 0 0 1-.437-.205 1.9 1.9 0 0 1-.301-.561 4.6 4.6 0 0 1-.164-.78q-.055-.436-.082-.833a12 12 0 0 1-.028-.752v-1.121q0-.41.028-.875.027-.465.095-.944.083-.478.219-.875.15-.396.383-.642a.77.77 0 0 1 .588-.246q.37 0 .56.369.192.369.288.861t.109.985q.014.478.014.71m4.976-2.624q0 .396-.273.587-.26.192-.588.37-.328.163-.602.396-.26.232-.259.697 0 .246.109.424.123.178.287.328.177.137.383.287t.369.342q.177.192.287.465.123.273.123.67 0 .574-.301 1.135a3.7 3.7 0 0 1-.752.984q-.45.424-1.025.684-.574.26-1.135.26-.233 0-.465-.042a1.3 1.3 0 0 1-.423-.123.9.9 0 0 1-.301-.26.8.8 0 0 1-.123-.45q0-.384.15-.588.15-.219.383-.342.232-.123.492-.192.273-.068.506-.164.233-.11.383-.273.15-.165.15-.465 0-.287-.232-.588-.219-.315-.492-.656a7 7 0 0 1-.506-.752 1.8 1.8 0 0 1-.219-.875q0-.588.232-1.08.246-.507.643-.875.41-.37.93-.575a2.8 2.8 0 0 1 1.093-.218q.219 0 .424.04.22.042.383.151a.7.7 0 0 1 .26.274.75.75 0 0 1 .109.423m6.358 5.591q0 .246-.028.643a3.7 3.7 0 0 1-.109.78q-.096.368-.301.642a.68.68 0 0 1-.574.273q-.506 0-.779-.328-.274-.328-.26-.82a3.4 3.4 0 0 1-.998.601 3 3 0 0 1-1.121.219q-.397 0-.752-.191a2.3 2.3 0 0 1-.629-.493 2.5 2.5 0 0 1-.438-.67 1.9 1.9 0 0 1-.164-.751q0-.656.397-1.149.41-.492.998-.834a5.7 5.7 0 0 1 1.244-.56 7.5 7.5 0 0 1 1.189-.274v-.123a.5.5 0 0 0 .014-.123q0-.423-.232-.684-.233-.26-.657-.26-.34 0-.588.124-.246.11-.464.26-.219.135-.438.26-.219.108-.492.109a.76.76 0 0 1-.52-.192.65.65 0 0 1-.205-.492q0-.45.26-.82.274-.369.67-.616.41-.26.875-.396.479-.15.875-.15.369 0 .738.095.37.082.698.274.327.178.587.451.275.26.438.615.246.506.396 1.08.151.56.233 1.162.082.588.109 1.19.028.588.028 1.148m-2.188-.437-.041-.93h-.055a.1.1 0 0 0-.054-.014q-.178 0-.451.096a2 2 0 0 0-.506.246 2 2 0 0 0-.424.342.6.6 0 0 0-.164.397q0 .19.136.26a.7.7 0 0 0 .315.068q.3 0 .643-.15.341-.165.601-.315m12.565-1.71q0 .603-.137 1.327a4.6 4.6 0 0 1-.438 1.326q-.3.615-.806 1.025-.492.41-1.244.41-.192 0-.397-.027a2 2 0 0 1-.396-.095 1.4 1.4 0 0 1-.329-.178.8.8 0 0 1-.232-.315l-.123 1.97q-.013.314-.027.751 0 .438-.11.834a1.5 1.5 0 0 1-.342.67q-.231.288-.683.287-.26 0-.438-.273a2.2 2.2 0 0 1-.287-.67 8 8 0 0 1-.15-.916 12 12 0 0 1-.068-.97q-.014-.465-.014-.849v-.56q0-.916-.014-1.819-.014-.915-.014-1.831v-.506q0-.356.028-.766.027-.41.082-.848.068-.437.191-.793.123-.37.315-.587a.58.58 0 0 1 .465-.233q.177 0 .314.11.15.095.246.26.11.15.178.327t.109.329q.424-.48.971-.725.56-.246 1.189-.246.657 0 1.067.369.423.369.656.916.246.546.342 1.176.096.615.096 1.12m-1.956-.109a2 2 0 0 0-.041-.41 1.1 1.1 0 0 0-.123-.396.66.66 0 0 0-.246-.301.66.66 0 0 0-.41-.123q-.328 0-.697.219a1.5 1.5 0 0 0-.533.478q-.069.11-.082.356a8 8 0 0 0-.014.369v.26l.027.314.028.315q.027.15.068.232.041.123.178.232.136.096.301.178.163.083.328.123.177.041.3.041a.57.57 0 0 0 .465-.219q.178-.218.274-.52.11-.3.136-.614a4 4 0 0 0 .041-.534m8.6 2.256q0 .246-.027.643a3.7 3.7 0 0 1-.11.78q-.095.368-.3.642a.68.68 0 0 1-.575.273q-.506 0-.779-.328t-.26-.82a3.3 3.3 0 0 1-.998.601 3 3 0 0 1-1.121.219q-.396 0-.752-.191a2.4 2.4 0 0 1-.629-.493 2.5 2.5 0 0 1-.437-.67 1.9 1.9 0 0 1-.164-.751q0-.656.396-1.149.41-.492.998-.834a5.7 5.7 0 0 1 1.244-.56 7.5 7.5 0 0 1 1.19-.274v-.123a.5.5 0 0 0 .014-.123q0-.423-.233-.684-.233-.26-.656-.26a1.3 1.3 0 0 0-.588.124q-.246.11-.465.26-.22.135-.437.26-.219.108-.493.109a.76.76 0 0 1-.519-.192.64.64 0 0 1-.205-.492q0-.45.26-.82.273-.369.67-.616.41-.26.875-.396.478-.15.875-.15.369 0 .738.095.369.082.697.274.328.178.588.451.273.26.437.615.247.506.397 1.08.15.56.232 1.162.083.588.11 1.19.027.588.027 1.148m-2.187-.437-.041-.93h-.055a.1.1 0 0 0-.055-.014 1.4 1.4 0 0 0-.451.096 2 2 0 0 0-.506.246q-.246.15-.424.342a.6.6 0 0 0-.164.397q0 .19.137.26a.7.7 0 0 0 .314.068 1.6 1.6 0 0 0 .643-.15q.342-.165.602-.315m7.752-2.748a.9.9 0 0 1-.329-.028l-.273-.109a3 3 0 0 0-.246-.096.54.54 0 0 0-.274-.04q-.273.013-.492.15a2 2 0 0 0-.383.341 2.4 2.4 0 0 0-.287.465 2.7 2.7 0 0 0-.191.492q-.04.165-.068.506-.014.33-.014.711-.014.397-.014.752 0 .356-.027.56a5 5 0 0 1-.068.52 2.3 2.3 0 0 1-.178.547 1.25 1.25 0 0 1-.301.438.7.7 0 0 1-.492.177.65.65 0 0 1-.41-.136 1.3 1.3 0 0 1-.287-.356 3.3 3.3 0 0 1-.192-.533 7 7 0 0 1-.109-.615q-.041-.329-.069-.656l-.027-.616v-.546q.014-.247.014-.397a17 17 0 0 0-.055-.957 18 18 0 0 1-.027-.97q0-.302.027-.67.027-.37.15-.684.123-.328.356-.547.246-.219.67-.219.233 0 .396.15.165.15.26.37.11.218.164.465.055.245.068.45.328-.533.739-.86.41-.343 1.066-.37.328-.014.643.069.328.068.588.246.273.164.437.437.178.273.192.643.027.437-.26.67a1.14 1.14 0 0 1-.697.246m6.972 3.185q0 .246-.027.643a3.7 3.7 0 0 1-.11.78q-.095.368-.3.642a.68.68 0 0 1-.575.273q-.506 0-.779-.328t-.26-.82a3.3 3.3 0 0 1-.998.601 3 3 0 0 1-1.121.219q-.396 0-.752-.191a2.4 2.4 0 0 1-.629-.493 2.5 2.5 0 0 1-.437-.67 1.9 1.9 0 0 1-.164-.751q0-.656.396-1.149.41-.492.998-.834a5.7 5.7 0 0 1 1.245-.56 7.4 7.4 0 0 1 1.189-.274v-.123a.5.5 0 0 0 .014-.123q0-.423-.233-.684-.232-.26-.656-.26a1.3 1.3 0 0 0-.588.124q-.246.11-.465.26-.218.135-.437.26-.219.108-.492.109a.76.76 0 0 1-.52-.192.64.64 0 0 1-.205-.492q0-.45.26-.82.273-.369.67-.616.41-.26.875-.396.478-.15.875-.15.369 0 .738.095.369.082.697.274.328.178.588.451.273.26.438.615.246.506.396 1.08.15.56.232 1.162.083.588.11 1.19.027.588.027 1.148m-2.187-.437-.041-.93h-.055a.1.1 0 0 0-.055-.014 1.4 1.4 0 0 0-.451.096 2 2 0 0 0-.506.246q-.246.15-.424.342a.6.6 0 0 0-.164.397q0 .19.137.26a.7.7 0 0 0 .315.068q.3 0 .642-.15.342-.165.602-.315m12.769-2.147q0 .397-.068.903-.055.492-.192 1.011a6 6 0 0 1-.341 1.012q-.205.492-.52.889-.3.383-.711.615a1.8 1.8 0 0 1-.93.232q-.56 0-1.025-.26a2.5 2.5 0 0 1-.779-.71 1.15 1.15 0 0 1-.301.656.87.87 0 0 1-.656.273q-.232 0-.397-.232a2.1 2.1 0 0 1-.246-.588 6 6 0 0 1-.15-.807 14 14 0 0 1-.055-.847q-.014-.411-.014-.738v-1.395l.028-.943q0-.233-.014-.698 0-.465.014-1.025.013-.574.054-1.162.055-.602.178-1.094t.342-.807.561-.328a.63.63 0 0 1 .464.192q.192.19.315.506.136.315.205.71.082.383.109.78.041.383.041.738.014.342.014.56 0 .042-.014.192v.738q.123-.26.356-.505.232-.247.519-.438.287-.192.602-.315.315-.122.601-.123.574 0 .957.301.397.288.629.739.233.45.329.984.095.519.095.984m-2.01.41q0-.163-.027-.355a.9.9 0 0 0-.096-.355.7.7 0 0 0-.205-.274.47.47 0 0 0-.328-.11q-.218 0-.437.096a2 2 0 0 0-.397.247q-.191.15-.355.328-.165.163-.287.328l-.137 1.217q.218.315.533.505.315.178.711.178a.66.66 0 0 0 .492-.191q.206-.192.315-.465.123-.287.164-.602a3.3 3.3 0 0 0 .054-.547m7.588-1.011a.9.9 0 0 1-.328-.028l-.273-.109a3 3 0 0 0-.246-.096.54.54 0 0 0-.274-.04q-.273.013-.492.15a2 2 0 0 0-.383.341 2.4 2.4 0 0 0-.287.465 2.7 2.7 0 0 0-.191.492q-.041.165-.069.506a17 17 0 0 0-.013.711q-.014.397-.014.752 0 .356-.027.56a4 4 0 0 1-.069.52 2.2 2.2 0 0 1-.177.547 1.3 1.3 0 0 1-.301.438.7.7 0 0 1-.492.177.66.66 0 0 1-.411-.136 1.3 1.3 0 0 1-.287-.356 3.3 3.3 0 0 1-.191-.533 6 6 0 0 1-.109-.615 15 15 0 0 1-.069-.656l-.027-.616v-.546q.014-.247.014-.397-.015-.479-.055-.957a18 18 0 0 1-.027-.97q0-.302.027-.67.027-.37.15-.684.123-.328.356-.547.246-.219.67-.219.233 0 .396.15.164.15.26.37.109.218.164.465.054.245.068.45.328-.533.739-.86.41-.343 1.066-.37.328-.014.643.069.327.068.587.246.275.164.438.437.177.273.191.643.028.437-.259.67a1.14 1.14 0 0 1-.698.246m3.418-4.43a.56.56 0 0 1-.109.342q-.095.15-.26.273a1.6 1.6 0 0 1-.355.178 1.3 1.3 0 0 1-.356.055.84.84 0 0 1-.478-.137q-.205-.137-.205-.424 0-.205.095-.355a.9.9 0 0 1 .26-.26q.15-.11.342-.164t.369-.055q.26 0 .479.123t.218.424m.11 4.648v.41q0 .206-.014.397-.014.233-.014.629 0 .383-.027.834t-.096.916q-.054.465-.191.848a1.8 1.8 0 0 1-.369.629.78.78 0 0 1-.561.246.5.5 0 0 1-.437-.205 1.9 1.9 0 0 1-.301-.561 4.6 4.6 0 0 1-.164-.78q-.055-.436-.082-.833a12 12 0 0 1-.028-.752v-1.121q0-.41.028-.875.027-.465.096-.944.081-.478.218-.875a1.9 1.9 0 0 1 .383-.642.77.77 0 0 1 .588-.246q.369 0 .561.369.19.369.287.861.095.492.109.985.014.478.014.71m4.853 5.278q-.232 0-.369-.219a1.5 1.5 0 0 1-.205-.479 4 4 0 0 1-.096-.546 8 8 0 0 1 .028-1.258l.109-.82q.069-.41.109-.82.055-.411.055-.821 0-.165-.014-.355a1.5 1.5 0 0 0-.068-.356.6.6 0 0 0-.15-.287.4.4 0 0 0-.287-.11q-.124 0-.274.206-.15.191-.287.45a5 5 0 0 0-.219.507 1.3 1.3 0 0 0-.082.369v.615q.014.3.014.615v.793q-.014.246-.041.506a5 5 0 0 1-.082.506 3 3 0 0 1-.123.478 1.5 1.5 0 0 1-.219.397q-.123.164-.301.273a.8.8 0 0 1-.424.11.6.6 0 0 1-.451-.178 1.3 1.3 0 0 1-.287-.451 3.2 3.2 0 0 1-.164-.63 22 22 0 0 1-.068-.683 16 16 0 0 1-.014-.615q.014-.287.014-.451v-.643q0-.52-.028-1.025a38 38 0 0 1-.013-1.012v-.697q.013-.424.109-.82.096-.41.315-.698.218-.287.642-.287.192 0 .342.123.15.124.26.301.123.178.191.383.083.205.123.355a3 3 0 0 1 .315-.369 2.24 2.24 0 0 1 1.599-.615q.697 0 1.08.342.397.328.574.834.192.492.233 1.066.04.575.041 1.04 0 .231-.041.697-.04.45-.137 1.011a12 12 0 0 1-.232 1.135 7.4 7.4 0 0 1-.356 1.053q-.204.479-.492.779-.273.3-.629.3m7.725-5.633a.8.8 0 0 1-.055.287q-.123.315-.383.533a.96.96 0 0 1-.615.205q-.533 0-.725-.533a.4.4 0 0 1-.027-.15q0-.096-.014-.192v-.396a.8.8 0 0 0-.095-.3q-.068-.11-.233-.11-.232 0-.451.3a3.3 3.3 0 0 0-.369.698q-.15.397-.246.82-.096.424-.096.684 0 .204.028.506.027.287.109.56t.219.479q.15.19.382.191a.7.7 0 0 0 .424-.137q.205-.15.397-.342.177-.164.383-.341a.76.76 0 0 1 .492-.178q.341 0 .533.246a.85.85 0 0 1 .205.56q0 .465-.246.876a2.8 2.8 0 0 1-.615.697q-.37.287-.821.451-.45.178-.861.178-.738 0-1.258-.37a2.9 2.9 0 0 1-.82-.929 4.4 4.4 0 0 1-.451-1.244 6.4 6.4 0 0 1-.137-1.272q0-.697.192-1.504a5.6 5.6 0 0 1 .587-1.517 3.8 3.8 0 0 1 1.012-1.162q.629-.465 1.49-.465.534 0 .916.232.397.232.643.616.26.369.383.834.136.465.136.916v.136a.7.7 0 0 1-.013.137m6.576 3.322q0 .246-.027.643a3.7 3.7 0 0 1-.11.78q-.096.368-.301.642a.68.68 0 0 1-.574.273q-.506 0-.779-.328t-.26-.82a3.3 3.3 0 0 1-.998.601 3 3 0 0 1-1.121.219q-.396 0-.752-.191a2.3 2.3 0 0 1-.629-.493 2.5 2.5 0 0 1-.437-.67 1.9 1.9 0 0 1-.164-.751q0-.656.396-1.149.41-.492.998-.834a5.7 5.7 0 0 1 1.244-.56 7.5 7.5 0 0 1 1.19-.274v-.123a.5.5 0 0 0 .013-.123q0-.423-.232-.684-.233-.26-.656-.26a1.3 1.3 0 0 0-.588.124q-.246.11-.465.26-.22.135-.437.26-.219.108-.493.109a.76.76 0 0 1-.519-.192.64.64 0 0 1-.205-.492q0-.45.259-.82.274-.369.67-.616.411-.26.875-.396.479-.15.875-.15.37 0 .739.095.369.082.697.274.328.178.588.451.273.26.437.615.247.506.397 1.08.15.56.232 1.162.082.588.11 1.19.027.588.027 1.148m-2.188-.437-.041-.93h-.054a.1.1 0 0 0-.055-.014 1.4 1.4 0 0 0-.451.096 2 2 0 0 0-.506.246q-.246.15-.424.342a.6.6 0 0 0-.164.397q0 .19.137.26a.7.7 0 0 0 .314.068 1.6 1.6 0 0 0 .643-.15q.342-.165.601-.315m7.752-2.748a.9.9 0 0 1-.328-.028l-.273-.109a3 3 0 0 0-.246-.096.54.54 0 0 0-.274-.04q-.273.013-.492.15a2 2 0 0 0-.383.341 2.4 2.4 0 0 0-.287.465 2.7 2.7 0 0 0-.191.492q-.041.165-.069.506a17 17 0 0 0-.013.711q-.014.397-.014.752 0 .356-.027.56a4 4 0 0 1-.069.52 2.2 2.2 0 0 1-.177.547 1.25 1.25 0 0 1-.301.438.7.7 0 0 1-.492.177.65.65 0 0 1-.41-.136 1.3 1.3 0 0 1-.288-.356 3.4 3.4 0 0 1-.191-.533 6 6 0 0 1-.109-.615q-.041-.329-.069-.656l-.027-.616v-.546q.014-.247.014-.397a17 17 0 0 0-.055-.957 18 18 0 0 1-.027-.97q0-.302.027-.67.027-.37.15-.684.123-.328.356-.547.246-.219.67-.219.233 0 .396.15.165.15.26.37.11.218.164.465.055.245.068.45.328-.533.739-.86.41-.343 1.066-.37.328-.014.643.069.327.068.588.246.273.164.437.437.178.273.191.643.028.437-.259.67a1.14 1.14 0 0 1-.698.246m3.131 4.388q0 .22-.123.56a4 4 0 0 1-.287.67 2.3 2.3 0 0 1-.383.561q-.219.233-.424.233-.273 0-.273-.274a.8.8 0 0 1 .068-.314q.069-.15.151-.3.082-.138.15-.288a.6.6 0 0 0 .069-.273.8.8 0 0 1-.438.136.69.69 0 0 1-.533-.246.8.8 0 0 1-.219-.547q0-.437.287-.697a1 1 0 0 1 .725-.273q.492 0 .861.26t.369.792m9.571-1.709q0 .466-.301.916a3.4 3.4 0 0 1-.738.793 4.3 4.3 0 0 1-.944.56 2.5 2.5 0 0 1-.93.206q-.725 0-1.298-.355a3.4 3.4 0 0 1-.944-.93 4.5 4.5 0 0 1-.588-1.23 5 5 0 0 1-.191-1.327q0-.684.191-1.463.191-.78.575-1.435a3.8 3.8 0 0 1 .984-1.094q.601-.437 1.422-.437.465 0 .889.164a2.15 2.15 0 0 1 1.244 1.12q.19.397.191.89 0 .642-.273 1.203a3.2 3.2 0 0 1-.725.97 3.8 3.8 0 0 1-1.039.67 3.5 3.5 0 0 1-1.203.273q.054.397.314.575.274.178.643.178.273 0 .533-.137a6 6 0 0 0 .506-.301q.246-.177.478-.315.247-.136.493-.136a.76.76 0 0 1 .492.178.57.57 0 0 1 .219.464m-2.215-3.35a.8.8 0 0 0-.096-.368.32.32 0 0 0-.301-.192q-.3 0-.506.164-.204.15-.341.397a2.3 2.3 0 0 0-.219.506q-.069.273-.082.505.191-.04.451-.109a3 3 0 0 0 .506-.178q.246-.123.41-.3a.58.58 0 0 0 .178-.424M133.593 64.482q0 .396-.273.587-.26.192-.588.37-.328.163-.602.396-.26.232-.259.697 0 .246.109.424.123.178.287.328.178.137.383.287t.369.342q.178.192.287.465.123.273.123.67 0 .574-.301 1.135a3.7 3.7 0 0 1-.752.984q-.45.424-1.025.684-.574.26-1.135.26-.233 0-.465-.042a1.3 1.3 0 0 1-.423-.123.9.9 0 0 1-.301-.26.8.8 0 0 1-.123-.45q0-.384.15-.588.15-.219.383-.342t.492-.192q.273-.068.506-.164.233-.11.383-.273t.15-.465q0-.287-.232-.588-.219-.314-.492-.656a7 7 0 0 1-.506-.752 1.8 1.8 0 0 1-.219-.875q0-.588.232-1.08.247-.507.643-.875.41-.37.93-.575a2.8 2.8 0 0 1 1.093-.218q.22 0 .424.04.22.042.383.151a.7.7 0 0 1 .26.274.75.75 0 0 1 .109.424m6.276 5.085q0 .466-.301.916a3.4 3.4 0 0 1-.738.793 4.3 4.3 0 0 1-.944.56 2.5 2.5 0 0 1-.929.206q-.725 0-1.299-.355a3.4 3.4 0 0 1-.944-.93 4.5 4.5 0 0 1-.588-1.23 5 5 0 0 1-.191-1.327q0-.684.191-1.463.191-.78.575-1.435a3.8 3.8 0 0 1 .984-1.094q.601-.437 1.422-.437.465 0 .889.164a2.15 2.15 0 0 1 1.244 1.12q.19.397.191.89 0 .642-.273 1.203a3.2 3.2 0 0 1-.725.97 3.8 3.8 0 0 1-1.039.67 3.5 3.5 0 0 1-1.203.273q.054.397.314.575.274.177.643.177.273 0 .533-.136a6 6 0 0 0 .506-.301 6 6 0 0 1 .479-.314q.246-.137.492-.137a.76.76 0 0 1 .492.178.57.57 0 0 1 .219.464m-2.215-3.35a.8.8 0 0 0-.096-.368.32.32 0 0 0-.301-.192q-.3 0-.506.164-.204.15-.341.397a2.3 2.3 0 0 0-.219.506q-.069.273-.082.505.191-.04.451-.109a3 3 0 0 0 .506-.178q.246-.123.41-.3a.58.58 0 0 0 .178-.424m14.355 1.272v.711q0 .437-.027.957a11 11 0 0 1-.082 1.053 4.7 4.7 0 0 1-.219.943 2.2 2.2 0 0 1-.355.698.69.69 0 0 1-.561.273.53.53 0 0 1-.465-.246 2 2 0 0 1-.218-.602 4.4 4.4 0 0 1-.082-.697v-.56q0-.615.041-1.204.04-.587.041-1.203v-.246q0-.177-.028-.355a1 1 0 0 0-.096-.315q-.054-.136-.177-.136-.246 0-.397.26-.15.245-.246.587a4.6 4.6 0 0 0-.137.684q-.04.328-.054.492a8 8 0 0 0-.055.533q-.013.355-.055.78a8 8 0 0 1-.109.874q-.069.438-.191.807a1.9 1.9 0 0 1-.287.588.54.54 0 0 1-.438.233.56.56 0 0 1-.506-.288 2.1 2.1 0 0 1-.26-.67 6 6 0 0 1-.109-.779q-.014-.397-.014-.615v-.451q.014-.219.014-.451v-.315q0-.219-.014-.478 0-.275-.027-.56a4 4 0 0 0-.055-.52 1.3 1.3 0 0 0-.123-.397q-.081-.15-.191-.15-.178 0-.328.232a2.2 2.2 0 0 0-.26.533 5 5 0 0 0-.178.602 3 3 0 0 0-.054.437v.082q0 .657.082 1.285.082.63.082 1.286 0 .383-.246.71-.247.315-.684.315a.66.66 0 0 1-.52-.232 2.1 2.1 0 0 1-.341-.63 5 5 0 0 1-.219-.833q-.069-.464-.096-.903-.027-.451-.041-.806v-.547q0-.205-.014-.602 0-.396.014-.861.028-.465.082-.943.055-.493.178-.889t.314-.643a.64.64 0 0 1 .52-.26q.355 0 .574.192.233.192.233.574 0 .083-.014.164a1 1 0 0 1-.014.15q.15-.217.369-.437.219-.232.465-.41.26-.191.547-.3.287-.124.574-.124.274 0 .492.15.22.15.383.383.165.22.274.479.11.26.15.492.137-.246.328-.492.206-.26.438-.451.232-.192.506-.315.287-.123.587-.123.288 0 .493.205.204.206.355.534.15.314.233.724.082.397.136.793.055.383.069.725.013.328.013.52m3.5 4.909q-.697 0-1.217-.37a3.2 3.2 0 0 1-.875-.943 4.6 4.6 0 0 1-.533-1.272 5.8 5.8 0 0 1-.177-1.394q0-.725.177-1.49.178-.78.547-1.409.37-.642.944-1.038.573-.41 1.367-.41.765 0 1.299.423.546.41.875 1.04.327.614.464 1.353.137.738.096 1.394-.041.725-.232 1.463a4.7 4.7 0 0 1-.534 1.326 3 3 0 0 1-.902.957q-.546.37-1.299.37m.137-6.18q-.206 0-.369.219-.15.218-.26.533a5 5 0 0 0-.15.67 4 4 0 0 0-.055.601q0 .328.055.711.068.383.177.711.11.314.26.533.165.205.369.205.219 0 .369-.205.165-.204.26-.52.096-.314.137-.683.04-.383.041-.71 0-.301-.055-.657a3.7 3.7 0 0 0-.164-.684 1.5 1.5 0 0 0-.26-.52q-.15-.204-.355-.204m9.42.889a69 69 0 0 1-.779 1.968 19 19 0 0 1-.916 1.914q-.301.547-.67.916a1.2 1.2 0 0 1-.848.356q-.383 0-.752-.383a6 6 0 0 1-.67-.93q-.3-.546-.533-1.094-.219-.56-.328-.888-.11-.369-.246-.793a14 14 0 0 1-.246-.861 10 10 0 0 1-.178-.862 5 5 0 0 1-.068-.82q0-.533.191-.875t.752-.342q.219 0 .396.137.178.123.329.355.15.233.287.547.136.3.259.67.123.355.233.738.11.384.219.739.108.356.218.697.123.328.315.656l.219-.56.259-.67q.15-.356.315-.725.164-.383.355-.738.37-.739.779-1.258.424-.52.834-.52.384 0 .547.233.165.232.164.602 0 .368-.123.833-.123.466-.314.958m3.172-4.649a.57.57 0 0 1-.11.342q-.095.15-.259.273-.165.11-.356.178a1.3 1.3 0 0 1-.355.055.84.84 0 0 1-.479-.137q-.205-.137-.205-.424 0-.205.096-.355a.9.9 0 0 1 .26-.26q.15-.11.341-.164a1.4 1.4 0 0 1 .37-.055q.26 0 .478.123.219.123.219.424m.109 4.649v.41q0 .204-.014.396a12 12 0 0 0-.013.629q0 .382-.028.834-.027.45-.095.916-.055.465-.192.848a1.8 1.8 0 0 1-.369.629.78.78 0 0 1-.56.246.51.51 0 0 1-.438-.205 1.9 1.9 0 0 1-.301-.561 5 5 0 0 1-.164-.78q-.054-.436-.082-.833a12 12 0 0 1-.027-.752v-1.121q0-.41.027-.875.028-.465.096-.944.082-.478.219-.875.15-.396.383-.642a.77.77 0 0 1 .587-.246q.37 0 .561.369t.287.861.109.984q.015.479.014.712m9.27.382v.711q0 .437-.028.957a10 10 0 0 1-.082 1.053q-.068.519-.218.943a2.2 2.2 0 0 1-.356.698.69.69 0 0 1-.56.273.53.53 0 0 1-.465-.246 2 2 0 0 1-.219-.602 4.4 4.4 0 0 1-.082-.697v-.56q0-.615.041-1.204.04-.587.041-1.203v-.246q0-.177-.027-.355a1.1 1.1 0 0 0-.096-.315q-.055-.136-.178-.136-.246 0-.396.26-.151.245-.246.587-.096.342-.137.684-.041.328-.055.492a8 8 0 0 0-.054.533q-.015.355-.055.78a8 8 0 0 1-.11.874q-.068.438-.191.807a1.9 1.9 0 0 1-.287.588.53.53 0 0 1-.438.233.56.56 0 0 1-.505-.288 2.1 2.1 0 0 1-.26-.67 6 6 0 0 1-.11-.779q-.013-.397-.013-.615v-.451q.013-.219.013-.451v-.315a9 9 0 0 0-.013-.478q0-.275-.028-.56a4 4 0 0 0-.054-.52 1.3 1.3 0 0 0-.123-.397q-.083-.15-.192-.15-.177 0-.328.232-.15.22-.26.533-.11.3-.177.602-.055.3-.055.437v.082q0 .657.082 1.285.082.63.082 1.286 0 .383-.246.71-.246.315-.684.315a.66.66 0 0 1-.519-.232 2 2 0 0 1-.342-.63 5.4 5.4 0 0 1-.219-.833q-.068-.464-.095-.903-.028-.451-.041-.806v-.547q0-.205-.014-.602 0-.396.014-.861.027-.465.082-.943.054-.493.177-.889t.315-.643a.63.63 0 0 1 .519-.26q.356 0 .575.192.232.192.232.574 0 .083-.014.164a1 1 0 0 1-.013.15q.15-.217.369-.437.219-.232.465-.41.26-.191.546-.3a1.45 1.45 0 0 1 .575-.124.85.85 0 0 1 .492.15q.219.15.383.383.163.22.273.479.11.26.15.492.138-.246.329-.492.204-.26.437-.451.233-.192.506-.315.286-.123.588-.123.287 0 .492.205.205.206.356.534.15.314.232.724.082.397.137.793.054.383.068.725.014.328.014.52m6.631 2.078q0 .466-.301.916a3.4 3.4 0 0 1-.739.793 4.3 4.3 0 0 1-.943.56 2.5 2.5 0 0 1-.93.206q-.725 0-1.298-.355a3.4 3.4 0 0 1-.944-.93 4.5 4.5 0 0 1-.588-1.23 5 5 0 0 1-.191-1.327q0-.684.191-1.463.191-.78.575-1.435a3.8 3.8 0 0 1 .984-1.094q.602-.437 1.422-.437.465 0 .889.164a2.15 2.15 0 0 1 1.244 1.12q.19.397.191.89 0 .642-.273 1.203a3.2 3.2 0 0 1-.725.97 3.8 3.8 0 0 1-1.039.67 3.5 3.5 0 0 1-1.203.273q.054.397.314.575.274.177.643.177.273 0 .533-.136a6 6 0 0 0 .506-.301q.246-.177.478-.314a1 1 0 0 1 .493-.137.76.76 0 0 1 .492.178.57.57 0 0 1 .219.464m-2.215-3.35a.8.8 0 0 0-.096-.368.32.32 0 0 0-.301-.192q-.3 0-.506.164-.204.15-.341.397a2.3 2.3 0 0 0-.219.506q-.069.273-.082.505.191-.04.451-.109a3 3 0 0 0 .506-.178q.246-.123.41-.3a.58.58 0 0 0 .178-.424m6.644 6.167q-.232 0-.369-.219a1.5 1.5 0 0 1-.205-.478 4 4 0 0 1-.096-.547 8 8 0 0 1 .028-1.258l.109-.82q.069-.41.109-.82.055-.411.055-.821 0-.165-.014-.356a1.4 1.4 0 0 0-.068-.355.6.6 0 0 0-.15-.287.4.4 0 0 0-.287-.11q-.124 0-.274.206-.15.191-.287.45a5 5 0 0 0-.219.507 1.3 1.3 0 0 0-.082.369v.615q.014.3.014.615v.793q-.014.246-.041.506a5 5 0 0 1-.082.506 3 3 0 0 1-.123.478 1.5 1.5 0 0 1-.219.397q-.123.164-.301.273a.8.8 0 0 1-.424.11.6.6 0 0 1-.451-.178 1.3 1.3 0 0 1-.287-.451 3.2 3.2 0 0 1-.164-.63 22 22 0 0 1-.068-.683 16 16 0 0 1-.014-.615q.014-.287.014-.451v-.643q0-.52-.028-1.025a38 38 0 0 1-.013-1.012v-.697q.013-.424.109-.82.096-.41.315-.698.218-.287.642-.287.192 0 .342.123t.26.301q.123.178.191.383.083.205.123.355a3 3 0 0 1 .315-.369q.191-.177.423-.314a2.24 2.24 0 0 1 1.176-.301q.697 0 1.08.342.397.328.575.834.191.492.232 1.066.04.575.041 1.04 0 .231-.041.697-.04.45-.137 1.011-.082.547-.232 1.135a7.4 7.4 0 0 1-.356 1.053q-.204.479-.492.779-.273.3-.629.3m5.838.11q-.97 0-1.517-.26a1.76 1.76 0 0 1-.807-.712q-.26-.465-.315-1.12a18 18 0 0 1-.054-1.463q0-.643.041-1.286.04-.656.123-1.394-.192 0-.301.014h-.178q-.437 0-.752-.192a.64.64 0 0 1-.328-.588q0-.246.192-.437.177-.192.464-.328.288-.138.616-.22.342-.08.642-.109 0-.382.055-.847.054-.465.191-.861.151-.411.397-.684a.8.8 0 0 1 .629-.274q.219 0 .383.137a.9.9 0 0 1 .287.328q.109.192.164.438.054.246.054.478 0 .275-.041.56a7 7 0 0 1-.15.712q.233-.028.315-.028a1 1 0 0 1 .15-.013q.232 0 .478.04.261.042.465.138.22.095.356.26a.53.53 0 0 1 .136.368q0 .246-.205.438a1.6 1.6 0 0 1-.492.328q-.3.136-.642.219a6 6 0 0 1-.643.096q-.083.56-.123 1.038-.027.465-.068.944-.028.232-.055.478a8 8 0 0 0-.014.479q0 .178.014.424.013.233.096.45a1 1 0 0 0 .259.384q.178.15.493.15.19 0 .396-.027.206-.041.41-.041.356 0 .506.246.164.246.164.629 0 .287-.178.506-.163.204-.423.328-.261.136-.588.205-.314.068-.602.068m7.875-2.42q0 .245-.027.642a3.7 3.7 0 0 1-.11.78q-.095.368-.3.642a.68.68 0 0 1-.575.273q-.506 0-.779-.328t-.26-.82a3.3 3.3 0 0 1-.998.601 3 3 0 0 1-1.121.219q-.396 0-.752-.191a2.4 2.4 0 0 1-.629-.493 2.5 2.5 0 0 1-.437-.67 1.9 1.9 0 0 1-.164-.751q0-.656.396-1.149.41-.492.998-.834a5.7 5.7 0 0 1 1.244-.56 7.5 7.5 0 0 1 1.19-.274v-.123a.5.5 0 0 0 .014-.123q0-.423-.233-.683t-.656-.26a1.3 1.3 0 0 0-.588.123q-.246.11-.465.26-.218.135-.437.26-.219.109-.493.109a.76.76 0 0 1-.519-.192.64.64 0 0 1-.205-.492q0-.45.26-.82.273-.369.67-.615.41-.26.875-.397.478-.15.875-.15.369 0 .738.095.369.082.697.274.328.178.588.451.273.26.438.615.246.506.396 1.08.15.56.232 1.162.083.588.11 1.19.027.588.027 1.148m-2.187-.438-.041-.93h-.055a.1.1 0 0 0-.055-.014 1.4 1.4 0 0 0-.451.096 2 2 0 0 0-.506.246q-.246.15-.424.342a.6.6 0 0 0-.164.397q0 .19.137.26a.7.7 0 0 0 .314.068 1.6 1.6 0 0 0 .643-.15q.342-.165.602-.315m7.752-2.748a.9.9 0 0 1-.329-.028l-.273-.109a3 3 0 0 0-.246-.096.54.54 0 0 0-.274-.04q-.273.012-.492.15a2 2 0 0 0-.383.342 2.4 2.4 0 0 0-.287.464 3 3 0 0 0-.191.493q-.04.164-.068.505a17 17 0 0 0-.014.711q-.014.397-.014.752 0 .356-.027.56a5 5 0 0 1-.068.52 2.3 2.3 0 0 1-.178.547 1.25 1.25 0 0 1-.301.438.7.7 0 0 1-.492.177.65.65 0 0 1-.41-.136 1.3 1.3 0 0 1-.287-.356 3.3 3.3 0 0 1-.192-.533 7 7 0 0 1-.109-.615q-.041-.329-.069-.656l-.027-.616v-.547q.014-.246.014-.396a17 17 0 0 0-.055-.957 18 18 0 0 1-.027-.97q0-.302.027-.67.027-.37.15-.684.124-.328.356-.547.246-.219.67-.219.233 0 .396.15.165.15.26.37.11.218.164.465.055.245.069.45.327-.533.738-.86.41-.343 1.066-.37.328-.013.643.069.328.067.588.246.273.164.437.437.178.274.192.643.027.437-.26.67a1.14 1.14 0 0 1-.697.246m3.144 4.457a.7.7 0 0 1-.082.328.8.8 0 0 1-.219.232 1 1 0 0 1-.287.15.9.9 0 0 1-.314.055q-.205 0-.451-.082a1.6 1.6 0 0 1-.438-.205 1.6 1.6 0 0 1-.328-.314.7.7 0 0 1-.137-.424q0-.369.315-.547a1.22 1.22 0 0 1 1.066-.123q.232.069.424.205a1 1 0 0 1 .328.315.7.7 0 0 1 .123.41"/><defs><filter id="a" width="292.514" height="102" x="-2.807" y="0" color-interpolation-filters="sRGB" filterUnits="userSpaceOnUse"><feFlood flood-opacity="0" result="BackgroundImageFix"/><feBlend in="SourceGraphic" in2="BackgroundImageFix" result="shape"/><feColorMatrix in="SourceAlpha" result="hardAlpha" values="0 0 0 0 0 0 0 0 0 0 0 0 0 0 0 0 0 0 127 0"/><feOffset dy="4"/><feGaussianBlur stdDeviation="2"/><feComposite in2="hardAlpha" k2="-1" k3="1" operator="arithmetic"/><feColorMatrix values="0 0 0 0 0 0 0 0 0 0 0 0 0 0 0 0 0 0 0.25 0"/><feBlend in2="shape" result="effect1_innerShadow_825_177"/></filter></defs></svg>