<svg width="210" height="115" viewBox="0 0 210 115" fill="none" xmlns="http://www.w3.org/2000/svg">
<g filter="url(#filter0_i_825_176)">
<path fill-rule="evenodd" clip-rule="evenodd" d="M30.2623 73.0387C10.1879 65.5413 1.42575 54.4764 1.42575 42.5006C1.42575 27.7654 19.0986 13.2088 48.3343 6.01144C62.5146 2.52047 79.1753 1 98.3176 1C156.926 1 210.975 16.0342 208.668 42.5006C208.668 55.6329 198.665 67.7088 178.292 74.918C167.184 78.8488 153.131 81.1704 135.548 81.8842C128.632 95.623 118.51 102.697 101.903 113.893C114.082 100.844 121.543 92.4309 124.243 82.1206C123.933 82.1215 123.622 82.1219 123.311 82.1219C81.7695 84.4719 50.3519 80.5418 30.2623 73.0387Z" fill="#F4719C"/>
</g>
<path d="M30.2623 73.0387L30.6122 72.1019L30.2623 73.0387ZM48.3343 6.01144L48.0953 5.04043L48.3343 6.01144ZM208.668 42.5006L207.672 42.4138C207.669 42.4426 207.668 42.4716 207.668 42.5006H208.668ZM178.292 74.918L177.959 73.9753L178.292 74.918ZM135.548 81.8842L135.508 80.8851C135.145 80.8998 134.818 81.1102 134.655 81.4346L135.548 81.8842ZM101.903 113.893L101.172 113.211C100.825 113.583 100.812 114.156 101.142 114.542C101.472 114.929 102.04 115.007 102.462 114.722L101.903 113.893ZM124.243 82.1206L125.21 82.374C125.289 82.0737 125.224 81.754 125.034 81.5085C124.844 81.2631 124.551 81.1198 124.24 81.1206L124.243 82.1206ZM123.311 82.1219V81.1219C123.292 81.1219 123.273 81.1225 123.254 81.1235L123.311 82.1219ZM0.425751 42.5006C0.425751 55.0821 9.65946 66.4114 29.9125 73.9755L30.6122 72.1019C10.7164 64.6712 2.42575 53.8708 2.42575 42.5006H0.425751ZM48.0953 5.04043C33.3819 8.66264 21.5119 14.1513 13.2965 20.6448C5.09282 27.1291 0.425751 34.711 0.425751 42.5006H2.42575C2.42575 35.555 6.5951 28.491 14.5367 22.2139C22.4667 15.9459 34.051 10.5577 48.5734 6.98245L48.0953 5.04043ZM98.3176 0C79.1285 0 62.3809 1.52352 48.0953 5.04043L48.5734 6.98245C62.6483 3.51742 79.222 2 98.3176 2V0ZM209.664 42.5874C210.276 35.5728 207.13 29.3849 201.313 24.1099C195.513 18.8509 187 14.4352 176.661 10.8798C155.973 3.76524 127.69 0 98.3176 0V2C127.554 2 155.6 5.75187 176.011 12.7711C186.222 16.2824 194.451 20.5878 199.969 25.5914C205.469 30.5789 208.214 36.1952 207.672 42.4138L209.664 42.5874ZM178.626 75.8607C199.195 68.5819 209.668 56.2376 209.668 42.5006H207.668C207.668 55.0281 198.134 66.8356 177.959 73.9753L178.626 75.8607ZM135.589 82.8834C153.23 82.1673 167.391 79.8364 178.626 75.8607L177.959 73.9753C166.977 77.8612 153.032 80.1736 135.508 80.8851L135.589 82.8834ZM134.655 81.4346C127.873 94.9069 117.977 101.851 101.344 113.064L102.462 114.722C119.043 103.544 129.391 96.3391 136.441 82.3339L134.655 81.4346ZM102.634 114.575C114.766 101.576 122.434 92.9755 125.21 82.374L123.276 81.8673C120.652 91.8864 113.397 100.112 101.172 113.211L102.634 114.575ZM123.311 83.1219C123.623 83.1219 123.935 83.1215 124.246 83.1206L124.24 81.1206C123.931 81.1215 123.621 81.1219 123.311 81.1219V83.1219ZM29.9125 73.9755C50.1843 81.5466 81.7576 85.4742 123.367 83.1203L123.254 81.1235C81.7814 83.4696 50.5195 79.5369 30.6122 72.1019L29.9125 73.9755Z" fill="#F4719C"/>
<path d="M34.8459 39.7306C34.2899 39.7306 33.8068 39.5893 33.3967 39.3067C32.9865 39.0333 32.6447 38.6642 32.3713 38.1993C32.107 37.7254 31.9064 37.1785 31.7697 36.5587C31.6421 35.9389 31.5783 35.2872 31.5783 34.6036C31.5783 33.9656 31.6467 33.3185 31.7834 32.6622C31.9292 32.006 32.148 31.4135 32.4396 30.8849C32.7313 30.3562 33.1005 29.9233 33.5471 29.586C33.9937 29.2488 34.5269 29.0802 35.1467 29.0802C35.7482 29.0802 36.2495 29.2442 36.6506 29.5724C37.0607 29.8914 37.3843 30.3106 37.6213 30.8302C37.8674 31.3406 38.0406 31.9148 38.1408 32.5528C38.2502 33.1908 38.3049 33.8289 38.3049 34.4669C38.3049 35.1778 38.232 35.8523 38.0861 36.4903C37.9494 37.1192 37.7352 37.6752 37.4436 38.1583C37.161 38.6414 36.801 39.0242 36.3635 39.3067C35.9351 39.5893 35.4292 39.7306 34.8459 39.7306ZM35.01 32.1017C34.8368 32.1017 34.6864 32.17 34.5588 32.3067C34.4403 32.4435 34.34 32.6257 34.258 32.8536C34.176 33.0724 34.1167 33.323 34.0803 33.6056C34.0438 33.879 34.0256 34.157 34.0256 34.4395C34.0256 34.7586 34.0438 35.0776 34.0803 35.3966C34.1258 35.7156 34.1896 36.0027 34.2717 36.2579C34.3537 36.5131 34.454 36.7182 34.5725 36.8731C34.7001 37.0281 34.8505 37.1056 35.0236 37.1056C35.2241 37.1056 35.3837 37.0053 35.5021 36.8048C35.6206 36.6043 35.7118 36.3627 35.7756 36.0802C35.8485 35.7976 35.8941 35.506 35.9123 35.2052C35.9396 34.9044 35.9533 34.6537 35.9533 34.4532C35.9533 34.2071 35.9351 33.9474 35.8986 33.6739C35.8713 33.4005 35.8212 33.1498 35.7482 32.922C35.6753 32.685 35.5796 32.489 35.4611 32.3341C35.3426 32.1791 35.1922 32.1017 35.01 32.1017ZM41.6271 30.9942C41.6271 31.4864 41.6044 31.9832 41.5588 32.4845C41.5223 32.9767 41.5041 33.4734 41.5041 33.9747C41.5041 34.6218 41.5223 35.269 41.5588 35.9161C41.6044 36.5632 41.6271 37.2149 41.6271 37.8712C41.6271 38.0352 41.618 38.2221 41.5998 38.4317C41.5816 38.6323 41.536 38.8191 41.4631 38.9923C41.3993 39.1655 41.299 39.3113 41.1623 39.4298C41.0256 39.5483 40.8433 39.6075 40.6154 39.6075C40.3967 39.6075 40.2053 39.4981 40.0412 39.2794C39.8863 39.0698 39.7541 38.8009 39.6447 38.4727C39.5445 38.1355 39.4579 37.7618 39.385 37.3517C39.3212 36.9415 39.271 36.545 39.2346 36.1622C39.2072 35.7703 39.1844 35.4148 39.1662 35.0958C39.1571 34.7677 39.1525 34.5261 39.1525 34.3712C39.1525 34.198 39.1571 33.9474 39.1662 33.6192C39.1844 33.2911 39.2163 32.9356 39.2619 32.5528C39.3075 32.17 39.3667 31.7826 39.4396 31.3907C39.5217 30.9897 39.6265 30.6296 39.7541 30.3106C39.8817 29.9825 40.0321 29.7182 40.2053 29.5177C40.3876 29.308 40.6018 29.2032 40.8478 29.2032C41.0484 29.2032 41.1988 29.2716 41.299 29.4083C41.4084 29.5359 41.4859 29.6954 41.5314 29.8868C41.577 30.0691 41.6044 30.2651 41.6135 30.4747C41.6226 30.6752 41.6271 30.8484 41.6271 30.9942ZM48.4768 37.3517C48.4768 37.5157 48.4676 37.7299 48.4494 37.9942C48.4403 38.2586 48.4038 38.5183 48.34 38.7735C48.2762 39.0196 48.176 39.2338 48.0393 39.4161C47.9025 39.5984 47.7111 39.6895 47.465 39.6895C47.1278 39.6895 46.868 39.5802 46.6857 39.3614C46.5034 39.1427 46.4169 38.8692 46.426 38.5411C46.1343 38.7963 45.8016 38.9968 45.4279 39.1427C45.0633 39.2885 44.6896 39.3614 44.3068 39.3614C44.0425 39.3614 43.7919 39.2976 43.5549 39.17C43.3179 39.0424 43.1083 38.8783 42.926 38.6778C42.7437 38.4773 42.5978 38.254 42.4885 38.0079C42.3791 37.7527 42.3244 37.502 42.3244 37.256C42.3244 36.8185 42.4566 36.4356 42.7209 36.1075C42.9943 35.7794 43.327 35.5014 43.7189 35.2735C44.1109 35.0365 44.5256 34.8497 44.9631 34.713C45.4097 34.5763 45.8062 34.4851 46.1525 34.4395C46.1525 34.394 46.1525 34.353 46.1525 34.3165C46.1616 34.28 46.1662 34.239 46.1662 34.1935C46.1662 33.9109 46.0887 33.683 45.9338 33.5099C45.7788 33.3367 45.5601 33.2501 45.2775 33.2501C45.0497 33.2501 44.8537 33.2911 44.6896 33.3731C44.5256 33.4461 44.3706 33.5326 44.2248 33.6329C44.079 33.724 43.9331 33.8106 43.7873 33.8927C43.6415 33.9656 43.4774 34.002 43.2951 34.002C43.0946 34.002 42.9214 33.9382 42.7756 33.8106C42.6389 33.683 42.5705 33.519 42.5705 33.3185C42.5705 33.0177 42.6571 32.7442 42.8303 32.4981C43.0126 32.252 43.2359 32.047 43.5002 31.8829C43.7736 31.7097 44.0653 31.5776 44.3752 31.4864C44.6942 31.3862 44.9859 31.336 45.2502 31.336C45.4963 31.336 45.7424 31.3679 45.9885 31.4317C46.2346 31.4864 46.467 31.5776 46.6857 31.7052C46.9045 31.8237 47.1005 31.974 47.2736 32.1563C47.4559 32.3295 47.6018 32.5346 47.7111 32.7716C47.8752 33.1088 48.0074 33.4688 48.1076 33.8517C48.2079 34.2254 48.2853 34.6127 48.34 35.0138C48.3947 35.4057 48.4312 35.8022 48.4494 36.2032C48.4676 36.5951 48.4768 36.978 48.4768 37.3517ZM46.2893 36.9142L46.2482 35.9845C46.23 35.9845 46.2118 35.9845 46.1936 35.9845C46.1753 35.9754 46.1571 35.9708 46.1389 35.9708C46.0204 35.9708 45.87 36.0027 45.6877 36.0665C45.5145 36.1212 45.3459 36.2032 45.1818 36.3126C45.0178 36.4129 44.8765 36.5268 44.758 36.6544C44.6486 36.782 44.5939 36.9142 44.5939 37.0509C44.5939 37.1785 44.6395 37.2651 44.7307 37.3106C44.8218 37.3562 44.9266 37.379 45.0451 37.379C45.2456 37.379 45.4598 37.3289 45.6877 37.2286C45.9156 37.1192 46.1161 37.0144 46.2893 36.9142ZM46.9455 28.9298C46.9455 29.03 46.9182 29.1303 46.8635 29.2306C46.8088 29.3217 46.7404 29.4083 46.6584 29.4903C46.5855 29.5724 46.5034 29.6498 46.4123 29.7227C46.3212 29.7865 46.2391 29.8458 46.1662 29.9005C46.1024 29.9461 46.0295 30.0007 45.9475 30.0645C45.8745 30.1192 45.7925 30.1739 45.7014 30.2286C45.6193 30.2742 45.5327 30.3152 45.4416 30.3517C45.3596 30.3881 45.2775 30.4063 45.1955 30.4063C45.1226 30.4063 45.0588 30.3881 45.0041 30.3517C44.9494 30.3061 44.9221 30.2423 44.9221 30.1602C44.9221 30.0235 44.9722 29.8595 45.0725 29.6681C45.1818 29.4675 45.314 29.2761 45.4689 29.0938C45.6239 28.9024 45.788 28.7429 45.9611 28.6153C46.1343 28.4786 46.2938 28.4102 46.4396 28.4102C46.5672 28.4102 46.6812 28.4649 46.7814 28.5743C46.8908 28.6746 46.9455 28.7931 46.9455 28.9298ZM51.2658 38.5548C51.2658 38.7006 51.2248 38.8875 51.1428 39.1153C51.0699 39.3432 50.9741 39.5665 50.8557 39.7852C50.7463 40.004 50.6187 40.1908 50.4728 40.3458C50.327 40.5007 50.1857 40.5782 50.049 40.5782C49.8667 40.5782 49.7756 40.4871 49.7756 40.3048C49.7756 40.1954 49.7984 40.0906 49.8439 39.9903C49.8895 39.8901 49.9396 39.7898 49.9943 39.6895C50.049 39.5984 50.0991 39.5027 50.1447 39.4024C50.1903 39.3113 50.2131 39.2201 50.2131 39.129C50.0764 39.2201 49.9305 39.2657 49.7756 39.2657C49.5659 39.2657 49.3882 39.1837 49.2424 39.0196C49.0965 38.8556 49.0236 38.6733 49.0236 38.4727C49.0236 38.1811 49.1193 37.9487 49.3107 37.7755C49.5021 37.5932 49.7437 37.502 50.0353 37.502C50.3635 37.502 50.6506 37.5886 50.8967 37.7618C51.1428 37.935 51.2658 38.1993 51.2658 38.5548ZM60.8361 36.8458C60.8361 37.1557 60.7359 37.461 60.5353 37.7618C60.3439 38.0535 60.0978 38.3178 59.7971 38.5548C59.5054 38.7826 59.1909 38.9695 58.8537 39.1153C58.5165 39.252 58.2066 39.3204 57.924 39.3204C57.4409 39.3204 57.008 39.2019 56.6252 38.9649C56.2515 38.7188 55.937 38.4089 55.6818 38.0352C55.4266 37.6615 55.2307 37.2514 55.0939 36.8048C54.9663 36.349 54.9025 35.907 54.9025 35.4786C54.9025 35.0229 54.9663 34.5352 55.0939 34.0157C55.2215 33.4962 55.413 33.0177 55.6682 32.5802C55.9325 32.1427 56.2606 31.7781 56.6525 31.4864C57.0536 31.1948 57.5275 31.0489 58.0744 31.0489C58.3843 31.0489 58.6805 31.1036 58.9631 31.213C59.2456 31.3132 59.4917 31.4591 59.7014 31.6505C59.911 31.8419 60.0796 32.0698 60.2072 32.3341C60.3348 32.5984 60.3986 32.8946 60.3986 33.2227C60.3986 33.6511 60.3075 34.0522 60.1252 34.4259C59.9429 34.7996 59.7014 35.1231 59.4006 35.3966C59.0998 35.67 58.7534 35.8933 58.3615 36.0665C57.9696 36.2306 57.5686 36.3217 57.1584 36.3399C57.1949 36.6043 57.2997 36.7957 57.4728 36.9142C57.6551 37.0326 57.8693 37.0919 58.1154 37.0919C58.2977 37.0919 58.4755 37.0463 58.6486 36.9552C58.8218 36.864 58.9904 36.7638 59.1545 36.6544C59.3186 36.5359 59.4781 36.4311 59.633 36.3399C59.7971 36.2488 59.9611 36.2032 60.1252 36.2032C60.3075 36.2032 60.4715 36.2625 60.6174 36.381C60.7632 36.4994 60.8361 36.6544 60.8361 36.8458ZM58.6213 33.4962C58.6213 33.3777 58.5894 33.2546 58.5256 33.127C58.4618 32.9994 58.3615 32.9356 58.2248 32.9356C58.0243 32.9356 57.8557 32.9903 57.7189 33.0997C57.5822 33.2 57.4683 33.3321 57.3771 33.4962C57.286 33.6511 57.2131 33.8198 57.1584 34.002C57.1128 34.1843 57.0855 34.353 57.0764 34.5079C57.204 34.4806 57.3544 34.4441 57.5275 34.3985C57.7098 34.353 57.8784 34.2937 58.0334 34.2208C58.1975 34.1388 58.3342 34.0385 58.4436 33.92C58.562 33.8015 58.6213 33.6602 58.6213 33.4962ZM67.3713 35.3692C67.3713 35.8705 67.3212 36.3673 67.2209 36.8595C67.1206 37.3517 66.952 37.7937 66.715 38.1856C66.4781 38.5685 66.159 38.8783 65.758 39.1153C65.3661 39.3523 64.8739 39.4708 64.2814 39.4708C63.6981 39.4708 63.2105 39.3569 62.8186 39.129C62.4266 38.892 62.1122 38.5821 61.8752 38.1993C61.6473 37.8165 61.4833 37.3836 61.383 36.9005C61.2919 36.4174 61.2463 35.9252 61.2463 35.4239C61.2463 34.877 61.3101 34.3347 61.4377 33.797C61.465 33.6511 61.5152 33.4506 61.5881 33.1954C61.6701 32.9311 61.7704 32.6759 61.8889 32.4298C62.0165 32.1746 62.1577 31.9558 62.3127 31.7735C62.4768 31.5912 62.6545 31.5001 62.8459 31.5001C63.0282 31.5001 63.174 31.5502 63.2834 31.6505C63.3928 31.7507 63.4794 31.8783 63.5432 32.0333C63.607 32.1791 63.648 32.3386 63.6662 32.5118C63.6844 32.6759 63.6936 32.8263 63.6936 32.963C63.6936 33.1726 63.6753 33.3777 63.6389 33.5782C63.6115 33.7787 63.5796 33.9793 63.5432 34.1798C63.5067 34.4532 63.4702 34.7267 63.4338 35.0001C63.4064 35.2735 63.3928 35.547 63.3928 35.8204C63.3928 35.9571 63.3973 36.1121 63.4064 36.2852C63.4247 36.4493 63.4611 36.6088 63.5158 36.7638C63.5705 36.9187 63.648 37.0509 63.7482 37.1602C63.8485 37.2605 63.9898 37.3106 64.1721 37.3106C64.409 37.3106 64.5959 37.2468 64.7326 37.1192C64.8784 36.9916 64.9833 36.8321 65.0471 36.6407C65.12 36.4493 65.1656 36.2442 65.1838 36.0255C65.202 35.8067 65.2111 35.6062 65.2111 35.4239C65.2111 35.0229 65.1838 34.631 65.1291 34.2481C65.0744 33.8562 65.0243 33.4597 64.9787 33.0587C64.9696 33.0131 64.965 32.9493 64.965 32.8673C64.965 32.7306 64.9878 32.5938 65.0334 32.4571C65.079 32.3204 65.1428 32.1974 65.2248 32.088C65.3068 31.9786 65.4071 31.892 65.5256 31.8282C65.6441 31.7553 65.7762 31.7188 65.9221 31.7188C66.1226 31.7188 66.3003 31.7918 66.4553 31.9376C66.6102 32.0743 66.7378 32.2566 66.8381 32.4845C66.9475 32.7032 67.034 32.9539 67.0978 33.2364C67.1708 33.5099 67.2255 33.7833 67.2619 34.0567C67.3075 34.3211 67.3348 34.5717 67.3439 34.8087C67.3622 35.0457 67.3713 35.2325 67.3713 35.3692ZM75.5061 31.7599C75.5061 32.0242 75.4149 32.2201 75.2326 32.3477C75.0594 32.4754 74.8635 32.5984 74.6447 32.7169C74.426 32.8263 74.2255 32.9584 74.0432 33.1134C73.87 33.2683 73.7834 33.5007 73.7834 33.8106C73.7834 33.9747 73.8199 34.116 73.8928 34.2345C73.9748 34.353 74.0705 34.4623 74.1799 34.5626C74.2984 34.6537 74.426 34.7494 74.5627 34.8497C74.6994 34.95 74.8225 35.0639 74.9318 35.1915C75.0503 35.3191 75.146 35.474 75.2189 35.6563C75.301 35.8386 75.342 36.0619 75.342 36.3263C75.342 36.7091 75.2417 37.0873 75.0412 37.461C74.8498 37.8256 74.5991 38.1537 74.2893 38.4454C73.9885 38.728 73.6467 38.9558 73.2639 39.129C72.8811 39.3022 72.5028 39.3888 72.1291 39.3888C71.9741 39.3888 71.8192 39.3751 71.6643 39.3477C71.5093 39.3295 71.368 39.2885 71.2404 39.2247C71.1219 39.1609 71.0217 39.0743 70.9396 38.9649C70.8576 38.8464 70.8166 38.6961 70.8166 38.5138C70.8166 38.2586 70.8667 38.0626 70.967 37.9259C71.0672 37.78 71.1949 37.6661 71.3498 37.5841C71.5047 37.502 71.6688 37.4382 71.842 37.3927C72.0243 37.3471 72.1929 37.2924 72.3478 37.2286C72.5028 37.1557 72.6304 37.0645 72.7307 36.9552C72.8309 36.8458 72.8811 36.6908 72.8811 36.4903C72.8811 36.2989 72.8036 36.103 72.6486 35.9024C72.5028 35.6928 72.3387 35.474 72.1564 35.2462C71.9741 35.0092 71.8055 34.7586 71.6506 34.4942C71.5047 34.2299 71.4318 33.9382 71.4318 33.6192C71.4318 33.2273 71.5093 32.8673 71.6643 32.5392C71.8283 32.2019 72.0425 31.9102 72.3068 31.6642C72.5803 31.4181 72.8902 31.2267 73.2365 31.0899C73.5829 30.9441 73.9475 30.8712 74.3303 30.8712C74.4761 30.8712 74.6174 30.8849 74.7541 30.9122C74.8999 30.9395 75.0275 30.9897 75.1369 31.0626C75.2463 31.1264 75.3329 31.2175 75.3967 31.336C75.4696 31.4454 75.5061 31.5867 75.5061 31.7599ZM78.6506 39.6759C78.1857 39.6759 77.7801 39.5528 77.4338 39.3067C77.0874 39.0606 76.7958 38.7462 76.5588 38.3634C76.3218 37.9806 76.1441 37.5567 76.0256 37.0919C75.9071 36.6179 75.8478 36.1531 75.8478 35.6974C75.8478 35.2143 75.9071 34.7175 76.0256 34.2071C76.1441 33.6876 76.3264 33.2182 76.5725 32.7989C76.8186 32.3705 77.133 32.0242 77.5158 31.7599C77.8986 31.4864 78.3544 31.3497 78.883 31.3497C79.3934 31.3497 79.8264 31.491 80.1818 31.7735C80.5464 32.047 80.8381 32.3933 81.0568 32.8126C81.2756 33.2227 81.4305 33.6739 81.5217 34.1661C81.6128 34.6583 81.6447 35.1231 81.6174 35.5606C81.59 36.0437 81.5126 36.5313 81.385 37.0235C81.2665 37.5157 81.0887 37.9578 80.8518 38.3497C80.6148 38.7416 80.314 39.0606 79.9494 39.3067C79.5848 39.5528 79.1519 39.6759 78.6506 39.6759ZM78.7873 33.4962C78.6506 33.4962 78.5275 33.5691 78.4182 33.7149C78.3179 33.8608 78.2313 34.0385 78.1584 34.2481C78.0946 34.4578 78.0445 34.6811 78.008 34.9181C77.9715 35.1459 77.9533 35.3464 77.9533 35.5196C77.9533 35.7384 77.9715 35.9754 78.008 36.2306C78.0536 36.4858 78.1128 36.7227 78.1857 36.9415C78.2587 37.1511 78.3452 37.3289 78.4455 37.4747C78.5549 37.6114 78.6779 37.6798 78.8146 37.6798C78.9605 37.6798 79.0835 37.6114 79.1838 37.4747C79.2932 37.338 79.3797 37.1648 79.4436 36.9552C79.5074 36.7455 79.5529 36.5177 79.5803 36.2716C79.6076 36.0164 79.6213 35.7794 79.6213 35.5606C79.6213 35.3601 79.6031 35.1414 79.5666 34.9044C79.5301 34.6583 79.4755 34.4304 79.4025 34.2208C79.3387 34.0112 79.2521 33.838 79.1428 33.7013C79.0425 33.5645 78.924 33.4962 78.7873 33.4962ZM88.3029 35.3692C88.3029 35.8705 88.2528 36.3673 88.1525 36.8595C88.0523 37.3517 87.8837 37.7937 87.6467 38.1856C87.4097 38.5685 87.0907 38.8783 86.6896 39.1153C86.2977 39.3523 85.8055 39.4708 85.2131 39.4708C84.6297 39.4708 84.1421 39.3569 83.7502 39.129C83.3583 38.892 83.0438 38.5821 82.8068 38.1993C82.579 37.8165 82.4149 37.3836 82.3146 36.9005C82.2235 36.4174 82.1779 35.9252 82.1779 35.4239C82.1779 34.877 82.2417 34.3347 82.3693 33.797C82.3967 33.6511 82.4468 33.4506 82.5197 33.1954C82.6018 32.9311 82.702 32.6759 82.8205 32.4298C82.9481 32.1746 83.0894 31.9558 83.2443 31.7735C83.4084 31.5912 83.5861 31.5001 83.7775 31.5001C83.9598 31.5001 84.1057 31.5502 84.215 31.6505C84.3244 31.7507 84.411 31.8783 84.4748 32.0333C84.5386 32.1791 84.5796 32.3386 84.5978 32.5118C84.6161 32.6759 84.6252 32.8263 84.6252 32.963C84.6252 33.1726 84.607 33.3777 84.5705 33.5782C84.5432 33.7787 84.5113 33.9793 84.4748 34.1798C84.4383 34.4532 84.4019 34.7267 84.3654 35.0001C84.3381 35.2735 84.3244 35.547 84.3244 35.8204C84.3244 35.9571 84.329 36.1121 84.3381 36.2852C84.3563 36.4493 84.3928 36.6088 84.4475 36.7638C84.5021 36.9187 84.5796 37.0509 84.6799 37.1602C84.7801 37.2605 84.9214 37.3106 85.1037 37.3106C85.3407 37.3106 85.5275 37.2468 85.6643 37.1192C85.8101 36.9916 85.9149 36.8321 85.9787 36.6407C86.0516 36.4493 86.0972 36.2442 86.1154 36.0255C86.1337 35.8067 86.1428 35.6062 86.1428 35.4239C86.1428 35.0229 86.1154 34.631 86.0607 34.2481C86.0061 33.8562 85.9559 33.4597 85.9103 33.0587C85.9012 33.0131 85.8967 32.9493 85.8967 32.8673C85.8967 32.7306 85.9195 32.5938 85.965 32.4571C86.0106 32.3204 86.0744 32.1974 86.1564 32.088C86.2385 31.9786 86.3387 31.892 86.4572 31.8282C86.5757 31.7553 86.7079 31.7188 86.8537 31.7188C87.0542 31.7188 87.232 31.7918 87.3869 31.9376C87.5419 32.0743 87.6695 32.2566 87.7697 32.4845C87.8791 32.7032 87.9657 32.9539 88.0295 33.2364C88.1024 33.5099 88.1571 33.7833 88.1936 34.0567C88.2391 34.3211 88.2665 34.5717 88.2756 34.8087C88.2938 35.0457 88.3029 35.2325 88.3029 35.3692ZM98.2424 37.3517C98.2424 37.5157 98.2333 37.7299 98.215 37.9942C98.2059 38.2586 98.1695 38.5183 98.1057 38.7735C98.0419 39.0196 97.9416 39.2338 97.8049 39.4161C97.6682 39.5984 97.4768 39.6895 97.2307 39.6895C96.8934 39.6895 96.6337 39.5802 96.4514 39.3614C96.2691 39.1427 96.1825 38.8692 96.1916 38.5411C95.8999 38.7963 95.5672 38.9968 95.1936 39.1427C94.829 39.2885 94.4553 39.3614 94.0725 39.3614C93.8081 39.3614 93.5575 39.2976 93.3205 39.17C93.0835 39.0424 92.8739 38.8783 92.6916 38.6778C92.5093 38.4773 92.3635 38.254 92.2541 38.0079C92.1447 37.7527 92.09 37.502 92.09 37.256C92.09 36.8185 92.2222 36.4356 92.4865 36.1075C92.76 35.7794 93.0926 35.5014 93.4846 35.2735C93.8765 35.0365 94.2912 34.8497 94.7287 34.713C95.1753 34.5763 95.5718 34.4851 95.9182 34.4395C95.9182 34.394 95.9182 34.353 95.9182 34.3165C95.9273 34.28 95.9318 34.239 95.9318 34.1935C95.9318 33.9109 95.8544 33.683 95.6994 33.5099C95.5445 33.3367 95.3257 33.2501 95.0432 33.2501C94.8153 33.2501 94.6193 33.2911 94.4553 33.3731C94.2912 33.4461 94.1363 33.5326 93.9904 33.6329C93.8446 33.724 93.6988 33.8106 93.5529 33.8927C93.4071 33.9656 93.243 34.002 93.0607 34.002C92.8602 34.002 92.687 33.9382 92.5412 33.8106C92.4045 33.683 92.3361 33.519 92.3361 33.3185C92.3361 33.0177 92.4227 32.7442 92.5959 32.4981C92.7782 32.252 93.0015 32.047 93.2658 31.8829C93.5393 31.7097 93.8309 31.5776 94.1408 31.4864C94.4598 31.3862 94.7515 31.336 95.0158 31.336C95.2619 31.336 95.508 31.3679 95.7541 31.4317C96.0002 31.4864 96.2326 31.5776 96.4514 31.7052C96.6701 31.8237 96.8661 31.974 97.0393 32.1563C97.2215 32.3295 97.3674 32.5346 97.4768 32.7716C97.6408 33.1088 97.773 33.4688 97.8732 33.8517C97.9735 34.2254 98.051 34.6127 98.1057 35.0138C98.1603 35.4057 98.1968 35.8022 98.215 36.2032C98.2333 36.5951 98.2424 36.978 98.2424 37.3517ZM96.0549 36.9142L96.0139 35.9845C95.9956 35.9845 95.9774 35.9845 95.9592 35.9845C95.9409 35.9754 95.9227 35.9708 95.9045 35.9708C95.786 35.9708 95.6356 36.0027 95.4533 36.0665C95.2801 36.1212 95.1115 36.2032 94.9475 36.3126C94.7834 36.4129 94.6421 36.5268 94.5236 36.6544C94.4143 36.782 94.3596 36.9142 94.3596 37.0509C94.3596 37.1785 94.4051 37.2651 94.4963 37.3106C94.5874 37.3562 94.6922 37.379 94.8107 37.379C95.0113 37.379 95.2255 37.3289 95.4533 37.2286C95.6812 37.1192 95.8817 37.0144 96.0549 36.9142ZM108.879 37.3927C108.879 37.6205 108.783 37.8347 108.592 38.0352C108.41 38.2358 108.168 38.4181 107.867 38.5821C107.576 38.7462 107.248 38.892 106.883 39.0196C106.518 39.1381 106.158 39.2384 105.803 39.3204C105.447 39.4115 105.11 39.4799 104.791 39.5255C104.481 39.5711 104.235 39.5938 104.053 39.5938C103.88 39.5938 103.693 39.5756 103.492 39.5392C103.301 39.5118 103.141 39.4435 103.014 39.3341C102.941 39.2794 102.877 39.1563 102.822 38.9649C102.768 38.7735 102.713 38.5457 102.658 38.2813C102.613 38.017 102.572 37.7345 102.535 37.4337C102.499 37.1238 102.467 36.823 102.44 36.5313C102.421 36.2397 102.403 35.9708 102.385 35.7247C102.376 35.4786 102.371 35.2872 102.371 35.1505C102.371 34.9226 102.376 34.6492 102.385 34.3302C102.403 34.002 102.426 33.6557 102.453 33.2911C102.481 32.9174 102.517 32.5392 102.563 32.1563C102.608 31.7735 102.658 31.4135 102.713 31.0763C102.777 30.7299 102.85 30.42 102.932 30.1466C103.023 29.8731 103.119 29.6589 103.219 29.504C103.392 29.2579 103.611 29.1349 103.875 29.1349C104.057 29.1349 104.212 29.1987 104.34 29.3263C104.468 29.4448 104.568 29.6043 104.641 29.8048C104.723 29.9962 104.782 30.2149 104.819 30.461C104.864 30.698 104.896 30.935 104.914 31.172C104.932 31.4089 104.942 31.6277 104.942 31.8282C104.942 32.0287 104.942 32.1882 104.942 32.3067C104.942 33.0177 104.923 33.724 104.887 34.4259C104.86 35.1186 104.846 35.8204 104.846 36.5313V37.0645C105.256 36.9369 105.703 36.8185 106.186 36.7091C106.669 36.5906 107.129 36.5313 107.567 36.5313C107.722 36.5313 107.876 36.5405 108.031 36.5587C108.196 36.5769 108.337 36.6179 108.455 36.6817C108.583 36.7364 108.683 36.823 108.756 36.9415C108.838 37.0509 108.879 37.2013 108.879 37.3927ZM111.477 29.7364C111.477 29.864 111.44 29.978 111.367 30.0782C111.304 30.1785 111.217 30.2696 111.108 30.3517C110.998 30.4246 110.88 30.4838 110.752 30.5294C110.625 30.5658 110.506 30.5841 110.397 30.5841C110.214 30.5841 110.055 30.5385 109.918 30.4474C109.781 30.3562 109.713 30.2149 109.713 30.0235C109.713 29.8868 109.745 29.7683 109.809 29.6681C109.882 29.5587 109.968 29.4721 110.069 29.4083C110.169 29.3354 110.283 29.2807 110.41 29.2442C110.538 29.2078 110.661 29.1895 110.779 29.1895C110.953 29.1895 111.112 29.2306 111.258 29.3126C111.404 29.3946 111.477 29.5359 111.477 29.7364ZM111.586 34.3849C111.586 34.5125 111.586 34.6492 111.586 34.795C111.586 34.9317 111.582 35.0639 111.572 35.1915C111.563 35.3464 111.559 35.5561 111.559 35.8204C111.559 36.0756 111.55 36.3536 111.531 36.6544C111.513 36.9552 111.481 37.2605 111.436 37.5704C111.399 37.8803 111.335 38.1629 111.244 38.4181C111.153 38.6733 111.03 38.8829 110.875 39.047C110.729 39.2019 110.543 39.2839 110.315 39.2931C110.141 39.3022 109.996 39.2338 109.877 39.088C109.759 38.9421 109.658 38.7553 109.576 38.5274C109.503 38.2905 109.449 38.0307 109.412 37.7481C109.376 37.4565 109.348 37.1785 109.33 36.9142C109.312 36.6407 109.303 36.3901 109.303 36.1622C109.303 35.9343 109.303 35.7657 109.303 35.6563C109.303 35.5105 109.303 35.3054 109.303 35.0411C109.303 34.7677 109.312 34.476 109.33 34.1661C109.348 33.8562 109.38 33.5418 109.426 33.2227C109.481 32.9037 109.554 32.6121 109.645 32.3477C109.745 32.0834 109.873 31.8692 110.028 31.7052C110.182 31.5411 110.378 31.4591 110.615 31.4591C110.862 31.4591 111.048 31.5821 111.176 31.8282C111.304 32.0743 111.399 32.3614 111.463 32.6895C111.527 33.0177 111.563 33.3458 111.572 33.6739C111.582 33.9929 111.586 34.2299 111.586 34.3849ZM115.742 39.7716C115.095 39.7716 114.589 39.685 114.225 39.5118C113.869 39.3477 113.6 39.1108 113.418 38.8009C113.245 38.491 113.14 38.1173 113.104 37.6798C113.067 37.2423 113.049 36.7546 113.049 36.2169C113.049 35.7885 113.063 35.3601 113.09 34.9317C113.117 34.4942 113.158 34.0294 113.213 33.5372C113.085 33.5372 112.985 33.5418 112.912 33.5509C112.839 33.5509 112.78 33.5509 112.735 33.5509C112.443 33.5509 112.192 33.4871 111.983 33.3595C111.764 33.2319 111.654 33.0359 111.654 32.7716C111.654 32.6075 111.718 32.4617 111.846 32.3341C111.964 32.2065 112.119 32.0971 112.311 32.006C112.502 31.9148 112.707 31.8419 112.926 31.7872C113.154 31.7325 113.368 31.6961 113.569 31.6778C113.569 31.4226 113.587 31.1401 113.623 30.8302C113.66 30.5203 113.723 30.2332 113.815 29.9688C113.915 29.6954 114.047 29.4675 114.211 29.2852C114.375 29.103 114.585 29.0118 114.84 29.0118C114.986 29.0118 115.113 29.0574 115.223 29.1485C115.341 29.2306 115.437 29.3399 115.51 29.4767C115.583 29.6043 115.638 29.7501 115.674 29.9142C115.71 30.0782 115.729 30.2377 115.729 30.3927C115.729 30.575 115.715 30.7618 115.688 30.9532C115.66 31.1446 115.61 31.3816 115.537 31.6642C115.692 31.6459 115.797 31.6368 115.852 31.6368C115.906 31.6277 115.957 31.6231 116.002 31.6231C116.157 31.6231 116.317 31.6368 116.481 31.6642C116.654 31.6915 116.809 31.7371 116.946 31.8009C117.091 31.8647 117.21 31.9513 117.301 32.0606C117.392 32.1609 117.438 32.2839 117.438 32.4298C117.438 32.5938 117.369 32.7397 117.233 32.8673C117.105 32.9949 116.941 33.1043 116.74 33.1954C116.54 33.2865 116.326 33.3595 116.098 33.4142C115.87 33.4597 115.656 33.4916 115.455 33.5099C115.401 33.8836 115.36 34.2299 115.332 34.5489C115.314 34.8588 115.291 35.1733 115.264 35.4923C115.246 35.6472 115.227 35.8067 115.209 35.9708C115.2 36.1257 115.196 36.2852 115.196 36.4493C115.196 36.5678 115.2 36.7091 115.209 36.8731C115.218 37.0281 115.25 37.1785 115.305 37.3243C115.36 37.4701 115.446 37.5977 115.565 37.7071C115.683 37.8074 115.847 37.8575 116.057 37.8575C116.184 37.8575 116.317 37.8484 116.453 37.8302C116.59 37.8028 116.727 37.7892 116.863 37.7892C117.1 37.7892 117.269 37.8712 117.369 38.0352C117.479 38.1993 117.533 38.4089 117.533 38.6642C117.533 38.8556 117.474 39.0242 117.356 39.17C117.246 39.3067 117.105 39.4161 116.932 39.4981C116.759 39.5893 116.563 39.6576 116.344 39.7032C116.134 39.7488 115.934 39.7716 115.742 39.7716ZM123.617 37.3517C123.617 37.5157 123.608 37.7299 123.59 37.9942C123.581 38.2586 123.544 38.5183 123.481 38.7735C123.417 39.0196 123.317 39.2338 123.18 39.4161C123.043 39.5984 122.852 39.6895 122.606 39.6895C122.268 39.6895 122.009 39.5802 121.826 39.3614C121.644 39.1427 121.557 38.8692 121.567 38.5411C121.275 38.7963 120.942 38.9968 120.569 39.1427C120.204 39.2885 119.83 39.3614 119.447 39.3614C119.183 39.3614 118.932 39.2976 118.696 39.17C118.459 39.0424 118.249 38.8783 118.067 38.6778C117.884 38.4773 117.738 38.254 117.629 38.0079C117.52 37.7527 117.465 37.502 117.465 37.256C117.465 36.8185 117.597 36.4356 117.862 36.1075C118.135 35.7794 118.468 35.5014 118.86 35.2735C119.251 35.0365 119.666 34.8497 120.104 34.713C120.55 34.5763 120.947 34.4851 121.293 34.4395C121.293 34.394 121.293 34.353 121.293 34.3165C121.302 34.28 121.307 34.239 121.307 34.1935C121.307 33.9109 121.229 33.683 121.074 33.5099C120.919 33.3367 120.701 33.2501 120.418 33.2501C120.19 33.2501 119.994 33.2911 119.83 33.3731C119.666 33.4461 119.511 33.5326 119.365 33.6329C119.22 33.724 119.074 33.8106 118.928 33.8927C118.782 33.9656 118.618 34.002 118.436 34.002C118.235 34.002 118.062 33.9382 117.916 33.8106C117.779 33.683 117.711 33.519 117.711 33.3185C117.711 33.0177 117.798 32.7442 117.971 32.4981C118.153 32.252 118.376 32.047 118.641 31.8829C118.914 31.7097 119.206 31.5776 119.516 31.4864C119.835 31.3862 120.126 31.336 120.391 31.336C120.637 31.336 120.883 31.3679 121.129 31.4317C121.375 31.4864 121.608 31.5776 121.826 31.7052C122.045 31.8237 122.241 31.974 122.414 32.1563C122.597 32.3295 122.742 32.5346 122.852 32.7716C123.016 33.1088 123.148 33.4688 123.248 33.8517C123.348 34.2254 123.426 34.6127 123.481 35.0138C123.535 35.4057 123.572 35.8022 123.59 36.2032C123.608 36.5951 123.617 36.978 123.617 37.3517ZM121.43 36.9142L121.389 35.9845C121.371 35.9845 121.352 35.9845 121.334 35.9845C121.316 35.9754 121.298 35.9708 121.279 35.9708C121.161 35.9708 121.011 36.0027 120.828 36.0665C120.655 36.1212 120.487 36.2032 120.322 36.3126C120.158 36.4129 120.017 36.5268 119.899 36.6544C119.789 36.782 119.735 36.9142 119.735 37.0509C119.735 37.1785 119.78 37.2651 119.871 37.3106C119.962 37.3562 120.067 37.379 120.186 37.379C120.386 37.379 120.6 37.3289 120.828 37.2286C121.056 37.1192 121.257 37.0144 121.43 36.9142ZM126.406 38.5548C126.406 38.7006 126.365 38.8875 126.283 39.1153C126.21 39.3432 126.115 39.5665 125.996 39.7852C125.887 40.004 125.759 40.1908 125.613 40.3458C125.468 40.5007 125.326 40.5782 125.19 40.5782C125.007 40.5782 124.916 40.4871 124.916 40.3048C124.916 40.1954 124.939 40.0906 124.985 39.9903C125.03 39.8901 125.08 39.7898 125.135 39.6895C125.19 39.5984 125.24 39.5027 125.285 39.4024C125.331 39.3113 125.354 39.2201 125.354 39.129C125.217 39.2201 125.071 39.2657 124.916 39.2657C124.707 39.2657 124.529 39.1837 124.383 39.0196C124.237 38.8556 124.164 38.6733 124.164 38.4727C124.164 38.1811 124.26 37.9487 124.451 37.7755C124.643 37.5932 124.884 37.502 125.176 37.502C125.504 37.502 125.791 37.5886 126.037 37.7618C126.283 37.935 126.406 38.1993 126.406 38.5548ZM135.977 36.8458C135.977 37.1557 135.876 37.461 135.676 37.7618C135.485 38.0535 135.238 38.3178 134.938 38.5548C134.646 38.7826 134.332 38.9695 133.994 39.1153C133.657 39.252 133.347 39.3204 133.065 39.3204C132.582 39.3204 132.149 39.2019 131.766 38.9649C131.392 38.7188 131.078 38.4089 130.822 38.0352C130.567 37.6615 130.371 37.2514 130.235 36.8048C130.107 36.349 130.043 35.907 130.043 35.4786C130.043 35.0229 130.107 34.5352 130.235 34.0157C130.362 33.4962 130.554 33.0177 130.809 32.5802C131.073 32.1427 131.401 31.7781 131.793 31.4864C132.194 31.1948 132.668 31.0489 133.215 31.0489C133.525 31.0489 133.821 31.1036 134.104 31.213C134.386 31.3132 134.632 31.4591 134.842 31.6505C135.052 31.8419 135.22 32.0698 135.348 32.3341C135.475 32.5984 135.539 32.8946 135.539 33.2227C135.539 33.6511 135.448 34.0522 135.266 34.4259C135.084 34.7996 134.842 35.1231 134.541 35.3966C134.24 35.67 133.894 35.8933 133.502 36.0665C133.11 36.2306 132.709 36.3217 132.299 36.3399C132.335 36.6043 132.44 36.7957 132.613 36.9142C132.796 37.0326 133.01 37.0919 133.256 37.0919C133.438 37.0919 133.616 37.0463 133.789 36.9552C133.962 36.864 134.131 36.7638 134.295 36.6544C134.459 36.5359 134.619 36.4311 134.774 36.3399C134.938 36.2488 135.102 36.2032 135.266 36.2032C135.448 36.2032 135.612 36.2625 135.758 36.381C135.904 36.4994 135.977 36.6544 135.977 36.8458ZM133.762 33.4962C133.762 33.3777 133.73 33.2546 133.666 33.127C133.602 32.9994 133.502 32.9356 133.365 32.9356C133.165 32.9356 132.996 32.9903 132.86 33.0997C132.723 33.2 132.609 33.3321 132.518 33.4962C132.427 33.6511 132.354 33.8198 132.299 34.002C132.253 34.1843 132.226 34.353 132.217 34.5079C132.345 34.4806 132.495 34.4441 132.668 34.3985C132.85 34.353 133.019 34.2937 133.174 34.2208C133.338 34.1388 133.475 34.0385 133.584 33.92C133.703 33.8015 133.762 33.6602 133.762 33.4962ZM142.512 35.3692C142.512 35.8705 142.462 36.3673 142.362 36.8595C142.261 37.3517 142.093 37.7937 141.856 38.1856C141.619 38.5685 141.3 38.8783 140.899 39.1153C140.507 39.3523 140.015 39.4708 139.422 39.4708C138.839 39.4708 138.351 39.3569 137.959 39.129C137.567 38.892 137.253 38.5821 137.016 38.1993C136.788 37.8165 136.624 37.3836 136.524 36.9005C136.432 36.4174 136.387 35.9252 136.387 35.4239C136.387 34.877 136.451 34.3347 136.578 33.797C136.606 33.6511 136.656 33.4506 136.729 33.1954C136.811 32.9311 136.911 32.6759 137.029 32.4298C137.157 32.1746 137.298 31.9558 137.453 31.7735C137.617 31.5912 137.795 31.5001 137.987 31.5001C138.169 31.5001 138.315 31.5502 138.424 31.6505C138.533 31.7507 138.62 31.8783 138.684 32.0333C138.748 32.1791 138.789 32.3386 138.807 32.5118C138.825 32.6759 138.834 32.8263 138.834 32.963C138.834 33.1726 138.816 33.3777 138.779 33.5782C138.752 33.7787 138.72 33.9793 138.684 34.1798C138.647 34.4532 138.611 34.7267 138.574 35.0001C138.547 35.2735 138.533 35.547 138.533 35.8204C138.533 35.9571 138.538 36.1121 138.547 36.2852C138.565 36.4493 138.602 36.6088 138.656 36.7638C138.711 36.9187 138.789 37.0509 138.889 37.1602C138.989 37.2605 139.13 37.3106 139.313 37.3106C139.55 37.3106 139.737 37.2468 139.873 37.1192C140.019 36.9916 140.124 36.8321 140.188 36.6407C140.261 36.4493 140.306 36.2442 140.324 36.0255C140.343 35.8067 140.352 35.6062 140.352 35.4239C140.352 35.0229 140.324 34.631 140.27 34.2481C140.215 33.8562 140.165 33.4597 140.119 33.0587C140.11 33.0131 140.106 32.9493 140.106 32.8673C140.106 32.7306 140.128 32.5938 140.174 32.4571C140.22 32.3204 140.283 32.1974 140.365 32.088C140.447 31.9786 140.548 31.892 140.666 31.8282C140.785 31.7553 140.917 31.7188 141.063 31.7188C141.263 31.7188 141.441 31.7918 141.596 31.9376C141.751 32.0743 141.878 32.2566 141.979 32.4845C142.088 32.7032 142.175 32.9539 142.238 33.2364C142.311 33.5099 142.366 33.7833 142.403 34.0567C142.448 34.3211 142.475 34.5717 142.485 34.8087C142.503 35.0457 142.512 35.2325 142.512 35.3692ZM152.533 34.3849C152.296 35.0138 152.037 35.67 151.754 36.3536C151.472 37.0372 151.166 37.6752 150.838 38.2677C150.638 38.6323 150.414 38.9376 150.168 39.1837C149.922 39.4207 149.64 39.5392 149.321 39.5392C149.065 39.5392 148.815 39.4115 148.569 39.1563C148.332 38.892 148.108 38.5821 147.899 38.2267C147.698 37.8621 147.52 37.4975 147.365 37.1329C147.22 36.7592 147.11 36.463 147.037 36.2442C146.964 35.9981 146.882 35.7338 146.791 35.4513C146.7 35.1687 146.618 34.8816 146.545 34.5899C146.472 34.2983 146.413 34.0112 146.367 33.7286C146.322 33.4369 146.299 33.1635 146.299 32.9083C146.299 32.5528 146.363 32.2612 146.49 32.0333C146.618 31.8054 146.869 31.6915 147.242 31.6915C147.388 31.6915 147.52 31.7371 147.639 31.8282C147.757 31.9102 147.867 32.0287 147.967 32.1837C148.067 32.3386 148.163 32.5209 148.254 32.7306C148.345 32.9311 148.432 33.1544 148.514 33.4005C148.596 33.6375 148.673 33.8836 148.746 34.1388C148.819 34.394 148.892 34.6401 148.965 34.877C149.038 35.114 149.111 35.3464 149.184 35.5743C149.266 35.7931 149.371 36.0118 149.498 36.2306C149.562 36.0665 149.635 35.8796 149.717 35.67C149.799 35.4604 149.886 35.2371 149.977 35.0001C150.077 34.7631 150.182 34.5216 150.291 34.2755C150.401 34.0203 150.519 33.7742 150.647 33.5372C150.893 33.045 151.153 32.6257 151.426 32.2794C151.709 31.933 151.987 31.7599 152.26 31.7599C152.515 31.7599 152.697 31.8373 152.807 31.9923C152.916 32.1472 152.971 32.3477 152.971 32.5938C152.971 32.8399 152.93 33.1179 152.848 33.4278C152.766 33.7377 152.661 34.0567 152.533 34.3849ZM156.047 39.6759C155.582 39.6759 155.177 39.5528 154.83 39.3067C154.484 39.0606 154.192 38.7462 153.955 38.3634C153.718 37.9806 153.541 37.5567 153.422 37.0919C153.304 36.6179 153.244 36.1531 153.244 35.6974C153.244 35.2143 153.304 34.7175 153.422 34.2071C153.541 33.6876 153.723 33.2182 153.969 32.7989C154.215 32.3705 154.529 32.0242 154.912 31.7599C155.295 31.4864 155.751 31.3497 156.279 31.3497C156.79 31.3497 157.223 31.491 157.578 31.7735C157.943 32.047 158.235 32.3933 158.453 32.8126C158.672 33.2227 158.827 33.6739 158.918 34.1661C159.009 34.6583 159.041 35.1231 159.014 35.5606C158.987 36.0437 158.909 36.5313 158.781 37.0235C158.663 37.5157 158.485 37.9578 158.248 38.3497C158.011 38.7416 157.71 39.0606 157.346 39.3067C156.981 39.5528 156.548 39.6759 156.047 39.6759ZM156.184 33.4962C156.047 33.4962 155.924 33.5691 155.815 33.7149C155.714 33.8608 155.628 34.0385 155.555 34.2481C155.491 34.4578 155.441 34.6811 155.404 34.9181C155.368 35.1459 155.35 35.3464 155.35 35.5196C155.35 35.7384 155.368 35.9754 155.404 36.2306C155.45 36.4858 155.509 36.7227 155.582 36.9415C155.655 37.1511 155.742 37.3289 155.842 37.4747C155.951 37.6114 156.074 37.6798 156.211 37.6798C156.357 37.6798 156.48 37.6114 156.58 37.4747C156.69 37.338 156.776 37.1648 156.84 36.9552C156.904 36.7455 156.949 36.5177 156.977 36.2716C157.004 36.0164 157.018 35.7794 157.018 35.5606C157.018 35.3601 157 35.1414 156.963 34.9044C156.927 34.6583 156.872 34.4304 156.799 34.2208C156.735 34.0112 156.649 33.838 156.539 33.7013C156.439 33.5645 156.32 33.4962 156.184 33.4962ZM165.699 35.3692C165.699 35.8705 165.649 36.3673 165.549 36.8595C165.449 37.3517 165.28 37.7937 165.043 38.1856C164.806 38.5685 164.487 38.8783 164.086 39.1153C163.694 39.3523 163.202 39.4708 162.61 39.4708C162.026 39.4708 161.539 39.3569 161.147 39.129C160.755 38.892 160.44 38.5821 160.203 38.1993C159.975 37.8165 159.811 37.3836 159.711 36.9005C159.62 36.4174 159.574 35.9252 159.574 35.4239C159.574 34.877 159.638 34.3347 159.766 33.797C159.793 33.6511 159.843 33.4506 159.916 33.1954C159.998 32.9311 160.098 32.6759 160.217 32.4298C160.345 32.1746 160.486 31.9558 160.641 31.7735C160.805 31.5912 160.983 31.5001 161.174 31.5001C161.356 31.5001 161.502 31.5502 161.612 31.6505C161.721 31.7507 161.807 31.8783 161.871 32.0333C161.935 32.1791 161.976 32.3386 161.994 32.5118C162.013 32.6759 162.022 32.8263 162.022 32.963C162.022 33.1726 162.003 33.3777 161.967 33.5782C161.94 33.7787 161.908 33.9793 161.871 34.1798C161.835 34.4532 161.798 34.7267 161.762 35.0001C161.735 35.2735 161.721 35.547 161.721 35.8204C161.721 35.9571 161.725 36.1121 161.735 36.2852C161.753 36.4493 161.789 36.6088 161.844 36.7638C161.899 36.9187 161.976 37.0509 162.076 37.1602C162.177 37.2605 162.318 37.3106 162.5 37.3106C162.737 37.3106 162.924 37.2468 163.061 37.1192C163.207 36.9916 163.311 36.8321 163.375 36.6407C163.448 36.4493 163.494 36.2442 163.512 36.0255C163.53 35.8067 163.539 35.6062 163.539 35.4239C163.539 35.0229 163.512 34.631 163.457 34.2481C163.403 33.8562 163.352 33.4597 163.307 33.0587C163.298 33.0131 163.293 32.9493 163.293 32.8673C163.293 32.7306 163.316 32.5938 163.362 32.4571C163.407 32.3204 163.471 32.1974 163.553 32.088C163.635 31.9786 163.735 31.892 163.854 31.8282C163.972 31.7553 164.104 31.7188 164.25 31.7188C164.451 31.7188 164.628 31.7918 164.783 31.9376C164.938 32.0743 165.066 32.2566 165.166 32.4845C165.276 32.7032 165.362 32.9539 165.426 33.2364C165.499 33.5099 165.554 33.7833 165.59 34.0567C165.636 34.3211 165.663 34.5717 165.672 34.8087C165.69 35.0457 165.699 35.2325 165.699 35.3692ZM173.014 39.7716C172.367 39.7716 171.861 39.685 171.496 39.5118C171.141 39.3477 170.872 39.1108 170.69 38.8009C170.516 38.491 170.412 38.1173 170.375 37.6798C170.339 37.2423 170.32 36.7546 170.32 36.2169C170.32 35.7885 170.334 35.3601 170.362 34.9317C170.389 34.4942 170.43 34.0294 170.485 33.5372C170.357 33.5372 170.257 33.5418 170.184 33.5509C170.111 33.5509 170.052 33.5509 170.006 33.5509C169.714 33.5509 169.464 33.4871 169.254 33.3595C169.035 33.2319 168.926 33.0359 168.926 32.7716C168.926 32.6075 168.99 32.4617 169.117 32.3341C169.236 32.2065 169.391 32.0971 169.582 32.006C169.774 31.9148 169.979 31.8419 170.197 31.7872C170.425 31.7325 170.64 31.6961 170.84 31.6778C170.84 31.4226 170.858 31.1401 170.895 30.8302C170.931 30.5203 170.995 30.2332 171.086 29.9688C171.186 29.6954 171.319 29.4675 171.483 29.2852C171.647 29.103 171.856 29.0118 172.112 29.0118C172.257 29.0118 172.385 29.0574 172.494 29.1485C172.613 29.2306 172.709 29.3399 172.781 29.4767C172.854 29.6043 172.909 29.7501 172.945 29.9142C172.982 30.0782 173 30.2377 173 30.3927C173 30.575 172.987 30.7618 172.959 30.9532C172.932 31.1446 172.882 31.3816 172.809 31.6642C172.964 31.6459 173.069 31.6368 173.123 31.6368C173.178 31.6277 173.228 31.6231 173.274 31.6231C173.429 31.6231 173.588 31.6368 173.752 31.6642C173.925 31.6915 174.08 31.7371 174.217 31.8009C174.363 31.8647 174.481 31.9513 174.572 32.0606C174.664 32.1609 174.709 32.2839 174.709 32.4298C174.709 32.5938 174.641 32.7397 174.504 32.8673C174.376 32.9949 174.212 33.1043 174.012 33.1954C173.811 33.2865 173.597 33.3595 173.369 33.4142C173.141 33.4597 172.927 33.4916 172.727 33.5099C172.672 33.8836 172.631 34.2299 172.604 34.5489C172.585 34.8588 172.563 35.1733 172.535 35.4923C172.517 35.6472 172.499 35.8067 172.481 35.9708C172.472 36.1257 172.467 36.2852 172.467 36.4493C172.467 36.5678 172.472 36.7091 172.481 36.8731C172.49 37.0281 172.522 37.1785 172.576 37.3243C172.631 37.4701 172.718 37.5977 172.836 37.7071C172.955 37.8074 173.119 37.8575 173.328 37.8575C173.456 37.8575 173.588 37.8484 173.725 37.8302C173.862 37.8028 173.998 37.7892 174.135 37.7892C174.372 37.7892 174.541 37.8712 174.641 38.0352C174.75 38.1993 174.805 38.4089 174.805 38.6642C174.805 38.8556 174.746 39.0242 174.627 39.17C174.518 39.3067 174.376 39.4161 174.203 39.4981C174.03 39.5893 173.834 39.6576 173.615 39.7032C173.406 39.7488 173.205 39.7716 173.014 39.7716ZM180.807 36.8458C180.807 37.1557 180.707 37.461 180.506 37.7618C180.315 38.0535 180.069 38.3178 179.768 38.5548C179.476 38.7826 179.162 38.9695 178.824 39.1153C178.487 39.252 178.177 39.3204 177.895 39.3204C177.412 39.3204 176.979 39.2019 176.596 38.9649C176.222 38.7188 175.908 38.4089 175.653 38.0352C175.397 37.6615 175.201 37.2514 175.065 36.8048C174.937 36.349 174.873 35.907 174.873 35.4786C174.873 35.0229 174.937 34.5352 175.065 34.0157C175.192 33.4962 175.384 33.0177 175.639 32.5802C175.903 32.1427 176.231 31.7781 176.623 31.4864C177.024 31.1948 177.498 31.0489 178.045 31.0489C178.355 31.0489 178.651 31.1036 178.934 31.213C179.216 31.3132 179.462 31.4591 179.672 31.6505C179.882 31.8419 180.05 32.0698 180.178 32.3341C180.306 32.5984 180.369 32.8946 180.369 33.2227C180.369 33.6511 180.278 34.0522 180.096 34.4259C179.914 34.7996 179.672 35.1231 179.371 35.3966C179.07 35.67 178.724 35.8933 178.332 36.0665C177.94 36.2306 177.539 36.3217 177.129 36.3399C177.166 36.6043 177.27 36.7957 177.444 36.9142C177.626 37.0326 177.84 37.0919 178.086 37.0919C178.268 37.0919 178.446 37.0463 178.619 36.9552C178.793 36.864 178.961 36.7638 179.125 36.6544C179.289 36.5359 179.449 36.4311 179.604 36.3399C179.768 36.2488 179.932 36.2032 180.096 36.2032C180.278 36.2032 180.442 36.2625 180.588 36.381C180.734 36.4994 180.807 36.6544 180.807 36.8458ZM178.592 33.4962C178.592 33.3777 178.56 33.2546 178.496 33.127C178.432 32.9994 178.332 32.9356 178.195 32.9356C177.995 32.9356 177.826 32.9903 177.69 33.0997C177.553 33.2 177.439 33.3321 177.348 33.4962C177.257 33.6511 177.184 33.8198 177.129 34.002C177.084 34.1843 177.056 34.353 177.047 34.5079C177.175 34.4806 177.325 34.4441 177.498 34.3985C177.681 34.353 177.849 34.2937 178.004 34.2208C178.168 34.1388 178.305 34.0385 178.414 33.92C178.533 33.8015 178.592 33.6602 178.592 33.4962ZM42.9738 52.6173C42.9738 53.0821 42.9647 53.547 42.9465 54.0118C42.9374 54.4767 42.9146 54.9415 42.8781 55.4063C42.8508 55.8074 42.8143 56.2358 42.7687 56.6915C42.7232 57.1472 42.6503 57.5984 42.55 58.045C42.4497 58.5007 42.3176 58.9337 42.1535 59.3438C41.9894 59.7631 41.7707 60.1323 41.4973 60.4513C41.2329 60.7703 40.9094 61.0255 40.5266 61.2169C40.1437 61.4083 39.688 61.504 39.1594 61.504C38.9133 61.504 38.6353 61.463 38.3254 61.381C38.0246 61.308 37.7375 61.1987 37.4641 61.0528C37.1997 60.907 36.9719 60.7247 36.7805 60.506C36.5982 60.2963 36.507 60.0502 36.507 59.7677C36.507 59.558 36.5799 59.3621 36.7258 59.1798C36.8807 59.0066 37.0767 58.92 37.3137 58.92C37.4595 58.92 37.5962 58.9428 37.7238 58.9884C37.8605 59.0431 37.9927 59.1023 38.1203 59.1661C38.257 59.2299 38.3846 59.2846 38.5031 59.3302C38.6307 59.3849 38.7583 59.4122 38.8859 59.4122C39.2232 59.4122 39.5057 59.3256 39.7336 59.1524C39.9615 58.9884 40.1437 58.7742 40.2805 58.5099C40.4172 58.2546 40.5174 57.9721 40.5812 57.6622C40.6542 57.3614 40.7043 57.0743 40.7316 56.8009C40.5493 57.0105 40.3352 57.1563 40.0891 57.2384C39.8521 57.3113 39.6014 57.3477 39.3371 57.3477C38.854 57.3477 38.4439 57.2657 38.1066 57.1017C37.7694 56.9285 37.496 56.6961 37.2863 56.4044C37.0767 56.1036 36.9217 55.7573 36.8215 55.3653C36.7212 54.9734 36.6711 54.5496 36.6711 54.0938C36.6711 53.8113 36.6984 53.4923 36.7531 53.1368C36.8169 52.7813 36.9081 52.4213 37.0266 52.0567C37.145 51.6921 37.2909 51.3367 37.4641 50.9903C37.6463 50.644 37.856 50.3386 38.093 50.0743C38.3299 49.81 38.5943 49.5958 38.8859 49.4317C39.1867 49.2677 39.5148 49.1856 39.8703 49.1856C40.2167 49.1856 40.522 49.2859 40.7863 49.4864C41.0598 49.6869 41.2193 49.9695 41.2648 50.3341C41.3651 50.1427 41.4973 49.9558 41.6613 49.7735C41.8254 49.5821 42.0259 49.4864 42.2629 49.4864C42.3905 49.4864 42.4953 49.5502 42.5773 49.6778C42.6685 49.8054 42.7368 49.974 42.7824 50.1837C42.8371 50.3842 42.8781 50.6075 42.9055 50.8536C42.9328 51.0906 42.951 51.3276 42.9602 51.5645C42.9693 51.7924 42.9738 52.002 42.9738 52.1935C42.9738 52.3849 42.9738 52.5261 42.9738 52.6173ZM40.8957 53.506C40.8957 53.3692 40.8729 53.1915 40.8273 52.9727C40.7909 52.754 40.7316 52.5444 40.6496 52.3438C40.5767 52.1433 40.481 51.9701 40.3625 51.8243C40.244 51.6785 40.1027 51.6056 39.9387 51.6056C39.729 51.6056 39.5422 51.6785 39.3781 51.8243C39.2232 51.9701 39.091 52.1479 38.9816 52.3575C38.8723 52.558 38.7857 52.7768 38.7219 53.0138C38.6672 53.2416 38.6398 53.4376 38.6398 53.6017C38.6398 53.7201 38.649 53.8796 38.6672 54.0802C38.6854 54.2807 38.7219 54.4767 38.7766 54.6681C38.8404 54.8595 38.9224 55.0235 39.0227 55.1602C39.1229 55.297 39.2551 55.3653 39.4191 55.3653C39.6652 55.3653 39.8794 55.3061 40.0617 55.1876C40.244 55.0691 40.3944 54.9187 40.5129 54.7364C40.6405 54.5541 40.7362 54.3536 40.8 54.1349C40.8638 53.9161 40.8957 53.7065 40.8957 53.506ZM49.9328 53.3692C49.9328 53.8705 49.8827 54.3673 49.7824 54.8595C49.6822 55.3517 49.5135 55.7937 49.2766 56.1856C49.0396 56.5685 48.7206 56.8783 48.3195 57.1153C47.9276 57.3523 47.4354 57.4708 46.843 57.4708C46.2596 57.4708 45.772 57.3569 45.3801 57.129C44.9881 56.892 44.6737 56.5821 44.4367 56.1993C44.2088 55.8165 44.0448 55.3836 43.9445 54.9005C43.8534 54.4174 43.8078 53.9252 43.8078 53.4239C43.8078 52.877 43.8716 52.3347 43.9992 51.797C44.0266 51.6511 44.0767 51.4506 44.1496 51.1954C44.2316 50.9311 44.3319 50.6759 44.4504 50.4298C44.578 50.1746 44.7193 49.9558 44.8742 49.7735C45.0383 49.5912 45.216 49.5001 45.4074 49.5001C45.5897 49.5001 45.7355 49.5502 45.8449 49.6505C45.9543 49.7507 46.0409 49.8783 46.1047 50.0333C46.1685 50.1791 46.2095 50.3386 46.2277 50.5118C46.246 50.6759 46.2551 50.8263 46.2551 50.963C46.2551 51.1726 46.2368 51.3777 46.2004 51.5782C46.173 51.7787 46.1411 51.9793 46.1047 52.1798C46.0682 52.4532 46.0318 52.7267 45.9953 53.0001C45.968 53.2735 45.9543 53.547 45.9543 53.8204C45.9543 53.9571 45.9588 54.1121 45.968 54.2852C45.9862 54.4493 46.0227 54.6088 46.0773 54.7638C46.132 54.9187 46.2095 55.0509 46.3098 55.1602C46.41 55.2605 46.5513 55.3106 46.7336 55.3106C46.9706 55.3106 47.1574 55.2468 47.2941 55.1192C47.44 54.9916 47.5448 54.8321 47.6086 54.6407C47.6815 54.4493 47.7271 54.2442 47.7453 54.0255C47.7635 53.8067 47.7727 53.6062 47.7727 53.4239C47.7727 53.0229 47.7453 52.631 47.6906 52.2481C47.6359 51.8562 47.5858 51.4597 47.5402 51.0587C47.5311 51.0131 47.5266 50.9493 47.5266 50.8673C47.5266 50.7306 47.5493 50.5938 47.5949 50.4571C47.6405 50.3204 47.7043 50.1974 47.7863 50.088C47.8684 49.9786 47.9686 49.892 48.0871 49.8282C48.2056 49.7553 48.3378 49.7188 48.4836 49.7188C48.6841 49.7188 48.8618 49.7918 49.0168 49.9376C49.1717 50.0743 49.2993 50.2566 49.3996 50.4845C49.509 50.7032 49.5956 50.9539 49.6594 51.2364C49.7323 51.5099 49.787 51.7833 49.8234 52.0567C49.869 52.3211 49.8963 52.5717 49.9055 52.8087C49.9237 53.0457 49.9328 53.2325 49.9328 53.3692ZM53.0227 47.7364C53.0227 47.864 52.9862 47.978 52.9133 48.0782C52.8495 48.1785 52.7629 48.2696 52.6535 48.3517C52.5441 48.4246 52.4256 48.4838 52.298 48.5294C52.1704 48.5658 52.0519 48.5841 51.9426 48.5841C51.7603 48.5841 51.6008 48.5385 51.4641 48.4474C51.3273 48.3562 51.259 48.2149 51.259 48.0235C51.259 47.8868 51.2909 47.7683 51.3547 47.6681C51.4276 47.5587 51.5142 47.4721 51.6144 47.4083C51.7147 47.3354 51.8286 47.2807 51.9562 47.2442C52.0838 47.2078 52.2069 47.1895 52.3254 47.1895C52.4986 47.1895 52.6581 47.2306 52.8039 47.3126C52.9497 47.3946 53.0227 47.5359 53.0227 47.7364ZM53.132 52.3849C53.132 52.5125 53.132 52.6492 53.132 52.795C53.132 52.9317 53.1275 53.0639 53.1184 53.1915C53.1092 53.3464 53.1047 53.5561 53.1047 53.8204C53.1047 54.0756 53.0956 54.3536 53.0773 54.6544C53.0591 54.9552 53.0272 55.2605 52.9816 55.5704C52.9452 55.8803 52.8814 56.1629 52.7902 56.4181C52.6991 56.6733 52.576 56.8829 52.4211 57.047C52.2753 57.2019 52.0884 57.2839 51.8605 57.2931C51.6874 57.3022 51.5415 57.2338 51.423 57.088C51.3046 56.9421 51.2043 56.7553 51.1223 56.5274C51.0493 56.2905 50.9947 56.0307 50.9582 55.7481C50.9217 55.4565 50.8944 55.1785 50.8762 54.9142C50.8579 54.6407 50.8488 54.3901 50.8488 54.1622C50.8488 53.9343 50.8488 53.7657 50.8488 53.6563C50.8488 53.5105 50.8488 53.3054 50.8488 53.0411C50.8488 52.7677 50.8579 52.476 50.8762 52.1661C50.8944 51.8562 50.9263 51.5418 50.9719 51.2227C51.0266 50.9037 51.0995 50.6121 51.1906 50.3477C51.2909 50.0834 51.4185 49.8692 51.5734 49.7052C51.7284 49.5411 51.9243 49.4591 52.1613 49.4591C52.4074 49.4591 52.5943 49.5821 52.7219 49.8282C52.8495 50.0743 52.9452 50.3614 53.009 50.6895C53.0728 51.0177 53.1092 51.3458 53.1184 51.6739C53.1275 51.9929 53.132 52.2299 53.132 52.3849ZM59.9133 55.3517C59.9133 55.5157 59.9042 55.7299 59.8859 55.9942C59.8768 56.2586 59.8404 56.5183 59.7766 56.7735C59.7128 57.0196 59.6125 57.2338 59.4758 57.4161C59.3391 57.5984 59.1477 57.6895 58.9016 57.6895C58.5643 57.6895 58.3046 57.5802 58.1223 57.3614C57.94 57.1427 57.8534 56.8692 57.8625 56.5411C57.5708 56.7963 57.2381 56.9968 56.8644 57.1427C56.4999 57.2885 56.1262 57.3614 55.7434 57.3614C55.479 57.3614 55.2284 57.2976 54.9914 57.17C54.7544 57.0424 54.5448 56.8783 54.3625 56.6778C54.1802 56.4773 54.0344 56.254 53.925 56.0079C53.8156 55.7527 53.7609 55.502 53.7609 55.256C53.7609 54.8185 53.8931 54.4356 54.1574 54.1075C54.4309 53.7794 54.7635 53.5014 55.1555 53.2735C55.5474 53.0365 55.9621 52.8497 56.3996 52.713C56.8462 52.5763 57.2427 52.4851 57.5891 52.4395C57.5891 52.394 57.5891 52.353 57.5891 52.3165C57.5982 52.28 57.6027 52.239 57.6027 52.1935C57.6027 51.9109 57.5253 51.683 57.3703 51.5099C57.2154 51.3367 56.9966 51.2501 56.7141 51.2501C56.4862 51.2501 56.2902 51.2911 56.1262 51.3731C55.9621 51.4461 55.8072 51.5326 55.6613 51.6329C55.5155 51.724 55.3697 51.8106 55.2238 51.8927C55.078 51.9656 54.9139 52.002 54.7316 52.002C54.5311 52.002 54.3579 51.9382 54.2121 51.8106C54.0754 51.683 54.007 51.519 54.007 51.3185C54.007 51.0177 54.0936 50.7442 54.2668 50.4981C54.4491 50.252 54.6724 50.047 54.9367 49.8829C55.2102 49.7097 55.5018 49.5776 55.8117 49.4864C56.1307 49.3862 56.4224 49.336 56.6867 49.336C56.9328 49.336 57.1789 49.3679 57.425 49.4317C57.6711 49.4864 57.9035 49.5776 58.1223 49.7052C58.341 49.8237 58.537 49.974 58.7102 50.1563C58.8924 50.3295 59.0383 50.5346 59.1477 50.7716C59.3117 51.1088 59.4439 51.4688 59.5441 51.8517C59.6444 52.2254 59.7219 52.6127 59.7766 53.0138C59.8312 53.4057 59.8677 53.8022 59.8859 54.2032C59.9042 54.5951 59.9133 54.978 59.9133 55.3517ZM57.7258 54.9142L57.6848 53.9845C57.6665 53.9845 57.6483 53.9845 57.6301 53.9845C57.6118 53.9754 57.5936 53.9708 57.5754 53.9708C57.4569 53.9708 57.3065 54.0027 57.1242 54.0665C56.951 54.1212 56.7824 54.2032 56.6184 54.3126C56.4543 54.4129 56.313 54.5268 56.1945 54.6544C56.0852 54.782 56.0305 54.9142 56.0305 55.0509C56.0305 55.1785 56.076 55.2651 56.1672 55.3106C56.2583 55.3562 56.3631 55.379 56.4816 55.379C56.6822 55.379 56.8963 55.3289 57.1242 55.2286C57.3521 55.1192 57.5526 55.0144 57.7258 54.9142ZM65.4777 52.1661C65.3501 52.1752 65.2408 52.1661 65.1496 52.1388C65.0585 52.1023 64.9673 52.0658 64.8762 52.0294C64.7941 51.9929 64.7121 51.961 64.6301 51.9337C64.548 51.8972 64.4569 51.8836 64.3566 51.8927C64.1743 51.9018 64.0103 51.9519 63.8644 52.0431C63.7277 52.1342 63.6001 52.2481 63.4816 52.3849C63.3723 52.5216 63.2766 52.6765 63.1945 52.8497C63.1125 53.0138 63.0487 53.1778 63.0031 53.3419C62.9758 53.4513 62.953 53.6199 62.9348 53.8477C62.9256 54.0665 62.9211 54.3035 62.9211 54.5587C62.912 54.823 62.9074 55.0737 62.9074 55.3106C62.9074 55.5476 62.8983 55.7345 62.8801 55.8712C62.871 56.017 62.8482 56.1902 62.8117 56.3907C62.7753 56.5821 62.716 56.7644 62.634 56.9376C62.5611 57.1108 62.4608 57.2566 62.3332 57.3751C62.2056 57.4936 62.0415 57.5528 61.841 57.5528C61.6861 57.5528 61.5493 57.5073 61.4309 57.4161C61.3215 57.325 61.2258 57.2065 61.1437 57.0606C61.0708 56.9057 61.007 56.728 60.9523 56.5274C60.9068 56.3269 60.8703 56.1218 60.843 55.9122C60.8156 55.6935 60.7928 55.4747 60.7746 55.256C60.7655 55.0372 60.7564 54.8321 60.7473 54.6407C60.7473 54.4402 60.7473 54.2579 60.7473 54.0938C60.7564 53.9298 60.7609 53.7976 60.7609 53.6974C60.7518 53.3783 60.7336 53.0593 60.7062 52.7403C60.688 52.4122 60.6789 52.0886 60.6789 51.7696C60.6789 51.5691 60.688 51.3458 60.7062 51.0997C60.7245 50.8536 60.7746 50.6257 60.8566 50.4161C60.9387 50.1974 61.0572 50.0151 61.2121 49.8692C61.3762 49.7234 61.5995 49.6505 61.882 49.6505C62.037 49.6505 62.1691 49.7006 62.2785 49.8009C62.3879 49.9011 62.4745 50.0242 62.5383 50.17C62.6112 50.3158 62.6659 50.4708 62.7023 50.6349C62.7388 50.7989 62.7616 50.9493 62.7707 51.086C62.9894 50.7306 63.2355 50.4435 63.509 50.2247C63.7824 49.9968 64.1379 49.8738 64.5754 49.8556C64.7941 49.8464 65.0083 49.8692 65.218 49.9239C65.4367 49.9695 65.6327 50.0515 65.8059 50.17C65.9881 50.2794 66.134 50.4252 66.2434 50.6075C66.3618 50.7898 66.4256 51.004 66.4348 51.2501C66.453 51.5418 66.3664 51.7651 66.175 51.92C65.9836 52.075 65.7512 52.157 65.4777 52.1661ZM73.8176 57.6622C73.6626 57.6622 73.5396 57.5893 73.4484 57.4435C73.3573 57.3067 73.2889 57.1472 73.2434 56.9649C73.1978 56.7826 73.1659 56.6004 73.1477 56.4181C73.1385 56.2267 73.134 56.0808 73.134 55.9806C73.134 55.7071 73.1477 55.4337 73.175 55.1602C73.2115 54.8868 73.2479 54.6134 73.2844 54.3399C73.3299 54.0665 73.3664 53.7931 73.3937 53.5196C73.4302 53.2462 73.4484 52.9727 73.4484 52.6993C73.4484 52.5899 73.4439 52.4714 73.4348 52.3438C73.4256 52.2162 73.4029 52.0977 73.3664 51.9884C73.3391 51.8699 73.2889 51.7742 73.216 51.7013C73.1431 51.6283 73.0474 51.5919 72.9289 51.5919C72.8469 51.5919 72.7557 51.6602 72.6555 51.797C72.5552 51.9246 72.4595 52.075 72.3684 52.2481C72.2863 52.4122 72.2134 52.5808 72.1496 52.754C72.0949 52.9181 72.0676 53.0411 72.0676 53.1231C72.0676 53.3237 72.0676 53.5287 72.0676 53.7384C72.0767 53.9389 72.0812 54.144 72.0812 54.3536V55.1466C72.0721 55.3106 72.0585 55.4793 72.0402 55.6524C72.022 55.8256 71.9947 55.9942 71.9582 56.1583C71.9309 56.3224 71.8898 56.4819 71.8352 56.6368C71.7805 56.7826 71.7075 56.9148 71.6164 57.0333C71.5344 57.1427 71.4341 57.2338 71.3156 57.3067C71.1971 57.3796 71.0559 57.4161 70.8918 57.4161C70.7095 57.4161 70.5591 57.3569 70.4406 57.2384C70.3221 57.1199 70.2264 56.9695 70.1535 56.7872C70.0806 56.5958 70.0259 56.3862 69.9894 56.1583C69.9621 55.9213 69.9393 55.6935 69.9211 55.4747C69.912 55.2468 69.9074 55.0418 69.9074 54.8595C69.9165 54.6681 69.9211 54.5177 69.9211 54.4083V53.7657C69.9211 53.4194 69.912 53.0776 69.8937 52.7403C69.8846 52.4031 69.8801 52.0658 69.8801 51.7286C69.8801 51.5463 69.8801 51.3139 69.8801 51.0313C69.8892 50.7488 69.9256 50.4754 69.9894 50.211C70.0533 49.9376 70.1581 49.7052 70.3039 49.5138C70.4497 49.3224 70.6639 49.2267 70.9465 49.2267C71.0741 49.2267 71.188 49.2677 71.2883 49.3497C71.3885 49.4317 71.4751 49.532 71.548 49.6505C71.6301 49.769 71.6939 49.8966 71.7394 50.0333C71.7941 50.17 71.8352 50.2885 71.8625 50.3888C71.9536 50.2612 72.0585 50.1381 72.1769 50.0196C72.3046 49.9011 72.4458 49.7963 72.6008 49.7052C72.7557 49.614 72.9289 49.5411 73.1203 49.4864C73.3117 49.4317 73.5305 49.4044 73.7766 49.4044C74.2414 49.4044 74.6014 49.5183 74.8566 49.7462C75.121 49.9649 75.3124 50.2429 75.4309 50.5802C75.5585 50.9083 75.6359 51.2638 75.6633 51.6466C75.6906 52.0294 75.7043 52.3757 75.7043 52.6856C75.7043 52.8406 75.6906 53.073 75.6633 53.3829C75.6359 53.6837 75.5904 54.0209 75.5266 54.3946C75.4719 54.7592 75.3944 55.1375 75.2941 55.5294C75.1939 55.9122 75.0754 56.2631 74.9387 56.5821C74.8019 56.9011 74.6379 57.1609 74.4465 57.3614C74.2642 57.5619 74.0546 57.6622 73.8176 57.6622ZM82.1984 54.8458C82.1984 55.1557 82.0982 55.461 81.8977 55.7618C81.7062 56.0535 81.4602 56.3178 81.1594 56.5548C80.8677 56.7826 80.5533 56.9695 80.216 57.1153C79.8788 57.252 79.5689 57.3204 79.2863 57.3204C78.8033 57.3204 78.3703 57.2019 77.9875 56.9649C77.6138 56.7188 77.2993 56.4089 77.0441 56.0352C76.7889 55.6615 76.593 55.2514 76.4562 54.8048C76.3286 54.349 76.2648 53.907 76.2648 53.4786C76.2648 53.0229 76.3286 52.5352 76.4562 52.0157C76.5838 51.4962 76.7753 51.0177 77.0305 50.5802C77.2948 50.1427 77.6229 49.7781 78.0148 49.4864C78.4159 49.1948 78.8898 49.0489 79.4367 49.0489C79.7466 49.0489 80.0428 49.1036 80.3254 49.213C80.6079 49.3132 80.854 49.4591 81.0637 49.6505C81.2733 49.8419 81.4419 50.0698 81.5695 50.3341C81.6971 50.5984 81.7609 50.8946 81.7609 51.2227C81.7609 51.6511 81.6698 52.0522 81.4875 52.4259C81.3052 52.7996 81.0637 53.1231 80.7629 53.3966C80.4621 53.67 80.1158 53.8933 79.7238 54.0665C79.3319 54.2306 78.9309 54.3217 78.5207 54.3399C78.5572 54.6043 78.662 54.7957 78.8352 54.9142C79.0174 55.0326 79.2316 55.0919 79.4777 55.0919C79.66 55.0919 79.8378 55.0463 80.0109 54.9552C80.1841 54.864 80.3527 54.7638 80.5168 54.6544C80.6809 54.5359 80.8404 54.4311 80.9953 54.3399C81.1594 54.2488 81.3234 54.2032 81.4875 54.2032C81.6698 54.2032 81.8338 54.2625 81.9797 54.381C82.1255 54.4994 82.1984 54.6544 82.1984 54.8458ZM79.9836 51.4962C79.9836 51.3777 79.9517 51.2546 79.8879 51.127C79.8241 50.9994 79.7238 50.9356 79.5871 50.9356C79.3866 50.9356 79.218 50.9903 79.0812 51.0997C78.9445 51.2 78.8306 51.3321 78.7394 51.4962C78.6483 51.6511 78.5754 51.8198 78.5207 52.002C78.4751 52.1843 78.4478 52.353 78.4387 52.5079C78.5663 52.4806 78.7167 52.4441 78.8898 52.3985C79.0721 52.353 79.2408 52.2937 79.3957 52.2208C79.5598 52.1388 79.6965 52.0385 79.8059 51.92C79.9243 51.8015 79.9836 51.6602 79.9836 51.4962ZM86.7512 49.7599C86.7512 50.0242 86.66 50.2201 86.4777 50.3477C86.3046 50.4754 86.1086 50.5984 85.8898 50.7169C85.6711 50.8263 85.4706 50.9584 85.2883 51.1134C85.1151 51.2683 85.0285 51.5007 85.0285 51.8106C85.0285 51.9747 85.065 52.116 85.1379 52.2345C85.2199 52.353 85.3156 52.4623 85.425 52.5626C85.5435 52.6537 85.6711 52.7494 85.8078 52.8497C85.9445 52.95 86.0676 53.0639 86.1769 53.1915C86.2954 53.3191 86.3911 53.474 86.4641 53.6563C86.5461 53.8386 86.5871 54.0619 86.5871 54.3263C86.5871 54.7091 86.4868 55.0873 86.2863 55.461C86.0949 55.8256 85.8443 56.1537 85.5344 56.4454C85.2336 56.728 84.8918 56.9558 84.509 57.129C84.1262 57.3022 83.7479 57.3888 83.3742 57.3888C83.2193 57.3888 83.0643 57.3751 82.9094 57.3477C82.7544 57.3295 82.6131 57.2885 82.4855 57.2247C82.3671 57.1609 82.2668 57.0743 82.1848 56.9649C82.1027 56.8464 82.0617 56.6961 82.0617 56.5138C82.0617 56.2586 82.1118 56.0626 82.2121 55.9259C82.3124 55.78 82.44 55.6661 82.5949 55.5841C82.7499 55.502 82.9139 55.4382 83.0871 55.3927C83.2694 55.3471 83.438 55.2924 83.593 55.2286C83.7479 55.1557 83.8755 55.0645 83.9758 54.9552C84.076 54.8458 84.1262 54.6908 84.1262 54.4903C84.1262 54.2989 84.0487 54.103 83.8937 53.9024C83.7479 53.6928 83.5838 53.474 83.4016 53.2462C83.2193 53.0092 83.0506 52.7586 82.8957 52.4942C82.7499 52.2299 82.6769 51.9382 82.6769 51.6192C82.6769 51.2273 82.7544 50.8673 82.9094 50.5392C83.0734 50.2019 83.2876 49.9102 83.5519 49.6642C83.8254 49.4181 84.1353 49.2267 84.4816 49.0899C84.828 48.9441 85.1926 48.8712 85.5754 48.8712C85.7212 48.8712 85.8625 48.8849 85.9992 48.9122C86.145 48.9395 86.2727 48.9897 86.382 49.0626C86.4914 49.1264 86.578 49.2175 86.6418 49.336C86.7147 49.4454 86.7512 49.5867 86.7512 49.7599ZM91.3039 49.7599C91.3039 50.0242 91.2128 50.2201 91.0305 50.3477C90.8573 50.4754 90.6613 50.5984 90.4426 50.7169C90.2238 50.8263 90.0233 50.9584 89.841 51.1134C89.6678 51.2683 89.5812 51.5007 89.5812 51.8106C89.5812 51.9747 89.6177 52.116 89.6906 52.2345C89.7727 52.353 89.8684 52.4623 89.9777 52.5626C90.0962 52.6537 90.2238 52.7494 90.3605 52.8497C90.4973 52.95 90.6203 53.0639 90.7297 53.1915C90.8482 53.3191 90.9439 53.474 91.0168 53.6563C91.0988 53.8386 91.1398 54.0619 91.1398 54.3263C91.1398 54.7091 91.0396 55.0873 90.8391 55.461C90.6477 55.8256 90.397 56.1537 90.0871 56.4454C89.7863 56.728 89.4445 56.9558 89.0617 57.129C88.6789 57.3022 88.3006 57.3888 87.9269 57.3888C87.772 57.3888 87.6171 57.3751 87.4621 57.3477C87.3072 57.3295 87.1659 57.2885 87.0383 57.2247C86.9198 57.1609 86.8195 57.0743 86.7375 56.9649C86.6555 56.8464 86.6144 56.6961 86.6144 56.5138C86.6144 56.2586 86.6646 56.0626 86.7648 55.9259C86.8651 55.78 86.9927 55.6661 87.1477 55.5841C87.3026 55.502 87.4667 55.4382 87.6398 55.3927C87.8221 55.3471 87.9908 55.2924 88.1457 55.2286C88.3006 55.1557 88.4283 55.0645 88.5285 54.9552C88.6288 54.8458 88.6789 54.6908 88.6789 54.4903C88.6789 54.2989 88.6014 54.103 88.4465 53.9024C88.3006 53.6928 88.1366 53.474 87.9543 53.2462C87.772 53.0092 87.6034 52.7586 87.4484 52.4942C87.3026 52.2299 87.2297 51.9382 87.2297 51.6192C87.2297 51.2273 87.3072 50.8673 87.4621 50.5392C87.6262 50.2019 87.8404 49.9102 88.1047 49.6642C88.3781 49.4181 88.688 49.2267 89.0344 49.0899C89.3807 48.9441 89.7453 48.8712 90.1281 48.8712C90.274 48.8712 90.4152 48.8849 90.5519 48.9122C90.6978 48.9395 90.8254 48.9897 90.9348 49.0626C91.0441 49.1264 91.1307 49.2175 91.1945 49.336C91.2674 49.4454 91.3039 49.5867 91.3039 49.7599ZM97.6613 55.3517C97.6613 55.5157 97.6522 55.7299 97.634 55.9942C97.6249 56.2586 97.5884 56.5183 97.5246 56.7735C97.4608 57.0196 97.3605 57.2338 97.2238 57.4161C97.0871 57.5984 96.8957 57.6895 96.6496 57.6895C96.3124 57.6895 96.0526 57.5802 95.8703 57.3614C95.688 57.1427 95.6014 56.8692 95.6105 56.5411C95.3189 56.7963 94.9862 56.9968 94.6125 57.1427C94.2479 57.2885 93.8742 57.3614 93.4914 57.3614C93.2271 57.3614 92.9764 57.2976 92.7394 57.17C92.5025 57.0424 92.2928 56.8783 92.1105 56.6778C91.9283 56.4773 91.7824 56.254 91.673 56.0079C91.5637 55.7527 91.509 55.502 91.509 55.256C91.509 54.8185 91.6411 54.4356 91.9055 54.1075C92.1789 53.7794 92.5116 53.5014 92.9035 53.2735C93.2954 53.0365 93.7102 52.8497 94.1477 52.713C94.5943 52.5763 94.9908 52.4851 95.3371 52.4395C95.3371 52.394 95.3371 52.353 95.3371 52.3165C95.3462 52.28 95.3508 52.239 95.3508 52.1935C95.3508 51.9109 95.2733 51.683 95.1184 51.5099C94.9634 51.3367 94.7447 51.2501 94.4621 51.2501C94.2342 51.2501 94.0383 51.2911 93.8742 51.3731C93.7102 51.4461 93.5552 51.5326 93.4094 51.6329C93.2635 51.724 93.1177 51.8106 92.9719 51.8927C92.826 51.9656 92.662 52.002 92.4797 52.002C92.2792 52.002 92.106 51.9382 91.9602 51.8106C91.8234 51.683 91.7551 51.519 91.7551 51.3185C91.7551 51.0177 91.8417 50.7442 92.0148 50.4981C92.1971 50.252 92.4204 50.047 92.6848 49.8829C92.9582 49.7097 93.2499 49.5776 93.5598 49.4864C93.8788 49.3862 94.1704 49.336 94.4348 49.336C94.6809 49.336 94.9269 49.3679 95.173 49.4317C95.4191 49.4864 95.6516 49.5776 95.8703 49.7052C96.0891 49.8237 96.285 49.974 96.4582 50.1563C96.6405 50.3295 96.7863 50.5346 96.8957 50.7716C97.0598 51.1088 97.1919 51.4688 97.2922 51.8517C97.3924 52.2254 97.4699 52.6127 97.5246 53.0138C97.5793 53.4057 97.6158 53.8022 97.634 54.2032C97.6522 54.5951 97.6613 54.978 97.6613 55.3517ZM95.4738 54.9142L95.4328 53.9845C95.4146 53.9845 95.3963 53.9845 95.3781 53.9845C95.3599 53.9754 95.3417 53.9708 95.3234 53.9708C95.2049 53.9708 95.0546 54.0027 94.8723 54.0665C94.6991 54.1212 94.5305 54.2032 94.3664 54.3126C94.2023 54.4129 94.0611 54.5268 93.9426 54.6544C93.8332 54.782 93.7785 54.9142 93.7785 55.0509C93.7785 55.1785 93.8241 55.2651 93.9152 55.3106C94.0064 55.3562 94.1112 55.379 94.2297 55.379C94.4302 55.379 94.6444 55.3289 94.8723 55.2286C95.1001 55.1192 95.3006 55.0144 95.4738 54.9142ZM105.659 57.6622C105.504 57.6622 105.381 57.5893 105.29 57.4435C105.199 57.3067 105.131 57.1472 105.085 56.9649C105.04 56.7826 105.008 56.6004 104.989 56.4181C104.98 56.2267 104.976 56.0808 104.976 55.9806C104.976 55.7071 104.989 55.4337 105.017 55.1602C105.053 54.8868 105.09 54.6134 105.126 54.3399C105.172 54.0665 105.208 53.7931 105.236 53.5196C105.272 53.2462 105.29 52.9727 105.29 52.6993C105.29 52.5899 105.286 52.4714 105.277 52.3438C105.267 52.2162 105.245 52.0977 105.208 51.9884C105.181 51.8699 105.131 51.7742 105.058 51.7013C104.985 51.6283 104.889 51.5919 104.771 51.5919C104.689 51.5919 104.598 51.6602 104.497 51.797C104.397 51.9246 104.301 52.075 104.21 52.2481C104.128 52.4122 104.055 52.5808 103.991 52.754C103.937 52.9181 103.909 53.0411 103.909 53.1231C103.909 53.3237 103.909 53.5287 103.909 53.7384C103.918 53.9389 103.923 54.144 103.923 54.3536V55.1466C103.914 55.3106 103.9 55.4793 103.882 55.6524C103.864 55.8256 103.836 55.9942 103.8 56.1583C103.773 56.3224 103.732 56.4819 103.677 56.6368C103.622 56.7826 103.549 56.9148 103.458 57.0333C103.376 57.1427 103.276 57.2338 103.157 57.3067C103.039 57.3796 102.898 57.4161 102.734 57.4161C102.551 57.4161 102.401 57.3569 102.282 57.2384C102.164 57.1199 102.068 56.9695 101.995 56.7872C101.922 56.5958 101.868 56.3862 101.831 56.1583C101.804 55.9213 101.781 55.6935 101.763 55.4747C101.754 55.2468 101.749 55.0418 101.749 54.8595C101.758 54.6681 101.763 54.5177 101.763 54.4083V53.7657C101.763 53.4194 101.754 53.0776 101.736 52.7403C101.726 52.4031 101.722 52.0658 101.722 51.7286C101.722 51.5463 101.722 51.3139 101.722 51.0313C101.731 50.7488 101.767 50.4754 101.831 50.211C101.895 49.9376 102 49.7052 102.146 49.5138C102.292 49.3224 102.506 49.2267 102.788 49.2267C102.916 49.2267 103.03 49.2677 103.13 49.3497C103.23 49.4317 103.317 49.532 103.39 49.6505C103.472 49.769 103.536 49.8966 103.581 50.0333C103.636 50.17 103.677 50.2885 103.704 50.3888C103.795 50.2612 103.9 50.1381 104.019 50.0196C104.146 49.9011 104.288 49.7963 104.443 49.7052C104.598 49.614 104.771 49.5411 104.962 49.4864C105.154 49.4317 105.372 49.4044 105.618 49.4044C106.083 49.4044 106.443 49.5183 106.698 49.7462C106.963 49.9649 107.154 50.2429 107.273 50.5802C107.4 50.9083 107.478 51.2638 107.505 51.6466C107.532 52.0294 107.546 52.3757 107.546 52.6856C107.546 52.8406 107.532 53.073 107.505 53.3829C107.478 53.6837 107.432 54.0209 107.368 54.3946C107.314 54.7592 107.236 55.1375 107.136 55.5294C107.036 55.9122 106.917 56.2631 106.78 56.5821C106.644 56.9011 106.48 57.1609 106.288 57.3614C106.106 57.5619 105.896 57.6622 105.659 57.6622ZM110.909 57.6759C110.445 57.6759 110.039 57.5528 109.693 57.3067C109.346 57.0606 109.055 56.7462 108.818 56.3634C108.581 55.9806 108.403 55.5567 108.284 55.0919C108.166 54.6179 108.107 54.1531 108.107 53.6974C108.107 53.2143 108.166 52.7175 108.284 52.2071C108.403 51.6876 108.585 51.2182 108.831 50.7989C109.077 50.3705 109.392 50.0242 109.775 49.7599C110.157 49.4864 110.613 49.3497 111.142 49.3497C111.652 49.3497 112.085 49.491 112.441 49.7735C112.805 50.047 113.097 50.3933 113.316 50.8126C113.534 51.2227 113.689 51.6739 113.78 52.1661C113.872 52.6583 113.904 53.1231 113.876 53.5606C113.849 54.0437 113.771 54.5313 113.644 55.0235C113.525 55.5157 113.348 55.9578 113.111 56.3497C112.874 56.7416 112.573 57.0606 112.208 57.3067C111.844 57.5528 111.411 57.6759 110.909 57.6759ZM111.046 51.4962C110.909 51.4962 110.786 51.5691 110.677 51.7149C110.577 51.8608 110.49 52.0385 110.417 52.2481C110.353 52.4578 110.303 52.6811 110.267 52.9181C110.23 53.1459 110.212 53.3464 110.212 53.5196C110.212 53.7384 110.23 53.9754 110.267 54.2306C110.312 54.4858 110.372 54.7227 110.445 54.9415C110.517 55.1511 110.604 55.3289 110.704 55.4747C110.814 55.6114 110.937 55.6798 111.073 55.6798C111.219 55.6798 111.342 55.6114 111.443 55.4747C111.552 55.338 111.639 55.1648 111.702 54.9552C111.766 54.7455 111.812 54.5177 111.839 54.2716C111.866 54.0164 111.88 53.7794 111.88 53.5606C111.88 53.3601 111.862 53.1414 111.825 52.9044C111.789 52.6583 111.734 52.4304 111.661 52.2208C111.598 52.0112 111.511 51.838 111.402 51.7013C111.301 51.5645 111.183 51.4962 111.046 51.4962ZM120.466 52.3849C120.229 53.0138 119.969 53.67 119.687 54.3536C119.404 55.0372 119.099 55.6752 118.771 56.2677C118.57 56.6323 118.347 56.9376 118.101 57.1837C117.855 57.4207 117.572 57.5392 117.253 57.5392C116.998 57.5392 116.747 57.4115 116.501 57.1563C116.264 56.892 116.041 56.5821 115.831 56.2267C115.631 55.8621 115.453 55.4975 115.298 55.1329C115.152 54.7592 115.043 54.463 114.97 54.2442C114.897 53.9981 114.815 53.7338 114.724 53.4513C114.633 53.1687 114.551 52.8816 114.478 52.5899C114.405 52.2983 114.346 52.0112 114.3 51.7286C114.254 51.4369 114.232 51.1635 114.232 50.9083C114.232 50.5528 114.295 50.2612 114.423 50.0333C114.551 49.8054 114.801 49.6915 115.175 49.6915C115.321 49.6915 115.453 49.7371 115.571 49.8282C115.69 49.9102 115.799 50.0287 115.9 50.1837C116 50.3386 116.096 50.5209 116.187 50.7306C116.278 50.9311 116.364 51.1544 116.446 51.4005C116.529 51.6375 116.606 51.8836 116.679 52.1388C116.752 52.394 116.825 52.6401 116.898 52.877C116.971 53.114 117.043 53.3464 117.116 53.5743C117.198 53.7931 117.303 54.0118 117.431 54.2306C117.495 54.0665 117.568 53.8796 117.65 53.67C117.732 53.4604 117.818 53.2371 117.909 53.0001C118.01 52.7631 118.114 52.5216 118.224 52.2755C118.333 52.0203 118.452 51.7742 118.579 51.5372C118.825 51.045 119.085 50.6257 119.359 50.2794C119.641 49.933 119.919 49.7599 120.193 49.7599C120.448 49.7599 120.63 49.8373 120.739 49.9923C120.849 50.1472 120.904 50.3477 120.904 50.5938C120.904 50.8399 120.862 51.1179 120.78 51.4278C120.698 51.7377 120.594 52.0567 120.466 52.3849ZM127.193 55.3517C127.193 55.5157 127.183 55.7299 127.165 55.9942C127.156 56.2586 127.12 56.5183 127.056 56.7735C126.992 57.0196 126.892 57.2338 126.755 57.4161C126.618 57.5984 126.427 57.6895 126.181 57.6895C125.844 57.6895 125.584 57.5802 125.402 57.3614C125.219 57.1427 125.133 56.8692 125.142 56.5411C124.85 56.7963 124.517 56.9968 124.144 57.1427C123.779 57.2885 123.405 57.3614 123.023 57.3614C122.758 57.3614 122.508 57.2976 122.271 57.17C122.034 57.0424 121.824 56.8783 121.642 56.6778C121.46 56.4773 121.314 56.254 121.204 56.0079C121.095 55.7527 121.04 55.502 121.04 55.256C121.04 54.8185 121.172 54.4356 121.437 54.1075C121.71 53.7794 122.043 53.5014 122.435 53.2735C122.827 53.0365 123.241 52.8497 123.679 52.713C124.126 52.5763 124.522 52.4851 124.868 52.4395C124.868 52.394 124.868 52.353 124.868 52.3165C124.877 52.28 124.882 52.239 124.882 52.1935C124.882 51.9109 124.805 51.683 124.65 51.5099C124.495 51.3367 124.276 51.2501 123.993 51.2501C123.765 51.2501 123.57 51.2911 123.405 51.3731C123.241 51.4461 123.086 51.5326 122.941 51.6329C122.795 51.724 122.649 51.8106 122.503 51.8927C122.357 51.9656 122.193 52.002 122.011 52.002C121.81 52.002 121.637 51.9382 121.491 51.8106C121.355 51.683 121.286 51.519 121.286 51.3185C121.286 51.0177 121.373 50.7442 121.546 50.4981C121.728 50.252 121.952 50.047 122.216 49.8829C122.489 49.7097 122.781 49.5776 123.091 49.4864C123.41 49.3862 123.702 49.336 123.966 49.336C124.212 49.336 124.458 49.3679 124.704 49.4317C124.95 49.4864 125.183 49.5776 125.402 49.7052C125.62 49.8237 125.816 49.974 125.989 50.1563C126.172 50.3295 126.318 50.5346 126.427 50.7716C126.591 51.1088 126.723 51.4688 126.823 51.8517C126.924 52.2254 127.001 52.6127 127.056 53.0138C127.111 53.4057 127.147 53.8022 127.165 54.2032C127.183 54.5951 127.193 54.978 127.193 55.3517ZM125.005 54.9142L124.964 53.9845C124.946 53.9845 124.928 53.9845 124.909 53.9845C124.891 53.9754 124.873 53.9708 124.855 53.9708C124.736 53.9708 124.586 54.0027 124.404 54.0665C124.23 54.1212 124.062 54.2032 123.898 54.3126C123.734 54.4129 123.592 54.5268 123.474 54.6544C123.364 54.782 123.31 54.9142 123.31 55.0509C123.31 55.1785 123.355 55.2651 123.446 55.3106C123.538 55.3562 123.642 55.379 123.761 55.379C123.961 55.379 124.176 55.3289 124.404 55.2286C124.631 55.1192 124.832 55.0144 125.005 54.9142ZM133.632 47.8731C133.632 48.0007 133.596 48.1192 133.523 48.2286C133.45 48.3289 133.359 48.4155 133.249 48.4884C133.14 48.5613 133.021 48.6205 132.894 48.6661C132.766 48.7026 132.648 48.7208 132.538 48.7208C132.356 48.7208 132.196 48.6752 132.06 48.5841C131.923 48.4929 131.855 48.3517 131.855 48.1602C131.855 48.0235 131.887 47.905 131.95 47.8048C132.023 47.6954 132.11 47.6088 132.21 47.545C132.32 47.4721 132.433 47.4174 132.552 47.381C132.68 47.3445 132.803 47.3263 132.921 47.3263C133.094 47.3263 133.254 47.3718 133.4 47.463C133.555 47.545 133.632 47.6817 133.632 47.8731ZM133.892 53.8067C133.892 54.2351 133.878 54.7136 133.851 55.2423C133.833 55.7618 133.778 56.2859 133.687 56.8145C133.605 57.3432 133.473 57.8445 133.29 58.3185C133.108 58.7924 132.853 59.1889 132.525 59.5079C132.342 59.6811 132.128 59.8634 131.882 60.0548C131.636 60.2462 131.372 60.4239 131.089 60.588C130.816 60.752 130.538 60.8842 130.255 60.9845C129.973 61.0938 129.704 61.1485 129.448 61.1485C129.157 61.1485 128.943 61.0665 128.806 60.9024C128.66 60.7475 128.587 60.5287 128.587 60.2462C128.587 59.9545 128.665 59.7358 128.82 59.5899C128.974 59.4441 129.166 59.3165 129.394 59.2071C129.622 59.0977 129.872 58.9747 130.146 58.838C130.41 58.7104 130.656 58.5144 130.884 58.2501C131.112 57.9858 131.303 57.6303 131.458 57.1837C131.613 56.728 131.691 56.131 131.691 55.3927C131.691 54.9278 131.682 54.4721 131.663 54.0255C131.645 53.5789 131.618 53.1231 131.581 52.6583C131.563 52.394 131.545 52.1296 131.527 51.8653C131.508 51.5919 131.499 51.323 131.499 51.0587C131.499 50.8946 131.522 50.7214 131.568 50.5392C131.613 50.3569 131.682 50.1928 131.773 50.047C131.864 49.892 131.978 49.769 132.114 49.6778C132.26 49.5776 132.433 49.5274 132.634 49.5274C132.862 49.5274 133.049 49.614 133.195 49.7872C133.349 49.9604 133.473 50.1837 133.564 50.4571C133.664 50.7214 133.732 51.0222 133.769 51.3595C133.814 51.6876 133.846 52.0112 133.864 52.3302C133.883 52.6401 133.892 52.9272 133.892 53.1915C133.892 53.4558 133.892 53.6609 133.892 53.8067ZM137.597 57.6759C137.132 57.6759 136.726 57.5528 136.38 57.3067C136.034 57.0606 135.742 56.7462 135.505 56.3634C135.268 55.9806 135.09 55.5567 134.972 55.0919C134.853 54.6179 134.794 54.1531 134.794 53.6974C134.794 53.2143 134.853 52.7175 134.972 52.2071C135.09 51.6876 135.273 51.2182 135.519 50.7989C135.765 50.3705 136.079 50.0242 136.462 49.7599C136.845 49.4864 137.301 49.3497 137.829 49.3497C138.34 49.3497 138.773 49.491 139.128 49.7735C139.493 50.047 139.784 50.3933 140.003 50.8126C140.222 51.2227 140.377 51.6739 140.468 52.1661C140.559 52.6583 140.591 53.1231 140.564 53.5606C140.536 54.0437 140.459 54.5313 140.331 55.0235C140.213 55.5157 140.035 55.9578 139.798 56.3497C139.561 56.7416 139.26 57.0606 138.896 57.3067C138.531 57.5528 138.098 57.6759 137.597 57.6759ZM137.734 51.4962C137.597 51.4962 137.474 51.5691 137.364 51.7149C137.264 51.8608 137.178 52.0385 137.105 52.2481C137.041 52.4578 136.991 52.6811 136.954 52.9181C136.918 53.1459 136.9 53.3464 136.9 53.5196C136.9 53.7384 136.918 53.9754 136.954 54.2306C137 54.4858 137.059 54.7227 137.132 54.9415C137.205 55.1511 137.292 55.3289 137.392 55.4747C137.501 55.6114 137.624 55.6798 137.761 55.6798C137.907 55.6798 138.03 55.6114 138.13 55.4747C138.239 55.338 138.326 55.1648 138.39 54.9552C138.454 54.7455 138.499 54.5177 138.527 54.2716C138.554 54.0164 138.568 53.7794 138.568 53.5606C138.568 53.3601 138.549 53.1414 138.513 52.9044C138.476 52.6583 138.422 52.4304 138.349 52.2208C138.285 52.0112 138.198 51.838 138.089 51.7013C137.989 51.5645 137.87 51.4962 137.734 51.4962ZM146.005 52.1661C145.877 52.1752 145.768 52.1661 145.677 52.1388C145.586 52.1023 145.495 52.0658 145.404 52.0294C145.321 51.9929 145.239 51.961 145.157 51.9337C145.075 51.8972 144.984 51.8836 144.884 51.8927C144.702 51.9018 144.538 51.9519 144.392 52.0431C144.255 52.1342 144.127 52.2481 144.009 52.3849C143.9 52.5216 143.804 52.6765 143.722 52.8497C143.64 53.0138 143.576 53.1778 143.53 53.3419C143.503 53.4513 143.48 53.6199 143.462 53.8477C143.453 54.0665 143.448 54.3035 143.448 54.5587C143.439 54.823 143.435 55.0737 143.435 55.3106C143.435 55.5476 143.426 55.7345 143.407 55.8712C143.398 56.017 143.376 56.1902 143.339 56.3907C143.303 56.5821 143.243 56.7644 143.161 56.9376C143.088 57.1108 142.988 57.2566 142.861 57.3751C142.733 57.4936 142.569 57.5528 142.368 57.5528C142.213 57.5528 142.077 57.5073 141.958 57.4161C141.849 57.325 141.753 57.2065 141.671 57.0606C141.598 56.9057 141.534 56.728 141.48 56.5274C141.434 56.3269 141.398 56.1218 141.37 55.9122C141.343 55.6935 141.32 55.4747 141.302 55.256C141.293 55.0372 141.284 54.8321 141.275 54.6407C141.275 54.4402 141.275 54.2579 141.275 54.0938C141.284 53.9298 141.288 53.7976 141.288 53.6974C141.279 53.3783 141.261 53.0593 141.234 52.7403C141.215 52.4122 141.206 52.0886 141.206 51.7696C141.206 51.5691 141.215 51.3458 141.234 51.0997C141.252 50.8536 141.302 50.6257 141.384 50.4161C141.466 50.1974 141.585 50.0151 141.739 49.8692C141.904 49.7234 142.127 49.6505 142.409 49.6505C142.564 49.6505 142.696 49.7006 142.806 49.8009C142.915 49.9011 143.002 50.0242 143.066 50.17C143.139 50.3158 143.193 50.4708 143.23 50.6349C143.266 50.7989 143.289 50.9493 143.298 51.086C143.517 50.7306 143.763 50.4435 144.036 50.2247C144.31 49.9968 144.665 49.8738 145.103 49.8556C145.321 49.8464 145.536 49.8692 145.745 49.9239C145.964 49.9695 146.16 50.0515 146.333 50.17C146.515 50.2794 146.661 50.4252 146.771 50.6075C146.889 50.7898 146.953 51.004 146.962 51.2501C146.98 51.5418 146.894 51.7651 146.702 51.92C146.511 52.075 146.279 52.157 146.005 52.1661ZM151.05 57.6622C150.895 57.6622 150.772 57.5893 150.681 57.4435C150.59 57.3067 150.521 57.1472 150.476 56.9649C150.43 56.7826 150.398 56.6004 150.38 56.4181C150.371 56.2267 150.366 56.0808 150.366 55.9806C150.366 55.7071 150.38 55.4337 150.407 55.1602C150.444 54.8868 150.48 54.6134 150.517 54.3399C150.562 54.0665 150.599 53.7931 150.626 53.5196C150.663 53.2462 150.681 52.9727 150.681 52.6993C150.681 52.5899 150.676 52.4714 150.667 52.3438C150.658 52.2162 150.635 52.0977 150.599 51.9884C150.571 51.8699 150.521 51.7742 150.448 51.7013C150.376 51.6283 150.28 51.5919 150.161 51.5919C150.079 51.5919 149.988 51.6602 149.888 51.797C149.788 51.9246 149.692 52.075 149.601 52.2481C149.519 52.4122 149.446 52.5808 149.382 52.754C149.327 52.9181 149.3 53.0411 149.3 53.1231C149.3 53.3237 149.3 53.5287 149.3 53.7384C149.309 53.9389 149.314 54.144 149.314 54.3536V55.1466C149.305 55.3106 149.291 55.4793 149.273 55.6524C149.254 55.8256 149.227 55.9942 149.191 56.1583C149.163 56.3224 149.122 56.4819 149.068 56.6368C149.013 56.7826 148.94 56.9148 148.849 57.0333C148.767 57.1427 148.667 57.2338 148.548 57.3067C148.43 57.3796 148.288 57.4161 148.124 57.4161C147.942 57.4161 147.792 57.3569 147.673 57.2384C147.555 57.1199 147.459 56.9695 147.386 56.7872C147.313 56.5958 147.258 56.3862 147.222 56.1583C147.195 55.9213 147.172 55.6935 147.154 55.4747C147.144 55.2468 147.14 55.0418 147.14 54.8595C147.149 54.6681 147.154 54.5177 147.154 54.4083V53.7657C147.154 53.4194 147.144 53.0776 147.126 52.7403C147.117 52.4031 147.112 52.0658 147.112 51.7286C147.112 51.5463 147.112 51.3139 147.112 51.0313C147.122 50.7488 147.158 50.4754 147.222 50.211C147.286 49.9376 147.39 49.7052 147.536 49.5138C147.682 49.3224 147.896 49.2267 148.179 49.2267C148.307 49.2267 148.42 49.2677 148.521 49.3497C148.621 49.4317 148.708 49.532 148.78 49.6505C148.862 49.769 148.926 49.8966 148.972 50.0333C149.027 50.17 149.068 50.2885 149.095 50.3888C149.186 50.2612 149.291 50.1381 149.409 50.0196C149.537 49.9011 149.678 49.7963 149.833 49.7052C149.988 49.614 150.161 49.5411 150.353 49.4864C150.544 49.4317 150.763 49.4044 151.009 49.4044C151.474 49.4044 151.834 49.5183 152.089 49.7462C152.353 49.9649 152.545 50.2429 152.663 50.5802C152.791 50.9083 152.868 51.2638 152.896 51.6466C152.923 52.0294 152.937 52.3757 152.937 52.6856C152.937 52.8406 152.923 53.073 152.896 53.3829C152.868 53.6837 152.823 54.0209 152.759 54.3946C152.704 54.7592 152.627 55.1375 152.527 55.5294C152.426 55.9122 152.308 56.2631 152.171 56.5821C152.034 56.9011 151.87 57.1609 151.679 57.3614C151.497 57.5619 151.287 57.6622 151.05 57.6622ZM159.513 55.3517C159.513 55.5157 159.504 55.7299 159.486 55.9942C159.476 56.2586 159.44 56.5183 159.376 56.7735C159.312 57.0196 159.212 57.2338 159.075 57.4161C158.939 57.5984 158.747 57.6895 158.501 57.6895C158.164 57.6895 157.904 57.5802 157.722 57.3614C157.54 57.1427 157.453 56.8692 157.462 56.5411C157.17 56.7963 156.838 56.9968 156.464 57.1427C156.099 57.2885 155.726 57.3614 155.343 57.3614C155.079 57.3614 154.828 57.2976 154.591 57.17C154.354 57.0424 154.144 56.8783 153.962 56.6778C153.78 56.4773 153.634 56.254 153.525 56.0079C153.415 55.7527 153.361 55.502 153.361 55.256C153.361 54.8185 153.493 54.4356 153.757 54.1075C154.03 53.7794 154.363 53.5014 154.755 53.2735C155.147 53.0365 155.562 52.8497 155.999 52.713C156.446 52.5763 156.842 52.4851 157.189 52.4395C157.189 52.394 157.189 52.353 157.189 52.3165C157.198 52.28 157.202 52.239 157.202 52.1935C157.202 51.9109 157.125 51.683 156.97 51.5099C156.815 51.3367 156.596 51.2501 156.314 51.2501C156.086 51.2501 155.89 51.2911 155.726 51.3731C155.562 51.4461 155.407 51.5326 155.261 51.6329C155.115 51.724 154.969 51.8106 154.823 51.8927C154.678 51.9656 154.514 52.002 154.331 52.002C154.131 52.002 153.958 51.9382 153.812 51.8106C153.675 51.683 153.607 51.519 153.607 51.3185C153.607 51.0177 153.693 50.7442 153.866 50.4981C154.049 50.252 154.272 50.047 154.536 49.8829C154.81 49.7097 155.101 49.5776 155.411 49.4864C155.73 49.3862 156.022 49.336 156.286 49.336C156.532 49.336 156.779 49.3679 157.025 49.4317C157.271 49.4864 157.503 49.5776 157.722 49.7052C157.941 49.8237 158.137 49.974 158.31 50.1563C158.492 50.3295 158.638 50.5346 158.747 50.7716C158.911 51.1088 159.043 51.4688 159.144 51.8517C159.244 52.2254 159.321 52.6127 159.376 53.0138C159.431 53.4057 159.467 53.8022 159.486 54.2032C159.504 54.5951 159.513 54.978 159.513 55.3517ZM157.325 54.9142L157.284 53.9845C157.266 53.9845 157.248 53.9845 157.23 53.9845C157.211 53.9754 157.193 53.9708 157.175 53.9708C157.056 53.9708 156.906 54.0027 156.724 54.0665C156.551 54.1212 156.382 54.2032 156.218 54.3126C156.054 54.4129 155.913 54.5268 155.794 54.6544C155.685 54.782 155.63 54.9142 155.63 55.0509C155.63 55.1785 155.676 55.2651 155.767 55.3106C155.858 55.3562 155.963 55.379 156.081 55.379C156.282 55.379 156.496 55.3289 156.724 55.2286C156.952 55.1192 157.152 55.0144 157.325 54.9142ZM166.226 48.2833C166.226 48.9487 166.198 49.6095 166.144 50.2657C166.098 50.922 166.075 51.5828 166.075 52.2481C166.075 52.7859 166.089 53.3191 166.116 53.8477C166.153 54.3764 166.171 54.9096 166.171 55.4474C166.171 55.5932 166.167 55.7709 166.157 55.9806C166.148 56.1811 166.116 56.377 166.062 56.5685C166.016 56.7599 165.934 56.9239 165.816 57.0606C165.706 57.1974 165.547 57.2657 165.337 57.2657C165.064 57.2657 164.836 57.1655 164.654 56.9649C164.48 56.7553 164.371 56.5229 164.325 56.2677C164.152 56.5958 163.902 56.8738 163.573 57.1017C163.245 57.3295 162.89 57.4435 162.507 57.4435C162.097 57.4435 161.741 57.3022 161.441 57.0196C161.149 56.7371 160.903 56.3953 160.702 55.9942C160.511 55.5932 160.365 55.1739 160.265 54.7364C160.174 54.2989 160.128 53.9207 160.128 53.6017C160.128 53.3738 160.142 53.114 160.169 52.8224C160.196 52.5307 160.242 52.2345 160.306 51.9337C160.379 51.6329 160.47 51.3412 160.579 51.0587C160.689 50.767 160.825 50.5073 160.989 50.2794C161.163 50.0515 161.363 49.8692 161.591 49.7325C161.828 49.5958 162.097 49.5274 162.398 49.5274C162.726 49.5274 163.04 49.6231 163.341 49.8145C163.642 50.006 163.87 50.2429 164.025 50.5255L164.148 48.3517C164.157 48.1785 164.17 47.978 164.189 47.7501C164.207 47.5131 164.243 47.2898 164.298 47.0802C164.362 46.8705 164.458 46.6928 164.585 46.547C164.713 46.4011 164.9 46.3282 165.146 46.3282C165.41 46.3282 165.615 46.392 165.761 46.5196C165.907 46.6472 166.012 46.8113 166.075 47.0118C166.148 47.2032 166.189 47.4129 166.198 47.6407C166.217 47.8686 166.226 48.0828 166.226 48.2833ZM163.997 54.3536C163.997 54.144 163.993 53.9389 163.984 53.7384C163.974 53.5379 163.974 53.3328 163.984 53.1231C163.929 53.0046 163.865 52.877 163.792 52.7403C163.719 52.5945 163.628 52.4623 163.519 52.3438C163.418 52.2162 163.305 52.1114 163.177 52.0294C163.049 51.9474 162.913 51.9063 162.767 51.9063C162.603 51.9063 162.471 51.9565 162.37 52.0567C162.27 52.157 162.197 52.28 162.152 52.4259C162.106 52.5626 162.074 52.713 162.056 52.877C162.047 53.0411 162.042 53.1824 162.042 53.3009C162.042 53.4102 162.051 53.5743 162.07 53.7931C162.088 54.0027 162.12 54.2169 162.165 54.4356C162.22 54.6544 162.293 54.8458 162.384 55.0099C162.475 55.1739 162.598 55.256 162.753 55.256C162.872 55.256 162.99 55.2332 163.109 55.1876C163.227 55.1329 163.336 55.0691 163.437 54.9962C163.546 54.9142 163.646 54.8276 163.737 54.7364C163.838 54.6362 163.924 54.545 163.997 54.463V54.3536ZM172.939 55.3517C172.939 55.5157 172.93 55.7299 172.911 55.9942C172.902 56.2586 172.866 56.5183 172.802 56.7735C172.738 57.0196 172.638 57.2338 172.501 57.4161C172.364 57.5984 172.173 57.6895 171.927 57.6895C171.59 57.6895 171.33 57.5802 171.148 57.3614C170.965 57.1427 170.879 56.8692 170.888 56.5411C170.596 56.7963 170.264 56.9968 169.89 57.1427C169.525 57.2885 169.152 57.3614 168.769 57.3614C168.504 57.3614 168.254 57.2976 168.017 57.17C167.78 57.0424 167.57 56.8783 167.388 56.6778C167.206 56.4773 167.06 56.254 166.95 56.0079C166.841 55.7527 166.786 55.502 166.786 55.256C166.786 54.8185 166.918 54.4356 167.183 54.1075C167.456 53.7794 167.789 53.5014 168.181 53.2735C168.573 53.0365 168.987 52.8497 169.425 52.713C169.872 52.5763 170.268 52.4851 170.614 52.4395C170.614 52.394 170.614 52.353 170.614 52.3165C170.624 52.28 170.628 52.239 170.628 52.1935C170.628 51.9109 170.551 51.683 170.396 51.5099C170.241 51.3367 170.022 51.2501 169.739 51.2501C169.512 51.2501 169.316 51.2911 169.152 51.3731C168.987 51.4461 168.833 51.5326 168.687 51.6329C168.541 51.724 168.395 51.8106 168.249 51.8927C168.103 51.9656 167.939 52.002 167.757 52.002C167.556 52.002 167.383 51.9382 167.237 51.8106C167.101 51.683 167.032 51.519 167.032 51.3185C167.032 51.0177 167.119 50.7442 167.292 50.4981C167.474 50.252 167.698 50.047 167.962 49.8829C168.236 49.7097 168.527 49.5776 168.837 49.4864C169.156 49.3862 169.448 49.336 169.712 49.336C169.958 49.336 170.204 49.3679 170.45 49.4317C170.696 49.4864 170.929 49.5776 171.148 49.7052C171.366 49.8237 171.562 49.974 171.736 50.1563C171.918 50.3295 172.064 50.5346 172.173 50.7716C172.337 51.1088 172.469 51.4688 172.57 51.8517C172.67 52.2254 172.747 52.6127 172.802 53.0138C172.857 53.4057 172.893 53.8022 172.911 54.2032C172.93 54.5951 172.939 54.978 172.939 55.3517ZM170.751 54.9142L170.71 53.9845C170.692 53.9845 170.674 53.9845 170.655 53.9845C170.637 53.9754 170.619 53.9708 170.601 53.9708C170.482 53.9708 170.332 54.0027 170.15 54.0665C169.976 54.1212 169.808 54.2032 169.644 54.3126C169.48 54.4129 169.338 54.5268 169.22 54.6544C169.111 54.782 169.056 54.9142 169.056 55.0509C169.056 55.1785 169.101 55.2651 169.193 55.3106C169.284 55.3562 169.389 55.379 169.507 55.379C169.708 55.379 169.922 55.3289 170.15 55.2286C170.377 55.1192 170.578 55.0144 170.751 54.9142ZM175.741 56.6231C175.741 56.7416 175.714 56.851 175.659 56.9513C175.605 57.0424 175.532 57.1199 175.441 57.1837C175.359 57.2475 175.263 57.2976 175.154 57.3341C175.053 57.3705 174.948 57.3888 174.839 57.3888C174.702 57.3888 174.552 57.3614 174.388 57.3067C174.233 57.2612 174.087 57.1928 173.95 57.1017C173.823 57.0105 173.713 56.9057 173.622 56.7872C173.531 56.6596 173.486 56.5183 173.486 56.3634C173.486 56.1173 173.59 55.935 173.8 55.8165C174.01 55.6889 174.224 55.6251 174.443 55.6251C174.579 55.6251 174.721 55.6479 174.866 55.6935C175.021 55.739 175.163 55.8074 175.29 55.8985C175.427 55.9806 175.536 56.0854 175.618 56.213C175.7 56.3315 175.741 56.4682 175.741 56.6231Z" fill="white"/>
<defs>
<filter id="filter0_i_825_176" x="0.425751" y="0" width="209.314" height="118.893" filterUnits="userSpaceOnUse" color-interpolation-filters="sRGB">
<feFlood flood-opacity="0" result="BackgroundImageFix"/>
<feBlend mode="normal" in="SourceGraphic" in2="BackgroundImageFix" result="shape"/>
<feColorMatrix in="SourceAlpha" type="matrix" values="0 0 0 0 0 0 0 0 0 0 0 0 0 0 0 0 0 0 127 0" result="hardAlpha"/>
<feOffset dy="4"/>
<feGaussianBlur stdDeviation="2"/>
<feComposite in2="hardAlpha" operator="arithmetic" k2="-1" k3="1"/>
<feColorMatrix type="matrix" values="0 0 0 0 0 0 0 0 0 0 0 0 0 0 0 0 0 0 0.25 0"/>
<feBlend mode="normal" in2="shape" result="effect1_innerShadow_825_176"/>
</filter>
</defs>
</svg>
