<svg xmlns="http://www.w3.org/2000/svg" width="276" height="438" fill="none" viewBox="0 0 276 438"><g filter="url(#a)"><path fill="#f4719c" fill-rule="evenodd" d="M168.118 135.107c-12.022-4.723-17.269-11.693-17.269-19.237 0-9.283 10.584-18.453 28.092-22.987 8.492-2.199 18.469-3.157 29.932-3.157 35.099 0 67.466 9.471 66.084 26.144 0 8.272-5.99 15.88-18.19 20.421-6.582 2.45-14.89 3.908-25.263 4.374-5.014 8.756-13.458 14.743-26.386 23.655 8.912-9.793 14.69-16.445 16.563-23.371-23.809 1.214-41.883-1.253-53.563-5.842" clip-rule="evenodd"/></g><path fill="#f4719c" d="m168.118 135.107-.366.931zm10.823-42.224.25.968zm96.016 22.987-.996-.083-.004.083zm-18.19 20.421-.349-.937zm-25.263 4.374-.045-.999a1 1 0 0 0-.823.502zm-26.386 23.655-.74-.673a1 1 0 0 0 1.307 1.497zm16.563-23.371.965.261a1 1 0 0 0-1.016-1.26zm-71.832-25.079c0 8.12 5.68 15.366 17.903 20.168l.732-1.862c-11.82-4.643-16.635-11.338-16.635-18.306zm28.841-23.955c-8.855 2.293-16.023 5.774-21 9.912-4.969 4.131-7.841 9.001-7.841 14.043h2c0-4.241 2.42-8.598 7.12-12.505 4.692-3.901 11.569-7.273 20.222-9.514zm30.183-3.189c-11.512 0-21.581.961-30.183 3.189l.501 1.936c8.382-2.17 18.268-3.125 29.682-3.125zm67.081 27.226c.376-4.544-1.567-8.541-5.113-11.925-3.528-3.365-8.684-6.171-14.906-8.422-12.45-4.504-29.441-6.879-47.062-6.879v2c17.478 0 34.22 2.36 46.382 6.76 6.085 2.201 10.956 4.889 14.205 7.988 3.231 3.082 4.815 6.521 4.501 10.313zm-18.838 21.276c12.42-4.623 18.841-12.511 18.841-21.358h-2c0 7.698-5.56 15.024-17.539 19.484zm-25.567 4.436c10.435-.469 18.855-1.937 25.567-4.436l-.698-1.874c-6.451 2.401-14.648 3.848-24.959 4.312zm-.913-1.496c-4.879 8.521-13.107 14.381-26.086 23.329l1.135 1.647c12.878-8.878 21.538-14.99 26.686-23.982zm-24.779 24.825c4.452-4.891 8.158-9.038 10.984-12.837 2.829-3.802 4.822-7.312 5.805-10.946l-1.931-.523c-.89 3.293-2.722 6.571-5.478 10.275-2.759 3.707-6.398 7.783-10.859 12.685zm-38.105-28.955c11.865 4.661 30.099 7.128 53.98 5.909l-.102-1.997c-23.736 1.211-41.651-1.257-53.146-5.774z"/><path fill="#fff" d="M195.371 113.103q0 .527-.131 1.187a15 15 0 0 1-.337 1.318q-.19.674-.425 1.318-.22.63-.396 1.143-.117.322-.263.806-.132.468-.323.996-.176.527-.395 1.054a7 7 0 0 1-.484.953 2.8 2.8 0 0 1-.585.673q-.309.264-.674.264-.308 0-.601-.278a4 4 0 0 1-.542-.703 11 11 0 0 1-.483-.967 36 36 0 0 1-.41-1.055q-.176-.513-.308-.952a86 86 0 0 1-.732-2.974 10.6 10.6 0 0 1-.264-2.343q0-.294.029-.601.03-.322.147-.586t.322-.425q.22-.175.601-.175.322 0 .585.366.279.351.498.923.22.57.396 1.274.19.703.352 1.392.161.674.307 1.274.146.586.293.938.088-.294.249-.85.175-.572.396-1.245.234-.674.498-1.377.278-.718.571-1.289.308-.586.63-.952.322-.367.659-.367.25 0 .41.118a.76.76 0 0 1 .249.307q.089.19.117.41.045.22.044.425m6.446 7.632q0 .264-.03.688a4 4 0 0 1-.117.835 2 2 0 0 1-.322.689.73.73 0 0 1-.615.293q-.543 0-.835-.352-.293-.351-.279-.879a3.6 3.6 0 0 1-1.069.645 3.2 3.2 0 0 1-1.201.234q-.425 0-.806-.205a2.5 2.5 0 0 1-.674-.527 2.7 2.7 0 0 1-.468-.718 2 2 0 0 1-.176-.806q0-.702.425-1.23a4 4 0 0 1 1.069-.894q.63-.38 1.333-.6a8 8 0 0 1 1.274-.293v-.132a.5.5 0 0 0 .015-.132q0-.454-.249-.732-.249-.279-.703-.279-.366 0-.63.132a3 3 0 0 0-.498.279q-.234.146-.469.278a1.16 1.16 0 0 1-.527.117.82.82 0 0 1-.557-.205.7.7 0 0 1-.219-.527q0-.484.278-.879.292-.396.718-.659a3.7 3.7 0 0 1 .937-.425q.512-.161.938-.161.395 0 .791.102.394.088.747.293.351.19.63.484.292.278.468.659.264.542.425 1.157.162.6.249 1.245.088.63.117 1.275.03.63.03 1.23m-2.344-.469-.044-.996h-.059a.1.1 0 0 0-.058-.014q-.19 0-.484.102a2.2 2.2 0 0 0-.542.264 2.1 2.1 0 0 0-.454.366.65.65 0 0 0-.175.425q0 .204.146.278.147.073.337.073.322 0 .688-.161.367-.175.645-.337m12.114-2.3v.762q0 .469-.029 1.026-.015.556-.088 1.128a5 5 0 0 1-.234 1.01 2.3 2.3 0 0 1-.381.747.73.73 0 0 1-.601.293.56.56 0 0 1-.498-.263 2.1 2.1 0 0 1-.234-.645 5 5 0 0 1-.088-.747v-.601q0-.659.044-1.289t.044-1.289v-.263q0-.19-.03-.381a1.1 1.1 0 0 0-.102-.337q-.059-.147-.19-.147-.264 0-.425.279a2.4 2.4 0 0 0-.264.63 5 5 0 0 0-.146.732q-.045.351-.059.527-.03.19-.059.572a14 14 0 0 1-.058.835 8 8 0 0 1-.117.937 5.4 5.4 0 0 1-.205.864 2 2 0 0 1-.308.63.57.57 0 0 1-.469.249.6.6 0 0 1-.542-.307 2.2 2.2 0 0 1-.278-.718 6 6 0 0 1-.117-.835q-.015-.425-.015-.659v-.484q.015-.234.015-.483v-.337q0-.234-.015-.513 0-.293-.029-.6a5 5 0 0 0-.059-.557 1.4 1.4 0 0 0-.132-.425q-.087-.16-.205-.161-.19 0-.351.249a2.4 2.4 0 0 0-.279.571q-.117.323-.19.645a3 3 0 0 0-.059.469v.088q0 .702.088 1.377.088.674.088 1.377 0 .41-.264.761-.263.337-.732.337a.71.71 0 0 1-.557-.249 2.2 2.2 0 0 1-.366-.674 5.6 5.6 0 0 1-.234-.893 12 12 0 0 1-.103-.967q-.029-.483-.044-.864v-.586q0-.22-.014-.645 0-.425.014-.923.03-.498.088-1.01.059-.528.191-.952.131-.426.336-.689a.68.68 0 0 1 .557-.278q.381 0 .615.205.249.206.249.615 0 .088-.014.176a1 1 0 0 1-.015.161q.161-.235.396-.469.234-.249.498-.439a2.5 2.5 0 0 1 .586-.323q.308-.13.615-.131.293 0 .527.161.234.16.41.41.177.234.293.513.117.278.161.527.147-.264.352-.527.22-.279.469-.484t.542-.337q.308-.132.63-.132.307 0 .527.22.219.22.381.571.16.338.249.777.087.425.146.849a8 8 0 0 1 .074.777q.014.351.014.556m3.75 5.259a2.2 2.2 0 0 1-1.304-.395 3.5 3.5 0 0 1-.937-1.011 4.8 4.8 0 0 1-.571-1.362 6.2 6.2 0 0 1-.191-1.494q0-.777.191-1.597.19-.835.586-1.509.395-.689 1.01-1.113.616-.44 1.465-.44.82 0 1.392.454.585.44.937 1.114.353.659.498 1.45.147.79.103 1.494a8 8 0 0 1-.249 1.567 5 5 0 0 1-.571 1.421q-.381.63-.967 1.026-.586.395-1.392.395m.147-6.621q-.22 0-.396.235-.16.234-.278.571a5 5 0 0 0-.161.718 4 4 0 0 0-.059.644q0 .352.059.762.073.41.19.762.117.337.278.571.177.22.396.22.234 0 .395-.22.176-.22.279-.557.102-.337.146-.732.044-.411.044-.762 0-.322-.058-.703a4 4 0 0 0-.176-.732 1.6 1.6 0 0 0-.278-.557q-.162-.22-.381-.22m8.071-1.86q0 .425-.293.63a5.5 5.5 0 0 1-.63.395 3.2 3.2 0 0 0-.644.425q-.279.249-.279.747a.85.85 0 0 0 .117.454q.132.19.308.352.19.146.41.307.22.162.396.367.19.204.307.498.132.293.132.717 0 .616-.322 1.216a4 4 0 0 1-.806 1.055 4 4 0 0 1-1.098.732 2.9 2.9 0 0 1-1.216.279 3 3 0 0 1-.498-.044 1.4 1.4 0 0 1-.454-.132 1 1 0 0 1-.323-.278.84.84 0 0 1-.131-.484q0-.41.161-.63.16-.234.41-.366t.527-.205q.293-.073.542-.176.25-.117.41-.293.162-.175.161-.498 0-.308-.249-.63a13 13 0 0 0-.527-.703 8 8 0 0 1-.542-.806 1.9 1.9 0 0 1-.234-.937q0-.63.249-1.157.264-.543.688-.938.44-.395.996-.615a3 3 0 0 1 1.172-.234q.234 0 .454.044.235.044.41.161a.73.73 0 0 1 .279.293.8.8 0 0 1 .117.454m6.855-.821q0 .792-.073 1.597-.058.792-.058 1.597 0 1.04.058 2.08.073 1.04.073 2.095 0 .263-.029.6a2 2 0 0 1-.146.601 1.13 1.13 0 0 1-.323.469q-.219.19-.586.19-.351 0-.615-.352a3.1 3.1 0 0 1-.425-.864q-.16-.542-.278-1.201a22 22 0 0 1-.161-1.274 87 87 0 0 1-.073-1.143q-.015-.527-.015-.776 0-.279.015-.806.029-.527.102-1.143.074-.615.191-1.245.132-.644.337-1.157.204-.527.483-.85.293-.336.688-.336.322 0 .484.219.175.206.249.513.073.292.088.63.015.322.014.556m7.339 6.812q0 .264-.029.688a4 4 0 0 1-.117.835 2 2 0 0 1-.322.689.73.73 0 0 1-.616.293q-.541 0-.835-.352-.293-.351-.278-.879a3.6 3.6 0 0 1-1.069.645 3.2 3.2 0 0 1-1.201.234q-.425 0-.806-.205a2.5 2.5 0 0 1-.674-.527 2.7 2.7 0 0 1-.469-.718 2 2 0 0 1-.175-.806q0-.702.424-1.23.44-.527 1.07-.894.63-.38 1.333-.6a8 8 0 0 1 1.274-.293v-.132a.5.5 0 0 0 .015-.132q0-.454-.249-.732-.25-.279-.703-.279-.368 0-.63.132a3 3 0 0 0-.498.279 14 14 0 0 1-.469.278 1.16 1.16 0 0 1-.527.117.82.82 0 0 1-.557-.205.7.7 0 0 1-.22-.527q0-.484.279-.879a2.6 2.6 0 0 1 .717-.659q.44-.28.938-.425a3.1 3.1 0 0 1 .937-.161q.396 0 .791.102.396.088.747.293.352.19.63.484.294.278.469.659.263.542.425 1.157.16.6.249 1.245.087.63.117 1.275.03.63.029 1.23m-2.343-.469-.044-.996h-.059a.13.13 0 0 0-.059-.014q-.19 0-.483.102a2.2 2.2 0 0 0-.542.264 2.1 2.1 0 0 0-.454.366.65.65 0 0 0-.176.425q0 .204.147.278a.74.74 0 0 0 .337.073q.321 0 .688-.161.366-.175.645-.337m.703-8.554q0 .16-.088.322-.088.147-.22.278a2 2 0 0 1-.264.249q-.146.103-.263.191a6 6 0 0 0-.235.175 3 3 0 0 1-.263.176 2 2 0 0 1-.279.132.6.6 0 0 1-.263.059.36.36 0 0 1-.205-.059.25.25 0 0 1-.088-.205q0-.22.161-.527.176-.322.425-.616.249-.308.527-.512.278-.22.513-.22.204 0 .366.176a.5.5 0 0 1 .176.381m9.096 3.208q0 .468-.249.878a3.6 3.6 0 0 1-.6.748 4.5 4.5 0 0 1-.791.6 6 6 0 0 1-.791.396 12 12 0 0 1 .073 2.006q0 .309-.088.586a1 1 0 0 1-.264.455q-.176.19-.512.19-.587 0-.791-.586a3 3 0 0 1-.117-.586 19 19 0 0 1-.074-.776 24 24 0 0 1-.014-.791v-.63q0-.205.014-.484a1 1 0 0 1 .147-.454q.132-.19.439-.366.308-.19.63-.395a3 3 0 0 0 .586-.454.8.8 0 0 0 .249-.586.9.9 0 0 0-.117-.455 1 1 0 0 0-.308-.336 1.2 1.2 0 0 0-.41-.22 1.2 1.2 0 0 0-.454-.088q-.557 0-.879.19-.322.176-.557.396l-.424.395a.7.7 0 0 1-.498.176.97.97 0 0 1-.645-.249.78.78 0 0 1-.278-.6q0-.572.337-.967.336-.411.835-.645a4 4 0 0 1 1.054-.351q.556-.117.996-.118.586 0 1.202.264a4 4 0 0 1 1.127.674q.513.424.835.996a2.3 2.3 0 0 1 .337 1.187m-2.168 7.119a.7.7 0 0 1-.131.425 1 1 0 0 1-.308.293 1.3 1.3 0 0 1-.41.175 1.7 1.7 0 0 1-.425.059 1.3 1.3 0 0 1-.63-.161q-.278-.161-.278-.528 0-.234.117-.41.132-.19.322-.322t.41-.19a1.5 1.5 0 0 1 .44-.074q.337 0 .615.176t.278.557"/><defs><filter id="a" width="126.151" height="80.594" x="149.849" y="88.726" color-interpolation-filters="sRGB" filterUnits="userSpaceOnUse"><feFlood flood-opacity="0" result="BackgroundImageFix"/><feBlend in="SourceGraphic" in2="BackgroundImageFix" result="shape"/><feColorMatrix in="SourceAlpha" result="hardAlpha" values="0 0 0 0 0 0 0 0 0 0 0 0 0 0 0 0 0 0 127 0"/><feOffset dy="4"/><feGaussianBlur stdDeviation="2"/><feComposite in2="hardAlpha" k2="-1" k3="1" operator="arithmetic"/><feColorMatrix values="0 0 0 0 0 0 0 0 0 0 0 0 0 0 0 0 0 0 0.25 0"/><feBlend in2="shape" result="effect1_innerShadow_829_194"/></filter></defs></svg>