<svg width="234" height="131" viewBox="0 0 234 131" fill="none" xmlns="http://www.w3.org/2000/svg">
<g filter="url(#filter0_i_694_198)">
<path fill-rule="evenodd" clip-rule="evenodd" d="M33.2704 68.0543C10.8056 61.0757 1 50.7764 1 39.6292C1 25.9135 20.7773 12.3641 53.4944 5.6647C69.3632 2.41527 88.0078 1 109.43 1C175.017 1 235.502 14.994 232.92 39.6292C232.92 51.8528 221.726 63.0932 198.927 69.8036C189.284 72.6419 177.658 74.5789 163.743 75.615C154.304 88.9475 137.696 98.9146 112.419 113.711C129.955 97.7718 141.194 87.0667 144.104 76.4584C141.914 76.4922 139.68 76.5091 137.399 76.5091C90.9109 78.6965 55.7522 75.0383 33.2704 68.0543Z" fill="#F4719C"/>
</g>
<path d="M33.2704 68.0543L33.567 67.0994L33.567 67.0994L33.2704 68.0543ZM53.4944 5.6647L53.2937 4.68503L53.2937 4.68503L53.4944 5.6647ZM232.92 39.6292L231.926 39.5249C231.922 39.5596 231.92 39.5944 231.92 39.6292H232.92ZM198.927 69.8036L198.645 68.8443L198.645 68.8443L198.927 69.8036ZM163.743 75.615L163.668 74.6178C163.371 74.6399 163.099 74.7938 162.926 75.0372L163.743 75.615ZM112.419 113.711L111.746 112.971C111.367 113.315 111.31 113.89 111.613 114.303C111.916 114.716 112.482 114.832 112.924 114.574L112.419 113.711ZM144.104 76.4584L145.068 76.7229C145.151 76.4194 145.087 76.0945 144.894 75.8458C144.702 75.5971 144.403 75.4536 144.088 75.4585L144.104 76.4584ZM137.399 76.5091V75.5091C137.383 75.5091 137.367 75.5094 137.352 75.5102L137.399 76.5091ZM0 39.6292C0 51.4891 10.4319 62.0068 32.9737 69.0093L33.567 67.0994C11.1792 60.1446 2 50.0636 2 39.6292H0ZM53.2937 4.68503C36.8573 8.0507 23.6024 13.1493 14.4289 19.1802C5.29253 25.1868 0 32.2657 0 39.6292H2C2 33.2769 6.5961 26.7233 15.5276 20.8514C24.4221 15.0039 37.4144 9.97812 53.695 6.64437L53.2937 4.68503ZM109.43 0C87.9692 0 69.2519 1.41731 53.2937 4.68503L53.695 6.64437C69.4745 3.41323 88.0463 2 109.43 2V0ZM233.915 39.7334C234.611 33.0865 231.018 27.2887 224.539 22.402C218.066 17.519 208.563 13.4185 197.013 10.115C173.897 3.50288 142.279 0 109.43 0V2C142.168 2 173.586 5.49412 196.463 12.0378C207.911 15.3122 217.144 19.3293 223.335 23.9988C229.521 28.6646 232.52 33.8542 231.926 39.5249L233.915 39.7334ZM199.21 70.7629C222.1 64.0254 233.92 52.5667 233.92 39.6292H231.92C231.92 51.1389 221.351 62.161 198.645 68.8443L199.21 70.7629ZM163.817 76.6123C177.779 75.5726 189.479 73.6269 199.21 70.7629L198.645 68.8443C189.089 71.657 177.536 73.5851 163.668 74.6178L163.817 76.6123ZM162.926 75.0372C153.641 88.1543 137.26 98.011 111.913 112.848L112.924 114.574C138.132 99.8181 154.968 89.7406 164.559 76.1928L162.926 75.0372ZM113.091 114.451C121.853 106.487 129.085 99.7921 134.491 93.7525C139.892 87.7184 143.552 82.2506 145.068 76.7229L143.139 76.1938C141.746 81.2744 138.331 86.4634 133.001 92.4187C127.676 98.3685 120.521 104.995 111.746 112.971L113.091 114.451ZM137.399 77.5091C139.685 77.5091 141.925 77.4921 144.119 77.4582L144.088 75.4585C141.904 75.4922 139.675 75.5091 137.399 75.5091V77.5091ZM32.9737 69.0093C55.6128 76.0421 90.9025 79.698 137.446 77.508L137.352 75.5102C90.9194 77.695 55.8916 74.0344 33.567 67.0994L32.9737 69.0093Z" fill="#F4719C"/>
<path d="M30.3438 37.6562C30.3438 38.0312 30.2969 38.4531 30.2031 38.9219C30.1094 39.3802 29.9896 39.849 29.8438 40.3281C29.7083 40.8073 29.5573 41.276 29.3906 41.7344C29.2344 42.1823 29.0938 42.5885 28.9688 42.9531C28.8854 43.1823 28.7917 43.4688 28.6875 43.8125C28.5938 44.1458 28.4792 44.5 28.3438 44.875C28.2188 45.25 28.0781 45.625 27.9219 46C27.7656 46.375 27.5938 46.7135 27.4062 47.0156C27.2188 47.3073 27.0104 47.5469 26.7812 47.7344C26.5625 47.9219 26.3229 48.0156 26.0625 48.0156C25.8438 48.0156 25.6302 47.9167 25.4219 47.7188C25.224 47.5208 25.0312 47.2708 24.8438 46.9688C24.6667 46.6562 24.4948 46.3125 24.3281 45.9375C24.1719 45.5521 24.026 45.1771 23.8906 44.8125C23.7656 44.4479 23.6562 44.1094 23.5625 43.7969C23.4792 43.4844 23.4167 43.2448 23.375 43.0781C23.1667 42.2656 22.9688 41.4479 22.7812 40.625C22.5938 39.7917 22.5 38.9583 22.5 38.125C22.5 37.9167 22.5104 37.7031 22.5312 37.4844C22.5521 37.2552 22.6042 37.0469 22.6875 36.8594C22.7708 36.6719 22.8854 36.5208 23.0312 36.4062C23.1875 36.2812 23.401 36.2188 23.6719 36.2188C23.901 36.2188 24.1094 36.349 24.2969 36.6094C24.4948 36.8594 24.6719 37.1875 24.8281 37.5938C24.9844 38 25.125 38.4531 25.25 38.9531C25.3854 39.4531 25.5104 39.9479 25.625 40.4375C25.7396 40.9167 25.849 41.3698 25.9531 41.7969C26.0573 42.2135 26.1615 42.5469 26.2656 42.7969C26.3281 42.5885 26.4167 42.2865 26.5312 41.8906C26.6562 41.4844 26.7969 41.0417 26.9531 40.5625C27.1198 40.0833 27.2969 39.5938 27.4844 39.0938C27.6823 38.5833 27.8854 38.125 28.0938 37.7188C28.3125 37.3021 28.5365 36.9635 28.7656 36.7031C28.9948 36.4427 29.2292 36.3125 29.4688 36.3125C29.6458 36.3125 29.7917 36.3542 29.9062 36.4375C30.0208 36.5208 30.1094 36.6302 30.1719 36.7656C30.2344 36.901 30.276 37.0469 30.2969 37.2031C30.3281 37.3594 30.3438 37.5104 30.3438 37.6562ZM33.3906 48.4531C32.8594 48.4531 32.3958 48.3125 32 48.0312C31.6042 47.75 31.2708 47.3906 31 46.9531C30.7292 46.5156 30.526 46.0312 30.3906 45.5C30.2552 44.9583 30.1875 44.4271 30.1875 43.9062C30.1875 43.3542 30.2552 42.7865 30.3906 42.2031C30.526 41.6094 30.7344 41.0729 31.0156 40.5938C31.2969 40.1042 31.6562 39.7083 32.0938 39.4062C32.5312 39.0938 33.0521 38.9375 33.6562 38.9375C34.2396 38.9375 34.7344 39.099 35.1406 39.4219C35.5573 39.7344 35.8906 40.1302 36.1406 40.6094C36.3906 41.0781 36.5677 41.5938 36.6719 42.1562C36.776 42.7188 36.8125 43.25 36.7812 43.75C36.75 44.3021 36.6615 44.8594 36.5156 45.4219C36.3802 45.9844 36.1771 46.4896 35.9062 46.9375C35.6354 47.3854 35.2917 47.75 34.875 48.0312C34.4583 48.3125 33.9635 48.4531 33.3906 48.4531ZM33.5469 41.3906C33.3906 41.3906 33.25 41.474 33.125 41.6406C33.0104 41.8073 32.9115 42.0104 32.8281 42.25C32.7552 42.4896 32.6979 42.7448 32.6562 43.0156C32.6146 43.276 32.5938 43.5052 32.5938 43.7031C32.5938 43.9531 32.6146 44.224 32.6562 44.5156C32.7083 44.8073 32.776 45.0781 32.8594 45.3281C32.9427 45.5677 33.0417 45.7708 33.1562 45.9375C33.2812 46.0938 33.4219 46.1719 33.5781 46.1719C33.7448 46.1719 33.8854 46.0938 34 45.9375C34.125 45.7812 34.224 45.5833 34.2969 45.3438C34.3698 45.1042 34.4219 44.8438 34.4531 44.5625C34.4844 44.2708 34.5 44 34.5 43.75C34.5 43.5208 34.4792 43.2708 34.4375 43C34.3958 42.7188 34.3333 42.4583 34.25 42.2188C34.1771 41.9792 34.0781 41.7812 33.9531 41.625C33.8385 41.4688 33.7031 41.3906 33.5469 41.3906ZM43.375 42C43.375 42.0521 43.3698 42.1094 43.3594 42.1719C43.349 42.224 43.3333 42.276 43.3125 42.3281C43.2188 42.5677 43.0729 42.7708 42.875 42.9375C42.6771 43.0938 42.4427 43.1719 42.1719 43.1719C41.7656 43.1719 41.4896 42.9688 41.3438 42.5625C41.3229 42.5104 41.3125 42.4531 41.3125 42.3906C41.3125 42.3177 41.3073 42.2448 41.2969 42.1719V41.7188C41.276 41.5729 41.2396 41.4583 41.1875 41.375C41.1354 41.2917 41.0469 41.25 40.9219 41.25C40.7448 41.25 40.5729 41.3646 40.4062 41.5938C40.25 41.8125 40.1094 42.0781 39.9844 42.3906C39.8698 42.6927 39.776 43.0052 39.7031 43.3281C39.6302 43.651 39.5938 43.9115 39.5938 44.1094C39.5938 44.2656 39.6042 44.4583 39.625 44.6875C39.6458 44.9062 39.6875 45.1198 39.75 45.3281C39.8125 45.5365 39.8958 45.7188 40 45.875C40.1146 46.0208 40.2604 46.0938 40.4375 46.0938C40.6146 46.0938 40.776 46.0417 40.9219 45.9375C41.0781 45.8229 41.2292 45.6927 41.375 45.5469C41.5104 45.4219 41.6562 45.2917 41.8125 45.1562C41.9792 45.0208 42.1667 44.9531 42.375 44.9531C42.6354 44.9531 42.8385 45.0469 42.9844 45.2344C43.1406 45.4219 43.2188 45.6354 43.2188 45.875C43.2188 46.2292 43.125 46.5625 42.9375 46.875C42.75 47.1771 42.5156 47.4427 42.2344 47.6719C41.9531 47.8906 41.6406 48.0625 41.2969 48.1875C40.9531 48.3229 40.625 48.3906 40.3125 48.3906C39.75 48.3906 39.2708 48.25 38.875 47.9688C38.4896 47.6875 38.1771 47.3333 37.9375 46.9062C37.6979 46.4688 37.526 45.9948 37.4219 45.4844C37.3177 44.974 37.2656 44.4896 37.2656 44.0312C37.2656 43.5 37.3385 42.9271 37.4844 42.3125C37.6302 41.6875 37.8542 41.1094 38.1562 40.5781C38.4583 40.0469 38.8438 39.6042 39.3125 39.25C39.7917 38.8958 40.3594 38.7188 41.0156 38.7188C41.4219 38.7188 41.7708 38.8073 42.0625 38.9844C42.3646 39.1615 42.6094 39.3958 42.7969 39.6875C42.9948 39.9688 43.1406 40.2865 43.2344 40.6406C43.3385 40.9948 43.3906 41.3438 43.3906 41.6875C43.3906 41.7396 43.3906 41.7917 43.3906 41.8438C43.3906 41.8958 43.3854 41.9479 43.375 42ZM50.7969 45.2188C50.7969 45.5729 50.6823 45.9219 50.4531 46.2656C50.2344 46.599 49.9531 46.901 49.6094 47.1719C49.276 47.4323 48.9167 47.6458 48.5312 47.8125C48.1458 47.9688 47.7917 48.0469 47.4688 48.0469C46.9167 48.0469 46.4219 47.9115 45.9844 47.6406C45.5573 47.3594 45.1979 47.0052 44.9062 46.5781C44.6146 46.151 44.3906 45.6823 44.2344 45.1719C44.0885 44.651 44.0156 44.1458 44.0156 43.6562C44.0156 43.1354 44.0885 42.5781 44.2344 41.9844C44.3802 41.3906 44.599 40.8438 44.8906 40.3438C45.1927 39.8438 45.5677 39.4271 46.0156 39.0938C46.474 38.7604 47.0156 38.5938 47.6406 38.5938C47.9948 38.5938 48.3333 38.6562 48.6562 38.7812C48.9792 38.8958 49.2604 39.0625 49.5 39.2812C49.7396 39.5 49.9323 39.7604 50.0781 40.0625C50.224 40.3646 50.2969 40.7031 50.2969 41.0781C50.2969 41.5677 50.1927 42.026 49.9844 42.4531C49.776 42.8802 49.5 43.25 49.1562 43.5625C48.8125 43.875 48.4167 44.1302 47.9688 44.3281C47.5208 44.5156 47.0625 44.6198 46.5938 44.6406C46.6354 44.9427 46.7552 45.1615 46.9531 45.2969C47.1615 45.4323 47.4062 45.5 47.6875 45.5C47.8958 45.5 48.099 45.4479 48.2969 45.3438C48.4948 45.2396 48.6875 45.125 48.875 45C49.0625 44.8646 49.2448 44.7448 49.4219 44.6406C49.6094 44.5365 49.7969 44.4844 49.9844 44.4844C50.1927 44.4844 50.3802 44.5521 50.5469 44.6875C50.7135 44.8229 50.7969 45 50.7969 45.2188ZM48.2656 41.3906C48.2656 41.2552 48.2292 41.1146 48.1562 40.9688C48.0833 40.8229 47.9688 40.75 47.8125 40.75C47.5833 40.75 47.3906 40.8125 47.2344 40.9375C47.0781 41.0521 46.9479 41.2031 46.8438 41.3906C46.7396 41.5677 46.6562 41.7604 46.5938 41.9688C46.5417 42.1771 46.5104 42.3698 46.5 42.5469C46.6458 42.5156 46.8177 42.474 47.0156 42.4219C47.224 42.3698 47.4167 42.3021 47.5938 42.2188C47.7812 42.125 47.9375 42.0104 48.0625 41.875C48.1979 41.7396 48.2656 41.5781 48.2656 41.3906ZM49.6562 37.5469C49.6562 37.6302 49.6406 37.6823 49.6094 37.7031C49.5781 37.724 49.526 37.7344 49.4531 37.7344C49.3281 37.7344 49.1875 37.7031 49.0312 37.6406C48.8854 37.5781 48.7344 37.5 48.5781 37.4062C48.4323 37.3125 48.2865 37.2135 48.1406 37.1094C48.0052 37.0052 47.8906 36.9115 47.7969 36.8281C47.6927 36.9115 47.5677 37.0104 47.4219 37.125C47.2865 37.2396 47.1406 37.349 46.9844 37.4531C46.8281 37.5469 46.6719 37.6302 46.5156 37.7031C46.3594 37.7656 46.2135 37.7969 46.0781 37.7969C46.026 37.7969 45.974 37.7865 45.9219 37.7656C45.8802 37.7448 45.8594 37.6927 45.8594 37.6094C45.8594 37.4531 45.9271 37.2552 46.0625 37.0156C46.1979 36.776 46.3646 36.5469 46.5625 36.3281C46.7604 36.1094 46.9688 35.9219 47.1875 35.7656C47.4062 35.6094 47.599 35.5312 47.7656 35.5312C47.9323 35.5312 48.125 35.6094 48.3438 35.7656C48.5625 35.9115 48.7656 36.0885 48.9531 36.2969C49.151 36.5052 49.3177 36.724 49.4531 36.9531C49.5885 37.1823 49.6562 37.3802 49.6562 37.5469ZM59.7656 39.4062C59.7656 39.7083 59.6615 39.9323 59.4531 40.0781C59.2552 40.224 59.0312 40.3646 58.7812 40.5C58.5312 40.625 58.3021 40.776 58.0938 40.9531C57.8958 41.1302 57.7969 41.3958 57.7969 41.75C57.7969 41.9375 57.8385 42.099 57.9219 42.2344C58.0156 42.3698 58.125 42.4948 58.25 42.6094C58.3854 42.7135 58.5312 42.8229 58.6875 42.9375C58.8438 43.0521 58.9844 43.1823 59.1094 43.3281C59.2448 43.474 59.3542 43.651 59.4375 43.8594C59.5312 44.0677 59.5781 44.3229 59.5781 44.625C59.5781 45.0625 59.4635 45.4948 59.2344 45.9219C59.0156 46.3385 58.7292 46.7135 58.375 47.0469C58.0312 47.3698 57.6406 47.6302 57.2031 47.8281C56.7656 48.026 56.3333 48.125 55.9062 48.125C55.7292 48.125 55.5521 48.1094 55.375 48.0781C55.1979 48.0573 55.0365 48.0104 54.8906 47.9375C54.7552 47.8646 54.6406 47.7656 54.5469 47.6406C54.4531 47.5052 54.4062 47.3333 54.4062 47.125C54.4062 46.8333 54.4635 46.6094 54.5781 46.4531C54.6927 46.2865 54.8385 46.1562 55.0156 46.0625C55.1927 45.9688 55.3802 45.8958 55.5781 45.8438C55.7865 45.7917 55.9792 45.7292 56.1562 45.6562C56.3333 45.5729 56.4792 45.4688 56.5938 45.3438C56.7083 45.2188 56.7656 45.0417 56.7656 44.8125C56.7656 44.5938 56.6771 44.3698 56.5 44.1406C56.3333 43.901 56.1458 43.651 55.9375 43.3906C55.7292 43.1198 55.5365 42.8333 55.3594 42.5312C55.1927 42.2292 55.1094 41.8958 55.1094 41.5312C55.1094 41.0833 55.1979 40.6719 55.375 40.2969C55.5625 39.9115 55.8073 39.5781 56.1094 39.2969C56.4219 39.0156 56.776 38.7969 57.1719 38.6406C57.5677 38.474 57.9844 38.3906 58.4219 38.3906C58.5885 38.3906 58.75 38.4062 58.9062 38.4375C59.0729 38.4688 59.2188 38.526 59.3438 38.6094C59.4688 38.6823 59.5677 38.7865 59.6406 38.9219C59.724 39.0469 59.7656 39.2083 59.7656 39.4062ZM67.0312 45.7969C67.0312 45.9844 67.0208 46.2292 67 46.5312C66.9896 46.8333 66.9479 47.1302 66.875 47.4219C66.8021 47.7031 66.6875 47.9479 66.5312 48.1562C66.375 48.3646 66.1562 48.4688 65.875 48.4688C65.4896 48.4688 65.1927 48.3438 64.9844 48.0938C64.776 47.8438 64.6771 47.5312 64.6875 47.1562C64.3542 47.4479 63.974 47.6771 63.5469 47.8438C63.1302 48.0104 62.7031 48.0938 62.2656 48.0938C61.9635 48.0938 61.6771 48.0208 61.4062 47.875C61.1354 47.7292 60.8958 47.5417 60.6875 47.3125C60.4792 47.0833 60.3125 46.8281 60.1875 46.5469C60.0625 46.2552 60 45.9688 60 45.6875C60 45.1875 60.151 44.75 60.4531 44.375C60.7656 44 61.1458 43.6823 61.5938 43.4219C62.0417 43.151 62.5156 42.9375 63.0156 42.7812C63.526 42.625 63.9792 42.5208 64.375 42.4688C64.375 42.4167 64.375 42.3698 64.375 42.3281C64.3854 42.2865 64.3906 42.2396 64.3906 42.1875C64.3906 41.8646 64.3021 41.6042 64.125 41.4062C63.9479 41.2083 63.6979 41.1094 63.375 41.1094C63.1146 41.1094 62.8906 41.1562 62.7031 41.25C62.5156 41.3333 62.3385 41.4323 62.1719 41.5469C62.0052 41.651 61.8385 41.75 61.6719 41.8438C61.5052 41.9271 61.3177 41.9688 61.1094 41.9688C60.8802 41.9688 60.6823 41.8958 60.5156 41.75C60.3594 41.6042 60.2812 41.4167 60.2812 41.1875C60.2812 40.8438 60.3802 40.5312 60.5781 40.25C60.7865 39.9688 61.0417 39.7344 61.3438 39.5469C61.6562 39.349 61.9896 39.1979 62.3438 39.0938C62.7083 38.9792 63.0417 38.9219 63.3438 38.9219C63.625 38.9219 63.9062 38.9583 64.1875 39.0312C64.4688 39.0938 64.7344 39.1979 64.9844 39.3438C65.2344 39.4792 65.4583 39.651 65.6562 39.8594C65.8646 40.0573 66.0312 40.2917 66.1562 40.5625C66.3438 40.9479 66.4948 41.3594 66.6094 41.7969C66.724 42.224 66.8125 42.6667 66.875 43.125C66.9375 43.5729 66.9792 44.026 67 44.4844C67.0208 44.9323 67.0312 45.3698 67.0312 45.7969ZM64.5312 45.2969L64.4844 44.2344C64.4635 44.2344 64.4427 44.2344 64.4219 44.2344C64.401 44.224 64.3802 44.2188 64.3594 44.2188C64.224 44.2188 64.0521 44.2552 63.8438 44.3281C63.6458 44.3906 63.4531 44.4844 63.2656 44.6094C63.0781 44.724 62.9167 44.8542 62.7812 45C62.6562 45.1458 62.5938 45.2969 62.5938 45.4531C62.5938 45.599 62.6458 45.6979 62.75 45.75C62.8542 45.8021 62.974 45.8281 63.1094 45.8281C63.3385 45.8281 63.5833 45.7708 63.8438 45.6562C64.1042 45.5312 64.3333 45.4115 64.5312 45.2969ZM75.3594 42.8438C75.3594 43.1458 75.3333 43.4896 75.2812 43.875C75.2396 44.25 75.1667 44.6354 75.0625 45.0312C74.9688 45.4271 74.8385 45.8125 74.6719 46.1875C74.5156 46.5625 74.3177 46.901 74.0781 47.2031C73.849 47.4948 73.5781 47.7292 73.2656 47.9062C72.9635 48.0833 72.6094 48.1719 72.2031 48.1719C71.776 48.1719 71.3854 48.0729 71.0312 47.875C70.6875 47.6771 70.3906 47.4062 70.1406 47.0625C70.1094 47.3438 69.9948 47.5938 69.7969 47.8125C69.599 48.0208 69.349 48.125 69.0469 48.125C68.8698 48.125 68.7188 48.0365 68.5938 47.8594C68.4792 47.6823 68.3854 47.4583 68.3125 47.1875C68.2396 46.9062 68.1823 46.599 68.1406 46.2656C68.1094 45.9323 68.0885 45.6094 68.0781 45.2969C68.0677 44.9844 68.0625 44.7031 68.0625 44.4531C68.0625 44.2031 68.0625 44.026 68.0625 43.9219C68.0625 43.5677 68.0625 43.2135 68.0625 42.8594C68.0729 42.5052 68.0833 42.1458 68.0938 41.7812C68.0938 41.6042 68.0885 41.3385 68.0781 40.9844C68.0781 40.6302 68.0833 40.2396 68.0938 39.8125C68.1042 39.375 68.125 38.9323 68.1562 38.4844C68.1979 38.026 68.2656 37.6094 68.3594 37.2344C68.4531 36.8594 68.5833 36.5521 68.75 36.3125C68.9167 36.0729 69.1302 35.9479 69.3906 35.9375C69.599 35.9375 69.776 36.0104 69.9219 36.1562C70.0677 36.3021 70.1875 36.4948 70.2812 36.7344C70.3854 36.974 70.4635 37.2448 70.5156 37.5469C70.5781 37.8385 70.6198 38.1354 70.6406 38.4375C70.6719 38.7292 70.6875 39.0104 70.6875 39.2812C70.6979 39.5417 70.7031 39.7552 70.7031 39.9219C70.7031 39.9531 70.6979 40.026 70.6875 40.1406C70.6875 40.2448 70.6875 40.3594 70.6875 40.4844C70.6875 40.6094 70.6875 40.724 70.6875 40.8281C70.6875 40.9219 70.6875 40.974 70.6875 40.9844C70.7812 40.7865 70.9167 40.5938 71.0938 40.4062C71.2708 40.2188 71.4688 40.0521 71.6875 39.9062C71.9062 39.7604 72.1354 39.6406 72.375 39.5469C72.6146 39.4531 72.8438 39.4062 73.0625 39.4062C73.5 39.4062 73.8646 39.5208 74.1562 39.75C74.4583 39.9688 74.6979 40.25 74.875 40.5938C75.0521 40.9375 75.1771 41.3125 75.25 41.7188C75.3229 42.1146 75.3594 42.4896 75.3594 42.8438ZM73.0625 43.3125C73.0625 43.1875 73.0521 43.0521 73.0312 42.9062C73.0208 42.7604 72.9844 42.625 72.9219 42.5C72.8698 42.375 72.7917 42.2708 72.6875 42.1875C72.5938 42.1042 72.4688 42.0625 72.3125 42.0625C72.1458 42.0625 71.9792 42.099 71.8125 42.1719C71.6562 42.2448 71.5052 42.3385 71.3594 42.4531C71.2135 42.5677 71.0781 42.6927 70.9531 42.8281C70.8281 42.9531 70.7188 43.0781 70.625 43.2031L70.4688 44.5938C70.6354 44.8333 70.8385 45.026 71.0781 45.1719C71.3177 45.3073 71.5885 45.375 71.8906 45.375C72.1198 45.375 72.3073 45.3021 72.4531 45.1562C72.6094 45.0104 72.7292 44.8333 72.8125 44.625C72.9062 44.4062 72.9688 44.1771 73 43.9375C73.0417 43.6979 73.0625 43.4896 73.0625 43.3125ZM82.8594 45.2188C82.8594 45.5729 82.7448 45.9219 82.5156 46.2656C82.2969 46.599 82.0156 46.901 81.6719 47.1719C81.3385 47.4323 80.9792 47.6458 80.5938 47.8125C80.2083 47.9688 79.8542 48.0469 79.5312 48.0469C78.9792 48.0469 78.4844 47.9115 78.0469 47.6406C77.6198 47.3594 77.2604 47.0052 76.9688 46.5781C76.6771 46.151 76.4531 45.6823 76.2969 45.1719C76.151 44.651 76.0781 44.1458 76.0781 43.6562C76.0781 43.1354 76.151 42.5781 76.2969 41.9844C76.4427 41.3906 76.6615 40.8438 76.9531 40.3438C77.2552 39.8438 77.6302 39.4271 78.0781 39.0938C78.5365 38.7604 79.0781 38.5938 79.7031 38.5938C80.0573 38.5938 80.3958 38.6562 80.7188 38.7812C81.0417 38.8958 81.3229 39.0625 81.5625 39.2812C81.8021 39.5 81.9948 39.7604 82.1406 40.0625C82.2865 40.3646 82.3594 40.7031 82.3594 41.0781C82.3594 41.5677 82.2552 42.026 82.0469 42.4531C81.8385 42.8802 81.5625 43.25 81.2188 43.5625C80.875 43.875 80.4792 44.1302 80.0312 44.3281C79.5833 44.5156 79.125 44.6198 78.6562 44.6406C78.6979 44.9427 78.8177 45.1615 79.0156 45.2969C79.224 45.4323 79.4688 45.5 79.75 45.5C79.9583 45.5 80.1615 45.4479 80.3594 45.3438C80.5573 45.2396 80.75 45.125 80.9375 45C81.125 44.8646 81.3073 44.7448 81.4844 44.6406C81.6719 44.5365 81.8594 44.4844 82.0469 44.4844C82.2552 44.4844 82.4427 44.5521 82.6094 44.6875C82.776 44.8229 82.8594 45 82.8594 45.2188ZM80.3281 41.3906C80.3281 41.2552 80.2917 41.1146 80.2188 40.9688C80.1458 40.8229 80.0312 40.75 79.875 40.75C79.6458 40.75 79.4531 40.8125 79.2969 40.9375C79.1406 41.0521 79.0104 41.2031 78.9062 41.3906C78.8021 41.5677 78.7188 41.7604 78.6562 41.9688C78.6042 42.1771 78.5729 42.3698 78.5625 42.5469C78.7083 42.5156 78.8802 42.474 79.0781 42.4219C79.2865 42.3698 79.4792 42.3021 79.6562 42.2188C79.8438 42.125 80 42.0104 80.125 41.875C80.2604 41.7396 80.3281 41.5781 80.3281 41.3906ZM90.2188 48.4531C89.6875 48.4531 89.224 48.3125 88.8281 48.0312C88.4323 47.75 88.099 47.3906 87.8281 46.9531C87.5573 46.5156 87.3542 46.0312 87.2188 45.5C87.0833 44.9583 87.0156 44.4271 87.0156 43.9062C87.0156 43.3542 87.0833 42.7865 87.2188 42.2031C87.3542 41.6094 87.5625 41.0729 87.8438 40.5938C88.125 40.1042 88.4844 39.7083 88.9219 39.4062C89.3594 39.0938 89.8802 38.9375 90.4844 38.9375C91.0677 38.9375 91.5625 39.099 91.9688 39.4219C92.3854 39.7344 92.7188 40.1302 92.9688 40.6094C93.2188 41.0781 93.3958 41.5938 93.5 42.1562C93.6042 42.7188 93.6406 43.25 93.6094 43.75C93.5781 44.3021 93.4896 44.8594 93.3438 45.4219C93.2083 45.9844 93.0052 46.4896 92.7344 46.9375C92.4635 47.3854 92.1198 47.75 91.7031 48.0312C91.2865 48.3125 90.7917 48.4531 90.2188 48.4531ZM90.375 41.3906C90.2188 41.3906 90.0781 41.474 89.9531 41.6406C89.8385 41.8073 89.7396 42.0104 89.6562 42.25C89.5833 42.4896 89.526 42.7448 89.4844 43.0156C89.4427 43.276 89.4219 43.5052 89.4219 43.7031C89.4219 43.9531 89.4427 44.224 89.4844 44.5156C89.5365 44.8073 89.6042 45.0781 89.6875 45.3281C89.7708 45.5677 89.8698 45.7708 89.9844 45.9375C90.1094 46.0938 90.25 46.1719 90.4062 46.1719C90.5729 46.1719 90.7135 46.0938 90.8281 45.9375C90.9531 45.7812 91.0521 45.5833 91.125 45.3438C91.1979 45.1042 91.25 44.8438 91.2812 44.5625C91.3125 44.2708 91.3281 44 91.3281 43.75C91.3281 43.5208 91.3073 43.2708 91.2656 43C91.224 42.7188 91.1615 42.4583 91.0781 42.2188C91.0052 41.9792 90.9062 41.7812 90.7812 41.625C90.6667 41.4688 90.5312 41.3906 90.375 41.3906ZM105.438 40.7344C105.354 41.4948 105.271 42.25 105.188 43C105.104 43.75 105.047 44.5 105.016 45.25C104.964 46.1146 104.943 46.9323 104.953 47.7031C104.964 48.474 104.969 49.2917 104.969 50.1562C104.969 50.3646 104.964 50.6198 104.953 50.9219C104.953 51.224 104.917 51.5156 104.844 51.7969C104.771 52.0781 104.651 52.3177 104.484 52.5156C104.328 52.7135 104.089 52.8125 103.766 52.8125C103.609 52.8125 103.474 52.7656 103.359 52.6719C103.255 52.5781 103.161 52.4531 103.078 52.2969C103.005 52.151 102.943 51.9844 102.891 51.7969C102.849 51.6094 102.812 51.4167 102.781 51.2188C102.729 50.8125 102.698 50.4062 102.688 50C102.688 49.6042 102.688 49.3125 102.688 49.125V47.9062V47.0312C102.448 47.3438 102.135 47.5833 101.75 47.75C101.375 47.9062 101 47.9844 100.625 47.9844C100.156 47.9844 99.75 47.875 99.4062 47.6562C99.0729 47.4271 98.7969 47.1406 98.5781 46.7969C98.3594 46.4427 98.1979 46.0573 98.0938 45.6406C97.9896 45.224 97.9375 44.8177 97.9375 44.4219V44.3281C97.9375 43.7865 98.0208 43.2031 98.1875 42.5781C98.3542 41.9427 98.599 41.3542 98.9219 40.8125C99.2552 40.2708 99.6667 39.8229 100.156 39.4688C100.656 39.1042 101.234 38.9219 101.891 38.9219C102.245 38.9219 102.568 38.9948 102.859 39.1406C103.161 39.2865 103.375 39.526 103.5 39.8594C103.583 39.6198 103.708 39.4271 103.875 39.2812C104.052 39.125 104.276 39.0469 104.547 39.0469C104.891 39.0469 105.13 39.1615 105.266 39.3906C105.411 39.6094 105.484 39.8542 105.484 40.125C105.484 40.2396 105.479 40.3438 105.469 40.4375C105.458 40.5312 105.448 40.6302 105.438 40.7344ZM101.844 41.1094C101.604 41.1094 101.38 41.2083 101.172 41.4062C100.964 41.5938 100.781 41.8281 100.625 42.1094C100.469 42.3802 100.344 42.6719 100.25 42.9844C100.167 43.2969 100.125 43.5729 100.125 43.8125C100.125 43.9583 100.135 44.1146 100.156 44.2812C100.188 44.4479 100.229 44.6094 100.281 44.7656C100.344 44.9115 100.422 45.0365 100.516 45.1406C100.62 45.2344 100.75 45.2812 100.906 45.2812C101.042 45.2812 101.198 45.25 101.375 45.1875C101.562 45.1146 101.745 45.026 101.922 44.9219C102.099 44.8073 102.255 44.6823 102.391 44.5469C102.526 44.4115 102.62 44.2812 102.672 44.1562C102.703 44.0833 102.729 43.974 102.75 43.8281C102.771 43.6823 102.786 43.5312 102.797 43.375C102.818 43.2083 102.833 43.0469 102.844 42.8906C102.854 42.7344 102.859 42.6146 102.859 42.5312C102.859 42.4062 102.828 42.2656 102.766 42.1094C102.714 41.9427 102.641 41.7865 102.547 41.6406C102.453 41.4844 102.344 41.3594 102.219 41.2656C102.094 41.1615 101.969 41.1094 101.844 41.1094ZM113.031 43.5312C113.031 44.1042 112.974 44.6719 112.859 45.2344C112.745 45.7969 112.552 46.3021 112.281 46.75C112.01 47.1875 111.646 47.5417 111.188 47.8125C110.74 48.0833 110.177 48.2188 109.5 48.2188C108.833 48.2188 108.276 48.0885 107.828 47.8281C107.38 47.5573 107.021 47.2031 106.75 46.7656C106.49 46.3281 106.302 45.8333 106.188 45.2812C106.083 44.7292 106.031 44.1667 106.031 43.5938C106.031 42.9688 106.104 42.349 106.25 41.7344C106.281 41.5677 106.339 41.3385 106.422 41.0469C106.516 40.7448 106.63 40.4531 106.766 40.1719C106.911 39.8802 107.073 39.6302 107.25 39.4219C107.438 39.2135 107.641 39.1094 107.859 39.1094C108.068 39.1094 108.234 39.1667 108.359 39.2812C108.484 39.3958 108.583 39.5417 108.656 39.7188C108.729 39.8854 108.776 40.0677 108.797 40.2656C108.818 40.4531 108.828 40.625 108.828 40.7812C108.828 41.0208 108.807 41.2552 108.766 41.4844C108.734 41.7135 108.698 41.9427 108.656 42.1719C108.615 42.4844 108.573 42.7969 108.531 43.1094C108.5 43.4219 108.484 43.7344 108.484 44.0469C108.484 44.2031 108.49 44.3802 108.5 44.5781C108.521 44.7656 108.562 44.9479 108.625 45.125C108.688 45.3021 108.776 45.4531 108.891 45.5781C109.005 45.6927 109.167 45.75 109.375 45.75C109.646 45.75 109.859 45.6771 110.016 45.5312C110.182 45.3854 110.302 45.2031 110.375 44.9844C110.458 44.7656 110.51 44.5312 110.531 44.2812C110.552 44.0312 110.562 43.8021 110.562 43.5938C110.562 43.1354 110.531 42.6875 110.469 42.25C110.406 41.8021 110.349 41.349 110.297 40.8906C110.286 40.8385 110.281 40.7656 110.281 40.6719C110.281 40.5156 110.307 40.3594 110.359 40.2031C110.411 40.0469 110.484 39.9062 110.578 39.7812C110.672 39.6562 110.786 39.5573 110.922 39.4844C111.057 39.401 111.208 39.3594 111.375 39.3594C111.604 39.3594 111.807 39.4427 111.984 39.6094C112.161 39.7656 112.307 39.974 112.422 40.2344C112.547 40.4844 112.646 40.7708 112.719 41.0938C112.802 41.4062 112.865 41.7188 112.906 42.0312C112.958 42.3333 112.99 42.6198 113 42.8906C113.021 43.1615 113.031 43.375 113.031 43.5312ZM120.531 45.2188C120.531 45.5729 120.417 45.9219 120.188 46.2656C119.969 46.599 119.688 46.901 119.344 47.1719C119.01 47.4323 118.651 47.6458 118.266 47.8125C117.88 47.9688 117.526 48.0469 117.203 48.0469C116.651 48.0469 116.156 47.9115 115.719 47.6406C115.292 47.3594 114.932 47.0052 114.641 46.5781C114.349 46.151 114.125 45.6823 113.969 45.1719C113.823 44.651 113.75 44.1458 113.75 43.6562C113.75 43.1354 113.823 42.5781 113.969 41.9844C114.115 41.3906 114.333 40.8438 114.625 40.3438C114.927 39.8438 115.302 39.4271 115.75 39.0938C116.208 38.7604 116.75 38.5938 117.375 38.5938C117.729 38.5938 118.068 38.6562 118.391 38.7812C118.714 38.8958 118.995 39.0625 119.234 39.2812C119.474 39.5 119.667 39.7604 119.812 40.0625C119.958 40.3646 120.031 40.7031 120.031 41.0781C120.031 41.5677 119.927 42.026 119.719 42.4531C119.51 42.8802 119.234 43.25 118.891 43.5625C118.547 43.875 118.151 44.1302 117.703 44.3281C117.255 44.5156 116.797 44.6198 116.328 44.6406C116.37 44.9427 116.49 45.1615 116.688 45.2969C116.896 45.4323 117.141 45.5 117.422 45.5C117.63 45.5 117.833 45.4479 118.031 45.3438C118.229 45.2396 118.422 45.125 118.609 45C118.797 44.8646 118.979 44.7448 119.156 44.6406C119.344 44.5365 119.531 44.4844 119.719 44.4844C119.927 44.4844 120.115 44.5521 120.281 44.6875C120.448 44.8229 120.531 45 120.531 45.2188ZM118 41.3906C118 41.2552 117.964 41.1146 117.891 40.9688C117.818 40.8229 117.703 40.75 117.547 40.75C117.318 40.75 117.125 40.8125 116.969 40.9375C116.812 41.0521 116.682 41.2031 116.578 41.3906C116.474 41.5677 116.391 41.7604 116.328 41.9688C116.276 42.1771 116.245 42.3698 116.234 42.5469C116.38 42.5156 116.552 42.474 116.75 42.4219C116.958 42.3698 117.151 42.3021 117.328 42.2188C117.516 42.125 117.672 42.0104 117.797 41.875C117.932 41.7396 118 41.5781 118 41.3906ZM131.469 45.2188C131.469 45.5729 131.354 45.9219 131.125 46.2656C130.906 46.599 130.625 46.901 130.281 47.1719C129.948 47.4323 129.589 47.6458 129.203 47.8125C128.818 47.9688 128.464 48.0469 128.141 48.0469C127.589 48.0469 127.094 47.9115 126.656 47.6406C126.229 47.3594 125.87 47.0052 125.578 46.5781C125.286 46.151 125.062 45.6823 124.906 45.1719C124.76 44.651 124.688 44.1458 124.688 43.6562C124.688 43.1354 124.76 42.5781 124.906 41.9844C125.052 41.3906 125.271 40.8438 125.562 40.3438C125.865 39.8438 126.24 39.4271 126.688 39.0938C127.146 38.7604 127.688 38.5938 128.312 38.5938C128.667 38.5938 129.005 38.6562 129.328 38.7812C129.651 38.8958 129.932 39.0625 130.172 39.2812C130.411 39.5 130.604 39.7604 130.75 40.0625C130.896 40.3646 130.969 40.7031 130.969 41.0781C130.969 41.5677 130.865 42.026 130.656 42.4531C130.448 42.8802 130.172 43.25 129.828 43.5625C129.484 43.875 129.089 44.1302 128.641 44.3281C128.193 44.5156 127.734 44.6198 127.266 44.6406C127.307 44.9427 127.427 45.1615 127.625 45.2969C127.833 45.4323 128.078 45.5 128.359 45.5C128.568 45.5 128.771 45.4479 128.969 45.3438C129.167 45.2396 129.359 45.125 129.547 45C129.734 44.8646 129.917 44.7448 130.094 44.6406C130.281 44.5365 130.469 44.4844 130.656 44.4844C130.865 44.4844 131.052 44.5521 131.219 44.6875C131.385 44.8229 131.469 45 131.469 45.2188ZM128.938 41.3906C128.938 41.2552 128.901 41.1146 128.828 40.9688C128.755 40.8229 128.641 40.75 128.484 40.75C128.255 40.75 128.062 40.8125 127.906 40.9375C127.75 41.0521 127.62 41.2031 127.516 41.3906C127.411 41.5677 127.328 41.7604 127.266 41.9688C127.214 42.1771 127.182 42.3698 127.172 42.5469C127.318 42.5156 127.49 42.474 127.688 42.4219C127.896 42.3698 128.089 42.3021 128.266 42.2188C128.453 42.125 128.609 42.0104 128.734 41.875C128.87 41.7396 128.938 41.5781 128.938 41.3906ZM129.812 35.8438C129.812 35.9583 129.781 36.0729 129.719 36.1875C129.656 36.2917 129.578 36.3906 129.484 36.4844C129.401 36.5781 129.307 36.6667 129.203 36.75C129.099 36.8229 129.005 36.8906 128.922 36.9531C128.849 37.0052 128.766 37.0677 128.672 37.1406C128.589 37.2031 128.495 37.2656 128.391 37.3281C128.297 37.3802 128.198 37.4271 128.094 37.4688C128 37.5104 127.906 37.5312 127.812 37.5312C127.729 37.5312 127.656 37.5104 127.594 37.4688C127.531 37.4167 127.5 37.3438 127.5 37.25C127.5 37.0938 127.557 36.9062 127.672 36.6875C127.797 36.4583 127.948 36.2396 128.125 36.0312C128.302 35.8125 128.49 35.6302 128.688 35.4844C128.885 35.3281 129.068 35.25 129.234 35.25C129.38 35.25 129.51 35.3125 129.625 35.4375C129.75 35.5521 129.812 35.6875 129.812 35.8438ZM138.828 48.4531C138.297 48.4531 137.833 48.3125 137.438 48.0312C137.042 47.75 136.708 47.3906 136.438 46.9531C136.167 46.5156 135.964 46.0312 135.828 45.5C135.693 44.9583 135.625 44.4271 135.625 43.9062C135.625 43.3542 135.693 42.7865 135.828 42.2031C135.964 41.6094 136.172 41.0729 136.453 40.5938C136.734 40.1042 137.094 39.7083 137.531 39.4062C137.969 39.0938 138.49 38.9375 139.094 38.9375C139.677 38.9375 140.172 39.099 140.578 39.4219C140.995 39.7344 141.328 40.1302 141.578 40.6094C141.828 41.0781 142.005 41.5938 142.109 42.1562C142.214 42.7188 142.25 43.25 142.219 43.75C142.188 44.3021 142.099 44.8594 141.953 45.4219C141.818 45.9844 141.615 46.4896 141.344 46.9375C141.073 47.3854 140.729 47.75 140.312 48.0312C139.896 48.3125 139.401 48.4531 138.828 48.4531ZM138.984 41.3906C138.828 41.3906 138.688 41.474 138.562 41.6406C138.448 41.8073 138.349 42.0104 138.266 42.25C138.193 42.4896 138.135 42.7448 138.094 43.0156C138.052 43.276 138.031 43.5052 138.031 43.7031C138.031 43.9531 138.052 44.224 138.094 44.5156C138.146 44.8073 138.214 45.0781 138.297 45.3281C138.38 45.5677 138.479 45.7708 138.594 45.9375C138.719 46.0938 138.859 46.1719 139.016 46.1719C139.182 46.1719 139.323 46.0938 139.438 45.9375C139.562 45.7812 139.661 45.5833 139.734 45.3438C139.807 45.1042 139.859 44.8438 139.891 44.5625C139.922 44.2708 139.938 44 139.938 43.75C139.938 43.5208 139.917 43.2708 139.875 43C139.833 42.7188 139.771 42.4583 139.688 42.2188C139.615 41.9792 139.516 41.7812 139.391 41.625C139.276 41.4688 139.141 41.3906 138.984 41.3906ZM153.938 43.3438C153.938 43.8021 153.885 44.3073 153.781 44.8594C153.688 45.401 153.521 45.9062 153.281 46.375C153.052 46.8438 152.745 47.2344 152.359 47.5469C151.984 47.8594 151.51 48.0156 150.938 48.0156C150.792 48.0156 150.641 48.0052 150.484 47.9844C150.328 47.9635 150.177 47.9271 150.031 47.875C149.896 47.8229 149.771 47.7552 149.656 47.6719C149.542 47.5781 149.453 47.4583 149.391 47.3125L149.25 49.5625C149.24 49.8021 149.229 50.0885 149.219 50.4219C149.219 50.7552 149.177 51.0729 149.094 51.375C149.021 51.6771 148.891 51.9323 148.703 52.1406C148.526 52.3594 148.266 52.4688 147.922 52.4688C147.724 52.4688 147.557 52.3646 147.422 52.1562C147.286 51.9583 147.177 51.7031 147.094 51.3906C147.021 51.0781 146.964 50.7292 146.922 50.3438C146.88 49.9583 146.854 49.5885 146.844 49.2344C146.833 48.8802 146.828 48.5573 146.828 48.2656C146.828 47.974 146.828 47.7604 146.828 47.625C146.828 46.9271 146.823 46.2344 146.812 45.5469C146.802 44.849 146.797 44.151 146.797 43.4531C146.797 43.3281 146.797 43.1354 146.797 42.875C146.797 42.6042 146.807 42.3125 146.828 42C146.849 41.6875 146.88 41.3646 146.922 41.0312C146.974 40.6979 147.047 40.3958 147.141 40.125C147.234 39.8438 147.354 39.6198 147.5 39.4531C147.646 39.276 147.823 39.1875 148.031 39.1875C148.167 39.1875 148.286 39.2292 148.391 39.3125C148.505 39.3854 148.599 39.4844 148.672 39.6094C148.755 39.724 148.823 39.849 148.875 39.9844C148.927 40.1198 148.969 40.2448 149 40.3594C149.323 39.9948 149.693 39.7188 150.109 39.5312C150.536 39.3438 150.99 39.25 151.469 39.25C151.969 39.25 152.375 39.3906 152.688 39.6719C153.01 39.9531 153.26 40.3021 153.438 40.7188C153.625 41.1354 153.755 41.5833 153.828 42.0625C153.901 42.5312 153.938 42.9583 153.938 43.3438ZM151.703 43.2188C151.703 43.0625 151.688 42.9062 151.656 42.75C151.635 42.5833 151.589 42.4323 151.516 42.2969C151.453 42.151 151.359 42.0365 151.234 41.9531C151.109 41.8594 150.953 41.8125 150.766 41.8125C150.516 41.8125 150.25 41.8958 149.969 42.0625C149.698 42.2188 149.495 42.401 149.359 42.6094C149.307 42.6927 149.276 42.8281 149.266 43.0156C149.255 43.2031 149.25 43.3438 149.25 43.4375C149.25 43.5104 149.25 43.6094 149.25 43.7344C149.26 43.849 149.271 43.9688 149.281 44.0938C149.292 44.2188 149.302 44.3385 149.312 44.4531C149.333 44.5677 149.359 44.6562 149.391 44.7188C149.422 44.8125 149.49 44.901 149.594 44.9844C149.698 45.0573 149.812 45.125 149.938 45.1875C150.062 45.25 150.188 45.2969 150.312 45.3281C150.448 45.3594 150.562 45.375 150.656 45.375C150.875 45.375 151.052 45.2917 151.188 45.125C151.323 44.9583 151.427 44.7604 151.5 44.5312C151.583 44.3021 151.635 44.0677 151.656 43.8281C151.688 43.5781 151.703 43.375 151.703 43.2188ZM161.531 45.7969C161.531 45.9844 161.521 46.2292 161.5 46.5312C161.49 46.8333 161.448 47.1302 161.375 47.4219C161.302 47.7031 161.188 47.9479 161.031 48.1562C160.875 48.3646 160.656 48.4688 160.375 48.4688C159.99 48.4688 159.693 48.3438 159.484 48.0938C159.276 47.8438 159.177 47.5312 159.188 47.1562C158.854 47.4479 158.474 47.6771 158.047 47.8438C157.63 48.0104 157.203 48.0938 156.766 48.0938C156.464 48.0938 156.177 48.0208 155.906 47.875C155.635 47.7292 155.396 47.5417 155.188 47.3125C154.979 47.0833 154.812 46.8281 154.688 46.5469C154.562 46.2552 154.5 45.9688 154.5 45.6875C154.5 45.1875 154.651 44.75 154.953 44.375C155.266 44 155.646 43.6823 156.094 43.4219C156.542 43.151 157.016 42.9375 157.516 42.7812C158.026 42.625 158.479 42.5208 158.875 42.4688C158.875 42.4167 158.875 42.3698 158.875 42.3281C158.885 42.2865 158.891 42.2396 158.891 42.1875C158.891 41.8646 158.802 41.6042 158.625 41.4062C158.448 41.2083 158.198 41.1094 157.875 41.1094C157.615 41.1094 157.391 41.1562 157.203 41.25C157.016 41.3333 156.839 41.4323 156.672 41.5469C156.505 41.651 156.339 41.75 156.172 41.8438C156.005 41.9271 155.818 41.9688 155.609 41.9688C155.38 41.9688 155.182 41.8958 155.016 41.75C154.859 41.6042 154.781 41.4167 154.781 41.1875C154.781 40.8438 154.88 40.5312 155.078 40.25C155.286 39.9688 155.542 39.7344 155.844 39.5469C156.156 39.349 156.49 39.1979 156.844 39.0938C157.208 38.9792 157.542 38.9219 157.844 38.9219C158.125 38.9219 158.406 38.9583 158.688 39.0312C158.969 39.0938 159.234 39.1979 159.484 39.3438C159.734 39.4792 159.958 39.651 160.156 39.8594C160.365 40.0573 160.531 40.2917 160.656 40.5625C160.844 40.9479 160.995 41.3594 161.109 41.7969C161.224 42.224 161.312 42.6667 161.375 43.125C161.438 43.5729 161.479 44.026 161.5 44.4844C161.521 44.9323 161.531 45.3698 161.531 45.7969ZM159.031 45.2969L158.984 44.2344C158.964 44.2344 158.943 44.2344 158.922 44.2344C158.901 44.224 158.88 44.2188 158.859 44.2188C158.724 44.2188 158.552 44.2552 158.344 44.3281C158.146 44.3906 157.953 44.4844 157.766 44.6094C157.578 44.724 157.417 44.8542 157.281 45C157.156 45.1458 157.094 45.2969 157.094 45.4531C157.094 45.599 157.146 45.6979 157.25 45.75C157.354 45.8021 157.474 45.8281 157.609 45.8281C157.839 45.8281 158.083 45.7708 158.344 45.6562C158.604 45.5312 158.833 45.4115 159.031 45.2969ZM159.984 37.7031C159.984 37.7865 159.969 37.8385 159.938 37.8594C159.906 37.8802 159.854 37.8906 159.781 37.8906C159.656 37.8906 159.516 37.8594 159.359 37.7969C159.214 37.7344 159.062 37.6562 158.906 37.5625C158.76 37.4688 158.615 37.3698 158.469 37.2656C158.333 37.1615 158.219 37.0677 158.125 36.9844C158.021 37.0677 157.896 37.1667 157.75 37.2812C157.615 37.3958 157.469 37.5052 157.312 37.6094C157.156 37.7031 157 37.7865 156.844 37.8594C156.688 37.9219 156.542 37.9531 156.406 37.9531C156.354 37.9531 156.302 37.9427 156.25 37.9219C156.208 37.901 156.188 37.849 156.188 37.7656C156.188 37.6094 156.255 37.4115 156.391 37.1719C156.526 36.9323 156.693 36.7031 156.891 36.4844C157.089 36.2656 157.297 36.0781 157.516 35.9219C157.734 35.7656 157.927 35.6875 158.094 35.6875C158.26 35.6875 158.453 35.7656 158.672 35.9219C158.891 36.0677 159.094 36.2448 159.281 36.4531C159.479 36.6615 159.646 36.8802 159.781 37.1094C159.917 37.3385 159.984 37.5365 159.984 37.7031ZM166.906 48.4375C166.729 48.4375 166.589 48.3542 166.484 48.1875C166.38 48.0312 166.302 47.849 166.25 47.6406C166.198 47.4323 166.161 47.224 166.141 47.0156C166.13 46.7969 166.125 46.6302 166.125 46.5156C166.125 46.2031 166.141 45.8906 166.172 45.5781C166.214 45.2656 166.255 44.9531 166.297 44.6406C166.349 44.3281 166.391 44.0156 166.422 43.7031C166.464 43.3906 166.484 43.0781 166.484 42.7656C166.484 42.6406 166.479 42.5052 166.469 42.3594C166.458 42.2135 166.432 42.0781 166.391 41.9531C166.359 41.8177 166.302 41.7083 166.219 41.625C166.135 41.5417 166.026 41.5 165.891 41.5C165.797 41.5 165.693 41.5781 165.578 41.7344C165.464 41.8802 165.354 42.0521 165.25 42.25C165.156 42.4375 165.073 42.6302 165 42.8281C164.938 43.0156 164.906 43.1562 164.906 43.25C164.906 43.4792 164.906 43.7135 164.906 43.9531C164.917 44.1823 164.922 44.4167 164.922 44.6562V45.5625C164.911 45.75 164.896 45.9427 164.875 46.1406C164.854 46.3385 164.823 46.5312 164.781 46.7188C164.75 46.9062 164.703 47.0885 164.641 47.2656C164.578 47.4323 164.495 47.5833 164.391 47.7188C164.297 47.8438 164.182 47.9479 164.047 48.0312C163.911 48.1146 163.75 48.1562 163.562 48.1562C163.354 48.1562 163.182 48.0885 163.047 47.9531C162.911 47.8177 162.802 47.6458 162.719 47.4375C162.635 47.2188 162.573 46.9792 162.531 46.7188C162.5 46.4479 162.474 46.1875 162.453 45.9375C162.443 45.6771 162.438 45.4427 162.438 45.2344C162.448 45.0156 162.453 44.8438 162.453 44.7188V43.9844C162.453 43.5885 162.443 43.1979 162.422 42.8125C162.411 42.4271 162.406 42.0417 162.406 41.6562C162.406 41.4479 162.406 41.1823 162.406 40.8594C162.417 40.5365 162.458 40.224 162.531 39.9219C162.604 39.6094 162.724 39.3438 162.891 39.125C163.057 38.9062 163.302 38.7969 163.625 38.7969C163.771 38.7969 163.901 38.8438 164.016 38.9375C164.13 39.0312 164.229 39.1458 164.312 39.2812C164.406 39.4167 164.479 39.5625 164.531 39.7188C164.594 39.875 164.641 40.0104 164.672 40.125C164.776 39.9792 164.896 39.8385 165.031 39.7031C165.177 39.5677 165.339 39.4479 165.516 39.3438C165.693 39.2396 165.891 39.1562 166.109 39.0938C166.328 39.0312 166.578 39 166.859 39C167.391 39 167.802 39.1302 168.094 39.3906C168.396 39.6406 168.615 39.9583 168.75 40.3438C168.896 40.7188 168.984 41.125 169.016 41.5625C169.047 42 169.062 42.3958 169.062 42.75C169.062 42.9271 169.047 43.1927 169.016 43.5469C168.984 43.8906 168.932 44.276 168.859 44.7031C168.797 45.1198 168.708 45.5521 168.594 46C168.479 46.4375 168.344 46.8385 168.188 47.2031C168.031 47.5677 167.844 47.8646 167.625 48.0938C167.417 48.3229 167.177 48.4375 166.906 48.4375ZM175.734 42C175.734 42.0521 175.729 42.1094 175.719 42.1719C175.708 42.224 175.693 42.276 175.672 42.3281C175.578 42.5677 175.432 42.7708 175.234 42.9375C175.036 43.0938 174.802 43.1719 174.531 43.1719C174.125 43.1719 173.849 42.9688 173.703 42.5625C173.682 42.5104 173.672 42.4531 173.672 42.3906C173.672 42.3177 173.667 42.2448 173.656 42.1719V41.7188C173.635 41.5729 173.599 41.4583 173.547 41.375C173.495 41.2917 173.406 41.25 173.281 41.25C173.104 41.25 172.932 41.3646 172.766 41.5938C172.609 41.8125 172.469 42.0781 172.344 42.3906C172.229 42.6927 172.135 43.0052 172.062 43.3281C171.99 43.651 171.953 43.9115 171.953 44.1094C171.953 44.2656 171.964 44.4583 171.984 44.6875C172.005 44.9062 172.047 45.1198 172.109 45.3281C172.172 45.5365 172.255 45.7188 172.359 45.875C172.474 46.0208 172.62 46.0938 172.797 46.0938C172.974 46.0938 173.135 46.0417 173.281 45.9375C173.438 45.8229 173.589 45.6927 173.734 45.5469C173.87 45.4219 174.016 45.2917 174.172 45.1562C174.339 45.0208 174.526 44.9531 174.734 44.9531C174.995 44.9531 175.198 45.0469 175.344 45.2344C175.5 45.4219 175.578 45.6354 175.578 45.875C175.578 46.2292 175.484 46.5625 175.297 46.875C175.109 47.1771 174.875 47.4427 174.594 47.6719C174.312 47.8906 174 48.0625 173.656 48.1875C173.312 48.3229 172.984 48.3906 172.672 48.3906C172.109 48.3906 171.63 48.25 171.234 47.9688C170.849 47.6875 170.536 47.3333 170.297 46.9062C170.057 46.4688 169.885 45.9948 169.781 45.4844C169.677 44.974 169.625 44.4896 169.625 44.0312C169.625 43.5 169.698 42.9271 169.844 42.3125C169.99 41.6875 170.214 41.1094 170.516 40.5781C170.818 40.0469 171.203 39.6042 171.672 39.25C172.151 38.8958 172.719 38.7188 173.375 38.7188C173.781 38.7188 174.13 38.8073 174.422 38.9844C174.724 39.1615 174.969 39.3958 175.156 39.6875C175.354 39.9688 175.5 40.2865 175.594 40.6406C175.698 40.9948 175.75 41.3438 175.75 41.6875C175.75 41.7396 175.75 41.7917 175.75 41.8438C175.75 41.8958 175.745 41.9479 175.734 42ZM182.031 42.1562C181.885 42.1667 181.76 42.1562 181.656 42.125C181.552 42.0833 181.448 42.0417 181.344 42C181.25 41.9583 181.156 41.9219 181.062 41.8906C180.969 41.849 180.865 41.8333 180.75 41.8438C180.542 41.8542 180.354 41.9115 180.188 42.0156C180.031 42.1198 179.885 42.25 179.75 42.4062C179.625 42.5625 179.516 42.7396 179.422 42.9375C179.328 43.125 179.255 43.3125 179.203 43.5C179.172 43.625 179.146 43.8177 179.125 44.0781C179.115 44.3281 179.109 44.599 179.109 44.8906C179.099 45.1927 179.094 45.4792 179.094 45.75C179.094 46.0208 179.083 46.2344 179.062 46.3906C179.052 46.5573 179.026 46.7552 178.984 46.9844C178.943 47.2031 178.875 47.4115 178.781 47.6094C178.698 47.8073 178.583 47.974 178.438 48.1094C178.292 48.2448 178.104 48.3125 177.875 48.3125C177.698 48.3125 177.542 48.2604 177.406 48.1562C177.281 48.0521 177.172 47.9167 177.078 47.75C176.995 47.5729 176.922 47.3698 176.859 47.1406C176.807 46.9115 176.766 46.6771 176.734 46.4375C176.703 46.1875 176.677 45.9375 176.656 45.6875C176.646 45.4375 176.635 45.2031 176.625 44.9844C176.625 44.7552 176.625 44.5469 176.625 44.3594C176.635 44.1719 176.641 44.0208 176.641 43.9062C176.63 43.5417 176.609 43.1771 176.578 42.8125C176.557 42.4375 176.547 42.0677 176.547 41.7031C176.547 41.474 176.557 41.2188 176.578 40.9375C176.599 40.6562 176.656 40.3958 176.75 40.1562C176.844 39.9062 176.979 39.6979 177.156 39.5312C177.344 39.3646 177.599 39.2812 177.922 39.2812C178.099 39.2812 178.25 39.3385 178.375 39.4531C178.5 39.5677 178.599 39.7083 178.672 39.875C178.755 40.0417 178.818 40.2188 178.859 40.4062C178.901 40.5938 178.927 40.7656 178.938 40.9219C179.188 40.5156 179.469 40.1875 179.781 39.9375C180.094 39.6771 180.5 39.5365 181 39.5156C181.25 39.5052 181.495 39.5312 181.734 39.5938C181.984 39.6458 182.208 39.7396 182.406 39.875C182.615 40 182.781 40.1667 182.906 40.375C183.042 40.5833 183.115 40.8281 183.125 41.1094C183.146 41.4427 183.047 41.6979 182.828 41.875C182.609 42.0521 182.344 42.1458 182.031 42.1562ZM189.906 45.2188C189.906 45.5729 189.792 45.9219 189.562 46.2656C189.344 46.599 189.062 46.901 188.719 47.1719C188.385 47.4323 188.026 47.6458 187.641 47.8125C187.255 47.9688 186.901 48.0469 186.578 48.0469C186.026 48.0469 185.531 47.9115 185.094 47.6406C184.667 47.3594 184.307 47.0052 184.016 46.5781C183.724 46.151 183.5 45.6823 183.344 45.1719C183.198 44.651 183.125 44.1458 183.125 43.6562C183.125 43.1354 183.198 42.5781 183.344 41.9844C183.49 41.3906 183.708 40.8438 184 40.3438C184.302 39.8438 184.677 39.4271 185.125 39.0938C185.583 38.7604 186.125 38.5938 186.75 38.5938C187.104 38.5938 187.443 38.6562 187.766 38.7812C188.089 38.8958 188.37 39.0625 188.609 39.2812C188.849 39.5 189.042 39.7604 189.188 40.0625C189.333 40.3646 189.406 40.7031 189.406 41.0781C189.406 41.5677 189.302 42.026 189.094 42.4531C188.885 42.8802 188.609 43.25 188.266 43.5625C187.922 43.875 187.526 44.1302 187.078 44.3281C186.63 44.5156 186.172 44.6198 185.703 44.6406C185.745 44.9427 185.865 45.1615 186.062 45.2969C186.271 45.4323 186.516 45.5 186.797 45.5C187.005 45.5 187.208 45.4479 187.406 45.3438C187.604 45.2396 187.797 45.125 187.984 45C188.172 44.8646 188.354 44.7448 188.531 44.6406C188.719 44.5365 188.906 44.4844 189.094 44.4844C189.302 44.4844 189.49 44.5521 189.656 44.6875C189.823 44.8229 189.906 45 189.906 45.2188ZM187.375 41.3906C187.375 41.2552 187.339 41.1146 187.266 40.9688C187.193 40.8229 187.078 40.75 186.922 40.75C186.693 40.75 186.5 40.8125 186.344 40.9375C186.188 41.0521 186.057 41.2031 185.953 41.3906C185.849 41.5677 185.766 41.7604 185.703 41.9688C185.651 42.1771 185.62 42.3698 185.609 42.5469C185.755 42.5156 185.927 42.474 186.125 42.4219C186.333 42.3698 186.526 42.3021 186.703 42.2188C186.891 42.125 187.047 42.0104 187.172 41.875C187.307 41.7396 187.375 41.5781 187.375 41.3906ZM197.172 45.7969C197.172 45.9844 197.161 46.2292 197.141 46.5312C197.13 46.8333 197.089 47.1302 197.016 47.4219C196.943 47.7031 196.828 47.9479 196.672 48.1562C196.516 48.3646 196.297 48.4688 196.016 48.4688C195.63 48.4688 195.333 48.3438 195.125 48.0938C194.917 47.8438 194.818 47.5312 194.828 47.1562C194.495 47.4479 194.115 47.6771 193.688 47.8438C193.271 48.0104 192.844 48.0938 192.406 48.0938C192.104 48.0938 191.818 48.0208 191.547 47.875C191.276 47.7292 191.036 47.5417 190.828 47.3125C190.62 47.0833 190.453 46.8281 190.328 46.5469C190.203 46.2552 190.141 45.9688 190.141 45.6875C190.141 45.1875 190.292 44.75 190.594 44.375C190.906 44 191.286 43.6823 191.734 43.4219C192.182 43.151 192.656 42.9375 193.156 42.7812C193.667 42.625 194.12 42.5208 194.516 42.4688C194.516 42.4167 194.516 42.3698 194.516 42.3281C194.526 42.2865 194.531 42.2396 194.531 42.1875C194.531 41.8646 194.443 41.6042 194.266 41.4062C194.089 41.2083 193.839 41.1094 193.516 41.1094C193.255 41.1094 193.031 41.1562 192.844 41.25C192.656 41.3333 192.479 41.4323 192.312 41.5469C192.146 41.651 191.979 41.75 191.812 41.8438C191.646 41.9271 191.458 41.9688 191.25 41.9688C191.021 41.9688 190.823 41.8958 190.656 41.75C190.5 41.6042 190.422 41.4167 190.422 41.1875C190.422 40.8438 190.521 40.5312 190.719 40.25C190.927 39.9688 191.182 39.7344 191.484 39.5469C191.797 39.349 192.13 39.1979 192.484 39.0938C192.849 38.9792 193.182 38.9219 193.484 38.9219C193.766 38.9219 194.047 38.9583 194.328 39.0312C194.609 39.0938 194.875 39.1979 195.125 39.3438C195.375 39.4792 195.599 39.651 195.797 39.8594C196.005 40.0573 196.172 40.2917 196.297 40.5625C196.484 40.9479 196.635 41.3594 196.75 41.7969C196.865 42.224 196.953 42.6667 197.016 43.125C197.078 43.5729 197.12 44.026 197.141 44.4844C197.161 44.9323 197.172 45.3698 197.172 45.7969ZM194.672 45.2969L194.625 44.2344C194.604 44.2344 194.583 44.2344 194.562 44.2344C194.542 44.224 194.521 44.2188 194.5 44.2188C194.365 44.2188 194.193 44.2552 193.984 44.3281C193.786 44.3906 193.594 44.4844 193.406 44.6094C193.219 44.724 193.057 44.8542 192.922 45C192.797 45.1458 192.734 45.2969 192.734 45.4531C192.734 45.599 192.786 45.6979 192.891 45.75C192.995 45.8021 193.115 45.8281 193.25 45.8281C193.479 45.8281 193.724 45.7708 193.984 45.6562C194.245 45.5312 194.474 45.4115 194.672 45.2969ZM202.688 39.4062C202.688 39.7083 202.583 39.9323 202.375 40.0781C202.177 40.224 201.953 40.3646 201.703 40.5C201.453 40.625 201.224 40.776 201.016 40.9531C200.818 41.1302 200.719 41.3958 200.719 41.75C200.719 41.9375 200.76 42.099 200.844 42.2344C200.938 42.3698 201.047 42.4948 201.172 42.6094C201.307 42.7135 201.453 42.8229 201.609 42.9375C201.766 43.0521 201.906 43.1823 202.031 43.3281C202.167 43.474 202.276 43.651 202.359 43.8594C202.453 44.0677 202.5 44.3229 202.5 44.625C202.5 45.0625 202.385 45.4948 202.156 45.9219C201.938 46.3385 201.651 46.7135 201.297 47.0469C200.953 47.3698 200.562 47.6302 200.125 47.8281C199.688 48.026 199.255 48.125 198.828 48.125C198.651 48.125 198.474 48.1094 198.297 48.0781C198.12 48.0573 197.958 48.0104 197.812 47.9375C197.677 47.8646 197.562 47.7656 197.469 47.6406C197.375 47.5052 197.328 47.3333 197.328 47.125C197.328 46.8333 197.385 46.6094 197.5 46.4531C197.615 46.2865 197.76 46.1562 197.938 46.0625C198.115 45.9688 198.302 45.8958 198.5 45.8438C198.708 45.7917 198.901 45.7292 199.078 45.6562C199.255 45.5729 199.401 45.4688 199.516 45.3438C199.63 45.2188 199.688 45.0417 199.688 44.8125C199.688 44.5938 199.599 44.3698 199.422 44.1406C199.255 43.901 199.068 43.651 198.859 43.3906C198.651 43.1198 198.458 42.8333 198.281 42.5312C198.115 42.2292 198.031 41.8958 198.031 41.5312C198.031 41.0833 198.12 40.6719 198.297 40.2969C198.484 39.9115 198.729 39.5781 199.031 39.2969C199.344 39.0156 199.698 38.7969 200.094 38.6406C200.49 38.474 200.906 38.3906 201.344 38.3906C201.51 38.3906 201.672 38.4062 201.828 38.4375C201.995 38.4688 202.141 38.526 202.266 38.6094C202.391 38.6823 202.49 38.7865 202.562 38.9219C202.646 39.0469 202.688 39.2083 202.688 39.4062ZM210.328 39.5938C210.328 39.9271 210.24 40.2396 210.062 40.5312C209.896 40.8125 209.682 41.0781 209.422 41.3281C209.172 41.5677 208.891 41.7812 208.578 41.9688C208.276 42.1458 207.995 42.2865 207.734 42.3906C207.797 42.8906 207.828 43.4062 207.828 43.9375C207.828 44.1146 207.823 44.3125 207.812 44.5312C207.812 44.75 207.781 44.9583 207.719 45.1562C207.667 45.3438 207.573 45.5052 207.438 45.6406C207.312 45.776 207.13 45.8438 206.891 45.8438C206.474 45.8438 206.193 45.6354 206.047 45.2188C205.995 45.0625 205.953 44.8542 205.922 44.5938C205.891 44.3229 205.865 44.0469 205.844 43.7656C205.833 43.474 205.828 43.1927 205.828 42.9219C205.828 42.651 205.828 42.4271 205.828 42.25C205.828 42.1042 205.833 41.9323 205.844 41.7344C205.865 41.5365 205.917 41.375 206 41.25C206.094 41.1146 206.25 40.9844 206.469 40.8594C206.688 40.724 206.911 40.5833 207.141 40.4375C207.38 40.2917 207.589 40.1302 207.766 39.9531C207.943 39.776 208.031 39.5677 208.031 39.3281C208.031 39.151 207.99 38.9896 207.906 38.8438C207.823 38.6979 207.714 38.5781 207.578 38.4844C207.453 38.3802 207.307 38.3021 207.141 38.25C206.984 38.1875 206.823 38.1562 206.656 38.1562C206.26 38.1562 205.948 38.224 205.719 38.3594C205.49 38.4844 205.292 38.625 205.125 38.7812C204.969 38.9271 204.818 39.0677 204.672 39.2031C204.536 39.3281 204.359 39.3906 204.141 39.3906C203.891 39.3906 203.661 39.3021 203.453 39.125C203.255 38.9479 203.156 38.7344 203.156 38.4844C203.156 38.0781 203.276 37.7344 203.516 37.4531C203.755 37.1615 204.052 36.9323 204.406 36.7656C204.76 36.5885 205.135 36.4635 205.531 36.3906C205.927 36.3073 206.281 36.2656 206.594 36.2656C207.01 36.2656 207.438 36.3594 207.875 36.5469C208.323 36.724 208.724 36.9635 209.078 37.2656C209.443 37.5677 209.74 37.9219 209.969 38.3281C210.208 38.7344 210.328 39.1562 210.328 39.5938ZM208.016 47.1875C208.016 47.3646 207.969 47.5156 207.875 47.6406C207.792 47.7656 207.682 47.8698 207.547 47.9531C207.422 48.0365 207.276 48.099 207.109 48.1406C206.953 48.1823 206.802 48.2031 206.656 48.2031C206.417 48.2031 206.193 48.1458 205.984 48.0312C205.786 47.9167 205.688 47.7292 205.688 47.4688C205.688 47.3021 205.729 47.1562 205.812 47.0312C205.906 46.8958 206.021 46.7812 206.156 46.6875C206.292 46.5938 206.438 46.526 206.594 46.4844C206.76 46.4323 206.917 46.4062 207.062 46.4062C207.302 46.4062 207.521 46.4688 207.719 46.5938C207.917 46.7188 208.016 46.9167 208.016 47.1875Z" fill="white"/>
<defs>
<filter id="filter0_i_694_198" x="0" y="0" width="234" height="118.711" filterUnits="userSpaceOnUse" color-interpolation-filters="sRGB">
<feFlood flood-opacity="0" result="BackgroundImageFix"/>
<feBlend mode="normal" in="SourceGraphic" in2="BackgroundImageFix" result="shape"/>
<feColorMatrix in="SourceAlpha" type="matrix" values="0 0 0 0 0 0 0 0 0 0 0 0 0 0 0 0 0 0 127 0" result="hardAlpha"/>
<feOffset dy="4"/>
<feGaussianBlur stdDeviation="2"/>
<feComposite in2="hardAlpha" operator="arithmetic" k2="-1" k3="1"/>
<feColorMatrix type="matrix" values="0 0 0 0 0 0 0 0 0 0 0 0 0 0 0 0 0 0 0.25 0"/>
<feBlend mode="normal" in2="shape" result="effect1_innerShadow_694_198"/>
</filter>
</defs>
</svg>
