<svg xmlns="http://www.w3.org/2000/svg" width="249" height="180" fill="none" viewBox="0 0 249 180"><g filter="url(#a)"><path fill="#f4719c" fill-rule="evenodd" d="M26.96 118.322C8.977 111.202 1 101.673 1 91.466c0-14.368 21.056-28.562 55.888-35.58C73.783 52.484 93.633 51 116.44 51c69.828 0 134.224 14.66 131.475 40.466 0 12.804-11.918 24.579-36.191 31.609-16.172 4.683-37.585 7.024-65.507 7.024-49.417 2.288-86.81-1.529-110.75-8.823-8.1 12.385-15.356 28.568-13.646 35.772-5.84-7.603-.9-24.982 5.14-38.726" clip-rule="evenodd"/></g><path fill="#f4719c" d="m26.96 118.322.916.402a1 1 0 0 0-.548-1.332zm29.928-62.436-.197-.98zm191.027 35.58-.994-.106a1 1 0 0 0-.006.106zm-36.191 31.609.279.96zm-65.507 7.024v-1l-.046.001zm-110.75-8.823.291-.957a1 1 0 0 0-1.128.409zm-13.646 35.772-.793.61a1 1 0 0 0 1.766-.84zM0 91.466c0 10.836 8.483 20.616 26.592 27.785l.736-1.859C9.471 110.322 2 101.044 2 91.466zm56.69-36.56C39.199 58.431 25.097 63.77 15.34 70.08 5.622 76.366 0 83.77 0 91.466h2c0-6.67 4.906-13.549 14.425-19.706 9.48-6.132 23.321-11.4 40.66-14.893zM116.44 50c-22.845 0-42.766 1.484-59.75 4.906l.396 1.96C73.893 53.482 93.67 52 116.44 52zm132.469 41.572c.741-6.949-3.076-13.009-9.962-18.12-6.883-5.107-16.99-9.4-29.282-12.86C185.063 53.67 151.409 50 116.44 50v2c34.86 0 68.317 3.66 92.683 10.518 12.192 3.431 22.032 7.642 28.632 12.54 6.598 4.897 9.8 10.347 9.166 16.302zm-36.906 32.463c24.354-7.053 36.912-19.041 36.912-32.57h-2c0 12.082-11.278 23.643-35.469 30.649zm-65.786 7.064c27.966 0 49.484-2.343 65.786-7.064l-.557-1.921c-16.044 4.646-37.35 6.985-65.229 6.985zm-111.042-8.867c24.095 7.342 61.617 11.156 111.089 8.866l-.093-1.998c-49.363 2.285-86.627-1.534-110.413-8.781zm-12.381 34.586c-.378-1.592-.277-3.786.278-6.453.55-2.648 1.529-5.674 2.821-8.887 2.585-6.424 6.39-13.508 10.41-19.655l-1.673-1.095c-4.08 6.239-7.951 13.439-10.592 20.004-1.32 3.282-2.342 6.426-2.924 9.226-.578 2.78-.743 5.311-.266 7.321zm3.25-38.899c-3.036 6.912-5.814 14.772-7.093 21.892-.64 3.56-.91 6.97-.636 10.002.274 3.028 1.1 5.744 2.713 7.845l1.586-1.219c-1.307-1.701-2.054-4.008-2.308-6.807-.253-2.795-.007-6.014.614-9.467 1.24-6.907 3.953-14.608 6.956-21.441z"/><path fill="#fff" d="M30.059 86.516q-.954 0-1.656-.485a3.8 3.8 0 0 1-1.172-1.265 6.9 6.9 0 0 1-.688-1.875 11.1 11.1 0 0 1 .016-4.454q.25-1.125.75-2.03a4.6 4.6 0 0 1 1.265-1.485q.766-.578 1.829-.578 1.03 0 1.718.562.704.547 1.11 1.438.422.875.593 1.969.188 1.094.188 2.187 0 1.219-.25 2.313a6.2 6.2 0 0 1-.734 1.906q-.485.829-1.235 1.312-.734.485-1.734.485m.187-8.72a.68.68 0 0 0-.515.235q-.203.234-.344.625-.14.375-.203.86-.063.468-.063.953 0 .546.063 1.094.078.546.219.984.14.437.343.703.219.266.516.266.345 0 .547-.344t.312-.828a5.3 5.3 0 0 0 .157-1q.046-.515.047-.86 0-.421-.063-.89a4.2 4.2 0 0 0-.172-.86 2.1 2.1 0 0 0-.328-.671.62.62 0 0 0-.516-.266m15.563 3.548q0 .687-.156 1.515a5.3 5.3 0 0 1-.5 1.516q-.345.704-.922 1.172-.563.468-1.422.469-.219 0-.453-.032a2.2 2.2 0 0 1-.453-.109 1.6 1.6 0 0 1-.375-.203.9.9 0 0 1-.266-.36l-.14 2.25q-.016.36-.032.86 0 .499-.125.953a1.7 1.7 0 0 1-.39.766q-.267.327-.782.328-.297 0-.5-.313a2.5 2.5 0 0 1-.328-.765 9 9 0 0 1-.172-1.047 14 14 0 0 1-.078-1.11q-.015-.531-.016-.968v-.641q0-1.047-.015-2.078-.015-1.047-.016-2.094v-.578q0-.405.032-.875.03-.468.093-.969.078-.5.219-.906.141-.422.36-.672a.67.67 0 0 1 .53-.266q.204 0 .36.126a.86.86 0 0 1 .281.296q.126.172.203.375t.125.375q.484-.546 1.11-.828.64-.28 1.36-.281.75 0 1.218.422.485.422.75 1.047.281.624.39 1.344.11.702.11 1.28m-2.234-.125q0-.234-.047-.469a1.3 1.3 0 0 0-.141-.453.76.76 0 0 0-.281-.344.76.76 0 0 0-.469-.14q-.375 0-.797.25-.406.234-.61.546-.076.126-.093.407-.016.281-.016.421v.297l.032.36.03.36q.033.17.079.265a.6.6 0 0 0 .203.265q.156.11.344.204t.375.14q.203.047.344.047a.65.65 0 0 0 .53-.25q.204-.25.313-.594.126-.343.157-.703.046-.375.047-.61m9.828 2.578q0 .28-.032.734a4.3 4.3 0 0 1-.125.89 2.1 2.1 0 0 1-.343.735q-.235.313-.657.313-.578 0-.89-.375t-.297-.938q-.5.438-1.14.688-.625.25-1.282.25-.453 0-.86-.219a2.7 2.7 0 0 1-.718-.562 2.9 2.9 0 0 1-.5-.766 2.2 2.2 0 0 1-.188-.86q0-.75.453-1.312a4.3 4.3 0 0 1 1.141-.953q.672-.406 1.422-.64.766-.235 1.36-.313v-.14a.6.6 0 0 0 .015-.141q0-.485-.266-.782-.265-.297-.75-.297-.39 0-.672.141a3.3 3.3 0 0 0-.53.297q-.25.156-.5.297a1.24 1.24 0 0 1-.563.125.87.87 0 0 1-.594-.219.74.74 0 0 1-.234-.562q0-.516.297-.938.312-.422.765-.703a4 4 0 0 1 1-.453 3.4 3.4 0 0 1 1-.172q.422 0 .844.11.422.093.797.312.375.203.672.515.312.297.5.704.28.577.453 1.234.171.64.265 1.328.095.672.125 1.36.032.671.032 1.312m-2.5-.5-.047-1.063h-.063a.14.14 0 0 0-.062-.015q-.204 0-.516.11-.297.093-.578.28a2.3 2.3 0 0 0-.484.391.7.7 0 0 0-.188.453q0 .219.156.297a.8.8 0 0 0 .36.078q.344 0 .734-.172.39-.188.688-.36m.953-7.594q0 .125-.047.156-.046.032-.156.032-.188 0-.422-.094a4 4 0 0 1-.453-.234 11 11 0 0 1-.438-.297 6 6 0 0 1-.344-.282q-.156.126-.375.297a5 5 0 0 1-.437.328 5 5 0 0 1-.469.25 1.2 1.2 0 0 1-.437.094.4.4 0 0 1-.157-.031q-.062-.031-.062-.156 0-.236.203-.594.204-.36.5-.688t.625-.562.578-.234.578.234q.328.219.61.531.296.313.5.656.203.345.203.594m6.922 10.734q-.266 0-.422-.25a1.7 1.7 0 0 1-.235-.546 4.4 4.4 0 0 1-.109-.625q-.016-.33-.016-.5 0-.469.047-.938l.125-.937q.078-.469.125-.938a7 7 0 0 0 .063-.937q0-.187-.016-.407a1.7 1.7 0 0 0-.078-.406.66.66 0 0 0-.172-.328.44.44 0 0 0-.328-.125q-.141 0-.312.234a3.4 3.4 0 0 0-.329.516 6 6 0 0 0-.25.578 1.5 1.5 0 0 0-.093.422v.703q.015.345.015.703v.906q-.015.281-.047.579a5 5 0 0 1-.093.578q-.047.281-.141.547a1.7 1.7 0 0 1-.25.453q-.14.188-.344.312a.9.9 0 0 1-.484.125.7.7 0 0 1-.516-.203 1.5 1.5 0 0 1-.328-.516 3.6 3.6 0 0 1-.187-.718q-.048-.406-.078-.781-.016-.39-.016-.704.015-.327.016-.515v-.735q0-.593-.032-1.171-.015-.578-.015-1.157v-.797a4.6 4.6 0 0 1 .125-.937q.109-.469.359-.797t.734-.328a.6.6 0 0 1 .391.14q.172.141.297.344.141.203.219.438.093.234.14.406.157-.22.36-.422a2.8 2.8 0 0 1 .484-.36A2.54 2.54 0 0 1 58.731 77q.796 0 1.234.39.453.375.656.954.22.562.266 1.219.047.656.047 1.187 0 .266-.047.797-.046.516-.156 1.156-.094.626-.266 1.297-.172.656-.406 1.203a3 3 0 0 1-.563.89q-.312.345-.718.344M67.606 80q0 .078-.016.172a1 1 0 0 1-.047.156 1.5 1.5 0 0 1-.437.61 1.1 1.1 0 0 1-.703.234q-.61 0-.829-.61a.5.5 0 0 1-.03-.171q0-.11-.016-.22v-.452a.9.9 0 0 0-.11-.344q-.078-.125-.265-.125-.266 0-.516.344a3.8 3.8 0 0 0-.422.797 7 7 0 0 0-.281.937q-.11.485-.11.781 0 .236.032.579.03.328.125.64.094.313.25.547.171.219.437.219a.8.8 0 0 0 .485-.156q.234-.172.453-.391.203-.187.437-.39a.87.87 0 0 1 .563-.204q.39 0 .61.281a.97.97 0 0 1 .234.641q0 .532-.282 1a3.2 3.2 0 0 1-.703.797q-.422.328-.937.516a2.7 2.7 0 0 1-.985.203q-.843 0-1.437-.422a3.3 3.3 0 0 1-.938-1.063 5 5 0 0 1-.515-1.422 7.3 7.3 0 0 1-.157-1.453q0-.797.22-1.719.218-.937.671-1.734a4.3 4.3 0 0 1 1.156-1.328q.72-.531 1.703-.531.61 0 1.047.265.453.267.735.704.296.421.437.953a3.7 3.7 0 0 1 .156 1.046v.157a1 1 0 0 1-.015.156m6.297.156q-.219.015-.375-.031L73.215 80a3 3 0 0 0-.281-.11.6.6 0 0 0-.313-.046q-.312.016-.562.172a2.2 2.2 0 0 0-.438.39 2.7 2.7 0 0 0-.328.531 3 3 0 0 0-.219.563 4 4 0 0 0-.078.578q-.015.375-.015.813-.016.453-.016.859t-.031.64q-.016.25-.078.594-.063.33-.203.625a1.4 1.4 0 0 1-.344.5.8.8 0 0 1-.563.204.75.75 0 0 1-.468-.157 1.4 1.4 0 0 1-.329-.406 4 4 0 0 1-.218-.61 8 8 0 0 1-.125-.703q-.046-.375-.078-.75-.015-.375-.032-.703v-.625q.016-.28.016-.453a19 19 0 0 0-.062-1.094q-.032-.561-.032-1.109 0-.343.031-.766.032-.42.172-.78.141-.376.407-.626.28-.25.765-.25.266 0 .453.172.188.172.297.422.126.25.188.531t.078.516q.375-.609.844-.984.468-.39 1.218-.422.375-.016.735.078.375.078.672.281.312.188.5.5.203.312.218.734.031.5-.296.766-.33.265-.797.281m7.875 3.063q0 .531-.344 1.047-.328.5-.844.906-.5.39-1.078.64-.578.235-1.062.235a2.76 2.76 0 0 1-1.485-.406 3.9 3.9 0 0 1-1.078-1.063 5.2 5.2 0 0 1-.672-1.406 5.6 5.6 0 0 1-.219-1.516q0-.78.22-1.672.218-.89.655-1.64.454-.75 1.125-1.25.688-.5 1.625-.5.532 0 1.016.187a2.45 2.45 0 0 1 1.422 1.281q.219.454.219 1.016 0 .735-.313 1.375a3.6 3.6 0 0 1-.828 1.11q-.516.468-1.187.765a4 4 0 0 1-1.376.313q.063.453.36.656.312.203.734.203.313 0 .61-.156.296-.156.578-.344.281-.203.547-.36a1.15 1.15 0 0 1 .562-.156.87.87 0 0 1 .563.204q.25.203.25.53m-2.532-3.828a.94.94 0 0 0-.109-.422.36.36 0 0 0-.344-.219.9.9 0 0 0-.578.188 1.4 1.4 0 0 0-.39.453q-.157.266-.25.578a3 3 0 0 0-.094.578q.22-.047.515-.125.313-.078.579-.203a1.6 1.6 0 0 0 .468-.344.66.66 0 0 0 .203-.484m9.797 4.406q0 .28-.031.734-.015.454-.125.89a2.1 2.1 0 0 1-.344.735q-.234.313-.656.313-.578 0-.89-.375-.314-.375-.297-.938-.5.438-1.141.688-.625.25-1.281.25-.453 0-.86-.219a2.7 2.7 0 0 1-.719-.562 2.9 2.9 0 0 1-.5-.766 2.2 2.2 0 0 1-.187-.86q0-.75.453-1.312a4.3 4.3 0 0 1 1.14-.953q.673-.406 1.423-.64.765-.235 1.359-.313v-.14a.6.6 0 0 0 .016-.141q0-.485-.266-.782t-.75-.297q-.39 0-.672.141a3.3 3.3 0 0 0-.531.297q-.25.156-.5.297a1.24 1.24 0 0 1-.563.125.87.87 0 0 1-.593-.219.74.74 0 0 1-.235-.562q0-.516.297-.938.313-.422.766-.703a4 4 0 0 1 1-.453 3.4 3.4 0 0 1 1-.172q.421 0 .844.11.42.093.796.312.375.203.672.515.313.297.5.704.282.577.453 1.234.173.64.266 1.328.094.672.125 1.36.03.671.031 1.312m-2.5-.5-.047-1.063h-.062a.14.14 0 0 0-.063-.015q-.203 0-.515.11-.296.093-.578.28a2.3 2.3 0 0 0-.485.391.7.7 0 0 0-.187.453q0 .219.156.297a.8.8 0 0 0 .36.078q.343 0 .734-.172.39-.188.687-.36m8.016-5.89q0 .452-.313.671a6 6 0 0 1-.671.422q-.376.188-.688.453-.297.266-.297.797 0 .282.125.484.14.203.328.375.203.157.438.329.234.171.422.39.202.219.328.531.14.313.14.766 0 .657-.343 1.297a4.3 4.3 0 0 1-.86 1.125 4.3 4.3 0 0 1-1.172.781q-.656.297-1.296.297-.267 0-.532-.047a1.5 1.5 0 0 1-.484-.14 1.04 1.04 0 0 1-.344-.297.9.9 0 0 1-.14-.516q0-.438.171-.672.172-.25.438-.39t.562-.22q.313-.077.579-.187.265-.124.437-.312.172-.187.172-.531 0-.33-.266-.672-.25-.36-.562-.75a8 8 0 0 1-.578-.86 2.04 2.04 0 0 1-.25-1q0-.672.265-1.234a3.4 3.4 0 0 1 .735-1 3.5 3.5 0 0 1 1.062-.656 3.2 3.2 0 0 1 1.25-.25q.25 0 .484.046.25.048.438.172a.8.8 0 0 1 .297.313.86.86 0 0 1 .125.484m10.937 5.812q0 .531-.343 1.047-.328.5-.844.906-.5.39-1.078.64-.579.235-1.063.235a2.76 2.76 0 0 1-1.484-.406 3.9 3.9 0 0 1-1.078-1.063 5.2 5.2 0 0 1-.672-1.406 5.6 5.6 0 0 1-.219-1.516q0-.78.219-1.672.22-.89.656-1.64.453-.75 1.125-1.25.688-.5 1.625-.5.531 0 1.016.187a2.46 2.46 0 0 1 1.422 1.281q.219.454.218 1.016 0 .735-.312 1.375a3.6 3.6 0 0 1-.828 1.11 4.4 4.4 0 0 1-1.188.765 4 4 0 0 1-1.375.313q.063.453.36.656.312.203.734.203.313 0 .609-.156.297-.156.579-.344.28-.203.546-.36.282-.155.563-.156.313 0 .562.204a.65.65 0 0 1 .25.53m-2.531-3.828a.94.94 0 0 0-.109-.422.36.36 0 0 0-.344-.219.9.9 0 0 0-.578.188 1.4 1.4 0 0 0-.391.453q-.156.266-.25.578a3 3 0 0 0-.093.578q.218-.047.515-.125a3 3 0 0 0 .578-.203q.282-.141.469-.344a.66.66 0 0 0 .203-.484m.875-5.547q0 .171-.094.344-.093.156-.234.296a2.3 2.3 0 0 1-.281.266q-.156.109-.281.203a7 7 0 0 0-.25.188 4 4 0 0 1-.282.187 3 3 0 0 1-.297.14.7.7 0 0 1-.281.063.4.4 0 0 1-.219-.062.27.27 0 0 1-.093-.219q0-.234.172-.562.188-.344.453-.657.265-.328.562-.547.297-.234.547-.234a.52.52 0 0 1 .391.188q.187.172.187.406m12.891 7.687q0 .859-.172 1.703a4.7 4.7 0 0 1-.578 1.516 3.15 3.15 0 0 1-1.094 1.063q-.672.406-1.687.406-1 0-1.672-.39a3.2 3.2 0 0 1-1.078-1.063 4.8 4.8 0 0 1-.563-1.485 9 9 0 0 1-.156-1.687q0-.937.219-1.86.046-.249.171-.687.141-.453.344-.875.219-.438.485-.75.28-.313.609-.313.312 0 .5.172t.297.438q.11.25.14.547.032.28.032.515 0 .36-.063.703-.047.345-.109.688l-.125.937a9.5 9.5 0 0 0-.031 1.47q.03.28.125.546.093.266.265.453.172.172.485.172.406 0 .64-.219.25-.219.36-.547.124-.328.156-.703.031-.375.031-.687 0-.688-.094-1.344a61 61 0 0 1-.172-1.36 1.5 1.5 0 0 1 .063-.687q.078-.234.219-.422.14-.188.343-.297a.85.85 0 0 1 .454-.125q.344 0 .609.25.266.235.437.625.188.375.297.86.126.469.188.937.078.453.094.86.03.406.031.64m10.437-.687v.812q0 .5-.031 1.094-.016.594-.094 1.203a5.3 5.3 0 0 1-.25 1.078 2.5 2.5 0 0 1-.406.797.79.79 0 0 1-.641.313.6.6 0 0 1-.531-.282 2.3 2.3 0 0 1-.25-.687 5 5 0 0 1-.094-.797v-.64q0-.704.047-1.376t.047-1.375v-.28q0-.204-.031-.407a1.2 1.2 0 0 0-.109-.36q-.063-.156-.204-.156-.28 0-.453.297a2.7 2.7 0 0 0-.281.672q-.11.39-.156.781-.047.375-.063.563a9 9 0 0 0-.062.61q-.016.405-.063.89a9 9 0 0 1-.125 1q-.078.5-.218.922a2.1 2.1 0 0 1-.329.671q-.203.266-.5.266a.64.64 0 0 1-.578-.328 2.4 2.4 0 0 1-.297-.766 6.4 6.4 0 0 1-.125-.89 23 23 0 0 1-.015-.703v-.516q.015-.25.015-.516v-.359q0-.25-.015-.547 0-.312-.031-.64a5 5 0 0 0-.063-.594 1.4 1.4 0 0 0-.141-.453q-.093-.172-.218-.172-.204 0-.375.265-.172.25-.297.61-.125.343-.203.687-.063.345-.063.5v.094q0 .75.094 1.469.093.719.094 1.469 0 .437-.282.812-.28.36-.781.36a.76.76 0 0 1-.594-.266 2.4 2.4 0 0 1-.39-.719 6 6 0 0 1-.25-.953 13 13 0 0 1-.11-1.031q-.03-.516-.046-.922v-.625q0-.234-.016-.688 0-.453.016-.984.03-.531.093-1.078.063-.563.203-1.016a2.3 2.3 0 0 1 .36-.734.73.73 0 0 1 .594-.297q.405 0 .656.219.265.218.265.656 0 .093-.015.187 0 .094-.016.172.172-.25.422-.5.25-.265.531-.469.297-.218.625-.343.329-.14.657-.14a.97.97 0 0 1 .562.171q.25.172.438.438.188.25.312.546.125.297.172.563.156-.282.375-.563.234-.297.5-.515t.578-.36q.328-.14.672-.14.328 0 .562.234t.407.61q.172.36.265.828.094.453.157.906.061.437.078.828.015.375.015.594m7.766 5.61q-.797 0-1.391-.423a3.7 3.7 0 0 1-1-1.078 5.2 5.2 0 0 1-.609-1.453 6.6 6.6 0 0 1-.203-1.594q0-.828.203-1.703.203-.89.625-1.61.422-.734 1.078-1.187.656-.469 1.563-.469.875 0 1.484.485.625.468 1 1.187.375.704.531 1.547.156.844.11 1.594a8.6 8.6 0 0 1-.266 1.672 5.3 5.3 0 0 1-.609 1.516 3.5 3.5 0 0 1-1.032 1.093q-.624.422-1.484.422m.156-7.063q-.234 0-.422.25-.171.25-.297.609a5.5 5.5 0 0 0-.171.766q-.063.39-.063.687 0 .375.063.813.077.437.203.812.124.36.297.61.187.234.421.234.25 0 .422-.234.188-.236.297-.594.11-.36.156-.781.048-.438.047-.813 0-.345-.062-.75a4.3 4.3 0 0 0-.188-.781 1.8 1.8 0 0 0-.297-.594q-.172-.234-.406-.234m1.766-5.063q0 .173-.094.344a1.6 1.6 0 0 1-.234.297 2.3 2.3 0 0 1-.282.265q-.156.11-.281.204a8 8 0 0 0-.25.187 3 3 0 0 1-.281.188 3 3 0 0 1-.297.14.7.7 0 0 1-.281.063.4.4 0 0 1-.219-.063.27.27 0 0 1-.094-.219q0-.234.172-.562.188-.344.453-.656.266-.329.563-.547.297-.234.547-.235.219 0 .39.188.188.172.188.406m7.687 5.828q-.219.015-.375-.031l-.312-.125a3 3 0 0 0-.281-.11.6.6 0 0 0-.313-.046q-.312.016-.562.172a2.2 2.2 0 0 0-.438.39 2.7 2.7 0 0 0-.328.531 3 3 0 0 0-.219.563 4 4 0 0 0-.078.578q-.015.375-.016.813-.015.453-.015.859t-.031.64a5 5 0 0 1-.079.594 2.5 2.5 0 0 1-.203.625 1.4 1.4 0 0 1-.343.5.8.8 0 0 1-.563.204.75.75 0 0 1-.469-.157 1.4 1.4 0 0 1-.328-.406 4 4 0 0 1-.219-.61 8 8 0 0 1-.125-.703q-.047-.375-.078-.75-.015-.375-.031-.703v-.625q.015-.28.016-.453-.017-.546-.063-1.094a20 20 0 0 1-.031-1.109q0-.343.031-.766.031-.42.172-.78a1.6 1.6 0 0 1 .406-.626q.282-.25.766-.25.266 0 .453.172.188.172.297.422.125.25.187.531.063.282.079.516.375-.609.843-.984.47-.39 1.219-.422.375-.016.734.078.375.078.672.281.313.188.5.5.204.312.219.734.031.5-.297.766-.328.265-.797.281m8.407.516q0 .796-.032 1.594-.015.796-.078 1.593-.047.688-.125 1.47-.078.78-.25 1.546a9.4 9.4 0 0 1-.453 1.484q-.28.72-.75 1.266a3.4 3.4 0 0 1-1.109.875q-.657.328-1.563.328-.422 0-.953-.14a4.2 4.2 0 0 1-.984-.376 2.9 2.9 0 0 1-.782-.624 1.25 1.25 0 0 1-.312-.844q0-.36.25-.672a.86.86 0 0 1 .672-.297q.25 0 .469.078.234.094.453.203.234.11.437.188.219.094.438.094.578 0 .968-.297.391-.282.625-.735.235-.437.344-.969a7 7 0 0 0 .172-.984q-.312.36-.734.5a3 3 0 0 1-.86.125q-.828 0-1.406-.281a2.6 2.6 0 0 1-.937-.797 3.6 3.6 0 0 1-.532-1.187 6 6 0 0 1-.172-1.454q0-.483.094-1.093a9.3 9.3 0 0 1 .813-2.454q.313-.593.718-1.046.406-.454.907-.735a2.3 2.3 0 0 1 1.125-.281q.593 0 1.047.344.468.344.546.969.172-.33.454-.641a.87.87 0 0 1 .687-.328q.22 0 .359.219.157.218.235.578.093.344.14.765.048.407.063.813.016.39.016.719zm-2.375 1.016q0-.235-.079-.61a3.3 3.3 0 0 0-.203-.719 2 2 0 0 0-.328-.593q-.203-.25-.484-.25a.94.94 0 0 0-.641.25 2.3 2.3 0 0 0-.453.609q-.187.345-.297.75-.094.39-.094.672 0 .203.032.547.031.343.125.672.109.328.281.562a.54.54 0 0 0 .453.234q.422 0 .734-.203.314-.203.516-.515.219-.313.328-.688t.11-.719m10.125 2.109q0 .28-.032.734-.015.454-.125.89a2.1 2.1 0 0 1-.343.735q-.235.313-.657.313-.578 0-.89-.375-.314-.375-.297-.938-.5.438-1.141.688a3.4 3.4 0 0 1-1.281.25q-.453 0-.859-.219a2.7 2.7 0 0 1-.719-.562 2.8 2.8 0 0 1-.5-.766 2.2 2.2 0 0 1-.188-.86q0-.75.453-1.312a4.3 4.3 0 0 1 1.141-.953q.672-.406 1.422-.64.765-.235 1.359-.313v-.14a.6.6 0 0 0 .016-.141q0-.485-.266-.782-.265-.297-.75-.297-.39 0-.672.141a3.3 3.3 0 0 0-.531.297q-.25.156-.5.297a1.24 1.24 0 0 1-.562.125.87.87 0 0 1-.594-.219.74.74 0 0 1-.234-.562q0-.516.296-.938.313-.422.766-.703a4 4 0 0 1 1-.453 3.4 3.4 0 0 1 1-.172q.422 0 .844.11.422.093.797.312.375.203.672.515.312.297.5.704.28.577.453 1.234.172.64.265 1.328.094.672.125 1.36.032.671.032 1.312m-2.5-.5-.047-1.063h-.063a.14.14 0 0 0-.062-.015 1.6 1.6 0 0 0-.516.11 2.3 2.3 0 0 0-.578.28 2.3 2.3 0 0 0-.484.391.7.7 0 0 0-.188.453q0 .219.156.297a.8.8 0 0 0 .36.078q.344 0 .734-.172.39-.188.688-.36m1.89-8.938a1 1 0 0 1-.156.5 2.3 2.3 0 0 1-.391.47q-.234.203-.5.343a1.2 1.2 0 0 1-.5.125q-.234 0-.468-.078-.219-.094-.454-.203a4 4 0 0 0-.437-.188 1.1 1.1 0 0 0-.438-.094.63.63 0 0 0-.343.11 5 5 0 0 0-.36.219q-.187.108-.39.203a.8.8 0 0 1-.375.093.49.49 0 0 1-.407-.203.75.75 0 0 1-.156-.437q0-.266.188-.516t.468-.437q.282-.204.579-.313.312-.125.546-.125.267 0 .454.11.202.109.375.25.172.14.343.25.188.109.438.109.202 0 .375-.11.188-.124.359-.265.188-.156.344-.266a.6.6 0 0 1 .359-.125q.219 0 .375.188a.57.57 0 0 1 .172.39m4.516 12.094q-.797 0-1.391-.422a3.7 3.7 0 0 1-1-1.078 5.2 5.2 0 0 1-.609-1.453 6.5 6.5 0 0 1-.203-1.594q0-.828.203-1.703.203-.89.625-1.61.421-.734 1.078-1.187.656-.469 1.562-.469.876 0 1.485.485.625.468 1 1.187.375.704.531 1.547a6.5 6.5 0 0 1 .109 1.594 8.6 8.6 0 0 1-.265 1.672 5.3 5.3 0 0 1-.61 1.516q-.405.671-1.031 1.093-.624.422-1.484.422m.156-7.062q-.234 0-.422.25-.171.25-.297.609-.11.36-.172.766-.062.39-.062.687 0 .375.062.813.079.437.204.812.125.36.296.61.188.234.422.234.25 0 .422-.234.187-.236.297-.594.11-.36.156-.781.047-.438.047-.813 0-.345-.062-.75a4.3 4.3 0 0 0-.188-.781 1.8 1.8 0 0 0-.297-.594q-.171-.234-.406-.234m15.063-.657-.25 2.266q-.126 1.125-.172 2.25a34 34 0 0 0-.063 2.453q.016 1.157.016 2.453 0 .313-.016.766 0 .453-.109.875-.11.421-.36.719-.234.296-.718.296a.62.62 0 0 1-.407-.14 1.4 1.4 0 0 1-.281-.375 3 3 0 0 1-.187-.5 10 10 0 0 1-.11-.578 12 12 0 0 1-.093-1.219v-2.969a2.3 2.3 0 0 1-.938.719q-.562.234-1.125.234-.703 0-1.219-.328a3 3 0 0 1-.828-.86 4 4 0 0 1-.484-1.155 5 5 0 0 1-.156-1.22v-.093a6.8 6.8 0 0 1 .25-1.75 6.8 6.8 0 0 1 .734-1.766q.5-.812 1.234-1.343.75-.547 1.735-.547.531 0 .968.219.454.218.641.718.124-.36.375-.578a.98.98 0 0 1 .672-.234q.515 0 .719.344.218.327.218.734 0 .172-.015.313-.016.14-.031.296m-3.594.375q-.36 0-.672.297a2.7 2.7 0 0 0-.547.703q-.234.407-.375.875a3.3 3.3 0 0 0-.125.829q0 .218.031.468.048.25.125.485.094.218.235.375a.56.56 0 0 0 .39.14q.204 0 .469-.094.282-.109.547-.265.265-.172.469-.375t.281-.39q.047-.11.078-.329.032-.219.047-.453.031-.25.047-.484.015-.235.015-.36 0-.187-.093-.422a2 2 0 0 0-.219-.468 1.3 1.3 0 0 0-.328-.375.6.6 0 0 0-.375-.157m11.187 2.422q0 .859-.172 1.703a4.7 4.7 0 0 1-.578 1.516 3.15 3.15 0 0 1-1.093 1.063q-.672.406-1.688.406-1 0-1.672-.39a3.2 3.2 0 0 1-1.078-1.063 4.8 4.8 0 0 1-.562-1.485 9 9 0 0 1-.157-1.687q0-.937.219-1.86.047-.249.172-.687.14-.453.344-.875.219-.438.484-.75.282-.313.609-.313.313 0 .5.172.188.172.297.438.11.25.141.547.031.28.031.515 0 .36-.062.703-.048.345-.11.688l-.125.937a9.5 9.5 0 0 0-.031 1.47q.032.28.125.546.094.266.266.453.172.172.484.172.406 0 .641-.219.25-.219.359-.547.125-.328.156-.703.032-.375.032-.687 0-.688-.094-1.344a51 51 0 0 1-.172-1.36 1.5 1.5 0 0 1 .062-.687q.079-.234.219-.422t.344-.297a.84.84 0 0 1 .453-.125q.344 0 .609.25.266.235.438.625.188.375.297.86.125.469.187.937.079.453.094.86.031.406.031.64m7.5 1.688q0 .531-.343 1.047-.328.5-.844.906-.5.39-1.078.64-.579.235-1.063.235a2.76 2.76 0 0 1-1.484-.406 3.9 3.9 0 0 1-1.078-1.063 5.1 5.1 0 0 1-.672-1.406 5.6 5.6 0 0 1-.219-1.516q0-.78.219-1.672.219-.89.656-1.64.453-.75 1.125-1.25.687-.5 1.625-.5.531 0 1.016.187.484.172.843.5.36.329.579.781.218.454.218 1.016 0 .735-.312 1.375a3.7 3.7 0 0 1-.828 1.11 4.4 4.4 0 0 1-1.188.765 4 4 0 0 1-1.375.313q.063.453.36.656.312.203.734.203.312 0 .609-.156a6 6 0 0 0 .578-.344q.282-.203.547-.36.281-.155.563-.156.313 0 .562.204a.65.65 0 0 1 .25.53m-2.531-3.828a.94.94 0 0 0-.109-.422.36.36 0 0 0-.344-.219.9.9 0 0 0-.578.188 1.4 1.4 0 0 0-.391.453q-.156.266-.25.578a3 3 0 0 0-.094.578q.219-.047.516-.125.312-.078.578-.203.282-.141.469-.344a.66.66 0 0 0 .203-.484m13.469 3.828q0 .531-.344 1.047-.328.5-.844.906a5 5 0 0 1-1.078.64q-.578.235-1.062.235a2.77 2.77 0 0 1-1.485-.406 3.9 3.9 0 0 1-1.078-1.063 5.2 5.2 0 0 1-.672-1.406 5.6 5.6 0 0 1-.218-1.516q0-.78.218-1.672a6.1 6.1 0 0 1 .657-1.64q.453-.75 1.125-1.25.687-.5 1.625-.5.53 0 1.015.187a2.46 2.46 0 0 1 1.422 1.281q.219.454.219 1.016 0 .735-.313 1.375a3.6 3.6 0 0 1-.828 1.11 4.4 4.4 0 0 1-1.187.765 4 4 0 0 1-1.375.313q.062.453.359.656.312.203.734.203.313 0 .61-.156t.578-.344q.281-.203.547-.36.281-.155.562-.156a.87.87 0 0 1 .563.204q.25.203.25.53m-2.531-3.828a.94.94 0 0 0-.11-.422.36.36 0 0 0-.344-.219.9.9 0 0 0-.578.188 1.4 1.4 0 0 0-.39.453q-.157.266-.25.578a3 3 0 0 0-.094.578q.219-.047.516-.125.312-.078.578-.203.28-.141.468-.344a.66.66 0 0 0 .204-.484m7.734-1.985q0 .453-.313.672a6 6 0 0 1-.671.422q-.376.188-.688.453-.297.266-.297.797a.9.9 0 0 0 .125.484q.14.203.328.375.204.157.438.329.234.171.422.39.202.219.328.531.14.313.14.766 0 .657-.343 1.297a4.3 4.3 0 0 1-.86 1.125 4.3 4.3 0 0 1-1.172.781 3.1 3.1 0 0 1-1.296.297q-.267 0-.532-.047a1.5 1.5 0 0 1-.484-.14 1.05 1.05 0 0 1-.344-.297.9.9 0 0 1-.14-.516q0-.438.171-.672.173-.25.438-.39.266-.14.562-.22.313-.077.579-.187.265-.124.437-.312.172-.187.172-.531 0-.33-.266-.672a14 14 0 0 0-.562-.75 8 8 0 0 1-.578-.86 2.03 2.03 0 0 1-.25-1q0-.672.265-1.234.282-.578.735-1a3.5 3.5 0 0 1 1.062-.656q.594-.25 1.25-.25.25 0 .485.046.25.048.437.172a.8.8 0 0 1 .297.313.86.86 0 0 1 .125.484m4.266 9.156q-1.11 0-1.735-.296a2 2 0 0 1-.922-.813q-.297-.531-.359-1.281-.063-.75-.063-1.672 0-.735.047-1.469.047-.75.141-1.594-.218 0-.344.016h-.203a1.6 1.6 0 0 1-.859-.219q-.375-.219-.375-.671a.7.7 0 0 1 .218-.5q.204-.219.532-.376.327-.156.703-.25.39-.094.734-.124 0-.438.063-.97.062-.53.218-.984.172-.468.454-.78a.92.92 0 0 1 .718-.313q.25 0 .438.156.203.141.328.375.125.218.187.5.063.281.063.547 0 .312-.047.64-.046.33-.172.813a4 4 0 0 1 .36-.031 1 1 0 0 1 .171-.016q.267 0 .547.047.297.047.532.156.25.11.406.297a.6.6 0 0 1 .156.422.67.67 0 0 1-.234.5q-.22.218-.563.375a4 4 0 0 1-.734.25 7 7 0 0 1-.735.11 20 20 0 0 0-.14 1.187q-.031.53-.078 1.078l-.063.547q-.015.266-.015.547 0 .202.015.484.016.266.11.516.093.25.296.437.204.172.563.172.219 0 .453-.031.234-.047.469-.047.406 0 .578.281.187.282.187.719a.9.9 0 0 1-.203.578 1.35 1.35 0 0 1-.484.375 2.6 2.6 0 0 1-.672.234 3.2 3.2 0 0 1-.687.079m9-2.765q0 .28-.032.734-.015.454-.125.89a2.1 2.1 0 0 1-.343.735q-.235.313-.657.313-.578 0-.89-.375-.314-.375-.297-.938-.5.438-1.141.688a3.4 3.4 0 0 1-1.281.25q-.453 0-.859-.219a2.7 2.7 0 0 1-.719-.562 2.8 2.8 0 0 1-.5-.766 2.2 2.2 0 0 1-.188-.86q0-.75.453-1.312a4.3 4.3 0 0 1 1.141-.953q.672-.406 1.422-.64.765-.235 1.359-.313v-.14a.6.6 0 0 0 .016-.141q0-.485-.266-.782-.265-.297-.75-.297-.39 0-.672.141a3.3 3.3 0 0 0-.531.297q-.25.156-.5.297a1.24 1.24 0 0 1-.562.125.87.87 0 0 1-.594-.219.74.74 0 0 1-.234-.562q0-.516.296-.938.313-.422.766-.703a4 4 0 0 1 1-.453 3.4 3.4 0 0 1 1-.172q.422 0 .844.11.422.093.797.312.375.203.672.515.312.297.5.704.28.577.453 1.234.171.64.265 1.328.094.672.125 1.36.032.671.032 1.312m-2.5-.5-.047-1.063h-.063a.14.14 0 0 0-.062-.015 1.6 1.6 0 0 0-.516.11 2.3 2.3 0 0 0-.578.28 2.3 2.3 0 0 0-.484.391.7.7 0 0 0-.188.453q0 .219.156.297a.8.8 0 0 0 .36.078q.344 0 .734-.172.39-.188.688-.36m.75-9.125q0 .172-.094.344a1.6 1.6 0 0 1-.235.296 2.3 2.3 0 0 1-.281.266q-.156.109-.281.203a8 8 0 0 0-.25.188 3 3 0 0 1-.281.187 3 3 0 0 1-.297.14.7.7 0 0 1-.281.063.4.4 0 0 1-.219-.062.27.27 0 0 1-.094-.219q0-.234.172-.562a4 4 0 0 1 .453-.657q.266-.327.563-.546.296-.235.546-.235a.52.52 0 0 1 .391.188q.188.172.188.406M64.325 96.719q0 1.14-.094 2.265-.078 1.125-.078 2.266 0 .922.046 1.828.063.906.063 1.828 0 .25-.016.61-.015.344-.109.672a1.3 1.3 0 0 1-.281.562q-.188.234-.547.234-.47 0-.781-.343a1.7 1.7 0 0 1-.375-.797 2.7 2.7 0 0 1-.86.953q-.562.39-1.218.391a1.72 1.72 0 0 1-1.22-.485 4.3 4.3 0 0 1-.843-1.172 7 7 0 0 1-.5-1.437 6.5 6.5 0 0 1-.156-1.297 9.7 9.7 0 0 1 .203-1.906q.124-.516.312-1 .188-.5.47-.891.296-.39.687-.625.405-.234.922-.234.562 0 1.078.328.515.329.78.812l.142-2.484q.016-.297.046-.688.032-.406.125-.765.11-.36.328-.61.22-.25.641-.25.453 0 .703.22.25.218.36.562.125.327.14.718.031.39.031.735m-2.547 6.937q0-.359-.016-.703a8 8 0 0 1 0-.703 9 9 0 0 0-.219-.438 2 2 0 0 0-.312-.453 1.6 1.6 0 0 0-.39-.359.85.85 0 0 0-.47-.141.62.62 0 0 0-.453.172 1 1 0 0 0-.25.422 2.5 2.5 0 0 0-.11.516q-.015.281-.015.484 0 .188.032.563.03.359.109.734.093.375.25.656.156.282.422.282.202 0 .406-.079a2.2 2.2 0 0 0 .375-.218q.188-.141.344-.297.171-.172.297-.313zm10.125.563q0 .531-.344 1.047-.328.5-.844.906-.5.39-1.078.64-.578.235-1.062.235a2.77 2.77 0 0 1-1.485-.406 3.9 3.9 0 0 1-1.078-1.063 5.2 5.2 0 0 1-.672-1.406 5.6 5.6 0 0 1-.219-1.516q0-.781.22-1.672.218-.89.655-1.64.454-.75 1.125-1.25.688-.5 1.625-.5.532 0 1.016.187a2.45 2.45 0 0 1 1.422 1.281q.219.454.219 1.016 0 .735-.313 1.375a3.6 3.6 0 0 1-.828 1.109q-.516.47-1.187.766a4 4 0 0 1-1.376.313q.063.453.36.656.312.203.734.203.313 0 .61-.156a7 7 0 0 0 .578-.344q.281-.203.547-.359.281-.157.562-.157.313 0 .563.204a.65.65 0 0 1 .25.531m-2.532-3.828a.94.94 0 0 0-.109-.422.36.36 0 0 0-.344-.219.9.9 0 0 0-.578.188 1.4 1.4 0 0 0-.39.453 2.6 2.6 0 0 0-.25.578 3 3 0 0 0-.094.578q.22-.047.515-.125.313-.078.579-.203a1.6 1.6 0 0 0 .468-.344.66.66 0 0 0 .203-.484m7.594 7.047q-.266 0-.422-.25a1.8 1.8 0 0 1-.234-.547 4.4 4.4 0 0 1-.11-.625q-.015-.329-.015-.5 0-.469.047-.938l.125-.937q.078-.469.125-.938.062-.469.062-.937a6 6 0 0 0-.015-.407 1.7 1.7 0 0 0-.079-.406.66.66 0 0 0-.171-.328.45.45 0 0 0-.329-.125q-.14 0-.312.234a3.4 3.4 0 0 0-.328.516q-.14.281-.25.578a1.5 1.5 0 0 0-.094.422v.703q.016.344.016.703v.906q-.015.282-.047.579-.03.296-.094.578-.047.281-.14.547a1.8 1.8 0 0 1-.25.453 1.2 1.2 0 0 1-.344.312.9.9 0 0 1-.485.125.7.7 0 0 1-.515-.203 1.5 1.5 0 0 1-.328-.515 3.6 3.6 0 0 1-.188-.719 25 25 0 0 1-.078-.781q-.016-.391-.016-.704.016-.327.016-.515v-.735q0-.593-.031-1.172a43 43 0 0 1-.016-1.156v-.797a4.6 4.6 0 0 1 .125-.937q.11-.469.36-.797t.734-.328a.6.6 0 0 1 .39.14q.172.141.297.344.14.203.22.438.093.234.14.406.156-.22.36-.422a2.8 2.8 0 0 1 .484-.36A2.54 2.54 0 0 1 76.918 98q.797 0 1.235.39.453.375.656.954.218.563.266 1.218.046.657.046 1.188 0 .266-.046.797-.048.516-.157 1.156-.093.625-.265 1.297-.172.657-.407 1.203a3 3 0 0 1-.562.891q-.312.344-.719.344m6.672.124q-1.11 0-1.734-.296a2 2 0 0 1-.922-.813q-.297-.531-.36-1.281-.062-.75-.062-1.672 0-.734.047-1.469.047-.75.14-1.593-.218 0-.343.015h-.204a1.6 1.6 0 0 1-.859-.219q-.375-.218-.375-.671 0-.282.219-.5.203-.219.531-.376.328-.156.703-.25.39-.094.735-.124 0-.438.062-.97.063-.53.219-.984.172-.468.453-.78a.92.92 0 0 1 .719-.313q.25 0 .437.156.204.141.328.375.126.218.188.5.063.281.062.547 0 .312-.046.64a8 8 0 0 1-.172.813q.265-.031.359-.031.094-.016.172-.016.266 0 .547.047.297.046.531.156.25.11.406.297a.6.6 0 0 1 .156.422.67.67 0 0 1-.234.5q-.219.218-.562.375-.344.156-.735.25a7 7 0 0 1-.734.109q-.095.64-.14 1.188-.033.53-.079 1.078l-.062.547q-.016.265-.016.547 0 .202.016.484.015.266.109.516.095.25.297.437.203.172.562.172.219 0 .454-.031a2.3 2.3 0 0 1 .468-.047q.407 0 .578.281.188.282.188.719a.9.9 0 0 1-.203.578 1.35 1.35 0 0 1-.485.375 2.6 2.6 0 0 1-.671.234q-.36.078-.688.078m7.781-6.406q-.218.016-.375-.031l-.312-.125a3 3 0 0 0-.281-.109.6.6 0 0 0-.313-.047q-.312.015-.562.172a2.2 2.2 0 0 0-.438.39 2.7 2.7 0 0 0-.328.532 3 3 0 0 0-.219.562 4 4 0 0 0-.078.578q-.016.375-.016.813a25 25 0 0 0-.015.859q0 .406-.031.641-.016.25-.079.593a2.6 2.6 0 0 1-.203.625 1.4 1.4 0 0 1-.344.5.8.8 0 0 1-.562.203.75.75 0 0 1-.469-.156 1.4 1.4 0 0 1-.328-.406 4 4 0 0 1-.219-.609 8 8 0 0 1-.125-.703q-.046-.375-.078-.75-.015-.375-.031-.704v-.625a8 8 0 0 0 .016-.453q-.016-.546-.063-1.094-.03-.561-.031-1.109 0-.343.031-.766.031-.42.172-.78.141-.376.406-.626.282-.25.766-.25.266 0 .453.172.188.172.297.422.125.25.187.531.063.282.079.516.374-.609.843-.984.47-.39 1.219-.422.375-.016.734.078.375.078.672.281.313.188.5.5.204.312.219.734.03.5-.297.766a1.3 1.3 0 0 1-.797.281m4.297 6.297q-.797 0-1.39-.422a3.7 3.7 0 0 1-1-1.078 5.2 5.2 0 0 1-.61-1.453 6.6 6.6 0 0 1-.203-1.594q0-.828.203-1.703.204-.89.625-1.61.421-.734 1.078-1.187.657-.469 1.563-.469.875 0 1.484.485.625.468 1 1.187.375.704.531 1.547.157.844.11 1.594a8.6 8.6 0 0 1-.266 1.672 5.3 5.3 0 0 1-.61 1.516q-.406.671-1.03 1.093-.626.422-1.485.422m.156-7.062q-.234 0-.421.25a2.5 2.5 0 0 0-.297.609q-.11.36-.172.766-.063.39-.063.687 0 .375.063.813.078.437.203.812.125.36.297.61.187.234.422.234.25 0 .421-.234.189-.235.297-.594.11-.36.157-.782.045-.437.046-.812 0-.344-.062-.75a4.3 4.3 0 0 0-.187-.781 1.8 1.8 0 0 0-.297-.594q-.172-.234-.407-.234m14.532-3.672q0 1.14-.094 2.265-.078 1.125-.078 2.266 0 .922.047 1.828.062.906.062 1.828 0 .25-.015.61a3 3 0 0 1-.11.672 1.3 1.3 0 0 1-.281.562q-.187.234-.547.234-.468 0-.781-.343a1.7 1.7 0 0 1-.375-.797 2.7 2.7 0 0 1-.86.953q-.562.39-1.218.391-.703 0-1.219-.485a4.3 4.3 0 0 1-.844-1.172 7 7 0 0 1-.5-1.437 6.5 6.5 0 0 1-.156-1.297 10 10 0 0 1 .203-1.906 8 8 0 0 1 .313-1q.188-.5.468-.891.297-.39.688-.625.406-.234.922-.234.562 0 1.078.328.516.329.781.812l.141-2.484q.015-.297.047-.688.03-.406.125-.765.109-.36.328-.61t.64-.25q.453 0 .703.22.25.218.36.562.125.327.14.718.032.39.032.735m-2.547 6.937q0-.359-.016-.703a8 8 0 0 1 0-.703 8 8 0 0 0-.219-.438 2 2 0 0 0-.312-.453 1.6 1.6 0 0 0-.391-.359.85.85 0 0 0-.468-.141.62.62 0 0 0-.454.172 1 1 0 0 0-.25.422 2.5 2.5 0 0 0-.109.516q-.016.281-.016.484a7.4 7.4 0 0 0 .141 1.297q.094.375.25.656t.422.282q.203 0 .406-.079.204-.093.375-.218.188-.141.344-.297.172-.172.297-.313zm6.547 3.797q-.797 0-1.391-.422a3.7 3.7 0 0 1-1-1.078 5.1 5.1 0 0 1-.609-1.453 6.5 6.5 0 0 1-.203-1.594q0-.828.203-1.703.202-.89.625-1.61.421-.734 1.078-1.187.656-.469 1.562-.469.875 0 1.485.485.624.468 1 1.187.375.704.531 1.547.156.844.109 1.594a8.6 8.6 0 0 1-.265 1.672 5.3 5.3 0 0 1-.61 1.516 3.5 3.5 0 0 1-1.031 1.093q-.625.422-1.484.422m.156-7.062q-.234 0-.422.25a2.5 2.5 0 0 0-.297.609q-.11.36-.172.766-.062.39-.062.687 0 .375.062.813.078.437.203.812.126.36.297.61.188.234.422.234.25 0 .422-.234.188-.235.297-.594.11-.36.156-.782a8 8 0 0 0 .047-.812q0-.344-.062-.75a4.3 4.3 0 0 0-.188-.781 1.8 1.8 0 0 0-.297-.594q-.172-.234-.406-.234m12.234 7.047q-.265 0-.422-.25a1.8 1.8 0 0 1-.234-.547 4.4 4.4 0 0 1-.109-.625 11 11 0 0 1-.016-.5q0-.469.047-.938l.125-.937q.078-.469.125-.938.063-.469.062-.937a6 6 0 0 0-.015-.407 1.7 1.7 0 0 0-.078-.406.67.67 0 0 0-.172-.328.45.45 0 0 0-.328-.125q-.14 0-.313.234a3.4 3.4 0 0 0-.328.516q-.14.281-.25.578a1.5 1.5 0 0 0-.094.422v.703q.016.344.016.703v.906q-.015.282-.047.579-.031.296-.094.578-.047.281-.14.547a1.8 1.8 0 0 1-.25.453 1.2 1.2 0 0 1-.344.312.9.9 0 0 1-.484.125.7.7 0 0 1-.516-.203 1.5 1.5 0 0 1-.328-.515 3.6 3.6 0 0 1-.188-.719 26 26 0 0 1-.078-.781q-.015-.391-.015-.704.015-.327.015-.515v-.735q0-.593-.031-1.172-.016-.577-.016-1.156v-.797q.016-.484.125-.937.11-.469.36-.797t.734-.328q.219 0 .391.14.171.141.297.344.14.203.218.438.094.234.141.406.156-.22.359-.422.22-.203.485-.36a2.54 2.54 0 0 1 1.343-.343q.797 0 1.235.39.453.375.656.954.219.563.266 1.218.047.657.047 1.188 0 .266-.047.797-.048.516-.157 1.156-.094.625-.265 1.297-.172.657-.406 1.203a3 3 0 0 1-.563.891q-.312.344-.719.344m6 .015q-.796 0-1.39-.422a3.7 3.7 0 0 1-1-1.078 5.2 5.2 0 0 1-.61-1.453 6.6 6.6 0 0 1-.203-1.594q0-.828.203-1.703.204-.89.625-1.61.423-.734 1.078-1.187.657-.469 1.563-.469.875 0 1.484.485.625.468 1 1.187.375.704.532 1.547.156.844.109 1.594a8.6 8.6 0 0 1-.266 1.672 5.3 5.3 0 0 1-.609 1.516 3.5 3.5 0 0 1-1.031 1.093q-.626.422-1.485.422m.157-7.062q-.235 0-.422.25a2.5 2.5 0 0 0-.297.609q-.11.36-.172.766-.063.39-.063.687 0 .375.063.813.078.437.203.812.125.36.297.61.188.234.422.234.25 0 .422-.234.187-.235.297-.594.109-.36.156-.782a8 8 0 0 0 .047-.812q0-.344-.063-.75a4.3 4.3 0 0 0-.187-.781 1.8 1.8 0 0 0-.297-.594q-.172-.234-.406-.234m8.609-1.985q0 .453-.313.672a6 6 0 0 1-.671.422q-.375.188-.688.453-.297.266-.297.797 0 .282.125.484.14.204.328.375.204.157.438.329.234.171.422.39.202.219.328.531.14.313.14.766 0 .656-.343 1.297a4.3 4.3 0 0 1-.86 1.125 4.3 4.3 0 0 1-1.172.781 3.1 3.1 0 0 1-1.296.297q-.267 0-.532-.047a1.5 1.5 0 0 1-.484-.14 1.05 1.05 0 0 1-.344-.297.9.9 0 0 1-.14-.516q0-.438.171-.672.173-.25.438-.391.266-.14.562-.218.313-.078.579-.188a1.4 1.4 0 0 0 .437-.312q.172-.187.172-.532 0-.327-.266-.671-.25-.36-.562-.75a8 8 0 0 1-.578-.86 2.03 2.03 0 0 1-.25-1q0-.672.265-1.234.282-.578.735-1a3.5 3.5 0 0 1 1.062-.656q.594-.25 1.25-.25.25 0 .485.046.25.048.437.172a.8.8 0 0 1 .297.313.86.86 0 0 1 .125.484m5.203 0q0 .453-.312.672a6 6 0 0 1-.672.422q-.375.188-.688.453-.297.266-.297.797 0 .282.125.484.14.204.328.375.204.157.438.329.234.171.422.39.203.219.328.531.141.313.141.766 0 .656-.344 1.297a4.2 4.2 0 0 1-.86 1.125 4.3 4.3 0 0 1-1.171.781 3.1 3.1 0 0 1-1.297.297q-.265 0-.532-.047a1.5 1.5 0 0 1-.484-.14 1.05 1.05 0 0 1-.344-.297.9.9 0 0 1-.14-.516q0-.438.172-.672.171-.25.437-.391a2.7 2.7 0 0 1 .563-.218q.312-.078.578-.188.266-.124.437-.312.172-.187.172-.532 0-.327-.266-.671-.25-.36-.562-.75a8 8 0 0 1-.578-.86 2.03 2.03 0 0 1-.25-1q0-.672.265-1.234.282-.578.735-1a3.5 3.5 0 0 1 1.062-.656q.594-.25 1.25-.25.25 0 .485.046.25.048.437.172a.8.8 0 0 1 .297.313.86.86 0 0 1 .125.484m3.594 9.047q-.797 0-1.391-.422a3.7 3.7 0 0 1-1-1.078 5.1 5.1 0 0 1-.609-1.453 6.5 6.5 0 0 1-.203-1.594q0-.828.203-1.703.203-.89.625-1.61.421-.734 1.078-1.187.656-.469 1.562-.469.876 0 1.485.485.625.468 1 1.187.375.704.531 1.547.156.844.109 1.594a8.6 8.6 0 0 1-.265 1.672 5.3 5.3 0 0 1-.61 1.516q-.405.671-1.031 1.093-.624.422-1.484.422m.156-7.062q-.234 0-.422.25a2.6 2.6 0 0 0-.297.609q-.11.36-.172.766-.062.39-.062.687 0 .375.062.813.079.437.204.812.125.36.296.61.188.234.422.234.25 0 .422-.234.187-.235.297-.594.11-.36.156-.782a8 8 0 0 0 .047-.812q0-.344-.062-.75a4.3 4.3 0 0 0-.188-.781 1.8 1.8 0 0 0-.297-.594q-.171-.234-.406-.234m13.594.609a.8.8 0 0 1-.063.328q-.14.36-.437.61a1.1 1.1 0 0 1-.703.234q-.61 0-.828-.61a.5.5 0 0 1-.032-.171q0-.11-.015-.219v-.453a.9.9 0 0 0-.11-.344q-.078-.125-.265-.125-.266 0-.516.344a3.8 3.8 0 0 0-.422.797 7 7 0 0 0-.281.937 3.7 3.7 0 0 0-.109.781q0 .235.031.579.031.328.125.64.094.313.25.547.171.219.437.219a.8.8 0 0 0 .485-.156q.234-.172.453-.391.203-.187.437-.391a.87.87 0 0 1 .563-.203.73.73 0 0 1 .609.281.98.98 0 0 1 .235.641q0 .53-.282 1a3.2 3.2 0 0 1-.703.797q-.422.328-.937.516a2.7 2.7 0 0 1-.985.203q-.843 0-1.437-.422a3.3 3.3 0 0 1-.938-1.063 5 5 0 0 1-.515-1.422 7.3 7.3 0 0 1-.157-1.453q0-.797.219-1.719.219-.937.672-1.734a4.3 4.3 0 0 1 1.156-1.328q.719-.531 1.703-.531.61 0 1.047.265.453.267.735.704.296.421.437.953.156.531.156 1.047v.156a1 1 0 0 1-.015.156m3.844 6.453q-.798 0-1.391-.422a3.7 3.7 0 0 1-1-1.078 5.1 5.1 0 0 1-.609-1.453 6.5 6.5 0 0 1-.204-1.594q0-.828.204-1.703.202-.89.625-1.61.421-.734 1.078-1.187.656-.469 1.562-.469.875 0 1.485.485.625.468 1 1.187.375.704.531 1.547.156.844.109 1.594a8.6 8.6 0 0 1-.265 1.672 5.3 5.3 0 0 1-.61 1.516 3.5 3.5 0 0 1-1.031 1.093q-.626.422-1.484.422m.156-7.062q-.234 0-.422.25a2.5 2.5 0 0 0-.297.609q-.11.36-.172.766-.062.39-.062.687 0 .375.062.813.078.437.203.812.126.36.297.61.188.234.422.234.25 0 .422-.234.188-.235.297-.594.11-.36.156-.782a8 8 0 0 0 .047-.812q0-.344-.063-.75a4.3 4.3 0 0 0-.187-.781 1.8 1.8 0 0 0-.297-.594q-.172-.234-.406-.234m9.453.765q-.219.016-.375-.031l-.313-.125a3 3 0 0 0-.281-.109.6.6 0 0 0-.312-.047 1.14 1.14 0 0 0-.563.172 2.2 2.2 0 0 0-.437.39 2.7 2.7 0 0 0-.328.532 3 3 0 0 0-.219.562 4 4 0 0 0-.078.578q-.016.375-.016.813a26 26 0 0 0-.016.859q0 .406-.031.641-.015.25-.078.593a2.6 2.6 0 0 1-.203.625 1.4 1.4 0 0 1-.344.5.8.8 0 0 1-.562.203.75.75 0 0 1-.469-.156 1.4 1.4 0 0 1-.328-.406 4 4 0 0 1-.219-.609 8 8 0 0 1-.125-.703q-.046-.375-.078-.75-.015-.375-.031-.704v-.625a9 9 0 0 0 .015-.453q-.015-.546-.062-1.094a20 20 0 0 1-.031-1.109q0-.343.031-.766.031-.42.172-.78a1.6 1.6 0 0 1 .406-.626q.281-.25.766-.25.265 0 .453.172.187.172.297.422.124.25.187.531t.078.516q.375-.609.844-.984.469-.39 1.219-.422.374-.016.734.078.375.078.672.281.312.188.5.5.202.312.219.734.031.5-.297.766a1.3 1.3 0 0 1-.797.281m8.484 1.188q0 .687-.156 1.515a5.3 5.3 0 0 1-.5 1.516 3.4 3.4 0 0 1-.922 1.172q-.562.469-1.422.469-.219 0-.453-.032a2.2 2.2 0 0 1-.453-.109 1.7 1.7 0 0 1-.375-.203.9.9 0 0 1-.266-.36l-.14 2.25q-.016.36-.031.86 0 .5-.125.953a1.74 1.74 0 0 1-.391.766q-.266.328-.781.328-.297 0-.5-.313a2.5 2.5 0 0 1-.328-.765 9 9 0 0 1-.172-1.047 14 14 0 0 1-.078-1.11 31 31 0 0 1-.016-.968v-.641q0-1.047-.016-2.078-.015-1.047-.015-2.094v-.578q0-.407.031-.875t.094-.969q.078-.5.218-.906.141-.422.36-.672a.67.67 0 0 1 .531-.266q.203 0 .359.126a.86.86 0 0 1 .282.296q.125.172.203.375t.125.375a3.3 3.3 0 0 1 1.109-.828q.64-.28 1.36-.281.75 0 1.218.422.485.422.75 1.047.282.624.391 1.343.11.703.109 1.282m-2.234-.125q0-.235-.047-.469a1.3 1.3 0 0 0-.141-.453.76.76 0 0 0-.281-.344.76.76 0 0 0-.469-.141q-.375 0-.796.25a1.8 1.8 0 0 0-.61.547q-.078.126-.094.407-.015.28-.015.422v.296l.031.36.031.359q.031.172.078.266a.6.6 0 0 0 .204.265q.156.11.343.204t.375.14q.204.047.344.047a.65.65 0 0 0 .531-.25 1.8 1.8 0 0 0 .313-.594 2.8 2.8 0 0 0 .156-.703q.047-.375.047-.609m6.156 5.234q-.797 0-1.39-.422a3.7 3.7 0 0 1-1-1.078 5.2 5.2 0 0 1-.61-1.453 6.6 6.6 0 0 1-.203-1.594q0-.828.203-1.703.204-.89.625-1.61.422-.734 1.078-1.187.657-.469 1.563-.469.875 0 1.484.485.625.468 1 1.187.375.704.531 1.547.157.844.11 1.594a8.6 8.6 0 0 1-.266 1.672 5.3 5.3 0 0 1-.609 1.516 3.5 3.5 0 0 1-1.031 1.093q-.626.422-1.485.422m.156-7.062q-.234 0-.421.25a2.5 2.5 0 0 0-.297.609q-.11.36-.172.766-.063.39-.063.687 0 .375.063.813.078.437.203.812.124.36.297.61.187.234.422.234.25 0 .422-.234.188-.235.296-.594.11-.36.157-.782a8 8 0 0 0 .047-.812q0-.344-.063-.75a4.3 4.3 0 0 0-.187-.781 1.8 1.8 0 0 0-.297-.594q-.172-.234-.407-.234"/><defs><filter id="a" width="249" height="112.048" x="0" y="50" color-interpolation-filters="sRGB" filterUnits="userSpaceOnUse"><feFlood flood-opacity="0" result="BackgroundImageFix"/><feBlend in="SourceGraphic" in2="BackgroundImageFix" result="shape"/><feColorMatrix in="SourceAlpha" result="hardAlpha" values="0 0 0 0 0 0 0 0 0 0 0 0 0 0 0 0 0 0 127 0"/><feOffset dy="4"/><feGaussianBlur stdDeviation="2"/><feComposite in2="hardAlpha" k2="-1" k3="1" operator="arithmetic"/><feColorMatrix values="0 0 0 0 0 0 0 0 0 0 0 0 0 0 0 0 0 0 0.25 0"/><feBlend in2="shape" result="effect1_innerShadow_695_198"/></filter></defs></svg>