<svg xmlns="http://www.w3.org/2000/svg" width="296" height="173" fill="none" viewBox="0 0 296 173"><g filter="url(#a)"><path fill="#f4719c" fill-rule="evenodd" d="M67.4 84.42c14.671 4.973 34.266 8.337 55.853 10.295 42.259 3.834 117.332 3.441 137.285-5.825 10.604-4.925 23.84-12.217 27.073-26.213 2.112-9.147.935-18.672-1.534-25.925-6.163-18.104-21.506-24.63-37.031-28.8C231.966 3.363 171.861 1 148.805 1 95.465 1 60.794 7.582 48.234 25.808c-5.665 8.219-6.922 22.013-4.019 32.936C29.752 67.376 11.311 79.351 0 86.877l52.245-13.589c3.889 4.317 8.958 8.165 15.155 11.133" clip-rule="evenodd"/></g><path fill="#f4719c" d="m123.253 94.715-.091.996zM67.4 84.421l-.432.902a1 1 0 0 0 .111.045zm193.138 4.469.421.907zm27.073-26.213.974.225zm-1.534-25.925-.947.322zm-37.031-28.8-.26.965zM48.234 25.808l.823.567zm-4.019 32.936.513.86a1 1 0 0 0 .454-1.116zM0 86.877l-.554-.832a1 1 0 0 0 .806 1.8zm52.245-13.589.744-.669a1 1 0 0 0-.995-.299zm71.098 20.431c-21.552-1.955-41.058-5.31-55.622-10.245l-.642 1.894c14.78 5.008 34.463 8.382 56.083 10.343zm136.774-5.736c-4.833 2.244-13.127 3.993-23.626 5.273-10.463 1.275-23.006 2.071-36.26 2.46-26.51.776-55.803-.084-76.888-1.997l-.181 1.992c21.175 1.92 50.548 2.782 77.127 2.004 13.291-.39 25.899-1.189 36.444-2.474 10.51-1.28 19.082-3.055 24.226-5.444zm26.519-25.53c-3.111 13.47-15.88 20.589-26.519 25.53l.842 1.814c10.569-4.909 24.272-12.374 27.626-26.895zm-1.506-25.379c2.422 7.112 3.569 16.445 1.506 25.378l1.949.45c2.162-9.362.956-19.079-1.561-26.473zM248.786 8.917c15.469 4.156 30.354 10.562 36.344 28.157l1.894-.645c-6.337-18.612-22.137-25.257-37.719-29.443zM148.805 2c11.505 0 32.275.59 52.304 1.754 20.073 1.166 39.257 2.901 47.677 5.163l.519-1.931c-8.659-2.326-28.067-4.066-48.08-5.23C181.166.593 160.356 0 148.805 0zM49.057 26.375c6.068-8.805 17.577-14.928 34.396-18.832C100.248 3.645 122.162 2 148.805 2V0c-26.698 0-48.789 1.646-65.804 5.595C66.009 9.54 53.902 15.82 47.41 25.24zm-3.875 32.113c-2.852-10.731-1.577-24.201 3.875-32.113L47.41 25.24c-5.876 8.527-7.115 22.645-4.16 33.761zm-1.479-.602C29.22 66.529 10.763 78.516-.554 86.045L.554 87.71c11.306-7.523 29.731-19.488 44.174-28.107zM.252 87.845l52.245-13.589-.503-1.936L-.252 85.91zm67.58-4.326c-6.085-2.915-11.047-6.685-14.843-10.9l-1.487 1.338c3.98 4.419 9.157 8.344 15.466 11.366z"/><path fill="#fff" d="M87.316 33.977q0 .273-.054.656a3 3 0 0 1-.178.738 1.8 1.8 0 0 1-.37.588q-.232.232-.614.232-.507 0-.766-.369a2.5 2.5 0 0 1-.356-.875 7 7 0 0 1-.136-1.053q-.014-.532-.028-.847-.984.164-1.941.287-.028.315-.123.78a4 4 0 0 1-.273.902 2.4 2.4 0 0 1-.479.738.92.92 0 0 1-.71.314.64.64 0 0 1-.52-.232 1.9 1.9 0 0 1-.274-.574 3.3 3.3 0 0 1-.123-.67q-.014-.355-.014-.588 0-.78.124-1.531a28 28 0 0 1 .505-2.448q.136-.533.328-1.093.206-.575.465-1.121.275-.561.615-.998a3 3 0 0 1 .78-.711q.437-.274.97-.274.52 0 .903.233.382.232.67.615.286.383.478.875.192.479.315.984.136.492.218.97.096.48.165.849.177.889.3 1.804.123.903.123 1.819m-2.638-3.323q0-.164-.028-.533a5 5 0 0 0-.082-.752 2.3 2.3 0 0 0-.218-.67q-.138-.3-.383-.3-.137 0-.26.19a2 2 0 0 0-.219.466 6 6 0 0 0-.177.615q-.069.342-.124.656-.054.315-.081.574l-.041.356a19 19 0 0 0 1.613-.205zm.369-5.865a.21.21 0 0 1-.096.178.34.34 0 0 1-.191.055q-.246 0-.52-.15-.26-.165-.45-.274l-.274-.178a3 3 0 0 1-.274-.219 2 2 0 0 1-.219-.26.6.6 0 0 1-.082-.3q0-.206.15-.356.152-.165.356-.164.205 0 .479.192.273.177.52.437.259.26.423.547.178.287.178.492m7.164 3.691q0 .397-.273.588-.261.192-.588.37-.33.163-.602.396-.26.232-.26.697 0 .247.11.424.123.178.287.328.177.137.383.287.205.15.369.342.177.192.287.465.123.273.123.67 0 .574-.3 1.135a3.7 3.7 0 0 1-.753.984q-.45.424-1.025.684-.574.26-1.135.26-.232 0-.465-.042a1.3 1.3 0 0 1-.424-.123.9.9 0 0 1-.3-.26.8.8 0 0 1-.123-.45q0-.384.15-.588.15-.219.383-.342a2.3 2.3 0 0 1 .492-.192q.273-.068.506-.164.232-.11.383-.273.15-.165.15-.465 0-.287-.233-.588a12 12 0 0 0-.492-.656 7 7 0 0 1-.505-.752 1.8 1.8 0 0 1-.22-.875q0-.588.233-1.08a2.9 2.9 0 0 1 .643-.875q.41-.37.93-.575a2.8 2.8 0 0 1 1.093-.218q.219 0 .424.04.219.042.383.151.165.096.26.274.108.163.109.424m9.734 2.625a66 66 0 0 1-.779 1.97 19 19 0 0 1-.916 1.913q-.301.547-.67.916a1.2 1.2 0 0 1-.848.356q-.382 0-.751-.383a6 6 0 0 1-.67-.93q-.302-.546-.534-1.094-.218-.56-.328-.888-.11-.369-.246-.793a13 13 0 0 1-.246-.861 10 10 0 0 1-.178-.862 5 5 0 0 1-.068-.82q0-.533.191-.875.192-.342.752-.342.219 0 .397.137.177.123.328.355.15.232.287.547.137.3.26.67.123.355.232.738.11.384.219.739.11.356.219.697a4.3 4.3 0 0 0 .314.656l.219-.56.26-.67a44 44 0 0 1 .314-.725q.164-.383.356-.738.368-.738.779-1.258.423-.52.834-.52.382 0 .547.233.164.232.164.601 0 .37-.123.834-.123.466-.315.957m6.645 2.461q0 .466-.301.916a3.3 3.3 0 0 1-.738.793 4.3 4.3 0 0 1-.944.56 2.5 2.5 0 0 1-.929.206q-.725 0-1.299-.355a3.4 3.4 0 0 1-.943-.93 4.5 4.5 0 0 1-.588-1.23 5 5 0 0 1-.192-1.327q0-.683.192-1.463.191-.78.574-1.435a3.8 3.8 0 0 1 .984-1.094q.601-.437 1.422-.437.465 0 .889.164a2.15 2.15 0 0 1 1.244 1.12q.192.397.191.89 0 .642-.273 1.203a3.2 3.2 0 0 1-.725.97q-.45.41-1.039.67a3.5 3.5 0 0 1-1.203.273q.055.397.315.575.273.177.642.178.273 0 .533-.137a6 6 0 0 0 .506-.301 6 6 0 0 1 .479-.315q.246-.136.492-.136a.76.76 0 0 1 .492.178.57.57 0 0 1 .219.464m-2.215-3.35a.8.8 0 0 0-.096-.368.32.32 0 0 0-.3-.192.78.78 0 0 0-.506.164q-.206.15-.342.397a2.3 2.3 0 0 0-.219.506q-.068.273-.082.506.192-.041.451-.11.274-.068.506-.178.246-.123.41-.3a.58.58 0 0 0 .178-.424m8.9 4.499a.62.62 0 0 1-.232.478q-.219.205-.574.37-.342.163-.793.273a10 10 0 0 1-.875.178 9 9 0 0 1-.807.095q-.382.041-.615.041t-.656-.013a4.2 4.2 0 0 1-.821-.11 2.1 2.1 0 0 1-.711-.273.64.64 0 0 1-.3-.56q0-.274.191-.67a8 8 0 0 1 .492-.862q.301-.465.67-.943.37-.492.725-.944.355-.45.67-.82.313-.383.492-.629a9 9 0 0 0-.492.123q-.287.069-.602.137-.315.069-.615.123a4 4 0 0 1-.492.041q-.165 0-.369-.055a2.2 2.2 0 0 1-.397-.177 1.5 1.5 0 0 1-.314-.26.53.53 0 0 1-.123-.342q0-.246.218-.451.22-.22.575-.383.355-.178.792-.3.438-.138.862-.22a7 7 0 0 1 1.422-.177q.26 0 .629.054.369.055.711.192.355.137.601.369t.246.588a.8.8 0 0 1-.027.205 3 3 0 0 1-.041.191q-.027.096-.246.438-.205.328-.52.793-.3.45-.67.984-.356.52-.683.985t-.575.82q-.246.355-.328.478.56-.15 1.135-.246.588-.11 1.162-.109.137 0 .356.014.219.013.424.082a.9.9 0 0 1 .355.177q.15.11.15.315m6.002-1.149q0 .466-.3.916a3.4 3.4 0 0 1-.739.793 4.3 4.3 0 0 1-.943.56 2.5 2.5 0 0 1-.93.206q-.725 0-1.299-.355a3.4 3.4 0 0 1-.943-.93 4.5 4.5 0 0 1-.588-1.23 5 5 0 0 1-.191-1.327q0-.683.191-1.463.192-.78.574-1.435.397-.656.985-1.094.601-.437 1.422-.437.465 0 .888.164a2.15 2.15 0 0 1 1.244 1.12q.192.397.192.89 0 .642-.274 1.203a3.2 3.2 0 0 1-.724.97 3.8 3.8 0 0 1-1.039.67 3.5 3.5 0 0 1-1.203.273q.054.397.314.575.273.177.643.178.273 0 .533-.137a6 6 0 0 0 .506-.301q.246-.177.478-.315.246-.136.492-.136.274 0 .493.178a.57.57 0 0 1 .218.464m-2.215-3.35a.8.8 0 0 0-.095-.368.32.32 0 0 0-.301-.192.8.8 0 0 0-.506.164q-.205.15-.342.397a2.3 2.3 0 0 0-.218.506q-.069.273-.082.506.191-.041.451-.11a3 3 0 0 0 .506-.178q.245-.123.41-.3a.58.58 0 0 0 .177-.424m6.768-1.736q0 .397-.273.588-.26.192-.588.37-.329.163-.602.396-.26.232-.26.697 0 .247.11.424.123.178.287.328.177.137.383.287.204.15.369.342.177.192.287.465.123.273.123.67 0 .574-.301 1.135a3.7 3.7 0 0 1-.752.984q-.451.424-1.025.684t-1.135.26q-.233 0-.465-.042a1.3 1.3 0 0 1-.424-.123.9.9 0 0 1-.3-.26.8.8 0 0 1-.123-.45q0-.384.15-.588.15-.219.383-.342t.492-.192q.273-.068.506-.164.232-.11.383-.273.15-.165.15-.465 0-.287-.232-.588a12 12 0 0 0-.493-.656 7 7 0 0 1-.505-.752 1.8 1.8 0 0 1-.219-.875q0-.588.232-1.08.246-.507.643-.875.41-.37.93-.575.519-.218 1.093-.218.219 0 .424.04.22.042.383.151a.7.7 0 0 1 .26.274.75.75 0 0 1 .109.424m2.516 6.795q0 .22-.123.56a4 4 0 0 1-.287.67q-.165.33-.383.561-.219.233-.424.233-.274 0-.274-.274 0-.164.069-.314.068-.15.15-.3.082-.138.151-.288a.6.6 0 0 0 .068-.273.8.8 0 0 1-.438.136.69.69 0 0 1-.533-.246.8.8 0 0 1-.218-.547q0-.437.287-.697.287-.273.724-.273.492 0 .862.26.369.26.369.792m6.439 1.122q-.697 0-1.217-.37a3.2 3.2 0 0 1-.875-.943 4.5 4.5 0 0 1-.533-1.272 5.8 5.8 0 0 1-.178-1.394q0-.725.178-1.49.178-.78.547-1.408a3.15 3.15 0 0 1 .943-1.04q.575-.41 1.368-.41.765 0 1.298.424.548.41.875 1.04.328.614.465 1.353.137.738.096 1.394-.041.725-.232 1.463a4.7 4.7 0 0 1-.534 1.326 3 3 0 0 1-.902.957q-.548.37-1.299.37m.137-6.18q-.206 0-.369.219a2.2 2.2 0 0 0-.26.533 5 5 0 0 0-.15.67 4 4 0 0 0-.055.601q0 .329.055.711.067.383.177.711.11.315.26.533.164.205.369.205.219 0 .369-.205.165-.205.26-.52.096-.314.137-.683.04-.383.041-.71 0-.302-.055-.657a3.7 3.7 0 0 0-.164-.684 1.5 1.5 0 0 0-.26-.52q-.15-.204-.355-.204m13.084 1.709q0 .6-.137 1.326a4.7 4.7 0 0 1-.437 1.326 3 3 0 0 1-.807 1.025q-.492.41-1.244.41-.192 0-.397-.027a2 2 0 0 1-.396-.095 1.4 1.4 0 0 1-.328-.178.8.8 0 0 1-.233-.315l-.123 1.97q-.013.314-.027.751 0 .438-.109.834a1.5 1.5 0 0 1-.342.67q-.233.288-.684.287-.26 0-.437-.273a2.2 2.2 0 0 1-.287-.67 8 8 0 0 1-.151-.916q-.054-.506-.068-.97-.014-.465-.014-.849v-.56q0-.916-.014-1.819-.013-.915-.013-1.831v-.506q0-.356.027-.766.028-.41.082-.848.069-.437.192-.793.123-.369.314-.588a.58.58 0 0 1 .465-.232q.177 0 .314.11.151.095.246.26.11.15.178.327t.11.328q.424-.478.97-.724.56-.246 1.19-.246.656 0 1.066.369.424.369.656.916.246.546.342 1.176.096.616.096 1.12m-1.955-.11q0-.204-.041-.41a1.1 1.1 0 0 0-.123-.396.67.67 0 0 0-.246-.301.67.67 0 0 0-.411-.123q-.327 0-.697.219a1.5 1.5 0 0 0-.533.478q-.069.11-.082.356a8 8 0 0 0-.014.369v.26l.028.314.027.315q.027.15.068.232.042.123.178.232.136.096.301.178.164.083.328.123.178.041.301.041a.57.57 0 0 0 .465-.219 1.6 1.6 0 0 0 .273-.52q.11-.3.137-.614a5 5 0 0 0 .041-.534m8.599 2.256q0 .246-.027.643a3.8 3.8 0 0 1-.109.78q-.096.368-.301.642a.68.68 0 0 1-.574.273q-.506 0-.78-.328t-.259-.82a3.4 3.4 0 0 1-.998.601 3 3 0 0 1-1.122.219q-.397 0-.751-.191a2.47 2.47 0 0 1-1.067-1.162 1.9 1.9 0 0 1-.164-.752q0-.656.397-1.149.41-.492.998-.834a5.7 5.7 0 0 1 1.244-.56 7.4 7.4 0 0 1 1.189-.274v-.123a.5.5 0 0 0 .014-.123q0-.424-.233-.684-.232-.26-.656-.26a1.3 1.3 0 0 0-.588.124q-.246.11-.465.26a10 10 0 0 1-.437.26q-.219.108-.492.109a.76.76 0 0 1-.52-.192.64.64 0 0 1-.205-.492q0-.45.26-.82.274-.369.67-.616.41-.26.875-.396.479-.15.875-.15.369 0 .738.095.37.082.697.274.328.177.588.451.274.26.438.615.246.506.396 1.08.151.56.233 1.162.082.588.109 1.19.027.588.027 1.148m-2.187-.437-.041-.93h-.055a.1.1 0 0 0-.055-.014q-.177 0-.451.096a2 2 0 0 0-.506.246q-.246.15-.423.342a.6.6 0 0 0-.164.397q0 .19.136.26a.7.7 0 0 0 .315.068q.3 0 .642-.15.342-.165.602-.315m.834-6.645q0 .11-.041.137-.04.027-.137.027a1 1 0 0 1-.369-.082 3 3 0 0 1-.396-.205 9 9 0 0 1-.383-.26 5 5 0 0 1-.301-.246l-.328.26q-.178.15-.383.287a5 5 0 0 1-.41.219 1 1 0 0 1-.383.082.4.4 0 0 1-.137-.027q-.054-.028-.054-.137 0-.205.177-.52.178-.315.438-.601.26-.288.547-.492t.506-.205q.218 0 .505.205.288.19.534.465.26.273.437.574.178.3.178.52m6.057 9.393q-.232 0-.37-.219a1.5 1.5 0 0 1-.205-.479 4 4 0 0 1-.095-.546 9 9 0 0 1-.014-.438q0-.41.041-.82l.109-.82q.068-.41.11-.82.054-.411.054-.821 0-.165-.013-.356a1.4 1.4 0 0 0-.069-.355.6.6 0 0 0-.15-.287.4.4 0 0 0-.287-.11q-.123 0-.274.206-.15.191-.287.45a5 5 0 0 0-.218.507 1.3 1.3 0 0 0-.082.369v.615q.013.3.013.615v.793q-.014.246-.041.506a4 4 0 0 1-.082.506 3 3 0 0 1-.123.478 1.5 1.5 0 0 1-.219.397q-.123.164-.3.273a.8.8 0 0 1-.424.11.6.6 0 0 1-.451-.178 1.3 1.3 0 0 1-.288-.451 3.3 3.3 0 0 1-.164-.63 22 22 0 0 1-.068-.683 16 16 0 0 1-.014-.615q.014-.287.014-.451v-.643q0-.52-.027-1.025a38 38 0 0 1-.014-1.012v-.697q.014-.424.109-.82.096-.41.315-.698.219-.287.642-.287.192 0 .342.123.15.124.26.301.123.178.191.383.083.205.123.355.137-.19.315-.369.191-.177.424-.314a2.23 2.23 0 0 1 1.175-.301q.697 0 1.081.342.396.329.574.834.191.492.232 1.066t.041 1.04q0 .232-.041.696-.04.452-.137 1.012-.082.547-.232 1.135a7.6 7.6 0 0 1-.355 1.053 2.6 2.6 0 0 1-.493.779q-.274.3-.628.3m7.724-5.633a.7.7 0 0 1-.055.287q-.123.315-.382.533a.97.97 0 0 1-.616.205q-.533 0-.724-.533a.4.4 0 0 1-.028-.15q0-.096-.013-.192v-.396a.8.8 0 0 0-.096-.3q-.069-.11-.232-.11-.233 0-.452.3a3.4 3.4 0 0 0-.369.698q-.15.396-.246.82-.095.424-.095.684 0 .204.027.506.028.287.109.56.082.273.219.479.15.19.383.191a.7.7 0 0 0 .424-.137q.205-.15.396-.342.178-.164.383-.341a.76.76 0 0 1 .492-.178q.342 0 .533.246a.85.85 0 0 1 .205.56q0 .465-.246.876a2.8 2.8 0 0 1-.615.697 3 3 0 0 1-.82.451 2.4 2.4 0 0 1-.862.178q-.738 0-1.257-.37a2.9 2.9 0 0 1-.821-.929 4.4 4.4 0 0 1-.451-1.244 6.4 6.4 0 0 1-.137-1.272q0-.697.192-1.504a5.6 5.6 0 0 1 .588-1.517 3.8 3.8 0 0 1 1.011-1.162q.63-.465 1.491-.465.532 0 .916.232.396.232.642.616.26.369.383.834.137.465.137.916v.136a1 1 0 0 1-.014.137m5.51.137a.9.9 0 0 1-.328-.028l-.274-.109a3 3 0 0 0-.246-.096.54.54 0 0 0-.273-.04q-.274.012-.492.15a2 2 0 0 0-.383.341 2.3 2.3 0 0 0-.287.465 3 3 0 0 0-.192.492q-.04.165-.068.506a17 17 0 0 0-.014.711q-.013.397-.013.752 0 .356-.028.56a5 5 0 0 1-.068.52 2.3 2.3 0 0 1-.178.547 1.25 1.25 0 0 1-.301.438.7.7 0 0 1-.492.177.65.65 0 0 1-.41-.136 1.3 1.3 0 0 1-.287-.356 3.3 3.3 0 0 1-.192-.533 7 7 0 0 1-.109-.615q-.04-.329-.068-.656l-.028-.616v-.546q.015-.247.014-.397a16 16 0 0 0-.055-.957 18 18 0 0 1-.027-.97q0-.302.027-.67.028-.37.151-.684.123-.328.355-.547.246-.219.67-.219.232 0 .397.15.164.15.259.37.11.218.164.465.055.245.069.45a3.3 3.3 0 0 1 .738-.86q.41-.343 1.067-.37.327-.014.642.069.328.067.588.246.273.164.438.437.177.273.191.643.028.437-.26.67a1.14 1.14 0 0 1-.697.246m6.891 2.68q0 .465-.301.915a3.4 3.4 0 0 1-.739.793 4.3 4.3 0 0 1-.943.56 2.5 2.5 0 0 1-.93.206q-.725 0-1.298-.355a3.4 3.4 0 0 1-.944-.93 4.5 4.5 0 0 1-.588-1.23 5 5 0 0 1-.191-1.327q0-.683.191-1.463t.575-1.435a3.8 3.8 0 0 1 .984-1.094q.602-.437 1.422-.437.465 0 .888.164a2.15 2.15 0 0 1 1.245 1.12q.19.397.191.89 0 .642-.273 1.203a3.2 3.2 0 0 1-.725.97 3.8 3.8 0 0 1-1.039.67 3.5 3.5 0 0 1-1.203.273q.054.397.314.575.274.177.643.178.273 0 .533-.137a6 6 0 0 0 .506-.301q.246-.177.478-.315a1 1 0 0 1 .493-.136.76.76 0 0 1 .492.178.57.57 0 0 1 .219.464m-2.215-3.35a.8.8 0 0 0-.096-.37.32.32 0 0 0-.301-.19q-.3 0-.506.163-.204.15-.341.397a2.2 2.2 0 0 0-.219.506q-.069.273-.082.506.191-.041.451-.11a3 3 0 0 0 .506-.178q.246-.123.41-.3a.58.58 0 0 0 .178-.424m8.572 3.855q0 .246-.027.643-.014.396-.11.78-.096.368-.301.642a.68.68 0 0 1-.574.273q-.506 0-.779-.328t-.26-.82a3.4 3.4 0 0 1-.998.601 3 3 0 0 1-1.121.219q-.396 0-.752-.191a2.3 2.3 0 0 1-.629-.493 2.5 2.5 0 0 1-.437-.67 1.9 1.9 0 0 1-.164-.751q0-.656.396-1.149.41-.492.998-.834a5.7 5.7 0 0 1 1.244-.56 7.5 7.5 0 0 1 1.19-.274v-.123a.5.5 0 0 0 .013-.123q0-.424-.232-.684-.233-.26-.656-.26a1.3 1.3 0 0 0-.588.124q-.246.11-.465.26-.219.135-.438.26a1.1 1.1 0 0 1-.492.109.76.76 0 0 1-.519-.192.64.64 0 0 1-.205-.492q0-.45.259-.82.274-.369.67-.616.41-.26.875-.396.479-.15.875-.15.37 0 .739.095.369.082.697.274.328.177.588.451.273.26.437.615.247.506.397 1.08.15.56.232 1.162.082.588.11 1.19.027.588.027 1.148m-2.188-.437-.041-.93h-.054a.1.1 0 0 0-.055-.014 1.4 1.4 0 0 0-.451.096 2 2 0 0 0-.506.246q-.246.15-.424.342a.6.6 0 0 0-.164.397q0 .19.137.26a.7.7 0 0 0 .314.068 1.6 1.6 0 0 0 .643-.15q.342-.165.601-.315m7.014-5.154q0 .396-.273.587-.26.192-.588.37-.328.163-.602.396-.26.232-.26.697 0 .247.11.424.123.178.287.328.177.137.383.287.205.15.369.342.177.192.287.465.123.273.123.67 0 .574-.301 1.135a3.7 3.7 0 0 1-.752.984q-.45.424-1.025.684-.574.26-1.135.26-.232 0-.465-.042a1.3 1.3 0 0 1-.424-.123.9.9 0 0 1-.3-.26.8.8 0 0 1-.123-.45q0-.384.15-.588.15-.219.383-.342.232-.123.492-.192.273-.068.506-.164.232-.11.383-.273.15-.165.15-.465 0-.287-.232-.588a12 12 0 0 0-.493-.656 7 7 0 0 1-.505-.752 1.8 1.8 0 0 1-.219-.875q0-.588.232-1.08.247-.507.643-.875.41-.37.93-.575a2.8 2.8 0 0 1 1.093-.218q.219 0 .424.04.22.042.383.151a.7.7 0 0 1 .26.274.75.75 0 0 1 .109.424m7.725 7.902q-.233 0-.369-.219a1.5 1.5 0 0 1-.206-.479 4 4 0 0 1-.095-.546 10 10 0 0 1-.014-.438q0-.41.041-.82l.11-.82q.068-.41.109-.82.054-.411.055-.821 0-.165-.014-.356a1.5 1.5 0 0 0-.068-.355.6.6 0 0 0-.151-.287.4.4 0 0 0-.287-.11q-.123 0-.273.206a3 3 0 0 0-.287.45 5 5 0 0 0-.219.507 1.3 1.3 0 0 0-.082.369v.615q.013.3.013.615v.793a9 9 0 0 1-.041.506 4 4 0 0 1-.082.506 3 3 0 0 1-.123.478 1.5 1.5 0 0 1-.218.397q-.124.164-.301.273a.8.8 0 0 1-.424.11.6.6 0 0 1-.451-.178 1.3 1.3 0 0 1-.287-.451 3 3 0 0 1-.164-.63 19 19 0 0 1-.069-.683 16 16 0 0 1-.013-.615q.013-.287.013-.451v-.643q0-.52-.027-1.025a38 38 0 0 1-.014-1.012v-.697q.014-.424.11-.82a1.8 1.8 0 0 1 .314-.698q.219-.287.643-.287.19 0 .341.123.151.124.26.301.123.178.192.383.081.205.123.355.137-.19.314-.369.192-.177.424-.314a2.23 2.23 0 0 1 1.176-.301q.697 0 1.08.342.397.329.574.834.192.492.232 1.066t.041 1.04q0 .232-.041.696-.04.452-.136 1.012-.082.547-.233 1.135-.15.575-.355 1.053a2.6 2.6 0 0 1-.492.779q-.274.3-.629.3m8.463-2.31q0 .245-.028.642a3.7 3.7 0 0 1-.109.78q-.096.368-.301.642a.68.68 0 0 1-.574.273q-.506 0-.779-.328-.274-.328-.26-.82a3.4 3.4 0 0 1-.998.601 3 3 0 0 1-1.121.219q-.397 0-.752-.191a2.3 2.3 0 0 1-.629-.493 2.5 2.5 0 0 1-.438-.67 1.9 1.9 0 0 1-.164-.751q0-.656.397-1.149.41-.492.998-.834a5.7 5.7 0 0 1 1.244-.56 7.5 7.5 0 0 1 1.189-.274v-.123a.5.5 0 0 0 .014-.123q0-.424-.232-.684-.233-.26-.657-.26-.34 0-.588.124-.246.11-.464.26-.219.135-.438.26-.219.108-.492.109a.76.76 0 0 1-.52-.192.65.65 0 0 1-.205-.492q0-.45.26-.82.273-.369.67-.616.41-.26.875-.396.479-.15.875-.15.369 0 .738.095.37.082.698.274.327.177.587.451.275.26.438.615.246.506.396 1.08.151.56.233 1.162.082.588.109 1.19.027.588.028 1.148m-2.188-.438-.041-.93h-.055a.1.1 0 0 0-.054-.014q-.178 0-.451.096a2 2 0 0 0-.506.246 2 2 0 0 0-.424.342.6.6 0 0 0-.164.397q0 .19.137.26a.7.7 0 0 0 .314.068q.3 0 .643-.15.341-.165.601-.315m1.654-7.82a.87.87 0 0 1-.136.437 2 2 0 0 1-.342.41 2.3 2.3 0 0 1-.438.3q-.232.11-.437.11-.206 0-.41-.068-.192-.082-.397-.178a3 3 0 0 0-.383-.164 1 1 0 0 0-.382-.082.56.56 0 0 0-.301.096q-.15.082-.315.191a4 4 0 0 1-.341.178.7.7 0 0 1-.329.082.43.43 0 0 1-.355-.178.66.66 0 0 1-.137-.383q0-.232.164-.45.164-.22.411-.384.246-.178.505-.273.274-.11.479-.11.232 0 .396.096.178.096.328.22.151.122.301.218.165.096.383.096a.6.6 0 0 0 .328-.096q.164-.109.315-.233.163-.136.3-.232a.53.53 0 0 1 .315-.11q.191 0 .328.165.15.164.15.341m3.952 10.582q-.698 0-1.217-.37a3.2 3.2 0 0 1-.875-.943 4.5 4.5 0 0 1-.533-1.272 5.7 5.7 0 0 1-.178-1.394q0-.725.178-1.49.177-.78.546-1.408.37-.643.944-1.04.574-.41 1.367-.41.765 0 1.299.424.546.41.875 1.04.328.614.465 1.353.137.738.095 1.394-.04.725-.232 1.463a4.7 4.7 0 0 1-.533 1.326q-.356.588-.903.957-.546.37-1.298.37m.136-6.18q-.204 0-.369.219-.15.218-.26.533-.095.315-.15.67a4 4 0 0 0-.055.601q0 .329.055.711.069.383.178.711.11.315.259.533.165.205.37.205.218 0 .369-.205.164-.205.26-.52.095-.314.136-.683.041-.383.041-.71 0-.302-.054-.657a4 4 0 0 0-.164-.684 1.6 1.6 0 0 0-.26-.52q-.15-.204-.356-.204m12.551-2.393q0 .26-.055.506a1 1 0 0 1-.164.41.9.9 0 0 1-.328.287 1.2 1.2 0 0 1-.506.096q-.341 0-.506-.137a.76.76 0 0 1-.232-.328 1.7 1.7 0 0 1-.055-.437q0-.233-.027-.424a.75.75 0 0 0-.096-.342q-.082-.137-.3-.137-.206 0-.342.315-.123.315-.205.724a6 6 0 0 0-.11.807 9 9 0 0 0-.027.52q.177-.028.342-.041a2.2 2.2 0 0 1 .752.013q.204.041.383.137a.7.7 0 0 1 .287.246q.11.15.109.383 0 .246-.219.437a1.9 1.9 0 0 1-.506.328q-.287.122-.588.206-.3.08-.478.109.04.943.041 1.9 0 .902-.041 1.778a1.05 1.05 0 0 1-.301.697q-.26.273-.683.273a.8.8 0 0 1-.397-.095.75.75 0 0 1-.273-.233 1.4 1.4 0 0 1-.178-.342 2 2 0 0 1-.068-.396 50 50 0 0 1-.11-1.64q-.04-.835-.027-1.669-.096.014-.192.014h-.177a2.3 2.3 0 0 1-.848-.178 1.5 1.5 0 0 1-.355-.26.52.52 0 0 1-.151-.382q0-.301.205-.506.192-.205.465-.328.288-.137.588-.192.315-.054.547-.082v-.218q0-.67.123-1.436a5.2 5.2 0 0 1 .437-1.422q.315-.655.862-1.08.546-.438 1.394-.437.534 0 .916.232.383.219.629.588.246.355.356.82.11.451.109.916m5.483 4.266q0 .752-.151 1.49a4.1 4.1 0 0 1-.506 1.326 2.75 2.75 0 0 1-.957.93q-.588.355-1.476.355-.875 0-1.463-.341a2.8 2.8 0 0 1-.944-.93 4.2 4.2 0 0 1-.492-1.299 8 8 0 0 1-.137-1.477q0-.82.192-1.626.04-.22.15-.602.123-.396.301-.766.192-.383.424-.656.246-.273.533-.273.273 0 .438.15t.259.383q.096.219.123.478.028.247.028.452 0 .314-.055.615-.04.3-.096.601l-.109.82a8 8 0 0 0-.027 1.286q.027.246.109.478.082.233.232.397.151.15.424.15.356 0 .561-.191.219-.191.314-.479.11-.287.137-.615.027-.329.027-.602 0-.6-.082-1.175a48 48 0 0 1-.15-1.19 1.3 1.3 0 0 1 .055-.602q.068-.204.191-.368a.9.9 0 0 1 .301-.26.74.74 0 0 1 .396-.11q.302 0 .533.22.233.204.383.546.165.329.26.752.11.41.164.82.069.397.082.752.028.356.028.56m4.716 4.293q-.232 0-.369-.219a1.5 1.5 0 0 1-.205-.479 4 4 0 0 1-.096-.546 8 8 0 0 1 .028-1.258l.109-.82q.069-.41.109-.82.055-.411.055-.821 0-.165-.014-.356a1.4 1.4 0 0 0-.068-.355.6.6 0 0 0-.15-.287.4.4 0 0 0-.287-.11q-.123 0-.274.206-.15.191-.287.45a5 5 0 0 0-.219.507 1.3 1.3 0 0 0-.082.369v.615q.014.3.014.615v.793q-.014.246-.041.506a5 5 0 0 1-.082.506 3 3 0 0 1-.123.478 1.5 1.5 0 0 1-.219.397q-.123.164-.301.273a.8.8 0 0 1-.423.11.6.6 0 0 1-.452-.178 1.3 1.3 0 0 1-.287-.451 3.2 3.2 0 0 1-.164-.63 22 22 0 0 1-.068-.683 16 16 0 0 1-.014-.615q.014-.287.014-.451v-.643q0-.52-.028-1.025a38 38 0 0 1-.013-1.012v-.697q.013-.424.109-.82.096-.41.315-.698.218-.287.642-.287.192 0 .342.123.15.124.26.301.123.178.191.383.083.205.123.355a3 3 0 0 1 .315-.369q.191-.177.424-.314a2.2 2.2 0 0 1 1.175-.301q.697 0 1.08.342.397.329.575.834.191.492.232 1.066.04.575.041 1.04 0 .232-.041.696-.04.452-.137 1.012-.082.547-.232 1.135a7.4 7.4 0 0 1-.356 1.053q-.204.479-.492.779-.273.3-.629.3m7.725-5.633a.8.8 0 0 1-.055.287q-.123.315-.383.533a.96.96 0 0 1-.615.205q-.533 0-.724-.533a.4.4 0 0 1-.028-.15q0-.096-.013-.192v-.396a.8.8 0 0 0-.096-.3q-.068-.11-.233-.11-.232 0-.451.3-.205.288-.369.698-.15.396-.246.82t-.096.684q0 .204.028.506.027.287.109.56t.219.479q.15.19.383.191a.7.7 0 0 0 .423-.137q.205-.15.397-.342.177-.164.383-.341a.76.76 0 0 1 .492-.178q.342 0 .533.246a.85.85 0 0 1 .205.56q0 .465-.246.876a2.8 2.8 0 0 1-.615.697q-.37.287-.82.451a2.4 2.4 0 0 1-.862.178q-.738 0-1.258-.37a2.9 2.9 0 0 1-.82-.929 4.4 4.4 0 0 1-.451-1.244 6.4 6.4 0 0 1-.137-1.272q0-.697.192-1.504a5.6 5.6 0 0 1 .587-1.517 3.8 3.8 0 0 1 1.012-1.162q.629-.465 1.49-.465.534 0 .916.232.397.232.643.616.26.369.383.834.137.465.137.916v.136a1 1 0 0 1-.014.137m3.021-4.293a.56.56 0 0 1-.109.342q-.095.15-.26.273a1.6 1.6 0 0 1-.355.178 1.3 1.3 0 0 1-.356.055.84.84 0 0 1-.478-.137q-.205-.136-.205-.424 0-.205.095-.355a.9.9 0 0 1 .26-.26q.15-.11.342-.164t.369-.055q.26 0 .479.123t.218.424m.11 4.648v.41q0 .206-.014.397-.014.233-.014.629 0 .383-.027.834t-.096.916q-.054.465-.191.848a1.8 1.8 0 0 1-.369.629.78.78 0 0 1-.561.246.5.5 0 0 1-.437-.205 1.9 1.9 0 0 1-.301-.561 4.6 4.6 0 0 1-.164-.78q-.055-.436-.082-.833a12 12 0 0 1-.027-.752v-1.121q0-.41.027-.875t.096-.944q.081-.478.218-.875a1.9 1.9 0 0 1 .383-.642.77.77 0 0 1 .588-.246q.369 0 .561.369.19.369.287.861t.109.985q.014.479.014.71m3.568 5.292q-.697 0-1.217-.37a3.2 3.2 0 0 1-.875-.943 4.5 4.5 0 0 1-.533-1.272 5.8 5.8 0 0 1-.178-1.394q0-.725.178-1.49.178-.78.547-1.408a3.15 3.15 0 0 1 .943-1.04q.575-.41 1.368-.41.765 0 1.298.424.548.41.875 1.04.328.614.465 1.353.137.738.096 1.394-.04.725-.233 1.463a4.6 4.6 0 0 1-.533 1.326 3 3 0 0 1-.902.957q-.547.37-1.299.37m.137-6.18q-.206 0-.369.219a2.2 2.2 0 0 0-.26.533 5 5 0 0 0-.15.67 4 4 0 0 0-.055.601q0 .329.055.711.068.383.177.711.11.315.26.533.163.205.369.205.219 0 .369-.205.165-.205.26-.52.096-.314.137-.683.04-.383.041-.71 0-.302-.055-.657a3.7 3.7 0 0 0-.164-.684 1.5 1.5 0 0 0-.26-.52q-.15-.204-.355-.204m7.41 6.166q-.232 0-.369-.219a1.5 1.5 0 0 1-.205-.479 4 4 0 0 1-.096-.546 10 10 0 0 1-.014-.438q0-.41.041-.82l.11-.82q.068-.41.109-.82.055-.411.055-.821 0-.165-.014-.356a1.5 1.5 0 0 0-.068-.355.6.6 0 0 0-.151-.287.4.4 0 0 0-.287-.11q-.123 0-.273.206-.15.191-.287.45a5 5 0 0 0-.219.507 1.3 1.3 0 0 0-.082.369v.615q.014.3.014.615v.793q-.014.246-.041.506a5 5 0 0 1-.082.506 3 3 0 0 1-.123.478 1.5 1.5 0 0 1-.219.397q-.123.164-.301.273a.8.8 0 0 1-.424.11.6.6 0 0 1-.451-.178 1.3 1.3 0 0 1-.287-.451 3 3 0 0 1-.164-.63 22 22 0 0 1-.068-.683q-.015-.342-.014-.615.014-.287.014-.451v-.643q0-.52-.028-1.025a38 38 0 0 1-.013-1.012v-.697q.013-.424.109-.82.095-.41.314-.698.219-.287.643-.287.191 0 .342.123.15.124.259.301.124.178.192.383.083.205.123.355.137-.19.314-.369.192-.177.424-.314a2.2 2.2 0 0 1 1.176-.301q.697 0 1.08.342.397.329.574.834.191.492.233 1.066.04.575.041 1.04 0 .232-.041.696-.041.452-.137 1.012a12 12 0 0 1-.232 1.135 7.6 7.6 0 0 1-.356 1.053 2.6 2.6 0 0 1-.492.779q-.273.3-.629.3m8.463-2.31q0 .245-.027.642-.014.396-.11.78-.096.368-.301.642a.68.68 0 0 1-.574.273q-.506 0-.779-.328t-.26-.82a3.4 3.4 0 0 1-.998.601 3 3 0 0 1-1.121.219q-.396 0-.752-.191a2.3 2.3 0 0 1-.629-.493 2.5 2.5 0 0 1-.437-.67 1.9 1.9 0 0 1-.164-.751q0-.656.396-1.149.41-.492.998-.834a5.7 5.7 0 0 1 1.244-.56 7.5 7.5 0 0 1 1.19-.274v-.123a.5.5 0 0 0 .013-.123q0-.424-.232-.684-.233-.26-.656-.26a1.3 1.3 0 0 0-.588.124q-.246.11-.465.26-.219.135-.438.26a1.1 1.1 0 0 1-.492.109.76.76 0 0 1-.519-.192.64.64 0 0 1-.205-.492q0-.45.259-.82.274-.369.67-.616.41-.26.875-.396.479-.15.875-.15.37 0 .739.095.369.082.697.274.329.177.588.451.273.26.437.615.246.506.397 1.08.15.56.232 1.162.082.588.11 1.19.027.588.027 1.148m-2.188-.438-.041-.93h-.054a.1.1 0 0 0-.055-.014 1.4 1.4 0 0 0-.451.096 2 2 0 0 0-.506.246q-.246.15-.424.342a.6.6 0 0 0-.164.397q0 .19.137.26a.7.7 0 0 0 .314.068 1.6 1.6 0 0 0 .643-.15q.342-.165.601-.315M89.128 48.75a.8.8 0 0 1-.055.287q-.123.315-.383.533a.96.96 0 0 1-.615.205q-.533 0-.724-.533a.4.4 0 0 1-.028-.15q0-.096-.013-.192v-.396a.8.8 0 0 0-.096-.3q-.069-.11-.233-.11-.232 0-.45.3-.205.288-.37.698-.15.397-.246.82-.096.424-.096.684 0 .204.028.506a3 3 0 0 0 .11.56q.081.273.218.479.15.19.383.191a.7.7 0 0 0 .423-.137q.206-.15.397-.342.177-.164.383-.341a.76.76 0 0 1 .492-.178q.342 0 .533.246a.85.85 0 0 1 .205.56q0 .465-.246.876-.246.396-.615.697-.37.287-.82.451a2.4 2.4 0 0 1-.862.178q-.738 0-1.258-.37a2.9 2.9 0 0 1-.82-.929 4.4 4.4 0 0 1-.451-1.244 6.4 6.4 0 0 1-.137-1.272q0-.697.192-1.504a5.7 5.7 0 0 1 .587-1.517 3.8 3.8 0 0 1 1.012-1.162q.63-.465 1.49-.465.534 0 .916.232.397.232.643.616.259.369.383.834.137.465.137.916v.136a.7.7 0 0 1-.014.137m3.363 5.647q-.697 0-1.217-.37a3.2 3.2 0 0 1-.875-.943 4.5 4.5 0 0 1-.533-1.272 5.7 5.7 0 0 1-.177-1.394q0-.725.177-1.49.178-.78.547-1.408.369-.643.943-1.04.574-.41 1.368-.41.765 0 1.298.424.548.41.875 1.04.33.614.465 1.353a5.7 5.7 0 0 1 .096 1.394q-.041.725-.232 1.463a4.7 4.7 0 0 1-.534 1.326q-.355.588-.902.957-.547.37-1.299.37m.137-6.18q-.205 0-.37.218-.15.219-.259.534-.096.315-.15.67a4 4 0 0 0-.055.601q0 .329.055.711.068.383.177.711.11.315.26.533.165.205.37.205.218 0 .368-.205.164-.205.26-.52.096-.314.137-.683.04-.383.04-.71 0-.302-.054-.657a4 4 0 0 0-.164-.684 1.5 1.5 0 0 0-.26-.52q-.15-.204-.355-.204m11.826 1.271v.711q0 .437-.027.957a11 11 0 0 1-.082 1.053 4.7 4.7 0 0 1-.219.943q-.137.424-.355.698a.69.69 0 0 1-.561.273.53.53 0 0 1-.465-.246 2 2 0 0 1-.219-.602 4.5 4.5 0 0 1-.082-.697v-.56q0-.616.041-1.203t.041-1.204v-.246q0-.177-.027-.355a1 1 0 0 0-.096-.315q-.054-.136-.177-.136-.246 0-.397.26-.15.245-.246.587a4.6 4.6 0 0 0-.137.684q-.04.329-.054.492a7 7 0 0 0-.055.533q-.013.355-.055.78a8 8 0 0 1-.109.874q-.069.438-.192.807a1.8 1.8 0 0 1-.287.588.53.53 0 0 1-.437.233.56.56 0 0 1-.506-.288 2.1 2.1 0 0 1-.26-.67 5.5 5.5 0 0 1-.11-.779 19 19 0 0 1-.013-.615v-.451q.014-.22.014-.451v-.315q0-.219-.014-.478 0-.275-.027-.56a4 4 0 0 0-.055-.52 1.3 1.3 0 0 0-.123-.397q-.082-.15-.191-.15-.178 0-.328.232-.15.22-.26.533-.11.3-.178.602-.054.3-.055.437v.082q0 .657.082 1.285.082.63.082 1.286 0 .383-.246.71-.246.315-.683.315a.66.66 0 0 1-.52-.232 2 2 0 0 1-.342-.63 5.3 5.3 0 0 1-.218-.833 11 11 0 0 1-.096-.903q-.027-.451-.041-.806v-.547q0-.205-.014-.602 0-.396.014-.861.028-.465.082-.943.055-.492.178-.889t.314-.643a.64.64 0 0 1 .52-.26q.355 0 .574.192.232.193.232.574 0 .083-.013.164a1 1 0 0 1-.014.15q.15-.217.37-.437.218-.232.464-.41.26-.192.547-.3.287-.124.574-.124a.85.85 0 0 1 .492.15q.22.15.383.383.164.22.274.479.109.26.15.492.136-.246.328-.492.206-.26.438-.451.231-.192.505-.315.288-.123.588-.123.288 0 .492.205.206.206.356.534.15.314.232.724.083.397.137.793.055.383.068.725.014.328.014.52m3.5 4.909q-.697 0-1.217-.37a3.2 3.2 0 0 1-.875-.943 4.5 4.5 0 0 1-.533-1.272 5.8 5.8 0 0 1-.178-1.394q0-.725.178-1.49.178-.78.547-1.408a3.15 3.15 0 0 1 .943-1.04q.574-.41 1.368-.41.765 0 1.298.424.548.41.875 1.04.328.614.465 1.353.137.738.096 1.394-.04.725-.233 1.463a4.6 4.6 0 0 1-.533 1.326 3 3 0 0 1-.902.957q-.547.37-1.299.37m.137-6.18q-.206 0-.369.218a2.2 2.2 0 0 0-.26.534 5 5 0 0 0-.15.67 4 4 0 0 0-.055.601q0 .329.055.711.068.383.177.711.11.315.26.533.163.205.369.205.219 0 .369-.205.165-.205.26-.52.095-.314.137-.683.04-.383.041-.71 0-.302-.055-.657a3.7 3.7 0 0 0-.164-.684 1.5 1.5 0 0 0-.26-.52q-.15-.204-.355-.204m12.715-3.213q0 .998-.082 1.982a28 28 0 0 0-.069 1.983q0 .806.041 1.6.055.792.055 1.599 0 .22-.014.533-.014.3-.095.588a1.15 1.15 0 0 1-.246.492q-.165.205-.479.205a.89.89 0 0 1-.684-.3 1.5 1.5 0 0 1-.328-.698 2.34 2.34 0 0 1-.752.834 1.83 1.83 0 0 1-1.066.342q-.616 0-1.066-.424a3.7 3.7 0 0 1-.739-1.025 6 6 0 0 1-.437-1.258 5.7 5.7 0 0 1-.137-1.135 8.6 8.6 0 0 1 .178-1.668q.11-.45.273-.875.165-.437.41-.779.26-.342.602-.547.355-.205.807-.205.492 0 .943.287.452.288.683.711l.124-2.174q.013-.26.041-.601.027-.355.109-.67.095-.315.287-.533.191-.22.561-.22.396 0 .615.192t.314.492q.11.287.123.63.028.34.028.642m-2.229 6.07q0-.314-.014-.615a7 7 0 0 1 0-.615 7 7 0 0 0-.191-.383 1.7 1.7 0 0 0-.273-.396 1.4 1.4 0 0 0-.342-.315.75.75 0 0 0-.41-.123.54.54 0 0 0-.397.15q-.15.15-.219.37a2.2 2.2 0 0 0-.095.45 8 8 0 0 0-.014.425q0 .164.027.492.029.314.096.642.083.328.219.575.136.245.369.246a1 1 0 0 0 .355-.069q.178-.082.329-.191.163-.123.3-.26a6 6 0 0 0 .26-.273zm8.86.492q0 .466-.301.916a3.4 3.4 0 0 1-.739.793 4.3 4.3 0 0 1-.943.56 2.5 2.5 0 0 1-.93.206q-.725 0-1.298-.355a3.4 3.4 0 0 1-.944-.93 4.5 4.5 0 0 1-.588-1.23 5 5 0 0 1-.191-1.327q0-.684.191-1.463.191-.78.575-1.435a3.8 3.8 0 0 1 .984-1.094q.602-.437 1.422-.437.465 0 .888.164a2.15 2.15 0 0 1 1.245 1.12q.19.397.191.89 0 .642-.273 1.203a3.2 3.2 0 0 1-.725.97 3.8 3.8 0 0 1-1.039.67 3.5 3.5 0 0 1-1.203.273q.054.397.314.575.274.178.643.178.273 0 .533-.137a6 6 0 0 0 .506-.301q.246-.177.478-.315a1 1 0 0 1 .493-.136.76.76 0 0 1 .492.178.57.57 0 0 1 .219.464m-2.215-3.35a.8.8 0 0 0-.096-.368.32.32 0 0 0-.301-.192q-.3 0-.506.164-.204.15-.341.397a2.2 2.2 0 0 0-.219.506q-.069.273-.082.505.191-.04.451-.109a3 3 0 0 0 .506-.178q.246-.123.41-.3a.58.58 0 0 0 .178-.424m8.654.89a69 69 0 0 1-.779 1.968 19 19 0 0 1-.916 1.914q-.301.547-.67.916a1.2 1.2 0 0 1-.848.356q-.383 0-.752-.383a6 6 0 0 1-.67-.93q-.3-.546-.533-1.094-.219-.56-.328-.888-.11-.369-.246-.793a14 14 0 0 1-.246-.861 11 11 0 0 1-.178-.862 5 5 0 0 1-.068-.82q0-.533.191-.875t.752-.342q.219 0 .396.137.178.123.329.355.15.232.287.547.136.3.259.67.123.355.233.738.11.384.219.739.109.356.218.697.123.328.315.656l.219-.56.259-.67q.15-.356.315-.725.164-.383.355-.738.369-.738.78-1.258.423-.52.834-.52.382 0 .546.233.165.232.164.602 0 .368-.123.833-.123.466-.314.957m6.645 2.46q0 .466-.301.916a3.4 3.4 0 0 1-.739.793 4.3 4.3 0 0 1-.943.56 2.5 2.5 0 0 1-.93.206q-.725 0-1.298-.355a3.4 3.4 0 0 1-.944-.93 4.5 4.5 0 0 1-.588-1.23 5 5 0 0 1-.191-1.327q0-.684.191-1.463.191-.78.575-1.435a3.8 3.8 0 0 1 .984-1.094q.601-.437 1.422-.437.465 0 .888.164a2.15 2.15 0 0 1 1.245 1.12q.19.397.191.89 0 .642-.273 1.203a3.2 3.2 0 0 1-.725.97 3.8 3.8 0 0 1-1.039.67 3.5 3.5 0 0 1-1.203.273q.054.397.314.575.274.178.643.178.273 0 .533-.137a6 6 0 0 0 .506-.301q.246-.177.478-.315a1 1 0 0 1 .493-.136.76.76 0 0 1 .492.178.57.57 0 0 1 .219.464m-2.215-3.35a.8.8 0 0 0-.096-.368.32.32 0 0 0-.301-.192q-.3 0-.506.164-.204.15-.341.397a2.2 2.2 0 0 0-.219.506q-.069.273-.082.505.191-.04.451-.109a3 3 0 0 0 .506-.178q.246-.123.41-.3a.58.58 0 0 0 .178-.424m7.506.67a.9.9 0 0 1-.329-.027l-.273-.109a3 3 0 0 0-.246-.096.54.54 0 0 0-.274-.04q-.273.013-.492.15a2 2 0 0 0-.383.341 2.4 2.4 0 0 0-.287.465 2.7 2.7 0 0 0-.191.492q-.04.165-.068.506-.014.33-.014.711-.014.397-.014.752 0 .356-.027.56a5 5 0 0 1-.068.52 2.3 2.3 0 0 1-.178.547 1.25 1.25 0 0 1-.301.438.7.7 0 0 1-.492.177.65.65 0 0 1-.41-.136 1.3 1.3 0 0 1-.287-.356 3.3 3.3 0 0 1-.192-.533 7 7 0 0 1-.109-.615q-.041-.329-.069-.656l-.027-.616v-.546q.014-.247.014-.397a17 17 0 0 0-.055-.957 18 18 0 0 1-.027-.97q0-.302.027-.67.027-.37.15-.684.123-.328.356-.547.246-.219.67-.219.233 0 .396.15.165.15.26.37.11.218.164.465.055.245.068.45.328-.533.739-.86.41-.343 1.066-.37.328-.014.643.069.328.068.588.246.273.164.437.437.178.273.192.643.027.437-.26.67a1.14 1.14 0 0 1-.697.246m3.417-4.429a.56.56 0 0 1-.109.342q-.096.15-.26.273a1.6 1.6 0 0 1-.355.178 1.3 1.3 0 0 1-.356.055.84.84 0 0 1-.478-.137q-.205-.137-.205-.424 0-.205.096-.355a.9.9 0 0 1 .259-.26q.15-.11.342-.164t.369-.055q.26 0 .479.123t.218.424m.11 4.648v.41q0 .206-.014.397a12 12 0 0 0-.013.629q0 .383-.028.834-.027.45-.096.916-.054.465-.191.848a1.8 1.8 0 0 1-.369.629.78.78 0 0 1-.561.246.5.5 0 0 1-.437-.205 1.9 1.9 0 0 1-.301-.561 4.6 4.6 0 0 1-.164-.78 15 15 0 0 1-.082-.833 12 12 0 0 1-.027-.752v-1.121q0-.41.027-.875t.096-.944q.081-.478.218-.875a1.9 1.9 0 0 1 .383-.642.77.77 0 0 1 .588-.246q.369 0 .561.369.19.369.287.861t.109.985q.014.478.014.71m6.781 2.967q0 .246-.027.643a3.7 3.7 0 0 1-.11.78q-.095.368-.3.642a.68.68 0 0 1-.575.273q-.506 0-.779-.328t-.26-.82a3.3 3.3 0 0 1-.998.601 3 3 0 0 1-1.121.219q-.396 0-.752-.191a2.4 2.4 0 0 1-.629-.493 2.5 2.5 0 0 1-.437-.67 1.9 1.9 0 0 1-.164-.751q0-.656.396-1.149.41-.492.998-.834a5.7 5.7 0 0 1 1.244-.56 7.5 7.5 0 0 1 1.19-.274v-.123a.5.5 0 0 0 .014-.123q0-.423-.233-.684-.233-.26-.656-.26a1.3 1.3 0 0 0-.588.124q-.246.11-.465.26-.22.135-.437.26-.219.108-.493.109a.76.76 0 0 1-.519-.192.64.64 0 0 1-.205-.492q0-.45.26-.82.273-.369.67-.616.41-.26.875-.396.478-.15.875-.15.369 0 .738.095.369.082.697.274.328.178.588.451.273.26.437.615.247.506.397 1.08.15.56.232 1.162.083.588.11 1.19.027.588.027 1.148m-2.187-.437-.041-.93h-.055a.1.1 0 0 0-.055-.014 1.4 1.4 0 0 0-.451.096 2 2 0 0 0-.506.246q-.246.15-.424.342a.6.6 0 0 0-.164.397q0 .19.137.26a.7.7 0 0 0 .314.068 1.6 1.6 0 0 0 .643-.15q.341-.165.602-.315m4.99 1.709a.7.7 0 0 1-.082.328.8.8 0 0 1-.219.232 1 1 0 0 1-.287.15.9.9 0 0 1-.314.055 1.4 1.4 0 0 1-.452-.082 1.6 1.6 0 0 1-.437-.205 1.5 1.5 0 0 1-.328-.314.7.7 0 0 1-.137-.424q0-.369.314-.547a1.22 1.22 0 0 1 1.067-.123q.232.069.424.205a1 1 0 0 1 .328.315.7.7 0 0 1 .123.41m9.803-1.49q0 .26-.137.505-.136.233-.643.547-.506.315-1.121.602-.615.273-1.189.478-.575.192-.848.192-.192 0-.451-.096a3 3 0 0 1-.52-.219 3 3 0 0 1-.478-.314 1.4 1.4 0 0 1-.301-.342 1.4 1.4 0 0 1-.109-.383 17 17 0 0 1-.082-.67 76 76 0 0 1-.055-.806 66 66 0 0 0-.055-.82l-.027-.698v-.437q0-.507.027-1.163.042-.655.137-1.312.096-.67.273-1.271.192-.615.506-1.04.096-.123.383-.26.288-.135.67-.26a14 14 0 0 1 1.709-.41q.424-.081.766-.122.342-.055.519-.055.206 0 .383.096a.8.8 0 0 1 .314.232q.137.15.206.342a.9.9 0 0 1 .027.683 1.3 1.3 0 0 1-.137.274q-.136.178-.574.424a16 16 0 0 1-1.941.916q-.465.19-.657.273-.054.315-.123.643-.054.315-.082.642.424-.218.957-.41a3 3 0 0 1 1.012-.191q.97 0 .971.957a.85.85 0 0 1-.096.41 1 1 0 0 1-.232.315 1.6 1.6 0 0 1-.329.246l-.355.191a8 8 0 0 1-.916.41l-.957.328a5 5 0 0 0-.055.246 1 1 0 0 0-.027.246q0 .192.027.383l.055.383q.164-.054.519-.178.37-.123.766-.246.397-.123.766-.205.369-.096.547-.095.204 0 .382.095a.8.8 0 0 1 .301.233q.123.136.192.328a1 1 0 0 1 .082.383m3.171-6.14q0 .74-.068 1.491a20 20 0 0 0-.055 1.49q0 .971.055 1.942.068.97.068 1.955 0 .245-.027.56-.027.301-.137.56a1.05 1.05 0 0 1-.3.438q-.205.178-.547.178-.328 0-.574-.328a2.9 2.9 0 0 1-.397-.807q-.15-.505-.26-1.12-.096-.615-.15-1.19-.04-.588-.068-1.067-.014-.493-.014-.724 0-.26.014-.752a17 17 0 0 1 .273-2.229q.123-.6.314-1.08.191-.492.452-.793.273-.315.642-.314.301 0 .451.205.165.192.233.478.068.274.082.588.013.3.013.52m6.768 5.852q0 .466-.301.916a3.3 3.3 0 0 1-.738.793 4.3 4.3 0 0 1-.943.56 2.5 2.5 0 0 1-.93.206q-.724 0-1.299-.355a3.4 3.4 0 0 1-.943-.93 4.5 4.5 0 0 1-.588-1.23 5 5 0 0 1-.192-1.327q0-.684.192-1.463.191-.78.574-1.435.397-.657.984-1.094.601-.437 1.422-.437.465 0 .889.164.424.15.738.437.315.287.506.684.192.396.192.888 0 .643-.274 1.204a3.2 3.2 0 0 1-.725.97q-.45.41-1.039.67a3.5 3.5 0 0 1-1.203.273q.055.397.315.575.273.178.642.178.274 0 .534-.137t.505-.301a6 6 0 0 1 .479-.315q.246-.136.492-.136a.76.76 0 0 1 .492.178.57.57 0 0 1 .219.464m-2.215-3.35a.8.8 0 0 0-.096-.368.315.315 0 0 0-.3-.192.8.8 0 0 0-.506.164q-.206.15-.342.397a2.3 2.3 0 0 0-.219.506q-.068.273-.082.505.192-.04.451-.109.274-.068.506-.178.246-.123.41-.3a.58.58 0 0 0 .178-.424m12.319 1.71q0 .6-.137 1.326a4.6 4.6 0 0 1-.438 1.326q-.3.615-.806 1.025-.492.41-1.244.41-.192 0-.397-.027a2 2 0 0 1-.396-.095 1.4 1.4 0 0 1-.329-.178.8.8 0 0 1-.232-.315l-.123 1.97q-.013.314-.027.751 0 .438-.11.834a1.5 1.5 0 0 1-.342.67q-.231.288-.683.287-.26 0-.438-.273a2.2 2.2 0 0 1-.287-.67 8 8 0 0 1-.15-.916 12 12 0 0 1-.068-.97q-.014-.465-.014-.849v-.56q0-.916-.014-1.819-.013-.915-.013-1.831v-.506q0-.356.027-.766t.082-.848q.068-.437.191-.793.123-.37.315-.587a.58.58 0 0 1 .465-.233q.177 0 .314.11.15.095.246.26.11.15.178.327t.109.329q.424-.48.971-.725.56-.246 1.189-.246.656 0 1.067.369.423.369.656.916.246.546.342 1.176.096.615.096 1.12m-1.956-.11a2 2 0 0 0-.041-.41 1.1 1.1 0 0 0-.123-.396.66.66 0 0 0-.246-.301.66.66 0 0 0-.41-.123q-.328 0-.697.219a1.5 1.5 0 0 0-.533.478q-.069.11-.082.356a8 8 0 0 0-.014.369v.26l.027.314.028.315q.027.15.068.232.041.123.178.232.136.096.301.178.163.083.328.123.177.041.3.041a.57.57 0 0 0 .465-.219q.178-.218.274-.52.11-.3.136-.614a4 4 0 0 0 .041-.534m5.387 4.58q-.697 0-1.217-.369a3.2 3.2 0 0 1-.875-.943 4.5 4.5 0 0 1-.533-1.272 5.8 5.8 0 0 1-.178-1.394q0-.725.178-1.49.178-.78.547-1.408a3.15 3.15 0 0 1 .943-1.04q.575-.41 1.368-.41.765 0 1.298.424.548.41.875 1.04.328.614.465 1.353.136.738.096 1.394-.041.725-.232 1.463a4.7 4.7 0 0 1-.534 1.326 3 3 0 0 1-.902.957q-.548.37-1.299.37m.137-6.18q-.206 0-.369.22-.15.218-.26.533a5 5 0 0 0-.15.67 4 4 0 0 0-.055.601q0 .329.055.711.067.383.177.711.11.315.26.533.164.205.369.205.219 0 .369-.205.165-.205.26-.52.096-.314.137-.683.04-.383.041-.71 0-.302-.055-.657a3.7 3.7 0 0 0-.164-.684 1.5 1.5 0 0 0-.26-.52q-.15-.204-.355-.204m9.42-3.212q0 .998-.082 1.982a28 28 0 0 0-.069 1.983q0 .806.041 1.6.055.792.055 1.599 0 .22-.014.533-.014.3-.095.588a1.15 1.15 0 0 1-.246.492q-.165.205-.479.205a.88.88 0 0 1-.683-.3 1.5 1.5 0 0 1-.329-.698 2.3 2.3 0 0 1-.752.834 1.83 1.83 0 0 1-1.066.342q-.615 0-1.066-.424a3.7 3.7 0 0 1-.739-1.025 6 6 0 0 1-.437-1.258 5.7 5.7 0 0 1-.137-1.135 8.6 8.6 0 0 1 .178-1.668q.11-.45.273-.875.164-.437.411-.779.26-.342.601-.547.356-.205.807-.205.492 0 .943.287.451.288.684.711l.123-2.174q.013-.26.041-.601.027-.355.109-.67.096-.315.287-.533.192-.22.561-.22.396 0 .615.192.22.192.314.492.11.287.123.63.028.34.028.642m-2.229 6.07q0-.314-.013-.615a7 7 0 0 1 0-.615 8 8 0 0 0-.192-.383 1.7 1.7 0 0 0-.273-.396 1.4 1.4 0 0 0-.342-.315.75.75 0 0 0-.41-.123.54.54 0 0 0-.397.15q-.15.15-.218.37a2 2 0 0 0-.096.45 8 8 0 0 0-.014.425 6 6 0 0 0 .123 1.134q.083.328.219.575.137.245.369.246a1 1 0 0 0 .356-.069q.178-.082.328-.191.163-.123.301-.26.15-.15.259-.273zm8.86.492q0 .466-.301.916a3.4 3.4 0 0 1-.738.793 4.3 4.3 0 0 1-.944.56 2.5 2.5 0 0 1-.929.206q-.724 0-1.299-.355a3.4 3.4 0 0 1-.944-.93 4.5 4.5 0 0 1-.587-1.23 5 5 0 0 1-.192-1.327q0-.684.192-1.463.191-.78.574-1.435a3.8 3.8 0 0 1 .984-1.094q.602-.437 1.422-.437.465 0 .889.164a2.15 2.15 0 0 1 1.244 1.12q.19.397.191.89 0 .642-.273 1.203a3.2 3.2 0 0 1-.725.97 3.8 3.8 0 0 1-1.039.67 3.5 3.5 0 0 1-1.203.273q.054.397.314.575.274.178.643.178.273 0 .533-.137a6 6 0 0 0 .506-.301 6 6 0 0 1 .479-.315q.246-.136.492-.136a.76.76 0 0 1 .492.178.57.57 0 0 1 .219.464m-2.215-3.35a.8.8 0 0 0-.096-.368.32.32 0 0 0-.301-.192q-.3 0-.505.164-.206.15-.342.397a2.3 2.3 0 0 0-.219.506q-.069.273-.082.505.192-.04.451-.109a3 3 0 0 0 .506-.178q.246-.123.41-.3a.58.58 0 0 0 .178-.424m12.318 1.71q0 .6-.137 1.326a4.6 4.6 0 0 1-.437 1.326q-.3.615-.807 1.025-.492.41-1.244.41-.191 0-.396-.027a2 2 0 0 1-.397-.095 1.4 1.4 0 0 1-.328-.178.8.8 0 0 1-.232-.315l-.123 1.97q-.014.314-.028.751 0 .438-.109.834a1.5 1.5 0 0 1-.342.67q-.233.288-.683.287-.26 0-.438-.273a2.2 2.2 0 0 1-.287-.67 8 8 0 0 1-.15-.916q-.055-.506-.069-.97-.013-.465-.013-.849v-.56q0-.916-.014-1.819-.014-.915-.014-1.831v-.506q0-.356.028-.766.027-.41.082-.848.068-.437.191-.793a1.7 1.7 0 0 1 .314-.587.58.58 0 0 1 .465-.233.5.5 0 0 1 .315.11q.15.095.246.26.11.15.178.327t.109.329q.423-.48.971-.725.56-.246 1.189-.246.657 0 1.066.369.425.369.657.916.246.546.342 1.176.095.615.095 1.12m-1.955-.11q0-.204-.041-.41a1.1 1.1 0 0 0-.123-.396.67.67 0 0 0-.246-.301.66.66 0 0 0-.41-.123q-.328 0-.697.219a1.54 1.54 0 0 0-.534.478q-.068.11-.082.356a7 7 0 0 0-.013.369v.26a43 43 0 0 1 .054.629q.028.15.069.232.04.123.177.232.138.096.301.178.165.083.328.123.178.041.301.041a.57.57 0 0 0 .465-.219q.178-.218.273-.52.11-.3.137-.614a5 5 0 0 0 .041-.534m7.533-.93a.9.9 0 0 1-.328-.027l-.273-.109a3 3 0 0 0-.246-.096.54.54 0 0 0-.274-.04q-.273.013-.492.15a2 2 0 0 0-.383.341 2.4 2.4 0 0 0-.287.465 2.7 2.7 0 0 0-.191.492q-.041.165-.069.506a17 17 0 0 0-.013.711q-.014.397-.014.752 0 .356-.027.56a4 4 0 0 1-.069.52 2.2 2.2 0 0 1-.177.547 1.3 1.3 0 0 1-.301.438.7.7 0 0 1-.492.177.66.66 0 0 1-.411-.136 1.3 1.3 0 0 1-.287-.356 3.3 3.3 0 0 1-.191-.533 6 6 0 0 1-.109-.615 15 15 0 0 1-.069-.656l-.027-.616v-.546q.014-.247.014-.397-.015-.479-.055-.957a18 18 0 0 1-.027-.97q0-.302.027-.67.027-.37.15-.684.123-.328.356-.547.246-.219.67-.219.233 0 .396.15.164.15.26.37.109.218.164.465.054.245.068.45.328-.533.739-.86.41-.343 1.066-.37.328-.014.643.069.327.068.587.246.275.164.438.437.177.273.191.643.028.437-.259.67a1.14 1.14 0 0 1-.698.246m3.76 5.51q-.697 0-1.217-.369a3.2 3.2 0 0 1-.875-.943 4.5 4.5 0 0 1-.533-1.272 5.8 5.8 0 0 1-.178-1.394q0-.725.178-1.49.178-.78.547-1.408a3.15 3.15 0 0 1 .943-1.04q.575-.41 1.368-.41.765 0 1.298.424.548.41.875 1.04.328.614.465 1.353.137.738.096 1.394-.04.725-.233 1.463a4.6 4.6 0 0 1-.533 1.326 3 3 0 0 1-.902.957q-.547.37-1.299.37m.137-6.18q-.205 0-.369.22a2.2 2.2 0 0 0-.26.533 5 5 0 0 0-.15.67 4 4 0 0 0-.055.601q0 .329.055.711.067.383.177.711.11.315.26.533.164.205.369.205.219 0 .369-.205.165-.205.26-.52.096-.314.137-.683.04-.383.041-.71 0-.302-.055-.657a3.7 3.7 0 0 0-.164-.684 1.5 1.5 0 0 0-.26-.52q-.15-.204-.355-.204m9.42-3.212q0 .998-.082 1.982a28 28 0 0 0-.069 1.983q0 .806.041 1.6.055.792.055 1.599 0 .22-.014.533-.014.3-.095.588a1.15 1.15 0 0 1-.246.492q-.165.205-.479.205a.89.89 0 0 1-.684-.3 1.5 1.5 0 0 1-.328-.698 2.3 2.3 0 0 1-.752.834 1.83 1.83 0 0 1-1.066.342q-.616 0-1.066-.424a3.7 3.7 0 0 1-.739-1.025 6 6 0 0 1-.437-1.258 5.7 5.7 0 0 1-.137-1.135 8.6 8.6 0 0 1 .178-1.668q.11-.45.273-.875.165-.437.41-.779.26-.342.602-.547.355-.205.807-.205.492 0 .943.287.451.288.684.711l.123-2.174q.013-.26.041-.601.027-.355.109-.67.096-.315.287-.533.192-.22.561-.22.396 0 .615.192.22.192.314.492.11.287.123.63.028.34.028.642m-2.229 6.07q0-.314-.013-.615a6 6 0 0 1 0-.615 8 8 0 0 0-.192-.383 1.7 1.7 0 0 0-.273-.396 1.4 1.4 0 0 0-.342-.315.75.75 0 0 0-.41-.123.54.54 0 0 0-.397.15q-.15.15-.218.37a2 2 0 0 0-.096.45 8 8 0 0 0-.014.425q0 .164.027.492.028.314.096.642.082.328.219.575.137.245.369.246a1 1 0 0 0 .356-.069q.177-.082.328-.191.163-.123.3-.26a6 6 0 0 0 .26-.273zm9.119-.984q0 .752-.15 1.49a4.1 4.1 0 0 1-.506 1.326 2.75 2.75 0 0 1-.957.93q-.588.355-1.476.355-.876 0-1.463-.341a2.8 2.8 0 0 1-.944-.93 4.2 4.2 0 0 1-.492-1.299 8 8 0 0 1-.137-1.477q0-.82.192-1.626.04-.22.15-.602.123-.397.301-.766.192-.383.424-.656.246-.273.533-.273a.62.62 0 0 1 .437.15q.165.15.26.383.096.219.123.478.028.247.028.452 0 .314-.055.615-.04.3-.096.601l-.109.82a8 8 0 0 0-.027 1.286q.027.246.109.478.082.233.232.397.151.15.424.15.356 0 .561-.191.218-.191.314-.479.11-.287.137-.615.027-.329.027-.602 0-.6-.082-1.175a43 43 0 0 1-.15-1.19 1.3 1.3 0 0 1 .246-.97.9.9 0 0 1 .301-.26.74.74 0 0 1 .396-.11q.301 0 .533.22.233.204.383.546.165.329.26.752.11.41.164.82.069.397.082.752.027.356.027.56m6.973 2.625a.62.62 0 0 1-.232.478q-.22.205-.575.37a4 4 0 0 1-.793.273 10 10 0 0 1-.875.178 9 9 0 0 1-.806.095 6 6 0 0 1-.615.041q-.233 0-.657-.013a4.2 4.2 0 0 1-.82-.11 2.1 2.1 0 0 1-.711-.273.65.65 0 0 1-.301-.56q0-.274.192-.67.19-.397.492-.862.3-.465.67-.943.369-.492.724-.944.356-.45.67-.82.315-.383.492-.629a10 10 0 0 0-.492.123 31 31 0 0 1-.601.137q-.315.069-.615.123a4 4 0 0 1-.493.041 1.5 1.5 0 0 1-.369-.055 2 2 0 0 1-.396-.177 1.4 1.4 0 0 1-.315-.26.53.53 0 0 1-.123-.342q0-.246.219-.451.219-.22.574-.383.355-.178.793-.3a8 8 0 0 1 .861-.22 7 7 0 0 1 1.422-.177q.26 0 .629.055.369.054.711.19.356.138.602.37t.246.588a.7.7 0 0 1-.028.205 2 2 0 0 1-.041.191q-.027.096-.246.438-.205.328-.519.793a73 73 0 0 1-.67.984q-.356.52-.684.985a136 136 0 0 0-.902 1.298q.56-.15 1.135-.246.588-.11 1.162-.109.137 0 .355.014.219.013.424.082a.9.9 0 0 1 .356.177q.15.11.15.315m2.529-8.258a.56.56 0 0 1-.109.342q-.095.15-.26.273a1.6 1.6 0 0 1-.355.178 1.3 1.3 0 0 1-.356.055.84.84 0 0 1-.478-.137q-.205-.137-.205-.424 0-.205.095-.355a.9.9 0 0 1 .26-.26q.15-.11.342-.164t.369-.055q.26 0 .479.123t.218.424m.11 4.648v.41q0 .206-.014.397-.014.233-.014.629 0 .383-.027.834t-.096.916q-.054.465-.191.848a1.8 1.8 0 0 1-.369.629.78.78 0 0 1-.561.246.5.5 0 0 1-.437-.205 1.9 1.9 0 0 1-.301-.561 4.6 4.6 0 0 1-.164-.78q-.055-.436-.082-.833a12 12 0 0 1-.028-.752V49.77q0-.41.028-.875.027-.465.096-.944.081-.478.218-.875a1.9 1.9 0 0 1 .383-.642.77.77 0 0 1 .588-.246q.369 0 .561.369.19.369.287.861.095.492.109.985.014.478.014.71m5.715-.218a.9.9 0 0 1-.329-.028l-.273-.109a3 3 0 0 0-.246-.096.54.54 0 0 0-.274-.04q-.273.013-.492.15a2 2 0 0 0-.383.341 2.4 2.4 0 0 0-.287.465 3 3 0 0 0-.191.492q-.04.165-.068.506-.014.33-.014.711-.014.397-.014.752 0 .356-.027.56a5 5 0 0 1-.068.52 2.3 2.3 0 0 1-.178.547 1.25 1.25 0 0 1-.301.438.7.7 0 0 1-.492.177.65.65 0 0 1-.41-.136 1.3 1.3 0 0 1-.287-.356 3.3 3.3 0 0 1-.192-.533 7 7 0 0 1-.109-.615q-.041-.329-.069-.656l-.027-.616v-.546q.014-.247.014-.397a17 17 0 0 0-.055-.957 18 18 0 0 1-.027-.97q0-.302.027-.67.027-.37.15-.684.123-.328.356-.547.246-.219.67-.219.232 0 .396.15.165.15.26.37.11.218.164.465.055.245.069.45.327-.533.738-.86.41-.343 1.066-.37.328-.014.643.069.328.068.588.246.273.164.437.437.178.273.192.643.027.437-.26.67a1.14 1.14 0 0 1-.697.246M95.198 67.926q0 .6-.136 1.326a4.6 4.6 0 0 1-.438 1.326q-.3.615-.807 1.025-.492.41-1.244.41-.191 0-.396-.027a2 2 0 0 1-.397-.095 1.4 1.4 0 0 1-.328-.178.8.8 0 0 1-.232-.315l-.123 1.97q-.014.314-.028.751 0 .438-.109.834a1.5 1.5 0 0 1-.342.67q-.233.287-.683.287-.261 0-.438-.273a2.2 2.2 0 0 1-.287-.67 8 8 0 0 1-.15-.916q-.056-.507-.069-.97-.013-.465-.013-.849v-.56q0-.915-.014-1.819-.014-.915-.014-1.831v-.506q0-.356.028-.766.027-.41.082-.848.068-.437.191-.793a1.7 1.7 0 0 1 .314-.587.58.58 0 0 1 .465-.233q.178 0 .315.11.15.095.246.26.11.15.178.327t.109.328q.423-.478.97-.724.56-.246 1.19-.246.657 0 1.067.369.422.369.656.916.246.546.342 1.176.095.615.095 1.12m-1.955-.11q0-.204-.04-.41a1.1 1.1 0 0 0-.124-.396.67.67 0 0 0-.246-.301.67.67 0 0 0-.41-.123q-.328 0-.697.219a1.5 1.5 0 0 0-.534.478q-.067.11-.082.356-.013.246-.013.369v.26a42 42 0 0 1 .054.629q.028.15.069.232.04.123.177.232.138.096.301.178a1.6 1.6 0 0 0 .328.123q.179.04.301.041a.57.57 0 0 0 .465-.219q.178-.218.273-.52.11-.3.137-.614.041-.33.041-.534m5.387 4.58q-.697 0-1.217-.369a3.2 3.2 0 0 1-.875-.943 4.5 4.5 0 0 1-.533-1.272 5.7 5.7 0 0 1-.178-1.394q0-.725.178-1.49.177-.78.547-1.409.369-.642.943-1.038.575-.41 1.367-.41.766 0 1.299.423.547.41.875 1.04.328.614.465 1.353.136.738.096 1.394-.041.725-.233 1.463a4.6 4.6 0 0 1-.533 1.326 3 3 0 0 1-.902.957q-.547.37-1.3.37m.137-6.18q-.205 0-.37.22-.15.218-.26.533-.095.315-.15.67a4 4 0 0 0-.054.601q0 .328.054.711.069.383.178.711.11.314.26.533.164.205.369.205.219 0 .37-.205.163-.204.259-.52.096-.314.137-.683.04-.383.04-.71 0-.301-.054-.657a4 4 0 0 0-.164-.684 1.5 1.5 0 0 0-.26-.52q-.15-.204-.355-.204m9.515 1.874q0 .752-.15 1.49a4.1 4.1 0 0 1-.506 1.326 2.75 2.75 0 0 1-.957.93q-.588.355-1.477.355-.875 0-1.463-.341a2.8 2.8 0 0 1-.943-.93 4.2 4.2 0 0 1-.492-1.299 8 8 0 0 1-.137-1.477q0-.82.192-1.626.04-.22.15-.602.123-.396.301-.766.191-.383.424-.656.245-.273.533-.273a.62.62 0 0 1 .437.15q.165.15.26.383.096.219.123.478.027.247.027.452 0 .314-.054.615-.041.3-.096.601l-.109.82a8 8 0 0 0-.028 1.286q.028.246.11.478.082.233.232.397.15.15.424.15.356 0 .561-.191.218-.191.314-.479.109-.287.137-.615.027-.329.027-.602 0-.6-.082-1.175a43 43 0 0 1-.15-1.19 1.3 1.3 0 0 1 .246-.97.9.9 0 0 1 .301-.26.74.74 0 0 1 .396-.11q.301 0 .533.22.233.204.383.546.164.329.26.752.109.41.164.82.068.397.082.752.027.356.027.56m5.906-1.34a1 1 0 0 1-.013.15 1 1 0 0 1-.041.137q-.123.314-.383.533a.96.96 0 0 1-.615.205q-.533 0-.725-.533a.4.4 0 0 1-.027-.15 1.4 1.4 0 0 0-.014-.192v-.396a.8.8 0 0 0-.096-.3q-.068-.11-.232-.11-.232 0-.451.3a3.3 3.3 0 0 0-.369.698 6 6 0 0 0-.246.82q-.096.424-.096.684 0 .204.027.506.027.287.11.56.081.273.218.479a.47.47 0 0 0 .383.191.7.7 0 0 0 .424-.137q.206-.15.396-.341.179-.165.383-.342a.76.76 0 0 1 .492-.178.64.64 0 0 1 .534.246q.204.246.205.56 0 .465-.246.876a2.8 2.8 0 0 1-.616.697 3 3 0 0 1-.82.451 2.4 2.4 0 0 1-.861.178q-.739 0-1.258-.37a2.9 2.9 0 0 1-.82-.929 4.4 4.4 0 0 1-.452-1.244 6.4 6.4 0 0 1-.136-1.272q0-.697.191-1.504a5.7 5.7 0 0 1 .588-1.517 3.8 3.8 0 0 1 1.012-1.162q.629-.465 1.49-.465.533 0 .916.232.397.232.643.616.26.369.382.834.138.465.137.916v.136a.6.6 0 0 1-.014.137m6.577 3.322q0 .246-.028.643a3.7 3.7 0 0 1-.109.78q-.096.368-.301.642a.68.68 0 0 1-.574.273q-.506 0-.779-.328-.274-.328-.26-.82a3.4 3.4 0 0 1-.998.601 3 3 0 0 1-1.121.219q-.397 0-.752-.191a2.3 2.3 0 0 1-.629-.493 2.5 2.5 0 0 1-.438-.67 1.9 1.9 0 0 1-.164-.751q0-.656.397-1.149.41-.492.998-.834a5.7 5.7 0 0 1 1.244-.56 7.5 7.5 0 0 1 1.189-.274v-.123a.5.5 0 0 0 .014-.123q0-.423-.232-.683-.233-.26-.657-.26-.34 0-.587.123-.247.11-.465.26-.219.135-.438.26-.219.109-.492.109a.76.76 0 0 1-.52-.192.65.65 0 0 1-.205-.492q0-.45.26-.82.273-.369.67-.615.41-.26.875-.397.479-.15.875-.15.369 0 .738.095.37.082.698.274.327.178.588.451.273.26.437.615.246.506.397 1.08.15.56.232 1.162.082.588.109 1.19.028.588.028 1.148m-2.188-.437-.041-.93h-.055a.1.1 0 0 0-.054-.014q-.178 0-.451.096a2 2 0 0 0-.506.246 2 2 0 0 0-.424.342.6.6 0 0 0-.164.397q0 .19.137.26a.7.7 0 0 0 .314.068 1.6 1.6 0 0 0 .643-.15q.341-.165.601-.315m8.559-7.178a.57.57 0 0 1-.11.342q-.095.15-.259.273-.164.11-.356.178a1.3 1.3 0 0 1-.355.055.84.84 0 0 1-.479-.137q-.205-.137-.205-.424 0-.205.096-.355a.9.9 0 0 1 .26-.26q.15-.11.341-.164t.369-.055a.96.96 0 0 1 .479.123q.219.123.219.424m.109 4.649v.41q0 .204-.014.396a12 12 0 0 0-.013.629q0 .382-.028.834-.027.45-.095.916-.056.465-.192.848a1.8 1.8 0 0 1-.369.629.78.78 0 0 1-.56.246.5.5 0 0 1-.438-.205 1.9 1.9 0 0 1-.301-.561 5 5 0 0 1-.164-.78 15 15 0 0 1-.082-.833 12 12 0 0 1-.027-.752v-1.121q0-.41.027-.875t.096-.944q.083-.478.219-.875.15-.396.383-.642a.77.77 0 0 1 .587-.246q.37 0 .561.369t.287.861.109.984q.014.479.014.712m4.854 5.277q-.232 0-.37-.219a1.5 1.5 0 0 1-.205-.478 4 4 0 0 1-.095-.547 10 10 0 0 1-.014-.438q0-.41.041-.82l.109-.82q.068-.41.11-.82.054-.411.054-.821 0-.165-.013-.356a1.4 1.4 0 0 0-.069-.355.6.6 0 0 0-.15-.287.4.4 0 0 0-.287-.11q-.123 0-.273.206a3 3 0 0 0-.288.45 5 5 0 0 0-.218.507 1.3 1.3 0 0 0-.082.369v.615q.013.3.013.615v.793a9 9 0 0 1-.041.506 4 4 0 0 1-.082.506 3 3 0 0 1-.123.478 1.5 1.5 0 0 1-.219.397q-.123.164-.3.273a.8.8 0 0 1-.424.11.6.6 0 0 1-.451-.178 1.3 1.3 0 0 1-.287-.451 3 3 0 0 1-.164-.63 19 19 0 0 1-.069-.683 16 16 0 0 1-.014-.615q.014-.287.014-.451v-.643q0-.52-.027-1.025a38 38 0 0 1-.014-1.012v-.697q.014-.424.11-.82a1.8 1.8 0 0 1 .314-.698q.219-.287.643-.287.19 0 .341.123t.26.301q.123.178.192.383.081.205.123.355.137-.19.314-.369.192-.177.424-.314a2.23 2.23 0 0 1 1.176-.301q.696 0 1.08.342.396.328.574.834.192.492.232 1.066t.041 1.04q0 .231-.041.697-.041.45-.136 1.011-.083.547-.233 1.135a7.6 7.6 0 0 1-.355 1.053 2.6 2.6 0 0 1-.492.779q-.274.3-.629.3m6.658-7.902q0 .396-.274.587-.26.192-.587.37-.329.163-.602.396-.26.232-.26.697 0 .246.11.424.122.178.287.328.178.137.382.287t.37.342q.177.192.287.465.123.273.123.67 0 .574-.301 1.135a3.75 3.75 0 0 1-1.777 1.668q-.574.26-1.135.26-.233 0-.465-.042a1.3 1.3 0 0 1-.424-.123.9.9 0 0 1-.301-.26.8.8 0 0 1-.123-.45q0-.384.151-.588.15-.219.383-.342t.492-.192q.273-.068.506-.164.232-.11.382-.273.151-.164.151-.465 0-.287-.233-.588-.218-.314-.492-.656a7 7 0 0 1-.506-.752 1.8 1.8 0 0 1-.218-.875q0-.588.232-1.08.246-.507.643-.875.41-.37.929-.575a2.8 2.8 0 0 1 1.094-.218q.219 0 .424.04.218.042.383.151a.7.7 0 0 1 .259.274q.11.163.11.424m6.535 3.609q0 .752-.15 1.49a4.2 4.2 0 0 1-.506 1.326 2.75 2.75 0 0 1-.957.93q-.588.355-1.477.355-.875 0-1.463-.341a2.8 2.8 0 0 1-.943-.93 4.2 4.2 0 0 1-.492-1.299 8 8 0 0 1-.137-1.477q0-.82.191-1.626a5.5 5.5 0 0 1 .452-1.367 3.2 3.2 0 0 1 .423-.657q.246-.273.534-.273a.62.62 0 0 1 .437.15q.164.15.26.383.096.219.123.478.027.247.027.452 0 .314-.054.615-.042.3-.096.601l-.11.82a8 8 0 0 0-.027 1.286q.027.246.11.478.082.233.232.397.15.15.424.15.356 0 .56-.191.219-.191.315-.479a2.2 2.2 0 0 0 .136-.615q.028-.329.028-.602 0-.6-.082-1.175a48 48 0 0 1-.151-1.19 1.3 1.3 0 0 1 .247-.97.9.9 0 0 1 .3-.26.74.74 0 0 1 .397-.11q.3 0 .533.22.233.204.383.546.164.329.26.752.108.41.164.82.068.397.082.752.027.356.027.56m3.391-4.375q0 .738-.069 1.49-.054.738-.054 1.49 0 .971.054 1.942.069.97.069 1.955 0 .245-.028.56-.028.301-.136.56a1.06 1.06 0 0 1-.301.438q-.205.178-.547.178-.328 0-.574-.328a2.9 2.9 0 0 1-.397-.807q-.15-.505-.26-1.12-.095-.615-.15-1.19-.04-.588-.068-1.067-.014-.492-.014-.724 0-.26.014-.752a17 17 0 0 1 .273-2.229 6.3 6.3 0 0 1 .315-1.08q.191-.492.451-.793.273-.315.642-.314.301 0 .451.205.165.192.233.478.068.274.082.588.014.3.014.52m3.295-1.258a.57.57 0 0 1-.11.342q-.095.15-.26.273a1.6 1.6 0 0 1-.355.178 1.3 1.3 0 0 1-.356.055.84.84 0 0 1-.478-.137q-.205-.137-.205-.424 0-.205.096-.355a.9.9 0 0 1 .259-.26q.152-.11.342-.164.192-.055.369-.055.26 0 .479.123t.219.424m.109 4.649v.41q0 .204-.014.396a12 12 0 0 0-.013.629q0 .382-.028.834-.027.45-.095.916-.055.465-.192.848a1.8 1.8 0 0 1-.369.629.78.78 0 0 1-.561.246.5.5 0 0 1-.437-.205 1.9 1.9 0 0 1-.301-.561 5 5 0 0 1-.164-.78 15 15 0 0 1-.082-.833 12 12 0 0 1-.027-.752V67.76q0-.41.027-.875t.096-.944q.081-.478.219-.875.15-.396.382-.642a.77.77 0 0 1 .588-.246q.369 0 .561.369.19.369.287.861t.109.984q.014.479.014.712m4.853 5.277q-.233 0-.369-.219a1.5 1.5 0 0 1-.205-.478 4 4 0 0 1-.095-.547 9 9 0 0 1-.014-.438q0-.41.041-.82l.109-.82q.068-.41.11-.82.054-.411.054-.821 0-.165-.013-.356a1.4 1.4 0 0 0-.069-.355.6.6 0 0 0-.15-.287.4.4 0 0 0-.287-.11q-.123 0-.274.206-.15.191-.287.45a5 5 0 0 0-.219.507 1.3 1.3 0 0 0-.082.369v.615q.014.3.014.615v.793q-.014.246-.041.506a4 4 0 0 1-.082.506 3 3 0 0 1-.123.478 1.5 1.5 0 0 1-.219.397q-.123.164-.301.273a.8.8 0 0 1-.423.11.6.6 0 0 1-.452-.178 1.3 1.3 0 0 1-.287-.451 3.2 3.2 0 0 1-.164-.63 22 22 0 0 1-.068-.683 16 16 0 0 1-.014-.615q.014-.287.014-.451v-.643q0-.52-.027-1.025-.014-.505-.014-1.012v-.697q.014-.424.109-.82.096-.41.315-.698.219-.287.642-.287.192 0 .342.123t.26.301q.123.178.191.383.083.205.123.355a3 3 0 0 1 .315-.369q.191-.177.424-.314a2.23 2.23 0 0 1 1.175-.301q.697 0 1.08.342.397.328.575.834.191.492.232 1.066.04.575.041 1.04 0 .231-.041.697-.04.45-.137 1.011-.082.547-.232 1.135a7.6 7.6 0 0 1-.355 1.053 2.6 2.6 0 0 1-.493.779q-.273.3-.629.3m8.463-2.31q0 .245-.027.642a3.8 3.8 0 0 1-.109.78q-.096.368-.301.642a.68.68 0 0 1-.574.273q-.506 0-.78-.328-.273-.328-.259-.82a3.4 3.4 0 0 1-.999.601 3 3 0 0 1-1.121.219q-.396 0-.752-.191a2.47 2.47 0 0 1-1.066-1.162 1.9 1.9 0 0 1-.164-.752q0-.656.396-1.149.411-.492.999-.834a5.6 5.6 0 0 1 1.244-.56 7.4 7.4 0 0 1 1.189-.274v-.123a.5.5 0 0 0 .014-.123q0-.423-.233-.683-.232-.26-.656-.26a1.3 1.3 0 0 0-.588.123q-.246.11-.465.26a10 10 0 0 1-.437.26q-.219.109-.492.109a.76.76 0 0 1-.52-.192.64.64 0 0 1-.205-.492q0-.45.26-.82.273-.369.67-.615.41-.26.875-.397.478-.15.875-.15.369 0 .738.095.37.082.697.274.328.178.588.451.273.26.438.615.246.506.396 1.08.15.56.233 1.162.082.588.109 1.19.027.588.027 1.148m-2.187-.438-.041-.93h-.055a.1.1 0 0 0-.055-.014q-.177 0-.451.096a2 2 0 0 0-.506.246q-.246.15-.423.342a.6.6 0 0 0-.164.397q0 .19.136.26a.7.7 0 0 0 .315.068q.3 0 .642-.15.342-.165.602-.315m8.9 2.761q-.697 0-1.217-.369a3.2 3.2 0 0 1-.875-.943 4.5 4.5 0 0 1-.533-1.272 5.8 5.8 0 0 1-.178-1.394q0-.725.178-1.49.178-.78.547-1.409a3.15 3.15 0 0 1 .943-1.038q.575-.41 1.368-.41.765 0 1.298.423.548.41.875 1.04.329.614.465 1.353.137.738.096 1.394-.041.725-.232 1.463a4.7 4.7 0 0 1-.534 1.326 3 3 0 0 1-.902.957q-.547.37-1.299.37m.137-6.18q-.205 0-.369.22-.15.218-.26.533a5 5 0 0 0-.15.67 4 4 0 0 0-.055.601q0 .328.055.711.067.383.177.711.11.314.26.533.165.205.369.205.219 0 .369-.205.165-.204.26-.52.096-.314.137-.683.04-.383.041-.71 0-.301-.055-.657a3.7 3.7 0 0 0-.164-.684 1.5 1.5 0 0 0-.26-.52q-.15-.204-.355-.204m9.516 1.874q0 .752-.151 1.49a4.1 4.1 0 0 1-.506 1.326 2.75 2.75 0 0 1-.957.93q-.588.355-1.476.355-.875 0-1.463-.341a2.8 2.8 0 0 1-.944-.93 4.2 4.2 0 0 1-.492-1.299 8 8 0 0 1-.136-1.477q0-.82.191-1.626.04-.22.15-.602.123-.396.301-.766.192-.383.424-.656.246-.273.533-.273.273 0 .438.15t.259.383q.096.219.123.478.028.247.028.452 0 .314-.055.615-.04.3-.096.601l-.109.82a8 8 0 0 0-.027 1.286q.027.246.109.478.082.233.233.397.15.15.423.15.356 0 .561-.191.22-.191.314-.479.11-.287.137-.615.027-.329.027-.602 0-.6-.082-1.175a53 53 0 0 1-.15-1.19 1.3 1.3 0 0 1 .055-.602q.068-.204.191-.368a.9.9 0 0 1 .301-.26.74.74 0 0 1 .396-.11q.302 0 .534.22.231.204.382.546.165.329.26.752.11.41.164.82.069.397.082.752.028.356.028.56m9.939 1.982q0 .246-.027.643a3.7 3.7 0 0 1-.11.78q-.096.368-.3.642a.68.68 0 0 1-.575.273q-.506 0-.779-.328t-.26-.82a3.3 3.3 0 0 1-.998.601 3 3 0 0 1-1.121.219q-.396 0-.752-.191a2.4 2.4 0 0 1-.629-.493 2.5 2.5 0 0 1-.437-.67 1.9 1.9 0 0 1-.164-.751q0-.656.396-1.149.41-.492.998-.834a5.7 5.7 0 0 1 1.244-.56 7.5 7.5 0 0 1 1.19-.274v-.123a.5.5 0 0 0 .013-.123q0-.423-.232-.683-.233-.26-.656-.26a1.3 1.3 0 0 0-.588.123q-.246.11-.465.26-.22.135-.437.26-.219.109-.493.109a.76.76 0 0 1-.519-.192.64.64 0 0 1-.205-.492q0-.45.26-.82.273-.369.669-.615.411-.26.875-.397.479-.15.875-.15.37 0 .739.095.369.082.697.274.328.178.588.451.273.26.437.615.246.506.397 1.08.15.56.232 1.162.082.588.11 1.19.027.588.027 1.148m-2.187-.437-.042-.93h-.054a.1.1 0 0 0-.055-.014 1.4 1.4 0 0 0-.451.096 2 2 0 0 0-.506.246q-.246.15-.424.342a.6.6 0 0 0-.164.397q0 .19.137.26a.7.7 0 0 0 .314.068 1.6 1.6 0 0 0 .643-.15q.342-.165.602-.315m6.193 2.857q-.97 0-1.518-.26a1.76 1.76 0 0 1-.806-.71q-.26-.465-.315-1.122a18 18 0 0 1-.054-1.463q0-.642.041-1.285.04-.656.123-1.394-.192 0-.301.014h-.178a1.4 1.4 0 0 1-.752-.192.63.63 0 0 1-.328-.588q0-.246.191-.437.178-.192.465-.328.288-.138.615-.22.343-.08.643-.109 0-.382.055-.847.054-.465.191-.861.15-.411.397-.684a.8.8 0 0 1 .629-.274q.218 0 .382.137a.9.9 0 0 1 .287.328q.11.192.165.438.054.246.054.478 0 .275-.041.56a7 7 0 0 1-.15.712q.233-.028.314-.028a1 1 0 0 1 .151-.013q.232 0 .478.04.26.042.465.138.219.095.355.26.137.15.137.368 0 .246-.205.438a1.7 1.7 0 0 1-.492.328 3.6 3.6 0 0 1-.643.219 6 6 0 0 1-.642.096q-.083.56-.123 1.038-.028.465-.069.944l-.054.478a8 8 0 0 0-.014.479q0 .178.014.424.014.233.095.45a1 1 0 0 0 .26.384q.178.15.492.15.192 0 .397-.027a2 2 0 0 1 .41-.041q.356 0 .506.246.164.246.164.629 0 .287-.178.506a1.2 1.2 0 0 1-.424.328 2.2 2.2 0 0 1-.588.205q-.314.068-.601.068m7.793-2.926q0 .466-.301.916a3.3 3.3 0 0 1-.738.793 4.3 4.3 0 0 1-.944.56 2.5 2.5 0 0 1-.929.206q-.725 0-1.299-.355a3.4 3.4 0 0 1-.943-.93 4.5 4.5 0 0 1-.588-1.23 5 5 0 0 1-.192-1.327q0-.684.192-1.463.191-.78.574-1.435a3.8 3.8 0 0 1 .984-1.094q.602-.437 1.422-.437.465 0 .889.164a2.15 2.15 0 0 1 1.244 1.12q.192.397.191.89 0 .642-.273 1.203a3.2 3.2 0 0 1-.725.97q-.45.41-1.039.67a3.5 3.5 0 0 1-1.203.273q.055.397.315.575.273.177.642.177.273 0 .533-.136a6 6 0 0 0 .506-.301 6 6 0 0 1 .479-.314q.246-.137.492-.137a.76.76 0 0 1 .492.178.57.57 0 0 1 .219.464m-2.215-3.35a.8.8 0 0 0-.096-.368.32.32 0 0 0-.3-.192.78.78 0 0 0-.506.164q-.206.15-.342.397a2.3 2.3 0 0 0-.219.506q-.068.273-.082.505.192-.04.451-.109.274-.068.506-.178.246-.123.41-.3a.58.58 0 0 0 .178-.424m.766-4.853q0 .15-.082.301a1.4 1.4 0 0 1-.205.26q-.11.123-.247.232a10 10 0 0 0-.246.178q-.095.069-.218.164-.11.083-.247.164a2 2 0 0 1-.259.123.6.6 0 0 1-.246.055.34.34 0 0 1-.192-.055.24.24 0 0 1-.082-.191q0-.206.151-.492.163-.301.396-.575.232-.286.492-.478.26-.205.479-.205.19 0 .342.164.164.15.164.355m11.552 6.563q0 .6-.136 1.326a4.6 4.6 0 0 1-.438 1.326q-.3.615-.807 1.025-.492.41-1.244.41-.19 0-.396-.027a2 2 0 0 1-.397-.095 1.5 1.5 0 0 1-.328-.178.8.8 0 0 1-.232-.315l-.123 1.97q-.013.314-.028.751 0 .438-.109.834a1.5 1.5 0 0 1-.342.67q-.233.287-.683.287-.26 0-.438-.273a2.2 2.2 0 0 1-.287-.67 8 8 0 0 1-.15-.916q-.055-.507-.069-.97-.013-.465-.013-.849v-.56q0-.915-.014-1.819-.014-.915-.014-1.831v-.506q0-.356.028-.766.027-.41.082-.848.068-.437.191-.793.123-.37.315-.587a.58.58 0 0 1 .464-.233.5.5 0 0 1 .315.11q.15.095.246.26.11.15.178.327t.109.328q.424-.478.971-.724.56-.246 1.189-.246.657 0 1.067.369.423.369.656.916.246.546.342 1.176.095.615.095 1.12m-1.955-.11a2 2 0 0 0-.041-.41 1.1 1.1 0 0 0-.123-.396.67.67 0 0 0-.246-.301.66.66 0 0 0-.41-.123q-.328 0-.697.219a1.54 1.54 0 0 0-.534.478q-.067.11-.082.356a7 7 0 0 0-.013.369v.26a43 43 0 0 1 .054.629q.028.15.069.232.04.123.178.232.137.096.3.178.165.082.328.123.178.04.301.041a.57.57 0 0 0 .465-.219q.178-.218.274-.52.108-.3.136-.614a4 4 0 0 0 .041-.534m8.6 2.256q0 .246-.027.643-.014.396-.11.78-.096.368-.301.642a.68.68 0 0 1-.574.273q-.506 0-.779-.328t-.26-.82a3.4 3.4 0 0 1-.998.601 3 3 0 0 1-1.121.219q-.396 0-.752-.191a2.3 2.3 0 0 1-.629-.493 2.5 2.5 0 0 1-.437-.67 1.9 1.9 0 0 1-.164-.751q0-.656.396-1.149.41-.492.998-.834a5.7 5.7 0 0 1 1.244-.56 7.5 7.5 0 0 1 1.19-.274v-.123a.5.5 0 0 0 .013-.123q0-.423-.232-.683-.233-.26-.656-.26a1.3 1.3 0 0 0-.588.123q-.246.11-.465.26-.219.135-.438.26a1.1 1.1 0 0 1-.492.109.76.76 0 0 1-.519-.192.64.64 0 0 1-.205-.492q0-.45.259-.82.274-.369.67-.615.41-.26.875-.397.479-.15.875-.15.37 0 .739.095.369.082.697.274.328.178.588.451.273.26.437.615.246.506.397 1.08.15.56.232 1.162.082.588.11 1.19.027.588.027 1.148m-2.188-.437-.041-.93h-.054a.1.1 0 0 0-.055-.014 1.4 1.4 0 0 0-.451.096 2 2 0 0 0-.506.246q-.246.15-.424.342a.6.6 0 0 0-.164.397q0 .19.137.26a.7.7 0 0 0 .314.068 1.6 1.6 0 0 0 .643-.15q.342-.165.601-.315m7.752-2.748a.9.9 0 0 1-.328-.028l-.273-.109a3 3 0 0 0-.246-.096.54.54 0 0 0-.274-.04q-.273.012-.492.15a2 2 0 0 0-.383.342 2.4 2.4 0 0 0-.287.464 2.7 2.7 0 0 0-.191.493q-.041.164-.069.505a17 17 0 0 0-.013.711q-.014.397-.014.752 0 .356-.027.56a4 4 0 0 1-.069.52 2.2 2.2 0 0 1-.177.547 1.3 1.3 0 0 1-.301.438.7.7 0 0 1-.492.177.66.66 0 0 1-.411-.136 1.3 1.3 0 0 1-.287-.356 3.3 3.3 0 0 1-.191-.533 6 6 0 0 1-.109-.615 15 15 0 0 1-.069-.656l-.027-.616v-.547q.014-.246.014-.396-.015-.478-.055-.957a18 18 0 0 1-.027-.97q0-.302.027-.67.027-.37.15-.684.123-.328.356-.547.246-.219.67-.219.233 0 .396.15.164.15.26.37.109.218.164.465.054.245.068.45.328-.533.739-.86.41-.343 1.066-.37.328-.013.643.069.327.067.587.246.275.164.438.437.177.274.191.643.028.437-.259.67a1.14 1.14 0 0 1-.698.246m6.973 3.185q0 .246-.027.643a3.7 3.7 0 0 1-.11.78q-.096.368-.301.642a.68.68 0 0 1-.574.273q-.506 0-.779-.328t-.26-.82a3.3 3.3 0 0 1-.998.601 3 3 0 0 1-1.121.219q-.396 0-.752-.191a2.4 2.4 0 0 1-.629-.493 2.5 2.5 0 0 1-.437-.67 1.9 1.9 0 0 1-.164-.751q0-.656.396-1.149.41-.492.998-.834a5.7 5.7 0 0 1 1.244-.56 7.5 7.5 0 0 1 1.19-.274v-.123a.5.5 0 0 0 .013-.123q0-.423-.232-.683-.233-.26-.656-.26a1.3 1.3 0 0 0-.588.123q-.246.11-.465.26-.22.135-.437.26-.219.109-.493.109a.76.76 0 0 1-.519-.192.64.64 0 0 1-.205-.492q0-.45.26-.82.273-.369.669-.615.411-.26.875-.397.479-.15.875-.15.37 0 .739.095.369.082.697.274.328.178.588.451.273.26.437.615.246.506.397 1.08.15.56.232 1.162.082.588.11 1.19.027.588.027 1.148m-2.188-.437-.041-.93h-.054a.1.1 0 0 0-.055-.014 1.4 1.4 0 0 0-.451.096 2 2 0 0 0-.506.246q-.246.15-.424.342a.6.6 0 0 0-.164.397q0 .19.137.26a.7.7 0 0 0 .314.068 1.6 1.6 0 0 0 .643-.15q.342-.165.601-.315m7.752-2.748a.9.9 0 0 1-.328-.028l-.273-.109a3 3 0 0 0-.246-.096.54.54 0 0 0-.274-.04q-.273.012-.492.15a2 2 0 0 0-.383.342 2.4 2.4 0 0 0-.287.464 2.7 2.7 0 0 0-.191.493q-.041.164-.069.505a17 17 0 0 0-.013.711q-.014.397-.014.752 0 .356-.027.56a4 4 0 0 1-.069.52 2.2 2.2 0 0 1-.177.547 1.25 1.25 0 0 1-.301.438.7.7 0 0 1-.492.177.65.65 0 0 1-.41-.136 1.3 1.3 0 0 1-.288-.356 3.4 3.4 0 0 1-.191-.533 6 6 0 0 1-.109-.615q-.041-.329-.069-.656l-.027-.616v-.547q.014-.246.014-.396a17 17 0 0 0-.055-.957 18 18 0 0 1-.027-.97q0-.302.027-.67.027-.37.15-.684.123-.328.356-.547.246-.219.67-.219.233 0 .396.15.164.15.26.37.11.218.164.465.055.245.068.45.328-.533.739-.86.41-.343 1.066-.37.328-.013.643.069.327.067.588.246.273.164.437.437.178.274.191.643.028.437-.259.67a1.14 1.14 0 0 1-.698.246m10.35-3.883q0 .998-.082 1.982a30 30 0 0 0-.027 3.582q.054.793.054 1.6 0 .218-.013.533-.013.3-.096.588a1.15 1.15 0 0 1-.246.492q-.164.205-.479.205a.88.88 0 0 1-.683-.3 1.5 1.5 0 0 1-.328-.698 2.35 2.35 0 0 1-.752.834 1.83 1.83 0 0 1-1.067.342q-.615 0-1.066-.424a3.7 3.7 0 0 1-.738-1.025 6 6 0 0 1-.438-1.258 5.7 5.7 0 0 1-.137-1.135 8.6 8.6 0 0 1 .178-1.668q.11-.45.274-.875a3.3 3.3 0 0 1 .41-.779q.26-.342.601-.547.355-.205.807-.205.493 0 .943.287.451.287.684.711l.123-2.174q.014-.26.041-.601a4 4 0 0 1 .109-.67q.096-.315.287-.533.192-.22.561-.22.396 0 .615.192t.315.492q.11.287.123.63.027.34.027.642m-2.228 6.07q0-.315-.014-.615a7 7 0 0 1 0-.615 8 8 0 0 0-.192-.383 1.7 1.7 0 0 0-.273-.397 1.4 1.4 0 0 0-.342-.314.74.74 0 0 0-.41-.123.54.54 0 0 0-.396.15.9.9 0 0 0-.219.37 2 2 0 0 0-.096.45 8 8 0 0 0-.014.425q0 .163.028.492.027.315.096.642.081.328.218.575.136.245.369.246a1 1 0 0 0 .356-.069q.178-.082.328-.191.164-.123.301-.26.15-.15.26-.273zm8.859.492q0 .466-.301.916a3.3 3.3 0 0 1-.738.793 4.3 4.3 0 0 1-.944.56 2.5 2.5 0 0 1-.929.206q-.724 0-1.299-.355a3.4 3.4 0 0 1-.943-.93 4.5 4.5 0 0 1-.588-1.23 5 5 0 0 1-.192-1.327q0-.684.192-1.463.191-.78.574-1.435a3.8 3.8 0 0 1 .984-1.094q.602-.437 1.422-.437.465 0 .889.164a2.14 2.14 0 0 1 1.244 1.12q.191.397.191.89 0 .642-.273 1.203a3.2 3.2 0 0 1-.725.97q-.45.41-1.039.67a3.5 3.5 0 0 1-1.203.273q.055.397.315.575.273.177.642.177.274 0 .533-.136a6 6 0 0 0 .506-.301 6 6 0 0 1 .479-.314q.246-.137.492-.137a.76.76 0 0 1 .492.178.57.57 0 0 1 .219.464m-2.215-3.35a.8.8 0 0 0-.096-.368.315.315 0 0 0-.3-.192.78.78 0 0 0-.506.164q-.206.15-.342.397a2.3 2.3 0 0 0-.219.506q-.068.273-.082.505.192-.04.451-.109.274-.068.506-.178.246-.123.41-.3a.58.58 0 0 0 .178-.424m-105.287 19.71q0 .6-.137 1.326a4.7 4.7 0 0 1-.437 1.326 3 3 0 0 1-.807 1.025q-.492.41-1.244.41-.192 0-.397-.027a2 2 0 0 1-.396-.095 1.4 1.4 0 0 1-.328-.178.8.8 0 0 1-.233-.315l-.123 1.97q-.014.314-.027.751 0 .438-.109.834a1.5 1.5 0 0 1-.342.67q-.233.287-.684.287-.26 0-.437-.273a2.2 2.2 0 0 1-.287-.67 8 8 0 0 1-.151-.916q-.054-.507-.068-.97-.014-.465-.014-.849v-.56q0-.915-.013-1.819-.014-.915-.014-1.831v-.506q0-.356.027-.766.028-.41.082-.848.069-.437.192-.793a1.7 1.7 0 0 1 .314-.587.58.58 0 0 1 .465-.233q.177 0 .314.11.151.095.247.26.109.15.177.327.069.178.11.328.423-.478.97-.724a2.9 2.9 0 0 1 1.19-.246q.656 0 1.066.369.425.369.656.916.247.546.342 1.176.096.615.096 1.12m-1.955-.11q0-.204-.041-.41a1.1 1.1 0 0 0-.123-.396.67.67 0 0 0-.246-.301.67.67 0 0 0-.41-.123q-.329 0-.698.219a1.5 1.5 0 0 0-.533.478q-.068.11-.082.356a8 8 0 0 0-.014.369v.26q.015.15.028.314l.027.315q.027.15.068.232.042.123.178.232a2.4 2.4 0 0 0 .301.178q.164.082.328.123.178.04.301.041a.57.57 0 0 0 .465-.219 1.6 1.6 0 0 0 .273-.52q.11-.3.137-.614a5 5 0 0 0 .041-.534m7.533-.93a.9.9 0 0 1-.328-.027l-.273-.109a3 3 0 0 0-.247-.096.54.54 0 0 0-.273-.04q-.273.012-.492.15a2 2 0 0 0-.383.342 2.4 2.4 0 0 0-.287.464 3 3 0 0 0-.192.493q-.04.164-.068.505a17 17 0 0 0-.014.711q-.013.397-.013.752 0 .356-.028.56a4 4 0 0 1-.068.52 2.2 2.2 0 0 1-.178.547 1.3 1.3 0 0 1-.3.438.7.7 0 0 1-.493.177.65.65 0 0 1-.41-.136 1.3 1.3 0 0 1-.287-.356 3 3 0 0 1-.191-.533 7 7 0 0 1-.11-.615q-.04-.329-.068-.656l-.027-.616v-.547q.013-.246.013-.396a17 17 0 0 0-.054-.957 17 17 0 0 1-.028-.97q0-.302.028-.67.027-.37.15-.684.123-.328.355-.547.247-.219.67-.219.232 0 .397.15.164.15.26.37.109.218.164.465.054.245.068.45a3.3 3.3 0 0 1 .738-.86q.41-.343 1.067-.37.328-.013.642.069.328.067.588.246.274.164.438.437.177.274.191.643.027.437-.26.67a1.13 1.13 0 0 1-.697.246m3.76 5.51q-.698 0-1.217-.369a3.2 3.2 0 0 1-.875-.943 4.5 4.5 0 0 1-.533-1.272 5.7 5.7 0 0 1-.178-1.394q0-.725.178-1.49.178-.78.547-1.409.369-.642.943-1.038.575-.41 1.367-.41.766 0 1.299.423.547.41.875 1.04.329.614.465 1.353.137.738.096 1.394-.041.725-.233 1.463a4.6 4.6 0 0 1-.533 1.326q-.356.588-.902.957-.547.37-1.299.37m.137-6.18q-.205 0-.37.22-.15.218-.259.533a5 5 0 0 0-.151.67 4 4 0 0 0-.054.601q0 .329.054.711.069.383.178.711.11.314.26.533.164.205.369.205.219 0 .369-.205.164-.204.26-.52.096-.314.137-.683.04-.383.041-.71 0-.301-.055-.657a4 4 0 0 0-.164-.684 1.6 1.6 0 0 0-.26-.52q-.15-.204-.355-.204m9.419-3.212q0 .998-.082 1.982a29 29 0 0 0-.068 1.983q0 .806.041 1.6.055.792.055 1.599 0 .218-.014.533-.013.3-.096.588a1.1 1.1 0 0 1-.246.492q-.164.205-.478.205a.89.89 0 0 1-.684-.3 1.5 1.5 0 0 1-.328-.698 2.34 2.34 0 0 1-.752.834 1.83 1.83 0 0 1-1.066.342q-.615 0-1.067-.424a3.8 3.8 0 0 1-.738-1.025 6 6 0 0 1-.437-1.258 5.6 5.6 0 0 1-.137-1.135 8.6 8.6 0 0 1 .178-1.668q.109-.45.273-.875a3.3 3.3 0 0 1 .41-.779 2.1 2.1 0 0 1 .602-.547q.356-.205.806-.205.492 0 .944.287t.683.711l.123-2.174q.014-.26.041-.601a4 4 0 0 1 .11-.67q.095-.315.287-.533.19-.22.56-.22.397 0 .616.192t.314.492q.11.287.123.63.027.34.027.642m-2.228 6.07q0-.315-.014-.615a7 7 0 0 1 0-.615 7 7 0 0 0-.191-.383 1.7 1.7 0 0 0-.274-.397 1.4 1.4 0 0 0-.341-.314.75.75 0 0 0-.41-.123.54.54 0 0 0-.397.15q-.15.15-.219.37a2.2 2.2 0 0 0-.095.45q-.014.247-.014.425 0 .163.027.492.027.315.096.642.082.328.219.575.136.245.369.246a1 1 0 0 0 .355-.069q.178-.082.328-.191.165-.123.301-.26.15-.15.26-.273zm9.119-.984q0 .752-.15 1.49a4.2 4.2 0 0 1-.506 1.326 2.75 2.75 0 0 1-.957.93q-.588.355-1.477.355-.875 0-1.463-.341a2.8 2.8 0 0 1-.943-.93 4.2 4.2 0 0 1-.492-1.299 8 8 0 0 1-.137-1.477q0-.82.192-1.626.04-.22.15-.602.123-.396.301-.766.191-.383.424-.656.245-.273.533-.273a.62.62 0 0 1 .437.15q.165.15.26.383.096.219.123.478.027.247.027.452 0 .314-.054.615-.042.3-.096.601l-.109.82a8 8 0 0 0-.028 1.286q.028.246.11.478.082.233.232.397.15.15.424.15.356 0 .56-.191.219-.191.315-.479.109-.287.137-.615.027-.329.027-.602 0-.6-.082-1.175a43 43 0 0 1-.15-1.19 1.3 1.3 0 0 1 .246-.97.9.9 0 0 1 .3-.26.74.74 0 0 1 .397-.11q.3 0 .533.22.233.204.383.546.164.329.26.752.109.41.164.82.068.397.082.752.027.356.027.56m6.973 2.625a.62.62 0 0 1-.233.478q-.218.205-.574.37-.342.163-.793.273a10 10 0 0 1-.875.178 9 9 0 0 1-.806.095 6 6 0 0 1-.616.041q-.232 0-.656-.013a4.2 4.2 0 0 1-.82-.11 2.1 2.1 0 0 1-.711-.273.64.64 0 0 1-.301-.56q0-.274.191-.67.192-.397.493-.862.3-.465.67-.943.369-.492.724-.944.355-.45.67-.82.315-.383.492-.629a10 10 0 0 0-.492.123q-.287.069-.602.137-.314.069-.615.123a4 4 0 0 1-.492.041 1.5 1.5 0 0 1-.369-.055 2.2 2.2 0 0 1-.397-.177 1.5 1.5 0 0 1-.314-.26.53.53 0 0 1-.123-.342q0-.246.219-.451.219-.22.574-.383.355-.178.793-.3a8 8 0 0 1 .861-.22 7 7 0 0 1 1.422-.177q.26 0 .629.054.369.055.711.192.355.136.601.369.247.232.247.588 0 .11-.028.205a3 3 0 0 1-.041.191q-.027.096-.246.438-.206.328-.519.793a73 73 0 0 1-.67.984q-.356.52-.684.985a102 102 0 0 0-.902 1.298q.56-.15 1.135-.246.587-.11 1.162-.109.136 0 .355.014.219.013.424.082a.9.9 0 0 1 .355.177.36.36 0 0 1 .151.315m2.529-8.258a.56.56 0 0 1-.109.342q-.096.15-.26.273a1.6 1.6 0 0 1-.356.178 1.3 1.3 0 0 1-.355.055.85.85 0 0 1-.479-.137q-.204-.137-.205-.424 0-.205.096-.355a.9.9 0 0 1 .26-.26q.15-.11.342-.164.19-.055.369-.055.26 0 .478.123.219.123.219.424m.109 4.649v.41q0 .204-.013.396-.014.233-.014.629 0 .382-.027.834-.027.45-.096.916-.054.465-.191.848a1.8 1.8 0 0 1-.369.629.78.78 0 0 1-.561.246.51.51 0 0 1-.438-.205 1.9 1.9 0 0 1-.3-.561 4.6 4.6 0 0 1-.164-.78q-.055-.436-.082-.833a11 11 0 0 1-.028-.752v-1.121q0-.41.028-.875.027-.465.095-.944.083-.478.219-.875.15-.396.383-.642a.77.77 0 0 1 .588-.246q.37 0 .56.369.192.369.287.861.096.492.11.984.013.479.013.712m6.563 1.408q0 .123-.205.205a3 3 0 0 1-.506.123q-.315.054-.697.096a21 21 0 0 1-.711.04l-.615.028h-.944q-.424-.015-.888-.055a5 5 0 0 1-.807-.136q-.356-.11-.356-.301 0-.232.383-.37.397-.135.903-.19a10 10 0 0 1 1.011-.083q.507-.014.739-.014a7 7 0 0 1 .929.069q.301.027.616.082.314.054.56.123.26.068.424.164t.164.219m3.254-4.8q0 .74-.069 1.491-.054.738-.054 1.49 0 .971.054 1.942.069.97.069 1.955 0 .245-.027.56-.028.301-.137.56a1.05 1.05 0 0 1-.301.438q-.205.178-.547.178-.328 0-.574-.328a2.9 2.9 0 0 1-.397-.807q-.15-.505-.259-1.12-.096-.615-.151-1.19-.04-.588-.068-1.067-.014-.492-.014-.724 0-.26.014-.752.027-.492.096-1.067.067-.573.177-1.162a6.3 6.3 0 0 1 .315-1.08q.191-.492.451-.793.273-.314.643-.314.3 0 .451.205.164.191.232.478.069.275.082.588.014.3.014.52m6.849 6.358q0 .246-.027.643a3.7 3.7 0 0 1-.109.78q-.096.368-.301.642a.68.68 0 0 1-.574.273q-.505 0-.78-.328-.273-.328-.259-.82a3.4 3.4 0 0 1-.998.601 3 3 0 0 1-1.121.219q-.397 0-.752-.191a2.3 2.3 0 0 1-.629-.493 2.5 2.5 0 0 1-.438-.67 1.9 1.9 0 0 1-.164-.751q0-.656.397-1.149.41-.492.998-.834a5.7 5.7 0 0 1 1.244-.56 7.4 7.4 0 0 1 1.189-.274v-.123a.5.5 0 0 0 .014-.123q0-.423-.233-.683-.231-.26-.656-.26a1.3 1.3 0 0 0-.588.123q-.246.11-.464.26-.219.135-.438.26-.219.109-.492.109a.76.76 0 0 1-.52-.192.65.65 0 0 1-.205-.492q0-.45.26-.82.273-.369.67-.615.41-.26.875-.397.479-.15.875-.15.369 0 .738.095.37.082.697.274.328.178.588.451.274.26.438.615.246.506.396 1.08.151.56.233 1.162.082.588.109 1.19.027.588.027 1.148m-2.187-.437-.041-.93h-.055a.1.1 0 0 0-.054-.014q-.178 0-.452.096a2 2 0 0 0-.505.246q-.247.15-.424.342a.6.6 0 0 0-.164.397q0 .19.136.26a.7.7 0 0 0 .315.068q.3 0 .642-.15.342-.165.602-.315m4.99 1.709a.7.7 0 0 1-.082.328.75.75 0 0 1-.219.232 1 1 0 0 1-.287.15.9.9 0 0 1-.314.055q-.205 0-.451-.082a1.6 1.6 0 0 1-.438-.205 1.6 1.6 0 0 1-.328-.314.7.7 0 0 1-.137-.424q0-.369.315-.547a1.22 1.22 0 0 1 1.066-.123q.232.069.424.205a1 1 0 0 1 .328.315.7.7 0 0 1 .123.41"/><defs><filter id="a" width="290.707" height="102" x="-1" y="0" color-interpolation-filters="sRGB" filterUnits="userSpaceOnUse"><feFlood flood-opacity="0" result="BackgroundImageFix"/><feBlend in="SourceGraphic" in2="BackgroundImageFix" result="shape"/><feColorMatrix in="SourceAlpha" result="hardAlpha" values="0 0 0 0 0 0 0 0 0 0 0 0 0 0 0 0 0 0 127 0"/><feOffset dy="4"/><feGaussianBlur stdDeviation="2"/><feComposite in2="hardAlpha" k2="-1" k3="1" operator="arithmetic"/><feColorMatrix values="0 0 0 0 0 0 0 0 0 0 0 0 0 0 0 0 0 0 0.25 0"/><feBlend in2="shape" result="effect1_innerShadow_829_195"/></filter></defs></svg>