<svg xmlns="http://www.w3.org/2000/svg" width="234" height="131" fill="none" viewBox="0 0 234 131"><g filter="url(#a)"><path fill="#f4719c" fill-rule="evenodd" d="M33.27 68.054C10.806 61.076 1 50.776 1 39.63 1 25.914 20.777 12.364 53.494 5.665 69.364 2.415 88.008 1 109.43 1c65.587 0 126.072 13.994 123.49 38.63 0 12.223-11.194 23.463-33.993 30.174-9.643 2.838-21.269 4.775-35.184 5.811-9.439 13.333-26.047 23.3-51.324 38.096 17.536-15.94 28.775-26.644 31.685-37.253q-3.284.051-6.705.051c-46.488 2.188-81.647-1.47-104.129-8.455" clip-rule="evenodd"/></g><path fill="#f4719c" d="m33.27 68.054.297-.955zm20.224-62.39-.2-.979zM232.92 39.63l-.994-.104a1 1 0 0 0-.006.104zm-33.993 30.175-.282-.96zm-35.184 5.811-.075-.997a1 1 0 0 0-.742.42zm-51.324 38.096-.673-.74a1 1 0 0 0 1.178 1.603zm31.685-37.253.964.265a1 1 0 0 0-.98-1.264zm-6.705.051v-1l-.047.001zM0 39.63c0 11.86 10.432 22.378 32.974 29.38l.593-1.91C11.179 60.145 2 50.064 2 39.63zM53.294 4.685C36.857 8.051 23.602 13.149 14.429 19.18 5.293 25.187 0 32.266 0 39.63h2c0-6.353 4.596-12.907 13.528-18.779 8.894-5.847 21.886-10.873 38.167-14.207zM109.43 0C87.97 0 69.252 1.417 53.294 4.685l.401 1.96C69.475 3.412 88.046 2 109.43 2zm124.485 39.733c.696-6.646-2.897-12.444-9.376-17.331-6.473-4.883-15.976-8.984-27.526-12.287C173.897 3.503 142.279 0 109.43 0v2c32.738 0 64.156 3.494 87.033 10.038 11.448 3.274 20.681 7.291 26.872 11.96 6.186 4.667 9.185 9.856 8.591 15.527zm-34.705 31.03c22.89-6.738 34.71-18.196 34.71-31.134h-2c0 11.51-10.569 22.532-33.275 29.215zm-35.393 5.85c13.962-1.04 25.662-2.986 35.393-5.85l-.565-1.919c-9.556 2.813-21.109 4.741-34.977 5.774zm-.891-1.576c-9.285 13.117-25.666 22.974-51.013 37.811l1.011 1.726c25.208-14.756 42.044-24.833 51.635-38.381zm-49.835 39.414c8.762-7.964 15.994-14.659 21.4-20.698 5.401-6.035 9.061-11.502 10.577-17.03l-1.929-.53c-1.393 5.081-4.808 10.27-10.138 16.226-5.325 5.95-12.48 12.576-21.255 20.552zm24.308-36.942q3.429 0 6.72-.05l-.031-2q-3.275.05-6.689.05zm-104.425-8.5c22.639 7.033 57.929 10.689 104.472 8.499l-.094-1.998c-46.433 2.185-81.46-1.476-103.785-8.41z"/><path fill="#fff" d="M30.344 37.656q0 .563-.14 1.266-.142.687-.36 1.406-.204.72-.453 1.406-.235.672-.422 1.22-.125.343-.282.858-.14.5-.343 1.063-.188.563-.422 1.125a7 7 0 0 1-.516 1.016 3 3 0 0 1-.625.718 1.08 1.08 0 0 1-.718.282q-.33 0-.641-.297a4.2 4.2 0 0 1-.578-.75 12 12 0 0 1-.516-1.032q-.234-.578-.437-1.124a28 28 0 0 1-.328-1.016 94 94 0 0 1-.781-3.172 11.4 11.4 0 0 1-.282-2.5q0-.312.031-.64.031-.345.157-.626.124-.28.343-.453.235-.187.64-.187.345 0 .626.39.297.375.531.985t.422 1.36q.203.75.375 1.483l.328 1.36q.157.625.313 1 .093-.312.265-.906.188-.61.422-1.328.25-.72.531-1.47.297-.765.61-1.374.327-.625.672-1.016.343-.39.703-.39.266 0 .437.124a.8.8 0 0 1 .266.329q.093.202.125.437.047.234.047.453m3.047 10.797q-.798 0-1.391-.422a3.7 3.7 0 0 1-1-1.078 5.2 5.2 0 0 1-.61-1.453 6.6 6.6 0 0 1-.203-1.594q0-.828.204-1.703a5.6 5.6 0 0 1 .625-1.61q.42-.734 1.078-1.187.656-.468 1.562-.468.875 0 1.485.484.624.468 1 1.187.375.705.53 1.547.158.844.11 1.594a8.6 8.6 0 0 1-.265 1.672 5.3 5.3 0 0 1-.61 1.516q-.405.671-1.031 1.093t-1.484.422m.156-7.062q-.234 0-.422.25-.172.25-.297.609a5.5 5.5 0 0 0-.172.766q-.062.39-.062.687 0 .375.062.813.078.437.203.812.126.36.297.61.188.234.422.234.25 0 .422-.234.188-.236.297-.594.11-.36.156-.782.047-.437.047-.812 0-.345-.062-.75a4.3 4.3 0 0 0-.188-.781 1.8 1.8 0 0 0-.297-.594q-.172-.234-.406-.234m9.828.609q0 .079-.016.172a1 1 0 0 1-.047.156 1.5 1.5 0 0 1-.437.61 1.1 1.1 0 0 1-.703.234q-.609 0-.828-.61a.5.5 0 0 1-.032-.171q0-.11-.015-.22v-.452a.9.9 0 0 0-.11-.344q-.078-.125-.265-.125-.266 0-.516.344a3.8 3.8 0 0 0-.422.797 7 7 0 0 0-.28.937 3.7 3.7 0 0 0-.11.781q0 .236.031.578.031.33.125.641.094.312.25.547.172.219.438.219a.8.8 0 0 0 .484-.157q.234-.171.453-.39.203-.187.438-.39a.87.87 0 0 1 .562-.204q.39 0 .61.281a.97.97 0 0 1 .234.641q0 .532-.282 1a3.2 3.2 0 0 1-.703.797q-.42.328-.937.516a2.7 2.7 0 0 1-.984.203q-.844 0-1.438-.422a3.3 3.3 0 0 1-.937-1.063 5 5 0 0 1-.516-1.422 7.3 7.3 0 0 1-.156-1.453q0-.797.218-1.718.219-.939.672-1.735a4.3 4.3 0 0 1 1.157-1.328q.718-.531 1.703-.531.609 0 1.047.265.453.266.734.703.297.423.437.954a3.7 3.7 0 0 1 .157 1.047v.156a1 1 0 0 1-.016.156m7.422 3.219q0 .531-.344 1.047-.328.5-.844.906-.5.39-1.078.64-.578.235-1.062.235a2.76 2.76 0 0 1-1.485-.406 3.9 3.9 0 0 1-1.078-1.063 5.2 5.2 0 0 1-.672-1.406 5.6 5.6 0 0 1-.218-1.516q0-.78.218-1.672.219-.89.657-1.64.453-.75 1.125-1.25.687-.5 1.625-.5.53 0 1.015.187a2.45 2.45 0 0 1 1.422 1.282q.219.453.219 1.015 0 .735-.313 1.375a3.6 3.6 0 0 1-.828 1.11q-.516.468-1.187.765a4 4 0 0 1-1.375.313q.062.453.36.656.311.203.733.203.313 0 .61-.156t.578-.344q.282-.203.547-.36a1.15 1.15 0 0 1 .562-.156.87.87 0 0 1 .563.203q.25.204.25.532m-2.531-3.828a.94.94 0 0 0-.11-.422.36.36 0 0 0-.343-.219.9.9 0 0 0-.579.188 1.4 1.4 0 0 0-.39.453q-.157.266-.25.578a3 3 0 0 0-.094.578q.219-.047.516-.125a3 3 0 0 0 .578-.203 1.6 1.6 0 0 0 .468-.344.66.66 0 0 0 .204-.484m1.39-3.844q0 .125-.047.156-.046.031-.156.031-.188 0-.422-.093a4 4 0 0 1-.453-.235 11 11 0 0 1-.437-.297 6 6 0 0 1-.344-.28l-.375.296a5 5 0 0 1-.438.328 5 5 0 0 1-.468.25 1.2 1.2 0 0 1-.438.094.4.4 0 0 1-.156-.031q-.063-.031-.063-.157 0-.234.203-.593.204-.36.5-.688t.626-.562q.327-.235.578-.235t.578.235q.328.219.61.53.296.314.5.657.202.344.202.594m10.11 1.86q0 .452-.313.671a6 6 0 0 1-.672.422q-.375.188-.687.453-.297.266-.297.797 0 .282.125.484.14.203.328.375.203.157.438.328t.421.391q.204.219.328.531.141.313.141.766 0 .657-.344 1.297a4.3 4.3 0 0 1-.859 1.125 4.3 4.3 0 0 1-1.172.781q-.656.297-1.297.297-.266 0-.531-.047a1.5 1.5 0 0 1-.484-.14 1.04 1.04 0 0 1-.344-.297.9.9 0 0 1-.14-.516q0-.438.171-.672.172-.25.438-.39.265-.14.562-.22.312-.077.578-.187.266-.124.438-.312.171-.187.172-.532 0-.327-.266-.671-.25-.36-.562-.75a8 8 0 0 1-.579-.86 2.04 2.04 0 0 1-.25-1q0-.672.266-1.234a3.4 3.4 0 0 1 .734-1 3.5 3.5 0 0 1 1.063-.656 3.2 3.2 0 0 1 1.25-.25q.25 0 .484.047.25.046.438.171a.8.8 0 0 1 .297.313.86.86 0 0 1 .125.484m7.265 6.39q0 .28-.031.734a4.3 4.3 0 0 1-.125.89 2.1 2.1 0 0 1-.344.735q-.234.313-.656.313-.578 0-.89-.375-.314-.375-.297-.938-.5.438-1.141.688-.625.25-1.281.25-.453 0-.86-.219a2.7 2.7 0 0 1-.718-.562 2.9 2.9 0 0 1-.5-.766 2.2 2.2 0 0 1-.188-.86q0-.75.453-1.312a4.3 4.3 0 0 1 1.14-.953q.673-.406 1.423-.64.765-.235 1.359-.313v-.14a.6.6 0 0 0 .016-.142q0-.484-.266-.78-.266-.298-.75-.298-.39 0-.672.141a3.3 3.3 0 0 0-.531.297q-.25.156-.5.297a1.24 1.24 0 0 1-.563.125.87.87 0 0 1-.593-.219.74.74 0 0 1-.235-.562q0-.516.297-.938.312-.422.766-.703a4 4 0 0 1 1-.453 3.4 3.4 0 0 1 1-.172q.421 0 .843.11.422.093.797.312.375.203.672.515.313.297.5.703.282.579.453 1.235.173.64.266 1.328.094.672.125 1.36.03.671.031 1.312m-2.5-.5-.047-1.063h-.062a.14.14 0 0 0-.063-.015q-.203 0-.515.11-.297.093-.578.28a2.3 2.3 0 0 0-.485.391.7.7 0 0 0-.187.453q0 .219.156.297a.8.8 0 0 0 .36.078q.343 0 .734-.172.39-.187.687-.36m10.828-2.453q0 .453-.078 1.031-.062.562-.219 1.156a6.6 6.6 0 0 1-.39 1.157 4.3 4.3 0 0 1-.594 1.015q-.344.438-.812.703a2.06 2.06 0 0 1-1.063.266q-.64 0-1.172-.297a2.9 2.9 0 0 1-.89-.812 1.3 1.3 0 0 1-.344.75 1 1 0 0 1-.75.312q-.266 0-.453-.266a2.4 2.4 0 0 1-.281-.672 7 7 0 0 1-.172-.921 16 16 0 0 1-.063-.97q-.016-.468-.016-.843V42.86l.032-1.078q0-.265-.016-.797 0-.53.016-1.172.015-.656.062-1.328.063-.687.203-1.25t.391-.922q.25-.36.64-.374.313 0 .532.218.219.22.36.578.154.36.234.813.093.438.125.89.046.438.046.844.016.39.016.64 0 .048-.016.22v.843q.141-.297.407-.578t.594-.5q.327-.218.687-.36.36-.14.688-.14.656 0 1.093.344.453.328.719.844.266.515.375 1.125.11.593.11 1.125m-2.296.468q0-.187-.032-.406a1.1 1.1 0 0 0-.11-.406.8.8 0 0 0-.234-.312.54.54 0 0 0-.374-.126q-.25 0-.5.11a2.3 2.3 0 0 0-.454.281q-.217.172-.406.375-.187.187-.328.375l-.156 1.39q.25.36.61.579.359.203.812.203.343 0 .562-.219.234-.219.36-.531.14-.329.187-.687.063-.36.063-.626m9.796 1.907q0 .531-.343 1.047-.329.5-.844.906-.5.39-1.078.64-.579.235-1.063.235a2.76 2.76 0 0 1-1.484-.406 3.9 3.9 0 0 1-1.078-1.063 5.2 5.2 0 0 1-.672-1.406 5.6 5.6 0 0 1-.219-1.516q0-.78.219-1.672.22-.89.656-1.64.453-.75 1.125-1.25.688-.5 1.625-.5.531 0 1.016.187a2.45 2.45 0 0 1 1.422 1.282q.218.453.218 1.015 0 .735-.312 1.375a3.6 3.6 0 0 1-.828 1.11q-.516.468-1.188.765a4 4 0 0 1-1.375.313q.063.453.36.656.312.203.734.203.313 0 .61-.156.296-.156.578-.344.281-.203.546-.36a1.15 1.15 0 0 1 .563-.156.87.87 0 0 1 .562.203q.25.204.25.532m-2.53-3.828a.94.94 0 0 0-.11-.422.36.36 0 0 0-.344-.219.9.9 0 0 0-.578.188 1.4 1.4 0 0 0-.39.453q-.157.266-.25.578a3 3 0 0 0-.094.578q.218-.047.515-.125.313-.078.578-.203.282-.141.469-.344a.66.66 0 0 0 .203-.484m9.89 7.062q-.797 0-1.39-.422a3.7 3.7 0 0 1-1-1.078 5.2 5.2 0 0 1-.61-1.453 6.6 6.6 0 0 1-.203-1.594q0-.828.203-1.703.203-.89.625-1.61.421-.734 1.078-1.187.656-.468 1.562-.468.876 0 1.485.484.625.468 1 1.187.375.705.531 1.547.156.844.11 1.594a8.6 8.6 0 0 1-.266 1.672 5.3 5.3 0 0 1-.61 1.516q-.406.671-1.03 1.093-.626.422-1.485.422m.156-7.062q-.234 0-.422.25-.172.25-.297.609-.11.36-.172.766-.062.39-.062.687 0 .375.062.813.079.437.204.812.125.36.296.61.188.234.422.234.25 0 .422-.234.188-.236.297-.594.11-.36.156-.782.047-.437.047-.812 0-.345-.062-.75a4.3 4.3 0 0 0-.188-.781 1.8 1.8 0 0 0-.297-.594q-.172-.234-.406-.234m15.063-.657-.25 2.266q-.126 1.125-.172 2.25a34 34 0 0 0-.063 2.453q.016 1.157.016 2.453 0 .313-.016.766 0 .453-.109.875-.11.421-.36.719-.234.297-.718.297a.62.62 0 0 1-.407-.141 1.4 1.4 0 0 1-.281-.375 3 3 0 0 1-.187-.5 9 9 0 0 1-.11-.578 12 12 0 0 1-.093-1.219v-2.969a2.3 2.3 0 0 1-.938.719q-.562.234-1.125.234-.703 0-1.219-.328a3 3 0 0 1-.828-.86 4 4 0 0 1-.484-1.155 5 5 0 0 1-.156-1.22v-.093q0-.813.25-1.75a6.8 6.8 0 0 1 .734-1.766q.5-.812 1.234-1.343.75-.547 1.735-.547.531 0 .968.219.453.218.641.718.125-.36.375-.578a.98.98 0 0 1 .672-.234q.516 0 .719.344a1.3 1.3 0 0 1 .218.734q0 .172-.015.313-.016.14-.031.296m-3.594.375q-.36 0-.672.297a2.7 2.7 0 0 0-.547.703q-.234.407-.375.875a3.3 3.3 0 0 0-.125.828q0 .22.031.47.047.249.125.484.094.218.235.375a.56.56 0 0 0 .39.14q.204 0 .469-.093.281-.11.547-.266.265-.172.469-.375t.281-.39q.047-.11.078-.329t.047-.453q.031-.25.047-.484.015-.235.015-.36 0-.187-.093-.422a2 2 0 0 0-.219-.468 1.3 1.3 0 0 0-.328-.375.6.6 0 0 0-.375-.157m11.187 2.422q0 .859-.172 1.703a4.7 4.7 0 0 1-.578 1.516 3.15 3.15 0 0 1-1.093 1.063q-.672.405-1.688.406-1 0-1.672-.39a3.2 3.2 0 0 1-1.078-1.063 4.8 4.8 0 0 1-.562-1.485 9 9 0 0 1-.157-1.687q0-.937.219-1.86.047-.249.172-.687.14-.453.344-.875a3.7 3.7 0 0 1 .484-.75q.282-.312.609-.313.313 0 .5.172.188.172.297.438.11.25.141.547.031.28.031.515 0 .36-.062.703-.047.345-.11.688l-.125.937a9.5 9.5 0 0 0-.031 1.47q.031.28.125.546t.266.453q.171.172.484.172.406 0 .641-.219.25-.219.359-.547.125-.328.156-.703t.031-.687q0-.688-.093-1.344a51 51 0 0 1-.172-1.36 1.5 1.5 0 0 1 .062-.687q.078-.234.219-.422.14-.187.344-.297a.84.84 0 0 1 .453-.125q.344 0 .609.25.265.235.438.625.188.375.297.86.125.468.187.937.079.453.094.86.031.406.031.64m7.5 1.688q0 .531-.343 1.047-.328.5-.844.906-.5.39-1.078.64-.579.235-1.063.235a2.76 2.76 0 0 1-1.484-.406 3.9 3.9 0 0 1-1.078-1.063 5.1 5.1 0 0 1-.672-1.406 5.6 5.6 0 0 1-.219-1.516q0-.78.219-1.672.219-.89.656-1.64.453-.75 1.125-1.25.687-.5 1.625-.5.531 0 1.016.187.484.173.843.5.36.329.578.782.219.453.219 1.015 0 .735-.312 1.375a3.7 3.7 0 0 1-.828 1.11 4.4 4.4 0 0 1-1.188.765 4 4 0 0 1-1.375.313q.063.453.36.656.312.203.734.203.312 0 .609-.156a6 6 0 0 0 .578-.344q.282-.203.547-.36.282-.156.563-.156.312 0 .562.203a.65.65 0 0 1 .25.532M118 41.39a.94.94 0 0 0-.109-.422.36.36 0 0 0-.344-.219.9.9 0 0 0-.578.188 1.4 1.4 0 0 0-.391.453q-.156.266-.25.578a3 3 0 0 0-.094.578q.219-.047.516-.125.312-.078.578-.203.282-.141.469-.344a.66.66 0 0 0 .203-.484m13.469 3.828q0 .531-.344 1.047-.328.5-.844.906a5 5 0 0 1-1.078.64q-.577.235-1.062.235a2.77 2.77 0 0 1-1.485-.406 3.9 3.9 0 0 1-1.078-1.063 5.1 5.1 0 0 1-.672-1.406 5.6 5.6 0 0 1-.218-1.516q0-.78.218-1.672.22-.89.656-1.64.454-.75 1.126-1.25.688-.5 1.624-.5.532 0 1.016.187a2.46 2.46 0 0 1 1.422 1.282q.219.453.219 1.015 0 .735-.313 1.375a3.6 3.6 0 0 1-.828 1.11 4.4 4.4 0 0 1-1.187.765 4 4 0 0 1-1.375.313q.062.453.359.656.312.203.734.203.313 0 .61-.156.296-.156.578-.344.281-.203.547-.36.281-.156.562-.156a.87.87 0 0 1 .563.203q.25.204.25.532m-2.531-3.828a.94.94 0 0 0-.11-.422.36.36 0 0 0-.344-.219.9.9 0 0 0-.578.188 1.4 1.4 0 0 0-.39.453q-.157.266-.25.578a3 3 0 0 0-.094.578q.219-.047.516-.125.312-.078.578-.203.28-.141.468-.344a.66.66 0 0 0 .204-.484m.874-5.547q0 .171-.093.343a1.6 1.6 0 0 1-.235.297 2.3 2.3 0 0 1-.281.266q-.156.109-.281.203a8 8 0 0 0-.25.188 3 3 0 0 1-.281.187 3 3 0 0 1-.297.14.7.7 0 0 1-.282.063.4.4 0 0 1-.218-.062.27.27 0 0 1-.094-.219q0-.234.172-.562.188-.344.453-.657.266-.327.563-.547.296-.234.546-.234a.52.52 0 0 1 .391.188q.187.171.187.406m9.016 12.61q-.797 0-1.39-.423a3.7 3.7 0 0 1-1-1.078 5.2 5.2 0 0 1-.61-1.453 6.6 6.6 0 0 1-.203-1.594q0-.828.203-1.703.204-.89.625-1.61.422-.734 1.078-1.187.657-.468 1.563-.468.875 0 1.484.484.625.468 1 1.187.375.705.531 1.547.157.844.11 1.594a8.6 8.6 0 0 1-.266 1.672 5.3 5.3 0 0 1-.609 1.516 3.5 3.5 0 0 1-1.032 1.093q-.624.422-1.484.422m.156-7.063q-.233 0-.422.25-.171.25-.296.609-.11.36-.172.766-.063.39-.063.687 0 .375.063.813.078.437.203.812.124.36.297.61.187.234.422.234.25 0 .422-.234.186-.236.296-.594.11-.36.157-.782a8 8 0 0 0 .047-.812q0-.345-.063-.75a4.3 4.3 0 0 0-.187-.781 1.8 1.8 0 0 0-.297-.594q-.172-.234-.407-.234m14.954 1.953q0 .687-.157 1.515a5.3 5.3 0 0 1-.5 1.516q-.343.704-.922 1.172-.563.468-1.421.469-.219 0-.454-.032a2.2 2.2 0 0 1-.453-.109 1.7 1.7 0 0 1-.375-.203.9.9 0 0 1-.265-.36l-.141 2.25q-.015.36-.031.86 0 .499-.125.953a1.7 1.7 0 0 1-.391.766q-.265.328-.781.328-.297 0-.5-.313a2.5 2.5 0 0 1-.328-.765 9 9 0 0 1-.172-1.047 14 14 0 0 1-.078-1.11 31 31 0 0 1-.016-.968v-.641q0-1.047-.016-2.078-.015-1.047-.015-2.094v-.578q0-.405.031-.875.031-.468.094-.969.078-.5.219-.906a1.9 1.9 0 0 1 .359-.672.67.67 0 0 1 .531-.266q.203 0 .36.126a.86.86 0 0 1 .281.296q.125.173.203.375.078.203.125.375a3.3 3.3 0 0 1 1.109-.828 3.35 3.35 0 0 1 1.36-.281q.75 0 1.219.422.483.422.75 1.047.28.624.39 1.343.11.704.11 1.282m-2.235-.125a2.3 2.3 0 0 0-.047-.469 1.3 1.3 0 0 0-.14-.453.77.77 0 0 0-.282-.344.76.76 0 0 0-.468-.14q-.375 0-.797.25a1.75 1.75 0 0 0-.61.546q-.078.126-.093.407a8 8 0 0 0-.016.422v.296l.031.36.031.36a1 1 0 0 0 .079.265.6.6 0 0 0 .203.265q.156.11.344.203.187.095.374.141.204.047.344.047a.65.65 0 0 0 .532-.25 1.8 1.8 0 0 0 .312-.594q.125-.343.156-.703.048-.375.047-.61m9.828 2.578q0 .28-.031.734-.015.454-.125.89a2.1 2.1 0 0 1-.344.735q-.234.313-.656.313-.577 0-.891-.375-.312-.375-.296-.938-.5.438-1.141.688-.625.25-1.281.25a1.8 1.8 0 0 1-.86-.219 2.8 2.8 0 0 1-1.218-1.328 2.2 2.2 0 0 1-.188-.86q0-.75.453-1.312a4.3 4.3 0 0 1 1.141-.953q.672-.406 1.422-.64.765-.235 1.359-.313v-.14a.6.6 0 0 0 .016-.142q0-.484-.266-.78-.265-.298-.75-.298-.39 0-.672.141a3.3 3.3 0 0 0-.531.297q-.25.156-.5.297a1.24 1.24 0 0 1-.563.125.87.87 0 0 1-.593-.219.73.73 0 0 1-.235-.562q0-.516.297-.938.312-.422.766-.703a4 4 0 0 1 1-.453 3.4 3.4 0 0 1 1-.172q.421 0 .844.11.421.093.796.312.375.203.672.515.313.297.5.703.282.579.453 1.235.172.64.266 1.328.094.672.125 1.36.031.671.031 1.312m-2.5-.5-.047-1.063h-.062a.14.14 0 0 0-.063-.015q-.203 0-.515.11a2.3 2.3 0 0 0-.578.28 2.3 2.3 0 0 0-.485.391.7.7 0 0 0-.187.453q0 .219.156.297a.8.8 0 0 0 .359.078q.344 0 .735-.172.39-.187.687-.36m.953-7.594q0 .125-.046.156a.3.3 0 0 1-.157.032q-.187 0-.422-.094a4 4 0 0 1-.453-.234 11 11 0 0 1-.437-.297 6 6 0 0 1-.344-.282q-.156.126-.375.297a5 5 0 0 1-.438.328 5 5 0 0 1-.468.25 1.2 1.2 0 0 1-.438.094.4.4 0 0 1-.156-.031q-.062-.032-.062-.156 0-.235.203-.594a3.8 3.8 0 0 1 .5-.688 4 4 0 0 1 .625-.562q.327-.234.578-.234t.578.234q.328.219.609.531.297.312.5.656t.203.594m6.922 10.734q-.265 0-.422-.25a1.7 1.7 0 0 1-.234-.546 4 4 0 0 1-.109-.625 11 11 0 0 1-.016-.5q0-.469.047-.938l.125-.937q.078-.469.125-.938a7 7 0 0 0 .062-.937q0-.187-.015-.407a1.7 1.7 0 0 0-.078-.406.67.67 0 0 0-.172-.328.45.45 0 0 0-.328-.125q-.14 0-.313.234a3.4 3.4 0 0 0-.328.516q-.14.282-.25.578a1.5 1.5 0 0 0-.094.422v.703q.016.345.016.703v.907q-.016.28-.047.578t-.094.578q-.047.281-.14.547a1.8 1.8 0 0 1-.25.453q-.141.188-.344.312a.9.9 0 0 1-.485.125.7.7 0 0 1-.515-.203 1.5 1.5 0 0 1-.328-.516 3.6 3.6 0 0 1-.188-.718q-.046-.407-.078-.782-.015-.39-.015-.703.015-.327.015-.515v-.735q0-.593-.031-1.172-.016-.577-.016-1.156v-.797q.016-.484.125-.937.11-.469.36-.797t.734-.328q.219 0 .391.14.171.141.296.344.141.204.219.438.095.234.141.406.156-.219.359-.422.22-.203.485-.36a2.54 2.54 0 0 1 1.343-.343q.798 0 1.235.39.453.375.656.954.219.563.266 1.218.046.657.046 1.188 0 .266-.046.797-.048.516-.157 1.156-.094.626-.265 1.297-.172.657-.406 1.203a3 3 0 0 1-.563.89q-.312.344-.719.344M175.734 42q0 .079-.015.172a1 1 0 0 1-.047.156q-.141.36-.438.61a1.1 1.1 0 0 1-.703.234q-.609 0-.828-.61a.5.5 0 0 1-.031-.171q0-.11-.016-.22v-.452a.9.9 0 0 0-.109-.344q-.078-.125-.266-.125-.266 0-.515.344a3.8 3.8 0 0 0-.422.797 7 7 0 0 0-.282.937 3.8 3.8 0 0 0-.109.781q0 .236.031.578.032.33.125.641.094.312.25.547a.54.54 0 0 0 .438.219.8.8 0 0 0 .484-.157q.236-.171.453-.39.204-.187.438-.39a.87.87 0 0 1 .562-.204q.391 0 .61.281a.97.97 0 0 1 .234.641q0 .532-.281 1a3.2 3.2 0 0 1-.703.797q-.423.328-.938.516a2.7 2.7 0 0 1-.984.203q-.844 0-1.438-.422a3.3 3.3 0 0 1-.937-1.063 5 5 0 0 1-.516-1.422 7.3 7.3 0 0 1-.156-1.453q0-.797.219-1.718.219-.939.672-1.735a4.3 4.3 0 0 1 1.156-1.328q.719-.531 1.703-.531.609 0 1.047.265.453.266.734.703.297.423.438.954.156.531.156 1.047v.156a1 1 0 0 1-.016.156m6.297.156q-.219.015-.375-.031l-.312-.125a3 3 0 0 0-.282-.11.6.6 0 0 0-.312-.046q-.312.015-.562.172a2.2 2.2 0 0 0-.438.39 2.7 2.7 0 0 0-.328.532 3 3 0 0 0-.219.562 4 4 0 0 0-.078.578q-.016.375-.016.813-.015.453-.015.859t-.032.64q-.015.25-.078.594a2.5 2.5 0 0 1-.203.625 1.4 1.4 0 0 1-.343.5.8.8 0 0 1-.563.203.75.75 0 0 1-.469-.156 1.4 1.4 0 0 1-.328-.406 4 4 0 0 1-.219-.61 8 8 0 0 1-.125-.703q-.047-.375-.078-.75-.015-.375-.031-.703v-.625q.016-.28.016-.453-.016-.546-.063-1.093a20 20 0 0 1-.031-1.11q0-.343.031-.766.031-.42.172-.78a1.6 1.6 0 0 1 .406-.626q.282-.25.766-.25.266 0 .453.172.188.172.297.422.125.25.187.531.063.282.079.516.375-.609.843-.984.47-.391 1.219-.422.375-.016.734.078.375.078.672.281.313.188.5.5.204.312.219.734.031.5-.297.766-.328.265-.797.281m7.875 3.063q0 .531-.344 1.047-.328.5-.843.906-.5.39-1.078.64-.579.235-1.063.235a2.76 2.76 0 0 1-1.484-.406 3.9 3.9 0 0 1-1.078-1.063 5.1 5.1 0 0 1-.672-1.406 5.6 5.6 0 0 1-.219-1.516q0-.78.219-1.672.219-.89.656-1.64.453-.75 1.125-1.25.687-.5 1.625-.5.531 0 1.016.187.485.173.843.5.36.329.579.782t.218 1.015q0 .735-.312 1.375a3.7 3.7 0 0 1-.828 1.11 4.4 4.4 0 0 1-1.188.765 4 4 0 0 1-1.375.313q.063.453.359.656.314.203.735.203.312 0 .609-.156a6 6 0 0 0 .578-.344q.282-.203.547-.36.281-.156.563-.156.312 0 .562.203a.65.65 0 0 1 .25.532m-2.531-3.828a.94.94 0 0 0-.109-.422.36.36 0 0 0-.344-.219.9.9 0 0 0-.578.188 1.4 1.4 0 0 0-.391.453q-.156.266-.25.578a3 3 0 0 0-.094.578q.219-.047.516-.125.312-.078.578-.203.282-.141.469-.344a.66.66 0 0 0 .203-.484m9.797 4.406q0 .28-.031.734a4.3 4.3 0 0 1-.125.89 2.1 2.1 0 0 1-.344.735q-.234.313-.656.313-.579 0-.891-.375t-.297-.938q-.5.438-1.14.688-.625.25-1.282.25-.453 0-.859-.219a2.7 2.7 0 0 1-.719-.562 2.9 2.9 0 0 1-.5-.766 2.2 2.2 0 0 1-.187-.86q0-.75.453-1.312a4.2 4.2 0 0 1 1.14-.953q.672-.406 1.422-.64a8.5 8.5 0 0 1 1.36-.313v-.14a.6.6 0 0 0 .015-.142q0-.484-.265-.78-.265-.298-.75-.298-.391 0-.672.141a3.3 3.3 0 0 0-.532.297q-.25.156-.5.297a1.24 1.24 0 0 1-.562.125.87.87 0 0 1-.594-.219.74.74 0 0 1-.234-.562q0-.516.297-.938.312-.422.765-.703a4 4 0 0 1 1-.453 3.4 3.4 0 0 1 1-.172q.423 0 .844.11.422.093.797.312.375.203.672.515.312.297.5.703.28.579.453 1.235.172.64.266 1.328.093.672.125 1.36.03.671.031 1.312m-2.5-.5-.047-1.063h-.063a.13.13 0 0 0-.062-.015q-.202 0-.516.11-.297.093-.578.28a2.3 2.3 0 0 0-.484.391.7.7 0 0 0-.188.453q0 .219.157.297a.8.8 0 0 0 .359.078q.344 0 .734-.172.391-.187.688-.36m8.016-5.89q0 .452-.313.671a6 6 0 0 1-.672.422q-.375.188-.687.453-.297.266-.297.797a.9.9 0 0 0 .125.484q.14.203.328.375.203.157.437.328.235.172.422.391.204.219.328.531.141.313.141.766 0 .657-.344 1.297a4.28 4.28 0 0 1-2.031 1.906q-.656.297-1.297.297-.266 0-.531-.047a1.5 1.5 0 0 1-.485-.14 1 1 0 0 1-.343-.297.9.9 0 0 1-.141-.516q0-.438.172-.672a1.2 1.2 0 0 1 .438-.39q.265-.14.562-.22.312-.077.578-.187a1.4 1.4 0 0 0 .438-.312q.172-.187.172-.532 0-.327-.266-.671a14 14 0 0 0-.563-.75 8 8 0 0 1-.578-.86 2.04 2.04 0 0 1-.25-1q0-.672.266-1.234.28-.579.734-1 .47-.422 1.063-.656.594-.25 1.25-.25.25 0 .484.047.25.046.438.171a.77.77 0 0 1 .296.313.85.85 0 0 1 .126.484m7.64.187q0 .5-.266.937-.25.422-.64.797-.375.36-.844.64a6 6 0 0 1-.844.423 12.4 12.4 0 0 1 .078 2.14q0 .328-.093.625a1.1 1.1 0 0 1-.281.485q-.189.203-.547.203-.625 0-.844-.625a3.3 3.3 0 0 1-.125-.625q-.047-.407-.078-.828a22 22 0 0 1-.016-.844v-.672q0-.219.016-.516a1.1 1.1 0 0 1 .156-.484q.14-.203.469-.39.328-.204.672-.422.359-.22.625-.485a.86.86 0 0 0 .265-.625.95.95 0 0 0-.125-.484 1.1 1.1 0 0 0-.328-.36 1.3 1.3 0 0 0-.437-.234 1.3 1.3 0 0 0-.485-.094q-.594 0-.937.203a3 3 0 0 0-.594.422l-.453.422a.75.75 0 0 1-.531.188q-.375 0-.688-.266a.83.83 0 0 1-.297-.64q0-.61.36-1.032.359-.437.89-.687a4.2 4.2 0 0 1 1.125-.375 5.2 5.2 0 0 1 1.063-.125q.625 0 1.281.28.672.267 1.203.72.548.453.891 1.062.359.609.359 1.266m-2.312 7.593a.73.73 0 0 1-.141.454q-.125.188-.328.312a1.4 1.4 0 0 1-.438.188 1.8 1.8 0 0 1-.453.062q-.358 0-.672-.172-.297-.171-.296-.562 0-.25.124-.438.141-.203.344-.343.204-.141.438-.204.25-.078.468-.078.36 0 .657.188t.297.593"/><defs><filter id="a" width="234" height="118.711" x="0" y="0" color-interpolation-filters="sRGB" filterUnits="userSpaceOnUse"><feFlood flood-opacity="0" result="BackgroundImageFix"/><feBlend in="SourceGraphic" in2="BackgroundImageFix" result="shape"/><feColorMatrix in="SourceAlpha" result="hardAlpha" values="0 0 0 0 0 0 0 0 0 0 0 0 0 0 0 0 0 0 127 0"/><feOffset dy="4"/><feGaussianBlur stdDeviation="2"/><feComposite in2="hardAlpha" k2="-1" k3="1" operator="arithmetic"/><feColorMatrix values="0 0 0 0 0 0 0 0 0 0 0 0 0 0 0 0 0 0 0.25 0"/><feBlend in2="shape" result="effect1_innerShadow_694_198"/></filter></defs></svg>