<svg xmlns="http://www.w3.org/2000/svg" width="304" height="638" fill="none" viewBox="0 0 304 638"><path stroke="#8ef2ff" stroke-width="39" d="M-128.886 523.954S-90.304 577.202-57 597.818c43.914 27.183 78.634 25.55 120.32 23.423s78.034-21.669 130.582-5.124c47.619 14.993 80.703 38.98 113.086 73.577"/><path stroke="#8ef2ff" stroke-width="27" d="M-136.16 520.969s53.689 55.864 95.231 73.189c54.777 22.846 93.704 12.722 140.41.365 46.705-12.357 84.081-44.691 146.6-36.834 56.655 7.119 98.586 28.606 141.737 63.189"/><path stroke="#8ef2ff" stroke-linecap="round" stroke-width="37" d="M174.855 586.215c3.818 1.12 8.636 3.94 12.336 3.361 1.73-.27 3.374-.375 5.08-.795 7.185-1.768 14.103-3.951 22.049-3.503 7.312.412 14.093 2.157 21.398 4.713 6.737 2.356 12.99 4.218 19.66 4.353 6.963.141 13.333-1.535 20.537-.509 2.306.329 4.644.289 6.946.784 2.364.508 4.64 1.442 6.991 2.013 1.454.353 15.388 4.465 15.338 5.851-.098 2.766-4.06 5.164-5.992 6.089-3.817 1.826-8.127 2.807-12.436 3.541-9.104 1.549-17.562 3.668-27.65-.339-6.722-2.671-13.433-6.451-19.771-10.421-5.775-3.618-11.11-7.591-17.308-9.963-2.367-.905-5.566-2.523-7.971-2.649-1.263-.066-2.425-.252-1.066 1.161 4.896 5.091 12.532 8.906 18.499 11.836 4.387 2.153 8.775 4.066 13.255 5.658 4.242 1.507 8.665 2.29 12.769 4.56 4.714 2.608 8.651 6.293 13.058 9.503 2.576 1.876 5.669 3.59 8.014 5.808 1.187 1.123 1.974.288 3.187-.194 1.896-.754 3.761-1.508 5.714-2.092"/><path stroke="#8ef2ff" stroke-linecap="round" stroke-width="37" d="M163.59 599.931c3.819 1.12 8.637 3.939 12.336 3.36 1.731-.27 3.374-.375 5.08-.794 7.185-1.769 14.103-3.952 22.049-3.504 7.313.412 14.093 2.157 21.399 4.713 6.736 2.357 12.989 4.219 19.66 4.353 6.962.141 13.332-1.535 20.536-.508 2.306.328 4.645.289 6.947.783 2.364.508 4.639 1.443 6.991 2.014 1.453.353 15.387 4.465 15.338 5.85-.099 2.766-4.06 5.165-5.993 6.089-3.816 1.826-8.127 2.808-12.435 3.541-9.104 1.55-17.563 3.668-27.651-.339-6.722-2.67-13.432-6.451-19.77-10.421-5.776-3.618-11.111-7.591-17.309-9.962-2.367-.906-5.566-2.524-7.97-2.65-1.263-.066-2.426-.252-1.067 1.161 4.896 5.091 12.533 8.907 18.5 11.836 4.386 2.153 8.775 4.066 13.255 5.658 4.241 1.507 8.665 2.29 12.769 4.56 4.714 2.609 8.651 6.294 13.057 9.503 2.576 1.876 5.669 3.59 8.014 5.809 1.187 1.123 1.975.287 3.188-.195 1.896-.753 3.76-1.508 5.714-2.091m15.778 2.04c.678-.842 1.427-1.611 2.116-2.418.329-.385.462-.87.835-1.225.496-.472.897-.998 1.43-1.435 1.289-1.055 2.764-1.79 4.29-2.499.639-.297 1.27-.788 1.954-.985.536-.154 1.081-.816 1.642-.811"/><path stroke="#8ef2ff" stroke-linecap="round" stroke-width="37" d="M298.536 637.043c-1.013-14.62 5.398-20.041 12.162-25.582l13.974-11.448M184.36 585.006c21.817-21.347 45.683-18.55 70.571-15.358l51.413 6.594"/><path stroke="#8ef2ff" stroke-linecap="round" stroke-width="37" d="M130.074 602.496c27.433-24.4 57.214-20.886 88.267-16.904l64.148 8.227"/><path stroke="#8ef2ff" d="M-130.517 538.011s41.316 51.239 75.373 69.806c44.908 24.481 78.947 20.424 119.805 15.385 40.857-5.039 75.363-27.341 128.087-14.228 47.779 11.883 81.833 33.878 115.871 66.664"/><path stroke="#00d287" stroke-width="39" d="M-39.426 557.973s35.94 49.468 66.712 68.802c40.576 25.493 72.428 24.331 110.668 22.783s71.41-19.202 119.805-3.43c43.857 14.293 74.46 36.732 104.526 68.946"/><path stroke="#00d287" stroke-width="27" d="M-46.132 555.15S3.7 607.178 42.001 623.561c50.503 21.601 86.133 12.654 128.88 1.726s76.732-40.365 134.193-32.504c52.072 7.125 90.772 27.347 130.72 59.654"/><path stroke="#00d287" stroke-linecap="round" stroke-width="37" d="M239.981 618.375c3.516 1.07 7.966 3.717 11.356 3.22 1.585-.232 3.093-.312 4.655-.682 6.577-1.559 12.905-3.503 20.203-3.012 6.716.453 12.957 2.128 19.687 4.557 6.207 2.239 11.965 4.017 18.088 4.207 6.392.199 12.223-1.283 18.845-.265 2.12.326 4.266.312 6.383.791 2.176.492 4.273 1.375 6.437 1.925 1.338.34 14.168 4.268 14.136 5.545-.063 2.549-3.675 4.721-5.44 5.554-3.485 1.645-7.431 2.508-11.379 3.141-8.34 1.338-16.083 3.207-25.382-.587-6.196-2.527-12.393-6.079-18.25-9.801-5.337-3.393-10.273-7.108-15.985-9.356-2.182-.858-5.134-2.381-7.342-2.521-1.16-.073-2.229-.256-.967 1.06 4.544 4.741 11.59 8.334 17.097 11.094 4.047 2.028 8.094 3.835 12.222 5.347 3.908 1.431 7.975 2.196 11.765 4.33 4.352 2.451 8.003 5.887 12.079 8.889 2.383 1.755 5.239 3.366 7.413 5.434 1.101 1.047 1.815.285 2.924-.148 1.733-.676 3.436-1.353 5.224-1.871"/><path stroke="#00d287" stroke-linecap="round" stroke-width="37" d="M229.778 630.907c3.516 1.07 7.966 3.717 11.356 3.22 1.585-.232 3.093-.312 4.654-.682 6.578-1.559 12.906-3.503 20.204-3.012 6.715.453 12.956 2.128 19.687 4.557 6.207 2.239 11.964 4.017 18.088 4.207 6.392.199 12.222-1.283 18.845-.265 2.12.326 4.265.312 6.383.791 2.175.492 4.273 1.375 6.437 1.925 1.338.34 14.168 4.268 14.136 5.545-.063 2.549-3.675 4.721-5.44 5.554-3.485 1.645-7.432 2.508-11.379 3.141-8.34 1.338-16.084 3.207-25.383-.587-6.196-2.527-12.392-6.079-18.249-9.801-5.337-3.393-10.273-7.108-15.986-9.356-2.181-.858-5.133-2.381-7.342-2.521-1.159-.073-2.228-.256-.967 1.06 4.544 4.741 11.591 8.334 17.097 11.094 4.048 2.028 8.095 3.835 12.223 5.347 3.908 1.431 7.975 2.196 11.764 4.33 4.353 2.451 8.003 5.887 12.08 8.889 2.383 1.755 5.239 3.366 7.413 5.434 1.101 1.047 1.815.285 2.924-.148 1.732-.676 3.436-1.353 5.224-1.871m-84.854-50.404c19.814-19.462 41.747-16.647 64.622-13.459l47.255 6.588"/><path stroke="#00d287" stroke-linecap="round" stroke-width="37" d="M199.039 632.939c24.939-22.221 52.308-18.687 80.849-14.708l58.961 8.219"/><path stroke="#00d287" d="M-40.784 570.915s38.43 47.643 69.873 65.095c41.46 23.013 72.664 19.61 110.116 15.369s68.902-24.457 117.425-11.847c43.971 11.427 75.446 32.04 107.013 62.6"/><path stroke="#7cf0ff" stroke-width="27" d="M370.935 74.638s-41.059-40.48-74.843-50.222c-44.546-12.847-78.252-.015-118.709 15.556S102.806 86.705 50.548 87.221C3.19 87.689-30.6 74.523-64.4 50.584"/><path stroke="#7cf0ff" stroke-linecap="round" stroke-width="37" d="M108.441 39.534c-3.214-.697-7.225-2.749-10.388-2.037-1.48.333-2.88.522-4.344.978-6.164 1.92-12.113 4.168-18.857 4.288-6.205.11-11.918-.925-18.053-2.602-5.657-1.547-10.918-2.712-16.586-2.41-5.916.314-11.384 2.106-17.479 1.697-1.951-.13-3.94.048-5.883-.222-1.995-.277-3.902-.915-5.884-1.245-1.225-.204-12.95-2.768-12.865-3.926.167-2.312 3.609-4.557 5.28-5.448 3.302-1.758 6.997-2.844 10.683-3.722 7.789-1.857 15.046-4.147 23.503-1.432 5.635 1.809 11.226 4.544 16.495 7.46 4.802 2.659 9.218 5.64 14.416 7.232 1.986.608 4.657 1.759 6.698 1.715 1.072-.023 2.054.06.942-1.034-4.009-3.94-10.387-6.648-15.372-8.72-3.665-1.523-7.339-2.845-11.1-3.895-3.56-.993-7.298-1.371-10.72-3.01-3.929-1.881-7.165-4.709-10.814-7.111-2.134-1.405-4.712-2.642-6.639-4.345-.975-.863-1.67-.118-2.716.36-1.636.745-3.244 1.49-4.923 2.097"/><path stroke="#7cf0ff" stroke-linecap="round" stroke-width="37" d="M118.436 27.402c-3.213-.697-7.224-2.749-10.388-2.037-1.479.333-2.88.522-4.344.978-6.163 1.92-12.112 4.168-18.856 4.287-6.206.11-11.919-.924-18.054-2.601-5.656-1.547-10.917-2.712-16.585-2.41-5.917.314-11.385 2.106-17.48 1.697-1.95-.13-3.94.047-5.883-.222-1.995-.277-3.901-.915-5.883-1.245-1.226-.204-12.95-2.768-12.866-3.926.168-2.312 3.61-4.557 5.281-5.448 3.301-1.758 6.996-2.844 10.683-3.723 7.788-1.856 15.046-4.146 23.502-1.431 5.635 1.809 11.227 4.544 16.496 7.46 4.801 2.659 9.217 5.64 14.416 7.232 1.985.608 4.656 1.759 6.697 1.715 1.072-.024 2.055.06.942-1.035-4.008-3.94-10.386-6.647-15.372-8.719-3.664-1.523-7.338-2.845-11.1-3.895-3.56-.993-7.298-1.371-10.719-3.01-3.93-1.881-7.165-4.71-10.815-7.111-2.133-1.405-4.712-2.642-6.638-4.345-.976-.863-1.67-.118-2.717.36-1.635.745-3.243 1.49-4.922 2.097m-13.356-.722c-.602.744-1.262 1.43-1.873 2.147-.291.341-.418.754-.747 1.073-.436.424-.793.887-1.26 1.284-1.127.96-2.404 1.664-3.723 2.35-.552.287-1.104.735-1.692.942-.46.161-.944.748-1.42.778"/><path stroke="#7cf0ff" stroke-linecap="round" stroke-width="37" d="M4.81 4.832c.417 12.125-5.2 17.041-11.12 22.08l-12.23 10.41m118.861 3.809c-19.2 19.148-39.411 18.297-60.478 17.18L-3.677 56"/><path stroke="#7cf0ff" stroke-linecap="round" stroke-width="37" d="M147.016 23.185c-24.07 22.041-49.288 20.959-75.573 19.565l-54.3-2.88"/><path stroke="#7cf0ff" d="M366.655 60.781S333.077 20.63 304.68 7.264c-37.444-17.624-66.513-12.13-101.41-5.396S138.352 29.333 93.916 21.67C53.648 14.728 25.357-1.496-2.592-26.716"/><path stroke="#00d287" stroke-width="39" d="M364.84 72.6s-31.191-41.996-58.885-57.116C269.438-4.454 239.864-.94 204.351 3.419c-35.512 4.358-67.016 22.903-111.199 12.369C53.114 6.242 25.71-11.702-.778-38.535"/></svg>