<svg xmlns="http://www.w3.org/2000/svg" width="308" height="646" fill="none" viewBox="0 0 308 646"><path stroke="#071a51" stroke-width="39" d="M489.918 95.499s-66.347-24.787-109.42-19.457c-56.794 7.028-88.745 36.968-127.013 73.088s-61.73 86.266-120.739 111.528c-53.475 22.892-98.227 24.489-148.26 14.329"/><path stroke="#071a51" stroke-width="63" d="M512.734 114.567s-80.954-20.542-130.881-8.249c-65.833 16.209-99.68 56.416-140.188 104.886s-61.907 111.685-128.103 150.012c-59.988 34.733-112.345 42.79-172.346 37.506"/><path stroke="#071a51" stroke-linecap="round" stroke-width="37" d="M161.759 272.01c-4.358 1.644-10.546 2.188-13.951 5.592-1.592 1.592-3.18 2.938-4.675 4.674-6.296 7.312-12.123 14.875-20.267 20.346-7.493 5.035-15.111 8.22-23.65 10.916-7.874 2.486-15.023 5.148-21.74 10.003-7.012 5.068-12.541 11.669-20.229 15.953-2.46 1.371-4.773 3.168-7.311 4.356-2.607 1.219-5.334 1.909-7.96 3.05-1.622.706-17.534 6.679-18.165 5.134-1.26-3.085 1.513-8.665 2.987-11.12 2.91-4.849 6.726-9.15 10.662-13.179 8.317-8.512 15.712-17.16 27.738-20.364 8.013-2.134 16.56-3.051 24.829-3.482 7.535-.393 14.804-.07 22.149-2.136 2.804-.789 6.788-1.427 9.248-3.093 1.291-.875 2.542-1.544.493-2.063-7.381-1.87-16.868-.297-24.256.99-5.43.945-10.745 2.154-15.994 3.781-4.969 1.54-9.764 4.005-14.97 4.611-5.981.696-11.716-.363-17.685-.552-3.49-.11-7.415.343-10.842-.312-1.735-.333-2.11 1.167-3.083 2.601-1.52 2.242-3.01 4.461-4.671 6.561m-12.234-13.763c-.263 1.425-.632 2.823-.924 4.218-.139.666-.033 1.293-.23 1.96-.264.885-.405 1.758-.723 2.633-.766 2.115-1.877 4.022-3.05 5.937-.492.802-.88 1.809-1.466 2.537-.458.569-.677 1.7-1.239 2.113"/><path stroke="#071a51" stroke-linecap="round" stroke-width="37" d="M13.483 309.431c8.186 15.152 4.454 25.859.429 36.962L5.597 369.33m80.159-65.609c23.065 20.546 19.496 31.311 15.471 42.415l-8.315 22.936"/><path stroke="#071a51" d="M489.918 95.499s-66.347-24.787-109.42-19.457c-56.794 7.028-88.745 36.968-127.013 73.088s-61.73 86.266-120.739 111.528c-53.475 22.892-98.227 24.489-148.26 14.329"/><path stroke="#f16d0a" stroke-width="39" d="M518.142 172.785s-85.87-24.327-139.42-13.215c-70.609 14.651-107.667 55.529-152.025 104.818S158.014 379.063 86.493 416.841c-64.813 34.236-120.855 40.83-184.735 33.2"/><path stroke="#f16d0a" stroke-width="27" d="M528.606 168.436s-104.693-10.754-164.681 13.734c-79.098 32.288-113.916 88.625-155.521 156.484-41.606 67.86-56.683 150.597-132.175 210.527-68.412 54.309-132.207 73.961-207.978 78.385"/><path stroke="#f16d0a" stroke-linecap="round" stroke-width="37" d="M131.819 433.43c-5.131 2.849-12.745 4.663-16.365 9.531-1.694 2.277-3.426 4.247-4.971 6.685-6.508 10.272-12.385 20.77-21.533 29.084-8.418 7.652-17.33 13.021-27.481 17.949-9.36 4.545-17.784 9.175-25.268 16.461-7.811 7.604-13.493 16.847-22.29 23.599-2.817 2.162-5.37 4.826-8.316 6.772-3.026 1.999-6.3 3.359-9.363 5.264-1.893 1.178-20.635 11.544-21.705 9.734-2.136-3.614.297-11.081 1.683-14.412 2.738-6.579 6.706-12.641 10.874-18.386 8.807-12.139 16.44-24.277 30.844-30.477 9.598-4.131 20.085-6.843 30.314-8.898 9.322-1.873 18.444-2.804 27.22-6.727 3.353-1.499 8.202-3.025 10.963-5.554 1.45-1.327 2.886-2.391.236-2.662-9.544-.977-21.083 2.726-30.058 5.685-6.596 2.175-13 4.658-19.246 7.649-5.912 2.832-11.437 6.784-17.817 8.495-7.328 1.966-14.672 1.698-22.148 2.558-4.37.503-9.18 1.789-13.573 1.6-2.225-.096-2.417 1.843-3.367 3.81-1.484 3.073-2.933 6.113-4.62 9.036"/><path stroke="#f16d0a" stroke-linecap="round" stroke-width="37" d="M133.14 403.464c-5.131 2.85-12.745 4.664-16.365 9.532-1.693 2.277-3.426 4.246-4.971 6.685-6.508 10.271-12.384 20.769-21.533 29.084-8.418 7.651-17.33 13.02-27.481 17.949-9.36 4.544-17.784 9.175-25.267 16.46-7.812 7.605-13.494 16.848-22.291 23.6-2.816 2.162-5.37 4.826-8.316 6.772-3.026 1.999-6.3 3.359-9.362 5.264-1.894 1.177-20.636 11.544-21.706 9.734-2.136-3.615.297-11.081 1.683-14.412 2.738-6.579 6.707-12.641 10.875-18.386 8.806-12.139 16.439-24.277 30.843-30.477 9.598-4.132 20.085-6.844 30.314-8.899 9.322-1.873 18.444-2.803 27.22-6.727 3.353-1.498 8.203-3.025 10.963-5.553 1.45-1.328 2.886-2.391.236-2.662-9.544-.977-21.083 2.725-30.057 5.685-6.597 2.175-13.001 4.657-19.246 7.649-5.912 2.831-11.438 6.784-17.817 8.495-7.329 1.965-14.672 1.698-22.149 2.558-4.37.503-9.18 1.789-13.573 1.6-2.224-.096-2.416 1.842-3.366 3.809-1.485 3.074-2.933 6.114-4.62 9.037m145.138-34.675c-6.794 51.428-35.449 74.562-65.553 98.338l-62.19 49.115"/><path stroke="#f16d0a" stroke-linecap="round" stroke-width="37" d="M168.112 362.751c-10.525 61.573-46.301 90.41-83.862 120.075L6.655 544.108"/><path stroke="#f16d0a" d="M508.537 153.155s-87.262-18.726-139.982-4.176c-69.515 19.184-103.853 62.372-144.933 114.425S162.496 382.278 93.566 424.601c-62.465 38.353-117.963 48.555-182.203 45.071"/></svg>