<svg width="304" height="638" viewBox="0 0 304 638" fill="none" xmlns="http://www.w3.org/2000/svg">
<g clip-path="url(#clip0_770_214)">
<path d="M370.935 74.6376C370.935 74.6376 329.876 34.1587 296.092 24.4159C251.546 11.5694 217.84 24.4014 177.383 39.9724C136.926 55.5434 102.806 86.7046 50.5477 87.2208C3.19068 87.6886 -30.5986 74.5233 -64.4005 50.5839" stroke="#37ABDC" stroke-width="27"/>
<path d="M108.441 39.5336C105.227 38.8368 101.216 36.7852 98.0527 37.4969C96.573 37.8299 95.1721 38.0189 93.7087 38.4747C87.5451 40.3943 81.596 42.643 74.8523 42.7625C68.6468 42.8724 62.9337 41.8382 56.7988 40.1607C51.1421 38.6139 45.8812 37.4494 40.2131 37.7508C34.2965 38.0654 28.8289 39.8574 22.734 39.4484C20.783 39.3175 18.7933 39.4956 16.8508 39.2259C14.8558 38.9488 12.9493 38.3112 10.9672 37.981C9.74179 37.7769 -1.98243 35.2132 -1.89837 34.0551C-1.73056 31.743 1.71099 29.4979 3.38249 28.6074C6.68362 26.8488 10.3788 25.7631 14.0652 24.8845C21.8535 23.0282 29.1111 20.7379 37.5678 23.4527C43.2028 25.2616 48.7943 27.9971 54.0632 30.9136C58.8649 33.5716 63.2808 36.5526 68.4793 38.1453C70.4647 38.7535 73.1358 39.9039 75.1768 39.8597C76.2485 39.8365 77.2315 39.9195 76.1187 38.8256C72.11 34.8853 65.7324 32.1782 60.7468 30.1062C57.0824 28.5833 53.4084 27.2608 49.647 26.2115C46.0861 25.2182 42.3485 24.84 38.9277 23.2017C34.9983 21.3198 31.7621 18.492 28.1124 16.0897C25.979 14.6854 23.4009 13.4484 21.4743 11.7447C20.4987 10.882 19.804 11.6273 18.7576 12.1045C17.1225 12.8501 15.5142 13.595 13.8349 14.2024" stroke="#37ABDC" stroke-width="37" stroke-linecap="round"/>
<path d="M118.436 27.4015C115.223 26.7047 111.212 24.6531 108.048 25.3649C106.569 25.6978 105.168 25.8869 103.704 26.3426C97.5406 28.2622 91.5915 30.5109 84.8478 30.6304C78.6424 30.7403 72.9293 29.7061 66.7944 28.0286C61.1376 26.4818 55.8768 25.3173 50.2087 25.6187C44.2921 25.9333 38.8244 27.7254 32.7296 27.3163C30.7785 27.1854 28.7889 27.3635 26.8464 27.0938C24.8514 26.8168 22.9448 26.1792 20.9627 25.8489C19.7373 25.6448 8.01312 23.0811 8.09717 21.923C8.26498 19.6109 11.7065 17.3658 13.378 16.4754C16.6792 14.7167 20.3744 13.631 24.0607 12.7524C31.8491 10.8961 39.1067 8.60584 47.5633 11.3206C53.1983 13.1296 58.7899 15.865 64.0587 18.7815C68.8604 21.4395 73.2763 24.4205 78.4749 26.0132C80.4603 26.6215 83.1314 27.7718 85.1723 27.7276C86.2441 27.7044 87.227 27.7874 86.1142 26.6935C82.1056 22.7532 75.7279 20.0461 70.7424 17.9741C67.0779 16.4512 63.404 15.1287 59.6426 14.0795C56.0817 13.0862 52.3441 12.708 48.9233 11.0696C44.9939 9.18775 41.7576 6.35987 38.108 3.9576C35.9746 2.55334 33.3964 1.31635 31.4698 -0.387363C30.4943 -1.25006 29.7995 -0.504807 28.7532 -0.0276152C27.1181 0.718052 25.5097 1.46288 23.8304 2.07028" stroke="#37ABDC" stroke-width="37" stroke-linecap="round"/>
<path d="M10.4753 1.34783C9.87284 2.09184 9.21332 2.77893 8.60243 3.49453C8.31083 3.83611 8.18354 4.24868 7.8552 4.56775C7.4188 4.99183 7.06226 5.45519 6.59554 5.85242C5.46773 6.81233 4.1905 7.51632 2.87203 8.20177C2.31961 8.48896 1.76807 8.93735 1.18012 9.14382C0.720053 9.30538 0.23577 9.89183 -0.240412 9.9217" stroke="#37ABDC" stroke-width="37" stroke-linecap="round"/>
<path d="M4.80988 4.8324C5.22715 16.9566 -0.388975 21.8733 -6.30938 26.9123C-10.3862 30.3821 -14.463 33.852 -18.5398 37.3219" stroke="#37ABDC" stroke-width="37" stroke-linecap="round"/>
<path d="M100.321 41.1313C81.1202 60.279 60.9099 59.4277 39.8433 58.3103C25.3368 57.5407 10.8303 56.7712 -3.67619 56.0017" stroke="#37ABDC" stroke-width="37" stroke-linecap="round"/>
<path d="M147.016 23.1849C122.946 45.2263 97.7278 44.1439 71.4428 42.7496C53.3429 41.7894 35.243 40.8293 17.143 39.8692" stroke="#37ABDC" stroke-width="37" stroke-linecap="round"/>
<path d="M366.655 60.7811C366.655 60.7811 333.077 20.6289 304.68 7.26351C267.236 -10.3597 238.167 -4.86665 203.27 1.86758C168.373 8.60181 138.352 29.3328 93.9162 21.6711C53.6477 14.7279 25.3573 -1.49567 -2.59166 -26.716" stroke="#37ABDC"/>
<path d="M364.84 72.6002C364.84 72.6002 333.649 30.6039 305.955 15.4836C269.438 -4.45371 239.864 -0.939068 204.351 3.41876C168.839 7.77659 137.335 26.3216 93.1523 15.7879C53.1136 6.24223 25.7093 -11.7021 -0.777122 -38.5352" stroke="#FEDE74" stroke-width="39"/>
<path d="M-140.886 524.954C-140.886 524.954 -102.304 578.202 -68.9999 598.818C-25.0862 626.001 9.63377 624.368 51.3191 622.241C93.0045 620.114 129.354 600.572 181.902 617.117C229.521 632.11 262.605 656.097 294.988 690.694" stroke="#FEDE74" stroke-width="39"/>
<path d="M-148.16 521.969C-148.16 521.969 -94.471 577.833 -52.9287 595.158C1.84779 618.004 40.7753 607.88 87.4808 595.523C134.186 583.166 171.562 550.832 234.081 558.689C290.736 565.808 332.667 587.295 375.818 621.878" stroke="#FEDE74" stroke-width="27"/>
<path d="M162.855 587.215C166.673 588.335 171.491 591.155 175.191 590.576C176.921 590.306 178.565 590.201 180.271 589.781C187.456 588.013 194.374 585.83 202.32 586.278C209.632 586.69 216.413 588.435 223.718 590.991C230.455 593.347 236.708 595.209 243.378 595.344C250.341 595.485 256.711 593.809 263.915 594.835C266.221 595.164 268.559 595.124 270.861 595.619C273.225 596.127 275.501 597.061 277.852 597.632C279.306 597.985 293.24 602.097 293.19 603.483C293.092 606.249 289.13 608.647 287.198 609.572C283.381 611.398 279.071 612.379 274.762 613.113C265.658 614.662 257.199 616.781 247.112 612.774C240.39 610.103 233.679 606.323 227.341 602.353C221.565 598.735 216.231 594.762 210.033 592.39C207.665 591.485 204.467 589.867 202.062 589.741C200.799 589.675 199.637 589.489 200.996 590.902C205.892 595.993 213.528 599.808 219.495 602.738C223.882 604.891 228.27 606.804 232.75 608.396C236.992 609.903 241.415 610.686 245.519 612.956C250.233 615.564 254.17 619.249 258.577 622.459C261.153 624.335 264.246 626.049 266.59 628.267C267.778 629.39 268.565 628.555 269.778 628.073C271.674 627.319 273.538 626.565 275.492 625.981" stroke="#FEDE74" stroke-width="37" stroke-linecap="round"/>
<path d="M151.59 600.931C155.409 602.051 160.227 604.87 163.926 604.291C165.657 604.021 167.3 603.916 169.006 603.497C176.191 601.728 183.109 599.545 191.055 599.993C198.368 600.405 205.148 602.15 212.454 604.706C219.19 607.063 225.443 608.925 232.114 609.059C239.076 609.2 245.446 607.524 252.65 608.551C254.956 608.879 257.295 608.84 259.597 609.334C261.961 609.842 264.236 610.777 266.588 611.348C268.041 611.701 281.975 615.813 281.926 617.198C281.827 619.964 277.866 622.363 275.933 623.287C272.117 625.113 267.806 626.095 263.497 626.828C254.394 628.378 245.935 630.496 235.847 626.489C229.125 623.819 222.415 620.038 216.077 616.068C210.301 612.45 204.966 608.477 198.768 606.106C196.401 605.2 193.202 603.582 190.798 603.456C189.535 603.39 188.372 603.204 189.731 604.617C194.627 609.708 202.263 613.524 208.231 616.453C212.617 618.606 217.006 620.519 221.486 622.111C225.727 623.618 230.151 624.401 234.254 626.671C238.968 629.28 242.906 632.965 247.312 636.174C249.888 638.05 252.981 639.764 255.326 641.983C256.513 643.106 257.301 642.27 258.514 641.788C260.41 641.035 262.274 640.28 264.228 639.697" stroke="#FEDE74" stroke-width="37" stroke-linecap="round"/>
<path d="M280.006 641.737C280.684 640.895 281.433 640.126 282.122 639.319C282.451 638.934 282.584 638.449 282.957 638.094C283.453 637.622 283.854 637.096 284.387 636.659C285.676 635.604 287.151 634.869 288.677 634.16C289.316 633.863 289.947 633.372 290.631 633.175C291.167 633.021 291.712 632.359 292.273 632.364" stroke="#FEDE74" stroke-width="37" stroke-linecap="round"/>
<path d="M286.536 638.043C285.523 623.423 291.934 618.002 298.698 612.461C303.356 608.645 308.014 604.829 312.672 601.013" stroke="#FEDE74" stroke-width="37" stroke-linecap="round"/>
<path d="M172.36 586.006C194.177 564.659 218.043 567.456 242.931 570.648C260.068 572.846 277.206 575.044 294.343 577.242" stroke="#FEDE74" stroke-width="37" stroke-linecap="round"/>
<path d="M118.074 603.496C145.507 579.096 175.288 582.61 206.34 586.592C227.723 589.335 249.106 592.077 270.489 594.819" stroke="#FEDE74" stroke-width="37" stroke-linecap="round"/>
<path d="M-142.517 539.011C-142.517 539.011 -101.201 590.25 -67.1436 608.817C-22.2364 633.298 11.803 629.241 52.6607 624.202C93.5185 619.163 128.024 596.861 180.748 609.974C228.527 621.857 262.581 643.852 296.619 676.638" stroke="#FEDE74"/>
<path d="M-39.4258 557.973C-39.4258 557.973 -3.48612 607.441 27.2863 626.775C67.862 652.268 99.7138 651.106 137.954 649.558C176.194 648.011 209.364 630.356 257.759 646.128C301.616 660.421 332.219 682.86 362.285 715.074" stroke="#37ABDC" stroke-width="39"/>
<path d="M-46.1319 555.15C-46.1319 555.15 3.69971 607.178 42.0012 623.561C92.5044 645.162 128.134 636.215 170.881 625.287C213.627 614.358 247.613 584.922 305.074 592.784C357.146 599.908 395.846 620.13 435.794 652.437" stroke="#37ABDC" stroke-width="27"/>
<path d="M239.981 618.375C243.497 619.445 247.947 622.092 251.337 621.595C252.922 621.363 254.43 621.283 255.992 620.913C262.569 619.354 268.897 617.41 276.195 617.901C282.911 618.354 289.152 620.029 295.882 622.458C302.089 624.697 307.847 626.475 313.97 626.665C320.363 626.864 326.193 625.382 332.815 626.4C334.935 626.726 337.081 626.712 339.199 627.191C341.374 627.683 343.471 628.566 345.635 629.116C346.973 629.456 359.803 633.384 359.771 634.661C359.708 637.21 356.096 639.382 354.331 640.215C350.846 641.86 346.9 642.723 342.952 643.356C334.612 644.694 326.869 646.563 317.57 642.769C311.374 640.242 305.177 636.69 299.32 632.968C293.983 629.575 289.047 625.86 283.335 623.612C281.153 622.754 278.201 621.231 275.993 621.091C274.833 621.018 273.764 620.835 275.026 622.151C279.57 626.892 286.616 630.485 292.123 633.245C296.17 635.273 300.217 637.08 304.345 638.592C308.253 640.023 312.32 640.788 316.11 642.922C320.462 645.373 324.113 648.809 328.189 651.811C330.572 653.566 333.428 655.177 335.602 657.245C336.703 658.292 337.417 657.53 338.526 657.097C340.259 656.421 341.962 655.744 343.75 655.226" stroke="#37ABDC" stroke-width="37" stroke-linecap="round"/>
<path d="M229.778 630.907C233.294 631.977 237.744 634.624 241.134 634.127C242.719 633.895 244.227 633.815 245.788 633.445C252.366 631.886 258.694 629.942 265.992 630.433C272.707 630.886 278.948 632.561 285.679 634.99C291.885 637.229 297.643 639.007 303.767 639.197C310.159 639.396 315.989 637.914 322.612 638.932C324.732 639.258 326.877 639.244 328.995 639.723C331.17 640.215 333.268 641.098 335.432 641.648C336.77 641.988 349.6 645.916 349.568 647.193C349.505 649.742 345.893 651.914 344.128 652.747C340.643 654.392 336.696 655.255 332.749 655.888C324.409 657.226 316.665 659.095 307.366 655.301C301.17 652.774 294.974 649.222 289.117 645.5C283.78 642.107 278.844 638.392 273.131 636.144C270.95 635.286 267.998 633.763 265.789 633.623C264.63 633.55 263.561 633.367 264.822 634.683C269.366 639.424 276.413 643.017 281.919 645.777C285.967 647.805 290.014 649.612 294.142 651.124C298.05 652.555 302.117 653.32 305.906 655.454C310.259 657.905 313.909 661.341 317.986 664.343C320.369 666.098 323.225 667.709 325.399 669.777C326.5 670.824 327.214 670.062 328.323 669.629C330.055 668.953 331.759 668.276 333.547 667.758" stroke="#37ABDC" stroke-width="37" stroke-linecap="round"/>
<path d="M248.693 617.354C268.507 597.892 290.44 600.707 313.315 603.895C329.067 606.091 344.818 608.287 360.57 610.483" stroke="#37ABDC" stroke-width="37" stroke-linecap="round"/>
<path d="M199.039 632.939C223.978 610.718 251.347 614.252 279.888 618.231C299.542 620.971 319.195 623.711 338.849 626.45" stroke="#37ABDC" stroke-width="37" stroke-linecap="round"/>
<path d="M-40.7842 570.915C-40.7842 570.915 -2.35454 618.558 29.0892 636.01C70.55 659.023 101.753 655.62 139.205 651.379C176.656 647.139 208.107 626.922 256.63 639.532C300.601 650.959 332.076 671.572 363.643 702.132" stroke="#37ABDC"/>
</g>
<defs>
<clipPath id="clip0_770_214">
<rect width="304" height="638" fill="white"/>
</clipPath>
</defs>
</svg>
