<svg width="308" height="646" viewBox="0 0 308 646" fill="none" xmlns="http://www.w3.org/2000/svg">
<path d="M489.918 95.4987C489.918 95.4987 423.571 70.7119 380.498 76.0421C323.704 83.0704 291.753 113.01 253.485 149.13C215.217 185.25 191.755 235.396 132.746 260.658C79.2715 283.55 34.5192 285.147 -15.5136 274.987" stroke="#071A51" stroke-width="39"/>
<path d="M512.734 114.567C512.734 114.567 431.78 94.0251 381.853 106.318C316.02 122.527 282.173 162.734 241.665 211.204C201.158 259.673 179.758 322.889 113.562 361.216C53.5744 395.949 1.21669 404.006 -58.7843 398.722" stroke="#071A51" stroke-width="63"/>
<path d="M161.759 272.01C157.401 273.654 151.213 274.198 147.808 277.602C146.216 279.194 144.628 280.54 143.133 282.276C136.837 289.588 131.01 297.151 122.866 302.622C115.373 307.657 107.755 310.842 99.2157 313.538C91.342 316.024 84.1928 318.686 77.4755 323.541C70.4637 328.609 64.9345 335.21 57.2472 339.494C54.7865 340.865 52.4743 342.662 49.936 343.85C47.3292 345.069 44.6017 345.759 41.9769 346.9C40.3542 347.606 24.4417 353.579 23.8108 352.034C22.5514 348.949 25.3243 343.369 26.7977 340.914C29.7075 336.065 33.5237 331.764 37.4602 327.735C45.7771 319.223 53.1723 310.575 65.1981 307.371C73.2113 305.237 81.7582 304.32 90.0265 303.889C97.5616 303.496 104.831 303.819 112.176 301.753C114.98 300.964 118.964 300.326 121.424 298.66C122.715 297.785 123.966 297.116 121.917 296.597C114.536 294.727 105.049 296.3 97.6612 297.587C92.2307 298.532 86.9156 299.741 81.6669 301.368C76.698 302.908 71.9032 305.373 66.6967 305.979C60.716 306.675 54.9812 305.616 49.012 305.427C45.5227 305.317 41.5972 305.77 38.1704 305.115C36.4351 304.782 36.0603 306.282 35.0871 307.716C33.5665 309.958 32.0778 312.177 30.4158 314.277" stroke="#071A51" stroke-width="37" stroke-linecap="round"/>
<path d="M18.1818 300.514C17.9186 301.939 17.5498 303.337 17.2584 304.732C17.1193 305.398 17.2254 306.025 17.0273 306.692C16.7639 307.577 16.6227 308.45 16.3054 309.325C15.5387 311.44 14.4278 313.347 13.2549 315.262C12.7634 316.064 12.3751 317.071 11.7893 317.799C11.3309 318.368 11.112 319.499 10.5505 319.912" stroke="#071A51" stroke-width="37" stroke-linecap="round"/>
<path d="M13.4832 309.431C21.6686 324.583 17.9369 335.29 13.9119 346.393C11.1402 354.038 8.36853 361.684 5.59686 369.33" stroke="#071A51" stroke-width="37" stroke-linecap="round"/>
<path d="M85.7561 303.721C108.821 324.267 105.252 335.032 101.227 346.136C98.4552 353.781 95.6836 361.427 92.9119 369.072" stroke="#071A51" stroke-width="37" stroke-linecap="round"/>
<path d="M489.918 95.4987C489.918 95.4987 423.571 70.7119 380.498 76.0421C323.704 83.0704 291.753 113.01 253.485 149.13C215.217 185.25 191.755 235.396 132.746 260.658C79.2715 283.55 34.5192 285.147 -15.5136 274.987" stroke="#071A51"/>
<path d="M518.142 172.785C518.142 172.785 432.272 148.458 378.722 159.57C308.113 174.221 271.055 215.099 226.697 264.388C182.338 313.677 158.014 379.063 86.4935 416.841C21.6804 451.077 -34.3619 457.671 -98.2416 450.041" stroke="#F16D0A" stroke-width="39"/>
<path d="M528.606 168.436C528.606 168.436 423.913 157.682 363.925 182.17C284.827 214.458 250.009 270.795 208.404 338.654C166.798 406.514 151.721 489.251 76.2291 549.181C7.81728 603.49 -55.9776 623.142 -131.749 627.566" stroke="#F16D0A" stroke-width="27"/>
<path d="M131.819 433.43C126.688 436.279 119.074 438.093 115.454 442.961C113.76 445.238 112.028 447.208 110.483 449.646C103.975 459.918 98.0984 470.416 88.9501 478.73C80.5319 486.382 71.6195 491.751 61.4686 496.679C52.1088 501.224 43.6846 505.854 36.2012 513.14C28.3897 520.744 22.7078 529.987 13.9104 536.739C11.0943 538.901 8.54144 541.565 5.595 543.511C2.56889 545.51 -0.704818 546.87 -3.76766 548.775C-5.66117 549.953 -24.4029 560.319 -25.4729 558.509C-27.6091 554.895 -25.1762 547.428 -23.79 544.097C-21.0522 537.518 -17.0838 531.456 -12.9156 525.711C-4.10921 513.572 3.52331 501.434 17.9278 495.234C27.526 491.103 38.013 488.391 48.2417 486.336C57.5635 484.463 66.6857 483.532 75.4627 479.609C78.8146 478.11 83.6642 476.584 86.4247 474.055C87.8742 472.728 89.3105 471.664 86.6609 471.393C77.1165 470.416 65.578 474.119 56.6032 477.078C50.0067 479.253 43.6022 481.736 37.3574 484.727C31.4453 487.559 25.9201 491.511 19.5404 493.222C12.2121 495.188 4.86843 494.92 -2.60794 495.78C-6.97829 496.283 -11.7888 497.569 -16.1813 497.38C-18.4056 497.284 -18.5977 499.223 -19.5477 501.19C-21.0321 504.263 -22.4807 507.303 -24.1674 510.226" stroke="#F16D0A" stroke-width="37" stroke-linecap="round"/>
<path d="M133.14 403.464C128.009 406.314 120.395 408.128 116.775 412.996C115.082 415.273 113.349 417.242 111.804 419.681C105.296 429.952 99.4197 440.45 90.2714 448.765C81.8532 456.416 72.9408 461.785 62.7899 466.714C53.43 471.258 45.0059 475.889 37.5225 483.174C29.711 490.779 24.029 500.022 15.2317 506.774C12.4156 508.936 9.86273 511.6 6.91629 513.546C3.89018 515.545 0.616472 516.905 -2.44637 518.81C-4.33988 519.987 -23.0816 530.354 -24.1516 528.544C-26.2878 524.929 -23.8549 517.463 -22.4687 514.132C-19.7309 507.553 -15.7625 501.491 -11.5943 495.746C-2.78792 483.607 4.84459 471.469 19.2491 465.269C28.8473 461.137 39.3343 458.425 49.563 456.37C58.8848 454.497 68.007 453.567 76.7839 449.643C80.1359 448.145 84.9855 446.618 87.746 444.09C89.1955 442.762 90.6318 441.699 87.9822 441.428C78.4378 440.451 66.8993 444.153 57.9245 447.113C51.328 449.288 44.9235 451.77 38.6787 454.762C32.7666 457.593 27.2414 461.546 20.8617 463.257C13.5334 465.222 6.18972 464.955 -1.28665 465.815C-5.65701 466.318 -10.4675 467.604 -14.86 467.415C-17.0843 467.319 -17.2764 469.257 -18.2264 471.224C-19.7108 474.298 -21.1594 477.338 -22.8461 480.261" stroke="#F16D0A" stroke-width="37" stroke-linecap="round"/>
<path d="M122.292 445.586C115.498 497.014 86.8434 520.148 56.7391 543.924C36.0092 560.296 15.2794 576.667 -5.45048 593.039" stroke="#F16D0A" stroke-width="37" stroke-linecap="round"/>
<path d="M168.112 362.751C157.587 424.324 121.811 453.161 84.2499 482.826C58.385 503.253 32.5201 523.681 6.65519 544.108" stroke="#F16D0A" stroke-width="37" stroke-linecap="round"/>
<path d="M508.537 153.155C508.537 153.155 421.275 134.429 368.555 148.979C299.04 168.163 264.702 211.351 223.622 263.404C182.543 315.457 162.496 382.278 93.5662 424.601C31.1014 462.954 -24.3974 473.156 -88.6367 469.672" stroke="#F16D0A"/>
</svg>
