<svg width="309" height="638" viewBox="0 0 309 638" fill="none" xmlns="http://www.w3.org/2000/svg">
<g clip-path="url(#clip0_1053_746)">
<path d="M377.036 74.916C377.036 74.916 335.251 34.39 300.902 24.6052C255.61 11.7032 221.369 24.49 180.269 40.0068C139.17 55.5235 104.532 86.6363 51.4186 87.0853C3.28675 87.4921 -31.0731 74.2852 -65.4598 50.3057" stroke="#6AE5B9" stroke-width="27"/>
<path d="M110.224 39.6072C106.958 38.9061 102.878 36.8492 99.6639 37.5569C98.1605 37.888 96.7369 38.0752 95.2502 38.5292C88.9884 40.441 82.945 42.6823 76.0912 42.7931C69.7845 42.895 63.9767 41.8534 57.7394 40.1678C51.9881 38.6136 46.6398 37.4422 40.8795 37.7364C34.8666 38.0434 29.3119 39.8286 23.1169 39.4117C21.1339 39.2782 19.1119 39.4538 17.1373 39.1815C15.1094 38.9019 13.1708 38.2618 11.1559 37.929C9.91021 37.7232 -2.00895 35.1442 -1.92503 33.9861C-1.7575 31.674 1.73735 29.4331 3.435 28.5447C6.78778 26.7901 10.5419 25.7091 14.2874 24.8351C22.2006 22.9886 29.5738 20.7075 38.1722 23.4334C43.9016 25.2498 49.5881 27.9927 54.9469 30.9163C59.8305 33.5807 64.3225 36.5677 69.6081 38.1673C71.6267 38.7781 74.343 39.932 76.4173 39.8905C77.5065 39.8687 78.5056 39.9529 77.3732 38.8575C73.2939 34.9116 66.8085 32.196 61.7387 30.1174C58.0124 28.5896 54.2767 27.2622 50.4525 26.2081C46.832 25.2101 43.0329 24.827 39.554 23.1841C35.5579 21.297 32.2651 18.4647 28.5527 16.0575C26.3826 14.6503 23.7607 13.4099 21.8004 11.7035C20.8078 10.8395 20.1026 11.5839 19.0398 12.0598C17.3789 12.8034 15.7453 13.5463 14.0394 14.1516" stroke="#6AE5B9" stroke-width="37" stroke-linecap="round"/>
<path d="M120.384 27.4748C117.118 26.7738 113.038 24.7168 109.824 25.4246C108.32 25.7556 106.897 25.9429 105.41 26.3968C99.1483 28.3087 93.1049 30.55 86.2511 30.6608C79.9444 30.7627 74.1366 29.7211 67.8993 28.0355C62.148 26.4813 56.7997 25.3099 51.0394 25.604C45.0265 25.9111 39.4718 27.6963 33.2769 27.2793C31.2938 27.1459 29.2718 27.3214 27.2973 27.0492C25.2693 26.7696 23.3307 26.1295 21.3158 25.7967C20.0701 25.5909 8.15097 23.0119 8.23488 21.8538C8.40241 19.5416 11.8973 17.3008 13.5949 16.4124C16.9477 14.6578 20.7019 13.5767 24.4473 12.7028C32.3605 10.8563 39.7337 8.57514 48.3321 11.3011C54.0616 13.1175 59.7481 15.8604 65.1068 18.784C69.9904 21.4484 74.4824 24.4354 79.768 26.0349C81.7866 26.6458 84.5029 27.7997 86.5772 27.7582C87.6664 27.7363 88.6655 27.8206 87.5331 26.7252C83.4538 22.7792 76.9684 20.0637 71.8986 17.9851C68.1723 16.4573 64.4366 15.1299 60.6124 14.0757C56.9919 13.0778 53.1928 12.6947 49.7139 11.0518C45.7179 9.16468 42.4251 6.33235 38.7126 3.92514C36.5425 2.51798 33.9206 1.27755 31.9603 -0.428819C30.9677 -1.29286 30.2626 -0.548424 29.1997 -0.0725294C27.5389 0.671111 25.9052 1.41394 24.1993 2.01925" stroke="#6AE5B9" stroke-width="37" stroke-linecap="round"/>
<path d="M10.6462 1.34845C10.0342 2.09261 9.36415 2.77971 8.7436 3.49541C8.44738 3.83704 8.31842 4.24996 7.9848 4.56901C7.54139 4.99305 7.17926 5.45653 6.70496 5.85366C5.55883 6.8133 4.26034 7.51653 2.91988 8.20113C2.35825 8.48797 1.79772 8.93621 1.19984 9.14218C0.731997 9.30336 0.240076 9.88991 -0.244334 9.9192" stroke="#6AE5B9" stroke-width="37" stroke-linecap="round"/>
<path d="M4.87537 4.83252C5.31565 16.9685 -0.390081 21.8825 -6.40513 26.9185C-10.5471 30.3863 -14.6891 33.8542 -18.8311 37.322" stroke="#6AE5B9" stroke-width="37" stroke-linecap="round"/>
<path d="M101.945 41.2368C82.4593 60.2597 61.9219 59.387 40.5141 58.2484C25.7726 57.4644 11.0312 56.6803 -3.71029 55.8963" stroke="#6AE5B9" stroke-width="37" stroke-linecap="round"/>
<path d="M149.403 23.3145C124.974 45.2028 99.347 44.0941 72.6358 42.6739C54.2423 41.6959 35.8489 40.718 17.4555 39.74" stroke="#6AE5B9" stroke-width="37" stroke-linecap="round"/>
<path d="M372.685 61.0147C372.685 61.0147 338.514 20.823 309.64 7.42232C271.569 -10.2474 242.038 -4.79228 206.587 1.89644C171.135 8.58515 140.657 29.2756 95.4942 21.5574C54.5668 14.5631 25.7987 -1.69536 -2.6343 -26.9493" stroke="#6AE5B9"/>
<path d="M370.841 72.8348C370.841 72.8348 339.094 30.7989 310.936 15.6431C273.807 -4.34091 243.762 -0.864348 207.685 3.44775C171.609 7.75985 139.623 26.2641 94.7181 15.6737C54.0243 6.07663 26.1567 -11.9028 -0.789933 -38.7696" stroke="#A166FF" stroke-width="39"/>
<path d="M-143.203 524.617C-143.203 524.617 -103.925 577.922 -70.0604 598.589C-25.4076 625.839 9.85968 624.261 52.2019 622.2C94.5442 620.139 131.438 600.655 184.844 617.281C233.242 632.348 266.888 656.386 299.839 691.032" stroke="#A166FF" stroke-width="39"/>
<path d="M-150.597 521.573C-150.597 521.573 -95.9519 577.503 -53.7112 594.889C1.986 617.813 41.5257 607.753 88.9654 595.474C136.405 583.194 174.332 550.929 237.873 558.882C295.454 566.088 338.097 587.634 381.999 622.274" stroke="#A166FF" stroke-width="27"/>
<path d="M165.533 587.109C169.416 588.235 174.316 591.062 178.074 590.489C179.832 590.221 181.503 590.119 183.235 589.702C190.534 587.945 197.56 585.773 205.636 586.233C213.067 586.657 219.961 588.413 227.389 590.98C234.238 593.347 240.595 595.22 247.374 595.365C254.45 595.516 260.92 593.85 268.242 594.888C270.586 595.22 272.962 595.184 275.302 595.683C277.706 596.195 280.02 597.133 282.41 597.707C283.887 598.063 298.054 602.197 298.006 603.582C297.91 606.349 293.889 608.741 291.926 609.662C288.05 611.482 283.672 612.457 279.294 613.184C270.046 614.719 261.453 616.824 251.196 612.801C244.361 610.12 237.535 606.329 231.089 602.349C225.213 598.721 219.786 594.74 213.484 592.358C211.077 591.449 207.823 589.826 205.38 589.696C204.096 589.628 202.915 589.44 204.298 590.856C209.281 595.955 217.047 599.782 223.116 602.721C227.577 604.881 232.04 606.801 236.595 608.401C240.907 609.914 245.404 610.704 249.578 612.981C254.372 615.597 258.379 619.289 262.862 622.505C265.483 624.386 268.629 626.105 271.015 628.327C272.223 629.452 273.022 628.617 274.254 628.137C276.179 627.387 278.073 626.635 280.057 626.054" stroke="#A166FF" stroke-width="37" stroke-linecap="round"/>
<path d="M154.084 600.825C157.966 601.951 162.866 604.778 166.625 604.205C168.383 603.937 170.053 603.835 171.786 603.418C179.084 601.661 186.111 599.489 194.186 599.949C201.618 600.373 208.511 602.128 215.939 604.696C222.788 607.063 229.146 608.935 235.924 609.08C243 609.232 249.47 607.566 256.793 608.604C259.137 608.936 261.513 608.9 263.853 609.399C266.256 609.911 268.57 610.848 270.96 611.423C272.438 611.779 286.604 615.913 286.556 617.298C286.461 620.064 282.439 622.457 280.476 623.378C276.601 625.198 272.222 626.173 267.845 626.9C258.596 628.435 250.004 630.54 239.746 626.517C232.911 623.836 226.086 620.045 219.639 616.065C213.764 612.437 208.336 608.456 202.034 606.074C199.627 605.165 196.374 603.541 193.93 603.412C192.647 603.344 191.465 603.156 192.848 604.571C197.832 609.67 205.598 613.498 211.667 616.437C216.127 618.597 220.59 620.517 225.145 622.116C229.458 623.63 233.954 624.42 238.128 626.697C242.922 629.313 246.929 633.004 251.412 636.221C254.033 638.101 257.179 639.82 259.565 642.042C260.774 643.168 261.572 642.333 262.804 641.853C264.73 641.102 266.623 640.351 268.608 639.77" stroke="#A166FF" stroke-width="37" stroke-linecap="round"/>
<path d="M284.614 641.736C285.303 640.894 286.063 640.125 286.763 639.318C287.097 638.933 287.231 638.447 287.61 638.092C288.115 637.62 288.521 637.094 289.063 636.657C290.373 635.602 291.873 634.869 293.424 634.161C294.073 633.865 294.715 633.374 295.411 633.178C295.955 633.025 296.51 632.362 297.08 632.368" stroke="#A166FF" stroke-width="37" stroke-linecap="round"/>
<path d="M291.27 638.043C290.216 623.406 296.728 617.989 303.599 612.452C308.331 608.639 313.062 604.826 317.794 601.013" stroke="#A166FF" stroke-width="37" stroke-linecap="round"/>
<path d="M175.233 585.889C197.363 564.681 221.615 567.501 246.904 570.716C264.318 572.93 281.732 575.144 299.146 577.358" stroke="#A166FF" stroke-width="37" stroke-linecap="round"/>
<path d="M120.06 603.354C147.892 579.122 178.154 582.664 209.708 586.675C231.437 589.437 253.165 592.199 274.893 594.961" stroke="#A166FF" stroke-width="37" stroke-linecap="round"/>
<path d="M-144.861 538.677C-144.861 538.677 -102.804 589.973 -68.1741 608.59C-22.5117 633.137 12.064 629.134 53.5652 624.16C95.0664 619.187 130.087 596.943 183.672 610.136C232.232 622.093 266.864 644.137 301.498 676.971" stroke="#A166FF"/>
<path d="M-40.0742 557.664C-40.0742 557.664 -3.48683 607.184 27.8034 626.565C69.0619 652.119 101.416 651.008 140.259 649.52C179.101 648.033 212.768 630.432 261.954 646.278C306.527 660.639 337.651 683.124 368.243 715.383" stroke="#6AE5B9" stroke-width="39"/>
<path d="M-46.8907 554.786C-46.8907 554.786 3.8277 606.876 42.773 623.314C94.125 644.988 130.315 636.1 173.733 625.242C217.152 614.384 251.638 585.011 310.038 592.96C362.961 600.164 402.317 620.44 442.962 652.8" stroke="#6AE5B9" stroke-width="27"/>
<path d="M243.928 618.277C247.503 619.353 252.029 622.007 255.473 621.516C257.084 621.286 258.616 621.208 260.202 620.84C266.883 619.292 273.31 617.358 280.727 617.861C287.552 618.324 293.897 620.009 300.74 622.448C307.051 624.697 312.905 626.485 319.128 626.685C325.624 626.893 331.546 625.421 338.277 626.449C340.432 626.778 342.612 626.768 344.765 627.25C346.976 627.745 349.109 628.632 351.309 629.186C352.669 629.527 365.713 633.476 365.683 634.753C365.623 637.302 361.956 639.468 360.164 640.299C356.625 641.938 352.616 642.795 348.605 643.422C340.132 644.747 332.267 646.604 322.811 642.795C316.511 640.258 310.208 636.696 304.251 632.964C298.822 629.563 293.8 625.84 287.992 623.583C285.773 622.722 282.771 621.194 280.527 621.05C279.348 620.975 278.262 620.79 279.546 622.109C284.171 626.858 291.337 630.462 296.937 633.23C301.053 635.265 305.169 637.078 309.366 638.597C313.339 640.034 317.474 640.806 321.328 642.946C325.755 645.403 329.47 648.845 333.617 651.854C336.041 653.613 338.946 655.228 341.158 657.3C342.279 658.349 343.003 657.588 344.129 657.157C345.889 656.484 347.619 655.809 349.435 655.293" stroke="#6AE5B9" stroke-width="37" stroke-linecap="round"/>
<path d="M233.557 630.809C237.132 631.885 241.658 634.539 245.102 634.047C246.712 633.818 248.244 633.74 249.831 633.372C256.512 631.824 262.939 629.89 270.356 630.393C277.181 630.856 283.526 632.541 290.369 634.98C296.68 637.229 302.534 639.017 308.757 639.217C315.253 639.425 321.175 637.952 327.906 638.981C330.06 639.31 332.241 639.3 334.394 639.782C336.605 640.277 338.738 641.164 340.938 641.717C342.298 642.059 355.342 646.008 355.312 647.285C355.252 649.834 351.584 652 349.792 652.83C346.254 654.47 342.245 655.326 338.234 655.954C329.761 657.279 321.896 659.136 312.44 655.327C306.14 652.789 299.837 649.228 293.88 645.496C288.451 642.095 283.429 638.372 277.62 636.115C275.402 635.253 272.4 633.725 270.156 633.582C268.977 633.507 267.891 633.322 269.175 634.641C273.8 639.389 280.966 642.993 286.566 645.762C290.682 647.797 294.798 649.61 298.995 651.128C302.968 652.566 307.103 653.337 310.957 655.477C315.384 657.935 319.099 661.377 323.246 664.386C325.67 666.145 328.575 667.76 330.787 669.832C331.908 670.881 332.632 670.119 333.758 669.689C335.518 669.015 337.248 668.341 339.064 667.825" stroke="#6AE5B9" stroke-width="37" stroke-linecap="round"/>
<path d="M252.819 617.25C272.916 597.911 295.204 600.747 318.448 603.956C334.454 606.166 350.46 608.376 366.465 610.586" stroke="#6AE5B9" stroke-width="37" stroke-linecap="round"/>
<path d="M202.354 632.814C227.654 610.742 255.466 614.301 284.468 618.305C304.439 621.062 324.41 623.819 344.381 626.576" stroke="#6AE5B9" stroke-width="37" stroke-linecap="round"/>
<path d="M-41.455 570.609C-41.455 570.609 -2.33703 618.304 29.6355 635.802C71.7935 658.876 103.488 655.522 141.53 651.341C179.571 647.161 211.49 626.997 260.806 639.681C305.496 651.175 337.505 671.834 369.624 702.438" stroke="#6AE5B9"/>
</g>
<defs>
<clipPath id="clip0_1053_746">
<rect width="309" height="638" fill="white"/>
</clipPath>
</defs>
</svg>
