<svg width="308" height="646" viewBox="0 0 308 646" fill="none" xmlns="http://www.w3.org/2000/svg">
<path d="M489.918 95.4987C489.918 95.4987 423.571 70.7119 380.498 76.0421C323.704 83.0704 291.753 113.01 253.485 149.13C215.217 185.25 191.755 235.396 132.746 260.658C79.2714 283.55 34.5191 285.147 -15.5136 274.987" stroke="#265F95" stroke-width="39"/>
<path d="M512.734 114.567C512.734 114.567 431.78 94.025 381.853 106.318C316.02 122.527 282.172 162.734 241.665 211.203C201.158 259.673 179.758 322.889 113.562 361.216C53.5743 395.949 1.21657 404.005 -58.7844 398.722" stroke="#265F95" stroke-width="63"/>
<path d="M161.759 272.01C157.401 273.654 151.213 274.198 147.808 277.602C146.216 279.194 144.628 280.54 143.133 282.276C136.836 289.588 131.01 297.151 122.866 302.622C115.373 307.657 107.755 310.842 99.2156 313.538C91.3418 316.024 84.1927 318.686 77.4753 323.541C70.4635 328.609 64.9343 335.21 57.2471 339.494C54.7863 340.865 52.4741 342.662 49.9359 343.85C47.329 345.069 44.6015 345.759 41.9767 346.9C40.354 347.606 24.4415 353.579 23.8107 352.034C22.5512 348.949 25.3241 343.369 26.7975 340.914C29.7073 336.065 33.5235 331.764 37.46 327.735C45.7769 319.223 53.1722 310.575 65.1979 307.371C73.2111 305.237 81.758 304.32 90.0263 303.889C97.5615 303.496 104.831 303.819 112.175 301.753C114.98 300.964 118.964 300.326 121.424 298.66C122.715 297.785 123.966 297.116 121.917 296.597C114.536 294.727 105.049 296.3 97.661 297.587C92.2305 298.532 86.9154 299.741 81.6667 301.368C76.6978 302.908 71.903 305.373 66.6965 305.979C60.7158 306.675 54.981 305.616 49.0118 305.427C45.5225 305.317 41.597 305.77 38.1702 305.115C36.435 304.782 36.0601 306.282 35.087 307.716C33.5663 309.958 32.0777 312.177 30.4156 314.277" stroke="#265F95" stroke-width="37" stroke-linecap="round"/>
<path d="M18.1818 300.514C17.9185 301.939 17.5498 303.336 17.2583 304.732C17.1192 305.398 17.2253 306.025 17.0272 306.691C16.7638 307.577 16.6227 308.45 16.3054 309.325C15.5386 311.44 14.4277 313.346 13.2548 315.262C12.7634 316.064 12.3751 317.071 11.7892 317.799C11.3308 318.368 11.1119 319.499 10.5505 319.912" stroke="#265F95" stroke-width="37" stroke-linecap="round"/>
<path d="M13.4831 309.431C21.6685 324.583 17.9368 335.29 13.9118 346.393C11.1401 354.038 8.36847 361.684 5.5968 369.33" stroke="#265F95" stroke-width="37" stroke-linecap="round"/>
<path d="M85.7562 303.721C108.821 324.266 105.252 335.032 101.227 346.135C98.4553 353.781 95.6836 361.427 92.912 369.072" stroke="#265F95" stroke-width="37" stroke-linecap="round"/>
<path d="M489.918 95.4987C489.918 95.4987 423.571 70.7119 380.498 76.0421C323.704 83.0704 291.753 113.01 253.485 149.13C215.217 185.25 191.755 235.396 132.746 260.658C79.2714 283.55 34.5191 285.147 -15.5136 274.987" stroke="#265F95"/>
<path d="M518.142 172.785C518.142 172.785 432.272 148.458 378.722 159.57C308.113 174.221 271.055 215.099 226.696 264.388C182.338 313.677 158.014 379.063 86.4934 416.841C21.6803 451.077 -34.362 457.671 -98.2417 450.041" stroke="#008AD7" stroke-width="39"/>
<path d="M528.606 168.436C528.606 168.436 423.913 157.682 363.925 182.17C284.827 214.458 250.009 270.795 208.403 338.654C166.798 406.514 151.721 489.251 76.229 549.181C7.81722 603.49 -55.9777 623.142 -131.749 627.566" stroke="#008AD7" stroke-width="27"/>
<path d="M131.819 433.43C126.688 436.279 119.073 438.093 115.453 442.961C113.76 445.238 112.028 447.208 110.483 449.646C103.974 459.918 98.0982 470.416 88.9499 478.73C80.5317 486.382 71.6192 491.751 61.4683 496.679C52.1085 501.224 43.6844 505.854 36.2009 513.14C28.3895 520.744 22.7075 529.987 13.9102 536.739C11.0941 538.901 8.5412 541.565 5.59476 543.511C2.56864 545.51 -0.705062 546.87 -3.76791 548.775C-5.66142 549.953 -24.4031 560.319 -25.4731 558.509C-27.6093 554.895 -25.1764 547.428 -23.7902 544.097C-21.0525 537.518 -17.084 531.456 -12.9159 525.711C-4.10945 513.572 3.52306 501.434 17.9275 495.234C27.5258 491.103 38.0127 488.391 48.2415 486.336C57.5633 484.463 66.6855 483.532 75.4624 479.609C78.8144 478.11 83.6639 476.584 86.4245 474.055C87.874 472.728 89.3102 471.664 86.6607 471.393C77.1163 470.416 65.5777 474.119 56.603 477.078C50.0064 479.253 43.602 481.736 37.3571 484.727C31.4451 487.559 25.9198 491.511 19.5401 493.222C12.2119 495.188 4.86819 494.92 -2.60818 495.78C-6.97854 496.283 -11.789 497.569 -16.1816 497.38C-18.4058 497.284 -18.598 499.223 -19.5479 501.19C-21.0324 504.263 -22.4809 507.303 -24.1676 510.226" stroke="#008AD7" stroke-width="37" stroke-linecap="round"/>
<path d="M133.14 403.464C128.009 406.314 120.395 408.128 116.775 412.996C115.081 415.273 113.349 417.242 111.804 419.681C105.296 429.952 99.4196 440.45 90.2713 448.765C81.8531 456.416 72.9406 461.785 62.7897 466.714C53.4299 471.258 45.0058 475.889 37.5223 483.174C29.7109 490.779 24.0289 500.022 15.2316 506.774C12.4155 508.936 9.86261 511.6 6.91617 513.546C3.89006 515.545 0.616349 516.905 -2.44649 518.81C-4.34001 519.987 -23.0817 530.354 -24.1517 528.544C-26.2879 524.929 -23.855 517.463 -22.4688 514.132C-19.731 507.553 -15.7626 501.491 -11.5944 495.746C-2.78804 483.607 4.84447 471.469 19.249 465.269C28.8472 461.137 39.3341 458.425 49.5629 456.37C58.8847 454.497 68.0069 453.567 76.7838 449.643C80.1358 448.145 84.9854 446.618 87.7459 444.09C89.1954 442.762 90.6317 441.699 87.9821 441.428C78.4377 440.451 66.8991 444.153 57.9244 447.113C51.3278 449.288 44.9234 451.77 38.6786 454.762C32.7665 457.593 27.2412 461.546 20.8616 463.257C13.5333 465.222 6.1896 464.955 -1.28677 465.815C-5.65713 466.318 -10.4676 467.604 -14.8602 467.415C-17.0844 467.319 -17.2765 469.257 -18.2265 471.224C-19.711 474.298 -21.1595 477.338 -22.8462 480.261" stroke="#008AD7" stroke-width="37" stroke-linecap="round"/>
<path d="M122.292 445.586C115.498 497.014 86.8433 520.148 56.739 543.924C36.0092 560.295 15.2793 576.667 -5.45054 593.039" stroke="#008AD7" stroke-width="37" stroke-linecap="round"/>
<path d="M168.112 362.751C157.586 424.324 121.811 453.161 84.2496 482.826C58.3847 503.253 32.5198 523.681 6.65494 544.108" stroke="#008AD7" stroke-width="37" stroke-linecap="round"/>
<path d="M508.537 153.155C508.537 153.155 421.275 134.429 368.555 148.979C299.04 168.163 264.702 211.351 223.622 263.404C182.543 315.457 162.496 382.278 93.566 424.601C31.1013 462.953 -24.3976 473.156 -88.6369 469.671" stroke="#008AD7"/>
</svg>
