<svg xmlns="http://www.w3.org/2000/svg" width="309" height="638" fill="none" viewBox="0 0 309 638"><g clip-path="url(#a)"><path stroke="#fcb44e" stroke-width="27" d="M377.036 74.916s-41.785-40.526-76.134-50.31c-45.292-12.903-79.533-.116-120.633 15.4s-75.737 46.63-128.85 47.08c-48.132.406-82.492-12.8-116.879-36.78"/><path stroke="#fcb44e" stroke-linecap="round" stroke-width="37" d="M110.224 39.607c-3.266-.7-7.346-2.758-10.56-2.05-1.504.331-2.927.518-4.414.972-6.262 1.912-12.305 4.153-19.159 4.264-6.307.102-12.114-.94-18.352-2.625-5.75-1.554-11.1-2.726-16.86-2.432-6.012.307-11.567 2.093-17.762 1.676-1.983-.134-4.005.042-5.98-.23-2.028-.28-3.966-.92-5.981-1.253-1.246-.206-13.165-2.785-13.081-3.943.167-2.312 3.662-4.553 5.36-5.441 3.353-1.755 7.107-2.836 10.852-3.71 7.914-1.846 15.287-4.128 23.885-1.402 5.73 1.817 11.416 4.56 16.775 7.483 4.883 2.665 9.376 5.652 14.661 7.251 2.019.611 4.735 1.765 6.81 1.724 1.088-.022 2.087.062.955-1.033-4.08-3.946-10.565-6.662-15.634-8.74-3.727-1.528-7.462-2.856-11.287-3.91-3.62-.998-7.42-1.381-10.898-3.024-3.996-1.887-7.289-4.72-11.001-7.127-2.17-1.407-4.792-2.647-6.753-4.353-.992-.865-1.697-.12-2.76.356-1.661.743-3.295 1.486-5 2.092"/><path stroke="#fcb44e" stroke-linecap="round" stroke-width="37" d="M120.384 27.475c-3.267-.701-7.346-2.758-10.56-2.05-1.504.33-2.927.518-4.414.972-6.262 1.912-12.305 4.153-19.159 4.264-6.307.102-12.115-.94-18.352-2.625-5.751-1.555-11.1-2.726-16.86-2.432-6.013.307-11.567 2.093-17.762 1.676-1.983-.134-4.005.042-5.98-.23-2.028-.28-3.966-.92-5.981-1.253-1.246-.206-13.165-2.785-13.081-3.943.167-2.312 3.662-4.553 5.36-5.441 3.353-1.755 7.107-2.836 10.852-3.71 7.913-1.846 15.287-4.128 23.885-1.402 5.73 1.817 11.416 4.56 16.775 7.483 4.883 2.665 9.375 5.652 14.661 7.251 2.019.611 4.735 1.765 6.81 1.723 1.088-.021 2.087.063.955-1.033-4.08-3.946-10.565-6.661-15.634-8.74-3.727-1.527-7.463-2.855-11.287-3.909-3.62-.998-7.42-1.381-10.898-3.024-3.996-1.887-7.289-4.72-11.001-7.127-2.17-1.407-4.793-2.647-6.753-4.354-.992-.864-1.698-.12-2.76.357-1.661.743-3.295 1.486-5 2.091m-13.554-.67c-.612.744-1.282 1.43-1.902 2.146-.297.342-.426.755-.76 1.074-.443.424-.805.888-1.279 1.285C5.559 6.814 4.26 7.517 2.92 8.2c-.562.287-1.122.735-1.72.941-.468.161-.96.748-1.444.777"/><path stroke="#fcb44e" stroke-linecap="round" stroke-width="37" d="M4.875 4.832c.44 12.136-5.265 17.05-11.28 22.086l-12.426 10.404m120.776 3.915c-19.486 19.023-40.023 18.15-61.43 17.011L-3.71 55.896"/><path stroke="#fcb44e" stroke-linecap="round" stroke-width="37" d="M149.403 23.314c-24.429 21.889-50.056 20.78-76.767 19.36l-55.18-2.934"/><path stroke="#fcb44e" d="M372.685 61.015S338.514 20.823 309.64 7.422c-38.071-17.67-67.602-12.214-103.053-5.526-35.452 6.689-65.93 27.38-111.093 19.661C54.567 14.563 25.8-1.695-2.634-26.949"/><path stroke="#fede74" stroke-width="39" d="M370.841 72.835s-31.747-42.036-59.905-57.192C273.807-4.341 243.762-.864 207.685 3.448S139.623 26.264 94.718 15.674C54.024 6.077 26.157-11.903-.79-38.77m-142.413 563.387s39.278 53.305 73.143 73.972c44.652 27.25 79.92 25.671 122.262 23.61s79.236-21.544 132.642-4.918c48.398 15.067 82.044 39.104 114.995 73.75"/><path stroke="#fede74" stroke-width="27" d="M-150.597 521.573s54.645 55.93 96.886 73.316c55.697 22.924 95.237 12.865 142.676.585 47.44-12.279 85.367-44.544 148.908-36.592 57.581 7.206 100.224 28.752 144.126 63.392"/><path stroke="#fede74" stroke-linecap="round" stroke-width="37" d="M165.533 587.109c3.883 1.126 8.783 3.953 12.541 3.38 1.758-.268 3.428-.37 5.161-.787 7.299-1.757 14.325-3.929 22.401-3.469 7.431.424 14.325 2.18 21.753 4.747 6.849 2.368 13.206 4.24 19.985 4.385 7.076.151 13.546-1.515 20.868-.477 2.344.333 4.72.296 7.06.795 2.404.512 4.717 1.45 7.108 2.024 1.477.356 15.644 4.49 15.596 5.875-.096 2.767-4.118 5.159-6.08 6.081-3.876 1.819-8.254 2.794-12.632 3.521-9.248 1.535-17.841 3.64-28.098-.383-6.835-2.681-13.661-6.472-20.107-10.452-5.876-3.628-11.303-7.609-17.605-9.991-2.407-.909-5.661-2.532-8.104-2.662-1.284-.068-2.465-.256-1.082 1.16 4.983 5.099 12.749 8.926 18.818 11.865 4.461 2.161 8.924 4.081 13.479 5.68 4.312 1.513 8.809 2.303 12.982 4.58 4.795 2.616 8.802 6.308 13.285 9.524 2.621 1.881 5.767 3.6 8.153 5.822 1.208 1.125 2.007.291 3.239-.19 1.925-.75 3.819-1.502 5.803-2.082"/><path stroke="#fede74" stroke-linecap="round" stroke-width="37" d="M154.084 600.824c3.882 1.126 8.782 3.954 12.541 3.381 1.758-.268 3.428-.37 5.161-.787 7.298-1.757 14.325-3.929 22.4-3.469 7.432.424 14.325 2.179 21.753 4.747 6.849 2.367 13.207 4.239 19.985 4.384 7.076.152 13.546-1.514 20.869-.476 2.343.332 4.72.296 7.06.795 2.403.511 4.717 1.449 7.107 2.024 1.478.355 15.644 4.489 15.596 5.875-.095 2.766-4.117 5.159-6.08 6.08-3.875 1.82-8.254 2.795-12.631 3.522-9.249 1.535-17.841 3.64-28.099-.383-6.835-2.681-13.66-6.472-20.107-10.453-5.875-3.627-11.303-7.609-17.605-9.99-2.407-.91-5.66-2.533-8.104-2.662-1.283-.068-2.465-.256-1.082 1.159 4.984 5.099 12.75 8.927 18.818 11.866 4.461 2.16 8.924 4.08 13.479 5.679 4.313 1.514 8.809 2.304 12.983 4.581 4.794 2.616 8.801 6.307 13.284 9.524 2.621 1.88 5.767 3.599 8.153 5.821 1.209 1.125 2.007.291 3.239-.189 1.926-.751 3.819-1.503 5.804-2.083m16.006 1.966c.688-.842 1.448-1.611 2.149-2.418.334-.386.468-.871.847-1.226.505-.472.911-.998 1.453-1.435 1.309-1.055 2.81-1.789 4.361-2.496.649-.297 1.291-.787 1.987-.983.544-.154 1.099-.817 1.669-.81"/><path stroke="#fede74" stroke-linecap="round" stroke-width="37" d="M291.27 638.043c-1.054-14.637 5.458-20.054 12.329-25.591l14.195-11.439m-142.561-15.124c22.13-21.208 46.382-18.388 71.671-15.173l52.242 6.642"/><path stroke="#fede74" stroke-linecap="round" stroke-width="37" d="M120.06 603.354c27.832-24.232 58.094-20.69 89.648-16.679l65.185 8.286"/><path stroke="#fede74" d="M-144.861 538.677s42.057 51.296 76.687 69.913c45.662 24.547 80.238 20.544 121.74 15.57 41.5-4.973 76.521-27.217 130.106-14.023 48.56 11.956 83.192 34.001 117.826 66.834"/><path stroke="#fcb44e" stroke-width="39" d="M-40.074 557.664s36.587 49.52 67.877 68.901c41.259 25.554 73.613 24.443 112.455 22.955 38.843-1.487 72.509-19.088 121.696-3.241 44.573 14.36 75.696 36.846 106.289 69.104"/><path stroke="#fcb44e" stroke-width="27" d="M-46.89 554.787s50.718 52.089 89.663 68.527c51.352 21.674 87.542 12.786 130.96 1.928 43.419-10.857 77.905-40.231 136.305-32.282 52.923 7.204 92.279 27.48 132.923 59.84"/><path stroke="#fcb44e" stroke-linecap="round" stroke-width="37" d="M243.928 618.277c3.575 1.076 8.101 3.73 11.545 3.238 1.61-.229 3.142-.307 4.729-.675 6.681-1.548 13.108-3.482 20.525-2.979 6.825.463 13.17 2.148 20.013 4.587 6.311 2.249 12.165 4.037 18.388 4.237 6.496.208 12.418-1.265 19.149-.236 2.154.329 4.335.319 6.488.801 2.211.495 4.344 1.382 6.544 1.935 1.36.342 14.404 4.291 14.374 5.568-.06 2.549-3.728 4.715-5.52 5.545-3.538 1.64-7.547 2.496-11.558 3.124-8.473 1.325-16.338 3.182-25.794-.627-6.3-2.538-12.603-6.099-18.56-9.831-5.429-3.401-10.451-7.124-16.26-9.381-2.218-.862-5.22-2.389-7.464-2.533-1.179-.075-2.265-.26-.981 1.059 4.625 4.748 11.791 8.352 17.391 11.121 4.116 2.035 8.232 3.848 12.429 5.366 3.973 1.438 8.108 2.21 11.962 4.349 4.427 2.458 8.142 5.9 12.289 8.909 2.424 1.759 5.329 3.374 7.541 5.446 1.121 1.049 1.845.287 2.971-.143 1.76-.674 3.49-1.348 5.306-1.864"/><path stroke="#fcb44e" stroke-linecap="round" stroke-width="37" d="M233.557 630.809c3.574 1.076 8.101 3.73 11.545 3.238 1.61-.23 3.142-.307 4.729-.675 6.681-1.548 13.108-3.482 20.525-2.979 6.825.462 13.17 2.148 20.013 4.587 6.311 2.249 12.164 4.037 18.388 4.236 6.495.209 12.417-1.264 19.149-.236 2.154.33 4.335.32 6.488.802 2.211.495 4.344 1.382 6.544 1.935 1.359.342 14.404 4.291 14.374 5.568-.06 2.549-3.728 4.715-5.52 5.545-3.539 1.64-7.548 2.496-11.558 3.123-8.473 1.326-16.339 3.182-25.794-.626-6.301-2.538-12.603-6.099-18.56-9.831-5.429-3.401-10.451-7.124-16.26-9.381-2.218-.862-5.22-2.39-7.465-2.533-1.178-.075-2.265-.26-.981 1.058 4.626 4.749 11.792 8.353 17.392 11.122 4.116 2.034 8.231 3.848 12.429 5.366 3.973 1.438 8.108 2.209 11.962 4.349 4.427 2.458 8.141 5.9 12.289 8.909 2.424 1.759 5.328 3.374 7.541 5.446 1.121 1.048 1.845.287 2.971-.144 1.76-.673 3.49-1.347 5.306-1.863m-86.245-50.575c20.097-19.339 42.385-16.503 65.629-13.294l48.017 6.631"/><path stroke="#fcb44e" stroke-linecap="round" stroke-width="37" d="M202.354 632.814c25.3-22.073 53.112-18.513 82.114-14.509l59.913 8.271"/><path stroke="#fcb44e" d="M-41.455 570.609s39.118 47.695 71.09 65.193c42.158 23.074 73.853 19.72 111.895 15.539 38.041-4.18 69.96-24.344 119.276-11.66 44.69 11.494 76.699 32.153 108.818 62.757"/></g><defs><clipPath id="a"><path fill="#fff" d="M0 0h309v638H0z"/></clipPath></defs></svg>