<svg width="304" height="638" viewBox="0 0 304 638" fill="none" xmlns="http://www.w3.org/2000/svg">
<path d="M370.935 74.6377C370.935 74.6377 329.876 34.1588 296.092 24.416C251.546 11.5695 217.84 24.4015 177.383 39.9725C136.926 55.5435 102.806 86.7047 50.5477 87.2209C3.19065 87.6887 -30.5986 74.5234 -64.4005 50.584" stroke="#3DC3FF" stroke-width="27"/>
<path d="M108.441 39.5336C105.227 38.8368 101.216 36.7852 98.0527 37.4969C96.5731 37.8299 95.1721 38.0189 93.7088 38.4747C87.5451 40.3943 81.596 42.643 74.8523 42.7625C68.6468 42.8724 62.9337 41.8382 56.7989 40.1607C51.1421 38.6139 45.8813 37.4494 40.2132 37.7508C34.2966 38.0654 28.8289 39.8574 22.7341 39.4484C20.783 39.3175 18.7934 39.4956 16.8509 39.2259C14.8559 38.9488 12.9493 38.3112 10.9672 37.981C9.74182 37.7769 -1.98239 35.2132 -1.89834 34.0551C-1.73053 31.743 1.71102 29.4979 3.38252 28.6074C6.68365 26.8488 10.3789 25.7631 14.0652 24.8845C21.8536 23.0282 29.1111 20.7379 37.5678 23.4527C43.2028 25.2616 48.7944 27.9971 54.0632 30.9136C58.8649 33.5716 63.2808 36.5526 68.4794 38.1453C70.4648 38.7535 73.1358 39.9039 75.1768 39.8597C76.2485 39.8365 77.2315 39.9195 76.1187 38.8256C72.11 34.8853 65.7324 32.1782 60.7469 30.1062C57.0824 28.5833 53.4085 27.2608 49.6471 26.2115C46.0861 25.2182 42.3485 24.84 38.9277 23.2017C34.9983 21.3198 31.7621 18.492 28.1125 16.0897C25.979 14.6854 23.4009 13.4484 21.4743 11.7447C20.4988 10.882 19.804 11.6273 18.7576 12.1045C17.1225 12.8501 15.5142 13.595 13.8349 14.2024" stroke="#3DC3FF" stroke-width="37" stroke-linecap="round"/>
<path d="M118.436 27.4013C115.223 26.7044 111.212 24.6529 108.048 25.3646C106.569 25.6975 105.168 25.8866 103.704 26.3424C97.5407 28.2619 91.5915 30.5107 84.8479 30.6301C78.6424 30.74 72.9293 29.7059 66.7944 28.0283C61.1376 26.4816 55.8768 25.3171 50.2087 25.6185C44.2921 25.9331 38.8244 27.7251 32.7296 27.3161C30.7786 27.1852 28.7889 27.3632 26.8464 27.0935C24.8514 26.8165 22.9448 26.1789 20.9627 25.8487C19.7374 25.6445 8.01315 23.0809 8.0972 21.9228C8.26501 19.6106 11.7066 17.3656 13.3781 16.4751C16.6792 14.7164 20.3744 13.6308 24.0607 12.7522C31.8491 10.8959 39.1067 8.6056 47.5634 11.3204C53.1984 13.1293 58.7899 15.8647 64.0588 18.7813C68.8604 21.4392 73.2763 24.4203 78.4749 26.0129C80.4603 26.6212 83.1314 27.7716 85.1724 27.7274C86.2441 27.7042 87.2271 27.7872 86.1142 26.6933C82.1056 22.7529 75.728 20.0459 70.7424 17.9739C67.0779 16.451 63.404 15.1284 59.6426 14.0792C56.0817 13.0859 52.3441 12.7077 48.9233 11.0694C44.9939 9.1875 41.7577 6.35963 38.108 3.95736C35.9746 2.5531 33.3964 1.31611 31.4699 -0.387607C30.4943 -1.25031 29.7996 -0.505051 28.7532 -0.0278593C27.1181 0.717808 25.5097 1.46263 23.8305 2.07003" stroke="#3DC3FF" stroke-width="37" stroke-linecap="round"/>
<path d="M10.4753 1.34771C9.87285 2.09172 9.21333 2.77881 8.60244 3.4944C8.31084 3.83598 8.18355 4.24856 7.85522 4.56763C7.41882 4.99171 7.06227 5.45506 6.59556 5.8523C5.46775 6.8122 4.19051 7.51619 2.87204 8.20164C2.31963 8.48884 1.76808 8.93723 1.18013 9.1437C0.720068 9.30526 0.235785 9.89171 -0.240397 9.92158" stroke="#3DC3FF" stroke-width="37" stroke-linecap="round"/>
<path d="M4.80986 4.83252C5.22714 16.9567 -0.388991 21.8734 -6.30939 26.9124C-10.3862 30.3823 -14.463 33.8521 -18.5398 37.322" stroke="#3DC3FF" stroke-width="37" stroke-linecap="round"/>
<path d="M100.321 41.1313C81.1202 60.279 60.9099 59.4277 39.8433 58.3103C25.3368 57.5407 10.8303 56.7712 -3.67619 56.0017" stroke="#3DC3FF" stroke-width="37" stroke-linecap="round"/>
<path d="M147.016 23.1851C122.946 45.2264 97.7278 44.144 71.4428 42.7497C53.3429 41.7896 35.2429 40.8294 17.143 39.8693" stroke="#3DC3FF" stroke-width="37" stroke-linecap="round"/>
<path d="M366.655 60.7812C366.655 60.7812 333.077 20.629 304.68 7.26364C267.236 -10.3596 238.167 -4.86653 203.27 1.8677C168.373 8.60193 138.352 29.333 93.9161 21.6712C53.6477 14.7281 25.3573 -1.49555 -2.59167 -26.7159" stroke="#3DC3FF"/>
<path d="M364.84 72.6003C364.84 72.6003 333.649 30.6041 305.955 15.4837C269.438 -4.45359 239.864 -0.938946 204.351 3.41888C168.839 7.77671 137.335 26.3217 93.1523 15.7881C53.1136 6.24235 25.7093 -11.702 -0.777126 -38.5351" stroke="#6AE5B9" stroke-width="39"/>
<path d="M-128.886 523.954C-128.886 523.954 -90.3039 577.202 -56.9999 597.818C-13.0862 625.001 21.6338 623.368 63.3192 621.241C105.005 619.114 141.354 599.572 193.902 616.117C241.521 631.11 274.605 655.097 306.988 689.694" stroke="#3DC3FF" stroke-width="39"/>
<path d="M-136.16 520.969C-136.16 520.969 -82.471 576.833 -40.9287 594.159C13.8478 617.004 52.7753 606.88 99.4808 594.523C146.186 582.166 183.562 549.833 246.081 557.689C302.736 564.809 344.667 586.295 387.818 620.878" stroke="#3DC3FF" stroke-width="27"/>
<path d="M174.855 586.215C178.673 587.335 183.491 590.155 187.191 589.576C188.921 589.305 190.565 589.201 192.271 588.781C199.456 587.013 206.374 584.83 214.32 585.278C221.632 585.69 228.413 587.435 235.718 589.99C242.455 592.347 248.708 594.209 255.378 594.344C262.341 594.484 268.711 592.808 275.915 593.835C278.221 594.164 280.559 594.124 282.861 594.619C285.225 595.127 287.501 596.061 289.852 596.632C291.306 596.985 305.24 601.097 305.19 602.483C305.092 605.249 301.13 607.647 299.198 608.572C295.381 610.397 291.071 611.379 286.762 612.113C277.658 613.662 269.2 615.78 259.112 611.773C252.39 609.103 245.679 605.323 239.341 601.353C233.566 597.735 228.231 593.762 222.033 591.39C219.666 590.484 216.467 588.866 214.062 588.741C212.799 588.674 211.637 588.488 212.996 589.902C217.892 594.993 225.528 598.808 231.495 601.737C235.882 603.891 240.27 605.804 244.75 607.395C248.992 608.903 253.415 609.685 257.519 611.956C262.233 614.564 266.17 618.249 270.577 621.459C273.153 623.335 276.246 625.049 278.591 627.267C279.778 628.39 280.565 627.555 281.778 627.073C283.674 626.319 285.539 625.564 287.492 624.981" stroke="#3DC3FF" stroke-width="37" stroke-linecap="round"/>
<path d="M163.59 599.931C167.409 601.051 172.227 603.87 175.926 603.292C177.657 603.021 179.3 602.917 181.006 602.497C188.191 600.729 195.109 598.546 203.055 598.993C210.368 599.406 217.148 601.151 224.454 603.706C231.19 606.063 237.443 607.925 244.114 608.06C251.076 608.2 257.446 606.524 264.65 607.551C266.956 607.879 269.295 607.84 271.597 608.335C273.961 608.843 276.236 609.777 278.588 610.348C280.041 610.701 293.975 614.813 293.926 616.198C293.827 618.965 289.866 621.363 287.933 622.288C284.117 624.113 279.806 625.095 275.498 625.828C266.394 627.378 257.935 629.496 247.847 625.489C241.125 622.819 234.415 619.039 228.077 615.068C222.301 611.45 216.966 607.477 210.768 605.106C208.401 604.2 205.202 602.582 202.798 602.456C201.535 602.39 200.372 602.204 201.731 603.617C206.627 608.708 214.264 612.524 220.231 615.453C224.617 617.606 229.006 619.519 233.486 621.111C237.727 622.618 242.151 623.401 246.255 625.672C250.969 628.28 254.906 631.965 259.312 635.174C261.888 637.051 264.981 638.765 267.326 640.983C268.513 642.106 269.301 641.271 270.514 640.788C272.41 640.035 274.274 639.28 276.228 638.697" stroke="#3DC3FF" stroke-width="37" stroke-linecap="round"/>
<path d="M292.006 640.737C292.684 639.895 293.433 639.127 294.122 638.319C294.451 637.934 294.584 637.449 294.957 637.094C295.453 636.622 295.854 636.096 296.387 635.659C297.676 634.604 299.151 633.869 300.677 633.16C301.316 632.863 301.947 632.372 302.631 632.176C303.167 632.022 303.712 631.359 304.273 631.365" stroke="#3DC3FF" stroke-width="37" stroke-linecap="round"/>
<path d="M298.536 637.043C297.523 622.424 303.934 617.003 310.698 611.461C315.356 607.645 320.014 603.829 324.672 600.013" stroke="#3DC3FF" stroke-width="37" stroke-linecap="round"/>
<path d="M184.36 585.006C206.177 563.66 230.043 566.456 254.931 569.648C272.068 571.846 289.206 574.044 306.344 576.242" stroke="#3DC3FF" stroke-width="37" stroke-linecap="round"/>
<path d="M130.074 602.496C157.507 578.096 187.288 581.61 218.341 585.592C239.723 588.335 261.106 591.077 282.489 593.819" stroke="#3DC3FF" stroke-width="37" stroke-linecap="round"/>
<path d="M-130.517 538.011C-130.517 538.011 -89.2011 589.25 -55.1436 607.816C-10.2364 632.298 23.803 628.24 64.6607 623.201C105.518 618.163 140.024 595.861 192.748 608.974C240.527 620.857 274.581 642.852 308.619 675.638" stroke="#3DC3FF"/>
<path d="M-39.4256 557.973C-39.4256 557.973 -3.48587 607.441 27.2866 626.775C67.8623 652.268 99.7141 651.106 137.954 649.558C176.194 648.011 209.364 630.356 257.76 646.128C301.616 660.42 332.219 682.86 362.285 715.073" stroke="#6AE5B9" stroke-width="39"/>
<path d="M-46.1317 555.15C-46.1317 555.15 3.69997 607.178 42.0014 623.561C92.5046 645.163 128.134 636.216 170.881 625.287C213.628 614.359 247.613 584.922 305.074 592.784C357.146 599.908 395.846 620.13 435.794 652.437" stroke="#6AE5B9" stroke-width="27"/>
<path d="M239.981 618.375C243.497 619.445 247.947 622.092 251.337 621.595C252.923 621.363 254.43 621.283 255.992 620.913C262.569 619.354 268.897 617.41 276.195 617.902C282.911 618.354 289.152 620.03 295.883 622.458C302.089 624.697 307.847 626.475 313.971 626.666C320.363 626.864 326.193 625.382 332.815 626.4C334.935 626.726 337.081 626.712 339.199 627.191C341.374 627.683 343.472 628.567 345.635 629.116C346.973 629.456 359.803 633.385 359.772 634.661C359.709 637.21 356.096 639.382 354.332 640.215C350.847 641.86 346.9 642.723 342.952 643.356C334.612 644.695 326.869 646.563 317.57 642.77C311.374 640.242 305.177 636.69 299.321 632.968C293.983 629.575 289.047 625.86 283.335 623.613C281.153 622.754 278.201 621.231 275.993 621.091C274.833 621.018 273.764 620.835 275.026 622.151C279.57 626.893 286.617 630.485 292.123 633.245C296.17 635.273 300.217 637.08 304.345 638.592C308.253 640.023 312.321 640.788 316.11 642.922C320.463 645.373 324.113 648.809 328.189 651.812C330.572 653.566 333.428 655.177 335.602 657.245C336.703 658.292 337.417 657.53 338.526 657.097C340.259 656.422 341.963 655.744 343.75 655.226" stroke="#6AE5B9" stroke-width="37" stroke-linecap="round"/>
<path d="M229.778 630.907C233.294 631.977 237.744 634.624 241.134 634.127C242.719 633.895 244.227 633.815 245.789 633.445C252.366 631.886 258.694 629.942 265.992 630.433C272.708 630.886 278.949 632.561 285.679 634.99C291.886 637.229 297.644 639.007 303.767 639.197C310.159 639.396 315.99 637.914 322.612 638.932C324.732 639.258 326.878 639.244 328.995 639.723C331.171 640.215 333.268 641.098 335.432 641.648C336.77 641.988 349.6 645.916 349.568 647.193C349.505 649.742 345.893 651.914 344.128 652.747C340.643 654.392 336.697 655.255 332.749 655.888C324.409 657.226 316.666 659.095 307.367 655.301C301.171 652.774 294.974 649.222 289.117 645.5C283.78 642.107 278.844 638.392 273.132 636.144C270.95 635.286 267.998 633.763 265.79 633.623C264.63 633.55 263.561 633.367 264.822 634.683C269.367 639.424 276.413 643.017 281.92 645.777C285.967 647.805 290.014 649.612 294.142 651.124C298.05 652.555 302.117 653.32 305.907 655.454C310.259 657.905 313.91 661.341 317.986 664.343C320.369 666.098 323.225 667.709 325.399 669.777C326.5 670.824 327.214 670.062 328.323 669.629C330.056 668.953 331.759 668.276 333.547 667.758" stroke="#6AE5B9" stroke-width="37" stroke-linecap="round"/>
<path d="M248.693 617.354C268.507 597.892 290.441 600.707 313.315 603.895C329.067 606.091 344.819 608.287 360.57 610.483" stroke="#6AE5B9" stroke-width="37" stroke-linecap="round"/>
<path d="M199.04 632.939C223.978 610.719 251.348 614.253 279.889 618.231C299.542 620.971 319.196 623.711 338.849 626.451" stroke="#6AE5B9" stroke-width="37" stroke-linecap="round"/>
<path d="M-40.784 570.915C-40.784 570.915 -2.35433 618.558 29.0894 636.01C70.5502 659.023 101.753 655.62 139.205 651.379C176.657 647.139 208.107 626.922 256.63 639.532C300.602 650.959 332.076 671.572 363.643 702.132" stroke="#6AE5B9"/>
</svg>
